<?xml version="1.0" encoding="UTF-8" standalone="no"?>
<!DOCTYPE svg PUBLIC "-//W3C//DTD SVG 1.0//EN"
 "http://www.w3.org/TR/2001/REC-SVG-20010904/DTD/svg10.dtd" [
 <!ATTLIST svg xmlns:xlink CDATA #FIXED "http://www.w3.org/1999/xlink">
]>
<!-- Generated by Graphviz version 2.20.2 (Tue Mar &#160;2 19:03:41 UTC 2010)
     For user: (jenkins)  -->
<!-- Title: G Pages: 1 -->
<svg width="468pt" height="84pt"
 viewBox="0.00 0.00 468.00 84.00" xmlns="http://www.w3.org/2000/svg" xmlns:xlink="http://www.w3.org/1999/xlink">
<g id="graph0" class="graph" transform="scale(1 1) rotate(0) translate(4 80)">
<title>G</title>
<polygon style="fill:white;stroke:white;" points="-4,4 -4,-80 464,-80 464,4 -4,4"/>
<!-- Node1 -->
<g id="node1" class="node"><title>Node1</title>
<polygon style="fill:#bfbfbf;stroke:black;" points="110,-56 110,-76 231,-76 231,-56 110,-56"/>
<text text-anchor="middle" x="170" y="-63" style="font-family:Arial;font-size:10.00;">ltr/measures/abs_error.h</text>
</g>
<!-- Node2 -->
<g id="node3" class="node"><title>Node2</title>
<polygon style="fill:white;stroke:#bfbfbf;" points="0,-0 0,-20 43,-20 43,-0 0,-0"/>
<text text-anchor="middle" x="21" y="-7" style="font-family:Arial;font-size:10.00;">cmath</text>
</g>
<!-- Node1&#45;&gt;Node2 -->
<g id="edge2" class="edge"><title>Node1&#45;&gt;Node2</title>
<path style="fill:none;stroke:midnightblue;" d="M143,-56C118,-46 80,-32 52,-22"/>
<polygon style="fill:midnightblue;stroke:midnightblue;" points="53.5596,-18.8631 43,-18 50.7166,-25.2598 53.5596,-18.8631"/>
</g>
<!-- Node3 -->
<g id="node5" class="node"><title>Node3</title>
<polygon style="fill:white;stroke:#bfbfbf;" points="60,-0 60,-20 100,-20 100,-0 60,-0"/>
<text text-anchor="middle" x="80" y="-7" style="font-family:Arial;font-size:10.00;">string</text>
</g>
<!-- Node1&#45;&gt;Node3 -->
<g id="edge4" class="edge"><title>Node1&#45;&gt;Node3</title>
<path style="fill:none;stroke:midnightblue;" d="M154,-56C141,-48 121,-35 105,-25"/>
<polygon style="fill:midnightblue;stroke:midnightblue;" points="106.441,-21.7969 96,-20 103.042,-27.916 106.441,-21.7969"/>
</g>
<!-- Node4 -->
<g id="node7" class="node"><title>Node4</title>
<polygon style="fill:white;stroke:#bfbfbf;" points="118,-0 118,-20 222,-20 222,-0 118,-0"/>
<text text-anchor="middle" x="170" y="-7" style="font-family:Arial;font-size:10.00;">ltr/utility/numerical.h</text>
</g>
<!-- Node1&#45;&gt;Node4 -->
<g id="edge6" class="edge"><title>Node1&#45;&gt;Node4</title>
<path style="fill:none;stroke:midnightblue;" d="M170,-56C170,-49 170,-39 170,-30"/>
<polygon style="fill:midnightblue;stroke:midnightblue;" points="173.5,-30 170,-20 166.5,-30 173.5,-30"/>
</g>
<!-- Node5 -->
<g id="node9" class="node"><title>Node5</title>
<polygon style="fill:white;stroke:#bfbfbf;" points="240,-0 240,-20 359,-20 359,-0 240,-0"/>
<text text-anchor="middle" x="299" y="-7" style="font-family:Arial;font-size:10.00;">ltr/measures/measure.h</text>
</g>
<!-- Node1&#45;&gt;Node5 -->
<g id="edge8" class="edge"><title>Node1&#45;&gt;Node5</title>
<path style="fill:none;stroke:midnightblue;" d="M193,-56C213,-47 243,-34 266,-24"/>
<polygon style="fill:midnightblue;stroke:midnightblue;" points="268.015,-26.9636 276,-20 265.415,-20.4643 268.015,-26.9636"/>
</g>
<!-- Node6 -->
<g id="node11" class="node"><title>Node6</title>
<polygon style="fill:white;stroke:#bfbfbf;" points="376,-0 376,-20 460,-20 460,-0 376,-0"/>
<text text-anchor="middle" x="418" y="-7" style="font-family:Arial;font-size:10.00;">ltr/data/object.h</text>
</g>
<!-- Node1&#45;&gt;Node6 -->
<g id="edge10" class="edge"><title>Node1&#45;&gt;Node6</title>
<path style="fill:none;stroke:midnightblue;" d="M214,-56C257,-47 321,-32 366,-22"/>
<polygon style="fill:midnightblue;stroke:midnightblue;" points="366.881,-25.3933 376,-20 365.508,-18.5292 366.881,-25.3933"/>
</g>
</g>
</svg>
