<?xml version="1.0" encoding="UTF-8" standalone="no"?>
<!DOCTYPE svg PUBLIC "-//W3C//DTD SVG 1.0//EN"
 "http://www.w3.org/TR/2001/REC-SVG-20010904/DTD/svg10.dtd" [
 <!ATTLIST svg xmlns:xlink CDATA #FIXED "http://www.w3.org/1999/xlink">
]>
<!-- Generated by Graphviz version 2.20.2 (Tue Mar &#160;2 19:03:41 UTC 2010)
     For user: (jenkins)  -->
<!-- Title: G Pages: 1 -->
<svg width="1626pt" height="84pt"
 viewBox="0.00 0.00 1626.00 84.00" xmlns="http://www.w3.org/2000/svg" xmlns:xlink="http://www.w3.org/1999/xlink">
<g id="graph0" class="graph" transform="scale(1 1) rotate(0) translate(4 80)">
<title>G</title>
<polygon style="fill:white;stroke:white;" points="-4,4 -4,-80 1622,-80 1622,4 -4,4"/>
<!-- Node1 -->
<g id="node1" class="node"><title>Node1</title>
<polygon style="fill:#bfbfbf;stroke:black;" points="855,-56 855,-76 976,-76 976,-56 855,-56"/>
<text text-anchor="middle" x="915" y="-63" style="font-family:Arial;font-size:10.00;">ltr/measures/abs_error.h</text>
</g>
<!-- Node2 -->
<g id="node3" class="node"><title>Node2</title>
<a xlink:href="crossvalidation__unittest_8cc.html" target="_top" xlink:title="ltr/crossvalidation/crossvalidation_unittest.cc">
<polygon style="fill:white;stroke:black;" points="0,-0 0,-20 209,-20 209,-0 0,-0"/>
<text text-anchor="middle" x="104" y="-7" style="font-family:Arial;font-size:10.00;">ltr/crossvalidation/crossvalidation_unittest.cc</text>
</a>
</g>
<!-- Node1&#45;&gt;Node2 -->
<g id="edge2" class="edge"><title>Node1&#45;&gt;Node2</title>
<path style="fill:none;stroke:midnightblue;" d="M845,-61C719,-54 447,-37 217,-20 214,-20 212,-20 209,-19"/>
<polygon style="fill:midnightblue;stroke:midnightblue;" points="844.701,-64.4875 855,-62 845.398,-57.5222 844.701,-64.4875"/>
</g>
<!-- Node3 -->
<g id="node5" class="node"><title>Node3</title>
<a xlink:href="composition__learner__unittest_8cc.html" target="_top" xlink:title="ltr/learners/composition_learner/composition_learner_unittest.cc">
<polygon style="fill:white;stroke:black;" points="226,-0 226,-20 519,-20 519,-0 226,-0"/>
<text text-anchor="middle" x="372" y="-7" style="font-family:Arial;font-size:10.00;">ltr/learners/composition_learner/composition_learner_unittest.cc</text>
</a>
</g>
<!-- Node1&#45;&gt;Node3 -->
<g id="edge4" class="edge"><title>Node1&#45;&gt;Node3</title>
<path style="fill:none;stroke:midnightblue;" d="M845,-59C748,-49 577,-32 469,-20"/>
<polygon style="fill:midnightblue;stroke:midnightblue;" points="844.701,-62.4875 855,-60 845.398,-55.5222 844.701,-62.4875"/>
</g>
<!-- Node4 -->
<g id="node7" class="node"><title>Node4</title>
<a xlink:href="linear__composition__unittest_8cc.html" target="_top" xlink:title="ltr/learners/composition_learner/linear_composition_unittest.cc">
<polygon style="fill:white;stroke:black;" points="536,-0 536,-20 823,-20 823,-0 536,-0"/>
<text text-anchor="middle" x="679" y="-7" style="font-family:Arial;font-size:10.00;">ltr/learners/composition_learner/linear_composition_unittest.cc</text>
</a>
</g>
<!-- Node1&#45;&gt;Node4 -->
<g id="edge6" class="edge"><title>Node1&#45;&gt;Node4</title>
<path style="fill:none;stroke:midnightblue;" d="M863,-54C820,-44 761,-29 721,-20"/>
<polygon style="fill:midnightblue;stroke:midnightblue;" points="862.508,-57.4708 873,-56 863.881,-50.6067 862.508,-57.4708"/>
</g>
<!-- Node5 -->
<g id="node9" class="node"><title>Node5</title>
<a xlink:href="learners__unittest_8cc.html" target="_top" xlink:title="ltr/learners/learners_unittest.cc">
<polygon style="fill:white;stroke:black;" points="840,-0 840,-20 990,-20 990,-0 840,-0"/>
<text text-anchor="middle" x="915" y="-7" style="font-family:Arial;font-size:10.00;">ltr/learners/learners_unittest.cc</text>
</a>
</g>
<!-- Node1&#45;&gt;Node5 -->
<g id="edge8" class="edge"><title>Node1&#45;&gt;Node5</title>
<path style="fill:none;stroke:midnightblue;" d="M915,-46C915,-37 915,-28 915,-20"/>
<polygon style="fill:midnightblue;stroke:midnightblue;" points="911.5,-46 915,-56 918.5,-46 911.5,-46"/>
</g>
<!-- Node6 -->
<g id="node11" class="node"><title>Node6</title>
<a xlink:href="measure__unittest_8cc.html" target="_top" xlink:title="ltr/measures/measure_unittest.cc">
<polygon style="fill:white;stroke:black;" points="1008,-0 1008,-20 1170,-20 1170,-0 1008,-0"/>
<text text-anchor="middle" x="1089" y="-7" style="font-family:Arial;font-size:10.00;">ltr/measures/measure_unittest.cc</text>
</a>
</g>
<!-- Node1&#45;&gt;Node6 -->
<g id="edge10" class="edge"><title>Node1&#45;&gt;Node6</title>
<path style="fill:none;stroke:midnightblue;" d="M956,-53C987,-43 1029,-29 1058,-20"/>
<polygon style="fill:midnightblue;stroke:midnightblue;" points="954.573,-49.7741 946,-56 956.584,-56.4788 954.573,-49.7741"/>
</g>
<!-- Node7 -->
<g id="node13" class="node"><title>Node7</title>
<a xlink:href="pointwise__measures__unittest_8cc.html" target="_top" xlink:title="ltr/measures/pointwise_measures_unittest.cc">
<polygon style="fill:white;stroke:black;" points="1188,-0 1188,-20 1401,-20 1401,-0 1188,-0"/>
<text text-anchor="middle" x="1294" y="-7" style="font-family:Arial;font-size:10.00;">ltr/measures/pointwise_measures_unittest.cc</text>
</a>
</g>
<!-- Node1&#45;&gt;Node7 -->
<g id="edge12" class="edge"><title>Node1&#45;&gt;Node7</title>
<path style="fill:none;stroke:midnightblue;" d="M986,-56C1055,-45 1158,-30 1226,-20"/>
<polygon style="fill:midnightblue;stroke:midnightblue;" points="985.602,-52.5222 976,-57 986.299,-59.4875 985.602,-52.5222"/>
</g>
<!-- Node8 -->
<g id="node15" class="node"><title>Node8</title>
<a xlink:href="generator_8cc.html" target="_top" xlink:title="ltr/serialization_test/generator/generator.cc">
<polygon style="fill:white;stroke:black;" points="1418,-0 1418,-20 1619,-20 1619,-0 1418,-0"/>
<text text-anchor="middle" x="1518" y="-7" style="font-family:Arial;font-size:10.00;">ltr/serialization_test/generator/generator.cc</text>
</a>
</g>
<!-- Node1&#45;&gt;Node8 -->
<g id="edge14" class="edge"><title>Node1&#45;&gt;Node8</title>
<path style="fill:none;stroke:midnightblue;" d="M986,-59C1093,-50 1296,-31 1418,-19"/>
<polygon style="fill:midnightblue;stroke:midnightblue;" points="985.602,-55.5222 976,-60 986.299,-62.4875 985.602,-55.5222"/>
</g>
</g>
</svg>
