<?xml version="1.0" encoding="UTF-8" standalone="no"?>
<!DOCTYPE svg PUBLIC "-//W3C//DTD SVG 1.0//EN"
 "http://www.w3.org/TR/2001/REC-SVG-20010904/DTD/svg10.dtd" [
 <!ATTLIST svg xmlns:xlink CDATA #FIXED "http://www.w3.org/1999/xlink">
]>
<!-- Generated by Graphviz version 2.20.2 (Tue Mar &#160;2 19:03:41 UTC 2010)
     For user: (jenkins)  -->
<!-- Title: G Pages: 1 -->
<svg width="366pt" height="140pt"
 viewBox="0.00 0.00 366.00 140.00" xmlns="http://www.w3.org/2000/svg" xmlns:xlink="http://www.w3.org/1999/xlink">
<g id="graph0" class="graph" transform="scale(1 1) rotate(0) translate(4 136)">
<title>G</title>
<polygon style="fill:white;stroke:white;" points="-4,4 -4,-136 362,-136 362,4 -4,4"/>
<!-- Node1 -->
<g id="node1" class="node"><title>Node1</title>
<polygon style="fill:#bfbfbf;stroke:black;" points="32,-112 32,-132 358,-132 358,-112 32,-112"/>
<text text-anchor="middle" x="195" y="-119" style="font-family:Arial;font-size:10.00;">ltr/learners/composition_learner/ada_boost_data_set_weights_updater.h</text>
</g>
<!-- Node2 -->
<g id="node3" class="node"><title>Node2</title>
<a xlink:href="ada__boost__learner_8h.html" target="_top" xlink:title="ltr/learners/composition_learner/ada_boost_learner.h">
<polygon style="fill:white;stroke:black;" points="0,-56 0,-76 242,-76 242,-56 0,-56"/>
<text text-anchor="middle" x="121" y="-63" style="font-family:Arial;font-size:10.00;">ltr/learners/composition_learner/ada_boost_learner.h</text>
</a>
</g>
<!-- Node1&#45;&gt;Node2 -->
<g id="edge2" class="edge"><title>Node1&#45;&gt;Node2</title>
<path style="fill:none;stroke:midnightblue;" d="M174,-106C161,-97 145,-85 134,-76"/>
<polygon style="fill:midnightblue;stroke:midnightblue;" points="171.9,-108.8 182,-112 176.1,-103.2 171.9,-108.8"/>
</g>
<!-- Node3 -->
<g id="node5" class="node"><title>Node3</title>
<a xlink:href="linear__composition__unittest_8cc.html" target="_top" xlink:title="ltr/learners/composition_learner/linear_composition_unittest.cc">
<polygon style="fill:white;stroke:black;" points="52,-0 52,-20 339,-20 339,-0 52,-0"/>
<text text-anchor="middle" x="195" y="-7" style="font-family:Arial;font-size:10.00;">ltr/learners/composition_learner/linear_composition_unittest.cc</text>
</a>
</g>
<!-- Node1&#45;&gt;Node3 -->
<g id="edge6" class="edge"><title>Node1&#45;&gt;Node3</title>
<path style="fill:none;stroke:midnightblue;" d="M223,-106C233,-99 245,-89 251,-76 261,-53 234,-32 214,-20"/>
<polygon style="fill:midnightblue;stroke:midnightblue;" points="220.379,-103.541 214,-112 224.262,-109.365 220.379,-103.541"/>
</g>
<!-- Node2&#45;&gt;Node3 -->
<g id="edge4" class="edge"><title>Node2&#45;&gt;Node3</title>
<path style="fill:none;stroke:midnightblue;" d="M142,-50C155,-41 170,-29 181,-20"/>
<polygon style="fill:midnightblue;stroke:midnightblue;" points="139.9,-47.2 134,-56 144.1,-52.8 139.9,-47.2"/>
</g>
</g>
</svg>
