<?xml version="1.0" encoding="UTF-8" standalone="no"?>
<!DOCTYPE svg PUBLIC "-//W3C//DTD SVG 1.0//EN"
 "http://www.w3.org/TR/2001/REC-SVG-20010904/DTD/svg10.dtd" [
 <!ATTLIST svg xmlns:xlink CDATA #FIXED "http://www.w3.org/1999/xlink">
]>
<!-- Generated by Graphviz version 2.20.2 (Tue Mar &#160;2 19:03:41 UTC 2010)
     For user: (jenkins)  -->
<!-- Title: G Pages: 1 -->
<svg width="1442pt" height="84pt"
 viewBox="0.00 0.00 1442.00 84.00" xmlns="http://www.w3.org/2000/svg" xmlns:xlink="http://www.w3.org/1999/xlink">
<g id="graph0" class="graph" transform="scale(1 1) rotate(0) translate(4 80)">
<title>G</title>
<polygon style="fill:white;stroke:white;" points="-4,4 -4,-80 1438,-80 1438,4 -4,4"/>
<!-- Node1 -->
<g id="node1" class="node"><title>Node1</title>
<polygon style="fill:#bfbfbf;stroke:black;" points="275,-56 275,-76 592,-76 592,-56 275,-56"/>
<text text-anchor="middle" x="433" y="-63" style="font-family:Arial;font-size:10.00;">ltr/learners/linear_composition/ada_rank_lc_scorer_weights_updater.h</text>
</g>
<!-- Node2 -->
<g id="node3" class="node"><title>Node2</title>
<polygon style="fill:white;stroke:#bfbfbf;" points="0,-0 0,-20 40,-20 40,-0 0,-0"/>
<text text-anchor="middle" x="20" y="-7" style="font-family:Arial;font-size:10.00;">string</text>
</g>
<!-- Node1&#45;&gt;Node2 -->
<g id="edge2" class="edge"><title>Node1&#45;&gt;Node2</title>
<path style="fill:none;stroke:midnightblue;" d="M290,-56C220,-49 135,-39 50,-19"/>
<polygon style="fill:midnightblue;stroke:midnightblue;" points="50.4922,-15.5292 40,-17 49.1194,-22.3933 50.4922,-15.5292"/>
</g>
<!-- Node3 -->
<g id="node5" class="node"><title>Node3</title>
<polygon style="fill:white;stroke:#bfbfbf;" points="58,-0 58,-20 165,-20 165,-0 58,-0"/>
<text text-anchor="middle" x="111" y="-7" style="font-family:Arial;font-size:10.00;">ltr/utility/shared_ptr.h</text>
</g>
<!-- Node1&#45;&gt;Node3 -->
<g id="edge4" class="edge"><title>Node1&#45;&gt;Node3</title>
<path style="fill:none;stroke:midnightblue;" d="M375,-56C319,-47 233,-32 175,-21"/>
<polygon style="fill:midnightblue;stroke:midnightblue;" points="175.492,-17.5292 165,-19 174.119,-24.3933 175.492,-17.5292"/>
</g>
<!-- Node4 -->
<g id="node7" class="node"><title>Node4</title>
<polygon style="fill:white;stroke:#bfbfbf;" points="182,-0 182,-20 238,-20 238,-0 182,-0"/>
<text text-anchor="middle" x="210" y="-7" style="font-family:Arial;font-size:10.00;">algorithm</text>
</g>
<!-- Node1&#45;&gt;Node4 -->
<g id="edge6" class="edge"><title>Node1&#45;&gt;Node4</title>
<path style="fill:none;stroke:midnightblue;" d="M392,-56C356,-47 303,-35 248,-20"/>
<polygon style="fill:midnightblue;stroke:midnightblue;" points="248.584,-16.5212 238,-17 246.573,-23.2259 248.584,-16.5212"/>
</g>
<!-- Node5 -->
<g id="node9" class="node"><title>Node5</title>
<polygon style="fill:white;stroke:#bfbfbf;" points="256,-0 256,-20 295,-20 295,-0 256,-0"/>
<text text-anchor="middle" x="275" y="-7" style="font-family:Arial;font-size:10.00;">limits</text>
</g>
<!-- Node1&#45;&gt;Node5 -->
<g id="edge8" class="edge"><title>Node1&#45;&gt;Node5</title>
<path style="fill:none;stroke:midnightblue;" d="M405,-56C381,-48 344,-34 305,-20"/>
<polygon style="fill:midnightblue;stroke:midnightblue;" points="305.584,-16.5212 295,-17 303.573,-23.2259 305.584,-16.5212"/>
</g>
<!-- Node6 -->
<g id="node11" class="node"><title>Node6</title>
<polygon style="fill:white;stroke:#bfbfbf;" points="312,-0 312,-20 431,-20 431,-0 312,-0"/>
<text text-anchor="middle" x="371" y="-7" style="font-family:Arial;font-size:10.00;">ltr/measures/measure.h</text>
</g>
<!-- Node1&#45;&gt;Node6 -->
<g id="edge10" class="edge"><title>Node1&#45;&gt;Node6</title>
<path style="fill:none;stroke:midnightblue;" d="M422,-56C413,-48 400,-37 390,-27"/>
<polygon style="fill:midnightblue;stroke:midnightblue;" points="391.831,-23.9511 382,-20 387.221,-29.2191 391.831,-23.9511"/>
</g>
<!-- Node7 -->
<g id="node13" class="node"><title>Node7</title>
<polygon style="fill:white;stroke:#bfbfbf;" points="448,-0 448,-20 543,-20 543,-0 448,-0"/>
<text text-anchor="middle" x="495" y="-7" style="font-family:Arial;font-size:10.00;">ltr/data/data_set.h</text>
</g>
<!-- Node1&#45;&gt;Node7 -->
<g id="edge12" class="edge"><title>Node1&#45;&gt;Node7</title>
<path style="fill:none;stroke:midnightblue;" d="M444,-56C453,-48 466,-37 476,-27"/>
<polygon style="fill:midnightblue;stroke:midnightblue;" points="478.779,-29.2191 484,-20 474.169,-23.9511 478.779,-29.2191"/>
</g>
<!-- Node8 -->
<g id="node15" class="node"><title>Node8</title>
<polygon style="fill:white;stroke:#bfbfbf;" points="560,-0 560,-20 836,-20 836,-0 560,-0"/>
<text text-anchor="middle" x="698" y="-7" style="font-family:Arial;font-size:10.00;">ltr/scorers/composition_scorers/linear_composition_scorer.h</text>
</g>
<!-- Node1&#45;&gt;Node8 -->
<g id="edge14" class="edge"><title>Node1&#45;&gt;Node8</title>
<path style="fill:none;stroke:midnightblue;" d="M480,-56C526,-47 593,-32 641,-22"/>
<polygon style="fill:midnightblue;stroke:midnightblue;" points="641.881,-25.3933 651,-20 640.508,-18.5292 641.881,-25.3933"/>
</g>
<!-- Node9 -->
<g id="node17" class="node"><title>Node9</title>
<polygon style="fill:white;stroke:#bfbfbf;" points="854,-0 854,-20 958,-20 958,-0 854,-0"/>
<text text-anchor="middle" x="906" y="-7" style="font-family:Arial;font-size:10.00;">ltr/utility/numerical.h</text>
</g>
<!-- Node1&#45;&gt;Node9 -->
<g id="edge16" class="edge"><title>Node1&#45;&gt;Node9</title>
<path style="fill:none;stroke:midnightblue;" d="M535,-56C617,-47 733,-35 844,-20"/>
<polygon style="fill:midnightblue;stroke:midnightblue;" points="844.398,-23.4778 854,-19 843.701,-16.5125 844.398,-23.4778"/>
</g>
<!-- Node10 -->
<g id="node19" class="node"><title>Node10</title>
<polygon style="fill:white;stroke:#bfbfbf;" points="976,-0 976,-20 1073,-20 1073,-0 976,-0"/>
<text text-anchor="middle" x="1024" y="-7" style="font-family:Arial;font-size:10.00;">ltr/scorers/scorer.h</text>
</g>
<!-- Node1&#45;&gt;Node10 -->
<g id="edge18" class="edge"><title>Node1&#45;&gt;Node10</title>
<path style="fill:none;stroke:midnightblue;" d="M587,-56C691,-48 832,-37 966,-20"/>
<polygon style="fill:midnightblue;stroke:midnightblue;" points="966.398,-23.4778 976,-19 965.701,-16.5125 966.398,-23.4778"/>
</g>
<!-- Node11 -->
<g id="node21" class="node"><title>Node11</title>
<polygon style="fill:white;stroke:#bfbfbf;" points="1090,-0 1090,-20 1435,-20 1435,-0 1090,-0"/>
<text text-anchor="middle" x="1262" y="-7" style="font-family:Arial;font-size:10.00;">ltr/learners/linear_composition/linear_composition_scorer_weights_updater.h</text>
</g>
<!-- Node1&#45;&gt;Node11 -->
<g id="edge20" class="edge"><title>Node1&#45;&gt;Node11</title>
<path style="fill:none;stroke:midnightblue;" d="M581,-56C729,-46 954,-31 1104,-21"/>
<polygon style="fill:midnightblue;stroke:midnightblue;" points="1104.4,-24.4778 1114,-20 1103.7,-17.5125 1104.4,-24.4778"/>
</g>
</g>
</svg>
