<?xml version="1.0" encoding="UTF-8" standalone="no"?>
<!DOCTYPE svg PUBLIC "-//W3C//DTD SVG 1.0//EN"
 "http://www.w3.org/TR/2001/REC-SVG-20010904/DTD/svg10.dtd" [
 <!ATTLIST svg xmlns:xlink CDATA #FIXED "http://www.w3.org/1999/xlink">
]>
<!-- Generated by Graphviz version 2.20.2 (Tue Mar &#160;2 19:03:41 UTC 2010)
     For user: (jenkins)  -->
<!-- Title: G Pages: 1 -->
<svg width="1151pt" height="140pt"
 viewBox="0.00 0.00 1151.00 140.00" xmlns="http://www.w3.org/2000/svg" xmlns:xlink="http://www.w3.org/1999/xlink">
<g id="graph0" class="graph" transform="scale(1 1) rotate(0) translate(4 136)">
<title>G</title>
<polygon style="fill:white;stroke:white;" points="-4,4 -4,-136 1147,-136 1147,4 -4,4"/>
<!-- Node1 -->
<g id="node1" class="node"><title>Node1</title>
<polygon style="fill:#bfbfbf;stroke:black;" points="282,-112 282,-132 608,-132 608,-112 282,-112"/>
<text text-anchor="middle" x="445" y="-119" style="font-family:Arial;font-size:10.00;">ltr/learners/composition_learner/ada_boost_data_set_weights_updater.h</text>
</g>
<!-- Node2 -->
<g id="node3" class="node"><title>Node2</title>
<polygon style="fill:white;stroke:#bfbfbf;" points="95,-56 95,-76 138,-76 138,-56 95,-56"/>
<text text-anchor="middle" x="116" y="-63" style="font-family:Arial;font-size:10.00;">cmath</text>
</g>
<!-- Node1&#45;&gt;Node2 -->
<g id="edge2" class="edge"><title>Node1&#45;&gt;Node2</title>
<path style="fill:none;stroke:midnightblue;" d="M365,-112C305,-104 223,-92 151,-76 150,-76 149,-76 148,-75"/>
<polygon style="fill:midnightblue;stroke:midnightblue;" points="148.492,-71.5292 138,-73 147.119,-78.3933 148.492,-71.5292"/>
</g>
<!-- Node3 -->
<g id="node5" class="node"><title>Node3</title>
<polygon style="fill:white;stroke:#bfbfbf;" points="0,-0 0,-20 40,-20 40,-0 0,-0"/>
<text text-anchor="middle" x="20" y="-7" style="font-family:Arial;font-size:10.00;">string</text>
</g>
<!-- Node1&#45;&gt;Node3 -->
<g id="edge4" class="edge"><title>Node1&#45;&gt;Node3</title>
<path style="fill:none;stroke:midnightblue;" d="M382,-112C334,-104 267,-91 210,-76 178,-68 95,-38 50,-21"/>
<polygon style="fill:midnightblue;stroke:midnightblue;" points="50.5847,-17.4643 40,-17 47.9849,-23.9636 50.5847,-17.4643"/>
</g>
<!-- Node4 -->
<g id="node7" class="node"><title>Node4</title>
<polygon style="fill:white;stroke:#bfbfbf;" points="639,-56 639,-76 681,-76 681,-56 639,-56"/>
<text text-anchor="middle" x="660" y="-63" style="font-family:Arial;font-size:10.00;">vector</text>
</g>
<!-- Node1&#45;&gt;Node4 -->
<g id="edge6" class="edge"><title>Node1&#45;&gt;Node4</title>
<path style="fill:none;stroke:midnightblue;" d="M485,-112C522,-103 577,-89 625,-76 626,-76 628,-75 629,-75"/>
<polygon style="fill:midnightblue;stroke:midnightblue;" points="630.427,-78.2259 639,-72 628.416,-71.5212 630.427,-78.2259"/>
</g>
<!-- Node5 -->
<g id="node9" class="node"><title>Node5</title>
<polygon style="fill:white;stroke:#bfbfbf;" points="699,-56 699,-76 758,-76 758,-56 699,-56"/>
<text text-anchor="middle" x="728" y="-63" style="font-family:Arial;font-size:10.00;">stdexcept</text>
</g>
<!-- Node1&#45;&gt;Node5 -->
<g id="edge8" class="edge"><title>Node1&#45;&gt;Node5</title>
<path style="fill:none;stroke:midnightblue;" d="M504,-112C552,-103 620,-91 689,-76"/>
<polygon style="fill:midnightblue;stroke:midnightblue;" points="689.881,-79.3933 699,-74 688.508,-72.5292 689.881,-79.3933"/>
</g>
<!-- Node6 -->
<g id="node11" class="node"><title>Node6</title>
<polygon style="fill:white;stroke:#bfbfbf;" points="775,-56 775,-76 849,-76 849,-56 775,-56"/>
<text text-anchor="middle" x="812" y="-63" style="font-family:Arial;font-size:10.00;">logog/logog.h</text>
</g>
<!-- Node1&#45;&gt;Node6 -->
<g id="edge10" class="edge"><title>Node1&#45;&gt;Node6</title>
<path style="fill:none;stroke:midnightblue;" d="M525,-112C588,-103 677,-91 765,-76"/>
<polygon style="fill:midnightblue;stroke:midnightblue;" points="765.881,-79.3933 775,-74 764.508,-72.5292 765.881,-79.3933"/>
</g>
<!-- Node7 -->
<g id="node13" class="node"><title>Node7</title>
<polygon style="fill:white;stroke:#bfbfbf;" points="58,-0 58,-20 165,-20 165,-0 58,-0"/>
<text text-anchor="middle" x="111" y="-7" style="font-family:Arial;font-size:10.00;">ltr/utility/shared_ptr.h</text>
</g>
<!-- Node1&#45;&gt;Node7 -->
<g id="edge12" class="edge"><title>Node1&#45;&gt;Node7</title>
<path style="fill:none;stroke:midnightblue;" d="M397,-112C360,-104 307,-91 263,-76 219,-61 170,-39 140,-24"/>
<polygon style="fill:midnightblue;stroke:midnightblue;" points="141.56,-20.8631 131,-20 138.717,-27.2598 141.56,-20.8631"/>
</g>
<!-- Node8 -->
<g id="node15" class="node"><title>Node8</title>
<polygon style="fill:white;stroke:#bfbfbf;" points="182,-0 182,-20 301,-20 301,-0 182,-0"/>
<text text-anchor="middle" x="241" y="-7" style="font-family:Arial;font-size:10.00;">ltr/measures/measure.h</text>
</g>
<!-- Node1&#45;&gt;Node8 -->
<g id="edge14" class="edge"><title>Node1&#45;&gt;Node8</title>
<path style="fill:none;stroke:midnightblue;" d="M376,-112C346,-105 314,-94 288,-76 271,-64 258,-44 250,-29"/>
<polygon style="fill:midnightblue;stroke:midnightblue;" points="252.916,-27.0418 245,-20 246.797,-30.4414 252.916,-27.0418"/>
</g>
<!-- Node9 -->
<g id="node17" class="node"><title>Node9</title>
<polygon style="fill:white;stroke:#bfbfbf;" points="318,-0 318,-20 413,-20 413,-0 318,-0"/>
<text text-anchor="middle" x="365" y="-7" style="font-family:Arial;font-size:10.00;">ltr/data/data_set.h</text>
</g>
<!-- Node1&#45;&gt;Node9 -->
<g id="edge16" class="edge"><title>Node1&#45;&gt;Node9</title>
<path style="fill:none;stroke:midnightblue;" d="M391,-112C354,-104 309,-91 298,-76 284,-57 309,-37 332,-25"/>
<polygon style="fill:midnightblue;stroke:midnightblue;" points="333.958,-27.916 341,-20 330.559,-21.7969 333.958,-27.916"/>
</g>
<!-- Node10 -->
<g id="node19" class="node"><title>Node10</title>
<polygon style="fill:white;stroke:#bfbfbf;" points="850,-0 850,-20 1098,-20 1098,-0 850,-0"/>
<text text-anchor="middle" x="974" y="-7" style="font-family:Arial;font-size:10.00;">ltr/scorers/composition_scorers/composition_scorer.h</text>
</g>
<!-- Node1&#45;&gt;Node10 -->
<g id="edge18" class="edge"><title>Node1&#45;&gt;Node10</title>
<path style="fill:none;stroke:midnightblue;" d="M483,-112C513,-104 556,-91 592,-76 609,-68 611,-61 630,-56 671,-43 774,-30 857,-21"/>
<polygon style="fill:midnightblue;stroke:midnightblue;" points="857.398,-24.4778 867,-20 856.701,-17.5125 857.398,-24.4778"/>
</g>
<!-- Node11 -->
<g id="node21" class="node"><title>Node11</title>
<a xlink:href="data__set__weights__updater_8h.html" target="_top" xlink:title="ltr/learners/composition_learner/data_set_weights_updater.h">
<polygon style="fill:white;stroke:black;" points="307,-56 307,-76 583,-76 583,-56 307,-56"/>
<text text-anchor="middle" x="445" y="-63" style="font-family:Arial;font-size:10.00;">ltr/learners/composition_learner/data_set_weights_updater.h</text>
</a>
</g>
<!-- Node1&#45;&gt;Node11 -->
<g id="edge20" class="edge"><title>Node1&#45;&gt;Node11</title>
<path style="fill:none;stroke:midnightblue;" d="M445,-112C445,-105 445,-95 445,-86"/>
<polygon style="fill:midnightblue;stroke:midnightblue;" points="448.5,-86 445,-76 441.5,-86 448.5,-86"/>
</g>
<!-- Node15 -->
<g id="node34" class="node"><title>Node15</title>
<polygon style="fill:white;stroke:#bfbfbf;" points="867,-56 867,-76 1143,-76 1143,-56 867,-56"/>
<text text-anchor="middle" x="1005" y="-63" style="font-family:Arial;font-size:10.00;">ltr/learners/composition_learner/data_set_weights_updater.h</text>
</g>
<!-- Node1&#45;&gt;Node15 -->
<g id="edge38" class="edge"><title>Node1&#45;&gt;Node15</title>
<path style="fill:none;stroke:midnightblue;" d="M545,-112C644,-102 794,-87 895,-77"/>
<polygon style="fill:midnightblue;stroke:midnightblue;" points="895.398,-80.4778 905,-76 894.701,-73.5125 895.398,-80.4778"/>
</g>
<!-- Node11&#45;&gt;Node3 -->
<g id="edge24" class="edge"><title>Node11&#45;&gt;Node3</title>
<path style="fill:none;stroke:midnightblue;" d="M307,-57C233,-51 140,-40 50,-19"/>
<polygon style="fill:midnightblue;stroke:midnightblue;" points="50.4922,-15.5292 40,-17 49.1194,-22.3933 50.4922,-15.5292"/>
</g>
<!-- Node11&#45;&gt;Node7 -->
<g id="edge22" class="edge"><title>Node11&#45;&gt;Node7</title>
<path style="fill:none;stroke:midnightblue;" d="M385,-56C326,-47 236,-31 175,-21"/>
<polygon style="fill:midnightblue;stroke:midnightblue;" points="175.492,-17.5292 165,-19 174.119,-24.3933 175.492,-17.5292"/>
</g>
<!-- Node11&#45;&gt;Node8 -->
<g id="edge26" class="edge"><title>Node11&#45;&gt;Node8</title>
<path style="fill:none;stroke:midnightblue;" d="M409,-56C375,-47 325,-33 288,-23"/>
<polygon style="fill:midnightblue;stroke:midnightblue;" points="288.584,-19.5212 278,-20 286.573,-26.2259 288.584,-19.5212"/>
</g>
<!-- Node11&#45;&gt;Node9 -->
<g id="edge28" class="edge"><title>Node11&#45;&gt;Node9</title>
<path style="fill:none;stroke:midnightblue;" d="M431,-56C420,-48 402,-36 388,-26"/>
<polygon style="fill:midnightblue;stroke:midnightblue;" points="390.1,-23.2 380,-20 385.9,-28.8 390.1,-23.2"/>
</g>
<!-- Node11&#45;&gt;Node10 -->
<g id="edge30" class="edge"><title>Node11&#45;&gt;Node10</title>
<path style="fill:none;stroke:midnightblue;" d="M540,-56C633,-46 774,-31 870,-21"/>
<polygon style="fill:midnightblue;stroke:midnightblue;" points="870.398,-24.4778 880,-20 869.701,-17.5125 870.398,-24.4778"/>
</g>
<!-- Node12 -->
<g id="node28" class="node"><title>Node12</title>
<polygon style="fill:white;stroke:#bfbfbf;" points="430,-0 430,-20 538,-20 538,-0 430,-0"/>
<text text-anchor="middle" x="484" y="-7" style="font-family:Arial;font-size:10.00;">ltr/interfaces/aliaser.h</text>
</g>
<!-- Node11&#45;&gt;Node12 -->
<g id="edge32" class="edge"><title>Node11&#45;&gt;Node12</title>
<path style="fill:none;stroke:midnightblue;" d="M452,-56C457,-48 465,-38 471,-29"/>
<polygon style="fill:midnightblue;stroke:midnightblue;" points="474.365,-30.262 477,-20 468.541,-26.3791 474.365,-30.262"/>
</g>
<!-- Node13 -->
<g id="node30" class="node"><title>Node13</title>
<polygon style="fill:white;stroke:#bfbfbf;" points="556,-0 556,-20 698,-20 698,-0 556,-0"/>
<text text-anchor="middle" x="627" y="-7" style="font-family:Arial;font-size:10.00;">ltr/interfaces/parameterized.h</text>
</g>
<!-- Node11&#45;&gt;Node13 -->
<g id="edge34" class="edge"><title>Node11&#45;&gt;Node13</title>
<path style="fill:none;stroke:midnightblue;" d="M478,-56C508,-47 552,-33 584,-23"/>
<polygon style="fill:midnightblue;stroke:midnightblue;" points="585.427,-26.2259 594,-20 583.416,-19.5212 585.427,-26.2259"/>
</g>
<!-- Node14 -->
<g id="node32" class="node"><title>Node14</title>
<polygon style="fill:white;stroke:#bfbfbf;" points="716,-0 716,-20 833,-20 833,-0 716,-0"/>
<text text-anchor="middle" x="774" y="-7" style="font-family:Arial;font-size:10.00;">ltr/interfaces/printable.h</text>
</g>
<!-- Node11&#45;&gt;Node14 -->
<g id="edge36" class="edge"><title>Node11&#45;&gt;Node14</title>
<path style="fill:none;stroke:midnightblue;" d="M504,-56C561,-47 646,-32 706,-22"/>
<polygon style="fill:midnightblue;stroke:midnightblue;" points="706.881,-25.3933 716,-20 705.508,-18.5292 706.881,-25.3933"/>
</g>
</g>
</svg>
