<?xml version="1.0" encoding="UTF-8" standalone="no"?>
<!DOCTYPE svg PUBLIC "-//W3C//DTD SVG 1.0//EN"
 "http://www.w3.org/TR/2001/REC-SVG-20010904/DTD/svg10.dtd" [
 <!ATTLIST svg xmlns:xlink CDATA #FIXED "http://www.w3.org/1999/xlink">
]>
<!-- Generated by Graphviz version 2.20.2 (Tue Mar &#160;2 19:03:41 UTC 2010)
     For user: (jenkins)  -->
<!-- Title: G Pages: 1 -->
<svg width="1399pt" height="140pt"
 viewBox="0.00 0.00 1399.00 140.00" xmlns="http://www.w3.org/2000/svg" xmlns:xlink="http://www.w3.org/1999/xlink">
<g id="graph0" class="graph" transform="scale(1 1) rotate(0) translate(4 136)">
<title>G</title>
<polygon style="fill:white;stroke:white;" points="-4,4 -4,-136 1395,-136 1395,4 -4,4"/>
<!-- Node1 -->
<g id="node1" class="node"><title>Node1</title>
<polygon style="fill:#bfbfbf;stroke:black;" points="453,-112 453,-132 821,-132 821,-112 453,-112"/>
<text text-anchor="middle" x="637" y="-119" style="font-family:Arial;font-size:10.00;">ltr/learners/composition_learner/ada_rank_composition_scorer_weights_updater.h</text>
</g>
<!-- Node2 -->
<g id="node3" class="node"><title>Node2</title>
<polygon style="fill:white;stroke:#bfbfbf;" points="43,-56 43,-76 117,-76 117,-56 43,-56"/>
<text text-anchor="middle" x="80" y="-63" style="font-family:Arial;font-size:10.00;">logog/logog.h</text>
</g>
<!-- Node1&#45;&gt;Node2 -->
<g id="edge2" class="edge"><title>Node1&#45;&gt;Node2</title>
<path style="fill:none;stroke:midnightblue;" d="M486,-112C385,-104 249,-92 131,-76 130,-76 128,-75 127,-75"/>
<polygon style="fill:midnightblue;stroke:midnightblue;" points="127.492,-71.5292 117,-73 126.119,-78.3933 127.492,-71.5292"/>
</g>
<!-- Node3 -->
<g id="node5" class="node"><title>Node3</title>
<polygon style="fill:white;stroke:#bfbfbf;" points="0,-0 0,-20 40,-20 40,-0 0,-0"/>
<text text-anchor="middle" x="20" y="-7" style="font-family:Arial;font-size:10.00;">string</text>
</g>
<!-- Node1&#45;&gt;Node3 -->
<g id="edge4" class="edge"><title>Node1&#45;&gt;Node3</title>
<path style="fill:none;stroke:midnightblue;" d="M490,-112C378,-104 233,-90 176,-76 169,-74 93,-41 49,-23"/>
<polygon style="fill:midnightblue;stroke:midnightblue;" points="50.5596,-19.8631 40,-19 47.7166,-26.2598 50.5596,-19.8631"/>
</g>
<!-- Node4 -->
<g id="node7" class="node"><title>Node4</title>
<polygon style="fill:white;stroke:#bfbfbf;" points="58,-0 58,-20 117,-20 117,-0 58,-0"/>
<text text-anchor="middle" x="87" y="-7" style="font-family:Arial;font-size:10.00;">stdexcept</text>
</g>
<!-- Node1&#45;&gt;Node4 -->
<g id="edge6" class="edge"><title>Node1&#45;&gt;Node4</title>
<path style="fill:none;stroke:midnightblue;" d="M511,-112C412,-103 283,-90 232,-76 188,-64 142,-41 113,-25"/>
<polygon style="fill:midnightblue;stroke:midnightblue;" points="114.441,-21.7969 104,-20 111.042,-27.916 114.441,-21.7969"/>
</g>
<!-- Node5 -->
<g id="node9" class="node"><title>Node5</title>
<polygon style="fill:white;stroke:#bfbfbf;" points="703,-56 703,-76 759,-76 759,-56 703,-56"/>
<text text-anchor="middle" x="731" y="-63" style="font-family:Arial;font-size:10.00;">algorithm</text>
</g>
<!-- Node1&#45;&gt;Node5 -->
<g id="edge8" class="edge"><title>Node1&#45;&gt;Node5</title>
<path style="fill:none;stroke:midnightblue;" d="M654,-112C668,-104 689,-91 705,-81"/>
<polygon style="fill:midnightblue;stroke:midnightblue;" points="706.958,-83.916 714,-76 703.559,-77.7969 706.958,-83.916"/>
</g>
<!-- Node6 -->
<g id="node11" class="node"><title>Node6</title>
<polygon style="fill:white;stroke:#bfbfbf;" points="777,-56 777,-76 816,-76 816,-56 777,-56"/>
<text text-anchor="middle" x="796" y="-63" style="font-family:Arial;font-size:10.00;">limits</text>
</g>
<!-- Node1&#45;&gt;Node6 -->
<g id="edge10" class="edge"><title>Node1&#45;&gt;Node6</title>
<path style="fill:none;stroke:midnightblue;" d="M665,-112C690,-104 726,-90 767,-76"/>
<polygon style="fill:midnightblue;stroke:midnightblue;" points="768.427,-79.2259 777,-73 766.416,-72.5212 768.427,-79.2259"/>
</g>
<!-- Node7 -->
<g id="node13" class="node"><title>Node7</title>
<polygon style="fill:white;stroke:#bfbfbf;" points="134,-0 134,-20 241,-20 241,-0 134,-0"/>
<text text-anchor="middle" x="187" y="-7" style="font-family:Arial;font-size:10.00;">ltr/utility/shared_ptr.h</text>
</g>
<!-- Node1&#45;&gt;Node7 -->
<g id="edge12" class="edge"><title>Node1&#45;&gt;Node7</title>
<path style="fill:none;stroke:midnightblue;" d="M492,-112C406,-105 307,-93 267,-76 241,-65 217,-43 203,-27"/>
<polygon style="fill:midnightblue;stroke:midnightblue;" points="205.546,-24.5962 196,-20 200.596,-29.546 205.546,-24.5962"/>
</g>
<!-- Node8 -->
<g id="node15" class="node"><title>Node8</title>
<polygon style="fill:white;stroke:#bfbfbf;" points="833,-56 833,-76 937,-76 937,-56 833,-56"/>
<text text-anchor="middle" x="885" y="-63" style="font-family:Arial;font-size:10.00;">ltr/utility/numerical.h</text>
</g>
<!-- Node1&#45;&gt;Node8 -->
<g id="edge14" class="edge"><title>Node1&#45;&gt;Node8</title>
<path style="fill:none;stroke:midnightblue;" d="M681,-112C723,-103 786,-88 831,-78"/>
<polygon style="fill:midnightblue;stroke:midnightblue;" points="831.881,-81.3933 841,-76 830.508,-74.5292 831.881,-81.3933"/>
</g>
<!-- Node9 -->
<g id="node17" class="node"><title>Node9</title>
<polygon style="fill:white;stroke:#bfbfbf;" points="258,-0 258,-20 377,-20 377,-0 258,-0"/>
<text text-anchor="middle" x="317" y="-7" style="font-family:Arial;font-size:10.00;">ltr/measures/measure.h</text>
</g>
<!-- Node1&#45;&gt;Node9 -->
<g id="edge16" class="edge"><title>Node1&#45;&gt;Node9</title>
<path style="fill:none;stroke:midnightblue;" d="M487,-112C395,-104 292,-92 278,-76 264,-61 280,-41 295,-27"/>
<polygon style="fill:midnightblue;stroke:midnightblue;" points="297.779,-29.2191 303,-20 293.169,-23.9511 297.779,-29.2191"/>
</g>
<!-- Node10 -->
<g id="node19" class="node"><title>Node10</title>
<polygon style="fill:white;stroke:#bfbfbf;" points="814,-0 814,-20 909,-20 909,-0 814,-0"/>
<text text-anchor="middle" x="861" y="-7" style="font-family:Arial;font-size:10.00;">ltr/data/data_set.h</text>
</g>
<!-- Node1&#45;&gt;Node10 -->
<g id="edge18" class="edge"><title>Node1&#45;&gt;Node10</title>
<path style="fill:none;stroke:midnightblue;" d="M638,-112C639,-97 644,-70 661,-56 671,-46 748,-30 804,-20"/>
<polygon style="fill:midnightblue;stroke:midnightblue;" points="804.881,-23.3933 814,-18 803.508,-16.5292 804.881,-23.3933"/>
</g>
<!-- Node11 -->
<g id="node21" class="node"><title>Node11</title>
<polygon style="fill:white;stroke:#bfbfbf;" points="926,-0 926,-20 1174,-20 1174,-0 926,-0"/>
<text text-anchor="middle" x="1050" y="-7" style="font-family:Arial;font-size:10.00;">ltr/scorers/composition_scorers/composition_scorer.h</text>
</g>
<!-- Node1&#45;&gt;Node11 -->
<g id="edge20" class="edge"><title>Node1&#45;&gt;Node11</title>
<path style="fill:none;stroke:midnightblue;" d="M642,-112C651,-97 669,-69 694,-56 714,-44 836,-31 932,-21"/>
<polygon style="fill:midnightblue;stroke:midnightblue;" points="932.398,-24.4778 942,-20 931.701,-17.5125 932.398,-24.4778"/>
</g>
<!-- Node12 -->
<g id="node23" class="node"><title>Node12</title>
<polygon style="fill:white;stroke:#bfbfbf;" points="955,-56 955,-76 1052,-76 1052,-56 955,-56"/>
<text text-anchor="middle" x="1003" y="-63" style="font-family:Arial;font-size:10.00;">ltr/scorers/scorer.h</text>
</g>
<!-- Node1&#45;&gt;Node12 -->
<g id="edge22" class="edge"><title>Node1&#45;&gt;Node12</title>
<path style="fill:none;stroke:midnightblue;" d="M707,-112C768,-103 857,-90 945,-76"/>
<polygon style="fill:midnightblue;stroke:midnightblue;" points="945.881,-79.3933 955,-74 944.508,-72.5292 945.881,-79.3933"/>
</g>
<!-- Node13 -->
<g id="node25" class="node"><title>Node13</title>
<a xlink:href="composition__scorer__weights__updater_8h.html" target="_top" xlink:title="ltr/learners/composition_learner/composition_scorer_weights_updater.h">
<polygon style="fill:white;stroke:black;" points="287,-56 287,-76 610,-76 610,-56 287,-56"/>
<text text-anchor="middle" x="448" y="-63" style="font-family:Arial;font-size:10.00;">ltr/learners/composition_learner/composition_scorer_weights_updater.h</text>
</a>
</g>
<!-- Node1&#45;&gt;Node13 -->
<g id="edge24" class="edge"><title>Node1&#45;&gt;Node13</title>
<path style="fill:none;stroke:midnightblue;" d="M603,-112C572,-103 525,-89 492,-79"/>
<polygon style="fill:midnightblue;stroke:midnightblue;" points="492.584,-75.5212 482,-76 490.573,-82.2259 492.584,-75.5212"/>
</g>
<!-- Node17 -->
<g id="node39" class="node"><title>Node17</title>
<polygon style="fill:white;stroke:#bfbfbf;" points="1069,-56 1069,-76 1392,-76 1392,-56 1069,-56"/>
<text text-anchor="middle" x="1230" y="-63" style="font-family:Arial;font-size:10.00;">ltr/learners/composition_learner/composition_scorer_weights_updater.h</text>
</g>
<!-- Node1&#45;&gt;Node17 -->
<g id="edge44" class="edge"><title>Node1&#45;&gt;Node17</title>
<path style="fill:none;stroke:midnightblue;" d="M743,-112C848,-102 1007,-87 1115,-77"/>
<polygon style="fill:midnightblue;stroke:midnightblue;" points="1115.4,-80.4778 1125,-76 1114.7,-73.5125 1115.4,-80.4778"/>
</g>
<!-- Node13&#45;&gt;Node3 -->
<g id="edge26" class="edge"><title>Node13&#45;&gt;Node3</title>
<path style="fill:none;stroke:midnightblue;" d="M295,-56C223,-49 136,-39 50,-19"/>
<polygon style="fill:midnightblue;stroke:midnightblue;" points="50.4922,-15.5292 40,-17 49.1194,-22.3933 50.4922,-15.5292"/>
</g>
<!-- Node13&#45;&gt;Node4 -->
<g id="edge28" class="edge"><title>Node13&#45;&gt;Node4</title>
<path style="fill:none;stroke:midnightblue;" d="M360,-56C297,-48 211,-37 127,-20"/>
<polygon style="fill:midnightblue;stroke:midnightblue;" points="127.492,-16.5292 117,-18 126.119,-23.3933 127.492,-16.5292"/>
</g>
<!-- Node13&#45;&gt;Node7 -->
<g id="edge30" class="edge"><title>Node13&#45;&gt;Node7</title>
<path style="fill:none;stroke:midnightblue;" d="M401,-56C357,-47 291,-32 244,-22"/>
<polygon style="fill:midnightblue;stroke:midnightblue;" points="244.492,-18.5292 234,-20 243.119,-25.3933 244.492,-18.5292"/>
</g>
<!-- Node13&#45;&gt;Node9 -->
<g id="edge32" class="edge"><title>Node13&#45;&gt;Node9</title>
<path style="fill:none;stroke:midnightblue;" d="M425,-56C404,-47 374,-34 351,-24"/>
<polygon style="fill:midnightblue;stroke:midnightblue;" points="351.585,-20.4643 341,-20 348.985,-26.9636 351.585,-20.4643"/>
</g>
<!-- Node13&#45;&gt;Node10 -->
<g id="edge34" class="edge"><title>Node13&#45;&gt;Node10</title>
<path style="fill:none;stroke:midnightblue;" d="M534,-56C604,-47 705,-35 804,-20"/>
<polygon style="fill:midnightblue;stroke:midnightblue;" points="804.881,-23.3933 814,-18 803.508,-16.5292 804.881,-23.3933"/>
</g>
<!-- Node13&#45;&gt;Node11 -->
<g id="edge36" class="edge"><title>Node13&#45;&gt;Node11</title>
<path style="fill:none;stroke:midnightblue;" d="M556,-56C662,-46 824,-31 933,-21"/>
<polygon style="fill:midnightblue;stroke:midnightblue;" points="933.398,-24.4778 943,-20 932.701,-17.5125 933.398,-24.4778"/>
</g>
<!-- Node14 -->
<g id="node33" class="node"><title>Node14</title>
<polygon style="fill:white;stroke:#bfbfbf;" points="394,-0 394,-20 502,-20 502,-0 394,-0"/>
<text text-anchor="middle" x="448" y="-7" style="font-family:Arial;font-size:10.00;">ltr/interfaces/aliaser.h</text>
</g>
<!-- Node13&#45;&gt;Node14 -->
<g id="edge38" class="edge"><title>Node13&#45;&gt;Node14</title>
<path style="fill:none;stroke:midnightblue;" d="M448,-56C448,-49 448,-39 448,-30"/>
<polygon style="fill:midnightblue;stroke:midnightblue;" points="451.5,-30 448,-20 444.5,-30 451.5,-30"/>
</g>
<!-- Node15 -->
<g id="node35" class="node"><title>Node15</title>
<polygon style="fill:white;stroke:#bfbfbf;" points="520,-0 520,-20 662,-20 662,-0 520,-0"/>
<text text-anchor="middle" x="591" y="-7" style="font-family:Arial;font-size:10.00;">ltr/interfaces/parameterized.h</text>
</g>
<!-- Node13&#45;&gt;Node15 -->
<g id="edge40" class="edge"><title>Node13&#45;&gt;Node15</title>
<path style="fill:none;stroke:midnightblue;" d="M474,-56C497,-47 530,-34 555,-24"/>
<polygon style="fill:midnightblue;stroke:midnightblue;" points="557.015,-26.9636 565,-20 554.415,-20.4643 557.015,-26.9636"/>
</g>
<!-- Node16 -->
<g id="node37" class="node"><title>Node16</title>
<polygon style="fill:white;stroke:#bfbfbf;" points="680,-0 680,-20 797,-20 797,-0 680,-0"/>
<text text-anchor="middle" x="738" y="-7" style="font-family:Arial;font-size:10.00;">ltr/interfaces/printable.h</text>
</g>
<!-- Node13&#45;&gt;Node16 -->
<g id="edge42" class="edge"><title>Node13&#45;&gt;Node16</title>
<path style="fill:none;stroke:midnightblue;" d="M500,-56C549,-47 623,-32 676,-22"/>
<polygon style="fill:midnightblue;stroke:midnightblue;" points="676.881,-25.3933 686,-20 675.508,-18.5292 676.881,-25.3933"/>
</g>
</g>
</svg>
