<?xml version="1.0" encoding="UTF-8" standalone="no"?>
<!DOCTYPE svg PUBLIC "-//W3C//DTD SVG 1.0//EN"
 "http://www.w3.org/TR/2001/REC-SVG-20010904/DTD/svg10.dtd" [
 <!ATTLIST svg xmlns:xlink CDATA #FIXED "http://www.w3.org/1999/xlink">
]>
<!-- Generated by Graphviz version 2.20.2 (Tue Mar &#160;2 19:03:41 UTC 2010)
     For user: (jenkins)  -->
<!-- Title: G Pages: 1 -->
<svg width="1268pt" height="84pt"
 viewBox="0.00 0.00 1268.00 84.00" xmlns="http://www.w3.org/2000/svg" xmlns:xlink="http://www.w3.org/1999/xlink">
<g id="graph0" class="graph" transform="scale(1 1) rotate(0) translate(4 80)">
<title>G</title>
<polygon style="fill:white;stroke:white;" points="-4,4 -4,-80 1264,-80 1264,4 -4,4"/>
<!-- Node1 -->
<g id="node1" class="node"><title>Node1</title>
<polygon style="fill:#bfbfbf;stroke:black;" points="185,-56 185,-76 506,-76 506,-56 185,-56"/>
<text text-anchor="middle" x="345" y="-63" style="font-family:Arial;font-size:10.00;">ltr/learners/composition_learner/ada_rank_data_set_weights_updater.h</text>
</g>
<!-- Node2 -->
<g id="node3" class="node"><title>Node2</title>
<polygon style="fill:white;stroke:#bfbfbf;" points="0,-0 0,-20 43,-20 43,-0 0,-0"/>
<text text-anchor="middle" x="21" y="-7" style="font-family:Arial;font-size:10.00;">cmath</text>
</g>
<!-- Node1&#45;&gt;Node2 -->
<g id="edge2" class="edge"><title>Node1&#45;&gt;Node2</title>
<path style="fill:none;stroke:midnightblue;" d="M257,-56C201,-48 126,-37 53,-19"/>
<polygon style="fill:midnightblue;stroke:midnightblue;" points="53.4922,-15.5292 43,-17 52.1194,-22.3933 53.4922,-15.5292"/>
</g>
<!-- Node3 -->
<g id="node5" class="node"><title>Node3</title>
<polygon style="fill:white;stroke:#bfbfbf;" points="60,-0 60,-20 100,-20 100,-0 60,-0"/>
<text text-anchor="middle" x="80" y="-7" style="font-family:Arial;font-size:10.00;">string</text>
</g>
<!-- Node1&#45;&gt;Node3 -->
<g id="edge4" class="edge"><title>Node1&#45;&gt;Node3</title>
<path style="fill:none;stroke:midnightblue;" d="M282,-56C236,-48 173,-36 110,-20"/>
<polygon style="fill:midnightblue;stroke:midnightblue;" points="110.584,-16.5212 100,-17 108.573,-23.2259 110.584,-16.5212"/>
</g>
<!-- Node4 -->
<g id="node7" class="node"><title>Node4</title>
<polygon style="fill:white;stroke:#bfbfbf;" points="118,-0 118,-20 160,-20 160,-0 118,-0"/>
<text text-anchor="middle" x="139" y="-7" style="font-family:Arial;font-size:10.00;">vector</text>
</g>
<!-- Node1&#45;&gt;Node4 -->
<g id="edge6" class="edge"><title>Node1&#45;&gt;Node4</title>
<path style="fill:none;stroke:midnightblue;" d="M304,-56C270,-48 221,-36 170,-20"/>
<polygon style="fill:midnightblue;stroke:midnightblue;" points="170.584,-16.5212 160,-17 168.573,-23.2259 170.584,-16.5212"/>
</g>
<!-- Node5 -->
<g id="node9" class="node"><title>Node5</title>
<polygon style="fill:white;stroke:#bfbfbf;" points="178,-0 178,-20 237,-20 237,-0 178,-0"/>
<text text-anchor="middle" x="207" y="-7" style="font-family:Arial;font-size:10.00;">stdexcept</text>
</g>
<!-- Node1&#45;&gt;Node5 -->
<g id="edge8" class="edge"><title>Node1&#45;&gt;Node5</title>
<path style="fill:none;stroke:midnightblue;" d="M320,-56C298,-47 266,-34 241,-24"/>
<polygon style="fill:midnightblue;stroke:midnightblue;" points="242.56,-20.8631 232,-20 239.717,-27.2598 242.56,-20.8631"/>
</g>
<!-- Node6 -->
<g id="node11" class="node"><title>Node6</title>
<polygon style="fill:white;stroke:#bfbfbf;" points="254,-0 254,-20 328,-20 328,-0 254,-0"/>
<text text-anchor="middle" x="291" y="-7" style="font-family:Arial;font-size:10.00;">logog/logog.h</text>
</g>
<!-- Node1&#45;&gt;Node6 -->
<g id="edge10" class="edge"><title>Node1&#45;&gt;Node6</title>
<path style="fill:none;stroke:midnightblue;" d="M335,-56C328,-48 317,-37 308,-27"/>
<polygon style="fill:midnightblue;stroke:midnightblue;" points="310.546,-24.5962 301,-20 305.596,-29.546 310.546,-24.5962"/>
</g>
<!-- Node7 -->
<g id="node13" class="node"><title>Node7</title>
<polygon style="fill:white;stroke:#bfbfbf;" points="346,-0 346,-20 453,-20 453,-0 346,-0"/>
<text text-anchor="middle" x="399" y="-7" style="font-family:Arial;font-size:10.00;">ltr/utility/shared_ptr.h</text>
</g>
<!-- Node1&#45;&gt;Node7 -->
<g id="edge12" class="edge"><title>Node1&#45;&gt;Node7</title>
<path style="fill:none;stroke:midnightblue;" d="M355,-56C362,-48 373,-37 382,-27"/>
<polygon style="fill:midnightblue;stroke:midnightblue;" points="384.404,-29.546 389,-20 379.454,-24.5962 384.404,-29.546"/>
</g>
<!-- Node8 -->
<g id="node15" class="node"><title>Node8</title>
<polygon style="fill:white;stroke:#bfbfbf;" points="470,-0 470,-20 589,-20 589,-0 470,-0"/>
<text text-anchor="middle" x="529" y="-7" style="font-family:Arial;font-size:10.00;">ltr/measures/measure.h</text>
</g>
<!-- Node1&#45;&gt;Node8 -->
<g id="edge14" class="edge"><title>Node1&#45;&gt;Node8</title>
<path style="fill:none;stroke:midnightblue;" d="M378,-56C408,-47 453,-33 486,-23"/>
<polygon style="fill:midnightblue;stroke:midnightblue;" points="487.427,-26.2259 496,-20 485.416,-19.5212 487.427,-26.2259"/>
</g>
<!-- Node9 -->
<g id="node17" class="node"><title>Node9</title>
<polygon style="fill:white;stroke:#bfbfbf;" points="606,-0 606,-20 701,-20 701,-0 606,-0"/>
<text text-anchor="middle" x="653" y="-7" style="font-family:Arial;font-size:10.00;">ltr/data/data_set.h</text>
</g>
<!-- Node1&#45;&gt;Node9 -->
<g id="edge16" class="edge"><title>Node1&#45;&gt;Node9</title>
<path style="fill:none;stroke:midnightblue;" d="M400,-56C456,-46 539,-31 596,-21"/>
<polygon style="fill:midnightblue;stroke:midnightblue;" points="596.881,-24.3933 606,-19 595.508,-17.5292 596.881,-24.3933"/>
</g>
<!-- Node10 -->
<g id="node19" class="node"><title>Node10</title>
<polygon style="fill:white;stroke:#bfbfbf;" points="718,-0 718,-20 966,-20 966,-0 718,-0"/>
<text text-anchor="middle" x="842" y="-7" style="font-family:Arial;font-size:10.00;">ltr/scorers/composition_scorers/composition_scorer.h</text>
</g>
<!-- Node1&#45;&gt;Node10 -->
<g id="edge18" class="edge"><title>Node1&#45;&gt;Node10</title>
<path style="fill:none;stroke:midnightblue;" d="M434,-56C521,-46 653,-31 744,-21"/>
<polygon style="fill:midnightblue;stroke:midnightblue;" points="744.398,-24.4778 754,-20 743.701,-17.5125 744.398,-24.4778"/>
</g>
<!-- Node11 -->
<g id="node21" class="node"><title>Node11</title>
<polygon style="fill:white;stroke:#bfbfbf;" points="984,-0 984,-20 1260,-20 1260,-0 984,-0"/>
<text text-anchor="middle" x="1122" y="-7" style="font-family:Arial;font-size:10.00;">ltr/learners/composition_learner/data_set_weights_updater.h</text>
</g>
<!-- Node1&#45;&gt;Node11 -->
<g id="edge20" class="edge"><title>Node1&#45;&gt;Node11</title>
<path style="fill:none;stroke:midnightblue;" d="M484,-56C622,-46 833,-31 974,-21"/>
<polygon style="fill:midnightblue;stroke:midnightblue;" points="974.398,-24.4778 984,-20 973.701,-17.5125 974.398,-24.4778"/>
</g>
</g>
</svg>
