<?xml version="1.0" encoding="UTF-8" standalone="no"?>
<!DOCTYPE svg PUBLIC "-//W3C//DTD SVG 1.0//EN"
 "http://www.w3.org/TR/2001/REC-SVG-20010904/DTD/svg10.dtd" [
 <!ATTLIST svg xmlns:xlink CDATA #FIXED "http://www.w3.org/1999/xlink">
]>
<!-- Generated by Graphviz version 2.20.2 (Tue Mar &#160;2 19:03:41 UTC 2010)
     For user: (jenkins)  -->
<!-- Title: G Pages: 1 -->
<svg width="262pt" height="84pt"
 viewBox="0.00 0.00 262.00 84.00" xmlns="http://www.w3.org/2000/svg" xmlns:xlink="http://www.w3.org/1999/xlink">
<g id="graph0" class="graph" transform="scale(1 1) rotate(0) translate(4 80)">
<title>G</title>
<polygon style="fill:white;stroke:white;" points="-4,4 -4,-80 258,-80 258,4 -4,4"/>
<!-- Node1 -->
<g id="node1" class="node"><title>Node1</title>
<polygon style="fill:#bfbfbf;stroke:black;" points="32,-56 32,-76 184,-76 184,-56 32,-56"/>
<text text-anchor="middle" x="108" y="-63" style="font-family:Arial;font-size:10.00;">ltr/interfaces/aliaser_unittest.cc</text>
</g>
<!-- Node2 -->
<g id="node3" class="node"><title>Node2</title>
<polygon style="fill:white;stroke:#bfbfbf;" points="0,-0 0,-20 71,-20 71,-0 0,-0"/>
<text text-anchor="middle" x="35" y="-7" style="font-family:Arial;font-size:10.00;">gtest/gtest.h</text>
</g>
<!-- Node1&#45;&gt;Node2 -->
<g id="edge2" class="edge"><title>Node1&#45;&gt;Node2</title>
<path style="fill:none;stroke:midnightblue;" d="M95,-56C84,-48 69,-36 56,-26"/>
<polygon style="fill:midnightblue;stroke:midnightblue;" points="58.1,-23.2 48,-20 53.9,-28.8 58.1,-23.2"/>
</g>
<!-- Node3 -->
<g id="node5" class="node"><title>Node3</title>
<polygon style="fill:white;stroke:#bfbfbf;" points="88,-0 88,-20 128,-20 128,-0 88,-0"/>
<text text-anchor="middle" x="108" y="-7" style="font-family:Arial;font-size:10.00;">string</text>
</g>
<!-- Node1&#45;&gt;Node3 -->
<g id="edge4" class="edge"><title>Node1&#45;&gt;Node3</title>
<path style="fill:none;stroke:midnightblue;" d="M108,-56C108,-49 108,-39 108,-30"/>
<polygon style="fill:midnightblue;stroke:midnightblue;" points="111.5,-30 108,-20 104.5,-30 111.5,-30"/>
</g>
<!-- Node4 -->
<g id="node7" class="node"><title>Node4</title>
<polygon style="fill:white;stroke:#bfbfbf;" points="146,-0 146,-20 254,-20 254,-0 146,-0"/>
<text text-anchor="middle" x="200" y="-7" style="font-family:Arial;font-size:10.00;">ltr/interfaces/aliaser.h</text>
</g>
<!-- Node1&#45;&gt;Node4 -->
<g id="edge6" class="edge"><title>Node1&#45;&gt;Node4</title>
<path style="fill:none;stroke:midnightblue;" d="M124,-56C138,-48 159,-35 174,-25"/>
<polygon style="fill:midnightblue;stroke:midnightblue;" points="175.958,-27.916 183,-20 172.559,-21.7969 175.958,-27.916"/>
</g>
</g>
</svg>
