<?xml version="1.0" encoding="UTF-8" standalone="no"?>
<!DOCTYPE svg PUBLIC "-//W3C//DTD SVG 1.0//EN"
 "http://www.w3.org/TR/2001/REC-SVG-20010904/DTD/svg10.dtd" [
 <!ATTLIST svg xmlns:xlink CDATA #FIXED "http://www.w3.org/1999/xlink">
]>
<!-- Generated by Graphviz version 2.20.2 (Tue Mar &#160;2 19:03:41 UTC 2010)
     For user: (jenkins)  -->
<!-- Title: G Pages: 1 -->
<svg width="242pt" height="140pt"
 viewBox="0.00 0.00 242.00 140.00" xmlns="http://www.w3.org/2000/svg" xmlns:xlink="http://www.w3.org/1999/xlink">
<g id="graph0" class="graph" transform="scale(1 1) rotate(0) translate(4 136)">
<title>G</title>
<polygon style="fill:white;stroke:white;" points="-4,4 -4,-136 238,-136 238,4 -4,4"/>
<!-- Node1 -->
<g id="node1" class="node"><title>Node1</title>
<polygon style="fill:#bfbfbf;stroke:black;" points="22,-112 22,-132 174,-132 174,-112 22,-112"/>
<text text-anchor="middle" x="98" y="-119" style="font-family:Arial;font-size:10.00;">ltr/interfaces/aliaser_unittest.cc</text>
</g>
<!-- Node2 -->
<g id="node3" class="node"><title>Node2</title>
<polygon style="fill:white;stroke:#bfbfbf;" points="0,-56 0,-76 71,-76 71,-56 0,-56"/>
<text text-anchor="middle" x="35" y="-63" style="font-family:Arial;font-size:10.00;">gtest/gtest.h</text>
</g>
<!-- Node1&#45;&gt;Node2 -->
<g id="edge2" class="edge"><title>Node1&#45;&gt;Node2</title>
<path style="fill:none;stroke:midnightblue;" d="M87,-112C78,-104 65,-93 54,-83"/>
<polygon style="fill:midnightblue;stroke:midnightblue;" points="56.546,-80.5962 47,-76 51.5962,-85.546 56.546,-80.5962"/>
</g>
<!-- Node3 -->
<g id="node5" class="node"><title>Node3</title>
<polygon style="fill:white;stroke:#bfbfbf;" points="119,-0 119,-20 159,-20 159,-0 119,-0"/>
<text text-anchor="middle" x="139" y="-7" style="font-family:Arial;font-size:10.00;">string</text>
</g>
<!-- Node1&#45;&gt;Node3 -->
<g id="edge4" class="edge"><title>Node1&#45;&gt;Node3</title>
<path style="fill:none;stroke:midnightblue;" d="M100,-112C103,-99 110,-75 117,-56 121,-47 125,-37 129,-29"/>
<polygon style="fill:midnightblue;stroke:midnightblue;" points="132.137,-30.5596 133,-20 125.74,-27.7166 132.137,-30.5596"/>
</g>
<!-- Node4 -->
<g id="node7" class="node"><title>Node4</title>
<a xlink:href="aliaser_8h.html" target="_top" xlink:title="ltr/interfaces/aliaser.h">
<polygon style="fill:white;stroke:black;" points="126,-56 126,-76 234,-76 234,-56 126,-56"/>
<text text-anchor="middle" x="180" y="-63" style="font-family:Arial;font-size:10.00;">ltr/interfaces/aliaser.h</text>
</a>
</g>
<!-- Node1&#45;&gt;Node4 -->
<g id="edge6" class="edge"><title>Node1&#45;&gt;Node4</title>
<path style="fill:none;stroke:midnightblue;" d="M113,-112C125,-104 142,-91 157,-82"/>
<polygon style="fill:midnightblue;stroke:midnightblue;" points="159.1,-84.8 165,-76 154.9,-79.2 159.1,-84.8"/>
</g>
<!-- Node4&#45;&gt;Node3 -->
<g id="edge8" class="edge"><title>Node4&#45;&gt;Node3</title>
<path style="fill:none;stroke:midnightblue;" d="M173,-56C168,-48 159,-38 153,-28"/>
<polygon style="fill:midnightblue;stroke:midnightblue;" points="155.8,-25.9 147,-20 150.2,-30.1 155.8,-25.9"/>
</g>
</g>
</svg>
