<?xml version="1.0" encoding="UTF-8" standalone="no"?>
<!DOCTYPE svg PUBLIC "-//W3C//DTD SVG 1.0//EN"
 "http://www.w3.org/TR/2001/REC-SVG-20010904/DTD/svg10.dtd" [
 <!ATTLIST svg xmlns:xlink CDATA #FIXED "http://www.w3.org/1999/xlink">
]>
<!-- Generated by Graphviz version 2.20.2 (Tue Mar &#160;2 19:03:41 UTC 2010)
     For user: (jenkins)  -->
<!-- Title: G Pages: 1 -->
<svg width="1723pt" height="420pt"
 viewBox="0.00 0.00 1723.00 420.00" xmlns="http://www.w3.org/2000/svg" xmlns:xlink="http://www.w3.org/1999/xlink">
<g id="graph0" class="graph" transform="scale(1 1) rotate(0) translate(4 416)">
<title>G</title>
<polygon style="fill:white;stroke:white;" points="-4,4 -4,-416 1719,-416 1719,4 -4,4"/>
<!-- Node1 -->
<g id="node1" class="node"><title>Node1</title>
<polygon style="fill:#bfbfbf;stroke:black;" points="253,-392 253,-412 350,-412 350,-392 253,-392"/>
<text text-anchor="middle" x="301" y="-399" style="font-family:Arial;font-size:10.00;">ltr/measures/auc.h</text>
</g>
<!-- Node2 -->
<g id="node3" class="node"><title>Node2</title>
<polygon style="fill:white;stroke:#bfbfbf;" points="1611,-0 1611,-20 1667,-20 1667,-0 1611,-0"/>
<text text-anchor="middle" x="1639" y="-7" style="font-family:Arial;font-size:10.00;">algorithm</text>
</g>
<!-- Node1&#45;&gt;Node2 -->
<g id="edge2" class="edge"><title>Node1&#45;&gt;Node2</title>
<path style="fill:none;stroke:midnightblue;" d="M350,-401C600,-394 1715,-359 1715,-290 1715,-290 1715,-290 1715,-122 1715,-82 1682,-47 1660,-27"/>
<polygon style="fill:midnightblue;stroke:midnightblue;" points="1661.83,-23.9511 1652,-20 1657.22,-29.2191 1661.83,-23.9511"/>
</g>
<!-- Node3 -->
<g id="node5" class="node"><title>Node3</title>
<polygon style="fill:white;stroke:#bfbfbf;" points="104,-224 104,-244 147,-244 147,-224 104,-224"/>
<text text-anchor="middle" x="125" y="-231" style="font-family:Arial;font-size:10.00;">cmath</text>
</g>
<!-- Node1&#45;&gt;Node3 -->
<g id="edge4" class="edge"><title>Node1&#45;&gt;Node3</title>
<path style="fill:none;stroke:midnightblue;" d="M253,-393C211,-385 154,-371 137,-356 110,-332 109,-315 114,-280 115,-271 117,-262 119,-254"/>
<polygon style="fill:midnightblue;stroke:midnightblue;" points="122.479,-254.584 122,-244 115.774,-252.573 122.479,-254.584"/>
</g>
<!-- Node4 -->
<g id="node7" class="node"><title>Node4</title>
<polygon style="fill:white;stroke:#bfbfbf;" points="937,-0 937,-20 977,-20 977,-0 937,-0"/>
<text text-anchor="middle" x="957" y="-7" style="font-family:Arial;font-size:10.00;">string</text>
</g>
<!-- Node1&#45;&gt;Node4 -->
<g id="edge6" class="edge"><title>Node1&#45;&gt;Node4</title>
<path style="fill:none;stroke:midnightblue;" d="M350,-400C584,-391 1577,-349 1620,-300 1694,-215 1638,-125 1549,-56 1503,-21 1102,-13 987,-10"/>
<polygon style="fill:midnightblue;stroke:midnightblue;" points="987,-6.5001 977,-10 987,-13.5001 987,-6.5001"/>
</g>
<!-- Node5 -->
<g id="node9" class="node"><title>Node5</title>
<polygon style="fill:white;stroke:#bfbfbf;" points="231,-56 231,-76 273,-76 273,-56 231,-56"/>
<text text-anchor="middle" x="252" y="-63" style="font-family:Arial;font-size:10.00;">vector</text>
</g>
<!-- Node1&#45;&gt;Node5 -->
<g id="edge8" class="edge"><title>Node1&#45;&gt;Node5</title>
<path style="fill:none;stroke:midnightblue;" d="M253,-394C168,-379 1,-343 0,-290 0,-290 0,-290 0,-178 1,-130 153,-88 221,-73"/>
<polygon style="fill:midnightblue;stroke:midnightblue;" points="221.881,-76.3933 231,-71 220.508,-69.5292 221.881,-76.3933"/>
</g>
<!-- Node6 -->
<g id="node11" class="node"><title>Node6</title>
<polygon style="fill:white;stroke:#bfbfbf;" points="123,-280 123,-300 162,-300 162,-280 123,-280"/>
<text text-anchor="middle" x="142" y="-287" style="font-family:Arial;font-size:10.00;">utility</text>
</g>
<!-- Node1&#45;&gt;Node6 -->
<g id="edge10" class="edge"><title>Node1&#45;&gt;Node6</title>
<path style="fill:none;stroke:midnightblue;" d="M253,-393C214,-385 165,-371 152,-356 141,-343 139,-325 140,-310"/>
<polygon style="fill:midnightblue;stroke:midnightblue;" points="143.5,-310 140,-300 136.5,-310 143.5,-310"/>
</g>
<!-- Node7 -->
<g id="node13" class="node"><title>Node7</title>
<a xlink:href="numerical_8h.html" target="_top" xlink:title="ltr/utility/numerical.h">
<polygon style="fill:white;stroke:black;" points="280,-280 280,-300 384,-300 384,-280 280,-280"/>
<text text-anchor="middle" x="332" y="-287" style="font-family:Arial;font-size:10.00;">ltr/utility/numerical.h</text>
</a>
</g>
<!-- Node1&#45;&gt;Node7 -->
<g id="edge12" class="edge"><title>Node1&#45;&gt;Node7</title>
<path style="fill:none;stroke:midnightblue;" d="M312,-392C321,-383 333,-370 338,-356 343,-341 341,-323 338,-310"/>
<polygon style="fill:midnightblue;stroke:midnightblue;" points="341.226,-308.573 335,-300 334.521,-310.584 341.226,-308.573"/>
</g>
<!-- Node9 -->
<g id="node18" class="node"><title>Node9</title>
<a xlink:href="measure__utility_8h.html" target="_top" xlink:title="ltr/measures/utils/measure_utility.h">
<polygon style="fill:white;stroke:black;" points="161,-336 161,-356 329,-356 329,-336 161,-336"/>
<text text-anchor="middle" x="245" y="-343" style="font-family:Arial;font-size:10.00;">ltr/measures/utils/measure_utility.h</text>
</a>
</g>
<!-- Node1&#45;&gt;Node9 -->
<g id="edge18" class="edge"><title>Node1&#45;&gt;Node9</title>
<path style="fill:none;stroke:midnightblue;" d="M291,-392C283,-384 272,-373 262,-363"/>
<polygon style="fill:midnightblue;stroke:midnightblue;" points="264.546,-360.596 255,-356 259.596,-365.546 264.546,-360.596"/>
</g>
<!-- Node12 -->
<g id="node28" class="node"><title>Node12</title>
<a xlink:href="object_8h.html" target="_top" xlink:title="ltr/data/object.h">
<polygon style="fill:white;stroke:black;" points="595,-112 595,-132 679,-132 679,-112 595,-112"/>
<text text-anchor="middle" x="637" y="-119" style="font-family:Arial;font-size:10.00;">ltr/data/object.h</text>
</a>
</g>
<!-- Node1&#45;&gt;Node12 -->
<g id="edge172" class="edge"><title>Node1&#45;&gt;Node12</title>
<path style="fill:none;stroke:midnightblue;" d="M253,-396C204,-389 134,-376 115,-356 74,-312 57,-269 95,-224 157,-149 461,-129 585,-123"/>
<polygon style="fill:midnightblue;stroke:midnightblue;" points="585,-126.5 595,-123 585,-119.5 585,-126.5"/>
</g>
<!-- Node19 -->
<g id="node50" class="node"><title>Node19</title>
<a xlink:href="data__set_8h.html" target="_top" xlink:title="ltr/data/data_set.h">
<polygon style="fill:white;stroke:black;" points="527,-280 527,-300 622,-300 622,-280 527,-280"/>
<text text-anchor="middle" x="574" y="-287" style="font-family:Arial;font-size:10.00;">ltr/data/data_set.h</text>
</a>
</g>
<!-- Node1&#45;&gt;Node19 -->
<g id="edge174" class="edge"><title>Node1&#45;&gt;Node19</title>
<path style="fill:none;stroke:midnightblue;" d="M326,-392C375,-371 484,-326 540,-304"/>
<polygon style="fill:midnightblue;stroke:midnightblue;" points="541.283,-307.26 549,-300 538.44,-300.863 541.283,-307.26"/>
</g>
<!-- Node31 -->
<g id="node101" class="node"><title>Node31</title>
<a xlink:href="measure_8h.html" target="_top" xlink:title="ltr/measures/measure.h">
<polygon style="fill:white;stroke:black;" points="1030,-336 1030,-356 1149,-356 1149,-336 1030,-336"/>
<text text-anchor="middle" x="1089" y="-343" style="font-family:Arial;font-size:10.00;">ltr/measures/measure.h</text>
</a>
</g>
<!-- Node1&#45;&gt;Node31 -->
<g id="edge140" class="edge"><title>Node1&#45;&gt;Node31</title>
<path style="fill:none;stroke:midnightblue;" d="M350,-398C486,-388 863,-362 1020,-351"/>
<polygon style="fill:midnightblue;stroke:midnightblue;" points="1020.4,-354.478 1030,-350 1019.7,-347.512 1020.4,-354.478"/>
</g>
<!-- Node7&#45;&gt;Node3 -->
<g id="edge14" class="edge"><title>Node7&#45;&gt;Node3</title>
<path style="fill:none;stroke:midnightblue;" d="M295,-280C256,-269 195,-253 157,-243"/>
<polygon style="fill:midnightblue;stroke:midnightblue;" points="157.584,-239.521 147,-240 155.573,-246.226 157.584,-239.521"/>
</g>
<!-- Node8 -->
<g id="node16" class="node"><title>Node8</title>
<polygon style="fill:white;stroke:#bfbfbf;" points="202,-224 202,-244 241,-244 241,-224 202,-224"/>
<text text-anchor="middle" x="221" y="-231" style="font-family:Arial;font-size:10.00;">limits</text>
</g>
<!-- Node7&#45;&gt;Node8 -->
<g id="edge16" class="edge"><title>Node7&#45;&gt;Node8</title>
<path style="fill:none;stroke:midnightblue;" d="M312,-280C295,-271 270,-258 250,-249"/>
<polygon style="fill:midnightblue;stroke:midnightblue;" points="251.441,-245.797 241,-244 248.042,-251.916 251.441,-245.797"/>
</g>
<!-- Node9&#45;&gt;Node5 -->
<g id="edge20" class="edge"><title>Node9&#45;&gt;Node5</title>
<path style="fill:none;stroke:midnightblue;" d="M236,-336C222,-322 196,-297 170,-280 135,-257 79,-262 95,-224 121,-159 189,-107 226,-82"/>
<polygon style="fill:midnightblue;stroke:midnightblue;" points="228.621,-84.4592 235,-76 224.738,-78.6349 228.621,-84.4592"/>
</g>
<!-- Node9&#45;&gt;Node6 -->
<g id="edge22" class="edge"><title>Node9&#45;&gt;Node6</title>
<path style="fill:none;stroke:midnightblue;" d="M227,-336C211,-328 188,-315 170,-305"/>
<polygon style="fill:midnightblue;stroke:midnightblue;" points="171.441,-301.797 161,-300 168.042,-307.916 171.441,-301.797"/>
</g>
<!-- Node10 -->
<g id="node22" class="node"><title>Node10</title>
<a xlink:href="object__list_8h.html" target="_top" xlink:title="ltr/data/object_list.h">
<polygon style="fill:white;stroke:black;" points="443,-168 443,-188 545,-188 545,-168 443,-168"/>
<text text-anchor="middle" x="494" y="-175" style="font-family:Arial;font-size:10.00;">ltr/data/object_list.h</text>
</a>
</g>
<!-- Node9&#45;&gt;Node10 -->
<g id="edge24" class="edge"><title>Node9&#45;&gt;Node10</title>
<path style="fill:none;stroke:midnightblue;" d="M238,-336C220,-310 177,-242 193,-224 227,-183 376,-196 429,-188 430,-188 432,-187 433,-187"/>
<polygon style="fill:midnightblue;stroke:midnightblue;" points="433.398,-190.478 443,-186 432.701,-183.512 433.398,-190.478"/>
</g>
<!-- Node9&#45;&gt;Node19 -->
<g id="edge62" class="edge"><title>Node9&#45;&gt;Node19</title>
<path style="fill:none;stroke:midnightblue;" d="M304,-336C364,-326 457,-310 517,-300"/>
<polygon style="fill:midnightblue;stroke:midnightblue;" points="517.881,-303.393 527,-298 516.508,-296.529 517.881,-303.393"/>
</g>
<!-- Node10&#45;&gt;Node4 -->
<g id="edge28" class="edge"><title>Node10&#45;&gt;Node4</title>
<path style="fill:none;stroke:midnightblue;" d="M492,-168C487,-144 479,-86 510,-56 517,-48 827,-21 927,-13"/>
<polygon style="fill:midnightblue;stroke:midnightblue;" points="927.398,-16.4778 937,-12 926.701,-9.5125 927.398,-16.4778"/>
</g>
<!-- Node10&#45;&gt;Node5 -->
<g id="edge30" class="edge"><title>Node10&#45;&gt;Node5</title>
<path style="fill:none;stroke:midnightblue;" d="M472,-168C429,-147 332,-103 282,-80"/>
<polygon style="fill:midnightblue;stroke:midnightblue;" points="283.56,-76.8631 273,-76 280.717,-83.2598 283.56,-76.8631"/>
</g>
<!-- Node11 -->
<g id="node24" class="node"><title>Node11</title>
<polygon style="fill:white;stroke:#bfbfbf;" points="985,-56 985,-76 1044,-76 1044,-56 985,-56"/>
<text text-anchor="middle" x="1014" y="-63" style="font-family:Arial;font-size:10.00;">stdexcept</text>
</g>
<!-- Node10&#45;&gt;Node11 -->
<g id="edge26" class="edge"><title>Node10&#45;&gt;Node11</title>
<path style="fill:none;stroke:midnightblue;" d="M545,-168C591,-159 661,-145 722,-132 812,-112 919,-88 975,-75"/>
<polygon style="fill:midnightblue;stroke:midnightblue;" points="975.881,-78.3933 985,-73 974.508,-71.5292 975.881,-78.3933"/>
</g>
<!-- Node10&#45;&gt;Node12 -->
<g id="edge32" class="edge"><title>Node10&#45;&gt;Node12</title>
<path style="fill:none;stroke:midnightblue;" d="M520,-168C543,-159 576,-146 601,-136"/>
<polygon style="fill:midnightblue;stroke:midnightblue;" points="603.015,-138.964 611,-132 600.415,-132.464 603.015,-138.964"/>
</g>
<!-- Node15 -->
<g id="node37" class="node"><title>Node15</title>
<a xlink:href="printable_8h.html" target="_top" xlink:title="ltr/interfaces/printable.h">
<polygon style="fill:white;stroke:black;" points="771,-56 771,-76 888,-76 888,-56 771,-56"/>
<text text-anchor="middle" x="829" y="-63" style="font-family:Arial;font-size:10.00;">ltr/interfaces/printable.h</text>
</a>
</g>
<!-- Node10&#45;&gt;Node15 -->
<g id="edge58" class="edge"><title>Node10&#45;&gt;Node15</title>
<path style="fill:none;stroke:midnightblue;" d="M545,-169C585,-161 641,-148 688,-132 728,-118 773,-95 801,-81"/>
<polygon style="fill:midnightblue;stroke:midnightblue;" points="802.958,-83.916 810,-76 799.559,-77.7969 802.958,-83.916"/>
</g>
<!-- Node16 -->
<g id="node41" class="node"><title>Node16</title>
<a xlink:href="shared__ptr_8h.html" target="_top" xlink:title="ltr/utility/shared_ptr.h">
<polygon style="fill:white;stroke:black;" points="571,-56 571,-76 678,-76 678,-56 571,-56"/>
<text text-anchor="middle" x="624" y="-63" style="font-family:Arial;font-size:10.00;">ltr/utility/shared_ptr.h</text>
</a>
</g>
<!-- Node10&#45;&gt;Node16 -->
<g id="edge60" class="edge"><title>Node10&#45;&gt;Node16</title>
<path style="fill:none;stroke:midnightblue;" d="M502,-168C512,-154 532,-129 553,-112 566,-101 583,-90 596,-81"/>
<polygon style="fill:midnightblue;stroke:midnightblue;" points="597.958,-83.916 605,-76 594.559,-77.7969 597.958,-83.916"/>
</g>
<!-- Node12&#45;&gt;Node4 -->
<g id="edge40" class="edge"><title>Node12&#45;&gt;Node4</title>
<path style="fill:none;stroke:midnightblue;" d="M657,-112C675,-103 702,-89 726,-76 742,-67 744,-62 762,-56 818,-34 888,-20 927,-14"/>
<polygon style="fill:midnightblue;stroke:midnightblue;" points="927.398,-17.4778 937,-13 926.701,-10.5125 927.398,-17.4778"/>
</g>
<!-- Node12&#45;&gt;Node5 -->
<g id="edge42" class="edge"><title>Node12&#45;&gt;Node5</title>
<path style="fill:none;stroke:midnightblue;" d="M595,-116C517,-105 353,-81 283,-70"/>
<polygon style="fill:midnightblue;stroke:midnightblue;" points="283.299,-66.5125 273,-69 282.602,-73.4778 283.299,-66.5125"/>
</g>
<!-- Node12&#45;&gt;Node11 -->
<g id="edge38" class="edge"><title>Node12&#45;&gt;Node11</title>
<path style="fill:none;stroke:midnightblue;" d="M679,-116C753,-105 903,-82 975,-71"/>
<polygon style="fill:midnightblue;stroke:midnightblue;" points="975.398,-74.4778 985,-70 974.701,-67.5125 975.398,-74.4778"/>
</g>
<!-- Node13 -->
<g id="node30" class="node"><title>Node13</title>
<polygon style="fill:white;stroke:#bfbfbf;" points="519,-56 519,-76 554,-76 554,-56 519,-56"/>
<text text-anchor="middle" x="536" y="-63" style="font-family:Arial;font-size:10.00;">map</text>
</g>
<!-- Node12&#45;&gt;Node13 -->
<g id="edge34" class="edge"><title>Node12&#45;&gt;Node13</title>
<path style="fill:none;stroke:midnightblue;" d="M619,-112C604,-103 581,-91 563,-81"/>
<polygon style="fill:midnightblue;stroke:midnightblue;" points="564.441,-77.7969 554,-76 561.042,-83.916 564.441,-77.7969"/>
</g>
<!-- Node14 -->
<g id="node32" class="node"><title>Node14</title>
<polygon style="fill:white;stroke:#bfbfbf;" points="771,-0 771,-20 822,-20 822,-0 771,-0"/>
<text text-anchor="middle" x="796" y="-7" style="font-family:Arial;font-size:10.00;">ostream</text>
</g>
<!-- Node12&#45;&gt;Node14 -->
<g id="edge36" class="edge"><title>Node12&#45;&gt;Node14</title>
<path style="fill:none;stroke:midnightblue;" d="M650,-112C668,-99 700,-75 729,-56 743,-45 759,-34 772,-26"/>
<polygon style="fill:midnightblue;stroke:midnightblue;" points="774.621,-28.4592 781,-20 770.738,-22.6349 774.621,-28.4592"/>
</g>
<!-- Node12&#45;&gt;Node15 -->
<g id="edge44" class="edge"><title>Node12&#45;&gt;Node15</title>
<path style="fill:none;stroke:midnightblue;" d="M671,-112C703,-103 750,-89 785,-79"/>
<polygon style="fill:midnightblue;stroke:midnightblue;" points="786.427,-82.2259 795,-76 784.416,-75.5212 786.427,-82.2259"/>
</g>
<!-- Node12&#45;&gt;Node16 -->
<g id="edge50" class="edge"><title>Node12&#45;&gt;Node16</title>
<path style="fill:none;stroke:midnightblue;" d="M635,-112C634,-105 631,-95 629,-86"/>
<polygon style="fill:midnightblue;stroke:midnightblue;" points="632.226,-84.5725 626,-76 625.521,-86.584 632.226,-84.5725"/>
</g>
<!-- Node15&#45;&gt;Node4 -->
<g id="edge48" class="edge"><title>Node15&#45;&gt;Node4</title>
<path style="fill:none;stroke:midnightblue;" d="M852,-56C873,-47 905,-33 928,-23"/>
<polygon style="fill:midnightblue;stroke:midnightblue;" points="929.283,-26.2598 937,-19 926.44,-19.8631 929.283,-26.2598"/>
</g>
<!-- Node15&#45;&gt;Node14 -->
<g id="edge46" class="edge"><title>Node15&#45;&gt;Node14</title>
<path style="fill:none;stroke:midnightblue;" d="M823,-56C819,-49 812,-38 807,-29"/>
<polygon style="fill:midnightblue;stroke:midnightblue;" points="809.916,-27.0418 802,-20 803.797,-30.4414 809.916,-27.0418"/>
</g>
<!-- Node16&#45;&gt;Node2 -->
<g id="edge52" class="edge"><title>Node16&#45;&gt;Node2</title>
<path style="fill:none;stroke:midnightblue;" d="M678,-61C703,-60 734,-57 762,-56 1086,-36 1478,-17 1601,-11"/>
<polygon style="fill:midnightblue;stroke:midnightblue;" points="1601,-14.5001 1611,-11 1601,-7.5001 1601,-14.5001"/>
</g>
<!-- Node17 -->
<g id="node44" class="node"><title>Node17</title>
<polygon style="fill:white;stroke:#bfbfbf;" points="422,-0 422,-20 529,-20 529,-0 422,-0"/>
<text text-anchor="middle" x="475" y="-7" style="font-family:Arial;font-size:10.00;">boost/shared_ptr.hpp</text>
</g>
<!-- Node16&#45;&gt;Node17 -->
<g id="edge54" class="edge"><title>Node16&#45;&gt;Node17</title>
<path style="fill:none;stroke:midnightblue;" d="M597,-56C574,-47 538,-34 512,-24"/>
<polygon style="fill:midnightblue;stroke:midnightblue;" points="512.585,-20.4643 502,-20 509.985,-26.9636 512.585,-20.4643"/>
</g>
<!-- Node18 -->
<g id="node46" class="node"><title>Node18</title>
<polygon style="fill:white;stroke:#bfbfbf;" points="546,-0 546,-20 737,-20 737,-0 546,-0"/>
<text text-anchor="middle" x="641" y="-7" style="font-family:Arial;font-size:10.00;">boost/smart_ptr/detail/operator_bool.hpp</text>
</g>
<!-- Node16&#45;&gt;Node18 -->
<g id="edge56" class="edge"><title>Node16&#45;&gt;Node18</title>
<path style="fill:none;stroke:midnightblue;" d="M627,-56C629,-49 632,-39 635,-30"/>
<polygon style="fill:midnightblue;stroke:midnightblue;" points="638.479,-30.584 638,-20 631.774,-28.5725 638.479,-30.584"/>
</g>
<!-- Node19&#45;&gt;Node4 -->
<g id="edge68" class="edge"><title>Node19&#45;&gt;Node4</title>
<path style="fill:none;stroke:midnightblue;" d="M622,-285C684,-278 796,-264 890,-244 912,-239 1076,-206 1091,-188 1127,-139 1096,-98 1052,-56 1033,-38 1007,-26 987,-19"/>
<polygon style="fill:midnightblue;stroke:midnightblue;" points="987.584,-15.5212 977,-16 985.573,-22.2259 987.584,-15.5212"/>
</g>
<!-- Node19&#45;&gt;Node5 -->
<g id="edge70" class="edge"><title>Node19&#45;&gt;Node5</title>
<path style="fill:none;stroke:midnightblue;" d="M527,-285C481,-279 412,-267 355,-244 344,-239 275,-197 268,-188 244,-158 246,-112 249,-86"/>
<polygon style="fill:midnightblue;stroke:midnightblue;" points="252.488,-86.2987 250,-76 245.522,-85.6021 252.488,-86.2987"/>
</g>
<!-- Node19&#45;&gt;Node10 -->
<g id="edge74" class="edge"><title>Node19&#45;&gt;Node10</title>
<path style="fill:none;stroke:midnightblue;" d="M567,-280C554,-260 525,-221 507,-196"/>
<polygon style="fill:midnightblue;stroke:midnightblue;" points="509.8,-193.9 501,-188 504.2,-198.1 509.8,-193.9"/>
</g>
<!-- Node19&#45;&gt;Node11 -->
<g id="edge66" class="edge"><title>Node19&#45;&gt;Node11</title>
<path style="fill:none;stroke:midnightblue;" d="M622,-282C745,-261 1061,-206 1076,-188 1102,-154 1061,-108 1035,-83"/>
<polygon style="fill:midnightblue;stroke:midnightblue;" points="1036.83,-79.9511 1027,-76 1032.22,-85.2191 1036.83,-79.9511"/>
</g>
<!-- Node19&#45;&gt;Node12 -->
<g id="edge72" class="edge"><title>Node19&#45;&gt;Node12</title>
<path style="fill:none;stroke:midnightblue;" d="M576,-280C579,-267 586,-243 593,-224 603,-194 618,-161 628,-141"/>
<polygon style="fill:midnightblue;stroke:midnightblue;" points="631.137,-142.56 632,-132 624.74,-139.717 631.137,-142.56"/>
</g>
<!-- Node20 -->
<g id="node52" class="node"><title>Node20</title>
<polygon style="fill:white;stroke:#bfbfbf;" points="258,-224 258,-244 309,-244 309,-224 258,-224"/>
<text text-anchor="middle" x="283" y="-231" style="font-family:Arial;font-size:10.00;">sstream</text>
</g>
<!-- Node19&#45;&gt;Node20 -->
<g id="edge64" class="edge"><title>Node19&#45;&gt;Node20</title>
<path style="fill:none;stroke:midnightblue;" d="M527,-282C476,-274 393,-259 322,-244 321,-244 320,-244 319,-243"/>
<polygon style="fill:midnightblue;stroke:midnightblue;" points="319.492,-239.529 309,-241 318.119,-246.393 319.492,-239.529"/>
</g>
<!-- Node21 -->
<g id="node59" class="node"><title>Node21</title>
<a xlink:href="object__pair_8h.html" target="_top" xlink:title="ltr/data/object_pair.h">
<polygon style="fill:white;stroke:black;" points="727,-168 727,-188 831,-188 831,-168 727,-168"/>
<text text-anchor="middle" x="779" y="-175" style="font-family:Arial;font-size:10.00;">ltr/data/object_pair.h</text>
</a>
</g>
<!-- Node19&#45;&gt;Node21 -->
<g id="edge76" class="edge"><title>Node19&#45;&gt;Node21</title>
<path style="fill:none;stroke:midnightblue;" d="M622,-283C670,-275 737,-262 757,-244 769,-232 775,-213 777,-198"/>
<polygon style="fill:midnightblue;stroke:midnightblue;" points="780.488,-198.299 778,-188 773.522,-197.602 780.488,-198.299"/>
</g>
<!-- Node22 -->
<g id="node67" class="node"><title>Node22</title>
<a xlink:href="feature__info_8h.html" target="_top" xlink:title="ltr/data/feature_info.h">
<polygon style="fill:white;stroke:black;" points="364,-224 364,-244 471,-244 471,-224 364,-224"/>
<text text-anchor="middle" x="417" y="-231" style="font-family:Arial;font-size:10.00;">ltr/data/feature_info.h</text>
</a>
</g>
<!-- Node19&#45;&gt;Node22 -->
<g id="edge90" class="edge"><title>Node19&#45;&gt;Node22</title>
<path style="fill:none;stroke:midnightblue;" d="M546,-280C521,-271 483,-257 455,-247"/>
<polygon style="fill:midnightblue;stroke:midnightblue;" points="455.584,-243.521 445,-244 453.573,-250.226 455.584,-243.521"/>
</g>
<!-- Node29 -->
<g id="node91" class="node"><title>Node29</title>
<a xlink:href="per__object__accessor_8h.html" target="_top" xlink:title="ltr/data/per_object_accessor.h">
<polygon style="fill:white;stroke:black;" points="602,-224 602,-244 749,-244 749,-224 602,-224"/>
<text text-anchor="middle" x="675" y="-231" style="font-family:Arial;font-size:10.00;">ltr/data/per_object_accessor.h</text>
</a>
</g>
<!-- Node19&#45;&gt;Node29 -->
<g id="edge124" class="edge"><title>Node19&#45;&gt;Node29</title>
<path style="fill:none;stroke:midnightblue;" d="M592,-280C607,-271 630,-259 648,-249"/>
<polygon style="fill:midnightblue;stroke:midnightblue;" points="649.958,-251.916 657,-244 646.559,-245.797 649.958,-251.916"/>
</g>
<!-- Node30 -->
<g id="node98" class="node"><title>Node30</title>
<a xlink:href="aliaser_8h.html" target="_top" xlink:title="ltr/interfaces/aliaser.h">
<polygon style="fill:white;stroke:black;" points="994,-224 994,-244 1102,-244 1102,-224 994,-224"/>
<text text-anchor="middle" x="1048" y="-231" style="font-family:Arial;font-size:10.00;">ltr/interfaces/aliaser.h</text>
</a>
</g>
<!-- Node19&#45;&gt;Node30 -->
<g id="edge136" class="edge"><title>Node19&#45;&gt;Node30</title>
<path style="fill:none;stroke:midnightblue;" d="M622,-285C698,-277 850,-260 980,-244 981,-244 983,-243 984,-243"/>
<polygon style="fill:midnightblue;stroke:midnightblue;" points="984.398,-246.478 994,-242 983.701,-239.512 984.398,-246.478"/>
</g>
<!-- Node21&#45;&gt;Node4 -->
<g id="edge80" class="edge"><title>Node21&#45;&gt;Node4</title>
<path style="fill:none;stroke:midnightblue;" d="M791,-168C813,-150 859,-111 896,-76 912,-60 929,-41 941,-28"/>
<polygon style="fill:midnightblue;stroke:midnightblue;" points="944.049,-29.8306 948,-20 938.781,-25.221 944.049,-29.8306"/>
</g>
<!-- Node21&#45;&gt;Node5 -->
<g id="edge82" class="edge"><title>Node21&#45;&gt;Node5</title>
<path style="fill:none;stroke:midnightblue;" d="M732,-168C625,-145 371,-91 283,-72"/>
<polygon style="fill:midnightblue;stroke:midnightblue;" points="283.492,-68.5292 273,-70 282.119,-75.3933 283.492,-68.5292"/>
</g>
<!-- Node21&#45;&gt;Node11 -->
<g id="edge78" class="edge"><title>Node21&#45;&gt;Node11</title>
<path style="fill:none;stroke:midnightblue;" d="M815,-168C842,-160 880,-147 911,-132 940,-117 972,-96 992,-82"/>
<polygon style="fill:midnightblue;stroke:midnightblue;" points="994.1,-84.8 1000,-76 989.9,-79.2 994.1,-84.8"/>
</g>
<!-- Node21&#45;&gt;Node12 -->
<g id="edge84" class="edge"><title>Node21&#45;&gt;Node12</title>
<path style="fill:none;stroke:midnightblue;" d="M754,-168C731,-159 698,-146 673,-136"/>
<polygon style="fill:midnightblue;stroke:midnightblue;" points="673.585,-132.464 663,-132 670.985,-138.964 673.585,-132.464"/>
</g>
<!-- Node21&#45;&gt;Node15 -->
<g id="edge86" class="edge"><title>Node21&#45;&gt;Node15</title>
<path style="fill:none;stroke:midnightblue;" d="M784,-168C792,-149 810,-110 820,-85"/>
<polygon style="fill:midnightblue;stroke:midnightblue;" points="823.137,-86.5596 824,-76 816.74,-83.7166 823.137,-86.5596"/>
</g>
<!-- Node21&#45;&gt;Node16 -->
<g id="edge88" class="edge"><title>Node21&#45;&gt;Node16</title>
<path style="fill:none;stroke:midnightblue;" d="M765,-168C747,-155 715,-132 688,-112 674,-102 659,-90 646,-82"/>
<polygon style="fill:midnightblue;stroke:midnightblue;" points="648.1,-79.2 638,-76 643.9,-84.8 648.1,-79.2"/>
</g>
<!-- Node22&#45;&gt;Node4 -->
<g id="edge94" class="edge"><title>Node22&#45;&gt;Node4</title>
<path style="fill:none;stroke:midnightblue;" d="M392,-224C377,-216 358,-204 349,-188 332,-158 325,-139 345,-112 384,-55 422,-71 490,-56 531,-45 830,-20 927,-13"/>
<polygon style="fill:midnightblue;stroke:midnightblue;" points="927.398,-16.4778 937,-12 926.701,-9.5125 927.398,-16.4778"/>
</g>
<!-- Node22&#45;&gt;Node5 -->
<g id="edge96" class="edge"><title>Node22&#45;&gt;Node5</title>
<path style="fill:none;stroke:midnightblue;" d="M364,-227C337,-220 307,-209 287,-188 261,-159 254,-113 252,-86"/>
<polygon style="fill:midnightblue;stroke:midnightblue;" points="255.5,-86 252,-76 248.5,-86 255.5,-86"/>
</g>
<!-- Node22&#45;&gt;Node13 -->
<g id="edge92" class="edge"><title>Node22&#45;&gt;Node13</title>
<path style="fill:none;stroke:midnightblue;" d="M399,-224C386,-216 370,-204 363,-188 348,-157 342,-138 363,-112 381,-89 465,-75 509,-69"/>
<polygon style="fill:midnightblue;stroke:midnightblue;" points="509.398,-72.4778 519,-68 508.701,-65.5125 509.398,-72.4778"/>
</g>
<!-- Node22&#45;&gt;Node16 -->
<g id="edge122" class="edge"><title>Node22&#45;&gt;Node16</title>
<path style="fill:none;stroke:midnightblue;" d="M417,-224C418,-210 421,-185 434,-168 467,-121 530,-93 574,-79"/>
<polygon style="fill:midnightblue;stroke:midnightblue;" points="575.427,-82.2259 584,-76 573.416,-75.5212 575.427,-82.2259"/>
</g>
<!-- Node23 -->
<g id="node72" class="node"><title>Node23</title>
<a xlink:href="parameterized_8h.html" target="_top" xlink:title="ltr/interfaces/parameterized.h">
<polygon style="fill:white;stroke:black;" points="925,-168 925,-188 1067,-188 1067,-168 925,-168"/>
<text text-anchor="middle" x="996" y="-175" style="font-family:Arial;font-size:10.00;">ltr/interfaces/parameterized.h</text>
</a>
</g>
<!-- Node22&#45;&gt;Node23 -->
<g id="edge98" class="edge"><title>Node22&#45;&gt;Node23</title>
<path style="fill:none;stroke:midnightblue;" d="M471,-229C573,-219 794,-197 915,-186"/>
<polygon style="fill:midnightblue;stroke:midnightblue;" points="915.398,-189.478 925,-185 914.701,-182.512 915.398,-189.478"/>
</g>
<!-- Node23&#45;&gt;Node4 -->
<g id="edge102" class="edge"><title>Node23&#45;&gt;Node4</title>
<path style="fill:none;stroke:midnightblue;" d="M994,-168C988,-141 970,-66 961,-30"/>
<polygon style="fill:midnightblue;stroke:midnightblue;" points="964.393,-29.1194 959,-20 957.529,-30.4922 964.393,-29.1194"/>
</g>
<!-- Node23&#45;&gt;Node11 -->
<g id="edge100" class="edge"><title>Node23&#45;&gt;Node11</title>
<path style="fill:none;stroke:midnightblue;" d="M1005,-168C1012,-159 1021,-145 1025,-132 1029,-117 1026,-99 1022,-86"/>
<polygon style="fill:midnightblue;stroke:midnightblue;" points="1025.23,-84.5725 1019,-76 1018.52,-86.584 1025.23,-84.5725"/>
</g>
<!-- Node24 -->
<g id="node76" class="node"><title>Node24</title>
<a xlink:href="parameters__container_8h.html" target="_top" xlink:title="ltr/parameters_container/parameters_container.h">
<polygon style="fill:white;stroke:black;" points="1191,-112 1191,-132 1416,-132 1416,-112 1191,-112"/>
<text text-anchor="middle" x="1303" y="-119" style="font-family:Arial;font-size:10.00;">ltr/parameters_container/parameters_container.h</text>
</a>
</g>
<!-- Node23&#45;&gt;Node24 -->
<g id="edge104" class="edge"><title>Node23&#45;&gt;Node24</title>
<path style="fill:none;stroke:midnightblue;" d="M1051,-168C1104,-159 1183,-144 1238,-134"/>
<polygon style="fill:midnightblue;stroke:midnightblue;" points="1238.88,-137.393 1248,-132 1237.51,-130.529 1238.88,-137.393"/>
</g>
<!-- Node24&#45;&gt;Node4 -->
<g id="edge112" class="edge"><title>Node24&#45;&gt;Node4</title>
<path style="fill:none;stroke:midnightblue;" d="M1256,-112C1220,-104 1170,-91 1128,-76 1108,-68 1104,-64 1085,-56 1051,-43 1013,-29 987,-20"/>
<polygon style="fill:midnightblue;stroke:midnightblue;" points="987.584,-16.5212 977,-17 985.573,-23.2259 987.584,-16.5212"/>
</g>
<!-- Node24&#45;&gt;Node11 -->
<g id="edge110" class="edge"><title>Node24&#45;&gt;Node11</title>
<path style="fill:none;stroke:midnightblue;" d="M1251,-112C1195,-101 1105,-83 1054,-74"/>
<polygon style="fill:midnightblue;stroke:midnightblue;" points="1054.49,-70.5292 1044,-72 1053.12,-77.3933 1054.49,-70.5292"/>
</g>
<!-- Node24&#45;&gt;Node15 -->
<g id="edge120" class="edge"><title>Node24&#45;&gt;Node15</title>
<path style="fill:none;stroke:midnightblue;" d="M1218,-112C1127,-101 983,-84 898,-74"/>
<polygon style="fill:midnightblue;stroke:midnightblue;" points="898.299,-70.5125 888,-73 897.602,-77.4778 898.299,-70.5125"/>
</g>
<!-- Node24&#45;&gt;Node16 -->
<g id="edge118" class="edge"><title>Node24&#45;&gt;Node16</title>
<path style="fill:none;stroke:midnightblue;" d="M1191,-113C1047,-101 804,-81 688,-71"/>
<polygon style="fill:midnightblue;stroke:midnightblue;" points="688.299,-67.5125 678,-70 687.602,-74.4778 688.299,-67.5125"/>
</g>
<!-- Node25 -->
<g id="node78" class="node"><title>Node25</title>
<polygon style="fill:white;stroke:#bfbfbf;" points="1423,-56 1423,-76 1497,-76 1497,-56 1423,-56"/>
<text text-anchor="middle" x="1460" y="-63" style="font-family:Arial;font-size:10.00;">logog/logog.h</text>
</g>
<!-- Node24&#45;&gt;Node25 -->
<g id="edge106" class="edge"><title>Node24&#45;&gt;Node25</title>
<path style="fill:none;stroke:midnightblue;" d="M1331,-112C1356,-103 1394,-89 1422,-79"/>
<polygon style="fill:midnightblue;stroke:midnightblue;" points="1423.43,-82.2259 1432,-76 1421.42,-75.5212 1423.43,-82.2259"/>
</g>
<!-- Node26 -->
<g id="node80" class="node"><title>Node26</title>
<polygon style="fill:white;stroke:#bfbfbf;" points="1283,-56 1283,-76 1312,-76 1312,-56 1283,-56"/>
<text text-anchor="middle" x="1297" y="-63" style="font-family:Arial;font-size:10.00;">list</text>
</g>
<!-- Node24&#45;&gt;Node26 -->
<g id="edge108" class="edge"><title>Node24&#45;&gt;Node26</title>
<path style="fill:none;stroke:midnightblue;" d="M1302,-112C1301,-105 1300,-95 1299,-86"/>
<polygon style="fill:midnightblue;stroke:midnightblue;" points="1302.48,-85.6021 1298,-76 1295.51,-86.2987 1302.48,-85.6021"/>
</g>
<!-- Node27 -->
<g id="node84" class="node"><title>Node27</title>
<polygon style="fill:white;stroke:#bfbfbf;" points="1329,-56 1329,-76 1406,-76 1406,-56 1329,-56"/>
<text text-anchor="middle" x="1367" y="-63" style="font-family:Arial;font-size:10.00;">boost/any.hpp</text>
</g>
<!-- Node24&#45;&gt;Node27 -->
<g id="edge114" class="edge"><title>Node24&#45;&gt;Node27</title>
<path style="fill:none;stroke:midnightblue;" d="M1314,-112C1324,-104 1337,-93 1348,-83"/>
<polygon style="fill:midnightblue;stroke:midnightblue;" points="1350.4,-85.546 1355,-76 1345.45,-80.5962 1350.4,-85.546"/>
</g>
<!-- Node28 -->
<g id="node86" class="node"><title>Node28</title>
<polygon style="fill:white;stroke:#bfbfbf;" points="1137,-56 1137,-76 1266,-76 1266,-56 1137,-56"/>
<text text-anchor="middle" x="1201" y="-63" style="font-family:Arial;font-size:10.00;">boost/unordered_map.hpp</text>
</g>
<!-- Node24&#45;&gt;Node28 -->
<g id="edge116" class="edge"><title>Node24&#45;&gt;Node28</title>
<path style="fill:none;stroke:midnightblue;" d="M1285,-112C1269,-103 1246,-91 1228,-81"/>
<polygon style="fill:midnightblue;stroke:midnightblue;" points="1229.44,-77.7969 1219,-76 1226.04,-83.916 1229.44,-77.7969"/>
</g>
<!-- Node29&#45;&gt;Node10 -->
<g id="edge130" class="edge"><title>Node29&#45;&gt;Node10</title>
<path style="fill:none;stroke:midnightblue;" d="M643,-224C613,-215 569,-201 537,-191"/>
<polygon style="fill:midnightblue;stroke:midnightblue;" points="537.584,-187.521 527,-188 535.573,-194.226 537.584,-187.521"/>
</g>
<!-- Node29&#45;&gt;Node12 -->
<g id="edge126" class="edge"><title>Node29&#45;&gt;Node12</title>
<path style="fill:none;stroke:midnightblue;" d="M671,-224C665,-205 652,-166 643,-142"/>
<polygon style="fill:midnightblue;stroke:midnightblue;" points="646.226,-140.573 640,-132 639.521,-142.584 646.226,-140.573"/>
</g>
<!-- Node29&#45;&gt;Node16 -->
<g id="edge134" class="edge"><title>Node29&#45;&gt;Node16</title>
<path style="fill:none;stroke:midnightblue;" d="M661,-224C640,-207 601,-172 586,-132 579,-114 591,-96 604,-83"/>
<polygon style="fill:midnightblue;stroke:midnightblue;" points="606.404,-85.546 611,-76 601.454,-80.5962 606.404,-85.546"/>
</g>
<!-- Node29&#45;&gt;Node21 -->
<g id="edge128" class="edge"><title>Node29&#45;&gt;Node21</title>
<path style="fill:none;stroke:midnightblue;" d="M694,-224C710,-216 733,-203 751,-193"/>
<polygon style="fill:midnightblue;stroke:midnightblue;" points="752.958,-195.916 760,-188 749.559,-189.797 752.958,-195.916"/>
</g>
<!-- Node29&#45;&gt;Node23 -->
<g id="edge132" class="edge"><title>Node29&#45;&gt;Node23</title>
<path style="fill:none;stroke:midnightblue;" d="M732,-224C788,-215 871,-200 929,-190"/>
<polygon style="fill:midnightblue;stroke:midnightblue;" points="929.881,-193.393 939,-188 928.508,-186.529 929.881,-193.393"/>
</g>
<!-- Node30&#45;&gt;Node4 -->
<g id="edge138" class="edge"><title>Node30&#45;&gt;Node4</title>
<path style="fill:none;stroke:midnightblue;" d="M1102,-231C1247,-222 1626,-186 1506,-56 1470,-17 1097,-11 987,-10"/>
<polygon style="fill:midnightblue;stroke:midnightblue;" points="987,-6.5001 977,-10 987,-13.5001 987,-6.5001"/>
</g>
<!-- Node31&#45;&gt;Node2 -->
<g id="edge146" class="edge"><title>Node31&#45;&gt;Node2</title>
<path style="fill:none;stroke:midnightblue;" d="M1149,-344C1281,-341 1584,-329 1620,-300 1643,-280 1639,-264 1639,-234 1639,-234 1639,-234 1639,-122 1639,-89 1639,-53 1639,-30"/>
<polygon style="fill:midnightblue;stroke:midnightblue;" points="1642.5,-30 1639,-20 1635.5,-30 1642.5,-30"/>
</g>
<!-- Node31&#45;&gt;Node4 -->
<g id="edge150" class="edge"><title>Node31&#45;&gt;Node4</title>
<path style="fill:none;stroke:midnightblue;" d="M1144,-336C1180,-328 1226,-317 1265,-300 1411,-237 1641,-166 1527,-56 1487,-18 1100,-11 987,-10"/>
<polygon style="fill:midnightblue;stroke:midnightblue;" points="987,-6.5001 977,-10 987,-13.5001 987,-6.5001"/>
</g>
<!-- Node31&#45;&gt;Node7 -->
<g id="edge168" class="edge"><title>Node31&#45;&gt;Node7</title>
<path style="fill:none;stroke:midnightblue;" d="M1030,-342C890,-331 538,-305 394,-295"/>
<polygon style="fill:midnightblue;stroke:midnightblue;" points="394.299,-291.512 384,-294 393.602,-298.478 394.299,-291.512"/>
</g>
<!-- Node31&#45;&gt;Node10 -->
<g id="edge154" class="edge"><title>Node31&#45;&gt;Node10</title>
<path style="fill:none;stroke:midnightblue;" d="M1030,-345C892,-343 555,-333 518,-300 489,-275 489,-226 491,-198"/>
<polygon style="fill:midnightblue;stroke:midnightblue;" points="494.488,-198.299 492,-188 487.522,-197.602 494.488,-198.299"/>
</g>
<!-- Node31&#45;&gt;Node11 -->
<g id="edge148" class="edge"><title>Node31&#45;&gt;Node11</title>
<path style="fill:none;stroke:midnightblue;" d="M1131,-336C1150,-329 1170,-318 1182,-300 1199,-271 1194,-255 1182,-224 1156,-156 1083,-105 1042,-81"/>
<polygon style="fill:midnightblue;stroke:midnightblue;" points="1043.44,-77.7969 1033,-76 1040.04,-83.916 1043.44,-77.7969"/>
</g>
<!-- Node31&#45;&gt;Node12 -->
<g id="edge152" class="edge"><title>Node31&#45;&gt;Node12</title>
<path style="fill:none;stroke:midnightblue;" d="M1030,-338C988,-331 933,-320 887,-300 804,-264 790,-241 718,-188 696,-172 673,-152 657,-139"/>
<polygon style="fill:midnightblue;stroke:midnightblue;" points="658.831,-135.951 649,-132 654.221,-141.219 658.831,-135.951"/>
</g>
<!-- Node31&#45;&gt;Node15 -->
<g id="edge162" class="edge"><title>Node31&#45;&gt;Node15</title>
<path style="fill:none;stroke:midnightblue;" d="M1096,-336C1110,-313 1138,-257 1111,-224 1054,-156 987,-239 916,-188 884,-165 896,-143 873,-112 865,-102 856,-92 847,-83"/>
<polygon style="fill:midnightblue;stroke:midnightblue;" points="849.546,-80.5962 840,-76 844.596,-85.546 849.546,-80.5962"/>
</g>
<!-- Node31&#45;&gt;Node16 -->
<g id="edge170" class="edge"><title>Node31&#45;&gt;Node16</title>
<path style="fill:none;stroke:midnightblue;" d="M1077,-336C1041,-307 936,-224 840,-168 778,-132 702,-98 658,-80"/>
<polygon style="fill:midnightblue;stroke:midnightblue;" points="659.56,-76.8631 649,-76 656.717,-83.2598 659.56,-76.8631"/>
</g>
<!-- Node31&#45;&gt;Node19 -->
<g id="edge158" class="edge"><title>Node31&#45;&gt;Node19</title>
<path style="fill:none;stroke:midnightblue;" d="M1030,-340C931,-329 731,-308 632,-296"/>
<polygon style="fill:midnightblue;stroke:midnightblue;" points="632.299,-292.512 622,-295 631.602,-299.478 632.299,-292.512"/>
</g>
<!-- Node31&#45;&gt;Node21 -->
<g id="edge156" class="edge"><title>Node31&#45;&gt;Node21</title>
<path style="fill:none;stroke:midnightblue;" d="M1030,-338C994,-331 950,-319 914,-300 908,-296 833,-227 798,-195"/>
<polygon style="fill:midnightblue;stroke:midnightblue;" points="799.831,-191.951 790,-188 795.221,-197.219 799.831,-191.951"/>
</g>
<!-- Node31&#45;&gt;Node23 -->
<g id="edge164" class="edge"><title>Node31&#45;&gt;Node23</title>
<path style="fill:none;stroke:midnightblue;" d="M1095,-336C1108,-313 1134,-259 1111,-224 1101,-209 1084,-199 1067,-192"/>
<polygon style="fill:midnightblue;stroke:midnightblue;" points="1067.58,-188.464 1057,-188 1064.98,-194.964 1067.58,-188.464"/>
</g>
<!-- Node31&#45;&gt;Node24 -->
<g id="edge166" class="edge"><title>Node31&#45;&gt;Node24</title>
<path style="fill:none;stroke:midnightblue;" d="M1147,-336C1172,-329 1200,-318 1220,-300 1268,-256 1291,-178 1299,-142"/>
<polygon style="fill:midnightblue;stroke:midnightblue;" points="1302.47,-142.492 1301,-132 1295.61,-141.119 1302.47,-142.492"/>
</g>
<!-- Node31&#45;&gt;Node25 -->
<g id="edge142" class="edge"><title>Node31&#45;&gt;Node25</title>
<path style="fill:none;stroke:midnightblue;" d="M1140,-336C1170,-329 1208,-317 1239,-300 1335,-245 1355,-219 1424,-132 1435,-118 1445,-99 1451,-85"/>
<polygon style="fill:midnightblue;stroke:midnightblue;" points="1454.14,-86.5596 1455,-76 1447.74,-83.7166 1454.14,-86.5596"/>
</g>
<!-- Node31&#45;&gt;Node30 -->
<g id="edge160" class="edge"><title>Node31&#45;&gt;Node30</title>
<path style="fill:none;stroke:midnightblue;" d="M1085,-336C1078,-317 1064,-278 1056,-254"/>
<polygon style="fill:midnightblue;stroke:midnightblue;" points="1058.96,-251.985 1052,-244 1052.46,-254.585 1058.96,-251.985"/>
</g>
<!-- Node32 -->
<g id="node104" class="node"><title>Node32</title>
<polygon style="fill:white;stroke:#bfbfbf;" points="1497,-280 1497,-300 1611,-300 1611,-280 1497,-280"/>
<text text-anchor="middle" x="1554" y="-287" style="font-family:Arial;font-size:10.00;">boost/lexical_cast.hpp</text>
</g>
<!-- Node31&#45;&gt;Node32 -->
<g id="edge144" class="edge"><title>Node31&#45;&gt;Node32</title>
<path style="fill:none;stroke:midnightblue;" d="M1149,-339C1226,-331 1365,-315 1483,-300 1484,-300 1486,-299 1487,-299"/>
<polygon style="fill:midnightblue;stroke:midnightblue;" points="1487.4,-302.478 1497,-298 1486.7,-295.512 1487.4,-302.478"/>
</g>
</g>
</svg>
