<?xml version="1.0" encoding="UTF-8" standalone="no"?>
<!DOCTYPE svg PUBLIC "-//W3C//DTD SVG 1.0//EN"
 "http://www.w3.org/TR/2001/REC-SVG-20010904/DTD/svg10.dtd" [
 <!ATTLIST svg xmlns:xlink CDATA #FIXED "http://www.w3.org/1999/xlink">
]>
<!-- Generated by Graphviz version 2.20.2 (Tue Mar &#160;2 19:03:41 UTC 2010)
     For user: (jenkins)  -->
<!-- Title: G Pages: 1 -->
<svg width="956pt" height="140pt"
 viewBox="0.00 0.00 956.00 140.00" xmlns="http://www.w3.org/2000/svg" xmlns:xlink="http://www.w3.org/1999/xlink">
<g id="graph0" class="graph" transform="scale(1 1) rotate(0) translate(4 136)">
<title>G</title>
<polygon style="fill:white;stroke:white;" points="-4,4 -4,-136 952,-136 952,4 -4,4"/>
<!-- Node1 -->
<g id="node1" class="node"><title>Node1</title>
<polygon style="fill:#bfbfbf;stroke:black;" points="367,-112 367,-132 469,-132 469,-112 367,-112"/>
<text text-anchor="middle" x="418" y="-119" style="font-family:Arial;font-size:10.00;">ltr/measures/auc.cc</text>
</g>
<!-- Node2 -->
<g id="node3" class="node"><title>Node2</title>
<polygon style="fill:white;stroke:#bfbfbf;" points="0,-0 0,-20 56,-20 56,-0 0,-0"/>
<text text-anchor="middle" x="28" y="-7" style="font-family:Arial;font-size:10.00;">algorithm</text>
</g>
<!-- Node1&#45;&gt;Node2 -->
<g id="edge2" class="edge"><title>Node1&#45;&gt;Node2</title>
<path style="fill:none;stroke:midnightblue;" d="M367,-117C314,-111 230,-99 161,-76 122,-63 79,-41 54,-25"/>
<polygon style="fill:midnightblue;stroke:midnightblue;" points="55.4414,-21.7969 45,-20 52.0418,-27.916 55.4414,-21.7969"/>
</g>
<!-- Node3 -->
<g id="node5" class="node"><title>Node3</title>
<polygon style="fill:white;stroke:#bfbfbf;" points="74,-0 74,-20 117,-20 117,-0 74,-0"/>
<text text-anchor="middle" x="95" y="-7" style="font-family:Arial;font-size:10.00;">cmath</text>
</g>
<!-- Node1&#45;&gt;Node3 -->
<g id="edge4" class="edge"><title>Node1&#45;&gt;Node3</title>
<path style="fill:none;stroke:midnightblue;" d="M367,-116C323,-109 258,-97 205,-76 172,-63 138,-41 116,-26"/>
<polygon style="fill:midnightblue;stroke:midnightblue;" points="118.1,-23.2 108,-20 113.9,-28.8 118.1,-23.2"/>
</g>
<!-- Node4 -->
<g id="node7" class="node"><title>Node4</title>
<polygon style="fill:white;stroke:#bfbfbf;" points="134,-0 134,-20 174,-20 174,-0 134,-0"/>
<text text-anchor="middle" x="154" y="-7" style="font-family:Arial;font-size:10.00;">string</text>
</g>
<!-- Node1&#45;&gt;Node4 -->
<g id="edge6" class="edge"><title>Node1&#45;&gt;Node4</title>
<path style="fill:none;stroke:midnightblue;" d="M367,-114C331,-107 282,-95 242,-76 216,-63 189,-42 173,-27"/>
<polygon style="fill:midnightblue;stroke:midnightblue;" points="174.831,-23.9511 165,-20 170.221,-29.2191 174.831,-23.9511"/>
</g>
<!-- Node5 -->
<g id="node9" class="node"><title>Node5</title>
<polygon style="fill:white;stroke:#bfbfbf;" points="192,-0 192,-20 234,-20 234,-0 192,-0"/>
<text text-anchor="middle" x="213" y="-7" style="font-family:Arial;font-size:10.00;">vector</text>
</g>
<!-- Node1&#45;&gt;Node5 -->
<g id="edge8" class="edge"><title>Node1&#45;&gt;Node5</title>
<path style="fill:none;stroke:midnightblue;" d="M367,-114C337,-107 298,-95 269,-76 250,-64 234,-44 224,-29"/>
<polygon style="fill:midnightblue;stroke:midnightblue;" points="226.916,-27.0418 219,-20 220.797,-30.4414 226.916,-27.0418"/>
</g>
<!-- Node6 -->
<g id="node11" class="node"><title>Node6</title>
<polygon style="fill:white;stroke:#bfbfbf;" points="252,-0 252,-20 291,-20 291,-0 252,-0"/>
<text text-anchor="middle" x="271" y="-7" style="font-family:Arial;font-size:10.00;">utility</text>
</g>
<!-- Node1&#45;&gt;Node6 -->
<g id="edge10" class="edge"><title>Node1&#45;&gt;Node6</title>
<path style="fill:none;stroke:midnightblue;" d="M375,-112C341,-103 297,-90 285,-76 274,-63 271,-45 270,-30"/>
<polygon style="fill:midnightblue;stroke:midnightblue;" points="273.5,-30 270,-20 266.5,-30 273.5,-30"/>
</g>
<!-- Node7 -->
<g id="node13" class="node"><title>Node7</title>
<polygon style="fill:white;stroke:#bfbfbf;" points="308,-0 308,-20 412,-20 412,-0 308,-0"/>
<text text-anchor="middle" x="360" y="-7" style="font-family:Arial;font-size:10.00;">ltr/utility/numerical.h</text>
</g>
<!-- Node1&#45;&gt;Node7 -->
<g id="edge12" class="edge"><title>Node1&#45;&gt;Node7</title>
<path style="fill:none;stroke:midnightblue;" d="M416,-112C414,-98 409,-74 399,-56 393,-46 385,-36 378,-27"/>
<polygon style="fill:midnightblue;stroke:midnightblue;" points="380.546,-24.5962 371,-20 375.596,-29.546 380.546,-24.5962"/>
</g>
<!-- Node8 -->
<g id="node15" class="node"><title>Node8</title>
<polygon style="fill:white;stroke:#bfbfbf;" points="430,-0 430,-20 598,-20 598,-0 430,-0"/>
<text text-anchor="middle" x="514" y="-7" style="font-family:Arial;font-size:10.00;">ltr/measures/utils/measure_utility.h</text>
</g>
<!-- Node1&#45;&gt;Node8 -->
<g id="edge14" class="edge"><title>Node1&#45;&gt;Node8</title>
<path style="fill:none;stroke:midnightblue;" d="M427,-112C443,-92 478,-52 499,-28"/>
<polygon style="fill:midnightblue;stroke:midnightblue;" points="501.8,-30.1 505,-20 496.2,-25.9 501.8,-30.1"/>
</g>
<!-- Node9 -->
<g id="node17" class="node"><title>Node9</title>
<polygon style="fill:white;stroke:#bfbfbf;" points="616,-0 616,-20 735,-20 735,-0 616,-0"/>
<text text-anchor="middle" x="675" y="-7" style="font-family:Arial;font-size:10.00;">ltr/measures/measure.h</text>
</g>
<!-- Node1&#45;&gt;Node9 -->
<g id="edge16" class="edge"><title>Node1&#45;&gt;Node9</title>
<path style="fill:none;stroke:midnightblue;" d="M430,-112C448,-98 484,-71 518,-56 549,-42 586,-30 616,-23"/>
<polygon style="fill:midnightblue;stroke:midnightblue;" points="617.427,-26.2259 626,-20 615.416,-19.5212 617.427,-26.2259"/>
</g>
<!-- Node10 -->
<g id="node19" class="node"><title>Node10</title>
<a xlink:href="auc_8h.html" target="_top" xlink:title="ltr/measures/auc.h">
<polygon style="fill:white;stroke:black;" points="294,-56 294,-76 391,-76 391,-56 294,-56"/>
<text text-anchor="middle" x="342" y="-63" style="font-family:Arial;font-size:10.00;">ltr/measures/auc.h</text>
</a>
</g>
<!-- Node1&#45;&gt;Node10 -->
<g id="edge18" class="edge"><title>Node1&#45;&gt;Node10</title>
<path style="fill:none;stroke:midnightblue;" d="M404,-112C393,-104 377,-92 364,-82"/>
<polygon style="fill:midnightblue;stroke:midnightblue;" points="366.1,-79.2 356,-76 361.9,-84.8 366.1,-79.2"/>
</g>
<!-- Node11 -->
<g id="node29" class="node"><title>Node11</title>
<polygon style="fill:white;stroke:#bfbfbf;" points="752,-0 752,-20 836,-20 836,-0 752,-0"/>
<text text-anchor="middle" x="794" y="-7" style="font-family:Arial;font-size:10.00;">ltr/data/object.h</text>
</g>
<!-- Node1&#45;&gt;Node11 -->
<g id="edge40" class="edge"><title>Node1&#45;&gt;Node11</title>
<path style="fill:none;stroke:midnightblue;" d="M438,-112C475,-94 549,-58 556,-56 633,-30 657,-36 742,-20"/>
<polygon style="fill:midnightblue;stroke:midnightblue;" points="742.881,-23.3933 752,-18 741.508,-16.5292 742.881,-23.3933"/>
</g>
<!-- Node12 -->
<g id="node31" class="node"><title>Node12</title>
<polygon style="fill:white;stroke:#bfbfbf;" points="854,-0 854,-20 949,-20 949,-0 854,-0"/>
<text text-anchor="middle" x="901" y="-7" style="font-family:Arial;font-size:10.00;">ltr/data/data_set.h</text>
</g>
<!-- Node1&#45;&gt;Node12 -->
<g id="edge42" class="edge"><title>Node1&#45;&gt;Node12</title>
<path style="fill:none;stroke:midnightblue;" d="M448,-112C475,-103 513,-90 547,-76 566,-68 569,-61 589,-56 696,-23 729,-37 844,-20"/>
<polygon style="fill:midnightblue;stroke:midnightblue;" points="844.881,-23.3933 854,-18 843.508,-16.5292 844.881,-23.3933"/>
</g>
<!-- Node13 -->
<g id="node35" class="node"><title>Node13</title>
<polygon style="fill:white;stroke:#bfbfbf;" points="598,-56 598,-76 705,-76 705,-56 598,-56"/>
<text text-anchor="middle" x="651" y="-63" style="font-family:Arial;font-size:10.00;">boost/tuple/tuple.hpp</text>
</g>
<!-- Node1&#45;&gt;Node13 -->
<g id="edge44" class="edge"><title>Node1&#45;&gt;Node13</title>
<path style="fill:none;stroke:midnightblue;" d="M460,-112C499,-103 557,-88 599,-78"/>
<polygon style="fill:midnightblue;stroke:midnightblue;" points="599.881,-81.3933 609,-76 598.508,-74.5292 599.881,-81.3933"/>
</g>
<!-- Node14 -->
<g id="node37" class="node"><title>Node14</title>
<polygon style="fill:white;stroke:#bfbfbf;" points="722,-56 722,-76 884,-76 884,-56 722,-56"/>
<text text-anchor="middle" x="803" y="-63" style="font-family:Arial;font-size:10.00;">boost/tuple/tuple_comparison.hpp</text>
</g>
<!-- Node1&#45;&gt;Node14 -->
<g id="edge46" class="edge"><title>Node1&#45;&gt;Node14</title>
<path style="fill:none;stroke:midnightblue;" d="M469,-115C534,-105 648,-89 724,-77"/>
<polygon style="fill:midnightblue;stroke:midnightblue;" points="724.398,-80.4778 734,-76 723.701,-73.5125 724.398,-80.4778"/>
</g>
<!-- Node10&#45;&gt;Node2 -->
<g id="edge20" class="edge"><title>Node10&#45;&gt;Node2</title>
<path style="fill:none;stroke:midnightblue;" d="M294,-59C240,-51 151,-38 66,-20"/>
<polygon style="fill:midnightblue;stroke:midnightblue;" points="66.4922,-16.5292 56,-18 65.1194,-23.3933 66.4922,-16.5292"/>
</g>
<!-- Node10&#45;&gt;Node3 -->
<g id="edge22" class="edge"><title>Node10&#45;&gt;Node3</title>
<path style="fill:none;stroke:midnightblue;" d="M294,-57C252,-49 189,-36 127,-20"/>
<polygon style="fill:midnightblue;stroke:midnightblue;" points="127.584,-16.5212 117,-17 125.573,-23.2259 127.584,-16.5212"/>
</g>
<!-- Node10&#45;&gt;Node4 -->
<g id="edge24" class="edge"><title>Node10&#45;&gt;Node4</title>
<path style="fill:none;stroke:midnightblue;" d="M305,-56C275,-48 231,-35 184,-20"/>
<polygon style="fill:midnightblue;stroke:midnightblue;" points="184.584,-16.5212 174,-17 182.573,-23.2259 184.584,-16.5212"/>
</g>
<!-- Node10&#45;&gt;Node5 -->
<g id="edge26" class="edge"><title>Node10&#45;&gt;Node5</title>
<path style="fill:none;stroke:midnightblue;" d="M319,-56C298,-47 267,-33 243,-23"/>
<polygon style="fill:midnightblue;stroke:midnightblue;" points="244.56,-19.8631 234,-19 241.717,-26.2598 244.56,-19.8631"/>
</g>
<!-- Node10&#45;&gt;Node6 -->
<g id="edge28" class="edge"><title>Node10&#45;&gt;Node6</title>
<path style="fill:none;stroke:midnightblue;" d="M329,-56C319,-48 304,-36 292,-27"/>
<polygon style="fill:midnightblue;stroke:midnightblue;" points="293.831,-23.9511 284,-20 289.221,-29.2191 293.831,-23.9511"/>
</g>
<!-- Node10&#45;&gt;Node7 -->
<g id="edge30" class="edge"><title>Node10&#45;&gt;Node7</title>
<path style="fill:none;stroke:midnightblue;" d="M345,-56C347,-49 350,-39 354,-29"/>
<polygon style="fill:midnightblue;stroke:midnightblue;" points="357.158,-30.5937 357,-20 350.517,-28.38 357.158,-30.5937"/>
</g>
<!-- Node10&#45;&gt;Node8 -->
<g id="edge32" class="edge"><title>Node10&#45;&gt;Node8</title>
<path style="fill:none;stroke:midnightblue;" d="M373,-56C401,-47 443,-33 473,-23"/>
<polygon style="fill:midnightblue;stroke:midnightblue;" points="474.427,-26.2259 483,-20 472.416,-19.5212 474.427,-26.2259"/>
</g>
<!-- Node10&#45;&gt;Node9 -->
<g id="edge34" class="edge"><title>Node10&#45;&gt;Node9</title>
<path style="fill:none;stroke:midnightblue;" d="M391,-58C448,-49 542,-33 606,-22"/>
<polygon style="fill:midnightblue;stroke:midnightblue;" points="606.881,-25.3933 616,-20 605.508,-18.5292 606.881,-25.3933"/>
</g>
<!-- Node10&#45;&gt;Node11 -->
<g id="edge36" class="edge"><title>Node10&#45;&gt;Node11</title>
<path style="fill:none;stroke:midnightblue;" d="M391,-62C465,-54 609,-40 742,-20"/>
<polygon style="fill:midnightblue;stroke:midnightblue;" points="742.881,-23.3933 752,-18 741.508,-16.5292 742.881,-23.3933"/>
</g>
<!-- Node10&#45;&gt;Node12 -->
<g id="edge38" class="edge"><title>Node10&#45;&gt;Node12</title>
<path style="fill:none;stroke:midnightblue;" d="M391,-63C480,-57 672,-43 844,-20"/>
<polygon style="fill:midnightblue;stroke:midnightblue;" points="844.398,-23.4778 854,-19 843.701,-16.5125 844.398,-23.4778"/>
</g>
</g>
</svg>
