<?xml version="1.0" encoding="UTF-8" standalone="no"?>
<!DOCTYPE svg PUBLIC "-//W3C//DTD SVG 1.0//EN"
 "http://www.w3.org/TR/2001/REC-SVG-20010904/DTD/svg10.dtd" [
 <!ATTLIST svg xmlns:xlink CDATA #FIXED "http://www.w3.org/1999/xlink">
]>
<!-- Generated by Graphviz version 2.20.2 (Tue Mar &#160;2 19:03:41 UTC 2010)
     For user: (jenkins)  -->
<!-- Title: G Pages: 1 -->
<svg width="290pt" height="84pt"
 viewBox="0.00 0.00 290.00 84.00" xmlns="http://www.w3.org/2000/svg" xmlns:xlink="http://www.w3.org/1999/xlink">
<g id="graph0" class="graph" transform="scale(1 1) rotate(0) translate(4 80)">
<title>G</title>
<polygon style="fill:white;stroke:white;" points="-4,4 -4,-80 286,-80 286,4 -4,4"/>
<!-- Node1 -->
<g id="node1" class="node"><title>Node1</title>
<polygon style="fill:#bfbfbf;stroke:black;" points="78,-56 78,-76 175,-76 175,-56 78,-56"/>
<text text-anchor="middle" x="126" y="-63" style="font-family:Arial;font-size:10.00;">ltr/measures/auc.h</text>
</g>
<!-- Node2 -->
<g id="node3" class="node"><title>Node2</title>
<a xlink:href="auc_8cc.html" target="_top" xlink:title="ltr/measures/auc.cc">
<polygon style="fill:white;stroke:black;" points="0,-0 0,-20 102,-20 102,-0 0,-0"/>
<text text-anchor="middle" x="51" y="-7" style="font-family:Arial;font-size:10.00;">ltr/measures/auc.cc</text>
</a>
</g>
<!-- Node1&#45;&gt;Node2 -->
<g id="edge2" class="edge"><title>Node1&#45;&gt;Node2</title>
<path style="fill:none;stroke:midnightblue;" d="M105,-50C92,-40 76,-28 65,-20"/>
<polygon style="fill:midnightblue;stroke:midnightblue;" points="102.9,-52.8 113,-56 107.1,-47.2 102.9,-52.8"/>
</g>
<!-- Node3 -->
<g id="node5" class="node"><title>Node3</title>
<a xlink:href="measure__unittest_8cc.html" target="_top" xlink:title="ltr/measures/measure_unittest.cc">
<polygon style="fill:white;stroke:black;" points="120,-0 120,-20 282,-20 282,-0 120,-0"/>
<text text-anchor="middle" x="201" y="-7" style="font-family:Arial;font-size:10.00;">ltr/measures/measure_unittest.cc</text>
</a>
</g>
<!-- Node1&#45;&gt;Node3 -->
<g id="edge4" class="edge"><title>Node1&#45;&gt;Node3</title>
<path style="fill:none;stroke:midnightblue;" d="M147,-50C160,-40 176,-28 187,-20"/>
<polygon style="fill:midnightblue;stroke:midnightblue;" points="144.9,-47.2 139,-56 149.1,-52.8 144.9,-47.2"/>
</g>
</g>
</svg>
