<?xml version="1.0" encoding="UTF-8" standalone="no"?>
<!DOCTYPE svg PUBLIC "-//W3C//DTD SVG 1.0//EN"
 "http://www.w3.org/TR/2001/REC-SVG-20010904/DTD/svg10.dtd" [
 <!ATTLIST svg xmlns:xlink CDATA #FIXED "http://www.w3.org/1999/xlink">
]>
<!-- Generated by Graphviz version 2.20.2 (Tue Mar &#160;2 19:03:41 UTC 2010)
     For user: (jenkins)  -->
<!-- Title: G Pages: 1 -->
<svg width="800pt" height="140pt"
 viewBox="0.00 0.00 800.00 140.00" xmlns="http://www.w3.org/2000/svg" xmlns:xlink="http://www.w3.org/1999/xlink">
<g id="graph0" class="graph" transform="scale(1 1) rotate(0) translate(4 136)">
<title>G</title>
<polygon style="fill:white;stroke:white;" points="-4,4 -4,-136 796,-136 796,4 -4,4"/>
<!-- Node1 -->
<g id="node1" class="node"><title>Node1</title>
<polygon style="fill:#bfbfbf;stroke:black;" points="221,-112 221,-132 385,-132 385,-112 221,-112"/>
<text text-anchor="middle" x="303" y="-119" style="font-family:Arial;font-size:10.00;">ltr/measures/average_precision.cc</text>
</g>
<!-- Node2 -->
<g id="node3" class="node"><title>Node2</title>
<polygon style="fill:white;stroke:#bfbfbf;" points="0,-56 0,-76 114,-76 114,-56 0,-56"/>
<text text-anchor="middle" x="57" y="-63" style="font-family:Arial;font-size:10.00;">boost/lexical_cast.hpp</text>
</g>
<!-- Node1&#45;&gt;Node2 -->
<g id="edge2" class="edge"><title>Node1&#45;&gt;Node2</title>
<path style="fill:none;stroke:midnightblue;" d="M259,-112C217,-103 155,-88 111,-78"/>
<polygon style="fill:midnightblue;stroke:midnightblue;" points="111.492,-74.5292 101,-76 110.119,-81.3933 111.492,-74.5292"/>
</g>
<!-- Node3 -->
<g id="node5" class="node"><title>Node3</title>
<polygon style="fill:white;stroke:#bfbfbf;" points="234,-0 234,-20 274,-20 274,-0 234,-0"/>
<text text-anchor="middle" x="254" y="-7" style="font-family:Arial;font-size:10.00;">string</text>
</g>
<!-- Node1&#45;&gt;Node3 -->
<g id="edge4" class="edge"><title>Node1&#45;&gt;Node3</title>
<path style="fill:none;stroke:midnightblue;" d="M253,-112C217,-104 172,-91 161,-76 142,-49 190,-28 224,-18"/>
<polygon style="fill:midnightblue;stroke:midnightblue;" points="225.427,-21.2259 234,-15 223.416,-14.5212 225.427,-21.2259"/>
</g>
<!-- Node4 -->
<g id="node7" class="node"><title>Node4</title>
<polygon style="fill:white;stroke:#bfbfbf;" points="170,-56 170,-76 221,-76 221,-56 170,-56"/>
<text text-anchor="middle" x="195" y="-63" style="font-family:Arial;font-size:10.00;">sstream</text>
</g>
<!-- Node1&#45;&gt;Node4 -->
<g id="edge6" class="edge"><title>Node1&#45;&gt;Node4</title>
<path style="fill:none;stroke:midnightblue;" d="M284,-112C268,-103 243,-90 224,-81"/>
<polygon style="fill:midnightblue;stroke:midnightblue;" points="225.441,-77.7969 215,-76 222.042,-83.916 225.441,-77.7969"/>
</g>
<!-- Node5 -->
<g id="node9" class="node"><title>Node5</title>
<polygon style="fill:white;stroke:#bfbfbf;" points="238,-56 238,-76 294,-76 294,-56 238,-56"/>
<text text-anchor="middle" x="266" y="-63" style="font-family:Arial;font-size:10.00;">algorithm</text>
</g>
<!-- Node1&#45;&gt;Node5 -->
<g id="edge8" class="edge"><title>Node1&#45;&gt;Node5</title>
<path style="fill:none;stroke:midnightblue;" d="M296,-112C291,-104 285,-94 279,-85"/>
<polygon style="fill:midnightblue;stroke:midnightblue;" points="281.459,-82.3791 273,-76 275.635,-86.262 281.459,-82.3791"/>
</g>
<!-- Node6 -->
<g id="node11" class="node"><title>Node6</title>
<polygon style="fill:white;stroke:#bfbfbf;" points="312,-56 312,-76 371,-76 371,-56 312,-56"/>
<text text-anchor="middle" x="341" y="-63" style="font-family:Arial;font-size:10.00;">stdexcept</text>
</g>
<!-- Node1&#45;&gt;Node6 -->
<g id="edge10" class="edge"><title>Node1&#45;&gt;Node6</title>
<path style="fill:none;stroke:midnightblue;" d="M310,-112C315,-104 322,-94 328,-85"/>
<polygon style="fill:midnightblue;stroke:midnightblue;" points="331.365,-86.262 334,-76 325.541,-82.3791 331.365,-86.262"/>
</g>
<!-- Node7 -->
<g id="node13" class="node"><title>Node7</title>
<polygon style="fill:white;stroke:#bfbfbf;" points="388,-56 388,-76 430,-76 430,-56 388,-56"/>
<text text-anchor="middle" x="409" y="-63" style="font-family:Arial;font-size:10.00;">vector</text>
</g>
<!-- Node1&#45;&gt;Node7 -->
<g id="edge12" class="edge"><title>Node1&#45;&gt;Node7</title>
<path style="fill:none;stroke:midnightblue;" d="M322,-112C338,-103 362,-90 381,-81"/>
<polygon style="fill:midnightblue;stroke:midnightblue;" points="382.958,-83.916 390,-76 379.559,-77.7969 382.958,-83.916"/>
</g>
<!-- Node8 -->
<g id="node15" class="node"><title>Node8</title>
<a xlink:href="average__precision_8h.html" target="_top" xlink:title="ltr/measures/average_precision.h">
<polygon style="fill:white;stroke:black;" points="448,-56 448,-76 607,-76 607,-56 448,-56"/>
<text text-anchor="middle" x="527" y="-63" style="font-family:Arial;font-size:10.00;">ltr/measures/average_precision.h</text>
</a>
</g>
<!-- Node1&#45;&gt;Node8 -->
<g id="edge14" class="edge"><title>Node1&#45;&gt;Node8</title>
<path style="fill:none;stroke:midnightblue;" d="M343,-112C380,-103 437,-88 477,-78"/>
<polygon style="fill:midnightblue;stroke:midnightblue;" points="477.881,-81.3933 487,-76 476.508,-74.5292 477.881,-81.3933"/>
</g>
<!-- Node11 -->
<g id="node22" class="node"><title>Node11</title>
<polygon style="fill:white;stroke:#bfbfbf;" points="624,-56 624,-76 792,-76 792,-56 624,-56"/>
<text text-anchor="middle" x="708" y="-63" style="font-family:Arial;font-size:10.00;">ltr/measures/utils/measure_utility.h</text>
</g>
<!-- Node1&#45;&gt;Node11 -->
<g id="edge22" class="edge"><title>Node1&#45;&gt;Node11</title>
<path style="fill:none;stroke:midnightblue;" d="M375,-112C446,-102 552,-87 626,-77"/>
<polygon style="fill:midnightblue;stroke:midnightblue;" points="626.398,-80.4778 636,-76 625.701,-73.5125 626.398,-80.4778"/>
</g>
<!-- Node8&#45;&gt;Node3 -->
<g id="edge16" class="edge"><title>Node8&#45;&gt;Node3</title>
<path style="fill:none;stroke:midnightblue;" d="M478,-56C422,-45 331,-26 284,-16"/>
<polygon style="fill:midnightblue;stroke:midnightblue;" points="284.492,-12.5292 274,-14 283.119,-19.3933 284.492,-12.5292"/>
</g>
<!-- Node9 -->
<g id="node18" class="node"><title>Node9</title>
<polygon style="fill:white;stroke:#bfbfbf;" points="404,-0 404,-20 523,-20 523,-0 404,-0"/>
<text text-anchor="middle" x="463" y="-7" style="font-family:Arial;font-size:10.00;">ltr/measures/measure.h</text>
</g>
<!-- Node8&#45;&gt;Node9 -->
<g id="edge18" class="edge"><title>Node8&#45;&gt;Node9</title>
<path style="fill:none;stroke:midnightblue;" d="M516,-56C506,-48 493,-37 482,-27"/>
<polygon style="fill:midnightblue;stroke:midnightblue;" points="484.546,-24.5962 475,-20 479.596,-29.546 484.546,-24.5962"/>
</g>
<!-- Node10 -->
<g id="node20" class="node"><title>Node10</title>
<polygon style="fill:white;stroke:#bfbfbf;" points="540,-0 540,-20 642,-20 642,-0 540,-0"/>
<text text-anchor="middle" x="591" y="-7" style="font-family:Arial;font-size:10.00;">ltr/data/object_list.h</text>
</g>
<!-- Node8&#45;&gt;Node10 -->
<g id="edge20" class="edge"><title>Node8&#45;&gt;Node10</title>
<path style="fill:none;stroke:midnightblue;" d="M538,-56C548,-48 561,-37 572,-27"/>
<polygon style="fill:midnightblue;stroke:midnightblue;" points="574.404,-29.546 579,-20 569.454,-24.5962 574.404,-29.546"/>
</g>
</g>
</svg>
