<?xml version="1.0" encoding="UTF-8" standalone="no"?>
<!DOCTYPE svg PUBLIC "-//W3C//DTD SVG 1.0//EN"
 "http://www.w3.org/TR/2001/REC-SVG-20010904/DTD/svg10.dtd" [
 <!ATTLIST svg xmlns:xlink CDATA #FIXED "http://www.w3.org/1999/xlink">
]>
<!-- Generated by Graphviz version 2.20.2 (Tue Mar &#160;2 19:03:41 UTC 2010)
     For user: (jenkins)  -->
<!-- Title: G Pages: 1 -->
<svg width="1262pt" height="84pt"
 viewBox="0.00 0.00 1262.00 84.00" xmlns="http://www.w3.org/2000/svg" xmlns:xlink="http://www.w3.org/1999/xlink">
<g id="graph0" class="graph" transform="scale(1 1) rotate(0) translate(4 80)">
<title>G</title>
<polygon style="fill:white;stroke:white;" points="-4,4 -4,-80 1258,-80 1258,4 -4,4"/>
<!-- Node1 -->
<g id="node1" class="node"><title>Node1</title>
<polygon style="fill:#bfbfbf;stroke:black;" points="279,-56 279,-76 640,-76 640,-56 279,-56"/>
<text text-anchor="middle" x="459" y="-63" style="font-family:Arial;font-size:10.00;">ltr/learners/composition_learner/average_composition_scorer_weights_updater.h</text>
</g>
<!-- Node2 -->
<g id="node3" class="node"><title>Node2</title>
<polygon style="fill:white;stroke:#bfbfbf;" points="0,-0 0,-20 40,-20 40,-0 0,-0"/>
<text text-anchor="middle" x="20" y="-7" style="font-family:Arial;font-size:10.00;">string</text>
</g>
<!-- Node1&#45;&gt;Node2 -->
<g id="edge2" class="edge"><title>Node1&#45;&gt;Node2</title>
<path style="fill:none;stroke:midnightblue;" d="M298,-56C224,-49 137,-39 50,-19"/>
<polygon style="fill:midnightblue;stroke:midnightblue;" points="50.4922,-15.5292 40,-17 49.1194,-22.3933 50.4922,-15.5292"/>
</g>
<!-- Node3 -->
<g id="node5" class="node"><title>Node3</title>
<polygon style="fill:white;stroke:#bfbfbf;" points="58,-0 58,-20 165,-20 165,-0 58,-0"/>
<text text-anchor="middle" x="111" y="-7" style="font-family:Arial;font-size:10.00;">ltr/utility/shared_ptr.h</text>
</g>
<!-- Node1&#45;&gt;Node3 -->
<g id="edge4" class="edge"><title>Node1&#45;&gt;Node3</title>
<path style="fill:none;stroke:midnightblue;" d="M398,-56C342,-47 258,-33 175,-21"/>
<polygon style="fill:midnightblue;stroke:midnightblue;" points="175.492,-17.5292 165,-19 174.119,-24.3933 175.492,-17.5292"/>
</g>
<!-- Node4 -->
<g id="node7" class="node"><title>Node4</title>
<polygon style="fill:white;stroke:#bfbfbf;" points="182,-0 182,-20 301,-20 301,-0 182,-0"/>
<text text-anchor="middle" x="241" y="-7" style="font-family:Arial;font-size:10.00;">ltr/measures/measure.h</text>
</g>
<!-- Node1&#45;&gt;Node4 -->
<g id="edge6" class="edge"><title>Node1&#45;&gt;Node4</title>
<path style="fill:none;stroke:midnightblue;" d="M420,-56C383,-47 329,-33 290,-23"/>
<polygon style="fill:midnightblue;stroke:midnightblue;" points="290.584,-19.5212 280,-20 288.573,-26.2259 290.584,-19.5212"/>
</g>
<!-- Node5 -->
<g id="node9" class="node"><title>Node5</title>
<polygon style="fill:white;stroke:#bfbfbf;" points="318,-0 318,-20 413,-20 413,-0 318,-0"/>
<text text-anchor="middle" x="365" y="-7" style="font-family:Arial;font-size:10.00;">ltr/data/data_set.h</text>
</g>
<!-- Node1&#45;&gt;Node5 -->
<g id="edge8" class="edge"><title>Node1&#45;&gt;Node5</title>
<path style="fill:none;stroke:midnightblue;" d="M442,-56C428,-48 407,-35 391,-25"/>
<polygon style="fill:midnightblue;stroke:midnightblue;" points="392.441,-21.7969 382,-20 389.042,-27.916 392.441,-21.7969"/>
</g>
<!-- Node6 -->
<g id="node11" class="node"><title>Node6</title>
<polygon style="fill:white;stroke:#bfbfbf;" points="430,-0 430,-20 678,-20 678,-0 430,-0"/>
<text text-anchor="middle" x="554" y="-7" style="font-family:Arial;font-size:10.00;">ltr/scorers/composition_scorers/composition_scorer.h</text>
</g>
<!-- Node1&#45;&gt;Node6 -->
<g id="edge10" class="edge"><title>Node1&#45;&gt;Node6</title>
<path style="fill:none;stroke:midnightblue;" d="M476,-56C490,-48 511,-35 528,-25"/>
<polygon style="fill:midnightblue;stroke:midnightblue;" points="529.958,-27.916 537,-20 526.559,-21.7969 529.958,-27.916"/>
</g>
<!-- Node7 -->
<g id="node13" class="node"><title>Node7</title>
<polygon style="fill:white;stroke:#bfbfbf;" points="696,-0 696,-20 800,-20 800,-0 696,-0"/>
<text text-anchor="middle" x="748" y="-7" style="font-family:Arial;font-size:10.00;">ltr/utility/numerical.h</text>
</g>
<!-- Node1&#45;&gt;Node7 -->
<g id="edge12" class="edge"><title>Node1&#45;&gt;Node7</title>
<path style="fill:none;stroke:midnightblue;" d="M511,-56C560,-47 634,-32 686,-22"/>
<polygon style="fill:midnightblue;stroke:midnightblue;" points="686.881,-25.3933 696,-20 685.508,-18.5292 686.881,-25.3933"/>
</g>
<!-- Node8 -->
<g id="node15" class="node"><title>Node8</title>
<polygon style="fill:white;stroke:#bfbfbf;" points="818,-0 818,-20 915,-20 915,-0 818,-0"/>
<text text-anchor="middle" x="866" y="-7" style="font-family:Arial;font-size:10.00;">ltr/scorers/scorer.h</text>
</g>
<!-- Node1&#45;&gt;Node8 -->
<g id="edge14" class="edge"><title>Node1&#45;&gt;Node8</title>
<path style="fill:none;stroke:midnightblue;" d="M541,-56C610,-47 710,-35 808,-20"/>
<polygon style="fill:midnightblue;stroke:midnightblue;" points="808.398,-23.4778 818,-19 807.701,-16.5125 808.398,-23.4778"/>
</g>
<!-- Node9 -->
<g id="node17" class="node"><title>Node9</title>
<polygon style="fill:white;stroke:#bfbfbf;" points="932,-0 932,-20 1255,-20 1255,-0 932,-0"/>
<text text-anchor="middle" x="1093" y="-7" style="font-family:Arial;font-size:10.00;">ltr/learners/composition_learner/composition_scorer_weights_updater.h</text>
</g>
<!-- Node1&#45;&gt;Node9 -->
<g id="edge16" class="edge"><title>Node1&#45;&gt;Node9</title>
<path style="fill:none;stroke:midnightblue;" d="M572,-56C685,-46 855,-31 970,-21"/>
<polygon style="fill:midnightblue;stroke:midnightblue;" points="970.398,-24.4778 980,-20 969.701,-17.5125 970.398,-24.4778"/>
</g>
</g>
</svg>
