<?xml version="1.0" encoding="UTF-8" standalone="no"?>
<!DOCTYPE svg PUBLIC "-//W3C//DTD SVG 1.0//EN"
 "http://www.w3.org/TR/2001/REC-SVG-20010904/DTD/svg10.dtd" [
 <!ATTLIST svg xmlns:xlink CDATA #FIXED "http://www.w3.org/1999/xlink">
]>
<!-- Generated by Graphviz version 2.20.2 (Tue Mar &#160;2 19:03:41 UTC 2010)
     For user: (jenkins)  -->
<!-- Title: G Pages: 1 -->
<svg width="1397pt" height="420pt"
 viewBox="0.00 0.00 1397.00 420.00" xmlns="http://www.w3.org/2000/svg" xmlns:xlink="http://www.w3.org/1999/xlink">
<g id="graph0" class="graph" transform="scale(1 1) rotate(0) translate(4 416)">
<title>G</title>
<polygon style="fill:white;stroke:white;" points="-4,4 -4,-416 1393,-416 1393,4 -4,4"/>
<!-- Node1 -->
<g id="node1" class="node"><title>Node1</title>
<polygon style="fill:#bfbfbf;stroke:black;" points="702,-392 702,-412 861,-412 861,-392 702,-392"/>
<text text-anchor="middle" x="781" y="-399" style="font-family:Arial;font-size:10.00;">ltr/measures/average_precision.h</text>
</g>
<!-- Node2 -->
<g id="node3" class="node"><title>Node2</title>
<polygon style="fill:white;stroke:#bfbfbf;" points="725,-0 725,-20 765,-20 765,-0 725,-0"/>
<text text-anchor="middle" x="745" y="-7" style="font-family:Arial;font-size:10.00;">string</text>
</g>
<!-- Node1&#45;&gt;Node2 -->
<g id="edge2" class="edge"><title>Node1&#45;&gt;Node2</title>
<path style="fill:none;stroke:midnightblue;" d="M861,-395C1026,-381 1389,-343 1389,-290 1389,-290 1389,-290 1389,-122 1389,-84 1369,-73 1336,-56 1286,-30 889,-15 775,-11"/>
<polygon style="fill:midnightblue;stroke:midnightblue;" points="775,-7.5001 765,-11 775,-14.5001 775,-7.5001"/>
</g>
<!-- Node3 -->
<g id="node5" class="node"><title>Node3</title>
<a xlink:href="measure_8h.html" target="_top" xlink:title="ltr/measures/measure.h">
<polygon style="fill:white;stroke:black;" points="722,-336 722,-356 841,-356 841,-336 722,-336"/>
<text text-anchor="middle" x="781" y="-343" style="font-family:Arial;font-size:10.00;">ltr/measures/measure.h</text>
</a>
</g>
<!-- Node1&#45;&gt;Node3 -->
<g id="edge4" class="edge"><title>Node1&#45;&gt;Node3</title>
<path style="fill:none;stroke:midnightblue;" d="M781,-392C781,-385 781,-375 781,-366"/>
<polygon style="fill:midnightblue;stroke:midnightblue;" points="784.5,-366 781,-356 777.5,-366 784.5,-366"/>
</g>
<!-- Node16 -->
<g id="node37" class="node"><title>Node16</title>
<a xlink:href="object__list_8h.html" target="_top" xlink:title="ltr/data/object_list.h">
<polygon style="fill:white;stroke:black;" points="425,-168 425,-188 527,-188 527,-168 425,-168"/>
<text text-anchor="middle" x="476" y="-175" style="font-family:Arial;font-size:10.00;">ltr/data/object_list.h</text>
</a>
</g>
<!-- Node1&#45;&gt;Node16 -->
<g id="edge152" class="edge"><title>Node1&#45;&gt;Node16</title>
<path style="fill:none;stroke:midnightblue;" d="M702,-396C524,-383 107,-347 65,-300 60,-293 60,-286 65,-280 94,-245 221,-254 264,-244 326,-228 396,-206 438,-191"/>
<polygon style="fill:midnightblue;stroke:midnightblue;" points="439.427,-194.226 448,-188 437.416,-187.521 439.427,-194.226"/>
</g>
<!-- Node3&#45;&gt;Node2 -->
<g id="edge14" class="edge"><title>Node3&#45;&gt;Node2</title>
<path style="fill:none;stroke:midnightblue;" d="M841,-343C967,-336 1249,-319 1288,-300 1324,-282 1351,-274 1351,-234 1351,-234 1351,-234 1351,-122 1351,-86 1338,-73 1308,-56 1262,-28 885,-14 775,-11"/>
<polygon style="fill:midnightblue;stroke:midnightblue;" points="775,-7.5001 765,-11 775,-14.5001 775,-7.5001"/>
</g>
<!-- Node4 -->
<g id="node7" class="node"><title>Node4</title>
<polygon style="fill:white;stroke:#bfbfbf;" points="1173,-56 1173,-76 1247,-76 1247,-56 1173,-56"/>
<text text-anchor="middle" x="1210" y="-63" style="font-family:Arial;font-size:10.00;">logog/logog.h</text>
</g>
<!-- Node3&#45;&gt;Node4 -->
<g id="edge6" class="edge"><title>Node3&#45;&gt;Node4</title>
<path style="fill:none;stroke:midnightblue;" d="M841,-345C966,-341 1241,-331 1270,-300 1327,-237 1256,-127 1224,-84"/>
<polygon style="fill:midnightblue;stroke:midnightblue;" points="1226.8,-81.9 1218,-76 1221.2,-86.1 1226.8,-81.9"/>
</g>
<!-- Node5 -->
<g id="node9" class="node"><title>Node5</title>
<polygon style="fill:white;stroke:#bfbfbf;" points="74,-280 74,-300 188,-300 188,-280 74,-280"/>
<text text-anchor="middle" x="131" y="-287" style="font-family:Arial;font-size:10.00;">boost/lexical_cast.hpp</text>
</g>
<!-- Node3&#45;&gt;Node5 -->
<g id="edge8" class="edge"><title>Node3&#45;&gt;Node5</title>
<path style="fill:none;stroke:midnightblue;" d="M722,-342C617,-336 392,-321 202,-300 201,-300 199,-299 198,-299"/>
<polygon style="fill:midnightblue;stroke:midnightblue;" points="198.299,-295.512 188,-298 197.602,-302.478 198.299,-295.512"/>
</g>
<!-- Node6 -->
<g id="node11" class="node"><title>Node6</title>
<polygon style="fill:white;stroke:#bfbfbf;" points="0,-0 0,-20 56,-20 56,-0 0,-0"/>
<text text-anchor="middle" x="28" y="-7" style="font-family:Arial;font-size:10.00;">algorithm</text>
</g>
<!-- Node3&#45;&gt;Node6 -->
<g id="edge10" class="edge"><title>Node3&#45;&gt;Node6</title>
<path style="fill:none;stroke:midnightblue;" d="M722,-344C555,-339 90,-322 65,-300 -11,-228 11,-83 23,-30"/>
<polygon style="fill:midnightblue;stroke:midnightblue;" points="26.4708,-30.4922 25,-20 19.6067,-29.1194 26.4708,-30.4922"/>
</g>
<!-- Node7 -->
<g id="node13" class="node"><title>Node7</title>
<polygon style="fill:white;stroke:#bfbfbf;" points="773,-56 773,-76 832,-76 832,-56 773,-56"/>
<text text-anchor="middle" x="802" y="-63" style="font-family:Arial;font-size:10.00;">stdexcept</text>
</g>
<!-- Node3&#45;&gt;Node7 -->
<g id="edge12" class="edge"><title>Node3&#45;&gt;Node7</title>
<path style="fill:none;stroke:midnightblue;" d="M794,-336C822,-313 889,-255 912,-188 923,-155 915,-138 893,-112 880,-96 860,-85 842,-78"/>
<polygon style="fill:midnightblue;stroke:midnightblue;" points="842.585,-74.4643 832,-74 839.985,-80.9636 842.585,-74.4643"/>
</g>
<!-- Node8 -->
<g id="node16" class="node"><title>Node8</title>
<a xlink:href="object_8h.html" target="_top" xlink:title="ltr/data/object.h">
<polygon style="fill:white;stroke:black;" points="349,-112 349,-132 433,-132 433,-112 349,-112"/>
<text text-anchor="middle" x="391" y="-119" style="font-family:Arial;font-size:10.00;">ltr/data/object.h</text>
</a>
</g>
<!-- Node3&#45;&gt;Node8 -->
<g id="edge16" class="edge"><title>Node3&#45;&gt;Node8</title>
<path style="fill:none;stroke:midnightblue;" d="M722,-342C670,-337 592,-325 529,-300 460,-272 434,-256 404,-188 398,-173 395,-156 393,-142"/>
<polygon style="fill:midnightblue;stroke:midnightblue;" points="396.478,-141.602 392,-132 389.512,-142.299 396.478,-141.602"/>
</g>
<!-- Node12 -->
<g id="node26" class="node"><title>Node12</title>
<a xlink:href="printable_8h.html" target="_top" xlink:title="ltr/interfaces/printable.h">
<polygon style="fill:white;stroke:black;" points="444,-56 444,-76 561,-76 561,-56 444,-56"/>
<text text-anchor="middle" x="502" y="-63" style="font-family:Arial;font-size:10.00;">ltr/interfaces/printable.h</text>
</a>
</g>
<!-- Node3&#45;&gt;Node12 -->
<g id="edge138" class="edge"><title>Node3&#45;&gt;Node12</title>
<path style="fill:none;stroke:midnightblue;" d="M722,-341C647,-334 523,-320 482,-300 394,-257 371,-225 340,-132 338,-123 335,-119 340,-112 352,-96 395,-85 434,-77"/>
<polygon style="fill:midnightblue;stroke:midnightblue;" points="434.881,-80.3933 444,-75 433.508,-73.5292 434.881,-80.3933"/>
</g>
<!-- Node13 -->
<g id="node30" class="node"><title>Node13</title>
<a xlink:href="shared__ptr_8h.html" target="_top" xlink:title="ltr/utility/shared_ptr.h">
<polygon style="fill:white;stroke:black;" points="216,-56 216,-76 323,-76 323,-56 216,-56"/>
<text text-anchor="middle" x="269" y="-63" style="font-family:Arial;font-size:10.00;">ltr/utility/shared_ptr.h</text>
</a>
</g>
<!-- Node3&#45;&gt;Node13 -->
<g id="edge150" class="edge"><title>Node3&#45;&gt;Node13</title>
<path style="fill:none;stroke:midnightblue;" d="M722,-341C570,-327 178,-288 140,-244 113,-210 77,-233 183,-112 195,-98 213,-87 228,-80"/>
<polygon style="fill:midnightblue;stroke:midnightblue;" points="230.015,-82.9636 238,-76 227.415,-76.4643 230.015,-82.9636"/>
</g>
<!-- Node3&#45;&gt;Node16 -->
<g id="edge42" class="edge"><title>Node3&#45;&gt;Node16</title>
<path style="fill:none;stroke:midnightblue;" d="M729,-336C651,-320 507,-285 477,-244 467,-230 468,-212 471,-198"/>
<polygon style="fill:midnightblue;stroke:midnightblue;" points="474.471,-198.492 473,-188 467.607,-197.119 474.471,-198.492"/>
</g>
<!-- Node17 -->
<g id="node45" class="node"><title>Node17</title>
<a xlink:href="object__pair_8h.html" target="_top" xlink:title="ltr/data/object_pair.h">
<polygon style="fill:white;stroke:black;" points="583,-168 583,-188 687,-188 687,-168 583,-168"/>
<text text-anchor="middle" x="635" y="-175" style="font-family:Arial;font-size:10.00;">ltr/data/object_pair.h</text>
</a>
</g>
<!-- Node3&#45;&gt;Node17 -->
<g id="edge56" class="edge"><title>Node3&#45;&gt;Node17</title>
<path style="fill:none;stroke:midnightblue;" d="M780,-336C778,-313 770,-256 739,-224 725,-209 704,-198 686,-191"/>
<polygon style="fill:midnightblue;stroke:midnightblue;" points="686.584,-187.521 676,-188 684.573,-194.226 686.584,-187.521"/>
</g>
<!-- Node18 -->
<g id="node53" class="node"><title>Node18</title>
<a xlink:href="data__set_8h.html" target="_top" xlink:title="ltr/data/data_set.h">
<polygon style="fill:white;stroke:black;" points="659,-280 659,-300 754,-300 754,-280 659,-280"/>
<text text-anchor="middle" x="706" y="-287" style="font-family:Arial;font-size:10.00;">ltr/data/data_set.h</text>
</a>
</g>
<!-- Node3&#45;&gt;Node18 -->
<g id="edge70" class="edge"><title>Node3&#45;&gt;Node18</title>
<path style="fill:none;stroke:midnightblue;" d="M768,-336C757,-328 741,-316 728,-306"/>
<polygon style="fill:midnightblue;stroke:midnightblue;" points="730.1,-303.2 720,-300 725.9,-308.8 730.1,-303.2"/>
</g>
<!-- Node21 -->
<g id="node68" class="node"><title>Node21</title>
<a xlink:href="parameterized_8h.html" target="_top" xlink:title="ltr/interfaces/parameterized.h">
<polygon style="fill:white;stroke:black;" points="747,-168 747,-188 889,-188 889,-168 747,-168"/>
<text text-anchor="middle" x="818" y="-175" style="font-family:Arial;font-size:10.00;">ltr/interfaces/parameterized.h</text>
</a>
</g>
<!-- Node3&#45;&gt;Node21 -->
<g id="edge140" class="edge"><title>Node3&#45;&gt;Node21</title>
<path style="fill:none;stroke:midnightblue;" d="M788,-336C800,-318 824,-280 833,-244 837,-228 832,-211 827,-197"/>
<polygon style="fill:midnightblue;stroke:midnightblue;" points="830.26,-195.717 823,-188 823.863,-198.56 830.26,-195.717"/>
</g>
<!-- Node22 -->
<g id="node72" class="node"><title>Node22</title>
<a xlink:href="parameters__container_8h.html" target="_top" xlink:title="ltr/parameters_container/parameters_container.h">
<polygon style="fill:white;stroke:black;" points="983,-112 983,-132 1208,-132 1208,-112 983,-112"/>
<text text-anchor="middle" x="1095" y="-119" style="font-family:Arial;font-size:10.00;">ltr/parameters_container/parameters_container.h</text>
</a>
</g>
<!-- Node3&#45;&gt;Node22 -->
<g id="edge142" class="edge"><title>Node3&#45;&gt;Node22</title>
<path style="fill:none;stroke:midnightblue;" d="M841,-337C929,-323 1087,-291 1116,-244 1135,-211 1118,-166 1106,-141"/>
<polygon style="fill:midnightblue;stroke:midnightblue;" points="1108.92,-139.042 1101,-132 1102.8,-142.441 1108.92,-139.042"/>
</g>
<!-- Node27 -->
<g id="node93" class="node"><title>Node27</title>
<a xlink:href="aliaser_8h.html" target="_top" xlink:title="ltr/interfaces/aliaser.h">
<polygon style="fill:white;stroke:black;" points="999,-224 999,-244 1107,-244 1107,-224 999,-224"/>
<text text-anchor="middle" x="1053" y="-231" style="font-family:Arial;font-size:10.00;">ltr/interfaces/aliaser.h</text>
</a>
</g>
<!-- Node3&#45;&gt;Node27 -->
<g id="edge136" class="edge"><title>Node3&#45;&gt;Node27</title>
<path style="fill:none;stroke:midnightblue;" d="M841,-341C883,-336 940,-324 985,-300 1007,-287 1026,-267 1039,-252"/>
<polygon style="fill:midnightblue;stroke:midnightblue;" points="1041.8,-254.1 1045,-244 1036.2,-249.9 1041.8,-254.1"/>
</g>
<!-- Node28 -->
<g id="node100" class="node"><title>Node28</title>
<a xlink:href="numerical_8h.html" target="_top" xlink:title="ltr/utility/numerical.h">
<polygon style="fill:white;stroke:black;" points="1157,-280 1157,-300 1261,-300 1261,-280 1157,-280"/>
<text text-anchor="middle" x="1209" y="-287" style="font-family:Arial;font-size:10.00;">ltr/utility/numerical.h</text>
</a>
</g>
<!-- Node3&#45;&gt;Node28 -->
<g id="edge144" class="edge"><title>Node3&#45;&gt;Node28</title>
<path style="fill:none;stroke:midnightblue;" d="M841,-339C913,-330 1037,-315 1143,-300 1144,-300 1146,-299 1147,-299"/>
<polygon style="fill:midnightblue;stroke:midnightblue;" points="1147.4,-302.478 1157,-298 1146.7,-295.512 1147.4,-302.478"/>
</g>
<!-- Node8&#45;&gt;Node2 -->
<g id="edge24" class="edge"><title>Node8&#45;&gt;Node2</title>
<path style="fill:none;stroke:midnightblue;" d="M395,-112C401,-97 414,-69 435,-56 481,-27 646,-15 715,-12"/>
<polygon style="fill:midnightblue;stroke:midnightblue;" points="715.398,-15.4778 725,-11 714.701,-8.5125 715.398,-15.4778"/>
</g>
<!-- Node8&#45;&gt;Node7 -->
<g id="edge22" class="edge"><title>Node8&#45;&gt;Node7</title>
<path style="fill:none;stroke:midnightblue;" d="M433,-116C513,-105 685,-82 763,-71"/>
<polygon style="fill:midnightblue;stroke:midnightblue;" points="763.398,-74.4778 773,-70 762.701,-67.5125 763.398,-74.4778"/>
</g>
<!-- Node9 -->
<g id="node18" class="node"><title>Node9</title>
<polygon style="fill:white;stroke:#bfbfbf;" points="136,-56 136,-76 171,-76 171,-56 136,-56"/>
<text text-anchor="middle" x="153" y="-63" style="font-family:Arial;font-size:10.00;">map</text>
</g>
<!-- Node8&#45;&gt;Node9 -->
<g id="edge18" class="edge"><title>Node8&#45;&gt;Node9</title>
<path style="fill:none;stroke:midnightblue;" d="M349,-112C301,-101 223,-82 181,-72"/>
<polygon style="fill:midnightblue;stroke:midnightblue;" points="181.492,-68.5292 171,-70 180.119,-75.3933 181.492,-68.5292"/>
</g>
<!-- Node10 -->
<g id="node20" class="node"><title>Node10</title>
<polygon style="fill:white;stroke:#bfbfbf;" points="436,-0 436,-20 487,-20 487,-0 436,-0"/>
<text text-anchor="middle" x="461" y="-7" style="font-family:Arial;font-size:10.00;">ostream</text>
</g>
<!-- Node8&#45;&gt;Node10 -->
<g id="edge20" class="edge"><title>Node8&#45;&gt;Node10</title>
<path style="fill:none;stroke:midnightblue;" d="M391,-112C390,-98 392,-73 402,-56 410,-43 422,-33 433,-26"/>
<polygon style="fill:midnightblue;stroke:midnightblue;" points="435.621,-28.4592 442,-20 431.738,-22.6349 435.621,-28.4592"/>
</g>
<!-- Node11 -->
<g id="node24" class="node"><title>Node11</title>
<polygon style="fill:white;stroke:#bfbfbf;" points="578,-56 578,-76 620,-76 620,-56 578,-56"/>
<text text-anchor="middle" x="599" y="-63" style="font-family:Arial;font-size:10.00;">vector</text>
</g>
<!-- Node8&#45;&gt;Node11 -->
<g id="edge26" class="edge"><title>Node8&#45;&gt;Node11</title>
<path style="fill:none;stroke:midnightblue;" d="M433,-112C467,-104 516,-92 568,-76"/>
<polygon style="fill:midnightblue;stroke:midnightblue;" points="569.427,-79.2259 578,-73 567.416,-72.5212 569.427,-79.2259"/>
</g>
<!-- Node8&#45;&gt;Node12 -->
<g id="edge28" class="edge"><title>Node8&#45;&gt;Node12</title>
<path style="fill:none;stroke:midnightblue;" d="M411,-112C428,-103 453,-90 473,-81"/>
<polygon style="fill:midnightblue;stroke:midnightblue;" points="474.958,-83.916 482,-76 471.559,-77.7969 474.958,-83.916"/>
</g>
<!-- Node8&#45;&gt;Node13 -->
<g id="edge34" class="edge"><title>Node8&#45;&gt;Node13</title>
<path style="fill:none;stroke:midnightblue;" d="M369,-112C350,-103 322,-90 300,-80"/>
<polygon style="fill:midnightblue;stroke:midnightblue;" points="301.56,-76.8631 291,-76 298.717,-83.2598 301.56,-76.8631"/>
</g>
<!-- Node12&#45;&gt;Node2 -->
<g id="edge32" class="edge"><title>Node12&#45;&gt;Node2</title>
<path style="fill:none;stroke:midnightblue;" d="M545,-56C594,-45 672,-27 715,-17"/>
<polygon style="fill:midnightblue;stroke:midnightblue;" points="715.881,-20.3933 725,-15 714.508,-13.5292 715.881,-20.3933"/>
</g>
<!-- Node12&#45;&gt;Node10 -->
<g id="edge30" class="edge"><title>Node12&#45;&gt;Node10</title>
<path style="fill:none;stroke:midnightblue;" d="M495,-56C490,-48 481,-38 475,-28"/>
<polygon style="fill:midnightblue;stroke:midnightblue;" points="477.8,-25.9 469,-20 472.2,-30.1 477.8,-25.9"/>
</g>
<!-- Node13&#45;&gt;Node6 -->
<g id="edge36" class="edge"><title>Node13&#45;&gt;Node6</title>
<path style="fill:none;stroke:midnightblue;" d="M226,-56C181,-46 110,-29 66,-19"/>
<polygon style="fill:midnightblue;stroke:midnightblue;" points="66.4922,-15.5292 56,-17 65.1194,-22.3933 66.4922,-15.5292"/>
</g>
<!-- Node14 -->
<g id="node33" class="node"><title>Node14</title>
<polygon style="fill:white;stroke:#bfbfbf;" points="302,-0 302,-20 409,-20 409,-0 302,-0"/>
<text text-anchor="middle" x="355" y="-7" style="font-family:Arial;font-size:10.00;">boost/shared_ptr.hpp</text>
</g>
<!-- Node13&#45;&gt;Node14 -->
<g id="edge38" class="edge"><title>Node13&#45;&gt;Node14</title>
<path style="fill:none;stroke:midnightblue;" d="M284,-56C297,-48 316,-35 331,-26"/>
<polygon style="fill:midnightblue;stroke:midnightblue;" points="333.1,-28.8 339,-20 328.9,-23.2 333.1,-28.8"/>
</g>
<!-- Node15 -->
<g id="node35" class="node"><title>Node15</title>
<polygon style="fill:white;stroke:#bfbfbf;" points="94,-0 94,-20 285,-20 285,-0 94,-0"/>
<text text-anchor="middle" x="189" y="-7" style="font-family:Arial;font-size:10.00;">boost/smart_ptr/detail/operator_bool.hpp</text>
</g>
<!-- Node13&#45;&gt;Node15 -->
<g id="edge40" class="edge"><title>Node13&#45;&gt;Node15</title>
<path style="fill:none;stroke:midnightblue;" d="M255,-56C244,-48 226,-36 212,-26"/>
<polygon style="fill:midnightblue;stroke:midnightblue;" points="214.1,-23.2 204,-20 209.9,-28.8 214.1,-23.2"/>
</g>
<!-- Node16&#45;&gt;Node2 -->
<g id="edge46" class="edge"><title>Node16&#45;&gt;Node2</title>
<path style="fill:none;stroke:midnightblue;" d="M492,-168C537,-140 666,-59 720,-25"/>
<polygon style="fill:midnightblue;stroke:midnightblue;" points="721.958,-27.916 729,-20 718.559,-21.7969 721.958,-27.916"/>
</g>
<!-- Node16&#45;&gt;Node7 -->
<g id="edge44" class="edge"><title>Node16&#45;&gt;Node7</title>
<path style="fill:none;stroke:midnightblue;" d="M527,-168C566,-161 619,-148 665,-132 704,-118 748,-95 775,-81"/>
<polygon style="fill:midnightblue;stroke:midnightblue;" points="776.958,-83.916 784,-76 773.559,-77.7969 776.958,-83.916"/>
</g>
<!-- Node16&#45;&gt;Node8 -->
<g id="edge50" class="edge"><title>Node16&#45;&gt;Node8</title>
<path style="fill:none;stroke:midnightblue;" d="M461,-168C448,-160 430,-147 415,-138"/>
<polygon style="fill:midnightblue;stroke:midnightblue;" points="416.262,-134.635 406,-132 412.379,-140.459 416.262,-134.635"/>
</g>
<!-- Node16&#45;&gt;Node11 -->
<g id="edge48" class="edge"><title>Node16&#45;&gt;Node11</title>
<path style="fill:none;stroke:midnightblue;" d="M487,-168C509,-148 554,-107 581,-83"/>
<polygon style="fill:midnightblue;stroke:midnightblue;" points="583.404,-85.546 588,-76 578.454,-80.5962 583.404,-85.546"/>
</g>
<!-- Node16&#45;&gt;Node12 -->
<g id="edge52" class="edge"><title>Node16&#45;&gt;Node12</title>
<path style="fill:none;stroke:midnightblue;" d="M478,-168C482,-149 492,-110 498,-86"/>
<polygon style="fill:midnightblue;stroke:midnightblue;" points="501.471,-86.4922 500,-76 494.607,-85.1194 501.471,-86.4922"/>
</g>
<!-- Node16&#45;&gt;Node13 -->
<g id="edge54" class="edge"><title>Node16&#45;&gt;Node13</title>
<path style="fill:none;stroke:midnightblue;" d="M432,-168C404,-160 369,-149 340,-132 318,-119 298,-98 285,-84"/>
<polygon style="fill:midnightblue;stroke:midnightblue;" points="287.219,-81.221 278,-76 281.951,-85.8306 287.219,-81.221"/>
</g>
<!-- Node17&#45;&gt;Node2 -->
<g id="edge60" class="edge"><title>Node17&#45;&gt;Node2</title>
<path style="fill:none;stroke:midnightblue;" d="M642,-168C659,-140 710,-64 733,-28"/>
<polygon style="fill:midnightblue;stroke:midnightblue;" points="735.668,-30.335 738,-20 729.732,-26.625 735.668,-30.335"/>
</g>
<!-- Node17&#45;&gt;Node7 -->
<g id="edge58" class="edge"><title>Node17&#45;&gt;Node7</title>
<path style="fill:none;stroke:midnightblue;" d="M666,-168C688,-160 718,-148 741,-132 759,-118 777,-98 788,-84"/>
<polygon style="fill:midnightblue;stroke:midnightblue;" points="791.049,-85.8306 795,-76 785.781,-81.221 791.049,-85.8306"/>
</g>
<!-- Node17&#45;&gt;Node8 -->
<g id="edge64" class="edge"><title>Node17&#45;&gt;Node8</title>
<path style="fill:none;stroke:midnightblue;" d="M591,-168C549,-159 487,-144 443,-134"/>
<polygon style="fill:midnightblue;stroke:midnightblue;" points="443.492,-130.529 433,-132 442.119,-137.393 443.492,-130.529"/>
</g>
<!-- Node17&#45;&gt;Node11 -->
<g id="edge62" class="edge"><title>Node17&#45;&gt;Node11</title>
<path style="fill:none;stroke:midnightblue;" d="M632,-168C626,-149 613,-110 605,-86"/>
<polygon style="fill:midnightblue;stroke:midnightblue;" points="608.226,-84.5725 602,-76 601.521,-86.584 608.226,-84.5725"/>
</g>
<!-- Node17&#45;&gt;Node12 -->
<g id="edge66" class="edge"><title>Node17&#45;&gt;Node12</title>
<path style="fill:none;stroke:midnightblue;" d="M623,-168C600,-148 550,-106 522,-83"/>
<polygon style="fill:midnightblue;stroke:midnightblue;" points="523.831,-79.9511 514,-76 519.221,-85.2191 523.831,-79.9511"/>
</g>
<!-- Node17&#45;&gt;Node13 -->
<g id="edge68" class="edge"><title>Node17&#45;&gt;Node13</title>
<path style="fill:none;stroke:midnightblue;" d="M608,-168C570,-154 501,-130 442,-112 402,-99 355,-87 321,-79"/>
<polygon style="fill:midnightblue;stroke:midnightblue;" points="321.584,-75.5212 311,-76 319.573,-82.2259 321.584,-75.5212"/>
</g>
<!-- Node18&#45;&gt;Node2 -->
<g id="edge76" class="edge"><title>Node18&#45;&gt;Node2</title>
<path style="fill:none;stroke:midnightblue;" d="M742,-280C776,-271 826,-257 870,-244 1024,-197 1085,-227 1216,-132 1246,-109 1281,-84 1256,-56 1223,-19 880,-12 775,-10"/>
<polygon style="fill:midnightblue;stroke:midnightblue;" points="775,-6.5001 765,-10 775,-13.5001 775,-6.5001"/>
</g>
<!-- Node18&#45;&gt;Node7 -->
<g id="edge74" class="edge"><title>Node18&#45;&gt;Node7</title>
<path style="fill:none;stroke:midnightblue;" d="M754,-281C802,-269 872,-243 898,-188 917,-145 864,-103 830,-81"/>
<polygon style="fill:midnightblue;stroke:midnightblue;" points="831.441,-77.7969 821,-76 828.042,-83.916 831.441,-77.7969"/>
</g>
<!-- Node18&#45;&gt;Node8 -->
<g id="edge80" class="edge"><title>Node18&#45;&gt;Node8</title>
<path style="fill:none;stroke:midnightblue;" d="M659,-283C601,-275 508,-259 477,-244 445,-227 437,-218 416,-188 406,-174 400,-156 396,-142"/>
<polygon style="fill:midnightblue;stroke:midnightblue;" points="399.226,-140.573 393,-132 392.521,-142.584 399.226,-140.573"/>
</g>
<!-- Node18&#45;&gt;Node11 -->
<g id="edge78" class="edge"><title>Node18&#45;&gt;Node11</title>
<path style="fill:none;stroke:midnightblue;" d="M717,-280C729,-267 746,-245 739,-224 717,-161 655,-107 622,-82"/>
<polygon style="fill:midnightblue;stroke:midnightblue;" points="624.1,-79.2 614,-76 619.9,-84.8 624.1,-79.2"/>
</g>
<!-- Node18&#45;&gt;Node16 -->
<g id="edge82" class="edge"><title>Node18&#45;&gt;Node16</title>
<path style="fill:none;stroke:midnightblue;" d="M659,-285C603,-279 515,-266 492,-244 480,-232 476,-213 475,-198"/>
<polygon style="fill:midnightblue;stroke:midnightblue;" points="478.5,-198 475,-188 471.5,-198 478.5,-198"/>
</g>
<!-- Node18&#45;&gt;Node17 -->
<g id="edge84" class="edge"><title>Node18&#45;&gt;Node17</title>
<path style="fill:none;stroke:midnightblue;" d="M713,-280C722,-266 734,-241 724,-224 715,-209 700,-199 684,-192"/>
<polygon style="fill:midnightblue;stroke:midnightblue;" points="685.56,-188.863 675,-188 682.717,-195.26 685.56,-188.863"/>
</g>
<!-- Node19 -->
<g id="node55" class="node"><title>Node19</title>
<polygon style="fill:white;stroke:#bfbfbf;" points="665,-224 665,-244 716,-244 716,-224 665,-224"/>
<text text-anchor="middle" x="690" y="-231" style="font-family:Arial;font-size:10.00;">sstream</text>
</g>
<!-- Node18&#45;&gt;Node19 -->
<g id="edge72" class="edge"><title>Node18&#45;&gt;Node19</title>
<path style="fill:none;stroke:midnightblue;" d="M703,-280C702,-273 699,-263 696,-254"/>
<polygon style="fill:midnightblue;stroke:midnightblue;" points="699.226,-252.573 693,-244 692.521,-254.584 699.226,-252.573"/>
</g>
<!-- Node20 -->
<g id="node63" class="node"><title>Node20</title>
<a xlink:href="feature__info_8h.html" target="_top" xlink:title="ltr/data/feature_info.h">
<polygon style="fill:white;stroke:black;" points="149,-224 149,-244 256,-244 256,-224 149,-224"/>
<text text-anchor="middle" x="202" y="-231" style="font-family:Arial;font-size:10.00;">ltr/data/feature_info.h</text>
</a>
</g>
<!-- Node18&#45;&gt;Node20 -->
<g id="edge86" class="edge"><title>Node18&#45;&gt;Node20</title>
<path style="fill:none;stroke:midnightblue;" d="M659,-285C568,-275 369,-253 266,-241"/>
<polygon style="fill:midnightblue;stroke:midnightblue;" points="266.299,-237.512 256,-240 265.602,-244.478 266.299,-237.512"/>
</g>
<!-- Node26 -->
<g id="node86" class="node"><title>Node26</title>
<a xlink:href="per__object__accessor_8h.html" target="_top" xlink:title="ltr/data/per_object_accessor.h">
<polygon style="fill:white;stroke:black;" points="501,-224 501,-244 648,-244 648,-224 501,-224"/>
<text text-anchor="middle" x="574" y="-231" style="font-family:Arial;font-size:10.00;">ltr/data/per_object_accessor.h</text>
</a>
</g>
<!-- Node18&#45;&gt;Node26 -->
<g id="edge120" class="edge"><title>Node18&#45;&gt;Node26</title>
<path style="fill:none;stroke:midnightblue;" d="M682,-280C661,-271 631,-258 608,-248"/>
<polygon style="fill:midnightblue;stroke:midnightblue;" points="608.585,-244.464 598,-244 605.985,-250.964 608.585,-244.464"/>
</g>
<!-- Node18&#45;&gt;Node27 -->
<g id="edge132" class="edge"><title>Node18&#45;&gt;Node27</title>
<path style="fill:none;stroke:midnightblue;" d="M754,-282C816,-272 921,-256 989,-245"/>
<polygon style="fill:midnightblue;stroke:midnightblue;" points="989.881,-248.393 999,-243 988.508,-241.529 989.881,-248.393"/>
</g>
<!-- Node20&#45;&gt;Node2 -->
<g id="edge90" class="edge"><title>Node20&#45;&gt;Node2</title>
<path style="fill:none;stroke:midnightblue;" d="M191,-224C160,-194 79,-107 127,-56 147,-34 594,-15 715,-11"/>
<polygon style="fill:midnightblue;stroke:midnightblue;" points="715,-14.5001 725,-11 715,-7.5001 715,-14.5001"/>
</g>
<!-- Node20&#45;&gt;Node9 -->
<g id="edge88" class="edge"><title>Node20&#45;&gt;Node9</title>
<path style="fill:none;stroke:midnightblue;" d="M187,-224C176,-215 162,-203 155,-188 141,-155 145,-111 149,-86"/>
<polygon style="fill:midnightblue;stroke:midnightblue;" points="152.471,-86.4922 151,-76 145.607,-85.1194 152.471,-86.4922"/>
</g>
<!-- Node20&#45;&gt;Node11 -->
<g id="edge92" class="edge"><title>Node20&#45;&gt;Node11</title>
<path style="fill:none;stroke:midnightblue;" d="M210,-224C229,-200 281,-139 340,-112 431,-69 467,-98 568,-75"/>
<polygon style="fill:midnightblue;stroke:midnightblue;" points="568.881,-78.3933 578,-73 567.508,-71.5292 568.881,-78.3933"/>
</g>
<!-- Node20&#45;&gt;Node13 -->
<g id="edge118" class="edge"><title>Node20&#45;&gt;Node13</title>
<path style="fill:none;stroke:midnightblue;" d="M198,-224C189,-202 173,-149 193,-112 201,-98 215,-88 229,-80"/>
<polygon style="fill:midnightblue;stroke:midnightblue;" points="230.283,-83.2598 238,-76 227.44,-76.8631 230.283,-83.2598"/>
</g>
<!-- Node20&#45;&gt;Node21 -->
<g id="edge94" class="edge"><title>Node20&#45;&gt;Node21</title>
<path style="fill:none;stroke:midnightblue;" d="M256,-229C364,-219 609,-197 737,-185"/>
<polygon style="fill:midnightblue;stroke:midnightblue;" points="737.398,-188.478 747,-184 736.701,-181.512 737.398,-188.478"/>
</g>
<!-- Node21&#45;&gt;Node2 -->
<g id="edge98" class="edge"><title>Node21&#45;&gt;Node2</title>
<path style="fill:none;stroke:midnightblue;" d="M812,-168C801,-150 778,-111 764,-76 758,-61 753,-43 749,-30"/>
<polygon style="fill:midnightblue;stroke:midnightblue;" points="752.393,-29.1194 747,-20 745.529,-30.4922 752.393,-29.1194"/>
</g>
<!-- Node21&#45;&gt;Node7 -->
<g id="edge96" class="edge"><title>Node21&#45;&gt;Node7</title>
<path style="fill:none;stroke:midnightblue;" d="M830,-168C844,-155 864,-132 855,-112 849,-99 839,-89 828,-82"/>
<polygon style="fill:midnightblue;stroke:midnightblue;" points="830.1,-79.2 820,-76 825.9,-84.8 830.1,-79.2"/>
</g>
<!-- Node21&#45;&gt;Node22 -->
<g id="edge100" class="edge"><title>Node21&#45;&gt;Node22</title>
<path style="fill:none;stroke:midnightblue;" d="M868,-168C915,-159 985,-144 1035,-134"/>
<polygon style="fill:midnightblue;stroke:midnightblue;" points="1035.88,-137.393 1045,-132 1034.51,-130.529 1035.88,-137.393"/>
</g>
<!-- Node22&#45;&gt;Node2 -->
<g id="edge108" class="edge"><title>Node22&#45;&gt;Node2</title>
<path style="fill:none;stroke:midnightblue;" d="M1024,-112C981,-105 925,-93 878,-76 860,-69 857,-64 840,-56 818,-45 793,-32 774,-23"/>
<polygon style="fill:midnightblue;stroke:midnightblue;" points="775.56,-19.8631 765,-19 772.717,-26.2598 775.56,-19.8631"/>
</g>
<!-- Node22&#45;&gt;Node4 -->
<g id="edge102" class="edge"><title>Node22&#45;&gt;Node4</title>
<path style="fill:none;stroke:midnightblue;" d="M1116,-112C1134,-103 1160,-90 1180,-81"/>
<polygon style="fill:midnightblue;stroke:midnightblue;" points="1181.96,-83.916 1189,-76 1178.56,-77.7969 1181.96,-83.916"/>
</g>
<!-- Node22&#45;&gt;Node7 -->
<g id="edge106" class="edge"><title>Node22&#45;&gt;Node7</title>
<path style="fill:none;stroke:midnightblue;" d="M1036,-112C985,-103 910,-90 845,-76 844,-76 843,-76 842,-75"/>
<polygon style="fill:midnightblue;stroke:midnightblue;" points="842.492,-71.5292 832,-73 841.119,-78.3933 842.492,-71.5292"/>
</g>
<!-- Node22&#45;&gt;Node12 -->
<g id="edge116" class="edge"><title>Node22&#45;&gt;Node12</title>
<path style="fill:none;stroke:midnightblue;" d="M983,-114C878,-106 718,-94 571,-76"/>
<polygon style="fill:midnightblue;stroke:midnightblue;" points="571.299,-72.5125 561,-75 570.602,-79.4778 571.299,-72.5125"/>
</g>
<!-- Node22&#45;&gt;Node13 -->
<g id="edge114" class="edge"><title>Node22&#45;&gt;Node13</title>
<path style="fill:none;stroke:midnightblue;" d="M983,-114C807,-102 473,-80 333,-71"/>
<polygon style="fill:midnightblue;stroke:midnightblue;" points="333.299,-67.5125 323,-70 332.602,-74.4778 333.299,-67.5125"/>
</g>
<!-- Node23 -->
<g id="node75" class="node"><title>Node23</title>
<polygon style="fill:white;stroke:#bfbfbf;" points="1127,-56 1127,-76 1156,-76 1156,-56 1127,-56"/>
<text text-anchor="middle" x="1141" y="-63" style="font-family:Arial;font-size:10.00;">list</text>
</g>
<!-- Node22&#45;&gt;Node23 -->
<g id="edge104" class="edge"><title>Node22&#45;&gt;Node23</title>
<path style="fill:none;stroke:midnightblue;" d="M1103,-112C1109,-104 1118,-94 1126,-84"/>
<polygon style="fill:midnightblue;stroke:midnightblue;" points="1128.8,-86.1 1132,-76 1123.2,-81.9 1128.8,-86.1"/>
</g>
<!-- Node24 -->
<g id="node79" class="node"><title>Node24</title>
<polygon style="fill:white;stroke:#bfbfbf;" points="887,-56 887,-76 964,-76 964,-56 887,-56"/>
<text text-anchor="middle" x="925" y="-63" style="font-family:Arial;font-size:10.00;">boost/any.hpp</text>
</g>
<!-- Node22&#45;&gt;Node24 -->
<g id="edge110" class="edge"><title>Node22&#45;&gt;Node24</title>
<path style="fill:none;stroke:midnightblue;" d="M1065,-112C1037,-103 996,-89 966,-79"/>
<polygon style="fill:midnightblue;stroke:midnightblue;" points="966.584,-75.5212 956,-76 964.573,-82.2259 966.584,-75.5212"/>
</g>
<!-- Node25 -->
<g id="node81" class="node"><title>Node25</title>
<polygon style="fill:white;stroke:#bfbfbf;" points="981,-56 981,-76 1110,-76 1110,-56 981,-56"/>
<text text-anchor="middle" x="1045" y="-63" style="font-family:Arial;font-size:10.00;">boost/unordered_map.hpp</text>
</g>
<!-- Node22&#45;&gt;Node25 -->
<g id="edge112" class="edge"><title>Node22&#45;&gt;Node25</title>
<path style="fill:none;stroke:midnightblue;" d="M1086,-112C1079,-104 1069,-93 1061,-84"/>
<polygon style="fill:midnightblue;stroke:midnightblue;" points="1063.22,-81.221 1054,-76 1057.95,-85.8306 1063.22,-81.221"/>
</g>
<!-- Node26&#45;&gt;Node8 -->
<g id="edge122" class="edge"><title>Node26&#45;&gt;Node8</title>
<path style="fill:none;stroke:midnightblue;" d="M571,-224C566,-209 554,-183 536,-168 521,-156 478,-143 443,-134"/>
<polygon style="fill:midnightblue;stroke:midnightblue;" points="443.492,-130.529 433,-132 442.119,-137.393 443.492,-130.529"/>
</g>
<!-- Node26&#45;&gt;Node13 -->
<g id="edge130" class="edge"><title>Node26&#45;&gt;Node13</title>
<path style="fill:none;stroke:midnightblue;" d="M516,-224C458,-211 370,-185 312,-132 298,-118 286,-99 279,-85"/>
<polygon style="fill:midnightblue;stroke:midnightblue;" points="281.916,-83.0418 274,-76 275.797,-86.4414 281.916,-83.0418"/>
</g>
<!-- Node26&#45;&gt;Node16 -->
<g id="edge126" class="edge"><title>Node26&#45;&gt;Node16</title>
<path style="fill:none;stroke:midnightblue;" d="M556,-224C541,-216 519,-203 503,-193"/>
<polygon style="fill:midnightblue;stroke:midnightblue;" points="504.441,-189.797 494,-188 501.042,-195.916 504.441,-189.797"/>
</g>
<!-- Node26&#45;&gt;Node17 -->
<g id="edge124" class="edge"><title>Node26&#45;&gt;Node17</title>
<path style="fill:none;stroke:midnightblue;" d="M585,-224C594,-216 606,-205 617,-195"/>
<polygon style="fill:midnightblue;stroke:midnightblue;" points="619.404,-197.546 624,-188 614.454,-192.596 619.404,-197.546"/>
</g>
<!-- Node26&#45;&gt;Node21 -->
<g id="edge128" class="edge"><title>Node26&#45;&gt;Node21</title>
<path style="fill:none;stroke:midnightblue;" d="M618,-224C659,-215 720,-200 764,-190"/>
<polygon style="fill:midnightblue;stroke:midnightblue;" points="764.881,-193.393 774,-188 763.508,-186.529 764.881,-193.393"/>
</g>
<!-- Node27&#45;&gt;Node2 -->
<g id="edge134" class="edge"><title>Node27&#45;&gt;Node2</title>
<path style="fill:none;stroke:midnightblue;" d="M1088,-224C1170,-199 1359,-132 1289,-56 1253,-17 885,-11 775,-10"/>
<polygon style="fill:midnightblue;stroke:midnightblue;" points="775,-6.5001 765,-10 775,-13.5001 775,-6.5001"/>
</g>
<!-- Node29 -->
<g id="node102" class="node"><title>Node29</title>
<polygon style="fill:white;stroke:#bfbfbf;" points="1219,-224 1219,-244 1262,-244 1262,-224 1219,-224"/>
<text text-anchor="middle" x="1240" y="-231" style="font-family:Arial;font-size:10.00;">cmath</text>
</g>
<!-- Node28&#45;&gt;Node29 -->
<g id="edge146" class="edge"><title>Node28&#45;&gt;Node29</title>
<path style="fill:none;stroke:midnightblue;" d="M1215,-280C1219,-273 1225,-262 1229,-253"/>
<polygon style="fill:midnightblue;stroke:midnightblue;" points="1232.2,-254.441 1234,-244 1226.08,-251.042 1232.2,-254.441"/>
</g>
<!-- Node30 -->
<g id="node104" class="node"><title>Node30</title>
<polygon style="fill:white;stroke:#bfbfbf;" points="1163,-224 1163,-244 1202,-244 1202,-224 1163,-224"/>
<text text-anchor="middle" x="1182" y="-231" style="font-family:Arial;font-size:10.00;">limits</text>
</g>
<!-- Node28&#45;&gt;Node30 -->
<g id="edge148" class="edge"><title>Node28&#45;&gt;Node30</title>
<path style="fill:none;stroke:midnightblue;" d="M1204,-280C1200,-273 1195,-262 1191,-253"/>
<polygon style="fill:midnightblue;stroke:midnightblue;" points="1194.26,-251.717 1187,-244 1187.86,-254.56 1194.26,-251.717"/>
</g>
</g>
</svg>
