<?xml version="1.0" encoding="UTF-8" standalone="no"?>
<!DOCTYPE svg PUBLIC "-//W3C//DTD SVG 1.0//EN"
 "http://www.w3.org/TR/2001/REC-SVG-20010904/DTD/svg10.dtd" [
 <!ATTLIST svg xmlns:xlink CDATA #FIXED "http://www.w3.org/1999/xlink">
]>
<!-- Generated by Graphviz version 2.20.2 (Tue Mar &#160;2 19:03:41 UTC 2010)
     For user: (jenkins)  -->
<!-- Title: G Pages: 1 -->
<svg width="574pt" height="84pt"
 viewBox="0.00 0.00 574.00 84.00" xmlns="http://www.w3.org/2000/svg" xmlns:xlink="http://www.w3.org/1999/xlink">
<g id="graph0" class="graph" transform="scale(1 1) rotate(0) translate(4 80)">
<title>G</title>
<polygon style="fill:white;stroke:white;" points="-4,4 -4,-80 570,-80 570,4 -4,4"/>
<!-- Node1 -->
<g id="node1" class="node"><title>Node1</title>
<polygon style="fill:#bfbfbf;stroke:black;" points="205,-56 205,-76 364,-76 364,-56 205,-56"/>
<text text-anchor="middle" x="284" y="-63" style="font-family:Arial;font-size:10.00;">ltr/measures/average_precision.h</text>
</g>
<!-- Node2 -->
<g id="node3" class="node"><title>Node2</title>
<a xlink:href="average__precision_8cc.html" target="_top" xlink:title="ltr/measures/average_precision.cc">
<polygon style="fill:white;stroke:black;" points="0,-0 0,-20 164,-20 164,-0 0,-0"/>
<text text-anchor="middle" x="82" y="-7" style="font-family:Arial;font-size:10.00;">ltr/measures/average_precision.cc</text>
</a>
</g>
<!-- Node1&#45;&gt;Node2 -->
<g id="edge2" class="edge"><title>Node1&#45;&gt;Node2</title>
<path style="fill:none;stroke:midnightblue;" d="M238,-53C202,-43 152,-29 118,-20"/>
<polygon style="fill:midnightblue;stroke:midnightblue;" points="237.416,-56.4788 248,-56 239.427,-49.7741 237.416,-56.4788"/>
</g>
<!-- Node3 -->
<g id="node5" class="node"><title>Node3</title>
<a xlink:href="listwise__measures__unittest_8cc.html" target="_top" xlink:title="ltr/measures/listwise_measures_unittest.cc">
<polygon style="fill:white;stroke:black;" points="182,-0 182,-20 386,-20 386,-0 182,-0"/>
<text text-anchor="middle" x="284" y="-7" style="font-family:Arial;font-size:10.00;">ltr/measures/listwise_measures_unittest.cc</text>
</a>
</g>
<!-- Node1&#45;&gt;Node3 -->
<g id="edge4" class="edge"><title>Node1&#45;&gt;Node3</title>
<path style="fill:none;stroke:midnightblue;" d="M284,-46C284,-37 284,-28 284,-20"/>
<polygon style="fill:midnightblue;stroke:midnightblue;" points="280.5,-46 284,-56 287.5,-46 280.5,-46"/>
</g>
<!-- Node4 -->
<g id="node7" class="node"><title>Node4</title>
<a xlink:href="measure__unittest_8cc.html" target="_top" xlink:title="ltr/measures/measure_unittest.cc">
<polygon style="fill:white;stroke:black;" points="404,-0 404,-20 566,-20 566,-0 404,-0"/>
<text text-anchor="middle" x="485" y="-7" style="font-family:Arial;font-size:10.00;">ltr/measures/measure_unittest.cc</text>
</a>
</g>
<!-- Node1&#45;&gt;Node4 -->
<g id="edge6" class="edge"><title>Node1&#45;&gt;Node4</title>
<path style="fill:none;stroke:midnightblue;" d="M330,-53C366,-43 416,-29 449,-20"/>
<polygon style="fill:midnightblue;stroke:midnightblue;" points="328.573,-49.7741 320,-56 330.584,-56.4788 328.573,-49.7741"/>
</g>
</g>
</svg>
