<?xml version="1.0" encoding="UTF-8" standalone="no"?>
<!DOCTYPE svg PUBLIC "-//W3C//DTD SVG 1.0//EN"
 "http://www.w3.org/TR/2001/REC-SVG-20010904/DTD/svg10.dtd" [
 <!ATTLIST svg xmlns:xlink CDATA #FIXED "http://www.w3.org/1999/xlink">
]>
<!-- Generated by Graphviz version 2.20.2 (Tue Mar &#160;2 19:03:41 UTC 2010)
     For user: (jenkins)  -->
<!-- Title: G Pages: 1 -->
<svg width="608pt" height="84pt"
 viewBox="0.00 0.00 608.00 84.00" xmlns="http://www.w3.org/2000/svg" xmlns:xlink="http://www.w3.org/1999/xlink">
<g id="graph0" class="graph" transform="scale(1 1) rotate(0) translate(4 80)">
<title>G</title>
<polygon style="fill:white;stroke:white;" points="-4,4 -4,-80 604,-80 604,4 -4,4"/>
<!-- Node1 -->
<g id="node1" class="node"><title>Node1</title>
<polygon style="fill:#bfbfbf;stroke:black;" points="20,-56 20,-76 298,-76 298,-56 20,-56"/>
<text text-anchor="middle" x="159" y="-63" style="font-family:Arial;font-size:10.00;">ltr/predictions_aggregators/average_predictions_aggregator.h</text>
</g>
<!-- Node2 -->
<g id="node3" class="node"><title>Node2</title>
<polygon style="fill:white;stroke:#bfbfbf;" points="0,-0 0,-20 42,-20 42,-0 0,-0"/>
<text text-anchor="middle" x="21" y="-7" style="font-family:Arial;font-size:10.00;">vector</text>
</g>
<!-- Node1&#45;&gt;Node2 -->
<g id="edge2" class="edge"><title>Node1&#45;&gt;Node2</title>
<path style="fill:none;stroke:midnightblue;" d="M134,-56C111,-46 76,-33 51,-23"/>
<polygon style="fill:midnightblue;stroke:midnightblue;" points="52.5596,-19.8631 42,-19 49.7166,-26.2598 52.5596,-19.8631"/>
</g>
<!-- Node3 -->
<g id="node5" class="node"><title>Node3</title>
<polygon style="fill:white;stroke:#bfbfbf;" points="60,-0 60,-20 100,-20 100,-0 60,-0"/>
<text text-anchor="middle" x="80" y="-7" style="font-family:Arial;font-size:10.00;">string</text>
</g>
<!-- Node1&#45;&gt;Node3 -->
<g id="edge4" class="edge"><title>Node1&#45;&gt;Node3</title>
<path style="fill:none;stroke:midnightblue;" d="M145,-56C133,-48 116,-35 102,-26"/>
<polygon style="fill:midnightblue;stroke:midnightblue;" points="104.1,-23.2 94,-20 99.9,-28.8 104.1,-23.2"/>
</g>
<!-- Node4 -->
<g id="node7" class="node"><title>Node4</title>
<polygon style="fill:white;stroke:#bfbfbf;" points="118,-0 118,-20 358,-20 358,-0 118,-0"/>
<text text-anchor="middle" x="238" y="-7" style="font-family:Arial;font-size:10.00;">ltr/predictions_aggregators/predictions_aggregator.h</text>
</g>
<!-- Node1&#45;&gt;Node4 -->
<g id="edge6" class="edge"><title>Node1&#45;&gt;Node4</title>
<path style="fill:none;stroke:midnightblue;" d="M173,-56C185,-48 202,-35 216,-26"/>
<polygon style="fill:midnightblue;stroke:midnightblue;" points="218.1,-28.8 224,-20 213.9,-23.2 218.1,-28.8"/>
</g>
<!-- Node5 -->
<g id="node9" class="node"><title>Node5</title>
<polygon style="fill:white;stroke:#bfbfbf;" points="376,-0 376,-20 601,-20 601,-0 376,-0"/>
<text text-anchor="middle" x="488" y="-7" style="font-family:Arial;font-size:10.00;">ltr/parameters_container/parameters_container.h</text>
</g>
<!-- Node1&#45;&gt;Node5 -->
<g id="edge8" class="edge"><title>Node1&#45;&gt;Node5</title>
<path style="fill:none;stroke:midnightblue;" d="M218,-56C274,-47 360,-32 419,-22"/>
<polygon style="fill:midnightblue;stroke:midnightblue;" points="419.881,-25.3933 429,-20 418.508,-18.5292 419.881,-25.3933"/>
</g>
</g>
</svg>
