<?xml version="1.0" encoding="UTF-8" standalone="no"?>
<!DOCTYPE svg PUBLIC "-//W3C//DTD SVG 1.0//EN"
 "http://www.w3.org/TR/2001/REC-SVG-20010904/DTD/svg10.dtd" [
 <!ATTLIST svg xmlns:xlink CDATA #FIXED "http://www.w3.org/1999/xlink">
]>
<!-- Generated by Graphviz version 2.20.2 (Tue Mar &#160;2 19:03:41 UTC 2010)
     For user: (jenkins)  -->
<!-- Title: G Pages: 1 -->
<svg width="1397pt" height="196pt"
 viewBox="0.00 0.00 1397.00 196.00" xmlns="http://www.w3.org/2000/svg" xmlns:xlink="http://www.w3.org/1999/xlink">
<g id="graph0" class="graph" transform="scale(1 1) rotate(0) translate(4 192)">
<title>G</title>
<polygon style="fill:white;stroke:white;" points="-4,4 -4,-192 1393,-192 1393,4 -4,4"/>
<!-- Node1 -->
<g id="node1" class="node"><title>Node1</title>
<polygon style="fill:#bfbfbf;stroke:black;" points="443,-168 443,-188 637,-188 637,-168 443,-168"/>
<text text-anchor="middle" x="540" y="-175" style="font-family:Arial;font-size:10.00;">ltr/learners/decision_tree/base_splitter.cc</text>
</g>
<!-- Node2 -->
<g id="node3" class="node"><title>Node2</title>
<polygon style="fill:white;stroke:#bfbfbf;" points="3,-112 3,-132 59,-132 59,-112 3,-112"/>
<text text-anchor="middle" x="31" y="-119" style="font-family:Arial;font-size:10.00;">algorithm</text>
</g>
<!-- Node1&#45;&gt;Node2 -->
<g id="edge2" class="edge"><title>Node1&#45;&gt;Node2</title>
<path style="fill:none;stroke:midnightblue;" d="M443,-173C349,-167 204,-156 69,-132"/>
<polygon style="fill:midnightblue;stroke:midnightblue;" points="69.4922,-128.529 59,-130 68.1194,-135.393 69.4922,-128.529"/>
</g>
<!-- Node3 -->
<g id="node5" class="node"><title>Node3</title>
<polygon style="fill:white;stroke:#bfbfbf;" points="497,-56 497,-76 539,-76 539,-56 497,-56"/>
<text text-anchor="middle" x="518" y="-63" style="font-family:Arial;font-size:10.00;">vector</text>
</g>
<!-- Node1&#45;&gt;Node3 -->
<g id="edge4" class="edge"><title>Node1&#45;&gt;Node3</title>
<path style="fill:none;stroke:midnightblue;" d="M558,-168C577,-155 604,-133 592,-112 583,-95 565,-84 549,-77"/>
<polygon style="fill:midnightblue;stroke:midnightblue;" points="549.585,-73.4643 539,-73 546.985,-79.9636 549.585,-73.4643"/>
</g>
<!-- Node4 -->
<g id="node7" class="node"><title>Node4</title>
<a xlink:href="threshold__condition_8h.html" target="_top" xlink:title="ltr/learners/decision_tree/condition/threshold_condition.h">
<polygon style="fill:white;stroke:black;" points="77,-112 77,-132 337,-132 337,-112 77,-112"/>
<text text-anchor="middle" x="207" y="-119" style="font-family:Arial;font-size:10.00;">ltr/learners/decision_tree/condition/threshold_condition.h</text>
</a>
</g>
<!-- Node1&#45;&gt;Node4 -->
<g id="edge6" class="edge"><title>Node1&#45;&gt;Node4</title>
<path style="fill:none;stroke:midnightblue;" d="M480,-168C423,-159 337,-144 276,-134"/>
<polygon style="fill:midnightblue;stroke:midnightblue;" points="276.492,-130.529 266,-132 275.119,-137.393 276.492,-130.529"/>
</g>
<!-- Node8 -->
<g id="node15" class="node"><title>Node8</title>
<a xlink:href="decision__vertex_8h.html" target="_top" xlink:title="ltr/learners/decision_tree/vertex/decision_vertex.h">
<polygon style="fill:white;stroke:black;" points="355,-112 355,-132 584,-132 584,-112 355,-112"/>
<text text-anchor="middle" x="469" y="-119" style="font-family:Arial;font-size:10.00;">ltr/learners/decision_tree/vertex/decision_vertex.h</text>
</a>
</g>
<!-- Node1&#45;&gt;Node8 -->
<g id="edge14" class="edge"><title>Node1&#45;&gt;Node8</title>
<path style="fill:none;stroke:midnightblue;" d="M527,-168C517,-160 502,-148 490,-139"/>
<polygon style="fill:midnightblue;stroke:midnightblue;" points="491.831,-135.951 482,-132 487.221,-141.219 491.831,-135.951"/>
</g>
<!-- Node10 -->
<g id="node20" class="node"><title>Node10</title>
<a xlink:href="base__splitter_8h.html" target="_top" xlink:title="ltr/learners/decision_tree/base_splitter.h">
<polygon style="fill:white;stroke:black;" points="639,-112 639,-132 828,-132 828,-112 639,-112"/>
<text text-anchor="middle" x="733" y="-119" style="font-family:Arial;font-size:10.00;">ltr/learners/decision_tree/base_splitter.h</text>
</a>
</g>
<!-- Node1&#45;&gt;Node10 -->
<g id="edge20" class="edge"><title>Node1&#45;&gt;Node10</title>
<path style="fill:none;stroke:midnightblue;" d="M575,-168C607,-159 654,-145 688,-135"/>
<polygon style="fill:midnightblue;stroke:midnightblue;" points="689.427,-138.226 698,-132 687.416,-131.521 689.427,-138.226"/>
</g>
<!-- Node16 -->
<g id="node36" class="node"><title>Node16</title>
<polygon style="fill:white;stroke:#bfbfbf;" points="845,-112 845,-132 949,-132 949,-112 845,-112"/>
<text text-anchor="middle" x="897" y="-119" style="font-family:Arial;font-size:10.00;">ltr/utility/numerical.h</text>
</g>
<!-- Node1&#45;&gt;Node16 -->
<g id="edge40" class="edge"><title>Node1&#45;&gt;Node16</title>
<path style="fill:none;stroke:midnightblue;" d="M604,-168C662,-159 749,-145 835,-132"/>
<polygon style="fill:midnightblue;stroke:midnightblue;" points="835.881,-135.393 845,-130 834.508,-128.529 835.881,-135.393"/>
</g>
<!-- Node5 -->
<g id="node9" class="node"><title>Node5</title>
<polygon style="fill:white;stroke:#bfbfbf;" points="401,-56 401,-76 441,-76 441,-56 401,-56"/>
<text text-anchor="middle" x="421" y="-63" style="font-family:Arial;font-size:10.00;">string</text>
</g>
<!-- Node4&#45;&gt;Node5 -->
<g id="edge8" class="edge"><title>Node4&#45;&gt;Node5</title>
<path style="fill:none;stroke:midnightblue;" d="M245,-112C287,-101 352,-84 391,-74"/>
<polygon style="fill:midnightblue;stroke:midnightblue;" points="392.427,-77.2259 401,-71 390.416,-70.5212 392.427,-77.2259"/>
</g>
<!-- Node6 -->
<g id="node11" class="node"><title>Node6</title>
<polygon style="fill:white;stroke:#bfbfbf;" points="232,-56 232,-76 316,-76 316,-56 232,-56"/>
<text text-anchor="middle" x="274" y="-63" style="font-family:Arial;font-size:10.00;">ltr/data/object.h</text>
</g>
<!-- Node4&#45;&gt;Node6 -->
<g id="edge10" class="edge"><title>Node4&#45;&gt;Node6</title>
<path style="fill:none;stroke:midnightblue;" d="M219,-112C229,-104 242,-92 254,-83"/>
<polygon style="fill:midnightblue;stroke:midnightblue;" points="256.779,-85.2191 262,-76 252.169,-79.9511 256.779,-85.2191"/>
</g>
<!-- Node7 -->
<g id="node13" class="node"><title>Node7</title>
<polygon style="fill:white;stroke:#bfbfbf;" points="0,-56 0,-76 215,-76 215,-56 0,-56"/>
<text text-anchor="middle" x="107" y="-63" style="font-family:Arial;font-size:10.00;">ltr/learners/decision_tree/condition/condition.h</text>
</g>
<!-- Node4&#45;&gt;Node7 -->
<g id="edge12" class="edge"><title>Node4&#45;&gt;Node7</title>
<path style="fill:none;stroke:midnightblue;" d="M189,-112C174,-104 152,-91 134,-81"/>
<polygon style="fill:midnightblue;stroke:midnightblue;" points="135.441,-77.7969 125,-76 132.042,-83.916 135.441,-77.7969"/>
</g>
<!-- Node8&#45;&gt;Node5 -->
<g id="edge16" class="edge"><title>Node8&#45;&gt;Node5</title>
<path style="fill:none;stroke:midnightblue;" d="M460,-112C454,-104 444,-93 436,-84"/>
<polygon style="fill:midnightblue;stroke:midnightblue;" points="438.8,-81.9 430,-76 433.2,-86.1 438.8,-81.9"/>
</g>
<!-- Node9 -->
<g id="node18" class="node"><title>Node9</title>
<polygon style="fill:white;stroke:#bfbfbf;" points="398,-0 398,-20 586,-20 586,-0 398,-0"/>
<text text-anchor="middle" x="492" y="-7" style="font-family:Arial;font-size:10.00;">ltr/learners/decision_tree/vertex/vertex.h</text>
</g>
<!-- Node8&#45;&gt;Node9 -->
<g id="edge18" class="edge"><title>Node8&#45;&gt;Node9</title>
<path style="fill:none;stroke:midnightblue;" d="M471,-112C475,-93 483,-54 488,-30"/>
<polygon style="fill:midnightblue;stroke:midnightblue;" points="491.471,-30.4922 490,-20 484.607,-29.1194 491.471,-30.4922"/>
</g>
<!-- Node10&#45;&gt;Node3 -->
<g id="edge22" class="edge"><title>Node10&#45;&gt;Node3</title>
<path style="fill:none;stroke:midnightblue;" d="M689,-112C654,-104 602,-91 549,-76"/>
<polygon style="fill:midnightblue;stroke:midnightblue;" points="549.584,-72.5212 539,-73 547.573,-79.2259 549.584,-72.5212"/>
</g>
<!-- Node10&#45;&gt;Node5 -->
<g id="edge24" class="edge"><title>Node10&#45;&gt;Node5</title>
<path style="fill:none;stroke:midnightblue;" d="M677,-112C611,-100 503,-81 451,-72"/>
<polygon style="fill:midnightblue;stroke:midnightblue;" points="451.492,-68.5292 441,-70 450.119,-75.3933 451.492,-68.5292"/>
</g>
<!-- Node11 -->
<g id="node24" class="node"><title>Node11</title>
<polygon style="fill:white;stroke:#bfbfbf;" points="699,-0 699,-20 794,-20 794,-0 699,-0"/>
<text text-anchor="middle" x="746" y="-7" style="font-family:Arial;font-size:10.00;">ltr/data/data_set.h</text>
</g>
<!-- Node10&#45;&gt;Node11 -->
<g id="edge26" class="edge"><title>Node10&#45;&gt;Node11</title>
<path style="fill:none;stroke:midnightblue;" d="M758,-112C773,-104 791,-92 800,-76 809,-57 791,-38 773,-26"/>
<polygon style="fill:midnightblue;stroke:midnightblue;" points="775.1,-23.2 765,-20 770.9,-28.8 775.1,-23.2"/>
</g>
<!-- Node12 -->
<g id="node26" class="node"><title>Node12</title>
<polygon style="fill:white;stroke:#bfbfbf;" points="847,-56 847,-76 1013,-76 1013,-56 847,-56"/>
<text text-anchor="middle" x="930" y="-63" style="font-family:Arial;font-size:10.00;">ltr/data/utility/data_set_statistics.h</text>
</g>
<!-- Node10&#45;&gt;Node12 -->
<g id="edge28" class="edge"><title>Node10&#45;&gt;Node12</title>
<path style="fill:none;stroke:midnightblue;" d="M768,-112C801,-103 850,-89 885,-79"/>
<polygon style="fill:midnightblue;stroke:midnightblue;" points="886.427,-82.2259 895,-76 884.416,-75.5212 886.427,-82.2259"/>
</g>
<!-- Node13 -->
<g id="node28" class="node"><title>Node13</title>
<a xlink:href="vertex__with__data_8h.html" target="_top" xlink:title="ltr/learners/decision_tree/vertex/vertex_with_data.h">
<polygon style="fill:white;stroke:black;" points="557,-56 557,-76 791,-76 791,-56 557,-56"/>
<text text-anchor="middle" x="674" y="-63" style="font-family:Arial;font-size:10.00;">ltr/learners/decision_tree/vertex/vertex_with_data.h</text>
</a>
</g>
<!-- Node10&#45;&gt;Node13 -->
<g id="edge30" class="edge"><title>Node10&#45;&gt;Node13</title>
<path style="fill:none;stroke:midnightblue;" d="M722,-112C713,-104 702,-93 692,-83"/>
<polygon style="fill:midnightblue;stroke:midnightblue;" points="694.546,-80.5962 685,-76 689.596,-85.546 694.546,-80.5962"/>
</g>
<!-- Node14 -->
<g id="node32" class="node"><title>Node14</title>
<polygon style="fill:white;stroke:#bfbfbf;" points="1031,-56 1031,-76 1138,-76 1138,-56 1031,-56"/>
<text text-anchor="middle" x="1084" y="-63" style="font-family:Arial;font-size:10.00;">ltr/utility/shared_ptr.h</text>
</g>
<!-- Node10&#45;&gt;Node14 -->
<g id="edge36" class="edge"><title>Node10&#45;&gt;Node14</title>
<path style="fill:none;stroke:midnightblue;" d="M795,-112C852,-103 937,-89 1021,-76"/>
<polygon style="fill:midnightblue;stroke:midnightblue;" points="1021.88,-79.3933 1031,-74 1020.51,-72.5292 1021.88,-79.3933"/>
</g>
<!-- Node15 -->
<g id="node34" class="node"><title>Node15</title>
<polygon style="fill:white;stroke:#bfbfbf;" points="1155,-56 1155,-76 1389,-76 1389,-56 1155,-56"/>
<text text-anchor="middle" x="1272" y="-63" style="font-family:Arial;font-size:10.00;">ltr/learners/decision_tree/vertex/vertex_with_data.h</text>
</g>
<!-- Node10&#45;&gt;Node15 -->
<g id="edge38" class="edge"><title>Node10&#45;&gt;Node15</title>
<path style="fill:none;stroke:midnightblue;" d="M828,-112C923,-102 1067,-87 1166,-77"/>
<polygon style="fill:midnightblue;stroke:midnightblue;" points="1166.4,-80.4778 1176,-76 1165.7,-73.5125 1166.4,-80.4778"/>
</g>
<!-- Node13&#45;&gt;Node9 -->
<g id="edge34" class="edge"><title>Node13&#45;&gt;Node9</title>
<path style="fill:none;stroke:midnightblue;" d="M641,-56C611,-47 567,-33 535,-23"/>
<polygon style="fill:midnightblue;stroke:midnightblue;" points="535.584,-19.5212 525,-20 533.573,-26.2259 535.584,-19.5212"/>
</g>
<!-- Node13&#45;&gt;Node11 -->
<g id="edge32" class="edge"><title>Node13&#45;&gt;Node11</title>
<path style="fill:none;stroke:midnightblue;" d="M687,-56C698,-48 713,-36 725,-27"/>
<polygon style="fill:midnightblue;stroke:midnightblue;" points="727.779,-29.2191 733,-20 723.169,-23.9511 727.779,-29.2191"/>
</g>
</g>
</svg>
