<?xml version="1.0" encoding="UTF-8" standalone="no"?>
<!DOCTYPE svg PUBLIC "-//W3C//DTD SVG 1.0//EN"
 "http://www.w3.org/TR/2001/REC-SVG-20010904/DTD/svg10.dtd" [
 <!ATTLIST svg xmlns:xlink CDATA #FIXED "http://www.w3.org/1999/xlink">
]>
<!-- Generated by Graphviz version 2.20.2 (Tue Mar &#160;2 19:03:41 UTC 2010)
     For user: (jenkins)  -->
<!-- Title: G Pages: 1 -->
<svg width="878pt" height="84pt"
 viewBox="0.00 0.00 878.00 84.00" xmlns="http://www.w3.org/2000/svg" xmlns:xlink="http://www.w3.org/1999/xlink">
<g id="graph0" class="graph" transform="scale(1 1) rotate(0) translate(4 80)">
<title>G</title>
<polygon style="fill:white;stroke:white;" points="-4,4 -4,-80 874,-80 874,4 -4,4"/>
<!-- Node1 -->
<g id="node1" class="node"><title>Node1</title>
<polygon style="fill:#bfbfbf;stroke:black;" points="204,-56 204,-76 477,-76 477,-56 204,-56"/>
<text text-anchor="middle" x="340" y="-63" style="font-family:Arial;font-size:10.00;">ltr/density_estimators/base_probability_density_estimator.h</text>
</g>
<!-- Node2 -->
<g id="node3" class="node"><title>Node2</title>
<polygon style="fill:white;stroke:#bfbfbf;" points="0,-0 0,-20 84,-20 84,-0 0,-0"/>
<text text-anchor="middle" x="42" y="-7" style="font-family:Arial;font-size:10.00;">ltr/data/object.h</text>
</g>
<!-- Node1&#45;&gt;Node2 -->
<g id="edge2" class="edge"><title>Node1&#45;&gt;Node2</title>
<path style="fill:none;stroke:midnightblue;" d="M287,-56C239,-47 167,-33 94,-20"/>
<polygon style="fill:midnightblue;stroke:midnightblue;" points="94.4922,-16.5292 84,-18 93.1194,-23.3933 94.4922,-16.5292"/>
</g>
<!-- Node3 -->
<g id="node5" class="node"><title>Node3</title>
<polygon style="fill:white;stroke:#bfbfbf;" points="102,-0 102,-20 199,-20 199,-0 102,-0"/>
<text text-anchor="middle" x="150" y="-7" style="font-family:Arial;font-size:10.00;">ltr/scorers/scorer.h</text>
</g>
<!-- Node1&#45;&gt;Node3 -->
<g id="edge4" class="edge"><title>Node1&#45;&gt;Node3</title>
<path style="fill:none;stroke:midnightblue;" d="M306,-56C274,-47 227,-33 194,-23"/>
<polygon style="fill:midnightblue;stroke:midnightblue;" points="194.584,-19.5212 184,-20 192.573,-26.2259 194.584,-19.5212"/>
</g>
<!-- Node4 -->
<g id="node7" class="node"><title>Node4</title>
<polygon style="fill:white;stroke:#bfbfbf;" points="216,-0 216,-20 323,-20 323,-0 216,-0"/>
<text text-anchor="middle" x="269" y="-7" style="font-family:Arial;font-size:10.00;">ltr/utility/shared_ptr.h</text>
</g>
<!-- Node1&#45;&gt;Node4 -->
<g id="edge6" class="edge"><title>Node1&#45;&gt;Node4</title>
<path style="fill:none;stroke:midnightblue;" d="M327,-56C316,-48 302,-36 290,-27"/>
<polygon style="fill:midnightblue;stroke:midnightblue;" points="291.831,-23.9511 282,-20 287.221,-29.2191 291.831,-23.9511"/>
</g>
<!-- Node5 -->
<g id="node9" class="node"><title>Node5</title>
<polygon style="fill:white;stroke:#bfbfbf;" points="340,-0 340,-20 482,-20 482,-0 340,-0"/>
<text text-anchor="middle" x="411" y="-7" style="font-family:Arial;font-size:10.00;">ltr/interfaces/parameterized.h</text>
</g>
<!-- Node1&#45;&gt;Node5 -->
<g id="edge8" class="edge"><title>Node1&#45;&gt;Node5</title>
<path style="fill:none;stroke:midnightblue;" d="M353,-56C364,-48 378,-36 390,-27"/>
<polygon style="fill:midnightblue;stroke:midnightblue;" points="392.779,-29.2191 398,-20 388.169,-23.9511 392.779,-29.2191"/>
</g>
<!-- Node6 -->
<g id="node11" class="node"><title>Node6</title>
<polygon style="fill:white;stroke:#bfbfbf;" points="500,-0 500,-20 629,-20 629,-0 500,-0"/>
<text text-anchor="middle" x="564" y="-7" style="font-family:Arial;font-size:10.00;">ltr/interfaces/serializable.h</text>
</g>
<!-- Node1&#45;&gt;Node6 -->
<g id="edge10" class="edge"><title>Node1&#45;&gt;Node6</title>
<path style="fill:none;stroke:midnightblue;" d="M380,-56C417,-47 474,-32 514,-22"/>
<polygon style="fill:midnightblue;stroke:midnightblue;" points="514.881,-25.3933 524,-20 513.508,-18.5292 514.881,-25.3933"/>
</g>
<!-- Node7 -->
<g id="node13" class="node"><title>Node7</title>
<polygon style="fill:white;stroke:#bfbfbf;" points="646,-0 646,-20 871,-20 871,-0 646,-0"/>
<text text-anchor="middle" x="758" y="-7" style="font-family:Arial;font-size:10.00;">ltr/parameters_container/parameters_container.h</text>
</g>
<!-- Node1&#45;&gt;Node7 -->
<g id="edge12" class="edge"><title>Node1&#45;&gt;Node7</title>
<path style="fill:none;stroke:midnightblue;" d="M415,-56C488,-46 598,-31 674,-21"/>
<polygon style="fill:midnightblue;stroke:midnightblue;" points="674.398,-24.4778 684,-20 673.701,-17.5125 674.398,-24.4778"/>
</g>
</g>
</svg>
