<?xml version="1.0" encoding="UTF-8" standalone="no"?>
<!DOCTYPE svg PUBLIC "-//W3C//DTD SVG 1.0//EN"
 "http://www.w3.org/TR/2001/REC-SVG-20010904/DTD/svg10.dtd" [
 <!ATTLIST svg xmlns:xlink CDATA #FIXED "http://www.w3.org/1999/xlink">
]>
<!-- Generated by Graphviz version 2.20.2 (Tue Mar &#160;2 19:03:41 UTC 2010)
     For user: (jenkins)  -->
<!-- Title: G Pages: 1 -->
<svg width="1932pt" height="476pt"
 viewBox="0.00 0.00 1932.00 476.00" xmlns="http://www.w3.org/2000/svg" xmlns:xlink="http://www.w3.org/1999/xlink">
<g id="graph0" class="graph" transform="scale(1 1) rotate(0) translate(4 472)">
<title>G</title>
<polygon style="fill:white;stroke:white;" points="-4,4 -4,-472 1928,-472 1928,4 -4,4"/>
<!-- Node1 -->
<g id="node1" class="node"><title>Node1</title>
<polygon style="fill:#bfbfbf;stroke:black;" points="628,-448 628,-468 901,-468 901,-448 628,-448"/>
<text text-anchor="middle" x="764" y="-455" style="font-family:Arial;font-size:10.00;">ltr/density_estimators/base_probability_density_estimator.h</text>
</g>
<!-- Node2 -->
<g id="node3" class="node"><title>Node2</title>
<a xlink:href="object_8h.html" target="_top" xlink:title="ltr/data/object.h">
<polygon style="fill:white;stroke:black;" points="608,-112 608,-132 692,-132 692,-112 608,-112"/>
<text text-anchor="middle" x="650" y="-119" style="font-family:Arial;font-size:10.00;">ltr/data/object.h</text>
</a>
</g>
<!-- Node1&#45;&gt;Node2 -->
<g id="edge2" class="edge"><title>Node1&#45;&gt;Node2</title>
<path style="fill:none;stroke:midnightblue;" d="M755,-448C731,-418 661,-331 634,-244 623,-211 623,-201 630,-168 631,-159 635,-149 639,-141"/>
<polygon style="fill:midnightblue;stroke:midnightblue;" points="642.203,-142.441 644,-132 636.084,-139.042 642.203,-142.441"/>
</g>
<!-- Node9 -->
<g id="node19" class="node"><title>Node9</title>
<a xlink:href="shared__ptr_8h.html" target="_top" xlink:title="ltr/utility/shared_ptr.h">
<polygon style="fill:white;stroke:black;" points="1496,-56 1496,-76 1603,-76 1603,-56 1496,-56"/>
<text text-anchor="middle" x="1549" y="-63" style="font-family:Arial;font-size:10.00;">ltr/utility/shared_ptr.h</text>
</a>
</g>
<!-- Node1&#45;&gt;Node9 -->
<g id="edge184" class="edge"><title>Node1&#45;&gt;Node9</title>
<path style="fill:none;stroke:midnightblue;" d="M901,-452C1208,-437 1924,-396 1924,-346 1924,-346 1924,-346 1924,-178 1924,-114 1720,-84 1613,-72"/>
<polygon style="fill:midnightblue;stroke:midnightblue;" points="1613.3,-68.5125 1603,-71 1612.6,-75.4778 1613.3,-68.5125"/>
</g>
<!-- Node13 -->
<g id="node27" class="node"><title>Node13</title>
<a xlink:href="scorer_8h.html" target="_top" xlink:title="ltr/scorers/scorer.h">
<polygon style="fill:white;stroke:black;" points="1134,-392 1134,-412 1231,-412 1231,-392 1134,-392"/>
<text text-anchor="middle" x="1182" y="-399" style="font-family:Arial;font-size:10.00;">ltr/scorers/scorer.h</text>
</a>
</g>
<!-- Node1&#45;&gt;Node13 -->
<g id="edge28" class="edge"><title>Node1&#45;&gt;Node13</title>
<path style="fill:none;stroke:midnightblue;" d="M839,-448C920,-437 1050,-420 1124,-409"/>
<polygon style="fill:midnightblue;stroke:midnightblue;" points="1124.4,-412.478 1134,-408 1123.7,-405.512 1124.4,-412.478"/>
</g>
<!-- Node22 -->
<g id="node71" class="node"><title>Node22</title>
<a xlink:href="parameterized_8h.html" target="_top" xlink:title="ltr/interfaces/parameterized.h">
<polygon style="fill:white;stroke:black;" points="346,-168 346,-188 488,-188 488,-168 346,-168"/>
<text text-anchor="middle" x="417" y="-175" style="font-family:Arial;font-size:10.00;">ltr/interfaces/parameterized.h</text>
</a>
</g>
<!-- Node1&#45;&gt;Node22 -->
<g id="edge186" class="edge"><title>Node1&#45;&gt;Node22</title>
<path style="fill:none;stroke:midnightblue;" d="M628,-455C468,-450 220,-438 186,-412 161,-393 162,-377 162,-346 162,-346 162,-346 162,-290 162,-247 287,-209 362,-190"/>
<polygon style="fill:midnightblue;stroke:midnightblue;" points="362.881,-193.393 372,-188 361.508,-186.529 362.881,-193.393"/>
</g>
<!-- Node23 -->
<g id="node75" class="node"><title>Node23</title>
<a xlink:href="parameters__container_8h.html" target="_top" xlink:title="ltr/parameters_container/parameters_container.h">
<polygon style="fill:white;stroke:black;" points="138,-112 138,-132 363,-132 363,-112 138,-112"/>
<text text-anchor="middle" x="250" y="-119" style="font-family:Arial;font-size:10.00;">ltr/parameters_container/parameters_container.h</text>
</a>
</g>
<!-- Node1&#45;&gt;Node23 -->
<g id="edge190" class="edge"><title>Node1&#45;&gt;Node23</title>
<path style="fill:none;stroke:midnightblue;" d="M628,-452C464,-444 205,-429 164,-412 121,-394 86,-391 86,-346 86,-346 86,-346 86,-234 86,-180 147,-150 195,-135"/>
<polygon style="fill:midnightblue;stroke:midnightblue;" points="196.427,-138.226 205,-132 194.416,-131.521 196.427,-138.226"/>
</g>
<!-- Node29 -->
<g id="node102" class="node"><title>Node29</title>
<a xlink:href="serializable_8h.html" target="_top" xlink:title="ltr/interfaces/serializable.h">
<polygon style="fill:white;stroke:black;" points="1439,-168 1439,-188 1568,-188 1568,-168 1439,-168"/>
<text text-anchor="middle" x="1503" y="-175" style="font-family:Arial;font-size:10.00;">ltr/interfaces/serializable.h</text>
</a>
</g>
<!-- Node1&#45;&gt;Node29 -->
<g id="edge188" class="edge"><title>Node1&#45;&gt;Node29</title>
<path style="fill:none;stroke:midnightblue;" d="M901,-450C1018,-442 1177,-429 1239,-412 1295,-396 1311,-392 1358,-356 1418,-308 1469,-233 1492,-197"/>
<polygon style="fill:midnightblue;stroke:midnightblue;" points="1495.2,-198.441 1497,-188 1489.08,-195.042 1495.2,-198.441"/>
</g>
<!-- Node3 -->
<g id="node5" class="node"><title>Node3</title>
<polygon style="fill:white;stroke:#bfbfbf;" points="1014,-56 1014,-76 1049,-76 1049,-56 1014,-56"/>
<text text-anchor="middle" x="1031" y="-63" style="font-family:Arial;font-size:10.00;">map</text>
</g>
<!-- Node2&#45;&gt;Node3 -->
<g id="edge4" class="edge"><title>Node2&#45;&gt;Node3</title>
<path style="fill:none;stroke:midnightblue;" d="M692,-116C771,-104 938,-80 1004,-70"/>
<polygon style="fill:midnightblue;stroke:midnightblue;" points="1004.4,-73.4778 1014,-69 1003.7,-66.5125 1004.4,-73.4778"/>
</g>
<!-- Node4 -->
<g id="node7" class="node"><title>Node4</title>
<polygon style="fill:white;stroke:#bfbfbf;" points="300,-0 300,-20 351,-20 351,-0 300,-0"/>
<text text-anchor="middle" x="325" y="-7" style="font-family:Arial;font-size:10.00;">ostream</text>
</g>
<!-- Node2&#45;&gt;Node4 -->
<g id="edge6" class="edge"><title>Node2&#45;&gt;Node4</title>
<path style="fill:none;stroke:midnightblue;" d="M638,-112C620,-97 584,-70 549,-56 486,-30 406,-18 361,-13"/>
<polygon style="fill:midnightblue;stroke:midnightblue;" points="361.299,-9.5125 351,-12 360.602,-16.4778 361.299,-9.5125"/>
</g>
<!-- Node5 -->
<g id="node9" class="node"><title>Node5</title>
<polygon style="fill:white;stroke:#bfbfbf;" points="482,-56 482,-76 541,-76 541,-56 482,-56"/>
<text text-anchor="middle" x="511" y="-63" style="font-family:Arial;font-size:10.00;">stdexcept</text>
</g>
<!-- Node2&#45;&gt;Node5 -->
<g id="edge8" class="edge"><title>Node2&#45;&gt;Node5</title>
<path style="fill:none;stroke:midnightblue;" d="M625,-112C603,-103 570,-90 545,-80"/>
<polygon style="fill:midnightblue;stroke:midnightblue;" points="546.56,-76.8631 536,-76 543.717,-83.2598 546.56,-76.8631"/>
</g>
<!-- Node6 -->
<g id="node11" class="node"><title>Node6</title>
<polygon style="fill:white;stroke:#bfbfbf;" points="700,-0 700,-20 740,-20 740,-0 700,-0"/>
<text text-anchor="middle" x="720" y="-7" style="font-family:Arial;font-size:10.00;">string</text>
</g>
<!-- Node2&#45;&gt;Node6 -->
<g id="edge10" class="edge"><title>Node2&#45;&gt;Node6</title>
<path style="fill:none;stroke:midnightblue;" d="M656,-112C668,-93 693,-53 708,-29"/>
<polygon style="fill:midnightblue;stroke:midnightblue;" points="711.365,-30.262 714,-20 705.541,-26.3791 711.365,-30.262"/>
</g>
<!-- Node7 -->
<g id="node13" class="node"><title>Node7</title>
<polygon style="fill:white;stroke:#bfbfbf;" points="813,-56 813,-76 855,-76 855,-56 813,-56"/>
<text text-anchor="middle" x="834" y="-63" style="font-family:Arial;font-size:10.00;">vector</text>
</g>
<!-- Node2&#45;&gt;Node7 -->
<g id="edge12" class="edge"><title>Node2&#45;&gt;Node7</title>
<path style="fill:none;stroke:midnightblue;" d="M683,-112C717,-102 770,-85 803,-75"/>
<polygon style="fill:midnightblue;stroke:midnightblue;" points="804.427,-78.2259 813,-72 802.416,-71.5212 804.427,-78.2259"/>
</g>
<!-- Node8 -->
<g id="node15" class="node"><title>Node8</title>
<a xlink:href="printable_8h.html" target="_top" xlink:title="ltr/interfaces/printable.h">
<polygon style="fill:white;stroke:black;" points="24,-56 24,-76 141,-76 141,-56 24,-56"/>
<text text-anchor="middle" x="82" y="-63" style="font-family:Arial;font-size:10.00;">ltr/interfaces/printable.h</text>
</a>
</g>
<!-- Node2&#45;&gt;Node8 -->
<g id="edge14" class="edge"><title>Node2&#45;&gt;Node8</title>
<path style="fill:none;stroke:midnightblue;" d="M608,-119C523,-112 326,-97 151,-76"/>
<polygon style="fill:midnightblue;stroke:midnightblue;" points="151.299,-72.5125 141,-75 150.602,-79.4778 151.299,-72.5125"/>
</g>
<!-- Node2&#45;&gt;Node9 -->
<g id="edge20" class="edge"><title>Node2&#45;&gt;Node9</title>
<path style="fill:none;stroke:midnightblue;" d="M692,-119C837,-110 1313,-80 1486,-70"/>
<polygon style="fill:midnightblue;stroke:midnightblue;" points="1486.4,-73.4778 1496,-69 1485.7,-66.5125 1486.4,-73.4778"/>
</g>
<!-- Node8&#45;&gt;Node4 -->
<g id="edge16" class="edge"><title>Node8&#45;&gt;Node4</title>
<path style="fill:none;stroke:midnightblue;" d="M125,-56C172,-45 246,-28 290,-18"/>
<polygon style="fill:midnightblue;stroke:midnightblue;" points="290.881,-21.3933 300,-16 289.508,-14.5292 290.881,-21.3933"/>
</g>
<!-- Node8&#45;&gt;Node6 -->
<g id="edge18" class="edge"><title>Node8&#45;&gt;Node6</title>
<path style="fill:none;stroke:midnightblue;" d="M141,-57C144,-57 146,-56 149,-56 354,-31 605,-16 690,-12"/>
<polygon style="fill:midnightblue;stroke:midnightblue;" points="690.398,-15.4778 700,-11 689.701,-8.5125 690.398,-15.4778"/>
</g>
<!-- Node10 -->
<g id="node21" class="node"><title>Node10</title>
<polygon style="fill:white;stroke:#bfbfbf;" points="1521,-0 1521,-20 1577,-20 1577,-0 1521,-0"/>
<text text-anchor="middle" x="1549" y="-7" style="font-family:Arial;font-size:10.00;">algorithm</text>
</g>
<!-- Node9&#45;&gt;Node10 -->
<g id="edge22" class="edge"><title>Node9&#45;&gt;Node10</title>
<path style="fill:none;stroke:midnightblue;" d="M1549,-56C1549,-49 1549,-39 1549,-30"/>
<polygon style="fill:midnightblue;stroke:midnightblue;" points="1552.5,-30 1549,-20 1545.5,-30 1552.5,-30"/>
</g>
<!-- Node11 -->
<g id="node23" class="node"><title>Node11</title>
<polygon style="fill:white;stroke:#bfbfbf;" points="1595,-0 1595,-20 1702,-20 1702,-0 1595,-0"/>
<text text-anchor="middle" x="1648" y="-7" style="font-family:Arial;font-size:10.00;">boost/shared_ptr.hpp</text>
</g>
<!-- Node9&#45;&gt;Node11 -->
<g id="edge24" class="edge"><title>Node9&#45;&gt;Node11</title>
<path style="fill:none;stroke:midnightblue;" d="M1567,-56C1582,-48 1604,-35 1621,-25"/>
<polygon style="fill:midnightblue;stroke:midnightblue;" points="1622.96,-27.916 1630,-20 1619.56,-21.7969 1622.96,-27.916"/>
</g>
<!-- Node12 -->
<g id="node25" class="node"><title>Node12</title>
<polygon style="fill:white;stroke:#bfbfbf;" points="1313,-0 1313,-20 1504,-20 1504,-0 1313,-0"/>
<text text-anchor="middle" x="1408" y="-7" style="font-family:Arial;font-size:10.00;">boost/smart_ptr/detail/operator_bool.hpp</text>
</g>
<!-- Node9&#45;&gt;Node12 -->
<g id="edge26" class="edge"><title>Node9&#45;&gt;Node12</title>
<path style="fill:none;stroke:midnightblue;" d="M1524,-56C1501,-47 1468,-34 1443,-24"/>
<polygon style="fill:midnightblue;stroke:midnightblue;" points="1443.58,-20.4643 1433,-20 1440.98,-26.9636 1443.58,-20.4643"/>
</g>
<!-- Node13&#45;&gt;Node2 -->
<g id="edge40" class="edge"><title>Node13&#45;&gt;Node2</title>
<path style="fill:none;stroke:midnightblue;" d="M1134,-398C1049,-389 868,-364 730,-300 689,-281 671,-281 648,-244 628,-213 636,-167 643,-142"/>
<polygon style="fill:midnightblue;stroke:midnightblue;" points="646.479,-142.584 646,-132 639.774,-140.573 646.479,-142.584"/>
</g>
<!-- Node13&#45;&gt;Node6 -->
<g id="edge34" class="edge"><title>Node13&#45;&gt;Node6</title>
<path style="fill:none;stroke:midnightblue;" d="M1134,-399C921,-382 71,-303 5,-76 2,-67 -2,-62 5,-56 28,-30 556,-14 690,-11"/>
<polygon style="fill:midnightblue;stroke:midnightblue;" points="690,-14.5001 700,-11 690,-7.5001 690,-14.5001"/>
</g>
<!-- Node13&#45;&gt;Node7 -->
<g id="edge32" class="edge"><title>Node13&#45;&gt;Node7</title>
<path style="fill:none;stroke:midnightblue;" d="M1217,-392C1260,-377 1328,-345 1328,-290 1328,-290 1328,-290 1328,-234 1328,-136 974,-83 865,-69"/>
<polygon style="fill:midnightblue;stroke:midnightblue;" points="865.299,-65.5125 855,-68 864.602,-72.4778 865.299,-65.5125"/>
</g>
<!-- Node13&#45;&gt;Node8 -->
<g id="edge180" class="edge"><title>Node13&#45;&gt;Node8</title>
<path style="fill:none;stroke:midnightblue;" d="M1134,-401C950,-395 301,-376 262,-356 147,-298 122,-253 79,-132 74,-117 75,-99 77,-86"/>
<polygon style="fill:midnightblue;stroke:midnightblue;" points="80.4708,-86.4922 79,-76 73.6067,-85.1194 80.4708,-86.4922"/>
</g>
<!-- Node13&#45;&gt;Node9 -->
<g id="edge182" class="edge"><title>Node13&#45;&gt;Node9</title>
<path style="fill:none;stroke:midnightblue;" d="M1231,-399C1391,-390 1886,-356 1886,-290 1886,-290 1886,-290 1886,-178 1886,-121 1711,-88 1613,-74"/>
<polygon style="fill:midnightblue;stroke:midnightblue;" points="1613.3,-70.5125 1603,-73 1612.6,-77.4778 1613.3,-70.5125"/>
</g>
<!-- Node14 -->
<g id="node29" class="node"><title>Node14</title>
<polygon style="fill:white;stroke:#bfbfbf;" points="1630,-112 1630,-132 1744,-132 1744,-112 1630,-112"/>
<text text-anchor="middle" x="1687" y="-119" style="font-family:Arial;font-size:10.00;">boost/lexical_cast.hpp</text>
</g>
<!-- Node13&#45;&gt;Node14 -->
<g id="edge30" class="edge"><title>Node13&#45;&gt;Node14</title>
<path style="fill:none;stroke:midnightblue;" d="M1231,-394C1323,-377 1516,-339 1571,-300 1601,-278 1654,-183 1676,-141"/>
<polygon style="fill:midnightblue;stroke:midnightblue;" points="1679.2,-142.441 1681,-132 1673.08,-139.042 1679.2,-142.441"/>
</g>
<!-- Node15 -->
<g id="node33" class="node"><title>Node15</title>
<a xlink:href="aliaser_8h.html" target="_top" xlink:title="ltr/interfaces/aliaser.h">
<polygon style="fill:white;stroke:black;" points="1280,-112 1280,-132 1388,-132 1388,-112 1280,-112"/>
<text text-anchor="middle" x="1334" y="-119" style="font-family:Arial;font-size:10.00;">ltr/interfaces/aliaser.h</text>
</a>
</g>
<!-- Node13&#45;&gt;Node15 -->
<g id="edge36" class="edge"><title>Node13&#45;&gt;Node15</title>
<path style="fill:none;stroke:midnightblue;" d="M1231,-394C1273,-387 1328,-373 1342,-356 1390,-290 1359,-185 1342,-141"/>
<polygon style="fill:midnightblue;stroke:midnightblue;" points="1345.26,-139.717 1338,-132 1338.86,-142.56 1345.26,-139.717"/>
</g>
<!-- Node16 -->
<g id="node37" class="node"><title>Node16</title>
<a xlink:href="feature__converter_8h.html" target="_top" xlink:title="ltr/feature_converters/feature_converter.h">
<polygon style="fill:white;stroke:black;" points="940,-336 940,-356 1130,-356 1130,-336 940,-336"/>
<text text-anchor="middle" x="1035" y="-343" style="font-family:Arial;font-size:10.00;">ltr/feature_converters/feature_converter.h</text>
</a>
</g>
<!-- Node13&#45;&gt;Node16 -->
<g id="edge42" class="edge"><title>Node13&#45;&gt;Node16</title>
<path style="fill:none;stroke:midnightblue;" d="M1156,-392C1132,-383 1097,-370 1071,-360"/>
<polygon style="fill:midnightblue;stroke:midnightblue;" points="1071.58,-356.464 1061,-356 1068.98,-362.964 1071.58,-356.464"/>
</g>
<!-- Node31 -->
<g id="node113" class="node"><title>Node31</title>
<a xlink:href="serializable__functor_8h.html" target="_top" xlink:title="ltr/interfaces/serializable_functor.h">
<polygon style="fill:white;stroke:black;" points="1661,-224 1661,-244 1824,-244 1824,-224 1661,-224"/>
<text text-anchor="middle" x="1742" y="-231" style="font-family:Arial;font-size:10.00;">ltr/interfaces/serializable_functor.h</text>
</a>
</g>
<!-- Node13&#45;&gt;Node31 -->
<g id="edge164" class="edge"><title>Node13&#45;&gt;Node31</title>
<path style="fill:none;stroke:midnightblue;" d="M1231,-400C1329,-397 1543,-386 1609,-356 1661,-332 1707,-280 1729,-252"/>
<polygon style="fill:midnightblue;stroke:midnightblue;" points="1731.8,-254.1 1735,-244 1726.2,-249.9 1731.8,-254.1"/>
</g>
<!-- Node15&#45;&gt;Node6 -->
<g id="edge38" class="edge"><title>Node15&#45;&gt;Node6</title>
<path style="fill:none;stroke:midnightblue;" d="M1345,-112C1358,-98 1378,-72 1363,-56 1342,-33 875,-15 750,-11"/>
<polygon style="fill:midnightblue;stroke:midnightblue;" points="750,-7.5001 740,-11 750,-14.5001 750,-7.5001"/>
</g>
<!-- Node16&#45;&gt;Node2 -->
<g id="edge140" class="edge"><title>Node16&#45;&gt;Node2</title>
<path style="fill:none;stroke:midnightblue;" d="M969,-336C874,-320 707,-287 666,-244 640,-217 642,-169 646,-142"/>
<polygon style="fill:midnightblue;stroke:midnightblue;" points="649.471,-142.492 648,-132 642.607,-141.119 649.471,-142.492"/>
</g>
<!-- Node16&#45;&gt;Node5 -->
<g id="edge48" class="edge"><title>Node16&#45;&gt;Node5</title>
<path style="fill:none;stroke:midnightblue;" d="M940,-342C812,-337 593,-324 518,-300 424,-270 375,-273 327,-188 322,-180 322,-175 327,-168 331,-158 394,-117 404,-112 426,-99 452,-88 473,-80"/>
<polygon style="fill:midnightblue;stroke:midnightblue;" points="474.283,-83.2598 482,-76 471.44,-76.8631 474.283,-83.2598"/>
</g>
<!-- Node16&#45;&gt;Node6 -->
<g id="edge46" class="edge"><title>Node16&#45;&gt;Node6</title>
<path style="fill:none;stroke:midnightblue;" d="M1120,-336C1181,-324 1252,-296 1252,-234 1252,-234 1252,-234 1252,-122 1252,-39 1158,-76 1078,-56 959,-26 813,-15 750,-12"/>
<polygon style="fill:midnightblue;stroke:midnightblue;" points="750.299,-8.5125 740,-11 749.602,-15.4778 750.299,-8.5125"/>
</g>
<!-- Node16&#45;&gt;Node7 -->
<g id="edge44" class="edge"><title>Node16&#45;&gt;Node7</title>
<path style="fill:none;stroke:midnightblue;" d="M940,-336C865,-328 767,-315 730,-300 641,-265 618,-224 599,-132 597,-123 593,-118 599,-112 623,-80 745,-70 803,-67"/>
<polygon style="fill:midnightblue;stroke:midnightblue;" points="803,-70.5001 813,-67 803,-63.5001 803,-70.5001"/>
</g>
<!-- Node16&#45;&gt;Node9 -->
<g id="edge162" class="edge"><title>Node16&#45;&gt;Node9</title>
<path style="fill:none;stroke:midnightblue;" d="M1130,-338C1190,-332 1268,-320 1335,-300 1448,-265 1512,-287 1576,-188 1596,-155 1576,-110 1561,-85"/>
<polygon style="fill:midnightblue;stroke:midnightblue;" points="1563.92,-83.0418 1556,-76 1557.8,-86.4414 1563.92,-83.0418"/>
</g>
<!-- Node16&#45;&gt;Node15 -->
<g id="edge160" class="edge"><title>Node16&#45;&gt;Node15</title>
<path style="fill:none;stroke:midnightblue;" d="M1130,-336C1184,-329 1245,-317 1266,-300 1314,-259 1328,-180 1332,-142"/>
<polygon style="fill:midnightblue;stroke:midnightblue;" points="1335.49,-142.299 1333,-132 1328.52,-141.602 1335.49,-142.299"/>
</g>
<!-- Node17 -->
<g id="node42" class="node"><title>Node17</title>
<a xlink:href="data__set_8h.html" target="_top" xlink:title="ltr/data/data_set.h">
<polygon style="fill:white;stroke:black;" points="828,-280 828,-300 923,-300 923,-280 828,-280"/>
<text text-anchor="middle" x="875" y="-287" style="font-family:Arial;font-size:10.00;">ltr/data/data_set.h</text>
</a>
</g>
<!-- Node16&#45;&gt;Node17 -->
<g id="edge50" class="edge"><title>Node16&#45;&gt;Node17</title>
<path style="fill:none;stroke:midnightblue;" d="M1006,-336C980,-327 942,-313 914,-303"/>
<polygon style="fill:midnightblue;stroke:midnightblue;" points="914.584,-299.521 904,-300 912.573,-306.226 914.584,-299.521"/>
</g>
<!-- Node21 -->
<g id="node66" class="node"><title>Node21</title>
<a xlink:href="feature__info_8h.html" target="_top" xlink:title="ltr/data/feature_info.h">
<polygon style="fill:white;stroke:black;" points="1042,-224 1042,-244 1149,-244 1149,-224 1042,-224"/>
<text text-anchor="middle" x="1095" y="-231" style="font-family:Arial;font-size:10.00;">ltr/data/feature_info.h</text>
</a>
</g>
<!-- Node16&#45;&gt;Node21 -->
<g id="edge138" class="edge"><title>Node16&#45;&gt;Node21</title>
<path style="fill:none;stroke:midnightblue;" d="M1041,-336C1051,-317 1072,-277 1084,-253"/>
<polygon style="fill:midnightblue;stroke:midnightblue;" points="1087.2,-254.441 1089,-244 1081.08,-251.042 1087.2,-254.441"/>
</g>
<!-- Node16&#45;&gt;Node22 -->
<g id="edge144" class="edge"><title>Node16&#45;&gt;Node22</title>
<path style="fill:none;stroke:midnightblue;" d="M940,-344C820,-340 622,-329 555,-300 501,-277 453,-224 431,-196"/>
<polygon style="fill:midnightblue;stroke:midnightblue;" points="433.8,-193.9 425,-188 428.2,-198.1 433.8,-193.9"/>
</g>
<!-- Node28 -->
<g id="node90" class="node"><title>Node28</title>
<a xlink:href="per__object__accessor_8h.html" target="_top" xlink:title="ltr/data/per_object_accessor.h">
<polygon style="fill:white;stroke:black;" points="802,-224 802,-244 949,-244 949,-224 802,-224"/>
<text text-anchor="middle" x="875" y="-231" style="font-family:Arial;font-size:10.00;">ltr/data/per_object_accessor.h</text>
</a>
</g>
<!-- Node16&#45;&gt;Node28 -->
<g id="edge142" class="edge"><title>Node16&#45;&gt;Node28</title>
<path style="fill:none;stroke:midnightblue;" d="M1021,-336C993,-316 931,-274 898,-250"/>
<polygon style="fill:midnightblue;stroke:midnightblue;" points="900.1,-247.2 890,-244 895.9,-252.8 900.1,-247.2"/>
</g>
<!-- Node16&#45;&gt;Node29 -->
<g id="edge146" class="edge"><title>Node16&#45;&gt;Node29</title>
<path style="fill:none;stroke:midnightblue;" d="M1130,-338C1183,-332 1248,-321 1304,-300 1375,-273 1448,-221 1482,-194"/>
<polygon style="fill:midnightblue;stroke:midnightblue;" points="1484.1,-196.8 1490,-188 1479.9,-191.2 1484.1,-196.8"/>
</g>
<!-- Node17&#45;&gt;Node2 -->
<g id="edge60" class="edge"><title>Node17&#45;&gt;Node2</title>
<path style="fill:none;stroke:midnightblue;" d="M828,-284C779,-276 707,-263 687,-244 658,-217 651,-169 650,-142"/>
<polygon style="fill:midnightblue;stroke:midnightblue;" points="653.5,-142 650,-132 646.5,-142 653.5,-142"/>
</g>
<!-- Node17&#45;&gt;Node5 -->
<g id="edge54" class="edge"><title>Node17&#45;&gt;Node5</title>
<path style="fill:none;stroke:midnightblue;" d="M828,-288C708,-283 399,-263 337,-188 331,-181 332,-175 337,-168 354,-138 374,-148 404,-132 433,-115 465,-95 486,-81"/>
<polygon style="fill:midnightblue;stroke:midnightblue;" points="487.958,-83.916 495,-76 484.559,-77.7969 487.958,-83.916"/>
</g>
<!-- Node17&#45;&gt;Node6 -->
<g id="edge56" class="edge"><title>Node17&#45;&gt;Node6</title>
<path style="fill:none;stroke:midnightblue;" d="M828,-287C723,-280 474,-262 392,-244 247,-211 206,-206 79,-132 46,-112 30,-110 15,-76 11,-67 8,-62 15,-56 37,-31 556,-15 690,-11"/>
<polygon style="fill:midnightblue;stroke:midnightblue;" points="690,-14.5001 700,-11 690,-7.5001 690,-14.5001"/>
</g>
<!-- Node17&#45;&gt;Node7 -->
<g id="edge58" class="edge"><title>Node17&#45;&gt;Node7</title>
<path style="fill:none;stroke:midnightblue;" d="M918,-280C937,-273 958,-262 970,-244 977,-232 983,-195 967,-168 951,-141 932,-150 908,-132 888,-117 866,-97 851,-83"/>
<polygon style="fill:midnightblue;stroke:midnightblue;" points="853.546,-80.5962 844,-76 848.596,-85.546 853.546,-80.5962"/>
</g>
<!-- Node17&#45;&gt;Node15 -->
<g id="edge136" class="edge"><title>Node17&#45;&gt;Node15</title>
<path style="fill:none;stroke:midnightblue;" d="M923,-285C992,-276 1115,-260 1157,-244 1190,-230 1273,-169 1313,-138"/>
<polygon style="fill:midnightblue;stroke:midnightblue;" points="1315.1,-140.8 1321,-132 1310.9,-135.2 1315.1,-140.8"/>
</g>
<!-- Node18 -->
<g id="node44" class="node"><title>Node18</title>
<polygon style="fill:white;stroke:#bfbfbf;" points="696,-224 696,-244 747,-244 747,-224 696,-224"/>
<text text-anchor="middle" x="721" y="-231" style="font-family:Arial;font-size:10.00;">sstream</text>
</g>
<!-- Node17&#45;&gt;Node18 -->
<g id="edge52" class="edge"><title>Node17&#45;&gt;Node18</title>
<path style="fill:none;stroke:midnightblue;" d="M847,-280C822,-271 784,-257 757,-247"/>
<polygon style="fill:midnightblue;stroke:midnightblue;" points="757.584,-243.521 747,-244 755.573,-250.226 757.584,-243.521"/>
</g>
<!-- Node19 -->
<g id="node50" class="node"><title>Node19</title>
<a xlink:href="object__list_8h.html" target="_top" xlink:title="ltr/data/object_list.h">
<polygon style="fill:white;stroke:black;" points="856,-168 856,-188 958,-188 958,-168 856,-168"/>
<text text-anchor="middle" x="907" y="-175" style="font-family:Arial;font-size:10.00;">ltr/data/object_list.h</text>
</a>
</g>
<!-- Node17&#45;&gt;Node19 -->
<g id="edge62" class="edge"><title>Node17&#45;&gt;Node19</title>
<path style="fill:none;stroke:midnightblue;" d="M909,-280C927,-273 946,-261 957,-244 967,-226 950,-207 932,-194"/>
<polygon style="fill:midnightblue;stroke:midnightblue;" points="934.1,-191.2 924,-188 929.9,-196.8 934.1,-191.2"/>
</g>
<!-- Node20 -->
<g id="node58" class="node"><title>Node20</title>
<a xlink:href="object__pair_8h.html" target="_top" xlink:title="ltr/data/object_pair.h">
<polygon style="fill:white;stroke:black;" points="696,-168 696,-188 800,-188 800,-168 696,-168"/>
<text text-anchor="middle" x="748" y="-175" style="font-family:Arial;font-size:10.00;">ltr/data/object_pair.h</text>
</a>
</g>
<!-- Node17&#45;&gt;Node20 -->
<g id="edge76" class="edge"><title>Node17&#45;&gt;Node20</title>
<path style="fill:none;stroke:midnightblue;" d="M851,-280C833,-272 810,-260 793,-244 778,-230 765,-211 758,-197"/>
<polygon style="fill:midnightblue;stroke:midnightblue;" points="760.916,-195.042 753,-188 754.797,-198.441 760.916,-195.042"/>
</g>
<!-- Node17&#45;&gt;Node21 -->
<g id="edge90" class="edge"><title>Node17&#45;&gt;Node21</title>
<path style="fill:none;stroke:midnightblue;" d="M914,-280C951,-271 1006,-256 1046,-246"/>
<polygon style="fill:midnightblue;stroke:midnightblue;" points="1046.88,-249.393 1056,-244 1045.51,-242.529 1046.88,-249.393"/>
</g>
<!-- Node17&#45;&gt;Node28 -->
<g id="edge124" class="edge"><title>Node17&#45;&gt;Node28</title>
<path style="fill:none;stroke:midnightblue;" d="M875,-280C875,-273 875,-263 875,-254"/>
<polygon style="fill:midnightblue;stroke:midnightblue;" points="878.5,-254 875,-244 871.5,-254 878.5,-254"/>
</g>
<!-- Node19&#45;&gt;Node2 -->
<g id="edge70" class="edge"><title>Node19&#45;&gt;Node2</title>
<path style="fill:none;stroke:midnightblue;" d="M861,-168C816,-159 749,-143 702,-133"/>
<polygon style="fill:midnightblue;stroke:midnightblue;" points="702.492,-129.529 692,-131 701.119,-136.393 702.492,-129.529"/>
</g>
<!-- Node19&#45;&gt;Node5 -->
<g id="edge64" class="edge"><title>Node19&#45;&gt;Node5</title>
<path style="fill:none;stroke:midnightblue;" d="M878,-168C839,-154 765,-129 701,-112 650,-97 590,-83 551,-74"/>
<polygon style="fill:midnightblue;stroke:midnightblue;" points="551.492,-70.5292 541,-72 550.119,-77.3933 551.492,-70.5292"/>
</g>
<!-- Node19&#45;&gt;Node6 -->
<g id="edge66" class="edge"><title>Node19&#45;&gt;Node6</title>
<path style="fill:none;stroke:midnightblue;" d="M906,-168C904,-145 896,-87 864,-56 847,-40 787,-24 750,-16"/>
<polygon style="fill:midnightblue;stroke:midnightblue;" points="750.492,-12.5292 740,-14 749.119,-19.3933 750.492,-12.5292"/>
</g>
<!-- Node19&#45;&gt;Node7 -->
<g id="edge68" class="edge"><title>Node19&#45;&gt;Node7</title>
<path style="fill:none;stroke:midnightblue;" d="M893,-168C882,-159 867,-146 858,-132 849,-118 842,-100 838,-86"/>
<polygon style="fill:midnightblue;stroke:midnightblue;" points="841.393,-85.1194 836,-76 834.529,-86.4922 841.393,-85.1194"/>
</g>
<!-- Node19&#45;&gt;Node8 -->
<g id="edge72" class="edge"><title>Node19&#45;&gt;Node8</title>
<path style="fill:none;stroke:midnightblue;" d="M856,-172C841,-171 824,-169 809,-168 733,-162 195,-168 129,-132 110,-121 97,-101 90,-85"/>
<polygon style="fill:midnightblue;stroke:midnightblue;" points="93.2598,-83.7166 86,-76 86.8631,-86.5596 93.2598,-83.7166"/>
</g>
<!-- Node19&#45;&gt;Node9 -->
<g id="edge74" class="edge"><title>Node19&#45;&gt;Node9</title>
<path style="fill:none;stroke:midnightblue;" d="M940,-168C988,-153 1080,-127 1162,-112 1275,-91 1409,-77 1486,-71"/>
<polygon style="fill:midnightblue;stroke:midnightblue;" points="1486.4,-74.4778 1496,-70 1485.7,-67.5125 1486.4,-74.4778"/>
</g>
<!-- Node20&#45;&gt;Node2 -->
<g id="edge84" class="edge"><title>Node20&#45;&gt;Node2</title>
<path style="fill:none;stroke:midnightblue;" d="M730,-168C715,-160 693,-147 677,-137"/>
<polygon style="fill:midnightblue;stroke:midnightblue;" points="678.441,-133.797 668,-132 675.042,-139.916 678.441,-133.797"/>
</g>
<!-- Node20&#45;&gt;Node5 -->
<g id="edge78" class="edge"><title>Node20&#45;&gt;Node5</title>
<path style="fill:none;stroke:midnightblue;" d="M702,-168C671,-160 631,-148 599,-132 573,-118 547,-97 530,-83"/>
<polygon style="fill:midnightblue;stroke:midnightblue;" points="531.831,-79.9511 522,-76 527.221,-85.2191 531.831,-79.9511"/>
</g>
<!-- Node20&#45;&gt;Node6 -->
<g id="edge80" class="edge"><title>Node20&#45;&gt;Node6</title>
<path style="fill:none;stroke:midnightblue;" d="M746,-168C741,-141 730,-66 724,-30"/>
<polygon style="fill:midnightblue;stroke:midnightblue;" points="727.393,-29.1194 722,-20 720.529,-30.4922 727.393,-29.1194"/>
</g>
<!-- Node20&#45;&gt;Node7 -->
<g id="edge82" class="edge"><title>Node20&#45;&gt;Node7</title>
<path style="fill:none;stroke:midnightblue;" d="M756,-168C770,-148 802,-108 820,-84"/>
<polygon style="fill:midnightblue;stroke:midnightblue;" points="822.8,-86.1 826,-76 817.2,-81.9 822.8,-86.1"/>
</g>
<!-- Node20&#45;&gt;Node8 -->
<g id="edge86" class="edge"><title>Node20&#45;&gt;Node8</title>
<path style="fill:none;stroke:midnightblue;" d="M696,-176C545,-170 118,-151 96,-132 83,-121 80,-101 80,-86"/>
<polygon style="fill:midnightblue;stroke:midnightblue;" points="83.4875,-86.2987 81,-76 76.5222,-85.6021 83.4875,-86.2987"/>
</g>
<!-- Node20&#45;&gt;Node9 -->
<g id="edge88" class="edge"><title>Node20&#45;&gt;Node9</title>
<path style="fill:none;stroke:midnightblue;" d="M788,-168C846,-153 959,-127 1057,-112 1210,-88 1391,-75 1486,-70"/>
<polygon style="fill:midnightblue;stroke:midnightblue;" points="1486.4,-73.4778 1496,-69 1485.7,-66.5125 1486.4,-73.4778"/>
</g>
<!-- Node21&#45;&gt;Node3 -->
<g id="edge92" class="edge"><title>Node21&#45;&gt;Node3</title>
<path style="fill:none;stroke:midnightblue;" d="M1092,-224C1089,-211 1083,-187 1076,-168 1065,-138 1050,-105 1040,-85"/>
<polygon style="fill:midnightblue;stroke:midnightblue;" points="1043.26,-83.7166 1036,-76 1036.86,-86.5596 1043.26,-83.7166"/>
</g>
<!-- Node21&#45;&gt;Node6 -->
<g id="edge94" class="edge"><title>Node21&#45;&gt;Node6</title>
<path style="fill:none;stroke:midnightblue;" d="M1096,-224C1100,-193 1108,-98 1057,-56 1034,-36 829,-19 750,-12"/>
<polygon style="fill:midnightblue;stroke:midnightblue;" points="750.299,-8.5125 740,-11 749.602,-15.4778 750.299,-8.5125"/>
</g>
<!-- Node21&#45;&gt;Node7 -->
<g id="edge96" class="edge"><title>Node21&#45;&gt;Node7</title>
<path style="fill:none;stroke:midnightblue;" d="M1081,-224C1063,-211 1029,-187 1000,-168 951,-136 893,-101 860,-81"/>
<polygon style="fill:midnightblue;stroke:midnightblue;" points="861.441,-77.7969 851,-76 858.042,-83.916 861.441,-77.7969"/>
</g>
<!-- Node21&#45;&gt;Node9 -->
<g id="edge122" class="edge"><title>Node21&#45;&gt;Node9</title>
<path style="fill:none;stroke:midnightblue;" d="M1108,-224C1142,-197 1235,-126 1271,-112 1309,-97 1416,-82 1486,-73"/>
<polygon style="fill:midnightblue;stroke:midnightblue;" points="1486.4,-76.4778 1496,-72 1485.7,-69.5125 1486.4,-76.4778"/>
</g>
<!-- Node21&#45;&gt;Node22 -->
<g id="edge98" class="edge"><title>Node21&#45;&gt;Node22</title>
<path style="fill:none;stroke:midnightblue;" d="M1042,-230C924,-219 639,-196 498,-185"/>
<polygon style="fill:midnightblue;stroke:midnightblue;" points="498.299,-181.512 488,-184 497.602,-188.478 498.299,-181.512"/>
</g>
<!-- Node22&#45;&gt;Node5 -->
<g id="edge100" class="edge"><title>Node22&#45;&gt;Node5</title>
<path style="fill:none;stroke:midnightblue;" d="M426,-168C442,-148 476,-108 496,-84"/>
<polygon style="fill:midnightblue;stroke:midnightblue;" points="498.8,-86.1 502,-76 493.2,-81.9 498.8,-86.1"/>
</g>
<!-- Node22&#45;&gt;Node6 -->
<g id="edge102" class="edge"><title>Node22&#45;&gt;Node6</title>
<path style="fill:none;stroke:midnightblue;" d="M435,-168C486,-140 631,-59 693,-25"/>
<polygon style="fill:midnightblue;stroke:midnightblue;" points="694.958,-27.916 702,-20 691.559,-21.7969 694.958,-27.916"/>
</g>
<!-- Node22&#45;&gt;Node23 -->
<g id="edge104" class="edge"><title>Node22&#45;&gt;Node23</title>
<path style="fill:none;stroke:midnightblue;" d="M387,-168C360,-159 319,-145 290,-135"/>
<polygon style="fill:midnightblue;stroke:midnightblue;" points="290.584,-131.521 280,-132 288.573,-138.226 290.584,-131.521"/>
</g>
<!-- Node23&#45;&gt;Node5 -->
<g id="edge110" class="edge"><title>Node23&#45;&gt;Node5</title>
<path style="fill:none;stroke:midnightblue;" d="M298,-112C343,-103 410,-89 468,-76 469,-76 471,-75 472,-75"/>
<polygon style="fill:midnightblue;stroke:midnightblue;" points="472.881,-78.3933 482,-73 471.508,-71.5292 472.881,-78.3933"/>
</g>
<!-- Node23&#45;&gt;Node6 -->
<g id="edge112" class="edge"><title>Node23&#45;&gt;Node6</title>
<path style="fill:none;stroke:midnightblue;" d="M304,-112C341,-104 392,-92 435,-76 452,-69 454,-62 473,-56 548,-29 642,-18 690,-13"/>
<polygon style="fill:midnightblue;stroke:midnightblue;" points="690.398,-16.4778 700,-12 689.701,-9.5125 690.398,-16.4778"/>
</g>
<!-- Node23&#45;&gt;Node8 -->
<g id="edge120" class="edge"><title>Node23&#45;&gt;Node8</title>
<path style="fill:none;stroke:midnightblue;" d="M220,-112C193,-103 152,-89 122,-79"/>
<polygon style="fill:midnightblue;stroke:midnightblue;" points="122.584,-75.5212 112,-76 120.573,-82.2259 122.584,-75.5212"/>
</g>
<!-- Node23&#45;&gt;Node9 -->
<g id="edge118" class="edge"><title>Node23&#45;&gt;Node9</title>
<path style="fill:none;stroke:midnightblue;" d="M363,-118C564,-110 997,-93 1363,-76 1404,-74 1450,-72 1486,-70"/>
<polygon style="fill:midnightblue;stroke:midnightblue;" points="1486.4,-73.4778 1496,-69 1485.7,-66.5125 1486.4,-73.4778"/>
</g>
<!-- Node24 -->
<g id="node77" class="node"><title>Node24</title>
<polygon style="fill:white;stroke:#bfbfbf;" points="1280,-56 1280,-76 1354,-76 1354,-56 1280,-56"/>
<text text-anchor="middle" x="1317" y="-63" style="font-family:Arial;font-size:10.00;">logog/logog.h</text>
</g>
<!-- Node23&#45;&gt;Node24 -->
<g id="edge106" class="edge"><title>Node23&#45;&gt;Node24</title>
<path style="fill:none;stroke:midnightblue;" d="M363,-116C594,-104 1110,-77 1270,-69"/>
<polygon style="fill:midnightblue;stroke:midnightblue;" points="1270.4,-72.4778 1280,-68 1269.7,-65.5125 1270.4,-72.4778"/>
</g>
<!-- Node25 -->
<g id="node79" class="node"><title>Node25</title>
<polygon style="fill:white;stroke:#bfbfbf;" points="398,-56 398,-76 427,-76 427,-56 398,-56"/>
<text text-anchor="middle" x="412" y="-63" style="font-family:Arial;font-size:10.00;">list</text>
</g>
<!-- Node23&#45;&gt;Node25 -->
<g id="edge108" class="edge"><title>Node23&#45;&gt;Node25</title>
<path style="fill:none;stroke:midnightblue;" d="M283,-112C309,-104 347,-92 389,-76"/>
<polygon style="fill:midnightblue;stroke:midnightblue;" points="390.283,-79.2598 398,-72 387.44,-72.8631 390.283,-79.2598"/>
</g>
<!-- Node26 -->
<g id="node83" class="node"><title>Node26</title>
<polygon style="fill:white;stroke:#bfbfbf;" points="158,-56 158,-76 235,-76 235,-56 158,-56"/>
<text text-anchor="middle" x="196" y="-63" style="font-family:Arial;font-size:10.00;">boost/any.hpp</text>
</g>
<!-- Node23&#45;&gt;Node26 -->
<g id="edge114" class="edge"><title>Node23&#45;&gt;Node26</title>
<path style="fill:none;stroke:midnightblue;" d="M240,-112C233,-104 222,-93 213,-83"/>
<polygon style="fill:midnightblue;stroke:midnightblue;" points="215.546,-80.5962 206,-76 210.596,-85.546 215.546,-80.5962"/>
</g>
<!-- Node27 -->
<g id="node85" class="node"><title>Node27</title>
<polygon style="fill:white;stroke:#bfbfbf;" points="252,-56 252,-76 381,-76 381,-56 252,-56"/>
<text text-anchor="middle" x="316" y="-63" style="font-family:Arial;font-size:10.00;">boost/unordered_map.hpp</text>
</g>
<!-- Node23&#45;&gt;Node27 -->
<g id="edge116" class="edge"><title>Node23&#45;&gt;Node27</title>
<path style="fill:none;stroke:midnightblue;" d="M262,-112C272,-104 285,-93 296,-83"/>
<polygon style="fill:midnightblue;stroke:midnightblue;" points="298.779,-85.2191 304,-76 294.169,-79.9511 298.779,-85.2191"/>
</g>
<!-- Node28&#45;&gt;Node2 -->
<g id="edge126" class="edge"><title>Node28&#45;&gt;Node2</title>
<path style="fill:none;stroke:midnightblue;" d="M868,-224C856,-209 834,-183 809,-168 775,-148 735,-136 702,-130"/>
<polygon style="fill:midnightblue;stroke:midnightblue;" points="702.492,-126.529 692,-128 701.119,-133.393 702.492,-126.529"/>
</g>
<!-- Node28&#45;&gt;Node9 -->
<g id="edge134" class="edge"><title>Node28&#45;&gt;Node9</title>
<path style="fill:none;stroke:midnightblue;" d="M899,-224C955,-200 1100,-142 1227,-112 1315,-90 1420,-77 1486,-71"/>
<polygon style="fill:midnightblue;stroke:midnightblue;" points="1486.4,-74.4778 1496,-70 1485.7,-67.5125 1486.4,-74.4778"/>
</g>
<!-- Node28&#45;&gt;Node19 -->
<g id="edge130" class="edge"><title>Node28&#45;&gt;Node19</title>
<path style="fill:none;stroke:midnightblue;" d="M881,-224C886,-217 891,-206 896,-197"/>
<polygon style="fill:midnightblue;stroke:midnightblue;" points="899.203,-198.441 901,-188 893.084,-195.042 899.203,-198.441"/>
</g>
<!-- Node28&#45;&gt;Node20 -->
<g id="edge128" class="edge"><title>Node28&#45;&gt;Node20</title>
<path style="fill:none;stroke:midnightblue;" d="M852,-224C832,-215 803,-202 780,-192"/>
<polygon style="fill:midnightblue;stroke:midnightblue;" points="781.56,-188.863 771,-188 778.717,-195.26 781.56,-188.863"/>
</g>
<!-- Node28&#45;&gt;Node22 -->
<g id="edge132" class="edge"><title>Node28&#45;&gt;Node22</title>
<path style="fill:none;stroke:midnightblue;" d="M802,-225C719,-214 584,-198 498,-188"/>
<polygon style="fill:midnightblue;stroke:midnightblue;" points="498.299,-184.512 488,-187 497.602,-191.478 498.299,-184.512"/>
</g>
<!-- Node29&#45;&gt;Node6 -->
<g id="edge152" class="edge"><title>Node29&#45;&gt;Node6</title>
<path style="fill:none;stroke:midnightblue;" d="M1496,-168C1480,-143 1435,-81 1379,-56 1321,-29 871,-15 750,-11"/>
<polygon style="fill:midnightblue;stroke:midnightblue;" points="750,-7.5001 740,-11 750,-14.5001 750,-7.5001"/>
</g>
<!-- Node29&#45;&gt;Node9 -->
<g id="edge156" class="edge"><title>Node29&#45;&gt;Node9</title>
<path style="fill:none;stroke:midnightblue;" d="M1516,-168C1526,-159 1539,-146 1545,-132 1550,-117 1552,-100 1551,-86"/>
<polygon style="fill:midnightblue;stroke:midnightblue;" points="1554.48,-85.6021 1550,-76 1547.51,-86.2987 1554.48,-85.6021"/>
</g>
<!-- Node29&#45;&gt;Node14 -->
<g id="edge148" class="edge"><title>Node29&#45;&gt;Node14</title>
<path style="fill:none;stroke:midnightblue;" d="M1536,-168C1566,-159 1611,-145 1644,-135"/>
<polygon style="fill:midnightblue;stroke:midnightblue;" points="1645.43,-138.226 1654,-132 1643.42,-131.521 1645.43,-138.226"/>
</g>
<!-- Node29&#45;&gt;Node15 -->
<g id="edge158" class="edge"><title>Node29&#45;&gt;Node15</title>
<path style="fill:none;stroke:midnightblue;" d="M1473,-168C1445,-159 1404,-145 1374,-135"/>
<polygon style="fill:midnightblue;stroke:midnightblue;" points="1374.58,-131.521 1364,-132 1372.57,-138.226 1374.58,-131.521"/>
</g>
<!-- Node29&#45;&gt;Node24 -->
<g id="edge150" class="edge"><title>Node29&#45;&gt;Node24</title>
<path style="fill:none;stroke:midnightblue;" d="M1487,-168C1466,-155 1429,-131 1397,-112 1380,-101 1359,-90 1344,-81"/>
<polygon style="fill:midnightblue;stroke:midnightblue;" points="1345.44,-77.7969 1335,-76 1342.04,-83.916 1345.44,-77.7969"/>
</g>
<!-- Node30 -->
<g id="node107" class="node"><title>Node30</title>
<polygon style="fill:white;stroke:#bfbfbf;" points="1482,-112 1482,-132 1536,-132 1536,-112 1482,-112"/>
<text text-anchor="middle" x="1509" y="-119" style="font-family:Arial;font-size:10.00;">iostream</text>
</g>
<!-- Node29&#45;&gt;Node30 -->
<g id="edge154" class="edge"><title>Node29&#45;&gt;Node30</title>
<path style="fill:none;stroke:midnightblue;" d="M1504,-168C1505,-161 1506,-151 1507,-142"/>
<polygon style="fill:midnightblue;stroke:midnightblue;" points="1510.49,-142.299 1508,-132 1503.52,-141.602 1510.49,-142.299"/>
</g>
<!-- Node31&#45;&gt;Node9 -->
<g id="edge166" class="edge"><title>Node31&#45;&gt;Node9</title>
<path style="fill:none;stroke:midnightblue;" d="M1759,-224C1770,-215 1784,-203 1791,-188 1802,-162 1769,-112 1769,-112 1745,-92 1669,-79 1613,-72"/>
<polygon style="fill:midnightblue;stroke:midnightblue;" points="1613.3,-68.5125 1603,-71 1612.6,-75.4778 1613.3,-68.5125"/>
</g>
<!-- Node31&#45;&gt;Node29 -->
<g id="edge178" class="edge"><title>Node31&#45;&gt;Node29</title>
<path style="fill:none;stroke:midnightblue;" d="M1699,-224C1659,-215 1599,-200 1556,-190"/>
<polygon style="fill:midnightblue;stroke:midnightblue;" points="1556.49,-186.529 1546,-188 1555.12,-193.393 1556.49,-186.529"/>
</g>
<!-- Node32 -->
<g id="node116" class="node"><title>Node32</title>
<a xlink:href="functor_8h.html" target="_top" xlink:title="ltr/interfaces/functor.h">
<polygon style="fill:white;stroke:black;" points="1674,-168 1674,-188 1783,-188 1783,-168 1674,-168"/>
<text text-anchor="middle" x="1728" y="-175" style="font-family:Arial;font-size:10.00;">ltr/interfaces/functor.h</text>
</a>
</g>
<!-- Node31&#45;&gt;Node32 -->
<g id="edge168" class="edge"><title>Node31&#45;&gt;Node32</title>
<path style="fill:none;stroke:midnightblue;" d="M1739,-224C1738,-217 1735,-207 1733,-198"/>
<polygon style="fill:midnightblue;stroke:midnightblue;" points="1736.23,-196.573 1730,-188 1729.52,-198.584 1736.23,-196.573"/>
</g>
<!-- Node32&#45;&gt;Node2 -->
<g id="edge176" class="edge"><title>Node32&#45;&gt;Node2</title>
<path style="fill:none;stroke:midnightblue;" d="M1674,-174C1645,-172 1608,-169 1576,-168 1243,-148 844,-131 702,-124"/>
<polygon style="fill:midnightblue;stroke:midnightblue;" points="702,-120.5 692,-124 702,-127.5 702,-120.5"/>
</g>
<!-- Node32&#45;&gt;Node6 -->
<g id="edge174" class="edge"><title>Node32&#45;&gt;Node6</title>
<path style="fill:none;stroke:midnightblue;" d="M1742,-168C1758,-155 1782,-131 1769,-112 1726,-51 1684,-70 1611,-56 1441,-22 886,-12 750,-10"/>
<polygon style="fill:midnightblue;stroke:midnightblue;" points="750,-6.5001 740,-10 750,-13.5001 750,-6.5001"/>
</g>
<!-- Node32&#45;&gt;Node9 -->
<g id="edge170" class="edge"><title>Node32&#45;&gt;Node9</title>
<path style="fill:none;stroke:midnightblue;" d="M1737,-168C1749,-154 1766,-129 1753,-112 1735,-90 1666,-78 1613,-72"/>
<polygon style="fill:midnightblue;stroke:midnightblue;" points="1613.3,-68.5125 1603,-71 1612.6,-75.4778 1613.3,-68.5125"/>
</g>
<!-- Node32&#45;&gt;Node14 -->
<g id="edge172" class="edge"><title>Node32&#45;&gt;Node14</title>
<path style="fill:none;stroke:midnightblue;" d="M1721,-168C1716,-160 1707,-150 1701,-140"/>
<polygon style="fill:midnightblue;stroke:midnightblue;" points="1703.8,-137.9 1695,-132 1698.2,-142.1 1703.8,-137.9"/>
</g>
</g>
</svg>
