<?xml version="1.0" encoding="UTF-8" standalone="no"?>
<!DOCTYPE svg PUBLIC "-//W3C//DTD SVG 1.0//EN"
 "http://www.w3.org/TR/2001/REC-SVG-20010904/DTD/svg10.dtd" [
 <!ATTLIST svg xmlns:xlink CDATA #FIXED "http://www.w3.org/1999/xlink">
]>
<!-- Generated by Graphviz version 2.20.2 (Tue Mar &#160;2 19:03:41 UTC 2010)
     For user: (jenkins)  -->
<!-- Title: G Pages: 1 -->
<svg width="2176pt" height="532pt"
 viewBox="0.00 0.00 2176.00 532.00" xmlns="http://www.w3.org/2000/svg" xmlns:xlink="http://www.w3.org/1999/xlink">
<g id="graph0" class="graph" transform="scale(1 1) rotate(0) translate(4 528)">
<title>G</title>
<polygon style="fill:white;stroke:white;" points="-4,4 -4,-528 2172,-528 2172,4 -4,4"/>
<!-- Node1 -->
<g id="node1" class="node"><title>Node1</title>
<polygon style="fill:#bfbfbf;stroke:black;" points="225,-504 225,-524 487,-524 487,-504 225,-504"/>
<text text-anchor="middle" x="356" y="-511" style="font-family:Arial;font-size:10.00;">ltr/density_estimators/base_probability_density_learner.h</text>
</g>
<!-- Node2 -->
<g id="node3" class="node"><title>Node2</title>
<polygon style="fill:white;stroke:#bfbfbf;" points="140,-56 140,-76 175,-76 175,-56 140,-56"/>
<text text-anchor="middle" x="157" y="-63" style="font-family:Arial;font-size:10.00;">map</text>
</g>
<!-- Node1&#45;&gt;Node2 -->
<g id="edge2" class="edge"><title>Node1&#45;&gt;Node2</title>
<path style="fill:none;stroke:midnightblue;" d="M275,-504C210,-495 123,-482 91,-468 45,-448 0,-451 0,-402 0,-402 0,-402 0,-178 0,-115 85,-84 130,-72"/>
<polygon style="fill:midnightblue;stroke:midnightblue;" points="130.881,-75.3933 140,-70 129.508,-68.5292 130.881,-75.3933"/>
</g>
<!-- Node3 -->
<g id="node5" class="node"><title>Node3</title>
<polygon style="fill:white;stroke:#bfbfbf;" points="218,-392 218,-412 290,-412 290,-392 218,-392"/>
<text text-anchor="middle" x="254" y="-399" style="font-family:Arial;font-size:10.00;">Eigen/Dense</text>
</g>
<!-- Node1&#45;&gt;Node3 -->
<g id="edge4" class="edge"><title>Node1&#45;&gt;Node3</title>
<path style="fill:none;stroke:midnightblue;" d="M347,-504C329,-484 292,-443 270,-419"/>
<polygon style="fill:midnightblue;stroke:midnightblue;" points="272.546,-416.596 263,-412 267.596,-421.546 272.546,-416.596"/>
</g>
<!-- Node4 -->
<g id="node7" class="node"><title>Node4</title>
<a xlink:href="eigen__converters_8h.html" target="_top" xlink:title="ltr/utility/eigen_converters.h">
<polygon style="fill:white;stroke:black;" points="132,-448 132,-468 267,-468 267,-448 132,-448"/>
<text text-anchor="middle" x="199" y="-455" style="font-family:Arial;font-size:10.00;">ltr/utility/eigen_converters.h</text>
</a>
</g>
<!-- Node1&#45;&gt;Node4 -->
<g id="edge6" class="edge"><title>Node1&#45;&gt;Node4</title>
<path style="fill:none;stroke:midnightblue;" d="M328,-504C303,-495 265,-481 237,-471"/>
<polygon style="fill:midnightblue;stroke:midnightblue;" points="237.584,-467.521 227,-468 235.573,-474.226 237.584,-467.521"/>
</g>
<!-- Node6 -->
<g id="node12" class="node"><title>Node6</title>
<a xlink:href="object_8h.html" target="_top" xlink:title="ltr/data/object.h">
<polygon style="fill:white;stroke:black;" points="306,-112 306,-132 390,-132 390,-112 306,-112"/>
<text text-anchor="middle" x="348" y="-119" style="font-family:Arial;font-size:10.00;">ltr/data/object.h</text>
</a>
</g>
<!-- Node1&#45;&gt;Node6 -->
<g id="edge210" class="edge"><title>Node1&#45;&gt;Node6</title>
<path style="fill:none;stroke:midnightblue;" d="M273,-504C216,-496 147,-484 123,-468 92,-448 76,-438 76,-402 76,-402 76,-402 76,-234 76,-189 112,-188 152,-168 197,-145 254,-133 296,-127"/>
<polygon style="fill:midnightblue;stroke:midnightblue;" points="296.398,-130.478 306,-126 295.701,-123.512 296.398,-130.478"/>
</g>
<!-- Node11 -->
<g id="node26" class="node"><title>Node11</title>
<a xlink:href="shared__ptr_8h.html" target="_top" xlink:title="ltr/utility/shared_ptr.h">
<polygon style="fill:white;stroke:black;" points="1896,-56 1896,-76 2003,-76 2003,-56 1896,-56"/>
<text text-anchor="middle" x="1949" y="-63" style="font-family:Arial;font-size:10.00;">ltr/utility/shared_ptr.h</text>
</a>
</g>
<!-- Node1&#45;&gt;Node11 -->
<g id="edge38" class="edge"><title>Node1&#45;&gt;Node11</title>
<path style="fill:none;stroke:midnightblue;" d="M487,-513C903,-508 2168,-486 2168,-402 2168,-402 2168,-402 2168,-178 2168,-108 2078,-82 2013,-71"/>
<polygon style="fill:midnightblue;stroke:midnightblue;" points="2013.3,-67.5125 2003,-70 2012.6,-74.4778 2013.3,-67.5125"/>
</g>
<!-- Node15 -->
<g id="node35" class="node"><title>Node15</title>
<a xlink:href="base__probability__density__estimator_8h.html" target="_top" xlink:title="ltr/density_estimators/base_probability_density_estimator.h">
<polygon style="fill:white;stroke:black;" points="1474,-448 1474,-468 1747,-468 1747,-448 1474,-448"/>
<text text-anchor="middle" x="1610" y="-455" style="font-family:Arial;font-size:10.00;">ltr/density_estimators/base_probability_density_estimator.h</text>
</a>
</g>
<!-- Node1&#45;&gt;Node15 -->
<g id="edge40" class="edge"><title>Node1&#45;&gt;Node15</title>
<path style="fill:none;stroke:midnightblue;" d="M487,-508C723,-498 1217,-476 1464,-464"/>
<polygon style="fill:midnightblue;stroke:midnightblue;" points="1464,-467.5 1474,-464 1464,-460.5 1464,-467.5"/>
</g>
<!-- Node20 -->
<g id="node53" class="node"><title>Node20</title>
<a xlink:href="data__set_8h.html" target="_top" xlink:title="ltr/data/data_set.h">
<polygon style="fill:white;stroke:black;" points="564,-280 564,-300 659,-300 659,-280 564,-280"/>
<text text-anchor="middle" x="611" y="-287" style="font-family:Arial;font-size:10.00;">ltr/data/data_set.h</text>
</a>
</g>
<!-- Node1&#45;&gt;Node20 -->
<g id="edge208" class="edge"><title>Node1&#45;&gt;Node20</title>
<path style="fill:none;stroke:midnightblue;" d="M354,-504C348,-474 335,-384 380,-336 403,-310 493,-299 554,-294"/>
<polygon style="fill:midnightblue;stroke:midnightblue;" points="554.398,-297.478 564,-293 553.701,-290.512 554.398,-297.478"/>
</g>
<!-- Node25 -->
<g id="node82" class="node"><title>Node25</title>
<a xlink:href="parameterized_8h.html" target="_top" xlink:title="ltr/interfaces/parameterized.h">
<polygon style="fill:white;stroke:black;" points="1136,-168 1136,-188 1278,-188 1278,-168 1136,-168"/>
<text text-anchor="middle" x="1207" y="-175" style="font-family:Arial;font-size:10.00;">ltr/interfaces/parameterized.h</text>
</a>
</g>
<!-- Node1&#45;&gt;Node25 -->
<g id="edge214" class="edge"><title>Node1&#45;&gt;Node25</title>
<path style="fill:none;stroke:midnightblue;" d="M392,-504C541,-463 1094,-310 1110,-300 1150,-272 1181,-224 1197,-197"/>
<polygon style="fill:midnightblue;stroke:midnightblue;" points="1200.2,-198.441 1202,-188 1194.08,-195.042 1200.2,-198.441"/>
</g>
<!-- Node26 -->
<g id="node86" class="node"><title>Node26</title>
<a xlink:href="parameters__container_8h.html" target="_top" xlink:title="ltr/parameters_container/parameters_container.h">
<polygon style="fill:white;stroke:black;" points="1016,-112 1016,-132 1241,-132 1241,-112 1016,-112"/>
<text text-anchor="middle" x="1128" y="-119" style="font-family:Arial;font-size:10.00;">ltr/parameters_container/parameters_container.h</text>
</a>
</g>
<!-- Node1&#45;&gt;Node26 -->
<g id="edge212" class="edge"><title>Node1&#45;&gt;Node26</title>
<path style="fill:none;stroke:midnightblue;" d="M380,-504C411,-491 468,-467 517,-448 636,-400 961,-327 1059,-244 1092,-216 1112,-168 1122,-142"/>
<polygon style="fill:midnightblue;stroke:midnightblue;" points="1125.48,-142.584 1125,-132 1118.77,-140.573 1125.48,-142.584"/>
</g>
<!-- Node4&#45;&gt;Node3 -->
<g id="edge8" class="edge"><title>Node4&#45;&gt;Node3</title>
<path style="fill:none;stroke:midnightblue;" d="M209,-448C217,-440 228,-429 237,-419"/>
<polygon style="fill:midnightblue;stroke:midnightblue;" points="239.404,-421.546 244,-412 234.454,-416.596 239.404,-421.546"/>
</g>
<!-- Node5 -->
<g id="node10" class="node"><title>Node5</title>
<polygon style="fill:white;stroke:#bfbfbf;" points="538,-56 538,-76 580,-76 580,-56 538,-56"/>
<text text-anchor="middle" x="559" y="-63" style="font-family:Arial;font-size:10.00;">vector</text>
</g>
<!-- Node4&#45;&gt;Node5 -->
<g id="edge10" class="edge"><title>Node4&#45;&gt;Node5</title>
<path style="fill:none;stroke:midnightblue;" d="M198,-448C195,-401 190,-203 297,-112 374,-45 424,-97 528,-75"/>
<polygon style="fill:midnightblue;stroke:midnightblue;" points="528.881,-78.3933 538,-73 527.508,-71.5292 528.881,-78.3933"/>
</g>
<!-- Node4&#45;&gt;Node6 -->
<g id="edge12" class="edge"><title>Node4&#45;&gt;Node6</title>
<path style="fill:none;stroke:midnightblue;" d="M192,-448C178,-429 152,-386 152,-346 152,-346 152,-346 152,-234 152,-202 152,-189 176,-168 194,-152 252,-138 296,-131"/>
<polygon style="fill:midnightblue;stroke:midnightblue;" points="296.881,-134.393 306,-129 295.508,-127.529 296.881,-134.393"/>
</g>
<!-- Node6&#45;&gt;Node2 -->
<g id="edge14" class="edge"><title>Node6&#45;&gt;Node2</title>
<path style="fill:none;stroke:midnightblue;" d="M314,-112C277,-101 219,-85 185,-74"/>
<polygon style="fill:midnightblue;stroke:midnightblue;" points="185.584,-70.5212 175,-71 183.573,-77.2259 185.584,-70.5212"/>
</g>
<!-- Node6&#45;&gt;Node5 -->
<g id="edge22" class="edge"><title>Node6&#45;&gt;Node5</title>
<path style="fill:none;stroke:midnightblue;" d="M390,-112C425,-104 476,-92 528,-76"/>
<polygon style="fill:midnightblue;stroke:midnightblue;" points="529.427,-79.2259 538,-73 527.416,-72.5212 529.427,-79.2259"/>
</g>
<!-- Node7 -->
<g id="node15" class="node"><title>Node7</title>
<polygon style="fill:white;stroke:#bfbfbf;" points="375,-0 375,-20 426,-20 426,-0 375,-0"/>
<text text-anchor="middle" x="400" y="-7" style="font-family:Arial;font-size:10.00;">ostream</text>
</g>
<!-- Node6&#45;&gt;Node7 -->
<g id="edge16" class="edge"><title>Node6&#45;&gt;Node7</title>
<path style="fill:none;stroke:midnightblue;" d="M348,-112C349,-98 352,-74 362,-56 367,-46 374,-36 382,-27"/>
<polygon style="fill:midnightblue;stroke:midnightblue;" points="384.404,-29.546 389,-20 379.454,-24.5962 384.404,-29.546"/>
</g>
<!-- Node8 -->
<g id="node17" class="node"><title>Node8</title>
<polygon style="fill:white;stroke:#bfbfbf;" points="845,-56 845,-76 904,-76 904,-56 845,-56"/>
<text text-anchor="middle" x="874" y="-63" style="font-family:Arial;font-size:10.00;">stdexcept</text>
</g>
<!-- Node6&#45;&gt;Node8 -->
<g id="edge18" class="edge"><title>Node6&#45;&gt;Node8</title>
<path style="fill:none;stroke:midnightblue;" d="M390,-118C489,-106 738,-80 835,-70"/>
<polygon style="fill:midnightblue;stroke:midnightblue;" points="835.398,-73.4778 845,-69 834.701,-66.5125 835.398,-73.4778"/>
</g>
<!-- Node9 -->
<g id="node19" class="node"><title>Node9</title>
<polygon style="fill:white;stroke:#bfbfbf;" points="962,-0 962,-20 1002,-20 1002,-0 962,-0"/>
<text text-anchor="middle" x="982" y="-7" style="font-family:Arial;font-size:10.00;">string</text>
</g>
<!-- Node6&#45;&gt;Node9 -->
<g id="edge20" class="edge"><title>Node6&#45;&gt;Node9</title>
<path style="fill:none;stroke:midnightblue;" d="M352,-112C358,-97 372,-68 395,-56 442,-28 838,-14 952,-11"/>
<polygon style="fill:midnightblue;stroke:midnightblue;" points="952,-14.5001 962,-11 952,-7.5001 952,-14.5001"/>
</g>
<!-- Node10 -->
<g id="node22" class="node"><title>Node10</title>
<a xlink:href="printable_8h.html" target="_top" xlink:title="ltr/interfaces/printable.h">
<polygon style="fill:white;stroke:black;" points="404,-56 404,-76 521,-76 521,-56 404,-56"/>
<text text-anchor="middle" x="462" y="-63" style="font-family:Arial;font-size:10.00;">ltr/interfaces/printable.h</text>
</a>
</g>
<!-- Node6&#45;&gt;Node10 -->
<g id="edge24" class="edge"><title>Node6&#45;&gt;Node10</title>
<path style="fill:none;stroke:midnightblue;" d="M368,-112C386,-103 412,-90 432,-81"/>
<polygon style="fill:midnightblue;stroke:midnightblue;" points="433.958,-83.916 441,-76 430.559,-77.7969 433.958,-83.916"/>
</g>
<!-- Node6&#45;&gt;Node11 -->
<g id="edge30" class="edge"><title>Node6&#45;&gt;Node11</title>
<path style="fill:none;stroke:midnightblue;" d="M390,-121C563,-117 1234,-101 1786,-76 1819,-74 1856,-72 1886,-70"/>
<polygon style="fill:midnightblue;stroke:midnightblue;" points="1886.4,-73.4778 1896,-69 1885.7,-66.5125 1886.4,-73.4778"/>
</g>
<!-- Node10&#45;&gt;Node7 -->
<g id="edge26" class="edge"><title>Node10&#45;&gt;Node7</title>
<path style="fill:none;stroke:midnightblue;" d="M451,-56C442,-48 429,-37 419,-27"/>
<polygon style="fill:midnightblue;stroke:midnightblue;" points="420.831,-23.9511 411,-20 416.221,-29.2191 420.831,-23.9511"/>
</g>
<!-- Node10&#45;&gt;Node9 -->
<g id="edge28" class="edge"><title>Node10&#45;&gt;Node9</title>
<path style="fill:none;stroke:midnightblue;" d="M521,-57C524,-57 526,-56 529,-56 687,-35 878,-19 952,-13"/>
<polygon style="fill:midnightblue;stroke:midnightblue;" points="952.398,-16.4778 962,-12 951.701,-9.5125 952.398,-16.4778"/>
</g>
<!-- Node12 -->
<g id="node28" class="node"><title>Node12</title>
<polygon style="fill:white;stroke:#bfbfbf;" points="1921,-0 1921,-20 1977,-20 1977,-0 1921,-0"/>
<text text-anchor="middle" x="1949" y="-7" style="font-family:Arial;font-size:10.00;">algorithm</text>
</g>
<!-- Node11&#45;&gt;Node12 -->
<g id="edge32" class="edge"><title>Node11&#45;&gt;Node12</title>
<path style="fill:none;stroke:midnightblue;" d="M1949,-56C1949,-49 1949,-39 1949,-30"/>
<polygon style="fill:midnightblue;stroke:midnightblue;" points="1952.5,-30 1949,-20 1945.5,-30 1952.5,-30"/>
</g>
<!-- Node13 -->
<g id="node30" class="node"><title>Node13</title>
<polygon style="fill:white;stroke:#bfbfbf;" points="1995,-0 1995,-20 2102,-20 2102,-0 1995,-0"/>
<text text-anchor="middle" x="2048" y="-7" style="font-family:Arial;font-size:10.00;">boost/shared_ptr.hpp</text>
</g>
<!-- Node11&#45;&gt;Node13 -->
<g id="edge34" class="edge"><title>Node11&#45;&gt;Node13</title>
<path style="fill:none;stroke:midnightblue;" d="M1967,-56C1982,-48 2004,-35 2021,-25"/>
<polygon style="fill:midnightblue;stroke:midnightblue;" points="2022.96,-27.916 2030,-20 2019.56,-21.7969 2022.96,-27.916"/>
</g>
<!-- Node14 -->
<g id="node32" class="node"><title>Node14</title>
<polygon style="fill:white;stroke:#bfbfbf;" points="1713,-0 1713,-20 1904,-20 1904,-0 1713,-0"/>
<text text-anchor="middle" x="1808" y="-7" style="font-family:Arial;font-size:10.00;">boost/smart_ptr/detail/operator_bool.hpp</text>
</g>
<!-- Node11&#45;&gt;Node14 -->
<g id="edge36" class="edge"><title>Node11&#45;&gt;Node14</title>
<path style="fill:none;stroke:midnightblue;" d="M1924,-56C1901,-47 1868,-34 1843,-24"/>
<polygon style="fill:midnightblue;stroke:midnightblue;" points="1843.58,-20.4643 1833,-20 1840.98,-26.9636 1843.58,-20.4643"/>
</g>
<!-- Node15&#45;&gt;Node6 -->
<g id="edge42" class="edge"><title>Node15&#45;&gt;Node6</title>
<path style="fill:none;stroke:midnightblue;" d="M1474,-450C1224,-434 703,-397 527,-356 459,-340 432,-346 382,-300 338,-259 341,-180 345,-142"/>
<polygon style="fill:midnightblue;stroke:midnightblue;" points="348.488,-142.299 346,-132 341.522,-141.602 348.488,-142.299"/>
</g>
<!-- Node15&#45;&gt;Node11 -->
<g id="edge200" class="edge"><title>Node15&#45;&gt;Node11</title>
<path style="fill:none;stroke:midnightblue;" d="M1747,-451C1853,-445 1991,-432 2044,-412 2088,-394 2130,-394 2130,-346 2130,-346 2130,-346 2130,-178 2130,-122 2066,-93 2013,-79"/>
<polygon style="fill:midnightblue;stroke:midnightblue;" points="2013.58,-75.5212 2003,-76 2011.57,-82.2259 2013.58,-75.5212"/>
</g>
<!-- Node16 -->
<g id="node38" class="node"><title>Node16</title>
<a xlink:href="scorer_8h.html" target="_top" xlink:title="ltr/scorers/scorer.h">
<polygon style="fill:white;stroke:black;" points="1296,-392 1296,-412 1393,-412 1393,-392 1296,-392"/>
<text text-anchor="middle" x="1344" y="-399" style="font-family:Arial;font-size:10.00;">ltr/scorers/scorer.h</text>
</a>
</g>
<!-- Node15&#45;&gt;Node16 -->
<g id="edge44" class="edge"><title>Node15&#45;&gt;Node16</title>
<path style="fill:none;stroke:midnightblue;" d="M1562,-448C1517,-439 1450,-424 1402,-414"/>
<polygon style="fill:midnightblue;stroke:midnightblue;" points="1402.49,-410.529 1392,-412 1401.12,-417.393 1402.49,-410.529"/>
</g>
<!-- Node15&#45;&gt;Node25 -->
<g id="edge202" class="edge"><title>Node15&#45;&gt;Node25</title>
<path style="fill:none;stroke:midnightblue;" d="M1595,-448C1534,-406 1304,-246 1231,-194"/>
<polygon style="fill:midnightblue;stroke:midnightblue;" points="1232.26,-190.635 1222,-188 1228.38,-196.459 1232.26,-190.635"/>
</g>
<!-- Node15&#45;&gt;Node26 -->
<g id="edge206" class="edge"><title>Node15&#45;&gt;Node26</title>
<path style="fill:none;stroke:midnightblue;" d="M1602,-448C1568,-407 1433,-248 1287,-168 1258,-152 1225,-141 1196,-134"/>
<polygon style="fill:midnightblue;stroke:midnightblue;" points="1196.49,-130.529 1186,-132 1195.12,-137.393 1196.49,-130.529"/>
</g>
<!-- Node32 -->
<g id="node113" class="node"><title>Node32</title>
<a xlink:href="serializable_8h.html" target="_top" xlink:title="ltr/interfaces/serializable.h">
<polygon style="fill:white;stroke:black;" points="1754,-168 1754,-188 1883,-188 1883,-168 1754,-168"/>
<text text-anchor="middle" x="1818" y="-175" style="font-family:Arial;font-size:10.00;">ltr/interfaces/serializable.h</text>
</a>
</g>
<!-- Node15&#45;&gt;Node32 -->
<g id="edge204" class="edge"><title>Node15&#45;&gt;Node32</title>
<path style="fill:none;stroke:midnightblue;" d="M1747,-452C1890,-443 2092,-417 2092,-346 2092,-346 2092,-346 2092,-290 2092,-244 1960,-208 1880,-190"/>
<polygon style="fill:midnightblue;stroke:midnightblue;" points="1880.49,-186.529 1870,-188 1879.12,-193.393 1880.49,-186.529"/>
</g>
<!-- Node16&#45;&gt;Node5 -->
<g id="edge48" class="edge"><title>Node16&#45;&gt;Node5</title>
<path style="fill:none;stroke:midnightblue;" d="M1296,-398C1106,-384 418,-324 418,-234 418,-234 418,-234 418,-178 418,-148 490,-104 531,-81"/>
<polygon style="fill:midnightblue;stroke:midnightblue;" points="532.958,-83.916 540,-76 529.559,-77.7969 532.958,-83.916"/>
</g>
<!-- Node16&#45;&gt;Node6 -->
<g id="edge56" class="edge"><title>Node16&#45;&gt;Node6</title>
<path style="fill:none;stroke:midnightblue;" d="M1296,-400C1113,-392 471,-359 404,-300 357,-259 349,-180 348,-142"/>
<polygon style="fill:midnightblue;stroke:midnightblue;" points="351.5,-142 348,-132 344.5,-142 351.5,-142"/>
</g>
<!-- Node16&#45;&gt;Node9 -->
<g id="edge50" class="edge"><title>Node16&#45;&gt;Node9</title>
<path style="fill:none;stroke:midnightblue;" d="M1296,-401C1144,-399 675,-388 527,-356 316,-310 216,-273 131,-76 127,-67 124,-62 131,-56 159,-25 802,-13 952,-10"/>
<polygon style="fill:midnightblue;stroke:midnightblue;" points="952,-13.5001 962,-10 952,-6.5001 952,-13.5001"/>
</g>
<!-- Node16&#45;&gt;Node10 -->
<g id="edge196" class="edge"><title>Node16&#45;&gt;Node10</title>
<path style="fill:none;stroke:midnightblue;" d="M1296,-401C1122,-396 536,-380 456,-356 317,-313 247,-314 176,-188 127,-101 294,-77 394,-69"/>
<polygon style="fill:midnightblue;stroke:midnightblue;" points="394.398,-72.4778 404,-68 393.701,-65.5125 394.398,-72.4778"/>
</g>
<!-- Node16&#45;&gt;Node11 -->
<g id="edge198" class="edge"><title>Node16&#45;&gt;Node11</title>
<path style="fill:none;stroke:midnightblue;" d="M1393,-394C1441,-387 1514,-373 1577,-356 1713,-317 1747,-304 1876,-244 1943,-212 1984,-204 2001,-132 2002,-123 2004,-120 2001,-112 1996,-100 1985,-89 1975,-82"/>
<polygon style="fill:midnightblue;stroke:midnightblue;" points="1977.1,-79.2 1967,-76 1972.9,-84.8 1977.1,-79.2"/>
</g>
<!-- Node17 -->
<g id="node40" class="node"><title>Node17</title>
<polygon style="fill:white;stroke:#bfbfbf;" points="1650,-112 1650,-132 1764,-132 1764,-112 1650,-112"/>
<text text-anchor="middle" x="1707" y="-119" style="font-family:Arial;font-size:10.00;">boost/lexical_cast.hpp</text>
</g>
<!-- Node16&#45;&gt;Node17 -->
<g id="edge46" class="edge"><title>Node16&#45;&gt;Node17</title>
<path style="fill:none;stroke:midnightblue;" d="M1393,-393C1420,-386 1453,-374 1479,-356 1563,-294 1539,-235 1619,-168 1634,-155 1654,-144 1671,-136"/>
<polygon style="fill:midnightblue;stroke:midnightblue;" points="1672.28,-139.26 1680,-132 1669.44,-132.863 1672.28,-139.26"/>
</g>
<!-- Node18 -->
<g id="node44" class="node"><title>Node18</title>
<a xlink:href="aliaser_8h.html" target="_top" xlink:title="ltr/interfaces/aliaser.h">
<polygon style="fill:white;stroke:black;" points="1486,-112 1486,-132 1594,-132 1594,-112 1486,-112"/>
<text text-anchor="middle" x="1540" y="-119" style="font-family:Arial;font-size:10.00;">ltr/interfaces/aliaser.h</text>
</a>
</g>
<!-- Node16&#45;&gt;Node18 -->
<g id="edge52" class="edge"><title>Node16&#45;&gt;Node18</title>
<path style="fill:none;stroke:midnightblue;" d="M1382,-392C1427,-377 1496,-346 1496,-290 1496,-290 1496,-290 1496,-234 1496,-199 1514,-162 1527,-140"/>
<polygon style="fill:midnightblue;stroke:midnightblue;" points="1529.8,-142.1 1533,-132 1524.2,-137.9 1529.8,-142.1"/>
</g>
<!-- Node19 -->
<g id="node48" class="node"><title>Node19</title>
<a xlink:href="feature__converter_8h.html" target="_top" xlink:title="ltr/feature_converters/feature_converter.h">
<polygon style="fill:white;stroke:black;" points="1003,-336 1003,-356 1193,-356 1193,-336 1003,-336"/>
<text text-anchor="middle" x="1098" y="-343" style="font-family:Arial;font-size:10.00;">ltr/feature_converters/feature_converter.h</text>
</a>
</g>
<!-- Node16&#45;&gt;Node19 -->
<g id="edge58" class="edge"><title>Node16&#45;&gt;Node19</title>
<path style="fill:none;stroke:midnightblue;" d="M1300,-392C1258,-383 1196,-368 1152,-358"/>
<polygon style="fill:midnightblue;stroke:midnightblue;" points="1152.49,-354.529 1142,-356 1151.12,-361.393 1152.49,-354.529"/>
</g>
<!-- Node34 -->
<g id="node124" class="node"><title>Node34</title>
<a xlink:href="serializable__functor_8h.html" target="_top" xlink:title="ltr/interfaces/serializable_functor.h">
<polygon style="fill:white;stroke:black;" points="1669,-224 1669,-244 1832,-244 1832,-224 1669,-224"/>
<text text-anchor="middle" x="1750" y="-231" style="font-family:Arial;font-size:10.00;">ltr/interfaces/serializable_functor.h</text>
</a>
</g>
<!-- Node16&#45;&gt;Node34 -->
<g id="edge180" class="edge"><title>Node16&#45;&gt;Node34</title>
<path style="fill:none;stroke:midnightblue;" d="M1393,-395C1435,-388 1497,-376 1548,-356 1618,-327 1692,-276 1729,-250"/>
<polygon style="fill:midnightblue;stroke:midnightblue;" points="1731.1,-252.8 1737,-244 1726.9,-247.2 1731.1,-252.8"/>
</g>
<!-- Node18&#45;&gt;Node9 -->
<g id="edge54" class="edge"><title>Node18&#45;&gt;Node9</title>
<path style="fill:none;stroke:midnightblue;" d="M1528,-112C1509,-97 1471,-68 1434,-56 1355,-29 1101,-15 1012,-11"/>
<polygon style="fill:midnightblue;stroke:midnightblue;" points="1012,-7.5001 1002,-11 1012,-14.5001 1012,-7.5001"/>
</g>
<!-- Node19&#45;&gt;Node5 -->
<g id="edge60" class="edge"><title>Node19&#45;&gt;Node5</title>
<path style="fill:none;stroke:midnightblue;" d="M1062,-336C1035,-328 998,-316 969,-300 882,-253 878,-215 793,-168 753,-146 739,-150 698,-132 680,-124 677,-120 661,-112 637,-100 610,-88 589,-79"/>
<polygon style="fill:midnightblue;stroke:midnightblue;" points="590.56,-75.8631 580,-75 587.717,-82.2598 590.56,-75.8631"/>
</g>
<!-- Node19&#45;&gt;Node6 -->
<g id="edge156" class="edge"><title>Node19&#45;&gt;Node6</title>
<path style="fill:none;stroke:midnightblue;" d="M1003,-343C870,-337 636,-324 555,-300 471,-274 450,-254 394,-188 381,-173 368,-154 360,-141"/>
<polygon style="fill:midnightblue;stroke:midnightblue;" points="362.459,-138.379 354,-132 356.635,-142.262 362.459,-138.379"/>
</g>
<!-- Node19&#45;&gt;Node8 -->
<g id="edge64" class="edge"><title>Node19&#45;&gt;Node8</title>
<path style="fill:none;stroke:midnightblue;" d="M1071,-336C1036,-321 972,-290 935,-244 915,-218 890,-127 879,-86"/>
<polygon style="fill:midnightblue;stroke:midnightblue;" points="882.393,-85.1194 877,-76 875.529,-86.4922 882.393,-85.1194"/>
</g>
<!-- Node19&#45;&gt;Node9 -->
<g id="edge62" class="edge"><title>Node19&#45;&gt;Node9</title>
<path style="fill:none;stroke:midnightblue;" d="M1167,-336C1262,-320 1420,-287 1420,-234 1420,-234 1420,-234 1420,-122 1420,-37 1112,-16 1012,-11"/>
<polygon style="fill:midnightblue;stroke:midnightblue;" points="1012,-7.5001 1002,-11 1012,-14.5001 1012,-7.5001"/>
</g>
<!-- Node19&#45;&gt;Node11 -->
<g id="edge178" class="edge"><title>Node19&#45;&gt;Node11</title>
<path style="fill:none;stroke:midnightblue;" d="M1193,-338C1366,-322 1723,-285 1840,-244 1917,-216 1959,-209 1988,-132 1994,-114 1982,-96 1969,-83"/>
<polygon style="fill:midnightblue;stroke:midnightblue;" points="1971.55,-80.5962 1962,-76 1966.6,-85.546 1971.55,-80.5962"/>
</g>
<!-- Node19&#45;&gt;Node18 -->
<g id="edge176" class="edge"><title>Node19&#45;&gt;Node18</title>
<path style="fill:none;stroke:midnightblue;" d="M1193,-338C1286,-329 1415,-315 1434,-300 1482,-260 1445,-218 1482,-168 1491,-156 1502,-146 1513,-138"/>
<polygon style="fill:midnightblue;stroke:midnightblue;" points="1515.62,-140.459 1522,-132 1511.74,-134.635 1515.62,-140.459"/>
</g>
<!-- Node19&#45;&gt;Node20 -->
<g id="edge66" class="edge"><title>Node19&#45;&gt;Node20</title>
<path style="fill:none;stroke:midnightblue;" d="M1011,-336C912,-324 754,-306 669,-297"/>
<polygon style="fill:midnightblue;stroke:midnightblue;" points="669.299,-293.512 659,-296 668.602,-300.478 669.299,-293.512"/>
</g>
<!-- Node24 -->
<g id="node77" class="node"><title>Node24</title>
<a xlink:href="feature__info_8h.html" target="_top" xlink:title="ltr/data/feature_info.h">
<polygon style="fill:white;stroke:black;" points="944,-224 944,-244 1051,-244 1051,-224 944,-224"/>
<text text-anchor="middle" x="997" y="-231" style="font-family:Arial;font-size:10.00;">ltr/data/feature_info.h</text>
</a>
</g>
<!-- Node19&#45;&gt;Node24 -->
<g id="edge154" class="edge"><title>Node19&#45;&gt;Node24</title>
<path style="fill:none;stroke:midnightblue;" d="M1089,-336C1072,-316 1035,-275 1013,-251"/>
<polygon style="fill:midnightblue;stroke:midnightblue;" points="1015.55,-248.596 1006,-244 1010.6,-253.546 1015.55,-248.596"/>
</g>
<!-- Node19&#45;&gt;Node25 -->
<g id="edge160" class="edge"><title>Node19&#45;&gt;Node25</title>
<path style="fill:none;stroke:midnightblue;" d="M1120,-336C1136,-328 1155,-316 1168,-300 1191,-269 1200,-224 1205,-198"/>
<polygon style="fill:midnightblue;stroke:midnightblue;" points="1208.49,-198.299 1206,-188 1201.52,-197.602 1208.49,-198.299"/>
</g>
<!-- Node31 -->
<g id="node101" class="node"><title>Node31</title>
<a xlink:href="per__object__accessor_8h.html" target="_top" xlink:title="ltr/data/per_object_accessor.h">
<polygon style="fill:white;stroke:black;" points="666,-224 666,-244 813,-244 813,-224 666,-224"/>
<text text-anchor="middle" x="739" y="-231" style="font-family:Arial;font-size:10.00;">ltr/data/per_object_accessor.h</text>
</a>
</g>
<!-- Node19&#45;&gt;Node31 -->
<g id="edge158" class="edge"><title>Node19&#45;&gt;Node31</title>
<path style="fill:none;stroke:midnightblue;" d="M1017,-336C971,-329 913,-317 864,-300 827,-287 787,-265 763,-249"/>
<polygon style="fill:midnightblue;stroke:midnightblue;" points="764.441,-245.797 754,-244 761.042,-251.916 764.441,-245.797"/>
</g>
<!-- Node19&#45;&gt;Node32 -->
<g id="edge162" class="edge"><title>Node19&#45;&gt;Node32</title>
<path style="fill:none;stroke:midnightblue;" d="M1193,-341C1269,-335 1379,-324 1472,-300 1559,-277 1574,-253 1660,-224 1696,-211 1738,-200 1769,-191"/>
<polygon style="fill:midnightblue;stroke:midnightblue;" points="1770.43,-194.226 1779,-188 1768.42,-187.521 1770.43,-194.226"/>
</g>
<!-- Node20&#45;&gt;Node5 -->
<g id="edge74" class="edge"><title>Node20&#45;&gt;Node5</title>
<path style="fill:none;stroke:midnightblue;" d="M585,-280C570,-272 552,-261 543,-244 515,-191 537,-120 550,-85"/>
<polygon style="fill:midnightblue;stroke:midnightblue;" points="553.137,-86.5596 554,-76 546.74,-83.7166 553.137,-86.5596"/>
</g>
<!-- Node20&#45;&gt;Node6 -->
<g id="edge76" class="edge"><title>Node20&#45;&gt;Node6</title>
<path style="fill:none;stroke:midnightblue;" d="M570,-280C543,-272 508,-260 480,-244 466,-236 399,-171 366,-139"/>
<polygon style="fill:midnightblue;stroke:midnightblue;" points="368.546,-136.596 359,-132 363.596,-141.546 368.546,-136.596"/>
</g>
<!-- Node20&#45;&gt;Node8 -->
<g id="edge70" class="edge"><title>Node20&#45;&gt;Node8</title>
<path style="fill:none;stroke:midnightblue;" d="M659,-285C713,-278 797,-265 821,-244 865,-201 873,-123 874,-86"/>
<polygon style="fill:midnightblue;stroke:midnightblue;" points="877.5,-86 874,-76 870.5,-86 877.5,-86"/>
</g>
<!-- Node20&#45;&gt;Node9 -->
<g id="edge72" class="edge"><title>Node20&#45;&gt;Node9</title>
<path style="fill:none;stroke:midnightblue;" d="M564,-286C454,-273 194,-230 264,-112 290,-67 315,-70 365,-56 476,-22 843,-13 952,-10"/>
<polygon style="fill:midnightblue;stroke:midnightblue;" points="952,-13.5001 962,-10 952,-6.5001 952,-13.5001"/>
</g>
<!-- Node20&#45;&gt;Node18 -->
<g id="edge152" class="edge"><title>Node20&#45;&gt;Node18</title>
<path style="fill:none;stroke:midnightblue;" d="M659,-287C742,-281 914,-267 1059,-244 1176,-225 1205,-217 1320,-188 1382,-171 1455,-149 1499,-135"/>
<polygon style="fill:midnightblue;stroke:midnightblue;" points="1500.43,-138.226 1509,-132 1498.42,-131.521 1500.43,-138.226"/>
</g>
<!-- Node21 -->
<g id="node55" class="node"><title>Node21</title>
<polygon style="fill:white;stroke:#bfbfbf;" points="560,-224 560,-244 611,-244 611,-224 560,-224"/>
<text text-anchor="middle" x="585" y="-231" style="font-family:Arial;font-size:10.00;">sstream</text>
</g>
<!-- Node20&#45;&gt;Node21 -->
<g id="edge68" class="edge"><title>Node20&#45;&gt;Node21</title>
<path style="fill:none;stroke:midnightblue;" d="M606,-280C603,-273 598,-262 594,-253"/>
<polygon style="fill:midnightblue;stroke:midnightblue;" points="597.26,-251.717 590,-244 590.863,-254.56 597.26,-251.717"/>
</g>
<!-- Node22 -->
<g id="node61" class="node"><title>Node22</title>
<a xlink:href="object__list_8h.html" target="_top" xlink:title="ltr/data/object_list.h">
<polygon style="fill:white;stroke:black;" points="560,-168 560,-188 662,-188 662,-168 560,-168"/>
<text text-anchor="middle" x="611" y="-175" style="font-family:Arial;font-size:10.00;">ltr/data/object_list.h</text>
</a>
</g>
<!-- Node20&#45;&gt;Node22 -->
<g id="edge78" class="edge"><title>Node20&#45;&gt;Node22</title>
<path style="fill:none;stroke:midnightblue;" d="M589,-280C575,-272 559,-260 551,-244 541,-224 561,-205 581,-193"/>
<polygon style="fill:midnightblue;stroke:midnightblue;" points="582.958,-195.916 590,-188 579.559,-189.797 582.958,-195.916"/>
</g>
<!-- Node23 -->
<g id="node69" class="node"><title>Node23</title>
<a xlink:href="object__pair_8h.html" target="_top" xlink:title="ltr/data/object_pair.h">
<polygon style="fill:white;stroke:black;" points="680,-168 680,-188 784,-188 784,-168 680,-168"/>
<text text-anchor="middle" x="732" y="-175" style="font-family:Arial;font-size:10.00;">ltr/data/object_pair.h</text>
</a>
</g>
<!-- Node20&#45;&gt;Node23 -->
<g id="edge92" class="edge"><title>Node20&#45;&gt;Node23</title>
<path style="fill:none;stroke:midnightblue;" d="M616,-280C623,-266 638,-241 657,-224 670,-212 687,-201 701,-193"/>
<polygon style="fill:midnightblue;stroke:midnightblue;" points="702.958,-195.916 710,-188 699.559,-189.797 702.958,-195.916"/>
</g>
<!-- Node20&#45;&gt;Node24 -->
<g id="edge106" class="edge"><title>Node20&#45;&gt;Node24</title>
<path style="fill:none;stroke:midnightblue;" d="M659,-283C729,-272 856,-255 934,-243"/>
<polygon style="fill:midnightblue;stroke:midnightblue;" points="934.398,-246.478 944,-242 933.701,-239.512 934.398,-246.478"/>
</g>
<!-- Node20&#45;&gt;Node31 -->
<g id="edge140" class="edge"><title>Node20&#45;&gt;Node31</title>
<path style="fill:none;stroke:midnightblue;" d="M634,-280C654,-271 684,-258 707,-248"/>
<polygon style="fill:midnightblue;stroke:midnightblue;" points="708.283,-251.26 716,-244 705.44,-244.863 708.283,-251.26"/>
</g>
<!-- Node22&#45;&gt;Node5 -->
<g id="edge84" class="edge"><title>Node22&#45;&gt;Node5</title>
<path style="fill:none;stroke:midnightblue;" d="M606,-168C597,-149 579,-110 568,-85"/>
<polygon style="fill:midnightblue;stroke:midnightblue;" points="571.26,-83.7166 564,-76 564.863,-86.5596 571.26,-83.7166"/>
</g>
<!-- Node22&#45;&gt;Node6 -->
<g id="edge86" class="edge"><title>Node22&#45;&gt;Node6</title>
<path style="fill:none;stroke:midnightblue;" d="M564,-168C517,-159 448,-143 400,-133"/>
<polygon style="fill:midnightblue;stroke:midnightblue;" points="400.492,-129.529 390,-131 399.119,-136.393 400.492,-129.529"/>
</g>
<!-- Node22&#45;&gt;Node8 -->
<g id="edge80" class="edge"><title>Node22&#45;&gt;Node8</title>
<path style="fill:none;stroke:midnightblue;" d="M635,-168C682,-147 787,-103 841,-80"/>
<polygon style="fill:midnightblue;stroke:midnightblue;" points="842.283,-83.2598 850,-76 839.44,-76.8631 842.283,-83.2598"/>
</g>
<!-- Node22&#45;&gt;Node9 -->
<g id="edge82" class="edge"><title>Node22&#45;&gt;Node9</title>
<path style="fill:none;stroke:midnightblue;" d="M624,-168C653,-145 730,-87 803,-56 853,-34 916,-21 952,-15"/>
<polygon style="fill:midnightblue;stroke:midnightblue;" points="952.881,-18.3933 962,-13 951.508,-11.5292 952.881,-18.3933"/>
</g>
<!-- Node22&#45;&gt;Node10 -->
<g id="edge88" class="edge"><title>Node22&#45;&gt;Node10</title>
<path style="fill:none;stroke:midnightblue;" d="M598,-168C572,-148 515,-106 484,-82"/>
<polygon style="fill:midnightblue;stroke:midnightblue;" points="486.1,-79.2 476,-76 481.9,-84.8 486.1,-79.2"/>
</g>
<!-- Node22&#45;&gt;Node11 -->
<g id="edge90" class="edge"><title>Node22&#45;&gt;Node11</title>
<path style="fill:none;stroke:midnightblue;" d="M662,-169C665,-169 668,-168 671,-168 798,-153 1126,-170 1249,-132 1265,-126 1265,-117 1282,-112 1296,-107 1722,-80 1886,-70"/>
<polygon style="fill:midnightblue;stroke:midnightblue;" points="1886.4,-73.4778 1896,-69 1885.7,-66.5125 1886.4,-73.4778"/>
</g>
<!-- Node23&#45;&gt;Node5 -->
<g id="edge98" class="edge"><title>Node23&#45;&gt;Node5</title>
<path style="fill:none;stroke:midnightblue;" d="M716,-168C687,-148 620,-104 583,-81"/>
<polygon style="fill:midnightblue;stroke:midnightblue;" points="585.335,-78.332 575,-76 581.625,-84.268 585.335,-78.332"/>
</g>
<!-- Node23&#45;&gt;Node6 -->
<g id="edge100" class="edge"><title>Node23&#45;&gt;Node6</title>
<path style="fill:none;stroke:midnightblue;" d="M680,-169C677,-169 674,-168 671,-168 575,-154 464,-138 400,-129"/>
<polygon style="fill:midnightblue;stroke:midnightblue;" points="400.299,-125.512 390,-128 399.602,-132.478 400.299,-125.512"/>
</g>
<!-- Node23&#45;&gt;Node8 -->
<g id="edge94" class="edge"><title>Node23&#45;&gt;Node8</title>
<path style="fill:none;stroke:midnightblue;" d="M745,-168C770,-148 823,-106 853,-83"/>
<polygon style="fill:midnightblue;stroke:midnightblue;" points="855.779,-85.2191 861,-76 851.169,-79.9511 855.779,-85.2191"/>
</g>
<!-- Node23&#45;&gt;Node9 -->
<g id="edge96" class="edge"><title>Node23&#45;&gt;Node9</title>
<path style="fill:none;stroke:midnightblue;" d="M738,-168C751,-144 788,-86 836,-56 872,-33 921,-21 952,-15"/>
<polygon style="fill:midnightblue;stroke:midnightblue;" points="952.881,-18.3933 962,-13 951.508,-11.5292 952.881,-18.3933"/>
</g>
<!-- Node23&#45;&gt;Node10 -->
<g id="edge102" class="edge"><title>Node23&#45;&gt;Node10</title>
<path style="fill:none;stroke:midnightblue;" d="M708,-168C659,-147 551,-102 496,-80"/>
<polygon style="fill:midnightblue;stroke:midnightblue;" points="497.56,-76.8631 487,-76 494.717,-83.2598 497.56,-76.8631"/>
</g>
<!-- Node23&#45;&gt;Node11 -->
<g id="edge104" class="edge"><title>Node23&#45;&gt;Node11</title>
<path style="fill:none;stroke:midnightblue;" d="M784,-176C882,-172 1100,-160 1282,-132 1320,-125 1329,-118 1368,-112 1465,-96 1756,-78 1886,-70"/>
<polygon style="fill:midnightblue;stroke:midnightblue;" points="1886.4,-73.4778 1896,-69 1885.7,-66.5125 1886.4,-73.4778"/>
</g>
<!-- Node24&#45;&gt;Node2 -->
<g id="edge108" class="edge"><title>Node24&#45;&gt;Node2</title>
<path style="fill:none;stroke:midnightblue;" d="M944,-230C860,-224 691,-210 551,-188 436,-169 406,-169 297,-132 256,-118 212,-95 184,-81"/>
<polygon style="fill:midnightblue;stroke:midnightblue;" points="185.441,-77.7969 175,-76 182.042,-83.916 185.441,-77.7969"/>
</g>
<!-- Node24&#45;&gt;Node5 -->
<g id="edge112" class="edge"><title>Node24&#45;&gt;Node5</title>
<path style="fill:none;stroke:midnightblue;" d="M974,-224C924,-202 802,-150 698,-112 661,-98 618,-84 590,-75"/>
<polygon style="fill:midnightblue;stroke:midnightblue;" points="590.584,-71.5212 580,-72 588.573,-78.2259 590.584,-71.5212"/>
</g>
<!-- Node24&#45;&gt;Node9 -->
<g id="edge110" class="edge"><title>Node24&#45;&gt;Node9</title>
<path style="fill:none;stroke:midnightblue;" d="M996,-224C993,-189 986,-77 984,-30"/>
<polygon style="fill:midnightblue;stroke:midnightblue;" points="987.478,-29.6021 983,-20 980.512,-30.2987 987.478,-29.6021"/>
</g>
<!-- Node24&#45;&gt;Node11 -->
<g id="edge138" class="edge"><title>Node24&#45;&gt;Node11</title>
<path style="fill:none;stroke:midnightblue;" d="M1051,-224C1052,-224 1053,-224 1054,-224 1157,-206 1188,-223 1287,-188 1303,-182 1304,-175 1320,-168 1386,-136 1404,-128 1477,-112 1553,-95 1775,-78 1886,-71"/>
<polygon style="fill:midnightblue;stroke:midnightblue;" points="1886.4,-74.4778 1896,-70 1885.7,-67.5125 1886.4,-74.4778"/>
</g>
<!-- Node24&#45;&gt;Node25 -->
<g id="edge114" class="edge"><title>Node24&#45;&gt;Node25</title>
<path style="fill:none;stroke:midnightblue;" d="M1035,-224C1070,-215 1122,-201 1159,-191"/>
<polygon style="fill:midnightblue;stroke:midnightblue;" points="1160.43,-194.226 1169,-188 1158.42,-187.521 1160.43,-194.226"/>
</g>
<!-- Node25&#45;&gt;Node8 -->
<g id="edge116" class="edge"><title>Node25&#45;&gt;Node8</title>
<path style="fill:none;stroke:midnightblue;" d="M1148,-168C1107,-160 1053,-148 1007,-132 968,-118 926,-96 900,-81"/>
<polygon style="fill:midnightblue;stroke:midnightblue;" points="901.441,-77.7969 891,-76 898.042,-83.916 901.441,-77.7969"/>
</g>
<!-- Node25&#45;&gt;Node9 -->
<g id="edge118" class="edge"><title>Node25&#45;&gt;Node9</title>
<path style="fill:none;stroke:midnightblue;" d="M1226,-168C1263,-147 1339,-96 1304,-56 1285,-33 1089,-18 1012,-12"/>
<polygon style="fill:midnightblue;stroke:midnightblue;" points="1012.3,-8.5125 1002,-11 1011.6,-15.4778 1012.3,-8.5125"/>
</g>
<!-- Node25&#45;&gt;Node26 -->
<g id="edge120" class="edge"><title>Node25&#45;&gt;Node26</title>
<path style="fill:none;stroke:midnightblue;" d="M1193,-168C1181,-160 1164,-147 1150,-138"/>
<polygon style="fill:midnightblue;stroke:midnightblue;" points="1152.1,-135.2 1142,-132 1147.9,-140.8 1152.1,-135.2"/>
</g>
<!-- Node26&#45;&gt;Node8 -->
<g id="edge126" class="edge"><title>Node26&#45;&gt;Node8</title>
<path style="fill:none;stroke:midnightblue;" d="M1083,-112C1035,-102 960,-85 914,-75"/>
<polygon style="fill:midnightblue;stroke:midnightblue;" points="914.492,-71.5292 904,-73 913.119,-78.3933 914.492,-71.5292"/>
</g>
<!-- Node26&#45;&gt;Node9 -->
<g id="edge128" class="edge"><title>Node26&#45;&gt;Node9</title>
<path style="fill:none;stroke:midnightblue;" d="M1218,-112C1267,-103 1313,-86 1287,-56 1269,-35 1086,-19 1012,-13"/>
<polygon style="fill:midnightblue;stroke:midnightblue;" points="1012.3,-9.5125 1002,-12 1011.6,-16.4778 1012.3,-9.5125"/>
</g>
<!-- Node26&#45;&gt;Node10 -->
<g id="edge136" class="edge"><title>Node26&#45;&gt;Node10</title>
<path style="fill:none;stroke:midnightblue;" d="M1016,-116C897,-108 705,-95 531,-76"/>
<polygon style="fill:midnightblue;stroke:midnightblue;" points="531.299,-72.5125 521,-75 530.602,-79.4778 531.299,-72.5125"/>
</g>
<!-- Node26&#45;&gt;Node11 -->
<g id="edge134" class="edge"><title>Node26&#45;&gt;Node11</title>
<path style="fill:none;stroke:midnightblue;" d="M1241,-113C1245,-113 1250,-112 1254,-112 1486,-95 1763,-77 1886,-70"/>
<polygon style="fill:midnightblue;stroke:midnightblue;" points="1886.4,-73.4778 1896,-69 1885.7,-66.5125 1886.4,-73.4778"/>
</g>
<!-- Node27 -->
<g id="node88" class="node"><title>Node27</title>
<polygon style="fill:white;stroke:#bfbfbf;" points="1703,-56 1703,-76 1777,-76 1777,-56 1703,-56"/>
<text text-anchor="middle" x="1740" y="-63" style="font-family:Arial;font-size:10.00;">logog/logog.h</text>
</g>
<!-- Node26&#45;&gt;Node27 -->
<g id="edge122" class="edge"><title>Node26&#45;&gt;Node27</title>
<path style="fill:none;stroke:midnightblue;" d="M1237,-112C1372,-99 1596,-79 1693,-70"/>
<polygon style="fill:midnightblue;stroke:midnightblue;" points="1693.4,-73.4778 1703,-69 1692.7,-66.5125 1693.4,-73.4778"/>
</g>
<!-- Node28 -->
<g id="node90" class="node"><title>Node28</title>
<polygon style="fill:white;stroke:#bfbfbf;" points="1010,-56 1010,-76 1039,-76 1039,-56 1010,-56"/>
<text text-anchor="middle" x="1024" y="-63" style="font-family:Arial;font-size:10.00;">list</text>
</g>
<!-- Node26&#45;&gt;Node28 -->
<g id="edge124" class="edge"><title>Node26&#45;&gt;Node28</title>
<path style="fill:none;stroke:midnightblue;" d="M1109,-112C1092,-103 1067,-89 1048,-79"/>
<polygon style="fill:midnightblue;stroke:midnightblue;" points="1049.44,-75.7969 1039,-74 1046.04,-81.916 1049.44,-75.7969"/>
</g>
<!-- Node29 -->
<g id="node94" class="node"><title>Node29</title>
<polygon style="fill:white;stroke:#bfbfbf;" points="1056,-56 1056,-76 1133,-76 1133,-56 1056,-56"/>
<text text-anchor="middle" x="1094" y="-63" style="font-family:Arial;font-size:10.00;">boost/any.hpp</text>
</g>
<!-- Node26&#45;&gt;Node29 -->
<g id="edge130" class="edge"><title>Node26&#45;&gt;Node29</title>
<path style="fill:none;stroke:midnightblue;" d="M1122,-112C1118,-105 1111,-94 1105,-85"/>
<polygon style="fill:midnightblue;stroke:midnightblue;" points="1107.92,-83.0418 1100,-76 1101.8,-86.4414 1107.92,-83.0418"/>
</g>
<!-- Node30 -->
<g id="node96" class="node"><title>Node30</title>
<polygon style="fill:white;stroke:#bfbfbf;" points="1150,-56 1150,-76 1279,-76 1279,-56 1150,-56"/>
<text text-anchor="middle" x="1214" y="-63" style="font-family:Arial;font-size:10.00;">boost/unordered_map.hpp</text>
</g>
<!-- Node26&#45;&gt;Node30 -->
<g id="edge132" class="edge"><title>Node26&#45;&gt;Node30</title>
<path style="fill:none;stroke:midnightblue;" d="M1143,-112C1156,-104 1175,-91 1190,-82"/>
<polygon style="fill:midnightblue;stroke:midnightblue;" points="1192.1,-84.8 1198,-76 1187.9,-79.2 1192.1,-84.8"/>
</g>
<!-- Node31&#45;&gt;Node6 -->
<g id="edge142" class="edge"><title>Node31&#45;&gt;Node6</title>
<path style="fill:none;stroke:midnightblue;" d="M694,-224C656,-215 599,-202 551,-188 493,-171 427,-150 386,-135"/>
<polygon style="fill:midnightblue;stroke:midnightblue;" points="387.594,-131.842 377,-132 385.38,-138.483 387.594,-131.842"/>
</g>
<!-- Node31&#45;&gt;Node11 -->
<g id="edge150" class="edge"><title>Node31&#45;&gt;Node11</title>
<path style="fill:none;stroke:midnightblue;" d="M797,-224C944,-199 1317,-134 1331,-132 1360,-124 1366,-117 1396,-112 1443,-102 1751,-80 1886,-71"/>
<polygon style="fill:midnightblue;stroke:midnightblue;" points="1886.4,-74.4778 1896,-70 1885.7,-67.5125 1886.4,-74.4778"/>
</g>
<!-- Node31&#45;&gt;Node22 -->
<g id="edge146" class="edge"><title>Node31&#45;&gt;Node22</title>
<path style="fill:none;stroke:midnightblue;" d="M716,-224C696,-215 666,-202 643,-192"/>
<polygon style="fill:midnightblue;stroke:midnightblue;" points="644.56,-188.863 634,-188 641.717,-195.26 644.56,-188.863"/>
</g>
<!-- Node31&#45;&gt;Node23 -->
<g id="edge144" class="edge"><title>Node31&#45;&gt;Node23</title>
<path style="fill:none;stroke:midnightblue;" d="M738,-224C737,-217 736,-207 735,-198"/>
<polygon style="fill:midnightblue;stroke:midnightblue;" points="738.393,-197.119 733,-188 731.529,-198.492 738.393,-197.119"/>
</g>
<!-- Node31&#45;&gt;Node25 -->
<g id="edge148" class="edge"><title>Node31&#45;&gt;Node25</title>
<path style="fill:none;stroke:midnightblue;" d="M813,-225C899,-214 1038,-198 1126,-187"/>
<polygon style="fill:midnightblue;stroke:midnightblue;" points="1126.4,-190.478 1136,-186 1125.7,-183.512 1126.4,-190.478"/>
</g>
<!-- Node32&#45;&gt;Node9 -->
<g id="edge168" class="edge"><title>Node32&#45;&gt;Node9</title>
<path style="fill:none;stroke:midnightblue;" d="M1819,-168C1820,-144 1820,-84 1786,-56 1755,-31 1156,-14 1012,-10"/>
<polygon style="fill:midnightblue;stroke:midnightblue;" points="1012,-6.5001 1002,-10 1012,-13.5001 1012,-6.5001"/>
</g>
<!-- Node32&#45;&gt;Node11 -->
<g id="edge172" class="edge"><title>Node32&#45;&gt;Node11</title>
<path style="fill:none;stroke:midnightblue;" d="M1868,-168C1904,-160 1948,-147 1959,-132 1969,-118 1965,-99 1959,-85"/>
<polygon style="fill:midnightblue;stroke:midnightblue;" points="1962.26,-83.7166 1955,-76 1955.86,-86.5596 1962.26,-83.7166"/>
</g>
<!-- Node32&#45;&gt;Node17 -->
<g id="edge164" class="edge"><title>Node32&#45;&gt;Node17</title>
<path style="fill:none;stroke:midnightblue;" d="M1798,-168C1781,-159 1756,-146 1736,-137"/>
<polygon style="fill:midnightblue;stroke:midnightblue;" points="1737.44,-133.797 1727,-132 1734.04,-139.916 1737.44,-133.797"/>
</g>
<!-- Node32&#45;&gt;Node18 -->
<g id="edge174" class="edge"><title>Node32&#45;&gt;Node18</title>
<path style="fill:none;stroke:midnightblue;" d="M1768,-168C1721,-159 1650,-144 1600,-134"/>
<polygon style="fill:midnightblue;stroke:midnightblue;" points="1600.49,-130.529 1590,-132 1599.12,-137.393 1600.49,-130.529"/>
</g>
<!-- Node32&#45;&gt;Node27 -->
<g id="edge166" class="edge"><title>Node32&#45;&gt;Node27</title>
<path style="fill:none;stroke:midnightblue;" d="M1811,-168C1802,-155 1786,-131 1773,-112 1766,-102 1759,-92 1753,-84"/>
<polygon style="fill:midnightblue;stroke:midnightblue;" points="1755.8,-81.9 1747,-76 1750.2,-86.1 1755.8,-81.9"/>
</g>
<!-- Node33 -->
<g id="node118" class="node"><title>Node33</title>
<polygon style="fill:white;stroke:#bfbfbf;" points="1896,-112 1896,-132 1950,-132 1950,-112 1896,-112"/>
<text text-anchor="middle" x="1923" y="-119" style="font-family:Arial;font-size:10.00;">iostream</text>
</g>
<!-- Node32&#45;&gt;Node33 -->
<g id="edge170" class="edge"><title>Node32&#45;&gt;Node33</title>
<path style="fill:none;stroke:midnightblue;" d="M1837,-168C1853,-159 1877,-147 1895,-137"/>
<polygon style="fill:midnightblue;stroke:midnightblue;" points="1896.96,-139.916 1904,-132 1893.56,-133.797 1896.96,-139.916"/>
</g>
<!-- Node34&#45;&gt;Node11 -->
<g id="edge182" class="edge"><title>Node34&#45;&gt;Node11</title>
<path style="fill:none;stroke:midnightblue;" d="M1822,-224C1876,-212 1944,-187 1973,-132 1981,-117 1973,-98 1964,-84"/>
<polygon style="fill:midnightblue;stroke:midnightblue;" points="1966.8,-81.9 1958,-76 1961.2,-86.1 1966.8,-81.9"/>
</g>
<!-- Node34&#45;&gt;Node32 -->
<g id="edge194" class="edge"><title>Node34&#45;&gt;Node32</title>
<path style="fill:none;stroke:midnightblue;" d="M1762,-224C1773,-216 1786,-204 1798,-195"/>
<polygon style="fill:midnightblue;stroke:midnightblue;" points="1800.78,-197.219 1806,-188 1796.17,-191.951 1800.78,-197.219"/>
</g>
<!-- Node35 -->
<g id="node127" class="node"><title>Node35</title>
<a xlink:href="functor_8h.html" target="_top" xlink:title="ltr/interfaces/functor.h">
<polygon style="fill:white;stroke:black;" points="1628,-168 1628,-188 1737,-188 1737,-168 1628,-168"/>
<text text-anchor="middle" x="1682" y="-175" style="font-family:Arial;font-size:10.00;">ltr/interfaces/functor.h</text>
</a>
</g>
<!-- Node34&#45;&gt;Node35 -->
<g id="edge184" class="edge"><title>Node34&#45;&gt;Node35</title>
<path style="fill:none;stroke:midnightblue;" d="M1738,-224C1728,-216 1714,-204 1702,-195"/>
<polygon style="fill:midnightblue;stroke:midnightblue;" points="1703.83,-191.951 1694,-188 1699.22,-197.219 1703.83,-191.951"/>
</g>
<!-- Node35&#45;&gt;Node6 -->
<g id="edge192" class="edge"><title>Node35&#45;&gt;Node6</title>
<path style="fill:none;stroke:midnightblue;" d="M1628,-176C1411,-166 613,-133 400,-124"/>
<polygon style="fill:midnightblue;stroke:midnightblue;" points="400,-120.5 390,-124 400,-127.5 400,-120.5"/>
</g>
<!-- Node35&#45;&gt;Node9 -->
<g id="edge190" class="edge"><title>Node35&#45;&gt;Node9</title>
<path style="fill:none;stroke:midnightblue;" d="M1672,-168C1658,-154 1630,-128 1603,-112 1548,-78 1532,-71 1470,-56 1382,-34 1104,-16 1012,-12"/>
<polygon style="fill:midnightblue;stroke:midnightblue;" points="1012.3,-8.5125 1002,-11 1011.6,-15.4778 1012.3,-8.5125"/>
</g>
<!-- Node35&#45;&gt;Node11 -->
<g id="edge186" class="edge"><title>Node35&#45;&gt;Node11</title>
<path style="fill:none;stroke:midnightblue;" d="M1706,-168C1754,-147 1861,-102 1916,-80"/>
<polygon style="fill:midnightblue;stroke:midnightblue;" points="1917.28,-83.2598 1925,-76 1914.44,-76.8631 1917.28,-83.2598"/>
</g>
<!-- Node35&#45;&gt;Node17 -->
<g id="edge188" class="edge"><title>Node35&#45;&gt;Node17</title>
<path style="fill:none;stroke:midnightblue;" d="M1686,-168C1690,-161 1694,-151 1698,-141"/>
<polygon style="fill:midnightblue;stroke:midnightblue;" points="1701.14,-142.56 1702,-132 1694.74,-139.717 1701.14,-142.56"/>
</g>
</g>
</svg>
