<?xml version="1.0" encoding="UTF-8" standalone="no"?>
<!DOCTYPE svg PUBLIC "-//W3C//DTD SVG 1.0//EN"
 "http://www.w3.org/TR/2001/REC-SVG-20010904/DTD/svg10.dtd" [
 <!ATTLIST svg xmlns:xlink CDATA #FIXED "http://www.w3.org/1999/xlink">
]>
<!-- Generated by Graphviz version 2.20.2 (Tue Mar &#160;2 19:03:41 UTC 2010)
     For user: (jenkins)  -->
<!-- Title: G Pages: 1 -->
<svg width="958pt" height="140pt"
 viewBox="0.00 0.00 958.00 140.00" xmlns="http://www.w3.org/2000/svg" xmlns:xlink="http://www.w3.org/1999/xlink">
<g id="graph0" class="graph" transform="scale(1 1) rotate(0) translate(4 136)">
<title>G</title>
<polygon style="fill:white;stroke:white;" points="-4,4 -4,-136 954,-136 954,4 -4,4"/>
<!-- Node1 -->
<g id="node1" class="node"><title>Node1</title>
<polygon style="fill:#bfbfbf;stroke:black;" points="145,-112 145,-132 334,-132 334,-112 145,-112"/>
<text text-anchor="middle" x="239" y="-119" style="font-family:Arial;font-size:10.00;">ltr/learners/decision_tree/base_splitter.h</text>
</g>
<!-- Node2 -->
<g id="node3" class="node"><title>Node2</title>
<polygon style="fill:white;stroke:#bfbfbf;" points="0,-56 0,-76 42,-76 42,-56 0,-56"/>
<text text-anchor="middle" x="21" y="-63" style="font-family:Arial;font-size:10.00;">vector</text>
</g>
<!-- Node1&#45;&gt;Node2 -->
<g id="edge2" class="edge"><title>Node1&#45;&gt;Node2</title>
<path style="fill:none;stroke:midnightblue;" d="M195,-112C159,-104 106,-91 52,-76"/>
<polygon style="fill:midnightblue;stroke:midnightblue;" points="52.584,-72.5212 42,-73 50.5725,-79.2259 52.584,-72.5212"/>
</g>
<!-- Node3 -->
<g id="node5" class="node"><title>Node3</title>
<polygon style="fill:white;stroke:#bfbfbf;" points="60,-56 60,-76 100,-76 100,-56 60,-56"/>
<text text-anchor="middle" x="80" y="-63" style="font-family:Arial;font-size:10.00;">string</text>
</g>
<!-- Node1&#45;&gt;Node3 -->
<g id="edge4" class="edge"><title>Node1&#45;&gt;Node3</title>
<path style="fill:none;stroke:midnightblue;" d="M211,-112C182,-102 139,-87 110,-76"/>
<polygon style="fill:midnightblue;stroke:midnightblue;" points="110.584,-72.5212 100,-73 108.573,-79.2259 110.584,-72.5212"/>
</g>
<!-- Node4 -->
<g id="node7" class="node"><title>Node4</title>
<polygon style="fill:white;stroke:#bfbfbf;" points="166,-0 166,-20 261,-20 261,-0 166,-0"/>
<text text-anchor="middle" x="213" y="-7" style="font-family:Arial;font-size:10.00;">ltr/data/data_set.h</text>
</g>
<!-- Node1&#45;&gt;Node4 -->
<g id="edge6" class="edge"><title>Node1&#45;&gt;Node4</title>
<path style="fill:none;stroke:midnightblue;" d="M199,-112C180,-105 159,-94 147,-76 135,-56 158,-37 180,-25"/>
<polygon style="fill:midnightblue;stroke:midnightblue;" points="181.958,-27.916 189,-20 178.559,-21.7969 181.958,-27.916"/>
</g>
<!-- Node5 -->
<g id="node9" class="node"><title>Node5</title>
<polygon style="fill:white;stroke:#bfbfbf;" points="156,-56 156,-76 322,-76 322,-56 156,-56"/>
<text text-anchor="middle" x="239" y="-63" style="font-family:Arial;font-size:10.00;">ltr/data/utility/data_set_statistics.h</text>
</g>
<!-- Node1&#45;&gt;Node5 -->
<g id="edge8" class="edge"><title>Node1&#45;&gt;Node5</title>
<path style="fill:none;stroke:midnightblue;" d="M239,-112C239,-105 239,-95 239,-86"/>
<polygon style="fill:midnightblue;stroke:midnightblue;" points="242.5,-86 239,-76 235.5,-86 242.5,-86"/>
</g>
<!-- Node6 -->
<g id="node11" class="node"><title>Node6</title>
<a xlink:href="vertex__with__data_8h.html" target="_top" xlink:title="ltr/learners/decision_tree/vertex/vertex_with_data.h">
<polygon style="fill:white;stroke:black;" points="340,-56 340,-76 574,-76 574,-56 340,-56"/>
<text text-anchor="middle" x="457" y="-63" style="font-family:Arial;font-size:10.00;">ltr/learners/decision_tree/vertex/vertex_with_data.h</text>
</a>
</g>
<!-- Node1&#45;&gt;Node6 -->
<g id="edge10" class="edge"><title>Node1&#45;&gt;Node6</title>
<path style="fill:none;stroke:midnightblue;" d="M278,-112C315,-103 369,-89 408,-79"/>
<polygon style="fill:midnightblue;stroke:midnightblue;" points="409.427,-82.2259 418,-76 407.416,-75.5212 409.427,-82.2259"/>
</g>
<!-- Node8 -->
<g id="node16" class="node"><title>Node8</title>
<polygon style="fill:white;stroke:#bfbfbf;" points="592,-56 592,-76 699,-76 699,-56 592,-56"/>
<text text-anchor="middle" x="645" y="-63" style="font-family:Arial;font-size:10.00;">ltr/utility/shared_ptr.h</text>
</g>
<!-- Node1&#45;&gt;Node8 -->
<g id="edge16" class="edge"><title>Node1&#45;&gt;Node8</title>
<path style="fill:none;stroke:midnightblue;" d="M317,-112C385,-103 485,-90 582,-75"/>
<polygon style="fill:midnightblue;stroke:midnightblue;" points="582.398,-78.4778 592,-74 581.701,-71.5125 582.398,-78.4778"/>
</g>
<!-- Node9 -->
<g id="node18" class="node"><title>Node9</title>
<polygon style="fill:white;stroke:#bfbfbf;" points="716,-56 716,-76 950,-76 950,-56 716,-56"/>
<text text-anchor="middle" x="833" y="-63" style="font-family:Arial;font-size:10.00;">ltr/learners/decision_tree/vertex/vertex_with_data.h</text>
</g>
<!-- Node1&#45;&gt;Node9 -->
<g id="edge18" class="edge"><title>Node1&#45;&gt;Node9</title>
<path style="fill:none;stroke:midnightblue;" d="M334,-113C438,-103 605,-87 716,-77"/>
<polygon style="fill:midnightblue;stroke:midnightblue;" points="716.398,-80.4778 726,-76 715.701,-73.5125 716.398,-80.4778"/>
</g>
<!-- Node6&#45;&gt;Node4 -->
<g id="edge12" class="edge"><title>Node6&#45;&gt;Node4</title>
<path style="fill:none;stroke:midnightblue;" d="M413,-56C372,-47 311,-32 267,-22"/>
<polygon style="fill:midnightblue;stroke:midnightblue;" points="267.492,-18.5292 257,-20 266.119,-25.3933 267.492,-18.5292"/>
</g>
<!-- Node7 -->
<g id="node14" class="node"><title>Node7</title>
<polygon style="fill:white;stroke:#bfbfbf;" points="363,-0 363,-20 551,-20 551,-0 363,-0"/>
<text text-anchor="middle" x="457" y="-7" style="font-family:Arial;font-size:10.00;">ltr/learners/decision_tree/vertex/vertex.h</text>
</g>
<!-- Node6&#45;&gt;Node7 -->
<g id="edge14" class="edge"><title>Node6&#45;&gt;Node7</title>
<path style="fill:none;stroke:midnightblue;" d="M457,-56C457,-49 457,-39 457,-30"/>
<polygon style="fill:midnightblue;stroke:midnightblue;" points="460.5,-30 457,-20 453.5,-30 460.5,-30"/>
</g>
</g>
</svg>
