<?xml version="1.0" encoding="UTF-8" standalone="no"?>
<!DOCTYPE svg PUBLIC "-//W3C//DTD SVG 1.0//EN"
 "http://www.w3.org/TR/2001/REC-SVG-20010904/DTD/svg10.dtd" [
 <!ATTLIST svg xmlns:xlink CDATA #FIXED "http://www.w3.org/1999/xlink">
]>
<!-- Generated by Graphviz version 2.20.2 (Tue Mar &#160;2 19:03:41 UTC 2010)
     For user: (jenkins)  -->
<!-- Title: G Pages: 1 -->
<svg width="1561pt" height="308pt"
 viewBox="0.00 0.00 1561.00 308.00" xmlns="http://www.w3.org/2000/svg" xmlns:xlink="http://www.w3.org/1999/xlink">
<g id="graph0" class="graph" transform="scale(1 1) rotate(0) translate(4 304)">
<title>G</title>
<polygon style="fill:white;stroke:white;" points="-4,4 -4,-304 1557,-304 1557,4 -4,4"/>
<!-- Node1 -->
<g id="node1" class="node"><title>Node1</title>
<polygon style="fill:#bfbfbf;stroke:black;" points="220,-280 220,-300 482,-300 482,-280 220,-280"/>
<text text-anchor="middle" x="351" y="-287" style="font-family:Arial;font-size:10.00;">ltr/density_estimators/base_probability_density_learner.h</text>
</g>
<!-- Node2 -->
<g id="node3" class="node"><title>Node2</title>
<a xlink:href="fisher__discriminant__density__learner_8h.html" target="_top" xlink:title="ltr/density_estimators/fisher_discriminant_density_learner.h">
<polygon style="fill:white;stroke:black;" points="51,-112 51,-132 324,-132 324,-112 51,-112"/>
<text text-anchor="middle" x="187" y="-119" style="font-family:Arial;font-size:10.00;">ltr/density_estimators/fisher_discriminant_density_learner.h</text>
</a>
</g>
<!-- Node1&#45;&gt;Node2 -->
<g id="edge2" class="edge"><title>Node1&#45;&gt;Node2</title>
<path style="fill:none;stroke:midnightblue;" d="M334,-272C300,-237 224,-160 197,-132"/>
<polygon style="fill:midnightblue;stroke:midnightblue;" points="331.781,-274.779 341,-280 337.049,-270.169 331.781,-274.779"/>
</g>
<!-- Node4 -->
<g id="node7" class="node"><title>Node4</title>
<a xlink:href="bayesian__learner_8h.html" target="_top" xlink:title="ltr/learners/bayesian_learner/bayesian_learner.h">
<polygon style="fill:white;stroke:black;" points="262,-56 262,-76 484,-76 484,-56 262,-56"/>
<text text-anchor="middle" x="373" y="-63" style="font-family:Arial;font-size:10.00;">ltr/learners/bayesian_learner/bayesian_learner.h</text>
</a>
</g>
<!-- Node1&#45;&gt;Node4 -->
<g id="edge38" class="edge"><title>Node1&#45;&gt;Node4</title>
<path style="fill:none;stroke:midnightblue;" d="M353,-270C357,-223 368,-110 372,-76"/>
<polygon style="fill:midnightblue;stroke:midnightblue;" points="349.512,-269.701 352,-280 356.478,-270.398 349.512,-269.701"/>
</g>
<!-- Node5 -->
<g id="node9" class="node"><title>Node5</title>
<a xlink:href="bayesian__learner__unittest_8cc.html" target="_top" xlink:title="ltr/learners/bayesian_learner/bayesian_learner_unittest.cc">
<polygon style="fill:white;stroke:black;" points="0,-0 0,-20 266,-20 266,-0 0,-0"/>
<text text-anchor="middle" x="133" y="-7" style="font-family:Arial;font-size:10.00;">ltr/learners/bayesian_learner/bayesian_learner_unittest.cc</text>
</a>
</g>
<!-- Node1&#45;&gt;Node5 -->
<g id="edge40" class="edge"><title>Node1&#45;&gt;Node5</title>
<path style="fill:none;stroke:midnightblue;" d="M268,-278C170,-263 23,-229 23,-178 23,-178 23,-178 23,-122 23,-72 79,-36 111,-20"/>
<polygon style="fill:midnightblue;stroke:midnightblue;" points="267.508,-281.471 278,-280 268.881,-274.607 267.508,-281.471"/>
</g>
<!-- Node7 -->
<g id="node14" class="node"><title>Node7</title>
<a xlink:href="non__linear__discriminant__density__learner_8h.html" target="_top" xlink:title="ltr/density_estimators/non_linear_discriminant_density_learner.h">
<polygon style="fill:white;stroke:black;" points="562,-168 562,-188 856,-188 856,-168 562,-168"/>
<text text-anchor="middle" x="709" y="-175" style="font-family:Arial;font-size:10.00;">ltr/density_estimators/non_linear_discriminant_density_learner.h</text>
</a>
</g>
<!-- Node1&#45;&gt;Node7 -->
<g id="edge14" class="edge"><title>Node1&#45;&gt;Node7</title>
<path style="fill:none;stroke:midnightblue;" d="M393,-277C465,-254 611,-208 677,-188"/>
<polygon style="fill:midnightblue;stroke:midnightblue;" points="391.573,-273.774 383,-280 393.584,-280.479 391.573,-273.774"/>
</g>
<!-- Node10 -->
<g id="node24" class="node"><title>Node10</title>
<a xlink:href="non__linear__discriminant_8h.html" target="_top" xlink:title="ltr/density_estimators/non_linear_discriminant.h">
<polygon style="fill:white;stroke:black;" points="880,-224 880,-244 1103,-244 1103,-224 880,-224"/>
<text text-anchor="middle" x="991" y="-231" style="font-family:Arial;font-size:10.00;">ltr/density_estimators/non_linear_discriminant.h</text>
</a>
</g>
<!-- Node1&#45;&gt;Node10 -->
<g id="edge28" class="edge"><title>Node1&#45;&gt;Node10</title>
<path style="fill:none;stroke:midnightblue;" d="M475,-279C593,-269 767,-254 880,-244"/>
<polygon style="fill:midnightblue;stroke:midnightblue;" points="474.602,-275.522 465,-280 475.299,-282.488 474.602,-275.522"/>
</g>
<!-- Node3 -->
<g id="node5" class="node"><title>Node3</title>
<a xlink:href="density__estimators__learners__unittests_8cc.html" target="_top" xlink:title="ltr/density_estimators/density_estimators_learners_unittests.cc">
<polygon style="fill:white;stroke:black;" points="601,-56 601,-76 892,-76 892,-56 601,-56"/>
<text text-anchor="middle" x="746" y="-63" style="font-family:Arial;font-size:10.00;">ltr/density_estimators/density_estimators_learners_unittests.cc</text>
</a>
</g>
<!-- Node2&#45;&gt;Node3 -->
<g id="edge4" class="edge"><title>Node2&#45;&gt;Node3</title>
<path style="fill:none;stroke:midnightblue;" d="M297,-111C399,-101 548,-86 647,-76"/>
<polygon style="fill:midnightblue;stroke:midnightblue;" points="296.602,-107.522 287,-112 297.299,-114.488 296.602,-107.522"/>
</g>
<!-- Node2&#45;&gt;Node4 -->
<g id="edge6" class="edge"><title>Node2&#45;&gt;Node4</title>
<path style="fill:none;stroke:midnightblue;" d="M230,-109C264,-99 309,-85 340,-76"/>
<polygon style="fill:midnightblue;stroke:midnightblue;" points="228.573,-105.774 220,-112 230.584,-112.479 228.573,-105.774"/>
</g>
<!-- Node2&#45;&gt;Node5 -->
<g id="edge12" class="edge"><title>Node2&#45;&gt;Node5</title>
<path style="fill:none;stroke:midnightblue;" d="M178,-103C166,-78 147,-39 138,-20"/>
<polygon style="fill:midnightblue;stroke:midnightblue;" points="174.74,-104.283 182,-112 181.137,-101.44 174.74,-104.283"/>
</g>
<!-- Node4&#45;&gt;Node5 -->
<g id="edge8" class="edge"><title>Node4&#45;&gt;Node5</title>
<path style="fill:none;stroke:midnightblue;" d="M320,-54C276,-44 216,-29 176,-20"/>
<polygon style="fill:midnightblue;stroke:midnightblue;" points="319.508,-57.4708 330,-56 320.881,-50.6067 319.508,-57.4708"/>
</g>
<!-- Node6 -->
<g id="node11" class="node"><title>Node6</title>
<a xlink:href="generator_8cc.html" target="_top" xlink:title="ltr/serialization_test/generator/generator.cc">
<polygon style="fill:white;stroke:black;" points="284,-0 284,-20 485,-20 485,-0 284,-0"/>
<text text-anchor="middle" x="384" y="-7" style="font-family:Arial;font-size:10.00;">ltr/serialization_test/generator/generator.cc</text>
</a>
</g>
<!-- Node4&#45;&gt;Node6 -->
<g id="edge10" class="edge"><title>Node4&#45;&gt;Node6</title>
<path style="fill:none;stroke:midnightblue;" d="M377,-46C379,-37 381,-28 382,-20"/>
<polygon style="fill:midnightblue;stroke:midnightblue;" points="373.529,-45.5078 375,-56 380.393,-46.8806 373.529,-45.5078"/>
</g>
<!-- Node8 -->
<g id="node16" class="node"><title>Node8</title>
<a xlink:href="quadratic__discriminant__density__learner_8h.html" target="_top" xlink:title="ltr/density_estimators/quadratic_discriminant_density_learner.h">
<polygon style="fill:white;stroke:black;" points="379,-112 379,-132 668,-132 668,-112 379,-112"/>
<text text-anchor="middle" x="523" y="-119" style="font-family:Arial;font-size:10.00;">ltr/density_estimators/quadratic_discriminant_density_learner.h</text>
</a>
</g>
<!-- Node7&#45;&gt;Node8 -->
<g id="edge16" class="edge"><title>Node7&#45;&gt;Node8</title>
<path style="fill:none;stroke:midnightblue;" d="M666,-165C632,-155 587,-141 556,-132"/>
<polygon style="fill:midnightblue;stroke:midnightblue;" points="665.416,-168.479 676,-168 667.427,-161.774 665.416,-168.479"/>
</g>
<!-- Node9 -->
<g id="node20" class="node"><title>Node9</title>
<a xlink:href="normal__naive__bayes__density__learner_8h.html" target="_top" xlink:title="ltr/density_estimators/normal_naive_bayes_density_learner.h">
<polygon style="fill:white;stroke:black;" points="685,-112 685,-132 964,-132 964,-112 685,-112"/>
<text text-anchor="middle" x="824" y="-119" style="font-family:Arial;font-size:10.00;">ltr/density_estimators/normal_naive_bayes_density_learner.h</text>
</a>
</g>
<!-- Node7&#45;&gt;Node9 -->
<g id="edge22" class="edge"><title>Node7&#45;&gt;Node9</title>
<path style="fill:none;stroke:midnightblue;" d="M739,-164C760,-154 786,-141 803,-132"/>
<polygon style="fill:midnightblue;stroke:midnightblue;" points="737.717,-160.74 730,-168 740.56,-167.137 737.717,-160.74"/>
</g>
<!-- Node8&#45;&gt;Node3 -->
<g id="edge18" class="edge"><title>Node8&#45;&gt;Node3</title>
<path style="fill:none;stroke:midnightblue;" d="M573,-110C613,-100 669,-85 706,-76"/>
<polygon style="fill:midnightblue;stroke:midnightblue;" points="572.119,-106.607 563,-112 573.492,-113.471 572.119,-106.607"/>
</g>
<!-- Node8&#45;&gt;Node4 -->
<g id="edge20" class="edge"><title>Node8&#45;&gt;Node4</title>
<path style="fill:none;stroke:midnightblue;" d="M486,-108C460,-98 424,-85 400,-76"/>
<polygon style="fill:midnightblue;stroke:midnightblue;" points="485.415,-111.536 496,-112 488.015,-105.036 485.415,-111.536"/>
</g>
<!-- Node9&#45;&gt;Node3 -->
<g id="edge24" class="edge"><title>Node9&#45;&gt;Node3</title>
<path style="fill:none;stroke:midnightblue;" d="M802,-106C788,-96 771,-84 760,-76"/>
<polygon style="fill:midnightblue;stroke:midnightblue;" points="799.9,-108.8 810,-112 804.1,-103.2 799.9,-108.8"/>
</g>
<!-- Node9&#45;&gt;Node4 -->
<g id="edge26" class="edge"><title>Node9&#45;&gt;Node4</title>
<path style="fill:none;stroke:midnightblue;" d="M733,-111C651,-101 532,-86 453,-76"/>
<polygon style="fill:midnightblue;stroke:midnightblue;" points="732.701,-114.488 743,-112 733.398,-107.522 732.701,-114.488"/>
</g>
<!-- Node10&#45;&gt;Node3 -->
<g id="edge32" class="edge"><title>Node10&#45;&gt;Node3</title>
<path style="fill:none;stroke:midnightblue;" d="M994,-214C997,-187 997,-139 972,-112 955,-94 904,-83 855,-76"/>
<polygon style="fill:midnightblue;stroke:midnightblue;" points="990.512,-213.701 993,-224 997.478,-214.398 990.512,-213.701"/>
</g>
<!-- Node10&#45;&gt;Node7 -->
<g id="edge30" class="edge"><title>Node10&#45;&gt;Node7</title>
<path style="fill:none;stroke:midnightblue;" d="M931,-222C879,-212 807,-197 759,-188"/>
<polygon style="fill:midnightblue;stroke:midnightblue;" points="930.508,-225.471 941,-224 931.881,-218.607 930.508,-225.471"/>
</g>
<!-- Node11 -->
<g id="node28" class="node"><title>Node11</title>
<a xlink:href="density__estimators__scorers__unittests_8cc.html" target="_top" xlink:title="ltr/density_estimators/density_estimators_scorers_unittests.cc">
<polygon style="fill:white;stroke:black;" points="1019,-168 1019,-188 1308,-188 1308,-168 1019,-168"/>
<text text-anchor="middle" x="1163" y="-175" style="font-family:Arial;font-size:10.00;">ltr/density_estimators/density_estimators_scorers_unittests.cc</text>
</a>
</g>
<!-- Node10&#45;&gt;Node11 -->
<g id="edge34" class="edge"><title>Node10&#45;&gt;Node11</title>
<path style="fill:none;stroke:midnightblue;" d="M1032,-221C1062,-211 1104,-197 1132,-188"/>
<polygon style="fill:midnightblue;stroke:midnightblue;" points="1030.57,-217.774 1022,-224 1032.58,-224.479 1030.57,-217.774"/>
</g>
<!-- Node12 -->
<g id="node30" class="node"><title>Node12</title>
<a xlink:href="non__linear__discriminant_8cc.html" target="_top" xlink:title="ltr/density_estimators/non_linear_discriminant.cc">
<polygon style="fill:white;stroke:black;" points="1325,-168 1325,-188 1553,-188 1553,-168 1325,-168"/>
<text text-anchor="middle" x="1439" y="-175" style="font-family:Arial;font-size:10.00;">ltr/density_estimators/non_linear_discriminant.cc</text>
</a>
</g>
<!-- Node10&#45;&gt;Node12 -->
<g id="edge36" class="edge"><title>Node10&#45;&gt;Node12</title>
<path style="fill:none;stroke:midnightblue;" d="M1081,-223C1163,-213 1281,-198 1359,-188"/>
<polygon style="fill:midnightblue;stroke:midnightblue;" points="1080.6,-219.522 1071,-224 1081.3,-226.488 1080.6,-219.522"/>
</g>
</g>
</svg>
