<?xml version="1.0" encoding="UTF-8" standalone="no"?>
<!DOCTYPE svg PUBLIC "-//W3C//DTD SVG 1.0//EN"
 "http://www.w3.org/TR/2001/REC-SVG-20010904/DTD/svg10.dtd" [
 <!ATTLIST svg xmlns:xlink CDATA #FIXED "http://www.w3.org/1999/xlink">
]>
<!-- Generated by Graphviz version 2.20.2 (Tue Mar &#160;2 19:03:41 UTC 2010)
     For user: (jenkins)  -->
<!-- Title: G Pages: 1 -->
<svg width="555pt" height="140pt"
 viewBox="0.00 0.00 555.00 140.00" xmlns="http://www.w3.org/2000/svg" xmlns:xlink="http://www.w3.org/1999/xlink">
<g id="graph0" class="graph" transform="scale(1 1) rotate(0) translate(4 136)">
<title>G</title>
<polygon style="fill:white;stroke:white;" points="-4,4 -4,-136 551,-136 551,4 -4,4"/>
<!-- Node1 -->
<g id="node1" class="node"><title>Node1</title>
<polygon style="fill:#bfbfbf;stroke:black;" points="202,-112 202,-132 343,-132 343,-112 202,-112"/>
<text text-anchor="middle" x="272" y="-119" style="font-family:Arial;font-size:10.00;">ltr/scorers/bayesian_scorer.h</text>
</g>
<!-- Node2 -->
<g id="node3" class="node"><title>Node2</title>
<a xlink:href="bayesian__learner_8h.html" target="_top" xlink:title="ltr/learners/bayesian_learner/bayesian_learner.h">
<polygon style="fill:white;stroke:black;" points="161,-56 161,-76 383,-76 383,-56 161,-56"/>
<text text-anchor="middle" x="272" y="-63" style="font-family:Arial;font-size:10.00;">ltr/learners/bayesian_learner/bayesian_learner.h</text>
</a>
</g>
<!-- Node1&#45;&gt;Node2 -->
<g id="edge2" class="edge"><title>Node1&#45;&gt;Node2</title>
<path style="fill:none;stroke:midnightblue;" d="M272,-102C272,-93 272,-84 272,-76"/>
<polygon style="fill:midnightblue;stroke:midnightblue;" points="268.5,-102 272,-112 275.5,-102 268.5,-102"/>
</g>
<!-- Node3 -->
<g id="node5" class="node"><title>Node3</title>
<a xlink:href="bayesian__learner__unittest_8cc.html" target="_top" xlink:title="ltr/learners/bayesian_learner/bayesian_learner_unittest.cc">
<polygon style="fill:white;stroke:black;" points="0,-0 0,-20 266,-20 266,-0 0,-0"/>
<text text-anchor="middle" x="133" y="-7" style="font-family:Arial;font-size:10.00;">ltr/learners/bayesian_learner/bayesian_learner_unittest.cc</text>
</a>
</g>
<!-- Node1&#45;&gt;Node3 -->
<g id="edge8" class="edge"><title>Node1&#45;&gt;Node3</title>
<path style="fill:none;stroke:midnightblue;" d="M206,-109C186,-102 166,-92 152,-76 138,-60 134,-34 133,-20"/>
<polygon style="fill:midnightblue;stroke:midnightblue;" points="205.416,-112.479 216,-112 207.427,-105.774 205.416,-112.479"/>
</g>
<!-- Node5 -->
<g id="node10" class="node"><title>Node5</title>
<a xlink:href="bayesian__scorer_8cc.html" target="_top" xlink:title="ltr/scorers/bayesian_scorer.cc">
<polygon style="fill:white;stroke:black;" points="401,-56 401,-76 548,-76 548,-56 401,-56"/>
<text text-anchor="middle" x="474" y="-63" style="font-family:Arial;font-size:10.00;">ltr/scorers/bayesian_scorer.cc</text>
</a>
</g>
<!-- Node1&#45;&gt;Node5 -->
<g id="edge10" class="edge"><title>Node1&#45;&gt;Node5</title>
<path style="fill:none;stroke:midnightblue;" d="M318,-109C354,-99 404,-85 438,-76"/>
<polygon style="fill:midnightblue;stroke:midnightblue;" points="316.573,-105.774 308,-112 318.584,-112.479 316.573,-105.774"/>
</g>
<!-- Node2&#45;&gt;Node3 -->
<g id="edge4" class="edge"><title>Node2&#45;&gt;Node3</title>
<path style="fill:none;stroke:midnightblue;" d="M238,-52C213,-42 180,-29 158,-20"/>
<polygon style="fill:midnightblue;stroke:midnightblue;" points="236.44,-55.1369 247,-56 239.283,-48.7402 236.44,-55.1369"/>
</g>
<!-- Node4 -->
<g id="node7" class="node"><title>Node4</title>
<a xlink:href="generator_8cc.html" target="_top" xlink:title="ltr/serialization_test/generator/generator.cc">
<polygon style="fill:white;stroke:black;" points="284,-0 284,-20 485,-20 485,-0 284,-0"/>
<text text-anchor="middle" x="384" y="-7" style="font-family:Arial;font-size:10.00;">ltr/serialization_test/generator/generator.cc</text>
</a>
</g>
<!-- Node2&#45;&gt;Node4 -->
<g id="edge6" class="edge"><title>Node2&#45;&gt;Node4</title>
<path style="fill:none;stroke:midnightblue;" d="M301,-51C321,-42 346,-29 364,-20"/>
<polygon style="fill:midnightblue;stroke:midnightblue;" points="299.042,-48.084 292,-56 302.441,-54.2031 299.042,-48.084"/>
</g>
</g>
</svg>
