<?xml version="1.0" encoding="UTF-8" standalone="no"?>
<!DOCTYPE svg PUBLIC "-//W3C//DTD SVG 1.0//EN"
 "http://www.w3.org/TR/2001/REC-SVG-20010904/DTD/svg10.dtd" [
 <!ATTLIST svg xmlns:xlink CDATA #FIXED "http://www.w3.org/1999/xlink">
]>
<!-- Generated by Graphviz version 2.20.2 (Tue Mar &#160;2 19:03:41 UTC 2010)
     For user: (jenkins)  -->
<!-- Title: G Pages: 1 -->
<svg width="2866pt" height="196pt"
 viewBox="0.00 0.00 2866.00 196.00" xmlns="http://www.w3.org/2000/svg" xmlns:xlink="http://www.w3.org/1999/xlink">
<g id="graph0" class="graph" transform="scale(1 1) rotate(0) translate(4 192)">
<title>G</title>
<polygon style="fill:white;stroke:white;" points="-4,4 -4,-192 2862,-192 2862,4 -4,4"/>
<!-- Node1 -->
<g id="node1" class="node"><title>Node1</title>
<polygon style="fill:#bfbfbf;stroke:black;" points="2082,-168 2082,-188 2348,-188 2348,-168 2082,-168"/>
<text text-anchor="middle" x="2215" y="-175" style="font-family:Arial;font-size:10.00;">ltr/learners/bayesian_learner/bayesian_learner_unittest.cc</text>
</g>
<!-- Node2 -->
<g id="node3" class="node"><title>Node2</title>
<polygon style="fill:white;stroke:#bfbfbf;" points="451,-0 451,-20 486,-20 486,-0 451,-0"/>
<text text-anchor="middle" x="468" y="-7" style="font-family:Arial;font-size:10.00;">map</text>
</g>
<!-- Node1&#45;&gt;Node2 -->
<g id="edge2" class="edge"><title>Node1&#45;&gt;Node2</title>
<path style="fill:none;stroke:midnightblue;" d="M2082,-177C1614,-173 75,-153 5,-76 0,-69 0,-62 5,-56 35,-23 346,-13 441,-10"/>
<polygon style="fill:midnightblue;stroke:midnightblue;" points="441,-13.5001 451,-10 441,-6.5001 441,-13.5001"/>
</g>
<!-- Node3 -->
<g id="node5" class="node"><title>Node3</title>
<polygon style="fill:white;stroke:#bfbfbf;" points="2262,-112 2262,-132 2316,-132 2316,-112 2262,-112"/>
<text text-anchor="middle" x="2289" y="-119" style="font-family:Arial;font-size:10.00;">iostream</text>
</g>
<!-- Node1&#45;&gt;Node3 -->
<g id="edge4" class="edge"><title>Node1&#45;&gt;Node3</title>
<path style="fill:none;stroke:midnightblue;" d="M2228,-168C2239,-160 2255,-148 2268,-138"/>
<polygon style="fill:midnightblue;stroke:midnightblue;" points="2270.1,-140.8 2276,-132 2265.9,-135.2 2270.1,-140.8"/>
</g>
<!-- Node4 -->
<g id="node7" class="node"><title>Node4</title>
<polygon style="fill:white;stroke:#bfbfbf;" points="2334,-112 2334,-132 2405,-132 2405,-112 2334,-112"/>
<text text-anchor="middle" x="2369" y="-119" style="font-family:Arial;font-size:10.00;">gtest/gtest.h</text>
</g>
<!-- Node1&#45;&gt;Node4 -->
<g id="edge6" class="edge"><title>Node1&#45;&gt;Node4</title>
<path style="fill:none;stroke:midnightblue;" d="M2243,-168C2268,-159 2305,-145 2332,-135"/>
<polygon style="fill:midnightblue;stroke:midnightblue;" points="2333.43,-138.226 2342,-132 2331.42,-131.521 2333.43,-138.226"/>
</g>
<!-- Node5 -->
<g id="node9" class="node"><title>Node5</title>
<polygon style="fill:white;stroke:#bfbfbf;" points="14,-56 14,-76 276,-76 276,-56 14,-56"/>
<text text-anchor="middle" x="145" y="-63" style="font-family:Arial;font-size:10.00;">ltr/density_estimators/base_probability_density_learner.h</text>
</g>
<!-- Node1&#45;&gt;Node5 -->
<g id="edge8" class="edge"><title>Node1&#45;&gt;Node5</title>
<path style="fill:none;stroke:midnightblue;" d="M2082,-175C1770,-168 999,-150 740,-132 558,-119 344,-93 229,-77"/>
<polygon style="fill:midnightblue;stroke:midnightblue;" points="229.299,-73.5125 219,-76 228.602,-80.4778 229.299,-73.5125"/>
</g>
<!-- Node6 -->
<g id="node11" class="node"><title>Node6</title>
<polygon style="fill:white;stroke:#bfbfbf;" points="294,-56 294,-76 567,-76 567,-56 294,-56"/>
<text text-anchor="middle" x="430" y="-63" style="font-family:Arial;font-size:10.00;">ltr/density_estimators/fisher_discriminant_density_learner.h</text>
</g>
<!-- Node1&#45;&gt;Node6 -->
<g id="edge10" class="edge"><title>Node1&#45;&gt;Node6</title>
<path style="fill:none;stroke:midnightblue;" d="M2082,-175C1795,-168 1125,-151 898,-132 755,-119 589,-93 498,-78"/>
<polygon style="fill:midnightblue;stroke:midnightblue;" points="498.492,-74.5292 488,-76 497.119,-81.3933 498.492,-74.5292"/>
</g>
<!-- Node7 -->
<g id="node13" class="node"><title>Node7</title>
<polygon style="fill:white;stroke:#bfbfbf;" points="2422,-112 2422,-132 2624,-132 2624,-112 2422,-112"/>
<text text-anchor="middle" x="2523" y="-119" style="font-family:Arial;font-size:10.00;">ltr/density_estimators/fisher_discriminant.h</text>
</g>
<!-- Node1&#45;&gt;Node7 -->
<g id="edge12" class="edge"><title>Node1&#45;&gt;Node7</title>
<path style="fill:none;stroke:midnightblue;" d="M2270,-168C2323,-159 2402,-144 2458,-134"/>
<polygon style="fill:midnightblue;stroke:midnightblue;" points="2458.88,-137.393 2468,-132 2457.51,-130.529 2458.88,-137.393"/>
</g>
<!-- Node8 -->
<g id="node15" class="node"><title>Node8</title>
<a xlink:href="bayesian__learner_8h.html" target="_top" xlink:title="ltr/learners/bayesian_learner/bayesian_learner.h">
<polygon style="fill:white;stroke:black;" points="907,-112 907,-132 1129,-132 1129,-112 907,-112"/>
<text text-anchor="middle" x="1018" y="-119" style="font-family:Arial;font-size:10.00;">ltr/learners/bayesian_learner/bayesian_learner.h</text>
</a>
</g>
<!-- Node1&#45;&gt;Node8 -->
<g id="edge14" class="edge"><title>Node1&#45;&gt;Node8</title>
<path style="fill:none;stroke:midnightblue;" d="M2082,-172C1848,-161 1365,-138 1139,-127"/>
<polygon style="fill:midnightblue;stroke:midnightblue;" points="1139,-123.5 1129,-127 1139,-130.5 1139,-123.5"/>
</g>
<!-- Node13 -->
<g id="node28" class="node"><title>Node13</title>
<polygon style="fill:white;stroke:#bfbfbf;" points="1947,-0 1947,-20 2054,-20 2054,-0 1947,-0"/>
<text text-anchor="middle" x="2000" y="-7" style="font-family:Arial;font-size:10.00;">ltr/utility/shared_ptr.h</text>
</g>
<!-- Node1&#45;&gt;Node13 -->
<g id="edge60" class="edge"><title>Node1&#45;&gt;Node13</title>
<path style="fill:none;stroke:midnightblue;" d="M2218,-168C2225,-145 2237,-88 2210,-56 2191,-33 2119,-21 2064,-15"/>
<polygon style="fill:midnightblue;stroke:midnightblue;" points="2064.3,-11.5125 2054,-14 2063.6,-18.4778 2064.3,-11.5125"/>
</g>
<!-- Node14 -->
<g id="node30" class="node"><title>Node14</title>
<polygon style="fill:white;stroke:#bfbfbf;" points="1409,-0 1409,-20 1493,-20 1493,-0 1409,-0"/>
<text text-anchor="middle" x="1451" y="-7" style="font-family:Arial;font-size:10.00;">ltr/data/object.h</text>
</g>
<!-- Node1&#45;&gt;Node14 -->
<g id="edge58" class="edge"><title>Node1&#45;&gt;Node14</title>
<path style="fill:none;stroke:midnightblue;" d="M2215,-168C2215,-144 2212,-84 2177,-56 2151,-35 1666,-17 1503,-11"/>
<polygon style="fill:midnightblue;stroke:midnightblue;" points="1503,-7.5001 1493,-11 1503,-14.5001 1503,-7.5001"/>
</g>
<!-- Node20 -->
<g id="node46" class="node"><title>Node20</title>
<polygon style="fill:white;stroke:#bfbfbf;" points="2028,-56 2028,-76 2169,-76 2169,-56 2028,-56"/>
<text text-anchor="middle" x="2098" y="-63" style="font-family:Arial;font-size:10.00;">ltr/scorers/bayesian_scorer.h</text>
</g>
<!-- Node1&#45;&gt;Node20 -->
<g id="edge54" class="edge"><title>Node1&#45;&gt;Node20</title>
<path style="fill:none;stroke:midnightblue;" d="M2204,-168C2184,-148 2141,-107 2116,-83"/>
<polygon style="fill:midnightblue;stroke:midnightblue;" points="2118.55,-80.5962 2109,-76 2113.6,-85.546 2118.55,-80.5962"/>
</g>
<!-- Node21 -->
<g id="node49" class="node"><title>Node21</title>
<polygon style="fill:white;stroke:#bfbfbf;" points="2642,-112 2642,-132 2737,-132 2737,-112 2642,-112"/>
<text text-anchor="middle" x="2689" y="-119" style="font-family:Arial;font-size:10.00;">ltr/data/data_set.h</text>
</g>
<!-- Node1&#45;&gt;Node21 -->
<g id="edge56" class="edge"><title>Node1&#45;&gt;Node21</title>
<path style="fill:none;stroke:midnightblue;" d="M2322,-168C2405,-160 2521,-148 2632,-132"/>
<polygon style="fill:midnightblue;stroke:midnightblue;" points="2632.4,-135.478 2642,-131 2631.7,-128.512 2632.4,-135.478"/>
</g>
<!-- Node22 -->
<g id="node53" class="node"><title>Node22</title>
<polygon style="fill:white;stroke:#bfbfbf;" points="2754,-112 2754,-132 2858,-132 2858,-112 2754,-112"/>
<text text-anchor="middle" x="2806" y="-119" style="font-family:Arial;font-size:10.00;">ltr/utility/numerical.h</text>
</g>
<!-- Node1&#45;&gt;Node22 -->
<g id="edge62" class="edge"><title>Node1&#45;&gt;Node22</title>
<path style="fill:none;stroke:midnightblue;" d="M2348,-169C2452,-161 2603,-150 2744,-132"/>
<polygon style="fill:midnightblue;stroke:midnightblue;" points="2744.4,-135.478 2754,-131 2743.7,-128.512 2744.4,-135.478"/>
</g>
<!-- Node8&#45;&gt;Node2 -->
<g id="edge16" class="edge"><title>Node8&#45;&gt;Node2</title>
<path style="fill:none;stroke:midnightblue;" d="M907,-116C831,-110 727,-98 638,-76 610,-69 536,-38 496,-22"/>
<polygon style="fill:midnightblue;stroke:midnightblue;" points="496.585,-18.4643 486,-18 493.985,-24.9636 496.585,-18.4643"/>
</g>
<!-- Node8&#45;&gt;Node5 -->
<g id="edge38" class="edge"><title>Node8&#45;&gt;Node5</title>
<path style="fill:none;stroke:midnightblue;" d="M907,-115C765,-106 514,-90 286,-76"/>
<polygon style="fill:midnightblue;stroke:midnightblue;" points="286.299,-72.5125 276,-75 285.602,-79.4778 286.299,-72.5125"/>
</g>
<!-- Node8&#45;&gt;Node6 -->
<g id="edge42" class="edge"><title>Node8&#45;&gt;Node6</title>
<path style="fill:none;stroke:midnightblue;" d="M913,-112C809,-102 652,-87 545,-77"/>
<polygon style="fill:midnightblue;stroke:midnightblue;" points="545.299,-73.5125 535,-76 544.602,-80.4778 545.299,-73.5125"/>
</g>
<!-- Node9 -->
<g id="node18" class="node"><title>Node9</title>
<polygon style="fill:white;stroke:#bfbfbf;" points="914,-0 914,-20 954,-20 954,-0 914,-0"/>
<text text-anchor="middle" x="934" y="-7" style="font-family:Arial;font-size:10.00;">string</text>
</g>
<!-- Node8&#45;&gt;Node9 -->
<g id="edge18" class="edge"><title>Node8&#45;&gt;Node9</title>
<path style="fill:none;stroke:midnightblue;" d="M1004,-112C993,-103 978,-90 967,-76 957,-62 948,-44 942,-30"/>
<polygon style="fill:midnightblue;stroke:midnightblue;" points="944.964,-27.9849 938,-20 938.464,-30.5847 944.964,-27.9849"/>
</g>
<!-- Node10 -->
<g id="node20" class="node"><title>Node10</title>
<polygon style="fill:white;stroke:#bfbfbf;" points="818,-56 818,-76 920,-76 920,-56 818,-56"/>
<text text-anchor="middle" x="869" y="-63" style="font-family:Arial;font-size:10.00;">ltr/learners/learner.h</text>
</g>
<!-- Node8&#45;&gt;Node10 -->
<g id="edge20" class="edge"><title>Node8&#45;&gt;Node10</title>
<path style="fill:none;stroke:midnightblue;" d="M991,-112C968,-103 932,-90 906,-80"/>
<polygon style="fill:midnightblue;stroke:midnightblue;" points="906.585,-76.4643 896,-76 903.985,-82.9636 906.585,-76.4643"/>
</g>
<!-- Node11 -->
<g id="node22" class="node"><title>Node11</title>
<a xlink:href="bayesian__scorer_8h.html" target="_top" xlink:title="ltr/scorers/bayesian_scorer.h">
<polygon style="fill:white;stroke:black;" points="660,-56 660,-76 801,-76 801,-56 660,-56"/>
<text text-anchor="middle" x="730" y="-63" style="font-family:Arial;font-size:10.00;">ltr/scorers/bayesian_scorer.h</text>
</a>
</g>
<!-- Node8&#45;&gt;Node11 -->
<g id="edge22" class="edge"><title>Node8&#45;&gt;Node11</title>
<path style="fill:none;stroke:midnightblue;" d="M967,-112C918,-103 844,-88 792,-78"/>
<polygon style="fill:midnightblue;stroke:midnightblue;" points="792.492,-74.5292 782,-76 791.119,-81.3933 792.492,-74.5292"/>
</g>
<!-- Node12 -->
<g id="node26" class="node"><title>Node12</title>
<polygon style="fill:white;stroke:#bfbfbf;" points="503,-0 503,-20 776,-20 776,-0 503,-0"/>
<text text-anchor="middle" x="639" y="-7" style="font-family:Arial;font-size:10.00;">ltr/density_estimators/base_probability_density_estimator.h</text>
</g>
<!-- Node8&#45;&gt;Node12 -->
<g id="edge40" class="edge"><title>Node8&#45;&gt;Node12</title>
<path style="fill:none;stroke:midnightblue;" d="M907,-115C806,-107 670,-93 651,-76 639,-64 637,-45 637,-30"/>
<polygon style="fill:midnightblue;stroke:midnightblue;" points="640.488,-30.2987 638,-20 633.522,-29.6021 640.488,-30.2987"/>
</g>
<!-- Node8&#45;&gt;Node13 -->
<g id="edge48" class="edge"><title>Node8&#45;&gt;Node13</title>
<path style="fill:none;stroke:midnightblue;" d="M1129,-120C1376,-115 1947,-102 1981,-76 1994,-66 1998,-45 2000,-30"/>
<polygon style="fill:midnightblue;stroke:midnightblue;" points="2003.5,-30 2000,-20 1996.5,-30 2003.5,-30"/>
</g>
<!-- Node16 -->
<g id="node34" class="node"><title>Node16</title>
<polygon style="fill:white;stroke:#bfbfbf;" points="976,-56 976,-76 1201,-76 1201,-56 976,-56"/>
<text text-anchor="middle" x="1088" y="-63" style="font-family:Arial;font-size:10.00;">ltr/parameters_container/parameters_container.h</text>
</g>
<!-- Node8&#45;&gt;Node16 -->
<g id="edge36" class="edge"><title>Node8&#45;&gt;Node16</title>
<path style="fill:none;stroke:midnightblue;" d="M1031,-112C1041,-104 1055,-93 1067,-83"/>
<polygon style="fill:midnightblue;stroke:midnightblue;" points="1069.78,-85.2191 1075,-76 1065.17,-79.9511 1069.78,-85.2191"/>
</g>
<!-- Node17 -->
<g id="node39" class="node"><title>Node17</title>
<polygon style="fill:white;stroke:#bfbfbf;" points="1218,-56 1218,-76 1497,-76 1497,-56 1218,-56"/>
<text text-anchor="middle" x="1357" y="-63" style="font-family:Arial;font-size:10.00;">ltr/density_estimators/normal_naive_bayes_density_learner.h</text>
</g>
<!-- Node8&#45;&gt;Node17 -->
<g id="edge44" class="edge"><title>Node8&#45;&gt;Node17</title>
<path style="fill:none;stroke:midnightblue;" d="M1079,-112C1137,-103 1225,-88 1287,-78"/>
<polygon style="fill:midnightblue;stroke:midnightblue;" points="1287.88,-81.3933 1297,-76 1286.51,-74.5292 1287.88,-81.3933"/>
</g>
<!-- Node18 -->
<g id="node41" class="node"><title>Node18</title>
<polygon style="fill:white;stroke:#bfbfbf;" points="1514,-56 1514,-76 1803,-76 1803,-56 1514,-56"/>
<text text-anchor="middle" x="1658" y="-63" style="font-family:Arial;font-size:10.00;">ltr/density_estimators/quadratic_discriminant_density_learner.h</text>
</g>
<!-- Node8&#45;&gt;Node18 -->
<g id="edge46" class="edge"><title>Node8&#45;&gt;Node18</title>
<path style="fill:none;stroke:midnightblue;" d="M1129,-112C1242,-102 1415,-87 1533,-77"/>
<polygon style="fill:midnightblue;stroke:midnightblue;" points="1533.4,-80.4778 1543,-76 1532.7,-73.5125 1533.4,-80.4778"/>
</g>
<!-- Node19 -->
<g id="node44" class="node"><title>Node19</title>
<polygon style="fill:white;stroke:#bfbfbf;" points="1820,-56 1820,-76 1973,-76 1973,-56 1820,-56"/>
<text text-anchor="middle" x="1896" y="-63" style="font-family:Arial;font-size:10.00;">ltr/utility/statistics_calculation.h</text>
</g>
<!-- Node8&#45;&gt;Node19 -->
<g id="edge50" class="edge"><title>Node8&#45;&gt;Node19</title>
<path style="fill:none;stroke:midnightblue;" d="M1129,-117C1281,-111 1561,-97 1810,-76"/>
<polygon style="fill:midnightblue;stroke:midnightblue;" points="1810.4,-79.4778 1820,-75 1809.7,-72.5125 1810.4,-79.4778"/>
</g>
<!-- Node8&#45;&gt;Node20 -->
<g id="edge52" class="edge"><title>Node8&#45;&gt;Node20</title>
<path style="fill:none;stroke:midnightblue;" d="M1129,-119C1314,-115 1694,-102 2014,-76 2015,-76 2017,-76 2018,-76"/>
<polygon style="fill:midnightblue;stroke:midnightblue;" points="2018.88,-79.3933 2028,-74 2017.51,-72.5292 2018.88,-79.3933"/>
</g>
<!-- Node11&#45;&gt;Node2 -->
<g id="edge24" class="edge"><title>Node11&#45;&gt;Node2</title>
<path style="fill:none;stroke:midnightblue;" d="M663,-56C618,-48 557,-37 496,-20"/>
<polygon style="fill:midnightblue;stroke:midnightblue;" points="496.584,-16.5212 486,-17 494.573,-23.2259 496.584,-16.5212"/>
</g>
<!-- Node11&#45;&gt;Node9 -->
<g id="edge26" class="edge"><title>Node11&#45;&gt;Node9</title>
<path style="fill:none;stroke:midnightblue;" d="M767,-56C801,-47 853,-32 898,-20 900,-19 902,-19 904,-18"/>
<polygon style="fill:midnightblue;stroke:midnightblue;" points="905.427,-21.2259 914,-15 903.416,-14.5212 905.427,-21.2259"/>
</g>
<!-- Node11&#45;&gt;Node12 -->
<g id="edge28" class="edge"><title>Node11&#45;&gt;Node12</title>
<path style="fill:none;stroke:midnightblue;" d="M714,-56C701,-48 680,-35 665,-25"/>
<polygon style="fill:midnightblue;stroke:midnightblue;" points="666.441,-21.7969 656,-20 663.042,-27.916 666.441,-21.7969"/>
</g>
<!-- Node11&#45;&gt;Node13 -->
<g id="edge30" class="edge"><title>Node11&#45;&gt;Node13</title>
<path style="fill:none;stroke:midnightblue;" d="M801,-57C804,-56 806,-56 809,-56 1031,-37 1723,-18 1937,-11"/>
<polygon style="fill:midnightblue;stroke:midnightblue;" points="1937,-14.5001 1947,-11 1937,-7.5001 1937,-14.5001"/>
</g>
<!-- Node11&#45;&gt;Node14 -->
<g id="edge32" class="edge"><title>Node11&#45;&gt;Node14</title>
<path style="fill:none;stroke:midnightblue;" d="M801,-57C804,-56 806,-56 809,-56 1028,-34 1289,-19 1399,-13"/>
<polygon style="fill:midnightblue;stroke:midnightblue;" points="1399.4,-16.4778 1409,-12 1398.7,-9.5125 1399.4,-16.4778"/>
</g>
<!-- Node15 -->
<g id="node32" class="node"><title>Node15</title>
<polygon style="fill:white;stroke:#bfbfbf;" points="793,-0 793,-20 890,-20 890,-0 793,-0"/>
<text text-anchor="middle" x="841" y="-7" style="font-family:Arial;font-size:10.00;">ltr/scorers/scorer.h</text>
</g>
<!-- Node11&#45;&gt;Node15 -->
<g id="edge34" class="edge"><title>Node11&#45;&gt;Node15</title>
<path style="fill:none;stroke:midnightblue;" d="M750,-56C767,-47 792,-34 812,-25"/>
<polygon style="fill:midnightblue;stroke:midnightblue;" points="813.958,-27.916 821,-20 810.559,-21.7969 813.958,-27.916"/>
</g>
</g>
</svg>
