<?xml version="1.0" encoding="UTF-8" standalone="no"?>
<!DOCTYPE svg PUBLIC "-//W3C//DTD SVG 1.0//EN"
 "http://www.w3.org/TR/2001/REC-SVG-20010904/DTD/svg10.dtd" [
 <!ATTLIST svg xmlns:xlink CDATA #FIXED "http://www.w3.org/1999/xlink">
]>
<!-- Generated by Graphviz version 2.20.2 (Tue Mar &#160;2 19:03:41 UTC 2010)
     For user: (jenkins)  -->
<!-- Title: G Pages: 1 -->
<svg width="2273pt" height="140pt"
 viewBox="0.00 0.00 2273.00 140.00" xmlns="http://www.w3.org/2000/svg" xmlns:xlink="http://www.w3.org/1999/xlink">
<g id="graph0" class="graph" transform="scale(1 1) rotate(0) translate(4 136)">
<title>G</title>
<polygon style="fill:white;stroke:white;" points="-4,4 -4,-136 2269,-136 2269,4 -4,4"/>
<!-- Node1 -->
<g id="node1" class="node"><title>Node1</title>
<polygon style="fill:#bfbfbf;stroke:black;" points="542,-112 542,-132 764,-132 764,-112 542,-112"/>
<text text-anchor="middle" x="653" y="-119" style="font-family:Arial;font-size:10.00;">ltr/learners/bayesian_learner/bayesian_learner.h</text>
</g>
<!-- Node2 -->
<g id="node3" class="node"><title>Node2</title>
<polygon style="fill:white;stroke:#bfbfbf;" points="0,-0 0,-20 35,-20 35,-0 0,-0"/>
<text text-anchor="middle" x="17" y="-7" style="font-family:Arial;font-size:10.00;">map</text>
</g>
<!-- Node1&#45;&gt;Node2 -->
<g id="edge2" class="edge"><title>Node1&#45;&gt;Node2</title>
<path style="fill:none;stroke:midnightblue;" d="M542,-116C417,-109 224,-95 154,-76 113,-64 69,-41 43,-25"/>
<polygon style="fill:midnightblue;stroke:midnightblue;" points="44.4414,-21.7969 34,-20 41.0418,-27.916 44.4414,-21.7969"/>
</g>
<!-- Node3 -->
<g id="node5" class="node"><title>Node3</title>
<polygon style="fill:white;stroke:#bfbfbf;" points="52,-0 52,-20 92,-20 92,-0 52,-0"/>
<text text-anchor="middle" x="72" y="-7" style="font-family:Arial;font-size:10.00;">string</text>
</g>
<!-- Node1&#45;&gt;Node3 -->
<g id="edge4" class="edge"><title>Node1&#45;&gt;Node3</title>
<path style="fill:none;stroke:midnightblue;" d="M542,-115C430,-107 266,-93 205,-76 165,-64 122,-41 97,-25"/>
<polygon style="fill:midnightblue;stroke:midnightblue;" points="98.4414,-21.7969 88,-20 95.0418,-27.916 98.4414,-21.7969"/>
</g>
<!-- Node4 -->
<g id="node7" class="node"><title>Node4</title>
<polygon style="fill:white;stroke:#bfbfbf;" points="421,-56 421,-76 523,-76 523,-56 421,-56"/>
<text text-anchor="middle" x="472" y="-63" style="font-family:Arial;font-size:10.00;">ltr/learners/learner.h</text>
</g>
<!-- Node1&#45;&gt;Node4 -->
<g id="edge6" class="edge"><title>Node1&#45;&gt;Node4</title>
<path style="fill:none;stroke:midnightblue;" d="M621,-112C591,-103 547,-89 515,-79"/>
<polygon style="fill:midnightblue;stroke:midnightblue;" points="515.584,-75.5212 505,-76 513.573,-82.2259 515.584,-75.5212"/>
</g>
<!-- Node5 -->
<g id="node9" class="node"><title>Node5</title>
<a xlink:href="bayesian__scorer_8h.html" target="_top" xlink:title="ltr/scorers/bayesian_scorer.h">
<polygon style="fill:white;stroke:black;" points="225,-56 225,-76 366,-76 366,-56 225,-56"/>
<text text-anchor="middle" x="295" y="-63" style="font-family:Arial;font-size:10.00;">ltr/scorers/bayesian_scorer.h</text>
</a>
</g>
<!-- Node1&#45;&gt;Node5 -->
<g id="edge8" class="edge"><title>Node1&#45;&gt;Node5</title>
<path style="fill:none;stroke:midnightblue;" d="M589,-112C527,-103 434,-88 369,-78"/>
<polygon style="fill:midnightblue;stroke:midnightblue;" points="369.492,-74.5292 359,-76 368.119,-81.3933 369.492,-74.5292"/>
</g>
<!-- Node6 -->
<g id="node13" class="node"><title>Node6</title>
<polygon style="fill:white;stroke:#bfbfbf;" points="110,-0 110,-20 383,-20 383,-0 110,-0"/>
<text text-anchor="middle" x="246" y="-7" style="font-family:Arial;font-size:10.00;">ltr/density_estimators/base_probability_density_estimator.h</text>
</g>
<!-- Node1&#45;&gt;Node6 -->
<g id="edge26" class="edge"><title>Node1&#45;&gt;Node6</title>
<path style="fill:none;stroke:midnightblue;" d="M542,-118C419,-112 237,-100 216,-76 203,-62 216,-42 228,-27"/>
<polygon style="fill:midnightblue;stroke:midnightblue;" points="230.404,-29.546 235,-20 225.454,-24.5962 230.404,-29.546"/>
</g>
<!-- Node7 -->
<g id="node15" class="node"><title>Node7</title>
<polygon style="fill:white;stroke:#bfbfbf;" points="616,-0 616,-20 723,-20 723,-0 616,-0"/>
<text text-anchor="middle" x="669" y="-7" style="font-family:Arial;font-size:10.00;">ltr/utility/shared_ptr.h</text>
</g>
<!-- Node1&#45;&gt;Node7 -->
<g id="edge34" class="edge"><title>Node1&#45;&gt;Node7</title>
<path style="fill:none;stroke:midnightblue;" d="M542,-114C487,-108 429,-97 412,-76 406,-69 406,-62 412,-56 415,-52 530,-33 606,-21"/>
<polygon style="fill:midnightblue;stroke:midnightblue;" points="606.881,-24.3933 616,-19 605.508,-17.5292 606.881,-24.3933"/>
</g>
<!-- Node10 -->
<g id="node21" class="node"><title>Node10</title>
<polygon style="fill:white;stroke:#bfbfbf;" points="541,-56 541,-76 766,-76 766,-56 541,-56"/>
<text text-anchor="middle" x="653" y="-63" style="font-family:Arial;font-size:10.00;">ltr/parameters_container/parameters_container.h</text>
</g>
<!-- Node1&#45;&gt;Node10 -->
<g id="edge22" class="edge"><title>Node1&#45;&gt;Node10</title>
<path style="fill:none;stroke:midnightblue;" d="M653,-112C653,-105 653,-95 653,-86"/>
<polygon style="fill:midnightblue;stroke:midnightblue;" points="656.5,-86 653,-76 649.5,-86 656.5,-86"/>
</g>
<!-- Node11 -->
<g id="node23" class="node"><title>Node11</title>
<polygon style="fill:white;stroke:#bfbfbf;" points="783,-56 783,-76 1045,-76 1045,-56 783,-56"/>
<text text-anchor="middle" x="914" y="-63" style="font-family:Arial;font-size:10.00;">ltr/density_estimators/base_probability_density_learner.h</text>
</g>
<!-- Node1&#45;&gt;Node11 -->
<g id="edge24" class="edge"><title>Node1&#45;&gt;Node11</title>
<path style="fill:none;stroke:midnightblue;" d="M700,-112C744,-103 810,-88 857,-78"/>
<polygon style="fill:midnightblue;stroke:midnightblue;" points="857.881,-81.3933 867,-76 856.508,-74.5292 857.881,-81.3933"/>
</g>
<!-- Node12 -->
<g id="node26" class="node"><title>Node12</title>
<polygon style="fill:white;stroke:#bfbfbf;" points="1063,-56 1063,-76 1336,-76 1336,-56 1063,-56"/>
<text text-anchor="middle" x="1199" y="-63" style="font-family:Arial;font-size:10.00;">ltr/density_estimators/fisher_discriminant_density_learner.h</text>
</g>
<!-- Node1&#45;&gt;Node12 -->
<g id="edge28" class="edge"><title>Node1&#45;&gt;Node12</title>
<path style="fill:none;stroke:midnightblue;" d="M751,-112C847,-102 993,-87 1092,-77"/>
<polygon style="fill:midnightblue;stroke:midnightblue;" points="1092.4,-80.4778 1102,-76 1091.7,-73.5125 1092.4,-80.4778"/>
</g>
<!-- Node13 -->
<g id="node28" class="node"><title>Node13</title>
<polygon style="fill:white;stroke:#bfbfbf;" points="1353,-56 1353,-76 1632,-76 1632,-56 1353,-56"/>
<text text-anchor="middle" x="1492" y="-63" style="font-family:Arial;font-size:10.00;">ltr/density_estimators/normal_naive_bayes_density_learner.h</text>
</g>
<!-- Node1&#45;&gt;Node13 -->
<g id="edge30" class="edge"><title>Node1&#45;&gt;Node13</title>
<path style="fill:none;stroke:midnightblue;" d="M764,-114C898,-105 1132,-89 1343,-76"/>
<polygon style="fill:midnightblue;stroke:midnightblue;" points="1343.4,-79.4778 1353,-75 1342.7,-72.5125 1343.4,-79.4778"/>
</g>
<!-- Node14 -->
<g id="node30" class="node"><title>Node14</title>
<polygon style="fill:white;stroke:#bfbfbf;" points="1649,-56 1649,-76 1938,-76 1938,-56 1649,-56"/>
<text text-anchor="middle" x="1793" y="-63" style="font-family:Arial;font-size:10.00;">ltr/density_estimators/quadratic_discriminant_density_learner.h</text>
</g>
<!-- Node1&#45;&gt;Node14 -->
<g id="edge32" class="edge"><title>Node1&#45;&gt;Node14</title>
<path style="fill:none;stroke:midnightblue;" d="M764,-117C945,-110 1314,-93 1639,-76"/>
<polygon style="fill:midnightblue;stroke:midnightblue;" points="1639.4,-79.4778 1649,-75 1638.7,-72.5125 1639.4,-79.4778"/>
</g>
<!-- Node15 -->
<g id="node33" class="node"><title>Node15</title>
<polygon style="fill:white;stroke:#bfbfbf;" points="1955,-56 1955,-76 2108,-76 2108,-56 1955,-56"/>
<text text-anchor="middle" x="2031" y="-63" style="font-family:Arial;font-size:10.00;">ltr/utility/statistics_calculation.h</text>
</g>
<!-- Node1&#45;&gt;Node15 -->
<g id="edge36" class="edge"><title>Node1&#45;&gt;Node15</title>
<path style="fill:none;stroke:midnightblue;" d="M764,-121C986,-118 1501,-109 1945,-76"/>
<polygon style="fill:midnightblue;stroke:midnightblue;" points="1945.4,-79.4778 1955,-75 1944.7,-72.5125 1945.4,-79.4778"/>
</g>
<!-- Node16 -->
<g id="node35" class="node"><title>Node16</title>
<polygon style="fill:white;stroke:#bfbfbf;" points="2125,-56 2125,-76 2266,-76 2266,-56 2125,-56"/>
<text text-anchor="middle" x="2195" y="-63" style="font-family:Arial;font-size:10.00;">ltr/scorers/bayesian_scorer.h</text>
</g>
<!-- Node1&#45;&gt;Node16 -->
<g id="edge38" class="edge"><title>Node1&#45;&gt;Node16</title>
<path style="fill:none;stroke:midnightblue;" d="M764,-120C1054,-114 1834,-96 2115,-76"/>
<polygon style="fill:midnightblue;stroke:midnightblue;" points="2115.4,-79.4778 2125,-75 2114.7,-72.5125 2115.4,-79.4778"/>
</g>
<!-- Node5&#45;&gt;Node2 -->
<g id="edge10" class="edge"><title>Node5&#45;&gt;Node2</title>
<path style="fill:none;stroke:midnightblue;" d="M225,-57C176,-49 110,-38 45,-20"/>
<polygon style="fill:midnightblue;stroke:midnightblue;" points="45.584,-16.5212 35,-17 43.5725,-23.2259 45.584,-16.5212"/>
</g>
<!-- Node5&#45;&gt;Node3 -->
<g id="edge12" class="edge"><title>Node5&#45;&gt;Node3</title>
<path style="fill:none;stroke:midnightblue;" d="M248,-56C210,-48 157,-35 102,-20"/>
<polygon style="fill:midnightblue;stroke:midnightblue;" points="102.584,-16.5212 92,-17 100.573,-23.2259 102.584,-16.5212"/>
</g>
<!-- Node5&#45;&gt;Node6 -->
<g id="edge14" class="edge"><title>Node5&#45;&gt;Node6</title>
<path style="fill:none;stroke:midnightblue;" d="M286,-56C279,-48 269,-37 261,-28"/>
<polygon style="fill:midnightblue;stroke:midnightblue;" points="263.8,-25.9 255,-20 258.2,-30.1 263.8,-25.9"/>
</g>
<!-- Node5&#45;&gt;Node7 -->
<g id="edge16" class="edge"><title>Node5&#45;&gt;Node7</title>
<path style="fill:none;stroke:midnightblue;" d="M364,-56C425,-47 516,-34 606,-20"/>
<polygon style="fill:midnightblue;stroke:midnightblue;" points="606.881,-23.3933 616,-18 605.508,-16.5292 606.881,-23.3933"/>
</g>
<!-- Node8 -->
<g id="node17" class="node"><title>Node8</title>
<polygon style="fill:white;stroke:#bfbfbf;" points="400,-0 400,-20 484,-20 484,-0 400,-0"/>
<text text-anchor="middle" x="442" y="-7" style="font-family:Arial;font-size:10.00;">ltr/data/object.h</text>
</g>
<!-- Node5&#45;&gt;Node8 -->
<g id="edge18" class="edge"><title>Node5&#45;&gt;Node8</title>
<path style="fill:none;stroke:midnightblue;" d="M321,-56C345,-47 380,-34 406,-24"/>
<polygon style="fill:midnightblue;stroke:midnightblue;" points="408.015,-26.9636 416,-20 405.415,-20.4643 408.015,-26.9636"/>
</g>
<!-- Node9 -->
<g id="node19" class="node"><title>Node9</title>
<polygon style="fill:white;stroke:#bfbfbf;" points="502,-0 502,-20 599,-20 599,-0 502,-0"/>
<text text-anchor="middle" x="550" y="-7" style="font-family:Arial;font-size:10.00;">ltr/scorers/scorer.h</text>
</g>
<!-- Node5&#45;&gt;Node9 -->
<g id="edge20" class="edge"><title>Node5&#45;&gt;Node9</title>
<path style="fill:none;stroke:midnightblue;" d="M341,-56C384,-47 448,-32 494,-22"/>
<polygon style="fill:midnightblue;stroke:midnightblue;" points="494.881,-25.3933 504,-20 493.508,-18.5292 494.881,-25.3933"/>
</g>
</g>
</svg>
