<?xml version="1.0" encoding="UTF-8" standalone="no"?>
<!DOCTYPE svg PUBLIC "-//W3C//DTD SVG 1.0//EN"
 "http://www.w3.org/TR/2001/REC-SVG-20010904/DTD/svg10.dtd" [
 <!ATTLIST svg xmlns:xlink CDATA #FIXED "http://www.w3.org/1999/xlink">
]>
<!-- Generated by Graphviz version 2.20.2 (Tue Mar &#160;2 19:03:41 UTC 2010)
     For user: (jenkins)  -->
<!-- Title: G Pages: 1 -->
<svg width="306pt" height="84pt"
 viewBox="0.00 0.00 306.00 84.00" xmlns="http://www.w3.org/2000/svg" xmlns:xlink="http://www.w3.org/1999/xlink">
<g id="graph0" class="graph" transform="scale(1 1) rotate(0) translate(4 80)">
<title>G</title>
<polygon style="fill:white;stroke:white;" points="-4,4 -4,-80 302,-80 302,4 -4,4"/>
<!-- Node1 -->
<g id="node1" class="node"><title>Node1</title>
<polygon style="fill:#bfbfbf;stroke:black;" points="15,-56 15,-76 219,-76 219,-56 15,-56"/>
<text text-anchor="middle" x="117" y="-63" style="font-family:Arial;font-size:10.00;">ltr/measures/binary_classification_margin.h</text>
</g>
<!-- Node2 -->
<g id="node3" class="node"><title>Node2</title>
<polygon style="fill:white;stroke:#bfbfbf;" points="0,-0 0,-20 40,-20 40,-0 0,-0"/>
<text text-anchor="middle" x="20" y="-7" style="font-family:Arial;font-size:10.00;">string</text>
</g>
<!-- Node1&#45;&gt;Node2 -->
<g id="edge2" class="edge"><title>Node1&#45;&gt;Node2</title>
<path style="fill:none;stroke:midnightblue;" d="M100,-56C85,-48 63,-35 47,-25"/>
<polygon style="fill:midnightblue;stroke:midnightblue;" points="48.4414,-21.7969 38,-20 45.0418,-27.916 48.4414,-21.7969"/>
</g>
<!-- Node3 -->
<g id="node5" class="node"><title>Node3</title>
<polygon style="fill:white;stroke:#bfbfbf;" points="58,-0 58,-20 177,-20 177,-0 58,-0"/>
<text text-anchor="middle" x="117" y="-7" style="font-family:Arial;font-size:10.00;">ltr/measures/measure.h</text>
</g>
<!-- Node1&#45;&gt;Node3 -->
<g id="edge4" class="edge"><title>Node1&#45;&gt;Node3</title>
<path style="fill:none;stroke:midnightblue;" d="M117,-56C117,-49 117,-39 117,-30"/>
<polygon style="fill:midnightblue;stroke:midnightblue;" points="120.5,-30 117,-20 113.5,-30 120.5,-30"/>
</g>
<!-- Node4 -->
<g id="node7" class="node"><title>Node4</title>
<polygon style="fill:white;stroke:#bfbfbf;" points="194,-0 194,-20 298,-20 298,-0 194,-0"/>
<text text-anchor="middle" x="246" y="-7" style="font-family:Arial;font-size:10.00;">ltr/utility/numerical.h</text>
</g>
<!-- Node1&#45;&gt;Node4 -->
<g id="edge6" class="edge"><title>Node1&#45;&gt;Node4</title>
<path style="fill:none;stroke:midnightblue;" d="M140,-56C160,-47 190,-34 213,-24"/>
<polygon style="fill:midnightblue;stroke:midnightblue;" points="215.015,-26.9636 223,-20 212.415,-20.4643 215.015,-26.9636"/>
</g>
</g>
</svg>
