<?xml version="1.0" encoding="UTF-8" standalone="no"?>
<!DOCTYPE svg PUBLIC "-//W3C//DTD SVG 1.0//EN"
 "http://www.w3.org/TR/2001/REC-SVG-20010904/DTD/svg10.dtd" [
 <!ATTLIST svg xmlns:xlink CDATA #FIXED "http://www.w3.org/1999/xlink">
]>
<!-- Generated by Graphviz version 2.20.2 (Tue Mar &#160;2 19:03:41 UTC 2010)
     For user: (jenkins)  -->
<!-- Title: G Pages: 1 -->
<svg width="412pt" height="218pt"
 viewBox="0.00 0.00 412.00 218.00" xmlns="http://www.w3.org/2000/svg" xmlns:xlink="http://www.w3.org/1999/xlink">
<g id="graph0" class="graph" transform="scale(1 1) rotate(0) translate(4 214)">
<title>G</title>
<polygon style="fill:white;stroke:white;" points="-4,4 -4,-214 408,-214 408,4 -4,4"/>
<!-- Node1 -->
<g id="node1" class="node"><title>Node1</title>
<polygon style="fill:#bfbfbf;stroke:black;" points="118,-95 118,-115 222,-115 222,-95 118,-95"/>
<text text-anchor="middle" x="170" y="-102" style="font-family:Arial;font-size:10.00;">ltr::FeatureConverter</text>
</g>
<!-- Node4 -->
<g id="node7" class="node"><title>Node4</title>
<a xlink:href="classltr_1_1_fake_feature_converter.html" target="_top" xlink:title="ltr::FakeFeatureConverter">
<polygon style="fill:white;stroke:black;" points="268,-190 268,-210 394,-210 394,-190 268,-190"/>
<text text-anchor="middle" x="331" y="-197" style="font-family:Arial;font-size:10.00;">ltr::FakeFeatureConverter</text>
</a>
</g>
<!-- Node1&#45;&gt;Node4 -->
<g id="edge6" class="edge"><title>Node1&#45;&gt;Node4</title>
<path style="fill:none;stroke:midnightblue;" d="M186,-123C203,-140 230,-166 258,-181 265,-185 273,-188 281,-190"/>
<polygon style="fill:midnightblue;stroke:midnightblue;" points="188.219,-120.221 179,-115 182.951,-124.831 188.219,-120.221"/>
</g>
<!-- Node5 -->
<g id="node9" class="node"><title>Node5</title>
<a xlink:href="classltr_1_1_feature_sampler.html" target="_top" xlink:title="Samples features with specified indices.">
<polygon style="fill:white;stroke:black;" points="282,-152 282,-172 381,-172 381,-152 282,-152"/>
<text text-anchor="middle" x="331" y="-159" style="font-family:Arial;font-size:10.00;">ltr::FeatureSampler</text>
</a>
</g>
<!-- Node1&#45;&gt;Node5 -->
<g id="edge8" class="edge"><title>Node1&#45;&gt;Node5</title>
<path style="fill:none;stroke:midnightblue;" d="M200,-119C217,-127 239,-136 258,-143 268,-146 279,-149 289,-152"/>
<polygon style="fill:midnightblue;stroke:midnightblue;" points="201.56,-115.863 191,-115 198.717,-122.26 201.56,-115.863"/>
</g>
<!-- Node6 -->
<g id="node11" class="node"><title>Node6</title>
<a xlink:href="classltr_1_1_nan_to_neutral_converter.html" target="_top" xlink:title="ltr::NanToNeutralConverter">
<polygon style="fill:white;stroke:black;" points="267,-114 267,-134 396,-134 396,-114 267,-114"/>
<text text-anchor="middle" x="331" y="-121" style="font-family:Arial;font-size:10.00;">ltr::NanToNeutralConverter</text>
</a>
</g>
<!-- Node1&#45;&gt;Node6 -->
<g id="edge10" class="edge"><title>Node1&#45;&gt;Node6</title>
<path style="fill:none;stroke:midnightblue;" d="M232,-112C243,-114 256,-115 267,-117"/>
<polygon style="fill:midnightblue;stroke:midnightblue;" points="232.299,-108.512 222,-111 231.602,-115.478 232.299,-108.512"/>
</g>
<!-- Node7 -->
<g id="node13" class="node"><title>Node7</title>
<a xlink:href="classltr_1_1_nominal_to_bool_converter.html" target="_top" xlink:title="Converts nominal features to boolean.">
<polygon style="fill:white;stroke:black;" points="264,-76 264,-96 399,-96 399,-76 264,-76"/>
<text text-anchor="middle" x="331" y="-83" style="font-family:Arial;font-size:10.00;">ltr::NominalToBoolConverter</text>
</a>
</g>
<!-- Node1&#45;&gt;Node7 -->
<g id="edge12" class="edge"><title>Node1&#45;&gt;Node7</title>
<path style="fill:none;stroke:midnightblue;" d="M232,-98C242,-96 253,-96 264,-94"/>
<polygon style="fill:midnightblue;stroke:midnightblue;" points="231.602,-94.5222 222,-99 232.299,-101.488 231.602,-94.5222"/>
</g>
<!-- Node8 -->
<g id="node15" class="node"><title>Node8</title>
<a xlink:href="classltr_1_1_per_feature_linear_converter.html" target="_top" xlink:title="Perform linear transformation of each feature.">
<polygon style="fill:white;stroke:black;" points="259,-38 259,-58 404,-58 404,-38 259,-38"/>
<text text-anchor="middle" x="331" y="-45" style="font-family:Arial;font-size:10.00;">ltr::PerFeatureLinearConverter</text>
</a>
</g>
<!-- Node1&#45;&gt;Node8 -->
<g id="edge14" class="edge"><title>Node1&#45;&gt;Node8</title>
<path style="fill:none;stroke:midnightblue;" d="M200,-91C217,-83 239,-74 258,-67 268,-64 279,-61 289,-58"/>
<polygon style="fill:midnightblue;stroke:midnightblue;" points="198.717,-87.7402 191,-95 201.56,-94.1369 198.717,-87.7402"/>
</g>
<!-- Node9 -->
<g id="node17" class="node"><title>Node9</title>
<a xlink:href="classltr_1_1_remove_nominal_converter.html" target="_top" xlink:title="Remove all nominal features.">
<polygon style="fill:white;stroke:black;" points="261,-0 261,-20 402,-20 402,-0 261,-0"/>
<text text-anchor="middle" x="331" y="-7" style="font-family:Arial;font-size:10.00;">ltr::RemoveNominalConverter</text>
</a>
</g>
<!-- Node1&#45;&gt;Node9 -->
<g id="edge16" class="edge"><title>Node1&#45;&gt;Node9</title>
<path style="fill:none;stroke:midnightblue;" d="M186,-87C203,-70 230,-44 258,-29 265,-25 273,-22 281,-20"/>
<polygon style="fill:midnightblue;stroke:midnightblue;" points="182.951,-85.1694 179,-95 188.219,-89.779 182.951,-85.1694"/>
</g>
<!-- Node2 -->
<g id="node2" class="node"><title>Node2</title>
<a xlink:href="classltr_1_1_serializable.html" target="_top" xlink:title="The interface class for objects, that can be serialized. That means that a cpp code for those can be ...">
<polygon style="fill:white;stroke:black;" points="1,-114 1,-134 82,-134 82,-114 1,-114"/>
<text text-anchor="middle" x="41" y="-121" style="font-family:Arial;font-size:10.00;">ltr::Serializable</text>
</a>
</g>
<!-- Node2&#45;&gt;Node1 -->
<g id="edge2" class="edge"><title>Node2&#45;&gt;Node1</title>
<path style="fill:none;stroke:midnightblue;" d="M92,-116C100,-115 109,-114 118,-113"/>
<polygon style="fill:midnightblue;stroke:midnightblue;" points="91.1194,-112.607 82,-118 92.4922,-119.471 91.1194,-112.607"/>
</g>
<!-- Node3 -->
<g id="node4" class="node"><title>Node3</title>
<a xlink:href="classltr_1_1_aliaser.html" target="_top" xlink:title="Inherit from this class in order to use alias.">
<polygon style="fill:white;stroke:black;" points="11,-76 11,-96 71,-96 71,-76 11,-76"/>
<text text-anchor="middle" x="41" y="-83" style="font-family:Arial;font-size:10.00;">ltr::Aliaser</text>
</a>
</g>
<!-- Node3&#45;&gt;Node1 -->
<g id="edge4" class="edge"><title>Node3&#45;&gt;Node1</title>
<path style="fill:none;stroke:midnightblue;" d="M81,-91C93,-93 106,-95 118,-97"/>
<polygon style="fill:midnightblue;stroke:midnightblue;" points="81.2987,-87.5125 71,-90 80.6021,-94.4778 81.2987,-87.5125"/>
</g>
</g>
</svg>
