<?xml version="1.0" encoding="UTF-8" standalone="no"?>
<!DOCTYPE svg PUBLIC "-//W3C//DTD SVG 1.0//EN"
 "http://www.w3.org/TR/2001/REC-SVG-20010904/DTD/svg10.dtd" [
 <!ATTLIST svg xmlns:xlink CDATA #FIXED "http://www.w3.org/1999/xlink">
]>
<!-- Generated by Graphviz version 2.20.2 (Tue Mar &#160;2 19:03:41 UTC 2010)
     For user: (jenkins)  -->
<!-- Title: G Pages: 1 -->
<svg width="336pt" height="196pt"
 viewBox="0.00 0.00 336.00 196.00" xmlns="http://www.w3.org/2000/svg" xmlns:xlink="http://www.w3.org/1999/xlink">
<g id="graph0" class="graph" transform="scale(1 1) rotate(0) translate(4 192)">
<title>G</title>
<polygon style="fill:white;stroke:white;" points="-4,4 -4,-192 332,-192 332,4 -4,4"/>
<!-- Node1 -->
<g id="node1" class="node"><title>Node1</title>
<polygon style="fill:#bfbfbf;stroke:black;" points="51,-0 51,-20 278,-20 278,-0 51,-0"/>
<text text-anchor="middle" x="164" y="-7" style="font-family:Arial;font-size:10.00;">ltr::NominalToBoolConverterLearner&lt; TElement &gt;</text>
</g>
<!-- Node2 -->
<g id="node2" class="node"><title>Node2</title>
<a xlink:href="classltr_1_1_base_feature_converter_learner.html" target="_top" xlink:title="ltr::BaseFeatureConverterLearner\&lt; TElement, NominalToBoolConverter \&gt;">
<polygon style="fill:white;stroke:black;" points="0,-56 0,-76 329,-76 329,-56 0,-56"/>
<text text-anchor="middle" x="164" y="-63" style="font-family:Arial;font-size:10.00;">ltr::BaseFeatureConverterLearner&lt; TElement, NominalToBoolConverter &gt;</text>
</a>
</g>
<!-- Node2&#45;&gt;Node1 -->
<g id="edge2" class="edge"><title>Node2&#45;&gt;Node1</title>
<path style="fill:none;stroke:midnightblue;" d="M164,-46C164,-37 164,-28 164,-20"/>
<polygon style="fill:midnightblue;stroke:midnightblue;" points="160.5,-46 164,-56 167.5,-46 160.5,-46"/>
</g>
<!-- Node3 -->
<g id="node4" class="node"><title>Node3</title>
<a xlink:href="classltr_1_1_feature_converter_learner.html" target="_top" xlink:title="Learns input dataset and produces a FeatureConverter.">
<polygon style="fill:white;stroke:black;" points="67,-112 67,-132 262,-132 262,-112 67,-112"/>
<text text-anchor="middle" x="164" y="-119" style="font-family:Arial;font-size:10.00;">ltr::FeatureConverterLearner&lt; TElement &gt;</text>
</a>
</g>
<!-- Node3&#45;&gt;Node2 -->
<g id="edge4" class="edge"><title>Node3&#45;&gt;Node2</title>
<path style="fill:none;stroke:midnightblue;" d="M164,-102C164,-93 164,-84 164,-76"/>
<polygon style="fill:midnightblue;stroke:midnightblue;" points="160.5,-102 164,-112 167.5,-102 160.5,-102"/>
</g>
<!-- Node4 -->
<g id="node6" class="node"><title>Node4</title>
<a xlink:href="classltr_1_1_parameterized.html" target="_top" xlink:title="ltr::Parameterized">
<polygon style="fill:white;stroke:black;" points="20,-168 20,-188 113,-188 113,-168 20,-168"/>
<text text-anchor="middle" x="66" y="-175" style="font-family:Arial;font-size:10.00;">ltr::Parameterized</text>
</a>
</g>
<!-- Node4&#45;&gt;Node3 -->
<g id="edge6" class="edge"><title>Node4&#45;&gt;Node3</title>
<path style="fill:none;stroke:midnightblue;" d="M93,-163C110,-153 132,-140 146,-132"/>
<polygon style="fill:midnightblue;stroke:midnightblue;" points="91.0418,-160.084 84,-168 94.4414,-166.203 91.0418,-160.084"/>
</g>
<!-- Node5 -->
<g id="node8" class="node"><title>Node5</title>
<a xlink:href="classltr_1_1_printable.html" target="_top" xlink:title="ltr::Printable">
<polygon style="fill:white;stroke:black;" points="130,-168 130,-188 199,-188 199,-168 130,-168"/>
<text text-anchor="middle" x="164" y="-175" style="font-family:Arial;font-size:10.00;">ltr::Printable</text>
</a>
</g>
<!-- Node5&#45;&gt;Node3 -->
<g id="edge8" class="edge"><title>Node5&#45;&gt;Node3</title>
<path style="fill:none;stroke:midnightblue;" d="M164,-158C164,-149 164,-140 164,-132"/>
<polygon style="fill:midnightblue;stroke:midnightblue;" points="160.5,-158 164,-168 167.5,-158 160.5,-158"/>
</g>
<!-- Node6 -->
<g id="node10" class="node"><title>Node6</title>
<a xlink:href="classltr_1_1_aliaser.html" target="_top" xlink:title="Inherit from this class in order to use alias.">
<polygon style="fill:white;stroke:black;" points="216,-168 216,-188 276,-188 276,-168 216,-168"/>
<text text-anchor="middle" x="246" y="-175" style="font-family:Arial;font-size:10.00;">ltr::Aliaser</text>
</a>
</g>
<!-- Node6&#45;&gt;Node3 -->
<g id="edge10" class="edge"><title>Node6&#45;&gt;Node3</title>
<path style="fill:none;stroke:midnightblue;" d="M223,-162C209,-152 191,-140 179,-132"/>
<polygon style="fill:midnightblue;stroke:midnightblue;" points="220.9,-164.8 231,-168 225.1,-159.2 220.9,-164.8"/>
</g>
</g>
</svg>
