<?xml version="1.0" encoding="UTF-8" standalone="no"?>
<!DOCTYPE svg PUBLIC "-//W3C//DTD SVG 1.0//EN"
 "http://www.w3.org/TR/2001/REC-SVG-20010904/DTD/svg10.dtd" [
 <!ATTLIST svg xmlns:xlink CDATA #FIXED "http://www.w3.org/1999/xlink">
]>
<!-- Generated by Graphviz version 2.20.2 (Tue Mar &#160;2 19:03:41 UTC 2010)
     For user: (jenkins)  -->
<!-- Title: G Pages: 1 -->
<svg width="358pt" height="140pt"
 viewBox="0.00 0.00 358.00 140.00" xmlns="http://www.w3.org/2000/svg" xmlns:xlink="http://www.w3.org/1999/xlink">
<g id="graph0" class="graph" transform="scale(1 1) rotate(0) translate(4 136)">
<title>G</title>
<polygon style="fill:white;stroke:white;" points="-4,4 -4,-136 354,-136 354,4 -4,4"/>
<!-- Node1 -->
<g id="node1" class="node"><title>Node1</title>
<polygon style="fill:#bfbfbf;stroke:black;" points="103,-56 103,-76 238,-76 238,-56 103,-56"/>
<text text-anchor="middle" x="170" y="-63" style="font-family:Arial;font-size:10.00;">ltr::decision_tree::Condition</text>
</g>
<!-- Node3 -->
<g id="node5" class="node"><title>Node3</title>
<a xlink:href="classltr_1_1decision__tree_1_1_fake_condition.html" target="_top" xlink:title="ltr::decision_tree::FakeCondition">
<polygon style="fill:white;stroke:black;" points="0,-0 0,-20 156,-20 156,-0 0,-0"/>
<text text-anchor="middle" x="78" y="-7" style="font-family:Arial;font-size:10.00;">ltr::decision_tree::FakeCondition</text>
</a>
</g>
<!-- Node1&#45;&gt;Node3 -->
<g id="edge4" class="edge"><title>Node1&#45;&gt;Node3</title>
<path style="fill:none;stroke:midnightblue;" d="M145,-51C129,-41 108,-28 95,-20"/>
<polygon style="fill:midnightblue;stroke:midnightblue;" points="143.559,-54.2031 154,-56 146.958,-48.084 143.559,-54.2031"/>
</g>
<!-- Node4 -->
<g id="node7" class="node"><title>Node4</title>
<a xlink:href="classltr_1_1decision__tree_1_1_threshold_condition.html" target="_top" xlink:title="ltr::decision_tree::ThresholdCondition">
<polygon style="fill:white;stroke:black;" points="174,-0 174,-20 351,-20 351,-0 174,-0"/>
<text text-anchor="middle" x="262" y="-7" style="font-family:Arial;font-size:10.00;">ltr::decision_tree::ThresholdCondition</text>
</a>
</g>
<!-- Node1&#45;&gt;Node4 -->
<g id="edge6" class="edge"><title>Node1&#45;&gt;Node4</title>
<path style="fill:none;stroke:midnightblue;" d="M195,-51C211,-41 232,-28 245,-20"/>
<polygon style="fill:midnightblue;stroke:midnightblue;" points="193.042,-48.084 186,-56 196.441,-54.2031 193.042,-48.084"/>
</g>
<!-- Node2 -->
<g id="node2" class="node"><title>Node2</title>
<a xlink:href="classltr_1_1_serializable.html" target="_top" xlink:title="The interface class for objects, that can be serialized. That means that a cpp code for those can be ...">
<polygon style="fill:white;stroke:black;" points="130,-112 130,-132 211,-132 211,-112 130,-112"/>
<text text-anchor="middle" x="170" y="-119" style="font-family:Arial;font-size:10.00;">ltr::Serializable</text>
</a>
</g>
<!-- Node2&#45;&gt;Node1 -->
<g id="edge2" class="edge"><title>Node2&#45;&gt;Node1</title>
<path style="fill:none;stroke:midnightblue;" d="M170,-102C170,-93 170,-84 170,-76"/>
<polygon style="fill:midnightblue;stroke:midnightblue;" points="166.5,-102 170,-112 173.5,-102 166.5,-102"/>
</g>
</g>
</svg>
