<?xml version="1.0" encoding="UTF-8" standalone="no"?>
<!DOCTYPE svg PUBLIC "-//W3C//DTD SVG 1.0//EN"
 "http://www.w3.org/TR/2001/REC-SVG-20010904/DTD/svg10.dtd" [
 <!ATTLIST svg xmlns:xlink CDATA #FIXED "http://www.w3.org/1999/xlink">
]>
<!-- Generated by Graphviz version 2.20.2 (Tue Mar &#160;2 19:03:41 UTC 2010)
     For user: (jenkins)  -->
<!-- Title: G Pages: 1 -->
<svg width="318pt" height="140pt"
 viewBox="0.00 0.00 318.00 140.00" xmlns="http://www.w3.org/2000/svg" xmlns:xlink="http://www.w3.org/1999/xlink">
<g id="graph0" class="graph" transform="scale(1 1) rotate(0) translate(4 136)">
<title>G</title>
<polygon style="fill:white;stroke:white;" points="-4,4 -4,-136 314,-136 314,4 -4,4"/>
<!-- Node1 -->
<g id="node1" class="node"><title>Node1</title>
<polygon style="fill:#bfbfbf;stroke:black;" points="37,-0 37,-20 273,-20 273,-0 37,-0"/>
<text text-anchor="middle" x="155" y="-7" style="font-family:Arial;font-size:10.00;">ltr::FisherDiscriminantDensityLearner&lt; TElement &gt;</text>
</g>
<!-- Node2 -->
<g id="node2" class="node"><title>Node2</title>
<a xlink:href="classltr_1_1_base_probability_density_learner.html" target="_top" xlink:title="ltr::BaseProbabilityDensityLearner\&lt; TElement, FisherDiscriminant \&gt;">
<polygon style="fill:white;stroke:black;" points="0,-56 0,-76 310,-76 310,-56 0,-56"/>
<text text-anchor="middle" x="155" y="-63" style="font-family:Arial;font-size:10.00;">ltr::BaseProbabilityDensityLearner&lt; TElement, FisherDiscriminant &gt;</text>
</a>
</g>
<!-- Node2&#45;&gt;Node1 -->
<g id="edge2" class="edge"><title>Node2&#45;&gt;Node1</title>
<path style="fill:none;stroke:midnightblue;" d="M155,-46C155,-37 155,-28 155,-20"/>
<polygon style="fill:midnightblue;stroke:midnightblue;" points="151.5,-46 155,-56 158.5,-46 151.5,-46"/>
</g>
<!-- Node3 -->
<g id="node4" class="node"><title>Node3</title>
<a xlink:href="classltr_1_1_parameterized.html" target="_top" xlink:title="ltr::Parameterized">
<polygon style="fill:white;stroke:black;" points="109,-112 109,-132 202,-132 202,-112 109,-112"/>
<text text-anchor="middle" x="155" y="-119" style="font-family:Arial;font-size:10.00;">ltr::Parameterized</text>
</a>
</g>
<!-- Node3&#45;&gt;Node2 -->
<g id="edge4" class="edge"><title>Node3&#45;&gt;Node2</title>
<path style="fill:none;stroke:midnightblue;" d="M155,-102C155,-93 155,-84 155,-76"/>
<polygon style="fill:midnightblue;stroke:midnightblue;" points="151.5,-102 155,-112 158.5,-102 151.5,-102"/>
</g>
</g>
</svg>
