<?xml version="1.0" encoding="UTF-8" standalone="no"?>
<!DOCTYPE svg PUBLIC "-//W3C//DTD SVG 1.0//EN"
 "http://www.w3.org/TR/2001/REC-SVG-20010904/DTD/svg10.dtd" [
 <!ATTLIST svg xmlns:xlink CDATA #FIXED "http://www.w3.org/1999/xlink">
]>
<!-- Generated by Graphviz version 2.20.2 (Tue Mar &#160;2 19:03:41 UTC 2010)
     For user: (jenkins)  -->
<!-- Title: G Pages: 1 -->
<svg width="265pt" height="196pt"
 viewBox="0.00 0.00 265.00 196.00" xmlns="http://www.w3.org/2000/svg" xmlns:xlink="http://www.w3.org/1999/xlink">
<g id="graph0" class="graph" transform="scale(1 1) rotate(0) translate(4 192)">
<title>G</title>
<polygon style="fill:white;stroke:white;" points="-4,4 -4,-192 261,-192 261,4 -4,4"/>
<!-- Node1 -->
<g id="node1" class="node"><title>Node1</title>
<polygon style="fill:#bfbfbf;stroke:black;" points="0,-0 0,-20 234,-20 234,-0 0,-0"/>
<text text-anchor="middle" x="117" y="-7" style="font-family:Arial;font-size:10.00;">ltr::composition::CompositionLearner&lt; TElement &gt;</text>
</g>
<!-- Node2 -->
<g id="node2" class="node"><title>Node2</title>
<a xlink:href="classltr_1_1_base_learner.html" target="_top" xlink:title="ltr::BaseLearner\&lt; TElement, CompositionScorer \&gt;">
<polygon style="fill:white;stroke:black;" points="1,-56 1,-76 234,-76 234,-56 1,-56"/>
<text text-anchor="middle" x="117" y="-63" style="font-family:Arial;font-size:10.00;">ltr::BaseLearner&lt; TElement, CompositionScorer &gt;</text>
</a>
</g>
<!-- Node2&#45;&gt;Node1 -->
<g id="edge2" class="edge"><title>Node2&#45;&gt;Node1</title>
<path style="fill:none;stroke:midnightblue;" d="M117,-46C117,-37 117,-28 117,-20"/>
<polygon style="fill:midnightblue;stroke:midnightblue;" points="113.5,-46 117,-56 120.5,-46 113.5,-46"/>
</g>
<!-- Node3 -->
<g id="node4" class="node"><title>Node3</title>
<a xlink:href="classltr_1_1_learner.html" target="_top" xlink:title="Learns input dataset and produces a Scorer.">
<polygon style="fill:white;stroke:black;" points="56,-112 56,-132 178,-132 178,-112 56,-112"/>
<text text-anchor="middle" x="117" y="-119" style="font-family:Arial;font-size:10.00;">ltr::Learner&lt; TElement &gt;</text>
</a>
</g>
<!-- Node3&#45;&gt;Node2 -->
<g id="edge4" class="edge"><title>Node3&#45;&gt;Node2</title>
<path style="fill:none;stroke:midnightblue;" d="M117,-102C117,-93 117,-84 117,-76"/>
<polygon style="fill:midnightblue;stroke:midnightblue;" points="113.5,-102 117,-112 120.5,-102 113.5,-102"/>
</g>
<!-- Node4 -->
<g id="node6" class="node"><title>Node4</title>
<a xlink:href="classltr_1_1_reporter.html" target="_top" xlink:title="ltr::Reporter">
<polygon style="fill:white;stroke:black;" points="3,-168 3,-188 70,-188 70,-168 3,-168"/>
<text text-anchor="middle" x="36" y="-175" style="font-family:Arial;font-size:10.00;">ltr::Reporter</text>
</a>
</g>
<!-- Node4&#45;&gt;Node3 -->
<g id="edge6" class="edge"><title>Node4&#45;&gt;Node3</title>
<path style="fill:none;stroke:midnightblue;" d="M58,-162C73,-153 90,-140 102,-132"/>
<polygon style="fill:midnightblue;stroke:midnightblue;" points="55.9,-159.2 50,-168 60.1,-164.8 55.9,-159.2"/>
</g>
<!-- Node5 -->
<g id="node8" class="node"><title>Node5</title>
<a xlink:href="classltr_1_1_aliaser.html" target="_top" xlink:title="Inherit from this class in order to use alias.">
<polygon style="fill:white;stroke:black;" points="87,-168 87,-188 147,-188 147,-168 87,-168"/>
<text text-anchor="middle" x="117" y="-175" style="font-family:Arial;font-size:10.00;">ltr::Aliaser</text>
</a>
</g>
<!-- Node5&#45;&gt;Node3 -->
<g id="edge8" class="edge"><title>Node5&#45;&gt;Node3</title>
<path style="fill:none;stroke:midnightblue;" d="M117,-158C117,-149 117,-140 117,-132"/>
<polygon style="fill:midnightblue;stroke:midnightblue;" points="113.5,-158 117,-168 120.5,-158 113.5,-158"/>
</g>
<!-- Node6 -->
<g id="node10" class="node"><title>Node6</title>
<a xlink:href="classltr_1_1_parameterized.html" target="_top" xlink:title="ltr::Parameterized">
<polygon style="fill:white;stroke:black;" points="165,-168 165,-188 258,-188 258,-168 165,-168"/>
<text text-anchor="middle" x="211" y="-175" style="font-family:Arial;font-size:10.00;">ltr::Parameterized</text>
</a>
</g>
<!-- Node6&#45;&gt;Node3 -->
<g id="edge10" class="edge"><title>Node6&#45;&gt;Node3</title>
<path style="fill:none;stroke:midnightblue;" d="M185,-163C169,-153 148,-140 134,-132"/>
<polygon style="fill:midnightblue;stroke:midnightblue;" points="183.559,-166.203 194,-168 186.958,-160.084 183.559,-166.203"/>
</g>
</g>
</svg>
