<?xml version="1.0" encoding="UTF-8" standalone="no"?>
<!DOCTYPE svg PUBLIC "-//W3C//DTD SVG 1.0//EN"
 "http://www.w3.org/TR/2001/REC-SVG-20010904/DTD/svg10.dtd" [
 <!ATTLIST svg xmlns:xlink CDATA #FIXED "http://www.w3.org/1999/xlink">
]>
<!-- Generated by Graphviz version 2.20.2 (Tue Mar &#160;2 19:03:41 UTC 2010)
     For user: (jenkins)  -->
<!-- Title: G Pages: 1 -->
<svg width="264pt" height="140pt"
 viewBox="0.00 0.00 264.00 140.00" xmlns="http://www.w3.org/2000/svg" xmlns:xlink="http://www.w3.org/1999/xlink">
<g id="graph0" class="graph" transform="scale(1 1) rotate(0) translate(4 136)">
<title>G</title>
<polygon style="fill:white;stroke:white;" points="-4,4 -4,-136 260,-136 260,4 -4,4"/>
<!-- Node1 -->
<g id="node1" class="node"><title>Node1</title>
<polygon style="fill:#bfbfbf;stroke:black;" points="36,-56 36,-76 210,-76 210,-56 36,-56"/>
<text text-anchor="middle" x="123" y="-63" style="font-family:Arial;font-size:10.00;">ltr::BaseProbabilityDensityEstimator</text>
</g>
<!-- Node4 -->
<g id="node7" class="node"><title>Node4</title>
<a xlink:href="classltr_1_1_fisher_discriminant.html" target="_top" xlink:title="probability density estimator that uses Fisher Linear Discriminant approach">
<polygon style="fill:white;stroke:black;" points="0,-0 0,-20 111,-20 111,-0 0,-0"/>
<text text-anchor="middle" x="55" y="-7" style="font-family:Arial;font-size:10.00;">ltr::FisherDiscriminant</text>
</a>
</g>
<!-- Node1&#45;&gt;Node4 -->
<g id="edge6" class="edge"><title>Node1&#45;&gt;Node4</title>
<path style="fill:none;stroke:midnightblue;" d="M103,-50C91,-40 77,-29 67,-20"/>
<polygon style="fill:midnightblue;stroke:midnightblue;" points="100.9,-52.8 111,-56 105.1,-47.2 100.9,-52.8"/>
</g>
<!-- Node5 -->
<g id="node9" class="node"><title>Node5</title>
<a xlink:href="classltr_1_1_non_linear_discriminant.html" target="_top" xlink:title="probability density estimator that cannot be represented as linear separator">
<polygon style="fill:white;stroke:black;" points="128,-0 128,-20 256,-20 256,-0 128,-0"/>
<text text-anchor="middle" x="192" y="-7" style="font-family:Arial;font-size:10.00;">ltr::NonLinearDiscriminant</text>
</a>
</g>
<!-- Node1&#45;&gt;Node5 -->
<g id="edge8" class="edge"><title>Node1&#45;&gt;Node5</title>
<path style="fill:none;stroke:midnightblue;" d="M143,-50C155,-40 169,-29 179,-20"/>
<polygon style="fill:midnightblue;stroke:midnightblue;" points="140.9,-47.2 135,-56 145.1,-52.8 140.9,-47.2"/>
</g>
<!-- Node2 -->
<g id="node2" class="node"><title>Node2</title>
<a xlink:href="classltr_1_1_parameterized.html" target="_top" xlink:title="ltr::Parameterized">
<polygon style="fill:white;stroke:black;" points="25,-112 25,-132 118,-132 118,-112 25,-112"/>
<text text-anchor="middle" x="71" y="-119" style="font-family:Arial;font-size:10.00;">ltr::Parameterized</text>
</a>
</g>
<!-- Node2&#45;&gt;Node1 -->
<g id="edge2" class="edge"><title>Node2&#45;&gt;Node1</title>
<path style="fill:none;stroke:midnightblue;" d="M87,-105C95,-95 106,-85 113,-76"/>
<polygon style="fill:midnightblue;stroke:midnightblue;" points="84.5962,-102.454 80,-112 89.546,-107.404 84.5962,-102.454"/>
</g>
<!-- Node3 -->
<g id="node4" class="node"><title>Node3</title>
<a xlink:href="classltr_1_1_serializable.html" target="_top" xlink:title="The interface class for objects, that can be serialized. That means that a cpp code for those can be ...">
<polygon style="fill:white;stroke:black;" points="135,-112 135,-132 216,-132 216,-112 135,-112"/>
<text text-anchor="middle" x="175" y="-119" style="font-family:Arial;font-size:10.00;">ltr::Serializable</text>
</a>
</g>
<!-- Node3&#45;&gt;Node1 -->
<g id="edge4" class="edge"><title>Node3&#45;&gt;Node1</title>
<path style="fill:none;stroke:midnightblue;" d="M159,-105C151,-95 140,-85 133,-76"/>
<polygon style="fill:midnightblue;stroke:midnightblue;" points="156.454,-107.404 166,-112 161.404,-102.454 156.454,-107.404"/>
</g>
</g>
</svg>
