<?xml version="1.0" encoding="UTF-8" standalone="no"?>
<!DOCTYPE svg PUBLIC "-//W3C//DTD SVG 1.0//EN"
 "http://www.w3.org/TR/2001/REC-SVG-20010904/DTD/svg10.dtd" [
 <!ATTLIST svg xmlns:xlink CDATA #FIXED "http://www.w3.org/1999/xlink">
]>
<!-- Generated by Graphviz version 2.20.2 (Tue Mar &#160;2 19:03:41 UTC 2010)
     For user: (jenkins)  -->
<!-- Title: G Pages: 1 -->
<svg width="199pt" height="140pt"
 viewBox="0.00 0.00 199.00 140.00" xmlns="http://www.w3.org/2000/svg" xmlns:xlink="http://www.w3.org/1999/xlink">
<g id="graph0" class="graph" transform="scale(1 1) rotate(0) translate(4 136)">
<title>G</title>
<polygon style="fill:white;stroke:white;" points="-4,4 -4,-136 195,-136 195,4 -4,4"/>
<!-- Node1 -->
<g id="node1" class="node"><title>Node1</title>
<polygon style="fill:#bfbfbf;stroke:black;" points="0,-0 0,-20 186,-20 186,-0 0,-0"/>
<text text-anchor="middle" x="93" y="-7" style="font-family:Arial;font-size:10.00;">ltr::OrderStatisticPredictionsAggregator</text>
</g>
<!-- Node2 -->
<g id="node2" class="node"><title>Node2</title>
<a xlink:href="classltr_1_1_predictions_aggregator.html" target="_top" xlink:title="ltr::PredictionsAggregator">
<polygon style="fill:white;stroke:black;" points="30,-56 30,-76 156,-76 156,-56 30,-56"/>
<text text-anchor="middle" x="93" y="-63" style="font-family:Arial;font-size:10.00;">ltr::PredictionsAggregator</text>
</a>
</g>
<!-- Node2&#45;&gt;Node1 -->
<g id="edge2" class="edge"><title>Node2&#45;&gt;Node1</title>
<path style="fill:none;stroke:midnightblue;" d="M93,-46C93,-37 93,-28 93,-20"/>
<polygon style="fill:midnightblue;stroke:midnightblue;" points="89.5001,-46 93,-56 96.5001,-46 89.5001,-46"/>
</g>
<!-- Node3 -->
<g id="node4" class="node"><title>Node3</title>
<a xlink:href="classltr_1_1_serializable.html" target="_top" xlink:title="The interface class for objects, that can be serialized. That means that a cpp code for those can be ...">
<polygon style="fill:white;stroke:black;" points="1,-112 1,-132 82,-132 82,-112 1,-112"/>
<text text-anchor="middle" x="41" y="-119" style="font-family:Arial;font-size:10.00;">ltr::Serializable</text>
</a>
</g>
<!-- Node3&#45;&gt;Node2 -->
<g id="edge4" class="edge"><title>Node3&#45;&gt;Node2</title>
<path style="fill:none;stroke:midnightblue;" d="M57,-105C65,-95 76,-85 83,-76"/>
<polygon style="fill:midnightblue;stroke:midnightblue;" points="54.5962,-102.454 50,-112 59.546,-107.404 54.5962,-102.454"/>
</g>
<!-- Node4 -->
<g id="node6" class="node"><title>Node4</title>
<a xlink:href="classltr_1_1_parameterized.html" target="_top" xlink:title="ltr::Parameterized">
<polygon style="fill:white;stroke:black;" points="99,-112 99,-132 192,-132 192,-112 99,-112"/>
<text text-anchor="middle" x="145" y="-119" style="font-family:Arial;font-size:10.00;">ltr::Parameterized</text>
</a>
</g>
<!-- Node4&#45;&gt;Node2 -->
<g id="edge6" class="edge"><title>Node4&#45;&gt;Node2</title>
<path style="fill:none;stroke:midnightblue;" d="M129,-105C121,-95 110,-85 103,-76"/>
<polygon style="fill:midnightblue;stroke:midnightblue;" points="126.454,-107.404 136,-112 131.404,-102.454 126.454,-107.404"/>
</g>
</g>
</svg>
