<?xml version="1.0" encoding="UTF-8" standalone="no"?>
<!DOCTYPE svg PUBLIC "-//W3C//DTD SVG 1.0//EN"
 "http://www.w3.org/TR/2001/REC-SVG-20010904/DTD/svg10.dtd" [
 <!ATTLIST svg xmlns:xlink CDATA #FIXED "http://www.w3.org/1999/xlink">
]>
<!-- Generated by Graphviz version 2.20.2 (Tue Mar &#160;2 19:03:41 UTC 2010)
     For user: (jenkins)  -->
<!-- Title: G Pages: 1 -->
<svg width="216pt" height="140pt"
 viewBox="0.00 0.00 216.00 140.00" xmlns="http://www.w3.org/2000/svg" xmlns:xlink="http://www.w3.org/1999/xlink">
<g id="graph0" class="graph" transform="scale(1 1) rotate(0) translate(4 136)">
<title>G</title>
<polygon style="fill:white;stroke:white;" points="-4,4 -4,-136 212,-136 212,4 -4,4"/>
<!-- Node1 -->
<g id="node1" class="node"><title>Node1</title>
<polygon style="fill:#bfbfbf;stroke:black;" points="36,-0 36,-20 186,-20 186,-0 36,-0"/>
<text text-anchor="middle" x="111" y="-7" style="font-family:Arial;font-size:10.00;">ltr::decision_tree::DecisionTree</text>
</g>
<!-- Node2 -->
<g id="node2" class="node"><title>Node2</title>
<a xlink:href="classltr_1_1_serializable_functor.html" target="_top" xlink:title="ltr::SerializableFunctor\&lt; double \&gt;">
<polygon style="fill:white;stroke:black;" points="31,-56 31,-76 191,-76 191,-56 31,-56"/>
<text text-anchor="middle" x="111" y="-63" style="font-family:Arial;font-size:10.00;">ltr::SerializableFunctor&lt; double &gt;</text>
</a>
</g>
<!-- Node2&#45;&gt;Node1 -->
<g id="edge2" class="edge"><title>Node2&#45;&gt;Node1</title>
<path style="fill:none;stroke:midnightblue;" d="M111,-46C111,-37 111,-28 111,-20"/>
<polygon style="fill:midnightblue;stroke:midnightblue;" points="107.5,-46 111,-56 114.5,-46 107.5,-46"/>
</g>
<!-- Node3 -->
<g id="node4" class="node"><title>Node3</title>
<a xlink:href="classltr_1_1_functor.html" target="_top" xlink:title="ltr::Functor\&lt; double \&gt;">
<polygon style="fill:white;stroke:black;" points="0,-112 0,-132 110,-132 110,-112 0,-112"/>
<text text-anchor="middle" x="55" y="-119" style="font-family:Arial;font-size:10.00;">ltr::Functor&lt; double &gt;</text>
</a>
</g>
<!-- Node3&#45;&gt;Node2 -->
<g id="edge4" class="edge"><title>Node3&#45;&gt;Node2</title>
<path style="fill:none;stroke:midnightblue;" d="M72,-105C81,-96 92,-85 101,-76"/>
<polygon style="fill:midnightblue;stroke:midnightblue;" points="69.5962,-102.454 65,-112 74.546,-107.404 69.5962,-102.454"/>
</g>
<!-- Node4 -->
<g id="node6" class="node"><title>Node4</title>
<a xlink:href="classltr_1_1_serializable.html" target="_top" xlink:title="The interface class for objects, that can be serialized. That means that a cpp code for those can be ...">
<polygon style="fill:white;stroke:black;" points="128,-112 128,-132 209,-132 209,-112 128,-112"/>
<text text-anchor="middle" x="168" y="-119" style="font-family:Arial;font-size:10.00;">ltr::Serializable</text>
</a>
</g>
<!-- Node4&#45;&gt;Node2 -->
<g id="edge6" class="edge"><title>Node4&#45;&gt;Node2</title>
<path style="fill:none;stroke:midnightblue;" d="M151,-105C141,-96 130,-85 121,-76"/>
<polygon style="fill:midnightblue;stroke:midnightblue;" points="148.454,-107.404 158,-112 153.404,-102.454 148.454,-107.404"/>
</g>
</g>
</svg>
