<?xml version="1.0" encoding="UTF-8" standalone="no"?>
<!DOCTYPE svg PUBLIC "-//W3C//DTD SVG 1.0//EN"
 "http://www.w3.org/TR/2001/REC-SVG-20010904/DTD/svg10.dtd" [
 <!ATTLIST svg xmlns:xlink CDATA #FIXED "http://www.w3.org/1999/xlink">
]>
<!-- Generated by Graphviz version 2.20.2 (Tue Mar &#160;2 19:03:41 UTC 2010)
     For user: (jenkins)  -->
<!-- Title: G Pages: 1 -->
<svg width="164pt" height="140pt"
 viewBox="0.00 0.00 164.00 140.00" xmlns="http://www.w3.org/2000/svg" xmlns:xlink="http://www.w3.org/1999/xlink">
<g id="graph0" class="graph" transform="scale(1 1) rotate(0) translate(4 136)">
<title>G</title>
<polygon style="fill:white;stroke:white;" points="-4,4 -4,-136 160,-136 160,4 -4,4"/>
<!-- Node1 -->
<g id="node1" class="node"><title>Node1</title>
<polygon style="fill:#bfbfbf;stroke:black;" points="0,-0 0,-20 156,-20 156,-0 0,-0"/>
<text text-anchor="middle" x="78" y="-7" style="font-family:Arial;font-size:10.00;">ltr::decision_tree::FakeCondition</text>
</g>
<!-- Node2 -->
<g id="node2" class="node"><title>Node2</title>
<a xlink:href="classltr_1_1decision__tree_1_1_condition.html" target="_top" xlink:title="ltr::decision_tree::Condition">
<polygon style="fill:white;stroke:black;" points="11,-56 11,-76 146,-76 146,-56 11,-56"/>
<text text-anchor="middle" x="78" y="-63" style="font-family:Arial;font-size:10.00;">ltr::decision_tree::Condition</text>
</a>
</g>
<!-- Node2&#45;&gt;Node1 -->
<g id="edge2" class="edge"><title>Node2&#45;&gt;Node1</title>
<path style="fill:none;stroke:midnightblue;" d="M78,-46C78,-37 78,-28 78,-20"/>
<polygon style="fill:midnightblue;stroke:midnightblue;" points="74.5001,-46 78,-56 81.5001,-46 74.5001,-46"/>
</g>
<!-- Node3 -->
<g id="node4" class="node"><title>Node3</title>
<a xlink:href="classltr_1_1_serializable.html" target="_top" xlink:title="The interface class for objects, that can be serialized. That means that a cpp code for those can be ...">
<polygon style="fill:white;stroke:black;" points="38,-112 38,-132 119,-132 119,-112 38,-112"/>
<text text-anchor="middle" x="78" y="-119" style="font-family:Arial;font-size:10.00;">ltr::Serializable</text>
</a>
</g>
<!-- Node3&#45;&gt;Node2 -->
<g id="edge4" class="edge"><title>Node3&#45;&gt;Node2</title>
<path style="fill:none;stroke:midnightblue;" d="M78,-102C78,-93 78,-84 78,-76"/>
<polygon style="fill:midnightblue;stroke:midnightblue;" points="74.5001,-102 78,-112 81.5001,-102 74.5001,-102"/>
</g>
</g>
</svg>
