<?xml version="1.0" encoding="UTF-8" standalone="no"?>
<!DOCTYPE svg PUBLIC "-//W3C//DTD SVG 1.0//EN"
 "http://www.w3.org/TR/2001/REC-SVG-20010904/DTD/svg10.dtd" [
 <!ATTLIST svg xmlns:xlink CDATA #FIXED "http://www.w3.org/1999/xlink">
]>
<!-- Generated by Graphviz version 2.20.2 (Tue Mar &#160;2 19:03:41 UTC 2010)
     For user: (jenkins)  -->
<!-- Title: G Pages: 1 -->
<svg width="838pt" height="940pt"
 viewBox="0.00 0.00 838.00 940.00" xmlns="http://www.w3.org/2000/svg" xmlns:xlink="http://www.w3.org/1999/xlink">
<g id="graph0" class="graph" transform="scale(1 1) rotate(0) translate(4 936)">
<title>G</title>
<polygon style="fill:white;stroke:white;" points="-4,4 -4,-936 834,-936 834,4 -4,4"/>
<!-- Node1 -->
<g id="node1" class="node"><title>Node1</title>
<polygon style="fill:#bfbfbf;stroke:black;" points="1,-456 1,-476 94,-476 94,-456 1,-456"/>
<text text-anchor="middle" x="47" y="-463" style="font-family:Arial;font-size:10.00;">ltr::Parameterized</text>
</g>
<!-- Node2 -->
<g id="node3" class="node"><title>Node2</title>
<a xlink:href="classltr_1_1_base_probability_density_learner.html" target="_top" xlink:title="ltr::BaseProbabilityDensityLearner\&lt; TElement, FisherDiscriminant \&gt;">
<polygon style="fill:white;stroke:black;" points="139,-909 139,-929 449,-929 449,-909 139,-909"/>
<text text-anchor="middle" x="294" y="-916" style="font-family:Arial;font-size:10.00;">ltr::BaseProbabilityDensityLearner&lt; TElement, FisherDiscriminant &gt;</text>
</a>
</g>
<!-- Node1&#45;&gt;Node2 -->
<g id="edge2" class="edge"><title>Node1&#45;&gt;Node2</title>
<path style="fill:none;stroke:midnightblue;" d="M48,-486C52,-565 69,-841 130,-898 135,-902 139,-906 145,-909"/>
<polygon style="fill:midnightblue;stroke:midnightblue;" points="51.4778,-485.602 47,-476 44.5125,-486.299 51.4778,-485.602"/>
</g>
<!-- Node4 -->
<g id="node7" class="node"><title>Node4</title>
<a xlink:href="classltr_1_1_base_probability_density_learner.html" target="_top" xlink:title="ltr::BaseProbabilityDensityLearner\&lt; TElement, NonLinearDiscriminant \&gt;">
<polygon style="fill:white;stroke:black;" points="131,-869 131,-889 458,-889 458,-869 131,-869"/>
<text text-anchor="middle" x="294" y="-876" style="font-family:Arial;font-size:10.00;">ltr::BaseProbabilityDensityLearner&lt; TElement, NonLinearDiscriminant &gt;</text>
</a>
</g>
<!-- Node1&#45;&gt;Node4 -->
<g id="edge6" class="edge"><title>Node1&#45;&gt;Node4</title>
<path style="fill:none;stroke:midnightblue;" d="M49,-486C54,-559 76,-803 130,-855 136,-860 142,-865 150,-869"/>
<polygon style="fill:midnightblue;stroke:midnightblue;" points="52.4778,-485.602 48,-476 45.5125,-486.299 52.4778,-485.602"/>
</g>
<!-- Node6 -->
<g id="node11" class="node"><title>Node6</title>
<a xlink:href="classltr_1_1composition_1_1_composition_scorer_weights_updater.html" target="_top" xlink:title="ltr::composition::CompositionScorerWeightsUpdater\&lt; Object \&gt;">
<polygon style="fill:white;stroke:black;" points="150,-826 150,-846 438,-846 438,-826 150,-826"/>
<text text-anchor="middle" x="294" y="-833" style="font-family:Arial;font-size:10.00;">ltr::composition::CompositionScorerWeightsUpdater&lt; Object &gt;</text>
</a>
</g>
<!-- Node1&#45;&gt;Node6 -->
<g id="edge10" class="edge"><title>Node1&#45;&gt;Node6</title>
<path style="fill:none;stroke:midnightblue;" d="M49,-486C56,-555 81,-772 130,-817 136,-822 143,-827 150,-830"/>
<polygon style="fill:midnightblue;stroke:midnightblue;" points="52.4778,-485.602 48,-476 45.5125,-486.299 52.4778,-485.602"/>
</g>
<!-- Node7 -->
<g id="node13" class="node"><title>Node7</title>
<a xlink:href="classltr_1_1composition_1_1_data_set_weights_updater.html" target="_top" xlink:title="ltr::composition::DataSetWeightsUpdater\&lt; Object \&gt;">
<polygon style="fill:white;stroke:black;" points="174,-788 174,-808 414,-808 414,-788 174,-788"/>
<text text-anchor="middle" x="294" y="-795" style="font-family:Arial;font-size:10.00;">ltr::composition::DataSetWeightsUpdater&lt; Object &gt;</text>
</a>
</g>
<!-- Node1&#45;&gt;Node7 -->
<g id="edge12" class="edge"><title>Node1&#45;&gt;Node7</title>
<path style="fill:none;stroke:midnightblue;" d="M49,-486C57,-549 85,-739 130,-779 143,-790 158,-797 174,-801"/>
<polygon style="fill:midnightblue;stroke:midnightblue;" points="52.4778,-485.602 48,-476 45.5125,-486.299 52.4778,-485.602"/>
</g>
<!-- Node8 -->
<g id="node15" class="node"><title>Node8</title>
<a xlink:href="classltr_1_1_learner.html" target="_top" xlink:title="ltr::Learner\&lt; Object \&gt;">
<polygon style="fill:white;stroke:black;" points="240,-750 240,-770 349,-770 349,-750 240,-750"/>
<text text-anchor="middle" x="294" y="-757" style="font-family:Arial;font-size:10.00;">ltr::Learner&lt; Object &gt;</text>
</a>
</g>
<!-- Node1&#45;&gt;Node8 -->
<g id="edge14" class="edge"><title>Node1&#45;&gt;Node8</title>
<path style="fill:none;stroke:midnightblue;" d="M51,-486C60,-543 91,-707 130,-741 160,-766 205,-770 240,-768"/>
<polygon style="fill:midnightblue;stroke:midnightblue;" points="54.3933,-485.119 49,-476 47.5292,-486.492 54.3933,-485.119"/>
</g>
<!-- Node11 -->
<g id="node21" class="node"><title>Node11</title>
<a xlink:href="classltr_1_1_learner.html" target="_top" xlink:title="ltr::Learner\&lt; ObjectType \&gt;">
<polygon style="fill:white;stroke:black;" points="230,-712 230,-732 359,-732 359,-712 230,-712"/>
<text text-anchor="middle" x="294" y="-719" style="font-family:Arial;font-size:10.00;">ltr::Learner&lt; ObjectType &gt;</text>
</a>
</g>
<!-- Node1&#45;&gt;Node11 -->
<g id="edge20" class="edge"><title>Node1&#45;&gt;Node11</title>
<path style="fill:none;stroke:midnightblue;" d="M51,-486C63,-538 96,-675 130,-703 158,-725 197,-730 230,-729"/>
<polygon style="fill:midnightblue;stroke:midnightblue;" points="54.3933,-485.119 49,-476 47.5292,-486.492 54.3933,-485.119"/>
</g>
<!-- Node12 -->
<g id="node23" class="node"><title>Node12</title>
<a xlink:href="classltr_1_1_base_metric.html" target="_top" xlink:title="ltr::BaseMetric">
<polygon style="fill:white;stroke:black;" points="254,-674 254,-694 334,-694 334,-674 254,-674"/>
<text text-anchor="middle" x="294" y="-681" style="font-family:Arial;font-size:10.00;">ltr::BaseMetric</text>
</a>
</g>
<!-- Node1&#45;&gt;Node12 -->
<g id="edge22" class="edge"><title>Node1&#45;&gt;Node12</title>
<path style="fill:none;stroke:midnightblue;" d="M49,-486C54,-528 71,-621 130,-665 166,-692 218,-693 254,-690"/>
<polygon style="fill:midnightblue;stroke:midnightblue;" points="52.4778,-485.602 48,-476 45.5125,-486.299 52.4778,-485.602"/>
</g>
<!-- Node15 -->
<g id="node29" class="node"><title>Node15</title>
<a xlink:href="classltr_1_1_base_probability_density_estimator.html" target="_top" xlink:title="Simple interface of the probability density estimator.">
<polygon style="fill:white;stroke:black;" points="207,-636 207,-656 381,-656 381,-636 207,-636"/>
<text text-anchor="middle" x="294" y="-643" style="font-family:Arial;font-size:10.00;">ltr::BaseProbabilityDensityEstimator</text>
</a>
</g>
<!-- Node1&#45;&gt;Node15 -->
<g id="edge28" class="edge"><title>Node1&#45;&gt;Node15</title>
<path style="fill:none;stroke:midnightblue;" d="M52,-486C61,-519 85,-585 130,-618 152,-633 180,-641 207,-645"/>
<polygon style="fill:midnightblue;stroke:midnightblue;" points="55.2259,-484.573 49,-476 48.5212,-486.584 55.2259,-484.573"/>
</g>
<!-- Node18 -->
<g id="node35" class="node"><title>Node18</title>
<a xlink:href="classltr_1_1_base_probability_density_learner.html" target="_top" xlink:title="Simple interface of the probability density estimation learner.">
<polygon style="fill:white;stroke:black;" points="156,-589 156,-609 432,-609 432,-589 156,-589"/>
<text text-anchor="middle" x="294" y="-596" style="font-family:Arial;font-size:10.00;">ltr::BaseProbabilityDensityLearner&lt; TElement, TEstimator &gt;</text>
</a>
</g>
<!-- Node1&#45;&gt;Node18 -->
<g id="edge34" class="edge"><title>Node1&#45;&gt;Node18</title>
<path style="fill:none;stroke:midnightblue;" d="M55,-485C68,-512 93,-558 130,-580 138,-585 147,-588 156,-591"/>
<polygon style="fill:midnightblue;stroke:midnightblue;" points="58.2598,-483.717 51,-476 51.8631,-486.56 58.2598,-483.717"/>
</g>
<!-- Node19 -->
<g id="node37" class="node"><title>Node19</title>
<a xlink:href="classltr_1_1composition_1_1_composition_scorer.html" target="_top" xlink:title="ltr::composition::CompositionScorer">
<polygon style="fill:white;stroke:black;" points="209,-551 209,-571 380,-571 380,-551 209,-551"/>
<text text-anchor="middle" x="294" y="-558" style="font-family:Arial;font-size:10.00;">ltr::composition::CompositionScorer</text>
</a>
</g>
<!-- Node1&#45;&gt;Node19 -->
<g id="edge36" class="edge"><title>Node1&#45;&gt;Node19</title>
<path style="fill:none;stroke:#8b1a1a;" d="M61,-484C76,-502 102,-529 130,-542 154,-553 183,-558 209,-561"/>
<polygon style="fill:#8b1a1a;stroke:#8b1a1a;" points="63.8,-481.9 55,-476 58.2,-486.1 63.8,-481.9"/>
</g>
<!-- Node20 -->
<g id="node39" class="node"><title>Node20</title>
<a xlink:href="classltr_1_1composition_1_1_composition_scorer_weights_updater.html" target="_top" xlink:title="ltr::composition::CompositionScorerWeightsUpdater\&lt; TElement \&gt;">
<polygon style="fill:white;stroke:black;" points="144,-513 144,-533 444,-533 444,-513 144,-513"/>
<text text-anchor="middle" x="294" y="-520" style="font-family:Arial;font-size:10.00;">ltr::composition::CompositionScorerWeightsUpdater&lt; TElement &gt;</text>
</a>
</g>
<!-- Node1&#45;&gt;Node20 -->
<g id="edge38" class="edge"><title>Node1&#45;&gt;Node20</title>
<path style="fill:none;stroke:midnightblue;" d="M101,-478C146,-488 209,-503 251,-513"/>
<polygon style="fill:midnightblue;stroke:midnightblue;" points="101.492,-474.529 91,-476 100.119,-481.393 101.492,-474.529"/>
</g>
<!-- Node24 -->
<g id="node47" class="node"><title>Node24</title>
<a xlink:href="classltr_1_1composition_1_1_data_set_weights_updater.html" target="_top" xlink:title="ltr::composition::DataSetWeightsUpdater\&lt; TElement \&gt;">
<polygon style="fill:white;stroke:black;" points="168,-456 168,-476 421,-476 421,-456 168,-456"/>
<text text-anchor="middle" x="294" y="-463" style="font-family:Arial;font-size:10.00;">ltr::composition::DataSetWeightsUpdater&lt; TElement &gt;</text>
</a>
</g>
<!-- Node1&#45;&gt;Node24 -->
<g id="edge46" class="edge"><title>Node1&#45;&gt;Node24</title>
<path style="fill:none;stroke:midnightblue;" d="M104,-466C123,-466 146,-466 168,-466"/>
<polygon style="fill:midnightblue;stroke:midnightblue;" points="104,-462.5 94,-466 104,-469.5 104,-462.5"/>
</g>
<!-- Node28 -->
<g id="node55" class="node"><title>Node28</title>
<a xlink:href="classltr_1_1cv_1_1_splitter.html" target="_top" xlink:title="ltr::cv::Splitter\&lt; TElement \&gt;">
<polygon style="fill:white;stroke:black;" points="227,-399 227,-419 362,-419 362,-399 227,-399"/>
<text text-anchor="middle" x="294" y="-406" style="font-family:Arial;font-size:10.00;">ltr::cv::Splitter&lt; TElement &gt;</text>
</a>
</g>
<!-- Node1&#45;&gt;Node28 -->
<g id="edge54" class="edge"><title>Node1&#45;&gt;Node28</title>
<path style="fill:none;stroke:midnightblue;" d="M101,-454C146,-444 209,-429 251,-419"/>
<polygon style="fill:midnightblue;stroke:midnightblue;" points="100.119,-450.607 91,-456 101.492,-457.471 100.119,-450.607"/>
</g>
<!-- Node32 -->
<g id="node63" class="node"><title>Node32</title>
<a xlink:href="classltr_1_1_data_preprocessor.html" target="_top" xlink:title="A base class for data preprocessors.">
<polygon style="fill:white;stroke:black;" points="210,-361 210,-381 378,-381 378,-361 210,-361"/>
<text text-anchor="middle" x="294" y="-368" style="font-family:Arial;font-size:10.00;">ltr::DataPreprocessor&lt; TElement &gt;</text>
</a>
</g>
<!-- Node1&#45;&gt;Node32 -->
<g id="edge62" class="edge"><title>Node1&#45;&gt;Node32</title>
<path style="fill:none;stroke:midnightblue;" d="M61,-448C76,-430 102,-403 130,-390 155,-379 183,-373 210,-371"/>
<polygon style="fill:midnightblue;stroke:midnightblue;" points="57.9511,-446.169 54,-456 63.2191,-450.779 57.9511,-446.169"/>
</g>
<!-- Node36 -->
<g id="node71" class="node"><title>Node36</title>
<a xlink:href="classltr_1_1_feature_converter_learner.html" target="_top" xlink:title="Learns input dataset and produces a FeatureConverter.">
<polygon style="fill:white;stroke:red;" points="197,-323 197,-343 392,-343 392,-323 197,-323"/>
<text text-anchor="middle" x="294" y="-330" style="font-family:Arial;font-size:10.00;">ltr::FeatureConverterLearner&lt; TElement &gt;</text>
</a>
</g>
<!-- Node1&#45;&gt;Node36 -->
<g id="edge70" class="edge"><title>Node1&#45;&gt;Node36</title>
<path style="fill:none;stroke:midnightblue;" d="M55,-447C68,-420 93,-373 130,-352 150,-340 174,-334 197,-331"/>
<polygon style="fill:midnightblue;stroke:midnightblue;" points="51.8631,-445.44 51,-456 58.2598,-448.283 51.8631,-445.44"/>
</g>
<!-- Node42 -->
<g id="node83" class="node"><title>Node42</title>
<a xlink:href="classltr_1_1gp_1_1_base_population_handler.html" target="_top" xlink:title="ltr::gp::BasePopulationHandler">
<polygon style="fill:white;stroke:red;" points="220,-285 220,-305 368,-305 368,-285 220,-285"/>
<text text-anchor="middle" x="294" y="-292" style="font-family:Arial;font-size:10.00;">ltr::gp::BasePopulationHandler</text>
</a>
</g>
<!-- Node1&#45;&gt;Node42 -->
<g id="edge82" class="edge"><title>Node1&#45;&gt;Node42</title>
<path style="fill:none;stroke:midnightblue;" d="M52,-446C61,-412 84,-346 130,-314 156,-296 190,-290 220,-289"/>
<polygon style="fill:midnightblue;stroke:midnightblue;" points="48.5212,-445.416 49,-456 55.2259,-447.427 48.5212,-445.416"/>
</g>
<!-- Node43 -->
<g id="node85" class="node"><title>Node43</title>
<a xlink:href="classltr_1_1_learner.html" target="_top" xlink:title="Learns input dataset and produces a Scorer.">
<polygon style="fill:white;stroke:red;" points="233,-247 233,-267 355,-267 355,-247 233,-247"/>
<text text-anchor="middle" x="294" y="-254" style="font-family:Arial;font-size:10.00;">ltr::Learner&lt; TElement &gt;</text>
</a>
</g>
<!-- Node1&#45;&gt;Node43 -->
<g id="edge84" class="edge"><title>Node1&#45;&gt;Node43</title>
<path style="fill:none;stroke:midnightblue;" d="M49,-446C55,-406 73,-317 130,-276 159,-254 200,-249 233,-250"/>
<polygon style="fill:midnightblue;stroke:midnightblue;" points="45.5125,-445.701 48,-456 52.4778,-446.398 45.5125,-445.701"/>
</g>
<!-- Node44 -->
<g id="node87" class="node"><title>Node44</title>
<a xlink:href="classltr_1_1_measure.html" target="_top" xlink:title="ltr::Measure\&lt; TElement \&gt;">
<polygon style="fill:white;stroke:red;" points="231,-209 231,-229 358,-229 358,-209 231,-209"/>
<text text-anchor="middle" x="294" y="-216" style="font-family:Arial;font-size:10.00;">ltr::Measure&lt; TElement &gt;</text>
</a>
</g>
<!-- Node1&#45;&gt;Node44 -->
<g id="edge86" class="edge"><title>Node1&#45;&gt;Node44</title>
<path style="fill:none;stroke:midnightblue;" d="M51,-446C63,-396 97,-264 130,-238 158,-216 198,-211 231,-211"/>
<polygon style="fill:midnightblue;stroke:midnightblue;" points="47.5292,-445.508 49,-456 54.3933,-446.881 47.5292,-445.508"/>
</g>
<!-- Node45 -->
<g id="node89" class="node"><title>Node45</title>
<a xlink:href="classltr_1_1_predictions_aggregator.html" target="_top" xlink:title="ltr::PredictionsAggregator">
<polygon style="fill:white;stroke:red;" points="231,-171 231,-191 357,-191 357,-171 231,-171"/>
<text text-anchor="middle" x="294" y="-178" style="font-family:Arial;font-size:10.00;">ltr::PredictionsAggregator</text>
</a>
</g>
<!-- Node1&#45;&gt;Node45 -->
<g id="edge88" class="edge"><title>Node1&#45;&gt;Node45</title>
<path style="fill:none;stroke:midnightblue;" d="M51,-446C60,-389 92,-232 130,-200 158,-177 198,-172 231,-173"/>
<polygon style="fill:midnightblue;stroke:midnightblue;" points="47.5292,-445.508 49,-456 54.3933,-446.881 47.5292,-445.508"/>
</g>
<!-- Node46 -->
<g id="node91" class="node"><title>Node46</title>
<a xlink:href="classltr_1_1utility_1_1_neighbor_weighter.html" target="_top" xlink:title="ltr::utility::NeighborWeighter">
<polygon style="fill:white;stroke:red;" points="226,-133 226,-153 363,-153 363,-133 226,-133"/>
<text text-anchor="middle" x="294" y="-140" style="font-family:Arial;font-size:10.00;">ltr::utility::NeighborWeighter</text>
</a>
</g>
<!-- Node1&#45;&gt;Node46 -->
<g id="edge90" class="edge"><title>Node1&#45;&gt;Node46</title>
<path style="fill:none;stroke:midnightblue;" d="M49,-446C57,-384 86,-200 130,-162 156,-140 193,-134 226,-134"/>
<polygon style="fill:midnightblue;stroke:midnightblue;" points="45.5125,-445.701 48,-456 52.4778,-446.398 45.5125,-445.701"/>
</g>
<!-- Node47 -->
<g id="node93" class="node"><title>Node47</title>
<a xlink:href="classltr_1_1_measure.html" target="_top" xlink:title="ltr::Measure\&lt; Object \&gt;">
<polygon style="fill:white;stroke:red;" points="237,-95 237,-115 351,-115 351,-95 237,-95"/>
<text text-anchor="middle" x="294" y="-102" style="font-family:Arial;font-size:10.00;">ltr::Measure&lt; Object &gt;</text>
</a>
</g>
<!-- Node1&#45;&gt;Node47 -->
<g id="edge92" class="edge"><title>Node1&#45;&gt;Node47</title>
<path style="fill:none;stroke:midnightblue;" d="M49,-446C56,-379 81,-167 130,-124 159,-98 202,-94 237,-96"/>
<polygon style="fill:midnightblue;stroke:midnightblue;" points="45.5125,-445.701 48,-456 52.4778,-446.398 45.5125,-445.701"/>
</g>
<!-- Node48 -->
<g id="node95" class="node"><title>Node48</title>
<a xlink:href="classltr_1_1_measure.html" target="_top" xlink:title="ltr::Measure\&lt; ObjectType \&gt;">
<polygon style="fill:white;stroke:black;" points="227,-57 227,-77 362,-77 362,-57 227,-57"/>
<text text-anchor="middle" x="294" y="-64" style="font-family:Arial;font-size:10.00;">ltr::Measure&lt; ObjectType &gt;</text>
</a>
</g>
<!-- Node1&#45;&gt;Node48 -->
<g id="edge94" class="edge"><title>Node1&#45;&gt;Node48</title>
<path style="fill:none;stroke:midnightblue;" d="M49,-446C54,-374 76,-134 130,-86 156,-62 194,-57 227,-58"/>
<polygon style="fill:midnightblue;stroke:midnightblue;" points="45.5125,-445.701 48,-456 52.4778,-446.398 45.5125,-445.701"/>
</g>
<!-- Node49 -->
<g id="node97" class="node"><title>Node49</title>
<a xlink:href="classltr_1_1cv_1_1_splitter.html" target="_top" xlink:title="ltr::cv::Splitter\&lt; ObjectType \&gt;">
<polygon style="fill:white;stroke:black;" points="223,-19 223,-39 366,-39 366,-19 223,-19"/>
<text text-anchor="middle" x="294" y="-26" style="font-family:Arial;font-size:10.00;">ltr::cv::Splitter&lt; ObjectType &gt;</text>
</a>
</g>
<!-- Node1&#45;&gt;Node49 -->
<g id="edge96" class="edge"><title>Node1&#45;&gt;Node49</title>
<path style="fill:none;stroke:midnightblue;" d="M48,-446C52,-369 71,-103 130,-48 155,-26 191,-20 223,-20"/>
<polygon style="fill:midnightblue;stroke:midnightblue;" points="44.5125,-445.701 47,-456 51.4778,-446.398 44.5125,-445.701"/>
</g>
<!-- Node3 -->
<g id="node5" class="node"><title>Node3</title>
<a xlink:href="classltr_1_1_fisher_discriminant_density_learner.html" target="_top" xlink:title="Probability density learner that uses Fisher discriminant to generate probability density estimator...">
<polygon style="fill:white;stroke:black;" points="544,-912 544,-932 780,-932 780,-912 544,-912"/>
<text text-anchor="middle" x="662" y="-919" style="font-family:Arial;font-size:10.00;">ltr::FisherDiscriminantDensityLearner&lt; TElement &gt;</text>
</a>
</g>
<!-- Node2&#45;&gt;Node3 -->
<g id="edge4" class="edge"><title>Node2&#45;&gt;Node3</title>
<path style="fill:none;stroke:midnightblue;" d="M459,-920C488,-920 517,-921 544,-921"/>
<polygon style="fill:midnightblue;stroke:midnightblue;" points="459,-916.5 449,-920 459,-923.5 459,-916.5"/>
</g>
<!-- Node5 -->
<g id="node9" class="node"><title>Node5</title>
<a xlink:href="classltr_1_1_non_linear_discriminant_density_learner.html" target="_top" xlink:title="Interface of discriminants that can not be converted to linear separators.">
<polygon style="fill:white;stroke:red;" points="536,-874 536,-894 788,-894 788,-874 536,-874"/>
<text text-anchor="middle" x="662" y="-881" style="font-family:Arial;font-size:10.00;">ltr::NonLinearDiscriminantDensityLearner&lt; TElement &gt;</text>
</a>
</g>
<!-- Node4&#45;&gt;Node5 -->
<g id="edge8" class="edge"><title>Node4&#45;&gt;Node5</title>
<path style="fill:none;stroke:midnightblue;" d="M468,-881C491,-882 514,-882 536,-882"/>
<polygon style="fill:midnightblue;stroke:midnightblue;" points="468,-877.5 458,-881 468,-884.5 468,-877.5"/>
</g>
<!-- Node9 -->
<g id="node17" class="node"><title>Node9</title>
<a xlink:href="classltr_1_1_base_learner.html" target="_top" xlink:title="ltr::BaseLearner\&lt; Object, CompositionScorer \&gt;">
<polygon style="fill:white;stroke:red;" points="552,-836 552,-856 772,-856 772,-836 552,-836"/>
<text text-anchor="middle" x="662" y="-843" style="font-family:Arial;font-size:10.00;">ltr::BaseLearner&lt; Object, CompositionScorer &gt;</text>
</a>
</g>
<!-- Node8&#45;&gt;Node9 -->
<g id="edge16" class="edge"><title>Node8&#45;&gt;Node9</title>
<path style="fill:none;stroke:midnightblue;" d="M359,-756C391,-756 429,-762 458,-779 482,-792 471,-813 494,-827 512,-837 532,-843 552,-846"/>
<polygon style="fill:midnightblue;stroke:midnightblue;" points="359,-752.5 349,-756 359,-759.5 359,-752.5"/>
</g>
<!-- Node10 -->
<g id="node19" class="node"><title>Node10</title>
<a xlink:href="classltr_1_1_base_learner.html" target="_top" xlink:title="ltr::BaseLearner\&lt; Object, DecisionTreeScorer \&gt;">
<polygon style="fill:white;stroke:red;" points="551,-798 551,-818 773,-818 773,-798 551,-798"/>
<text text-anchor="middle" x="662" y="-805" style="font-family:Arial;font-size:10.00;">ltr::BaseLearner&lt; Object, DecisionTreeScorer &gt;</text>
</a>
</g>
<!-- Node8&#45;&gt;Node10 -->
<g id="edge18" class="edge"><title>Node8&#45;&gt;Node10</title>
<path style="fill:none;stroke:midnightblue;" d="M359,-765C389,-768 426,-773 458,-779 475,-782 478,-785 494,-789 513,-793 533,-796 552,-798"/>
<polygon style="fill:midnightblue;stroke:midnightblue;" points="359.299,-761.512 349,-764 358.602,-768.478 359.299,-761.512"/>
</g>
<!-- Node13 -->
<g id="node25" class="node"><title>Node13</title>
<a xlink:href="classltr_1_1_euclidean_metric.html" target="_top" xlink:title="ltr::EuclideanMetric">
<polygon style="fill:white;stroke:black;" points="612,-760 612,-780 712,-780 712,-760 612,-760"/>
<text text-anchor="middle" x="662" y="-767" style="font-family:Arial;font-size:10.00;">ltr::EuclideanMetric</text>
</a>
</g>
<!-- Node12&#45;&gt;Node13 -->
<g id="edge24" class="edge"><title>Node12&#45;&gt;Node13</title>
<path style="fill:none;stroke:midnightblue;" d="M344,-680C378,-679 424,-683 458,-703 482,-716 471,-737 494,-751 530,-771 577,-775 612,-774"/>
<polygon style="fill:midnightblue;stroke:midnightblue;" points="344,-676.5 334,-680 344,-683.5 344,-676.5"/>
</g>
<!-- Node14 -->
<g id="node27" class="node"><title>Node14</title>
<a xlink:href="classltr_1_1_manhattan_metric.html" target="_top" xlink:title="ltr::ManhattanMetric">
<polygon style="fill:white;stroke:black;" points="611,-722 611,-742 714,-742 714,-722 611,-722"/>
<text text-anchor="middle" x="662" y="-729" style="font-family:Arial;font-size:10.00;">ltr::ManhattanMetric</text>
</a>
</g>
<!-- Node12&#45;&gt;Node14 -->
<g id="edge26" class="edge"><title>Node12&#45;&gt;Node14</title>
<path style="fill:none;stroke:midnightblue;" d="M344,-688C377,-690 420,-695 458,-703 475,-706 478,-709 494,-713 533,-720 577,-725 611,-728"/>
<polygon style="fill:midnightblue;stroke:midnightblue;" points="344.299,-684.512 334,-687 343.602,-691.478 344.299,-684.512"/>
</g>
<!-- Node16 -->
<g id="node31" class="node"><title>Node16</title>
<a xlink:href="classltr_1_1_fisher_discriminant.html" target="_top" xlink:title="probability density estimator that uses Fisher Linear Discriminant approach">
<polygon style="fill:white;stroke:black;" points="607,-684 607,-704 718,-704 718,-684 607,-684"/>
<text text-anchor="middle" x="662" y="-691" style="font-family:Arial;font-size:10.00;">ltr::FisherDiscriminant</text>
</a>
</g>
<!-- Node15&#45;&gt;Node16 -->
<g id="edge30" class="edge"><title>Node15&#45;&gt;Node16</title>
<path style="fill:none;stroke:midnightblue;" d="M391,-654C413,-657 436,-661 458,-665 475,-668 478,-671 494,-675 531,-682 574,-687 607,-690"/>
<polygon style="fill:midnightblue;stroke:midnightblue;" points="391.299,-650.512 381,-653 390.602,-657.478 391.299,-650.512"/>
</g>
<!-- Node17 -->
<g id="node33" class="node"><title>Node17</title>
<a xlink:href="classltr_1_1_non_linear_discriminant.html" target="_top" xlink:title="probability density estimator that cannot be represented as linear separator">
<polygon style="fill:white;stroke:black;" points="598,-646 598,-666 726,-666 726,-646 598,-646"/>
<text text-anchor="middle" x="662" y="-653" style="font-family:Arial;font-size:10.00;">ltr::NonLinearDiscriminant</text>
</a>
</g>
<!-- Node15&#45;&gt;Node17 -->
<g id="edge32" class="edge"><title>Node15&#45;&gt;Node17</title>
<path style="fill:none;stroke:midnightblue;" d="M391,-648C457,-650 541,-652 598,-654"/>
<polygon style="fill:midnightblue;stroke:midnightblue;" points="391,-644.5 381,-648 391,-651.5 391,-644.5"/>
</g>
<!-- Node21 -->
<g id="node41" class="node"><title>Node21</title>
<a xlink:href="classltr_1_1composition_1_1_ada_rank_scorer_weights_updater.html" target="_top" xlink:title="ltr::composition::AdaRankScorerWeightsUpdater\&lt; TElement \&gt;">
<polygon style="fill:white;stroke:black;" points="519,-608 519,-628 805,-628 805,-608 519,-608"/>
<text text-anchor="middle" x="662" y="-615" style="font-family:Arial;font-size:10.00;">ltr::composition::AdaRankScorerWeightsUpdater&lt; TElement &gt;</text>
</a>
</g>
<!-- Node20&#45;&gt;Node21 -->
<g id="edge40" class="edge"><title>Node20&#45;&gt;Node21</title>
<path style="fill:none;stroke:midnightblue;" d="M451,-538C453,-539 456,-541 458,-542 484,-557 469,-583 494,-599 502,-604 510,-608 519,-611"/>
<polygon style="fill:midnightblue;stroke:midnightblue;" points="452.441,-534.797 442,-533 449.042,-540.916 452.441,-534.797"/>
</g>
<!-- Node22 -->
<g id="node43" class="node"><title>Node22</title>
<a xlink:href="classltr_1_1composition_1_1_average_composition_scorer_weights_updater.html" target="_top" xlink:title="ltr::composition::AverageCompositionScorerWeightsUpdater\&lt; TElement \&gt;">
<polygon style="fill:white;stroke:black;" points="495,-570 495,-590 830,-590 830,-570 495,-570"/>
<text text-anchor="middle" x="662" y="-577" style="font-family:Arial;font-size:10.00;">ltr::composition::AverageCompositionScorerWeightsUpdater&lt; TElement &gt;</text>
</a>
</g>
<!-- Node20&#45;&gt;Node22 -->
<g id="edge42" class="edge"><title>Node20&#45;&gt;Node22</title>
<path style="fill:none;stroke:midnightblue;" d="M432,-535C441,-537 450,-539 458,-542 476,-547 477,-555 494,-561 506,-565 518,-568 531,-570"/>
<polygon style="fill:midnightblue;stroke:midnightblue;" points="432.492,-531.529 422,-533 431.119,-538.393 432.492,-531.529"/>
</g>
<!-- Node23 -->
<g id="node45" class="node"><title>Node23</title>
<a xlink:href="classltr_1_1composition_1_1_fake_composition_scorer_weights_updater.html" target="_top" xlink:title="ltr::composition::FakeCompositionScorerWeightsUpdater\&lt; TElement \&gt;">
<polygon style="fill:white;stroke:black;" points="501,-532 501,-552 823,-552 823,-532 501,-532"/>
<text text-anchor="middle" x="662" y="-539" style="font-family:Arial;font-size:10.00;">ltr::composition::FakeCompositionScorerWeightsUpdater&lt; TElement &gt;</text>
</a>
</g>
<!-- Node20&#45;&gt;Node23 -->
<g id="edge44" class="edge"><title>Node20&#45;&gt;Node23</title>
<path style="fill:none;stroke:midnightblue;" d="M454,-532C470,-532 485,-533 501,-534"/>
<polygon style="fill:midnightblue;stroke:midnightblue;" points="454.299,-528.512 444,-531 453.602,-535.478 454.299,-528.512"/>
</g>
<!-- Node25 -->
<g id="node49" class="node"><title>Node25</title>
<a xlink:href="classltr_1_1composition_1_1_ada_boost_data_set_weights_updater.html" target="_top" xlink:title="ltr::composition::AdaBoostDataSetWeightsUpdater\&lt; TElement \&gt;">
<polygon style="fill:white;stroke:black;" points="514,-494 514,-514 810,-514 810,-494 514,-494"/>
<text text-anchor="middle" x="662" y="-501" style="font-family:Arial;font-size:10.00;">ltr::composition::AdaBoostDataSetWeightsUpdater&lt; TElement &gt;</text>
</a>
</g>
<!-- Node24&#45;&gt;Node25 -->
<g id="edge48" class="edge"><title>Node24&#45;&gt;Node25</title>
<path style="fill:none;stroke:midnightblue;" d="M401,-477C453,-482 515,-488 566,-494"/>
<polygon style="fill:midnightblue;stroke:midnightblue;" points="401.299,-473.512 391,-476 400.602,-480.478 401.299,-473.512"/>
</g>
<!-- Node26 -->
<g id="node51" class="node"><title>Node26</title>
<a xlink:href="classltr_1_1composition_1_1_ada_rank_data_set_weights_updater.html" target="_top" xlink:title="ltr::composition::AdaRankDataSetWeightsUpdater\&lt; TElement \&gt;">
<polygon style="fill:white;stroke:black;" points="516,-456 516,-476 809,-476 809,-456 516,-456"/>
<text text-anchor="middle" x="662" y="-463" style="font-family:Arial;font-size:10.00;">ltr::composition::AdaRankDataSetWeightsUpdater&lt; TElement &gt;</text>
</a>
</g>
<!-- Node24&#45;&gt;Node26 -->
<g id="edge50" class="edge"><title>Node24&#45;&gt;Node26</title>
<path style="fill:none;stroke:midnightblue;" d="M431,-466C459,-466 487,-466 516,-466"/>
<polygon style="fill:midnightblue;stroke:midnightblue;" points="431,-462.5 421,-466 431,-469.5 431,-462.5"/>
</g>
<!-- Node27 -->
<g id="node53" class="node"><title>Node27</title>
<a xlink:href="classltr_1_1composition_1_1_fake_data_set_weights_updater.html" target="_top" xlink:title="ltr::composition::FakeDataSetWeightsUpdater\&lt; TElement \&gt;">
<polygon style="fill:white;stroke:black;" points="525,-418 525,-438 800,-438 800,-418 525,-418"/>
<text text-anchor="middle" x="662" y="-425" style="font-family:Arial;font-size:10.00;">ltr::composition::FakeDataSetWeightsUpdater&lt; TElement &gt;</text>
</a>
</g>
<!-- Node24&#45;&gt;Node27 -->
<g id="edge52" class="edge"><title>Node24&#45;&gt;Node27</title>
<path style="fill:none;stroke:midnightblue;" d="M401,-455C453,-450 515,-444 566,-438"/>
<polygon style="fill:midnightblue;stroke:midnightblue;" points="400.602,-451.522 391,-456 401.299,-458.488 400.602,-451.522"/>
</g>
<!-- Node29 -->
<g id="node57" class="node"><title>Node29</title>
<a xlink:href="classltr_1_1cv_1_1_k_fold_simple_splitter.html" target="_top" xlink:title="ltr::cv::KFoldSimpleSplitter\&lt; TElement \&gt;">
<polygon style="fill:white;stroke:black;" points="567,-380 567,-400 758,-400 758,-380 567,-380"/>
<text text-anchor="middle" x="662" y="-387" style="font-family:Arial;font-size:10.00;">ltr::cv::KFoldSimpleSplitter&lt; TElement &gt;</text>
</a>
</g>
<!-- Node28&#45;&gt;Node29 -->
<g id="edge56" class="edge"><title>Node28&#45;&gt;Node29</title>
<path style="fill:none;stroke:midnightblue;" d="M372,-404C429,-402 507,-398 567,-395"/>
<polygon style="fill:midnightblue;stroke:midnightblue;" points="371.602,-400.522 362,-405 372.299,-407.488 371.602,-400.522"/>
</g>
<!-- Node30 -->
<g id="node59" class="node"><title>Node30</title>
<a xlink:href="classltr_1_1cv_1_1_leave_one_out_splitter.html" target="_top" xlink:title="ltr::cv::LeaveOneOutSplitter\&lt; TElement \&gt;">
<polygon style="fill:white;stroke:black;" points="565,-342 565,-362 759,-362 759,-342 565,-342"/>
<text text-anchor="middle" x="662" y="-349" style="font-family:Arial;font-size:10.00;">ltr::cv::LeaveOneOutSplitter&lt; TElement &gt;</text>
</a>
</g>
<!-- Node28&#45;&gt;Node30 -->
<g id="edge58" class="edge"><title>Node28&#45;&gt;Node30</title>
<path style="fill:none;stroke:midnightblue;" d="M372,-405C400,-403 430,-398 458,-390 476,-384 477,-376 494,-371 516,-364 541,-359 565,-356"/>
<polygon style="fill:midnightblue;stroke:midnightblue;" points="371.602,-401.522 362,-406 372.299,-408.488 371.602,-401.522"/>
</g>
<!-- Node31 -->
<g id="node61" class="node"><title>Node31</title>
<a xlink:href="classltr_1_1cv_1_1_t_k_fold_simple_splitter.html" target="_top" xlink:title="ltr::cv::TKFoldSimpleSplitter\&lt; TElement \&gt;">
<polygon style="fill:white;stroke:black;" points="564,-304 564,-324 760,-324 760,-304 564,-304"/>
<text text-anchor="middle" x="662" y="-311" style="font-family:Arial;font-size:10.00;">ltr::cv::TKFoldSimpleSplitter&lt; TElement &gt;</text>
</a>
</g>
<!-- Node28&#45;&gt;Node31 -->
<g id="edge60" class="edge"><title>Node28&#45;&gt;Node31</title>
<path style="fill:none;stroke:midnightblue;" d="M372,-414C402,-412 433,-406 458,-390 484,-374 469,-348 494,-333 515,-320 540,-313 564,-311"/>
<polygon style="fill:midnightblue;stroke:midnightblue;" points="372,-410.5 362,-414 372,-417.5 372,-410.5"/>
</g>
<!-- Node33 -->
<g id="node65" class="node"><title>Node33</title>
<a xlink:href="classltr_1_1_data_random_sampler.html" target="_top" xlink:title="Acts as DataSampler with random indices each new applying (duplication may be allowed).">
<polygon style="fill:white;stroke:black;" points="571,-266 571,-286 753,-286 753,-266 571,-266"/>
<text text-anchor="middle" x="662" y="-273" style="font-family:Arial;font-size:10.00;">ltr::DataRandomSampler&lt; TElement &gt;</text>
</a>
</g>
<!-- Node32&#45;&gt;Node33 -->
<g id="edge64" class="edge"><title>Node32&#45;&gt;Node33</title>
<path style="fill:none;stroke:midnightblue;" d="M388,-374C412,-371 438,-365 458,-352 484,-336 469,-310 494,-295 517,-281 545,-274 571,-272"/>
<polygon style="fill:midnightblue;stroke:midnightblue;" points="387.602,-370.522 378,-375 388.299,-377.488 387.602,-370.522"/>
</g>
<!-- Node34 -->
<g id="node67" class="node"><title>Node34</title>
<a xlink:href="classltr_1_1_data_sampler.html" target="_top" xlink:title="Samples elements with specififed indices from input DataSet. Duplication of indices leads to duplicat...">
<polygon style="fill:white;stroke:black;" points="589,-228 589,-248 735,-248 735,-228 589,-228"/>
<text text-anchor="middle" x="662" y="-235" style="font-family:Arial;font-size:10.00;">ltr::DataSampler&lt; TElement &gt;</text>
</a>
</g>
<!-- Node32&#45;&gt;Node34 -->
<g id="edge66" class="edge"><title>Node32&#45;&gt;Node34</title>
<path style="fill:none;stroke:midnightblue;" d="M388,-377C413,-374 439,-367 458,-352 494,-324 459,-284 494,-257 521,-236 557,-230 589,-230"/>
<polygon style="fill:midnightblue;stroke:midnightblue;" points="387.602,-373.522 378,-378 388.299,-380.488 387.602,-373.522"/>
</g>
<!-- Node35 -->
<g id="node69" class="node"><title>Node35</title>
<a xlink:href="classltr_1_1_fake_preprocessor.html" target="_top" xlink:title="Does nothing with input DataSet.">
<polygon style="fill:white;stroke:black;" points="578,-190 578,-210 747,-210 747,-190 578,-190"/>
<text text-anchor="middle" x="662" y="-197" style="font-family:Arial;font-size:10.00;">ltr::FakePreprocessor&lt; TElement &gt;</text>
</a>
</g>
<!-- Node32&#45;&gt;Node35 -->
<g id="edge68" class="edge"><title>Node32&#45;&gt;Node35</title>
<path style="fill:none;stroke:midnightblue;" d="M388,-378C413,-375 439,-368 458,-352 505,-312 448,-258 494,-219 517,-199 548,-192 578,-191"/>
<polygon style="fill:midnightblue;stroke:midnightblue;" points="387.602,-374.522 378,-379 388.299,-381.488 387.602,-374.522"/>
</g>
<!-- Node37 -->
<g id="node73" class="node"><title>Node37</title>
<a xlink:href="classltr_1_1_base_feature_converter_learner.html" target="_top" xlink:title="BaseFeatureConverterLearner\&lt; TElement, FakeFeatureConverter \&gt;">
<polygon style="fill:white;stroke:red;" points="510,-152 510,-172 815,-172 815,-152 510,-152"/>
<text text-anchor="middle" x="662" y="-159" style="font-family:Arial;font-size:10.00;">BaseFeatureConverterLearner&lt; TElement, FakeFeatureConverter &gt;</text>
</a>
</g>
<!-- Node36&#45;&gt;Node37 -->
<g id="edge72" class="edge"><title>Node36&#45;&gt;Node37</title>
<path style="fill:none;stroke:midnightblue;" d="M402,-338C423,-335 443,-327 458,-314 505,-274 448,-220 494,-181 499,-177 504,-173 510,-170"/>
<polygon style="fill:midnightblue;stroke:midnightblue;" points="401.119,-334.607 392,-340 402.492,-341.471 401.119,-334.607"/>
</g>
<!-- Node38 -->
<g id="node75" class="node"><title>Node38</title>
<a xlink:href="classltr_1_1_base_feature_converter_learner.html" target="_top" xlink:title="BaseFeatureConverterLearner\&lt; TElement, FeatureSampler \&gt;">
<polygon style="fill:white;stroke:red;" points="523,-114 523,-134 802,-134 802,-114 523,-114"/>
<text text-anchor="middle" x="662" y="-121" style="font-family:Arial;font-size:10.00;">BaseFeatureConverterLearner&lt; TElement, FeatureSampler &gt;</text>
</a>
</g>
<!-- Node36&#45;&gt;Node38 -->
<g id="edge74" class="edge"><title>Node36&#45;&gt;Node38</title>
<path style="fill:none;stroke:midnightblue;" d="M402,-339C423,-336 443,-328 458,-314 516,-261 437,-195 494,-143 503,-135 512,-129 523,-125"/>
<polygon style="fill:midnightblue;stroke:midnightblue;" points="401.119,-335.607 392,-341 402.492,-342.471 401.119,-335.607"/>
</g>
<!-- Node39 -->
<g id="node77" class="node"><title>Node39</title>
<a xlink:href="classltr_1_1_base_feature_converter_learner.html" target="_top" xlink:title="BaseFeatureConverterLearner\&lt; TElement, NanToNeutralConverter \&gt;">
<polygon style="fill:white;stroke:red;" points="508,-76 508,-96 816,-96 816,-76 508,-76"/>
<text text-anchor="middle" x="662" y="-83" style="font-family:Arial;font-size:10.00;">BaseFeatureConverterLearner&lt; TElement, NanToNeutralConverter &gt;</text>
</a>
</g>
<!-- Node36&#45;&gt;Node39 -->
<g id="edge76" class="edge"><title>Node36&#45;&gt;Node39</title>
<path style="fill:none;stroke:midnightblue;" d="M402,-339C423,-336 443,-329 458,-314 527,-249 426,-169 494,-105 498,-101 503,-97 508,-94"/>
<polygon style="fill:midnightblue;stroke:midnightblue;" points="401.119,-335.607 392,-341 402.492,-342.471 401.119,-335.607"/>
</g>
<!-- Node40 -->
<g id="node79" class="node"><title>Node40</title>
<a xlink:href="classltr_1_1_base_feature_converter_learner.html" target="_top" xlink:title="BaseFeatureConverterLearner\&lt; TElement, NominalToBoolConverter \&gt;">
<polygon style="fill:white;stroke:red;" points="505,-38 505,-58 820,-58 820,-38 505,-38"/>
<text text-anchor="middle" x="662" y="-45" style="font-family:Arial;font-size:10.00;">BaseFeatureConverterLearner&lt; TElement, NominalToBoolConverter &gt;</text>
</a>
</g>
<!-- Node36&#45;&gt;Node40 -->
<g id="edge78" class="edge"><title>Node36&#45;&gt;Node40</title>
<path style="fill:none;stroke:midnightblue;" d="M402,-341C423,-337 443,-329 458,-314 538,-236 415,-144 494,-67 522,-39 568,-35 604,-38"/>
<polygon style="fill:midnightblue;stroke:midnightblue;" points="401.602,-337.522 392,-342 402.299,-344.488 401.602,-337.522"/>
</g>
<!-- Node41 -->
<g id="node81" class="node"><title>Node41</title>
<a xlink:href="classltr_1_1_base_feature_converter_learner.html" target="_top" xlink:title="BaseFeatureConverterLearner\&lt; TElement, PerFeatureLinearConverter \&gt;">
<polygon style="fill:white;stroke:red;" points="500,-0 500,-20 824,-20 824,-0 500,-0"/>
<text text-anchor="middle" x="662" y="-7" style="font-family:Arial;font-size:10.00;">BaseFeatureConverterLearner&lt; TElement, PerFeatureLinearConverter &gt;</text>
</a>
</g>
<!-- Node36&#45;&gt;Node41 -->
<g id="edge80" class="edge"><title>Node36&#45;&gt;Node41</title>
<path style="fill:none;stroke:midnightblue;" d="M402,-341C423,-337 443,-329 458,-314 549,-224 404,-118 494,-29 497,-26 501,-23 505,-20"/>
<polygon style="fill:midnightblue;stroke:midnightblue;" points="401.602,-337.522 392,-342 402.299,-344.488 401.602,-337.522"/>
</g>
</g>
</svg>
