<?xml version="1.0" encoding="UTF-8" standalone="no"?>
<!DOCTYPE svg PUBLIC "-//W3C//DTD SVG 1.0//EN"
 "http://www.w3.org/TR/2001/REC-SVG-20010904/DTD/svg10.dtd" [
 <!ATTLIST svg xmlns:xlink CDATA #FIXED "http://www.w3.org/1999/xlink">
]>
<!-- Generated by Graphviz version 2.20.2 (Tue Mar &#160;2 19:03:41 UTC 2010)
     For user: (jenkins)  -->
<!-- Title: G Pages: 1 -->
<svg width="264pt" height="140pt"
 viewBox="0.00 0.00 264.00 140.00" xmlns="http://www.w3.org/2000/svg" xmlns:xlink="http://www.w3.org/1999/xlink">
<g id="graph0" class="graph" transform="scale(1 1) rotate(0) translate(4 136)">
<title>G</title>
<polygon style="fill:white;stroke:white;" points="-4,4 -4,-136 260,-136 260,4 -4,4"/>
<!-- Node1 -->
<g id="node1" class="node"><title>Node1</title>
<polygon style="fill:#bfbfbf;stroke:black;" points="43,-0 43,-20 237,-20 237,-0 43,-0"/>
<text text-anchor="middle" x="140" y="-7" style="font-family:Arial;font-size:10.00;">ltr::cv::LeaveOneOutSplitter&lt; TElement &gt;</text>
</g>
<!-- Node2 -->
<g id="node2" class="node"><title>Node2</title>
<a xlink:href="classltr_1_1cv_1_1_splitter.html" target="_top" xlink:title="ltr::cv::Splitter\&lt; TElement \&gt;">
<polygon style="fill:white;stroke:black;" points="73,-56 73,-76 208,-76 208,-56 73,-56"/>
<text text-anchor="middle" x="140" y="-63" style="font-family:Arial;font-size:10.00;">ltr::cv::Splitter&lt; TElement &gt;</text>
</a>
</g>
<!-- Node2&#45;&gt;Node1 -->
<g id="edge2" class="edge"><title>Node2&#45;&gt;Node1</title>
<path style="fill:none;stroke:midnightblue;" d="M140,-46C140,-37 140,-28 140,-20"/>
<polygon style="fill:midnightblue;stroke:midnightblue;" points="136.5,-46 140,-56 143.5,-46 136.5,-46"/>
</g>
<!-- Node3 -->
<g id="node4" class="node"><title>Node3</title>
<a xlink:href="classltr_1_1_parameterized.html" target="_top" xlink:title="ltr::Parameterized">
<polygon style="fill:white;stroke:black;" points="0,-112 0,-132 93,-132 93,-112 0,-112"/>
<text text-anchor="middle" x="46" y="-119" style="font-family:Arial;font-size:10.00;">ltr::Parameterized</text>
</a>
</g>
<!-- Node3&#45;&gt;Node2 -->
<g id="edge4" class="edge"><title>Node3&#45;&gt;Node2</title>
<path style="fill:none;stroke:midnightblue;" d="M72,-107C88,-97 109,-84 123,-76"/>
<polygon style="fill:midnightblue;stroke:midnightblue;" points="70.0418,-104.084 63,-112 73.4414,-110.203 70.0418,-104.084"/>
</g>
<!-- Node4 -->
<g id="node6" class="node"><title>Node4</title>
<a xlink:href="classltr_1_1_aliaser.html" target="_top" xlink:title="Inherit from this class in order to use alias.">
<polygon style="fill:white;stroke:black;" points="110,-112 110,-132 170,-132 170,-112 110,-112"/>
<text text-anchor="middle" x="140" y="-119" style="font-family:Arial;font-size:10.00;">ltr::Aliaser</text>
</a>
</g>
<!-- Node4&#45;&gt;Node2 -->
<g id="edge6" class="edge"><title>Node4&#45;&gt;Node2</title>
<path style="fill:none;stroke:midnightblue;" d="M140,-102C140,-93 140,-84 140,-76"/>
<polygon style="fill:midnightblue;stroke:midnightblue;" points="136.5,-102 140,-112 143.5,-102 136.5,-102"/>
</g>
<!-- Node5 -->
<g id="node8" class="node"><title>Node5</title>
<a xlink:href="classltr_1_1_printable.html" target="_top" xlink:title="ltr::Printable">
<polygon style="fill:white;stroke:black;" points="188,-112 188,-132 257,-132 257,-112 188,-112"/>
<text text-anchor="middle" x="222" y="-119" style="font-family:Arial;font-size:10.00;">ltr::Printable</text>
</a>
</g>
<!-- Node5&#45;&gt;Node2 -->
<g id="edge8" class="edge"><title>Node5&#45;&gt;Node2</title>
<path style="fill:none;stroke:midnightblue;" d="M199,-106C185,-96 167,-84 155,-76"/>
<polygon style="fill:midnightblue;stroke:midnightblue;" points="196.9,-108.8 207,-112 201.1,-103.2 196.9,-108.8"/>
</g>
</g>
</svg>
