<?xml version="1.0" encoding="UTF-8" standalone="no"?>
<!DOCTYPE svg PUBLIC "-//W3C//DTD SVG 1.0//EN"
 "http://www.w3.org/TR/2001/REC-SVG-20010904/DTD/svg10.dtd" [
 <!ATTLIST svg xmlns:xlink CDATA #FIXED "http://www.w3.org/1999/xlink">
]>
<!-- Generated by Graphviz version 2.20.2 (Tue Mar &#160;2 19:03:41 UTC 2010)
     For user: (jenkins)  -->
<!-- Title: G Pages: 1 -->
<svg width="810pt" height="104pt"
 viewBox="0.00 0.00 810.00 104.00" xmlns="http://www.w3.org/2000/svg" xmlns:xlink="http://www.w3.org/1999/xlink">
<g id="graph0" class="graph" transform="scale(1 1) rotate(0) translate(4 100)">
<title>G</title>
<polygon style="fill:white;stroke:white;" points="-4,4 -4,-100 806,-100 806,4 -4,4"/>
<!-- Node1 -->
<g id="node1" class="node"><title>Node1</title>
<polygon style="fill:#bfbfbf;stroke:black;" points="130,-38 130,-58 430,-58 430,-38 130,-38"/>
<text text-anchor="middle" x="280" y="-45" style="font-family:Arial;font-size:10.00;">ltr::composition::CompositionScorerWeightsUpdater&lt; TElement &gt;</text>
</g>
<!-- Node4 -->
<g id="node7" class="node"><title>Node4</title>
<a xlink:href="classltr_1_1composition_1_1_ada_rank_scorer_weights_updater.html" target="_top" xlink:title="ltr::composition::AdaRankScorerWeightsUpdater\&lt; TElement \&gt;">
<polygon style="fill:white;stroke:black;" points="491,-76 491,-96 777,-96 777,-76 491,-76"/>
<text text-anchor="middle" x="634" y="-83" style="font-family:Arial;font-size:10.00;">ltr::composition::AdaRankScorerWeightsUpdater&lt; TElement &gt;</text>
</a>
</g>
<!-- Node1&#45;&gt;Node4 -->
<g id="edge6" class="edge"><title>Node1&#45;&gt;Node4</title>
<path style="fill:none;stroke:midnightblue;" d="M383,-59C433,-64 493,-70 542,-76"/>
<polygon style="fill:midnightblue;stroke:midnightblue;" points="383.299,-55.5125 373,-58 382.602,-62.4778 383.299,-55.5125"/>
</g>
<!-- Node5 -->
<g id="node9" class="node"><title>Node5</title>
<a xlink:href="classltr_1_1composition_1_1_average_composition_scorer_weights_updater.html" target="_top" xlink:title="ltr::composition::AverageCompositionScorerWeightsUpdater\&lt; TElement \&gt;">
<polygon style="fill:white;stroke:black;" points="467,-38 467,-58 802,-58 802,-38 467,-38"/>
<text text-anchor="middle" x="634" y="-45" style="font-family:Arial;font-size:10.00;">ltr::composition::AverageCompositionScorerWeightsUpdater&lt; TElement &gt;</text>
</a>
</g>
<!-- Node1&#45;&gt;Node5 -->
<g id="edge8" class="edge"><title>Node1&#45;&gt;Node5</title>
<path style="fill:none;stroke:midnightblue;" d="M440,-48C449,-48 458,-48 467,-48"/>
<polygon style="fill:midnightblue;stroke:midnightblue;" points="440,-44.5001 430,-48 440,-51.5001 440,-44.5001"/>
</g>
<!-- Node6 -->
<g id="node11" class="node"><title>Node6</title>
<a xlink:href="classltr_1_1composition_1_1_fake_composition_scorer_weights_updater.html" target="_top" xlink:title="ltr::composition::FakeCompositionScorerWeightsUpdater\&lt; TElement \&gt;">
<polygon style="fill:white;stroke:black;" points="473,-0 473,-20 795,-20 795,-0 473,-0"/>
<text text-anchor="middle" x="634" y="-7" style="font-family:Arial;font-size:10.00;">ltr::composition::FakeCompositionScorerWeightsUpdater&lt; TElement &gt;</text>
</a>
</g>
<!-- Node1&#45;&gt;Node6 -->
<g id="edge10" class="edge"><title>Node1&#45;&gt;Node6</title>
<path style="fill:none;stroke:midnightblue;" d="M383,-37C433,-32 493,-26 542,-20"/>
<polygon style="fill:midnightblue;stroke:midnightblue;" points="382.602,-33.5222 373,-38 383.299,-40.4875 382.602,-33.5222"/>
</g>
<!-- Node2 -->
<g id="node2" class="node"><title>Node2</title>
<a xlink:href="classltr_1_1_aliaser.html" target="_top" xlink:title="Inherit from this class in order to use alias.">
<polygon style="fill:white;stroke:black;" points="17,-57 17,-77 77,-77 77,-57 17,-57"/>
<text text-anchor="middle" x="47" y="-64" style="font-family:Arial;font-size:10.00;">ltr::Aliaser</text>
</a>
</g>
<!-- Node2&#45;&gt;Node1 -->
<g id="edge2" class="edge"><title>Node2&#45;&gt;Node1</title>
<path style="fill:none;stroke:midnightblue;" d="M87,-64C107,-62 132,-61 157,-58"/>
<polygon style="fill:midnightblue;stroke:midnightblue;" points="86.6021,-60.5222 77,-65 87.2987,-67.4875 86.6021,-60.5222"/>
</g>
<!-- Node3 -->
<g id="node4" class="node"><title>Node3</title>
<a xlink:href="classltr_1_1_parameterized.html" target="_top" xlink:title="ltr::Parameterized">
<polygon style="fill:white;stroke:black;" points="1,-19 1,-39 94,-39 94,-19 1,-19"/>
<text text-anchor="middle" x="47" y="-26" style="font-family:Arial;font-size:10.00;">ltr::Parameterized</text>
</a>
</g>
<!-- Node3&#45;&gt;Node1 -->
<g id="edge4" class="edge"><title>Node3&#45;&gt;Node1</title>
<path style="fill:none;stroke:midnightblue;" d="M104,-34C121,-35 140,-36 159,-38"/>
<polygon style="fill:midnightblue;stroke:midnightblue;" points="104.299,-30.5125 94,-33 103.602,-37.4778 104.299,-30.5125"/>
</g>
</g>
</svg>
