<?xml version="1.0" encoding="UTF-8" standalone="no"?>
<!DOCTYPE svg PUBLIC "-//W3C//DTD SVG 1.0//EN"
 "http://www.w3.org/TR/2001/REC-SVG-20010904/DTD/svg10.dtd" [
 <!ATTLIST svg xmlns:xlink CDATA #FIXED "http://www.w3.org/1999/xlink">
]>
<!-- Generated by Graphviz version 2.20.2 (Tue Mar &#160;2 19:03:41 UTC 2010)
     For user: (jenkins)  -->
<!-- Title: G Pages: 1 -->
<svg width="264pt" height="140pt"
 viewBox="0.00 0.00 264.00 140.00" xmlns="http://www.w3.org/2000/svg" xmlns:xlink="http://www.w3.org/1999/xlink">
<g id="graph0" class="graph" transform="scale(1 1) rotate(0) translate(4 136)">
<title>G</title>
<polygon style="fill:white;stroke:white;" points="-4,4 -4,-136 260,-136 260,4 -4,4"/>
<!-- Node1 -->
<g id="node1" class="node"><title>Node1</title>
<polygon style="fill:#bfbfbf;stroke:black;" points="71,-0 71,-20 217,-20 217,-0 71,-0"/>
<text text-anchor="middle" x="144" y="-7" style="font-family:Arial;font-size:10.00;">ltr::DataSampler&lt; TElement &gt;</text>
</g>
<!-- Node2 -->
<g id="node2" class="node"><title>Node2</title>
<a xlink:href="classltr_1_1_data_preprocessor.html" target="_top" xlink:title="A base class for data preprocessors.">
<polygon style="fill:white;stroke:black;" points="60,-56 60,-76 228,-76 228,-56 60,-56"/>
<text text-anchor="middle" x="144" y="-63" style="font-family:Arial;font-size:10.00;">ltr::DataPreprocessor&lt; TElement &gt;</text>
</a>
</g>
<!-- Node2&#45;&gt;Node1 -->
<g id="edge2" class="edge"><title>Node2&#45;&gt;Node1</title>
<path style="fill:none;stroke:midnightblue;" d="M144,-46C144,-37 144,-28 144,-20"/>
<polygon style="fill:midnightblue;stroke:midnightblue;" points="140.5,-46 144,-56 147.5,-46 140.5,-46"/>
</g>
<!-- Node3 -->
<g id="node4" class="node"><title>Node3</title>
<a xlink:href="classltr_1_1_parameterized.html" target="_top" xlink:title="ltr::Parameterized">
<polygon style="fill:white;stroke:black;" points="0,-112 0,-132 93,-132 93,-112 0,-112"/>
<text text-anchor="middle" x="46" y="-119" style="font-family:Arial;font-size:10.00;">ltr::Parameterized</text>
</a>
</g>
<!-- Node3&#45;&gt;Node2 -->
<g id="edge4" class="edge"><title>Node3&#45;&gt;Node2</title>
<path style="fill:none;stroke:midnightblue;" d="M73,-107C90,-97 112,-84 126,-76"/>
<polygon style="fill:midnightblue;stroke:midnightblue;" points="71.0418,-104.084 64,-112 74.4414,-110.203 71.0418,-104.084"/>
</g>
<!-- Node4 -->
<g id="node6" class="node"><title>Node4</title>
<a xlink:href="classltr_1_1_printable.html" target="_top" xlink:title="ltr::Printable">
<polygon style="fill:white;stroke:black;" points="110,-112 110,-132 179,-132 179,-112 110,-112"/>
<text text-anchor="middle" x="144" y="-119" style="font-family:Arial;font-size:10.00;">ltr::Printable</text>
</a>
</g>
<!-- Node4&#45;&gt;Node2 -->
<g id="edge6" class="edge"><title>Node4&#45;&gt;Node2</title>
<path style="fill:none;stroke:midnightblue;" d="M144,-102C144,-93 144,-84 144,-76"/>
<polygon style="fill:midnightblue;stroke:midnightblue;" points="140.5,-102 144,-112 147.5,-102 140.5,-102"/>
</g>
<!-- Node5 -->
<g id="node8" class="node"><title>Node5</title>
<a xlink:href="classltr_1_1_aliaser.html" target="_top" xlink:title="Inherit from this class in order to use alias.">
<polygon style="fill:white;stroke:black;" points="196,-112 196,-132 256,-132 256,-112 196,-112"/>
<text text-anchor="middle" x="226" y="-119" style="font-family:Arial;font-size:10.00;">ltr::Aliaser</text>
</a>
</g>
<!-- Node5&#45;&gt;Node2 -->
<g id="edge8" class="edge"><title>Node5&#45;&gt;Node2</title>
<path style="fill:none;stroke:midnightblue;" d="M203,-106C189,-96 171,-84 159,-76"/>
<polygon style="fill:midnightblue;stroke:midnightblue;" points="200.9,-108.8 211,-112 205.1,-103.2 200.9,-108.8"/>
</g>
</g>
</svg>
