<?xml version="1.0" encoding="UTF-8" standalone="no"?>
<!DOCTYPE svg PUBLIC "-//W3C//DTD SVG 1.0//EN"
 "http://www.w3.org/TR/2001/REC-SVG-20010904/DTD/svg10.dtd" [
 <!ATTLIST svg xmlns:xlink CDATA #FIXED "http://www.w3.org/1999/xlink">
]>
<!-- Generated by Graphviz version 2.20.2 (Tue Mar &#160;2 19:03:41 UTC 2010)
     For user: (jenkins)  -->
<!-- Title: G Pages: 1 -->
<svg width="282pt" height="140pt"
 viewBox="0.00 0.00 282.00 140.00" xmlns="http://www.w3.org/2000/svg" xmlns:xlink="http://www.w3.org/1999/xlink">
<g id="graph0" class="graph" transform="scale(1 1) rotate(0) translate(4 136)">
<title>G</title>
<polygon style="fill:white;stroke:white;" points="-4,4 -4,-136 278,-136 278,4 -4,4"/>
<!-- Node1 -->
<g id="node1" class="node"><title>Node1</title>
<polygon style="fill:#bfbfbf;stroke:black;" points="0,-0 0,-20 275,-20 275,-0 0,-0"/>
<text text-anchor="middle" x="137" y="-7" style="font-family:Arial;font-size:10.00;">ltr::composition::FakeDataSetWeightsUpdater&lt; TElement &gt;</text>
</g>
<!-- Node2 -->
<g id="node2" class="node"><title>Node2</title>
<a xlink:href="classltr_1_1composition_1_1_data_set_weights_updater.html" target="_top" xlink:title="ltr::composition::DataSetWeightsUpdater\&lt; TElement \&gt;">
<polygon style="fill:white;stroke:black;" points="11,-56 11,-76 264,-76 264,-56 11,-56"/>
<text text-anchor="middle" x="137" y="-63" style="font-family:Arial;font-size:10.00;">ltr::composition::DataSetWeightsUpdater&lt; TElement &gt;</text>
</a>
</g>
<!-- Node2&#45;&gt;Node1 -->
<g id="edge2" class="edge"><title>Node2&#45;&gt;Node1</title>
<path style="fill:none;stroke:midnightblue;" d="M137,-46C137,-37 137,-28 137,-20"/>
<polygon style="fill:midnightblue;stroke:midnightblue;" points="133.5,-46 137,-56 140.5,-46 133.5,-46"/>
</g>
<!-- Node3 -->
<g id="node4" class="node"><title>Node3</title>
<a xlink:href="classltr_1_1_aliaser.html" target="_top" xlink:title="Inherit from this class in order to use alias.">
<polygon style="fill:white;stroke:black;" points="60,-112 60,-132 120,-132 120,-112 60,-112"/>
<text text-anchor="middle" x="90" y="-119" style="font-family:Arial;font-size:10.00;">ltr::Aliaser</text>
</a>
</g>
<!-- Node3&#45;&gt;Node2 -->
<g id="edge4" class="edge"><title>Node3&#45;&gt;Node2</title>
<path style="fill:none;stroke:midnightblue;" d="M105,-104C113,-95 122,-84 128,-76"/>
<polygon style="fill:midnightblue;stroke:midnightblue;" points="101.951,-102.169 98,-112 107.219,-106.779 101.951,-102.169"/>
</g>
<!-- Node4 -->
<g id="node6" class="node"><title>Node4</title>
<a xlink:href="classltr_1_1_parameterized.html" target="_top" xlink:title="ltr::Parameterized">
<polygon style="fill:white;stroke:black;" points="138,-112 138,-132 231,-132 231,-112 138,-112"/>
<text text-anchor="middle" x="184" y="-119" style="font-family:Arial;font-size:10.00;">ltr::Parameterized</text>
</a>
</g>
<!-- Node4&#45;&gt;Node2 -->
<g id="edge6" class="edge"><title>Node4&#45;&gt;Node2</title>
<path style="fill:none;stroke:midnightblue;" d="M169,-104C161,-95 152,-84 146,-76"/>
<polygon style="fill:midnightblue;stroke:midnightblue;" points="166.781,-106.779 176,-112 172.049,-102.169 166.781,-106.779"/>
</g>
</g>
</svg>
