<?xml version="1.0" encoding="UTF-8" standalone="no"?>
<!DOCTYPE svg PUBLIC "-//W3C//DTD SVG 1.0//EN"
 "http://www.w3.org/TR/2001/REC-SVG-20010904/DTD/svg10.dtd" [
 <!ATTLIST svg xmlns:xlink CDATA #FIXED "http://www.w3.org/1999/xlink">
]>
<!-- Generated by Graphviz version 2.20.2 (Tue Mar &#160;2 19:03:41 UTC 2010)
     For user: (jenkins)  -->
<!-- Title: G Pages: 1 -->
<svg width="1196pt" height="104pt"
 viewBox="0.00 0.00 1196.00 104.00" xmlns="http://www.w3.org/2000/svg" xmlns:xlink="http://www.w3.org/1999/xlink">
<g id="graph0" class="graph" transform="scale(1 1) rotate(0) translate(4 100)">
<title>G</title>
<polygon style="fill:white;stroke:white;" points="-4,4 -4,-100 1192,-100 1192,4 -4,4"/>
<!-- Node1 -->
<g id="node1" class="node"><title>Node1</title>
<polygon style="fill:#bfbfbf;stroke:black;" points="970,-38 970,-58 1188,-58 1188,-38 970,-38"/>
<text text-anchor="middle" x="1079" y="-45" style="font-family:Arial;font-size:10.00;">ltr::QuadraticDiscriminantLearner&lt; TElement &gt;</text>
</g>
<!-- Node2 -->
<g id="node2" class="node"><title>Node2</title>
<a xlink:href="classltr_1_1_bayesian_learner.html" target="_top" xlink:title="ltr::BayesianLearner\&lt; TElement, QuadraticDiscriminantDensityLearner\&lt; TElement \&gt; \&gt;">
<polygon style="fill:white;stroke:black;" points="545,-38 545,-58 934,-58 934,-38 545,-38"/>
<text text-anchor="middle" x="739" y="-45" style="font-family:Arial;font-size:10.00;">ltr::BayesianLearner&lt; TElement, QuadraticDiscriminantDensityLearner&lt; TElement &gt; &gt;</text>
</a>
</g>
<!-- Node2&#45;&gt;Node1 -->
<g id="edge2" class="edge"><title>Node2&#45;&gt;Node1</title>
<path style="fill:none;stroke:midnightblue;" d="M944,-48C953,-48 961,-48 970,-48"/>
<polygon style="fill:midnightblue;stroke:midnightblue;" points="944,-44.5001 934,-48 944,-51.5001 944,-44.5001"/>
</g>
<!-- Node3 -->
<g id="node4" class="node"><title>Node3</title>
<a xlink:href="classltr_1_1_base_learner.html" target="_top" xlink:title="ltr::BaseLearner\&lt; TElement, BayesianScorer \&gt;">
<polygon style="fill:white;stroke:black;" points="289,-38 289,-58 508,-58 508,-38 289,-38"/>
<text text-anchor="middle" x="398" y="-45" style="font-family:Arial;font-size:10.00;">ltr::BaseLearner&lt; TElement, BayesianScorer &gt;</text>
</a>
</g>
<!-- Node3&#45;&gt;Node2 -->
<g id="edge4" class="edge"><title>Node3&#45;&gt;Node2</title>
<path style="fill:none;stroke:midnightblue;" d="M518,-48C527,-48 536,-48 545,-48"/>
<polygon style="fill:midnightblue;stroke:midnightblue;" points="518,-44.5001 508,-48 518,-51.5001 518,-44.5001"/>
</g>
<!-- Node4 -->
<g id="node6" class="node"><title>Node4</title>
<a xlink:href="classltr_1_1_learner.html" target="_top" xlink:title="Learns input dataset and produces a Scorer.">
<polygon style="fill:white;stroke:black;" points="130,-38 130,-58 252,-58 252,-38 130,-38"/>
<text text-anchor="middle" x="191" y="-45" style="font-family:Arial;font-size:10.00;">ltr::Learner&lt; TElement &gt;</text>
</a>
</g>
<!-- Node4&#45;&gt;Node3 -->
<g id="edge6" class="edge"><title>Node4&#45;&gt;Node3</title>
<path style="fill:none;stroke:midnightblue;" d="M262,-48C271,-48 280,-48 289,-48"/>
<polygon style="fill:midnightblue;stroke:midnightblue;" points="262,-44.5001 252,-48 262,-51.5001 262,-44.5001"/>
</g>
<!-- Node5 -->
<g id="node8" class="node"><title>Node5</title>
<a xlink:href="classltr_1_1_reporter.html" target="_top" xlink:title="ltr::Reporter">
<polygon style="fill:white;stroke:black;" points="14,-76 14,-96 81,-96 81,-76 14,-76"/>
<text text-anchor="middle" x="47" y="-83" style="font-family:Arial;font-size:10.00;">ltr::Reporter</text>
</a>
</g>
<!-- Node5&#45;&gt;Node4 -->
<g id="edge8" class="edge"><title>Node5&#45;&gt;Node4</title>
<path style="fill:none;stroke:midnightblue;" d="M91,-74C111,-69 134,-63 153,-58"/>
<polygon style="fill:midnightblue;stroke:midnightblue;" points="89.5725,-70.7741 81,-77 91.584,-77.4788 89.5725,-70.7741"/>
</g>
<!-- Node6 -->
<g id="node10" class="node"><title>Node6</title>
<a xlink:href="classltr_1_1_aliaser.html" target="_top" xlink:title="Inherit from this class in order to use alias.">
<polygon style="fill:white;stroke:black;" points="17,-38 17,-58 77,-58 77,-38 17,-38"/>
<text text-anchor="middle" x="47" y="-45" style="font-family:Arial;font-size:10.00;">ltr::Aliaser</text>
</a>
</g>
<!-- Node6&#45;&gt;Node4 -->
<g id="edge10" class="edge"><title>Node6&#45;&gt;Node4</title>
<path style="fill:none;stroke:midnightblue;" d="M87,-48C100,-48 115,-48 130,-48"/>
<polygon style="fill:midnightblue;stroke:midnightblue;" points="87,-44.5001 77,-48 87,-51.5001 87,-44.5001"/>
</g>
<!-- Node7 -->
<g id="node12" class="node"><title>Node7</title>
<a xlink:href="classltr_1_1_parameterized.html" target="_top" xlink:title="ltr::Parameterized">
<polygon style="fill:white;stroke:black;" points="1,-0 1,-20 94,-20 94,-0 1,-0"/>
<text text-anchor="middle" x="47" y="-7" style="font-family:Arial;font-size:10.00;">ltr::Parameterized</text>
</a>
</g>
<!-- Node7&#45;&gt;Node4 -->
<g id="edge12" class="edge"><title>Node7&#45;&gt;Node4</title>
<path style="fill:none;stroke:midnightblue;" d="M95,-22C114,-27 136,-33 154,-38"/>
<polygon style="fill:midnightblue;stroke:midnightblue;" points="95.4922,-18.5292 85,-20 94.1194,-25.3933 95.4922,-18.5292"/>
</g>
</g>
</svg>
