<?xml version="1.0" encoding="UTF-8" standalone="no"?>
<!DOCTYPE svg PUBLIC "-//W3C//DTD SVG 1.0//EN"
 "http://www.w3.org/TR/2001/REC-SVG-20010904/DTD/svg10.dtd" [
 <!ATTLIST svg xmlns:xlink CDATA #FIXED "http://www.w3.org/1999/xlink">
]>
<!-- Generated by Graphviz version 2.20.2 (Tue Mar &#160;2 19:03:41 UTC 2010)
     For user: (jenkins)  -->
<!-- Title: G Pages: 1 -->
<svg width="506pt" height="104pt"
 viewBox="0.00 0.00 506.00 104.00" xmlns="http://www.w3.org/2000/svg" xmlns:xlink="http://www.w3.org/1999/xlink">
<g id="graph0" class="graph" transform="scale(1 1) rotate(0) translate(4 100)">
<title>G</title>
<polygon style="fill:white;stroke:white;" points="-4,4 -4,-100 502,-100 502,4 -4,4"/>
<!-- Node1 -->
<g id="node1" class="node"><title>Node1</title>
<polygon style="fill:#bfbfbf;stroke:black;" points="131,-38 131,-58 266,-58 266,-38 131,-38"/>
<text text-anchor="middle" x="198" y="-45" style="font-family:Arial;font-size:10.00;">ltr::cv::Splitter&lt; TElement &gt;</text>
</g>
<!-- Node5 -->
<g id="node9" class="node"><title>Node5</title>
<a xlink:href="classltr_1_1cv_1_1_k_fold_simple_splitter.html" target="_top" xlink:title="ltr::cv::KFoldSimpleSplitter\&lt; TElement \&gt;">
<polygon style="fill:white;stroke:black;" points="305,-76 305,-96 496,-96 496,-76 305,-76"/>
<text text-anchor="middle" x="400" y="-83" style="font-family:Arial;font-size:10.00;">ltr::cv::KFoldSimpleSplitter&lt; TElement &gt;</text>
</a>
</g>
<!-- Node1&#45;&gt;Node5 -->
<g id="edge8" class="edge"><title>Node1&#45;&gt;Node5</title>
<path style="fill:none;stroke:midnightblue;" d="M261,-60C289,-65 321,-71 347,-76"/>
<polygon style="fill:midnightblue;stroke:midnightblue;" points="261.492,-56.5292 251,-58 260.119,-63.3933 261.492,-56.5292"/>
</g>
<!-- Node6 -->
<g id="node11" class="node"><title>Node6</title>
<a xlink:href="classltr_1_1cv_1_1_leave_one_out_splitter.html" target="_top" xlink:title="ltr::cv::LeaveOneOutSplitter\&lt; TElement \&gt;">
<polygon style="fill:white;stroke:black;" points="303,-38 303,-58 497,-58 497,-38 303,-38"/>
<text text-anchor="middle" x="400" y="-45" style="font-family:Arial;font-size:10.00;">ltr::cv::LeaveOneOutSplitter&lt; TElement &gt;</text>
</a>
</g>
<!-- Node1&#45;&gt;Node6 -->
<g id="edge10" class="edge"><title>Node1&#45;&gt;Node6</title>
<path style="fill:none;stroke:midnightblue;" d="M276,-48C285,-48 294,-48 303,-48"/>
<polygon style="fill:midnightblue;stroke:midnightblue;" points="276,-44.5001 266,-48 276,-51.5001 276,-44.5001"/>
</g>
<!-- Node7 -->
<g id="node13" class="node"><title>Node7</title>
<a xlink:href="classltr_1_1cv_1_1_t_k_fold_simple_splitter.html" target="_top" xlink:title="ltr::cv::TKFoldSimpleSplitter\&lt; TElement \&gt;">
<polygon style="fill:white;stroke:black;" points="302,-0 302,-20 498,-20 498,-0 302,-0"/>
<text text-anchor="middle" x="400" y="-7" style="font-family:Arial;font-size:10.00;">ltr::cv::TKFoldSimpleSplitter&lt; TElement &gt;</text>
</a>
</g>
<!-- Node1&#45;&gt;Node7 -->
<g id="edge12" class="edge"><title>Node1&#45;&gt;Node7</title>
<path style="fill:none;stroke:midnightblue;" d="M261,-36C289,-31 321,-25 347,-20"/>
<polygon style="fill:midnightblue;stroke:midnightblue;" points="260.119,-32.6067 251,-38 261.492,-39.4708 260.119,-32.6067"/>
</g>
<!-- Node2 -->
<g id="node2" class="node"><title>Node2</title>
<a xlink:href="classltr_1_1_parameterized.html" target="_top" xlink:title="ltr::Parameterized">
<polygon style="fill:white;stroke:black;" points="1,-76 1,-96 94,-96 94,-76 1,-76"/>
<text text-anchor="middle" x="47" y="-83" style="font-family:Arial;font-size:10.00;">ltr::Parameterized</text>
</a>
</g>
<!-- Node2&#45;&gt;Node1 -->
<g id="edge2" class="edge"><title>Node2&#45;&gt;Node1</title>
<path style="fill:none;stroke:midnightblue;" d="M97,-74C117,-69 140,-63 159,-58"/>
<polygon style="fill:midnightblue;stroke:midnightblue;" points="96.1194,-70.6067 87,-76 97.4922,-77.4708 96.1194,-70.6067"/>
</g>
<!-- Node3 -->
<g id="node4" class="node"><title>Node3</title>
<a xlink:href="classltr_1_1_aliaser.html" target="_top" xlink:title="Inherit from this class in order to use alias.">
<polygon style="fill:white;stroke:black;" points="17,-38 17,-58 77,-58 77,-38 17,-38"/>
<text text-anchor="middle" x="47" y="-45" style="font-family:Arial;font-size:10.00;">ltr::Aliaser</text>
</a>
</g>
<!-- Node3&#45;&gt;Node1 -->
<g id="edge4" class="edge"><title>Node3&#45;&gt;Node1</title>
<path style="fill:none;stroke:midnightblue;" d="M87,-48C100,-48 116,-48 131,-48"/>
<polygon style="fill:midnightblue;stroke:midnightblue;" points="87,-44.5001 77,-48 87,-51.5001 87,-44.5001"/>
</g>
<!-- Node4 -->
<g id="node6" class="node"><title>Node4</title>
<a xlink:href="classltr_1_1_printable.html" target="_top" xlink:title="ltr::Printable">
<polygon style="fill:white;stroke:black;" points="13,-0 13,-20 82,-20 82,-0 13,-0"/>
<text text-anchor="middle" x="47" y="-7" style="font-family:Arial;font-size:10.00;">ltr::Printable</text>
</a>
</g>
<!-- Node4&#45;&gt;Node1 -->
<g id="edge6" class="edge"><title>Node4&#45;&gt;Node1</title>
<path style="fill:none;stroke:midnightblue;" d="M92,-22C113,-27 138,-33 158,-38"/>
<polygon style="fill:midnightblue;stroke:midnightblue;" points="92.584,-18.5212 82,-19 90.5725,-25.2259 92.584,-18.5212"/>
</g>
</g>
</svg>
