<?xml version="1.0" encoding="UTF-8" standalone="no"?>
<!DOCTYPE svg PUBLIC "-//W3C//DTD SVG 1.0//EN"
 "http://www.w3.org/TR/2001/REC-SVG-20010904/DTD/svg10.dtd" [
 <!ATTLIST svg xmlns:xlink CDATA #FIXED "http://www.w3.org/1999/xlink">
]>
<!-- Generated by Graphviz version 2.20.2 (Tue Mar &#160;2 19:03:41 UTC 2010)
     For user: (jenkins)  -->
<!-- Title: G Pages: 1 -->
<svg width="363pt" height="196pt"
 viewBox="0.00 0.00 363.00 196.00" xmlns="http://www.w3.org/2000/svg" xmlns:xlink="http://www.w3.org/1999/xlink">
<g id="graph0" class="graph" transform="scale(1 1) rotate(0) translate(4 192)">
<title>G</title>
<polygon style="fill:white;stroke:white;" points="-4,4 -4,-192 359,-192 359,4 -4,4"/>
<!-- Node1 -->
<g id="node1" class="node"><title>Node1</title>
<polygon style="fill:#bfbfbf;stroke:black;" points="198,-0 198,-20 288,-20 288,-0 198,-0"/>
<text text-anchor="middle" x="243" y="-7" style="font-family:Arial;font-size:10.00;">ltr::gp::GPScorer</text>
</g>
<!-- Node2 -->
<g id="node2" class="node"><title>Node2</title>
<a xlink:href="classltr_1_1_scorer.html" target="_top" xlink:title="ltr::Scorer">
<polygon style="fill:white;stroke:black;" points="214,-56 214,-76 273,-76 273,-56 214,-56"/>
<text text-anchor="middle" x="243" y="-63" style="font-family:Arial;font-size:10.00;">ltr::Scorer</text>
</a>
</g>
<!-- Node2&#45;&gt;Node1 -->
<g id="edge2" class="edge"><title>Node2&#45;&gt;Node1</title>
<path style="fill:none;stroke:midnightblue;" d="M243,-46C243,-37 243,-28 243,-20"/>
<polygon style="fill:midnightblue;stroke:midnightblue;" points="239.5,-46 243,-56 246.5,-46 239.5,-46"/>
</g>
<!-- Node3 -->
<g id="node4" class="node"><title>Node3</title>
<a xlink:href="classltr_1_1_serializable_functor.html" target="_top" xlink:title="ltr::SerializableFunctor\&lt; double \&gt;">
<polygon style="fill:white;stroke:black;" points="31,-112 31,-132 191,-132 191,-112 31,-112"/>
<text text-anchor="middle" x="111" y="-119" style="font-family:Arial;font-size:10.00;">ltr::SerializableFunctor&lt; double &gt;</text>
</a>
</g>
<!-- Node3&#45;&gt;Node2 -->
<g id="edge4" class="edge"><title>Node3&#45;&gt;Node2</title>
<path style="fill:none;stroke:midnightblue;" d="M145,-108C168,-98 198,-85 219,-76"/>
<polygon style="fill:midnightblue;stroke:midnightblue;" points="142.985,-105.036 135,-112 145.585,-111.536 142.985,-105.036"/>
</g>
<!-- Node4 -->
<g id="node6" class="node"><title>Node4</title>
<a xlink:href="classltr_1_1_functor.html" target="_top" xlink:title="ltr::Functor\&lt; double \&gt;">
<polygon style="fill:white;stroke:black;" points="0,-168 0,-188 110,-188 110,-168 0,-168"/>
<text text-anchor="middle" x="55" y="-175" style="font-family:Arial;font-size:10.00;">ltr::Functor&lt; double &gt;</text>
</a>
</g>
<!-- Node4&#45;&gt;Node3 -->
<g id="edge6" class="edge"><title>Node4&#45;&gt;Node3</title>
<path style="fill:none;stroke:midnightblue;" d="M72,-161C81,-152 92,-141 101,-132"/>
<polygon style="fill:midnightblue;stroke:midnightblue;" points="69.5962,-158.454 65,-168 74.546,-163.404 69.5962,-158.454"/>
</g>
<!-- Node5 -->
<g id="node8" class="node"><title>Node5</title>
<a xlink:href="classltr_1_1_serializable.html" target="_top" xlink:title="The interface class for objects, that can be serialized. That means that a cpp code for those can be ...">
<polygon style="fill:white;stroke:black;" points="128,-168 128,-188 209,-188 209,-168 128,-168"/>
<text text-anchor="middle" x="168" y="-175" style="font-family:Arial;font-size:10.00;">ltr::Serializable</text>
</a>
</g>
<!-- Node5&#45;&gt;Node3 -->
<g id="edge8" class="edge"><title>Node5&#45;&gt;Node3</title>
<path style="fill:none;stroke:midnightblue;" d="M151,-161C141,-152 130,-141 121,-132"/>
<polygon style="fill:midnightblue;stroke:midnightblue;" points="148.454,-163.404 158,-168 153.404,-158.454 148.454,-163.404"/>
</g>
<!-- Node6 -->
<g id="node10" class="node"><title>Node6</title>
<a xlink:href="classltr_1_1_printable.html" target="_top" xlink:title="ltr::Printable">
<polygon style="fill:white;stroke:black;" points="209,-112 209,-132 278,-132 278,-112 209,-112"/>
<text text-anchor="middle" x="243" y="-119" style="font-family:Arial;font-size:10.00;">ltr::Printable</text>
</a>
</g>
<!-- Node6&#45;&gt;Node2 -->
<g id="edge10" class="edge"><title>Node6&#45;&gt;Node2</title>
<path style="fill:none;stroke:midnightblue;" d="M243,-102C243,-93 243,-84 243,-76"/>
<polygon style="fill:midnightblue;stroke:midnightblue;" points="239.5,-102 243,-112 246.5,-102 239.5,-102"/>
</g>
<!-- Node7 -->
<g id="node12" class="node"><title>Node7</title>
<a xlink:href="classltr_1_1_aliaser.html" target="_top" xlink:title="Inherit from this class in order to use alias.">
<polygon style="fill:white;stroke:black;" points="295,-112 295,-132 355,-132 355,-112 295,-112"/>
<text text-anchor="middle" x="325" y="-119" style="font-family:Arial;font-size:10.00;">ltr::Aliaser</text>
</a>
</g>
<!-- Node7&#45;&gt;Node2 -->
<g id="edge12" class="edge"><title>Node7&#45;&gt;Node2</title>
<path style="fill:none;stroke:midnightblue;" d="M302,-106C288,-96 270,-84 258,-76"/>
<polygon style="fill:midnightblue;stroke:midnightblue;" points="299.9,-108.8 310,-112 304.1,-103.2 299.9,-108.8"/>
</g>
</g>
</svg>
