<?xml version="1.0" encoding="UTF-8" standalone="no"?>
<!DOCTYPE svg PUBLIC "-//W3C//DTD SVG 1.0//EN"
 "http://www.w3.org/TR/2001/REC-SVG-20010904/DTD/svg10.dtd" [
 <!ATTLIST svg xmlns:xlink CDATA #FIXED "http://www.w3.org/1999/xlink">
]>
<!-- Generated by Graphviz version 2.20.2 (Tue Mar &#160;2 19:03:41 UTC 2010)
     For user: (jenkins)  -->
<!-- Title: G Pages: 1 -->
<svg width="300pt" height="196pt"
 viewBox="0.00 0.00 300.00 196.00" xmlns="http://www.w3.org/2000/svg" xmlns:xlink="http://www.w3.org/1999/xlink">
<g id="graph0" class="graph" transform="scale(1 1) rotate(0) translate(4 192)">
<title>G</title>
<polygon style="fill:white;stroke:white;" points="-4,4 -4,-192 296,-192 296,4 -4,4"/>
<!-- Node1 -->
<g id="node1" class="node"><title>Node1</title>
<polygon style="fill:#bfbfbf;stroke:black;" points="51,-0 51,-20 242,-20 242,-0 51,-0"/>
<text text-anchor="middle" x="146" y="-7" style="font-family:Arial;font-size:10.00;">ltr::FeatureSamplerLearner&lt; TElement &gt;</text>
</g>
<!-- Node2 -->
<g id="node2" class="node"><title>Node2</title>
<a xlink:href="classltr_1_1_base_feature_converter_learner.html" target="_top" xlink:title="ltr::BaseFeatureConverterLearner\&lt; TElement, FeatureSampler \&gt;">
<polygon style="fill:white;stroke:black;" points="0,-56 0,-76 293,-76 293,-56 0,-56"/>
<text text-anchor="middle" x="146" y="-63" style="font-family:Arial;font-size:10.00;">ltr::BaseFeatureConverterLearner&lt; TElement, FeatureSampler &gt;</text>
</a>
</g>
<!-- Node2&#45;&gt;Node1 -->
<g id="edge2" class="edge"><title>Node2&#45;&gt;Node1</title>
<path style="fill:none;stroke:midnightblue;" d="M146,-46C146,-37 146,-28 146,-20"/>
<polygon style="fill:midnightblue;stroke:midnightblue;" points="142.5,-46 146,-56 149.5,-46 142.5,-46"/>
</g>
<!-- Node3 -->
<g id="node4" class="node"><title>Node3</title>
<a xlink:href="classltr_1_1_feature_converter_learner.html" target="_top" xlink:title="Learns input dataset and produces a FeatureConverter.">
<polygon style="fill:white;stroke:black;" points="49,-112 49,-132 244,-132 244,-112 49,-112"/>
<text text-anchor="middle" x="146" y="-119" style="font-family:Arial;font-size:10.00;">ltr::FeatureConverterLearner&lt; TElement &gt;</text>
</a>
</g>
<!-- Node3&#45;&gt;Node2 -->
<g id="edge4" class="edge"><title>Node3&#45;&gt;Node2</title>
<path style="fill:none;stroke:midnightblue;" d="M146,-102C146,-93 146,-84 146,-76"/>
<polygon style="fill:midnightblue;stroke:midnightblue;" points="142.5,-102 146,-112 149.5,-102 142.5,-102"/>
</g>
<!-- Node4 -->
<g id="node6" class="node"><title>Node4</title>
<a xlink:href="classltr_1_1_parameterized.html" target="_top" xlink:title="ltr::Parameterized">
<polygon style="fill:white;stroke:black;" points="2,-168 2,-188 95,-188 95,-168 2,-168"/>
<text text-anchor="middle" x="48" y="-175" style="font-family:Arial;font-size:10.00;">ltr::Parameterized</text>
</a>
</g>
<!-- Node4&#45;&gt;Node3 -->
<g id="edge6" class="edge"><title>Node4&#45;&gt;Node3</title>
<path style="fill:none;stroke:midnightblue;" d="M75,-163C92,-153 114,-140 128,-132"/>
<polygon style="fill:midnightblue;stroke:midnightblue;" points="73.0418,-160.084 66,-168 76.4414,-166.203 73.0418,-160.084"/>
</g>
<!-- Node5 -->
<g id="node8" class="node"><title>Node5</title>
<a xlink:href="classltr_1_1_printable.html" target="_top" xlink:title="ltr::Printable">
<polygon style="fill:white;stroke:black;" points="112,-168 112,-188 181,-188 181,-168 112,-168"/>
<text text-anchor="middle" x="146" y="-175" style="font-family:Arial;font-size:10.00;">ltr::Printable</text>
</a>
</g>
<!-- Node5&#45;&gt;Node3 -->
<g id="edge8" class="edge"><title>Node5&#45;&gt;Node3</title>
<path style="fill:none;stroke:midnightblue;" d="M146,-158C146,-149 146,-140 146,-132"/>
<polygon style="fill:midnightblue;stroke:midnightblue;" points="142.5,-158 146,-168 149.5,-158 142.5,-158"/>
</g>
<!-- Node6 -->
<g id="node10" class="node"><title>Node6</title>
<a xlink:href="classltr_1_1_aliaser.html" target="_top" xlink:title="Inherit from this class in order to use alias.">
<polygon style="fill:white;stroke:black;" points="198,-168 198,-188 258,-188 258,-168 198,-168"/>
<text text-anchor="middle" x="228" y="-175" style="font-family:Arial;font-size:10.00;">ltr::Aliaser</text>
</a>
</g>
<!-- Node6&#45;&gt;Node3 -->
<g id="edge10" class="edge"><title>Node6&#45;&gt;Node3</title>
<path style="fill:none;stroke:midnightblue;" d="M205,-162C191,-152 173,-140 161,-132"/>
<polygon style="fill:midnightblue;stroke:midnightblue;" points="202.9,-164.8 213,-168 207.1,-159.2 202.9,-164.8"/>
</g>
</g>
</svg>
