<?xml version="1.0" encoding="UTF-8" standalone="no"?>
<!DOCTYPE svg PUBLIC "-//W3C//DTD SVG 1.0//EN"
 "http://www.w3.org/TR/2001/REC-SVG-20010904/DTD/svg10.dtd" [
 <!ATTLIST svg xmlns:xlink CDATA #FIXED "http://www.w3.org/1999/xlink">
]>
<!-- Generated by Graphviz version 2.20.2 (Tue Mar &#160;2 19:03:41 UTC 2010)
     For user: (jenkins)  -->
<!-- Title: G Pages: 1 -->
<svg width="267pt" height="196pt"
 viewBox="0.00 0.00 267.00 196.00" xmlns="http://www.w3.org/2000/svg" xmlns:xlink="http://www.w3.org/1999/xlink">
<g id="graph0" class="graph" transform="scale(1 1) rotate(0) translate(4 192)">
<title>G</title>
<polygon style="fill:white;stroke:white;" points="-4,4 -4,-192 263,-192 263,4 -4,4"/>
<!-- Node1 -->
<g id="node1" class="node"><title>Node1</title>
<polygon style="fill:#bfbfbf;stroke:black;" points="0,-0 0,-20 239,-20 239,-0 0,-0"/>
<text text-anchor="middle" x="119" y="-7" style="font-family:Arial;font-size:10.00;">ltr::BayesianLearner&lt; TElement, TDensityLearner &gt;</text>
</g>
<!-- Node2 -->
<g id="node2" class="node"><title>Node2</title>
<a xlink:href="classltr_1_1_base_learner.html" target="_top" xlink:title="ltr::BaseLearner\&lt; TElement, BayesianScorer \&gt;">
<polygon style="fill:white;stroke:black;" points="10,-56 10,-76 229,-76 229,-56 10,-56"/>
<text text-anchor="middle" x="119" y="-63" style="font-family:Arial;font-size:10.00;">ltr::BaseLearner&lt; TElement, BayesianScorer &gt;</text>
</a>
</g>
<!-- Node2&#45;&gt;Node1 -->
<g id="edge2" class="edge"><title>Node2&#45;&gt;Node1</title>
<path style="fill:none;stroke:midnightblue;" d="M119,-46C119,-37 119,-28 119,-20"/>
<polygon style="fill:midnightblue;stroke:midnightblue;" points="115.5,-46 119,-56 122.5,-46 115.5,-46"/>
</g>
<!-- Node3 -->
<g id="node4" class="node"><title>Node3</title>
<a xlink:href="classltr_1_1_learner.html" target="_top" xlink:title="Learns input dataset and produces a Scorer.">
<polygon style="fill:white;stroke:black;" points="58,-112 58,-132 180,-132 180,-112 58,-112"/>
<text text-anchor="middle" x="119" y="-119" style="font-family:Arial;font-size:10.00;">ltr::Learner&lt; TElement &gt;</text>
</a>
</g>
<!-- Node3&#45;&gt;Node2 -->
<g id="edge4" class="edge"><title>Node3&#45;&gt;Node2</title>
<path style="fill:none;stroke:midnightblue;" d="M119,-102C119,-93 119,-84 119,-76"/>
<polygon style="fill:midnightblue;stroke:midnightblue;" points="115.5,-102 119,-112 122.5,-102 115.5,-102"/>
</g>
<!-- Node4 -->
<g id="node6" class="node"><title>Node4</title>
<a xlink:href="classltr_1_1_reporter.html" target="_top" xlink:title="ltr::Reporter">
<polygon style="fill:white;stroke:black;" points="5,-168 5,-188 72,-188 72,-168 5,-168"/>
<text text-anchor="middle" x="38" y="-175" style="font-family:Arial;font-size:10.00;">ltr::Reporter</text>
</a>
</g>
<!-- Node4&#45;&gt;Node3 -->
<g id="edge6" class="edge"><title>Node4&#45;&gt;Node3</title>
<path style="fill:none;stroke:midnightblue;" d="M60,-162C75,-153 92,-140 104,-132"/>
<polygon style="fill:midnightblue;stroke:midnightblue;" points="57.9,-159.2 52,-168 62.1,-164.8 57.9,-159.2"/>
</g>
<!-- Node5 -->
<g id="node8" class="node"><title>Node5</title>
<a xlink:href="classltr_1_1_aliaser.html" target="_top" xlink:title="Inherit from this class in order to use alias.">
<polygon style="fill:white;stroke:black;" points="89,-168 89,-188 149,-188 149,-168 89,-168"/>
<text text-anchor="middle" x="119" y="-175" style="font-family:Arial;font-size:10.00;">ltr::Aliaser</text>
</a>
</g>
<!-- Node5&#45;&gt;Node3 -->
<g id="edge8" class="edge"><title>Node5&#45;&gt;Node3</title>
<path style="fill:none;stroke:midnightblue;" d="M119,-158C119,-149 119,-140 119,-132"/>
<polygon style="fill:midnightblue;stroke:midnightblue;" points="115.5,-158 119,-168 122.5,-158 115.5,-158"/>
</g>
<!-- Node6 -->
<g id="node10" class="node"><title>Node6</title>
<a xlink:href="classltr_1_1_parameterized.html" target="_top" xlink:title="ltr::Parameterized">
<polygon style="fill:white;stroke:black;" points="167,-168 167,-188 260,-188 260,-168 167,-168"/>
<text text-anchor="middle" x="213" y="-175" style="font-family:Arial;font-size:10.00;">ltr::Parameterized</text>
</a>
</g>
<!-- Node6&#45;&gt;Node3 -->
<g id="edge10" class="edge"><title>Node6&#45;&gt;Node3</title>
<path style="fill:none;stroke:midnightblue;" d="M187,-163C171,-153 150,-140 136,-132"/>
<polygon style="fill:midnightblue;stroke:midnightblue;" points="185.559,-166.203 196,-168 188.958,-160.084 185.559,-166.203"/>
</g>
</g>
</svg>
