<?xml version="1.0" encoding="UTF-8" standalone="no"?>
<!DOCTYPE svg PUBLIC "-//W3C//DTD SVG 1.0//EN"
 "http://www.w3.org/TR/2001/REC-SVG-20010904/DTD/svg10.dtd" [
 <!ATTLIST svg xmlns:xlink CDATA #FIXED "http://www.w3.org/1999/xlink">
]>
<!-- Generated by Graphviz version 2.20.2 (Tue Mar &#160;2 19:03:41 UTC 2010)
     For user: (jenkins)  -->
<!-- Title: G Pages: 1 -->
<svg width="310pt" height="140pt"
 viewBox="0.00 0.00 310.00 140.00" xmlns="http://www.w3.org/2000/svg" xmlns:xlink="http://www.w3.org/1999/xlink">
<g id="graph0" class="graph" transform="scale(1 1) rotate(0) translate(4 136)">
<title>G</title>
<polygon style="fill:white;stroke:white;" points="-4,4 -4,-136 306,-136 306,4 -4,4"/>
<!-- Node1 -->
<g id="node1" class="node"><title>Node1</title>
<polygon style="fill:#bfbfbf;stroke:black;" points="0,-0 0,-20 303,-20 303,-0 0,-0"/>
<text text-anchor="middle" x="151" y="-7" style="font-family:Arial;font-size:10.00;">ltr::BaseFeatureConverterLearner&lt; TElement, TFeatureConverter &gt;</text>
</g>
<!-- Node2 -->
<g id="node2" class="node"><title>Node2</title>
<a xlink:href="classltr_1_1_feature_converter_learner.html" target="_top" xlink:title="Learns input dataset and produces a FeatureConverter.">
<polygon style="fill:white;stroke:black;" points="54,-56 54,-76 249,-76 249,-56 54,-56"/>
<text text-anchor="middle" x="151" y="-63" style="font-family:Arial;font-size:10.00;">ltr::FeatureConverterLearner&lt; TElement &gt;</text>
</a>
</g>
<!-- Node2&#45;&gt;Node1 -->
<g id="edge2" class="edge"><title>Node2&#45;&gt;Node1</title>
<path style="fill:none;stroke:midnightblue;" d="M151,-46C151,-37 151,-28 151,-20"/>
<polygon style="fill:midnightblue;stroke:midnightblue;" points="147.5,-46 151,-56 154.5,-46 147.5,-46"/>
</g>
<!-- Node3 -->
<g id="node4" class="node"><title>Node3</title>
<a xlink:href="classltr_1_1_parameterized.html" target="_top" xlink:title="ltr::Parameterized">
<polygon style="fill:white;stroke:black;" points="7,-112 7,-132 100,-132 100,-112 7,-112"/>
<text text-anchor="middle" x="53" y="-119" style="font-family:Arial;font-size:10.00;">ltr::Parameterized</text>
</a>
</g>
<!-- Node3&#45;&gt;Node2 -->
<g id="edge4" class="edge"><title>Node3&#45;&gt;Node2</title>
<path style="fill:none;stroke:midnightblue;" d="M80,-107C97,-97 119,-84 133,-76"/>
<polygon style="fill:midnightblue;stroke:midnightblue;" points="78.0418,-104.084 71,-112 81.4414,-110.203 78.0418,-104.084"/>
</g>
<!-- Node4 -->
<g id="node6" class="node"><title>Node4</title>
<a xlink:href="classltr_1_1_printable.html" target="_top" xlink:title="ltr::Printable">
<polygon style="fill:white;stroke:black;" points="117,-112 117,-132 186,-132 186,-112 117,-112"/>
<text text-anchor="middle" x="151" y="-119" style="font-family:Arial;font-size:10.00;">ltr::Printable</text>
</a>
</g>
<!-- Node4&#45;&gt;Node2 -->
<g id="edge6" class="edge"><title>Node4&#45;&gt;Node2</title>
<path style="fill:none;stroke:midnightblue;" d="M151,-102C151,-93 151,-84 151,-76"/>
<polygon style="fill:midnightblue;stroke:midnightblue;" points="147.5,-102 151,-112 154.5,-102 147.5,-102"/>
</g>
<!-- Node5 -->
<g id="node8" class="node"><title>Node5</title>
<a xlink:href="classltr_1_1_aliaser.html" target="_top" xlink:title="Inherit from this class in order to use alias.">
<polygon style="fill:white;stroke:black;" points="203,-112 203,-132 263,-132 263,-112 203,-112"/>
<text text-anchor="middle" x="233" y="-119" style="font-family:Arial;font-size:10.00;">ltr::Aliaser</text>
</a>
</g>
<!-- Node5&#45;&gt;Node2 -->
<g id="edge8" class="edge"><title>Node5&#45;&gt;Node2</title>
<path style="fill:none;stroke:midnightblue;" d="M210,-106C196,-96 178,-84 166,-76"/>
<polygon style="fill:midnightblue;stroke:midnightblue;" points="207.9,-108.8 218,-112 212.1,-103.2 207.9,-108.8"/>
</g>
</g>
</svg>
