<?xml version="1.0" encoding="UTF-8" standalone="no"?>
<!DOCTYPE svg PUBLIC "-//W3C//DTD SVG 1.0//EN"
 "http://www.w3.org/TR/2001/REC-SVG-20010904/DTD/svg10.dtd" [
 <!ATTLIST svg xmlns:xlink CDATA #FIXED "http://www.w3.org/1999/xlink">
]>
<!-- Generated by Graphviz version 2.20.2 (Tue Mar &#160;2 19:03:41 UTC 2010)
     For user: (jenkins)  -->
<!-- Title: G Pages: 1 -->
<svg width="158pt" height="140pt"
 viewBox="0.00 0.00 158.00 140.00" xmlns="http://www.w3.org/2000/svg" xmlns:xlink="http://www.w3.org/1999/xlink">
<g id="graph0" class="graph" transform="scale(1 1) rotate(0) translate(4 136)">
<title>G</title>
<polygon style="fill:white;stroke:white;" points="-4,4 -4,-136 154,-136 154,4 -4,4"/>
<!-- Node1 -->
<g id="node1" class="node"><title>Node1</title>
<polygon style="fill:#bfbfbf;stroke:black;" points="0,-0 0,-20 150,-20 150,-0 0,-0"/>
<text text-anchor="middle" x="75" y="-7" style="font-family:Arial;font-size:10.00;">ltr::gp::SelectTopTreesStrategy</text>
</g>
<!-- Node2 -->
<g id="node2" class="node"><title>Node2</title>
<a xlink:href="classltr_1_1gp_1_1_base_population_handler.html" target="_top" xlink:title="ltr::gp::BasePopulationHandler">
<polygon style="fill:white;stroke:black;" points="1,-56 1,-76 149,-76 149,-56 1,-56"/>
<text text-anchor="middle" x="75" y="-63" style="font-family:Arial;font-size:10.00;">ltr::gp::BasePopulationHandler</text>
</a>
</g>
<!-- Node2&#45;&gt;Node1 -->
<g id="edge2" class="edge"><title>Node2&#45;&gt;Node1</title>
<path style="fill:none;stroke:midnightblue;" d="M75,-46C75,-37 75,-28 75,-20"/>
<polygon style="fill:midnightblue;stroke:midnightblue;" points="71.5001,-46 75,-56 78.5001,-46 71.5001,-46"/>
</g>
<!-- Node3 -->
<g id="node4" class="node"><title>Node3</title>
<a xlink:href="classltr_1_1_parameterized.html" target="_top" xlink:title="ltr::Parameterized">
<polygon style="fill:white;stroke:black;" points="29,-112 29,-132 122,-132 122,-112 29,-112"/>
<text text-anchor="middle" x="75" y="-119" style="font-family:Arial;font-size:10.00;">ltr::Parameterized</text>
</a>
</g>
<!-- Node3&#45;&gt;Node2 -->
<g id="edge4" class="edge"><title>Node3&#45;&gt;Node2</title>
<path style="fill:none;stroke:midnightblue;" d="M75,-102C75,-93 75,-84 75,-76"/>
<polygon style="fill:midnightblue;stroke:midnightblue;" points="71.5001,-102 75,-112 78.5001,-102 71.5001,-102"/>
</g>
</g>
</svg>
