<?xml version="1.0" encoding="UTF-8" standalone="no"?>
<!DOCTYPE svg PUBLIC "-//W3C//DTD SVG 1.0//EN"
 "http://www.w3.org/TR/2001/REC-SVG-20010904/DTD/svg10.dtd" [
 <!ATTLIST svg xmlns:xlink CDATA #FIXED "http://www.w3.org/1999/xlink">
]>
<!-- Generated by Graphviz version 2.20.2 (Tue Mar &#160;2 19:03:41 UTC 2010)
     For user: (jenkins)  -->
<!-- Title: G Pages: 1 -->
<svg width="330pt" height="140pt"
 viewBox="0.00 0.00 330.00 140.00" xmlns="http://www.w3.org/2000/svg" xmlns:xlink="http://www.w3.org/1999/xlink">
<g id="graph0" class="graph" transform="scale(1 1) rotate(0) translate(4 136)">
<title>G</title>
<polygon style="fill:white;stroke:white;" points="-4,4 -4,-136 326,-136 326,4 -4,4"/>
<!-- Node1 -->
<g id="node1" class="node"><title>Node1</title>
<polygon style="fill:#bfbfbf;stroke:black;" points="0,-0 0,-20 322,-20 322,-0 0,-0"/>
<text text-anchor="middle" x="161" y="-7" style="font-family:Arial;font-size:10.00;">ltr::composition::FakeCompositionScorerWeightsUpdater&lt; TElement &gt;</text>
</g>
<!-- Node2 -->
<g id="node2" class="node"><title>Node2</title>
<a xlink:href="classltr_1_1composition_1_1_composition_scorer_weights_updater.html" target="_top" xlink:title="ltr::composition::CompositionScorerWeightsUpdater\&lt; TElement \&gt;">
<polygon style="fill:white;stroke:black;" points="11,-56 11,-76 311,-76 311,-56 11,-56"/>
<text text-anchor="middle" x="161" y="-63" style="font-family:Arial;font-size:10.00;">ltr::composition::CompositionScorerWeightsUpdater&lt; TElement &gt;</text>
</a>
</g>
<!-- Node2&#45;&gt;Node1 -->
<g id="edge2" class="edge"><title>Node2&#45;&gt;Node1</title>
<path style="fill:none;stroke:midnightblue;" d="M161,-46C161,-37 161,-28 161,-20"/>
<polygon style="fill:midnightblue;stroke:midnightblue;" points="157.5,-46 161,-56 164.5,-46 157.5,-46"/>
</g>
<!-- Node3 -->
<g id="node4" class="node"><title>Node3</title>
<a xlink:href="classltr_1_1_aliaser.html" target="_top" xlink:title="Inherit from this class in order to use alias.">
<polygon style="fill:white;stroke:black;" points="84,-112 84,-132 144,-132 144,-112 84,-112"/>
<text text-anchor="middle" x="114" y="-119" style="font-family:Arial;font-size:10.00;">ltr::Aliaser</text>
</a>
</g>
<!-- Node3&#45;&gt;Node2 -->
<g id="edge4" class="edge"><title>Node3&#45;&gt;Node2</title>
<path style="fill:none;stroke:midnightblue;" d="M129,-104C137,-95 146,-84 152,-76"/>
<polygon style="fill:midnightblue;stroke:midnightblue;" points="125.951,-102.169 122,-112 131.219,-106.779 125.951,-102.169"/>
</g>
<!-- Node4 -->
<g id="node6" class="node"><title>Node4</title>
<a xlink:href="classltr_1_1_parameterized.html" target="_top" xlink:title="ltr::Parameterized">
<polygon style="fill:white;stroke:black;" points="162,-112 162,-132 255,-132 255,-112 162,-112"/>
<text text-anchor="middle" x="208" y="-119" style="font-family:Arial;font-size:10.00;">ltr::Parameterized</text>
</a>
</g>
<!-- Node4&#45;&gt;Node2 -->
<g id="edge6" class="edge"><title>Node4&#45;&gt;Node2</title>
<path style="fill:none;stroke:midnightblue;" d="M193,-104C185,-95 176,-84 170,-76"/>
<polygon style="fill:midnightblue;stroke:midnightblue;" points="190.781,-106.779 200,-112 196.049,-102.169 190.781,-106.779"/>
</g>
</g>
</svg>
