<?xml version="1.0" encoding="UTF-8" standalone="no"?>
<!DOCTYPE svg PUBLIC "-//W3C//DTD SVG 1.0//EN"
 "http://www.w3.org/TR/2001/REC-SVG-20010904/DTD/svg10.dtd" [
 <!ATTLIST svg xmlns:xlink CDATA #FIXED "http://www.w3.org/1999/xlink">
]>
<!-- Generated by Graphviz version 2.20.2 (Tue Mar &#160;2 19:03:41 UTC 2010)
     For user: (jenkins)  -->
<!-- Title: G Pages: 1 -->
<svg width="262pt" height="140pt"
 viewBox="0.00 0.00 262.00 140.00" xmlns="http://www.w3.org/2000/svg" xmlns:xlink="http://www.w3.org/1999/xlink">
<g id="graph0" class="graph" transform="scale(1 1) rotate(0) translate(4 136)">
<title>G</title>
<polygon style="fill:white;stroke:white;" points="-4,4 -4,-136 258,-136 258,4 -4,4"/>
<!-- Node1 -->
<g id="node1" class="node"><title>Node1</title>
<polygon style="fill:#bfbfbf;stroke:black;" points="22,-0 22,-20 206,-20 206,-0 22,-0"/>
<text text-anchor="middle" x="114" y="-7" style="font-family:Arial;font-size:10.00;">ltr::BaseLearner&lt; TElement, TScorer &gt;</text>
</g>
<!-- Node2 -->
<g id="node2" class="node"><title>Node2</title>
<a xlink:href="classltr_1_1_learner.html" target="_top" xlink:title="Learns input dataset and produces a Scorer.">
<polygon style="fill:white;stroke:black;" points="53,-56 53,-76 175,-76 175,-56 53,-56"/>
<text text-anchor="middle" x="114" y="-63" style="font-family:Arial;font-size:10.00;">ltr::Learner&lt; TElement &gt;</text>
</a>
</g>
<!-- Node2&#45;&gt;Node1 -->
<g id="edge2" class="edge"><title>Node2&#45;&gt;Node1</title>
<path style="fill:none;stroke:midnightblue;" d="M114,-46C114,-37 114,-28 114,-20"/>
<polygon style="fill:midnightblue;stroke:midnightblue;" points="110.5,-46 114,-56 117.5,-46 110.5,-46"/>
</g>
<!-- Node3 -->
<g id="node4" class="node"><title>Node3</title>
<a xlink:href="classltr_1_1_reporter.html" target="_top" xlink:title="ltr::Reporter">
<polygon style="fill:white;stroke:black;" points="0,-112 0,-132 67,-132 67,-112 0,-112"/>
<text text-anchor="middle" x="33" y="-119" style="font-family:Arial;font-size:10.00;">ltr::Reporter</text>
</a>
</g>
<!-- Node3&#45;&gt;Node2 -->
<g id="edge4" class="edge"><title>Node3&#45;&gt;Node2</title>
<path style="fill:none;stroke:midnightblue;" d="M55,-106C70,-97 87,-84 99,-76"/>
<polygon style="fill:midnightblue;stroke:midnightblue;" points="52.9,-103.2 47,-112 57.1,-108.8 52.9,-103.2"/>
</g>
<!-- Node4 -->
<g id="node6" class="node"><title>Node4</title>
<a xlink:href="classltr_1_1_aliaser.html" target="_top" xlink:title="Inherit from this class in order to use alias.">
<polygon style="fill:white;stroke:black;" points="84,-112 84,-132 144,-132 144,-112 84,-112"/>
<text text-anchor="middle" x="114" y="-119" style="font-family:Arial;font-size:10.00;">ltr::Aliaser</text>
</a>
</g>
<!-- Node4&#45;&gt;Node2 -->
<g id="edge6" class="edge"><title>Node4&#45;&gt;Node2</title>
<path style="fill:none;stroke:midnightblue;" d="M114,-102C114,-93 114,-84 114,-76"/>
<polygon style="fill:midnightblue;stroke:midnightblue;" points="110.5,-102 114,-112 117.5,-102 110.5,-102"/>
</g>
<!-- Node5 -->
<g id="node8" class="node"><title>Node5</title>
<a xlink:href="classltr_1_1_parameterized.html" target="_top" xlink:title="ltr::Parameterized">
<polygon style="fill:white;stroke:black;" points="162,-112 162,-132 255,-132 255,-112 162,-112"/>
<text text-anchor="middle" x="208" y="-119" style="font-family:Arial;font-size:10.00;">ltr::Parameterized</text>
</a>
</g>
<!-- Node5&#45;&gt;Node2 -->
<g id="edge8" class="edge"><title>Node5&#45;&gt;Node2</title>
<path style="fill:none;stroke:midnightblue;" d="M182,-107C166,-97 145,-84 131,-76"/>
<polygon style="fill:midnightblue;stroke:midnightblue;" points="180.559,-110.203 191,-112 183.958,-104.084 180.559,-110.203"/>
</g>
</g>
</svg>
