<?xml version="1.0" encoding="UTF-8" standalone="no"?>
<!DOCTYPE svg PUBLIC "-//W3C//DTD SVG 1.0//EN"
 "http://www.w3.org/TR/2001/REC-SVG-20010904/DTD/svg10.dtd" [
 <!ATTLIST svg xmlns:xlink CDATA #FIXED "http://www.w3.org/1999/xlink">
]>
<!-- Generated by Graphviz version 2.20.2 (Tue Mar &#160;2 19:03:41 UTC 2010)
     For user: (jenkins)  -->
<!-- Title: G Pages: 1 -->
<svg width="198pt" height="140pt"
 viewBox="0.00 0.00 198.00 140.00" xmlns="http://www.w3.org/2000/svg" xmlns:xlink="http://www.w3.org/1999/xlink">
<g id="graph0" class="graph" transform="scale(1 1) rotate(0) translate(4 136)">
<title>G</title>
<polygon style="fill:white;stroke:white;" points="-4,4 -4,-136 194,-136 194,4 -4,4"/>
<!-- Node1 -->
<g id="node1" class="node"><title>Node1</title>
<polygon style="fill:#bfbfbf;stroke:black;" points="43,-0 43,-20 154,-20 154,-0 43,-0"/>
<text text-anchor="middle" x="98" y="-7" style="font-family:Arial;font-size:10.00;">ltr::FisherDiscriminant</text>
</g>
<!-- Node2 -->
<g id="node2" class="node"><title>Node2</title>
<a xlink:href="classltr_1_1_base_probability_density_estimator.html" target="_top" xlink:title="Simple interface of the probability density estimator.">
<polygon style="fill:white;stroke:black;" points="11,-56 11,-76 185,-76 185,-56 11,-56"/>
<text text-anchor="middle" x="98" y="-63" style="font-family:Arial;font-size:10.00;">ltr::BaseProbabilityDensityEstimator</text>
</a>
</g>
<!-- Node2&#45;&gt;Node1 -->
<g id="edge2" class="edge"><title>Node2&#45;&gt;Node1</title>
<path style="fill:none;stroke:midnightblue;" d="M98,-46C98,-37 98,-28 98,-20"/>
<polygon style="fill:midnightblue;stroke:midnightblue;" points="94.5001,-46 98,-56 101.5,-46 94.5001,-46"/>
</g>
<!-- Node3 -->
<g id="node4" class="node"><title>Node3</title>
<a xlink:href="classltr_1_1_parameterized.html" target="_top" xlink:title="ltr::Parameterized">
<polygon style="fill:white;stroke:black;" points="0,-112 0,-132 93,-132 93,-112 0,-112"/>
<text text-anchor="middle" x="46" y="-119" style="font-family:Arial;font-size:10.00;">ltr::Parameterized</text>
</a>
</g>
<!-- Node3&#45;&gt;Node2 -->
<g id="edge4" class="edge"><title>Node3&#45;&gt;Node2</title>
<path style="fill:none;stroke:midnightblue;" d="M62,-105C70,-95 81,-85 88,-76"/>
<polygon style="fill:midnightblue;stroke:midnightblue;" points="59.5962,-102.454 55,-112 64.546,-107.404 59.5962,-102.454"/>
</g>
<!-- Node4 -->
<g id="node6" class="node"><title>Node4</title>
<a xlink:href="classltr_1_1_serializable.html" target="_top" xlink:title="The interface class for objects, that can be serialized. That means that a cpp code for those can be ...">
<polygon style="fill:white;stroke:black;" points="110,-112 110,-132 191,-132 191,-112 110,-112"/>
<text text-anchor="middle" x="150" y="-119" style="font-family:Arial;font-size:10.00;">ltr::Serializable</text>
</a>
</g>
<!-- Node4&#45;&gt;Node2 -->
<g id="edge6" class="edge"><title>Node4&#45;&gt;Node2</title>
<path style="fill:none;stroke:midnightblue;" d="M134,-105C126,-95 115,-85 108,-76"/>
<polygon style="fill:midnightblue;stroke:midnightblue;" points="131.454,-107.404 141,-112 136.404,-102.454 131.454,-107.404"/>
</g>
</g>
</svg>
