<?xml version="1.0" encoding="UTF-8" standalone="no"?>
<!DOCTYPE svg PUBLIC "-//W3C//DTD SVG 1.0//EN"
 "http://www.w3.org/TR/2001/REC-SVG-20010904/DTD/svg10.dtd" [
 <!ATTLIST svg xmlns:xlink CDATA #FIXED "http://www.w3.org/1999/xlink">
]>
<!-- Generated by Graphviz version 2.20.2 (Tue Mar &#160;2 19:03:41 UTC 2010)
     For user: (jenkins)  -->
<!-- Title: G Pages: 1 -->
<svg width="468pt" height="104pt"
 viewBox="0.00 0.00 468.00 104.00" xmlns="http://www.w3.org/2000/svg" xmlns:xlink="http://www.w3.org/1999/xlink">
<g id="graph0" class="graph" transform="scale(1 1) rotate(0) translate(4 100)">
<title>G</title>
<polygon style="fill:white;stroke:white;" points="-4,4 -4,-100 464,-100 464,4 -4,4"/>
<!-- Node1 -->
<g id="node1" class="node"><title>Node1</title>
<polygon style="fill:#bfbfbf;stroke:black;" points="131,-38 131,-58 268,-58 268,-38 131,-38"/>
<text text-anchor="middle" x="199" y="-45" style="font-family:Arial;font-size:10.00;">ltr::utility::NeighborWeighter</text>
</g>
<!-- Node4 -->
<g id="node7" class="node"><title>Node4</title>
<a xlink:href="classltr_1_1utility_1_1_inverse_linear_distance.html" target="_top" xlink:title="ltr::utility::InverseLinearDistance">
<polygon style="fill:white;stroke:black;" points="305,-76 305,-96 459,-96 459,-76 305,-76"/>
<text text-anchor="middle" x="382" y="-83" style="font-family:Arial;font-size:10.00;">ltr::utility::InverseLinearDistance</text>
</a>
</g>
<!-- Node1&#45;&gt;Node4 -->
<g id="edge6" class="edge"><title>Node1&#45;&gt;Node4</title>
<path style="fill:none;stroke:midnightblue;" d="M258,-60C283,-65 311,-71 335,-76"/>
<polygon style="fill:midnightblue;stroke:midnightblue;" points="258.492,-56.5292 248,-58 257.119,-63.3933 258.492,-56.5292"/>
</g>
<!-- Node5 -->
<g id="node9" class="node"><title>Node5</title>
<a xlink:href="classltr_1_1utility_1_1_inverse_order.html" target="_top" xlink:title="ltr::utility::InverseOrder">
<polygon style="fill:white;stroke:black;" points="325,-38 325,-58 439,-58 439,-38 325,-38"/>
<text text-anchor="middle" x="382" y="-45" style="font-family:Arial;font-size:10.00;">ltr::utility::InverseOrder</text>
</a>
</g>
<!-- Node1&#45;&gt;Node5 -->
<g id="edge8" class="edge"><title>Node1&#45;&gt;Node5</title>
<path style="fill:none;stroke:midnightblue;" d="M278,-48C294,-48 310,-48 325,-48"/>
<polygon style="fill:midnightblue;stroke:midnightblue;" points="278,-44.5001 268,-48 278,-51.5001 278,-44.5001"/>
</g>
<!-- Node6 -->
<g id="node11" class="node"><title>Node6</title>
<a xlink:href="classltr_1_1utility_1_1_inverse_power_distance.html" target="_top" xlink:title="ltr::utility::InversePowerDistance">
<polygon style="fill:white;stroke:black;" points="305,-0 305,-20 460,-20 460,-0 305,-0"/>
<text text-anchor="middle" x="382" y="-7" style="font-family:Arial;font-size:10.00;">ltr::utility::InversePowerDistance</text>
</a>
</g>
<!-- Node1&#45;&gt;Node6 -->
<g id="edge10" class="edge"><title>Node1&#45;&gt;Node6</title>
<path style="fill:none;stroke:midnightblue;" d="M258,-36C283,-31 311,-25 335,-20"/>
<polygon style="fill:midnightblue;stroke:midnightblue;" points="257.119,-32.6067 248,-38 258.492,-39.4708 257.119,-32.6067"/>
</g>
<!-- Node2 -->
<g id="node2" class="node"><title>Node2</title>
<a xlink:href="classltr_1_1_serializable.html" target="_top" xlink:title="The interface class for objects, that can be serialized. That means that a cpp code for those can be ...">
<polygon style="fill:white;stroke:black;" points="7,-57 7,-77 88,-77 88,-57 7,-57"/>
<text text-anchor="middle" x="47" y="-64" style="font-family:Arial;font-size:10.00;">ltr::Serializable</text>
</a>
</g>
<!-- Node2&#45;&gt;Node1 -->
<g id="edge2" class="edge"><title>Node2&#45;&gt;Node1</title>
<path style="fill:none;stroke:midnightblue;" d="M98,-61C108,-59 120,-58 131,-56"/>
<polygon style="fill:midnightblue;stroke:midnightblue;" points="97.6021,-57.5222 88,-62 98.2987,-64.4875 97.6021,-57.5222"/>
</g>
<!-- Node3 -->
<g id="node4" class="node"><title>Node3</title>
<a xlink:href="classltr_1_1_parameterized.html" target="_top" xlink:title="ltr::Parameterized">
<polygon style="fill:white;stroke:black;" points="1,-19 1,-39 94,-39 94,-19 1,-19"/>
<text text-anchor="middle" x="47" y="-26" style="font-family:Arial;font-size:10.00;">ltr::Parameterized</text>
</a>
</g>
<!-- Node3&#45;&gt;Node1 -->
<g id="edge4" class="edge"><title>Node3&#45;&gt;Node1</title>
<path style="fill:none;stroke:midnightblue;" d="M104,-36C113,-37 122,-38 131,-39"/>
<polygon style="fill:midnightblue;stroke:midnightblue;" points="104.299,-32.5125 94,-35 103.602,-39.4778 104.299,-32.5125"/>
</g>
</g>
</svg>
