<?xml version="1.0" encoding="UTF-8" standalone="no"?>
<!DOCTYPE svg PUBLIC "-//W3C//DTD SVG 1.0//EN"
 "http://www.w3.org/TR/2001/REC-SVG-20010904/DTD/svg10.dtd" [
 <!ATTLIST svg xmlns:xlink CDATA #FIXED "http://www.w3.org/1999/xlink">
]>
<!-- Generated by Graphviz version 2.20.2 (Tue Mar &#160;2 19:03:41 UTC 2010)
     For user: (jenkins)  -->
<!-- Title: G Pages: 1 -->
<svg width="512pt" height="218pt"
 viewBox="0.00 0.00 512.00 218.00" xmlns="http://www.w3.org/2000/svg" xmlns:xlink="http://www.w3.org/1999/xlink">
<g id="graph0" class="graph" transform="scale(1 1) rotate(0) translate(4 214)">
<title>G</title>
<polygon style="fill:white;stroke:white;" points="-4,4 -4,-214 508,-214 508,4 -4,4"/>
<!-- Node1 -->
<g id="node1" class="node"><title>Node1</title>
<polygon style="fill:#bfbfbf;stroke:black;" points="130,-95 130,-115 278,-115 278,-95 130,-95"/>
<text text-anchor="middle" x="204" y="-102" style="font-family:Arial;font-size:10.00;">ltr::gp::BasePopulationHandler</text>
</g>
<!-- Node3 -->
<g id="node5" class="node"><title>Node3</title>
<a xlink:href="classltr_1_1gp_1_1_crossover_adjacent_trees_strategy.html" target="_top" xlink:title="ltr::gp::CrossoverAdjacentTreesStrategy">
<polygon style="fill:white;stroke:black;" points="315,-190 315,-210 504,-210 504,-190 315,-190"/>
<text text-anchor="middle" x="409" y="-197" style="font-family:Arial;font-size:10.00;">ltr::gp::CrossoverAdjacentTreesStrategy</text>
</a>
</g>
<!-- Node1&#45;&gt;Node3 -->
<g id="edge4" class="edge"><title>Node1&#45;&gt;Node3</title>
<path style="fill:none;stroke:midnightblue;" d="M223,-122C244,-139 280,-166 314,-181 323,-185 333,-188 343,-190"/>
<polygon style="fill:midnightblue;stroke:midnightblue;" points="224.831,-118.951 215,-115 220.221,-124.219 224.831,-118.951"/>
</g>
<!-- Node4 -->
<g id="node7" class="node"><title>Node4</title>
<a xlink:href="classltr_1_1gp_1_1_default_crossover_strategy.html" target="_top" xlink:title="ltr::gp::DefaultCrossoverStrategy">
<polygon style="fill:white;stroke:black;" points="331,-152 331,-172 487,-172 487,-152 331,-152"/>
<text text-anchor="middle" x="409" y="-159" style="font-family:Arial;font-size:10.00;">ltr::gp::DefaultCrossoverStrategy</text>
</a>
</g>
<!-- Node1&#45;&gt;Node4 -->
<g id="edge6" class="edge"><title>Node1&#45;&gt;Node4</title>
<path style="fill:none;stroke:midnightblue;" d="M241,-118C262,-126 289,-136 314,-143 327,-146 340,-149 353,-152"/>
<polygon style="fill:midnightblue;stroke:midnightblue;" points="241.584,-114.521 231,-115 239.573,-121.226 241.584,-114.521"/>
</g>
<!-- Node5 -->
<g id="node9" class="node"><title>Node5</title>
<a xlink:href="classltr_1_1gp_1_1_default_mutation_standart_strategy.html" target="_top" xlink:title="ltr::gp::DefaultMutationStandartStrategy">
<polygon style="fill:white;stroke:black;" points="315,-114 315,-134 503,-134 503,-114 315,-114"/>
<text text-anchor="middle" x="409" y="-121" style="font-family:Arial;font-size:10.00;">ltr::gp::DefaultMutationStandartStrategy</text>
</a>
</g>
<!-- Node1&#45;&gt;Node5 -->
<g id="edge8" class="edge"><title>Node1&#45;&gt;Node5</title>
<path style="fill:none;stroke:midnightblue;" d="M288,-113C297,-114 306,-114 315,-115"/>
<polygon style="fill:midnightblue;stroke:midnightblue;" points="288.299,-109.512 278,-112 287.602,-116.478 288.299,-109.512"/>
</g>
<!-- Node6 -->
<g id="node11" class="node"><title>Node6</title>
<a xlink:href="classltr_1_1gp_1_1_default_mutation_swap_strategy.html" target="_top" xlink:title="ltr::gp::DefaultMutationSwapStrategy">
<polygon style="fill:white;stroke:black;" points="322,-76 322,-96 497,-96 497,-76 322,-76"/>
<text text-anchor="middle" x="409" y="-83" style="font-family:Arial;font-size:10.00;">ltr::gp::DefaultMutationSwapStrategy</text>
</a>
</g>
<!-- Node1&#45;&gt;Node6 -->
<g id="edge10" class="edge"><title>Node1&#45;&gt;Node6</title>
<path style="fill:none;stroke:midnightblue;" d="M288,-97C299,-96 311,-95 322,-94"/>
<polygon style="fill:midnightblue;stroke:midnightblue;" points="287.602,-93.5222 278,-98 288.299,-100.488 287.602,-93.5222"/>
</g>
<!-- Node7 -->
<g id="node13" class="node"><title>Node7</title>
<a xlink:href="classltr_1_1gp_1_1_default_selection_strategy.html" target="_top" xlink:title="ltr::gp::DefaultSelectionStrategy">
<polygon style="fill:white;stroke:black;" points="332,-38 332,-58 486,-58 486,-38 332,-38"/>
<text text-anchor="middle" x="409" y="-45" style="font-family:Arial;font-size:10.00;">ltr::gp::DefaultSelectionStrategy</text>
</a>
</g>
<!-- Node1&#45;&gt;Node7 -->
<g id="edge12" class="edge"><title>Node1&#45;&gt;Node7</title>
<path style="fill:none;stroke:midnightblue;" d="M241,-92C262,-84 289,-74 314,-67 327,-64 340,-61 353,-58"/>
<polygon style="fill:midnightblue;stroke:midnightblue;" points="239.573,-88.7741 231,-95 241.584,-95.4788 239.573,-88.7741"/>
</g>
<!-- Node8 -->
<g id="node15" class="node"><title>Node8</title>
<a xlink:href="classltr_1_1gp_1_1_select_top_trees_strategy.html" target="_top" xlink:title="ltr::gp::SelectTopTreesStrategy">
<polygon style="fill:white;stroke:black;" points="334,-0 334,-20 484,-20 484,-0 334,-0"/>
<text text-anchor="middle" x="409" y="-7" style="font-family:Arial;font-size:10.00;">ltr::gp::SelectTopTreesStrategy</text>
</a>
</g>
<!-- Node1&#45;&gt;Node8 -->
<g id="edge14" class="edge"><title>Node1&#45;&gt;Node8</title>
<path style="fill:none;stroke:midnightblue;" d="M223,-88C244,-71 280,-44 314,-29 323,-25 333,-22 343,-20"/>
<polygon style="fill:midnightblue;stroke:midnightblue;" points="220.221,-85.7809 215,-95 224.831,-91.0489 220.221,-85.7809"/>
</g>
<!-- Node2 -->
<g id="node2" class="node"><title>Node2</title>
<a xlink:href="classltr_1_1_parameterized.html" target="_top" xlink:title="ltr::Parameterized">
<polygon style="fill:white;stroke:black;" points="1,-95 1,-115 94,-115 94,-95 1,-95"/>
<text text-anchor="middle" x="47" y="-102" style="font-family:Arial;font-size:10.00;">ltr::Parameterized</text>
</a>
</g>
<!-- Node2&#45;&gt;Node1 -->
<g id="edge2" class="edge"><title>Node2&#45;&gt;Node1</title>
<path style="fill:none;stroke:midnightblue;" d="M104,-105C113,-105 122,-105 130,-105"/>
<polygon style="fill:midnightblue;stroke:midnightblue;" points="104,-101.5 94,-105 104,-108.5 104,-101.5"/>
</g>
</g>
</svg>
