<?xml version="1.0" encoding="UTF-8" standalone="no"?>
<!DOCTYPE svg PUBLIC "-//W3C//DTD SVG 1.0//EN"
 "http://www.w3.org/TR/2001/REC-SVG-20010904/DTD/svg10.dtd" [
 <!ATTLIST svg xmlns:xlink CDATA #FIXED "http://www.w3.org/1999/xlink">
]>
<!-- Generated by Graphviz version 2.20.2 (Tue Mar &#160;2 19:03:41 UTC 2010)
     For user: (jenkins)  -->
<!-- Title: G Pages: 1 -->
<svg width="264pt" height="218pt"
 viewBox="0.00 0.00 264.00 218.00" xmlns="http://www.w3.org/2000/svg" xmlns:xlink="http://www.w3.org/1999/xlink">
<g id="graph0" class="graph" transform="scale(1 1) rotate(0) translate(4 214)">
<title>G</title>
<polygon style="fill:white;stroke:white;" points="-4,4 -4,-214 260,-214 260,4 -4,4"/>
<!-- Node1 -->
<g id="node1" class="node"><title>Node1</title>
<polygon style="fill:#bfbfbf;stroke:black;" points="0,-95 0,-115 126,-115 126,-95 0,-95"/>
<text text-anchor="middle" x="63" y="-102" style="font-family:Arial;font-size:10.00;">ltr::gp::BaseGPOperation</text>
</g>
<!-- Node2 -->
<g id="node3" class="node"><title>Node2</title>
<a xlink:href="classltr_1_1gp_1_1_add.html" target="_top" xlink:title="The Puppy::Primitive implements addition functor, it is used to build Puppy::trees from...">
<polygon style="fill:white;stroke:black;" points="177,-190 177,-210 241,-210 241,-190 177,-190"/>
<text text-anchor="middle" x="209" y="-197" style="font-family:Arial;font-size:10.00;">ltr::gp::Add</text>
</a>
</g>
<!-- Node1&#45;&gt;Node2 -->
<g id="edge2" class="edge"><title>Node1&#45;&gt;Node2</title>
<path style="fill:none;stroke:midnightblue;" d="M82,-122C101,-138 132,-164 162,-181 168,-184 174,-187 181,-190"/>
<polygon style="fill:midnightblue;stroke:midnightblue;" points="83.8306,-118.951 74,-115 79.221,-124.219 83.8306,-118.951"/>
</g>
<!-- Node3 -->
<g id="node5" class="node"><title>Node3</title>
<a xlink:href="classltr_1_1gp_1_1_divide.html" target="_top" xlink:title="The Puppy::Primitive implements division functor, it is used to build Puppy::trees from...">
<polygon style="fill:white;stroke:black;" points="173,-152 173,-172 245,-172 245,-152 173,-152"/>
<text text-anchor="middle" x="209" y="-159" style="font-family:Arial;font-size:10.00;">ltr::gp::Divide</text>
</a>
</g>
<!-- Node1&#45;&gt;Node3 -->
<g id="edge4" class="edge"><title>Node1&#45;&gt;Node3</title>
<path style="fill:none;stroke:midnightblue;" d="M99,-119C125,-129 160,-142 184,-152"/>
<polygon style="fill:midnightblue;stroke:midnightblue;" points="99.5847,-115.464 89,-115 96.9849,-121.964 99.5847,-115.464"/>
</g>
<!-- Node4 -->
<g id="node7" class="node"><title>Node4</title>
<a xlink:href="classltr_1_1gp_1_1_ephemeral.html" target="_top" xlink:title="The Puppy::Primitive implements the functor, that gives random constants to build Puppy::Tree...">
<polygon style="fill:white;stroke:black;" points="163,-114 163,-134 256,-134 256,-114 163,-114"/>
<text text-anchor="middle" x="209" y="-121" style="font-family:Arial;font-size:10.00;">ltr::gp::Ephemeral</text>
</a>
</g>
<!-- Node1&#45;&gt;Node4 -->
<g id="edge6" class="edge"><title>Node1&#45;&gt;Node4</title>
<path style="fill:none;stroke:midnightblue;" d="M136,-114C145,-116 154,-117 163,-118"/>
<polygon style="fill:midnightblue;stroke:midnightblue;" points="136.299,-110.512 126,-113 135.602,-117.478 136.299,-110.512"/>
</g>
<!-- Node5 -->
<g id="node9" class="node"><title>Node5</title>
<a xlink:href="classltr_1_1gp_1_1_if_then_func.html" target="_top" xlink:title="The Puppy::Primitive implements if&#45;then&#45;else functor, it is used to build Puppy::trees from...">
<polygon style="fill:white;stroke:black;" points="162,-76 162,-96 256,-96 256,-76 162,-76"/>
<text text-anchor="middle" x="209" y="-83" style="font-family:Arial;font-size:10.00;">ltr::gp::IfThenFunc</text>
</a>
</g>
<!-- Node1&#45;&gt;Node5 -->
<g id="edge8" class="edge"><title>Node1&#45;&gt;Node5</title>
<path style="fill:none;stroke:midnightblue;" d="M136,-96C145,-94 153,-93 162,-92"/>
<polygon style="fill:midnightblue;stroke:midnightblue;" points="135.602,-92.5222 126,-97 136.299,-99.4875 135.602,-92.5222"/>
</g>
<!-- Node6 -->
<g id="node11" class="node"><title>Node6</title>
<a xlink:href="classltr_1_1gp_1_1_multiply.html" target="_top" xlink:title="The Puppy::Primitive implements multiplication functor, it is used to build Puppy::trees from...">
<polygon style="fill:white;stroke:black;" points="169,-38 169,-58 250,-58 250,-38 169,-38"/>
<text text-anchor="middle" x="209" y="-45" style="font-family:Arial;font-size:10.00;">ltr::gp::Multiply</text>
</a>
</g>
<!-- Node1&#45;&gt;Node6 -->
<g id="edge10" class="edge"><title>Node1&#45;&gt;Node6</title>
<path style="fill:none;stroke:midnightblue;" d="M99,-91C125,-81 160,-68 184,-58"/>
<polygon style="fill:midnightblue;stroke:midnightblue;" points="96.9849,-88.0364 89,-95 99.5847,-94.5357 96.9849,-88.0364"/>
</g>
<!-- Node7 -->
<g id="node13" class="node"><title>Node7</title>
<a xlink:href="classltr_1_1gp_1_1_subtract.html" target="_top" xlink:title="The Puppy::Primitive implements subtraction functor, it is used to build Puppy::trees from...">
<polygon style="fill:white;stroke:black;" points="167,-0 167,-20 251,-20 251,-0 167,-0"/>
<text text-anchor="middle" x="209" y="-7" style="font-family:Arial;font-size:10.00;">ltr::gp::Subtract</text>
</a>
</g>
<!-- Node1&#45;&gt;Node7 -->
<g id="edge12" class="edge"><title>Node1&#45;&gt;Node7</title>
<path style="fill:none;stroke:midnightblue;" d="M81,-88C100,-71 132,-46 162,-29 168,-26 174,-23 180,-20"/>
<polygon style="fill:midnightblue;stroke:midnightblue;" points="78.5962,-85.454 74,-95 83.546,-90.4038 78.5962,-85.454"/>
</g>
</g>
</svg>
