<?xml version="1.0" encoding="UTF-8" standalone="no"?>
<!DOCTYPE svg PUBLIC "-//W3C//DTD SVG 1.0//EN"
 "http://www.w3.org/TR/2001/REC-SVG-20010904/DTD/svg10.dtd" [
 <!ATTLIST svg xmlns:xlink CDATA #FIXED "http://www.w3.org/1999/xlink">
]>
<!-- Generated by Graphviz version 2.20.2 (Tue Mar &#160;2 19:03:41 UTC 2010)
     For user: (jenkins)  -->
<!-- Title: G Pages: 1 -->
<svg width="738pt" height="1130pt"
 viewBox="0.00 0.00 738.00 1130.00" xmlns="http://www.w3.org/2000/svg" xmlns:xlink="http://www.w3.org/1999/xlink">
<g id="graph0" class="graph" transform="scale(1 1) rotate(0) translate(4 1126)">
<title>G</title>
<polygon style="fill:white;stroke:white;" points="-4,4 -4,-1126 734,-1126 734,4 -4,4"/>
<!-- Node1 -->
<g id="node1" class="node"><title>Node1</title>
<polygon style="fill:#bfbfbf;stroke:black;" points="1,-684 1,-704 82,-704 82,-684 1,-684"/>
<text text-anchor="middle" x="41" y="-691" style="font-family:Arial;font-size:10.00;">ltr::Serializable</text>
</g>
<!-- Node2 -->
<g id="node3" class="node"><title>Node2</title>
<a xlink:href="classltr_1_1_base_metric.html" target="_top" xlink:title="ltr::BaseMetric">
<polygon style="fill:white;stroke:black;" points="165,-1064 165,-1084 245,-1084 245,-1064 165,-1064"/>
<text text-anchor="middle" x="205" y="-1071" style="font-family:Arial;font-size:10.00;">ltr::BaseMetric</text>
</a>
</g>
<!-- Node1&#45;&gt;Node2 -->
<g id="edge2" class="edge"><title>Node1&#45;&gt;Node2</title>
<path style="fill:none;stroke:midnightblue;" d="M43,-714C53,-777 83,-966 118,-1017 134,-1039 161,-1055 181,-1064"/>
<polygon style="fill:midnightblue;stroke:midnightblue;" points="46.4778,-713.602 42,-704 39.5125,-714.299 46.4778,-713.602"/>
</g>
<!-- Node5 -->
<g id="node9" class="node"><title>Node5</title>
<a xlink:href="classltr_1_1_base_probability_density_estimator.html" target="_top" xlink:title="Simple interface of the probability density estimator.">
<polygon style="fill:white;stroke:black;" points="118,-988 118,-1008 292,-1008 292,-988 118,-988"/>
<text text-anchor="middle" x="205" y="-995" style="font-family:Arial;font-size:10.00;">ltr::BaseProbabilityDensityEstimator</text>
</a>
</g>
<!-- Node1&#45;&gt;Node5 -->
<g id="edge8" class="edge"><title>Node1&#45;&gt;Node5</title>
<path style="fill:none;stroke:midnightblue;" d="M43,-714C48,-759 65,-869 118,-941 135,-962 162,-978 181,-988"/>
<polygon style="fill:midnightblue;stroke:midnightblue;" points="46.4778,-713.602 42,-704 39.5125,-714.299 46.4778,-713.602"/>
</g>
<!-- Node8 -->
<g id="node15" class="node"><title>Node8</title>
<a xlink:href="classltr_1_1decision__tree_1_1_condition.html" target="_top" xlink:title="ltr::decision_tree::Condition">
<polygon style="fill:white;stroke:black;" points="138,-912 138,-932 273,-932 273,-912 138,-912"/>
<text text-anchor="middle" x="205" y="-919" style="font-family:Arial;font-size:10.00;">ltr::decision_tree::Condition</text>
</a>
</g>
<!-- Node1&#45;&gt;Node8 -->
<g id="edge14" class="edge"><title>Node1&#45;&gt;Node8</title>
<path style="fill:none;stroke:midnightblue;" d="M50,-713C64,-740 91,-788 118,-827 143,-860 177,-895 194,-912"/>
<polygon style="fill:midnightblue;stroke:midnightblue;" points="53.2598,-711.717 46,-704 46.8631,-714.56 53.2598,-711.717"/>
</g>
<!-- Node11 -->
<g id="node21" class="node"><title>Node11</title>
<a xlink:href="classltr_1_1_feature_converter.html" target="_top" xlink:title="A base class for feature converters.">
<polygon style="fill:white;stroke:black;" points="153,-798 153,-818 257,-818 257,-798 153,-798"/>
<text text-anchor="middle" x="205" y="-805" style="font-family:Arial;font-size:10.00;">ltr::FeatureConverter</text>
</a>
</g>
<!-- Node1&#45;&gt;Node11 -->
<g id="edge20" class="edge"><title>Node1&#45;&gt;Node11</title>
<path style="fill:none;stroke:midnightblue;" d="M51,-713C64,-735 88,-770 118,-789 128,-795 141,-799 153,-802"/>
<polygon style="fill:midnightblue;stroke:midnightblue;" points="53.916,-711.042 46,-704 47.7969,-714.441 53.916,-711.042"/>
</g>
<!-- Node18 -->
<g id="node35" class="node"><title>Node18</title>
<a xlink:href="classltr_1_1gp_1_1_add.html" target="_top" xlink:title="The Puppy::Primitive implements addition functor, it is used to build Puppy::trees from...">
<polygon style="fill:white;stroke:black;" points="173,-760 173,-780 237,-780 237,-760 173,-760"/>
<text text-anchor="middle" x="205" y="-767" style="font-family:Arial;font-size:10.00;">ltr::gp::Add</text>
</a>
</g>
<!-- Node1&#45;&gt;Node18 -->
<g id="edge34" class="edge"><title>Node1&#45;&gt;Node18</title>
<path style="fill:none;stroke:midnightblue;" d="M60,-711C75,-724 96,-741 118,-751 136,-759 156,-763 173,-766"/>
<polygon style="fill:midnightblue;stroke:midnightblue;" points="61.8306,-707.951 52,-704 57.221,-713.219 61.8306,-707.951"/>
</g>
<!-- Node19 -->
<g id="node37" class="node"><title>Node19</title>
<a xlink:href="classltr_1_1gp_1_1_divide.html" target="_top" xlink:title="The Puppy::Primitive implements division functor, it is used to build Puppy::trees from...">
<polygon style="fill:white;stroke:black;" points="169,-722 169,-742 241,-742 241,-722 169,-722"/>
<text text-anchor="middle" x="205" y="-729" style="font-family:Arial;font-size:10.00;">ltr::gp::Divide</text>
</a>
</g>
<!-- Node1&#45;&gt;Node19 -->
<g id="edge36" class="edge"><title>Node1&#45;&gt;Node19</title>
<path style="fill:none;stroke:midnightblue;" d="M91,-706C100,-709 109,-711 118,-713 135,-716 153,-720 169,-724"/>
<polygon style="fill:midnightblue;stroke:midnightblue;" points="91.4922,-702.529 81,-704 90.1194,-709.393 91.4922,-702.529"/>
</g>
<!-- Node20 -->
<g id="node39" class="node"><title>Node20</title>
<a xlink:href="classltr_1_1gp_1_1_if_then_func.html" target="_top" xlink:title="The Puppy::Primitive implements if&#45;then&#45;else functor, it is used to build Puppy::trees from...">
<polygon style="fill:white;stroke:black;" points="158,-684 158,-704 252,-704 252,-684 158,-684"/>
<text text-anchor="middle" x="205" y="-691" style="font-family:Arial;font-size:10.00;">ltr::gp::IfThenFunc</text>
</a>
</g>
<!-- Node1&#45;&gt;Node20 -->
<g id="edge38" class="edge"><title>Node1&#45;&gt;Node20</title>
<path style="fill:none;stroke:midnightblue;" d="M92,-694C113,-694 137,-694 158,-694"/>
<polygon style="fill:midnightblue;stroke:midnightblue;" points="92,-690.5 82,-694 92,-697.5 92,-690.5"/>
</g>
<!-- Node21 -->
<g id="node41" class="node"><title>Node21</title>
<a xlink:href="classltr_1_1gp_1_1_multiply.html" target="_top" xlink:title="The Puppy::Primitive implements multiplication functor, it is used to build Puppy::trees from...">
<polygon style="fill:white;stroke:black;" points="165,-646 165,-666 246,-666 246,-646 165,-646"/>
<text text-anchor="middle" x="205" y="-653" style="font-family:Arial;font-size:10.00;">ltr::gp::Multiply</text>
</a>
</g>
<!-- Node1&#45;&gt;Node21 -->
<g id="edge40" class="edge"><title>Node1&#45;&gt;Node21</title>
<path style="fill:none;stroke:midnightblue;" d="M89,-682C98,-680 108,-677 118,-675 133,-671 150,-668 165,-665"/>
<polygon style="fill:midnightblue;stroke:midnightblue;" points="88.1194,-678.607 79,-684 89.4922,-685.471 88.1194,-678.607"/>
</g>
<!-- Node22 -->
<g id="node43" class="node"><title>Node22</title>
<a xlink:href="classltr_1_1gp_1_1_subtract.html" target="_top" xlink:title="The Puppy::Primitive implements subtraction functor, it is used to build Puppy::trees from...">
<polygon style="fill:white;stroke:black;" points="163,-608 163,-628 247,-628 247,-608 163,-608"/>
<text text-anchor="middle" x="205" y="-615" style="font-family:Arial;font-size:10.00;">ltr::gp::Subtract</text>
</a>
</g>
<!-- Node1&#45;&gt;Node22 -->
<g id="edge42" class="edge"><title>Node1&#45;&gt;Node22</title>
<path style="fill:none;stroke:midnightblue;" d="M60,-677C75,-664 96,-647 118,-637 132,-630 148,-626 163,-623"/>
<polygon style="fill:midnightblue;stroke:midnightblue;" points="57.221,-674.781 52,-684 61.8306,-680.049 57.221,-674.781"/>
</g>
<!-- Node23 -->
<g id="node45" class="node"><title>Node23</title>
<a xlink:href="classltr_1_1_predictions_aggregator.html" target="_top" xlink:title="ltr::PredictionsAggregator">
<polygon style="fill:white;stroke:black;" points="142,-570 142,-590 268,-590 268,-570 142,-570"/>
<text text-anchor="middle" x="205" y="-577" style="font-family:Arial;font-size:10.00;">ltr::PredictionsAggregator</text>
</a>
</g>
<!-- Node1&#45;&gt;Node23 -->
<g id="edge44" class="edge"><title>Node1&#45;&gt;Node23</title>
<path style="fill:none;stroke:midnightblue;" d="M51,-675C64,-653 88,-617 118,-599 125,-594 133,-591 142,-588"/>
<polygon style="fill:midnightblue;stroke:midnightblue;" points="47.7969,-673.559 46,-684 53.916,-676.958 47.7969,-673.559"/>
</g>
<!-- Node29 -->
<g id="node57" class="node"><title>Node29</title>
<a xlink:href="classltr_1_1_serializable_functor.html" target="_top" xlink:title="ltr::SerializableFunctor\&lt; TValue \&gt;">
<polygon style="fill:white;stroke:black;" points="125,-532 125,-552 286,-552 286,-532 125,-532"/>
<text text-anchor="middle" x="205" y="-539" style="font-family:Arial;font-size:10.00;">ltr::SerializableFunctor&lt; TValue &gt;</text>
</a>
</g>
<!-- Node1&#45;&gt;Node29 -->
<g id="edge56" class="edge"><title>Node1&#45;&gt;Node29</title>
<path style="fill:none;stroke:midnightblue;" d="M47,-674C56,-644 79,-590 118,-561 123,-557 128,-555 134,-552"/>
<polygon style="fill:midnightblue;stroke:midnightblue;" points="43.5212,-673.416 44,-684 50.2259,-675.427 43.5212,-673.416"/>
</g>
<!-- Node30 -->
<g id="node59" class="node"><title>Node30</title>
<a xlink:href="classltr_1_1utility_1_1_neighbor_weighter.html" target="_top" xlink:title="ltr::utility::NeighborWeighter">
<polygon style="fill:white;stroke:black;" points="137,-437 137,-457 274,-457 274,-437 137,-437"/>
<text text-anchor="middle" x="205" y="-444" style="font-family:Arial;font-size:10.00;">ltr::utility::NeighborWeighter</text>
</a>
</g>
<!-- Node1&#45;&gt;Node30 -->
<g id="edge58" class="edge"><title>Node1&#45;&gt;Node30</title>
<path style="fill:none;stroke:midnightblue;" d="M47,-674C57,-641 82,-572 118,-523 139,-495 171,-470 190,-457"/>
<polygon style="fill:midnightblue;stroke:midnightblue;" points="43.5212,-673.416 44,-684 50.2259,-675.427 43.5212,-673.416"/>
</g>
<!-- Node34 -->
<g id="node67" class="node"><title>Node34</title>
<a xlink:href="classltr_1_1_serializable_functor.html" target="_top" xlink:title="ltr::SerializableFunctor\&lt; double \&gt;">
<polygon style="fill:white;stroke:black;" points="125,-323 125,-343 285,-343 285,-323 125,-323"/>
<text text-anchor="middle" x="205" y="-330" style="font-family:Arial;font-size:10.00;">ltr::SerializableFunctor&lt; double &gt;</text>
</a>
</g>
<!-- Node1&#45;&gt;Node34 -->
<g id="edge66" class="edge"><title>Node1&#45;&gt;Node34</title>
<path style="fill:none;stroke:midnightblue;" d="M43,-674C50,-628 71,-512 118,-428 139,-392 174,-359 193,-343"/>
<polygon style="fill:midnightblue;stroke:midnightblue;" points="39.5125,-673.701 42,-684 46.4778,-674.398 39.5125,-673.701"/>
</g>
<!-- Node3 -->
<g id="node5" class="node"><title>Node3</title>
<a xlink:href="classltr_1_1_euclidean_metric.html" target="_top" xlink:title="ltr::EuclideanMetric">
<polygon style="fill:white;stroke:black;" points="371,-1102 371,-1122 471,-1122 471,-1102 371,-1102"/>
<text text-anchor="middle" x="421" y="-1109" style="font-family:Arial;font-size:10.00;">ltr::EuclideanMetric</text>
</a>
</g>
<!-- Node2&#45;&gt;Node3 -->
<g id="edge4" class="edge"><title>Node2&#45;&gt;Node3</title>
<path style="fill:none;stroke:midnightblue;" d="M255,-1083C290,-1089 336,-1097 371,-1103"/>
<polygon style="fill:midnightblue;stroke:midnightblue;" points="255.492,-1079.53 245,-1081 254.119,-1086.39 255.492,-1079.53"/>
</g>
<!-- Node4 -->
<g id="node7" class="node"><title>Node4</title>
<a xlink:href="classltr_1_1_manhattan_metric.html" target="_top" xlink:title="ltr::ManhattanMetric">
<polygon style="fill:white;stroke:black;" points="370,-1064 370,-1084 473,-1084 473,-1064 370,-1064"/>
<text text-anchor="middle" x="421" y="-1071" style="font-family:Arial;font-size:10.00;">ltr::ManhattanMetric</text>
</a>
</g>
<!-- Node2&#45;&gt;Node4 -->
<g id="edge6" class="edge"><title>Node2&#45;&gt;Node4</title>
<path style="fill:none;stroke:midnightblue;" d="M255,-1074C290,-1074 336,-1074 370,-1074"/>
<polygon style="fill:midnightblue;stroke:midnightblue;" points="255,-1070.5 245,-1074 255,-1077.5 255,-1070.5"/>
</g>
<!-- Node6 -->
<g id="node11" class="node"><title>Node6</title>
<a xlink:href="classltr_1_1_fisher_discriminant.html" target="_top" xlink:title="probability density estimator that uses Fisher Linear Discriminant approach">
<polygon style="fill:white;stroke:black;" points="366,-1026 366,-1046 477,-1046 477,-1026 366,-1026"/>
<text text-anchor="middle" x="421" y="-1033" style="font-family:Arial;font-size:10.00;">ltr::FisherDiscriminant</text>
</a>
</g>
<!-- Node5&#45;&gt;Node6 -->
<g id="edge10" class="edge"><title>Node5&#45;&gt;Node6</title>
<path style="fill:none;stroke:midnightblue;" d="M272,-1010C302,-1015 337,-1022 366,-1026"/>
<polygon style="fill:midnightblue;stroke:midnightblue;" points="272.492,-1006.53 262,-1008 271.119,-1013.39 272.492,-1006.53"/>
</g>
<!-- Node7 -->
<g id="node13" class="node"><title>Node7</title>
<a xlink:href="classltr_1_1_non_linear_discriminant.html" target="_top" xlink:title="probability density estimator that cannot be represented as linear separator">
<polygon style="fill:white;stroke:black;" points="357,-988 357,-1008 485,-1008 485,-988 357,-988"/>
<text text-anchor="middle" x="421" y="-995" style="font-family:Arial;font-size:10.00;">ltr::NonLinearDiscriminant</text>
</a>
</g>
<!-- Node5&#45;&gt;Node7 -->
<g id="edge12" class="edge"><title>Node5&#45;&gt;Node7</title>
<path style="fill:none;stroke:midnightblue;" d="M302,-998C321,-998 340,-998 357,-998"/>
<polygon style="fill:midnightblue;stroke:midnightblue;" points="302,-994.5 292,-998 302,-1001.5 302,-994.5"/>
</g>
<!-- Node9 -->
<g id="node17" class="node"><title>Node9</title>
<a xlink:href="classltr_1_1decision__tree_1_1_fake_condition.html" target="_top" xlink:title="ltr::decision_tree::FakeCondition">
<polygon style="fill:white;stroke:black;" points="343,-950 343,-970 499,-970 499,-950 343,-950"/>
<text text-anchor="middle" x="421" y="-957" style="font-family:Arial;font-size:10.00;">ltr::decision_tree::FakeCondition</text>
</a>
</g>
<!-- Node8&#45;&gt;Node9 -->
<g id="edge16" class="edge"><title>Node8&#45;&gt;Node9</title>
<path style="fill:none;stroke:midnightblue;" d="M272,-934C302,-938 336,-945 365,-950"/>
<polygon style="fill:midnightblue;stroke:midnightblue;" points="272.492,-930.529 262,-932 271.119,-937.393 272.492,-930.529"/>
</g>
<!-- Node10 -->
<g id="node19" class="node"><title>Node10</title>
<a xlink:href="classltr_1_1decision__tree_1_1_threshold_condition.html" target="_top" xlink:title="ltr::decision_tree::ThresholdCondition">
<polygon style="fill:white;stroke:black;" points="333,-912 333,-932 510,-932 510,-912 333,-912"/>
<text text-anchor="middle" x="421" y="-919" style="font-family:Arial;font-size:10.00;">ltr::decision_tree::ThresholdCondition</text>
</a>
</g>
<!-- Node8&#45;&gt;Node10 -->
<g id="edge18" class="edge"><title>Node8&#45;&gt;Node10</title>
<path style="fill:none;stroke:midnightblue;" d="M283,-922C300,-922 317,-922 333,-922"/>
<polygon style="fill:midnightblue;stroke:midnightblue;" points="283,-918.5 273,-922 283,-925.5 283,-918.5"/>
</g>
<!-- Node12 -->
<g id="node23" class="node"><title>Node12</title>
<a xlink:href="classltr_1_1_fake_feature_converter.html" target="_top" xlink:title="ltr::FakeFeatureConverter">
<polygon style="fill:white;stroke:black;" points="358,-874 358,-894 484,-894 484,-874 358,-874"/>
<text text-anchor="middle" x="421" y="-881" style="font-family:Arial;font-size:10.00;">ltr::FakeFeatureConverter</text>
</a>
</g>
<!-- Node11&#45;&gt;Node12 -->
<g id="edge22" class="edge"><title>Node11&#45;&gt;Node12</title>
<path style="fill:none;stroke:midnightblue;" d="M232,-823C257,-836 294,-854 328,-865 339,-868 351,-871 362,-874"/>
<polygon style="fill:midnightblue;stroke:midnightblue;" points="233.441,-819.797 223,-818 230.042,-825.916 233.441,-819.797"/>
</g>
<!-- Node13 -->
<g id="node25" class="node"><title>Node13</title>
<a xlink:href="classltr_1_1_feature_sampler.html" target="_top" xlink:title="Samples features with specified indices.">
<polygon style="fill:white;stroke:black;" points="372,-836 372,-856 471,-856 471,-836 372,-836"/>
<text text-anchor="middle" x="421" y="-843" style="font-family:Arial;font-size:10.00;">ltr::FeatureSampler</text>
</a>
</g>
<!-- Node11&#45;&gt;Node13 -->
<g id="edge24" class="edge"><title>Node11&#45;&gt;Node13</title>
<path style="fill:none;stroke:midnightblue;" d="M267,-819C300,-824 340,-832 372,-837"/>
<polygon style="fill:midnightblue;stroke:midnightblue;" points="267.492,-815.529 257,-817 266.119,-822.393 267.492,-815.529"/>
</g>
<!-- Node14 -->
<g id="node27" class="node"><title>Node14</title>
<a xlink:href="classltr_1_1_nan_to_neutral_converter.html" target="_top" xlink:title="ltr::NanToNeutralConverter">
<polygon style="fill:white;stroke:black;" points="357,-798 357,-818 486,-818 486,-798 357,-798"/>
<text text-anchor="middle" x="421" y="-805" style="font-family:Arial;font-size:10.00;">ltr::NanToNeutralConverter</text>
</a>
</g>
<!-- Node11&#45;&gt;Node14 -->
<g id="edge26" class="edge"><title>Node11&#45;&gt;Node14</title>
<path style="fill:none;stroke:midnightblue;" d="M267,-808C295,-808 328,-808 357,-808"/>
<polygon style="fill:midnightblue;stroke:midnightblue;" points="267,-804.5 257,-808 267,-811.5 267,-804.5"/>
</g>
<!-- Node15 -->
<g id="node29" class="node"><title>Node15</title>
<a xlink:href="classltr_1_1_nominal_to_bool_converter.html" target="_top" xlink:title="Converts nominal features to boolean.">
<polygon style="fill:white;stroke:black;" points="354,-760 354,-780 489,-780 489,-760 354,-760"/>
<text text-anchor="middle" x="421" y="-767" style="font-family:Arial;font-size:10.00;">ltr::NominalToBoolConverter</text>
</a>
</g>
<!-- Node11&#45;&gt;Node15 -->
<g id="edge28" class="edge"><title>Node11&#45;&gt;Node15</title>
<path style="fill:none;stroke:midnightblue;" d="M267,-797C298,-792 335,-785 365,-780"/>
<polygon style="fill:midnightblue;stroke:midnightblue;" points="266.119,-793.607 257,-799 267.492,-800.471 266.119,-793.607"/>
</g>
<!-- Node16 -->
<g id="node31" class="node"><title>Node16</title>
<a xlink:href="classltr_1_1_per_feature_linear_converter.html" target="_top" xlink:title="Perform linear transformation of each feature.">
<polygon style="fill:white;stroke:black;" points="349,-722 349,-742 494,-742 494,-722 349,-722"/>
<text text-anchor="middle" x="421" y="-729" style="font-family:Arial;font-size:10.00;">ltr::PerFeatureLinearConverter</text>
</a>
</g>
<!-- Node11&#45;&gt;Node16 -->
<g id="edge30" class="edge"><title>Node11&#45;&gt;Node16</title>
<path style="fill:none;stroke:midnightblue;" d="M267,-799C276,-797 285,-793 292,-789 313,-777 308,-762 328,-751 335,-747 342,-744 349,-742"/>
<polygon style="fill:midnightblue;stroke:midnightblue;" points="265.573,-795.774 257,-802 267.584,-802.479 265.573,-795.774"/>
</g>
<!-- Node17 -->
<g id="node33" class="node"><title>Node17</title>
<a xlink:href="classltr_1_1_remove_nominal_converter.html" target="_top" xlink:title="Remove all nominal features.">
<polygon style="fill:white;stroke:black;" points="351,-684 351,-704 492,-704 492,-684 351,-684"/>
<text text-anchor="middle" x="421" y="-691" style="font-family:Arial;font-size:10.00;">ltr::RemoveNominalConverter</text>
</a>
</g>
<!-- Node11&#45;&gt;Node17 -->
<g id="edge32" class="edge"><title>Node11&#45;&gt;Node17</title>
<path style="fill:none;stroke:midnightblue;" d="M267,-802C276,-799 285,-795 292,-789 322,-765 299,-736 328,-713 335,-708 343,-704 351,-701"/>
<polygon style="fill:midnightblue;stroke:midnightblue;" points="266.119,-798.607 257,-804 267.492,-805.471 266.119,-798.607"/>
</g>
<!-- Node24 -->
<g id="node47" class="node"><title>Node24</title>
<a xlink:href="classltr_1_1_average_predictions_aggregator.html" target="_top" xlink:title="ltr::AveragePredictionsAggregator">
<polygon style="fill:white;stroke:black;" points="341,-646 341,-666 502,-666 502,-646 341,-646"/>
<text text-anchor="middle" x="421" y="-653" style="font-family:Arial;font-size:10.00;">ltr::AveragePredictionsAggregator</text>
</a>
</g>
<!-- Node23&#45;&gt;Node24 -->
<g id="edge46" class="edge"><title>Node23&#45;&gt;Node24</title>
<path style="fill:none;stroke:midnightblue;" d="M278,-592C283,-594 288,-597 292,-599 313,-610 308,-625 328,-637 335,-641 342,-644 349,-646"/>
<polygon style="fill:midnightblue;stroke:midnightblue;" points="278.584,-588.521 268,-589 276.573,-595.226 278.584,-588.521"/>
</g>
<!-- Node25 -->
<g id="node49" class="node"><title>Node25</title>
<a xlink:href="classltr_1_1_max_weight_predictions_aggregator.html" target="_top" xlink:title="ltr::MaxWeightPredictionsAggregator">
<polygon style="fill:white;stroke:black;" points="333,-608 333,-628 509,-628 509,-608 333,-608"/>
<text text-anchor="middle" x="421" y="-615" style="font-family:Arial;font-size:10.00;">ltr::MaxWeightPredictionsAggregator</text>
</a>
</g>
<!-- Node23&#45;&gt;Node25 -->
<g id="edge48" class="edge"><title>Node23&#45;&gt;Node25</title>
<path style="fill:none;stroke:midnightblue;" d="M272,-592C302,-596 336,-603 365,-608"/>
<polygon style="fill:midnightblue;stroke:midnightblue;" points="272.492,-588.529 262,-590 271.119,-595.393 272.492,-588.529"/>
</g>
<!-- Node26 -->
<g id="node51" class="node"><title>Node26</title>
<a xlink:href="classltr_1_1_order_statistic_predictions_aggregator.html" target="_top" xlink:title="ltr::OrderStatisticPredictionsAggregator">
<polygon style="fill:white;stroke:black;" points="328,-570 328,-590 514,-590 514,-570 328,-570"/>
<text text-anchor="middle" x="421" y="-577" style="font-family:Arial;font-size:10.00;">ltr::OrderStatisticPredictionsAggregator</text>
</a>
</g>
<!-- Node23&#45;&gt;Node26 -->
<g id="edge50" class="edge"><title>Node23&#45;&gt;Node26</title>
<path style="fill:none;stroke:midnightblue;" d="M278,-580C295,-580 312,-580 328,-580"/>
<polygon style="fill:midnightblue;stroke:midnightblue;" points="278,-576.5 268,-580 278,-583.5 278,-576.5"/>
</g>
<!-- Node27 -->
<g id="node53" class="node"><title>Node27</title>
<a xlink:href="classltr_1_1_sum_predictions_aggregator.html" target="_top" xlink:title="ltr::SumPredictionsAggregator">
<polygon style="fill:white;stroke:black;" points="348,-532 348,-552 495,-552 495,-532 348,-532"/>
<text text-anchor="middle" x="421" y="-539" style="font-family:Arial;font-size:10.00;">ltr::SumPredictionsAggregator</text>
</a>
</g>
<!-- Node23&#45;&gt;Node27 -->
<g id="edge52" class="edge"><title>Node23&#45;&gt;Node27</title>
<path style="fill:none;stroke:midnightblue;" d="M272,-568C302,-564 336,-557 365,-552"/>
<polygon style="fill:midnightblue;stroke:midnightblue;" points="271.119,-564.607 262,-570 272.492,-571.471 271.119,-564.607"/>
</g>
<!-- Node28 -->
<g id="node55" class="node"><title>Node28</title>
<a xlink:href="classltr_1_1_vote_predictions_aggregator.html" target="_top" xlink:title="ltr::VotePredictionsAggregator">
<polygon style="fill:white;stroke:black;" points="348,-494 348,-514 494,-514 494,-494 348,-494"/>
<text text-anchor="middle" x="421" y="-501" style="font-family:Arial;font-size:10.00;">ltr::VotePredictionsAggregator</text>
</a>
</g>
<!-- Node23&#45;&gt;Node28 -->
<g id="edge54" class="edge"><title>Node23&#45;&gt;Node28</title>
<path style="fill:none;stroke:midnightblue;" d="M278,-568C283,-566 288,-564 292,-561 313,-549 308,-534 328,-523 334,-519 341,-516 348,-514"/>
<polygon style="fill:midnightblue;stroke:midnightblue;" points="276.573,-564.774 268,-571 278.584,-571.479 276.573,-564.774"/>
</g>
<!-- Node31 -->
<g id="node61" class="node"><title>Node31</title>
<a xlink:href="classltr_1_1utility_1_1_inverse_linear_distance.html" target="_top" xlink:title="ltr::utility::InverseLinearDistance">
<polygon style="fill:white;stroke:black;" points="344,-456 344,-476 498,-476 498,-456 344,-456"/>
<text text-anchor="middle" x="421" y="-463" style="font-family:Arial;font-size:10.00;">ltr::utility::InverseLinearDistance</text>
</a>
</g>
<!-- Node30&#45;&gt;Node31 -->
<g id="edge60" class="edge"><title>Node30&#45;&gt;Node31</title>
<path style="fill:none;stroke:midnightblue;" d="M284,-454C303,-456 324,-457 344,-459"/>
<polygon style="fill:midnightblue;stroke:midnightblue;" points="284.299,-450.512 274,-453 283.602,-457.478 284.299,-450.512"/>
</g>
<!-- Node32 -->
<g id="node63" class="node"><title>Node32</title>
<a xlink:href="classltr_1_1utility_1_1_inverse_order.html" target="_top" xlink:title="ltr::utility::InverseOrder">
<polygon style="fill:white;stroke:black;" points="364,-418 364,-438 478,-438 478,-418 364,-418"/>
<text text-anchor="middle" x="421" y="-425" style="font-family:Arial;font-size:10.00;">ltr::utility::InverseOrder</text>
</a>
</g>
<!-- Node30&#45;&gt;Node32 -->
<g id="edge62" class="edge"><title>Node30&#45;&gt;Node32</title>
<path style="fill:none;stroke:midnightblue;" d="M284,-440C310,-437 339,-435 364,-433"/>
<polygon style="fill:midnightblue;stroke:midnightblue;" points="283.602,-436.522 274,-441 284.299,-443.488 283.602,-436.522"/>
</g>
<!-- Node33 -->
<g id="node65" class="node"><title>Node33</title>
<a xlink:href="classltr_1_1utility_1_1_inverse_power_distance.html" target="_top" xlink:title="ltr::utility::InversePowerDistance">
<polygon style="fill:white;stroke:black;" points="344,-380 344,-400 499,-400 499,-380 344,-380"/>
<text text-anchor="middle" x="421" y="-387" style="font-family:Arial;font-size:10.00;">ltr::utility::InversePowerDistance</text>
</a>
</g>
<!-- Node30&#45;&gt;Node33 -->
<g id="edge64" class="edge"><title>Node30&#45;&gt;Node33</title>
<path style="fill:none;stroke:midnightblue;" d="M245,-434C269,-426 300,-416 328,-409 340,-406 354,-403 366,-400"/>
<polygon style="fill:midnightblue;stroke:midnightblue;" points="243.573,-430.774 235,-437 245.584,-437.479 243.573,-430.774"/>
</g>
<!-- Node35 -->
<g id="node69" class="node"><title>Node35</title>
<a xlink:href="classltr_1_1decision__tree_1_1_decision_tree.html" target="_top" xlink:title="ltr::decision_tree::DecisionTree">
<polygon style="fill:white;stroke:black;" points="346,-342 346,-362 496,-362 496,-342 346,-342"/>
<text text-anchor="middle" x="421" y="-349" style="font-family:Arial;font-size:10.00;">ltr::decision_tree::DecisionTree</text>
</a>
</g>
<!-- Node34&#45;&gt;Node35 -->
<g id="edge68" class="edge"><title>Node34&#45;&gt;Node35</title>
<path style="fill:none;stroke:midnightblue;" d="M295,-341C312,-342 329,-343 346,-345"/>
<polygon style="fill:midnightblue;stroke:midnightblue;" points="295.299,-337.512 285,-340 294.602,-344.478 295.299,-337.512"/>
</g>
<!-- Node36 -->
<g id="node71" class="node"><title>Node36</title>
<a xlink:href="classltr_1_1decision__tree_1_1_vertex.html" target="_top" xlink:title="ltr::decision_tree::Vertex">
<polygon style="fill:white;stroke:black;" points="360,-304 360,-324 482,-324 482,-304 360,-304"/>
<text text-anchor="middle" x="421" y="-311" style="font-family:Arial;font-size:10.00;">ltr::decision_tree::Vertex</text>
</a>
</g>
<!-- Node34&#45;&gt;Node36 -->
<g id="edge70" class="edge"><title>Node34&#45;&gt;Node36</title>
<path style="fill:none;stroke:midnightblue;" d="M295,-325C317,-323 340,-322 360,-320"/>
<polygon style="fill:midnightblue;stroke:midnightblue;" points="294.602,-321.522 285,-326 295.299,-328.488 294.602,-321.522"/>
</g>
<!-- Node39 -->
<g id="node77" class="node"><title>Node39</title>
<a xlink:href="classltr_1_1_scorer.html" target="_top" xlink:title="ltr::Scorer">
<polygon style="fill:white;stroke:black;" points="392,-152 392,-172 451,-172 451,-152 392,-152"/>
<text text-anchor="middle" x="421" y="-159" style="font-family:Arial;font-size:10.00;">ltr::Scorer</text>
</a>
</g>
<!-- Node34&#45;&gt;Node39 -->
<g id="edge76" class="edge"><title>Node34&#45;&gt;Node39</title>
<path style="fill:none;stroke:midnightblue;" d="M226,-317C270,-281 372,-200 408,-172"/>
<polygon style="fill:midnightblue;stroke:midnightblue;" points="223.9,-314.2 218,-323 228.1,-319.8 223.9,-314.2"/>
</g>
<!-- Node37 -->
<g id="node73" class="node"><title>Node37</title>
<a xlink:href="classltr_1_1decision__tree_1_1_decision_vertex.html" target="_top" xlink:title="ltr::decision_tree::DecisionVertex">
<polygon style="fill:white;stroke:black;" points="561,-342 561,-362 720,-362 720,-342 561,-342"/>
<text text-anchor="middle" x="640" y="-349" style="font-family:Arial;font-size:10.00;">ltr::decision_tree::DecisionVertex</text>
</a>
</g>
<!-- Node36&#45;&gt;Node37 -->
<g id="edge72" class="edge"><title>Node36&#45;&gt;Node37</title>
<path style="fill:none;stroke:midnightblue;" d="M489,-326C519,-330 554,-337 583,-342"/>
<polygon style="fill:midnightblue;stroke:midnightblue;" points="489.492,-322.529 479,-324 488.119,-329.393 489.492,-322.529"/>
</g>
<!-- Node38 -->
<g id="node75" class="node"><title>Node38</title>
<a xlink:href="classltr_1_1decision__tree_1_1_leaf_vertex.html" target="_top" xlink:title="ltr::decision_tree::LeafVertex">
<polygon style="fill:white;stroke:black;" points="570,-304 570,-324 710,-324 710,-304 570,-304"/>
<text text-anchor="middle" x="640" y="-311" style="font-family:Arial;font-size:10.00;">ltr::decision_tree::LeafVertex</text>
</a>
</g>
<!-- Node36&#45;&gt;Node38 -->
<g id="edge74" class="edge"><title>Node36&#45;&gt;Node38</title>
<path style="fill:none;stroke:midnightblue;" d="M492,-314C517,-314 545,-314 570,-314"/>
<polygon style="fill:midnightblue;stroke:midnightblue;" points="492,-310.5 482,-314 492,-317.5 492,-310.5"/>
</g>
<!-- Node40 -->
<g id="node79" class="node"><title>Node40</title>
<a xlink:href="classltr_1_1_bayesian_scorer.html" target="_top" xlink:title="ltr::BayesianScorer">
<polygon style="fill:white;stroke:black;" points="591,-266 591,-286 690,-286 690,-266 591,-266"/>
<text text-anchor="middle" x="640" y="-273" style="font-family:Arial;font-size:10.00;">ltr::BayesianScorer</text>
</a>
</g>
<!-- Node39&#45;&gt;Node40 -->
<g id="edge78" class="edge"><title>Node39&#45;&gt;Node40</title>
<path style="fill:none;stroke:midnightblue;" d="M440,-179C463,-200 506,-237 550,-257 563,-262 577,-266 591,-269"/>
<polygon style="fill:midnightblue;stroke:midnightblue;" points="441.831,-175.951 432,-172 437.221,-181.219 441.831,-175.951"/>
</g>
<!-- Node41 -->
<g id="node81" class="node"><title>Node41</title>
<a xlink:href="classltr_1_1composition_1_1_composition_scorer.html" target="_top" xlink:title="ltr::composition::CompositionScorer">
<polygon style="fill:white;stroke:black;" points="555,-228 555,-248 726,-248 726,-228 555,-228"/>
<text text-anchor="middle" x="640" y="-235" style="font-family:Arial;font-size:10.00;">ltr::composition::CompositionScorer</text>
</a>
</g>
<!-- Node39&#45;&gt;Node41 -->
<g id="edge80" class="edge"><title>Node39&#45;&gt;Node41</title>
<path style="fill:none;stroke:midnightblue;" d="M450,-176C476,-189 515,-207 550,-219 561,-222 573,-225 585,-228"/>
<polygon style="fill:midnightblue;stroke:midnightblue;" points="451.56,-172.863 441,-172 448.717,-179.26 451.56,-172.863"/>
</g>
<!-- Node42 -->
<g id="node83" class="node"><title>Node42</title>
<a xlink:href="classltr_1_1decision__tree_1_1_decision_tree_scorer.html" target="_top" xlink:title="ltr::decision_tree::DecisionTreeScorer">
<polygon style="fill:white;stroke:black;" points="551,-190 551,-210 730,-210 730,-190 551,-190"/>
<text text-anchor="middle" x="640" y="-197" style="font-family:Arial;font-size:10.00;">ltr::decision_tree::DecisionTreeScorer</text>
</a>
</g>
<!-- Node39&#45;&gt;Node42 -->
<g id="edge82" class="edge"><title>Node39&#45;&gt;Node42</title>
<path style="fill:none;stroke:midnightblue;" d="M461,-169C495,-175 544,-184 582,-190"/>
<polygon style="fill:midnightblue;stroke:midnightblue;" points="461.492,-165.529 451,-167 460.119,-172.393 461.492,-165.529"/>
</g>
<!-- Node43 -->
<g id="node85" class="node"><title>Node43</title>
<a xlink:href="classltr_1_1_fake_scorer.html" target="_top" xlink:title="ltr::FakeScorer">
<polygon style="fill:white;stroke:black;" points="600,-152 600,-172 681,-172 681,-152 600,-152"/>
<text text-anchor="middle" x="640" y="-159" style="font-family:Arial;font-size:10.00;">ltr::FakeScorer</text>
</a>
</g>
<!-- Node39&#45;&gt;Node43 -->
<g id="edge84" class="edge"><title>Node39&#45;&gt;Node43</title>
<path style="fill:none;stroke:midnightblue;" d="M461,-162C501,-162 561,-162 600,-162"/>
<polygon style="fill:midnightblue;stroke:midnightblue;" points="461,-158.5 451,-162 461,-165.5 461,-158.5"/>
</g>
<!-- Node44 -->
<g id="node87" class="node"><title>Node44</title>
<a xlink:href="classltr_1_1gp_1_1_g_p_scorer.html" target="_top" xlink:title="The class prepresent Scorer for GPLearner. It contains the last population of genetic programming&amp;#39...">
<polygon style="fill:white;stroke:black;" points="595,-114 595,-134 685,-134 685,-114 595,-114"/>
<text text-anchor="middle" x="640" y="-121" style="font-family:Arial;font-size:10.00;">ltr::gp::GPScorer</text>
</a>
</g>
<!-- Node39&#45;&gt;Node44 -->
<g id="edge86" class="edge"><title>Node39&#45;&gt;Node44</title>
<path style="fill:none;stroke:midnightblue;" d="M461,-155C500,-148 556,-138 595,-132"/>
<polygon style="fill:midnightblue;stroke:midnightblue;" points="460.119,-151.607 451,-157 461.492,-158.471 460.119,-151.607"/>
</g>
<!-- Node45 -->
<g id="node89" class="node"><title>Node45</title>
<a xlink:href="classltr_1_1_linear_scorer.html" target="_top" xlink:title="ltr::LinearScorer">
<polygon style="fill:white;stroke:black;" points="598,-76 598,-96 683,-96 683,-76 598,-76"/>
<text text-anchor="middle" x="640" y="-83" style="font-family:Arial;font-size:10.00;">ltr::LinearScorer</text>
</a>
</g>
<!-- Node39&#45;&gt;Node45 -->
<g id="edge88" class="edge"><title>Node39&#45;&gt;Node45</title>
<path style="fill:none;stroke:midnightblue;" d="M449,-147C475,-134 515,-117 550,-105 565,-100 583,-96 598,-93"/>
<polygon style="fill:midnightblue;stroke:midnightblue;" points="447.042,-144.084 440,-152 450.441,-150.203 447.042,-144.084"/>
</g>
<!-- Node46 -->
<g id="node91" class="node"><title>Node46</title>
<a xlink:href="classltr_1_1_n_n_scorer.html" target="_top" xlink:title="The class prepresents Scorer for NNLearner. It contains the learning data set, pointers to aggregator...">
<polygon style="fill:white;stroke:black;" points="604,-38 604,-58 676,-58 676,-38 604,-38"/>
<text text-anchor="middle" x="640" y="-45" style="font-family:Arial;font-size:10.00;">ltr::NNScorer</text>
</a>
</g>
<!-- Node39&#45;&gt;Node46 -->
<g id="edge90" class="edge"><title>Node39&#45;&gt;Node46</title>
<path style="fill:none;stroke:midnightblue;" d="M439,-145C462,-123 506,-87 550,-67 567,-59 587,-55 604,-52"/>
<polygon style="fill:midnightblue;stroke:midnightblue;" points="436.596,-142.454 432,-152 441.546,-147.404 436.596,-142.454"/>
</g>
<!-- Node47 -->
<g id="node93" class="node"><title>Node47</title>
<a xlink:href="classltr_1_1_one_feature_scorer.html" target="_top" xlink:title="ltr::OneFeatureScorer">
<polygon style="fill:white;stroke:black;" points="585,-0 585,-20 695,-20 695,-0 585,-0"/>
<text text-anchor="middle" x="640" y="-7" style="font-family:Arial;font-size:10.00;">ltr::OneFeatureScorer</text>
</a>
</g>
<!-- Node39&#45;&gt;Node47 -->
<g id="edge92" class="edge"><title>Node39&#45;&gt;Node47</title>
<path style="fill:none;stroke:midnightblue;" d="M433,-144C453,-114 498,-57 550,-29 561,-23 573,-19 585,-17"/>
<polygon style="fill:midnightblue;stroke:midnightblue;" points="430.2,-141.9 427,-152 435.8,-146.1 430.2,-141.9"/>
</g>
</g>
</svg>
