<?xml version="1.0" encoding="UTF-8" standalone="no"?>
<!DOCTYPE svg PUBLIC "-//W3C//DTD SVG 1.0//EN"
 "http://www.w3.org/TR/2001/REC-SVG-20010904/DTD/svg10.dtd" [
 <!ATTLIST svg xmlns:xlink CDATA #FIXED "http://www.w3.org/1999/xlink">
]>
<!-- Generated by Graphviz version 2.20.2 (Tue Mar &#160;2 19:03:41 UTC 2010)
     For user: (jenkins)  -->
<!-- Title: G Pages: 1 -->
<svg width="494pt" height="408pt"
 viewBox="0.00 0.00 494.00 408.00" xmlns="http://www.w3.org/2000/svg" xmlns:xlink="http://www.w3.org/1999/xlink">
<g id="graph0" class="graph" transform="scale(1 1) rotate(0) translate(4 404)">
<title>G</title>
<polygon style="fill:white;stroke:white;" points="-4,4 -4,-404 490,-404 490,4 -4,4"/>
<!-- Node1 -->
<g id="node1" class="node"><title>Node1</title>
<polygon style="fill:#bfbfbf;stroke:black;" points="131,-190 131,-210 258,-210 258,-190 131,-190"/>
<text text-anchor="middle" x="194" y="-197" style="font-family:Arial;font-size:10.00;">ltr::Measure&lt; TElement &gt;</text>
</g>
<!-- Node5 -->
<g id="node9" class="node"><title>Node5</title>
<a xlink:href="classltr_1_1_abs_error.html" target="_top" xlink:title="ltr::AbsError\&lt; Object \&gt;">
<polygon style="fill:white;stroke:black;" points="333,-380 333,-400 448,-400 448,-380 333,-380"/>
<text text-anchor="middle" x="390" y="-387" style="font-family:Arial;font-size:10.00;">ltr::AbsError&lt; Object &gt;</text>
</a>
</g>
<!-- Node1&#45;&gt;Node5 -->
<g id="edge8" class="edge"><title>Node1&#45;&gt;Node5</title>
<path style="fill:none;stroke:midnightblue;" d="M200,-220C211,-256 241,-332 294,-371 305,-379 319,-384 333,-387"/>
<polygon style="fill:midnightblue;stroke:midnightblue;" points="203.226,-218.573 197,-210 196.521,-220.584 203.226,-218.573"/>
</g>
<!-- Node6 -->
<g id="node11" class="node"><title>Node6</title>
<a xlink:href="classltr_1_1_accuracy.html" target="_top" xlink:title="ltr::Accuracy\&lt; TElement \&gt;">
<polygon style="fill:white;stroke:black;" points="325,-342 325,-362 456,-362 456,-342 325,-342"/>
<text text-anchor="middle" x="390" y="-349" style="font-family:Arial;font-size:10.00;">ltr::Accuracy&lt; TElement &gt;</text>
</a>
</g>
<!-- Node1&#45;&gt;Node6 -->
<g id="edge10" class="edge"><title>Node1&#45;&gt;Node6</title>
<path style="fill:none;stroke:midnightblue;" d="M203,-219C218,-249 250,-304 294,-333 303,-339 314,-343 325,-346"/>
<polygon style="fill:midnightblue;stroke:midnightblue;" points="206.26,-217.717 199,-210 199.863,-220.56 206.26,-217.717"/>
</g>
<!-- Node7 -->
<g id="node13" class="node"><title>Node7</title>
<a xlink:href="classltr_1_1_a_u_c.html" target="_top" xlink:title="ltr::AUC\&lt; Object \&gt;">
<polygon style="fill:white;stroke:black;" points="342,-304 342,-324 439,-324 439,-304 342,-304"/>
<text text-anchor="middle" x="390" y="-311" style="font-family:Arial;font-size:10.00;">ltr::AUC&lt; Object &gt;</text>
</a>
</g>
<!-- Node1&#45;&gt;Node7 -->
<g id="edge12" class="edge"><title>Node1&#45;&gt;Node7</title>
<path style="fill:none;stroke:midnightblue;" d="M208,-218C226,-240 258,-276 294,-295 309,-302 326,-307 342,-309"/>
<polygon style="fill:midnightblue;stroke:midnightblue;" points="210.8,-215.9 202,-210 205.2,-220.1 210.8,-215.9"/>
</g>
<!-- Node8 -->
<g id="node15" class="node"><title>Node8</title>
<a xlink:href="classltr_1_1_average_precision.html" target="_top" xlink:title="ltr::AveragePrecision\&lt; ObjectList \&gt;">
<polygon style="fill:white;stroke:black;" points="306,-266 306,-286 474,-286 474,-266 306,-266"/>
<text text-anchor="middle" x="390" y="-273" style="font-family:Arial;font-size:10.00;">ltr::AveragePrecision&lt; ObjectList &gt;</text>
</a>
</g>
<!-- Node1&#45;&gt;Node8 -->
<g id="edge14" class="edge"><title>Node1&#45;&gt;Node8</title>
<path style="fill:none;stroke:midnightblue;" d="M216,-216C236,-229 266,-247 294,-257 304,-261 314,-264 325,-266"/>
<polygon style="fill:midnightblue;stroke:midnightblue;" points="218.1,-213.2 208,-210 213.9,-218.8 218.1,-213.2"/>
</g>
<!-- Node9 -->
<g id="node17" class="node"><title>Node9</title>
<a xlink:href="classltr_1_1_base_d_c_g.html" target="_top" xlink:title="ltr::BaseDCG\&lt; ObjectList \&gt;">
<polygon style="fill:white;stroke:black;" points="322,-228 322,-248 458,-248 458,-228 322,-228"/>
<text text-anchor="middle" x="390" y="-235" style="font-family:Arial;font-size:10.00;">ltr::BaseDCG&lt; ObjectList &gt;</text>
</a>
</g>
<!-- Node1&#45;&gt;Node9 -->
<g id="edge16" class="edge"><title>Node1&#45;&gt;Node9</title>
<path style="fill:none;stroke:midnightblue;" d="M256,-212C283,-217 313,-223 339,-228"/>
<polygon style="fill:midnightblue;stroke:midnightblue;" points="256.492,-208.529 246,-210 255.119,-215.393 256.492,-208.529"/>
</g>
<!-- Node10 -->
<g id="node19" class="node"><title>Node10</title>
<a xlink:href="classltr_1_1_base_n_d_c_g.html" target="_top" xlink:title="ltr::BaseNDCG\&lt; ObjectList \&gt;">
<polygon style="fill:white;stroke:black;" points="319,-190 319,-210 462,-210 462,-190 319,-190"/>
<text text-anchor="middle" x="390" y="-197" style="font-family:Arial;font-size:10.00;">ltr::BaseNDCG&lt; ObjectList &gt;</text>
</a>
</g>
<!-- Node1&#45;&gt;Node10 -->
<g id="edge18" class="edge"><title>Node1&#45;&gt;Node10</title>
<path style="fill:none;stroke:midnightblue;" d="M268,-200C285,-200 302,-200 319,-200"/>
<polygon style="fill:midnightblue;stroke:midnightblue;" points="268,-196.5 258,-200 268,-203.5 268,-196.5"/>
</g>
<!-- Node11 -->
<g id="node21" class="node"><title>Node11</title>
<a xlink:href="classltr_1_1_binary_classification_margin.html" target="_top" xlink:title="ltr::BinaryClassificationMargin\&lt; Object \&gt;">
<polygon style="fill:white;stroke:black;" points="294,-152 294,-172 486,-172 486,-152 294,-152"/>
<text text-anchor="middle" x="390" y="-159" style="font-family:Arial;font-size:10.00;">ltr::BinaryClassificationMargin&lt; Object &gt;</text>
</a>
</g>
<!-- Node1&#45;&gt;Node11 -->
<g id="edge20" class="edge"><title>Node1&#45;&gt;Node11</title>
<path style="fill:none;stroke:midnightblue;" d="M256,-188C283,-183 313,-177 339,-172"/>
<polygon style="fill:midnightblue;stroke:midnightblue;" points="255.119,-184.607 246,-190 256.492,-191.471 255.119,-184.607"/>
</g>
<!-- Node12 -->
<g id="node23" class="node"><title>Node12</title>
<a xlink:href="classltr_1_1_g_m_r_r.html" target="_top" xlink:title="ltr::GMRR\&lt; ObjectList \&gt;">
<polygon style="fill:white;stroke:black;" points="329,-114 329,-134 451,-134 451,-114 329,-114"/>
<text text-anchor="middle" x="390" y="-121" style="font-family:Arial;font-size:10.00;">ltr::GMRR&lt; ObjectList &gt;</text>
</a>
</g>
<!-- Node1&#45;&gt;Node12 -->
<g id="edge22" class="edge"><title>Node1&#45;&gt;Node12</title>
<path style="fill:none;stroke:midnightblue;" d="M216,-184C236,-171 266,-153 294,-143 305,-139 317,-136 329,-133"/>
<polygon style="fill:midnightblue;stroke:midnightblue;" points="213.9,-181.2 208,-190 218.1,-186.8 213.9,-181.2"/>
</g>
<!-- Node13 -->
<g id="node25" class="node"><title>Node13</title>
<a xlink:href="classltr_1_1_normalized_measure.html" target="_top" xlink:title="ltr::NormalizedMeasure\&lt; TElement \&gt;">
<polygon style="fill:white;stroke:black;" points="302,-76 302,-96 478,-96 478,-76 302,-76"/>
<text text-anchor="middle" x="390" y="-83" style="font-family:Arial;font-size:10.00;">ltr::NormalizedMeasure&lt; TElement &gt;</text>
</a>
</g>
<!-- Node1&#45;&gt;Node13 -->
<g id="edge24" class="edge"><title>Node1&#45;&gt;Node13</title>
<path style="fill:none;stroke:midnightblue;" d="M208,-182C226,-160 258,-124 294,-105 301,-101 310,-98 318,-96"/>
<polygon style="fill:midnightblue;stroke:midnightblue;" points="205.2,-179.9 202,-190 210.8,-184.1 205.2,-179.9"/>
</g>
<!-- Node14 -->
<g id="node27" class="node"><title>Node14</title>
<a xlink:href="classltr_1_1_p_found.html" target="_top" xlink:title="ltr::PFound\&lt; ObjectList \&gt;">
<polygon style="fill:white;stroke:black;" points="327,-38 327,-58 453,-58 453,-38 327,-38"/>
<text text-anchor="middle" x="390" y="-45" style="font-family:Arial;font-size:10.00;">ltr::PFound&lt; ObjectList &gt;</text>
</a>
</g>
<!-- Node1&#45;&gt;Node14 -->
<g id="edge26" class="edge"><title>Node1&#45;&gt;Node14</title>
<path style="fill:none;stroke:midnightblue;" d="M203,-181C218,-151 250,-96 294,-67 304,-61 315,-57 327,-54"/>
<polygon style="fill:midnightblue;stroke:midnightblue;" points="199.863,-179.44 199,-190 206.26,-182.283 199.863,-179.44"/>
</g>
<!-- Node15 -->
<g id="node29" class="node"><title>Node15</title>
<a xlink:href="classltr_1_1_reciprocal_rank.html" target="_top" xlink:title="ltr::ReciprocalRank\&lt; ObjectList \&gt;">
<polygon style="fill:white;stroke:black;" points="310,-0 310,-20 471,-20 471,-0 310,-0"/>
<text text-anchor="middle" x="390" y="-7" style="font-family:Arial;font-size:10.00;">ltr::ReciprocalRank&lt; ObjectList &gt;</text>
</a>
</g>
<!-- Node1&#45;&gt;Node15 -->
<g id="edge28" class="edge"><title>Node1&#45;&gt;Node15</title>
<path style="fill:none;stroke:midnightblue;" d="M200,-180C211,-144 241,-68 294,-29 299,-25 305,-23 310,-20"/>
<polygon style="fill:midnightblue;stroke:midnightblue;" points="196.521,-179.416 197,-190 203.226,-181.427 196.521,-179.416"/>
</g>
<!-- Node2 -->
<g id="node2" class="node"><title>Node2</title>
<a xlink:href="classltr_1_1_aliaser.html" target="_top" xlink:title="Inherit from this class in order to use alias.">
<polygon style="fill:white;stroke:black;" points="17,-228 17,-248 77,-248 77,-228 17,-228"/>
<text text-anchor="middle" x="47" y="-235" style="font-family:Arial;font-size:10.00;">ltr::Aliaser</text>
</a>
</g>
<!-- Node2&#45;&gt;Node1 -->
<g id="edge2" class="edge"><title>Node2&#45;&gt;Node1</title>
<path style="fill:none;stroke:midnightblue;" d="M87,-227C108,-222 134,-215 155,-210"/>
<polygon style="fill:midnightblue;stroke:midnightblue;" points="85.5725,-223.774 77,-230 87.584,-230.479 85.5725,-223.774"/>
</g>
<!-- Node3 -->
<g id="node4" class="node"><title>Node3</title>
<a xlink:href="classltr_1_1_parameterized.html" target="_top" xlink:title="ltr::Parameterized">
<polygon style="fill:white;stroke:black;" points="1,-190 1,-210 94,-210 94,-190 1,-190"/>
<text text-anchor="middle" x="47" y="-197" style="font-family:Arial;font-size:10.00;">ltr::Parameterized</text>
</a>
</g>
<!-- Node3&#45;&gt;Node1 -->
<g id="edge4" class="edge"><title>Node3&#45;&gt;Node1</title>
<path style="fill:none;stroke:midnightblue;" d="M104,-200C113,-200 122,-200 131,-200"/>
<polygon style="fill:midnightblue;stroke:midnightblue;" points="104,-196.5 94,-200 104,-203.5 104,-196.5"/>
</g>
<!-- Node4 -->
<g id="node6" class="node"><title>Node4</title>
<a xlink:href="classltr_1_1_printable.html" target="_top" xlink:title="ltr::Printable">
<polygon style="fill:white;stroke:black;" points="13,-152 13,-172 82,-172 82,-152 13,-152"/>
<text text-anchor="middle" x="47" y="-159" style="font-family:Arial;font-size:10.00;">ltr::Printable</text>
</a>
</g>
<!-- Node4&#45;&gt;Node1 -->
<g id="edge6" class="edge"><title>Node4&#45;&gt;Node1</title>
<path style="fill:none;stroke:midnightblue;" d="M92,-174C112,-179 136,-185 156,-190"/>
<polygon style="fill:midnightblue;stroke:midnightblue;" points="92.584,-170.521 82,-171 90.5725,-177.226 92.584,-170.521"/>
</g>
</g>
</svg>
