<?xml version="1.0" encoding="UTF-8" standalone="no"?>
<!DOCTYPE svg PUBLIC "-//W3C//DTD SVG 1.0//EN"
 "http://www.w3.org/TR/2001/REC-SVG-20010904/DTD/svg10.dtd" [
 <!ATTLIST svg xmlns:xlink CDATA #FIXED "http://www.w3.org/1999/xlink">
]>
<!-- Generated by Graphviz version 2.20.2 (Tue Mar &#160;2 19:03:41 UTC 2010)
     For user: (jenkins)  -->
<!-- Title: G Pages: 1 -->
<svg width="346pt" height="196pt"
 viewBox="0.00 0.00 346.00 196.00" xmlns="http://www.w3.org/2000/svg" xmlns:xlink="http://www.w3.org/1999/xlink">
<g id="graph0" class="graph" transform="scale(1 1) rotate(0) translate(4 192)">
<title>G</title>
<polygon style="fill:white;stroke:white;" points="-4,4 -4,-192 342,-192 342,4 -4,4"/>
<!-- Node1 -->
<g id="node1" class="node"><title>Node1</title>
<polygon style="fill:#bfbfbf;stroke:black;" points="69,-0 69,-20 270,-20 270,-0 69,-0"/>
<text text-anchor="middle" x="169" y="-7" style="font-family:Arial;font-size:10.00;">ltr::FeatureNormalizerLearner&lt; TElement &gt;</text>
</g>
<!-- Node2 -->
<g id="node2" class="node"><title>Node2</title>
<a xlink:href="classltr_1_1_base_feature_converter_learner.html" target="_top" xlink:title="ltr::BaseFeatureConverterLearner\&lt; TElement, PerFeatureLinearConverter \&gt;">
<polygon style="fill:white;stroke:black;" points="0,-56 0,-76 339,-76 339,-56 0,-56"/>
<text text-anchor="middle" x="169" y="-63" style="font-family:Arial;font-size:10.00;">ltr::BaseFeatureConverterLearner&lt; TElement, PerFeatureLinearConverter &gt;</text>
</a>
</g>
<!-- Node2&#45;&gt;Node1 -->
<g id="edge2" class="edge"><title>Node2&#45;&gt;Node1</title>
<path style="fill:none;stroke:midnightblue;" d="M169,-46C169,-37 169,-28 169,-20"/>
<polygon style="fill:midnightblue;stroke:midnightblue;" points="165.5,-46 169,-56 172.5,-46 165.5,-46"/>
</g>
<!-- Node3 -->
<g id="node4" class="node"><title>Node3</title>
<a xlink:href="classltr_1_1_feature_converter_learner.html" target="_top" xlink:title="Learns input dataset and produces a FeatureConverter.">
<polygon style="fill:white;stroke:black;" points="72,-112 72,-132 267,-132 267,-112 72,-112"/>
<text text-anchor="middle" x="169" y="-119" style="font-family:Arial;font-size:10.00;">ltr::FeatureConverterLearner&lt; TElement &gt;</text>
</a>
</g>
<!-- Node3&#45;&gt;Node2 -->
<g id="edge4" class="edge"><title>Node3&#45;&gt;Node2</title>
<path style="fill:none;stroke:midnightblue;" d="M169,-102C169,-93 169,-84 169,-76"/>
<polygon style="fill:midnightblue;stroke:midnightblue;" points="165.5,-102 169,-112 172.5,-102 165.5,-102"/>
</g>
<!-- Node4 -->
<g id="node6" class="node"><title>Node4</title>
<a xlink:href="classltr_1_1_parameterized.html" target="_top" xlink:title="ltr::Parameterized">
<polygon style="fill:white;stroke:black;" points="25,-168 25,-188 118,-188 118,-168 25,-168"/>
<text text-anchor="middle" x="71" y="-175" style="font-family:Arial;font-size:10.00;">ltr::Parameterized</text>
</a>
</g>
<!-- Node4&#45;&gt;Node3 -->
<g id="edge6" class="edge"><title>Node4&#45;&gt;Node3</title>
<path style="fill:none;stroke:midnightblue;" d="M98,-163C115,-153 137,-140 151,-132"/>
<polygon style="fill:midnightblue;stroke:midnightblue;" points="96.0418,-160.084 89,-168 99.4414,-166.203 96.0418,-160.084"/>
</g>
<!-- Node5 -->
<g id="node8" class="node"><title>Node5</title>
<a xlink:href="classltr_1_1_printable.html" target="_top" xlink:title="ltr::Printable">
<polygon style="fill:white;stroke:black;" points="135,-168 135,-188 204,-188 204,-168 135,-168"/>
<text text-anchor="middle" x="169" y="-175" style="font-family:Arial;font-size:10.00;">ltr::Printable</text>
</a>
</g>
<!-- Node5&#45;&gt;Node3 -->
<g id="edge8" class="edge"><title>Node5&#45;&gt;Node3</title>
<path style="fill:none;stroke:midnightblue;" d="M169,-158C169,-149 169,-140 169,-132"/>
<polygon style="fill:midnightblue;stroke:midnightblue;" points="165.5,-158 169,-168 172.5,-158 165.5,-158"/>
</g>
<!-- Node6 -->
<g id="node10" class="node"><title>Node6</title>
<a xlink:href="classltr_1_1_aliaser.html" target="_top" xlink:title="Inherit from this class in order to use alias.">
<polygon style="fill:white;stroke:black;" points="221,-168 221,-188 281,-188 281,-168 221,-168"/>
<text text-anchor="middle" x="251" y="-175" style="font-family:Arial;font-size:10.00;">ltr::Aliaser</text>
</a>
</g>
<!-- Node6&#45;&gt;Node3 -->
<g id="edge10" class="edge"><title>Node6&#45;&gt;Node3</title>
<path style="fill:none;stroke:midnightblue;" d="M228,-162C214,-152 196,-140 184,-132"/>
<polygon style="fill:midnightblue;stroke:midnightblue;" points="225.9,-164.8 236,-168 230.1,-159.2 225.9,-164.8"/>
</g>
</g>
</svg>
