<?xml version="1.0" encoding="UTF-8" standalone="no"?>
<!DOCTYPE svg PUBLIC "-//W3C//DTD SVG 1.0//EN"
 "http://www.w3.org/TR/2001/REC-SVG-20010904/DTD/svg10.dtd" [
 <!ATTLIST svg xmlns:xlink CDATA #FIXED "http://www.w3.org/1999/xlink">
]>
<!-- Generated by Graphviz version 2.20.2 (Tue Mar &#160;2 19:03:41 UTC 2010)
     For user: (jenkins)  -->
<!-- Title: G Pages: 1 -->
<svg width="1180pt" height="446pt"
 viewBox="0.00 0.00 1180.00 446.00" xmlns="http://www.w3.org/2000/svg" xmlns:xlink="http://www.w3.org/1999/xlink">
<g id="graph0" class="graph" transform="scale(1 1) rotate(0) translate(4 442)">
<title>G</title>
<polygon style="fill:white;stroke:white;" points="-4,4 -4,-442 1176,-442 1176,4 -4,4"/>
<!-- Node1 -->
<g id="node1" class="node"><title>Node1</title>
<polygon style="fill:#bfbfbf;stroke:black;" points="1,-266 1,-286 68,-286 68,-266 1,-266"/>
<text text-anchor="middle" x="34" y="-273" style="font-family:Arial;font-size:10.00;">ltr::Reporter</text>
</g>
<!-- Node2 -->
<g id="node3" class="node"><title>Node2</title>
<a xlink:href="classltr_1_1_learner.html" target="_top" xlink:title="ltr::Learner\&lt; Object \&gt;">
<polygon style="fill:white;stroke:black;" points="115,-380 115,-400 224,-400 224,-380 115,-380"/>
<text text-anchor="middle" x="169" y="-387" style="font-family:Arial;font-size:10.00;">ltr::Learner&lt; Object &gt;</text>
</a>
</g>
<!-- Node1&#45;&gt;Node2 -->
<g id="edge2" class="edge"><title>Node1&#45;&gt;Node2</title>
<path style="fill:none;stroke:midnightblue;" d="M54,-293C82,-317 133,-360 157,-380"/>
<polygon style="fill:midnightblue;stroke:midnightblue;" points="55.8306,-289.951 46,-286 51.221,-295.219 55.8306,-289.951"/>
</g>
<!-- Node8 -->
<g id="node15" class="node"><title>Node8</title>
<a xlink:href="classltr_1_1_learner.html" target="_top" xlink:title="ltr::Learner\&lt; ObjectType \&gt;">
<polygon style="fill:white;stroke:black;" points="105,-266 105,-286 234,-286 234,-266 105,-266"/>
<text text-anchor="middle" x="169" y="-273" style="font-family:Arial;font-size:10.00;">ltr::Learner&lt; ObjectType &gt;</text>
</a>
</g>
<!-- Node1&#45;&gt;Node8 -->
<g id="edge14" class="edge"><title>Node1&#45;&gt;Node8</title>
<path style="fill:none;stroke:midnightblue;" d="M78,-276C87,-276 96,-276 105,-276"/>
<polygon style="fill:midnightblue;stroke:midnightblue;" points="78,-272.5 68,-276 78,-279.5 78,-272.5"/>
</g>
<!-- Node9 -->
<g id="node17" class="node"><title>Node9</title>
<a xlink:href="classltr_1_1_learner.html" target="_top" xlink:title="Learns input dataset and produces a Scorer.">
<polygon style="fill:white;stroke:black;" points="108,-133 108,-153 230,-153 230,-133 108,-133"/>
<text text-anchor="middle" x="169" y="-140" style="font-family:Arial;font-size:10.00;">ltr::Learner&lt; TElement &gt;</text>
</a>
</g>
<!-- Node1&#45;&gt;Node9 -->
<g id="edge16" class="edge"><title>Node1&#45;&gt;Node9</title>
<path style="fill:none;stroke:midnightblue;" d="M52,-259C81,-230 136,-176 159,-153"/>
<polygon style="fill:midnightblue;stroke:midnightblue;" points="49.5962,-256.454 45,-266 54.546,-261.404 49.5962,-256.454"/>
</g>
<!-- Node3 -->
<g id="node5" class="node"><title>Node3</title>
<a xlink:href="classltr_1_1_base_learner.html" target="_top" xlink:title="ltr::BaseLearner\&lt; Object, CompositionScorer \&gt;">
<polygon style="fill:white;stroke:black;" points="271,-418 271,-438 491,-438 491,-418 271,-418"/>
<text text-anchor="middle" x="381" y="-425" style="font-family:Arial;font-size:10.00;">ltr::BaseLearner&lt; Object, CompositionScorer &gt;</text>
</a>
</g>
<!-- Node2&#45;&gt;Node3 -->
<g id="edge4" class="edge"><title>Node2&#45;&gt;Node3</title>
<path style="fill:none;stroke:midnightblue;" d="M234,-402C246,-404 258,-407 270,-409 288,-412 307,-415 324,-418"/>
<polygon style="fill:midnightblue;stroke:midnightblue;" points="234.492,-398.529 224,-400 233.119,-405.393 234.492,-398.529"/>
</g>
<!-- Node6 -->
<g id="node11" class="node"><title>Node6</title>
<a xlink:href="classltr_1_1_base_learner.html" target="_top" xlink:title="ltr::BaseLearner\&lt; Object, DecisionTreeScorer \&gt;">
<polygon style="fill:white;stroke:black;" points="270,-380 270,-400 492,-400 492,-380 270,-380"/>
<text text-anchor="middle" x="381" y="-387" style="font-family:Arial;font-size:10.00;">ltr::BaseLearner&lt; Object, DecisionTreeScorer &gt;</text>
</a>
</g>
<!-- Node2&#45;&gt;Node6 -->
<g id="edge10" class="edge"><title>Node2&#45;&gt;Node6</title>
<path style="fill:none;stroke:midnightblue;" d="M234,-390C245,-390 258,-390 270,-390"/>
<polygon style="fill:midnightblue;stroke:midnightblue;" points="234,-386.5 224,-390 234,-393.5 234,-386.5"/>
</g>
<!-- Node4 -->
<g id="node7" class="node"><title>Node4</title>
<a xlink:href="classltr_1_1composition_1_1_composition_learner.html" target="_top" xlink:title="ltr::composition::CompositionLearner\&lt; Object \&gt;">
<polygon style="fill:white;stroke:black;" points="612,-418 612,-438 834,-438 834,-418 612,-418"/>
<text text-anchor="middle" x="723" y="-425" style="font-family:Arial;font-size:10.00;">ltr::composition::CompositionLearner&lt; Object &gt;</text>
</a>
</g>
<!-- Node3&#45;&gt;Node4 -->
<g id="edge6" class="edge"><title>Node3&#45;&gt;Node4</title>
<path style="fill:none;stroke:midnightblue;" d="M501,-428C537,-428 576,-428 612,-428"/>
<polygon style="fill:midnightblue;stroke:midnightblue;" points="501,-424.5 491,-428 501,-431.5 501,-424.5"/>
</g>
<!-- Node5 -->
<g id="node9" class="node"><title>Node5</title>
<a xlink:href="classltr_1_1composition_1_1_ada_boost_learner.html" target="_top" xlink:title="ltr::composition::AdaBoostLearner">
<polygon style="fill:white;stroke:black;" points="981,-418 981,-438 1145,-438 1145,-418 981,-418"/>
<text text-anchor="middle" x="1063" y="-425" style="font-family:Arial;font-size:10.00;">ltr::composition::AdaBoostLearner</text>
</a>
</g>
<!-- Node4&#45;&gt;Node5 -->
<g id="edge8" class="edge"><title>Node4&#45;&gt;Node5</title>
<path style="fill:none;stroke:midnightblue;" d="M844,-428C890,-428 940,-428 981,-428"/>
<polygon style="fill:midnightblue;stroke:midnightblue;" points="844,-424.5 834,-428 844,-431.5 844,-424.5"/>
</g>
<!-- Node7 -->
<g id="node13" class="node"><title>Node7</title>
<a xlink:href="classltr_1_1decision__tree_1_1_decision_tree_learner.html" target="_top" xlink:title="DecisionTreeLearner Builds decision tree for given data.">
<polygon style="fill:white;stroke:black;" points="632,-380 632,-400 815,-400 815,-380 632,-380"/>
<text text-anchor="middle" x="723" y="-387" style="font-family:Arial;font-size:10.00;">ltr::decision_tree::DecisionTreeLearner</text>
</a>
</g>
<!-- Node6&#45;&gt;Node7 -->
<g id="edge12" class="edge"><title>Node6&#45;&gt;Node7</title>
<path style="fill:none;stroke:midnightblue;" d="M502,-390C545,-390 592,-390 632,-390"/>
<polygon style="fill:midnightblue;stroke:midnightblue;" points="502,-386.5 492,-390 502,-393.5 502,-386.5"/>
</g>
<!-- Node10 -->
<g id="node19" class="node"><title>Node10</title>
<a xlink:href="classltr_1_1_base_learner.html" target="_top" xlink:title="BaseLearner\&lt; TElement, BayesianScorer \&gt;">
<polygon style="fill:white;stroke:black;" points="279,-266 279,-286 484,-286 484,-266 279,-266"/>
<text text-anchor="middle" x="381" y="-273" style="font-family:Arial;font-size:10.00;">BaseLearner&lt; TElement, BayesianScorer &gt;</text>
</a>
</g>
<!-- Node9&#45;&gt;Node10 -->
<g id="edge18" class="edge"><title>Node9&#45;&gt;Node10</title>
<path style="fill:none;stroke:midnightblue;" d="M189,-160C209,-176 241,-201 270,-219 299,-238 335,-255 358,-266"/>
<polygon style="fill:midnightblue;stroke:midnightblue;" points="190.831,-156.951 181,-153 186.221,-162.219 190.831,-156.951"/>
</g>
<!-- Node18 -->
<g id="node35" class="node"><title>Node18</title>
<a xlink:href="classltr_1_1_base_learner.html" target="_top" xlink:title="BaseLearner\&lt; TElement, CompositionScorer \&gt;">
<polygon style="fill:white;stroke:black;" points="272,-190 272,-210 491,-210 491,-190 272,-190"/>
<text text-anchor="middle" x="381" y="-197" style="font-family:Arial;font-size:10.00;">BaseLearner&lt; TElement, CompositionScorer &gt;</text>
</a>
</g>
<!-- Node9&#45;&gt;Node18 -->
<g id="edge34" class="edge"><title>Node9&#45;&gt;Node18</title>
<path style="fill:none;stroke:midnightblue;" d="M201,-157C221,-165 247,-175 270,-181 282,-185 296,-188 309,-190"/>
<polygon style="fill:midnightblue;stroke:midnightblue;" points="202.56,-153.863 192,-153 199.717,-160.26 202.56,-153.863"/>
</g>
<!-- Node20 -->
<g id="node39" class="node"><title>Node20</title>
<a xlink:href="classltr_1_1_base_learner.html" target="_top" xlink:title="BaseLearner\&lt; TElement, GPScorer \&gt;">
<polygon style="fill:white;stroke:black;" points="292,-152 292,-172 471,-172 471,-152 292,-152"/>
<text text-anchor="middle" x="381" y="-159" style="font-family:Arial;font-size:10.00;">BaseLearner&lt; TElement, GPScorer &gt;</text>
</a>
</g>
<!-- Node9&#45;&gt;Node20 -->
<g id="edge38" class="edge"><title>Node9&#45;&gt;Node20</title>
<path style="fill:none;stroke:midnightblue;" d="M240,-149C257,-151 275,-152 292,-154"/>
<polygon style="fill:midnightblue;stroke:midnightblue;" points="240.299,-145.512 230,-148 239.602,-152.478 240.299,-145.512"/>
</g>
<!-- Node22 -->
<g id="node43" class="node"><title>Node22</title>
<a xlink:href="classltr_1_1_base_learner.html" target="_top" xlink:title="BaseLearner\&lt; TElement, LinearScorer \&gt;">
<polygon style="fill:white;stroke:black;" points="286,-114 286,-134 477,-134 477,-114 286,-114"/>
<text text-anchor="middle" x="381" y="-121" style="font-family:Arial;font-size:10.00;">BaseLearner&lt; TElement, LinearScorer &gt;</text>
</a>
</g>
<!-- Node9&#45;&gt;Node22 -->
<g id="edge42" class="edge"><title>Node9&#45;&gt;Node22</title>
<path style="fill:none;stroke:midnightblue;" d="M240,-137C255,-136 271,-135 286,-133"/>
<polygon style="fill:midnightblue;stroke:midnightblue;" points="239.602,-133.522 230,-138 240.299,-140.488 239.602,-133.522"/>
</g>
<!-- Node24 -->
<g id="node47" class="node"><title>Node24</title>
<a xlink:href="classltr_1_1_base_learner.html" target="_top" xlink:title="BaseLearner\&lt; TElement, NNScorer \&gt;">
<polygon style="fill:white;stroke:black;" points="292,-76 292,-96 470,-96 470,-76 292,-76"/>
<text text-anchor="middle" x="381" y="-83" style="font-family:Arial;font-size:10.00;">BaseLearner&lt; TElement, NNScorer &gt;</text>
</a>
</g>
<!-- Node9&#45;&gt;Node24 -->
<g id="edge46" class="edge"><title>Node9&#45;&gt;Node24</title>
<path style="fill:none;stroke:midnightblue;" d="M201,-129C221,-122 247,-112 270,-105 283,-102 297,-99 311,-96"/>
<polygon style="fill:midnightblue;stroke:midnightblue;" points="199.717,-125.74 192,-133 202.56,-132.137 199.717,-125.74"/>
</g>
<!-- Node26 -->
<g id="node51" class="node"><title>Node26</title>
<a xlink:href="classltr_1_1_base_learner.html" target="_top" xlink:title="BaseLearner\&lt; TElement, OneFeatureScorer \&gt;">
<polygon style="fill:white;stroke:black;" points="273,-38 273,-58 489,-58 489,-38 273,-38"/>
<text text-anchor="middle" x="381" y="-45" style="font-family:Arial;font-size:10.00;">BaseLearner&lt; TElement, OneFeatureScorer &gt;</text>
</a>
</g>
<!-- Node9&#45;&gt;Node26 -->
<g id="edge50" class="edge"><title>Node9&#45;&gt;Node26</title>
<path style="fill:none;stroke:midnightblue;" d="M186,-126C205,-108 238,-82 270,-67 279,-63 288,-60 298,-58"/>
<polygon style="fill:midnightblue;stroke:midnightblue;" points="183.596,-123.454 179,-133 188.546,-128.404 183.596,-123.454"/>
</g>
<!-- Node28 -->
<g id="node55" class="node"><title>Node28</title>
<a xlink:href="classltr_1_1_base_learner.html" target="_top" xlink:title="ltr::BaseLearner\&lt; TElement \&gt;">
<polygon style="fill:white;stroke:black;" points="309,-0 309,-20 453,-20 453,-0 309,-0"/>
<text text-anchor="middle" x="381" y="-7" style="font-family:Arial;font-size:10.00;">ltr::BaseLearner&lt; TElement &gt;</text>
</a>
</g>
<!-- Node9&#45;&gt;Node28 -->
<g id="edge54" class="edge"><title>Node9&#45;&gt;Node28</title>
<path style="fill:none;stroke:midnightblue;" d="M180,-124C196,-98 229,-52 270,-29 282,-23 295,-18 309,-15"/>
<polygon style="fill:midnightblue;stroke:midnightblue;" points="176.797,-122.559 175,-133 182.916,-125.958 176.797,-122.559"/>
</g>
<!-- Node11 -->
<g id="node21" class="node"><title>Node11</title>
<a xlink:href="classltr_1_1_bayesian_learner.html" target="_top" xlink:title="ltr::BayesianLearner\&lt; TElement, FisherDiscriminantDensityLearner\&lt; TElement \&gt; \&gt;">
<polygon style="fill:white;stroke:black;" points="536,-342 536,-362 910,-362 910,-342 536,-342"/>
<text text-anchor="middle" x="723" y="-349" style="font-family:Arial;font-size:10.00;">ltr::BayesianLearner&lt; TElement, FisherDiscriminantDensityLearner&lt; TElement &gt; &gt;</text>
</a>
</g>
<!-- Node10&#45;&gt;Node11 -->
<g id="edge20" class="edge"><title>Node10&#45;&gt;Node11</title>
<path style="fill:none;stroke:midnightblue;" d="M411,-290C441,-303 487,-322 528,-333 544,-337 560,-340 576,-342"/>
<polygon style="fill:midnightblue;stroke:midnightblue;" points="412.56,-286.863 402,-286 409.717,-293.26 412.56,-286.863"/>
</g>
<!-- Node13 -->
<g id="node25" class="node"><title>Node13</title>
<a xlink:href="classltr_1_1_bayesian_learner.html" target="_top" xlink:title="ltr::BayesianLearner\&lt; TElement, NormalNaiveBayesDensityLearner\&lt; TElement \&gt; \&gt;">
<polygon style="fill:white;stroke:black;" points="536,-304 536,-324 911,-324 911,-304 536,-304"/>
<text text-anchor="middle" x="723" y="-311" style="font-family:Arial;font-size:10.00;">ltr::BayesianLearner&lt; TElement, NormalNaiveBayesDensityLearner&lt; TElement &gt; &gt;</text>
</a>
</g>
<!-- Node10&#45;&gt;Node13 -->
<g id="edge24" class="edge"><title>Node10&#45;&gt;Node13</title>
<path style="fill:none;stroke:midnightblue;" d="M467,-287C487,-290 508,-292 528,-295 557,-298 589,-301 618,-304"/>
<polygon style="fill:midnightblue;stroke:midnightblue;" points="467.299,-283.512 457,-286 466.602,-290.478 467.299,-283.512"/>
</g>
<!-- Node15 -->
<g id="node29" class="node"><title>Node15</title>
<a xlink:href="classltr_1_1_bayesian_learner.html" target="_top" xlink:title="ltr::BayesianLearner\&lt; TElement, QuadraticDiscriminantDensityLearner\&lt; TElement \&gt; \&gt;">
<polygon style="fill:white;stroke:black;" points="529,-266 529,-286 918,-286 918,-266 529,-266"/>
<text text-anchor="middle" x="723" y="-273" style="font-family:Arial;font-size:10.00;">ltr::BayesianLearner&lt; TElement, QuadraticDiscriminantDensityLearner&lt; TElement &gt; &gt;</text>
</a>
</g>
<!-- Node10&#45;&gt;Node15 -->
<g id="edge28" class="edge"><title>Node10&#45;&gt;Node15</title>
<path style="fill:none;stroke:midnightblue;" d="M494,-276C505,-276 518,-276 529,-276"/>
<polygon style="fill:midnightblue;stroke:midnightblue;" points="494,-272.5 484,-276 494,-279.5 494,-272.5"/>
</g>
<!-- Node17 -->
<g id="node33" class="node"><title>Node17</title>
<a xlink:href="classltr_1_1_bayesian_learner.html" target="_top" xlink:title="ltr::BayesianLearner\&lt; TElement, TDensityLearner \&gt;">
<polygon style="fill:white;stroke:black;" points="604,-228 604,-248 843,-248 843,-228 604,-228"/>
<text text-anchor="middle" x="723" y="-235" style="font-family:Arial;font-size:10.00;">ltr::BayesianLearner&lt; TElement, TDensityLearner &gt;</text>
</a>
</g>
<!-- Node10&#45;&gt;Node17 -->
<g id="edge32" class="edge"><title>Node10&#45;&gt;Node17</title>
<path style="fill:none;stroke:midnightblue;" d="M467,-265C487,-262 508,-260 528,-257 557,-254 589,-251 618,-248"/>
<polygon style="fill:midnightblue;stroke:midnightblue;" points="466.602,-261.522 457,-266 467.299,-268.488 466.602,-261.522"/>
</g>
<!-- Node12 -->
<g id="node23" class="node"><title>Node12</title>
<a xlink:href="classltr_1_1_fisher_discriminant_learner.html" target="_top" xlink:title="ltr::FisherDiscriminantLearner\&lt; TElement \&gt;">
<polygon style="fill:white;stroke:black;" points="962,-342 962,-362 1165,-362 1165,-342 962,-342"/>
<text text-anchor="middle" x="1063" y="-349" style="font-family:Arial;font-size:10.00;">ltr::FisherDiscriminantLearner&lt; TElement &gt;</text>
</a>
</g>
<!-- Node11&#45;&gt;Node12 -->
<g id="edge22" class="edge"><title>Node11&#45;&gt;Node12</title>
<path style="fill:none;stroke:midnightblue;" d="M920,-352C934,-352 948,-352 962,-352"/>
<polygon style="fill:midnightblue;stroke:midnightblue;" points="920,-348.5 910,-352 920,-355.5 920,-348.5"/>
</g>
<!-- Node14 -->
<g id="node27" class="node"><title>Node14</title>
<a xlink:href="classltr_1_1_normal_naive_bayes_learner.html" target="_top" xlink:title="ltr::NormalNaiveBayesLearner\&lt; TElement \&gt;">
<polygon style="fill:white;stroke:black;" points="961,-304 961,-324 1165,-324 1165,-304 961,-304"/>
<text text-anchor="middle" x="1063" y="-311" style="font-family:Arial;font-size:10.00;">ltr::NormalNaiveBayesLearner&lt; TElement &gt;</text>
</a>
</g>
<!-- Node13&#45;&gt;Node14 -->
<g id="edge26" class="edge"><title>Node13&#45;&gt;Node14</title>
<path style="fill:none;stroke:midnightblue;" d="M921,-314C935,-314 948,-314 961,-314"/>
<polygon style="fill:midnightblue;stroke:midnightblue;" points="921,-310.5 911,-314 921,-317.5 921,-310.5"/>
</g>
<!-- Node16 -->
<g id="node31" class="node"><title>Node16</title>
<a xlink:href="classltr_1_1_quadratic_discriminant_learner.html" target="_top" xlink:title="ltr::QuadraticDiscriminantLearner\&lt; TElement \&gt;">
<polygon style="fill:white;stroke:black;" points="954,-266 954,-286 1172,-286 1172,-266 954,-266"/>
<text text-anchor="middle" x="1063" y="-273" style="font-family:Arial;font-size:10.00;">ltr::QuadraticDiscriminantLearner&lt; TElement &gt;</text>
</a>
</g>
<!-- Node15&#45;&gt;Node16 -->
<g id="edge30" class="edge"><title>Node15&#45;&gt;Node16</title>
<path style="fill:none;stroke:midnightblue;" d="M928,-276C937,-276 945,-276 954,-276"/>
<polygon style="fill:midnightblue;stroke:midnightblue;" points="928,-272.5 918,-276 928,-279.5 928,-272.5"/>
</g>
<!-- Node19 -->
<g id="node37" class="node"><title>Node19</title>
<a xlink:href="classltr_1_1composition_1_1_composition_learner.html" target="_top" xlink:title="Learner, wich uses other learner (weak learner), produces with it different scorers and tie them into...">
<polygon style="fill:white;stroke:black;" points="606,-190 606,-210 840,-210 840,-190 606,-190"/>
<text text-anchor="middle" x="723" y="-197" style="font-family:Arial;font-size:10.00;">ltr::composition::CompositionLearner&lt; TElement &gt;</text>
</a>
</g>
<!-- Node18&#45;&gt;Node19 -->
<g id="edge36" class="edge"><title>Node18&#45;&gt;Node19</title>
<path style="fill:none;stroke:midnightblue;" d="M501,-200C535,-200 572,-200 606,-200"/>
<polygon style="fill:midnightblue;stroke:midnightblue;" points="501,-196.5 491,-200 501,-203.5 501,-196.5"/>
</g>
<!-- Node21 -->
<g id="node41" class="node"><title>Node21</title>
<a xlink:href="classltr_1_1gp_1_1_g_p_learner.html" target="_top" xlink:title="GPLearner Implements genetic programming approach applied to learning to rank.">
<polygon style="fill:white;stroke:black;" points="647,-152 647,-172 800,-172 800,-152 647,-152"/>
<text text-anchor="middle" x="723" y="-159" style="font-family:Arial;font-size:10.00;">ltr::gp::GPLearner&lt; TElement &gt;</text>
</a>
</g>
<!-- Node20&#45;&gt;Node21 -->
<g id="edge40" class="edge"><title>Node20&#45;&gt;Node21</title>
<path style="fill:none;stroke:midnightblue;" d="M481,-162C534,-162 598,-162 647,-162"/>
<polygon style="fill:midnightblue;stroke:midnightblue;" points="481,-158.5 471,-162 481,-165.5 481,-158.5"/>
</g>
<!-- Node23 -->
<g id="node45" class="node"><title>Node23</title>
<a xlink:href="classltr_1_1_linear_learner.html" target="_top" xlink:title="ltr::LinearLearner\&lt; TElement \&gt;">
<polygon style="fill:white;stroke:black;" points="649,-114 649,-134 797,-134 797,-114 649,-114"/>
<text text-anchor="middle" x="723" y="-121" style="font-family:Arial;font-size:10.00;">ltr::LinearLearner&lt; TElement &gt;</text>
</a>
</g>
<!-- Node22&#45;&gt;Node23 -->
<g id="edge44" class="edge"><title>Node22&#45;&gt;Node23</title>
<path style="fill:none;stroke:midnightblue;" d="M487,-124C539,-124 601,-124 649,-124"/>
<polygon style="fill:midnightblue;stroke:midnightblue;" points="487,-120.5 477,-124 487,-127.5 487,-120.5"/>
</g>
<!-- Node25 -->
<g id="node49" class="node"><title>Node25</title>
<a xlink:href="classltr_1_1_n_n_learner.html" target="_top" xlink:title="NNLearner Implements nearest neighbor approach.">
<polygon style="fill:white;stroke:black;" points="656,-76 656,-96 791,-96 791,-76 656,-76"/>
<text text-anchor="middle" x="723" y="-83" style="font-family:Arial;font-size:10.00;">ltr::NNLearner&lt; TElement &gt;</text>
</a>
</g>
<!-- Node24&#45;&gt;Node25 -->
<g id="edge48" class="edge"><title>Node24&#45;&gt;Node25</title>
<path style="fill:none;stroke:midnightblue;" d="M480,-86C536,-86 606,-86 656,-86"/>
<polygon style="fill:midnightblue;stroke:midnightblue;" points="480,-82.5001 470,-86 480,-89.5001 480,-82.5001"/>
</g>
<!-- Node27 -->
<g id="node53" class="node"><title>Node27</title>
<a xlink:href="classltr_1_1_best_feature_learner.html" target="_top" xlink:title="ltr::BestFeatureLearner\&lt; TElement \&gt;">
<polygon style="fill:white;stroke:black;" points="636,-38 636,-58 811,-58 811,-38 636,-38"/>
<text text-anchor="middle" x="723" y="-45" style="font-family:Arial;font-size:10.00;">ltr::BestFeatureLearner&lt; TElement &gt;</text>
</a>
</g>
<!-- Node26&#45;&gt;Node27 -->
<g id="edge52" class="edge"><title>Node26&#45;&gt;Node27</title>
<path style="fill:none;stroke:midnightblue;" d="M499,-48C544,-48 594,-48 636,-48"/>
<polygon style="fill:midnightblue;stroke:midnightblue;" points="499,-44.5001 489,-48 499,-51.5001 499,-44.5001"/>
</g>
</g>
</svg>
