<?xml version="1.0" encoding="UTF-8" standalone="no"?>
<!DOCTYPE svg PUBLIC "-//W3C//DTD SVG 1.0//EN"
 "http://www.w3.org/TR/2001/REC-SVG-20010904/DTD/svg10.dtd" [
 <!ATTLIST svg xmlns:xlink CDATA #FIXED "http://www.w3.org/1999/xlink">
]>
<!-- Generated by Graphviz version 2.20.2 (Tue Mar &#160;2 19:03:41 UTC 2010)
     For user: (jenkins)  -->
<!-- Title: G Pages: 1 -->
<svg width="262pt" height="196pt"
 viewBox="0.00 0.00 262.00 196.00" xmlns="http://www.w3.org/2000/svg" xmlns:xlink="http://www.w3.org/1999/xlink">
<g id="graph0" class="graph" transform="scale(1 1) rotate(0) translate(4 192)">
<title>G</title>
<polygon style="fill:white;stroke:white;" points="-4,4 -4,-192 258,-192 258,4 -4,4"/>
<!-- Node1 -->
<g id="node1" class="node"><title>Node1</title>
<polygon style="fill:#bfbfbf;stroke:black;" points="38,-0 38,-20 191,-20 191,-0 38,-0"/>
<text text-anchor="middle" x="114" y="-7" style="font-family:Arial;font-size:10.00;">ltr::gp::GPLearner&lt; TElement &gt;</text>
</g>
<!-- Node2 -->
<g id="node2" class="node"><title>Node2</title>
<a xlink:href="classltr_1_1_base_learner.html" target="_top" xlink:title="ltr::BaseLearner\&lt; TElement, GPScorer \&gt;">
<polygon style="fill:white;stroke:black;" points="18,-56 18,-76 211,-76 211,-56 18,-56"/>
<text text-anchor="middle" x="114" y="-63" style="font-family:Arial;font-size:10.00;">ltr::BaseLearner&lt; TElement, GPScorer &gt;</text>
</a>
</g>
<!-- Node2&#45;&gt;Node1 -->
<g id="edge2" class="edge"><title>Node2&#45;&gt;Node1</title>
<path style="fill:none;stroke:midnightblue;" d="M114,-46C114,-37 114,-28 114,-20"/>
<polygon style="fill:midnightblue;stroke:midnightblue;" points="110.5,-46 114,-56 117.5,-46 110.5,-46"/>
</g>
<!-- Node3 -->
<g id="node4" class="node"><title>Node3</title>
<a xlink:href="classltr_1_1_learner.html" target="_top" xlink:title="Learns input dataset and produces a Scorer.">
<polygon style="fill:white;stroke:black;" points="53,-112 53,-132 175,-132 175,-112 53,-112"/>
<text text-anchor="middle" x="114" y="-119" style="font-family:Arial;font-size:10.00;">ltr::Learner&lt; TElement &gt;</text>
</a>
</g>
<!-- Node3&#45;&gt;Node2 -->
<g id="edge4" class="edge"><title>Node3&#45;&gt;Node2</title>
<path style="fill:none;stroke:midnightblue;" d="M114,-102C114,-93 114,-84 114,-76"/>
<polygon style="fill:midnightblue;stroke:midnightblue;" points="110.5,-102 114,-112 117.5,-102 110.5,-102"/>
</g>
<!-- Node4 -->
<g id="node6" class="node"><title>Node4</title>
<a xlink:href="classltr_1_1_reporter.html" target="_top" xlink:title="ltr::Reporter">
<polygon style="fill:white;stroke:black;" points="0,-168 0,-188 67,-188 67,-168 0,-168"/>
<text text-anchor="middle" x="33" y="-175" style="font-family:Arial;font-size:10.00;">ltr::Reporter</text>
</a>
</g>
<!-- Node4&#45;&gt;Node3 -->
<g id="edge6" class="edge"><title>Node4&#45;&gt;Node3</title>
<path style="fill:none;stroke:midnightblue;" d="M55,-162C70,-153 87,-140 99,-132"/>
<polygon style="fill:midnightblue;stroke:midnightblue;" points="52.9,-159.2 47,-168 57.1,-164.8 52.9,-159.2"/>
</g>
<!-- Node5 -->
<g id="node8" class="node"><title>Node5</title>
<a xlink:href="classltr_1_1_aliaser.html" target="_top" xlink:title="Inherit from this class in order to use alias.">
<polygon style="fill:white;stroke:black;" points="84,-168 84,-188 144,-188 144,-168 84,-168"/>
<text text-anchor="middle" x="114" y="-175" style="font-family:Arial;font-size:10.00;">ltr::Aliaser</text>
</a>
</g>
<!-- Node5&#45;&gt;Node3 -->
<g id="edge8" class="edge"><title>Node5&#45;&gt;Node3</title>
<path style="fill:none;stroke:midnightblue;" d="M114,-158C114,-149 114,-140 114,-132"/>
<polygon style="fill:midnightblue;stroke:midnightblue;" points="110.5,-158 114,-168 117.5,-158 110.5,-158"/>
</g>
<!-- Node6 -->
<g id="node10" class="node"><title>Node6</title>
<a xlink:href="classltr_1_1_parameterized.html" target="_top" xlink:title="ltr::Parameterized">
<polygon style="fill:white;stroke:black;" points="162,-168 162,-188 255,-188 255,-168 162,-168"/>
<text text-anchor="middle" x="208" y="-175" style="font-family:Arial;font-size:10.00;">ltr::Parameterized</text>
</a>
</g>
<!-- Node6&#45;&gt;Node3 -->
<g id="edge10" class="edge"><title>Node6&#45;&gt;Node3</title>
<path style="fill:none;stroke:midnightblue;" d="M182,-163C166,-153 145,-140 131,-132"/>
<polygon style="fill:midnightblue;stroke:midnightblue;" points="180.559,-166.203 191,-168 183.958,-160.084 180.559,-166.203"/>
</g>
</g>
</svg>
