<?xml version="1.0" encoding="UTF-8" standalone="no"?>
<!DOCTYPE svg PUBLIC "-//W3C//DTD SVG 1.0//EN"
 "http://www.w3.org/TR/2001/REC-SVG-20010904/DTD/svg10.dtd" [
 <!ATTLIST svg xmlns:xlink CDATA #FIXED "http://www.w3.org/1999/xlink">
]>
<!-- Generated by Graphviz version 2.20.2 (Tue Mar &#160;2 19:03:41 UTC 2010)
     For user: (jenkins)  -->
<!-- Title: G Pages: 1 -->
<svg width="506pt" height="484pt"
 viewBox="0.00 0.00 506.00 484.00" xmlns="http://www.w3.org/2000/svg" xmlns:xlink="http://www.w3.org/1999/xlink">
<g id="graph0" class="graph" transform="scale(1 1) rotate(0) translate(4 480)">
<title>G</title>
<polygon style="fill:white;stroke:white;" points="-4,4 -4,-480 502,-480 502,4 -4,4"/>
<!-- Node1 -->
<g id="node1" class="node"><title>Node1</title>
<polygon style="fill:#bfbfbf;stroke:black;" points="131,-228 131,-248 258,-248 258,-228 131,-228"/>
<text text-anchor="middle" x="194" y="-235" style="font-family:Arial;font-size:10.00;">ltr::Measure&lt; TElement &gt;</text>
</g>
<!-- Node5 -->
<g id="node9" class="node"><title>Node5</title>
<a xlink:href="classltr_1_1_abs_error.html" target="_top" xlink:title="ltr::AbsError\&lt; Object \&gt;">
<polygon style="fill:white;stroke:black;" points="339,-456 339,-476 454,-476 454,-456 339,-456"/>
<text text-anchor="middle" x="396" y="-463" style="font-family:Arial;font-size:10.00;">ltr::AbsError&lt; Object &gt;</text>
</a>
</g>
<!-- Node1&#45;&gt;Node5 -->
<g id="edge8" class="edge"><title>Node1&#45;&gt;Node5</title>
<path style="fill:none;stroke:midnightblue;" d="M198,-258C206,-301 232,-398 294,-447 307,-457 323,-462 339,-465"/>
<polygon style="fill:midnightblue;stroke:midnightblue;" points="201.393,-257.119 196,-248 194.529,-258.492 201.393,-257.119"/>
</g>
<!-- Node6 -->
<g id="node11" class="node"><title>Node6</title>
<a xlink:href="classltr_1_1_accuracy.html" target="_top" xlink:title="ltr::Accuracy\&lt; TElement \&gt;">
<polygon style="fill:white;stroke:black;" points="331,-418 331,-438 462,-438 462,-418 331,-418"/>
<text text-anchor="middle" x="396" y="-425" style="font-family:Arial;font-size:10.00;">ltr::Accuracy&lt; TElement &gt;</text>
</a>
</g>
<!-- Node1&#45;&gt;Node6 -->
<g id="edge10" class="edge"><title>Node1&#45;&gt;Node6</title>
<path style="fill:none;stroke:midnightblue;" d="M200,-258C211,-294 241,-371 294,-409 305,-416 318,-421 331,-424"/>
<polygon style="fill:midnightblue;stroke:midnightblue;" points="203.226,-256.573 197,-248 196.521,-258.584 203.226,-256.573"/>
</g>
<!-- Node7 -->
<g id="node13" class="node"><title>Node7</title>
<a xlink:href="classltr_1_1_a_u_c.html" target="_top" xlink:title="ltr::AUC\&lt; Object \&gt;">
<polygon style="fill:white;stroke:black;" points="348,-380 348,-400 445,-400 445,-380 348,-380"/>
<text text-anchor="middle" x="396" y="-387" style="font-family:Arial;font-size:10.00;">ltr::AUC&lt; Object &gt;</text>
</a>
</g>
<!-- Node1&#45;&gt;Node7 -->
<g id="edge12" class="edge"><title>Node1&#45;&gt;Node7</title>
<path style="fill:none;stroke:midnightblue;" d="M203,-257C217,-287 249,-343 294,-371 310,-381 330,-386 348,-388"/>
<polygon style="fill:midnightblue;stroke:midnightblue;" points="205.916,-255.042 198,-248 199.797,-258.441 205.916,-255.042"/>
</g>
<!-- Node8 -->
<g id="node15" class="node"><title>Node8</title>
<a xlink:href="classltr_1_1_average_precision.html" target="_top" xlink:title="ltr::AveragePrecision\&lt; ObjectList \&gt;">
<polygon style="fill:white;stroke:black;" points="312,-342 312,-362 480,-362 480,-342 312,-342"/>
<text text-anchor="middle" x="396" y="-349" style="font-family:Arial;font-size:10.00;">ltr::AveragePrecision&lt; ObjectList &gt;</text>
</a>
</g>
<!-- Node1&#45;&gt;Node8 -->
<g id="edge14" class="edge"><title>Node1&#45;&gt;Node8</title>
<path style="fill:none;stroke:midnightblue;" d="M208,-256C226,-278 258,-314 294,-333 302,-337 310,-340 318,-342"/>
<polygon style="fill:midnightblue;stroke:midnightblue;" points="210.8,-253.9 202,-248 205.2,-258.1 210.8,-253.9"/>
</g>
<!-- Node9 -->
<g id="node17" class="node"><title>Node9</title>
<a xlink:href="classltr_1_1_base_d_c_g.html" target="_top" xlink:title="ltr::BaseDCG\&lt; ObjectList \&gt;">
<polygon style="fill:white;stroke:black;" points="328,-304 328,-324 464,-324 464,-304 328,-304"/>
<text text-anchor="middle" x="396" y="-311" style="font-family:Arial;font-size:10.00;">ltr::BaseDCG&lt; ObjectList &gt;</text>
</a>
</g>
<!-- Node1&#45;&gt;Node9 -->
<g id="edge16" class="edge"><title>Node1&#45;&gt;Node9</title>
<path style="fill:none;stroke:midnightblue;" d="M216,-254C236,-267 265,-285 294,-295 305,-299 317,-302 328,-304"/>
<polygon style="fill:midnightblue;stroke:midnightblue;" points="218.1,-251.2 208,-248 213.9,-256.8 218.1,-251.2"/>
</g>
<!-- Node10 -->
<g id="node19" class="node"><title>Node10</title>
<a xlink:href="classltr_1_1_base_n_d_c_g.html" target="_top" xlink:title="ltr::BaseNDCG\&lt; ObjectList \&gt;">
<polygon style="fill:white;stroke:black;" points="325,-266 325,-286 468,-286 468,-266 325,-266"/>
<text text-anchor="middle" x="396" y="-273" style="font-family:Arial;font-size:10.00;">ltr::BaseNDCG&lt; ObjectList &gt;</text>
</a>
</g>
<!-- Node1&#45;&gt;Node10 -->
<g id="edge18" class="edge"><title>Node1&#45;&gt;Node10</title>
<path style="fill:none;stroke:midnightblue;" d="M258,-250C270,-252 282,-255 294,-257 310,-260 328,-263 344,-266"/>
<polygon style="fill:midnightblue;stroke:midnightblue;" points="258.492,-246.529 248,-248 257.119,-253.393 258.492,-246.529"/>
</g>
<!-- Node11 -->
<g id="node21" class="node"><title>Node11</title>
<a xlink:href="classltr_1_1_binary_classification_accuracy.html" target="_top" xlink:title="ltr::BinaryClassificationAccuracy\&lt; Object \&gt;">
<polygon style="fill:white;stroke:black;" points="294,-228 294,-248 498,-248 498,-228 294,-228"/>
<text text-anchor="middle" x="396" y="-235" style="font-family:Arial;font-size:10.00;">ltr::BinaryClassificationAccuracy&lt; Object &gt;</text>
</a>
</g>
<!-- Node1&#45;&gt;Node11 -->
<g id="edge20" class="edge"><title>Node1&#45;&gt;Node11</title>
<path style="fill:none;stroke:midnightblue;" d="M268,-238C277,-238 286,-238 294,-238"/>
<polygon style="fill:midnightblue;stroke:midnightblue;" points="268,-234.5 258,-238 268,-241.5 268,-234.5"/>
</g>
<!-- Node12 -->
<g id="node23" class="node"><title>Node12</title>
<a xlink:href="classltr_1_1_binary_classification_margin.html" target="_top" xlink:title="ltr::BinaryClassificationMargin\&lt; Object \&gt;">
<polygon style="fill:white;stroke:black;" points="300,-190 300,-210 492,-210 492,-190 300,-190"/>
<text text-anchor="middle" x="396" y="-197" style="font-family:Arial;font-size:10.00;">ltr::BinaryClassificationMargin&lt; Object &gt;</text>
</a>
</g>
<!-- Node1&#45;&gt;Node12 -->
<g id="edge22" class="edge"><title>Node1&#45;&gt;Node12</title>
<path style="fill:none;stroke:midnightblue;" d="M256,-226C268,-224 281,-221 294,-219 309,-216 326,-213 341,-210"/>
<polygon style="fill:midnightblue;stroke:midnightblue;" points="255.119,-222.607 246,-228 256.492,-229.471 255.119,-222.607"/>
</g>
<!-- Node13 -->
<g id="node25" class="node"><title>Node13</title>
<a xlink:href="classltr_1_1_g_m_r_r.html" target="_top" xlink:title="ltr::GMRR\&lt; ObjectList \&gt;">
<polygon style="fill:white;stroke:black;" points="335,-152 335,-172 457,-172 457,-152 335,-152"/>
<text text-anchor="middle" x="396" y="-159" style="font-family:Arial;font-size:10.00;">ltr::GMRR&lt; ObjectList &gt;</text>
</a>
</g>
<!-- Node1&#45;&gt;Node13 -->
<g id="edge24" class="edge"><title>Node1&#45;&gt;Node13</title>
<path style="fill:none;stroke:midnightblue;" d="M216,-222C236,-209 265,-191 294,-181 307,-177 321,-173 335,-170"/>
<polygon style="fill:midnightblue;stroke:midnightblue;" points="213.9,-219.2 208,-228 218.1,-224.8 213.9,-219.2"/>
</g>
<!-- Node14 -->
<g id="node27" class="node"><title>Node14</title>
<a xlink:href="classltr_1_1_normalized_measure.html" target="_top" xlink:title="ltr::NormalizedMeasure\&lt; TElement \&gt;">
<polygon style="fill:white;stroke:black;" points="308,-114 308,-134 484,-134 484,-114 308,-114"/>
<text text-anchor="middle" x="396" y="-121" style="font-family:Arial;font-size:10.00;">ltr::NormalizedMeasure&lt; TElement &gt;</text>
</a>
</g>
<!-- Node1&#45;&gt;Node14 -->
<g id="edge26" class="edge"><title>Node1&#45;&gt;Node14</title>
<path style="fill:none;stroke:midnightblue;" d="M208,-220C226,-198 258,-162 294,-143 302,-139 310,-136 318,-134"/>
<polygon style="fill:midnightblue;stroke:midnightblue;" points="205.2,-217.9 202,-228 210.8,-222.1 205.2,-217.9"/>
</g>
<!-- Node15 -->
<g id="node29" class="node"><title>Node15</title>
<a xlink:href="classltr_1_1_p_found.html" target="_top" xlink:title="ltr::PFound\&lt; ObjectList \&gt;">
<polygon style="fill:white;stroke:black;" points="333,-76 333,-96 459,-96 459,-76 333,-76"/>
<text text-anchor="middle" x="396" y="-83" style="font-family:Arial;font-size:10.00;">ltr::PFound&lt; ObjectList &gt;</text>
</a>
</g>
<!-- Node1&#45;&gt;Node15 -->
<g id="edge28" class="edge"><title>Node1&#45;&gt;Node15</title>
<path style="fill:none;stroke:midnightblue;" d="M203,-219C217,-189 249,-133 294,-105 306,-98 320,-93 333,-90"/>
<polygon style="fill:midnightblue;stroke:midnightblue;" points="199.797,-217.559 198,-228 205.916,-220.958 199.797,-217.559"/>
</g>
<!-- Node16 -->
<g id="node31" class="node"><title>Node16</title>
<a xlink:href="classltr_1_1_reciprocal_rank.html" target="_top" xlink:title="ltr::ReciprocalRank\&lt; ObjectList \&gt;">
<polygon style="fill:white;stroke:black;" points="316,-38 316,-58 477,-58 477,-38 316,-38"/>
<text text-anchor="middle" x="396" y="-45" style="font-family:Arial;font-size:10.00;">ltr::ReciprocalRank&lt; ObjectList &gt;</text>
</a>
</g>
<!-- Node1&#45;&gt;Node16 -->
<g id="edge30" class="edge"><title>Node1&#45;&gt;Node16</title>
<path style="fill:none;stroke:midnightblue;" d="M200,-218C211,-182 241,-105 294,-67 301,-62 308,-59 316,-56"/>
<polygon style="fill:midnightblue;stroke:midnightblue;" points="196.521,-217.416 197,-228 203.226,-219.427 196.521,-217.416"/>
</g>
<!-- Node17 -->
<g id="node33" class="node"><title>Node17</title>
<a xlink:href="classltr_1_1_true_point.html" target="_top" xlink:title="ltr::TruePoint\&lt; Object \&gt;">
<polygon style="fill:white;stroke:black;" points="337,-0 337,-20 455,-20 455,-0 337,-0"/>
<text text-anchor="middle" x="396" y="-7" style="font-family:Arial;font-size:10.00;">ltr::TruePoint&lt; Object &gt;</text>
</a>
</g>
<!-- Node1&#45;&gt;Node17 -->
<g id="edge32" class="edge"><title>Node1&#45;&gt;Node17</title>
<path style="fill:none;stroke:midnightblue;" d="M198,-218C206,-175 232,-78 294,-29 306,-20 322,-14 337,-12"/>
<polygon style="fill:midnightblue;stroke:midnightblue;" points="194.529,-217.508 196,-228 201.393,-218.881 194.529,-217.508"/>
</g>
<!-- Node2 -->
<g id="node2" class="node"><title>Node2</title>
<a xlink:href="classltr_1_1_aliaser.html" target="_top" xlink:title="Inherit from this class in order to use alias.">
<polygon style="fill:white;stroke:black;" points="17,-266 17,-286 77,-286 77,-266 17,-266"/>
<text text-anchor="middle" x="47" y="-273" style="font-family:Arial;font-size:10.00;">ltr::Aliaser</text>
</a>
</g>
<!-- Node2&#45;&gt;Node1 -->
<g id="edge2" class="edge"><title>Node2&#45;&gt;Node1</title>
<path style="fill:none;stroke:midnightblue;" d="M87,-265C108,-260 134,-253 155,-248"/>
<polygon style="fill:midnightblue;stroke:midnightblue;" points="85.5725,-261.774 77,-268 87.584,-268.479 85.5725,-261.774"/>
</g>
<!-- Node3 -->
<g id="node4" class="node"><title>Node3</title>
<a xlink:href="classltr_1_1_parameterized.html" target="_top" xlink:title="ltr::Parameterized">
<polygon style="fill:white;stroke:black;" points="1,-228 1,-248 94,-248 94,-228 1,-228"/>
<text text-anchor="middle" x="47" y="-235" style="font-family:Arial;font-size:10.00;">ltr::Parameterized</text>
</a>
</g>
<!-- Node3&#45;&gt;Node1 -->
<g id="edge4" class="edge"><title>Node3&#45;&gt;Node1</title>
<path style="fill:none;stroke:midnightblue;" d="M104,-238C113,-238 122,-238 131,-238"/>
<polygon style="fill:midnightblue;stroke:midnightblue;" points="104,-234.5 94,-238 104,-241.5 104,-234.5"/>
</g>
<!-- Node4 -->
<g id="node6" class="node"><title>Node4</title>
<a xlink:href="classltr_1_1_printable.html" target="_top" xlink:title="ltr::Printable">
<polygon style="fill:white;stroke:black;" points="13,-190 13,-210 82,-210 82,-190 13,-190"/>
<text text-anchor="middle" x="47" y="-197" style="font-family:Arial;font-size:10.00;">ltr::Printable</text>
</a>
</g>
<!-- Node4&#45;&gt;Node1 -->
<g id="edge6" class="edge"><title>Node4&#45;&gt;Node1</title>
<path style="fill:none;stroke:midnightblue;" d="M92,-212C112,-217 136,-223 156,-228"/>
<polygon style="fill:midnightblue;stroke:midnightblue;" points="92.584,-208.521 82,-209 90.5725,-215.226 92.584,-208.521"/>
</g>
</g>
</svg>
