<?xml version="1.0" encoding="UTF-8" standalone="no"?>
<!DOCTYPE svg PUBLIC "-//W3C//DTD SVG 1.0//EN"
 "http://www.w3.org/TR/2001/REC-SVG-20010904/DTD/svg10.dtd" [
 <!ATTLIST svg xmlns:xlink CDATA #FIXED "http://www.w3.org/1999/xlink">
]>
<!-- Generated by Graphviz version 2.20.2 (Tue Mar &#160;2 19:03:41 UTC 2010)
     For user: (jenkins)  -->
<!-- Title: G Pages: 1 -->
<svg width="2862pt" height="140pt"
 viewBox="0.00 0.00 2862.00 140.00" xmlns="http://www.w3.org/2000/svg" xmlns:xlink="http://www.w3.org/1999/xlink">
<g id="graph0" class="graph" transform="scale(1 1) rotate(0) translate(4 136)">
<title>G</title>
<polygon style="fill:white;stroke:white;" points="-4,4 -4,-136 2858,-136 2858,4 -4,4"/>
<!-- Node1 -->
<g id="node1" class="node"><title>Node1</title>
<polygon style="fill:#bfbfbf;stroke:black;" points="929,-112 929,-132 1222,-132 1222,-112 929,-112"/>
<text text-anchor="middle" x="1075" y="-119" style="font-family:Arial;font-size:10.00;">ltr/learners/composition_learner/composition_learner_unittest.cc</text>
</g>
<!-- Node2 -->
<g id="node3" class="node"><title>Node2</title>
<polygon style="fill:white;stroke:#bfbfbf;" points="135,-56 135,-76 206,-76 206,-56 135,-56"/>
<text text-anchor="middle" x="170" y="-63" style="font-family:Arial;font-size:10.00;">gtest/gtest.h</text>
</g>
<!-- Node1&#45;&gt;Node2 -->
<g id="edge2" class="edge"><title>Node1&#45;&gt;Node2</title>
<path style="fill:none;stroke:midnightblue;" d="M929,-117C721,-109 351,-93 219,-76 218,-76 217,-76 216,-75"/>
<polygon style="fill:midnightblue;stroke:midnightblue;" points="216.299,-71.5125 206,-74 215.602,-78.4778 216.299,-71.5125"/>
</g>
<!-- Node3 -->
<g id="node5" class="node"><title>Node3</title>
<polygon style="fill:white;stroke:#bfbfbf;" points="1260,-0 1260,-20 1355,-20 1355,-0 1260,-0"/>
<text text-anchor="middle" x="1307" y="-7" style="font-family:Arial;font-size:10.00;">ltr/data/data_set.h</text>
</g>
<!-- Node1&#45;&gt;Node3 -->
<g id="edge4" class="edge"><title>Node1&#45;&gt;Node3</title>
<path style="fill:none;stroke:midnightblue;" d="M1089,-112C1110,-98 1149,-73 1184,-56 1210,-43 1241,-31 1265,-23"/>
<polygon style="fill:midnightblue;stroke:midnightblue;" points="1266.43,-26.2259 1275,-20 1264.42,-19.5212 1266.43,-26.2259"/>
</g>
<!-- Node4 -->
<g id="node7" class="node"><title>Node4</title>
<polygon style="fill:white;stroke:#bfbfbf;" points="962,-0 962,-20 1046,-20 1046,-0 962,-0"/>
<text text-anchor="middle" x="1004" y="-7" style="font-family:Arial;font-size:10.00;">ltr/data/object.h</text>
</g>
<!-- Node1&#45;&gt;Node4 -->
<g id="edge6" class="edge"><title>Node1&#45;&gt;Node4</title>
<path style="fill:none;stroke:midnightblue;" d="M1047,-112C1031,-105 1013,-93 1004,-76 996,-62 997,-44 999,-30"/>
<polygon style="fill:midnightblue;stroke:midnightblue;" points="1002.47,-30.4922 1001,-20 995.607,-29.1194 1002.47,-30.4922"/>
</g>
<!-- Node5 -->
<g id="node9" class="node"><title>Node5</title>
<polygon style="fill:white;stroke:#bfbfbf;" points="1497,-56 1497,-76 1604,-76 1604,-56 1497,-56"/>
<text text-anchor="middle" x="1550" y="-63" style="font-family:Arial;font-size:10.00;">ltr/data/feature_info.h</text>
</g>
<!-- Node1&#45;&gt;Node5 -->
<g id="edge8" class="edge"><title>Node1&#45;&gt;Node5</title>
<path style="fill:none;stroke:midnightblue;" d="M1171,-112C1253,-103 1376,-90 1483,-76 1484,-76 1486,-75 1487,-75"/>
<polygon style="fill:midnightblue;stroke:midnightblue;" points="1487.4,-78.4778 1497,-74 1486.7,-71.5125 1487.4,-78.4778"/>
</g>
<!-- Node6 -->
<g id="node11" class="node"><title>Node6</title>
<polygon style="fill:white;stroke:#bfbfbf;" points="0,-0 0,-20 104,-20 104,-0 0,-0"/>
<text text-anchor="middle" x="52" y="-7" style="font-family:Arial;font-size:10.00;">ltr/utility/numerical.h</text>
</g>
<!-- Node1&#45;&gt;Node6 -->
<g id="edge10" class="edge"><title>Node1&#45;&gt;Node6</title>
<path style="fill:none;stroke:midnightblue;" d="M929,-120C729,-116 382,-105 260,-76 238,-70 234,-63 214,-56 178,-42 136,-31 104,-22"/>
<polygon style="fill:midnightblue;stroke:midnightblue;" points="104.492,-18.5292 94,-20 103.119,-25.3933 104.492,-18.5292"/>
</g>
<!-- Node7 -->
<g id="node13" class="node"><title>Node7</title>
<polygon style="fill:white;stroke:#bfbfbf;" points="122,-0 122,-20 347,-20 347,-0 122,-0"/>
<text text-anchor="middle" x="234" y="-7" style="font-family:Arial;font-size:10.00;">ltr/parameters_container/parameters_container.h</text>
</g>
<!-- Node1&#45;&gt;Node7 -->
<g id="edge12" class="edge"><title>Node1&#45;&gt;Node7</title>
<path style="fill:none;stroke:midnightblue;" d="M929,-120C717,-115 345,-104 290,-76 269,-65 253,-44 244,-29"/>
<polygon style="fill:midnightblue;stroke:midnightblue;" points="246.916,-27.0418 239,-20 240.797,-30.4414 246.916,-27.0418"/>
</g>
<!-- Node8 -->
<g id="node15" class="node"><title>Node8</title>
<a xlink:href="composition__learner_8h.html" target="_top" xlink:title="ltr/learners/composition_learner/composition_learner.h">
<polygon style="fill:white;stroke:black;" points="1193,-56 1193,-76 1442,-76 1442,-56 1193,-56"/>
<text text-anchor="middle" x="1317" y="-63" style="font-family:Arial;font-size:10.00;">ltr/learners/composition_learner/composition_learner.h</text>
</a>
</g>
<!-- Node1&#45;&gt;Node8 -->
<g id="edge14" class="edge"><title>Node1&#45;&gt;Node8</title>
<path style="fill:none;stroke:midnightblue;" d="M1118,-112C1159,-103 1220,-88 1264,-78"/>
<polygon style="fill:midnightblue;stroke:midnightblue;" points="1264.88,-81.3933 1274,-76 1263.51,-74.5292 1264.88,-81.3933"/>
</g>
<!-- Node19 -->
<g id="node38" class="node"><title>Node19</title>
<polygon style="fill:white;stroke:#bfbfbf;" points="2590,-0 2590,-20 2854,-20 2854,-0 2590,-0"/>
<text text-anchor="middle" x="2722" y="-7" style="font-family:Arial;font-size:10.00;">ltr/predictions_aggregators/sum_predictions_aggregator.h</text>
</g>
<!-- Node1&#45;&gt;Node19 -->
<g id="edge40" class="edge"><title>Node1&#45;&gt;Node19</title>
<path style="fill:none;stroke:midnightblue;" d="M1195,-112C1286,-103 1403,-90 1450,-76 1468,-70 1469,-60 1488,-56 1602,-25 2419,-26 2580,-19"/>
<polygon style="fill:midnightblue;stroke:midnightblue;" points="2580,-22.5001 2590,-19 2580,-15.5001 2580,-22.5001"/>
</g>
<!-- Node20 -->
<g id="node41" class="node"><title>Node20</title>
<a xlink:href="max__weight__predictions__aggregator_8h.html" target="_top" xlink:title="ltr/predictions_aggregators/max_weight_predictions_aggregator.h">
<polygon style="fill:white;stroke:black;" points="299,-56 299,-76 596,-76 596,-56 299,-56"/>
<text text-anchor="middle" x="447" y="-63" style="font-family:Arial;font-size:10.00;">ltr/predictions_aggregators/max_weight_predictions_aggregator.h</text>
</a>
</g>
<!-- Node1&#45;&gt;Node20 -->
<g id="edge42" class="edge"><title>Node1&#45;&gt;Node20</title>
<path style="fill:none;stroke:midnightblue;" d="M963,-112C852,-102 683,-87 569,-77"/>
<polygon style="fill:midnightblue;stroke:midnightblue;" points="569.299,-73.5125 559,-76 568.602,-80.4778 569.299,-73.5125"/>
</g>
<!-- Node22 -->
<g id="node48" class="node"><title>Node22</title>
<a xlink:href="order__statistic__predictions__aggregator_8h.html" target="_top" xlink:title="ltr/predictions_aggregators/order_statistic_predictions_aggregator.h">
<polygon style="fill:white;stroke:black;" points="613,-56 613,-76 919,-76 919,-56 613,-56"/>
<text text-anchor="middle" x="766" y="-63" style="font-family:Arial;font-size:10.00;">ltr/predictions_aggregators/order_statistic_predictions_aggregator.h</text>
</a>
</g>
<!-- Node1&#45;&gt;Node22 -->
<g id="edge52" class="edge"><title>Node1&#45;&gt;Node22</title>
<path style="fill:none;stroke:midnightblue;" d="M1020,-112C967,-103 887,-88 831,-78"/>
<polygon style="fill:midnightblue;stroke:midnightblue;" points="831.492,-74.5292 821,-76 830.119,-81.3933 831.492,-74.5292"/>
</g>
<!-- Node25 -->
<g id="node60" class="node"><title>Node25</title>
<polygon style="fill:white;stroke:#bfbfbf;" points="1621,-56 1621,-76 1872,-76 1872,-56 1621,-56"/>
<text text-anchor="middle" x="1746" y="-63" style="font-family:Arial;font-size:10.00;">ltr/learners/best_feature_learner/best_feature_learner.h</text>
</g>
<!-- Node1&#45;&gt;Node25 -->
<g id="edge70" class="edge"><title>Node1&#45;&gt;Node25</title>
<path style="fill:none;stroke:midnightblue;" d="M1195,-112C1314,-102 1495,-87 1617,-77"/>
<polygon style="fill:midnightblue;stroke:midnightblue;" points="1617.4,-80.4778 1627,-76 1616.7,-73.5125 1617.4,-80.4778"/>
</g>
<!-- Node26 -->
<g id="node62" class="node"><title>Node26</title>
<polygon style="fill:white;stroke:#bfbfbf;" points="1889,-56 1889,-76 2010,-76 2010,-56 1889,-56"/>
<text text-anchor="middle" x="1949" y="-63" style="font-family:Arial;font-size:10.00;">ltr/measures/abs_error.h</text>
</g>
<!-- Node1&#45;&gt;Node26 -->
<g id="edge72" class="edge"><title>Node1&#45;&gt;Node26</title>
<path style="fill:none;stroke:midnightblue;" d="M1222,-117C1382,-111 1643,-98 1879,-76"/>
<polygon style="fill:midnightblue;stroke:midnightblue;" points="1879.4,-79.4778 1889,-75 1878.7,-72.5125 1879.4,-79.4778"/>
</g>
<!-- Node27 -->
<g id="node64" class="node"><title>Node27</title>
<a xlink:href="true__point_8h.html" target="_top" xlink:title="ltr/measures/true_point.h">
<polygon style="fill:white;stroke:black;" points="1013,-56 1013,-76 1137,-76 1137,-56 1013,-56"/>
<text text-anchor="middle" x="1075" y="-63" style="font-family:Arial;font-size:10.00;">ltr/measures/true_point.h</text>
</a>
</g>
<!-- Node1&#45;&gt;Node27 -->
<g id="edge74" class="edge"><title>Node1&#45;&gt;Node27</title>
<path style="fill:none;stroke:midnightblue;" d="M1075,-112C1075,-105 1075,-95 1075,-86"/>
<polygon style="fill:midnightblue;stroke:midnightblue;" points="1078.5,-86 1075,-76 1071.5,-86 1078.5,-86"/>
</g>
<!-- Node8&#45;&gt;Node3 -->
<g id="edge26" class="edge"><title>Node8&#45;&gt;Node3</title>
<path style="fill:none;stroke:midnightblue;" d="M1315,-56C1314,-49 1312,-39 1310,-30"/>
<polygon style="fill:midnightblue;stroke:midnightblue;" points="1313.48,-29.6021 1309,-20 1306.51,-30.2987 1313.48,-29.6021"/>
</g>
<!-- Node9 -->
<g id="node17" class="node"><title>Node9</title>
<polygon style="fill:white;stroke:#bfbfbf;" points="870,-0 870,-20 944,-20 944,-0 870,-0"/>
<text text-anchor="middle" x="907" y="-7" style="font-family:Arial;font-size:10.00;">logog/logog.h</text>
</g>
<!-- Node8&#45;&gt;Node9 -->
<g id="edge16" class="edge"><title>Node8&#45;&gt;Node9</title>
<path style="fill:none;stroke:midnightblue;" d="M1220,-56C1149,-48 1050,-36 954,-20"/>
<polygon style="fill:midnightblue;stroke:midnightblue;" points="954.492,-16.5292 944,-18 953.119,-23.3933 954.492,-16.5292"/>
</g>
<!-- Node10 -->
<g id="node19" class="node"><title>Node10</title>
<polygon style="fill:white;stroke:#bfbfbf;" points="812,-0 812,-20 852,-20 852,-0 812,-0"/>
<text text-anchor="middle" x="832" y="-7" style="font-family:Arial;font-size:10.00;">string</text>
</g>
<!-- Node8&#45;&gt;Node10 -->
<g id="edge18" class="edge"><title>Node8&#45;&gt;Node10</title>
<path style="fill:none;stroke:midnightblue;" d="M1193,-57C1085,-47 936,-34 862,-20"/>
<polygon style="fill:midnightblue;stroke:midnightblue;" points="862.492,-16.5292 852,-18 861.119,-23.3933 862.492,-16.5292"/>
</g>
<!-- Node11 -->
<g id="node21" class="node"><title>Node11</title>
<polygon style="fill:white;stroke:#bfbfbf;" points="2126,-0 2126,-20 2183,-20 2183,-0 2126,-0"/>
<text text-anchor="middle" x="2154" y="-7" style="font-family:Arial;font-size:10.00;">functional</text>
</g>
<!-- Node8&#45;&gt;Node11 -->
<g id="edge20" class="edge"><title>Node8&#45;&gt;Node11</title>
<path style="fill:none;stroke:midnightblue;" d="M1442,-57C1446,-56 1451,-56 1455,-56 1746,-37 1824,-65 2116,-20"/>
<polygon style="fill:midnightblue;stroke:midnightblue;" points="2116.88,-23.3933 2126,-18 2115.51,-16.5292 2116.88,-23.3933"/>
</g>
<!-- Node12 -->
<g id="node23" class="node"><title>Node12</title>
<polygon style="fill:white;stroke:#bfbfbf;" points="2200,-0 2200,-20 2307,-20 2307,-0 2200,-0"/>
<text text-anchor="middle" x="2253" y="-7" style="font-family:Arial;font-size:10.00;">ltr/utility/shared_ptr.h</text>
</g>
<!-- Node8&#45;&gt;Node12 -->
<g id="edge22" class="edge"><title>Node8&#45;&gt;Node12</title>
<path style="fill:none;stroke:midnightblue;" d="M1442,-57C1446,-56 1451,-56 1455,-56 1778,-36 1863,-54 2190,-20"/>
<polygon style="fill:midnightblue;stroke:midnightblue;" points="2190.4,-23.4778 2200,-19 2189.7,-16.5125 2190.4,-23.4778"/>
</g>
<!-- Node13 -->
<g id="node25" class="node"><title>Node13</title>
<polygon style="fill:white;stroke:#bfbfbf;" points="1124,-0 1124,-20 1243,-20 1243,-0 1124,-0"/>
<text text-anchor="middle" x="1183" y="-7" style="font-family:Arial;font-size:10.00;">ltr/measures/measure.h</text>
</g>
<!-- Node8&#45;&gt;Node13 -->
<g id="edge24" class="edge"><title>Node8&#45;&gt;Node13</title>
<path style="fill:none;stroke:midnightblue;" d="M1293,-56C1272,-47 1241,-34 1217,-24"/>
<polygon style="fill:midnightblue;stroke:midnightblue;" points="1217.58,-20.4643 1207,-20 1214.98,-26.9636 1217.58,-20.4643"/>
</g>
<!-- Node14 -->
<g id="node28" class="node"><title>Node14</title>
<polygon style="fill:white;stroke:#bfbfbf;" points="2324,-0 2324,-20 2572,-20 2572,-0 2324,-0"/>
<text text-anchor="middle" x="2448" y="-7" style="font-family:Arial;font-size:10.00;">ltr/scorers/composition_scorers/composition_scorer.h</text>
</g>
<!-- Node8&#45;&gt;Node14 -->
<g id="edge28" class="edge"><title>Node8&#45;&gt;Node14</title>
<path style="fill:none;stroke:midnightblue;" d="M1442,-57C1446,-56 1451,-56 1455,-56 1833,-34 1931,-42 2314,-20"/>
<polygon style="fill:midnightblue;stroke:midnightblue;" points="2314.4,-23.4778 2324,-19 2313.7,-16.5125 2314.4,-23.4778"/>
</g>
<!-- Node15 -->
<g id="node30" class="node"><title>Node15</title>
<polygon style="fill:white;stroke:#bfbfbf;" points="1372,-0 1372,-20 1474,-20 1474,-0 1372,-0"/>
<text text-anchor="middle" x="1423" y="-7" style="font-family:Arial;font-size:10.00;">ltr/learners/learner.h</text>
</g>
<!-- Node8&#45;&gt;Node15 -->
<g id="edge30" class="edge"><title>Node8&#45;&gt;Node15</title>
<path style="fill:none;stroke:midnightblue;" d="M1336,-56C1352,-47 1376,-34 1395,-25"/>
<polygon style="fill:midnightblue;stroke:midnightblue;" points="1396.96,-27.916 1404,-20 1393.56,-21.7969 1396.96,-27.916"/>
</g>
<!-- Node16 -->
<g id="node32" class="node"><title>Node16</title>
<polygon style="fill:white;stroke:#bfbfbf;" points="1492,-0 1492,-20 1768,-20 1768,-0 1492,-0"/>
<text text-anchor="middle" x="1630" y="-7" style="font-family:Arial;font-size:10.00;">ltr/learners/composition_learner/data_set_weights_updater.h</text>
</g>
<!-- Node8&#45;&gt;Node16 -->
<g id="edge32" class="edge"><title>Node8&#45;&gt;Node16</title>
<path style="fill:none;stroke:midnightblue;" d="M1373,-56C1427,-47 1507,-32 1564,-22"/>
<polygon style="fill:midnightblue;stroke:midnightblue;" points="1564.88,-25.3933 1574,-20 1563.51,-18.5292 1564.88,-25.3933"/>
</g>
<!-- Node17 -->
<g id="node34" class="node"><title>Node17</title>
<polygon style="fill:white;stroke:#bfbfbf;" points="1786,-0 1786,-20 2109,-20 2109,-0 1786,-0"/>
<text text-anchor="middle" x="1947" y="-7" style="font-family:Arial;font-size:10.00;">ltr/learners/composition_learner/composition_scorer_weights_updater.h</text>
</g>
<!-- Node8&#45;&gt;Node17 -->
<g id="edge34" class="edge"><title>Node8&#45;&gt;Node17</title>
<path style="fill:none;stroke:midnightblue;" d="M1430,-56C1541,-46 1711,-31 1825,-21"/>
<polygon style="fill:midnightblue;stroke:midnightblue;" points="1825.4,-24.4778 1835,-20 1824.7,-17.5125 1825.4,-24.4778"/>
</g>
<!-- Node18 -->
<g id="node36" class="node"><title>Node18</title>
<polygon style="fill:white;stroke:#bfbfbf;" points="480,-0 480,-20 720,-20 720,-0 480,-0"/>
<text text-anchor="middle" x="600" y="-7" style="font-family:Arial;font-size:10.00;">ltr/predictions_aggregators/predictions_aggregator.h</text>
</g>
<!-- Node8&#45;&gt;Node18 -->
<g id="edge36" class="edge"><title>Node8&#45;&gt;Node18</title>
<path style="fill:none;stroke:midnightblue;" d="M1193,-56C1063,-46 862,-30 730,-20"/>
<polygon style="fill:midnightblue;stroke:midnightblue;" points="730.299,-16.5125 720,-19 729.602,-23.4778 730.299,-16.5125"/>
</g>
<!-- Node8&#45;&gt;Node19 -->
<g id="edge38" class="edge"><title>Node8&#45;&gt;Node19</title>
<path style="fill:none;stroke:midnightblue;" d="M1442,-57C1446,-56 1451,-56 1455,-56 1952,-29 2078,-45 2580,-20"/>
<polygon style="fill:midnightblue;stroke:midnightblue;" points="2580.4,-23.4778 2590,-19 2579.7,-16.5125 2580.4,-23.4778"/>
</g>
<!-- Node20&#45;&gt;Node7 -->
<g id="edge50" class="edge"><title>Node20&#45;&gt;Node7</title>
<path style="fill:none;stroke:midnightblue;" d="M409,-56C374,-47 321,-33 282,-23"/>
<polygon style="fill:midnightblue;stroke:midnightblue;" points="282.584,-19.5212 272,-20 280.573,-26.2259 282.584,-19.5212"/>
</g>
<!-- Node20&#45;&gt;Node10 -->
<g id="edge46" class="edge"><title>Node20&#45;&gt;Node10</title>
<path style="fill:none;stroke:midnightblue;" d="M572,-56C638,-49 720,-39 802,-19"/>
<polygon style="fill:midnightblue;stroke:midnightblue;" points="802.881,-22.3933 812,-17 801.508,-15.5292 802.881,-22.3933"/>
</g>
<!-- Node20&#45;&gt;Node18 -->
<g id="edge48" class="edge"><title>Node20&#45;&gt;Node18</title>
<path style="fill:none;stroke:midnightblue;" d="M474,-56C499,-47 536,-33 563,-23"/>
<polygon style="fill:midnightblue;stroke:midnightblue;" points="564.427,-26.2259 573,-20 562.416,-19.5212 564.427,-26.2259"/>
</g>
<!-- Node21 -->
<g id="node43" class="node"><title>Node21</title>
<polygon style="fill:white;stroke:#bfbfbf;" points="364,-0 364,-20 406,-20 406,-0 364,-0"/>
<text text-anchor="middle" x="385" y="-7" style="font-family:Arial;font-size:10.00;">vector</text>
</g>
<!-- Node20&#45;&gt;Node21 -->
<g id="edge44" class="edge"><title>Node20&#45;&gt;Node21</title>
<path style="fill:none;stroke:midnightblue;" d="M436,-56C427,-48 414,-37 404,-27"/>
<polygon style="fill:midnightblue;stroke:midnightblue;" points="405.831,-23.9511 396,-20 401.221,-29.2191 405.831,-23.9511"/>
</g>
<!-- Node22&#45;&gt;Node6 -->
<g id="edge68" class="edge"><title>Node22&#45;&gt;Node6</title>
<path style="fill:none;stroke:midnightblue;" d="M615,-56C447,-45 189,-27 114,-20"/>
<polygon style="fill:midnightblue;stroke:midnightblue;" points="114.299,-16.5125 104,-19 113.602,-23.4778 114.299,-16.5125"/>
</g>
<!-- Node22&#45;&gt;Node7 -->
<g id="edge66" class="edge"><title>Node22&#45;&gt;Node7</title>
<path style="fill:none;stroke:midnightblue;" d="M671,-56C577,-46 435,-31 339,-21"/>
<polygon style="fill:midnightblue;stroke:midnightblue;" points="339.299,-17.5125 329,-20 338.602,-24.4778 339.299,-17.5125"/>
</g>
<!-- Node22&#45;&gt;Node9 -->
<g id="edge62" class="edge"><title>Node22&#45;&gt;Node9</title>
<path style="fill:none;stroke:midnightblue;" d="M791,-56C814,-47 847,-34 872,-24"/>
<polygon style="fill:midnightblue;stroke:midnightblue;" points="874.015,-26.9636 882,-20 871.415,-20.4643 874.015,-26.9636"/>
</g>
<!-- Node22&#45;&gt;Node10 -->
<g id="edge56" class="edge"><title>Node22&#45;&gt;Node10</title>
<path style="fill:none;stroke:midnightblue;" d="M778,-56C788,-48 801,-37 812,-27"/>
<polygon style="fill:midnightblue;stroke:midnightblue;" points="814.779,-29.2191 820,-20 810.169,-23.9511 814.779,-29.2191"/>
</g>
<!-- Node22&#45;&gt;Node18 -->
<g id="edge64" class="edge"><title>Node22&#45;&gt;Node18</title>
<path style="fill:none;stroke:midnightblue;" d="M736,-56C709,-47 669,-33 640,-23"/>
<polygon style="fill:midnightblue;stroke:midnightblue;" points="640.584,-19.5212 630,-20 638.573,-26.2259 640.584,-19.5212"/>
</g>
<!-- Node22&#45;&gt;Node21 -->
<g id="edge54" class="edge"><title>Node22&#45;&gt;Node21</title>
<path style="fill:none;stroke:midnightblue;" d="M647,-56C581,-49 498,-38 416,-19"/>
<polygon style="fill:midnightblue;stroke:midnightblue;" points="416.492,-15.5292 406,-17 415.119,-22.3933 416.492,-15.5292"/>
</g>
<!-- Node23 -->
<g id="node52" class="node"><title>Node23</title>
<polygon style="fill:white;stroke:#bfbfbf;" points="424,-0 424,-20 463,-20 463,-0 424,-0"/>
<text text-anchor="middle" x="443" y="-7" style="font-family:Arial;font-size:10.00;">utility</text>
</g>
<!-- Node22&#45;&gt;Node23 -->
<g id="edge58" class="edge"><title>Node22&#45;&gt;Node23</title>
<path style="fill:none;stroke:midnightblue;" d="M674,-56C618,-49 545,-38 473,-20"/>
<polygon style="fill:midnightblue;stroke:midnightblue;" points="473.584,-16.5212 463,-17 471.573,-23.2259 473.584,-16.5212"/>
</g>
<!-- Node24 -->
<g id="node54" class="node"><title>Node24</title>
<polygon style="fill:white;stroke:#bfbfbf;" points="738,-0 738,-20 794,-20 794,-0 738,-0"/>
<text text-anchor="middle" x="766" y="-7" style="font-family:Arial;font-size:10.00;">algorithm</text>
</g>
<!-- Node22&#45;&gt;Node24 -->
<g id="edge60" class="edge"><title>Node22&#45;&gt;Node24</title>
<path style="fill:none;stroke:midnightblue;" d="M766,-56C766,-49 766,-39 766,-30"/>
<polygon style="fill:midnightblue;stroke:midnightblue;" points="769.5,-30 766,-20 762.5,-30 769.5,-30"/>
</g>
<!-- Node27&#45;&gt;Node4 -->
<g id="edge82" class="edge"><title>Node27&#45;&gt;Node4</title>
<path style="fill:none;stroke:midnightblue;" d="M1062,-56C1052,-48 1037,-36 1025,-27"/>
<polygon style="fill:midnightblue;stroke:midnightblue;" points="1026.83,-23.9511 1017,-20 1022.22,-29.2191 1026.83,-23.9511"/>
</g>
<!-- Node27&#45;&gt;Node10 -->
<g id="edge78" class="edge"><title>Node27&#45;&gt;Node10</title>
<path style="fill:none;stroke:midnightblue;" d="M1019,-56C978,-48 920,-36 862,-20"/>
<polygon style="fill:midnightblue;stroke:midnightblue;" points="862.584,-16.5212 852,-17 860.573,-23.2259 862.584,-16.5212"/>
</g>
<!-- Node27&#45;&gt;Node13 -->
<g id="edge80" class="edge"><title>Node27&#45;&gt;Node13</title>
<path style="fill:none;stroke:midnightblue;" d="M1094,-56C1110,-47 1135,-34 1154,-25"/>
<polygon style="fill:midnightblue;stroke:midnightblue;" points="1155.96,-27.916 1163,-20 1152.56,-21.7969 1155.96,-27.916"/>
</g>
<!-- Node28 -->
<g id="node66" class="node"><title>Node28</title>
<polygon style="fill:white;stroke:#bfbfbf;" points="1064,-0 1064,-20 1107,-20 1107,-0 1064,-0"/>
<text text-anchor="middle" x="1085" y="-7" style="font-family:Arial;font-size:10.00;">cmath</text>
</g>
<!-- Node27&#45;&gt;Node28 -->
<g id="edge76" class="edge"><title>Node27&#45;&gt;Node28</title>
<path style="fill:none;stroke:midnightblue;" d="M1077,-56C1078,-49 1080,-39 1082,-30"/>
<polygon style="fill:midnightblue;stroke:midnightblue;" points="1085.49,-30.2987 1083,-20 1078.52,-29.6021 1085.49,-30.2987"/>
</g>
</g>
</svg>
