<?xml version="1.0" encoding="UTF-8" standalone="no"?>
<!DOCTYPE svg PUBLIC "-//W3C//DTD SVG 1.0//EN"
 "http://www.w3.org/TR/2001/REC-SVG-20010904/DTD/svg10.dtd" [
 <!ATTLIST svg xmlns:xlink CDATA #FIXED "http://www.w3.org/1999/xlink">
]>
<!-- Generated by Graphviz version 2.20.2 (Tue Mar &#160;2 19:03:41 UTC 2010)
     For user: (jenkins)  -->
<!-- Title: G Pages: 1 -->
<svg width="2714pt" height="252pt"
 viewBox="0.00 0.00 2714.00 252.00" xmlns="http://www.w3.org/2000/svg" xmlns:xlink="http://www.w3.org/1999/xlink">
<g id="graph0" class="graph" transform="scale(1 1) rotate(0) translate(4 248)">
<title>G</title>
<polygon style="fill:white;stroke:white;" points="-4,4 -4,-248 2710,-248 2710,4 -4,4"/>
<!-- Node1 -->
<g id="node1" class="node"><title>Node1</title>
<polygon style="fill:#bfbfbf;stroke:black;" points="1124,-224 1124,-244 1372,-244 1372,-224 1124,-224"/>
<text text-anchor="middle" x="1248" y="-231" style="font-family:Arial;font-size:10.00;">ltr/scorers/composition_scorers/composition_scorer.h</text>
</g>
<!-- Node2 -->
<g id="node3" class="node"><title>Node2</title>
<a xlink:href="tostring__unittest_8cc.html" target="_top" xlink:title="ltr/data/tostring_unittest.cc">
<polygon style="fill:white;stroke:black;" points="150,-168 150,-188 282,-188 282,-168 150,-168"/>
<text text-anchor="middle" x="216" y="-175" style="font-family:Arial;font-size:10.00;">ltr/data/tostring_unittest.cc</text>
</a>
</g>
<!-- Node1&#45;&gt;Node2 -->
<g id="edge2" class="edge"><title>Node1&#45;&gt;Node2</title>
<path style="fill:none;stroke:midnightblue;" d="M1114,-231C929,-226 587,-213 296,-188 291,-187 287,-187 282,-186"/>
<polygon style="fill:midnightblue;stroke:midnightblue;" points="1114,-234.5 1124,-231 1114,-227.5 1114,-234.5"/>
</g>
<!-- Node3 -->
<g id="node5" class="node"><title>Node3</title>
<a xlink:href="ada__boost__data__set__weights__updater_8h.html" target="_top" xlink:title="ltr/learners/composition_learner/ada_boost_data_set_weights_updater.h">
<polygon style="fill:white;stroke:black;" points="414,-112 414,-132 740,-132 740,-112 414,-112"/>
<text text-anchor="middle" x="577" y="-119" style="font-family:Arial;font-size:10.00;">ltr/learners/composition_learner/ada_boost_data_set_weights_updater.h</text>
</a>
</g>
<!-- Node1&#45;&gt;Node3 -->
<g id="edge4" class="edge"><title>Node1&#45;&gt;Node3</title>
<path style="fill:none;stroke:midnightblue;" d="M1174,-222C1115,-213 1033,-200 960,-188 844,-168 709,-145 635,-132"/>
<polygon style="fill:midnightblue;stroke:midnightblue;" points="1173.51,-225.471 1184,-224 1174.88,-218.607 1173.51,-225.471"/>
</g>
<!-- Node4 -->
<g id="node7" class="node"><title>Node4</title>
<a xlink:href="ada__boost__learner_8h.html" target="_top" xlink:title="ltr/learners/composition_learner/ada_boost_learner.h">
<polygon style="fill:white;stroke:black;" points="500,-56 500,-76 742,-76 742,-56 500,-56"/>
<text text-anchor="middle" x="621" y="-63" style="font-family:Arial;font-size:10.00;">ltr/learners/composition_learner/ada_boost_learner.h</text>
</a>
</g>
<!-- Node1&#45;&gt;Node4 -->
<g id="edge30" class="edge"><title>Node1&#45;&gt;Node4</title>
<path style="fill:none;stroke:midnightblue;" d="M1114,-230C889,-223 458,-207 430,-188 400,-167 382,-139 405,-112 419,-94 466,-83 512,-76"/>
<polygon style="fill:midnightblue;stroke:midnightblue;" points="1114,-233.5 1124,-230 1114,-226.5 1114,-233.5"/>
</g>
<!-- Node5 -->
<g id="node9" class="node"><title>Node5</title>
<a xlink:href="linear__composition__unittest_8cc.html" target="_top" xlink:title="ltr/learners/composition_learner/linear_composition_unittest.cc">
<polygon style="fill:white;stroke:black;" points="799,-0 799,-20 1086,-20 1086,-0 799,-0"/>
<text text-anchor="middle" x="942" y="-7" style="font-family:Arial;font-size:10.00;">ltr/learners/composition_learner/linear_composition_unittest.cc</text>
</a>
</g>
<!-- Node1&#45;&gt;Node5 -->
<g id="edge56" class="edge"><title>Node1&#45;&gt;Node5</title>
<path style="fill:none;stroke:midnightblue;" d="M1382,-228C1505,-221 1677,-208 1741,-188 1786,-172 1809,-173 1833,-132 1841,-117 1849,-75 1830,-56 1804,-30 1331,-17 1086,-12"/>
<polygon style="fill:midnightblue;stroke:midnightblue;" points="1381.6,-224.522 1372,-229 1382.3,-231.488 1381.6,-224.522"/>
</g>
<!-- Node6 -->
<g id="node12" class="node"><title>Node6</title>
<a xlink:href="data__set__weights__updater_8h.html" target="_top" xlink:title="ltr/learners/composition_learner/data_set_weights_updater.h">
<polygon style="fill:white;stroke:black;" points="439,-168 439,-188 715,-188 715,-168 439,-168"/>
<text text-anchor="middle" x="577" y="-175" style="font-family:Arial;font-size:10.00;">ltr/learners/composition_learner/data_set_weights_updater.h</text>
</a>
</g>
<!-- Node1&#45;&gt;Node6 -->
<g id="edge12" class="edge"><title>Node1&#45;&gt;Node6</title>
<path style="fill:none;stroke:midnightblue;" d="M1118,-223C996,-213 815,-198 696,-188"/>
<polygon style="fill:midnightblue;stroke:midnightblue;" points="1117.7,-226.488 1128,-224 1118.4,-219.522 1117.7,-226.488"/>
</g>
<!-- Node7 -->
<g id="node15" class="node"><title>Node7</title>
<a xlink:href="ada__rank__data__set__weights__updater_8h.html" target="_top" xlink:title="ltr/learners/composition_learner/ada_rank_data_set_weights_updater.h">
<polygon style="fill:white;stroke:black;" points="0,-112 0,-132 321,-132 321,-112 0,-112"/>
<text text-anchor="middle" x="160" y="-119" style="font-family:Arial;font-size:10.00;">ltr/learners/composition_learner/ada_rank_data_set_weights_updater.h</text>
</a>
</g>
<!-- Node1&#45;&gt;Node7 -->
<g id="edge50" class="edge"><title>Node1&#45;&gt;Node7</title>
<path style="fill:none;stroke:midnightblue;" d="M1114,-230C878,-223 407,-206 334,-188 313,-182 310,-175 291,-168 258,-154 219,-141 192,-132"/>
<polygon style="fill:midnightblue;stroke:midnightblue;" points="1114,-233.5 1124,-230 1114,-226.5 1114,-233.5"/>
</g>
<!-- Node8 -->
<g id="node18" class="node"><title>Node8</title>
<a xlink:href="composition__learner_8h.html" target="_top" xlink:title="ltr/learners/composition_learner/composition_learner.h">
<polygon style="fill:white;stroke:black;" points="1182,-112 1182,-132 1431,-132 1431,-112 1182,-112"/>
<text text-anchor="middle" x="1306" y="-119" style="font-family:Arial;font-size:10.00;">ltr/learners/composition_learner/composition_learner.h</text>
</a>
</g>
<!-- Node1&#45;&gt;Node8 -->
<g id="edge54" class="edge"><title>Node1&#45;&gt;Node8</title>
<path style="fill:none;stroke:midnightblue;" d="M1287,-220C1302,-213 1316,-202 1324,-188 1334,-170 1322,-146 1313,-132"/>
<polygon style="fill:midnightblue;stroke:midnightblue;" points="1285.72,-216.74 1278,-224 1288.56,-223.137 1285.72,-216.74"/>
</g>
<!-- Node10 -->
<g id="node23" class="node"><title>Node10</title>
<a xlink:href="generator_8cc.html" target="_top" xlink:title="ltr/serialization_test/generator/generator.cc">
<polygon style="fill:white;stroke:black;" points="1621,-56 1621,-76 1822,-76 1822,-56 1621,-56"/>
<text text-anchor="middle" x="1721" y="-63" style="font-family:Arial;font-size:10.00;">ltr/serialization_test/generator/generator.cc</text>
</a>
</g>
<!-- Node1&#45;&gt;Node10 -->
<g id="edge64" class="edge"><title>Node1&#45;&gt;Node10</title>
<path style="fill:none;stroke:midnightblue;" d="M1382,-229C1533,-220 1762,-197 1817,-132 1838,-107 1794,-87 1759,-76"/>
<polygon style="fill:midnightblue;stroke:midnightblue;" points="1381.6,-225.522 1372,-230 1382.3,-232.488 1381.6,-225.522"/>
</g>
<!-- Node11 -->
<g id="node27" class="node"><title>Node11</title>
<a xlink:href="ada__rank__composition__scorer__weights__updater_8h.html" target="_top" xlink:title="ltr/learners/composition_learner/ada_rank_composition_scorer_weights_updater.h">
<polygon style="fill:white;stroke:black;" points="758,-112 758,-132 1126,-132 1126,-112 758,-112"/>
<text text-anchor="middle" x="942" y="-119" style="font-family:Arial;font-size:10.00;">ltr/learners/composition_learner/ada_rank_composition_scorer_weights_updater.h</text>
</a>
</g>
<!-- Node1&#45;&gt;Node11 -->
<g id="edge32" class="edge"><title>Node1&#45;&gt;Node11</title>
<path style="fill:none;stroke:midnightblue;" d="M1129,-223C1071,-216 1008,-204 984,-188 964,-174 951,-147 946,-132"/>
<polygon style="fill:midnightblue;stroke:midnightblue;" points="1128.7,-226.488 1139,-224 1129.4,-219.522 1128.7,-226.488"/>
</g>
<!-- Node12 -->
<g id="node31" class="node"><title>Node12</title>
<a xlink:href="composition__scorer__weights__updater_8h.html" target="_top" xlink:title="ltr/learners/composition_learner/composition_scorer_weights_updater.h">
<polygon style="fill:white;stroke:black;" points="993,-168 993,-188 1316,-188 1316,-168 993,-168"/>
<text text-anchor="middle" x="1154" y="-175" style="font-family:Arial;font-size:10.00;">ltr/learners/composition_learner/composition_scorer_weights_updater.h</text>
</a>
</g>
<!-- Node1&#45;&gt;Node12 -->
<g id="edge38" class="edge"><title>Node1&#45;&gt;Node12</title>
<path style="fill:none;stroke:midnightblue;" d="M1222,-219C1206,-209 1185,-196 1171,-188"/>
<polygon style="fill:midnightblue;stroke:midnightblue;" points="1220.56,-222.203 1231,-224 1223.96,-216.084 1220.56,-222.203"/>
</g>
<!-- Node13 -->
<g id="node34" class="node"><title>Node13</title>
<a xlink:href="average__composition__scorer__weights__updater_8h.html" target="_top" xlink:title="ltr/learners/composition_learner/average_composition_scorer_weights_updater.h">
<polygon style="fill:white;stroke:black;" points="1448,-112 1448,-132 1809,-132 1809,-112 1448,-112"/>
<text text-anchor="middle" x="1628" y="-119" style="font-family:Arial;font-size:10.00;">ltr/learners/composition_learner/average_composition_scorer_weights_updater.h</text>
</a>
</g>
<!-- Node1&#45;&gt;Node13 -->
<g id="edge52" class="edge"><title>Node1&#45;&gt;Node13</title>
<path style="fill:none;stroke:midnightblue;" d="M1292,-221C1368,-198 1524,-152 1594,-132"/>
<polygon style="fill:midnightblue;stroke:midnightblue;" points="1290.57,-217.774 1282,-224 1292.58,-224.479 1290.57,-217.774"/>
</g>
<!-- Node14 -->
<g id="node43" class="node"><title>Node14</title>
<a xlink:href="composition__scorer_8cc.html" target="_top" xlink:title="ltr/scorers/composition_scorers/composition_scorer.cc">
<polygon style="fill:white;stroke:black;" points="1902,-168 1902,-188 2155,-188 2155,-168 1902,-168"/>
<text text-anchor="middle" x="2028" y="-175" style="font-family:Arial;font-size:10.00;">ltr/scorers/composition_scorers/composition_scorer.cc</text>
</a>
</g>
<!-- Node1&#45;&gt;Node14 -->
<g id="edge58" class="edge"><title>Node1&#45;&gt;Node14</title>
<path style="fill:none;stroke:midnightblue;" d="M1382,-224C1528,-213 1759,-197 1902,-187"/>
<polygon style="fill:midnightblue;stroke:midnightblue;" points="1381.6,-220.522 1372,-225 1382.3,-227.488 1381.6,-220.522"/>
</g>
<!-- Node15 -->
<g id="node45" class="node"><title>Node15</title>
<a xlink:href="composition__scorer__unittest_8cc.html" target="_top" xlink:title="ltr/scorers/composition_scorers/composition_scorer_unittest.cc">
<polygon style="fill:white;stroke:black;" points="2172,-168 2172,-188 2463,-188 2463,-168 2172,-168"/>
<text text-anchor="middle" x="2317" y="-175" style="font-family:Arial;font-size:10.00;">ltr/scorers/composition_scorers/composition_scorer_unittest.cc</text>
</a>
</g>
<!-- Node1&#45;&gt;Node15 -->
<g id="edge60" class="edge"><title>Node1&#45;&gt;Node15</title>
<path style="fill:none;stroke:midnightblue;" d="M1382,-228C1561,-219 1885,-204 2163,-188 2166,-188 2169,-188 2172,-187"/>
<polygon style="fill:midnightblue;stroke:midnightblue;" points="1382,-224.5 1372,-228 1382,-231.5 1382,-224.5"/>
</g>
<!-- Node16 -->
<g id="node47" class="node"><title>Node16</title>
<a xlink:href="linear__composition__scorer__unittest_8cc.html" target="_top" xlink:title="ltr/scorers/linear_composition_scorer_unittest.cc">
<polygon style="fill:white;stroke:black;" points="2480,-168 2480,-188 2707,-188 2707,-168 2480,-168"/>
<text text-anchor="middle" x="2593" y="-175" style="font-family:Arial;font-size:10.00;">ltr/scorers/linear_composition_scorer_unittest.cc</text>
</a>
</g>
<!-- Node1&#45;&gt;Node16 -->
<g id="edge62" class="edge"><title>Node1&#45;&gt;Node16</title>
<path style="fill:none;stroke:midnightblue;" d="M1382,-231C1607,-225 2076,-212 2471,-188 2474,-188 2477,-188 2480,-187"/>
<polygon style="fill:midnightblue;stroke:midnightblue;" points="1382,-227.5 1372,-231 1382,-234.5 1382,-227.5"/>
</g>
<!-- Node3&#45;&gt;Node4 -->
<g id="edge6" class="edge"><title>Node3&#45;&gt;Node4</title>
<path style="fill:none;stroke:midnightblue;" d="M591,-104C599,-95 607,-84 613,-76"/>
<polygon style="fill:midnightblue;stroke:midnightblue;" points="588.2,-101.9 585,-112 593.8,-106.1 588.2,-101.9"/>
</g>
<!-- Node3&#45;&gt;Node5 -->
<g id="edge10" class="edge"><title>Node3&#45;&gt;Node5</title>
<path style="fill:none;stroke:midnightblue;" d="M628,-109C662,-101 710,-89 751,-76 809,-58 877,-33 914,-20"/>
<polygon style="fill:midnightblue;stroke:midnightblue;" points="626.573,-105.774 618,-112 628.584,-112.479 626.573,-105.774"/>
</g>
<!-- Node4&#45;&gt;Node5 -->
<g id="edge8" class="edge"><title>Node4&#45;&gt;Node5</title>
<path style="fill:none;stroke:midnightblue;" d="M688,-54C747,-44 830,-29 885,-20"/>
<polygon style="fill:midnightblue;stroke:midnightblue;" points="687.119,-50.6067 678,-56 688.492,-57.4708 687.119,-50.6067"/>
</g>
<!-- Node6&#45;&gt;Node3 -->
<g id="edge14" class="edge"><title>Node6&#45;&gt;Node3</title>
<path style="fill:none;stroke:midnightblue;" d="M577,-158C577,-149 577,-140 577,-132"/>
<polygon style="fill:midnightblue;stroke:midnightblue;" points="573.5,-158 577,-168 580.5,-158 573.5,-158"/>
</g>
<!-- Node6&#45;&gt;Node5 -->
<g id="edge28" class="edge"><title>Node6&#45;&gt;Node5</title>
<path style="fill:none;stroke:midnightblue;" d="M497,-166C458,-158 417,-147 405,-132 399,-124 400,-119 405,-112 426,-71 447,-71 491,-56 545,-36 688,-24 799,-17"/>
<polygon style="fill:midnightblue;stroke:midnightblue;" points="496.508,-169.471 507,-168 497.881,-162.607 496.508,-169.471"/>
</g>
<!-- Node6&#45;&gt;Node7 -->
<g id="edge16" class="edge"><title>Node6&#45;&gt;Node7</title>
<path style="fill:none;stroke:midnightblue;" d="M492,-167C417,-157 307,-142 234,-132"/>
<polygon style="fill:midnightblue;stroke:midnightblue;" points="491.701,-170.488 502,-168 492.398,-163.522 491.701,-170.488"/>
</g>
<!-- Node6&#45;&gt;Node8 -->
<g id="edge20" class="edge"><title>Node6&#45;&gt;Node8</title>
<path style="fill:none;stroke:midnightblue;" d="M717,-167C852,-157 1053,-142 1182,-132"/>
<polygon style="fill:midnightblue;stroke:midnightblue;" points="716.602,-163.522 707,-168 717.299,-170.488 716.602,-163.522"/>
</g>
<!-- Node7&#45;&gt;Node5 -->
<g id="edge18" class="edge"><title>Node7&#45;&gt;Node5</title>
<path style="fill:none;stroke:midnightblue;" d="M195,-108C237,-93 308,-68 372,-56 450,-40 657,-26 799,-18"/>
<polygon style="fill:midnightblue;stroke:midnightblue;" points="192.985,-105.036 185,-112 195.585,-111.536 192.985,-105.036"/>
</g>
<!-- Node8&#45;&gt;Node5 -->
<g id="edge24" class="edge"><title>Node8&#45;&gt;Node5</title>
<path style="fill:none;stroke:midnightblue;" d="M1412,-110C1459,-101 1498,-84 1472,-56 1446,-28 1234,-17 1086,-13"/>
<polygon style="fill:midnightblue;stroke:midnightblue;" points="1411.12,-106.607 1402,-112 1412.49,-113.471 1411.12,-106.607"/>
</g>
<!-- Node9 -->
<g id="node20" class="node"><title>Node9</title>
<a xlink:href="composition__learner__unittest_8cc.html" target="_top" xlink:title="ltr/learners/composition_learner/composition_learner_unittest.cc">
<polygon style="fill:white;stroke:black;" points="1171,-56 1171,-76 1464,-76 1464,-56 1171,-56"/>
<text text-anchor="middle" x="1317" y="-63" style="font-family:Arial;font-size:10.00;">ltr/learners/composition_learner/composition_learner_unittest.cc</text>
</a>
</g>
<!-- Node8&#45;&gt;Node9 -->
<g id="edge22" class="edge"><title>Node8&#45;&gt;Node9</title>
<path style="fill:none;stroke:midnightblue;" d="M1310,-102C1312,-93 1314,-84 1315,-76"/>
<polygon style="fill:midnightblue;stroke:midnightblue;" points="1306.53,-101.508 1308,-112 1313.39,-102.881 1306.53,-101.508"/>
</g>
<!-- Node8&#45;&gt;Node10 -->
<g id="edge26" class="edge"><title>Node8&#45;&gt;Node10</title>
<path style="fill:none;stroke:midnightblue;" d="M1390,-111C1466,-101 1575,-86 1647,-76"/>
<polygon style="fill:midnightblue;stroke:midnightblue;" points="1389.6,-107.522 1380,-112 1390.3,-114.488 1389.6,-107.522"/>
</g>
<!-- Node11&#45;&gt;Node4 -->
<g id="edge34" class="edge"><title>Node11&#45;&gt;Node4</title>
<path style="fill:none;stroke:midnightblue;" d="M875,-110C816,-100 733,-85 678,-76"/>
<polygon style="fill:midnightblue;stroke:midnightblue;" points="874.508,-113.471 885,-112 875.881,-106.607 874.508,-113.471"/>
</g>
<!-- Node11&#45;&gt;Node5 -->
<g id="edge36" class="edge"><title>Node11&#45;&gt;Node5</title>
<path style="fill:none;stroke:midnightblue;" d="M942,-102C942,-78 942,-39 942,-20"/>
<polygon style="fill:midnightblue;stroke:midnightblue;" points="938.5,-102 942,-112 945.5,-102 938.5,-102"/>
</g>
<!-- Node12&#45;&gt;Node5 -->
<g id="edge48" class="edge"><title>Node12&#45;&gt;Node5</title>
<path style="fill:none;stroke:midnightblue;" d="M1152,-158C1150,-143 1145,-125 1135,-112 1094,-62 1023,-34 980,-20"/>
<polygon style="fill:midnightblue;stroke:midnightblue;" points="1148.52,-158.398 1153,-168 1155.49,-157.701 1148.52,-158.398"/>
</g>
<!-- Node12&#45;&gt;Node8 -->
<g id="edge46" class="edge"><title>Node12&#45;&gt;Node8</title>
<path style="fill:none;stroke:midnightblue;" d="M1191,-165C1218,-155 1254,-141 1279,-132"/>
<polygon style="fill:midnightblue;stroke:midnightblue;" points="1189.57,-161.774 1181,-168 1191.58,-168.479 1189.57,-161.774"/>
</g>
<!-- Node12&#45;&gt;Node11 -->
<g id="edge40" class="edge"><title>Node12&#45;&gt;Node11</title>
<path style="fill:none;stroke:midnightblue;" d="M1106,-165C1068,-155 1015,-141 980,-132"/>
<polygon style="fill:midnightblue;stroke:midnightblue;" points="1105.42,-168.479 1116,-168 1107.43,-161.774 1105.42,-168.479"/>
</g>
<!-- Node12&#45;&gt;Node13 -->
<g id="edge42" class="edge"><title>Node12&#45;&gt;Node13</title>
<path style="fill:none;stroke:midnightblue;" d="M1249,-167C1335,-157 1461,-142 1544,-132"/>
<polygon style="fill:midnightblue;stroke:midnightblue;" points="1248.6,-163.522 1239,-168 1249.3,-170.488 1248.6,-163.522"/>
</g>
<!-- Node13&#45;&gt;Node5 -->
<g id="edge44" class="edge"><title>Node13&#45;&gt;Node5</title>
<path style="fill:none;stroke:midnightblue;" d="M1603,-107C1576,-91 1531,-67 1489,-56 1416,-36 1222,-23 1086,-16"/>
<polygon style="fill:midnightblue;stroke:midnightblue;" points="1601.56,-110.203 1612,-112 1604.96,-104.084 1601.56,-110.203"/>
</g>
</g>
</svg>
