<?xml version="1.0" encoding="UTF-8" standalone="no"?>
<!DOCTYPE svg PUBLIC "-//W3C//DTD SVG 1.0//EN"
 "http://www.w3.org/TR/2001/REC-SVG-20010904/DTD/svg10.dtd" [
 <!ATTLIST svg xmlns:xlink CDATA #FIXED "http://www.w3.org/1999/xlink">
]>
<!-- Generated by Graphviz version 2.20.2 (Tue Mar &#160;2 19:03:41 UTC 2010)
     For user: (jenkins)  -->
<!-- Title: G Pages: 1 -->
<svg width="1182pt" height="84pt"
 viewBox="0.00 0.00 1182.00 84.00" xmlns="http://www.w3.org/2000/svg" xmlns:xlink="http://www.w3.org/1999/xlink">
<g id="graph0" class="graph" transform="scale(1 1) rotate(0) translate(4 80)">
<title>G</title>
<polygon style="fill:white;stroke:white;" points="-4,4 -4,-80 1178,-80 1178,4 -4,4"/>
<!-- Node1 -->
<g id="node1" class="node"><title>Node1</title>
<polygon style="fill:#bfbfbf;stroke:black;" points="280,-56 280,-76 603,-76 603,-56 280,-56"/>
<text text-anchor="middle" x="441" y="-63" style="font-family:Arial;font-size:10.00;">ltr/learners/composition_learner/composition_scorer_weights_updater.h</text>
</g>
<!-- Node2 -->
<g id="node3" class="node"><title>Node2</title>
<polygon style="fill:white;stroke:#bfbfbf;" points="0,-0 0,-20 40,-20 40,-0 0,-0"/>
<text text-anchor="middle" x="20" y="-7" style="font-family:Arial;font-size:10.00;">string</text>
</g>
<!-- Node1&#45;&gt;Node2 -->
<g id="edge2" class="edge"><title>Node1&#45;&gt;Node2</title>
<path style="fill:none;stroke:midnightblue;" d="M291,-56C221,-49 135,-39 50,-19"/>
<polygon style="fill:midnightblue;stroke:midnightblue;" points="50.4922,-15.5292 40,-17 49.1194,-22.3933 50.4922,-15.5292"/>
</g>
<!-- Node3 -->
<g id="node5" class="node"><title>Node3</title>
<polygon style="fill:white;stroke:#bfbfbf;" points="58,-0 58,-20 117,-20 117,-0 58,-0"/>
<text text-anchor="middle" x="87" y="-7" style="font-family:Arial;font-size:10.00;">stdexcept</text>
</g>
<!-- Node1&#45;&gt;Node3 -->
<g id="edge4" class="edge"><title>Node1&#45;&gt;Node3</title>
<path style="fill:none;stroke:midnightblue;" d="M355,-56C293,-48 210,-37 127,-20"/>
<polygon style="fill:midnightblue;stroke:midnightblue;" points="127.492,-16.5292 117,-18 126.119,-23.3933 127.492,-16.5292"/>
</g>
<!-- Node4 -->
<g id="node7" class="node"><title>Node4</title>
<polygon style="fill:white;stroke:#bfbfbf;" points="134,-0 134,-20 241,-20 241,-0 134,-0"/>
<text text-anchor="middle" x="187" y="-7" style="font-family:Arial;font-size:10.00;">ltr/utility/shared_ptr.h</text>
</g>
<!-- Node1&#45;&gt;Node4 -->
<g id="edge6" class="edge"><title>Node1&#45;&gt;Node4</title>
<path style="fill:none;stroke:midnightblue;" d="M396,-56C353,-47 289,-32 243,-22"/>
<polygon style="fill:midnightblue;stroke:midnightblue;" points="243.492,-18.5292 233,-20 242.119,-25.3933 243.492,-18.5292"/>
</g>
<!-- Node5 -->
<g id="node9" class="node"><title>Node5</title>
<polygon style="fill:white;stroke:#bfbfbf;" points="258,-0 258,-20 377,-20 377,-0 258,-0"/>
<text text-anchor="middle" x="317" y="-7" style="font-family:Arial;font-size:10.00;">ltr/measures/measure.h</text>
</g>
<!-- Node1&#45;&gt;Node5 -->
<g id="edge8" class="edge"><title>Node1&#45;&gt;Node5</title>
<path style="fill:none;stroke:midnightblue;" d="M419,-56C399,-47 371,-34 348,-24"/>
<polygon style="fill:midnightblue;stroke:midnightblue;" points="349.56,-20.8631 339,-20 346.717,-27.2598 349.56,-20.8631"/>
</g>
<!-- Node6 -->
<g id="node11" class="node"><title>Node6</title>
<polygon style="fill:white;stroke:#bfbfbf;" points="394,-0 394,-20 489,-20 489,-0 394,-0"/>
<text text-anchor="middle" x="441" y="-7" style="font-family:Arial;font-size:10.00;">ltr/data/data_set.h</text>
</g>
<!-- Node1&#45;&gt;Node6 -->
<g id="edge10" class="edge"><title>Node1&#45;&gt;Node6</title>
<path style="fill:none;stroke:midnightblue;" d="M441,-56C441,-49 441,-39 441,-30"/>
<polygon style="fill:midnightblue;stroke:midnightblue;" points="444.5,-30 441,-20 437.5,-30 444.5,-30"/>
</g>
<!-- Node7 -->
<g id="node13" class="node"><title>Node7</title>
<polygon style="fill:white;stroke:#bfbfbf;" points="506,-0 506,-20 754,-20 754,-0 506,-0"/>
<text text-anchor="middle" x="630" y="-7" style="font-family:Arial;font-size:10.00;">ltr/scorers/composition_scorers/composition_scorer.h</text>
</g>
<!-- Node1&#45;&gt;Node7 -->
<g id="edge12" class="edge"><title>Node1&#45;&gt;Node7</title>
<path style="fill:none;stroke:midnightblue;" d="M475,-56C506,-47 553,-33 586,-23"/>
<polygon style="fill:midnightblue;stroke:midnightblue;" points="587.427,-26.2259 596,-20 585.416,-19.5212 587.427,-26.2259"/>
</g>
<!-- Node8 -->
<g id="node15" class="node"><title>Node8</title>
<polygon style="fill:white;stroke:#bfbfbf;" points="772,-0 772,-20 880,-20 880,-0 772,-0"/>
<text text-anchor="middle" x="826" y="-7" style="font-family:Arial;font-size:10.00;">ltr/interfaces/aliaser.h</text>
</g>
<!-- Node1&#45;&gt;Node8 -->
<g id="edge14" class="edge"><title>Node1&#45;&gt;Node8</title>
<path style="fill:none;stroke:midnightblue;" d="M512,-56C576,-47 670,-34 762,-20"/>
<polygon style="fill:midnightblue;stroke:midnightblue;" points="762.881,-23.3933 772,-18 761.508,-16.5292 762.881,-23.3933"/>
</g>
<!-- Node9 -->
<g id="node17" class="node"><title>Node9</title>
<polygon style="fill:white;stroke:#bfbfbf;" points="898,-0 898,-20 1040,-20 1040,-0 898,-0"/>
<text text-anchor="middle" x="969" y="-7" style="font-family:Arial;font-size:10.00;">ltr/interfaces/parameterized.h</text>
</g>
<!-- Node1&#45;&gt;Node9 -->
<g id="edge16" class="edge"><title>Node1&#45;&gt;Node9</title>
<path style="fill:none;stroke:midnightblue;" d="M543,-56C632,-47 763,-34 888,-20"/>
<polygon style="fill:midnightblue;stroke:midnightblue;" points="888.398,-23.4778 898,-19 887.701,-16.5125 888.398,-23.4778"/>
</g>
<!-- Node10 -->
<g id="node19" class="node"><title>Node10</title>
<polygon style="fill:white;stroke:#bfbfbf;" points="1058,-0 1058,-20 1175,-20 1175,-0 1058,-0"/>
<text text-anchor="middle" x="1116" y="-7" style="font-family:Arial;font-size:10.00;">ltr/interfaces/printable.h</text>
</g>
<!-- Node1&#45;&gt;Node10 -->
<g id="edge18" class="edge"><title>Node1&#45;&gt;Node10</title>
<path style="fill:none;stroke:midnightblue;" d="M603,-57C723,-49 891,-38 1048,-20"/>
<polygon style="fill:midnightblue;stroke:midnightblue;" points="1048.4,-23.4778 1058,-19 1047.7,-16.5125 1048.4,-23.4778"/>
</g>
</g>
</svg>
