<?xml version="1.0" encoding="UTF-8" standalone="no"?>
<!DOCTYPE svg PUBLIC "-//W3C//DTD SVG 1.0//EN"
 "http://www.w3.org/TR/2001/REC-SVG-20010904/DTD/svg10.dtd" [
 <!ATTLIST svg xmlns:xlink CDATA #FIXED "http://www.w3.org/1999/xlink">
]>
<!-- Generated by Graphviz version 2.20.2 (Tue Mar &#160;2 19:03:41 UTC 2010)
     For user: (jenkins)  -->
<!-- Title: G Pages: 1 -->
<svg width="348pt" height="84pt"
 viewBox="0.00 0.00 348.00 84.00" xmlns="http://www.w3.org/2000/svg" xmlns:xlink="http://www.w3.org/1999/xlink">
<g id="graph0" class="graph" transform="scale(1 1) rotate(0) translate(4 80)">
<title>G</title>
<polygon style="fill:white;stroke:white;" points="-4,4 -4,-80 344,-80 344,4 -4,4"/>
<!-- Node1 -->
<g id="node1" class="node"><title>Node1</title>
<polygon style="fill:#bfbfbf;stroke:black;" points="0,-56 0,-76 253,-76 253,-56 0,-56"/>
<text text-anchor="middle" x="126" y="-63" style="font-family:Arial;font-size:10.00;">ltr/scorers/composition_scorers/composition_scorer.cc</text>
</g>
<!-- Node2 -->
<g id="node3" class="node"><title>Node2</title>
<polygon style="fill:white;stroke:#bfbfbf;" points="0,-0 0,-20 74,-20 74,-0 0,-0"/>
<text text-anchor="middle" x="37" y="-7" style="font-family:Arial;font-size:10.00;">logog/logog.h</text>
</g>
<!-- Node1&#45;&gt;Node2 -->
<g id="edge2" class="edge"><title>Node1&#45;&gt;Node2</title>
<path style="fill:none;stroke:midnightblue;" d="M110,-56C97,-48 77,-35 62,-25"/>
<polygon style="fill:midnightblue;stroke:midnightblue;" points="63.4414,-21.7969 53,-20 60.0418,-27.916 63.4414,-21.7969"/>
</g>
<!-- Node3 -->
<g id="node5" class="node"><title>Node3</title>
<polygon style="fill:white;stroke:#bfbfbf;" points="92,-0 92,-20 340,-20 340,-0 92,-0"/>
<text text-anchor="middle" x="216" y="-7" style="font-family:Arial;font-size:10.00;">ltr/scorers/composition_scorers/composition_scorer.h</text>
</g>
<!-- Node1&#45;&gt;Node3 -->
<g id="edge4" class="edge"><title>Node1&#45;&gt;Node3</title>
<path style="fill:none;stroke:midnightblue;" d="M142,-56C155,-48 175,-35 191,-25"/>
<polygon style="fill:midnightblue;stroke:midnightblue;" points="192.958,-27.916 200,-20 189.559,-21.7969 192.958,-27.916"/>
</g>
</g>
</svg>
