<?xml version="1.0" encoding="UTF-8" standalone="no"?>
<!DOCTYPE svg PUBLIC "-//W3C//DTD SVG 1.0//EN"
 "http://www.w3.org/TR/2001/REC-SVG-20010904/DTD/svg10.dtd" [
 <!ATTLIST svg xmlns:xlink CDATA #FIXED "http://www.w3.org/1999/xlink">
]>
<!-- Generated by Graphviz version 2.20.2 (Tue Mar &#160;2 19:03:41 UTC 2010)
     For user: (jenkins)  -->
<!-- Title: G Pages: 1 -->
<svg width="1166pt" height="196pt"
 viewBox="0.00 0.00 1166.00 196.00" xmlns="http://www.w3.org/2000/svg" xmlns:xlink="http://www.w3.org/1999/xlink">
<g id="graph0" class="graph" transform="scale(1 1) rotate(0) translate(4 192)">
<title>G</title>
<polygon style="fill:white;stroke:white;" points="-4,4 -4,-192 1162,-192 1162,4 -4,4"/>
<!-- Node1 -->
<g id="node1" class="node"><title>Node1</title>
<polygon style="fill:#bfbfbf;stroke:black;" points="339,-168 339,-188 662,-188 662,-168 339,-168"/>
<text text-anchor="middle" x="500" y="-175" style="font-family:Arial;font-size:10.00;">ltr/learners/composition_learner/composition_scorer_weights_updater.h</text>
</g>
<!-- Node2 -->
<g id="node3" class="node"><title>Node2</title>
<a xlink:href="ada__rank__composition__scorer__weights__updater_8h.html" target="_top" xlink:title="ltr/learners/composition_learner/ada_rank_composition_scorer_weights_updater.h">
<polygon style="fill:white;stroke:black;" points="0,-112 0,-132 368,-132 368,-112 0,-112"/>
<text text-anchor="middle" x="184" y="-119" style="font-family:Arial;font-size:10.00;">ltr/learners/composition_learner/ada_rank_composition_scorer_weights_updater.h</text>
</a>
</g>
<!-- Node1&#45;&gt;Node2 -->
<g id="edge2" class="edge"><title>Node1&#45;&gt;Node2</title>
<path style="fill:none;stroke:midnightblue;" d="M434,-166C377,-156 295,-141 240,-132"/>
<polygon style="fill:midnightblue;stroke:midnightblue;" points="433.508,-169.471 444,-168 434.881,-162.607 433.508,-169.471"/>
</g>
<!-- Node4 -->
<g id="node7" class="node"><title>Node4</title>
<a xlink:href="linear__composition__unittest_8cc.html" target="_top" xlink:title="ltr/learners/composition_learner/linear_composition_unittest.cc">
<polygon style="fill:white;stroke:black;" points="253,-0 253,-20 540,-20 540,-0 253,-0"/>
<text text-anchor="middle" x="396" y="-7" style="font-family:Arial;font-size:10.00;">ltr/learners/composition_learner/linear_composition_unittest.cc</text>
</a>
</g>
<!-- Node1&#45;&gt;Node4 -->
<g id="edge22" class="edge"><title>Node1&#45;&gt;Node4</title>
<path style="fill:none;stroke:midnightblue;" d="M457,-164C441,-157 425,-146 415,-132 390,-97 392,-43 395,-20"/>
<polygon style="fill:midnightblue;stroke:midnightblue;" points="455.44,-167.137 466,-168 458.283,-160.74 455.44,-167.137"/>
</g>
<!-- Node5 -->
<g id="node10" class="node"><title>Node5</title>
<a xlink:href="average__composition__scorer__weights__updater_8h.html" target="_top" xlink:title="ltr/learners/composition_learner/average_composition_scorer_weights_updater.h">
<polygon style="fill:white;stroke:black;" points="424,-112 424,-132 785,-132 785,-112 424,-112"/>
<text text-anchor="middle" x="604" y="-119" style="font-family:Arial;font-size:10.00;">ltr/learners/composition_learner/average_composition_scorer_weights_updater.h</text>
</a>
</g>
<!-- Node1&#45;&gt;Node5 -->
<g id="edge10" class="edge"><title>Node1&#45;&gt;Node5</title>
<path style="fill:none;stroke:midnightblue;" d="M528,-163C546,-153 570,-141 585,-132"/>
<polygon style="fill:midnightblue;stroke:midnightblue;" points="526.042,-160.084 519,-168 529.441,-166.203 526.042,-160.084"/>
</g>
<!-- Node6 -->
<g id="node13" class="node"><title>Node6</title>
<a xlink:href="composition__learner_8h.html" target="_top" xlink:title="ltr/learners/composition_learner/composition_learner.h">
<polygon style="fill:white;stroke:black;" points="802,-112 802,-132 1051,-132 1051,-112 802,-112"/>
<text text-anchor="middle" x="926" y="-119" style="font-family:Arial;font-size:10.00;">ltr/learners/composition_learner/composition_learner.h</text>
</a>
</g>
<!-- Node1&#45;&gt;Node6 -->
<g id="edge14" class="edge"><title>Node1&#45;&gt;Node6</title>
<path style="fill:none;stroke:midnightblue;" d="M586,-167C664,-157 776,-142 850,-132"/>
<polygon style="fill:midnightblue;stroke:midnightblue;" points="585.602,-163.522 576,-168 586.299,-170.488 585.602,-163.522"/>
</g>
<!-- Node3 -->
<g id="node5" class="node"><title>Node3</title>
<a xlink:href="ada__boost__learner_8h.html" target="_top" xlink:title="ltr/learners/composition_learner/ada_boost_learner.h">
<polygon style="fill:white;stroke:black;" points="70,-56 70,-76 312,-76 312,-56 70,-56"/>
<text text-anchor="middle" x="191" y="-63" style="font-family:Arial;font-size:10.00;">ltr/learners/composition_learner/ada_boost_learner.h</text>
</a>
</g>
<!-- Node2&#45;&gt;Node3 -->
<g id="edge4" class="edge"><title>Node2&#45;&gt;Node3</title>
<path style="fill:none;stroke:midnightblue;" d="M186,-102C187,-93 189,-84 190,-76"/>
<polygon style="fill:midnightblue;stroke:midnightblue;" points="182.512,-101.701 185,-112 189.478,-102.398 182.512,-101.701"/>
</g>
<!-- Node2&#45;&gt;Node4 -->
<g id="edge8" class="edge"><title>Node2&#45;&gt;Node4</title>
<path style="fill:none;stroke:midnightblue;" d="M238,-109C264,-101 295,-91 321,-76 347,-60 373,-34 387,-20"/>
<polygon style="fill:midnightblue;stroke:midnightblue;" points="236.573,-105.774 228,-112 238.584,-112.479 236.573,-105.774"/>
</g>
<!-- Node3&#45;&gt;Node4 -->
<g id="edge6" class="edge"><title>Node3&#45;&gt;Node4</title>
<path style="fill:none;stroke:midnightblue;" d="M238,-53C275,-43 325,-29 359,-20"/>
<polygon style="fill:midnightblue;stroke:midnightblue;" points="236.573,-49.7741 228,-56 238.584,-56.4788 236.573,-49.7741"/>
</g>
<!-- Node5&#45;&gt;Node4 -->
<g id="edge12" class="edge"><title>Node5&#45;&gt;Node4</title>
<path style="fill:none;stroke:midnightblue;" d="M576,-107C533,-83 452,-40 415,-20"/>
<polygon style="fill:midnightblue;stroke:midnightblue;" points="574.559,-110.203 585,-112 577.958,-104.084 574.559,-110.203"/>
</g>
<!-- Node6&#45;&gt;Node4 -->
<g id="edge18" class="edge"><title>Node6&#45;&gt;Node4</title>
<path style="fill:none;stroke:midnightblue;" d="M840,-111C783,-103 706,-90 639,-76 563,-59 475,-34 429,-20"/>
<polygon style="fill:midnightblue;stroke:midnightblue;" points="839.701,-114.488 850,-112 840.398,-107.522 839.701,-114.488"/>
</g>
<!-- Node7 -->
<g id="node15" class="node"><title>Node7</title>
<a xlink:href="composition__learner__unittest_8cc.html" target="_top" xlink:title="ltr/learners/composition_learner/composition_learner_unittest.cc">
<polygon style="fill:white;stroke:black;" points="648,-56 648,-76 941,-76 941,-56 648,-56"/>
<text text-anchor="middle" x="794" y="-63" style="font-family:Arial;font-size:10.00;">ltr/learners/composition_learner/composition_learner_unittest.cc</text>
</a>
</g>
<!-- Node6&#45;&gt;Node7 -->
<g id="edge16" class="edge"><title>Node6&#45;&gt;Node7</title>
<path style="fill:none;stroke:midnightblue;" d="M892,-108C869,-98 839,-85 818,-76"/>
<polygon style="fill:midnightblue;stroke:midnightblue;" points="891.415,-111.536 902,-112 894.015,-105.036 891.415,-111.536"/>
</g>
<!-- Node8 -->
<g id="node18" class="node"><title>Node8</title>
<a xlink:href="generator_8cc.html" target="_top" xlink:title="ltr/serialization_test/generator/generator.cc">
<polygon style="fill:white;stroke:black;" points="958,-56 958,-76 1159,-76 1159,-56 958,-56"/>
<text text-anchor="middle" x="1058" y="-63" style="font-family:Arial;font-size:10.00;">ltr/serialization_test/generator/generator.cc</text>
</a>
</g>
<!-- Node6&#45;&gt;Node8 -->
<g id="edge20" class="edge"><title>Node6&#45;&gt;Node8</title>
<path style="fill:none;stroke:midnightblue;" d="M960,-108C983,-98 1013,-85 1034,-76"/>
<polygon style="fill:midnightblue;stroke:midnightblue;" points="957.985,-105.036 950,-112 960.585,-111.536 957.985,-105.036"/>
</g>
</g>
</svg>
