<?xml version="1.0" encoding="UTF-8" standalone="no"?>
<!DOCTYPE svg PUBLIC "-//W3C//DTD SVG 1.0//EN"
 "http://www.w3.org/TR/2001/REC-SVG-20010904/DTD/svg10.dtd" [
 <!ATTLIST svg xmlns:xlink CDATA #FIXED "http://www.w3.org/1999/xlink">
]>
<!-- Generated by Graphviz version 2.20.2 (Tue Mar &#160;2 19:03:41 UTC 2010)
     For user: (jenkins)  -->
<!-- Title: G Pages: 1 -->
<svg width="754pt" height="140pt"
 viewBox="0.00 0.00 754.00 140.00" xmlns="http://www.w3.org/2000/svg" xmlns:xlink="http://www.w3.org/1999/xlink">
<g id="graph0" class="graph" transform="scale(1 1) rotate(0) translate(4 136)">
<title>G</title>
<polygon style="fill:white;stroke:white;" points="-4,4 -4,-136 750,-136 750,4 -4,4"/>
<!-- Node1 -->
<g id="node1" class="node"><title>Node1</title>
<polygon style="fill:#bfbfbf;stroke:black;" points="56,-112 56,-132 304,-132 304,-112 56,-112"/>
<text text-anchor="middle" x="180" y="-119" style="font-family:Arial;font-size:10.00;">ltr/scorers/composition_scorers/composition_scorer.h</text>
</g>
<!-- Node2 -->
<g id="node3" class="node"><title>Node2</title>
<polygon style="fill:white;stroke:#bfbfbf;" points="0,-56 0,-76 40,-76 40,-56 0,-56"/>
<text text-anchor="middle" x="20" y="-63" style="font-family:Arial;font-size:10.00;">string</text>
</g>
<!-- Node1&#45;&gt;Node2 -->
<g id="edge2" class="edge"><title>Node1&#45;&gt;Node2</title>
<path style="fill:none;stroke:midnightblue;" d="M151,-112C122,-102 79,-87 50,-76"/>
<polygon style="fill:midnightblue;stroke:midnightblue;" points="50.584,-72.5212 40,-73 48.5725,-79.2259 50.584,-72.5212"/>
</g>
<!-- Node3 -->
<g id="node5" class="node"><title>Node3</title>
<polygon style="fill:white;stroke:#bfbfbf;" points="14,-0 14,-20 56,-20 56,-0 14,-0"/>
<text text-anchor="middle" x="35" y="-7" style="font-family:Arial;font-size:10.00;">vector</text>
</g>
<!-- Node1&#45;&gt;Node3 -->
<g id="edge4" class="edge"><title>Node1&#45;&gt;Node3</title>
<path style="fill:none;stroke:midnightblue;" d="M166,-112C153,-103 133,-89 117,-76 95,-59 71,-40 55,-26"/>
<polygon style="fill:midnightblue;stroke:midnightblue;" points="57.1,-23.2 47,-20 52.9,-28.8 57.1,-23.2"/>
</g>
<!-- Node4 -->
<g id="node7" class="node"><title>Node4</title>
<polygon style="fill:white;stroke:#bfbfbf;" points="392,-56 392,-76 489,-76 489,-56 392,-56"/>
<text text-anchor="middle" x="440" y="-63" style="font-family:Arial;font-size:10.00;">ltr/scorers/scorer.h</text>
</g>
<!-- Node1&#45;&gt;Node4 -->
<g id="edge6" class="edge"><title>Node1&#45;&gt;Node4</title>
<path style="fill:none;stroke:midnightblue;" d="M226,-112C270,-103 336,-88 383,-78"/>
<polygon style="fill:midnightblue;stroke:midnightblue;" points="383.881,-81.3933 393,-76 382.508,-74.5292 383.881,-81.3933"/>
</g>
<!-- Node5 -->
<g id="node9" class="node"><title>Node5</title>
<polygon style="fill:white;stroke:#bfbfbf;" points="74,-0 74,-20 216,-20 216,-0 74,-0"/>
<text text-anchor="middle" x="145" y="-7" style="font-family:Arial;font-size:10.00;">ltr/interfaces/parameterized.h</text>
</g>
<!-- Node1&#45;&gt;Node5 -->
<g id="edge8" class="edge"><title>Node1&#45;&gt;Node5</title>
<path style="fill:none;stroke:midnightblue;" d="M161,-112C148,-104 132,-92 125,-76 118,-61 125,-42 132,-29"/>
<polygon style="fill:midnightblue;stroke:midnightblue;" points="135.203,-30.4414 137,-20 129.084,-27.0418 135.203,-30.4414"/>
</g>
<!-- Node6 -->
<g id="node11" class="node"><title>Node6</title>
<a xlink:href="predictions__aggregator_8h.html" target="_top" xlink:title="ltr/predictions_aggregators/predictions_aggregator.h">
<polygon style="fill:white;stroke:black;" points="134,-56 134,-76 374,-76 374,-56 134,-56"/>
<text text-anchor="middle" x="254" y="-63" style="font-family:Arial;font-size:10.00;">ltr/predictions_aggregators/predictions_aggregator.h</text>
</a>
</g>
<!-- Node1&#45;&gt;Node6 -->
<g id="edge10" class="edge"><title>Node1&#45;&gt;Node6</title>
<path style="fill:none;stroke:midnightblue;" d="M193,-112C204,-104 220,-92 233,-82"/>
<polygon style="fill:midnightblue;stroke:midnightblue;" points="235.1,-84.8 241,-76 230.9,-79.2 235.1,-84.8"/>
</g>
<!-- Node9 -->
<g id="node19" class="node"><title>Node9</title>
<polygon style="fill:white;stroke:#bfbfbf;" points="506,-56 506,-76 746,-76 746,-56 506,-56"/>
<text text-anchor="middle" x="626" y="-63" style="font-family:Arial;font-size:10.00;">ltr/predictions_aggregators/predictions_aggregator.h</text>
</g>
<!-- Node1&#45;&gt;Node9 -->
<g id="edge20" class="edge"><title>Node1&#45;&gt;Node9</title>
<path style="fill:none;stroke:midnightblue;" d="M260,-112C338,-102 456,-87 537,-77"/>
<polygon style="fill:midnightblue;stroke:midnightblue;" points="537.398,-80.4778 547,-76 536.701,-73.5125 537.398,-80.4778"/>
</g>
<!-- Node6&#45;&gt;Node3 -->
<g id="edge12" class="edge"><title>Node6&#45;&gt;Node3</title>
<path style="fill:none;stroke:midnightblue;" d="M209,-56C173,-48 120,-35 66,-20"/>
<polygon style="fill:midnightblue;stroke:midnightblue;" points="66.584,-16.5212 56,-17 64.5725,-23.2259 66.584,-16.5212"/>
</g>
<!-- Node6&#45;&gt;Node5 -->
<g id="edge18" class="edge"><title>Node6&#45;&gt;Node5</title>
<path style="fill:none;stroke:midnightblue;" d="M235,-56C218,-47 193,-34 174,-25"/>
<polygon style="fill:midnightblue;stroke:midnightblue;" points="175.441,-21.7969 165,-20 172.042,-27.916 175.441,-21.7969"/>
</g>
<!-- Node7 -->
<g id="node14" class="node"><title>Node7</title>
<polygon style="fill:white;stroke:#bfbfbf;" points="234,-0 234,-20 341,-20 341,-0 234,-0"/>
<text text-anchor="middle" x="287" y="-7" style="font-family:Arial;font-size:10.00;">ltr/utility/shared_ptr.h</text>
</g>
<!-- Node6&#45;&gt;Node7 -->
<g id="edge14" class="edge"><title>Node6&#45;&gt;Node7</title>
<path style="fill:none;stroke:midnightblue;" d="M260,-56C265,-49 271,-38 276,-29"/>
<polygon style="fill:midnightblue;stroke:midnightblue;" points="279.203,-30.4414 281,-20 273.084,-27.0418 279.203,-30.4414"/>
</g>
<!-- Node8 -->
<g id="node16" class="node"><title>Node8</title>
<polygon style="fill:white;stroke:#bfbfbf;" points="358,-0 358,-20 487,-20 487,-0 358,-0"/>
<text text-anchor="middle" x="422" y="-7" style="font-family:Arial;font-size:10.00;">ltr/interfaces/serializable.h</text>
</g>
<!-- Node6&#45;&gt;Node8 -->
<g id="edge16" class="edge"><title>Node6&#45;&gt;Node8</title>
<path style="fill:none;stroke:midnightblue;" d="M284,-56C311,-47 352,-33 382,-23"/>
<polygon style="fill:midnightblue;stroke:midnightblue;" points="383.427,-26.2259 392,-20 381.416,-19.5212 383.427,-26.2259"/>
</g>
</g>
</svg>
