<?xml version="1.0" encoding="UTF-8" standalone="no"?>
<!DOCTYPE svg PUBLIC "-//W3C//DTD SVG 1.0//EN"
 "http://www.w3.org/TR/2001/REC-SVG-20010904/DTD/svg10.dtd" [
 <!ATTLIST svg xmlns:xlink CDATA #FIXED "http://www.w3.org/1999/xlink">
]>
<!-- Generated by Graphviz version 2.20.2 (Tue Mar &#160;2 19:03:41 UTC 2010)
     For user: (jenkins)  -->
<!-- Title: G Pages: 1 -->
<svg width="222pt" height="196pt"
 viewBox="0.00 0.00 222.00 196.00" xmlns="http://www.w3.org/2000/svg" xmlns:xlink="http://www.w3.org/1999/xlink">
<g id="graph0" class="graph" transform="scale(1 1) rotate(0) translate(4 192)">
<title>G</title>
<polygon style="fill:white;stroke:white;" points="-4,4 -4,-192 218,-192 218,4 -4,4"/>
<!-- Node1 -->
<g id="node1" class="node"><title>Node1</title>
<polygon style="fill:#bfbfbf;stroke:black;" points="0,-168 0,-188 215,-188 215,-168 0,-168"/>
<text text-anchor="middle" x="107" y="-175" style="font-family:Arial;font-size:10.00;">ltr/learners/decision_tree/condition/condition.h</text>
</g>
<!-- Node2 -->
<g id="node3" class="node"><title>Node2</title>
<a xlink:href="vertex_8h.html" target="_top" xlink:title="ltr/learners/decision_tree/vertex/vertex.h">
<polygon style="fill:white;stroke:black;" points="13,-112 13,-132 201,-132 201,-112 13,-112"/>
<text text-anchor="middle" x="107" y="-119" style="font-family:Arial;font-size:10.00;">ltr/learners/decision_tree/vertex/vertex.h</text>
</a>
</g>
<!-- Node1&#45;&gt;Node2 -->
<g id="edge2" class="edge"><title>Node1&#45;&gt;Node2</title>
<path style="fill:none;stroke:midnightblue;" d="M107,-158C107,-149 107,-140 107,-132"/>
<polygon style="fill:midnightblue;stroke:midnightblue;" points="103.5,-158 107,-168 110.5,-158 103.5,-158"/>
</g>
<!-- Node3 -->
<g id="node5" class="node"><title>Node3</title>
<a xlink:href="decision__tree__scorer_8h.html" target="_top" xlink:title="ltr/scorers/decision_tree_scorer.h">
<polygon style="fill:white;stroke:black;" points="27,-56 27,-76 187,-76 187,-56 27,-56"/>
<text text-anchor="middle" x="107" y="-63" style="font-family:Arial;font-size:10.00;">ltr/scorers/decision_tree_scorer.h</text>
</a>
</g>
<!-- Node2&#45;&gt;Node3 -->
<g id="edge4" class="edge"><title>Node2&#45;&gt;Node3</title>
<path style="fill:none;stroke:midnightblue;" d="M107,-102C107,-93 107,-84 107,-76"/>
<polygon style="fill:midnightblue;stroke:midnightblue;" points="103.5,-102 107,-112 110.5,-102 103.5,-102"/>
</g>
<!-- Node4 -->
<g id="node7" class="node"><title>Node4</title>
<a xlink:href="tostring__unittest_8cc.html" target="_top" xlink:title="ltr/data/tostring_unittest.cc">
<polygon style="fill:white;stroke:black;" points="41,-0 41,-20 173,-20 173,-0 41,-0"/>
<text text-anchor="middle" x="107" y="-7" style="font-family:Arial;font-size:10.00;">ltr/data/tostring_unittest.cc</text>
</a>
</g>
<!-- Node3&#45;&gt;Node4 -->
<g id="edge6" class="edge"><title>Node3&#45;&gt;Node4</title>
<path style="fill:none;stroke:midnightblue;" d="M107,-46C107,-37 107,-28 107,-20"/>
<polygon style="fill:midnightblue;stroke:midnightblue;" points="103.5,-46 107,-56 110.5,-46 103.5,-46"/>
</g>
</g>
</svg>
