<?xml version="1.0" encoding="UTF-8" standalone="no"?>
<!DOCTYPE svg PUBLIC "-//W3C//DTD SVG 1.0//EN"
 "http://www.w3.org/TR/2001/REC-SVG-20010904/DTD/svg10.dtd" [
 <!ATTLIST svg xmlns:xlink CDATA #FIXED "http://www.w3.org/1999/xlink">
]>
<!-- Generated by Graphviz version 2.20.2 (Tue Mar &#160;2 19:03:41 UTC 2010)
     For user: (jenkins)  -->
<!-- Title: G Pages: 1 -->
<svg width="420pt" height="84pt"
 viewBox="0.00 0.00 420.00 84.00" xmlns="http://www.w3.org/2000/svg" xmlns:xlink="http://www.w3.org/1999/xlink">
<g id="graph0" class="graph" transform="scale(1 1) rotate(0) translate(4 80)">
<title>G</title>
<polygon style="fill:white;stroke:white;" points="-4,4 -4,-80 416,-80 416,4 -4,4"/>
<!-- Node1 -->
<g id="node1" class="node"><title>Node1</title>
<polygon style="fill:#bfbfbf;stroke:black;" points="55,-56 55,-76 270,-76 270,-56 55,-56"/>
<text text-anchor="middle" x="162" y="-63" style="font-family:Arial;font-size:10.00;">ltr/learners/decision_tree/condition/condition.h</text>
</g>
<!-- Node2 -->
<g id="node3" class="node"><title>Node2</title>
<polygon style="fill:white;stroke:#bfbfbf;" points="0,-0 0,-20 40,-20 40,-0 0,-0"/>
<text text-anchor="middle" x="20" y="-7" style="font-family:Arial;font-size:10.00;">string</text>
</g>
<!-- Node1&#45;&gt;Node2 -->
<g id="edge2" class="edge"><title>Node1&#45;&gt;Node2</title>
<path style="fill:none;stroke:midnightblue;" d="M137,-56C112,-46 76,-32 49,-22"/>
<polygon style="fill:midnightblue;stroke:midnightblue;" points="50.5596,-18.8631 40,-18 47.7166,-25.2598 50.5596,-18.8631"/>
</g>
<!-- Node3 -->
<g id="node5" class="node"><title>Node3</title>
<polygon style="fill:white;stroke:#bfbfbf;" points="58,-0 58,-20 142,-20 142,-0 58,-0"/>
<text text-anchor="middle" x="100" y="-7" style="font-family:Arial;font-size:10.00;">ltr/data/object.h</text>
</g>
<!-- Node1&#45;&gt;Node3 -->
<g id="edge4" class="edge"><title>Node1&#45;&gt;Node3</title>
<path style="fill:none;stroke:midnightblue;" d="M151,-56C142,-48 129,-37 119,-27"/>
<polygon style="fill:midnightblue;stroke:midnightblue;" points="120.831,-23.9511 111,-20 116.221,-29.2191 120.831,-23.9511"/>
</g>
<!-- Node4 -->
<g id="node7" class="node"><title>Node4</title>
<polygon style="fill:white;stroke:#bfbfbf;" points="160,-0 160,-20 289,-20 289,-0 160,-0"/>
<text text-anchor="middle" x="224" y="-7" style="font-family:Arial;font-size:10.00;">ltr/interfaces/serializable.h</text>
</g>
<!-- Node1&#45;&gt;Node4 -->
<g id="edge6" class="edge"><title>Node1&#45;&gt;Node4</title>
<path style="fill:none;stroke:midnightblue;" d="M173,-56C182,-48 195,-37 205,-27"/>
<polygon style="fill:midnightblue;stroke:midnightblue;" points="207.779,-29.2191 213,-20 203.169,-23.9511 207.779,-29.2191"/>
</g>
<!-- Node5 -->
<g id="node9" class="node"><title>Node5</title>
<polygon style="fill:white;stroke:#bfbfbf;" points="306,-0 306,-20 413,-20 413,-0 306,-0"/>
<text text-anchor="middle" x="359" y="-7" style="font-family:Arial;font-size:10.00;">ltr/utility/shared_ptr.h</text>
</g>
<!-- Node1&#45;&gt;Node5 -->
<g id="edge8" class="edge"><title>Node1&#45;&gt;Node5</title>
<path style="fill:none;stroke:midnightblue;" d="M197,-56C230,-47 279,-33 314,-23"/>
<polygon style="fill:midnightblue;stroke:midnightblue;" points="315.427,-26.2259 324,-20 313.416,-19.5212 315.427,-26.2259"/>
</g>
</g>
</svg>
