<?xml version="1.0" encoding="UTF-8" standalone="no"?>
<!DOCTYPE svg PUBLIC "-//W3C//DTD SVG 1.0//EN"
 "http://www.w3.org/TR/2001/REC-SVG-20010904/DTD/svg10.dtd" [
 <!ATTLIST svg xmlns:xlink CDATA #FIXED "http://www.w3.org/1999/xlink">
]>
<!-- Generated by Graphviz version 2.20.2 (Tue Mar &#160;2 19:03:41 UTC 2010)
     For user: (jenkins)  -->
<!-- Title: G Pages: 1 -->
<svg width="213pt" height="84pt"
 viewBox="0.00 0.00 213.00 84.00" xmlns="http://www.w3.org/2000/svg" xmlns:xlink="http://www.w3.org/1999/xlink">
<g id="graph0" class="graph" transform="scale(1 1) rotate(0) translate(4 80)">
<title>G</title>
<polygon style="fill:white;stroke:white;" points="-4,4 -4,-80 209,-80 209,4 -4,4"/>
<!-- Node1 -->
<g id="node1" class="node"><title>Node1</title>
<polygon style="fill:#bfbfbf;stroke:black;" points="25,-56 25,-76 206,-76 206,-56 25,-56"/>
<text text-anchor="middle" x="115" y="-63" style="font-family:Arial;font-size:10.00;">ltr/serialization_test/generator/config.h</text>
</g>
<!-- Node2 -->
<g id="node3" class="node"><title>Node2</title>
<polygon style="fill:white;stroke:#bfbfbf;" points="0,-0 0,-20 128,-20 128,-0 0,-0"/>
<text text-anchor="middle" x="64" y="-7" style="font-family:Arial;font-size:10.00;">boost/filesystem/path.hpp</text>
</g>
<!-- Node1&#45;&gt;Node2 -->
<g id="edge2" class="edge"><title>Node1&#45;&gt;Node2</title>
<path style="fill:none;stroke:midnightblue;" d="M106,-56C99,-48 89,-37 80,-27"/>
<polygon style="fill:midnightblue;stroke:midnightblue;" points="82.546,-24.5962 73,-20 77.5962,-29.546 82.546,-24.5962"/>
</g>
<!-- Node3 -->
<g id="node5" class="node"><title>Node3</title>
<polygon style="fill:white;stroke:#bfbfbf;" points="146,-0 146,-20 186,-20 186,-0 146,-0"/>
<text text-anchor="middle" x="166" y="-7" style="font-family:Arial;font-size:10.00;">string</text>
</g>
<!-- Node1&#45;&gt;Node3 -->
<g id="edge4" class="edge"><title>Node1&#45;&gt;Node3</title>
<path style="fill:none;stroke:midnightblue;" d="M124,-56C131,-48 141,-37 150,-27"/>
<polygon style="fill:midnightblue;stroke:midnightblue;" points="152.404,-29.546 157,-20 147.454,-24.5962 152.404,-29.546"/>
</g>
</g>
</svg>
