<?xml version="1.0" encoding="UTF-8" standalone="no"?>
<!DOCTYPE svg PUBLIC "-//W3C//DTD SVG 1.0//EN"
 "http://www.w3.org/TR/2001/REC-SVG-20010904/DTD/svg10.dtd" [
 <!ATTLIST svg xmlns:xlink CDATA #FIXED "http://www.w3.org/1999/xlink">
]>
<!-- Generated by Graphviz version 2.20.2 (Tue Mar &#160;2 19:03:41 UTC 2010)
     For user: (jenkins)  -->
<!-- Title: G Pages: 1 -->
<svg width="420pt" height="84pt"
 viewBox="0.00 0.00 420.00 84.00" xmlns="http://www.w3.org/2000/svg" xmlns:xlink="http://www.w3.org/1999/xlink">
<g id="graph0" class="graph" transform="scale(1 1) rotate(0) translate(4 80)">
<title>G</title>
<polygon style="fill:white;stroke:white;" points="-4,4 -4,-80 416,-80 416,4 -4,4"/>
<!-- Node1 -->
<g id="node1" class="node"><title>Node1</title>
<polygon style="fill:#bfbfbf;stroke:black;" points="90,-56 90,-76 219,-76 219,-56 90,-56"/>
<text text-anchor="middle" x="154" y="-63" style="font-family:Arial;font-size:10.00;">ltr/utility/container_utility.h</text>
</g>
<!-- Node2 -->
<g id="node3" class="node"><title>Node2</title>
<polygon style="fill:white;stroke:#bfbfbf;" points="0,-0 0,-20 59,-20 59,-0 0,-0"/>
<text text-anchor="middle" x="29" y="-7" style="font-family:Arial;font-size:10.00;">stdexcept</text>
</g>
<!-- Node1&#45;&gt;Node2 -->
<g id="edge2" class="edge"><title>Node1&#45;&gt;Node2</title>
<path style="fill:none;stroke:midnightblue;" d="M132,-56C112,-47 83,-34 61,-24"/>
<polygon style="fill:midnightblue;stroke:midnightblue;" points="62.5596,-20.8631 52,-20 59.7166,-27.2598 62.5596,-20.8631"/>
</g>
<!-- Node3 -->
<g id="node5" class="node"><title>Node3</title>
<polygon style="fill:white;stroke:#bfbfbf;" points="76,-0 76,-20 127,-20 127,-0 76,-0"/>
<text text-anchor="middle" x="101" y="-7" style="font-family:Arial;font-size:10.00;">sstream</text>
</g>
<!-- Node1&#45;&gt;Node3 -->
<g id="edge4" class="edge"><title>Node1&#45;&gt;Node3</title>
<path style="fill:none;stroke:midnightblue;" d="M145,-56C137,-48 126,-37 118,-28"/>
<polygon style="fill:midnightblue;stroke:midnightblue;" points="120.219,-25.221 111,-20 114.951,-29.8306 120.219,-25.221"/>
</g>
<!-- Node4 -->
<g id="node7" class="node"><title>Node4</title>
<polygon style="fill:white;stroke:#bfbfbf;" points="144,-0 144,-20 273,-20 273,-0 144,-0"/>
<text text-anchor="middle" x="208" y="-7" style="font-family:Arial;font-size:10.00;">boost/unordered_map.hpp</text>
</g>
<!-- Node1&#45;&gt;Node4 -->
<g id="edge6" class="edge"><title>Node1&#45;&gt;Node4</title>
<path style="fill:none;stroke:midnightblue;" d="M164,-56C171,-48 182,-37 191,-27"/>
<polygon style="fill:midnightblue;stroke:midnightblue;" points="193.404,-29.546 198,-20 188.454,-24.5962 193.404,-29.546"/>
</g>
<!-- Node5 -->
<g id="node9" class="node"><title>Node5</title>
<polygon style="fill:white;stroke:#bfbfbf;" points="290,-0 290,-20 413,-20 413,-0 290,-0"/>
<text text-anchor="middle" x="351" y="-7" style="font-family:Arial;font-size:10.00;">boost/unordered_set.hpp</text>
</g>
<!-- Node1&#45;&gt;Node5 -->
<g id="edge8" class="edge"><title>Node1&#45;&gt;Node5</title>
<path style="fill:none;stroke:midnightblue;" d="M189,-56C222,-47 271,-33 306,-23"/>
<polygon style="fill:midnightblue;stroke:midnightblue;" points="307.427,-26.2259 316,-20 305.416,-19.5212 307.427,-26.2259"/>
</g>
</g>
</svg>
