<?xml version="1.0" encoding="UTF-8" standalone="no"?>
<!DOCTYPE svg PUBLIC "-//W3C//DTD SVG 1.0//EN"
 "http://www.w3.org/TR/2001/REC-SVG-20010904/DTD/svg10.dtd" [
 <!ATTLIST svg xmlns:xlink CDATA #FIXED "http://www.w3.org/1999/xlink">
]>
<!-- Generated by Graphviz version 2.20.2 (Tue Mar &#160;2 19:03:41 UTC 2010)
     For user: (jenkins)  -->
<!-- Title: G Pages: 1 -->
<svg width="968pt" height="364pt"
 viewBox="0.00 0.00 968.00 364.00" xmlns="http://www.w3.org/2000/svg" xmlns:xlink="http://www.w3.org/1999/xlink">
<g id="graph0" class="graph" transform="scale(1 1) rotate(0) translate(4 360)">
<title>G</title>
<polygon style="fill:white;stroke:white;" points="-4,4 -4,-360 964,-360 964,4 -4,4"/>
<!-- Node1 -->
<g id="node1" class="node"><title>Node1</title>
<polygon style="fill:#bfbfbf;stroke:black;" points="0,-336 0,-356 322,-356 322,-336 0,-336"/>
<text text-anchor="middle" x="161" y="-343" style="font-family:Arial;font-size:10.00;">ltr/learners/gp_learner/strategies/crossover_adjacent_trees_strategy.cc</text>
</g>
<!-- Node2 -->
<g id="node3" class="node"><title>Node2</title>
<a xlink:href="crossover__adjacent__trees__strategy_8h.html" target="_top" xlink:title="ltr/learners/gp_learner/strategies/crossover_adjacent_trees_strategy.h">
<polygon style="fill:white;stroke:black;" points="3,-280 3,-300 320,-300 320,-280 3,-280"/>
<text text-anchor="middle" x="161" y="-287" style="font-family:Arial;font-size:10.00;">ltr/learners/gp_learner/strategies/crossover_adjacent_trees_strategy.h</text>
</a>
</g>
<!-- Node1&#45;&gt;Node2 -->
<g id="edge2" class="edge"><title>Node1&#45;&gt;Node2</title>
<path style="fill:none;stroke:midnightblue;" d="M161,-336C161,-329 161,-319 161,-310"/>
<polygon style="fill:midnightblue;stroke:midnightblue;" points="164.5,-310 161,-300 157.5,-310 164.5,-310"/>
</g>
<!-- Node3 -->
<g id="node5" class="node"><title>Node3</title>
<polygon style="fill:white;stroke:#bfbfbf;" points="71,-168 71,-188 113,-188 113,-168 71,-168"/>
<text text-anchor="middle" x="92" y="-175" style="font-family:Arial;font-size:10.00;">vector</text>
</g>
<!-- Node2&#45;&gt;Node3 -->
<g id="edge4" class="edge"><title>Node2&#45;&gt;Node3</title>
<path style="fill:none;stroke:midnightblue;" d="M135,-280C119,-272 100,-261 91,-244 84,-230 85,-212 87,-198"/>
<polygon style="fill:midnightblue;stroke:midnightblue;" points="90.4708,-198.492 89,-188 83.6067,-197.119 90.4708,-198.492"/>
</g>
<!-- Node4 -->
<g id="node7" class="node"><title>Node4</title>
<polygon style="fill:white;stroke:#bfbfbf;" points="100,-224 100,-244 223,-244 223,-224 100,-224"/>
<text text-anchor="middle" x="161" y="-231" style="font-family:Arial;font-size:10.00;">contrib/puppy/Puppy.hpp</text>
</g>
<!-- Node2&#45;&gt;Node4 -->
<g id="edge6" class="edge"><title>Node2&#45;&gt;Node4</title>
<path style="fill:none;stroke:midnightblue;" d="M161,-280C161,-273 161,-263 161,-254"/>
<polygon style="fill:midnightblue;stroke:midnightblue;" points="164.5,-254 161,-244 157.5,-254 164.5,-254"/>
</g>
<!-- Node5 -->
<g id="node9" class="node"><title>Node5</title>
<a xlink:href="population__handler_8h.html" target="_top" xlink:title="ltr/learners/gp_learner/strategies/population_handler.h">
<polygon style="fill:white;stroke:black;" points="240,-224 240,-244 487,-244 487,-224 240,-224"/>
<text text-anchor="middle" x="363" y="-231" style="font-family:Arial;font-size:10.00;">ltr/learners/gp_learner/strategies/population_handler.h</text>
</a>
</g>
<!-- Node2&#45;&gt;Node5 -->
<g id="edge8" class="edge"><title>Node2&#45;&gt;Node5</title>
<path style="fill:none;stroke:midnightblue;" d="M197,-280C231,-271 281,-257 317,-247"/>
<polygon style="fill:midnightblue;stroke:midnightblue;" points="318.427,-250.226 327,-244 316.416,-243.521 318.427,-250.226"/>
</g>
<!-- Node5&#45;&gt;Node3 -->
<g id="edge10" class="edge"><title>Node5&#45;&gt;Node3</title>
<path style="fill:none;stroke:midnightblue;" d="M315,-224C259,-213 170,-194 123,-184"/>
<polygon style="fill:midnightblue;stroke:midnightblue;" points="123.492,-180.529 113,-182 122.119,-187.393 123.492,-180.529"/>
</g>
<!-- Node6 -->
<g id="node12" class="node"><title>Node6</title>
<a xlink:href="shared__ptr_8h.html" target="_top" xlink:title="ltr/utility/shared_ptr.h">
<polygon style="fill:white;stroke:black;" points="709,-56 709,-76 816,-76 816,-56 709,-56"/>
<text text-anchor="middle" x="762" y="-63" style="font-family:Arial;font-size:10.00;">ltr/utility/shared_ptr.h</text>
</a>
</g>
<!-- Node5&#45;&gt;Node6 -->
<g id="edge12" class="edge"><title>Node5&#45;&gt;Node6</title>
<path style="fill:none;stroke:midnightblue;" d="M387,-224C455,-195 650,-113 729,-80"/>
<polygon style="fill:midnightblue;stroke:midnightblue;" points="730.283,-83.2598 738,-76 727.44,-76.8631 730.283,-83.2598"/>
</g>
<!-- Node10 -->
<g id="node20" class="node"><title>Node10</title>
<a xlink:href="parameterized_8h.html" target="_top" xlink:title="ltr/interfaces/parameterized.h">
<polygon style="fill:white;stroke:black;" points="172,-168 172,-188 314,-188 314,-168 172,-168"/>
<text text-anchor="middle" x="243" y="-175" style="font-family:Arial;font-size:10.00;">ltr/interfaces/parameterized.h</text>
</a>
</g>
<!-- Node5&#45;&gt;Node10 -->
<g id="edge20" class="edge"><title>Node5&#45;&gt;Node10</title>
<path style="fill:none;stroke:midnightblue;" d="M342,-224C323,-215 296,-202 274,-192"/>
<polygon style="fill:midnightblue;stroke:midnightblue;" points="275.56,-188.863 265,-188 272.717,-195.26 275.56,-188.863"/>
</g>
<!-- Node13 -->
<g id="node26" class="node"><title>Node13</title>
<a xlink:href="parameters__container_8h.html" target="_top" xlink:title="ltr/parameters_container/parameters_container.h">
<polygon style="fill:white;stroke:black;" points="251,-112 251,-132 476,-132 476,-112 251,-112"/>
<text text-anchor="middle" x="363" y="-119" style="font-family:Arial;font-size:10.00;">ltr/parameters_container/parameters_container.h</text>
</a>
</g>
<!-- Node5&#45;&gt;Node13 -->
<g id="edge48" class="edge"><title>Node5&#45;&gt;Node13</title>
<path style="fill:none;stroke:midnightblue;" d="M363,-224C363,-205 363,-166 363,-142"/>
<polygon style="fill:midnightblue;stroke:midnightblue;" points="366.5,-142 363,-132 359.5,-142 366.5,-142"/>
</g>
<!-- Node7 -->
<g id="node14" class="node"><title>Node7</title>
<polygon style="fill:white;stroke:#bfbfbf;" points="780,-0 780,-20 836,-20 836,-0 780,-0"/>
<text text-anchor="middle" x="808" y="-7" style="font-family:Arial;font-size:10.00;">algorithm</text>
</g>
<!-- Node6&#45;&gt;Node7 -->
<g id="edge14" class="edge"><title>Node6&#45;&gt;Node7</title>
<path style="fill:none;stroke:midnightblue;" d="M770,-56C776,-48 785,-38 793,-28"/>
<polygon style="fill:midnightblue;stroke:midnightblue;" points="795.8,-30.1 799,-20 790.2,-25.9 795.8,-30.1"/>
</g>
<!-- Node8 -->
<g id="node16" class="node"><title>Node8</title>
<polygon style="fill:white;stroke:#bfbfbf;" points="854,-0 854,-20 961,-20 961,-0 854,-0"/>
<text text-anchor="middle" x="907" y="-7" style="font-family:Arial;font-size:10.00;">boost/shared_ptr.hpp</text>
</g>
<!-- Node6&#45;&gt;Node8 -->
<g id="edge16" class="edge"><title>Node6&#45;&gt;Node8</title>
<path style="fill:none;stroke:midnightblue;" d="M788,-56C811,-47 846,-34 872,-24"/>
<polygon style="fill:midnightblue;stroke:midnightblue;" points="873.283,-27.2598 881,-20 870.44,-20.8631 873.283,-27.2598"/>
</g>
<!-- Node9 -->
<g id="node18" class="node"><title>Node9</title>
<polygon style="fill:white;stroke:#bfbfbf;" points="572,-0 572,-20 763,-20 763,-0 572,-0"/>
<text text-anchor="middle" x="667" y="-7" style="font-family:Arial;font-size:10.00;">boost/smart_ptr/detail/operator_bool.hpp</text>
</g>
<!-- Node6&#45;&gt;Node9 -->
<g id="edge18" class="edge"><title>Node6&#45;&gt;Node9</title>
<path style="fill:none;stroke:midnightblue;" d="M745,-56C731,-48 710,-35 693,-25"/>
<polygon style="fill:midnightblue;stroke:midnightblue;" points="694.441,-21.7969 684,-20 691.042,-27.916 694.441,-21.7969"/>
</g>
<!-- Node11 -->
<g id="node22" class="node"><title>Node11</title>
<polygon style="fill:white;stroke:#bfbfbf;" points="83,-56 83,-76 142,-76 142,-56 83,-56"/>
<text text-anchor="middle" x="112" y="-63" style="font-family:Arial;font-size:10.00;">stdexcept</text>
</g>
<!-- Node10&#45;&gt;Node11 -->
<g id="edge22" class="edge"><title>Node10&#45;&gt;Node11</title>
<path style="fill:none;stroke:midnightblue;" d="M231,-168C208,-148 159,-107 132,-83"/>
<polygon style="fill:midnightblue;stroke:midnightblue;" points="133.831,-79.9511 124,-76 129.221,-85.2191 133.831,-79.9511"/>
</g>
<!-- Node12 -->
<g id="node24" class="node"><title>Node12</title>
<polygon style="fill:white;stroke:#bfbfbf;" points="435,-0 435,-20 475,-20 475,-0 435,-0"/>
<text text-anchor="middle" x="455" y="-7" style="font-family:Arial;font-size:10.00;">string</text>
</g>
<!-- Node10&#45;&gt;Node12 -->
<g id="edge24" class="edge"><title>Node10&#45;&gt;Node12</title>
<path style="fill:none;stroke:midnightblue;" d="M206,-168C143,-149 29,-107 74,-56 98,-30 339,-15 425,-11"/>
<polygon style="fill:midnightblue;stroke:midnightblue;" points="425,-14.5001 435,-11 425,-7.5001 425,-14.5001"/>
</g>
<!-- Node10&#45;&gt;Node13 -->
<g id="edge26" class="edge"><title>Node10&#45;&gt;Node13</title>
<path style="fill:none;stroke:midnightblue;" d="M264,-168C283,-159 310,-146 332,-136"/>
<polygon style="fill:midnightblue;stroke:midnightblue;" points="333.283,-139.26 341,-132 330.44,-132.863 333.283,-139.26"/>
</g>
<!-- Node13&#45;&gt;Node6 -->
<g id="edge40" class="edge"><title>Node13&#45;&gt;Node6</title>
<path style="fill:none;stroke:midnightblue;" d="M440,-112C506,-103 603,-90 699,-76"/>
<polygon style="fill:midnightblue;stroke:midnightblue;" points="699.881,-79.3933 709,-74 698.508,-72.5292 699.881,-79.3933"/>
</g>
<!-- Node13&#45;&gt;Node11 -->
<g id="edge32" class="edge"><title>Node13&#45;&gt;Node11</title>
<path style="fill:none;stroke:midnightblue;" d="M314,-112C273,-103 213,-90 152,-76"/>
<polygon style="fill:midnightblue;stroke:midnightblue;" points="152.492,-72.5292 142,-74 151.119,-79.3933 152.492,-72.5292"/>
</g>
<!-- Node13&#45;&gt;Node12 -->
<g id="edge34" class="edge"><title>Node13&#45;&gt;Node12</title>
<path style="fill:none;stroke:midnightblue;" d="M387,-112C403,-104 423,-92 436,-76 445,-63 451,-44 453,-30"/>
<polygon style="fill:midnightblue;stroke:midnightblue;" points="456.488,-30.2987 454,-20 449.522,-29.6021 456.488,-30.2987"/>
</g>
<!-- Node14 -->
<g id="node28" class="node"><title>Node14</title>
<polygon style="fill:white;stroke:#bfbfbf;" points="617,-56 617,-76 691,-76 691,-56 617,-56"/>
<text text-anchor="middle" x="654" y="-63" style="font-family:Arial;font-size:10.00;">logog/logog.h</text>
</g>
<!-- Node13&#45;&gt;Node14 -->
<g id="edge28" class="edge"><title>Node13&#45;&gt;Node14</title>
<path style="fill:none;stroke:midnightblue;" d="M417,-112C465,-103 535,-90 607,-76"/>
<polygon style="fill:midnightblue;stroke:midnightblue;" points="607.881,-79.3933 617,-74 606.508,-72.5292 607.881,-79.3933"/>
</g>
<!-- Node15 -->
<g id="node30" class="node"><title>Node15</title>
<polygon style="fill:white;stroke:#bfbfbf;" points="159,-56 159,-76 188,-76 188,-56 159,-56"/>
<text text-anchor="middle" x="173" y="-63" style="font-family:Arial;font-size:10.00;">list</text>
</g>
<!-- Node13&#45;&gt;Node15 -->
<g id="edge30" class="edge"><title>Node13&#45;&gt;Node15</title>
<path style="fill:none;stroke:midnightblue;" d="M321,-112C289,-104 243,-92 197,-76"/>
<polygon style="fill:midnightblue;stroke:midnightblue;" points="198.594,-72.842 188,-73 196.38,-79.4827 198.594,-72.842"/>
</g>
<!-- Node16 -->
<g id="node34" class="node"><title>Node16</title>
<polygon style="fill:white;stroke:#bfbfbf;" points="205,-56 205,-76 282,-76 282,-56 205,-56"/>
<text text-anchor="middle" x="243" y="-63" style="font-family:Arial;font-size:10.00;">boost/any.hpp</text>
</g>
<!-- Node13&#45;&gt;Node16 -->
<g id="edge36" class="edge"><title>Node13&#45;&gt;Node16</title>
<path style="fill:none;stroke:midnightblue;" d="M342,-112C323,-103 296,-90 274,-80"/>
<polygon style="fill:midnightblue;stroke:midnightblue;" points="275.56,-76.8631 265,-76 272.717,-83.2598 275.56,-76.8631"/>
</g>
<!-- Node17 -->
<g id="node36" class="node"><title>Node17</title>
<polygon style="fill:white;stroke:#bfbfbf;" points="299,-56 299,-76 428,-76 428,-56 299,-56"/>
<text text-anchor="middle" x="363" y="-63" style="font-family:Arial;font-size:10.00;">boost/unordered_map.hpp</text>
</g>
<!-- Node13&#45;&gt;Node17 -->
<g id="edge38" class="edge"><title>Node13&#45;&gt;Node17</title>
<path style="fill:none;stroke:midnightblue;" d="M363,-112C363,-105 363,-95 363,-86"/>
<polygon style="fill:midnightblue;stroke:midnightblue;" points="366.5,-86 363,-76 359.5,-86 366.5,-86"/>
</g>
<!-- Node18 -->
<g id="node39" class="node"><title>Node18</title>
<a xlink:href="printable_8h.html" target="_top" xlink:title="ltr/interfaces/printable.h">
<polygon style="fill:white;stroke:black;" points="483,-56 483,-76 600,-76 600,-56 483,-56"/>
<text text-anchor="middle" x="541" y="-63" style="font-family:Arial;font-size:10.00;">ltr/interfaces/printable.h</text>
</a>
</g>
<!-- Node13&#45;&gt;Node18 -->
<g id="edge42" class="edge"><title>Node13&#45;&gt;Node18</title>
<path style="fill:none;stroke:midnightblue;" d="M395,-112C424,-103 467,-89 499,-79"/>
<polygon style="fill:midnightblue;stroke:midnightblue;" points="500.427,-82.2259 509,-76 498.416,-75.5212 500.427,-82.2259"/>
</g>
<!-- Node18&#45;&gt;Node12 -->
<g id="edge46" class="edge"><title>Node18&#45;&gt;Node12</title>
<path style="fill:none;stroke:midnightblue;" d="M526,-56C513,-48 494,-35 479,-26"/>
<polygon style="fill:midnightblue;stroke:midnightblue;" points="481.1,-23.2 471,-20 476.9,-28.8 481.1,-23.2"/>
</g>
<!-- Node19 -->
<g id="node41" class="node"><title>Node19</title>
<polygon style="fill:white;stroke:#bfbfbf;" points="504,-0 504,-20 555,-20 555,-0 504,-0"/>
<text text-anchor="middle" x="529" y="-7" style="font-family:Arial;font-size:10.00;">ostream</text>
</g>
<!-- Node18&#45;&gt;Node19 -->
<g id="edge44" class="edge"><title>Node18&#45;&gt;Node19</title>
<path style="fill:none;stroke:midnightblue;" d="M539,-56C538,-49 535,-39 533,-30"/>
<polygon style="fill:midnightblue;stroke:midnightblue;" points="536.393,-29.1194 531,-20 529.529,-30.4922 536.393,-29.1194"/>
</g>
</g>
</svg>
