<?xml version="1.0" encoding="UTF-8" standalone="no"?>
<!DOCTYPE svg PUBLIC "-//W3C//DTD SVG 1.0//EN"
 "http://www.w3.org/TR/2001/REC-SVG-20010904/DTD/svg10.dtd" [
 <!ATTLIST svg xmlns:xlink CDATA #FIXED "http://www.w3.org/1999/xlink">
]>
<!-- Generated by Graphviz version 2.20.2 (Tue Mar &#160;2 19:03:41 UTC 2010)
     For user: (jenkins)  -->
<!-- Title: G Pages: 1 -->
<svg width="556pt" height="84pt"
 viewBox="0.00 0.00 556.00 84.00" xmlns="http://www.w3.org/2000/svg" xmlns:xlink="http://www.w3.org/1999/xlink">
<g id="graph0" class="graph" transform="scale(1 1) rotate(0) translate(4 80)">
<title>G</title>
<polygon style="fill:white;stroke:white;" points="-4,4 -4,-80 552,-80 552,4 -4,4"/>
<!-- Node1 -->
<g id="node1" class="node"><title>Node1</title>
<polygon style="fill:#bfbfbf;stroke:black;" points="87,-56 87,-76 404,-76 404,-56 87,-56"/>
<text text-anchor="middle" x="245" y="-63" style="font-family:Arial;font-size:10.00;">ltr/learners/gp_learner/strategies/crossover_adjacent_trees_strategy.h</text>
</g>
<!-- Node2 -->
<g id="node3" class="node"><title>Node2</title>
<a xlink:href="gp__learner__unittest_8cc.html" target="_top" xlink:title="ltr/learners/gp_learner/gp_learner_unittest.cc">
<polygon style="fill:white;stroke:black;" points="0,-0 0,-20 209,-20 209,-0 0,-0"/>
<text text-anchor="middle" x="104" y="-7" style="font-family:Arial;font-size:10.00;">ltr/learners/gp_learner/gp_learner_unittest.cc</text>
</a>
</g>
<!-- Node1&#45;&gt;Node2 -->
<g id="edge2" class="edge"><title>Node1&#45;&gt;Node2</title>
<path style="fill:none;stroke:midnightblue;" d="M210,-52C185,-42 152,-29 129,-20"/>
<polygon style="fill:midnightblue;stroke:midnightblue;" points="209.415,-55.5357 220,-56 212.015,-49.0364 209.415,-55.5357"/>
</g>
<!-- Node3 -->
<g id="node5" class="node"><title>Node3</title>
<a xlink:href="crossover__adjacent__trees__strategy_8cc.html" target="_top" xlink:title="ltr/learners/gp_learner/strategies/crossover_adjacent_trees_strategy.cc">
<polygon style="fill:white;stroke:black;" points="226,-0 226,-20 548,-20 548,-0 226,-0"/>
<text text-anchor="middle" x="387" y="-7" style="font-family:Arial;font-size:10.00;">ltr/learners/gp_learner/strategies/crossover_adjacent_trees_strategy.cc</text>
</a>
</g>
<!-- Node1&#45;&gt;Node3 -->
<g id="edge4" class="edge"><title>Node1&#45;&gt;Node3</title>
<path style="fill:none;stroke:midnightblue;" d="M280,-52C305,-42 338,-29 361,-20"/>
<polygon style="fill:midnightblue;stroke:midnightblue;" points="277.985,-49.0364 270,-56 280.585,-55.5357 277.985,-49.0364"/>
</g>
</g>
</svg>
