<?xml version="1.0" encoding="UTF-8" standalone="no"?>
<!DOCTYPE svg PUBLIC "-//W3C//DTD SVG 1.0//EN"
 "http://www.w3.org/TR/2001/REC-SVG-20010904/DTD/svg10.dtd" [
 <!ATTLIST svg xmlns:xlink CDATA #FIXED "http://www.w3.org/1999/xlink">
]>
<!-- Generated by Graphviz version 2.20.2 (Tue Mar &#160;2 19:03:41 UTC 2010)
     For user: (jenkins)  -->
<!-- Title: G Pages: 1 -->
<svg width="1429pt" height="364pt"
 viewBox="0.00 0.00 1429.00 364.00" xmlns="http://www.w3.org/2000/svg" xmlns:xlink="http://www.w3.org/1999/xlink">
<g id="graph0" class="graph" transform="scale(1 1) rotate(0) translate(4 360)">
<title>G</title>
<polygon style="fill:white;stroke:white;" points="-4,4 -4,-360 1425,-360 1425,4 -4,4"/>
<!-- Node1 -->
<g id="node1" class="node"><title>Node1</title>
<polygon style="fill:#bfbfbf;stroke:black;" points="831,-336 831,-356 1023,-356 1023,-336 831,-336"/>
<text text-anchor="middle" x="927" y="-343" style="font-family:Arial;font-size:10.00;">ltr/data/utility/data_set_label_statistics.h</text>
</g>
<!-- Node2 -->
<g id="node3" class="node"><title>Node2</title>
<polygon style="fill:white;stroke:#bfbfbf;" points="120,-56 120,-76 155,-76 155,-56 120,-56"/>
<text text-anchor="middle" x="137" y="-63" style="font-family:Arial;font-size:10.00;">map</text>
</g>
<!-- Node1&#45;&gt;Node2 -->
<g id="edge2" class="edge"><title>Node1&#45;&gt;Node2</title>
<path style="fill:none;stroke:midnightblue;" d="M831,-344C600,-337 35,-313 35,-234 35,-234 35,-234 35,-178 35,-133 81,-98 111,-80"/>
<polygon style="fill:midnightblue;stroke:midnightblue;" points="112.958,-82.916 120,-75 109.559,-76.7969 112.958,-82.916"/>
</g>
<!-- Node3 -->
<g id="node5" class="node"><title>Node3</title>
<polygon style="fill:white;stroke:#bfbfbf;" points="1113,-56 1113,-76 1155,-76 1155,-56 1113,-56"/>
<text text-anchor="middle" x="1134" y="-63" style="font-family:Arial;font-size:10.00;">vector</text>
</g>
<!-- Node1&#45;&gt;Node3 -->
<g id="edge4" class="edge"><title>Node1&#45;&gt;Node3</title>
<path style="fill:none;stroke:midnightblue;" d="M935,-336C965,-294 1080,-138 1121,-84"/>
<polygon style="fill:midnightblue;stroke:midnightblue;" points="1123.8,-86.1 1127,-76 1118.2,-81.9 1123.8,-86.1"/>
</g>
<!-- Node4 -->
<g id="node7" class="node"><title>Node4</title>
<polygon style="fill:white;stroke:#bfbfbf;" points="1243,-280 1243,-300 1300,-300 1300,-280 1243,-280"/>
<text text-anchor="middle" x="1271" y="-287" style="font-family:Arial;font-size:10.00;">functional</text>
</g>
<!-- Node1&#45;&gt;Node4 -->
<g id="edge6" class="edge"><title>Node1&#45;&gt;Node4</title>
<path style="fill:none;stroke:midnightblue;" d="M1002,-336C1063,-327 1152,-314 1229,-300 1230,-300 1232,-299 1233,-299"/>
<polygon style="fill:midnightblue;stroke:midnightblue;" points="1233.88,-302.393 1243,-297 1232.51,-295.529 1233.88,-302.393"/>
</g>
<!-- Node5 -->
<g id="node9" class="node"><title>Node5</title>
<a xlink:href="data__set_8h.html" target="_top" xlink:title="ltr/data/data_set.h">
<polygon style="fill:white;stroke:black;" points="588,-280 588,-300 683,-300 683,-280 588,-280"/>
<text text-anchor="middle" x="635" y="-287" style="font-family:Arial;font-size:10.00;">ltr/data/data_set.h</text>
</a>
</g>
<!-- Node1&#45;&gt;Node5 -->
<g id="edge8" class="edge"><title>Node1&#45;&gt;Node5</title>
<path style="fill:none;stroke:midnightblue;" d="M875,-336C824,-327 746,-311 693,-301"/>
<polygon style="fill:midnightblue;stroke:midnightblue;" points="693.492,-297.529 683,-299 692.119,-304.393 693.492,-297.529"/>
</g>
<!-- Node25 -->
<g id="node78" class="node"><title>Node25</title>
<a xlink:href="per__object__accessor_8h.html" target="_top" xlink:title="ltr/data/per_object_accessor.h">
<polygon style="fill:white;stroke:black;" points="317,-224 317,-244 464,-244 464,-224 317,-224"/>
<text text-anchor="middle" x="390" y="-231" style="font-family:Arial;font-size:10.00;">ltr/data/per_object_accessor.h</text>
</a>
</g>
<!-- Node1&#45;&gt;Node25 -->
<g id="edge122" class="edge"><title>Node1&#45;&gt;Node25</title>
<path style="fill:none;stroke:midnightblue;" d="M831,-339C760,-332 663,-320 579,-300 524,-286 461,-263 424,-248"/>
<polygon style="fill:midnightblue;stroke:midnightblue;" points="424.585,-244.464 414,-244 421.985,-250.964 424.585,-244.464"/>
</g>
<!-- Node27 -->
<g id="node89" class="node"><title>Node27</title>
<a xlink:href="numerical_8h.html" target="_top" xlink:title="ltr/utility/numerical.h">
<polygon style="fill:white;stroke:black;" points="1317,-280 1317,-300 1421,-300 1421,-280 1317,-280"/>
<text text-anchor="middle" x="1369" y="-287" style="font-family:Arial;font-size:10.00;">ltr/utility/numerical.h</text>
</a>
</g>
<!-- Node1&#45;&gt;Node27 -->
<g id="edge124" class="edge"><title>Node1&#45;&gt;Node27</title>
<path style="fill:none;stroke:midnightblue;" d="M1019,-336C1094,-327 1202,-315 1307,-300"/>
<polygon style="fill:midnightblue;stroke:midnightblue;" points="1307.4,-303.478 1317,-299 1306.7,-296.512 1307.4,-303.478"/>
</g>
<!-- Node5&#45;&gt;Node3 -->
<g id="edge16" class="edge"><title>Node5&#45;&gt;Node3</title>
<path style="fill:none;stroke:midnightblue;" d="M677,-280C755,-260 928,-210 1056,-132 1078,-118 1101,-98 1116,-83"/>
<polygon style="fill:midnightblue;stroke:midnightblue;" points="1118.78,-85.2191 1124,-76 1114.17,-79.9511 1118.78,-85.2191"/>
</g>
<!-- Node6 -->
<g id="node11" class="node"><title>Node6</title>
<polygon style="fill:white;stroke:#bfbfbf;" points="481,-224 481,-244 532,-244 532,-224 481,-224"/>
<text text-anchor="middle" x="506" y="-231" style="font-family:Arial;font-size:10.00;">sstream</text>
</g>
<!-- Node5&#45;&gt;Node6 -->
<g id="edge10" class="edge"><title>Node5&#45;&gt;Node6</title>
<path style="fill:none;stroke:midnightblue;" d="M612,-280C592,-271 562,-258 539,-248"/>
<polygon style="fill:midnightblue;stroke:midnightblue;" points="539.585,-244.464 529,-244 536.985,-250.964 539.585,-244.464"/>
</g>
<!-- Node7 -->
<g id="node13" class="node"><title>Node7</title>
<polygon style="fill:white;stroke:#bfbfbf;" points="583,-56 583,-76 642,-76 642,-56 583,-56"/>
<text text-anchor="middle" x="612" y="-63" style="font-family:Arial;font-size:10.00;">stdexcept</text>
</g>
<!-- Node5&#45;&gt;Node7 -->
<g id="edge12" class="edge"><title>Node5&#45;&gt;Node7</title>
<path style="fill:none;stroke:midnightblue;" d="M634,-280C630,-245 619,-132 614,-86"/>
<polygon style="fill:midnightblue;stroke:midnightblue;" points="617.478,-85.6021 613,-76 610.512,-86.2987 617.478,-85.6021"/>
</g>
<!-- Node8 -->
<g id="node15" class="node"><title>Node8</title>
<polygon style="fill:white;stroke:#bfbfbf;" points="649,-0 649,-20 689,-20 689,-0 649,-0"/>
<text text-anchor="middle" x="669" y="-7" style="font-family:Arial;font-size:10.00;">string</text>
</g>
<!-- Node5&#45;&gt;Node8 -->
<g id="edge14" class="edge"><title>Node5&#45;&gt;Node8</title>
<path style="fill:none;stroke:midnightblue;" d="M683,-288C793,-284 1056,-271 1141,-244 1230,-214 1275,-214 1322,-132 1355,-71 1274,-71 1224,-56 1124,-25 800,-14 699,-10"/>
<polygon style="fill:midnightblue;stroke:midnightblue;" points="699,-6.5001 689,-10 699,-13.5001 699,-6.5001"/>
</g>
<!-- Node9 -->
<g id="node18" class="node"><title>Node9</title>
<a xlink:href="object_8h.html" target="_top" xlink:title="ltr/data/object.h">
<polygon style="fill:white;stroke:black;" points="291,-112 291,-132 375,-132 375,-112 291,-112"/>
<text text-anchor="middle" x="333" y="-119" style="font-family:Arial;font-size:10.00;">ltr/data/object.h</text>
</a>
</g>
<!-- Node5&#45;&gt;Node9 -->
<g id="edge18" class="edge"><title>Node5&#45;&gt;Node9</title>
<path style="fill:none;stroke:midnightblue;" d="M588,-287C502,-280 327,-264 308,-244 283,-215 305,-167 321,-141"/>
<polygon style="fill:midnightblue;stroke:midnightblue;" points="324.203,-142.441 326,-132 318.084,-139.042 324.203,-142.441"/>
</g>
<!-- Node16 -->
<g id="node38" class="node"><title>Node16</title>
<a xlink:href="object__list_8h.html" target="_top" xlink:title="ltr/data/object_list.h">
<polygon style="fill:white;stroke:black;" points="497,-168 497,-188 599,-188 599,-168 497,-168"/>
<text text-anchor="middle" x="548" y="-175" style="font-family:Arial;font-size:10.00;">ltr/data/object_list.h</text>
</a>
</g>
<!-- Node5&#45;&gt;Node16 -->
<g id="edge44" class="edge"><title>Node5&#45;&gt;Node16</title>
<path style="fill:none;stroke:midnightblue;" d="M627,-280C612,-260 580,-220 562,-196"/>
<polygon style="fill:midnightblue;stroke:midnightblue;" points="564.8,-193.9 556,-188 559.2,-198.1 564.8,-193.9"/>
</g>
<!-- Node17 -->
<g id="node46" class="node"><title>Node17</title>
<a xlink:href="object__pair_8h.html" target="_top" xlink:title="ltr/data/object_pair.h">
<polygon style="fill:white;stroke:black;" points="372,-168 372,-188 476,-188 476,-168 372,-168"/>
<text text-anchor="middle" x="424" y="-175" style="font-family:Arial;font-size:10.00;">ltr/data/object_pair.h</text>
</a>
</g>
<!-- Node5&#45;&gt;Node17 -->
<g id="edge58" class="edge"><title>Node5&#45;&gt;Node17</title>
<path style="fill:none;stroke:midnightblue;" d="M623,-280C605,-266 572,-241 540,-224 516,-211 488,-199 466,-191"/>
<polygon style="fill:midnightblue;stroke:midnightblue;" points="466.584,-187.521 456,-188 464.573,-194.226 466.584,-187.521"/>
</g>
<!-- Node18 -->
<g id="node54" class="node"><title>Node18</title>
<a xlink:href="feature__info_8h.html" target="_top" xlink:title="ltr/data/feature_info.h">
<polygon style="fill:white;stroke:black;" points="668,-224 668,-244 775,-244 775,-224 668,-224"/>
<text text-anchor="middle" x="721" y="-231" style="font-family:Arial;font-size:10.00;">ltr/data/feature_info.h</text>
</a>
</g>
<!-- Node5&#45;&gt;Node18 -->
<g id="edge72" class="edge"><title>Node5&#45;&gt;Node18</title>
<path style="fill:none;stroke:midnightblue;" d="M650,-280C663,-272 682,-259 697,-250"/>
<polygon style="fill:midnightblue;stroke:midnightblue;" points="699.1,-252.8 705,-244 694.9,-247.2 699.1,-252.8"/>
</g>
<!-- Node5&#45;&gt;Node25 -->
<g id="edge106" class="edge"><title>Node5&#45;&gt;Node25</title>
<path style="fill:none;stroke:midnightblue;" d="M591,-280C550,-271 488,-256 444,-246"/>
<polygon style="fill:midnightblue;stroke:midnightblue;" points="444.492,-242.529 434,-244 443.119,-249.393 444.492,-242.529"/>
</g>
<!-- Node26 -->
<g id="node85" class="node"><title>Node26</title>
<a xlink:href="aliaser_8h.html" target="_top" xlink:title="ltr/interfaces/aliaser.h">
<polygon style="fill:white;stroke:black;" points="1205,-112 1205,-132 1313,-132 1313,-112 1205,-112"/>
<text text-anchor="middle" x="1259" y="-119" style="font-family:Arial;font-size:10.00;">ltr/interfaces/aliaser.h</text>
</a>
</g>
<!-- Node5&#45;&gt;Node26 -->
<g id="edge118" class="edge"><title>Node5&#45;&gt;Node26</title>
<path style="fill:none;stroke:midnightblue;" d="M683,-289C789,-286 1038,-276 1115,-244 1170,-220 1221,-167 1244,-140"/>
<polygon style="fill:midnightblue;stroke:midnightblue;" points="1247.05,-141.831 1251,-132 1241.78,-137.221 1247.05,-141.831"/>
</g>
<!-- Node9&#45;&gt;Node2 -->
<g id="edge20" class="edge"><title>Node9&#45;&gt;Node2</title>
<path style="fill:none;stroke:midnightblue;" d="M292,-112C259,-104 213,-92 165,-76"/>
<polygon style="fill:midnightblue;stroke:midnightblue;" points="165.584,-72.5212 155,-73 163.573,-79.2259 165.584,-72.5212"/>
</g>
<!-- Node9&#45;&gt;Node3 -->
<g id="edge28" class="edge"><title>Node9&#45;&gt;Node3</title>
<path style="fill:none;stroke:midnightblue;" d="M375,-121C512,-117 944,-104 1103,-76"/>
<polygon style="fill:midnightblue;stroke:midnightblue;" points="1103.88,-79.3933 1113,-74 1102.51,-72.5292 1103.88,-79.3933"/>
</g>
<!-- Node9&#45;&gt;Node7 -->
<g id="edge24" class="edge"><title>Node9&#45;&gt;Node7</title>
<path style="fill:none;stroke:midnightblue;" d="M375,-114C428,-103 521,-84 573,-74"/>
<polygon style="fill:midnightblue;stroke:midnightblue;" points="573.881,-77.3933 583,-72 572.508,-70.5292 573.881,-77.3933"/>
</g>
<!-- Node9&#45;&gt;Node8 -->
<g id="edge26" class="edge"><title>Node9&#45;&gt;Node8</title>
<path style="fill:none;stroke:midnightblue;" d="M335,-112C338,-97 346,-69 364,-56 407,-24 570,-14 639,-11"/>
<polygon style="fill:midnightblue;stroke:midnightblue;" points="639,-14.5001 649,-11 639,-7.5001 639,-14.5001"/>
</g>
<!-- Node10 -->
<g id="node21" class="node"><title>Node10</title>
<polygon style="fill:white;stroke:#bfbfbf;" points="406,-0 406,-20 457,-20 457,-0 406,-0"/>
<text text-anchor="middle" x="431" y="-7" style="font-family:Arial;font-size:10.00;">ostream</text>
</g>
<!-- Node9&#45;&gt;Node10 -->
<g id="edge22" class="edge"><title>Node9&#45;&gt;Node10</title>
<path style="fill:none;stroke:midnightblue;" d="M330,-112C326,-98 321,-73 331,-56 339,-44 371,-30 396,-21"/>
<polygon style="fill:midnightblue;stroke:midnightblue;" points="397.427,-24.2259 406,-18 395.416,-17.5212 397.427,-24.2259"/>
</g>
<!-- Node11 -->
<g id="node26" class="node"><title>Node11</title>
<a xlink:href="printable_8h.html" target="_top" xlink:title="ltr/interfaces/printable.h">
<polygon style="fill:white;stroke:black;" points="373,-56 373,-76 490,-76 490,-56 373,-56"/>
<text text-anchor="middle" x="431" y="-63" style="font-family:Arial;font-size:10.00;">ltr/interfaces/printable.h</text>
</a>
</g>
<!-- Node9&#45;&gt;Node11 -->
<g id="edge30" class="edge"><title>Node9&#45;&gt;Node11</title>
<path style="fill:none;stroke:midnightblue;" d="M351,-112C366,-104 388,-91 404,-81"/>
<polygon style="fill:midnightblue;stroke:midnightblue;" points="405.958,-83.916 413,-76 402.559,-77.7969 405.958,-83.916"/>
</g>
<!-- Node12 -->
<g id="node30" class="node"><title>Node12</title>
<a xlink:href="shared__ptr_8h.html" target="_top" xlink:title="ltr/utility/shared_ptr.h">
<polygon style="fill:white;stroke:black;" points="172,-56 172,-76 279,-76 279,-56 172,-56"/>
<text text-anchor="middle" x="225" y="-63" style="font-family:Arial;font-size:10.00;">ltr/utility/shared_ptr.h</text>
</a>
</g>
<!-- Node9&#45;&gt;Node12 -->
<g id="edge36" class="edge"><title>Node9&#45;&gt;Node12</title>
<path style="fill:none;stroke:midnightblue;" d="M314,-112C298,-103 273,-90 254,-81"/>
<polygon style="fill:midnightblue;stroke:midnightblue;" points="255.441,-77.7969 245,-76 252.042,-83.916 255.441,-77.7969"/>
</g>
<!-- Node11&#45;&gt;Node8 -->
<g id="edge34" class="edge"><title>Node11&#45;&gt;Node8</title>
<path style="fill:none;stroke:midnightblue;" d="M474,-56C521,-45 598,-27 639,-17"/>
<polygon style="fill:midnightblue;stroke:midnightblue;" points="639.881,-20.3933 649,-15 638.508,-13.5292 639.881,-20.3933"/>
</g>
<!-- Node11&#45;&gt;Node10 -->
<g id="edge32" class="edge"><title>Node11&#45;&gt;Node10</title>
<path style="fill:none;stroke:midnightblue;" d="M431,-56C431,-49 431,-39 431,-30"/>
<polygon style="fill:midnightblue;stroke:midnightblue;" points="434.5,-30 431,-20 427.5,-30 434.5,-30"/>
</g>
<!-- Node13 -->
<g id="node32" class="node"><title>Node13</title>
<polygon style="fill:white;stroke:#bfbfbf;" points="332,-0 332,-20 388,-20 388,-0 332,-0"/>
<text text-anchor="middle" x="360" y="-7" style="font-family:Arial;font-size:10.00;">algorithm</text>
</g>
<!-- Node12&#45;&gt;Node13 -->
<g id="edge38" class="edge"><title>Node12&#45;&gt;Node13</title>
<path style="fill:none;stroke:midnightblue;" d="M249,-56C271,-47 302,-34 326,-24"/>
<polygon style="fill:midnightblue;stroke:midnightblue;" points="328.015,-26.9636 336,-20 325.415,-20.4643 328.015,-26.9636"/>
</g>
<!-- Node14 -->
<g id="node34" class="node"><title>Node14</title>
<polygon style="fill:white;stroke:#bfbfbf;" points="0,-0 0,-20 107,-20 107,-0 0,-0"/>
<text text-anchor="middle" x="53" y="-7" style="font-family:Arial;font-size:10.00;">boost/shared_ptr.hpp</text>
</g>
<!-- Node12&#45;&gt;Node14 -->
<g id="edge40" class="edge"><title>Node12&#45;&gt;Node14</title>
<path style="fill:none;stroke:midnightblue;" d="M194,-56C166,-47 124,-33 94,-23"/>
<polygon style="fill:midnightblue;stroke:midnightblue;" points="94.584,-19.5212 84,-20 92.5725,-26.2259 94.584,-19.5212"/>
</g>
<!-- Node15 -->
<g id="node36" class="node"><title>Node15</title>
<polygon style="fill:white;stroke:#bfbfbf;" points="124,-0 124,-20 315,-20 315,-0 124,-0"/>
<text text-anchor="middle" x="219" y="-7" style="font-family:Arial;font-size:10.00;">boost/smart_ptr/detail/operator_bool.hpp</text>
</g>
<!-- Node12&#45;&gt;Node15 -->
<g id="edge42" class="edge"><title>Node12&#45;&gt;Node15</title>
<path style="fill:none;stroke:midnightblue;" d="M224,-56C223,-49 222,-39 221,-30"/>
<polygon style="fill:midnightblue;stroke:midnightblue;" points="224.478,-29.6021 220,-20 217.512,-30.2987 224.478,-29.6021"/>
</g>
<!-- Node16&#45;&gt;Node3 -->
<g id="edge50" class="edge"><title>Node16&#45;&gt;Node3</title>
<path style="fill:none;stroke:midnightblue;" d="M599,-173C717,-161 996,-133 1001,-132 1022,-126 1074,-99 1106,-81"/>
<polygon style="fill:midnightblue;stroke:midnightblue;" points="1107.96,-83.916 1115,-76 1104.56,-77.7969 1107.96,-83.916"/>
</g>
<!-- Node16&#45;&gt;Node7 -->
<g id="edge46" class="edge"><title>Node16&#45;&gt;Node7</title>
<path style="fill:none;stroke:midnightblue;" d="M554,-168C565,-149 587,-109 601,-85"/>
<polygon style="fill:midnightblue;stroke:midnightblue;" points="604.203,-86.4414 606,-76 598.084,-83.0418 604.203,-86.4414"/>
</g>
<!-- Node16&#45;&gt;Node8 -->
<g id="edge48" class="edge"><title>Node16&#45;&gt;Node8</title>
<path style="fill:none;stroke:midnightblue;" d="M547,-168C547,-145 547,-90 574,-56 590,-35 618,-24 639,-17"/>
<polygon style="fill:midnightblue;stroke:midnightblue;" points="640.427,-20.2259 649,-14 638.416,-13.5212 640.427,-20.2259"/>
</g>
<!-- Node16&#45;&gt;Node9 -->
<g id="edge52" class="edge"><title>Node16&#45;&gt;Node9</title>
<path style="fill:none;stroke:midnightblue;" d="M510,-168C474,-159 421,-145 382,-135"/>
<polygon style="fill:midnightblue;stroke:midnightblue;" points="382.584,-131.521 372,-132 380.573,-138.226 382.584,-131.521"/>
</g>
<!-- Node16&#45;&gt;Node11 -->
<g id="edge54" class="edge"><title>Node16&#45;&gt;Node11</title>
<path style="fill:none;stroke:midnightblue;" d="M537,-168C517,-148 474,-107 449,-83"/>
<polygon style="fill:midnightblue;stroke:midnightblue;" points="451.546,-80.5962 442,-76 446.596,-85.546 451.546,-80.5962"/>
</g>
<!-- Node16&#45;&gt;Node12 -->
<g id="edge56" class="edge"><title>Node16&#45;&gt;Node12</title>
<path style="fill:none;stroke:midnightblue;" d="M497,-169C421,-157 287,-134 282,-132 263,-120 247,-100 236,-85"/>
<polygon style="fill:midnightblue;stroke:midnightblue;" points="238.916,-83.0418 231,-76 232.797,-86.4414 238.916,-83.0418"/>
</g>
<!-- Node17&#45;&gt;Node3 -->
<g id="edge64" class="edge"><title>Node17&#45;&gt;Node3</title>
<path style="fill:none;stroke:midnightblue;" d="M476,-169C480,-169 484,-168 488,-168 701,-143 765,-197 968,-132 985,-126 986,-119 1001,-112 1010,-107 1067,-89 1103,-76"/>
<polygon style="fill:midnightblue;stroke:midnightblue;" points="1104.43,-79.2259 1113,-73 1102.42,-72.5212 1104.43,-79.2259"/>
</g>
<!-- Node17&#45;&gt;Node7 -->
<g id="edge60" class="edge"><title>Node17&#45;&gt;Node7</title>
<path style="fill:none;stroke:midnightblue;" d="M441,-168C473,-148 547,-104 586,-81"/>
<polygon style="fill:midnightblue;stroke:midnightblue;" points="587.958,-83.916 595,-76 584.559,-77.7969 587.958,-83.916"/>
</g>
<!-- Node17&#45;&gt;Node8 -->
<g id="edge62" class="edge"><title>Node17&#45;&gt;Node8</title>
<path style="fill:none;stroke:midnightblue;" d="M433,-168C453,-145 506,-90 559,-56 584,-39 616,-27 639,-19"/>
<polygon style="fill:midnightblue;stroke:midnightblue;" points="640.427,-22.2259 649,-16 638.416,-15.5212 640.427,-22.2259"/>
</g>
<!-- Node17&#45;&gt;Node9 -->
<g id="edge66" class="edge"><title>Node17&#45;&gt;Node9</title>
<path style="fill:none;stroke:midnightblue;" d="M408,-168C395,-160 374,-147 359,-137"/>
<polygon style="fill:midnightblue;stroke:midnightblue;" points="360.441,-133.797 350,-132 357.042,-139.916 360.441,-133.797"/>
</g>
<!-- Node17&#45;&gt;Node11 -->
<g id="edge68" class="edge"><title>Node17&#45;&gt;Node11</title>
<path style="fill:none;stroke:midnightblue;" d="M425,-168C425,-155 426,-131 427,-112 428,-103 428,-94 429,-86"/>
<polygon style="fill:midnightblue;stroke:midnightblue;" points="432.488,-86.2987 430,-76 425.522,-85.6021 432.488,-86.2987"/>
</g>
<!-- Node17&#45;&gt;Node12 -->
<g id="edge70" class="edge"><title>Node17&#45;&gt;Node12</title>
<path style="fill:none;stroke:midnightblue;" d="M372,-170C327,-162 267,-148 249,-132 236,-120 230,-101 228,-86"/>
<polygon style="fill:midnightblue;stroke:midnightblue;" points="231.393,-85.1194 226,-76 224.529,-86.4922 231.393,-85.1194"/>
</g>
<!-- Node18&#45;&gt;Node2 -->
<g id="edge74" class="edge"><title>Node18&#45;&gt;Node2</title>
<path style="fill:none;stroke:midnightblue;" d="M668,-230C557,-222 311,-203 275,-188 222,-165 174,-112 151,-84"/>
<polygon style="fill:midnightblue;stroke:midnightblue;" points="153.8,-81.9 145,-76 148.2,-86.1 153.8,-81.9"/>
</g>
<!-- Node18&#45;&gt;Node3 -->
<g id="edge78" class="edge"><title>Node18&#45;&gt;Node3</title>
<path style="fill:none;stroke:midnightblue;" d="M761,-224C821,-208 937,-175 1029,-132 1059,-117 1091,-96 1112,-82"/>
<polygon style="fill:midnightblue;stroke:midnightblue;" points="1114.1,-84.8 1120,-76 1109.9,-79.2 1114.1,-84.8"/>
</g>
<!-- Node18&#45;&gt;Node8 -->
<g id="edge76" class="edge"><title>Node18&#45;&gt;Node8</title>
<path style="fill:none;stroke:midnightblue;" d="M775,-231C917,-221 1279,-182 1164,-56 1132,-21 801,-13 699,-10"/>
<polygon style="fill:midnightblue;stroke:midnightblue;" points="699,-6.5001 689,-10 699,-13.5001 699,-6.5001"/>
</g>
<!-- Node18&#45;&gt;Node12 -->
<g id="edge104" class="edge"><title>Node18&#45;&gt;Node12</title>
<path style="fill:none;stroke:midnightblue;" d="M668,-232C597,-228 469,-217 363,-188 303,-171 271,-182 233,-132 224,-119 222,-100 222,-86"/>
<polygon style="fill:midnightblue;stroke:midnightblue;" points="225.488,-86.2987 223,-76 218.522,-85.6021 225.488,-86.2987"/>
</g>
<!-- Node19 -->
<g id="node59" class="node"><title>Node19</title>
<a xlink:href="parameterized_8h.html" target="_top" xlink:title="ltr/interfaces/parameterized.h">
<polygon style="fill:white;stroke:black;" points="659,-168 659,-188 801,-188 801,-168 659,-168"/>
<text text-anchor="middle" x="730" y="-175" style="font-family:Arial;font-size:10.00;">ltr/interfaces/parameterized.h</text>
</a>
</g>
<!-- Node18&#45;&gt;Node19 -->
<g id="edge80" class="edge"><title>Node18&#45;&gt;Node19</title>
<path style="fill:none;stroke:midnightblue;" d="M723,-224C724,-217 725,-207 727,-198"/>
<polygon style="fill:midnightblue;stroke:midnightblue;" points="730.488,-198.299 728,-188 723.522,-197.602 730.488,-198.299"/>
</g>
<!-- Node19&#45;&gt;Node7 -->
<g id="edge82" class="edge"><title>Node19&#45;&gt;Node7</title>
<path style="fill:none;stroke:midnightblue;" d="M719,-168C699,-148 655,-107 630,-83"/>
<polygon style="fill:midnightblue;stroke:midnightblue;" points="632.546,-80.5962 623,-76 627.596,-85.546 632.546,-80.5962"/>
</g>
<!-- Node19&#45;&gt;Node8 -->
<g id="edge84" class="edge"><title>Node19&#45;&gt;Node8</title>
<path style="fill:none;stroke:midnightblue;" d="M726,-168C716,-141 689,-65 676,-29"/>
<polygon style="fill:midnightblue;stroke:midnightblue;" points="679.483,-28.38 673,-20 672.842,-30.5937 679.483,-28.38"/>
</g>
<!-- Node20 -->
<g id="node63" class="node"><title>Node20</title>
<a xlink:href="parameters__container_8h.html" target="_top" xlink:title="ltr/parameters_container/parameters_container.h">
<polygon style="fill:white;stroke:black;" points="735,-112 735,-132 960,-132 960,-112 735,-112"/>
<text text-anchor="middle" x="847" y="-119" style="font-family:Arial;font-size:10.00;">ltr/parameters_container/parameters_container.h</text>
</a>
</g>
<!-- Node19&#45;&gt;Node20 -->
<g id="edge86" class="edge"><title>Node19&#45;&gt;Node20</title>
<path style="fill:none;stroke:midnightblue;" d="M751,-168C769,-159 796,-146 817,-136"/>
<polygon style="fill:midnightblue;stroke:midnightblue;" points="818.283,-139.26 826,-132 815.44,-132.863 818.283,-139.26"/>
</g>
<!-- Node20&#45;&gt;Node7 -->
<g id="edge92" class="edge"><title>Node20&#45;&gt;Node7</title>
<path style="fill:none;stroke:midnightblue;" d="M805,-112C762,-102 694,-86 652,-75"/>
<polygon style="fill:midnightblue;stroke:midnightblue;" points="652.492,-71.5292 642,-73 651.119,-78.3933 652.492,-71.5292"/>
</g>
<!-- Node20&#45;&gt;Node8 -->
<g id="edge94" class="edge"><title>Node20&#45;&gt;Node8</title>
<path style="fill:none;stroke:midnightblue;" d="M808,-112C783,-104 751,-93 726,-76 708,-63 692,-43 682,-29"/>
<polygon style="fill:midnightblue;stroke:midnightblue;" points="684.459,-26.3791 676,-20 678.635,-30.262 684.459,-26.3791"/>
</g>
<!-- Node20&#45;&gt;Node11 -->
<g id="edge102" class="edge"><title>Node20&#45;&gt;Node11</title>
<path style="fill:none;stroke:midnightblue;" d="M773,-112C695,-101 576,-85 500,-75"/>
<polygon style="fill:midnightblue;stroke:midnightblue;" points="500.299,-71.5125 490,-74 499.602,-78.4778 500.299,-71.5125"/>
</g>
<!-- Node20&#45;&gt;Node12 -->
<g id="edge100" class="edge"><title>Node20&#45;&gt;Node12</title>
<path style="fill:none;stroke:midnightblue;" d="M736,-112C606,-100 395,-81 289,-72"/>
<polygon style="fill:midnightblue;stroke:midnightblue;" points="289.299,-68.5125 279,-71 288.602,-75.4778 289.299,-68.5125"/>
</g>
<!-- Node21 -->
<g id="node65" class="node"><title>Node21</title>
<polygon style="fill:white;stroke:#bfbfbf;" points="1021,-56 1021,-76 1095,-76 1095,-56 1021,-56"/>
<text text-anchor="middle" x="1058" y="-63" style="font-family:Arial;font-size:10.00;">logog/logog.h</text>
</g>
<!-- Node20&#45;&gt;Node21 -->
<g id="edge88" class="edge"><title>Node20&#45;&gt;Node21</title>
<path style="fill:none;stroke:midnightblue;" d="M885,-112C920,-103 973,-89 1011,-79"/>
<polygon style="fill:midnightblue;stroke:midnightblue;" points="1012.43,-82.2259 1021,-76 1010.42,-75.5212 1012.43,-82.2259"/>
</g>
<!-- Node22 -->
<g id="node67" class="node"><title>Node22</title>
<polygon style="fill:white;stroke:#bfbfbf;" points="735,-56 735,-76 764,-76 764,-56 735,-56"/>
<text text-anchor="middle" x="749" y="-63" style="font-family:Arial;font-size:10.00;">list</text>
</g>
<!-- Node20&#45;&gt;Node22 -->
<g id="edge90" class="edge"><title>Node20&#45;&gt;Node22</title>
<path style="fill:none;stroke:midnightblue;" d="M829,-112C814,-103 791,-90 773,-80"/>
<polygon style="fill:midnightblue;stroke:midnightblue;" points="774.441,-76.7969 764,-75 771.042,-82.916 774.441,-76.7969"/>
</g>
<!-- Node23 -->
<g id="node71" class="node"><title>Node23</title>
<polygon style="fill:white;stroke:#bfbfbf;" points="781,-56 781,-76 858,-76 858,-56 781,-56"/>
<text text-anchor="middle" x="819" y="-63" style="font-family:Arial;font-size:10.00;">boost/any.hpp</text>
</g>
<!-- Node20&#45;&gt;Node23 -->
<g id="edge96" class="edge"><title>Node20&#45;&gt;Node23</title>
<path style="fill:none;stroke:midnightblue;" d="M842,-112C838,-105 833,-94 828,-85"/>
<polygon style="fill:midnightblue;stroke:midnightblue;" points="831.26,-83.7166 824,-76 824.863,-86.5596 831.26,-83.7166"/>
</g>
<!-- Node24 -->
<g id="node73" class="node"><title>Node24</title>
<polygon style="fill:white;stroke:#bfbfbf;" points="875,-56 875,-76 1004,-76 1004,-56 875,-56"/>
<text text-anchor="middle" x="939" y="-63" style="font-family:Arial;font-size:10.00;">boost/unordered_map.hpp</text>
</g>
<!-- Node20&#45;&gt;Node24 -->
<g id="edge98" class="edge"><title>Node20&#45;&gt;Node24</title>
<path style="fill:none;stroke:midnightblue;" d="M863,-112C877,-104 898,-91 913,-81"/>
<polygon style="fill:midnightblue;stroke:midnightblue;" points="914.958,-83.916 922,-76 911.559,-77.7969 914.958,-83.916"/>
</g>
<!-- Node25&#45;&gt;Node9 -->
<g id="edge108" class="edge"><title>Node25&#45;&gt;Node9</title>
<path style="fill:none;stroke:midnightblue;" d="M384,-224C378,-215 370,-201 363,-188 356,-173 348,-155 342,-142"/>
<polygon style="fill:midnightblue;stroke:midnightblue;" points="344.964,-139.985 338,-132 338.464,-142.585 344.964,-139.985"/>
</g>
<!-- Node25&#45;&gt;Node12 -->
<g id="edge116" class="edge"><title>Node25&#45;&gt;Node12</title>
<path style="fill:none;stroke:midnightblue;" d="M317,-228C261,-222 192,-210 173,-188 152,-161 160,-142 173,-112 178,-100 189,-89 199,-82"/>
<polygon style="fill:midnightblue;stroke:midnightblue;" points="201.1,-84.8 207,-76 196.9,-79.2 201.1,-84.8"/>
</g>
<!-- Node25&#45;&gt;Node16 -->
<g id="edge112" class="edge"><title>Node25&#45;&gt;Node16</title>
<path style="fill:none;stroke:midnightblue;" d="M418,-224C444,-215 482,-201 510,-191"/>
<polygon style="fill:midnightblue;stroke:midnightblue;" points="511.427,-194.226 520,-188 509.416,-187.521 511.427,-194.226"/>
</g>
<!-- Node25&#45;&gt;Node17 -->
<g id="edge110" class="edge"><title>Node25&#45;&gt;Node17</title>
<path style="fill:none;stroke:midnightblue;" d="M396,-224C400,-217 407,-206 413,-197"/>
<polygon style="fill:midnightblue;stroke:midnightblue;" points="416.203,-198.441 418,-188 410.084,-195.042 416.203,-198.441"/>
</g>
<!-- Node25&#45;&gt;Node19 -->
<g id="edge114" class="edge"><title>Node25&#45;&gt;Node19</title>
<path style="fill:none;stroke:midnightblue;" d="M451,-224C510,-215 598,-200 660,-190"/>
<polygon style="fill:midnightblue;stroke:midnightblue;" points="660.881,-193.393 670,-188 659.508,-186.529 660.881,-193.393"/>
</g>
<!-- Node26&#45;&gt;Node8 -->
<g id="edge120" class="edge"><title>Node26&#45;&gt;Node8</title>
<path style="fill:none;stroke:midnightblue;" d="M1253,-112C1243,-97 1223,-68 1197,-56 1153,-34 805,-16 699,-11"/>
<polygon style="fill:midnightblue;stroke:midnightblue;" points="699,-7.5001 689,-11 699,-14.5001 699,-7.5001"/>
</g>
<!-- Node28 -->
<g id="node91" class="node"><title>Node28</title>
<polygon style="fill:white;stroke:#bfbfbf;" points="1319,-224 1319,-244 1362,-244 1362,-224 1319,-224"/>
<text text-anchor="middle" x="1340" y="-231" style="font-family:Arial;font-size:10.00;">cmath</text>
</g>
<!-- Node27&#45;&gt;Node28 -->
<g id="edge126" class="edge"><title>Node27&#45;&gt;Node28</title>
<path style="fill:none;stroke:midnightblue;" d="M1364,-280C1360,-273 1354,-262 1349,-253"/>
<polygon style="fill:midnightblue;stroke:midnightblue;" points="1352.26,-251.717 1345,-244 1345.86,-254.56 1352.26,-251.717"/>
</g>
<!-- Node29 -->
<g id="node93" class="node"><title>Node29</title>
<polygon style="fill:white;stroke:#bfbfbf;" points="1379,-224 1379,-244 1418,-244 1418,-224 1379,-224"/>
<text text-anchor="middle" x="1398" y="-231" style="font-family:Arial;font-size:10.00;">limits</text>
</g>
<!-- Node27&#45;&gt;Node29 -->
<g id="edge128" class="edge"><title>Node27&#45;&gt;Node29</title>
<path style="fill:none;stroke:midnightblue;" d="M1374,-280C1378,-273 1384,-262 1389,-253"/>
<polygon style="fill:midnightblue;stroke:midnightblue;" points="1392.14,-254.56 1393,-244 1385.74,-251.717 1392.14,-254.56"/>
</g>
</g>
</svg>
