<?xml version="1.0" encoding="UTF-8" standalone="no"?>
<!DOCTYPE svg PUBLIC "-//W3C//DTD SVG 1.0//EN"
 "http://www.w3.org/TR/2001/REC-SVG-20010904/DTD/svg10.dtd" [
 <!ATTLIST svg xmlns:xlink CDATA #FIXED "http://www.w3.org/1999/xlink">
]>
<!-- Generated by Graphviz version 2.20.2 (Tue Mar &#160;2 19:03:41 UTC 2010)
     For user: (jenkins)  -->
<!-- Title: G Pages: 1 -->
<svg width="1492pt" height="476pt"
 viewBox="0.00 0.00 1492.00 476.00" xmlns="http://www.w3.org/2000/svg" xmlns:xlink="http://www.w3.org/1999/xlink">
<g id="graph0" class="graph" transform="scale(1 1) rotate(0) translate(4 472)">
<title>G</title>
<polygon style="fill:white;stroke:white;" points="-4,4 -4,-472 1488,-472 1488,4 -4,4"/>
<!-- Node1 -->
<g id="node1" class="node"><title>Node1</title>
<polygon style="fill:#bfbfbf;stroke:black;" points="320,-448 320,-468 615,-468 615,-448 320,-448"/>
<text text-anchor="middle" x="467" y="-455" style="font-family:Arial;font-size:10.00;">ltr/learners/decision_tree/split_criteria/data_size_stop_criteria.cc</text>
</g>
<!-- Node2 -->
<g id="node3" class="node"><title>Node2</title>
<a xlink:href="data__size__stop__criteria_8h.html" target="_top" xlink:title="ltr/learners/decision_tree/split_criteria/data_size_stop_criteria.h">
<polygon style="fill:white;stroke:black;" points="215,-392 215,-412 505,-412 505,-392 215,-392"/>
<text text-anchor="middle" x="360" y="-399" style="font-family:Arial;font-size:10.00;">ltr/learners/decision_tree/split_criteria/data_size_stop_criteria.h</text>
</a>
</g>
<!-- Node1&#45;&gt;Node2 -->
<g id="edge2" class="edge"><title>Node1&#45;&gt;Node2</title>
<path style="fill:none;stroke:midnightblue;" d="M448,-448C432,-439 407,-426 388,-417"/>
<polygon style="fill:midnightblue;stroke:midnightblue;" points="389.441,-413.797 379,-412 386.042,-419.916 389.441,-413.797"/>
</g>
<!-- Node28 -->
<g id="node91" class="node"><title>Node28</title>
<a xlink:href="numerical_8h.html" target="_top" xlink:title="ltr/utility/numerical.h">
<polygon style="fill:white;stroke:black;" points="523,-392 523,-412 627,-412 627,-392 523,-392"/>
<text text-anchor="middle" x="575" y="-399" style="font-family:Arial;font-size:10.00;">ltr/utility/numerical.h</text>
</a>
</g>
<!-- Node1&#45;&gt;Node28 -->
<g id="edge126" class="edge"><title>Node1&#45;&gt;Node28</title>
<path style="fill:none;stroke:midnightblue;" d="M486,-448C502,-439 527,-426 546,-417"/>
<polygon style="fill:midnightblue;stroke:midnightblue;" points="547.958,-419.916 555,-412 544.559,-413.797 547.958,-419.916"/>
</g>
<!-- Node3 -->
<g id="node5" class="node"><title>Node3</title>
<a xlink:href="data__set_8h.html" target="_top" xlink:title="ltr/data/data_set.h">
<polygon style="fill:white;stroke:black;" points="532,-280 532,-300 627,-300 627,-280 532,-280"/>
<text text-anchor="middle" x="579" y="-287" style="font-family:Arial;font-size:10.00;">ltr/data/data_set.h</text>
</a>
</g>
<!-- Node2&#45;&gt;Node3 -->
<g id="edge4" class="edge"><title>Node2&#45;&gt;Node3</title>
<path style="fill:none;stroke:midnightblue;" d="M411,-392C441,-385 479,-373 509,-356 530,-343 550,-323 564,-308"/>
<polygon style="fill:midnightblue;stroke:midnightblue;" points="566.8,-310.1 570,-300 561.2,-305.9 566.8,-310.1"/>
</g>
<!-- Node12 -->
<g id="node28" class="node"><title>Node12</title>
<a xlink:href="shared__ptr_8h.html" target="_top" xlink:title="ltr/utility/shared_ptr.h">
<polygon style="fill:white;stroke:black;" points="166,-56 166,-76 273,-76 273,-56 166,-56"/>
<text text-anchor="middle" x="219" y="-63" style="font-family:Arial;font-size:10.00;">ltr/utility/shared_ptr.h</text>
</a>
</g>
<!-- Node2&#45;&gt;Node12 -->
<g id="edge124" class="edge"><title>Node2&#45;&gt;Node12</title>
<path style="fill:none;stroke:midnightblue;" d="M317,-392C246,-374 110,-334 110,-290 110,-290 110,-290 110,-178 110,-132 156,-99 188,-81"/>
<polygon style="fill:midnightblue;stroke:midnightblue;" points="189.958,-83.916 197,-76 186.559,-77.7969 189.958,-83.916"/>
</g>
<!-- Node27 -->
<g id="node86" class="node"><title>Node27</title>
<a xlink:href="stop__splitting__criteria_8h.html" target="_top" xlink:title="ltr/learners/decision_tree/split_criteria/stop_splitting_criteria.h">
<polygon style="fill:white;stroke:black;" points="218,-336 218,-356 500,-356 500,-336 218,-336"/>
<text text-anchor="middle" x="359" y="-343" style="font-family:Arial;font-size:10.00;">ltr/learners/decision_tree/split_criteria/stop_splitting_criteria.h</text>
</a>
</g>
<!-- Node2&#45;&gt;Node27 -->
<g id="edge118" class="edge"><title>Node2&#45;&gt;Node27</title>
<path style="fill:none;stroke:midnightblue;" d="M360,-392C360,-385 360,-375 360,-366"/>
<polygon style="fill:midnightblue;stroke:midnightblue;" points="363.478,-365.602 359,-356 356.512,-366.299 363.478,-365.602"/>
</g>
<!-- Node4 -->
<g id="node7" class="node"><title>Node4</title>
<polygon style="fill:white;stroke:#bfbfbf;" points="280,-224 280,-244 331,-244 331,-224 280,-224"/>
<text text-anchor="middle" x="305" y="-231" style="font-family:Arial;font-size:10.00;">sstream</text>
</g>
<!-- Node3&#45;&gt;Node4 -->
<g id="edge6" class="edge"><title>Node3&#45;&gt;Node4</title>
<path style="fill:none;stroke:midnightblue;" d="M532,-282C484,-273 408,-258 344,-244 343,-244 342,-244 341,-243"/>
<polygon style="fill:midnightblue;stroke:midnightblue;" points="341.492,-239.529 331,-241 340.119,-246.393 341.492,-239.529"/>
</g>
<!-- Node5 -->
<g id="node9" class="node"><title>Node5</title>
<polygon style="fill:white;stroke:#bfbfbf;" points="824,-56 824,-76 883,-76 883,-56 824,-56"/>
<text text-anchor="middle" x="853" y="-63" style="font-family:Arial;font-size:10.00;">stdexcept</text>
</g>
<!-- Node3&#45;&gt;Node5 -->
<g id="edge8" class="edge"><title>Node3&#45;&gt;Node5</title>
<path style="fill:none;stroke:midnightblue;" d="M593,-280C627,-256 715,-191 785,-132 803,-116 822,-97 836,-83"/>
<polygon style="fill:midnightblue;stroke:midnightblue;" points="838.404,-85.546 843,-76 833.454,-80.5962 838.404,-85.546"/>
</g>
<!-- Node6 -->
<g id="node11" class="node"><title>Node6</title>
<polygon style="fill:white;stroke:#bfbfbf;" points="890,-0 890,-20 930,-20 930,-0 890,-0"/>
<text text-anchor="middle" x="910" y="-7" style="font-family:Arial;font-size:10.00;">string</text>
</g>
<!-- Node3&#45;&gt;Node6 -->
<g id="edge10" class="edge"><title>Node3&#45;&gt;Node6</title>
<path style="fill:none;stroke:midnightblue;" d="M627,-289C814,-285 1484,-265 1484,-178 1484,-178 1484,-178 1484,-122 1484,-74 1443,-73 1399,-56 1314,-22 1034,-13 940,-10"/>
<polygon style="fill:midnightblue;stroke:midnightblue;" points="940,-6.5001 930,-10 940,-13.5001 940,-6.5001"/>
</g>
<!-- Node7 -->
<g id="node13" class="node"><title>Node7</title>
<polygon style="fill:white;stroke:#bfbfbf;" points="647,-56 647,-76 689,-76 689,-56 647,-56"/>
<text text-anchor="middle" x="668" y="-63" style="font-family:Arial;font-size:10.00;">vector</text>
</g>
<!-- Node3&#45;&gt;Node7 -->
<g id="edge12" class="edge"><title>Node3&#45;&gt;Node7</title>
<path style="fill:none;stroke:midnightblue;" d="M588,-280C603,-263 634,-225 649,-188 662,-153 666,-111 667,-86"/>
<polygon style="fill:midnightblue;stroke:midnightblue;" points="670.488,-86.2987 668,-76 663.522,-85.6021 670.488,-86.2987"/>
</g>
<!-- Node8 -->
<g id="node15" class="node"><title>Node8</title>
<a xlink:href="object_8h.html" target="_top" xlink:title="ltr/data/object.h">
<polygon style="fill:white;stroke:black;" points="442,-112 442,-132 526,-132 526,-112 442,-112"/>
<text text-anchor="middle" x="484" y="-119" style="font-family:Arial;font-size:10.00;">ltr/data/object.h</text>
</a>
</g>
<!-- Node3&#45;&gt;Node8 -->
<g id="edge14" class="edge"><title>Node3&#45;&gt;Node8</title>
<path style="fill:none;stroke:midnightblue;" d="M573,-280C558,-253 515,-177 495,-141"/>
<polygon style="fill:midnightblue;stroke:midnightblue;" points="497.916,-139.042 490,-132 491.797,-142.441 497.916,-139.042"/>
</g>
<!-- Node16 -->
<g id="node36" class="node"><title>Node16</title>
<a xlink:href="object__list_8h.html" target="_top" xlink:title="ltr/data/object_list.h">
<polygon style="fill:white;stroke:black;" points="319,-168 319,-188 421,-188 421,-168 319,-168"/>
<text text-anchor="middle" x="370" y="-175" style="font-family:Arial;font-size:10.00;">ltr/data/object_list.h</text>
</a>
</g>
<!-- Node3&#45;&gt;Node16 -->
<g id="edge40" class="edge"><title>Node3&#45;&gt;Node16</title>
<path style="fill:none;stroke:midnightblue;" d="M532,-285C478,-279 397,-266 377,-244 367,-231 366,-213 367,-198"/>
<polygon style="fill:midnightblue;stroke:midnightblue;" points="370.488,-198.299 368,-188 363.522,-197.602 370.488,-198.299"/>
</g>
<!-- Node17 -->
<g id="node44" class="node"><title>Node17</title>
<a xlink:href="object__pair_8h.html" target="_top" xlink:title="ltr/data/object_pair.h">
<polygon style="fill:white;stroke:black;" points="536,-168 536,-188 640,-188 640,-168 536,-168"/>
<text text-anchor="middle" x="588" y="-175" style="font-family:Arial;font-size:10.00;">ltr/data/object_pair.h</text>
</a>
</g>
<!-- Node3&#45;&gt;Node17 -->
<g id="edge54" class="edge"><title>Node3&#45;&gt;Node17</title>
<path style="fill:none;stroke:midnightblue;" d="M580,-280C582,-261 584,-222 586,-198"/>
<polygon style="fill:midnightblue;stroke:midnightblue;" points="589.488,-198.299 587,-188 582.522,-197.602 589.488,-198.299"/>
</g>
<!-- Node18 -->
<g id="node52" class="node"><title>Node18</title>
<a xlink:href="feature__info_8h.html" target="_top" xlink:title="ltr/data/feature_info.h">
<polygon style="fill:white;stroke:black;" points="751,-224 751,-244 858,-244 858,-224 751,-224"/>
<text text-anchor="middle" x="804" y="-231" style="font-family:Arial;font-size:10.00;">ltr/data/feature_info.h</text>
</a>
</g>
<!-- Node3&#45;&gt;Node18 -->
<g id="edge68" class="edge"><title>Node3&#45;&gt;Node18</title>
<path style="fill:none;stroke:midnightblue;" d="M619,-280C657,-271 714,-256 754,-246"/>
<polygon style="fill:midnightblue;stroke:midnightblue;" points="754.881,-249.393 764,-244 753.508,-242.529 754.881,-249.393"/>
</g>
<!-- Node25 -->
<g id="node76" class="node"><title>Node25</title>
<a xlink:href="per__object__accessor_8h.html" target="_top" xlink:title="ltr/data/per_object_accessor.h">
<polygon style="fill:white;stroke:black;" points="386,-224 386,-244 533,-244 533,-224 386,-224"/>
<text text-anchor="middle" x="459" y="-231" style="font-family:Arial;font-size:10.00;">ltr/data/per_object_accessor.h</text>
</a>
</g>
<!-- Node3&#45;&gt;Node25 -->
<g id="edge102" class="edge"><title>Node3&#45;&gt;Node25</title>
<path style="fill:none;stroke:midnightblue;" d="M558,-280C539,-271 512,-258 490,-248"/>
<polygon style="fill:midnightblue;stroke:midnightblue;" points="491.56,-244.863 481,-244 488.717,-251.26 491.56,-244.863"/>
</g>
<!-- Node26 -->
<g id="node83" class="node"><title>Node26</title>
<a xlink:href="aliaser_8h.html" target="_top" xlink:title="ltr/interfaces/aliaser.h">
<polygon style="fill:white;stroke:black;" points="1348,-112 1348,-132 1456,-132 1456,-112 1348,-112"/>
<text text-anchor="middle" x="1402" y="-119" style="font-family:Arial;font-size:10.00;">ltr/interfaces/aliaser.h</text>
</a>
</g>
<!-- Node3&#45;&gt;Node26 -->
<g id="edge114" class="edge"><title>Node3&#45;&gt;Node26</title>
<path style="fill:none;stroke:midnightblue;" d="M627,-287C773,-279 1207,-249 1334,-188 1356,-177 1375,-156 1388,-140"/>
<polygon style="fill:midnightblue;stroke:midnightblue;" points="1390.8,-142.1 1394,-132 1385.2,-137.9 1390.8,-142.1"/>
</g>
<!-- Node8&#45;&gt;Node5 -->
<g id="edge20" class="edge"><title>Node8&#45;&gt;Node5</title>
<path style="fill:none;stroke:midnightblue;" d="M526,-118C587,-111 705,-98 814,-76"/>
<polygon style="fill:midnightblue;stroke:midnightblue;" points="814.881,-79.3933 824,-74 813.508,-72.5292 814.881,-79.3933"/>
</g>
<!-- Node8&#45;&gt;Node6 -->
<g id="edge22" class="edge"><title>Node8&#45;&gt;Node6</title>
<path style="fill:none;stroke:midnightblue;" d="M511,-112C535,-103 570,-90 600,-76 617,-68 619,-62 638,-56 723,-27 829,-16 880,-12"/>
<polygon style="fill:midnightblue;stroke:midnightblue;" points="880.398,-15.4778 890,-11 879.701,-8.5125 880.398,-15.4778"/>
</g>
<!-- Node8&#45;&gt;Node7 -->
<g id="edge24" class="edge"><title>Node8&#45;&gt;Node7</title>
<path style="fill:none;stroke:midnightblue;" d="M517,-112C551,-102 604,-85 637,-75"/>
<polygon style="fill:midnightblue;stroke:midnightblue;" points="638.427,-78.2259 647,-72 636.416,-71.5212 638.427,-78.2259"/>
</g>
<!-- Node9 -->
<g id="node17" class="node"><title>Node9</title>
<polygon style="fill:white;stroke:#bfbfbf;" points="772,-56 772,-76 807,-76 807,-56 772,-56"/>
<text text-anchor="middle" x="789" y="-63" style="font-family:Arial;font-size:10.00;">map</text>
</g>
<!-- Node8&#45;&gt;Node9 -->
<g id="edge16" class="edge"><title>Node8&#45;&gt;Node9</title>
<path style="fill:none;stroke:midnightblue;" d="M526,-114C590,-103 708,-81 762,-71"/>
<polygon style="fill:midnightblue;stroke:midnightblue;" points="762.881,-74.3933 772,-69 761.508,-67.5292 762.881,-74.3933"/>
</g>
<!-- Node10 -->
<g id="node19" class="node"><title>Node10</title>
<polygon style="fill:white;stroke:#bfbfbf;" points="465,-0 465,-20 516,-20 516,-0 465,-0"/>
<text text-anchor="middle" x="490" y="-7" style="font-family:Arial;font-size:10.00;">ostream</text>
</g>
<!-- Node8&#45;&gt;Node10 -->
<g id="edge18" class="edge"><title>Node8&#45;&gt;Node10</title>
<path style="fill:none;stroke:midnightblue;" d="M478,-112C471,-99 461,-75 466,-56 468,-47 473,-37 478,-29"/>
<polygon style="fill:midnightblue;stroke:midnightblue;" points="481.203,-30.4414 483,-20 475.084,-27.0418 481.203,-30.4414"/>
</g>
<!-- Node11 -->
<g id="node24" class="node"><title>Node11</title>
<a xlink:href="printable_8h.html" target="_top" xlink:title="ltr/interfaces/printable.h">
<polygon style="fill:white;stroke:black;" points="475,-56 475,-76 592,-76 592,-56 475,-56"/>
<text text-anchor="middle" x="533" y="-63" style="font-family:Arial;font-size:10.00;">ltr/interfaces/printable.h</text>
</a>
</g>
<!-- Node8&#45;&gt;Node11 -->
<g id="edge26" class="edge"><title>Node8&#45;&gt;Node11</title>
<path style="fill:none;stroke:midnightblue;" d="M493,-112C500,-104 510,-93 518,-84"/>
<polygon style="fill:midnightblue;stroke:midnightblue;" points="520.8,-86.1 524,-76 515.2,-81.9 520.8,-86.1"/>
</g>
<!-- Node8&#45;&gt;Node12 -->
<g id="edge32" class="edge"><title>Node8&#45;&gt;Node12</title>
<path style="fill:none;stroke:midnightblue;" d="M442,-113C397,-104 327,-89 277,-78"/>
<polygon style="fill:midnightblue;stroke:midnightblue;" points="277.492,-74.5292 267,-76 276.119,-81.3933 277.492,-74.5292"/>
</g>
<!-- Node11&#45;&gt;Node6 -->
<g id="edge30" class="edge"><title>Node11&#45;&gt;Node6</title>
<path style="fill:none;stroke:midnightblue;" d="M592,-57C673,-45 817,-23 880,-14"/>
<polygon style="fill:midnightblue;stroke:midnightblue;" points="880.398,-17.4778 890,-13 879.701,-10.5125 880.398,-17.4778"/>
</g>
<!-- Node11&#45;&gt;Node10 -->
<g id="edge28" class="edge"><title>Node11&#45;&gt;Node10</title>
<path style="fill:none;stroke:midnightblue;" d="M525,-56C520,-48 511,-38 504,-28"/>
<polygon style="fill:midnightblue;stroke:midnightblue;" points="506.8,-25.9 498,-20 501.2,-30.1 506.8,-25.9"/>
</g>
<!-- Node13 -->
<g id="node30" class="node"><title>Node13</title>
<polygon style="fill:white;stroke:#bfbfbf;" points="332,-0 332,-20 388,-20 388,-0 332,-0"/>
<text text-anchor="middle" x="360" y="-7" style="font-family:Arial;font-size:10.00;">algorithm</text>
</g>
<!-- Node12&#45;&gt;Node13 -->
<g id="edge34" class="edge"><title>Node12&#45;&gt;Node13</title>
<path style="fill:none;stroke:midnightblue;" d="M244,-56C267,-47 300,-34 325,-24"/>
<polygon style="fill:midnightblue;stroke:midnightblue;" points="327.015,-26.9636 335,-20 324.415,-20.4643 327.015,-26.9636"/>
</g>
<!-- Node14 -->
<g id="node32" class="node"><title>Node14</title>
<polygon style="fill:white;stroke:#bfbfbf;" points="0,-0 0,-20 107,-20 107,-0 0,-0"/>
<text text-anchor="middle" x="53" y="-7" style="font-family:Arial;font-size:10.00;">boost/shared_ptr.hpp</text>
</g>
<!-- Node12&#45;&gt;Node14 -->
<g id="edge36" class="edge"><title>Node12&#45;&gt;Node14</title>
<path style="fill:none;stroke:midnightblue;" d="M189,-56C162,-47 122,-33 93,-23"/>
<polygon style="fill:midnightblue;stroke:midnightblue;" points="93.584,-19.5212 83,-20 91.5725,-26.2259 93.584,-19.5212"/>
</g>
<!-- Node15 -->
<g id="node34" class="node"><title>Node15</title>
<polygon style="fill:white;stroke:#bfbfbf;" points="124,-0 124,-20 315,-20 315,-0 124,-0"/>
<text text-anchor="middle" x="219" y="-7" style="font-family:Arial;font-size:10.00;">boost/smart_ptr/detail/operator_bool.hpp</text>
</g>
<!-- Node12&#45;&gt;Node15 -->
<g id="edge38" class="edge"><title>Node12&#45;&gt;Node15</title>
<path style="fill:none;stroke:midnightblue;" d="M219,-56C219,-49 219,-39 219,-30"/>
<polygon style="fill:midnightblue;stroke:midnightblue;" points="222.5,-30 219,-20 215.5,-30 222.5,-30"/>
</g>
<!-- Node16&#45;&gt;Node5 -->
<g id="edge42" class="edge"><title>Node16&#45;&gt;Node5</title>
<path style="fill:none;stroke:midnightblue;" d="M415,-168C494,-150 662,-113 814,-75"/>
<polygon style="fill:midnightblue;stroke:midnightblue;" points="814.881,-78.3933 824,-73 813.508,-71.5292 814.881,-78.3933"/>
</g>
<!-- Node16&#45;&gt;Node6 -->
<g id="edge44" class="edge"><title>Node16&#45;&gt;Node6</title>
<path style="fill:none;stroke:midnightblue;" d="M369,-168C367,-154 367,-129 378,-112 402,-72 422,-71 466,-56 543,-29 793,-15 880,-11"/>
<polygon style="fill:midnightblue;stroke:midnightblue;" points="880,-14.5001 890,-11 880,-7.5001 880,-14.5001"/>
</g>
<!-- Node16&#45;&gt;Node7 -->
<g id="edge46" class="edge"><title>Node16&#45;&gt;Node7</title>
<path style="fill:none;stroke:midnightblue;" d="M377,-168C387,-153 408,-125 433,-112 451,-103 577,-81 637,-71"/>
<polygon style="fill:midnightblue;stroke:midnightblue;" points="637.881,-74.3933 647,-69 636.508,-67.5292 637.881,-74.3933"/>
</g>
<!-- Node16&#45;&gt;Node8 -->
<g id="edge48" class="edge"><title>Node16&#45;&gt;Node8</title>
<path style="fill:none;stroke:midnightblue;" d="M390,-168C408,-159 434,-146 454,-137"/>
<polygon style="fill:midnightblue;stroke:midnightblue;" points="455.958,-139.916 463,-132 452.559,-133.797 455.958,-139.916"/>
</g>
<!-- Node16&#45;&gt;Node11 -->
<g id="edge50" class="edge"><title>Node16&#45;&gt;Node11</title>
<path style="fill:none;stroke:midnightblue;" d="M372,-168C375,-153 383,-127 400,-112 418,-95 442,-85 465,-78"/>
<polygon style="fill:midnightblue;stroke:midnightblue;" points="466.427,-81.2259 475,-75 464.416,-74.5212 466.427,-81.2259"/>
</g>
<!-- Node16&#45;&gt;Node12 -->
<g id="edge52" class="edge"><title>Node16&#45;&gt;Node12</title>
<path style="fill:none;stroke:midnightblue;" d="M348,-168C331,-159 306,-146 286,-132 267,-118 248,-98 235,-84"/>
<polygon style="fill:midnightblue;stroke:midnightblue;" points="237.219,-81.221 228,-76 231.951,-85.8306 237.219,-81.221"/>
</g>
<!-- Node17&#45;&gt;Node5 -->
<g id="edge56" class="edge"><title>Node17&#45;&gt;Node5</title>
<path style="fill:none;stroke:midnightblue;" d="M640,-169C675,-161 720,-150 758,-132 786,-119 814,-97 833,-83"/>
<polygon style="fill:midnightblue;stroke:midnightblue;" points="835.779,-85.2191 841,-76 831.169,-79.9511 835.779,-85.2191"/>
</g>
<!-- Node17&#45;&gt;Node6 -->
<g id="edge58" class="edge"><title>Node17&#45;&gt;Node6</title>
<path style="fill:none;stroke:midnightblue;" d="M599,-168C626,-145 695,-88 763,-56 801,-36 850,-23 880,-16"/>
<polygon style="fill:midnightblue;stroke:midnightblue;" points="880.881,-19.3933 890,-14 879.508,-12.5292 880.881,-19.3933"/>
</g>
<!-- Node17&#45;&gt;Node7 -->
<g id="edge60" class="edge"><title>Node17&#45;&gt;Node7</title>
<path style="fill:none;stroke:midnightblue;" d="M595,-168C608,-148 637,-109 655,-84"/>
<polygon style="fill:midnightblue;stroke:midnightblue;" points="657.8,-86.1 661,-76 652.2,-81.9 657.8,-86.1"/>
</g>
<!-- Node17&#45;&gt;Node8 -->
<g id="edge62" class="edge"><title>Node17&#45;&gt;Node8</title>
<path style="fill:none;stroke:midnightblue;" d="M569,-168C553,-160 530,-147 512,-137"/>
<polygon style="fill:midnightblue;stroke:midnightblue;" points="513.441,-133.797 503,-132 510.042,-139.916 513.441,-133.797"/>
</g>
<!-- Node17&#45;&gt;Node11 -->
<g id="edge64" class="edge"><title>Node17&#45;&gt;Node11</title>
<path style="fill:none;stroke:midnightblue;" d="M583,-168C573,-149 554,-110 542,-85"/>
<polygon style="fill:midnightblue;stroke:midnightblue;" points="545.26,-83.7166 538,-76 538.863,-86.5596 545.26,-83.7166"/>
</g>
<!-- Node17&#45;&gt;Node12 -->
<g id="edge66" class="edge"><title>Node17&#45;&gt;Node12</title>
<path style="fill:none;stroke:midnightblue;" d="M554,-168C523,-159 474,-144 433,-132 374,-113 304,-92 261,-79"/>
<polygon style="fill:midnightblue;stroke:midnightblue;" points="261.584,-75.5212 251,-76 259.573,-82.2259 261.584,-75.5212"/>
</g>
<!-- Node18&#45;&gt;Node6 -->
<g id="edge72" class="edge"><title>Node18&#45;&gt;Node6</title>
<path style="fill:none;stroke:midnightblue;" d="M858,-227C983,-208 1288,-157 1345,-76 1350,-68 1350,-62 1345,-56 1317,-25 1034,-14 940,-11"/>
<polygon style="fill:midnightblue;stroke:midnightblue;" points="940,-7.5001 930,-11 940,-14.5001 940,-7.5001"/>
</g>
<!-- Node18&#45;&gt;Node7 -->
<g id="edge74" class="edge"><title>Node18&#45;&gt;Node7</title>
<path style="fill:none;stroke:midnightblue;" d="M796,-224C774,-196 712,-119 683,-84"/>
<polygon style="fill:midnightblue;stroke:midnightblue;" points="685.219,-81.221 676,-76 679.951,-85.8306 685.219,-81.221"/>
</g>
<!-- Node18&#45;&gt;Node9 -->
<g id="edge70" class="edge"><title>Node18&#45;&gt;Node9</title>
<path style="fill:none;stroke:midnightblue;" d="M803,-224C801,-197 795,-123 791,-86"/>
<polygon style="fill:midnightblue;stroke:midnightblue;" points="794.478,-85.6021 790,-76 787.512,-86.2987 794.478,-85.6021"/>
</g>
<!-- Node18&#45;&gt;Node12 -->
<g id="edge100" class="edge"><title>Node18&#45;&gt;Node12</title>
<path style="fill:none;stroke:midnightblue;" d="M751,-231C631,-225 348,-208 310,-188 267,-166 240,-114 227,-85"/>
<polygon style="fill:midnightblue;stroke:midnightblue;" points="230.26,-83.7166 223,-76 223.863,-86.5596 230.26,-83.7166"/>
</g>
<!-- Node19 -->
<g id="node57" class="node"><title>Node19</title>
<a xlink:href="parameterized_8h.html" target="_top" xlink:title="ltr/interfaces/parameterized.h">
<polygon style="fill:white;stroke:black;" points="848,-168 848,-188 990,-188 990,-168 848,-168"/>
<text text-anchor="middle" x="919" y="-175" style="font-family:Arial;font-size:10.00;">ltr/interfaces/parameterized.h</text>
</a>
</g>
<!-- Node18&#45;&gt;Node19 -->
<g id="edge76" class="edge"><title>Node18&#45;&gt;Node19</title>
<path style="fill:none;stroke:midnightblue;" d="M825,-224C843,-215 869,-202 889,-193"/>
<polygon style="fill:midnightblue;stroke:midnightblue;" points="890.958,-195.916 898,-188 887.559,-189.797 890.958,-195.916"/>
</g>
<!-- Node19&#45;&gt;Node5 -->
<g id="edge78" class="edge"><title>Node19&#45;&gt;Node5</title>
<path style="fill:none;stroke:midnightblue;" d="M913,-168C902,-149 879,-109 864,-85"/>
<polygon style="fill:midnightblue;stroke:midnightblue;" points="866.916,-83.0418 859,-76 860.797,-86.4414 866.916,-83.0418"/>
</g>
<!-- Node19&#45;&gt;Node6 -->
<g id="edge80" class="edge"><title>Node19&#45;&gt;Node6</title>
<path style="fill:none;stroke:midnightblue;" d="M918,-168C917,-141 913,-67 911,-30"/>
<polygon style="fill:midnightblue;stroke:midnightblue;" points="914.5,-30 911,-20 907.5,-30 914.5,-30"/>
</g>
<!-- Node20 -->
<g id="node61" class="node"><title>Node20</title>
<a xlink:href="parameters__container_8h.html" target="_top" xlink:title="ltr/parameters_container/parameters_container.h">
<polygon style="fill:white;stroke:black;" points="962,-112 962,-132 1187,-132 1187,-112 962,-112"/>
<text text-anchor="middle" x="1074" y="-119" style="font-family:Arial;font-size:10.00;">ltr/parameters_container/parameters_container.h</text>
</a>
</g>
<!-- Node19&#45;&gt;Node20 -->
<g id="edge82" class="edge"><title>Node19&#45;&gt;Node20</title>
<path style="fill:none;stroke:midnightblue;" d="M947,-168C972,-159 1009,-145 1036,-135"/>
<polygon style="fill:midnightblue;stroke:midnightblue;" points="1037.43,-138.226 1046,-132 1035.42,-131.521 1037.43,-138.226"/>
</g>
<!-- Node20&#45;&gt;Node5 -->
<g id="edge88" class="edge"><title>Node20&#45;&gt;Node5</title>
<path style="fill:none;stroke:midnightblue;" d="M1034,-112C994,-102 933,-87 893,-76"/>
<polygon style="fill:midnightblue;stroke:midnightblue;" points="893.492,-72.5292 883,-74 892.119,-79.3933 893.492,-72.5292"/>
</g>
<!-- Node20&#45;&gt;Node6 -->
<g id="edge90" class="edge"><title>Node20&#45;&gt;Node6</title>
<path style="fill:none;stroke:midnightblue;" d="M1041,-112C1018,-104 989,-92 967,-76 949,-63 933,-43 922,-28"/>
<polygon style="fill:midnightblue;stroke:midnightblue;" points="924.8,-25.9 916,-20 919.2,-30.1 924.8,-25.9"/>
</g>
<!-- Node20&#45;&gt;Node11 -->
<g id="edge98" class="edge"><title>Node20&#45;&gt;Node11</title>
<path style="fill:none;stroke:midnightblue;" d="M977,-112C870,-101 698,-83 602,-73"/>
<polygon style="fill:midnightblue;stroke:midnightblue;" points="602.299,-69.5125 592,-72 601.602,-76.4778 602.299,-69.5125"/>
</g>
<!-- Node20&#45;&gt;Node12 -->
<g id="edge96" class="edge"><title>Node20&#45;&gt;Node12</title>
<path style="fill:none;stroke:midnightblue;" d="M962,-115C780,-102 428,-79 283,-71"/>
<polygon style="fill:midnightblue;stroke:midnightblue;" points="283.299,-67.5125 273,-70 282.602,-74.4778 283.299,-67.5125"/>
</g>
<!-- Node21 -->
<g id="node63" class="node"><title>Node21</title>
<polygon style="fill:white;stroke:#bfbfbf;" points="976,-56 976,-76 1050,-76 1050,-56 976,-56"/>
<text text-anchor="middle" x="1013" y="-63" style="font-family:Arial;font-size:10.00;">logog/logog.h</text>
</g>
<!-- Node20&#45;&gt;Node21 -->
<g id="edge84" class="edge"><title>Node20&#45;&gt;Node21</title>
<path style="fill:none;stroke:midnightblue;" d="M1063,-112C1054,-104 1042,-93 1031,-83"/>
<polygon style="fill:midnightblue;stroke:midnightblue;" points="1033.55,-80.5962 1024,-76 1028.6,-85.546 1033.55,-80.5962"/>
</g>
<!-- Node22 -->
<g id="node65" class="node"><title>Node22</title>
<polygon style="fill:white;stroke:#bfbfbf;" points="1068,-56 1068,-76 1097,-76 1097,-56 1068,-56"/>
<text text-anchor="middle" x="1082" y="-63" style="font-family:Arial;font-size:10.00;">list</text>
</g>
<!-- Node20&#45;&gt;Node22 -->
<g id="edge86" class="edge"><title>Node20&#45;&gt;Node22</title>
<path style="fill:none;stroke:midnightblue;" d="M1075,-112C1076,-105 1078,-95 1079,-86"/>
<polygon style="fill:midnightblue;stroke:midnightblue;" points="1082.47,-86.4922 1081,-76 1075.61,-85.1194 1082.47,-86.4922"/>
</g>
<!-- Node23 -->
<g id="node69" class="node"><title>Node23</title>
<polygon style="fill:white;stroke:#bfbfbf;" points="1114,-56 1114,-76 1191,-76 1191,-56 1114,-56"/>
<text text-anchor="middle" x="1152" y="-63" style="font-family:Arial;font-size:10.00;">boost/any.hpp</text>
</g>
<!-- Node20&#45;&gt;Node23 -->
<g id="edge92" class="edge"><title>Node20&#45;&gt;Node23</title>
<path style="fill:none;stroke:midnightblue;" d="M1088,-112C1099,-104 1116,-92 1130,-82"/>
<polygon style="fill:midnightblue;stroke:midnightblue;" points="1132.1,-84.8 1138,-76 1127.9,-79.2 1132.1,-84.8"/>
</g>
<!-- Node24 -->
<g id="node71" class="node"><title>Node24</title>
<polygon style="fill:white;stroke:#bfbfbf;" points="1208,-56 1208,-76 1337,-76 1337,-56 1208,-56"/>
<text text-anchor="middle" x="1272" y="-63" style="font-family:Arial;font-size:10.00;">boost/unordered_map.hpp</text>
</g>
<!-- Node20&#45;&gt;Node24 -->
<g id="edge94" class="edge"><title>Node20&#45;&gt;Node24</title>
<path style="fill:none;stroke:midnightblue;" d="M1109,-112C1142,-103 1191,-89 1226,-79"/>
<polygon style="fill:midnightblue;stroke:midnightblue;" points="1227.43,-82.2259 1236,-76 1225.42,-75.5212 1227.43,-82.2259"/>
</g>
<!-- Node25&#45;&gt;Node8 -->
<g id="edge104" class="edge"><title>Node25&#45;&gt;Node8</title>
<path style="fill:none;stroke:midnightblue;" d="M461,-224C465,-205 474,-166 480,-142"/>
<polygon style="fill:midnightblue;stroke:midnightblue;" points="483.471,-142.492 482,-132 476.607,-141.119 483.471,-142.492"/>
</g>
<!-- Node25&#45;&gt;Node12 -->
<g id="edge112" class="edge"><title>Node25&#45;&gt;Node12</title>
<path style="fill:none;stroke:midnightblue;" d="M386,-225C317,-216 221,-201 210,-188 186,-159 200,-112 210,-85"/>
<polygon style="fill:midnightblue;stroke:midnightblue;" points="213.137,-86.5596 214,-76 206.74,-83.7166 213.137,-86.5596"/>
</g>
<!-- Node25&#45;&gt;Node16 -->
<g id="edge108" class="edge"><title>Node25&#45;&gt;Node16</title>
<path style="fill:none;stroke:midnightblue;" d="M443,-224C430,-216 410,-203 395,-193"/>
<polygon style="fill:midnightblue;stroke:midnightblue;" points="396.441,-189.797 386,-188 393.042,-195.916 396.441,-189.797"/>
</g>
<!-- Node25&#45;&gt;Node17 -->
<g id="edge106" class="edge"><title>Node25&#45;&gt;Node17</title>
<path style="fill:none;stroke:midnightblue;" d="M482,-224C502,-215 532,-202 555,-192"/>
<polygon style="fill:midnightblue;stroke:midnightblue;" points="557.015,-194.964 565,-188 554.415,-188.464 557.015,-194.964"/>
</g>
<!-- Node25&#45;&gt;Node19 -->
<g id="edge110" class="edge"><title>Node25&#45;&gt;Node19</title>
<path style="fill:none;stroke:midnightblue;" d="M533,-225C617,-214 751,-198 838,-188"/>
<polygon style="fill:midnightblue;stroke:midnightblue;" points="838.398,-191.478 848,-187 837.701,-184.512 838.398,-191.478"/>
</g>
<!-- Node26&#45;&gt;Node6 -->
<g id="edge116" class="edge"><title>Node26&#45;&gt;Node6</title>
<path style="fill:none;stroke:midnightblue;" d="M1401,-112C1400,-97 1395,-69 1378,-56 1342,-28 1038,-15 940,-11"/>
<polygon style="fill:midnightblue;stroke:midnightblue;" points="940,-7.5001 930,-11 940,-14.5001 940,-7.5001"/>
</g>
<!-- Node27&#45;&gt;Node3 -->
<g id="edge120" class="edge"><title>Node27&#45;&gt;Node3</title>
<path style="fill:none;stroke:midnightblue;" d="M398,-336C435,-327 490,-312 530,-302"/>
<polygon style="fill:midnightblue;stroke:midnightblue;" points="530.881,-305.393 540,-300 529.508,-298.529 530.881,-305.393"/>
</g>
<!-- Node27&#45;&gt;Node12 -->
<g id="edge122" class="edge"><title>Node27&#45;&gt;Node12</title>
<path style="fill:none;stroke:midnightblue;" d="M279,-336C219,-324 148,-296 148,-234 148,-234 148,-234 148,-178 148,-139 179,-103 200,-83"/>
<polygon style="fill:midnightblue;stroke:midnightblue;" points="202.404,-85.546 207,-76 197.454,-80.5962 202.404,-85.546"/>
</g>
<!-- Node29 -->
<g id="node93" class="node"><title>Node29</title>
<polygon style="fill:white;stroke:#bfbfbf;" points="612,-336 612,-356 655,-356 655,-336 612,-336"/>
<text text-anchor="middle" x="633" y="-343" style="font-family:Arial;font-size:10.00;">cmath</text>
</g>
<!-- Node28&#45;&gt;Node29 -->
<g id="edge128" class="edge"><title>Node28&#45;&gt;Node29</title>
<path style="fill:none;stroke:midnightblue;" d="M585,-392C594,-384 605,-373 615,-363"/>
<polygon style="fill:midnightblue;stroke:midnightblue;" points="617.404,-365.546 622,-356 612.454,-360.596 617.404,-365.546"/>
</g>
<!-- Node30 -->
<g id="node95" class="node"><title>Node30</title>
<polygon style="fill:white;stroke:#bfbfbf;" points="556,-336 556,-356 595,-356 595,-336 556,-336"/>
<text text-anchor="middle" x="575" y="-343" style="font-family:Arial;font-size:10.00;">limits</text>
</g>
<!-- Node28&#45;&gt;Node30 -->
<g id="edge130" class="edge"><title>Node28&#45;&gt;Node30</title>
<path style="fill:none;stroke:midnightblue;" d="M575,-392C575,-385 575,-375 575,-366"/>
<polygon style="fill:midnightblue;stroke:midnightblue;" points="578.5,-366 575,-356 571.5,-366 578.5,-366"/>
</g>
</g>
</svg>
