<?xml version="1.0" encoding="UTF-8" standalone="no"?>
<!DOCTYPE svg PUBLIC "-//W3C//DTD SVG 1.0//EN"
 "http://www.w3.org/TR/2001/REC-SVG-20010904/DTD/svg10.dtd" [
 <!ATTLIST svg xmlns:xlink CDATA #FIXED "http://www.w3.org/1999/xlink">
]>
<!-- Generated by Graphviz version 2.20.2 (Tue Mar &#160;2 19:03:41 UTC 2010)
     For user: (jenkins)  -->
<!-- Title: G Pages: 1 -->
<svg width="1695pt" height="196pt"
 viewBox="0.00 0.00 1695.00 196.00" xmlns="http://www.w3.org/2000/svg" xmlns:xlink="http://www.w3.org/1999/xlink">
<g id="graph0" class="graph" transform="scale(1 1) rotate(0) translate(4 192)">
<title>G</title>
<polygon style="fill:white;stroke:white;" points="-4,4 -4,-192 1691,-192 1691,4 -4,4"/>
<!-- Node1 -->
<g id="node1" class="node"><title>Node1</title>
<polygon style="fill:#bfbfbf;stroke:black;" points="518,-168 518,-188 684,-188 684,-168 518,-168"/>
<text text-anchor="middle" x="601" y="-175" style="font-family:Arial;font-size:10.00;">ltr/data/utility/data_set_statistics.h</text>
</g>
<!-- Node2 -->
<g id="node3" class="node"><title>Node2</title>
<a xlink:href="data__set__statistics_8cc.html" target="_top" xlink:title="ltr/data/utility/data_set_statistics.cc">
<polygon style="fill:white;stroke:black;" points="185,-112 185,-132 356,-132 356,-112 185,-112"/>
<text text-anchor="middle" x="270" y="-119" style="font-family:Arial;font-size:10.00;">ltr/data/utility/data_set_statistics.cc</text>
</a>
</g>
<!-- Node1&#45;&gt;Node2 -->
<g id="edge2" class="edge"><title>Node1&#45;&gt;Node2</title>
<path style="fill:none;stroke:midnightblue;" d="M532,-166C472,-156 386,-141 329,-132"/>
<polygon style="fill:midnightblue;stroke:midnightblue;" points="531.508,-169.471 542,-168 532.881,-162.607 531.508,-169.471"/>
</g>
<!-- Node3 -->
<g id="node5" class="node"><title>Node3</title>
<a xlink:href="feature__normalizer__learner_8h.html" target="_top" xlink:title="ltr/feature_converters/feature_normalizer_learner.h">
<polygon style="fill:white;stroke:black;" points="373,-112 373,-132 604,-132 604,-112 373,-112"/>
<text text-anchor="middle" x="488" y="-119" style="font-family:Arial;font-size:10.00;">ltr/feature_converters/feature_normalizer_learner.h</text>
</a>
</g>
<!-- Node1&#45;&gt;Node3 -->
<g id="edge4" class="edge"><title>Node1&#45;&gt;Node3</title>
<path style="fill:none;stroke:midnightblue;" d="M572,-164C552,-154 526,-141 508,-132"/>
<polygon style="fill:midnightblue;stroke:midnightblue;" points="570.44,-167.137 581,-168 573.283,-160.74 570.44,-167.137"/>
</g>
<!-- Node5 -->
<g id="node9" class="node"><title>Node5</title>
<a xlink:href="base__splitter_8h.html" target="_top" xlink:title="ltr/learners/decision_tree/base_splitter.h">
<polygon style="fill:white;stroke:black;" points="621,-112 621,-132 810,-132 810,-112 621,-112"/>
<text text-anchor="middle" x="715" y="-119" style="font-family:Arial;font-size:10.00;">ltr/learners/decision_tree/base_splitter.h</text>
</a>
</g>
<!-- Node1&#45;&gt;Node5 -->
<g id="edge8" class="edge"><title>Node1&#45;&gt;Node5</title>
<path style="fill:none;stroke:midnightblue;" d="M630,-164C651,-154 677,-141 694,-132"/>
<polygon style="fill:midnightblue;stroke:midnightblue;" points="628.717,-160.74 621,-168 631.56,-167.137 628.717,-160.74"/>
</g>
<!-- Node15 -->
<g id="node33" class="node"><title>Node15</title>
<a xlink:href="most__common__label__leaf__generator_8h.html" target="_top" xlink:title="ltr/learners/decision_tree/leaf_generator/most_common_label_leaf_generator.h">
<polygon style="fill:white;stroke:black;" points="1186,-56 1186,-76 1539,-76 1539,-56 1186,-56"/>
<text text-anchor="middle" x="1362" y="-63" style="font-family:Arial;font-size:10.00;">ltr/learners/decision_tree/leaf_generator/most_common_label_leaf_generator.h</text>
</a>
</g>
<!-- Node1&#45;&gt;Node15 -->
<g id="edge36" class="edge"><title>Node1&#45;&gt;Node15</title>
<path style="fill:none;stroke:midnightblue;" d="M679,-166C829,-144 1152,-97 1293,-76"/>
<polygon style="fill:midnightblue;stroke:midnightblue;" points="678.119,-162.607 669,-168 679.492,-169.471 678.119,-162.607"/>
</g>
<!-- Node4 -->
<g id="node7" class="node"><title>Node4</title>
<a xlink:href="feature__converters__learner__unittest_8cc.html" target="_top" xlink:title="ltr/feature_converters/feature_converters_learner_unittest.cc">
<polygon style="fill:white;stroke:black;" points="0,-56 0,-76 273,-76 273,-56 0,-56"/>
<text text-anchor="middle" x="136" y="-63" style="font-family:Arial;font-size:10.00;">ltr/feature_converters/feature_converters_learner_unittest.cc</text>
</a>
</g>
<!-- Node3&#45;&gt;Node4 -->
<g id="edge6" class="edge"><title>Node3&#45;&gt;Node4</title>
<path style="fill:none;stroke:midnightblue;" d="M415,-110C351,-100 260,-85 199,-76"/>
<polygon style="fill:midnightblue;stroke:midnightblue;" points="414.508,-113.471 425,-112 415.881,-106.607 414.508,-113.471"/>
</g>
<!-- Node6 -->
<g id="node11" class="node"><title>Node6</title>
<a xlink:href="base__splitter_8cc.html" target="_top" xlink:title="ltr/learners/decision_tree/base_splitter.cc">
<polygon style="fill:white;stroke:black;" points="732,-56 732,-76 926,-76 926,-56 732,-56"/>
<text text-anchor="middle" x="829" y="-63" style="font-family:Arial;font-size:10.00;">ltr/learners/decision_tree/base_splitter.cc</text>
</a>
</g>
<!-- Node5&#45;&gt;Node6 -->
<g id="edge10" class="edge"><title>Node5&#45;&gt;Node6</title>
<path style="fill:none;stroke:midnightblue;" d="M744,-108C765,-98 791,-85 808,-76"/>
<polygon style="fill:midnightblue;stroke:midnightblue;" points="742.717,-104.74 735,-112 745.56,-111.137 742.717,-104.74"/>
</g>
<!-- Node7 -->
<g id="node13" class="node"><title>Node7</title>
<a xlink:href="decision__tree__learner_8h.html" target="_top" xlink:title="ltr/learners/decision_tree/decision_tree_learner.h">
<polygon style="fill:white;stroke:black;" points="944,-56 944,-76 1169,-76 1169,-56 944,-56"/>
<text text-anchor="middle" x="1056" y="-63" style="font-family:Arial;font-size:10.00;">ltr/learners/decision_tree/decision_tree_learner.h</text>
</a>
</g>
<!-- Node5&#45;&gt;Node7 -->
<g id="edge12" class="edge"><title>Node5&#45;&gt;Node7</title>
<path style="fill:none;stroke:midnightblue;" d="M786,-110C848,-100 936,-85 995,-76"/>
<polygon style="fill:midnightblue;stroke:midnightblue;" points="785.119,-106.607 776,-112 786.492,-113.471 785.119,-106.607"/>
</g>
<!-- Node11 -->
<g id="node21" class="node"><title>Node11</title>
<a xlink:href="oblivious__tree__splitter_8h.html" target="_top" xlink:title="ltr/learners/decision_tree/oblivious_tree_splitter.h">
<polygon style="fill:white;stroke:black;" points="488,-56 488,-76 714,-76 714,-56 488,-56"/>
<text text-anchor="middle" x="601" y="-63" style="font-family:Arial;font-size:10.00;">ltr/learners/decision_tree/oblivious_tree_splitter.h</text>
</a>
</g>
<!-- Node5&#45;&gt;Node11 -->
<g id="edge20" class="edge"><title>Node5&#45;&gt;Node11</title>
<path style="fill:none;stroke:midnightblue;" d="M686,-108C665,-98 639,-85 622,-76"/>
<polygon style="fill:midnightblue;stroke:midnightblue;" points="684.44,-111.137 695,-112 687.283,-104.74 684.44,-111.137"/>
</g>
<!-- Node13 -->
<g id="node27" class="node"><title>Node13</title>
<a xlink:href="id3__splitter_8h.html" target="_top" xlink:title="ltr/learners/decision_tree/id3_splitter.h">
<polygon style="fill:white;stroke:black;" points="290,-56 290,-76 470,-76 470,-56 290,-56"/>
<text text-anchor="middle" x="380" y="-63" style="font-family:Arial;font-size:10.00;">ltr/learners/decision_tree/id3_splitter.h</text>
</a>
</g>
<!-- Node5&#45;&gt;Node13 -->
<g id="edge28" class="edge"><title>Node5&#45;&gt;Node13</title>
<path style="fill:none;stroke:midnightblue;" d="M645,-110C584,-100 498,-85 440,-76"/>
<polygon style="fill:midnightblue;stroke:midnightblue;" points="644.508,-113.471 655,-112 645.881,-106.607 644.508,-113.471"/>
</g>
<!-- Node8 -->
<g id="node15" class="node"><title>Node8</title>
<a xlink:href="decision__tree__learner_8cc.html" target="_top" xlink:title="ltr/learners/decision_tree/decision_tree_learner.cc">
<polygon style="fill:white;stroke:black;" points="1081,-0 1081,-20 1312,-20 1312,-0 1081,-0"/>
<text text-anchor="middle" x="1196" y="-7" style="font-family:Arial;font-size:10.00;">ltr/learners/decision_tree/decision_tree_learner.cc</text>
</a>
</g>
<!-- Node7&#45;&gt;Node8 -->
<g id="edge14" class="edge"><title>Node7&#45;&gt;Node8</title>
<path style="fill:none;stroke:midnightblue;" d="M1090,-52C1115,-42 1148,-29 1171,-20"/>
<polygon style="fill:midnightblue;stroke:midnightblue;" points="1088.72,-48.7402 1081,-56 1091.56,-55.1369 1088.72,-48.7402"/>
</g>
<!-- Node9 -->
<g id="node17" class="node"><title>Node9</title>
<a xlink:href="decision__tree__unittest_8cc.html" target="_top" xlink:title="ltr/learners/decision_tree/decision_tree_unittest.cc">
<polygon style="fill:white;stroke:black;" points="829,-0 829,-20 1063,-20 1063,-0 829,-0"/>
<text text-anchor="middle" x="946" y="-7" style="font-family:Arial;font-size:10.00;">ltr/learners/decision_tree/decision_tree_unittest.cc</text>
</a>
</g>
<!-- Node7&#45;&gt;Node9 -->
<g id="edge16" class="edge"><title>Node7&#45;&gt;Node9</title>
<path style="fill:none;stroke:midnightblue;" d="M1027,-51C1008,-42 983,-29 966,-20"/>
<polygon style="fill:midnightblue;stroke:midnightblue;" points="1025.56,-54.2031 1036,-56 1028.96,-48.084 1025.56,-54.2031"/>
</g>
<!-- Node10 -->
<g id="node19" class="node"><title>Node10</title>
<a xlink:href="generator_8cc.html" target="_top" xlink:title="ltr/serialization_test/generator/generator.cc">
<polygon style="fill:white;stroke:black;" points="611,-0 611,-20 812,-20 812,-0 611,-0"/>
<text text-anchor="middle" x="711" y="-7" style="font-family:Arial;font-size:10.00;">ltr/serialization_test/generator/generator.cc</text>
</a>
</g>
<!-- Node7&#45;&gt;Node10 -->
<g id="edge18" class="edge"><title>Node7&#45;&gt;Node10</title>
<path style="fill:none;stroke:midnightblue;" d="M984,-54C921,-44 832,-29 772,-20"/>
<polygon style="fill:midnightblue;stroke:midnightblue;" points="983.508,-57.4708 994,-56 984.881,-50.6067 983.508,-57.4708"/>
</g>
<!-- Node11&#45;&gt;Node9 -->
<g id="edge22" class="edge"><title>Node11&#45;&gt;Node9</title>
<path style="fill:none;stroke:midnightblue;" d="M673,-54C736,-44 825,-29 885,-20"/>
<polygon style="fill:midnightblue;stroke:midnightblue;" points="672.119,-50.6067 663,-56 673.492,-57.4708 672.119,-50.6067"/>
</g>
<!-- Node11&#45;&gt;Node10 -->
<g id="edge26" class="edge"><title>Node11&#45;&gt;Node10</title>
<path style="fill:none;stroke:midnightblue;" d="M630,-51C649,-42 674,-29 691,-20"/>
<polygon style="fill:midnightblue;stroke:midnightblue;" points="628.042,-48.084 621,-56 631.441,-54.2031 628.042,-48.084"/>
</g>
<!-- Node12 -->
<g id="node24" class="node"><title>Node12</title>
<a xlink:href="oblivious__tree__splitter_8cc.html" target="_top" xlink:title="ltr/learners/decision_tree/oblivious_tree_splitter.cc">
<polygon style="fill:white;stroke:black;" points="363,-0 363,-20 594,-20 594,-0 363,-0"/>
<text text-anchor="middle" x="478" y="-7" style="font-family:Arial;font-size:10.00;">ltr/learners/decision_tree/oblivious_tree_splitter.cc</text>
</a>
</g>
<!-- Node11&#45;&gt;Node12 -->
<g id="edge24" class="edge"><title>Node11&#45;&gt;Node12</title>
<path style="fill:none;stroke:midnightblue;" d="M570,-52C548,-42 520,-29 500,-20"/>
<polygon style="fill:midnightblue;stroke:midnightblue;" points="568.44,-55.1369 579,-56 571.283,-48.7402 568.44,-55.1369"/>
</g>
<!-- Node13&#45;&gt;Node9 -->
<g id="edge30" class="edge"><title>Node13&#45;&gt;Node9</title>
<path style="fill:none;stroke:midnightblue;" d="M480,-56C611,-42 750,-29 842,-20"/>
<polygon style="fill:midnightblue;stroke:midnightblue;" points="479.602,-52.5222 470,-57 480.299,-59.4875 479.602,-52.5222"/>
</g>
<!-- Node13&#45;&gt;Node10 -->
<g id="edge34" class="edge"><title>Node13&#45;&gt;Node10</title>
<path style="fill:none;stroke:midnightblue;" d="M449,-54C509,-44 595,-29 652,-20"/>
<polygon style="fill:midnightblue;stroke:midnightblue;" points="448.119,-50.6067 439,-56 449.492,-57.4708 448.119,-50.6067"/>
</g>
<!-- Node14 -->
<g id="node30" class="node"><title>Node14</title>
<a xlink:href="id3__splitter_8cc.html" target="_top" xlink:title="ltr/learners/decision_tree/id3_splitter.cc">
<polygon style="fill:white;stroke:black;" points="159,-0 159,-20 345,-20 345,-0 159,-0"/>
<text text-anchor="middle" x="252" y="-7" style="font-family:Arial;font-size:10.00;">ltr/learners/decision_tree/id3_splitter.cc</text>
</a>
</g>
<!-- Node13&#45;&gt;Node14 -->
<g id="edge32" class="edge"><title>Node13&#45;&gt;Node14</title>
<path style="fill:none;stroke:midnightblue;" d="M348,-52C325,-42 295,-29 275,-20"/>
<polygon style="fill:midnightblue;stroke:midnightblue;" points="346.44,-55.1369 357,-56 349.283,-48.7402 346.44,-55.1369"/>
</g>
<!-- Node15&#45;&gt;Node9 -->
<g id="edge38" class="edge"><title>Node15&#45;&gt;Node9</title>
<path style="fill:none;stroke:midnightblue;" d="M1278,-55C1202,-45 1093,-30 1020,-20"/>
<polygon style="fill:midnightblue;stroke:midnightblue;" points="1277.7,-58.4875 1288,-56 1278.4,-51.5222 1277.7,-58.4875"/>
</g>
<!-- Node15&#45;&gt;Node10 -->
<g id="edge42" class="edge"><title>Node15&#45;&gt;Node10</title>
<path style="fill:none;stroke:midnightblue;" d="M1232,-55C1122,-46 961,-33 820,-20 817,-20 815,-19 812,-19"/>
<polygon style="fill:midnightblue;stroke:midnightblue;" points="1231.7,-58.4875 1242,-56 1232.4,-51.5222 1231.7,-58.4875"/>
</g>
<!-- Node16 -->
<g id="node36" class="node"><title>Node16</title>
<a xlink:href="most__common__label__leaf__generator_8cc.html" target="_top" xlink:title="ltr/learners/decision_tree/leaf_generator/most_common_label_leaf_generator.cc">
<polygon style="fill:white;stroke:black;" points="1329,-0 1329,-20 1687,-20 1687,-0 1329,-0"/>
<text text-anchor="middle" x="1508" y="-7" style="font-family:Arial;font-size:10.00;">ltr/learners/decision_tree/leaf_generator/most_common_label_leaf_generator.cc</text>
</a>
</g>
<!-- Node15&#45;&gt;Node16 -->
<g id="edge40" class="edge"><title>Node15&#45;&gt;Node16</title>
<path style="fill:none;stroke:midnightblue;" d="M1397,-52C1423,-42 1458,-29 1482,-20"/>
<polygon style="fill:midnightblue;stroke:midnightblue;" points="1395.72,-48.7402 1388,-56 1398.56,-55.1369 1395.72,-48.7402"/>
</g>
</g>
</svg>
