<?xml version="1.0" encoding="UTF-8" standalone="no"?>
<!DOCTYPE svg PUBLIC "-//W3C//DTD SVG 1.0//EN"
 "http://www.w3.org/TR/2001/REC-SVG-20010904/DTD/svg10.dtd" [
 <!ATTLIST svg xmlns:xlink CDATA #FIXED "http://www.w3.org/1999/xlink">
]>
<!-- Generated by Graphviz version 2.20.2 (Tue Mar &#160;2 19:03:41 UTC 2010)
     For user: (jenkins)  -->
<!-- Title: G Pages: 1 -->
<svg width="1430pt" height="308pt"
 viewBox="0.00 0.00 1430.00 308.00" xmlns="http://www.w3.org/2000/svg" xmlns:xlink="http://www.w3.org/1999/xlink">
<g id="graph0" class="graph" transform="scale(1 1) rotate(0) translate(4 304)">
<title>G</title>
<polygon style="fill:white;stroke:white;" points="-4,4 -4,-304 1426,-304 1426,4 -4,4"/>
<!-- Node1 -->
<g id="node1" class="node"><title>Node1</title>
<polygon style="fill:#bfbfbf;stroke:black;" points="534,-280 534,-300 629,-300 629,-280 534,-280"/>
<text text-anchor="middle" x="581" y="-287" style="font-family:Arial;font-size:10.00;">ltr/data/data_set.h</text>
</g>
<!-- Node2 -->
<g id="node3" class="node"><title>Node2</title>
<polygon style="fill:white;stroke:#bfbfbf;" points="198,-224 198,-244 249,-244 249,-224 198,-224"/>
<text text-anchor="middle" x="223" y="-231" style="font-family:Arial;font-size:10.00;">sstream</text>
</g>
<!-- Node1&#45;&gt;Node2 -->
<g id="edge2" class="edge"><title>Node1&#45;&gt;Node2</title>
<path style="fill:none;stroke:midnightblue;" d="M534,-285C471,-278 358,-263 262,-244 261,-244 260,-244 259,-243"/>
<polygon style="fill:midnightblue;stroke:midnightblue;" points="259.492,-239.529 249,-241 258.119,-246.393 259.492,-239.529"/>
</g>
<!-- Node3 -->
<g id="node5" class="node"><title>Node3</title>
<polygon style="fill:white;stroke:#bfbfbf;" points="762,-56 762,-76 821,-76 821,-56 762,-56"/>
<text text-anchor="middle" x="791" y="-63" style="font-family:Arial;font-size:10.00;">stdexcept</text>
</g>
<!-- Node1&#45;&gt;Node3 -->
<g id="edge4" class="edge"><title>Node1&#45;&gt;Node3</title>
<path style="fill:none;stroke:midnightblue;" d="M629,-281C705,-264 847,-229 875,-188 900,-149 849,-105 817,-82"/>
<polygon style="fill:midnightblue;stroke:midnightblue;" points="818.262,-78.6349 808,-76 814.379,-84.4592 818.262,-78.6349"/>
</g>
<!-- Node4 -->
<g id="node7" class="node"><title>Node4</title>
<polygon style="fill:white;stroke:#bfbfbf;" points="828,-0 828,-20 868,-20 868,-0 828,-0"/>
<text text-anchor="middle" x="848" y="-7" style="font-family:Arial;font-size:10.00;">string</text>
</g>
<!-- Node1&#45;&gt;Node4 -->
<g id="edge6" class="edge"><title>Node1&#45;&gt;Node4</title>
<path style="fill:none;stroke:midnightblue;" d="M629,-289C808,-283 1422,-258 1422,-178 1422,-178 1422,-178 1422,-122 1422,-74 1381,-73 1337,-56 1252,-22 972,-13 878,-10"/>
<polygon style="fill:midnightblue;stroke:midnightblue;" points="878,-6.5001 868,-10 878,-13.5001 878,-6.5001"/>
</g>
<!-- Node5 -->
<g id="node9" class="node"><title>Node5</title>
<polygon style="fill:white;stroke:#bfbfbf;" points="326,-56 326,-76 368,-76 368,-56 326,-56"/>
<text text-anchor="middle" x="347" y="-63" style="font-family:Arial;font-size:10.00;">vector</text>
</g>
<!-- Node1&#45;&gt;Node5 -->
<g id="edge8" class="edge"><title>Node1&#45;&gt;Node5</title>
<path style="fill:none;stroke:midnightblue;" d="M534,-287C487,-283 414,-272 359,-244 325,-227 312,-221 297,-188 281,-151 310,-107 330,-84"/>
<polygon style="fill:midnightblue;stroke:midnightblue;" points="333.049,-85.8306 337,-76 327.781,-81.221 333.049,-85.8306"/>
</g>
<!-- Node6 -->
<g id="node11" class="node"><title>Node6</title>
<a xlink:href="object_8h.html" target="_top" xlink:title="ltr/data/object.h">
<polygon style="fill:white;stroke:black;" points="494,-112 494,-132 578,-132 578,-112 494,-112"/>
<text text-anchor="middle" x="536" y="-119" style="font-family:Arial;font-size:10.00;">ltr/data/object.h</text>
</a>
</g>
<!-- Node1&#45;&gt;Node6 -->
<g id="edge10" class="edge"><title>Node1&#45;&gt;Node6</title>
<path style="fill:none;stroke:midnightblue;" d="M578,-280C572,-253 551,-178 542,-142"/>
<polygon style="fill:midnightblue;stroke:midnightblue;" points="545.226,-140.573 539,-132 538.521,-142.584 545.226,-140.573"/>
</g>
<!-- Node14 -->
<g id="node32" class="node"><title>Node14</title>
<a xlink:href="object__list_8h.html" target="_top" xlink:title="ltr/data/object_list.h">
<polygon style="fill:white;stroke:black;" points="566,-168 566,-188 668,-188 668,-168 566,-168"/>
<text text-anchor="middle" x="617" y="-175" style="font-family:Arial;font-size:10.00;">ltr/data/object_list.h</text>
</a>
</g>
<!-- Node1&#45;&gt;Node14 -->
<g id="edge36" class="edge"><title>Node1&#45;&gt;Node14</title>
<path style="fill:none;stroke:midnightblue;" d="M584,-280C590,-261 603,-222 611,-198"/>
<polygon style="fill:midnightblue;stroke:midnightblue;" points="614.479,-198.584 614,-188 607.774,-196.573 614.479,-198.584"/>
</g>
<!-- Node15 -->
<g id="node40" class="node"><title>Node15</title>
<a xlink:href="object__pair_8h.html" target="_top" xlink:title="ltr/data/object_pair.h">
<polygon style="fill:white;stroke:black;" points="306,-168 306,-188 410,-188 410,-168 306,-168"/>
<text text-anchor="middle" x="358" y="-175" style="font-family:Arial;font-size:10.00;">ltr/data/object_pair.h</text>
</a>
</g>
<!-- Node1&#45;&gt;Node15 -->
<g id="edge50" class="edge"><title>Node1&#45;&gt;Node15</title>
<path style="fill:none;stroke:midnightblue;" d="M534,-285C481,-278 399,-264 377,-244 364,-232 360,-213 358,-198"/>
<polygon style="fill:midnightblue;stroke:midnightblue;" points="361.5,-198 358,-188 354.5,-198 361.5,-198"/>
</g>
<!-- Node16 -->
<g id="node48" class="node"><title>Node16</title>
<a xlink:href="feature__info_8h.html" target="_top" xlink:title="ltr/data/feature_info.h">
<polygon style="fill:white;stroke:black;" points="633,-224 633,-244 740,-244 740,-224 633,-224"/>
<text text-anchor="middle" x="686" y="-231" style="font-family:Arial;font-size:10.00;">ltr/data/feature_info.h</text>
</a>
</g>
<!-- Node1&#45;&gt;Node16 -->
<g id="edge64" class="edge"><title>Node1&#45;&gt;Node16</title>
<path style="fill:none;stroke:midnightblue;" d="M600,-280C616,-271 640,-259 658,-249"/>
<polygon style="fill:midnightblue;stroke:midnightblue;" points="659.958,-251.916 667,-244 656.559,-245.797 659.958,-251.916"/>
</g>
<!-- Node23 -->
<g id="node72" class="node"><title>Node23</title>
<a xlink:href="per__object__accessor_8h.html" target="_top" xlink:title="ltr/data/per_object_accessor.h">
<polygon style="fill:white;stroke:black;" points="386,-224 386,-244 533,-244 533,-224 386,-224"/>
<text text-anchor="middle" x="459" y="-231" style="font-family:Arial;font-size:10.00;">ltr/data/per_object_accessor.h</text>
</a>
</g>
<!-- Node1&#45;&gt;Node23 -->
<g id="edge98" class="edge"><title>Node1&#45;&gt;Node23</title>
<path style="fill:none;stroke:midnightblue;" d="M559,-280C540,-271 512,-258 490,-248"/>
<polygon style="fill:midnightblue;stroke:midnightblue;" points="491.56,-244.863 481,-244 488.717,-251.26 491.56,-244.863"/>
</g>
<!-- Node24 -->
<g id="node79" class="node"><title>Node24</title>
<a xlink:href="aliaser_8h.html" target="_top" xlink:title="ltr/interfaces/aliaser.h">
<polygon style="fill:white;stroke:black;" points="1286,-112 1286,-132 1394,-132 1394,-112 1286,-112"/>
<text text-anchor="middle" x="1340" y="-119" style="font-family:Arial;font-size:10.00;">ltr/interfaces/aliaser.h</text>
</a>
</g>
<!-- Node1&#45;&gt;Node24 -->
<g id="edge110" class="edge"><title>Node1&#45;&gt;Node24</title>
<path style="fill:none;stroke:midnightblue;" d="M629,-287C767,-277 1158,-245 1272,-188 1294,-177 1313,-156 1326,-140"/>
<polygon style="fill:midnightblue;stroke:midnightblue;" points="1328.8,-142.1 1332,-132 1323.2,-137.9 1328.8,-142.1"/>
</g>
<!-- Node6&#45;&gt;Node3 -->
<g id="edge16" class="edge"><title>Node6&#45;&gt;Node3</title>
<path style="fill:none;stroke:midnightblue;" d="M578,-113C620,-105 685,-91 752,-75"/>
<polygon style="fill:midnightblue;stroke:midnightblue;" points="752.881,-78.3933 762,-73 751.508,-71.5292 752.881,-78.3933"/>
</g>
<!-- Node6&#45;&gt;Node4 -->
<g id="edge18" class="edge"><title>Node6&#45;&gt;Node4</title>
<path style="fill:none;stroke:midnightblue;" d="M531,-112C524,-97 515,-71 529,-56 547,-33 741,-17 818,-12"/>
<polygon style="fill:midnightblue;stroke:midnightblue;" points="818.398,-15.4778 828,-11 817.701,-8.5125 818.398,-15.4778"/>
</g>
<!-- Node6&#45;&gt;Node5 -->
<g id="edge20" class="edge"><title>Node6&#45;&gt;Node5</title>
<path style="fill:none;stroke:midnightblue;" d="M502,-112C467,-102 412,-85 378,-75"/>
<polygon style="fill:midnightblue;stroke:midnightblue;" points="378.584,-71.5212 368,-72 376.573,-78.2259 378.584,-71.5212"/>
</g>
<!-- Node7 -->
<g id="node13" class="node"><title>Node7</title>
<polygon style="fill:white;stroke:#bfbfbf;" points="710,-56 710,-76 745,-76 745,-56 710,-56"/>
<text text-anchor="middle" x="727" y="-63" style="font-family:Arial;font-size:10.00;">map</text>
</g>
<!-- Node6&#45;&gt;Node7 -->
<g id="edge12" class="edge"><title>Node6&#45;&gt;Node7</title>
<path style="fill:none;stroke:midnightblue;" d="M570,-112C607,-101 666,-84 700,-74"/>
<polygon style="fill:midnightblue;stroke:midnightblue;" points="701.427,-77.2259 710,-71 699.416,-70.5212 701.427,-77.2259"/>
</g>
<!-- Node8 -->
<g id="node15" class="node"><title>Node8</title>
<polygon style="fill:white;stroke:#bfbfbf;" points="488,-0 488,-20 539,-20 539,-0 488,-0"/>
<text text-anchor="middle" x="513" y="-7" style="font-family:Arial;font-size:10.00;">ostream</text>
</g>
<!-- Node6&#45;&gt;Node8 -->
<g id="edge14" class="edge"><title>Node6&#45;&gt;Node8</title>
<path style="fill:none;stroke:midnightblue;" d="M523,-112C513,-103 501,-90 496,-76 490,-61 496,-43 502,-29"/>
<polygon style="fill:midnightblue;stroke:midnightblue;" points="505.137,-30.5596 506,-20 498.74,-27.7166 505.137,-30.5596"/>
</g>
<!-- Node9 -->
<g id="node20" class="node"><title>Node9</title>
<a xlink:href="printable_8h.html" target="_top" xlink:title="ltr/interfaces/printable.h">
<polygon style="fill:white;stroke:black;" points="538,-56 538,-76 655,-76 655,-56 538,-56"/>
<text text-anchor="middle" x="596" y="-63" style="font-family:Arial;font-size:10.00;">ltr/interfaces/printable.h</text>
</a>
</g>
<!-- Node6&#45;&gt;Node9 -->
<g id="edge22" class="edge"><title>Node6&#45;&gt;Node9</title>
<path style="fill:none;stroke:midnightblue;" d="M547,-112C556,-104 568,-93 578,-83"/>
<polygon style="fill:midnightblue;stroke:midnightblue;" points="580.404,-85.546 585,-76 575.454,-80.5962 580.404,-85.546"/>
</g>
<!-- Node10 -->
<g id="node24" class="node"><title>Node10</title>
<a xlink:href="shared__ptr_8h.html" target="_top" xlink:title="ltr/utility/shared_ptr.h">
<polygon style="fill:white;stroke:black;" points="166,-56 166,-76 273,-76 273,-56 166,-56"/>
<text text-anchor="middle" x="219" y="-63" style="font-family:Arial;font-size:10.00;">ltr/utility/shared_ptr.h</text>
</a>
</g>
<!-- Node6&#45;&gt;Node10 -->
<g id="edge28" class="edge"><title>Node6&#45;&gt;Node10</title>
<path style="fill:none;stroke:midnightblue;" d="M494,-115C440,-105 346,-88 283,-77"/>
<polygon style="fill:midnightblue;stroke:midnightblue;" points="283.492,-73.5292 273,-75 282.119,-80.3933 283.492,-73.5292"/>
</g>
<!-- Node9&#45;&gt;Node4 -->
<g id="edge26" class="edge"><title>Node9&#45;&gt;Node4</title>
<path style="fill:none;stroke:midnightblue;" d="M641,-56C693,-45 774,-27 818,-17"/>
<polygon style="fill:midnightblue;stroke:midnightblue;" points="818.881,-20.3933 828,-15 817.508,-13.5292 818.881,-20.3933"/>
</g>
<!-- Node9&#45;&gt;Node8 -->
<g id="edge24" class="edge"><title>Node9&#45;&gt;Node8</title>
<path style="fill:none;stroke:midnightblue;" d="M581,-56C569,-48 551,-35 536,-26"/>
<polygon style="fill:midnightblue;stroke:midnightblue;" points="538.1,-23.2 528,-20 533.9,-28.8 538.1,-23.2"/>
</g>
<!-- Node11 -->
<g id="node26" class="node"><title>Node11</title>
<polygon style="fill:white;stroke:#bfbfbf;" points="332,-0 332,-20 388,-20 388,-0 332,-0"/>
<text text-anchor="middle" x="360" y="-7" style="font-family:Arial;font-size:10.00;">algorithm</text>
</g>
<!-- Node10&#45;&gt;Node11 -->
<g id="edge30" class="edge"><title>Node10&#45;&gt;Node11</title>
<path style="fill:none;stroke:midnightblue;" d="M244,-56C267,-47 300,-34 325,-24"/>
<polygon style="fill:midnightblue;stroke:midnightblue;" points="327.015,-26.9636 335,-20 324.415,-20.4643 327.015,-26.9636"/>
</g>
<!-- Node12 -->
<g id="node28" class="node"><title>Node12</title>
<polygon style="fill:white;stroke:#bfbfbf;" points="0,-0 0,-20 107,-20 107,-0 0,-0"/>
<text text-anchor="middle" x="53" y="-7" style="font-family:Arial;font-size:10.00;">boost/shared_ptr.hpp</text>
</g>
<!-- Node10&#45;&gt;Node12 -->
<g id="edge32" class="edge"><title>Node10&#45;&gt;Node12</title>
<path style="fill:none;stroke:midnightblue;" d="M189,-56C162,-47 122,-33 93,-23"/>
<polygon style="fill:midnightblue;stroke:midnightblue;" points="93.584,-19.5212 83,-20 91.5725,-26.2259 93.584,-19.5212"/>
</g>
<!-- Node13 -->
<g id="node30" class="node"><title>Node13</title>
<polygon style="fill:white;stroke:#bfbfbf;" points="124,-0 124,-20 315,-20 315,-0 124,-0"/>
<text text-anchor="middle" x="219" y="-7" style="font-family:Arial;font-size:10.00;">boost/smart_ptr/detail/operator_bool.hpp</text>
</g>
<!-- Node10&#45;&gt;Node13 -->
<g id="edge34" class="edge"><title>Node10&#45;&gt;Node13</title>
<path style="fill:none;stroke:midnightblue;" d="M219,-56C219,-49 219,-39 219,-30"/>
<polygon style="fill:midnightblue;stroke:midnightblue;" points="222.5,-30 219,-20 215.5,-30 222.5,-30"/>
</g>
<!-- Node14&#45;&gt;Node3 -->
<g id="edge38" class="edge"><title>Node14&#45;&gt;Node3</title>
<path style="fill:none;stroke:midnightblue;" d="M635,-168C651,-159 675,-145 696,-132 721,-116 750,-95 769,-82"/>
<polygon style="fill:midnightblue;stroke:midnightblue;" points="771.1,-84.8 777,-76 766.9,-79.2 771.1,-84.8"/>
</g>
<!-- Node14&#45;&gt;Node4 -->
<g id="edge40" class="edge"><title>Node14&#45;&gt;Node4</title>
<path style="fill:none;stroke:midnightblue;" d="M621,-168C631,-144 659,-87 701,-56 736,-30 786,-18 818,-13"/>
<polygon style="fill:midnightblue;stroke:midnightblue;" points="818.398,-16.4778 828,-12 817.701,-9.5125 818.398,-16.4778"/>
</g>
<!-- Node14&#45;&gt;Node5 -->
<g id="edge42" class="edge"><title>Node14&#45;&gt;Node5</title>
<path style="fill:none;stroke:midnightblue;" d="M586,-168C559,-159 519,-146 485,-132 447,-116 403,-95 375,-81"/>
<polygon style="fill:midnightblue;stroke:midnightblue;" points="376.441,-77.7969 366,-76 373.042,-83.916 376.441,-77.7969"/>
</g>
<!-- Node14&#45;&gt;Node6 -->
<g id="edge44" class="edge"><title>Node14&#45;&gt;Node6</title>
<path style="fill:none;stroke:midnightblue;" d="M603,-168C591,-160 573,-148 559,-138"/>
<polygon style="fill:midnightblue;stroke:midnightblue;" points="561.1,-135.2 551,-132 556.9,-140.8 561.1,-135.2"/>
</g>
<!-- Node14&#45;&gt;Node9 -->
<g id="edge46" class="edge"><title>Node14&#45;&gt;Node9</title>
<path style="fill:none;stroke:midnightblue;" d="M615,-168C612,-149 604,-110 600,-86"/>
<polygon style="fill:midnightblue;stroke:midnightblue;" points="603.393,-85.1194 598,-76 596.529,-86.4922 603.393,-85.1194"/>
</g>
<!-- Node14&#45;&gt;Node10 -->
<g id="edge48" class="edge"><title>Node14&#45;&gt;Node10</title>
<path style="fill:none;stroke:midnightblue;" d="M576,-168C539,-159 484,-145 437,-132 375,-114 304,-92 261,-79"/>
<polygon style="fill:midnightblue;stroke:midnightblue;" points="261.584,-75.5212 251,-76 259.573,-82.2259 261.584,-75.5212"/>
</g>
<!-- Node15&#45;&gt;Node3 -->
<g id="edge52" class="edge"><title>Node15&#45;&gt;Node3</title>
<path style="fill:none;stroke:midnightblue;" d="M410,-169C457,-161 527,-148 587,-132 646,-116 713,-94 754,-79"/>
<polygon style="fill:midnightblue;stroke:midnightblue;" points="754.62,-82.4827 763,-76 752.406,-75.842 754.62,-82.4827"/>
</g>
<!-- Node15&#45;&gt;Node4 -->
<g id="edge54" class="edge"><title>Node15&#45;&gt;Node4</title>
<path style="fill:none;stroke:midnightblue;" d="M367,-168C390,-144 451,-82 516,-56 570,-33 747,-18 818,-12"/>
<polygon style="fill:midnightblue;stroke:midnightblue;" points="818.398,-15.4778 828,-11 817.701,-8.5125 818.398,-15.4778"/>
</g>
<!-- Node15&#45;&gt;Node5 -->
<g id="edge56" class="edge"><title>Node15&#45;&gt;Node5</title>
<path style="fill:none;stroke:midnightblue;" d="M352,-168C347,-159 340,-145 338,-132 334,-117 337,-99 340,-86"/>
<polygon style="fill:midnightblue;stroke:midnightblue;" points="343.479,-86.584 343,-76 336.774,-84.5725 343.479,-86.584"/>
</g>
<!-- Node15&#45;&gt;Node6 -->
<g id="edge58" class="edge"><title>Node15&#45;&gt;Node6</title>
<path style="fill:none;stroke:midnightblue;" d="M390,-168C419,-159 462,-145 494,-135"/>
<polygon style="fill:midnightblue;stroke:midnightblue;" points="495.427,-138.226 504,-132 493.416,-131.521 495.427,-138.226"/>
</g>
<!-- Node15&#45;&gt;Node9 -->
<g id="edge60" class="edge"><title>Node15&#45;&gt;Node9</title>
<path style="fill:none;stroke:midnightblue;" d="M376,-168C400,-154 445,-130 485,-112 509,-100 538,-88 561,-80"/>
<polygon style="fill:midnightblue;stroke:midnightblue;" points="562.283,-83.2598 570,-76 559.44,-76.8631 562.283,-83.2598"/>
</g>
<!-- Node15&#45;&gt;Node10 -->
<g id="edge62" class="edge"><title>Node15&#45;&gt;Node10</title>
<path style="fill:none;stroke:midnightblue;" d="M313,-168C279,-159 235,-146 224,-132 215,-119 214,-100 215,-86"/>
<polygon style="fill:midnightblue;stroke:midnightblue;" points="218.471,-86.4922 217,-76 211.607,-85.1194 218.471,-86.4922"/>
</g>
<!-- Node16&#45;&gt;Node4 -->
<g id="edge68" class="edge"><title>Node16&#45;&gt;Node4</title>
<path style="fill:none;stroke:midnightblue;" d="M740,-228C875,-213 1220,-166 1283,-76 1288,-68 1288,-62 1283,-56 1255,-25 972,-14 878,-11"/>
<polygon style="fill:midnightblue;stroke:midnightblue;" points="878,-7.5001 868,-11 878,-14.5001 878,-7.5001"/>
</g>
<!-- Node16&#45;&gt;Node5 -->
<g id="edge70" class="edge"><title>Node16&#45;&gt;Node5</title>
<path style="fill:none;stroke:midnightblue;" d="M653,-224C604,-208 509,-175 437,-132 411,-117 385,-97 367,-82"/>
<polygon style="fill:midnightblue;stroke:midnightblue;" points="369.1,-79.2 359,-76 364.9,-84.8 369.1,-79.2"/>
</g>
<!-- Node16&#45;&gt;Node7 -->
<g id="edge66" class="edge"><title>Node16&#45;&gt;Node7</title>
<path style="fill:none;stroke:midnightblue;" d="M688,-224C694,-197 713,-122 722,-86"/>
<polygon style="fill:midnightblue;stroke:midnightblue;" points="725.471,-86.4922 724,-76 718.607,-85.1194 725.471,-86.4922"/>
</g>
<!-- Node16&#45;&gt;Node10 -->
<g id="edge96" class="edge"><title>Node16&#45;&gt;Node10</title>
<path style="fill:none;stroke:midnightblue;" d="M633,-231C541,-225 357,-210 297,-188 255,-172 234,-171 214,-132 207,-118 209,-100 212,-86"/>
<polygon style="fill:midnightblue;stroke:midnightblue;" points="215.479,-86.584 215,-76 208.774,-84.5725 215.479,-86.584"/>
</g>
<!-- Node17 -->
<g id="node53" class="node"><title>Node17</title>
<a xlink:href="parameterized_8h.html" target="_top" xlink:title="ltr/interfaces/parameterized.h">
<polygon style="fill:white;stroke:black;" points="724,-168 724,-188 866,-188 866,-168 724,-168"/>
<text text-anchor="middle" x="795" y="-175" style="font-family:Arial;font-size:10.00;">ltr/interfaces/parameterized.h</text>
</a>
</g>
<!-- Node16&#45;&gt;Node17 -->
<g id="edge72" class="edge"><title>Node16&#45;&gt;Node17</title>
<path style="fill:none;stroke:midnightblue;" d="M705,-224C722,-215 747,-202 766,-193"/>
<polygon style="fill:midnightblue;stroke:midnightblue;" points="767.958,-195.916 775,-188 764.559,-189.797 767.958,-195.916"/>
</g>
<!-- Node17&#45;&gt;Node3 -->
<g id="edge74" class="edge"><title>Node17&#45;&gt;Node3</title>
<path style="fill:none;stroke:midnightblue;" d="M795,-168C794,-149 793,-110 791,-86"/>
<polygon style="fill:midnightblue;stroke:midnightblue;" points="794.5,-86 791,-76 787.5,-86 794.5,-86"/>
</g>
<!-- Node17&#45;&gt;Node4 -->
<g id="edge76" class="edge"><title>Node17&#45;&gt;Node4</title>
<path style="fill:none;stroke:midnightblue;" d="M798,-168C805,-149 818,-109 829,-76 834,-60 839,-43 843,-30"/>
<polygon style="fill:midnightblue;stroke:midnightblue;" points="846.471,-30.4922 845,-20 839.607,-29.1194 846.471,-30.4922"/>
</g>
<!-- Node18 -->
<g id="node57" class="node"><title>Node18</title>
<a xlink:href="parameters__container_8h.html" target="_top" xlink:title="ltr/parameters_container/parameters_container.h">
<polygon style="fill:white;stroke:black;" points="900,-112 900,-132 1125,-132 1125,-112 900,-112"/>
<text text-anchor="middle" x="1012" y="-119" style="font-family:Arial;font-size:10.00;">ltr/parameters_container/parameters_container.h</text>
</a>
</g>
<!-- Node17&#45;&gt;Node18 -->
<g id="edge78" class="edge"><title>Node17&#45;&gt;Node18</title>
<path style="fill:none;stroke:midnightblue;" d="M834,-168C870,-159 924,-145 963,-135"/>
<polygon style="fill:midnightblue;stroke:midnightblue;" points="964.427,-138.226 973,-132 962.416,-131.521 964.427,-138.226"/>
</g>
<!-- Node18&#45;&gt;Node3 -->
<g id="edge84" class="edge"><title>Node18&#45;&gt;Node3</title>
<path style="fill:none;stroke:midnightblue;" d="M972,-112C932,-102 871,-87 831,-76"/>
<polygon style="fill:midnightblue;stroke:midnightblue;" points="831.492,-72.5292 821,-74 830.119,-79.3933 831.492,-72.5292"/>
</g>
<!-- Node18&#45;&gt;Node4 -->
<g id="edge86" class="edge"><title>Node18&#45;&gt;Node4</title>
<path style="fill:none;stroke:midnightblue;" d="M979,-112C956,-104 927,-92 905,-76 887,-63 871,-43 860,-28"/>
<polygon style="fill:midnightblue;stroke:midnightblue;" points="862.8,-25.9 854,-20 857.2,-30.1 862.8,-25.9"/>
</g>
<!-- Node18&#45;&gt;Node9 -->
<g id="edge94" class="edge"><title>Node18&#45;&gt;Node9</title>
<path style="fill:none;stroke:midnightblue;" d="M938,-112C860,-101 741,-85 665,-75"/>
<polygon style="fill:midnightblue;stroke:midnightblue;" points="665.299,-71.5125 655,-74 664.602,-78.4778 665.299,-71.5125"/>
</g>
<!-- Node18&#45;&gt;Node10 -->
<g id="edge92" class="edge"><title>Node18&#45;&gt;Node10</title>
<path style="fill:none;stroke:midnightblue;" d="M900,-116C762,-108 522,-93 317,-76 306,-75 294,-74 283,-73"/>
<polygon style="fill:midnightblue;stroke:midnightblue;" points="283.299,-69.5125 273,-72 282.602,-76.4778 283.299,-69.5125"/>
</g>
<!-- Node19 -->
<g id="node59" class="node"><title>Node19</title>
<polygon style="fill:white;stroke:#bfbfbf;" points="1200,-56 1200,-76 1274,-76 1274,-56 1200,-56"/>
<text text-anchor="middle" x="1237" y="-63" style="font-family:Arial;font-size:10.00;">logog/logog.h</text>
</g>
<!-- Node18&#45;&gt;Node19 -->
<g id="edge80" class="edge"><title>Node18&#45;&gt;Node19</title>
<path style="fill:none;stroke:midnightblue;" d="M1052,-112C1091,-103 1149,-88 1190,-77"/>
<polygon style="fill:midnightblue;stroke:midnightblue;" points="1190.88,-80.3933 1200,-75 1189.51,-73.5292 1190.88,-80.3933"/>
</g>
<!-- Node20 -->
<g id="node61" class="node"><title>Node20</title>
<polygon style="fill:white;stroke:#bfbfbf;" points="914,-56 914,-76 943,-76 943,-56 914,-56"/>
<text text-anchor="middle" x="928" y="-63" style="font-family:Arial;font-size:10.00;">list</text>
</g>
<!-- Node18&#45;&gt;Node20 -->
<g id="edge82" class="edge"><title>Node18&#45;&gt;Node20</title>
<path style="fill:none;stroke:midnightblue;" d="M997,-112C985,-104 967,-91 952,-82"/>
<polygon style="fill:midnightblue;stroke:midnightblue;" points="953.262,-78.6349 943,-76 949.379,-84.4592 953.262,-78.6349"/>
</g>
<!-- Node21 -->
<g id="node65" class="node"><title>Node21</title>
<polygon style="fill:white;stroke:#bfbfbf;" points="960,-56 960,-76 1037,-76 1037,-56 960,-56"/>
<text text-anchor="middle" x="998" y="-63" style="font-family:Arial;font-size:10.00;">boost/any.hpp</text>
</g>
<!-- Node18&#45;&gt;Node21 -->
<g id="edge88" class="edge"><title>Node18&#45;&gt;Node21</title>
<path style="fill:none;stroke:midnightblue;" d="M1009,-112C1008,-105 1005,-95 1003,-86"/>
<polygon style="fill:midnightblue;stroke:midnightblue;" points="1006.23,-84.5725 1000,-76 999.521,-86.584 1006.23,-84.5725"/>
</g>
<!-- Node22 -->
<g id="node67" class="node"><title>Node22</title>
<polygon style="fill:white;stroke:#bfbfbf;" points="1054,-56 1054,-76 1183,-76 1183,-56 1054,-56"/>
<text text-anchor="middle" x="1118" y="-63" style="font-family:Arial;font-size:10.00;">boost/unordered_map.hpp</text>
</g>
<!-- Node18&#45;&gt;Node22 -->
<g id="edge90" class="edge"><title>Node18&#45;&gt;Node22</title>
<path style="fill:none;stroke:midnightblue;" d="M1031,-112C1047,-103 1071,-90 1090,-81"/>
<polygon style="fill:midnightblue;stroke:midnightblue;" points="1091.96,-83.916 1099,-76 1088.56,-77.7969 1091.96,-83.916"/>
</g>
<!-- Node23&#45;&gt;Node6 -->
<g id="edge100" class="edge"><title>Node23&#45;&gt;Node6</title>
<path style="fill:none;stroke:midnightblue;" d="M466,-224C479,-204 507,-165 523,-140"/>
<polygon style="fill:midnightblue;stroke:midnightblue;" points="525.8,-142.1 529,-132 520.2,-137.9 525.8,-142.1"/>
</g>
<!-- Node23&#45;&gt;Node10 -->
<g id="edge108" class="edge"><title>Node23&#45;&gt;Node10</title>
<path style="fill:none;stroke:midnightblue;" d="M386,-228C299,-220 163,-205 148,-188 126,-162 132,-141 148,-112 155,-98 169,-88 182,-80"/>
<polygon style="fill:midnightblue;stroke:midnightblue;" points="183.283,-83.2598 191,-76 180.44,-76.8631 183.283,-83.2598"/>
</g>
<!-- Node23&#45;&gt;Node14 -->
<g id="edge104" class="edge"><title>Node23&#45;&gt;Node14</title>
<path style="fill:none;stroke:midnightblue;" d="M487,-224C513,-215 551,-201 579,-191"/>
<polygon style="fill:midnightblue;stroke:midnightblue;" points="580.427,-194.226 589,-188 578.416,-187.521 580.427,-194.226"/>
</g>
<!-- Node23&#45;&gt;Node15 -->
<g id="edge102" class="edge"><title>Node23&#45;&gt;Node15</title>
<path style="fill:none;stroke:midnightblue;" d="M441,-224C426,-215 403,-203 385,-193"/>
<polygon style="fill:midnightblue;stroke:midnightblue;" points="386.441,-189.797 376,-188 383.042,-195.916 386.441,-189.797"/>
</g>
<!-- Node23&#45;&gt;Node17 -->
<g id="edge106" class="edge"><title>Node23&#45;&gt;Node17</title>
<path style="fill:none;stroke:midnightblue;" d="M519,-224C577,-215 664,-200 725,-190"/>
<polygon style="fill:midnightblue;stroke:midnightblue;" points="725.881,-193.393 735,-188 724.508,-186.529 725.881,-193.393"/>
</g>
<!-- Node24&#45;&gt;Node4 -->
<g id="edge112" class="edge"><title>Node24&#45;&gt;Node4</title>
<path style="fill:none;stroke:midnightblue;" d="M1339,-112C1338,-97 1333,-69 1316,-56 1280,-28 976,-15 878,-11"/>
<polygon style="fill:midnightblue;stroke:midnightblue;" points="878,-7.5001 868,-11 878,-14.5001 878,-7.5001"/>
</g>
</g>
</svg>
