<?xml version="1.0" encoding="UTF-8" standalone="no"?>
<!DOCTYPE svg PUBLIC "-//W3C//DTD SVG 1.0//EN"
 "http://www.w3.org/TR/2001/REC-SVG-20010904/DTD/svg10.dtd" [
 <!ATTLIST svg xmlns:xlink CDATA #FIXED "http://www.w3.org/1999/xlink">
]>
<!-- Generated by Graphviz version 2.20.2 (Tue Mar &#160;2 19:03:41 UTC 2010)
     For user: (jenkins)  -->
<!-- Title: G Pages: 1 -->
<svg width="1154pt" height="140pt"
 viewBox="0.00 0.00 1154.00 140.00" xmlns="http://www.w3.org/2000/svg" xmlns:xlink="http://www.w3.org/1999/xlink">
<g id="graph0" class="graph" transform="scale(1 1) rotate(0) translate(4 136)">
<title>G</title>
<polygon style="fill:white;stroke:white;" points="-4,4 -4,-136 1150,-136 1150,4 -4,4"/>
<!-- Node1 -->
<g id="node1" class="node"><title>Node1</title>
<polygon style="fill:#bfbfbf;stroke:black;" points="188,-112 188,-132 440,-132 440,-112 188,-112"/>
<text text-anchor="middle" x="314" y="-119" style="font-family:Arial;font-size:10.00;">ltr/data_preprocessors/data_preprocessors_unittest.cc</text>
</g>
<!-- Node2 -->
<g id="node3" class="node"><title>Node2</title>
<polygon style="fill:white;stroke:#bfbfbf;" points="0,-56 0,-76 71,-76 71,-56 0,-56"/>
<text text-anchor="middle" x="35" y="-63" style="font-family:Arial;font-size:10.00;">gtest/gtest.h</text>
</g>
<!-- Node1&#45;&gt;Node2 -->
<g id="edge2" class="edge"><title>Node1&#45;&gt;Node2</title>
<path style="fill:none;stroke:midnightblue;" d="M260,-112C214,-103 148,-90 81,-76"/>
<polygon style="fill:midnightblue;stroke:midnightblue;" points="81.4922,-72.5292 71,-74 80.1194,-79.3933 81.4922,-72.5292"/>
</g>
<!-- Node3 -->
<g id="node5" class="node"><title>Node3</title>
<polygon style="fill:white;stroke:#bfbfbf;" points="88,-56 88,-76 130,-76 130,-56 88,-56"/>
<text text-anchor="middle" x="109" y="-63" style="font-family:Arial;font-size:10.00;">vector</text>
</g>
<!-- Node1&#45;&gt;Node3 -->
<g id="edge4" class="edge"><title>Node1&#45;&gt;Node3</title>
<path style="fill:none;stroke:midnightblue;" d="M274,-112C240,-104 191,-91 140,-76"/>
<polygon style="fill:midnightblue;stroke:midnightblue;" points="140.584,-72.5212 130,-73 138.573,-79.2259 140.584,-72.5212"/>
</g>
<!-- Node4 -->
<g id="node7" class="node"><title>Node4</title>
<polygon style="fill:white;stroke:#bfbfbf;" points="148,-56 148,-76 178,-76 178,-56 148,-56"/>
<text text-anchor="middle" x="163" y="-63" style="font-family:Arial;font-size:10.00;">set</text>
</g>
<!-- Node1&#45;&gt;Node4 -->
<g id="edge6" class="edge"><title>Node1&#45;&gt;Node4</title>
<path style="fill:none;stroke:midnightblue;" d="M287,-112C260,-101 216,-85 188,-75"/>
<polygon style="fill:midnightblue;stroke:midnightblue;" points="188.584,-71.5212 178,-72 186.573,-78.2259 188.584,-71.5212"/>
</g>
<!-- Node5 -->
<g id="node9" class="node"><title>Node5</title>
<polygon style="fill:white;stroke:#bfbfbf;" points="95,-0 95,-20 190,-20 190,-0 95,-0"/>
<text text-anchor="middle" x="142" y="-7" style="font-family:Arial;font-size:10.00;">ltr/data/data_set.h</text>
</g>
<!-- Node1&#45;&gt;Node5 -->
<g id="edge8" class="edge"><title>Node1&#45;&gt;Node5</title>
<path style="fill:none;stroke:midnightblue;" d="M298,-112C269,-92 202,-49 166,-26"/>
<polygon style="fill:midnightblue;stroke:midnightblue;" points="168.1,-23.2 158,-20 163.9,-28.8 168.1,-23.2"/>
</g>
<!-- Node6 -->
<g id="node11" class="node"><title>Node6</title>
<polygon style="fill:white;stroke:#bfbfbf;" points="516,-56 516,-76 600,-76 600,-56 516,-56"/>
<text text-anchor="middle" x="558" y="-63" style="font-family:Arial;font-size:10.00;">ltr/data/object.h</text>
</g>
<!-- Node1&#45;&gt;Node6 -->
<g id="edge10" class="edge"><title>Node1&#45;&gt;Node6</title>
<path style="fill:none;stroke:midnightblue;" d="M358,-112C400,-103 462,-88 506,-78"/>
<polygon style="fill:midnightblue;stroke:midnightblue;" points="506.881,-81.3933 516,-76 505.508,-74.5292 506.881,-81.3933"/>
</g>
<!-- Node7 -->
<g id="node13" class="node"><title>Node7</title>
<polygon style="fill:white;stroke:#bfbfbf;" points="207,-0 207,-20 411,-20 411,-0 207,-0"/>
<text text-anchor="middle" x="309" y="-7" style="font-family:Arial;font-size:10.00;">ltr/data_preprocessors/data_preprocessor.h</text>
</g>
<!-- Node1&#45;&gt;Node7 -->
<g id="edge12" class="edge"><title>Node1&#45;&gt;Node7</title>
<path style="fill:none;stroke:midnightblue;" d="M297,-112C285,-104 270,-91 263,-76 255,-57 270,-39 285,-26"/>
<polygon style="fill:midnightblue;stroke:midnightblue;" points="287.1,-28.8 293,-20 282.9,-23.2 287.1,-28.8"/>
</g>
<!-- Node8 -->
<g id="node15" class="node"><title>Node8</title>
<polygon style="fill:white;stroke:#bfbfbf;" points="618,-56 618,-76 800,-76 800,-56 618,-56"/>
<text text-anchor="middle" x="709" y="-63" style="font-family:Arial;font-size:10.00;">ltr/data_preprocessors/data_sampler.h</text>
</g>
<!-- Node1&#45;&gt;Node8 -->
<g id="edge14" class="edge"><title>Node1&#45;&gt;Node8</title>
<path style="fill:none;stroke:midnightblue;" d="M385,-112C453,-102 557,-87 629,-77"/>
<polygon style="fill:midnightblue;stroke:midnightblue;" points="629.398,-80.4778 639,-76 628.701,-73.5125 629.398,-80.4778"/>
</g>
<!-- Node9 -->
<g id="node17" class="node"><title>Node9</title>
<polygon style="fill:white;stroke:#bfbfbf;" points="818,-56 818,-76 1037,-76 1037,-56 818,-56"/>
<text text-anchor="middle" x="927" y="-63" style="font-family:Arial;font-size:10.00;">ltr/data_preprocessors/data_random_sampler.h</text>
</g>
<!-- Node1&#45;&gt;Node9 -->
<g id="edge16" class="edge"><title>Node1&#45;&gt;Node9</title>
<path style="fill:none;stroke:midnightblue;" d="M424,-112C532,-102 697,-87 808,-77"/>
<polygon style="fill:midnightblue;stroke:midnightblue;" points="808.398,-80.4778 818,-76 807.701,-73.5125 808.398,-80.4778"/>
</g>
<!-- Node10 -->
<g id="node19" class="node"><title>Node10</title>
<a xlink:href="fake__data__preprocessor_8h.html" target="_top" xlink:title="ltr/data_preprocessors/fake_data_preprocessor.h">
<polygon style="fill:white;stroke:black;" points="272,-56 272,-76 499,-76 499,-56 272,-56"/>
<text text-anchor="middle" x="385" y="-63" style="font-family:Arial;font-size:10.00;">ltr/data_preprocessors/fake_data_preprocessor.h</text>
</a>
</g>
<!-- Node1&#45;&gt;Node10 -->
<g id="edge18" class="edge"><title>Node1&#45;&gt;Node10</title>
<path style="fill:none;stroke:midnightblue;" d="M327,-112C338,-104 352,-92 364,-83"/>
<polygon style="fill:midnightblue;stroke:midnightblue;" points="366.779,-85.2191 372,-76 362.169,-79.9511 366.779,-85.2191"/>
</g>
<!-- Node13 -->
<g id="node27" class="node"><title>Node13</title>
<polygon style="fill:white;stroke:#bfbfbf;" points="1054,-56 1054,-76 1147,-76 1147,-56 1054,-56"/>
<text text-anchor="middle" x="1100" y="-63" style="font-family:Arial;font-size:10.00;">ltr/utility/indices.h</text>
</g>
<!-- Node1&#45;&gt;Node13 -->
<g id="edge28" class="edge"><title>Node1&#45;&gt;Node13</title>
<path style="fill:none;stroke:midnightblue;" d="M440,-118C584,-113 826,-101 1044,-75"/>
<polygon style="fill:midnightblue;stroke:midnightblue;" points="1044.4,-78.4778 1054,-74 1043.7,-71.5125 1044.4,-78.4778"/>
</g>
<!-- Node10&#45;&gt;Node5 -->
<g id="edge24" class="edge"><title>Node10&#45;&gt;Node5</title>
<path style="fill:none;stroke:midnightblue;" d="M342,-56C301,-47 240,-32 196,-22"/>
<polygon style="fill:midnightblue;stroke:midnightblue;" points="196.492,-18.5292 186,-20 195.119,-25.3933 196.492,-18.5292"/>
</g>
<!-- Node10&#45;&gt;Node7 -->
<g id="edge26" class="edge"><title>Node10&#45;&gt;Node7</title>
<path style="fill:none;stroke:midnightblue;" d="M371,-56C360,-48 344,-36 331,-26"/>
<polygon style="fill:midnightblue;stroke:midnightblue;" points="333.1,-23.2 323,-20 328.9,-28.8 333.1,-23.2"/>
</g>
<!-- Node11 -->
<g id="node21" class="node"><title>Node11</title>
<polygon style="fill:white;stroke:#bfbfbf;" points="429,-0 429,-20 469,-20 469,-0 429,-0"/>
<text text-anchor="middle" x="449" y="-7" style="font-family:Arial;font-size:10.00;">string</text>
</g>
<!-- Node10&#45;&gt;Node11 -->
<g id="edge20" class="edge"><title>Node10&#45;&gt;Node11</title>
<path style="fill:none;stroke:midnightblue;" d="M396,-56C406,-48 419,-37 430,-27"/>
<polygon style="fill:midnightblue;stroke:midnightblue;" points="432.404,-29.546 437,-20 427.454,-24.5962 432.404,-29.546"/>
</g>
<!-- Node12 -->
<g id="node23" class="node"><title>Node12</title>
<polygon style="fill:white;stroke:#bfbfbf;" points="487,-0 487,-20 594,-20 594,-0 487,-0"/>
<text text-anchor="middle" x="540" y="-7" style="font-family:Arial;font-size:10.00;">ltr/utility/shared_ptr.h</text>
</g>
<!-- Node10&#45;&gt;Node12 -->
<g id="edge22" class="edge"><title>Node10&#45;&gt;Node12</title>
<path style="fill:none;stroke:midnightblue;" d="M413,-56C438,-47 475,-33 502,-23"/>
<polygon style="fill:midnightblue;stroke:midnightblue;" points="503.427,-26.2259 512,-20 501.416,-19.5212 503.427,-26.2259"/>
</g>
</g>
</svg>
