<?xml version="1.0" encoding="UTF-8" standalone="no"?>
<!DOCTYPE svg PUBLIC "-//W3C//DTD SVG 1.0//EN"
 "http://www.w3.org/TR/2001/REC-SVG-20010904/DTD/svg10.dtd" [
 <!ATTLIST svg xmlns:xlink CDATA #FIXED "http://www.w3.org/1999/xlink">
]>
<!-- Generated by Graphviz version 2.20.2 (Tue Mar &#160;2 19:03:41 UTC 2010)
     For user: (jenkins)  -->
<!-- Title: G Pages: 1 -->
<svg width="2088pt" height="252pt"
 viewBox="0.00 0.00 2088.00 252.00" xmlns="http://www.w3.org/2000/svg" xmlns:xlink="http://www.w3.org/1999/xlink">
<g id="graph0" class="graph" transform="scale(1 1) rotate(0) translate(4 248)">
<title>G</title>
<polygon style="fill:white;stroke:white;" points="-4,4 -4,-248 2084,-248 2084,4 -4,4"/>
<!-- Node1 -->
<g id="node1" class="node"><title>Node1</title>
<polygon style="fill:#bfbfbf;stroke:black;" points="1137,-224 1137,-244 1232,-244 1232,-224 1137,-224"/>
<text text-anchor="middle" x="1184" y="-231" style="font-family:Arial;font-size:10.00;">ltr/data/data_set.h</text>
</g>
<!-- Node2 -->
<g id="node3" class="node"><title>Node2</title>
<polygon style="fill:white;stroke:#bfbfbf;" points="258,-168 258,-188 309,-188 309,-168 258,-168"/>
<text text-anchor="middle" x="283" y="-175" style="font-family:Arial;font-size:10.00;">sstream</text>
</g>
<!-- Node1&#45;&gt;Node2 -->
<g id="edge2" class="edge"><title>Node1&#45;&gt;Node2</title>
<path style="fill:none;stroke:midnightblue;" d="M1137,-233C981,-228 481,-212 322,-188 321,-188 320,-188 319,-187"/>
<polygon style="fill:midnightblue;stroke:midnightblue;" points="319.492,-183.529 309,-185 318.119,-190.393 319.492,-183.529"/>
</g>
<!-- Node3 -->
<g id="node5" class="node"><title>Node3</title>
<polygon style="fill:white;stroke:#bfbfbf;" points="817,-0 817,-20 876,-20 876,-0 817,-0"/>
<text text-anchor="middle" x="846" y="-7" style="font-family:Arial;font-size:10.00;">stdexcept</text>
</g>
<!-- Node1&#45;&gt;Node3 -->
<g id="edge4" class="edge"><title>Node1&#45;&gt;Node3</title>
<path style="fill:none;stroke:midnightblue;" d="M1137,-224C1034,-201 797,-142 755,-76 739,-50 776,-31 807,-20"/>
<polygon style="fill:midnightblue;stroke:midnightblue;" points="808.427,-23.2259 817,-17 806.416,-16.5212 808.427,-23.2259"/>
</g>
<!-- Node4 -->
<g id="node7" class="node"><title>Node4</title>
<polygon style="fill:white;stroke:#bfbfbf;" points="1086,-0 1086,-20 1126,-20 1126,-0 1086,-0"/>
<text text-anchor="middle" x="1106" y="-7" style="font-family:Arial;font-size:10.00;">string</text>
</g>
<!-- Node1&#45;&gt;Node4 -->
<g id="edge6" class="edge"><title>Node1&#45;&gt;Node4</title>
<path style="fill:none;stroke:midnightblue;" d="M1179,-224C1174,-214 1168,-200 1163,-188 1141,-131 1121,-63 1112,-30"/>
<polygon style="fill:midnightblue;stroke:midnightblue;" points="1115.23,-28.5725 1109,-20 1108.52,-30.584 1115.23,-28.5725"/>
</g>
<!-- Node5 -->
<g id="node9" class="node"><title>Node5</title>
<polygon style="fill:white;stroke:#bfbfbf;" points="406,-0 406,-20 448,-20 448,-0 406,-0"/>
<text text-anchor="middle" x="427" y="-7" style="font-family:Arial;font-size:10.00;">vector</text>
</g>
<!-- Node1&#45;&gt;Node5 -->
<g id="edge8" class="edge"><title>Node1&#45;&gt;Node5</title>
<path style="fill:none;stroke:midnightblue;" d="M1137,-231C1025,-225 744,-207 653,-188 578,-172 555,-171 490,-132 459,-113 446,-109 430,-76 424,-62 423,-44 424,-30"/>
<polygon style="fill:midnightblue;stroke:midnightblue;" points="427.488,-30.2987 425,-20 420.522,-29.6021 427.488,-30.2987"/>
</g>
<!-- Node6 -->
<g id="node11" class="node"><title>Node6</title>
<a xlink:href="object_8h.html" target="_top" xlink:title="ltr/data/object.h">
<polygon style="fill:white;stroke:black;" points="583,-112 583,-132 667,-132 667,-112 583,-112"/>
<text text-anchor="middle" x="625" y="-119" style="font-family:Arial;font-size:10.00;">ltr/data/object.h</text>
</a>
</g>
<!-- Node1&#45;&gt;Node6 -->
<g id="edge10" class="edge"><title>Node1&#45;&gt;Node6</title>
<path style="fill:none;stroke:midnightblue;" d="M1137,-232C1020,-225 723,-208 684,-188 662,-177 646,-156 636,-141"/>
<polygon style="fill:midnightblue;stroke:midnightblue;" points="638.916,-139.042 631,-132 632.797,-142.441 638.916,-139.042"/>
</g>
<!-- Node16 -->
<g id="node36" class="node"><title>Node16</title>
<a xlink:href="object__list_8h.html" target="_top" xlink:title="ltr/data/object_list.h">
<polygon style="fill:white;stroke:black;" points="976,-56 976,-76 1078,-76 1078,-56 976,-56"/>
<text text-anchor="middle" x="1027" y="-63" style="font-family:Arial;font-size:10.00;">ltr/data/object_list.h</text>
</a>
</g>
<!-- Node1&#45;&gt;Node16 -->
<g id="edge40" class="edge"><title>Node1&#45;&gt;Node16</title>
<path style="fill:none;stroke:midnightblue;" d="M1142,-224C1097,-211 1029,-183 999,-132 989,-116 1000,-97 1010,-84"/>
<polygon style="fill:midnightblue;stroke:midnightblue;" points="1013.05,-85.8306 1017,-76 1007.78,-81.221 1013.05,-85.8306"/>
</g>
<!-- Node17 -->
<g id="node41" class="node"><title>Node17</title>
<polygon style="fill:white;stroke:#bfbfbf;" points="1222,-0 1222,-20 1306,-20 1306,-0 1222,-0"/>
<text text-anchor="middle" x="1264" y="-7" style="font-family:Arial;font-size:10.00;">ltr/data/object.h</text>
</g>
<!-- Node1&#45;&gt;Node17 -->
<g id="edge122" class="edge"><title>Node1&#45;&gt;Node17</title>
<path style="fill:none;stroke:midnightblue;" d="M1207,-224C1228,-215 1259,-201 1287,-188 1354,-155 1369,-143 1437,-112 1472,-94 1497,-109 1519,-76 1523,-68 1524,-62 1519,-56 1506,-40 1387,-24 1316,-15"/>
<polygon style="fill:midnightblue;stroke:midnightblue;" points="1316.3,-11.5125 1306,-14 1315.6,-18.4778 1316.3,-11.5125"/>
</g>
<!-- Node18 -->
<g id="node45" class="node"><title>Node18</title>
<a xlink:href="object__pair_8h.html" target="_top" xlink:title="ltr/data/object_pair.h">
<polygon style="fill:white;stroke:black;" points="854,-56 854,-76 958,-76 958,-56 854,-56"/>
<text text-anchor="middle" x="906" y="-63" style="font-family:Arial;font-size:10.00;">ltr/data/object_pair.h</text>
</a>
</g>
<!-- Node1&#45;&gt;Node18 -->
<g id="edge54" class="edge"><title>Node1&#45;&gt;Node18</title>
<path style="fill:none;stroke:midnightblue;" d="M1137,-227C1104,-220 1061,-208 1027,-188 980,-160 939,-111 919,-84"/>
<polygon style="fill:midnightblue;stroke:midnightblue;" points="921.8,-81.9 913,-76 916.2,-86.1 921.8,-81.9"/>
</g>
<!-- Node19 -->
<g id="node53" class="node"><title>Node19</title>
<a xlink:href="feature__info_8h.html" target="_top" xlink:title="ltr/data/feature_info.h">
<polygon style="fill:white;stroke:black;" points="1172,-168 1172,-188 1279,-188 1279,-168 1172,-168"/>
<text text-anchor="middle" x="1225" y="-175" style="font-family:Arial;font-size:10.00;">ltr/data/feature_info.h</text>
</a>
</g>
<!-- Node1&#45;&gt;Node19 -->
<g id="edge68" class="edge"><title>Node1&#45;&gt;Node19</title>
<path style="fill:none;stroke:midnightblue;" d="M1191,-224C1197,-216 1205,-206 1211,-197"/>
<polygon style="fill:midnightblue;stroke:midnightblue;" points="1214.37,-198.262 1217,-188 1208.54,-194.379 1214.37,-198.262"/>
</g>
<!-- Node28 -->
<g id="node81" class="node"><title>Node28</title>
<a xlink:href="per__object__accessor_8h.html" target="_top" xlink:title="ltr/data/per_object_accessor.h">
<polygon style="fill:white;stroke:black;" points="1444,-168 1444,-188 1591,-188 1591,-168 1444,-168"/>
<text text-anchor="middle" x="1517" y="-175" style="font-family:Arial;font-size:10.00;">ltr/data/per_object_accessor.h</text>
</a>
</g>
<!-- Node1&#45;&gt;Node28 -->
<g id="edge106" class="edge"><title>Node1&#45;&gt;Node28</title>
<path style="fill:none;stroke:midnightblue;" d="M1232,-226C1288,-217 1382,-201 1447,-190"/>
<polygon style="fill:midnightblue;stroke:midnightblue;" points="1447.88,-193.393 1457,-188 1446.51,-186.529 1447.88,-193.393"/>
</g>
<!-- Node29 -->
<g id="node84" class="node"><title>Node29</title>
<polygon style="fill:white;stroke:#bfbfbf;" points="1682,-112 1682,-132 1786,-132 1786,-112 1682,-112"/>
<text text-anchor="middle" x="1734" y="-119" style="font-family:Arial;font-size:10.00;">ltr/data/object_pair.h</text>
</g>
<!-- Node1&#45;&gt;Node29 -->
<g id="edge126" class="edge"><title>Node1&#45;&gt;Node29</title>
<path style="fill:none;stroke:midnightblue;" d="M1232,-231C1326,-224 1531,-207 1599,-188 1605,-186 1667,-155 1705,-137"/>
<polygon style="fill:midnightblue;stroke:midnightblue;" points="1706.96,-139.916 1714,-132 1703.56,-133.797 1706.96,-139.916"/>
</g>
<!-- Node30 -->
<g id="node86" class="node"><title>Node30</title>
<polygon style="fill:white;stroke:#bfbfbf;" points="1804,-112 1804,-132 1906,-132 1906,-112 1804,-112"/>
<text text-anchor="middle" x="1855" y="-119" style="font-family:Arial;font-size:10.00;">ltr/data/object_list.h</text>
</g>
<!-- Node1&#45;&gt;Node30 -->
<g id="edge124" class="edge"><title>Node1&#45;&gt;Node30</title>
<path style="fill:none;stroke:midnightblue;" d="M1232,-231C1331,-224 1554,-207 1629,-188 1650,-182 1653,-175 1675,-168 1715,-154 1761,-142 1797,-134"/>
<polygon style="fill:midnightblue;stroke:midnightblue;" points="1797.88,-137.393 1807,-132 1796.51,-130.529 1797.88,-137.393"/>
</g>
<!-- Node31 -->
<g id="node90" class="node"><title>Node31</title>
<a xlink:href="aliaser_8h.html" target="_top" xlink:title="ltr/interfaces/aliaser.h">
<polygon style="fill:white;stroke:black;" points="1008,-112 1008,-132 1116,-132 1116,-112 1008,-112"/>
<text text-anchor="middle" x="1062" y="-119" style="font-family:Arial;font-size:10.00;">ltr/interfaces/aliaser.h</text>
</a>
</g>
<!-- Node1&#45;&gt;Node31 -->
<g id="edge118" class="edge"><title>Node1&#45;&gt;Node31</title>
<path style="fill:none;stroke:midnightblue;" d="M1172,-224C1161,-215 1144,-201 1130,-188 1112,-172 1093,-153 1079,-139"/>
<polygon style="fill:midnightblue;stroke:midnightblue;" points="1081.55,-136.596 1072,-132 1076.6,-141.546 1081.55,-136.596"/>
</g>
<!-- Node32 -->
<g id="node96" class="node"><title>Node32</title>
<polygon style="fill:white;stroke:#bfbfbf;" points="1684,-168 1684,-188 1791,-188 1791,-168 1684,-168"/>
<text text-anchor="middle" x="1737" y="-175" style="font-family:Arial;font-size:10.00;">ltr/data/feature_info.h</text>
</g>
<!-- Node1&#45;&gt;Node32 -->
<g id="edge128" class="edge"><title>Node1&#45;&gt;Node32</title>
<path style="fill:none;stroke:midnightblue;" d="M1232,-230C1320,-223 1510,-207 1670,-188 1671,-188 1673,-187 1674,-187"/>
<polygon style="fill:midnightblue;stroke:midnightblue;" points="1674.4,-190.478 1684,-186 1673.7,-183.512 1674.4,-190.478"/>
</g>
<!-- Node33 -->
<g id="node98" class="node"><title>Node33</title>
<polygon style="fill:white;stroke:#bfbfbf;" points="1808,-168 1808,-188 1955,-188 1955,-168 1808,-168"/>
<text text-anchor="middle" x="1881" y="-175" style="font-family:Arial;font-size:10.00;">ltr/data/per_object_accessor.h</text>
</g>
<!-- Node1&#45;&gt;Node33 -->
<g id="edge130" class="edge"><title>Node1&#45;&gt;Node33</title>
<path style="fill:none;stroke:midnightblue;" d="M1232,-231C1334,-225 1580,-209 1798,-188"/>
<polygon style="fill:midnightblue;stroke:midnightblue;" points="1798.4,-191.478 1808,-187 1797.7,-184.512 1798.4,-191.478"/>
</g>
<!-- Node34 -->
<g id="node100" class="node"><title>Node34</title>
<polygon style="fill:white;stroke:#bfbfbf;" points="1972,-168 1972,-188 2080,-188 2080,-168 1972,-168"/>
<text text-anchor="middle" x="2026" y="-175" style="font-family:Arial;font-size:10.00;">ltr/interfaces/aliaser.h</text>
</g>
<!-- Node1&#45;&gt;Node34 -->
<g id="edge132" class="edge"><title>Node1&#45;&gt;Node34</title>
<path style="fill:none;stroke:midnightblue;" d="M1232,-233C1354,-229 1679,-218 1962,-188"/>
<polygon style="fill:midnightblue;stroke:midnightblue;" points="1962.4,-191.478 1972,-187 1961.7,-184.512 1962.4,-191.478"/>
</g>
<!-- Node6&#45;&gt;Node3 -->
<g id="edge16" class="edge"><title>Node6&#45;&gt;Node3</title>
<path style="fill:none;stroke:midnightblue;" d="M625,-112C626,-97 630,-70 646,-56 668,-34 755,-21 807,-14"/>
<polygon style="fill:midnightblue;stroke:midnightblue;" points="807.398,-17.4778 817,-13 806.701,-10.5125 807.398,-17.4778"/>
</g>
<!-- Node6&#45;&gt;Node4 -->
<g id="edge18" class="edge"><title>Node6&#45;&gt;Node4</title>
<path style="fill:none;stroke:midnightblue;" d="M644,-112C680,-94 753,-56 755,-56 876,-18 912,-37 1038,-20 1050,-18 1064,-16 1076,-14"/>
<polygon style="fill:midnightblue;stroke:midnightblue;" points="1076.4,-17.4778 1086,-13 1075.7,-10.5125 1076.4,-17.4778"/>
</g>
<!-- Node6&#45;&gt;Node5 -->
<g id="edge20" class="edge"><title>Node6&#45;&gt;Node5</title>
<path style="fill:none;stroke:midnightblue;" d="M583,-114C541,-105 481,-91 462,-76 448,-64 438,-45 433,-30"/>
<polygon style="fill:midnightblue;stroke:midnightblue;" points="436.226,-28.5725 430,-20 429.521,-30.584 436.226,-28.5725"/>
</g>
<!-- Node7 -->
<g id="node13" class="node"><title>Node7</title>
<polygon style="fill:white;stroke:#bfbfbf;" points="764,-56 764,-76 799,-76 799,-56 764,-56"/>
<text text-anchor="middle" x="781" y="-63" style="font-family:Arial;font-size:10.00;">map</text>
</g>
<!-- Node6&#45;&gt;Node7 -->
<g id="edge12" class="edge"><title>Node6&#45;&gt;Node7</title>
<path style="fill:none;stroke:midnightblue;" d="M653,-112C682,-102 726,-86 754,-76"/>
<polygon style="fill:midnightblue;stroke:midnightblue;" points="756.015,-78.9636 764,-72 753.415,-72.4643 756.015,-78.9636"/>
</g>
<!-- Node8 -->
<g id="node15" class="node"><title>Node8</title>
<polygon style="fill:white;stroke:#bfbfbf;" points="496,-0 496,-20 547,-20 547,-0 496,-0"/>
<text text-anchor="middle" x="521" y="-7" style="font-family:Arial;font-size:10.00;">ostream</text>
</g>
<!-- Node6&#45;&gt;Node8 -->
<g id="edge14" class="edge"><title>Node6&#45;&gt;Node8</title>
<path style="fill:none;stroke:midnightblue;" d="M583,-115C542,-107 483,-94 469,-76 456,-59 476,-39 495,-26"/>
<polygon style="fill:midnightblue;stroke:midnightblue;" points="497.1,-28.8 503,-20 492.9,-23.2 497.1,-28.8"/>
</g>
<!-- Node9 -->
<g id="node20" class="node"><title>Node9</title>
<a xlink:href="printable_8h.html" target="_top" xlink:title="ltr/interfaces/printable.h">
<polygon style="fill:white;stroke:black;" points="478,-56 478,-76 595,-76 595,-56 478,-56"/>
<text text-anchor="middle" x="536" y="-63" style="font-family:Arial;font-size:10.00;">ltr/interfaces/printable.h</text>
</a>
</g>
<!-- Node6&#45;&gt;Node9 -->
<g id="edge22" class="edge"><title>Node6&#45;&gt;Node9</title>
<path style="fill:none;stroke:midnightblue;" d="M609,-112C596,-104 576,-91 561,-81"/>
<polygon style="fill:midnightblue;stroke:midnightblue;" points="562.441,-77.7969 552,-76 559.042,-83.916 562.441,-77.7969"/>
</g>
<!-- Node10 -->
<g id="node24" class="node"><title>Node10</title>
<a xlink:href="shared__ptr_8h.html" target="_top" xlink:title="ltr/utility/shared_ptr.h">
<polygon style="fill:white;stroke:black;" points="161,-56 161,-76 268,-76 268,-56 161,-56"/>
<text text-anchor="middle" x="214" y="-63" style="font-family:Arial;font-size:10.00;">ltr/utility/shared_ptr.h</text>
</a>
</g>
<!-- Node6&#45;&gt;Node10 -->
<g id="edge28" class="edge"><title>Node6&#45;&gt;Node10</title>
<path style="fill:none;stroke:midnightblue;" d="M583,-116C511,-106 363,-87 278,-74"/>
<polygon style="fill:midnightblue;stroke:midnightblue;" points="278.299,-70.5125 268,-73 277.602,-77.4778 278.299,-70.5125"/>
</g>
<!-- Node14 -->
<g id="node32" class="node"><title>Node14</title>
<polygon style="fill:white;stroke:#bfbfbf;" points="913,-0 913,-20 1030,-20 1030,-0 913,-0"/>
<text text-anchor="middle" x="971" y="-7" style="font-family:Arial;font-size:10.00;">ltr/interfaces/printable.h</text>
</g>
<!-- Node6&#45;&gt;Node14 -->
<g id="edge36" class="edge"><title>Node6&#45;&gt;Node14</title>
<path style="fill:none;stroke:midnightblue;" d="M636,-112C653,-97 687,-69 722,-56 754,-43 840,-29 903,-19"/>
<polygon style="fill:midnightblue;stroke:midnightblue;" points="903.398,-22.4778 913,-18 902.701,-15.5125 903.398,-22.4778"/>
</g>
<!-- Node15 -->
<g id="node34" class="node"><title>Node15</title>
<polygon style="fill:white;stroke:#bfbfbf;" points="1409,-0 1409,-20 1516,-20 1516,-0 1409,-0"/>
<text text-anchor="middle" x="1462" y="-7" style="font-family:Arial;font-size:10.00;">ltr/utility/shared_ptr.h</text>
</g>
<!-- Node6&#45;&gt;Node15 -->
<g id="edge38" class="edge"><title>Node6&#45;&gt;Node15</title>
<path style="fill:none;stroke:midnightblue;" d="M667,-119C748,-113 932,-97 1087,-76 1198,-60 1327,-36 1401,-22"/>
<polygon style="fill:midnightblue;stroke:midnightblue;" points="1401.88,-25.3933 1411,-20 1400.51,-18.5292 1401.88,-25.3933"/>
</g>
<!-- Node9&#45;&gt;Node4 -->
<g id="edge26" class="edge"><title>Node9&#45;&gt;Node4</title>
<path style="fill:none;stroke:midnightblue;" d="M595,-62C689,-54 878,-39 1038,-20 1050,-18 1064,-16 1076,-14"/>
<polygon style="fill:midnightblue;stroke:midnightblue;" points="1076.4,-17.4778 1086,-13 1075.7,-10.5125 1076.4,-17.4778"/>
</g>
<!-- Node9&#45;&gt;Node8 -->
<g id="edge24" class="edge"><title>Node9&#45;&gt;Node8</title>
<path style="fill:none;stroke:midnightblue;" d="M533,-56C531,-49 528,-39 526,-30"/>
<polygon style="fill:midnightblue;stroke:midnightblue;" points="529.393,-29.1194 524,-20 522.529,-30.4922 529.393,-29.1194"/>
</g>
<!-- Node11 -->
<g id="node26" class="node"><title>Node11</title>
<polygon style="fill:white;stroke:#bfbfbf;" points="0,-0 0,-20 56,-20 56,-0 0,-0"/>
<text text-anchor="middle" x="28" y="-7" style="font-family:Arial;font-size:10.00;">algorithm</text>
</g>
<!-- Node10&#45;&gt;Node11 -->
<g id="edge30" class="edge"><title>Node10&#45;&gt;Node11</title>
<path style="fill:none;stroke:midnightblue;" d="M181,-56C148,-46 99,-32 66,-21"/>
<polygon style="fill:midnightblue;stroke:midnightblue;" points="66.584,-17.5212 56,-18 64.5725,-24.2259 66.584,-17.5212"/>
</g>
<!-- Node12 -->
<g id="node28" class="node"><title>Node12</title>
<polygon style="fill:white;stroke:#bfbfbf;" points="74,-0 74,-20 181,-20 181,-0 74,-0"/>
<text text-anchor="middle" x="127" y="-7" style="font-family:Arial;font-size:10.00;">boost/shared_ptr.hpp</text>
</g>
<!-- Node10&#45;&gt;Node12 -->
<g id="edge32" class="edge"><title>Node10&#45;&gt;Node12</title>
<path style="fill:none;stroke:midnightblue;" d="M198,-56C185,-48 166,-35 151,-26"/>
<polygon style="fill:midnightblue;stroke:midnightblue;" points="153.1,-23.2 143,-20 148.9,-28.8 153.1,-23.2"/>
</g>
<!-- Node13 -->
<g id="node30" class="node"><title>Node13</title>
<polygon style="fill:white;stroke:#bfbfbf;" points="198,-0 198,-20 389,-20 389,-0 198,-0"/>
<text text-anchor="middle" x="293" y="-7" style="font-family:Arial;font-size:10.00;">boost/smart_ptr/detail/operator_bool.hpp</text>
</g>
<!-- Node10&#45;&gt;Node13 -->
<g id="edge34" class="edge"><title>Node10&#45;&gt;Node13</title>
<path style="fill:none;stroke:midnightblue;" d="M228,-56C240,-48 257,-35 271,-26"/>
<polygon style="fill:midnightblue;stroke:midnightblue;" points="273.1,-28.8 279,-20 268.9,-23.2 273.1,-28.8"/>
</g>
<!-- Node16&#45;&gt;Node3 -->
<g id="edge42" class="edge"><title>Node16&#45;&gt;Node3</title>
<path style="fill:none;stroke:midnightblue;" d="M995,-56C964,-47 919,-32 886,-22"/>
<polygon style="fill:midnightblue;stroke:midnightblue;" points="886.584,-18.5212 876,-19 884.573,-25.2259 886.584,-18.5212"/>
</g>
<!-- Node16&#45;&gt;Node4 -->
<g id="edge44" class="edge"><title>Node16&#45;&gt;Node4</title>
<path style="fill:none;stroke:midnightblue;" d="M1041,-56C1053,-48 1070,-35 1084,-26"/>
<polygon style="fill:midnightblue;stroke:midnightblue;" points="1086.1,-28.8 1092,-20 1081.9,-23.2 1086.1,-28.8"/>
</g>
<!-- Node16&#45;&gt;Node5 -->
<g id="edge46" class="edge"><title>Node16&#45;&gt;Node5</title>
<path style="fill:none;stroke:midnightblue;" d="M976,-57C973,-57 970,-56 967,-56 754,-30 699,-45 487,-20 477,-19 467,-17 458,-16"/>
<polygon style="fill:midnightblue;stroke:midnightblue;" points="458.492,-12.5292 448,-14 457.119,-19.3933 458.492,-12.5292"/>
</g>
<!-- Node16&#45;&gt;Node14 -->
<g id="edge50" class="edge"><title>Node16&#45;&gt;Node14</title>
<path style="fill:none;stroke:midnightblue;" d="M1017,-56C1009,-48 998,-37 988,-27"/>
<polygon style="fill:midnightblue;stroke:midnightblue;" points="990.546,-24.5962 981,-20 985.596,-29.546 990.546,-24.5962"/>
</g>
<!-- Node16&#45;&gt;Node15 -->
<g id="edge52" class="edge"><title>Node16&#45;&gt;Node15</title>
<path style="fill:none;stroke:midnightblue;" d="M1078,-59C1158,-49 1313,-30 1399,-18"/>
<polygon style="fill:midnightblue;stroke:midnightblue;" points="1399.4,-21.4778 1409,-17 1398.7,-14.5125 1399.4,-21.4778"/>
</g>
<!-- Node16&#45;&gt;Node17 -->
<g id="edge48" class="edge"><title>Node16&#45;&gt;Node17</title>
<path style="fill:none;stroke:midnightblue;" d="M1069,-56C1110,-47 1169,-32 1212,-22"/>
<polygon style="fill:midnightblue;stroke:midnightblue;" points="1212.88,-25.3933 1222,-20 1211.51,-18.5292 1212.88,-25.3933"/>
</g>
<!-- Node18&#45;&gt;Node3 -->
<g id="edge56" class="edge"><title>Node18&#45;&gt;Node3</title>
<path style="fill:none;stroke:midnightblue;" d="M895,-56C886,-48 874,-37 864,-27"/>
<polygon style="fill:midnightblue;stroke:midnightblue;" points="866.546,-24.5962 857,-20 861.596,-29.546 866.546,-24.5962"/>
</g>
<!-- Node18&#45;&gt;Node4 -->
<g id="edge58" class="edge"><title>Node18&#45;&gt;Node4</title>
<path style="fill:none;stroke:midnightblue;" d="M942,-56C980,-45 1040,-28 1076,-19"/>
<polygon style="fill:midnightblue;stroke:midnightblue;" points="1077.43,-22.2259 1086,-16 1075.42,-15.5212 1077.43,-22.2259"/>
</g>
<!-- Node18&#45;&gt;Node5 -->
<g id="edge60" class="edge"><title>Node18&#45;&gt;Node5</title>
<path style="fill:none;stroke:midnightblue;" d="M854,-61C758,-50 556,-29 487,-20 477,-19 467,-17 458,-16"/>
<polygon style="fill:midnightblue;stroke:midnightblue;" points="458.492,-12.5292 448,-14 457.119,-19.3933 458.492,-12.5292"/>
</g>
<!-- Node18&#45;&gt;Node14 -->
<g id="edge64" class="edge"><title>Node18&#45;&gt;Node14</title>
<path style="fill:none;stroke:midnightblue;" d="M918,-56C927,-48 940,-37 951,-27"/>
<polygon style="fill:midnightblue;stroke:midnightblue;" points="953.779,-29.2191 959,-20 949.169,-23.9511 953.779,-29.2191"/>
</g>
<!-- Node18&#45;&gt;Node15 -->
<g id="edge66" class="edge"><title>Node18&#45;&gt;Node15</title>
<path style="fill:none;stroke:midnightblue;" d="M958,-57C961,-57 964,-56 967,-56 1121,-36 1304,-21 1399,-15"/>
<polygon style="fill:midnightblue;stroke:midnightblue;" points="1399.4,-18.4778 1409,-14 1398.7,-11.5125 1399.4,-18.4778"/>
</g>
<!-- Node18&#45;&gt;Node17 -->
<g id="edge62" class="edge"><title>Node18&#45;&gt;Node17</title>
<path style="fill:none;stroke:midnightblue;" d="M958,-57C961,-57 964,-56 967,-56 1052,-42 1152,-27 1212,-18"/>
<polygon style="fill:midnightblue;stroke:midnightblue;" points="1212.88,-21.3933 1222,-16 1211.51,-14.5292 1212.88,-21.3933"/>
</g>
<!-- Node19&#45;&gt;Node4 -->
<g id="edge72" class="edge"><title>Node19&#45;&gt;Node4</title>
<path style="fill:none;stroke:midnightblue;" d="M1220,-168C1205,-140 1165,-66 1158,-56 1149,-45 1138,-35 1128,-26"/>
<polygon style="fill:midnightblue;stroke:midnightblue;" points="1130.1,-23.2 1120,-20 1125.9,-28.8 1130.1,-23.2"/>
</g>
<!-- Node19&#45;&gt;Node5 -->
<g id="edge74" class="edge"><title>Node19&#45;&gt;Node5</title>
<path style="fill:none;stroke:midnightblue;" d="M1172,-177C1037,-172 686,-159 574,-132 513,-117 484,-124 443,-76 433,-63 429,-44 427,-30"/>
<polygon style="fill:midnightblue;stroke:midnightblue;" points="430.5,-30 427,-20 423.5,-30 430.5,-30"/>
</g>
<!-- Node19&#45;&gt;Node7 -->
<g id="edge70" class="edge"><title>Node19&#45;&gt;Node7</title>
<path style="fill:none;stroke:midnightblue;" d="M1172,-169C1126,-160 1057,-147 999,-132 929,-114 850,-88 809,-75"/>
<polygon style="fill:midnightblue;stroke:midnightblue;" points="809.584,-71.5212 799,-72 807.573,-78.2259 809.584,-71.5212"/>
</g>
<!-- Node19&#45;&gt;Node15 -->
<g id="edge102" class="edge"><title>Node19&#45;&gt;Node15</title>
<path style="fill:none;stroke:midnightblue;" d="M1254,-168C1304,-151 1401,-119 1437,-112 1480,-103 1806,-108 1837,-76 1842,-69 1842,-62 1837,-56 1832,-50 1632,-28 1526,-17"/>
<polygon style="fill:midnightblue;stroke:midnightblue;" points="1526.3,-13.5125 1516,-16 1525.6,-20.4778 1526.3,-13.5125"/>
</g>
<!-- Node20 -->
<g id="node58" class="node"><title>Node20</title>
<a xlink:href="parameterized_8h.html" target="_top" xlink:title="ltr/interfaces/parameterized.h">
<polygon style="fill:white;stroke:black;" points="1210,-112 1210,-132 1352,-132 1352,-112 1210,-112"/>
<text text-anchor="middle" x="1281" y="-119" style="font-family:Arial;font-size:10.00;">ltr/interfaces/parameterized.h</text>
</a>
</g>
<!-- Node19&#45;&gt;Node20 -->
<g id="edge76" class="edge"><title>Node19&#45;&gt;Node20</title>
<path style="fill:none;stroke:midnightblue;" d="M1235,-168C1243,-160 1254,-149 1264,-139"/>
<polygon style="fill:midnightblue;stroke:midnightblue;" points="1266.4,-141.546 1271,-132 1261.45,-136.596 1266.4,-141.546"/>
</g>
<!-- Node27 -->
<g id="node79" class="node"><title>Node27</title>
<polygon style="fill:white;stroke:#bfbfbf;" points="1446,-112 1446,-132 1588,-132 1588,-112 1446,-112"/>
<text text-anchor="middle" x="1517" y="-119" style="font-family:Arial;font-size:10.00;">ltr/interfaces/parameterized.h</text>
</g>
<!-- Node19&#45;&gt;Node27 -->
<g id="edge104" class="edge"><title>Node19&#45;&gt;Node27</title>
<path style="fill:none;stroke:midnightblue;" d="M1277,-168C1327,-159 1402,-144 1455,-134"/>
<polygon style="fill:midnightblue;stroke:midnightblue;" points="1455.88,-137.393 1465,-132 1454.51,-130.529 1455.88,-137.393"/>
</g>
<!-- Node20&#45;&gt;Node3 -->
<g id="edge78" class="edge"><title>Node20&#45;&gt;Node3</title>
<path style="fill:none;stroke:midnightblue;" d="M1210,-117C1089,-108 857,-89 845,-76 834,-64 835,-45 839,-30"/>
<polygon style="fill:midnightblue;stroke:midnightblue;" points="842.479,-30.584 842,-20 835.774,-28.5725 842.479,-30.584"/>
</g>
<!-- Node20&#45;&gt;Node4 -->
<g id="edge80" class="edge"><title>Node20&#45;&gt;Node4</title>
<path style="fill:none;stroke:midnightblue;" d="M1270,-112C1254,-98 1224,-73 1196,-56 1177,-43 1154,-31 1136,-23"/>
<polygon style="fill:midnightblue;stroke:midnightblue;" points="1136.58,-19.4643 1126,-19 1133.98,-25.9636 1136.58,-19.4643"/>
</g>
<!-- Node21 -->
<g id="node62" class="node"><title>Node21</title>
<a xlink:href="parameters__container_8h.html" target="_top" xlink:title="ltr/parameters_container/parameters_container.h">
<polygon style="fill:white;stroke:black;" points="1604,-56 1604,-76 1829,-76 1829,-56 1604,-56"/>
<text text-anchor="middle" x="1716" y="-63" style="font-family:Arial;font-size:10.00;">ltr/parameters_container/parameters_container.h</text>
</a>
</g>
<!-- Node20&#45;&gt;Node21 -->
<g id="edge82" class="edge"><title>Node20&#45;&gt;Node21</title>
<path style="fill:none;stroke:midnightblue;" d="M1352,-113C1428,-103 1547,-87 1628,-77"/>
<polygon style="fill:midnightblue;stroke:midnightblue;" points="1628.4,-80.4778 1638,-76 1627.7,-73.5125 1628.4,-80.4778"/>
</g>
<!-- Node26 -->
<g id="node76" class="node"><title>Node26</title>
<polygon style="fill:white;stroke:#bfbfbf;" points="1286,-56 1286,-76 1511,-76 1511,-56 1286,-56"/>
<text text-anchor="middle" x="1398" y="-63" style="font-family:Arial;font-size:10.00;">ltr/parameters_container/parameters_container.h</text>
</g>
<!-- Node20&#45;&gt;Node26 -->
<g id="edge100" class="edge"><title>Node20&#45;&gt;Node26</title>
<path style="fill:none;stroke:midnightblue;" d="M1302,-112C1320,-103 1347,-90 1368,-80"/>
<polygon style="fill:midnightblue;stroke:midnightblue;" points="1369.28,-83.2598 1377,-76 1366.44,-76.8631 1369.28,-83.2598"/>
</g>
<!-- Node21&#45;&gt;Node3 -->
<g id="edge88" class="edge"><title>Node21&#45;&gt;Node3</title>
<path style="fill:none;stroke:midnightblue;" d="M1604,-60C1389,-48 937,-24 904,-20 898,-19 892,-18 886,-17"/>
<polygon style="fill:midnightblue;stroke:midnightblue;" points="886.299,-13.5125 876,-16 885.602,-20.4778 886.299,-13.5125"/>
</g>
<!-- Node21&#45;&gt;Node4 -->
<g id="edge90" class="edge"><title>Node21&#45;&gt;Node4</title>
<path style="fill:none;stroke:midnightblue;" d="M1607,-56C1505,-47 1349,-32 1213,-20 1187,-17 1157,-15 1136,-13"/>
<polygon style="fill:midnightblue;stroke:midnightblue;" points="1136.3,-9.5125 1126,-12 1135.6,-16.4778 1136.3,-9.5125"/>
</g>
<!-- Node21&#45;&gt;Node14 -->
<g id="edge98" class="edge"><title>Node21&#45;&gt;Node14</title>
<path style="fill:none;stroke:midnightblue;" d="M1604,-59C1476,-50 1261,-35 1077,-20 1065,-19 1052,-18 1040,-17"/>
<polygon style="fill:midnightblue;stroke:midnightblue;" points="1040.3,-13.5125 1030,-16 1039.6,-20.4778 1040.3,-13.5125"/>
</g>
<!-- Node21&#45;&gt;Node15 -->
<g id="edge96" class="edge"><title>Node21&#45;&gt;Node15</title>
<path style="fill:none;stroke:midnightblue;" d="M1671,-56C1628,-47 1564,-32 1518,-22"/>
<polygon style="fill:midnightblue;stroke:midnightblue;" points="1518.49,-18.5292 1508,-20 1517.12,-25.3933 1518.49,-18.5292"/>
</g>
<!-- Node22 -->
<g id="node64" class="node"><title>Node22</title>
<polygon style="fill:white;stroke:#bfbfbf;" points="1575,-0 1575,-20 1649,-20 1649,-0 1575,-0"/>
<text text-anchor="middle" x="1612" y="-7" style="font-family:Arial;font-size:10.00;">logog/logog.h</text>
</g>
<!-- Node21&#45;&gt;Node22 -->
<g id="edge84" class="edge"><title>Node21&#45;&gt;Node22</title>
<path style="fill:none;stroke:midnightblue;" d="M1697,-56C1681,-48 1658,-35 1640,-25"/>
<polygon style="fill:midnightblue;stroke:midnightblue;" points="1641.44,-21.7969 1631,-20 1638.04,-27.916 1641.44,-21.7969"/>
</g>
<!-- Node23 -->
<g id="node66" class="node"><title>Node23</title>
<polygon style="fill:white;stroke:#bfbfbf;" points="1667,-0 1667,-20 1696,-20 1696,-0 1667,-0"/>
<text text-anchor="middle" x="1681" y="-7" style="font-family:Arial;font-size:10.00;">list</text>
</g>
<!-- Node21&#45;&gt;Node23 -->
<g id="edge86" class="edge"><title>Node21&#45;&gt;Node23</title>
<path style="fill:none;stroke:midnightblue;" d="M1710,-56C1706,-49 1699,-38 1693,-29"/>
<polygon style="fill:midnightblue;stroke:midnightblue;" points="1695.92,-27.0418 1688,-20 1689.8,-30.4414 1695.92,-27.0418"/>
</g>
<!-- Node24 -->
<g id="node70" class="node"><title>Node24</title>
<polygon style="fill:white;stroke:#bfbfbf;" points="1713,-0 1713,-20 1790,-20 1790,-0 1713,-0"/>
<text text-anchor="middle" x="1751" y="-7" style="font-family:Arial;font-size:10.00;">boost/any.hpp</text>
</g>
<!-- Node21&#45;&gt;Node24 -->
<g id="edge92" class="edge"><title>Node21&#45;&gt;Node24</title>
<path style="fill:none;stroke:midnightblue;" d="M1722,-56C1727,-49 1733,-38 1739,-29"/>
<polygon style="fill:midnightblue;stroke:midnightblue;" points="1742.2,-30.4414 1744,-20 1736.08,-27.0418 1742.2,-30.4414"/>
</g>
<!-- Node25 -->
<g id="node72" class="node"><title>Node25</title>
<polygon style="fill:white;stroke:#bfbfbf;" points="1807,-0 1807,-20 1936,-20 1936,-0 1807,-0"/>
<text text-anchor="middle" x="1871" y="-7" style="font-family:Arial;font-size:10.00;">boost/unordered_map.hpp</text>
</g>
<!-- Node21&#45;&gt;Node25 -->
<g id="edge94" class="edge"><title>Node21&#45;&gt;Node25</title>
<path style="fill:none;stroke:midnightblue;" d="M1744,-56C1769,-47 1806,-33 1833,-23"/>
<polygon style="fill:midnightblue;stroke:midnightblue;" points="1834.43,-26.2259 1843,-20 1832.42,-19.5212 1834.43,-26.2259"/>
</g>
<!-- Node28&#45;&gt;Node15 -->
<g id="edge116" class="edge"><title>Node28&#45;&gt;Node15</title>
<path style="fill:none;stroke:midnightblue;" d="M1542,-168C1565,-159 1600,-145 1630,-132 1649,-123 1652,-118 1673,-112 1759,-84 1930,-123 1870,-56 1864,-49 1640,-27 1526,-16"/>
<polygon style="fill:midnightblue;stroke:midnightblue;" points="1526.3,-12.5125 1516,-15 1525.6,-19.4778 1526.3,-12.5125"/>
</g>
<!-- Node28&#45;&gt;Node17 -->
<g id="edge108" class="edge"><title>Node28&#45;&gt;Node17</title>
<path style="fill:none;stroke:midnightblue;" d="M1550,-168C1567,-161 1587,-149 1597,-132 1617,-97 1558,-59 1552,-56 1512,-33 1388,-19 1316,-14"/>
<polygon style="fill:midnightblue;stroke:midnightblue;" points="1316.3,-10.5125 1306,-13 1315.6,-17.4778 1316.3,-10.5125"/>
</g>
<!-- Node28&#45;&gt;Node27 -->
<g id="edge114" class="edge"><title>Node28&#45;&gt;Node27</title>
<path style="fill:none;stroke:midnightblue;" d="M1517,-168C1517,-161 1517,-151 1517,-142"/>
<polygon style="fill:midnightblue;stroke:midnightblue;" points="1520.5,-142 1517,-132 1513.5,-142 1520.5,-142"/>
</g>
<!-- Node28&#45;&gt;Node29 -->
<g id="edge110" class="edge"><title>Node28&#45;&gt;Node29</title>
<path style="fill:none;stroke:midnightblue;" d="M1556,-168C1592,-159 1646,-145 1685,-135"/>
<polygon style="fill:midnightblue;stroke:midnightblue;" points="1686.43,-138.226 1695,-132 1684.42,-131.521 1686.43,-138.226"/>
</g>
<!-- Node28&#45;&gt;Node30 -->
<g id="edge112" class="edge"><title>Node28&#45;&gt;Node30</title>
<path style="fill:none;stroke:midnightblue;" d="M1577,-168C1631,-159 1713,-145 1794,-132"/>
<polygon style="fill:midnightblue;stroke:midnightblue;" points="1794.88,-135.393 1804,-130 1793.51,-128.529 1794.88,-135.393"/>
</g>
<!-- Node31&#45;&gt;Node4 -->
<g id="edge120" class="edge"><title>Node31&#45;&gt;Node4</title>
<path style="fill:none;stroke:midnightblue;" d="M1068,-112C1074,-103 1082,-89 1087,-76 1092,-61 1097,-43 1101,-30"/>
<polygon style="fill:midnightblue;stroke:midnightblue;" points="1104.48,-30.584 1104,-20 1097.77,-28.5725 1104.48,-30.584"/>
</g>
</g>
</svg>
