<?xml version="1.0" encoding="UTF-8" standalone="no"?>
<!DOCTYPE svg PUBLIC "-//W3C//DTD SVG 1.0//EN"
 "http://www.w3.org/TR/2001/REC-SVG-20010904/DTD/svg10.dtd" [
 <!ATTLIST svg xmlns:xlink CDATA #FIXED "http://www.w3.org/1999/xlink">
]>
<!-- Generated by Graphviz version 2.20.2 (Tue Mar &#160;2 19:03:41 UTC 2010)
     For user: (jenkins)  -->
<!-- Title: G Pages: 1 -->
<svg width="1437pt" height="364pt"
 viewBox="0.00 0.00 1437.00 364.00" xmlns="http://www.w3.org/2000/svg" xmlns:xlink="http://www.w3.org/1999/xlink">
<g id="graph0" class="graph" transform="scale(1 1) rotate(0) translate(4 360)">
<title>G</title>
<polygon style="fill:white;stroke:white;" points="-4,4 -4,-360 1433,-360 1433,4 -4,4"/>
<!-- Node1 -->
<g id="node1" class="node"><title>Node1</title>
<polygon style="fill:#bfbfbf;stroke:black;" points="602,-336 602,-356 806,-356 806,-336 602,-336"/>
<text text-anchor="middle" x="704" y="-343" style="font-family:Arial;font-size:10.00;">ltr/data_preprocessors/data_preprocessor.h</text>
</g>
<!-- Node2 -->
<g id="node3" class="node"><title>Node2</title>
<polygon style="fill:white;stroke:#bfbfbf;" points="448,-0 448,-20 488,-20 488,-0 448,-0"/>
<text text-anchor="middle" x="468" y="-7" style="font-family:Arial;font-size:10.00;">string</text>
</g>
<!-- Node1&#45;&gt;Node2 -->
<g id="edge2" class="edge"><title>Node1&#45;&gt;Node2</title>
<path style="fill:none;stroke:midnightblue;" d="M602,-343C458,-339 204,-327 116,-300 59,-282 1,-293 0,-234 0,-234 0,-234 0,-122 1,-31 335,-14 438,-10"/>
<polygon style="fill:midnightblue;stroke:midnightblue;" points="438,-13.5001 448,-10 438,-6.5001 438,-13.5001"/>
</g>
<!-- Node3 -->
<g id="node5" class="node"><title>Node3</title>
<polygon style="fill:white;stroke:#bfbfbf;" points="276,-56 276,-76 318,-76 318,-56 276,-56"/>
<text text-anchor="middle" x="297" y="-63" style="font-family:Arial;font-size:10.00;">vector</text>
</g>
<!-- Node1&#45;&gt;Node3 -->
<g id="edge4" class="edge"><title>Node1&#45;&gt;Node3</title>
<path style="fill:none;stroke:midnightblue;" d="M610,-336C455,-318 164,-279 164,-234 164,-234 164,-234 164,-178 164,-125 227,-91 266,-76"/>
<polygon style="fill:midnightblue;stroke:midnightblue;" points="267.427,-79.2259 276,-73 265.416,-72.5212 267.427,-79.2259"/>
</g>
<!-- Node4 -->
<g id="node7" class="node"><title>Node4</title>
<a xlink:href="shared__ptr_8h.html" target="_top" xlink:title="ltr/utility/shared_ptr.h">
<polygon style="fill:white;stroke:black;" points="621,-56 621,-76 728,-76 728,-56 621,-56"/>
<text text-anchor="middle" x="674" y="-63" style="font-family:Arial;font-size:10.00;">ltr/utility/shared_ptr.h</text>
</a>
</g>
<!-- Node1&#45;&gt;Node4 -->
<g id="edge6" class="edge"><title>Node1&#45;&gt;Node4</title>
<path style="fill:none;stroke:midnightblue;" d="M750,-336C842,-314 1032,-256 969,-168 941,-129 812,-95 734,-78"/>
<polygon style="fill:midnightblue;stroke:midnightblue;" points="734.492,-74.5292 724,-76 733.119,-81.3933 734.492,-74.5292"/>
</g>
<!-- Node8 -->
<g id="node15" class="node"><title>Node8</title>
<a xlink:href="data__set_8h.html" target="_top" xlink:title="ltr/data/data_set.h">
<polygon style="fill:white;stroke:black;" points="473,-280 473,-300 568,-300 568,-280 473,-280"/>
<text text-anchor="middle" x="520" y="-287" style="font-family:Arial;font-size:10.00;">ltr/data/data_set.h</text>
</a>
</g>
<!-- Node1&#45;&gt;Node8 -->
<g id="edge14" class="edge"><title>Node1&#45;&gt;Node8</title>
<path style="fill:none;stroke:midnightblue;" d="M671,-336C641,-327 596,-313 563,-303"/>
<polygon style="fill:midnightblue;stroke:midnightblue;" points="563.584,-299.521 553,-300 561.573,-306.226 563.584,-299.521"/>
</g>
<!-- Node14 -->
<g id="node32" class="node"><title>Node14</title>
<a xlink:href="printable_8h.html" target="_top" xlink:title="ltr/interfaces/printable.h">
<polygon style="fill:white;stroke:black;" points="897,-56 897,-76 1014,-76 1014,-56 897,-56"/>
<text text-anchor="middle" x="955" y="-63" style="font-family:Arial;font-size:10.00;">ltr/interfaces/printable.h</text>
</a>
</g>
<!-- Node1&#45;&gt;Node14 -->
<g id="edge126" class="edge"><title>Node1&#45;&gt;Node14</title>
<path style="fill:none;stroke:midnightblue;" d="M793,-336C900,-321 1064,-290 1064,-234 1064,-234 1064,-234 1064,-178 1064,-132 1018,-99 986,-81"/>
<polygon style="fill:midnightblue;stroke:midnightblue;" points="987.441,-77.7969 977,-76 984.042,-83.916 987.441,-77.7969"/>
</g>
<!-- Node18 -->
<g id="node58" class="node"><title>Node18</title>
<a xlink:href="parameterized_8h.html" target="_top" xlink:title="ltr/interfaces/parameterized.h">
<polygon style="fill:white;stroke:black;" points="818,-168 818,-188 960,-188 960,-168 818,-168"/>
<text text-anchor="middle" x="889" y="-175" style="font-family:Arial;font-size:10.00;">ltr/interfaces/parameterized.h</text>
</a>
</g>
<!-- Node1&#45;&gt;Node18 -->
<g id="edge124" class="edge"><title>Node1&#45;&gt;Node18</title>
<path style="fill:none;stroke:midnightblue;" d="M715,-336C746,-308 832,-230 870,-195"/>
<polygon style="fill:midnightblue;stroke:midnightblue;" points="872.779,-197.219 878,-188 868.169,-191.951 872.779,-197.219"/>
</g>
<!-- Node19 -->
<g id="node62" class="node"><title>Node19</title>
<a xlink:href="parameters__container_8h.html" target="_top" xlink:title="ltr/parameters_container/parameters_container.h">
<polygon style="fill:white;stroke:black;" points="1092,-112 1092,-132 1317,-132 1317,-112 1092,-112"/>
<text text-anchor="middle" x="1204" y="-119" style="font-family:Arial;font-size:10.00;">ltr/parameters_container/parameters_container.h</text>
</a>
</g>
<!-- Node1&#45;&gt;Node19 -->
<g id="edge128" class="edge"><title>Node1&#45;&gt;Node19</title>
<path style="fill:none;stroke:midnightblue;" d="M806,-342C901,-337 1033,-326 1078,-300 1141,-263 1181,-180 1196,-142"/>
<polygon style="fill:midnightblue;stroke:midnightblue;" points="1199.54,-142.585 1200,-132 1193.04,-139.985 1199.54,-142.585"/>
</g>
<!-- Node25 -->
<g id="node84" class="node"><title>Node25</title>
<a xlink:href="aliaser_8h.html" target="_top" xlink:title="ltr/interfaces/aliaser.h">
<polygon style="fill:white;stroke:black;" points="28,-224 28,-244 136,-244 136,-224 28,-224"/>
<text text-anchor="middle" x="82" y="-231" style="font-family:Arial;font-size:10.00;">ltr/interfaces/aliaser.h</text>
</a>
</g>
<!-- Node1&#45;&gt;Node25 -->
<g id="edge122" class="edge"><title>Node1&#45;&gt;Node25</title>
<path style="fill:none;stroke:midnightblue;" d="M602,-341C453,-334 190,-318 150,-300 127,-289 107,-268 95,-252"/>
<polygon style="fill:midnightblue;stroke:midnightblue;" points="97.8,-249.9 89,-244 92.2,-254.1 97.8,-249.9"/>
</g>
<!-- Node5 -->
<g id="node9" class="node"><title>Node5</title>
<polygon style="fill:white;stroke:#bfbfbf;" points="714,-0 714,-20 770,-20 770,-0 714,-0"/>
<text text-anchor="middle" x="742" y="-7" style="font-family:Arial;font-size:10.00;">algorithm</text>
</g>
<!-- Node4&#45;&gt;Node5 -->
<g id="edge8" class="edge"><title>Node4&#45;&gt;Node5</title>
<path style="fill:none;stroke:midnightblue;" d="M686,-56C697,-48 710,-36 722,-27"/>
<polygon style="fill:midnightblue;stroke:midnightblue;" points="724.779,-29.2191 730,-20 720.169,-23.9511 724.779,-29.2191"/>
</g>
<!-- Node6 -->
<g id="node11" class="node"><title>Node6</title>
<polygon style="fill:white;stroke:#bfbfbf;" points="788,-0 788,-20 895,-20 895,-0 788,-0"/>
<text text-anchor="middle" x="841" y="-7" style="font-family:Arial;font-size:10.00;">boost/shared_ptr.hpp</text>
</g>
<!-- Node4&#45;&gt;Node6 -->
<g id="edge10" class="edge"><title>Node4&#45;&gt;Node6</title>
<path style="fill:none;stroke:midnightblue;" d="M704,-56C731,-47 772,-33 801,-23"/>
<polygon style="fill:midnightblue;stroke:midnightblue;" points="802.427,-26.2259 811,-20 800.416,-19.5212 802.427,-26.2259"/>
</g>
<!-- Node7 -->
<g id="node13" class="node"><title>Node7</title>
<polygon style="fill:white;stroke:#bfbfbf;" points="506,-0 506,-20 697,-20 697,-0 506,-0"/>
<text text-anchor="middle" x="601" y="-7" style="font-family:Arial;font-size:10.00;">boost/smart_ptr/detail/operator_bool.hpp</text>
</g>
<!-- Node4&#45;&gt;Node7 -->
<g id="edge12" class="edge"><title>Node4&#45;&gt;Node7</title>
<path style="fill:none;stroke:midnightblue;" d="M661,-56C650,-48 635,-36 622,-26"/>
<polygon style="fill:midnightblue;stroke:midnightblue;" points="624.1,-23.2 614,-20 619.9,-28.8 624.1,-23.2"/>
</g>
<!-- Node8&#45;&gt;Node2 -->
<g id="edge20" class="edge"><title>Node8&#45;&gt;Node2</title>
<path style="fill:none;stroke:midnightblue;" d="M473,-286C414,-280 318,-267 292,-244 252,-209 263,-183 254,-132 247,-98 229,-82 251,-56 274,-27 384,-15 438,-12"/>
<polygon style="fill:midnightblue;stroke:midnightblue;" points="438.398,-15.4778 448,-11 437.701,-8.5125 438.398,-15.4778"/>
</g>
<!-- Node8&#45;&gt;Node3 -->
<g id="edge22" class="edge"><title>Node8&#45;&gt;Node3</title>
<path style="fill:none;stroke:midnightblue;" d="M473,-286C417,-280 332,-267 311,-244 272,-200 283,-123 292,-86"/>
<polygon style="fill:midnightblue;stroke:midnightblue;" points="295.471,-86.4922 294,-76 288.607,-85.1194 295.471,-86.4922"/>
</g>
<!-- Node9 -->
<g id="node17" class="node"><title>Node9</title>
<polygon style="fill:white;stroke:#bfbfbf;" points="548,-224 548,-244 599,-244 599,-224 548,-224"/>
<text text-anchor="middle" x="573" y="-231" style="font-family:Arial;font-size:10.00;">sstream</text>
</g>
<!-- Node8&#45;&gt;Node9 -->
<g id="edge16" class="edge"><title>Node8&#45;&gt;Node9</title>
<path style="fill:none;stroke:midnightblue;" d="M529,-280C537,-272 548,-261 556,-252"/>
<polygon style="fill:midnightblue;stroke:midnightblue;" points="559.049,-253.831 563,-244 553.781,-249.221 559.049,-253.831"/>
</g>
<!-- Node10 -->
<g id="node19" class="node"><title>Node10</title>
<polygon style="fill:white;stroke:#bfbfbf;" points="783,-56 783,-76 842,-76 842,-56 783,-56"/>
<text text-anchor="middle" x="812" y="-63" style="font-family:Arial;font-size:10.00;">stdexcept</text>
</g>
<!-- Node8&#45;&gt;Node10 -->
<g id="edge18" class="edge"><title>Node8&#45;&gt;Node10</title>
<path style="fill:none;stroke:midnightblue;" d="M568,-287C674,-278 921,-252 969,-188 1006,-136 910,-97 852,-77"/>
<polygon style="fill:midnightblue;stroke:midnightblue;" points="852.584,-73.5212 842,-74 850.573,-80.2259 852.584,-73.5212"/>
</g>
<!-- Node11 -->
<g id="node23" class="node"><title>Node11</title>
<a xlink:href="object_8h.html" target="_top" xlink:title="ltr/data/object.h">
<polygon style="fill:white;stroke:black;" points="648,-112 648,-132 732,-132 732,-112 648,-112"/>
<text text-anchor="middle" x="690" y="-119" style="font-family:Arial;font-size:10.00;">ltr/data/object.h</text>
</a>
</g>
<!-- Node8&#45;&gt;Node11 -->
<g id="edge24" class="edge"><title>Node8&#45;&gt;Node11</title>
<path style="fill:none;stroke:midnightblue;" d="M568,-288C634,-284 745,-274 771,-244 800,-209 748,-162 714,-138"/>
<polygon style="fill:midnightblue;stroke:midnightblue;" points="716.1,-135.2 706,-132 711.9,-140.8 716.1,-135.2"/>
</g>
<!-- Node15 -->
<g id="node37" class="node"><title>Node15</title>
<a xlink:href="object__list_8h.html" target="_top" xlink:title="ltr/data/object_list.h">
<polygon style="fill:white;stroke:black;" points="455,-168 455,-188 557,-188 557,-168 455,-168"/>
<text text-anchor="middle" x="506" y="-175" style="font-family:Arial;font-size:10.00;">ltr/data/object_list.h</text>
</a>
</g>
<!-- Node8&#45;&gt;Node15 -->
<g id="edge44" class="edge"><title>Node8&#45;&gt;Node15</title>
<path style="fill:none;stroke:midnightblue;" d="M516,-280C513,-271 508,-257 506,-244 504,-229 504,-211 504,-198"/>
<polygon style="fill:midnightblue;stroke:midnightblue;" points="507.488,-198.299 505,-188 500.522,-197.602 507.488,-198.299"/>
</g>
<!-- Node16 -->
<g id="node45" class="node"><title>Node16</title>
<a xlink:href="object__pair_8h.html" target="_top" xlink:title="ltr/data/object_pair.h">
<polygon style="fill:white;stroke:black;" points="575,-168 575,-188 679,-188 679,-168 575,-168"/>
<text text-anchor="middle" x="627" y="-175" style="font-family:Arial;font-size:10.00;">ltr/data/object_pair.h</text>
</a>
</g>
<!-- Node8&#45;&gt;Node16 -->
<g id="edge58" class="edge"><title>Node8&#45;&gt;Node16</title>
<path style="fill:none;stroke:midnightblue;" d="M520,-280C521,-266 525,-240 539,-224 550,-210 567,-199 583,-192"/>
<polygon style="fill:midnightblue;stroke:midnightblue;" points="585.015,-194.964 593,-188 582.415,-188.464 585.015,-194.964"/>
</g>
<!-- Node17 -->
<g id="node53" class="node"><title>Node17</title>
<a xlink:href="feature__info_8h.html" target="_top" xlink:title="ltr/data/feature_info.h">
<polygon style="fill:white;stroke:black;" points="320,-224 320,-244 427,-244 427,-224 320,-224"/>
<text text-anchor="middle" x="373" y="-231" style="font-family:Arial;font-size:10.00;">ltr/data/feature_info.h</text>
</a>
</g>
<!-- Node8&#45;&gt;Node17 -->
<g id="edge72" class="edge"><title>Node8&#45;&gt;Node17</title>
<path style="fill:none;stroke:midnightblue;" d="M494,-280C470,-271 435,-258 409,-248"/>
<polygon style="fill:midnightblue;stroke:midnightblue;" points="409.585,-244.464 399,-244 406.985,-250.964 409.585,-244.464"/>
</g>
<!-- Node24 -->
<g id="node77" class="node"><title>Node24</title>
<a xlink:href="per__object__accessor_8h.html" target="_top" xlink:title="ltr/data/per_object_accessor.h">
<polygon style="fill:white;stroke:black;" points="616,-224 616,-244 763,-244 763,-224 616,-224"/>
<text text-anchor="middle" x="689" y="-231" style="font-family:Arial;font-size:10.00;">ltr/data/per_object_accessor.h</text>
</a>
</g>
<!-- Node8&#45;&gt;Node24 -->
<g id="edge106" class="edge"><title>Node8&#45;&gt;Node24</title>
<path style="fill:none;stroke:midnightblue;" d="M550,-280C578,-271 619,-257 649,-247"/>
<polygon style="fill:midnightblue;stroke:midnightblue;" points="650.427,-250.226 659,-244 648.416,-243.521 650.427,-250.226"/>
</g>
<!-- Node8&#45;&gt;Node25 -->
<g id="edge118" class="edge"><title>Node8&#45;&gt;Node25</title>
<path style="fill:none;stroke:midnightblue;" d="M473,-284C394,-273 235,-254 146,-242"/>
<polygon style="fill:midnightblue;stroke:midnightblue;" points="146.299,-238.512 136,-241 145.602,-245.478 146.299,-238.512"/>
</g>
<!-- Node11&#45;&gt;Node2 -->
<g id="edge32" class="edge"><title>Node11&#45;&gt;Node2</title>
<path style="fill:none;stroke:midnightblue;" d="M670,-112C631,-91 543,-47 497,-25"/>
<polygon style="fill:midnightblue;stroke:midnightblue;" points="498.441,-21.7969 488,-20 495.042,-27.916 498.441,-21.7969"/>
</g>
<!-- Node11&#45;&gt;Node3 -->
<g id="edge34" class="edge"><title>Node11&#45;&gt;Node3</title>
<path style="fill:none;stroke:midnightblue;" d="M648,-116C569,-105 398,-81 328,-70"/>
<polygon style="fill:midnightblue;stroke:midnightblue;" points="328.299,-66.5125 318,-69 327.602,-73.4778 328.299,-66.5125"/>
</g>
<!-- Node11&#45;&gt;Node4 -->
<g id="edge42" class="edge"><title>Node11&#45;&gt;Node4</title>
<path style="fill:none;stroke:midnightblue;" d="M687,-112C686,-105 683,-95 680,-86"/>
<polygon style="fill:midnightblue;stroke:midnightblue;" points="683.226,-84.5725 677,-76 676.521,-86.584 683.226,-84.5725"/>
</g>
<!-- Node11&#45;&gt;Node10 -->
<g id="edge30" class="edge"><title>Node11&#45;&gt;Node10</title>
<path style="fill:none;stroke:midnightblue;" d="M712,-112C731,-103 759,-90 781,-80"/>
<polygon style="fill:midnightblue;stroke:midnightblue;" points="782.283,-83.2598 790,-76 779.44,-76.8631 782.283,-83.2598"/>
</g>
<!-- Node12 -->
<g id="node25" class="node"><title>Node12</title>
<polygon style="fill:white;stroke:#bfbfbf;" points="381,-56 381,-76 416,-76 416,-56 381,-56"/>
<text text-anchor="middle" x="398" y="-63" style="font-family:Arial;font-size:10.00;">map</text>
</g>
<!-- Node11&#45;&gt;Node12 -->
<g id="edge26" class="edge"><title>Node11&#45;&gt;Node12</title>
<path style="fill:none;stroke:midnightblue;" d="M648,-114C587,-102 478,-81 426,-71"/>
<polygon style="fill:midnightblue;stroke:midnightblue;" points="426.492,-67.5292 416,-69 425.119,-74.3933 426.492,-67.5292"/>
</g>
<!-- Node13 -->
<g id="node27" class="node"><title>Node13</title>
<polygon style="fill:white;stroke:#bfbfbf;" points="921,-0 921,-20 972,-20 972,-0 921,-0"/>
<text text-anchor="middle" x="946" y="-7" style="font-family:Arial;font-size:10.00;">ostream</text>
</g>
<!-- Node11&#45;&gt;Node13 -->
<g id="edge28" class="edge"><title>Node11&#45;&gt;Node13</title>
<path style="fill:none;stroke:midnightblue;" d="M700,-112C715,-97 744,-71 774,-56 786,-49 864,-30 911,-18"/>
<polygon style="fill:midnightblue;stroke:midnightblue;" points="911.881,-21.3933 921,-16 910.508,-14.5292 911.881,-21.3933"/>
</g>
<!-- Node11&#45;&gt;Node14 -->
<g id="edge36" class="edge"><title>Node11&#45;&gt;Node14</title>
<path style="fill:none;stroke:midnightblue;" d="M732,-113C777,-104 847,-89 897,-78"/>
<polygon style="fill:midnightblue;stroke:midnightblue;" points="897.881,-81.3933 907,-76 896.508,-74.5292 897.881,-81.3933"/>
</g>
<!-- Node14&#45;&gt;Node2 -->
<g id="edge40" class="edge"><title>Node14&#45;&gt;Node2</title>
<path style="fill:none;stroke:midnightblue;" d="M897,-57C892,-57 888,-56 883,-56 714,-36 667,-55 498,-20"/>
<polygon style="fill:midnightblue;stroke:midnightblue;" points="498.492,-16.5292 488,-18 497.119,-23.3933 498.492,-16.5292"/>
</g>
<!-- Node14&#45;&gt;Node13 -->
<g id="edge38" class="edge"><title>Node14&#45;&gt;Node13</title>
<path style="fill:none;stroke:midnightblue;" d="M953,-56C952,-49 951,-39 949,-30"/>
<polygon style="fill:midnightblue;stroke:midnightblue;" points="952.478,-29.6021 948,-20 945.512,-30.2987 952.478,-29.6021"/>
</g>
<!-- Node15&#45;&gt;Node2 -->
<g id="edge48" class="edge"><title>Node15&#45;&gt;Node2</title>
<path style="fill:none;stroke:midnightblue;" d="M503,-168C499,-158 495,-144 492,-132 483,-97 475,-55 472,-30"/>
<polygon style="fill:midnightblue;stroke:midnightblue;" points="475.393,-29.1194 470,-20 468.529,-30.4922 475.393,-29.1194"/>
</g>
<!-- Node15&#45;&gt;Node3 -->
<g id="edge50" class="edge"><title>Node15&#45;&gt;Node3</title>
<path style="fill:none;stroke:midnightblue;" d="M486,-168C467,-159 439,-145 416,-132 384,-114 348,-94 324,-81"/>
<polygon style="fill:midnightblue;stroke:midnightblue;" points="325.441,-77.7969 315,-76 322.042,-83.916 325.441,-77.7969"/>
</g>
<!-- Node15&#45;&gt;Node4 -->
<g id="edge56" class="edge"><title>Node15&#45;&gt;Node4</title>
<path style="fill:none;stroke:midnightblue;" d="M513,-168C524,-154 545,-128 568,-112 588,-98 612,-87 633,-80"/>
<polygon style="fill:midnightblue;stroke:midnightblue;" points="634.283,-83.2598 642,-76 631.44,-76.8631 634.283,-83.2598"/>
</g>
<!-- Node15&#45;&gt;Node10 -->
<g id="edge46" class="edge"><title>Node15&#45;&gt;Node10</title>
<path style="fill:none;stroke:midnightblue;" d="M524,-168C548,-154 596,-128 639,-112 684,-95 737,-82 773,-74"/>
<polygon style="fill:midnightblue;stroke:midnightblue;" points="773.881,-77.3933 783,-72 772.508,-70.5292 773.881,-77.3933"/>
</g>
<!-- Node15&#45;&gt;Node11 -->
<g id="edge52" class="edge"><title>Node15&#45;&gt;Node11</title>
<path style="fill:none;stroke:midnightblue;" d="M539,-168C569,-159 614,-145 647,-135"/>
<polygon style="fill:midnightblue;stroke:midnightblue;" points="648.427,-138.226 657,-132 646.416,-131.521 648.427,-138.226"/>
</g>
<!-- Node15&#45;&gt;Node14 -->
<g id="edge54" class="edge"><title>Node15&#45;&gt;Node14</title>
<path style="fill:none;stroke:midnightblue;" d="M557,-168C615,-157 707,-140 741,-132 774,-124 861,-96 913,-79"/>
<polygon style="fill:midnightblue;stroke:midnightblue;" points="914.427,-82.2259 923,-76 912.416,-75.5212 914.427,-82.2259"/>
</g>
<!-- Node16&#45;&gt;Node2 -->
<g id="edge62" class="edge"><title>Node16&#45;&gt;Node2</title>
<path style="fill:none;stroke:midnightblue;" d="M618,-168C591,-140 518,-63 485,-28"/>
<polygon style="fill:midnightblue;stroke:midnightblue;" points="487.219,-25.221 478,-20 481.951,-29.8306 487.219,-25.221"/>
</g>
<!-- Node16&#45;&gt;Node3 -->
<g id="edge64" class="edge"><title>Node16&#45;&gt;Node3</title>
<path style="fill:none;stroke:midnightblue;" d="M597,-168C534,-146 391,-98 328,-76"/>
<polygon style="fill:midnightblue;stroke:midnightblue;" points="328.584,-72.5212 318,-73 326.573,-79.2259 328.584,-72.5212"/>
</g>
<!-- Node16&#45;&gt;Node4 -->
<g id="edge70" class="edge"><title>Node16&#45;&gt;Node4</title>
<path style="fill:none;stroke:midnightblue;" d="M627,-168C628,-154 630,-130 639,-112 643,-102 651,-92 657,-84"/>
<polygon style="fill:midnightblue;stroke:midnightblue;" points="660.049,-85.8306 664,-76 654.781,-81.221 660.049,-85.8306"/>
</g>
<!-- Node16&#45;&gt;Node10 -->
<g id="edge60" class="edge"><title>Node16&#45;&gt;Node10</title>
<path style="fill:none;stroke:midnightblue;" d="M660,-168C684,-160 715,-148 741,-132 762,-118 783,-98 796,-84"/>
<polygon style="fill:midnightblue;stroke:midnightblue;" points="799.049,-85.8306 803,-76 793.781,-81.221 799.049,-85.8306"/>
</g>
<!-- Node16&#45;&gt;Node11 -->
<g id="edge66" class="edge"><title>Node16&#45;&gt;Node11</title>
<path style="fill:none;stroke:midnightblue;" d="M638,-168C647,-160 660,-149 671,-139"/>
<polygon style="fill:midnightblue;stroke:midnightblue;" points="673.404,-141.546 678,-132 668.454,-136.596 673.404,-141.546"/>
</g>
<!-- Node16&#45;&gt;Node14 -->
<g id="edge68" class="edge"><title>Node16&#45;&gt;Node14</title>
<path style="fill:none;stroke:midnightblue;" d="M678,-168C716,-160 768,-148 812,-132 853,-117 899,-95 927,-81"/>
<polygon style="fill:midnightblue;stroke:midnightblue;" points="928.958,-83.916 936,-76 925.559,-77.7969 928.958,-83.916"/>
</g>
<!-- Node17&#45;&gt;Node2 -->
<g id="edge76" class="edge"><title>Node17&#45;&gt;Node2</title>
<path style="fill:none;stroke:midnightblue;" d="M359,-224C320,-196 220,-115 267,-56 288,-30 387,-17 438,-12"/>
<polygon style="fill:midnightblue;stroke:midnightblue;" points="438.398,-15.4778 448,-11 437.701,-8.5125 438.398,-15.4778"/>
</g>
<!-- Node17&#45;&gt;Node3 -->
<g id="edge78" class="edge"><title>Node17&#45;&gt;Node3</title>
<path style="fill:none;stroke:midnightblue;" d="M368,-224C356,-197 322,-121 306,-85"/>
<polygon style="fill:midnightblue;stroke:midnightblue;" points="309.26,-83.7166 302,-76 302.863,-86.5596 309.26,-83.7166"/>
</g>
<!-- Node17&#45;&gt;Node4 -->
<g id="edge104" class="edge"><title>Node17&#45;&gt;Node4</title>
<path style="fill:none;stroke:midnightblue;" d="M383,-224C396,-210 421,-186 446,-168 484,-139 494,-132 538,-112 566,-99 600,-87 627,-79"/>
<polygon style="fill:midnightblue;stroke:midnightblue;" points="628.427,-82.2259 637,-76 626.416,-75.5212 628.427,-82.2259"/>
</g>
<!-- Node17&#45;&gt;Node12 -->
<g id="edge74" class="edge"><title>Node17&#45;&gt;Node12</title>
<path style="fill:none;stroke:midnightblue;" d="M372,-224C370,-203 368,-152 378,-112 379,-103 383,-93 387,-85"/>
<polygon style="fill:midnightblue;stroke:midnightblue;" points="390.203,-86.4414 392,-76 384.084,-83.0418 390.203,-86.4414"/>
</g>
<!-- Node17&#45;&gt;Node18 -->
<g id="edge80" class="edge"><title>Node17&#45;&gt;Node18</title>
<path style="fill:none;stroke:midnightblue;" d="M427,-228C518,-218 702,-198 808,-187"/>
<polygon style="fill:midnightblue;stroke:midnightblue;" points="808.398,-190.478 818,-186 807.701,-183.512 808.398,-190.478"/>
</g>
<!-- Node18&#45;&gt;Node2 -->
<g id="edge84" class="edge"><title>Node18&#45;&gt;Node2</title>
<path style="fill:none;stroke:midnightblue;" d="M895,-168C902,-154 911,-130 904,-112 891,-79 881,-71 850,-56 711,11 653,-50 498,-20"/>
<polygon style="fill:midnightblue;stroke:midnightblue;" points="498.492,-16.5292 488,-18 497.119,-23.3933 498.492,-16.5292"/>
</g>
<!-- Node18&#45;&gt;Node10 -->
<g id="edge82" class="edge"><title>Node18&#45;&gt;Node10</title>
<path style="fill:none;stroke:midnightblue;" d="M892,-168C894,-154 898,-129 888,-112 880,-97 866,-87 851,-80"/>
<polygon style="fill:midnightblue;stroke:midnightblue;" points="852.56,-76.8631 842,-76 849.717,-83.2598 852.56,-76.8631"/>
</g>
<!-- Node18&#45;&gt;Node19 -->
<g id="edge86" class="edge"><title>Node18&#45;&gt;Node19</title>
<path style="fill:none;stroke:midnightblue;" d="M945,-168C999,-159 1081,-144 1138,-134"/>
<polygon style="fill:midnightblue;stroke:midnightblue;" points="1138.88,-137.393 1148,-132 1137.51,-130.529 1138.88,-137.393"/>
</g>
<!-- Node19&#45;&gt;Node2 -->
<g id="edge94" class="edge"><title>Node19&#45;&gt;Node2</title>
<path style="fill:none;stroke:midnightblue;" d="M1167,-112C1138,-103 1095,-90 1060,-76 1042,-68 1040,-61 1022,-56 800,6 728,-64 498,-20"/>
<polygon style="fill:midnightblue;stroke:midnightblue;" points="498.492,-16.5292 488,-18 497.119,-23.3933 498.492,-16.5292"/>
</g>
<!-- Node19&#45;&gt;Node4 -->
<g id="edge100" class="edge"><title>Node19&#45;&gt;Node4</title>
<path style="fill:none;stroke:midnightblue;" d="M1109,-112C1002,-100 831,-82 738,-73"/>
<polygon style="fill:midnightblue;stroke:midnightblue;" points="738.299,-69.5125 728,-72 737.602,-76.4778 738.299,-69.5125"/>
</g>
<!-- Node19&#45;&gt;Node10 -->
<g id="edge92" class="edge"><title>Node19&#45;&gt;Node10</title>
<path style="fill:none;stroke:midnightblue;" d="M1134,-112C1051,-101 918,-81 852,-71"/>
<polygon style="fill:midnightblue;stroke:midnightblue;" points="852.299,-67.5125 842,-70 851.602,-74.4778 852.299,-67.5125"/>
</g>
<!-- Node19&#45;&gt;Node14 -->
<g id="edge102" class="edge"><title>Node19&#45;&gt;Node14</title>
<path style="fill:none;stroke:midnightblue;" d="M1159,-112C1117,-103 1055,-88 1010,-78"/>
<polygon style="fill:midnightblue;stroke:midnightblue;" points="1010.49,-74.5292 1000,-76 1009.12,-81.3933 1010.49,-74.5292"/>
</g>
<!-- Node20 -->
<g id="node64" class="node"><title>Node20</title>
<polygon style="fill:white;stroke:#bfbfbf;" points="1309,-56 1309,-76 1383,-76 1383,-56 1309,-56"/>
<text text-anchor="middle" x="1346" y="-63" style="font-family:Arial;font-size:10.00;">logog/logog.h</text>
</g>
<!-- Node19&#45;&gt;Node20 -->
<g id="edge88" class="edge"><title>Node19&#45;&gt;Node20</title>
<path style="fill:none;stroke:midnightblue;" d="M1229,-112C1252,-103 1285,-90 1310,-80"/>
<polygon style="fill:midnightblue;stroke:midnightblue;" points="1312.02,-82.9636 1320,-76 1309.42,-76.4643 1312.02,-82.9636"/>
</g>
<!-- Node21 -->
<g id="node66" class="node"><title>Node21</title>
<polygon style="fill:white;stroke:#bfbfbf;" points="1401,-56 1401,-76 1430,-76 1430,-56 1401,-56"/>
<text text-anchor="middle" x="1415" y="-63" style="font-family:Arial;font-size:10.00;">list</text>
</g>
<!-- Node19&#45;&gt;Node21 -->
<g id="edge90" class="edge"><title>Node19&#45;&gt;Node21</title>
<path style="fill:none;stroke:midnightblue;" d="M1254,-112C1291,-104 1340,-93 1391,-75"/>
<polygon style="fill:midnightblue;stroke:midnightblue;" points="1392.43,-78.2259 1401,-72 1390.42,-71.5212 1392.43,-78.2259"/>
</g>
<!-- Node22 -->
<g id="node70" class="node"><title>Node22</title>
<polygon style="fill:white;stroke:#bfbfbf;" points="1069,-56 1069,-76 1146,-76 1146,-56 1069,-56"/>
<text text-anchor="middle" x="1107" y="-63" style="font-family:Arial;font-size:10.00;">boost/any.hpp</text>
</g>
<!-- Node19&#45;&gt;Node22 -->
<g id="edge96" class="edge"><title>Node19&#45;&gt;Node22</title>
<path style="fill:none;stroke:midnightblue;" d="M1187,-112C1172,-104 1150,-91 1134,-81"/>
<polygon style="fill:midnightblue;stroke:midnightblue;" points="1135.44,-77.7969 1125,-76 1132.04,-83.916 1135.44,-77.7969"/>
</g>
<!-- Node23 -->
<g id="node72" class="node"><title>Node23</title>
<polygon style="fill:white;stroke:#bfbfbf;" points="1163,-56 1163,-76 1292,-76 1292,-56 1163,-56"/>
<text text-anchor="middle" x="1227" y="-63" style="font-family:Arial;font-size:10.00;">boost/unordered_map.hpp</text>
</g>
<!-- Node19&#45;&gt;Node23 -->
<g id="edge98" class="edge"><title>Node19&#45;&gt;Node23</title>
<path style="fill:none;stroke:midnightblue;" d="M1208,-112C1211,-105 1215,-95 1219,-85"/>
<polygon style="fill:midnightblue;stroke:midnightblue;" points="1222.14,-86.5596 1223,-76 1215.74,-83.7166 1222.14,-86.5596"/>
</g>
<!-- Node24&#45;&gt;Node4 -->
<g id="edge116" class="edge"><title>Node24&#45;&gt;Node4</title>
<path style="fill:none;stroke:midnightblue;" d="M699,-224C720,-203 762,-152 741,-112 734,-98 721,-89 708,-81"/>
<polygon style="fill:midnightblue;stroke:midnightblue;" points="709.441,-77.7969 699,-76 706.042,-83.916 709.441,-77.7969"/>
</g>
<!-- Node24&#45;&gt;Node11 -->
<g id="edge108" class="edge"><title>Node24&#45;&gt;Node11</title>
<path style="fill:none;stroke:midnightblue;" d="M689,-224C689,-205 690,-166 690,-142"/>
<polygon style="fill:midnightblue;stroke:midnightblue;" points="693.5,-142 690,-132 686.5,-142 693.5,-142"/>
</g>
<!-- Node24&#45;&gt;Node15 -->
<g id="edge112" class="edge"><title>Node24&#45;&gt;Node15</title>
<path style="fill:none;stroke:midnightblue;" d="M656,-224C626,-215 581,-201 549,-191"/>
<polygon style="fill:midnightblue;stroke:midnightblue;" points="549.584,-187.521 539,-188 547.573,-194.226 549.584,-187.521"/>
</g>
<!-- Node24&#45;&gt;Node16 -->
<g id="edge110" class="edge"><title>Node24&#45;&gt;Node16</title>
<path style="fill:none;stroke:midnightblue;" d="M678,-224C669,-216 656,-205 646,-195"/>
<polygon style="fill:midnightblue;stroke:midnightblue;" points="647.831,-191.951 638,-188 643.221,-197.219 647.831,-191.951"/>
</g>
<!-- Node24&#45;&gt;Node18 -->
<g id="edge114" class="edge"><title>Node24&#45;&gt;Node18</title>
<path style="fill:none;stroke:midnightblue;" d="M725,-224C758,-215 808,-201 843,-191"/>
<polygon style="fill:midnightblue;stroke:midnightblue;" points="844.427,-194.226 853,-188 842.416,-187.521 844.427,-194.226"/>
</g>
<!-- Node25&#45;&gt;Node2 -->
<g id="edge120" class="edge"><title>Node25&#45;&gt;Node2</title>
<path style="fill:none;stroke:midnightblue;" d="M80,-224C75,-193 64,-101 112,-56 135,-33 356,-17 438,-12"/>
<polygon style="fill:midnightblue;stroke:midnightblue;" points="438.398,-15.4778 448,-11 437.701,-8.5125 438.398,-15.4778"/>
</g>
</g>
</svg>
