<?xml version="1.0" encoding="UTF-8" standalone="no"?>
<!DOCTYPE svg PUBLIC "-//W3C//DTD SVG 1.0//EN"
 "http://www.w3.org/TR/2001/REC-SVG-20010904/DTD/svg10.dtd" [
 <!ATTLIST svg xmlns:xlink CDATA #FIXED "http://www.w3.org/1999/xlink">
]>
<!-- Generated by Graphviz version 2.20.2 (Tue Mar &#160;2 19:03:41 UTC 2010)
     For user: (jenkins)  -->
<!-- Title: G Pages: 1 -->
<svg width="454pt" height="140pt"
 viewBox="0.00 0.00 454.00 140.00" xmlns="http://www.w3.org/2000/svg" xmlns:xlink="http://www.w3.org/1999/xlink">
<g id="graph0" class="graph" transform="scale(1 1) rotate(0) translate(4 136)">
<title>G</title>
<polygon style="fill:white;stroke:white;" points="-4,4 -4,-136 450,-136 450,4 -4,4"/>
<!-- Node1 -->
<g id="node1" class="node"><title>Node1</title>
<polygon style="fill:#bfbfbf;stroke:black;" points="0,-112 0,-132 171,-132 171,-112 0,-112"/>
<text text-anchor="middle" x="85" y="-119" style="font-family:Arial;font-size:10.00;">ltr/data/utility/data_set_statistics.cc</text>
</g>
<!-- Node2 -->
<g id="node3" class="node"><title>Node2</title>
<polygon style="fill:white;stroke:#bfbfbf;" points="19,-56 19,-76 58,-76 58,-56 19,-56"/>
<text text-anchor="middle" x="38" y="-63" style="font-family:Arial;font-size:10.00;">limits</text>
</g>
<!-- Node1&#45;&gt;Node2 -->
<g id="edge2" class="edge"><title>Node1&#45;&gt;Node2</title>
<path style="fill:none;stroke:midnightblue;" d="M77,-112C70,-104 61,-94 53,-84"/>
<polygon style="fill:midnightblue;stroke:midnightblue;" points="55.8,-81.9 47,-76 50.2,-86.1 55.8,-81.9"/>
</g>
<!-- Node3 -->
<g id="node5" class="node"><title>Node3</title>
<polygon style="fill:white;stroke:#bfbfbf;" points="76,-0 76,-20 118,-20 118,-0 76,-0"/>
<text text-anchor="middle" x="97" y="-7" style="font-family:Arial;font-size:10.00;">vector</text>
</g>
<!-- Node1&#45;&gt;Node3 -->
<g id="edge4" class="edge"><title>Node1&#45;&gt;Node3</title>
<path style="fill:none;stroke:midnightblue;" d="M86,-112C88,-93 92,-54 95,-30"/>
<polygon style="fill:midnightblue;stroke:midnightblue;" points="98.4875,-30.2987 96,-20 91.5222,-29.6021 98.4875,-30.2987"/>
</g>
<!-- Node4 -->
<g id="node7" class="node"><title>Node4</title>
<a xlink:href="data__set__statistics_8h.html" target="_top" xlink:title="ltr/data/utility/data_set_statistics.h">
<polygon style="fill:white;stroke:black;" points="113,-56 113,-76 279,-76 279,-56 113,-56"/>
<text text-anchor="middle" x="196" y="-63" style="font-family:Arial;font-size:10.00;">ltr/data/utility/data_set_statistics.h</text>
</a>
</g>
<!-- Node1&#45;&gt;Node4 -->
<g id="edge6" class="edge"><title>Node1&#45;&gt;Node4</title>
<path style="fill:none;stroke:midnightblue;" d="M105,-112C122,-103 147,-90 167,-81"/>
<polygon style="fill:midnightblue;stroke:midnightblue;" points="168.958,-83.916 176,-76 165.559,-77.7969 168.958,-83.916"/>
</g>
<!-- Node4&#45;&gt;Node3 -->
<g id="edge8" class="edge"><title>Node4&#45;&gt;Node3</title>
<path style="fill:none;stroke:midnightblue;" d="M178,-56C163,-48 141,-35 124,-25"/>
<polygon style="fill:midnightblue;stroke:midnightblue;" points="125.441,-21.7969 115,-20 122.042,-27.916 125.441,-21.7969"/>
</g>
<!-- Node5 -->
<g id="node10" class="node"><title>Node5</title>
<polygon style="fill:white;stroke:#bfbfbf;" points="142,-0 142,-20 237,-20 237,-0 142,-0"/>
<text text-anchor="middle" x="189" y="-7" style="font-family:Arial;font-size:10.00;">ltr/data/data_set.h</text>
</g>
<!-- Node4&#45;&gt;Node5 -->
<g id="edge10" class="edge"><title>Node4&#45;&gt;Node5</title>
<path style="fill:none;stroke:midnightblue;" d="M195,-56C194,-49 193,-39 192,-30"/>
<polygon style="fill:midnightblue;stroke:midnightblue;" points="195.393,-29.1194 190,-20 188.529,-30.4922 195.393,-29.1194"/>
</g>
<!-- Node6 -->
<g id="node12" class="node"><title>Node6</title>
<polygon style="fill:white;stroke:#bfbfbf;" points="254,-0 254,-20 446,-20 446,-0 254,-0"/>
<text text-anchor="middle" x="350" y="-7" style="font-family:Arial;font-size:10.00;">ltr/data/utility/data_set_label_statistics.h</text>
</g>
<!-- Node4&#45;&gt;Node6 -->
<g id="edge12" class="edge"><title>Node4&#45;&gt;Node6</title>
<path style="fill:none;stroke:midnightblue;" d="M224,-56C249,-47 286,-33 313,-23"/>
<polygon style="fill:midnightblue;stroke:midnightblue;" points="314.427,-26.2259 323,-20 312.416,-19.5212 314.427,-26.2259"/>
</g>
</g>
</svg>
