<?xml version="1.0" encoding="UTF-8" standalone="no"?>
<!DOCTYPE svg PUBLIC "-//W3C//DTD SVG 1.0//EN"
 "http://www.w3.org/TR/2001/REC-SVG-20010904/DTD/svg10.dtd" [
 <!ATTLIST svg xmlns:xlink CDATA #FIXED "http://www.w3.org/1999/xlink">
]>
<!-- Generated by Graphviz version 2.20.2 (Tue Mar &#160;2 19:03:41 UTC 2010)
     For user: (jenkins)  -->
<!-- Title: G Pages: 1 -->
<svg width="1662pt" height="420pt"
 viewBox="0.00 0.00 1662.00 420.00" xmlns="http://www.w3.org/2000/svg" xmlns:xlink="http://www.w3.org/1999/xlink">
<g id="graph0" class="graph" transform="scale(1 1) rotate(0) translate(4 416)">
<title>G</title>
<polygon style="fill:white;stroke:white;" points="-4,4 -4,-416 1658,-416 1658,4 -4,4"/>
<!-- Node1 -->
<g id="node1" class="node"><title>Node1</title>
<polygon style="fill:#bfbfbf;stroke:black;" points="147,-392 147,-412 329,-412 329,-392 147,-392"/>
<text text-anchor="middle" x="238" y="-399" style="font-family:Arial;font-size:10.00;">ltr/data_preprocessors/data_sampler.h</text>
</g>
<!-- Node2 -->
<g id="node3" class="node"><title>Node2</title>
<polygon style="fill:white;stroke:#bfbfbf;" points="14,-0 14,-20 70,-20 70,-0 14,-0"/>
<text text-anchor="middle" x="42" y="-7" style="font-family:Arial;font-size:10.00;">algorithm</text>
</g>
<!-- Node1&#45;&gt;Node2 -->
<g id="edge2" class="edge"><title>Node1&#45;&gt;Node2</title>
<path style="fill:none;stroke:midnightblue;" d="M184,-392C152,-385 112,-373 79,-356 39,-334 0,-335 0,-290 0,-290 0,-290 0,-122 0,-87 17,-50 30,-29"/>
<polygon style="fill:midnightblue;stroke:midnightblue;" points="33.2031,-30.4414 35,-20 27.084,-27.0418 33.2031,-30.4414"/>
</g>
<!-- Node3 -->
<g id="node5" class="node"><title>Node3</title>
<polygon style="fill:white;stroke:#bfbfbf;" points="520,-56 520,-76 562,-76 562,-56 520,-56"/>
<text text-anchor="middle" x="541" y="-63" style="font-family:Arial;font-size:10.00;">vector</text>
</g>
<!-- Node1&#45;&gt;Node3 -->
<g id="edge4" class="edge"><title>Node1&#45;&gt;Node3</title>
<path style="fill:none;stroke:midnightblue;" d="M294,-392C332,-384 377,-372 389,-356 432,-296 253,-288 289,-224 292,-217 452,-120 515,-81"/>
<polygon style="fill:midnightblue;stroke:midnightblue;" points="516.958,-83.916 524,-76 513.559,-77.7969 516.958,-83.916"/>
</g>
<!-- Node4 -->
<g id="node7" class="node"><title>Node4</title>
<polygon style="fill:white;stroke:#bfbfbf;" points="104,-336 104,-356 134,-356 134,-336 104,-336"/>
<text text-anchor="middle" x="119" y="-343" style="font-family:Arial;font-size:10.00;">set</text>
</g>
<!-- Node1&#45;&gt;Node4 -->
<g id="edge6" class="edge"><title>Node1&#45;&gt;Node4</title>
<path style="fill:none;stroke:midnightblue;" d="M217,-392C196,-382 165,-368 143,-357"/>
<polygon style="fill:midnightblue;stroke:midnightblue;" points="144.56,-353.863 134,-353 141.717,-360.26 144.56,-353.863"/>
</g>
<!-- Node5 -->
<g id="node9" class="node"><title>Node5</title>
<polygon style="fill:white;stroke:#bfbfbf;" points="342,-224 342,-244 393,-244 393,-224 342,-224"/>
<text text-anchor="middle" x="367" y="-231" style="font-family:Arial;font-size:10.00;">sstream</text>
</g>
<!-- Node1&#45;&gt;Node5 -->
<g id="edge8" class="edge"><title>Node1&#45;&gt;Node5</title>
<path style="fill:none;stroke:midnightblue;" d="M239,-392C242,-378 247,-353 257,-336 278,-299 318,-268 343,-250"/>
<polygon style="fill:midnightblue;stroke:midnightblue;" points="345.1,-252.8 351,-244 340.9,-247.2 345.1,-252.8"/>
</g>
<!-- Node6 -->
<g id="node11" class="node"><title>Node6</title>
<polygon style="fill:white;stroke:#bfbfbf;" points="981,-56 981,-76 1040,-76 1040,-56 981,-56"/>
<text text-anchor="middle" x="1010" y="-63" style="font-family:Arial;font-size:10.00;">stdexcept</text>
</g>
<!-- Node1&#45;&gt;Node6 -->
<g id="edge10" class="edge"><title>Node1&#45;&gt;Node6</title>
<path style="fill:none;stroke:midnightblue;" d="M329,-401C588,-398 1315,-381 1381,-300 1431,-238 1148,-120 1045,-80"/>
<polygon style="fill:midnightblue;stroke:midnightblue;" points="1046.56,-76.8631 1036,-76 1043.72,-83.2598 1046.56,-76.8631"/>
</g>
<!-- Node7 -->
<g id="node13" class="node"><title>Node7</title>
<polygon style="fill:white;stroke:#bfbfbf;" points="812,-0 812,-20 852,-20 852,-0 812,-0"/>
<text text-anchor="middle" x="832" y="-7" style="font-family:Arial;font-size:10.00;">string</text>
</g>
<!-- Node1&#45;&gt;Node7 -->
<g id="edge12" class="edge"><title>Node1&#45;&gt;Node7</title>
<path style="fill:none;stroke:midnightblue;" d="M225,-392C182,-356 38,-234 38,-178 38,-178 38,-178 38,-122 38,-56 108,-73 171,-56 292,-23 689,-13 802,-10"/>
<polygon style="fill:midnightblue;stroke:midnightblue;" points="802,-13.5001 812,-10 802,-6.5001 802,-13.5001"/>
</g>
<!-- Node8 -->
<g id="node15" class="node"><title>Node8</title>
<polygon style="fill:white;stroke:#bfbfbf;" points="266,-336 266,-356 380,-356 380,-336 266,-336"/>
<text text-anchor="middle" x="323" y="-343" style="font-family:Arial;font-size:10.00;">boost/lexical_cast.hpp</text>
</g>
<!-- Node1&#45;&gt;Node8 -->
<g id="edge14" class="edge"><title>Node1&#45;&gt;Node8</title>
<path style="fill:none;stroke:midnightblue;" d="M253,-392C266,-384 284,-371 299,-362"/>
<polygon style="fill:midnightblue;stroke:midnightblue;" points="301.621,-364.459 308,-356 297.738,-358.635 301.621,-364.459"/>
</g>
<!-- Node9 -->
<g id="node17" class="node"><title>Node9</title>
<a xlink:href="shared__ptr_8h.html" target="_top" xlink:title="ltr/utility/shared_ptr.h">
<polygon style="fill:white;stroke:black;" points="196,-56 196,-76 303,-76 303,-56 196,-56"/>
<text text-anchor="middle" x="249" y="-63" style="font-family:Arial;font-size:10.00;">ltr/utility/shared_ptr.h</text>
</a>
</g>
<!-- Node1&#45;&gt;Node9 -->
<g id="edge16" class="edge"><title>Node1&#45;&gt;Node9</title>
<path style="fill:none;stroke:midnightblue;" d="M193,-392C156,-383 109,-370 95,-356 74,-334 76,-320 76,-290 76,-290 76,-290 76,-178 76,-123 138,-93 188,-79"/>
<polygon style="fill:midnightblue;stroke:midnightblue;" points="189.427,-82.2259 198,-76 187.416,-75.5212 189.427,-82.2259"/>
</g>
<!-- Node12 -->
<g id="node24" class="node"><title>Node12</title>
<a xlink:href="data__set_8h.html" target="_top" xlink:title="ltr/data/data_set.h">
<polygon style="fill:white;stroke:black;" points="613,-280 613,-300 708,-300 708,-280 613,-280"/>
<text text-anchor="middle" x="660" y="-287" style="font-family:Arial;font-size:10.00;">ltr/data/data_set.h</text>
</a>
</g>
<!-- Node1&#45;&gt;Node12 -->
<g id="edge24" class="edge"><title>Node1&#45;&gt;Node12</title>
<path style="fill:none;stroke:midnightblue;" d="M279,-392C316,-383 373,-369 422,-356 489,-338 568,-316 615,-303"/>
<polygon style="fill:midnightblue;stroke:midnightblue;" points="616.427,-306.226 625,-300 614.416,-299.521 616.427,-306.226"/>
</g>
<!-- Node28 -->
<g id="node94" class="node"><title>Node28</title>
<a xlink:href="data__preprocessor_8h.html" target="_top" xlink:title="ltr/data_preprocessors/data_preprocessor.h">
<polygon style="fill:white;stroke:black;" points="904,-336 904,-356 1108,-356 1108,-336 904,-336"/>
<text text-anchor="middle" x="1006" y="-343" style="font-family:Arial;font-size:10.00;">ltr/data_preprocessors/data_preprocessor.h</text>
</a>
</g>
<!-- Node1&#45;&gt;Node28 -->
<g id="edge132" class="edge"><title>Node1&#45;&gt;Node28</title>
<path style="fill:none;stroke:midnightblue;" d="M329,-395C471,-385 741,-366 894,-355"/>
<polygon style="fill:midnightblue;stroke:midnightblue;" points="894.398,-358.478 904,-354 893.701,-351.512 894.398,-358.478"/>
</g>
<!-- Node29 -->
<g id="node104" class="node"><title>Node29</title>
<a xlink:href="indices_8h.html" target="_top" xlink:title="ltr/utility/indices.h">
<polygon style="fill:white;stroke:black;" points="332,-112 332,-132 425,-132 425,-112 332,-112"/>
<text text-anchor="middle" x="378" y="-119" style="font-family:Arial;font-size:10.00;">ltr/utility/indices.h</text>
</a>
</g>
<!-- Node1&#45;&gt;Node29 -->
<g id="edge150" class="edge"><title>Node1&#45;&gt;Node29</title>
<path style="fill:none;stroke:midnightblue;" d="M232,-392C221,-373 200,-329 200,-290 200,-290 200,-290 200,-234 201,-175 270,-147 322,-133"/>
<polygon style="fill:midnightblue;stroke:midnightblue;" points="323.427,-136.226 332,-130 321.416,-129.521 323.427,-136.226"/>
</g>
<!-- Node9&#45;&gt;Node2 -->
<g id="edge18" class="edge"><title>Node9&#45;&gt;Node2</title>
<path style="fill:none;stroke:midnightblue;" d="M212,-56C175,-46 118,-31 80,-21"/>
<polygon style="fill:midnightblue;stroke:midnightblue;" points="80.584,-17.5212 70,-18 78.5725,-24.2259 80.584,-17.5212"/>
</g>
<!-- Node10 -->
<g id="node20" class="node"><title>Node10</title>
<polygon style="fill:white;stroke:#bfbfbf;" points="129,-0 129,-20 236,-20 236,-0 129,-0"/>
<text text-anchor="middle" x="182" y="-7" style="font-family:Arial;font-size:10.00;">boost/shared_ptr.hpp</text>
</g>
<!-- Node9&#45;&gt;Node10 -->
<g id="edge20" class="edge"><title>Node9&#45;&gt;Node10</title>
<path style="fill:none;stroke:midnightblue;" d="M237,-56C227,-48 214,-36 202,-27"/>
<polygon style="fill:midnightblue;stroke:midnightblue;" points="203.831,-23.9511 194,-20 199.221,-29.2191 203.831,-23.9511"/>
</g>
<!-- Node11 -->
<g id="node22" class="node"><title>Node11</title>
<polygon style="fill:white;stroke:#bfbfbf;" points="253,-0 253,-20 444,-20 444,-0 253,-0"/>
<text text-anchor="middle" x="348" y="-7" style="font-family:Arial;font-size:10.00;">boost/smart_ptr/detail/operator_bool.hpp</text>
</g>
<!-- Node9&#45;&gt;Node11 -->
<g id="edge22" class="edge"><title>Node9&#45;&gt;Node11</title>
<path style="fill:none;stroke:midnightblue;" d="M267,-56C282,-48 304,-35 321,-25"/>
<polygon style="fill:midnightblue;stroke:midnightblue;" points="322.958,-27.916 330,-20 319.559,-21.7969 322.958,-27.916"/>
</g>
<!-- Node12&#45;&gt;Node3 -->
<g id="edge32" class="edge"><title>Node12&#45;&gt;Node3</title>
<path style="fill:none;stroke:midnightblue;" d="M625,-280C586,-266 522,-238 494,-188 483,-169 512,-114 530,-85"/>
<polygon style="fill:midnightblue;stroke:midnightblue;" points="533.203,-86.4414 535,-76 527.084,-83.0418 533.203,-86.4414"/>
</g>
<!-- Node12&#45;&gt;Node5 -->
<g id="edge26" class="edge"><title>Node12&#45;&gt;Node5</title>
<path style="fill:none;stroke:midnightblue;" d="M613,-282C562,-274 478,-259 406,-244 405,-244 404,-244 403,-243"/>
<polygon style="fill:midnightblue;stroke:midnightblue;" points="403.492,-239.529 393,-241 402.119,-246.393 403.492,-239.529"/>
</g>
<!-- Node12&#45;&gt;Node6 -->
<g id="edge28" class="edge"><title>Node12&#45;&gt;Node6</title>
<path style="fill:none;stroke:midnightblue;" d="M708,-287C811,-278 1046,-252 1086,-188 1110,-150 1063,-105 1033,-82"/>
<polygon style="fill:midnightblue;stroke:midnightblue;" points="1035.1,-79.2 1025,-76 1030.9,-84.8 1035.1,-79.2"/>
</g>
<!-- Node12&#45;&gt;Node7 -->
<g id="edge30" class="edge"><title>Node12&#45;&gt;Node7</title>
<path style="fill:none;stroke:midnightblue;" d="M620,-280C524,-256 288,-196 273,-188 211,-155 140,-107 187,-56 208,-33 677,-15 802,-11"/>
<polygon style="fill:midnightblue;stroke:midnightblue;" points="802,-14.5001 812,-11 802,-7.5001 802,-14.5001"/>
</g>
<!-- Node13 -->
<g id="node30" class="node"><title>Node13</title>
<a xlink:href="object_8h.html" target="_top" xlink:title="ltr/data/object.h">
<polygon style="fill:white;stroke:black;" points="746,-112 746,-132 830,-132 830,-112 746,-112"/>
<text text-anchor="middle" x="788" y="-119" style="font-family:Arial;font-size:10.00;">ltr/data/object.h</text>
</a>
</g>
<!-- Node12&#45;&gt;Node13 -->
<g id="edge34" class="edge"><title>Node12&#45;&gt;Node13</title>
<path style="fill:none;stroke:midnightblue;" d="M705,-280C739,-271 782,-258 792,-244 813,-213 803,-168 795,-142"/>
<polygon style="fill:midnightblue;stroke:midnightblue;" points="798.226,-140.573 792,-132 791.521,-142.584 798.226,-140.573"/>
</g>
<!-- Node17 -->
<g id="node44" class="node"><title>Node17</title>
<a xlink:href="object__list_8h.html" target="_top" xlink:title="ltr/data/object_list.h">
<polygon style="fill:white;stroke:black;" points="625,-168 625,-188 727,-188 727,-168 625,-168"/>
<text text-anchor="middle" x="676" y="-175" style="font-family:Arial;font-size:10.00;">ltr/data/object_list.h</text>
</a>
</g>
<!-- Node12&#45;&gt;Node17 -->
<g id="edge54" class="edge"><title>Node12&#45;&gt;Node17</title>
<path style="fill:none;stroke:midnightblue;" d="M649,-280C637,-267 619,-243 628,-224 633,-212 642,-202 652,-194"/>
<polygon style="fill:midnightblue;stroke:midnightblue;" points="654.1,-196.8 660,-188 649.9,-191.2 654.1,-196.8"/>
</g>
<!-- Node18 -->
<g id="node52" class="node"><title>Node18</title>
<a xlink:href="object__pair_8h.html" target="_top" xlink:title="ltr/data/object_pair.h">
<polygon style="fill:white;stroke:black;" points="503,-168 503,-188 607,-188 607,-168 503,-168"/>
<text text-anchor="middle" x="555" y="-175" style="font-family:Arial;font-size:10.00;">ltr/data/object_pair.h</text>
</a>
</g>
<!-- Node12&#45;&gt;Node18 -->
<g id="edge68" class="edge"><title>Node12&#45;&gt;Node18</title>
<path style="fill:none;stroke:midnightblue;" d="M650,-280C632,-260 594,-219 572,-195"/>
<polygon style="fill:midnightblue;stroke:midnightblue;" points="574.546,-192.596 565,-188 569.596,-197.546 574.546,-192.596"/>
</g>
<!-- Node19 -->
<g id="node60" class="node"><title>Node19</title>
<a xlink:href="feature__info_8h.html" target="_top" xlink:title="ltr/data/feature_info.h">
<polygon style="fill:white;stroke:black;" points="854,-224 854,-244 961,-244 961,-224 854,-224"/>
<text text-anchor="middle" x="907" y="-231" style="font-family:Arial;font-size:10.00;">ltr/data/feature_info.h</text>
</a>
</g>
<!-- Node12&#45;&gt;Node19 -->
<g id="edge82" class="edge"><title>Node12&#45;&gt;Node19</title>
<path style="fill:none;stroke:midnightblue;" d="M704,-280C746,-271 808,-256 853,-246"/>
<polygon style="fill:midnightblue;stroke:midnightblue;" points="853.881,-249.393 863,-244 852.508,-242.529 853.881,-249.393"/>
</g>
<!-- Node26 -->
<g id="node84" class="node"><title>Node26</title>
<a xlink:href="per__object__accessor_8h.html" target="_top" xlink:title="ltr/data/per_object_accessor.h">
<polygon style="fill:white;stroke:black;" points="637,-224 637,-244 784,-244 784,-224 637,-224"/>
<text text-anchor="middle" x="710" y="-231" style="font-family:Arial;font-size:10.00;">ltr/data/per_object_accessor.h</text>
</a>
</g>
<!-- Node12&#45;&gt;Node26 -->
<g id="edge116" class="edge"><title>Node12&#45;&gt;Node26</title>
<path style="fill:none;stroke:midnightblue;" d="M669,-280C676,-272 686,-261 694,-252"/>
<polygon style="fill:midnightblue;stroke:midnightblue;" points="697.049,-253.831 701,-244 691.781,-249.221 697.049,-253.831"/>
</g>
<!-- Node27 -->
<g id="node91" class="node"><title>Node27</title>
<a xlink:href="aliaser_8h.html" target="_top" xlink:title="ltr/interfaces/aliaser.h">
<polygon style="fill:white;stroke:black;" points="1107,-224 1107,-244 1215,-244 1215,-224 1107,-224"/>
<text text-anchor="middle" x="1161" y="-231" style="font-family:Arial;font-size:10.00;">ltr/interfaces/aliaser.h</text>
</a>
</g>
<!-- Node12&#45;&gt;Node27 -->
<g id="edge128" class="edge"><title>Node12&#45;&gt;Node27</title>
<path style="fill:none;stroke:midnightblue;" d="M708,-285C788,-278 954,-261 1093,-244 1094,-244 1096,-243 1097,-243"/>
<polygon style="fill:midnightblue;stroke:midnightblue;" points="1097.4,-246.478 1107,-242 1096.7,-239.512 1097.4,-246.478"/>
</g>
<!-- Node13&#45;&gt;Node3 -->
<g id="edge44" class="edge"><title>Node13&#45;&gt;Node3</title>
<path style="fill:none;stroke:midnightblue;" d="M746,-112C696,-101 616,-83 572,-73"/>
<polygon style="fill:midnightblue;stroke:midnightblue;" points="572.492,-69.5292 562,-71 571.119,-76.3933 572.492,-69.5292"/>
</g>
<!-- Node13&#45;&gt;Node6 -->
<g id="edge40" class="edge"><title>Node13&#45;&gt;Node6</title>
<path style="fill:none;stroke:midnightblue;" d="M828,-112C868,-102 931,-86 971,-76"/>
<polygon style="fill:midnightblue;stroke:midnightblue;" points="972.427,-79.2259 981,-73 970.416,-72.5212 972.427,-79.2259"/>
</g>
<!-- Node13&#45;&gt;Node7 -->
<g id="edge42" class="edge"><title>Node13&#45;&gt;Node7</title>
<path style="fill:none;stroke:midnightblue;" d="M790,-112C792,-99 798,-75 806,-56 810,-47 815,-37 820,-29"/>
<polygon style="fill:midnightblue;stroke:midnightblue;" points="823.203,-30.4414 825,-20 817.084,-27.0418 823.203,-30.4414"/>
</g>
<!-- Node13&#45;&gt;Node9 -->
<g id="edge52" class="edge"><title>Node13&#45;&gt;Node9</title>
<path style="fill:none;stroke:midnightblue;" d="M746,-118C652,-107 425,-84 313,-73"/>
<polygon style="fill:midnightblue;stroke:midnightblue;" points="313.299,-69.5125 303,-72 312.602,-76.4778 313.299,-69.5125"/>
</g>
<!-- Node14 -->
<g id="node32" class="node"><title>Node14</title>
<polygon style="fill:white;stroke:#bfbfbf;" points="815,-56 815,-76 850,-76 850,-56 815,-56"/>
<text text-anchor="middle" x="832" y="-63" style="font-family:Arial;font-size:10.00;">map</text>
</g>
<!-- Node13&#45;&gt;Node14 -->
<g id="edge36" class="edge"><title>Node13&#45;&gt;Node14</title>
<path style="fill:none;stroke:midnightblue;" d="M796,-112C802,-104 811,-94 818,-84"/>
<polygon style="fill:midnightblue;stroke:midnightblue;" points="820.8,-86.1 824,-76 815.2,-81.9 820.8,-86.1"/>
</g>
<!-- Node15 -->
<g id="node34" class="node"><title>Node15</title>
<polygon style="fill:white;stroke:#bfbfbf;" points="1236,-0 1236,-20 1287,-20 1287,-0 1236,-0"/>
<text text-anchor="middle" x="1261" y="-7" style="font-family:Arial;font-size:10.00;">ostream</text>
</g>
<!-- Node13&#45;&gt;Node15 -->
<g id="edge38" class="edge"><title>Node13&#45;&gt;Node15</title>
<path style="fill:none;stroke:midnightblue;" d="M811,-112C846,-97 912,-71 972,-56 1061,-33 1171,-19 1226,-13"/>
<polygon style="fill:midnightblue;stroke:midnightblue;" points="1226.4,-16.4778 1236,-12 1225.7,-9.5125 1226.4,-16.4778"/>
</g>
<!-- Node16 -->
<g id="node39" class="node"><title>Node16</title>
<a xlink:href="printable_8h.html" target="_top" xlink:title="ltr/interfaces/printable.h">
<polygon style="fill:white;stroke:black;" points="1511,-56 1511,-76 1628,-76 1628,-56 1511,-56"/>
<text text-anchor="middle" x="1569" y="-63" style="font-family:Arial;font-size:10.00;">ltr/interfaces/printable.h</text>
</a>
</g>
<!-- Node13&#45;&gt;Node16 -->
<g id="edge46" class="edge"><title>Node13&#45;&gt;Node16</title>
<path style="fill:none;stroke:midnightblue;" d="M830,-120C940,-116 1239,-103 1501,-76"/>
<polygon style="fill:midnightblue;stroke:midnightblue;" points="1501.4,-79.4778 1511,-75 1500.7,-72.5125 1501.4,-79.4778"/>
</g>
<!-- Node16&#45;&gt;Node7 -->
<g id="edge50" class="edge"><title>Node16&#45;&gt;Node7</title>
<path style="fill:none;stroke:midnightblue;" d="M1511,-57C1508,-57 1505,-56 1502,-56 1256,-29 957,-15 862,-11"/>
<polygon style="fill:midnightblue;stroke:midnightblue;" points="862,-7.5001 852,-11 862,-14.5001 862,-7.5001"/>
</g>
<!-- Node16&#45;&gt;Node15 -->
<g id="edge48" class="edge"><title>Node16&#45;&gt;Node15</title>
<path style="fill:none;stroke:midnightblue;" d="M1514,-56C1451,-45 1351,-26 1297,-17"/>
<polygon style="fill:midnightblue;stroke:midnightblue;" points="1297.49,-13.5292 1287,-15 1296.12,-20.3933 1297.49,-13.5292"/>
</g>
<!-- Node17&#45;&gt;Node3 -->
<g id="edge60" class="edge"><title>Node17&#45;&gt;Node3</title>
<path style="fill:none;stroke:midnightblue;" d="M664,-168C640,-148 589,-106 561,-83"/>
<polygon style="fill:midnightblue;stroke:midnightblue;" points="562.831,-79.9511 553,-76 558.221,-85.2191 562.831,-79.9511"/>
</g>
<!-- Node17&#45;&gt;Node6 -->
<g id="edge56" class="edge"><title>Node17&#45;&gt;Node6</title>
<path style="fill:none;stroke:midnightblue;" d="M727,-169C767,-161 824,-148 872,-132 912,-118 956,-95 983,-81"/>
<polygon style="fill:midnightblue;stroke:midnightblue;" points="984.958,-83.916 992,-76 981.559,-77.7969 984.958,-83.916"/>
</g>
<!-- Node17&#45;&gt;Node7 -->
<g id="edge58" class="edge"><title>Node17&#45;&gt;Node7</title>
<path style="fill:none;stroke:midnightblue;" d="M685,-168C697,-155 718,-131 737,-112 764,-82 796,-47 816,-27"/>
<polygon style="fill:midnightblue;stroke:midnightblue;" points="818.404,-29.546 823,-20 813.454,-24.5962 818.404,-29.546"/>
</g>
<!-- Node17&#45;&gt;Node9 -->
<g id="edge66" class="edge"><title>Node17&#45;&gt;Node9</title>
<path style="fill:none;stroke:midnightblue;" d="M625,-169C622,-169 619,-168 616,-168 486,-149 442,-186 323,-132 299,-121 277,-99 264,-84"/>
<polygon style="fill:midnightblue;stroke:midnightblue;" points="266.219,-81.221 257,-76 260.951,-85.8306 266.219,-81.221"/>
</g>
<!-- Node17&#45;&gt;Node13 -->
<g id="edge62" class="edge"><title>Node17&#45;&gt;Node13</title>
<path style="fill:none;stroke:midnightblue;" d="M696,-168C713,-159 739,-146 759,-136"/>
<polygon style="fill:midnightblue;stroke:midnightblue;" points="760.283,-139.26 768,-132 757.44,-132.863 760.283,-139.26"/>
</g>
<!-- Node17&#45;&gt;Node16 -->
<g id="edge64" class="edge"><title>Node17&#45;&gt;Node16</title>
<path style="fill:none;stroke:midnightblue;" d="M727,-176C896,-168 1426,-143 1461,-132 1494,-122 1528,-98 1549,-82"/>
<polygon style="fill:midnightblue;stroke:midnightblue;" points="1551.1,-84.8 1557,-76 1546.9,-79.2 1551.1,-84.8"/>
</g>
<!-- Node18&#45;&gt;Node3 -->
<g id="edge74" class="edge"><title>Node18&#45;&gt;Node3</title>
<path style="fill:none;stroke:midnightblue;" d="M554,-168C551,-149 547,-110 543,-86"/>
<polygon style="fill:midnightblue;stroke:midnightblue;" points="546.478,-85.6021 542,-76 539.512,-86.2987 546.478,-85.6021"/>
</g>
<!-- Node18&#45;&gt;Node6 -->
<g id="edge70" class="edge"><title>Node18&#45;&gt;Node6</title>
<path style="fill:none;stroke:midnightblue;" d="M607,-169C610,-169 613,-168 616,-168 715,-151 744,-166 839,-132 855,-126 856,-119 872,-112 904,-97 943,-84 971,-76"/>
<polygon style="fill:midnightblue;stroke:midnightblue;" points="972.427,-79.2259 981,-73 970.416,-72.5212 972.427,-79.2259"/>
</g>
<!-- Node18&#45;&gt;Node7 -->
<g id="edge72" class="edge"><title>Node18&#45;&gt;Node7</title>
<path style="fill:none;stroke:midnightblue;" d="M571,-168C617,-140 750,-59 806,-25"/>
<polygon style="fill:midnightblue;stroke:midnightblue;" points="807.958,-27.916 815,-20 804.559,-21.7969 807.958,-27.916"/>
</g>
<!-- Node18&#45;&gt;Node9 -->
<g id="edge80" class="edge"><title>Node18&#45;&gt;Node9</title>
<path style="fill:none;stroke:midnightblue;" d="M503,-170C428,-158 299,-138 290,-132 274,-121 263,-101 256,-86"/>
<polygon style="fill:midnightblue;stroke:midnightblue;" points="258.964,-83.9849 252,-76 252.464,-86.5847 258.964,-83.9849"/>
</g>
<!-- Node18&#45;&gt;Node13 -->
<g id="edge76" class="edge"><title>Node18&#45;&gt;Node13</title>
<path style="fill:none;stroke:midnightblue;" d="M597,-168C636,-159 694,-144 736,-134"/>
<polygon style="fill:midnightblue;stroke:midnightblue;" points="736.881,-137.393 746,-132 735.508,-130.529 736.881,-137.393"/>
</g>
<!-- Node18&#45;&gt;Node16 -->
<g id="edge78" class="edge"><title>Node18&#45;&gt;Node16</title>
<path style="fill:none;stroke:midnightblue;" d="M607,-169C610,-168 613,-168 616,-168 795,-149 1255,-184 1428,-132 1444,-127 1445,-119 1461,-112 1484,-100 1512,-88 1533,-80"/>
<polygon style="fill:midnightblue;stroke:midnightblue;" points="1534.28,-83.2598 1542,-76 1531.44,-76.8631 1534.28,-83.2598"/>
</g>
<!-- Node19&#45;&gt;Node3 -->
<g id="edge88" class="edge"><title>Node19&#45;&gt;Node3</title>
<path style="fill:none;stroke:midnightblue;" d="M885,-224C823,-195 644,-113 572,-80"/>
<polygon style="fill:midnightblue;stroke:midnightblue;" points="572.585,-76.4643 562,-76 569.985,-82.9636 572.585,-76.4643"/>
</g>
<!-- Node19&#45;&gt;Node7 -->
<g id="edge86" class="edge"><title>Node19&#45;&gt;Node7</title>
<path style="fill:none;stroke:midnightblue;" d="M905,-224C900,-196 884,-117 858,-56 854,-47 848,-37 843,-29"/>
<polygon style="fill:midnightblue;stroke:midnightblue;" points="845.916,-27.0418 838,-20 839.797,-30.4414 845.916,-27.0418"/>
</g>
<!-- Node19&#45;&gt;Node9 -->
<g id="edge114" class="edge"><title>Node19&#45;&gt;Node9</title>
<path style="fill:none;stroke:midnightblue;" d="M854,-229C758,-220 561,-200 494,-188 442,-178 304,-168 267,-132 255,-120 251,-101 249,-86"/>
<polygon style="fill:midnightblue;stroke:midnightblue;" points="252.5,-86 249,-76 245.5,-86 252.5,-86"/>
</g>
<!-- Node19&#45;&gt;Node14 -->
<g id="edge84" class="edge"><title>Node19&#45;&gt;Node14</title>
<path style="fill:none;stroke:midnightblue;" d="M903,-224C890,-197 857,-121 841,-85"/>
<polygon style="fill:midnightblue;stroke:midnightblue;" points="844.26,-83.7166 837,-76 837.863,-86.5596 844.26,-83.7166"/>
</g>
<!-- Node20 -->
<g id="node65" class="node"><title>Node20</title>
<a xlink:href="parameterized_8h.html" target="_top" xlink:title="ltr/interfaces/parameterized.h">
<polygon style="fill:white;stroke:black;" points="935,-168 935,-188 1077,-188 1077,-168 935,-168"/>
<text text-anchor="middle" x="1006" y="-175" style="font-family:Arial;font-size:10.00;">ltr/interfaces/parameterized.h</text>
</a>
</g>
<!-- Node19&#45;&gt;Node20 -->
<g id="edge90" class="edge"><title>Node19&#45;&gt;Node20</title>
<path style="fill:none;stroke:midnightblue;" d="M925,-224C940,-216 962,-203 979,-193"/>
<polygon style="fill:midnightblue;stroke:midnightblue;" points="980.958,-195.916 988,-188 977.559,-189.797 980.958,-195.916"/>
</g>
<!-- Node20&#45;&gt;Node6 -->
<g id="edge92" class="edge"><title>Node20&#45;&gt;Node6</title>
<path style="fill:none;stroke:midnightblue;" d="M1011,-168C1015,-159 1021,-145 1024,-132 1026,-116 1023,-99 1018,-85"/>
<polygon style="fill:midnightblue;stroke:midnightblue;" points="1021.48,-84.38 1015,-76 1014.84,-86.5937 1021.48,-84.38"/>
</g>
<!-- Node20&#45;&gt;Node7 -->
<g id="edge94" class="edge"><title>Node20&#45;&gt;Node7</title>
<path style="fill:none;stroke:midnightblue;" d="M998,-168C979,-146 934,-94 891,-56 879,-46 865,-35 854,-26"/>
<polygon style="fill:midnightblue;stroke:midnightblue;" points="856.1,-23.2 846,-20 851.9,-28.8 856.1,-23.2"/>
</g>
<!-- Node21 -->
<g id="node69" class="node"><title>Node21</title>
<a xlink:href="parameters__container_8h.html" target="_top" xlink:title="ltr/parameters_container/parameters_container.h">
<polygon style="fill:white;stroke:black;" points="1195,-112 1195,-132 1420,-132 1420,-112 1195,-112"/>
<text text-anchor="middle" x="1307" y="-119" style="font-family:Arial;font-size:10.00;">ltr/parameters_container/parameters_container.h</text>
</a>
</g>
<!-- Node20&#45;&gt;Node21 -->
<g id="edge96" class="edge"><title>Node20&#45;&gt;Node21</title>
<path style="fill:none;stroke:midnightblue;" d="M1060,-168C1111,-159 1189,-144 1243,-134"/>
<polygon style="fill:midnightblue;stroke:midnightblue;" points="1243.88,-137.393 1253,-132 1242.51,-130.529 1243.88,-137.393"/>
</g>
<!-- Node21&#45;&gt;Node6 -->
<g id="edge102" class="edge"><title>Node21&#45;&gt;Node6</title>
<path style="fill:none;stroke:midnightblue;" d="M1254,-112C1195,-101 1102,-83 1050,-74"/>
<polygon style="fill:midnightblue;stroke:midnightblue;" points="1050.49,-70.5292 1040,-72 1049.12,-77.3933 1050.49,-70.5292"/>
</g>
<!-- Node21&#45;&gt;Node7 -->
<g id="edge104" class="edge"><title>Node21&#45;&gt;Node7</title>
<path style="fill:none;stroke:midnightblue;" d="M1257,-112C1219,-104 1168,-92 1124,-76 1104,-68 1101,-62 1081,-56 1004,-31 910,-18 862,-13"/>
<polygon style="fill:midnightblue;stroke:midnightblue;" points="862.299,-9.5125 852,-12 861.602,-16.4778 862.299,-9.5125"/>
</g>
<!-- Node21&#45;&gt;Node9 -->
<g id="edge110" class="edge"><title>Node21&#45;&gt;Node9</title>
<path style="fill:none;stroke:midnightblue;" d="M1195,-116C973,-104 488,-79 313,-70"/>
<polygon style="fill:midnightblue;stroke:midnightblue;" points="313.299,-66.5125 303,-69 312.602,-73.4778 313.299,-66.5125"/>
</g>
<!-- Node21&#45;&gt;Node16 -->
<g id="edge112" class="edge"><title>Node21&#45;&gt;Node16</title>
<path style="fill:none;stroke:midnightblue;" d="M1354,-112C1398,-103 1464,-88 1512,-78"/>
<polygon style="fill:midnightblue;stroke:midnightblue;" points="1512.88,-81.3933 1522,-76 1511.51,-74.5292 1512.88,-81.3933"/>
</g>
<!-- Node22 -->
<g id="node71" class="node"><title>Node22</title>
<polygon style="fill:white;stroke:#bfbfbf;" points="1373,-56 1373,-76 1447,-76 1447,-56 1373,-56"/>
<text text-anchor="middle" x="1410" y="-63" style="font-family:Arial;font-size:10.00;">logog/logog.h</text>
</g>
<!-- Node21&#45;&gt;Node22 -->
<g id="edge98" class="edge"><title>Node21&#45;&gt;Node22</title>
<path style="fill:none;stroke:midnightblue;" d="M1325,-112C1341,-104 1364,-91 1382,-81"/>
<polygon style="fill:midnightblue;stroke:midnightblue;" points="1383.96,-83.916 1391,-76 1380.56,-77.7969 1383.96,-83.916"/>
</g>
<!-- Node23 -->
<g id="node73" class="node"><title>Node23</title>
<polygon style="fill:white;stroke:#bfbfbf;" points="1465,-56 1465,-76 1494,-76 1494,-56 1465,-56"/>
<text text-anchor="middle" x="1479" y="-63" style="font-family:Arial;font-size:10.00;">list</text>
</g>
<!-- Node21&#45;&gt;Node23 -->
<g id="edge100" class="edge"><title>Node21&#45;&gt;Node23</title>
<path style="fill:none;stroke:midnightblue;" d="M1344,-112C1372,-104 1412,-92 1455,-76"/>
<polygon style="fill:midnightblue;stroke:midnightblue;" points="1457.02,-78.9636 1465,-72 1454.42,-72.4643 1457.02,-78.9636"/>
</g>
<!-- Node24 -->
<g id="node77" class="node"><title>Node24</title>
<polygon style="fill:white;stroke:#bfbfbf;" points="1133,-56 1133,-76 1210,-76 1210,-56 1133,-56"/>
<text text-anchor="middle" x="1171" y="-63" style="font-family:Arial;font-size:10.00;">boost/any.hpp</text>
</g>
<!-- Node21&#45;&gt;Node24 -->
<g id="edge106" class="edge"><title>Node21&#45;&gt;Node24</title>
<path style="fill:none;stroke:midnightblue;" d="M1283,-112C1261,-103 1229,-90 1205,-80"/>
<polygon style="fill:midnightblue;stroke:midnightblue;" points="1206.56,-76.8631 1196,-76 1203.72,-83.2598 1206.56,-76.8631"/>
</g>
<!-- Node25 -->
<g id="node79" class="node"><title>Node25</title>
<polygon style="fill:white;stroke:#bfbfbf;" points="1227,-56 1227,-76 1356,-76 1356,-56 1227,-56"/>
<text text-anchor="middle" x="1291" y="-63" style="font-family:Arial;font-size:10.00;">boost/unordered_map.hpp</text>
</g>
<!-- Node21&#45;&gt;Node25 -->
<g id="edge108" class="edge"><title>Node21&#45;&gt;Node25</title>
<path style="fill:none;stroke:midnightblue;" d="M1304,-112C1303,-105 1300,-95 1297,-86"/>
<polygon style="fill:midnightblue;stroke:midnightblue;" points="1300.23,-84.5725 1294,-76 1293.52,-86.584 1300.23,-84.5725"/>
</g>
<!-- Node26&#45;&gt;Node9 -->
<g id="edge126" class="edge"><title>Node26&#45;&gt;Node9</title>
<path style="fill:none;stroke:midnightblue;" d="M637,-230C512,-221 266,-196 214,-132 202,-117 216,-97 230,-83"/>
<polygon style="fill:midnightblue;stroke:midnightblue;" points="232.404,-85.546 237,-76 227.454,-80.5962 232.404,-85.546"/>
</g>
<!-- Node26&#45;&gt;Node13 -->
<g id="edge118" class="edge"><title>Node26&#45;&gt;Node13</title>
<path style="fill:none;stroke:midnightblue;" d="M717,-224C730,-204 759,-165 775,-140"/>
<polygon style="fill:midnightblue;stroke:midnightblue;" points="777.8,-142.1 781,-132 772.2,-137.9 777.8,-142.1"/>
</g>
<!-- Node26&#45;&gt;Node17 -->
<g id="edge122" class="edge"><title>Node26&#45;&gt;Node17</title>
<path style="fill:none;stroke:midnightblue;" d="M704,-224C700,-217 693,-206 687,-197"/>
<polygon style="fill:midnightblue;stroke:midnightblue;" points="689.916,-195.042 682,-188 683.797,-198.441 689.916,-195.042"/>
</g>
<!-- Node26&#45;&gt;Node18 -->
<g id="edge120" class="edge"><title>Node26&#45;&gt;Node18</title>
<path style="fill:none;stroke:midnightblue;" d="M682,-224C657,-215 620,-201 593,-191"/>
<polygon style="fill:midnightblue;stroke:midnightblue;" points="593.584,-187.521 583,-188 591.573,-194.226 593.584,-187.521"/>
</g>
<!-- Node26&#45;&gt;Node20 -->
<g id="edge124" class="edge"><title>Node26&#45;&gt;Node20</title>
<path style="fill:none;stroke:midnightblue;" d="M763,-224C814,-215 889,-200 943,-190"/>
<polygon style="fill:midnightblue;stroke:midnightblue;" points="943.881,-193.393 953,-188 942.508,-186.529 943.881,-193.393"/>
</g>
<!-- Node27&#45;&gt;Node7 -->
<g id="edge130" class="edge"><title>Node27&#45;&gt;Node7</title>
<path style="fill:none;stroke:midnightblue;" d="M1158,-224C1149,-192 1116,-93 1048,-56 1015,-38 914,-21 862,-14"/>
<polygon style="fill:midnightblue;stroke:midnightblue;" points="862.299,-10.5125 852,-13 861.602,-17.4778 862.299,-10.5125"/>
</g>
<!-- Node28&#45;&gt;Node3 -->
<g id="edge136" class="edge"><title>Node28&#45;&gt;Node3</title>
<path style="fill:none;stroke:midnightblue;" d="M904,-338C725,-323 368,-287 333,-244 282,-182 246,-304 466,-132 485,-116 507,-96 522,-83"/>
<polygon style="fill:midnightblue;stroke:midnightblue;" points="524.779,-85.2191 530,-76 520.169,-79.9511 524.779,-85.2191"/>
</g>
<!-- Node28&#45;&gt;Node7 -->
<g id="edge134" class="edge"><title>Node28&#45;&gt;Node7</title>
<path style="fill:none;stroke:midnightblue;" d="M1108,-340C1184,-333 1290,-322 1381,-300 1451,-283 1478,-289 1534,-244 1607,-183 1701,-125 1636,-56 1609,-27 1007,-14 862,-10"/>
<polygon style="fill:midnightblue;stroke:midnightblue;" points="862,-6.5001 852,-10 862,-13.5001 862,-6.5001"/>
</g>
<!-- Node28&#45;&gt;Node9 -->
<g id="edge138" class="edge"><title>Node28&#45;&gt;Node9</title>
<path style="fill:none;stroke:midnightblue;" d="M904,-341C764,-334 521,-319 435,-300 311,-271 246,-251 206,-132 204,-123 203,-120 206,-112 211,-101 219,-91 228,-83"/>
<polygon style="fill:midnightblue;stroke:midnightblue;" points="230.404,-85.546 235,-76 225.454,-80.5962 230.404,-85.546"/>
</g>
<!-- Node28&#45;&gt;Node12 -->
<g id="edge140" class="edge"><title>Node28&#45;&gt;Node12</title>
<path style="fill:none;stroke:midnightblue;" d="M944,-336C881,-326 781,-310 718,-300"/>
<polygon style="fill:midnightblue;stroke:midnightblue;" points="718.492,-296.529 708,-298 717.119,-303.393 718.492,-296.529"/>
</g>
<!-- Node28&#45;&gt;Node16 -->
<g id="edge146" class="edge"><title>Node28&#45;&gt;Node16</title>
<path style="fill:none;stroke:midnightblue;" d="M1092,-336C1239,-318 1523,-277 1523,-234 1523,-234 1523,-234 1523,-178 1523,-143 1543,-106 1556,-84"/>
<polygon style="fill:midnightblue;stroke:midnightblue;" points="1558.8,-86.1 1562,-76 1553.2,-81.9 1558.8,-86.1"/>
</g>
<!-- Node28&#45;&gt;Node20 -->
<g id="edge144" class="edge"><title>Node28&#45;&gt;Node20</title>
<path style="fill:none;stroke:midnightblue;" d="M1006,-336C1006,-309 1006,-235 1006,-198"/>
<polygon style="fill:midnightblue;stroke:midnightblue;" points="1009.5,-198 1006,-188 1002.5,-198 1009.5,-198"/>
</g>
<!-- Node28&#45;&gt;Node21 -->
<g id="edge148" class="edge"><title>Node28&#45;&gt;Node21</title>
<path style="fill:none;stroke:midnightblue;" d="M1041,-336C1087,-322 1168,-291 1224,-244 1258,-214 1284,-167 1298,-141"/>
<polygon style="fill:midnightblue;stroke:midnightblue;" points="1301.14,-142.56 1302,-132 1294.74,-139.717 1301.14,-142.56"/>
</g>
<!-- Node28&#45;&gt;Node27 -->
<g id="edge142" class="edge"><title>Node28&#45;&gt;Node27</title>
<path style="fill:none;stroke:midnightblue;" d="M1020,-336C1047,-316 1106,-274 1139,-250"/>
<polygon style="fill:midnightblue;stroke:midnightblue;" points="1141.1,-252.8 1147,-244 1136.9,-247.2 1141.1,-252.8"/>
</g>
<!-- Node29&#45;&gt;Node3 -->
<g id="edge154" class="edge"><title>Node29&#45;&gt;Node3</title>
<path style="fill:none;stroke:midnightblue;" d="M407,-112C436,-102 481,-87 510,-76"/>
<polygon style="fill:midnightblue;stroke:midnightblue;" points="511.427,-79.2259 520,-73 509.416,-72.5212 511.427,-79.2259"/>
</g>
<!-- Node29&#45;&gt;Node7 -->
<g id="edge152" class="edge"><title>Node29&#45;&gt;Node7</title>
<path style="fill:none;stroke:midnightblue;" d="M394,-112C418,-97 466,-69 511,-56 614,-24 744,-14 802,-11"/>
<polygon style="fill:midnightblue;stroke:midnightblue;" points="802,-14.5001 812,-11 802,-7.5001 802,-14.5001"/>
</g>
<!-- Node29&#45;&gt;Node9 -->
<g id="edge156" class="edge"><title>Node29&#45;&gt;Node9</title>
<path style="fill:none;stroke:midnightblue;" d="M355,-112C335,-103 305,-90 282,-80"/>
<polygon style="fill:midnightblue;stroke:midnightblue;" points="282.585,-76.4643 272,-76 279.985,-82.9636 282.585,-76.4643"/>
</g>
</g>
</svg>
