<?xml version="1.0" encoding="UTF-8" standalone="no"?>
<!DOCTYPE svg PUBLIC "-//W3C//DTD SVG 1.0//EN"
 "http://www.w3.org/TR/2001/REC-SVG-20010904/DTD/svg10.dtd" [
 <!ATTLIST svg xmlns:xlink CDATA #FIXED "http://www.w3.org/1999/xlink">
]>
<!-- Generated by Graphviz version 2.20.2 (Tue Mar &#160;2 19:03:41 UTC 2010)
     For user: (jenkins)  -->
<!-- Title: G Pages: 1 -->
<svg width="372pt" height="84pt"
 viewBox="0.00 0.00 372.00 84.00" xmlns="http://www.w3.org/2000/svg" xmlns:xlink="http://www.w3.org/1999/xlink">
<g id="graph0" class="graph" transform="scale(1 1) rotate(0) translate(4 80)">
<title>G</title>
<polygon style="fill:white;stroke:white;" points="-4,4 -4,-80 368,-80 368,4 -4,4"/>
<!-- Node1 -->
<g id="node1" class="node"><title>Node1</title>
<polygon style="fill:#bfbfbf;stroke:black;" points="24,-56 24,-76 190,-76 190,-56 24,-56"/>
<text text-anchor="middle" x="107" y="-63" style="font-family:Arial;font-size:10.00;">ltr/data/utility/data_set_statistics.h</text>
</g>
<!-- Node2 -->
<g id="node3" class="node"><title>Node2</title>
<polygon style="fill:white;stroke:#bfbfbf;" points="0,-0 0,-20 42,-20 42,-0 0,-0"/>
<text text-anchor="middle" x="21" y="-7" style="font-family:Arial;font-size:10.00;">vector</text>
</g>
<!-- Node1&#45;&gt;Node2 -->
<g id="edge2" class="edge"><title>Node1&#45;&gt;Node2</title>
<path style="fill:none;stroke:midnightblue;" d="M92,-56C79,-48 60,-35 45,-26"/>
<polygon style="fill:midnightblue;stroke:midnightblue;" points="47.1,-23.2 37,-20 42.9,-28.8 47.1,-23.2"/>
</g>
<!-- Node3 -->
<g id="node5" class="node"><title>Node3</title>
<polygon style="fill:white;stroke:#bfbfbf;" points="60,-0 60,-20 155,-20 155,-0 60,-0"/>
<text text-anchor="middle" x="107" y="-7" style="font-family:Arial;font-size:10.00;">ltr/data/data_set.h</text>
</g>
<!-- Node1&#45;&gt;Node3 -->
<g id="edge4" class="edge"><title>Node1&#45;&gt;Node3</title>
<path style="fill:none;stroke:midnightblue;" d="M107,-56C107,-49 107,-39 107,-30"/>
<polygon style="fill:midnightblue;stroke:midnightblue;" points="110.5,-30 107,-20 103.5,-30 110.5,-30"/>
</g>
<!-- Node4 -->
<g id="node7" class="node"><title>Node4</title>
<polygon style="fill:white;stroke:#bfbfbf;" points="172,-0 172,-20 364,-20 364,-0 172,-0"/>
<text text-anchor="middle" x="268" y="-7" style="font-family:Arial;font-size:10.00;">ltr/data/utility/data_set_label_statistics.h</text>
</g>
<!-- Node1&#45;&gt;Node4 -->
<g id="edge6" class="edge"><title>Node1&#45;&gt;Node4</title>
<path style="fill:none;stroke:midnightblue;" d="M136,-56C162,-47 201,-33 229,-23"/>
<polygon style="fill:midnightblue;stroke:midnightblue;" points="230.427,-26.2259 239,-20 228.416,-19.5212 230.427,-26.2259"/>
</g>
</g>
</svg>
