<?xml version="1.0" encoding="UTF-8" standalone="no"?>
<!DOCTYPE svg PUBLIC "-//W3C//DTD SVG 1.0//EN"
 "http://www.w3.org/TR/2001/REC-SVG-20010904/DTD/svg10.dtd" [
 <!ATTLIST svg xmlns:xlink CDATA #FIXED "http://www.w3.org/1999/xlink">
]>
<!-- Generated by Graphviz version 2.20.2 (Tue Mar &#160;2 19:03:41 UTC 2010)
     For user: (jenkins)  -->
<!-- Title: G Pages: 1 -->
<svg width="4018pt" height="196pt"
 viewBox="0.00 0.00 4018.00 196.00" xmlns="http://www.w3.org/2000/svg" xmlns:xlink="http://www.w3.org/1999/xlink">
<g id="graph0" class="graph" transform="scale(1 1) rotate(0) translate(4 192)">
<title>G</title>
<polygon style="fill:white;stroke:white;" points="-4,4 -4,-192 4014,-192 4014,4 -4,4"/>
<!-- Node1 -->
<g id="node1" class="node"><title>Node1</title>
<polygon style="fill:#bfbfbf;stroke:black;" points="3438,-168 3438,-188 3642,-188 3642,-168 3438,-168"/>
<text text-anchor="middle" x="3540" y="-175" style="font-family:Arial;font-size:10.00;">ltr/data_preprocessors/data_preprocessor.h</text>
</g>
<!-- Node2 -->
<g id="node3" class="node"><title>Node2</title>
<a xlink:href="learner_8h.html" target="_top" xlink:title="ltr/learners/learner.h">
<polygon style="fill:white;stroke:black;" points="2145,-112 2145,-132 2247,-132 2247,-112 2145,-112"/>
<text text-anchor="middle" x="2196" y="-119" style="font-family:Arial;font-size:10.00;">ltr/learners/learner.h</text>
</a>
</g>
<!-- Node1&#45;&gt;Node2 -->
<g id="edge2" class="edge"><title>Node1&#45;&gt;Node2</title>
<path style="fill:none;stroke:midnightblue;" d="M3428,-174C3150,-162 2444,-132 2247,-124"/>
<polygon style="fill:midnightblue;stroke:midnightblue;" points="3428,-177.5 3438,-174 3428,-170.5 3428,-177.5"/>
</g>
<!-- Node30 -->
<g id="node70" class="node"><title>Node30</title>
<a xlink:href="data__random__sampler_8h.html" target="_top" xlink:title="ltr/data_preprocessors/data_random_sampler.h">
<polygon style="fill:white;stroke:black;" points="3213,-112 3213,-132 3432,-132 3432,-112 3213,-112"/>
<text text-anchor="middle" x="3322" y="-119" style="font-family:Arial;font-size:10.00;">ltr/data_preprocessors/data_random_sampler.h</text>
</a>
</g>
<!-- Node1&#45;&gt;Node30 -->
<g id="edge80" class="edge"><title>Node1&#45;&gt;Node30</title>
<path style="fill:none;stroke:midnightblue;" d="M3491,-166C3452,-156 3397,-141 3361,-132"/>
<polygon style="fill:midnightblue;stroke:midnightblue;" points="3490.51,-169.471 3501,-168 3491.88,-162.607 3490.51,-169.471"/>
</g>
<!-- Node32 -->
<g id="node74" class="node"><title>Node32</title>
<a xlink:href="data__preprocessors__unittest_8cc.html" target="_top" xlink:title="ltr/data_preprocessors/data_preprocessors_unittest.cc">
<polygon style="fill:white;stroke:black;" points="3633,-56 3633,-76 3885,-76 3885,-56 3633,-56"/>
<text text-anchor="middle" x="3759" y="-63" style="font-family:Arial;font-size:10.00;">ltr/data_preprocessors/data_preprocessors_unittest.cc</text>
</a>
</g>
<!-- Node1&#45;&gt;Node32 -->
<g id="edge94" class="edge"><title>Node1&#45;&gt;Node32</title>
<path style="fill:none;stroke:midnightblue;" d="M3652,-170C3747,-163 3869,-149 3884,-132 3908,-104 3861,-86 3817,-76"/>
<polygon style="fill:midnightblue;stroke:midnightblue;" points="3651.6,-166.522 3642,-171 3652.3,-173.488 3651.6,-166.522"/>
</g>
<!-- Node33 -->
<g id="node77" class="node"><title>Node33</title>
<a xlink:href="data__sampler_8h.html" target="_top" xlink:title="ltr/data_preprocessors/data_sampler.h">
<polygon style="fill:white;stroke:black;" points="3449,-112 3449,-132 3631,-132 3631,-112 3449,-112"/>
<text text-anchor="middle" x="3540" y="-119" style="font-family:Arial;font-size:10.00;">ltr/data_preprocessors/data_sampler.h</text>
</a>
</g>
<!-- Node1&#45;&gt;Node33 -->
<g id="edge88" class="edge"><title>Node1&#45;&gt;Node33</title>
<path style="fill:none;stroke:midnightblue;" d="M3540,-158C3540,-149 3540,-140 3540,-132"/>
<polygon style="fill:midnightblue;stroke:midnightblue;" points="3536.5,-158 3540,-168 3543.5,-158 3536.5,-158"/>
</g>
<!-- Node34 -->
<g id="node82" class="node"><title>Node34</title>
<a xlink:href="fake__data__preprocessor_8h.html" target="_top" xlink:title="ltr/data_preprocessors/fake_data_preprocessor.h">
<polygon style="fill:white;stroke:black;" points="3649,-112 3649,-132 3876,-132 3876,-112 3649,-112"/>
<text text-anchor="middle" x="3762" y="-119" style="font-family:Arial;font-size:10.00;">ltr/data_preprocessors/fake_data_preprocessor.h</text>
</a>
</g>
<!-- Node1&#45;&gt;Node34 -->
<g id="edge96" class="edge"><title>Node1&#45;&gt;Node34</title>
<path style="fill:none;stroke:midnightblue;" d="M3590,-166C3630,-156 3685,-141 3722,-132"/>
<polygon style="fill:midnightblue;stroke:midnightblue;" points="3589.12,-162.607 3580,-168 3590.49,-169.471 3589.12,-162.607"/>
</g>
<!-- Node3 -->
<g id="node5" class="node"><title>Node3</title>
<a xlink:href="crossvalidation_8h.html" target="_top" xlink:title="ltr/crossvalidation/crossvalidation.h">
<polygon style="fill:white;stroke:black;" points="2945,-56 2945,-76 3111,-76 3111,-56 2945,-56"/>
<text text-anchor="middle" x="3028" y="-63" style="font-family:Arial;font-size:10.00;">ltr/crossvalidation/crossvalidation.h</text>
</a>
</g>
<!-- Node2&#45;&gt;Node3 -->
<g id="edge4" class="edge"><title>Node2&#45;&gt;Node3</title>
<path style="fill:none;stroke:midnightblue;" d="M2257,-119C2384,-113 2684,-97 2936,-76 2939,-76 2942,-75 2945,-75"/>
<polygon style="fill:midnightblue;stroke:midnightblue;" points="2256.6,-115.522 2247,-120 2257.3,-122.488 2256.6,-115.522"/>
</g>
<!-- Node5 -->
<g id="node9" class="node"><title>Node5</title>
<a xlink:href="crossvalidation__result_8h.html" target="_top" xlink:title="ltr/crossvalidation/crossvalidation_result.h">
<polygon style="fill:white;stroke:black;" points="2733,-56 2733,-76 2928,-76 2928,-56 2733,-56"/>
<text text-anchor="middle" x="2830" y="-63" style="font-family:Arial;font-size:10.00;">ltr/crossvalidation/crossvalidation_result.h</text>
</a>
</g>
<!-- Node2&#45;&gt;Node5 -->
<g id="edge8" class="edge"><title>Node2&#45;&gt;Node5</title>
<path style="fill:none;stroke:midnightblue;" d="M2257,-117C2356,-109 2555,-91 2724,-76 2727,-76 2730,-75 2733,-75"/>
<polygon style="fill:midnightblue;stroke:midnightblue;" points="2256.6,-113.522 2247,-118 2257.3,-120.488 2256.6,-113.522"/>
</g>
<!-- Node6 -->
<g id="node11" class="node"><title>Node6</title>
<a xlink:href="best__feature__learner_8h.html" target="_top" xlink:title="ltr/learners/best_feature_learner/best_feature_learner.h">
<polygon style="fill:white;stroke:black;" points="2465,-56 2465,-76 2716,-76 2716,-56 2465,-56"/>
<text text-anchor="middle" x="2590" y="-63" style="font-family:Arial;font-size:10.00;">ltr/learners/best_feature_learner/best_feature_learner.h</text>
</a>
</g>
<!-- Node2&#45;&gt;Node6 -->
<g id="edge10" class="edge"><title>Node2&#45;&gt;Node6</title>
<path style="fill:none;stroke:midnightblue;" d="M2257,-114C2329,-103 2446,-86 2520,-76"/>
<polygon style="fill:midnightblue;stroke:midnightblue;" points="2256.6,-110.522 2247,-115 2257.3,-117.488 2256.6,-110.522"/>
</g>
<!-- Node11 -->
<g id="node22" class="node"><title>Node11</title>
<a xlink:href="crossvalidator_8h.html" target="_top" xlink:title="ltr/crossvalidation/crossvalidator.h">
<polygon style="fill:white;stroke:black;" points="502,-56 502,-76 663,-76 663,-56 502,-56"/>
<text text-anchor="middle" x="582" y="-63" style="font-family:Arial;font-size:10.00;">ltr/crossvalidation/crossvalidator.h</text>
</a>
</g>
<!-- Node2&#45;&gt;Node11 -->
<g id="edge22" class="edge"><title>Node2&#45;&gt;Node11</title>
<path style="fill:none;stroke:midnightblue;" d="M2135,-120C1885,-111 947,-79 663,-69"/>
<polygon style="fill:midnightblue;stroke:midnightblue;" points="2135,-123.5 2145,-120 2135,-116.5 2135,-123.5"/>
</g>
<!-- Node13 -->
<g id="node26" class="node"><title>Node13</title>
<a xlink:href="bayesian__learner_8h.html" target="_top" xlink:title="ltr/learners/bayesian_learner/bayesian_learner.h">
<polygon style="fill:white;stroke:black;" points="1085,-56 1085,-76 1307,-76 1307,-56 1085,-56"/>
<text text-anchor="middle" x="1196" y="-63" style="font-family:Arial;font-size:10.00;">ltr/learners/bayesian_learner/bayesian_learner.h</text>
</a>
</g>
<!-- Node2&#45;&gt;Node13 -->
<g id="edge26" class="edge"><title>Node2&#45;&gt;Node13</title>
<path style="fill:none;stroke:midnightblue;" d="M2135,-120C1991,-113 1622,-96 1316,-76 1313,-76 1310,-76 1307,-75"/>
<polygon style="fill:midnightblue;stroke:midnightblue;" points="2135,-123.5 2145,-120 2135,-116.5 2135,-123.5"/>
</g>
<!-- Node15 -->
<g id="node31" class="node"><title>Node15</title>
<a xlink:href="composition__learner_8h.html" target="_top" xlink:title="ltr/learners/composition_learner/composition_learner.h">
<polygon style="fill:white;stroke:black;" points="2199,-56 2199,-76 2448,-76 2448,-56 2199,-56"/>
<text text-anchor="middle" x="2323" y="-63" style="font-family:Arial;font-size:10.00;">ltr/learners/composition_learner/composition_learner.h</text>
</a>
</g>
<!-- Node2&#45;&gt;Node15 -->
<g id="edge32" class="edge"><title>Node2&#45;&gt;Node15</title>
<path style="fill:none;stroke:midnightblue;" d="M2228,-108C2251,-98 2280,-85 2300,-76"/>
<polygon style="fill:midnightblue;stroke:midnightblue;" points="2226.72,-104.74 2219,-112 2229.56,-111.137 2226.72,-104.74"/>
</g>
<!-- Node16 -->
<g id="node36" class="node"><title>Node16</title>
<a xlink:href="decision__tree__learner_8h.html" target="_top" xlink:title="ltr/learners/decision_tree/decision_tree_learner.h">
<polygon style="fill:white;stroke:black;" points="1325,-56 1325,-76 1550,-76 1550,-56 1325,-56"/>
<text text-anchor="middle" x="1437" y="-63" style="font-family:Arial;font-size:10.00;">ltr/learners/decision_tree/decision_tree_learner.h</text>
</a>
</g>
<!-- Node2&#45;&gt;Node16 -->
<g id="edge40" class="edge"><title>Node2&#45;&gt;Node16</title>
<path style="fill:none;stroke:midnightblue;" d="M2135,-117C2020,-110 1769,-92 1558,-76 1555,-76 1553,-76 1550,-75"/>
<polygon style="fill:midnightblue;stroke:midnightblue;" points="2134.7,-120.488 2145,-118 2135.4,-113.522 2134.7,-120.488"/>
</g>
<!-- Node19 -->
<g id="node43" class="node"><title>Node19</title>
<a xlink:href="gp__learner_8h.html" target="_top" xlink:title="ltr/learners/gp_learner/gp_learner.h">
<polygon style="fill:white;stroke:black;" points="1567,-56 1567,-76 1732,-76 1732,-56 1567,-56"/>
<text text-anchor="middle" x="1649" y="-63" style="font-family:Arial;font-size:10.00;">ltr/learners/gp_learner/gp_learner.h</text>
</a>
</g>
<!-- Node2&#45;&gt;Node19 -->
<g id="edge48" class="edge"><title>Node2&#45;&gt;Node19</title>
<path style="fill:none;stroke:midnightblue;" d="M2135,-116C2048,-108 1881,-90 1740,-76 1737,-76 1735,-75 1732,-75"/>
<polygon style="fill:midnightblue;stroke:midnightblue;" points="2134.7,-119.488 2145,-117 2135.4,-112.522 2134.7,-119.488"/>
</g>
<!-- Node22 -->
<g id="node50" class="node"><title>Node22</title>
<a xlink:href="linear__learner_8h.html" target="_top" xlink:title="ltr/learners/linear_learner/linear_learner.h">
<polygon style="fill:white;stroke:black;" points="1749,-56 1749,-76 1940,-76 1940,-56 1749,-56"/>
<text text-anchor="middle" x="1844" y="-63" style="font-family:Arial;font-size:10.00;">ltr/learners/linear_learner/linear_learner.h</text>
</a>
</g>
<!-- Node2&#45;&gt;Node22 -->
<g id="edge56" class="edge"><title>Node2&#45;&gt;Node22</title>
<path style="fill:none;stroke:midnightblue;" d="M2135,-112C2071,-102 1972,-86 1907,-76"/>
<polygon style="fill:midnightblue;stroke:midnightblue;" points="2134.51,-115.471 2145,-114 2135.88,-108.607 2134.51,-115.471"/>
</g>
<!-- Node25 -->
<g id="node58" class="node"><title>Node25</title>
<a xlink:href="nearest__neighbor__learner_8h.html" target="_top" xlink:title="ltr/learners/nearest_neighbor_learner/nearest_neighbor_learner.h">
<polygon style="fill:white;stroke:black;" points="3167,-56 3167,-76 3460,-76 3460,-56 3167,-56"/>
<text text-anchor="middle" x="3313" y="-63" style="font-family:Arial;font-size:10.00;">ltr/learners/nearest_neighbor_learner/nearest_neighbor_learner.h</text>
</a>
</g>
<!-- Node2&#45;&gt;Node25 -->
<g id="edge66" class="edge"><title>Node2&#45;&gt;Node25</title>
<path style="fill:none;stroke:midnightblue;" d="M2257,-118C2406,-111 2795,-92 3120,-76 3135,-75 3151,-74 3167,-73"/>
<polygon style="fill:midnightblue;stroke:midnightblue;" points="2256.6,-114.522 2247,-119 2257.3,-121.488 2256.6,-114.522"/>
</g>
<!-- Node28 -->
<g id="node65" class="node"><title>Node28</title>
<a xlink:href="generator__utility_8h.html" target="_top" xlink:title="ltr/serialization_test/generator/generator_utility.h">
<polygon style="fill:white;stroke:black;" points="1957,-56 1957,-76 2181,-76 2181,-56 1957,-56"/>
<text text-anchor="middle" x="2069" y="-63" style="font-family:Arial;font-size:10.00;">ltr/serialization_test/generator/generator_utility.h</text>
</a>
</g>
<!-- Node2&#45;&gt;Node28 -->
<g id="edge74" class="edge"><title>Node2&#45;&gt;Node28</title>
<path style="fill:none;stroke:midnightblue;" d="M2164,-108C2141,-98 2112,-85 2092,-76"/>
<polygon style="fill:midnightblue;stroke:midnightblue;" points="2162.44,-111.137 2173,-112 2165.28,-104.74 2162.44,-111.137"/>
</g>
<!-- Node4 -->
<g id="node7" class="node"><title>Node4</title>
<a xlink:href="crossvalidation__unittest_8cc.html" target="_top" xlink:title="ltr/crossvalidation/crossvalidation_unittest.cc">
<polygon style="fill:white;stroke:black;" points="3132,-0 3132,-20 3341,-20 3341,-0 3132,-0"/>
<text text-anchor="middle" x="3236" y="-7" style="font-family:Arial;font-size:10.00;">ltr/crossvalidation/crossvalidation_unittest.cc</text>
</a>
</g>
<!-- Node3&#45;&gt;Node4 -->
<g id="edge6" class="edge"><title>Node3&#45;&gt;Node4</title>
<path style="fill:none;stroke:midnightblue;" d="M3075,-53C3112,-43 3164,-29 3199,-20"/>
<polygon style="fill:midnightblue;stroke:midnightblue;" points="3073.57,-49.7741 3065,-56 3075.58,-56.4788 3073.57,-49.7741"/>
</g>
<!-- Node6&#45;&gt;Node4 -->
<g id="edge12" class="edge"><title>Node6&#45;&gt;Node4</title>
<path style="fill:none;stroke:midnightblue;" d="M2715,-55C2823,-46 2983,-32 3123,-20 3126,-20 3129,-19 3132,-19"/>
<polygon style="fill:midnightblue;stroke:midnightblue;" points="2714.6,-51.5222 2705,-56 2715.3,-58.4875 2714.6,-51.5222"/>
</g>
<!-- Node7 -->
<g id="node14" class="node"><title>Node7</title>
<a xlink:href="composition__learner__unittest_8cc.html" target="_top" xlink:title="ltr/learners/composition_learner/composition_learner_unittest.cc">
<polygon style="fill:white;stroke:black;" points="2518,-0 2518,-20 2811,-20 2811,-0 2518,-0"/>
<text text-anchor="middle" x="2664" y="-7" style="font-family:Arial;font-size:10.00;">ltr/learners/composition_learner/composition_learner_unittest.cc</text>
</a>
</g>
<!-- Node6&#45;&gt;Node7 -->
<g id="edge14" class="edge"><title>Node6&#45;&gt;Node7</title>
<path style="fill:none;stroke:midnightblue;" d="M2611,-50C2624,-41 2640,-29 2651,-20"/>
<polygon style="fill:midnightblue;stroke:midnightblue;" points="2608.9,-47.2 2603,-56 2613.1,-52.8 2608.9,-47.2"/>
</g>
<!-- Node8 -->
<g id="node16" class="node"><title>Node8</title>
<a xlink:href="linear__composition__unittest_8cc.html" target="_top" xlink:title="ltr/learners/composition_learner/linear_composition_unittest.cc">
<polygon style="fill:white;stroke:black;" points="2828,-0 2828,-20 3115,-20 3115,-0 2828,-0"/>
<text text-anchor="middle" x="2971" y="-7" style="font-family:Arial;font-size:10.00;">ltr/learners/composition_learner/linear_composition_unittest.cc</text>
</a>
</g>
<!-- Node6&#45;&gt;Node8 -->
<g id="edge16" class="edge"><title>Node6&#45;&gt;Node8</title>
<path style="fill:none;stroke:midnightblue;" d="M2668,-55C2738,-45 2837,-30 2903,-20"/>
<polygon style="fill:midnightblue;stroke:midnightblue;" points="2667.6,-51.5222 2658,-56 2668.3,-58.4875 2667.6,-51.5222"/>
</g>
<!-- Node9 -->
<g id="node18" class="node"><title>Node9</title>
<a xlink:href="learners__unittest_8cc.html" target="_top" xlink:title="ltr/learners/learners_unittest.cc">
<polygon style="fill:white;stroke:black;" points="2350,-0 2350,-20 2500,-20 2500,-0 2350,-0"/>
<text text-anchor="middle" x="2425" y="-7" style="font-family:Arial;font-size:10.00;">ltr/learners/learners_unittest.cc</text>
</a>
</g>
<!-- Node6&#45;&gt;Node9 -->
<g id="edge18" class="edge"><title>Node6&#45;&gt;Node9</title>
<path style="fill:none;stroke:midnightblue;" d="M2551,-53C2522,-43 2482,-29 2455,-20"/>
<polygon style="fill:midnightblue;stroke:midnightblue;" points="2550.42,-56.4788 2561,-56 2552.43,-49.7741 2550.42,-56.4788"/>
</g>
<!-- Node10 -->
<g id="node20" class="node"><title>Node10</title>
<a xlink:href="generator_8cc.html" target="_top" xlink:title="ltr/serialization_test/generator/generator.cc">
<polygon style="fill:white;stroke:black;" points="1886,-0 1886,-20 2087,-20 2087,-0 1886,-0"/>
<text text-anchor="middle" x="1986" y="-7" style="font-family:Arial;font-size:10.00;">ltr/serialization_test/generator/generator.cc</text>
</a>
</g>
<!-- Node6&#45;&gt;Node10 -->
<g id="edge20" class="edge"><title>Node6&#45;&gt;Node10</title>
<path style="fill:none;stroke:midnightblue;" d="M2472,-55C2360,-45 2194,-30 2087,-19"/>
<polygon style="fill:midnightblue;stroke:midnightblue;" points="2471.7,-58.4875 2482,-56 2472.4,-51.5222 2471.7,-58.4875"/>
</g>
<!-- Node12 -->
<g id="node24" class="node"><title>Node12</title>
<a xlink:href="crossvalidator__unittest_8cc.html" target="_top" xlink:title="ltr/crossvalidation/crossvalidator_unittest.cc">
<polygon style="fill:white;stroke:black;" points="0,-0 0,-20 204,-20 204,-0 0,-0"/>
<text text-anchor="middle" x="102" y="-7" style="font-family:Arial;font-size:10.00;">ltr/crossvalidation/crossvalidator_unittest.cc</text>
</a>
</g>
<!-- Node11&#45;&gt;Node12 -->
<g id="edge24" class="edge"><title>Node11&#45;&gt;Node12</title>
<path style="fill:none;stroke:midnightblue;" d="M492,-56C404,-46 273,-30 187,-20"/>
<polygon style="fill:midnightblue;stroke:midnightblue;" points="491.701,-59.4875 502,-57 492.398,-52.5222 491.701,-59.4875"/>
</g>
<!-- Node13&#45;&gt;Node10 -->
<g id="edge30" class="edge"><title>Node13&#45;&gt;Node10</title>
<path style="fill:none;stroke:midnightblue;" d="M1317,-56C1567,-37 1630,-39 1877,-20 1880,-20 1883,-20 1886,-19"/>
<polygon style="fill:midnightblue;stroke:midnightblue;" points="1316.6,-52.5222 1307,-57 1317.3,-59.4875 1316.6,-52.5222"/>
</g>
<!-- Node14 -->
<g id="node28" class="node"><title>Node14</title>
<a xlink:href="bayesian__learner__unittest_8cc.html" target="_top" xlink:title="ltr/learners/bayesian_learner/bayesian_learner_unittest.cc">
<polygon style="fill:white;stroke:black;" points="222,-0 222,-20 488,-20 488,-0 222,-0"/>
<text text-anchor="middle" x="355" y="-7" style="font-family:Arial;font-size:10.00;">ltr/learners/bayesian_learner/bayesian_learner_unittest.cc</text>
</a>
</g>
<!-- Node13&#45;&gt;Node14 -->
<g id="edge28" class="edge"><title>Node13&#45;&gt;Node14</title>
<path style="fill:none;stroke:midnightblue;" d="M1075,-58C935,-49 699,-34 497,-20 494,-20 491,-20 488,-19"/>
<polygon style="fill:midnightblue;stroke:midnightblue;" points="1074.7,-61.4875 1085,-59 1075.4,-54.5222 1074.7,-61.4875"/>
</g>
<!-- Node15&#45;&gt;Node7 -->
<g id="edge34" class="edge"><title>Node15&#45;&gt;Node7</title>
<path style="fill:none;stroke:midnightblue;" d="M2394,-54C2456,-44 2544,-29 2603,-20"/>
<polygon style="fill:midnightblue;stroke:midnightblue;" points="2393.12,-50.6067 2384,-56 2394.49,-57.4708 2393.12,-50.6067"/>
</g>
<!-- Node15&#45;&gt;Node8 -->
<g id="edge36" class="edge"><title>Node15&#45;&gt;Node8</title>
<path style="fill:none;stroke:midnightblue;" d="M2449,-55C2567,-45 2741,-30 2856,-20"/>
<polygon style="fill:midnightblue;stroke:midnightblue;" points="2448.6,-51.5222 2439,-56 2449.3,-58.4875 2448.6,-51.5222"/>
</g>
<!-- Node15&#45;&gt;Node10 -->
<g id="edge38" class="edge"><title>Node15&#45;&gt;Node10</title>
<path style="fill:none;stroke:midnightblue;" d="M2253,-54C2192,-44 2104,-29 2046,-20"/>
<polygon style="fill:midnightblue;stroke:midnightblue;" points="2252.51,-57.4708 2263,-56 2253.88,-50.6067 2252.51,-57.4708"/>
</g>
<!-- Node16&#45;&gt;Node10 -->
<g id="edge46" class="edge"><title>Node16&#45;&gt;Node10</title>
<path style="fill:none;stroke:midnightblue;" d="M1545,-55C1645,-45 1792,-30 1888,-20"/>
<polygon style="fill:midnightblue;stroke:midnightblue;" points="1544.6,-51.5222 1535,-56 1545.3,-58.4875 1544.6,-51.5222"/>
</g>
<!-- Node17 -->
<g id="node38" class="node"><title>Node17</title>
<a xlink:href="decision__tree__learner_8cc.html" target="_top" xlink:title="ltr/learners/decision_tree/decision_tree_learner.cc">
<polygon style="fill:white;stroke:black;" points="506,-0 506,-20 737,-20 737,-0 506,-0"/>
<text text-anchor="middle" x="621" y="-7" style="font-family:Arial;font-size:10.00;">ltr/learners/decision_tree/decision_tree_learner.cc</text>
</a>
</g>
<!-- Node16&#45;&gt;Node17 -->
<g id="edge42" class="edge"><title>Node16&#45;&gt;Node17</title>
<path style="fill:none;stroke:midnightblue;" d="M1315,-56C1060,-37 995,-38 745,-20 742,-20 740,-20 737,-19"/>
<polygon style="fill:midnightblue;stroke:midnightblue;" points="1314.7,-59.4875 1325,-57 1315.4,-52.5222 1314.7,-59.4875"/>
</g>
<!-- Node18 -->
<g id="node40" class="node"><title>Node18</title>
<a xlink:href="decision__tree__unittest_8cc.html" target="_top" xlink:title="ltr/learners/decision_tree/decision_tree_unittest.cc">
<polygon style="fill:white;stroke:black;" points="754,-0 754,-20 988,-20 988,-0 754,-0"/>
<text text-anchor="middle" x="871" y="-7" style="font-family:Arial;font-size:10.00;">ltr/learners/decision_tree/decision_tree_unittest.cc</text>
</a>
</g>
<!-- Node16&#45;&gt;Node18 -->
<g id="edge44" class="edge"><title>Node16&#45;&gt;Node18</title>
<path style="fill:none;stroke:midnightblue;" d="M1326,-55C1223,-45 1072,-30 972,-20"/>
<polygon style="fill:midnightblue;stroke:midnightblue;" points="1325.7,-58.4875 1336,-56 1326.4,-51.5222 1325.7,-58.4875"/>
</g>
<!-- Node19&#45;&gt;Node10 -->
<g id="edge54" class="edge"><title>Node19&#45;&gt;Node10</title>
<path style="fill:none;stroke:midnightblue;" d="M1719,-54C1780,-44 1868,-29 1926,-20"/>
<polygon style="fill:midnightblue;stroke:midnightblue;" points="1718.12,-50.6067 1709,-56 1719.49,-57.4708 1718.12,-50.6067"/>
</g>
<!-- Node20 -->
<g id="node45" class="node"><title>Node20</title>
<a xlink:href="gp__learner_8cc.html" target="_top" xlink:title="ltr/learners/gp_learner/gp_learner.cc">
<polygon style="fill:white;stroke:black;" points="1006,-0 1006,-20 1177,-20 1177,-0 1006,-0"/>
<text text-anchor="middle" x="1091" y="-7" style="font-family:Arial;font-size:10.00;">ltr/learners/gp_learner/gp_learner.cc</text>
</a>
</g>
<!-- Node19&#45;&gt;Node20 -->
<g id="edge50" class="edge"><title>Node19&#45;&gt;Node20</title>
<path style="fill:none;stroke:midnightblue;" d="M1557,-56C1390,-38 1347,-36 1185,-20 1182,-20 1180,-19 1177,-19"/>
<polygon style="fill:midnightblue;stroke:midnightblue;" points="1556.7,-59.4875 1567,-57 1557.4,-52.5222 1556.7,-59.4875"/>
</g>
<!-- Node21 -->
<g id="node47" class="node"><title>Node21</title>
<a xlink:href="gp__learner__unittest_8cc.html" target="_top" xlink:title="ltr/learners/gp_learner/gp_learner_unittest.cc">
<polygon style="fill:white;stroke:black;" points="1194,-0 1194,-20 1403,-20 1403,-0 1194,-0"/>
<text text-anchor="middle" x="1298" y="-7" style="font-family:Arial;font-size:10.00;">ltr/learners/gp_learner/gp_learner_unittest.cc</text>
</a>
</g>
<!-- Node19&#45;&gt;Node21 -->
<g id="edge52" class="edge"><title>Node19&#45;&gt;Node21</title>
<path style="fill:none;stroke:midnightblue;" d="M1576,-54C1512,-44 1421,-29 1360,-20"/>
<polygon style="fill:midnightblue;stroke:midnightblue;" points="1575.51,-57.4708 1586,-56 1576.88,-50.6067 1575.51,-57.4708"/>
</g>
<!-- Node22&#45;&gt;Node9 -->
<g id="edge58" class="edge"><title>Node22&#45;&gt;Node9</title>
<path style="fill:none;stroke:midnightblue;" d="M1950,-56C2124,-39 2169,-38 2341,-20 2344,-20 2347,-19 2350,-19"/>
<polygon style="fill:midnightblue;stroke:midnightblue;" points="1949.6,-52.5222 1940,-57 1950.3,-59.4875 1949.6,-52.5222"/>
</g>
<!-- Node22&#45;&gt;Node10 -->
<g id="edge64" class="edge"><title>Node22&#45;&gt;Node10</title>
<path style="fill:none;stroke:midnightblue;" d="M1879,-52C1904,-42 1937,-29 1960,-20"/>
<polygon style="fill:midnightblue;stroke:midnightblue;" points="1876.98,-49.0364 1869,-56 1879.58,-55.5357 1876.98,-49.0364"/>
</g>
<!-- Node23 -->
<g id="node53" class="node"><title>Node23</title>
<a xlink:href="linear__learner_8cc.html" target="_top" xlink:title="ltr/learners/linear_learner/linear_learner.cc">
<polygon style="fill:white;stroke:black;" points="1672,-0 1672,-20 1868,-20 1868,-0 1672,-0"/>
<text text-anchor="middle" x="1770" y="-7" style="font-family:Arial;font-size:10.00;">ltr/learners/linear_learner/linear_learner.cc</text>
</a>
</g>
<!-- Node22&#45;&gt;Node23 -->
<g id="edge60" class="edge"><title>Node22&#45;&gt;Node23</title>
<path style="fill:none;stroke:midnightblue;" d="M1823,-50C1810,-41 1795,-29 1784,-20"/>
<polygon style="fill:midnightblue;stroke:midnightblue;" points="1820.9,-52.8 1831,-56 1825.1,-47.2 1820.9,-52.8"/>
</g>
<!-- Node24 -->
<g id="node55" class="node"><title>Node24</title>
<a xlink:href="linear__learner__unittest_8cc.html" target="_top" xlink:title="ltr/learners/linear_learner/linear_learner_unittest.cc">
<polygon style="fill:white;stroke:black;" points="1420,-0 1420,-20 1654,-20 1654,-0 1420,-0"/>
<text text-anchor="middle" x="1537" y="-7" style="font-family:Arial;font-size:10.00;">ltr/learners/linear_learner/linear_learner_unittest.cc</text>
</a>
</g>
<!-- Node22&#45;&gt;Node24 -->
<g id="edge62" class="edge"><title>Node22&#45;&gt;Node24</title>
<path style="fill:none;stroke:midnightblue;" d="M1779,-54C1723,-44 1644,-29 1592,-20"/>
<polygon style="fill:midnightblue;stroke:midnightblue;" points="1778.51,-57.4708 1789,-56 1779.88,-50.6067 1778.51,-57.4708"/>
</g>
<!-- Node25&#45;&gt;Node10 -->
<g id="edge72" class="edge"><title>Node25&#45;&gt;Node10</title>
<path style="fill:none;stroke:midnightblue;" d="M3157,-57C3144,-57 3132,-57 3120,-56 2664,-36 2549,-48 2095,-20 2092,-20 2090,-20 2087,-19"/>
<polygon style="fill:midnightblue;stroke:midnightblue;" points="3156.7,-60.4875 3167,-58 3157.4,-53.5222 3156.7,-60.4875"/>
</g>
<!-- Node26 -->
<g id="node60" class="node"><title>Node26</title>
<a xlink:href="nearest__neighbor__learner_8cc.html" target="_top" xlink:title="ltr/learners/nearest_neighbor_learner/nearest_neighbor_learner.cc">
<polygon style="fill:white;stroke:black;" points="3358,-0 3358,-20 3656,-20 3656,-0 3358,-0"/>
<text text-anchor="middle" x="3507" y="-7" style="font-family:Arial;font-size:10.00;">ltr/learners/nearest_neighbor_learner/nearest_neighbor_learner.cc</text>
</a>
</g>
<!-- Node25&#45;&gt;Node26 -->
<g id="edge68" class="edge"><title>Node25&#45;&gt;Node26</title>
<path style="fill:none;stroke:midnightblue;" d="M3358,-53C3393,-43 3440,-29 3472,-20"/>
<polygon style="fill:midnightblue;stroke:midnightblue;" points="3356.57,-49.7741 3348,-56 3358.58,-56.4788 3356.57,-49.7741"/>
</g>
<!-- Node27 -->
<g id="node62" class="node"><title>Node27</title>
<a xlink:href="nearest__neighbor__learner__unittest_8cc.html" target="_top" xlink:title="ltr/learners/nearest_neighbor_learner/nearest_neighbor_learner_unittest.cc">
<polygon style="fill:white;stroke:black;" points="3674,-0 3674,-20 4010,-20 4010,-0 3674,-0"/>
<text text-anchor="middle" x="3842" y="-7" style="font-family:Arial;font-size:10.00;">ltr/learners/nearest_neighbor_learner/nearest_neighbor_learner_unittest.cc</text>
</a>
</g>
<!-- Node25&#45;&gt;Node27 -->
<g id="edge70" class="edge"><title>Node25&#45;&gt;Node27</title>
<path style="fill:none;stroke:midnightblue;" d="M3418,-55C3514,-45 3655,-30 3748,-20"/>
<polygon style="fill:midnightblue;stroke:midnightblue;" points="3417.6,-51.5222 3408,-56 3418.3,-58.4875 3417.6,-51.5222"/>
</g>
<!-- Node28&#45;&gt;Node10 -->
<g id="edge76" class="edge"><title>Node28&#45;&gt;Node10</title>
<path style="fill:none;stroke:midnightblue;" d="M2046,-50C2031,-41 2013,-28 2001,-20"/>
<polygon style="fill:midnightblue;stroke:midnightblue;" points="2043.9,-52.8 2054,-56 2048.1,-47.2 2043.9,-52.8"/>
</g>
<!-- Node29 -->
<g id="node68" class="node"><title>Node29</title>
<a xlink:href="generator__utility_8cc.html" target="_top" xlink:title="ltr/serialization_test/generator/generator_utility.cc">
<polygon style="fill:white;stroke:black;" points="2104,-0 2104,-20 2333,-20 2333,-0 2104,-0"/>
<text text-anchor="middle" x="2218" y="-7" style="font-family:Arial;font-size:10.00;">ltr/serialization_test/generator/generator_utility.cc</text>
</a>
</g>
<!-- Node28&#45;&gt;Node29 -->
<g id="edge78" class="edge"><title>Node28&#45;&gt;Node29</title>
<path style="fill:none;stroke:midnightblue;" d="M2105,-52C2131,-42 2167,-29 2191,-20"/>
<polygon style="fill:midnightblue;stroke:midnightblue;" points="2103.72,-48.7402 2096,-56 2106.56,-55.1369 2103.72,-48.7402"/>
</g>
<!-- Node30&#45;&gt;Node8 -->
<g id="edge86" class="edge"><title>Node30&#45;&gt;Node8</title>
<path style="fill:none;stroke:midnightblue;" d="M3266,-110C3234,-102 3193,-90 3158,-76 3140,-68 3137,-63 3120,-56 3084,-41 3041,-28 3011,-20"/>
<polygon style="fill:midnightblue;stroke:midnightblue;" points="3265.51,-113.471 3276,-112 3266.88,-106.607 3265.51,-113.471"/>
</g>
<!-- Node31 -->
<g id="node72" class="node"><title>Node31</title>
<a xlink:href="tostring__unittest_8cc.html" target="_top" xlink:title="ltr/data/tostring_unittest.cc">
<polygon style="fill:white;stroke:black;" points="3477,-56 3477,-76 3609,-76 3609,-56 3477,-56"/>
<text text-anchor="middle" x="3543" y="-63" style="font-family:Arial;font-size:10.00;">ltr/data/tostring_unittest.cc</text>
</a>
</g>
<!-- Node30&#45;&gt;Node31 -->
<g id="edge82" class="edge"><title>Node30&#45;&gt;Node31</title>
<path style="fill:none;stroke:midnightblue;" d="M3372,-110C3411,-100 3466,-85 3503,-76"/>
<polygon style="fill:midnightblue;stroke:midnightblue;" points="3371.12,-106.607 3362,-112 3372.49,-113.471 3371.12,-106.607"/>
</g>
<!-- Node30&#45;&gt;Node32 -->
<g id="edge84" class="edge"><title>Node30&#45;&gt;Node32</title>
<path style="fill:none;stroke:midnightblue;" d="M3410,-111C3490,-101 3605,-86 3681,-76"/>
<polygon style="fill:midnightblue;stroke:midnightblue;" points="3409.6,-107.522 3400,-112 3410.3,-114.488 3409.6,-107.522"/>
</g>
<!-- Node33&#45;&gt;Node31 -->
<g id="edge90" class="edge"><title>Node33&#45;&gt;Node31</title>
<path style="fill:none;stroke:midnightblue;" d="M3541,-102C3542,-93 3542,-84 3542,-76"/>
<polygon style="fill:midnightblue;stroke:midnightblue;" points="3537.5,-102 3541,-112 3544.5,-102 3537.5,-102"/>
</g>
<!-- Node33&#45;&gt;Node32 -->
<g id="edge92" class="edge"><title>Node33&#45;&gt;Node32</title>
<path style="fill:none;stroke:midnightblue;" d="M3589,-110C3628,-100 3683,-85 3720,-76"/>
<polygon style="fill:midnightblue;stroke:midnightblue;" points="3588.12,-106.607 3579,-112 3589.49,-113.471 3588.12,-106.607"/>
</g>
<!-- Node34&#45;&gt;Node32 -->
<g id="edge98" class="edge"><title>Node34&#45;&gt;Node32</title>
<path style="fill:none;stroke:midnightblue;" d="M3761,-102C3760,-93 3760,-84 3760,-76"/>
<polygon style="fill:midnightblue;stroke:midnightblue;" points="3757.5,-102 3761,-112 3764.5,-102 3757.5,-102"/>
</g>
</g>
</svg>
