<?xml version="1.0" encoding="UTF-8" standalone="no"?>
<!DOCTYPE svg PUBLIC "-//W3C//DTD SVG 1.0//EN"
 "http://www.w3.org/TR/2001/REC-SVG-20010904/DTD/svg10.dtd" [
 <!ATTLIST svg xmlns:xlink CDATA #FIXED "http://www.w3.org/1999/xlink">
]>
<!-- Generated by Graphviz version 2.20.2 (Tue Mar &#160;2 19:03:41 UTC 2010)
     For user: (jenkins)  -->
<!-- Title: G Pages: 1 -->
<svg width="1308pt" height="364pt"
 viewBox="0.00 0.00 1308.00 364.00" xmlns="http://www.w3.org/2000/svg" xmlns:xlink="http://www.w3.org/1999/xlink">
<g id="graph0" class="graph" transform="scale(1 1) rotate(0) translate(4 360)">
<title>G</title>
<polygon style="fill:white;stroke:white;" points="-4,4 -4,-360 1304,-360 1304,4 -4,4"/>
<!-- Node1 -->
<g id="node1" class="node"><title>Node1</title>
<polygon style="fill:#bfbfbf;stroke:black;" points="204,-336 204,-356 304,-356 304,-336 204,-336"/>
<text text-anchor="middle" x="254" y="-343" style="font-family:Arial;font-size:10.00;">ltr/data/data_set.cc</text>
</g>
<!-- Node2 -->
<g id="node3" class="node"><title>Node2</title>
<polygon style="fill:white;stroke:#bfbfbf;" points="59,-56 59,-76 101,-76 101,-56 59,-56"/>
<text text-anchor="middle" x="80" y="-63" style="font-family:Arial;font-size:10.00;">vector</text>
</g>
<!-- Node1&#45;&gt;Node2 -->
<g id="edge2" class="edge"><title>Node1&#45;&gt;Node2</title>
<path style="fill:none;stroke:midnightblue;" d="M210,-336C137,-318 0,-279 0,-234 0,-234 0,-234 0,-178 0,-138 34,-102 58,-82"/>
<polygon style="fill:midnightblue;stroke:midnightblue;" points="60.1,-84.8 66,-76 55.9,-79.2 60.1,-84.8"/>
</g>
<!-- Node3 -->
<g id="node5" class="node"><title>Node3</title>
<a xlink:href="data__set_8h.html" target="_top" xlink:title="ltr/data/data_set.h">
<polygon style="fill:white;stroke:black;" points="456,-280 456,-300 551,-300 551,-280 456,-280"/>
<text text-anchor="middle" x="503" y="-287" style="font-family:Arial;font-size:10.00;">ltr/data/data_set.h</text>
</a>
</g>
<!-- Node1&#45;&gt;Node3 -->
<g id="edge4" class="edge"><title>Node1&#45;&gt;Node3</title>
<path style="fill:none;stroke:midnightblue;" d="M299,-336C341,-327 403,-312 448,-302"/>
<polygon style="fill:midnightblue;stroke:midnightblue;" points="448.881,-305.393 458,-300 447.508,-298.529 448.881,-305.393"/>
</g>
<!-- Node3&#45;&gt;Node2 -->
<g id="edge12" class="edge"><title>Node3&#45;&gt;Node2</title>
<path style="fill:none;stroke:midnightblue;" d="M456,-285C403,-279 315,-267 242,-244 186,-226 167,-227 123,-188 102,-168 100,-159 90,-132 85,-117 83,-100 81,-86"/>
<polygon style="fill:midnightblue;stroke:midnightblue;" points="84.5001,-86 81,-76 77.5001,-86 84.5001,-86"/>
</g>
<!-- Node4 -->
<g id="node7" class="node"><title>Node4</title>
<polygon style="fill:white;stroke:#bfbfbf;" points="478,-224 478,-244 529,-244 529,-224 478,-224"/>
<text text-anchor="middle" x="503" y="-231" style="font-family:Arial;font-size:10.00;">sstream</text>
</g>
<!-- Node3&#45;&gt;Node4 -->
<g id="edge6" class="edge"><title>Node3&#45;&gt;Node4</title>
<path style="fill:none;stroke:midnightblue;" d="M503,-280C503,-273 503,-263 503,-254"/>
<polygon style="fill:midnightblue;stroke:midnightblue;" points="506.5,-254 503,-244 499.5,-254 506.5,-254"/>
</g>
<!-- Node5 -->
<g id="node9" class="node"><title>Node5</title>
<polygon style="fill:white;stroke:#bfbfbf;" points="586,-56 586,-76 645,-76 645,-56 586,-56"/>
<text text-anchor="middle" x="615" y="-63" style="font-family:Arial;font-size:10.00;">stdexcept</text>
</g>
<!-- Node3&#45;&gt;Node5 -->
<g id="edge8" class="edge"><title>Node3&#45;&gt;Node5</title>
<path style="fill:none;stroke:midnightblue;" d="M551,-282C631,-267 784,-233 813,-188 817,-180 817,-175 813,-168 779,-111 703,-85 655,-73"/>
<polygon style="fill:midnightblue;stroke:midnightblue;" points="655.492,-69.5292 645,-71 654.119,-76.3933 655.492,-69.5292"/>
</g>
<!-- Node6 -->
<g id="node11" class="node"><title>Node6</title>
<polygon style="fill:white;stroke:#bfbfbf;" points="659,-0 659,-20 699,-20 699,-0 659,-0"/>
<text text-anchor="middle" x="679" y="-7" style="font-family:Arial;font-size:10.00;">string</text>
</g>
<!-- Node3&#45;&gt;Node6 -->
<g id="edge10" class="edge"><title>Node3&#45;&gt;Node6</title>
<path style="fill:none;stroke:midnightblue;" d="M551,-287C703,-276 1164,-240 1164,-178 1164,-178 1164,-178 1164,-122 1164,-86 1150,-74 1120,-56 1084,-35 803,-17 709,-12"/>
<polygon style="fill:midnightblue;stroke:midnightblue;" points="709.299,-8.5125 699,-11 708.602,-15.4778 709.299,-8.5125"/>
</g>
<!-- Node7 -->
<g id="node14" class="node"><title>Node7</title>
<a xlink:href="object_8h.html" target="_top" xlink:title="ltr/data/object.h">
<polygon style="fill:white;stroke:black;" points="256,-112 256,-132 340,-132 340,-112 256,-112"/>
<text text-anchor="middle" x="298" y="-119" style="font-family:Arial;font-size:10.00;">ltr/data/object.h</text>
</a>
</g>
<!-- Node3&#45;&gt;Node7 -->
<g id="edge14" class="edge"><title>Node3&#45;&gt;Node7</title>
<path style="fill:none;stroke:midnightblue;" d="M456,-285C403,-279 324,-266 305,-244 281,-215 287,-169 293,-142"/>
<polygon style="fill:midnightblue;stroke:midnightblue;" points="296.471,-142.492 295,-132 289.607,-141.119 296.471,-142.492"/>
</g>
<!-- Node15 -->
<g id="node35" class="node"><title>Node15</title>
<a xlink:href="object__list_8h.html" target="_top" xlink:title="ltr/data/object_list.h">
<polygon style="fill:white;stroke:black;" points="413,-168 413,-188 515,-188 515,-168 413,-168"/>
<text text-anchor="middle" x="464" y="-175" style="font-family:Arial;font-size:10.00;">ltr/data/object_list.h</text>
</a>
</g>
<!-- Node3&#45;&gt;Node15 -->
<g id="edge40" class="edge"><title>Node3&#45;&gt;Node15</title>
<path style="fill:none;stroke:midnightblue;" d="M514,-280C528,-267 547,-243 537,-224 529,-210 515,-200 502,-192"/>
<polygon style="fill:midnightblue;stroke:midnightblue;" points="503.56,-188.863 493,-188 500.717,-195.26 503.56,-188.863"/>
</g>
<!-- Node16 -->
<g id="node43" class="node"><title>Node16</title>
<a xlink:href="object__pair_8h.html" target="_top" xlink:title="ltr/data/object_pair.h">
<polygon style="fill:white;stroke:black;" points="154,-168 154,-188 258,-188 258,-168 154,-168"/>
<text text-anchor="middle" x="206" y="-175" style="font-family:Arial;font-size:10.00;">ltr/data/object_pair.h</text>
</a>
</g>
<!-- Node3&#45;&gt;Node16 -->
<g id="edge54" class="edge"><title>Node3&#45;&gt;Node16</title>
<path style="fill:none;stroke:midnightblue;" d="M456,-284C398,-276 303,-260 272,-244 250,-232 231,-212 219,-196"/>
<polygon style="fill:midnightblue;stroke:midnightblue;" points="221.8,-193.9 213,-188 216.2,-198.1 221.8,-193.9"/>
</g>
<!-- Node17 -->
<g id="node51" class="node"><title>Node17</title>
<a xlink:href="feature__info_8h.html" target="_top" xlink:title="ltr/data/feature_info.h">
<polygon style="fill:white;stroke:black;" points="584,-224 584,-244 691,-244 691,-224 584,-224"/>
<text text-anchor="middle" x="637" y="-231" style="font-family:Arial;font-size:10.00;">ltr/data/feature_info.h</text>
</a>
</g>
<!-- Node3&#45;&gt;Node17 -->
<g id="edge68" class="edge"><title>Node3&#45;&gt;Node17</title>
<path style="fill:none;stroke:midnightblue;" d="M527,-280C548,-271 579,-258 603,-248"/>
<polygon style="fill:midnightblue;stroke:midnightblue;" points="605.015,-250.964 613,-244 602.415,-244.464 605.015,-250.964"/>
</g>
<!-- Node24 -->
<g id="node75" class="node"><title>Node24</title>
<a xlink:href="per__object__accessor_8h.html" target="_top" xlink:title="ltr/data/per_object_accessor.h">
<polygon style="fill:white;stroke:black;" points="314,-224 314,-244 461,-244 461,-224 314,-224"/>
<text text-anchor="middle" x="387" y="-231" style="font-family:Arial;font-size:10.00;">ltr/data/per_object_accessor.h</text>
</a>
</g>
<!-- Node3&#45;&gt;Node24 -->
<g id="edge102" class="edge"><title>Node3&#45;&gt;Node24</title>
<path style="fill:none;stroke:midnightblue;" d="M482,-280C464,-271 438,-258 417,-248"/>
<polygon style="fill:midnightblue;stroke:midnightblue;" points="418.56,-244.863 408,-244 415.717,-251.26 418.56,-244.863"/>
</g>
<!-- Node25 -->
<g id="node82" class="node"><title>Node25</title>
<a xlink:href="aliaser_8h.html" target="_top" xlink:title="ltr/interfaces/aliaser.h">
<polygon style="fill:white;stroke:black;" points="1192,-112 1192,-132 1300,-132 1300,-112 1192,-112"/>
<text text-anchor="middle" x="1246" y="-119" style="font-family:Arial;font-size:10.00;">ltr/interfaces/aliaser.h</text>
</a>
</g>
<!-- Node3&#45;&gt;Node25 -->
<g id="edge114" class="edge"><title>Node3&#45;&gt;Node25</title>
<path style="fill:none;stroke:midnightblue;" d="M551,-289C696,-287 1125,-277 1178,-244 1214,-220 1233,-170 1241,-142"/>
<polygon style="fill:midnightblue;stroke:midnightblue;" points="1244.48,-142.584 1244,-132 1237.77,-140.573 1244.48,-142.584"/>
</g>
<!-- Node7&#45;&gt;Node2 -->
<g id="edge24" class="edge"><title>Node7&#45;&gt;Node2</title>
<path style="fill:none;stroke:midnightblue;" d="M259,-112C217,-101 150,-84 111,-74"/>
<polygon style="fill:midnightblue;stroke:midnightblue;" points="111.584,-70.5212 101,-71 109.573,-77.2259 111.584,-70.5212"/>
</g>
<!-- Node7&#45;&gt;Node5 -->
<g id="edge20" class="edge"><title>Node7&#45;&gt;Node5</title>
<path style="fill:none;stroke:midnightblue;" d="M340,-115C401,-104 516,-83 576,-73"/>
<polygon style="fill:midnightblue;stroke:midnightblue;" points="576.881,-76.3933 586,-71 575.508,-69.5292 576.881,-76.3933"/>
</g>
<!-- Node7&#45;&gt;Node6 -->
<g id="edge22" class="edge"><title>Node7&#45;&gt;Node6</title>
<path style="fill:none;stroke:midnightblue;" d="M256,-112C217,-101 168,-82 191,-56 223,-20 566,-29 649,-19"/>
<polygon style="fill:midnightblue;stroke:midnightblue;" points="649.398,-22.4778 659,-18 648.701,-15.5125 649.398,-22.4778"/>
</g>
<!-- Node8 -->
<g id="node16" class="node"><title>Node8</title>
<polygon style="fill:white;stroke:#bfbfbf;" points="496,-56 496,-76 531,-76 531,-56 496,-56"/>
<text text-anchor="middle" x="513" y="-63" style="font-family:Arial;font-size:10.00;">map</text>
</g>
<!-- Node7&#45;&gt;Node8 -->
<g id="edge16" class="edge"><title>Node7&#45;&gt;Node8</title>
<path style="fill:none;stroke:midnightblue;" d="M336,-112C379,-101 449,-83 486,-73"/>
<polygon style="fill:midnightblue;stroke:midnightblue;" points="487.427,-76.2259 496,-70 485.416,-69.5212 487.427,-76.2259"/>
</g>
<!-- Node9 -->
<g id="node18" class="node"><title>Node9</title>
<polygon style="fill:white;stroke:#bfbfbf;" points="143,-0 143,-20 194,-20 194,-0 143,-0"/>
<text text-anchor="middle" x="168" y="-7" style="font-family:Arial;font-size:10.00;">ostream</text>
</g>
<!-- Node7&#45;&gt;Node9 -->
<g id="edge18" class="edge"><title>Node7&#45;&gt;Node9</title>
<path style="fill:none;stroke:midnightblue;" d="M256,-114C219,-105 170,-92 158,-76 148,-62 152,-43 158,-29"/>
<polygon style="fill:midnightblue;stroke:midnightblue;" points="161.137,-30.5596 162,-20 154.74,-27.7166 161.137,-30.5596"/>
</g>
<!-- Node10 -->
<g id="node23" class="node"><title>Node10</title>
<a xlink:href="printable_8h.html" target="_top" xlink:title="ltr/interfaces/printable.h">
<polygon style="fill:white;stroke:black;" points="200,-56 200,-76 317,-76 317,-56 200,-56"/>
<text text-anchor="middle" x="258" y="-63" style="font-family:Arial;font-size:10.00;">ltr/interfaces/printable.h</text>
</a>
</g>
<!-- Node7&#45;&gt;Node10 -->
<g id="edge26" class="edge"><title>Node7&#45;&gt;Node10</title>
<path style="fill:none;stroke:midnightblue;" d="M291,-112C286,-104 277,-94 271,-84"/>
<polygon style="fill:midnightblue;stroke:midnightblue;" points="273.8,-81.9 265,-76 268.2,-86.1 273.8,-81.9"/>
</g>
<!-- Node11 -->
<g id="node27" class="node"><title>Node11</title>
<a xlink:href="shared__ptr_8h.html" target="_top" xlink:title="ltr/utility/shared_ptr.h">
<polygon style="fill:white;stroke:black;" points="334,-56 334,-76 441,-76 441,-56 334,-56"/>
<text text-anchor="middle" x="387" y="-63" style="font-family:Arial;font-size:10.00;">ltr/utility/shared_ptr.h</text>
</a>
</g>
<!-- Node7&#45;&gt;Node11 -->
<g id="edge32" class="edge"><title>Node7&#45;&gt;Node11</title>
<path style="fill:none;stroke:midnightblue;" d="M314,-112C327,-104 347,-91 362,-81"/>
<polygon style="fill:midnightblue;stroke:midnightblue;" points="363.958,-83.916 371,-76 360.559,-77.7969 363.958,-83.916"/>
</g>
<!-- Node10&#45;&gt;Node6 -->
<g id="edge30" class="edge"><title>Node10&#45;&gt;Node6</title>
<path style="fill:none;stroke:midnightblue;" d="M317,-57C320,-57 322,-56 325,-56 466,-37 506,-50 649,-20"/>
<polygon style="fill:midnightblue;stroke:midnightblue;" points="649.881,-23.3933 659,-18 648.508,-16.5292 649.881,-23.3933"/>
</g>
<!-- Node10&#45;&gt;Node9 -->
<g id="edge28" class="edge"><title>Node10&#45;&gt;Node9</title>
<path style="fill:none;stroke:midnightblue;" d="M242,-56C229,-48 209,-35 193,-25"/>
<polygon style="fill:midnightblue;stroke:midnightblue;" points="194.441,-21.7969 184,-20 191.042,-27.916 194.441,-21.7969"/>
</g>
<!-- Node12 -->
<g id="node29" class="node"><title>Node12</title>
<polygon style="fill:white;stroke:#bfbfbf;" points="253,-0 253,-20 309,-20 309,-0 253,-0"/>
<text text-anchor="middle" x="281" y="-7" style="font-family:Arial;font-size:10.00;">algorithm</text>
</g>
<!-- Node11&#45;&gt;Node12 -->
<g id="edge34" class="edge"><title>Node11&#45;&gt;Node12</title>
<path style="fill:none;stroke:midnightblue;" d="M368,-56C352,-47 328,-34 309,-25"/>
<polygon style="fill:midnightblue;stroke:midnightblue;" points="310.441,-21.7969 300,-20 307.042,-27.916 310.441,-21.7969"/>
</g>
<!-- Node13 -->
<g id="node31" class="node"><title>Node13</title>
<polygon style="fill:white;stroke:#bfbfbf;" points="327,-0 327,-20 434,-20 434,-0 327,-0"/>
<text text-anchor="middle" x="380" y="-7" style="font-family:Arial;font-size:10.00;">boost/shared_ptr.hpp</text>
</g>
<!-- Node11&#45;&gt;Node13 -->
<g id="edge36" class="edge"><title>Node11&#45;&gt;Node13</title>
<path style="fill:none;stroke:midnightblue;" d="M386,-56C385,-49 384,-39 383,-30"/>
<polygon style="fill:midnightblue;stroke:midnightblue;" points="386.393,-29.1194 381,-20 379.529,-30.4922 386.393,-29.1194"/>
</g>
<!-- Node14 -->
<g id="node33" class="node"><title>Node14</title>
<polygon style="fill:white;stroke:#bfbfbf;" points="451,-0 451,-20 642,-20 642,-0 451,-0"/>
<text text-anchor="middle" x="546" y="-7" style="font-family:Arial;font-size:10.00;">boost/smart_ptr/detail/operator_bool.hpp</text>
</g>
<!-- Node11&#45;&gt;Node14 -->
<g id="edge38" class="edge"><title>Node11&#45;&gt;Node14</title>
<path style="fill:none;stroke:midnightblue;" d="M415,-56C441,-47 479,-33 507,-23"/>
<polygon style="fill:midnightblue;stroke:midnightblue;" points="508.427,-26.2259 517,-20 506.416,-19.5212 508.427,-26.2259"/>
</g>
<!-- Node15&#45;&gt;Node2 -->
<g id="edge46" class="edge"><title>Node15&#45;&gt;Node2</title>
<path style="fill:none;stroke:midnightblue;" d="M413,-170C368,-162 303,-149 247,-132 198,-117 143,-94 110,-79"/>
<polygon style="fill:midnightblue;stroke:midnightblue;" points="111.56,-75.8631 101,-75 108.717,-82.2598 111.56,-75.8631"/>
</g>
<!-- Node15&#45;&gt;Node5 -->
<g id="edge42" class="edge"><title>Node15&#45;&gt;Node5</title>
<path style="fill:none;stroke:midnightblue;" d="M501,-168C524,-161 551,-149 572,-132 586,-119 598,-100 606,-85"/>
<polygon style="fill:midnightblue;stroke:midnightblue;" points="609.137,-86.5596 610,-76 602.74,-83.7166 609.137,-86.5596"/>
</g>
<!-- Node15&#45;&gt;Node6 -->
<g id="edge44" class="edge"><title>Node15&#45;&gt;Node6</title>
<path style="fill:none;stroke:midnightblue;" d="M471,-168C488,-145 530,-90 577,-56 589,-47 624,-32 650,-22"/>
<polygon style="fill:midnightblue;stroke:midnightblue;" points="651.283,-25.2598 659,-18 648.44,-18.8631 651.283,-25.2598"/>
</g>
<!-- Node15&#45;&gt;Node7 -->
<g id="edge48" class="edge"><title>Node15&#45;&gt;Node7</title>
<path style="fill:none;stroke:midnightblue;" d="M434,-168C407,-159 367,-145 338,-135"/>
<polygon style="fill:midnightblue;stroke:midnightblue;" points="338.584,-131.521 328,-132 336.573,-138.226 338.584,-131.521"/>
</g>
<!-- Node15&#45;&gt;Node10 -->
<g id="edge50" class="edge"><title>Node15&#45;&gt;Node10</title>
<path style="fill:none;stroke:midnightblue;" d="M447,-168C425,-155 384,-130 349,-112 329,-101 306,-89 288,-81"/>
<polygon style="fill:midnightblue;stroke:midnightblue;" points="289.441,-77.7969 279,-76 286.042,-83.916 289.441,-77.7969"/>
</g>
<!-- Node15&#45;&gt;Node11 -->
<g id="edge52" class="edge"><title>Node15&#45;&gt;Node11</title>
<path style="fill:none;stroke:midnightblue;" d="M466,-168C467,-154 468,-129 458,-112 450,-98 436,-88 423,-81"/>
<polygon style="fill:midnightblue;stroke:midnightblue;" points="424.441,-77.7969 414,-76 421.042,-83.916 424.441,-77.7969"/>
</g>
<!-- Node16&#45;&gt;Node2 -->
<g id="edge60" class="edge"><title>Node16&#45;&gt;Node2</title>
<path style="fill:none;stroke:midnightblue;" d="M194,-168C172,-148 125,-107 100,-83"/>
<polygon style="fill:midnightblue;stroke:midnightblue;" points="101.831,-79.9511 92,-76 97.221,-85.2191 101.831,-79.9511"/>
</g>
<!-- Node16&#45;&gt;Node5 -->
<g id="edge56" class="edge"><title>Node16&#45;&gt;Node5</title>
<path style="fill:none;stroke:midnightblue;" d="M258,-168C302,-160 365,-147 420,-132 476,-116 540,-94 578,-80"/>
<polygon style="fill:midnightblue;stroke:midnightblue;" points="580.015,-82.9636 588,-76 577.415,-76.4643 580.015,-82.9636"/>
</g>
<!-- Node16&#45;&gt;Node6 -->
<g id="edge58" class="edge"><title>Node16&#45;&gt;Node6</title>
<path style="fill:none;stroke:midnightblue;" d="M243,-168C272,-160 314,-147 349,-132 365,-125 470,-62 487,-56 553,-30 576,-39 649,-20"/>
<polygon style="fill:midnightblue;stroke:midnightblue;" points="650.427,-23.2259 659,-17 648.416,-16.5212 650.427,-23.2259"/>
</g>
<!-- Node16&#45;&gt;Node7 -->
<g id="edge62" class="edge"><title>Node16&#45;&gt;Node7</title>
<path style="fill:none;stroke:midnightblue;" d="M222,-168C236,-160 257,-147 272,-137"/>
<polygon style="fill:midnightblue;stroke:midnightblue;" points="273.958,-139.916 281,-132 270.559,-133.797 273.958,-139.916"/>
</g>
<!-- Node16&#45;&gt;Node10 -->
<g id="edge64" class="edge"><title>Node16&#45;&gt;Node10</title>
<path style="fill:none;stroke:midnightblue;" d="M195,-168C183,-154 165,-130 176,-112 184,-97 198,-87 213,-80"/>
<polygon style="fill:midnightblue;stroke:midnightblue;" points="214.283,-83.2598 222,-76 211.44,-76.8631 214.283,-83.2598"/>
</g>
<!-- Node16&#45;&gt;Node11 -->
<g id="edge66" class="edge"><title>Node16&#45;&gt;Node11</title>
<path style="fill:none;stroke:midnightblue;" d="M209,-168C215,-153 227,-127 247,-112 269,-94 298,-84 324,-77"/>
<polygon style="fill:midnightblue;stroke:midnightblue;" points="325.427,-80.2259 334,-74 323.416,-73.5212 325.427,-80.2259"/>
</g>
<!-- Node17&#45;&gt;Node2 -->
<g id="edge74" class="edge"><title>Node17&#45;&gt;Node2</title>
<path style="fill:none;stroke:midnightblue;" d="M584,-229C569,-227 552,-225 537,-224 449,-215 217,-236 145,-188 110,-164 92,-114 84,-86"/>
<polygon style="fill:midnightblue;stroke:midnightblue;" points="87.3933,-85.1194 82,-76 80.5292,-86.4922 87.3933,-85.1194"/>
</g>
<!-- Node17&#45;&gt;Node6 -->
<g id="edge72" class="edge"><title>Node17&#45;&gt;Node6</title>
<path style="fill:none;stroke:midnightblue;" d="M691,-229C772,-220 929,-195 1047,-132 1079,-114 1092,-109 1107,-76 1110,-67 1112,-62 1107,-56 1080,-26 802,-14 709,-11"/>
<polygon style="fill:midnightblue;stroke:midnightblue;" points="709,-7.5001 699,-11 709,-14.5001 709,-7.5001"/>
</g>
<!-- Node17&#45;&gt;Node8 -->
<g id="edge70" class="edge"><title>Node17&#45;&gt;Node8</title>
<path style="fill:none;stroke:midnightblue;" d="M638,-224C638,-201 637,-146 610,-112 593,-90 563,-79 541,-72"/>
<polygon style="fill:midnightblue;stroke:midnightblue;" points="541.584,-68.5212 531,-69 539.573,-75.2259 541.584,-68.5212"/>
</g>
<!-- Node17&#45;&gt;Node11 -->
<g id="edge100" class="edge"><title>Node17&#45;&gt;Node11</title>
<path style="fill:none;stroke:midnightblue;" d="M625,-224C599,-202 534,-149 475,-112 456,-100 435,-89 418,-81"/>
<polygon style="fill:midnightblue;stroke:midnightblue;" points="419.441,-77.7969 409,-76 416.042,-83.916 419.441,-77.7969"/>
</g>
<!-- Node18 -->
<g id="node56" class="node"><title>Node18</title>
<a xlink:href="parameterized_8h.html" target="_top" xlink:title="ltr/interfaces/parameterized.h">
<polygon style="fill:white;stroke:black;" points="662,-168 662,-188 804,-188 804,-168 662,-168"/>
<text text-anchor="middle" x="733" y="-175" style="font-family:Arial;font-size:10.00;">ltr/interfaces/parameterized.h</text>
</a>
</g>
<!-- Node17&#45;&gt;Node18 -->
<g id="edge76" class="edge"><title>Node17&#45;&gt;Node18</title>
<path style="fill:none;stroke:midnightblue;" d="M654,-224C669,-216 690,-203 707,-193"/>
<polygon style="fill:midnightblue;stroke:midnightblue;" points="708.958,-195.916 716,-188 705.559,-189.797 708.958,-195.916"/>
</g>
<!-- Node18&#45;&gt;Node5 -->
<g id="edge78" class="edge"><title>Node18&#45;&gt;Node5</title>
<path style="fill:none;stroke:midnightblue;" d="M728,-168C720,-154 704,-129 686,-112 673,-100 657,-89 644,-81"/>
<polygon style="fill:midnightblue;stroke:midnightblue;" points="645.441,-77.7969 635,-76 642.042,-83.916 645.441,-77.7969"/>
</g>
<!-- Node18&#45;&gt;Node6 -->
<g id="edge80" class="edge"><title>Node18&#45;&gt;Node6</title>
<path style="fill:none;stroke:midnightblue;" d="M730,-168C721,-141 697,-66 685,-30"/>
<polygon style="fill:midnightblue;stroke:midnightblue;" points="688.226,-28.5725 682,-20 681.521,-30.584 688.226,-28.5725"/>
</g>
<!-- Node19 -->
<g id="node60" class="node"><title>Node19</title>
<a xlink:href="parameters__container_8h.html" target="_top" xlink:title="ltr/parameters_container/parameters_container.h">
<polygon style="fill:white;stroke:black;" points="814,-112 814,-132 1039,-132 1039,-112 814,-112"/>
<text text-anchor="middle" x="926" y="-119" style="font-family:Arial;font-size:10.00;">ltr/parameters_container/parameters_container.h</text>
</a>
</g>
<!-- Node18&#45;&gt;Node19 -->
<g id="edge82" class="edge"><title>Node18&#45;&gt;Node19</title>
<path style="fill:none;stroke:midnightblue;" d="M768,-168C800,-159 847,-145 881,-135"/>
<polygon style="fill:midnightblue;stroke:midnightblue;" points="882.427,-138.226 891,-132 880.416,-131.521 882.427,-138.226"/>
</g>
<!-- Node19&#45;&gt;Node5 -->
<g id="edge88" class="edge"><title>Node19&#45;&gt;Node5</title>
<path style="fill:none;stroke:midnightblue;" d="M870,-112C808,-101 710,-83 655,-73"/>
<polygon style="fill:midnightblue;stroke:midnightblue;" points="655.492,-69.5292 645,-71 654.119,-76.3933 655.492,-69.5292"/>
</g>
<!-- Node19&#45;&gt;Node6 -->
<g id="edge90" class="edge"><title>Node19&#45;&gt;Node6</title>
<path style="fill:none;stroke:midnightblue;" d="M863,-112C814,-103 751,-90 729,-76 711,-64 697,-44 689,-29"/>
<polygon style="fill:midnightblue;stroke:midnightblue;" points="691.916,-27.0418 684,-20 685.797,-30.4414 691.916,-27.0418"/>
</g>
<!-- Node19&#45;&gt;Node10 -->
<g id="edge98" class="edge"><title>Node19&#45;&gt;Node10</title>
<path style="fill:none;stroke:midnightblue;" d="M814,-116C695,-109 503,-96 327,-76"/>
<polygon style="fill:midnightblue;stroke:midnightblue;" points="327.299,-72.5125 317,-75 326.602,-79.4778 327.299,-72.5125"/>
</g>
<!-- Node19&#45;&gt;Node11 -->
<g id="edge96" class="edge"><title>Node19&#45;&gt;Node11</title>
<path style="fill:none;stroke:midnightblue;" d="M830,-112C721,-100 545,-82 451,-73"/>
<polygon style="fill:midnightblue;stroke:midnightblue;" points="451.299,-69.5125 441,-72 450.602,-76.4778 451.299,-69.5125"/>
</g>
<!-- Node20 -->
<g id="node62" class="node"><title>Node20</title>
<polygon style="fill:white;stroke:#bfbfbf;" points="978,-56 978,-76 1052,-76 1052,-56 978,-56"/>
<text text-anchor="middle" x="1015" y="-63" style="font-family:Arial;font-size:10.00;">logog/logog.h</text>
</g>
<!-- Node19&#45;&gt;Node20 -->
<g id="edge84" class="edge"><title>Node19&#45;&gt;Node20</title>
<path style="fill:none;stroke:midnightblue;" d="M942,-112C955,-104 975,-91 990,-81"/>
<polygon style="fill:midnightblue;stroke:midnightblue;" points="991.958,-83.916 999,-76 988.559,-77.7969 991.958,-83.916"/>
</g>
<!-- Node21 -->
<g id="node64" class="node"><title>Node21</title>
<polygon style="fill:white;stroke:#bfbfbf;" points="1070,-56 1070,-76 1099,-76 1099,-56 1070,-56"/>
<text text-anchor="middle" x="1084" y="-63" style="font-family:Arial;font-size:10.00;">list</text>
</g>
<!-- Node19&#45;&gt;Node21 -->
<g id="edge86" class="edge"><title>Node19&#45;&gt;Node21</title>
<path style="fill:none;stroke:midnightblue;" d="M957,-112C982,-104 1019,-91 1061,-76"/>
<polygon style="fill:midnightblue;stroke:midnightblue;" points="1062.28,-79.2598 1070,-72 1059.44,-72.8631 1062.28,-79.2598"/>
</g>
<!-- Node22 -->
<g id="node68" class="node"><title>Node22</title>
<polygon style="fill:white;stroke:#bfbfbf;" points="738,-56 738,-76 815,-76 815,-56 738,-56"/>
<text text-anchor="middle" x="776" y="-63" style="font-family:Arial;font-size:10.00;">boost/any.hpp</text>
</g>
<!-- Node19&#45;&gt;Node22 -->
<g id="edge92" class="edge"><title>Node19&#45;&gt;Node22</title>
<path style="fill:none;stroke:midnightblue;" d="M899,-112C875,-103 839,-90 813,-80"/>
<polygon style="fill:midnightblue;stroke:midnightblue;" points="813.585,-76.4643 803,-76 810.985,-82.9636 813.585,-76.4643"/>
</g>
<!-- Node23 -->
<g id="node70" class="node"><title>Node23</title>
<polygon style="fill:white;stroke:#bfbfbf;" points="832,-56 832,-76 961,-76 961,-56 832,-56"/>
<text text-anchor="middle" x="896" y="-63" style="font-family:Arial;font-size:10.00;">boost/unordered_map.hpp</text>
</g>
<!-- Node19&#45;&gt;Node23 -->
<g id="edge94" class="edge"><title>Node19&#45;&gt;Node23</title>
<path style="fill:none;stroke:midnightblue;" d="M921,-112C917,-105 911,-94 906,-85"/>
<polygon style="fill:midnightblue;stroke:midnightblue;" points="909.26,-83.7166 902,-76 902.863,-86.5596 909.26,-83.7166"/>
</g>
<!-- Node24&#45;&gt;Node7 -->
<g id="edge104" class="edge"><title>Node24&#45;&gt;Node7</title>
<path style="fill:none;stroke:midnightblue;" d="M379,-224C364,-204 331,-164 312,-140"/>
<polygon style="fill:midnightblue;stroke:midnightblue;" points="314.8,-137.9 306,-132 309.2,-142.1 314.8,-137.9"/>
</g>
<!-- Node24&#45;&gt;Node11 -->
<g id="edge112" class="edge"><title>Node24&#45;&gt;Node11</title>
<path style="fill:none;stroke:midnightblue;" d="M387,-224C387,-197 387,-123 387,-86"/>
<polygon style="fill:midnightblue;stroke:midnightblue;" points="390.5,-86 387,-76 383.5,-86 390.5,-86"/>
</g>
<!-- Node24&#45;&gt;Node15 -->
<g id="edge108" class="edge"><title>Node24&#45;&gt;Node15</title>
<path style="fill:none;stroke:midnightblue;" d="M401,-224C412,-216 429,-204 442,-194"/>
<polygon style="fill:midnightblue;stroke:midnightblue;" points="444.1,-196.8 450,-188 439.9,-191.2 444.1,-196.8"/>
</g>
<!-- Node24&#45;&gt;Node16 -->
<g id="edge106" class="edge"><title>Node24&#45;&gt;Node16</title>
<path style="fill:none;stroke:midnightblue;" d="M355,-224C325,-215 281,-201 249,-191"/>
<polygon style="fill:midnightblue;stroke:midnightblue;" points="249.584,-187.521 239,-188 247.573,-194.226 249.584,-187.521"/>
</g>
<!-- Node24&#45;&gt;Node18 -->
<g id="edge110" class="edge"><title>Node24&#45;&gt;Node18</title>
<path style="fill:none;stroke:midnightblue;" d="M449,-224C509,-215 598,-200 661,-190"/>
<polygon style="fill:midnightblue;stroke:midnightblue;" points="661.881,-193.393 671,-188 660.508,-186.529 661.881,-193.393"/>
</g>
<!-- Node25&#45;&gt;Node6 -->
<g id="edge116" class="edge"><title>Node25&#45;&gt;Node6</title>
<path style="fill:none;stroke:midnightblue;" d="M1239,-112C1228,-97 1205,-68 1178,-56 1136,-36 811,-17 709,-12"/>
<polygon style="fill:midnightblue;stroke:midnightblue;" points="709.299,-8.5125 699,-11 708.602,-15.4778 709.299,-8.5125"/>
</g>
</g>
</svg>
