<?xml version="1.0" encoding="UTF-8" standalone="no"?>
<!DOCTYPE svg PUBLIC "-//W3C//DTD SVG 1.0//EN"
 "http://www.w3.org/TR/2001/REC-SVG-20010904/DTD/svg10.dtd" [
 <!ATTLIST svg xmlns:xlink CDATA #FIXED "http://www.w3.org/1999/xlink">
]>
<!-- Generated by Graphviz version 2.20.2 (Tue Mar &#160;2 19:03:41 UTC 2010)
     For user: (jenkins)  -->
<!-- Title: G Pages: 1 -->
<svg width="574pt" height="84pt"
 viewBox="0.00 0.00 574.00 84.00" xmlns="http://www.w3.org/2000/svg" xmlns:xlink="http://www.w3.org/1999/xlink">
<g id="graph0" class="graph" transform="scale(1 1) rotate(0) translate(4 80)">
<title>G</title>
<polygon style="fill:white;stroke:white;" points="-4,4 -4,-80 570,-80 570,4 -4,4"/>
<!-- Node1 -->
<g id="node1" class="node"><title>Node1</title>
<polygon style="fill:#bfbfbf;stroke:black;" points="90,-56 90,-76 282,-76 282,-56 90,-56"/>
<text text-anchor="middle" x="186" y="-63" style="font-family:Arial;font-size:10.00;">ltr/data/utility/data_set_label_statistics.h</text>
</g>
<!-- Node2 -->
<g id="node3" class="node"><title>Node2</title>
<polygon style="fill:white;stroke:#bfbfbf;" points="0,-0 0,-20 35,-20 35,-0 0,-0"/>
<text text-anchor="middle" x="17" y="-7" style="font-family:Arial;font-size:10.00;">map</text>
</g>
<!-- Node1&#45;&gt;Node2 -->
<g id="edge2" class="edge"><title>Node1&#45;&gt;Node2</title>
<path style="fill:none;stroke:midnightblue;" d="M153,-56C126,-48 87,-35 45,-20"/>
<polygon style="fill:midnightblue;stroke:midnightblue;" points="45.584,-16.5212 35,-17 43.5725,-23.2259 45.584,-16.5212"/>
</g>
<!-- Node3 -->
<g id="node5" class="node"><title>Node3</title>
<polygon style="fill:white;stroke:#bfbfbf;" points="52,-0 52,-20 94,-20 94,-0 52,-0"/>
<text text-anchor="middle" x="73" y="-7" style="font-family:Arial;font-size:10.00;">vector</text>
</g>
<!-- Node1&#45;&gt;Node3 -->
<g id="edge4" class="edge"><title>Node1&#45;&gt;Node3</title>
<path style="fill:none;stroke:midnightblue;" d="M166,-56C148,-47 122,-34 102,-24"/>
<polygon style="fill:midnightblue;stroke:midnightblue;" points="103.56,-20.8631 93,-20 100.717,-27.2598 103.56,-20.8631"/>
</g>
<!-- Node4 -->
<g id="node7" class="node"><title>Node4</title>
<polygon style="fill:white;stroke:#bfbfbf;" points="112,-0 112,-20 169,-20 169,-0 112,-0"/>
<text text-anchor="middle" x="140" y="-7" style="font-family:Arial;font-size:10.00;">functional</text>
</g>
<!-- Node1&#45;&gt;Node4 -->
<g id="edge6" class="edge"><title>Node1&#45;&gt;Node4</title>
<path style="fill:none;stroke:midnightblue;" d="M178,-56C172,-48 163,-38 155,-28"/>
<polygon style="fill:midnightblue;stroke:midnightblue;" points="157.8,-25.9 149,-20 152.2,-30.1 157.8,-25.9"/>
</g>
<!-- Node5 -->
<g id="node9" class="node"><title>Node5</title>
<polygon style="fill:white;stroke:#bfbfbf;" points="186,-0 186,-20 281,-20 281,-0 186,-0"/>
<text text-anchor="middle" x="233" y="-7" style="font-family:Arial;font-size:10.00;">ltr/data/data_set.h</text>
</g>
<!-- Node1&#45;&gt;Node5 -->
<g id="edge8" class="edge"><title>Node1&#45;&gt;Node5</title>
<path style="fill:none;stroke:midnightblue;" d="M194,-56C201,-48 210,-38 218,-28"/>
<polygon style="fill:midnightblue;stroke:midnightblue;" points="220.8,-30.1 224,-20 215.2,-25.9 220.8,-30.1"/>
</g>
<!-- Node6 -->
<g id="node11" class="node"><title>Node6</title>
<polygon style="fill:white;stroke:#bfbfbf;" points="298,-0 298,-20 445,-20 445,-0 298,-0"/>
<text text-anchor="middle" x="371" y="-7" style="font-family:Arial;font-size:10.00;">ltr/data/per_object_accessor.h</text>
</g>
<!-- Node1&#45;&gt;Node6 -->
<g id="edge10" class="edge"><title>Node1&#45;&gt;Node6</title>
<path style="fill:none;stroke:midnightblue;" d="M219,-56C249,-47 294,-33 328,-23"/>
<polygon style="fill:midnightblue;stroke:midnightblue;" points="329.427,-26.2259 338,-20 327.416,-19.5212 329.427,-26.2259"/>
</g>
<!-- Node7 -->
<g id="node13" class="node"><title>Node7</title>
<polygon style="fill:white;stroke:#bfbfbf;" points="462,-0 462,-20 566,-20 566,-0 462,-0"/>
<text text-anchor="middle" x="514" y="-7" style="font-family:Arial;font-size:10.00;">ltr/utility/numerical.h</text>
</g>
<!-- Node1&#45;&gt;Node7 -->
<g id="edge12" class="edge"><title>Node1&#45;&gt;Node7</title>
<path style="fill:none;stroke:midnightblue;" d="M245,-56C304,-47 393,-31 452,-21"/>
<polygon style="fill:midnightblue;stroke:midnightblue;" points="452.881,-24.3933 462,-19 451.508,-17.5292 452.881,-24.3933"/>
</g>
</g>
</svg>
