<?xml version="1.0" encoding="UTF-8" standalone="no"?>
<!DOCTYPE svg PUBLIC "-//W3C//DTD SVG 1.0//EN"
 "http://www.w3.org/TR/2001/REC-SVG-20010904/DTD/svg10.dtd" [
 <!ATTLIST svg xmlns:xlink CDATA #FIXED "http://www.w3.org/1999/xlink">
]>
<!-- Generated by Graphviz version 2.20.2 (Tue Mar &#160;2 19:03:41 UTC 2010)
     For user: (jenkins)  -->
<!-- Title: G Pages: 1 -->
<svg width="1434pt" height="84pt"
 viewBox="0.00 0.00 1434.00 84.00" xmlns="http://www.w3.org/2000/svg" xmlns:xlink="http://www.w3.org/1999/xlink">
<g id="graph0" class="graph" transform="scale(1 1) rotate(0) translate(4 80)">
<title>G</title>
<polygon style="fill:white;stroke:white;" points="-4,4 -4,-80 1430,-80 1430,4 -4,4"/>
<!-- Node1 -->
<g id="node1" class="node"><title>Node1</title>
<polygon style="fill:#bfbfbf;stroke:black;" points="297,-56 297,-76 516,-76 516,-56 297,-56"/>
<text text-anchor="middle" x="406" y="-63" style="font-family:Arial;font-size:10.00;">ltr/data_preprocessors/data_random_sampler.h</text>
</g>
<!-- Node2 -->
<g id="node3" class="node"><title>Node2</title>
<polygon style="fill:white;stroke:#bfbfbf;" points="0,-0 0,-20 56,-20 56,-0 0,-0"/>
<text text-anchor="middle" x="28" y="-7" style="font-family:Arial;font-size:10.00;">algorithm</text>
</g>
<!-- Node1&#45;&gt;Node2 -->
<g id="edge2" class="edge"><title>Node1&#45;&gt;Node2</title>
<path style="fill:none;stroke:midnightblue;" d="M307,-56C242,-48 153,-37 66,-20"/>
<polygon style="fill:midnightblue;stroke:midnightblue;" points="66.4922,-16.5292 56,-18 65.1194,-23.3933 66.4922,-16.5292"/>
</g>
<!-- Node3 -->
<g id="node5" class="node"><title>Node3</title>
<polygon style="fill:white;stroke:#bfbfbf;" points="74,-0 74,-20 114,-20 114,-0 74,-0"/>
<text text-anchor="middle" x="94" y="-7" style="font-family:Arial;font-size:10.00;">ctime</text>
</g>
<!-- Node1&#45;&gt;Node3 -->
<g id="edge4" class="edge"><title>Node1&#45;&gt;Node3</title>
<path style="fill:none;stroke:midnightblue;" d="M321,-56C267,-48 196,-37 124,-20"/>
<polygon style="fill:midnightblue;stroke:midnightblue;" points="124.584,-16.5212 114,-17 122.573,-23.2259 124.584,-16.5212"/>
</g>
<!-- Node4 -->
<g id="node7" class="node"><title>Node4</title>
<polygon style="fill:white;stroke:#bfbfbf;" points="132,-0 132,-20 175,-20 175,-0 132,-0"/>
<text text-anchor="middle" x="153" y="-7" style="font-family:Arial;font-size:10.00;">cmath</text>
</g>
<!-- Node1&#45;&gt;Node4 -->
<g id="edge6" class="edge"><title>Node1&#45;&gt;Node4</title>
<path style="fill:none;stroke:midnightblue;" d="M348,-56C305,-48 245,-36 185,-20"/>
<polygon style="fill:midnightblue;stroke:midnightblue;" points="185.584,-16.5212 175,-17 183.573,-23.2259 185.584,-16.5212"/>
</g>
<!-- Node5 -->
<g id="node9" class="node"><title>Node5</title>
<polygon style="fill:white;stroke:#bfbfbf;" points="192,-0 192,-20 243,-20 243,-0 192,-0"/>
<text text-anchor="middle" x="217" y="-7" style="font-family:Arial;font-size:10.00;">sstream</text>
</g>
<!-- Node1&#45;&gt;Node5 -->
<g id="edge8" class="edge"><title>Node1&#45;&gt;Node5</title>
<path style="fill:none;stroke:midnightblue;" d="M372,-56C338,-46 287,-31 253,-21"/>
<polygon style="fill:midnightblue;stroke:midnightblue;" points="253.584,-17.5212 243,-18 251.573,-24.2259 253.584,-17.5212"/>
</g>
<!-- Node6 -->
<g id="node11" class="node"><title>Node6</title>
<polygon style="fill:white;stroke:#bfbfbf;" points="260,-0 260,-20 300,-20 300,-0 260,-0"/>
<text text-anchor="middle" x="280" y="-7" style="font-family:Arial;font-size:10.00;">string</text>
</g>
<!-- Node1&#45;&gt;Node6 -->
<g id="edge10" class="edge"><title>Node1&#45;&gt;Node6</title>
<path style="fill:none;stroke:midnightblue;" d="M383,-56C363,-47 332,-33 309,-23"/>
<polygon style="fill:midnightblue;stroke:midnightblue;" points="310.56,-19.8631 300,-19 307.717,-26.2598 310.56,-19.8631"/>
</g>
<!-- Node7 -->
<g id="node13" class="node"><title>Node7</title>
<polygon style="fill:white;stroke:#bfbfbf;" points="318,-0 318,-20 360,-20 360,-0 318,-0"/>
<text text-anchor="middle" x="339" y="-7" style="font-family:Arial;font-size:10.00;">vector</text>
</g>
<!-- Node1&#45;&gt;Node7 -->
<g id="edge12" class="edge"><title>Node1&#45;&gt;Node7</title>
<path style="fill:none;stroke:midnightblue;" d="M394,-56C384,-48 371,-36 359,-27"/>
<polygon style="fill:midnightblue;stroke:midnightblue;" points="360.831,-23.9511 351,-20 356.221,-29.2191 360.831,-23.9511"/>
</g>
<!-- Node8 -->
<g id="node15" class="node"><title>Node8</title>
<polygon style="fill:white;stroke:#bfbfbf;" points="378,-0 378,-20 435,-20 435,-0 378,-0"/>
<text text-anchor="middle" x="406" y="-7" style="font-family:Arial;font-size:10.00;">functional</text>
</g>
<!-- Node1&#45;&gt;Node8 -->
<g id="edge14" class="edge"><title>Node1&#45;&gt;Node8</title>
<path style="fill:none;stroke:midnightblue;" d="M406,-56C406,-49 406,-39 406,-30"/>
<polygon style="fill:midnightblue;stroke:midnightblue;" points="409.5,-30 406,-20 402.5,-30 409.5,-30"/>
</g>
<!-- Node9 -->
<g id="node17" class="node"><title>Node9</title>
<polygon style="fill:white;stroke:#bfbfbf;" points="452,-0 452,-20 546,-20 546,-0 452,-0"/>
<text text-anchor="middle" x="499" y="-7" style="font-family:Arial;font-size:10.00;">boost/random.hpp</text>
</g>
<!-- Node1&#45;&gt;Node9 -->
<g id="edge16" class="edge"><title>Node1&#45;&gt;Node9</title>
<path style="fill:none;stroke:midnightblue;" d="M423,-56C436,-48 457,-35 473,-25"/>
<polygon style="fill:midnightblue;stroke:midnightblue;" points="474.958,-27.916 482,-20 471.559,-21.7969 474.958,-27.916"/>
</g>
<!-- Node10 -->
<g id="node19" class="node"><title>Node10</title>
<polygon style="fill:white;stroke:#bfbfbf;" points="564,-0 564,-20 776,-20 776,-0 564,-0"/>
<text text-anchor="middle" x="670" y="-7" style="font-family:Arial;font-size:10.00;">boost/random/random_number_generator.hpp</text>
</g>
<!-- Node1&#45;&gt;Node10 -->
<g id="edge18" class="edge"><title>Node1&#45;&gt;Node10</title>
<path style="fill:none;stroke:midnightblue;" d="M453,-56C498,-47 565,-32 613,-22"/>
<polygon style="fill:midnightblue;stroke:midnightblue;" points="613.881,-25.3933 623,-20 612.508,-18.5292 613.881,-25.3933"/>
</g>
<!-- Node11 -->
<g id="node21" class="node"><title>Node11</title>
<polygon style="fill:white;stroke:#bfbfbf;" points="794,-0 794,-20 901,-20 901,-0 794,-0"/>
<text text-anchor="middle" x="847" y="-7" style="font-family:Arial;font-size:10.00;">boost/shared_ptr.hpp</text>
</g>
<!-- Node1&#45;&gt;Node11 -->
<g id="edge20" class="edge"><title>Node1&#45;&gt;Node11</title>
<path style="fill:none;stroke:midnightblue;" d="M495,-56C569,-47 678,-35 784,-20"/>
<polygon style="fill:midnightblue;stroke:midnightblue;" points="784.398,-23.4778 794,-19 783.701,-16.5125 784.398,-23.4778"/>
</g>
<!-- Node12 -->
<g id="node23" class="node"><title>Node12</title>
<polygon style="fill:white;stroke:#bfbfbf;" points="918,-0 918,-20 1122,-20 1122,-0 918,-0"/>
<text text-anchor="middle" x="1020" y="-7" style="font-family:Arial;font-size:10.00;">ltr/data_preprocessors/data_preprocessor.h</text>
</g>
<!-- Node1&#45;&gt;Node12 -->
<g id="edge22" class="edge"><title>Node1&#45;&gt;Node12</title>
<path style="fill:none;stroke:midnightblue;" d="M516,-56C627,-46 796,-30 908,-20"/>
<polygon style="fill:midnightblue;stroke:midnightblue;" points="908.398,-23.4778 918,-19 907.701,-16.5125 908.398,-23.4778"/>
</g>
<!-- Node13 -->
<g id="node25" class="node"><title>Node13</title>
<polygon style="fill:white;stroke:#bfbfbf;" points="1140,-0 1140,-20 1233,-20 1233,-0 1140,-0"/>
<text text-anchor="middle" x="1186" y="-7" style="font-family:Arial;font-size:10.00;">ltr/utility/indices.h</text>
</g>
<!-- Node1&#45;&gt;Node13 -->
<g id="edge24" class="edge"><title>Node1&#45;&gt;Node13</title>
<path style="fill:none;stroke:midnightblue;" d="M516,-63C657,-58 907,-46 1130,-19"/>
<polygon style="fill:midnightblue;stroke:midnightblue;" points="1130.4,-22.4778 1140,-18 1129.7,-15.5125 1130.4,-22.4778"/>
</g>
<!-- Node14 -->
<g id="node27" class="node"><title>Node14</title>
<polygon style="fill:white;stroke:#bfbfbf;" points="1250,-0 1250,-20 1427,-20 1427,-0 1250,-0"/>
<text text-anchor="middle" x="1338" y="-7" style="font-family:Arial;font-size:10.00;">ltr/utility/random_number_generator.h</text>
</g>
<!-- Node1&#45;&gt;Node14 -->
<g id="edge26" class="edge"><title>Node1&#45;&gt;Node14</title>
<path style="fill:none;stroke:midnightblue;" d="M516,-62C674,-55 973,-40 1240,-20"/>
<polygon style="fill:midnightblue;stroke:midnightblue;" points="1240.4,-23.4778 1250,-19 1239.7,-16.5125 1240.4,-23.4778"/>
</g>
</g>
</svg>
