<?xml version="1.0" encoding="UTF-8" standalone="no"?>
<!DOCTYPE svg PUBLIC "-//W3C//DTD SVG 1.0//EN"
 "http://www.w3.org/TR/2001/REC-SVG-20010904/DTD/svg10.dtd" [
 <!ATTLIST svg xmlns:xlink CDATA #FIXED "http://www.w3.org/1999/xlink">
]>
<!-- Generated by Graphviz version 2.20.2 (Tue Mar &#160;2 19:03:41 UTC 2010)
     For user: (jenkins)  -->
<!-- Title: G Pages: 1 -->
<svg width="1461pt" height="420pt"
 viewBox="0.00 0.00 1461.00 420.00" xmlns="http://www.w3.org/2000/svg" xmlns:xlink="http://www.w3.org/1999/xlink">
<g id="graph0" class="graph" transform="scale(1 1) rotate(0) translate(4 416)">
<title>G</title>
<polygon style="fill:white;stroke:white;" points="-4,4 -4,-416 1457,-416 1457,4 -4,4"/>
<!-- Node1 -->
<g id="node1" class="node"><title>Node1</title>
<polygon style="fill:#bfbfbf;stroke:black;" points="172,-392 172,-412 348,-412 348,-392 172,-392"/>
<text text-anchor="middle" x="260" y="-399" style="font-family:Arial;font-size:10.00;">ltr/data/utility/data_set_converters.cc</text>
</g>
<!-- Node2 -->
<g id="node3" class="node"><title>Node2</title>
<a xlink:href="data__set__converters_8h.html" target="_top" xlink:title="ltr/data/utility/data_set_converters.h">
<polygon style="fill:white;stroke:black;" points="175,-336 175,-356 346,-356 346,-336 175,-336"/>
<text text-anchor="middle" x="260" y="-343" style="font-family:Arial;font-size:10.00;">ltr/data/utility/data_set_converters.h</text>
</a>
</g>
<!-- Node1&#45;&gt;Node2 -->
<g id="edge2" class="edge"><title>Node1&#45;&gt;Node2</title>
<path style="fill:none;stroke:midnightblue;" d="M260,-392C260,-385 260,-375 260,-366"/>
<polygon style="fill:midnightblue;stroke:midnightblue;" points="263.5,-366 260,-356 256.5,-366 263.5,-366"/>
</g>
<!-- Node3 -->
<g id="node5" class="node"><title>Node3</title>
<polygon style="fill:white;stroke:#bfbfbf;" points="65,-280 65,-300 110,-300 110,-280 65,-280"/>
<text text-anchor="middle" x="87" y="-287" style="font-family:Arial;font-size:10.00;">cstdlib</text>
</g>
<!-- Node2&#45;&gt;Node3 -->
<g id="edge4" class="edge"><title>Node2&#45;&gt;Node3</title>
<path style="fill:none;stroke:midnightblue;" d="M229,-336C198,-326 151,-310 120,-301"/>
<polygon style="fill:midnightblue;stroke:midnightblue;" points="120.584,-297.521 110,-298 118.573,-304.226 120.584,-297.521"/>
</g>
<!-- Node4 -->
<g id="node7" class="node"><title>Node4</title>
<polygon style="fill:white;stroke:#bfbfbf;" points="1158,-56 1158,-76 1200,-76 1200,-56 1158,-56"/>
<text text-anchor="middle" x="1179" y="-63" style="font-family:Arial;font-size:10.00;">vector</text>
</g>
<!-- Node2&#45;&gt;Node4 -->
<g id="edge6" class="edge"><title>Node2&#45;&gt;Node4</title>
<path style="fill:none;stroke:midnightblue;" d="M346,-343C443,-338 605,-327 742,-300 825,-283 847,-277 926,-244 1014,-206 1036,-192 1111,-132 1129,-117 1148,-98 1162,-84"/>
<polygon style="fill:midnightblue;stroke:midnightblue;" points="1165.05,-85.8306 1169,-76 1159.78,-81.221 1165.05,-85.8306"/>
</g>
<!-- Node5 -->
<g id="node9" class="node"><title>Node5</title>
<a xlink:href="shared__ptr_8h.html" target="_top" xlink:title="ltr/utility/shared_ptr.h">
<polygon style="fill:white;stroke:black;" points="166,-56 166,-76 273,-76 273,-56 166,-56"/>
<text text-anchor="middle" x="219" y="-63" style="font-family:Arial;font-size:10.00;">ltr/utility/shared_ptr.h</text>
</a>
</g>
<!-- Node2&#45;&gt;Node5 -->
<g id="edge8" class="edge"><title>Node2&#45;&gt;Node5</title>
<path style="fill:none;stroke:midnightblue;" d="M234,-336C198,-320 137,-285 137,-234 137,-234 137,-234 137,-178 137,-138 172,-102 196,-82"/>
<polygon style="fill:midnightblue;stroke:midnightblue;" points="198.1,-84.8 204,-76 193.9,-79.2 198.1,-84.8"/>
</g>
<!-- Node9 -->
<g id="node17" class="node"><title>Node9</title>
<a xlink:href="data__set_8h.html" target="_top" xlink:title="ltr/data/data_set.h">
<polygon style="fill:white;stroke:black;" points="639,-280 639,-300 734,-300 734,-280 639,-280"/>
<text text-anchor="middle" x="686" y="-287" style="font-family:Arial;font-size:10.00;">ltr/data/data_set.h</text>
</a>
</g>
<!-- Node2&#45;&gt;Node9 -->
<g id="edge16" class="edge"><title>Node2&#45;&gt;Node9</title>
<path style="fill:none;stroke:midnightblue;" d="M336,-336C420,-325 553,-308 629,-297"/>
<polygon style="fill:midnightblue;stroke:midnightblue;" points="629.398,-300.478 639,-296 628.701,-293.512 629.398,-300.478"/>
</g>
<!-- Node13 -->
<g id="node26" class="node"><title>Node13</title>
<a xlink:href="object_8h.html" target="_top" xlink:title="ltr/data/object.h">
<polygon style="fill:white;stroke:black;" points="355,-112 355,-132 439,-132 439,-112 355,-112"/>
<text text-anchor="middle" x="397" y="-119" style="font-family:Arial;font-size:10.00;">ltr/data/object.h</text>
</a>
</g>
<!-- Node2&#45;&gt;Node13 -->
<g id="edge124" class="edge"><title>Node2&#45;&gt;Node13</title>
<path style="fill:none;stroke:midnightblue;" d="M266,-336C287,-301 358,-186 386,-141"/>
<polygon style="fill:midnightblue;stroke:midnightblue;" points="389.203,-142.441 391,-132 383.084,-139.042 389.203,-142.441"/>
</g>
<!-- Node26 -->
<g id="node80" class="node"><title>Node26</title>
<a xlink:href="per__object__accessor_8h.html" target="_top" xlink:title="ltr/data/per_object_accessor.h">
<polygon style="fill:white;stroke:black;" points="406,-224 406,-244 553,-244 553,-224 406,-224"/>
<text text-anchor="middle" x="479" y="-231" style="font-family:Arial;font-size:10.00;">ltr/data/per_object_accessor.h</text>
</a>
</g>
<!-- Node2&#45;&gt;Node26 -->
<g id="edge126" class="edge"><title>Node2&#45;&gt;Node26</title>
<path style="fill:none;stroke:midnightblue;" d="M280,-336C319,-315 405,-271 450,-249"/>
<polygon style="fill:midnightblue;stroke:midnightblue;" points="451.958,-251.916 459,-244 448.559,-245.797 451.958,-251.916"/>
</g>
<!-- Node6 -->
<g id="node11" class="node"><title>Node6</title>
<polygon style="fill:white;stroke:#bfbfbf;" points="332,-0 332,-20 388,-20 388,-0 332,-0"/>
<text text-anchor="middle" x="360" y="-7" style="font-family:Arial;font-size:10.00;">algorithm</text>
</g>
<!-- Node5&#45;&gt;Node6 -->
<g id="edge10" class="edge"><title>Node5&#45;&gt;Node6</title>
<path style="fill:none;stroke:midnightblue;" d="M244,-56C267,-47 300,-34 325,-24"/>
<polygon style="fill:midnightblue;stroke:midnightblue;" points="327.015,-26.9636 335,-20 324.415,-20.4643 327.015,-26.9636"/>
</g>
<!-- Node7 -->
<g id="node13" class="node"><title>Node7</title>
<polygon style="fill:white;stroke:#bfbfbf;" points="0,-0 0,-20 107,-20 107,-0 0,-0"/>
<text text-anchor="middle" x="53" y="-7" style="font-family:Arial;font-size:10.00;">boost/shared_ptr.hpp</text>
</g>
<!-- Node5&#45;&gt;Node7 -->
<g id="edge12" class="edge"><title>Node5&#45;&gt;Node7</title>
<path style="fill:none;stroke:midnightblue;" d="M189,-56C162,-47 122,-33 93,-23"/>
<polygon style="fill:midnightblue;stroke:midnightblue;" points="93.584,-19.5212 83,-20 91.5725,-26.2259 93.584,-19.5212"/>
</g>
<!-- Node8 -->
<g id="node15" class="node"><title>Node8</title>
<polygon style="fill:white;stroke:#bfbfbf;" points="124,-0 124,-20 315,-20 315,-0 124,-0"/>
<text text-anchor="middle" x="219" y="-7" style="font-family:Arial;font-size:10.00;">boost/smart_ptr/detail/operator_bool.hpp</text>
</g>
<!-- Node5&#45;&gt;Node8 -->
<g id="edge14" class="edge"><title>Node5&#45;&gt;Node8</title>
<path style="fill:none;stroke:midnightblue;" d="M219,-56C219,-49 219,-39 219,-30"/>
<polygon style="fill:midnightblue;stroke:midnightblue;" points="222.5,-30 219,-20 215.5,-30 222.5,-30"/>
</g>
<!-- Node9&#45;&gt;Node4 -->
<g id="edge24" class="edge"><title>Node9&#45;&gt;Node4</title>
<path style="fill:none;stroke:midnightblue;" d="M734,-284C777,-277 842,-264 895,-244 986,-208 1003,-185 1086,-132 1111,-116 1138,-95 1157,-82"/>
<polygon style="fill:midnightblue;stroke:midnightblue;" points="1159.1,-84.8 1165,-76 1154.9,-79.2 1159.1,-84.8"/>
</g>
<!-- Node10 -->
<g id="node19" class="node"><title>Node10</title>
<polygon style="fill:white;stroke:#bfbfbf;" points="570,-224 570,-244 621,-244 621,-224 570,-224"/>
<text text-anchor="middle" x="595" y="-231" style="font-family:Arial;font-size:10.00;">sstream</text>
</g>
<!-- Node9&#45;&gt;Node10 -->
<g id="edge18" class="edge"><title>Node9&#45;&gt;Node10</title>
<path style="fill:none;stroke:midnightblue;" d="M670,-280C657,-272 636,-259 621,-249"/>
<polygon style="fill:midnightblue;stroke:midnightblue;" points="622.441,-245.797 612,-244 619.042,-251.916 622.441,-245.797"/>
</g>
<!-- Node11 -->
<g id="node21" class="node"><title>Node11</title>
<polygon style="fill:white;stroke:#bfbfbf;" points="628,-56 628,-76 687,-76 687,-56 628,-56"/>
<text text-anchor="middle" x="657" y="-63" style="font-family:Arial;font-size:10.00;">stdexcept</text>
</g>
<!-- Node9&#45;&gt;Node11 -->
<g id="edge20" class="edge"><title>Node9&#45;&gt;Node11</title>
<path style="fill:none;stroke:midnightblue;" d="M688,-280C692,-252 702,-173 685,-112 682,-102 677,-92 672,-84"/>
<polygon style="fill:midnightblue;stroke:midnightblue;" points="674.8,-81.9 666,-76 669.2,-86.1 674.8,-81.9"/>
</g>
<!-- Node12 -->
<g id="node23" class="node"><title>Node12</title>
<polygon style="fill:white;stroke:#bfbfbf;" points="1072,-0 1072,-20 1112,-20 1112,-0 1072,-0"/>
<text text-anchor="middle" x="1092" y="-7" style="font-family:Arial;font-size:10.00;">string</text>
</g>
<!-- Node9&#45;&gt;Node12 -->
<g id="edge22" class="edge"><title>Node9&#45;&gt;Node12</title>
<path style="fill:none;stroke:midnightblue;" d="M734,-286C829,-275 1041,-239 1180,-132 1210,-108 1246,-87 1224,-56 1212,-39 1157,-24 1122,-16"/>
<polygon style="fill:midnightblue;stroke:midnightblue;" points="1122.49,-12.5292 1112,-14 1121.12,-19.3933 1122.49,-12.5292"/>
</g>
<!-- Node9&#45;&gt;Node13 -->
<g id="edge26" class="edge"><title>Node9&#45;&gt;Node13</title>
<path style="fill:none;stroke:midnightblue;" d="M639,-286C561,-278 412,-262 397,-244 372,-215 382,-168 390,-142"/>
<polygon style="fill:midnightblue;stroke:midnightblue;" points="393.479,-142.584 393,-132 386.774,-140.573 393.479,-142.584"/>
</g>
<!-- Node17 -->
<g id="node40" class="node"><title>Node17</title>
<a xlink:href="object__list_8h.html" target="_top" xlink:title="ltr/data/object_list.h">
<polygon style="fill:white;stroke:black;" points="557,-168 557,-188 659,-188 659,-168 557,-168"/>
<text text-anchor="middle" x="608" y="-175" style="font-family:Arial;font-size:10.00;">ltr/data/object_list.h</text>
</a>
</g>
<!-- Node9&#45;&gt;Node17 -->
<g id="edge46" class="edge"><title>Node9&#45;&gt;Node17</title>
<path style="fill:none;stroke:midnightblue;" d="M684,-280C681,-266 674,-241 662,-224 654,-212 642,-202 632,-194"/>
<polygon style="fill:midnightblue;stroke:midnightblue;" points="634.1,-191.2 624,-188 629.9,-196.8 634.1,-191.2"/>
</g>
<!-- Node18 -->
<g id="node48" class="node"><title>Node18</title>
<a xlink:href="object__pair_8h.html" target="_top" xlink:title="ltr/data/object_pair.h">
<polygon style="fill:white;stroke:black;" points="435,-168 435,-188 539,-188 539,-168 435,-168"/>
<text text-anchor="middle" x="487" y="-175" style="font-family:Arial;font-size:10.00;">ltr/data/object_pair.h</text>
</a>
</g>
<!-- Node9&#45;&gt;Node18 -->
<g id="edge60" class="edge"><title>Node9&#45;&gt;Node18</title>
<path style="fill:none;stroke:midnightblue;" d="M680,-280C671,-265 652,-239 629,-224 605,-208 575,-198 549,-191"/>
<polygon style="fill:midnightblue;stroke:midnightblue;" points="549.584,-187.521 539,-188 547.573,-194.226 549.584,-187.521"/>
</g>
<!-- Node19 -->
<g id="node56" class="node"><title>Node19</title>
<a xlink:href="feature__info_8h.html" target="_top" xlink:title="ltr/data/feature_info.h">
<polygon style="fill:white;stroke:black;" points="780,-224 780,-244 887,-244 887,-224 780,-224"/>
<text text-anchor="middle" x="833" y="-231" style="font-family:Arial;font-size:10.00;">ltr/data/feature_info.h</text>
</a>
</g>
<!-- Node9&#45;&gt;Node19 -->
<g id="edge74" class="edge"><title>Node9&#45;&gt;Node19</title>
<path style="fill:none;stroke:midnightblue;" d="M712,-280C736,-271 771,-258 797,-248"/>
<polygon style="fill:midnightblue;stroke:midnightblue;" points="799.015,-250.964 807,-244 796.415,-244.464 799.015,-250.964"/>
</g>
<!-- Node9&#45;&gt;Node26 -->
<g id="edge108" class="edge"><title>Node9&#45;&gt;Node26</title>
<path style="fill:none;stroke:midnightblue;" d="M649,-280C614,-271 563,-257 526,-247"/>
<polygon style="fill:midnightblue;stroke:midnightblue;" points="526.584,-243.521 516,-244 524.573,-250.226 526.584,-243.521"/>
</g>
<!-- Node27 -->
<g id="node87" class="node"><title>Node27</title>
<a xlink:href="aliaser_8h.html" target="_top" xlink:title="ltr/interfaces/aliaser.h">
<polygon style="fill:white;stroke:black;" points="1345,-112 1345,-132 1453,-132 1453,-112 1345,-112"/>
<text text-anchor="middle" x="1399" y="-119" style="font-family:Arial;font-size:10.00;">ltr/interfaces/aliaser.h</text>
</a>
</g>
<!-- Node9&#45;&gt;Node27 -->
<g id="edge120" class="edge"><title>Node9&#45;&gt;Node27</title>
<path style="fill:none;stroke:midnightblue;" d="M734,-288C863,-282 1207,-263 1255,-244 1310,-220 1361,-167 1384,-140"/>
<polygon style="fill:midnightblue;stroke:midnightblue;" points="1387.05,-141.831 1391,-132 1381.78,-137.221 1387.05,-141.831"/>
</g>
<!-- Node13&#45;&gt;Node4 -->
<g id="edge36" class="edge"><title>Node13&#45;&gt;Node4</title>
<path style="fill:none;stroke:midnightblue;" d="M439,-119C546,-113 833,-95 1073,-76 1098,-74 1126,-71 1148,-69"/>
<polygon style="fill:midnightblue;stroke:midnightblue;" points="1148.4,-72.4778 1158,-68 1147.7,-65.5125 1148.4,-72.4778"/>
</g>
<!-- Node13&#45;&gt;Node5 -->
<g id="edge44" class="edge"><title>Node13&#45;&gt;Node5</title>
<path style="fill:none;stroke:midnightblue;" d="M365,-112C336,-103 293,-89 261,-79"/>
<polygon style="fill:midnightblue;stroke:midnightblue;" points="261.584,-75.5212 251,-76 259.573,-82.2259 261.584,-75.5212"/>
</g>
<!-- Node13&#45;&gt;Node11 -->
<g id="edge32" class="edge"><title>Node13&#45;&gt;Node11</title>
<path style="fill:none;stroke:midnightblue;" d="M439,-113C488,-102 570,-85 618,-74"/>
<polygon style="fill:midnightblue;stroke:midnightblue;" points="618.881,-77.3933 628,-72 617.508,-70.5292 618.881,-77.3933"/>
</g>
<!-- Node13&#45;&gt;Node12 -->
<g id="edge34" class="edge"><title>Node13&#45;&gt;Node12</title>
<path style="fill:none;stroke:midnightblue;" d="M383,-112C366,-98 340,-73 357,-56 381,-30 927,-14 1062,-10"/>
<polygon style="fill:midnightblue;stroke:midnightblue;" points="1062,-13.5001 1072,-10 1062,-6.5001 1062,-13.5001"/>
</g>
<!-- Node14 -->
<g id="node28" class="node"><title>Node14</title>
<polygon style="fill:white;stroke:#bfbfbf;" points="366,-56 366,-76 401,-76 401,-56 366,-56"/>
<text text-anchor="middle" x="383" y="-63" style="font-family:Arial;font-size:10.00;">map</text>
</g>
<!-- Node13&#45;&gt;Node14 -->
<g id="edge28" class="edge"><title>Node13&#45;&gt;Node14</title>
<path style="fill:none;stroke:midnightblue;" d="M394,-112C393,-105 390,-95 388,-86"/>
<polygon style="fill:midnightblue;stroke:midnightblue;" points="391.226,-84.5725 385,-76 384.521,-86.584 391.226,-84.5725"/>
</g>
<!-- Node15 -->
<g id="node30" class="node"><title>Node15</title>
<polygon style="fill:white;stroke:#bfbfbf;" points="428,-0 428,-20 479,-20 479,-0 428,-0"/>
<text text-anchor="middle" x="453" y="-7" style="font-family:Arial;font-size:10.00;">ostream</text>
</g>
<!-- Node13&#45;&gt;Node15 -->
<g id="edge30" class="edge"><title>Node13&#45;&gt;Node15</title>
<path style="fill:none;stroke:midnightblue;" d="M371,-112C343,-100 307,-79 324,-56 335,-41 384,-26 418,-17"/>
<polygon style="fill:midnightblue;stroke:midnightblue;" points="418.881,-20.3933 428,-15 417.508,-13.5292 418.881,-20.3933"/>
</g>
<!-- Node16 -->
<g id="node35" class="node"><title>Node16</title>
<a xlink:href="printable_8h.html" target="_top" xlink:title="ltr/interfaces/printable.h">
<polygon style="fill:white;stroke:black;" points="418,-56 418,-76 535,-76 535,-56 418,-56"/>
<text text-anchor="middle" x="476" y="-63" style="font-family:Arial;font-size:10.00;">ltr/interfaces/printable.h</text>
</a>
</g>
<!-- Node13&#45;&gt;Node16 -->
<g id="edge38" class="edge"><title>Node13&#45;&gt;Node16</title>
<path style="fill:none;stroke:midnightblue;" d="M411,-112C423,-104 440,-91 454,-82"/>
<polygon style="fill:midnightblue;stroke:midnightblue;" points="456.1,-84.8 462,-76 451.9,-79.2 456.1,-84.8"/>
</g>
<!-- Node16&#45;&gt;Node12 -->
<g id="edge42" class="edge"><title>Node16&#45;&gt;Node12</title>
<path style="fill:none;stroke:midnightblue;" d="M535,-57C539,-57 544,-56 548,-56 743,-34 979,-17 1062,-12"/>
<polygon style="fill:midnightblue;stroke:midnightblue;" points="1062.4,-15.4778 1072,-11 1061.7,-8.5125 1062.4,-15.4778"/>
</g>
<!-- Node16&#45;&gt;Node15 -->
<g id="edge40" class="edge"><title>Node16&#45;&gt;Node15</title>
<path style="fill:none;stroke:midnightblue;" d="M472,-56C469,-49 465,-39 461,-29"/>
<polygon style="fill:midnightblue;stroke:midnightblue;" points="464.26,-27.7166 457,-20 457.863,-30.5596 464.26,-27.7166"/>
</g>
<!-- Node17&#45;&gt;Node4 -->
<g id="edge52" class="edge"><title>Node17&#45;&gt;Node4</title>
<path style="fill:none;stroke:midnightblue;" d="M659,-174C771,-165 1027,-144 1065,-132 1099,-121 1135,-98 1157,-82"/>
<polygon style="fill:midnightblue;stroke:midnightblue;" points="1159.1,-84.8 1165,-76 1154.9,-79.2 1159.1,-84.8"/>
</g>
<!-- Node17&#45;&gt;Node5 -->
<g id="edge58" class="edge"><title>Node17&#45;&gt;Node5</title>
<path style="fill:none;stroke:midnightblue;" d="M557,-170C483,-157 355,-136 346,-132 329,-125 326,-120 311,-112 291,-101 268,-89 250,-81"/>
<polygon style="fill:midnightblue;stroke:midnightblue;" points="250.51,-77.3417 240,-76 247.379,-83.6027 250.51,-77.3417"/>
</g>
<!-- Node17&#45;&gt;Node11 -->
<g id="edge48" class="edge"><title>Node17&#45;&gt;Node11</title>
<path style="fill:none;stroke:midnightblue;" d="M630,-168C645,-160 662,-148 671,-132 678,-118 673,-99 667,-85"/>
<polygon style="fill:midnightblue;stroke:midnightblue;" points="670.26,-83.7166 663,-76 663.863,-86.5596 670.26,-83.7166"/>
</g>
<!-- Node17&#45;&gt;Node12 -->
<g id="edge50" class="edge"><title>Node17&#45;&gt;Node12</title>
<path style="fill:none;stroke:midnightblue;" d="M605,-168C599,-144 588,-86 619,-56 650,-24 962,-14 1062,-10"/>
<polygon style="fill:midnightblue;stroke:midnightblue;" points="1062,-13.5001 1072,-10 1062,-6.5001 1062,-13.5001"/>
</g>
<!-- Node17&#45;&gt;Node13 -->
<g id="edge54" class="edge"><title>Node17&#45;&gt;Node13</title>
<path style="fill:none;stroke:midnightblue;" d="M570,-168C535,-159 483,-145 445,-135"/>
<polygon style="fill:midnightblue;stroke:midnightblue;" points="445.584,-131.521 435,-132 443.573,-138.226 445.584,-131.521"/>
</g>
<!-- Node17&#45;&gt;Node16 -->
<g id="edge56" class="edge"><title>Node17&#45;&gt;Node16</title>
<path style="fill:none;stroke:midnightblue;" d="M596,-168C573,-148 524,-107 496,-83"/>
<polygon style="fill:midnightblue;stroke:midnightblue;" points="497.831,-79.9511 488,-76 493.221,-85.2191 497.831,-79.9511"/>
</g>
<!-- Node18&#45;&gt;Node4 -->
<g id="edge66" class="edge"><title>Node18&#45;&gt;Node4</title>
<path style="fill:none;stroke:midnightblue;" d="M539,-169C542,-169 545,-168 548,-168 762,-142 826,-197 1032,-132 1048,-126 1049,-119 1065,-112 1092,-98 1125,-85 1148,-76"/>
<polygon style="fill:midnightblue;stroke:midnightblue;" points="1149.43,-79.2259 1158,-73 1147.42,-72.5212 1149.43,-79.2259"/>
</g>
<!-- Node18&#45;&gt;Node5 -->
<g id="edge72" class="edge"><title>Node18&#45;&gt;Node5</title>
<path style="fill:none;stroke:midnightblue;" d="M435,-169C399,-162 352,-150 313,-132 286,-119 257,-97 239,-83"/>
<polygon style="fill:midnightblue;stroke:midnightblue;" points="240.831,-79.9511 231,-76 236.221,-85.2191 240.831,-79.9511"/>
</g>
<!-- Node18&#45;&gt;Node11 -->
<g id="edge62" class="edge"><title>Node18&#45;&gt;Node11</title>
<path style="fill:none;stroke:midnightblue;" d="M502,-168C516,-158 538,-144 557,-132 583,-115 613,-95 633,-82"/>
<polygon style="fill:midnightblue;stroke:midnightblue;" points="635.1,-84.8 641,-76 630.9,-79.2 635.1,-84.8"/>
</g>
<!-- Node18&#45;&gt;Node12 -->
<g id="edge64" class="edge"><title>Node18&#45;&gt;Node12</title>
<path style="fill:none;stroke:midnightblue;" d="M493,-168C507,-143 547,-81 599,-56 640,-35 961,-16 1062,-11"/>
<polygon style="fill:midnightblue;stroke:midnightblue;" points="1062,-14.5001 1072,-11 1062,-7.5001 1062,-14.5001"/>
</g>
<!-- Node18&#45;&gt;Node13 -->
<g id="edge68" class="edge"><title>Node18&#45;&gt;Node13</title>
<path style="fill:none;stroke:midnightblue;" d="M471,-168C458,-160 438,-147 422,-137"/>
<polygon style="fill:midnightblue;stroke:midnightblue;" points="423.441,-133.797 413,-132 420.042,-139.916 423.441,-133.797"/>
</g>
<!-- Node18&#45;&gt;Node16 -->
<g id="edge70" class="edge"><title>Node18&#45;&gt;Node16</title>
<path style="fill:none;stroke:midnightblue;" d="M486,-168C484,-149 480,-110 478,-86"/>
<polygon style="fill:midnightblue;stroke:midnightblue;" points="481.478,-85.6021 477,-76 474.512,-86.2987 481.478,-85.6021"/>
</g>
<!-- Node19&#45;&gt;Node4 -->
<g id="edge80" class="edge"><title>Node19&#45;&gt;Node4</title>
<path style="fill:none;stroke:midnightblue;" d="M857,-224C879,-215 912,-201 941,-188 993,-164 1006,-158 1058,-132 1091,-115 1128,-94 1152,-81"/>
<polygon style="fill:midnightblue;stroke:midnightblue;" points="1153.96,-83.916 1161,-76 1150.56,-77.7969 1153.96,-83.916"/>
</g>
<!-- Node19&#45;&gt;Node5 -->
<g id="edge106" class="edge"><title>Node19&#45;&gt;Node5</title>
<path style="fill:none;stroke:midnightblue;" d="M780,-232C702,-228 551,-218 426,-188 356,-171 333,-173 275,-132 257,-119 241,-99 231,-84"/>
<polygon style="fill:midnightblue;stroke:midnightblue;" points="233.8,-81.9 225,-76 228.2,-86.1 233.8,-81.9"/>
</g>
<!-- Node19&#45;&gt;Node12 -->
<g id="edge78" class="edge"><title>Node19&#45;&gt;Node12</title>
<path style="fill:none;stroke:midnightblue;" d="M887,-230C973,-220 1138,-186 1209,-76 1232,-40 1163,-22 1122,-15"/>
<polygon style="fill:midnightblue;stroke:midnightblue;" points="1122.49,-11.5292 1112,-13 1121.12,-18.3933 1122.49,-11.5292"/>
</g>
<!-- Node19&#45;&gt;Node14 -->
<g id="edge76" class="edge"><title>Node19&#45;&gt;Node14</title>
<path style="fill:none;stroke:midnightblue;" d="M809,-224C777,-211 718,-186 668,-168 556,-125 525,-118 410,-76"/>
<polygon style="fill:midnightblue;stroke:midnightblue;" points="411.594,-72.842 401,-73 409.38,-79.4827 411.594,-72.842"/>
</g>
<!-- Node20 -->
<g id="node61" class="node"><title>Node20</title>
<a xlink:href="parameterized_8h.html" target="_top" xlink:title="ltr/interfaces/parameterized.h">
<polygon style="fill:white;stroke:black;" points="790,-168 790,-188 932,-188 932,-168 790,-168"/>
<text text-anchor="middle" x="861" y="-175" style="font-family:Arial;font-size:10.00;">ltr/interfaces/parameterized.h</text>
</a>
</g>
<!-- Node19&#45;&gt;Node20 -->
<g id="edge82" class="edge"><title>Node19&#45;&gt;Node20</title>
<path style="fill:none;stroke:midnightblue;" d="M838,-224C842,-217 847,-206 852,-197"/>
<polygon style="fill:midnightblue;stroke:midnightblue;" points="855.137,-198.56 856,-188 848.74,-195.717 855.137,-198.56"/>
</g>
<!-- Node20&#45;&gt;Node11 -->
<g id="edge84" class="edge"><title>Node20&#45;&gt;Node11</title>
<path style="fill:none;stroke:midnightblue;" d="M844,-168C822,-155 782,-130 747,-112 727,-101 704,-89 687,-81"/>
<polygon style="fill:midnightblue;stroke:midnightblue;" points="688.441,-77.7969 678,-76 685.042,-83.916 688.441,-77.7969"/>
</g>
<!-- Node20&#45;&gt;Node12 -->
<g id="edge86" class="edge"><title>Node20&#45;&gt;Node12</title>
<path style="fill:none;stroke:midnightblue;" d="M927,-168C960,-161 1000,-150 1032,-132 1063,-114 1075,-108 1090,-76 1096,-62 1096,-44 1095,-30"/>
<polygon style="fill:midnightblue;stroke:midnightblue;" points="1098.48,-29.6021 1094,-20 1091.51,-30.2987 1098.48,-29.6021"/>
</g>
<!-- Node21 -->
<g id="node65" class="node"><title>Node21</title>
<a xlink:href="parameters__container_8h.html" target="_top" xlink:title="ltr/parameters_container/parameters_container.h">
<polygon style="fill:white;stroke:black;" points="799,-112 799,-132 1024,-132 1024,-112 799,-112"/>
<text text-anchor="middle" x="911" y="-119" style="font-family:Arial;font-size:10.00;">ltr/parameters_container/parameters_container.h</text>
</a>
</g>
<!-- Node20&#45;&gt;Node21 -->
<g id="edge88" class="edge"><title>Node20&#45;&gt;Node21</title>
<path style="fill:none;stroke:midnightblue;" d="M870,-168C877,-160 887,-149 895,-140"/>
<polygon style="fill:midnightblue;stroke:midnightblue;" points="898.049,-141.831 902,-132 892.781,-137.221 898.049,-141.831"/>
</g>
<!-- Node21&#45;&gt;Node5 -->
<g id="edge102" class="edge"><title>Node21&#45;&gt;Node5</title>
<path style="fill:none;stroke:midnightblue;" d="M799,-113C652,-101 401,-80 283,-71"/>
<polygon style="fill:midnightblue;stroke:midnightblue;" points="283.299,-67.5125 273,-70 282.602,-74.4778 283.299,-67.5125"/>
</g>
<!-- Node21&#45;&gt;Node11 -->
<g id="edge94" class="edge"><title>Node21&#45;&gt;Node11</title>
<path style="fill:none;stroke:midnightblue;" d="M861,-112C819,-103 759,-90 697,-76"/>
<polygon style="fill:midnightblue;stroke:midnightblue;" points="697.492,-72.5292 687,-74 696.119,-79.3933 697.492,-72.5292"/>
</g>
<!-- Node21&#45;&gt;Node12 -->
<g id="edge96" class="edge"><title>Node21&#45;&gt;Node12</title>
<path style="fill:none;stroke:midnightblue;" d="M967,-112C1007,-104 1058,-91 1073,-76 1085,-64 1089,-45 1091,-30"/>
<polygon style="fill:midnightblue;stroke:midnightblue;" points="1094.49,-30.2987 1092,-20 1087.52,-29.6021 1094.49,-30.2987"/>
</g>
<!-- Node21&#45;&gt;Node16 -->
<g id="edge104" class="edge"><title>Node21&#45;&gt;Node16</title>
<path style="fill:none;stroke:midnightblue;" d="M833,-112C752,-101 624,-85 545,-75"/>
<polygon style="fill:midnightblue;stroke:midnightblue;" points="545.299,-71.5125 535,-74 544.602,-78.4778 545.299,-71.5125"/>
</g>
<!-- Node22 -->
<g id="node67" class="node"><title>Node22</title>
<polygon style="fill:white;stroke:#bfbfbf;" points="990,-56 990,-76 1064,-76 1064,-56 990,-56"/>
<text text-anchor="middle" x="1027" y="-63" style="font-family:Arial;font-size:10.00;">logog/logog.h</text>
</g>
<!-- Node21&#45;&gt;Node22 -->
<g id="edge90" class="edge"><title>Node21&#45;&gt;Node22</title>
<path style="fill:none;stroke:midnightblue;" d="M932,-112C950,-103 976,-90 997,-80"/>
<polygon style="fill:midnightblue;stroke:midnightblue;" points="998.283,-83.2598 1006,-76 995.44,-76.8631 998.283,-83.2598"/>
</g>
<!-- Node23 -->
<g id="node69" class="node"><title>Node23</title>
<polygon style="fill:white;stroke:#bfbfbf;" points="704,-56 704,-76 733,-76 733,-56 704,-56"/>
<text text-anchor="middle" x="718" y="-63" style="font-family:Arial;font-size:10.00;">list</text>
</g>
<!-- Node21&#45;&gt;Node23 -->
<g id="edge92" class="edge"><title>Node21&#45;&gt;Node23</title>
<path style="fill:none;stroke:midnightblue;" d="M868,-112C835,-104 789,-92 743,-76"/>
<polygon style="fill:midnightblue;stroke:midnightblue;" points="743.584,-72.5212 733,-73 741.573,-79.2259 743.584,-72.5212"/>
</g>
<!-- Node24 -->
<g id="node73" class="node"><title>Node24</title>
<polygon style="fill:white;stroke:#bfbfbf;" points="750,-56 750,-76 827,-76 827,-56 750,-56"/>
<text text-anchor="middle" x="788" y="-63" style="font-family:Arial;font-size:10.00;">boost/any.hpp</text>
</g>
<!-- Node21&#45;&gt;Node24 -->
<g id="edge98" class="edge"><title>Node21&#45;&gt;Node24</title>
<path style="fill:none;stroke:midnightblue;" d="M889,-112C870,-103 842,-90 819,-80"/>
<polygon style="fill:midnightblue;stroke:midnightblue;" points="820.56,-76.8631 810,-76 817.717,-83.2598 820.56,-76.8631"/>
</g>
<!-- Node25 -->
<g id="node75" class="node"><title>Node25</title>
<polygon style="fill:white;stroke:#bfbfbf;" points="844,-56 844,-76 973,-76 973,-56 844,-56"/>
<text text-anchor="middle" x="908" y="-63" style="font-family:Arial;font-size:10.00;">boost/unordered_map.hpp</text>
</g>
<!-- Node21&#45;&gt;Node25 -->
<g id="edge100" class="edge"><title>Node21&#45;&gt;Node25</title>
<path style="fill:none;stroke:midnightblue;" d="M910,-112C910,-105 909,-95 909,-86"/>
<polygon style="fill:midnightblue;stroke:midnightblue;" points="912.5,-86 909,-76 905.5,-86 912.5,-86"/>
</g>
<!-- Node26&#45;&gt;Node5 -->
<g id="edge118" class="edge"><title>Node26&#45;&gt;Node5</title>
<path style="fill:none;stroke:midnightblue;" d="M406,-229C343,-223 259,-212 237,-188 212,-161 212,-113 216,-86"/>
<polygon style="fill:midnightblue;stroke:midnightblue;" points="219.488,-86.2987 217,-76 212.522,-85.6021 219.488,-86.2987"/>
</g>
<!-- Node26&#45;&gt;Node13 -->
<g id="edge110" class="edge"><title>Node26&#45;&gt;Node13</title>
<path style="fill:none;stroke:midnightblue;" d="M464,-224C452,-215 436,-202 426,-188 415,-174 407,-156 403,-142"/>
<polygon style="fill:midnightblue;stroke:midnightblue;" points="406.226,-140.573 400,-132 399.521,-142.584 406.226,-140.573"/>
</g>
<!-- Node26&#45;&gt;Node17 -->
<g id="edge114" class="edge"><title>Node26&#45;&gt;Node17</title>
<path style="fill:none;stroke:midnightblue;" d="M502,-224C522,-215 552,-202 575,-192"/>
<polygon style="fill:midnightblue;stroke:midnightblue;" points="577.015,-194.964 585,-188 574.415,-188.464 577.015,-194.964"/>
</g>
<!-- Node26&#45;&gt;Node18 -->
<g id="edge112" class="edge"><title>Node26&#45;&gt;Node18</title>
<path style="fill:none;stroke:midnightblue;" d="M480,-224C481,-217 483,-207 484,-198"/>
<polygon style="fill:midnightblue;stroke:midnightblue;" points="487.471,-198.492 486,-188 480.607,-197.119 487.471,-198.492"/>
</g>
<!-- Node26&#45;&gt;Node20 -->
<g id="edge116" class="edge"><title>Node26&#45;&gt;Node20</title>
<path style="fill:none;stroke:midnightblue;" d="M547,-224C614,-214 714,-199 783,-189"/>
<polygon style="fill:midnightblue;stroke:midnightblue;" points="783.398,-192.478 793,-188 782.701,-185.512 783.398,-192.478"/>
</g>
<!-- Node27&#45;&gt;Node12 -->
<g id="edge122" class="edge"><title>Node27&#45;&gt;Node12</title>
<path style="fill:none;stroke:midnightblue;" d="M1391,-112C1380,-97 1357,-69 1331,-56 1295,-37 1178,-21 1122,-13"/>
<polygon style="fill:midnightblue;stroke:midnightblue;" points="1122.3,-9.5125 1112,-12 1121.6,-16.4778 1122.3,-9.5125"/>
</g>
</g>
</svg>
