<?xml version="1.0" encoding="UTF-8" standalone="no"?>
<!DOCTYPE svg PUBLIC "-//W3C//DTD SVG 1.0//EN"
 "http://www.w3.org/TR/2001/REC-SVG-20010904/DTD/svg10.dtd" [
 <!ATTLIST svg xmlns:xlink CDATA #FIXED "http://www.w3.org/1999/xlink">
]>
<!-- Generated by Graphviz version 2.20.2 (Tue Mar &#160;2 19:03:41 UTC 2010)
     For user: (jenkins)  -->
<!-- Title: G Pages: 1 -->
<svg width="2106pt" height="420pt"
 viewBox="0.00 0.00 2106.00 420.00" xmlns="http://www.w3.org/2000/svg" xmlns:xlink="http://www.w3.org/1999/xlink">
<g id="graph0" class="graph" transform="scale(1 1) rotate(0) translate(4 416)">
<title>G</title>
<polygon style="fill:white;stroke:white;" points="-4,4 -4,-416 2102,-416 2102,4 -4,4"/>
<!-- Node1 -->
<g id="node1" class="node"><title>Node1</title>
<polygon style="fill:#bfbfbf;stroke:black;" points="180,-392 180,-412 399,-412 399,-392 180,-392"/>
<text text-anchor="middle" x="289" y="-399" style="font-family:Arial;font-size:10.00;">ltr/data_preprocessors/data_random_sampler.h</text>
</g>
<!-- Node2 -->
<g id="node3" class="node"><title>Node2</title>
<polygon style="fill:white;stroke:#bfbfbf;" points="522,-0 522,-20 578,-20 578,-0 522,-0"/>
<text text-anchor="middle" x="550" y="-7" style="font-family:Arial;font-size:10.00;">algorithm</text>
</g>
<!-- Node1&#45;&gt;Node2 -->
<g id="edge2" class="edge"><title>Node1&#45;&gt;Node2</title>
<path style="fill:none;stroke:midnightblue;" d="M260,-392C221,-377 157,-343 157,-290 157,-290 157,-290 157,-122 157,-49 413,-21 512,-13"/>
<polygon style="fill:midnightblue;stroke:midnightblue;" points="512.398,-16.4778 522,-12 511.701,-9.5125 512.398,-16.4778"/>
</g>
<!-- Node3 -->
<g id="node5" class="node"><title>Node3</title>
<polygon style="fill:white;stroke:#bfbfbf;" points="29,-336 29,-356 69,-356 69,-336 29,-336"/>
<text text-anchor="middle" x="49" y="-343" style="font-family:Arial;font-size:10.00;">ctime</text>
</g>
<!-- Node1&#45;&gt;Node3 -->
<g id="edge4" class="edge"><title>Node1&#45;&gt;Node3</title>
<path style="fill:none;stroke:midnightblue;" d="M236,-392C195,-383 138,-371 79,-356"/>
<polygon style="fill:midnightblue;stroke:midnightblue;" points="79.584,-352.521 69,-353 77.5725,-359.226 79.584,-352.521"/>
</g>
<!-- Node4 -->
<g id="node7" class="node"><title>Node4</title>
<polygon style="fill:white;stroke:#bfbfbf;" points="87,-336 87,-356 130,-356 130,-336 87,-336"/>
<text text-anchor="middle" x="108" y="-343" style="font-family:Arial;font-size:10.00;">cmath</text>
</g>
<!-- Node1&#45;&gt;Node4 -->
<g id="edge6" class="edge"><title>Node1&#45;&gt;Node4</title>
<path style="fill:none;stroke:midnightblue;" d="M257,-392C224,-382 173,-366 140,-356"/>
<polygon style="fill:midnightblue;stroke:midnightblue;" points="140.584,-352.521 130,-353 138.573,-359.226 140.584,-352.521"/>
</g>
<!-- Node5 -->
<g id="node9" class="node"><title>Node5</title>
<polygon style="fill:white;stroke:#bfbfbf;" points="333,-224 333,-244 384,-244 384,-224 333,-224"/>
<text text-anchor="middle" x="358" y="-231" style="font-family:Arial;font-size:10.00;">sstream</text>
</g>
<!-- Node1&#45;&gt;Node5 -->
<g id="edge8" class="edge"><title>Node1&#45;&gt;Node5</title>
<path style="fill:none;stroke:midnightblue;" d="M277,-392C263,-379 243,-356 252,-336 268,-298 307,-267 332,-250"/>
<polygon style="fill:midnightblue;stroke:midnightblue;" points="334.621,-252.459 341,-244 330.738,-246.635 334.621,-252.459"/>
</g>
<!-- Node6 -->
<g id="node11" class="node"><title>Node6</title>
<polygon style="fill:white;stroke:#bfbfbf;" points="1087,-0 1087,-20 1127,-20 1127,-0 1087,-0"/>
<text text-anchor="middle" x="1107" y="-7" style="font-family:Arial;font-size:10.00;">string</text>
</g>
<!-- Node1&#45;&gt;Node6 -->
<g id="edge10" class="edge"><title>Node1&#45;&gt;Node6</title>
<path style="fill:none;stroke:midnightblue;" d="M399,-401C701,-398 1537,-388 1810,-356 1940,-340 2098,-421 2098,-290 2098,-290 2098,-290 2098,-122 2098,-22 1303,-11 1137,-10"/>
<polygon style="fill:midnightblue;stroke:midnightblue;" points="1137,-6.5001 1127,-10 1137,-13.5001 1137,-6.5001"/>
</g>
<!-- Node7 -->
<g id="node13" class="node"><title>Node7</title>
<polygon style="fill:white;stroke:#bfbfbf;" points="374,-56 374,-76 416,-76 416,-56 374,-56"/>
<text text-anchor="middle" x="395" y="-63" style="font-family:Arial;font-size:10.00;">vector</text>
</g>
<!-- Node1&#45;&gt;Node7 -->
<g id="edge12" class="edge"><title>Node1&#45;&gt;Node7</title>
<path style="fill:none;stroke:midnightblue;" d="M399,-396C505,-389 650,-376 668,-356 674,-349 674,-343 668,-336 644,-304 349,-275 324,-244 285,-192 346,-117 377,-83"/>
<polygon style="fill:midnightblue;stroke:midnightblue;" points="379.404,-85.546 384,-76 374.454,-80.5962 379.404,-85.546"/>
</g>
<!-- Node8 -->
<g id="node15" class="node"><title>Node8</title>
<polygon style="fill:white;stroke:#bfbfbf;" points="261,-336 261,-356 318,-356 318,-336 261,-336"/>
<text text-anchor="middle" x="289" y="-343" style="font-family:Arial;font-size:10.00;">functional</text>
</g>
<!-- Node1&#45;&gt;Node8 -->
<g id="edge14" class="edge"><title>Node1&#45;&gt;Node8</title>
<path style="fill:none;stroke:midnightblue;" d="M289,-392C289,-385 289,-375 289,-366"/>
<polygon style="fill:midnightblue;stroke:midnightblue;" points="292.5,-366 289,-356 285.5,-366 292.5,-366"/>
</g>
<!-- Node9 -->
<g id="node17" class="node"><title>Node9</title>
<polygon style="fill:white;stroke:#bfbfbf;" points="335,-336 335,-356 429,-356 429,-336 335,-336"/>
<text text-anchor="middle" x="382" y="-343" style="font-family:Arial;font-size:10.00;">boost/random.hpp</text>
</g>
<!-- Node1&#45;&gt;Node9 -->
<g id="edge16" class="edge"><title>Node1&#45;&gt;Node9</title>
<path style="fill:none;stroke:midnightblue;" d="M306,-392C319,-384 340,-371 356,-361"/>
<polygon style="fill:midnightblue;stroke:midnightblue;" points="357.958,-363.916 365,-356 354.559,-357.797 357.958,-363.916"/>
</g>
<!-- Node10 -->
<g id="node19" class="node"><title>Node10</title>
<polygon style="fill:white;stroke:#bfbfbf;" points="447,-336 447,-356 659,-356 659,-336 447,-336"/>
<text text-anchor="middle" x="553" y="-343" style="font-family:Arial;font-size:10.00;">boost/random/random_number_generator.hpp</text>
</g>
<!-- Node1&#45;&gt;Node10 -->
<g id="edge18" class="edge"><title>Node1&#45;&gt;Node10</title>
<path style="fill:none;stroke:midnightblue;" d="M336,-392C381,-383 448,-368 496,-358"/>
<polygon style="fill:midnightblue;stroke:midnightblue;" points="496.881,-361.393 506,-356 495.508,-354.529 496.881,-361.393"/>
</g>
<!-- Node11 -->
<g id="node21" class="node"><title>Node11</title>
<polygon style="fill:white;stroke:#bfbfbf;" points="195,-0 195,-20 302,-20 302,-0 195,-0"/>
<text text-anchor="middle" x="248" y="-7" style="font-family:Arial;font-size:10.00;">boost/shared_ptr.hpp</text>
</g>
<!-- Node1&#45;&gt;Node11 -->
<g id="edge20" class="edge"><title>Node1&#45;&gt;Node11</title>
<path style="fill:none;stroke:midnightblue;" d="M180,-395C116,-389 44,-377 20,-356 -2,-335 1,-320 1,-290 1,-290 1,-290 1,-122 1,-79 122,-42 195,-23"/>
<polygon style="fill:midnightblue;stroke:midnightblue;" points="196.427,-26.2259 205,-20 194.416,-19.5212 196.427,-26.2259"/>
</g>
<!-- Node12 -->
<g id="node23" class="node"><title>Node12</title>
<a xlink:href="data__preprocessor_8h.html" target="_top" xlink:title="ltr/data_preprocessors/data_preprocessor.h">
<polygon style="fill:white;stroke:black;" points="1015,-336 1015,-356 1219,-356 1219,-336 1015,-336"/>
<text text-anchor="middle" x="1117" y="-343" style="font-family:Arial;font-size:10.00;">ltr/data_preprocessors/data_preprocessor.h</text>
</a>
</g>
<!-- Node1&#45;&gt;Node12 -->
<g id="edge22" class="edge"><title>Node1&#45;&gt;Node12</title>
<path style="fill:none;stroke:midnightblue;" d="M399,-395C558,-384 845,-364 1005,-354"/>
<polygon style="fill:midnightblue;stroke:midnightblue;" points="1005.4,-357.478 1015,-353 1004.7,-350.512 1005.4,-357.478"/>
</g>
<!-- Node32 -->
<g id="node108" class="node"><title>Node32</title>
<a xlink:href="indices_8h.html" target="_top" xlink:title="ltr/utility/indices.h">
<polygon style="fill:white;stroke:black;" points="185,-112 185,-132 278,-132 278,-112 185,-112"/>
<text text-anchor="middle" x="231" y="-119" style="font-family:Arial;font-size:10.00;">ltr/utility/indices.h</text>
</a>
</g>
<!-- Node1&#45;&gt;Node32 -->
<g id="edge152" class="edge"><title>Node1&#45;&gt;Node32</title>
<path style="fill:none;stroke:midnightblue;" d="M272,-392C245,-375 195,-337 195,-290 195,-290 195,-290 195,-234 195,-199 210,-163 220,-141"/>
<polygon style="fill:midnightblue;stroke:midnightblue;" points="223.203,-142.441 225,-132 217.084,-139.042 223.203,-142.441"/>
</g>
<!-- Node33 -->
<g id="node113" class="node"><title>Node33</title>
<a xlink:href="random__number__generator_8h.html" target="_top" xlink:title="ltr/utility/random_number_generator.h">
<polygon style="fill:white;stroke:black;" points="1625,-336 1625,-356 1802,-356 1802,-336 1625,-336"/>
<text text-anchor="middle" x="1713" y="-343" style="font-family:Arial;font-size:10.00;">ltr/utility/random_number_generator.h</text>
</a>
</g>
<!-- Node1&#45;&gt;Node33 -->
<g id="edge160" class="edge"><title>Node1&#45;&gt;Node33</title>
<path style="fill:none;stroke:midnightblue;" d="M399,-398C669,-387 1359,-360 1615,-350"/>
<polygon style="fill:midnightblue;stroke:midnightblue;" points="1615,-353.5 1625,-350 1615,-346.5 1615,-353.5"/>
</g>
<!-- Node12&#45;&gt;Node6 -->
<g id="edge24" class="edge"><title>Node12&#45;&gt;Node6</title>
<path style="fill:none;stroke:midnightblue;" d="M1219,-337C1309,-328 1433,-314 1481,-300 1545,-280 1618,-301 1618,-234 1618,-234 1618,-234 1618,-178 1618,-123 1647,-94 1610,-56 1576,-21 1241,-13 1137,-10"/>
<polygon style="fill:midnightblue;stroke:midnightblue;" points="1137,-6.5001 1127,-10 1137,-13.5001 1137,-6.5001"/>
</g>
<!-- Node12&#45;&gt;Node7 -->
<g id="edge26" class="edge"><title>Node12&#45;&gt;Node7</title>
<path style="fill:none;stroke:midnightblue;" d="M1015,-340C896,-331 706,-317 636,-300 571,-284 551,-282 495,-244 445,-208 436,-189 412,-132 407,-117 402,-99 399,-86"/>
<polygon style="fill:midnightblue;stroke:midnightblue;" points="402.393,-85.1194 397,-76 395.529,-86.4922 402.393,-85.1194"/>
</g>
<!-- Node13 -->
<g id="node27" class="node"><title>Node13</title>
<a xlink:href="shared__ptr_8h.html" target="_top" xlink:title="ltr/utility/shared_ptr.h">
<polygon style="fill:white;stroke:black;" points="580,-56 580,-76 687,-76 687,-56 580,-56"/>
<text text-anchor="middle" x="633" y="-63" style="font-family:Arial;font-size:10.00;">ltr/utility/shared_ptr.h</text>
</a>
</g>
<!-- Node12&#45;&gt;Node13 -->
<g id="edge28" class="edge"><title>Node12&#45;&gt;Node13</title>
<path style="fill:none;stroke:midnightblue;" d="M1019,-336C859,-319 556,-281 525,-244 480,-189 566,-114 610,-82"/>
<polygon style="fill:midnightblue;stroke:midnightblue;" points="612.1,-84.8 618,-76 607.9,-79.2 612.1,-84.8"/>
</g>
<!-- Node15 -->
<g id="node33" class="node"><title>Node15</title>
<a xlink:href="data__set_8h.html" target="_top" xlink:title="ltr/data/data_set.h">
<polygon style="fill:white;stroke:black;" points="832,-280 832,-300 927,-300 927,-280 832,-280"/>
<text text-anchor="middle" x="879" y="-287" style="font-family:Arial;font-size:10.00;">ltr/data/data_set.h</text>
</a>
</g>
<!-- Node12&#45;&gt;Node15 -->
<g id="edge36" class="edge"><title>Node12&#45;&gt;Node15</title>
<path style="fill:none;stroke:midnightblue;" d="M1074,-336C1034,-327 975,-312 932,-302"/>
<polygon style="fill:midnightblue;stroke:midnightblue;" points="932.492,-298.529 922,-300 931.119,-305.393 932.492,-298.529"/>
</g>
<!-- Node20 -->
<g id="node49" class="node"><title>Node20</title>
<a xlink:href="printable_8h.html" target="_top" xlink:title="ltr/interfaces/printable.h">
<polygon style="fill:white;stroke:black;" points="944,-56 944,-76 1061,-76 1061,-56 944,-56"/>
<text text-anchor="middle" x="1002" y="-63" style="font-family:Arial;font-size:10.00;">ltr/interfaces/printable.h</text>
</a>
</g>
<!-- Node12&#45;&gt;Node20 -->
<g id="edge148" class="edge"><title>Node12&#45;&gt;Node20</title>
<path style="fill:none;stroke:midnightblue;" d="M1128,-336C1158,-308 1233,-228 1197,-168 1167,-119 1105,-93 1060,-79"/>
<polygon style="fill:midnightblue;stroke:midnightblue;" points="1060.58,-75.5212 1050,-76 1058.57,-82.2259 1060.58,-75.5212"/>
</g>
<!-- Node24 -->
<g id="node75" class="node"><title>Node24</title>
<a xlink:href="parameterized_8h.html" target="_top" xlink:title="ltr/interfaces/parameterized.h">
<polygon style="fill:white;stroke:black;" points="1046,-168 1046,-188 1188,-188 1188,-168 1046,-168"/>
<text text-anchor="middle" x="1117" y="-175" style="font-family:Arial;font-size:10.00;">ltr/interfaces/parameterized.h</text>
</a>
</g>
<!-- Node12&#45;&gt;Node24 -->
<g id="edge146" class="edge"><title>Node12&#45;&gt;Node24</title>
<path style="fill:none;stroke:midnightblue;" d="M1117,-336C1117,-309 1117,-235 1117,-198"/>
<polygon style="fill:midnightblue;stroke:midnightblue;" points="1120.5,-198 1117,-188 1113.5,-198 1120.5,-198"/>
</g>
<!-- Node25 -->
<g id="node79" class="node"><title>Node25</title>
<a xlink:href="parameters__container_8h.html" target="_top" xlink:title="ltr/parameters_container/parameters_container.h">
<polygon style="fill:white;stroke:black;" points="1271,-112 1271,-132 1496,-132 1496,-112 1271,-112"/>
<text text-anchor="middle" x="1383" y="-119" style="font-family:Arial;font-size:10.00;">ltr/parameters_container/parameters_container.h</text>
</a>
</g>
<!-- Node12&#45;&gt;Node25 -->
<g id="edge150" class="edge"><title>Node12&#45;&gt;Node25</title>
<path style="fill:none;stroke:midnightblue;" d="M1219,-337C1336,-324 1518,-296 1561,-244 1602,-192 1502,-154 1436,-135"/>
<polygon style="fill:midnightblue;stroke:midnightblue;" points="1436.58,-131.521 1426,-132 1434.57,-138.226 1436.58,-131.521"/>
</g>
<!-- Node31 -->
<g id="node101" class="node"><title>Node31</title>
<a xlink:href="aliaser_8h.html" target="_top" xlink:title="ltr/interfaces/aliaser.h">
<polygon style="fill:white;stroke:black;" points="1444,-224 1444,-244 1552,-244 1552,-224 1444,-224"/>
<text text-anchor="middle" x="1498" y="-231" style="font-family:Arial;font-size:10.00;">ltr/interfaces/aliaser.h</text>
</a>
</g>
<!-- Node12&#45;&gt;Node31 -->
<g id="edge144" class="edge"><title>Node12&#45;&gt;Node31</title>
<path style="fill:none;stroke:midnightblue;" d="M1151,-336C1221,-315 1377,-269 1454,-247"/>
<polygon style="fill:midnightblue;stroke:midnightblue;" points="1455.43,-250.226 1464,-244 1453.42,-243.521 1455.43,-250.226"/>
</g>
<!-- Node13&#45;&gt;Node2 -->
<g id="edge30" class="edge"><title>Node13&#45;&gt;Node2</title>
<path style="fill:none;stroke:midnightblue;" d="M618,-56C606,-48 588,-35 573,-26"/>
<polygon style="fill:midnightblue;stroke:midnightblue;" points="575.1,-23.2 565,-20 570.9,-28.8 575.1,-23.2"/>
</g>
<!-- Node13&#45;&gt;Node11 -->
<g id="edge32" class="edge"><title>Node13&#45;&gt;Node11</title>
<path style="fill:none;stroke:midnightblue;" d="M580,-58C510,-48 388,-31 312,-20"/>
<polygon style="fill:midnightblue;stroke:midnightblue;" points="312.492,-16.5292 302,-18 311.119,-23.3933 312.492,-16.5292"/>
</g>
<!-- Node14 -->
<g id="node31" class="node"><title>Node14</title>
<polygon style="fill:white;stroke:#bfbfbf;" points="596,-0 596,-20 787,-20 787,-0 596,-0"/>
<text text-anchor="middle" x="691" y="-7" style="font-family:Arial;font-size:10.00;">boost/smart_ptr/detail/operator_bool.hpp</text>
</g>
<!-- Node13&#45;&gt;Node14 -->
<g id="edge34" class="edge"><title>Node13&#45;&gt;Node14</title>
<path style="fill:none;stroke:midnightblue;" d="M643,-56C652,-48 663,-37 673,-27"/>
<polygon style="fill:midnightblue;stroke:midnightblue;" points="675.404,-29.546 680,-20 670.454,-24.5962 675.404,-29.546"/>
</g>
<!-- Node15&#45;&gt;Node5 -->
<g id="edge38" class="edge"><title>Node15&#45;&gt;Node5</title>
<path style="fill:none;stroke:midnightblue;" d="M832,-285C751,-277 580,-260 435,-244 422,-242 407,-240 394,-238"/>
<polygon style="fill:midnightblue;stroke:midnightblue;" points="394.299,-234.512 384,-237 393.602,-241.478 394.299,-234.512"/>
</g>
<!-- Node15&#45;&gt;Node6 -->
<g id="edge42" class="edge"><title>Node15&#45;&gt;Node6</title>
<path style="fill:none;stroke:midnightblue;" d="M927,-284C1074,-265 1510,-197 1561,-76 1564,-67 1566,-62 1561,-56 1532,-24 1234,-14 1137,-10"/>
<polygon style="fill:midnightblue;stroke:midnightblue;" points="1137,-6.5001 1127,-10 1137,-13.5001 1137,-6.5001"/>
</g>
<!-- Node15&#45;&gt;Node7 -->
<g id="edge44" class="edge"><title>Node15&#45;&gt;Node7</title>
<path style="fill:none;stroke:midnightblue;" d="M832,-288C748,-284 578,-272 525,-244 459,-209 418,-124 403,-86"/>
<polygon style="fill:midnightblue;stroke:midnightblue;" points="405.964,-83.9849 399,-76 399.464,-86.5847 405.964,-83.9849"/>
</g>
<!-- Node16 -->
<g id="node36" class="node"><title>Node16</title>
<polygon style="fill:white;stroke:#bfbfbf;" points="868,-56 868,-76 927,-76 927,-56 868,-56"/>
<text text-anchor="middle" x="897" y="-63" style="font-family:Arial;font-size:10.00;">stdexcept</text>
</g>
<!-- Node15&#45;&gt;Node16 -->
<g id="edge40" class="edge"><title>Node15&#45;&gt;Node16</title>
<path style="fill:none;stroke:midnightblue;" d="M914,-280C934,-273 958,-261 975,-244 993,-224 993,-214 999,-188 1006,-152 992,-138 968,-112 957,-99 941,-89 927,-81"/>
<polygon style="fill:midnightblue;stroke:midnightblue;" points="928.441,-77.7969 918,-76 925.042,-83.916 928.441,-77.7969"/>
</g>
<!-- Node17 -->
<g id="node40" class="node"><title>Node17</title>
<a xlink:href="object_8h.html" target="_top" xlink:title="ltr/data/object.h">
<polygon style="fill:white;stroke:black;" points="789,-112 789,-132 873,-132 873,-112 789,-112"/>
<text text-anchor="middle" x="831" y="-119" style="font-family:Arial;font-size:10.00;">ltr/data/object.h</text>
</a>
</g>
<!-- Node15&#45;&gt;Node17 -->
<g id="edge46" class="edge"><title>Node15&#45;&gt;Node17</title>
<path style="fill:none;stroke:midnightblue;" d="M845,-280C827,-273 808,-261 797,-244 777,-210 801,-166 817,-141"/>
<polygon style="fill:midnightblue;stroke:midnightblue;" points="820.365,-142.262 823,-132 814.541,-138.379 820.365,-142.262"/>
</g>
<!-- Node21 -->
<g id="node54" class="node"><title>Node21</title>
<a xlink:href="object__list_8h.html" target="_top" xlink:title="ltr/data/object_list.h">
<polygon style="fill:white;stroke:black;" points="888,-168 888,-188 990,-188 990,-168 888,-168"/>
<text text-anchor="middle" x="939" y="-175" style="font-family:Arial;font-size:10.00;">ltr/data/object_list.h</text>
</a>
</g>
<!-- Node15&#45;&gt;Node21 -->
<g id="edge66" class="edge"><title>Node15&#45;&gt;Node21</title>
<path style="fill:none;stroke:midnightblue;" d="M913,-280C931,-273 950,-261 961,-244 969,-229 961,-210 953,-196"/>
<polygon style="fill:midnightblue;stroke:midnightblue;" points="955.8,-193.9 947,-188 950.2,-198.1 955.8,-193.9"/>
</g>
<!-- Node22 -->
<g id="node62" class="node"><title>Node22</title>
<a xlink:href="object__pair_8h.html" target="_top" xlink:title="ltr/data/object_pair.h">
<polygon style="fill:white;stroke:black;" points="633,-168 633,-188 737,-188 737,-168 633,-168"/>
<text text-anchor="middle" x="685" y="-175" style="font-family:Arial;font-size:10.00;">ltr/data/object_pair.h</text>
</a>
</g>
<!-- Node15&#45;&gt;Node22 -->
<g id="edge80" class="edge"><title>Node15&#45;&gt;Node22</title>
<path style="fill:none;stroke:midnightblue;" d="M847,-280C823,-272 791,-260 764,-244 741,-230 718,-210 703,-195"/>
<polygon style="fill:midnightblue;stroke:midnightblue;" points="704.831,-191.951 695,-188 700.221,-197.219 704.831,-191.951"/>
</g>
<!-- Node23 -->
<g id="node70" class="node"><title>Node23</title>
<a xlink:href="feature__info_8h.html" target="_top" xlink:title="ltr/data/feature_info.h">
<polygon style="fill:white;stroke:black;" points="534,-224 534,-244 641,-244 641,-224 534,-224"/>
<text text-anchor="middle" x="587" y="-231" style="font-family:Arial;font-size:10.00;">ltr/data/feature_info.h</text>
</a>
</g>
<!-- Node15&#45;&gt;Node23 -->
<g id="edge94" class="edge"><title>Node15&#45;&gt;Node23</title>
<path style="fill:none;stroke:midnightblue;" d="M832,-281C782,-272 704,-256 649,-246"/>
<polygon style="fill:midnightblue;stroke:midnightblue;" points="649.492,-242.529 639,-244 648.119,-249.393 649.492,-242.529"/>
</g>
<!-- Node30 -->
<g id="node94" class="node"><title>Node30</title>
<a xlink:href="per__object__accessor_8h.html" target="_top" xlink:title="ltr/data/per_object_accessor.h">
<polygon style="fill:white;stroke:black;" points="806,-224 806,-244 953,-244 953,-224 806,-224"/>
<text text-anchor="middle" x="879" y="-231" style="font-family:Arial;font-size:10.00;">ltr/data/per_object_accessor.h</text>
</a>
</g>
<!-- Node15&#45;&gt;Node30 -->
<g id="edge128" class="edge"><title>Node15&#45;&gt;Node30</title>
<path style="fill:none;stroke:midnightblue;" d="M879,-280C879,-273 879,-263 879,-254"/>
<polygon style="fill:midnightblue;stroke:midnightblue;" points="882.5,-254 879,-244 875.5,-254 882.5,-254"/>
</g>
<!-- Node15&#45;&gt;Node31 -->
<g id="edge140" class="edge"><title>Node15&#45;&gt;Node31</title>
<path style="fill:none;stroke:midnightblue;" d="M927,-287C1023,-281 1244,-265 1430,-244 1431,-244 1433,-243 1434,-243"/>
<polygon style="fill:midnightblue;stroke:midnightblue;" points="1434.4,-246.478 1444,-242 1433.7,-239.512 1434.4,-246.478"/>
</g>
<!-- Node17&#45;&gt;Node6 -->
<g id="edge54" class="edge"><title>Node17&#45;&gt;Node6</title>
<path style="fill:none;stroke:midnightblue;" d="M832,-112C835,-97 841,-69 859,-56 892,-29 1018,-16 1077,-12"/>
<polygon style="fill:midnightblue;stroke:midnightblue;" points="1077.4,-15.4778 1087,-11 1076.7,-8.5125 1077.4,-15.4778"/>
</g>
<!-- Node17&#45;&gt;Node7 -->
<g id="edge56" class="edge"><title>Node17&#45;&gt;Node7</title>
<path style="fill:none;stroke:midnightblue;" d="M789,-117C701,-106 504,-80 426,-70"/>
<polygon style="fill:midnightblue;stroke:midnightblue;" points="426.299,-66.5125 416,-69 425.602,-73.4778 426.299,-66.5125"/>
</g>
<!-- Node17&#45;&gt;Node13 -->
<g id="edge64" class="edge"><title>Node17&#45;&gt;Node13</title>
<path style="fill:none;stroke:midnightblue;" d="M796,-112C763,-103 714,-89 679,-79"/>
<polygon style="fill:midnightblue;stroke:midnightblue;" points="679.584,-75.5212 669,-76 677.573,-82.2259 679.584,-75.5212"/>
</g>
<!-- Node17&#45;&gt;Node16 -->
<g id="edge52" class="edge"><title>Node17&#45;&gt;Node16</title>
<path style="fill:none;stroke:midnightblue;" d="M843,-112C853,-104 866,-93 877,-83"/>
<polygon style="fill:midnightblue;stroke:midnightblue;" points="879.779,-85.2191 885,-76 875.169,-79.9511 879.779,-85.2191"/>
</g>
<!-- Node18 -->
<g id="node42" class="node"><title>Node18</title>
<polygon style="fill:white;stroke:#bfbfbf;" points="500,-56 500,-76 535,-76 535,-56 500,-56"/>
<text text-anchor="middle" x="517" y="-63" style="font-family:Arial;font-size:10.00;">map</text>
</g>
<!-- Node17&#45;&gt;Node18 -->
<g id="edge48" class="edge"><title>Node17&#45;&gt;Node18</title>
<path style="fill:none;stroke:midnightblue;" d="M789,-114C737,-105 648,-89 571,-76 562,-75 553,-73 545,-71"/>
<polygon style="fill:midnightblue;stroke:midnightblue;" points="545.492,-67.5292 535,-69 544.119,-74.3933 545.492,-67.5292"/>
</g>
<!-- Node19 -->
<g id="node44" class="node"><title>Node19</title>
<polygon style="fill:white;stroke:#bfbfbf;" points="862,-0 862,-20 913,-20 913,-0 862,-0"/>
<text text-anchor="middle" x="887" y="-7" style="font-family:Arial;font-size:10.00;">ostream</text>
</g>
<!-- Node17&#45;&gt;Node19 -->
<g id="edge50" class="edge"><title>Node17&#45;&gt;Node19</title>
<path style="fill:none;stroke:midnightblue;" d="M826,-112C820,-98 811,-74 820,-56 826,-42 840,-32 853,-25"/>
<polygon style="fill:midnightblue;stroke:midnightblue;" points="854.958,-27.916 862,-20 851.559,-21.7969 854.958,-27.916"/>
</g>
<!-- Node17&#45;&gt;Node20 -->
<g id="edge58" class="edge"><title>Node17&#45;&gt;Node20</title>
<path style="fill:none;stroke:midnightblue;" d="M862,-112C890,-103 931,-89 961,-79"/>
<polygon style="fill:midnightblue;stroke:midnightblue;" points="962.427,-82.2259 971,-76 960.416,-75.5212 962.427,-82.2259"/>
</g>
<!-- Node20&#45;&gt;Node6 -->
<g id="edge62" class="edge"><title>Node20&#45;&gt;Node6</title>
<path style="fill:none;stroke:midnightblue;" d="M1021,-56C1037,-47 1061,-35 1079,-25"/>
<polygon style="fill:midnightblue;stroke:midnightblue;" points="1080.96,-27.916 1088,-20 1077.56,-21.7969 1080.96,-27.916"/>
</g>
<!-- Node20&#45;&gt;Node19 -->
<g id="edge60" class="edge"><title>Node20&#45;&gt;Node19</title>
<path style="fill:none;stroke:midnightblue;" d="M981,-56C963,-47 937,-34 917,-25"/>
<polygon style="fill:midnightblue;stroke:midnightblue;" points="918.441,-21.7969 908,-20 915.042,-27.916 918.441,-21.7969"/>
</g>
<!-- Node21&#45;&gt;Node6 -->
<g id="edge70" class="edge"><title>Node21&#45;&gt;Node6</title>
<path style="fill:none;stroke:midnightblue;" d="M955,-168C981,-151 1034,-116 1069,-76 1081,-62 1091,-43 1098,-29"/>
<polygon style="fill:midnightblue;stroke:midnightblue;" points="1101.2,-30.4414 1103,-20 1095.08,-27.0418 1101.2,-30.4414"/>
</g>
<!-- Node21&#45;&gt;Node7 -->
<g id="edge72" class="edge"><title>Node21&#45;&gt;Node7</title>
<path style="fill:none;stroke:midnightblue;" d="M890,-168C780,-145 516,-91 426,-72"/>
<polygon style="fill:midnightblue;stroke:midnightblue;" points="426.492,-68.5292 416,-70 425.119,-75.3933 426.492,-68.5292"/>
</g>
<!-- Node21&#45;&gt;Node13 -->
<g id="edge78" class="edge"><title>Node21&#45;&gt;Node13</title>
<path style="fill:none;stroke:midnightblue;" d="M933,-168C924,-153 905,-125 882,-112 851,-94 760,-80 697,-73"/>
<polygon style="fill:midnightblue;stroke:midnightblue;" points="697.299,-69.5125 687,-72 696.602,-76.4778 697.299,-69.5125"/>
</g>
<!-- Node21&#45;&gt;Node16 -->
<g id="edge68" class="edge"><title>Node21&#45;&gt;Node16</title>
<path style="fill:none;stroke:midnightblue;" d="M945,-168C952,-154 961,-130 953,-112 947,-99 936,-89 925,-82"/>
<polygon style="fill:midnightblue;stroke:midnightblue;" points="927.1,-79.2 917,-76 922.9,-84.8 927.1,-79.2"/>
</g>
<!-- Node21&#45;&gt;Node17 -->
<g id="edge74" class="edge"><title>Node21&#45;&gt;Node17</title>
<path style="fill:none;stroke:midnightblue;" d="M920,-168C904,-159 879,-146 860,-137"/>
<polygon style="fill:midnightblue;stroke:midnightblue;" points="861.441,-133.797 851,-132 858.042,-139.916 861.441,-133.797"/>
</g>
<!-- Node21&#45;&gt;Node20 -->
<g id="edge76" class="edge"><title>Node21&#45;&gt;Node20</title>
<path style="fill:none;stroke:midnightblue;" d="M946,-168C952,-158 961,-144 968,-132 977,-117 986,-99 992,-85"/>
<polygon style="fill:midnightblue;stroke:midnightblue;" points="995.203,-86.4414 997,-76 989.084,-83.0418 995.203,-86.4414"/>
</g>
<!-- Node22&#45;&gt;Node6 -->
<g id="edge84" class="edge"><title>Node22&#45;&gt;Node6</title>
<path style="fill:none;stroke:midnightblue;" d="M694,-168C716,-144 776,-84 838,-56 880,-37 1015,-20 1077,-13"/>
<polygon style="fill:midnightblue;stroke:midnightblue;" points="1077.4,-16.4778 1087,-12 1076.7,-9.5125 1077.4,-16.4778"/>
</g>
<!-- Node22&#45;&gt;Node7 -->
<g id="edge86" class="edge"><title>Node22&#45;&gt;Node7</title>
<path style="fill:none;stroke:midnightblue;" d="M659,-168C605,-147 483,-100 426,-78"/>
<polygon style="fill:midnightblue;stroke:midnightblue;" points="426.585,-74.4643 416,-74 423.985,-80.9636 426.585,-74.4643"/>
</g>
<!-- Node22&#45;&gt;Node13 -->
<g id="edge92" class="edge"><title>Node22&#45;&gt;Node13</title>
<path style="fill:none;stroke:midnightblue;" d="M680,-168C671,-149 653,-110 642,-85"/>
<polygon style="fill:midnightblue;stroke:midnightblue;" points="645.26,-83.7166 638,-76 638.863,-86.5596 645.26,-83.7166"/>
</g>
<!-- Node22&#45;&gt;Node16 -->
<g id="edge82" class="edge"><title>Node22&#45;&gt;Node16</title>
<path style="fill:none;stroke:midnightblue;" d="M737,-172C789,-165 862,-152 882,-132 894,-120 897,-101 898,-86"/>
<polygon style="fill:midnightblue;stroke:midnightblue;" points="901.5,-86 898,-76 894.5,-86 901.5,-86"/>
</g>
<!-- Node22&#45;&gt;Node17 -->
<g id="edge88" class="edge"><title>Node22&#45;&gt;Node17</title>
<path style="fill:none;stroke:midnightblue;" d="M711,-168C734,-159 769,-146 795,-136"/>
<polygon style="fill:midnightblue;stroke:midnightblue;" points="797.015,-138.964 805,-132 794.415,-132.464 797.015,-138.964"/>
</g>
<!-- Node22&#45;&gt;Node20 -->
<g id="edge90" class="edge"><title>Node22&#45;&gt;Node20</title>
<path style="fill:none;stroke:midnightblue;" d="M737,-172C782,-166 847,-154 899,-132 929,-119 961,-98 981,-82"/>
<polygon style="fill:midnightblue;stroke:midnightblue;" points="983.1,-84.8 989,-76 978.9,-79.2 983.1,-84.8"/>
</g>
<!-- Node23&#45;&gt;Node6 -->
<g id="edge98" class="edge"><title>Node23&#45;&gt;Node6</title>
<path style="fill:none;stroke:midnightblue;" d="M574,-224C538,-195 441,-109 491,-56 502,-44 954,-19 1077,-12"/>
<polygon style="fill:midnightblue;stroke:midnightblue;" points="1077.4,-15.4778 1087,-11 1076.7,-8.5125 1077.4,-15.4778"/>
</g>
<!-- Node23&#45;&gt;Node7 -->
<g id="edge100" class="edge"><title>Node23&#45;&gt;Node7</title>
<path style="fill:none;stroke:midnightblue;" d="M568,-224C539,-207 482,-173 443,-132 430,-117 416,-99 407,-85"/>
<polygon style="fill:midnightblue;stroke:midnightblue;" points="409.916,-83.0418 402,-76 403.797,-86.4414 409.916,-83.0418"/>
</g>
<!-- Node23&#45;&gt;Node13 -->
<g id="edge126" class="edge"><title>Node23&#45;&gt;Node13</title>
<path style="fill:none;stroke:midnightblue;" d="M590,-224C597,-197 618,-122 627,-86"/>
<polygon style="fill:midnightblue;stroke:midnightblue;" points="630.479,-86.584 630,-76 623.774,-84.5725 630.479,-86.584"/>
</g>
<!-- Node23&#45;&gt;Node18 -->
<g id="edge96" class="edge"><title>Node23&#45;&gt;Node18</title>
<path style="fill:none;stroke:midnightblue;" d="M583,-224C572,-197 540,-121 525,-85"/>
<polygon style="fill:midnightblue;stroke:midnightblue;" points="528.26,-83.7166 521,-76 521.863,-86.5596 528.26,-83.7166"/>
</g>
<!-- Node23&#45;&gt;Node24 -->
<g id="edge102" class="edge"><title>Node23&#45;&gt;Node24</title>
<path style="fill:none;stroke:midnightblue;" d="M641,-228C734,-218 926,-198 1036,-187"/>
<polygon style="fill:midnightblue;stroke:midnightblue;" points="1036.4,-190.478 1046,-186 1035.7,-183.512 1036.4,-190.478"/>
</g>
<!-- Node24&#45;&gt;Node6 -->
<g id="edge106" class="edge"><title>Node24&#45;&gt;Node6</title>
<path style="fill:none;stroke:midnightblue;" d="M1141,-168C1155,-160 1173,-148 1181,-132 1185,-124 1184,-120 1181,-112 1173,-92 1162,-92 1150,-76 1138,-61 1127,-42 1118,-29"/>
<polygon style="fill:midnightblue;stroke:midnightblue;" points="1120.92,-27.0418 1113,-20 1114.8,-30.4414 1120.92,-27.0418"/>
</g>
<!-- Node24&#45;&gt;Node16 -->
<g id="edge104" class="edge"><title>Node24&#45;&gt;Node16</title>
<path style="fill:none;stroke:midnightblue;" d="M1112,-168C1104,-153 1088,-126 1067,-112 1065,-111 987,-90 937,-77"/>
<polygon style="fill:midnightblue;stroke:midnightblue;" points="937.584,-73.5212 927,-74 935.573,-80.2259 937.584,-73.5212"/>
</g>
<!-- Node24&#45;&gt;Node25 -->
<g id="edge108" class="edge"><title>Node24&#45;&gt;Node25</title>
<path style="fill:none;stroke:midnightblue;" d="M1165,-168C1210,-159 1277,-144 1325,-134"/>
<polygon style="fill:midnightblue;stroke:midnightblue;" points="1325.88,-137.393 1335,-132 1324.51,-130.529 1325.88,-137.393"/>
</g>
<!-- Node25&#45;&gt;Node6 -->
<g id="edge116" class="edge"><title>Node25&#45;&gt;Node6</title>
<path style="fill:none;stroke:midnightblue;" d="M1299,-112C1262,-105 1219,-94 1183,-76 1159,-63 1137,-43 1123,-28"/>
<polygon style="fill:midnightblue;stroke:midnightblue;" points="1125.22,-25.221 1116,-20 1119.95,-29.8306 1125.22,-25.221"/>
</g>
<!-- Node25&#45;&gt;Node13 -->
<g id="edge122" class="edge"><title>Node25&#45;&gt;Node13</title>
<path style="fill:none;stroke:midnightblue;" d="M1271,-114C1111,-101 825,-80 697,-71"/>
<polygon style="fill:midnightblue;stroke:midnightblue;" points="697.299,-67.5125 687,-70 696.602,-74.4778 697.299,-67.5125"/>
</g>
<!-- Node25&#45;&gt;Node16 -->
<g id="edge114" class="edge"><title>Node25&#45;&gt;Node16</title>
<path style="fill:none;stroke:midnightblue;" d="M1271,-115C1182,-108 1055,-97 937,-76"/>
<polygon style="fill:midnightblue;stroke:midnightblue;" points="937.492,-72.5292 927,-74 936.119,-79.3933 937.492,-72.5292"/>
</g>
<!-- Node25&#45;&gt;Node20 -->
<g id="edge124" class="edge"><title>Node25&#45;&gt;Node20</title>
<path style="fill:none;stroke:midnightblue;" d="M1315,-112C1245,-102 1140,-86 1071,-76"/>
<polygon style="fill:midnightblue;stroke:midnightblue;" points="1071.3,-72.5125 1061,-75 1070.6,-79.4778 1071.3,-72.5125"/>
</g>
<!-- Node26 -->
<g id="node81" class="node"><title>Node26</title>
<polygon style="fill:white;stroke:#bfbfbf;" points="1432,-56 1432,-76 1506,-76 1506,-56 1432,-56"/>
<text text-anchor="middle" x="1469" y="-63" style="font-family:Arial;font-size:10.00;">logog/logog.h</text>
</g>
<!-- Node25&#45;&gt;Node26 -->
<g id="edge110" class="edge"><title>Node25&#45;&gt;Node26</title>
<path style="fill:none;stroke:midnightblue;" d="M1398,-112C1411,-104 1430,-91 1445,-82"/>
<polygon style="fill:midnightblue;stroke:midnightblue;" points="1447.1,-84.8 1453,-76 1442.9,-79.2 1447.1,-84.8"/>
</g>
<!-- Node27 -->
<g id="node83" class="node"><title>Node27</title>
<polygon style="fill:white;stroke:#bfbfbf;" points="1524,-56 1524,-76 1553,-76 1553,-56 1524,-56"/>
<text text-anchor="middle" x="1538" y="-63" style="font-family:Arial;font-size:10.00;">list</text>
</g>
<!-- Node25&#45;&gt;Node27 -->
<g id="edge112" class="edge"><title>Node25&#45;&gt;Node27</title>
<path style="fill:none;stroke:midnightblue;" d="M1413,-112C1438,-104 1474,-91 1515,-76"/>
<polygon style="fill:midnightblue;stroke:midnightblue;" points="1516.28,-79.2598 1524,-72 1513.44,-72.8631 1516.28,-79.2598"/>
</g>
<!-- Node28 -->
<g id="node87" class="node"><title>Node28</title>
<polygon style="fill:white;stroke:#bfbfbf;" points="1192,-56 1192,-76 1269,-76 1269,-56 1192,-56"/>
<text text-anchor="middle" x="1230" y="-63" style="font-family:Arial;font-size:10.00;">boost/any.hpp</text>
</g>
<!-- Node25&#45;&gt;Node28 -->
<g id="edge118" class="edge"><title>Node25&#45;&gt;Node28</title>
<path style="fill:none;stroke:midnightblue;" d="M1356,-112C1331,-103 1294,-89 1267,-79"/>
<polygon style="fill:midnightblue;stroke:midnightblue;" points="1267.58,-75.5212 1257,-76 1265.57,-82.2259 1267.58,-75.5212"/>
</g>
<!-- Node29 -->
<g id="node89" class="node"><title>Node29</title>
<polygon style="fill:white;stroke:#bfbfbf;" points="1286,-56 1286,-76 1415,-76 1415,-56 1286,-56"/>
<text text-anchor="middle" x="1350" y="-63" style="font-family:Arial;font-size:10.00;">boost/unordered_map.hpp</text>
</g>
<!-- Node25&#45;&gt;Node29 -->
<g id="edge120" class="edge"><title>Node25&#45;&gt;Node29</title>
<path style="fill:none;stroke:midnightblue;" d="M1377,-112C1373,-105 1366,-94 1361,-85"/>
<polygon style="fill:midnightblue;stroke:midnightblue;" points="1363.92,-83.0418 1356,-76 1357.8,-86.4414 1363.92,-83.0418"/>
</g>
<!-- Node30&#45;&gt;Node13 -->
<g id="edge138" class="edge"><title>Node30&#45;&gt;Node13</title>
<path style="fill:none;stroke:midnightblue;" d="M864,-224C823,-196 707,-116 657,-82"/>
<polygon style="fill:midnightblue;stroke:midnightblue;" points="658.262,-78.6349 648,-76 654.379,-84.4592 658.262,-78.6349"/>
</g>
<!-- Node30&#45;&gt;Node17 -->
<g id="edge130" class="edge"><title>Node30&#45;&gt;Node17</title>
<path style="fill:none;stroke:midnightblue;" d="M875,-224C867,-205 850,-166 839,-141"/>
<polygon style="fill:midnightblue;stroke:midnightblue;" points="842.26,-139.717 835,-132 835.863,-142.56 842.26,-139.717"/>
</g>
<!-- Node30&#45;&gt;Node21 -->
<g id="edge134" class="edge"><title>Node30&#45;&gt;Node21</title>
<path style="fill:none;stroke:midnightblue;" d="M890,-224C899,-216 911,-205 921,-195"/>
<polygon style="fill:midnightblue;stroke:midnightblue;" points="923.404,-197.546 928,-188 918.454,-192.596 923.404,-197.546"/>
</g>
<!-- Node30&#45;&gt;Node22 -->
<g id="edge132" class="edge"><title>Node30&#45;&gt;Node22</title>
<path style="fill:none;stroke:midnightblue;" d="M844,-224C812,-215 765,-201 730,-191"/>
<polygon style="fill:midnightblue;stroke:midnightblue;" points="730.584,-187.521 720,-188 728.573,-194.226 730.584,-187.521"/>
</g>
<!-- Node30&#45;&gt;Node24 -->
<g id="edge136" class="edge"><title>Node30&#45;&gt;Node24</title>
<path style="fill:none;stroke:midnightblue;" d="M922,-224C962,-215 1021,-200 1064,-190"/>
<polygon style="fill:midnightblue;stroke:midnightblue;" points="1064.88,-193.393 1074,-188 1063.51,-186.529 1064.88,-193.393"/>
</g>
<!-- Node31&#45;&gt;Node6 -->
<g id="edge142" class="edge"><title>Node31&#45;&gt;Node6</title>
<path style="fill:none;stroke:midnightblue;" d="M1507,-224C1534,-190 1619,-84 1594,-56 1563,-21 1239,-13 1137,-10"/>
<polygon style="fill:midnightblue;stroke:midnightblue;" points="1137,-6.5001 1127,-10 1137,-13.5001 1137,-6.5001"/>
</g>
<!-- Node32&#45;&gt;Node6 -->
<g id="edge154" class="edge"><title>Node32&#45;&gt;Node6</title>
<path style="fill:none;stroke:midnightblue;" d="M246,-112C270,-97 319,-68 365,-56 383,-51 939,-20 1077,-12"/>
<polygon style="fill:midnightblue;stroke:midnightblue;" points="1077.4,-15.4778 1087,-11 1076.7,-8.5125 1077.4,-15.4778"/>
</g>
<!-- Node32&#45;&gt;Node7 -->
<g id="edge156" class="edge"><title>Node32&#45;&gt;Node7</title>
<path style="fill:none;stroke:midnightblue;" d="M260,-112C289,-102 334,-87 364,-76"/>
<polygon style="fill:midnightblue;stroke:midnightblue;" points="365.427,-79.2259 374,-73 363.416,-72.5212 365.427,-79.2259"/>
</g>
<!-- Node32&#45;&gt;Node13 -->
<g id="edge158" class="edge"><title>Node32&#45;&gt;Node13</title>
<path style="fill:none;stroke:midnightblue;" d="M278,-115C351,-105 489,-87 570,-75"/>
<polygon style="fill:midnightblue;stroke:midnightblue;" points="570.881,-78.3933 580,-73 569.508,-71.5292 570.881,-78.3933"/>
</g>
<!-- Node33&#45;&gt;Node2 -->
<g id="edge162" class="edge"><title>Node33&#45;&gt;Node2</title>
<path style="fill:none;stroke:midnightblue;" d="M1702,-336C1694,-327 1682,-313 1675,-300 1660,-273 1656,-264 1656,-234 1656,-234 1656,-234 1656,-122 1656,-70 1609,-72 1561,-56 1358,11 818,-50 588,-19"/>
<polygon style="fill:midnightblue;stroke:midnightblue;" points="588.299,-15.5125 578,-18 587.602,-22.4778 588.299,-15.5125"/>
</g>
<!-- Node34 -->
<g id="node116" class="node"><title>Node34</title>
<polygon style="fill:white;stroke:#bfbfbf;" points="1684,-280 1684,-300 1857,-300 1857,-280 1684,-280"/>
<text text-anchor="middle" x="1770" y="-287" style="font-family:Arial;font-size:10.00;">boost/random/mersenne_twister.hpp</text>
</g>
<!-- Node33&#45;&gt;Node34 -->
<g id="edge164" class="edge"><title>Node33&#45;&gt;Node34</title>
<path style="fill:none;stroke:midnightblue;" d="M1723,-336C1732,-328 1743,-317 1753,-307"/>
<polygon style="fill:midnightblue;stroke:midnightblue;" points="1755.4,-309.546 1760,-300 1750.45,-304.596 1755.4,-309.546"/>
</g>
<!-- Node35 -->
<g id="node118" class="node"><title>Node35</title>
<polygon style="fill:white;stroke:#bfbfbf;" points="1874,-280 1874,-300 2071,-300 2071,-280 1874,-280"/>
<text text-anchor="middle" x="1972" y="-287" style="font-family:Arial;font-size:10.00;">boost/random/uniform_int_distribution.hpp</text>
</g>
<!-- Node33&#45;&gt;Node35 -->
<g id="edge166" class="edge"><title>Node33&#45;&gt;Node35</title>
<path style="fill:none;stroke:midnightblue;" d="M1759,-336C1803,-327 1869,-312 1916,-302"/>
<polygon style="fill:midnightblue;stroke:midnightblue;" points="1916.88,-305.393 1926,-300 1915.51,-298.529 1916.88,-305.393"/>
</g>
</g>
</svg>
