<?xml version="1.0" encoding="UTF-8" standalone="no"?>
<!DOCTYPE svg PUBLIC "-//W3C//DTD SVG 1.0//EN"
 "http://www.w3.org/TR/2001/REC-SVG-20010904/DTD/svg10.dtd" [
 <!ATTLIST svg xmlns:xlink CDATA #FIXED "http://www.w3.org/1999/xlink">
]>
<!-- Generated by Graphviz version 2.20.2 (Tue Mar &#160;2 19:03:41 UTC 2010)
     For user: (jenkins)  -->
<!-- Title: G Pages: 1 -->
<svg width="1074pt" height="84pt"
 viewBox="0.00 0.00 1074.00 84.00" xmlns="http://www.w3.org/2000/svg" xmlns:xlink="http://www.w3.org/1999/xlink">
<g id="graph0" class="graph" transform="scale(1 1) rotate(0) translate(4 80)">
<title>G</title>
<polygon style="fill:white;stroke:white;" points="-4,4 -4,-80 1070,-80 1070,4 -4,4"/>
<!-- Node1 -->
<g id="node1" class="node"><title>Node1</title>
<polygon style="fill:#bfbfbf;stroke:black;" points="255,-56 255,-76 437,-76 437,-56 255,-56"/>
<text text-anchor="middle" x="346" y="-63" style="font-family:Arial;font-size:10.00;">ltr/data_preprocessors/data_sampler.h</text>
</g>
<!-- Node2 -->
<g id="node3" class="node"><title>Node2</title>
<polygon style="fill:white;stroke:#bfbfbf;" points="0,-0 0,-20 56,-20 56,-0 0,-0"/>
<text text-anchor="middle" x="28" y="-7" style="font-family:Arial;font-size:10.00;">algorithm</text>
</g>
<!-- Node1&#45;&gt;Node2 -->
<g id="edge2" class="edge"><title>Node1&#45;&gt;Node2</title>
<path style="fill:none;stroke:midnightblue;" d="M274,-56C219,-48 143,-36 66,-20"/>
<polygon style="fill:midnightblue;stroke:midnightblue;" points="66.4922,-16.5292 56,-18 65.1194,-23.3933 66.4922,-16.5292"/>
</g>
<!-- Node3 -->
<g id="node5" class="node"><title>Node3</title>
<polygon style="fill:white;stroke:#bfbfbf;" points="74,-0 74,-20 116,-20 116,-0 74,-0"/>
<text text-anchor="middle" x="95" y="-7" style="font-family:Arial;font-size:10.00;">vector</text>
</g>
<!-- Node1&#45;&gt;Node3 -->
<g id="edge4" class="edge"><title>Node1&#45;&gt;Node3</title>
<path style="fill:none;stroke:midnightblue;" d="M289,-56C246,-48 186,-36 126,-20"/>
<polygon style="fill:midnightblue;stroke:midnightblue;" points="126.584,-16.5212 116,-17 124.573,-23.2259 126.584,-16.5212"/>
</g>
<!-- Node4 -->
<g id="node7" class="node"><title>Node4</title>
<polygon style="fill:white;stroke:#bfbfbf;" points="134,-0 134,-20 164,-20 164,-0 134,-0"/>
<text text-anchor="middle" x="149" y="-7" style="font-family:Arial;font-size:10.00;">set</text>
</g>
<!-- Node1&#45;&gt;Node4 -->
<g id="edge6" class="edge"><title>Node1&#45;&gt;Node4</title>
<path style="fill:none;stroke:midnightblue;" d="M303,-56C270,-48 223,-36 174,-19"/>
<polygon style="fill:midnightblue;stroke:midnightblue;" points="174.584,-15.5212 164,-16 172.573,-22.2259 174.584,-15.5212"/>
</g>
<!-- Node5 -->
<g id="node9" class="node"><title>Node5</title>
<polygon style="fill:white;stroke:#bfbfbf;" points="182,-0 182,-20 233,-20 233,-0 182,-0"/>
<text text-anchor="middle" x="207" y="-7" style="font-family:Arial;font-size:10.00;">sstream</text>
</g>
<!-- Node1&#45;&gt;Node5 -->
<g id="edge8" class="edge"><title>Node1&#45;&gt;Node5</title>
<path style="fill:none;stroke:midnightblue;" d="M321,-56C299,-47 266,-34 241,-24"/>
<polygon style="fill:midnightblue;stroke:midnightblue;" points="242.56,-20.8631 232,-20 239.717,-27.2598 242.56,-20.8631"/>
</g>
<!-- Node6 -->
<g id="node11" class="node"><title>Node6</title>
<polygon style="fill:white;stroke:#bfbfbf;" points="250,-0 250,-20 309,-20 309,-0 250,-0"/>
<text text-anchor="middle" x="279" y="-7" style="font-family:Arial;font-size:10.00;">stdexcept</text>
</g>
<!-- Node1&#45;&gt;Node6 -->
<g id="edge10" class="edge"><title>Node1&#45;&gt;Node6</title>
<path style="fill:none;stroke:midnightblue;" d="M334,-56C324,-48 311,-36 299,-27"/>
<polygon style="fill:midnightblue;stroke:midnightblue;" points="300.831,-23.9511 291,-20 296.221,-29.2191 300.831,-23.9511"/>
</g>
<!-- Node7 -->
<g id="node13" class="node"><title>Node7</title>
<polygon style="fill:white;stroke:#bfbfbf;" points="326,-0 326,-20 366,-20 366,-0 326,-0"/>
<text text-anchor="middle" x="346" y="-7" style="font-family:Arial;font-size:10.00;">string</text>
</g>
<!-- Node1&#45;&gt;Node7 -->
<g id="edge12" class="edge"><title>Node1&#45;&gt;Node7</title>
<path style="fill:none;stroke:midnightblue;" d="M346,-56C346,-49 346,-39 346,-30"/>
<polygon style="fill:midnightblue;stroke:midnightblue;" points="349.5,-30 346,-20 342.5,-30 349.5,-30"/>
</g>
<!-- Node8 -->
<g id="node15" class="node"><title>Node8</title>
<polygon style="fill:white;stroke:#bfbfbf;" points="384,-0 384,-20 498,-20 498,-0 384,-0"/>
<text text-anchor="middle" x="441" y="-7" style="font-family:Arial;font-size:10.00;">boost/lexical_cast.hpp</text>
</g>
<!-- Node1&#45;&gt;Node8 -->
<g id="edge14" class="edge"><title>Node1&#45;&gt;Node8</title>
<path style="fill:none;stroke:midnightblue;" d="M363,-56C377,-48 398,-35 415,-25"/>
<polygon style="fill:midnightblue;stroke:midnightblue;" points="416.958,-27.916 424,-20 413.559,-21.7969 416.958,-27.916"/>
</g>
<!-- Node9 -->
<g id="node17" class="node"><title>Node9</title>
<polygon style="fill:white;stroke:#bfbfbf;" points="516,-0 516,-20 623,-20 623,-0 516,-0"/>
<text text-anchor="middle" x="569" y="-7" style="font-family:Arial;font-size:10.00;">ltr/utility/shared_ptr.h</text>
</g>
<!-- Node1&#45;&gt;Node9 -->
<g id="edge16" class="edge"><title>Node1&#45;&gt;Node9</title>
<path style="fill:none;stroke:midnightblue;" d="M386,-56C423,-47 479,-32 519,-22"/>
<polygon style="fill:midnightblue;stroke:midnightblue;" points="519.881,-25.3933 529,-20 518.508,-18.5292 519.881,-25.3933"/>
</g>
<!-- Node10 -->
<g id="node19" class="node"><title>Node10</title>
<polygon style="fill:white;stroke:#bfbfbf;" points="640,-0 640,-20 735,-20 735,-0 640,-0"/>
<text text-anchor="middle" x="687" y="-7" style="font-family:Arial;font-size:10.00;">ltr/data/data_set.h</text>
</g>
<!-- Node1&#45;&gt;Node10 -->
<g id="edge18" class="edge"><title>Node1&#45;&gt;Node10</title>
<path style="fill:none;stroke:midnightblue;" d="M409,-56C465,-47 547,-34 630,-20"/>
<polygon style="fill:midnightblue;stroke:midnightblue;" points="630.881,-23.3933 640,-18 629.508,-16.5292 630.881,-23.3933"/>
</g>
<!-- Node11 -->
<g id="node21" class="node"><title>Node11</title>
<polygon style="fill:white;stroke:#bfbfbf;" points="752,-0 752,-20 956,-20 956,-0 752,-0"/>
<text text-anchor="middle" x="854" y="-7" style="font-family:Arial;font-size:10.00;">ltr/data_preprocessors/data_preprocessor.h</text>
</g>
<!-- Node1&#45;&gt;Node11 -->
<g id="edge20" class="edge"><title>Node1&#45;&gt;Node11</title>
<path style="fill:none;stroke:midnightblue;" d="M437,-56C526,-46 661,-31 754,-21"/>
<polygon style="fill:midnightblue;stroke:midnightblue;" points="754.398,-24.4778 764,-20 753.701,-17.5125 754.398,-24.4778"/>
</g>
<!-- Node12 -->
<g id="node23" class="node"><title>Node12</title>
<polygon style="fill:white;stroke:#bfbfbf;" points="974,-0 974,-20 1067,-20 1067,-0 974,-0"/>
<text text-anchor="middle" x="1020" y="-7" style="font-family:Arial;font-size:10.00;">ltr/utility/indices.h</text>
</g>
<!-- Node1&#45;&gt;Node12 -->
<g id="edge22" class="edge"><title>Node1&#45;&gt;Node12</title>
<path style="fill:none;stroke:midnightblue;" d="M437,-62C556,-56 771,-43 964,-19"/>
<polygon style="fill:midnightblue;stroke:midnightblue;" points="964.398,-22.4778 974,-18 963.701,-15.5125 964.398,-22.4778"/>
</g>
</g>
</svg>
