<?xml version="1.0" encoding="UTF-8" standalone="no"?>
<!DOCTYPE svg PUBLIC "-//W3C//DTD SVG 1.0//EN"
 "http://www.w3.org/TR/2001/REC-SVG-20010904/DTD/svg10.dtd" [
 <!ATTLIST svg xmlns:xlink CDATA #FIXED "http://www.w3.org/1999/xlink">
]>
<!-- Generated by Graphviz version 2.20.2 (Tue Mar &#160;2 19:03:41 UTC 2010)
     For user: (jenkins)  -->
<!-- Title: G Pages: 1 -->
<svg width="614pt" height="84pt"
 viewBox="0.00 0.00 614.00 84.00" xmlns="http://www.w3.org/2000/svg" xmlns:xlink="http://www.w3.org/1999/xlink">
<g id="graph0" class="graph" transform="scale(1 1) rotate(0) translate(4 80)">
<title>G</title>
<polygon style="fill:white;stroke:white;" points="-4,4 -4,-80 610,-80 610,4 -4,4"/>
<!-- Node1 -->
<g id="node1" class="node"><title>Node1</title>
<polygon style="fill:#bfbfbf;stroke:black;" points="149,-56 149,-76 320,-76 320,-56 149,-56"/>
<text text-anchor="middle" x="234" y="-63" style="font-family:Arial;font-size:10.00;">ltr/data/utility/data_set_converters.h</text>
</g>
<!-- Node2 -->
<g id="node3" class="node"><title>Node2</title>
<polygon style="fill:white;stroke:#bfbfbf;" points="0,-0 0,-20 45,-20 45,-0 0,-0"/>
<text text-anchor="middle" x="22" y="-7" style="font-family:Arial;font-size:10.00;">cstdlib</text>
</g>
<!-- Node1&#45;&gt;Node2 -->
<g id="edge2" class="edge"><title>Node1&#45;&gt;Node2</title>
<path style="fill:none;stroke:midnightblue;" d="M193,-56C158,-48 107,-35 55,-20"/>
<polygon style="fill:midnightblue;stroke:midnightblue;" points="55.584,-16.5212 45,-17 53.5725,-23.2259 55.584,-16.5212"/>
</g>
<!-- Node3 -->
<g id="node5" class="node"><title>Node3</title>
<polygon style="fill:white;stroke:#bfbfbf;" points="62,-0 62,-20 104,-20 104,-0 62,-0"/>
<text text-anchor="middle" x="83" y="-7" style="font-family:Arial;font-size:10.00;">vector</text>
</g>
<!-- Node1&#45;&gt;Node3 -->
<g id="edge4" class="edge"><title>Node1&#45;&gt;Node3</title>
<path style="fill:none;stroke:midnightblue;" d="M207,-56C181,-46 141,-32 114,-22"/>
<polygon style="fill:midnightblue;stroke:midnightblue;" points="114.585,-18.4643 104,-18 111.985,-24.9636 114.585,-18.4643"/>
</g>
<!-- Node4 -->
<g id="node7" class="node"><title>Node4</title>
<polygon style="fill:white;stroke:#bfbfbf;" points="122,-0 122,-20 229,-20 229,-0 122,-0"/>
<text text-anchor="middle" x="175" y="-7" style="font-family:Arial;font-size:10.00;">ltr/utility/shared_ptr.h</text>
</g>
<!-- Node1&#45;&gt;Node4 -->
<g id="edge6" class="edge"><title>Node1&#45;&gt;Node4</title>
<path style="fill:none;stroke:midnightblue;" d="M223,-56C214,-48 203,-37 193,-27"/>
<polygon style="fill:midnightblue;stroke:midnightblue;" points="195.546,-24.5962 186,-20 190.596,-29.546 195.546,-24.5962"/>
</g>
<!-- Node5 -->
<g id="node9" class="node"><title>Node5</title>
<polygon style="fill:white;stroke:#bfbfbf;" points="246,-0 246,-20 341,-20 341,-0 246,-0"/>
<text text-anchor="middle" x="293" y="-7" style="font-family:Arial;font-size:10.00;">ltr/data/data_set.h</text>
</g>
<!-- Node1&#45;&gt;Node5 -->
<g id="edge8" class="edge"><title>Node1&#45;&gt;Node5</title>
<path style="fill:none;stroke:midnightblue;" d="M245,-56C254,-48 265,-37 275,-27"/>
<polygon style="fill:midnightblue;stroke:midnightblue;" points="277.404,-29.546 282,-20 272.454,-24.5962 277.404,-29.546"/>
</g>
<!-- Node6 -->
<g id="node11" class="node"><title>Node6</title>
<polygon style="fill:white;stroke:#bfbfbf;" points="358,-0 358,-20 442,-20 442,-0 358,-0"/>
<text text-anchor="middle" x="400" y="-7" style="font-family:Arial;font-size:10.00;">ltr/data/object.h</text>
</g>
<!-- Node1&#45;&gt;Node6 -->
<g id="edge10" class="edge"><title>Node1&#45;&gt;Node6</title>
<path style="fill:none;stroke:midnightblue;" d="M264,-56C291,-47 331,-33 360,-23"/>
<polygon style="fill:midnightblue;stroke:midnightblue;" points="361.427,-26.2259 370,-20 359.416,-19.5212 361.427,-26.2259"/>
</g>
<!-- Node7 -->
<g id="node13" class="node"><title>Node7</title>
<polygon style="fill:white;stroke:#bfbfbf;" points="460,-0 460,-20 607,-20 607,-0 460,-0"/>
<text text-anchor="middle" x="533" y="-7" style="font-family:Arial;font-size:10.00;">ltr/data/per_object_accessor.h</text>
</g>
<!-- Node1&#45;&gt;Node7 -->
<g id="edge12" class="edge"><title>Node1&#45;&gt;Node7</title>
<path style="fill:none;stroke:midnightblue;" d="M287,-56C338,-47 415,-32 470,-22"/>
<polygon style="fill:midnightblue;stroke:midnightblue;" points="470.881,-25.3933 480,-20 469.508,-18.5292 470.881,-25.3933"/>
</g>
</g>
</svg>
