<?xml version="1.0" encoding="UTF-8" standalone="no"?>
<!DOCTYPE svg PUBLIC "-//W3C//DTD SVG 1.0//EN"
 "http://www.w3.org/TR/2001/REC-SVG-20010904/DTD/svg10.dtd" [
 <!ATTLIST svg xmlns:xlink CDATA #FIXED "http://www.w3.org/1999/xlink">
]>
<!-- Generated by Graphviz version 2.20.2 (Tue Mar &#160;2 19:03:41 UTC 2010)
     For user: (jenkins)  -->
<!-- Title: G Pages: 1 -->
<svg width="520pt" height="84pt"
 viewBox="0.00 0.00 520.00 84.00" xmlns="http://www.w3.org/2000/svg" xmlns:xlink="http://www.w3.org/1999/xlink">
<g id="graph0" class="graph" transform="scale(1 1) rotate(0) translate(4 80)">
<title>G</title>
<polygon style="fill:white;stroke:white;" points="-4,4 -4,-80 516,-80 516,4 -4,4"/>
<!-- Node1 -->
<g id="node1" class="node"><title>Node1</title>
<polygon style="fill:#bfbfbf;stroke:black;" points="134,-56 134,-76 424,-76 424,-56 134,-56"/>
<text text-anchor="middle" x="279" y="-63" style="font-family:Arial;font-size:10.00;">ltr/learners/decision_tree/split_criteria/data_size_stop_criteria.h</text>
</g>
<!-- Node2 -->
<g id="node3" class="node"><title>Node2</title>
<a xlink:href="data__size__stop__criteria_8cc.html" target="_top" xlink:title="ltr/learners/decision_tree/split_criteria/data_size_stop_criteria.cc">
<polygon style="fill:white;stroke:black;" points="0,-0 0,-20 295,-20 295,-0 0,-0"/>
<text text-anchor="middle" x="147" y="-7" style="font-family:Arial;font-size:10.00;">ltr/learners/decision_tree/split_criteria/data_size_stop_criteria.cc</text>
</a>
</g>
<!-- Node1&#45;&gt;Node2 -->
<g id="edge2" class="edge"><title>Node1&#45;&gt;Node2</title>
<path style="fill:none;stroke:midnightblue;" d="M245,-52C222,-42 192,-29 171,-20"/>
<polygon style="fill:midnightblue;stroke:midnightblue;" points="244.415,-55.5357 255,-56 247.015,-49.0364 244.415,-55.5357"/>
</g>
<!-- Node3 -->
<g id="node5" class="node"><title>Node3</title>
<a xlink:href="generator_8cc.html" target="_top" xlink:title="ltr/serialization_test/generator/generator.cc">
<polygon style="fill:white;stroke:black;" points="312,-0 312,-20 513,-20 513,-0 312,-0"/>
<text text-anchor="middle" x="412" y="-7" style="font-family:Arial;font-size:10.00;">ltr/serialization_test/generator/generator.cc</text>
</a>
</g>
<!-- Node1&#45;&gt;Node3 -->
<g id="edge4" class="edge"><title>Node1&#45;&gt;Node3</title>
<path style="fill:none;stroke:midnightblue;" d="M312,-52C336,-42 367,-29 388,-20"/>
<polygon style="fill:midnightblue;stroke:midnightblue;" points="310.717,-48.7402 303,-56 313.56,-55.1369 310.717,-48.7402"/>
</g>
</g>
</svg>
