<?xml version="1.0" encoding="UTF-8" standalone="no"?>
<!DOCTYPE svg PUBLIC "-//W3C//DTD SVG 1.0//EN"
 "http://www.w3.org/TR/2001/REC-SVG-20010904/DTD/svg10.dtd" [
 <!ATTLIST svg xmlns:xlink CDATA #FIXED "http://www.w3.org/1999/xlink">
]>
<!-- Generated by Graphviz version 2.20.2 (Tue Mar &#160;2 19:03:41 UTC 2010)
     For user: (jenkins)  -->
<!-- Title: G Pages: 1 -->
<svg width="1174pt" height="196pt"
 viewBox="0.00 0.00 1174.00 196.00" xmlns="http://www.w3.org/2000/svg" xmlns:xlink="http://www.w3.org/1999/xlink">
<g id="graph0" class="graph" transform="scale(1 1) rotate(0) translate(4 192)">
<title>G</title>
<polygon style="fill:white;stroke:white;" points="-4,4 -4,-192 1170,-192 1170,4 -4,4"/>
<!-- Node1 -->
<g id="node1" class="node"><title>Node1</title>
<polygon style="fill:#bfbfbf;stroke:black;" points="310,-168 310,-188 586,-188 586,-168 310,-168"/>
<text text-anchor="middle" x="448" y="-175" style="font-family:Arial;font-size:10.00;">ltr/learners/composition_learner/data_set_weights_updater.h</text>
</g>
<!-- Node2 -->
<g id="node3" class="node"><title>Node2</title>
<a xlink:href="ada__boost__data__set__weights__updater_8h.html" target="_top" xlink:title="ltr/learners/composition_learner/ada_boost_data_set_weights_updater.h">
<polygon style="fill:white;stroke:black;" points="0,-112 0,-132 326,-132 326,-112 0,-112"/>
<text text-anchor="middle" x="163" y="-119" style="font-family:Arial;font-size:10.00;">ltr/learners/composition_learner/ada_boost_data_set_weights_updater.h</text>
</a>
</g>
<!-- Node1&#45;&gt;Node2 -->
<g id="edge2" class="edge"><title>Node1&#45;&gt;Node2</title>
<path style="fill:none;stroke:midnightblue;" d="M387,-166C335,-156 263,-141 214,-132"/>
<polygon style="fill:midnightblue;stroke:midnightblue;" points="386.508,-169.471 397,-168 387.881,-162.607 386.508,-169.471"/>
</g>
<!-- Node4 -->
<g id="node7" class="node"><title>Node4</title>
<a xlink:href="linear__composition__unittest_8cc.html" target="_top" xlink:title="ltr/learners/composition_learner/linear_composition_unittest.cc">
<polygon style="fill:white;stroke:black;" points="211,-0 211,-20 498,-20 498,-0 211,-0"/>
<text text-anchor="middle" x="354" y="-7" style="font-family:Arial;font-size:10.00;">ltr/learners/composition_learner/linear_composition_unittest.cc</text>
</a>
</g>
<!-- Node1&#45;&gt;Node4 -->
<g id="edge22" class="edge"><title>Node1&#45;&gt;Node4</title>
<path style="fill:none;stroke:midnightblue;" d="M411,-163C397,-156 382,-146 373,-132 349,-96 351,-42 353,-20"/>
<polygon style="fill:midnightblue;stroke:midnightblue;" points="409.559,-166.203 420,-168 412.958,-160.084 409.559,-166.203"/>
</g>
<!-- Node5 -->
<g id="node10" class="node"><title>Node5</title>
<a xlink:href="ada__rank__data__set__weights__updater_8h.html" target="_top" xlink:title="ltr/learners/composition_learner/ada_rank_data_set_weights_updater.h">
<polygon style="fill:white;stroke:black;" points="382,-112 382,-132 703,-132 703,-112 382,-112"/>
<text text-anchor="middle" x="542" y="-119" style="font-family:Arial;font-size:10.00;">ltr/learners/composition_learner/ada_rank_data_set_weights_updater.h</text>
</a>
</g>
<!-- Node1&#45;&gt;Node5 -->
<g id="edge10" class="edge"><title>Node1&#45;&gt;Node5</title>
<path style="fill:none;stroke:midnightblue;" d="M474,-163C490,-153 511,-140 525,-132"/>
<polygon style="fill:midnightblue;stroke:midnightblue;" points="472.042,-160.084 465,-168 475.441,-166.203 472.042,-160.084"/>
</g>
<!-- Node6 -->
<g id="node13" class="node"><title>Node6</title>
<a xlink:href="composition__learner_8h.html" target="_top" xlink:title="ltr/learners/composition_learner/composition_learner.h">
<polygon style="fill:white;stroke:black;" points="720,-112 720,-132 969,-132 969,-112 720,-112"/>
<text text-anchor="middle" x="844" y="-119" style="font-family:Arial;font-size:10.00;">ltr/learners/composition_learner/composition_learner.h</text>
</a>
</g>
<!-- Node1&#45;&gt;Node6 -->
<g id="edge14" class="edge"><title>Node1&#45;&gt;Node6</title>
<path style="fill:none;stroke:midnightblue;" d="M529,-167C601,-157 705,-142 774,-132"/>
<polygon style="fill:midnightblue;stroke:midnightblue;" points="528.602,-163.522 519,-168 529.299,-170.488 528.602,-163.522"/>
</g>
<!-- Node3 -->
<g id="node5" class="node"><title>Node3</title>
<a xlink:href="ada__boost__learner_8h.html" target="_top" xlink:title="ltr/learners/composition_learner/ada_boost_learner.h">
<polygon style="fill:white;stroke:black;" points="43,-56 43,-76 285,-76 285,-56 43,-56"/>
<text text-anchor="middle" x="164" y="-63" style="font-family:Arial;font-size:10.00;">ltr/learners/composition_learner/ada_boost_learner.h</text>
</a>
</g>
<!-- Node2&#45;&gt;Node3 -->
<g id="edge4" class="edge"><title>Node2&#45;&gt;Node3</title>
<path style="fill:none;stroke:midnightblue;" d="M163,-102C163,-93 163,-84 164,-76"/>
<polygon style="fill:midnightblue;stroke:midnightblue;" points="159.5,-102 163,-112 166.5,-102 159.5,-102"/>
</g>
<!-- Node2&#45;&gt;Node4 -->
<g id="edge8" class="edge"><title>Node2&#45;&gt;Node4</title>
<path style="fill:none;stroke:midnightblue;" d="M218,-109C243,-102 271,-91 294,-76 317,-61 337,-35 347,-20"/>
<polygon style="fill:midnightblue;stroke:midnightblue;" points="216.573,-105.774 208,-112 218.584,-112.479 216.573,-105.774"/>
</g>
<!-- Node3&#45;&gt;Node4 -->
<g id="edge6" class="edge"><title>Node3&#45;&gt;Node4</title>
<path style="fill:none;stroke:midnightblue;" d="M208,-53C242,-43 289,-29 320,-20"/>
<polygon style="fill:midnightblue;stroke:midnightblue;" points="206.573,-49.7741 198,-56 208.584,-56.4788 206.573,-49.7741"/>
</g>
<!-- Node5&#45;&gt;Node4 -->
<g id="edge12" class="edge"><title>Node5&#45;&gt;Node4</title>
<path style="fill:none;stroke:midnightblue;" d="M516,-107C478,-83 404,-39 371,-20"/>
<polygon style="fill:midnightblue;stroke:midnightblue;" points="514.559,-110.203 525,-112 517.958,-104.084 514.559,-110.203"/>
</g>
<!-- Node6&#45;&gt;Node4 -->
<g id="edge18" class="edge"><title>Node6&#45;&gt;Node4</title>
<path style="fill:none;stroke:midnightblue;" d="M790,-110C692,-87 489,-40 398,-20"/>
<polygon style="fill:midnightblue;stroke:midnightblue;" points="789.508,-113.471 800,-112 790.881,-106.607 789.508,-113.471"/>
</g>
<!-- Node7 -->
<g id="node15" class="node"><title>Node7</title>
<a xlink:href="composition__learner__unittest_8cc.html" target="_top" xlink:title="ltr/learners/composition_learner/composition_learner_unittest.cc">
<polygon style="fill:white;stroke:black;" points="656,-56 656,-76 949,-76 949,-56 656,-56"/>
<text text-anchor="middle" x="802" y="-63" style="font-family:Arial;font-size:10.00;">ltr/learners/composition_learner/composition_learner_unittest.cc</text>
</a>
</g>
<!-- Node6&#45;&gt;Node7 -->
<g id="edge16" class="edge"><title>Node6&#45;&gt;Node7</title>
<path style="fill:none;stroke:midnightblue;" d="M830,-104C823,-95 815,-84 810,-76"/>
<polygon style="fill:midnightblue;stroke:midnightblue;" points="827.2,-106.1 836,-112 832.8,-101.9 827.2,-106.1"/>
</g>
<!-- Node8 -->
<g id="node18" class="node"><title>Node8</title>
<a xlink:href="generator_8cc.html" target="_top" xlink:title="ltr/serialization_test/generator/generator.cc">
<polygon style="fill:white;stroke:black;" points="966,-56 966,-76 1167,-76 1167,-56 966,-56"/>
<text text-anchor="middle" x="1066" y="-63" style="font-family:Arial;font-size:10.00;">ltr/serialization_test/generator/generator.cc</text>
</a>
</g>
<!-- Node6&#45;&gt;Node8 -->
<g id="edge20" class="edge"><title>Node6&#45;&gt;Node8</title>
<path style="fill:none;stroke:midnightblue;" d="M894,-110C934,-100 989,-85 1026,-76"/>
<polygon style="fill:midnightblue;stroke:midnightblue;" points="893.119,-106.607 884,-112 894.492,-113.471 893.119,-106.607"/>
</g>
</g>
</svg>
