<?xml version="1.0" encoding="UTF-8" standalone="no"?>
<!DOCTYPE svg PUBLIC "-//W3C//DTD SVG 1.0//EN"
 "http://www.w3.org/TR/2001/REC-SVG-20010904/DTD/svg10.dtd" [
 <!ATTLIST svg xmlns:xlink CDATA #FIXED "http://www.w3.org/1999/xlink">
]>
<!-- Generated by Graphviz version 2.20.2 (Tue Mar &#160;2 19:03:41 UTC 2010)
     For user: (jenkins)  -->
<!-- Title: G Pages: 1 -->
<svg width="532pt" height="140pt"
 viewBox="0.00 0.00 532.00 140.00" xmlns="http://www.w3.org/2000/svg" xmlns:xlink="http://www.w3.org/1999/xlink">
<g id="graph0" class="graph" transform="scale(1 1) rotate(0) translate(4 136)">
<title>G</title>
<polygon style="fill:white;stroke:white;" points="-4,4 -4,-136 528,-136 528,4 -4,4"/>
<!-- Node1 -->
<g id="node1" class="node"><title>Node1</title>
<polygon style="fill:#bfbfbf;stroke:black;" points="267,-112 267,-132 364,-132 364,-112 267,-112"/>
<text text-anchor="middle" x="315" y="-119" style="font-family:Arial;font-size:10.00;">ltr/measures/dcg.h</text>
</g>
<!-- Node2 -->
<g id="node3" class="node"><title>Node2</title>
<a xlink:href="gp__learner__unittest_8cc.html" target="_top" xlink:title="ltr/learners/gp_learner/gp_learner_unittest.cc">
<polygon style="fill:white;stroke:black;" points="0,-56 0,-76 209,-76 209,-56 0,-56"/>
<text text-anchor="middle" x="104" y="-63" style="font-family:Arial;font-size:10.00;">ltr/learners/gp_learner/gp_learner_unittest.cc</text>
</a>
</g>
<!-- Node1&#45;&gt;Node2 -->
<g id="edge2" class="edge"><title>Node1&#45;&gt;Node2</title>
<path style="fill:none;stroke:midnightblue;" d="M267,-109C229,-99 177,-85 142,-76"/>
<polygon style="fill:midnightblue;stroke:midnightblue;" points="266.416,-112.479 277,-112 268.427,-105.774 266.416,-112.479"/>
</g>
<!-- Node3 -->
<g id="node5" class="node"><title>Node3</title>
<a xlink:href="ndcg_8h.html" target="_top" xlink:title="ltr/measures/ndcg.h">
<polygon style="fill:white;stroke:black;" points="264,-56 264,-76 366,-76 366,-56 264,-56"/>
<text text-anchor="middle" x="315" y="-63" style="font-family:Arial;font-size:10.00;">ltr/measures/ndcg.h</text>
</a>
</g>
<!-- Node1&#45;&gt;Node3 -->
<g id="edge4" class="edge"><title>Node1&#45;&gt;Node3</title>
<path style="fill:none;stroke:midnightblue;" d="M315,-102C315,-93 315,-84 315,-76"/>
<polygon style="fill:midnightblue;stroke:midnightblue;" points="311.5,-102 315,-112 318.5,-102 311.5,-102"/>
</g>
<!-- Node4 -->
<g id="node7" class="node"><title>Node4</title>
<a xlink:href="learners__unittest_8cc.html" target="_top" xlink:title="ltr/learners/learners_unittest.cc">
<polygon style="fill:white;stroke:black;" points="142,-0 142,-20 292,-20 292,-0 142,-0"/>
<text text-anchor="middle" x="217" y="-7" style="font-family:Arial;font-size:10.00;">ltr/learners/learners_unittest.cc</text>
</a>
</g>
<!-- Node1&#45;&gt;Node4 -->
<g id="edge10" class="edge"><title>Node1&#45;&gt;Node4</title>
<path style="fill:none;stroke:midnightblue;" d="M291,-106C279,-98 265,-87 255,-76 239,-58 227,-34 221,-20"/>
<polygon style="fill:midnightblue;stroke:midnightblue;" points="288.9,-108.8 299,-112 293.1,-103.2 288.9,-108.8"/>
</g>
<!-- Node5 -->
<g id="node9" class="node"><title>Node5</title>
<a xlink:href="listwise__measures__unittest_8cc.html" target="_top" xlink:title="ltr/measures/listwise_measures_unittest.cc">
<polygon style="fill:white;stroke:black;" points="310,-0 310,-20 514,-20 514,-0 310,-0"/>
<text text-anchor="middle" x="412" y="-7" style="font-family:Arial;font-size:10.00;">ltr/measures/listwise_measures_unittest.cc</text>
</a>
</g>
<!-- Node1&#45;&gt;Node5 -->
<g id="edge14" class="edge"><title>Node1&#45;&gt;Node5</title>
<path style="fill:none;stroke:midnightblue;" d="M339,-106C351,-98 365,-87 375,-76 390,-58 402,-34 408,-20"/>
<polygon style="fill:midnightblue;stroke:midnightblue;" points="336.9,-103.2 331,-112 341.1,-108.8 336.9,-103.2"/>
</g>
<!-- Node6 -->
<g id="node12" class="node"><title>Node6</title>
<a xlink:href="dcg_8cc.html" target="_top" xlink:title="ltr/measures/dcg.cc">
<polygon style="fill:white;stroke:black;" points="422,-56 422,-76 524,-76 524,-56 422,-56"/>
<text text-anchor="middle" x="473" y="-63" style="font-family:Arial;font-size:10.00;">ltr/measures/dcg.cc</text>
</a>
</g>
<!-- Node1&#45;&gt;Node6 -->
<g id="edge12" class="edge"><title>Node1&#45;&gt;Node6</title>
<path style="fill:none;stroke:midnightblue;" d="M353,-109C381,-99 419,-85 445,-76"/>
<polygon style="fill:midnightblue;stroke:midnightblue;" points="351.573,-105.774 343,-112 353.584,-112.479 351.573,-105.774"/>
</g>
<!-- Node3&#45;&gt;Node4 -->
<g id="edge6" class="edge"><title>Node3&#45;&gt;Node4</title>
<path style="fill:none;stroke:midnightblue;" d="M288,-51C271,-41 249,-28 235,-20"/>
<polygon style="fill:midnightblue;stroke:midnightblue;" points="286.559,-54.2031 297,-56 289.958,-48.084 286.559,-54.2031"/>
</g>
<!-- Node3&#45;&gt;Node5 -->
<g id="edge8" class="edge"><title>Node3&#45;&gt;Node5</title>
<path style="fill:none;stroke:midnightblue;" d="M341,-51C358,-41 380,-28 394,-20"/>
<polygon style="fill:midnightblue;stroke:midnightblue;" points="339.042,-48.084 332,-56 342.441,-54.2031 339.042,-48.084"/>
</g>
</g>
</svg>
