<?xml version="1.0" encoding="UTF-8" standalone="no"?>
<!DOCTYPE svg PUBLIC "-//W3C//DTD SVG 1.0//EN"
 "http://www.w3.org/TR/2001/REC-SVG-20010904/DTD/svg10.dtd" [
 <!ATTLIST svg xmlns:xlink CDATA #FIXED "http://www.w3.org/1999/xlink">
]>
<!-- Generated by Graphviz version 2.20.2 (Tue Mar &#160;2 19:03:41 UTC 2010)
     For user: (jenkins)  -->
<!-- Title: G Pages: 1 -->
<svg width="1594pt" height="420pt"
 viewBox="0.00 0.00 1594.00 420.00" xmlns="http://www.w3.org/2000/svg" xmlns:xlink="http://www.w3.org/1999/xlink">
<g id="graph0" class="graph" transform="scale(1 1) rotate(0) translate(4 416)">
<title>G</title>
<polygon style="fill:white;stroke:white;" points="-4,4 -4,-416 1590,-416 1590,4 -4,4"/>
<!-- Node1 -->
<g id="node1" class="node"><title>Node1</title>
<polygon style="fill:#bfbfbf;stroke:black;" points="544,-392 544,-412 641,-412 641,-392 544,-392"/>
<text text-anchor="middle" x="592" y="-399" style="font-family:Arial;font-size:10.00;">ltr/measures/dcg.h</text>
</g>
<!-- Node2 -->
<g id="node3" class="node"><title>Node2</title>
<polygon style="fill:white;stroke:#bfbfbf;" points="721,-56 721,-76 780,-76 780,-56 721,-56"/>
<text text-anchor="middle" x="750" y="-63" style="font-family:Arial;font-size:10.00;">stdexcept</text>
</g>
<!-- Node1&#45;&gt;Node2 -->
<g id="edge2" class="edge"><title>Node1&#45;&gt;Node2</title>
<path style="fill:none;stroke:midnightblue;" d="M581,-392C562,-374 526,-332 526,-290 526,-290 526,-290 526,-234 526,-203 526,-191 545,-168 589,-116 665,-88 711,-75"/>
<polygon style="fill:midnightblue;stroke:midnightblue;" points="712.427,-78.2259 721,-72 710.416,-71.5212 712.427,-78.2259"/>
</g>
<!-- Node3 -->
<g id="node5" class="node"><title>Node3</title>
<polygon style="fill:white;stroke:#bfbfbf;" points="10,-0 10,-20 66,-20 66,-0 10,-0"/>
<text text-anchor="middle" x="38" y="-7" style="font-family:Arial;font-size:10.00;">algorithm</text>
</g>
<!-- Node1&#45;&gt;Node3 -->
<g id="edge4" class="edge"><title>Node1&#45;&gt;Node3</title>
<path style="fill:none;stroke:midnightblue;" d="M544,-400C467,-396 313,-385 185,-356 100,-336 0,-377 0,-290 0,-290 0,-290 0,-122 0,-87 16,-50 27,-29"/>
<polygon style="fill:midnightblue;stroke:midnightblue;" points="30.2031,-30.4414 32,-20 24.084,-27.0418 30.2031,-30.4414"/>
</g>
<!-- Node4 -->
<g id="node7" class="node"><title>Node4</title>
<polygon style="fill:white;stroke:#bfbfbf;" points="554,-224 554,-244 605,-244 605,-224 554,-224"/>
<text text-anchor="middle" x="579" y="-231" style="font-family:Arial;font-size:10.00;">sstream</text>
</g>
<!-- Node1&#45;&gt;Node4 -->
<g id="edge6" class="edge"><title>Node1&#45;&gt;Node4</title>
<path style="fill:none;stroke:midnightblue;" d="M590,-392C588,-382 585,-368 583,-356 579,-321 579,-279 579,-254"/>
<polygon style="fill:midnightblue;stroke:midnightblue;" points="582.5,-254 579,-244 575.5,-254 582.5,-254"/>
</g>
<!-- Node5 -->
<g id="node9" class="node"><title>Node5</title>
<polygon style="fill:white;stroke:#bfbfbf;" points="624,-0 624,-20 664,-20 664,-0 624,-0"/>
<text text-anchor="middle" x="644" y="-7" style="font-family:Arial;font-size:10.00;">string</text>
</g>
<!-- Node1&#45;&gt;Node5 -->
<g id="edge8" class="edge"><title>Node1&#45;&gt;Node5</title>
<path style="fill:none;stroke:midnightblue;" d="M544,-397C416,-382 76,-337 76,-290 76,-290 76,-290 76,-122 76,-86 92,-73 122,-56 165,-31 509,-15 614,-11"/>
<polygon style="fill:midnightblue;stroke:midnightblue;" points="614,-14.5001 624,-11 614,-7.5001 614,-14.5001"/>
</g>
<!-- Node6 -->
<g id="node11" class="node"><title>Node6</title>
<polygon style="fill:white;stroke:#bfbfbf;" points="1413,-56 1413,-76 1455,-76 1455,-56 1413,-56"/>
<text text-anchor="middle" x="1434" y="-63" style="font-family:Arial;font-size:10.00;">vector</text>
</g>
<!-- Node1&#45;&gt;Node6 -->
<g id="edge10" class="edge"><title>Node1&#45;&gt;Node6</title>
<path style="fill:none;stroke:midnightblue;" d="M641,-402C842,-400 1586,-386 1586,-290 1586,-290 1586,-290 1586,-178 1586,-119 1509,-87 1465,-74"/>
<polygon style="fill:midnightblue;stroke:midnightblue;" points="1465.58,-70.5212 1455,-71 1463.57,-77.2259 1465.58,-70.5212"/>
</g>
<!-- Node7 -->
<g id="node13" class="node"><title>Node7</title>
<polygon style="fill:white;stroke:#bfbfbf;" points="592,-336 592,-356 649,-356 649,-336 592,-336"/>
<text text-anchor="middle" x="620" y="-343" style="font-family:Arial;font-size:10.00;">functional</text>
</g>
<!-- Node1&#45;&gt;Node7 -->
<g id="edge12" class="edge"><title>Node1&#45;&gt;Node7</title>
<path style="fill:none;stroke:midnightblue;" d="M597,-392C601,-385 606,-374 611,-365"/>
<polygon style="fill:midnightblue;stroke:midnightblue;" points="614.137,-366.56 615,-356 607.74,-363.717 614.137,-366.56"/>
</g>
<!-- Node8 -->
<g id="node15" class="node"><title>Node8</title>
<a xlink:href="object__list_8h.html" target="_top" xlink:title="ltr/data/object_list.h">
<polygon style="fill:white;stroke:black;" points="974,-168 974,-188 1076,-188 1076,-168 974,-168"/>
<text text-anchor="middle" x="1025" y="-175" style="font-family:Arial;font-size:10.00;">ltr/data/object_list.h</text>
</a>
</g>
<!-- Node1&#45;&gt;Node8 -->
<g id="edge14" class="edge"><title>Node1&#45;&gt;Node8</title>
<path style="fill:none;stroke:midnightblue;" d="M641,-400C819,-393 1420,-364 1474,-300 1526,-238 1221,-198 1086,-184"/>
<polygon style="fill:midnightblue;stroke:midnightblue;" points="1086.3,-180.512 1076,-183 1085.6,-187.478 1086.3,-180.512"/>
</g>
<!-- Node16 -->
<g id="node42" class="node"><title>Node16</title>
<a xlink:href="aliaser_8h.html" target="_top" xlink:title="ltr/interfaces/aliaser.h">
<polygon style="fill:white;stroke:black;" points="104,-224 104,-244 212,-244 212,-224 104,-224"/>
<text text-anchor="middle" x="158" y="-231" style="font-family:Arial;font-size:10.00;">ltr/interfaces/aliaser.h</text>
</a>
</g>
<!-- Node1&#45;&gt;Node16 -->
<g id="edge52" class="edge"><title>Node1&#45;&gt;Node16</title>
<path style="fill:none;stroke:midnightblue;" d="M544,-394C451,-379 251,-342 196,-300 181,-288 171,-268 165,-253"/>
<polygon style="fill:midnightblue;stroke:midnightblue;" points="168.26,-251.717 161,-244 161.863,-254.56 168.26,-251.717"/>
</g>
<!-- Node17 -->
<g id="node45" class="node"><title>Node17</title>
<a xlink:href="measure_8h.html" target="_top" xlink:title="ltr/measures/measure.h">
<polygon style="fill:white;stroke:black;" points="666,-336 666,-356 785,-356 785,-336 666,-336"/>
<text text-anchor="middle" x="725" y="-343" style="font-family:Arial;font-size:10.00;">ltr/measures/measure.h</text>
</a>
</g>
<!-- Node1&#45;&gt;Node17 -->
<g id="edge56" class="edge"><title>Node1&#45;&gt;Node17</title>
<path style="fill:none;stroke:midnightblue;" d="M616,-392C637,-383 668,-370 692,-360"/>
<polygon style="fill:midnightblue;stroke:midnightblue;" points="693.283,-363.26 701,-356 690.44,-356.863 693.283,-363.26"/>
</g>
<!-- Node32 -->
<g id="node115" class="node"><title>Node32</title>
<a xlink:href="measure__utility_8h.html" target="_top" xlink:title="ltr/measures/utils/measure_utility.h">
<polygon style="fill:white;stroke:black;" points="986,-336 986,-356 1154,-356 1154,-336 986,-336"/>
<text text-anchor="middle" x="1070" y="-343" style="font-family:Arial;font-size:10.00;">ltr/measures/utils/measure_utility.h</text>
</a>
</g>
<!-- Node1&#45;&gt;Node32 -->
<g id="edge166" class="edge"><title>Node1&#45;&gt;Node32</title>
<path style="fill:none;stroke:midnightblue;" d="M641,-396C719,-387 875,-369 976,-357"/>
<polygon style="fill:midnightblue;stroke:midnightblue;" points="976.398,-360.478 986,-356 975.701,-353.512 976.398,-360.478"/>
</g>
<!-- Node8&#45;&gt;Node2 -->
<g id="edge16" class="edge"><title>Node8&#45;&gt;Node2</title>
<path style="fill:none;stroke:midnightblue;" d="M1000,-168C951,-147 840,-102 784,-80"/>
<polygon style="fill:midnightblue;stroke:midnightblue;" points="785.56,-76.8631 775,-76 782.717,-83.2598 785.56,-76.8631"/>
</g>
<!-- Node8&#45;&gt;Node5 -->
<g id="edge18" class="edge"><title>Node8&#45;&gt;Node5</title>
<path style="fill:none;stroke:midnightblue;" d="M1008,-168C985,-155 942,-130 906,-112 855,-85 842,-77 788,-56 750,-41 704,-26 674,-18"/>
<polygon style="fill:midnightblue;stroke:midnightblue;" points="674.584,-14.5212 664,-15 672.573,-21.2259 674.584,-14.5212"/>
</g>
<!-- Node8&#45;&gt;Node6 -->
<g id="edge20" class="edge"><title>Node8&#45;&gt;Node6</title>
<path style="fill:none;stroke:midnightblue;" d="M1072,-168C1112,-159 1173,-146 1225,-132 1289,-114 1362,-90 1403,-76"/>
<polygon style="fill:midnightblue;stroke:midnightblue;" points="1404.43,-79.2259 1413,-73 1402.42,-72.5212 1404.43,-79.2259"/>
</g>
<!-- Node9 -->
<g id="node20" class="node"><title>Node9</title>
<a xlink:href="object_8h.html" target="_top" xlink:title="ltr/data/object.h">
<polygon style="fill:white;stroke:black;" points="1132,-112 1132,-132 1216,-132 1216,-112 1132,-112"/>
<text text-anchor="middle" x="1174" y="-119" style="font-family:Arial;font-size:10.00;">ltr/data/object.h</text>
</a>
</g>
<!-- Node8&#45;&gt;Node9 -->
<g id="edge22" class="edge"><title>Node8&#45;&gt;Node9</title>
<path style="fill:none;stroke:midnightblue;" d="M1052,-168C1075,-159 1111,-146 1137,-136"/>
<polygon style="fill:midnightblue;stroke:midnightblue;" points="1139.02,-138.964 1147,-132 1136.42,-132.464 1139.02,-138.964"/>
</g>
<!-- Node12 -->
<g id="node29" class="node"><title>Node12</title>
<a xlink:href="printable_8h.html" target="_top" xlink:title="ltr/interfaces/printable.h">
<polygon style="fill:white;stroke:black;" points="1107,-56 1107,-76 1224,-76 1224,-56 1107,-56"/>
<text text-anchor="middle" x="1165" y="-63" style="font-family:Arial;font-size:10.00;">ltr/interfaces/printable.h</text>
</a>
</g>
<!-- Node8&#45;&gt;Node12 -->
<g id="edge48" class="edge"><title>Node8&#45;&gt;Node12</title>
<path style="fill:none;stroke:midnightblue;" d="M1038,-168C1063,-148 1115,-106 1144,-83"/>
<polygon style="fill:midnightblue;stroke:midnightblue;" points="1146.78,-85.2191 1152,-76 1142.17,-79.9511 1146.78,-85.2191"/>
</g>
<!-- Node13 -->
<g id="node33" class="node"><title>Node13</title>
<a xlink:href="shared__ptr_8h.html" target="_top" xlink:title="ltr/utility/shared_ptr.h">
<polygon style="fill:white;stroke:black;" points="945,-56 945,-76 1052,-76 1052,-56 945,-56"/>
<text text-anchor="middle" x="998" y="-63" style="font-family:Arial;font-size:10.00;">ltr/utility/shared_ptr.h</text>
</a>
</g>
<!-- Node8&#45;&gt;Node13 -->
<g id="edge50" class="edge"><title>Node8&#45;&gt;Node13</title>
<path style="fill:none;stroke:midnightblue;" d="M1023,-168C1019,-149 1009,-110 1003,-86"/>
<polygon style="fill:midnightblue;stroke:midnightblue;" points="1006.39,-85.1194 1001,-76 999.529,-86.4922 1006.39,-85.1194"/>
</g>
<!-- Node9&#45;&gt;Node2 -->
<g id="edge28" class="edge"><title>Node9&#45;&gt;Node2</title>
<path style="fill:none;stroke:midnightblue;" d="M1132,-116C1051,-105 870,-82 790,-71"/>
<polygon style="fill:midnightblue;stroke:midnightblue;" points="790.299,-67.5125 780,-70 789.602,-74.4778 790.299,-67.5125"/>
</g>
<!-- Node9&#45;&gt;Node5 -->
<g id="edge30" class="edge"><title>Node9&#45;&gt;Node5</title>
<path style="fill:none;stroke:midnightblue;" d="M1158,-112C1128,-94 1070,-59 1060,-56 987,-31 757,-16 674,-12"/>
<polygon style="fill:midnightblue;stroke:midnightblue;" points="674.299,-8.5125 664,-11 673.602,-15.4778 674.299,-8.5125"/>
</g>
<!-- Node9&#45;&gt;Node6 -->
<g id="edge32" class="edge"><title>Node9&#45;&gt;Node6</title>
<path style="fill:none;stroke:midnightblue;" d="M1216,-113C1269,-102 1357,-83 1403,-73"/>
<polygon style="fill:midnightblue;stroke:midnightblue;" points="1403.88,-76.3933 1413,-71 1402.51,-69.5292 1403.88,-76.3933"/>
</g>
<!-- Node10 -->
<g id="node22" class="node"><title>Node10</title>
<polygon style="fill:white;stroke:#bfbfbf;" points="893,-56 893,-76 928,-76 928,-56 893,-56"/>
<text text-anchor="middle" x="910" y="-63" style="font-family:Arial;font-size:10.00;">map</text>
</g>
<!-- Node9&#45;&gt;Node10 -->
<g id="edge24" class="edge"><title>Node9&#45;&gt;Node10</title>
<path style="fill:none;stroke:midnightblue;" d="M1132,-116C1086,-109 1010,-96 938,-76"/>
<polygon style="fill:midnightblue;stroke:midnightblue;" points="938.584,-72.5212 928,-73 936.573,-79.2259 938.584,-72.5212"/>
</g>
<!-- Node11 -->
<g id="node24" class="node"><title>Node11</title>
<polygon style="fill:white;stroke:#bfbfbf;" points="1183,-0 1183,-20 1234,-20 1234,-0 1183,-0"/>
<text text-anchor="middle" x="1208" y="-7" style="font-family:Arial;font-size:10.00;">ostream</text>
</g>
<!-- Node9&#45;&gt;Node11 -->
<g id="edge26" class="edge"><title>Node9&#45;&gt;Node11</title>
<path style="fill:none;stroke:midnightblue;" d="M1194,-112C1207,-104 1224,-92 1232,-76 1239,-61 1231,-42 1223,-28"/>
<polygon style="fill:midnightblue;stroke:midnightblue;" points="1225.8,-25.9 1217,-20 1220.2,-30.1 1225.8,-25.9"/>
</g>
<!-- Node9&#45;&gt;Node12 -->
<g id="edge34" class="edge"><title>Node9&#45;&gt;Node12</title>
<path style="fill:none;stroke:midnightblue;" d="M1172,-112C1171,-105 1170,-95 1168,-86"/>
<polygon style="fill:midnightblue;stroke:midnightblue;" points="1171.48,-85.6021 1167,-76 1164.51,-86.2987 1171.48,-85.6021"/>
</g>
<!-- Node9&#45;&gt;Node13 -->
<g id="edge40" class="edge"><title>Node9&#45;&gt;Node13</title>
<path style="fill:none;stroke:midnightblue;" d="M1143,-112C1114,-103 1071,-89 1040,-79"/>
<polygon style="fill:midnightblue;stroke:midnightblue;" points="1040.58,-75.5212 1030,-76 1038.57,-82.2259 1040.58,-75.5212"/>
</g>
<!-- Node12&#45;&gt;Node5 -->
<g id="edge38" class="edge"><title>Node12&#45;&gt;Node5</title>
<path style="fill:none;stroke:midnightblue;" d="M1107,-57C1102,-57 1098,-56 1093,-56 936,-36 747,-19 674,-13"/>
<polygon style="fill:midnightblue;stroke:midnightblue;" points="674.299,-9.5125 664,-12 673.602,-16.4778 674.299,-9.5125"/>
</g>
<!-- Node12&#45;&gt;Node11 -->
<g id="edge36" class="edge"><title>Node12&#45;&gt;Node11</title>
<path style="fill:none;stroke:midnightblue;" d="M1173,-56C1179,-48 1187,-38 1194,-28"/>
<polygon style="fill:midnightblue;stroke:midnightblue;" points="1196.8,-30.1 1200,-20 1191.2,-25.9 1196.8,-30.1"/>
</g>
<!-- Node13&#45;&gt;Node3 -->
<g id="edge42" class="edge"><title>Node13&#45;&gt;Node3</title>
<path style="fill:none;stroke:midnightblue;" d="M945,-57C942,-56 939,-56 936,-56 605,-20 201,-12 76,-10"/>
<polygon style="fill:midnightblue;stroke:midnightblue;" points="76,-6.5001 66,-10 76,-13.5001 76,-6.5001"/>
</g>
<!-- Node14 -->
<g id="node36" class="node"><title>Node14</title>
<polygon style="fill:white;stroke:#bfbfbf;" points="815,-0 815,-20 922,-20 922,-0 815,-0"/>
<text text-anchor="middle" x="868" y="-7" style="font-family:Arial;font-size:10.00;">boost/shared_ptr.hpp</text>
</g>
<!-- Node13&#45;&gt;Node14 -->
<g id="edge44" class="edge"><title>Node13&#45;&gt;Node14</title>
<path style="fill:none;stroke:midnightblue;" d="M975,-56C954,-47 924,-34 901,-24"/>
<polygon style="fill:midnightblue;stroke:midnightblue;" points="901.585,-20.4643 891,-20 898.985,-26.9636 901.585,-20.4643"/>
</g>
<!-- Node15 -->
<g id="node38" class="node"><title>Node15</title>
<polygon style="fill:white;stroke:#bfbfbf;" points="939,-0 939,-20 1130,-20 1130,-0 939,-0"/>
<text text-anchor="middle" x="1034" y="-7" style="font-family:Arial;font-size:10.00;">boost/smart_ptr/detail/operator_bool.hpp</text>
</g>
<!-- Node13&#45;&gt;Node15 -->
<g id="edge46" class="edge"><title>Node13&#45;&gt;Node15</title>
<path style="fill:none;stroke:midnightblue;" d="M1004,-56C1009,-49 1016,-38 1022,-29"/>
<polygon style="fill:midnightblue;stroke:midnightblue;" points="1025.2,-30.4414 1027,-20 1019.08,-27.0418 1025.2,-30.4414"/>
</g>
<!-- Node16&#45;&gt;Node5 -->
<g id="edge54" class="edge"><title>Node16&#45;&gt;Node5</title>
<path style="fill:none;stroke:midnightblue;" d="M152,-224C136,-194 94,-104 138,-56 171,-20 510,-13 614,-10"/>
<polygon style="fill:midnightblue;stroke:midnightblue;" points="614,-13.5001 624,-10 614,-6.5001 614,-13.5001"/>
</g>
<!-- Node17&#45;&gt;Node2 -->
<g id="edge64" class="edge"><title>Node17&#45;&gt;Node2</title>
<path style="fill:none;stroke:midnightblue;" d="M725,-336C725,-303 725,-197 738,-112 739,-103 742,-94 744,-86"/>
<polygon style="fill:midnightblue;stroke:midnightblue;" points="747.479,-86.584 747,-76 740.774,-84.5725 747.479,-86.584"/>
</g>
<!-- Node17&#45;&gt;Node3 -->
<g id="edge62" class="edge"><title>Node17&#45;&gt;Node3</title>
<path style="fill:none;stroke:midnightblue;" d="M666,-337C663,-337 660,-336 657,-336 453,-313 393,-359 196,-300 112,-274 38,-266 38,-178 38,-178 38,-178 38,-122 38,-89 38,-53 38,-30"/>
<polygon style="fill:midnightblue;stroke:midnightblue;" points="41.5001,-30 38,-20 34.5001,-30 41.5001,-30"/>
</g>
<!-- Node17&#45;&gt;Node5 -->
<g id="edge66" class="edge"><title>Node17&#45;&gt;Node5</title>
<path style="fill:none;stroke:midnightblue;" d="M666,-337C663,-337 660,-336 657,-336 518,-317 468,-364 342,-300 285,-270 190,-133 171,-76 169,-67 166,-62 171,-56 201,-22 514,-13 614,-10"/>
<polygon style="fill:midnightblue;stroke:midnightblue;" points="614,-13.5001 624,-10 614,-6.5001 614,-13.5001"/>
</g>
<!-- Node17&#45;&gt;Node8 -->
<g id="edge70" class="edge"><title>Node17&#45;&gt;Node8</title>
<path style="fill:none;stroke:midnightblue;" d="M785,-338C821,-331 865,-320 901,-300 949,-272 991,-223 1012,-196"/>
<polygon style="fill:midnightblue;stroke:midnightblue;" points="1014.8,-198.1 1018,-188 1009.2,-193.9 1014.8,-198.1"/>
</g>
<!-- Node17&#45;&gt;Node9 -->
<g id="edge68" class="edge"><title>Node17&#45;&gt;Node9</title>
<path style="fill:none;stroke:midnightblue;" d="M785,-343C907,-337 1174,-314 1225,-244 1231,-234 1238,-203 1223,-168 1218,-156 1208,-146 1198,-138"/>
<polygon style="fill:midnightblue;stroke:midnightblue;" points="1200.1,-135.2 1190,-132 1195.9,-140.8 1200.1,-135.2"/>
</g>
<!-- Node17&#45;&gt;Node12 -->
<g id="edge152" class="edge"><title>Node17&#45;&gt;Node12</title>
<path style="fill:none;stroke:midnightblue;" d="M785,-343C934,-335 1311,-314 1335,-300 1393,-266 1443,-227 1411,-168 1388,-126 1363,-131 1321,-112 1289,-98 1251,-86 1221,-79"/>
<polygon style="fill:midnightblue;stroke:midnightblue;" points="1221.58,-75.5212 1211,-76 1219.57,-82.2259 1221.58,-75.5212"/>
</g>
<!-- Node17&#45;&gt;Node13 -->
<g id="edge164" class="edge"><title>Node17&#45;&gt;Node13</title>
<path style="fill:none;stroke:midnightblue;" d="M729,-336C736,-321 749,-294 769,-280 816,-246 848,-279 893,-244 947,-201 979,-123 992,-86"/>
<polygon style="fill:midnightblue;stroke:midnightblue;" points="995.479,-86.584 995,-76 988.774,-84.5725 995.479,-86.584"/>
</g>
<!-- Node17&#45;&gt;Node16 -->
<g id="edge150" class="edge"><title>Node17&#45;&gt;Node16</title>
<path style="fill:none;stroke:midnightblue;" d="M666,-337C663,-337 660,-336 657,-336 562,-325 314,-339 226,-300 203,-289 184,-268 171,-252"/>
<polygon style="fill:midnightblue;stroke:midnightblue;" points="173.8,-249.9 165,-244 168.2,-254.1 173.8,-249.9"/>
</g>
<!-- Node18 -->
<g id="node47" class="node"><title>Node18</title>
<polygon style="fill:white;stroke:#bfbfbf;" points="180,-56 180,-76 254,-76 254,-56 180,-56"/>
<text text-anchor="middle" x="217" y="-63" style="font-family:Arial;font-size:10.00;">logog/logog.h</text>
</g>
<!-- Node17&#45;&gt;Node18 -->
<g id="edge58" class="edge"><title>Node17&#45;&gt;Node18</title>
<path style="fill:none;stroke:midnightblue;" d="M666,-337C663,-337 660,-336 657,-336 594,-327 424,-334 369,-300 286,-248 239,-132 223,-86"/>
<polygon style="fill:midnightblue;stroke:midnightblue;" points="226.226,-84.5725 220,-76 219.521,-86.584 226.226,-84.5725"/>
</g>
<!-- Node19 -->
<g id="node49" class="node"><title>Node19</title>
<polygon style="fill:white;stroke:#bfbfbf;" points="778,-280 778,-300 892,-300 892,-280 778,-280"/>
<text text-anchor="middle" x="835" y="-287" style="font-family:Arial;font-size:10.00;">boost/lexical_cast.hpp</text>
</g>
<!-- Node17&#45;&gt;Node19 -->
<g id="edge60" class="edge"><title>Node17&#45;&gt;Node19</title>
<path style="fill:none;stroke:midnightblue;" d="M745,-336C761,-327 787,-314 806,-305"/>
<polygon style="fill:midnightblue;stroke:midnightblue;" points="807.958,-307.916 815,-300 804.559,-301.797 807.958,-307.916"/>
</g>
<!-- Node20 -->
<g id="node56" class="node"><title>Node20</title>
<a xlink:href="object__pair_8h.html" target="_top" xlink:title="ltr/data/object_pair.h">
<polygon style="fill:white;stroke:black;" points="1298,-168 1298,-188 1402,-188 1402,-168 1298,-168"/>
<text text-anchor="middle" x="1350" y="-175" style="font-family:Arial;font-size:10.00;">ltr/data/object_pair.h</text>
</a>
</g>
<!-- Node17&#45;&gt;Node20 -->
<g id="edge72" class="edge"><title>Node17&#45;&gt;Node20</title>
<path style="fill:none;stroke:midnightblue;" d="M785,-343C932,-336 1297,-317 1318,-300 1348,-275 1352,-226 1351,-198"/>
<polygon style="fill:midnightblue;stroke:midnightblue;" points="1354.5,-198 1351,-188 1347.5,-198 1354.5,-198"/>
</g>
<!-- Node21 -->
<g id="node64" class="node"><title>Node21</title>
<a xlink:href="data__set_8h.html" target="_top" xlink:title="ltr/data/data_set.h">
<polygon style="fill:white;stroke:black;" points="948,-280 948,-300 1043,-300 1043,-280 948,-280"/>
<text text-anchor="middle" x="995" y="-287" style="font-family:Arial;font-size:10.00;">ltr/data/data_set.h</text>
</a>
</g>
<!-- Node17&#45;&gt;Node21 -->
<g id="edge86" class="edge"><title>Node17&#45;&gt;Node21</title>
<path style="fill:none;stroke:midnightblue;" d="M773,-336C820,-327 889,-312 938,-302"/>
<polygon style="fill:midnightblue;stroke:midnightblue;" points="938.881,-305.393 948,-300 937.508,-298.529 938.881,-305.393"/>
</g>
<!-- Node23 -->
<g id="node78" class="node"><title>Node23</title>
<a xlink:href="parameterized_8h.html" target="_top" xlink:title="ltr/interfaces/parameterized.h">
<polygon style="fill:white;stroke:black;" points="554,-168 554,-188 696,-188 696,-168 554,-168"/>
<text text-anchor="middle" x="625" y="-175" style="font-family:Arial;font-size:10.00;">ltr/interfaces/parameterized.h</text>
</a>
</g>
<!-- Node17&#45;&gt;Node23 -->
<g id="edge154" class="edge"><title>Node17&#45;&gt;Node23</title>
<path style="fill:none;stroke:midnightblue;" d="M719,-336C703,-309 658,-233 636,-197"/>
<polygon style="fill:midnightblue;stroke:midnightblue;" points="638.916,-195.042 631,-188 632.797,-198.441 638.916,-195.042"/>
</g>
<!-- Node24 -->
<g id="node82" class="node"><title>Node24</title>
<a xlink:href="parameters__container_8h.html" target="_top" xlink:title="ltr/parameters_container/parameters_container.h">
<polygon style="fill:white;stroke:black;" points="282,-112 282,-132 507,-132 507,-112 282,-112"/>
<text text-anchor="middle" x="394" y="-119" style="font-family:Arial;font-size:10.00;">ltr/parameters_container/parameters_container.h</text>
</a>
</g>
<!-- Node17&#45;&gt;Node24 -->
<g id="edge156" class="edge"><title>Node17&#45;&gt;Node24</title>
<path style="fill:none;stroke:midnightblue;" d="M666,-337C663,-337 660,-336 657,-336 597,-327 426,-345 385,-300 346,-255 371,-178 385,-142"/>
<polygon style="fill:midnightblue;stroke:midnightblue;" points="388.536,-142.585 389,-132 382.036,-139.985 388.536,-142.585"/>
</g>
<!-- Node29 -->
<g id="node108" class="node"><title>Node29</title>
<a xlink:href="numerical_8h.html" target="_top" xlink:title="ltr/utility/numerical.h">
<polygon style="fill:white;stroke:black;" points="394,-280 394,-300 498,-300 498,-280 394,-280"/>
<text text-anchor="middle" x="446" y="-287" style="font-family:Arial;font-size:10.00;">ltr/utility/numerical.h</text>
</a>
</g>
<!-- Node17&#45;&gt;Node29 -->
<g id="edge158" class="edge"><title>Node17&#45;&gt;Node29</title>
<path style="fill:none;stroke:midnightblue;" d="M675,-336C628,-327 557,-312 506,-302"/>
<polygon style="fill:midnightblue;stroke:midnightblue;" points="506.492,-298.529 496,-300 505.119,-305.393 506.492,-298.529"/>
</g>
<!-- Node20&#45;&gt;Node2 -->
<g id="edge74" class="edge"><title>Node20&#45;&gt;Node2</title>
<path style="fill:none;stroke:midnightblue;" d="M1298,-168C1180,-146 895,-94 790,-74"/>
<polygon style="fill:midnightblue;stroke:midnightblue;" points="790.492,-70.5292 780,-72 789.119,-77.3933 790.492,-70.5292"/>
</g>
<!-- Node20&#45;&gt;Node5 -->
<g id="edge76" class="edge"><title>Node20&#45;&gt;Node5</title>
<path style="fill:none;stroke:midnightblue;" d="M1347,-168C1343,-154 1335,-129 1321,-112 1290,-76 1276,-70 1232,-56 1205,-46 790,-20 674,-12"/>
<polygon style="fill:midnightblue;stroke:midnightblue;" points="674.299,-8.5125 664,-11 673.602,-15.4778 674.299,-8.5125"/>
</g>
<!-- Node20&#45;&gt;Node6 -->
<g id="edge78" class="edge"><title>Node20&#45;&gt;Node6</title>
<path style="fill:none;stroke:midnightblue;" d="M1358,-168C1372,-148 1402,-108 1420,-84"/>
<polygon style="fill:midnightblue;stroke:midnightblue;" points="1422.8,-86.1 1426,-76 1417.2,-81.9 1422.8,-86.1"/>
</g>
<!-- Node20&#45;&gt;Node9 -->
<g id="edge80" class="edge"><title>Node20&#45;&gt;Node9</title>
<path style="fill:none;stroke:midnightblue;" d="M1319,-168C1290,-159 1247,-145 1216,-135"/>
<polygon style="fill:midnightblue;stroke:midnightblue;" points="1216.58,-131.521 1206,-132 1214.57,-138.226 1216.58,-131.521"/>
</g>
<!-- Node20&#45;&gt;Node12 -->
<g id="edge82" class="edge"><title>Node20&#45;&gt;Node12</title>
<path style="fill:none;stroke:midnightblue;" d="M1344,-168C1336,-153 1318,-127 1296,-112 1274,-96 1247,-86 1224,-79"/>
<polygon style="fill:midnightblue;stroke:midnightblue;" points="1224.58,-75.5212 1214,-76 1222.57,-82.2259 1224.58,-75.5212"/>
</g>
<!-- Node20&#45;&gt;Node13 -->
<g id="edge84" class="edge"><title>Node20&#45;&gt;Node13</title>
<path style="fill:none;stroke:midnightblue;" d="M1334,-168C1311,-153 1266,-127 1225,-112 1172,-92 1108,-81 1062,-74"/>
<polygon style="fill:midnightblue;stroke:midnightblue;" points="1062.49,-70.5292 1052,-72 1061.12,-77.3933 1062.49,-70.5292"/>
</g>
<!-- Node21&#45;&gt;Node2 -->
<g id="edge90" class="edge"><title>Node21&#45;&gt;Node2</title>
<path style="fill:none;stroke:midnightblue;" d="M948,-283C885,-274 781,-256 769,-244 729,-200 739,-122 746,-86"/>
<polygon style="fill:midnightblue;stroke:midnightblue;" points="749.471,-86.4922 748,-76 742.607,-85.1194 749.471,-86.4922"/>
</g>
<!-- Node21&#45;&gt;Node4 -->
<g id="edge88" class="edge"><title>Node21&#45;&gt;Node4</title>
<path style="fill:none;stroke:midnightblue;" d="M948,-284C864,-273 691,-249 615,-239"/>
<polygon style="fill:midnightblue;stroke:midnightblue;" points="615.299,-235.512 605,-238 614.602,-242.478 615.299,-235.512"/>
</g>
<!-- Node21&#45;&gt;Node5 -->
<g id="edge92" class="edge"><title>Node21&#45;&gt;Node5</title>
<path style="fill:none;stroke:midnightblue;" d="M948,-283C835,-266 557,-221 531,-188 526,-180 529,-176 531,-168 541,-137 601,-62 629,-28"/>
<polygon style="fill:midnightblue;stroke:midnightblue;" points="631.8,-30.1 635,-20 626.2,-25.9 631.8,-30.1"/>
</g>
<!-- Node21&#45;&gt;Node6 -->
<g id="edge94" class="edge"><title>Node21&#45;&gt;Node6</title>
<path style="fill:none;stroke:midnightblue;" d="M1043,-284C1099,-277 1191,-264 1269,-244 1341,-225 1363,-226 1427,-188 1457,-169 1471,-165 1486,-132 1494,-112 1477,-94 1460,-82"/>
<polygon style="fill:midnightblue;stroke:midnightblue;" points="1462.1,-79.2 1452,-76 1457.9,-84.8 1462.1,-79.2"/>
</g>
<!-- Node21&#45;&gt;Node8 -->
<g id="edge98" class="edge"><title>Node21&#45;&gt;Node8</title>
<path style="fill:none;stroke:midnightblue;" d="M998,-280C1001,-267 1007,-243 1012,-224 1014,-215 1017,-206 1019,-198"/>
<polygon style="fill:midnightblue;stroke:midnightblue;" points="1022.48,-198.584 1022,-188 1015.77,-196.573 1022.48,-198.584"/>
</g>
<!-- Node21&#45;&gt;Node9 -->
<g id="edge96" class="edge"><title>Node21&#45;&gt;Node9</title>
<path style="fill:none;stroke:midnightblue;" d="M1043,-286C1100,-281 1188,-269 1209,-244 1233,-214 1207,-166 1188,-140"/>
<polygon style="fill:midnightblue;stroke:midnightblue;" points="1190.8,-137.9 1182,-132 1185.2,-142.1 1190.8,-137.9"/>
</g>
<!-- Node21&#45;&gt;Node16 -->
<g id="edge148" class="edge"><title>Node21&#45;&gt;Node16</title>
<path style="fill:none;stroke:midnightblue;" d="M948,-284C933,-283 916,-281 901,-280 651,-259 351,-243 222,-237"/>
<polygon style="fill:midnightblue;stroke:midnightblue;" points="222,-233.5 212,-237 222,-240.5 222,-233.5"/>
</g>
<!-- Node21&#45;&gt;Node20 -->
<g id="edge100" class="edge"><title>Node21&#45;&gt;Node20</title>
<path style="fill:none;stroke:midnightblue;" d="M1043,-286C1094,-281 1175,-269 1242,-244 1274,-231 1308,-209 1329,-194"/>
<polygon style="fill:midnightblue;stroke:midnightblue;" points="1331.1,-196.8 1337,-188 1326.9,-191.2 1331.1,-196.8"/>
</g>
<!-- Node22 -->
<g id="node73" class="node"><title>Node22</title>
<a xlink:href="feature__info_8h.html" target="_top" xlink:title="ltr/data/feature_info.h">
<polygon style="fill:white;stroke:black;" points="778,-224 778,-244 885,-244 885,-224 778,-224"/>
<text text-anchor="middle" x="831" y="-231" style="font-family:Arial;font-size:10.00;">ltr/data/feature_info.h</text>
</a>
</g>
<!-- Node21&#45;&gt;Node22 -->
<g id="edge102" class="edge"><title>Node21&#45;&gt;Node22</title>
<path style="fill:none;stroke:midnightblue;" d="M966,-280C939,-271 899,-257 870,-247"/>
<polygon style="fill:midnightblue;stroke:midnightblue;" points="870.584,-243.521 860,-244 868.573,-250.226 870.584,-243.521"/>
</g>
<!-- Node28 -->
<g id="node96" class="node"><title>Node28</title>
<a xlink:href="per__object__accessor_8h.html" target="_top" xlink:title="ltr/data/per_object_accessor.h">
<polygon style="fill:white;stroke:black;" points="1054,-224 1054,-244 1201,-244 1201,-224 1054,-224"/>
<text text-anchor="middle" x="1127" y="-231" style="font-family:Arial;font-size:10.00;">ltr/data/per_object_accessor.h</text>
</a>
</g>
<!-- Node21&#45;&gt;Node28 -->
<g id="edge136" class="edge"><title>Node21&#45;&gt;Node28</title>
<path style="fill:none;stroke:midnightblue;" d="M1019,-280C1040,-271 1070,-258 1093,-248"/>
<polygon style="fill:midnightblue;stroke:midnightblue;" points="1095.02,-250.964 1103,-244 1092.42,-244.464 1095.02,-250.964"/>
</g>
<!-- Node22&#45;&gt;Node5 -->
<g id="edge106" class="edge"><title>Node22&#45;&gt;Node5</title>
<path style="fill:none;stroke:midnightblue;" d="M778,-229C699,-221 560,-205 545,-188 515,-152 546,-206 620,-76 629,-61 635,-43 639,-30"/>
<polygon style="fill:midnightblue;stroke:midnightblue;" points="642.479,-30.584 642,-20 635.774,-28.5725 642.479,-30.584"/>
</g>
<!-- Node22&#45;&gt;Node6 -->
<g id="edge108" class="edge"><title>Node22&#45;&gt;Node6</title>
<path style="fill:none;stroke:midnightblue;" d="M885,-231C1025,-225 1391,-205 1411,-188 1439,-163 1439,-114 1437,-86"/>
<polygon style="fill:midnightblue;stroke:midnightblue;" points="1440.48,-85.6021 1436,-76 1433.51,-86.2987 1440.48,-85.6021"/>
</g>
<!-- Node22&#45;&gt;Node10 -->
<g id="edge104" class="edge"><title>Node22&#45;&gt;Node10</title>
<path style="fill:none;stroke:midnightblue;" d="M827,-224C819,-202 803,-148 824,-112 837,-91 863,-79 883,-72"/>
<polygon style="fill:midnightblue;stroke:midnightblue;" points="884.427,-75.2259 893,-69 882.416,-68.5212 884.427,-75.2259"/>
</g>
<!-- Node22&#45;&gt;Node13 -->
<g id="edge134" class="edge"><title>Node22&#45;&gt;Node13</title>
<path style="fill:none;stroke:midnightblue;" d="M834,-224C843,-201 865,-145 900,-112 915,-98 936,-87 954,-79"/>
<polygon style="fill:midnightblue;stroke:midnightblue;" points="955.427,-82.2259 964,-76 953.416,-75.5212 955.427,-82.2259"/>
</g>
<!-- Node22&#45;&gt;Node23 -->
<g id="edge110" class="edge"><title>Node22&#45;&gt;Node23</title>
<path style="fill:none;stroke:midnightblue;" d="M794,-224C760,-215 709,-201 672,-191"/>
<polygon style="fill:midnightblue;stroke:midnightblue;" points="672.584,-187.521 662,-188 670.573,-194.226 672.584,-187.521"/>
</g>
<!-- Node23&#45;&gt;Node2 -->
<g id="edge112" class="edge"><title>Node23&#45;&gt;Node2</title>
<path style="fill:none;stroke:midnightblue;" d="M637,-168C658,-148 705,-107 730,-83"/>
<polygon style="fill:midnightblue;stroke:midnightblue;" points="732.779,-85.2191 738,-76 728.169,-79.9511 732.779,-85.2191"/>
</g>
<!-- Node23&#45;&gt;Node5 -->
<g id="edge114" class="edge"><title>Node23&#45;&gt;Node5</title>
<path style="fill:none;stroke:midnightblue;" d="M631,-168C642,-147 665,-98 658,-56 657,-47 654,-37 652,-29"/>
<polygon style="fill:midnightblue;stroke:midnightblue;" points="655.26,-27.7166 648,-20 648.863,-30.5596 655.26,-27.7166"/>
</g>
<!-- Node23&#45;&gt;Node24 -->
<g id="edge116" class="edge"><title>Node23&#45;&gt;Node24</title>
<path style="fill:none;stroke:midnightblue;" d="M584,-168C545,-159 487,-144 445,-134"/>
<polygon style="fill:midnightblue;stroke:midnightblue;" points="445.492,-130.529 435,-132 444.119,-137.393 445.492,-130.529"/>
</g>
<!-- Node24&#45;&gt;Node2 -->
<g id="edge122" class="edge"><title>Node24&#45;&gt;Node2</title>
<path style="fill:none;stroke:midnightblue;" d="M458,-112C531,-101 650,-82 711,-73"/>
<polygon style="fill:midnightblue;stroke:midnightblue;" points="711.881,-76.3933 721,-71 710.508,-69.5292 711.881,-76.3933"/>
</g>
<!-- Node24&#45;&gt;Node5 -->
<g id="edge124" class="edge"><title>Node24&#45;&gt;Node5</title>
<path style="fill:none;stroke:midnightblue;" d="M358,-112C324,-101 280,-80 301,-56 322,-32 534,-17 614,-12"/>
<polygon style="fill:midnightblue;stroke:midnightblue;" points="614.398,-15.4778 624,-11 613.701,-8.5125 614.398,-15.4778"/>
</g>
<!-- Node24&#45;&gt;Node12 -->
<g id="edge132" class="edge"><title>Node24&#45;&gt;Node12</title>
<path style="fill:none;stroke:midnightblue;" d="M507,-115C640,-107 866,-92 1060,-76 1072,-75 1085,-74 1097,-73"/>
<polygon style="fill:midnightblue;stroke:midnightblue;" points="1097.4,-76.4778 1107,-72 1096.7,-69.5125 1097.4,-76.4778"/>
</g>
<!-- Node24&#45;&gt;Node13 -->
<g id="edge130" class="edge"><title>Node24&#45;&gt;Node13</title>
<path style="fill:none;stroke:midnightblue;" d="M507,-115C615,-107 782,-95 935,-76"/>
<polygon style="fill:midnightblue;stroke:midnightblue;" points="935.398,-79.4778 945,-75 934.701,-72.5125 935.398,-79.4778"/>
</g>
<!-- Node24&#45;&gt;Node18 -->
<g id="edge118" class="edge"><title>Node24&#45;&gt;Node18</title>
<path style="fill:none;stroke:midnightblue;" d="M362,-112C333,-103 290,-89 259,-79"/>
<polygon style="fill:midnightblue;stroke:midnightblue;" points="259.584,-75.5212 249,-76 257.573,-82.2259 259.584,-75.5212"/>
</g>
<!-- Node25 -->
<g id="node85" class="node"><title>Node25</title>
<polygon style="fill:white;stroke:#bfbfbf;" points="310,-56 310,-76 339,-76 339,-56 310,-56"/>
<text text-anchor="middle" x="324" y="-63" style="font-family:Arial;font-size:10.00;">list</text>
</g>
<!-- Node24&#45;&gt;Node25 -->
<g id="edge120" class="edge"><title>Node24&#45;&gt;Node25</title>
<path style="fill:none;stroke:midnightblue;" d="M381,-112C371,-104 356,-93 345,-83"/>
<polygon style="fill:midnightblue;stroke:midnightblue;" points="346.831,-79.9511 337,-76 342.221,-85.2191 346.831,-79.9511"/>
</g>
<!-- Node26 -->
<g id="node89" class="node"><title>Node26</title>
<polygon style="fill:white;stroke:#bfbfbf;" points="356,-56 356,-76 433,-76 433,-56 356,-56"/>
<text text-anchor="middle" x="394" y="-63" style="font-family:Arial;font-size:10.00;">boost/any.hpp</text>
</g>
<!-- Node24&#45;&gt;Node26 -->
<g id="edge126" class="edge"><title>Node24&#45;&gt;Node26</title>
<path style="fill:none;stroke:midnightblue;" d="M394,-112C394,-105 394,-95 394,-86"/>
<polygon style="fill:midnightblue;stroke:midnightblue;" points="397.5,-86 394,-76 390.5,-86 397.5,-86"/>
</g>
<!-- Node27 -->
<g id="node91" class="node"><title>Node27</title>
<polygon style="fill:white;stroke:#bfbfbf;" points="450,-56 450,-76 579,-76 579,-56 450,-56"/>
<text text-anchor="middle" x="514" y="-63" style="font-family:Arial;font-size:10.00;">boost/unordered_map.hpp</text>
</g>
<!-- Node24&#45;&gt;Node27 -->
<g id="edge128" class="edge"><title>Node24&#45;&gt;Node27</title>
<path style="fill:none;stroke:midnightblue;" d="M415,-112C434,-103 461,-90 483,-80"/>
<polygon style="fill:midnightblue;stroke:midnightblue;" points="484.283,-83.2598 492,-76 481.44,-76.8631 484.283,-83.2598"/>
</g>
<!-- Node28&#45;&gt;Node8 -->
<g id="edge142" class="edge"><title>Node28&#45;&gt;Node8</title>
<path style="fill:none;stroke:midnightblue;" d="M1109,-224C1093,-215 1070,-203 1052,-193"/>
<polygon style="fill:midnightblue;stroke:midnightblue;" points="1053.44,-189.797 1043,-188 1050.04,-195.916 1053.44,-189.797"/>
</g>
<!-- Node28&#45;&gt;Node9 -->
<g id="edge138" class="edge"><title>Node28&#45;&gt;Node9</title>
<path style="fill:none;stroke:midnightblue;" d="M1131,-224C1139,-205 1156,-166 1166,-141"/>
<polygon style="fill:midnightblue;stroke:midnightblue;" points="1169.14,-142.56 1170,-132 1162.74,-139.717 1169.14,-142.56"/>
</g>
<!-- Node28&#45;&gt;Node13 -->
<g id="edge146" class="edge"><title>Node28&#45;&gt;Node13</title>
<path style="fill:none;stroke:midnightblue;" d="M1121,-224C1113,-210 1099,-186 1085,-168 1061,-137 1032,-103 1014,-83"/>
<polygon style="fill:midnightblue;stroke:midnightblue;" points="1016.55,-80.5962 1007,-76 1011.6,-85.546 1016.55,-80.5962"/>
</g>
<!-- Node28&#45;&gt;Node20 -->
<g id="edge140" class="edge"><title>Node28&#45;&gt;Node20</title>
<path style="fill:none;stroke:midnightblue;" d="M1167,-224C1204,-215 1260,-200 1300,-190"/>
<polygon style="fill:midnightblue;stroke:midnightblue;" points="1300.88,-193.393 1310,-188 1299.51,-186.529 1300.88,-193.393"/>
</g>
<!-- Node28&#45;&gt;Node23 -->
<g id="edge144" class="edge"><title>Node28&#45;&gt;Node23</title>
<path style="fill:none;stroke:midnightblue;" d="M1054,-226C961,-215 802,-197 706,-187"/>
<polygon style="fill:midnightblue;stroke:midnightblue;" points="706.299,-183.512 696,-186 705.602,-190.478 706.299,-183.512"/>
</g>
<!-- Node30 -->
<g id="node110" class="node"><title>Node30</title>
<polygon style="fill:white;stroke:#bfbfbf;" points="397,-224 397,-244 440,-244 440,-224 397,-224"/>
<text text-anchor="middle" x="418" y="-231" style="font-family:Arial;font-size:10.00;">cmath</text>
</g>
<!-- Node29&#45;&gt;Node30 -->
<g id="edge160" class="edge"><title>Node29&#45;&gt;Node30</title>
<path style="fill:none;stroke:midnightblue;" d="M441,-280C437,-273 432,-262 427,-253"/>
<polygon style="fill:midnightblue;stroke:midnightblue;" points="430.26,-251.717 423,-244 423.863,-254.56 430.26,-251.717"/>
</g>
<!-- Node31 -->
<g id="node112" class="node"><title>Node31</title>
<polygon style="fill:white;stroke:#bfbfbf;" points="457,-224 457,-244 496,-244 496,-224 457,-224"/>
<text text-anchor="middle" x="476" y="-231" style="font-family:Arial;font-size:10.00;">limits</text>
</g>
<!-- Node29&#45;&gt;Node31 -->
<g id="edge162" class="edge"><title>Node29&#45;&gt;Node31</title>
<path style="fill:none;stroke:midnightblue;" d="M451,-280C455,-273 461,-262 466,-253"/>
<polygon style="fill:midnightblue;stroke:midnightblue;" points="469.137,-254.56 470,-244 462.74,-251.717 469.137,-254.56"/>
</g>
<!-- Node32&#45;&gt;Node6 -->
<g id="edge168" class="edge"><title>Node32&#45;&gt;Node6</title>
<path style="fill:none;stroke:midnightblue;" d="M1154,-342C1256,-337 1418,-324 1474,-300 1514,-281 1548,-278 1548,-234 1548,-234 1548,-234 1548,-178 1548,-130 1498,-96 1464,-79"/>
<polygon style="fill:midnightblue;stroke:midnightblue;" points="1465.56,-75.8631 1455,-75 1462.72,-82.2598 1465.56,-75.8631"/>
</g>
<!-- Node32&#45;&gt;Node8 -->
<g id="edge172" class="edge"><title>Node32&#45;&gt;Node8</title>
<path style="fill:none;stroke:midnightblue;" d="M1067,-336C1061,-309 1040,-234 1031,-198"/>
<polygon style="fill:midnightblue;stroke:midnightblue;" points="1034.23,-196.573 1028,-188 1027.52,-198.584 1034.23,-196.573"/>
</g>
<!-- Node32&#45;&gt;Node21 -->
<g id="edge174" class="edge"><title>Node32&#45;&gt;Node21</title>
<path style="fill:none;stroke:midnightblue;" d="M1057,-336C1046,-328 1030,-316 1017,-306"/>
<polygon style="fill:midnightblue;stroke:midnightblue;" points="1019.1,-303.2 1009,-300 1014.9,-308.8 1019.1,-303.2"/>
</g>
<!-- Node33 -->
<g id="node118" class="node"><title>Node33</title>
<polygon style="fill:white;stroke:#bfbfbf;" points="1427,-280 1427,-300 1466,-300 1466,-280 1427,-280"/>
<text text-anchor="middle" x="1446" y="-287" style="font-family:Arial;font-size:10.00;">utility</text>
</g>
<!-- Node32&#45;&gt;Node33 -->
<g id="edge170" class="edge"><title>Node32&#45;&gt;Node33</title>
<path style="fill:none;stroke:midnightblue;" d="M1154,-338C1224,-331 1325,-319 1413,-300 1414,-300 1416,-299 1417,-299"/>
<polygon style="fill:midnightblue;stroke:midnightblue;" points="1418.43,-302.226 1427,-296 1416.42,-295.521 1418.43,-302.226"/>
</g>
</g>
</svg>
