<?xml version="1.0" encoding="UTF-8" standalone="no"?>
<!DOCTYPE svg PUBLIC "-//W3C//DTD SVG 1.0//EN"
 "http://www.w3.org/TR/2001/REC-SVG-20010904/DTD/svg10.dtd" [
 <!ATTLIST svg xmlns:xlink CDATA #FIXED "http://www.w3.org/1999/xlink">
]>
<!-- Generated by Graphviz version 2.20.2 (Tue Mar &#160;2 19:03:41 UTC 2010)
     For user: (jenkins)  -->
<!-- Title: G Pages: 1 -->
<svg width="1799pt" height="476pt"
 viewBox="0.00 0.00 1799.00 476.00" xmlns="http://www.w3.org/2000/svg" xmlns:xlink="http://www.w3.org/1999/xlink">
<g id="graph0" class="graph" transform="scale(1 1) rotate(0) translate(4 472)">
<title>G</title>
<polygon style="fill:white;stroke:white;" points="-4,4 -4,-472 1795,-472 1795,4 -4,4"/>
<!-- Node1 -->
<g id="node1" class="node"><title>Node1</title>
<polygon style="fill:#bfbfbf;stroke:black;" points="99,-448 99,-468 201,-468 201,-448 99,-448"/>
<text text-anchor="middle" x="150" y="-455" style="font-family:Arial;font-size:10.00;">ltr/measures/dcg.cc</text>
</g>
<!-- Node2 -->
<g id="node3" class="node"><title>Node2</title>
<polygon style="fill:white;stroke:#bfbfbf;" points="0,-224 0,-244 43,-244 43,-224 0,-224"/>
<text text-anchor="middle" x="21" y="-231" style="font-family:Arial;font-size:10.00;">cmath</text>
</g>
<!-- Node1&#45;&gt;Node2 -->
<g id="edge2" class="edge"><title>Node1&#45;&gt;Node2</title>
<path style="fill:none;stroke:midnightblue;" d="M139,-448C114,-424 56,-363 29,-300 24,-285 22,-268 21,-254"/>
<polygon style="fill:midnightblue;stroke:midnightblue;" points="24.5001,-254 21,-244 17.5001,-254 24.5001,-254"/>
</g>
<!-- Node3 -->
<g id="node5" class="node"><title>Node3</title>
<polygon style="fill:white;stroke:#bfbfbf;" points="928,-0 928,-20 968,-20 968,-0 928,-0"/>
<text text-anchor="middle" x="948" y="-7" style="font-family:Arial;font-size:10.00;">string</text>
</g>
<!-- Node1&#45;&gt;Node3 -->
<g id="edge4" class="edge"><title>Node1&#45;&gt;Node3</title>
<path style="fill:none;stroke:midnightblue;" d="M153,-448C159,-428 171,-384 170,-346 170,-346 170,-346 170,-122 171,-86 182,-73 213,-56 243,-38 783,-16 918,-11"/>
<polygon style="fill:midnightblue;stroke:midnightblue;" points="918,-14.5001 928,-11 918,-7.5001 918,-14.5001"/>
</g>
<!-- Node4 -->
<g id="node7" class="node"><title>Node4</title>
<a xlink:href="numerical_8h.html" target="_top" xlink:title="ltr/utility/numerical.h">
<polygon style="fill:white;stroke:black;" points="38,-280 38,-300 142,-300 142,-280 38,-280"/>
<text text-anchor="middle" x="90" y="-287" style="font-family:Arial;font-size:10.00;">ltr/utility/numerical.h</text>
</a>
</g>
<!-- Node1&#45;&gt;Node4 -->
<g id="edge6" class="edge"><title>Node1&#45;&gt;Node4</title>
<path style="fill:none;stroke:midnightblue;" d="M146,-448C137,-421 110,-346 97,-310"/>
<polygon style="fill:midnightblue;stroke:midnightblue;" points="100.226,-308.573 94,-300 93.5212,-310.584 100.226,-308.573"/>
</g>
<!-- Node6 -->
<g id="node12" class="node"><title>Node6</title>
<a xlink:href="dcg_8h.html" target="_top" xlink:title="ltr/measures/dcg.h">
<polygon style="fill:white;stroke:black;" points="809,-392 809,-412 906,-412 906,-392 809,-392"/>
<text text-anchor="middle" x="857" y="-399" style="font-family:Arial;font-size:10.00;">ltr/measures/dcg.h</text>
</a>
</g>
<!-- Node1&#45;&gt;Node6 -->
<g id="edge12" class="edge"><title>Node1&#45;&gt;Node6</title>
<path style="fill:none;stroke:midnightblue;" d="M201,-454C330,-443 663,-417 799,-407"/>
<polygon style="fill:midnightblue;stroke:midnightblue;" points="799.398,-410.478 809,-406 798.701,-403.512 799.398,-410.478"/>
</g>
<!-- Node4&#45;&gt;Node2 -->
<g id="edge8" class="edge"><title>Node4&#45;&gt;Node2</title>
<path style="fill:none;stroke:midnightblue;" d="M78,-280C68,-272 53,-261 42,-251"/>
<polygon style="fill:midnightblue;stroke:midnightblue;" points="43.8306,-247.951 34,-244 39.221,-253.219 43.8306,-247.951"/>
</g>
<!-- Node5 -->
<g id="node10" class="node"><title>Node5</title>
<polygon style="fill:white;stroke:#bfbfbf;" points="71,-224 71,-244 110,-244 110,-224 71,-224"/>
<text text-anchor="middle" x="90" y="-231" style="font-family:Arial;font-size:10.00;">limits</text>
</g>
<!-- Node4&#45;&gt;Node5 -->
<g id="edge10" class="edge"><title>Node4&#45;&gt;Node5</title>
<path style="fill:none;stroke:midnightblue;" d="M90,-280C90,-273 90,-263 90,-254"/>
<polygon style="fill:midnightblue;stroke:midnightblue;" points="93.5001,-254 90,-244 86.5001,-254 93.5001,-254"/>
</g>
<!-- Node6&#45;&gt;Node3 -->
<g id="edge20" class="edge"><title>Node6&#45;&gt;Node3</title>
<path style="fill:none;stroke:midnightblue;" d="M809,-399C658,-388 208,-351 208,-290 208,-290 208,-290 208,-122 208,-88 215,-74 243,-56 271,-37 787,-16 918,-11"/>
<polygon style="fill:midnightblue;stroke:midnightblue;" points="918,-14.5001 928,-11 918,-7.5001 918,-14.5001"/>
</g>
<!-- Node7 -->
<g id="node14" class="node"><title>Node7</title>
<polygon style="fill:white;stroke:#bfbfbf;" points="824,-56 824,-76 883,-76 883,-56 824,-56"/>
<text text-anchor="middle" x="853" y="-63" style="font-family:Arial;font-size:10.00;">stdexcept</text>
</g>
<!-- Node6&#45;&gt;Node7 -->
<g id="edge14" class="edge"><title>Node6&#45;&gt;Node7</title>
<path style="fill:none;stroke:midnightblue;" d="M809,-397C762,-392 688,-380 628,-356 584,-338 562,-340 540,-300 526,-275 559,-231 564,-224 583,-195 589,-187 618,-168 649,-145 662,-150 697,-132 712,-123 714,-119 730,-112 757,-99 789,-86 814,-78"/>
<polygon style="fill:midnightblue;stroke:midnightblue;" points="815.427,-81.2259 824,-75 813.416,-74.5212 815.427,-81.2259"/>
</g>
<!-- Node8 -->
<g id="node16" class="node"><title>Node8</title>
<polygon style="fill:white;stroke:#bfbfbf;" points="1725,-0 1725,-20 1781,-20 1781,-0 1725,-0"/>
<text text-anchor="middle" x="1753" y="-7" style="font-family:Arial;font-size:10.00;">algorithm</text>
</g>
<!-- Node6&#45;&gt;Node8 -->
<g id="edge16" class="edge"><title>Node6&#45;&gt;Node8</title>
<path style="fill:none;stroke:midnightblue;" d="M906,-401C1054,-398 1493,-387 1633,-356 1707,-338 1791,-366 1791,-290 1791,-290 1791,-290 1791,-122 1791,-87 1775,-50 1764,-29"/>
<polygon style="fill:midnightblue;stroke:midnightblue;" points="1766.92,-27.0418 1759,-20 1760.8,-30.4414 1766.92,-27.0418"/>
</g>
<!-- Node9 -->
<g id="node18" class="node"><title>Node9</title>
<polygon style="fill:white;stroke:#bfbfbf;" points="843,-224 843,-244 894,-244 894,-224 843,-224"/>
<text text-anchor="middle" x="868" y="-231" style="font-family:Arial;font-size:10.00;">sstream</text>
</g>
<!-- Node6&#45;&gt;Node9 -->
<g id="edge18" class="edge"><title>Node6&#45;&gt;Node9</title>
<path style="fill:none;stroke:midnightblue;" d="M861,-392C864,-383 869,-369 871,-356 875,-321 873,-279 870,-254"/>
<polygon style="fill:midnightblue;stroke:midnightblue;" points="873.478,-253.602 869,-244 866.512,-254.299 873.478,-253.602"/>
</g>
<!-- Node10 -->
<g id="node21" class="node"><title>Node10</title>
<polygon style="fill:white;stroke:#bfbfbf;" points="1530,-56 1530,-76 1572,-76 1572,-56 1530,-56"/>
<text text-anchor="middle" x="1551" y="-63" style="font-family:Arial;font-size:10.00;">vector</text>
</g>
<!-- Node6&#45;&gt;Node10 -->
<g id="edge22" class="edge"><title>Node6&#45;&gt;Node10</title>
<path style="fill:none;stroke:midnightblue;" d="M906,-401C1094,-397 1753,-376 1753,-290 1753,-290 1753,-290 1753,-234 1753,-146 1638,-95 1582,-75"/>
<polygon style="fill:midnightblue;stroke:midnightblue;" points="1582.58,-71.5212 1572,-72 1580.57,-78.2259 1582.58,-71.5212"/>
</g>
<!-- Node11 -->
<g id="node23" class="node"><title>Node11</title>
<polygon style="fill:white;stroke:#bfbfbf;" points="773,-336 773,-356 830,-356 830,-336 773,-336"/>
<text text-anchor="middle" x="801" y="-343" style="font-family:Arial;font-size:10.00;">functional</text>
</g>
<!-- Node6&#45;&gt;Node11 -->
<g id="edge24" class="edge"><title>Node6&#45;&gt;Node11</title>
<path style="fill:none;stroke:midnightblue;" d="M847,-392C839,-384 828,-373 818,-363"/>
<polygon style="fill:midnightblue;stroke:midnightblue;" points="820.546,-360.596 811,-356 815.596,-365.546 820.546,-360.596"/>
</g>
<!-- Node12 -->
<g id="node25" class="node"><title>Node12</title>
<a xlink:href="object__list_8h.html" target="_top" xlink:title="ltr/data/object_list.h">
<polygon style="fill:white;stroke:black;" points="908,-168 908,-188 1010,-188 1010,-168 908,-168"/>
<text text-anchor="middle" x="959" y="-175" style="font-family:Arial;font-size:10.00;">ltr/data/object_list.h</text>
</a>
</g>
<!-- Node6&#45;&gt;Node12 -->
<g id="edge26" class="edge"><title>Node6&#45;&gt;Node12</title>
<path style="fill:none;stroke:midnightblue;" d="M854,-392C844,-358 815,-251 834,-224 842,-211 875,-200 906,-191"/>
<polygon style="fill:midnightblue;stroke:midnightblue;" points="907.427,-194.226 916,-188 905.416,-187.521 907.427,-194.226"/>
</g>
<!-- Node20 -->
<g id="node52" class="node"><title>Node20</title>
<a xlink:href="aliaser_8h.html" target="_top" xlink:title="ltr/interfaces/aliaser.h">
<polygon style="fill:white;stroke:black;" points="1541,-224 1541,-244 1649,-244 1649,-224 1541,-224"/>
<text text-anchor="middle" x="1595" y="-231" style="font-family:Arial;font-size:10.00;">ltr/interfaces/aliaser.h</text>
</a>
</g>
<!-- Node6&#45;&gt;Node20 -->
<g id="edge64" class="edge"><title>Node6&#45;&gt;Node20</title>
<path style="fill:none;stroke:midnightblue;" d="M906,-400C1078,-391 1643,-359 1696,-300 1716,-276 1680,-258 1646,-247"/>
<polygon style="fill:midnightblue;stroke:midnightblue;" points="1646.58,-243.521 1636,-244 1644.57,-250.226 1646.58,-243.521"/>
</g>
<!-- Node21 -->
<g id="node55" class="node"><title>Node21</title>
<a xlink:href="measure_8h.html" target="_top" xlink:title="ltr/measures/measure.h">
<polygon style="fill:white;stroke:black;" points="637,-336 637,-356 756,-356 756,-336 637,-336"/>
<text text-anchor="middle" x="696" y="-343" style="font-family:Arial;font-size:10.00;">ltr/measures/measure.h</text>
</a>
</g>
<!-- Node6&#45;&gt;Node21 -->
<g id="edge68" class="edge"><title>Node6&#45;&gt;Node21</title>
<path style="fill:none;stroke:midnightblue;" d="M828,-392C802,-383 763,-369 735,-359"/>
<polygon style="fill:midnightblue;stroke:midnightblue;" points="735.584,-355.521 725,-356 733.573,-362.226 735.584,-355.521"/>
</g>
<!-- Node33 -->
<g id="node120" class="node"><title>Node33</title>
<a xlink:href="measure__utility_8h.html" target="_top" xlink:title="ltr/measures/utils/measure_utility.h">
<polygon style="fill:white;stroke:black;" points="1052,-336 1052,-356 1220,-356 1220,-336 1052,-336"/>
<text text-anchor="middle" x="1136" y="-343" style="font-family:Arial;font-size:10.00;">ltr/measures/utils/measure_utility.h</text>
</a>
</g>
<!-- Node6&#45;&gt;Node33 -->
<g id="edge174" class="edge"><title>Node6&#45;&gt;Node33</title>
<path style="fill:none;stroke:midnightblue;" d="M906,-392C953,-383 1025,-368 1076,-358"/>
<polygon style="fill:midnightblue;stroke:midnightblue;" points="1076.88,-361.393 1086,-356 1075.51,-354.529 1076.88,-361.393"/>
</g>
<!-- Node12&#45;&gt;Node3 -->
<g id="edge30" class="edge"><title>Node12&#45;&gt;Node3</title>
<path style="fill:none;stroke:midnightblue;" d="M958,-168C956,-141 952,-67 950,-30"/>
<polygon style="fill:midnightblue;stroke:midnightblue;" points="953.478,-29.6021 949,-20 946.512,-30.2987 953.478,-29.6021"/>
</g>
<!-- Node12&#45;&gt;Node7 -->
<g id="edge28" class="edge"><title>Node12&#45;&gt;Node7</title>
<path style="fill:none;stroke:midnightblue;" d="M949,-168C931,-148 892,-107 870,-83"/>
<polygon style="fill:midnightblue;stroke:midnightblue;" points="872.546,-80.5962 863,-76 867.596,-85.546 872.546,-80.5962"/>
</g>
<!-- Node12&#45;&gt;Node10 -->
<g id="edge32" class="edge"><title>Node12&#45;&gt;Node10</title>
<path style="fill:none;stroke:midnightblue;" d="M1010,-168C1130,-146 1424,-90 1520,-72"/>
<polygon style="fill:midnightblue;stroke:midnightblue;" points="1520.88,-75.3933 1530,-70 1519.51,-68.5292 1520.88,-75.3933"/>
</g>
<!-- Node13 -->
<g id="node30" class="node"><title>Node13</title>
<a xlink:href="object_8h.html" target="_top" xlink:title="ltr/data/object.h">
<polygon style="fill:white;stroke:black;" points="972,-112 972,-132 1056,-132 1056,-112 972,-112"/>
<text text-anchor="middle" x="1014" y="-119" style="font-family:Arial;font-size:10.00;">ltr/data/object.h</text>
</a>
</g>
<!-- Node12&#45;&gt;Node13 -->
<g id="edge34" class="edge"><title>Node12&#45;&gt;Node13</title>
<path style="fill:none;stroke:midnightblue;" d="M969,-168C977,-160 988,-149 997,-139"/>
<polygon style="fill:midnightblue;stroke:midnightblue;" points="999.404,-141.546 1004,-132 994.454,-136.596 999.404,-141.546"/>
</g>
<!-- Node16 -->
<g id="node39" class="node"><title>Node16</title>
<a xlink:href="printable_8h.html" target="_top" xlink:title="ltr/interfaces/printable.h">
<polygon style="fill:white;stroke:black;" points="366,-56 366,-76 483,-76 483,-56 366,-56"/>
<text text-anchor="middle" x="424" y="-63" style="font-family:Arial;font-size:10.00;">ltr/interfaces/printable.h</text>
</a>
</g>
<!-- Node12&#45;&gt;Node16 -->
<g id="edge60" class="edge"><title>Node12&#45;&gt;Node16</title>
<path style="fill:none;stroke:midnightblue;" d="M908,-173C893,-171 876,-169 861,-168 812,-163 455,-167 422,-132 411,-120 412,-101 417,-86"/>
<polygon style="fill:midnightblue;stroke:midnightblue;" points="420.479,-86.584 420,-76 413.774,-84.5725 420.479,-86.584"/>
</g>
<!-- Node17 -->
<g id="node43" class="node"><title>Node17</title>
<a xlink:href="shared__ptr_8h.html" target="_top" xlink:title="ltr/utility/shared_ptr.h">
<polygon style="fill:white;stroke:black;" points="1226,-56 1226,-76 1333,-76 1333,-56 1226,-56"/>
<text text-anchor="middle" x="1279" y="-63" style="font-family:Arial;font-size:10.00;">ltr/utility/shared_ptr.h</text>
</a>
</g>
<!-- Node12&#45;&gt;Node17 -->
<g id="edge62" class="edge"><title>Node12&#45;&gt;Node17</title>
<path style="fill:none;stroke:midnightblue;" d="M988,-168C1045,-147 1175,-102 1241,-79"/>
<polygon style="fill:midnightblue;stroke:midnightblue;" points="1241.62,-82.4827 1250,-76 1239.41,-75.842 1241.62,-82.4827"/>
</g>
<!-- Node13&#45;&gt;Node3 -->
<g id="edge42" class="edge"><title>Node13&#45;&gt;Node3</title>
<path style="fill:none;stroke:midnightblue;" d="M1014,-112C1013,-98 1010,-73 1000,-56 993,-44 982,-34 972,-26"/>
<polygon style="fill:midnightblue;stroke:midnightblue;" points="974.1,-23.2 964,-20 969.9,-28.8 974.1,-23.2"/>
</g>
<!-- Node13&#45;&gt;Node7 -->
<g id="edge40" class="edge"><title>Node13&#45;&gt;Node7</title>
<path style="fill:none;stroke:midnightblue;" d="M985,-112C959,-103 920,-89 892,-79"/>
<polygon style="fill:midnightblue;stroke:midnightblue;" points="892.584,-75.5212 882,-76 890.573,-82.2259 892.584,-75.5212"/>
</g>
<!-- Node13&#45;&gt;Node10 -->
<g id="edge44" class="edge"><title>Node13&#45;&gt;Node10</title>
<path style="fill:none;stroke:midnightblue;" d="M1056,-118C1161,-106 1429,-78 1520,-69"/>
<polygon style="fill:midnightblue;stroke:midnightblue;" points="1520.4,-72.4778 1530,-68 1519.7,-65.5125 1520.4,-72.4778"/>
</g>
<!-- Node14 -->
<g id="node32" class="node"><title>Node14</title>
<polygon style="fill:white;stroke:#bfbfbf;" points="1136,-56 1136,-76 1171,-76 1171,-56 1136,-56"/>
<text text-anchor="middle" x="1153" y="-63" style="font-family:Arial;font-size:10.00;">map</text>
</g>
<!-- Node13&#45;&gt;Node14 -->
<g id="edge36" class="edge"><title>Node13&#45;&gt;Node14</title>
<path style="fill:none;stroke:midnightblue;" d="M1039,-112C1064,-102 1102,-87 1127,-77"/>
<polygon style="fill:midnightblue;stroke:midnightblue;" points="1128.28,-80.2598 1136,-73 1125.44,-73.8631 1128.28,-80.2598"/>
</g>
<!-- Node15 -->
<g id="node34" class="node"><title>Node15</title>
<polygon style="fill:white;stroke:#bfbfbf;" points="610,-0 610,-20 661,-20 661,-0 610,-0"/>
<text text-anchor="middle" x="635" y="-7" style="font-family:Arial;font-size:10.00;">ostream</text>
</g>
<!-- Node13&#45;&gt;Node15 -->
<g id="edge38" class="edge"><title>Node13&#45;&gt;Node15</title>
<path style="fill:none;stroke:midnightblue;" d="M999,-112C977,-97 932,-70 891,-56 815,-29 721,-18 671,-13"/>
<polygon style="fill:midnightblue;stroke:midnightblue;" points="671.299,-9.5125 661,-12 670.602,-16.4778 671.299,-9.5125"/>
</g>
<!-- Node13&#45;&gt;Node16 -->
<g id="edge46" class="edge"><title>Node13&#45;&gt;Node16</title>
<path style="fill:none;stroke:midnightblue;" d="M972,-119C885,-113 677,-98 493,-76"/>
<polygon style="fill:midnightblue;stroke:midnightblue;" points="493.299,-72.5125 483,-75 492.602,-79.4778 493.299,-72.5125"/>
</g>
<!-- Node13&#45;&gt;Node17 -->
<g id="edge52" class="edge"><title>Node13&#45;&gt;Node17</title>
<path style="fill:none;stroke:midnightblue;" d="M1056,-113C1101,-104 1171,-89 1221,-78"/>
<polygon style="fill:midnightblue;stroke:midnightblue;" points="1221.88,-81.3933 1231,-76 1220.51,-74.5292 1221.88,-81.3933"/>
</g>
<!-- Node16&#45;&gt;Node3 -->
<g id="edge50" class="edge"><title>Node16&#45;&gt;Node3</title>
<path style="fill:none;stroke:midnightblue;" d="M483,-57C486,-57 488,-56 491,-56 651,-35 844,-19 918,-13"/>
<polygon style="fill:midnightblue;stroke:midnightblue;" points="918.398,-16.4778 928,-12 917.701,-9.5125 918.398,-16.4778"/>
</g>
<!-- Node16&#45;&gt;Node15 -->
<g id="edge48" class="edge"><title>Node16&#45;&gt;Node15</title>
<path style="fill:none;stroke:midnightblue;" d="M462,-56C501,-46 562,-29 600,-19"/>
<polygon style="fill:midnightblue;stroke:midnightblue;" points="600.881,-22.3933 610,-17 599.508,-15.5292 600.881,-22.3933"/>
</g>
<!-- Node17&#45;&gt;Node8 -->
<g id="edge54" class="edge"><title>Node17&#45;&gt;Node8</title>
<path style="fill:none;stroke:midnightblue;" d="M1333,-60C1431,-48 1631,-24 1715,-14"/>
<polygon style="fill:midnightblue;stroke:midnightblue;" points="1715.4,-17.4778 1725,-13 1714.7,-10.5125 1715.4,-17.4778"/>
</g>
<!-- Node18 -->
<g id="node46" class="node"><title>Node18</title>
<polygon style="fill:white;stroke:#bfbfbf;" points="1143,-0 1143,-20 1250,-20 1250,-0 1143,-0"/>
<text text-anchor="middle" x="1196" y="-7" style="font-family:Arial;font-size:10.00;">boost/shared_ptr.hpp</text>
</g>
<!-- Node17&#45;&gt;Node18 -->
<g id="edge56" class="edge"><title>Node17&#45;&gt;Node18</title>
<path style="fill:none;stroke:midnightblue;" d="M1264,-56C1252,-48 1234,-35 1219,-26"/>
<polygon style="fill:midnightblue;stroke:midnightblue;" points="1221.1,-23.2 1211,-20 1216.9,-28.8 1221.1,-23.2"/>
</g>
<!-- Node19 -->
<g id="node48" class="node"><title>Node19</title>
<polygon style="fill:white;stroke:#bfbfbf;" points="1267,-0 1267,-20 1458,-20 1458,-0 1267,-0"/>
<text text-anchor="middle" x="1362" y="-7" style="font-family:Arial;font-size:10.00;">boost/smart_ptr/detail/operator_bool.hpp</text>
</g>
<!-- Node17&#45;&gt;Node19 -->
<g id="edge58" class="edge"><title>Node17&#45;&gt;Node19</title>
<path style="fill:none;stroke:midnightblue;" d="M1294,-56C1306,-48 1324,-35 1339,-26"/>
<polygon style="fill:midnightblue;stroke:midnightblue;" points="1341.1,-28.8 1347,-20 1336.9,-23.2 1341.1,-28.8"/>
</g>
<!-- Node20&#45;&gt;Node3 -->
<g id="edge66" class="edge"><title>Node20&#45;&gt;Node3</title>
<path style="fill:none;stroke:midnightblue;" d="M1598,-224C1607,-193 1627,-101 1581,-56 1569,-44 1103,-19 978,-12"/>
<polygon style="fill:midnightblue;stroke:midnightblue;" points="978.299,-8.5125 968,-11 977.602,-15.4778 978.299,-8.5125"/>
</g>
<!-- Node21&#45;&gt;Node3 -->
<g id="edge78" class="edge"><title>Node21&#45;&gt;Node3</title>
<path style="fill:none;stroke:midnightblue;" d="M637,-344C551,-340 396,-330 351,-300 255,-236 186,-139 265,-56 286,-32 788,-15 918,-11"/>
<polygon style="fill:midnightblue;stroke:midnightblue;" points="918,-14.5001 928,-11 918,-7.5001 918,-14.5001"/>
</g>
<!-- Node21&#45;&gt;Node4 -->
<g id="edge170" class="edge"><title>Node21&#45;&gt;Node4</title>
<path style="fill:none;stroke:midnightblue;" d="M637,-341C521,-329 269,-306 152,-296"/>
<polygon style="fill:midnightblue;stroke:midnightblue;" points="152.299,-292.512 142,-295 151.602,-299.478 152.299,-292.512"/>
</g>
<!-- Node21&#45;&gt;Node7 -->
<g id="edge76" class="edge"><title>Node21&#45;&gt;Node7</title>
<path style="fill:none;stroke:midnightblue;" d="M637,-341C589,-335 531,-319 550,-280 603,-169 664,-177 768,-112 786,-100 807,-89 824,-81"/>
<polygon style="fill:midnightblue;stroke:midnightblue;" points="825.958,-83.916 833,-76 822.559,-77.7969 825.958,-83.916"/>
</g>
<!-- Node21&#45;&gt;Node8 -->
<g id="edge74" class="edge"><title>Node21&#45;&gt;Node8</title>
<path style="fill:none;stroke:midnightblue;" d="M756,-337C759,-336 761,-336 764,-336 937,-319 1380,-344 1549,-300 1601,-285 1621,-284 1658,-244 1716,-179 1741,-74 1749,-30"/>
<polygon style="fill:midnightblue;stroke:midnightblue;" points="1752.47,-30.4922 1751,-20 1745.61,-29.1194 1752.47,-30.4922"/>
</g>
<!-- Node21&#45;&gt;Node12 -->
<g id="edge82" class="edge"><title>Node21&#45;&gt;Node12</title>
<path style="fill:none;stroke:midnightblue;" d="M711,-336C723,-327 740,-314 753,-300 779,-270 769,-248 801,-224 817,-212 863,-199 901,-190"/>
<polygon style="fill:midnightblue;stroke:midnightblue;" points="901.881,-193.393 911,-188 900.508,-186.529 901.881,-193.393"/>
</g>
<!-- Node21&#45;&gt;Node13 -->
<g id="edge80" class="edge"><title>Node21&#45;&gt;Node13</title>
<path style="fill:none;stroke:midnightblue;" d="M700,-336C710,-313 737,-256 776,-224 807,-197 823,-205 861,-188 878,-179 881,-175 899,-168 924,-156 953,-144 976,-136"/>
<polygon style="fill:midnightblue;stroke:midnightblue;" points="977.283,-139.26 985,-132 974.44,-132.863 977.283,-139.26"/>
</g>
<!-- Node21&#45;&gt;Node16 -->
<g id="edge164" class="edge"><title>Node21&#45;&gt;Node16</title>
<path style="fill:none;stroke:midnightblue;" d="M637,-339C540,-325 360,-291 360,-234 360,-234 360,-234 360,-178 360,-140 387,-104 406,-84"/>
<polygon style="fill:midnightblue;stroke:midnightblue;" points="409.049,-85.8306 413,-76 403.781,-81.221 409.049,-85.8306"/>
</g>
<!-- Node21&#45;&gt;Node17 -->
<g id="edge172" class="edge"><title>Node21&#45;&gt;Node17</title>
<path style="fill:none;stroke:midnightblue;" d="M756,-337C759,-337 761,-336 764,-336 918,-318 1358,-364 1456,-244 1509,-177 1379,-109 1314,-80"/>
<polygon style="fill:midnightblue;stroke:midnightblue;" points="1314.58,-76.4643 1304,-76 1311.98,-82.9636 1314.58,-76.4643"/>
</g>
<!-- Node21&#45;&gt;Node20 -->
<g id="edge162" class="edge"><title>Node21&#45;&gt;Node20</title>
<path style="fill:none;stroke:midnightblue;" d="M756,-337C759,-336 761,-336 764,-336 931,-319 1365,-363 1521,-300 1545,-290 1567,-268 1580,-252"/>
<polygon style="fill:midnightblue;stroke:midnightblue;" points="1583.05,-253.831 1587,-244 1577.78,-249.221 1583.05,-253.831"/>
</g>
<!-- Node22 -->
<g id="node57" class="node"><title>Node22</title>
<polygon style="fill:white;stroke:#bfbfbf;" points="274,-56 274,-76 348,-76 348,-56 274,-56"/>
<text text-anchor="middle" x="311" y="-63" style="font-family:Arial;font-size:10.00;">logog/logog.h</text>
</g>
<!-- Node21&#45;&gt;Node22 -->
<g id="edge70" class="edge"><title>Node21&#45;&gt;Node22</title>
<path style="fill:none;stroke:midnightblue;" d="M637,-340C564,-332 445,-318 404,-300 361,-281 322,-280 322,-234 322,-234 322,-234 322,-178 322,-146 318,-108 315,-86"/>
<polygon style="fill:midnightblue;stroke:midnightblue;" points="318.393,-85.1194 313,-76 311.529,-86.4922 318.393,-85.1194"/>
</g>
<!-- Node23 -->
<g id="node59" class="node"><title>Node23</title>
<polygon style="fill:white;stroke:#bfbfbf;" points="559,-280 559,-300 673,-300 673,-280 559,-280"/>
<text text-anchor="middle" x="616" y="-287" style="font-family:Arial;font-size:10.00;">boost/lexical_cast.hpp</text>
</g>
<!-- Node21&#45;&gt;Node23 -->
<g id="edge72" class="edge"><title>Node21&#45;&gt;Node23</title>
<path style="fill:none;stroke:midnightblue;" d="M682,-336C671,-328 653,-316 639,-306"/>
<polygon style="fill:midnightblue;stroke:midnightblue;" points="641.1,-303.2 631,-300 636.9,-308.8 641.1,-303.2"/>
</g>
<!-- Node24 -->
<g id="node66" class="node"><title>Node24</title>
<a xlink:href="object__pair_8h.html" target="_top" xlink:title="ltr/data/object_pair.h">
<polygon style="fill:white;stroke:black;" points="1104,-168 1104,-188 1208,-188 1208,-168 1104,-168"/>
<text text-anchor="middle" x="1156" y="-175" style="font-family:Arial;font-size:10.00;">ltr/data/object_pair.h</text>
</a>
</g>
<!-- Node21&#45;&gt;Node24 -->
<g id="edge84" class="edge"><title>Node21&#45;&gt;Node24</title>
<path style="fill:none;stroke:midnightblue;" d="M756,-336C890,-314 1203,-261 1218,-244 1233,-225 1209,-206 1187,-193"/>
<polygon style="fill:midnightblue;stroke:midnightblue;" points="1188.44,-189.797 1178,-188 1185.04,-195.916 1188.44,-189.797"/>
</g>
<!-- Node25 -->
<g id="node74" class="node"><title>Node25</title>
<a xlink:href="data__set_8h.html" target="_top" xlink:title="ltr/data/data_set.h">
<polygon style="fill:white;stroke:black;" points="1089,-280 1089,-300 1184,-300 1184,-280 1089,-280"/>
<text text-anchor="middle" x="1136" y="-287" style="font-family:Arial;font-size:10.00;">ltr/data/data_set.h</text>
</a>
</g>
<!-- Node21&#45;&gt;Node25 -->
<g id="edge98" class="edge"><title>Node21&#45;&gt;Node25</title>
<path style="fill:none;stroke:midnightblue;" d="M756,-337C759,-337 761,-336 764,-336 876,-321 1006,-305 1079,-296"/>
<polygon style="fill:midnightblue;stroke:midnightblue;" points="1079.4,-299.478 1089,-295 1078.7,-292.512 1079.4,-299.478"/>
</g>
<!-- Node27 -->
<g id="node88" class="node"><title>Node27</title>
<a xlink:href="parameterized_8h.html" target="_top" xlink:title="ltr/interfaces/parameterized.h">
<polygon style="fill:white;stroke:black;" points="710,-168 710,-188 852,-188 852,-168 710,-168"/>
<text text-anchor="middle" x="781" y="-175" style="font-family:Arial;font-size:10.00;">ltr/interfaces/parameterized.h</text>
</a>
</g>
<!-- Node21&#45;&gt;Node27 -->
<g id="edge166" class="edge"><title>Node21&#45;&gt;Node27</title>
<path style="fill:none;stroke:midnightblue;" d="M696,-336C697,-314 702,-261 725,-224 732,-212 744,-201 755,-194"/>
<polygon style="fill:midnightblue;stroke:midnightblue;" points="757.1,-196.8 763,-188 752.9,-191.2 757.1,-196.8"/>
</g>
<!-- Node28 -->
<g id="node92" class="node"><title>Node28</title>
<a xlink:href="parameters__container_8h.html" target="_top" xlink:title="ltr/parameters_container/parameters_container.h">
<polygon style="fill:white;stroke:black;" points="464,-112 464,-132 689,-132 689,-112 464,-112"/>
<text text-anchor="middle" x="576" y="-119" style="font-family:Arial;font-size:10.00;">ltr/parameters_container/parameters_container.h</text>
</a>
</g>
<!-- Node21&#45;&gt;Node28 -->
<g id="edge168" class="edge"><title>Node21&#45;&gt;Node28</title>
<path style="fill:none;stroke:midnightblue;" d="M637,-339C591,-331 532,-319 517,-300 478,-250 531,-175 559,-140"/>
<polygon style="fill:midnightblue;stroke:midnightblue;" points="562.049,-141.831 566,-132 556.781,-137.221 562.049,-141.831"/>
</g>
<!-- Node24&#45;&gt;Node3 -->
<g id="edge88" class="edge"><title>Node24&#45;&gt;Node3</title>
<path style="fill:none;stroke:midnightblue;" d="M1148,-168C1137,-154 1116,-130 1096,-112 1056,-77 1005,-44 974,-25"/>
<polygon style="fill:midnightblue;stroke:midnightblue;" points="975.441,-21.7969 965,-20 972.042,-27.916 975.441,-21.7969"/>
</g>
<!-- Node24&#45;&gt;Node7 -->
<g id="edge86" class="edge"><title>Node24&#45;&gt;Node7</title>
<path style="fill:none;stroke:midnightblue;" d="M1145,-168C1129,-153 1097,-126 1065,-112 1008,-86 937,-75 893,-69"/>
<polygon style="fill:midnightblue;stroke:midnightblue;" points="893.299,-65.5125 883,-68 892.602,-72.4778 893.299,-65.5125"/>
</g>
<!-- Node24&#45;&gt;Node10 -->
<g id="edge90" class="edge"><title>Node24&#45;&gt;Node10</title>
<path style="fill:none;stroke:midnightblue;" d="M1208,-171C1259,-164 1336,-152 1402,-132 1445,-119 1493,-95 1523,-81"/>
<polygon style="fill:midnightblue;stroke:midnightblue;" points="1524.96,-83.916 1532,-76 1521.56,-77.7969 1524.96,-83.916"/>
</g>
<!-- Node24&#45;&gt;Node13 -->
<g id="edge92" class="edge"><title>Node24&#45;&gt;Node13</title>
<path style="fill:none;stroke:midnightblue;" d="M1131,-168C1108,-159 1075,-146 1050,-136"/>
<polygon style="fill:midnightblue;stroke:midnightblue;" points="1050.58,-132.464 1040,-132 1047.98,-138.964 1050.58,-132.464"/>
</g>
<!-- Node24&#45;&gt;Node16 -->
<g id="edge94" class="edge"><title>Node24&#45;&gt;Node16</title>
<path style="fill:none;stroke:midnightblue;" d="M1104,-174C1078,-172 1047,-170 1019,-168 956,-163 506,-167 455,-132 440,-122 432,-101 428,-86"/>
<polygon style="fill:midnightblue;stroke:midnightblue;" points="431.393,-85.1194 426,-76 424.529,-86.4922 431.393,-85.1194"/>
</g>
<!-- Node24&#45;&gt;Node17 -->
<g id="edge96" class="edge"><title>Node24&#45;&gt;Node17</title>
<path style="fill:none;stroke:midnightblue;" d="M1167,-168C1189,-148 1234,-107 1261,-83"/>
<polygon style="fill:midnightblue;stroke:midnightblue;" points="1263.4,-85.546 1268,-76 1258.45,-80.5962 1263.4,-85.546"/>
</g>
<!-- Node25&#45;&gt;Node3 -->
<g id="edge104" class="edge"><title>Node25&#45;&gt;Node3</title>
<path style="fill:none;stroke:midnightblue;" d="M1179,-280C1213,-271 1255,-258 1265,-244 1308,-181 1474,-279 1179,-56 1147,-32 1034,-18 978,-13"/>
<polygon style="fill:midnightblue;stroke:midnightblue;" points="978.299,-9.5125 968,-12 977.602,-16.4778 978.299,-9.5125"/>
</g>
<!-- Node25&#45;&gt;Node7 -->
<g id="edge102" class="edge"><title>Node25&#45;&gt;Node7</title>
<path style="fill:none;stroke:midnightblue;" d="M1104,-280C1060,-266 975,-241 902,-224 857,-213 730,-222 701,-188 695,-181 696,-175 701,-168 718,-138 739,-150 768,-132 791,-117 816,-96 833,-83"/>
<polygon style="fill:midnightblue;stroke:midnightblue;" points="835.779,-85.2191 841,-76 831.169,-79.9511 835.779,-85.2191"/>
</g>
<!-- Node25&#45;&gt;Node9 -->
<g id="edge100" class="edge"><title>Node25&#45;&gt;Node9</title>
<path style="fill:none;stroke:midnightblue;" d="M1089,-281C1042,-272 970,-258 907,-244 906,-244 905,-244 904,-243"/>
<polygon style="fill:midnightblue;stroke:midnightblue;" points="904.492,-239.529 894,-241 903.119,-246.393 904.492,-239.529"/>
</g>
<!-- Node25&#45;&gt;Node10 -->
<g id="edge106" class="edge"><title>Node25&#45;&gt;Node10</title>
<path style="fill:none;stroke:midnightblue;" d="M1184,-288C1262,-283 1411,-271 1456,-244 1513,-208 1538,-125 1547,-86"/>
<polygon style="fill:midnightblue;stroke:midnightblue;" points="1550.47,-86.4922 1549,-76 1543.61,-85.1194 1550.47,-86.4922"/>
</g>
<!-- Node25&#45;&gt;Node12 -->
<g id="edge110" class="edge"><title>Node25&#45;&gt;Node12</title>
<path style="fill:none;stroke:midnightblue;" d="M1099,-280C1076,-272 1045,-260 1021,-244 1001,-231 984,-211 972,-196"/>
<polygon style="fill:midnightblue;stroke:midnightblue;" points="974.8,-193.9 966,-188 969.2,-198.1 974.8,-193.9"/>
</g>
<!-- Node25&#45;&gt;Node13 -->
<g id="edge108" class="edge"><title>Node25&#45;&gt;Node13</title>
<path style="fill:none;stroke:midnightblue;" d="M1107,-280C1089,-272 1068,-261 1054,-244 1029,-213 1019,-168 1016,-142"/>
<polygon style="fill:midnightblue;stroke:midnightblue;" points="1019.48,-141.602 1015,-132 1012.51,-142.299 1019.48,-141.602"/>
</g>
<!-- Node25&#45;&gt;Node20 -->
<g id="edge160" class="edge"><title>Node25&#45;&gt;Node20</title>
<path style="fill:none;stroke:midnightblue;" d="M1184,-284C1267,-274 1437,-254 1531,-242"/>
<polygon style="fill:midnightblue;stroke:midnightblue;" points="1531.4,-245.478 1541,-241 1530.7,-238.512 1531.4,-245.478"/>
</g>
<!-- Node25&#45;&gt;Node24 -->
<g id="edge112" class="edge"><title>Node25&#45;&gt;Node24</title>
<path style="fill:none;stroke:midnightblue;" d="M1184,-283C1209,-277 1236,-266 1251,-244 1266,-221 1235,-203 1205,-191"/>
<polygon style="fill:midnightblue;stroke:midnightblue;" points="1205.58,-187.521 1195,-188 1203.57,-194.226 1205.58,-187.521"/>
</g>
<!-- Node26 -->
<g id="node83" class="node"><title>Node26</title>
<a xlink:href="feature__info_8h.html" target="_top" xlink:title="ltr/data/feature_info.h">
<polygon style="fill:white;stroke:black;" points="1341,-224 1341,-244 1448,-244 1448,-224 1341,-224"/>
<text text-anchor="middle" x="1394" y="-231" style="font-family:Arial;font-size:10.00;">ltr/data/feature_info.h</text>
</a>
</g>
<!-- Node25&#45;&gt;Node26 -->
<g id="edge114" class="edge"><title>Node25&#45;&gt;Node26</title>
<path style="fill:none;stroke:midnightblue;" d="M1182,-280C1226,-271 1291,-256 1338,-246"/>
<polygon style="fill:midnightblue;stroke:midnightblue;" points="1338.88,-249.393 1348,-244 1337.51,-242.529 1338.88,-249.393"/>
</g>
<!-- Node32 -->
<g id="node106" class="node"><title>Node32</title>
<a xlink:href="per__object__accessor_8h.html" target="_top" xlink:title="ltr/data/per_object_accessor.h">
<polygon style="fill:white;stroke:black;" points="1063,-224 1063,-244 1210,-244 1210,-224 1063,-224"/>
<text text-anchor="middle" x="1136" y="-231" style="font-family:Arial;font-size:10.00;">ltr/data/per_object_accessor.h</text>
</a>
</g>
<!-- Node25&#45;&gt;Node32 -->
<g id="edge148" class="edge"><title>Node25&#45;&gt;Node32</title>
<path style="fill:none;stroke:midnightblue;" d="M1136,-280C1136,-273 1136,-263 1136,-254"/>
<polygon style="fill:midnightblue;stroke:midnightblue;" points="1139.5,-254 1136,-244 1132.5,-254 1139.5,-254"/>
</g>
<!-- Node26&#45;&gt;Node3 -->
<g id="edge118" class="edge"><title>Node26&#45;&gt;Node3</title>
<path style="fill:none;stroke:midnightblue;" d="M1395,-224C1396,-193 1394,-98 1341,-56 1312,-33 1065,-16 978,-12"/>
<polygon style="fill:midnightblue;stroke:midnightblue;" points="978.299,-8.5125 968,-11 977.602,-15.4778 978.299,-8.5125"/>
</g>
<!-- Node26&#45;&gt;Node10 -->
<g id="edge120" class="edge"><title>Node26&#45;&gt;Node10</title>
<path style="fill:none;stroke:midnightblue;" d="M1403,-224C1415,-210 1438,-186 1461,-168 1483,-149 1496,-153 1516,-132 1528,-118 1537,-100 1543,-86"/>
<polygon style="fill:midnightblue;stroke:midnightblue;" points="1546.54,-86.5847 1547,-76 1540.04,-83.9849 1546.54,-86.5847"/>
</g>
<!-- Node26&#45;&gt;Node14 -->
<g id="edge116" class="edge"><title>Node26&#45;&gt;Node14</title>
<path style="fill:none;stroke:midnightblue;" d="M1380,-224C1340,-196 1225,-116 1176,-82"/>
<polygon style="fill:midnightblue;stroke:midnightblue;" points="1178.1,-79.2 1168,-76 1173.9,-84.8 1178.1,-79.2"/>
</g>
<!-- Node26&#45;&gt;Node17 -->
<g id="edge146" class="edge"><title>Node26&#45;&gt;Node17</title>
<path style="fill:none;stroke:midnightblue;" d="M1390,-224C1380,-202 1355,-150 1326,-112 1318,-101 1308,-91 1299,-83"/>
<polygon style="fill:midnightblue;stroke:midnightblue;" points="1300.83,-79.9511 1291,-76 1296.22,-85.2191 1300.83,-79.9511"/>
</g>
<!-- Node26&#45;&gt;Node27 -->
<g id="edge122" class="edge"><title>Node26&#45;&gt;Node27</title>
<path style="fill:none;stroke:midnightblue;" d="M1341,-229C1234,-219 990,-197 862,-186"/>
<polygon style="fill:midnightblue;stroke:midnightblue;" points="862.299,-182.512 852,-185 861.602,-189.478 862.299,-182.512"/>
</g>
<!-- Node27&#45;&gt;Node3 -->
<g id="edge126" class="edge"><title>Node27&#45;&gt;Node3</title>
<path style="fill:none;stroke:midnightblue;" d="M793,-168C813,-150 856,-111 891,-76 906,-60 922,-41 933,-28"/>
<polygon style="fill:midnightblue;stroke:midnightblue;" points="936.049,-29.8306 940,-20 930.781,-25.221 936.049,-29.8306"/>
</g>
<!-- Node27&#45;&gt;Node7 -->
<g id="edge124" class="edge"><title>Node27&#45;&gt;Node7</title>
<path style="fill:none;stroke:midnightblue;" d="M788,-168C799,-149 826,-109 841,-85"/>
<polygon style="fill:midnightblue;stroke:midnightblue;" points="844.203,-86.4414 846,-76 838.084,-83.0418 844.203,-86.4414"/>
</g>
<!-- Node27&#45;&gt;Node28 -->
<g id="edge128" class="edge"><title>Node27&#45;&gt;Node28</title>
<path style="fill:none;stroke:midnightblue;" d="M744,-168C710,-159 660,-145 623,-135"/>
<polygon style="fill:midnightblue;stroke:midnightblue;" points="623.584,-131.521 613,-132 621.573,-138.226 623.584,-131.521"/>
</g>
<!-- Node28&#45;&gt;Node3 -->
<g id="edge136" class="edge"><title>Node28&#45;&gt;Node3</title>
<path style="fill:none;stroke:midnightblue;" d="M637,-112C678,-104 731,-92 777,-76 794,-69 797,-63 815,-56 850,-41 890,-27 918,-19"/>
<polygon style="fill:midnightblue;stroke:midnightblue;" points="919.427,-22.2259 928,-16 917.416,-15.5212 919.427,-22.2259"/>
</g>
<!-- Node28&#45;&gt;Node7 -->
<g id="edge134" class="edge"><title>Node28&#45;&gt;Node7</title>
<path style="fill:none;stroke:midnightblue;" d="M629,-112C677,-103 748,-89 810,-76 811,-76 813,-75 814,-75"/>
<polygon style="fill:midnightblue;stroke:midnightblue;" points="814.881,-78.3933 824,-73 813.508,-71.5292 814.881,-78.3933"/>
</g>
<!-- Node28&#45;&gt;Node16 -->
<g id="edge144" class="edge"><title>Node28&#45;&gt;Node16</title>
<path style="fill:none;stroke:midnightblue;" d="M549,-112C524,-103 488,-89 461,-79"/>
<polygon style="fill:midnightblue;stroke:midnightblue;" points="461.584,-75.5212 451,-76 459.573,-82.2259 461.584,-75.5212"/>
</g>
<!-- Node28&#45;&gt;Node17 -->
<g id="edge142" class="edge"><title>Node28&#45;&gt;Node17</title>
<path style="fill:none;stroke:midnightblue;" d="M689,-114C810,-105 1008,-91 1179,-76 1191,-75 1204,-74 1216,-72"/>
<polygon style="fill:midnightblue;stroke:midnightblue;" points="1216.4,-75.4778 1226,-71 1215.7,-68.5125 1216.4,-75.4778"/>
</g>
<!-- Node28&#45;&gt;Node22 -->
<g id="edge130" class="edge"><title>Node28&#45;&gt;Node22</title>
<path style="fill:none;stroke:midnightblue;" d="M528,-112C486,-103 423,-89 358,-76"/>
<polygon style="fill:midnightblue;stroke:midnightblue;" points="358.492,-72.5292 348,-74 357.119,-79.3933 358.492,-72.5292"/>
</g>
<!-- Node29 -->
<g id="node95" class="node"><title>Node29</title>
<polygon style="fill:white;stroke:#bfbfbf;" points="740,-56 740,-76 769,-76 769,-56 740,-56"/>
<text text-anchor="middle" x="754" y="-63" style="font-family:Arial;font-size:10.00;">list</text>
</g>
<!-- Node28&#45;&gt;Node29 -->
<g id="edge132" class="edge"><title>Node28&#45;&gt;Node29</title>
<path style="fill:none;stroke:midnightblue;" d="M614,-112C643,-104 685,-92 731,-75"/>
<polygon style="fill:midnightblue;stroke:midnightblue;" points="731.62,-78.4827 740,-72 729.406,-71.842 731.62,-78.4827"/>
</g>
<!-- Node30 -->
<g id="node99" class="node"><title>Node30</title>
<polygon style="fill:white;stroke:#bfbfbf;" points="500,-56 500,-76 577,-76 577,-56 500,-56"/>
<text text-anchor="middle" x="538" y="-63" style="font-family:Arial;font-size:10.00;">boost/any.hpp</text>
</g>
<!-- Node28&#45;&gt;Node30 -->
<g id="edge138" class="edge"><title>Node28&#45;&gt;Node30</title>
<path style="fill:none;stroke:midnightblue;" d="M569,-112C564,-104 557,-94 551,-85"/>
<polygon style="fill:midnightblue;stroke:midnightblue;" points="553.459,-82.3791 545,-76 547.635,-86.262 553.459,-82.3791"/>
</g>
<!-- Node31 -->
<g id="node101" class="node"><title>Node31</title>
<polygon style="fill:white;stroke:#bfbfbf;" points="594,-56 594,-76 723,-76 723,-56 594,-56"/>
<text text-anchor="middle" x="658" y="-63" style="font-family:Arial;font-size:10.00;">boost/unordered_map.hpp</text>
</g>
<!-- Node28&#45;&gt;Node31 -->
<g id="edge140" class="edge"><title>Node28&#45;&gt;Node31</title>
<path style="fill:none;stroke:midnightblue;" d="M591,-112C603,-104 620,-91 635,-82"/>
<polygon style="fill:midnightblue;stroke:midnightblue;" points="637.1,-84.8 643,-76 632.9,-79.2 637.1,-84.8"/>
</g>
<!-- Node32&#45;&gt;Node12 -->
<g id="edge154" class="edge"><title>Node32&#45;&gt;Node12</title>
<path style="fill:none;stroke:midnightblue;" d="M1104,-224C1075,-215 1032,-201 1001,-191"/>
<polygon style="fill:midnightblue;stroke:midnightblue;" points="1001.58,-187.521 991,-188 999.573,-194.226 1001.58,-187.521"/>
</g>
<!-- Node32&#45;&gt;Node13 -->
<g id="edge150" class="edge"><title>Node32&#45;&gt;Node13</title>
<path style="fill:none;stroke:midnightblue;" d="M1125,-224C1104,-204 1059,-163 1032,-139"/>
<polygon style="fill:midnightblue;stroke:midnightblue;" points="1034.55,-136.596 1025,-132 1029.6,-141.546 1034.55,-136.596"/>
</g>
<!-- Node32&#45;&gt;Node17 -->
<g id="edge158" class="edge"><title>Node32&#45;&gt;Node17</title>
<path style="fill:none;stroke:midnightblue;" d="M1161,-224C1178,-216 1201,-204 1217,-188 1246,-158 1264,-112 1273,-86"/>
<polygon style="fill:midnightblue;stroke:midnightblue;" points="1276.48,-86.584 1276,-76 1269.77,-84.5725 1276.48,-86.584"/>
</g>
<!-- Node32&#45;&gt;Node24 -->
<g id="edge152" class="edge"><title>Node32&#45;&gt;Node24</title>
<path style="fill:none;stroke:midnightblue;" d="M1140,-224C1142,-217 1146,-207 1149,-198"/>
<polygon style="fill:midnightblue;stroke:midnightblue;" points="1152.48,-198.584 1152,-188 1145.77,-196.573 1152.48,-198.584"/>
</g>
<!-- Node32&#45;&gt;Node27 -->
<g id="edge156" class="edge"><title>Node32&#45;&gt;Node27</title>
<path style="fill:none;stroke:midnightblue;" d="M1073,-224C1011,-215 919,-200 854,-190"/>
<polygon style="fill:midnightblue;stroke:midnightblue;" points="854.492,-186.529 844,-188 853.119,-193.393 854.492,-186.529"/>
</g>
<!-- Node33&#45;&gt;Node10 -->
<g id="edge176" class="edge"><title>Node33&#45;&gt;Node10</title>
<path style="fill:none;stroke:midnightblue;" d="M1220,-344C1356,-338 1613,-317 1658,-244 1694,-184 1615,-113 1574,-82"/>
<polygon style="fill:midnightblue;stroke:midnightblue;" points="1576.1,-79.2 1566,-76 1571.9,-84.8 1576.1,-79.2"/>
</g>
<!-- Node33&#45;&gt;Node12 -->
<g id="edge180" class="edge"><title>Node33&#45;&gt;Node12</title>
<path style="fill:none;stroke:midnightblue;" d="M1116,-336C1086,-320 1028,-286 992,-244 980,-230 971,-212 966,-198"/>
<polygon style="fill:midnightblue;stroke:midnightblue;" points="968.964,-195.985 962,-188 962.464,-198.585 968.964,-195.985"/>
</g>
<!-- Node33&#45;&gt;Node25 -->
<g id="edge182" class="edge"><title>Node33&#45;&gt;Node25</title>
<path style="fill:none;stroke:midnightblue;" d="M1136,-336C1136,-329 1136,-319 1136,-310"/>
<polygon style="fill:midnightblue;stroke:midnightblue;" points="1139.5,-310 1136,-300 1132.5,-310 1139.5,-310"/>
</g>
<!-- Node34 -->
<g id="node123" class="node"><title>Node34</title>
<polygon style="fill:white;stroke:#bfbfbf;" points="1649,-280 1649,-300 1688,-300 1688,-280 1649,-280"/>
<text text-anchor="middle" x="1668" y="-287" style="font-family:Arial;font-size:10.00;">utility</text>
</g>
<!-- Node33&#45;&gt;Node34 -->
<g id="edge178" class="edge"><title>Node33&#45;&gt;Node34</title>
<path style="fill:none;stroke:midnightblue;" d="M1220,-343C1320,-339 1491,-328 1635,-300 1637,-300 1638,-299 1639,-299"/>
<polygon style="fill:midnightblue;stroke:midnightblue;" points="1640.43,-302.226 1649,-296 1638.42,-295.521 1640.43,-302.226"/>
</g>
</g>
</svg>
