<?xml version="1.0" encoding="UTF-8" standalone="no"?>
<!DOCTYPE svg PUBLIC "-//W3C//DTD SVG 1.0//EN"
 "http://www.w3.org/TR/2001/REC-SVG-20010904/DTD/svg10.dtd" [
 <!ATTLIST svg xmlns:xlink CDATA #FIXED "http://www.w3.org/1999/xlink">
]>
<!-- Generated by Graphviz version 2.20.2 (Tue Mar &#160;2 19:03:41 UTC 2010)
     For user: (jenkins)  -->
<!-- Title: G Pages: 1 -->
<svg width="1050pt" height="140pt"
 viewBox="0.00 0.00 1050.00 140.00" xmlns="http://www.w3.org/2000/svg" xmlns:xlink="http://www.w3.org/1999/xlink">
<g id="graph0" class="graph" transform="scale(1 1) rotate(0) translate(4 136)">
<title>G</title>
<polygon style="fill:white;stroke:white;" points="-4,4 -4,-136 1046,-136 1046,4 -4,4"/>
<!-- Node1 -->
<g id="node1" class="node"><title>Node1</title>
<polygon style="fill:#bfbfbf;stroke:black;" points="276,-112 276,-132 373,-132 373,-112 276,-112"/>
<text text-anchor="middle" x="324" y="-119" style="font-family:Arial;font-size:10.00;">ltr/measures/dcg.h</text>
</g>
<!-- Node2 -->
<g id="node3" class="node"><title>Node2</title>
<polygon style="fill:white;stroke:#bfbfbf;" points="0,-56 0,-76 59,-76 59,-56 0,-56"/>
<text text-anchor="middle" x="29" y="-63" style="font-family:Arial;font-size:10.00;">stdexcept</text>
</g>
<!-- Node1&#45;&gt;Node2 -->
<g id="edge2" class="edge"><title>Node1&#45;&gt;Node2</title>
<path style="fill:none;stroke:midnightblue;" d="M276,-115C226,-106 146,-93 69,-76"/>
<polygon style="fill:midnightblue;stroke:midnightblue;" points="69.4922,-72.5292 59,-74 68.1194,-79.3933 69.4922,-72.5292"/>
</g>
<!-- Node3 -->
<g id="node5" class="node"><title>Node3</title>
<polygon style="fill:white;stroke:#bfbfbf;" points="76,-56 76,-76 132,-76 132,-56 76,-56"/>
<text text-anchor="middle" x="104" y="-63" style="font-family:Arial;font-size:10.00;">algorithm</text>
</g>
<!-- Node1&#45;&gt;Node3 -->
<g id="edge4" class="edge"><title>Node1&#45;&gt;Node3</title>
<path style="fill:none;stroke:midnightblue;" d="M283,-112C248,-104 196,-91 142,-76"/>
<polygon style="fill:midnightblue;stroke:midnightblue;" points="142.584,-72.5212 132,-73 140.573,-79.2259 142.584,-72.5212"/>
</g>
<!-- Node4 -->
<g id="node7" class="node"><title>Node4</title>
<polygon style="fill:white;stroke:#bfbfbf;" points="150,-56 150,-76 201,-76 201,-56 150,-56"/>
<text text-anchor="middle" x="175" y="-63" style="font-family:Arial;font-size:10.00;">sstream</text>
</g>
<!-- Node1&#45;&gt;Node4 -->
<g id="edge6" class="edge"><title>Node1&#45;&gt;Node4</title>
<path style="fill:none;stroke:midnightblue;" d="M297,-112C273,-103 237,-90 211,-80"/>
<polygon style="fill:midnightblue;stroke:midnightblue;" points="211.585,-76.4643 201,-76 208.985,-82.9636 211.585,-76.4643"/>
</g>
<!-- Node5 -->
<g id="node9" class="node"><title>Node5</title>
<polygon style="fill:white;stroke:#bfbfbf;" points="218,-56 218,-76 258,-76 258,-56 218,-56"/>
<text text-anchor="middle" x="238" y="-63" style="font-family:Arial;font-size:10.00;">string</text>
</g>
<!-- Node1&#45;&gt;Node5 -->
<g id="edge8" class="edge"><title>Node1&#45;&gt;Node5</title>
<path style="fill:none;stroke:midnightblue;" d="M309,-112C296,-104 277,-91 262,-82"/>
<polygon style="fill:midnightblue;stroke:midnightblue;" points="264.1,-79.2 254,-76 259.9,-84.8 264.1,-79.2"/>
</g>
<!-- Node6 -->
<g id="node11" class="node"><title>Node6</title>
<polygon style="fill:white;stroke:#bfbfbf;" points="251,-0 251,-20 293,-20 293,-0 251,-0"/>
<text text-anchor="middle" x="272" y="-7" style="font-family:Arial;font-size:10.00;">vector</text>
</g>
<!-- Node1&#45;&gt;Node6 -->
<g id="edge10" class="edge"><title>Node1&#45;&gt;Node6</title>
<path style="fill:none;stroke:midnightblue;" d="M319,-112C310,-93 292,-54 281,-29"/>
<polygon style="fill:midnightblue;stroke:midnightblue;" points="284.26,-27.7166 277,-20 277.863,-30.5596 284.26,-27.7166"/>
</g>
<!-- Node7 -->
<g id="node13" class="node"><title>Node7</title>
<polygon style="fill:white;stroke:#bfbfbf;" points="538,-56 538,-76 595,-76 595,-56 538,-56"/>
<text text-anchor="middle" x="566" y="-63" style="font-family:Arial;font-size:10.00;">functional</text>
</g>
<!-- Node1&#45;&gt;Node7 -->
<g id="edge12" class="edge"><title>Node1&#45;&gt;Node7</title>
<path style="fill:none;stroke:midnightblue;" d="M371,-112C410,-103 468,-90 528,-76"/>
<polygon style="fill:midnightblue;stroke:midnightblue;" points="529.427,-79.2259 538,-73 527.416,-72.5212 529.427,-79.2259"/>
</g>
<!-- Node8 -->
<g id="node15" class="node"><title>Node8</title>
<polygon style="fill:white;stroke:#bfbfbf;" points="311,-0 311,-20 413,-20 413,-0 311,-0"/>
<text text-anchor="middle" x="362" y="-7" style="font-family:Arial;font-size:10.00;">ltr/data/object_list.h</text>
</g>
<!-- Node1&#45;&gt;Node8 -->
<g id="edge14" class="edge"><title>Node1&#45;&gt;Node8</title>
<path style="fill:none;stroke:midnightblue;" d="M326,-112C329,-99 336,-75 343,-56 346,-47 350,-37 353,-29"/>
<polygon style="fill:midnightblue;stroke:midnightblue;" points="356.137,-30.5596 357,-20 349.74,-27.7166 356.137,-30.5596"/>
</g>
<!-- Node9 -->
<g id="node17" class="node"><title>Node9</title>
<polygon style="fill:white;stroke:#bfbfbf;" points="612,-56 612,-76 720,-76 720,-56 612,-56"/>
<text text-anchor="middle" x="666" y="-63" style="font-family:Arial;font-size:10.00;">ltr/interfaces/aliaser.h</text>
</g>
<!-- Node1&#45;&gt;Node9 -->
<g id="edge16" class="edge"><title>Node1&#45;&gt;Node9</title>
<path style="fill:none;stroke:midnightblue;" d="M373,-114C434,-104 535,-87 602,-77"/>
<polygon style="fill:midnightblue;stroke:midnightblue;" points="602.881,-80.3933 612,-75 601.508,-73.5292 602.881,-80.3933"/>
</g>
<!-- Node10 -->
<g id="node19" class="node"><title>Node10</title>
<polygon style="fill:white;stroke:#bfbfbf;" points="738,-56 738,-76 857,-76 857,-56 738,-56"/>
<text text-anchor="middle" x="797" y="-63" style="font-family:Arial;font-size:10.00;">ltr/measures/measure.h</text>
</g>
<!-- Node1&#45;&gt;Node10 -->
<g id="edge18" class="edge"><title>Node1&#45;&gt;Node10</title>
<path style="fill:none;stroke:midnightblue;" d="M373,-117C447,-109 594,-93 728,-76"/>
<polygon style="fill:midnightblue;stroke:midnightblue;" points="728.398,-79.4778 738,-75 727.701,-72.5125 728.398,-79.4778"/>
</g>
<!-- Node11 -->
<g id="node21" class="node"><title>Node11</title>
<a xlink:href="measure__utility_8h.html" target="_top" xlink:title="ltr/measures/utils/measure_utility.h">
<polygon style="fill:white;stroke:black;" points="352,-56 352,-76 520,-76 520,-56 352,-56"/>
<text text-anchor="middle" x="436" y="-63" style="font-family:Arial;font-size:10.00;">ltr/measures/utils/measure_utility.h</text>
</a>
</g>
<!-- Node1&#45;&gt;Node11 -->
<g id="edge20" class="edge"><title>Node1&#45;&gt;Node11</title>
<path style="fill:none;stroke:midnightblue;" d="M344,-112C361,-103 387,-90 407,-80"/>
<polygon style="fill:midnightblue;stroke:midnightblue;" points="408.283,-83.2598 416,-76 405.44,-76.8631 408.283,-83.2598"/>
</g>
<!-- Node14 -->
<g id="node29" class="node"><title>Node14</title>
<polygon style="fill:white;stroke:#bfbfbf;" points="874,-56 874,-76 1042,-76 1042,-56 874,-56"/>
<text text-anchor="middle" x="958" y="-63" style="font-family:Arial;font-size:10.00;">ltr/measures/utils/measure_utility.h</text>
</g>
<!-- Node1&#45;&gt;Node14 -->
<g id="edge30" class="edge"><title>Node1&#45;&gt;Node14</title>
<path style="fill:none;stroke:midnightblue;" d="M373,-118C466,-111 675,-94 864,-76"/>
<polygon style="fill:midnightblue;stroke:midnightblue;" points="864.398,-79.4778 874,-75 863.701,-72.5125 864.398,-79.4778"/>
</g>
<!-- Node11&#45;&gt;Node6 -->
<g id="edge22" class="edge"><title>Node11&#45;&gt;Node6</title>
<path style="fill:none;stroke:midnightblue;" d="M407,-56C378,-46 333,-31 303,-20"/>
<polygon style="fill:midnightblue;stroke:midnightblue;" points="303.584,-16.5212 293,-17 301.573,-23.2259 303.584,-16.5212"/>
</g>
<!-- Node11&#45;&gt;Node8 -->
<g id="edge26" class="edge"><title>Node11&#45;&gt;Node8</title>
<path style="fill:none;stroke:midnightblue;" d="M423,-56C412,-48 396,-36 384,-27"/>
<polygon style="fill:midnightblue;stroke:midnightblue;" points="385.831,-23.9511 376,-20 381.221,-29.2191 385.831,-23.9511"/>
</g>
<!-- Node12 -->
<g id="node24" class="node"><title>Node12</title>
<polygon style="fill:white;stroke:#bfbfbf;" points="431,-0 431,-20 470,-20 470,-0 431,-0"/>
<text text-anchor="middle" x="450" y="-7" style="font-family:Arial;font-size:10.00;">utility</text>
</g>
<!-- Node11&#45;&gt;Node12 -->
<g id="edge24" class="edge"><title>Node11&#45;&gt;Node12</title>
<path style="fill:none;stroke:midnightblue;" d="M439,-56C441,-49 443,-39 446,-30"/>
<polygon style="fill:midnightblue;stroke:midnightblue;" points="449.471,-30.4922 448,-20 442.607,-29.1194 449.471,-30.4922"/>
</g>
<!-- Node13 -->
<g id="node27" class="node"><title>Node13</title>
<polygon style="fill:white;stroke:#bfbfbf;" points="487,-0 487,-20 582,-20 582,-0 487,-0"/>
<text text-anchor="middle" x="534" y="-7" style="font-family:Arial;font-size:10.00;">ltr/data/data_set.h</text>
</g>
<!-- Node11&#45;&gt;Node13 -->
<g id="edge28" class="edge"><title>Node11&#45;&gt;Node13</title>
<path style="fill:none;stroke:midnightblue;" d="M454,-56C469,-48 491,-35 507,-25"/>
<polygon style="fill:midnightblue;stroke:midnightblue;" points="508.958,-27.916 516,-20 505.559,-21.7969 508.958,-27.916"/>
</g>
</g>
</svg>
