<?xml version="1.0" encoding="UTF-8" standalone="no"?>
<!DOCTYPE svg PUBLIC "-//W3C//DTD SVG 1.0//EN"
 "http://www.w3.org/TR/2001/REC-SVG-20010904/DTD/svg10.dtd" [
 <!ATTLIST svg xmlns:xlink CDATA #FIXED "http://www.w3.org/1999/xlink">
]>
<!-- Generated by Graphviz version 2.20.2 (Tue Mar &#160;2 19:03:41 UTC 2010)
     For user: (jenkins)  -->
<!-- Title: G Pages: 1 -->
<svg width="548pt" height="84pt"
 viewBox="0.00 0.00 548.00 84.00" xmlns="http://www.w3.org/2000/svg" xmlns:xlink="http://www.w3.org/1999/xlink">
<g id="graph0" class="graph" transform="scale(1 1) rotate(0) translate(4 80)">
<title>G</title>
<polygon style="fill:white;stroke:white;" points="-4,4 -4,-80 544,-80 544,4 -4,4"/>
<!-- Node1 -->
<g id="node1" class="node"><title>Node1</title>
<polygon style="fill:#bfbfbf;stroke:black;" points="92,-56 92,-76 326,-76 326,-56 92,-56"/>
<text text-anchor="middle" x="209" y="-63" style="font-family:Arial;font-size:10.00;">ltr/learners/decision_tree/vertex/decision_vertex.cc</text>
</g>
<!-- Node2 -->
<g id="node3" class="node"><title>Node2</title>
<polygon style="fill:white;stroke:#bfbfbf;" points="0,-0 0,-20 40,-20 40,-0 0,-0"/>
<text text-anchor="middle" x="20" y="-7" style="font-family:Arial;font-size:10.00;">string</text>
</g>
<!-- Node1&#45;&gt;Node2 -->
<g id="edge2" class="edge"><title>Node1&#45;&gt;Node2</title>
<path style="fill:none;stroke:midnightblue;" d="M172,-56C142,-48 97,-35 50,-20"/>
<polygon style="fill:midnightblue;stroke:midnightblue;" points="50.584,-16.5212 40,-17 48.5725,-23.2259 50.584,-16.5212"/>
</g>
<!-- Node3 -->
<g id="node5" class="node"><title>Node3</title>
<polygon style="fill:white;stroke:#bfbfbf;" points="58,-0 58,-20 172,-20 172,-0 58,-0"/>
<text text-anchor="middle" x="115" y="-7" style="font-family:Arial;font-size:10.00;">boost/lexical_cast.hpp</text>
</g>
<!-- Node1&#45;&gt;Node3 -->
<g id="edge4" class="edge"><title>Node1&#45;&gt;Node3</title>
<path style="fill:none;stroke:midnightblue;" d="M192,-56C178,-48 157,-35 141,-25"/>
<polygon style="fill:midnightblue;stroke:midnightblue;" points="142.441,-21.7969 132,-20 139.042,-27.916 142.441,-21.7969"/>
</g>
<!-- Node4 -->
<g id="node7" class="node"><title>Node4</title>
<polygon style="fill:white;stroke:#bfbfbf;" points="190,-0 190,-20 419,-20 419,-0 190,-0"/>
<text text-anchor="middle" x="304" y="-7" style="font-family:Arial;font-size:10.00;">ltr/learners/decision_tree/vertex/decision_vertex.h</text>
</g>
<!-- Node1&#45;&gt;Node4 -->
<g id="edge6" class="edge"><title>Node1&#45;&gt;Node4</title>
<path style="fill:none;stroke:midnightblue;" d="M226,-56C240,-48 261,-35 278,-25"/>
<polygon style="fill:midnightblue;stroke:midnightblue;" points="279.958,-27.916 287,-20 276.559,-21.7969 279.958,-27.916"/>
</g>
<!-- Node5 -->
<g id="node9" class="node"><title>Node5</title>
<polygon style="fill:white;stroke:#bfbfbf;" points="436,-0 436,-20 540,-20 540,-0 436,-0"/>
<text text-anchor="middle" x="488" y="-7" style="font-family:Arial;font-size:10.00;">ltr/utility/numerical.h</text>
</g>
<!-- Node1&#45;&gt;Node5 -->
<g id="edge8" class="edge"><title>Node1&#45;&gt;Node5</title>
<path style="fill:none;stroke:midnightblue;" d="M259,-56C306,-47 377,-32 428,-22"/>
<polygon style="fill:midnightblue;stroke:midnightblue;" points="428.881,-25.3933 438,-20 427.508,-18.5292 428.881,-25.3933"/>
</g>
</g>
</svg>
