<?xml version="1.0" encoding="UTF-8" standalone="no"?>
<!DOCTYPE svg PUBLIC "-//W3C//DTD SVG 1.0//EN"
 "http://www.w3.org/TR/2001/REC-SVG-20010904/DTD/svg10.dtd" [
 <!ATTLIST svg xmlns:xlink CDATA #FIXED "http://www.w3.org/1999/xlink">
]>
<!-- Generated by Graphviz version 2.20.2 (Tue Mar &#160;2 19:03:41 UTC 2010)
     For user: (jenkins)  -->
<!-- Title: G Pages: 1 -->
<svg width="1551pt" height="196pt"
 viewBox="0.00 0.00 1551.00 196.00" xmlns="http://www.w3.org/2000/svg" xmlns:xlink="http://www.w3.org/1999/xlink">
<g id="graph0" class="graph" transform="scale(1 1) rotate(0) translate(4 192)">
<title>G</title>
<polygon style="fill:white;stroke:white;" points="-4,4 -4,-192 1547,-192 1547,4 -4,4"/>
<!-- Node1 -->
<g id="node1" class="node"><title>Node1</title>
<polygon style="fill:#bfbfbf;stroke:black;" points="1067,-168 1067,-188 1227,-188 1227,-168 1067,-168"/>
<text text-anchor="middle" x="1147" y="-175" style="font-family:Arial;font-size:10.00;">ltr/scorers/decision_tree_scorer.h</text>
</g>
<!-- Node2 -->
<g id="node3" class="node"><title>Node2</title>
<polygon style="fill:white;stroke:#bfbfbf;" points="490,-0 490,-20 530,-20 530,-0 490,-0"/>
<text text-anchor="middle" x="510" y="-7" style="font-family:Arial;font-size:10.00;">string</text>
</g>
<!-- Node1&#45;&gt;Node2 -->
<g id="edge2" class="edge"><title>Node1&#45;&gt;Node2</title>
<path style="fill:none;stroke:midnightblue;" d="M1067,-177C819,-173 77,-154 5,-76 0,-69 0,-62 5,-56 37,-20 376,-13 480,-10"/>
<polygon style="fill:midnightblue;stroke:midnightblue;" points="480,-13.5001 490,-10 480,-6.5001 480,-13.5001"/>
</g>
<!-- Node3 -->
<g id="node5" class="node"><title>Node3</title>
<polygon style="fill:white;stroke:#bfbfbf;" points="1237,-112 1237,-132 1334,-132 1334,-112 1237,-112"/>
<text text-anchor="middle" x="1285" y="-119" style="font-family:Arial;font-size:10.00;">ltr/scorers/scorer.h</text>
</g>
<!-- Node1&#45;&gt;Node3 -->
<g id="edge4" class="edge"><title>Node1&#45;&gt;Node3</title>
<path style="fill:none;stroke:midnightblue;" d="M1172,-168C1194,-159 1226,-146 1251,-136"/>
<polygon style="fill:midnightblue;stroke:midnightblue;" points="1252.28,-139.26 1260,-132 1249.44,-132.863 1252.28,-139.26"/>
</g>
<!-- Node4 -->
<g id="node7" class="node"><title>Node4</title>
<a xlink:href="vertex_8h.html" target="_top" xlink:title="ltr/learners/decision_tree/vertex/vertex.h">
<polygon style="fill:white;stroke:black;" points="618,-112 618,-132 806,-132 806,-112 618,-112"/>
<text text-anchor="middle" x="712" y="-119" style="font-family:Arial;font-size:10.00;">ltr/learners/decision_tree/vertex/vertex.h</text>
</a>
</g>
<!-- Node1&#45;&gt;Node4 -->
<g id="edge6" class="edge"><title>Node1&#45;&gt;Node4</title>
<path style="fill:none;stroke:midnightblue;" d="M1069,-168C993,-158 878,-143 799,-133"/>
<polygon style="fill:midnightblue;stroke:midnightblue;" points="799.299,-129.512 789,-132 798.602,-136.478 799.299,-129.512"/>
</g>
<!-- Node15 -->
<g id="node32" class="node"><title>Node15</title>
<a xlink:href="decision__tree_8h.html" target="_top" xlink:title="ltr/learners/decision_tree/decision_tree.h">
<polygon style="fill:white;stroke:black;" points="989,-112 989,-132 1181,-132 1181,-112 989,-112"/>
<text text-anchor="middle" x="1085" y="-119" style="font-family:Arial;font-size:10.00;">ltr/learners/decision_tree/decision_tree.h</text>
</a>
</g>
<!-- Node1&#45;&gt;Node15 -->
<g id="edge34" class="edge"><title>Node1&#45;&gt;Node15</title>
<path style="fill:none;stroke:midnightblue;" d="M1136,-168C1127,-160 1114,-149 1104,-139"/>
<polygon style="fill:midnightblue;stroke:midnightblue;" points="1105.83,-135.951 1096,-132 1101.22,-141.219 1105.83,-135.951"/>
</g>
<!-- Node19 -->
<g id="node44" class="node"><title>Node19</title>
<polygon style="fill:white;stroke:#bfbfbf;" points="1342,-56 1342,-76 1530,-76 1530,-56 1342,-56"/>
<text text-anchor="middle" x="1436" y="-63" style="font-family:Arial;font-size:10.00;">ltr/learners/decision_tree/vertex/vertex.h</text>
</g>
<!-- Node1&#45;&gt;Node19 -->
<g id="edge54" class="edge"><title>Node1&#45;&gt;Node19</title>
<path style="fill:none;stroke:midnightblue;" d="M1156,-168C1170,-153 1198,-126 1228,-112 1262,-96 1301,-85 1337,-78"/>
<polygon style="fill:midnightblue;stroke:midnightblue;" points="1337.88,-81.3933 1347,-76 1336.51,-74.5292 1337.88,-81.3933"/>
</g>
<!-- Node20 -->
<g id="node48" class="node"><title>Node20</title>
<polygon style="fill:white;stroke:#bfbfbf;" points="1351,-112 1351,-132 1543,-132 1543,-112 1351,-112"/>
<text text-anchor="middle" x="1447" y="-119" style="font-family:Arial;font-size:10.00;">ltr/learners/decision_tree/decision_tree.h</text>
</g>
<!-- Node1&#45;&gt;Node20 -->
<g id="edge56" class="edge"><title>Node1&#45;&gt;Node20</title>
<path style="fill:none;stroke:midnightblue;" d="M1201,-168C1252,-159 1329,-144 1384,-134"/>
<polygon style="fill:midnightblue;stroke:midnightblue;" points="1384.88,-137.393 1394,-132 1383.51,-130.529 1384.88,-137.393"/>
</g>
<!-- Node4&#45;&gt;Node2 -->
<g id="edge8" class="edge"><title>Node4&#45;&gt;Node2</title>
<path style="fill:none;stroke:midnightblue;" d="M644,-112C599,-104 546,-92 529,-76 517,-64 513,-45 511,-30"/>
<polygon style="fill:midnightblue;stroke:midnightblue;" points="514.478,-29.6021 510,-20 507.512,-30.2987 514.478,-29.6021"/>
</g>
<!-- Node5 -->
<g id="node10" class="node"><title>Node5</title>
<polygon style="fill:white;stroke:#bfbfbf;" points="976,-56 976,-76 1018,-76 1018,-56 976,-56"/>
<text text-anchor="middle" x="997" y="-63" style="font-family:Arial;font-size:10.00;">vector</text>
</g>
<!-- Node4&#45;&gt;Node5 -->
<g id="edge10" class="edge"><title>Node4&#45;&gt;Node5</title>
<path style="fill:none;stroke:midnightblue;" d="M782,-112C831,-104 898,-93 966,-76"/>
<polygon style="fill:midnightblue;stroke:midnightblue;" points="967.427,-79.2259 976,-73 965.416,-72.5212 967.427,-79.2259"/>
</g>
<!-- Node6 -->
<g id="node12" class="node"><title>Node6</title>
<polygon style="fill:white;stroke:#bfbfbf;" points="14,-56 14,-76 70,-76 70,-56 14,-56"/>
<text text-anchor="middle" x="42" y="-63" style="font-family:Arial;font-size:10.00;">algorithm</text>
</g>
<!-- Node4&#45;&gt;Node6 -->
<g id="edge12" class="edge"><title>Node4&#45;&gt;Node6</title>
<path style="fill:none;stroke:midnightblue;" d="M618,-117C472,-109 198,-94 80,-76"/>
<polygon style="fill:midnightblue;stroke:midnightblue;" points="80.4922,-72.5292 70,-74 79.1194,-79.3933 80.4922,-72.5292"/>
</g>
<!-- Node7 -->
<g id="node14" class="node"><title>Node7</title>
<polygon style="fill:white;stroke:#bfbfbf;" points="808,-56 808,-76 867,-76 867,-56 808,-56"/>
<text text-anchor="middle" x="837" y="-63" style="font-family:Arial;font-size:10.00;">stdexcept</text>
</g>
<!-- Node4&#45;&gt;Node7 -->
<g id="edge14" class="edge"><title>Node4&#45;&gt;Node7</title>
<path style="fill:none;stroke:midnightblue;" d="M734,-112C754,-103 783,-90 805,-80"/>
<polygon style="fill:midnightblue;stroke:midnightblue;" points="806.283,-83.2598 814,-76 803.44,-76.8631 806.283,-83.2598"/>
</g>
<!-- Node8 -->
<g id="node16" class="node"><title>Node8</title>
<polygon style="fill:white;stroke:#bfbfbf;" points="884,-56 884,-76 958,-76 958,-56 884,-56"/>
<text text-anchor="middle" x="921" y="-63" style="font-family:Arial;font-size:10.00;">logog/logog.h</text>
</g>
<!-- Node4&#45;&gt;Node8 -->
<g id="edge16" class="edge"><title>Node4&#45;&gt;Node8</title>
<path style="fill:none;stroke:midnightblue;" d="M749,-112C784,-103 836,-89 874,-79"/>
<polygon style="fill:midnightblue;stroke:midnightblue;" points="875.427,-82.2259 884,-76 873.416,-75.5212 875.427,-82.2259"/>
</g>
<!-- Node9 -->
<g id="node18" class="node"><title>Node9</title>
<polygon style="fill:white;stroke:#bfbfbf;" points="88,-56 88,-76 251,-76 251,-56 88,-56"/>
<text text-anchor="middle" x="169" y="-63" style="font-family:Arial;font-size:10.00;">ltr/interfaces/serializable_functor.h</text>
</g>
<!-- Node4&#45;&gt;Node9 -->
<g id="edge18" class="edge"><title>Node4&#45;&gt;Node9</title>
<path style="fill:none;stroke:midnightblue;" d="M618,-113C528,-103 390,-90 261,-76"/>
<polygon style="fill:midnightblue;stroke:midnightblue;" points="261.299,-72.5125 251,-75 260.602,-79.4778 261.299,-72.5125"/>
</g>
<!-- Node10 -->
<g id="node20" class="node"><title>Node10</title>
<a xlink:href="condition_8h.html" target="_top" xlink:title="ltr/learners/decision_tree/condition/condition.h">
<polygon style="fill:white;stroke:black;" points="538,-56 538,-76 753,-76 753,-56 538,-56"/>
<text text-anchor="middle" x="645" y="-63" style="font-family:Arial;font-size:10.00;">ltr/learners/decision_tree/condition/condition.h</text>
</a>
</g>
<!-- Node4&#45;&gt;Node10 -->
<g id="edge20" class="edge"><title>Node4&#45;&gt;Node10</title>
<path style="fill:none;stroke:midnightblue;" d="M700,-112C690,-104 677,-92 665,-83"/>
<polygon style="fill:midnightblue;stroke:midnightblue;" points="666.831,-79.9511 657,-76 662.221,-85.2191 666.831,-79.9511"/>
</g>
<!-- Node13 -->
<g id="node27" class="node"><title>Node13</title>
<polygon style="fill:white;stroke:#bfbfbf;" points="796,-0 796,-20 903,-20 903,-0 796,-0"/>
<text text-anchor="middle" x="849" y="-7" style="font-family:Arial;font-size:10.00;">ltr/utility/shared_ptr.h</text>
</g>
<!-- Node4&#45;&gt;Node13 -->
<g id="edge30" class="edge"><title>Node4&#45;&gt;Node13</title>
<path style="fill:none;stroke:midnightblue;" d="M725,-112C749,-92 800,-50 828,-27"/>
<polygon style="fill:midnightblue;stroke:midnightblue;" points="830.779,-29.2191 836,-20 826.169,-23.9511 830.779,-29.2191"/>
</g>
<!-- Node14 -->
<g id="node30" class="node"><title>Node14</title>
<polygon style="fill:white;stroke:#bfbfbf;" points="268,-56 268,-76 483,-76 483,-56 268,-56"/>
<text text-anchor="middle" x="375" y="-63" style="font-family:Arial;font-size:10.00;">ltr/learners/decision_tree/condition/condition.h</text>
</g>
<!-- Node4&#45;&gt;Node14 -->
<g id="edge32" class="edge"><title>Node4&#45;&gt;Node14</title>
<path style="fill:none;stroke:midnightblue;" d="M652,-112C594,-103 506,-88 445,-78"/>
<polygon style="fill:midnightblue;stroke:midnightblue;" points="445.492,-74.5292 435,-76 444.119,-81.3933 445.492,-74.5292"/>
</g>
<!-- Node10&#45;&gt;Node2 -->
<g id="edge22" class="edge"><title>Node10&#45;&gt;Node2</title>
<path style="fill:none;stroke:midnightblue;" d="M621,-56C598,-46 564,-33 539,-22"/>
<polygon style="fill:midnightblue;stroke:midnightblue;" points="540.56,-18.8631 530,-18 537.717,-25.2598 540.56,-18.8631"/>
</g>
<!-- Node11 -->
<g id="node23" class="node"><title>Node11</title>
<polygon style="fill:white;stroke:#bfbfbf;" points="548,-0 548,-20 632,-20 632,-0 548,-0"/>
<text text-anchor="middle" x="590" y="-7" style="font-family:Arial;font-size:10.00;">ltr/data/object.h</text>
</g>
<!-- Node10&#45;&gt;Node11 -->
<g id="edge24" class="edge"><title>Node10&#45;&gt;Node11</title>
<path style="fill:none;stroke:midnightblue;" d="M635,-56C627,-48 616,-37 607,-27"/>
<polygon style="fill:midnightblue;stroke:midnightblue;" points="609.546,-24.5962 600,-20 604.596,-29.546 609.546,-24.5962"/>
</g>
<!-- Node12 -->
<g id="node25" class="node"><title>Node12</title>
<polygon style="fill:white;stroke:#bfbfbf;" points="650,-0 650,-20 779,-20 779,-0 650,-0"/>
<text text-anchor="middle" x="714" y="-7" style="font-family:Arial;font-size:10.00;">ltr/interfaces/serializable.h</text>
</g>
<!-- Node10&#45;&gt;Node12 -->
<g id="edge26" class="edge"><title>Node10&#45;&gt;Node12</title>
<path style="fill:none;stroke:midnightblue;" d="M657,-56C667,-48 681,-37 693,-27"/>
<polygon style="fill:midnightblue;stroke:midnightblue;" points="695.779,-29.2191 701,-20 691.169,-23.9511 695.779,-29.2191"/>
</g>
<!-- Node10&#45;&gt;Node13 -->
<g id="edge28" class="edge"><title>Node10&#45;&gt;Node13</title>
<path style="fill:none;stroke:midnightblue;" d="M681,-56C715,-47 765,-33 802,-23"/>
<polygon style="fill:midnightblue;stroke:midnightblue;" points="803.427,-26.2259 812,-20 801.416,-19.5212 803.427,-26.2259"/>
</g>
<!-- Node15&#45;&gt;Node2 -->
<g id="edge44" class="edge"><title>Node15&#45;&gt;Node2</title>
<path style="fill:none;stroke:midnightblue;" d="M1079,-112C1070,-97 1051,-68 1027,-56 932,-8 661,-39 540,-20"/>
<polygon style="fill:midnightblue;stroke:midnightblue;" points="540.492,-16.5292 530,-18 539.119,-23.3933 540.492,-16.5292"/>
</g>
<!-- Node15&#45;&gt;Node5 -->
<g id="edge46" class="edge"><title>Node15&#45;&gt;Node5</title>
<path style="fill:none;stroke:midnightblue;" d="M1069,-112C1056,-104 1037,-91 1021,-81"/>
<polygon style="fill:midnightblue;stroke:midnightblue;" points="1023.34,-78.332 1013,-76 1019.62,-84.268 1023.34,-78.332"/>
</g>
<!-- Node15&#45;&gt;Node7 -->
<g id="edge48" class="edge"><title>Node15&#45;&gt;Node7</title>
<path style="fill:none;stroke:midnightblue;" d="M1037,-112C996,-103 937,-90 877,-76"/>
<polygon style="fill:midnightblue;stroke:midnightblue;" points="877.492,-72.5292 867,-74 876.119,-79.3933 877.492,-72.5292"/>
</g>
<!-- Node15&#45;&gt;Node8 -->
<g id="edge38" class="edge"><title>Node15&#45;&gt;Node8</title>
<path style="fill:none;stroke:midnightblue;" d="M1056,-112C1029,-103 989,-89 960,-79"/>
<polygon style="fill:midnightblue;stroke:midnightblue;" points="960.584,-75.5212 950,-76 958.573,-82.2259 960.584,-75.5212"/>
</g>
<!-- Node15&#45;&gt;Node13 -->
<g id="edge52" class="edge"><title>Node15&#45;&gt;Node13</title>
<path style="fill:none;stroke:midnightblue;" d="M1181,-113C1229,-106 1280,-94 1295,-76 1300,-69 1300,-62 1295,-56 1270,-28 1031,-17 913,-12"/>
<polygon style="fill:midnightblue;stroke:midnightblue;" points="913,-8.5001 903,-12 913,-15.5001 913,-8.5001"/>
</g>
<!-- Node16 -->
<g id="node34" class="node"><title>Node16</title>
<polygon style="fill:white;stroke:#bfbfbf;" points="1074,-56 1074,-76 1174,-76 1174,-56 1074,-56"/>
<text text-anchor="middle" x="1124" y="-63" style="font-family:Arial;font-size:10.00;">boost/weak_ptr.hpp</text>
</g>
<!-- Node15&#45;&gt;Node16 -->
<g id="edge36" class="edge"><title>Node15&#45;&gt;Node16</title>
<path style="fill:none;stroke:midnightblue;" d="M1092,-112C1097,-104 1105,-94 1111,-85"/>
<polygon style="fill:midnightblue;stroke:midnightblue;" points="1114.37,-86.262 1117,-76 1108.54,-82.3791 1114.37,-86.262"/>
</g>
<!-- Node17 -->
<g id="node37" class="node"><title>Node17</title>
<polygon style="fill:white;stroke:#bfbfbf;" points="1192,-56 1192,-76 1227,-76 1227,-56 1192,-56"/>
<text text-anchor="middle" x="1209" y="-63" style="font-family:Arial;font-size:10.00;">map</text>
</g>
<!-- Node15&#45;&gt;Node17 -->
<g id="edge40" class="edge"><title>Node15&#45;&gt;Node17</title>
<path style="fill:none;stroke:midnightblue;" d="M1107,-112C1128,-102 1160,-88 1183,-78"/>
<polygon style="fill:midnightblue;stroke:midnightblue;" points="1184.28,-81.2598 1192,-74 1181.44,-74.8631 1184.28,-81.2598"/>
</g>
<!-- Node18 -->
<g id="node39" class="node"><title>Node18</title>
<polygon style="fill:white;stroke:#bfbfbf;" points="1244,-56 1244,-76 1287,-76 1287,-56 1244,-56"/>
<text text-anchor="middle" x="1265" y="-63" style="font-family:Arial;font-size:10.00;">cmath</text>
</g>
<!-- Node15&#45;&gt;Node18 -->
<g id="edge42" class="edge"><title>Node15&#45;&gt;Node18</title>
<path style="fill:none;stroke:midnightblue;" d="M1118,-112C1147,-104 1189,-91 1234,-76"/>
<polygon style="fill:midnightblue;stroke:midnightblue;" points="1235.43,-79.2259 1244,-73 1233.42,-72.5212 1235.43,-79.2259"/>
</g>
<!-- Node15&#45;&gt;Node19 -->
<g id="edge50" class="edge"><title>Node15&#45;&gt;Node19</title>
<path style="fill:none;stroke:midnightblue;" d="M1148,-112C1209,-103 1300,-88 1364,-78"/>
<polygon style="fill:midnightblue;stroke:midnightblue;" points="1364.88,-81.3933 1374,-76 1363.51,-74.5292 1364.88,-81.3933"/>
</g>
</g>
</svg>
