<?xml version="1.0" encoding="UTF-8" standalone="no"?>
<!DOCTYPE svg PUBLIC "-//W3C//DTD SVG 1.0//EN"
 "http://www.w3.org/TR/2001/REC-SVG-20010904/DTD/svg10.dtd" [
 <!ATTLIST svg xmlns:xlink CDATA #FIXED "http://www.w3.org/1999/xlink">
]>
<!-- Generated by Graphviz version 2.20.2 (Tue Mar &#160;2 19:03:41 UTC 2010)
     For user: (jenkins)  -->
<!-- Title: G Pages: 1 -->
<svg width="1318pt" height="420pt"
 viewBox="0.00 0.00 1318.00 420.00" xmlns="http://www.w3.org/2000/svg" xmlns:xlink="http://www.w3.org/1999/xlink">
<g id="graph0" class="graph" transform="scale(1 1) rotate(0) translate(4 416)">
<title>G</title>
<polygon style="fill:white;stroke:white;" points="-4,4 -4,-416 1314,-416 1314,4 -4,4"/>
<!-- Node1 -->
<g id="node1" class="node"><title>Node1</title>
<polygon style="fill:#bfbfbf;stroke:black;" points="97,-392 97,-412 331,-412 331,-392 97,-392"/>
<text text-anchor="middle" x="214" y="-399" style="font-family:Arial;font-size:10.00;">ltr/learners/decision_tree/vertex/decision_vertex.cc</text>
</g>
<!-- Node2 -->
<g id="node3" class="node"><title>Node2</title>
<polygon style="fill:white;stroke:#bfbfbf;" points="404,-0 404,-20 444,-20 444,-0 404,-0"/>
<text text-anchor="middle" x="424" y="-7" style="font-family:Arial;font-size:10.00;">string</text>
</g>
<!-- Node1&#45;&gt;Node2 -->
<g id="edge2" class="edge"><title>Node1&#45;&gt;Node2</title>
<path style="fill:none;stroke:midnightblue;" d="M140,-392C93,-384 38,-372 20,-356 -2,-334 1,-320 1,-290 1,-290 1,-290 1,-122 1,-40 297,-17 394,-12"/>
<polygon style="fill:midnightblue;stroke:midnightblue;" points="394.398,-15.4778 404,-11 393.701,-8.5125 394.398,-15.4778"/>
</g>
<!-- Node3 -->
<g id="node5" class="node"><title>Node3</title>
<polygon style="fill:white;stroke:#bfbfbf;" points="238,-56 238,-76 352,-76 352,-56 238,-56"/>
<text text-anchor="middle" x="295" y="-63" style="font-family:Arial;font-size:10.00;">boost/lexical_cast.hpp</text>
</g>
<!-- Node1&#45;&gt;Node3 -->
<g id="edge4" class="edge"><title>Node1&#45;&gt;Node3</title>
<path style="fill:none;stroke:midnightblue;" d="M230,-392C242,-383 257,-371 266,-356 283,-330 285,-320 285,-290 285,-290 285,-290 285,-178 285,-145 289,-109 292,-86"/>
<polygon style="fill:midnightblue;stroke:midnightblue;" points="295.488,-86.2987 293,-76 288.522,-85.6021 295.488,-86.2987"/>
</g>
<!-- Node4 -->
<g id="node7" class="node"><title>Node4</title>
<a xlink:href="decision__vertex_8h.html" target="_top" xlink:title="ltr/learners/decision_tree/vertex/decision_vertex.h">
<polygon style="fill:white;stroke:black;" points="29,-336 29,-356 258,-356 258,-336 29,-336"/>
<text text-anchor="middle" x="143" y="-343" style="font-family:Arial;font-size:10.00;">ltr/learners/decision_tree/vertex/decision_vertex.h</text>
</a>
</g>
<!-- Node1&#45;&gt;Node4 -->
<g id="edge6" class="edge"><title>Node1&#45;&gt;Node4</title>
<path style="fill:none;stroke:midnightblue;" d="M201,-392C190,-384 176,-372 164,-363"/>
<polygon style="fill:midnightblue;stroke:midnightblue;" points="165.831,-359.951 156,-356 161.221,-365.219 165.831,-359.951"/>
</g>
<!-- Node23 -->
<g id="node67" class="node"><title>Node23</title>
<a xlink:href="numerical_8h.html" target="_top" xlink:title="ltr/utility/numerical.h">
<polygon style="fill:white;stroke:black;" points="965,-336 965,-356 1069,-356 1069,-336 965,-336"/>
<text text-anchor="middle" x="1017" y="-343" style="font-family:Arial;font-size:10.00;">ltr/utility/numerical.h</text>
</a>
</g>
<!-- Node1&#45;&gt;Node23 -->
<g id="edge88" class="edge"><title>Node1&#45;&gt;Node23</title>
<path style="fill:none;stroke:midnightblue;" d="M331,-394C504,-381 820,-359 955,-351"/>
<polygon style="fill:midnightblue;stroke:midnightblue;" points="955.398,-354.478 965,-350 954.701,-347.512 955.398,-354.478"/>
</g>
<!-- Node4&#45;&gt;Node2 -->
<g id="edge8" class="edge"><title>Node4&#45;&gt;Node2</title>
<path style="fill:none;stroke:midnightblue;" d="M142,-336C139,-316 134,-271 134,-234 134,-234 134,-234 134,-122 134,-84 156,-75 188,-56 223,-35 338,-20 394,-13"/>
<polygon style="fill:midnightblue;stroke:midnightblue;" points="394.398,-16.4778 404,-12 393.701,-9.5125 394.398,-16.4778"/>
</g>
<!-- Node5 -->
<g id="node10" class="node"><title>Node5</title>
<a xlink:href="vertex_8h.html" target="_top" xlink:title="ltr/learners/decision_tree/vertex/vertex.h">
<polygon style="fill:white;stroke:black;" points="790,-280 790,-300 978,-300 978,-280 790,-280"/>
<text text-anchor="middle" x="884" y="-287" style="font-family:Arial;font-size:10.00;">ltr/learners/decision_tree/vertex/vertex.h</text>
</a>
</g>
<!-- Node4&#45;&gt;Node5 -->
<g id="edge10" class="edge"><title>Node4&#45;&gt;Node5</title>
<path style="fill:none;stroke:midnightblue;" d="M258,-337C401,-326 642,-309 780,-298"/>
<polygon style="fill:midnightblue;stroke:midnightblue;" points="780.398,-301.478 790,-297 779.701,-294.512 780.398,-301.478"/>
</g>
<!-- Node5&#45;&gt;Node2 -->
<g id="edge12" class="edge"><title>Node5&#45;&gt;Node2</title>
<path style="fill:none;stroke:midnightblue;" d="M790,-285C596,-273 172,-240 172,-178 172,-178 172,-178 172,-122 172,-85 192,-75 222,-56 251,-37 345,-21 394,-14"/>
<polygon style="fill:midnightblue;stroke:midnightblue;" points="394.398,-17.4778 404,-13 393.701,-10.5125 394.398,-17.4778"/>
</g>
<!-- Node6 -->
<g id="node13" class="node"><title>Node6</title>
<polygon style="fill:white;stroke:#bfbfbf;" points="1198,-56 1198,-76 1240,-76 1240,-56 1198,-56"/>
<text text-anchor="middle" x="1219" y="-63" style="font-family:Arial;font-size:10.00;">vector</text>
</g>
<!-- Node5&#45;&gt;Node6 -->
<g id="edge14" class="edge"><title>Node5&#45;&gt;Node6</title>
<path style="fill:none;stroke:midnightblue;" d="M951,-280C983,-273 1021,-262 1052,-244 1122,-202 1181,-122 1206,-85"/>
<polygon style="fill:midnightblue;stroke:midnightblue;" points="1209.37,-86.262 1212,-76 1203.54,-82.3791 1209.37,-86.262"/>
</g>
<!-- Node7 -->
<g id="node15" class="node"><title>Node7</title>
<polygon style="fill:white;stroke:#bfbfbf;" points="1254,-0 1254,-20 1310,-20 1310,-0 1254,-0"/>
<text text-anchor="middle" x="1282" y="-7" style="font-family:Arial;font-size:10.00;">algorithm</text>
</g>
<!-- Node5&#45;&gt;Node7 -->
<g id="edge16" class="edge"><title>Node5&#45;&gt;Node7</title>
<path style="fill:none;stroke:midnightblue;" d="M939,-280C1048,-260 1277,-212 1277,-178 1277,-178 1277,-178 1277,-122 1277,-89 1279,-53 1280,-30"/>
<polygon style="fill:midnightblue;stroke:midnightblue;" points="1283.49,-30.2987 1281,-20 1276.52,-29.6021 1283.49,-30.2987"/>
</g>
<!-- Node8 -->
<g id="node17" class="node"><title>Node8</title>
<polygon style="fill:white;stroke:#bfbfbf;" points="1122,-56 1122,-76 1181,-76 1181,-56 1122,-56"/>
<text text-anchor="middle" x="1151" y="-63" style="font-family:Arial;font-size:10.00;">stdexcept</text>
</g>
<!-- Node5&#45;&gt;Node8 -->
<g id="edge18" class="edge"><title>Node5&#45;&gt;Node8</title>
<path style="fill:none;stroke:midnightblue;" d="M946,-280C974,-273 1006,-262 1031,-244 1088,-200 1127,-122 1143,-85"/>
<polygon style="fill:midnightblue;stroke:midnightblue;" points="1146.14,-86.5596 1147,-76 1139.74,-83.7166 1146.14,-86.5596"/>
</g>
<!-- Node9 -->
<g id="node19" class="node"><title>Node9</title>
<polygon style="fill:white;stroke:#bfbfbf;" points="606,-56 606,-76 680,-76 680,-56 606,-56"/>
<text text-anchor="middle" x="643" y="-63" style="font-family:Arial;font-size:10.00;">logog/logog.h</text>
</g>
<!-- Node5&#45;&gt;Node9 -->
<g id="edge20" class="edge"><title>Node5&#45;&gt;Node9</title>
<path style="fill:none;stroke:midnightblue;" d="M829,-280C777,-267 702,-241 662,-188 639,-158 639,-112 641,-86"/>
<polygon style="fill:midnightblue;stroke:midnightblue;" points="644.488,-86.2987 642,-76 637.522,-85.6021 644.488,-86.2987"/>
</g>
<!-- Node10 -->
<g id="node21" class="node"><title>Node10</title>
<a xlink:href="serializable__functor_8h.html" target="_top" xlink:title="ltr/interfaces/serializable_functor.h">
<polygon style="fill:white;stroke:black;" points="841,-224 841,-244 1004,-244 1004,-224 841,-224"/>
<text text-anchor="middle" x="922" y="-231" style="font-family:Arial;font-size:10.00;">ltr/interfaces/serializable_functor.h</text>
</a>
</g>
<!-- Node5&#45;&gt;Node10 -->
<g id="edge22" class="edge"><title>Node5&#45;&gt;Node10</title>
<path style="fill:none;stroke:midnightblue;" d="M891,-280C896,-272 903,-262 909,-253"/>
<polygon style="fill:midnightblue;stroke:midnightblue;" points="912.365,-254.262 915,-244 906.541,-250.379 912.365,-254.262"/>
</g>
<!-- Node11 -->
<g id="node23" class="node"><title>Node11</title>
<a xlink:href="shared__ptr_8h.html" target="_top" xlink:title="ltr/utility/shared_ptr.h">
<polygon style="fill:white;stroke:black;" points="998,-56 998,-76 1105,-76 1105,-56 998,-56"/>
<text text-anchor="middle" x="1051" y="-63" style="font-family:Arial;font-size:10.00;">ltr/utility/shared_ptr.h</text>
</a>
</g>
<!-- Node5&#45;&gt;Node11 -->
<g id="edge86" class="edge"><title>Node5&#45;&gt;Node11</title>
<path style="fill:none;stroke:midnightblue;" d="M941,-280C965,-273 992,-262 1012,-244 1051,-207 1048,-185 1059,-132 1061,-116 1059,-99 1057,-86"/>
<polygon style="fill:midnightblue;stroke:midnightblue;" points="1060.23,-84.5725 1054,-76 1053.52,-86.584 1060.23,-84.5725"/>
</g>
<!-- Node22 -->
<g id="node60" class="node"><title>Node22</title>
<a xlink:href="condition_8h.html" target="_top" xlink:title="ltr/learners/decision_tree/condition/condition.h">
<polygon style="fill:white;stroke:black;" points="671,-168 671,-188 886,-188 886,-168 671,-168"/>
<text text-anchor="middle" x="778" y="-175" style="font-family:Arial;font-size:10.00;">ltr/learners/decision_tree/condition/condition.h</text>
</a>
</g>
<!-- Node5&#45;&gt;Node22 -->
<g id="edge76" class="edge"><title>Node5&#45;&gt;Node22</title>
<path style="fill:none;stroke:midnightblue;" d="M871,-280C860,-271 844,-257 832,-244 817,-228 802,-209 791,-196"/>
<polygon style="fill:midnightblue;stroke:midnightblue;" points="793.8,-193.9 785,-188 788.2,-198.1 793.8,-193.9"/>
</g>
<!-- Node10&#45;&gt;Node11 -->
<g id="edge24" class="edge"><title>Node10&#45;&gt;Node11</title>
<path style="fill:none;stroke:midnightblue;" d="M962,-224C982,-217 1005,-206 1020,-188 1044,-158 1050,-112 1051,-86"/>
<polygon style="fill:midnightblue;stroke:midnightblue;" points="1054.5,-86 1051,-76 1047.5,-86 1054.5,-86"/>
</g>
<!-- Node14 -->
<g id="node30" class="node"><title>Node14</title>
<a xlink:href="functor_8h.html" target="_top" xlink:title="ltr/interfaces/functor.h">
<polygon style="fill:white;stroke:black;" points="903,-168 903,-188 1012,-188 1012,-168 903,-168"/>
<text text-anchor="middle" x="957" y="-175" style="font-family:Arial;font-size:10.00;">ltr/interfaces/functor.h</text>
</a>
</g>
<!-- Node10&#45;&gt;Node14 -->
<g id="edge32" class="edge"><title>Node10&#45;&gt;Node14</title>
<path style="fill:none;stroke:midnightblue;" d="M928,-224C933,-217 939,-206 945,-197"/>
<polygon style="fill:midnightblue;stroke:midnightblue;" points="948.203,-198.441 950,-188 942.084,-195.042 948.203,-198.441"/>
</g>
<!-- Node19 -->
<g id="node49" class="node"><title>Node19</title>
<a xlink:href="serializable_8h.html" target="_top" xlink:title="ltr/interfaces/serializable.h">
<polygon style="fill:white;stroke:black;" points="487,-112 487,-132 616,-132 616,-112 487,-112"/>
<text text-anchor="middle" x="551" y="-119" style="font-family:Arial;font-size:10.00;">ltr/interfaces/serializable.h</text>
</a>
</g>
<!-- Node10&#45;&gt;Node19 -->
<g id="edge60" class="edge"><title>Node10&#45;&gt;Node19</title>
<path style="fill:none;stroke:midnightblue;" d="M841,-227C789,-221 720,-209 662,-188 629,-176 595,-153 572,-138"/>
<polygon style="fill:midnightblue;stroke:midnightblue;" points="574.1,-135.2 564,-132 569.9,-140.8 574.1,-135.2"/>
</g>
<!-- Node11&#45;&gt;Node7 -->
<g id="edge26" class="edge"><title>Node11&#45;&gt;Node7</title>
<path style="fill:none;stroke:midnightblue;" d="M1094,-56C1132,-47 1187,-35 1244,-20"/>
<polygon style="fill:midnightblue;stroke:midnightblue;" points="1245.43,-23.2259 1254,-17 1243.42,-16.5212 1245.43,-23.2259"/>
</g>
<!-- Node12 -->
<g id="node26" class="node"><title>Node12</title>
<polygon style="fill:white;stroke:#bfbfbf;" points="922,-0 922,-20 1029,-20 1029,-0 922,-0"/>
<text text-anchor="middle" x="975" y="-7" style="font-family:Arial;font-size:10.00;">boost/shared_ptr.hpp</text>
</g>
<!-- Node11&#45;&gt;Node12 -->
<g id="edge28" class="edge"><title>Node11&#45;&gt;Node12</title>
<path style="fill:none;stroke:midnightblue;" d="M1037,-56C1026,-48 1010,-36 997,-26"/>
<polygon style="fill:midnightblue;stroke:midnightblue;" points="999.1,-23.2 989,-20 994.9,-28.8 999.1,-23.2"/>
</g>
<!-- Node13 -->
<g id="node28" class="node"><title>Node13</title>
<polygon style="fill:white;stroke:#bfbfbf;" points="1046,-0 1046,-20 1237,-20 1237,-0 1046,-0"/>
<text text-anchor="middle" x="1141" y="-7" style="font-family:Arial;font-size:10.00;">boost/smart_ptr/detail/operator_bool.hpp</text>
</g>
<!-- Node11&#45;&gt;Node13 -->
<g id="edge30" class="edge"><title>Node11&#45;&gt;Node13</title>
<path style="fill:none;stroke:midnightblue;" d="M1067,-56C1080,-48 1100,-35 1116,-25"/>
<polygon style="fill:midnightblue;stroke:midnightblue;" points="1117.96,-27.916 1125,-20 1114.56,-21.7969 1117.96,-27.916"/>
</g>
<!-- Node14&#45;&gt;Node2 -->
<g id="edge38" class="edge"><title>Node14&#45;&gt;Node2</title>
<path style="fill:none;stroke:midnightblue;" d="M931,-168C908,-159 872,-145 842,-132 787,-108 773,-103 722,-76 706,-67 705,-62 689,-56 608,-25 504,-15 454,-12"/>
<polygon style="fill:midnightblue;stroke:midnightblue;" points="454.299,-8.5125 444,-11 453.602,-15.4778 454.299,-8.5125"/>
</g>
<!-- Node14&#45;&gt;Node3 -->
<g id="edge36" class="edge"><title>Node14&#45;&gt;Node3</title>
<path style="fill:none;stroke:midnightblue;" d="M903,-169C900,-169 897,-168 894,-168 709,-145 659,-171 478,-132 423,-120 362,-96 326,-80"/>
<polygon style="fill:midnightblue;stroke:midnightblue;" points="327.56,-76.8631 317,-76 324.717,-83.2598 327.56,-76.8631"/>
</g>
<!-- Node14&#45;&gt;Node11 -->
<g id="edge34" class="edge"><title>Node14&#45;&gt;Node11</title>
<path style="fill:none;stroke:midnightblue;" d="M966,-168C982,-148 1016,-108 1036,-84"/>
<polygon style="fill:midnightblue;stroke:midnightblue;" points="1038.8,-86.1 1042,-76 1033.2,-81.9 1038.8,-86.1"/>
</g>
<!-- Node15 -->
<g id="node35" class="node"><title>Node15</title>
<a xlink:href="object_8h.html" target="_top" xlink:title="ltr/data/object.h">
<polygon style="fill:white;stroke:black;" points="851,-112 851,-132 935,-132 935,-112 851,-112"/>
<text text-anchor="middle" x="893" y="-119" style="font-family:Arial;font-size:10.00;">ltr/data/object.h</text>
</a>
</g>
<!-- Node14&#45;&gt;Node15 -->
<g id="edge40" class="edge"><title>Node14&#45;&gt;Node15</title>
<path style="fill:none;stroke:midnightblue;" d="M946,-168C936,-160 923,-149 912,-139"/>
<polygon style="fill:midnightblue;stroke:midnightblue;" points="914.546,-136.596 905,-132 909.596,-141.546 914.546,-136.596"/>
</g>
<!-- Node15&#45;&gt;Node2 -->
<g id="edge48" class="edge"><title>Node15&#45;&gt;Node2</title>
<path style="fill:none;stroke:midnightblue;" d="M863,-112C837,-103 798,-89 765,-76 745,-67 742,-62 722,-56 627,-27 509,-15 454,-12"/>
<polygon style="fill:midnightblue;stroke:midnightblue;" points="454.299,-8.5125 444,-11 453.602,-15.4778 454.299,-8.5125"/>
</g>
<!-- Node15&#45;&gt;Node6 -->
<g id="edge50" class="edge"><title>Node15&#45;&gt;Node6</title>
<path style="fill:none;stroke:midnightblue;" d="M935,-118C991,-111 1093,-98 1188,-75"/>
<polygon style="fill:midnightblue;stroke:midnightblue;" points="1188.88,-78.3933 1198,-73 1187.51,-71.5292 1188.88,-78.3933"/>
</g>
<!-- Node15&#45;&gt;Node8 -->
<g id="edge46" class="edge"><title>Node15&#45;&gt;Node8</title>
<path style="fill:none;stroke:midnightblue;" d="M935,-114C977,-105 1044,-91 1112,-75"/>
<polygon style="fill:midnightblue;stroke:midnightblue;" points="1112.88,-78.3933 1122,-73 1111.51,-71.5292 1112.88,-78.3933"/>
</g>
<!-- Node15&#45;&gt;Node11 -->
<g id="edge58" class="edge"><title>Node15&#45;&gt;Node11</title>
<path style="fill:none;stroke:midnightblue;" d="M921,-112C947,-103 985,-89 1013,-79"/>
<polygon style="fill:midnightblue;stroke:midnightblue;" points="1014.43,-82.2259 1023,-76 1012.42,-75.5212 1014.43,-82.2259"/>
</g>
<!-- Node16 -->
<g id="node37" class="node"><title>Node16</title>
<polygon style="fill:white;stroke:#bfbfbf;" points="774,-56 774,-76 809,-76 809,-56 774,-56"/>
<text text-anchor="middle" x="791" y="-63" style="font-family:Arial;font-size:10.00;">map</text>
</g>
<!-- Node15&#45;&gt;Node16 -->
<g id="edge42" class="edge"><title>Node15&#45;&gt;Node16</title>
<path style="fill:none;stroke:midnightblue;" d="M875,-112C859,-103 836,-91 818,-81"/>
<polygon style="fill:midnightblue;stroke:midnightblue;" points="819.441,-77.7969 809,-76 816.042,-83.916 819.441,-77.7969"/>
</g>
<!-- Node17 -->
<g id="node39" class="node"><title>Node17</title>
<polygon style="fill:white;stroke:#bfbfbf;" points="854,-0 854,-20 905,-20 905,-0 854,-0"/>
<text text-anchor="middle" x="879" y="-7" style="font-family:Arial;font-size:10.00;">ostream</text>
</g>
<!-- Node15&#45;&gt;Node17 -->
<g id="edge44" class="edge"><title>Node15&#45;&gt;Node17</title>
<path style="fill:none;stroke:midnightblue;" d="M913,-112C934,-100 963,-78 951,-56 943,-41 929,-31 914,-23"/>
<polygon style="fill:midnightblue;stroke:midnightblue;" points="915.56,-19.8631 905,-19 912.717,-26.2598 915.56,-19.8631"/>
</g>
<!-- Node18 -->
<g id="node44" class="node"><title>Node18</title>
<a xlink:href="printable_8h.html" target="_top" xlink:title="ltr/interfaces/printable.h">
<polygon style="fill:white;stroke:black;" points="826,-56 826,-76 943,-76 943,-56 826,-56"/>
<text text-anchor="middle" x="884" y="-63" style="font-family:Arial;font-size:10.00;">ltr/interfaces/printable.h</text>
</a>
</g>
<!-- Node15&#45;&gt;Node18 -->
<g id="edge52" class="edge"><title>Node15&#45;&gt;Node18</title>
<path style="fill:none;stroke:midnightblue;" d="M891,-112C890,-105 889,-95 887,-86"/>
<polygon style="fill:midnightblue;stroke:midnightblue;" points="890.478,-85.6021 886,-76 883.512,-86.2987 890.478,-85.6021"/>
</g>
<!-- Node18&#45;&gt;Node2 -->
<g id="edge56" class="edge"><title>Node18&#45;&gt;Node2</title>
<path style="fill:none;stroke:midnightblue;" d="M826,-57C823,-57 820,-56 817,-56 682,-37 520,-20 454,-13"/>
<polygon style="fill:midnightblue;stroke:midnightblue;" points="454.299,-9.5125 444,-12 453.602,-16.4778 454.299,-9.5125"/>
</g>
<!-- Node18&#45;&gt;Node17 -->
<g id="edge54" class="edge"><title>Node18&#45;&gt;Node17</title>
<path style="fill:none;stroke:midnightblue;" d="M883,-56C882,-49 882,-39 881,-30"/>
<polygon style="fill:midnightblue;stroke:midnightblue;" points="884.478,-29.6021 880,-20 877.512,-30.2987 884.478,-29.6021"/>
</g>
<!-- Node19&#45;&gt;Node2 -->
<g id="edge66" class="edge"><title>Node19&#45;&gt;Node2</title>
<path style="fill:none;stroke:midnightblue;" d="M542,-112C531,-98 508,-74 487,-56 475,-45 460,-34 448,-26"/>
<polygon style="fill:midnightblue;stroke:midnightblue;" points="449.262,-22.6349 439,-20 445.379,-28.4592 449.262,-22.6349"/>
</g>
<!-- Node19&#45;&gt;Node3 -->
<g id="edge62" class="edge"><title>Node19&#45;&gt;Node3</title>
<path style="fill:none;stroke:midnightblue;" d="M505,-112C462,-103 397,-88 351,-78"/>
<polygon style="fill:midnightblue;stroke:midnightblue;" points="351.492,-74.5292 341,-76 350.119,-81.3933 351.492,-74.5292"/>
</g>
<!-- Node19&#45;&gt;Node9 -->
<g id="edge64" class="edge"><title>Node19&#45;&gt;Node9</title>
<path style="fill:none;stroke:midnightblue;" d="M567,-112C581,-104 602,-91 617,-81"/>
<polygon style="fill:midnightblue;stroke:midnightblue;" points="618.958,-83.916 626,-76 615.559,-77.7969 618.958,-83.916"/>
</g>
<!-- Node19&#45;&gt;Node11 -->
<g id="edge70" class="edge"><title>Node19&#45;&gt;Node11</title>
<path style="fill:none;stroke:midnightblue;" d="M616,-115C712,-104 893,-84 988,-73"/>
<polygon style="fill:midnightblue;stroke:midnightblue;" points="988.398,-76.4778 998,-72 987.701,-69.5125 988.398,-76.4778"/>
</g>
<!-- Node20 -->
<g id="node54" class="node"><title>Node20</title>
<polygon style="fill:white;stroke:#bfbfbf;" points="534,-56 534,-76 588,-76 588,-56 534,-56"/>
<text text-anchor="middle" x="561" y="-63" style="font-family:Arial;font-size:10.00;">iostream</text>
</g>
<!-- Node19&#45;&gt;Node20 -->
<g id="edge68" class="edge"><title>Node19&#45;&gt;Node20</title>
<path style="fill:none;stroke:midnightblue;" d="M553,-112C554,-105 556,-95 558,-86"/>
<polygon style="fill:midnightblue;stroke:midnightblue;" points="561.488,-86.2987 559,-76 554.522,-85.6021 561.488,-86.2987"/>
</g>
<!-- Node21 -->
<g id="node57" class="node"><title>Node21</title>
<a xlink:href="aliaser_8h.html" target="_top" xlink:title="ltr/interfaces/aliaser.h">
<polygon style="fill:white;stroke:black;" points="370,-56 370,-76 478,-76 478,-56 370,-56"/>
<text text-anchor="middle" x="424" y="-63" style="font-family:Arial;font-size:10.00;">ltr/interfaces/aliaser.h</text>
</a>
</g>
<!-- Node19&#45;&gt;Node21 -->
<g id="edge72" class="edge"><title>Node19&#45;&gt;Node21</title>
<path style="fill:none;stroke:midnightblue;" d="M528,-112C508,-103 479,-90 456,-80"/>
<polygon style="fill:midnightblue;stroke:midnightblue;" points="457.56,-76.8631 447,-76 454.717,-83.2598 457.56,-76.8631"/>
</g>
<!-- Node21&#45;&gt;Node2 -->
<g id="edge74" class="edge"><title>Node21&#45;&gt;Node2</title>
<path style="fill:none;stroke:midnightblue;" d="M424,-56C424,-49 424,-39 424,-30"/>
<polygon style="fill:midnightblue;stroke:midnightblue;" points="427.5,-30 424,-20 420.5,-30 427.5,-30"/>
</g>
<!-- Node22&#45;&gt;Node2 -->
<g id="edge78" class="edge"><title>Node22&#45;&gt;Node2</title>
<path style="fill:none;stroke:midnightblue;" d="M671,-175C526,-167 280,-145 229,-76 224,-68 224,-62 229,-56 249,-31 345,-18 394,-13"/>
<polygon style="fill:midnightblue;stroke:midnightblue;" points="394.398,-16.4778 404,-12 393.701,-9.5125 394.398,-16.4778"/>
</g>
<!-- Node22&#45;&gt;Node11 -->
<g id="edge84" class="edge"><title>Node22&#45;&gt;Node11</title>
<path style="fill:none;stroke:midnightblue;" d="M827,-168C860,-160 906,-148 944,-132 975,-118 1008,-96 1029,-82"/>
<polygon style="fill:midnightblue;stroke:midnightblue;" points="1031.1,-84.8 1037,-76 1026.9,-79.2 1031.1,-84.8"/>
</g>
<!-- Node22&#45;&gt;Node15 -->
<g id="edge80" class="edge"><title>Node22&#45;&gt;Node15</title>
<path style="fill:none;stroke:midnightblue;" d="M799,-168C817,-159 843,-146 863,-137"/>
<polygon style="fill:midnightblue;stroke:midnightblue;" points="864.958,-139.916 872,-132 861.559,-133.797 864.958,-139.916"/>
</g>
<!-- Node22&#45;&gt;Node19 -->
<g id="edge82" class="edge"><title>Node22&#45;&gt;Node19</title>
<path style="fill:none;stroke:midnightblue;" d="M737,-168C699,-159 642,-144 602,-134"/>
<polygon style="fill:midnightblue;stroke:midnightblue;" points="602.492,-130.529 592,-132 601.119,-137.393 602.492,-130.529"/>
</g>
<!-- Node24 -->
<g id="node69" class="node"><title>Node24</title>
<polygon style="fill:white;stroke:#bfbfbf;" points="996,-280 996,-300 1039,-300 1039,-280 996,-280"/>
<text text-anchor="middle" x="1017" y="-287" style="font-family:Arial;font-size:10.00;">cmath</text>
</g>
<!-- Node23&#45;&gt;Node24 -->
<g id="edge90" class="edge"><title>Node23&#45;&gt;Node24</title>
<path style="fill:none;stroke:midnightblue;" d="M1017,-336C1017,-329 1017,-319 1017,-310"/>
<polygon style="fill:midnightblue;stroke:midnightblue;" points="1020.5,-310 1017,-300 1013.5,-310 1020.5,-310"/>
</g>
<!-- Node25 -->
<g id="node71" class="node"><title>Node25</title>
<polygon style="fill:white;stroke:#bfbfbf;" points="1056,-280 1056,-300 1095,-300 1095,-280 1056,-280"/>
<text text-anchor="middle" x="1075" y="-287" style="font-family:Arial;font-size:10.00;">limits</text>
</g>
<!-- Node23&#45;&gt;Node25 -->
<g id="edge92" class="edge"><title>Node23&#45;&gt;Node25</title>
<path style="fill:none;stroke:midnightblue;" d="M1027,-336C1036,-328 1047,-317 1057,-307"/>
<polygon style="fill:midnightblue;stroke:midnightblue;" points="1059.4,-309.546 1064,-300 1054.45,-304.596 1059.4,-309.546"/>
</g>
</g>
</svg>
