<?xml version="1.0" encoding="UTF-8" standalone="no"?>
<!DOCTYPE svg PUBLIC "-//W3C//DTD SVG 1.0//EN"
 "http://www.w3.org/TR/2001/REC-SVG-20010904/DTD/svg10.dtd" [
 <!ATTLIST svg xmlns:xlink CDATA #FIXED "http://www.w3.org/1999/xlink">
]>
<!-- Generated by Graphviz version 2.20.2 (Tue Mar &#160;2 19:03:41 UTC 2010)
     For user: (jenkins)  -->
<!-- Title: G Pages: 1 -->
<svg width="1954pt" height="140pt"
 viewBox="0.00 0.00 1954.00 140.00" xmlns="http://www.w3.org/2000/svg" xmlns:xlink="http://www.w3.org/1999/xlink">
<g id="graph0" class="graph" transform="scale(1 1) rotate(0) translate(4 136)">
<title>G</title>
<polygon style="fill:white;stroke:white;" points="-4,4 -4,-136 1950,-136 1950,4 -4,4"/>
<!-- Node1 -->
<g id="node1" class="node"><title>Node1</title>
<polygon style="fill:#bfbfbf;stroke:black;" points="539,-112 539,-132 773,-132 773,-112 539,-112"/>
<text text-anchor="middle" x="656" y="-119" style="font-family:Arial;font-size:10.00;">ltr/learners/decision_tree/decision_tree_unittest.cc</text>
</g>
<!-- Node2 -->
<g id="node3" class="node"><title>Node2</title>
<polygon style="fill:white;stroke:#bfbfbf;" points="0,-56 0,-76 71,-76 71,-56 0,-56"/>
<text text-anchor="middle" x="35" y="-63" style="font-family:Arial;font-size:10.00;">gtest/gtest.h</text>
</g>
<!-- Node1&#45;&gt;Node2 -->
<g id="edge2" class="edge"><title>Node1&#45;&gt;Node2</title>
<path style="fill:none;stroke:midnightblue;" d="M539,-117C424,-112 246,-100 81,-76"/>
<polygon style="fill:midnightblue;stroke:midnightblue;" points="81.4922,-72.5292 71,-74 80.1194,-79.3933 81.4922,-72.5292"/>
</g>
<!-- Node3 -->
<g id="node5" class="node"><title>Node3</title>
<polygon style="fill:white;stroke:#bfbfbf;" points="88,-56 88,-76 172,-76 172,-56 88,-56"/>
<text text-anchor="middle" x="130" y="-63" style="font-family:Arial;font-size:10.00;">ltr/data/object.h</text>
</g>
<!-- Node1&#45;&gt;Node3 -->
<g id="edge4" class="edge"><title>Node1&#45;&gt;Node3</title>
<path style="fill:none;stroke:midnightblue;" d="M540,-112C427,-102 263,-87 182,-76"/>
<polygon style="fill:midnightblue;stroke:midnightblue;" points="182.492,-72.5292 172,-74 181.119,-79.3933 182.492,-72.5292"/>
</g>
<!-- Node4 -->
<g id="node7" class="node"><title>Node4</title>
<polygon style="fill:white;stroke:#bfbfbf;" points="1166,-0 1166,-20 1261,-20 1261,-0 1166,-0"/>
<text text-anchor="middle" x="1213" y="-7" style="font-family:Arial;font-size:10.00;">ltr/data/data_set.h</text>
</g>
<!-- Node1&#45;&gt;Node4 -->
<g id="edge6" class="edge"><title>Node1&#45;&gt;Node4</title>
<path style="fill:none;stroke:midnightblue;" d="M773,-118C917,-111 1146,-98 1179,-76 1194,-65 1203,-45 1208,-30"/>
<polygon style="fill:midnightblue;stroke:midnightblue;" points="1211.48,-30.584 1211,-20 1204.77,-28.5725 1211.48,-30.584"/>
</g>
<!-- Node5 -->
<g id="node9" class="node"><title>Node5</title>
<polygon style="fill:white;stroke:#bfbfbf;" points="434,-56 434,-76 659,-76 659,-56 434,-56"/>
<text text-anchor="middle" x="546" y="-63" style="font-family:Arial;font-size:10.00;">ltr/learners/decision_tree/decision_tree_learner.h</text>
</g>
<!-- Node1&#45;&gt;Node5 -->
<g id="edge8" class="edge"><title>Node1&#45;&gt;Node5</title>
<path style="fill:none;stroke:midnightblue;" d="M636,-112C620,-103 594,-90 575,-81"/>
<polygon style="fill:midnightblue;stroke:midnightblue;" points="576.441,-77.7969 566,-76 573.042,-83.916 576.441,-77.7969"/>
</g>
<!-- Node6 -->
<g id="node11" class="node"><title>Node6</title>
<a xlink:href="oblivious__tree__splitter_8h.html" target="_top" xlink:title="ltr/learners/decision_tree/oblivious_tree_splitter.h">
<polygon style="fill:white;stroke:black;" points="190,-56 190,-76 416,-76 416,-56 190,-56"/>
<text text-anchor="middle" x="303" y="-63" style="font-family:Arial;font-size:10.00;">ltr/learners/decision_tree/oblivious_tree_splitter.h</text>
</a>
</g>
<!-- Node1&#45;&gt;Node6 -->
<g id="edge10" class="edge"><title>Node1&#45;&gt;Node6</title>
<path style="fill:none;stroke:midnightblue;" d="M593,-112C532,-103 440,-88 376,-78"/>
<polygon style="fill:midnightblue;stroke:midnightblue;" points="376.492,-74.5292 366,-76 375.119,-81.3933 376.492,-74.5292"/>
</g>
<!-- Node11 -->
<g id="node21" class="node"><title>Node11</title>
<a xlink:href="id3__splitter_8h.html" target="_top" xlink:title="ltr/learners/decision_tree/id3_splitter.h">
<polygon style="fill:white;stroke:black;" points="676,-56 676,-76 856,-76 856,-56 676,-56"/>
<text text-anchor="middle" x="766" y="-63" style="font-family:Arial;font-size:10.00;">ltr/learners/decision_tree/id3_splitter.h</text>
</a>
</g>
<!-- Node1&#45;&gt;Node11 -->
<g id="edge20" class="edge"><title>Node1&#45;&gt;Node11</title>
<path style="fill:none;stroke:midnightblue;" d="M676,-112C692,-103 718,-90 737,-81"/>
<polygon style="fill:midnightblue;stroke:midnightblue;" points="738.958,-83.916 746,-76 735.559,-77.7969 738.958,-83.916"/>
</g>
<!-- Node13 -->
<g id="node29" class="node"><title>Node13</title>
<a xlink:href="most__common__label__leaf__generator_8h.html" target="_top" xlink:title="ltr/learners/decision_tree/leaf_generator/most_common_label_leaf_generator.h">
<polygon style="fill:white;stroke:black;" points="1226,-56 1226,-76 1579,-76 1579,-56 1226,-56"/>
<text text-anchor="middle" x="1402" y="-63" style="font-family:Arial;font-size:10.00;">ltr/learners/decision_tree/leaf_generator/most_common_label_leaf_generator.h</text>
</a>
</g>
<!-- Node1&#45;&gt;Node13 -->
<g id="edge32" class="edge"><title>Node1&#45;&gt;Node13</title>
<path style="fill:none;stroke:midnightblue;" d="M773,-113C904,-103 1116,-87 1257,-77"/>
<polygon style="fill:midnightblue;stroke:midnightblue;" points="1257.4,-80.4778 1267,-76 1256.7,-73.5125 1257.4,-80.4778"/>
</g>
<!-- Node17 -->
<g id="node39" class="node"><title>Node17</title>
<a xlink:href="same__label__stop__criteria_8h.html" target="_top" xlink:title="ltr/learners/decision_tree/split_criteria/same_label_stop_criteria.h">
<polygon style="fill:white;stroke:black;" points="874,-56 874,-76 1171,-76 1171,-56 874,-56"/>
<text text-anchor="middle" x="1022" y="-63" style="font-family:Arial;font-size:10.00;">ltr/learners/decision_tree/split_criteria/same_label_stop_criteria.h</text>
</a>
</g>
<!-- Node1&#45;&gt;Node17 -->
<g id="edge44" class="edge"><title>Node1&#45;&gt;Node17</title>
<path style="fill:none;stroke:midnightblue;" d="M721,-112C785,-102 880,-88 947,-78"/>
<polygon style="fill:midnightblue;stroke:midnightblue;" points="947.881,-81.3933 957,-76 946.508,-74.5292 947.881,-81.3933"/>
</g>
<!-- Node7 -->
<g id="node13" class="node"><title>Node7</title>
<polygon style="fill:white;stroke:#bfbfbf;" points="584,-0 584,-20 626,-20 626,-0 584,-0"/>
<text text-anchor="middle" x="605" y="-7" style="font-family:Arial;font-size:10.00;">vector</text>
</g>
<!-- Node6&#45;&gt;Node7 -->
<g id="edge12" class="edge"><title>Node6&#45;&gt;Node7</title>
<path style="fill:none;stroke:midnightblue;" d="M359,-56C409,-47 487,-33 554,-20 561,-19 568,-17 574,-16"/>
<polygon style="fill:midnightblue;stroke:midnightblue;" points="574.881,-19.3933 584,-14 573.508,-12.5292 574.881,-19.3933"/>
</g>
<!-- Node8 -->
<g id="node15" class="node"><title>Node8</title>
<polygon style="fill:white;stroke:#bfbfbf;" points="288,-0 288,-20 328,-20 328,-0 288,-0"/>
<text text-anchor="middle" x="308" y="-7" style="font-family:Arial;font-size:10.00;">string</text>
</g>
<!-- Node6&#45;&gt;Node8 -->
<g id="edge14" class="edge"><title>Node6&#45;&gt;Node8</title>
<path style="fill:none;stroke:midnightblue;" d="M304,-56C305,-49 305,-39 306,-30"/>
<polygon style="fill:midnightblue;stroke:midnightblue;" points="309.488,-30.2987 307,-20 302.522,-29.6021 309.488,-30.2987"/>
</g>
<!-- Node9 -->
<g id="node17" class="node"><title>Node9</title>
<polygon style="fill:white;stroke:#bfbfbf;" points="357,-0 357,-20 546,-20 546,-0 357,-0"/>
<text text-anchor="middle" x="451" y="-7" style="font-family:Arial;font-size:10.00;">ltr/learners/decision_tree/base_splitter.h</text>
</g>
<!-- Node6&#45;&gt;Node9 -->
<g id="edge16" class="edge"><title>Node6&#45;&gt;Node9</title>
<path style="fill:none;stroke:midnightblue;" d="M329,-56C353,-47 388,-34 414,-24"/>
<polygon style="fill:midnightblue;stroke:midnightblue;" points="416.015,-26.9636 424,-20 413.415,-20.4643 416.015,-26.9636"/>
</g>
<!-- Node10 -->
<g id="node19" class="node"><title>Node10</title>
<polygon style="fill:white;stroke:#bfbfbf;" points="742,-0 742,-20 849,-20 849,-0 742,-0"/>
<text text-anchor="middle" x="795" y="-7" style="font-family:Arial;font-size:10.00;">ltr/utility/shared_ptr.h</text>
</g>
<!-- Node6&#45;&gt;Node10 -->
<g id="edge18" class="edge"><title>Node6&#45;&gt;Node10</title>
<path style="fill:none;stroke:midnightblue;" d="M410,-56C495,-47 616,-35 732,-20"/>
<polygon style="fill:midnightblue;stroke:midnightblue;" points="732.398,-23.4778 742,-19 731.701,-16.5125 732.398,-23.4778"/>
</g>
<!-- Node11&#45;&gt;Node7 -->
<g id="edge24" class="edge"><title>Node11&#45;&gt;Node7</title>
<path style="fill:none;stroke:midnightblue;" d="M737,-56C708,-46 665,-31 636,-20"/>
<polygon style="fill:midnightblue;stroke:midnightblue;" points="636.584,-16.5212 626,-17 634.573,-23.2259 636.584,-16.5212"/>
</g>
<!-- Node11&#45;&gt;Node8 -->
<g id="edge26" class="edge"><title>Node11&#45;&gt;Node8</title>
<path style="fill:none;stroke:midnightblue;" d="M676,-57C562,-45 379,-25 348,-20 345,-19 341,-19 338,-18"/>
<polygon style="fill:midnightblue;stroke:midnightblue;" points="338.584,-14.5212 328,-15 336.573,-21.2259 338.584,-14.5212"/>
</g>
<!-- Node11&#45;&gt;Node9 -->
<g id="edge28" class="edge"><title>Node11&#45;&gt;Node9</title>
<path style="fill:none;stroke:midnightblue;" d="M710,-56C656,-47 574,-32 517,-22"/>
<polygon style="fill:midnightblue;stroke:midnightblue;" points="517.492,-18.5292 507,-20 516.119,-25.3933 517.492,-18.5292"/>
</g>
<!-- Node11&#45;&gt;Node10 -->
<g id="edge30" class="edge"><title>Node11&#45;&gt;Node10</title>
<path style="fill:none;stroke:midnightblue;" d="M771,-56C775,-49 781,-38 786,-29"/>
<polygon style="fill:midnightblue;stroke:midnightblue;" points="789.137,-30.5596 790,-20 782.74,-27.7166 789.137,-30.5596"/>
</g>
<!-- Node12 -->
<g id="node23" class="node"><title>Node12</title>
<polygon style="fill:white;stroke:#bfbfbf;" points="650,-0 650,-20 724,-20 724,-0 650,-0"/>
<text text-anchor="middle" x="687" y="-7" style="font-family:Arial;font-size:10.00;">logog/logog.h</text>
</g>
<!-- Node11&#45;&gt;Node12 -->
<g id="edge22" class="edge"><title>Node11&#45;&gt;Node12</title>
<path style="fill:none;stroke:midnightblue;" d="M752,-56C740,-48 723,-35 709,-26"/>
<polygon style="fill:midnightblue;stroke:midnightblue;" points="711.1,-23.2 701,-20 706.9,-28.8 711.1,-23.2"/>
</g>
<!-- Node13&#45;&gt;Node4 -->
<g id="edge34" class="edge"><title>Node13&#45;&gt;Node4</title>
<path style="fill:none;stroke:midnightblue;" d="M1368,-56C1337,-47 1290,-33 1257,-23"/>
<polygon style="fill:midnightblue;stroke:midnightblue;" points="1257.58,-19.5212 1247,-20 1255.57,-26.2259 1257.58,-19.5212"/>
</g>
<!-- Node13&#45;&gt;Node10 -->
<g id="edge42" class="edge"><title>Node13&#45;&gt;Node10</title>
<path style="fill:none;stroke:midnightblue;" d="M1249,-56C1142,-48 996,-37 859,-20"/>
<polygon style="fill:midnightblue;stroke:midnightblue;" points="859.299,-16.5125 849,-19 858.602,-23.4778 859.299,-16.5125"/>
</g>
<!-- Node14 -->
<g id="node32" class="node"><title>Node14</title>
<polygon style="fill:white;stroke:#bfbfbf;" points="1278,-0 1278,-20 1444,-20 1444,-0 1278,-0"/>
<text text-anchor="middle" x="1361" y="-7" style="font-family:Arial;font-size:10.00;">ltr/data/utility/data_set_statistics.h</text>
</g>
<!-- Node13&#45;&gt;Node14 -->
<g id="edge36" class="edge"><title>Node13&#45;&gt;Node14</title>
<path style="fill:none;stroke:midnightblue;" d="M1395,-56C1390,-48 1381,-38 1375,-28"/>
<polygon style="fill:midnightblue;stroke:midnightblue;" points="1377.8,-25.9 1369,-20 1372.2,-30.1 1377.8,-25.9"/>
</g>
<!-- Node15 -->
<g id="node34" class="node"><title>Node15</title>
<polygon style="fill:white;stroke:#bfbfbf;" points="1462,-0 1462,-20 1670,-20 1670,-0 1462,-0"/>
<text text-anchor="middle" x="1566" y="-7" style="font-family:Arial;font-size:10.00;">ltr/learners/decision_tree/vertex/leaf_vertex.h</text>
</g>
<!-- Node13&#45;&gt;Node15 -->
<g id="edge38" class="edge"><title>Node13&#45;&gt;Node15</title>
<path style="fill:none;stroke:midnightblue;" d="M1431,-56C1458,-47 1498,-33 1527,-23"/>
<polygon style="fill:midnightblue;stroke:midnightblue;" points="1528.43,-26.2259 1537,-20 1526.42,-19.5212 1528.43,-26.2259"/>
</g>
<!-- Node16 -->
<g id="node36" class="node"><title>Node16</title>
<polygon style="fill:white;stroke:#bfbfbf;" points="1688,-0 1688,-20 1946,-20 1946,-0 1688,-0"/>
<text text-anchor="middle" x="1817" y="-7" style="font-family:Arial;font-size:10.00;">ltr/learners/decision_tree/leaf_generator/leaf_generator.h</text>
</g>
<!-- Node13&#45;&gt;Node16 -->
<g id="edge40" class="edge"><title>Node13&#45;&gt;Node16</title>
<path style="fill:none;stroke:midnightblue;" d="M1476,-56C1549,-46 1658,-31 1733,-21"/>
<polygon style="fill:midnightblue;stroke:midnightblue;" points="1733.4,-24.4778 1743,-20 1732.7,-17.5125 1733.4,-24.4778"/>
</g>
<!-- Node17&#45;&gt;Node4 -->
<g id="edge46" class="edge"><title>Node17&#45;&gt;Node4</title>
<path style="fill:none;stroke:midnightblue;" d="M1056,-56C1088,-47 1135,-33 1169,-23"/>
<polygon style="fill:midnightblue;stroke:midnightblue;" points="1170.43,-26.2259 1179,-20 1168.42,-19.5212 1170.43,-26.2259"/>
</g>
<!-- Node17&#45;&gt;Node10 -->
<g id="edge50" class="edge"><title>Node17&#45;&gt;Node10</title>
<path style="fill:none;stroke:midnightblue;" d="M981,-56C943,-47 886,-32 846,-22"/>
<polygon style="fill:midnightblue;stroke:midnightblue;" points="846.492,-18.5292 836,-20 845.119,-25.3933 846.492,-18.5292"/>
</g>
<!-- Node18 -->
<g id="node42" class="node"><title>Node18</title>
<polygon style="fill:white;stroke:#bfbfbf;" points="866,-0 866,-20 1148,-20 1148,-0 866,-0"/>
<text text-anchor="middle" x="1007" y="-7" style="font-family:Arial;font-size:10.00;">ltr/learners/decision_tree/split_criteria/stop_splitting_criteria.h</text>
</g>
<!-- Node17&#45;&gt;Node18 -->
<g id="edge48" class="edge"><title>Node17&#45;&gt;Node18</title>
<path style="fill:none;stroke:midnightblue;" d="M1019,-56C1018,-49 1015,-39 1012,-30"/>
<polygon style="fill:midnightblue;stroke:midnightblue;" points="1015.39,-29.1194 1010,-20 1008.53,-30.4922 1015.39,-29.1194"/>
</g>
</g>
</svg>
