<?xml version="1.0" encoding="UTF-8" standalone="no"?>
<!DOCTYPE svg PUBLIC "-//W3C//DTD SVG 1.0//EN"
 "http://www.w3.org/TR/2001/REC-SVG-20010904/DTD/svg10.dtd" [
 <!ATTLIST svg xmlns:xlink CDATA #FIXED "http://www.w3.org/1999/xlink">
]>
<!-- Generated by Graphviz version 2.20.2 (Tue Mar &#160;2 19:03:41 UTC 2010)
     For user: (jenkins)  -->
<!-- Title: G Pages: 1 -->
<svg width="286pt" height="140pt"
 viewBox="0.00 0.00 286.00 140.00" xmlns="http://www.w3.org/2000/svg" xmlns:xlink="http://www.w3.org/1999/xlink">
<g id="graph0" class="graph" transform="scale(1 1) rotate(0) translate(4 136)">
<title>G</title>
<polygon style="fill:white;stroke:white;" points="-4,4 -4,-136 282,-136 282,4 -4,4"/>
<!-- Node1 -->
<g id="node1" class="node"><title>Node1</title>
<polygon style="fill:#bfbfbf;stroke:black;" points="0,-112 0,-132 279,-132 279,-112 0,-112"/>
<text text-anchor="middle" x="139" y="-119" style="font-family:Arial;font-size:10.00;">ltr/learners/gp_learner/strategies/default_selection_strategy.h</text>
</g>
<!-- Node2 -->
<g id="node3" class="node"><title>Node2</title>
<a xlink:href="gp__learner_8h.html" target="_top" xlink:title="ltr/learners/gp_learner/gp_learner.h">
<polygon style="fill:white;stroke:black;" points="57,-56 57,-76 222,-76 222,-56 57,-56"/>
<text text-anchor="middle" x="139" y="-63" style="font-family:Arial;font-size:10.00;">ltr/learners/gp_learner/gp_learner.h</text>
</a>
</g>
<!-- Node1&#45;&gt;Node2 -->
<g id="edge2" class="edge"><title>Node1&#45;&gt;Node2</title>
<path style="fill:none;stroke:midnightblue;" d="M139,-102C139,-93 139,-84 139,-76"/>
<polygon style="fill:midnightblue;stroke:midnightblue;" points="135.5,-102 139,-112 142.5,-102 135.5,-102"/>
</g>
<!-- Node3 -->
<g id="node5" class="node"><title>Node3</title>
<a xlink:href="gp__learner_8cc.html" target="_top" xlink:title="ltr/learners/gp_learner/gp_learner.cc">
<polygon style="fill:white;stroke:black;" points="54,-0 54,-20 225,-20 225,-0 54,-0"/>
<text text-anchor="middle" x="139" y="-7" style="font-family:Arial;font-size:10.00;">ltr/learners/gp_learner/gp_learner.cc</text>
</a>
</g>
<!-- Node2&#45;&gt;Node3 -->
<g id="edge4" class="edge"><title>Node2&#45;&gt;Node3</title>
<path style="fill:none;stroke:midnightblue;" d="M139,-46C139,-37 139,-28 139,-20"/>
<polygon style="fill:midnightblue;stroke:midnightblue;" points="135.5,-46 139,-56 142.5,-46 135.5,-46"/>
</g>
</g>
</svg>
