<?xml version="1.0" encoding="UTF-8" standalone="no"?>
<!DOCTYPE svg PUBLIC "-//W3C//DTD SVG 1.0//EN"
 "http://www.w3.org/TR/2001/REC-SVG-20010904/DTD/svg10.dtd" [
 <!ATTLIST svg xmlns:xlink CDATA #FIXED "http://www.w3.org/1999/xlink">
]>
<!-- Generated by Graphviz version 2.20.2 (Tue Mar &#160;2 19:03:41 UTC 2010)
     For user: (jenkins)  -->
<!-- Title: G Pages: 1 -->
<svg width="948pt" height="308pt"
 viewBox="0.00 0.00 948.00 308.00" xmlns="http://www.w3.org/2000/svg" xmlns:xlink="http://www.w3.org/1999/xlink">
<g id="graph0" class="graph" transform="scale(1 1) rotate(0) translate(4 304)">
<title>G</title>
<polygon style="fill:white;stroke:white;" points="-4,4 -4,-304 944,-304 944,4 -4,4"/>
<!-- Node1 -->
<g id="node1" class="node"><title>Node1</title>
<polygon style="fill:#bfbfbf;stroke:black;" points="0,-280 0,-300 282,-300 282,-280 0,-280"/>
<text text-anchor="middle" x="141" y="-287" style="font-family:Arial;font-size:10.00;">ltr/learners/gp_learner/strategies/default_crossover_strategy.h</text>
</g>
<!-- Node2 -->
<g id="node3" class="node"><title>Node2</title>
<polygon style="fill:white;stroke:#bfbfbf;" points="51,-168 51,-188 93,-188 93,-168 51,-168"/>
<text text-anchor="middle" x="72" y="-175" style="font-family:Arial;font-size:10.00;">vector</text>
</g>
<!-- Node1&#45;&gt;Node2 -->
<g id="edge2" class="edge"><title>Node1&#45;&gt;Node2</title>
<path style="fill:none;stroke:midnightblue;" d="M115,-280C99,-272 80,-261 71,-244 64,-230 65,-212 67,-198"/>
<polygon style="fill:midnightblue;stroke:midnightblue;" points="70.4708,-198.492 69,-188 63.6067,-197.119 70.4708,-198.492"/>
</g>
<!-- Node3 -->
<g id="node5" class="node"><title>Node3</title>
<polygon style="fill:white;stroke:#bfbfbf;" points="80,-224 80,-244 203,-244 203,-224 80,-224"/>
<text text-anchor="middle" x="141" y="-231" style="font-family:Arial;font-size:10.00;">contrib/puppy/Puppy.hpp</text>
</g>
<!-- Node1&#45;&gt;Node3 -->
<g id="edge4" class="edge"><title>Node1&#45;&gt;Node3</title>
<path style="fill:none;stroke:midnightblue;" d="M141,-280C141,-273 141,-263 141,-254"/>
<polygon style="fill:midnightblue;stroke:midnightblue;" points="144.5,-254 141,-244 137.5,-254 144.5,-254"/>
</g>
<!-- Node4 -->
<g id="node7" class="node"><title>Node4</title>
<a xlink:href="population__handler_8h.html" target="_top" xlink:title="ltr/learners/gp_learner/strategies/population_handler.h">
<polygon style="fill:white;stroke:black;" points="220,-224 220,-244 467,-244 467,-224 220,-224"/>
<text text-anchor="middle" x="343" y="-231" style="font-family:Arial;font-size:10.00;">ltr/learners/gp_learner/strategies/population_handler.h</text>
</a>
</g>
<!-- Node1&#45;&gt;Node4 -->
<g id="edge6" class="edge"><title>Node1&#45;&gt;Node4</title>
<path style="fill:none;stroke:midnightblue;" d="M177,-280C211,-271 261,-257 297,-247"/>
<polygon style="fill:midnightblue;stroke:midnightblue;" points="298.427,-250.226 307,-244 296.416,-243.521 298.427,-250.226"/>
</g>
<!-- Node4&#45;&gt;Node2 -->
<g id="edge8" class="edge"><title>Node4&#45;&gt;Node2</title>
<path style="fill:none;stroke:midnightblue;" d="M295,-224C239,-213 150,-194 103,-184"/>
<polygon style="fill:midnightblue;stroke:midnightblue;" points="103.492,-180.529 93,-182 102.119,-187.393 103.492,-180.529"/>
</g>
<!-- Node5 -->
<g id="node10" class="node"><title>Node5</title>
<a xlink:href="shared__ptr_8h.html" target="_top" xlink:title="ltr/utility/shared_ptr.h">
<polygon style="fill:white;stroke:black;" points="689,-56 689,-76 796,-76 796,-56 689,-56"/>
<text text-anchor="middle" x="742" y="-63" style="font-family:Arial;font-size:10.00;">ltr/utility/shared_ptr.h</text>
</a>
</g>
<!-- Node4&#45;&gt;Node5 -->
<g id="edge10" class="edge"><title>Node4&#45;&gt;Node5</title>
<path style="fill:none;stroke:midnightblue;" d="M367,-224C435,-195 630,-113 709,-80"/>
<polygon style="fill:midnightblue;stroke:midnightblue;" points="710.283,-83.2598 718,-76 707.44,-76.8631 710.283,-83.2598"/>
</g>
<!-- Node9 -->
<g id="node18" class="node"><title>Node9</title>
<a xlink:href="parameterized_8h.html" target="_top" xlink:title="ltr/interfaces/parameterized.h">
<polygon style="fill:white;stroke:black;" points="152,-168 152,-188 294,-188 294,-168 152,-168"/>
<text text-anchor="middle" x="223" y="-175" style="font-family:Arial;font-size:10.00;">ltr/interfaces/parameterized.h</text>
</a>
</g>
<!-- Node4&#45;&gt;Node9 -->
<g id="edge18" class="edge"><title>Node4&#45;&gt;Node9</title>
<path style="fill:none;stroke:midnightblue;" d="M322,-224C303,-215 276,-202 254,-192"/>
<polygon style="fill:midnightblue;stroke:midnightblue;" points="255.56,-188.863 245,-188 252.717,-195.26 255.56,-188.863"/>
</g>
<!-- Node12 -->
<g id="node24" class="node"><title>Node12</title>
<a xlink:href="parameters__container_8h.html" target="_top" xlink:title="ltr/parameters_container/parameters_container.h">
<polygon style="fill:white;stroke:black;" points="231,-112 231,-132 456,-132 456,-112 231,-112"/>
<text text-anchor="middle" x="343" y="-119" style="font-family:Arial;font-size:10.00;">ltr/parameters_container/parameters_container.h</text>
</a>
</g>
<!-- Node4&#45;&gt;Node12 -->
<g id="edge46" class="edge"><title>Node4&#45;&gt;Node12</title>
<path style="fill:none;stroke:midnightblue;" d="M343,-224C343,-205 343,-166 343,-142"/>
<polygon style="fill:midnightblue;stroke:midnightblue;" points="346.5,-142 343,-132 339.5,-142 346.5,-142"/>
</g>
<!-- Node6 -->
<g id="node12" class="node"><title>Node6</title>
<polygon style="fill:white;stroke:#bfbfbf;" points="760,-0 760,-20 816,-20 816,-0 760,-0"/>
<text text-anchor="middle" x="788" y="-7" style="font-family:Arial;font-size:10.00;">algorithm</text>
</g>
<!-- Node5&#45;&gt;Node6 -->
<g id="edge12" class="edge"><title>Node5&#45;&gt;Node6</title>
<path style="fill:none;stroke:midnightblue;" d="M750,-56C756,-48 765,-38 773,-28"/>
<polygon style="fill:midnightblue;stroke:midnightblue;" points="775.8,-30.1 779,-20 770.2,-25.9 775.8,-30.1"/>
</g>
<!-- Node7 -->
<g id="node14" class="node"><title>Node7</title>
<polygon style="fill:white;stroke:#bfbfbf;" points="834,-0 834,-20 941,-20 941,-0 834,-0"/>
<text text-anchor="middle" x="887" y="-7" style="font-family:Arial;font-size:10.00;">boost/shared_ptr.hpp</text>
</g>
<!-- Node5&#45;&gt;Node7 -->
<g id="edge14" class="edge"><title>Node5&#45;&gt;Node7</title>
<path style="fill:none;stroke:midnightblue;" d="M768,-56C791,-47 826,-34 852,-24"/>
<polygon style="fill:midnightblue;stroke:midnightblue;" points="853.283,-27.2598 861,-20 850.44,-20.8631 853.283,-27.2598"/>
</g>
<!-- Node8 -->
<g id="node16" class="node"><title>Node8</title>
<polygon style="fill:white;stroke:#bfbfbf;" points="552,-0 552,-20 743,-20 743,-0 552,-0"/>
<text text-anchor="middle" x="647" y="-7" style="font-family:Arial;font-size:10.00;">boost/smart_ptr/detail/operator_bool.hpp</text>
</g>
<!-- Node5&#45;&gt;Node8 -->
<g id="edge16" class="edge"><title>Node5&#45;&gt;Node8</title>
<path style="fill:none;stroke:midnightblue;" d="M725,-56C711,-48 690,-35 673,-25"/>
<polygon style="fill:midnightblue;stroke:midnightblue;" points="674.441,-21.7969 664,-20 671.042,-27.916 674.441,-21.7969"/>
</g>
<!-- Node10 -->
<g id="node20" class="node"><title>Node10</title>
<polygon style="fill:white;stroke:#bfbfbf;" points="63,-56 63,-76 122,-76 122,-56 63,-56"/>
<text text-anchor="middle" x="92" y="-63" style="font-family:Arial;font-size:10.00;">stdexcept</text>
</g>
<!-- Node9&#45;&gt;Node10 -->
<g id="edge20" class="edge"><title>Node9&#45;&gt;Node10</title>
<path style="fill:none;stroke:midnightblue;" d="M211,-168C188,-148 139,-107 112,-83"/>
<polygon style="fill:midnightblue;stroke:midnightblue;" points="113.831,-79.9511 104,-76 109.221,-85.2191 113.831,-79.9511"/>
</g>
<!-- Node11 -->
<g id="node22" class="node"><title>Node11</title>
<polygon style="fill:white;stroke:#bfbfbf;" points="415,-0 415,-20 455,-20 455,-0 415,-0"/>
<text text-anchor="middle" x="435" y="-7" style="font-family:Arial;font-size:10.00;">string</text>
</g>
<!-- Node9&#45;&gt;Node11 -->
<g id="edge22" class="edge"><title>Node9&#45;&gt;Node11</title>
<path style="fill:none;stroke:midnightblue;" d="M186,-168C123,-149 9,-107 54,-56 78,-30 319,-15 405,-11"/>
<polygon style="fill:midnightblue;stroke:midnightblue;" points="405,-14.5001 415,-11 405,-7.5001 405,-14.5001"/>
</g>
<!-- Node9&#45;&gt;Node12 -->
<g id="edge24" class="edge"><title>Node9&#45;&gt;Node12</title>
<path style="fill:none;stroke:midnightblue;" d="M244,-168C263,-159 290,-146 312,-136"/>
<polygon style="fill:midnightblue;stroke:midnightblue;" points="313.283,-139.26 321,-132 310.44,-132.863 313.283,-139.26"/>
</g>
<!-- Node12&#45;&gt;Node5 -->
<g id="edge38" class="edge"><title>Node12&#45;&gt;Node5</title>
<path style="fill:none;stroke:midnightblue;" d="M420,-112C486,-103 583,-90 679,-76"/>
<polygon style="fill:midnightblue;stroke:midnightblue;" points="679.881,-79.3933 689,-74 678.508,-72.5292 679.881,-79.3933"/>
</g>
<!-- Node12&#45;&gt;Node10 -->
<g id="edge30" class="edge"><title>Node12&#45;&gt;Node10</title>
<path style="fill:none;stroke:midnightblue;" d="M294,-112C253,-103 193,-90 132,-76"/>
<polygon style="fill:midnightblue;stroke:midnightblue;" points="132.492,-72.5292 122,-74 131.119,-79.3933 132.492,-72.5292"/>
</g>
<!-- Node12&#45;&gt;Node11 -->
<g id="edge32" class="edge"><title>Node12&#45;&gt;Node11</title>
<path style="fill:none;stroke:midnightblue;" d="M367,-112C383,-104 403,-92 416,-76 425,-63 431,-44 433,-30"/>
<polygon style="fill:midnightblue;stroke:midnightblue;" points="436.488,-30.2987 434,-20 429.522,-29.6021 436.488,-30.2987"/>
</g>
<!-- Node13 -->
<g id="node26" class="node"><title>Node13</title>
<polygon style="fill:white;stroke:#bfbfbf;" points="597,-56 597,-76 671,-76 671,-56 597,-56"/>
<text text-anchor="middle" x="634" y="-63" style="font-family:Arial;font-size:10.00;">logog/logog.h</text>
</g>
<!-- Node12&#45;&gt;Node13 -->
<g id="edge26" class="edge"><title>Node12&#45;&gt;Node13</title>
<path style="fill:none;stroke:midnightblue;" d="M397,-112C445,-103 515,-90 587,-76"/>
<polygon style="fill:midnightblue;stroke:midnightblue;" points="587.881,-79.3933 597,-74 586.508,-72.5292 587.881,-79.3933"/>
</g>
<!-- Node14 -->
<g id="node28" class="node"><title>Node14</title>
<polygon style="fill:white;stroke:#bfbfbf;" points="139,-56 139,-76 168,-76 168,-56 139,-56"/>
<text text-anchor="middle" x="153" y="-63" style="font-family:Arial;font-size:10.00;">list</text>
</g>
<!-- Node12&#45;&gt;Node14 -->
<g id="edge28" class="edge"><title>Node12&#45;&gt;Node14</title>
<path style="fill:none;stroke:midnightblue;" d="M301,-112C269,-104 223,-92 177,-76"/>
<polygon style="fill:midnightblue;stroke:midnightblue;" points="178.594,-72.842 168,-73 176.38,-79.4827 178.594,-72.842"/>
</g>
<!-- Node15 -->
<g id="node32" class="node"><title>Node15</title>
<polygon style="fill:white;stroke:#bfbfbf;" points="185,-56 185,-76 262,-76 262,-56 185,-56"/>
<text text-anchor="middle" x="223" y="-63" style="font-family:Arial;font-size:10.00;">boost/any.hpp</text>
</g>
<!-- Node12&#45;&gt;Node15 -->
<g id="edge34" class="edge"><title>Node12&#45;&gt;Node15</title>
<path style="fill:none;stroke:midnightblue;" d="M322,-112C303,-103 276,-90 254,-80"/>
<polygon style="fill:midnightblue;stroke:midnightblue;" points="255.56,-76.8631 245,-76 252.717,-83.2598 255.56,-76.8631"/>
</g>
<!-- Node16 -->
<g id="node34" class="node"><title>Node16</title>
<polygon style="fill:white;stroke:#bfbfbf;" points="279,-56 279,-76 408,-76 408,-56 279,-56"/>
<text text-anchor="middle" x="343" y="-63" style="font-family:Arial;font-size:10.00;">boost/unordered_map.hpp</text>
</g>
<!-- Node12&#45;&gt;Node16 -->
<g id="edge36" class="edge"><title>Node12&#45;&gt;Node16</title>
<path style="fill:none;stroke:midnightblue;" d="M343,-112C343,-105 343,-95 343,-86"/>
<polygon style="fill:midnightblue;stroke:midnightblue;" points="346.5,-86 343,-76 339.5,-86 346.5,-86"/>
</g>
<!-- Node17 -->
<g id="node37" class="node"><title>Node17</title>
<a xlink:href="printable_8h.html" target="_top" xlink:title="ltr/interfaces/printable.h">
<polygon style="fill:white;stroke:black;" points="463,-56 463,-76 580,-76 580,-56 463,-56"/>
<text text-anchor="middle" x="521" y="-63" style="font-family:Arial;font-size:10.00;">ltr/interfaces/printable.h</text>
</a>
</g>
<!-- Node12&#45;&gt;Node17 -->
<g id="edge40" class="edge"><title>Node12&#45;&gt;Node17</title>
<path style="fill:none;stroke:midnightblue;" d="M375,-112C404,-103 447,-89 479,-79"/>
<polygon style="fill:midnightblue;stroke:midnightblue;" points="480.427,-82.2259 489,-76 478.416,-75.5212 480.427,-82.2259"/>
</g>
<!-- Node17&#45;&gt;Node11 -->
<g id="edge44" class="edge"><title>Node17&#45;&gt;Node11</title>
<path style="fill:none;stroke:midnightblue;" d="M506,-56C493,-48 474,-35 459,-26"/>
<polygon style="fill:midnightblue;stroke:midnightblue;" points="461.1,-23.2 451,-20 456.9,-28.8 461.1,-23.2"/>
</g>
<!-- Node18 -->
<g id="node39" class="node"><title>Node18</title>
<polygon style="fill:white;stroke:#bfbfbf;" points="484,-0 484,-20 535,-20 535,-0 484,-0"/>
<text text-anchor="middle" x="509" y="-7" style="font-family:Arial;font-size:10.00;">ostream</text>
</g>
<!-- Node17&#45;&gt;Node18 -->
<g id="edge42" class="edge"><title>Node17&#45;&gt;Node18</title>
<path style="fill:none;stroke:midnightblue;" d="M519,-56C518,-49 515,-39 513,-30"/>
<polygon style="fill:midnightblue;stroke:midnightblue;" points="516.393,-29.1194 511,-20 509.529,-30.4922 516.393,-29.1194"/>
</g>
</g>
</svg>
