<?xml version="1.0" encoding="UTF-8" standalone="no"?>
<!DOCTYPE svg PUBLIC "-//W3C//DTD SVG 1.0//EN"
 "http://www.w3.org/TR/2001/REC-SVG-20010904/DTD/svg10.dtd" [
 <!ATTLIST svg xmlns:xlink CDATA #FIXED "http://www.w3.org/1999/xlink">
]>
<!-- Generated by Graphviz version 2.20.2 (Tue Mar &#160;2 19:03:41 UTC 2010)
     For user: (jenkins)  -->
<!-- Title: G Pages: 1 -->
<svg width="950pt" height="364pt"
 viewBox="0.00 0.00 950.00 364.00" xmlns="http://www.w3.org/2000/svg" xmlns:xlink="http://www.w3.org/1999/xlink">
<g id="graph0" class="graph" transform="scale(1 1) rotate(0) translate(4 360)">
<title>G</title>
<polygon style="fill:white;stroke:white;" points="-4,4 -4,-360 946,-360 946,4 -4,4"/>
<!-- Node1 -->
<g id="node1" class="node"><title>Node1</title>
<polygon style="fill:#bfbfbf;stroke:black;" points="0,-336 0,-356 287,-356 287,-336 0,-336"/>
<text text-anchor="middle" x="143" y="-343" style="font-family:Arial;font-size:10.00;">ltr/learners/gp_learner/strategies/default_crossover_strategy.cc</text>
</g>
<!-- Node2 -->
<g id="node3" class="node"><title>Node2</title>
<a xlink:href="default__crossover__strategy_8h.html" target="_top" xlink:title="ltr/learners/gp_learner/strategies/default_crossover_strategy.h">
<polygon style="fill:white;stroke:black;" points="2,-280 2,-300 284,-300 284,-280 2,-280"/>
<text text-anchor="middle" x="143" y="-287" style="font-family:Arial;font-size:10.00;">ltr/learners/gp_learner/strategies/default_crossover_strategy.h</text>
</a>
</g>
<!-- Node1&#45;&gt;Node2 -->
<g id="edge2" class="edge"><title>Node1&#45;&gt;Node2</title>
<path style="fill:none;stroke:midnightblue;" d="M143,-336C143,-329 143,-319 143,-310"/>
<polygon style="fill:midnightblue;stroke:midnightblue;" points="146.5,-310 143,-300 139.5,-310 146.5,-310"/>
</g>
<!-- Node3 -->
<g id="node5" class="node"><title>Node3</title>
<polygon style="fill:white;stroke:#bfbfbf;" points="53,-168 53,-188 95,-188 95,-168 53,-168"/>
<text text-anchor="middle" x="74" y="-175" style="font-family:Arial;font-size:10.00;">vector</text>
</g>
<!-- Node2&#45;&gt;Node3 -->
<g id="edge4" class="edge"><title>Node2&#45;&gt;Node3</title>
<path style="fill:none;stroke:midnightblue;" d="M117,-280C101,-272 82,-261 73,-244 66,-230 67,-212 69,-198"/>
<polygon style="fill:midnightblue;stroke:midnightblue;" points="72.4708,-198.492 71,-188 65.6067,-197.119 72.4708,-198.492"/>
</g>
<!-- Node4 -->
<g id="node7" class="node"><title>Node4</title>
<polygon style="fill:white;stroke:#bfbfbf;" points="82,-224 82,-244 205,-244 205,-224 82,-224"/>
<text text-anchor="middle" x="143" y="-231" style="font-family:Arial;font-size:10.00;">contrib/puppy/Puppy.hpp</text>
</g>
<!-- Node2&#45;&gt;Node4 -->
<g id="edge6" class="edge"><title>Node2&#45;&gt;Node4</title>
<path style="fill:none;stroke:midnightblue;" d="M143,-280C143,-273 143,-263 143,-254"/>
<polygon style="fill:midnightblue;stroke:midnightblue;" points="146.5,-254 143,-244 139.5,-254 146.5,-254"/>
</g>
<!-- Node5 -->
<g id="node9" class="node"><title>Node5</title>
<a xlink:href="population__handler_8h.html" target="_top" xlink:title="ltr/learners/gp_learner/strategies/population_handler.h">
<polygon style="fill:white;stroke:black;" points="222,-224 222,-244 469,-244 469,-224 222,-224"/>
<text text-anchor="middle" x="345" y="-231" style="font-family:Arial;font-size:10.00;">ltr/learners/gp_learner/strategies/population_handler.h</text>
</a>
</g>
<!-- Node2&#45;&gt;Node5 -->
<g id="edge8" class="edge"><title>Node2&#45;&gt;Node5</title>
<path style="fill:none;stroke:midnightblue;" d="M179,-280C213,-271 263,-257 299,-247"/>
<polygon style="fill:midnightblue;stroke:midnightblue;" points="300.427,-250.226 309,-244 298.416,-243.521 300.427,-250.226"/>
</g>
<!-- Node5&#45;&gt;Node3 -->
<g id="edge10" class="edge"><title>Node5&#45;&gt;Node3</title>
<path style="fill:none;stroke:midnightblue;" d="M297,-224C241,-213 152,-194 105,-184"/>
<polygon style="fill:midnightblue;stroke:midnightblue;" points="105.492,-180.529 95,-182 104.119,-187.393 105.492,-180.529"/>
</g>
<!-- Node6 -->
<g id="node12" class="node"><title>Node6</title>
<a xlink:href="shared__ptr_8h.html" target="_top" xlink:title="ltr/utility/shared_ptr.h">
<polygon style="fill:white;stroke:black;" points="691,-56 691,-76 798,-76 798,-56 691,-56"/>
<text text-anchor="middle" x="744" y="-63" style="font-family:Arial;font-size:10.00;">ltr/utility/shared_ptr.h</text>
</a>
</g>
<!-- Node5&#45;&gt;Node6 -->
<g id="edge12" class="edge"><title>Node5&#45;&gt;Node6</title>
<path style="fill:none;stroke:midnightblue;" d="M369,-224C437,-195 632,-113 711,-80"/>
<polygon style="fill:midnightblue;stroke:midnightblue;" points="712.283,-83.2598 720,-76 709.44,-76.8631 712.283,-83.2598"/>
</g>
<!-- Node10 -->
<g id="node20" class="node"><title>Node10</title>
<a xlink:href="parameterized_8h.html" target="_top" xlink:title="ltr/interfaces/parameterized.h">
<polygon style="fill:white;stroke:black;" points="154,-168 154,-188 296,-188 296,-168 154,-168"/>
<text text-anchor="middle" x="225" y="-175" style="font-family:Arial;font-size:10.00;">ltr/interfaces/parameterized.h</text>
</a>
</g>
<!-- Node5&#45;&gt;Node10 -->
<g id="edge20" class="edge"><title>Node5&#45;&gt;Node10</title>
<path style="fill:none;stroke:midnightblue;" d="M324,-224C305,-215 278,-202 256,-192"/>
<polygon style="fill:midnightblue;stroke:midnightblue;" points="257.56,-188.863 247,-188 254.717,-195.26 257.56,-188.863"/>
</g>
<!-- Node13 -->
<g id="node26" class="node"><title>Node13</title>
<a xlink:href="parameters__container_8h.html" target="_top" xlink:title="ltr/parameters_container/parameters_container.h">
<polygon style="fill:white;stroke:black;" points="233,-112 233,-132 458,-132 458,-112 233,-112"/>
<text text-anchor="middle" x="345" y="-119" style="font-family:Arial;font-size:10.00;">ltr/parameters_container/parameters_container.h</text>
</a>
</g>
<!-- Node5&#45;&gt;Node13 -->
<g id="edge48" class="edge"><title>Node5&#45;&gt;Node13</title>
<path style="fill:none;stroke:midnightblue;" d="M345,-224C345,-205 345,-166 345,-142"/>
<polygon style="fill:midnightblue;stroke:midnightblue;" points="348.5,-142 345,-132 341.5,-142 348.5,-142"/>
</g>
<!-- Node7 -->
<g id="node14" class="node"><title>Node7</title>
<polygon style="fill:white;stroke:#bfbfbf;" points="762,-0 762,-20 818,-20 818,-0 762,-0"/>
<text text-anchor="middle" x="790" y="-7" style="font-family:Arial;font-size:10.00;">algorithm</text>
</g>
<!-- Node6&#45;&gt;Node7 -->
<g id="edge14" class="edge"><title>Node6&#45;&gt;Node7</title>
<path style="fill:none;stroke:midnightblue;" d="M752,-56C758,-48 767,-38 775,-28"/>
<polygon style="fill:midnightblue;stroke:midnightblue;" points="777.8,-30.1 781,-20 772.2,-25.9 777.8,-30.1"/>
</g>
<!-- Node8 -->
<g id="node16" class="node"><title>Node8</title>
<polygon style="fill:white;stroke:#bfbfbf;" points="836,-0 836,-20 943,-20 943,-0 836,-0"/>
<text text-anchor="middle" x="889" y="-7" style="font-family:Arial;font-size:10.00;">boost/shared_ptr.hpp</text>
</g>
<!-- Node6&#45;&gt;Node8 -->
<g id="edge16" class="edge"><title>Node6&#45;&gt;Node8</title>
<path style="fill:none;stroke:midnightblue;" d="M770,-56C793,-47 828,-34 854,-24"/>
<polygon style="fill:midnightblue;stroke:midnightblue;" points="855.283,-27.2598 863,-20 852.44,-20.8631 855.283,-27.2598"/>
</g>
<!-- Node9 -->
<g id="node18" class="node"><title>Node9</title>
<polygon style="fill:white;stroke:#bfbfbf;" points="554,-0 554,-20 745,-20 745,-0 554,-0"/>
<text text-anchor="middle" x="649" y="-7" style="font-family:Arial;font-size:10.00;">boost/smart_ptr/detail/operator_bool.hpp</text>
</g>
<!-- Node6&#45;&gt;Node9 -->
<g id="edge18" class="edge"><title>Node6&#45;&gt;Node9</title>
<path style="fill:none;stroke:midnightblue;" d="M727,-56C713,-48 692,-35 675,-25"/>
<polygon style="fill:midnightblue;stroke:midnightblue;" points="676.441,-21.7969 666,-20 673.042,-27.916 676.441,-21.7969"/>
</g>
<!-- Node11 -->
<g id="node22" class="node"><title>Node11</title>
<polygon style="fill:white;stroke:#bfbfbf;" points="65,-56 65,-76 124,-76 124,-56 65,-56"/>
<text text-anchor="middle" x="94" y="-63" style="font-family:Arial;font-size:10.00;">stdexcept</text>
</g>
<!-- Node10&#45;&gt;Node11 -->
<g id="edge22" class="edge"><title>Node10&#45;&gt;Node11</title>
<path style="fill:none;stroke:midnightblue;" d="M213,-168C190,-148 141,-107 114,-83"/>
<polygon style="fill:midnightblue;stroke:midnightblue;" points="115.831,-79.9511 106,-76 111.221,-85.2191 115.831,-79.9511"/>
</g>
<!-- Node12 -->
<g id="node24" class="node"><title>Node12</title>
<polygon style="fill:white;stroke:#bfbfbf;" points="417,-0 417,-20 457,-20 457,-0 417,-0"/>
<text text-anchor="middle" x="437" y="-7" style="font-family:Arial;font-size:10.00;">string</text>
</g>
<!-- Node10&#45;&gt;Node12 -->
<g id="edge24" class="edge"><title>Node10&#45;&gt;Node12</title>
<path style="fill:none;stroke:midnightblue;" d="M188,-168C125,-149 11,-107 56,-56 80,-30 321,-15 407,-11"/>
<polygon style="fill:midnightblue;stroke:midnightblue;" points="407,-14.5001 417,-11 407,-7.5001 407,-14.5001"/>
</g>
<!-- Node10&#45;&gt;Node13 -->
<g id="edge26" class="edge"><title>Node10&#45;&gt;Node13</title>
<path style="fill:none;stroke:midnightblue;" d="M246,-168C265,-159 292,-146 314,-136"/>
<polygon style="fill:midnightblue;stroke:midnightblue;" points="315.283,-139.26 323,-132 312.44,-132.863 315.283,-139.26"/>
</g>
<!-- Node13&#45;&gt;Node6 -->
<g id="edge40" class="edge"><title>Node13&#45;&gt;Node6</title>
<path style="fill:none;stroke:midnightblue;" d="M422,-112C488,-103 585,-90 681,-76"/>
<polygon style="fill:midnightblue;stroke:midnightblue;" points="681.881,-79.3933 691,-74 680.508,-72.5292 681.881,-79.3933"/>
</g>
<!-- Node13&#45;&gt;Node11 -->
<g id="edge32" class="edge"><title>Node13&#45;&gt;Node11</title>
<path style="fill:none;stroke:midnightblue;" d="M296,-112C255,-103 195,-90 134,-76"/>
<polygon style="fill:midnightblue;stroke:midnightblue;" points="134.492,-72.5292 124,-74 133.119,-79.3933 134.492,-72.5292"/>
</g>
<!-- Node13&#45;&gt;Node12 -->
<g id="edge34" class="edge"><title>Node13&#45;&gt;Node12</title>
<path style="fill:none;stroke:midnightblue;" d="M369,-112C385,-104 405,-92 418,-76 427,-63 433,-44 435,-30"/>
<polygon style="fill:midnightblue;stroke:midnightblue;" points="438.488,-30.2987 436,-20 431.522,-29.6021 438.488,-30.2987"/>
</g>
<!-- Node14 -->
<g id="node28" class="node"><title>Node14</title>
<polygon style="fill:white;stroke:#bfbfbf;" points="599,-56 599,-76 673,-76 673,-56 599,-56"/>
<text text-anchor="middle" x="636" y="-63" style="font-family:Arial;font-size:10.00;">logog/logog.h</text>
</g>
<!-- Node13&#45;&gt;Node14 -->
<g id="edge28" class="edge"><title>Node13&#45;&gt;Node14</title>
<path style="fill:none;stroke:midnightblue;" d="M399,-112C447,-103 517,-90 589,-76"/>
<polygon style="fill:midnightblue;stroke:midnightblue;" points="589.881,-79.3933 599,-74 588.508,-72.5292 589.881,-79.3933"/>
</g>
<!-- Node15 -->
<g id="node30" class="node"><title>Node15</title>
<polygon style="fill:white;stroke:#bfbfbf;" points="141,-56 141,-76 170,-76 170,-56 141,-56"/>
<text text-anchor="middle" x="155" y="-63" style="font-family:Arial;font-size:10.00;">list</text>
</g>
<!-- Node13&#45;&gt;Node15 -->
<g id="edge30" class="edge"><title>Node13&#45;&gt;Node15</title>
<path style="fill:none;stroke:midnightblue;" d="M303,-112C271,-104 225,-92 179,-76"/>
<polygon style="fill:midnightblue;stroke:midnightblue;" points="180.594,-72.842 170,-73 178.38,-79.4827 180.594,-72.842"/>
</g>
<!-- Node16 -->
<g id="node34" class="node"><title>Node16</title>
<polygon style="fill:white;stroke:#bfbfbf;" points="187,-56 187,-76 264,-76 264,-56 187,-56"/>
<text text-anchor="middle" x="225" y="-63" style="font-family:Arial;font-size:10.00;">boost/any.hpp</text>
</g>
<!-- Node13&#45;&gt;Node16 -->
<g id="edge36" class="edge"><title>Node13&#45;&gt;Node16</title>
<path style="fill:none;stroke:midnightblue;" d="M324,-112C305,-103 278,-90 256,-80"/>
<polygon style="fill:midnightblue;stroke:midnightblue;" points="257.56,-76.8631 247,-76 254.717,-83.2598 257.56,-76.8631"/>
</g>
<!-- Node17 -->
<g id="node36" class="node"><title>Node17</title>
<polygon style="fill:white;stroke:#bfbfbf;" points="281,-56 281,-76 410,-76 410,-56 281,-56"/>
<text text-anchor="middle" x="345" y="-63" style="font-family:Arial;font-size:10.00;">boost/unordered_map.hpp</text>
</g>
<!-- Node13&#45;&gt;Node17 -->
<g id="edge38" class="edge"><title>Node13&#45;&gt;Node17</title>
<path style="fill:none;stroke:midnightblue;" d="M345,-112C345,-105 345,-95 345,-86"/>
<polygon style="fill:midnightblue;stroke:midnightblue;" points="348.5,-86 345,-76 341.5,-86 348.5,-86"/>
</g>
<!-- Node18 -->
<g id="node39" class="node"><title>Node18</title>
<a xlink:href="printable_8h.html" target="_top" xlink:title="ltr/interfaces/printable.h">
<polygon style="fill:white;stroke:black;" points="465,-56 465,-76 582,-76 582,-56 465,-56"/>
<text text-anchor="middle" x="523" y="-63" style="font-family:Arial;font-size:10.00;">ltr/interfaces/printable.h</text>
</a>
</g>
<!-- Node13&#45;&gt;Node18 -->
<g id="edge42" class="edge"><title>Node13&#45;&gt;Node18</title>
<path style="fill:none;stroke:midnightblue;" d="M377,-112C406,-103 449,-89 481,-79"/>
<polygon style="fill:midnightblue;stroke:midnightblue;" points="482.427,-82.2259 491,-76 480.416,-75.5212 482.427,-82.2259"/>
</g>
<!-- Node18&#45;&gt;Node12 -->
<g id="edge46" class="edge"><title>Node18&#45;&gt;Node12</title>
<path style="fill:none;stroke:midnightblue;" d="M508,-56C495,-48 476,-35 461,-26"/>
<polygon style="fill:midnightblue;stroke:midnightblue;" points="463.1,-23.2 453,-20 458.9,-28.8 463.1,-23.2"/>
</g>
<!-- Node19 -->
<g id="node41" class="node"><title>Node19</title>
<polygon style="fill:white;stroke:#bfbfbf;" points="486,-0 486,-20 537,-20 537,-0 486,-0"/>
<text text-anchor="middle" x="511" y="-7" style="font-family:Arial;font-size:10.00;">ostream</text>
</g>
<!-- Node18&#45;&gt;Node19 -->
<g id="edge44" class="edge"><title>Node18&#45;&gt;Node19</title>
<path style="fill:none;stroke:midnightblue;" d="M521,-56C520,-49 517,-39 515,-30"/>
<polygon style="fill:midnightblue;stroke:midnightblue;" points="518.393,-29.1194 513,-20 511.529,-30.4922 518.393,-29.1194"/>
</g>
</g>
</svg>
