<?xml version="1.0" encoding="UTF-8" standalone="no"?>
<!DOCTYPE svg PUBLIC "-//W3C//DTD SVG 1.0//EN"
 "http://www.w3.org/TR/2001/REC-SVG-20010904/DTD/svg10.dtd" [
 <!ATTLIST svg xmlns:xlink CDATA #FIXED "http://www.w3.org/1999/xlink">
]>
<!-- Generated by Graphviz version 2.20.2 (Tue Mar &#160;2 19:03:41 UTC 2010)
     For user: (jenkins)  -->
<!-- Title: G Pages: 1 -->
<svg width="474pt" height="84pt"
 viewBox="0.00 0.00 474.00 84.00" xmlns="http://www.w3.org/2000/svg" xmlns:xlink="http://www.w3.org/1999/xlink">
<g id="graph0" class="graph" transform="scale(1 1) rotate(0) translate(4 80)">
<title>G</title>
<polygon style="fill:white;stroke:white;" points="-4,4 -4,-80 470,-80 470,4 -4,4"/>
<!-- Node1 -->
<g id="node1" class="node"><title>Node1</title>
<polygon style="fill:#bfbfbf;stroke:black;" points="0,-56 0,-76 282,-76 282,-56 0,-56"/>
<text text-anchor="middle" x="141" y="-63" style="font-family:Arial;font-size:10.00;">ltr/learners/gp_learner/strategies/default_crossover_strategy.h</text>
</g>
<!-- Node2 -->
<g id="node3" class="node"><title>Node2</title>
<polygon style="fill:white;stroke:#bfbfbf;" points="20,-0 20,-20 62,-20 62,-0 20,-0"/>
<text text-anchor="middle" x="41" y="-7" style="font-family:Arial;font-size:10.00;">vector</text>
</g>
<!-- Node1&#45;&gt;Node2 -->
<g id="edge2" class="edge"><title>Node1&#45;&gt;Node2</title>
<path style="fill:none;stroke:midnightblue;" d="M123,-56C108,-48 86,-35 68,-25"/>
<polygon style="fill:midnightblue;stroke:midnightblue;" points="69.4414,-21.7969 59,-20 66.0418,-27.916 69.4414,-21.7969"/>
</g>
<!-- Node3 -->
<g id="node5" class="node"><title>Node3</title>
<polygon style="fill:white;stroke:#bfbfbf;" points="80,-0 80,-20 203,-20 203,-0 80,-0"/>
<text text-anchor="middle" x="141" y="-7" style="font-family:Arial;font-size:10.00;">contrib/puppy/Puppy.hpp</text>
</g>
<!-- Node1&#45;&gt;Node3 -->
<g id="edge4" class="edge"><title>Node1&#45;&gt;Node3</title>
<path style="fill:none;stroke:midnightblue;" d="M141,-56C141,-49 141,-39 141,-30"/>
<polygon style="fill:midnightblue;stroke:midnightblue;" points="144.5,-30 141,-20 137.5,-30 144.5,-30"/>
</g>
<!-- Node4 -->
<g id="node7" class="node"><title>Node4</title>
<polygon style="fill:white;stroke:#bfbfbf;" points="220,-0 220,-20 467,-20 467,-0 220,-0"/>
<text text-anchor="middle" x="343" y="-7" style="font-family:Arial;font-size:10.00;">ltr/learners/gp_learner/strategies/population_handler.h</text>
</g>
<!-- Node1&#45;&gt;Node4 -->
<g id="edge6" class="edge"><title>Node1&#45;&gt;Node4</title>
<path style="fill:none;stroke:midnightblue;" d="M177,-56C211,-47 261,-33 297,-23"/>
<polygon style="fill:midnightblue;stroke:midnightblue;" points="298.427,-26.2259 307,-20 296.416,-19.5212 298.427,-26.2259"/>
</g>
</g>
</svg>
