<?xml version="1.0" encoding="UTF-8" standalone="no"?>
<!DOCTYPE svg PUBLIC "-//W3C//DTD SVG 1.0//EN"
 "http://www.w3.org/TR/2001/REC-SVG-20010904/DTD/svg10.dtd" [
 <!ATTLIST svg xmlns:xlink CDATA #FIXED "http://www.w3.org/1999/xlink">
]>
<!-- Generated by Graphviz version 2.20.2 (Tue Mar &#160;2 19:03:41 UTC 2010)
     For user: (jenkins)  -->
<!-- Title: G Pages: 1 -->
<svg width="3909pt" height="252pt"
 viewBox="0.00 0.00 3909.00 252.00" xmlns="http://www.w3.org/2000/svg" xmlns:xlink="http://www.w3.org/1999/xlink">
<g id="graph0" class="graph" transform="scale(1 1) rotate(0) translate(4 248)">
<title>G</title>
<polygon style="fill:white;stroke:white;" points="-4,4 -4,-248 3905,-248 3905,4 -4,4"/>
<!-- Node1 -->
<g id="node1" class="node"><title>Node1</title>
<polygon style="fill:#bfbfbf;stroke:black;" points="1946,-224 1946,-244 2237,-244 2237,-224 1946,-224"/>
<text text-anchor="middle" x="2091" y="-231" style="font-family:Arial;font-size:10.00;">ltr/density_estimators/density_estimators_learners_unittests.cc</text>
</g>
<!-- Node2 -->
<g id="node3" class="node"><title>Node2</title>
<polygon style="fill:white;stroke:#bfbfbf;" points="1582,-0 1582,-20 1654,-20 1654,-0 1582,-0"/>
<text text-anchor="middle" x="1618" y="-7" style="font-family:Arial;font-size:10.00;">Eigen/Dense</text>
</g>
<!-- Node1&#45;&gt;Node2 -->
<g id="edge2" class="edge"><title>Node1&#45;&gt;Node2</title>
<path style="fill:none;stroke:midnightblue;" d="M1946,-228C1618,-215 837,-178 727,-132 693,-117 680,-110 664,-76 661,-67 658,-62 664,-56 698,-21 1480,-23 1527,-20 1541,-18 1557,-17 1572,-15"/>
<polygon style="fill:midnightblue;stroke:midnightblue;" points="1572.4,-18.4778 1582,-14 1571.7,-11.5125 1572.4,-18.4778"/>
</g>
<!-- Node3 -->
<g id="node5" class="node"><title>Node3</title>
<polygon style="fill:white;stroke:#bfbfbf;" points="2032,-0 2032,-20 2067,-20 2067,-0 2032,-0"/>
<text text-anchor="middle" x="2049" y="-7" style="font-family:Arial;font-size:10.00;">map</text>
</g>
<!-- Node1&#45;&gt;Node3 -->
<g id="edge4" class="edge"><title>Node1&#45;&gt;Node3</title>
<path style="fill:none;stroke:midnightblue;" d="M2237,-229C2648,-213 3775,-159 3674,-56 3667,-48 2293,-16 2077,-10"/>
<polygon style="fill:midnightblue;stroke:midnightblue;" points="2077,-6.5001 2067,-10 2077,-13.5001 2077,-6.5001"/>
</g>
<!-- Node4 -->
<g id="node7" class="node"><title>Node4</title>
<polygon style="fill:white;stroke:#bfbfbf;" points="1476,-0 1476,-20 1518,-20 1518,-0 1476,-0"/>
<text text-anchor="middle" x="1497" y="-7" style="font-family:Arial;font-size:10.00;">vector</text>
</g>
<!-- Node1&#45;&gt;Node4 -->
<g id="edge6" class="edge"><title>Node1&#45;&gt;Node4</title>
<path style="fill:none;stroke:midnightblue;" d="M1946,-231C1684,-225 1141,-211 953,-188 814,-170 693,-212 657,-76 655,-67 651,-62 657,-56 672,-41 1314,-16 1466,-11"/>
<polygon style="fill:midnightblue;stroke:midnightblue;" points="1466,-14.5001 1476,-11 1466,-7.5001 1466,-14.5001"/>
</g>
<!-- Node5 -->
<g id="node9" class="node"><title>Node5</title>
<polygon style="fill:white;stroke:#bfbfbf;" points="1636,-168 1636,-188 1707,-188 1707,-168 1636,-168"/>
<text text-anchor="middle" x="1671" y="-175" style="font-family:Arial;font-size:10.00;">gtest/gtest.h</text>
</g>
<!-- Node1&#45;&gt;Node5 -->
<g id="edge8" class="edge"><title>Node1&#45;&gt;Node5</title>
<path style="fill:none;stroke:midnightblue;" d="M1995,-224C1920,-216 1813,-203 1720,-188 1719,-188 1718,-188 1717,-187"/>
<polygon style="fill:midnightblue;stroke:midnightblue;" points="1717.49,-183.529 1707,-185 1716.12,-190.393 1717.49,-183.529"/>
</g>
<!-- Node6 -->
<g id="node11" class="node"><title>Node6</title>
<a xlink:href="fisher__discriminant__density__learner_8h.html" target="_top" xlink:title="ltr/density_estimators/fisher_discriminant_density_learner.h">
<polygon style="fill:white;stroke:black;" points="1762,-168 1762,-188 2035,-188 2035,-168 1762,-168"/>
<text text-anchor="middle" x="1898" y="-175" style="font-family:Arial;font-size:10.00;">ltr/density_estimators/fisher_discriminant_density_learner.h</text>
</a>
</g>
<!-- Node1&#45;&gt;Node6 -->
<g id="edge10" class="edge"><title>Node1&#45;&gt;Node6</title>
<path style="fill:none;stroke:midnightblue;" d="M2056,-224C2024,-215 1977,-201 1943,-191"/>
<polygon style="fill:midnightblue;stroke:midnightblue;" points="1943.58,-187.521 1933,-188 1941.57,-194.226 1943.58,-187.521"/>
</g>
<!-- Node8 -->
<g id="node18" class="node"><title>Node8</title>
<polygon style="fill:white;stroke:#bfbfbf;" points="2521,-0 2521,-20 2794,-20 2794,-0 2521,-0"/>
<text text-anchor="middle" x="2657" y="-7" style="font-family:Arial;font-size:10.00;">ltr/density_estimators/base_probability_density_estimator.h</text>
</g>
<!-- Node1&#45;&gt;Node8 -->
<g id="edge178" class="edge"><title>Node1&#45;&gt;Node8</title>
<path style="fill:none;stroke:midnightblue;" d="M2237,-232C2617,-225 3612,-196 3691,-76 3695,-68 3697,-62 3691,-56 3676,-40 3087,-21 2804,-14"/>
<polygon style="fill:midnightblue;stroke:midnightblue;" points="2804,-10.5001 2794,-14 2804,-17.5001 2804,-10.5001"/>
</g>
<!-- Node14 -->
<g id="node39" class="node"><title>Node14</title>
<polygon style="fill:white;stroke:#bfbfbf;" points="0,-0 0,-20 107,-20 107,-0 0,-0"/>
<text text-anchor="middle" x="53" y="-7" style="font-family:Arial;font-size:10.00;">ltr/utility/shared_ptr.h</text>
</g>
<!-- Node1&#45;&gt;Node14 -->
<g id="edge186" class="edge"><title>Node1&#45;&gt;Node14</title>
<path style="fill:none;stroke:midnightblue;" d="M1946,-232C1646,-226 966,-212 734,-188 453,-158 353,-218 108,-76 89,-64 73,-44 64,-29"/>
<polygon style="fill:midnightblue;stroke:midnightblue;" points="66.916,-27.0418 59,-20 60.7969,-30.4414 66.916,-27.0418"/>
</g>
<!-- Node20 -->
<g id="node53" class="node"><title>Node20</title>
<polygon style="fill:white;stroke:#bfbfbf;" points="1775,-56 1775,-76 1870,-76 1870,-56 1775,-56"/>
<text text-anchor="middle" x="1822" y="-63" style="font-family:Arial;font-size:10.00;">ltr/data/data_set.h</text>
</g>
<!-- Node1&#45;&gt;Node20 -->
<g id="edge188" class="edge"><title>Node1&#45;&gt;Node20</title>
<path style="fill:none;stroke:midnightblue;" d="M1958,-224C1869,-216 1766,-204 1753,-188 1725,-154 1772,-107 1801,-82"/>
<polygon style="fill:midnightblue;stroke:midnightblue;" points="1803.1,-84.8 1809,-76 1798.9,-79.2 1803.1,-84.8"/>
</g>
<!-- Node26 -->
<g id="node75" class="node"><title>Node26</title>
<polygon style="fill:white;stroke:#bfbfbf;" points="2400,-112 2400,-132 2602,-132 2602,-112 2400,-112"/>
<text text-anchor="middle" x="2501" y="-119" style="font-family:Arial;font-size:10.00;">ltr/density_estimators/fisher_discriminant.h</text>
</g>
<!-- Node1&#45;&gt;Node26 -->
<g id="edge180" class="edge"><title>Node1&#45;&gt;Node26</title>
<path style="fill:none;stroke:midnightblue;" d="M2128,-224C2202,-203 2372,-157 2454,-135"/>
<polygon style="fill:midnightblue;stroke:midnightblue;" points="2455.43,-138.226 2464,-132 2453.42,-131.521 2455.43,-138.226"/>
</g>
<!-- Node29 -->
<g id="node81" class="node"><title>Node29</title>
<a xlink:href="quadratic__discriminant__density__learner_8h.html" target="_top" xlink:title="ltr/density_estimators/quadratic_discriminant_density_learner.h">
<polygon style="fill:white;stroke:black;" points="2619,-168 2619,-188 2908,-188 2908,-168 2619,-168"/>
<text text-anchor="middle" x="2763" y="-175" style="font-family:Arial;font-size:10.00;">ltr/density_estimators/quadratic_discriminant_density_learner.h</text>
</a>
</g>
<!-- Node1&#45;&gt;Node29 -->
<g id="edge104" class="edge"><title>Node1&#45;&gt;Node29</title>
<path style="fill:none;stroke:midnightblue;" d="M2211,-224C2330,-214 2511,-199 2633,-189"/>
<polygon style="fill:midnightblue;stroke:midnightblue;" points="2633.4,-192.478 2643,-188 2632.7,-185.512 2633.4,-192.478"/>
</g>
<!-- Node32 -->
<g id="node106" class="node"><title>Node32</title>
<polygon style="fill:white;stroke:#bfbfbf;" points="3443,-56 3443,-76 3666,-76 3666,-56 3443,-56"/>
<text text-anchor="middle" x="3554" y="-63" style="font-family:Arial;font-size:10.00;">ltr/density_estimators/non_linear_discriminant.h</text>
</g>
<!-- Node1&#45;&gt;Node32 -->
<g id="edge182" class="edge"><title>Node1&#45;&gt;Node32</title>
<path style="fill:none;stroke:midnightblue;" d="M2237,-231C2402,-227 2679,-216 2916,-188 3051,-171 3083,-157 3217,-132 3313,-113 3425,-91 3493,-78"/>
<polygon style="fill:midnightblue;stroke:midnightblue;" points="3493.88,-81.3933 3503,-76 3492.51,-74.5292 3493.88,-81.3933"/>
</g>
<!-- Node34 -->
<g id="node114" class="node"><title>Node34</title>
<a xlink:href="normal__naive__bayes__density__learner_8h.html" target="_top" xlink:title="ltr/density_estimators/normal_naive_bayes_density_learner.h">
<polygon style="fill:white;stroke:black;" points="1952,-112 1952,-132 2231,-132 2231,-112 1952,-112"/>
<text text-anchor="middle" x="2091" y="-119" style="font-family:Arial;font-size:10.00;">ltr/density_estimators/normal_naive_bayes_density_learner.h</text>
</a>
</g>
<!-- Node1&#45;&gt;Node34 -->
<g id="edge160" class="edge"><title>Node1&#45;&gt;Node34</title>
<path style="fill:none;stroke:midnightblue;" d="M2091,-224C2091,-205 2091,-166 2091,-142"/>
<polygon style="fill:midnightblue;stroke:midnightblue;" points="2094.5,-142 2091,-132 2087.5,-142 2094.5,-142"/>
</g>
<!-- Node35 -->
<g id="node127" class="node"><title>Node35</title>
<polygon style="fill:white;stroke:#bfbfbf;" points="3797,-168 3797,-188 3901,-188 3901,-168 3797,-168"/>
<text text-anchor="middle" x="3849" y="-175" style="font-family:Arial;font-size:10.00;">ltr/utility/numerical.h</text>
</g>
<!-- Node1&#45;&gt;Node35 -->
<g id="edge184" class="edge"><title>Node1&#45;&gt;Node35</title>
<path style="fill:none;stroke:midnightblue;" d="M2237,-232C2590,-228 3485,-214 3783,-188 3784,-188 3786,-188 3787,-188"/>
<polygon style="fill:midnightblue;stroke:midnightblue;" points="3787.88,-191.393 3797,-186 3786.51,-184.529 3787.88,-191.393"/>
</g>
<!-- Node6&#45;&gt;Node2 -->
<g id="edge12" class="edge"><title>Node6&#45;&gt;Node2</title>
<path style="fill:none;stroke:midnightblue;" d="M1815,-168C1712,-154 1545,-124 1508,-76 1487,-48 1533,-29 1572,-19"/>
<polygon style="fill:midnightblue;stroke:midnightblue;" points="1572.88,-22.3933 1582,-17 1571.51,-15.5292 1572.88,-22.3933"/>
</g>
<!-- Node6&#45;&gt;Node3 -->
<g id="edge14" class="edge"><title>Node6&#45;&gt;Node3</title>
<path style="fill:none;stroke:midnightblue;" d="M1904,-168C1912,-154 1927,-130 1943,-112 1971,-79 2007,-46 2029,-27"/>
<polygon style="fill:midnightblue;stroke:midnightblue;" points="2031.78,-29.2191 2037,-20 2027.17,-23.9511 2031.78,-29.2191"/>
</g>
<!-- Node6&#45;&gt;Node4 -->
<g id="edge18" class="edge"><title>Node6&#45;&gt;Node4</title>
<path style="fill:none;stroke:midnightblue;" d="M1775,-168C1697,-160 1604,-148 1567,-132 1532,-116 1518,-110 1500,-76 1493,-62 1493,-44 1494,-30"/>
<polygon style="fill:midnightblue;stroke:midnightblue;" points="1497.49,-30.2987 1495,-20 1490.52,-29.6021 1497.49,-30.2987"/>
</g>
<!-- Node7 -->
<g id="node15" class="node"><title>Node7</title>
<polygon style="fill:white;stroke:#bfbfbf;" points="1838,-112 1838,-132 1897,-132 1897,-112 1838,-112"/>
<text text-anchor="middle" x="1867" y="-119" style="font-family:Arial;font-size:10.00;">stdexcept</text>
</g>
<!-- Node6&#45;&gt;Node7 -->
<g id="edge16" class="edge"><title>Node6&#45;&gt;Node7</title>
<path style="fill:none;stroke:midnightblue;" d="M1892,-168C1888,-161 1882,-150 1878,-141"/>
<polygon style="fill:midnightblue;stroke:midnightblue;" points="1880.92,-139.042 1873,-132 1874.8,-142.441 1880.92,-139.042"/>
</g>
<!-- Node6&#45;&gt;Node8 -->
<g id="edge20" class="edge"><title>Node6&#45;&gt;Node8</title>
<path style="fill:none;stroke:midnightblue;" d="M2035,-169C2098,-162 2173,-151 2239,-132 2259,-126 2262,-119 2282,-112 2340,-90 2359,-97 2418,-76 2437,-68 2441,-62 2461,-56 2502,-41 2551,-30 2589,-22"/>
<polygon style="fill:midnightblue;stroke:midnightblue;" points="2589.88,-25.3933 2599,-20 2588.51,-18.5292 2589.88,-25.3933"/>
</g>
<!-- Node9 -->
<g id="node20" class="node"><title>Node9</title>
<a xlink:href="fisher__discriminant_8h.html" target="_top" xlink:title="ltr/density_estimators/fisher_discriminant.h">
<polygon style="fill:white;stroke:black;" points="1517,-56 1517,-76 1719,-76 1719,-56 1517,-56"/>
<text text-anchor="middle" x="1618" y="-63" style="font-family:Arial;font-size:10.00;">ltr/density_estimators/fisher_discriminant.h</text>
</a>
</g>
<!-- Node6&#45;&gt;Node9 -->
<g id="edge22" class="edge"><title>Node6&#45;&gt;Node9</title>
<path style="fill:none;stroke:midnightblue;" d="M1873,-168C1823,-147 1710,-102 1653,-80"/>
<polygon style="fill:midnightblue;stroke:midnightblue;" points="1654.56,-76.8631 1644,-76 1651.72,-83.2598 1654.56,-76.8631"/>
</g>
<!-- Node11 -->
<g id="node27" class="node"><title>Node11</title>
<polygon style="fill:white;stroke:#bfbfbf;" points="1131,-0 1131,-20 1215,-20 1215,-0 1131,-0"/>
<text text-anchor="middle" x="1173" y="-7" style="font-family:Arial;font-size:10.00;">ltr/data/object.h</text>
</g>
<!-- Node6&#45;&gt;Node11 -->
<g id="edge80" class="edge"><title>Node6&#45;&gt;Node11</title>
<path style="fill:none;stroke:midnightblue;" d="M1762,-170C1746,-169 1730,-169 1715,-168 1606,-163 830,-170 727,-132 690,-118 675,-111 657,-76 654,-67 652,-62 657,-56 688,-22 995,-13 1121,-11"/>
<polygon style="fill:midnightblue;stroke:midnightblue;" points="1121,-14.5001 1131,-11 1121,-7.5001 1121,-14.5001"/>
</g>
<!-- Node12 -->
<g id="node30" class="node"><title>Node12</title>
<a xlink:href="base__probability__density__learner_8h.html" target="_top" xlink:title="ltr/density_estimators/base_probability_density_learner.h">
<polygon style="fill:white;stroke:black;" points="736,-112 736,-132 998,-132 998,-112 736,-112"/>
<text text-anchor="middle" x="867" y="-119" style="font-family:Arial;font-size:10.00;">ltr/density_estimators/base_probability_density_learner.h</text>
</a>
</g>
<!-- Node6&#45;&gt;Node12 -->
<g id="edge36" class="edge"><title>Node6&#45;&gt;Node12</title>
<path style="fill:none;stroke:midnightblue;" d="M1762,-170C1746,-170 1730,-169 1715,-168 1467,-154 1177,-139 1008,-130"/>
<polygon style="fill:midnightblue;stroke:midnightblue;" points="1008.3,-126.512 998,-129 1007.6,-133.478 1008.3,-126.512"/>
</g>
<!-- Node6&#45;&gt;Node20 -->
<g id="edge78" class="edge"><title>Node6&#45;&gt;Node20</title>
<path style="fill:none;stroke:midnightblue;" d="M1873,-168C1858,-160 1839,-148 1829,-132 1820,-118 1819,-100 1819,-86"/>
<polygon style="fill:midnightblue;stroke:midnightblue;" points="1822.49,-86.2987 1820,-76 1815.52,-85.6021 1822.49,-86.2987"/>
</g>
<!-- Node22 -->
<g id="node63" class="node"><title>Node22</title>
<polygon style="fill:white;stroke:#bfbfbf;" points="2749,-56 2749,-76 2920,-76 2920,-56 2749,-56"/>
<text text-anchor="middle" x="2834" y="-63" style="font-family:Arial;font-size:10.00;">ltr/data/utility/data_set_converters.h</text>
</g>
<!-- Node6&#45;&gt;Node22 -->
<g id="edge82" class="edge"><title>Node6&#45;&gt;Node22</title>
<path style="fill:none;stroke:midnightblue;" d="M2032,-168C2140,-159 2284,-146 2341,-132 2364,-126 2367,-117 2391,-112 2455,-96 2629,-81 2739,-73"/>
<polygon style="fill:midnightblue;stroke:midnightblue;" points="2739.4,-76.4778 2749,-72 2738.7,-69.5125 2739.4,-76.4778"/>
</g>
<!-- Node23 -->
<g id="node65" class="node"><title>Node23</title>
<a xlink:href="statistics__calculation_8h.html" target="_top" xlink:title="ltr/utility/statistics_calculation.h">
<polygon style="fill:white;stroke:black;" points="1271,-112 1271,-132 1424,-132 1424,-112 1271,-112"/>
<text text-anchor="middle" x="1347" y="-119" style="font-family:Arial;font-size:10.00;">ltr/utility/statistics_calculation.h</text>
</a>
</g>
<!-- Node6&#45;&gt;Node23 -->
<g id="edge84" class="edge"><title>Node6&#45;&gt;Node23</title>
<path style="fill:none;stroke:midnightblue;" d="M1796,-168C1703,-159 1561,-145 1437,-132 1436,-132 1435,-132 1434,-131"/>
<polygon style="fill:midnightblue;stroke:midnightblue;" points="1434.3,-127.512 1424,-130 1433.6,-134.478 1434.3,-127.512"/>
</g>
<!-- Node6&#45;&gt;Node26 -->
<g id="edge98" class="edge"><title>Node6&#45;&gt;Node26</title>
<path style="fill:none;stroke:midnightblue;" d="M2006,-168C2114,-158 2280,-143 2390,-132"/>
<polygon style="fill:midnightblue;stroke:midnightblue;" points="2390.4,-135.478 2400,-131 2389.7,-128.512 2390.4,-135.478"/>
</g>
<!-- Node27 -->
<g id="node77" class="node"><title>Node27</title>
<polygon style="fill:white;stroke:#bfbfbf;" points="3031,-0 3031,-20 3293,-20 3293,-0 3031,-0"/>
<text text-anchor="middle" x="3162" y="-7" style="font-family:Arial;font-size:10.00;">ltr/density_estimators/base_probability_density_learner.h</text>
</g>
<!-- Node6&#45;&gt;Node27 -->
<g id="edge100" class="edge"><title>Node6&#45;&gt;Node27</title>
<path style="fill:none;stroke:midnightblue;" d="M2014,-168C2105,-159 2223,-146 2270,-132 2289,-126 2291,-118 2310,-112 2369,-89 2388,-97 2449,-76 2469,-68 2472,-61 2494,-56 2590,-32 2855,-20 3021,-14"/>
<polygon style="fill:midnightblue;stroke:midnightblue;" points="3021,-17.5001 3031,-14 3021,-10.5001 3021,-17.5001"/>
</g>
<!-- Node28 -->
<g id="node79" class="node"><title>Node28</title>
<polygon style="fill:white;stroke:#bfbfbf;" points="2503,-56 2503,-76 2656,-76 2656,-56 2503,-56"/>
<text text-anchor="middle" x="2579" y="-63" style="font-family:Arial;font-size:10.00;">ltr/utility/statistics_calculation.h</text>
</g>
<!-- Node6&#45;&gt;Node28 -->
<g id="edge102" class="edge"><title>Node6&#45;&gt;Node28</title>
<path style="fill:none;stroke:midnightblue;" d="M2022,-168C2123,-159 2257,-146 2310,-132 2332,-126 2335,-118 2358,-112 2405,-97 2460,-86 2504,-78"/>
<polygon style="fill:midnightblue;stroke:midnightblue;" points="2504.88,-81.3933 2514,-76 2503.51,-74.5292 2504.88,-81.3933"/>
</g>
<!-- Node9&#45;&gt;Node2 -->
<g id="edge24" class="edge"><title>Node9&#45;&gt;Node2</title>
<path style="fill:none;stroke:midnightblue;" d="M1618,-56C1618,-49 1618,-39 1618,-30"/>
<polygon style="fill:midnightblue;stroke:midnightblue;" points="1621.5,-30 1618,-20 1614.5,-30 1621.5,-30"/>
</g>
<!-- Node9&#45;&gt;Node3 -->
<g id="edge26" class="edge"><title>Node9&#45;&gt;Node3</title>
<path style="fill:none;stroke:midnightblue;" d="M1695,-56C1793,-44 1957,-22 2022,-13"/>
<polygon style="fill:midnightblue;stroke:midnightblue;" points="2022.4,-16.4778 2032,-12 2021.7,-9.5125 2022.4,-16.4778"/>
</g>
<!-- Node9&#45;&gt;Node4 -->
<g id="edge30" class="edge"><title>Node9&#45;&gt;Node4</title>
<path style="fill:none;stroke:midnightblue;" d="M1596,-56C1577,-47 1549,-34 1527,-24"/>
<polygon style="fill:midnightblue;stroke:midnightblue;" points="1528.56,-20.8631 1518,-20 1525.72,-27.2598 1528.56,-20.8631"/>
</g>
<!-- Node9&#45;&gt;Node8 -->
<g id="edge34" class="edge"><title>Node9&#45;&gt;Node8</title>
<path style="fill:none;stroke:midnightblue;" d="M1719,-59C1735,-58 1751,-57 1766,-56 2028,-40 2334,-25 2511,-16"/>
<polygon style="fill:midnightblue;stroke:midnightblue;" points="2511,-19.5001 2521,-16 2511,-12.5001 2511,-19.5001"/>
</g>
<!-- Node10 -->
<g id="node24" class="node"><title>Node10</title>
<polygon style="fill:white;stroke:#bfbfbf;" points="1823,-0 1823,-20 1863,-20 1863,-0 1823,-0"/>
<text text-anchor="middle" x="1843" y="-7" style="font-family:Arial;font-size:10.00;">string</text>
</g>
<!-- Node9&#45;&gt;Node10 -->
<g id="edge28" class="edge"><title>Node9&#45;&gt;Node10</title>
<path style="fill:none;stroke:midnightblue;" d="M1658,-56C1703,-45 1773,-27 1813,-17"/>
<polygon style="fill:midnightblue;stroke:midnightblue;" points="1813.88,-20.3933 1823,-15 1812.51,-13.5292 1813.88,-20.3933"/>
</g>
<!-- Node9&#45;&gt;Node11 -->
<g id="edge32" class="edge"><title>Node9&#45;&gt;Node11</title>
<path style="fill:none;stroke:midnightblue;" d="M1538,-56C1447,-45 1302,-27 1225,-16"/>
<polygon style="fill:midnightblue;stroke:midnightblue;" points="1225.3,-12.5125 1215,-15 1224.6,-19.4778 1225.3,-12.5125"/>
</g>
<!-- Node12&#45;&gt;Node2 -->
<g id="edge40" class="edge"><title>Node12&#45;&gt;Node2</title>
<path style="fill:none;stroke:midnightblue;" d="M898,-112C949,-95 1050,-63 1087,-56 1280,-19 1332,-38 1527,-20 1541,-18 1557,-17 1572,-15"/>
<polygon style="fill:midnightblue;stroke:midnightblue;" points="1572.4,-18.4778 1582,-14 1571.7,-11.5125 1572.4,-18.4778"/>
</g>
<!-- Node12&#45;&gt;Node3 -->
<g id="edge38" class="edge"><title>Node12&#45;&gt;Node3</title>
<path style="fill:none;stroke:midnightblue;" d="M913,-112C952,-103 1011,-90 1061,-76 1090,-68 1096,-61 1125,-56 1453,2 1541,-37 1872,-20 1924,-16 1986,-14 2022,-12"/>
<polygon style="fill:midnightblue;stroke:midnightblue;" points="2022.4,-15.4778 2032,-11 2021.7,-8.5125 2022.4,-15.4778"/>
</g>
<!-- Node12&#45;&gt;Node8 -->
<g id="edge76" class="edge"><title>Node12&#45;&gt;Node8</title>
<path style="fill:none;stroke:midnightblue;" d="M932,-112C980,-104 1046,-92 1103,-76 1129,-69 1133,-60 1158,-56 1223,-43 2147,-21 2511,-13"/>
<polygon style="fill:midnightblue;stroke:midnightblue;" points="2511,-16.5001 2521,-13 2511,-9.5001 2511,-16.5001"/>
</g>
<!-- Node12&#45;&gt;Node11 -->
<g id="edge68" class="edge"><title>Node12&#45;&gt;Node11</title>
<path style="fill:none;stroke:midnightblue;" d="M773,-112C727,-105 678,-94 664,-76 659,-69 659,-62 664,-56 695,-23 997,-14 1121,-11"/>
<polygon style="fill:midnightblue;stroke:midnightblue;" points="1121,-14.5001 1131,-11 1121,-7.5001 1121,-14.5001"/>
</g>
<!-- Node13 -->
<g id="node34" class="node"><title>Node13</title>
<a xlink:href="eigen__converters_8h.html" target="_top" xlink:title="ltr/utility/eigen_converters.h">
<polygon style="fill:white;stroke:black;" points="863,-56 863,-76 998,-76 998,-56 863,-56"/>
<text text-anchor="middle" x="930" y="-63" style="font-family:Arial;font-size:10.00;">ltr/utility/eigen_converters.h</text>
</a>
</g>
<!-- Node12&#45;&gt;Node13 -->
<g id="edge42" class="edge"><title>Node12&#45;&gt;Node13</title>
<path style="fill:none;stroke:midnightblue;" d="M878,-112C887,-104 900,-93 911,-83"/>
<polygon style="fill:midnightblue;stroke:midnightblue;" points="913.404,-85.546 918,-76 908.454,-80.5962 913.404,-85.546"/>
</g>
<!-- Node12&#45;&gt;Node14 -->
<g id="edge50" class="edge"><title>Node12&#45;&gt;Node14</title>
<path style="fill:none;stroke:midnightblue;" d="M736,-117C543,-110 200,-95 146,-76 117,-66 88,-43 71,-27"/>
<polygon style="fill:midnightblue;stroke:midnightblue;" points="72.8306,-23.9511 63,-20 68.221,-29.2191 72.8306,-23.9511"/>
</g>
<!-- Node15 -->
<g id="node41" class="node"><title>Node15</title>
<a xlink:href="base__probability__density__estimator_8h.html" target="_top" xlink:title="ltr/density_estimators/base_probability_density_estimator.h">
<polygon style="fill:white;stroke:black;" points="155,-56 155,-76 428,-76 428,-56 155,-56"/>
<text text-anchor="middle" x="291" y="-63" style="font-family:Arial;font-size:10.00;">ltr/density_estimators/base_probability_density_estimator.h</text>
</a>
</g>
<!-- Node12&#45;&gt;Node15 -->
<g id="edge52" class="edge"><title>Node12&#45;&gt;Node15</title>
<path style="fill:none;stroke:midnightblue;" d="M764,-112C662,-102 508,-87 403,-77"/>
<polygon style="fill:midnightblue;stroke:midnightblue;" points="403.299,-73.5125 393,-76 402.602,-80.4778 403.299,-73.5125"/>
</g>
<!-- Node17 -->
<g id="node47" class="node"><title>Node17</title>
<polygon style="fill:white;stroke:#bfbfbf;" points="384,-0 384,-20 526,-20 526,-0 384,-0"/>
<text text-anchor="middle" x="455" y="-7" style="font-family:Arial;font-size:10.00;">ltr/interfaces/parameterized.h</text>
</g>
<!-- Node12&#45;&gt;Node17 -->
<g id="edge72" class="edge"><title>Node12&#45;&gt;Node17</title>
<path style="fill:none;stroke:midnightblue;" d="M758,-112C705,-105 641,-94 585,-76 547,-63 505,-41 480,-25"/>
<polygon style="fill:midnightblue;stroke:midnightblue;" points="481.441,-21.7969 471,-20 478.042,-27.916 481.441,-21.7969"/>
</g>
<!-- Node19 -->
<g id="node51" class="node"><title>Node19</title>
<polygon style="fill:white;stroke:#bfbfbf;" points="544,-0 544,-20 769,-20 769,-0 544,-0"/>
<text text-anchor="middle" x="656" y="-7" style="font-family:Arial;font-size:10.00;">ltr/parameters_container/parameters_container.h</text>
</g>
<!-- Node12&#45;&gt;Node19 -->
<g id="edge70" class="edge"><title>Node12&#45;&gt;Node19</title>
<path style="fill:none;stroke:midnightblue;" d="M772,-112C698,-103 605,-90 593,-76 578,-57 603,-38 625,-25"/>
<polygon style="fill:midnightblue;stroke:midnightblue;" points="626.958,-27.916 634,-20 623.559,-21.7969 626.958,-27.916"/>
</g>
<!-- Node12&#45;&gt;Node20 -->
<g id="edge66" class="edge"><title>Node12&#45;&gt;Node20</title>
<path style="fill:none;stroke:midnightblue;" d="M998,-117C1167,-110 1470,-96 1728,-76 1740,-75 1753,-74 1765,-72"/>
<polygon style="fill:midnightblue;stroke:midnightblue;" points="1765.4,-75.4778 1775,-71 1764.7,-68.5125 1765.4,-75.4778"/>
</g>
<!-- Node21 -->
<g id="node58" class="node"><title>Node21</title>
<polygon style="fill:white;stroke:#bfbfbf;" points="673,-56 673,-76 808,-76 808,-56 673,-56"/>
<text text-anchor="middle" x="740" y="-63" style="font-family:Arial;font-size:10.00;">ltr/utility/eigen_converters.h</text>
</g>
<!-- Node12&#45;&gt;Node21 -->
<g id="edge74" class="edge"><title>Node12&#45;&gt;Node21</title>
<path style="fill:none;stroke:midnightblue;" d="M844,-112C824,-103 795,-90 772,-80"/>
<polygon style="fill:midnightblue;stroke:midnightblue;" points="773.56,-76.8631 763,-76 770.717,-83.2598 773.56,-76.8631"/>
</g>
<!-- Node13&#45;&gt;Node2 -->
<g id="edge44" class="edge"><title>Node13&#45;&gt;Node2</title>
<path style="fill:none;stroke:midnightblue;" d="M998,-57C1002,-57 1007,-56 1011,-56 1240,-33 1299,-40 1527,-20 1541,-18 1557,-17 1572,-15"/>
<polygon style="fill:midnightblue;stroke:midnightblue;" points="1572.4,-18.4778 1582,-14 1571.7,-11.5125 1572.4,-18.4778"/>
</g>
<!-- Node13&#45;&gt;Node4 -->
<g id="edge46" class="edge"><title>Node13&#45;&gt;Node4</title>
<path style="fill:none;stroke:midnightblue;" d="M998,-57C1002,-57 1007,-56 1011,-56 1183,-37 1389,-19 1466,-13"/>
<polygon style="fill:midnightblue;stroke:midnightblue;" points="1466.4,-16.4778 1476,-12 1465.7,-9.5125 1466.4,-16.4778"/>
</g>
<!-- Node13&#45;&gt;Node11 -->
<g id="edge48" class="edge"><title>Node13&#45;&gt;Node11</title>
<path style="fill:none;stroke:midnightblue;" d="M973,-56C1015,-47 1077,-32 1121,-22"/>
<polygon style="fill:midnightblue;stroke:midnightblue;" points="1121.88,-25.3933 1131,-20 1120.51,-18.5292 1121.88,-25.3933"/>
</g>
<!-- Node15&#45;&gt;Node11 -->
<g id="edge54" class="edge"><title>Node15&#45;&gt;Node11</title>
<path style="fill:none;stroke:midnightblue;" d="M428,-57C627,-45 987,-22 1121,-14"/>
<polygon style="fill:midnightblue;stroke:midnightblue;" points="1121.4,-17.4778 1131,-13 1120.7,-10.5125 1121.4,-17.4778"/>
</g>
<!-- Node15&#45;&gt;Node14 -->
<g id="edge58" class="edge"><title>Node15&#45;&gt;Node14</title>
<path style="fill:none;stroke:midnightblue;" d="M248,-56C208,-47 149,-32 106,-22"/>
<polygon style="fill:midnightblue;stroke:midnightblue;" points="106.492,-18.5292 96,-20 105.119,-25.3933 106.492,-18.5292"/>
</g>
<!-- Node16 -->
<g id="node44" class="node"><title>Node16</title>
<polygon style="fill:white;stroke:#bfbfbf;" points="124,-0 124,-20 221,-20 221,-0 124,-0"/>
<text text-anchor="middle" x="172" y="-7" style="font-family:Arial;font-size:10.00;">ltr/scorers/scorer.h</text>
</g>
<!-- Node15&#45;&gt;Node16 -->
<g id="edge56" class="edge"><title>Node15&#45;&gt;Node16</title>
<path style="fill:none;stroke:midnightblue;" d="M270,-56C251,-47 224,-34 202,-24"/>
<polygon style="fill:midnightblue;stroke:midnightblue;" points="203.56,-20.8631 193,-20 200.717,-27.2598 203.56,-20.8631"/>
</g>
<!-- Node15&#45;&gt;Node17 -->
<g id="edge60" class="edge"><title>Node15&#45;&gt;Node17</title>
<path style="fill:none;stroke:midnightblue;" d="M320,-56C347,-47 387,-33 416,-23"/>
<polygon style="fill:midnightblue;stroke:midnightblue;" points="417.427,-26.2259 426,-20 415.416,-19.5212 417.427,-26.2259"/>
</g>
<!-- Node18 -->
<g id="node49" class="node"><title>Node18</title>
<polygon style="fill:white;stroke:#bfbfbf;" points="238,-0 238,-20 367,-20 367,-0 238,-0"/>
<text text-anchor="middle" x="302" y="-7" style="font-family:Arial;font-size:10.00;">ltr/interfaces/serializable.h</text>
</g>
<!-- Node15&#45;&gt;Node18 -->
<g id="edge62" class="edge"><title>Node15&#45;&gt;Node18</title>
<path style="fill:none;stroke:midnightblue;" d="M293,-56C294,-49 296,-39 298,-30"/>
<polygon style="fill:midnightblue;stroke:midnightblue;" points="301.471,-30.4922 300,-20 294.607,-29.1194 301.471,-30.4922"/>
</g>
<!-- Node15&#45;&gt;Node19 -->
<g id="edge64" class="edge"><title>Node15&#45;&gt;Node19</title>
<path style="fill:none;stroke:midnightblue;" d="M356,-56C419,-46 515,-32 581,-22"/>
<polygon style="fill:midnightblue;stroke:midnightblue;" points="581.881,-25.3933 591,-20 580.508,-18.5292 581.881,-25.3933"/>
</g>
<!-- Node23&#45;&gt;Node3 -->
<g id="edge86" class="edge"><title>Node23&#45;&gt;Node3</title>
<path style="fill:none;stroke:midnightblue;" d="M1424,-116C1519,-108 1673,-93 1728,-76 1747,-70 1747,-62 1766,-56 1856,-25 1970,-14 2022,-12"/>
<polygon style="fill:midnightblue;stroke:midnightblue;" points="2022.4,-15.4778 2032,-11 2021.7,-8.5125 2022.4,-15.4778"/>
</g>
<!-- Node23&#45;&gt;Node4 -->
<g id="edge88" class="edge"><title>Node23&#45;&gt;Node4</title>
<path style="fill:none;stroke:midnightblue;" d="M1271,-113C1225,-105 1172,-94 1158,-76 1153,-69 1153,-62 1158,-56 1179,-33 1386,-17 1466,-12"/>
<polygon style="fill:midnightblue;stroke:midnightblue;" points="1466.4,-15.4778 1476,-11 1465.7,-8.5125 1466.4,-15.4778"/>
</g>
<!-- Node23&#45;&gt;Node11 -->
<g id="edge92" class="edge"><title>Node23&#45;&gt;Node11</title>
<path style="fill:none;stroke:midnightblue;" d="M1271,-120C1140,-117 882,-106 854,-76 849,-69 849,-62 854,-56 871,-36 1034,-20 1121,-14"/>
<polygon style="fill:midnightblue;stroke:midnightblue;" points="1121.4,-17.4778 1131,-13 1120.7,-10.5125 1121.4,-17.4778"/>
</g>
<!-- Node23&#45;&gt;Node20 -->
<g id="edge90" class="edge"><title>Node23&#45;&gt;Node20</title>
<path style="fill:none;stroke:midnightblue;" d="M1424,-115C1508,-106 1644,-92 1761,-76 1762,-76 1764,-75 1765,-75"/>
<polygon style="fill:midnightblue;stroke:midnightblue;" points="1765.4,-78.4778 1775,-74 1764.7,-71.5125 1765.4,-78.4778"/>
</g>
<!-- Node24 -->
<g id="node71" class="node"><title>Node24</title>
<polygon style="fill:white;stroke:#bfbfbf;" points="1331,-56 1331,-76 1424,-76 1424,-56 1331,-56"/>
<text text-anchor="middle" x="1377" y="-63" style="font-family:Arial;font-size:10.00;">ltr/utility/indices.h</text>
</g>
<!-- Node23&#45;&gt;Node24 -->
<g id="edge94" class="edge"><title>Node23&#45;&gt;Node24</title>
<path style="fill:none;stroke:midnightblue;" d="M1352,-112C1356,-105 1362,-94 1367,-85"/>
<polygon style="fill:midnightblue;stroke:midnightblue;" points="1370.14,-86.5596 1371,-76 1363.74,-83.7166 1370.14,-86.5596"/>
</g>
<!-- Node25 -->
<g id="node73" class="node"><title>Node25</title>
<polygon style="fill:white;stroke:#bfbfbf;" points="1167,-56 1167,-76 1314,-76 1314,-56 1167,-56"/>
<text text-anchor="middle" x="1240" y="-63" style="font-family:Arial;font-size:10.00;">ltr/data/per_object_accessor.h</text>
</g>
<!-- Node23&#45;&gt;Node25 -->
<g id="edge96" class="edge"><title>Node23&#45;&gt;Node25</title>
<path style="fill:none;stroke:midnightblue;" d="M1328,-112C1312,-103 1287,-90 1268,-81"/>
<polygon style="fill:midnightblue;stroke:midnightblue;" points="1269.44,-77.7969 1259,-76 1266.04,-83.916 1269.44,-77.7969"/>
</g>
<!-- Node29&#45;&gt;Node2 -->
<g id="edge106" class="edge"><title>Node29&#45;&gt;Node2</title>
<path style="fill:none;stroke:midnightblue;" d="M2764,-168C2766,-154 2766,-130 2758,-112 2741,-78 2731,-70 2697,-56 2606,-18 1912,-24 1814,-20 1762,-17 1704,-14 1664,-12"/>
<polygon style="fill:midnightblue;stroke:midnightblue;" points="1664,-8.5001 1654,-12 1664,-15.5001 1664,-8.5001"/>
</g>
<!-- Node29&#45;&gt;Node3 -->
<g id="edge108" class="edge"><title>Node29&#45;&gt;Node3</title>
<path style="fill:none;stroke:midnightblue;" d="M2890,-168C2989,-159 3120,-146 3171,-132 3233,-114 3339,-102 3295,-56 3283,-44 2262,-16 2077,-10"/>
<polygon style="fill:midnightblue;stroke:midnightblue;" points="2077,-6.5001 2067,-10 2077,-13.5001 2077,-6.5001"/>
</g>
<!-- Node29&#45;&gt;Node8 -->
<g id="edge110" class="edge"><title>Node29&#45;&gt;Node8</title>
<path style="fill:none;stroke:midnightblue;" d="M2908,-170C3028,-163 3202,-151 3353,-132 3498,-113 3775,-161 3674,-56 3659,-40 3082,-21 2804,-14"/>
<polygon style="fill:midnightblue;stroke:midnightblue;" points="2804,-10.5001 2794,-14 2804,-17.5001 2804,-10.5001"/>
</g>
<!-- Node29&#45;&gt;Node11 -->
<g id="edge152" class="edge"><title>Node29&#45;&gt;Node11</title>
<path style="fill:none;stroke:midnightblue;" d="M2759,-168C2747,-143 2713,-80 2664,-56 2604,-26 1534,-22 1467,-20 1383,-17 1284,-13 1225,-11"/>
<polygon style="fill:midnightblue;stroke:midnightblue;" points="1225,-7.5001 1215,-11 1225,-14.5001 1225,-7.5001"/>
</g>
<!-- Node29&#45;&gt;Node20 -->
<g id="edge150" class="edge"><title>Node29&#45;&gt;Node20</title>
<path style="fill:none;stroke:midnightblue;" d="M2733,-168C2708,-159 2673,-146 2644,-132 2628,-124 2627,-117 2611,-112 2576,-100 2057,-76 1880,-68"/>
<polygon style="fill:midnightblue;stroke:midnightblue;" points="1880,-64.5001 1870,-68 1880,-71.5001 1880,-64.5001"/>
</g>
<!-- Node29&#45;&gt;Node22 -->
<g id="edge154" class="edge"><title>Node29&#45;&gt;Node22</title>
<path style="fill:none;stroke:midnightblue;" d="M2771,-168C2777,-159 2788,-145 2796,-132 2806,-117 2816,-99 2823,-85"/>
<polygon style="fill:midnightblue;stroke:midnightblue;" points="2826.2,-86.4414 2828,-76 2820.08,-83.0418 2826.2,-86.4414"/>
</g>
<!-- Node29&#45;&gt;Node28 -->
<g id="edge156" class="edge"><title>Node29&#45;&gt;Node28</title>
<path style="fill:none;stroke:midnightblue;" d="M2753,-168C2738,-154 2709,-129 2682,-112 2661,-99 2637,-88 2616,-80"/>
<polygon style="fill:midnightblue;stroke:midnightblue;" points="2617.56,-76.8631 2607,-76 2614.72,-83.2598 2617.56,-76.8631"/>
</g>
<!-- Node30 -->
<g id="node86" class="node"><title>Node30</title>
<a xlink:href="non__linear__discriminant__density__learner_8h.html" target="_top" xlink:title="ltr/density_estimators/non_linear_discriminant_density_learner.h">
<polygon style="fill:white;stroke:black;" points="2868,-112 2868,-132 3162,-132 3162,-112 2868,-112"/>
<text text-anchor="middle" x="3015" y="-119" style="font-family:Arial;font-size:10.00;">ltr/density_estimators/non_linear_discriminant_density_learner.h</text>
</a>
</g>
<!-- Node29&#45;&gt;Node30 -->
<g id="edge112" class="edge"><title>Node29&#45;&gt;Node30</title>
<path style="fill:none;stroke:midnightblue;" d="M2808,-168C2851,-159 2914,-144 2960,-134"/>
<polygon style="fill:midnightblue;stroke:midnightblue;" points="2960.88,-137.393 2970,-132 2959.51,-130.529 2960.88,-137.393"/>
</g>
<!-- Node33 -->
<g id="node112" class="node"><title>Node33</title>
<polygon style="fill:white;stroke:#bfbfbf;" points="2115,-56 2115,-76 2409,-76 2409,-56 2115,-56"/>
<text text-anchor="middle" x="2262" y="-63" style="font-family:Arial;font-size:10.00;">ltr/density_estimators/non_linear_discriminant_density_learner.h</text>
</g>
<!-- Node29&#45;&gt;Node33 -->
<g id="edge158" class="edge"><title>Node29&#45;&gt;Node33</title>
<path style="fill:none;stroke:midnightblue;" d="M2745,-168C2714,-150 2649,-114 2644,-112 2600,-98 2491,-85 2401,-77"/>
<polygon style="fill:midnightblue;stroke:midnightblue;" points="2401.3,-73.5125 2391,-76 2400.6,-80.4778 2401.3,-73.5125"/>
</g>
<!-- Node30&#45;&gt;Node2 -->
<g id="edge114" class="edge"><title>Node30&#45;&gt;Node2</title>
<path style="fill:none;stroke:midnightblue;" d="M3016,-112C3017,-97 3015,-69 2999,-56 2947,-14 1879,-22 1814,-20 1762,-17 1704,-14 1664,-12"/>
<polygon style="fill:midnightblue;stroke:midnightblue;" points="1664,-8.5001 1654,-12 1664,-15.5001 1664,-8.5001"/>
</g>
<!-- Node30&#45;&gt;Node3 -->
<g id="edge116" class="edge"><title>Node30&#45;&gt;Node3</title>
<path style="fill:none;stroke:midnightblue;" d="M3107,-112C3179,-103 3270,-90 3282,-76 3287,-69 3288,-62 3282,-56 3271,-44 2261,-16 2077,-10"/>
<polygon style="fill:midnightblue;stroke:midnightblue;" points="2077,-6.5001 2067,-10 2077,-13.5001 2077,-6.5001"/>
</g>
<!-- Node30&#45;&gt;Node4 -->
<g id="edge118" class="edge"><title>Node30&#45;&gt;Node4</title>
<path style="fill:none;stroke:midnightblue;" d="M3010,-112C3002,-96 2985,-67 2961,-56 2891,-22 1650,-26 1573,-20 1559,-18 1542,-16 1528,-14"/>
<polygon style="fill:midnightblue;stroke:midnightblue;" points="1528.3,-10.5125 1518,-13 1527.6,-17.4778 1528.3,-10.5125"/>
</g>
<!-- Node30&#45;&gt;Node8 -->
<g id="edge120" class="edge"><title>Node30&#45;&gt;Node8</title>
<path style="fill:none;stroke:midnightblue;" d="M3124,-112C3205,-103 3302,-90 3315,-76 3320,-69 3321,-62 3315,-56 3297,-37 2993,-23 2804,-15"/>
<polygon style="fill:midnightblue;stroke:midnightblue;" points="2804,-11.5001 2794,-15 2804,-18.5001 2804,-11.5001"/>
</g>
<!-- Node30&#45;&gt;Node11 -->
<g id="edge142" class="edge"><title>Node30&#45;&gt;Node11</title>
<path style="fill:none;stroke:midnightblue;" d="M3003,-112C2984,-95 2944,-62 2928,-56 2851,-29 1549,-22 1467,-20 1383,-17 1284,-14 1225,-12"/>
<polygon style="fill:midnightblue;stroke:midnightblue;" points="1225,-8.5001 1215,-12 1225,-15.5001 1225,-8.5001"/>
</g>
<!-- Node30&#45;&gt;Node20 -->
<g id="edge140" class="edge"><title>Node30&#45;&gt;Node20</title>
<path style="fill:none;stroke:midnightblue;" d="M2868,-115C2603,-102 2059,-77 1880,-68"/>
<polygon style="fill:midnightblue;stroke:midnightblue;" points="1880,-64.5001 1870,-68 1880,-71.5001 1880,-64.5001"/>
</g>
<!-- Node30&#45;&gt;Node22 -->
<g id="edge144" class="edge"><title>Node30&#45;&gt;Node22</title>
<path style="fill:none;stroke:midnightblue;" d="M2983,-112C2953,-103 2909,-89 2877,-79"/>
<polygon style="fill:midnightblue;stroke:midnightblue;" points="2877.58,-75.5212 2867,-76 2875.57,-82.2259 2877.58,-75.5212"/>
</g>
<!-- Node30&#45;&gt;Node27 -->
<g id="edge122" class="edge"><title>Node30&#45;&gt;Node27</title>
<path style="fill:none;stroke:midnightblue;" d="M3162,-113C3261,-106 3375,-93 3391,-76 3396,-69 3396,-62 3391,-56 3377,-39 3336,-29 3293,-22"/>
<polygon style="fill:midnightblue;stroke:midnightblue;" points="3293.49,-18.5292 3283,-20 3292.12,-25.3933 3293.49,-18.5292"/>
</g>
<!-- Node30&#45;&gt;Node28 -->
<g id="edge146" class="edge"><title>Node30&#45;&gt;Node28</title>
<path style="fill:none;stroke:midnightblue;" d="M2937,-112C2861,-102 2746,-87 2666,-77"/>
<polygon style="fill:midnightblue;stroke:midnightblue;" points="2666.3,-73.5125 2656,-76 2665.6,-80.4778 2666.3,-73.5125"/>
</g>
<!-- Node31 -->
<g id="node93" class="node"><title>Node31</title>
<a xlink:href="non__linear__discriminant_8h.html" target="_top" xlink:title="ltr/density_estimators/non_linear_discriminant.h">
<polygon style="fill:white;stroke:black;" points="3051,-56 3051,-76 3274,-76 3274,-56 3051,-56"/>
<text text-anchor="middle" x="3162" y="-63" style="font-family:Arial;font-size:10.00;">ltr/density_estimators/non_linear_discriminant.h</text>
</a>
</g>
<!-- Node30&#45;&gt;Node31 -->
<g id="edge124" class="edge"><title>Node30&#45;&gt;Node31</title>
<path style="fill:none;stroke:midnightblue;" d="M3041,-112C3065,-103 3100,-90 3126,-80"/>
<polygon style="fill:midnightblue;stroke:midnightblue;" points="3128.02,-82.9636 3136,-76 3125.42,-76.4643 3128.02,-82.9636"/>
</g>
<!-- Node30&#45;&gt;Node32 -->
<g id="edge148" class="edge"><title>Node30&#45;&gt;Node32</title>
<path style="fill:none;stroke:midnightblue;" d="M3111,-112C3206,-102 3350,-87 3448,-77"/>
<polygon style="fill:midnightblue;stroke:midnightblue;" points="3448.4,-80.4778 3458,-76 3447.7,-73.5125 3448.4,-80.4778"/>
</g>
<!-- Node31&#45;&gt;Node2 -->
<g id="edge126" class="edge"><title>Node31&#45;&gt;Node2</title>
<path style="fill:none;stroke:midnightblue;" d="M3051,-57C3046,-57 3042,-56 3037,-56 2494,-26 2357,-41 1814,-20 1762,-17 1704,-14 1664,-12"/>
<polygon style="fill:midnightblue;stroke:midnightblue;" points="1664,-8.5001 1654,-12 1664,-15.5001 1664,-8.5001"/>
</g>
<!-- Node31&#45;&gt;Node3 -->
<g id="edge128" class="edge"><title>Node31&#45;&gt;Node3</title>
<path style="fill:none;stroke:midnightblue;" d="M3051,-57C3046,-57 3042,-56 3037,-56 2657,-32 2195,-15 2077,-11"/>
<polygon style="fill:midnightblue;stroke:midnightblue;" points="2077,-7.5001 2067,-11 2077,-14.5001 2077,-7.5001"/>
</g>
<!-- Node31&#45;&gt;Node4 -->
<g id="edge132" class="edge"><title>Node31&#45;&gt;Node4</title>
<path style="fill:none;stroke:midnightblue;" d="M3051,-59C3033,-58 3016,-57 2999,-56 2365,-28 2205,-69 1573,-20 1559,-18 1542,-16 1528,-14"/>
<polygon style="fill:midnightblue;stroke:midnightblue;" points="1528.3,-10.5125 1518,-13 1527.6,-17.4778 1528.3,-10.5125"/>
</g>
<!-- Node31&#45;&gt;Node8 -->
<g id="edge136" class="edge"><title>Node31&#45;&gt;Node8</title>
<path style="fill:none;stroke:midnightblue;" d="M3072,-56C2983,-46 2848,-31 2757,-21"/>
<polygon style="fill:midnightblue;stroke:midnightblue;" points="2757.3,-17.5125 2747,-20 2756.6,-24.4778 2757.3,-17.5125"/>
</g>
<!-- Node31&#45;&gt;Node10 -->
<g id="edge130" class="edge"><title>Node31&#45;&gt;Node10</title>
<path style="fill:none;stroke:midnightblue;" d="M3051,-57C3046,-57 3042,-56 3037,-56 2586,-30 2473,-40 2023,-20 1970,-17 1909,-14 1873,-12"/>
<polygon style="fill:midnightblue;stroke:midnightblue;" points="1873.3,-8.5125 1863,-11 1872.6,-15.4778 1873.3,-8.5125"/>
</g>
<!-- Node31&#45;&gt;Node11 -->
<g id="edge134" class="edge"><title>Node31&#45;&gt;Node11</title>
<path style="fill:none;stroke:midnightblue;" d="M3051,-60C3022,-58 2990,-57 2961,-56 2297,-31 2130,-39 1467,-20 1383,-17 1284,-14 1225,-12"/>
<polygon style="fill:midnightblue;stroke:midnightblue;" points="1225,-8.5001 1215,-12 1225,-15.5001 1225,-8.5001"/>
</g>
<!-- Node31&#45;&gt;Node27 -->
<g id="edge138" class="edge"><title>Node31&#45;&gt;Node27</title>
<path style="fill:none;stroke:midnightblue;" d="M3162,-56C3162,-49 3162,-39 3162,-30"/>
<polygon style="fill:midnightblue;stroke:midnightblue;" points="3165.5,-30 3162,-20 3158.5,-30 3165.5,-30"/>
</g>
<!-- Node34&#45;&gt;Node2 -->
<g id="edge162" class="edge"><title>Node34&#45;&gt;Node2</title>
<path style="fill:none;stroke:midnightblue;" d="M2079,-112C2061,-97 2023,-69 1987,-56 1928,-35 1750,-19 1664,-13"/>
<polygon style="fill:midnightblue;stroke:midnightblue;" points="1664.3,-9.5125 1654,-12 1663.6,-16.4778 1664.3,-9.5125"/>
</g>
<!-- Node34&#45;&gt;Node3 -->
<g id="edge164" class="edge"><title>Node34&#45;&gt;Node3</title>
<path style="fill:none;stroke:midnightblue;" d="M2087,-112C2083,-102 2077,-88 2073,-76 2067,-60 2060,-43 2056,-29"/>
<polygon style="fill:midnightblue;stroke:midnightblue;" points="2059.26,-27.7166 2052,-20 2052.86,-30.5596 2059.26,-27.7166"/>
</g>
<!-- Node34&#45;&gt;Node4 -->
<g id="edge166" class="edge"><title>Node34&#45;&gt;Node4</title>
<path style="fill:none;stroke:midnightblue;" d="M2069,-112C2035,-97 1969,-69 1911,-56 1763,-21 1724,-37 1573,-20 1559,-18 1542,-15 1528,-14"/>
<polygon style="fill:midnightblue;stroke:midnightblue;" points="1528.3,-10.5125 1518,-13 1527.6,-17.4778 1528.3,-10.5125"/>
</g>
<!-- Node34&#45;&gt;Node8 -->
<g id="edge168" class="edge"><title>Node34&#45;&gt;Node8</title>
<path style="fill:none;stroke:midnightblue;" d="M2090,-112C2089,-97 2090,-69 2106,-56 2135,-30 2358,-19 2511,-13"/>
<polygon style="fill:midnightblue;stroke:midnightblue;" points="2511,-16.5001 2521,-13 2511,-9.5001 2511,-16.5001"/>
</g>
<!-- Node34&#45;&gt;Node11 -->
<g id="edge174" class="edge"><title>Node34&#45;&gt;Node11</title>
<path style="fill:none;stroke:midnightblue;" d="M2036,-112C1999,-104 1951,-92 1911,-76 1895,-69 1894,-61 1878,-56 1816,-36 1377,-18 1225,-12"/>
<polygon style="fill:midnightblue;stroke:midnightblue;" points="1225,-8.5001 1215,-12 1225,-15.5001 1225,-8.5001"/>
</g>
<!-- Node34&#45;&gt;Node20 -->
<g id="edge172" class="edge"><title>Node34&#45;&gt;Node20</title>
<path style="fill:none;stroke:midnightblue;" d="M2043,-112C1997,-103 1929,-88 1880,-78"/>
<polygon style="fill:midnightblue;stroke:midnightblue;" points="1880.49,-74.5292 1870,-76 1879.12,-81.3933 1880.49,-74.5292"/>
</g>
<!-- Node34&#45;&gt;Node28 -->
<g id="edge176" class="edge"><title>Node34&#45;&gt;Node28</title>
<path style="fill:none;stroke:midnightblue;" d="M2178,-112C2268,-101 2404,-86 2493,-76"/>
<polygon style="fill:midnightblue;stroke:midnightblue;" points="2493.4,-79.4778 2503,-75 2492.7,-72.5125 2493.4,-79.4778"/>
</g>
<!-- Node34&#45;&gt;Node33 -->
<g id="edge170" class="edge"><title>Node34&#45;&gt;Node33</title>
<path style="fill:none;stroke:midnightblue;" d="M2122,-112C2150,-103 2191,-89 2221,-79"/>
<polygon style="fill:midnightblue;stroke:midnightblue;" points="2222.43,-82.2259 2231,-76 2220.42,-75.5212 2222.43,-82.2259"/>
</g>
</g>
</svg>
