<?xml version="1.0" encoding="UTF-8" standalone="no"?>
<!DOCTYPE svg PUBLIC "-//W3C//DTD SVG 1.0//EN"
 "http://www.w3.org/TR/2001/REC-SVG-20010904/DTD/svg10.dtd" [
 <!ATTLIST svg xmlns:xlink CDATA #FIXED "http://www.w3.org/1999/xlink">
]>
<!-- Generated by Graphviz version 2.20.2 (Tue Mar &#160;2 19:03:41 UTC 2010)
     For user: (jenkins)  -->
<!-- Title: _anonymous_0 Pages: 1 -->
<svg width="357pt" height="73pt"
 viewBox="14.40 14.40 342.40 58.40" xmlns="http://www.w3.org/2000/svg" xmlns:xlink="http://www.w3.org/1999/xlink">
<g id="graph0" class="graph" transform="scale(1 1) rotate(0) translate(18.4 54.4)">
<title>_anonymous_0</title>
<polygon style="fill:white;stroke:white;" points="-4,4 -4,-40 324,-40 324,4 -4,4"/>
<!-- a -->
<g id="node1" class="node"><title>a</title>
<a xlink:href="classltr_1_1_object.html" target="_top" xlink:title="Object">
<ellipse style="fill:none;stroke:black;" cx="42" cy="-18" rx="41.1906" ry="18"/>
<text text-anchor="middle" x="42" y="-13.9" style="font-family:Times New Roman;font-size:14.00;">Object</text>
</a>
</g>
<!-- b -->
<g id="node2" class="node"><title>b</title>
<a xlink:href="classltr_1_1_scorer.html" target="_top" xlink:title="Scorer">
<polygon style="fill:none;stroke:black;" points="228,-36 168,-36 168,-1.77636e-14 228,-3.55271e-15 228,-36"/>
<text text-anchor="middle" x="198" y="-13.9" style="font-family:Times New Roman;font-size:14.00;">Scorer</text>
</a>
</g>
<!-- a&#45;&gt;b -->
<g id="edge2" class="edge"><title>a&#45;&gt;b</title>
<path style="fill:none;stroke:black;" d="M84,-18C107,-18 135,-18 158,-18"/>
<polygon style="fill:black;stroke:black;" points="158,-21.5001 168,-18 158,-14.5001 158,-21.5001"/>
<text text-anchor="middle" x="126" y="-21.9" style="font-family:Times New Roman;font-size:14.00;">value()</text>
</g>
<!-- c -->
<g id="node3" class="node"><title>c</title>
<text text-anchor="middle" x="293" y="-13.9" style="font-family:Times New Roman;font-size:14.00;">score</text>
</g>
<!-- b&#45;&gt;c -->
<g id="edge4" class="edge"><title>b&#45;&gt;c</title>
<path style="fill:none;stroke:black;" d="M228,-18C237,-18 246,-18 256,-18"/>
<polygon style="fill:black;stroke:black;" points="256,-21.5001 266,-18 256,-14.5001 256,-21.5001"/>
</g>
</g>
</svg>
