<?xml version="1.0" encoding="UTF-8" standalone="no"?>
<!DOCTYPE svg PUBLIC "-//W3C//DTD SVG 1.0//EN"
 "http://www.w3.org/TR/2001/REC-SVG-20010904/DTD/svg10.dtd" [
 <!ATTLIST svg xmlns:xlink CDATA #FIXED "http://www.w3.org/1999/xlink">
]>
<!-- Generated by Graphviz version 2.20.2 (Tue Mar &#160;2 19:03:41 UTC 2010)
     For user: (jenkins)  -->
<!-- Title: G Pages: 1 -->
<svg width="242pt" height="84pt"
 viewBox="0.00 0.00 242.00 84.00" xmlns="http://www.w3.org/2000/svg" xmlns:xlink="http://www.w3.org/1999/xlink">
<g id="graph0" class="graph" transform="scale(1 1) rotate(0) translate(4 80)">
<title>G</title>
<polygon style="fill:white;stroke:white;" points="-4,4 -4,-80 238,-80 238,4 -4,4"/>
<!-- Node1 -->
<g id="node1" class="node"><title>Node1</title>
<polygon style="fill:#bfbfbf;stroke:black;" points="44,-56 44,-76 179,-76 179,-56 44,-56"/>
<text text-anchor="middle" x="111" y="-63" style="font-family:Arial;font-size:10.00;">ltr/utility/eigen_converters.h</text>
</g>
<!-- Node2 -->
<g id="node3" class="node"><title>Node2</title>
<polygon style="fill:white;stroke:#bfbfbf;" points="0,-0 0,-20 72,-20 72,-0 0,-0"/>
<text text-anchor="middle" x="36" y="-7" style="font-family:Arial;font-size:10.00;">Eigen/Dense</text>
</g>
<!-- Node1&#45;&gt;Node2 -->
<g id="edge2" class="edge"><title>Node1&#45;&gt;Node2</title>
<path style="fill:none;stroke:midnightblue;" d="M98,-56C87,-48 71,-36 58,-26"/>
<polygon style="fill:midnightblue;stroke:midnightblue;" points="60.1,-23.2 50,-20 55.9,-28.8 60.1,-23.2"/>
</g>
<!-- Node3 -->
<g id="node5" class="node"><title>Node3</title>
<polygon style="fill:white;stroke:#bfbfbf;" points="90,-0 90,-20 132,-20 132,-0 90,-0"/>
<text text-anchor="middle" x="111" y="-7" style="font-family:Arial;font-size:10.00;">vector</text>
</g>
<!-- Node1&#45;&gt;Node3 -->
<g id="edge4" class="edge"><title>Node1&#45;&gt;Node3</title>
<path style="fill:none;stroke:midnightblue;" d="M111,-56C111,-49 111,-39 111,-30"/>
<polygon style="fill:midnightblue;stroke:midnightblue;" points="114.5,-30 111,-20 107.5,-30 114.5,-30"/>
</g>
<!-- Node4 -->
<g id="node7" class="node"><title>Node4</title>
<polygon style="fill:white;stroke:#bfbfbf;" points="150,-0 150,-20 234,-20 234,-0 150,-0"/>
<text text-anchor="middle" x="192" y="-7" style="font-family:Arial;font-size:10.00;">ltr/data/object.h</text>
</g>
<!-- Node1&#45;&gt;Node4 -->
<g id="edge6" class="edge"><title>Node1&#45;&gt;Node4</title>
<path style="fill:none;stroke:midnightblue;" d="M125,-56C137,-48 155,-36 169,-26"/>
<polygon style="fill:midnightblue;stroke:midnightblue;" points="171.1,-28.8 177,-20 166.9,-23.2 171.1,-28.8"/>
</g>
</g>
</svg>
