<?xml version="1.0" encoding="UTF-8" standalone="no"?>
<!DOCTYPE svg PUBLIC "-//W3C//DTD SVG 1.0//EN"
 "http://www.w3.org/TR/2001/REC-SVG-20010904/DTD/svg10.dtd" [
 <!ATTLIST svg xmlns:xlink CDATA #FIXED "http://www.w3.org/1999/xlink">
]>
<!-- Generated by Graphviz version 2.20.2 (Tue Mar &#160;2 19:03:41 UTC 2010)
     For user: (jenkins)  -->
<!-- Title: G Pages: 1 -->
<svg width="2040pt" height="532pt"
 viewBox="0.00 0.00 2040.00 532.00" xmlns="http://www.w3.org/2000/svg" xmlns:xlink="http://www.w3.org/1999/xlink">
<g id="graph0" class="graph" transform="scale(1 1) rotate(0) translate(4 528)">
<title>G</title>
<polygon style="fill:white;stroke:white;" points="-4,4 -4,-528 2036,-528 2036,4 -4,4"/>
<!-- Node1 -->
<g id="node1" class="node"><title>Node1</title>
<polygon style="fill:#bfbfbf;stroke:black;" points="349,-504 349,-524 513,-524 513,-504 349,-504"/>
<text text-anchor="middle" x="431" y="-511" style="font-family:Arial;font-size:10.00;">ltr/scorers/fake_scorer_unittest.cc</text>
</g>
<!-- Node2 -->
<g id="node3" class="node"><title>Node2</title>
<polygon style="fill:white;stroke:#bfbfbf;" points="333,-448 333,-468 404,-468 404,-448 333,-448"/>
<text text-anchor="middle" x="368" y="-455" style="font-family:Arial;font-size:10.00;">gtest/gtest.h</text>
</g>
<!-- Node1&#45;&gt;Node2 -->
<g id="edge2" class="edge"><title>Node1&#45;&gt;Node2</title>
<path style="fill:none;stroke:midnightblue;" d="M420,-504C411,-496 398,-485 387,-475"/>
<polygon style="fill:midnightblue;stroke:midnightblue;" points="389.546,-472.596 380,-468 384.596,-477.546 389.546,-472.596"/>
</g>
<!-- Node3 -->
<g id="node5" class="node"><title>Node3</title>
<a xlink:href="object_8h.html" target="_top" xlink:title="ltr/data/object.h">
<polygon style="fill:white;stroke:black;" points="389,-112 389,-132 473,-132 473,-112 389,-112"/>
<text text-anchor="middle" x="431" y="-119" style="font-family:Arial;font-size:10.00;">ltr/data/object.h</text>
</a>
</g>
<!-- Node1&#45;&gt;Node3 -->
<g id="edge4" class="edge"><title>Node1&#45;&gt;Node3</title>
<path style="fill:none;stroke:midnightblue;" d="M431,-504C431,-484 431,-439 431,-402 431,-402 431,-402 431,-234 431,-201 431,-165 431,-142"/>
<polygon style="fill:midnightblue;stroke:midnightblue;" points="434.5,-142 431,-132 427.5,-142 434.5,-142"/>
</g>
<!-- Node14 -->
<g id="node29" class="node"><title>Node14</title>
<a xlink:href="fake__scorer_8h.html" target="_top" xlink:title="ltr/scorers/fake_scorer.h">
<polygon style="fill:white;stroke:black;" points="1780,-448 1780,-468 1900,-468 1900,-448 1780,-448"/>
<text text-anchor="middle" x="1840" y="-455" style="font-family:Arial;font-size:10.00;">ltr/scorers/fake_scorer.h</text>
</a>
</g>
<!-- Node1&#45;&gt;Node14 -->
<g id="edge30" class="edge"><title>Node1&#45;&gt;Node14</title>
<path style="fill:none;stroke:midnightblue;" d="M513,-511C766,-501 1533,-470 1770,-460"/>
<polygon style="fill:midnightblue;stroke:midnightblue;" points="1770,-463.5 1780,-460 1770,-456.5 1770,-463.5"/>
</g>
<!-- Node4 -->
<g id="node7" class="node"><title>Node4</title>
<polygon style="fill:white;stroke:#bfbfbf;" points="547,-56 547,-76 582,-76 582,-56 547,-56"/>
<text text-anchor="middle" x="564" y="-63" style="font-family:Arial;font-size:10.00;">map</text>
</g>
<!-- Node3&#45;&gt;Node4 -->
<g id="edge6" class="edge"><title>Node3&#45;&gt;Node4</title>
<path style="fill:none;stroke:midnightblue;" d="M455,-112C478,-102 513,-87 538,-77"/>
<polygon style="fill:midnightblue;stroke:midnightblue;" points="539.283,-80.2598 547,-73 536.44,-73.8631 539.283,-80.2598"/>
</g>
<!-- Node5 -->
<g id="node9" class="node"><title>Node5</title>
<polygon style="fill:white;stroke:#bfbfbf;" points="426,-0 426,-20 477,-20 477,-0 426,-0"/>
<text text-anchor="middle" x="451" y="-7" style="font-family:Arial;font-size:10.00;">ostream</text>
</g>
<!-- Node3&#45;&gt;Node5 -->
<g id="edge8" class="edge"><title>Node3&#45;&gt;Node5</title>
<path style="fill:none;stroke:midnightblue;" d="M410,-112C388,-100 358,-78 371,-56 380,-38 399,-27 416,-20"/>
<polygon style="fill:midnightblue;stroke:midnightblue;" points="417.427,-23.2259 426,-17 415.416,-16.5212 417.427,-23.2259"/>
</g>
<!-- Node6 -->
<g id="node11" class="node"><title>Node6</title>
<polygon style="fill:white;stroke:#bfbfbf;" points="961,-56 961,-76 1020,-76 1020,-56 961,-56"/>
<text text-anchor="middle" x="990" y="-63" style="font-family:Arial;font-size:10.00;">stdexcept</text>
</g>
<!-- Node3&#45;&gt;Node6 -->
<g id="edge10" class="edge"><title>Node3&#45;&gt;Node6</title>
<path style="fill:none;stroke:midnightblue;" d="M473,-118C577,-107 850,-80 951,-70"/>
<polygon style="fill:midnightblue;stroke:midnightblue;" points="951.398,-73.4778 961,-69 950.701,-66.5125 951.398,-73.4778"/>
</g>
<!-- Node7 -->
<g id="node13" class="node"><title>Node7</title>
<polygon style="fill:white;stroke:#bfbfbf;" points="1255,-0 1255,-20 1295,-20 1295,-0 1255,-0"/>
<text text-anchor="middle" x="1275" y="-7" style="font-family:Arial;font-size:10.00;">string</text>
</g>
<!-- Node3&#45;&gt;Node7 -->
<g id="edge12" class="edge"><title>Node3&#45;&gt;Node7</title>
<path style="fill:none;stroke:midnightblue;" d="M421,-112C408,-97 389,-71 404,-56 433,-24 1093,-13 1245,-10"/>
<polygon style="fill:midnightblue;stroke:midnightblue;" points="1245,-13.5001 1255,-10 1245,-6.5001 1245,-13.5001"/>
</g>
<!-- Node8 -->
<g id="node15" class="node"><title>Node8</title>
<polygon style="fill:white;stroke:#bfbfbf;" points="1440,-56 1440,-76 1482,-76 1482,-56 1440,-56"/>
<text text-anchor="middle" x="1461" y="-63" style="font-family:Arial;font-size:10.00;">vector</text>
</g>
<!-- Node3&#45;&gt;Node8 -->
<g id="edge14" class="edge"><title>Node3&#45;&gt;Node8</title>
<path style="fill:none;stroke:midnightblue;" d="M473,-120C601,-114 994,-96 1321,-76 1358,-73 1401,-71 1430,-69"/>
<polygon style="fill:midnightblue;stroke:midnightblue;" points="1430.4,-72.4778 1440,-68 1429.7,-65.5125 1430.4,-72.4778"/>
</g>
<!-- Node9 -->
<g id="node17" class="node"><title>Node9</title>
<a xlink:href="printable_8h.html" target="_top" xlink:title="ltr/interfaces/printable.h">
<polygon style="fill:white;stroke:black;" points="413,-56 413,-76 530,-76 530,-56 413,-56"/>
<text text-anchor="middle" x="471" y="-63" style="font-family:Arial;font-size:10.00;">ltr/interfaces/printable.h</text>
</a>
</g>
<!-- Node3&#45;&gt;Node9 -->
<g id="edge16" class="edge"><title>Node3&#45;&gt;Node9</title>
<path style="fill:none;stroke:midnightblue;" d="M438,-112C444,-104 452,-94 458,-85"/>
<polygon style="fill:midnightblue;stroke:midnightblue;" points="461.365,-86.262 464,-76 455.541,-82.3791 461.365,-86.262"/>
</g>
<!-- Node10 -->
<g id="node21" class="node"><title>Node10</title>
<a xlink:href="shared__ptr_8h.html" target="_top" xlink:title="ltr/utility/shared_ptr.h">
<polygon style="fill:white;stroke:black;" points="166,-56 166,-76 273,-76 273,-56 166,-56"/>
<text text-anchor="middle" x="219" y="-63" style="font-family:Arial;font-size:10.00;">ltr/utility/shared_ptr.h</text>
</a>
</g>
<!-- Node3&#45;&gt;Node10 -->
<g id="edge22" class="edge"><title>Node3&#45;&gt;Node10</title>
<path style="fill:none;stroke:midnightblue;" d="M393,-112C358,-103 305,-89 267,-79"/>
<polygon style="fill:midnightblue;stroke:midnightblue;" points="267.584,-75.5212 257,-76 265.573,-82.2259 267.584,-75.5212"/>
</g>
<!-- Node9&#45;&gt;Node5 -->
<g id="edge18" class="edge"><title>Node9&#45;&gt;Node5</title>
<path style="fill:none;stroke:midnightblue;" d="M467,-56C465,-49 461,-39 458,-30"/>
<polygon style="fill:midnightblue;stroke:midnightblue;" points="461.226,-28.5725 455,-20 454.521,-30.584 461.226,-28.5725"/>
</g>
<!-- Node9&#45;&gt;Node7 -->
<g id="edge20" class="edge"><title>Node9&#45;&gt;Node7</title>
<path style="fill:none;stroke:midnightblue;" d="M530,-57C533,-57 535,-56 538,-56 811,-27 1145,-14 1245,-11"/>
<polygon style="fill:midnightblue;stroke:midnightblue;" points="1245,-14.5001 1255,-11 1245,-7.5001 1245,-14.5001"/>
</g>
<!-- Node11 -->
<g id="node23" class="node"><title>Node11</title>
<polygon style="fill:white;stroke:#bfbfbf;" points="332,-0 332,-20 388,-20 388,-0 332,-0"/>
<text text-anchor="middle" x="360" y="-7" style="font-family:Arial;font-size:10.00;">algorithm</text>
</g>
<!-- Node10&#45;&gt;Node11 -->
<g id="edge24" class="edge"><title>Node10&#45;&gt;Node11</title>
<path style="fill:none;stroke:midnightblue;" d="M244,-56C267,-47 300,-34 325,-24"/>
<polygon style="fill:midnightblue;stroke:midnightblue;" points="327.015,-26.9636 335,-20 324.415,-20.4643 327.015,-26.9636"/>
</g>
<!-- Node12 -->
<g id="node25" class="node"><title>Node12</title>
<polygon style="fill:white;stroke:#bfbfbf;" points="0,-0 0,-20 107,-20 107,-0 0,-0"/>
<text text-anchor="middle" x="53" y="-7" style="font-family:Arial;font-size:10.00;">boost/shared_ptr.hpp</text>
</g>
<!-- Node10&#45;&gt;Node12 -->
<g id="edge26" class="edge"><title>Node10&#45;&gt;Node12</title>
<path style="fill:none;stroke:midnightblue;" d="M189,-56C162,-47 122,-33 93,-23"/>
<polygon style="fill:midnightblue;stroke:midnightblue;" points="93.584,-19.5212 83,-20 91.5725,-26.2259 93.584,-19.5212"/>
</g>
<!-- Node13 -->
<g id="node27" class="node"><title>Node13</title>
<polygon style="fill:white;stroke:#bfbfbf;" points="124,-0 124,-20 315,-20 315,-0 124,-0"/>
<text text-anchor="middle" x="219" y="-7" style="font-family:Arial;font-size:10.00;">boost/smart_ptr/detail/operator_bool.hpp</text>
</g>
<!-- Node10&#45;&gt;Node13 -->
<g id="edge28" class="edge"><title>Node10&#45;&gt;Node13</title>
<path style="fill:none;stroke:midnightblue;" d="M219,-56C219,-49 219,-39 219,-30"/>
<polygon style="fill:midnightblue;stroke:midnightblue;" points="222.5,-30 219,-20 215.5,-30 222.5,-30"/>
</g>
<!-- Node14&#45;&gt;Node7 -->
<g id="edge34" class="edge"><title>Node14&#45;&gt;Node7</title>
<path style="fill:none;stroke:midnightblue;" d="M1900,-449C1957,-436 2032,-407 2032,-346 2032,-346 2032,-346 2032,-122 2032,-63 1973,-73 1918,-56 1801,-19 1416,-11 1305,-10"/>
<polygon style="fill:midnightblue;stroke:midnightblue;" points="1305,-6.5001 1295,-10 1305,-13.5001 1305,-6.5001"/>
</g>
<!-- Node15 -->
<g id="node31" class="node"><title>Node15</title>
<polygon style="fill:white;stroke:#bfbfbf;" points="1565,-112 1565,-132 1679,-132 1679,-112 1565,-112"/>
<text text-anchor="middle" x="1622" y="-119" style="font-family:Arial;font-size:10.00;">boost/lexical_cast.hpp</text>
</g>
<!-- Node14&#45;&gt;Node15 -->
<g id="edge32" class="edge"><title>Node14&#45;&gt;Node15</title>
<path style="fill:none;stroke:midnightblue;" d="M1836,-448C1821,-408 1763,-263 1682,-168 1672,-156 1659,-145 1647,-137"/>
<polygon style="fill:midnightblue;stroke:midnightblue;" points="1649.34,-134.332 1639,-132 1645.62,-140.268 1649.34,-134.332"/>
</g>
<!-- Node16 -->
<g id="node34" class="node"><title>Node16</title>
<a xlink:href="scorer_8h.html" target="_top" xlink:title="ltr/scorers/scorer.h">
<polygon style="fill:white;stroke:black;" points="1522,-392 1522,-412 1619,-412 1619,-392 1522,-392"/>
<text text-anchor="middle" x="1570" y="-399" style="font-family:Arial;font-size:10.00;">ltr/scorers/scorer.h</text>
</a>
</g>
<!-- Node14&#45;&gt;Node16 -->
<g id="edge36" class="edge"><title>Node14&#45;&gt;Node16</title>
<path style="fill:none;stroke:midnightblue;" d="M1792,-448C1746,-439 1677,-424 1628,-414"/>
<polygon style="fill:midnightblue;stroke:midnightblue;" points="1628.49,-410.529 1618,-412 1627.12,-417.393 1628.49,-410.529"/>
</g>
<!-- Node16&#45;&gt;Node3 -->
<g id="edge48" class="edge"><title>Node16&#45;&gt;Node3</title>
<path style="fill:none;stroke:midnightblue;" d="M1522,-399C1315,-388 511,-341 511,-290 511,-290 511,-290 511,-234 511,-194 477,-158 453,-138"/>
<polygon style="fill:midnightblue;stroke:midnightblue;" points="455.1,-135.2 445,-132 450.9,-140.8 455.1,-135.2"/>
</g>
<!-- Node16&#45;&gt;Node7 -->
<g id="edge42" class="edge"><title>Node16&#45;&gt;Node7</title>
<path style="fill:none;stroke:midnightblue;" d="M1619,-397C1688,-390 1812,-374 1853,-356 1942,-315 1985,-276 1985,-178 1985,-178 1985,-178 1985,-122 1985,-54 1913,-73 1849,-56 1745,-27 1408,-14 1305,-11"/>
<polygon style="fill:midnightblue;stroke:midnightblue;" points="1305,-7.5001 1295,-11 1305,-14.5001 1305,-7.5001"/>
</g>
<!-- Node16&#45;&gt;Node8 -->
<g id="edge40" class="edge"><title>Node16&#45;&gt;Node8</title>
<path style="fill:none;stroke:midnightblue;" d="M1619,-399C1721,-391 1942,-358 1923,-224 1915,-172 1929,-145 1890,-112 1859,-86 1586,-72 1492,-68"/>
<polygon style="fill:midnightblue;stroke:midnightblue;" points="1492.3,-64.5125 1482,-67 1491.6,-71.4778 1492.3,-64.5125"/>
</g>
<!-- Node16&#45;&gt;Node9 -->
<g id="edge188" class="edge"><title>Node16&#45;&gt;Node9</title>
<path style="fill:none;stroke:midnightblue;" d="M1522,-401C1335,-398 661,-384 450,-356 323,-338 172,-417 171,-290 171,-290 171,-290 171,-234 172,-128 315,-88 403,-74"/>
<polygon style="fill:midnightblue;stroke:midnightblue;" points="403.881,-77.3933 413,-72 402.508,-70.5292 403.881,-77.3933"/>
</g>
<!-- Node16&#45;&gt;Node10 -->
<g id="edge190" class="edge"><title>Node16&#45;&gt;Node10</title>
<path style="fill:none;stroke:midnightblue;" d="M1522,-402C1293,-400 314,-390 183,-356 122,-339 57,-353 57,-290 57,-290 57,-290 57,-178 57,-124 118,-94 165,-79"/>
<polygon style="fill:midnightblue;stroke:midnightblue;" points="166.427,-82.2259 175,-76 164.416,-75.5212 166.427,-82.2259"/>
</g>
<!-- Node16&#45;&gt;Node15 -->
<g id="edge38" class="edge"><title>Node16&#45;&gt;Node15</title>
<path style="fill:none;stroke:midnightblue;" d="M1594,-392C1628,-376 1687,-340 1687,-290 1687,-290 1687,-290 1687,-234 1687,-196 1659,-160 1640,-139"/>
<polygon style="fill:midnightblue;stroke:midnightblue;" points="1642.55,-136.596 1633,-132 1637.6,-141.546 1642.55,-136.596"/>
</g>
<!-- Node17 -->
<g id="node39" class="node"><title>Node17</title>
<a xlink:href="aliaser_8h.html" target="_top" xlink:title="ltr/interfaces/aliaser.h">
<polygon style="fill:white;stroke:black;" points="1773,-112 1773,-132 1881,-132 1881,-112 1773,-112"/>
<text text-anchor="middle" x="1827" y="-119" style="font-family:Arial;font-size:10.00;">ltr/interfaces/aliaser.h</text>
</a>
</g>
<!-- Node16&#45;&gt;Node17 -->
<g id="edge44" class="edge"><title>Node16&#45;&gt;Node17</title>
<path style="fill:none;stroke:midnightblue;" d="M1603,-392C1624,-384 1651,-372 1671,-356 1745,-292 1799,-185 1819,-141"/>
<polygon style="fill:midnightblue;stroke:midnightblue;" points="1822.14,-142.56 1823,-132 1815.74,-139.717 1822.14,-142.56"/>
</g>
<!-- Node18 -->
<g id="node43" class="node"><title>Node18</title>
<a xlink:href="feature__converter_8h.html" target="_top" xlink:title="ltr/feature_converters/feature_converter.h">
<polygon style="fill:white;stroke:black;" points="1359,-336 1359,-356 1549,-356 1549,-336 1359,-336"/>
<text text-anchor="middle" x="1454" y="-343" style="font-family:Arial;font-size:10.00;">ltr/feature_converters/feature_converter.h</text>
</a>
</g>
<!-- Node16&#45;&gt;Node18 -->
<g id="edge50" class="edge"><title>Node16&#45;&gt;Node18</title>
<path style="fill:none;stroke:midnightblue;" d="M1549,-392C1531,-383 1505,-370 1484,-360"/>
<polygon style="fill:midnightblue;stroke:midnightblue;" points="1485.56,-356.863 1475,-356 1482.72,-363.26 1485.56,-356.863"/>
</g>
<!-- Node33 -->
<g id="node119" class="node"><title>Node33</title>
<a xlink:href="serializable__functor_8h.html" target="_top" xlink:title="ltr/interfaces/serializable_functor.h">
<polygon style="fill:white;stroke:black;" points="241,-224 241,-244 404,-244 404,-224 241,-224"/>
<text text-anchor="middle" x="322" y="-231" style="font-family:Arial;font-size:10.00;">ltr/interfaces/serializable_functor.h</text>
</a>
</g>
<!-- Node16&#45;&gt;Node33 -->
<g id="edge172" class="edge"><title>Node16&#45;&gt;Node33</title>
<path style="fill:none;stroke:midnightblue;" d="M1522,-402C1326,-399 595,-389 497,-356 432,-333 369,-279 339,-251"/>
<polygon style="fill:midnightblue;stroke:midnightblue;" points="341.546,-248.596 332,-244 336.596,-253.546 341.546,-248.596"/>
</g>
<!-- Node17&#45;&gt;Node7 -->
<g id="edge46" class="edge"><title>Node17&#45;&gt;Node7</title>
<path style="fill:none;stroke:midnightblue;" d="M1820,-112C1809,-97 1786,-68 1759,-56 1677,-18 1398,-11 1305,-10"/>
<polygon style="fill:midnightblue;stroke:midnightblue;" points="1305,-6.5001 1295,-10 1305,-13.5001 1305,-6.5001"/>
</g>
<!-- Node18&#45;&gt;Node3 -->
<g id="edge148" class="edge"><title>Node18&#45;&gt;Node3</title>
<path style="fill:none;stroke:midnightblue;" d="M1359,-341C1218,-331 946,-306 724,-244 654,-224 637,-215 571,-188 532,-172 488,-150 460,-136"/>
<polygon style="fill:midnightblue;stroke:midnightblue;" points="461.56,-132.863 451,-132 458.717,-139.26 461.56,-132.863"/>
</g>
<!-- Node18&#45;&gt;Node6 -->
<g id="edge56" class="edge"><title>Node18&#45;&gt;Node6</title>
<path style="fill:none;stroke:midnightblue;" d="M1450,-336C1442,-313 1418,-256 1380,-224 1348,-196 1331,-206 1294,-188 1232,-157 1222,-138 1159,-112 1116,-94 1065,-81 1030,-74"/>
<polygon style="fill:midnightblue;stroke:midnightblue;" points="1030.49,-70.5292 1020,-72 1029.12,-77.3933 1030.49,-70.5292"/>
</g>
<!-- Node18&#45;&gt;Node7 -->
<g id="edge54" class="edge"><title>Node18&#45;&gt;Node7</title>
<path style="fill:none;stroke:midnightblue;" d="M1518,-336C1644,-315 1909,-260 1909,-178 1909,-178 1909,-178 1909,-122 1909,-60 1846,-73 1788,-56 1697,-28 1401,-15 1305,-11"/>
<polygon style="fill:midnightblue;stroke:midnightblue;" points="1305,-7.5001 1295,-11 1305,-14.5001 1305,-7.5001"/>
</g>
<!-- Node18&#45;&gt;Node8 -->
<g id="edge52" class="edge"><title>Node18&#45;&gt;Node8</title>
<path style="fill:none;stroke:midnightblue;" d="M1492,-336C1510,-329 1531,-318 1543,-300 1556,-279 1545,-268 1546,-244 1546,-235 1548,-232 1546,-224 1532,-169 1516,-160 1489,-112 1484,-103 1478,-93 1472,-84"/>
<polygon style="fill:midnightblue;stroke:midnightblue;" points="1475.27,-82.625 1467,-76 1469.33,-86.335 1475.27,-82.625"/>
</g>
<!-- Node18&#45;&gt;Node10 -->
<g id="edge170" class="edge"><title>Node18&#45;&gt;Node10</title>
<path style="fill:none;stroke:midnightblue;" d="M1359,-342C1089,-329 334,-289 232,-244 177,-218 163,-192 152,-132 151,-123 148,-119 152,-112 159,-98 172,-89 185,-81"/>
<polygon style="fill:midnightblue;stroke:midnightblue;" points="186.958,-83.916 194,-76 183.559,-77.7969 186.958,-83.916"/>
</g>
<!-- Node18&#45;&gt;Node17 -->
<g id="edge168" class="edge"><title>Node18&#45;&gt;Node17</title>
<path style="fill:none;stroke:midnightblue;" d="M1501,-336C1532,-328 1571,-317 1603,-300 1689,-254 1774,-175 1810,-139"/>
<polygon style="fill:midnightblue;stroke:midnightblue;" points="1812.4,-141.546 1817,-132 1807.45,-136.596 1812.4,-141.546"/>
</g>
<!-- Node19 -->
<g id="node48" class="node"><title>Node19</title>
<a xlink:href="data__set_8h.html" target="_top" xlink:title="ltr/data/data_set.h">
<polygon style="fill:white;stroke:black;" points="1190,-280 1190,-300 1285,-300 1285,-280 1190,-280"/>
<text text-anchor="middle" x="1237" y="-287" style="font-family:Arial;font-size:10.00;">ltr/data/data_set.h</text>
</a>
</g>
<!-- Node18&#45;&gt;Node19 -->
<g id="edge58" class="edge"><title>Node18&#45;&gt;Node19</title>
<path style="fill:none;stroke:midnightblue;" d="M1415,-336C1379,-327 1325,-313 1286,-303"/>
<polygon style="fill:midnightblue;stroke:midnightblue;" points="1286.58,-299.521 1276,-300 1284.57,-306.226 1286.58,-299.521"/>
</g>
<!-- Node23 -->
<g id="node72" class="node"><title>Node23</title>
<a xlink:href="feature__info_8h.html" target="_top" xlink:title="ltr/data/feature_info.h">
<polygon style="fill:white;stroke:black;" points="1265,-224 1265,-244 1372,-244 1372,-224 1265,-224"/>
<text text-anchor="middle" x="1318" y="-231" style="font-family:Arial;font-size:10.00;">ltr/data/feature_info.h</text>
</a>
</g>
<!-- Node18&#45;&gt;Node23 -->
<g id="edge146" class="edge"><title>Node18&#45;&gt;Node23</title>
<path style="fill:none;stroke:midnightblue;" d="M1441,-336C1418,-316 1367,-275 1339,-251"/>
<polygon style="fill:midnightblue;stroke:midnightblue;" points="1340.83,-247.951 1331,-244 1336.22,-253.219 1340.83,-247.951"/>
</g>
<!-- Node24 -->
<g id="node77" class="node"><title>Node24</title>
<a xlink:href="parameterized_8h.html" target="_top" xlink:title="ltr/interfaces/parameterized.h">
<polygon style="fill:white;stroke:black;" points="1050,-168 1050,-188 1192,-188 1192,-168 1050,-168"/>
<text text-anchor="middle" x="1121" y="-175" style="font-family:Arial;font-size:10.00;">ltr/interfaces/parameterized.h</text>
</a>
</g>
<!-- Node18&#45;&gt;Node24 -->
<g id="edge152" class="edge"><title>Node18&#45;&gt;Node24</title>
<path style="fill:none;stroke:midnightblue;" d="M1359,-339C1292,-332 1209,-320 1181,-300 1147,-275 1131,-226 1125,-198"/>
<polygon style="fill:midnightblue;stroke:midnightblue;" points="1128.39,-197.119 1123,-188 1121.53,-198.492 1128.39,-197.119"/>
</g>
<!-- Node30 -->
<g id="node96" class="node"><title>Node30</title>
<a xlink:href="per__object__accessor_8h.html" target="_top" xlink:title="ltr/data/per_object_accessor.h">
<polygon style="fill:white;stroke:black;" points="808,-224 808,-244 955,-244 955,-224 808,-224"/>
<text text-anchor="middle" x="881" y="-231" style="font-family:Arial;font-size:10.00;">ltr/data/per_object_accessor.h</text>
</a>
</g>
<!-- Node18&#45;&gt;Node30 -->
<g id="edge150" class="edge"><title>Node18&#45;&gt;Node30</title>
<path style="fill:none;stroke:midnightblue;" d="M1359,-339C1282,-333 1173,-321 1079,-300 1020,-286 954,-263 915,-248"/>
<polygon style="fill:midnightblue;stroke:midnightblue;" points="916.56,-244.863 906,-244 913.717,-251.26 916.56,-244.863"/>
</g>
<!-- Node31 -->
<g id="node108" class="node"><title>Node31</title>
<a xlink:href="serializable_8h.html" target="_top" xlink:title="ltr/interfaces/serializable.h">
<polygon style="fill:white;stroke:black;" points="1303,-168 1303,-188 1432,-188 1432,-168 1303,-168"/>
<text text-anchor="middle" x="1367" y="-175" style="font-family:Arial;font-size:10.00;">ltr/interfaces/serializable.h</text>
</a>
</g>
<!-- Node18&#45;&gt;Node31 -->
<g id="edge154" class="edge"><title>Node18&#45;&gt;Node31</title>
<path style="fill:none;stroke:midnightblue;" d="M1482,-336C1498,-329 1517,-317 1527,-300 1543,-270 1547,-250 1527,-224 1516,-209 1477,-198 1440,-190"/>
<polygon style="fill:midnightblue;stroke:midnightblue;" points="1440.49,-186.529 1430,-188 1439.12,-193.393 1440.49,-186.529"/>
</g>
<!-- Node19&#45;&gt;Node3 -->
<g id="edge68" class="edge"><title>Node19&#45;&gt;Node3</title>
<path style="fill:none;stroke:midnightblue;" d="M1190,-288C1109,-284 939,-273 799,-244 719,-227 701,-214 624,-188 600,-179 594,-176 571,-168 538,-156 500,-144 473,-135"/>
<polygon style="fill:midnightblue;stroke:midnightblue;" points="473.584,-131.521 463,-132 471.573,-138.226 473.584,-131.521"/>
</g>
<!-- Node19&#45;&gt;Node6 -->
<g id="edge62" class="edge"><title>Node19&#45;&gt;Node6</title>
<path style="fill:none;stroke:midnightblue;" d="M1237,-280C1235,-257 1229,-201 1201,-168 1156,-115 1078,-87 1030,-74"/>
<polygon style="fill:midnightblue;stroke:midnightblue;" points="1030.49,-70.5292 1020,-72 1029.12,-77.3933 1030.49,-70.5292"/>
</g>
<!-- Node19&#45;&gt;Node7 -->
<g id="edge64" class="edge"><title>Node19&#45;&gt;Node7</title>
<path style="fill:none;stroke:midnightblue;" d="M1285,-281C1322,-273 1373,-261 1416,-244 1432,-237 1434,-231 1451,-224 1477,-211 1684,-156 1701,-132 1736,-81 1677,-78 1618,-56 1561,-34 1378,-18 1305,-12"/>
<polygon style="fill:midnightblue;stroke:midnightblue;" points="1305.3,-8.5125 1295,-11 1304.6,-15.4778 1305.3,-8.5125"/>
</g>
<!-- Node19&#45;&gt;Node8 -->
<g id="edge66" class="edge"><title>Node19&#45;&gt;Node8</title>
<path style="fill:none;stroke:midnightblue;" d="M1285,-282C1337,-270 1416,-244 1457,-188 1477,-159 1480,-146 1475,-112 1474,-103 1471,-94 1468,-86"/>
<polygon style="fill:midnightblue;stroke:midnightblue;" points="1471.23,-84.5725 1465,-76 1464.52,-86.584 1471.23,-84.5725"/>
</g>
<!-- Node19&#45;&gt;Node17 -->
<g id="edge144" class="edge"><title>Node19&#45;&gt;Node17</title>
<path style="fill:none;stroke:midnightblue;" d="M1285,-281C1329,-273 1395,-259 1451,-244 1529,-222 1547,-213 1625,-188 1680,-170 1745,-148 1786,-135"/>
<polygon style="fill:midnightblue;stroke:midnightblue;" points="1787.43,-138.226 1796,-132 1785.42,-131.521 1787.43,-138.226"/>
</g>
<!-- Node20 -->
<g id="node50" class="node"><title>Node20</title>
<polygon style="fill:white;stroke:#bfbfbf;" points="1159,-224 1159,-244 1210,-244 1210,-224 1159,-224"/>
<text text-anchor="middle" x="1184" y="-231" style="font-family:Arial;font-size:10.00;">sstream</text>
</g>
<!-- Node19&#45;&gt;Node20 -->
<g id="edge60" class="edge"><title>Node19&#45;&gt;Node20</title>
<path style="fill:none;stroke:midnightblue;" d="M1228,-280C1220,-272 1209,-261 1201,-252"/>
<polygon style="fill:midnightblue;stroke:midnightblue;" points="1203.22,-249.221 1194,-244 1197.95,-253.831 1203.22,-249.221"/>
</g>
<!-- Node21 -->
<g id="node56" class="node"><title>Node21</title>
<a xlink:href="object__list_8h.html" target="_top" xlink:title="ltr/data/object_list.h">
<polygon style="fill:white;stroke:black;" points="709,-168 709,-188 811,-188 811,-168 709,-168"/>
<text text-anchor="middle" x="760" y="-175" style="font-family:Arial;font-size:10.00;">ltr/data/object_list.h</text>
</a>
</g>
<!-- Node19&#45;&gt;Node21 -->
<g id="edge70" class="edge"><title>Node19&#45;&gt;Node21</title>
<path style="fill:none;stroke:midnightblue;" d="M1190,-280C1149,-271 1087,-257 1034,-244 1002,-235 994,-232 963,-224 914,-211 858,-199 818,-190"/>
<polygon style="fill:midnightblue;stroke:midnightblue;" points="818.492,-186.529 808,-188 817.119,-193.393 818.492,-186.529"/>
</g>
<!-- Node22 -->
<g id="node64" class="node"><title>Node22</title>
<a xlink:href="object__pair_8h.html" target="_top" xlink:title="ltr/data/object_pair.h">
<polygon style="fill:white;stroke:black;" points="829,-168 829,-188 933,-188 933,-168 829,-168"/>
<text text-anchor="middle" x="881" y="-175" style="font-family:Arial;font-size:10.00;">ltr/data/object_pair.h</text>
</a>
</g>
<!-- Node19&#45;&gt;Node22 -->
<g id="edge84" class="edge"><title>Node19&#45;&gt;Node22</title>
<path style="fill:none;stroke:midnightblue;" d="M1207,-280C1167,-267 1095,-243 1034,-224 997,-212 956,-200 926,-191"/>
<polygon style="fill:midnightblue;stroke:midnightblue;" points="926.584,-187.521 916,-188 924.573,-194.226 926.584,-187.521"/>
</g>
<!-- Node19&#45;&gt;Node23 -->
<g id="edge98" class="edge"><title>Node19&#45;&gt;Node23</title>
<path style="fill:none;stroke:midnightblue;" d="M1251,-280C1263,-272 1281,-260 1295,-250"/>
<polygon style="fill:midnightblue;stroke:midnightblue;" points="1297.1,-252.8 1303,-244 1292.9,-247.2 1297.1,-252.8"/>
</g>
<!-- Node19&#45;&gt;Node30 -->
<g id="edge132" class="edge"><title>Node19&#45;&gt;Node30</title>
<path style="fill:none;stroke:midnightblue;" d="M1190,-283C1130,-273 1026,-257 955,-246"/>
<polygon style="fill:midnightblue;stroke:midnightblue;" points="955.492,-242.529 945,-244 954.119,-249.393 955.492,-242.529"/>
</g>
<!-- Node21&#45;&gt;Node3 -->
<g id="edge78" class="edge"><title>Node21&#45;&gt;Node3</title>
<path style="fill:none;stroke:midnightblue;" d="M709,-170C654,-160 564,-145 487,-132 486,-132 484,-131 483,-131"/>
<polygon style="fill:midnightblue;stroke:midnightblue;" points="483.492,-127.529 473,-129 482.119,-134.393 483.492,-127.529"/>
</g>
<!-- Node21&#45;&gt;Node6 -->
<g id="edge72" class="edge"><title>Node21&#45;&gt;Node6</title>
<path style="fill:none;stroke:midnightblue;" d="M808,-168C860,-157 935,-140 947,-132 963,-120 975,-100 982,-85"/>
<polygon style="fill:midnightblue;stroke:midnightblue;" points="985.137,-86.5596 986,-76 978.74,-83.7166 985.137,-86.5596"/>
</g>
<!-- Node21&#45;&gt;Node7 -->
<g id="edge74" class="edge"><title>Node21&#45;&gt;Node7</title>
<path style="fill:none;stroke:midnightblue;" d="M807,-168C846,-159 897,-145 914,-132 942,-107 921,-78 952,-56 998,-22 1174,-13 1245,-10"/>
<polygon style="fill:midnightblue;stroke:midnightblue;" points="1245,-13.5001 1255,-10 1245,-6.5001 1245,-13.5001"/>
</g>
<!-- Node21&#45;&gt;Node8 -->
<g id="edge76" class="edge"><title>Node21&#45;&gt;Node8</title>
<path style="fill:none;stroke:midnightblue;" d="M809,-168C877,-154 1004,-129 1114,-112 1230,-93 1368,-77 1430,-69"/>
<polygon style="fill:midnightblue;stroke:midnightblue;" points="1430.4,-72.4778 1440,-68 1429.7,-65.5125 1430.4,-72.4778"/>
</g>
<!-- Node21&#45;&gt;Node9 -->
<g id="edge80" class="edge"><title>Node21&#45;&gt;Node9</title>
<path style="fill:none;stroke:midnightblue;" d="M718,-168C686,-160 640,-147 601,-132 564,-117 523,-96 497,-81"/>
<polygon style="fill:midnightblue;stroke:midnightblue;" points="498.441,-77.7969 488,-76 495.042,-83.916 498.441,-77.7969"/>
</g>
<!-- Node21&#45;&gt;Node10 -->
<g id="edge82" class="edge"><title>Node21&#45;&gt;Node10</title>
<path style="fill:none;stroke:midnightblue;" d="M709,-176C635,-172 495,-161 380,-132 332,-119 279,-96 248,-81"/>
<polygon style="fill:midnightblue;stroke:midnightblue;" points="249.441,-77.7969 239,-76 246.042,-83.916 249.441,-77.7969"/>
</g>
<!-- Node22&#45;&gt;Node3 -->
<g id="edge92" class="edge"><title>Node22&#45;&gt;Node3</title>
<path style="fill:none;stroke:midnightblue;" d="M829,-169C826,-169 823,-168 820,-168 672,-147 634,-153 487,-132 486,-132 484,-132 483,-131"/>
<polygon style="fill:midnightblue;stroke:midnightblue;" points="483.299,-127.512 473,-130 482.602,-134.478 483.299,-127.512"/>
</g>
<!-- Node22&#45;&gt;Node6 -->
<g id="edge86" class="edge"><title>Node22&#45;&gt;Node6</title>
<path style="fill:none;stroke:midnightblue;" d="M930,-168C950,-161 972,-150 985,-132 994,-119 994,-100 993,-86"/>
<polygon style="fill:midnightblue;stroke:midnightblue;" points="996.478,-85.6021 992,-76 989.512,-86.2987 996.478,-85.6021"/>
</g>
<!-- Node22&#45;&gt;Node7 -->
<g id="edge88" class="edge"><title>Node22&#45;&gt;Node7</title>
<path style="fill:none;stroke:midnightblue;" d="M907,-168C932,-159 968,-145 1000,-132 1090,-94 1195,-46 1246,-23"/>
<polygon style="fill:midnightblue;stroke:midnightblue;" points="1247.28,-26.2598 1255,-19 1244.44,-19.8631 1247.28,-26.2598"/>
</g>
<!-- Node22&#45;&gt;Node8 -->
<g id="edge90" class="edge"><title>Node22&#45;&gt;Node8</title>
<path style="fill:none;stroke:midnightblue;" d="M933,-168C1051,-145 1335,-90 1430,-72"/>
<polygon style="fill:midnightblue;stroke:midnightblue;" points="1430.88,-75.3933 1440,-70 1429.51,-68.5292 1430.88,-75.3933"/>
</g>
<!-- Node22&#45;&gt;Node9 -->
<g id="edge94" class="edge"><title>Node22&#45;&gt;Node9</title>
<path style="fill:none;stroke:midnightblue;" d="M829,-169C763,-157 657,-137 639,-132 618,-125 614,-120 595,-112 567,-100 534,-88 510,-79"/>
<polygon style="fill:midnightblue;stroke:midnightblue;" points="510.584,-75.5212 500,-76 508.573,-82.2259 510.584,-75.5212"/>
</g>
<!-- Node22&#45;&gt;Node10 -->
<g id="edge96" class="edge"><title>Node22&#45;&gt;Node10</title>
<path style="fill:none;stroke:midnightblue;" d="M829,-169C826,-169 823,-168 820,-168 689,-149 651,-168 525,-132 504,-126 502,-118 482,-112 415,-91 337,-79 283,-72"/>
<polygon style="fill:midnightblue;stroke:midnightblue;" points="283.299,-68.5125 273,-71 282.602,-75.4778 283.299,-68.5125"/>
</g>
<!-- Node23&#45;&gt;Node4 -->
<g id="edge100" class="edge"><title>Node23&#45;&gt;Node4</title>
<path style="fill:none;stroke:midnightblue;" d="M1265,-226C1209,-217 1118,-202 1041,-188 996,-179 986,-175 942,-168 822,-148 786,-172 672,-132 654,-126 614,-99 588,-82"/>
<polygon style="fill:midnightblue;stroke:midnightblue;" points="589.262,-78.6349 579,-76 585.379,-84.4592 589.262,-78.6349"/>
</g>
<!-- Node23&#45;&gt;Node7 -->
<g id="edge102" class="edge"><title>Node23&#45;&gt;Node7</title>
<path style="fill:none;stroke:midnightblue;" d="M1359,-224C1453,-201 1678,-145 1688,-132 1693,-124 1693,-119 1688,-112 1641,-50 1392,-20 1305,-13"/>
<polygon style="fill:midnightblue;stroke:midnightblue;" points="1305.3,-9.5125 1295,-12 1304.6,-16.4778 1305.3,-9.5125"/>
</g>
<!-- Node23&#45;&gt;Node8 -->
<g id="edge104" class="edge"><title>Node23&#45;&gt;Node8</title>
<path style="fill:none;stroke:midnightblue;" d="M1372,-226C1396,-219 1423,-208 1440,-188 1464,-158 1465,-112 1463,-86"/>
<polygon style="fill:midnightblue;stroke:midnightblue;" points="1466.48,-85.6021 1462,-76 1459.51,-86.2987 1466.48,-85.6021"/>
</g>
<!-- Node23&#45;&gt;Node10 -->
<g id="edge130" class="edge"><title>Node23&#45;&gt;Node10</title>
<path style="fill:none;stroke:midnightblue;" d="M1265,-228C1250,-227 1233,-225 1218,-224 1165,-220 309,-218 266,-188 233,-164 223,-114 220,-86"/>
<polygon style="fill:midnightblue;stroke:midnightblue;" points="223.478,-85.6021 219,-76 216.512,-86.2987 223.478,-85.6021"/>
</g>
<!-- Node23&#45;&gt;Node24 -->
<g id="edge106" class="edge"><title>Node23&#45;&gt;Node24</title>
<path style="fill:none;stroke:midnightblue;" d="M1283,-224C1250,-215 1201,-201 1166,-191"/>
<polygon style="fill:midnightblue;stroke:midnightblue;" points="1166.58,-187.521 1156,-188 1164.57,-194.226 1166.58,-187.521"/>
</g>
<!-- Node24&#45;&gt;Node6 -->
<g id="edge108" class="edge"><title>Node24&#45;&gt;Node6</title>
<path style="fill:none;stroke:midnightblue;" d="M1109,-168C1086,-148 1037,-107 1010,-83"/>
<polygon style="fill:midnightblue;stroke:midnightblue;" points="1011.83,-79.9511 1002,-76 1007.22,-85.2191 1011.83,-79.9511"/>
</g>
<!-- Node24&#45;&gt;Node7 -->
<g id="edge110" class="edge"><title>Node24&#45;&gt;Node7</title>
<path style="fill:none;stroke:midnightblue;" d="M1129,-168C1147,-147 1191,-96 1229,-56 1238,-46 1248,-35 1257,-27"/>
<polygon style="fill:midnightblue;stroke:midnightblue;" points="1259.4,-29.546 1264,-20 1254.45,-24.5962 1259.4,-29.546"/>
</g>
<!-- Node25 -->
<g id="node81" class="node"><title>Node25</title>
<a xlink:href="parameters__container_8h.html" target="_top" xlink:title="ltr/parameters_container/parameters_container.h">
<polygon style="fill:white;stroke:black;" points="681,-112 681,-132 906,-132 906,-112 681,-112"/>
<text text-anchor="middle" x="793" y="-119" style="font-family:Arial;font-size:10.00;">ltr/parameters_container/parameters_container.h</text>
</a>
</g>
<!-- Node24&#45;&gt;Node25 -->
<g id="edge112" class="edge"><title>Node24&#45;&gt;Node25</title>
<path style="fill:none;stroke:midnightblue;" d="M1062,-168C1006,-159 921,-144 861,-134"/>
<polygon style="fill:midnightblue;stroke:midnightblue;" points="861.492,-130.529 851,-132 860.119,-137.393 861.492,-130.529"/>
</g>
<!-- Node25&#45;&gt;Node6 -->
<g id="edge118" class="edge"><title>Node25&#45;&gt;Node6</title>
<path style="fill:none;stroke:midnightblue;" d="M828,-112C863,-102 915,-87 951,-77"/>
<polygon style="fill:midnightblue;stroke:midnightblue;" points="952.427,-80.2259 961,-74 950.416,-73.5212 952.427,-80.2259"/>
</g>
<!-- Node25&#45;&gt;Node7 -->
<g id="edge120" class="edge"><title>Node25&#45;&gt;Node7</title>
<path style="fill:none;stroke:midnightblue;" d="M811,-112C843,-94 907,-59 919,-56 980,-37 1171,-19 1245,-13"/>
<polygon style="fill:midnightblue;stroke:midnightblue;" points="1245.4,-16.4778 1255,-12 1244.7,-9.5125 1245.4,-16.4778"/>
</g>
<!-- Node25&#45;&gt;Node9 -->
<g id="edge128" class="edge"><title>Node25&#45;&gt;Node9</title>
<path style="fill:none;stroke:midnightblue;" d="M735,-112C680,-103 597,-88 538,-78"/>
<polygon style="fill:midnightblue;stroke:midnightblue;" points="538.492,-74.5292 528,-76 537.119,-81.3933 538.492,-74.5292"/>
</g>
<!-- Node25&#45;&gt;Node10 -->
<g id="edge126" class="edge"><title>Node25&#45;&gt;Node10</title>
<path style="fill:none;stroke:midnightblue;" d="M690,-112C572,-100 382,-82 283,-72"/>
<polygon style="fill:midnightblue;stroke:midnightblue;" points="283.299,-68.5125 273,-71 282.602,-75.4778 283.299,-68.5125"/>
</g>
<!-- Node26 -->
<g id="node83" class="node"><title>Node26</title>
<polygon style="fill:white;stroke:#bfbfbf;" points="1238,-56 1238,-76 1312,-76 1312,-56 1238,-56"/>
<text text-anchor="middle" x="1275" y="-63" style="font-family:Arial;font-size:10.00;">logog/logog.h</text>
</g>
<!-- Node25&#45;&gt;Node26 -->
<g id="edge114" class="edge"><title>Node25&#45;&gt;Node26</title>
<path style="fill:none;stroke:midnightblue;" d="M879,-112C982,-100 1147,-81 1228,-71"/>
<polygon style="fill:midnightblue;stroke:midnightblue;" points="1228.4,-74.4778 1238,-70 1227.7,-67.5125 1228.4,-74.4778"/>
</g>
<!-- Node27 -->
<g id="node85" class="node"><title>Node27</title>
<polygon style="fill:white;stroke:#bfbfbf;" points="599,-56 599,-76 628,-76 628,-56 599,-56"/>
<text text-anchor="middle" x="613" y="-63" style="font-family:Arial;font-size:10.00;">list</text>
</g>
<!-- Node25&#45;&gt;Node27 -->
<g id="edge116" class="edge"><title>Node25&#45;&gt;Node27</title>
<path style="fill:none;stroke:midnightblue;" d="M754,-112C724,-104 682,-92 638,-76"/>
<polygon style="fill:midnightblue;stroke:midnightblue;" points="638.584,-72.5212 628,-73 636.573,-79.2259 638.584,-72.5212"/>
</g>
<!-- Node28 -->
<g id="node89" class="node"><title>Node28</title>
<polygon style="fill:white;stroke:#bfbfbf;" points="645,-56 645,-76 722,-76 722,-56 645,-56"/>
<text text-anchor="middle" x="683" y="-63" style="font-family:Arial;font-size:10.00;">boost/any.hpp</text>
</g>
<!-- Node25&#45;&gt;Node28 -->
<g id="edge122" class="edge"><title>Node25&#45;&gt;Node28</title>
<path style="fill:none;stroke:midnightblue;" d="M773,-112C757,-103 731,-90 712,-81"/>
<polygon style="fill:midnightblue;stroke:midnightblue;" points="713.441,-77.7969 703,-76 710.042,-83.916 713.441,-77.7969"/>
</g>
<!-- Node29 -->
<g id="node91" class="node"><title>Node29</title>
<polygon style="fill:white;stroke:#bfbfbf;" points="739,-56 739,-76 868,-76 868,-56 739,-56"/>
<text text-anchor="middle" x="803" y="-63" style="font-family:Arial;font-size:10.00;">boost/unordered_map.hpp</text>
</g>
<!-- Node25&#45;&gt;Node29 -->
<g id="edge124" class="edge"><title>Node25&#45;&gt;Node29</title>
<path style="fill:none;stroke:midnightblue;" d="M795,-112C796,-105 798,-95 800,-86"/>
<polygon style="fill:midnightblue;stroke:midnightblue;" points="803.488,-86.2987 801,-76 796.522,-85.6021 803.488,-86.2987"/>
</g>
<!-- Node30&#45;&gt;Node3 -->
<g id="edge134" class="edge"><title>Node30&#45;&gt;Node3</title>
<path style="fill:none;stroke:midnightblue;" d="M841,-224C758,-203 572,-157 482,-134"/>
<polygon style="fill:midnightblue;stroke:midnightblue;" points="482.492,-130.529 472,-132 481.119,-137.393 482.492,-130.529"/>
</g>
<!-- Node30&#45;&gt;Node10 -->
<g id="edge142" class="edge"><title>Node30&#45;&gt;Node10</title>
<path style="fill:none;stroke:midnightblue;" d="M808,-232C649,-228 281,-216 233,-188 207,-172 204,-160 195,-132 190,-116 198,-98 205,-85"/>
<polygon style="fill:midnightblue;stroke:midnightblue;" points="208.365,-86.262 211,-76 202.541,-82.3791 208.365,-86.262"/>
</g>
<!-- Node30&#45;&gt;Node21 -->
<g id="edge138" class="edge"><title>Node30&#45;&gt;Node21</title>
<path style="fill:none;stroke:midnightblue;" d="M859,-224C841,-215 813,-202 791,-192"/>
<polygon style="fill:midnightblue;stroke:midnightblue;" points="792.56,-188.863 782,-188 789.717,-195.26 792.56,-188.863"/>
</g>
<!-- Node30&#45;&gt;Node22 -->
<g id="edge136" class="edge"><title>Node30&#45;&gt;Node22</title>
<path style="fill:none;stroke:midnightblue;" d="M881,-224C881,-217 881,-207 881,-198"/>
<polygon style="fill:midnightblue;stroke:midnightblue;" points="884.5,-198 881,-188 877.5,-198 884.5,-198"/>
</g>
<!-- Node30&#45;&gt;Node24 -->
<g id="edge140" class="edge"><title>Node30&#45;&gt;Node24</title>
<path style="fill:none;stroke:midnightblue;" d="M924,-224C965,-215 1025,-200 1068,-190"/>
<polygon style="fill:midnightblue;stroke:midnightblue;" points="1068.88,-193.393 1078,-188 1067.51,-186.529 1068.88,-193.393"/>
</g>
<!-- Node31&#45;&gt;Node7 -->
<g id="edge160" class="edge"><title>Node31&#45;&gt;Node7</title>
<path style="fill:none;stroke:midnightblue;" d="M1365,-168C1359,-146 1345,-93 1321,-56 1314,-45 1304,-35 1296,-27"/>
<polygon style="fill:midnightblue;stroke:midnightblue;" points="1297.83,-23.9511 1288,-20 1293.22,-29.2191 1297.83,-23.9511"/>
</g>
<!-- Node31&#45;&gt;Node10 -->
<g id="edge164" class="edge"><title>Node31&#45;&gt;Node10</title>
<path style="fill:none;stroke:midnightblue;" d="M1303,-174C1142,-164 733,-138 672,-132 597,-124 390,-92 283,-76"/>
<polygon style="fill:midnightblue;stroke:midnightblue;" points="283.492,-72.5292 273,-74 282.119,-79.3933 283.492,-72.5292"/>
</g>
<!-- Node31&#45;&gt;Node15 -->
<g id="edge156" class="edge"><title>Node31&#45;&gt;Node15</title>
<path style="fill:none;stroke:midnightblue;" d="M1413,-168C1456,-159 1520,-144 1566,-134"/>
<polygon style="fill:midnightblue;stroke:midnightblue;" points="1566.88,-137.393 1576,-132 1565.51,-130.529 1566.88,-137.393"/>
</g>
<!-- Node31&#45;&gt;Node17 -->
<g id="edge166" class="edge"><title>Node31&#45;&gt;Node17</title>
<path style="fill:none;stroke:midnightblue;" d="M1432,-170C1520,-159 1676,-141 1763,-130"/>
<polygon style="fill:midnightblue;stroke:midnightblue;" points="1763.4,-133.478 1773,-129 1762.7,-126.512 1763.4,-133.478"/>
</g>
<!-- Node31&#45;&gt;Node26 -->
<g id="edge158" class="edge"><title>Node31&#45;&gt;Node26</title>
<path style="fill:none;stroke:midnightblue;" d="M1359,-168C1343,-148 1309,-108 1290,-84"/>
<polygon style="fill:midnightblue;stroke:midnightblue;" points="1292.8,-81.9 1284,-76 1287.2,-86.1 1292.8,-81.9"/>
</g>
<!-- Node32 -->
<g id="node113" class="node"><title>Node32</title>
<polygon style="fill:white;stroke:#bfbfbf;" points="1379,-112 1379,-132 1433,-132 1433,-112 1379,-112"/>
<text text-anchor="middle" x="1406" y="-119" style="font-family:Arial;font-size:10.00;">iostream</text>
</g>
<!-- Node31&#45;&gt;Node32 -->
<g id="edge162" class="edge"><title>Node31&#45;&gt;Node32</title>
<path style="fill:none;stroke:midnightblue;" d="M1374,-168C1379,-160 1387,-150 1393,-141"/>
<polygon style="fill:midnightblue;stroke:midnightblue;" points="1396.37,-142.262 1399,-132 1390.54,-138.379 1396.37,-142.262"/>
</g>
<!-- Node33&#45;&gt;Node10 -->
<g id="edge174" class="edge"><title>Node33&#45;&gt;Node10</title>
<path style="fill:none;stroke:midnightblue;" d="M274,-224C249,-217 218,-206 195,-188 172,-169 166,-160 157,-132 155,-123 154,-119 157,-112 161,-104 178,-91 193,-81"/>
<polygon style="fill:midnightblue;stroke:midnightblue;" points="194.958,-83.916 202,-76 191.559,-77.7969 194.958,-83.916"/>
</g>
<!-- Node33&#45;&gt;Node31 -->
<g id="edge186" class="edge"><title>Node33&#45;&gt;Node31</title>
<path style="fill:none;stroke:midnightblue;" d="M404,-230C559,-222 908,-204 1201,-188 1231,-186 1264,-184 1293,-182"/>
<polygon style="fill:midnightblue;stroke:midnightblue;" points="1293,-185.5 1303,-182 1293,-178.5 1293,-185.5"/>
</g>
<!-- Node34 -->
<g id="node122" class="node"><title>Node34</title>
<a xlink:href="functor_8h.html" target="_top" xlink:title="ltr/interfaces/functor.h">
<polygon style="fill:white;stroke:black;" points="275,-168 275,-188 384,-188 384,-168 275,-168"/>
<text text-anchor="middle" x="329" y="-175" style="font-family:Arial;font-size:10.00;">ltr/interfaces/functor.h</text>
</a>
</g>
<!-- Node33&#45;&gt;Node34 -->
<g id="edge176" class="edge"><title>Node33&#45;&gt;Node34</title>
<path style="fill:none;stroke:midnightblue;" d="M323,-224C324,-217 325,-207 326,-198"/>
<polygon style="fill:midnightblue;stroke:midnightblue;" points="329.471,-198.492 328,-188 322.607,-197.119 329.471,-198.492"/>
</g>
<!-- Node34&#45;&gt;Node3 -->
<g id="edge184" class="edge"><title>Node34&#45;&gt;Node3</title>
<path style="fill:none;stroke:midnightblue;" d="M347,-168C363,-159 386,-147 404,-137"/>
<polygon style="fill:midnightblue;stroke:midnightblue;" points="405.958,-139.916 413,-132 402.559,-133.797 405.958,-139.916"/>
</g>
<!-- Node34&#45;&gt;Node7 -->
<g id="edge182" class="edge"><title>Node34&#45;&gt;Node7</title>
<path style="fill:none;stroke:midnightblue;" d="M331,-168C336,-144 352,-82 393,-56 429,-33 1092,-15 1245,-10"/>
<polygon style="fill:midnightblue;stroke:midnightblue;" points="1245,-13.5001 1255,-10 1245,-6.5001 1245,-13.5001"/>
</g>
<!-- Node34&#45;&gt;Node10 -->
<g id="edge178" class="edge"><title>Node34&#45;&gt;Node10</title>
<path style="fill:none;stroke:midnightblue;" d="M314,-168C302,-159 284,-145 271,-132 256,-117 242,-98 232,-84"/>
<polygon style="fill:midnightblue;stroke:midnightblue;" points="234.8,-81.9 226,-76 229.2,-86.1 234.8,-81.9"/>
</g>
<!-- Node34&#45;&gt;Node15 -->
<g id="edge180" class="edge"><title>Node34&#45;&gt;Node15</title>
<path style="fill:none;stroke:midnightblue;" d="M384,-176C547,-170 1036,-151 1442,-132 1479,-130 1520,-128 1555,-126"/>
<polygon style="fill:midnightblue;stroke:midnightblue;" points="1555.4,-129.478 1565,-125 1554.7,-122.512 1555.4,-129.478"/>
</g>
</g>
</svg>
