<?xml version="1.0" encoding="UTF-8" standalone="no"?>
<!DOCTYPE svg PUBLIC "-//W3C//DTD SVG 1.0//EN"
 "http://www.w3.org/TR/2001/REC-SVG-20010904/DTD/svg10.dtd" [
 <!ATTLIST svg xmlns:xlink CDATA #FIXED "http://www.w3.org/1999/xlink">
]>
<!-- Generated by Graphviz version 2.20.2 (Tue Mar &#160;2 19:03:41 UTC 2010)
     For user: (jenkins)  -->
<!-- Title: G Pages: 1 -->
<svg width="718pt" height="84pt"
 viewBox="0.00 0.00 718.00 84.00" xmlns="http://www.w3.org/2000/svg" xmlns:xlink="http://www.w3.org/1999/xlink">
<g id="graph0" class="graph" transform="scale(1 1) rotate(0) translate(4 80)">
<title>G</title>
<polygon style="fill:white;stroke:white;" points="-4,4 -4,-80 714,-80 714,4 -4,4"/>
<!-- Node1 -->
<g id="node1" class="node"><title>Node1</title>
<polygon style="fill:#bfbfbf;stroke:black;" points="166,-56 166,-76 379,-76 379,-56 166,-56"/>
<text text-anchor="middle" x="272" y="-63" style="font-family:Arial;font-size:10.00;">ltr/feature_converters/fake_feature_converter.h</text>
</g>
<!-- Node2 -->
<g id="node3" class="node"><title>Node2</title>
<polygon style="fill:white;stroke:#bfbfbf;" points="0,-0 0,-20 40,-20 40,-0 0,-0"/>
<text text-anchor="middle" x="20" y="-7" style="font-family:Arial;font-size:10.00;">string</text>
</g>
<!-- Node1&#45;&gt;Node2 -->
<g id="edge2" class="edge"><title>Node1&#45;&gt;Node2</title>
<path style="fill:none;stroke:midnightblue;" d="M214,-56C171,-48 111,-36 50,-20"/>
<polygon style="fill:midnightblue;stroke:midnightblue;" points="50.584,-16.5212 40,-17 48.5725,-23.2259 50.584,-16.5212"/>
</g>
<!-- Node3 -->
<g id="node5" class="node"><title>Node3</title>
<polygon style="fill:white;stroke:#bfbfbf;" points="58,-0 58,-20 142,-20 142,-0 58,-0"/>
<text text-anchor="middle" x="100" y="-7" style="font-family:Arial;font-size:10.00;">ltr/data/object.h</text>
</g>
<!-- Node1&#45;&gt;Node3 -->
<g id="edge4" class="edge"><title>Node1&#45;&gt;Node3</title>
<path style="fill:none;stroke:midnightblue;" d="M241,-56C213,-47 171,-33 141,-23"/>
<polygon style="fill:midnightblue;stroke:midnightblue;" points="141.584,-19.5212 131,-20 139.573,-26.2259 141.584,-19.5212"/>
</g>
<!-- Node4 -->
<g id="node7" class="node"><title>Node4</title>
<polygon style="fill:white;stroke:#bfbfbf;" points="160,-0 160,-20 267,-20 267,-0 160,-0"/>
<text text-anchor="middle" x="213" y="-7" style="font-family:Arial;font-size:10.00;">ltr/data/feature_info.h</text>
</g>
<!-- Node1&#45;&gt;Node4 -->
<g id="edge6" class="edge"><title>Node1&#45;&gt;Node4</title>
<path style="fill:none;stroke:midnightblue;" d="M261,-56C252,-48 241,-37 231,-27"/>
<polygon style="fill:midnightblue;stroke:midnightblue;" points="233.546,-24.5962 224,-20 228.596,-29.546 233.546,-24.5962"/>
</g>
<!-- Node5 -->
<g id="node9" class="node"><title>Node5</title>
<polygon style="fill:white;stroke:#bfbfbf;" points="284,-0 284,-20 379,-20 379,-0 284,-0"/>
<text text-anchor="middle" x="331" y="-7" style="font-family:Arial;font-size:10.00;">ltr/data/data_set.h</text>
</g>
<!-- Node1&#45;&gt;Node5 -->
<g id="edge8" class="edge"><title>Node1&#45;&gt;Node5</title>
<path style="fill:none;stroke:midnightblue;" d="M283,-56C292,-48 303,-37 313,-27"/>
<polygon style="fill:midnightblue;stroke:midnightblue;" points="315.404,-29.546 320,-20 310.454,-24.5962 315.404,-29.546"/>
</g>
<!-- Node6 -->
<g id="node11" class="node"><title>Node6</title>
<polygon style="fill:white;stroke:#bfbfbf;" points="396,-0 396,-20 586,-20 586,-0 396,-0"/>
<text text-anchor="middle" x="491" y="-7" style="font-family:Arial;font-size:10.00;">ltr/feature_converters/feature_converter.h</text>
</g>
<!-- Node1&#45;&gt;Node6 -->
<g id="edge10" class="edge"><title>Node1&#45;&gt;Node6</title>
<path style="fill:none;stroke:midnightblue;" d="M311,-56C348,-47 403,-32 442,-22"/>
<polygon style="fill:midnightblue;stroke:midnightblue;" points="442.881,-25.3933 452,-20 441.508,-18.5292 442.881,-25.3933"/>
</g>
<!-- Node7 -->
<g id="node13" class="node"><title>Node7</title>
<polygon style="fill:white;stroke:#bfbfbf;" points="604,-0 604,-20 711,-20 711,-0 604,-0"/>
<text text-anchor="middle" x="657" y="-7" style="font-family:Arial;font-size:10.00;">ltr/utility/shared_ptr.h</text>
</g>
<!-- Node1&#45;&gt;Node7 -->
<g id="edge12" class="edge"><title>Node1&#45;&gt;Node7</title>
<path style="fill:none;stroke:midnightblue;" d="M343,-56C407,-47 501,-34 594,-20"/>
<polygon style="fill:midnightblue;stroke:midnightblue;" points="594.881,-23.3933 604,-18 593.508,-16.5292 594.881,-23.3933"/>
</g>
</g>
</svg>
