<?xml version="1.0" encoding="UTF-8" standalone="no"?>
<!DOCTYPE svg PUBLIC "-//W3C//DTD SVG 1.0//EN"
 "http://www.w3.org/TR/2001/REC-SVG-20010904/DTD/svg10.dtd" [
 <!ATTLIST svg xmlns:xlink CDATA #FIXED "http://www.w3.org/1999/xlink">
]>
<!-- Generated by Graphviz version 2.20.2 (Tue Mar &#160;2 19:03:41 UTC 2010)
     For user: (jenkins)  -->
<!-- Title: G Pages: 1 -->
<svg width="318pt" height="84pt"
 viewBox="0.00 0.00 318.00 84.00" xmlns="http://www.w3.org/2000/svg" xmlns:xlink="http://www.w3.org/1999/xlink">
<g id="graph0" class="graph" transform="scale(1 1) rotate(0) translate(4 80)">
<title>G</title>
<polygon style="fill:white;stroke:white;" points="-4,4 -4,-80 314,-80 314,4 -4,4"/>
<!-- Node1 -->
<g id="node1" class="node"><title>Node1</title>
<polygon style="fill:#bfbfbf;stroke:black;" points="48,-56 48,-76 212,-76 212,-56 48,-56"/>
<text text-anchor="middle" x="130" y="-63" style="font-family:Arial;font-size:10.00;">ltr/scorers/fake_scorer_unittest.cc</text>
</g>
<!-- Node2 -->
<g id="node3" class="node"><title>Node2</title>
<polygon style="fill:white;stroke:#bfbfbf;" points="0,-0 0,-20 71,-20 71,-0 0,-0"/>
<text text-anchor="middle" x="35" y="-7" style="font-family:Arial;font-size:10.00;">gtest/gtest.h</text>
</g>
<!-- Node1&#45;&gt;Node2 -->
<g id="edge2" class="edge"><title>Node1&#45;&gt;Node2</title>
<path style="fill:none;stroke:midnightblue;" d="M113,-56C99,-48 78,-35 61,-25"/>
<polygon style="fill:midnightblue;stroke:midnightblue;" points="62.4414,-21.7969 52,-20 59.0418,-27.916 62.4414,-21.7969"/>
</g>
<!-- Node3 -->
<g id="node5" class="node"><title>Node3</title>
<polygon style="fill:white;stroke:#bfbfbf;" points="88,-0 88,-20 172,-20 172,-0 88,-0"/>
<text text-anchor="middle" x="130" y="-7" style="font-family:Arial;font-size:10.00;">ltr/data/object.h</text>
</g>
<!-- Node1&#45;&gt;Node3 -->
<g id="edge4" class="edge"><title>Node1&#45;&gt;Node3</title>
<path style="fill:none;stroke:midnightblue;" d="M130,-56C130,-49 130,-39 130,-30"/>
<polygon style="fill:midnightblue;stroke:midnightblue;" points="133.5,-30 130,-20 126.5,-30 133.5,-30"/>
</g>
<!-- Node4 -->
<g id="node7" class="node"><title>Node4</title>
<polygon style="fill:white;stroke:#bfbfbf;" points="190,-0 190,-20 310,-20 310,-0 190,-0"/>
<text text-anchor="middle" x="250" y="-7" style="font-family:Arial;font-size:10.00;">ltr/scorers/fake_scorer.h</text>
</g>
<!-- Node1&#45;&gt;Node4 -->
<g id="edge6" class="edge"><title>Node1&#45;&gt;Node4</title>
<path style="fill:none;stroke:midnightblue;" d="M151,-56C170,-47 197,-34 219,-24"/>
<polygon style="fill:midnightblue;stroke:midnightblue;" points="220.283,-27.2598 228,-20 217.44,-20.8631 220.283,-27.2598"/>
</g>
</g>
</svg>
