<?xml version="1.0" encoding="UTF-8" standalone="no"?>
<!DOCTYPE svg PUBLIC "-//W3C//DTD SVG 1.0//EN"
 "http://www.w3.org/TR/2001/REC-SVG-20010904/DTD/svg10.dtd" [
 <!ATTLIST svg xmlns:xlink CDATA #FIXED "http://www.w3.org/1999/xlink">
]>
<!-- Generated by Graphviz version 2.20.2 (Tue Mar &#160;2 19:03:41 UTC 2010)
     For user: (jenkins)  -->
<!-- Title: G Pages: 1 -->
<svg width="506pt" height="84pt"
 viewBox="0.00 0.00 506.00 84.00" xmlns="http://www.w3.org/2000/svg" xmlns:xlink="http://www.w3.org/1999/xlink">
<g id="graph0" class="graph" transform="scale(1 1) rotate(0) translate(4 80)">
<title>G</title>
<polygon style="fill:white;stroke:white;" points="-4,4 -4,-80 502,-80 502,4 -4,4"/>
<!-- Node1 -->
<g id="node1" class="node"><title>Node1</title>
<polygon style="fill:#bfbfbf;stroke:black;" points="57,-56 57,-76 284,-76 284,-56 57,-56"/>
<text text-anchor="middle" x="170" y="-63" style="font-family:Arial;font-size:10.00;">ltr/data_preprocessors/fake_data_preprocessor.h</text>
</g>
<!-- Node2 -->
<g id="node3" class="node"><title>Node2</title>
<polygon style="fill:white;stroke:#bfbfbf;" points="0,-0 0,-20 40,-20 40,-0 0,-0"/>
<text text-anchor="middle" x="20" y="-7" style="font-family:Arial;font-size:10.00;">string</text>
</g>
<!-- Node1&#45;&gt;Node2 -->
<g id="edge2" class="edge"><title>Node1&#45;&gt;Node2</title>
<path style="fill:none;stroke:midnightblue;" d="M143,-56C117,-46 77,-32 50,-22"/>
<polygon style="fill:midnightblue;stroke:midnightblue;" points="50.5847,-18.4643 40,-18 47.9849,-24.9636 50.5847,-18.4643"/>
</g>
<!-- Node3 -->
<g id="node5" class="node"><title>Node3</title>
<polygon style="fill:white;stroke:#bfbfbf;" points="58,-0 58,-20 165,-20 165,-0 58,-0"/>
<text text-anchor="middle" x="111" y="-7" style="font-family:Arial;font-size:10.00;">ltr/utility/shared_ptr.h</text>
</g>
<!-- Node1&#45;&gt;Node3 -->
<g id="edge4" class="edge"><title>Node1&#45;&gt;Node3</title>
<path style="fill:none;stroke:midnightblue;" d="M159,-56C150,-48 139,-37 129,-27"/>
<polygon style="fill:midnightblue;stroke:midnightblue;" points="131.546,-24.5962 122,-20 126.596,-29.546 131.546,-24.5962"/>
</g>
<!-- Node4 -->
<g id="node7" class="node"><title>Node4</title>
<polygon style="fill:white;stroke:#bfbfbf;" points="182,-0 182,-20 277,-20 277,-0 182,-0"/>
<text text-anchor="middle" x="229" y="-7" style="font-family:Arial;font-size:10.00;">ltr/data/data_set.h</text>
</g>
<!-- Node1&#45;&gt;Node4 -->
<g id="edge6" class="edge"><title>Node1&#45;&gt;Node4</title>
<path style="fill:none;stroke:midnightblue;" d="M181,-56C190,-48 201,-37 211,-27"/>
<polygon style="fill:midnightblue;stroke:midnightblue;" points="213.404,-29.546 218,-20 208.454,-24.5962 213.404,-29.546"/>
</g>
<!-- Node5 -->
<g id="node9" class="node"><title>Node5</title>
<polygon style="fill:white;stroke:#bfbfbf;" points="294,-0 294,-20 498,-20 498,-0 294,-0"/>
<text text-anchor="middle" x="396" y="-7" style="font-family:Arial;font-size:10.00;">ltr/data_preprocessors/data_preprocessor.h</text>
</g>
<!-- Node1&#45;&gt;Node5 -->
<g id="edge8" class="edge"><title>Node1&#45;&gt;Node5</title>
<path style="fill:none;stroke:midnightblue;" d="M210,-56C248,-47 305,-32 345,-22"/>
<polygon style="fill:midnightblue;stroke:midnightblue;" points="345.881,-25.3933 355,-20 344.508,-18.5292 345.881,-25.3933"/>
</g>
</g>
</svg>
