<?xml version="1.0" encoding="UTF-8" standalone="no"?>
<!DOCTYPE svg PUBLIC "-//W3C//DTD SVG 1.0//EN"
 "http://www.w3.org/TR/2001/REC-SVG-20010904/DTD/svg10.dtd" [
 <!ATTLIST svg xmlns:xlink CDATA #FIXED "http://www.w3.org/1999/xlink">
]>
<!-- Generated by Graphviz version 2.20.2 (Tue Mar &#160;2 19:03:41 UTC 2010)
     For user: (jenkins)  -->
<!-- Title: G Pages: 1 -->
<svg width="2117pt" height="476pt"
 viewBox="0.00 0.00 2117.00 476.00" xmlns="http://www.w3.org/2000/svg" xmlns:xlink="http://www.w3.org/1999/xlink">
<g id="graph0" class="graph" transform="scale(1 1) rotate(0) translate(4 472)">
<title>G</title>
<polygon style="fill:white;stroke:white;" points="-4,4 -4,-472 2113,-472 2113,4 -4,4"/>
<!-- Node1 -->
<g id="node1" class="node"><title>Node1</title>
<polygon style="fill:#bfbfbf;stroke:black;" points="1856,-448 1856,-468 1976,-468 1976,-448 1856,-448"/>
<text text-anchor="middle" x="1916" y="-455" style="font-family:Arial;font-size:10.00;">ltr/scorers/fake_scorer.h</text>
</g>
<!-- Node2 -->
<g id="node3" class="node"><title>Node2</title>
<polygon style="fill:white;stroke:#bfbfbf;" points="1786,-112 1786,-132 1900,-132 1900,-112 1786,-112"/>
<text text-anchor="middle" x="1843" y="-119" style="font-family:Arial;font-size:10.00;">boost/lexical_cast.hpp</text>
</g>
<!-- Node1&#45;&gt;Node2 -->
<g id="edge2" class="edge"><title>Node1&#45;&gt;Node2</title>
<path style="fill:none;stroke:midnightblue;" d="M1916,-448C1916,-428 1916,-383 1916,-346 1916,-346 1916,-346 1916,-290 1916,-231 1878,-170 1857,-140"/>
<polygon style="fill:midnightblue;stroke:midnightblue;" points="1859.8,-137.9 1851,-132 1854.2,-142.1 1859.8,-137.9"/>
</g>
<!-- Node3 -->
<g id="node5" class="node"><title>Node3</title>
<polygon style="fill:white;stroke:#bfbfbf;" points="840,-0 840,-20 880,-20 880,-0 840,-0"/>
<text text-anchor="middle" x="860" y="-7" style="font-family:Arial;font-size:10.00;">string</text>
</g>
<!-- Node1&#45;&gt;Node3 -->
<g id="edge4" class="edge"><title>Node1&#45;&gt;Node3</title>
<path style="fill:none;stroke:midnightblue;" d="M1924,-448C1938,-429 1966,-386 1966,-346 1966,-346 1966,-346 1966,-122 1966,-110 2253,-139 1713,-56 1549,-30 1023,-14 890,-11"/>
<polygon style="fill:midnightblue;stroke:midnightblue;" points="890,-7.5001 880,-11 890,-14.5001 890,-7.5001"/>
</g>
<!-- Node4 -->
<g id="node7" class="node"><title>Node4</title>
<a xlink:href="scorer_8h.html" target="_top" xlink:title="ltr/scorers/scorer.h">
<polygon style="fill:white;stroke:black;" points="944,-392 944,-412 1041,-412 1041,-392 944,-392"/>
<text text-anchor="middle" x="992" y="-399" style="font-family:Arial;font-size:10.00;">ltr/scorers/scorer.h</text>
</a>
</g>
<!-- Node1&#45;&gt;Node4 -->
<g id="edge6" class="edge"><title>Node1&#45;&gt;Node4</title>
<path style="fill:none;stroke:midnightblue;" d="M1856,-454C1689,-444 1218,-415 1051,-406"/>
<polygon style="fill:midnightblue;stroke:midnightblue;" points="1051.3,-402.512 1041,-405 1050.6,-409.478 1051.3,-402.512"/>
</g>
<!-- Node4&#45;&gt;Node2 -->
<g id="edge8" class="edge"><title>Node4&#45;&gt;Node2</title>
<path style="fill:none;stroke:midnightblue;" d="M1041,-401C1222,-395 1840,-371 1840,-290 1840,-290 1840,-290 1840,-234 1840,-201 1841,-165 1843,-142"/>
<polygon style="fill:midnightblue;stroke:midnightblue;" points="1846.5,-142 1843,-132 1839.5,-142 1846.5,-142"/>
</g>
<!-- Node4&#45;&gt;Node3 -->
<g id="edge12" class="edge"><title>Node4&#45;&gt;Node3</title>
<path style="fill:none;stroke:midnightblue;" d="M944,-402C765,-400 143,-392 63,-356 27,-339 0,-330 0,-290 0,-290 0,-290 0,-122 0,-29 108,-74 198,-56 261,-43 709,-19 830,-12"/>
<polygon style="fill:midnightblue;stroke:midnightblue;" points="830.398,-15.4778 840,-11 829.701,-8.5125 830.398,-15.4778"/>
</g>
<!-- Node5 -->
<g id="node10" class="node"><title>Node5</title>
<polygon style="fill:white;stroke:#bfbfbf;" points="398,-56 398,-76 440,-76 440,-56 398,-56"/>
<text text-anchor="middle" x="419" y="-63" style="font-family:Arial;font-size:10.00;">vector</text>
</g>
<!-- Node4&#45;&gt;Node5 -->
<g id="edge10" class="edge"><title>Node4&#45;&gt;Node5</title>
<path style="fill:none;stroke:midnightblue;" d="M944,-402C792,-400 325,-393 179,-356 112,-339 38,-359 38,-290 38,-290 38,-290 38,-178 38,-105 297,-76 388,-69"/>
<polygon style="fill:midnightblue;stroke:midnightblue;" points="388.398,-72.4778 398,-68 387.701,-65.5125 388.398,-72.4778"/>
</g>
<!-- Node6 -->
<g id="node13" class="node"><title>Node6</title>
<a xlink:href="aliaser_8h.html" target="_top" xlink:title="ltr/interfaces/aliaser.h">
<polygon style="fill:white;stroke:black;" points="180,-112 180,-132 288,-132 288,-112 180,-112"/>
<text text-anchor="middle" x="234" y="-119" style="font-family:Arial;font-size:10.00;">ltr/interfaces/aliaser.h</text>
</a>
</g>
<!-- Node4&#45;&gt;Node6 -->
<g id="edge14" class="edge"><title>Node4&#45;&gt;Node6</title>
<path style="fill:none;stroke:midnightblue;" d="M944,-401C802,-396 388,-375 281,-300 230,-265 230,-181 232,-142"/>
<polygon style="fill:midnightblue;stroke:midnightblue;" points="235.488,-142.299 233,-132 228.522,-141.602 235.488,-142.299"/>
</g>
<!-- Node7 -->
<g id="node16" class="node"><title>Node7</title>
<a xlink:href="object_8h.html" target="_top" xlink:title="ltr/data/object.h">
<polygon style="fill:white;stroke:black;" points="762,-112 762,-132 846,-132 846,-112 762,-112"/>
<text text-anchor="middle" x="804" y="-119" style="font-family:Arial;font-size:10.00;">ltr/data/object.h</text>
</a>
</g>
<!-- Node4&#45;&gt;Node7 -->
<g id="edge18" class="edge"><title>Node4&#45;&gt;Node7</title>
<path style="fill:none;stroke:midnightblue;" d="M1002,-392C1029,-364 1099,-281 1061,-224 1054,-214 911,-161 842,-136"/>
<polygon style="fill:midnightblue;stroke:midnightblue;" points="842.585,-132.464 832,-132 839.985,-138.964 842.585,-132.464"/>
</g>
<!-- Node11 -->
<g id="node26" class="node"><title>Node11</title>
<a xlink:href="printable_8h.html" target="_top" xlink:title="ltr/interfaces/printable.h">
<polygon style="fill:white;stroke:black;" points="496,-56 496,-76 613,-76 613,-56 496,-56"/>
<text text-anchor="middle" x="554" y="-63" style="font-family:Arial;font-size:10.00;">ltr/interfaces/printable.h</text>
</a>
</g>
<!-- Node4&#45;&gt;Node11 -->
<g id="edge182" class="edge"><title>Node4&#45;&gt;Node11</title>
<path style="fill:none;stroke:midnightblue;" d="M944,-401C756,-397 88,-377 88,-290 88,-290 88,-290 88,-234 88,-169 111,-146 165,-112 179,-103 378,-83 486,-73"/>
<polygon style="fill:midnightblue;stroke:midnightblue;" points="486.398,-76.4778 496,-72 485.701,-69.5125 486.398,-76.4778"/>
</g>
<!-- Node12 -->
<g id="node30" class="node"><title>Node12</title>
<a xlink:href="shared__ptr_8h.html" target="_top" xlink:title="ltr/utility/shared_ptr.h">
<polygon style="fill:white;stroke:black;" points="1572,-56 1572,-76 1679,-76 1679,-56 1572,-56"/>
<text text-anchor="middle" x="1625" y="-63" style="font-family:Arial;font-size:10.00;">ltr/utility/shared_ptr.h</text>
</a>
</g>
<!-- Node4&#45;&gt;Node12 -->
<g id="edge184" class="edge"><title>Node4&#45;&gt;Node12</title>
<path style="fill:none;stroke:midnightblue;" d="M1041,-401C1182,-398 1587,-386 1717,-356 1779,-341 1806,-347 1851,-300 1910,-236 1965,-178 1909,-112 1895,-95 1769,-80 1689,-72"/>
<polygon style="fill:midnightblue;stroke:midnightblue;" points="1689.3,-68.5125 1679,-71 1688.6,-75.4778 1689.3,-68.5125"/>
</g>
<!-- Node16 -->
<g id="node38" class="node"><title>Node16</title>
<a xlink:href="feature__converter_8h.html" target="_top" xlink:title="ltr/feature_converters/feature_converter.h">
<polygon style="fill:white;stroke:black;" points="656,-336 656,-356 846,-356 846,-336 656,-336"/>
<text text-anchor="middle" x="751" y="-343" style="font-family:Arial;font-size:10.00;">ltr/feature_converters/feature_converter.h</text>
</a>
</g>
<!-- Node4&#45;&gt;Node16 -->
<g id="edge44" class="edge"><title>Node4&#45;&gt;Node16</title>
<path style="fill:none;stroke:midnightblue;" d="M949,-392C908,-383 848,-368 804,-358"/>
<polygon style="fill:midnightblue;stroke:midnightblue;" points="804.492,-354.529 794,-356 803.119,-361.393 804.492,-354.529"/>
</g>
<!-- Node31 -->
<g id="node114" class="node"><title>Node31</title>
<a xlink:href="serializable__functor_8h.html" target="_top" xlink:title="ltr/interfaces/serializable_functor.h">
<polygon style="fill:white;stroke:black;" points="1522,-224 1522,-244 1685,-244 1685,-224 1522,-224"/>
<text text-anchor="middle" x="1603" y="-231" style="font-family:Arial;font-size:10.00;">ltr/interfaces/serializable_functor.h</text>
</a>
</g>
<!-- Node4&#45;&gt;Node31 -->
<g id="edge166" class="edge"><title>Node4&#45;&gt;Node31</title>
<path style="fill:none;stroke:midnightblue;" d="M1041,-395C1093,-387 1175,-374 1246,-356 1367,-324 1504,-273 1567,-248"/>
<polygon style="fill:midnightblue;stroke:midnightblue;" points="1569.02,-250.964 1577,-244 1566.42,-244.464 1569.02,-250.964"/>
</g>
<!-- Node6&#45;&gt;Node3 -->
<g id="edge16" class="edge"><title>Node6&#45;&gt;Node3</title>
<path style="fill:none;stroke:midnightblue;" d="M252,-112C281,-97 337,-69 389,-56 473,-34 739,-17 830,-12"/>
<polygon style="fill:midnightblue;stroke:midnightblue;" points="830.398,-15.4778 840,-11 829.701,-8.5125 830.398,-15.4778"/>
</g>
<!-- Node7&#45;&gt;Node3 -->
<g id="edge26" class="edge"><title>Node7&#45;&gt;Node3</title>
<path style="fill:none;stroke:midnightblue;" d="M809,-112C819,-93 838,-53 850,-29"/>
<polygon style="fill:midnightblue;stroke:midnightblue;" points="853.203,-30.4414 855,-20 847.084,-27.0418 853.203,-30.4414"/>
</g>
<!-- Node7&#45;&gt;Node5 -->
<g id="edge28" class="edge"><title>Node7&#45;&gt;Node5</title>
<path style="fill:none;stroke:midnightblue;" d="M762,-116C701,-107 585,-90 487,-76 475,-74 462,-72 450,-70"/>
<polygon style="fill:midnightblue;stroke:midnightblue;" points="450.299,-66.5125 440,-69 449.602,-73.4778 450.299,-66.5125"/>
</g>
<!-- Node8 -->
<g id="node18" class="node"><title>Node8</title>
<polygon style="fill:white;stroke:#bfbfbf;" points="846,-56 846,-76 881,-76 881,-56 846,-56"/>
<text text-anchor="middle" x="863" y="-63" style="font-family:Arial;font-size:10.00;">map</text>
</g>
<!-- Node7&#45;&gt;Node8 -->
<g id="edge20" class="edge"><title>Node7&#45;&gt;Node8</title>
<path style="fill:none;stroke:midnightblue;" d="M815,-112C824,-104 835,-93 845,-83"/>
<polygon style="fill:midnightblue;stroke:midnightblue;" points="847.404,-85.546 852,-76 842.454,-80.5962 847.404,-85.546"/>
</g>
<!-- Node9 -->
<g id="node20" class="node"><title>Node9</title>
<polygon style="fill:white;stroke:#bfbfbf;" points="610,-0 610,-20 661,-20 661,-0 610,-0"/>
<text text-anchor="middle" x="635" y="-7" style="font-family:Arial;font-size:10.00;">ostream</text>
</g>
<!-- Node7&#45;&gt;Node9 -->
<g id="edge22" class="edge"><title>Node7&#45;&gt;Node9</title>
<path style="fill:none;stroke:midnightblue;" d="M789,-112C760,-92 695,-50 660,-26"/>
<polygon style="fill:midnightblue;stroke:midnightblue;" points="661.262,-22.6349 651,-20 657.379,-28.4592 661.262,-22.6349"/>
</g>
<!-- Node10 -->
<g id="node22" class="node"><title>Node10</title>
<polygon style="fill:white;stroke:#bfbfbf;" points="630,-56 630,-76 689,-76 689,-56 630,-56"/>
<text text-anchor="middle" x="659" y="-63" style="font-family:Arial;font-size:10.00;">stdexcept</text>
</g>
<!-- Node7&#45;&gt;Node10 -->
<g id="edge24" class="edge"><title>Node7&#45;&gt;Node10</title>
<path style="fill:none;stroke:midnightblue;" d="M778,-112C755,-103 720,-90 694,-80"/>
<polygon style="fill:midnightblue;stroke:midnightblue;" points="695.56,-76.8631 685,-76 692.717,-83.2598 695.56,-76.8631"/>
</g>
<!-- Node7&#45;&gt;Node11 -->
<g id="edge30" class="edge"><title>Node7&#45;&gt;Node11</title>
<path style="fill:none;stroke:midnightblue;" d="M762,-113C720,-104 655,-89 609,-78"/>
<polygon style="fill:midnightblue;stroke:midnightblue;" points="609.492,-74.5292 599,-76 608.119,-81.3933 609.492,-74.5292"/>
</g>
<!-- Node7&#45;&gt;Node12 -->
<g id="edge36" class="edge"><title>Node7&#45;&gt;Node12</title>
<path style="fill:none;stroke:midnightblue;" d="M846,-119C981,-110 1401,-81 1562,-71"/>
<polygon style="fill:midnightblue;stroke:midnightblue;" points="1562.4,-74.4778 1572,-70 1561.7,-67.5125 1562.4,-74.4778"/>
</g>
<!-- Node11&#45;&gt;Node3 -->
<g id="edge34" class="edge"><title>Node11&#45;&gt;Node3</title>
<path style="fill:none;stroke:midnightblue;" d="M609,-56C674,-44 778,-25 830,-16"/>
<polygon style="fill:midnightblue;stroke:midnightblue;" points="830.881,-19.3933 840,-14 829.508,-12.5292 830.881,-19.3933"/>
</g>
<!-- Node11&#45;&gt;Node9 -->
<g id="edge32" class="edge"><title>Node11&#45;&gt;Node9</title>
<path style="fill:none;stroke:midnightblue;" d="M568,-56C580,-48 598,-36 612,-26"/>
<polygon style="fill:midnightblue;stroke:midnightblue;" points="614.1,-28.8 620,-20 609.9,-23.2 614.1,-28.8"/>
</g>
<!-- Node13 -->
<g id="node32" class="node"><title>Node13</title>
<polygon style="fill:white;stroke:#bfbfbf;" points="1597,-0 1597,-20 1653,-20 1653,-0 1597,-0"/>
<text text-anchor="middle" x="1625" y="-7" style="font-family:Arial;font-size:10.00;">algorithm</text>
</g>
<!-- Node12&#45;&gt;Node13 -->
<g id="edge38" class="edge"><title>Node12&#45;&gt;Node13</title>
<path style="fill:none;stroke:midnightblue;" d="M1625,-56C1625,-49 1625,-39 1625,-30"/>
<polygon style="fill:midnightblue;stroke:midnightblue;" points="1628.5,-30 1625,-20 1621.5,-30 1628.5,-30"/>
</g>
<!-- Node14 -->
<g id="node34" class="node"><title>Node14</title>
<polygon style="fill:white;stroke:#bfbfbf;" points="1671,-0 1671,-20 1778,-20 1778,-0 1671,-0"/>
<text text-anchor="middle" x="1724" y="-7" style="font-family:Arial;font-size:10.00;">boost/shared_ptr.hpp</text>
</g>
<!-- Node12&#45;&gt;Node14 -->
<g id="edge40" class="edge"><title>Node12&#45;&gt;Node14</title>
<path style="fill:none;stroke:midnightblue;" d="M1643,-56C1658,-48 1680,-35 1697,-25"/>
<polygon style="fill:midnightblue;stroke:midnightblue;" points="1698.96,-27.916 1706,-20 1695.56,-21.7969 1698.96,-27.916"/>
</g>
<!-- Node15 -->
<g id="node36" class="node"><title>Node15</title>
<polygon style="fill:white;stroke:#bfbfbf;" points="1389,-0 1389,-20 1580,-20 1580,-0 1389,-0"/>
<text text-anchor="middle" x="1484" y="-7" style="font-family:Arial;font-size:10.00;">boost/smart_ptr/detail/operator_bool.hpp</text>
</g>
<!-- Node12&#45;&gt;Node15 -->
<g id="edge42" class="edge"><title>Node12&#45;&gt;Node15</title>
<path style="fill:none;stroke:midnightblue;" d="M1600,-56C1577,-47 1544,-34 1519,-24"/>
<polygon style="fill:midnightblue;stroke:midnightblue;" points="1519.58,-20.4643 1509,-20 1516.98,-26.9636 1519.58,-20.4643"/>
</g>
<!-- Node16&#45;&gt;Node3 -->
<g id="edge48" class="edge"><title>Node16&#45;&gt;Node3</title>
<path style="fill:none;stroke:midnightblue;" d="M656,-341C521,-333 285,-318 250,-300 169,-257 113,-186 165,-112 208,-51 251,-71 323,-56 421,-34 731,-16 830,-11"/>
<polygon style="fill:midnightblue;stroke:midnightblue;" points="830,-14.5001 840,-11 830,-7.5001 830,-14.5001"/>
</g>
<!-- Node16&#45;&gt;Node5 -->
<g id="edge46" class="edge"><title>Node16&#45;&gt;Node5</title>
<path style="fill:none;stroke:midnightblue;" d="M656,-340C528,-330 316,-303 316,-234 316,-234 316,-234 316,-178 316,-134 360,-100 390,-81"/>
<polygon style="fill:midnightblue;stroke:midnightblue;" points="391.958,-83.916 399,-76 388.559,-77.7969 391.958,-83.916"/>
</g>
<!-- Node16&#45;&gt;Node6 -->
<g id="edge162" class="edge"><title>Node16&#45;&gt;Node6</title>
<path style="fill:none;stroke:midnightblue;" d="M656,-341C532,-335 329,-321 302,-300 252,-261 238,-180 235,-142"/>
<polygon style="fill:midnightblue;stroke:midnightblue;" points="238.478,-141.602 234,-132 231.512,-142.299 238.478,-141.602"/>
</g>
<!-- Node16&#45;&gt;Node7 -->
<g id="edge142" class="edge"><title>Node16&#45;&gt;Node7</title>
<path style="fill:none;stroke:midnightblue;" d="M747,-336C738,-315 722,-264 735,-224 745,-190 770,-158 787,-139"/>
<polygon style="fill:midnightblue;stroke:midnightblue;" points="789.404,-141.546 794,-132 784.454,-136.596 789.404,-141.546"/>
</g>
<!-- Node16&#45;&gt;Node10 -->
<g id="edge50" class="edge"><title>Node16&#45;&gt;Node10</title>
<path style="fill:none;stroke:midnightblue;" d="M656,-341C527,-334 312,-319 281,-300 205,-253 197,-217 171,-132 169,-123 165,-118 171,-112 204,-77 538,-83 620,-75"/>
<polygon style="fill:midnightblue;stroke:midnightblue;" points="620.398,-78.4778 630,-74 619.701,-71.5125 620.398,-78.4778"/>
</g>
<!-- Node16&#45;&gt;Node12 -->
<g id="edge164" class="edge"><title>Node16&#45;&gt;Node12</title>
<path style="fill:none;stroke:midnightblue;" d="M816,-336C1012,-306 1579,-216 1607,-188 1632,-161 1632,-113 1628,-86"/>
<polygon style="fill:midnightblue;stroke:midnightblue;" points="1631.48,-85.6021 1627,-76 1624.51,-86.2987 1631.48,-85.6021"/>
</g>
<!-- Node17 -->
<g id="node43" class="node"><title>Node17</title>
<a xlink:href="data__set_8h.html" target="_top" xlink:title="ltr/data/data_set.h">
<polygon style="fill:white;stroke:black;" points="578,-280 578,-300 673,-300 673,-280 578,-280"/>
<text text-anchor="middle" x="625" y="-287" style="font-family:Arial;font-size:10.00;">ltr/data/data_set.h</text>
</a>
</g>
<!-- Node16&#45;&gt;Node17 -->
<g id="edge52" class="edge"><title>Node16&#45;&gt;Node17</title>
<path style="fill:none;stroke:midnightblue;" d="M728,-336C708,-327 679,-314 657,-304"/>
<polygon style="fill:midnightblue;stroke:midnightblue;" points="658.56,-300.863 648,-300 655.717,-307.26 658.56,-300.863"/>
</g>
<!-- Node21 -->
<g id="node67" class="node"><title>Node21</title>
<a xlink:href="feature__info_8h.html" target="_top" xlink:title="ltr/data/feature_info.h">
<polygon style="fill:white;stroke:black;" points="946,-224 946,-244 1053,-244 1053,-224 946,-224"/>
<text text-anchor="middle" x="999" y="-231" style="font-family:Arial;font-size:10.00;">ltr/data/feature_info.h</text>
</a>
</g>
<!-- Node16&#45;&gt;Node21 -->
<g id="edge140" class="edge"><title>Node16&#45;&gt;Node21</title>
<path style="fill:none;stroke:midnightblue;" d="M773,-336C817,-315 916,-271 967,-248"/>
<polygon style="fill:midnightblue;stroke:midnightblue;" points="968.283,-251.26 976,-244 965.44,-244.863 968.283,-251.26"/>
</g>
<!-- Node22 -->
<g id="node72" class="node"><title>Node22</title>
<a xlink:href="parameterized_8h.html" target="_top" xlink:title="ltr/interfaces/parameterized.h">
<polygon style="fill:white;stroke:black;" points="996,-168 996,-188 1138,-188 1138,-168 996,-168"/>
<text text-anchor="middle" x="1067" y="-175" style="font-family:Arial;font-size:10.00;">ltr/interfaces/parameterized.h</text>
</a>
</g>
<!-- Node16&#45;&gt;Node22 -->
<g id="edge146" class="edge"><title>Node16&#45;&gt;Node22</title>
<path style="fill:none;stroke:midnightblue;" d="M803,-336C882,-319 1028,-284 1061,-244 1071,-231 1072,-212 1071,-198"/>
<polygon style="fill:midnightblue;stroke:midnightblue;" points="1074.39,-197.119 1069,-188 1067.53,-198.492 1074.39,-197.119"/>
</g>
<!-- Node28 -->
<g id="node91" class="node"><title>Node28</title>
<a xlink:href="per__object__accessor_8h.html" target="_top" xlink:title="ltr/data/per_object_accessor.h">
<polygon style="fill:white;stroke:black;" points="744,-224 744,-244 891,-244 891,-224 744,-224"/>
<text text-anchor="middle" x="817" y="-231" style="font-family:Arial;font-size:10.00;">ltr/data/per_object_accessor.h</text>
</a>
</g>
<!-- Node16&#45;&gt;Node28 -->
<g id="edge144" class="edge"><title>Node16&#45;&gt;Node28</title>
<path style="fill:none;stroke:midnightblue;" d="M757,-336C768,-317 791,-277 806,-253"/>
<polygon style="fill:midnightblue;stroke:midnightblue;" points="809.203,-254.441 811,-244 803.084,-251.042 809.203,-254.441"/>
</g>
<!-- Node29 -->
<g id="node103" class="node"><title>Node29</title>
<a xlink:href="serializable_8h.html" target="_top" xlink:title="ltr/interfaces/serializable.h">
<polygon style="fill:white;stroke:black;" points="1470,-168 1470,-188 1599,-188 1599,-168 1470,-168"/>
<text text-anchor="middle" x="1534" y="-175" style="font-family:Arial;font-size:10.00;">ltr/interfaces/serializable.h</text>
</a>
</g>
<!-- Node16&#45;&gt;Node29 -->
<g id="edge148" class="edge"><title>Node16&#45;&gt;Node29</title>
<path style="fill:none;stroke:midnightblue;" d="M804,-336C850,-327 921,-313 982,-300 1121,-269 1154,-254 1294,-224 1352,-211 1418,-199 1466,-190"/>
<polygon style="fill:midnightblue;stroke:midnightblue;" points="1466.88,-193.393 1476,-188 1465.51,-186.529 1466.88,-193.393"/>
</g>
<!-- Node17&#45;&gt;Node3 -->
<g id="edge58" class="edge"><title>Node17&#45;&gt;Node3</title>
<path style="fill:none;stroke:midnightblue;" d="M673,-285C748,-277 885,-261 899,-244 908,-233 959,-275 889,-56 885,-46 880,-36 875,-28"/>
<polygon style="fill:midnightblue;stroke:midnightblue;" points="877.8,-25.9 869,-20 872.2,-30.1 877.8,-25.9"/>
</g>
<!-- Node17&#45;&gt;Node5 -->
<g id="edge60" class="edge"><title>Node17&#45;&gt;Node5</title>
<path style="fill:none;stroke:midnightblue;" d="M578,-285C524,-278 442,-265 420,-244 376,-203 398,-123 411,-86"/>
<polygon style="fill:midnightblue;stroke:midnightblue;" points="414.536,-86.5847 415,-76 408.036,-83.9849 414.536,-86.5847"/>
</g>
<!-- Node17&#45;&gt;Node6 -->
<g id="edge138" class="edge"><title>Node17&#45;&gt;Node6</title>
<path style="fill:none;stroke:midnightblue;" d="M578,-286C508,-280 380,-266 340,-244 296,-219 261,-168 245,-141"/>
<polygon style="fill:midnightblue;stroke:midnightblue;" points="247.916,-139.042 240,-132 241.797,-142.441 247.916,-139.042"/>
</g>
<!-- Node17&#45;&gt;Node7 -->
<g id="edge62" class="edge"><title>Node17&#45;&gt;Node7</title>
<path style="fill:none;stroke:midnightblue;" d="M633,-280C640,-271 651,-257 659,-244 680,-211 673,-194 702,-168 717,-154 738,-143 757,-135"/>
<polygon style="fill:midnightblue;stroke:midnightblue;" points="758.427,-138.226 767,-132 756.416,-131.521 758.427,-138.226"/>
</g>
<!-- Node17&#45;&gt;Node10 -->
<g id="edge56" class="edge"><title>Node17&#45;&gt;Node10</title>
<path style="fill:none;stroke:midnightblue;" d="M578,-282C504,-268 374,-233 417,-168 441,-132 558,-94 620,-77"/>
<polygon style="fill:midnightblue;stroke:midnightblue;" points="621.427,-80.2259 630,-74 619.416,-73.5212 621.427,-80.2259"/>
</g>
<!-- Node18 -->
<g id="node45" class="node"><title>Node18</title>
<polygon style="fill:white;stroke:#bfbfbf;" points="600,-224 600,-244 651,-244 651,-224 600,-224"/>
<text text-anchor="middle" x="625" y="-231" style="font-family:Arial;font-size:10.00;">sstream</text>
</g>
<!-- Node17&#45;&gt;Node18 -->
<g id="edge54" class="edge"><title>Node17&#45;&gt;Node18</title>
<path style="fill:none;stroke:midnightblue;" d="M625,-280C625,-273 625,-263 625,-254"/>
<polygon style="fill:midnightblue;stroke:midnightblue;" points="628.5,-254 625,-244 621.5,-254 628.5,-254"/>
</g>
<!-- Node19 -->
<g id="node51" class="node"><title>Node19</title>
<a xlink:href="object__list_8h.html" target="_top" xlink:title="ltr/data/object_list.h">
<polygon style="fill:white;stroke:black;" points="548,-168 548,-188 650,-188 650,-168 548,-168"/>
<text text-anchor="middle" x="599" y="-175" style="font-family:Arial;font-size:10.00;">ltr/data/object_list.h</text>
</a>
</g>
<!-- Node17&#45;&gt;Node19 -->
<g id="edge64" class="edge"><title>Node17&#45;&gt;Node19</title>
<path style="fill:none;stroke:midnightblue;" d="M614,-280C606,-271 595,-258 591,-244 585,-229 588,-211 592,-198"/>
<polygon style="fill:midnightblue;stroke:midnightblue;" points="595.479,-198.584 595,-188 588.774,-196.573 595.479,-198.584"/>
</g>
<!-- Node20 -->
<g id="node59" class="node"><title>Node20</title>
<a xlink:href="object__pair_8h.html" target="_top" xlink:title="ltr/data/object_pair.h">
<polygon style="fill:white;stroke:black;" points="426,-168 426,-188 530,-188 530,-168 426,-168"/>
<text text-anchor="middle" x="478" y="-175" style="font-family:Arial;font-size:10.00;">ltr/data/object_pair.h</text>
</a>
</g>
<!-- Node17&#45;&gt;Node20 -->
<g id="edge78" class="edge"><title>Node17&#45;&gt;Node20</title>
<path style="fill:none;stroke:midnightblue;" d="M612,-280C586,-260 531,-218 500,-194"/>
<polygon style="fill:midnightblue;stroke:midnightblue;" points="502.1,-191.2 492,-188 497.9,-196.8 502.1,-191.2"/>
</g>
<!-- Node17&#45;&gt;Node21 -->
<g id="edge92" class="edge"><title>Node17&#45;&gt;Node21</title>
<path style="fill:none;stroke:midnightblue;" d="M673,-283C740,-273 861,-255 936,-244"/>
<polygon style="fill:midnightblue;stroke:midnightblue;" points="936.881,-247.393 946,-242 935.508,-240.529 936.881,-247.393"/>
</g>
<!-- Node17&#45;&gt;Node28 -->
<g id="edge126" class="edge"><title>Node17&#45;&gt;Node28</title>
<path style="fill:none;stroke:midnightblue;" d="M659,-280C691,-271 738,-257 773,-247"/>
<polygon style="fill:midnightblue;stroke:midnightblue;" points="774.427,-250.226 783,-244 772.416,-243.521 774.427,-250.226"/>
</g>
<!-- Node19&#45;&gt;Node3 -->
<g id="edge68" class="edge"><title>Node19&#45;&gt;Node3</title>
<path style="fill:none;stroke:midnightblue;" d="M615,-168C658,-140 783,-60 835,-26"/>
<polygon style="fill:midnightblue;stroke:midnightblue;" points="837.621,-28.4592 844,-20 833.738,-22.6349 837.621,-28.4592"/>
</g>
<!-- Node19&#45;&gt;Node5 -->
<g id="edge70" class="edge"><title>Node19&#45;&gt;Node5</title>
<path style="fill:none;stroke:midnightblue;" d="M583,-168C551,-148 482,-104 444,-81"/>
<polygon style="fill:midnightblue;stroke:midnightblue;" points="445.441,-77.7969 435,-76 442.042,-83.916 445.441,-77.7969"/>
</g>
<!-- Node19&#45;&gt;Node7 -->
<g id="edge72" class="edge"><title>Node19&#45;&gt;Node7</title>
<path style="fill:none;stroke:midnightblue;" d="M636,-168C670,-159 720,-145 757,-135"/>
<polygon style="fill:midnightblue;stroke:midnightblue;" points="758.427,-138.226 767,-132 756.416,-131.521 758.427,-138.226"/>
</g>
<!-- Node19&#45;&gt;Node10 -->
<g id="edge66" class="edge"><title>Node19&#45;&gt;Node10</title>
<path style="fill:none;stroke:midnightblue;" d="M605,-168C615,-149 636,-109 648,-85"/>
<polygon style="fill:midnightblue;stroke:midnightblue;" points="651.203,-86.4414 653,-76 645.084,-83.0418 651.203,-86.4414"/>
</g>
<!-- Node19&#45;&gt;Node11 -->
<g id="edge74" class="edge"><title>Node19&#45;&gt;Node11</title>
<path style="fill:none;stroke:midnightblue;" d="M595,-168C588,-149 572,-110 562,-85"/>
<polygon style="fill:midnightblue;stroke:midnightblue;" points="565.26,-83.7166 558,-76 558.863,-86.5596 565.26,-83.7166"/>
</g>
<!-- Node19&#45;&gt;Node12 -->
<g id="edge76" class="edge"><title>Node19&#45;&gt;Node12</title>
<path style="fill:none;stroke:midnightblue;" d="M650,-177C764,-175 1048,-166 1282,-132 1320,-126 1329,-119 1368,-112 1434,-98 1509,-85 1562,-77"/>
<polygon style="fill:midnightblue;stroke:midnightblue;" points="1562.88,-80.3933 1572,-75 1561.51,-73.5292 1562.88,-80.3933"/>
</g>
<!-- Node20&#45;&gt;Node3 -->
<g id="edge82" class="edge"><title>Node20&#45;&gt;Node3</title>
<path style="fill:none;stroke:midnightblue;" d="M475,-168C469,-144 457,-87 487,-56 510,-31 745,-16 830,-12"/>
<polygon style="fill:midnightblue;stroke:midnightblue;" points="830.398,-15.4778 840,-11 829.701,-8.5125 830.398,-15.4778"/>
</g>
<!-- Node20&#45;&gt;Node5 -->
<g id="edge84" class="edge"><title>Node20&#45;&gt;Node5</title>
<path style="fill:none;stroke:midnightblue;" d="M473,-168C462,-149 442,-109 429,-85"/>
<polygon style="fill:midnightblue;stroke:midnightblue;" points="431.916,-83.0418 424,-76 425.797,-86.4414 431.916,-83.0418"/>
</g>
<!-- Node20&#45;&gt;Node7 -->
<g id="edge86" class="edge"><title>Node20&#45;&gt;Node7</title>
<path style="fill:none;stroke:midnightblue;" d="M530,-169C591,-159 691,-141 752,-131"/>
<polygon style="fill:midnightblue;stroke:midnightblue;" points="752.881,-134.393 762,-129 751.508,-127.529 752.881,-134.393"/>
</g>
<!-- Node20&#45;&gt;Node10 -->
<g id="edge80" class="edge"><title>Node20&#45;&gt;Node10</title>
<path style="fill:none;stroke:midnightblue;" d="M494,-168C526,-148 596,-104 634,-81"/>
<polygon style="fill:midnightblue;stroke:midnightblue;" points="635.958,-83.916 643,-76 632.559,-77.7969 635.958,-83.916"/>
</g>
<!-- Node20&#45;&gt;Node11 -->
<g id="edge88" class="edge"><title>Node20&#45;&gt;Node11</title>
<path style="fill:none;stroke:midnightblue;" d="M485,-168C498,-148 526,-109 542,-84"/>
<polygon style="fill:midnightblue;stroke:midnightblue;" points="544.668,-86.335 547,-76 538.732,-82.625 544.668,-86.335"/>
</g>
<!-- Node20&#45;&gt;Node12 -->
<g id="edge90" class="edge"><title>Node20&#45;&gt;Node12</title>
<path style="fill:none;stroke:midnightblue;" d="M530,-169C533,-168 536,-168 539,-168 696,-151 1097,-178 1249,-132 1265,-126 1265,-117 1282,-112 1332,-94 1477,-79 1562,-71"/>
<polygon style="fill:midnightblue;stroke:midnightblue;" points="1562.4,-74.4778 1572,-70 1561.7,-67.5125 1562.4,-74.4778"/>
</g>
<!-- Node21&#45;&gt;Node3 -->
<g id="edge96" class="edge"><title>Node21&#45;&gt;Node3</title>
<path style="fill:none;stroke:midnightblue;" d="M996,-224C984,-190 948,-84 926,-56 916,-43 901,-33 889,-25"/>
<polygon style="fill:midnightblue;stroke:midnightblue;" points="890.441,-21.7969 880,-20 887.042,-27.916 890.441,-21.7969"/>
</g>
<!-- Node21&#45;&gt;Node5 -->
<g id="edge98" class="edge"><title>Node21&#45;&gt;Node5</title>
<path style="fill:none;stroke:midnightblue;" d="M964,-224C861,-194 549,-103 450,-75"/>
<polygon style="fill:midnightblue;stroke:midnightblue;" points="450.584,-71.5212 440,-72 448.573,-78.2259 450.584,-71.5212"/>
</g>
<!-- Node21&#45;&gt;Node8 -->
<g id="edge94" class="edge"><title>Node21&#45;&gt;Node8</title>
<path style="fill:none;stroke:midnightblue;" d="M984,-224C971,-215 954,-202 942,-188 912,-155 886,-110 873,-85"/>
<polygon style="fill:midnightblue;stroke:midnightblue;" points="875.916,-83.0418 868,-76 869.797,-86.4414 875.916,-83.0418"/>
</g>
<!-- Node21&#45;&gt;Node12 -->
<g id="edge124" class="edge"><title>Node21&#45;&gt;Node12</title>
<path style="fill:none;stroke:midnightblue;" d="M1053,-230C1155,-223 1367,-206 1396,-188 1428,-166 1408,-135 1439,-112 1458,-97 1515,-84 1562,-76"/>
<polygon style="fill:midnightblue;stroke:midnightblue;" points="1562.88,-79.3933 1572,-74 1561.51,-72.5292 1562.88,-79.3933"/>
</g>
<!-- Node21&#45;&gt;Node22 -->
<g id="edge100" class="edge"><title>Node21&#45;&gt;Node22</title>
<path style="fill:none;stroke:midnightblue;" d="M1011,-224C1022,-216 1035,-204 1047,-195"/>
<polygon style="fill:midnightblue;stroke:midnightblue;" points="1049.78,-197.219 1055,-188 1045.17,-191.951 1049.78,-197.219"/>
</g>
<!-- Node22&#45;&gt;Node3 -->
<g id="edge104" class="edge"><title>Node22&#45;&gt;Node3</title>
<path style="fill:none;stroke:midnightblue;" d="M1118,-168C1217,-147 1424,-98 1385,-56 1351,-18 998,-11 890,-10"/>
<polygon style="fill:midnightblue;stroke:midnightblue;" points="890,-6.5001 880,-10 890,-13.5001 890,-6.5001"/>
</g>
<!-- Node22&#45;&gt;Node10 -->
<g id="edge102" class="edge"><title>Node22&#45;&gt;Node10</title>
<path style="fill:none;stroke:midnightblue;" d="M1038,-168C997,-154 921,-129 855,-112 801,-97 739,-83 699,-74"/>
<polygon style="fill:midnightblue;stroke:midnightblue;" points="699.492,-70.5292 689,-72 698.119,-77.3933 699.492,-70.5292"/>
</g>
<!-- Node23 -->
<g id="node76" class="node"><title>Node23</title>
<a xlink:href="parameters__container_8h.html" target="_top" xlink:title="ltr/parameters_container/parameters_container.h">
<polygon style="fill:white;stroke:black;" points="1016,-112 1016,-132 1241,-132 1241,-112 1016,-112"/>
<text text-anchor="middle" x="1128" y="-119" style="font-family:Arial;font-size:10.00;">ltr/parameters_container/parameters_container.h</text>
</a>
</g>
<!-- Node22&#45;&gt;Node23 -->
<g id="edge106" class="edge"><title>Node22&#45;&gt;Node23</title>
<path style="fill:none;stroke:midnightblue;" d="M1078,-168C1087,-160 1099,-149 1110,-139"/>
<polygon style="fill:midnightblue;stroke:midnightblue;" points="1112.4,-141.546 1117,-132 1107.45,-136.596 1112.4,-141.546"/>
</g>
<!-- Node23&#45;&gt;Node3 -->
<g id="edge114" class="edge"><title>Node23&#45;&gt;Node3</title>
<path style="fill:none;stroke:midnightblue;" d="M1100,-112C1075,-103 1038,-89 1007,-76 987,-67 983,-64 964,-56 938,-45 910,-32 889,-23"/>
<polygon style="fill:midnightblue;stroke:midnightblue;" points="890.56,-19.8631 880,-19 887.717,-26.2598 890.56,-19.8631"/>
</g>
<!-- Node23&#45;&gt;Node10 -->
<g id="edge112" class="edge"><title>Node23&#45;&gt;Node10</title>
<path style="fill:none;stroke:midnightblue;" d="M1044,-112C943,-100 776,-80 699,-71"/>
<polygon style="fill:midnightblue;stroke:midnightblue;" points="699.299,-67.5125 689,-70 698.602,-74.4778 699.299,-67.5125"/>
</g>
<!-- Node23&#45;&gt;Node11 -->
<g id="edge122" class="edge"><title>Node23&#45;&gt;Node11</title>
<path style="fill:none;stroke:midnightblue;" d="M1016,-113C915,-105 763,-93 623,-76"/>
<polygon style="fill:midnightblue;stroke:midnightblue;" points="623.299,-72.5125 613,-75 622.602,-79.4778 623.299,-72.5125"/>
</g>
<!-- Node23&#45;&gt;Node12 -->
<g id="edge120" class="edge"><title>Node23&#45;&gt;Node12</title>
<path style="fill:none;stroke:midnightblue;" d="M1217,-112C1316,-100 1474,-83 1562,-73"/>
<polygon style="fill:midnightblue;stroke:midnightblue;" points="1562.4,-76.4778 1572,-72 1561.7,-69.5125 1562.4,-76.4778"/>
</g>
<!-- Node24 -->
<g id="node78" class="node"><title>Node24</title>
<polygon style="fill:white;stroke:#bfbfbf;" points="1302,-56 1302,-76 1376,-76 1376,-56 1302,-56"/>
<text text-anchor="middle" x="1339" y="-63" style="font-family:Arial;font-size:10.00;">logog/logog.h</text>
</g>
<!-- Node23&#45;&gt;Node24 -->
<g id="edge108" class="edge"><title>Node23&#45;&gt;Node24</title>
<path style="fill:none;stroke:midnightblue;" d="M1166,-112C1201,-103 1254,-89 1292,-79"/>
<polygon style="fill:midnightblue;stroke:midnightblue;" points="1293.43,-82.2259 1302,-76 1291.42,-75.5212 1293.43,-82.2259"/>
</g>
<!-- Node25 -->
<g id="node80" class="node"><title>Node25</title>
<polygon style="fill:white;stroke:#bfbfbf;" points="1016,-56 1016,-76 1045,-76 1045,-56 1016,-56"/>
<text text-anchor="middle" x="1030" y="-63" style="font-family:Arial;font-size:10.00;">list</text>
</g>
<!-- Node23&#45;&gt;Node25 -->
<g id="edge110" class="edge"><title>Node23&#45;&gt;Node25</title>
<path style="fill:none;stroke:midnightblue;" d="M1110,-112C1095,-103 1072,-90 1054,-80"/>
<polygon style="fill:midnightblue;stroke:midnightblue;" points="1055.44,-76.7969 1045,-75 1052.04,-82.916 1055.44,-76.7969"/>
</g>
<!-- Node26 -->
<g id="node84" class="node"><title>Node26</title>
<polygon style="fill:white;stroke:#bfbfbf;" points="1062,-56 1062,-76 1139,-76 1139,-56 1062,-56"/>
<text text-anchor="middle" x="1100" y="-63" style="font-family:Arial;font-size:10.00;">boost/any.hpp</text>
</g>
<!-- Node23&#45;&gt;Node26 -->
<g id="edge116" class="edge"><title>Node23&#45;&gt;Node26</title>
<path style="fill:none;stroke:midnightblue;" d="M1123,-112C1119,-105 1114,-94 1109,-85"/>
<polygon style="fill:midnightblue;stroke:midnightblue;" points="1112.26,-83.7166 1105,-76 1105.86,-86.5596 1112.26,-83.7166"/>
</g>
<!-- Node27 -->
<g id="node86" class="node"><title>Node27</title>
<polygon style="fill:white;stroke:#bfbfbf;" points="1156,-56 1156,-76 1285,-76 1285,-56 1156,-56"/>
<text text-anchor="middle" x="1220" y="-63" style="font-family:Arial;font-size:10.00;">boost/unordered_map.hpp</text>
</g>
<!-- Node23&#45;&gt;Node27 -->
<g id="edge118" class="edge"><title>Node23&#45;&gt;Node27</title>
<path style="fill:none;stroke:midnightblue;" d="M1144,-112C1158,-104 1179,-91 1194,-81"/>
<polygon style="fill:midnightblue;stroke:midnightblue;" points="1195.96,-83.916 1203,-76 1192.56,-77.7969 1195.96,-83.916"/>
</g>
<!-- Node28&#45;&gt;Node7 -->
<g id="edge128" class="edge"><title>Node28&#45;&gt;Node7</title>
<path style="fill:none;stroke:midnightblue;" d="M816,-224C814,-205 810,-166 806,-142"/>
<polygon style="fill:midnightblue;stroke:midnightblue;" points="809.478,-141.602 805,-132 802.512,-142.299 809.478,-141.602"/>
</g>
<!-- Node28&#45;&gt;Node12 -->
<g id="edge136" class="edge"><title>Node28&#45;&gt;Node12</title>
<path style="fill:none;stroke:midnightblue;" d="M891,-226C958,-219 1060,-206 1147,-188 1269,-162 1296,-142 1417,-112 1466,-99 1523,-87 1564,-78"/>
<polygon style="fill:midnightblue;stroke:midnightblue;" points="1564.88,-81.3933 1574,-76 1563.51,-74.5292 1564.88,-81.3933"/>
</g>
<!-- Node28&#45;&gt;Node19 -->
<g id="edge132" class="edge"><title>Node28&#45;&gt;Node19</title>
<path style="fill:none;stroke:midnightblue;" d="M778,-224C741,-215 687,-201 648,-191"/>
<polygon style="fill:midnightblue;stroke:midnightblue;" points="648.584,-187.521 638,-188 646.573,-194.226 648.584,-187.521"/>
</g>
<!-- Node28&#45;&gt;Node20 -->
<g id="edge130" class="edge"><title>Node28&#45;&gt;Node20</title>
<path style="fill:none;stroke:midnightblue;" d="M756,-224C695,-214 602,-199 540,-189"/>
<polygon style="fill:midnightblue;stroke:midnightblue;" points="540.492,-185.529 530,-187 539.119,-192.393 540.492,-185.529"/>
</g>
<!-- Node28&#45;&gt;Node22 -->
<g id="edge134" class="edge"><title>Node28&#45;&gt;Node22</title>
<path style="fill:none;stroke:midnightblue;" d="M862,-224C904,-215 967,-200 1012,-190"/>
<polygon style="fill:midnightblue;stroke:midnightblue;" points="1012.88,-193.393 1022,-188 1011.51,-186.529 1012.88,-193.393"/>
</g>
<!-- Node29&#45;&gt;Node2 -->
<g id="edge150" class="edge"><title>Node29&#45;&gt;Node2</title>
<path style="fill:none;stroke:midnightblue;" d="M1589,-168C1642,-159 1722,-144 1778,-134"/>
<polygon style="fill:midnightblue;stroke:midnightblue;" points="1778.88,-137.393 1788,-132 1777.51,-130.529 1778.88,-137.393"/>
</g>
<!-- Node29&#45;&gt;Node3 -->
<g id="edge154" class="edge"><title>Node29&#45;&gt;Node3</title>
<path style="fill:none;stroke:midnightblue;" d="M1536,-168C1539,-154 1542,-129 1531,-112 1494,-59 1461,-71 1400,-56 1302,-31 989,-15 890,-11"/>
<polygon style="fill:midnightblue;stroke:midnightblue;" points="890,-7.5001 880,-11 890,-14.5001 890,-7.5001"/>
</g>
<!-- Node29&#45;&gt;Node6 -->
<g id="edge160" class="edge"><title>Node29&#45;&gt;Node6</title>
<path style="fill:none;stroke:midnightblue;" d="M1470,-175C1249,-166 519,-134 298,-124"/>
<polygon style="fill:midnightblue;stroke:midnightblue;" points="298,-120.5 288,-124 298,-127.5 298,-120.5"/>
</g>
<!-- Node29&#45;&gt;Node12 -->
<g id="edge158" class="edge"><title>Node29&#45;&gt;Node12</title>
<path style="fill:none;stroke:midnightblue;" d="M1546,-168C1556,-159 1571,-145 1582,-132 1594,-117 1606,-99 1614,-85"/>
<polygon style="fill:midnightblue;stroke:midnightblue;" points="1617.2,-86.4414 1619,-76 1611.08,-83.0418 1617.2,-86.4414"/>
</g>
<!-- Node29&#45;&gt;Node24 -->
<g id="edge152" class="edge"><title>Node29&#45;&gt;Node24</title>
<path style="fill:none;stroke:midnightblue;" d="M1533,-168C1532,-153 1526,-127 1511,-112 1493,-95 1431,-81 1386,-74"/>
<polygon style="fill:midnightblue;stroke:midnightblue;" points="1386.49,-70.5292 1376,-72 1385.12,-77.3933 1386.49,-70.5292"/>
</g>
<!-- Node30 -->
<g id="node108" class="node"><title>Node30</title>
<polygon style="fill:white;stroke:#bfbfbf;" points="1448,-112 1448,-132 1502,-132 1502,-112 1448,-112"/>
<text text-anchor="middle" x="1475" y="-119" style="font-family:Arial;font-size:10.00;">iostream</text>
</g>
<!-- Node29&#45;&gt;Node30 -->
<g id="edge156" class="edge"><title>Node29&#45;&gt;Node30</title>
<path style="fill:none;stroke:midnightblue;" d="M1523,-168C1514,-160 1503,-149 1493,-139"/>
<polygon style="fill:midnightblue;stroke:midnightblue;" points="1495.55,-136.596 1486,-132 1490.6,-141.546 1495.55,-136.596"/>
</g>
<!-- Node31&#45;&gt;Node12 -->
<g id="edge168" class="edge"><title>Node31&#45;&gt;Node12</title>
<path style="fill:none;stroke:midnightblue;" d="M1615,-224C1624,-215 1636,-202 1644,-188 1655,-165 1654,-157 1658,-132 1659,-123 1660,-120 1658,-112 1654,-102 1648,-92 1641,-84"/>
<polygon style="fill:midnightblue;stroke:midnightblue;" points="1643.8,-81.9 1635,-76 1638.2,-86.1 1643.8,-81.9"/>
</g>
<!-- Node31&#45;&gt;Node29 -->
<g id="edge180" class="edge"><title>Node31&#45;&gt;Node29</title>
<path style="fill:none;stroke:midnightblue;" d="M1591,-224C1581,-216 1567,-205 1555,-195"/>
<polygon style="fill:midnightblue;stroke:midnightblue;" points="1556.83,-191.951 1547,-188 1552.22,-197.219 1556.83,-191.951"/>
</g>
<!-- Node32 -->
<g id="node117" class="node"><title>Node32</title>
<a xlink:href="functor_8h.html" target="_top" xlink:title="ltr/interfaces/functor.h">
<polygon style="fill:white;stroke:black;" points="1704,-168 1704,-188 1813,-188 1813,-168 1704,-168"/>
<text text-anchor="middle" x="1758" y="-175" style="font-family:Arial;font-size:10.00;">ltr/interfaces/functor.h</text>
</a>
</g>
<!-- Node31&#45;&gt;Node32 -->
<g id="edge170" class="edge"><title>Node31&#45;&gt;Node32</title>
<path style="fill:none;stroke:midnightblue;" d="M1631,-224C1656,-215 1693,-201 1720,-191"/>
<polygon style="fill:midnightblue;stroke:midnightblue;" points="1721.43,-194.226 1730,-188 1719.42,-187.521 1721.43,-194.226"/>
</g>
<!-- Node32&#45;&gt;Node2 -->
<g id="edge174" class="edge"><title>Node32&#45;&gt;Node2</title>
<path style="fill:none;stroke:midnightblue;" d="M1773,-168C1786,-160 1804,-147 1819,-138"/>
<polygon style="fill:midnightblue;stroke:midnightblue;" points="1821.62,-140.459 1828,-132 1817.74,-134.635 1821.62,-140.459"/>
</g>
<!-- Node32&#45;&gt;Node3 -->
<g id="edge176" class="edge"><title>Node32&#45;&gt;Node3</title>
<path style="fill:none;stroke:midnightblue;" d="M1756,-168C1749,-143 1729,-81 1687,-56 1652,-35 1035,-15 890,-11"/>
<polygon style="fill:midnightblue;stroke:midnightblue;" points="890,-7.5001 880,-11 890,-14.5001 890,-7.5001"/>
</g>
<!-- Node32&#45;&gt;Node7 -->
<g id="edge178" class="edge"><title>Node32&#45;&gt;Node7</title>
<path style="fill:none;stroke:midnightblue;" d="M1704,-174C1675,-172 1639,-170 1607,-168 1324,-150 985,-131 856,-125"/>
<polygon style="fill:midnightblue;stroke:midnightblue;" points="856.299,-121.512 846,-124 855.602,-128.478 856.299,-121.512"/>
</g>
<!-- Node32&#45;&gt;Node12 -->
<g id="edge172" class="edge"><title>Node32&#45;&gt;Node12</title>
<path style="fill:none;stroke:midnightblue;" d="M1750,-168C1738,-154 1717,-129 1696,-112 1682,-101 1666,-90 1653,-81"/>
<polygon style="fill:midnightblue;stroke:midnightblue;" points="1654.44,-77.7969 1644,-76 1651.04,-83.916 1654.44,-77.7969"/>
</g>
</g>
</svg>
