<?xml version="1.0" encoding="UTF-8" standalone="no"?>
<!DOCTYPE svg PUBLIC "-//W3C//DTD SVG 1.0//EN"
 "http://www.w3.org/TR/2001/REC-SVG-20010904/DTD/svg10.dtd" [
 <!ATTLIST svg xmlns:xlink CDATA #FIXED "http://www.w3.org/1999/xlink">
]>
<!-- Generated by Graphviz version 2.20.2 (Tue Mar &#160;2 19:03:41 UTC 2010)
     For user: (jenkins)  -->
<!-- Title: G Pages: 1 -->
<svg width="644pt" height="84pt"
 viewBox="0.00 0.00 644.00 84.00" xmlns="http://www.w3.org/2000/svg" xmlns:xlink="http://www.w3.org/1999/xlink">
<g id="graph0" class="graph" transform="scale(1 1) rotate(0) translate(4 80)">
<title>G</title>
<polygon style="fill:white;stroke:white;" points="-4,4 -4,-80 640,-80 640,4 -4,4"/>
<!-- Node1 -->
<g id="node1" class="node"><title>Node1</title>
<polygon style="fill:#bfbfbf;stroke:black;" points="164,-56 164,-76 412,-76 412,-56 164,-56"/>
<text text-anchor="middle" x="288" y="-63" style="font-family:Arial;font-size:10.00;">ltr/feature_converters/fake_feature_converter_learner.h</text>
</g>
<!-- Node2 -->
<g id="node3" class="node"><title>Node2</title>
<polygon style="fill:white;stroke:#bfbfbf;" points="0,-0 0,-20 40,-20 40,-0 0,-0"/>
<text text-anchor="middle" x="20" y="-7" style="font-family:Arial;font-size:10.00;">string</text>
</g>
<!-- Node1&#45;&gt;Node2 -->
<g id="edge2" class="edge"><title>Node1&#45;&gt;Node2</title>
<path style="fill:none;stroke:midnightblue;" d="M224,-56C178,-48 115,-36 50,-20"/>
<polygon style="fill:midnightblue;stroke:midnightblue;" points="50.584,-16.5212 40,-17 48.5725,-23.2259 50.584,-16.5212"/>
</g>
<!-- Node3 -->
<g id="node5" class="node"><title>Node3</title>
<polygon style="fill:white;stroke:#bfbfbf;" points="58,-0 58,-20 283,-20 283,-0 58,-0"/>
<text text-anchor="middle" x="170" y="-7" style="font-family:Arial;font-size:10.00;">ltr/feature_converters/feature_converter_learner.h</text>
</g>
<!-- Node1&#45;&gt;Node3 -->
<g id="edge4" class="edge"><title>Node1&#45;&gt;Node3</title>
<path style="fill:none;stroke:midnightblue;" d="M267,-56C249,-47 222,-34 200,-24"/>
<polygon style="fill:midnightblue;stroke:midnightblue;" points="201.56,-20.8631 191,-20 198.717,-27.2598 201.56,-20.8631"/>
</g>
<!-- Node4 -->
<g id="node7" class="node"><title>Node4</title>
<polygon style="fill:white;stroke:#bfbfbf;" points="300,-0 300,-20 513,-20 513,-0 300,-0"/>
<text text-anchor="middle" x="406" y="-7" style="font-family:Arial;font-size:10.00;">ltr/feature_converters/fake_feature_converter.h</text>
</g>
<!-- Node1&#45;&gt;Node4 -->
<g id="edge6" class="edge"><title>Node1&#45;&gt;Node4</title>
<path style="fill:none;stroke:midnightblue;" d="M309,-56C327,-47 354,-34 376,-24"/>
<polygon style="fill:midnightblue;stroke:midnightblue;" points="377.283,-27.2598 385,-20 374.44,-20.8631 377.283,-27.2598"/>
</g>
<!-- Node5 -->
<g id="node9" class="node"><title>Node5</title>
<polygon style="fill:white;stroke:#bfbfbf;" points="530,-0 530,-20 637,-20 637,-0 530,-0"/>
<text text-anchor="middle" x="583" y="-7" style="font-family:Arial;font-size:10.00;">ltr/utility/shared_ptr.h</text>
</g>
<!-- Node1&#45;&gt;Node5 -->
<g id="edge8" class="edge"><title>Node1&#45;&gt;Node5</title>
<path style="fill:none;stroke:midnightblue;" d="M341,-56C392,-47 467,-32 520,-22"/>
<polygon style="fill:midnightblue;stroke:midnightblue;" points="520.881,-25.3933 530,-20 519.508,-18.5292 520.881,-25.3933"/>
</g>
</g>
</svg>
