<?xml version="1.0" encoding="UTF-8" standalone="no"?>
<!DOCTYPE svg PUBLIC "-//W3C//DTD SVG 1.0//EN"
 "http://www.w3.org/TR/2001/REC-SVG-20010904/DTD/svg10.dtd" [
 <!ATTLIST svg xmlns:xlink CDATA #FIXED "http://www.w3.org/1999/xlink">
]>
<!-- Generated by Graphviz version 2.20.2 (Tue Mar &#160;2 19:03:41 UTC 2010)
     For user: (jenkins)  -->
<!-- Title: G Pages: 1 -->
<svg width="1857pt" height="476pt"
 viewBox="0.00 0.00 1857.00 476.00" xmlns="http://www.w3.org/2000/svg" xmlns:xlink="http://www.w3.org/1999/xlink">
<g id="graph0" class="graph" transform="scale(1 1) rotate(0) translate(4 472)">
<title>G</title>
<polygon style="fill:white;stroke:white;" points="-4,4 -4,-472 1853,-472 1853,4 -4,4"/>
<!-- Node1 -->
<g id="node1" class="node"><title>Node1</title>
<polygon style="fill:#bfbfbf;stroke:black;" points="180,-448 180,-468 428,-468 428,-448 180,-448"/>
<text text-anchor="middle" x="304" y="-455" style="font-family:Arial;font-size:10.00;">ltr/feature_converters/fake_feature_converter_learner.h</text>
</g>
<!-- Node2 -->
<g id="node3" class="node"><title>Node2</title>
<polygon style="fill:white;stroke:#bfbfbf;" points="1260,-0 1260,-20 1300,-20 1300,-0 1260,-0"/>
<text text-anchor="middle" x="1280" y="-7" style="font-family:Arial;font-size:10.00;">string</text>
</g>
<!-- Node1&#45;&gt;Node2 -->
<g id="edge2" class="edge"><title>Node1&#45;&gt;Node2</title>
<path style="fill:none;stroke:midnightblue;" d="M289,-448C264,-430 219,-391 219,-346 219,-346 219,-346 219,-234 219,-99 696,-193 816,-132 858,-110 849,-76 892,-56 955,-25 1169,-14 1250,-11"/>
<polygon style="fill:midnightblue;stroke:midnightblue;" points="1250,-14.5001 1260,-11 1250,-7.5001 1250,-14.5001"/>
</g>
<!-- Node3 -->
<g id="node5" class="node"><title>Node3</title>
<a xlink:href="feature__converter__learner_8h.html" target="_top" xlink:title="ltr/feature_converters/feature_converter_learner.h">
<polygon style="fill:white;stroke:black;" points="278,-392 278,-412 503,-412 503,-392 278,-392"/>
<text text-anchor="middle" x="390" y="-399" style="font-family:Arial;font-size:10.00;">ltr/feature_converters/feature_converter_learner.h</text>
</a>
</g>
<!-- Node1&#45;&gt;Node3 -->
<g id="edge4" class="edge"><title>Node1&#45;&gt;Node3</title>
<path style="fill:none;stroke:midnightblue;" d="M319,-448C332,-440 351,-427 366,-418"/>
<polygon style="fill:midnightblue;stroke:midnightblue;" points="368.1,-420.8 374,-412 363.9,-415.2 368.1,-420.8"/>
</g>
<!-- Node12 -->
<g id="node30" class="node"><title>Node12</title>
<a xlink:href="shared__ptr_8h.html" target="_top" xlink:title="ltr/utility/shared_ptr.h">
<polygon style="fill:white;stroke:black;" points="74,-56 74,-76 181,-76 181,-56 74,-56"/>
<text text-anchor="middle" x="127" y="-63" style="font-family:Arial;font-size:10.00;">ltr/utility/shared_ptr.h</text>
</a>
</g>
<!-- Node1&#45;&gt;Node12 -->
<g id="edge180" class="edge"><title>Node1&#45;&gt;Node12</title>
<path style="fill:none;stroke:midnightblue;" d="M256,-448C206,-434 135,-405 135,-346 135,-346 135,-346 135,-178 135,-145 131,-109 129,-86"/>
<polygon style="fill:midnightblue;stroke:midnightblue;" points="132.478,-85.6021 128,-76 125.512,-86.2987 132.478,-85.6021"/>
</g>
<!-- Node31 -->
<g id="node114" class="node"><title>Node31</title>
<a xlink:href="fake__feature__converter_8h.html" target="_top" xlink:title="ltr/feature_converters/fake_feature_converter.h">
<polygon style="fill:white;stroke:black;" points="1019,-392 1019,-412 1232,-412 1232,-392 1019,-392"/>
<text text-anchor="middle" x="1125" y="-399" style="font-family:Arial;font-size:10.00;">ltr/feature_converters/fake_feature_converter.h</text>
</a>
</g>
<!-- Node1&#45;&gt;Node31 -->
<g id="edge166" class="edge"><title>Node1&#45;&gt;Node31</title>
<path style="fill:none;stroke:midnightblue;" d="M428,-450C585,-439 855,-421 1009,-410"/>
<polygon style="fill:midnightblue;stroke:midnightblue;" points="1009.4,-413.478 1019,-409 1008.7,-406.512 1009.4,-413.478"/>
</g>
<!-- Node4 -->
<g id="node7" class="node"><title>Node4</title>
<polygon style="fill:white;stroke:#bfbfbf;" points="1486,-56 1486,-76 1528,-76 1528,-56 1486,-56"/>
<text text-anchor="middle" x="1507" y="-63" style="font-family:Arial;font-size:10.00;">vector</text>
</g>
<!-- Node3&#45;&gt;Node4 -->
<g id="edge6" class="edge"><title>Node3&#45;&gt;Node4</title>
<path style="fill:none;stroke:midnightblue;" d="M503,-399C664,-394 970,-382 1229,-356 1399,-338 1454,-370 1611,-300 1652,-281 1693,-266 1678,-224 1652,-155 1577,-105 1536,-81"/>
<polygon style="fill:midnightblue;stroke:midnightblue;" points="1537.44,-77.7969 1527,-76 1534.04,-83.916 1537.44,-77.7969"/>
</g>
<!-- Node5 -->
<g id="node9" class="node"><title>Node5</title>
<a xlink:href="data__set_8h.html" target="_top" xlink:title="ltr/data/data_set.h">
<polygon style="fill:white;stroke:black;" points="1217,-280 1217,-300 1312,-300 1312,-280 1217,-280"/>
<text text-anchor="middle" x="1264" y="-287" style="font-family:Arial;font-size:10.00;">ltr/data/data_set.h</text>
</a>
</g>
<!-- Node3&#45;&gt;Node5 -->
<g id="edge8" class="edge"><title>Node3&#45;&gt;Node5</title>
<path style="fill:none;stroke:midnightblue;" d="M468,-392C642,-370 1055,-316 1207,-297"/>
<polygon style="fill:midnightblue;stroke:midnightblue;" points="1207.4,-300.478 1217,-296 1206.7,-293.512 1207.4,-300.478"/>
</g>
<!-- Node11 -->
<g id="node26" class="node"><title>Node11</title>
<a xlink:href="printable_8h.html" target="_top" xlink:title="ltr/interfaces/printable.h">
<polygon style="fill:white;stroke:black;" points="932,-56 932,-76 1049,-76 1049,-56 932,-56"/>
<text text-anchor="middle" x="990" y="-63" style="font-family:Arial;font-size:10.00;">ltr/interfaces/printable.h</text>
</a>
</g>
<!-- Node3&#45;&gt;Node11 -->
<g id="edge160" class="edge"><title>Node3&#45;&gt;Node11</title>
<path style="fill:none;stroke:midnightblue;" d="M402,-392C419,-378 449,-354 477,-336 599,-253 631,-234 764,-168 800,-149 811,-148 849,-132 888,-114 931,-94 960,-80"/>
<polygon style="fill:midnightblue;stroke:midnightblue;" points="961.283,-83.2598 969,-76 958.44,-76.8631 961.283,-83.2598"/>
</g>
<!-- Node3&#45;&gt;Node12 -->
<g id="edge164" class="edge"><title>Node3&#45;&gt;Node12</title>
<path style="fill:none;stroke:midnightblue;" d="M355,-392C296,-372 181,-322 181,-234 181,-234 181,-234 181,-178 181,-141 158,-105 142,-84"/>
<polygon style="fill:midnightblue;stroke:midnightblue;" points="144.8,-81.9 136,-76 139.2,-86.1 144.8,-81.9"/>
</g>
<!-- Node19 -->
<g id="node59" class="node"><title>Node19</title>
<a xlink:href="parameterized_8h.html" target="_top" xlink:title="ltr/interfaces/parameterized.h">
<polygon style="fill:white;stroke:black;" points="773,-168 773,-188 915,-188 915,-168 773,-168"/>
<text text-anchor="middle" x="844" y="-175" style="font-family:Arial;font-size:10.00;">ltr/interfaces/parameterized.h</text>
</a>
</g>
<!-- Node3&#45;&gt;Node19 -->
<g id="edge158" class="edge"><title>Node3&#45;&gt;Node19</title>
<path style="fill:none;stroke:midnightblue;" d="M410,-392C483,-355 729,-234 815,-192"/>
<polygon style="fill:midnightblue;stroke:midnightblue;" points="816.283,-195.26 824,-188 813.44,-188.863 816.283,-195.26"/>
</g>
<!-- Node20 -->
<g id="node63" class="node"><title>Node20</title>
<a xlink:href="parameters__container_8h.html" target="_top" xlink:title="ltr/parameters_container/parameters_container.h">
<polygon style="fill:white;stroke:black;" points="437,-112 437,-132 662,-132 662,-112 437,-112"/>
<text text-anchor="middle" x="549" y="-119" style="font-family:Arial;font-size:10.00;">ltr/parameters_container/parameters_container.h</text>
</a>
</g>
<!-- Node3&#45;&gt;Node20 -->
<g id="edge162" class="edge"><title>Node3&#45;&gt;Node20</title>
<path style="fill:none;stroke:midnightblue;" d="M381,-392C365,-373 333,-331 333,-290 333,-290 333,-290 333,-234 333,-175 396,-147 453,-134"/>
<polygon style="fill:midnightblue;stroke:midnightblue;" points="453.881,-137.393 463,-132 452.508,-130.529 453.881,-137.393"/>
</g>
<!-- Node27 -->
<g id="node88" class="node"><title>Node27</title>
<a xlink:href="feature__converter_8h.html" target="_top" xlink:title="ltr/feature_converters/feature_converter.h">
<polygon style="fill:white;stroke:black;" points="1030,-336 1030,-356 1220,-356 1220,-336 1030,-336"/>
<text text-anchor="middle" x="1125" y="-343" style="font-family:Arial;font-size:10.00;">ltr/feature_converters/feature_converter.h</text>
</a>
</g>
<!-- Node3&#45;&gt;Node27 -->
<g id="edge122" class="edge"><title>Node3&#45;&gt;Node27</title>
<path style="fill:none;stroke:midnightblue;" d="M503,-393C643,-382 883,-365 1020,-354"/>
<polygon style="fill:midnightblue;stroke:midnightblue;" points="1020.4,-357.478 1030,-353 1019.7,-350.512 1020.4,-357.478"/>
</g>
<!-- Node5&#45;&gt;Node2 -->
<g id="edge14" class="edge"><title>Node5&#45;&gt;Node2</title>
<path style="fill:none;stroke:midnightblue;" d="M1312,-288C1415,-282 1650,-267 1678,-244 1742,-189 1766,-118 1709,-56 1682,-26 1403,-14 1310,-11"/>
<polygon style="fill:midnightblue;stroke:midnightblue;" points="1310,-7.5001 1300,-11 1310,-14.5001 1310,-7.5001"/>
</g>
<!-- Node5&#45;&gt;Node4 -->
<g id="edge16" class="edge"><title>Node5&#45;&gt;Node4</title>
<path style="fill:none;stroke:midnightblue;" d="M1289,-280C1308,-272 1334,-259 1354,-244 1414,-196 1470,-120 1494,-85"/>
<polygon style="fill:midnightblue;stroke:midnightblue;" points="1497.37,-86.262 1500,-76 1491.54,-82.3791 1497.37,-86.262"/>
</g>
<!-- Node6 -->
<g id="node11" class="node"><title>Node6</title>
<polygon style="fill:white;stroke:#bfbfbf;" points="1186,-224 1186,-244 1237,-244 1237,-224 1186,-224"/>
<text text-anchor="middle" x="1211" y="-231" style="font-family:Arial;font-size:10.00;">sstream</text>
</g>
<!-- Node5&#45;&gt;Node6 -->
<g id="edge10" class="edge"><title>Node5&#45;&gt;Node6</title>
<path style="fill:none;stroke:midnightblue;" d="M1255,-280C1247,-272 1236,-261 1228,-252"/>
<polygon style="fill:midnightblue;stroke:midnightblue;" points="1230.22,-249.221 1221,-244 1224.95,-253.831 1230.22,-249.221"/>
</g>
<!-- Node7 -->
<g id="node13" class="node"><title>Node7</title>
<polygon style="fill:white;stroke:#bfbfbf;" points="1142,-56 1142,-76 1201,-76 1201,-56 1142,-56"/>
<text text-anchor="middle" x="1171" y="-63" style="font-family:Arial;font-size:10.00;">stdexcept</text>
</g>
<!-- Node5&#45;&gt;Node7 -->
<g id="edge12" class="edge"><title>Node5&#45;&gt;Node7</title>
<path style="fill:none;stroke:midnightblue;" d="M1283,-280C1318,-260 1388,-213 1361,-168 1343,-139 1257,-100 1207,-80"/>
<polygon style="fill:midnightblue;stroke:midnightblue;" points="1207.58,-76.4643 1197,-76 1204.98,-82.9636 1207.58,-76.4643"/>
</g>
<!-- Node8 -->
<g id="node17" class="node"><title>Node8</title>
<a xlink:href="object_8h.html" target="_top" xlink:title="ltr/data/object.h">
<polygon style="fill:white;stroke:black;" points="1015,-112 1015,-132 1099,-132 1099,-112 1015,-112"/>
<text text-anchor="middle" x="1057" y="-119" style="font-family:Arial;font-size:10.00;">ltr/data/object.h</text>
</a>
</g>
<!-- Node5&#45;&gt;Node8 -->
<g id="edge18" class="edge"><title>Node5&#45;&gt;Node8</title>
<path style="fill:none;stroke:midnightblue;" d="M1241,-280C1223,-271 1197,-258 1177,-244 1134,-213 1092,-166 1071,-140"/>
<polygon style="fill:midnightblue;stroke:midnightblue;" points="1073.8,-137.9 1065,-132 1068.2,-142.1 1073.8,-137.9"/>
</g>
<!-- Node16 -->
<g id="node38" class="node"><title>Node16</title>
<a xlink:href="object__list_8h.html" target="_top" xlink:title="ltr/data/object_list.h">
<polygon style="fill:white;stroke:black;" points="1128,-168 1128,-188 1230,-188 1230,-168 1128,-168"/>
<text text-anchor="middle" x="1179" y="-175" style="font-family:Arial;font-size:10.00;">ltr/data/object_list.h</text>
</a>
</g>
<!-- Node5&#45;&gt;Node16 -->
<g id="edge44" class="edge"><title>Node5&#45;&gt;Node16</title>
<path style="fill:none;stroke:midnightblue;" d="M1263,-280C1261,-266 1257,-241 1245,-224 1236,-211 1222,-201 1210,-193"/>
<polygon style="fill:midnightblue;stroke:midnightblue;" points="1211.44,-189.797 1201,-188 1208.04,-195.916 1211.44,-189.797"/>
</g>
<!-- Node17 -->
<g id="node46" class="node"><title>Node17</title>
<a xlink:href="object__pair_8h.html" target="_top" xlink:title="ltr/data/object_pair.h">
<polygon style="fill:white;stroke:black;" points="1248,-168 1248,-188 1352,-188 1352,-168 1248,-168"/>
<text text-anchor="middle" x="1300" y="-175" style="font-family:Arial;font-size:10.00;">ltr/data/object_pair.h</text>
</a>
</g>
<!-- Node5&#45;&gt;Node17 -->
<g id="edge58" class="edge"><title>Node5&#45;&gt;Node17</title>
<path style="fill:none;stroke:midnightblue;" d="M1267,-280C1273,-261 1286,-222 1294,-198"/>
<polygon style="fill:midnightblue;stroke:midnightblue;" points="1297.48,-198.584 1297,-188 1290.77,-196.573 1297.48,-198.584"/>
</g>
<!-- Node18 -->
<g id="node54" class="node"><title>Node18</title>
<a xlink:href="feature__info_8h.html" target="_top" xlink:title="ltr/data/feature_info.h">
<polygon style="fill:white;stroke:black;" points="1563,-224 1563,-244 1670,-244 1670,-224 1563,-224"/>
<text text-anchor="middle" x="1616" y="-231" style="font-family:Arial;font-size:10.00;">ltr/data/feature_info.h</text>
</a>
</g>
<!-- Node5&#45;&gt;Node18 -->
<g id="edge72" class="edge"><title>Node5&#45;&gt;Node18</title>
<path style="fill:none;stroke:midnightblue;" d="M1312,-282C1375,-272 1484,-255 1553,-244"/>
<polygon style="fill:midnightblue;stroke:midnightblue;" points="1553.88,-247.393 1563,-242 1552.51,-240.529 1553.88,-247.393"/>
</g>
<!-- Node25 -->
<g id="node78" class="node"><title>Node25</title>
<a xlink:href="per__object__accessor_8h.html" target="_top" xlink:title="ltr/data/per_object_accessor.h">
<polygon style="fill:white;stroke:black;" points="946,-224 946,-244 1093,-244 1093,-224 946,-224"/>
<text text-anchor="middle" x="1019" y="-231" style="font-family:Arial;font-size:10.00;">ltr/data/per_object_accessor.h</text>
</a>
</g>
<!-- Node5&#45;&gt;Node25 -->
<g id="edge106" class="edge"><title>Node5&#45;&gt;Node25</title>
<path style="fill:none;stroke:midnightblue;" d="M1220,-280C1179,-271 1117,-256 1073,-246"/>
<polygon style="fill:midnightblue;stroke:midnightblue;" points="1073.49,-242.529 1063,-244 1072.12,-249.393 1073.49,-242.529"/>
</g>
<!-- Node26 -->
<g id="node85" class="node"><title>Node26</title>
<a xlink:href="aliaser_8h.html" target="_top" xlink:title="ltr/interfaces/aliaser.h">
<polygon style="fill:white;stroke:black;" points="1573,-56 1573,-76 1681,-76 1681,-56 1573,-56"/>
<text text-anchor="middle" x="1627" y="-63" style="font-family:Arial;font-size:10.00;">ltr/interfaces/aliaser.h</text>
</a>
</g>
<!-- Node5&#45;&gt;Node26 -->
<g id="edge118" class="edge"><title>Node5&#45;&gt;Node26</title>
<path style="fill:none;stroke:midnightblue;" d="M1291,-280C1314,-271 1347,-258 1375,-244 1460,-200 1483,-190 1559,-132 1578,-117 1597,-98 1611,-84"/>
<polygon style="fill:midnightblue;stroke:midnightblue;" points="1614.05,-85.8306 1618,-76 1608.78,-81.221 1614.05,-85.8306"/>
</g>
<!-- Node8&#45;&gt;Node2 -->
<g id="edge26" class="edge"><title>Node8&#45;&gt;Node2</title>
<path style="fill:none;stroke:midnightblue;" d="M1066,-112C1079,-97 1105,-71 1133,-56 1170,-34 1219,-22 1250,-15"/>
<polygon style="fill:midnightblue;stroke:midnightblue;" points="1250.88,-18.3933 1260,-13 1249.51,-11.5292 1250.88,-18.3933"/>
</g>
<!-- Node8&#45;&gt;Node4 -->
<g id="edge28" class="edge"><title>Node8&#45;&gt;Node4</title>
<path style="fill:none;stroke:midnightblue;" d="M1099,-117C1189,-106 1396,-79 1476,-70"/>
<polygon style="fill:midnightblue;stroke:midnightblue;" points="1476.4,-73.4778 1486,-69 1475.7,-66.5125 1476.4,-73.4778"/>
</g>
<!-- Node8&#45;&gt;Node7 -->
<g id="edge24" class="edge"><title>Node8&#45;&gt;Node7</title>
<path style="fill:none;stroke:midnightblue;" d="M1077,-112C1095,-103 1121,-90 1141,-81"/>
<polygon style="fill:midnightblue;stroke:midnightblue;" points="1142.96,-83.916 1150,-76 1139.56,-77.7969 1142.96,-83.916"/>
</g>
<!-- Node9 -->
<g id="node19" class="node"><title>Node9</title>
<polygon style="fill:white;stroke:#bfbfbf;" points="1218,-56 1218,-76 1253,-76 1253,-56 1218,-56"/>
<text text-anchor="middle" x="1235" y="-63" style="font-family:Arial;font-size:10.00;">map</text>
</g>
<!-- Node8&#45;&gt;Node9 -->
<g id="edge20" class="edge"><title>Node8&#45;&gt;Node9</title>
<path style="fill:none;stroke:midnightblue;" d="M1092,-112C1121,-104 1163,-91 1208,-75"/>
<polygon style="fill:midnightblue;stroke:midnightblue;" points="1209.43,-78.2259 1218,-72 1207.42,-71.5212 1209.43,-78.2259"/>
</g>
<!-- Node10 -->
<g id="node21" class="node"><title>Node10</title>
<polygon style="fill:white;stroke:#bfbfbf;" points="1008,-0 1008,-20 1059,-20 1059,-0 1008,-0"/>
<text text-anchor="middle" x="1033" y="-7" style="font-family:Arial;font-size:10.00;">ostream</text>
</g>
<!-- Node8&#45;&gt;Node10 -->
<g id="edge22" class="edge"><title>Node8&#45;&gt;Node10</title>
<path style="fill:none;stroke:midnightblue;" d="M1058,-112C1060,-99 1061,-75 1057,-56 1054,-47 1050,-37 1045,-29"/>
<polygon style="fill:midnightblue;stroke:midnightblue;" points="1047.92,-27.0418 1040,-20 1041.8,-30.4414 1047.92,-27.0418"/>
</g>
<!-- Node8&#45;&gt;Node11 -->
<g id="edge30" class="edge"><title>Node8&#45;&gt;Node11</title>
<path style="fill:none;stroke:midnightblue;" d="M1045,-112C1035,-104 1022,-92 1010,-83"/>
<polygon style="fill:midnightblue;stroke:midnightblue;" points="1011.83,-79.9511 1002,-76 1007.22,-85.2191 1011.83,-79.9511"/>
</g>
<!-- Node8&#45;&gt;Node12 -->
<g id="edge36" class="edge"><title>Node8&#45;&gt;Node12</title>
<path style="fill:none;stroke:midnightblue;" d="M1015,-120C857,-112 309,-87 191,-76"/>
<polygon style="fill:midnightblue;stroke:midnightblue;" points="191.299,-72.5125 181,-75 190.602,-79.4778 191.299,-72.5125"/>
</g>
<!-- Node11&#45;&gt;Node2 -->
<g id="edge34" class="edge"><title>Node11&#45;&gt;Node2</title>
<path style="fill:none;stroke:midnightblue;" d="M1042,-56C1103,-45 1200,-26 1250,-16"/>
<polygon style="fill:midnightblue;stroke:midnightblue;" points="1250.88,-19.3933 1260,-14 1249.51,-12.5292 1250.88,-19.3933"/>
</g>
<!-- Node11&#45;&gt;Node10 -->
<g id="edge32" class="edge"><title>Node11&#45;&gt;Node10</title>
<path style="fill:none;stroke:midnightblue;" d="M998,-56C1004,-48 1012,-38 1019,-28"/>
<polygon style="fill:midnightblue;stroke:midnightblue;" points="1021.8,-30.1 1025,-20 1016.2,-25.9 1021.8,-30.1"/>
</g>
<!-- Node13 -->
<g id="node32" class="node"><title>Node13</title>
<polygon style="fill:white;stroke:#bfbfbf;" points="0,-0 0,-20 56,-20 56,-0 0,-0"/>
<text text-anchor="middle" x="28" y="-7" style="font-family:Arial;font-size:10.00;">algorithm</text>
</g>
<!-- Node12&#45;&gt;Node13 -->
<g id="edge38" class="edge"><title>Node12&#45;&gt;Node13</title>
<path style="fill:none;stroke:midnightblue;" d="M109,-56C94,-48 72,-35 55,-25"/>
<polygon style="fill:midnightblue;stroke:midnightblue;" points="56.4414,-21.7969 46,-20 53.0418,-27.916 56.4414,-21.7969"/>
</g>
<!-- Node14 -->
<g id="node34" class="node"><title>Node14</title>
<polygon style="fill:white;stroke:#bfbfbf;" points="74,-0 74,-20 181,-20 181,-0 74,-0"/>
<text text-anchor="middle" x="127" y="-7" style="font-family:Arial;font-size:10.00;">boost/shared_ptr.hpp</text>
</g>
<!-- Node12&#45;&gt;Node14 -->
<g id="edge40" class="edge"><title>Node12&#45;&gt;Node14</title>
<path style="fill:none;stroke:midnightblue;" d="M127,-56C127,-49 127,-39 127,-30"/>
<polygon style="fill:midnightblue;stroke:midnightblue;" points="130.5,-30 127,-20 123.5,-30 130.5,-30"/>
</g>
<!-- Node15 -->
<g id="node36" class="node"><title>Node15</title>
<polygon style="fill:white;stroke:#bfbfbf;" points="198,-0 198,-20 389,-20 389,-0 198,-0"/>
<text text-anchor="middle" x="293" y="-7" style="font-family:Arial;font-size:10.00;">boost/smart_ptr/detail/operator_bool.hpp</text>
</g>
<!-- Node12&#45;&gt;Node15 -->
<g id="edge42" class="edge"><title>Node12&#45;&gt;Node15</title>
<path style="fill:none;stroke:midnightblue;" d="M157,-56C184,-47 224,-33 253,-23"/>
<polygon style="fill:midnightblue;stroke:midnightblue;" points="254.427,-26.2259 263,-20 252.416,-19.5212 254.427,-26.2259"/>
</g>
<!-- Node16&#45;&gt;Node2 -->
<g id="edge48" class="edge"><title>Node16&#45;&gt;Node2</title>
<path style="fill:none;stroke:midnightblue;" d="M1189,-168C1207,-151 1241,-113 1261,-76 1269,-61 1274,-43 1276,-30"/>
<polygon style="fill:midnightblue;stroke:midnightblue;" points="1279.47,-30.4922 1278,-20 1272.61,-29.1194 1279.47,-30.4922"/>
</g>
<!-- Node16&#45;&gt;Node4 -->
<g id="edge50" class="edge"><title>Node16&#45;&gt;Node4</title>
<path style="fill:none;stroke:midnightblue;" d="M1208,-168C1271,-146 1413,-98 1476,-76"/>
<polygon style="fill:midnightblue;stroke:midnightblue;" points="1477.43,-79.2259 1486,-73 1475.42,-72.5212 1477.43,-79.2259"/>
</g>
<!-- Node16&#45;&gt;Node7 -->
<g id="edge46" class="edge"><title>Node16&#45;&gt;Node7</title>
<path style="fill:none;stroke:midnightblue;" d="M1170,-168C1164,-159 1155,-145 1151,-132 1146,-116 1152,-98 1159,-85"/>
<polygon style="fill:midnightblue;stroke:midnightblue;" points="1162.2,-86.4414 1164,-76 1156.08,-83.0418 1162.2,-86.4414"/>
</g>
<!-- Node16&#45;&gt;Node8 -->
<g id="edge52" class="edge"><title>Node16&#45;&gt;Node8</title>
<path style="fill:none;stroke:midnightblue;" d="M1157,-168C1138,-159 1110,-146 1088,-136"/>
<polygon style="fill:midnightblue;stroke:midnightblue;" points="1089.56,-132.863 1079,-132 1086.72,-139.26 1089.56,-132.863"/>
</g>
<!-- Node16&#45;&gt;Node11 -->
<g id="edge54" class="edge"><title>Node16&#45;&gt;Node11</title>
<path style="fill:none;stroke:midnightblue;" d="M1128,-170C1083,-162 1022,-149 1006,-132 994,-120 990,-101 989,-86"/>
<polygon style="fill:midnightblue;stroke:midnightblue;" points="992.5,-86 989,-76 985.5,-86 992.5,-86"/>
</g>
<!-- Node16&#45;&gt;Node12 -->
<g id="edge56" class="edge"><title>Node16&#45;&gt;Node12</title>
<path style="fill:none;stroke:midnightblue;" d="M1128,-176C965,-169 466,-148 395,-132 373,-126 370,-118 347,-112 319,-103 245,-88 191,-78"/>
<polygon style="fill:midnightblue;stroke:midnightblue;" points="191.492,-74.5292 181,-76 190.119,-81.3933 191.492,-74.5292"/>
</g>
<!-- Node17&#45;&gt;Node2 -->
<g id="edge62" class="edge"><title>Node17&#45;&gt;Node2</title>
<path style="fill:none;stroke:midnightblue;" d="M1300,-168C1301,-147 1301,-97 1294,-56 1293,-47 1290,-38 1287,-30"/>
<polygon style="fill:midnightblue;stroke:midnightblue;" points="1290.23,-28.5725 1284,-20 1283.52,-30.584 1290.23,-28.5725"/>
</g>
<!-- Node17&#45;&gt;Node4 -->
<g id="edge64" class="edge"><title>Node17&#45;&gt;Node4</title>
<path style="fill:none;stroke:midnightblue;" d="M1319,-168C1355,-148 1436,-104 1479,-81"/>
<polygon style="fill:midnightblue;stroke:midnightblue;" points="1480.96,-83.916 1488,-76 1477.56,-77.7969 1480.96,-83.916"/>
</g>
<!-- Node17&#45;&gt;Node7 -->
<g id="edge60" class="edge"><title>Node17&#45;&gt;Node7</title>
<path style="fill:none;stroke:midnightblue;" d="M1288,-168C1265,-148 1217,-107 1191,-83"/>
<polygon style="fill:midnightblue;stroke:midnightblue;" points="1192.83,-79.9511 1183,-76 1188.22,-85.2191 1192.83,-79.9511"/>
</g>
<!-- Node17&#45;&gt;Node8 -->
<g id="edge66" class="edge"><title>Node17&#45;&gt;Node8</title>
<path style="fill:none;stroke:midnightblue;" d="M1257,-168C1215,-159 1153,-144 1109,-134"/>
<polygon style="fill:midnightblue;stroke:midnightblue;" points="1109.49,-130.529 1099,-132 1108.12,-137.393 1109.49,-130.529"/>
</g>
<!-- Node17&#45;&gt;Node11 -->
<g id="edge68" class="edge"><title>Node17&#45;&gt;Node11</title>
<path style="fill:none;stroke:midnightblue;" d="M1272,-168C1216,-147 1091,-102 1028,-79"/>
<polygon style="fill:midnightblue;stroke:midnightblue;" points="1028.58,-75.5212 1018,-76 1026.57,-82.2259 1028.58,-75.5212"/>
</g>
<!-- Node17&#45;&gt;Node12 -->
<g id="edge70" class="edge"><title>Node17&#45;&gt;Node12</title>
<path style="fill:none;stroke:midnightblue;" d="M1248,-169C1245,-168 1242,-168 1239,-168 1059,-149 601,-182 428,-132 411,-127 410,-118 393,-112 383,-108 267,-89 191,-77"/>
<polygon style="fill:midnightblue;stroke:midnightblue;" points="191.492,-73.5292 181,-75 190.119,-80.3933 191.492,-73.5292"/>
</g>
<!-- Node18&#45;&gt;Node2 -->
<g id="edge76" class="edge"><title>Node18&#45;&gt;Node2</title>
<path style="fill:none;stroke:midnightblue;" d="M1627,-224C1657,-194 1737,-108 1690,-56 1664,-27 1401,-15 1310,-11"/>
<polygon style="fill:midnightblue;stroke:midnightblue;" points="1310,-7.5001 1300,-11 1310,-14.5001 1310,-7.5001"/>
</g>
<!-- Node18&#45;&gt;Node4 -->
<g id="edge78" class="edge"><title>Node18&#45;&gt;Node4</title>
<path style="fill:none;stroke:midnightblue;" d="M1613,-224C1606,-202 1586,-149 1559,-112 1550,-101 1539,-91 1530,-82"/>
<polygon style="fill:midnightblue;stroke:midnightblue;" points="1532.1,-79.2 1522,-76 1527.9,-84.8 1532.1,-79.2"/>
</g>
<!-- Node18&#45;&gt;Node9 -->
<g id="edge74" class="edge"><title>Node18&#45;&gt;Node9</title>
<path style="fill:none;stroke:midnightblue;" d="M1605,-224C1580,-200 1512,-141 1445,-112 1383,-84 1304,-73 1263,-68"/>
<polygon style="fill:midnightblue;stroke:midnightblue;" points="1263.3,-64.5125 1253,-67 1262.6,-71.4778 1263.3,-64.5125"/>
</g>
<!-- Node18&#45;&gt;Node12 -->
<g id="edge104" class="edge"><title>Node18&#45;&gt;Node12</title>
<path style="fill:none;stroke:midnightblue;" d="M1563,-233C1353,-228 579,-207 347,-132 330,-126 328,-118 310,-112 272,-97 227,-85 191,-78"/>
<polygon style="fill:midnightblue;stroke:midnightblue;" points="191.492,-74.5292 181,-76 190.119,-81.3933 191.492,-74.5292"/>
</g>
<!-- Node18&#45;&gt;Node19 -->
<g id="edge80" class="edge"><title>Node18&#45;&gt;Node19</title>
<path style="fill:none;stroke:midnightblue;" d="M1563,-230C1431,-220 1084,-195 925,-184"/>
<polygon style="fill:midnightblue;stroke:midnightblue;" points="925.299,-180.512 915,-183 924.602,-187.478 925.299,-180.512"/>
</g>
<!-- Node19&#45;&gt;Node2 -->
<g id="edge84" class="edge"><title>Node19&#45;&gt;Node2</title>
<path style="fill:none;stroke:midnightblue;" d="M847,-168C855,-144 879,-83 923,-56 976,-22 1173,-13 1250,-10"/>
<polygon style="fill:midnightblue;stroke:midnightblue;" points="1250,-13.5001 1260,-10 1250,-6.5001 1250,-13.5001"/>
</g>
<!-- Node19&#45;&gt;Node7 -->
<g id="edge82" class="edge"><title>Node19&#45;&gt;Node7</title>
<path style="fill:none;stroke:midnightblue;" d="M866,-168C897,-154 955,-129 1006,-112 1049,-98 1099,-84 1132,-75"/>
<polygon style="fill:midnightblue;stroke:midnightblue;" points="1132.88,-78.3933 1142,-73 1131.51,-71.5292 1132.88,-78.3933"/>
</g>
<!-- Node19&#45;&gt;Node20 -->
<g id="edge86" class="edge"><title>Node19&#45;&gt;Node20</title>
<path style="fill:none;stroke:midnightblue;" d="M791,-168C740,-159 665,-144 612,-134"/>
<polygon style="fill:midnightblue;stroke:midnightblue;" points="612.492,-130.529 602,-132 611.119,-137.393 612.492,-130.529"/>
</g>
<!-- Node20&#45;&gt;Node2 -->
<g id="edge94" class="edge"><title>Node20&#45;&gt;Node2</title>
<path style="fill:none;stroke:midnightblue;" d="M537,-112C521,-98 497,-73 513,-56 519,-49 1108,-19 1250,-12"/>
<polygon style="fill:midnightblue;stroke:midnightblue;" points="1250.4,-15.4778 1260,-11 1249.7,-8.5125 1250.4,-15.4778"/>
</g>
<!-- Node20&#45;&gt;Node7 -->
<g id="edge92" class="edge"><title>Node20&#45;&gt;Node7</title>
<path style="fill:none;stroke:midnightblue;" d="M660,-112C802,-99 1039,-78 1132,-70"/>
<polygon style="fill:midnightblue;stroke:midnightblue;" points="1132.4,-73.4778 1142,-69 1131.7,-66.5125 1132.4,-73.4778"/>
</g>
<!-- Node20&#45;&gt;Node11 -->
<g id="edge102" class="edge"><title>Node20&#45;&gt;Node11</title>
<path style="fill:none;stroke:midnightblue;" d="M628,-112C711,-101 842,-85 922,-74"/>
<polygon style="fill:midnightblue;stroke:midnightblue;" points="922.398,-77.4778 932,-73 921.701,-70.5125 922.398,-77.4778"/>
</g>
<!-- Node20&#45;&gt;Node12 -->
<g id="edge100" class="edge"><title>Node20&#45;&gt;Node12</title>
<path style="fill:none;stroke:midnightblue;" d="M465,-112C394,-103 290,-91 191,-76"/>
<polygon style="fill:midnightblue;stroke:midnightblue;" points="191.299,-72.5125 181,-75 190.602,-79.4778 191.299,-72.5125"/>
</g>
<!-- Node21 -->
<g id="node65" class="node"><title>Node21</title>
<polygon style="fill:white;stroke:#bfbfbf;" points="522,-56 522,-76 596,-76 596,-56 522,-56"/>
<text text-anchor="middle" x="559" y="-63" style="font-family:Arial;font-size:10.00;">logog/logog.h</text>
</g>
<!-- Node20&#45;&gt;Node21 -->
<g id="edge88" class="edge"><title>Node20&#45;&gt;Node21</title>
<path style="fill:none;stroke:midnightblue;" d="M551,-112C552,-105 554,-95 556,-86"/>
<polygon style="fill:midnightblue;stroke:midnightblue;" points="559.488,-86.2987 557,-76 552.522,-85.6021 559.488,-86.2987"/>
</g>
<!-- Node22 -->
<g id="node67" class="node"><title>Node22</title>
<polygon style="fill:white;stroke:#bfbfbf;" points="198,-56 198,-76 227,-76 227,-56 198,-56"/>
<text text-anchor="middle" x="212" y="-63" style="font-family:Arial;font-size:10.00;">list</text>
</g>
<!-- Node20&#45;&gt;Node22 -->
<g id="edge90" class="edge"><title>Node20&#45;&gt;Node22</title>
<path style="fill:none;stroke:midnightblue;" d="M437,-113C379,-106 308,-95 237,-76"/>
<polygon style="fill:midnightblue;stroke:midnightblue;" points="237.584,-72.5212 227,-73 235.573,-79.2259 237.584,-72.5212"/>
</g>
<!-- Node23 -->
<g id="node71" class="node"><title>Node23</title>
<polygon style="fill:white;stroke:#bfbfbf;" points="244,-56 244,-76 321,-76 321,-56 244,-56"/>
<text text-anchor="middle" x="282" y="-63" style="font-family:Arial;font-size:10.00;">boost/any.hpp</text>
</g>
<!-- Node20&#45;&gt;Node23 -->
<g id="edge96" class="edge"><title>Node20&#45;&gt;Node23</title>
<path style="fill:none;stroke:midnightblue;" d="M501,-112C459,-103 396,-89 331,-76"/>
<polygon style="fill:midnightblue;stroke:midnightblue;" points="331.492,-72.5292 321,-74 330.119,-79.3933 331.492,-72.5292"/>
</g>
<!-- Node24 -->
<g id="node73" class="node"><title>Node24</title>
<polygon style="fill:white;stroke:#bfbfbf;" points="338,-56 338,-76 467,-76 467,-56 338,-56"/>
<text text-anchor="middle" x="402" y="-63" style="font-family:Arial;font-size:10.00;">boost/unordered_map.hpp</text>
</g>
<!-- Node20&#45;&gt;Node24 -->
<g id="edge98" class="edge"><title>Node20&#45;&gt;Node24</title>
<path style="fill:none;stroke:midnightblue;" d="M523,-112C499,-103 464,-90 438,-80"/>
<polygon style="fill:midnightblue;stroke:midnightblue;" points="438.585,-76.4643 428,-76 435.985,-82.9636 438.585,-76.4643"/>
</g>
<!-- Node25&#45;&gt;Node8 -->
<g id="edge108" class="edge"><title>Node25&#45;&gt;Node8</title>
<path style="fill:none;stroke:midnightblue;" d="M1023,-224C1029,-205 1042,-166 1051,-142"/>
<polygon style="fill:midnightblue;stroke:midnightblue;" points="1054.48,-142.584 1054,-132 1047.77,-140.573 1054.48,-142.584"/>
</g>
<!-- Node25&#45;&gt;Node12 -->
<g id="edge116" class="edge"><title>Node25&#45;&gt;Node12</title>
<path style="fill:none;stroke:midnightblue;" d="M946,-231C811,-226 528,-213 433,-188 357,-167 346,-141 271,-112 239,-99 202,-88 173,-79"/>
<polygon style="fill:midnightblue;stroke:midnightblue;" points="173.584,-75.5212 163,-76 171.573,-82.2259 173.584,-75.5212"/>
</g>
<!-- Node25&#45;&gt;Node16 -->
<g id="edge112" class="edge"><title>Node25&#45;&gt;Node16</title>
<path style="fill:none;stroke:midnightblue;" d="M1048,-224C1074,-215 1112,-201 1140,-191"/>
<polygon style="fill:midnightblue;stroke:midnightblue;" points="1141.43,-194.226 1150,-188 1139.42,-187.521 1141.43,-194.226"/>
</g>
<!-- Node25&#45;&gt;Node17 -->
<g id="edge110" class="edge"><title>Node25&#45;&gt;Node17</title>
<path style="fill:none;stroke:midnightblue;" d="M1069,-224C1117,-215 1189,-200 1240,-190"/>
<polygon style="fill:midnightblue;stroke:midnightblue;" points="1240.88,-193.393 1250,-188 1239.51,-186.529 1240.88,-193.393"/>
</g>
<!-- Node25&#45;&gt;Node19 -->
<g id="edge114" class="edge"><title>Node25&#45;&gt;Node19</title>
<path style="fill:none;stroke:midnightblue;" d="M988,-224C959,-215 916,-201 885,-191"/>
<polygon style="fill:midnightblue;stroke:midnightblue;" points="885.584,-187.521 875,-188 883.573,-194.226 885.584,-187.521"/>
</g>
<!-- Node26&#45;&gt;Node2 -->
<g id="edge120" class="edge"><title>Node26&#45;&gt;Node2</title>
<path style="fill:none;stroke:midnightblue;" d="M1573,-57C1499,-46 1368,-25 1310,-15"/>
<polygon style="fill:midnightblue;stroke:midnightblue;" points="1310.49,-11.5292 1300,-13 1309.12,-18.3933 1310.49,-11.5292"/>
</g>
<!-- Node27&#45;&gt;Node2 -->
<g id="edge126" class="edge"><title>Node27&#45;&gt;Node2</title>
<path style="fill:none;stroke:midnightblue;" d="M1220,-342C1340,-337 1541,-324 1611,-300 1703,-268 1742,-229 1753,-132 1756,-96 1758,-77 1730,-56 1695,-30 1406,-15 1310,-11"/>
<polygon style="fill:midnightblue;stroke:midnightblue;" points="1310,-7.5001 1300,-11 1310,-14.5001 1310,-7.5001"/>
</g>
<!-- Node27&#45;&gt;Node4 -->
<g id="edge124" class="edge"><title>Node27&#45;&gt;Node4</title>
<path style="fill:none;stroke:midnightblue;" d="M1195,-336C1249,-327 1317,-314 1341,-300 1427,-248 1481,-132 1499,-86"/>
<polygon style="fill:midnightblue;stroke:midnightblue;" points="1502.54,-86.5847 1503,-76 1496.04,-83.9849 1502.54,-86.5847"/>
</g>
<!-- Node27&#45;&gt;Node5 -->
<g id="edge130" class="edge"><title>Node27&#45;&gt;Node5</title>
<path style="fill:none;stroke:midnightblue;" d="M1150,-336C1172,-327 1205,-314 1230,-304"/>
<polygon style="fill:midnightblue;stroke:midnightblue;" points="1231.28,-307.26 1239,-300 1228.44,-300.863 1231.28,-307.26"/>
</g>
<!-- Node27&#45;&gt;Node7 -->
<g id="edge128" class="edge"><title>Node27&#45;&gt;Node7</title>
<path style="fill:none;stroke:midnightblue;" d="M1191,-336C1239,-328 1299,-315 1320,-300 1365,-267 1366,-242 1377,-188 1385,-144 1352,-133 1314,-112 1297,-102 1247,-87 1211,-77"/>
<polygon style="fill:midnightblue;stroke:midnightblue;" points="1211.58,-73.5212 1201,-74 1209.57,-80.2259 1211.58,-73.5212"/>
</g>
<!-- Node27&#45;&gt;Node8 -->
<g id="edge134" class="edge"><title>Node27&#45;&gt;Node8</title>
<path style="fill:none;stroke:midnightblue;" d="M1124,-336C1121,-315 1113,-264 1101,-224 1092,-194 1076,-161 1066,-141"/>
<polygon style="fill:midnightblue;stroke:midnightblue;" points="1069.26,-139.717 1062,-132 1062.86,-142.56 1069.26,-139.717"/>
</g>
<!-- Node27&#45;&gt;Node12 -->
<g id="edge156" class="edge"><title>Node27&#45;&gt;Node12</title>
<path style="fill:none;stroke:midnightblue;" d="M1057,-336C924,-316 622,-264 378,-188 317,-168 302,-160 243,-132 211,-116 176,-95 153,-81"/>
<polygon style="fill:midnightblue;stroke:midnightblue;" points="154.441,-77.7969 144,-76 151.042,-83.916 154.441,-77.7969"/>
</g>
<!-- Node27&#45;&gt;Node18 -->
<g id="edge132" class="edge"><title>Node27&#45;&gt;Node18</title>
<path style="fill:none;stroke:midnightblue;" d="M1220,-339C1317,-332 1459,-318 1511,-300 1543,-289 1576,-266 1596,-250"/>
<polygon style="fill:midnightblue;stroke:midnightblue;" points="1598.1,-252.8 1604,-244 1593.9,-247.2 1598.1,-252.8"/>
</g>
<!-- Node27&#45;&gt;Node19 -->
<g id="edge138" class="edge"><title>Node27&#45;&gt;Node19</title>
<path style="fill:none;stroke:midnightblue;" d="M1104,-336C1069,-318 996,-281 937,-244 911,-228 884,-208 865,-194"/>
<polygon style="fill:midnightblue;stroke:midnightblue;" points="867.1,-191.2 857,-188 862.9,-196.8 867.1,-191.2"/>
</g>
<!-- Node27&#45;&gt;Node25 -->
<g id="edge136" class="edge"><title>Node27&#45;&gt;Node25</title>
<path style="fill:none;stroke:midnightblue;" d="M1115,-336C1097,-316 1058,-275 1036,-251"/>
<polygon style="fill:midnightblue;stroke:midnightblue;" points="1038.55,-248.596 1029,-244 1033.6,-253.546 1038.55,-248.596"/>
</g>
<!-- Node27&#45;&gt;Node26 -->
<g id="edge154" class="edge"><title>Node27&#45;&gt;Node26</title>
<path style="fill:none;stroke:midnightblue;" d="M1220,-343C1305,-338 1432,-327 1539,-300 1612,-281 1697,-310 1697,-234 1697,-234 1697,-234 1697,-178 1697,-139 1667,-103 1646,-83"/>
<polygon style="fill:midnightblue;stroke:midnightblue;" points="1648.55,-80.5962 1639,-76 1643.6,-85.546 1648.55,-80.5962"/>
</g>
<!-- Node28 -->
<g id="node98" class="node"><title>Node28</title>
<a xlink:href="serializable_8h.html" target="_top" xlink:title="ltr/interfaces/serializable.h">
<polygon style="fill:white;stroke:black;" points="679,-112 679,-132 808,-132 808,-112 679,-112"/>
<text text-anchor="middle" x="743" y="-119" style="font-family:Arial;font-size:10.00;">ltr/interfaces/serializable.h</text>
</a>
</g>
<!-- Node27&#45;&gt;Node28 -->
<g id="edge140" class="edge"><title>Node27&#45;&gt;Node28</title>
<path style="fill:none;stroke:midnightblue;" d="M1064,-336C984,-319 842,-279 764,-188 752,-175 747,-156 745,-142"/>
<polygon style="fill:midnightblue;stroke:midnightblue;" points="748.478,-141.602 744,-132 741.512,-142.299 748.478,-141.602"/>
</g>
<!-- Node28&#45;&gt;Node2 -->
<g id="edge146" class="edge"><title>Node28&#45;&gt;Node2</title>
<path style="fill:none;stroke:midnightblue;" d="M758,-112C783,-95 832,-63 852,-56 926,-31 1165,-16 1250,-12"/>
<polygon style="fill:midnightblue;stroke:midnightblue;" points="1250.4,-15.4778 1260,-11 1249.7,-8.5125 1250.4,-15.4778"/>
</g>
<!-- Node28&#45;&gt;Node12 -->
<g id="edge150" class="edge"><title>Node28&#45;&gt;Node12</title>
<path style="fill:none;stroke:midnightblue;" d="M679,-113C676,-113 673,-112 670,-112 460,-89 404,-101 191,-76"/>
<polygon style="fill:midnightblue;stroke:midnightblue;" points="191.299,-72.5125 181,-75 190.602,-79.4778 191.299,-72.5125"/>
</g>
<!-- Node28&#45;&gt;Node21 -->
<g id="edge144" class="edge"><title>Node28&#45;&gt;Node21</title>
<path style="fill:none;stroke:midnightblue;" d="M710,-112C680,-103 635,-89 602,-79"/>
<polygon style="fill:midnightblue;stroke:midnightblue;" points="602.584,-75.5212 592,-76 600.573,-82.2259 602.584,-75.5212"/>
</g>
<!-- Node28&#45;&gt;Node26 -->
<g id="edge152" class="edge"><title>Node28&#45;&gt;Node26</title>
<path style="fill:none;stroke:midnightblue;" d="M808,-119C944,-113 1266,-98 1537,-76 1546,-75 1554,-75 1563,-73"/>
<polygon style="fill:midnightblue;stroke:midnightblue;" points="1563.4,-76.4778 1573,-72 1562.7,-69.5125 1563.4,-76.4778"/>
</g>
<!-- Node29 -->
<g id="node100" class="node"><title>Node29</title>
<polygon style="fill:white;stroke:#bfbfbf;" points="686,-56 686,-76 800,-76 800,-56 686,-56"/>
<text text-anchor="middle" x="743" y="-63" style="font-family:Arial;font-size:10.00;">boost/lexical_cast.hpp</text>
</g>
<!-- Node28&#45;&gt;Node29 -->
<g id="edge142" class="edge"><title>Node28&#45;&gt;Node29</title>
<path style="fill:none;stroke:midnightblue;" d="M743,-112C743,-105 743,-95 743,-86"/>
<polygon style="fill:midnightblue;stroke:midnightblue;" points="746.5,-86 743,-76 739.5,-86 746.5,-86"/>
</g>
<!-- Node30 -->
<g id="node104" class="node"><title>Node30</title>
<polygon style="fill:white;stroke:#bfbfbf;" points="614,-56 614,-76 668,-76 668,-56 614,-56"/>
<text text-anchor="middle" x="641" y="-63" style="font-family:Arial;font-size:10.00;">iostream</text>
</g>
<!-- Node28&#45;&gt;Node30 -->
<g id="edge148" class="edge"><title>Node28&#45;&gt;Node30</title>
<path style="fill:none;stroke:midnightblue;" d="M725,-112C709,-103 686,-91 668,-81"/>
<polygon style="fill:midnightblue;stroke:midnightblue;" points="669.441,-77.7969 659,-76 666.042,-83.916 669.441,-77.7969"/>
</g>
<!-- Node31&#45;&gt;Node2 -->
<g id="edge168" class="edge"><title>Node31&#45;&gt;Node2</title>
<path style="fill:none;stroke:midnightblue;" d="M1232,-396C1434,-384 1849,-351 1849,-290 1849,-290 1849,-290 1849,-122 1849,-70 1801,-73 1753,-56 1670,-25 1401,-14 1310,-11"/>
<polygon style="fill:midnightblue;stroke:midnightblue;" points="1310,-7.5001 1300,-11 1310,-14.5001 1310,-7.5001"/>
</g>
<!-- Node31&#45;&gt;Node5 -->
<g id="edge174" class="edge"><title>Node31&#45;&gt;Node5</title>
<path style="fill:none;stroke:midnightblue;" d="M1163,-392C1184,-385 1210,-373 1229,-356 1243,-343 1252,-324 1257,-309"/>
<polygon style="fill:midnightblue;stroke:midnightblue;" points="1260.14,-310.56 1261,-300 1253.74,-307.717 1260.14,-310.56"/>
</g>
<!-- Node31&#45;&gt;Node8 -->
<g id="edge170" class="edge"><title>Node31&#45;&gt;Node8</title>
<path style="fill:none;stroke:midnightblue;" d="M1091,-392C1069,-384 1042,-372 1021,-356 972,-317 956,-303 937,-244 920,-195 982,-156 1023,-136"/>
<polygon style="fill:midnightblue;stroke:midnightblue;" points="1024.28,-139.26 1032,-132 1021.44,-132.863 1024.28,-139.26"/>
</g>
<!-- Node31&#45;&gt;Node12 -->
<g id="edge178" class="edge"><title>Node31&#45;&gt;Node12</title>
<path style="fill:none;stroke:midnightblue;" d="M1078,-392C958,-366 634,-290 378,-188 329,-168 317,-160 271,-132 258,-123 257,-119 243,-112 219,-99 191,-87 169,-79"/>
<polygon style="fill:midnightblue;stroke:midnightblue;" points="169.584,-75.5212 159,-76 167.573,-82.2259 169.584,-75.5212"/>
</g>
<!-- Node31&#45;&gt;Node18 -->
<g id="edge172" class="edge"><title>Node31&#45;&gt;Node18</title>
<path style="fill:none;stroke:midnightblue;" d="M1214,-392C1301,-380 1435,-353 1539,-300 1563,-287 1586,-267 1600,-252"/>
<polygon style="fill:midnightblue;stroke:midnightblue;" points="1603.05,-253.831 1607,-244 1597.78,-249.221 1603.05,-253.831"/>
</g>
<!-- Node31&#45;&gt;Node27 -->
<g id="edge176" class="edge"><title>Node31&#45;&gt;Node27</title>
<path style="fill:none;stroke:midnightblue;" d="M1125,-392C1125,-385 1125,-375 1125,-366"/>
<polygon style="fill:midnightblue;stroke:midnightblue;" points="1128.5,-366 1125,-356 1121.5,-366 1128.5,-366"/>
</g>
</g>
</svg>
