<?xml version="1.0" encoding="UTF-8" standalone="no"?>
<!DOCTYPE svg PUBLIC "-//W3C//DTD SVG 1.0//EN"
 "http://www.w3.org/TR/2001/REC-SVG-20010904/DTD/svg10.dtd" [
 <!ATTLIST svg xmlns:xlink CDATA #FIXED "http://www.w3.org/1999/xlink">
]>
<!-- Generated by Graphviz version 2.20.2 (Tue Mar &#160;2 19:03:41 UTC 2010)
     For user: (jenkins)  -->
<!-- Title: G Pages: 1 -->
<svg width="810pt" height="140pt"
 viewBox="0.00 0.00 810.00 140.00" xmlns="http://www.w3.org/2000/svg" xmlns:xlink="http://www.w3.org/1999/xlink">
<g id="graph0" class="graph" transform="scale(1 1) rotate(0) translate(4 136)">
<title>G</title>
<polygon style="fill:white;stroke:white;" points="-4,4 -4,-136 806,-136 806,4 -4,4"/>
<!-- Node1 -->
<g id="node1" class="node"><title>Node1</title>
<polygon style="fill:#bfbfbf;stroke:black;" points="33,-112 33,-132 252,-132 252,-112 33,-112"/>
<text text-anchor="middle" x="142" y="-119" style="font-family:Arial;font-size:10.00;">ltr/feature_converters/fake_feature_converter.cc</text>
</g>
<!-- Node2 -->
<g id="node3" class="node"><title>Node2</title>
<polygon style="fill:white;stroke:#bfbfbf;" points="0,-56 0,-76 114,-76 114,-56 0,-56"/>
<text text-anchor="middle" x="57" y="-63" style="font-family:Arial;font-size:10.00;">boost/lexical_cast.hpp</text>
</g>
<!-- Node1&#45;&gt;Node2 -->
<g id="edge2" class="edge"><title>Node1&#45;&gt;Node2</title>
<path style="fill:none;stroke:midnightblue;" d="M127,-112C114,-104 96,-91 81,-82"/>
<polygon style="fill:midnightblue;stroke:midnightblue;" points="82.262,-78.6349 72,-76 78.3791,-84.4592 82.262,-78.6349"/>
</g>
<!-- Node3 -->
<g id="node5" class="node"><title>Node3</title>
<polygon style="fill:white;stroke:#bfbfbf;" points="92,-0 92,-20 132,-20 132,-0 92,-0"/>
<text text-anchor="middle" x="112" y="-7" style="font-family:Arial;font-size:10.00;">string</text>
</g>
<!-- Node1&#45;&gt;Node3 -->
<g id="edge4" class="edge"><title>Node1&#45;&gt;Node3</title>
<path style="fill:none;stroke:midnightblue;" d="M139,-112C135,-93 124,-54 118,-30"/>
<polygon style="fill:midnightblue;stroke:midnightblue;" points="121.226,-28.5725 115,-20 114.521,-30.584 121.226,-28.5725"/>
</g>
<!-- Node4 -->
<g id="node7" class="node"><title>Node4</title>
<a xlink:href="fake__feature__converter_8h.html" target="_top" xlink:title="ltr/feature_converters/fake_feature_converter.h">
<polygon style="fill:white;stroke:black;" points="199,-56 199,-76 412,-76 412,-56 199,-56"/>
<text text-anchor="middle" x="305" y="-63" style="font-family:Arial;font-size:10.00;">ltr/feature_converters/fake_feature_converter.h</text>
</a>
</g>
<!-- Node1&#45;&gt;Node4 -->
<g id="edge6" class="edge"><title>Node1&#45;&gt;Node4</title>
<path style="fill:none;stroke:midnightblue;" d="M171,-112C198,-103 237,-89 266,-79"/>
<polygon style="fill:midnightblue;stroke:midnightblue;" points="267.427,-82.2259 276,-76 265.416,-75.5212 267.427,-82.2259"/>
</g>
<!-- Node4&#45;&gt;Node3 -->
<g id="edge8" class="edge"><title>Node4&#45;&gt;Node3</title>
<path style="fill:none;stroke:midnightblue;" d="M267,-56C236,-48 190,-35 142,-20"/>
<polygon style="fill:midnightblue;stroke:midnightblue;" points="142.584,-16.5212 132,-17 140.573,-23.2259 142.584,-16.5212"/>
</g>
<!-- Node5 -->
<g id="node10" class="node"><title>Node5</title>
<polygon style="fill:white;stroke:#bfbfbf;" points="150,-0 150,-20 234,-20 234,-0 150,-0"/>
<text text-anchor="middle" x="192" y="-7" style="font-family:Arial;font-size:10.00;">ltr/data/object.h</text>
</g>
<!-- Node4&#45;&gt;Node5 -->
<g id="edge10" class="edge"><title>Node4&#45;&gt;Node5</title>
<path style="fill:none;stroke:midnightblue;" d="M285,-56C267,-47 241,-34 221,-24"/>
<polygon style="fill:midnightblue;stroke:midnightblue;" points="222.56,-20.8631 212,-20 219.717,-27.2598 222.56,-20.8631"/>
</g>
<!-- Node6 -->
<g id="node12" class="node"><title>Node6</title>
<polygon style="fill:white;stroke:#bfbfbf;" points="252,-0 252,-20 359,-20 359,-0 252,-0"/>
<text text-anchor="middle" x="305" y="-7" style="font-family:Arial;font-size:10.00;">ltr/data/feature_info.h</text>
</g>
<!-- Node4&#45;&gt;Node6 -->
<g id="edge12" class="edge"><title>Node4&#45;&gt;Node6</title>
<path style="fill:none;stroke:midnightblue;" d="M305,-56C305,-49 305,-39 305,-30"/>
<polygon style="fill:midnightblue;stroke:midnightblue;" points="308.5,-30 305,-20 301.5,-30 308.5,-30"/>
</g>
<!-- Node7 -->
<g id="node14" class="node"><title>Node7</title>
<polygon style="fill:white;stroke:#bfbfbf;" points="376,-0 376,-20 471,-20 471,-0 376,-0"/>
<text text-anchor="middle" x="423" y="-7" style="font-family:Arial;font-size:10.00;">ltr/data/data_set.h</text>
</g>
<!-- Node4&#45;&gt;Node7 -->
<g id="edge14" class="edge"><title>Node4&#45;&gt;Node7</title>
<path style="fill:none;stroke:midnightblue;" d="M326,-56C344,-47 371,-34 393,-24"/>
<polygon style="fill:midnightblue;stroke:midnightblue;" points="394.283,-27.2598 402,-20 391.44,-20.8631 394.283,-27.2598"/>
</g>
<!-- Node8 -->
<g id="node16" class="node"><title>Node8</title>
<polygon style="fill:white;stroke:#bfbfbf;" points="488,-0 488,-20 678,-20 678,-0 488,-0"/>
<text text-anchor="middle" x="583" y="-7" style="font-family:Arial;font-size:10.00;">ltr/feature_converters/feature_converter.h</text>
</g>
<!-- Node4&#45;&gt;Node8 -->
<g id="edge16" class="edge"><title>Node4&#45;&gt;Node8</title>
<path style="fill:none;stroke:midnightblue;" d="M355,-56C402,-47 473,-32 523,-22"/>
<polygon style="fill:midnightblue;stroke:midnightblue;" points="523.881,-25.3933 533,-20 522.508,-18.5292 523.881,-25.3933"/>
</g>
<!-- Node9 -->
<g id="node18" class="node"><title>Node9</title>
<polygon style="fill:white;stroke:#bfbfbf;" points="696,-0 696,-20 803,-20 803,-0 696,-0"/>
<text text-anchor="middle" x="749" y="-7" style="font-family:Arial;font-size:10.00;">ltr/utility/shared_ptr.h</text>
</g>
<!-- Node4&#45;&gt;Node9 -->
<g id="edge18" class="edge"><title>Node4&#45;&gt;Node9</title>
<path style="fill:none;stroke:midnightblue;" d="M394,-56C470,-47 580,-35 686,-20"/>
<polygon style="fill:midnightblue;stroke:midnightblue;" points="686.398,-23.4778 696,-19 685.701,-16.5125 686.398,-23.4778"/>
</g>
</g>
</svg>
