<?xml version="1.0" encoding="UTF-8" standalone="no"?>
<!DOCTYPE svg PUBLIC "-//W3C//DTD SVG 1.0//EN"
 "http://www.w3.org/TR/2001/REC-SVG-20010904/DTD/svg10.dtd" [
 <!ATTLIST svg xmlns:xlink CDATA #FIXED "http://www.w3.org/1999/xlink">
]>
<!-- Generated by Graphviz version 2.20.2 (Tue Mar &#160;2 19:03:41 UTC 2010)
     For user: (jenkins)  -->
<!-- Title: G Pages: 1 -->
<svg width="1868pt" height="420pt"
 viewBox="0.00 0.00 1868.00 420.00" xmlns="http://www.w3.org/2000/svg" xmlns:xlink="http://www.w3.org/1999/xlink">
<g id="graph0" class="graph" transform="scale(1 1) rotate(0) translate(4 416)">
<title>G</title>
<polygon style="fill:white;stroke:white;" points="-4,4 -4,-416 1864,-416 1864,4 -4,4"/>
<!-- Node1 -->
<g id="node1" class="node"><title>Node1</title>
<polygon style="fill:#bfbfbf;stroke:black;" points="568,-392 568,-412 793,-412 793,-392 568,-392"/>
<text text-anchor="middle" x="680" y="-399" style="font-family:Arial;font-size:10.00;">ltr/feature_converters/feature_converter_learner.h</text>
</g>
<!-- Node2 -->
<g id="node3" class="node"><title>Node2</title>
<polygon style="fill:white;stroke:#bfbfbf;" points="93,-56 93,-76 135,-76 135,-56 93,-56"/>
<text text-anchor="middle" x="114" y="-63" style="font-family:Arial;font-size:10.00;">vector</text>
</g>
<!-- Node1&#45;&gt;Node2 -->
<g id="edge2" class="edge"><title>Node1&#45;&gt;Node2</title>
<path style="fill:none;stroke:midnightblue;" d="M568,-395C375,-381 0,-346 0,-290 0,-290 0,-290 0,-178 0,-130 50,-96 84,-79"/>
<polygon style="fill:midnightblue;stroke:midnightblue;" points="85.2834,-82.2598 93,-75 82.4404,-75.8631 85.2834,-82.2598"/>
</g>
<!-- Node3 -->
<g id="node5" class="node"><title>Node3</title>
<a xlink:href="data__set_8h.html" target="_top" xlink:title="ltr/data/data_set.h">
<polygon style="fill:white;stroke:black;" points="549,-280 549,-300 644,-300 644,-280 549,-280"/>
<text text-anchor="middle" x="596" y="-287" style="font-family:Arial;font-size:10.00;">ltr/data/data_set.h</text>
</a>
</g>
<!-- Node1&#45;&gt;Node3 -->
<g id="edge4" class="edge"><title>Node1&#45;&gt;Node3</title>
<path style="fill:none;stroke:midnightblue;" d="M672,-392C658,-372 628,-332 610,-308"/>
<polygon style="fill:midnightblue;stroke:midnightblue;" points="612.8,-305.9 604,-300 607.2,-310.1 612.8,-305.9"/>
</g>
<!-- Node10 -->
<g id="node23" class="node"><title>Node10</title>
<a xlink:href="printable_8h.html" target="_top" xlink:title="ltr/interfaces/printable.h">
<polygon style="fill:white;stroke:black;" points="248,-56 248,-76 365,-76 365,-56 248,-56"/>
<text text-anchor="middle" x="306" y="-63" style="font-family:Arial;font-size:10.00;">ltr/interfaces/printable.h</text>
</a>
</g>
<!-- Node1&#45;&gt;Node10 -->
<g id="edge156" class="edge"><title>Node1&#45;&gt;Node10</title>
<path style="fill:none;stroke:midnightblue;" d="M607,-392C520,-376 378,-337 300,-244 260,-195 220,-168 247,-112 253,-99 265,-89 276,-82"/>
<polygon style="fill:midnightblue;stroke:midnightblue;" points="278.621,-84.4592 285,-76 274.738,-78.6349 278.621,-84.4592"/>
</g>
<!-- Node11 -->
<g id="node27" class="node"><title>Node11</title>
<a xlink:href="shared__ptr_8h.html" target="_top" xlink:title="ltr/utility/shared_ptr.h">
<polygon style="fill:white;stroke:black;" points="763,-56 763,-76 870,-76 870,-56 763,-56"/>
<text text-anchor="middle" x="816" y="-63" style="font-family:Arial;font-size:10.00;">ltr/utility/shared_ptr.h</text>
</a>
</g>
<!-- Node1&#45;&gt;Node11 -->
<g id="edge160" class="edge"><title>Node1&#45;&gt;Node11</title>
<path style="fill:none;stroke:midnightblue;" d="M682,-392C685,-379 692,-355 699,-336 733,-239 786,-129 807,-85"/>
<polygon style="fill:midnightblue;stroke:midnightblue;" points="810.137,-86.5596 811,-76 803.74,-83.7166 810.137,-86.5596"/>
</g>
<!-- Node18 -->
<g id="node56" class="node"><title>Node18</title>
<a xlink:href="parameterized_8h.html" target="_top" xlink:title="ltr/interfaces/parameterized.h">
<polygon style="fill:white;stroke:black;" points="983,-168 983,-188 1125,-188 1125,-168 983,-168"/>
<text text-anchor="middle" x="1054" y="-175" style="font-family:Arial;font-size:10.00;">ltr/interfaces/parameterized.h</text>
</a>
</g>
<!-- Node1&#45;&gt;Node18 -->
<g id="edge154" class="edge"><title>Node1&#45;&gt;Node18</title>
<path style="fill:none;stroke:midnightblue;" d="M754,-392C810,-383 881,-370 907,-356 974,-317 1024,-235 1044,-197"/>
<polygon style="fill:midnightblue;stroke:midnightblue;" points="1047.2,-198.441 1049,-188 1041.08,-195.042 1047.2,-198.441"/>
</g>
<!-- Node19 -->
<g id="node60" class="node"><title>Node19</title>
<a xlink:href="parameters__container_8h.html" target="_top" xlink:title="ltr/parameters_container/parameters_container.h">
<polygon style="fill:white;stroke:black;" points="1219,-112 1219,-132 1444,-132 1444,-112 1219,-112"/>
<text text-anchor="middle" x="1331" y="-119" style="font-family:Arial;font-size:10.00;">ltr/parameters_container/parameters_container.h</text>
</a>
</g>
<!-- Node1&#45;&gt;Node19 -->
<g id="edge158" class="edge"><title>Node1&#45;&gt;Node19</title>
<path style="fill:none;stroke:midnightblue;" d="M793,-397C1084,-383 1836,-342 1836,-290 1836,-290 1836,-290 1836,-234 1836,-192 1572,-152 1425,-133"/>
<polygon style="fill:midnightblue;stroke:midnightblue;" points="1425.3,-129.512 1415,-132 1424.6,-136.478 1425.3,-129.512"/>
</g>
<!-- Node26 -->
<g id="node85" class="node"><title>Node26</title>
<a xlink:href="feature__converter_8h.html" target="_top" xlink:title="ltr/feature_converters/feature_converter.h">
<polygon style="fill:white;stroke:black;" points="708,-336 708,-356 898,-356 898,-336 708,-336"/>
<text text-anchor="middle" x="803" y="-343" style="font-family:Arial;font-size:10.00;">ltr/feature_converters/feature_converter.h</text>
</a>
</g>
<!-- Node1&#45;&gt;Node26 -->
<g id="edge118" class="edge"><title>Node1&#45;&gt;Node26</title>
<path style="fill:none;stroke:midnightblue;" d="M702,-392C721,-383 749,-370 772,-360"/>
<polygon style="fill:midnightblue;stroke:midnightblue;" points="773.283,-363.26 781,-356 770.44,-356.863 773.283,-363.26"/>
</g>
<!-- Node3&#45;&gt;Node2 -->
<g id="edge12" class="edge"><title>Node3&#45;&gt;Node2</title>
<path style="fill:none;stroke:midnightblue;" d="M549,-287C492,-283 394,-272 314,-244 225,-211 187,-209 131,-132 122,-119 118,-100 116,-86"/>
<polygon style="fill:midnightblue;stroke:midnightblue;" points="119.478,-85.6021 115,-76 112.512,-86.2987 119.478,-85.6021"/>
</g>
<!-- Node4 -->
<g id="node7" class="node"><title>Node4</title>
<polygon style="fill:white;stroke:#bfbfbf;" points="323,-224 323,-244 374,-244 374,-224 323,-224"/>
<text text-anchor="middle" x="348" y="-231" style="font-family:Arial;font-size:10.00;">sstream</text>
</g>
<!-- Node3&#45;&gt;Node4 -->
<g id="edge6" class="edge"><title>Node3&#45;&gt;Node4</title>
<path style="fill:none;stroke:midnightblue;" d="M549,-280C506,-271 443,-257 387,-244 386,-244 385,-244 384,-243"/>
<polygon style="fill:midnightblue;stroke:midnightblue;" points="384.584,-239.521 374,-240 382.573,-246.226 384.584,-239.521"/>
</g>
<!-- Node5 -->
<g id="node9" class="node"><title>Node5</title>
<polygon style="fill:white;stroke:#bfbfbf;" points="643,-56 643,-76 702,-76 702,-56 643,-56"/>
<text text-anchor="middle" x="672" y="-63" style="font-family:Arial;font-size:10.00;">stdexcept</text>
</g>
<!-- Node3&#45;&gt;Node5 -->
<g id="edge8" class="edge"><title>Node3&#45;&gt;Node5</title>
<path style="fill:none;stroke:midnightblue;" d="M624,-280C641,-273 660,-261 670,-244 698,-193 686,-121 678,-86"/>
<polygon style="fill:midnightblue;stroke:midnightblue;" points="681.226,-84.5725 675,-76 674.521,-86.584 681.226,-84.5725"/>
</g>
<!-- Node6 -->
<g id="node11" class="node"><title>Node6</title>
<polygon style="fill:white;stroke:#bfbfbf;" points="998,-0 998,-20 1038,-20 1038,-0 998,-0"/>
<text text-anchor="middle" x="1018" y="-7" style="font-family:Arial;font-size:10.00;">string</text>
</g>
<!-- Node3&#45;&gt;Node6 -->
<g id="edge10" class="edge"><title>Node3&#45;&gt;Node6</title>
<path style="fill:none;stroke:midnightblue;" d="M617,-280C635,-271 662,-257 685,-244 808,-170 946,-66 997,-26"/>
<polygon style="fill:midnightblue;stroke:midnightblue;" points="999.1,-28.8 1005,-20 994.9,-23.2 999.1,-28.8"/>
</g>
<!-- Node7 -->
<g id="node14" class="node"><title>Node7</title>
<a xlink:href="object_8h.html" target="_top" xlink:title="ltr/data/object.h">
<polygon style="fill:white;stroke:black;" points="256,-112 256,-132 340,-132 340,-112 256,-112"/>
<text text-anchor="middle" x="298" y="-119" style="font-family:Arial;font-size:10.00;">ltr/data/object.h</text>
</a>
</g>
<!-- Node3&#45;&gt;Node7 -->
<g id="edge14" class="edge"><title>Node3&#45;&gt;Node7</title>
<path style="fill:none;stroke:midnightblue;" d="M558,-280C508,-266 419,-235 355,-188 337,-174 321,-155 311,-141"/>
<polygon style="fill:midnightblue;stroke:midnightblue;" points="313.459,-138.379 305,-132 307.635,-142.262 313.459,-138.379"/>
</g>
<!-- Node15 -->
<g id="node35" class="node"><title>Node15</title>
<a xlink:href="object__list_8h.html" target="_top" xlink:title="ltr/data/object_list.h">
<polygon style="fill:white;stroke:black;" points="521,-168 521,-188 623,-188 623,-168 521,-168"/>
<text text-anchor="middle" x="572" y="-175" style="font-family:Arial;font-size:10.00;">ltr/data/object_list.h</text>
</a>
</g>
<!-- Node3&#45;&gt;Node15 -->
<g id="edge40" class="edge"><title>Node3&#45;&gt;Node15</title>
<path style="fill:none;stroke:midnightblue;" d="M556,-280C538,-273 517,-262 506,-244 494,-224 517,-205 539,-193"/>
<polygon style="fill:midnightblue;stroke:midnightblue;" points="540.958,-195.916 548,-188 537.559,-189.797 540.958,-195.916"/>
</g>
<!-- Node16 -->
<g id="node43" class="node"><title>Node16</title>
<a xlink:href="object__pair_8h.html" target="_top" xlink:title="ltr/data/object_pair.h">
<polygon style="fill:white;stroke:black;" points="399,-168 399,-188 503,-188 503,-168 399,-168"/>
<text text-anchor="middle" x="451" y="-175" style="font-family:Arial;font-size:10.00;">ltr/data/object_pair.h</text>
</a>
</g>
<!-- Node3&#45;&gt;Node16 -->
<g id="edge54" class="edge"><title>Node3&#45;&gt;Node16</title>
<path style="fill:none;stroke:midnightblue;" d="M566,-280C546,-272 519,-260 499,-244 484,-230 470,-211 461,-197"/>
<polygon style="fill:midnightblue;stroke:midnightblue;" points="463.916,-195.042 456,-188 457.797,-198.441 463.916,-195.042"/>
</g>
<!-- Node17 -->
<g id="node51" class="node"><title>Node17</title>
<a xlink:href="feature__info_8h.html" target="_top" xlink:title="ltr/data/feature_info.h">
<polygon style="fill:white;stroke:black;" points="869,-224 869,-244 976,-244 976,-224 869,-224"/>
<text text-anchor="middle" x="922" y="-231" style="font-family:Arial;font-size:10.00;">ltr/data/feature_info.h</text>
</a>
</g>
<!-- Node3&#45;&gt;Node17 -->
<g id="edge68" class="edge"><title>Node3&#45;&gt;Node17</title>
<path style="fill:none;stroke:midnightblue;" d="M644,-282C701,-272 796,-256 859,-245"/>
<polygon style="fill:midnightblue;stroke:midnightblue;" points="859.881,-248.393 869,-243 858.508,-241.529 859.881,-248.393"/>
</g>
<!-- Node24 -->
<g id="node75" class="node"><title>Node24</title>
<a xlink:href="per__object__accessor_8h.html" target="_top" xlink:title="ltr/data/per_object_accessor.h">
<polygon style="fill:white;stroke:black;" points="515,-224 515,-244 662,-244 662,-224 515,-224"/>
<text text-anchor="middle" x="588" y="-231" style="font-family:Arial;font-size:10.00;">ltr/data/per_object_accessor.h</text>
</a>
</g>
<!-- Node3&#45;&gt;Node24 -->
<g id="edge102" class="edge"><title>Node3&#45;&gt;Node24</title>
<path style="fill:none;stroke:midnightblue;" d="M595,-280C594,-273 592,-263 591,-254"/>
<polygon style="fill:midnightblue;stroke:midnightblue;" points="594.393,-253.119 589,-244 587.529,-254.492 594.393,-253.119"/>
</g>
<!-- Node25 -->
<g id="node82" class="node"><title>Node25</title>
<a xlink:href="aliaser_8h.html" target="_top" xlink:title="ltr/interfaces/aliaser.h">
<polygon style="fill:white;stroke:black;" points="1080,-56 1080,-76 1188,-76 1188,-56 1080,-56"/>
<text text-anchor="middle" x="1134" y="-63" style="font-family:Arial;font-size:10.00;">ltr/interfaces/aliaser.h</text>
</a>
</g>
<!-- Node3&#45;&gt;Node25 -->
<g id="edge114" class="edge"><title>Node3&#45;&gt;Node25</title>
<path style="fill:none;stroke:midnightblue;" d="M644,-289C766,-285 1078,-267 1134,-188 1154,-157 1147,-112 1140,-86"/>
<polygon style="fill:midnightblue;stroke:midnightblue;" points="1143.23,-84.5725 1137,-76 1136.52,-86.584 1143.23,-84.5725"/>
</g>
<!-- Node7&#45;&gt;Node2 -->
<g id="edge24" class="edge"><title>Node7&#45;&gt;Node2</title>
<path style="fill:none;stroke:midnightblue;" d="M265,-112C231,-102 178,-85 145,-75"/>
<polygon style="fill:midnightblue;stroke:midnightblue;" points="145.584,-71.5212 135,-72 143.573,-78.2259 145.584,-71.5212"/>
</g>
<!-- Node7&#45;&gt;Node5 -->
<g id="edge20" class="edge"><title>Node7&#45;&gt;Node5</title>
<path style="fill:none;stroke:midnightblue;" d="M340,-116C413,-105 562,-82 633,-72"/>
<polygon style="fill:midnightblue;stroke:midnightblue;" points="633.881,-75.3933 643,-70 632.508,-68.5292 633.881,-75.3933"/>
</g>
<!-- Node7&#45;&gt;Node6 -->
<g id="edge22" class="edge"><title>Node7&#45;&gt;Node6</title>
<path style="fill:none;stroke:midnightblue;" d="M278,-112C255,-99 221,-75 239,-56 295,2 869,-33 988,-19"/>
<polygon style="fill:midnightblue;stroke:midnightblue;" points="988.398,-22.4778 998,-18 987.701,-15.5125 988.398,-22.4778"/>
</g>
<!-- Node8 -->
<g id="node16" class="node"><title>Node8</title>
<polygon style="fill:white;stroke:#bfbfbf;" points="382,-56 382,-76 417,-76 417,-56 382,-56"/>
<text text-anchor="middle" x="399" y="-63" style="font-family:Arial;font-size:10.00;">map</text>
</g>
<!-- Node7&#45;&gt;Node8 -->
<g id="edge16" class="edge"><title>Node7&#45;&gt;Node8</title>
<path style="fill:none;stroke:midnightblue;" d="M316,-112C332,-103 355,-91 373,-81"/>
<polygon style="fill:midnightblue;stroke:midnightblue;" points="374.958,-83.916 382,-76 371.559,-77.7969 374.958,-83.916"/>
</g>
<!-- Node9 -->
<g id="node18" class="node"><title>Node9</title>
<polygon style="fill:white;stroke:#bfbfbf;" points="219,-0 219,-20 270,-20 270,-0 219,-0"/>
<text text-anchor="middle" x="244" y="-7" style="font-family:Arial;font-size:10.00;">ostream</text>
</g>
<!-- Node7&#45;&gt;Node9 -->
<g id="edge18" class="edge"><title>Node7&#45;&gt;Node9</title>
<path style="fill:none;stroke:midnightblue;" d="M258,-112C239,-105 218,-94 206,-76 197,-59 210,-40 223,-27"/>
<polygon style="fill:midnightblue;stroke:midnightblue;" points="225.779,-29.2191 231,-20 221.169,-23.9511 225.779,-29.2191"/>
</g>
<!-- Node7&#45;&gt;Node10 -->
<g id="edge26" class="edge"><title>Node7&#45;&gt;Node10</title>
<path style="fill:none;stroke:midnightblue;" d="M299,-112C300,-105 302,-95 303,-86"/>
<polygon style="fill:midnightblue;stroke:midnightblue;" points="306.471,-86.4922 305,-76 299.607,-85.1194 306.471,-86.4922"/>
</g>
<!-- Node7&#45;&gt;Node11 -->
<g id="edge32" class="edge"><title>Node7&#45;&gt;Node11</title>
<path style="fill:none;stroke:midnightblue;" d="M340,-117C431,-107 645,-84 753,-73"/>
<polygon style="fill:midnightblue;stroke:midnightblue;" points="753.398,-76.4778 763,-72 752.701,-69.5125 753.398,-76.4778"/>
</g>
<!-- Node10&#45;&gt;Node6 -->
<g id="edge30" class="edge"><title>Node10&#45;&gt;Node6</title>
<path style="fill:none;stroke:midnightblue;" d="M365,-57C368,-57 371,-56 373,-56 642,-27 717,-72 988,-20"/>
<polygon style="fill:midnightblue;stroke:midnightblue;" points="988.881,-23.3933 998,-18 987.508,-16.5292 988.881,-23.3933"/>
</g>
<!-- Node10&#45;&gt;Node9 -->
<g id="edge28" class="edge"><title>Node10&#45;&gt;Node9</title>
<path style="fill:none;stroke:midnightblue;" d="M295,-56C286,-48 273,-37 263,-27"/>
<polygon style="fill:midnightblue;stroke:midnightblue;" points="264.831,-23.9511 255,-20 260.221,-29.2191 264.831,-23.9511"/>
</g>
<!-- Node12 -->
<g id="node29" class="node"><title>Node12</title>
<polygon style="fill:white;stroke:#bfbfbf;" points="924,-0 924,-20 980,-20 980,-0 924,-0"/>
<text text-anchor="middle" x="952" y="-7" style="font-family:Arial;font-size:10.00;">algorithm</text>
</g>
<!-- Node11&#45;&gt;Node12 -->
<g id="edge34" class="edge"><title>Node11&#45;&gt;Node12</title>
<path style="fill:none;stroke:midnightblue;" d="M840,-56C862,-47 894,-34 918,-24"/>
<polygon style="fill:midnightblue;stroke:midnightblue;" points="919.283,-27.2598 927,-20 916.44,-20.8631 919.283,-27.2598"/>
</g>
<!-- Node13 -->
<g id="node31" class="node"><title>Node13</title>
<polygon style="fill:white;stroke:#bfbfbf;" points="592,-0 592,-20 699,-20 699,-0 592,-0"/>
<text text-anchor="middle" x="645" y="-7" style="font-family:Arial;font-size:10.00;">boost/shared_ptr.hpp</text>
</g>
<!-- Node11&#45;&gt;Node13 -->
<g id="edge36" class="edge"><title>Node11&#45;&gt;Node13</title>
<path style="fill:none;stroke:midnightblue;" d="M785,-56C757,-47 716,-33 686,-23"/>
<polygon style="fill:midnightblue;stroke:midnightblue;" points="686.584,-19.5212 676,-20 684.573,-26.2259 686.584,-19.5212"/>
</g>
<!-- Node14 -->
<g id="node33" class="node"><title>Node14</title>
<polygon style="fill:white;stroke:#bfbfbf;" points="716,-0 716,-20 907,-20 907,-0 716,-0"/>
<text text-anchor="middle" x="811" y="-7" style="font-family:Arial;font-size:10.00;">boost/smart_ptr/detail/operator_bool.hpp</text>
</g>
<!-- Node11&#45;&gt;Node14 -->
<g id="edge38" class="edge"><title>Node11&#45;&gt;Node14</title>
<path style="fill:none;stroke:midnightblue;" d="M815,-56C814,-49 814,-39 813,-30"/>
<polygon style="fill:midnightblue;stroke:midnightblue;" points="816.478,-29.6021 812,-20 809.512,-30.2987 816.478,-29.6021"/>
</g>
<!-- Node15&#45;&gt;Node2 -->
<g id="edge46" class="edge"><title>Node15&#45;&gt;Node2</title>
<path style="fill:none;stroke:midnightblue;" d="M521,-169C518,-169 515,-168 512,-168 395,-150 361,-166 247,-132 207,-120 164,-97 139,-81"/>
<polygon style="fill:midnightblue;stroke:midnightblue;" points="140.441,-77.7969 130,-76 137.042,-83.916 140.441,-77.7969"/>
</g>
<!-- Node15&#45;&gt;Node5 -->
<g id="edge42" class="edge"><title>Node15&#45;&gt;Node5</title>
<path style="fill:none;stroke:midnightblue;" d="M581,-168C598,-148 635,-108 656,-84"/>
<polygon style="fill:midnightblue;stroke:midnightblue;" points="659.049,-85.8306 663,-76 653.781,-81.221 659.049,-85.8306"/>
</g>
<!-- Node15&#45;&gt;Node6 -->
<g id="edge44" class="edge"><title>Node15&#45;&gt;Node6</title>
<path style="fill:none;stroke:midnightblue;" d="M574,-168C578,-144 594,-83 634,-56 697,-13 896,-35 988,-20"/>
<polygon style="fill:midnightblue;stroke:midnightblue;" points="988.881,-23.3933 998,-18 987.508,-16.5292 988.881,-23.3933"/>
</g>
<!-- Node15&#45;&gt;Node7 -->
<g id="edge48" class="edge"><title>Node15&#45;&gt;Node7</title>
<path style="fill:none;stroke:midnightblue;" d="M523,-168C474,-158 399,-143 350,-133"/>
<polygon style="fill:midnightblue;stroke:midnightblue;" points="350.492,-129.529 340,-131 349.119,-136.393 350.492,-129.529"/>
</g>
<!-- Node15&#45;&gt;Node10 -->
<g id="edge50" class="edge"><title>Node15&#45;&gt;Node10</title>
<path style="fill:none;stroke:midnightblue;" d="M548,-168C500,-147 394,-102 339,-80"/>
<polygon style="fill:midnightblue;stroke:midnightblue;" points="340.56,-76.8631 330,-76 337.717,-83.2598 340.56,-76.8631"/>
</g>
<!-- Node15&#45;&gt;Node11 -->
<g id="edge52" class="edge"><title>Node15&#45;&gt;Node11</title>
<path style="fill:none;stroke:midnightblue;" d="M594,-168C637,-147 734,-103 785,-80"/>
<polygon style="fill:midnightblue;stroke:midnightblue;" points="786.283,-83.2598 794,-76 783.44,-76.8631 786.283,-83.2598"/>
</g>
<!-- Node16&#45;&gt;Node2 -->
<g id="edge60" class="edge"><title>Node16&#45;&gt;Node2</title>
<path style="fill:none;stroke:midnightblue;" d="M399,-173C330,-166 214,-152 176,-132 155,-121 138,-100 127,-84"/>
<polygon style="fill:midnightblue;stroke:midnightblue;" points="129.8,-81.9 121,-76 124.2,-86.1 129.8,-81.9"/>
</g>
<!-- Node16&#45;&gt;Node5 -->
<g id="edge56" class="edge"><title>Node16&#45;&gt;Node5</title>
<path style="fill:none;stroke:midnightblue;" d="M471,-168C510,-147 597,-103 643,-81"/>
<polygon style="fill:midnightblue;stroke:midnightblue;" points="644.958,-83.916 652,-76 641.559,-77.7969 644.958,-83.916"/>
</g>
<!-- Node16&#45;&gt;Node6 -->
<g id="edge58" class="edge"><title>Node16&#45;&gt;Node6</title>
<path style="fill:none;stroke:midnightblue;" d="M460,-168C482,-143 542,-81 606,-56 761,6 819,-54 988,-20"/>
<polygon style="fill:midnightblue;stroke:midnightblue;" points="988.881,-23.3933 998,-18 987.508,-16.5292 988.881,-23.3933"/>
</g>
<!-- Node16&#45;&gt;Node7 -->
<g id="edge62" class="edge"><title>Node16&#45;&gt;Node7</title>
<path style="fill:none;stroke:midnightblue;" d="M424,-168C399,-159 362,-145 335,-135"/>
<polygon style="fill:midnightblue;stroke:midnightblue;" points="335.584,-131.521 325,-132 333.573,-138.226 335.584,-131.521"/>
</g>
<!-- Node16&#45;&gt;Node10 -->
<g id="edge64" class="edge"><title>Node16&#45;&gt;Node10</title>
<path style="fill:none;stroke:midnightblue;" d="M438,-168C412,-148 358,-106 327,-82"/>
<polygon style="fill:midnightblue;stroke:midnightblue;" points="329.1,-79.2 319,-76 324.9,-84.8 329.1,-79.2"/>
</g>
<!-- Node16&#45;&gt;Node11 -->
<g id="edge66" class="edge"><title>Node16&#45;&gt;Node11</title>
<path style="fill:none;stroke:midnightblue;" d="M484,-168C550,-147 699,-101 773,-79"/>
<polygon style="fill:midnightblue;stroke:midnightblue;" points="774.427,-82.2259 783,-76 772.416,-75.5212 774.427,-82.2259"/>
</g>
<!-- Node17&#45;&gt;Node2 -->
<g id="edge74" class="edge"><title>Node17&#45;&gt;Node2</title>
<path style="fill:none;stroke:midnightblue;" d="M869,-232C773,-227 564,-215 390,-188 282,-170 238,-198 150,-132 136,-120 126,-101 120,-86"/>
<polygon style="fill:midnightblue;stroke:midnightblue;" points="123.226,-84.5725 117,-76 116.521,-86.584 123.226,-84.5725"/>
</g>
<!-- Node17&#45;&gt;Node6 -->
<g id="edge72" class="edge"><title>Node17&#45;&gt;Node6</title>
<path style="fill:none;stroke:midnightblue;" d="M931,-224C945,-206 974,-169 990,-132 1005,-97 1012,-55 1016,-30"/>
<polygon style="fill:midnightblue;stroke:midnightblue;" points="1019.49,-30.2987 1017,-20 1012.52,-29.6021 1019.49,-30.2987"/>
</g>
<!-- Node17&#45;&gt;Node8 -->
<g id="edge70" class="edge"><title>Node17&#45;&gt;Node8</title>
<path style="fill:none;stroke:midnightblue;" d="M891,-224C797,-194 516,-103 427,-75"/>
<polygon style="fill:midnightblue;stroke:midnightblue;" points="427.584,-71.5212 417,-72 425.573,-78.2259 427.584,-71.5212"/>
</g>
<!-- Node17&#45;&gt;Node11 -->
<g id="edge100" class="edge"><title>Node17&#45;&gt;Node11</title>
<path style="fill:none;stroke:midnightblue;" d="M920,-224C916,-202 902,-148 876,-112 867,-100 854,-90 843,-82"/>
<polygon style="fill:midnightblue;stroke:midnightblue;" points="844.262,-78.6349 834,-76 840.379,-84.4592 844.262,-78.6349"/>
</g>
<!-- Node17&#45;&gt;Node18 -->
<g id="edge76" class="edge"><title>Node17&#45;&gt;Node18</title>
<path style="fill:none;stroke:midnightblue;" d="M946,-224C967,-215 997,-202 1020,-192"/>
<polygon style="fill:midnightblue;stroke:midnightblue;" points="1022.02,-194.964 1030,-188 1019.42,-188.464 1022.02,-194.964"/>
</g>
<!-- Node18&#45;&gt;Node5 -->
<g id="edge78" class="edge"><title>Node18&#45;&gt;Node5</title>
<path style="fill:none;stroke:midnightblue;" d="M1020,-168C949,-147 787,-100 712,-78"/>
<polygon style="fill:midnightblue;stroke:midnightblue;" points="712.584,-74.5212 702,-75 710.573,-81.2259 712.584,-74.5212"/>
</g>
<!-- Node18&#45;&gt;Node6 -->
<g id="edge80" class="edge"><title>Node18&#45;&gt;Node6</title>
<path style="fill:none;stroke:midnightblue;" d="M1052,-168C1047,-147 1036,-97 1028,-56 1026,-47 1024,-38 1022,-30"/>
<polygon style="fill:midnightblue;stroke:midnightblue;" points="1025.39,-29.1194 1020,-20 1018.53,-30.4922 1025.39,-29.1194"/>
</g>
<!-- Node18&#45;&gt;Node19 -->
<g id="edge82" class="edge"><title>Node18&#45;&gt;Node19</title>
<path style="fill:none;stroke:midnightblue;" d="M1104,-168C1151,-159 1221,-144 1271,-134"/>
<polygon style="fill:midnightblue;stroke:midnightblue;" points="1271.88,-137.393 1281,-132 1270.51,-130.529 1271.88,-137.393"/>
</g>
<!-- Node19&#45;&gt;Node5 -->
<g id="edge88" class="edge"><title>Node19&#45;&gt;Node5</title>
<path style="fill:none;stroke:midnightblue;" d="M1219,-114C1102,-106 915,-92 754,-76 740,-74 726,-73 712,-71"/>
<polygon style="fill:midnightblue;stroke:midnightblue;" points="712.299,-67.5125 702,-70 711.602,-74.4778 712.299,-67.5125"/>
</g>
<!-- Node19&#45;&gt;Node6 -->
<g id="edge90" class="edge"><title>Node19&#45;&gt;Node6</title>
<path style="fill:none;stroke:midnightblue;" d="M1309,-112C1290,-103 1260,-89 1235,-76 1217,-67 1214,-62 1197,-56 1146,-36 1084,-23 1048,-15"/>
<polygon style="fill:midnightblue;stroke:midnightblue;" points="1048.49,-11.5292 1038,-13 1047.12,-18.3933 1048.49,-11.5292"/>
</g>
<!-- Node19&#45;&gt;Node10 -->
<g id="edge98" class="edge"><title>Node19&#45;&gt;Node10</title>
<path style="fill:none;stroke:midnightblue;" d="M1219,-120C1042,-116 686,-105 375,-76"/>
<polygon style="fill:midnightblue;stroke:midnightblue;" points="375.299,-72.5125 365,-75 374.602,-79.4778 375.299,-72.5125"/>
</g>
<!-- Node19&#45;&gt;Node11 -->
<g id="edge96" class="edge"><title>Node19&#45;&gt;Node11</title>
<path style="fill:none;stroke:midnightblue;" d="M1239,-112C1136,-100 971,-82 880,-73"/>
<polygon style="fill:midnightblue;stroke:midnightblue;" points="880.299,-69.5125 870,-72 879.602,-76.4778 880.299,-69.5125"/>
</g>
<!-- Node20 -->
<g id="node62" class="node"><title>Node20</title>
<polygon style="fill:white;stroke:#bfbfbf;" points="1530,-56 1530,-76 1604,-76 1604,-56 1530,-56"/>
<text text-anchor="middle" x="1567" y="-63" style="font-family:Arial;font-size:10.00;">logog/logog.h</text>
</g>
<!-- Node19&#45;&gt;Node20 -->
<g id="edge84" class="edge"><title>Node19&#45;&gt;Node20</title>
<path style="fill:none;stroke:midnightblue;" d="M1373,-112C1415,-103 1477,-87 1520,-77"/>
<polygon style="fill:midnightblue;stroke:midnightblue;" points="1520.88,-80.3933 1530,-75 1519.51,-73.5292 1520.88,-80.3933"/>
</g>
<!-- Node21 -->
<g id="node64" class="node"><title>Node21</title>
<polygon style="fill:white;stroke:#bfbfbf;" points="1244,-56 1244,-76 1273,-76 1273,-56 1244,-56"/>
<text text-anchor="middle" x="1258" y="-63" style="font-family:Arial;font-size:10.00;">list</text>
</g>
<!-- Node19&#45;&gt;Node21 -->
<g id="edge86" class="edge"><title>Node19&#45;&gt;Node21</title>
<path style="fill:none;stroke:midnightblue;" d="M1318,-112C1307,-104 1292,-92 1279,-82"/>
<polygon style="fill:midnightblue;stroke:midnightblue;" points="1281.1,-79.2 1271,-76 1276.9,-84.8 1281.1,-79.2"/>
</g>
<!-- Node22 -->
<g id="node68" class="node"><title>Node22</title>
<polygon style="fill:white;stroke:#bfbfbf;" points="1290,-56 1290,-76 1367,-76 1367,-56 1290,-56"/>
<text text-anchor="middle" x="1328" y="-63" style="font-family:Arial;font-size:10.00;">boost/any.hpp</text>
</g>
<!-- Node19&#45;&gt;Node22 -->
<g id="edge92" class="edge"><title>Node19&#45;&gt;Node22</title>
<path style="fill:none;stroke:midnightblue;" d="M1330,-112C1330,-105 1329,-95 1329,-86"/>
<polygon style="fill:midnightblue;stroke:midnightblue;" points="1332.5,-86 1329,-76 1325.5,-86 1332.5,-86"/>
</g>
<!-- Node23 -->
<g id="node70" class="node"><title>Node23</title>
<polygon style="fill:white;stroke:#bfbfbf;" points="1384,-56 1384,-76 1513,-76 1513,-56 1384,-56"/>
<text text-anchor="middle" x="1448" y="-63" style="font-family:Arial;font-size:10.00;">boost/unordered_map.hpp</text>
</g>
<!-- Node19&#45;&gt;Node23 -->
<g id="edge94" class="edge"><title>Node19&#45;&gt;Node23</title>
<path style="fill:none;stroke:midnightblue;" d="M1352,-112C1370,-103 1397,-90 1418,-80"/>
<polygon style="fill:midnightblue;stroke:midnightblue;" points="1419.28,-83.2598 1427,-76 1416.44,-76.8631 1419.28,-83.2598"/>
</g>
<!-- Node24&#45;&gt;Node7 -->
<g id="edge104" class="edge"><title>Node24&#45;&gt;Node7</title>
<path style="fill:none;stroke:midnightblue;" d="M515,-224C477,-217 430,-206 390,-188 362,-175 335,-154 317,-139"/>
<polygon style="fill:midnightblue;stroke:midnightblue;" points="318.831,-135.951 309,-132 314.221,-141.219 318.831,-135.951"/>
</g>
<!-- Node24&#45;&gt;Node11 -->
<g id="edge112" class="edge"><title>Node24&#45;&gt;Node11</title>
<path style="fill:none;stroke:midnightblue;" d="M602,-224C640,-196 748,-116 794,-82"/>
<polygon style="fill:midnightblue;stroke:midnightblue;" points="796.1,-84.8 802,-76 791.9,-79.2 796.1,-84.8"/>
</g>
<!-- Node24&#45;&gt;Node15 -->
<g id="edge108" class="edge"><title>Node24&#45;&gt;Node15</title>
<path style="fill:none;stroke:midnightblue;" d="M585,-224C584,-217 581,-207 578,-198"/>
<polygon style="fill:midnightblue;stroke:midnightblue;" points="581.226,-196.573 575,-188 574.521,-198.584 581.226,-196.573"/>
</g>
<!-- Node24&#45;&gt;Node16 -->
<g id="edge106" class="edge"><title>Node24&#45;&gt;Node16</title>
<path style="fill:none;stroke:midnightblue;" d="M564,-224C542,-215 510,-202 485,-192"/>
<polygon style="fill:midnightblue;stroke:midnightblue;" points="486.56,-188.863 476,-188 483.717,-195.26 486.56,-188.863"/>
</g>
<!-- Node24&#45;&gt;Node18 -->
<g id="edge110" class="edge"><title>Node24&#45;&gt;Node18</title>
<path style="fill:none;stroke:midnightblue;" d="M662,-225C747,-214 885,-198 973,-187"/>
<polygon style="fill:midnightblue;stroke:midnightblue;" points="973.398,-190.478 983,-186 972.701,-183.512 973.398,-190.478"/>
</g>
<!-- Node25&#45;&gt;Node6 -->
<g id="edge116" class="edge"><title>Node25&#45;&gt;Node6</title>
<path style="fill:none;stroke:midnightblue;" d="M1113,-56C1095,-47 1068,-34 1047,-24"/>
<polygon style="fill:midnightblue;stroke:midnightblue;" points="1048.56,-20.8631 1038,-20 1045.72,-27.2598 1048.56,-20.8631"/>
</g>
<!-- Node26&#45;&gt;Node2 -->
<g id="edge120" class="edge"><title>Node26&#45;&gt;Node2</title>
<path style="fill:none;stroke:midnightblue;" d="M708,-339C602,-331 439,-316 379,-300 275,-270 243,-260 161,-188 138,-167 130,-161 119,-132 114,-117 112,-100 113,-86"/>
<polygon style="fill:midnightblue;stroke:midnightblue;" points="116.5,-86 113,-76 109.5,-86 116.5,-86"/>
</g>
<!-- Node26&#45;&gt;Node3 -->
<g id="edge126" class="edge"><title>Node26&#45;&gt;Node3</title>
<path style="fill:none;stroke:midnightblue;" d="M766,-336C731,-327 680,-313 643,-303"/>
<polygon style="fill:midnightblue;stroke:midnightblue;" points="643.584,-299.521 633,-300 641.573,-306.226 643.584,-299.521"/>
</g>
<!-- Node26&#45;&gt;Node5 -->
<g id="edge124" class="edge"><title>Node26&#45;&gt;Node5</title>
<path style="fill:none;stroke:midnightblue;" d="M799,-336C784,-303 739,-197 697,-112 692,-103 687,-93 683,-85"/>
<polygon style="fill:midnightblue;stroke:midnightblue;" points="685.916,-83.0418 678,-76 679.797,-86.4414 685.916,-83.0418"/>
</g>
<!-- Node26&#45;&gt;Node6 -->
<g id="edge122" class="edge"><title>Node26&#45;&gt;Node6</title>
<path style="fill:none;stroke:midnightblue;" d="M898,-337C1135,-311 1741,-232 1855,-76 1860,-68 1861,-62 1855,-56 1826,-26 1195,-13 1048,-10"/>
<polygon style="fill:midnightblue;stroke:midnightblue;" points="1048,-6.5001 1038,-10 1048,-13.5001 1048,-6.5001"/>
</g>
<!-- Node26&#45;&gt;Node7 -->
<g id="edge130" class="edge"><title>Node26&#45;&gt;Node7</title>
<path style="fill:none;stroke:midnightblue;" d="M708,-339C581,-328 365,-301 314,-244 289,-216 291,-169 294,-142"/>
<polygon style="fill:midnightblue;stroke:midnightblue;" points="297.471,-142.492 296,-132 290.607,-141.119 297.471,-142.492"/>
</g>
<!-- Node26&#45;&gt;Node11 -->
<g id="edge152" class="edge"><title>Node26&#45;&gt;Node11</title>
<path style="fill:none;stroke:midnightblue;" d="M805,-336C812,-305 831,-211 838,-132 838,-123 839,-120 838,-112 835,-103 831,-93 827,-85"/>
<polygon style="fill:midnightblue;stroke:midnightblue;" points="829.916,-83.0418 822,-76 823.797,-86.4414 829.916,-83.0418"/>
</g>
<!-- Node26&#45;&gt;Node17 -->
<g id="edge128" class="edge"><title>Node26&#45;&gt;Node17</title>
<path style="fill:none;stroke:midnightblue;" d="M814,-336C834,-316 878,-275 903,-251"/>
<polygon style="fill:midnightblue;stroke:midnightblue;" points="905.779,-253.219 911,-244 901.169,-247.951 905.779,-253.219"/>
</g>
<!-- Node26&#45;&gt;Node18 -->
<g id="edge134" class="edge"><title>Node26&#45;&gt;Node18</title>
<path style="fill:none;stroke:midnightblue;" d="M824,-336C859,-319 930,-283 984,-244 1003,-229 1024,-209 1038,-195"/>
<polygon style="fill:midnightblue;stroke:midnightblue;" points="1040.4,-197.546 1045,-188 1035.45,-192.596 1040.4,-197.546"/>
</g>
<!-- Node26&#45;&gt;Node24 -->
<g id="edge132" class="edge"><title>Node26&#45;&gt;Node24</title>
<path style="fill:none;stroke:midnightblue;" d="M784,-336C746,-316 662,-272 617,-249"/>
<polygon style="fill:midnightblue;stroke:midnightblue;" points="618.441,-245.797 608,-244 615.042,-251.916 618.441,-245.797"/>
</g>
<!-- Node26&#45;&gt;Node25 -->
<g id="edge150" class="edge"><title>Node26&#45;&gt;Node25</title>
<path style="fill:none;stroke:midnightblue;" d="M870,-336C951,-320 1085,-280 1152,-188 1171,-160 1167,-144 1159,-112 1156,-103 1152,-93 1147,-85"/>
<polygon style="fill:midnightblue;stroke:midnightblue;" points="1149.92,-83.0418 1142,-76 1143.8,-86.4414 1149.92,-83.0418"/>
</g>
<!-- Node27 -->
<g id="node95" class="node"><title>Node27</title>
<a xlink:href="serializable_8h.html" target="_top" xlink:title="ltr/interfaces/serializable.h">
<polygon style="fill:white;stroke:black;" points="1503,-112 1503,-132 1632,-132 1632,-112 1503,-112"/>
<text text-anchor="middle" x="1567" y="-119" style="font-family:Arial;font-size:10.00;">ltr/interfaces/serializable.h</text>
</a>
</g>
<!-- Node26&#45;&gt;Node27 -->
<g id="edge136" class="edge"><title>Node26&#45;&gt;Node27</title>
<path style="fill:none;stroke:midnightblue;" d="M898,-339C964,-332 1052,-320 1129,-300 1288,-257 1469,-171 1538,-137"/>
<polygon style="fill:midnightblue;stroke:midnightblue;" points="1539.96,-139.916 1547,-132 1536.56,-133.797 1539.96,-139.916"/>
</g>
<!-- Node27&#45;&gt;Node6 -->
<g id="edge142" class="edge"><title>Node27&#45;&gt;Node6</title>
<path style="fill:none;stroke:midnightblue;" d="M1583,-112C1602,-98 1630,-74 1613,-56 1594,-35 1167,-16 1048,-11"/>
<polygon style="fill:midnightblue;stroke:midnightblue;" points="1048,-7.5001 1038,-11 1048,-14.5001 1048,-7.5001"/>
</g>
<!-- Node27&#45;&gt;Node11 -->
<g id="edge146" class="edge"><title>Node27&#45;&gt;Node11</title>
<path style="fill:none;stroke:midnightblue;" d="M1503,-116C1486,-115 1468,-113 1452,-112 1242,-95 995,-78 880,-71"/>
<polygon style="fill:midnightblue;stroke:midnightblue;" points="880.299,-67.5125 870,-70 879.602,-74.4778 880.299,-67.5125"/>
</g>
<!-- Node27&#45;&gt;Node20 -->
<g id="edge140" class="edge"><title>Node27&#45;&gt;Node20</title>
<path style="fill:none;stroke:midnightblue;" d="M1567,-112C1567,-105 1567,-95 1567,-86"/>
<polygon style="fill:midnightblue;stroke:midnightblue;" points="1570.5,-86 1567,-76 1563.5,-86 1570.5,-86"/>
</g>
<!-- Node27&#45;&gt;Node25 -->
<g id="edge148" class="edge"><title>Node27&#45;&gt;Node25</title>
<path style="fill:none;stroke:midnightblue;" d="M1503,-114C1420,-103 1280,-85 1198,-74"/>
<polygon style="fill:midnightblue;stroke:midnightblue;" points="1198.3,-70.5125 1188,-73 1197.6,-77.4778 1198.3,-70.5125"/>
</g>
<!-- Node28 -->
<g id="node97" class="node"><title>Node28</title>
<polygon style="fill:white;stroke:#bfbfbf;" points="1660,-56 1660,-76 1774,-76 1774,-56 1660,-56"/>
<text text-anchor="middle" x="1717" y="-63" style="font-family:Arial;font-size:10.00;">boost/lexical_cast.hpp</text>
</g>
<!-- Node27&#45;&gt;Node28 -->
<g id="edge138" class="edge"><title>Node27&#45;&gt;Node28</title>
<path style="fill:none;stroke:midnightblue;" d="M1594,-112C1618,-103 1654,-90 1680,-80"/>
<polygon style="fill:midnightblue;stroke:midnightblue;" points="1682.02,-82.9636 1690,-76 1679.42,-76.4643 1682.02,-82.9636"/>
</g>
<!-- Node29 -->
<g id="node101" class="node"><title>Node29</title>
<polygon style="fill:white;stroke:#bfbfbf;" points="1792,-56 1792,-76 1846,-76 1846,-56 1792,-56"/>
<text text-anchor="middle" x="1819" y="-63" style="font-family:Arial;font-size:10.00;">iostream</text>
</g>
<!-- Node27&#45;&gt;Node29 -->
<g id="edge144" class="edge"><title>Node27&#45;&gt;Node29</title>
<path style="fill:none;stroke:midnightblue;" d="M1618,-112C1659,-103 1719,-91 1782,-76"/>
<polygon style="fill:midnightblue;stroke:midnightblue;" points="1782.88,-79.3933 1792,-74 1781.51,-72.5292 1782.88,-79.3933"/>
</g>
</g>
</svg>
