<?xml version="1.0" encoding="UTF-8" standalone="no"?>
<!DOCTYPE svg PUBLIC "-//W3C//DTD SVG 1.0//EN"
 "http://www.w3.org/TR/2001/REC-SVG-20010904/DTD/svg10.dtd" [
 <!ATTLIST svg xmlns:xlink CDATA #FIXED "http://www.w3.org/1999/xlink">
]>
<!-- Generated by Graphviz version 2.20.2 (Tue Mar &#160;2 19:03:41 UTC 2010)
     For user: (jenkins)  -->
<!-- Title: G Pages: 1 -->
<svg width="1800pt" height="196pt"
 viewBox="0.00 0.00 1800.00 196.00" xmlns="http://www.w3.org/2000/svg" xmlns:xlink="http://www.w3.org/1999/xlink">
<g id="graph0" class="graph" transform="scale(1 1) rotate(0) translate(4 192)">
<title>G</title>
<polygon style="fill:white;stroke:white;" points="-4,4 -4,-192 1796,-192 1796,4 -4,4"/>
<!-- Node1 -->
<g id="node1" class="node"><title>Node1</title>
<polygon style="fill:#bfbfbf;stroke:black;" points="1059,-168 1059,-188 1284,-188 1284,-168 1059,-168"/>
<text text-anchor="middle" x="1171" y="-175" style="font-family:Arial;font-size:10.00;">ltr/feature_converters/feature_converter_learner.h</text>
</g>
<!-- Node2 -->
<g id="node3" class="node"><title>Node2</title>
<polygon style="fill:white;stroke:#bfbfbf;" points="0,-56 0,-76 42,-76 42,-56 0,-56"/>
<text text-anchor="middle" x="21" y="-63" style="font-family:Arial;font-size:10.00;">vector</text>
</g>
<!-- Node1&#45;&gt;Node2 -->
<g id="edge2" class="edge"><title>Node1&#45;&gt;Node2</title>
<path style="fill:none;stroke:midnightblue;" d="M1059,-176C900,-173 601,-163 348,-132 218,-115 184,-109 52,-76"/>
<polygon style="fill:midnightblue;stroke:midnightblue;" points="52.584,-72.5212 42,-73 50.5725,-79.2259 52.584,-72.5212"/>
</g>
<!-- Node3 -->
<g id="node5" class="node"><title>Node3</title>
<polygon style="fill:white;stroke:#bfbfbf;" points="60,-56 60,-76 155,-76 155,-56 60,-56"/>
<text text-anchor="middle" x="107" y="-63" style="font-family:Arial;font-size:10.00;">ltr/data/data_set.h</text>
</g>
<!-- Node1&#45;&gt;Node3 -->
<g id="edge4" class="edge"><title>Node1&#45;&gt;Node3</title>
<path style="fill:none;stroke:midnightblue;" d="M1059,-174C921,-169 679,-157 472,-132 362,-118 236,-93 164,-78"/>
<polygon style="fill:midnightblue;stroke:midnightblue;" points="164.492,-74.5292 154,-76 163.119,-81.3933 164.492,-74.5292"/>
</g>
<!-- Node4 -->
<g id="node7" class="node"><title>Node4</title>
<a xlink:href="feature__converter_8h.html" target="_top" xlink:title="ltr/feature_converters/feature_converter.h">
<polygon style="fill:white;stroke:black;" points="481,-112 481,-132 671,-132 671,-112 481,-112"/>
<text text-anchor="middle" x="576" y="-119" style="font-family:Arial;font-size:10.00;">ltr/feature_converters/feature_converter.h</text>
</a>
</g>
<!-- Node1&#45;&gt;Node4 -->
<g id="edge6" class="edge"><title>Node1&#45;&gt;Node4</title>
<path style="fill:none;stroke:midnightblue;" d="M1065,-168C957,-158 789,-142 681,-132"/>
<polygon style="fill:midnightblue;stroke:midnightblue;" points="681.299,-128.512 671,-131 680.602,-135.478 681.299,-128.512"/>
</g>
<!-- Node10 -->
<g id="node21" class="node"><title>Node10</title>
<polygon style="fill:white;stroke:#bfbfbf;" points="1044,-56 1044,-76 1186,-76 1186,-56 1044,-56"/>
<text text-anchor="middle" x="1115" y="-63" style="font-family:Arial;font-size:10.00;">ltr/interfaces/parameterized.h</text>
</g>
<!-- Node1&#45;&gt;Node10 -->
<g id="edge44" class="edge"><title>Node1&#45;&gt;Node10</title>
<path style="fill:none;stroke:midnightblue;" d="M1166,-168C1156,-149 1137,-109 1125,-85"/>
<polygon style="fill:midnightblue;stroke:midnightblue;" points="1127.92,-83.0418 1120,-76 1121.8,-86.4414 1127.92,-83.0418"/>
</g>
<!-- Node15 -->
<g id="node32" class="node"><title>Node15</title>
<polygon style="fill:white;stroke:#bfbfbf;" points="963,-0 963,-20 1070,-20 1070,-0 963,-0"/>
<text text-anchor="middle" x="1016" y="-7" style="font-family:Arial;font-size:10.00;">ltr/utility/shared_ptr.h</text>
</g>
<!-- Node1&#45;&gt;Node15 -->
<g id="edge50" class="edge"><title>Node1&#45;&gt;Node15</title>
<path style="fill:none;stroke:midnightblue;" d="M1178,-168C1192,-145 1221,-90 1195,-56 1180,-37 1125,-25 1080,-18"/>
<polygon style="fill:midnightblue;stroke:midnightblue;" points="1080.3,-14.5125 1070,-17 1079.6,-21.4778 1080.3,-14.5125"/>
</g>
<!-- Node18 -->
<g id="node41" class="node"><title>Node18</title>
<polygon style="fill:white;stroke:#bfbfbf;" points="1226,-112 1226,-132 1343,-132 1343,-112 1226,-112"/>
<text text-anchor="middle" x="1284" y="-119" style="font-family:Arial;font-size:10.00;">ltr/interfaces/printable.h</text>
</g>
<!-- Node1&#45;&gt;Node18 -->
<g id="edge46" class="edge"><title>Node1&#45;&gt;Node18</title>
<path style="fill:none;stroke:midnightblue;" d="M1191,-168C1209,-159 1235,-146 1255,-136"/>
<polygon style="fill:midnightblue;stroke:midnightblue;" points="1256.28,-139.26 1264,-132 1253.44,-132.863 1256.28,-139.26"/>
</g>
<!-- Node19 -->
<g id="node43" class="node"><title>Node19</title>
<polygon style="fill:white;stroke:#bfbfbf;" points="1360,-112 1360,-132 1585,-132 1585,-112 1360,-112"/>
<text text-anchor="middle" x="1472" y="-119" style="font-family:Arial;font-size:10.00;">ltr/parameters_container/parameters_container.h</text>
</g>
<!-- Node1&#45;&gt;Node19 -->
<g id="edge48" class="edge"><title>Node1&#45;&gt;Node19</title>
<path style="fill:none;stroke:midnightblue;" d="M1225,-168C1276,-159 1354,-144 1408,-134"/>
<polygon style="fill:midnightblue;stroke:midnightblue;" points="1408.88,-137.393 1418,-132 1407.51,-130.529 1408.88,-137.393"/>
</g>
<!-- Node20 -->
<g id="node46" class="node"><title>Node20</title>
<polygon style="fill:white;stroke:#bfbfbf;" points="1602,-112 1602,-132 1792,-132 1792,-112 1602,-112"/>
<text text-anchor="middle" x="1697" y="-119" style="font-family:Arial;font-size:10.00;">ltr/feature_converters/feature_converter.h</text>
</g>
<!-- Node1&#45;&gt;Node20 -->
<g id="edge52" class="edge"><title>Node1&#45;&gt;Node20</title>
<path style="fill:none;stroke:midnightblue;" d="M1265,-168C1357,-158 1498,-143 1593,-133"/>
<polygon style="fill:midnightblue;stroke:midnightblue;" points="1593.4,-136.478 1603,-132 1592.7,-129.512 1593.4,-136.478"/>
</g>
<!-- Node4&#45;&gt;Node2 -->
<g id="edge8" class="edge"><title>Node4&#45;&gt;Node2</title>
<path style="fill:none;stroke:midnightblue;" d="M481,-116C357,-108 146,-93 52,-76"/>
<polygon style="fill:midnightblue;stroke:midnightblue;" points="52.4922,-72.5292 42,-74 51.1194,-79.3933 52.4922,-72.5292"/>
</g>
<!-- Node4&#45;&gt;Node3 -->
<g id="edge14" class="edge"><title>Node4&#45;&gt;Node3</title>
<path style="fill:none;stroke:midnightblue;" d="M481,-112C398,-104 275,-90 168,-76 167,-76 166,-76 165,-75"/>
<polygon style="fill:midnightblue;stroke:midnightblue;" points="165.299,-71.5125 155,-74 164.602,-78.4778 165.299,-71.5125"/>
</g>
<!-- Node5 -->
<g id="node10" class="node"><title>Node5</title>
<polygon style="fill:white;stroke:#bfbfbf;" points="255,-0 255,-20 295,-20 295,-0 255,-0"/>
<text text-anchor="middle" x="275" y="-7" style="font-family:Arial;font-size:10.00;">string</text>
</g>
<!-- Node4&#45;&gt;Node5 -->
<g id="edge10" class="edge"><title>Node4&#45;&gt;Node5</title>
<path style="fill:none;stroke:midnightblue;" d="M481,-117C376,-110 219,-96 201,-76 182,-54 217,-34 246,-21"/>
<polygon style="fill:midnightblue;stroke:midnightblue;" points="247.283,-24.2598 255,-17 244.44,-17.8631 247.283,-24.2598"/>
</g>
<!-- Node6 -->
<g id="node12" class="node"><title>Node6</title>
<polygon style="fill:white;stroke:#bfbfbf;" points="210,-56 210,-76 269,-76 269,-56 210,-56"/>
<text text-anchor="middle" x="239" y="-63" style="font-family:Arial;font-size:10.00;">stdexcept</text>
</g>
<!-- Node4&#45;&gt;Node6 -->
<g id="edge12" class="edge"><title>Node4&#45;&gt;Node6</title>
<path style="fill:none;stroke:midnightblue;" d="M497,-112C439,-104 358,-92 279,-76"/>
<polygon style="fill:midnightblue;stroke:midnightblue;" points="279.492,-72.5292 269,-74 278.119,-79.3933 279.492,-72.5292"/>
</g>
<!-- Node7 -->
<g id="node15" class="node"><title>Node7</title>
<polygon style="fill:white;stroke:#bfbfbf;" points="286,-56 286,-76 393,-76 393,-56 286,-56"/>
<text text-anchor="middle" x="339" y="-63" style="font-family:Arial;font-size:10.00;">ltr/data/feature_info.h</text>
</g>
<!-- Node4&#45;&gt;Node7 -->
<g id="edge16" class="edge"><title>Node4&#45;&gt;Node7</title>
<path style="fill:none;stroke:midnightblue;" d="M534,-112C493,-103 434,-88 391,-78"/>
<polygon style="fill:midnightblue;stroke:midnightblue;" points="391.492,-74.5292 381,-76 390.119,-81.3933 391.492,-74.5292"/>
</g>
<!-- Node8 -->
<g id="node17" class="node"><title>Node8</title>
<polygon style="fill:white;stroke:#bfbfbf;" points="410,-56 410,-76 494,-76 494,-56 410,-56"/>
<text text-anchor="middle" x="452" y="-63" style="font-family:Arial;font-size:10.00;">ltr/data/object.h</text>
</g>
<!-- Node4&#45;&gt;Node8 -->
<g id="edge18" class="edge"><title>Node4&#45;&gt;Node8</title>
<path style="fill:none;stroke:midnightblue;" d="M554,-112C534,-103 506,-90 483,-80"/>
<polygon style="fill:midnightblue;stroke:midnightblue;" points="484.56,-76.8631 474,-76 481.717,-83.2598 484.56,-76.8631"/>
</g>
<!-- Node9 -->
<g id="node19" class="node"><title>Node9</title>
<polygon style="fill:white;stroke:#bfbfbf;" points="658,-56 658,-76 805,-76 805,-56 658,-56"/>
<text text-anchor="middle" x="731" y="-63" style="font-family:Arial;font-size:10.00;">ltr/data/per_object_accessor.h</text>
</g>
<!-- Node4&#45;&gt;Node9 -->
<g id="edge20" class="edge"><title>Node4&#45;&gt;Node9</title>
<path style="fill:none;stroke:midnightblue;" d="M604,-112C629,-103 666,-89 693,-79"/>
<polygon style="fill:midnightblue;stroke:midnightblue;" points="694.427,-82.2259 703,-76 692.416,-75.5212 694.427,-82.2259"/>
</g>
<!-- Node4&#45;&gt;Node10 -->
<g id="edge22" class="edge"><title>Node4&#45;&gt;Node10</title>
<path style="fill:none;stroke:midnightblue;" d="M671,-113C763,-104 907,-90 1030,-76 1031,-76 1033,-75 1034,-75"/>
<polygon style="fill:midnightblue;stroke:midnightblue;" points="1034.4,-78.4778 1044,-74 1033.7,-71.5125 1034.4,-78.4778"/>
</g>
<!-- Node11 -->
<g id="node23" class="node"><title>Node11</title>
<a xlink:href="serializable_8h.html" target="_top" xlink:title="ltr/interfaces/serializable.h">
<polygon style="fill:white;stroke:black;" points="512,-56 512,-76 641,-76 641,-56 512,-56"/>
<text text-anchor="middle" x="576" y="-63" style="font-family:Arial;font-size:10.00;">ltr/interfaces/serializable.h</text>
</a>
</g>
<!-- Node4&#45;&gt;Node11 -->
<g id="edge24" class="edge"><title>Node4&#45;&gt;Node11</title>
<path style="fill:none;stroke:midnightblue;" d="M576,-112C576,-105 576,-95 576,-86"/>
<polygon style="fill:midnightblue;stroke:midnightblue;" points="579.5,-86 576,-76 572.5,-86 579.5,-86"/>
</g>
<!-- Node4&#45;&gt;Node15 -->
<g id="edge40" class="edge"><title>Node4&#45;&gt;Node15</title>
<path style="fill:none;stroke:midnightblue;" d="M671,-115C781,-107 949,-91 974,-76 990,-65 1002,-45 1008,-30"/>
<polygon style="fill:midnightblue;stroke:midnightblue;" points="1011.54,-30.5847 1012,-20 1005.04,-27.9849 1011.54,-30.5847"/>
</g>
<!-- Node16 -->
<g id="node34" class="node"><title>Node16</title>
<polygon style="fill:white;stroke:#bfbfbf;" points="770,-0 770,-20 878,-20 878,-0 770,-0"/>
<text text-anchor="middle" x="824" y="-7" style="font-family:Arial;font-size:10.00;">ltr/interfaces/aliaser.h</text>
</g>
<!-- Node4&#45;&gt;Node16 -->
<g id="edge38" class="edge"><title>Node4&#45;&gt;Node16</title>
<path style="fill:none;stroke:midnightblue;" d="M671,-117C778,-110 940,-97 959,-76 985,-47 935,-29 888,-20"/>
<polygon style="fill:midnightblue;stroke:midnightblue;" points="888.492,-16.5292 878,-18 887.119,-23.3933 888.492,-16.5292"/>
</g>
<!-- Node17 -->
<g id="node38" class="node"><title>Node17</title>
<polygon style="fill:white;stroke:#bfbfbf;" points="822,-56 822,-76 951,-76 951,-56 822,-56"/>
<text text-anchor="middle" x="886" y="-63" style="font-family:Arial;font-size:10.00;">ltr/interfaces/serializable.h</text>
</g>
<!-- Node4&#45;&gt;Node17 -->
<g id="edge42" class="edge"><title>Node4&#45;&gt;Node17</title>
<path style="fill:none;stroke:midnightblue;" d="M631,-112C685,-103 765,-88 821,-78"/>
<polygon style="fill:midnightblue;stroke:midnightblue;" points="821.881,-81.3933 831,-76 820.508,-74.5292 821.881,-81.3933"/>
</g>
<!-- Node11&#45;&gt;Node5 -->
<g id="edge30" class="edge"><title>Node11&#45;&gt;Node5</title>
<path style="fill:none;stroke:midnightblue;" d="M522,-56C459,-44 356,-25 305,-16"/>
<polygon style="fill:midnightblue;stroke:midnightblue;" points="305.492,-12.5292 295,-14 304.119,-19.3933 305.492,-12.5292"/>
</g>
<!-- Node12 -->
<g id="node25" class="node"><title>Node12</title>
<polygon style="fill:white;stroke:#bfbfbf;" points="407,-0 407,-20 521,-20 521,-0 407,-0"/>
<text text-anchor="middle" x="464" y="-7" style="font-family:Arial;font-size:10.00;">boost/lexical_cast.hpp</text>
</g>
<!-- Node11&#45;&gt;Node12 -->
<g id="edge26" class="edge"><title>Node11&#45;&gt;Node12</title>
<path style="fill:none;stroke:midnightblue;" d="M556,-56C539,-47 513,-34 493,-24"/>
<polygon style="fill:midnightblue;stroke:midnightblue;" points="494.56,-20.8631 484,-20 491.717,-27.2598 494.56,-20.8631"/>
</g>
<!-- Node13 -->
<g id="node27" class="node"><title>Node13</title>
<polygon style="fill:white;stroke:#bfbfbf;" points="539,-0 539,-20 613,-20 613,-0 539,-0"/>
<text text-anchor="middle" x="576" y="-7" style="font-family:Arial;font-size:10.00;">logog/logog.h</text>
</g>
<!-- Node11&#45;&gt;Node13 -->
<g id="edge28" class="edge"><title>Node11&#45;&gt;Node13</title>
<path style="fill:none;stroke:midnightblue;" d="M576,-56C576,-49 576,-39 576,-30"/>
<polygon style="fill:midnightblue;stroke:midnightblue;" points="579.5,-30 576,-20 572.5,-30 579.5,-30"/>
</g>
<!-- Node14 -->
<g id="node30" class="node"><title>Node14</title>
<polygon style="fill:white;stroke:#bfbfbf;" points="631,-0 631,-20 685,-20 685,-0 631,-0"/>
<text text-anchor="middle" x="658" y="-7" style="font-family:Arial;font-size:10.00;">iostream</text>
</g>
<!-- Node11&#45;&gt;Node14 -->
<g id="edge32" class="edge"><title>Node11&#45;&gt;Node14</title>
<path style="fill:none;stroke:midnightblue;" d="M591,-56C603,-48 620,-35 635,-26"/>
<polygon style="fill:midnightblue;stroke:midnightblue;" points="637.1,-28.8 643,-20 632.9,-23.2 637.1,-28.8"/>
</g>
<!-- Node11&#45;&gt;Node15 -->
<g id="edge34" class="edge"><title>Node11&#45;&gt;Node15</title>
<path style="fill:none;stroke:midnightblue;" d="M641,-57C644,-57 646,-56 649,-56 756,-42 879,-26 953,-17"/>
<polygon style="fill:midnightblue;stroke:midnightblue;" points="953.398,-20.4778 963,-16 952.701,-13.5125 953.398,-20.4778"/>
</g>
<!-- Node11&#45;&gt;Node16 -->
<g id="edge36" class="edge"><title>Node11&#45;&gt;Node16</title>
<path style="fill:none;stroke:midnightblue;" d="M620,-56C662,-47 725,-32 770,-22"/>
<polygon style="fill:midnightblue;stroke:midnightblue;" points="770.881,-25.3933 780,-20 769.508,-18.5292 770.881,-25.3933"/>
</g>
</g>
</svg>
