<?xml version="1.0" encoding="UTF-8" standalone="no"?>
<!DOCTYPE svg PUBLIC "-//W3C//DTD SVG 1.0//EN"
 "http://www.w3.org/TR/2001/REC-SVG-20010904/DTD/svg10.dtd" [
 <!ATTLIST svg xmlns:xlink CDATA #FIXED "http://www.w3.org/1999/xlink">
]>
<!-- Generated by Graphviz version 2.20.2 (Tue Mar &#160;2 19:03:41 UTC 2010)
     For user: (jenkins)  -->
<!-- Title: G Pages: 1 -->
<svg width="232pt" height="196pt"
 viewBox="0.00 0.00 232.00 196.00" xmlns="http://www.w3.org/2000/svg" xmlns:xlink="http://www.w3.org/1999/xlink">
<g id="graph0" class="graph" transform="scale(1 1) rotate(0) translate(4 192)">
<title>G</title>
<polygon style="fill:white;stroke:white;" points="-4,4 -4,-192 228,-192 228,4 -4,4"/>
<!-- Node1 -->
<g id="node1" class="node"><title>Node1</title>
<polygon style="fill:#bfbfbf;stroke:black;" points="0,-168 0,-188 225,-188 225,-168 0,-168"/>
<text text-anchor="middle" x="112" y="-175" style="font-family:Arial;font-size:10.00;">ltr/feature_converters/feature_converter_learner.h</text>
</g>
<!-- Node2 -->
<g id="node3" class="node"><title>Node2</title>
<a xlink:href="learner_8h.html" target="_top" xlink:title="ltr/learners/learner.h">
<polygon style="fill:white;stroke:black;" points="61,-112 61,-132 163,-132 163,-112 61,-112"/>
<text text-anchor="middle" x="112" y="-119" style="font-family:Arial;font-size:10.00;">ltr/learners/learner.h</text>
</a>
</g>
<!-- Node1&#45;&gt;Node2 -->
<g id="edge2" class="edge"><title>Node1&#45;&gt;Node2</title>
<path style="fill:none;stroke:midnightblue;" d="M112,-158C112,-149 112,-140 112,-132"/>
<polygon style="fill:midnightblue;stroke:midnightblue;" points="108.5,-158 112,-168 115.5,-158 108.5,-158"/>
</g>
<!-- Node3 -->
<g id="node5" class="node"><title>Node3</title>
<a xlink:href="crossvalidation_8h.html" target="_top" xlink:title="ltr/crossvalidation/crossvalidation.h">
<polygon style="fill:white;stroke:black;" points="29,-56 29,-76 195,-76 195,-56 29,-56"/>
<text text-anchor="middle" x="112" y="-63" style="font-family:Arial;font-size:10.00;">ltr/crossvalidation/crossvalidation.h</text>
</a>
</g>
<!-- Node2&#45;&gt;Node3 -->
<g id="edge4" class="edge"><title>Node2&#45;&gt;Node3</title>
<path style="fill:none;stroke:midnightblue;" d="M112,-102C112,-93 112,-84 112,-76"/>
<polygon style="fill:midnightblue;stroke:midnightblue;" points="108.5,-102 112,-112 115.5,-102 108.5,-102"/>
</g>
<!-- Node4 -->
<g id="node7" class="node"><title>Node4</title>
<a xlink:href="crossvalidation__unittest_8cc.html" target="_top" xlink:title="ltr/crossvalidation/crossvalidation_unittest.cc">
<polygon style="fill:white;stroke:black;" points="8,-0 8,-20 217,-20 217,-0 8,-0"/>
<text text-anchor="middle" x="112" y="-7" style="font-family:Arial;font-size:10.00;">ltr/crossvalidation/crossvalidation_unittest.cc</text>
</a>
</g>
<!-- Node3&#45;&gt;Node4 -->
<g id="edge6" class="edge"><title>Node3&#45;&gt;Node4</title>
<path style="fill:none;stroke:midnightblue;" d="M112,-46C112,-37 112,-28 112,-20"/>
<polygon style="fill:midnightblue;stroke:midnightblue;" points="108.5,-46 112,-56 115.5,-46 108.5,-46"/>
</g>
</g>
</svg>
