<?xml version="1.0" encoding="UTF-8" standalone="no"?>
<!DOCTYPE svg PUBLIC "-//W3C//DTD SVG 1.0//EN"
 "http://www.w3.org/TR/2001/REC-SVG-20010904/DTD/svg10.dtd" [
 <!ATTLIST svg xmlns:xlink CDATA #FIXED "http://www.w3.org/1999/xlink">
]>
<!-- Generated by Graphviz version 2.20.2 (Tue Mar &#160;2 19:03:41 UTC 2010)
     For user: (jenkins)  -->
<!-- Title: G Pages: 1 -->
<svg width="1674pt" height="364pt"
 viewBox="0.00 0.00 1674.00 364.00" xmlns="http://www.w3.org/2000/svg" xmlns:xlink="http://www.w3.org/1999/xlink">
<g id="graph0" class="graph" transform="scale(1 1) rotate(0) translate(4 360)">
<title>G</title>
<polygon style="fill:white;stroke:white;" points="-4,4 -4,-360 1670,-360 1670,4 -4,4"/>
<!-- Node1 -->
<g id="node1" class="node"><title>Node1</title>
<polygon style="fill:#bfbfbf;stroke:black;" points="620,-336 620,-356 810,-356 810,-336 620,-336"/>
<text text-anchor="middle" x="715" y="-343" style="font-family:Arial;font-size:10.00;">ltr/feature_converters/feature_converter.h</text>
</g>
<!-- Node2 -->
<g id="node3" class="node"><title>Node2</title>
<polygon style="fill:white;stroke:#bfbfbf;" points="108,-56 108,-76 150,-76 150,-56 108,-56"/>
<text text-anchor="middle" x="129" y="-63" style="font-family:Arial;font-size:10.00;">vector</text>
</g>
<!-- Node1&#45;&gt;Node2 -->
<g id="edge2" class="edge"><title>Node1&#45;&gt;Node2</title>
<path style="fill:none;stroke:midnightblue;" d="M620,-341C425,-329 0,-296 0,-234 0,-234 0,-234 0,-178 0,-126 60,-93 98,-77"/>
<polygon style="fill:midnightblue;stroke:midnightblue;" points="100.015,-79.9636 108,-73 97.4153,-73.4643 100.015,-79.9636"/>
</g>
<!-- Node3 -->
<g id="node5" class="node"><title>Node3</title>
<polygon style="fill:white;stroke:#bfbfbf;" points="652,-0 652,-20 692,-20 692,-0 652,-0"/>
<text text-anchor="middle" x="672" y="-7" style="font-family:Arial;font-size:10.00;">string</text>
</g>
<!-- Node1&#45;&gt;Node3 -->
<g id="edge4" class="edge"><title>Node1&#45;&gt;Node3</title>
<path style="fill:none;stroke:midnightblue;" d="M733,-336C778,-310 885,-239 851,-168 839,-144 824,-148 805,-132 762,-96 714,-51 689,-27"/>
<polygon style="fill:midnightblue;stroke:midnightblue;" points="691.546,-24.5962 682,-20 686.596,-29.546 691.546,-24.5962"/>
</g>
<!-- Node4 -->
<g id="node7" class="node"><title>Node4</title>
<polygon style="fill:white;stroke:#bfbfbf;" points="567,-56 567,-76 626,-76 626,-56 567,-56"/>
<text text-anchor="middle" x="596" y="-63" style="font-family:Arial;font-size:10.00;">stdexcept</text>
</g>
<!-- Node1&#45;&gt;Node4 -->
<g id="edge6" class="edge"><title>Node1&#45;&gt;Node4</title>
<path style="fill:none;stroke:midnightblue;" d="M701,-336C678,-318 634,-279 634,-234 634,-234 634,-234 634,-178 634,-143 618,-106 607,-85"/>
<polygon style="fill:midnightblue;stroke:midnightblue;" points="609.916,-83.0418 602,-76 603.797,-86.4414 609.916,-83.0418"/>
</g>
<!-- Node5 -->
<g id="node9" class="node"><title>Node5</title>
<a xlink:href="data__set_8h.html" target="_top" xlink:title="ltr/data/data_set.h">
<polygon style="fill:white;stroke:black;" points="347,-280 347,-300 442,-300 442,-280 347,-280"/>
<text text-anchor="middle" x="394" y="-287" style="font-family:Arial;font-size:10.00;">ltr/data/data_set.h</text>
</a>
</g>
<!-- Node1&#45;&gt;Node5 -->
<g id="edge8" class="edge"><title>Node1&#45;&gt;Node5</title>
<path style="fill:none;stroke:midnightblue;" d="M658,-336C599,-326 510,-311 452,-300"/>
<polygon style="fill:midnightblue;stroke:midnightblue;" points="452.492,-296.529 442,-298 451.119,-303.393 452.492,-296.529"/>
</g>
<!-- Node7 -->
<g id="node16" class="node"><title>Node7</title>
<a xlink:href="object_8h.html" target="_top" xlink:title="ltr/data/object.h">
<polygon style="fill:white;stroke:black;" points="218,-112 218,-132 302,-132 302,-112 218,-112"/>
<text text-anchor="middle" x="260" y="-119" style="font-family:Arial;font-size:10.00;">ltr/data/object.h</text>
</a>
</g>
<!-- Node1&#45;&gt;Node7 -->
<g id="edge124" class="edge"><title>Node1&#45;&gt;Node7</title>
<path style="fill:none;stroke:midnightblue;" d="M620,-339C525,-332 388,-318 338,-300 295,-284 276,-282 253,-244 233,-212 243,-167 252,-142"/>
<polygon style="fill:midnightblue;stroke:midnightblue;" points="255.536,-142.585 256,-132 249.036,-139.985 255.536,-142.585"/>
</g>
<!-- Node11 -->
<g id="node29" class="node"><title>Node11</title>
<a xlink:href="shared__ptr_8h.html" target="_top" xlink:title="ltr/utility/shared_ptr.h">
<polygon style="fill:white;stroke:black;" points="1100,-56 1100,-76 1207,-76 1207,-56 1100,-56"/>
<text text-anchor="middle" x="1153" y="-63" style="font-family:Arial;font-size:10.00;">ltr/utility/shared_ptr.h</text>
</a>
</g>
<!-- Node1&#45;&gt;Node11 -->
<g id="edge146" class="edge"><title>Node1&#45;&gt;Node11</title>
<path style="fill:none;stroke:midnightblue;" d="M809,-336C964,-318 1256,-279 1256,-234 1256,-234 1256,-234 1256,-178 1256,-134 1212,-100 1182,-81"/>
<polygon style="fill:midnightblue;stroke:midnightblue;" points="1183.44,-77.7969 1173,-76 1180.04,-83.916 1183.44,-77.7969"/>
</g>
<!-- Node17 -->
<g id="node53" class="node"><title>Node17</title>
<a xlink:href="feature__info_8h.html" target="_top" xlink:title="ltr/data/feature_info.h">
<polygon style="fill:white;stroke:black;" points="662,-224 662,-244 769,-244 769,-224 662,-224"/>
<text text-anchor="middle" x="715" y="-231" style="font-family:Arial;font-size:10.00;">ltr/data/feature_info.h</text>
</a>
</g>
<!-- Node1&#45;&gt;Node17 -->
<g id="edge122" class="edge"><title>Node1&#45;&gt;Node17</title>
<path style="fill:none;stroke:midnightblue;" d="M715,-336C715,-317 715,-278 715,-254"/>
<polygon style="fill:midnightblue;stroke:midnightblue;" points="718.5,-254 715,-244 711.5,-254 718.5,-254"/>
</g>
<!-- Node18 -->
<g id="node58" class="node"><title>Node18</title>
<a xlink:href="parameterized_8h.html" target="_top" xlink:title="ltr/interfaces/parameterized.h">
<polygon style="fill:white;stroke:black;" points="700,-168 700,-188 842,-188 842,-168 700,-168"/>
<text text-anchor="middle" x="771" y="-175" style="font-family:Arial;font-size:10.00;">ltr/interfaces/parameterized.h</text>
</a>
</g>
<!-- Node1&#45;&gt;Node18 -->
<g id="edge128" class="edge"><title>Node1&#45;&gt;Node18</title>
<path style="fill:none;stroke:midnightblue;" d="M724,-336C738,-319 766,-281 777,-244 781,-229 779,-211 776,-198"/>
<polygon style="fill:midnightblue;stroke:midnightblue;" points="779.393,-197.119 774,-188 772.529,-198.492 779.393,-197.119"/>
</g>
<!-- Node24 -->
<g id="node77" class="node"><title>Node24</title>
<a xlink:href="per__object__accessor_8h.html" target="_top" xlink:title="ltr/data/per_object_accessor.h">
<polygon style="fill:white;stroke:black;" points="460,-224 460,-244 607,-244 607,-224 460,-224"/>
<text text-anchor="middle" x="533" y="-231" style="font-family:Arial;font-size:10.00;">ltr/data/per_object_accessor.h</text>
</a>
</g>
<!-- Node1&#45;&gt;Node24 -->
<g id="edge126" class="edge"><title>Node1&#45;&gt;Node24</title>
<path style="fill:none;stroke:midnightblue;" d="M691,-336C671,-327 643,-314 620,-300 595,-285 570,-265 553,-251"/>
<polygon style="fill:midnightblue;stroke:midnightblue;" points="554.831,-247.951 545,-244 550.221,-253.219 554.831,-247.951"/>
</g>
<!-- Node25 -->
<g id="node84" class="node"><title>Node25</title>
<a xlink:href="aliaser_8h.html" target="_top" xlink:title="ltr/interfaces/aliaser.h">
<polygon style="fill:white;stroke:black;" points="1316,-56 1316,-76 1424,-76 1424,-56 1316,-56"/>
<text text-anchor="middle" x="1370" y="-63" style="font-family:Arial;font-size:10.00;">ltr/interfaces/aliaser.h</text>
</a>
</g>
<!-- Node1&#45;&gt;Node25 -->
<g id="edge144" class="edge"><title>Node1&#45;&gt;Node25</title>
<path style="fill:none;stroke:midnightblue;" d="M810,-342C894,-337 1017,-325 1122,-300 1201,-280 1294,-315 1294,-234 1294,-234 1294,-234 1294,-178 1294,-147 1296,-137 1313,-112 1321,-99 1333,-89 1343,-82"/>
<polygon style="fill:midnightblue;stroke:midnightblue;" points="1345.62,-84.4592 1352,-76 1341.74,-78.6349 1345.62,-84.4592"/>
</g>
<!-- Node26 -->
<g id="node91" class="node"><title>Node26</title>
<a xlink:href="serializable_8h.html" target="_top" xlink:title="ltr/interfaces/serializable.h">
<polygon style="fill:white;stroke:black;" points="1322,-112 1322,-132 1451,-132 1451,-112 1322,-112"/>
<text text-anchor="middle" x="1386" y="-119" style="font-family:Arial;font-size:10.00;">ltr/interfaces/serializable.h</text>
</a>
</g>
<!-- Node1&#45;&gt;Node26 -->
<g id="edge130" class="edge"><title>Node1&#45;&gt;Node26</title>
<path style="fill:none;stroke:midnightblue;" d="M810,-344C968,-340 1268,-328 1308,-300 1361,-262 1378,-180 1384,-142"/>
<polygon style="fill:midnightblue;stroke:midnightblue;" points="1387.49,-142.299 1385,-132 1380.52,-141.602 1387.49,-142.299"/>
</g>
<!-- Node5&#45;&gt;Node2 -->
<g id="edge16" class="edge"><title>Node5&#45;&gt;Node2</title>
<path style="fill:none;stroke:midnightblue;" d="M347,-287C260,-281 80,-265 62,-244 19,-196 81,-118 112,-83"/>
<polygon style="fill:midnightblue;stroke:midnightblue;" points="114.404,-85.546 119,-76 109.454,-80.5962 114.404,-85.546"/>
</g>
<!-- Node5&#45;&gt;Node3 -->
<g id="edge14" class="edge"><title>Node5&#45;&gt;Node3</title>
<path style="fill:none;stroke:midnightblue;" d="M347,-283C258,-269 76,-234 76,-178 76,-178 76,-178 76,-122 76,-90 74,-74 99,-56 142,-22 529,-13 642,-10"/>
<polygon style="fill:midnightblue;stroke:midnightblue;" points="642,-13.5001 652,-10 642,-6.5001 642,-13.5001"/>
</g>
<!-- Node5&#45;&gt;Node4 -->
<g id="edge12" class="edge"><title>Node5&#45;&gt;Node4</title>
<path style="fill:none;stroke:midnightblue;" d="M401,-280C410,-266 429,-240 451,-224 481,-201 501,-214 529,-188 560,-158 580,-112 590,-86"/>
<polygon style="fill:midnightblue;stroke:midnightblue;" points="593.479,-86.584 593,-76 586.774,-84.5725 593.479,-86.584"/>
</g>
<!-- Node6 -->
<g id="node11" class="node"><title>Node6</title>
<polygon style="fill:white;stroke:#bfbfbf;" points="278,-224 278,-244 329,-244 329,-224 278,-224"/>
<text text-anchor="middle" x="303" y="-231" style="font-family:Arial;font-size:10.00;">sstream</text>
</g>
<!-- Node5&#45;&gt;Node6 -->
<g id="edge10" class="edge"><title>Node5&#45;&gt;Node6</title>
<path style="fill:none;stroke:midnightblue;" d="M378,-280C365,-272 344,-259 329,-249"/>
<polygon style="fill:midnightblue;stroke:midnightblue;" points="330.441,-245.797 320,-244 327.042,-251.916 330.441,-245.797"/>
</g>
<!-- Node5&#45;&gt;Node7 -->
<g id="edge18" class="edge"><title>Node5&#45;&gt;Node7</title>
<path style="fill:none;stroke:midnightblue;" d="M353,-280C321,-271 279,-258 269,-244 246,-214 250,-168 255,-142"/>
<polygon style="fill:midnightblue;stroke:midnightblue;" points="258.471,-142.492 257,-132 251.607,-141.119 258.471,-142.492"/>
</g>
<!-- Node15 -->
<g id="node37" class="node"><title>Node15</title>
<a xlink:href="object__list_8h.html" target="_top" xlink:title="ltr/data/object_list.h">
<polygon style="fill:white;stroke:black;" points="418,-168 418,-188 520,-188 520,-168 418,-168"/>
<text text-anchor="middle" x="469" y="-175" style="font-family:Arial;font-size:10.00;">ltr/data/object_list.h</text>
</a>
</g>
<!-- Node5&#45;&gt;Node15 -->
<g id="edge44" class="edge"><title>Node5&#45;&gt;Node15</title>
<path style="fill:none;stroke:midnightblue;" d="M396,-280C399,-266 406,-241 418,-224 426,-212 436,-203 446,-195"/>
<polygon style="fill:midnightblue;stroke:midnightblue;" points="448.779,-197.219 454,-188 444.169,-191.951 448.779,-197.219"/>
</g>
<!-- Node16 -->
<g id="node45" class="node"><title>Node16</title>
<a xlink:href="object__pair_8h.html" target="_top" xlink:title="ltr/data/object_pair.h">
<polygon style="fill:white;stroke:black;" points="296,-168 296,-188 400,-188 400,-168 296,-168"/>
<text text-anchor="middle" x="348" y="-175" style="font-family:Arial;font-size:10.00;">ltr/data/object_pair.h</text>
</a>
</g>
<!-- Node5&#45;&gt;Node16 -->
<g id="edge58" class="edge"><title>Node5&#45;&gt;Node16</title>
<path style="fill:none;stroke:midnightblue;" d="M390,-280C382,-261 366,-222 356,-197"/>
<polygon style="fill:midnightblue;stroke:midnightblue;" points="359.26,-195.717 352,-188 352.863,-198.56 359.26,-195.717"/>
</g>
<!-- Node5&#45;&gt;Node17 -->
<g id="edge72" class="edge"><title>Node5&#45;&gt;Node17</title>
<path style="fill:none;stroke:midnightblue;" d="M442,-282C498,-272 591,-256 652,-245"/>
<polygon style="fill:midnightblue;stroke:midnightblue;" points="652.881,-248.393 662,-243 651.508,-241.529 652.881,-248.393"/>
</g>
<!-- Node5&#45;&gt;Node24 -->
<g id="edge106" class="edge"><title>Node5&#45;&gt;Node24</title>
<path style="fill:none;stroke:midnightblue;" d="M419,-280C441,-271 474,-258 499,-248"/>
<polygon style="fill:midnightblue;stroke:midnightblue;" points="500.283,-251.26 508,-244 497.44,-244.863 500.283,-251.26"/>
</g>
<!-- Node5&#45;&gt;Node25 -->
<g id="edge118" class="edge"><title>Node5&#45;&gt;Node25</title>
<path style="fill:none;stroke:midnightblue;" d="M442,-287C590,-276 1038,-241 1173,-188 1227,-166 1230,-142 1280,-112 1299,-100 1321,-89 1339,-81"/>
<polygon style="fill:midnightblue;stroke:midnightblue;" points="1340.96,-83.916 1348,-76 1337.56,-77.7969 1340.96,-83.916"/>
</g>
<!-- Node7&#45;&gt;Node2 -->
<g id="edge28" class="edge"><title>Node7&#45;&gt;Node2</title>
<path style="fill:none;stroke:midnightblue;" d="M237,-112C215,-103 183,-89 159,-79"/>
<polygon style="fill:midnightblue;stroke:midnightblue;" points="160.56,-75.8631 150,-75 157.717,-82.2598 160.56,-75.8631"/>
</g>
<!-- Node7&#45;&gt;Node3 -->
<g id="edge26" class="edge"><title>Node7&#45;&gt;Node3</title>
<path style="fill:none;stroke:midnightblue;" d="M251,-112C240,-97 224,-71 239,-56 266,-26 548,-14 642,-11"/>
<polygon style="fill:midnightblue;stroke:midnightblue;" points="642,-14.5001 652,-11 642,-7.5001 642,-14.5001"/>
</g>
<!-- Node7&#45;&gt;Node4 -->
<g id="edge24" class="edge"><title>Node7&#45;&gt;Node4</title>
<path style="fill:none;stroke:midnightblue;" d="M302,-115C367,-104 493,-83 557,-73"/>
<polygon style="fill:midnightblue;stroke:midnightblue;" points="557.881,-76.3933 567,-71 556.508,-69.5292 557.881,-76.3933"/>
</g>
<!-- Node8 -->
<g id="node18" class="node"><title>Node8</title>
<polygon style="fill:white;stroke:#bfbfbf;" points="248,-56 248,-76 283,-76 283,-56 248,-56"/>
<text text-anchor="middle" x="265" y="-63" style="font-family:Arial;font-size:10.00;">map</text>
</g>
<!-- Node7&#45;&gt;Node8 -->
<g id="edge20" class="edge"><title>Node7&#45;&gt;Node8</title>
<path style="fill:none;stroke:midnightblue;" d="M261,-112C262,-105 262,-95 263,-86"/>
<polygon style="fill:midnightblue;stroke:midnightblue;" points="266.488,-86.2987 264,-76 259.522,-85.6021 266.488,-86.2987"/>
</g>
<!-- Node9 -->
<g id="node20" class="node"><title>Node9</title>
<polygon style="fill:white;stroke:#bfbfbf;" points="245,-0 245,-20 296,-20 296,-0 245,-0"/>
<text text-anchor="middle" x="270" y="-7" style="font-family:Arial;font-size:10.00;">ostream</text>
</g>
<!-- Node7&#45;&gt;Node9 -->
<g id="edge22" class="edge"><title>Node7&#45;&gt;Node9</title>
<path style="fill:none;stroke:midnightblue;" d="M241,-112C221,-100 194,-78 206,-56 212,-42 224,-33 236,-25"/>
<polygon style="fill:midnightblue;stroke:midnightblue;" points="237.958,-27.916 245,-20 234.559,-21.7969 237.958,-27.916"/>
</g>
<!-- Node10 -->
<g id="node25" class="node"><title>Node10</title>
<a xlink:href="printable_8h.html" target="_top" xlink:title="ltr/interfaces/printable.h">
<polygon style="fill:white;stroke:black;" points="300,-56 300,-76 417,-76 417,-56 300,-56"/>
<text text-anchor="middle" x="358" y="-63" style="font-family:Arial;font-size:10.00;">ltr/interfaces/printable.h</text>
</a>
</g>
<!-- Node7&#45;&gt;Node10 -->
<g id="edge30" class="edge"><title>Node7&#45;&gt;Node10</title>
<path style="fill:none;stroke:midnightblue;" d="M278,-112C293,-104 315,-91 331,-81"/>
<polygon style="fill:midnightblue;stroke:midnightblue;" points="332.958,-83.916 340,-76 329.559,-77.7969 332.958,-83.916"/>
</g>
<!-- Node7&#45;&gt;Node11 -->
<g id="edge36" class="edge"><title>Node7&#45;&gt;Node11</title>
<path style="fill:none;stroke:midnightblue;" d="M302,-121C423,-118 781,-108 1090,-76"/>
<polygon style="fill:midnightblue;stroke:midnightblue;" points="1090.4,-79.4778 1100,-75 1089.7,-72.5125 1090.4,-79.4778"/>
</g>
<!-- Node10&#45;&gt;Node3 -->
<g id="edge34" class="edge"><title>Node10&#45;&gt;Node3</title>
<path style="fill:none;stroke:midnightblue;" d="M414,-56C480,-44 590,-25 642,-16"/>
<polygon style="fill:midnightblue;stroke:midnightblue;" points="642.881,-19.3933 652,-14 641.508,-12.5292 642.881,-19.3933"/>
</g>
<!-- Node10&#45;&gt;Node9 -->
<g id="edge32" class="edge"><title>Node10&#45;&gt;Node9</title>
<path style="fill:none;stroke:midnightblue;" d="M342,-56C329,-48 310,-35 294,-25"/>
<polygon style="fill:midnightblue;stroke:midnightblue;" points="296.335,-22.332 286,-20 292.625,-28.268 296.335,-22.332"/>
</g>
<!-- Node12 -->
<g id="node31" class="node"><title>Node12</title>
<polygon style="fill:white;stroke:#bfbfbf;" points="1125,-0 1125,-20 1181,-20 1181,-0 1125,-0"/>
<text text-anchor="middle" x="1153" y="-7" style="font-family:Arial;font-size:10.00;">algorithm</text>
</g>
<!-- Node11&#45;&gt;Node12 -->
<g id="edge38" class="edge"><title>Node11&#45;&gt;Node12</title>
<path style="fill:none;stroke:midnightblue;" d="M1153,-56C1153,-49 1153,-39 1153,-30"/>
<polygon style="fill:midnightblue;stroke:midnightblue;" points="1156.5,-30 1153,-20 1149.5,-30 1156.5,-30"/>
</g>
<!-- Node13 -->
<g id="node33" class="node"><title>Node13</title>
<polygon style="fill:white;stroke:#bfbfbf;" points="1199,-0 1199,-20 1306,-20 1306,-0 1199,-0"/>
<text text-anchor="middle" x="1252" y="-7" style="font-family:Arial;font-size:10.00;">boost/shared_ptr.hpp</text>
</g>
<!-- Node11&#45;&gt;Node13 -->
<g id="edge40" class="edge"><title>Node11&#45;&gt;Node13</title>
<path style="fill:none;stroke:midnightblue;" d="M1171,-56C1186,-48 1208,-35 1225,-25"/>
<polygon style="fill:midnightblue;stroke:midnightblue;" points="1226.96,-27.916 1234,-20 1223.56,-21.7969 1226.96,-27.916"/>
</g>
<!-- Node14 -->
<g id="node35" class="node"><title>Node14</title>
<polygon style="fill:white;stroke:#bfbfbf;" points="917,-0 917,-20 1108,-20 1108,-0 917,-0"/>
<text text-anchor="middle" x="1012" y="-7" style="font-family:Arial;font-size:10.00;">boost/smart_ptr/detail/operator_bool.hpp</text>
</g>
<!-- Node11&#45;&gt;Node14 -->
<g id="edge42" class="edge"><title>Node11&#45;&gt;Node14</title>
<path style="fill:none;stroke:midnightblue;" d="M1128,-56C1105,-47 1072,-34 1047,-24"/>
<polygon style="fill:midnightblue;stroke:midnightblue;" points="1047.58,-20.4643 1037,-20 1044.98,-26.9636 1047.58,-20.4643"/>
</g>
<!-- Node15&#45;&gt;Node2 -->
<g id="edge50" class="edge"><title>Node15&#45;&gt;Node2</title>
<path style="fill:none;stroke:midnightblue;" d="M418,-169C343,-157 213,-134 209,-132 183,-120 160,-99 145,-83"/>
<polygon style="fill:midnightblue;stroke:midnightblue;" points="147.546,-80.5962 138,-76 142.596,-85.546 147.546,-80.5962"/>
</g>
<!-- Node15&#45;&gt;Node3 -->
<g id="edge48" class="edge"><title>Node15&#45;&gt;Node3</title>
<path style="fill:none;stroke:midnightblue;" d="M474,-168C485,-145 516,-87 558,-56 583,-36 617,-24 642,-17"/>
<polygon style="fill:midnightblue;stroke:midnightblue;" points="643.427,-20.2259 652,-14 641.416,-13.5212 643.427,-20.2259"/>
</g>
<!-- Node15&#45;&gt;Node4 -->
<g id="edge46" class="edge"><title>Node15&#45;&gt;Node4</title>
<path style="fill:none;stroke:midnightblue;" d="M481,-168C503,-148 550,-107 576,-83"/>
<polygon style="fill:midnightblue;stroke:midnightblue;" points="578.779,-85.2191 584,-76 574.169,-79.9511 578.779,-85.2191"/>
</g>
<!-- Node15&#45;&gt;Node7 -->
<g id="edge52" class="edge"><title>Node15&#45;&gt;Node7</title>
<path style="fill:none;stroke:midnightblue;" d="M432,-168C397,-159 345,-145 308,-135"/>
<polygon style="fill:midnightblue;stroke:midnightblue;" points="308.584,-131.521 298,-132 306.573,-138.226 308.584,-131.521"/>
</g>
<!-- Node15&#45;&gt;Node10 -->
<g id="edge54" class="edge"><title>Node15&#45;&gt;Node10</title>
<path style="fill:none;stroke:midnightblue;" d="M459,-168C439,-148 398,-107 375,-83"/>
<polygon style="fill:midnightblue;stroke:midnightblue;" points="377.546,-80.5962 368,-76 372.596,-85.546 377.546,-80.5962"/>
</g>
<!-- Node15&#45;&gt;Node11 -->
<g id="edge56" class="edge"><title>Node15&#45;&gt;Node11</title>
<path style="fill:none;stroke:midnightblue;" d="M520,-175C662,-167 1054,-143 1080,-132 1104,-121 1125,-99 1138,-84"/>
<polygon style="fill:midnightblue;stroke:midnightblue;" points="1141.05,-85.8306 1145,-76 1135.78,-81.221 1141.05,-85.8306"/>
</g>
<!-- Node16&#45;&gt;Node2 -->
<g id="edge64" class="edge"><title>Node16&#45;&gt;Node2</title>
<path style="fill:none;stroke:midnightblue;" d="M296,-173C260,-168 212,-157 176,-132 159,-120 146,-100 138,-85"/>
<polygon style="fill:midnightblue;stroke:midnightblue;" points="140.916,-83.0418 133,-76 134.797,-86.4414 140.916,-83.0418"/>
</g>
<!-- Node16&#45;&gt;Node3 -->
<g id="edge62" class="edge"><title>Node16&#45;&gt;Node3</title>
<path style="fill:none;stroke:midnightblue;" d="M363,-168C381,-155 415,-132 445,-112 481,-87 487,-75 528,-56 566,-37 612,-24 642,-16"/>
<polygon style="fill:midnightblue;stroke:midnightblue;" points="642.881,-19.3933 652,-14 641.508,-12.5292 642.881,-19.3933"/>
</g>
<!-- Node16&#45;&gt;Node4 -->
<g id="edge60" class="edge"><title>Node16&#45;&gt;Node4</title>
<path style="fill:none;stroke:midnightblue;" d="M370,-168C414,-147 513,-103 564,-80"/>
<polygon style="fill:midnightblue;stroke:midnightblue;" points="565.283,-83.2598 573,-76 562.44,-76.8631 565.283,-83.2598"/>
</g>
<!-- Node16&#45;&gt;Node7 -->
<g id="edge66" class="edge"><title>Node16&#45;&gt;Node7</title>
<path style="fill:none;stroke:midnightblue;" d="M332,-168C319,-160 300,-147 284,-137"/>
<polygon style="fill:midnightblue;stroke:midnightblue;" points="286.335,-134.332 276,-132 282.625,-140.268 286.335,-134.332"/>
</g>
<!-- Node16&#45;&gt;Node10 -->
<g id="edge68" class="edge"><title>Node16&#45;&gt;Node10</title>
<path style="fill:none;stroke:midnightblue;" d="M349,-168C351,-149 354,-110 356,-86"/>
<polygon style="fill:midnightblue;stroke:midnightblue;" points="359.488,-86.2987 357,-76 352.522,-85.6021 359.488,-86.2987"/>
</g>
<!-- Node16&#45;&gt;Node11 -->
<g id="edge70" class="edge"><title>Node16&#45;&gt;Node11</title>
<path style="fill:none;stroke:midnightblue;" d="M400,-169C403,-169 406,-168 409,-168 550,-152 911,-174 1047,-132 1049,-131 1097,-101 1128,-82"/>
<polygon style="fill:midnightblue;stroke:midnightblue;" points="1130.62,-84.4592 1137,-76 1126.74,-78.6349 1130.62,-84.4592"/>
</g>
<!-- Node17&#45;&gt;Node2 -->
<g id="edge78" class="edge"><title>Node17&#45;&gt;Node2</title>
<path style="fill:none;stroke:midnightblue;" d="M662,-229C551,-217 305,-192 287,-188 223,-171 195,-179 151,-132 139,-119 134,-101 131,-86"/>
<polygon style="fill:midnightblue;stroke:midnightblue;" points="134.478,-85.6021 130,-76 127.512,-86.2987 134.478,-85.6021"/>
</g>
<!-- Node17&#45;&gt;Node3 -->
<g id="edge76" class="edge"><title>Node17&#45;&gt;Node3</title>
<path style="fill:none;stroke:midnightblue;" d="M708,-224C702,-215 695,-201 691,-188 674,-132 671,-64 672,-30"/>
<polygon style="fill:midnightblue;stroke:midnightblue;" points="675.5,-30 672,-20 668.5,-30 675.5,-30"/>
</g>
<!-- Node17&#45;&gt;Node8 -->
<g id="edge74" class="edge"><title>Node17&#45;&gt;Node8</title>
<path style="fill:none;stroke:midnightblue;" d="M688,-224C621,-200 447,-135 293,-77"/>
<polygon style="fill:midnightblue;stroke:midnightblue;" points="293.585,-73.4643 283,-73 290.985,-79.9636 293.585,-73.4643"/>
</g>
<!-- Node17&#45;&gt;Node11 -->
<g id="edge104" class="edge"><title>Node17&#45;&gt;Node11</title>
<path style="fill:none;stroke:midnightblue;" d="M769,-232C881,-228 1131,-216 1156,-188 1181,-160 1170,-112 1160,-85"/>
<polygon style="fill:midnightblue;stroke:midnightblue;" points="1163.48,-84.38 1157,-76 1156.84,-86.5937 1163.48,-84.38"/>
</g>
<!-- Node17&#45;&gt;Node18 -->
<g id="edge80" class="edge"><title>Node17&#45;&gt;Node18</title>
<path style="fill:none;stroke:midnightblue;" d="M725,-224C733,-216 744,-205 754,-195"/>
<polygon style="fill:midnightblue;stroke:midnightblue;" points="756.404,-197.546 761,-188 751.454,-192.596 756.404,-197.546"/>
</g>
<!-- Node18&#45;&gt;Node3 -->
<g id="edge84" class="edge"><title>Node18&#45;&gt;Node3</title>
<path style="fill:none;stroke:midnightblue;" d="M765,-168C749,-141 705,-65 683,-29"/>
<polygon style="fill:midnightblue;stroke:midnightblue;" points="685.916,-27.0418 678,-20 679.797,-30.4414 685.916,-27.0418"/>
</g>
<!-- Node18&#45;&gt;Node4 -->
<g id="edge82" class="edge"><title>Node18&#45;&gt;Node4</title>
<path style="fill:none;stroke:midnightblue;" d="M755,-168C725,-148 657,-104 620,-81"/>
<polygon style="fill:midnightblue;stroke:midnightblue;" points="622.335,-78.332 612,-76 618.625,-84.268 622.335,-78.332"/>
</g>
<!-- Node19 -->
<g id="node62" class="node"><title>Node19</title>
<a xlink:href="parameters__container_8h.html" target="_top" xlink:title="ltr/parameters_container/parameters_container.h">
<polygon style="fill:white;stroke:black;" points="814,-112 814,-132 1039,-132 1039,-112 814,-112"/>
<text text-anchor="middle" x="926" y="-119" style="font-family:Arial;font-size:10.00;">ltr/parameters_container/parameters_container.h</text>
</a>
</g>
<!-- Node18&#45;&gt;Node19 -->
<g id="edge86" class="edge"><title>Node18&#45;&gt;Node19</title>
<path style="fill:none;stroke:midnightblue;" d="M799,-168C824,-159 861,-145 888,-135"/>
<polygon style="fill:midnightblue;stroke:midnightblue;" points="889.427,-138.226 898,-132 887.416,-131.521 889.427,-138.226"/>
</g>
<!-- Node19&#45;&gt;Node3 -->
<g id="edge94" class="edge"><title>Node19&#45;&gt;Node3</title>
<path style="fill:none;stroke:midnightblue;" d="M897,-112C872,-103 836,-90 805,-76 785,-67 733,-41 701,-25"/>
<polygon style="fill:midnightblue;stroke:midnightblue;" points="702.441,-21.7969 692,-20 699.042,-27.916 702.441,-21.7969"/>
</g>
<!-- Node19&#45;&gt;Node4 -->
<g id="edge92" class="edge"><title>Node19&#45;&gt;Node4</title>
<path style="fill:none;stroke:midnightblue;" d="M867,-112C800,-101 694,-82 636,-73"/>
<polygon style="fill:midnightblue;stroke:midnightblue;" points="636.492,-69.5292 626,-71 635.119,-76.3933 636.492,-69.5292"/>
</g>
<!-- Node19&#45;&gt;Node10 -->
<g id="edge102" class="edge"><title>Node19&#45;&gt;Node10</title>
<path style="fill:none;stroke:midnightblue;" d="M824,-112C710,-100 527,-82 427,-73"/>
<polygon style="fill:midnightblue;stroke:midnightblue;" points="427.299,-69.5125 417,-72 426.602,-76.4778 427.299,-69.5125"/>
</g>
<!-- Node19&#45;&gt;Node11 -->
<g id="edge100" class="edge"><title>Node19&#45;&gt;Node11</title>
<path style="fill:none;stroke:midnightblue;" d="M967,-112C1005,-103 1062,-88 1102,-78"/>
<polygon style="fill:midnightblue;stroke:midnightblue;" points="1102.88,-81.3933 1112,-76 1101.51,-74.5292 1102.88,-81.3933"/>
</g>
<!-- Node20 -->
<g id="node64" class="node"><title>Node20</title>
<polygon style="fill:white;stroke:#bfbfbf;" points="1224,-56 1224,-76 1298,-76 1298,-56 1224,-56"/>
<text text-anchor="middle" x="1261" y="-63" style="font-family:Arial;font-size:10.00;">logog/logog.h</text>
</g>
<!-- Node19&#45;&gt;Node20 -->
<g id="edge88" class="edge"><title>Node19&#45;&gt;Node20</title>
<path style="fill:none;stroke:midnightblue;" d="M996,-112C1053,-103 1133,-91 1214,-76"/>
<polygon style="fill:midnightblue;stroke:midnightblue;" points="1214.88,-79.3933 1224,-74 1213.51,-72.5292 1214.88,-79.3933"/>
</g>
<!-- Node21 -->
<g id="node66" class="node"><title>Node21</title>
<polygon style="fill:white;stroke:#bfbfbf;" points="814,-56 814,-76 843,-76 843,-56 814,-56"/>
<text text-anchor="middle" x="828" y="-63" style="font-family:Arial;font-size:10.00;">list</text>
</g>
<!-- Node19&#45;&gt;Node21 -->
<g id="edge90" class="edge"><title>Node19&#45;&gt;Node21</title>
<path style="fill:none;stroke:midnightblue;" d="M908,-112C893,-103 870,-90 852,-80"/>
<polygon style="fill:midnightblue;stroke:midnightblue;" points="853.441,-76.7969 843,-75 850.042,-82.916 853.441,-76.7969"/>
</g>
<!-- Node22 -->
<g id="node70" class="node"><title>Node22</title>
<polygon style="fill:white;stroke:#bfbfbf;" points="860,-56 860,-76 937,-76 937,-56 860,-56"/>
<text text-anchor="middle" x="898" y="-63" style="font-family:Arial;font-size:10.00;">boost/any.hpp</text>
</g>
<!-- Node19&#45;&gt;Node22 -->
<g id="edge96" class="edge"><title>Node19&#45;&gt;Node22</title>
<path style="fill:none;stroke:midnightblue;" d="M921,-112C917,-105 912,-94 907,-85"/>
<polygon style="fill:midnightblue;stroke:midnightblue;" points="910.26,-83.7166 903,-76 903.863,-86.5596 910.26,-83.7166"/>
</g>
<!-- Node23 -->
<g id="node72" class="node"><title>Node23</title>
<polygon style="fill:white;stroke:#bfbfbf;" points="954,-56 954,-76 1083,-76 1083,-56 954,-56"/>
<text text-anchor="middle" x="1018" y="-63" style="font-family:Arial;font-size:10.00;">boost/unordered_map.hpp</text>
</g>
<!-- Node19&#45;&gt;Node23 -->
<g id="edge98" class="edge"><title>Node19&#45;&gt;Node23</title>
<path style="fill:none;stroke:midnightblue;" d="M942,-112C956,-104 977,-91 992,-81"/>
<polygon style="fill:midnightblue;stroke:midnightblue;" points="993.958,-83.916 1001,-76 990.559,-77.7969 993.958,-83.916"/>
</g>
<!-- Node24&#45;&gt;Node7 -->
<g id="edge108" class="edge"><title>Node24&#45;&gt;Node7</title>
<path style="fill:none;stroke:midnightblue;" d="M460,-228C397,-222 313,-209 287,-188 273,-176 266,-157 263,-142"/>
<polygon style="fill:midnightblue;stroke:midnightblue;" points="266.393,-141.119 261,-132 259.529,-142.492 266.393,-141.119"/>
</g>
<!-- Node24&#45;&gt;Node11 -->
<g id="edge116" class="edge"><title>Node24&#45;&gt;Node11</title>
<path style="fill:none;stroke:midnightblue;" d="M607,-228C742,-215 1020,-183 1102,-132 1120,-121 1134,-100 1143,-85"/>
<polygon style="fill:midnightblue;stroke:midnightblue;" points="1146.2,-86.4414 1148,-76 1140.08,-83.0418 1146.2,-86.4414"/>
</g>
<!-- Node24&#45;&gt;Node15 -->
<g id="edge112" class="edge"><title>Node24&#45;&gt;Node15</title>
<path style="fill:none;stroke:midnightblue;" d="M522,-224C512,-216 499,-205 488,-195"/>
<polygon style="fill:midnightblue;stroke:midnightblue;" points="490.546,-192.596 481,-188 485.596,-197.546 490.546,-192.596"/>
</g>
<!-- Node24&#45;&gt;Node16 -->
<g id="edge110" class="edge"><title>Node24&#45;&gt;Node16</title>
<path style="fill:none;stroke:midnightblue;" d="M500,-224C470,-215 425,-201 391,-191"/>
<polygon style="fill:midnightblue;stroke:midnightblue;" points="391.584,-187.521 381,-188 389.573,-194.226 391.584,-187.521"/>
</g>
<!-- Node24&#45;&gt;Node18 -->
<g id="edge114" class="edge"><title>Node24&#45;&gt;Node18</title>
<path style="fill:none;stroke:midnightblue;" d="M576,-224C616,-215 675,-200 718,-190"/>
<polygon style="fill:midnightblue;stroke:midnightblue;" points="718.881,-193.393 728,-188 717.508,-186.529 718.881,-193.393"/>
</g>
<!-- Node25&#45;&gt;Node3 -->
<g id="edge120" class="edge"><title>Node25&#45;&gt;Node3</title>
<path style="fill:none;stroke:midnightblue;" d="M1316,-57C1313,-57 1310,-56 1307,-56 1074,-29 794,-15 702,-11"/>
<polygon style="fill:midnightblue;stroke:midnightblue;" points="702,-7.5001 692,-11 702,-14.5001 702,-7.5001"/>
</g>
<!-- Node26&#45;&gt;Node3 -->
<g id="edge136" class="edge"><title>Node26&#45;&gt;Node3</title>
<path style="fill:none;stroke:midnightblue;" d="M1402,-112C1421,-98 1450,-74 1433,-56 1419,-42 842,-17 702,-11"/>
<polygon style="fill:midnightblue;stroke:midnightblue;" points="702,-7.5001 692,-11 702,-14.5001 702,-7.5001"/>
</g>
<!-- Node26&#45;&gt;Node11 -->
<g id="edge140" class="edge"><title>Node26&#45;&gt;Node11</title>
<path style="fill:none;stroke:midnightblue;" d="M1344,-112C1305,-103 1247,-88 1205,-78"/>
<polygon style="fill:midnightblue;stroke:midnightblue;" points="1205.49,-74.5292 1195,-76 1204.12,-81.3933 1205.49,-74.5292"/>
</g>
<!-- Node26&#45;&gt;Node20 -->
<g id="edge134" class="edge"><title>Node26&#45;&gt;Node20</title>
<path style="fill:none;stroke:midnightblue;" d="M1364,-112C1344,-103 1315,-90 1293,-80"/>
<polygon style="fill:midnightblue;stroke:midnightblue;" points="1294.56,-76.8631 1284,-76 1291.72,-83.2598 1294.56,-76.8631"/>
</g>
<!-- Node26&#45;&gt;Node25 -->
<g id="edge142" class="edge"><title>Node26&#45;&gt;Node25</title>
<path style="fill:none;stroke:midnightblue;" d="M1383,-112C1382,-105 1379,-95 1376,-86"/>
<polygon style="fill:midnightblue;stroke:midnightblue;" points="1379.23,-84.5725 1373,-76 1372.52,-86.584 1379.23,-84.5725"/>
</g>
<!-- Node27 -->
<g id="node93" class="node"><title>Node27</title>
<polygon style="fill:white;stroke:#bfbfbf;" points="1480,-56 1480,-76 1594,-76 1594,-56 1480,-56"/>
<text text-anchor="middle" x="1537" y="-63" style="font-family:Arial;font-size:10.00;">boost/lexical_cast.hpp</text>
</g>
<!-- Node26&#45;&gt;Node27 -->
<g id="edge132" class="edge"><title>Node26&#45;&gt;Node27</title>
<path style="fill:none;stroke:midnightblue;" d="M1413,-112C1437,-103 1473,-89 1500,-79"/>
<polygon style="fill:midnightblue;stroke:midnightblue;" points="1501.43,-82.2259 1510,-76 1499.42,-75.5212 1501.43,-82.2259"/>
</g>
<!-- Node28 -->
<g id="node97" class="node"><title>Node28</title>
<polygon style="fill:white;stroke:#bfbfbf;" points="1612,-56 1612,-76 1666,-76 1666,-56 1612,-56"/>
<text text-anchor="middle" x="1639" y="-63" style="font-family:Arial;font-size:10.00;">iostream</text>
</g>
<!-- Node26&#45;&gt;Node28 -->
<g id="edge138" class="edge"><title>Node26&#45;&gt;Node28</title>
<path style="fill:none;stroke:midnightblue;" d="M1437,-112C1479,-103 1539,-91 1602,-76"/>
<polygon style="fill:midnightblue;stroke:midnightblue;" points="1602.88,-79.3933 1612,-74 1601.51,-72.5292 1602.88,-79.3933"/>
</g>
</g>
</svg>
