<?xml version="1.0" encoding="UTF-8" standalone="no"?>
<!DOCTYPE svg PUBLIC "-//W3C//DTD SVG 1.0//EN"
 "http://www.w3.org/TR/2001/REC-SVG-20010904/DTD/svg10.dtd" [
 <!ATTLIST svg xmlns:xlink CDATA #FIXED "http://www.w3.org/1999/xlink">
]>
<!-- Generated by Graphviz version 2.20.2 (Tue Mar &#160;2 19:03:41 UTC 2010)
     For user: (jenkins)  -->
<!-- Title: G Pages: 1 -->
<svg width="1792pt" height="476pt"
 viewBox="0.00 0.00 1792.00 476.00" xmlns="http://www.w3.org/2000/svg" xmlns:xlink="http://www.w3.org/1999/xlink">
<g id="graph0" class="graph" transform="scale(1 1) rotate(0) translate(4 472)">
<title>G</title>
<polygon style="fill:white;stroke:white;" points="-4,4 -4,-472 1788,-472 1788,4 -4,4"/>
<!-- Node1 -->
<g id="node1" class="node"><title>Node1</title>
<polygon style="fill:#bfbfbf;stroke:black;" points="1229,-448 1229,-468 1420,-468 1420,-448 1229,-448"/>
<text text-anchor="middle" x="1324" y="-455" style="font-family:Arial;font-size:10.00;">ltr/feature_converters/feature_sampler.cc</text>
</g>
<!-- Node2 -->
<g id="node3" class="node"><title>Node2</title>
<polygon style="fill:white;stroke:#bfbfbf;" points="1330,-224 1330,-244 1444,-244 1444,-224 1330,-224"/>
<text text-anchor="middle" x="1387" y="-231" style="font-family:Arial;font-size:10.00;">boost/lexical_cast.hpp</text>
</g>
<!-- Node1&#45;&gt;Node2 -->
<g id="edge2" class="edge"><title>Node1&#45;&gt;Node2</title>
<path style="fill:none;stroke:midnightblue;" d="M1327,-448C1336,-413 1369,-300 1381,-254"/>
<polygon style="fill:midnightblue;stroke:midnightblue;" points="1384.48,-254.584 1384,-244 1377.77,-252.573 1384.48,-254.584"/>
</g>
<!-- Node3 -->
<g id="node5" class="node"><title>Node3</title>
<polygon style="fill:white;stroke:#bfbfbf;" points="1194,-0 1194,-20 1234,-20 1234,-0 1194,-0"/>
<text text-anchor="middle" x="1214" y="-7" style="font-family:Arial;font-size:10.00;">string</text>
</g>
<!-- Node1&#45;&gt;Node3 -->
<g id="edge4" class="edge"><title>Node1&#45;&gt;Node3</title>
<path style="fill:none;stroke:midnightblue;" d="M1420,-454C1555,-445 1784,-420 1784,-346 1784,-346 1784,-346 1784,-122 1784,-74 1744,-73 1700,-56 1616,-22 1337,-13 1244,-10"/>
<polygon style="fill:midnightblue;stroke:midnightblue;" points="1244,-6.5001 1234,-10 1244,-13.5001 1244,-6.5001"/>
</g>
<!-- Node4 -->
<g id="node7" class="node"><title>Node4</title>
<polygon style="fill:white;stroke:#bfbfbf;" points="1042,-56 1042,-76 1101,-76 1101,-56 1042,-56"/>
<text text-anchor="middle" x="1071" y="-63" style="font-family:Arial;font-size:10.00;">stdexcept</text>
</g>
<!-- Node1&#45;&gt;Node4 -->
<g id="edge6" class="edge"><title>Node1&#45;&gt;Node4</title>
<path style="fill:none;stroke:midnightblue;" d="M1324,-448C1324,-399 1323,-191 1307,-168 1283,-134 1260,-148 1223,-132 1181,-114 1134,-93 1103,-80"/>
<polygon style="fill:midnightblue;stroke:midnightblue;" points="1104.56,-76.8631 1094,-76 1101.72,-83.2598 1104.56,-76.8631"/>
</g>
<!-- Node5 -->
<g id="node9" class="node"><title>Node5</title>
<a xlink:href="feature__sampler_8h.html" target="_top" xlink:title="ltr/feature_converters/feature_sampler.h">
<polygon style="fill:white;stroke:black;" points="734,-392 734,-412 920,-412 920,-392 734,-392"/>
<text text-anchor="middle" x="827" y="-399" style="font-family:Arial;font-size:10.00;">ltr/feature_converters/feature_sampler.h</text>
</a>
</g>
<!-- Node1&#45;&gt;Node5 -->
<g id="edge8" class="edge"><title>Node1&#45;&gt;Node5</title>
<path style="fill:none;stroke:midnightblue;" d="M1235,-448C1148,-438 1016,-423 925,-413"/>
<polygon style="fill:midnightblue;stroke:midnightblue;" points="925.299,-409.512 915,-412 924.602,-416.478 925.299,-409.512"/>
</g>
<!-- Node5&#45;&gt;Node3 -->
<g id="edge10" class="edge"><title>Node5&#45;&gt;Node3</title>
<path style="fill:none;stroke:midnightblue;" d="M920,-400C1154,-394 1746,-372 1746,-290 1746,-290 1746,-290 1746,-122 1746,-72 1701,-73 1655,-56 1579,-26 1331,-14 1244,-11"/>
<polygon style="fill:midnightblue;stroke:midnightblue;" points="1244,-7.5001 1234,-11 1244,-14.5001 1244,-7.5001"/>
</g>
<!-- Node6 -->
<g id="node12" class="node"><title>Node6</title>
<polygon style="fill:white;stroke:#bfbfbf;" points="486,-56 486,-76 528,-76 528,-56 486,-56"/>
<text text-anchor="middle" x="507" y="-63" style="font-family:Arial;font-size:10.00;">vector</text>
</g>
<!-- Node5&#45;&gt;Node6 -->
<g id="edge12" class="edge"><title>Node5&#45;&gt;Node6</title>
<path style="fill:none;stroke:midnightblue;" d="M734,-397C651,-392 529,-380 424,-356 340,-336 240,-376 240,-290 240,-290 240,-290 240,-234 240,-230 415,-122 481,-81"/>
<polygon style="fill:midnightblue;stroke:midnightblue;" points="482.958,-83.916 490,-76 479.559,-77.7969 482.958,-83.916"/>
</g>
<!-- Node7 -->
<g id="node14" class="node"><title>Node7</title>
<polygon style="fill:white;stroke:#bfbfbf;" points="0,-0 0,-20 56,-20 56,-0 0,-0"/>
<text text-anchor="middle" x="28" y="-7" style="font-family:Arial;font-size:10.00;">algorithm</text>
</g>
<!-- Node5&#45;&gt;Node7 -->
<g id="edge14" class="edge"><title>Node5&#45;&gt;Node7</title>
<path style="fill:none;stroke:midnightblue;" d="M734,-400C572,-397 247,-386 137,-356 74,-338 4,-355 4,-290 4,-290 4,-290 4,-122 4,-89 14,-52 21,-30"/>
<polygon style="fill:midnightblue;stroke:midnightblue;" points="24.4788,-30.584 24,-20 17.7741,-28.5725 24.4788,-30.584"/>
</g>
<!-- Node8 -->
<g id="node16" class="node"><title>Node8</title>
<a xlink:href="object_8h.html" target="_top" xlink:title="ltr/data/object.h">
<polygon style="fill:white;stroke:black;" points="712,-112 712,-132 796,-132 796,-112 712,-112"/>
<text text-anchor="middle" x="754" y="-119" style="font-family:Arial;font-size:10.00;">ltr/data/object.h</text>
</a>
</g>
<!-- Node5&#45;&gt;Node8 -->
<g id="edge16" class="edge"><title>Node5&#45;&gt;Node8</title>
<path style="fill:none;stroke:midnightblue;" d="M834,-392C848,-371 876,-323 868,-280 857,-227 855,-209 822,-168 811,-155 797,-145 784,-137"/>
<polygon style="fill:midnightblue;stroke:midnightblue;" points="785.441,-133.797 775,-132 782.042,-139.916 785.441,-133.797"/>
</g>
<!-- Node12 -->
<g id="node29" class="node"><title>Node12</title>
<a xlink:href="shared__ptr_8h.html" target="_top" xlink:title="ltr/utility/shared_ptr.h">
<polygon style="fill:white;stroke:black;" points="141,-56 141,-76 248,-76 248,-56 141,-56"/>
<text text-anchor="middle" x="194" y="-63" style="font-family:Arial;font-size:10.00;">ltr/utility/shared_ptr.h</text>
</a>
</g>
<!-- Node5&#45;&gt;Node12 -->
<g id="edge142" class="edge"><title>Node5&#45;&gt;Node12</title>
<path style="fill:none;stroke:midnightblue;" d="M734,-398C526,-389 42,-359 42,-290 42,-290 42,-290 42,-178 42,-126 102,-94 146,-79"/>
<polygon style="fill:midnightblue;stroke:midnightblue;" points="147.427,-82.2259 156,-76 145.416,-75.5212 147.427,-82.2259"/>
</g>
<!-- Node15 -->
<g id="node36" class="node"><title>Node15</title>
<a xlink:href="feature__info_8h.html" target="_top" xlink:title="ltr/data/feature_info.h">
<polygon style="fill:white;stroke:black;" points="956,-224 956,-244 1063,-244 1063,-224 956,-224"/>
<text text-anchor="middle" x="1009" y="-231" style="font-family:Arial;font-size:10.00;">ltr/data/feature_info.h</text>
</a>
</g>
<!-- Node5&#45;&gt;Node15 -->
<g id="edge42" class="edge"><title>Node5&#45;&gt;Node15</title>
<path style="fill:none;stroke:midnightblue;" d="M920,-396C981,-391 1053,-379 1073,-356 1100,-322 1057,-275 1030,-251"/>
<polygon style="fill:midnightblue;stroke:midnightblue;" points="1031.83,-247.951 1022,-244 1027.22,-253.219 1031.83,-247.951"/>
</g>
<!-- Node22 -->
<g id="node60" class="node"><title>Node22</title>
<a xlink:href="data__set_8h.html" target="_top" xlink:title="ltr/data/data_set.h">
<polygon style="fill:white;stroke:black;" points="765,-280 765,-300 860,-300 860,-280 765,-280"/>
<text text-anchor="middle" x="812" y="-287" style="font-family:Arial;font-size:10.00;">ltr/data/data_set.h</text>
</a>
</g>
<!-- Node5&#45;&gt;Node22 -->
<g id="edge76" class="edge"><title>Node5&#45;&gt;Node22</title>
<path style="fill:none;stroke:midnightblue;" d="M826,-392C823,-373 818,-334 814,-310"/>
<polygon style="fill:midnightblue;stroke:midnightblue;" points="817.478,-309.602 813,-300 810.512,-310.299 817.478,-309.602"/>
</g>
<!-- Node28 -->
<g id="node95" class="node"><title>Node28</title>
<a xlink:href="indices_8h.html" target="_top" xlink:title="ltr/utility/indices.h">
<polygon style="fill:white;stroke:black;" points="298,-112 298,-132 391,-132 391,-112 298,-112"/>
<text text-anchor="middle" x="344" y="-119" style="font-family:Arial;font-size:10.00;">ltr/utility/indices.h</text>
</a>
</g>
<!-- Node5&#45;&gt;Node28 -->
<g id="edge134" class="edge"><title>Node5&#45;&gt;Node28</title>
<path style="fill:none;stroke:midnightblue;" d="M742,-392C596,-374 316,-333 316,-290 316,-290 316,-290 316,-234 316,-200 328,-164 336,-141"/>
<polygon style="fill:midnightblue;stroke:midnightblue;" points="339.137,-142.56 340,-132 332.74,-139.717 339.137,-142.56"/>
</g>
<!-- Node29 -->
<g id="node101" class="node"><title>Node29</title>
<a xlink:href="feature__converter_8h.html" target="_top" xlink:title="ltr/feature_converters/feature_converter.h">
<polygon style="fill:white;stroke:black;" points="874,-336 874,-356 1064,-356 1064,-336 874,-336"/>
<text text-anchor="middle" x="969" y="-343" style="font-family:Arial;font-size:10.00;">ltr/feature_converters/feature_converter.h</text>
</a>
</g>
<!-- Node5&#45;&gt;Node29 -->
<g id="edge144" class="edge"><title>Node5&#45;&gt;Node29</title>
<path style="fill:none;stroke:midnightblue;" d="M852,-392C875,-383 908,-370 933,-360"/>
<polygon style="fill:midnightblue;stroke:midnightblue;" points="935.015,-362.964 943,-356 932.415,-356.464 935.015,-362.964"/>
</g>
<!-- Node8&#45;&gt;Node3 -->
<g id="edge24" class="edge"><title>Node8&#45;&gt;Node3</title>
<path style="fill:none;stroke:midnightblue;" d="M758,-112C764,-97 777,-69 799,-56 832,-36 1094,-17 1184,-12"/>
<polygon style="fill:midnightblue;stroke:midnightblue;" points="1184.4,-15.4778 1194,-11 1183.7,-8.5125 1184.4,-15.4778"/>
</g>
<!-- Node8&#45;&gt;Node4 -->
<g id="edge22" class="edge"><title>Node8&#45;&gt;Node4</title>
<path style="fill:none;stroke:midnightblue;" d="M796,-115C857,-104 972,-83 1032,-73"/>
<polygon style="fill:midnightblue;stroke:midnightblue;" points="1032.88,-76.3933 1042,-71 1031.51,-69.5292 1032.88,-76.3933"/>
</g>
<!-- Node8&#45;&gt;Node6 -->
<g id="edge26" class="edge"><title>Node8&#45;&gt;Node6</title>
<path style="fill:none;stroke:midnightblue;" d="M712,-112C662,-101 582,-83 538,-73"/>
<polygon style="fill:midnightblue;stroke:midnightblue;" points="538.492,-69.5292 528,-71 537.119,-76.3933 538.492,-69.5292"/>
</g>
<!-- Node9 -->
<g id="node18" class="node"><title>Node9</title>
<polygon style="fill:white;stroke:#bfbfbf;" points="808,-56 808,-76 843,-76 843,-56 808,-56"/>
<text text-anchor="middle" x="825" y="-63" style="font-family:Arial;font-size:10.00;">map</text>
</g>
<!-- Node8&#45;&gt;Node9 -->
<g id="edge18" class="edge"><title>Node8&#45;&gt;Node9</title>
<path style="fill:none;stroke:midnightblue;" d="M767,-112C778,-104 792,-92 804,-83"/>
<polygon style="fill:midnightblue;stroke:midnightblue;" points="806.779,-85.2191 812,-76 802.169,-79.9511 806.779,-85.2191"/>
</g>
<!-- Node10 -->
<g id="node20" class="node"><title>Node10</title>
<polygon style="fill:white;stroke:#bfbfbf;" points="626,-0 626,-20 677,-20 677,-0 626,-0"/>
<text text-anchor="middle" x="651" y="-7" style="font-family:Arial;font-size:10.00;">ostream</text>
</g>
<!-- Node8&#45;&gt;Node10 -->
<g id="edge20" class="edge"><title>Node8&#45;&gt;Node10</title>
<path style="fill:none;stroke:midnightblue;" d="M712,-112C679,-103 638,-90 627,-76 617,-61 626,-42 636,-28"/>
<polygon style="fill:midnightblue;stroke:midnightblue;" points="638.8,-30.1 642,-20 633.2,-25.9 638.8,-30.1"/>
</g>
<!-- Node11 -->
<g id="node25" class="node"><title>Node11</title>
<a xlink:href="printable_8h.html" target="_top" xlink:title="ltr/interfaces/printable.h">
<polygon style="fill:white;stroke:black;" points="636,-56 636,-76 753,-76 753,-56 636,-56"/>
<text text-anchor="middle" x="694" y="-63" style="font-family:Arial;font-size:10.00;">ltr/interfaces/printable.h</text>
</a>
</g>
<!-- Node8&#45;&gt;Node11 -->
<g id="edge28" class="edge"><title>Node8&#45;&gt;Node11</title>
<path style="fill:none;stroke:midnightblue;" d="M743,-112C734,-104 722,-93 712,-83"/>
<polygon style="fill:midnightblue;stroke:midnightblue;" points="714.546,-80.5962 705,-76 709.596,-85.546 714.546,-80.5962"/>
</g>
<!-- Node8&#45;&gt;Node12 -->
<g id="edge34" class="edge"><title>Node8&#45;&gt;Node12</title>
<path style="fill:none;stroke:midnightblue;" d="M712,-118C615,-108 375,-84 258,-72"/>
<polygon style="fill:midnightblue;stroke:midnightblue;" points="258.299,-68.5125 248,-71 257.602,-75.4778 258.299,-68.5125"/>
</g>
<!-- Node11&#45;&gt;Node3 -->
<g id="edge32" class="edge"><title>Node11&#45;&gt;Node3</title>
<path style="fill:none;stroke:midnightblue;" d="M753,-57C757,-57 762,-56 766,-56 922,-37 1111,-20 1184,-13"/>
<polygon style="fill:midnightblue;stroke:midnightblue;" points="1184.4,-16.4778 1194,-12 1183.7,-9.5125 1184.4,-16.4778"/>
</g>
<!-- Node11&#45;&gt;Node10 -->
<g id="edge30" class="edge"><title>Node11&#45;&gt;Node10</title>
<path style="fill:none;stroke:midnightblue;" d="M686,-56C681,-48 672,-38 665,-28"/>
<polygon style="fill:midnightblue;stroke:midnightblue;" points="667.8,-25.9 659,-20 662.2,-30.1 667.8,-25.9"/>
</g>
<!-- Node12&#45;&gt;Node7 -->
<g id="edge36" class="edge"><title>Node12&#45;&gt;Node7</title>
<path style="fill:none;stroke:midnightblue;" d="M164,-56C137,-47 96,-33 66,-22"/>
<polygon style="fill:midnightblue;stroke:midnightblue;" points="66.584,-18.5212 56,-19 64.5725,-25.2259 66.584,-18.5212"/>
</g>
<!-- Node13 -->
<g id="node32" class="node"><title>Node13</title>
<polygon style="fill:white;stroke:#bfbfbf;" points="294,-0 294,-20 401,-20 401,-0 294,-0"/>
<text text-anchor="middle" x="347" y="-7" style="font-family:Arial;font-size:10.00;">boost/shared_ptr.hpp</text>
</g>
<!-- Node12&#45;&gt;Node13 -->
<g id="edge38" class="edge"><title>Node12&#45;&gt;Node13</title>
<path style="fill:none;stroke:midnightblue;" d="M221,-56C246,-47 283,-33 310,-23"/>
<polygon style="fill:midnightblue;stroke:midnightblue;" points="311.427,-26.2259 320,-20 309.416,-19.5212 311.427,-26.2259"/>
</g>
<!-- Node14 -->
<g id="node34" class="node"><title>Node14</title>
<polygon style="fill:white;stroke:#bfbfbf;" points="86,-0 86,-20 277,-20 277,-0 86,-0"/>
<text text-anchor="middle" x="181" y="-7" style="font-family:Arial;font-size:10.00;">boost/smart_ptr/detail/operator_bool.hpp</text>
</g>
<!-- Node12&#45;&gt;Node14 -->
<g id="edge40" class="edge"><title>Node12&#45;&gt;Node14</title>
<path style="fill:none;stroke:midnightblue;" d="M192,-56C190,-49 188,-39 185,-30"/>
<polygon style="fill:midnightblue;stroke:midnightblue;" points="188.393,-29.1194 183,-20 181.529,-30.4922 188.393,-29.1194"/>
</g>
<!-- Node15&#45;&gt;Node3 -->
<g id="edge46" class="edge"><title>Node15&#45;&gt;Node3</title>
<path style="fill:none;stroke:midnightblue;" d="M1007,-224C1001,-194 988,-105 1033,-56 1052,-34 1137,-20 1184,-13"/>
<polygon style="fill:midnightblue;stroke:midnightblue;" points="1184.4,-16.4778 1194,-12 1183.7,-9.5125 1184.4,-16.4778"/>
</g>
<!-- Node15&#45;&gt;Node6 -->
<g id="edge48" class="edge"><title>Node15&#45;&gt;Node6</title>
<path style="fill:none;stroke:midnightblue;" d="M996,-224C978,-210 944,-186 914,-168 867,-139 856,-128 805,-112 756,-96 604,-77 538,-69"/>
<polygon style="fill:midnightblue;stroke:midnightblue;" points="538.299,-65.5125 528,-68 537.602,-72.4778 538.299,-65.5125"/>
</g>
<!-- Node15&#45;&gt;Node9 -->
<g id="edge44" class="edge"><title>Node15&#45;&gt;Node9</title>
<path style="fill:none;stroke:midnightblue;" d="M1001,-224C991,-210 971,-186 952,-168 917,-135 873,-101 847,-82"/>
<polygon style="fill:midnightblue;stroke:midnightblue;" points="849.1,-79.2 839,-76 844.9,-84.8 849.1,-79.2"/>
</g>
<!-- Node15&#45;&gt;Node12 -->
<g id="edge74" class="edge"><title>Node15&#45;&gt;Node12</title>
<path style="fill:none;stroke:midnightblue;" d="M956,-231C848,-225 606,-209 525,-188 505,-182 503,-173 482,-168 374,-135 323,-196 230,-132 215,-121 205,-101 200,-86"/>
<polygon style="fill:midnightblue;stroke:midnightblue;" points="203.226,-84.5725 197,-76 196.521,-86.584 203.226,-84.5725"/>
</g>
<!-- Node16 -->
<g id="node41" class="node"><title>Node16</title>
<a xlink:href="parameterized_8h.html" target="_top" xlink:title="ltr/interfaces/parameterized.h">
<polygon style="fill:white;stroke:black;" points="1156,-168 1156,-188 1298,-188 1298,-168 1156,-168"/>
<text text-anchor="middle" x="1227" y="-175" style="font-family:Arial;font-size:10.00;">ltr/interfaces/parameterized.h</text>
</a>
</g>
<!-- Node15&#45;&gt;Node16 -->
<g id="edge50" class="edge"><title>Node15&#45;&gt;Node16</title>
<path style="fill:none;stroke:midnightblue;" d="M1048,-224C1085,-215 1139,-201 1178,-191"/>
<polygon style="fill:midnightblue;stroke:midnightblue;" points="1179.43,-194.226 1188,-188 1177.42,-187.521 1179.43,-194.226"/>
</g>
<!-- Node16&#45;&gt;Node3 -->
<g id="edge54" class="edge"><title>Node16&#45;&gt;Node3</title>
<path style="fill:none;stroke:midnightblue;" d="M1298,-173C1406,-163 1592,-134 1525,-56 1507,-34 1319,-18 1244,-12"/>
<polygon style="fill:midnightblue;stroke:midnightblue;" points="1244.3,-8.5125 1234,-11 1243.6,-15.4778 1244.3,-8.5125"/>
</g>
<!-- Node16&#45;&gt;Node4 -->
<g id="edge52" class="edge"><title>Node16&#45;&gt;Node4</title>
<path style="fill:none;stroke:midnightblue;" d="M1215,-168C1198,-155 1168,-130 1142,-112 1127,-101 1110,-90 1097,-82"/>
<polygon style="fill:midnightblue;stroke:midnightblue;" points="1098.26,-78.6349 1088,-76 1094.38,-84.4592 1098.26,-78.6349"/>
</g>
<!-- Node17 -->
<g id="node45" class="node"><title>Node17</title>
<a xlink:href="parameters__container_8h.html" target="_top" xlink:title="ltr/parameters_container/parameters_container.h">
<polygon style="fill:white;stroke:black;" points="1232,-112 1232,-132 1457,-132 1457,-112 1232,-112"/>
<text text-anchor="middle" x="1344" y="-119" style="font-family:Arial;font-size:10.00;">ltr/parameters_container/parameters_container.h</text>
</a>
</g>
<!-- Node16&#45;&gt;Node17 -->
<g id="edge56" class="edge"><title>Node16&#45;&gt;Node17</title>
<path style="fill:none;stroke:midnightblue;" d="M1248,-168C1266,-159 1293,-146 1314,-136"/>
<polygon style="fill:midnightblue;stroke:midnightblue;" points="1315.28,-139.26 1323,-132 1312.44,-132.863 1315.28,-139.26"/>
</g>
<!-- Node17&#45;&gt;Node3 -->
<g id="edge64" class="edge"><title>Node17&#45;&gt;Node3</title>
<path style="fill:none;stroke:midnightblue;" d="M1361,-112C1381,-99 1410,-76 1395,-56 1376,-32 1291,-19 1244,-13"/>
<polygon style="fill:midnightblue;stroke:midnightblue;" points="1244.3,-9.5125 1234,-12 1243.6,-16.4778 1244.3,-9.5125"/>
</g>
<!-- Node17&#45;&gt;Node4 -->
<g id="edge62" class="edge"><title>Node17&#45;&gt;Node4</title>
<path style="fill:none;stroke:midnightblue;" d="M1288,-112C1243,-103 1177,-91 1111,-76"/>
<polygon style="fill:midnightblue;stroke:midnightblue;" points="1111.49,-72.5292 1101,-74 1110.12,-79.3933 1111.49,-72.5292"/>
</g>
<!-- Node17&#45;&gt;Node11 -->
<g id="edge72" class="edge"><title>Node17&#45;&gt;Node11</title>
<path style="fill:none;stroke:midnightblue;" d="M1232,-113C1122,-104 949,-89 799,-76 787,-74 775,-73 763,-72"/>
<polygon style="fill:midnightblue;stroke:midnightblue;" points="763.299,-68.5125 753,-71 762.602,-75.4778 763.299,-68.5125"/>
</g>
<!-- Node17&#45;&gt;Node12 -->
<g id="edge70" class="edge"><title>Node17&#45;&gt;Node12</title>
<path style="fill:none;stroke:midnightblue;" d="M1232,-117C994,-104 446,-78 258,-69"/>
<polygon style="fill:midnightblue;stroke:midnightblue;" points="258,-65.5001 248,-69 258,-72.5001 258,-65.5001"/>
</g>
<!-- Node18 -->
<g id="node47" class="node"><title>Node18</title>
<polygon style="fill:white;stroke:#bfbfbf;" points="1442,-56 1442,-76 1516,-76 1516,-56 1442,-56"/>
<text text-anchor="middle" x="1479" y="-63" style="font-family:Arial;font-size:10.00;">logog/logog.h</text>
</g>
<!-- Node17&#45;&gt;Node18 -->
<g id="edge58" class="edge"><title>Node17&#45;&gt;Node18</title>
<path style="fill:none;stroke:midnightblue;" d="M1368,-112C1390,-103 1421,-90 1445,-80"/>
<polygon style="fill:midnightblue;stroke:midnightblue;" points="1447.02,-82.9636 1455,-76 1444.42,-76.4643 1447.02,-82.9636"/>
</g>
<!-- Node19 -->
<g id="node49" class="node"><title>Node19</title>
<polygon style="fill:white;stroke:#bfbfbf;" points="1118,-56 1118,-76 1147,-76 1147,-56 1118,-56"/>
<text text-anchor="middle" x="1132" y="-63" style="font-family:Arial;font-size:10.00;">list</text>
</g>
<!-- Node17&#45;&gt;Node19 -->
<g id="edge60" class="edge"><title>Node17&#45;&gt;Node19</title>
<path style="fill:none;stroke:midnightblue;" d="M1293,-112C1256,-104 1206,-93 1157,-76"/>
<polygon style="fill:midnightblue;stroke:midnightblue;" points="1157.58,-72.5212 1147,-73 1155.57,-79.2259 1157.58,-72.5212"/>
</g>
<!-- Node20 -->
<g id="node53" class="node"><title>Node20</title>
<polygon style="fill:white;stroke:#bfbfbf;" points="1164,-56 1164,-76 1241,-76 1241,-56 1164,-56"/>
<text text-anchor="middle" x="1202" y="-63" style="font-family:Arial;font-size:10.00;">boost/any.hpp</text>
</g>
<!-- Node17&#45;&gt;Node20 -->
<g id="edge66" class="edge"><title>Node17&#45;&gt;Node20</title>
<path style="fill:none;stroke:midnightblue;" d="M1319,-112C1296,-103 1263,-90 1238,-80"/>
<polygon style="fill:midnightblue;stroke:midnightblue;" points="1238.58,-76.4643 1228,-76 1235.98,-82.9636 1238.58,-76.4643"/>
</g>
<!-- Node21 -->
<g id="node55" class="node"><title>Node21</title>
<polygon style="fill:white;stroke:#bfbfbf;" points="1258,-56 1258,-76 1387,-76 1387,-56 1258,-56"/>
<text text-anchor="middle" x="1322" y="-63" style="font-family:Arial;font-size:10.00;">boost/unordered_map.hpp</text>
</g>
<!-- Node17&#45;&gt;Node21 -->
<g id="edge68" class="edge"><title>Node17&#45;&gt;Node21</title>
<path style="fill:none;stroke:midnightblue;" d="M1340,-112C1337,-105 1333,-95 1330,-85"/>
<polygon style="fill:midnightblue;stroke:midnightblue;" points="1333.26,-83.7166 1326,-76 1326.86,-86.5596 1333.26,-83.7166"/>
</g>
<!-- Node22&#45;&gt;Node3 -->
<g id="edge82" class="edge"><title>Node22&#45;&gt;Node3</title>
<path style="fill:none;stroke:midnightblue;" d="M817,-280C838,-243 913,-115 1013,-56 1041,-38 1135,-22 1184,-15"/>
<polygon style="fill:midnightblue;stroke:midnightblue;" points="1184.88,-18.3933 1194,-13 1183.51,-11.5292 1184.88,-18.3933"/>
</g>
<!-- Node22&#45;&gt;Node4 -->
<g id="edge80" class="edge"><title>Node22&#45;&gt;Node4</title>
<path style="fill:none;stroke:midnightblue;" d="M860,-288C927,-285 1044,-275 1071,-244 1108,-199 1090,-122 1078,-86"/>
<polygon style="fill:midnightblue;stroke:midnightblue;" points="1081.23,-84.5725 1075,-76 1074.52,-86.584 1081.23,-84.5725"/>
</g>
<!-- Node22&#45;&gt;Node6 -->
<g id="edge84" class="edge"><title>Node22&#45;&gt;Node6</title>
<path style="fill:none;stroke:midnightblue;" d="M765,-287C671,-282 470,-267 449,-244 428,-219 475,-126 496,-85"/>
<polygon style="fill:midnightblue;stroke:midnightblue;" points="499.203,-86.4414 501,-76 493.084,-83.0418 499.203,-86.4414"/>
</g>
<!-- Node22&#45;&gt;Node8 -->
<g id="edge86" class="edge"><title>Node22&#45;&gt;Node8</title>
<path style="fill:none;stroke:midnightblue;" d="M814,-280C817,-258 823,-205 805,-168 799,-156 788,-146 779,-138"/>
<polygon style="fill:midnightblue;stroke:midnightblue;" points="781.1,-135.2 771,-132 776.9,-140.8 781.1,-135.2"/>
</g>
<!-- Node22&#45;&gt;Node15 -->
<g id="edge116" class="edge"><title>Node22&#45;&gt;Node15</title>
<path style="fill:none;stroke:midnightblue;" d="M847,-280C880,-271 929,-257 964,-247"/>
<polygon style="fill:midnightblue;stroke:midnightblue;" points="965.427,-250.226 974,-244 963.416,-243.521 965.427,-250.226"/>
</g>
<!-- Node23 -->
<g id="node62" class="node"><title>Node23</title>
<polygon style="fill:white;stroke:#bfbfbf;" points="458,-224 458,-244 509,-244 509,-224 458,-224"/>
<text text-anchor="middle" x="483" y="-231" style="font-family:Arial;font-size:10.00;">sstream</text>
</g>
<!-- Node22&#45;&gt;Node23 -->
<g id="edge78" class="edge"><title>Node22&#45;&gt;Node23</title>
<path style="fill:none;stroke:midnightblue;" d="M765,-284C707,-276 607,-261 522,-244 521,-244 520,-244 519,-243"/>
<polygon style="fill:midnightblue;stroke:midnightblue;" points="519.492,-239.529 509,-241 518.119,-246.393 519.492,-239.529"/>
</g>
<!-- Node24 -->
<g id="node68" class="node"><title>Node24</title>
<a xlink:href="object__list_8h.html" target="_top" xlink:title="ltr/data/object_list.h">
<polygon style="fill:white;stroke:black;" points="534,-168 534,-188 636,-188 636,-168 534,-168"/>
<text text-anchor="middle" x="585" y="-175" style="font-family:Arial;font-size:10.00;">ltr/data/object_list.h</text>
</a>
</g>
<!-- Node22&#45;&gt;Node24 -->
<g id="edge88" class="edge"><title>Node22&#45;&gt;Node24</title>
<path style="fill:none;stroke:midnightblue;" d="M765,-286C707,-281 616,-268 593,-244 583,-232 581,-213 582,-198"/>
<polygon style="fill:midnightblue;stroke:midnightblue;" points="585.488,-198.299 583,-188 578.522,-197.602 585.488,-198.299"/>
</g>
<!-- Node25 -->
<g id="node76" class="node"><title>Node25</title>
<a xlink:href="object__pair_8h.html" target="_top" xlink:title="ltr/data/object_pair.h">
<polygon style="fill:white;stroke:black;" points="692,-168 692,-188 796,-188 796,-168 692,-168"/>
<text text-anchor="middle" x="744" y="-175" style="font-family:Arial;font-size:10.00;">ltr/data/object_pair.h</text>
</a>
</g>
<!-- Node22&#45;&gt;Node25 -->
<g id="edge102" class="edge"><title>Node22&#45;&gt;Node25</title>
<path style="fill:none;stroke:midnightblue;" d="M806,-280C795,-261 770,-221 755,-197"/>
<polygon style="fill:midnightblue;stroke:midnightblue;" points="757.916,-195.042 750,-188 751.797,-198.441 757.916,-195.042"/>
</g>
<!-- Node26 -->
<g id="node85" class="node"><title>Node26</title>
<a xlink:href="per__object__accessor_8h.html" target="_top" xlink:title="ltr/data/per_object_accessor.h">
<polygon style="fill:white;stroke:black;" points="602,-224 602,-244 749,-244 749,-224 602,-224"/>
<text text-anchor="middle" x="675" y="-231" style="font-family:Arial;font-size:10.00;">ltr/data/per_object_accessor.h</text>
</a>
</g>
<!-- Node22&#45;&gt;Node26 -->
<g id="edge118" class="edge"><title>Node22&#45;&gt;Node26</title>
<path style="fill:none;stroke:midnightblue;" d="M788,-280C766,-271 734,-258 709,-248"/>
<polygon style="fill:midnightblue;stroke:midnightblue;" points="710.56,-244.863 700,-244 707.717,-251.26 710.56,-244.863"/>
</g>
<!-- Node27 -->
<g id="node92" class="node"><title>Node27</title>
<a xlink:href="aliaser_8h.html" target="_top" xlink:title="ltr/interfaces/aliaser.h">
<polygon style="fill:white;stroke:black;" points="1610,-224 1610,-244 1718,-244 1718,-224 1610,-224"/>
<text text-anchor="middle" x="1664" y="-231" style="font-family:Arial;font-size:10.00;">ltr/interfaces/aliaser.h</text>
</a>
</g>
<!-- Node22&#45;&gt;Node27 -->
<g id="edge130" class="edge"><title>Node22&#45;&gt;Node27</title>
<path style="fill:none;stroke:midnightblue;" d="M860,-287C976,-280 1275,-261 1525,-244 1549,-242 1576,-240 1600,-238"/>
<polygon style="fill:midnightblue;stroke:midnightblue;" points="1600,-241.5 1610,-238 1600,-234.5 1600,-241.5"/>
</g>
<!-- Node24&#45;&gt;Node3 -->
<g id="edge92" class="edge"><title>Node24&#45;&gt;Node3</title>
<path style="fill:none;stroke:midnightblue;" d="M585,-168C586,-144 591,-84 627,-56 671,-21 1070,-13 1184,-10"/>
<polygon style="fill:midnightblue;stroke:midnightblue;" points="1184,-13.5001 1194,-10 1184,-6.5001 1184,-13.5001"/>
</g>
<!-- Node24&#45;&gt;Node4 -->
<g id="edge90" class="edge"><title>Node24&#45;&gt;Node4</title>
<path style="fill:none;stroke:midnightblue;" d="M635,-168C680,-159 747,-145 805,-132 886,-113 980,-89 1032,-76"/>
<polygon style="fill:midnightblue;stroke:midnightblue;" points="1033.43,-79.2259 1042,-73 1031.42,-72.5212 1033.43,-79.2259"/>
</g>
<!-- Node24&#45;&gt;Node6 -->
<g id="edge94" class="edge"><title>Node24&#45;&gt;Node6</title>
<path style="fill:none;stroke:midnightblue;" d="M578,-168C565,-148 536,-109 520,-84"/>
<polygon style="fill:midnightblue;stroke:midnightblue;" points="522.8,-81.9 514,-76 517.2,-86.1 522.8,-81.9"/>
</g>
<!-- Node24&#45;&gt;Node8 -->
<g id="edge96" class="edge"><title>Node24&#45;&gt;Node8</title>
<path style="fill:none;stroke:midnightblue;" d="M615,-168C643,-159 684,-145 714,-135"/>
<polygon style="fill:midnightblue;stroke:midnightblue;" points="715.427,-138.226 724,-132 713.416,-131.521 715.427,-138.226"/>
</g>
<!-- Node24&#45;&gt;Node11 -->
<g id="edge98" class="edge"><title>Node24&#45;&gt;Node11</title>
<path style="fill:none;stroke:midnightblue;" d="M595,-168C614,-148 654,-107 677,-83"/>
<polygon style="fill:midnightblue;stroke:midnightblue;" points="679.404,-85.546 684,-76 674.454,-80.5962 679.404,-85.546"/>
</g>
<!-- Node24&#45;&gt;Node12 -->
<g id="edge100" class="edge"><title>Node24&#45;&gt;Node12</title>
<path style="fill:none;stroke:midnightblue;" d="M534,-170C529,-169 525,-169 520,-168 403,-150 362,-186 256,-132 235,-121 218,-100 207,-84"/>
<polygon style="fill:midnightblue;stroke:midnightblue;" points="209.8,-81.9 201,-76 204.2,-86.1 209.8,-81.9"/>
</g>
<!-- Node25&#45;&gt;Node3 -->
<g id="edge106" class="edge"><title>Node25&#45;&gt;Node3</title>
<path style="fill:none;stroke:midnightblue;" d="M758,-168C791,-144 879,-85 962,-56 1039,-28 1135,-17 1184,-12"/>
<polygon style="fill:midnightblue;stroke:midnightblue;" points="1184.4,-15.4778 1194,-11 1183.7,-8.5125 1184.4,-15.4778"/>
</g>
<!-- Node25&#45;&gt;Node4 -->
<g id="edge104" class="edge"><title>Node25&#45;&gt;Node4</title>
<path style="fill:none;stroke:midnightblue;" d="M786,-168C821,-159 871,-146 914,-132 958,-117 1009,-95 1040,-80"/>
<polygon style="fill:midnightblue;stroke:midnightblue;" points="1041.28,-83.2598 1049,-76 1038.44,-76.8631 1041.28,-83.2598"/>
</g>
<!-- Node25&#45;&gt;Node6 -->
<g id="edge108" class="edge"><title>Node25&#45;&gt;Node6</title>
<path style="fill:none;stroke:midnightblue;" d="M723,-168C680,-147 586,-103 537,-80"/>
<polygon style="fill:midnightblue;stroke:midnightblue;" points="538.56,-76.8631 528,-76 535.717,-83.2598 538.56,-76.8631"/>
</g>
<!-- Node25&#45;&gt;Node8 -->
<g id="edge110" class="edge"><title>Node25&#45;&gt;Node8</title>
<path style="fill:none;stroke:midnightblue;" d="M746,-168C747,-161 749,-151 751,-142"/>
<polygon style="fill:midnightblue;stroke:midnightblue;" points="754.488,-142.299 752,-132 747.522,-141.602 754.488,-142.299"/>
</g>
<!-- Node25&#45;&gt;Node11 -->
<g id="edge112" class="edge"><title>Node25&#45;&gt;Node11</title>
<path style="fill:none;stroke:midnightblue;" d="M732,-168C722,-159 709,-146 703,-132 696,-118 694,-100 693,-86"/>
<polygon style="fill:midnightblue;stroke:midnightblue;" points="696.5,-86 693,-76 689.5,-86 696.5,-86"/>
</g>
<!-- Node25&#45;&gt;Node12 -->
<g id="edge114" class="edge"><title>Node25&#45;&gt;Node12</title>
<path style="fill:none;stroke:midnightblue;" d="M692,-173C572,-161 289,-132 289,-132 281,-128 242,-101 216,-82"/>
<polygon style="fill:midnightblue;stroke:midnightblue;" points="218.1,-79.2 208,-76 213.9,-84.8 218.1,-79.2"/>
</g>
<!-- Node26&#45;&gt;Node8 -->
<g id="edge120" class="edge"><title>Node26&#45;&gt;Node8</title>
<path style="fill:none;stroke:midnightblue;" d="M674,-224C672,-210 672,-185 683,-168 691,-154 705,-144 718,-137"/>
<polygon style="fill:midnightblue;stroke:midnightblue;" points="719.958,-139.916 727,-132 716.559,-133.797 719.958,-139.916"/>
</g>
<!-- Node26&#45;&gt;Node12 -->
<g id="edge128" class="edge"><title>Node26&#45;&gt;Node12</title>
<path style="fill:none;stroke:midnightblue;" d="M617,-224C489,-202 194,-148 180,-132 169,-118 175,-99 182,-85"/>
<polygon style="fill:midnightblue;stroke:midnightblue;" points="185.203,-86.4414 187,-76 179.084,-83.0418 185.203,-86.4414"/>
</g>
<!-- Node26&#45;&gt;Node16 -->
<g id="edge126" class="edge"><title>Node26&#45;&gt;Node16</title>
<path style="fill:none;stroke:midnightblue;" d="M749,-226C853,-215 1039,-197 1146,-186"/>
<polygon style="fill:midnightblue;stroke:midnightblue;" points="1146.4,-189.478 1156,-185 1145.7,-182.512 1146.4,-189.478"/>
</g>
<!-- Node26&#45;&gt;Node24 -->
<g id="edge124" class="edge"><title>Node26&#45;&gt;Node24</title>
<path style="fill:none;stroke:midnightblue;" d="M659,-224C646,-216 626,-203 610,-193"/>
<polygon style="fill:midnightblue;stroke:midnightblue;" points="611.441,-189.797 601,-188 608.042,-195.916 611.441,-189.797"/>
</g>
<!-- Node26&#45;&gt;Node25 -->
<g id="edge122" class="edge"><title>Node26&#45;&gt;Node25</title>
<path style="fill:none;stroke:midnightblue;" d="M687,-224C697,-216 712,-205 723,-195"/>
<polygon style="fill:midnightblue;stroke:midnightblue;" points="725.779,-197.219 731,-188 721.169,-191.951 725.779,-197.219"/>
</g>
<!-- Node27&#45;&gt;Node3 -->
<g id="edge132" class="edge"><title>Node27&#45;&gt;Node3</title>
<path style="fill:none;stroke:midnightblue;" d="M1666,-224C1671,-193 1682,-101 1634,-56 1605,-29 1336,-15 1244,-11"/>
<polygon style="fill:midnightblue;stroke:midnightblue;" points="1244,-7.5001 1234,-11 1244,-14.5001 1244,-7.5001"/>
</g>
<!-- Node28&#45;&gt;Node3 -->
<g id="edge136" class="edge"><title>Node28&#45;&gt;Node3</title>
<path style="fill:none;stroke:midnightblue;" d="M359,-112C383,-97 432,-68 477,-56 614,-19 1063,-11 1184,-10"/>
<polygon style="fill:midnightblue;stroke:midnightblue;" points="1184,-13.5001 1194,-10 1184,-6.5001 1184,-13.5001"/>
</g>
<!-- Node28&#45;&gt;Node6 -->
<g id="edge138" class="edge"><title>Node28&#45;&gt;Node6</title>
<path style="fill:none;stroke:midnightblue;" d="M373,-112C402,-102 447,-87 476,-76"/>
<polygon style="fill:midnightblue;stroke:midnightblue;" points="477.427,-79.2259 486,-73 475.416,-72.5212 477.427,-79.2259"/>
</g>
<!-- Node28&#45;&gt;Node12 -->
<g id="edge140" class="edge"><title>Node28&#45;&gt;Node12</title>
<path style="fill:none;stroke:midnightblue;" d="M317,-112C293,-103 257,-90 231,-80"/>
<polygon style="fill:midnightblue;stroke:midnightblue;" points="231.585,-76.4643 221,-76 228.985,-82.9636 231.585,-76.4643"/>
</g>
<!-- Node29&#45;&gt;Node3 -->
<g id="edge148" class="edge"><title>Node29&#45;&gt;Node3</title>
<path style="fill:none;stroke:midnightblue;" d="M1025,-336C1064,-328 1118,-316 1164,-300 1237,-274 1250,-256 1321,-224 1410,-181 1456,-204 1524,-132 1542,-112 1540,-102 1545,-76 1546,-67 1550,-62 1545,-56 1525,-33 1322,-17 1244,-12"/>
<polygon style="fill:midnightblue;stroke:midnightblue;" points="1244.3,-8.5125 1234,-11 1243.6,-15.4778 1244.3,-8.5125"/>
</g>
<!-- Node29&#45;&gt;Node4 -->
<g id="edge150" class="edge"><title>Node29&#45;&gt;Node4</title>
<path style="fill:none;stroke:midnightblue;" d="M1011,-336C1058,-322 1128,-291 1128,-234 1128,-234 1128,-234 1128,-178 1128,-141 1104,-105 1087,-84"/>
<polygon style="fill:midnightblue;stroke:midnightblue;" points="1089.22,-81.221 1080,-76 1083.95,-85.8306 1089.22,-81.221"/>
</g>
<!-- Node29&#45;&gt;Node6 -->
<g id="edge146" class="edge"><title>Node29&#45;&gt;Node6</title>
<path style="fill:none;stroke:midnightblue;" d="M874,-342C737,-333 495,-309 441,-244 401,-194 459,-118 490,-84"/>
<polygon style="fill:midnightblue;stroke:midnightblue;" points="493.049,-85.8306 497,-76 487.781,-81.221 493.049,-85.8306"/>
</g>
<!-- Node29&#45;&gt;Node8 -->
<g id="edge156" class="edge"><title>Node29&#45;&gt;Node8</title>
<path style="fill:none;stroke:midnightblue;" d="M966,-336C958,-306 930,-217 876,-168 864,-157 828,-144 799,-135"/>
<polygon style="fill:midnightblue;stroke:midnightblue;" points="799.584,-131.521 789,-132 797.573,-138.226 799.584,-131.521"/>
</g>
<!-- Node29&#45;&gt;Node12 -->
<g id="edge178" class="edge"><title>Node29&#45;&gt;Node12</title>
<path style="fill:none;stroke:midnightblue;" d="M874,-341C757,-334 566,-320 497,-300 342,-253 257,-270 172,-132 163,-117 171,-98 179,-84"/>
<polygon style="fill:midnightblue;stroke:midnightblue;" points="181.8,-86.1 185,-76 176.2,-81.9 181.8,-86.1"/>
</g>
<!-- Node29&#45;&gt;Node15 -->
<g id="edge154" class="edge"><title>Node29&#45;&gt;Node15</title>
<path style="fill:none;stroke:midnightblue;" d="M973,-336C980,-317 994,-278 1002,-254"/>
<polygon style="fill:midnightblue;stroke:midnightblue;" points="1005.48,-254.584 1005,-244 998.774,-252.573 1005.48,-254.584"/>
</g>
<!-- Node29&#45;&gt;Node16 -->
<g id="edge160" class="edge"><title>Node29&#45;&gt;Node16</title>
<path style="fill:none;stroke:midnightblue;" d="M1051,-336C1082,-329 1115,-318 1142,-300 1179,-273 1206,-225 1219,-197"/>
<polygon style="fill:midnightblue;stroke:midnightblue;" points="1222.14,-198.56 1223,-188 1215.74,-195.717 1222.14,-198.56"/>
</g>
<!-- Node29&#45;&gt;Node22 -->
<g id="edge152" class="edge"><title>Node29&#45;&gt;Node22</title>
<path style="fill:none;stroke:midnightblue;" d="M941,-336C916,-327 878,-313 850,-303"/>
<polygon style="fill:midnightblue;stroke:midnightblue;" points="850.584,-299.521 840,-300 848.573,-306.226 850.584,-299.521"/>
</g>
<!-- Node29&#45;&gt;Node26 -->
<g id="edge158" class="edge"><title>Node29&#45;&gt;Node26</title>
<path style="fill:none;stroke:midnightblue;" d="M880,-336C841,-329 794,-318 756,-300 730,-287 706,-266 691,-251"/>
<polygon style="fill:midnightblue;stroke:midnightblue;" points="693.546,-248.596 684,-244 688.596,-253.546 693.546,-248.596"/>
</g>
<!-- Node29&#45;&gt;Node27 -->
<g id="edge176" class="edge"><title>Node29&#45;&gt;Node27</title>
<path style="fill:none;stroke:midnightblue;" d="M1064,-344C1208,-341 1472,-330 1562,-300 1593,-289 1625,-266 1644,-251"/>
<polygon style="fill:midnightblue;stroke:midnightblue;" points="1646.78,-253.219 1652,-244 1642.17,-247.951 1646.78,-253.219"/>
</g>
<!-- Node30 -->
<g id="node111" class="node"><title>Node30</title>
<a xlink:href="serializable_8h.html" target="_top" xlink:title="ltr/interfaces/serializable.h">
<polygon style="fill:white;stroke:black;" points="1425,-280 1425,-300 1554,-300 1554,-280 1425,-280"/>
<text text-anchor="middle" x="1489" y="-287" style="font-family:Arial;font-size:10.00;">ltr/interfaces/serializable.h</text>
</a>
</g>
<!-- Node29&#45;&gt;Node30 -->
<g id="edge162" class="edge"><title>Node29&#45;&gt;Node30</title>
<path style="fill:none;stroke:midnightblue;" d="M1062,-336C1163,-325 1322,-308 1415,-298"/>
<polygon style="fill:midnightblue;stroke:midnightblue;" points="1415.4,-301.478 1425,-297 1414.7,-294.512 1415.4,-301.478"/>
</g>
<!-- Node30&#45;&gt;Node2 -->
<g id="edge164" class="edge"><title>Node30&#45;&gt;Node2</title>
<path style="fill:none;stroke:midnightblue;" d="M1471,-280C1455,-271 1432,-259 1414,-249"/>
<polygon style="fill:midnightblue;stroke:midnightblue;" points="1415.44,-245.797 1405,-244 1412.04,-251.916 1415.44,-245.797"/>
</g>
<!-- Node30&#45;&gt;Node3 -->
<g id="edge168" class="edge"><title>Node30&#45;&gt;Node3</title>
<path style="fill:none;stroke:midnightblue;" d="M1506,-280C1532,-264 1578,-230 1596,-188 1619,-134 1634,-99 1596,-56 1572,-30 1330,-15 1244,-11"/>
<polygon style="fill:midnightblue;stroke:midnightblue;" points="1244,-7.5001 1234,-11 1244,-14.5001 1244,-7.5001"/>
</g>
<!-- Node30&#45;&gt;Node12 -->
<g id="edge172" class="edge"><title>Node30&#45;&gt;Node12</title>
<path style="fill:none;stroke:midnightblue;" d="M1425,-289C1247,-285 753,-271 593,-244 583,-242 219,-139 211,-132 199,-120 195,-101 194,-86"/>
<polygon style="fill:midnightblue;stroke:midnightblue;" points="197.5,-86 194,-76 190.5,-86 197.5,-86"/>
</g>
<!-- Node30&#45;&gt;Node18 -->
<g id="edge166" class="edge"><title>Node30&#45;&gt;Node18</title>
<path style="fill:none;stroke:midnightblue;" d="M1500,-280C1509,-271 1520,-258 1525,-244 1527,-235 1526,-232 1525,-224 1517,-172 1497,-115 1486,-86"/>
<polygon style="fill:midnightblue;stroke:midnightblue;" points="1489.23,-84.5725 1483,-76 1482.52,-86.584 1489.23,-84.5725"/>
</g>
<!-- Node30&#45;&gt;Node27 -->
<g id="edge174" class="edge"><title>Node30&#45;&gt;Node27</title>
<path style="fill:none;stroke:midnightblue;" d="M1520,-280C1549,-271 1592,-257 1623,-247"/>
<polygon style="fill:midnightblue;stroke:midnightblue;" points="1624.43,-250.226 1633,-244 1622.42,-243.521 1624.43,-250.226"/>
</g>
<!-- Node31 -->
<g id="node116" class="node"><title>Node31</title>
<polygon style="fill:white;stroke:#bfbfbf;" points="1462,-224 1462,-244 1516,-244 1516,-224 1462,-224"/>
<text text-anchor="middle" x="1489" y="-231" style="font-family:Arial;font-size:10.00;">iostream</text>
</g>
<!-- Node30&#45;&gt;Node31 -->
<g id="edge170" class="edge"><title>Node30&#45;&gt;Node31</title>
<path style="fill:none;stroke:midnightblue;" d="M1489,-280C1489,-273 1489,-263 1489,-254"/>
<polygon style="fill:midnightblue;stroke:midnightblue;" points="1492.5,-254 1489,-244 1485.5,-254 1492.5,-254"/>
</g>
</g>
</svg>
