<?xml version="1.0" encoding="UTF-8" standalone="no"?>
<!DOCTYPE svg PUBLIC "-//W3C//DTD SVG 1.0//EN"
 "http://www.w3.org/TR/2001/REC-SVG-20010904/DTD/svg10.dtd" [
 <!ATTLIST svg xmlns:xlink CDATA #FIXED "http://www.w3.org/1999/xlink">
]>
<!-- Generated by Graphviz version 2.20.2 (Tue Mar &#160;2 19:03:41 UTC 2010)
     For user: (jenkins)  -->
<!-- Title: G Pages: 1 -->
<svg width="2222pt" height="476pt"
 viewBox="0.00 0.00 2222.00 476.00" xmlns="http://www.w3.org/2000/svg" xmlns:xlink="http://www.w3.org/1999/xlink">
<g id="graph0" class="graph" transform="scale(1 1) rotate(0) translate(4 472)">
<title>G</title>
<polygon style="fill:white;stroke:white;" points="-4,4 -4,-472 2218,-472 2218,4 -4,4"/>
<!-- Node1 -->
<g id="node1" class="node"><title>Node1</title>
<polygon style="fill:#bfbfbf;stroke:black;" points="1048,-448 1048,-468 1268,-468 1268,-448 1048,-448"/>
<text text-anchor="middle" x="1158" y="-455" style="font-family:Arial;font-size:10.00;">ltr/feature_converters/feature_sampler_learner.h</text>
</g>
<!-- Node2 -->
<g id="node3" class="node"><title>Node2</title>
<polygon style="fill:white;stroke:#bfbfbf;" points="0,-392 0,-412 30,-412 30,-392 0,-392"/>
<text text-anchor="middle" x="15" y="-399" style="font-family:Arial;font-size:10.00;">set</text>
</g>
<!-- Node1&#45;&gt;Node2 -->
<g id="edge2" class="edge"><title>Node1&#45;&gt;Node2</title>
<path style="fill:none;stroke:midnightblue;" d="M1048,-457C806,-455 234,-447 44,-412 43,-412 41,-411 40,-411"/>
<polygon style="fill:midnightblue;stroke:midnightblue;" points="40.584,-407.521 30,-408 38.5725,-414.226 40.584,-407.521"/>
</g>
<!-- Node3 -->
<g id="node5" class="node"><title>Node3</title>
<polygon style="fill:white;stroke:#bfbfbf;" points="1358,-56 1358,-76 1400,-76 1400,-56 1358,-56"/>
<text text-anchor="middle" x="1379" y="-63" style="font-family:Arial;font-size:10.00;">vector</text>
</g>
<!-- Node1&#45;&gt;Node3 -->
<g id="edge4" class="edge"><title>Node1&#45;&gt;Node3</title>
<path style="fill:none;stroke:midnightblue;" d="M1268,-450C1456,-436 1818,-401 1818,-346 1818,-346 1818,-346 1818,-290 1818,-180 1743,-163 1647,-112 1636,-105 1479,-82 1410,-71"/>
<polygon style="fill:midnightblue;stroke:midnightblue;" points="1410.49,-67.5292 1400,-69 1409.12,-74.3933 1410.49,-67.5292"/>
</g>
<!-- Node4 -->
<g id="node7" class="node"><title>Node4</title>
<polygon style="fill:white;stroke:#bfbfbf;" points="946,-56 946,-76 1005,-76 1005,-56 946,-56"/>
<text text-anchor="middle" x="975" y="-63" style="font-family:Arial;font-size:10.00;">stdexcept</text>
</g>
<!-- Node1&#45;&gt;Node4 -->
<g id="edge6" class="edge"><title>Node1&#45;&gt;Node4</title>
<path style="fill:none;stroke:midnightblue;" d="M1048,-449C868,-434 532,-397 532,-346 532,-346 532,-346 532,-290 532,-199 828,-107 936,-77"/>
<polygon style="fill:midnightblue;stroke:midnightblue;" points="937.427,-80.2259 946,-74 935.416,-73.5212 937.427,-80.2259"/>
</g>
<!-- Node5 -->
<g id="node9" class="node"><title>Node5</title>
<polygon style="fill:white;stroke:#bfbfbf;" points="1031,-0 1031,-20 1071,-20 1071,-0 1031,-0"/>
<text text-anchor="middle" x="1051" y="-7" style="font-family:Arial;font-size:10.00;">string</text>
</g>
<!-- Node1&#45;&gt;Node5 -->
<g id="edge8" class="edge"><title>Node1&#45;&gt;Node5</title>
<path style="fill:none;stroke:midnightblue;" d="M1048,-452C769,-438 58,-395 58,-346 58,-346 58,-346 58,-122 58,-75 96,-72 139,-56 223,-23 871,-13 1021,-10"/>
<polygon style="fill:midnightblue;stroke:midnightblue;" points="1021,-13.5001 1031,-10 1021,-6.5001 1021,-13.5001"/>
</g>
<!-- Node6 -->
<g id="node11" class="node"><title>Node6</title>
<polygon style="fill:white;stroke:#bfbfbf;" points="602,-224 602,-244 653,-244 653,-224 602,-224"/>
<text text-anchor="middle" x="627" y="-231" style="font-family:Arial;font-size:10.00;">sstream</text>
</g>
<!-- Node1&#45;&gt;Node6 -->
<g id="edge10" class="edge"><title>Node1&#45;&gt;Node6</title>
<path style="fill:none;stroke:midnightblue;" d="M1097,-448C1003,-430 818,-387 686,-300 667,-288 650,-268 640,-253"/>
<polygon style="fill:midnightblue;stroke:midnightblue;" points="642.459,-250.379 634,-244 636.635,-254.262 642.459,-250.379"/>
</g>
<!-- Node7 -->
<g id="node13" class="node"><title>Node7</title>
<a xlink:href="feature__converter__learner_8h.html" target="_top" xlink:title="ltr/feature_converters/feature_converter_learner.h">
<polygon style="fill:white;stroke:black;" points="1046,-392 1046,-412 1271,-412 1271,-392 1046,-392"/>
<text text-anchor="middle" x="1158" y="-399" style="font-family:Arial;font-size:10.00;">ltr/feature_converters/feature_converter_learner.h</text>
</a>
</g>
<!-- Node1&#45;&gt;Node7 -->
<g id="edge12" class="edge"><title>Node1&#45;&gt;Node7</title>
<path style="fill:none;stroke:midnightblue;" d="M1158,-448C1158,-441 1158,-431 1158,-422"/>
<polygon style="fill:midnightblue;stroke:midnightblue;" points="1161.5,-422 1158,-412 1154.5,-422 1161.5,-422"/>
</g>
<!-- Node13 -->
<g id="node35" class="node"><title>Node13</title>
<a xlink:href="shared__ptr_8h.html" target="_top" xlink:title="ltr/utility/shared_ptr.h">
<polygon style="fill:white;stroke:black;" points="1841,-56 1841,-76 1948,-76 1948,-56 1841,-56"/>
<text text-anchor="middle" x="1894" y="-63" style="font-family:Arial;font-size:10.00;">ltr/utility/shared_ptr.h</text>
</a>
</g>
<!-- Node1&#45;&gt;Node13 -->
<g id="edge202" class="edge"><title>Node1&#45;&gt;Node13</title>
<path style="fill:none;stroke:midnightblue;" d="M1268,-455C1493,-448 1987,-431 2062,-412 2127,-395 2198,-413 2198,-346 2198,-346 2198,-346 2198,-290 2198,-210 2230,-169 2175,-112 2145,-81 2032,-71 1958,-67"/>
<polygon style="fill:midnightblue;stroke:midnightblue;" points="1958,-63.5001 1948,-67 1958,-70.5001 1958,-63.5001"/>
</g>
<!-- Node32 -->
<g id="node119" class="node"><title>Node32</title>
<a xlink:href="feature__sampler_8h.html" target="_top" xlink:title="ltr/feature_converters/feature_sampler.h">
<polygon style="fill:white;stroke:black;" points="1846,-392 1846,-412 2032,-412 2032,-392 1846,-392"/>
<text text-anchor="middle" x="1939" y="-399" style="font-family:Arial;font-size:10.00;">ltr/feature_converters/feature_sampler.h</text>
</a>
</g>
<!-- Node1&#45;&gt;Node32 -->
<g id="edge174" class="edge"><title>Node1&#45;&gt;Node32</title>
<path style="fill:none;stroke:midnightblue;" d="M1268,-451C1402,-443 1633,-428 1832,-412 1833,-412 1835,-412 1836,-412"/>
<polygon style="fill:midnightblue;stroke:midnightblue;" points="1836.4,-415.478 1846,-411 1835.7,-408.512 1836.4,-415.478"/>
</g>
<!-- Node33 -->
<g id="node127" class="node"><title>Node33</title>
<a xlink:href="indices_8h.html" target="_top" xlink:title="ltr/utility/indices.h">
<polygon style="fill:white;stroke:black;" points="2074,-112 2074,-132 2167,-132 2167,-112 2074,-112"/>
<text text-anchor="middle" x="2120" y="-119" style="font-family:Arial;font-size:10.00;">ltr/utility/indices.h</text>
</a>
</g>
<!-- Node1&#45;&gt;Node33 -->
<g id="edge200" class="edge"><title>Node1&#45;&gt;Node33</title>
<path style="fill:none;stroke:midnightblue;" d="M1268,-455C1498,-448 2008,-431 2041,-412 2135,-358 2128,-198 2122,-142"/>
<polygon style="fill:midnightblue;stroke:midnightblue;" points="2125.48,-141.602 2121,-132 2118.51,-142.299 2125.48,-141.602"/>
</g>
<!-- Node7&#45;&gt;Node3 -->
<g id="edge14" class="edge"><title>Node7&#45;&gt;Node3</title>
<path style="fill:none;stroke:midnightblue;" d="M1107,-392C1087,-385 1066,-374 1054,-356 1049,-348 1051,-344 1054,-336 1093,-207 1141,-181 1257,-112 1286,-94 1323,-81 1348,-74"/>
<polygon style="fill:midnightblue;stroke:midnightblue;" points="1349.43,-77.2259 1358,-71 1347.42,-70.5212 1349.43,-77.2259"/>
</g>
<!-- Node8 -->
<g id="node16" class="node"><title>Node8</title>
<a xlink:href="data__set_8h.html" target="_top" xlink:title="ltr/data/data_set.h">
<polygon style="fill:white;stroke:black;" points="1188,-280 1188,-300 1283,-300 1283,-280 1188,-280"/>
<text text-anchor="middle" x="1235" y="-287" style="font-family:Arial;font-size:10.00;">ltr/data/data_set.h</text>
</a>
</g>
<!-- Node7&#45;&gt;Node8 -->
<g id="edge16" class="edge"><title>Node7&#45;&gt;Node8</title>
<path style="fill:none;stroke:midnightblue;" d="M1209,-392C1229,-385 1250,-374 1262,-356 1272,-341 1262,-322 1251,-308"/>
<polygon style="fill:midnightblue;stroke:midnightblue;" points="1253.8,-305.9 1245,-300 1248.2,-310.1 1253.8,-305.9"/>
</g>
<!-- Node12 -->
<g id="node31" class="node"><title>Node12</title>
<a xlink:href="printable_8h.html" target="_top" xlink:title="ltr/interfaces/printable.h">
<polygon style="fill:white;stroke:black;" points="1460,-56 1460,-76 1577,-76 1577,-56 1460,-56"/>
<text text-anchor="middle" x="1518" y="-63" style="font-family:Arial;font-size:10.00;">ltr/interfaces/printable.h</text>
</a>
</g>
<!-- Node7&#45;&gt;Node12 -->
<g id="edge168" class="edge"><title>Node7&#45;&gt;Node12</title>
<path style="fill:none;stroke:midnightblue;" d="M1264,-392C1365,-377 1515,-339 1605,-244 1647,-199 1682,-162 1647,-112 1638,-99 1603,-88 1572,-79"/>
<polygon style="fill:midnightblue;stroke:midnightblue;" points="1572.58,-75.5212 1562,-76 1570.57,-82.2259 1572.58,-75.5212"/>
</g>
<!-- Node7&#45;&gt;Node13 -->
<g id="edge172" class="edge"><title>Node7&#45;&gt;Node13</title>
<path style="fill:none;stroke:midnightblue;" d="M1271,-392C1326,-386 1392,-374 1450,-356 1637,-296 1680,-257 1831,-132 1849,-117 1867,-98 1879,-84"/>
<polygon style="fill:midnightblue;stroke:midnightblue;" points="1882.05,-85.8306 1886,-76 1876.78,-81.221 1882.05,-85.8306"/>
</g>
<!-- Node20 -->
<g id="node64" class="node"><title>Node20</title>
<a xlink:href="parameterized_8h.html" target="_top" xlink:title="ltr/interfaces/parameterized.h">
<polygon style="fill:white;stroke:black;" points="826,-168 826,-188 968,-188 968,-168 826,-168"/>
<text text-anchor="middle" x="897" y="-175" style="font-family:Arial;font-size:10.00;">ltr/interfaces/parameterized.h</text>
</a>
</g>
<!-- Node7&#45;&gt;Node20 -->
<g id="edge166" class="edge"><title>Node7&#45;&gt;Node20</title>
<path style="fill:none;stroke:midnightblue;" d="M1082,-392C942,-372 652,-322 593,-244 587,-236 587,-230 593,-224 600,-215 728,-198 816,-187"/>
<polygon style="fill:midnightblue;stroke:midnightblue;" points="816.398,-190.478 826,-186 815.701,-183.512 816.398,-190.478"/>
</g>
<!-- Node21 -->
<g id="node68" class="node"><title>Node21</title>
<a xlink:href="parameters__container_8h.html" target="_top" xlink:title="ltr/parameters_container/parameters_container.h">
<polygon style="fill:white;stroke:black;" points="324,-112 324,-132 549,-132 549,-112 324,-112"/>
<text text-anchor="middle" x="436" y="-119" style="font-family:Arial;font-size:10.00;">ltr/parameters_container/parameters_container.h</text>
</a>
</g>
<!-- Node7&#45;&gt;Node21 -->
<g id="edge170" class="edge"><title>Node7&#45;&gt;Node21</title>
<path style="fill:none;stroke:midnightblue;" d="M1046,-394C973,-387 877,-375 794,-356 722,-338 701,-337 638,-300 559,-254 483,-175 452,-140"/>
<polygon style="fill:midnightblue;stroke:midnightblue;" points="454.219,-137.221 445,-132 448.951,-141.831 454.219,-137.221"/>
</g>
<!-- Node28 -->
<g id="node93" class="node"><title>Node28</title>
<a xlink:href="feature__converter_8h.html" target="_top" xlink:title="ltr/feature_converters/feature_converter.h">
<polygon style="fill:white;stroke:black;" points="1063,-336 1063,-356 1253,-356 1253,-336 1063,-336"/>
<text text-anchor="middle" x="1158" y="-343" style="font-family:Arial;font-size:10.00;">ltr/feature_converters/feature_converter.h</text>
</a>
</g>
<!-- Node7&#45;&gt;Node28 -->
<g id="edge130" class="edge"><title>Node7&#45;&gt;Node28</title>
<path style="fill:none;stroke:midnightblue;" d="M1158,-392C1158,-385 1158,-375 1158,-366"/>
<polygon style="fill:midnightblue;stroke:midnightblue;" points="1161.5,-366 1158,-356 1154.5,-366 1161.5,-366"/>
</g>
<!-- Node8&#45;&gt;Node3 -->
<g id="edge24" class="edge"><title>Node8&#45;&gt;Node3</title>
<path style="fill:none;stroke:midnightblue;" d="M1239,-280C1253,-247 1298,-141 1322,-112 1331,-100 1343,-90 1354,-82"/>
<polygon style="fill:midnightblue;stroke:midnightblue;" points="1356.62,-84.4592 1363,-76 1352.74,-78.6349 1356.62,-84.4592"/>
</g>
<!-- Node8&#45;&gt;Node4 -->
<g id="edge20" class="edge"><title>Node8&#45;&gt;Node4</title>
<path style="fill:none;stroke:midnightblue;" d="M1188,-282C1159,-276 1122,-264 1096,-244 1039,-200 999,-122 983,-85"/>
<polygon style="fill:midnightblue;stroke:midnightblue;" points="986.26,-83.7166 979,-76 979.863,-86.5596 986.26,-83.7166"/>
</g>
<!-- Node8&#45;&gt;Node5 -->
<g id="edge22" class="edge"><title>Node8&#45;&gt;Node5</title>
<path style="fill:none;stroke:midnightblue;" d="M1192,-280C1171,-273 1146,-262 1129,-244 1070,-182 1055,-75 1052,-30"/>
<polygon style="fill:midnightblue;stroke:midnightblue;" points="1055.48,-29.6021 1051,-20 1048.51,-30.2987 1055.48,-29.6021"/>
</g>
<!-- Node8&#45;&gt;Node6 -->
<g id="edge18" class="edge"><title>Node8&#45;&gt;Node6</title>
<path style="fill:none;stroke:midnightblue;" d="M1188,-286C1071,-274 768,-247 663,-237"/>
<polygon style="fill:midnightblue;stroke:midnightblue;" points="663.299,-233.512 653,-236 662.602,-240.478 663.299,-233.512"/>
</g>
<!-- Node9 -->
<g id="node22" class="node"><title>Node9</title>
<a xlink:href="object_8h.html" target="_top" xlink:title="ltr/data/object.h">
<polygon style="fill:white;stroke:black;" points="1554,-112 1554,-132 1638,-132 1638,-112 1554,-112"/>
<text text-anchor="middle" x="1596" y="-119" style="font-family:Arial;font-size:10.00;">ltr/data/object.h</text>
</a>
</g>
<!-- Node8&#45;&gt;Node9 -->
<g id="edge26" class="edge"><title>Node8&#45;&gt;Node9</title>
<path style="fill:none;stroke:midnightblue;" d="M1283,-286C1370,-279 1547,-261 1569,-244 1598,-219 1600,-170 1598,-142"/>
<polygon style="fill:midnightblue;stroke:midnightblue;" points="1601.48,-141.602 1597,-132 1594.51,-142.299 1601.48,-141.602"/>
</g>
<!-- Node17 -->
<g id="node43" class="node"><title>Node17</title>
<a xlink:href="object__list_8h.html" target="_top" xlink:title="ltr/data/object_list.h">
<polygon style="fill:white;stroke:black;" points="1338,-168 1338,-188 1440,-188 1440,-168 1338,-168"/>
<text text-anchor="middle" x="1389" y="-175" style="font-family:Arial;font-size:10.00;">ltr/data/object_list.h</text>
</a>
</g>
<!-- Node8&#45;&gt;Node17 -->
<g id="edge52" class="edge"><title>Node8&#45;&gt;Node17</title>
<path style="fill:none;stroke:midnightblue;" d="M1249,-280C1276,-260 1334,-218 1367,-194"/>
<polygon style="fill:midnightblue;stroke:midnightblue;" points="1369.1,-196.8 1375,-188 1364.9,-191.2 1369.1,-196.8"/>
</g>
<!-- Node18 -->
<g id="node51" class="node"><title>Node18</title>
<a xlink:href="object__pair_8h.html" target="_top" xlink:title="ltr/data/object_pair.h">
<polygon style="fill:white;stroke:black;" points="1458,-168 1458,-188 1562,-188 1562,-168 1458,-168"/>
<text text-anchor="middle" x="1510" y="-175" style="font-family:Arial;font-size:10.00;">ltr/data/object_pair.h</text>
</a>
</g>
<!-- Node8&#45;&gt;Node18 -->
<g id="edge66" class="edge"><title>Node8&#45;&gt;Node18</title>
<path style="fill:none;stroke:midnightblue;" d="M1260,-280C1309,-259 1420,-214 1476,-192"/>
<polygon style="fill:midnightblue;stroke:midnightblue;" points="1477.28,-195.26 1485,-188 1474.44,-188.863 1477.28,-195.26"/>
</g>
<!-- Node19 -->
<g id="node59" class="node"><title>Node19</title>
<a xlink:href="feature__info_8h.html" target="_top" xlink:title="ltr/data/feature_info.h">
<polygon style="fill:white;stroke:black;" points="1138,-224 1138,-244 1245,-244 1245,-224 1138,-224"/>
<text text-anchor="middle" x="1191" y="-231" style="font-family:Arial;font-size:10.00;">ltr/data/feature_info.h</text>
</a>
</g>
<!-- Node8&#45;&gt;Node19 -->
<g id="edge80" class="edge"><title>Node8&#45;&gt;Node19</title>
<path style="fill:none;stroke:midnightblue;" d="M1227,-280C1221,-272 1212,-262 1205,-252"/>
<polygon style="fill:midnightblue;stroke:midnightblue;" points="1207.8,-249.9 1199,-244 1202.2,-254.1 1207.8,-249.9"/>
</g>
<!-- Node26 -->
<g id="node83" class="node"><title>Node26</title>
<a xlink:href="per__object__accessor_8h.html" target="_top" xlink:title="ltr/data/per_object_accessor.h">
<polygon style="fill:white;stroke:black;" points="1414,-224 1414,-244 1561,-244 1561,-224 1414,-224"/>
<text text-anchor="middle" x="1487" y="-231" style="font-family:Arial;font-size:10.00;">ltr/data/per_object_accessor.h</text>
</a>
</g>
<!-- Node8&#45;&gt;Node26 -->
<g id="edge114" class="edge"><title>Node8&#45;&gt;Node26</title>
<path style="fill:none;stroke:midnightblue;" d="M1280,-280C1323,-271 1386,-256 1432,-246"/>
<polygon style="fill:midnightblue;stroke:midnightblue;" points="1432.88,-249.393 1442,-244 1431.51,-242.529 1432.88,-249.393"/>
</g>
<!-- Node27 -->
<g id="node90" class="node"><title>Node27</title>
<a xlink:href="aliaser_8h.html" target="_top" xlink:title="ltr/interfaces/aliaser.h">
<polygon style="fill:white;stroke:black;" points="782,-56 782,-76 890,-76 890,-56 782,-56"/>
<text text-anchor="middle" x="836" y="-63" style="font-family:Arial;font-size:10.00;">ltr/interfaces/aliaser.h</text>
</a>
</g>
<!-- Node8&#45;&gt;Node27 -->
<g id="edge126" class="edge"><title>Node8&#45;&gt;Node27</title>
<path style="fill:none;stroke:midnightblue;" d="M1188,-286C1088,-275 863,-246 817,-188 793,-158 811,-111 825,-85"/>
<polygon style="fill:midnightblue;stroke:midnightblue;" points="828.203,-86.4414 830,-76 822.084,-83.0418 828.203,-86.4414"/>
</g>
<!-- Node9&#45;&gt;Node3 -->
<g id="edge36" class="edge"><title>Node9&#45;&gt;Node3</title>
<path style="fill:none;stroke:midnightblue;" d="M1557,-112C1515,-101 1449,-84 1410,-74"/>
<polygon style="fill:midnightblue;stroke:midnightblue;" points="1410.58,-70.5212 1400,-71 1408.57,-77.2259 1410.58,-70.5212"/>
</g>
<!-- Node9&#45;&gt;Node4 -->
<g id="edge32" class="edge"><title>Node9&#45;&gt;Node4</title>
<path style="fill:none;stroke:midnightblue;" d="M1554,-118C1440,-108 1126,-80 1015,-70"/>
<polygon style="fill:midnightblue;stroke:midnightblue;" points="1015.3,-66.5125 1005,-69 1014.6,-73.4778 1015.3,-66.5125"/>
</g>
<!-- Node9&#45;&gt;Node5 -->
<g id="edge34" class="edge"><title>Node9&#45;&gt;Node5</title>
<path style="fill:none;stroke:midnightblue;" d="M1598,-112C1599,-97 1600,-70 1585,-56 1547,-21 1189,-13 1081,-10"/>
<polygon style="fill:midnightblue;stroke:midnightblue;" points="1081,-6.5001 1071,-10 1081,-13.5001 1081,-6.5001"/>
</g>
<!-- Node10 -->
<g id="node24" class="node"><title>Node10</title>
<polygon style="fill:white;stroke:#bfbfbf;" points="1098,-56 1098,-76 1133,-76 1133,-56 1098,-56"/>
<text text-anchor="middle" x="1115" y="-63" style="font-family:Arial;font-size:10.00;">map</text>
</g>
<!-- Node9&#45;&gt;Node10 -->
<g id="edge28" class="edge"><title>Node9&#45;&gt;Node10</title>
<path style="fill:none;stroke:midnightblue;" d="M1554,-117C1458,-106 1224,-79 1143,-69"/>
<polygon style="fill:midnightblue;stroke:midnightblue;" points="1143.3,-65.5125 1133,-68 1142.6,-72.4778 1143.3,-65.5125"/>
</g>
<!-- Node11 -->
<g id="node26" class="node"><title>Node11</title>
<polygon style="fill:white;stroke:#bfbfbf;" points="1555,-0 1555,-20 1606,-20 1606,-0 1555,-0"/>
<text text-anchor="middle" x="1580" y="-7" style="font-family:Arial;font-size:10.00;">ostream</text>
</g>
<!-- Node9&#45;&gt;Node11 -->
<g id="edge30" class="edge"><title>Node9&#45;&gt;Node11</title>
<path style="fill:none;stroke:midnightblue;" d="M1604,-112C1612,-99 1625,-75 1618,-56 1614,-46 1607,-36 1599,-27"/>
<polygon style="fill:midnightblue;stroke:midnightblue;" points="1601.55,-24.5962 1592,-20 1596.6,-29.546 1601.55,-24.5962"/>
</g>
<!-- Node9&#45;&gt;Node12 -->
<g id="edge38" class="edge"><title>Node9&#45;&gt;Node12</title>
<path style="fill:none;stroke:midnightblue;" d="M1582,-112C1571,-104 1554,-92 1540,-82"/>
<polygon style="fill:midnightblue;stroke:midnightblue;" points="1542.1,-79.2 1532,-76 1537.9,-84.8 1542.1,-79.2"/>
</g>
<!-- Node9&#45;&gt;Node13 -->
<g id="edge44" class="edge"><title>Node9&#45;&gt;Node13</title>
<path style="fill:none;stroke:midnightblue;" d="M1638,-114C1688,-105 1773,-89 1831,-78"/>
<polygon style="fill:midnightblue;stroke:midnightblue;" points="1831.88,-81.3933 1841,-76 1830.51,-74.5292 1831.88,-81.3933"/>
</g>
<!-- Node12&#45;&gt;Node5 -->
<g id="edge42" class="edge"><title>Node12&#45;&gt;Node5</title>
<path style="fill:none;stroke:midnightblue;" d="M1460,-58C1455,-57 1451,-57 1446,-56 1310,-38 1147,-20 1081,-13"/>
<polygon style="fill:midnightblue;stroke:midnightblue;" points="1081.3,-9.5125 1071,-12 1080.6,-16.4778 1081.3,-9.5125"/>
</g>
<!-- Node12&#45;&gt;Node11 -->
<g id="edge40" class="edge"><title>Node12&#45;&gt;Node11</title>
<path style="fill:none;stroke:midnightblue;" d="M1529,-56C1538,-48 1551,-37 1561,-27"/>
<polygon style="fill:midnightblue;stroke:midnightblue;" points="1563.78,-29.2191 1569,-20 1559.17,-23.9511 1563.78,-29.2191"/>
</g>
<!-- Node14 -->
<g id="node37" class="node"><title>Node14</title>
<polygon style="fill:white;stroke:#bfbfbf;" points="2154,-0 2154,-20 2210,-20 2210,-0 2154,-0"/>
<text text-anchor="middle" x="2182" y="-7" style="font-family:Arial;font-size:10.00;">algorithm</text>
</g>
<!-- Node13&#45;&gt;Node14 -->
<g id="edge46" class="edge"><title>Node13&#45;&gt;Node14</title>
<path style="fill:none;stroke:midnightblue;" d="M1945,-56C2002,-45 2092,-27 2144,-18"/>
<polygon style="fill:midnightblue;stroke:midnightblue;" points="2144.88,-21.3933 2154,-16 2143.51,-14.5292 2144.88,-21.3933"/>
</g>
<!-- Node15 -->
<g id="node39" class="node"><title>Node15</title>
<polygon style="fill:white;stroke:#bfbfbf;" points="1724,-0 1724,-20 1831,-20 1831,-0 1724,-0"/>
<text text-anchor="middle" x="1777" y="-7" style="font-family:Arial;font-size:10.00;">boost/shared_ptr.hpp</text>
</g>
<!-- Node13&#45;&gt;Node15 -->
<g id="edge48" class="edge"><title>Node13&#45;&gt;Node15</title>
<path style="fill:none;stroke:midnightblue;" d="M1873,-56C1855,-47 1828,-34 1807,-24"/>
<polygon style="fill:midnightblue;stroke:midnightblue;" points="1808.56,-20.8631 1798,-20 1805.72,-27.2598 1808.56,-20.8631"/>
</g>
<!-- Node16 -->
<g id="node41" class="node"><title>Node16</title>
<polygon style="fill:white;stroke:#bfbfbf;" points="1848,-0 1848,-20 2039,-20 2039,-0 1848,-0"/>
<text text-anchor="middle" x="1943" y="-7" style="font-family:Arial;font-size:10.00;">boost/smart_ptr/detail/operator_bool.hpp</text>
</g>
<!-- Node13&#45;&gt;Node16 -->
<g id="edge50" class="edge"><title>Node13&#45;&gt;Node16</title>
<path style="fill:none;stroke:midnightblue;" d="M1903,-56C1910,-48 1920,-37 1928,-28"/>
<polygon style="fill:midnightblue;stroke:midnightblue;" points="1930.8,-30.1 1934,-20 1925.2,-25.9 1930.8,-30.1"/>
</g>
<!-- Node17&#45;&gt;Node3 -->
<g id="edge58" class="edge"><title>Node17&#45;&gt;Node3</title>
<path style="fill:none;stroke:midnightblue;" d="M1388,-168C1386,-149 1383,-110 1381,-86"/>
<polygon style="fill:midnightblue;stroke:midnightblue;" points="1384.48,-85.6021 1380,-76 1377.51,-86.2987 1384.48,-85.6021"/>
</g>
<!-- Node17&#45;&gt;Node4 -->
<g id="edge54" class="edge"><title>Node17&#45;&gt;Node4</title>
<path style="fill:none;stroke:midnightblue;" d="M1338,-172C1285,-165 1202,-152 1132,-132 1086,-118 1035,-95 1004,-80"/>
<polygon style="fill:midnightblue;stroke:midnightblue;" points="1005.56,-76.8631 995,-76 1002.72,-83.2598 1005.56,-76.8631"/>
</g>
<!-- Node17&#45;&gt;Node5 -->
<g id="edge56" class="edge"><title>Node17&#45;&gt;Node5</title>
<path style="fill:none;stroke:midnightblue;" d="M1369,-168C1312,-139 1147,-58 1080,-25"/>
<polygon style="fill:midnightblue;stroke:midnightblue;" points="1081.44,-21.7969 1071,-20 1078.04,-27.916 1081.44,-21.7969"/>
</g>
<!-- Node17&#45;&gt;Node9 -->
<g id="edge60" class="edge"><title>Node17&#45;&gt;Node9</title>
<path style="fill:none;stroke:midnightblue;" d="M1426,-168C1461,-159 1512,-145 1549,-135"/>
<polygon style="fill:midnightblue;stroke:midnightblue;" points="1550.43,-138.226 1559,-132 1548.42,-131.521 1550.43,-138.226"/>
</g>
<!-- Node17&#45;&gt;Node12 -->
<g id="edge62" class="edge"><title>Node17&#45;&gt;Node12</title>
<path style="fill:none;stroke:midnightblue;" d="M1401,-168C1424,-148 1472,-107 1498,-83"/>
<polygon style="fill:midnightblue;stroke:midnightblue;" points="1500.78,-85.2191 1506,-76 1496.17,-79.9511 1500.78,-85.2191"/>
</g>
<!-- Node17&#45;&gt;Node13 -->
<g id="edge64" class="edge"><title>Node17&#45;&gt;Node13</title>
<path style="fill:none;stroke:midnightblue;" d="M1440,-169C1513,-157 1637,-136 1647,-132 1663,-125 1664,-118 1680,-112 1729,-93 1788,-81 1831,-74"/>
<polygon style="fill:midnightblue;stroke:midnightblue;" points="1831.88,-77.3933 1841,-72 1830.51,-70.5292 1831.88,-77.3933"/>
</g>
<!-- Node18&#45;&gt;Node3 -->
<g id="edge72" class="edge"><title>Node18&#45;&gt;Node3</title>
<path style="fill:none;stroke:midnightblue;" d="M1498,-168C1475,-148 1426,-107 1399,-83"/>
<polygon style="fill:midnightblue;stroke:midnightblue;" points="1400.83,-79.9511 1391,-76 1396.22,-85.2191 1400.83,-79.9511"/>
</g>
<!-- Node18&#45;&gt;Node4 -->
<g id="edge68" class="edge"><title>Node18&#45;&gt;Node4</title>
<path style="fill:none;stroke:midnightblue;" d="M1462,-168C1358,-146 1112,-95 1015,-74"/>
<polygon style="fill:midnightblue;stroke:midnightblue;" points="1015.49,-70.5292 1005,-72 1014.12,-77.3933 1015.49,-70.5292"/>
</g>
<!-- Node18&#45;&gt;Node5 -->
<g id="edge70" class="edge"><title>Node18&#45;&gt;Node5</title>
<path style="fill:none;stroke:midnightblue;" d="M1505,-168C1493,-143 1458,-81 1409,-56 1352,-26 1157,-14 1081,-11"/>
<polygon style="fill:midnightblue;stroke:midnightblue;" points="1081,-7.5001 1071,-11 1081,-14.5001 1081,-7.5001"/>
</g>
<!-- Node18&#45;&gt;Node9 -->
<g id="edge74" class="edge"><title>Node18&#45;&gt;Node9</title>
<path style="fill:none;stroke:midnightblue;" d="M1525,-168C1538,-160 1557,-147 1572,-138"/>
<polygon style="fill:midnightblue;stroke:midnightblue;" points="1574.1,-140.8 1580,-132 1569.9,-135.2 1574.1,-140.8"/>
</g>
<!-- Node18&#45;&gt;Node12 -->
<g id="edge76" class="edge"><title>Node18&#45;&gt;Node12</title>
<path style="fill:none;stroke:midnightblue;" d="M1511,-168C1513,-149 1515,-110 1517,-86"/>
<polygon style="fill:midnightblue;stroke:midnightblue;" points="1520.5,-86 1517,-76 1513.5,-86 1520.5,-86"/>
</g>
<!-- Node18&#45;&gt;Node13 -->
<g id="edge78" class="edge"><title>Node18&#45;&gt;Node13</title>
<path style="fill:none;stroke:midnightblue;" d="M1552,-168C1587,-159 1637,-146 1680,-132 1701,-124 1706,-119 1728,-112 1765,-99 1809,-87 1842,-79"/>
<polygon style="fill:midnightblue;stroke:midnightblue;" points="1843.43,-82.2259 1852,-76 1841.42,-75.5212 1843.43,-82.2259"/>
</g>
<!-- Node19&#45;&gt;Node3 -->
<g id="edge86" class="edge"><title>Node19&#45;&gt;Node3</title>
<path style="fill:none;stroke:midnightblue;" d="M1196,-224C1209,-201 1243,-146 1284,-112 1303,-96 1328,-84 1348,-76"/>
<polygon style="fill:midnightblue;stroke:midnightblue;" points="1349.43,-79.2259 1358,-73 1347.42,-72.5212 1349.43,-79.2259"/>
</g>
<!-- Node19&#45;&gt;Node5 -->
<g id="edge84" class="edge"><title>Node19&#45;&gt;Node5</title>
<path style="fill:none;stroke:midnightblue;" d="M1179,-224C1168,-215 1154,-201 1144,-188 1104,-135 1072,-64 1059,-29"/>
<polygon style="fill:midnightblue;stroke:midnightblue;" points="1062.26,-27.7166 1055,-20 1055.86,-30.5596 1062.26,-27.7166"/>
</g>
<!-- Node19&#45;&gt;Node10 -->
<g id="edge82" class="edge"><title>Node19&#45;&gt;Node10</title>
<path style="fill:none;stroke:midnightblue;" d="M1184,-224C1172,-206 1146,-167 1132,-132 1126,-117 1121,-99 1119,-86"/>
<polygon style="fill:midnightblue;stroke:midnightblue;" points="1122.39,-85.1194 1117,-76 1115.53,-86.4922 1122.39,-85.1194"/>
</g>
<!-- Node19&#45;&gt;Node13 -->
<g id="edge112" class="edge"><title>Node19&#45;&gt;Node13</title>
<path style="fill:none;stroke:midnightblue;" d="M1245,-232C1319,-227 1457,-216 1571,-188 1637,-171 1651,-158 1715,-132 1735,-123 1740,-120 1761,-112 1791,-100 1826,-88 1852,-79"/>
<polygon style="fill:midnightblue;stroke:midnightblue;" points="1853.43,-82.2259 1862,-76 1851.42,-75.5212 1853.43,-82.2259"/>
</g>
<!-- Node19&#45;&gt;Node20 -->
<g id="edge88" class="edge"><title>Node19&#45;&gt;Node20</title>
<path style="fill:none;stroke:midnightblue;" d="M1138,-224C1088,-215 1013,-200 960,-190"/>
<polygon style="fill:midnightblue;stroke:midnightblue;" points="960.492,-186.529 950,-188 959.119,-193.393 960.492,-186.529"/>
</g>
<!-- Node20&#45;&gt;Node4 -->
<g id="edge90" class="edge"><title>Node20&#45;&gt;Node4</title>
<path style="fill:none;stroke:midnightblue;" d="M895,-168C894,-154 893,-129 904,-112 912,-98 926,-88 939,-80"/>
<polygon style="fill:midnightblue;stroke:midnightblue;" points="940.283,-83.2598 948,-76 937.44,-76.8631 940.283,-83.2598"/>
</g>
<!-- Node20&#45;&gt;Node5 -->
<g id="edge92" class="edge"><title>Node20&#45;&gt;Node5</title>
<path style="fill:none;stroke:midnightblue;" d="M893,-168C888,-154 883,-130 890,-112 901,-81 910,-75 937,-56 962,-37 997,-24 1021,-18"/>
<polygon style="fill:midnightblue;stroke:midnightblue;" points="1022.43,-21.2259 1031,-15 1020.42,-14.5212 1022.43,-21.2259"/>
</g>
<!-- Node20&#45;&gt;Node21 -->
<g id="edge94" class="edge"><title>Node20&#45;&gt;Node21</title>
<path style="fill:none;stroke:midnightblue;" d="M826,-169C746,-159 616,-144 528,-133"/>
<polygon style="fill:midnightblue;stroke:midnightblue;" points="528.299,-129.512 518,-132 527.602,-136.478 528.299,-129.512"/>
</g>
<!-- Node21&#45;&gt;Node4 -->
<g id="edge100" class="edge"><title>Node21&#45;&gt;Node4</title>
<path style="fill:none;stroke:midnightblue;" d="M544,-112C638,-103 777,-90 899,-76 911,-74 924,-73 936,-71"/>
<polygon style="fill:midnightblue;stroke:midnightblue;" points="936.398,-74.4778 946,-70 935.701,-67.5125 936.398,-74.4778"/>
</g>
<!-- Node21&#45;&gt;Node5 -->
<g id="edge102" class="edge"><title>Node21&#45;&gt;Node5</title>
<path style="fill:none;stroke:midnightblue;" d="M336,-112C259,-103 165,-90 153,-76 148,-69 147,-62 153,-56 184,-23 868,-12 1021,-10"/>
<polygon style="fill:midnightblue;stroke:midnightblue;" points="1021,-13.5001 1031,-10 1021,-6.5001 1021,-13.5001"/>
</g>
<!-- Node21&#45;&gt;Node12 -->
<g id="edge110" class="edge"><title>Node21&#45;&gt;Node12</title>
<path style="fill:none;stroke:midnightblue;" d="M549,-112C552,-112 554,-112 557,-112 935,-88 1030,-101 1409,-76 1422,-75 1436,-74 1450,-73"/>
<polygon style="fill:midnightblue;stroke:midnightblue;" points="1450.4,-76.4778 1460,-72 1449.7,-69.5125 1450.4,-76.4778"/>
</g>
<!-- Node21&#45;&gt;Node13 -->
<g id="edge108" class="edge"><title>Node21&#45;&gt;Node13</title>
<path style="fill:none;stroke:midnightblue;" d="M549,-112C552,-112 554,-112 557,-112 621,-108 1573,-77 1831,-68"/>
<polygon style="fill:midnightblue;stroke:midnightblue;" points="1831,-71.5001 1841,-68 1831,-64.5001 1831,-71.5001"/>
</g>
<!-- Node22 -->
<g id="node70" class="node"><title>Node22</title>
<polygon style="fill:white;stroke:#bfbfbf;" points="448,-56 448,-76 522,-76 522,-56 448,-56"/>
<text text-anchor="middle" x="485" y="-63" style="font-family:Arial;font-size:10.00;">logog/logog.h</text>
</g>
<!-- Node21&#45;&gt;Node22 -->
<g id="edge96" class="edge"><title>Node21&#45;&gt;Node22</title>
<path style="fill:none;stroke:midnightblue;" d="M445,-112C452,-104 462,-93 470,-84"/>
<polygon style="fill:midnightblue;stroke:midnightblue;" points="472.8,-86.1 476,-76 467.2,-81.9 472.8,-86.1"/>
</g>
<!-- Node23 -->
<g id="node72" class="node"><title>Node23</title>
<polygon style="fill:white;stroke:#bfbfbf;" points="308,-56 308,-76 337,-76 337,-56 308,-56"/>
<text text-anchor="middle" x="322" y="-63" style="font-family:Arial;font-size:10.00;">list</text>
</g>
<!-- Node21&#45;&gt;Node23 -->
<g id="edge98" class="edge"><title>Node21&#45;&gt;Node23</title>
<path style="fill:none;stroke:midnightblue;" d="M416,-112C396,-103 367,-88 346,-78"/>
<polygon style="fill:midnightblue;stroke:midnightblue;" points="347.441,-74.7969 337,-73 344.042,-80.916 347.441,-74.7969"/>
</g>
<!-- Node24 -->
<g id="node76" class="node"><title>Node24</title>
<polygon style="fill:white;stroke:#bfbfbf;" points="354,-56 354,-76 431,-76 431,-56 354,-56"/>
<text text-anchor="middle" x="392" y="-63" style="font-family:Arial;font-size:10.00;">boost/any.hpp</text>
</g>
<!-- Node21&#45;&gt;Node24 -->
<g id="edge104" class="edge"><title>Node21&#45;&gt;Node24</title>
<path style="fill:none;stroke:midnightblue;" d="M428,-112C422,-104 413,-94 406,-84"/>
<polygon style="fill:midnightblue;stroke:midnightblue;" points="408.8,-81.9 400,-76 403.2,-86.1 408.8,-81.9"/>
</g>
<!-- Node25 -->
<g id="node78" class="node"><title>Node25</title>
<polygon style="fill:white;stroke:#bfbfbf;" points="162,-56 162,-76 291,-76 291,-56 162,-56"/>
<text text-anchor="middle" x="226" y="-63" style="font-family:Arial;font-size:10.00;">boost/unordered_map.hpp</text>
</g>
<!-- Node21&#45;&gt;Node25 -->
<g id="edge106" class="edge"><title>Node21&#45;&gt;Node25</title>
<path style="fill:none;stroke:midnightblue;" d="M398,-112C363,-103 311,-89 274,-79"/>
<polygon style="fill:midnightblue;stroke:midnightblue;" points="274.584,-75.5212 264,-76 272.573,-82.2259 274.584,-75.5212"/>
</g>
<!-- Node26&#45;&gt;Node9 -->
<g id="edge116" class="edge"><title>Node26&#45;&gt;Node9</title>
<path style="fill:none;stroke:midnightblue;" d="M1516,-224C1534,-216 1556,-205 1571,-188 1582,-175 1589,-156 1592,-142"/>
<polygon style="fill:midnightblue;stroke:midnightblue;" points="1595.47,-142.492 1594,-132 1588.61,-141.119 1595.47,-142.492"/>
</g>
<!-- Node26&#45;&gt;Node13 -->
<g id="edge124" class="edge"><title>Node26&#45;&gt;Node13</title>
<path style="fill:none;stroke:midnightblue;" d="M1526,-224C1557,-215 1603,-202 1642,-188 1726,-155 1821,-105 1867,-81"/>
<polygon style="fill:midnightblue;stroke:midnightblue;" points="1868.96,-83.916 1876,-76 1865.56,-77.7969 1868.96,-83.916"/>
</g>
<!-- Node26&#45;&gt;Node17 -->
<g id="edge120" class="edge"><title>Node26&#45;&gt;Node17</title>
<path style="fill:none;stroke:midnightblue;" d="M1469,-224C1454,-216 1432,-203 1416,-193"/>
<polygon style="fill:midnightblue;stroke:midnightblue;" points="1417.44,-189.797 1407,-188 1414.04,-195.916 1417.44,-189.797"/>
</g>
<!-- Node26&#45;&gt;Node18 -->
<g id="edge118" class="edge"><title>Node26&#45;&gt;Node18</title>
<path style="fill:none;stroke:midnightblue;" d="M1491,-224C1494,-217 1498,-207 1502,-197"/>
<polygon style="fill:midnightblue;stroke:midnightblue;" points="1505.14,-198.56 1506,-188 1498.74,-195.717 1505.14,-198.56"/>
</g>
<!-- Node26&#45;&gt;Node20 -->
<g id="edge122" class="edge"><title>Node26&#45;&gt;Node20</title>
<path style="fill:none;stroke:midnightblue;" d="M1414,-227C1303,-216 1094,-196 978,-186"/>
<polygon style="fill:midnightblue;stroke:midnightblue;" points="978.299,-182.512 968,-185 977.602,-189.478 978.299,-182.512"/>
</g>
<!-- Node27&#45;&gt;Node5 -->
<g id="edge128" class="edge"><title>Node27&#45;&gt;Node5</title>
<path style="fill:none;stroke:midnightblue;" d="M874,-56C916,-45 982,-28 1021,-18"/>
<polygon style="fill:midnightblue;stroke:midnightblue;" points="1022.43,-21.2259 1031,-15 1020.42,-14.5212 1022.43,-21.2259"/>
</g>
<!-- Node28&#45;&gt;Node3 -->
<g id="edge132" class="edge"><title>Node28&#45;&gt;Node3</title>
<path style="fill:none;stroke:midnightblue;" d="M1224,-336C1248,-329 1273,-318 1291,-300 1333,-255 1307,-224 1329,-168 1340,-138 1357,-105 1368,-85"/>
<polygon style="fill:midnightblue;stroke:midnightblue;" points="1371.2,-86.4414 1373,-76 1365.08,-83.0418 1371.2,-86.4414"/>
</g>
<!-- Node28&#45;&gt;Node4 -->
<g id="edge136" class="edge"><title>Node28&#45;&gt;Node4</title>
<path style="fill:none;stroke:midnightblue;" d="M1146,-336C1115,-307 1027,-223 991,-132 985,-117 980,-99 978,-86"/>
<polygon style="fill:midnightblue;stroke:midnightblue;" points="981.393,-85.1194 976,-76 974.529,-86.4922 981.393,-85.1194"/>
</g>
<!-- Node28&#45;&gt;Node5 -->
<g id="edge134" class="edge"><title>Node28&#45;&gt;Node5</title>
<path style="fill:none;stroke:midnightblue;" d="M1063,-340C946,-332 755,-317 686,-300 434,-236 291,-292 146,-76 142,-68 140,-62 146,-56 177,-23 867,-12 1021,-10"/>
<polygon style="fill:midnightblue;stroke:midnightblue;" points="1021,-13.5001 1031,-10 1021,-6.5001 1021,-13.5001"/>
</g>
<!-- Node28&#45;&gt;Node8 -->
<g id="edge138" class="edge"><title>Node28&#45;&gt;Node8</title>
<path style="fill:none;stroke:midnightblue;" d="M1172,-336C1183,-328 1200,-316 1213,-306"/>
<polygon style="fill:midnightblue;stroke:midnightblue;" points="1215.1,-308.8 1221,-300 1210.9,-303.2 1215.1,-308.8"/>
</g>
<!-- Node28&#45;&gt;Node9 -->
<g id="edge142" class="edge"><title>Node28&#45;&gt;Node9</title>
<path style="fill:none;stroke:midnightblue;" d="M1236,-336C1344,-321 1533,-288 1586,-244 1612,-220 1613,-202 1609,-168 1608,-159 1605,-150 1603,-142"/>
<polygon style="fill:midnightblue;stroke:midnightblue;" points="1606.23,-140.573 1600,-132 1599.52,-142.584 1606.23,-140.573"/>
</g>
<!-- Node28&#45;&gt;Node13 -->
<g id="edge164" class="edge"><title>Node28&#45;&gt;Node13</title>
<path style="fill:none;stroke:midnightblue;" d="M1253,-339C1318,-333 1404,-321 1478,-300 1644,-252 1815,-127 1873,-82"/>
<polygon style="fill:midnightblue;stroke:midnightblue;" points="1875.1,-84.8 1881,-76 1870.9,-79.2 1875.1,-84.8"/>
</g>
<!-- Node28&#45;&gt;Node19 -->
<g id="edge140" class="edge"><title>Node28&#45;&gt;Node19</title>
<path style="fill:none;stroke:midnightblue;" d="M1161,-336C1166,-317 1178,-278 1185,-254"/>
<polygon style="fill:midnightblue;stroke:midnightblue;" points="1188.48,-254.584 1188,-244 1181.77,-252.573 1188.48,-254.584"/>
</g>
<!-- Node28&#45;&gt;Node20 -->
<g id="edge146" class="edge"><title>Node28&#45;&gt;Node20</title>
<path style="fill:none;stroke:midnightblue;" d="M1133,-336C1112,-327 1082,-314 1058,-300 1002,-267 945,-220 916,-195"/>
<polygon style="fill:midnightblue;stroke:midnightblue;" points="917.831,-191.951 908,-188 913.221,-197.219 917.831,-191.951"/>
</g>
<!-- Node28&#45;&gt;Node26 -->
<g id="edge144" class="edge"><title>Node28&#45;&gt;Node26</title>
<path style="fill:none;stroke:midnightblue;" d="M1198,-336C1232,-327 1282,-314 1324,-300 1370,-284 1422,-262 1455,-248"/>
<polygon style="fill:midnightblue;stroke:midnightblue;" points="1456.28,-251.26 1464,-244 1453.44,-244.863 1456.28,-251.26"/>
</g>
<!-- Node28&#45;&gt;Node27 -->
<g id="edge162" class="edge"><title>Node28&#45;&gt;Node27</title>
<path style="fill:none;stroke:midnightblue;" d="M1063,-341C935,-331 722,-304 722,-234 722,-234 722,-234 722,-178 722,-131 770,-98 803,-81"/>
<polygon style="fill:midnightblue;stroke:midnightblue;" points="804.958,-83.916 812,-76 801.559,-77.7969 804.958,-83.916"/>
</g>
<!-- Node29 -->
<g id="node103" class="node"><title>Node29</title>
<a xlink:href="serializable_8h.html" target="_top" xlink:title="ltr/interfaces/serializable.h">
<polygon style="fill:white;stroke:black;" points="566,-112 566,-132 695,-132 695,-112 566,-112"/>
<text text-anchor="middle" x="630" y="-119" style="font-family:Arial;font-size:10.00;">ltr/interfaces/serializable.h</text>
</a>
</g>
<!-- Node28&#45;&gt;Node29 -->
<g id="edge148" class="edge"><title>Node28&#45;&gt;Node29</title>
<path style="fill:none;stroke:midnightblue;" d="M1063,-341C939,-334 736,-320 708,-300 680,-280 649,-183 636,-142"/>
<polygon style="fill:midnightblue;stroke:midnightblue;" points="639.226,-140.573 633,-132 632.521,-142.584 639.226,-140.573"/>
</g>
<!-- Node29&#45;&gt;Node5 -->
<g id="edge154" class="edge"><title>Node29&#45;&gt;Node5</title>
<path style="fill:none;stroke:midnightblue;" d="M654,-112C676,-103 708,-89 735,-76 752,-67 754,-62 773,-56 860,-27 968,-16 1021,-12"/>
<polygon style="fill:midnightblue;stroke:midnightblue;" points="1021.4,-15.4778 1031,-11 1020.7,-8.5125 1021.4,-15.4778"/>
</g>
<!-- Node29&#45;&gt;Node13 -->
<g id="edge158" class="edge"><title>Node29&#45;&gt;Node13</title>
<path style="fill:none;stroke:midnightblue;" d="M695,-119C913,-110 1615,-78 1831,-68"/>
<polygon style="fill:midnightblue;stroke:midnightblue;" points="1831,-71.5001 1841,-68 1831,-64.5001 1831,-71.5001"/>
</g>
<!-- Node29&#45;&gt;Node22 -->
<g id="edge152" class="edge"><title>Node29&#45;&gt;Node22</title>
<path style="fill:none;stroke:midnightblue;" d="M604,-112C581,-103 546,-90 520,-80"/>
<polygon style="fill:midnightblue;stroke:midnightblue;" points="521.56,-76.8631 511,-76 518.717,-83.2598 521.56,-76.8631"/>
</g>
<!-- Node29&#45;&gt;Node27 -->
<g id="edge160" class="edge"><title>Node29&#45;&gt;Node27</title>
<path style="fill:none;stroke:midnightblue;" d="M667,-112C701,-103 752,-89 789,-79"/>
<polygon style="fill:midnightblue;stroke:midnightblue;" points="790.427,-82.2259 799,-76 788.416,-75.5212 790.427,-82.2259"/>
</g>
<!-- Node30 -->
<g id="node105" class="node"><title>Node30</title>
<polygon style="fill:white;stroke:#bfbfbf;" points="540,-56 540,-76 654,-76 654,-56 540,-56"/>
<text text-anchor="middle" x="597" y="-63" style="font-family:Arial;font-size:10.00;">boost/lexical_cast.hpp</text>
</g>
<!-- Node29&#45;&gt;Node30 -->
<g id="edge150" class="edge"><title>Node29&#45;&gt;Node30</title>
<path style="fill:none;stroke:midnightblue;" d="M624,-112C620,-105 613,-94 608,-85"/>
<polygon style="fill:midnightblue;stroke:midnightblue;" points="610.916,-83.0418 603,-76 604.797,-86.4414 610.916,-83.0418"/>
</g>
<!-- Node31 -->
<g id="node109" class="node"><title>Node31</title>
<polygon style="fill:white;stroke:#bfbfbf;" points="672,-56 672,-76 726,-76 726,-56 672,-56"/>
<text text-anchor="middle" x="699" y="-63" style="font-family:Arial;font-size:10.00;">iostream</text>
</g>
<!-- Node29&#45;&gt;Node31 -->
<g id="edge156" class="edge"><title>Node29&#45;&gt;Node31</title>
<path style="fill:none;stroke:midnightblue;" d="M642,-112C652,-104 667,-93 678,-83"/>
<polygon style="fill:midnightblue;stroke:midnightblue;" points="680.779,-85.2191 686,-76 676.169,-79.9511 680.779,-85.2191"/>
</g>
<!-- Node32&#45;&gt;Node3 -->
<g id="edge178" class="edge"><title>Node32&#45;&gt;Node3</title>
<path style="fill:none;stroke:midnightblue;" d="M1937,-392C1930,-349 1896,-182 1794,-112 1730,-68 1527,-85 1451,-76 1437,-74 1423,-72 1410,-70"/>
<polygon style="fill:midnightblue;stroke:midnightblue;" points="1410.3,-66.5125 1400,-69 1409.6,-73.4778 1410.3,-66.5125"/>
</g>
<!-- Node32&#45;&gt;Node5 -->
<g id="edge176" class="edge"><title>Node32&#45;&gt;Node5</title>
<path style="fill:none;stroke:midnightblue;" d="M1960,-392C1991,-375 2046,-339 2046,-290 2046,-290 2046,-290 2046,-122 2046,-72 2002,-72 1956,-56 1872,-26 1230,-13 1081,-10"/>
<polygon style="fill:midnightblue;stroke:midnightblue;" points="1081,-6.5001 1071,-10 1081,-13.5001 1081,-6.5001"/>
</g>
<!-- Node32&#45;&gt;Node8 -->
<g id="edge186" class="edge"><title>Node32&#45;&gt;Node8</title>
<path style="fill:none;stroke:midnightblue;" d="M1876,-392C1741,-370 1424,-320 1293,-300"/>
<polygon style="fill:midnightblue;stroke:midnightblue;" points="1293.49,-296.529 1283,-298 1292.12,-303.393 1293.49,-296.529"/>
</g>
<!-- Node32&#45;&gt;Node9 -->
<g id="edge182" class="edge"><title>Node32&#45;&gt;Node9</title>
<path style="fill:none;stroke:midnightblue;" d="M1932,-392C1915,-370 1874,-317 1832,-280 1763,-219 1669,-163 1624,-137"/>
<polygon style="fill:midnightblue;stroke:midnightblue;" points="1625.44,-133.797 1615,-132 1622.04,-139.916 1625.44,-133.797"/>
</g>
<!-- Node32&#45;&gt;Node13 -->
<g id="edge196" class="edge"><title>Node32&#45;&gt;Node13</title>
<path style="fill:none;stroke:midnightblue;" d="M1951,-392C1970,-373 2008,-333 2008,-290 2008,-290 2008,-290 2008,-178 2008,-146 2004,-135 1984,-112 1971,-98 1953,-87 1937,-80"/>
<polygon style="fill:midnightblue;stroke:midnightblue;" points="1937.58,-76.4643 1927,-76 1934.98,-82.9636 1937.58,-76.4643"/>
</g>
<!-- Node32&#45;&gt;Node14 -->
<g id="edge180" class="edge"><title>Node32&#45;&gt;Node14</title>
<path style="fill:none;stroke:midnightblue;" d="M2006,-392C2031,-385 2059,-374 2079,-356 2176,-266 2183,-90 2182,-30"/>
<polygon style="fill:midnightblue;stroke:midnightblue;" points="2185.5,-30 2182,-20 2178.5,-30 2185.5,-30"/>
</g>
<!-- Node32&#45;&gt;Node19 -->
<g id="edge184" class="edge"><title>Node32&#45;&gt;Node19</title>
<path style="fill:none;stroke:midnightblue;" d="M1894,-392C1764,-363 1387,-278 1246,-246"/>
<polygon style="fill:midnightblue;stroke:midnightblue;" points="1246.49,-242.529 1236,-244 1245.12,-249.393 1246.49,-242.529"/>
</g>
<!-- Node32&#45;&gt;Node28 -->
<g id="edge198" class="edge"><title>Node32&#45;&gt;Node28</title>
<path style="fill:none;stroke:midnightblue;" d="M1846,-395C1700,-384 1417,-364 1263,-354"/>
<polygon style="fill:midnightblue;stroke:midnightblue;" points="1263.3,-350.512 1253,-353 1262.6,-357.478 1263.3,-350.512"/>
</g>
<!-- Node32&#45;&gt;Node33 -->
<g id="edge188" class="edge"><title>Node32&#45;&gt;Node33</title>
<path style="fill:none;stroke:midnightblue;" d="M1992,-392C2015,-385 2042,-374 2060,-356 2081,-333 2084,-321 2084,-290 2084,-290 2084,-290 2084,-234 2084,-199 2099,-163 2109,-141"/>
<polygon style="fill:midnightblue;stroke:midnightblue;" points="2112.2,-142.441 2114,-132 2106.08,-139.042 2112.2,-142.441"/>
</g>
<!-- Node33&#45;&gt;Node3 -->
<g id="edge192" class="edge"><title>Node33&#45;&gt;Node3</title>
<path style="fill:none;stroke:midnightblue;" d="M2074,-120C1965,-115 1684,-100 1451,-76 1437,-74 1423,-72 1410,-70"/>
<polygon style="fill:midnightblue;stroke:midnightblue;" points="1410.3,-66.5125 1400,-69 1409.6,-73.4778 1410.3,-66.5125"/>
</g>
<!-- Node33&#45;&gt;Node5 -->
<g id="edge190" class="edge"><title>Node33&#45;&gt;Node5</title>
<path style="fill:none;stroke:midnightblue;" d="M2114,-112C2105,-96 2085,-67 2060,-56 2014,-34 1245,-15 1081,-10"/>
<polygon style="fill:midnightblue;stroke:midnightblue;" points="1081,-6.5001 1071,-10 1081,-13.5001 1081,-6.5001"/>
</g>
<!-- Node33&#45;&gt;Node13 -->
<g id="edge194" class="edge"><title>Node33&#45;&gt;Node13</title>
<path style="fill:none;stroke:midnightblue;" d="M2080,-112C2042,-103 1985,-88 1945,-78"/>
<polygon style="fill:midnightblue;stroke:midnightblue;" points="1945.49,-74.5292 1935,-76 1944.12,-81.3933 1945.49,-74.5292"/>
</g>
</g>
</svg>
