<?xml version="1.0" encoding="UTF-8" standalone="no"?>
<!DOCTYPE svg PUBLIC "-//W3C//DTD SVG 1.0//EN"
 "http://www.w3.org/TR/2001/REC-SVG-20010904/DTD/svg10.dtd" [
 <!ATTLIST svg xmlns:xlink CDATA #FIXED "http://www.w3.org/1999/xlink">
]>
<!-- Generated by Graphviz version 2.20.2 (Tue Mar &#160;2 19:03:41 UTC 2010)
     For user: (jenkins)  -->
<!-- Title: G Pages: 1 -->
<svg width="1163pt" height="308pt"
 viewBox="0.00 0.00 1163.00 308.00" xmlns="http://www.w3.org/2000/svg" xmlns:xlink="http://www.w3.org/1999/xlink">
<g id="graph0" class="graph" transform="scale(1 1) rotate(0) translate(4 304)">
<title>G</title>
<polygon style="fill:white;stroke:white;" points="-4,4 -4,-304 1159,-304 1159,4 -4,4"/>
<!-- Node1 -->
<g id="node1" class="node"><title>Node1</title>
<polygon style="fill:#bfbfbf;stroke:black;" points="32,-280 32,-300 182,-300 182,-280 32,-280"/>
<text text-anchor="middle" x="107" y="-287" style="font-family:Arial;font-size:10.00;">ltr/data/feature_info_unittest.cc</text>
</g>
<!-- Node2 -->
<g id="node3" class="node"><title>Node2</title>
<polygon style="fill:white;stroke:#bfbfbf;" points="0,-224 0,-244 48,-244 48,-224 0,-224"/>
<text text-anchor="middle" x="24" y="-231" style="font-family:Arial;font-size:10.00;">stdlib.h</text>
</g>
<!-- Node1&#45;&gt;Node2 -->
<g id="edge2" class="edge"><title>Node1&#45;&gt;Node2</title>
<path style="fill:none;stroke:midnightblue;" d="M92,-280C80,-272 62,-259 47,-250"/>
<polygon style="fill:midnightblue;stroke:midnightblue;" points="49.1,-247.2 39,-244 44.9,-252.8 49.1,-247.2"/>
</g>
<!-- Node3 -->
<g id="node5" class="node"><title>Node3</title>
<polygon style="fill:white;stroke:#bfbfbf;" points="147,-0 147,-20 187,-20 187,-0 147,-0"/>
<text text-anchor="middle" x="167" y="-7" style="font-family:Arial;font-size:10.00;">string</text>
</g>
<!-- Node1&#45;&gt;Node3 -->
<g id="edge4" class="edge"><title>Node1&#45;&gt;Node3</title>
<path style="fill:none;stroke:midnightblue;" d="M102,-280C94,-261 76,-216 76,-178 76,-178 76,-178 76,-122 76,-80 115,-45 141,-26"/>
<polygon style="fill:midnightblue;stroke:midnightblue;" points="143.621,-28.4592 150,-20 139.738,-22.6349 143.621,-28.4592"/>
</g>
<!-- Node4 -->
<g id="node7" class="node"><title>Node4</title>
<polygon style="fill:white;stroke:#bfbfbf;" points="104,-224 104,-244 175,-244 175,-224 104,-224"/>
<text text-anchor="middle" x="139" y="-231" style="font-family:Arial;font-size:10.00;">gtest/gtest.h</text>
</g>
<!-- Node1&#45;&gt;Node4 -->
<g id="edge6" class="edge"><title>Node1&#45;&gt;Node4</title>
<path style="fill:none;stroke:midnightblue;" d="M113,-280C117,-273 123,-262 128,-253"/>
<polygon style="fill:midnightblue;stroke:midnightblue;" points="131.203,-254.441 133,-244 125.084,-251.042 131.203,-254.441"/>
</g>
<!-- Node5 -->
<g id="node9" class="node"><title>Node5</title>
<a xlink:href="feature__info_8h.html" target="_top" xlink:title="ltr/data/feature_info.h">
<polygon style="fill:white;stroke:black;" points="192,-224 192,-244 299,-244 299,-224 192,-224"/>
<text text-anchor="middle" x="245" y="-231" style="font-family:Arial;font-size:10.00;">ltr/data/feature_info.h</text>
</a>
</g>
<!-- Node1&#45;&gt;Node5 -->
<g id="edge8" class="edge"><title>Node1&#45;&gt;Node5</title>
<path style="fill:none;stroke:midnightblue;" d="M132,-280C154,-271 186,-258 211,-248"/>
<polygon style="fill:midnightblue;stroke:midnightblue;" points="212.283,-251.26 220,-244 209.44,-244.863 212.283,-251.26"/>
</g>
<!-- Node5&#45;&gt;Node3 -->
<g id="edge12" class="edge"><title>Node5&#45;&gt;Node3</title>
<path style="fill:none;stroke:midnightblue;" d="M206,-224C188,-217 167,-206 156,-188 126,-137 146,-64 159,-30"/>
<polygon style="fill:midnightblue;stroke:midnightblue;" points="162.536,-30.5847 163,-20 156.036,-27.9849 162.536,-30.5847"/>
</g>
<!-- Node6 -->
<g id="node11" class="node"><title>Node6</title>
<polygon style="fill:white;stroke:#bfbfbf;" points="165,-168 165,-188 200,-188 200,-168 165,-168"/>
<text text-anchor="middle" x="182" y="-175" style="font-family:Arial;font-size:10.00;">map</text>
</g>
<!-- Node5&#45;&gt;Node6 -->
<g id="edge10" class="edge"><title>Node5&#45;&gt;Node6</title>
<path style="fill:none;stroke:midnightblue;" d="M234,-224C225,-216 212,-205 201,-195"/>
<polygon style="fill:midnightblue;stroke:midnightblue;" points="203.546,-192.596 194,-188 198.596,-197.546 203.546,-192.596"/>
</g>
<!-- Node7 -->
<g id="node14" class="node"><title>Node7</title>
<polygon style="fill:white;stroke:#bfbfbf;" points="217,-168 217,-188 259,-188 259,-168 217,-168"/>
<text text-anchor="middle" x="238" y="-175" style="font-family:Arial;font-size:10.00;">vector</text>
</g>
<!-- Node5&#45;&gt;Node7 -->
<g id="edge14" class="edge"><title>Node5&#45;&gt;Node7</title>
<path style="fill:none;stroke:midnightblue;" d="M244,-224C243,-217 242,-207 241,-198"/>
<polygon style="fill:midnightblue;stroke:midnightblue;" points="244.393,-197.119 239,-188 237.529,-198.492 244.393,-197.119"/>
</g>
<!-- Node8 -->
<g id="node16" class="node"><title>Node8</title>
<a xlink:href="parameterized_8h.html" target="_top" xlink:title="ltr/interfaces/parameterized.h">
<polygon style="fill:white;stroke:black;" points="277,-168 277,-188 419,-188 419,-168 277,-168"/>
<text text-anchor="middle" x="348" y="-175" style="font-family:Arial;font-size:10.00;">ltr/interfaces/parameterized.h</text>
</a>
</g>
<!-- Node5&#45;&gt;Node8 -->
<g id="edge16" class="edge"><title>Node5&#45;&gt;Node8</title>
<path style="fill:none;stroke:midnightblue;" d="M263,-224C279,-216 302,-203 320,-193"/>
<polygon style="fill:midnightblue;stroke:midnightblue;" points="321.958,-195.916 329,-188 318.559,-189.797 321.958,-195.916"/>
</g>
<!-- Node15 -->
<g id="node33" class="node"><title>Node15</title>
<a xlink:href="shared__ptr_8h.html" target="_top" xlink:title="ltr/utility/shared_ptr.h">
<polygon style="fill:white;stroke:black;" points="821,-56 821,-76 928,-76 928,-56 821,-56"/>
<text text-anchor="middle" x="874" y="-63" style="font-family:Arial;font-size:10.00;">ltr/utility/shared_ptr.h</text>
</a>
</g>
<!-- Node5&#45;&gt;Node15 -->
<g id="edge50" class="edge"><title>Node5&#45;&gt;Node15</title>
<path style="fill:none;stroke:midnightblue;" d="M286,-224C323,-215 379,-201 428,-188 575,-149 747,-101 828,-79"/>
<polygon style="fill:midnightblue;stroke:midnightblue;" points="829.427,-82.2259 838,-76 827.416,-75.5212 829.427,-82.2259"/>
</g>
<!-- Node8&#45;&gt;Node3 -->
<g id="edge20" class="edge"><title>Node8&#45;&gt;Node3</title>
<path style="fill:none;stroke:midnightblue;" d="M320,-168C284,-153 221,-123 186,-76 177,-63 171,-44 169,-30"/>
<polygon style="fill:midnightblue;stroke:midnightblue;" points="172.478,-29.6021 168,-20 165.512,-30.2987 172.478,-29.6021"/>
</g>
<!-- Node9 -->
<g id="node18" class="node"><title>Node9</title>
<polygon style="fill:white;stroke:#bfbfbf;" points="195,-56 195,-76 254,-76 254,-56 195,-56"/>
<text text-anchor="middle" x="224" y="-63" style="font-family:Arial;font-size:10.00;">stdexcept</text>
</g>
<!-- Node8&#45;&gt;Node9 -->
<g id="edge18" class="edge"><title>Node8&#45;&gt;Node9</title>
<path style="fill:none;stroke:midnightblue;" d="M336,-168C325,-159 308,-145 294,-132 276,-116 257,-97 243,-83"/>
<polygon style="fill:midnightblue;stroke:midnightblue;" points="244.831,-79.9511 235,-76 240.221,-85.2191 244.831,-79.9511"/>
</g>
<!-- Node10 -->
<g id="node21" class="node"><title>Node10</title>
<a xlink:href="parameters__container_8h.html" target="_top" xlink:title="ltr/parameters_container/parameters_container.h">
<polygon style="fill:white;stroke:black;" points="303,-112 303,-132 528,-132 528,-112 303,-112"/>
<text text-anchor="middle" x="415" y="-119" style="font-family:Arial;font-size:10.00;">ltr/parameters_container/parameters_container.h</text>
</a>
</g>
<!-- Node8&#45;&gt;Node10 -->
<g id="edge22" class="edge"><title>Node8&#45;&gt;Node10</title>
<path style="fill:none;stroke:midnightblue;" d="M360,-168C370,-160 383,-148 395,-139"/>
<polygon style="fill:midnightblue;stroke:midnightblue;" points="397.779,-141.219 403,-132 393.169,-135.951 397.779,-141.219"/>
</g>
<!-- Node10&#45;&gt;Node3 -->
<g id="edge30" class="edge"><title>Node10&#45;&gt;Node3</title>
<path style="fill:none;stroke:midnightblue;" d="M388,-112C364,-103 329,-90 300,-76 283,-68 280,-64 262,-56 241,-45 216,-32 196,-23"/>
<polygon style="fill:midnightblue;stroke:midnightblue;" points="197.56,-19.8631 187,-19 194.717,-26.2598 197.56,-19.8631"/>
</g>
<!-- Node10&#45;&gt;Node9 -->
<g id="edge28" class="edge"><title>Node10&#45;&gt;Node9</title>
<path style="fill:none;stroke:midnightblue;" d="M381,-112C348,-103 299,-88 264,-78"/>
<polygon style="fill:midnightblue;stroke:midnightblue;" points="264.584,-74.5212 254,-75 262.573,-81.2259 264.584,-74.5212"/>
</g>
<!-- Node11 -->
<g id="node23" class="node"><title>Node11</title>
<polygon style="fill:white;stroke:#bfbfbf;" points="309,-56 309,-76 383,-76 383,-56 309,-56"/>
<text text-anchor="middle" x="346" y="-63" style="font-family:Arial;font-size:10.00;">logog/logog.h</text>
</g>
<!-- Node10&#45;&gt;Node11 -->
<g id="edge24" class="edge"><title>Node10&#45;&gt;Node11</title>
<path style="fill:none;stroke:midnightblue;" d="M403,-112C393,-104 378,-93 367,-83"/>
<polygon style="fill:midnightblue;stroke:midnightblue;" points="368.831,-79.9511 359,-76 364.221,-85.2191 368.831,-79.9511"/>
</g>
<!-- Node12 -->
<g id="node25" class="node"><title>Node12</title>
<polygon style="fill:white;stroke:#bfbfbf;" points="401,-56 401,-76 430,-76 430,-56 401,-56"/>
<text text-anchor="middle" x="415" y="-63" style="font-family:Arial;font-size:10.00;">list</text>
</g>
<!-- Node10&#45;&gt;Node12 -->
<g id="edge26" class="edge"><title>Node10&#45;&gt;Node12</title>
<path style="fill:none;stroke:midnightblue;" d="M415,-112C415,-105 415,-95 415,-86"/>
<polygon style="fill:midnightblue;stroke:midnightblue;" points="418.5,-86 415,-76 411.5,-86 418.5,-86"/>
</g>
<!-- Node13 -->
<g id="node29" class="node"><title>Node13</title>
<polygon style="fill:white;stroke:#bfbfbf;" points="447,-56 447,-76 524,-76 524,-56 447,-56"/>
<text text-anchor="middle" x="485" y="-63" style="font-family:Arial;font-size:10.00;">boost/any.hpp</text>
</g>
<!-- Node10&#45;&gt;Node13 -->
<g id="edge32" class="edge"><title>Node10&#45;&gt;Node13</title>
<path style="fill:none;stroke:midnightblue;" d="M428,-112C438,-104 452,-93 464,-83"/>
<polygon style="fill:midnightblue;stroke:midnightblue;" points="466.779,-85.2191 472,-76 462.169,-79.9511 466.779,-85.2191"/>
</g>
<!-- Node14 -->
<g id="node31" class="node"><title>Node14</title>
<polygon style="fill:white;stroke:#bfbfbf;" points="541,-56 541,-76 670,-76 670,-56 541,-56"/>
<text text-anchor="middle" x="605" y="-63" style="font-family:Arial;font-size:10.00;">boost/unordered_map.hpp</text>
</g>
<!-- Node10&#45;&gt;Node14 -->
<g id="edge34" class="edge"><title>Node10&#45;&gt;Node14</title>
<path style="fill:none;stroke:midnightblue;" d="M449,-112C481,-103 528,-89 561,-79"/>
<polygon style="fill:midnightblue;stroke:midnightblue;" points="562.427,-82.2259 571,-76 560.416,-75.5212 562.427,-82.2259"/>
</g>
<!-- Node10&#45;&gt;Node15 -->
<g id="edge36" class="edge"><title>Node10&#45;&gt;Node15</title>
<path style="fill:none;stroke:midnightblue;" d="M511,-112C590,-103 703,-91 811,-76"/>
<polygon style="fill:midnightblue;stroke:midnightblue;" points="811.398,-79.4778 821,-75 810.701,-72.5125 811.398,-79.4778"/>
</g>
<!-- Node19 -->
<g id="node41" class="node"><title>Node19</title>
<a xlink:href="printable_8h.html" target="_top" xlink:title="ltr/interfaces/printable.h">
<polygon style="fill:white;stroke:black;" points="687,-56 687,-76 804,-76 804,-56 687,-56"/>
<text text-anchor="middle" x="745" y="-63" style="font-family:Arial;font-size:10.00;">ltr/interfaces/printable.h</text>
</a>
</g>
<!-- Node10&#45;&gt;Node19 -->
<g id="edge44" class="edge"><title>Node10&#45;&gt;Node19</title>
<path style="fill:none;stroke:midnightblue;" d="M474,-112C531,-103 617,-88 677,-78"/>
<polygon style="fill:midnightblue;stroke:midnightblue;" points="677.881,-81.3933 687,-76 676.508,-74.5292 677.881,-81.3933"/>
</g>
<!-- Node16 -->
<g id="node35" class="node"><title>Node16</title>
<polygon style="fill:white;stroke:#bfbfbf;" points="767,-0 767,-20 823,-20 823,-0 767,-0"/>
<text text-anchor="middle" x="795" y="-7" style="font-family:Arial;font-size:10.00;">algorithm</text>
</g>
<!-- Node15&#45;&gt;Node16 -->
<g id="edge38" class="edge"><title>Node15&#45;&gt;Node16</title>
<path style="fill:none;stroke:midnightblue;" d="M860,-56C848,-48 831,-35 817,-26"/>
<polygon style="fill:midnightblue;stroke:midnightblue;" points="819.1,-23.2 809,-20 814.9,-28.8 819.1,-23.2"/>
</g>
<!-- Node17 -->
<g id="node37" class="node"><title>Node17</title>
<polygon style="fill:white;stroke:#bfbfbf;" points="841,-0 841,-20 948,-20 948,-0 841,-0"/>
<text text-anchor="middle" x="894" y="-7" style="font-family:Arial;font-size:10.00;">boost/shared_ptr.hpp</text>
</g>
<!-- Node15&#45;&gt;Node17 -->
<g id="edge40" class="edge"><title>Node15&#45;&gt;Node17</title>
<path style="fill:none;stroke:midnightblue;" d="M878,-56C880,-49 884,-39 887,-30"/>
<polygon style="fill:midnightblue;stroke:midnightblue;" points="890.479,-30.584 890,-20 883.774,-28.5725 890.479,-30.584"/>
</g>
<!-- Node18 -->
<g id="node39" class="node"><title>Node18</title>
<polygon style="fill:white;stroke:#bfbfbf;" points="965,-0 965,-20 1156,-20 1156,-0 965,-0"/>
<text text-anchor="middle" x="1060" y="-7" style="font-family:Arial;font-size:10.00;">boost/smart_ptr/detail/operator_bool.hpp</text>
</g>
<!-- Node15&#45;&gt;Node18 -->
<g id="edge42" class="edge"><title>Node15&#45;&gt;Node18</title>
<path style="fill:none;stroke:midnightblue;" d="M907,-56C938,-47 983,-33 1017,-23"/>
<polygon style="fill:midnightblue;stroke:midnightblue;" points="1018.43,-26.2259 1027,-20 1016.42,-19.5212 1018.43,-26.2259"/>
</g>
<!-- Node19&#45;&gt;Node3 -->
<g id="edge48" class="edge"><title>Node19&#45;&gt;Node3</title>
<path style="fill:none;stroke:midnightblue;" d="M687,-57C684,-57 681,-56 678,-56 497,-33 277,-17 197,-12"/>
<polygon style="fill:midnightblue;stroke:midnightblue;" points="197.299,-8.5125 187,-11 196.602,-15.4778 197.299,-8.5125"/>
</g>
<!-- Node20 -->
<g id="node43" class="node"><title>Node20</title>
<polygon style="fill:white;stroke:#bfbfbf;" points="699,-0 699,-20 750,-20 750,-0 699,-0"/>
<text text-anchor="middle" x="724" y="-7" style="font-family:Arial;font-size:10.00;">ostream</text>
</g>
<!-- Node19&#45;&gt;Node20 -->
<g id="edge46" class="edge"><title>Node19&#45;&gt;Node20</title>
<path style="fill:none;stroke:midnightblue;" d="M741,-56C738,-49 735,-39 731,-29"/>
<polygon style="fill:midnightblue;stroke:midnightblue;" points="734.483,-28.38 728,-20 727.842,-30.5937 734.483,-28.38"/>
</g>
</g>
</svg>
