<?xml version="1.0" encoding="UTF-8" standalone="no"?>
<!DOCTYPE svg PUBLIC "-//W3C//DTD SVG 1.0//EN"
 "http://www.w3.org/TR/2001/REC-SVG-20010904/DTD/svg10.dtd" [
 <!ATTLIST svg xmlns:xlink CDATA #FIXED "http://www.w3.org/1999/xlink">
]>
<!-- Generated by Graphviz version 2.20.2 (Tue Mar &#160;2 19:03:41 UTC 2010)
     For user: (jenkins)  -->
<!-- Title: G Pages: 1 -->
<svg width="326pt" height="84pt"
 viewBox="0.00 0.00 326.00 84.00" xmlns="http://www.w3.org/2000/svg" xmlns:xlink="http://www.w3.org/1999/xlink">
<g id="graph0" class="graph" transform="scale(1 1) rotate(0) translate(4 80)">
<title>G</title>
<polygon style="fill:white;stroke:white;" points="-4,4 -4,-80 322,-80 322,4 -4,4"/>
<!-- Node1 -->
<g id="node1" class="node"><title>Node1</title>
<polygon style="fill:#bfbfbf;stroke:black;" points="47,-56 47,-76 197,-76 197,-56 47,-56"/>
<text text-anchor="middle" x="122" y="-63" style="font-family:Arial;font-size:10.00;">ltr/data/feature_info_unittest.cc</text>
</g>
<!-- Node2 -->
<g id="node3" class="node"><title>Node2</title>
<polygon style="fill:white;stroke:#bfbfbf;" points="0,-0 0,-20 48,-20 48,-0 0,-0"/>
<text text-anchor="middle" x="24" y="-7" style="font-family:Arial;font-size:10.00;">stdlib.h</text>
</g>
<!-- Node1&#45;&gt;Node2 -->
<g id="edge2" class="edge"><title>Node1&#45;&gt;Node2</title>
<path style="fill:none;stroke:midnightblue;" d="M104,-56C89,-48 67,-35 51,-25"/>
<polygon style="fill:midnightblue;stroke:midnightblue;" points="52.4414,-21.7969 42,-20 49.0418,-27.916 52.4414,-21.7969"/>
</g>
<!-- Node3 -->
<g id="node5" class="node"><title>Node3</title>
<polygon style="fill:white;stroke:#bfbfbf;" points="66,-0 66,-20 106,-20 106,-0 66,-0"/>
<text text-anchor="middle" x="86" y="-7" style="font-family:Arial;font-size:10.00;">string</text>
</g>
<!-- Node1&#45;&gt;Node3 -->
<g id="edge4" class="edge"><title>Node1&#45;&gt;Node3</title>
<path style="fill:none;stroke:midnightblue;" d="M116,-56C111,-49 104,-38 98,-29"/>
<polygon style="fill:midnightblue;stroke:midnightblue;" points="100.916,-27.0418 93,-20 94.7969,-30.4414 100.916,-27.0418"/>
</g>
<!-- Node4 -->
<g id="node7" class="node"><title>Node4</title>
<polygon style="fill:white;stroke:#bfbfbf;" points="124,-0 124,-20 195,-20 195,-0 124,-0"/>
<text text-anchor="middle" x="159" y="-7" style="font-family:Arial;font-size:10.00;">gtest/gtest.h</text>
</g>
<!-- Node1&#45;&gt;Node4 -->
<g id="edge6" class="edge"><title>Node1&#45;&gt;Node4</title>
<path style="fill:none;stroke:midnightblue;" d="M129,-56C134,-48 140,-38 146,-29"/>
<polygon style="fill:midnightblue;stroke:midnightblue;" points="149.365,-30.262 152,-20 143.541,-26.3791 149.365,-30.262"/>
</g>
<!-- Node5 -->
<g id="node9" class="node"><title>Node5</title>
<polygon style="fill:white;stroke:#bfbfbf;" points="212,-0 212,-20 319,-20 319,-0 212,-0"/>
<text text-anchor="middle" x="265" y="-7" style="font-family:Arial;font-size:10.00;">ltr/data/feature_info.h</text>
</g>
<!-- Node1&#45;&gt;Node5 -->
<g id="edge8" class="edge"><title>Node1&#45;&gt;Node5</title>
<path style="fill:none;stroke:midnightblue;" d="M148,-56C171,-47 204,-34 229,-24"/>
<polygon style="fill:midnightblue;stroke:midnightblue;" points="231.015,-26.9636 239,-20 228.415,-20.4643 231.015,-26.9636"/>
</g>
</g>
</svg>
