<?xml version="1.0" encoding="UTF-8" standalone="no"?>
<!DOCTYPE svg PUBLIC "-//W3C//DTD SVG 1.0//EN"
 "http://www.w3.org/TR/2001/REC-SVG-20010904/DTD/svg10.dtd" [
 <!ATTLIST svg xmlns:xlink CDATA #FIXED "http://www.w3.org/1999/xlink">
]>
<!-- Generated by Graphviz version 2.20.2 (Tue Mar &#160;2 19:03:41 UTC 2010)
     For user: (jenkins)  -->
<!-- Title: G Pages: 1 -->
<svg width="1902pt" height="420pt"
 viewBox="0.00 0.00 1902.00 420.00" xmlns="http://www.w3.org/2000/svg" xmlns:xlink="http://www.w3.org/1999/xlink">
<g id="graph0" class="graph" transform="scale(1 1) rotate(0) translate(4 416)">
<title>G</title>
<polygon style="fill:white;stroke:white;" points="-4,4 -4,-416 1898,-416 1898,4 -4,4"/>
<!-- Node1 -->
<g id="node1" class="node"><title>Node1</title>
<polygon style="fill:#bfbfbf;stroke:black;" points="420,-392 420,-412 606,-412 606,-392 420,-392"/>
<text text-anchor="middle" x="513" y="-399" style="font-family:Arial;font-size:10.00;">ltr/feature_converters/feature_sampler.h</text>
</g>
<!-- Node2 -->
<g id="node3" class="node"><title>Node2</title>
<polygon style="fill:white;stroke:#bfbfbf;" points="766,-0 766,-20 806,-20 806,-0 766,-0"/>
<text text-anchor="middle" x="786" y="-7" style="font-family:Arial;font-size:10.00;">string</text>
</g>
<!-- Node1&#45;&gt;Node2 -->
<g id="edge2" class="edge"><title>Node1&#45;&gt;Node2</title>
<path style="fill:none;stroke:midnightblue;" d="M606,-399C916,-390 1892,-354 1892,-290 1892,-290 1892,-290 1892,-122 1892,-91 1897,-74 1873,-56 1829,-21 926,-24 871,-20 853,-18 832,-16 816,-14"/>
<polygon style="fill:midnightblue;stroke:midnightblue;" points="816.299,-10.5125 806,-13 815.602,-17.4778 816.299,-10.5125"/>
</g>
<!-- Node3 -->
<g id="node5" class="node"><title>Node3</title>
<polygon style="fill:white;stroke:#bfbfbf;" points="300,-56 300,-76 342,-76 342,-56 300,-56"/>
<text text-anchor="middle" x="321" y="-63" style="font-family:Arial;font-size:10.00;">vector</text>
</g>
<!-- Node1&#45;&gt;Node3 -->
<g id="edge4" class="edge"><title>Node1&#45;&gt;Node3</title>
<path style="fill:none;stroke:midnightblue;" d="M420,-393C309,-379 140,-348 140,-290 140,-290 140,-290 140,-234 140,-152 239,-100 291,-78"/>
<polygon style="fill:midnightblue;stroke:midnightblue;" points="292.283,-81.2598 300,-74 289.44,-74.8631 292.283,-81.2598"/>
</g>
<!-- Node4 -->
<g id="node7" class="node"><title>Node4</title>
<polygon style="fill:white;stroke:#bfbfbf;" points="560,-0 560,-20 616,-20 616,-0 560,-0"/>
<text text-anchor="middle" x="588" y="-7" style="font-family:Arial;font-size:10.00;">algorithm</text>
</g>
<!-- Node1&#45;&gt;Node4 -->
<g id="edge6" class="edge"><title>Node1&#45;&gt;Node4</title>
<path style="fill:none;stroke:midnightblue;" d="M420,-394C353,-387 261,-375 183,-356 100,-335 0,-376 0,-290 0,-290 0,-290 0,-122 0,-82 25,-73 60,-56 66,-53 430,-23 550,-13"/>
<polygon style="fill:midnightblue;stroke:midnightblue;" points="550.398,-16.4778 560,-12 549.701,-9.5125 550.398,-16.4778"/>
</g>
<!-- Node5 -->
<g id="node9" class="node"><title>Node5</title>
<a xlink:href="object_8h.html" target="_top" xlink:title="ltr/data/object.h">
<polygon style="fill:white;stroke:black;" points="408,-112 408,-132 492,-132 492,-112 408,-112"/>
<text text-anchor="middle" x="450" y="-119" style="font-family:Arial;font-size:10.00;">ltr/data/object.h</text>
</a>
</g>
<!-- Node1&#45;&gt;Node5 -->
<g id="edge8" class="edge"><title>Node1&#45;&gt;Node5</title>
<path style="fill:none;stroke:midnightblue;" d="M494,-392C464,-375 412,-338 412,-290 412,-290 412,-290 412,-234 412,-199 428,-162 439,-141"/>
<polygon style="fill:midnightblue;stroke:midnightblue;" points="442.203,-142.441 444,-132 436.084,-139.042 442.203,-142.441"/>
</g>
<!-- Node10 -->
<g id="node23" class="node"><title>Node10</title>
<a xlink:href="shared__ptr_8h.html" target="_top" xlink:title="ltr/utility/shared_ptr.h">
<polygon style="fill:white;stroke:black;" points="936,-56 936,-76 1043,-76 1043,-56 936,-56"/>
<text text-anchor="middle" x="989" y="-63" style="font-family:Arial;font-size:10.00;">ltr/utility/shared_ptr.h</text>
</a>
</g>
<!-- Node1&#45;&gt;Node10 -->
<g id="edge134" class="edge"><title>Node1&#45;&gt;Node10</title>
<path style="fill:none;stroke:midnightblue;" d="M606,-399C838,-391 1426,-364 1484,-300 1607,-161 1281,-183 1110,-112 1082,-100 1051,-88 1027,-79"/>
<polygon style="fill:midnightblue;stroke:midnightblue;" points="1027.58,-75.5212 1017,-76 1025.57,-82.2259 1027.58,-75.5212"/>
</g>
<!-- Node13 -->
<g id="node30" class="node"><title>Node13</title>
<a xlink:href="feature__info_8h.html" target="_top" xlink:title="ltr/data/feature_info.h">
<polygon style="fill:white;stroke:black;" points="168,-224 168,-244 275,-244 275,-224 168,-224"/>
<text text-anchor="middle" x="221" y="-231" style="font-family:Arial;font-size:10.00;">ltr/data/feature_info.h</text>
</a>
</g>
<!-- Node1&#45;&gt;Node13 -->
<g id="edge34" class="edge"><title>Node1&#45;&gt;Node13</title>
<path style="fill:none;stroke:midnightblue;" d="M482,-392C458,-384 425,-371 398,-356 338,-323 274,-275 242,-250"/>
<polygon style="fill:midnightblue;stroke:midnightblue;" points="244.1,-247.2 234,-244 239.9,-252.8 244.1,-247.2"/>
</g>
<!-- Node20 -->
<g id="node54" class="node"><title>Node20</title>
<a xlink:href="data__set_8h.html" target="_top" xlink:title="ltr/data/data_set.h">
<polygon style="fill:white;stroke:black;" points="466,-280 466,-300 561,-300 561,-280 466,-280"/>
<text text-anchor="middle" x="513" y="-287" style="font-family:Arial;font-size:10.00;">ltr/data/data_set.h</text>
</a>
</g>
<!-- Node1&#45;&gt;Node20 -->
<g id="edge68" class="edge"><title>Node1&#45;&gt;Node20</title>
<path style="fill:none;stroke:midnightblue;" d="M513,-392C513,-373 513,-334 513,-310"/>
<polygon style="fill:midnightblue;stroke:midnightblue;" points="516.5,-310 513,-300 509.5,-310 516.5,-310"/>
</g>
<!-- Node26 -->
<g id="node89" class="node"><title>Node26</title>
<a xlink:href="indices_8h.html" target="_top" xlink:title="ltr/utility/indices.h">
<polygon style="fill:white;stroke:black;" points="852,-112 852,-132 945,-132 945,-112 852,-112"/>
<text text-anchor="middle" x="898" y="-119" style="font-family:Arial;font-size:10.00;">ltr/utility/indices.h</text>
</a>
</g>
<!-- Node1&#45;&gt;Node26 -->
<g id="edge126" class="edge"><title>Node1&#45;&gt;Node26</title>
<path style="fill:none;stroke:midnightblue;" d="M545,-392C609,-371 751,-319 853,-244 879,-224 891,-219 903,-188 908,-173 907,-155 904,-142"/>
<polygon style="fill:midnightblue;stroke:midnightblue;" points="907.226,-140.573 901,-132 900.521,-142.584 907.226,-140.573"/>
</g>
<!-- Node27 -->
<g id="node95" class="node"><title>Node27</title>
<a xlink:href="feature__converter_8h.html" target="_top" xlink:title="ltr/feature_converters/feature_converter.h">
<polygon style="fill:white;stroke:black;" points="796,-336 796,-356 986,-356 986,-336 796,-336"/>
<text text-anchor="middle" x="891" y="-343" style="font-family:Arial;font-size:10.00;">ltr/feature_converters/feature_converter.h</text>
</a>
</g>
<!-- Node1&#45;&gt;Node27 -->
<g id="edge136" class="edge"><title>Node1&#45;&gt;Node27</title>
<path style="fill:none;stroke:midnightblue;" d="M581,-392C646,-382 745,-367 814,-357"/>
<polygon style="fill:midnightblue;stroke:midnightblue;" points="814.398,-360.478 824,-356 813.701,-353.512 814.398,-360.478"/>
</g>
<!-- Node5&#45;&gt;Node2 -->
<g id="edge16" class="edge"><title>Node5&#45;&gt;Node2</title>
<path style="fill:none;stroke:midnightblue;" d="M469,-112C503,-94 570,-60 582,-56 642,-34 716,-20 756,-14"/>
<polygon style="fill:midnightblue;stroke:midnightblue;" points="756.398,-17.4778 766,-13 755.701,-10.5125 756.398,-17.4778"/>
</g>
<!-- Node5&#45;&gt;Node3 -->
<g id="edge18" class="edge"><title>Node5&#45;&gt;Node3</title>
<path style="fill:none;stroke:midnightblue;" d="M427,-112C406,-103 375,-89 351,-79"/>
<polygon style="fill:midnightblue;stroke:midnightblue;" points="352.56,-75.8631 342,-75 349.717,-82.2598 352.56,-75.8631"/>
</g>
<!-- Node6 -->
<g id="node11" class="node"><title>Node6</title>
<polygon style="fill:white;stroke:#bfbfbf;" points="206,-56 206,-76 241,-76 241,-56 206,-56"/>
<text text-anchor="middle" x="223" y="-63" style="font-family:Arial;font-size:10.00;">map</text>
</g>
<!-- Node5&#45;&gt;Node6 -->
<g id="edge10" class="edge"><title>Node5&#45;&gt;Node6</title>
<path style="fill:none;stroke:midnightblue;" d="M409,-112C363,-101 290,-83 251,-73"/>
<polygon style="fill:midnightblue;stroke:midnightblue;" points="251.492,-69.5292 241,-71 250.119,-76.3933 251.492,-69.5292"/>
</g>
<!-- Node7 -->
<g id="node13" class="node"><title>Node7</title>
<polygon style="fill:white;stroke:#bfbfbf;" points="404,-0 404,-20 455,-20 455,-0 404,-0"/>
<text text-anchor="middle" x="429" y="-7" style="font-family:Arial;font-size:10.00;">ostream</text>
</g>
<!-- Node5&#45;&gt;Node7 -->
<g id="edge12" class="edge"><title>Node5&#45;&gt;Node7</title>
<path style="fill:none;stroke:midnightblue;" d="M435,-112C424,-103 411,-91 405,-76 399,-61 406,-42 414,-29"/>
<polygon style="fill:midnightblue;stroke:midnightblue;" points="417.365,-30.262 420,-20 411.541,-26.3791 417.365,-30.262"/>
</g>
<!-- Node8 -->
<g id="node15" class="node"><title>Node8</title>
<polygon style="fill:white;stroke:#bfbfbf;" points="643,-56 643,-76 702,-76 702,-56 643,-56"/>
<text text-anchor="middle" x="672" y="-63" style="font-family:Arial;font-size:10.00;">stdexcept</text>
</g>
<!-- Node5&#45;&gt;Node8 -->
<g id="edge14" class="edge"><title>Node5&#45;&gt;Node8</title>
<path style="fill:none;stroke:midnightblue;" d="M490,-112C530,-102 593,-86 633,-76"/>
<polygon style="fill:midnightblue;stroke:midnightblue;" points="634.427,-79.2259 643,-73 632.416,-72.5212 634.427,-79.2259"/>
</g>
<!-- Node9 -->
<g id="node19" class="node"><title>Node9</title>
<a xlink:href="printable_8h.html" target="_top" xlink:title="ltr/interfaces/printable.h">
<polygon style="fill:white;stroke:black;" points="414,-56 414,-76 531,-76 531,-56 414,-56"/>
<text text-anchor="middle" x="472" y="-63" style="font-family:Arial;font-size:10.00;">ltr/interfaces/printable.h</text>
</a>
</g>
<!-- Node5&#45;&gt;Node9 -->
<g id="edge20" class="edge"><title>Node5&#45;&gt;Node9</title>
<path style="fill:none;stroke:midnightblue;" d="M454,-112C457,-105 461,-95 464,-85"/>
<polygon style="fill:midnightblue;stroke:midnightblue;" points="467.137,-86.5596 468,-76 460.74,-83.7166 467.137,-86.5596"/>
</g>
<!-- Node5&#45;&gt;Node10 -->
<g id="edge26" class="edge"><title>Node5&#45;&gt;Node10</title>
<path style="fill:none;stroke:midnightblue;" d="M492,-118C586,-107 815,-84 926,-72"/>
<polygon style="fill:midnightblue;stroke:midnightblue;" points="926.398,-75.4778 936,-71 925.701,-68.5125 926.398,-75.4778"/>
</g>
<!-- Node9&#45;&gt;Node2 -->
<g id="edge24" class="edge"><title>Node9&#45;&gt;Node2</title>
<path style="fill:none;stroke:midnightblue;" d="M528,-56C594,-44 704,-25 756,-16"/>
<polygon style="fill:midnightblue;stroke:midnightblue;" points="756.881,-19.3933 766,-14 755.508,-12.5292 756.881,-19.3933"/>
</g>
<!-- Node9&#45;&gt;Node7 -->
<g id="edge22" class="edge"><title>Node9&#45;&gt;Node7</title>
<path style="fill:none;stroke:midnightblue;" d="M464,-56C459,-48 450,-38 443,-28"/>
<polygon style="fill:midnightblue;stroke:midnightblue;" points="445.8,-25.9 437,-20 440.2,-30.1 445.8,-25.9"/>
</g>
<!-- Node10&#45;&gt;Node4 -->
<g id="edge28" class="edge"><title>Node10&#45;&gt;Node4</title>
<path style="fill:none;stroke:midnightblue;" d="M936,-59C854,-47 698,-25 626,-15"/>
<polygon style="fill:midnightblue;stroke:midnightblue;" points="626.299,-11.5125 616,-14 625.602,-18.4778 626.299,-11.5125"/>
</g>
<!-- Node11 -->
<g id="node26" class="node"><title>Node11</title>
<polygon style="fill:white;stroke:#bfbfbf;" points="880,-0 880,-20 987,-20 987,-0 880,-0"/>
<text text-anchor="middle" x="933" y="-7" style="font-family:Arial;font-size:10.00;">boost/shared_ptr.hpp</text>
</g>
<!-- Node10&#45;&gt;Node11 -->
<g id="edge30" class="edge"><title>Node10&#45;&gt;Node11</title>
<path style="fill:none;stroke:midnightblue;" d="M979,-56C971,-48 960,-37 950,-27"/>
<polygon style="fill:midnightblue;stroke:midnightblue;" points="952.546,-24.5962 943,-20 947.596,-29.546 952.546,-24.5962"/>
</g>
<!-- Node12 -->
<g id="node28" class="node"><title>Node12</title>
<polygon style="fill:white;stroke:#bfbfbf;" points="1004,-0 1004,-20 1195,-20 1195,-0 1004,-0"/>
<text text-anchor="middle" x="1099" y="-7" style="font-family:Arial;font-size:10.00;">boost/smart_ptr/detail/operator_bool.hpp</text>
</g>
<!-- Node10&#45;&gt;Node12 -->
<g id="edge32" class="edge"><title>Node10&#45;&gt;Node12</title>
<path style="fill:none;stroke:midnightblue;" d="M1009,-56C1025,-47 1051,-34 1070,-25"/>
<polygon style="fill:midnightblue;stroke:midnightblue;" points="1071.96,-27.916 1079,-20 1068.56,-21.7969 1071.96,-27.916"/>
</g>
<!-- Node13&#45;&gt;Node2 -->
<g id="edge38" class="edge"><title>Node13&#45;&gt;Node2</title>
<path style="fill:none;stroke:midnightblue;" d="M214,-224C193,-194 139,-105 184,-56 189,-50 635,-20 756,-12"/>
<polygon style="fill:midnightblue;stroke:midnightblue;" points="756.398,-15.4778 766,-11 755.701,-8.5125 756.398,-15.4778"/>
</g>
<!-- Node13&#45;&gt;Node3 -->
<g id="edge40" class="edge"><title>Node13&#45;&gt;Node3</title>
<path style="fill:none;stroke:midnightblue;" d="M221,-224C222,-201 227,-147 252,-112 262,-98 277,-87 291,-80"/>
<polygon style="fill:midnightblue;stroke:midnightblue;" points="292.958,-82.916 300,-75 289.559,-76.7969 292.958,-82.916"/>
</g>
<!-- Node13&#45;&gt;Node6 -->
<g id="edge36" class="edge"><title>Node13&#45;&gt;Node6</title>
<path style="fill:none;stroke:midnightblue;" d="M216,-224C211,-215 205,-201 202,-188 195,-152 207,-110 216,-85"/>
<polygon style="fill:midnightblue;stroke:midnightblue;" points="219.158,-86.5937 219,-76 212.517,-84.38 219.158,-86.5937"/>
</g>
<!-- Node13&#45;&gt;Node10 -->
<g id="edge66" class="edge"><title>Node13&#45;&gt;Node10</title>
<path style="fill:none;stroke:midnightblue;" d="M268,-224C337,-210 469,-183 583,-168 668,-156 902,-186 969,-132 982,-121 986,-101 988,-86"/>
<polygon style="fill:midnightblue;stroke:midnightblue;" points="991.488,-86.2987 989,-76 984.522,-85.6021 991.488,-86.2987"/>
</g>
<!-- Node14 -->
<g id="node35" class="node"><title>Node14</title>
<a xlink:href="parameterized_8h.html" target="_top" xlink:title="ltr/interfaces/parameterized.h">
<polygon style="fill:white;stroke:black;" points="752,-168 752,-188 894,-188 894,-168 752,-168"/>
<text text-anchor="middle" x="823" y="-175" style="font-family:Arial;font-size:10.00;">ltr/interfaces/parameterized.h</text>
</a>
</g>
<!-- Node13&#45;&gt;Node14 -->
<g id="edge42" class="edge"><title>Node13&#45;&gt;Node14</title>
<path style="fill:none;stroke:midnightblue;" d="M275,-229C381,-219 617,-197 742,-186"/>
<polygon style="fill:midnightblue;stroke:midnightblue;" points="742.398,-189.478 752,-185 741.701,-182.512 742.398,-189.478"/>
</g>
<!-- Node14&#45;&gt;Node2 -->
<g id="edge46" class="edge"><title>Node14&#45;&gt;Node2</title>
<path style="fill:none;stroke:midnightblue;" d="M821,-168C815,-141 798,-66 790,-30"/>
<polygon style="fill:midnightblue;stroke:midnightblue;" points="793.393,-29.1194 788,-20 786.529,-30.4922 793.393,-29.1194"/>
</g>
<!-- Node14&#45;&gt;Node8 -->
<g id="edge44" class="edge"><title>Node14&#45;&gt;Node8</title>
<path style="fill:none;stroke:midnightblue;" d="M809,-168C783,-148 726,-106 694,-82"/>
<polygon style="fill:midnightblue;stroke:midnightblue;" points="696.1,-79.2 686,-76 691.9,-84.8 696.1,-79.2"/>
</g>
<!-- Node15 -->
<g id="node39" class="node"><title>Node15</title>
<a xlink:href="parameters__container_8h.html" target="_top" xlink:title="ltr/parameters_container/parameters_container.h">
<polygon style="fill:white;stroke:black;" points="1190,-112 1190,-132 1415,-132 1415,-112 1190,-112"/>
<text text-anchor="middle" x="1302" y="-119" style="font-family:Arial;font-size:10.00;">ltr/parameters_container/parameters_container.h</text>
</a>
</g>
<!-- Node14&#45;&gt;Node15 -->
<g id="edge48" class="edge"><title>Node14&#45;&gt;Node15</title>
<path style="fill:none;stroke:midnightblue;" d="M894,-170C977,-160 1114,-144 1206,-133"/>
<polygon style="fill:midnightblue;stroke:midnightblue;" points="1206.4,-136.478 1216,-132 1205.7,-129.512 1206.4,-136.478"/>
</g>
<!-- Node15&#45;&gt;Node2 -->
<g id="edge56" class="edge"><title>Node15&#45;&gt;Node2</title>
<path style="fill:none;stroke:midnightblue;" d="M1233,-112C1191,-105 1136,-93 1089,-76 1071,-69 1069,-62 1051,-56 1008,-41 876,-22 816,-14"/>
<polygon style="fill:midnightblue;stroke:midnightblue;" points="816.299,-10.5125 806,-13 815.602,-17.4778 816.299,-10.5125"/>
</g>
<!-- Node15&#45;&gt;Node8 -->
<g id="edge54" class="edge"><title>Node15&#45;&gt;Node8</title>
<path style="fill:none;stroke:midnightblue;" d="M1190,-112C1047,-99 807,-78 712,-70"/>
<polygon style="fill:midnightblue;stroke:midnightblue;" points="712.299,-66.5125 702,-69 711.602,-73.4778 712.299,-66.5125"/>
</g>
<!-- Node15&#45;&gt;Node9 -->
<g id="edge64" class="edge"><title>Node15&#45;&gt;Node9</title>
<path style="fill:none;stroke:midnightblue;" d="M1190,-114C1015,-102 685,-80 541,-71"/>
<polygon style="fill:midnightblue;stroke:midnightblue;" points="541.299,-67.5125 531,-70 540.602,-74.4778 541.299,-67.5125"/>
</g>
<!-- Node15&#45;&gt;Node10 -->
<g id="edge62" class="edge"><title>Node15&#45;&gt;Node10</title>
<path style="fill:none;stroke:midnightblue;" d="M1246,-112C1192,-103 1110,-88 1053,-78"/>
<polygon style="fill:midnightblue;stroke:midnightblue;" points="1053.49,-74.5292 1043,-76 1052.12,-81.3933 1053.49,-74.5292"/>
</g>
<!-- Node16 -->
<g id="node41" class="node"><title>Node16</title>
<polygon style="fill:white;stroke:#bfbfbf;" points="1422,-56 1422,-76 1496,-76 1496,-56 1422,-56"/>
<text text-anchor="middle" x="1459" y="-63" style="font-family:Arial;font-size:10.00;">logog/logog.h</text>
</g>
<!-- Node15&#45;&gt;Node16 -->
<g id="edge50" class="edge"><title>Node15&#45;&gt;Node16</title>
<path style="fill:none;stroke:midnightblue;" d="M1330,-112C1355,-103 1393,-89 1421,-79"/>
<polygon style="fill:midnightblue;stroke:midnightblue;" points="1422.43,-82.2259 1431,-76 1420.42,-75.5212 1422.43,-82.2259"/>
</g>
<!-- Node17 -->
<g id="node43" class="node"><title>Node17</title>
<polygon style="fill:white;stroke:#bfbfbf;" points="1098,-56 1098,-76 1127,-76 1127,-56 1098,-56"/>
<text text-anchor="middle" x="1112" y="-63" style="font-family:Arial;font-size:10.00;">list</text>
</g>
<!-- Node15&#45;&gt;Node17 -->
<g id="edge52" class="edge"><title>Node15&#45;&gt;Node17</title>
<path style="fill:none;stroke:midnightblue;" d="M1260,-112C1228,-104 1182,-92 1136,-76"/>
<polygon style="fill:midnightblue;stroke:midnightblue;" points="1137.59,-72.842 1127,-73 1135.38,-79.4827 1137.59,-72.842"/>
</g>
<!-- Node18 -->
<g id="node47" class="node"><title>Node18</title>
<polygon style="fill:white;stroke:#bfbfbf;" points="1144,-56 1144,-76 1221,-76 1221,-56 1144,-56"/>
<text text-anchor="middle" x="1182" y="-63" style="font-family:Arial;font-size:10.00;">boost/any.hpp</text>
</g>
<!-- Node15&#45;&gt;Node18 -->
<g id="edge58" class="edge"><title>Node15&#45;&gt;Node18</title>
<path style="fill:none;stroke:midnightblue;" d="M1281,-112C1262,-103 1235,-90 1213,-80"/>
<polygon style="fill:midnightblue;stroke:midnightblue;" points="1214.56,-76.8631 1204,-76 1211.72,-83.2598 1214.56,-76.8631"/>
</g>
<!-- Node19 -->
<g id="node49" class="node"><title>Node19</title>
<polygon style="fill:white;stroke:#bfbfbf;" points="1238,-56 1238,-76 1367,-76 1367,-56 1238,-56"/>
<text text-anchor="middle" x="1302" y="-63" style="font-family:Arial;font-size:10.00;">boost/unordered_map.hpp</text>
</g>
<!-- Node15&#45;&gt;Node19 -->
<g id="edge60" class="edge"><title>Node15&#45;&gt;Node19</title>
<path style="fill:none;stroke:midnightblue;" d="M1302,-112C1302,-105 1302,-95 1302,-86"/>
<polygon style="fill:midnightblue;stroke:midnightblue;" points="1305.5,-86 1302,-76 1298.5,-86 1305.5,-86"/>
</g>
<!-- Node20&#45;&gt;Node2 -->
<g id="edge74" class="edge"><title>Node20&#45;&gt;Node2</title>
<path style="fill:none;stroke:midnightblue;" d="M466,-289C346,-284 38,-265 38,-178 38,-178 38,-178 38,-122 38,-57 106,-73 168,-56 197,-47 635,-20 756,-12"/>
<polygon style="fill:midnightblue;stroke:midnightblue;" points="756.398,-15.4778 766,-11 755.701,-8.5125 756.398,-15.4778"/>
</g>
<!-- Node20&#45;&gt;Node3 -->
<g id="edge76" class="edge"><title>Node20&#45;&gt;Node3</title>
<path style="fill:none;stroke:midnightblue;" d="M466,-285C409,-276 315,-252 273,-188 251,-154 283,-108 304,-84"/>
<polygon style="fill:midnightblue;stroke:midnightblue;" points="307.049,-85.8306 311,-76 301.781,-81.221 307.049,-85.8306"/>
</g>
<!-- Node20&#45;&gt;Node5 -->
<g id="edge78" class="edge"><title>Node20&#45;&gt;Node5</title>
<path style="fill:none;stroke:midnightblue;" d="M509,-280C502,-261 486,-221 474,-188 469,-172 462,-155 457,-142"/>
<polygon style="fill:midnightblue;stroke:midnightblue;" points="460.226,-140.573 454,-132 453.521,-142.584 460.226,-140.573"/>
</g>
<!-- Node20&#45;&gt;Node8 -->
<g id="edge72" class="edge"><title>Node20&#45;&gt;Node8</title>
<path style="fill:none;stroke:midnightblue;" d="M558,-280C604,-267 673,-240 705,-188 725,-154 702,-110 686,-85"/>
<polygon style="fill:midnightblue;stroke:midnightblue;" points="688.459,-82.3791 680,-76 682.635,-86.262 688.459,-82.3791"/>
</g>
<!-- Node20&#45;&gt;Node13 -->
<g id="edge108" class="edge"><title>Node20&#45;&gt;Node13</title>
<path style="fill:none;stroke:midnightblue;" d="M466,-281C416,-272 338,-256 283,-246"/>
<polygon style="fill:midnightblue;stroke:midnightblue;" points="283.492,-242.529 273,-244 282.119,-249.393 283.492,-242.529"/>
</g>
<!-- Node21 -->
<g id="node56" class="node"><title>Node21</title>
<polygon style="fill:white;stroke:#bfbfbf;" points="541,-224 541,-244 592,-244 592,-224 541,-224"/>
<text text-anchor="middle" x="566" y="-231" style="font-family:Arial;font-size:10.00;">sstream</text>
</g>
<!-- Node20&#45;&gt;Node21 -->
<g id="edge70" class="edge"><title>Node20&#45;&gt;Node21</title>
<path style="fill:none;stroke:midnightblue;" d="M522,-280C530,-272 541,-261 549,-252"/>
<polygon style="fill:midnightblue;stroke:midnightblue;" points="552.049,-253.831 556,-244 546.781,-249.221 552.049,-253.831"/>
</g>
<!-- Node22 -->
<g id="node62" class="node"><title>Node22</title>
<a xlink:href="object__list_8h.html" target="_top" xlink:title="ltr/data/object_list.h">
<polygon style="fill:white;stroke:black;" points="282,-168 282,-188 384,-188 384,-168 282,-168"/>
<text text-anchor="middle" x="333" y="-175" style="font-family:Arial;font-size:10.00;">ltr/data/object_list.h</text>
</a>
</g>
<!-- Node20&#45;&gt;Node22 -->
<g id="edge80" class="edge"><title>Node20&#45;&gt;Node22</title>
<path style="fill:none;stroke:midnightblue;" d="M496,-280C480,-270 456,-256 436,-244 408,-227 377,-207 356,-193"/>
<polygon style="fill:midnightblue;stroke:midnightblue;" points="358.335,-190.332 348,-188 354.625,-196.268 358.335,-190.332"/>
</g>
<!-- Node23 -->
<g id="node70" class="node"><title>Node23</title>
<a xlink:href="object__pair_8h.html" target="_top" xlink:title="ltr/data/object_pair.h">
<polygon style="fill:white;stroke:black;" points="592,-168 592,-188 696,-188 696,-168 592,-168"/>
<text text-anchor="middle" x="644" y="-175" style="font-family:Arial;font-size:10.00;">ltr/data/object_pair.h</text>
</a>
</g>
<!-- Node20&#45;&gt;Node23 -->
<g id="edge94" class="edge"><title>Node20&#45;&gt;Node23</title>
<path style="fill:none;stroke:midnightblue;" d="M513,-280C514,-265 517,-239 532,-224 545,-209 564,-198 583,-191"/>
<polygon style="fill:midnightblue;stroke:midnightblue;" points="584.427,-194.226 593,-188 582.416,-187.521 584.427,-194.226"/>
</g>
<!-- Node24 -->
<g id="node79" class="node"><title>Node24</title>
<a xlink:href="per__object__accessor_8h.html" target="_top" xlink:title="ltr/data/per_object_accessor.h">
<polygon style="fill:white;stroke:black;" points="698,-224 698,-244 845,-244 845,-224 698,-224"/>
<text text-anchor="middle" x="771" y="-231" style="font-family:Arial;font-size:10.00;">ltr/data/per_object_accessor.h</text>
</a>
</g>
<!-- Node20&#45;&gt;Node24 -->
<g id="edge110" class="edge"><title>Node20&#45;&gt;Node24</title>
<path style="fill:none;stroke:midnightblue;" d="M559,-280C603,-271 668,-256 715,-246"/>
<polygon style="fill:midnightblue;stroke:midnightblue;" points="715.881,-249.393 725,-244 714.508,-242.529 715.881,-249.393"/>
</g>
<!-- Node25 -->
<g id="node86" class="node"><title>Node25</title>
<a xlink:href="aliaser_8h.html" target="_top" xlink:title="ltr/interfaces/aliaser.h">
<polygon style="fill:white;stroke:black;" points="1514,-56 1514,-76 1622,-76 1622,-56 1514,-56"/>
<text text-anchor="middle" x="1568" y="-63" style="font-family:Arial;font-size:10.00;">ltr/interfaces/aliaser.h</text>
</a>
</g>
<!-- Node20&#45;&gt;Node25 -->
<g id="edge122" class="edge"><title>Node20&#45;&gt;Node25</title>
<path style="fill:none;stroke:midnightblue;" d="M561,-286C699,-275 1104,-234 1423,-132 1465,-119 1511,-95 1540,-81"/>
<polygon style="fill:midnightblue;stroke:midnightblue;" points="1541.96,-83.916 1549,-76 1538.56,-77.7969 1541.96,-83.916"/>
</g>
<!-- Node22&#45;&gt;Node2 -->
<g id="edge84" class="edge"><title>Node22&#45;&gt;Node2</title>
<path style="fill:none;stroke:midnightblue;" d="M306,-168C255,-148 155,-101 197,-56 202,-50 636,-20 756,-12"/>
<polygon style="fill:midnightblue;stroke:midnightblue;" points="756.398,-15.4778 766,-11 755.701,-8.5125 756.398,-15.4778"/>
</g>
<!-- Node22&#45;&gt;Node3 -->
<g id="edge86" class="edge"><title>Node22&#45;&gt;Node3</title>
<path style="fill:none;stroke:midnightblue;" d="M332,-168C331,-158 329,-144 328,-132 326,-117 324,-99 323,-86"/>
<polygon style="fill:midnightblue;stroke:midnightblue;" points="326.478,-85.6021 322,-76 319.512,-86.2987 326.478,-85.6021"/>
</g>
<!-- Node22&#45;&gt;Node5 -->
<g id="edge88" class="edge"><title>Node22&#45;&gt;Node5</title>
<path style="fill:none;stroke:midnightblue;" d="M354,-168C372,-159 399,-146 420,-136"/>
<polygon style="fill:midnightblue;stroke:midnightblue;" points="421.283,-139.26 429,-132 418.44,-132.863 421.283,-139.26"/>
</g>
<!-- Node22&#45;&gt;Node8 -->
<g id="edge82" class="edge"><title>Node22&#45;&gt;Node8</title>
<path style="fill:none;stroke:midnightblue;" d="M340,-168C351,-153 373,-125 399,-112 439,-91 567,-76 633,-70"/>
<polygon style="fill:midnightblue;stroke:midnightblue;" points="633.398,-73.4778 643,-69 632.701,-66.5125 633.398,-73.4778"/>
</g>
<!-- Node22&#45;&gt;Node9 -->
<g id="edge90" class="edge"><title>Node22&#45;&gt;Node9</title>
<path style="fill:none;stroke:midnightblue;" d="M336,-168C340,-153 349,-127 366,-112 381,-97 402,-86 421,-79"/>
<polygon style="fill:midnightblue;stroke:midnightblue;" points="422.427,-82.2259 431,-76 420.416,-75.5212 422.427,-82.2259"/>
</g>
<!-- Node22&#45;&gt;Node10 -->
<g id="edge92" class="edge"><title>Node22&#45;&gt;Node10</title>
<path style="fill:none;stroke:midnightblue;" d="M384,-175C530,-166 941,-139 953,-132 969,-121 978,-101 984,-86"/>
<polygon style="fill:midnightblue;stroke:midnightblue;" points="987.479,-86.584 987,-76 980.774,-84.5725 987.479,-86.584"/>
</g>
<!-- Node23&#45;&gt;Node2 -->
<g id="edge98" class="edge"><title>Node23&#45;&gt;Node2</title>
<path style="fill:none;stroke:midnightblue;" d="M639,-168C629,-145 608,-90 634,-56 649,-36 716,-22 756,-15"/>
<polygon style="fill:midnightblue;stroke:midnightblue;" points="756.881,-18.3933 766,-13 755.508,-11.5292 756.881,-18.3933"/>
</g>
<!-- Node23&#45;&gt;Node3 -->
<g id="edge100" class="edge"><title>Node23&#45;&gt;Node3</title>
<path style="fill:none;stroke:midnightblue;" d="M622,-168C601,-158 570,-144 543,-132 524,-123 520,-119 501,-112 450,-93 388,-79 352,-72"/>
<polygon style="fill:midnightblue;stroke:midnightblue;" points="352.492,-68.5292 342,-70 351.119,-75.3933 352.492,-68.5292"/>
</g>
<!-- Node23&#45;&gt;Node5 -->
<g id="edge102" class="edge"><title>Node23&#45;&gt;Node5</title>
<path style="fill:none;stroke:midnightblue;" d="M609,-168C577,-159 530,-145 495,-135"/>
<polygon style="fill:midnightblue;stroke:midnightblue;" points="495.584,-131.521 485,-132 493.573,-138.226 495.584,-131.521"/>
</g>
<!-- Node23&#45;&gt;Node8 -->
<g id="edge96" class="edge"><title>Node23&#45;&gt;Node8</title>
<path style="fill:none;stroke:midnightblue;" d="M646,-168C648,-155 653,-131 658,-112 660,-103 663,-93 665,-85"/>
<polygon style="fill:midnightblue;stroke:midnightblue;" points="668.137,-86.5596 669,-76 661.74,-83.7166 668.137,-86.5596"/>
</g>
<!-- Node23&#45;&gt;Node9 -->
<g id="edge104" class="edge"><title>Node23&#45;&gt;Node9</title>
<path style="fill:none;stroke:midnightblue;" d="M628,-168C599,-148 532,-105 496,-82"/>
<polygon style="fill:midnightblue;stroke:midnightblue;" points="498.1,-79.2 488,-76 493.9,-84.8 498.1,-79.2"/>
</g>
<!-- Node23&#45;&gt;Node10 -->
<g id="edge106" class="edge"><title>Node23&#45;&gt;Node10</title>
<path style="fill:none;stroke:midnightblue;" d="M696,-172C799,-161 1018,-137 1024,-132 1037,-118 1023,-97 1008,-83"/>
<polygon style="fill:midnightblue;stroke:midnightblue;" points="1010.55,-80.5962 1001,-76 1005.6,-85.546 1010.55,-80.5962"/>
</g>
<!-- Node24&#45;&gt;Node5 -->
<g id="edge112" class="edge"><title>Node24&#45;&gt;Node5</title>
<path style="fill:none;stroke:midnightblue;" d="M717,-224C679,-216 627,-204 583,-188 545,-174 502,-152 477,-137"/>
<polygon style="fill:midnightblue;stroke:midnightblue;" points="478.441,-133.797 468,-132 475.042,-139.916 478.441,-133.797"/>
</g>
<!-- Node24&#45;&gt;Node10 -->
<g id="edge120" class="edge"><title>Node24&#45;&gt;Node10</title>
<path style="fill:none;stroke:midnightblue;" d="M813,-224C881,-207 1009,-170 1035,-132 1046,-115 1030,-96 1013,-82"/>
<polygon style="fill:midnightblue;stroke:midnightblue;" points="1015.1,-79.2 1005,-76 1010.9,-84.8 1015.1,-79.2"/>
</g>
<!-- Node24&#45;&gt;Node14 -->
<g id="edge118" class="edge"><title>Node24&#45;&gt;Node14</title>
<path style="fill:none;stroke:midnightblue;" d="M780,-224C787,-216 798,-205 806,-196"/>
<polygon style="fill:midnightblue;stroke:midnightblue;" points="809.049,-197.831 813,-188 803.781,-193.221 809.049,-197.831"/>
</g>
<!-- Node24&#45;&gt;Node22 -->
<g id="edge116" class="edge"><title>Node24&#45;&gt;Node22</title>
<path style="fill:none;stroke:midnightblue;" d="M698,-225C613,-214 474,-197 394,-186"/>
<polygon style="fill:midnightblue;stroke:midnightblue;" points="394.299,-182.512 384,-185 393.602,-189.478 394.299,-182.512"/>
</g>
<!-- Node24&#45;&gt;Node23 -->
<g id="edge114" class="edge"><title>Node24&#45;&gt;Node23</title>
<path style="fill:none;stroke:midnightblue;" d="M748,-224C728,-215 699,-202 676,-192"/>
<polygon style="fill:midnightblue;stroke:midnightblue;" points="677.56,-188.863 667,-188 674.717,-195.26 677.56,-188.863"/>
</g>
<!-- Node25&#45;&gt;Node2 -->
<g id="edge124" class="edge"><title>Node25&#45;&gt;Node2</title>
<path style="fill:none;stroke:midnightblue;" d="M1514,-57C1511,-57 1508,-56 1505,-56 1224,-25 1152,-44 871,-20 853,-18 832,-16 816,-14"/>
<polygon style="fill:midnightblue;stroke:midnightblue;" points="816.299,-10.5125 806,-13 815.602,-17.4778 816.299,-10.5125"/>
</g>
<!-- Node26&#45;&gt;Node2 -->
<g id="edge128" class="edge"><title>Node26&#45;&gt;Node2</title>
<path style="fill:none;stroke:midnightblue;" d="M888,-112C868,-92 827,-51 803,-27"/>
<polygon style="fill:midnightblue;stroke:midnightblue;" points="805.546,-24.5962 796,-20 800.596,-29.546 805.546,-24.5962"/>
</g>
<!-- Node26&#45;&gt;Node3 -->
<g id="edge130" class="edge"><title>Node26&#45;&gt;Node3</title>
<path style="fill:none;stroke:midnightblue;" d="M852,-118C765,-111 569,-93 405,-76 387,-74 368,-72 352,-70"/>
<polygon style="fill:midnightblue;stroke:midnightblue;" points="352.299,-66.5125 342,-69 351.602,-73.4778 352.299,-66.5125"/>
</g>
<!-- Node26&#45;&gt;Node10 -->
<g id="edge132" class="edge"><title>Node26&#45;&gt;Node10</title>
<path style="fill:none;stroke:midnightblue;" d="M914,-112C927,-104 948,-91 963,-81"/>
<polygon style="fill:midnightblue;stroke:midnightblue;" points="964.958,-83.916 972,-76 961.559,-77.7969 964.958,-83.916"/>
</g>
<!-- Node27&#45;&gt;Node2 -->
<g id="edge140" class="edge"><title>Node27&#45;&gt;Node2</title>
<path style="fill:none;stroke:midnightblue;" d="M986,-336C1144,-319 1442,-280 1442,-234 1442,-234 1442,-234 1442,-178 1442,-116 1430,-83 1375,-56 1274,-5 982,-30 871,-20 853,-18 832,-16 816,-14"/>
<polygon style="fill:midnightblue;stroke:midnightblue;" points="816.299,-10.5125 806,-13 815.602,-17.4778 816.299,-10.5125"/>
</g>
<!-- Node27&#45;&gt;Node3 -->
<g id="edge138" class="edge"><title>Node27&#45;&gt;Node3</title>
<path style="fill:none;stroke:midnightblue;" d="M896,-336C910,-305 944,-217 903,-168 885,-146 471,-87 352,-70"/>
<polygon style="fill:midnightblue;stroke:midnightblue;" points="352.299,-66.5125 342,-69 351.602,-73.4778 352.299,-66.5125"/>
</g>
<!-- Node27&#45;&gt;Node5 -->
<g id="edge148" class="edge"><title>Node27&#45;&gt;Node5</title>
<path style="fill:none;stroke:midnightblue;" d="M866,-336C795,-307 594,-224 533,-188 509,-174 485,-153 469,-139"/>
<polygon style="fill:midnightblue;stroke:midnightblue;" points="470.831,-135.951 461,-132 466.221,-141.219 470.831,-135.951"/>
</g>
<!-- Node27&#45;&gt;Node8 -->
<g id="edge142" class="edge"><title>Node27&#45;&gt;Node8</title>
<path style="fill:none;stroke:midnightblue;" d="M901,-336C908,-327 919,-313 924,-300 945,-244 969,-216 936,-168 935,-167 780,-108 708,-80"/>
<polygon style="fill:midnightblue;stroke:midnightblue;" points="708.585,-76.4643 698,-76 705.985,-82.9636 708.585,-76.4643"/>
</g>
<!-- Node27&#45;&gt;Node10 -->
<g id="edge170" class="edge"><title>Node27&#45;&gt;Node10</title>
<path style="fill:none;stroke:midnightblue;" d="M929,-336C996,-318 1124,-276 1124,-234 1124,-234 1124,-234 1124,-178 1124,-128 1069,-96 1030,-80"/>
<polygon style="fill:midnightblue;stroke:midnightblue;" points="1030.58,-76.4643 1020,-76 1027.98,-82.9636 1030.58,-76.4643"/>
</g>
<!-- Node27&#45;&gt;Node13 -->
<g id="edge146" class="edge"><title>Node27&#45;&gt;Node13</title>
<path style="fill:none;stroke:midnightblue;" d="M796,-340C707,-334 572,-322 457,-300 387,-286 308,-263 261,-247"/>
<polygon style="fill:midnightblue;stroke:midnightblue;" points="261.584,-243.521 251,-244 259.573,-250.226 261.584,-243.521"/>
</g>
<!-- Node27&#45;&gt;Node14 -->
<g id="edge152" class="edge"><title>Node27&#45;&gt;Node14</title>
<path style="fill:none;stroke:midnightblue;" d="M889,-336C884,-314 871,-263 853,-224 849,-215 842,-205 837,-196"/>
<polygon style="fill:midnightblue;stroke:midnightblue;" points="839.8,-193.9 831,-188 834.2,-198.1 839.8,-193.9"/>
</g>
<!-- Node27&#45;&gt;Node20 -->
<g id="edge144" class="edge"><title>Node27&#45;&gt;Node20</title>
<path style="fill:none;stroke:midnightblue;" d="M823,-336C752,-326 640,-309 571,-299"/>
<polygon style="fill:midnightblue;stroke:midnightblue;" points="571.492,-295.529 561,-297 570.119,-302.393 571.492,-295.529"/>
</g>
<!-- Node27&#45;&gt;Node24 -->
<g id="edge150" class="edge"><title>Node27&#45;&gt;Node24</title>
<path style="fill:none;stroke:midnightblue;" d="M880,-336C859,-316 815,-275 790,-251"/>
<polygon style="fill:midnightblue;stroke:midnightblue;" points="791.831,-247.951 782,-244 787.221,-253.219 791.831,-247.951"/>
</g>
<!-- Node27&#45;&gt;Node25 -->
<g id="edge168" class="edge"><title>Node27&#45;&gt;Node25</title>
<path style="fill:none;stroke:midnightblue;" d="M986,-342C1136,-335 1415,-320 1456,-300 1492,-282 1518,-274 1518,-234 1518,-234 1518,-234 1518,-178 1518,-147 1524,-139 1537,-112 1541,-102 1547,-92 1553,-84"/>
<polygon style="fill:midnightblue;stroke:midnightblue;" points="1555.8,-86.1 1559,-76 1550.2,-81.9 1555.8,-86.1"/>
</g>
<!-- Node28 -->
<g id="node105" class="node"><title>Node28</title>
<a xlink:href="serializable_8h.html" target="_top" xlink:title="ltr/interfaces/serializable.h">
<polygon style="fill:white;stroke:black;" points="1546,-112 1546,-132 1675,-132 1675,-112 1546,-112"/>
<text text-anchor="middle" x="1610" y="-119" style="font-family:Arial;font-size:10.00;">ltr/interfaces/serializable.h</text>
</a>
</g>
<!-- Node27&#45;&gt;Node28 -->
<g id="edge154" class="edge"><title>Node27&#45;&gt;Node28</title>
<path style="fill:none;stroke:midnightblue;" d="M986,-345C1154,-341 1488,-331 1532,-300 1585,-263 1602,-181 1608,-142"/>
<polygon style="fill:midnightblue;stroke:midnightblue;" points="1611.49,-142.299 1609,-132 1604.52,-141.602 1611.49,-142.299"/>
</g>
<!-- Node28&#45;&gt;Node2 -->
<g id="edge160" class="edge"><title>Node28&#45;&gt;Node2</title>
<path style="fill:none;stroke:midnightblue;" d="M1619,-112C1630,-97 1646,-71 1631,-56 1601,-25 913,-23 871,-20 853,-18 832,-16 816,-14"/>
<polygon style="fill:midnightblue;stroke:midnightblue;" points="816.299,-10.5125 806,-13 815.602,-17.4778 816.299,-10.5125"/>
</g>
<!-- Node28&#45;&gt;Node10 -->
<g id="edge164" class="edge"><title>Node28&#45;&gt;Node10</title>
<path style="fill:none;stroke:midnightblue;" d="M1546,-116C1447,-108 1253,-91 1089,-76 1077,-74 1065,-73 1053,-72"/>
<polygon style="fill:midnightblue;stroke:midnightblue;" points="1053.3,-68.5125 1043,-71 1052.6,-75.4778 1053.3,-68.5125"/>
</g>
<!-- Node28&#45;&gt;Node16 -->
<g id="edge158" class="edge"><title>Node28&#45;&gt;Node16</title>
<path style="fill:none;stroke:midnightblue;" d="M1583,-112C1559,-103 1523,-89 1496,-79"/>
<polygon style="fill:midnightblue;stroke:midnightblue;" points="1496.58,-75.5212 1486,-76 1494.57,-82.2259 1496.58,-75.5212"/>
</g>
<!-- Node28&#45;&gt;Node25 -->
<g id="edge166" class="edge"><title>Node28&#45;&gt;Node25</title>
<path style="fill:none;stroke:midnightblue;" d="M1602,-112C1597,-104 1588,-94 1582,-84"/>
<polygon style="fill:midnightblue;stroke:midnightblue;" points="1584.8,-81.9 1576,-76 1579.2,-86.1 1584.8,-81.9"/>
</g>
<!-- Node29 -->
<g id="node107" class="node"><title>Node29</title>
<polygon style="fill:white;stroke:#bfbfbf;" points="1678,-56 1678,-76 1792,-76 1792,-56 1678,-56"/>
<text text-anchor="middle" x="1735" y="-63" style="font-family:Arial;font-size:10.00;">boost/lexical_cast.hpp</text>
</g>
<!-- Node28&#45;&gt;Node29 -->
<g id="edge156" class="edge"><title>Node28&#45;&gt;Node29</title>
<path style="fill:none;stroke:midnightblue;" d="M1632,-112C1652,-103 1681,-90 1703,-80"/>
<polygon style="fill:midnightblue;stroke:midnightblue;" points="1704.28,-83.2598 1712,-76 1701.44,-76.8631 1704.28,-83.2598"/>
</g>
<!-- Node30 -->
<g id="node111" class="node"><title>Node30</title>
<polygon style="fill:white;stroke:#bfbfbf;" points="1810,-56 1810,-76 1864,-76 1864,-56 1810,-56"/>
<text text-anchor="middle" x="1837" y="-63" style="font-family:Arial;font-size:10.00;">iostream</text>
</g>
<!-- Node28&#45;&gt;Node30 -->
<g id="edge162" class="edge"><title>Node28&#45;&gt;Node30</title>
<path style="fill:none;stroke:midnightblue;" d="M1652,-112C1689,-103 1744,-91 1800,-76"/>
<polygon style="fill:midnightblue;stroke:midnightblue;" points="1801.43,-79.2259 1810,-73 1799.42,-72.5212 1801.43,-79.2259"/>
</g>
</g>
</svg>
