<?xml version="1.0" encoding="UTF-8" standalone="no"?>
<!DOCTYPE svg PUBLIC "-//W3C//DTD SVG 1.0//EN"
 "http://www.w3.org/TR/2001/REC-SVG-20010904/DTD/svg10.dtd" [
 <!ATTLIST svg xmlns:xlink CDATA #FIXED "http://www.w3.org/1999/xlink">
]>
<!-- Generated by Graphviz version 2.20.2 (Tue Mar &#160;2 19:03:41 UTC 2010)
     For user: (jenkins)  -->
<!-- Title: G Pages: 1 -->
<svg width="4906pt" height="196pt"
 viewBox="0.00 0.00 4906.00 196.00" xmlns="http://www.w3.org/2000/svg" xmlns:xlink="http://www.w3.org/1999/xlink">
<g id="graph0" class="graph" transform="scale(1 1) rotate(0) translate(4 192)">
<title>G</title>
<polygon style="fill:white;stroke:white;" points="-4,4 -4,-192 4902,-192 4902,4 -4,4"/>
<!-- Node1 -->
<g id="node1" class="node"><title>Node1</title>
<polygon style="fill:#bfbfbf;stroke:black;" points="3624,-168 3624,-188 3849,-188 3849,-168 3624,-168"/>
<text text-anchor="middle" x="3736" y="-175" style="font-family:Arial;font-size:10.00;">ltr/feature_converters/feature_converter_learner.h</text>
</g>
<!-- Node2 -->
<g id="node3" class="node"><title>Node2</title>
<a xlink:href="learner_8h.html" target="_top" xlink:title="ltr/learners/learner.h">
<polygon style="fill:white;stroke:black;" points="2173,-112 2173,-132 2275,-132 2275,-112 2173,-112"/>
<text text-anchor="middle" x="2224" y="-119" style="font-family:Arial;font-size:10.00;">ltr/learners/learner.h</text>
</a>
</g>
<!-- Node1&#45;&gt;Node2 -->
<g id="edge2" class="edge"><title>Node1&#45;&gt;Node2</title>
<path style="fill:none;stroke:midnightblue;" d="M3614,-174C3301,-162 2488,-132 2275,-124"/>
<polygon style="fill:midnightblue;stroke:midnightblue;" points="3614,-177.5 3624,-174 3614,-170.5 3614,-177.5"/>
</g>
<!-- Node30 -->
<g id="node70" class="node"><title>Node30</title>
<a xlink:href="fake__feature__converter__learner_8h.html" target="_top" xlink:title="ltr/feature_converters/fake_feature_converter_learner.h">
<polygon style="fill:white;stroke:black;" points="3688,-112 3688,-132 3936,-132 3936,-112 3688,-112"/>
<text text-anchor="middle" x="3812" y="-119" style="font-family:Arial;font-size:10.00;">ltr/feature_converters/fake_feature_converter_learner.h</text>
</a>
</g>
<!-- Node1&#45;&gt;Node30 -->
<g id="edge80" class="edge"><title>Node1&#45;&gt;Node30</title>
<path style="fill:none;stroke:midnightblue;" d="M3758,-162C3771,-152 3787,-140 3798,-132"/>
<polygon style="fill:midnightblue;stroke:midnightblue;" points="3755.9,-159.2 3750,-168 3760.1,-164.8 3755.9,-159.2"/>
</g>
<!-- Node31 -->
<g id="node72" class="node"><title>Node31</title>
<a xlink:href="feature__converters__learner__unittest_8cc.html" target="_top" xlink:title="ltr/feature_converters/feature_converters_learner_unittest.cc">
<polygon style="fill:white;stroke:black;" points="3676,-56 3676,-76 3949,-76 3949,-56 3676,-56"/>
<text text-anchor="middle" x="3812" y="-63" style="font-family:Arial;font-size:10.00;">ltr/feature_converters/feature_converters_learner_unittest.cc</text>
</a>
</g>
<!-- Node1&#45;&gt;Node31 -->
<g id="edge84" class="edge"><title>Node1&#45;&gt;Node31</title>
<path style="fill:none;stroke:midnightblue;" d="M3707,-163C3687,-150 3666,-130 3679,-112 3689,-97 3731,-84 3765,-76"/>
<polygon style="fill:midnightblue;stroke:midnightblue;" points="3705.56,-166.203 3716,-168 3708.96,-160.084 3705.56,-166.203"/>
</g>
<!-- Node32 -->
<g id="node75" class="node"><title>Node32</title>
<a xlink:href="feature__sampler__learner_8h.html" target="_top" xlink:title="ltr/feature_converters/feature_sampler_learner.h">
<polygon style="fill:white;stroke:black;" points="3954,-112 3954,-132 4174,-132 4174,-112 3954,-112"/>
<text text-anchor="middle" x="4064" y="-119" style="font-family:Arial;font-size:10.00;">ltr/feature_converters/feature_sampler_learner.h</text>
</a>
</g>
<!-- Node1&#45;&gt;Node32 -->
<g id="edge86" class="edge"><title>Node1&#45;&gt;Node32</title>
<path style="fill:none;stroke:midnightblue;" d="M3805,-166C3864,-156 3949,-141 4006,-132"/>
<polygon style="fill:midnightblue;stroke:midnightblue;" points="3804.12,-162.607 3795,-168 3805.49,-169.471 3804.12,-162.607"/>
</g>
<!-- Node33 -->
<g id="node78" class="node"><title>Node33</title>
<a xlink:href="feature__random__sampler__learner_8h.html" target="_top" xlink:title="ltr/feature_converters/feature_random_sampler_learner.h">
<polygon style="fill:white;stroke:black;" points="2914,-112 2914,-132 3172,-132 3172,-112 2914,-112"/>
<text text-anchor="middle" x="3043" y="-119" style="font-family:Arial;font-size:10.00;">ltr/feature_converters/feature_random_sampler_learner.h</text>
</a>
</g>
<!-- Node1&#45;&gt;Node33 -->
<g id="edge90" class="edge"><title>Node1&#45;&gt;Node33</title>
<path style="fill:none;stroke:midnightblue;" d="M3614,-168C3488,-158 3294,-142 3167,-132"/>
<polygon style="fill:midnightblue;stroke:midnightblue;" points="3613.7,-171.488 3624,-169 3614.4,-164.522 3613.7,-171.488"/>
</g>
<!-- Node34 -->
<g id="node83" class="node"><title>Node34</title>
<a xlink:href="feature__normalizer__learner_8h.html" target="_top" xlink:title="ltr/feature_converters/feature_normalizer_learner.h">
<polygon style="fill:white;stroke:black;" points="4192,-112 4192,-132 4423,-132 4423,-112 4192,-112"/>
<text text-anchor="middle" x="4307" y="-119" style="font-family:Arial;font-size:10.00;">ltr/feature_converters/feature_normalizer_learner.h</text>
</a>
</g>
<!-- Node1&#45;&gt;Node34 -->
<g id="edge98" class="edge"><title>Node1&#45;&gt;Node34</title>
<path style="fill:none;stroke:midnightblue;" d="M3848,-167C3952,-157 4105,-142 4205,-132"/>
<polygon style="fill:midnightblue;stroke:midnightblue;" points="3847.6,-163.522 3838,-168 3848.3,-170.488 3847.6,-163.522"/>
</g>
<!-- Node35 -->
<g id="node86" class="node"><title>Node35</title>
<a xlink:href="nan__to__zero__learner_8h.html" target="_top" xlink:title="ltr/feature_converters/nan_to_zero_learner.h">
<polygon style="fill:white;stroke:black;" points="3190,-112 3190,-132 3394,-132 3394,-112 3190,-112"/>
<text text-anchor="middle" x="3292" y="-119" style="font-family:Arial;font-size:10.00;">ltr/feature_converters/nan_to_zero_learner.h</text>
</a>
</g>
<!-- Node1&#45;&gt;Node35 -->
<g id="edge102" class="edge"><title>Node1&#45;&gt;Node35</title>
<path style="fill:none;stroke:midnightblue;" d="M3647,-167C3566,-157 3449,-142 3371,-132"/>
<polygon style="fill:midnightblue;stroke:midnightblue;" points="3646.7,-170.488 3657,-168 3647.4,-163.522 3646.7,-170.488"/>
</g>
<!-- Node36 -->
<g id="node90" class="node"><title>Node36</title>
<a xlink:href="nan__to__average__learner_8h.html" target="_top" xlink:title="ltr/feature_converters/nan_to_average_learner.h">
<polygon style="fill:white;stroke:black;" points="4440,-112 4440,-132 4659,-132 4659,-112 4440,-112"/>
<text text-anchor="middle" x="4549" y="-119" style="font-family:Arial;font-size:10.00;">ltr/feature_converters/nan_to_average_learner.h</text>
</a>
</g>
<!-- Node1&#45;&gt;Node36 -->
<g id="edge108" class="edge"><title>Node1&#45;&gt;Node36</title>
<path style="fill:none;stroke:midnightblue;" d="M3859,-170C3999,-162 4231,-147 4431,-132 4434,-132 4437,-132 4440,-131"/>
<polygon style="fill:midnightblue;stroke:midnightblue;" points="3858.6,-166.522 3849,-171 3859.3,-173.488 3858.6,-166.522"/>
</g>
<!-- Node37 -->
<g id="node93" class="node"><title>Node37</title>
<a xlink:href="nominal__to__bool__learner_8h.html" target="_top" xlink:title="ltr/feature_converters/nominal_to_bool_learner.h">
<polygon style="fill:white;stroke:black;" points="4676,-112 4676,-132 4898,-132 4898,-112 4676,-112"/>
<text text-anchor="middle" x="4787" y="-119" style="font-family:Arial;font-size:10.00;">ltr/feature_converters/nominal_to_bool_learner.h</text>
</a>
</g>
<!-- Node1&#45;&gt;Node37 -->
<g id="edge112" class="edge"><title>Node1&#45;&gt;Node37</title>
<path style="fill:none;stroke:midnightblue;" d="M3859,-174C4037,-165 4378,-151 4667,-132 4670,-132 4673,-132 4676,-131"/>
<polygon style="fill:midnightblue;stroke:midnightblue;" points="3859,-170.5 3849,-174 3859,-177.5 3859,-170.5"/>
</g>
<!-- Node38 -->
<g id="node96" class="node"><title>Node38</title>
<a xlink:href="remove__nominal__learner_8h.html" target="_top" xlink:title="ltr/feature_converters/remove_nominal_learner.h">
<polygon style="fill:white;stroke:black;" points="3412,-112 3412,-132 3633,-132 3633,-112 3412,-112"/>
<text text-anchor="middle" x="3522" y="-119" style="font-family:Arial;font-size:10.00;">ltr/feature_converters/remove_nominal_learner.h</text>
</a>
</g>
<!-- Node1&#45;&gt;Node38 -->
<g id="edge116" class="edge"><title>Node1&#45;&gt;Node38</title>
<path style="fill:none;stroke:midnightblue;" d="M3688,-165C3649,-155 3596,-141 3560,-132"/>
<polygon style="fill:midnightblue;stroke:midnightblue;" points="3687.42,-168.479 3698,-168 3689.43,-161.774 3687.42,-168.479"/>
</g>
<!-- Node3 -->
<g id="node5" class="node"><title>Node3</title>
<a xlink:href="crossvalidation_8h.html" target="_top" xlink:title="ltr/crossvalidation/crossvalidation.h">
<polygon style="fill:white;stroke:black;" points="2501,-56 2501,-76 2667,-76 2667,-56 2501,-56"/>
<text text-anchor="middle" x="2584" y="-63" style="font-family:Arial;font-size:10.00;">ltr/crossvalidation/crossvalidation.h</text>
</a>
</g>
<!-- Node2&#45;&gt;Node3 -->
<g id="edge4" class="edge"><title>Node2&#45;&gt;Node3</title>
<path style="fill:none;stroke:midnightblue;" d="M2285,-112C2351,-102 2455,-86 2520,-76"/>
<polygon style="fill:midnightblue;stroke:midnightblue;" points="2284.12,-108.607 2275,-114 2285.49,-115.471 2284.12,-108.607"/>
</g>
<!-- Node5 -->
<g id="node9" class="node"><title>Node5</title>
<a xlink:href="crossvalidation__result_8h.html" target="_top" xlink:title="ltr/crossvalidation/crossvalidation_result.h">
<polygon style="fill:white;stroke:black;" points="993,-56 993,-76 1188,-76 1188,-56 993,-56"/>
<text text-anchor="middle" x="1090" y="-63" style="font-family:Arial;font-size:10.00;">ltr/crossvalidation/crossvalidation_result.h</text>
</a>
</g>
<!-- Node2&#45;&gt;Node5 -->
<g id="edge8" class="edge"><title>Node2&#45;&gt;Node5</title>
<path style="fill:none;stroke:midnightblue;" d="M2163,-121C2004,-115 1562,-100 1196,-76 1193,-76 1191,-76 1188,-75"/>
<polygon style="fill:midnightblue;stroke:midnightblue;" points="2163,-124.5 2173,-121 2163,-117.5 2163,-124.5"/>
</g>
<!-- Node6 -->
<g id="node11" class="node"><title>Node6</title>
<a xlink:href="best__feature__learner_8h.html" target="_top" xlink:title="ltr/learners/best_feature_learner/best_feature_learner.h">
<polygon style="fill:white;stroke:black;" points="2233,-56 2233,-76 2484,-76 2484,-56 2233,-56"/>
<text text-anchor="middle" x="2358" y="-63" style="font-family:Arial;font-size:10.00;">ltr/learners/best_feature_learner/best_feature_learner.h</text>
</a>
</g>
<!-- Node2&#45;&gt;Node6 -->
<g id="edge10" class="edge"><title>Node2&#45;&gt;Node6</title>
<path style="fill:none;stroke:midnightblue;" d="M2257,-108C2281,-98 2312,-85 2334,-76"/>
<polygon style="fill:midnightblue;stroke:midnightblue;" points="2255.72,-104.74 2248,-112 2258.56,-111.137 2255.72,-104.74"/>
</g>
<!-- Node11 -->
<g id="node22" class="node"><title>Node11</title>
<a xlink:href="crossvalidator_8h.html" target="_top" xlink:title="ltr/crossvalidation/crossvalidator.h">
<polygon style="fill:white;stroke:black;" points="2685,-56 2685,-76 2846,-76 2846,-56 2685,-56"/>
<text text-anchor="middle" x="2765" y="-63" style="font-family:Arial;font-size:10.00;">ltr/crossvalidation/crossvalidator.h</text>
</a>
</g>
<!-- Node2&#45;&gt;Node11 -->
<g id="edge22" class="edge"><title>Node2&#45;&gt;Node11</title>
<path style="fill:none;stroke:midnightblue;" d="M2285,-116C2372,-107 2537,-90 2676,-76 2679,-76 2682,-75 2685,-75"/>
<polygon style="fill:midnightblue;stroke:midnightblue;" points="2284.6,-112.522 2275,-117 2285.3,-119.488 2284.6,-112.522"/>
</g>
<!-- Node13 -->
<g id="node26" class="node"><title>Node13</title>
<a xlink:href="bayesian__learner_8h.html" target="_top" xlink:title="ltr/learners/bayesian_learner/bayesian_learner.h">
<polygon style="fill:white;stroke:black;" points="1689,-56 1689,-76 1911,-76 1911,-56 1689,-56"/>
<text text-anchor="middle" x="1800" y="-63" style="font-family:Arial;font-size:10.00;">ltr/learners/bayesian_learner/bayesian_learner.h</text>
</a>
</g>
<!-- Node2&#45;&gt;Node13 -->
<g id="edge26" class="edge"><title>Node2&#45;&gt;Node13</title>
<path style="fill:none;stroke:midnightblue;" d="M2163,-114C2087,-103 1958,-87 1876,-76"/>
<polygon style="fill:midnightblue;stroke:midnightblue;" points="2162.7,-117.488 2173,-115 2163.4,-110.522 2162.7,-117.488"/>
</g>
<!-- Node15 -->
<g id="node31" class="node"><title>Node15</title>
<a xlink:href="composition__learner_8h.html" target="_top" xlink:title="ltr/learners/composition_learner/composition_learner.h">
<polygon style="fill:white;stroke:black;" points="1967,-56 1967,-76 2216,-76 2216,-56 1967,-56"/>
<text text-anchor="middle" x="2091" y="-63" style="font-family:Arial;font-size:10.00;">ltr/learners/composition_learner/composition_learner.h</text>
</a>
</g>
<!-- Node2&#45;&gt;Node15 -->
<g id="edge32" class="edge"><title>Node2&#45;&gt;Node15</title>
<path style="fill:none;stroke:midnightblue;" d="M2191,-108C2167,-98 2136,-85 2115,-76"/>
<polygon style="fill:midnightblue;stroke:midnightblue;" points="2189.44,-111.137 2200,-112 2192.28,-104.74 2189.44,-111.137"/>
</g>
<!-- Node16 -->
<g id="node36" class="node"><title>Node16</title>
<a xlink:href="decision__tree__learner_8h.html" target="_top" xlink:title="ltr/learners/decision_tree/decision_tree_learner.h">
<polygon style="fill:white;stroke:black;" points="1205,-56 1205,-76 1430,-76 1430,-56 1205,-56"/>
<text text-anchor="middle" x="1317" y="-63" style="font-family:Arial;font-size:10.00;">ltr/learners/decision_tree/decision_tree_learner.h</text>
</a>
</g>
<!-- Node2&#45;&gt;Node16 -->
<g id="edge40" class="edge"><title>Node2&#45;&gt;Node16</title>
<path style="fill:none;stroke:midnightblue;" d="M2163,-119C2030,-112 1708,-94 1438,-76 1435,-76 1433,-76 1430,-75"/>
<polygon style="fill:midnightblue;stroke:midnightblue;" points="2163,-122.5 2173,-119 2163,-115.5 2163,-122.5"/>
</g>
<!-- Node19 -->
<g id="node43" class="node"><title>Node19</title>
<a xlink:href="gp__learner_8h.html" target="_top" xlink:title="ltr/learners/gp_learner/gp_learner.h">
<polygon style="fill:white;stroke:black;" points="2863,-56 2863,-76 3028,-76 3028,-56 2863,-56"/>
<text text-anchor="middle" x="2945" y="-63" style="font-family:Arial;font-size:10.00;">ltr/learners/gp_learner/gp_learner.h</text>
</a>
</g>
<!-- Node2&#45;&gt;Node19 -->
<g id="edge48" class="edge"><title>Node2&#45;&gt;Node19</title>
<path style="fill:none;stroke:midnightblue;" d="M2285,-118C2398,-111 2646,-94 2854,-76 2857,-76 2860,-75 2863,-75"/>
<polygon style="fill:midnightblue;stroke:midnightblue;" points="2284.6,-114.522 2275,-119 2285.3,-121.488 2284.6,-114.522"/>
</g>
<!-- Node22 -->
<g id="node50" class="node"><title>Node22</title>
<a xlink:href="linear__learner_8h.html" target="_top" xlink:title="ltr/learners/linear_learner/linear_learner.h">
<polygon style="fill:white;stroke:black;" points="3397,-56 3397,-76 3588,-76 3588,-56 3397,-56"/>
<text text-anchor="middle" x="3492" y="-63" style="font-family:Arial;font-size:10.00;">ltr/learners/linear_learner/linear_learner.h</text>
</a>
</g>
<!-- Node2&#45;&gt;Node22 -->
<g id="edge56" class="edge"><title>Node2&#45;&gt;Node22</title>
<path style="fill:none;stroke:midnightblue;" d="M2285,-120C2490,-110 3149,-81 3397,-70"/>
<polygon style="fill:midnightblue;stroke:midnightblue;" points="2285,-116.5 2275,-120 2285,-123.5 2285,-116.5"/>
</g>
<!-- Node25 -->
<g id="node58" class="node"><title>Node25</title>
<a xlink:href="nearest__neighbor__learner_8h.html" target="_top" xlink:title="ltr/learners/nearest_neighbor_learner/nearest_neighbor_learner.h">
<polygon style="fill:white;stroke:black;" points="510,-56 510,-76 803,-76 803,-56 510,-56"/>
<text text-anchor="middle" x="656" y="-63" style="font-family:Arial;font-size:10.00;">ltr/learners/nearest_neighbor_learner/nearest_neighbor_learner.h</text>
</a>
</g>
<!-- Node2&#45;&gt;Node25 -->
<g id="edge66" class="edge"><title>Node2&#45;&gt;Node25</title>
<path style="fill:none;stroke:midnightblue;" d="M2163,-120C1934,-112 1136,-83 803,-71"/>
<polygon style="fill:midnightblue;stroke:midnightblue;" points="2163,-123.5 2173,-120 2163,-116.5 2163,-123.5"/>
</g>
<!-- Node28 -->
<g id="node65" class="node"><title>Node28</title>
<a xlink:href="generator__utility_8h.html" target="_top" xlink:title="ltr/serialization_test/generator/generator_utility.h">
<polygon style="fill:white;stroke:black;" points="1447,-56 1447,-76 1671,-76 1671,-56 1447,-56"/>
<text text-anchor="middle" x="1559" y="-63" style="font-family:Arial;font-size:10.00;">ltr/serialization_test/generator/generator_utility.h</text>
</a>
</g>
<!-- Node2&#45;&gt;Node28 -->
<g id="edge74" class="edge"><title>Node2&#45;&gt;Node28</title>
<path style="fill:none;stroke:midnightblue;" d="M2163,-117C2051,-108 1813,-88 1671,-76"/>
<polygon style="fill:midnightblue;stroke:midnightblue;" points="2162.7,-120.488 2173,-118 2163.4,-113.522 2162.7,-120.488"/>
</g>
<!-- Node4 -->
<g id="node7" class="node"><title>Node4</title>
<a xlink:href="crossvalidation__unittest_8cc.html" target="_top" xlink:title="ltr/crossvalidation/crossvalidation_unittest.cc">
<polygon style="fill:white;stroke:black;" points="2532,-0 2532,-20 2741,-20 2741,-0 2532,-0"/>
<text text-anchor="middle" x="2636" y="-7" style="font-family:Arial;font-size:10.00;">ltr/crossvalidation/crossvalidation_unittest.cc</text>
</a>
</g>
<!-- Node3&#45;&gt;Node4 -->
<g id="edge6" class="edge"><title>Node3&#45;&gt;Node4</title>
<path style="fill:none;stroke:midnightblue;" d="M2600,-49C2608,-39 2619,-29 2626,-20"/>
<polygon style="fill:midnightblue;stroke:midnightblue;" points="2597.6,-46.454 2593,-56 2602.55,-51.4038 2597.6,-46.454"/>
</g>
<!-- Node6&#45;&gt;Node4 -->
<g id="edge12" class="edge"><title>Node6&#45;&gt;Node4</title>
<path style="fill:none;stroke:midnightblue;" d="M2418,-54C2468,-44 2539,-29 2586,-20"/>
<polygon style="fill:midnightblue;stroke:midnightblue;" points="2417.12,-50.6067 2408,-56 2418.49,-57.4708 2417.12,-50.6067"/>
</g>
<!-- Node7 -->
<g id="node14" class="node"><title>Node7</title>
<a xlink:href="composition__learner__unittest_8cc.html" target="_top" xlink:title="ltr/learners/composition_learner/composition_learner_unittest.cc">
<polygon style="fill:white;stroke:black;" points="1918,-0 1918,-20 2211,-20 2211,-0 1918,-0"/>
<text text-anchor="middle" x="2064" y="-7" style="font-family:Arial;font-size:10.00;">ltr/learners/composition_learner/composition_learner_unittest.cc</text>
</a>
</g>
<!-- Node6&#45;&gt;Node7 -->
<g id="edge14" class="edge"><title>Node6&#45;&gt;Node7</title>
<path style="fill:none;stroke:midnightblue;" d="M2295,-54C2242,-44 2167,-29 2117,-20"/>
<polygon style="fill:midnightblue;stroke:midnightblue;" points="2294.51,-57.4708 2305,-56 2295.88,-50.6067 2294.51,-57.4708"/>
</g>
<!-- Node8 -->
<g id="node16" class="node"><title>Node8</title>
<a xlink:href="linear__composition__unittest_8cc.html" target="_top" xlink:title="ltr/learners/composition_learner/linear_composition_unittest.cc">
<polygon style="fill:white;stroke:black;" points="2228,-0 2228,-20 2515,-20 2515,-0 2228,-0"/>
<text text-anchor="middle" x="2371" y="-7" style="font-family:Arial;font-size:10.00;">ltr/learners/composition_learner/linear_composition_unittest.cc</text>
</a>
</g>
<!-- Node6&#45;&gt;Node8 -->
<g id="edge16" class="edge"><title>Node6&#45;&gt;Node8</title>
<path style="fill:none;stroke:midnightblue;" d="M2363,-46C2365,-38 2367,-28 2369,-20"/>
<polygon style="fill:midnightblue;stroke:midnightblue;" points="2359.52,-45.416 2360,-56 2366.23,-47.4275 2359.52,-45.416"/>
</g>
<!-- Node9 -->
<g id="node18" class="node"><title>Node9</title>
<a xlink:href="learners__unittest_8cc.html" target="_top" xlink:title="ltr/learners/learners_unittest.cc">
<polygon style="fill:white;stroke:black;" points="3608,-0 3608,-20 3758,-20 3758,-0 3608,-0"/>
<text text-anchor="middle" x="3683" y="-7" style="font-family:Arial;font-size:10.00;">ltr/learners/learners_unittest.cc</text>
</a>
</g>
<!-- Node6&#45;&gt;Node9 -->
<g id="edge18" class="edge"><title>Node6&#45;&gt;Node9</title>
<path style="fill:none;stroke:midnightblue;" d="M2494,-55C2985,-29 3111,-57 3599,-20 3602,-20 3605,-20 3608,-19"/>
<polygon style="fill:midnightblue;stroke:midnightblue;" points="2493.6,-51.5222 2484,-56 2494.3,-58.4875 2493.6,-51.5222"/>
</g>
<!-- Node10 -->
<g id="node20" class="node"><title>Node10</title>
<a xlink:href="generator_8cc.html" target="_top" xlink:title="ltr/serialization_test/generator/generator.cc">
<polygon style="fill:white;stroke:black;" points="1700,-0 1700,-20 1901,-20 1901,-0 1700,-0"/>
<text text-anchor="middle" x="1800" y="-7" style="font-family:Arial;font-size:10.00;">ltr/serialization_test/generator/generator.cc</text>
</a>
</g>
<!-- Node6&#45;&gt;Node10 -->
<g id="edge20" class="edge"><title>Node6&#45;&gt;Node10</title>
<path style="fill:none;stroke:midnightblue;" d="M2248,-55C2147,-45 1998,-30 1899,-20"/>
<polygon style="fill:midnightblue;stroke:midnightblue;" points="2247.7,-58.4875 2258,-56 2248.4,-51.5222 2247.7,-58.4875"/>
</g>
<!-- Node12 -->
<g id="node24" class="node"><title>Node12</title>
<a xlink:href="crossvalidator__unittest_8cc.html" target="_top" xlink:title="ltr/crossvalidation/crossvalidator_unittest.cc">
<polygon style="fill:white;stroke:black;" points="2758,-0 2758,-20 2962,-20 2962,-0 2758,-0"/>
<text text-anchor="middle" x="2860" y="-7" style="font-family:Arial;font-size:10.00;">ltr/crossvalidation/crossvalidator_unittest.cc</text>
</a>
</g>
<!-- Node11&#45;&gt;Node12 -->
<g id="edge24" class="edge"><title>Node11&#45;&gt;Node12</title>
<path style="fill:none;stroke:midnightblue;" d="M2791,-51C2807,-41 2828,-28 2843,-20"/>
<polygon style="fill:midnightblue;stroke:midnightblue;" points="2789.04,-48.084 2782,-56 2792.44,-54.2031 2789.04,-48.084"/>
</g>
<!-- Node13&#45;&gt;Node10 -->
<g id="edge30" class="edge"><title>Node13&#45;&gt;Node10</title>
<path style="fill:none;stroke:midnightblue;" d="M1800,-46C1800,-37 1800,-28 1800,-20"/>
<polygon style="fill:midnightblue;stroke:midnightblue;" points="1796.5,-46 1800,-56 1803.5,-46 1796.5,-46"/>
</g>
<!-- Node14 -->
<g id="node28" class="node"><title>Node14</title>
<a xlink:href="bayesian__learner__unittest_8cc.html" target="_top" xlink:title="ltr/learners/bayesian_learner/bayesian_learner_unittest.cc">
<polygon style="fill:white;stroke:black;" points="1416,-0 1416,-20 1682,-20 1682,-0 1416,-0"/>
<text text-anchor="middle" x="1549" y="-7" style="font-family:Arial;font-size:10.00;">ltr/learners/bayesian_learner/bayesian_learner_unittest.cc</text>
</a>
</g>
<!-- Node13&#45;&gt;Node14 -->
<g id="edge28" class="edge"><title>Node13&#45;&gt;Node14</title>
<path style="fill:none;stroke:midnightblue;" d="M1745,-54C1700,-44 1636,-29 1594,-20"/>
<polygon style="fill:midnightblue;stroke:midnightblue;" points="1744.51,-57.4708 1755,-56 1745.88,-50.6067 1744.51,-57.4708"/>
</g>
<!-- Node15&#45;&gt;Node7 -->
<g id="edge34" class="edge"><title>Node15&#45;&gt;Node7</title>
<path style="fill:none;stroke:midnightblue;" d="M2082,-47C2077,-38 2073,-28 2069,-20"/>
<polygon style="fill:midnightblue;stroke:midnightblue;" points="2078.74,-48.2834 2086,-56 2085.14,-45.4404 2078.74,-48.2834"/>
</g>
<!-- Node15&#45;&gt;Node8 -->
<g id="edge36" class="edge"><title>Node15&#45;&gt;Node8</title>
<path style="fill:none;stroke:midnightblue;" d="M2151,-54C2202,-44 2273,-29 2321,-20"/>
<polygon style="fill:midnightblue;stroke:midnightblue;" points="2150.12,-50.6067 2141,-56 2151.49,-57.4708 2150.12,-50.6067"/>
</g>
<!-- Node15&#45;&gt;Node10 -->
<g id="edge38" class="edge"><title>Node15&#45;&gt;Node10</title>
<path style="fill:none;stroke:midnightblue;" d="M2029,-54C1976,-44 1902,-29 1852,-20"/>
<polygon style="fill:midnightblue;stroke:midnightblue;" points="2028.51,-57.4708 2039,-56 2029.88,-50.6067 2028.51,-57.4708"/>
</g>
<!-- Node16&#45;&gt;Node10 -->
<g id="edge46" class="edge"><title>Node16&#45;&gt;Node10</title>
<path style="fill:none;stroke:midnightblue;" d="M1413,-55C1501,-45 1629,-30 1714,-20"/>
<polygon style="fill:midnightblue;stroke:midnightblue;" points="1412.6,-51.5222 1403,-56 1413.3,-58.4875 1412.6,-51.5222"/>
</g>
<!-- Node17 -->
<g id="node38" class="node"><title>Node17</title>
<a xlink:href="decision__tree__learner_8cc.html" target="_top" xlink:title="ltr/learners/decision_tree/decision_tree_learner.cc">
<polygon style="fill:white;stroke:black;" points="922,-0 922,-20 1153,-20 1153,-0 922,-0"/>
<text text-anchor="middle" x="1037" y="-7" style="font-family:Arial;font-size:10.00;">ltr/learners/decision_tree/decision_tree_learner.cc</text>
</a>
</g>
<!-- Node16&#45;&gt;Node17 -->
<g id="edge42" class="edge"><title>Node16&#45;&gt;Node17</title>
<path style="fill:none;stroke:midnightblue;" d="M1257,-54C1206,-44 1135,-29 1087,-20"/>
<polygon style="fill:midnightblue;stroke:midnightblue;" points="1256.51,-57.4708 1267,-56 1257.88,-50.6067 1256.51,-57.4708"/>
</g>
<!-- Node18 -->
<g id="node40" class="node"><title>Node18</title>
<a xlink:href="decision__tree__unittest_8cc.html" target="_top" xlink:title="ltr/learners/decision_tree/decision_tree_unittest.cc">
<polygon style="fill:white;stroke:black;" points="670,-0 670,-20 904,-20 904,-0 670,-0"/>
<text text-anchor="middle" x="787" y="-7" style="font-family:Arial;font-size:10.00;">ltr/learners/decision_tree/decision_tree_unittest.cc</text>
</a>
</g>
<!-- Node16&#45;&gt;Node18 -->
<g id="edge44" class="edge"><title>Node16&#45;&gt;Node18</title>
<path style="fill:none;stroke:midnightblue;" d="M1212,-55C1116,-45 975,-30 881,-20"/>
<polygon style="fill:midnightblue;stroke:midnightblue;" points="1211.7,-58.4875 1222,-56 1212.4,-51.5222 1211.7,-58.4875"/>
</g>
<!-- Node19&#45;&gt;Node10 -->
<g id="edge54" class="edge"><title>Node19&#45;&gt;Node10</title>
<path style="fill:none;stroke:midnightblue;" d="M2853,-56C2432,-25 2325,-47 1909,-20 1906,-20 1904,-20 1901,-19"/>
<polygon style="fill:midnightblue;stroke:midnightblue;" points="2852.7,-59.4875 2863,-57 2853.4,-52.5222 2852.7,-59.4875"/>
</g>
<!-- Node20 -->
<g id="node45" class="node"><title>Node20</title>
<a xlink:href="gp__learner_8cc.html" target="_top" xlink:title="ltr/learners/gp_learner/gp_learner.cc">
<polygon style="fill:white;stroke:black;" points="2980,-0 2980,-20 3151,-20 3151,-0 2980,-0"/>
<text text-anchor="middle" x="3065" y="-7" style="font-family:Arial;font-size:10.00;">ltr/learners/gp_learner/gp_learner.cc</text>
</a>
</g>
<!-- Node19&#45;&gt;Node20 -->
<g id="edge50" class="edge"><title>Node19&#45;&gt;Node20</title>
<path style="fill:none;stroke:midnightblue;" d="M2975,-52C2997,-42 3024,-29 3043,-20"/>
<polygon style="fill:midnightblue;stroke:midnightblue;" points="2973.72,-48.7402 2966,-56 2976.56,-55.1369 2973.72,-48.7402"/>
</g>
<!-- Node21 -->
<g id="node47" class="node"><title>Node21</title>
<a xlink:href="gp__learner__unittest_8cc.html" target="_top" xlink:title="ltr/learners/gp_learner/gp_learner_unittest.cc">
<polygon style="fill:white;stroke:black;" points="3168,-0 3168,-20 3377,-20 3377,-0 3168,-0"/>
<text text-anchor="middle" x="3272" y="-7" style="font-family:Arial;font-size:10.00;">ltr/learners/gp_learner/gp_learner_unittest.cc</text>
</a>
</g>
<!-- Node19&#45;&gt;Node21 -->
<g id="edge52" class="edge"><title>Node19&#45;&gt;Node21</title>
<path style="fill:none;stroke:midnightblue;" d="M3013,-54C3073,-44 3158,-29 3214,-20"/>
<polygon style="fill:midnightblue;stroke:midnightblue;" points="3012.12,-50.6067 3003,-56 3013.49,-57.4708 3012.12,-50.6067"/>
</g>
<!-- Node22&#45;&gt;Node9 -->
<g id="edge58" class="edge"><title>Node22&#45;&gt;Node9</title>
<path style="fill:none;stroke:midnightblue;" d="M3536,-53C3570,-43 3617,-29 3649,-20"/>
<polygon style="fill:midnightblue;stroke:midnightblue;" points="3534.57,-49.7741 3526,-56 3536.58,-56.4788 3534.57,-49.7741"/>
</g>
<!-- Node22&#45;&gt;Node10 -->
<g id="edge64" class="edge"><title>Node22&#45;&gt;Node10</title>
<path style="fill:none;stroke:midnightblue;" d="M3387,-64C3081,-58 2198,-37 1909,-20 1906,-20 1904,-20 1901,-19"/>
<polygon style="fill:midnightblue;stroke:midnightblue;" points="3387,-67.5001 3397,-64 3387,-60.5001 3387,-67.5001"/>
</g>
<!-- Node23 -->
<g id="node53" class="node"><title>Node23</title>
<a xlink:href="linear__learner_8cc.html" target="_top" xlink:title="ltr/learners/linear_learner/linear_learner.cc">
<polygon style="fill:white;stroke:black;" points="3394,-0 3394,-20 3590,-20 3590,-0 3394,-0"/>
<text text-anchor="middle" x="3492" y="-7" style="font-family:Arial;font-size:10.00;">ltr/learners/linear_learner/linear_learner.cc</text>
</a>
</g>
<!-- Node22&#45;&gt;Node23 -->
<g id="edge60" class="edge"><title>Node22&#45;&gt;Node23</title>
<path style="fill:none;stroke:midnightblue;" d="M3492,-46C3492,-37 3492,-28 3492,-20"/>
<polygon style="fill:midnightblue;stroke:midnightblue;" points="3488.5,-46 3492,-56 3495.5,-46 3488.5,-46"/>
</g>
<!-- Node24 -->
<g id="node55" class="node"><title>Node24</title>
<a xlink:href="linear__learner__unittest_8cc.html" target="_top" xlink:title="ltr/learners/linear_learner/linear_learner_unittest.cc">
<polygon style="fill:white;stroke:black;" points="3776,-0 3776,-20 4010,-20 4010,-0 3776,-0"/>
<text text-anchor="middle" x="3893" y="-7" style="font-family:Arial;font-size:10.00;">ltr/learners/linear_learner/linear_learner_unittest.cc</text>
</a>
</g>
<!-- Node22&#45;&gt;Node24 -->
<g id="edge62" class="edge"><title>Node22&#45;&gt;Node24</title>
<path style="fill:none;stroke:midnightblue;" d="M3574,-55C3647,-45 3752,-30 3822,-20"/>
<polygon style="fill:midnightblue;stroke:midnightblue;" points="3573.6,-51.5222 3564,-56 3574.3,-58.4875 3573.6,-51.5222"/>
</g>
<!-- Node25&#45;&gt;Node10 -->
<g id="edge72" class="edge"><title>Node25&#45;&gt;Node10</title>
<path style="fill:none;stroke:midnightblue;" d="M813,-62C1016,-55 1380,-41 1691,-20 1694,-20 1697,-20 1700,-19"/>
<polygon style="fill:midnightblue;stroke:midnightblue;" points="813,-58.5001 803,-62 813,-65.5001 813,-58.5001"/>
</g>
<!-- Node26 -->
<g id="node60" class="node"><title>Node26</title>
<a xlink:href="nearest__neighbor__learner_8cc.html" target="_top" xlink:title="ltr/learners/nearest_neighbor_learner/nearest_neighbor_learner.cc">
<polygon style="fill:white;stroke:black;" points="0,-0 0,-20 298,-20 298,-0 0,-0"/>
<text text-anchor="middle" x="149" y="-7" style="font-family:Arial;font-size:10.00;">ltr/learners/nearest_neighbor_learner/nearest_neighbor_learner.cc</text>
</a>
</g>
<!-- Node25&#45;&gt;Node26 -->
<g id="edge68" class="edge"><title>Node25&#45;&gt;Node26</title>
<path style="fill:none;stroke:midnightblue;" d="M555,-55C463,-45 328,-30 239,-20"/>
<polygon style="fill:midnightblue;stroke:midnightblue;" points="554.701,-58.4875 565,-56 555.398,-51.5222 554.701,-58.4875"/>
</g>
<!-- Node27 -->
<g id="node62" class="node"><title>Node27</title>
<a xlink:href="nearest__neighbor__learner__unittest_8cc.html" target="_top" xlink:title="ltr/learners/nearest_neighbor_learner/nearest_neighbor_learner_unittest.cc">
<polygon style="fill:white;stroke:black;" points="316,-0 316,-20 652,-20 652,-0 316,-0"/>
<text text-anchor="middle" x="484" y="-7" style="font-family:Arial;font-size:10.00;">ltr/learners/nearest_neighbor_learner/nearest_neighbor_learner_unittest.cc</text>
</a>
</g>
<!-- Node25&#45;&gt;Node27 -->
<g id="edge70" class="edge"><title>Node25&#45;&gt;Node27</title>
<path style="fill:none;stroke:midnightblue;" d="M615,-53C585,-43 543,-29 515,-20"/>
<polygon style="fill:midnightblue;stroke:midnightblue;" points="614.416,-56.4788 625,-56 616.427,-49.7741 614.416,-56.4788"/>
</g>
<!-- Node28&#45;&gt;Node10 -->
<g id="edge76" class="edge"><title>Node28&#45;&gt;Node10</title>
<path style="fill:none;stroke:midnightblue;" d="M1612,-54C1656,-44 1716,-29 1757,-20"/>
<polygon style="fill:midnightblue;stroke:midnightblue;" points="1611.12,-50.6067 1602,-56 1612.49,-57.4708 1611.12,-50.6067"/>
</g>
<!-- Node29 -->
<g id="node68" class="node"><title>Node29</title>
<a xlink:href="generator__utility_8cc.html" target="_top" xlink:title="ltr/serialization_test/generator/generator_utility.cc">
<polygon style="fill:white;stroke:black;" points="1170,-0 1170,-20 1399,-20 1399,-0 1170,-0"/>
<text text-anchor="middle" x="1284" y="-7" style="font-family:Arial;font-size:10.00;">ltr/serialization_test/generator/generator_utility.cc</text>
</a>
</g>
<!-- Node28&#45;&gt;Node29 -->
<g id="edge78" class="edge"><title>Node28&#45;&gt;Node29</title>
<path style="fill:none;stroke:midnightblue;" d="M1500,-54C1450,-44 1380,-29 1333,-20"/>
<polygon style="fill:midnightblue;stroke:midnightblue;" points="1499.51,-57.4708 1510,-56 1500.88,-50.6067 1499.51,-57.4708"/>
</g>
<!-- Node30&#45;&gt;Node31 -->
<g id="edge82" class="edge"><title>Node30&#45;&gt;Node31</title>
<path style="fill:none;stroke:midnightblue;" d="M3812,-102C3812,-93 3812,-84 3812,-76"/>
<polygon style="fill:midnightblue;stroke:midnightblue;" points="3808.5,-102 3812,-112 3815.5,-102 3808.5,-102"/>
</g>
<!-- Node32&#45;&gt;Node31 -->
<g id="edge88" class="edge"><title>Node32&#45;&gt;Node31</title>
<path style="fill:none;stroke:midnightblue;" d="M4009,-110C3963,-100 3900,-85 3857,-76"/>
<polygon style="fill:midnightblue;stroke:midnightblue;" points="4008.51,-113.471 4019,-112 4009.88,-106.607 4008.51,-113.471"/>
</g>
<!-- Node33&#45;&gt;Node8 -->
<g id="edge94" class="edge"><title>Node33&#45;&gt;Node8</title>
<path style="fill:none;stroke:midnightblue;" d="M3047,-102C3048,-87 3048,-67 3036,-56 3035,-55 2710,-33 2515,-20"/>
<polygon style="fill:midnightblue;stroke:midnightblue;" points="3043.53,-101.508 3045,-112 3050.39,-102.881 3043.53,-101.508"/>
</g>
<!-- Node33&#45;&gt;Node10 -->
<g id="edge96" class="edge"><title>Node33&#45;&gt;Node10</title>
<path style="fill:none;stroke:midnightblue;" d="M2904,-120C2631,-114 2047,-100 1958,-76 1939,-71 1937,-63 1920,-56 1889,-42 1854,-29 1829,-20"/>
<polygon style="fill:midnightblue;stroke:midnightblue;" points="2904,-123.5 2914,-120 2904,-116.5 2904,-123.5"/>
</g>
<!-- Node33&#45;&gt;Node31 -->
<g id="edge92" class="edge"><title>Node33&#45;&gt;Node31</title>
<path style="fill:none;stroke:midnightblue;" d="M3182,-112C3322,-102 3536,-86 3676,-76"/>
<polygon style="fill:midnightblue;stroke:midnightblue;" points="3181.6,-108.522 3172,-113 3182.3,-115.488 3181.6,-108.522"/>
</g>
<!-- Node34&#45;&gt;Node31 -->
<g id="edge100" class="edge"><title>Node34&#45;&gt;Node31</title>
<path style="fill:none;stroke:midnightblue;" d="M4209,-111C4119,-101 3987,-86 3900,-76"/>
<polygon style="fill:midnightblue;stroke:midnightblue;" points="4208.7,-114.488 4219,-112 4209.4,-107.522 4208.7,-114.488"/>
</g>
<!-- Node35&#45;&gt;Node9 -->
<g id="edge106" class="edge"><title>Node35&#45;&gt;Node9</title>
<path style="fill:none;stroke:midnightblue;" d="M3403,-111C3475,-103 3562,-90 3596,-76 3627,-63 3658,-35 3673,-20"/>
<polygon style="fill:midnightblue;stroke:midnightblue;" points="3402.6,-107.522 3393,-112 3403.3,-114.488 3402.6,-107.522"/>
</g>
<!-- Node35&#45;&gt;Node31 -->
<g id="edge104" class="edge"><title>Node35&#45;&gt;Node31</title>
<path style="fill:none;stroke:midnightblue;" d="M3395,-111C3490,-101 3628,-86 3720,-76"/>
<polygon style="fill:midnightblue;stroke:midnightblue;" points="3394.6,-107.522 3385,-112 3395.3,-114.488 3394.6,-107.522"/>
</g>
<!-- Node36&#45;&gt;Node31 -->
<g id="edge110" class="edge"><title>Node36&#45;&gt;Node31</title>
<path style="fill:none;stroke:midnightblue;" d="M4430,-112C4258,-98 4072,-85 3949,-76"/>
<polygon style="fill:midnightblue;stroke:midnightblue;" points="4429.7,-115.488 4440,-113 4430.4,-108.522 4429.7,-115.488"/>
</g>
<!-- Node37&#45;&gt;Node31 -->
<g id="edge114" class="edge"><title>Node37&#45;&gt;Node31</title>
<path style="fill:none;stroke:midnightblue;" d="M4666,-112C4407,-94 4116,-80 3949,-72"/>
<polygon style="fill:midnightblue;stroke:midnightblue;" points="4665.7,-115.488 4676,-113 4666.4,-108.522 4665.7,-115.488"/>
</g>
<!-- Node38&#45;&gt;Node31 -->
<g id="edge118" class="edge"><title>Node38&#45;&gt;Node31</title>
<path style="fill:none;stroke:midnightblue;" d="M3584,-110C3636,-100 3710,-85 3760,-76"/>
<polygon style="fill:midnightblue;stroke:midnightblue;" points="3583.12,-106.607 3574,-112 3584.49,-113.471 3583.12,-106.607"/>
</g>
</g>
</svg>
