<?xml version="1.0" encoding="UTF-8" standalone="no"?>
<!DOCTYPE svg PUBLIC "-//W3C//DTD SVG 1.0//EN"
 "http://www.w3.org/TR/2001/REC-SVG-20010904/DTD/svg10.dtd" [
 <!ATTLIST svg xmlns:xlink CDATA #FIXED "http://www.w3.org/1999/xlink">
]>
<!-- Generated by Graphviz version 2.20.2 (Tue Mar &#160;2 19:03:41 UTC 2010)
     For user: (jenkins)  -->
<!-- Title: G Pages: 1 -->
<svg width="1341pt" height="140pt"
 viewBox="0.00 0.00 1341.00 140.00" xmlns="http://www.w3.org/2000/svg" xmlns:xlink="http://www.w3.org/1999/xlink">
<g id="graph0" class="graph" transform="scale(1 1) rotate(0) translate(4 136)">
<title>G</title>
<polygon style="fill:white;stroke:white;" points="-4,4 -4,-136 1337,-136 1337,4 -4,4"/>
<!-- Node1 -->
<g id="node1" class="node"><title>Node1</title>
<polygon style="fill:#bfbfbf;stroke:black;" points="448,-112 448,-132 638,-132 638,-112 448,-112"/>
<text text-anchor="middle" x="543" y="-119" style="font-family:Arial;font-size:10.00;">ltr/feature_converters/feature_converter.h</text>
</g>
<!-- Node2 -->
<g id="node3" class="node"><title>Node2</title>
<polygon style="fill:white;stroke:#bfbfbf;" points="147,-56 147,-76 189,-76 189,-56 147,-56"/>
<text text-anchor="middle" x="168" y="-63" style="font-family:Arial;font-size:10.00;">vector</text>
</g>
<!-- Node1&#45;&gt;Node2 -->
<g id="edge2" class="edge"><title>Node1&#45;&gt;Node2</title>
<path style="fill:none;stroke:midnightblue;" d="M448,-113C379,-105 285,-93 203,-76 202,-76 200,-75 199,-75"/>
<polygon style="fill:midnightblue;stroke:midnightblue;" points="199.584,-71.5212 189,-72 197.573,-78.2259 199.584,-71.5212"/>
</g>
<!-- Node3 -->
<g id="node5" class="node"><title>Node3</title>
<polygon style="fill:white;stroke:#bfbfbf;" points="0,-0 0,-20 40,-20 40,-0 0,-0"/>
<text text-anchor="middle" x="20" y="-7" style="font-family:Arial;font-size:10.00;">string</text>
</g>
<!-- Node1&#45;&gt;Node3 -->
<g id="edge4" class="edge"><title>Node1&#45;&gt;Node3</title>
<path style="fill:none;stroke:midnightblue;" d="M448,-116C386,-110 305,-98 236,-76 217,-70 215,-62 198,-56 138,-32 117,-38 50,-20"/>
<polygon style="fill:midnightblue;stroke:midnightblue;" points="50.584,-16.5212 40,-17 48.5725,-23.2259 50.584,-16.5212"/>
</g>
<!-- Node4 -->
<g id="node7" class="node"><title>Node4</title>
<polygon style="fill:white;stroke:#bfbfbf;" points="467,-56 467,-76 526,-76 526,-56 467,-56"/>
<text text-anchor="middle" x="496" y="-63" style="font-family:Arial;font-size:10.00;">stdexcept</text>
</g>
<!-- Node1&#45;&gt;Node4 -->
<g id="edge6" class="edge"><title>Node1&#45;&gt;Node4</title>
<path style="fill:none;stroke:midnightblue;" d="M535,-112C528,-104 519,-94 511,-84"/>
<polygon style="fill:midnightblue;stroke:midnightblue;" points="513.8,-81.9 505,-76 508.2,-86.1 513.8,-81.9"/>
</g>
<!-- Node5 -->
<g id="node9" class="node"><title>Node5</title>
<polygon style="fill:white;stroke:#bfbfbf;" points="543,-56 543,-76 638,-76 638,-56 543,-56"/>
<text text-anchor="middle" x="590" y="-63" style="font-family:Arial;font-size:10.00;">ltr/data/data_set.h</text>
</g>
<!-- Node1&#45;&gt;Node5 -->
<g id="edge8" class="edge"><title>Node1&#45;&gt;Node5</title>
<path style="fill:none;stroke:midnightblue;" d="M551,-112C558,-104 567,-94 575,-84"/>
<polygon style="fill:midnightblue;stroke:midnightblue;" points="577.8,-86.1 581,-76 572.2,-81.9 577.8,-86.1"/>
</g>
<!-- Node6 -->
<g id="node11" class="node"><title>Node6</title>
<polygon style="fill:white;stroke:#bfbfbf;" points="655,-56 655,-76 762,-76 762,-56 655,-56"/>
<text text-anchor="middle" x="708" y="-63" style="font-family:Arial;font-size:10.00;">ltr/data/feature_info.h</text>
</g>
<!-- Node1&#45;&gt;Node6 -->
<g id="edge10" class="edge"><title>Node1&#45;&gt;Node6</title>
<path style="fill:none;stroke:midnightblue;" d="M572,-112C599,-103 639,-89 668,-79"/>
<polygon style="fill:midnightblue;stroke:midnightblue;" points="669.427,-82.2259 678,-76 667.416,-75.5212 669.427,-82.2259"/>
</g>
<!-- Node7 -->
<g id="node13" class="node"><title>Node7</title>
<polygon style="fill:white;stroke:#bfbfbf;" points="779,-56 779,-76 863,-76 863,-56 779,-56"/>
<text text-anchor="middle" x="821" y="-63" style="font-family:Arial;font-size:10.00;">ltr/data/object.h</text>
</g>
<!-- Node1&#45;&gt;Node7 -->
<g id="edge12" class="edge"><title>Node1&#45;&gt;Node7</title>
<path style="fill:none;stroke:midnightblue;" d="M593,-112C643,-102 718,-87 769,-77"/>
<polygon style="fill:midnightblue;stroke:midnightblue;" points="769.881,-80.3933 779,-75 768.508,-73.5292 769.881,-80.3933"/>
</g>
<!-- Node8 -->
<g id="node15" class="node"><title>Node8</title>
<polygon style="fill:white;stroke:#bfbfbf;" points="881,-56 881,-76 1028,-76 1028,-56 881,-56"/>
<text text-anchor="middle" x="954" y="-63" style="font-family:Arial;font-size:10.00;">ltr/data/per_object_accessor.h</text>
</g>
<!-- Node1&#45;&gt;Node8 -->
<g id="edge14" class="edge"><title>Node1&#45;&gt;Node8</title>
<path style="fill:none;stroke:midnightblue;" d="M616,-112C688,-102 796,-87 871,-77"/>
<polygon style="fill:midnightblue;stroke:midnightblue;" points="871.398,-80.4778 881,-76 870.701,-73.5125 871.398,-80.4778"/>
</g>
<!-- Node9 -->
<g id="node17" class="node"><title>Node9</title>
<polygon style="fill:white;stroke:#bfbfbf;" points="1045,-56 1045,-76 1187,-76 1187,-56 1045,-56"/>
<text text-anchor="middle" x="1116" y="-63" style="font-family:Arial;font-size:10.00;">ltr/interfaces/parameterized.h</text>
</g>
<!-- Node1&#45;&gt;Node9 -->
<g id="edge16" class="edge"><title>Node1&#45;&gt;Node9</title>
<path style="fill:none;stroke:midnightblue;" d="M638,-114C736,-105 891,-92 1035,-76"/>
<polygon style="fill:midnightblue;stroke:midnightblue;" points="1035.4,-79.4778 1045,-75 1034.7,-72.5125 1035.4,-79.4778"/>
</g>
<!-- Node10 -->
<g id="node19" class="node"><title>Node10</title>
<a xlink:href="serializable_8h.html" target="_top" xlink:title="ltr/interfaces/serializable.h">
<polygon style="fill:white;stroke:black;" points="245,-56 245,-76 374,-76 374,-56 245,-56"/>
<text text-anchor="middle" x="309" y="-63" style="font-family:Arial;font-size:10.00;">ltr/interfaces/serializable.h</text>
</a>
</g>
<!-- Node1&#45;&gt;Node10 -->
<g id="edge18" class="edge"><title>Node1&#45;&gt;Node10</title>
<path style="fill:none;stroke:midnightblue;" d="M501,-112C462,-103 403,-88 361,-78"/>
<polygon style="fill:midnightblue;stroke:midnightblue;" points="361.492,-74.5292 351,-76 360.119,-81.3933 361.492,-74.5292"/>
</g>
<!-- Node14 -->
<g id="node28" class="node"><title>Node14</title>
<polygon style="fill:white;stroke:#bfbfbf;" points="354,-0 354,-20 461,-20 461,-0 354,-0"/>
<text text-anchor="middle" x="407" y="-7" style="font-family:Arial;font-size:10.00;">ltr/utility/shared_ptr.h</text>
</g>
<!-- Node1&#45;&gt;Node14 -->
<g id="edge34" class="edge"><title>Node1&#45;&gt;Node14</title>
<path style="fill:none;stroke:midnightblue;" d="M511,-112C491,-104 466,-92 448,-76 434,-62 422,-43 415,-29"/>
<polygon style="fill:midnightblue;stroke:midnightblue;" points="418.26,-27.7166 411,-20 411.863,-30.5596 418.26,-27.7166"/>
</g>
<!-- Node15 -->
<g id="node30" class="node"><title>Node15</title>
<polygon style="fill:white;stroke:#bfbfbf;" points="478,-0 478,-20 586,-20 586,-0 478,-0"/>
<text text-anchor="middle" x="532" y="-7" style="font-family:Arial;font-size:10.00;">ltr/interfaces/aliaser.h</text>
</g>
<!-- Node1&#45;&gt;Node15 -->
<g id="edge32" class="edge"><title>Node1&#45;&gt;Node15</title>
<path style="fill:none;stroke:midnightblue;" d="M507,-112C488,-105 468,-93 458,-76 445,-55 470,-36 495,-24"/>
<polygon style="fill:midnightblue;stroke:midnightblue;" points="496.283,-27.2598 504,-20 493.44,-20.8631 496.283,-27.2598"/>
</g>
<!-- Node16 -->
<g id="node34" class="node"><title>Node16</title>
<polygon style="fill:white;stroke:#bfbfbf;" points="1205,-56 1205,-76 1334,-76 1334,-56 1205,-56"/>
<text text-anchor="middle" x="1269" y="-63" style="font-family:Arial;font-size:10.00;">ltr/interfaces/serializable.h</text>
</g>
<!-- Node1&#45;&gt;Node16 -->
<g id="edge36" class="edge"><title>Node1&#45;&gt;Node16</title>
<path style="fill:none;stroke:midnightblue;" d="M638,-117C763,-110 991,-96 1195,-76"/>
<polygon style="fill:midnightblue;stroke:midnightblue;" points="1195.4,-79.4778 1205,-75 1194.7,-72.5125 1195.4,-79.4778"/>
</g>
<!-- Node10&#45;&gt;Node3 -->
<g id="edge24" class="edge"><title>Node10&#45;&gt;Node3</title>
<path style="fill:none;stroke:midnightblue;" d="M245,-57C194,-50 122,-38 50,-20"/>
<polygon style="fill:midnightblue;stroke:midnightblue;" points="50.584,-16.5212 40,-17 48.5725,-23.2259 50.584,-16.5212"/>
</g>
<!-- Node11 -->
<g id="node21" class="node"><title>Node11</title>
<polygon style="fill:white;stroke:#bfbfbf;" points="58,-0 58,-20 172,-20 172,-0 58,-0"/>
<text text-anchor="middle" x="115" y="-7" style="font-family:Arial;font-size:10.00;">boost/lexical_cast.hpp</text>
</g>
<!-- Node10&#45;&gt;Node11 -->
<g id="edge20" class="edge"><title>Node10&#45;&gt;Node11</title>
<path style="fill:none;stroke:midnightblue;" d="M274,-56C242,-47 195,-33 160,-23"/>
<polygon style="fill:midnightblue;stroke:midnightblue;" points="160.584,-19.5212 150,-20 158.573,-26.2259 160.584,-19.5212"/>
</g>
<!-- Node12 -->
<g id="node23" class="node"><title>Node12</title>
<polygon style="fill:white;stroke:#bfbfbf;" points="190,-0 190,-20 264,-20 264,-0 190,-0"/>
<text text-anchor="middle" x="227" y="-7" style="font-family:Arial;font-size:10.00;">logog/logog.h</text>
</g>
<!-- Node10&#45;&gt;Node12 -->
<g id="edge22" class="edge"><title>Node10&#45;&gt;Node12</title>
<path style="fill:none;stroke:midnightblue;" d="M294,-56C282,-48 265,-35 250,-26"/>
<polygon style="fill:midnightblue;stroke:midnightblue;" points="252.1,-23.2 242,-20 247.9,-28.8 252.1,-23.2"/>
</g>
<!-- Node13 -->
<g id="node26" class="node"><title>Node13</title>
<polygon style="fill:white;stroke:#bfbfbf;" points="282,-0 282,-20 336,-20 336,-0 282,-0"/>
<text text-anchor="middle" x="309" y="-7" style="font-family:Arial;font-size:10.00;">iostream</text>
</g>
<!-- Node10&#45;&gt;Node13 -->
<g id="edge26" class="edge"><title>Node10&#45;&gt;Node13</title>
<path style="fill:none;stroke:midnightblue;" d="M309,-56C309,-49 309,-39 309,-30"/>
<polygon style="fill:midnightblue;stroke:midnightblue;" points="312.5,-30 309,-20 305.5,-30 312.5,-30"/>
</g>
<!-- Node10&#45;&gt;Node14 -->
<g id="edge28" class="edge"><title>Node10&#45;&gt;Node14</title>
<path style="fill:none;stroke:midnightblue;" d="M327,-56C342,-48 364,-35 380,-25"/>
<polygon style="fill:midnightblue;stroke:midnightblue;" points="381.958,-27.916 389,-20 378.559,-21.7969 381.958,-27.916"/>
</g>
<!-- Node10&#45;&gt;Node15 -->
<g id="edge30" class="edge"><title>Node10&#45;&gt;Node15</title>
<path style="fill:none;stroke:midnightblue;" d="M349,-56C386,-47 442,-32 482,-22"/>
<polygon style="fill:midnightblue;stroke:midnightblue;" points="482.881,-25.3933 492,-20 481.508,-18.5292 482.881,-25.3933"/>
</g>
</g>
</svg>
