<?xml version="1.0" encoding="UTF-8" standalone="no"?>
<!DOCTYPE svg PUBLIC "-//W3C//DTD SVG 1.0//EN"
 "http://www.w3.org/TR/2001/REC-SVG-20010904/DTD/svg10.dtd" [
 <!ATTLIST svg xmlns:xlink CDATA #FIXED "http://www.w3.org/1999/xlink">
]>
<!-- Generated by Graphviz version 2.20.2 (Tue Mar &#160;2 19:03:41 UTC 2010)
     For user: (jenkins)  -->
<!-- Title: G Pages: 1 -->
<svg width="1377pt" height="140pt"
 viewBox="0.00 0.00 1377.00 140.00" xmlns="http://www.w3.org/2000/svg" xmlns:xlink="http://www.w3.org/1999/xlink">
<g id="graph0" class="graph" transform="scale(1 1) rotate(0) translate(4 136)">
<title>G</title>
<polygon style="fill:white;stroke:white;" points="-4,4 -4,-136 1373,-136 1373,4 -4,4"/>
<!-- Node1 -->
<g id="node1" class="node"><title>Node1</title>
<polygon style="fill:#bfbfbf;stroke:black;" points="365,-112 365,-132 596,-132 596,-112 365,-112"/>
<text text-anchor="middle" x="480" y="-119" style="font-family:Arial;font-size:10.00;">ltr/feature_converters/feature_normalizer_learner.h</text>
</g>
<!-- Node2 -->
<g id="node3" class="node"><title>Node2</title>
<polygon style="fill:white;stroke:#bfbfbf;" points="0,-0 0,-20 42,-20 42,-0 0,-0"/>
<text text-anchor="middle" x="21" y="-7" style="font-family:Arial;font-size:10.00;">vector</text>
</g>
<!-- Node1&#45;&gt;Node2 -->
<g id="edge2" class="edge"><title>Node1&#45;&gt;Node2</title>
<path style="fill:none;stroke:midnightblue;" d="M365,-119C261,-115 119,-104 71,-76 53,-65 39,-45 31,-29"/>
<polygon style="fill:midnightblue;stroke:midnightblue;" points="33.916,-27.0418 26,-20 27.7969,-30.4414 33.916,-27.0418"/>
</g>
<!-- Node3 -->
<g id="node5" class="node"><title>Node3</title>
<polygon style="fill:white;stroke:#bfbfbf;" points="387,-56 387,-76 443,-76 443,-56 387,-56"/>
<text text-anchor="middle" x="415" y="-63" style="font-family:Arial;font-size:10.00;">algorithm</text>
</g>
<!-- Node1&#45;&gt;Node3 -->
<g id="edge4" class="edge"><title>Node1&#45;&gt;Node3</title>
<path style="fill:none;stroke:midnightblue;" d="M468,-112C459,-104 446,-93 435,-83"/>
<polygon style="fill:midnightblue;stroke:midnightblue;" points="436.831,-79.9511 427,-76 432.221,-85.2191 436.831,-79.9511"/>
</g>
<!-- Node4 -->
<g id="node7" class="node"><title>Node4</title>
<polygon style="fill:white;stroke:#bfbfbf;" points="461,-56 461,-76 500,-76 500,-56 461,-56"/>
<text text-anchor="middle" x="480" y="-63" style="font-family:Arial;font-size:10.00;">limits</text>
</g>
<!-- Node1&#45;&gt;Node4 -->
<g id="edge6" class="edge"><title>Node1&#45;&gt;Node4</title>
<path style="fill:none;stroke:midnightblue;" d="M480,-112C480,-105 480,-95 480,-86"/>
<polygon style="fill:midnightblue;stroke:midnightblue;" points="483.5,-86 480,-76 476.5,-86 483.5,-86"/>
</g>
<!-- Node5 -->
<g id="node9" class="node"><title>Node5</title>
<polygon style="fill:white;stroke:#bfbfbf;" points="60,-0 60,-20 100,-20 100,-0 60,-0"/>
<text text-anchor="middle" x="80" y="-7" style="font-family:Arial;font-size:10.00;">string</text>
</g>
<!-- Node1&#45;&gt;Node5 -->
<g id="edge8" class="edge"><title>Node1&#45;&gt;Node5</title>
<path style="fill:none;stroke:midnightblue;" d="M365,-116C255,-109 105,-95 86,-76 74,-64 74,-45 75,-30"/>
<polygon style="fill:midnightblue;stroke:midnightblue;" points="78.4708,-30.4922 77,-20 71.6067,-29.1194 78.4708,-30.4922"/>
</g>
<!-- Node6 -->
<g id="node11" class="node"><title>Node6</title>
<polygon style="fill:white;stroke:#bfbfbf;" points="517,-56 517,-76 568,-76 568,-56 517,-56"/>
<text text-anchor="middle" x="542" y="-63" style="font-family:Arial;font-size:10.00;">sstream</text>
</g>
<!-- Node1&#45;&gt;Node6 -->
<g id="edge10" class="edge"><title>Node1&#45;&gt;Node6</title>
<path style="fill:none;stroke:midnightblue;" d="M491,-112C500,-104 513,-93 523,-83"/>
<polygon style="fill:midnightblue;stroke:midnightblue;" points="525.779,-85.2191 531,-76 521.169,-79.9511 525.779,-85.2191"/>
</g>
<!-- Node7 -->
<g id="node13" class="node"><title>Node7</title>
<polygon style="fill:white;stroke:#bfbfbf;" points="585,-56 585,-76 751,-76 751,-56 585,-56"/>
<text text-anchor="middle" x="668" y="-63" style="font-family:Arial;font-size:10.00;">ltr/data/utility/data_set_statistics.h</text>
</g>
<!-- Node1&#45;&gt;Node7 -->
<g id="edge12" class="edge"><title>Node1&#45;&gt;Node7</title>
<path style="fill:none;stroke:midnightblue;" d="M514,-112C545,-103 590,-89 624,-79"/>
<polygon style="fill:midnightblue;stroke:midnightblue;" points="625.427,-82.2259 634,-76 623.416,-75.5212 625.427,-82.2259"/>
</g>
<!-- Node8 -->
<g id="node15" class="node"><title>Node8</title>
<polygon style="fill:white;stroke:#bfbfbf;" points="769,-56 769,-76 994,-76 994,-56 769,-56"/>
<text text-anchor="middle" x="881" y="-63" style="font-family:Arial;font-size:10.00;">ltr/feature_converters/feature_converter_learner.h</text>
</g>
<!-- Node1&#45;&gt;Node8 -->
<g id="edge14" class="edge"><title>Node1&#45;&gt;Node8</title>
<path style="fill:none;stroke:midnightblue;" d="M552,-112C622,-102 727,-87 800,-77"/>
<polygon style="fill:midnightblue;stroke:midnightblue;" points="800.398,-80.4778 810,-76 799.701,-73.5125 800.398,-80.4778"/>
</g>
<!-- Node9 -->
<g id="node17" class="node"><title>Node9</title>
<a xlink:href="per__feature__linear__converter_8h.html" target="_top" xlink:title="ltr/feature_converters/per_feature_linear_converter.h">
<polygon style="fill:white;stroke:black;" points="95,-56 95,-76 332,-76 332,-56 95,-56"/>
<text text-anchor="middle" x="213" y="-63" style="font-family:Arial;font-size:10.00;">ltr/feature_converters/per_feature_linear_converter.h</text>
</a>
</g>
<!-- Node1&#45;&gt;Node9 -->
<g id="edge16" class="edge"><title>Node1&#45;&gt;Node9</title>
<path style="fill:none;stroke:midnightblue;" d="M432,-112C386,-103 319,-88 271,-78"/>
<polygon style="fill:midnightblue;stroke:midnightblue;" points="271.492,-74.5292 261,-76 270.119,-81.3933 271.492,-74.5292"/>
</g>
<!-- Node11 -->
<g id="node23" class="node"><title>Node11</title>
<polygon style="fill:white;stroke:#bfbfbf;" points="326,-0 326,-20 433,-20 433,-0 326,-0"/>
<text text-anchor="middle" x="379" y="-7" style="font-family:Arial;font-size:10.00;">ltr/utility/shared_ptr.h</text>
</g>
<!-- Node1&#45;&gt;Node11 -->
<g id="edge28" class="edge"><title>Node1&#45;&gt;Node11</title>
<path style="fill:none;stroke:midnightblue;" d="M431,-112C411,-105 389,-94 378,-76 369,-62 371,-44 374,-30"/>
<polygon style="fill:midnightblue;stroke:midnightblue;" points="377.471,-30.4922 376,-20 370.607,-29.1194 377.471,-30.4922"/>
</g>
<!-- Node12 -->
<g id="node25" class="node"><title>Node12</title>
<polygon style="fill:white;stroke:#bfbfbf;" points="1011,-56 1011,-76 1115,-76 1115,-56 1011,-56"/>
<text text-anchor="middle" x="1063" y="-63" style="font-family:Arial;font-size:10.00;">ltr/utility/numerical.h</text>
</g>
<!-- Node1&#45;&gt;Node12 -->
<g id="edge26" class="edge"><title>Node1&#45;&gt;Node12</title>
<path style="fill:none;stroke:midnightblue;" d="M596,-114C700,-107 855,-94 1001,-76"/>
<polygon style="fill:midnightblue;stroke:midnightblue;" points="1001.4,-79.4778 1011,-75 1000.7,-72.5125 1001.4,-79.4778"/>
</g>
<!-- Node13 -->
<g id="node28" class="node"><title>Node13</title>
<polygon style="fill:white;stroke:#bfbfbf;" points="1133,-56 1133,-76 1370,-76 1370,-56 1133,-56"/>
<text text-anchor="middle" x="1251" y="-63" style="font-family:Arial;font-size:10.00;">ltr/feature_converters/per_feature_linear_converter.h</text>
</g>
<!-- Node1&#45;&gt;Node13 -->
<g id="edge30" class="edge"><title>Node1&#45;&gt;Node13</title>
<path style="fill:none;stroke:midnightblue;" d="M596,-114C723,-105 932,-91 1123,-76"/>
<polygon style="fill:midnightblue;stroke:midnightblue;" points="1123.4,-79.4778 1133,-75 1122.7,-72.5125 1123.4,-79.4778"/>
</g>
<!-- Node9&#45;&gt;Node2 -->
<g id="edge20" class="edge"><title>Node9&#45;&gt;Node2</title>
<path style="fill:none;stroke:midnightblue;" d="M176,-56C145,-48 99,-35 52,-20"/>
<polygon style="fill:midnightblue;stroke:midnightblue;" points="52.584,-16.5212 42,-17 50.5725,-23.2259 52.584,-16.5212"/>
</g>
<!-- Node9&#45;&gt;Node5 -->
<g id="edge18" class="edge"><title>Node9&#45;&gt;Node5</title>
<path style="fill:none;stroke:midnightblue;" d="M189,-56C167,-46 133,-33 109,-22"/>
<polygon style="fill:midnightblue;stroke:midnightblue;" points="110.56,-18.8631 100,-18 107.717,-25.2598 110.56,-18.8631"/>
</g>
<!-- Node10 -->
<g id="node21" class="node"><title>Node10</title>
<polygon style="fill:white;stroke:#bfbfbf;" points="118,-0 118,-20 308,-20 308,-0 118,-0"/>
<text text-anchor="middle" x="213" y="-7" style="font-family:Arial;font-size:10.00;">ltr/feature_converters/feature_converter.h</text>
</g>
<!-- Node9&#45;&gt;Node10 -->
<g id="edge22" class="edge"><title>Node9&#45;&gt;Node10</title>
<path style="fill:none;stroke:midnightblue;" d="M213,-56C213,-49 213,-39 213,-30"/>
<polygon style="fill:midnightblue;stroke:midnightblue;" points="216.5,-30 213,-20 209.5,-30 216.5,-30"/>
</g>
<!-- Node9&#45;&gt;Node11 -->
<g id="edge24" class="edge"><title>Node9&#45;&gt;Node11</title>
<path style="fill:none;stroke:midnightblue;" d="M243,-56C270,-47 310,-33 339,-23"/>
<polygon style="fill:midnightblue;stroke:midnightblue;" points="340.427,-26.2259 349,-20 338.416,-19.5212 340.427,-26.2259"/>
</g>
</g>
</svg>
