<?xml version="1.0" encoding="UTF-8" standalone="no"?>
<!DOCTYPE svg PUBLIC "-//W3C//DTD SVG 1.0//EN"
 "http://www.w3.org/TR/2001/REC-SVG-20010904/DTD/svg10.dtd" [
 <!ATTLIST svg xmlns:xlink CDATA #FIXED "http://www.w3.org/1999/xlink">
]>
<!-- Generated by Graphviz version 2.20.2 (Tue Mar &#160;2 19:03:41 UTC 2010)
     For user: (jenkins)  -->
<!-- Title: G Pages: 1 -->
<svg width="1024pt" height="140pt"
 viewBox="0.00 0.00 1024.00 140.00" xmlns="http://www.w3.org/2000/svg" xmlns:xlink="http://www.w3.org/1999/xlink">
<g id="graph0" class="graph" transform="scale(1 1) rotate(0) translate(4 136)">
<title>G</title>
<polygon style="fill:white;stroke:white;" points="-4,4 -4,-136 1020,-136 1020,4 -4,4"/>
<!-- Node1 -->
<g id="node1" class="node"><title>Node1</title>
<polygon style="fill:#bfbfbf;stroke:black;" points="463,-112 463,-132 649,-132 649,-112 463,-112"/>
<text text-anchor="middle" x="556" y="-119" style="font-family:Arial;font-size:10.00;">ltr/feature_converters/feature_sampler.h</text>
</g>
<!-- Node2 -->
<g id="node3" class="node"><title>Node2</title>
<a xlink:href="feature__sampler__learner_8h.html" target="_top" xlink:title="ltr/feature_converters/feature_sampler_learner.h">
<polygon style="fill:white;stroke:black;" points="36,-56 36,-76 256,-76 256,-56 36,-56"/>
<text text-anchor="middle" x="146" y="-63" style="font-family:Arial;font-size:10.00;">ltr/feature_converters/feature_sampler_learner.h</text>
</a>
</g>
<!-- Node1&#45;&gt;Node2 -->
<g id="edge2" class="edge"><title>Node1&#45;&gt;Node2</title>
<path style="fill:none;stroke:midnightblue;" d="M473,-111C398,-101 291,-86 219,-76"/>
<polygon style="fill:midnightblue;stroke:midnightblue;" points="472.701,-114.488 483,-112 473.398,-107.522 472.701,-114.488"/>
</g>
<!-- Node4 -->
<g id="node7" class="node"><title>Node4</title>
<a xlink:href="feature__random__sampler__learner_8h.html" target="_top" xlink:title="ltr/feature_converters/feature_random_sampler_learner.h">
<polygon style="fill:white;stroke:black;" points="294,-56 294,-76 552,-76 552,-56 294,-56"/>
<text text-anchor="middle" x="423" y="-63" style="font-family:Arial;font-size:10.00;">ltr/feature_converters/feature_random_sampler_learner.h</text>
</a>
</g>
<!-- Node1&#45;&gt;Node4 -->
<g id="edge6" class="edge"><title>Node1&#45;&gt;Node4</title>
<path style="fill:none;stroke:midnightblue;" d="M523,-108C499,-98 468,-85 447,-76"/>
<polygon style="fill:midnightblue;stroke:midnightblue;" points="521.44,-111.137 532,-112 524.283,-104.74 521.44,-111.137"/>
</g>
<!-- Node7 -->
<g id="node14" class="node"><title>Node7</title>
<a xlink:href="feature__converters__unittest_8cc.html" target="_top" xlink:title="ltr/feature_converters/feature_converters_unittest.cc">
<polygon style="fill:white;stroke:black;" points="570,-56 570,-76 809,-76 809,-56 570,-56"/>
<text text-anchor="middle" x="689" y="-63" style="font-family:Arial;font-size:10.00;">ltr/feature_converters/feature_converters_unittest.cc</text>
</a>
</g>
<!-- Node1&#45;&gt;Node7 -->
<g id="edge14" class="edge"><title>Node1&#45;&gt;Node7</title>
<path style="fill:none;stroke:midnightblue;" d="M589,-108C613,-98 644,-85 665,-76"/>
<polygon style="fill:midnightblue;stroke:midnightblue;" points="587.717,-104.74 580,-112 590.56,-111.137 587.717,-104.74"/>
</g>
<!-- Node8 -->
<g id="node16" class="node"><title>Node8</title>
<a xlink:href="feature__sampler_8cc.html" target="_top" xlink:title="ltr/feature_converters/feature_sampler.cc">
<polygon style="fill:white;stroke:black;" points="826,-56 826,-76 1017,-76 1017,-56 826,-56"/>
<text text-anchor="middle" x="921" y="-63" style="font-family:Arial;font-size:10.00;">ltr/feature_converters/feature_sampler.cc</text>
</a>
</g>
<!-- Node1&#45;&gt;Node8 -->
<g id="edge16" class="edge"><title>Node1&#45;&gt;Node8</title>
<path style="fill:none;stroke:midnightblue;" d="M631,-110C697,-100 793,-86 856,-76"/>
<polygon style="fill:midnightblue;stroke:midnightblue;" points="630.119,-106.607 621,-112 631.492,-113.471 630.119,-106.607"/>
</g>
<!-- Node3 -->
<g id="node5" class="node"><title>Node3</title>
<a xlink:href="feature__converters__learner__unittest_8cc.html" target="_top" xlink:title="ltr/feature_converters/feature_converters_learner_unittest.cc">
<polygon style="fill:white;stroke:black;" points="0,-0 0,-20 273,-20 273,-0 0,-0"/>
<text text-anchor="middle" x="136" y="-7" style="font-family:Arial;font-size:10.00;">ltr/feature_converters/feature_converters_learner_unittest.cc</text>
</a>
</g>
<!-- Node2&#45;&gt;Node3 -->
<g id="edge4" class="edge"><title>Node2&#45;&gt;Node3</title>
<path style="fill:none;stroke:midnightblue;" d="M142,-46C140,-37 139,-28 138,-20"/>
<polygon style="fill:midnightblue;stroke:midnightblue;" points="138.607,-46.8806 144,-56 145.471,-45.5078 138.607,-46.8806"/>
</g>
<!-- Node4&#45;&gt;Node3 -->
<g id="edge8" class="edge"><title>Node4&#45;&gt;Node3</title>
<path style="fill:none;stroke:midnightblue;" d="M362,-54C310,-44 236,-29 187,-20"/>
<polygon style="fill:midnightblue;stroke:midnightblue;" points="361.508,-57.4708 372,-56 362.881,-50.6067 361.508,-57.4708"/>
</g>
<!-- Node5 -->
<g id="node10" class="node"><title>Node5</title>
<a xlink:href="linear__composition__unittest_8cc.html" target="_top" xlink:title="ltr/learners/composition_learner/linear_composition_unittest.cc">
<polygon style="fill:white;stroke:black;" points="290,-0 290,-20 577,-20 577,-0 290,-0"/>
<text text-anchor="middle" x="433" y="-7" style="font-family:Arial;font-size:10.00;">ltr/learners/composition_learner/linear_composition_unittest.cc</text>
</a>
</g>
<!-- Node4&#45;&gt;Node5 -->
<g id="edge10" class="edge"><title>Node4&#45;&gt;Node5</title>
<path style="fill:none;stroke:midnightblue;" d="M427,-46C429,-37 430,-28 431,-20"/>
<polygon style="fill:midnightblue;stroke:midnightblue;" points="423.529,-45.5078 425,-56 430.393,-46.8806 423.529,-45.5078"/>
</g>
<!-- Node6 -->
<g id="node12" class="node"><title>Node6</title>
<a xlink:href="generator_8cc.html" target="_top" xlink:title="ltr/serialization_test/generator/generator.cc">
<polygon style="fill:white;stroke:black;" points="594,-0 594,-20 795,-20 795,-0 594,-0"/>
<text text-anchor="middle" x="694" y="-7" style="font-family:Arial;font-size:10.00;">ltr/serialization_test/generator/generator.cc</text>
</a>
</g>
<!-- Node4&#45;&gt;Node6 -->
<g id="edge12" class="edge"><title>Node4&#45;&gt;Node6</title>
<path style="fill:none;stroke:midnightblue;" d="M481,-54C530,-44 599,-29 645,-20"/>
<polygon style="fill:midnightblue;stroke:midnightblue;" points="480.119,-50.6067 471,-56 481.492,-57.4708 480.119,-50.6067"/>
</g>
</g>
</svg>
