<?xml version="1.0" encoding="UTF-8" standalone="no"?>
<!DOCTYPE svg PUBLIC "-//W3C//DTD SVG 1.0//EN"
 "http://www.w3.org/TR/2001/REC-SVG-20010904/DTD/svg10.dtd" [
 <!ATTLIST svg xmlns:xlink CDATA #FIXED "http://www.w3.org/1999/xlink">
]>
<!-- Generated by Graphviz version 2.20.2 (Tue Mar &#160;2 19:03:41 UTC 2010)
     For user: (jenkins)  -->
<!-- Title: G Pages: 1 -->
<svg width="997pt" height="196pt"
 viewBox="0.00 0.00 997.00 196.00" xmlns="http://www.w3.org/2000/svg" xmlns:xlink="http://www.w3.org/1999/xlink">
<g id="graph0" class="graph" transform="scale(1 1) rotate(0) translate(4 192)">
<title>G</title>
<polygon style="fill:white;stroke:white;" points="-4,4 -4,-192 993,-192 993,4 -4,4"/>
<!-- Node1 -->
<g id="node1" class="node"><title>Node1</title>
<polygon style="fill:#bfbfbf;stroke:black;" points="222,-168 222,-188 424,-188 424,-168 222,-168"/>
<text text-anchor="middle" x="323" y="-175" style="font-family:Arial;font-size:10.00;">ltr/density_estimators/fisher_discriminant.h</text>
</g>
<!-- Node2 -->
<g id="node3" class="node"><title>Node2</title>
<a xlink:href="fisher__discriminant__density__learner_8h.html" target="_top" xlink:title="ltr/density_estimators/fisher_discriminant_density_learner.h">
<polygon style="fill:white;stroke:black;" points="187,-112 187,-132 460,-132 460,-112 187,-112"/>
<text text-anchor="middle" x="323" y="-119" style="font-family:Arial;font-size:10.00;">ltr/density_estimators/fisher_discriminant_density_learner.h</text>
</a>
</g>
<!-- Node1&#45;&gt;Node2 -->
<g id="edge2" class="edge"><title>Node1&#45;&gt;Node2</title>
<path style="fill:none;stroke:midnightblue;" d="M323,-158C323,-149 323,-140 323,-132"/>
<polygon style="fill:midnightblue;stroke:midnightblue;" points="319.5,-158 323,-168 326.5,-158 319.5,-158"/>
</g>
<!-- Node3 -->
<g id="node5" class="node"><title>Node3</title>
<a xlink:href="density__estimators__learners__unittests_8cc.html" target="_top" xlink:title="ltr/density_estimators/density_estimators_learners_unittests.cc">
<polygon style="fill:white;stroke:black;" points="14,-56 14,-76 305,-76 305,-56 14,-56"/>
<text text-anchor="middle" x="159" y="-63" style="font-family:Arial;font-size:10.00;">ltr/density_estimators/density_estimators_learners_unittests.cc</text>
</a>
</g>
<!-- Node1&#45;&gt;Node3 -->
<g id="edge14" class="edge"><title>Node1&#45;&gt;Node3</title>
<path style="fill:none;stroke:midnightblue;" d="M266,-166C231,-157 191,-145 178,-132 163,-117 160,-91 159,-76"/>
<polygon style="fill:midnightblue;stroke:midnightblue;" points="265.508,-169.471 276,-168 266.881,-162.607 265.508,-169.471"/>
</g>
<!-- Node5 -->
<g id="node9" class="node"><title>Node5</title>
<a xlink:href="bayesian__learner__unittest_8cc.html" target="_top" xlink:title="ltr/learners/bayesian_learner/bayesian_learner_unittest.cc">
<polygon style="fill:white;stroke:black;" points="143,-0 143,-20 409,-20 409,-0 143,-0"/>
<text text-anchor="middle" x="276" y="-7" style="font-family:Arial;font-size:10.00;">ltr/learners/bayesian_learner/bayesian_learner_unittest.cc</text>
</a>
</g>
<!-- Node1&#45;&gt;Node5 -->
<g id="edge20" class="edge"><title>Node1&#45;&gt;Node5</title>
<path style="fill:none;stroke:midnightblue;" d="M256,-166C172,-149 35,-117 5,-76 0,-68 0,-62 5,-56 17,-42 107,-29 180,-20"/>
<polygon style="fill:midnightblue;stroke:midnightblue;" points="255.508,-169.471 266,-168 256.881,-162.607 255.508,-169.471"/>
</g>
<!-- Node7 -->
<g id="node15" class="node"><title>Node7</title>
<a xlink:href="density__estimators__scorers__unittests_8cc.html" target="_top" xlink:title="ltr/density_estimators/density_estimators_scorers_unittests.cc">
<polygon style="fill:white;stroke:black;" points="477,-112 477,-132 766,-132 766,-112 477,-112"/>
<text text-anchor="middle" x="621" y="-119" style="font-family:Arial;font-size:10.00;">ltr/density_estimators/density_estimators_scorers_unittests.cc</text>
</a>
</g>
<!-- Node1&#45;&gt;Node7 -->
<g id="edge16" class="edge"><title>Node1&#45;&gt;Node7</title>
<path style="fill:none;stroke:midnightblue;" d="M386,-166C440,-156 517,-141 568,-132"/>
<polygon style="fill:midnightblue;stroke:midnightblue;" points="385.119,-162.607 376,-168 386.492,-169.471 385.119,-162.607"/>
</g>
<!-- Node8 -->
<g id="node17" class="node"><title>Node8</title>
<a xlink:href="fisher__discriminant_8cc.html" target="_top" xlink:title="ltr/density_estimators/fisher_discriminant.cc">
<polygon style="fill:white;stroke:black;" points="783,-112 783,-132 990,-132 990,-112 783,-112"/>
<text text-anchor="middle" x="886" y="-119" style="font-family:Arial;font-size:10.00;">ltr/density_estimators/fisher_discriminant.cc</text>
</a>
</g>
<!-- Node1&#45;&gt;Node8 -->
<g id="edge18" class="edge"><title>Node1&#45;&gt;Node8</title>
<path style="fill:none;stroke:midnightblue;" d="M434,-167C536,-157 687,-142 786,-132"/>
<polygon style="fill:midnightblue;stroke:midnightblue;" points="433.602,-163.522 424,-168 434.299,-170.488 433.602,-163.522"/>
</g>
<!-- Node2&#45;&gt;Node3 -->
<g id="edge4" class="edge"><title>Node2&#45;&gt;Node3</title>
<path style="fill:none;stroke:midnightblue;" d="M284,-109C255,-99 215,-85 188,-76"/>
<polygon style="fill:midnightblue;stroke:midnightblue;" points="283.416,-112.479 294,-112 285.427,-105.774 283.416,-112.479"/>
</g>
<!-- Node4 -->
<g id="node7" class="node"><title>Node4</title>
<a xlink:href="bayesian__learner_8h.html" target="_top" xlink:title="ltr/learners/bayesian_learner/bayesian_learner.h">
<polygon style="fill:white;stroke:black;" points="360,-56 360,-76 582,-76 582,-56 360,-56"/>
<text text-anchor="middle" x="471" y="-63" style="font-family:Arial;font-size:10.00;">ltr/learners/bayesian_learner/bayesian_learner.h</text>
</a>
</g>
<!-- Node2&#45;&gt;Node4 -->
<g id="edge6" class="edge"><title>Node2&#45;&gt;Node4</title>
<path style="fill:none;stroke:midnightblue;" d="M359,-108C385,-98 420,-85 444,-76"/>
<polygon style="fill:midnightblue;stroke:midnightblue;" points="356.985,-105.036 349,-112 359.585,-111.536 356.985,-105.036"/>
</g>
<!-- Node2&#45;&gt;Node5 -->
<g id="edge12" class="edge"><title>Node2&#45;&gt;Node5</title>
<path style="fill:none;stroke:midnightblue;" d="M322,-102C321,-88 319,-70 313,-56 307,-42 296,-29 287,-20"/>
<polygon style="fill:midnightblue;stroke:midnightblue;" points="318.522,-102.398 323,-112 325.488,-101.701 318.522,-102.398"/>
</g>
<!-- Node4&#45;&gt;Node5 -->
<g id="edge8" class="edge"><title>Node4&#45;&gt;Node5</title>
<path style="fill:none;stroke:midnightblue;" d="M426,-53C391,-43 343,-29 311,-20"/>
<polygon style="fill:midnightblue;stroke:midnightblue;" points="425.416,-56.4788 436,-56 427.427,-49.7741 425.416,-56.4788"/>
</g>
<!-- Node6 -->
<g id="node11" class="node"><title>Node6</title>
<a xlink:href="generator_8cc.html" target="_top" xlink:title="ltr/serialization_test/generator/generator.cc">
<polygon style="fill:white;stroke:black;" points="427,-0 427,-20 628,-20 628,-0 427,-0"/>
<text text-anchor="middle" x="527" y="-7" style="font-family:Arial;font-size:10.00;">ltr/serialization_test/generator/generator.cc</text>
</a>
</g>
<!-- Node4&#45;&gt;Node6 -->
<g id="edge10" class="edge"><title>Node4&#45;&gt;Node6</title>
<path style="fill:none;stroke:midnightblue;" d="M488,-49C497,-40 508,-29 517,-20"/>
<polygon style="fill:midnightblue;stroke:midnightblue;" points="485.596,-46.454 481,-56 490.546,-51.4038 485.596,-46.454"/>
</g>
</g>
</svg>
