<?xml version="1.0" encoding="UTF-8" standalone="no"?>
<!DOCTYPE svg PUBLIC "-//W3C//DTD SVG 1.0//EN"
 "http://www.w3.org/TR/2001/REC-SVG-20010904/DTD/svg10.dtd" [
 <!ATTLIST svg xmlns:xlink CDATA #FIXED "http://www.w3.org/1999/xlink">
]>
<!-- Generated by Graphviz version 2.20.2 (Tue Mar &#160;2 19:03:41 UTC 2010)
     For user: (jenkins)  -->
<!-- Title: G Pages: 1 -->
<svg width="677pt" height="140pt"
 viewBox="0.00 0.00 677.00 140.00" xmlns="http://www.w3.org/2000/svg" xmlns:xlink="http://www.w3.org/1999/xlink">
<g id="graph0" class="graph" transform="scale(1 1) rotate(0) translate(4 136)">
<title>G</title>
<polygon style="fill:white;stroke:white;" points="-4,4 -4,-136 673,-136 673,4 -4,4"/>
<!-- Node1 -->
<g id="node1" class="node"><title>Node1</title>
<polygon style="fill:#bfbfbf;stroke:black;" points="182,-112 182,-132 455,-132 455,-112 182,-112"/>
<text text-anchor="middle" x="318" y="-119" style="font-family:Arial;font-size:10.00;">ltr/density_estimators/fisher_discriminant_density_learner.h</text>
</g>
<!-- Node2 -->
<g id="node3" class="node"><title>Node2</title>
<a xlink:href="density__estimators__learners__unittests_8cc.html" target="_top" xlink:title="ltr/density_estimators/density_estimators_learners_unittests.cc">
<polygon style="fill:white;stroke:black;" points="0,-56 0,-76 291,-76 291,-56 0,-56"/>
<text text-anchor="middle" x="145" y="-63" style="font-family:Arial;font-size:10.00;">ltr/density_estimators/density_estimators_learners_unittests.cc</text>
</a>
</g>
<!-- Node1&#45;&gt;Node2 -->
<g id="edge2" class="edge"><title>Node1&#45;&gt;Node2</title>
<path style="fill:none;stroke:midnightblue;" d="M277,-109C246,-99 204,-85 176,-76"/>
<polygon style="fill:midnightblue;stroke:midnightblue;" points="276.416,-112.479 287,-112 278.427,-105.774 276.416,-112.479"/>
</g>
<!-- Node3 -->
<g id="node5" class="node"><title>Node3</title>
<a xlink:href="bayesian__learner_8h.html" target="_top" xlink:title="ltr/learners/bayesian_learner/bayesian_learner.h">
<polygon style="fill:white;stroke:black;" points="346,-56 346,-76 568,-76 568,-56 346,-56"/>
<text text-anchor="middle" x="457" y="-63" style="font-family:Arial;font-size:10.00;">ltr/learners/bayesian_learner/bayesian_learner.h</text>
</a>
</g>
<!-- Node1&#45;&gt;Node3 -->
<g id="edge4" class="edge"><title>Node1&#45;&gt;Node3</title>
<path style="fill:none;stroke:midnightblue;" d="M352,-108C377,-98 410,-85 432,-76"/>
<polygon style="fill:midnightblue;stroke:midnightblue;" points="350.717,-104.74 343,-112 353.56,-111.137 350.717,-104.74"/>
</g>
<!-- Node4 -->
<g id="node7" class="node"><title>Node4</title>
<a xlink:href="bayesian__learner__unittest_8cc.html" target="_top" xlink:title="ltr/learners/bayesian_learner/bayesian_learner_unittest.cc">
<polygon style="fill:white;stroke:black;" points="185,-0 185,-20 451,-20 451,-0 185,-0"/>
<text text-anchor="middle" x="318" y="-7" style="font-family:Arial;font-size:10.00;">ltr/learners/bayesian_learner/bayesian_learner_unittest.cc</text>
</a>
</g>
<!-- Node1&#45;&gt;Node4 -->
<g id="edge10" class="edge"><title>Node1&#45;&gt;Node4</title>
<path style="fill:none;stroke:midnightblue;" d="M318,-102C318,-78 318,-39 318,-20"/>
<polygon style="fill:midnightblue;stroke:midnightblue;" points="314.5,-102 318,-112 321.5,-102 314.5,-102"/>
</g>
<!-- Node3&#45;&gt;Node4 -->
<g id="edge6" class="edge"><title>Node3&#45;&gt;Node4</title>
<path style="fill:none;stroke:midnightblue;" d="M423,-52C398,-42 365,-29 343,-20"/>
<polygon style="fill:midnightblue;stroke:midnightblue;" points="421.44,-55.1369 432,-56 424.283,-48.7402 421.44,-55.1369"/>
</g>
<!-- Node5 -->
<g id="node9" class="node"><title>Node5</title>
<a xlink:href="generator_8cc.html" target="_top" xlink:title="ltr/serialization_test/generator/generator.cc">
<polygon style="fill:white;stroke:black;" points="469,-0 469,-20 670,-20 670,-0 469,-0"/>
<text text-anchor="middle" x="569" y="-7" style="font-family:Arial;font-size:10.00;">ltr/serialization_test/generator/generator.cc</text>
</a>
</g>
<!-- Node3&#45;&gt;Node5 -->
<g id="edge8" class="edge"><title>Node3&#45;&gt;Node5</title>
<path style="fill:none;stroke:midnightblue;" d="M486,-51C506,-42 531,-29 549,-20"/>
<polygon style="fill:midnightblue;stroke:midnightblue;" points="484.042,-48.084 477,-56 487.441,-54.2031 484.042,-48.084"/>
</g>
</g>
</svg>
