<?xml version="1.0" encoding="UTF-8" standalone="no"?>
<!DOCTYPE svg PUBLIC "-//W3C//DTD SVG 1.0//EN"
 "http://www.w3.org/TR/2001/REC-SVG-20010904/DTD/svg10.dtd" [
 <!ATTLIST svg xmlns:xlink CDATA #FIXED "http://www.w3.org/1999/xlink">
]>
<!-- Generated by Graphviz version 2.20.2 (Tue Mar &#160;2 19:03:41 UTC 2010)
     For user: (jenkins)  -->
<!-- Title: G Pages: 1 -->
<svg width="2366pt" height="588pt"
 viewBox="0.00 0.00 2366.00 588.00" xmlns="http://www.w3.org/2000/svg" xmlns:xlink="http://www.w3.org/1999/xlink">
<g id="graph0" class="graph" transform="scale(1 1) rotate(0) translate(4 584)">
<title>G</title>
<polygon style="fill:white;stroke:white;" points="-4,4 -4,-584 2362,-584 2362,4 -4,4"/>
<!-- Node1 -->
<g id="node1" class="node"><title>Node1</title>
<polygon style="fill:#bfbfbf;stroke:black;" points="2002,-560 2002,-580 2209,-580 2209,-560 2002,-560"/>
<text text-anchor="middle" x="2105" y="-567" style="font-family:Arial;font-size:10.00;">ltr/density_estimators/fisher_discriminant.cc</text>
</g>
<!-- Node2 -->
<g id="node3" class="node"><title>Node2</title>
<polygon style="fill:white;stroke:#bfbfbf;" points="1944,-504 1944,-524 1987,-524 1987,-504 1944,-504"/>
<text text-anchor="middle" x="1965" y="-511" style="font-family:Arial;font-size:10.00;">cmath</text>
</g>
<!-- Node1&#45;&gt;Node2 -->
<g id="edge2" class="edge"><title>Node1&#45;&gt;Node2</title>
<path style="fill:none;stroke:midnightblue;" d="M2080,-560C2057,-551 2022,-537 1996,-527"/>
<polygon style="fill:midnightblue;stroke:midnightblue;" points="1997.56,-523.863 1987,-523 1994.72,-530.26 1997.56,-523.863"/>
</g>
<!-- Node3 -->
<g id="node5" class="node"><title>Node3</title>
<a xlink:href="fisher__discriminant_8h.html" target="_top" xlink:title="ltr/density_estimators/fisher_discriminant.h">
<polygon style="fill:white;stroke:black;" points="2004,-504 2004,-524 2206,-524 2206,-504 2004,-504"/>
<text text-anchor="middle" x="2105" y="-511" style="font-family:Arial;font-size:10.00;">ltr/density_estimators/fisher_discriminant.h</text>
</a>
</g>
<!-- Node1&#45;&gt;Node3 -->
<g id="edge4" class="edge"><title>Node1&#45;&gt;Node3</title>
<path style="fill:none;stroke:midnightblue;" d="M2105,-560C2105,-553 2105,-543 2105,-534"/>
<polygon style="fill:midnightblue;stroke:midnightblue;" points="2108.5,-534 2105,-524 2101.5,-534 2108.5,-534"/>
</g>
<!-- Node37 -->
<g id="node141" class="node"><title>Node37</title>
<a xlink:href="eigen__converters_8h.html" target="_top" xlink:title="ltr/utility/eigen_converters.h">
<polygon style="fill:white;stroke:black;" points="2224,-504 2224,-524 2359,-524 2359,-504 2224,-504"/>
<text text-anchor="middle" x="2291" y="-511" style="font-family:Arial;font-size:10.00;">ltr/utility/eigen_converters.h</text>
</a>
</g>
<!-- Node1&#45;&gt;Node37 -->
<g id="edge208" class="edge"><title>Node1&#45;&gt;Node37</title>
<path style="fill:none;stroke:midnightblue;" d="M2138,-560C2169,-551 2214,-537 2248,-527"/>
<polygon style="fill:midnightblue;stroke:midnightblue;" points="2249.43,-530.226 2258,-524 2247.42,-523.521 2249.43,-530.226"/>
</g>
<!-- Node4 -->
<g id="node7" class="node"><title>Node4</title>
<polygon style="fill:white;stroke:#bfbfbf;" points="2191,-448 2191,-468 2263,-468 2263,-448 2191,-448"/>
<text text-anchor="middle" x="2227" y="-455" style="font-family:Arial;font-size:10.00;">Eigen/Dense</text>
</g>
<!-- Node3&#45;&gt;Node4 -->
<g id="edge6" class="edge"><title>Node3&#45;&gt;Node4</title>
<path style="fill:none;stroke:midnightblue;" d="M2127,-504C2146,-495 2174,-482 2196,-472"/>
<polygon style="fill:midnightblue;stroke:midnightblue;" points="2197.28,-475.26 2205,-468 2194.44,-468.863 2197.28,-475.26"/>
</g>
<!-- Node5 -->
<g id="node9" class="node"><title>Node5</title>
<polygon style="fill:white;stroke:#bfbfbf;" points="1956,-56 1956,-76 1991,-76 1991,-56 1956,-56"/>
<text text-anchor="middle" x="1973" y="-63" style="font-family:Arial;font-size:10.00;">map</text>
</g>
<!-- Node3&#45;&gt;Node5 -->
<g id="edge8" class="edge"><title>Node3&#45;&gt;Node5</title>
<path style="fill:none;stroke:midnightblue;" d="M2108,-504C2120,-467 2157,-333 2139,-224 2130,-172 2137,-149 2101,-112 2073,-84 2030,-73 2001,-69"/>
<polygon style="fill:midnightblue;stroke:midnightblue;" points="2001.49,-65.5292 1991,-67 2000.12,-72.3933 2001.49,-65.5292"/>
</g>
<!-- Node6 -->
<g id="node11" class="node"><title>Node6</title>
<polygon style="fill:white;stroke:#bfbfbf;" points="1240,-0 1240,-20 1280,-20 1280,-0 1240,-0"/>
<text text-anchor="middle" x="1260" y="-7" style="font-family:Arial;font-size:10.00;">string</text>
</g>
<!-- Node3&#45;&gt;Node6 -->
<g id="edge10" class="edge"><title>Node3&#45;&gt;Node6</title>
<path style="fill:none;stroke:midnightblue;" d="M2117,-504C2150,-474 2239,-385 2239,-290 2239,-290 2239,-290 2239,-122 2239,-23 1456,-11 1290,-10"/>
<polygon style="fill:midnightblue;stroke:midnightblue;" points="1290,-6.5001 1280,-10 1290,-13.5001 1290,-6.5001"/>
</g>
<!-- Node7 -->
<g id="node13" class="node"><title>Node7</title>
<polygon style="fill:white;stroke:#bfbfbf;" points="1707,-56 1707,-76 1749,-76 1749,-56 1707,-56"/>
<text text-anchor="middle" x="1728" y="-63" style="font-family:Arial;font-size:10.00;">vector</text>
</g>
<!-- Node3&#45;&gt;Node7 -->
<g id="edge12" class="edge"><title>Node3&#45;&gt;Node7</title>
<path style="fill:none;stroke:midnightblue;" d="M2102,-504C2097,-484 2087,-440 2087,-402 2087,-402 2087,-402 2087,-346 2087,-213 2012,-184 1902,-112 1858,-83 1796,-72 1759,-68"/>
<polygon style="fill:midnightblue;stroke:midnightblue;" points="1759.3,-64.5125 1749,-67 1758.6,-71.4778 1759.3,-64.5125"/>
</g>
<!-- Node8 -->
<g id="node15" class="node"><title>Node8</title>
<a xlink:href="object_8h.html" target="_top" xlink:title="ltr/data/object.h">
<polygon style="fill:white;stroke:black;" points="1763,-112 1763,-132 1847,-132 1847,-112 1763,-112"/>
<text text-anchor="middle" x="1805" y="-119" style="font-family:Arial;font-size:10.00;">ltr/data/object.h</text>
</a>
</g>
<!-- Node3&#45;&gt;Node8 -->
<g id="edge14" class="edge"><title>Node3&#45;&gt;Node8</title>
<path style="fill:none;stroke:midnightblue;" d="M2098,-504C2091,-494 2081,-480 2073,-468 1982,-335 1983,-282 1871,-168 1860,-156 1845,-145 1832,-137"/>
<polygon style="fill:midnightblue;stroke:midnightblue;" points="1833.44,-133.797 1823,-132 1830.04,-139.916 1833.44,-133.797"/>
</g>
<!-- Node16 -->
<g id="node36" class="node"><title>Node16</title>
<a xlink:href="base__probability__density__estimator_8h.html" target="_top" xlink:title="ltr/density_estimators/base_probability_density_estimator.h">
<polygon style="fill:white;stroke:black;" points="682,-448 682,-468 955,-468 955,-448 682,-448"/>
<text text-anchor="middle" x="818" y="-455" style="font-family:Arial;font-size:10.00;">ltr/density_estimators/base_probability_density_estimator.h</text>
</a>
</g>
<!-- Node3&#45;&gt;Node16 -->
<g id="edge40" class="edge"><title>Node3&#45;&gt;Node16</title>
<path style="fill:none;stroke:midnightblue;" d="M2004,-505C2001,-504 1998,-504 1995,-504 1625,-480 1188,-466 965,-461"/>
<polygon style="fill:midnightblue;stroke:midnightblue;" points="965,-457.5 955,-461 965,-464.5 965,-457.5"/>
</g>
<!-- Node8&#45;&gt;Node5 -->
<g id="edge16" class="edge"><title>Node8&#45;&gt;Node5</title>
<path style="fill:none;stroke:midnightblue;" d="M1835,-112C1866,-101 1916,-85 1946,-75"/>
<polygon style="fill:midnightblue;stroke:midnightblue;" points="1947.43,-78.2259 1956,-72 1945.42,-71.5212 1947.43,-78.2259"/>
</g>
<!-- Node8&#45;&gt;Node6 -->
<g id="edge22" class="edge"><title>Node8&#45;&gt;Node6</title>
<path style="fill:none;stroke:midnightblue;" d="M1801,-112C1795,-97 1781,-68 1758,-56 1717,-33 1392,-16 1290,-11"/>
<polygon style="fill:midnightblue;stroke:midnightblue;" points="1290,-7.5001 1280,-11 1290,-14.5001 1290,-7.5001"/>
</g>
<!-- Node8&#45;&gt;Node7 -->
<g id="edge24" class="edge"><title>Node8&#45;&gt;Node7</title>
<path style="fill:none;stroke:midnightblue;" d="M1791,-112C1780,-104 1763,-92 1750,-82"/>
<polygon style="fill:midnightblue;stroke:midnightblue;" points="1752.1,-79.2 1742,-76 1747.9,-84.8 1752.1,-79.2"/>
</g>
<!-- Node9 -->
<g id="node18" class="node"><title>Node9</title>
<polygon style="fill:white;stroke:#bfbfbf;" points="1698,-0 1698,-20 1749,-20 1749,-0 1698,-0"/>
<text text-anchor="middle" x="1723" y="-7" style="font-family:Arial;font-size:10.00;">ostream</text>
</g>
<!-- Node8&#45;&gt;Node9 -->
<g id="edge18" class="edge"><title>Node8&#45;&gt;Node9</title>
<path style="fill:none;stroke:midnightblue;" d="M1805,-112C1805,-98 1803,-73 1791,-56 1782,-43 1769,-33 1756,-25"/>
<polygon style="fill:midnightblue;stroke:midnightblue;" points="1757.44,-21.7969 1747,-20 1754.04,-27.916 1757.44,-21.7969"/>
</g>
<!-- Node10 -->
<g id="node20" class="node"><title>Node10</title>
<polygon style="fill:white;stroke:#bfbfbf;" points="1250,-56 1250,-76 1309,-76 1309,-56 1250,-56"/>
<text text-anchor="middle" x="1279" y="-63" style="font-family:Arial;font-size:10.00;">stdexcept</text>
</g>
<!-- Node8&#45;&gt;Node10 -->
<g id="edge20" class="edge"><title>Node8&#45;&gt;Node10</title>
<path style="fill:none;stroke:midnightblue;" d="M1763,-118C1664,-106 1416,-81 1319,-70"/>
<polygon style="fill:midnightblue;stroke:midnightblue;" points="1319.3,-66.5125 1309,-69 1318.6,-73.4778 1319.3,-66.5125"/>
</g>
<!-- Node11 -->
<g id="node24" class="node"><title>Node11</title>
<a xlink:href="printable_8h.html" target="_top" xlink:title="ltr/interfaces/printable.h">
<polygon style="fill:white;stroke:black;" points="1573,-56 1573,-76 1690,-76 1690,-56 1573,-56"/>
<text text-anchor="middle" x="1631" y="-63" style="font-family:Arial;font-size:10.00;">ltr/interfaces/printable.h</text>
</a>
</g>
<!-- Node8&#45;&gt;Node11 -->
<g id="edge26" class="edge"><title>Node8&#45;&gt;Node11</title>
<path style="fill:none;stroke:midnightblue;" d="M1774,-112C1745,-103 1703,-89 1672,-79"/>
<polygon style="fill:midnightblue;stroke:midnightblue;" points="1672.58,-75.5212 1662,-76 1670.57,-82.2259 1672.58,-75.5212"/>
</g>
<!-- Node12 -->
<g id="node28" class="node"><title>Node12</title>
<a xlink:href="shared__ptr_8h.html" target="_top" xlink:title="ltr/utility/shared_ptr.h">
<polygon style="fill:white;stroke:black;" points="691,-56 691,-76 798,-76 798,-56 691,-56"/>
<text text-anchor="middle" x="744" y="-63" style="font-family:Arial;font-size:10.00;">ltr/utility/shared_ptr.h</text>
</a>
</g>
<!-- Node8&#45;&gt;Node12 -->
<g id="edge32" class="edge"><title>Node8&#45;&gt;Node12</title>
<path style="fill:none;stroke:midnightblue;" d="M1763,-120C1599,-111 1006,-80 808,-70"/>
<polygon style="fill:midnightblue;stroke:midnightblue;" points="808.299,-66.5125 798,-69 807.602,-73.4778 808.299,-66.5125"/>
</g>
<!-- Node11&#45;&gt;Node6 -->
<g id="edge30" class="edge"><title>Node11&#45;&gt;Node6</title>
<path style="fill:none;stroke:midnightblue;" d="M1573,-57C1493,-45 1352,-24 1290,-14"/>
<polygon style="fill:midnightblue;stroke:midnightblue;" points="1290.3,-10.5125 1280,-13 1289.6,-17.4778 1290.3,-10.5125"/>
</g>
<!-- Node11&#45;&gt;Node9 -->
<g id="edge28" class="edge"><title>Node11&#45;&gt;Node9</title>
<path style="fill:none;stroke:midnightblue;" d="M1647,-56C1661,-48 1682,-35 1697,-25"/>
<polygon style="fill:midnightblue;stroke:midnightblue;" points="1698.96,-27.916 1706,-20 1695.56,-21.7969 1698.96,-27.916"/>
</g>
<!-- Node13 -->
<g id="node30" class="node"><title>Node13</title>
<polygon style="fill:white;stroke:#bfbfbf;" points="617,-0 617,-20 673,-20 673,-0 617,-0"/>
<text text-anchor="middle" x="645" y="-7" style="font-family:Arial;font-size:10.00;">algorithm</text>
</g>
<!-- Node12&#45;&gt;Node13 -->
<g id="edge34" class="edge"><title>Node12&#45;&gt;Node13</title>
<path style="fill:none;stroke:midnightblue;" d="M726,-56C711,-48 689,-35 672,-25"/>
<polygon style="fill:midnightblue;stroke:midnightblue;" points="673.441,-21.7969 663,-20 670.042,-27.916 673.441,-21.7969"/>
</g>
<!-- Node14 -->
<g id="node32" class="node"><title>Node14</title>
<polygon style="fill:white;stroke:#bfbfbf;" points="691,-0 691,-20 798,-20 798,-0 691,-0"/>
<text text-anchor="middle" x="744" y="-7" style="font-family:Arial;font-size:10.00;">boost/shared_ptr.hpp</text>
</g>
<!-- Node12&#45;&gt;Node14 -->
<g id="edge36" class="edge"><title>Node12&#45;&gt;Node14</title>
<path style="fill:none;stroke:midnightblue;" d="M744,-56C744,-49 744,-39 744,-30"/>
<polygon style="fill:midnightblue;stroke:midnightblue;" points="747.5,-30 744,-20 740.5,-30 747.5,-30"/>
</g>
<!-- Node15 -->
<g id="node34" class="node"><title>Node15</title>
<polygon style="fill:white;stroke:#bfbfbf;" points="815,-0 815,-20 1006,-20 1006,-0 815,-0"/>
<text text-anchor="middle" x="910" y="-7" style="font-family:Arial;font-size:10.00;">boost/smart_ptr/detail/operator_bool.hpp</text>
</g>
<!-- Node12&#45;&gt;Node15 -->
<g id="edge38" class="edge"><title>Node12&#45;&gt;Node15</title>
<path style="fill:none;stroke:midnightblue;" d="M774,-56C801,-47 841,-33 870,-23"/>
<polygon style="fill:midnightblue;stroke:midnightblue;" points="871.427,-26.2259 880,-20 869.416,-19.5212 871.427,-26.2259"/>
</g>
<!-- Node16&#45;&gt;Node8 -->
<g id="edge42" class="edge"><title>Node16&#45;&gt;Node8</title>
<path style="fill:none;stroke:midnightblue;" d="M955,-451C1246,-434 1898,-393 1897,-346 1897,-346 1897,-346 1897,-290 1898,-228 1850,-168 1823,-139"/>
<polygon style="fill:midnightblue;stroke:midnightblue;" points="1825.55,-136.596 1816,-132 1820.6,-141.546 1825.55,-136.596"/>
</g>
<!-- Node16&#45;&gt;Node12 -->
<g id="edge200" class="edge"><title>Node16&#45;&gt;Node12</title>
<path style="fill:none;stroke:midnightblue;" d="M682,-452C455,-441 23,-412 23,-346 23,-346 23,-346 23,-178 23,10 -23,-132 644,-76 656,-75 669,-74 681,-73"/>
<polygon style="fill:midnightblue;stroke:midnightblue;" points="681.398,-76.4778 691,-72 680.701,-69.5125 681.398,-76.4778"/>
</g>
<!-- Node17 -->
<g id="node39" class="node"><title>Node17</title>
<a xlink:href="scorer_8h.html" target="_top" xlink:title="ltr/scorers/scorer.h">
<polygon style="fill:white;stroke:black;" points="902,-392 902,-412 999,-412 999,-392 902,-392"/>
<text text-anchor="middle" x="950" y="-399" style="font-family:Arial;font-size:10.00;">ltr/scorers/scorer.h</text>
</a>
</g>
<!-- Node16&#45;&gt;Node17 -->
<g id="edge44" class="edge"><title>Node16&#45;&gt;Node17</title>
<path style="fill:none;stroke:midnightblue;" d="M842,-448C863,-439 893,-426 916,-416"/>
<polygon style="fill:midnightblue;stroke:midnightblue;" points="918.015,-418.964 926,-412 915.415,-412.464 918.015,-418.964"/>
</g>
<!-- Node26 -->
<g id="node83" class="node"><title>Node26</title>
<a xlink:href="parameterized_8h.html" target="_top" xlink:title="ltr/interfaces/parameterized.h">
<polygon style="fill:white;stroke:black;" points="884,-168 884,-188 1026,-188 1026,-168 884,-168"/>
<text text-anchor="middle" x="955" y="-175" style="font-family:Arial;font-size:10.00;">ltr/interfaces/parameterized.h</text>
</a>
</g>
<!-- Node16&#45;&gt;Node26 -->
<g id="edge202" class="edge"><title>Node16&#45;&gt;Node26</title>
<path style="fill:none;stroke:midnightblue;" d="M823,-448C844,-407 919,-252 946,-197"/>
<polygon style="fill:midnightblue;stroke:midnightblue;" points="949.137,-198.56 950,-188 942.74,-195.717 949.137,-198.56"/>
</g>
<!-- Node27 -->
<g id="node87" class="node"><title>Node27</title>
<a xlink:href="parameters__container_8h.html" target="_top" xlink:title="ltr/parameters_container/parameters_container.h">
<polygon style="fill:white;stroke:black;" points="445,-112 445,-132 670,-132 670,-112 445,-112"/>
<text text-anchor="middle" x="557" y="-119" style="font-family:Arial;font-size:10.00;">ltr/parameters_container/parameters_container.h</text>
</a>
</g>
<!-- Node16&#45;&gt;Node27 -->
<g id="edge206" class="edge"><title>Node16&#45;&gt;Node27</title>
<path style="fill:none;stroke:midnightblue;" d="M809,-448C777,-412 673,-294 597,-188 587,-173 576,-154 568,-141"/>
<polygon style="fill:midnightblue;stroke:midnightblue;" points="570.916,-139.042 563,-132 564.797,-142.441 570.916,-139.042"/>
</g>
<!-- Node33 -->
<g id="node114" class="node"><title>Node33</title>
<a xlink:href="serializable_8h.html" target="_top" xlink:title="ltr/interfaces/serializable.h">
<polygon style="fill:white;stroke:black;" points="229,-168 229,-188 358,-188 358,-168 229,-168"/>
<text text-anchor="middle" x="293" y="-175" style="font-family:Arial;font-size:10.00;">ltr/interfaces/serializable.h</text>
</a>
</g>
<!-- Node16&#45;&gt;Node33 -->
<g id="edge204" class="edge"><title>Node16&#45;&gt;Node33</title>
<path style="fill:none;stroke:midnightblue;" d="M682,-451C575,-445 436,-432 383,-412 337,-394 293,-395 293,-346 293,-346 293,-346 293,-290 293,-257 293,-221 293,-198"/>
<polygon style="fill:midnightblue;stroke:midnightblue;" points="296.5,-198 293,-188 289.5,-198 296.5,-198"/>
</g>
<!-- Node17&#45;&gt;Node6 -->
<g id="edge50" class="edge"><title>Node17&#45;&gt;Node6</title>
<path style="fill:none;stroke:midnightblue;" d="M999,-400C1168,-395 1718,-375 1794,-356 1849,-341 1870,-341 1908,-300 1981,-221 1978,-181 1999,-76 2000,-67 2005,-62 1999,-56 1974,-30 1426,-14 1290,-10"/>
<polygon style="fill:midnightblue;stroke:midnightblue;" points="1290,-6.5001 1280,-10 1290,-13.5001 1290,-6.5001"/>
</g>
<!-- Node17&#45;&gt;Node7 -->
<g id="edge48" class="edge"><title>Node17&#45;&gt;Node7</title>
<path style="fill:none;stroke:midnightblue;" d="M999,-400C1163,-395 1682,-376 1753,-356 1842,-330 1918,-315 1911,-224 1907,-172 1916,-146 1878,-112 1861,-96 1798,-80 1759,-72"/>
<polygon style="fill:midnightblue;stroke:midnightblue;" points="1759.49,-68.5292 1749,-70 1758.12,-75.3933 1759.49,-68.5292"/>
</g>
<!-- Node17&#45;&gt;Node8 -->
<g id="edge56" class="edge"><title>Node17&#45;&gt;Node8</title>
<path style="fill:none;stroke:midnightblue;" d="M999,-401C1183,-396 1821,-373 1821,-290 1821,-290 1821,-290 1821,-234 1821,-201 1814,-164 1809,-142"/>
<polygon style="fill:midnightblue;stroke:midnightblue;" points="1812.39,-141.119 1807,-132 1805.53,-142.492 1812.39,-141.119"/>
</g>
<!-- Node17&#45;&gt;Node11 -->
<g id="edge196" class="edge"><title>Node17&#45;&gt;Node11</title>
<path style="fill:none;stroke:midnightblue;" d="M999,-401C1143,-398 1564,-386 1697,-356 1762,-341 1794,-352 1834,-300 1886,-233 1910,-177 1856,-112 1851,-105 1764,-89 1699,-78"/>
<polygon style="fill:midnightblue;stroke:midnightblue;" points="1699.49,-74.5292 1689,-76 1698.12,-81.3933 1699.49,-74.5292"/>
</g>
<!-- Node17&#45;&gt;Node12 -->
<g id="edge198" class="edge"><title>Node17&#45;&gt;Node12</title>
<path style="fill:none;stroke:midnightblue;" d="M902,-400C797,-394 550,-379 470,-356 297,-304 161,-310 131,-132 130,-123 125,-118 131,-112 170,-70 588,-80 644,-76 656,-75 669,-74 681,-73"/>
<polygon style="fill:midnightblue;stroke:midnightblue;" points="681.398,-76.4778 691,-72 680.701,-69.5125 681.398,-76.4778"/>
</g>
<!-- Node18 -->
<g id="node41" class="node"><title>Node18</title>
<polygon style="fill:white;stroke:#bfbfbf;" points="313,-112 313,-132 427,-132 427,-112 313,-112"/>
<text text-anchor="middle" x="370" y="-119" style="font-family:Arial;font-size:10.00;">boost/lexical_cast.hpp</text>
</g>
<!-- Node17&#45;&gt;Node18 -->
<g id="edge46" class="edge"><title>Node17&#45;&gt;Node18</title>
<path style="fill:none;stroke:midnightblue;" d="M902,-400C788,-393 511,-369 511,-290 511,-290 511,-290 511,-234 511,-183 454,-152 414,-136"/>
<polygon style="fill:midnightblue;stroke:midnightblue;" points="414.585,-132.464 404,-132 411.985,-138.964 414.585,-132.464"/>
</g>
<!-- Node19 -->
<g id="node45" class="node"><title>Node19</title>
<a xlink:href="aliaser_8h.html" target="_top" xlink:title="ltr/interfaces/aliaser.h">
<polygon style="fill:white;stroke:black;" points="763,-112 763,-132 871,-132 871,-112 763,-112"/>
<text text-anchor="middle" x="817" y="-119" style="font-family:Arial;font-size:10.00;">ltr/interfaces/aliaser.h</text>
</a>
</g>
<!-- Node17&#45;&gt;Node19 -->
<g id="edge52" class="edge"><title>Node17&#45;&gt;Node19</title>
<path style="fill:none;stroke:midnightblue;" d="M932,-392C905,-376 854,-342 826,-300 794,-250 800,-226 806,-168 807,-159 809,-150 811,-142"/>
<polygon style="fill:midnightblue;stroke:midnightblue;" points="814.479,-142.584 814,-132 807.774,-140.573 814.479,-142.584"/>
</g>
<!-- Node20 -->
<g id="node49" class="node"><title>Node20</title>
<a xlink:href="feature__converter_8h.html" target="_top" xlink:title="ltr/feature_converters/feature_converter.h">
<polygon style="fill:white;stroke:black;" points="931,-336 931,-356 1121,-356 1121,-336 931,-336"/>
<text text-anchor="middle" x="1026" y="-343" style="font-family:Arial;font-size:10.00;">ltr/feature_converters/feature_converter.h</text>
</a>
</g>
<!-- Node17&#45;&gt;Node20 -->
<g id="edge58" class="edge"><title>Node17&#45;&gt;Node20</title>
<path style="fill:none;stroke:midnightblue;" d="M964,-392C975,-384 991,-372 1004,-362"/>
<polygon style="fill:midnightblue;stroke:midnightblue;" points="1006.1,-364.8 1012,-356 1001.9,-359.2 1006.1,-364.8"/>
</g>
<!-- Node35 -->
<g id="node125" class="node"><title>Node35</title>
<a xlink:href="serializable__functor_8h.html" target="_top" xlink:title="ltr/interfaces/serializable_functor.h">
<polygon style="fill:white;stroke:black;" points="321,-224 321,-244 484,-244 484,-224 321,-224"/>
<text text-anchor="middle" x="402" y="-231" style="font-family:Arial;font-size:10.00;">ltr/interfaces/serializable_functor.h</text>
</a>
</g>
<!-- Node17&#45;&gt;Node35 -->
<g id="edge180" class="edge"><title>Node17&#45;&gt;Node35</title>
<path style="fill:none;stroke:midnightblue;" d="M902,-399C793,-393 532,-375 497,-356 454,-332 425,-281 411,-253"/>
<polygon style="fill:midnightblue;stroke:midnightblue;" points="413.916,-251.042 406,-244 407.797,-254.441 413.916,-251.042"/>
</g>
<!-- Node19&#45;&gt;Node6 -->
<g id="edge54" class="edge"><title>Node19&#45;&gt;Node6</title>
<path style="fill:none;stroke:midnightblue;" d="M829,-112C848,-97 886,-69 923,-56 980,-35 1157,-19 1230,-13"/>
<polygon style="fill:midnightblue;stroke:midnightblue;" points="1230.4,-16.4778 1240,-12 1229.7,-9.5125 1230.4,-16.4778"/>
</g>
<!-- Node20&#45;&gt;Node6 -->
<g id="edge62" class="edge"><title>Node20&#45;&gt;Node6</title>
<path style="fill:none;stroke:midnightblue;" d="M1024,-336C1019,-314 1011,-262 1026,-224 1065,-125 1177,-54 1231,-25"/>
<polygon style="fill:midnightblue;stroke:midnightblue;" points="1232.96,-27.916 1240,-20 1229.56,-21.7969 1232.96,-27.916"/>
</g>
<!-- Node20&#45;&gt;Node7 -->
<g id="edge60" class="edge"><title>Node20&#45;&gt;Node7</title>
<path style="fill:none;stroke:midnightblue;" d="M1045,-336C1100,-307 1253,-227 1264,-224 1414,-179 1473,-256 1612,-188 1660,-164 1698,-112 1716,-85"/>
<polygon style="fill:midnightblue;stroke:midnightblue;" points="1719.37,-86.262 1722,-76 1713.54,-82.3791 1719.37,-86.262"/>
</g>
<!-- Node20&#45;&gt;Node8 -->
<g id="edge156" class="edge"><title>Node20&#45;&gt;Node8</title>
<path style="fill:none;stroke:midnightblue;" d="M1121,-339C1284,-326 1608,-295 1708,-244 1741,-227 1747,-216 1769,-188 1780,-174 1790,-155 1797,-141"/>
<polygon style="fill:midnightblue;stroke:midnightblue;" points="1800.14,-142.56 1801,-132 1793.74,-139.717 1800.14,-142.56"/>
</g>
<!-- Node20&#45;&gt;Node10 -->
<g id="edge64" class="edge"><title>Node20&#45;&gt;Node10</title>
<path style="fill:none;stroke:midnightblue;" d="M1041,-336C1065,-319 1115,-281 1150,-244 1199,-191 1247,-119 1268,-85"/>
<polygon style="fill:midnightblue;stroke:midnightblue;" points="1271.2,-86.4414 1273,-76 1265.08,-83.0418 1271.2,-86.4414"/>
</g>
<!-- Node20&#45;&gt;Node12 -->
<g id="edge178" class="edge"><title>Node20&#45;&gt;Node12</title>
<path style="fill:none;stroke:midnightblue;" d="M1010,-336C978,-313 903,-257 875,-188 863,-156 900,-139 880,-112 871,-98 835,-86 802,-78"/>
<polygon style="fill:midnightblue;stroke:midnightblue;" points="802.492,-74.5292 792,-76 801.119,-81.3933 802.492,-74.5292"/>
</g>
<!-- Node20&#45;&gt;Node19 -->
<g id="edge176" class="edge"><title>Node20&#45;&gt;Node19</title>
<path style="fill:none;stroke:midnightblue;" d="M952,-336C908,-328 857,-316 842,-300 803,-256 808,-179 813,-142"/>
<polygon style="fill:midnightblue;stroke:midnightblue;" points="816.471,-142.492 815,-132 809.607,-141.119 816.471,-142.492"/>
</g>
<!-- Node21 -->
<g id="node54" class="node"><title>Node21</title>
<a xlink:href="data__set_8h.html" target="_top" xlink:title="ltr/data/data_set.h">
<polygon style="fill:white;stroke:black;" points="1304,-280 1304,-300 1399,-300 1399,-280 1304,-280"/>
<text text-anchor="middle" x="1351" y="-287" style="font-family:Arial;font-size:10.00;">ltr/data/data_set.h</text>
</a>
</g>
<!-- Node20&#45;&gt;Node21 -->
<g id="edge66" class="edge"><title>Node20&#45;&gt;Node21</title>
<path style="fill:none;stroke:midnightblue;" d="M1084,-336C1144,-326 1235,-310 1294,-300"/>
<polygon style="fill:midnightblue;stroke:midnightblue;" points="1294.88,-303.393 1304,-298 1293.51,-296.529 1294.88,-303.393"/>
</g>
<!-- Node25 -->
<g id="node78" class="node"><title>Node25</title>
<a xlink:href="feature__info_8h.html" target="_top" xlink:title="ltr/data/feature_info.h">
<polygon style="fill:white;stroke:black;" points="1035,-224 1035,-244 1142,-244 1142,-224 1035,-224"/>
<text text-anchor="middle" x="1088" y="-231" style="font-family:Arial;font-size:10.00;">ltr/data/feature_info.h</text>
</a>
</g>
<!-- Node20&#45;&gt;Node25 -->
<g id="edge154" class="edge"><title>Node20&#45;&gt;Node25</title>
<path style="fill:none;stroke:midnightblue;" d="M1032,-336C1043,-317 1064,-277 1077,-253"/>
<polygon style="fill:midnightblue;stroke:midnightblue;" points="1080.2,-254.441 1082,-244 1074.08,-251.042 1080.2,-254.441"/>
</g>
<!-- Node20&#45;&gt;Node26 -->
<g id="edge160" class="edge"><title>Node20&#45;&gt;Node26</title>
<path style="fill:none;stroke:midnightblue;" d="M1018,-336C1010,-327 1000,-313 993,-300 976,-266 965,-223 959,-198"/>
<polygon style="fill:midnightblue;stroke:midnightblue;" points="962.393,-197.119 957,-188 955.529,-198.492 962.393,-197.119"/>
</g>
<!-- Node32 -->
<g id="node102" class="node"><title>Node32</title>
<a xlink:href="per__object__accessor_8h.html" target="_top" xlink:title="ltr/data/per_object_accessor.h">
<polygon style="fill:white;stroke:black;" points="1417,-224 1417,-244 1564,-244 1564,-224 1417,-224"/>
<text text-anchor="middle" x="1490" y="-231" style="font-family:Arial;font-size:10.00;">ltr/data/per_object_accessor.h</text>
</a>
</g>
<!-- Node20&#45;&gt;Node32 -->
<g id="edge158" class="edge"><title>Node20&#45;&gt;Node32</title>
<path style="fill:none;stroke:midnightblue;" d="M1121,-340C1217,-333 1357,-320 1407,-300 1433,-289 1458,-267 1473,-251"/>
<polygon style="fill:midnightblue;stroke:midnightblue;" points="1475.78,-253.219 1481,-244 1471.17,-247.951 1475.78,-253.219"/>
</g>
<!-- Node20&#45;&gt;Node33 -->
<g id="edge162" class="edge"><title>Node20&#45;&gt;Node33</title>
<path style="fill:none;stroke:midnightblue;" d="M961,-336C908,-327 832,-314 766,-300 643,-272 615,-255 492,-224 445,-211 390,-199 350,-190"/>
<polygon style="fill:midnightblue;stroke:midnightblue;" points="350.492,-186.529 340,-188 349.119,-193.393 350.492,-186.529"/>
</g>
<!-- Node21&#45;&gt;Node6 -->
<g id="edge72" class="edge"><title>Node21&#45;&gt;Node6</title>
<path style="fill:none;stroke:midnightblue;" d="M1352,-280C1355,-246 1362,-132 1317,-56 1310,-43 1298,-33 1288,-26"/>
<polygon style="fill:midnightblue;stroke:midnightblue;" points="1289.26,-22.6349 1279,-20 1285.38,-28.4592 1289.26,-22.6349"/>
</g>
<!-- Node21&#45;&gt;Node7 -->
<g id="edge74" class="edge"><title>Node21&#45;&gt;Node7</title>
<path style="fill:none;stroke:midnightblue;" d="M1399,-284C1459,-276 1557,-260 1590,-244 1656,-210 1674,-194 1711,-132 1720,-118 1724,-100 1726,-86"/>
<polygon style="fill:midnightblue;stroke:midnightblue;" points="1729.49,-86.2987 1727,-76 1722.52,-85.6021 1729.49,-86.2987"/>
</g>
<!-- Node21&#45;&gt;Node8 -->
<g id="edge76" class="edge"><title>Node21&#45;&gt;Node8</title>
<path style="fill:none;stroke:midnightblue;" d="M1399,-287C1479,-282 1635,-268 1683,-244 1709,-230 1763,-171 1789,-140"/>
<polygon style="fill:midnightblue;stroke:midnightblue;" points="1792.05,-141.831 1796,-132 1786.78,-137.221 1792.05,-141.831"/>
</g>
<!-- Node21&#45;&gt;Node10 -->
<g id="edge70" class="edge"><title>Node21&#45;&gt;Node10</title>
<path style="fill:none;stroke:midnightblue;" d="M1313,-280C1295,-273 1275,-262 1264,-244 1234,-193 1257,-120 1270,-86"/>
<polygon style="fill:midnightblue;stroke:midnightblue;" points="1273.54,-86.5847 1274,-76 1267.04,-83.9849 1273.54,-86.5847"/>
</g>
<!-- Node21&#45;&gt;Node19 -->
<g id="edge152" class="edge"><title>Node21&#45;&gt;Node19</title>
<path style="fill:none;stroke:midnightblue;" d="M1304,-286C1240,-281 1123,-268 1026,-244 957,-226 934,-228 875,-188 857,-175 840,-155 830,-141"/>
<polygon style="fill:midnightblue;stroke:midnightblue;" points="832.459,-138.379 824,-132 826.635,-142.262 832.459,-138.379"/>
</g>
<!-- Node22 -->
<g id="node56" class="node"><title>Node22</title>
<polygon style="fill:white;stroke:#bfbfbf;" points="1273,-224 1273,-244 1324,-244 1324,-224 1273,-224"/>
<text text-anchor="middle" x="1298" y="-231" style="font-family:Arial;font-size:10.00;">sstream</text>
</g>
<!-- Node21&#45;&gt;Node22 -->
<g id="edge68" class="edge"><title>Node21&#45;&gt;Node22</title>
<path style="fill:none;stroke:midnightblue;" d="M1342,-280C1334,-272 1323,-261 1315,-252"/>
<polygon style="fill:midnightblue;stroke:midnightblue;" points="1317.22,-249.221 1308,-244 1311.95,-253.831 1317.22,-249.221"/>
</g>
<!-- Node23 -->
<g id="node62" class="node"><title>Node23</title>
<a xlink:href="object__list_8h.html" target="_top" xlink:title="ltr/data/object_list.h">
<polygon style="fill:white;stroke:black;" points="1379,-168 1379,-188 1481,-188 1481,-168 1379,-168"/>
<text text-anchor="middle" x="1430" y="-175" style="font-family:Arial;font-size:10.00;">ltr/data/object_list.h</text>
</a>
</g>
<!-- Node21&#45;&gt;Node23 -->
<g id="edge78" class="edge"><title>Node21&#45;&gt;Node23</title>
<path style="fill:none;stroke:midnightblue;" d="M1358,-280C1371,-260 1400,-221 1417,-196"/>
<polygon style="fill:midnightblue;stroke:midnightblue;" points="1419.8,-198.1 1423,-188 1414.2,-193.9 1419.8,-198.1"/>
</g>
<!-- Node24 -->
<g id="node70" class="node"><title>Node24</title>
<a xlink:href="object__pair_8h.html" target="_top" xlink:title="ltr/data/object_pair.h">
<polygon style="fill:white;stroke:black;" points="1499,-168 1499,-188 1603,-188 1603,-168 1499,-168"/>
<text text-anchor="middle" x="1551" y="-175" style="font-family:Arial;font-size:10.00;">ltr/data/object_pair.h</text>
</a>
</g>
<!-- Node21&#45;&gt;Node24 -->
<g id="edge92" class="edge"><title>Node21&#45;&gt;Node24</title>
<path style="fill:none;stroke:midnightblue;" d="M1399,-287C1457,-282 1551,-270 1572,-244 1583,-230 1575,-211 1566,-197"/>
<polygon style="fill:midnightblue;stroke:midnightblue;" points="1568.46,-194.379 1560,-188 1562.63,-198.262 1568.46,-194.379"/>
</g>
<!-- Node21&#45;&gt;Node25 -->
<g id="edge106" class="edge"><title>Node21&#45;&gt;Node25</title>
<path style="fill:none;stroke:midnightblue;" d="M1304,-280C1259,-271 1193,-256 1145,-246"/>
<polygon style="fill:midnightblue;stroke:midnightblue;" points="1145.49,-242.529 1135,-244 1144.12,-249.393 1145.49,-242.529"/>
</g>
<!-- Node21&#45;&gt;Node32 -->
<g id="edge140" class="edge"><title>Node21&#45;&gt;Node32</title>
<path style="fill:none;stroke:midnightblue;" d="M1376,-280C1398,-271 1431,-258 1456,-248"/>
<polygon style="fill:midnightblue;stroke:midnightblue;" points="1457.28,-251.26 1465,-244 1454.44,-244.863 1457.28,-251.26"/>
</g>
<!-- Node23&#45;&gt;Node6 -->
<g id="edge82" class="edge"><title>Node23&#45;&gt;Node6</title>
<path style="fill:none;stroke:midnightblue;" d="M1431,-168C1434,-145 1436,-88 1407,-56 1392,-39 1328,-23 1290,-16"/>
<polygon style="fill:midnightblue;stroke:midnightblue;" points="1290.49,-12.5292 1280,-14 1289.12,-19.3933 1290.49,-12.5292"/>
</g>
<!-- Node23&#45;&gt;Node7 -->
<g id="edge84" class="edge"><title>Node23&#45;&gt;Node7</title>
<path style="fill:none;stroke:midnightblue;" d="M1457,-168C1512,-147 1639,-100 1698,-78"/>
<polygon style="fill:midnightblue;stroke:midnightblue;" points="1699.28,-81.2598 1707,-74 1696.44,-74.8631 1699.28,-81.2598"/>
</g>
<!-- Node23&#45;&gt;Node8 -->
<g id="edge86" class="edge"><title>Node23&#45;&gt;Node8</title>
<path style="fill:none;stroke:midnightblue;" d="M1481,-169C1484,-169 1487,-168 1490,-168 1583,-154 1691,-138 1753,-129"/>
<polygon style="fill:midnightblue;stroke:midnightblue;" points="1753.4,-132.478 1763,-128 1752.7,-125.512 1753.4,-132.478"/>
</g>
<!-- Node23&#45;&gt;Node10 -->
<g id="edge80" class="edge"><title>Node23&#45;&gt;Node10</title>
<path style="fill:none;stroke:midnightblue;" d="M1416,-168C1390,-148 1333,-106 1301,-82"/>
<polygon style="fill:midnightblue;stroke:midnightblue;" points="1303.1,-79.2 1293,-76 1298.9,-84.8 1303.1,-79.2"/>
</g>
<!-- Node23&#45;&gt;Node11 -->
<g id="edge88" class="edge"><title>Node23&#45;&gt;Node11</title>
<path style="fill:none;stroke:midnightblue;" d="M1448,-168C1484,-148 1563,-104 1604,-81"/>
<polygon style="fill:midnightblue;stroke:midnightblue;" points="1605.96,-83.916 1613,-76 1602.56,-77.7969 1605.96,-83.916"/>
</g>
<!-- Node23&#45;&gt;Node12 -->
<g id="edge90" class="edge"><title>Node23&#45;&gt;Node12</title>
<path style="fill:none;stroke:midnightblue;" d="M1379,-170C1303,-157 1154,-132 1027,-112 952,-100 865,-86 808,-77"/>
<polygon style="fill:midnightblue;stroke:midnightblue;" points="808.492,-73.5292 798,-75 807.119,-80.3933 808.492,-73.5292"/>
</g>
<!-- Node24&#45;&gt;Node6 -->
<g id="edge96" class="edge"><title>Node24&#45;&gt;Node6</title>
<path style="fill:none;stroke:midnightblue;" d="M1544,-168C1527,-144 1482,-86 1429,-56 1385,-30 1325,-18 1290,-13"/>
<polygon style="fill:midnightblue;stroke:midnightblue;" points="1290.3,-9.5125 1280,-12 1289.6,-16.4778 1290.3,-9.5125"/>
</g>
<!-- Node24&#45;&gt;Node7 -->
<g id="edge98" class="edge"><title>Node24&#45;&gt;Node7</title>
<path style="fill:none;stroke:midnightblue;" d="M1571,-168C1588,-159 1614,-145 1635,-132 1660,-116 1688,-96 1707,-82"/>
<polygon style="fill:midnightblue;stroke:midnightblue;" points="1709.1,-84.8 1715,-76 1704.9,-79.2 1709.1,-84.8"/>
</g>
<!-- Node24&#45;&gt;Node8 -->
<g id="edge100" class="edge"><title>Node24&#45;&gt;Node8</title>
<path style="fill:none;stroke:midnightblue;" d="M1596,-168C1640,-159 1707,-143 1753,-133"/>
<polygon style="fill:midnightblue;stroke:midnightblue;" points="1753.88,-136.393 1763,-131 1752.51,-129.529 1753.88,-136.393"/>
</g>
<!-- Node24&#45;&gt;Node10 -->
<g id="edge94" class="edge"><title>Node24&#45;&gt;Node10</title>
<path style="fill:none;stroke:midnightblue;" d="M1526,-168C1477,-147 1368,-102 1313,-80"/>
<polygon style="fill:midnightblue;stroke:midnightblue;" points="1314.56,-76.8631 1304,-76 1311.72,-83.2598 1314.56,-76.8631"/>
</g>
<!-- Node24&#45;&gt;Node11 -->
<g id="edge102" class="edge"><title>Node24&#45;&gt;Node11</title>
<path style="fill:none;stroke:midnightblue;" d="M1558,-168C1571,-148 1600,-109 1618,-84"/>
<polygon style="fill:midnightblue;stroke:midnightblue;" points="1620.8,-86.1 1624,-76 1615.2,-81.9 1620.8,-86.1"/>
</g>
<!-- Node24&#45;&gt;Node12 -->
<g id="edge104" class="edge"><title>Node24&#45;&gt;Node12</title>
<path style="fill:none;stroke:midnightblue;" d="M1508,-168C1444,-154 1322,-127 1217,-112 1072,-91 900,-77 808,-70"/>
<polygon style="fill:midnightblue;stroke:midnightblue;" points="808.299,-66.5125 798,-69 807.602,-73.4778 808.299,-66.5125"/>
</g>
<!-- Node25&#45;&gt;Node5 -->
<g id="edge108" class="edge"><title>Node25&#45;&gt;Node5</title>
<path style="fill:none;stroke:midnightblue;" d="M1142,-230C1258,-222 1523,-202 1612,-188 1722,-170 1753,-172 1856,-132 1890,-119 1927,-96 1949,-82"/>
<polygon style="fill:midnightblue;stroke:midnightblue;" points="1951.62,-84.4592 1958,-76 1947.74,-78.6349 1951.62,-84.4592"/>
</g>
<!-- Node25&#45;&gt;Node6 -->
<g id="edge110" class="edge"><title>Node25&#45;&gt;Node6</title>
<path style="fill:none;stroke:midnightblue;" d="M1092,-224C1101,-202 1123,-149 1151,-112 1178,-77 1216,-45 1239,-26"/>
<polygon style="fill:midnightblue;stroke:midnightblue;" points="1241.1,-28.8 1247,-20 1236.9,-23.2 1241.1,-28.8"/>
</g>
<!-- Node25&#45;&gt;Node7 -->
<g id="edge112" class="edge"><title>Node25&#45;&gt;Node7</title>
<path style="fill:none;stroke:midnightblue;" d="M1125,-224C1204,-203 1392,-152 1550,-112 1613,-96 1631,-94 1697,-76"/>
<polygon style="fill:midnightblue;stroke:midnightblue;" points="1698.43,-79.2259 1707,-73 1696.42,-72.5212 1698.43,-79.2259"/>
</g>
<!-- Node25&#45;&gt;Node12 -->
<g id="edge138" class="edge"><title>Node25&#45;&gt;Node12</title>
<path style="fill:none;stroke:midnightblue;" d="M1082,-224C1073,-210 1056,-184 1035,-168 968,-115 871,-89 808,-76"/>
<polygon style="fill:midnightblue;stroke:midnightblue;" points="808.492,-72.5292 798,-74 807.119,-79.3933 808.492,-72.5292"/>
</g>
<!-- Node25&#45;&gt;Node26 -->
<g id="edge114" class="edge"><title>Node25&#45;&gt;Node26</title>
<path style="fill:none;stroke:midnightblue;" d="M1064,-224C1043,-215 1012,-202 988,-192"/>
<polygon style="fill:midnightblue;stroke:midnightblue;" points="989.56,-188.863 979,-188 986.717,-195.26 989.56,-188.863"/>
</g>
<!-- Node26&#45;&gt;Node6 -->
<g id="edge118" class="edge"><title>Node26&#45;&gt;Node6</title>
<path style="fill:none;stroke:midnightblue;" d="M962,-168C978,-144 1023,-85 1075,-56 1125,-27 1191,-16 1230,-12"/>
<polygon style="fill:midnightblue;stroke:midnightblue;" points="1230.4,-15.4778 1240,-11 1229.7,-8.5125 1230.4,-15.4778"/>
</g>
<!-- Node26&#45;&gt;Node10 -->
<g id="edge116" class="edge"><title>Node26&#45;&gt;Node10</title>
<path style="fill:none;stroke:midnightblue;" d="M984,-168C1043,-147 1175,-102 1240,-79"/>
<polygon style="fill:midnightblue;stroke:midnightblue;" points="1241.43,-82.2259 1250,-76 1239.42,-75.5212 1241.43,-82.2259"/>
</g>
<!-- Node26&#45;&gt;Node27 -->
<g id="edge120" class="edge"><title>Node26&#45;&gt;Node27</title>
<path style="fill:none;stroke:midnightblue;" d="M884,-168C814,-158 710,-143 638,-133"/>
<polygon style="fill:midnightblue;stroke:midnightblue;" points="638.299,-129.512 628,-132 637.602,-136.478 638.299,-129.512"/>
</g>
<!-- Node27&#45;&gt;Node6 -->
<g id="edge128" class="edge"><title>Node27&#45;&gt;Node6</title>
<path style="fill:none;stroke:midnightblue;" d="M576,-112C611,-94 682,-56 682,-56 735,-41 1118,-18 1230,-12"/>
<polygon style="fill:midnightblue;stroke:midnightblue;" points="1230.4,-15.4778 1240,-11 1229.7,-8.5125 1230.4,-15.4778"/>
</g>
<!-- Node27&#45;&gt;Node10 -->
<g id="edge126" class="edge"><title>Node27&#45;&gt;Node10</title>
<path style="fill:none;stroke:midnightblue;" d="M670,-113C835,-100 1133,-78 1240,-69"/>
<polygon style="fill:midnightblue;stroke:midnightblue;" points="1240.4,-72.4778 1250,-68 1239.7,-65.5125 1240.4,-72.4778"/>
</g>
<!-- Node27&#45;&gt;Node11 -->
<g id="edge136" class="edge"><title>Node27&#45;&gt;Node11</title>
<path style="fill:none;stroke:midnightblue;" d="M670,-116C893,-104 1383,-79 1563,-70"/>
<polygon style="fill:midnightblue;stroke:midnightblue;" points="1563.4,-73.4778 1573,-69 1562.7,-66.5125 1563.4,-73.4778"/>
</g>
<!-- Node27&#45;&gt;Node12 -->
<g id="edge134" class="edge"><title>Node27&#45;&gt;Node12</title>
<path style="fill:none;stroke:midnightblue;" d="M590,-112C621,-103 666,-89 700,-79"/>
<polygon style="fill:midnightblue;stroke:midnightblue;" points="701.427,-82.2259 710,-76 699.416,-75.5212 701.427,-82.2259"/>
</g>
<!-- Node28 -->
<g id="node89" class="node"><title>Node28</title>
<polygon style="fill:white;stroke:#bfbfbf;" points="275,-56 275,-76 349,-76 349,-56 275,-56"/>
<text text-anchor="middle" x="312" y="-63" style="font-family:Arial;font-size:10.00;">logog/logog.h</text>
</g>
<!-- Node27&#45;&gt;Node28 -->
<g id="edge122" class="edge"><title>Node27&#45;&gt;Node28</title>
<path style="fill:none;stroke:midnightblue;" d="M513,-112C470,-102 404,-87 359,-76"/>
<polygon style="fill:midnightblue;stroke:midnightblue;" points="359.492,-72.5292 349,-74 358.119,-79.3933 359.492,-72.5292"/>
</g>
<!-- Node29 -->
<g id="node91" class="node"><title>Node29</title>
<polygon style="fill:white;stroke:#bfbfbf;" points="607,-56 607,-76 636,-76 636,-56 607,-56"/>
<text text-anchor="middle" x="621" y="-63" style="font-family:Arial;font-size:10.00;">list</text>
</g>
<!-- Node27&#45;&gt;Node29 -->
<g id="edge124" class="edge"><title>Node27&#45;&gt;Node29</title>
<path style="fill:none;stroke:midnightblue;" d="M568,-112C578,-104 591,-93 602,-83"/>
<polygon style="fill:midnightblue;stroke:midnightblue;" points="604.404,-85.546 609,-76 599.454,-80.5962 604.404,-85.546"/>
</g>
<!-- Node30 -->
<g id="node95" class="node"><title>Node30</title>
<polygon style="fill:white;stroke:#bfbfbf;" points="367,-56 367,-76 444,-76 444,-56 367,-56"/>
<text text-anchor="middle" x="405" y="-63" style="font-family:Arial;font-size:10.00;">boost/any.hpp</text>
</g>
<!-- Node27&#45;&gt;Node30 -->
<g id="edge130" class="edge"><title>Node27&#45;&gt;Node30</title>
<path style="fill:none;stroke:midnightblue;" d="M530,-112C505,-103 469,-89 442,-79"/>
<polygon style="fill:midnightblue;stroke:midnightblue;" points="442.584,-75.5212 432,-76 440.573,-82.2259 442.584,-75.5212"/>
</g>
<!-- Node31 -->
<g id="node97" class="node"><title>Node31</title>
<polygon style="fill:white;stroke:#bfbfbf;" points="461,-56 461,-76 590,-76 590,-56 461,-56"/>
<text text-anchor="middle" x="525" y="-63" style="font-family:Arial;font-size:10.00;">boost/unordered_map.hpp</text>
</g>
<!-- Node27&#45;&gt;Node31 -->
<g id="edge132" class="edge"><title>Node27&#45;&gt;Node31</title>
<path style="fill:none;stroke:midnightblue;" d="M551,-112C546,-105 541,-94 536,-85"/>
<polygon style="fill:midnightblue;stroke:midnightblue;" points="538.916,-83.0418 531,-76 532.797,-86.4414 538.916,-83.0418"/>
</g>
<!-- Node32&#45;&gt;Node8 -->
<g id="edge142" class="edge"><title>Node32&#45;&gt;Node8</title>
<path style="fill:none;stroke:midnightblue;" d="M1527,-224C1559,-215 1605,-202 1645,-188 1690,-172 1741,-150 1774,-136"/>
<polygon style="fill:midnightblue;stroke:midnightblue;" points="1775.28,-139.26 1783,-132 1772.44,-132.863 1775.28,-139.26"/>
</g>
<!-- Node32&#45;&gt;Node12 -->
<g id="edge150" class="edge"><title>Node32&#45;&gt;Node12</title>
<path style="fill:none;stroke:midnightblue;" d="M1451,-224C1365,-202 1155,-150 977,-112 920,-99 855,-87 808,-78"/>
<polygon style="fill:midnightblue;stroke:midnightblue;" points="808.492,-74.5292 798,-76 807.119,-81.3933 808.492,-74.5292"/>
</g>
<!-- Node32&#45;&gt;Node23 -->
<g id="edge146" class="edge"><title>Node32&#45;&gt;Node23</title>
<path style="fill:none;stroke:midnightblue;" d="M1479,-224C1470,-216 1458,-205 1448,-195"/>
<polygon style="fill:midnightblue;stroke:midnightblue;" points="1450.55,-192.596 1441,-188 1445.6,-197.546 1450.55,-192.596"/>
</g>
<!-- Node32&#45;&gt;Node24 -->
<g id="edge144" class="edge"><title>Node32&#45;&gt;Node24</title>
<path style="fill:none;stroke:midnightblue;" d="M1501,-224C1510,-216 1522,-205 1533,-195"/>
<polygon style="fill:midnightblue;stroke:midnightblue;" points="1535.4,-197.546 1540,-188 1530.45,-192.596 1535.4,-197.546"/>
</g>
<!-- Node32&#45;&gt;Node26 -->
<g id="edge148" class="edge"><title>Node32&#45;&gt;Node26</title>
<path style="fill:none;stroke:midnightblue;" d="M1417,-226C1317,-215 1140,-197 1036,-186"/>
<polygon style="fill:midnightblue;stroke:midnightblue;" points="1036.3,-182.512 1026,-185 1035.6,-189.478 1036.3,-182.512"/>
</g>
<!-- Node33&#45;&gt;Node6 -->
<g id="edge168" class="edge"><title>Node33&#45;&gt;Node6</title>
<path style="fill:none;stroke:midnightblue;" d="M286,-168C270,-145 236,-87 266,-56 271,-51 1064,-18 1230,-11"/>
<polygon style="fill:midnightblue;stroke:midnightblue;" points="1230,-14.5001 1240,-11 1230,-7.5001 1230,-14.5001"/>
</g>
<!-- Node33&#45;&gt;Node12 -->
<g id="edge172" class="edge"><title>Node33&#45;&gt;Node12</title>
<path style="fill:none;stroke:midnightblue;" d="M229,-168C182,-159 130,-141 156,-112 194,-72 590,-80 644,-76 656,-75 669,-74 681,-73"/>
<polygon style="fill:midnightblue;stroke:midnightblue;" points="681.398,-76.4778 691,-72 680.701,-69.5125 681.398,-76.4778"/>
</g>
<!-- Node33&#45;&gt;Node18 -->
<g id="edge164" class="edge"><title>Node33&#45;&gt;Node18</title>
<path style="fill:none;stroke:midnightblue;" d="M307,-168C318,-160 335,-148 348,-138"/>
<polygon style="fill:midnightblue;stroke:midnightblue;" points="350.1,-140.8 356,-132 345.9,-135.2 350.1,-140.8"/>
</g>
<!-- Node33&#45;&gt;Node19 -->
<g id="edge174" class="edge"><title>Node33&#45;&gt;Node19</title>
<path style="fill:none;stroke:midnightblue;" d="M358,-171C459,-160 652,-139 753,-129"/>
<polygon style="fill:midnightblue;stroke:midnightblue;" points="753.398,-132.478 763,-128 752.701,-125.512 753.398,-132.478"/>
</g>
<!-- Node33&#45;&gt;Node28 -->
<g id="edge166" class="edge"><title>Node33&#45;&gt;Node28</title>
<path style="fill:none;stroke:midnightblue;" d="M295,-168C297,-155 301,-131 304,-112 305,-103 307,-94 309,-86"/>
<polygon style="fill:midnightblue;stroke:midnightblue;" points="312.488,-86.2987 310,-76 305.522,-85.6021 312.488,-86.2987"/>
</g>
<!-- Node34 -->
<g id="node119" class="node"><title>Node34</title>
<polygon style="fill:white;stroke:#bfbfbf;" points="165,-112 165,-132 219,-132 219,-112 165,-112"/>
<text text-anchor="middle" x="192" y="-119" style="font-family:Arial;font-size:10.00;">iostream</text>
</g>
<!-- Node33&#45;&gt;Node34 -->
<g id="edge170" class="edge"><title>Node33&#45;&gt;Node34</title>
<path style="fill:none;stroke:midnightblue;" d="M275,-168C260,-159 237,-147 219,-137"/>
<polygon style="fill:midnightblue;stroke:midnightblue;" points="220.441,-133.797 210,-132 217.042,-139.916 220.441,-133.797"/>
</g>
<!-- Node35&#45;&gt;Node12 -->
<g id="edge182" class="edge"><title>Node35&#45;&gt;Node12</title>
<path style="fill:none;stroke:midnightblue;" d="M324,-224C229,-209 88,-175 146,-112 184,-71 589,-80 644,-76 656,-75 669,-74 681,-73"/>
<polygon style="fill:midnightblue;stroke:midnightblue;" points="681.398,-76.4778 691,-72 680.701,-69.5125 681.398,-76.4778"/>
</g>
<!-- Node35&#45;&gt;Node33 -->
<g id="edge194" class="edge"><title>Node35&#45;&gt;Node33</title>
<path style="fill:none;stroke:midnightblue;" d="M383,-224C366,-215 341,-202 322,-193"/>
<polygon style="fill:midnightblue;stroke:midnightblue;" points="323.441,-189.797 313,-188 320.042,-195.916 323.441,-189.797"/>
</g>
<!-- Node36 -->
<g id="node128" class="node"><title>Node36</title>
<a xlink:href="functor_8h.html" target="_top" xlink:title="ltr/interfaces/functor.h">
<polygon style="fill:white;stroke:black;" points="606,-168 606,-188 715,-188 715,-168 606,-168"/>
<text text-anchor="middle" x="660" y="-175" style="font-family:Arial;font-size:10.00;">ltr/interfaces/functor.h</text>
</a>
</g>
<!-- Node35&#45;&gt;Node36 -->
<g id="edge184" class="edge"><title>Node35&#45;&gt;Node36</title>
<path style="fill:none;stroke:midnightblue;" d="M448,-224C492,-215 557,-200 604,-190"/>
<polygon style="fill:midnightblue;stroke:midnightblue;" points="604.881,-193.393 614,-188 603.508,-186.529 604.881,-193.393"/>
</g>
<!-- Node36&#45;&gt;Node6 -->
<g id="edge190" class="edge"><title>Node36&#45;&gt;Node6</title>
<path style="fill:none;stroke:midnightblue;" d="M673,-168C690,-154 724,-129 754,-112 807,-82 820,-72 878,-56 1006,-20 1164,-13 1230,-10"/>
<polygon style="fill:midnightblue;stroke:midnightblue;" points="1230,-13.5001 1240,-10 1230,-6.5001 1230,-13.5001"/>
</g>
<!-- Node36&#45;&gt;Node8 -->
<g id="edge192" class="edge"><title>Node36&#45;&gt;Node8</title>
<path style="fill:none;stroke:midnightblue;" d="M715,-175C910,-165 1563,-134 1753,-125"/>
<polygon style="fill:midnightblue;stroke:midnightblue;" points="1753.4,-128.478 1763,-124 1752.7,-121.512 1753.4,-128.478"/>
</g>
<!-- Node36&#45;&gt;Node12 -->
<g id="edge186" class="edge"><title>Node36&#45;&gt;Node12</title>
<path style="fill:none;stroke:midnightblue;" d="M668,-168C682,-148 712,-108 730,-84"/>
<polygon style="fill:midnightblue;stroke:midnightblue;" points="732.8,-86.1 736,-76 727.2,-81.9 732.8,-86.1"/>
</g>
<!-- Node36&#45;&gt;Node18 -->
<g id="edge188" class="edge"><title>Node36&#45;&gt;Node18</title>
<path style="fill:none;stroke:midnightblue;" d="M608,-168C559,-159 485,-144 432,-134"/>
<polygon style="fill:midnightblue;stroke:midnightblue;" points="432.492,-130.529 422,-132 431.119,-137.393 432.492,-130.529"/>
</g>
<!-- Node37&#45;&gt;Node4 -->
<g id="edge210" class="edge"><title>Node37&#45;&gt;Node4</title>
<path style="fill:none;stroke:midnightblue;" d="M2280,-504C2270,-496 2257,-485 2246,-475"/>
<polygon style="fill:midnightblue;stroke:midnightblue;" points="2248.55,-472.596 2239,-468 2243.6,-477.546 2248.55,-472.596"/>
</g>
<!-- Node37&#45;&gt;Node7 -->
<g id="edge212" class="edge"><title>Node37&#45;&gt;Node7</title>
<path style="fill:none;stroke:midnightblue;" d="M2293,-504C2295,-490 2297,-466 2290,-448 2278,-417 2265,-415 2243,-392 2116,-255 2102,-185 1932,-112 1874,-87 1800,-75 1759,-69"/>
<polygon style="fill:midnightblue;stroke:midnightblue;" points="1759.3,-65.5125 1749,-68 1758.6,-72.4778 1759.3,-65.5125"/>
</g>
<!-- Node37&#45;&gt;Node8 -->
<g id="edge214" class="edge"><title>Node37&#45;&gt;Node8</title>
<path style="fill:none;stroke:midnightblue;" d="M2290,-504C2288,-490 2284,-465 2272,-448 2212,-362 1983,-223 1895,-168 1876,-156 1854,-145 1836,-137"/>
<polygon style="fill:midnightblue;stroke:midnightblue;" points="1837.44,-133.797 1827,-132 1834.04,-139.916 1837.44,-133.797"/>
</g>
</g>
</svg>
