<?xml version="1.0" encoding="UTF-8" standalone="no"?>
<!DOCTYPE svg PUBLIC "-//W3C//DTD SVG 1.0//EN"
 "http://www.w3.org/TR/2001/REC-SVG-20010904/DTD/svg10.dtd" [
 <!ATTLIST svg xmlns:xlink CDATA #FIXED "http://www.w3.org/1999/xlink">
]>
<!-- Generated by Graphviz version 2.20.2 (Tue Mar &#160;2 19:03:41 UTC 2010)
     For user: (jenkins)  -->
<!-- Title: G Pages: 1 -->
<svg width="2150pt" height="532pt"
 viewBox="0.00 0.00 2150.00 532.00" xmlns="http://www.w3.org/2000/svg" xmlns:xlink="http://www.w3.org/1999/xlink">
<g id="graph0" class="graph" transform="scale(1 1) rotate(0) translate(4 528)">
<title>G</title>
<polygon style="fill:white;stroke:white;" points="-4,4 -4,-528 2146,-528 2146,4 -4,4"/>
<!-- Node1 -->
<g id="node1" class="node"><title>Node1</title>
<polygon style="fill:#bfbfbf;stroke:black;" points="94,-504 94,-524 296,-524 296,-504 94,-504"/>
<text text-anchor="middle" x="195" y="-511" style="font-family:Arial;font-size:10.00;">ltr/density_estimators/fisher_discriminant.h</text>
</g>
<!-- Node2 -->
<g id="node3" class="node"><title>Node2</title>
<polygon style="fill:white;stroke:#bfbfbf;" points="0,-448 0,-468 72,-468 72,-448 0,-448"/>
<text text-anchor="middle" x="36" y="-455" style="font-family:Arial;font-size:10.00;">Eigen/Dense</text>
</g>
<!-- Node1&#45;&gt;Node2 -->
<g id="edge2" class="edge"><title>Node1&#45;&gt;Node2</title>
<path style="fill:none;stroke:midnightblue;" d="M167,-504C141,-495 103,-481 75,-471"/>
<polygon style="fill:midnightblue;stroke:midnightblue;" points="75.584,-467.521 65,-468 73.5725,-474.226 75.584,-467.521"/>
</g>
<!-- Node3 -->
<g id="node5" class="node"><title>Node3</title>
<polygon style="fill:white;stroke:#bfbfbf;" points="522,-56 522,-76 557,-76 557,-56 522,-56"/>
<text text-anchor="middle" x="539" y="-63" style="font-family:Arial;font-size:10.00;">map</text>
</g>
<!-- Node1&#45;&gt;Node3 -->
<g id="edge4" class="edge"><title>Node1&#45;&gt;Node3</title>
<path style="fill:none;stroke:midnightblue;" d="M177,-504C150,-487 100,-449 100,-402 100,-402 100,-402 100,-290 100,-206 97,-164 162,-112 169,-106 426,-78 512,-69"/>
<polygon style="fill:midnightblue;stroke:midnightblue;" points="512.398,-72.4778 522,-68 511.701,-65.5125 512.398,-72.4778"/>
</g>
<!-- Node4 -->
<g id="node7" class="node"><title>Node4</title>
<polygon style="fill:white;stroke:#bfbfbf;" points="902,-0 902,-20 942,-20 942,-0 902,-0"/>
<text text-anchor="middle" x="922" y="-7" style="font-family:Arial;font-size:10.00;">string</text>
</g>
<!-- Node1&#45;&gt;Node4 -->
<g id="edge6" class="edge"><title>Node1&#45;&gt;Node4</title>
<path style="fill:none;stroke:midnightblue;" d="M296,-514C696,-511 2142,-495 2142,-402 2142,-402 2142,-402 2142,-122 2142,-0 1997,-73 1877,-56 1692,-29 1093,-14 952,-10"/>
<polygon style="fill:midnightblue;stroke:midnightblue;" points="952,-6.5001 942,-10 952,-13.5001 952,-6.5001"/>
</g>
<!-- Node5 -->
<g id="node9" class="node"><title>Node5</title>
<polygon style="fill:white;stroke:#bfbfbf;" points="661,-56 661,-76 703,-76 703,-56 661,-56"/>
<text text-anchor="middle" x="682" y="-63" style="font-family:Arial;font-size:10.00;">vector</text>
</g>
<!-- Node1&#45;&gt;Node5 -->
<g id="edge8" class="edge"><title>Node1&#45;&gt;Node5</title>
<path style="fill:none;stroke:midnightblue;" d="M192,-504C187,-484 176,-440 176,-402 176,-402 176,-402 176,-178 176,-144 184,-130 212,-112 221,-105 547,-77 651,-69"/>
<polygon style="fill:midnightblue;stroke:midnightblue;" points="651.398,-72.4778 661,-68 650.701,-65.5125 651.398,-72.4778"/>
</g>
<!-- Node6 -->
<g id="node11" class="node"><title>Node6</title>
<a xlink:href="object_8h.html" target="_top" xlink:title="ltr/data/object.h">
<polygon style="fill:white;stroke:black;" points="788,-112 788,-132 872,-132 872,-112 788,-112"/>
<text text-anchor="middle" x="830" y="-119" style="font-family:Arial;font-size:10.00;">ltr/data/object.h</text>
</a>
</g>
<!-- Node1&#45;&gt;Node6 -->
<g id="edge10" class="edge"><title>Node1&#45;&gt;Node6</title>
<path style="fill:none;stroke:midnightblue;" d="M198,-504C203,-484 214,-440 214,-402 214,-402 214,-402 214,-234 214,-161 293,-186 364,-168 440,-148 673,-131 778,-125"/>
<polygon style="fill:midnightblue;stroke:midnightblue;" points="778.398,-128.478 788,-124 777.701,-121.512 778.398,-128.478"/>
</g>
<!-- Node14 -->
<g id="node32" class="node"><title>Node14</title>
<a xlink:href="base__probability__density__estimator_8h.html" target="_top" xlink:title="ltr/density_estimators/base_probability_density_estimator.h">
<polygon style="fill:white;stroke:black;" points="242,-448 242,-468 515,-468 515,-448 242,-448"/>
<text text-anchor="middle" x="378" y="-455" style="font-family:Arial;font-size:10.00;">ltr/density_estimators/base_probability_density_estimator.h</text>
</a>
</g>
<!-- Node1&#45;&gt;Node14 -->
<g id="edge36" class="edge"><title>Node1&#45;&gt;Node14</title>
<path style="fill:none;stroke:midnightblue;" d="M228,-504C258,-495 303,-481 335,-471"/>
<polygon style="fill:midnightblue;stroke:midnightblue;" points="336.427,-474.226 345,-468 334.416,-467.521 336.427,-474.226"/>
</g>
<!-- Node6&#45;&gt;Node3 -->
<g id="edge12" class="edge"><title>Node6&#45;&gt;Node3</title>
<path style="fill:none;stroke:midnightblue;" d="M788,-114C727,-102 619,-81 567,-71"/>
<polygon style="fill:midnightblue;stroke:midnightblue;" points="567.492,-67.5292 557,-69 566.119,-74.3933 567.492,-67.5292"/>
</g>
<!-- Node6&#45;&gt;Node4 -->
<g id="edge18" class="edge"><title>Node6&#45;&gt;Node4</title>
<path style="fill:none;stroke:midnightblue;" d="M844,-112C856,-103 872,-90 884,-76 895,-62 906,-43 913,-29"/>
<polygon style="fill:midnightblue;stroke:midnightblue;" points="916.137,-30.5596 917,-20 909.74,-27.7166 916.137,-30.5596"/>
</g>
<!-- Node6&#45;&gt;Node5 -->
<g id="edge20" class="edge"><title>Node6&#45;&gt;Node5</title>
<path style="fill:none;stroke:midnightblue;" d="M804,-112C778,-102 740,-88 712,-78"/>
<polygon style="fill:midnightblue;stroke:midnightblue;" points="713.56,-74.8631 703,-74 710.717,-81.2598 713.56,-74.8631"/>
</g>
<!-- Node7 -->
<g id="node14" class="node"><title>Node7</title>
<polygon style="fill:white;stroke:#bfbfbf;" points="749,-0 749,-20 800,-20 800,-0 749,-0"/>
<text text-anchor="middle" x="774" y="-7" style="font-family:Arial;font-size:10.00;">ostream</text>
</g>
<!-- Node6&#45;&gt;Node7 -->
<g id="edge14" class="edge"><title>Node6&#45;&gt;Node7</title>
<path style="fill:none;stroke:midnightblue;" d="M797,-112C780,-105 760,-93 750,-76 741,-60 749,-41 759,-28"/>
<polygon style="fill:midnightblue;stroke:midnightblue;" points="761.8,-30.1 765,-20 756.2,-25.9 761.8,-30.1"/>
</g>
<!-- Node8 -->
<g id="node16" class="node"><title>Node8</title>
<polygon style="fill:white;stroke:#bfbfbf;" points="985,-56 985,-76 1044,-76 1044,-56 985,-56"/>
<text text-anchor="middle" x="1014" y="-63" style="font-family:Arial;font-size:10.00;">stdexcept</text>
</g>
<!-- Node6&#45;&gt;Node8 -->
<g id="edge16" class="edge"><title>Node6&#45;&gt;Node8</title>
<path style="fill:none;stroke:midnightblue;" d="M863,-112C895,-103 942,-88 975,-78"/>
<polygon style="fill:midnightblue;stroke:midnightblue;" points="976.427,-81.2259 985,-75 974.416,-74.5212 976.427,-81.2259"/>
</g>
<!-- Node9 -->
<g id="node20" class="node"><title>Node9</title>
<a xlink:href="printable_8h.html" target="_top" xlink:title="ltr/interfaces/printable.h">
<polygon style="fill:white;stroke:black;" points="759,-56 759,-76 876,-76 876,-56 759,-56"/>
<text text-anchor="middle" x="817" y="-63" style="font-family:Arial;font-size:10.00;">ltr/interfaces/printable.h</text>
</a>
</g>
<!-- Node6&#45;&gt;Node9 -->
<g id="edge22" class="edge"><title>Node6&#45;&gt;Node9</title>
<path style="fill:none;stroke:midnightblue;" d="M828,-112C827,-105 824,-95 822,-86"/>
<polygon style="fill:midnightblue;stroke:midnightblue;" points="825.226,-84.5725 819,-76 818.521,-86.584 825.226,-84.5725"/>
</g>
<!-- Node10 -->
<g id="node24" class="node"><title>Node10</title>
<a xlink:href="shared__ptr_8h.html" target="_top" xlink:title="ltr/utility/shared_ptr.h">
<polygon style="fill:white;stroke:black;" points="1700,-56 1700,-76 1807,-76 1807,-56 1700,-56"/>
<text text-anchor="middle" x="1753" y="-63" style="font-family:Arial;font-size:10.00;">ltr/utility/shared_ptr.h</text>
</a>
</g>
<!-- Node6&#45;&gt;Node10 -->
<g id="edge28" class="edge"><title>Node6&#45;&gt;Node10</title>
<path style="fill:none;stroke:midnightblue;" d="M872,-119C1020,-110 1513,-80 1690,-70"/>
<polygon style="fill:midnightblue;stroke:midnightblue;" points="1690.4,-73.4778 1700,-69 1689.7,-66.5125 1690.4,-73.4778"/>
</g>
<!-- Node9&#45;&gt;Node4 -->
<g id="edge26" class="edge"><title>Node9&#45;&gt;Node4</title>
<path style="fill:none;stroke:midnightblue;" d="M836,-56C852,-47 876,-35 894,-25"/>
<polygon style="fill:midnightblue;stroke:midnightblue;" points="895.958,-27.916 903,-20 892.559,-21.7969 895.958,-27.916"/>
</g>
<!-- Node9&#45;&gt;Node7 -->
<g id="edge24" class="edge"><title>Node9&#45;&gt;Node7</title>
<path style="fill:none;stroke:midnightblue;" d="M809,-56C804,-48 795,-38 788,-28"/>
<polygon style="fill:midnightblue;stroke:midnightblue;" points="790.8,-25.9 782,-20 785.2,-30.1 790.8,-25.9"/>
</g>
<!-- Node11 -->
<g id="node26" class="node"><title>Node11</title>
<polygon style="fill:white;stroke:#bfbfbf;" points="1725,-0 1725,-20 1781,-20 1781,-0 1725,-0"/>
<text text-anchor="middle" x="1753" y="-7" style="font-family:Arial;font-size:10.00;">algorithm</text>
</g>
<!-- Node10&#45;&gt;Node11 -->
<g id="edge30" class="edge"><title>Node10&#45;&gt;Node11</title>
<path style="fill:none;stroke:midnightblue;" d="M1753,-56C1753,-49 1753,-39 1753,-30"/>
<polygon style="fill:midnightblue;stroke:midnightblue;" points="1756.5,-30 1753,-20 1749.5,-30 1756.5,-30"/>
</g>
<!-- Node12 -->
<g id="node28" class="node"><title>Node12</title>
<polygon style="fill:white;stroke:#bfbfbf;" points="1799,-0 1799,-20 1906,-20 1906,-0 1799,-0"/>
<text text-anchor="middle" x="1852" y="-7" style="font-family:Arial;font-size:10.00;">boost/shared_ptr.hpp</text>
</g>
<!-- Node10&#45;&gt;Node12 -->
<g id="edge32" class="edge"><title>Node10&#45;&gt;Node12</title>
<path style="fill:none;stroke:midnightblue;" d="M1771,-56C1786,-48 1808,-35 1825,-25"/>
<polygon style="fill:midnightblue;stroke:midnightblue;" points="1826.96,-27.916 1834,-20 1823.56,-21.7969 1826.96,-27.916"/>
</g>
<!-- Node13 -->
<g id="node30" class="node"><title>Node13</title>
<polygon style="fill:white;stroke:#bfbfbf;" points="1517,-0 1517,-20 1708,-20 1708,-0 1517,-0"/>
<text text-anchor="middle" x="1612" y="-7" style="font-family:Arial;font-size:10.00;">boost/smart_ptr/detail/operator_bool.hpp</text>
</g>
<!-- Node10&#45;&gt;Node13 -->
<g id="edge34" class="edge"><title>Node10&#45;&gt;Node13</title>
<path style="fill:none;stroke:midnightblue;" d="M1728,-56C1705,-47 1672,-34 1647,-24"/>
<polygon style="fill:midnightblue;stroke:midnightblue;" points="1647.58,-20.4643 1637,-20 1644.98,-26.9636 1647.58,-20.4643"/>
</g>
<!-- Node14&#45;&gt;Node6 -->
<g id="edge38" class="edge"><title>Node14&#45;&gt;Node6</title>
<path style="fill:none;stroke:midnightblue;" d="M364,-448C340,-430 296,-391 296,-346 296,-346 296,-346 296,-290 296,-213 347,-201 416,-168 479,-137 681,-127 778,-123"/>
<polygon style="fill:midnightblue;stroke:midnightblue;" points="778,-126.5 788,-123 778,-119.5 778,-126.5"/>
</g>
<!-- Node14&#45;&gt;Node10 -->
<g id="edge196" class="edge"><title>Node14&#45;&gt;Node10</title>
<path style="fill:none;stroke:midnightblue;" d="M515,-456C917,-449 2066,-423 2066,-346 2066,-346 2066,-346 2066,-178 2066,-136 2036,-131 1999,-112 1968,-96 1879,-82 1817,-73"/>
<polygon style="fill:midnightblue;stroke:midnightblue;" points="1817.3,-69.5125 1807,-72 1816.6,-76.4778 1817.3,-69.5125"/>
</g>
<!-- Node15 -->
<g id="node35" class="node"><title>Node15</title>
<a xlink:href="scorer_8h.html" target="_top" xlink:title="ltr/scorers/scorer.h">
<polygon style="fill:white;stroke:black;" points="628,-392 628,-412 725,-412 725,-392 628,-392"/>
<text text-anchor="middle" x="676" y="-399" style="font-family:Arial;font-size:10.00;">ltr/scorers/scorer.h</text>
</a>
</g>
<!-- Node14&#45;&gt;Node15 -->
<g id="edge40" class="edge"><title>Node14&#45;&gt;Node15</title>
<path style="fill:none;stroke:midnightblue;" d="M431,-448C484,-439 564,-423 618,-413"/>
<polygon style="fill:midnightblue;stroke:midnightblue;" points="618.881,-416.393 628,-411 617.508,-409.529 618.881,-416.393"/>
</g>
<!-- Node24 -->
<g id="node79" class="node"><title>Node24</title>
<a xlink:href="parameterized_8h.html" target="_top" xlink:title="ltr/interfaces/parameterized.h">
<polygon style="fill:white;stroke:black;" points="425,-168 425,-188 567,-188 567,-168 425,-168"/>
<text text-anchor="middle" x="496" y="-175" style="font-family:Arial;font-size:10.00;">ltr/interfaces/parameterized.h</text>
</a>
</g>
<!-- Node14&#45;&gt;Node24 -->
<g id="edge198" class="edge"><title>Node14&#45;&gt;Node24</title>
<path style="fill:none;stroke:midnightblue;" d="M377,-448C375,-428 372,-383 372,-346 372,-346 372,-346 372,-290 372,-242 423,-210 460,-192"/>
<polygon style="fill:midnightblue;stroke:midnightblue;" points="461.283,-195.26 469,-188 458.44,-188.863 461.283,-195.26"/>
</g>
<!-- Node25 -->
<g id="node83" class="node"><title>Node25</title>
<a xlink:href="parameters__container_8h.html" target="_top" xlink:title="ltr/parameters_container/parameters_container.h">
<polygon style="fill:white;stroke:black;" points="242,-112 242,-132 467,-132 467,-112 242,-112"/>
<text text-anchor="middle" x="354" y="-119" style="font-family:Arial;font-size:10.00;">ltr/parameters_container/parameters_container.h</text>
</a>
</g>
<!-- Node14&#45;&gt;Node25 -->
<g id="edge202" class="edge"><title>Node14&#45;&gt;Node25</title>
<path style="fill:none;stroke:midnightblue;" d="M341,-448C321,-441 297,-429 282,-412 261,-388 258,-377 258,-346 258,-346 258,-346 258,-234 258,-191 299,-156 327,-138"/>
<polygon style="fill:midnightblue;stroke:midnightblue;" points="329.621,-140.459 336,-132 325.738,-134.635 329.621,-140.459"/>
</g>
<!-- Node31 -->
<g id="node110" class="node"><title>Node31</title>
<a xlink:href="serializable_8h.html" target="_top" xlink:title="ltr/interfaces/serializable.h">
<polygon style="fill:white;stroke:black;" points="1612,-168 1612,-188 1741,-188 1741,-168 1612,-168"/>
<text text-anchor="middle" x="1676" y="-175" style="font-family:Arial;font-size:10.00;">ltr/interfaces/serializable.h</text>
</a>
</g>
<!-- Node14&#45;&gt;Node31 -->
<g id="edge200" class="edge"><title>Node14&#45;&gt;Node31</title>
<path style="fill:none;stroke:midnightblue;" d="M515,-454C858,-442 1725,-406 1725,-346 1725,-346 1725,-346 1725,-290 1725,-254 1705,-218 1690,-196"/>
<polygon style="fill:midnightblue;stroke:midnightblue;" points="1692.8,-193.9 1684,-188 1687.2,-198.1 1692.8,-193.9"/>
</g>
<!-- Node15&#45;&gt;Node4 -->
<g id="edge46" class="edge"><title>Node15&#45;&gt;Node4</title>
<path style="fill:none;stroke:midnightblue;" d="M628,-399C483,-389 63,-351 62,-234 62,-234 62,-234 62,-122 63,16 180,-64 808,-20 836,-17 868,-15 892,-13"/>
<polygon style="fill:midnightblue;stroke:midnightblue;" points="892.398,-16.4778 902,-12 891.701,-9.5125 892.398,-16.4778"/>
</g>
<!-- Node15&#45;&gt;Node5 -->
<g id="edge44" class="edge"><title>Node15&#45;&gt;Node5</title>
<path style="fill:none;stroke:midnightblue;" d="M628,-399C558,-393 434,-379 396,-356 284,-287 145,-208 233,-112 240,-103 549,-77 651,-69"/>
<polygon style="fill:midnightblue;stroke:midnightblue;" points="651.398,-72.4778 661,-68 650.701,-65.5125 651.398,-72.4778"/>
</g>
<!-- Node15&#45;&gt;Node6 -->
<g id="edge52" class="edge"><title>Node15&#45;&gt;Node6</title>
<path style="fill:none;stroke:midnightblue;" d="M682,-392C705,-351 789,-196 819,-141"/>
<polygon style="fill:midnightblue;stroke:midnightblue;" points="822.203,-142.441 824,-132 816.084,-139.042 822.203,-142.441"/>
</g>
<!-- Node15&#45;&gt;Node9 -->
<g id="edge192" class="edge"><title>Node15&#45;&gt;Node9</title>
<path style="fill:none;stroke:midnightblue;" d="M647,-392C564,-362 337,-268 416,-168 436,-141 644,-99 752,-78"/>
<polygon style="fill:midnightblue;stroke:midnightblue;" points="752.881,-81.3933 762,-76 751.508,-74.5292 752.881,-81.3933"/>
</g>
<!-- Node15&#45;&gt;Node10 -->
<g id="edge194" class="edge"><title>Node15&#45;&gt;Node10</title>
<path style="fill:none;stroke:midnightblue;" d="M725,-401C906,-397 1532,-382 1731,-356 1865,-338 2028,-425 2028,-290 2028,-290 2028,-290 2028,-178 2028,-137 2001,-131 1966,-112 1941,-98 1870,-84 1817,-76"/>
<polygon style="fill:midnightblue;stroke:midnightblue;" points="1817.49,-72.5292 1807,-74 1816.12,-79.3933 1817.49,-72.5292"/>
</g>
<!-- Node16 -->
<g id="node37" class="node"><title>Node16</title>
<polygon style="fill:white;stroke:#bfbfbf;" points="1810,-112 1810,-132 1924,-132 1924,-112 1810,-112"/>
<text text-anchor="middle" x="1867" y="-119" style="font-family:Arial;font-size:10.00;">boost/lexical_cast.hpp</text>
</g>
<!-- Node15&#45;&gt;Node16 -->
<g id="edge42" class="edge"><title>Node15&#45;&gt;Node16</title>
<path style="fill:none;stroke:midnightblue;" d="M725,-401C874,-399 1320,-388 1462,-356 1524,-341 1538,-330 1595,-300 1693,-248 1800,-171 1845,-138"/>
<polygon style="fill:midnightblue;stroke:midnightblue;" points="1847.1,-140.8 1853,-132 1842.9,-135.2 1847.1,-140.8"/>
</g>
<!-- Node17 -->
<g id="node41" class="node"><title>Node17</title>
<a xlink:href="aliaser_8h.html" target="_top" xlink:title="ltr/interfaces/aliaser.h">
<polygon style="fill:white;stroke:black;" points="1498,-112 1498,-132 1606,-132 1606,-112 1498,-112"/>
<text text-anchor="middle" x="1552" y="-119" style="font-family:Arial;font-size:10.00;">ltr/interfaces/aliaser.h</text>
</a>
</g>
<!-- Node15&#45;&gt;Node17 -->
<g id="edge48" class="edge"><title>Node15&#45;&gt;Node17</title>
<path style="fill:none;stroke:midnightblue;" d="M725,-401C914,-397 1584,-377 1584,-290 1584,-290 1584,-290 1584,-234 1584,-200 1571,-164 1561,-141"/>
<polygon style="fill:midnightblue;stroke:midnightblue;" points="1564.26,-139.717 1557,-132 1557.86,-142.56 1564.26,-139.717"/>
</g>
<!-- Node18 -->
<g id="node45" class="node"><title>Node18</title>
<a xlink:href="feature__converter_8h.html" target="_top" xlink:title="ltr/feature_converters/feature_converter.h">
<polygon style="fill:white;stroke:black;" points="810,-336 810,-356 1000,-356 1000,-336 810,-336"/>
<text text-anchor="middle" x="905" y="-343" style="font-family:Arial;font-size:10.00;">ltr/feature_converters/feature_converter.h</text>
</a>
</g>
<!-- Node15&#45;&gt;Node18 -->
<g id="edge54" class="edge"><title>Node15&#45;&gt;Node18</title>
<path style="fill:none;stroke:midnightblue;" d="M717,-392C756,-383 813,-368 854,-358"/>
<polygon style="fill:midnightblue;stroke:midnightblue;" points="854.881,-361.393 864,-356 853.508,-354.529 854.881,-361.393"/>
</g>
<!-- Node33 -->
<g id="node121" class="node"><title>Node33</title>
<a xlink:href="serializable__functor_8h.html" target="_top" xlink:title="ltr/interfaces/serializable_functor.h">
<polygon style="fill:white;stroke:black;" points="1791,-224 1791,-244 1954,-244 1954,-224 1791,-224"/>
<text text-anchor="middle" x="1872" y="-231" style="font-family:Arial;font-size:10.00;">ltr/interfaces/serializable_functor.h</text>
</a>
</g>
<!-- Node15&#45;&gt;Node33 -->
<g id="edge176" class="edge"><title>Node15&#45;&gt;Node33</title>
<path style="fill:none;stroke:midnightblue;" d="M725,-401C917,-399 1608,-388 1701,-356 1765,-333 1826,-279 1855,-251"/>
<polygon style="fill:midnightblue;stroke:midnightblue;" points="1857.4,-253.546 1862,-244 1852.45,-248.596 1857.4,-253.546"/>
</g>
<!-- Node17&#45;&gt;Node4 -->
<g id="edge50" class="edge"><title>Node17&#45;&gt;Node4</title>
<path style="fill:none;stroke:midnightblue;" d="M1512,-112C1456,-98 1348,-72 1256,-56 1144,-35 1012,-20 952,-13"/>
<polygon style="fill:midnightblue;stroke:midnightblue;" points="952.299,-9.5125 942,-12 951.602,-16.4778 952.299,-9.5125"/>
</g>
<!-- Node18&#45;&gt;Node4 -->
<g id="edge58" class="edge"><title>Node18&#45;&gt;Node4</title>
<path style="fill:none;stroke:midnightblue;" d="M810,-341C566,-326 -48,-266 151,-56 176,-29 771,-22 808,-20 836,-17 868,-15 892,-13"/>
<polygon style="fill:midnightblue;stroke:midnightblue;" points="892.398,-16.4778 902,-12 891.701,-9.5125 892.398,-16.4778"/>
</g>
<!-- Node18&#45;&gt;Node5 -->
<g id="edge56" class="edge"><title>Node18&#45;&gt;Node5</title>
<path style="fill:none;stroke:midnightblue;" d="M857,-336C782,-319 642,-284 614,-244 577,-191 635,-117 665,-84"/>
<polygon style="fill:midnightblue;stroke:midnightblue;" points="668.049,-85.8306 672,-76 662.781,-81.221 668.049,-85.8306"/>
</g>
<!-- Node18&#45;&gt;Node6 -->
<g id="edge152" class="edge"><title>Node18&#45;&gt;Node6</title>
<path style="fill:none;stroke:midnightblue;" d="M901,-336C891,-311 864,-244 847,-188 842,-173 837,-155 834,-142"/>
<polygon style="fill:midnightblue;stroke:midnightblue;" points="837.393,-141.119 832,-132 830.529,-142.492 837.393,-141.119"/>
</g>
<!-- Node18&#45;&gt;Node8 -->
<g id="edge60" class="edge"><title>Node18&#45;&gt;Node8</title>
<path style="fill:none;stroke:midnightblue;" d="M1000,-341C1132,-332 1356,-307 1356,-234 1356,-234 1356,-234 1356,-178 1356,-115 1145,-82 1054,-70"/>
<polygon style="fill:midnightblue;stroke:midnightblue;" points="1054.3,-66.5125 1044,-69 1053.6,-73.4778 1054.3,-66.5125"/>
</g>
<!-- Node18&#45;&gt;Node10 -->
<g id="edge174" class="edge"><title>Node18&#45;&gt;Node10</title>
<path style="fill:none;stroke:midnightblue;" d="M1000,-342C1081,-337 1200,-325 1302,-300 1379,-280 1470,-314 1470,-234 1470,-234 1470,-234 1470,-178 1470,-147 1466,-132 1489,-112 1518,-86 1621,-74 1690,-70"/>
<polygon style="fill:midnightblue;stroke:midnightblue;" points="1690.4,-73.4778 1700,-69 1689.7,-66.5125 1690.4,-73.4778"/>
</g>
<!-- Node18&#45;&gt;Node17 -->
<g id="edge172" class="edge"><title>Node18&#45;&gt;Node17</title>
<path style="fill:none;stroke:midnightblue;" d="M1000,-344C1155,-340 1446,-328 1484,-300 1534,-262 1548,-180 1551,-142"/>
<polygon style="fill:midnightblue;stroke:midnightblue;" points="1554.49,-142.299 1552,-132 1547.52,-141.602 1554.49,-142.299"/>
</g>
<!-- Node19 -->
<g id="node50" class="node"><title>Node19</title>
<a xlink:href="data__set_8h.html" target="_top" xlink:title="ltr/data/data_set.h">
<polygon style="fill:white;stroke:black;" points="930,-280 930,-300 1025,-300 1025,-280 930,-280"/>
<text text-anchor="middle" x="977" y="-287" style="font-family:Arial;font-size:10.00;">ltr/data/data_set.h</text>
</a>
</g>
<!-- Node18&#45;&gt;Node19 -->
<g id="edge62" class="edge"><title>Node18&#45;&gt;Node19</title>
<path style="fill:none;stroke:midnightblue;" d="M918,-336C929,-328 944,-316 956,-307"/>
<polygon style="fill:midnightblue;stroke:midnightblue;" points="958.779,-309.219 964,-300 954.169,-303.951 958.779,-309.219"/>
</g>
<!-- Node23 -->
<g id="node74" class="node"><title>Node23</title>
<a xlink:href="feature__info_8h.html" target="_top" xlink:title="ltr/data/feature_info.h">
<polygon style="fill:white;stroke:black;" points="623,-224 623,-244 730,-244 730,-224 623,-224"/>
<text text-anchor="middle" x="676" y="-231" style="font-family:Arial;font-size:10.00;">ltr/data/feature_info.h</text>
</a>
</g>
<!-- Node18&#45;&gt;Node23 -->
<g id="edge150" class="edge"><title>Node18&#45;&gt;Node23</title>
<path style="fill:none;stroke:midnightblue;" d="M884,-336C844,-315 753,-271 706,-248"/>
<polygon style="fill:midnightblue;stroke:midnightblue;" points="707.56,-244.863 697,-244 704.717,-251.26 707.56,-244.863"/>
</g>
<!-- Node18&#45;&gt;Node24 -->
<g id="edge156" class="edge"><title>Node18&#45;&gt;Node24</title>
<path style="fill:none;stroke:midnightblue;" d="M810,-341C728,-335 618,-323 581,-300 541,-275 515,-225 504,-197"/>
<polygon style="fill:midnightblue;stroke:midnightblue;" points="507.26,-195.717 500,-188 500.863,-198.56 507.26,-195.717"/>
</g>
<!-- Node30 -->
<g id="node98" class="node"><title>Node30</title>
<a xlink:href="per__object__accessor_8h.html" target="_top" xlink:title="ltr/data/per_object_accessor.h">
<polygon style="fill:white;stroke:black;" points="1043,-224 1043,-244 1190,-244 1190,-224 1043,-224"/>
<text text-anchor="middle" x="1116" y="-231" style="font-family:Arial;font-size:10.00;">ltr/data/per_object_accessor.h</text>
</a>
</g>
<!-- Node18&#45;&gt;Node30 -->
<g id="edge154" class="edge"><title>Node18&#45;&gt;Node30</title>
<path style="fill:none;stroke:midnightblue;" d="M942,-336C968,-328 1004,-316 1033,-300 1058,-286 1082,-265 1098,-251"/>
<polygon style="fill:midnightblue;stroke:midnightblue;" points="1100.78,-253.219 1106,-244 1096.17,-247.951 1100.78,-253.219"/>
</g>
<!-- Node18&#45;&gt;Node31 -->
<g id="edge158" class="edge"><title>Node18&#45;&gt;Node31</title>
<path style="fill:none;stroke:midnightblue;" d="M1000,-342C1161,-335 1474,-318 1522,-300 1580,-277 1634,-224 1660,-196"/>
<polygon style="fill:midnightblue;stroke:midnightblue;" points="1663.05,-197.831 1667,-188 1657.78,-193.221 1663.05,-197.831"/>
</g>
<!-- Node19&#45;&gt;Node4 -->
<g id="edge68" class="edge"><title>Node19&#45;&gt;Node4</title>
<path style="fill:none;stroke:midnightblue;" d="M975,-280C967,-239 937,-86 926,-30"/>
<polygon style="fill:midnightblue;stroke:midnightblue;" points="929.393,-29.1194 924,-20 922.529,-30.4922 929.393,-29.1194"/>
</g>
<!-- Node19&#45;&gt;Node5 -->
<g id="edge70" class="edge"><title>Node19&#45;&gt;Node5</title>
<path style="fill:none;stroke:midnightblue;" d="M947,-280C925,-272 895,-260 872,-244 798,-196 728,-118 697,-84"/>
<polygon style="fill:midnightblue;stroke:midnightblue;" points="699.219,-81.221 690,-76 693.951,-85.8306 699.219,-81.221"/>
</g>
<!-- Node19&#45;&gt;Node6 -->
<g id="edge72" class="edge"><title>Node19&#45;&gt;Node6</title>
<path style="fill:none;stroke:midnightblue;" d="M948,-280C929,-272 906,-260 890,-244 874,-228 850,-172 838,-142"/>
<polygon style="fill:midnightblue;stroke:midnightblue;" points="840.964,-139.985 834,-132 834.464,-142.585 840.964,-139.985"/>
</g>
<!-- Node19&#45;&gt;Node8 -->
<g id="edge66" class="edge"><title>Node19&#45;&gt;Node8</title>
<path style="fill:none;stroke:midnightblue;" d="M1025,-285C1085,-278 1182,-264 1212,-244 1236,-227 1240,-216 1249,-188 1274,-103 1128,-76 1054,-69"/>
<polygon style="fill:midnightblue;stroke:midnightblue;" points="1054.3,-65.5125 1044,-68 1053.6,-72.4778 1054.3,-65.5125"/>
</g>
<!-- Node19&#45;&gt;Node17 -->
<g id="edge148" class="edge"><title>Node19&#45;&gt;Node17</title>
<path style="fill:none;stroke:midnightblue;" d="M1025,-287C1088,-283 1201,-272 1294,-244 1383,-217 1481,-164 1526,-137"/>
<polygon style="fill:midnightblue;stroke:midnightblue;" points="1527.96,-139.916 1535,-132 1524.56,-133.797 1527.96,-139.916"/>
</g>
<!-- Node20 -->
<g id="node52" class="node"><title>Node20</title>
<polygon style="fill:white;stroke:#bfbfbf;" points="899,-224 899,-244 950,-244 950,-224 899,-224"/>
<text text-anchor="middle" x="924" y="-231" style="font-family:Arial;font-size:10.00;">sstream</text>
</g>
<!-- Node19&#45;&gt;Node20 -->
<g id="edge64" class="edge"><title>Node19&#45;&gt;Node20</title>
<path style="fill:none;stroke:midnightblue;" d="M968,-280C960,-272 949,-261 941,-252"/>
<polygon style="fill:midnightblue;stroke:midnightblue;" points="943.219,-249.221 934,-244 937.951,-253.831 943.219,-249.221"/>
</g>
<!-- Node21 -->
<g id="node58" class="node"><title>Node21</title>
<a xlink:href="object__list_8h.html" target="_top" xlink:title="ltr/data/object_list.h">
<polygon style="fill:white;stroke:black;" points="1004,-168 1004,-188 1106,-188 1106,-168 1004,-168"/>
<text text-anchor="middle" x="1055" y="-175" style="font-family:Arial;font-size:10.00;">ltr/data/object_list.h</text>
</a>
</g>
<!-- Node19&#45;&gt;Node21 -->
<g id="edge74" class="edge"><title>Node19&#45;&gt;Node21</title>
<path style="fill:none;stroke:midnightblue;" d="M984,-280C997,-260 1026,-221 1042,-196"/>
<polygon style="fill:midnightblue;stroke:midnightblue;" points="1044.8,-198.1 1048,-188 1039.2,-193.9 1044.8,-198.1"/>
</g>
<!-- Node22 -->
<g id="node66" class="node"><title>Node22</title>
<a xlink:href="object__pair_8h.html" target="_top" xlink:title="ltr/data/object_pair.h">
<polygon style="fill:white;stroke:black;" points="1136,-168 1136,-188 1240,-188 1240,-168 1136,-168"/>
<text text-anchor="middle" x="1188" y="-175" style="font-family:Arial;font-size:10.00;">ltr/data/object_pair.h</text>
</a>
</g>
<!-- Node19&#45;&gt;Node22 -->
<g id="edge88" class="edge"><title>Node19&#45;&gt;Node22</title>
<path style="fill:none;stroke:midnightblue;" d="M1025,-287C1083,-282 1176,-270 1198,-244 1208,-230 1204,-211 1198,-197"/>
<polygon style="fill:midnightblue;stroke:midnightblue;" points="1201.26,-195.717 1194,-188 1194.86,-198.56 1201.26,-195.717"/>
</g>
<!-- Node19&#45;&gt;Node23 -->
<g id="edge102" class="edge"><title>Node19&#45;&gt;Node23</title>
<path style="fill:none;stroke:midnightblue;" d="M930,-281C878,-272 796,-257 739,-246"/>
<polygon style="fill:midnightblue;stroke:midnightblue;" points="739.492,-242.529 729,-244 738.119,-249.393 739.492,-242.529"/>
</g>
<!-- Node19&#45;&gt;Node30 -->
<g id="edge136" class="edge"><title>Node19&#45;&gt;Node30</title>
<path style="fill:none;stroke:midnightblue;" d="M1002,-280C1024,-271 1057,-258 1082,-248"/>
<polygon style="fill:midnightblue;stroke:midnightblue;" points="1083.28,-251.26 1091,-244 1080.44,-244.863 1083.28,-251.26"/>
</g>
<!-- Node21&#45;&gt;Node4 -->
<g id="edge78" class="edge"><title>Node21&#45;&gt;Node4</title>
<path style="fill:none;stroke:midnightblue;" d="M1058,-168C1064,-145 1076,-90 1052,-56 1040,-40 987,-25 952,-16"/>
<polygon style="fill:midnightblue;stroke:midnightblue;" points="952.492,-12.5292 942,-14 951.119,-19.3933 952.492,-12.5292"/>
</g>
<!-- Node21&#45;&gt;Node5 -->
<g id="edge80" class="edge"><title>Node21&#45;&gt;Node5</title>
<path style="fill:none;stroke:midnightblue;" d="M1019,-168C991,-160 951,-147 917,-132 900,-124 898,-118 881,-112 823,-90 753,-76 713,-70"/>
<polygon style="fill:midnightblue;stroke:midnightblue;" points="713.299,-66.5125 703,-69 712.602,-73.4778 713.299,-66.5125"/>
</g>
<!-- Node21&#45;&gt;Node6 -->
<g id="edge82" class="edge"><title>Node21&#45;&gt;Node6</title>
<path style="fill:none;stroke:midnightblue;" d="M1015,-168C977,-159 920,-144 880,-134"/>
<polygon style="fill:midnightblue;stroke:midnightblue;" points="880.492,-130.529 870,-132 879.119,-137.393 880.492,-130.529"/>
</g>
<!-- Node21&#45;&gt;Node8 -->
<g id="edge76" class="edge"><title>Node21&#45;&gt;Node8</title>
<path style="fill:none;stroke:midnightblue;" d="M1051,-168C1044,-149 1030,-110 1022,-86"/>
<polygon style="fill:midnightblue;stroke:midnightblue;" points="1024.96,-83.9849 1018,-76 1018.46,-86.5847 1024.96,-83.9849"/>
</g>
<!-- Node21&#45;&gt;Node9 -->
<g id="edge84" class="edge"><title>Node21&#45;&gt;Node9</title>
<path style="fill:none;stroke:midnightblue;" d="M1033,-168C991,-147 897,-103 848,-80"/>
<polygon style="fill:midnightblue;stroke:midnightblue;" points="849.56,-76.8631 839,-76 846.717,-83.2598 849.56,-76.8631"/>
</g>
<!-- Node21&#45;&gt;Node10 -->
<g id="edge86" class="edge"><title>Node21&#45;&gt;Node10</title>
<path style="fill:none;stroke:midnightblue;" d="M1085,-168C1131,-153 1221,-126 1299,-112 1437,-86 1601,-74 1690,-69"/>
<polygon style="fill:midnightblue;stroke:midnightblue;" points="1690,-72.5001 1700,-69 1690,-65.5001 1690,-72.5001"/>
</g>
<!-- Node22&#45;&gt;Node4 -->
<g id="edge92" class="edge"><title>Node22&#45;&gt;Node4</title>
<path style="fill:none;stroke:midnightblue;" d="M1196,-168C1214,-145 1251,-89 1223,-56 1205,-35 1025,-19 952,-13"/>
<polygon style="fill:midnightblue;stroke:midnightblue;" points="952.299,-9.5125 942,-12 951.602,-16.4778 952.299,-9.5125"/>
</g>
<!-- Node22&#45;&gt;Node5 -->
<g id="edge94" class="edge"><title>Node22&#45;&gt;Node5</title>
<path style="fill:none;stroke:midnightblue;" d="M1149,-168C1096,-154 998,-130 914,-112 842,-96 758,-80 713,-72"/>
<polygon style="fill:midnightblue;stroke:midnightblue;" points="713.492,-68.5292 703,-70 712.119,-75.3933 713.492,-68.5292"/>
</g>
<!-- Node22&#45;&gt;Node6 -->
<g id="edge96" class="edge"><title>Node22&#45;&gt;Node6</title>
<path style="fill:none;stroke:midnightblue;" d="M1136,-170C1068,-160 950,-141 882,-131"/>
<polygon style="fill:midnightblue;stroke:midnightblue;" points="882.492,-127.529 872,-129 881.119,-134.393 882.492,-127.529"/>
</g>
<!-- Node22&#45;&gt;Node8 -->
<g id="edge90" class="edge"><title>Node22&#45;&gt;Node8</title>
<path style="fill:none;stroke:midnightblue;" d="M1177,-168C1161,-154 1131,-129 1104,-112 1085,-100 1064,-89 1046,-81"/>
<polygon style="fill:midnightblue;stroke:midnightblue;" points="1047.44,-77.7969 1037,-76 1044.04,-83.916 1047.44,-77.7969"/>
</g>
<!-- Node22&#45;&gt;Node9 -->
<g id="edge98" class="edge"><title>Node22&#45;&gt;Node9</title>
<path style="fill:none;stroke:midnightblue;" d="M1170,-168C1136,-150 1068,-113 1066,-112 1007,-91 937,-80 886,-73"/>
<polygon style="fill:midnightblue;stroke:midnightblue;" points="886.299,-69.5125 876,-72 885.602,-76.4778 886.299,-69.5125"/>
</g>
<!-- Node22&#45;&gt;Node10 -->
<g id="edge100" class="edge"><title>Node22&#45;&gt;Node10</title>
<path style="fill:none;stroke:midnightblue;" d="M1212,-168C1248,-153 1318,-126 1380,-112 1487,-87 1615,-75 1690,-70"/>
<polygon style="fill:midnightblue;stroke:midnightblue;" points="1690.4,-73.4778 1700,-69 1689.7,-66.5125 1690.4,-73.4778"/>
</g>
<!-- Node23&#45;&gt;Node3 -->
<g id="edge104" class="edge"><title>Node23&#45;&gt;Node3</title>
<path style="fill:none;stroke:midnightblue;" d="M668,-224C645,-196 583,-119 554,-84"/>
<polygon style="fill:midnightblue;stroke:midnightblue;" points="556.219,-81.221 547,-76 550.951,-85.8306 556.219,-81.221"/>
</g>
<!-- Node23&#45;&gt;Node4 -->
<g id="edge106" class="edge"><title>Node23&#45;&gt;Node4</title>
<path style="fill:none;stroke:midnightblue;" d="M673,-224C662,-190 630,-81 652,-56 667,-37 825,-20 892,-13"/>
<polygon style="fill:midnightblue;stroke:midnightblue;" points="892.398,-16.4778 902,-12 891.701,-9.5125 892.398,-16.4778"/>
</g>
<!-- Node23&#45;&gt;Node5 -->
<g id="edge108" class="edge"><title>Node23&#45;&gt;Node5</title>
<path style="fill:none;stroke:midnightblue;" d="M678,-224C680,-214 683,-200 685,-188 688,-153 686,-111 684,-86"/>
<polygon style="fill:midnightblue;stroke:midnightblue;" points="687.478,-85.6021 683,-76 680.512,-86.2987 687.478,-85.6021"/>
</g>
<!-- Node23&#45;&gt;Node10 -->
<g id="edge134" class="edge"><title>Node23&#45;&gt;Node10</title>
<path style="fill:none;stroke:midnightblue;" d="M730,-231C863,-222 1199,-201 1249,-188 1325,-167 1333,-134 1409,-112 1504,-83 1620,-73 1690,-69"/>
<polygon style="fill:midnightblue;stroke:midnightblue;" points="1690.4,-72.4778 1700,-68 1689.7,-65.5125 1690.4,-72.4778"/>
</g>
<!-- Node23&#45;&gt;Node24 -->
<g id="edge110" class="edge"><title>Node23&#45;&gt;Node24</title>
<path style="fill:none;stroke:midnightblue;" d="M644,-224C614,-215 570,-201 538,-191"/>
<polygon style="fill:midnightblue;stroke:midnightblue;" points="538.584,-187.521 528,-188 536.573,-194.226 538.584,-187.521"/>
</g>
<!-- Node24&#45;&gt;Node4 -->
<g id="edge114" class="edge"><title>Node24&#45;&gt;Node4</title>
<path style="fill:none;stroke:midnightblue;" d="M494,-168C489,-144 482,-86 513,-56 520,-49 798,-22 892,-13"/>
<polygon style="fill:midnightblue;stroke:midnightblue;" points="892.398,-16.4778 902,-12 891.701,-9.5125 892.398,-16.4778"/>
</g>
<!-- Node24&#45;&gt;Node8 -->
<g id="edge112" class="edge"><title>Node24&#45;&gt;Node8</title>
<path style="fill:none;stroke:midnightblue;" d="M537,-168C592,-155 692,-130 779,-112 848,-97 929,-81 975,-73"/>
<polygon style="fill:midnightblue;stroke:midnightblue;" points="975.881,-76.3933 985,-71 974.508,-69.5292 975.881,-76.3933"/>
</g>
<!-- Node24&#45;&gt;Node25 -->
<g id="edge116" class="edge"><title>Node24&#45;&gt;Node25</title>
<path style="fill:none;stroke:midnightblue;" d="M471,-168C448,-159 415,-146 390,-136"/>
<polygon style="fill:midnightblue;stroke:midnightblue;" points="390.585,-132.464 380,-132 387.985,-138.964 390.585,-132.464"/>
</g>
<!-- Node25&#45;&gt;Node4 -->
<g id="edge124" class="edge"><title>Node25&#45;&gt;Node4</title>
<path style="fill:none;stroke:midnightblue;" d="M372,-112C404,-94 468,-59 480,-56 499,-49 795,-22 892,-13"/>
<polygon style="fill:midnightblue;stroke:midnightblue;" points="892.398,-16.4778 902,-12 891.701,-9.5125 892.398,-16.4778"/>
</g>
<!-- Node25&#45;&gt;Node8 -->
<g id="edge122" class="edge"><title>Node25&#45;&gt;Node8</title>
<path style="fill:none;stroke:midnightblue;" d="M467,-112C618,-99 877,-78 975,-69"/>
<polygon style="fill:midnightblue;stroke:midnightblue;" points="975.398,-72.4778 985,-68 974.701,-65.5125 975.398,-72.4778"/>
</g>
<!-- Node25&#45;&gt;Node9 -->
<g id="edge132" class="edge"><title>Node25&#45;&gt;Node9</title>
<path style="fill:none;stroke:midnightblue;" d="M437,-112C526,-101 665,-84 749,-74"/>
<polygon style="fill:midnightblue;stroke:midnightblue;" points="749.398,-77.4778 759,-73 748.701,-70.5125 749.398,-77.4778"/>
</g>
<!-- Node25&#45;&gt;Node10 -->
<g id="edge130" class="edge"><title>Node25&#45;&gt;Node10</title>
<path style="fill:none;stroke:midnightblue;" d="M467,-117C749,-106 1472,-77 1690,-68"/>
<polygon style="fill:midnightblue;stroke:midnightblue;" points="1690,-71.5001 1700,-68 1690,-64.5001 1690,-71.5001"/>
</g>
<!-- Node26 -->
<g id="node85" class="node"><title>Node26</title>
<polygon style="fill:white;stroke:#bfbfbf;" points="1140,-56 1140,-76 1214,-76 1214,-56 1140,-56"/>
<text text-anchor="middle" x="1177" y="-63" style="font-family:Arial;font-size:10.00;">logog/logog.h</text>
</g>
<!-- Node25&#45;&gt;Node26 -->
<g id="edge118" class="edge"><title>Node25&#45;&gt;Node26</title>
<path style="fill:none;stroke:midnightblue;" d="M467,-115C605,-106 845,-91 1052,-76 1077,-73 1106,-72 1130,-70"/>
<polygon style="fill:midnightblue;stroke:midnightblue;" points="1130.4,-73.4778 1140,-69 1129.7,-66.5125 1130.4,-73.4778"/>
</g>
<!-- Node27 -->
<g id="node87" class="node"><title>Node27</title>
<polygon style="fill:white;stroke:#bfbfbf;" points="400,-56 400,-76 429,-76 429,-56 400,-56"/>
<text text-anchor="middle" x="414" y="-63" style="font-family:Arial;font-size:10.00;">list</text>
</g>
<!-- Node25&#45;&gt;Node27 -->
<g id="edge120" class="edge"><title>Node25&#45;&gt;Node27</title>
<path style="fill:none;stroke:midnightblue;" d="M365,-112C374,-104 386,-93 396,-83"/>
<polygon style="fill:midnightblue;stroke:midnightblue;" points="398.404,-85.546 403,-76 393.454,-80.5962 398.404,-85.546"/>
</g>
<!-- Node28 -->
<g id="node91" class="node"><title>Node28</title>
<polygon style="fill:white;stroke:#bfbfbf;" points="160,-56 160,-76 237,-76 237,-56 160,-56"/>
<text text-anchor="middle" x="198" y="-63" style="font-family:Arial;font-size:10.00;">boost/any.hpp</text>
</g>
<!-- Node25&#45;&gt;Node28 -->
<g id="edge126" class="edge"><title>Node25&#45;&gt;Node28</title>
<path style="fill:none;stroke:midnightblue;" d="M326,-112C301,-103 263,-89 236,-79"/>
<polygon style="fill:midnightblue;stroke:midnightblue;" points="236.584,-75.5212 226,-76 234.573,-82.2259 236.584,-75.5212"/>
</g>
<!-- Node29 -->
<g id="node93" class="node"><title>Node29</title>
<polygon style="fill:white;stroke:#bfbfbf;" points="254,-56 254,-76 383,-76 383,-56 254,-56"/>
<text text-anchor="middle" x="318" y="-63" style="font-family:Arial;font-size:10.00;">boost/unordered_map.hpp</text>
</g>
<!-- Node25&#45;&gt;Node29 -->
<g id="edge128" class="edge"><title>Node25&#45;&gt;Node29</title>
<path style="fill:none;stroke:midnightblue;" d="M348,-112C343,-105 336,-94 330,-85"/>
<polygon style="fill:midnightblue;stroke:midnightblue;" points="332.916,-83.0418 325,-76 326.797,-86.4414 332.916,-83.0418"/>
</g>
<!-- Node30&#45;&gt;Node6 -->
<g id="edge138" class="edge"><title>Node30&#45;&gt;Node6</title>
<path style="fill:none;stroke:midnightblue;" d="M1089,-224C1065,-214 1027,-200 995,-188 950,-170 898,-149 865,-136"/>
<polygon style="fill:midnightblue;stroke:midnightblue;" points="865.585,-132.464 855,-132 862.985,-138.964 865.585,-132.464"/>
</g>
<!-- Node30&#45;&gt;Node10 -->
<g id="edge146" class="edge"><title>Node30&#45;&gt;Node10</title>
<path style="fill:none;stroke:midnightblue;" d="M1190,-224C1233,-217 1286,-206 1332,-188 1392,-164 1395,-134 1456,-112 1497,-96 1616,-81 1690,-72"/>
<polygon style="fill:midnightblue;stroke:midnightblue;" points="1690.4,-75.4778 1700,-71 1689.7,-68.5125 1690.4,-75.4778"/>
</g>
<!-- Node30&#45;&gt;Node21 -->
<g id="edge142" class="edge"><title>Node30&#45;&gt;Node21</title>
<path style="fill:none;stroke:midnightblue;" d="M1105,-224C1096,-216 1084,-205 1073,-195"/>
<polygon style="fill:midnightblue;stroke:midnightblue;" points="1075.55,-192.596 1066,-188 1070.6,-197.546 1075.55,-192.596"/>
</g>
<!-- Node30&#45;&gt;Node22 -->
<g id="edge140" class="edge"><title>Node30&#45;&gt;Node22</title>
<path style="fill:none;stroke:midnightblue;" d="M1129,-224C1140,-216 1155,-204 1167,-195"/>
<polygon style="fill:midnightblue;stroke:midnightblue;" points="1169.78,-197.219 1175,-188 1165.17,-191.951 1169.78,-197.219"/>
</g>
<!-- Node30&#45;&gt;Node24 -->
<g id="edge144" class="edge"><title>Node30&#45;&gt;Node24</title>
<path style="fill:none;stroke:midnightblue;" d="M1043,-227C926,-217 699,-196 577,-185"/>
<polygon style="fill:midnightblue;stroke:midnightblue;" points="577.299,-181.512 567,-184 576.602,-188.478 577.299,-181.512"/>
</g>
<!-- Node31&#45;&gt;Node4 -->
<g id="edge164" class="edge"><title>Node31&#45;&gt;Node4</title>
<path style="fill:none;stroke:midnightblue;" d="M1674,-168C1670,-153 1660,-125 1642,-112 1528,-29 1074,-13 952,-10"/>
<polygon style="fill:midnightblue;stroke:midnightblue;" points="952,-6.5001 942,-10 952,-13.5001 952,-6.5001"/>
</g>
<!-- Node31&#45;&gt;Node10 -->
<g id="edge168" class="edge"><title>Node31&#45;&gt;Node10</title>
<path style="fill:none;stroke:midnightblue;" d="M1714,-168C1732,-161 1752,-150 1763,-132 1771,-118 1767,-99 1762,-85"/>
<polygon style="fill:midnightblue;stroke:midnightblue;" points="1765.26,-83.7166 1758,-76 1758.86,-86.5596 1765.26,-83.7166"/>
</g>
<!-- Node31&#45;&gt;Node16 -->
<g id="edge160" class="edge"><title>Node31&#45;&gt;Node16</title>
<path style="fill:none;stroke:midnightblue;" d="M1710,-168C1742,-159 1789,-145 1823,-135"/>
<polygon style="fill:midnightblue;stroke:midnightblue;" points="1824.43,-138.226 1833,-132 1822.42,-131.521 1824.43,-138.226"/>
</g>
<!-- Node31&#45;&gt;Node17 -->
<g id="edge170" class="edge"><title>Node31&#45;&gt;Node17</title>
<path style="fill:none;stroke:midnightblue;" d="M1654,-168C1634,-159 1606,-146 1583,-136"/>
<polygon style="fill:midnightblue;stroke:midnightblue;" points="1584.56,-132.863 1574,-132 1581.72,-139.26 1584.56,-132.863"/>
</g>
<!-- Node31&#45;&gt;Node26 -->
<g id="edge162" class="edge"><title>Node31&#45;&gt;Node26</title>
<path style="fill:none;stroke:midnightblue;" d="M1670,-168C1660,-153 1640,-124 1615,-112 1547,-78 1323,-69 1224,-67"/>
<polygon style="fill:midnightblue;stroke:midnightblue;" points="1224,-63.5001 1214,-67 1224,-70.5001 1224,-63.5001"/>
</g>
<!-- Node32 -->
<g id="node115" class="node"><title>Node32</title>
<polygon style="fill:white;stroke:#bfbfbf;" points="1700,-112 1700,-132 1754,-132 1754,-112 1700,-112"/>
<text text-anchor="middle" x="1727" y="-119" style="font-family:Arial;font-size:10.00;">iostream</text>
</g>
<!-- Node31&#45;&gt;Node32 -->
<g id="edge166" class="edge"><title>Node31&#45;&gt;Node32</title>
<path style="fill:none;stroke:midnightblue;" d="M1685,-168C1692,-160 1702,-149 1711,-139"/>
<polygon style="fill:midnightblue;stroke:midnightblue;" points="1713.4,-141.546 1718,-132 1708.45,-136.596 1713.4,-141.546"/>
</g>
<!-- Node33&#45;&gt;Node10 -->
<g id="edge178" class="edge"><title>Node33&#45;&gt;Node10</title>
<path style="fill:none;stroke:midnightblue;" d="M1892,-224C1906,-216 1924,-204 1935,-188 1953,-159 1969,-138 1948,-112 1932,-91 1868,-80 1817,-72"/>
<polygon style="fill:midnightblue;stroke:midnightblue;" points="1817.3,-68.5125 1807,-71 1816.6,-75.4778 1817.3,-68.5125"/>
</g>
<!-- Node33&#45;&gt;Node31 -->
<g id="edge190" class="edge"><title>Node33&#45;&gt;Node31</title>
<path style="fill:none;stroke:midnightblue;" d="M1837,-224C1805,-215 1756,-201 1721,-191"/>
<polygon style="fill:midnightblue;stroke:midnightblue;" points="1721.58,-187.521 1711,-188 1719.57,-194.226 1721.58,-187.521"/>
</g>
<!-- Node34 -->
<g id="node124" class="node"><title>Node34</title>
<a xlink:href="functor_8h.html" target="_top" xlink:title="ltr/interfaces/functor.h">
<polygon style="fill:white;stroke:black;" points="1818,-168 1818,-188 1927,-188 1927,-168 1818,-168"/>
<text text-anchor="middle" x="1872" y="-175" style="font-family:Arial;font-size:10.00;">ltr/interfaces/functor.h</text>
</a>
</g>
<!-- Node33&#45;&gt;Node34 -->
<g id="edge180" class="edge"><title>Node33&#45;&gt;Node34</title>
<path style="fill:none;stroke:midnightblue;" d="M1872,-224C1872,-217 1872,-207 1872,-198"/>
<polygon style="fill:midnightblue;stroke:midnightblue;" points="1875.5,-198 1872,-188 1868.5,-198 1875.5,-198"/>
</g>
<!-- Node34&#45;&gt;Node4 -->
<g id="edge186" class="edge"><title>Node34&#45;&gt;Node4</title>
<path style="fill:none;stroke:midnightblue;" d="M1900,-168C1927,-156 1963,-136 1948,-112 1912,-58 1877,-70 1815,-56 1646,-17 1089,-11 952,-10"/>
<polygon style="fill:midnightblue;stroke:midnightblue;" points="952,-6.5001 942,-10 952,-13.5001 952,-6.5001"/>
</g>
<!-- Node34&#45;&gt;Node6 -->
<g id="edge188" class="edge"><title>Node34&#45;&gt;Node6</title>
<path style="fill:none;stroke:midnightblue;" d="M1818,-173C1796,-171 1771,-169 1749,-168 1418,-147 1022,-130 882,-124"/>
<polygon style="fill:midnightblue;stroke:midnightblue;" points="882,-120.5 872,-124 882,-127.5 882,-120.5"/>
</g>
<!-- Node34&#45;&gt;Node10 -->
<g id="edge182" class="edge"><title>Node34&#45;&gt;Node10</title>
<path style="fill:none;stroke:midnightblue;" d="M1893,-168C1916,-155 1949,-133 1933,-112 1918,-93 1863,-81 1817,-74"/>
<polygon style="fill:midnightblue;stroke:midnightblue;" points="1817.49,-70.5292 1807,-72 1816.12,-77.3933 1817.49,-70.5292"/>
</g>
<!-- Node34&#45;&gt;Node16 -->
<g id="edge184" class="edge"><title>Node34&#45;&gt;Node16</title>
<path style="fill:none;stroke:midnightblue;" d="M1871,-168C1870,-161 1870,-151 1869,-142"/>
<polygon style="fill:midnightblue;stroke:midnightblue;" points="1872.48,-141.602 1868,-132 1865.51,-142.299 1872.48,-141.602"/>
</g>
</g>
</svg>
