<?xml version="1.0" encoding="UTF-8" standalone="no"?>
<!DOCTYPE svg PUBLIC "-//W3C//DTD SVG 1.0//EN"
 "http://www.w3.org/TR/2001/REC-SVG-20010904/DTD/svg10.dtd" [
 <!ATTLIST svg xmlns:xlink CDATA #FIXED "http://www.w3.org/1999/xlink">
]>
<!-- Generated by Graphviz version 2.20.2 (Tue Mar &#160;2 19:03:41 UTC 2010)
     For user: (jenkins)  -->
<!-- Title: G Pages: 1 -->
<svg width="642pt" height="84pt"
 viewBox="0.00 0.00 642.00 84.00" xmlns="http://www.w3.org/2000/svg" xmlns:xlink="http://www.w3.org/1999/xlink">
<g id="graph0" class="graph" transform="scale(1 1) rotate(0) translate(4 80)">
<title>G</title>
<polygon style="fill:white;stroke:white;" points="-4,4 -4,-80 638,-80 638,4 -4,4"/>
<!-- Node1 -->
<g id="node1" class="node"><title>Node1</title>
<polygon style="fill:#bfbfbf;stroke:black;" points="90,-56 90,-76 292,-76 292,-56 90,-56"/>
<text text-anchor="middle" x="191" y="-63" style="font-family:Arial;font-size:10.00;">ltr/density_estimators/fisher_discriminant.h</text>
</g>
<!-- Node2 -->
<g id="node3" class="node"><title>Node2</title>
<polygon style="fill:white;stroke:#bfbfbf;" points="0,-0 0,-20 72,-20 72,-0 0,-0"/>
<text text-anchor="middle" x="36" y="-7" style="font-family:Arial;font-size:10.00;">Eigen/Dense</text>
</g>
<!-- Node1&#45;&gt;Node2 -->
<g id="edge2" class="edge"><title>Node1&#45;&gt;Node2</title>
<path style="fill:none;stroke:midnightblue;" d="M163,-56C138,-47 101,-33 74,-23"/>
<polygon style="fill:midnightblue;stroke:midnightblue;" points="74.584,-19.5212 64,-20 72.5725,-26.2259 74.584,-19.5212"/>
</g>
<!-- Node3 -->
<g id="node5" class="node"><title>Node3</title>
<polygon style="fill:white;stroke:#bfbfbf;" points="90,-0 90,-20 125,-20 125,-0 90,-0"/>
<text text-anchor="middle" x="107" y="-7" style="font-family:Arial;font-size:10.00;">map</text>
</g>
<!-- Node1&#45;&gt;Node3 -->
<g id="edge4" class="edge"><title>Node1&#45;&gt;Node3</title>
<path style="fill:none;stroke:midnightblue;" d="M176,-56C164,-48 146,-35 131,-26"/>
<polygon style="fill:midnightblue;stroke:midnightblue;" points="132.262,-22.6349 122,-20 128.379,-28.4592 132.262,-22.6349"/>
</g>
<!-- Node4 -->
<g id="node7" class="node"><title>Node4</title>
<polygon style="fill:white;stroke:#bfbfbf;" points="142,-0 142,-20 182,-20 182,-0 142,-0"/>
<text text-anchor="middle" x="162" y="-7" style="font-family:Arial;font-size:10.00;">string</text>
</g>
<!-- Node1&#45;&gt;Node4 -->
<g id="edge6" class="edge"><title>Node1&#45;&gt;Node4</title>
<path style="fill:none;stroke:midnightblue;" d="M186,-56C182,-49 176,-38 171,-29"/>
<polygon style="fill:midnightblue;stroke:midnightblue;" points="174.26,-27.7166 167,-20 167.863,-30.5596 174.26,-27.7166"/>
</g>
<!-- Node5 -->
<g id="node9" class="node"><title>Node5</title>
<polygon style="fill:white;stroke:#bfbfbf;" points="200,-0 200,-20 242,-20 242,-0 200,-0"/>
<text text-anchor="middle" x="221" y="-7" style="font-family:Arial;font-size:10.00;">vector</text>
</g>
<!-- Node1&#45;&gt;Node5 -->
<g id="edge8" class="edge"><title>Node1&#45;&gt;Node5</title>
<path style="fill:none;stroke:midnightblue;" d="M196,-56C200,-49 206,-38 211,-29"/>
<polygon style="fill:midnightblue;stroke:midnightblue;" points="214.137,-30.5596 215,-20 207.74,-27.7166 214.137,-30.5596"/>
</g>
<!-- Node6 -->
<g id="node11" class="node"><title>Node6</title>
<polygon style="fill:white;stroke:#bfbfbf;" points="260,-0 260,-20 344,-20 344,-0 260,-0"/>
<text text-anchor="middle" x="302" y="-7" style="font-family:Arial;font-size:10.00;">ltr/data/object.h</text>
</g>
<!-- Node1&#45;&gt;Node6 -->
<g id="edge10" class="edge"><title>Node1&#45;&gt;Node6</title>
<path style="fill:none;stroke:midnightblue;" d="M211,-56C228,-47 253,-34 273,-25"/>
<polygon style="fill:midnightblue;stroke:midnightblue;" points="274.958,-27.916 282,-20 271.559,-21.7969 274.958,-27.916"/>
</g>
<!-- Node7 -->
<g id="node13" class="node"><title>Node7</title>
<polygon style="fill:white;stroke:#bfbfbf;" points="362,-0 362,-20 635,-20 635,-0 362,-0"/>
<text text-anchor="middle" x="498" y="-7" style="font-family:Arial;font-size:10.00;">ltr/density_estimators/base_probability_density_estimator.h</text>
</g>
<!-- Node1&#45;&gt;Node7 -->
<g id="edge12" class="edge"><title>Node1&#45;&gt;Node7</title>
<path style="fill:none;stroke:midnightblue;" d="M246,-56C299,-47 378,-32 433,-22"/>
<polygon style="fill:midnightblue;stroke:midnightblue;" points="433.881,-25.3933 443,-20 432.508,-18.5292 433.881,-25.3933"/>
</g>
</g>
</svg>
