<?xml version="1.0" encoding="UTF-8" standalone="no"?>
<!DOCTYPE svg PUBLIC "-//W3C//DTD SVG 1.0//EN"
 "http://www.w3.org/TR/2001/REC-SVG-20010904/DTD/svg10.dtd" [
 <!ATTLIST svg xmlns:xlink CDATA #FIXED "http://www.w3.org/1999/xlink">
]>
<!-- Generated by Graphviz version 2.20.2 (Tue Mar &#160;2 19:03:41 UTC 2010)
     For user: (jenkins)  -->
<!-- Title: G Pages: 1 -->
<svg width="2062pt" height="196pt"
 viewBox="0.00 0.00 2062.00 196.00" xmlns="http://www.w3.org/2000/svg" xmlns:xlink="http://www.w3.org/1999/xlink">
<g id="graph0" class="graph" transform="scale(1 1) rotate(0) translate(4 192)">
<title>G</title>
<polygon style="fill:white;stroke:white;" points="-4,4 -4,-192 2058,-192 2058,4 -4,4"/>
<!-- Node1 -->
<g id="node1" class="node"><title>Node1</title>
<polygon style="fill:#bfbfbf;stroke:black;" points="762,-168 762,-188 1035,-188 1035,-168 762,-168"/>
<text text-anchor="middle" x="898" y="-175" style="font-family:Arial;font-size:10.00;">ltr/density_estimators/fisher_discriminant_density_learner.h</text>
</g>
<!-- Node2 -->
<g id="node3" class="node"><title>Node2</title>
<polygon style="fill:white;stroke:#bfbfbf;" points="133,-0 133,-20 205,-20 205,-0 133,-0"/>
<text text-anchor="middle" x="169" y="-7" style="font-family:Arial;font-size:10.00;">Eigen/Dense</text>
</g>
<!-- Node1&#45;&gt;Node2 -->
<g id="edge2" class="edge"><title>Node1&#45;&gt;Node2</title>
<path style="fill:none;stroke:midnightblue;" d="M762,-174C549,-167 155,-152 93,-132 49,-117 27,-116 4,-76 0,-68 -1,-63 4,-56 19,-37 79,-23 123,-16"/>
<polygon style="fill:midnightblue;stroke:midnightblue;" points="123.398,-19.4778 133,-15 122.701,-12.5125 123.398,-19.4778"/>
</g>
<!-- Node3 -->
<g id="node5" class="node"><title>Node3</title>
<polygon style="fill:white;stroke:#bfbfbf;" points="447,-56 447,-76 482,-76 482,-56 447,-56"/>
<text text-anchor="middle" x="464" y="-63" style="font-family:Arial;font-size:10.00;">map</text>
</g>
<!-- Node1&#45;&gt;Node3 -->
<g id="edge4" class="edge"><title>Node1&#45;&gt;Node3</title>
<path style="fill:none;stroke:midnightblue;" d="M844,-168C800,-159 735,-146 679,-132 597,-110 577,-101 495,-76 494,-75 493,-75 491,-75"/>
<polygon style="fill:midnightblue;stroke:midnightblue;" points="492.56,-71.8631 482,-71 489.717,-78.2598 492.56,-71.8631"/>
</g>
<!-- Node4 -->
<g id="node7" class="node"><title>Node4</title>
<polygon style="fill:white;stroke:#bfbfbf;" points="113,-112 113,-132 172,-132 172,-112 113,-112"/>
<text text-anchor="middle" x="142" y="-119" style="font-family:Arial;font-size:10.00;">stdexcept</text>
</g>
<!-- Node1&#45;&gt;Node4 -->
<g id="edge6" class="edge"><title>Node1&#45;&gt;Node4</title>
<path style="fill:none;stroke:midnightblue;" d="M762,-172C591,-164 304,-150 182,-132"/>
<polygon style="fill:midnightblue;stroke:midnightblue;" points="182.492,-128.529 172,-130 181.119,-135.393 182.492,-128.529"/>
</g>
<!-- Node5 -->
<g id="node9" class="node"><title>Node5</title>
<polygon style="fill:white;stroke:#bfbfbf;" points="490,-0 490,-20 532,-20 532,-0 490,-0"/>
<text text-anchor="middle" x="511" y="-7" style="font-family:Arial;font-size:10.00;">vector</text>
</g>
<!-- Node1&#45;&gt;Node5 -->
<g id="edge8" class="edge"><title>Node1&#45;&gt;Node5</title>
<path style="fill:none;stroke:midnightblue;" d="M770,-168C648,-155 477,-129 438,-76 423,-54 455,-34 481,-22"/>
<polygon style="fill:midnightblue;stroke:midnightblue;" points="482.283,-25.2598 490,-18 479.44,-18.8631 482.283,-25.2598"/>
</g>
<!-- Node6 -->
<g id="node11" class="node"><title>Node6</title>
<polygon style="fill:white;stroke:#bfbfbf;" points="119,-56 119,-76 392,-76 392,-56 119,-56"/>
<text text-anchor="middle" x="255" y="-63" style="font-family:Arial;font-size:10.00;">ltr/density_estimators/base_probability_density_estimator.h</text>
</g>
<!-- Node1&#45;&gt;Node6 -->
<g id="edge10" class="edge"><title>Node1&#45;&gt;Node6</title>
<path style="fill:none;stroke:midnightblue;" d="M762,-175C541,-169 127,-155 104,-132 79,-104 119,-87 164,-78"/>
<polygon style="fill:midnightblue;stroke:midnightblue;" points="164.881,-81.3933 174,-76 163.508,-74.5292 164.881,-81.3933"/>
</g>
<!-- Node7 -->
<g id="node13" class="node"><title>Node7</title>
<a xlink:href="fisher__discriminant_8h.html" target="_top" xlink:title="ltr/density_estimators/fisher_discriminant.h">
<polygon style="fill:white;stroke:black;" points="189,-112 189,-132 391,-132 391,-112 189,-112"/>
<text text-anchor="middle" x="290" y="-119" style="font-family:Arial;font-size:10.00;">ltr/density_estimators/fisher_discriminant.h</text>
</a>
</g>
<!-- Node1&#45;&gt;Node7 -->
<g id="edge12" class="edge"><title>Node1&#45;&gt;Node7</title>
<path style="fill:none;stroke:midnightblue;" d="M789,-168C679,-158 512,-143 401,-132"/>
<polygon style="fill:midnightblue;stroke:midnightblue;" points="401.299,-128.512 391,-131 400.602,-135.478 401.299,-128.512"/>
</g>
<!-- Node9 -->
<g id="node20" class="node"><title>Node9</title>
<polygon style="fill:white;stroke:#bfbfbf;" points="739,-0 739,-20 823,-20 823,-0 739,-0"/>
<text text-anchor="middle" x="781" y="-7" style="font-family:Arial;font-size:10.00;">ltr/data/object.h</text>
</g>
<!-- Node1&#45;&gt;Node9 -->
<g id="edge70" class="edge"><title>Node1&#45;&gt;Node9</title>
<path style="fill:none;stroke:midnightblue;" d="M919,-168C941,-156 970,-135 959,-112 935,-63 876,-36 833,-23"/>
<polygon style="fill:midnightblue;stroke:midnightblue;" points="833.584,-19.5212 823,-20 831.573,-26.2259 833.584,-19.5212"/>
</g>
<!-- Node10 -->
<g id="node23" class="node"><title>Node10</title>
<a xlink:href="base__probability__density__learner_8h.html" target="_top" xlink:title="ltr/density_estimators/base_probability_density_learner.h">
<polygon style="fill:white;stroke:black;" points="688,-112 688,-132 950,-132 950,-112 688,-112"/>
<text text-anchor="middle" x="819" y="-119" style="font-family:Arial;font-size:10.00;">ltr/density_estimators/base_probability_density_learner.h</text>
</a>
</g>
<!-- Node1&#45;&gt;Node10 -->
<g id="edge26" class="edge"><title>Node1&#45;&gt;Node10</title>
<path style="fill:none;stroke:midnightblue;" d="M884,-168C872,-160 855,-147 841,-138"/>
<polygon style="fill:midnightblue;stroke:midnightblue;" points="843.1,-135.2 833,-132 838.9,-140.8 843.1,-135.2"/>
</g>
<!-- Node18 -->
<g id="node46" class="node"><title>Node18</title>
<polygon style="fill:white;stroke:#bfbfbf;" points="1709,-56 1709,-76 1804,-76 1804,-56 1709,-56"/>
<text text-anchor="middle" x="1756" y="-63" style="font-family:Arial;font-size:10.00;">ltr/data/data_set.h</text>
</g>
<!-- Node1&#45;&gt;Node18 -->
<g id="edge68" class="edge"><title>Node1&#45;&gt;Node18</title>
<path style="fill:none;stroke:midnightblue;" d="M1035,-170C1147,-162 1297,-149 1355,-132 1373,-126 1374,-117 1393,-112 1521,-72 1562,-95 1699,-76"/>
<polygon style="fill:midnightblue;stroke:midnightblue;" points="1699.4,-79.4778 1709,-75 1698.7,-72.5125 1699.4,-79.4778"/>
</g>
<!-- Node20 -->
<g id="node56" class="node"><title>Node20</title>
<polygon style="fill:white;stroke:#bfbfbf;" points="1176,-112 1176,-132 1347,-132 1347,-112 1176,-112"/>
<text text-anchor="middle" x="1261" y="-119" style="font-family:Arial;font-size:10.00;">ltr/data/utility/data_set_converters.h</text>
</g>
<!-- Node1&#45;&gt;Node20 -->
<g id="edge72" class="edge"><title>Node1&#45;&gt;Node20</title>
<path style="fill:none;stroke:midnightblue;" d="M963,-168C1026,-158 1120,-144 1186,-134"/>
<polygon style="fill:midnightblue;stroke:midnightblue;" points="1186.88,-137.393 1196,-132 1185.51,-130.529 1186.88,-137.393"/>
</g>
<!-- Node21 -->
<g id="node58" class="node"><title>Node21</title>
<a xlink:href="statistics__calculation_8h.html" target="_top" xlink:title="ltr/utility/statistics_calculation.h">
<polygon style="fill:white;stroke:black;" points="1006,-112 1006,-132 1159,-132 1159,-112 1006,-112"/>
<text text-anchor="middle" x="1082" y="-119" style="font-family:Arial;font-size:10.00;">ltr/utility/statistics_calculation.h</text>
</a>
</g>
<!-- Node1&#45;&gt;Node21 -->
<g id="edge74" class="edge"><title>Node1&#45;&gt;Node21</title>
<path style="fill:none;stroke:midnightblue;" d="M931,-168C961,-159 1006,-145 1039,-135"/>
<polygon style="fill:midnightblue;stroke:midnightblue;" points="1040.43,-138.226 1049,-132 1038.42,-131.521 1040.43,-138.226"/>
</g>
<!-- Node24 -->
<g id="node68" class="node"><title>Node24</title>
<polygon style="fill:white;stroke:#bfbfbf;" points="1402,-112 1402,-132 1604,-132 1604,-112 1402,-112"/>
<text text-anchor="middle" x="1503" y="-119" style="font-family:Arial;font-size:10.00;">ltr/density_estimators/fisher_discriminant.h</text>
</g>
<!-- Node1&#45;&gt;Node24 -->
<g id="edge88" class="edge"><title>Node1&#45;&gt;Node24</title>
<path style="fill:none;stroke:midnightblue;" d="M1006,-168C1115,-158 1282,-143 1392,-132"/>
<polygon style="fill:midnightblue;stroke:midnightblue;" points="1392.4,-135.478 1402,-131 1391.7,-128.512 1392.4,-135.478"/>
</g>
<!-- Node25 -->
<g id="node70" class="node"><title>Node25</title>
<polygon style="fill:white;stroke:#bfbfbf;" points="1622,-112 1622,-132 1884,-132 1884,-112 1622,-112"/>
<text text-anchor="middle" x="1753" y="-119" style="font-family:Arial;font-size:10.00;">ltr/density_estimators/base_probability_density_learner.h</text>
</g>
<!-- Node1&#45;&gt;Node25 -->
<g id="edge90" class="edge"><title>Node1&#45;&gt;Node25</title>
<path style="fill:none;stroke:midnightblue;" d="M1035,-169C1177,-160 1405,-145 1612,-132"/>
<polygon style="fill:midnightblue;stroke:midnightblue;" points="1612.4,-135.478 1622,-131 1611.7,-128.512 1612.4,-135.478"/>
</g>
<!-- Node26 -->
<g id="node72" class="node"><title>Node26</title>
<polygon style="fill:white;stroke:#bfbfbf;" points="1902,-112 1902,-132 2055,-132 2055,-112 1902,-112"/>
<text text-anchor="middle" x="1978" y="-119" style="font-family:Arial;font-size:10.00;">ltr/utility/statistics_calculation.h</text>
</g>
<!-- Node1&#45;&gt;Node26 -->
<g id="edge92" class="edge"><title>Node1&#45;&gt;Node26</title>
<path style="fill:none;stroke:midnightblue;" d="M1035,-175C1225,-169 1579,-157 1892,-132"/>
<polygon style="fill:midnightblue;stroke:midnightblue;" points="1892.4,-135.478 1902,-131 1891.7,-128.512 1892.4,-135.478"/>
</g>
<!-- Node7&#45;&gt;Node2 -->
<g id="edge14" class="edge"><title>Node7&#45;&gt;Node2</title>
<path style="fill:none;stroke:midnightblue;" d="M195,-112C120,-103 26,-90 14,-76 -19,-36 66,-20 123,-14"/>
<polygon style="fill:midnightblue;stroke:midnightblue;" points="123.398,-17.4778 133,-13 122.701,-10.5125 123.398,-17.4778"/>
</g>
<!-- Node7&#45;&gt;Node3 -->
<g id="edge16" class="edge"><title>Node7&#45;&gt;Node3</title>
<path style="fill:none;stroke:midnightblue;" d="M321,-112C354,-101 406,-85 437,-75"/>
<polygon style="fill:midnightblue;stroke:midnightblue;" points="438.427,-78.2259 447,-72 436.416,-71.5212 438.427,-78.2259"/>
</g>
<!-- Node7&#45;&gt;Node5 -->
<g id="edge20" class="edge"><title>Node7&#45;&gt;Node5</title>
<path style="fill:none;stroke:midnightblue;" d="M215,-112C172,-104 124,-93 110,-76 105,-68 105,-62 110,-56 135,-28 390,-15 480,-11"/>
<polygon style="fill:midnightblue;stroke:midnightblue;" points="480,-14.5001 490,-11 480,-7.5001 480,-14.5001"/>
</g>
<!-- Node7&#45;&gt;Node6 -->
<g id="edge24" class="edge"><title>Node7&#45;&gt;Node6</title>
<path style="fill:none;stroke:midnightblue;" d="M284,-112C279,-105 273,-94 267,-85"/>
<polygon style="fill:midnightblue;stroke:midnightblue;" points="269.916,-83.0418 262,-76 263.797,-86.4414 269.916,-83.0418"/>
</g>
<!-- Node8 -->
<g id="node17" class="node"><title>Node8</title>
<polygon style="fill:white;stroke:#bfbfbf;" points="23,-56 23,-76 63,-76 63,-56 23,-56"/>
<text text-anchor="middle" x="43" y="-63" style="font-family:Arial;font-size:10.00;">string</text>
</g>
<!-- Node7&#45;&gt;Node8 -->
<g id="edge18" class="edge"><title>Node7&#45;&gt;Node8</title>
<path style="fill:none;stroke:midnightblue;" d="M240,-112C197,-103 132,-90 77,-76 76,-76 74,-75 73,-75"/>
<polygon style="fill:midnightblue;stroke:midnightblue;" points="73.584,-71.5212 63,-72 71.5725,-78.2259 73.584,-71.5212"/>
</g>
<!-- Node7&#45;&gt;Node9 -->
<g id="edge22" class="edge"><title>Node7&#45;&gt;Node9</title>
<path style="fill:none;stroke:midnightblue;" d="M391,-115C489,-108 629,-94 680,-76 696,-70 734,-44 759,-26"/>
<polygon style="fill:midnightblue;stroke:midnightblue;" points="761.1,-28.8 767,-20 756.9,-23.2 761.1,-28.8"/>
</g>
<!-- Node10&#45;&gt;Node2 -->
<g id="edge30" class="edge"><title>Node10&#45;&gt;Node2</title>
<path style="fill:none;stroke:midnightblue;" d="M700,-112C646,-105 583,-94 528,-76 510,-69 509,-61 490,-56 395,-25 278,-15 215,-12"/>
<polygon style="fill:midnightblue;stroke:midnightblue;" points="215.299,-8.5125 205,-11 214.602,-15.4778 215.299,-8.5125"/>
</g>
<!-- Node10&#45;&gt;Node3 -->
<g id="edge28" class="edge"><title>Node10&#45;&gt;Node3</title>
<path style="fill:none;stroke:midnightblue;" d="M718,-112C654,-105 569,-93 495,-76 494,-76 493,-75 492,-75"/>
<polygon style="fill:midnightblue;stroke:midnightblue;" points="492.584,-71.5212 482,-72 490.573,-78.2259 492.584,-71.5212"/>
</g>
<!-- Node10&#45;&gt;Node6 -->
<g id="edge66" class="edge"><title>Node10&#45;&gt;Node6</title>
<path style="fill:none;stroke:midnightblue;" d="M718,-112C619,-102 468,-87 365,-77"/>
<polygon style="fill:midnightblue;stroke:midnightblue;" points="365.299,-73.5125 355,-76 364.602,-80.4778 365.299,-73.5125"/>
</g>
<!-- Node10&#45;&gt;Node9 -->
<g id="edge58" class="edge"><title>Node10&#45;&gt;Node9</title>
<path style="fill:none;stroke:midnightblue;" d="M836,-112C856,-99 883,-77 870,-56 861,-41 846,-31 830,-24"/>
<polygon style="fill:midnightblue;stroke:midnightblue;" points="831.56,-20.8631 821,-20 828.717,-27.2598 831.56,-20.8631"/>
</g>
<!-- Node11 -->
<g id="node27" class="node"><title>Node11</title>
<a xlink:href="eigen__converters_8h.html" target="_top" xlink:title="ltr/utility/eigen_converters.h">
<polygon style="fill:white;stroke:black;" points="537,-56 537,-76 672,-76 672,-56 537,-56"/>
<text text-anchor="middle" x="604" y="-63" style="font-family:Arial;font-size:10.00;">ltr/utility/eigen_converters.h</text>
</a>
</g>
<!-- Node10&#45;&gt;Node11 -->
<g id="edge32" class="edge"><title>Node10&#45;&gt;Node11</title>
<path style="fill:none;stroke:midnightblue;" d="M781,-112C745,-103 692,-89 653,-79"/>
<polygon style="fill:midnightblue;stroke:midnightblue;" points="653.584,-75.5212 643,-76 651.573,-82.2259 653.584,-75.5212"/>
</g>
<!-- Node12 -->
<g id="node32" class="node"><title>Node12</title>
<polygon style="fill:white;stroke:#bfbfbf;" points="1083,-0 1083,-20 1190,-20 1190,-0 1083,-0"/>
<text text-anchor="middle" x="1136" y="-7" style="font-family:Arial;font-size:10.00;">ltr/utility/shared_ptr.h</text>
</g>
<!-- Node10&#45;&gt;Node12 -->
<g id="edge40" class="edge"><title>Node10&#45;&gt;Node12</title>
<path style="fill:none;stroke:midnightblue;" d="M847,-112C904,-91 1033,-46 1097,-23"/>
<polygon style="fill:midnightblue;stroke:midnightblue;" points="1098.43,-26.2259 1107,-20 1096.42,-19.5212 1098.43,-26.2259"/>
</g>
<!-- Node13 -->
<g id="node34" class="node"><title>Node13</title>
<a xlink:href="base__probability__density__estimator_8h.html" target="_top" xlink:title="ltr/density_estimators/base_probability_density_estimator.h">
<polygon style="fill:white;stroke:black;" points="1107,-56 1107,-76 1380,-76 1380,-56 1107,-56"/>
<text text-anchor="middle" x="1243" y="-63" style="font-family:Arial;font-size:10.00;">ltr/density_estimators/base_probability_density_estimator.h</text>
</a>
</g>
<!-- Node10&#45;&gt;Node13 -->
<g id="edge42" class="edge"><title>Node10&#45;&gt;Node13</title>
<path style="fill:none;stroke:midnightblue;" d="M895,-112C969,-102 1081,-87 1158,-77"/>
<polygon style="fill:midnightblue;stroke:midnightblue;" points="1158.4,-80.4778 1168,-76 1157.7,-73.5125 1158.4,-80.4778"/>
</g>
<!-- Node15 -->
<g id="node40" class="node"><title>Node15</title>
<polygon style="fill:white;stroke:#bfbfbf;" points="1467,-0 1467,-20 1609,-20 1609,-0 1467,-0"/>
<text text-anchor="middle" x="1538" y="-7" style="font-family:Arial;font-size:10.00;">ltr/interfaces/parameterized.h</text>
</g>
<!-- Node10&#45;&gt;Node15 -->
<g id="edge62" class="edge"><title>Node10&#45;&gt;Node15</title>
<path style="fill:none;stroke:midnightblue;" d="M950,-114C1105,-104 1347,-87 1388,-76 1406,-70 1408,-64 1426,-56 1450,-44 1479,-32 1502,-24"/>
<polygon style="fill:midnightblue;stroke:midnightblue;" points="1503.28,-27.2598 1511,-20 1500.44,-20.8631 1503.28,-27.2598"/>
</g>
<!-- Node17 -->
<g id="node44" class="node"><title>Node17</title>
<polygon style="fill:white;stroke:#bfbfbf;" points="841,-0 841,-20 1066,-20 1066,-0 841,-0"/>
<text text-anchor="middle" x="953" y="-7" style="font-family:Arial;font-size:10.00;">ltr/parameters_container/parameters_container.h</text>
</g>
<!-- Node10&#45;&gt;Node17 -->
<g id="edge60" class="edge"><title>Node10&#45;&gt;Node17</title>
<path style="fill:none;stroke:midnightblue;" d="M835,-112C848,-103 868,-89 885,-76 903,-61 922,-42 936,-28"/>
<polygon style="fill:midnightblue;stroke:midnightblue;" points="939.049,-29.8306 943,-20 933.781,-25.221 939.049,-29.8306"/>
</g>
<!-- Node10&#45;&gt;Node18 -->
<g id="edge56" class="edge"><title>Node10&#45;&gt;Node18</title>
<path style="fill:none;stroke:midnightblue;" d="M950,-114C966,-114 982,-113 997,-112 1306,-95 1387,-111 1699,-76"/>
<polygon style="fill:midnightblue;stroke:midnightblue;" points="1699.4,-79.4778 1709,-75 1698.7,-72.5125 1699.4,-79.4778"/>
</g>
<!-- Node19 -->
<g id="node51" class="node"><title>Node19</title>
<polygon style="fill:white;stroke:#bfbfbf;" points="727,-56 727,-76 862,-76 862,-56 727,-56"/>
<text text-anchor="middle" x="794" y="-63" style="font-family:Arial;font-size:10.00;">ltr/utility/eigen_converters.h</text>
</g>
<!-- Node10&#45;&gt;Node19 -->
<g id="edge64" class="edge"><title>Node10&#45;&gt;Node19</title>
<path style="fill:none;stroke:midnightblue;" d="M815,-112C811,-105 807,-95 803,-85"/>
<polygon style="fill:midnightblue;stroke:midnightblue;" points="806.26,-83.7166 799,-76 799.863,-86.5596 806.26,-83.7166"/>
</g>
<!-- Node11&#45;&gt;Node2 -->
<g id="edge34" class="edge"><title>Node11&#45;&gt;Node2</title>
<path style="fill:none;stroke:midnightblue;" d="M537,-57C448,-46 293,-26 215,-16"/>
<polygon style="fill:midnightblue;stroke:midnightblue;" points="215.299,-12.5125 205,-15 214.602,-19.4778 215.299,-12.5125"/>
</g>
<!-- Node11&#45;&gt;Node5 -->
<g id="edge36" class="edge"><title>Node11&#45;&gt;Node5</title>
<path style="fill:none;stroke:midnightblue;" d="M587,-56C574,-48 553,-35 537,-25"/>
<polygon style="fill:midnightblue;stroke:midnightblue;" points="538.441,-21.7969 528,-20 535.042,-27.916 538.441,-21.7969"/>
</g>
<!-- Node11&#45;&gt;Node9 -->
<g id="edge38" class="edge"><title>Node11&#45;&gt;Node9</title>
<path style="fill:none;stroke:midnightblue;" d="M636,-56C665,-47 708,-33 739,-23"/>
<polygon style="fill:midnightblue;stroke:midnightblue;" points="740.427,-26.2259 749,-20 738.416,-19.5212 740.427,-26.2259"/>
</g>
<!-- Node13&#45;&gt;Node9 -->
<g id="edge44" class="edge"><title>Node13&#45;&gt;Node9</title>
<path style="fill:none;stroke:midnightblue;" d="M1134,-56C1054,-48 941,-36 833,-20"/>
<polygon style="fill:midnightblue;stroke:midnightblue;" points="833.492,-16.5292 823,-18 832.119,-23.3933 833.492,-16.5292"/>
</g>
<!-- Node13&#45;&gt;Node12 -->
<g id="edge48" class="edge"><title>Node13&#45;&gt;Node12</title>
<path style="fill:none;stroke:midnightblue;" d="M1224,-56C1208,-47 1183,-34 1164,-25"/>
<polygon style="fill:midnightblue;stroke:midnightblue;" points="1165.44,-21.7969 1155,-20 1162.04,-27.916 1165.44,-21.7969"/>
</g>
<!-- Node14 -->
<g id="node37" class="node"><title>Node14</title>
<polygon style="fill:white;stroke:#bfbfbf;" points="1207,-0 1207,-20 1304,-20 1304,-0 1207,-0"/>
<text text-anchor="middle" x="1255" y="-7" style="font-family:Arial;font-size:10.00;">ltr/scorers/scorer.h</text>
</g>
<!-- Node13&#45;&gt;Node14 -->
<g id="edge46" class="edge"><title>Node13&#45;&gt;Node14</title>
<path style="fill:none;stroke:midnightblue;" d="M1245,-56C1247,-49 1249,-39 1251,-30"/>
<polygon style="fill:midnightblue;stroke:midnightblue;" points="1254.47,-30.4922 1253,-20 1247.61,-29.1194 1254.47,-30.4922"/>
</g>
<!-- Node13&#45;&gt;Node15 -->
<g id="edge50" class="edge"><title>Node13&#45;&gt;Node15</title>
<path style="fill:none;stroke:midnightblue;" d="M1296,-56C1347,-47 1422,-32 1475,-22"/>
<polygon style="fill:midnightblue;stroke:midnightblue;" points="1475.88,-25.3933 1485,-20 1474.51,-18.5292 1475.88,-25.3933"/>
</g>
<!-- Node16 -->
<g id="node42" class="node"><title>Node16</title>
<polygon style="fill:white;stroke:#bfbfbf;" points="1321,-0 1321,-20 1450,-20 1450,-0 1321,-0"/>
<text text-anchor="middle" x="1385" y="-7" style="font-family:Arial;font-size:10.00;">ltr/interfaces/serializable.h</text>
</g>
<!-- Node13&#45;&gt;Node16 -->
<g id="edge52" class="edge"><title>Node13&#45;&gt;Node16</title>
<path style="fill:none;stroke:midnightblue;" d="M1268,-56C1291,-47 1324,-34 1349,-24"/>
<polygon style="fill:midnightblue;stroke:midnightblue;" points="1351.02,-26.9636 1359,-20 1348.42,-20.4643 1351.02,-26.9636"/>
</g>
<!-- Node13&#45;&gt;Node17 -->
<g id="edge54" class="edge"><title>Node13&#45;&gt;Node17</title>
<path style="fill:none;stroke:midnightblue;" d="M1191,-56C1142,-47 1068,-32 1015,-22"/>
<polygon style="fill:midnightblue;stroke:midnightblue;" points="1015.49,-18.5292 1005,-20 1014.12,-25.3933 1015.49,-18.5292"/>
</g>
<!-- Node21&#45;&gt;Node3 -->
<g id="edge76" class="edge"><title>Node21&#45;&gt;Node3</title>
<path style="fill:none;stroke:midnightblue;" d="M1006,-116C857,-103 540,-77 528,-76 517,-74 504,-72 492,-71"/>
<polygon style="fill:midnightblue;stroke:midnightblue;" points="492.492,-67.5292 482,-69 491.119,-74.3933 492.492,-67.5292"/>
</g>
<!-- Node21&#45;&gt;Node5 -->
<g id="edge78" class="edge"><title>Node21&#45;&gt;Node5</title>
<path style="fill:none;stroke:midnightblue;" d="M1055,-112C1015,-97 938,-71 870,-56 750,-30 605,-16 542,-12"/>
<polygon style="fill:midnightblue;stroke:midnightblue;" points="542.299,-8.5125 532,-11 541.602,-15.4778 542.299,-8.5125"/>
</g>
<!-- Node21&#45;&gt;Node9 -->
<g id="edge82" class="edge"><title>Node21&#45;&gt;Node9</title>
<path style="fill:none;stroke:midnightblue;" d="M1075,-112C1064,-97 1042,-69 1017,-56 946,-17 916,-35 833,-20"/>
<polygon style="fill:midnightblue;stroke:midnightblue;" points="833.492,-16.5292 823,-18 832.119,-23.3933 833.492,-16.5292"/>
</g>
<!-- Node21&#45;&gt;Node18 -->
<g id="edge80" class="edge"><title>Node21&#45;&gt;Node18</title>
<path style="fill:none;stroke:midnightblue;" d="M1159,-113C1162,-112 1164,-112 1167,-112 1400,-90 1462,-104 1699,-76"/>
<polygon style="fill:midnightblue;stroke:midnightblue;" points="1699.4,-79.4778 1709,-75 1698.7,-72.5125 1699.4,-79.4778"/>
</g>
<!-- Node22 -->
<g id="node64" class="node"><title>Node22</title>
<polygon style="fill:white;stroke:#bfbfbf;" points="1435,-56 1435,-76 1528,-76 1528,-56 1435,-56"/>
<text text-anchor="middle" x="1481" y="-63" style="font-family:Arial;font-size:10.00;">ltr/utility/indices.h</text>
</g>
<!-- Node21&#45;&gt;Node22 -->
<g id="edge84" class="edge"><title>Node21&#45;&gt;Node22</title>
<path style="fill:none;stroke:midnightblue;" d="M1159,-112C1228,-103 1331,-89 1421,-76 1422,-76 1424,-75 1425,-75"/>
<polygon style="fill:midnightblue;stroke:midnightblue;" points="1425.88,-78.3933 1435,-73 1424.51,-71.5292 1425.88,-78.3933"/>
</g>
<!-- Node23 -->
<g id="node66" class="node"><title>Node23</title>
<polygon style="fill:white;stroke:#bfbfbf;" points="1545,-56 1545,-76 1692,-76 1692,-56 1545,-56"/>
<text text-anchor="middle" x="1618" y="-63" style="font-family:Arial;font-size:10.00;">ltr/data/per_object_accessor.h</text>
</g>
<!-- Node21&#45;&gt;Node23 -->
<g id="edge86" class="edge"><title>Node21&#45;&gt;Node23</title>
<path style="fill:none;stroke:midnightblue;" d="M1159,-113C1162,-113 1164,-112 1167,-112 1327,-94 1370,-93 1535,-76"/>
<polygon style="fill:midnightblue;stroke:midnightblue;" points="1535.4,-79.4778 1545,-75 1534.7,-72.5125 1535.4,-79.4778"/>
</g>
</g>
</svg>
