<?xml version="1.0" encoding="UTF-8" standalone="no"?>
<!DOCTYPE svg PUBLIC "-//W3C//DTD SVG 1.0//EN"
 "http://www.w3.org/TR/2001/REC-SVG-20010904/DTD/svg10.dtd" [
 <!ATTLIST svg xmlns:xlink CDATA #FIXED "http://www.w3.org/1999/xlink">
]>
<!-- Generated by Graphviz version 2.20.2 (Tue Mar &#160;2 19:03:41 UTC 2010)
     For user: (jenkins)  -->
<!-- Title: G Pages: 1 -->
<svg width="1234pt" height="140pt"
 viewBox="0.00 0.00 1234.00 140.00" xmlns="http://www.w3.org/2000/svg" xmlns:xlink="http://www.w3.org/1999/xlink">
<g id="graph0" class="graph" transform="scale(1 1) rotate(0) translate(4 136)">
<title>G</title>
<polygon style="fill:white;stroke:white;" points="-4,4 -4,-136 1230,-136 1230,4 -4,4"/>
<!-- Node1 -->
<g id="node1" class="node"><title>Node1</title>
<polygon style="fill:#bfbfbf;stroke:black;" points="282,-112 282,-132 511,-132 511,-112 282,-112"/>
<text text-anchor="middle" x="396" y="-119" style="font-family:Arial;font-size:10.00;">ltr/serialization_test/generator/generator_utility.cc</text>
</g>
<!-- Node2 -->
<g id="node3" class="node"><title>Node2</title>
<polygon style="fill:white;stroke:#bfbfbf;" points="0,-56 0,-76 114,-76 114,-56 0,-56"/>
<text text-anchor="middle" x="57" y="-63" style="font-family:Arial;font-size:10.00;">boost/lexical_cast.hpp</text>
</g>
<!-- Node1&#45;&gt;Node2 -->
<g id="edge2" class="edge"><title>Node1&#45;&gt;Node2</title>
<path style="fill:none;stroke:midnightblue;" d="M335,-112C276,-103 186,-88 124,-77"/>
<polygon style="fill:midnightblue;stroke:midnightblue;" points="124.492,-73.5292 114,-75 123.119,-80.3933 124.492,-73.5292"/>
</g>
<!-- Node3 -->
<g id="node5" class="node"><title>Node3</title>
<polygon style="fill:white;stroke:#bfbfbf;" points="387,-0 387,-20 427,-20 427,-0 387,-0"/>
<text text-anchor="middle" x="407" y="-7" style="font-family:Arial;font-size:10.00;">string</text>
</g>
<!-- Node1&#45;&gt;Node3 -->
<g id="edge4" class="edge"><title>Node1&#45;&gt;Node3</title>
<path style="fill:none;stroke:midnightblue;" d="M282,-113C230,-107 177,-95 161,-76 156,-69 156,-62 161,-56 188,-23 318,-14 377,-11"/>
<polygon style="fill:midnightblue;stroke:midnightblue;" points="377,-14.5001 387,-11 377,-7.5001 377,-14.5001"/>
</g>
<!-- Node4 -->
<g id="node7" class="node"><title>Node4</title>
<polygon style="fill:white;stroke:#bfbfbf;" points="170,-56 170,-76 224,-76 224,-56 170,-56"/>
<text text-anchor="middle" x="197" y="-63" style="font-family:Arial;font-size:10.00;">iostream</text>
</g>
<!-- Node1&#45;&gt;Node4 -->
<g id="edge6" class="edge"><title>Node1&#45;&gt;Node4</title>
<path style="fill:none;stroke:midnightblue;" d="M360,-112C324,-102 270,-87 234,-77"/>
<polygon style="fill:midnightblue;stroke:midnightblue;" points="234.584,-73.5212 224,-74 232.573,-80.2259 234.584,-73.5212"/>
</g>
<!-- Node5 -->
<g id="node9" class="node"><title>Node5</title>
<polygon style="fill:white;stroke:#bfbfbf;" points="242,-56 242,-76 284,-76 284,-56 242,-56"/>
<text text-anchor="middle" x="263" y="-63" style="font-family:Arial;font-size:10.00;">vector</text>
</g>
<!-- Node1&#45;&gt;Node5 -->
<g id="edge8" class="edge"><title>Node1&#45;&gt;Node5</title>
<path style="fill:none;stroke:midnightblue;" d="M372,-112C350,-103 317,-89 293,-79"/>
<polygon style="fill:midnightblue;stroke:midnightblue;" points="294.56,-75.8631 284,-75 291.717,-82.2598 294.56,-75.8631"/>
</g>
<!-- Node6 -->
<g id="node11" class="node"><title>Node6</title>
<polygon style="fill:white;stroke:#bfbfbf;" points="302,-56 302,-76 350,-76 350,-56 302,-56"/>
<text text-anchor="middle" x="326" y="-63" style="font-family:Arial;font-size:10.00;">fstream</text>
</g>
<!-- Node1&#45;&gt;Node6 -->
<g id="edge10" class="edge"><title>Node1&#45;&gt;Node6</title>
<path style="fill:none;stroke:midnightblue;" d="M383,-112C373,-104 358,-93 347,-83"/>
<polygon style="fill:midnightblue;stroke:midnightblue;" points="348.831,-79.9511 339,-76 344.221,-85.2191 348.831,-79.9511"/>
</g>
<!-- Node7 -->
<g id="node13" class="node"><title>Node7</title>
<polygon style="fill:white;stroke:#bfbfbf;" points="368,-56 368,-76 424,-76 424,-56 368,-56"/>
<text text-anchor="middle" x="396" y="-63" style="font-family:Arial;font-size:10.00;">algorithm</text>
</g>
<!-- Node1&#45;&gt;Node7 -->
<g id="edge12" class="edge"><title>Node1&#45;&gt;Node7</title>
<path style="fill:none;stroke:midnightblue;" d="M396,-112C396,-105 396,-95 396,-86"/>
<polygon style="fill:midnightblue;stroke:midnightblue;" points="399.5,-86 396,-76 392.5,-86 399.5,-86"/>
</g>
<!-- Node8 -->
<g id="node15" class="node"><title>Node8</title>
<polygon style="fill:white;stroke:#bfbfbf;" points="442,-56 442,-76 666,-76 666,-56 442,-56"/>
<text text-anchor="middle" x="554" y="-63" style="font-family:Arial;font-size:10.00;">ltr/serialization_test/generator/generator_utility.h</text>
</g>
<!-- Node1&#45;&gt;Node8 -->
<g id="edge14" class="edge"><title>Node1&#45;&gt;Node8</title>
<path style="fill:none;stroke:midnightblue;" d="M424,-112C450,-103 488,-89 516,-79"/>
<polygon style="fill:midnightblue;stroke:midnightblue;" points="517.427,-82.2259 526,-76 515.416,-75.5212 517.427,-82.2259"/>
</g>
<!-- Node9 -->
<g id="node17" class="node"><title>Node9</title>
<a xlink:href="config_8h.html" target="_top" xlink:title="ltr/serialization_test/generator/config.h">
<polygon style="fill:white;stroke:black;" points="684,-56 684,-76 865,-76 865,-56 684,-56"/>
<text text-anchor="middle" x="774" y="-63" style="font-family:Arial;font-size:10.00;">ltr/serialization_test/generator/config.h</text>
</a>
</g>
<!-- Node1&#45;&gt;Node9 -->
<g id="edge16" class="edge"><title>Node1&#45;&gt;Node9</title>
<path style="fill:none;stroke:midnightblue;" d="M464,-112C529,-102 628,-87 697,-77"/>
<polygon style="fill:midnightblue;stroke:midnightblue;" points="697.398,-80.4778 707,-76 696.701,-73.5125 697.398,-80.4778"/>
</g>
<!-- Node11 -->
<g id="node22" class="node"><title>Node11</title>
<polygon style="fill:white;stroke:#bfbfbf;" points="882,-56 882,-76 979,-76 979,-56 882,-56"/>
<text text-anchor="middle" x="930" y="-63" style="font-family:Arial;font-size:10.00;">ltr/scorers/scorer.h</text>
</g>
<!-- Node1&#45;&gt;Node11 -->
<g id="edge22" class="edge"><title>Node1&#45;&gt;Node11</title>
<path style="fill:none;stroke:midnightblue;" d="M511,-113C606,-105 742,-93 872,-76"/>
<polygon style="fill:midnightblue;stroke:midnightblue;" points="872.398,-79.4778 882,-75 871.701,-72.5125 872.398,-79.4778"/>
</g>
<!-- Node12 -->
<g id="node24" class="node"><title>Node12</title>
<polygon style="fill:white;stroke:#bfbfbf;" points="996,-56 996,-76 1091,-76 1091,-56 996,-56"/>
<text text-anchor="middle" x="1043" y="-63" style="font-family:Arial;font-size:10.00;">ltr/data/data_set.h</text>
</g>
<!-- Node1&#45;&gt;Node12 -->
<g id="edge24" class="edge"><title>Node1&#45;&gt;Node12</title>
<path style="fill:none;stroke:midnightblue;" d="M511,-116C628,-110 815,-97 986,-76"/>
<polygon style="fill:midnightblue;stroke:midnightblue;" points="986.398,-79.4778 996,-75 985.701,-72.5125 986.398,-79.4778"/>
</g>
<!-- Node13 -->
<g id="node26" class="node"><title>Node13</title>
<polygon style="fill:white;stroke:#bfbfbf;" points="1108,-56 1108,-76 1227,-76 1227,-56 1108,-56"/>
<text text-anchor="middle" x="1167" y="-63" style="font-family:Arial;font-size:10.00;">ltr/data/utility/io_utility.h</text>
</g>
<!-- Node1&#45;&gt;Node13 -->
<g id="edge26" class="edge"><title>Node1&#45;&gt;Node13</title>
<path style="fill:none;stroke:midnightblue;" d="M511,-117C648,-111 884,-98 1098,-76"/>
<polygon style="fill:midnightblue;stroke:midnightblue;" points="1098.4,-79.4778 1108,-75 1097.7,-72.5125 1098.4,-79.4778"/>
</g>
<!-- Node9&#45;&gt;Node3 -->
<g id="edge20" class="edge"><title>Node9&#45;&gt;Node3</title>
<path style="fill:none;stroke:midnightblue;" d="M708,-56C629,-44 497,-24 437,-15"/>
<polygon style="fill:midnightblue;stroke:midnightblue;" points="437.492,-11.5292 427,-13 436.119,-18.3933 437.492,-11.5292"/>
</g>
<!-- Node10 -->
<g id="node19" class="node"><title>Node10</title>
<polygon style="fill:white;stroke:#bfbfbf;" points="710,-0 710,-20 838,-20 838,-0 710,-0"/>
<text text-anchor="middle" x="774" y="-7" style="font-family:Arial;font-size:10.00;">boost/filesystem/path.hpp</text>
</g>
<!-- Node9&#45;&gt;Node10 -->
<g id="edge18" class="edge"><title>Node9&#45;&gt;Node10</title>
<path style="fill:none;stroke:midnightblue;" d="M774,-56C774,-49 774,-39 774,-30"/>
<polygon style="fill:midnightblue;stroke:midnightblue;" points="777.5,-30 774,-20 770.5,-30 777.5,-30"/>
</g>
</g>
</svg>
