<?xml version="1.0" encoding="UTF-8" standalone="no"?>
<!DOCTYPE svg PUBLIC "-//W3C//DTD SVG 1.0//EN"
 "http://www.w3.org/TR/2001/REC-SVG-20010904/DTD/svg10.dtd" [
 <!ATTLIST svg xmlns:xlink CDATA #FIXED "http://www.w3.org/1999/xlink">
]>
<!-- Generated by Graphviz version 2.20.2 (Tue Mar &#160;2 19:03:41 UTC 2010)
     For user: (jenkins)  -->
<!-- Title: G Pages: 1 -->
<svg width="454pt" height="84pt"
 viewBox="0.00 0.00 454.00 84.00" xmlns="http://www.w3.org/2000/svg" xmlns:xlink="http://www.w3.org/1999/xlink">
<g id="graph0" class="graph" transform="scale(1 1) rotate(0) translate(4 80)">
<title>G</title>
<polygon style="fill:white;stroke:white;" points="-4,4 -4,-80 450,-80 450,4 -4,4"/>
<!-- Node1 -->
<g id="node1" class="node"><title>Node1</title>
<polygon style="fill:#bfbfbf;stroke:black;" points="104,-56 104,-76 328,-76 328,-56 104,-56"/>
<text text-anchor="middle" x="216" y="-63" style="font-family:Arial;font-size:10.00;">ltr/serialization_test/generator/generator_utility.h</text>
</g>
<!-- Node2 -->
<g id="node3" class="node"><title>Node2</title>
<a xlink:href="generator_8cc.html" target="_top" xlink:title="ltr/serialization_test/generator/generator.cc">
<polygon style="fill:white;stroke:black;" points="0,-0 0,-20 201,-20 201,-0 0,-0"/>
<text text-anchor="middle" x="100" y="-7" style="font-family:Arial;font-size:10.00;">ltr/serialization_test/generator/generator.cc</text>
</a>
</g>
<!-- Node1&#45;&gt;Node2 -->
<g id="edge2" class="edge"><title>Node1&#45;&gt;Node2</title>
<path style="fill:none;stroke:midnightblue;" d="M186,-52C165,-42 139,-29 121,-20"/>
<polygon style="fill:midnightblue;stroke:midnightblue;" points="184.44,-55.1369 195,-56 187.283,-48.7402 184.44,-55.1369"/>
</g>
<!-- Node3 -->
<g id="node5" class="node"><title>Node3</title>
<a xlink:href="generator__utility_8cc.html" target="_top" xlink:title="ltr/serialization_test/generator/generator_utility.cc">
<polygon style="fill:white;stroke:black;" points="218,-0 218,-20 447,-20 447,-0 218,-0"/>
<text text-anchor="middle" x="332" y="-7" style="font-family:Arial;font-size:10.00;">ltr/serialization_test/generator/generator_utility.cc</text>
</a>
</g>
<!-- Node1&#45;&gt;Node3 -->
<g id="edge4" class="edge"><title>Node1&#45;&gt;Node3</title>
<path style="fill:none;stroke:midnightblue;" d="M246,-52C267,-42 293,-29 311,-20"/>
<polygon style="fill:midnightblue;stroke:midnightblue;" points="244.717,-48.7402 237,-56 247.56,-55.1369 244.717,-48.7402"/>
</g>
</g>
</svg>
