<?xml version="1.0" encoding="UTF-8" standalone="no"?>
<!DOCTYPE svg PUBLIC "-//W3C//DTD SVG 1.0//EN"
 "http://www.w3.org/TR/2001/REC-SVG-20010904/DTD/svg10.dtd" [
 <!ATTLIST svg xmlns:xlink CDATA #FIXED "http://www.w3.org/1999/xlink">
]>
<!-- Generated by Graphviz version 2.20.2 (Tue Mar &#160;2 19:03:41 UTC 2010)
     For user: (jenkins)  -->
<!-- Title: G Pages: 1 -->
<svg width="5778pt" height="140pt"
 viewBox="0.00 0.00 5778.00 140.00" xmlns="http://www.w3.org/2000/svg" xmlns:xlink="http://www.w3.org/1999/xlink">
<g id="graph0" class="graph" transform="scale(1 1) rotate(0) translate(4 136)">
<title>G</title>
<polygon style="fill:white;stroke:white;" points="-4,4 -4,-136 5774,-136 5774,4 -4,4"/>
<!-- Node1 -->
<g id="node1" class="node"><title>Node1</title>
<polygon style="fill:#bfbfbf;stroke:black;" points="2798,-112 2798,-132 2999,-132 2999,-112 2798,-112"/>
<text text-anchor="middle" x="2898" y="-119" style="font-family:Arial;font-size:10.00;">ltr/serialization_test/generator/generator.cc</text>
</g>
<!-- Node2 -->
<g id="node3" class="node"><title>Node2</title>
<polygon style="fill:white;stroke:#bfbfbf;" points="0,-56 0,-76 114,-76 114,-56 0,-56"/>
<text text-anchor="middle" x="57" y="-63" style="font-family:Arial;font-size:10.00;">boost/lexical_cast.hpp</text>
</g>
<!-- Node1&#45;&gt;Node2 -->
<g id="edge2" class="edge"><title>Node1&#45;&gt;Node2</title>
<path style="fill:none;stroke:midnightblue;" d="M2798,-121C2337,-117 436,-98 124,-76"/>
<polygon style="fill:midnightblue;stroke:midnightblue;" points="124.299,-72.5125 114,-75 123.602,-79.4778 124.299,-72.5125"/>
</g>
<!-- Node3 -->
<g id="node5" class="node"><title>Node3</title>
<a xlink:href="generator__utility_8h.html" target="_top" xlink:title="ltr/serialization_test/generator/generator_utility.h">
<polygon style="fill:white;stroke:black;" points="132,-56 132,-76 356,-76 356,-56 132,-56"/>
<text text-anchor="middle" x="244" y="-63" style="font-family:Arial;font-size:10.00;">ltr/serialization_test/generator/generator_utility.h</text>
</a>
</g>
<!-- Node1&#45;&gt;Node3 -->
<g id="edge4" class="edge"><title>Node1&#45;&gt;Node3</title>
<path style="fill:none;stroke:midnightblue;" d="M2798,-121C2393,-117 872,-100 366,-76"/>
<polygon style="fill:midnightblue;stroke:midnightblue;" points="366.299,-72.5125 356,-75 365.602,-79.4778 366.299,-72.5125"/>
</g>
<!-- Node7 -->
<g id="node13" class="node"><title>Node7</title>
<polygon style="fill:white;stroke:#bfbfbf;" points="374,-56 374,-76 493,-76 493,-56 374,-56"/>
<text text-anchor="middle" x="433" y="-63" style="font-family:Arial;font-size:10.00;">ltr/measures/measure.h</text>
</g>
<!-- Node1&#45;&gt;Node7 -->
<g id="edge12" class="edge"><title>Node1&#45;&gt;Node7</title>
<path style="fill:none;stroke:midnightblue;" d="M2798,-122C2406,-120 977,-113 503,-76"/>
<polygon style="fill:midnightblue;stroke:midnightblue;" points="503.299,-72.5125 493,-75 502.602,-79.4778 503.299,-72.5125"/>
</g>
<!-- Node8 -->
<g id="node15" class="node"><title>Node8</title>
<polygon style="fill:white;stroke:#bfbfbf;" points="510,-56 510,-76 761,-76 761,-56 510,-56"/>
<text text-anchor="middle" x="635" y="-63" style="font-family:Arial;font-size:10.00;">ltr/learners/best_feature_learner/best_feature_learner.h</text>
</g>
<!-- Node1&#45;&gt;Node8 -->
<g id="edge14" class="edge"><title>Node1&#45;&gt;Node8</title>
<path style="fill:none;stroke:midnightblue;" d="M2798,-122C2494,-120 1558,-113 771,-76"/>
<polygon style="fill:midnightblue;stroke:midnightblue;" points="771,-72.5001 761,-76 771,-79.5001 771,-72.5001"/>
</g>
<!-- Node9 -->
<g id="node17" class="node"><title>Node9</title>
<polygon style="fill:white;stroke:#bfbfbf;" points="778,-56 778,-76 1003,-76 1003,-56 778,-56"/>
<text text-anchor="middle" x="890" y="-63" style="font-family:Arial;font-size:10.00;">ltr/learners/decision_tree/decision_tree_learner.h</text>
</g>
<!-- Node1&#45;&gt;Node9 -->
<g id="edge16" class="edge"><title>Node1&#45;&gt;Node9</title>
<path style="fill:none;stroke:midnightblue;" d="M2798,-122C2517,-120 1701,-112 1013,-77"/>
<polygon style="fill:midnightblue;stroke:midnightblue;" points="1013.3,-73.5125 1003,-76 1012.6,-80.4778 1013.3,-73.5125"/>
</g>
<!-- Node10 -->
<g id="node19" class="node"><title>Node10</title>
<polygon style="fill:white;stroke:#bfbfbf;" points="1020,-56 1020,-76 1373,-76 1373,-56 1020,-56"/>
<text text-anchor="middle" x="1196" y="-63" style="font-family:Arial;font-size:10.00;">ltr/learners/decision_tree/leaf_generator/most_common_label_leaf_generator.h</text>
</g>
<!-- Node1&#45;&gt;Node10 -->
<g id="edge18" class="edge"><title>Node1&#45;&gt;Node10</title>
<path style="fill:none;stroke:midnightblue;" d="M2798,-120C2556,-114 1922,-98 1383,-76"/>
<polygon style="fill:midnightblue;stroke:midnightblue;" points="1383,-72.5001 1373,-76 1383,-79.5001 1383,-72.5001"/>
</g>
<!-- Node11 -->
<g id="node21" class="node"><title>Node11</title>
<polygon style="fill:white;stroke:#bfbfbf;" points="1390,-56 1390,-76 1680,-76 1680,-56 1390,-56"/>
<text text-anchor="middle" x="1535" y="-63" style="font-family:Arial;font-size:10.00;">ltr/learners/decision_tree/split_criteria/data_size_stop_criteria.h</text>
</g>
<!-- Node1&#45;&gt;Node11 -->
<g id="edge20" class="edge"><title>Node1&#45;&gt;Node11</title>
<path style="fill:none;stroke:midnightblue;" d="M2798,-119C2592,-113 2108,-97 1690,-76"/>
<polygon style="fill:midnightblue;stroke:midnightblue;" points="1690.3,-72.5125 1680,-75 1689.6,-79.4778 1690.3,-72.5125"/>
</g>
<!-- Node12 -->
<g id="node23" class="node"><title>Node12</title>
<polygon style="fill:white;stroke:#bfbfbf;" points="1698,-56 1698,-76 1995,-76 1995,-56 1698,-56"/>
<text text-anchor="middle" x="1846" y="-63" style="font-family:Arial;font-size:10.00;">ltr/learners/decision_tree/split_criteria/same_label_stop_criteria.h</text>
</g>
<!-- Node1&#45;&gt;Node12 -->
<g id="edge22" class="edge"><title>Node1&#45;&gt;Node12</title>
<path style="fill:none;stroke:midnightblue;" d="M2798,-117C2634,-109 2299,-92 2005,-76"/>
<polygon style="fill:midnightblue;stroke:midnightblue;" points="2005.3,-72.5125 1995,-75 2004.6,-79.4778 2005.3,-72.5125"/>
</g>
<!-- Node13 -->
<g id="node25" class="node"><title>Node13</title>
<polygon style="fill:white;stroke:#bfbfbf;" points="2012,-56 2012,-76 2192,-76 2192,-56 2012,-56"/>
<text text-anchor="middle" x="2102" y="-63" style="font-family:Arial;font-size:10.00;">ltr/learners/decision_tree/id3_splitter.h</text>
</g>
<!-- Node1&#45;&gt;Node13 -->
<g id="edge24" class="edge"><title>Node1&#45;&gt;Node13</title>
<path style="fill:none;stroke:midnightblue;" d="M2798,-116C2664,-108 2421,-93 2202,-76"/>
<polygon style="fill:midnightblue;stroke:midnightblue;" points="2202.3,-72.5125 2192,-75 2201.6,-79.4778 2202.3,-72.5125"/>
</g>
<!-- Node14 -->
<g id="node27" class="node"><title>Node14</title>
<polygon style="fill:white;stroke:#bfbfbf;" points="2210,-56 2210,-76 2436,-76 2436,-56 2210,-56"/>
<text text-anchor="middle" x="2323" y="-63" style="font-family:Arial;font-size:10.00;">ltr/learners/decision_tree/oblivious_tree_splitter.h</text>
</g>
<!-- Node1&#45;&gt;Node14 -->
<g id="edge26" class="edge"><title>Node1&#45;&gt;Node14</title>
<path style="fill:none;stroke:midnightblue;" d="M2798,-112C2697,-102 2542,-87 2436,-77"/>
<polygon style="fill:midnightblue;stroke:midnightblue;" points="2436.3,-73.5125 2426,-76 2435.6,-80.4778 2436.3,-73.5125"/>
</g>
<!-- Node15 -->
<g id="node29" class="node"><title>Node15</title>
<polygon style="fill:white;stroke:#bfbfbf;" points="2454,-56 2454,-76 2575,-76 2575,-56 2454,-56"/>
<text text-anchor="middle" x="2514" y="-63" style="font-family:Arial;font-size:10.00;">ltr/measures/abs_error.h</text>
</g>
<!-- Node1&#45;&gt;Node15 -->
<g id="edge28" class="edge"><title>Node1&#45;&gt;Node15</title>
<path style="fill:none;stroke:midnightblue;" d="M2829,-112C2760,-102 2655,-87 2585,-76"/>
<polygon style="fill:midnightblue;stroke:midnightblue;" points="2585.3,-72.5125 2575,-75 2584.6,-79.4778 2585.3,-72.5125"/>
</g>
<!-- Node16 -->
<g id="node31" class="node"><title>Node16</title>
<polygon style="fill:white;stroke:#bfbfbf;" points="2592,-56 2592,-76 2757,-76 2757,-56 2592,-56"/>
<text text-anchor="middle" x="2674" y="-63" style="font-family:Arial;font-size:10.00;">ltr/learners/gp_learner/gp_learner.h</text>
</g>
<!-- Node1&#45;&gt;Node16 -->
<g id="edge30" class="edge"><title>Node1&#45;&gt;Node16</title>
<path style="fill:none;stroke:midnightblue;" d="M2858,-112C2821,-103 2764,-88 2724,-78"/>
<polygon style="fill:midnightblue;stroke:midnightblue;" points="2724.49,-74.5292 2714,-76 2723.12,-81.3933 2724.49,-74.5292"/>
</g>
<!-- Node17 -->
<g id="node33" class="node"><title>Node17</title>
<polygon style="fill:white;stroke:#bfbfbf;" points="2774,-56 2774,-76 3023,-76 3023,-56 2774,-56"/>
<text text-anchor="middle" x="2898" y="-63" style="font-family:Arial;font-size:10.00;">ltr/learners/composition_learner/composition_learner.h</text>
</g>
<!-- Node1&#45;&gt;Node17 -->
<g id="edge32" class="edge"><title>Node1&#45;&gt;Node17</title>
<path style="fill:none;stroke:midnightblue;" d="M2898,-112C2898,-105 2898,-95 2898,-86"/>
<polygon style="fill:midnightblue;stroke:midnightblue;" points="2901.5,-86 2898,-76 2894.5,-86 2901.5,-86"/>
</g>
<!-- Node18 -->
<g id="node35" class="node"><title>Node18</title>
<polygon style="fill:white;stroke:#bfbfbf;" points="3040,-56 3040,-76 3298,-76 3298,-56 3040,-56"/>
<text text-anchor="middle" x="3169" y="-63" style="font-family:Arial;font-size:10.00;">ltr/feature_converters/feature_random_sampler_learner.h</text>
</g>
<!-- Node1&#45;&gt;Node18 -->
<g id="edge34" class="edge"><title>Node1&#45;&gt;Node18</title>
<path style="fill:none;stroke:midnightblue;" d="M2946,-112C2992,-103 3061,-88 3110,-78"/>
<polygon style="fill:midnightblue;stroke:midnightblue;" points="3110.88,-81.3933 3120,-76 3109.51,-74.5292 3110.88,-81.3933"/>
</g>
<!-- Node19 -->
<g id="node37" class="node"><title>Node19</title>
<polygon style="fill:white;stroke:#bfbfbf;" points="3316,-56 3316,-76 3507,-76 3507,-56 3316,-56"/>
<text text-anchor="middle" x="3411" y="-63" style="font-family:Arial;font-size:10.00;">ltr/learners/linear_learner/linear_learner.h</text>
</g>
<!-- Node1&#45;&gt;Node19 -->
<g id="edge36" class="edge"><title>Node1&#45;&gt;Node19</title>
<path style="fill:none;stroke:midnightblue;" d="M2990,-112C3080,-102 3216,-87 3310,-77"/>
<polygon style="fill:midnightblue;stroke:midnightblue;" points="3310.4,-80.4778 3320,-76 3309.7,-73.5125 3310.4,-80.4778"/>
</g>
<!-- Node20 -->
<g id="node39" class="node"><title>Node20</title>
<polygon style="fill:white;stroke:#bfbfbf;" points="3524,-56 3524,-76 3746,-76 3746,-56 3524,-56"/>
<text text-anchor="middle" x="3635" y="-63" style="font-family:Arial;font-size:10.00;">ltr/learners/bayesian_learner/bayesian_learner.h</text>
</g>
<!-- Node1&#45;&gt;Node20 -->
<g id="edge38" class="edge"><title>Node1&#45;&gt;Node20</title>
<path style="fill:none;stroke:midnightblue;" d="M2999,-115C3119,-106 3326,-91 3514,-76"/>
<polygon style="fill:midnightblue;stroke:midnightblue;" points="3514.4,-79.4778 3524,-75 3513.7,-72.5125 3514.4,-79.4778"/>
</g>
<!-- Node21 -->
<g id="node41" class="node"><title>Node21</title>
<polygon style="fill:white;stroke:#bfbfbf;" points="3764,-56 3764,-76 3941,-76 3941,-56 3764,-56"/>
<text text-anchor="middle" x="3852" y="-63" style="font-family:Arial;font-size:10.00;">ltr/scorers/nearest_neighbor_scorer.h</text>
</g>
<!-- Node1&#45;&gt;Node21 -->
<g id="edge40" class="edge"><title>Node1&#45;&gt;Node21</title>
<path style="fill:none;stroke:midnightblue;" d="M2999,-118C3158,-111 3474,-97 3754,-76"/>
<polygon style="fill:midnightblue;stroke:midnightblue;" points="3754.4,-79.4778 3764,-75 3753.7,-72.5125 3754.4,-79.4778"/>
</g>
<!-- Node22 -->
<g id="node43" class="node"><title>Node22</title>
<polygon style="fill:white;stroke:#bfbfbf;" points="3958,-56 3958,-76 4251,-76 4251,-56 3958,-56"/>
<text text-anchor="middle" x="4104" y="-63" style="font-family:Arial;font-size:10.00;">ltr/learners/nearest_neighbor_learner/nearest_neighbor_learner.h</text>
</g>
<!-- Node1&#45;&gt;Node22 -->
<g id="edge42" class="edge"><title>Node1&#45;&gt;Node22</title>
<path style="fill:none;stroke:midnightblue;" d="M2999,-118C3184,-111 3592,-95 3948,-76"/>
<polygon style="fill:midnightblue;stroke:midnightblue;" points="3948.4,-79.4778 3958,-75 3947.7,-72.5125 3948.4,-79.4778"/>
</g>
<!-- Node23 -->
<g id="node45" class="node"><title>Node23</title>
<polygon style="fill:white;stroke:#bfbfbf;" points="4268,-56 4268,-76 4407,-76 4407,-56 4268,-56"/>
<text text-anchor="middle" x="4337" y="-63" style="font-family:Arial;font-size:10.00;">ltr/utility/neighbor_weighter.h</text>
</g>
<!-- Node1&#45;&gt;Node23 -->
<g id="edge44" class="edge"><title>Node1&#45;&gt;Node23</title>
<path style="fill:none;stroke:midnightblue;" d="M2999,-120C3267,-114 3994,-95 4258,-76"/>
<polygon style="fill:midnightblue;stroke:midnightblue;" points="4258.4,-79.4778 4268,-75 4257.7,-72.5125 4258.4,-79.4778"/>
</g>
<!-- Node24 -->
<g id="node47" class="node"><title>Node24</title>
<polygon style="fill:white;stroke:#bfbfbf;" points="4424,-56 4424,-76 4522,-76 4522,-56 4424,-56"/>
<text text-anchor="middle" x="4473" y="-63" style="font-family:Arial;font-size:10.00;">ltr/metrics/metric.h</text>
</g>
<!-- Node1&#45;&gt;Node24 -->
<g id="edge46" class="edge"><title>Node1&#45;&gt;Node24</title>
<path style="fill:none;stroke:midnightblue;" d="M2999,-121C3289,-117 4119,-103 4414,-76"/>
<polygon style="fill:midnightblue;stroke:midnightblue;" points="4414.4,-79.4778 4424,-75 4413.7,-72.5125 4414.4,-79.4778"/>
</g>
<!-- Node25 -->
<g id="node49" class="node"><title>Node25</title>
<polygon style="fill:white;stroke:#bfbfbf;" points="4540,-56 4540,-76 4684,-76 4684,-56 4540,-56"/>
<text text-anchor="middle" x="4612" y="-63" style="font-family:Arial;font-size:10.00;">ltr/metrics/euclidean_metric.h</text>
</g>
<!-- Node1&#45;&gt;Node25 -->
<g id="edge48" class="edge"><title>Node1&#45;&gt;Node25</title>
<path style="fill:none;stroke:midnightblue;" d="M2999,-120C3304,-115 4211,-98 4530,-76"/>
<polygon style="fill:midnightblue;stroke:midnightblue;" points="4530.4,-79.4778 4540,-75 4529.7,-72.5125 4530.4,-79.4778"/>
</g>
<!-- Node26 -->
<g id="node51" class="node"><title>Node26</title>
<polygon style="fill:white;stroke:#bfbfbf;" points="4702,-56 4702,-76 4942,-76 4942,-56 4702,-56"/>
<text text-anchor="middle" x="4822" y="-63" style="font-family:Arial;font-size:10.00;">ltr/predictions_aggregators/predictions_aggregator.h</text>
</g>
<!-- Node1&#45;&gt;Node26 -->
<g id="edge50" class="edge"><title>Node1&#45;&gt;Node26</title>
<path style="fill:none;stroke:midnightblue;" d="M2999,-121C3272,-119 4041,-109 4692,-77"/>
<polygon style="fill:midnightblue;stroke:midnightblue;" points="4692.4,-80.4778 4702,-76 4691.7,-73.5125 4692.4,-80.4778"/>
</g>
<!-- Node27 -->
<g id="node53" class="node"><title>Node27</title>
<polygon style="fill:white;stroke:#bfbfbf;" points="4960,-56 4960,-76 5222,-76 5222,-56 4960,-56"/>
<text text-anchor="middle" x="5091" y="-63" style="font-family:Arial;font-size:10.00;">ltr/predictions_aggregators/vote_predictions_aggregator.h</text>
</g>
<!-- Node1&#45;&gt;Node27 -->
<g id="edge52" class="edge"><title>Node1&#45;&gt;Node27</title>
<path style="fill:none;stroke:midnightblue;" d="M2999,-121C3297,-119 4194,-111 4950,-76"/>
<polygon style="fill:midnightblue;stroke:midnightblue;" points="4950,-79.5001 4960,-76 4950,-72.5001 4950,-79.5001"/>
</g>
<!-- Node28 -->
<g id="node55" class="node"><title>Node28</title>
<polygon style="fill:white;stroke:#bfbfbf;" points="5240,-56 5240,-76 5504,-76 5504,-56 5240,-56"/>
<text text-anchor="middle" x="5372" y="-63" style="font-family:Arial;font-size:10.00;">ltr/predictions_aggregators/sum_predictions_aggregator.h</text>
</g>
<!-- Node1&#45;&gt;Node28 -->
<g id="edge54" class="edge"><title>Node1&#45;&gt;Node28</title>
<path style="fill:none;stroke:midnightblue;" d="M2999,-121C3385,-115 4766,-96 5230,-76"/>
<polygon style="fill:midnightblue;stroke:midnightblue;" points="5230,-79.5001 5240,-76 5230,-72.5001 5230,-79.5001"/>
</g>
<!-- Node29 -->
<g id="node57" class="node"><title>Node29</title>
<polygon style="fill:white;stroke:#bfbfbf;" points="5522,-56 5522,-76 5770,-76 5770,-56 5522,-56"/>
<text text-anchor="middle" x="5646" y="-63" style="font-family:Arial;font-size:10.00;">ltr/scorers/composition_scorers/composition_scorer.h</text>
</g>
<!-- Node1&#45;&gt;Node29 -->
<g id="edge56" class="edge"><title>Node1&#45;&gt;Node29</title>
<path style="fill:none;stroke:midnightblue;" d="M2999,-121C3414,-117 4989,-99 5512,-76"/>
<polygon style="fill:midnightblue;stroke:midnightblue;" points="5512,-79.5001 5522,-76 5512,-72.5001 5512,-79.5001"/>
</g>
<!-- Node4 -->
<g id="node7" class="node"><title>Node4</title>
<polygon style="fill:white;stroke:#bfbfbf;" points="139,-0 139,-20 179,-20 179,-0 139,-0"/>
<text text-anchor="middle" x="159" y="-7" style="font-family:Arial;font-size:10.00;">string</text>
</g>
<!-- Node3&#45;&gt;Node4 -->
<g id="edge6" class="edge"><title>Node3&#45;&gt;Node4</title>
<path style="fill:none;stroke:midnightblue;" d="M229,-56C216,-48 198,-35 183,-26"/>
<polygon style="fill:midnightblue;stroke:midnightblue;" points="184.262,-22.6349 174,-20 180.379,-28.4592 184.262,-22.6349"/>
</g>
<!-- Node5 -->
<g id="node9" class="node"><title>Node5</title>
<polygon style="fill:white;stroke:#bfbfbf;" points="197,-0 197,-20 292,-20 292,-0 197,-0"/>
<text text-anchor="middle" x="244" y="-7" style="font-family:Arial;font-size:10.00;">ltr/data/data_set.h</text>
</g>
<!-- Node3&#45;&gt;Node5 -->
<g id="edge8" class="edge"><title>Node3&#45;&gt;Node5</title>
<path style="fill:none;stroke:midnightblue;" d="M244,-56C244,-49 244,-39 244,-30"/>
<polygon style="fill:midnightblue;stroke:midnightblue;" points="247.5,-30 244,-20 240.5,-30 247.5,-30"/>
</g>
<!-- Node6 -->
<g id="node11" class="node"><title>Node6</title>
<polygon style="fill:white;stroke:#bfbfbf;" points="309,-0 309,-20 411,-20 411,-0 309,-0"/>
<text text-anchor="middle" x="360" y="-7" style="font-family:Arial;font-size:10.00;">ltr/learners/learner.h</text>
</g>
<!-- Node3&#45;&gt;Node6 -->
<g id="edge10" class="edge"><title>Node3&#45;&gt;Node6</title>
<path style="fill:none;stroke:midnightblue;" d="M265,-56C283,-47 309,-34 330,-24"/>
<polygon style="fill:midnightblue;stroke:midnightblue;" points="331.283,-27.2598 339,-20 328.44,-20.8631 331.283,-27.2598"/>
</g>
</g>
</svg>
