<?xml version="1.0" encoding="UTF-8" standalone="no"?>
<!DOCTYPE svg PUBLIC "-//W3C//DTD SVG 1.0//EN"
 "http://www.w3.org/TR/2001/REC-SVG-20010904/DTD/svg10.dtd" [
 <!ATTLIST svg xmlns:xlink CDATA #FIXED "http://www.w3.org/1999/xlink">
]>
<!-- Generated by Graphviz version 2.20.2 (Tue Mar &#160;2 19:03:41 UTC 2010)
     For user: (jenkins)  -->
<!-- Title: G Pages: 1 -->
<svg width="378pt" height="84pt"
 viewBox="0.00 0.00 378.00 84.00" xmlns="http://www.w3.org/2000/svg" xmlns:xlink="http://www.w3.org/1999/xlink">
<g id="graph0" class="graph" transform="scale(1 1) rotate(0) translate(4 80)">
<title>G</title>
<polygon style="fill:white;stroke:white;" points="-4,4 -4,-80 374,-80 374,4 -4,4"/>
<!-- Node1 -->
<g id="node1" class="node"><title>Node1</title>
<polygon style="fill:#bfbfbf;stroke:black;" points="92,-56 92,-76 192,-76 192,-56 92,-56"/>
<text text-anchor="middle" x="142" y="-63" style="font-family:Arial;font-size:10.00;">ltr/measures/gmrr.h</text>
</g>
<!-- Node2 -->
<g id="node3" class="node"><title>Node2</title>
<polygon style="fill:white;stroke:#bfbfbf;" points="0,-0 0,-20 57,-20 57,-0 0,-0"/>
<text text-anchor="middle" x="28" y="-7" style="font-family:Arial;font-size:10.00;">functional</text>
</g>
<!-- Node1&#45;&gt;Node2 -->
<g id="edge2" class="edge"><title>Node1&#45;&gt;Node2</title>
<path style="fill:none;stroke:midnightblue;" d="M122,-56C104,-47 78,-34 58,-25"/>
<polygon style="fill:midnightblue;stroke:midnightblue;" points="59.4414,-21.7969 49,-20 56.0418,-27.916 59.4414,-21.7969"/>
</g>
<!-- Node3 -->
<g id="node5" class="node"><title>Node3</title>
<polygon style="fill:white;stroke:#bfbfbf;" points="74,-0 74,-20 114,-20 114,-0 74,-0"/>
<text text-anchor="middle" x="94" y="-7" style="font-family:Arial;font-size:10.00;">string</text>
</g>
<!-- Node1&#45;&gt;Node3 -->
<g id="edge4" class="edge"><title>Node1&#45;&gt;Node3</title>
<path style="fill:none;stroke:midnightblue;" d="M133,-56C127,-48 117,-37 109,-28"/>
<polygon style="fill:midnightblue;stroke:midnightblue;" points="111.8,-25.9 103,-20 106.2,-30.1 111.8,-25.9"/>
</g>
<!-- Node4 -->
<g id="node7" class="node"><title>Node4</title>
<polygon style="fill:white;stroke:#bfbfbf;" points="132,-0 132,-20 251,-20 251,-0 132,-0"/>
<text text-anchor="middle" x="191" y="-7" style="font-family:Arial;font-size:10.00;">ltr/measures/measure.h</text>
</g>
<!-- Node1&#45;&gt;Node4 -->
<g id="edge6" class="edge"><title>Node1&#45;&gt;Node4</title>
<path style="fill:none;stroke:midnightblue;" d="M151,-56C158,-48 168,-37 176,-28"/>
<polygon style="fill:midnightblue;stroke:midnightblue;" points="178.8,-30.1 182,-20 173.2,-25.9 178.8,-30.1"/>
</g>
<!-- Node5 -->
<g id="node9" class="node"><title>Node5</title>
<polygon style="fill:white;stroke:#bfbfbf;" points="268,-0 268,-20 370,-20 370,-0 268,-0"/>
<text text-anchor="middle" x="319" y="-7" style="font-family:Arial;font-size:10.00;">ltr/data/object_list.h</text>
</g>
<!-- Node1&#45;&gt;Node5 -->
<g id="edge8" class="edge"><title>Node1&#45;&gt;Node5</title>
<path style="fill:none;stroke:midnightblue;" d="M174,-56C203,-47 246,-33 277,-23"/>
<polygon style="fill:midnightblue;stroke:midnightblue;" points="278.427,-26.2259 287,-20 276.416,-19.5212 278.427,-26.2259"/>
</g>
</g>
</svg>
