<?xml version="1.0" encoding="UTF-8" standalone="no"?>
<!DOCTYPE svg PUBLIC "-//W3C//DTD SVG 1.0//EN"
 "http://www.w3.org/TR/2001/REC-SVG-20010904/DTD/svg10.dtd" [
 <!ATTLIST svg xmlns:xlink CDATA #FIXED "http://www.w3.org/1999/xlink">
]>
<!-- Generated by Graphviz version 2.20.2 (Tue Mar &#160;2 19:03:41 UTC 2010)
     For user: (jenkins)  -->
<!-- Title: G Pages: 1 -->
<svg width="1162pt" height="140pt"
 viewBox="0.00 0.00 1162.00 140.00" xmlns="http://www.w3.org/2000/svg" xmlns:xlink="http://www.w3.org/1999/xlink">
<g id="graph0" class="graph" transform="scale(1 1) rotate(0) translate(4 136)">
<title>G</title>
<polygon style="fill:white;stroke:white;" points="-4,4 -4,-136 1158,-136 1158,4 -4,4"/>
<!-- Node1 -->
<g id="node1" class="node"><title>Node1</title>
<polygon style="fill:#bfbfbf;stroke:black;" points="390,-112 390,-132 503,-132 503,-112 390,-112"/>
<text text-anchor="middle" x="446" y="-119" style="font-family:Arial;font-size:10.00;">ltr/scorers/gp_scorer.h</text>
</g>
<!-- Node2 -->
<g id="node3" class="node"><title>Node2</title>
<polygon style="fill:white;stroke:#bfbfbf;" points="42,-56 42,-76 84,-76 84,-56 42,-56"/>
<text text-anchor="middle" x="63" y="-63" style="font-family:Arial;font-size:10.00;">vector</text>
</g>
<!-- Node1&#45;&gt;Node2 -->
<g id="edge2" class="edge"><title>Node1&#45;&gt;Node2</title>
<path style="fill:none;stroke:midnightblue;" d="M390,-117C321,-110 200,-97 98,-76 97,-76 95,-75 94,-75"/>
<polygon style="fill:midnightblue;stroke:midnightblue;" points="94.584,-71.5212 84,-72 92.5725,-78.2259 94.584,-71.5212"/>
</g>
<!-- Node3 -->
<g id="node5" class="node"><title>Node3</title>
<polygon style="fill:white;stroke:#bfbfbf;" points="0,-0 0,-20 40,-20 40,-0 0,-0"/>
<text text-anchor="middle" x="20" y="-7" style="font-family:Arial;font-size:10.00;">string</text>
</g>
<!-- Node1&#45;&gt;Node3 -->
<g id="edge4" class="edge"><title>Node1&#45;&gt;Node3</title>
<path style="fill:none;stroke:midnightblue;" d="M390,-119C328,-115 226,-104 143,-76 106,-64 67,-41 44,-26"/>
<polygon style="fill:midnightblue;stroke:midnightblue;" points="45.262,-22.6349 35,-20 41.3791,-28.4592 45.262,-22.6349"/>
</g>
<!-- Node4 -->
<g id="node7" class="node"><title>Node4</title>
<polygon style="fill:white;stroke:#bfbfbf;" points="448,-56 448,-76 499,-76 499,-56 448,-56"/>
<text text-anchor="middle" x="473" y="-63" style="font-family:Arial;font-size:10.00;">sstream</text>
</g>
<!-- Node1&#45;&gt;Node4 -->
<g id="edge6" class="edge"><title>Node1&#45;&gt;Node4</title>
<path style="fill:none;stroke:midnightblue;" d="M451,-112C455,-105 460,-94 464,-85"/>
<polygon style="fill:midnightblue;stroke:midnightblue;" points="467.137,-86.5596 468,-76 460.74,-83.7166 467.137,-86.5596"/>
</g>
<!-- Node5 -->
<g id="node9" class="node"><title>Node5</title>
<polygon style="fill:white;stroke:#bfbfbf;" points="516,-56 516,-76 575,-76 575,-56 516,-56"/>
<text text-anchor="middle" x="545" y="-63" style="font-family:Arial;font-size:10.00;">stdexcept</text>
</g>
<!-- Node1&#45;&gt;Node5 -->
<g id="edge8" class="edge"><title>Node1&#45;&gt;Node5</title>
<path style="fill:none;stroke:midnightblue;" d="M464,-112C479,-104 501,-91 518,-81"/>
<polygon style="fill:midnightblue;stroke:midnightblue;" points="519.958,-83.916 527,-76 516.559,-77.7969 519.958,-83.916"/>
</g>
<!-- Node6 -->
<g id="node11" class="node"><title>Node6</title>
<polygon style="fill:white;stroke:#bfbfbf;" points="58,-0 58,-20 181,-20 181,-0 58,-0"/>
<text text-anchor="middle" x="119" y="-7" style="font-family:Arial;font-size:10.00;">contrib/puppy/Puppy.hpp</text>
</g>
<!-- Node1&#45;&gt;Node6 -->
<g id="edge10" class="edge"><title>Node1&#45;&gt;Node6</title>
<path style="fill:none;stroke:midnightblue;" d="M390,-118C320,-111 205,-98 169,-76 151,-65 137,-44 129,-29"/>
<polygon style="fill:midnightblue;stroke:midnightblue;" points="131.916,-27.0418 124,-20 125.797,-30.4414 131.916,-27.0418"/>
</g>
<!-- Node7 -->
<g id="node13" class="node"><title>Node7</title>
<polygon style="fill:white;stroke:#bfbfbf;" points="592,-56 592,-76 687,-76 687,-56 592,-56"/>
<text text-anchor="middle" x="639" y="-63" style="font-family:Arial;font-size:10.00;">ltr/data/data_set.h</text>
</g>
<!-- Node1&#45;&gt;Node7 -->
<g id="edge12" class="edge"><title>Node1&#45;&gt;Node7</title>
<path style="fill:none;stroke:midnightblue;" d="M481,-112C513,-103 560,-89 594,-79"/>
<polygon style="fill:midnightblue;stroke:midnightblue;" points="595.427,-82.2259 604,-76 593.416,-75.5212 595.427,-82.2259"/>
</g>
<!-- Node8 -->
<g id="node15" class="node"><title>Node8</title>
<a xlink:href="gp__primitives_8h.html" target="_top" xlink:title="ltr/learners/gp_learner/gp_primitives.h">
<polygon style="fill:white;stroke:black;" points="178,-56 178,-76 355,-76 355,-56 178,-56"/>
<text text-anchor="middle" x="266" y="-63" style="font-family:Arial;font-size:10.00;">ltr/learners/gp_learner/gp_primitives.h</text>
</a>
</g>
<!-- Node1&#45;&gt;Node8 -->
<g id="edge14" class="edge"><title>Node1&#45;&gt;Node8</title>
<path style="fill:none;stroke:midnightblue;" d="M414,-112C384,-103 340,-89 308,-79"/>
<polygon style="fill:midnightblue;stroke:midnightblue;" points="308.584,-75.5212 298,-76 306.573,-82.2259 308.584,-75.5212"/>
</g>
<!-- Node11 -->
<g id="node23" class="node"><title>Node11</title>
<polygon style="fill:white;stroke:#bfbfbf;" points="350,-0 350,-20 479,-20 479,-0 350,-0"/>
<text text-anchor="middle" x="414" y="-7" style="font-family:Arial;font-size:10.00;">ltr/interfaces/serializable.h</text>
</g>
<!-- Node1&#45;&gt;Node11 -->
<g id="edge28" class="edge"><title>Node1&#45;&gt;Node11</title>
<path style="fill:none;stroke:midnightblue;" d="M433,-112C423,-103 411,-90 406,-76 400,-61 403,-43 407,-30"/>
<polygon style="fill:midnightblue;stroke:midnightblue;" points="410.479,-30.584 410,-20 403.774,-28.5725 410.479,-30.584"/>
</g>
<!-- Node12 -->
<g id="node25" class="node"><title>Node12</title>
<polygon style="fill:white;stroke:#bfbfbf;" points="496,-0 496,-20 603,-20 603,-0 496,-0"/>
<text text-anchor="middle" x="549" y="-7" style="font-family:Arial;font-size:10.00;">ltr/utility/shared_ptr.h</text>
</g>
<!-- Node1&#45;&gt;Node12 -->
<g id="edge32" class="edge"><title>Node1&#45;&gt;Node12</title>
<path style="fill:none;stroke:midnightblue;" d="M441,-112C435,-98 427,-73 439,-56 450,-39 468,-28 486,-22"/>
<polygon style="fill:midnightblue;stroke:midnightblue;" points="487.427,-25.2259 496,-19 485.416,-18.5212 487.427,-25.2259"/>
</g>
<!-- Node13 -->
<g id="node28" class="node"><title>Node13</title>
<polygon style="fill:white;stroke:#bfbfbf;" points="704,-56 704,-76 846,-76 846,-56 704,-56"/>
<text text-anchor="middle" x="775" y="-63" style="font-family:Arial;font-size:10.00;">ltr/interfaces/parameterized.h</text>
</g>
<!-- Node1&#45;&gt;Node13 -->
<g id="edge30" class="edge"><title>Node1&#45;&gt;Node13</title>
<path style="fill:none;stroke:midnightblue;" d="M503,-112C560,-103 646,-88 706,-78"/>
<polygon style="fill:midnightblue;stroke:midnightblue;" points="706.881,-81.3933 716,-76 705.508,-74.5292 706.881,-81.3933"/>
</g>
<!-- Node14 -->
<g id="node31" class="node"><title>Node14</title>
<polygon style="fill:white;stroke:#bfbfbf;" points="864,-56 864,-76 961,-76 961,-56 864,-56"/>
<text text-anchor="middle" x="912" y="-63" style="font-family:Arial;font-size:10.00;">ltr/scorers/scorer.h</text>
</g>
<!-- Node1&#45;&gt;Node14 -->
<g id="edge34" class="edge"><title>Node1&#45;&gt;Node14</title>
<path style="fill:none;stroke:midnightblue;" d="M503,-117C580,-109 722,-95 854,-76"/>
<polygon style="fill:midnightblue;stroke:midnightblue;" points="854.398,-79.4778 864,-75 853.701,-72.5125 854.398,-79.4778"/>
</g>
<!-- Node15 -->
<g id="node33" class="node"><title>Node15</title>
<polygon style="fill:white;stroke:#bfbfbf;" points="978,-56 978,-76 1155,-76 1155,-56 978,-56"/>
<text text-anchor="middle" x="1066" y="-63" style="font-family:Arial;font-size:10.00;">ltr/learners/gp_learner/gp_primitives.h</text>
</g>
<!-- Node1&#45;&gt;Node15 -->
<g id="edge36" class="edge"><title>Node1&#45;&gt;Node15</title>
<path style="fill:none;stroke:midnightblue;" d="M503,-117C597,-109 792,-93 968,-76"/>
<polygon style="fill:midnightblue;stroke:midnightblue;" points="968.398,-79.4778 978,-75 967.701,-72.5125 968.398,-79.4778"/>
</g>
<!-- Node8&#45;&gt;Node3 -->
<g id="edge20" class="edge"><title>Node8&#45;&gt;Node3</title>
<path style="fill:none;stroke:midnightblue;" d="M210,-56C168,-48 110,-36 50,-20"/>
<polygon style="fill:midnightblue;stroke:midnightblue;" points="50.584,-16.5212 40,-17 48.5725,-23.2259 50.584,-16.5212"/>
</g>
<!-- Node8&#45;&gt;Node6 -->
<g id="edge22" class="edge"><title>Node8&#45;&gt;Node6</title>
<path style="fill:none;stroke:midnightblue;" d="M240,-56C216,-47 181,-34 155,-24"/>
<polygon style="fill:midnightblue;stroke:midnightblue;" points="155.585,-20.4643 145,-20 152.985,-26.9636 155.585,-20.4643"/>
</g>
<!-- Node9 -->
<g id="node17" class="node"><title>Node9</title>
<polygon style="fill:white;stroke:#bfbfbf;" points="198,-0 198,-20 272,-20 272,-0 198,-0"/>
<text text-anchor="middle" x="235" y="-7" style="font-family:Arial;font-size:10.00;">logog/logog.h</text>
</g>
<!-- Node8&#45;&gt;Node9 -->
<g id="edge16" class="edge"><title>Node8&#45;&gt;Node9</title>
<path style="fill:none;stroke:midnightblue;" d="M260,-56C256,-49 250,-38 246,-29"/>
<polygon style="fill:midnightblue;stroke:midnightblue;" points="248.916,-27.0418 241,-20 242.797,-30.4414 248.916,-27.0418"/>
</g>
<!-- Node10 -->
<g id="node19" class="node"><title>Node10</title>
<polygon style="fill:white;stroke:#bfbfbf;" points="290,-0 290,-20 333,-20 333,-0 290,-0"/>
<text text-anchor="middle" x="311" y="-7" style="font-family:Arial;font-size:10.00;">cmath</text>
</g>
<!-- Node8&#45;&gt;Node10 -->
<g id="edge18" class="edge"><title>Node8&#45;&gt;Node10</title>
<path style="fill:none;stroke:midnightblue;" d="M274,-56C280,-48 289,-38 297,-28"/>
<polygon style="fill:midnightblue;stroke:midnightblue;" points="299.8,-30.1 303,-20 294.2,-25.9 299.8,-30.1"/>
</g>
<!-- Node8&#45;&gt;Node11 -->
<g id="edge24" class="edge"><title>Node8&#45;&gt;Node11</title>
<path style="fill:none;stroke:midnightblue;" d="M292,-56C316,-47 351,-34 377,-24"/>
<polygon style="fill:midnightblue;stroke:midnightblue;" points="379.015,-26.9636 387,-20 376.415,-20.4643 379.015,-26.9636"/>
</g>
<!-- Node8&#45;&gt;Node12 -->
<g id="edge26" class="edge"><title>Node8&#45;&gt;Node12</title>
<path style="fill:none;stroke:midnightblue;" d="M317,-56C365,-47 437,-32 488,-22"/>
<polygon style="fill:midnightblue;stroke:midnightblue;" points="488.881,-25.3933 498,-20 487.508,-18.5292 488.881,-25.3933"/>
</g>
</g>
</svg>
