<?xml version="1.0" encoding="UTF-8" standalone="no"?>
<!DOCTYPE svg PUBLIC "-//W3C//DTD SVG 1.0//EN"
 "http://www.w3.org/TR/2001/REC-SVG-20010904/DTD/svg10.dtd" [
 <!ATTLIST svg xmlns:xlink CDATA #FIXED "http://www.w3.org/1999/xlink">
]>
<!-- Generated by Graphviz version 2.20.2 (Tue Mar &#160;2 19:03:41 UTC 2010)
     For user: (jenkins)  -->
<!-- Title: G Pages: 1 -->
<svg width="4040pt" height="196pt"
 viewBox="0.00 0.00 4040.00 196.00" xmlns="http://www.w3.org/2000/svg" xmlns:xlink="http://www.w3.org/1999/xlink">
<g id="graph0" class="graph" transform="scale(1 1) rotate(0) translate(4 192)">
<title>G</title>
<polygon style="fill:white;stroke:white;" points="-4,4 -4,-192 4036,-192 4036,4 -4,4"/>
<!-- Node1 -->
<g id="node1" class="node"><title>Node1</title>
<polygon style="fill:#bfbfbf;stroke:black;" points="1780,-168 1780,-188 1951,-188 1951,-168 1780,-168"/>
<text text-anchor="middle" x="1865" y="-175" style="font-family:Arial;font-size:10.00;">ltr/learners/gp_learner/gp_learner.cc</text>
</g>
<!-- Node2 -->
<g id="node3" class="node"><title>Node2</title>
<a xlink:href="gp__learner_8h.html" target="_top" xlink:title="ltr/learners/gp_learner/gp_learner.h">
<polygon style="fill:white;stroke:black;" points="1783,-112 1783,-132 1948,-132 1948,-112 1783,-112"/>
<text text-anchor="middle" x="1865" y="-119" style="font-family:Arial;font-size:10.00;">ltr/learners/gp_learner/gp_learner.h</text>
</a>
</g>
<!-- Node1&#45;&gt;Node2 -->
<g id="edge2" class="edge"><title>Node1&#45;&gt;Node2</title>
<path style="fill:none;stroke:midnightblue;" d="M1865,-168C1865,-161 1865,-151 1865,-142"/>
<polygon style="fill:midnightblue;stroke:midnightblue;" points="1868.5,-142 1865,-132 1861.5,-142 1868.5,-142"/>
</g>
<!-- Node3 -->
<g id="node5" class="node"><title>Node3</title>
<polygon style="fill:white;stroke:#bfbfbf;" points="0,-56 0,-76 114,-76 114,-56 0,-56"/>
<text text-anchor="middle" x="57" y="-63" style="font-family:Arial;font-size:10.00;">boost/lexical_cast.hpp</text>
</g>
<!-- Node2&#45;&gt;Node3 -->
<g id="edge4" class="edge"><title>Node2&#45;&gt;Node3</title>
<path style="fill:none;stroke:midnightblue;" d="M1783,-121C1484,-117 455,-103 128,-76 127,-76 125,-76 124,-76"/>
<polygon style="fill:midnightblue;stroke:midnightblue;" points="124.492,-72.5292 114,-74 123.119,-79.3933 124.492,-72.5292"/>
</g>
<!-- Node4 -->
<g id="node7" class="node"><title>Node4</title>
<polygon style="fill:white;stroke:#bfbfbf;" points="107,-0 107,-20 147,-20 147,-0 107,-0"/>
<text text-anchor="middle" x="127" y="-7" style="font-family:Arial;font-size:10.00;">string</text>
</g>
<!-- Node2&#45;&gt;Node4 -->
<g id="edge6" class="edge"><title>Node2&#45;&gt;Node4</title>
<path style="fill:none;stroke:midnightblue;" d="M1783,-121C1448,-116 196,-98 161,-76 146,-65 137,-45 132,-30"/>
<polygon style="fill:midnightblue;stroke:midnightblue;" points="135.226,-28.5725 129,-20 128.521,-30.584 135.226,-28.5725"/>
</g>
<!-- Node5 -->
<g id="node9" class="node"><title>Node5</title>
<polygon style="fill:white;stroke:#bfbfbf;" points="372,-56 372,-76 423,-76 423,-56 372,-56"/>
<text text-anchor="middle" x="397" y="-63" style="font-family:Arial;font-size:10.00;">sstream</text>
</g>
<!-- Node2&#45;&gt;Node5 -->
<g id="edge8" class="edge"><title>Node2&#45;&gt;Node5</title>
<path style="fill:none;stroke:midnightblue;" d="M1783,-121C1504,-115 603,-98 433,-75"/>
<polygon style="fill:midnightblue;stroke:midnightblue;" points="433.299,-71.5125 423,-74 432.602,-78.4778 433.299,-71.5125"/>
</g>
<!-- Node6 -->
<g id="node11" class="node"><title>Node6</title>
<polygon style="fill:white;stroke:#bfbfbf;" points="1071,-0 1071,-20 1113,-20 1113,-0 1071,-0"/>
<text text-anchor="middle" x="1092" y="-7" style="font-family:Arial;font-size:10.00;">vector</text>
</g>
<!-- Node2&#45;&gt;Node6 -->
<g id="edge10" class="edge"><title>Node2&#45;&gt;Node6</title>
<path style="fill:none;stroke:midnightblue;" d="M1783,-122C1534,-120 806,-112 771,-76 764,-69 765,-62 771,-56 789,-34 984,-18 1061,-12"/>
<polygon style="fill:midnightblue;stroke:midnightblue;" points="1061.4,-15.4778 1071,-11 1060.7,-8.5125 1061.4,-15.4778"/>
</g>
<!-- Node7 -->
<g id="node13" class="node"><title>Node7</title>
<polygon style="fill:white;stroke:#bfbfbf;" points="2112,-56 2112,-76 2169,-76 2169,-56 2112,-56"/>
<text text-anchor="middle" x="2140" y="-63" style="font-family:Arial;font-size:10.00;">functional</text>
</g>
<!-- Node2&#45;&gt;Node7 -->
<g id="edge12" class="edge"><title>Node2&#45;&gt;Node7</title>
<path style="fill:none;stroke:midnightblue;" d="M1918,-112C1965,-103 2036,-89 2098,-76 2099,-76 2101,-75 2102,-75"/>
<polygon style="fill:midnightblue;stroke:midnightblue;" points="2103.43,-78.2259 2112,-72 2101.42,-71.5212 2103.43,-78.2259"/>
</g>
<!-- Node8 -->
<g id="node15" class="node"><title>Node8</title>
<polygon style="fill:white;stroke:#bfbfbf;" points="1575,-0 1575,-20 1698,-20 1698,-0 1575,-0"/>
<text text-anchor="middle" x="1636" y="-7" style="font-family:Arial;font-size:10.00;">contrib/puppy/Puppy.hpp</text>
</g>
<!-- Node2&#45;&gt;Node8 -->
<g id="edge14" class="edge"><title>Node2&#45;&gt;Node8</title>
<path style="fill:none;stroke:midnightblue;" d="M1948,-112C1994,-105 2046,-93 2060,-76 2065,-69 2065,-62 2060,-56 2037,-30 1823,-18 1708,-12"/>
<polygon style="fill:midnightblue;stroke:midnightblue;" points="1708,-8.5001 1698,-12 1708,-15.5001 1708,-8.5001"/>
</g>
<!-- Node9 -->
<g id="node17" class="node"><title>Node9</title>
<polygon style="fill:white;stroke:#bfbfbf;" points="2186,-56 2186,-76 2288,-76 2288,-56 2186,-56"/>
<text text-anchor="middle" x="2237" y="-63" style="font-family:Arial;font-size:10.00;">ltr/learners/learner.h</text>
</g>
<!-- Node2&#45;&gt;Node9 -->
<g id="edge16" class="edge"><title>Node2&#45;&gt;Node9</title>
<path style="fill:none;stroke:midnightblue;" d="M1934,-112C1995,-103 2086,-90 2176,-76"/>
<polygon style="fill:midnightblue;stroke:midnightblue;" points="2176.88,-79.3933 2186,-74 2175.51,-72.5292 2176.88,-79.3933"/>
</g>
<!-- Node10 -->
<g id="node19" class="node"><title>Node10</title>
<polygon style="fill:white;stroke:#bfbfbf;" points="2306,-56 2306,-76 2483,-76 2483,-56 2306,-56"/>
<text text-anchor="middle" x="2394" y="-63" style="font-family:Arial;font-size:10.00;">ltr/learners/gp_learner/gp_primitives.h</text>
</g>
<!-- Node2&#45;&gt;Node10 -->
<g id="edge18" class="edge"><title>Node2&#45;&gt;Node10</title>
<path style="fill:none;stroke:midnightblue;" d="M1948,-113C2042,-103 2195,-87 2296,-76"/>
<polygon style="fill:midnightblue;stroke:midnightblue;" points="2296.4,-79.4778 2306,-75 2295.7,-72.5125 2296.4,-79.4778"/>
</g>
<!-- Node11 -->
<g id="node21" class="node"><title>Node11</title>
<a xlink:href="population__handler_8h.html" target="_top" xlink:title="ltr/learners/gp_learner/strategies/population_handler.h">
<polygon style="fill:white;stroke:black;" points="440,-56 440,-76 687,-76 687,-56 440,-56"/>
<text text-anchor="middle" x="563" y="-63" style="font-family:Arial;font-size:10.00;">ltr/learners/gp_learner/strategies/population_handler.h</text>
</a>
</g>
<!-- Node2&#45;&gt;Node11 -->
<g id="edge20" class="edge"><title>Node2&#45;&gt;Node11</title>
<path style="fill:none;stroke:midnightblue;" d="M1783,-120C1593,-114 1106,-99 700,-76 699,-76 698,-76 697,-76"/>
<polygon style="fill:midnightblue;stroke:midnightblue;" points="697.299,-72.5125 687,-75 696.602,-79.4778 697.299,-72.5125"/>
</g>
<!-- Node14 -->
<g id="node28" class="node"><title>Node14</title>
<polygon style="fill:white;stroke:#bfbfbf;" points="705,-0 705,-20 930,-20 930,-0 705,-0"/>
<text text-anchor="middle" x="817" y="-7" style="font-family:Arial;font-size:10.00;">ltr/parameters_container/parameters_container.h</text>
</g>
<!-- Node2&#45;&gt;Node14 -->
<g id="edge74" class="edge"><title>Node2&#45;&gt;Node14</title>
<path style="fill:none;stroke:midnightblue;" d="M1783,-122C1533,-120 796,-113 761,-76 745,-59 768,-39 789,-25"/>
<polygon style="fill:midnightblue;stroke:midnightblue;" points="790.958,-27.916 798,-20 787.559,-21.7969 790.958,-27.916"/>
</g>
<!-- Node15 -->
<g id="node30" class="node"><title>Node15</title>
<a xlink:href="default__selection__strategy_8h.html" target="_top" xlink:title="ltr/learners/gp_learner/strategies/default_selection_strategy.h">
<polygon style="fill:white;stroke:black;" points="780,-56 780,-76 1059,-76 1059,-56 780,-56"/>
<text text-anchor="middle" x="919" y="-63" style="font-family:Arial;font-size:10.00;">ltr/learners/gp_learner/strategies/default_selection_strategy.h</text>
</a>
</g>
<!-- Node2&#45;&gt;Node15 -->
<g id="edge30" class="edge"><title>Node2&#45;&gt;Node15</title>
<path style="fill:none;stroke:midnightblue;" d="M1783,-118C1640,-110 1336,-92 1069,-76"/>
<polygon style="fill:midnightblue;stroke:midnightblue;" points="1069.3,-72.5125 1059,-75 1068.6,-79.4778 1069.3,-72.5125"/>
</g>
<!-- Node16 -->
<g id="node34" class="node"><title>Node16</title>
<polygon style="fill:white;stroke:#bfbfbf;" points="1311,-0 1311,-20 1558,-20 1558,-0 1311,-0"/>
<text text-anchor="middle" x="1434" y="-7" style="font-family:Arial;font-size:10.00;">ltr/learners/gp_learner/strategies/population_handler.h</text>
</g>
<!-- Node2&#45;&gt;Node16 -->
<g id="edge76" class="edge"><title>Node2&#45;&gt;Node16</title>
<path style="fill:none;stroke:midnightblue;" d="M1948,-113C2002,-105 2056,-88 2027,-56 2026,-55 1743,-34 1568,-20"/>
<polygon style="fill:midnightblue;stroke:midnightblue;" points="1568.3,-16.5125 1558,-19 1567.6,-23.4778 1568.3,-16.5125"/>
</g>
<!-- Node17 -->
<g id="node36" class="node"><title>Node17</title>
<a xlink:href="default__crossover__strategy_8h.html" target="_top" xlink:title="ltr/learners/gp_learner/strategies/default_crossover_strategy.h">
<polygon style="fill:white;stroke:black;" points="1076,-56 1076,-76 1358,-76 1358,-56 1076,-56"/>
<text text-anchor="middle" x="1217" y="-63" style="font-family:Arial;font-size:10.00;">ltr/learners/gp_learner/strategies/default_crossover_strategy.h</text>
</a>
</g>
<!-- Node2&#45;&gt;Node17 -->
<g id="edge38" class="edge"><title>Node2&#45;&gt;Node17</title>
<path style="fill:none;stroke:midnightblue;" d="M1783,-115C1672,-105 1472,-88 1342,-77"/>
<polygon style="fill:midnightblue;stroke:midnightblue;" points="1342.3,-73.5125 1332,-76 1341.6,-80.4778 1342.3,-73.5125"/>
</g>
<!-- Node18 -->
<g id="node41" class="node"><title>Node18</title>
<a xlink:href="default__mutation__standart__strategy_8h.html" target="_top" xlink:title="ltr/learners/gp_learner/strategies/default_mutation_standart_strategy.h">
<polygon style="fill:white;stroke:black;" points="1376,-56 1376,-76 1694,-76 1694,-56 1376,-56"/>
<text text-anchor="middle" x="1535" y="-63" style="font-family:Arial;font-size:10.00;">ltr/learners/gp_learner/strategies/default_mutation_standart_strategy.h</text>
</a>
</g>
<!-- Node2&#45;&gt;Node18 -->
<g id="edge46" class="edge"><title>Node2&#45;&gt;Node18</title>
<path style="fill:none;stroke:midnightblue;" d="M1806,-112C1749,-103 1664,-88 1604,-78"/>
<polygon style="fill:midnightblue;stroke:midnightblue;" points="1604.49,-74.5292 1594,-76 1603.12,-81.3933 1604.49,-74.5292"/>
</g>
<!-- Node19 -->
<g id="node46" class="node"><title>Node19</title>
<a xlink:href="default__mutation__swap__strategy_8h.html" target="_top" xlink:title="ltr/learners/gp_learner/strategies/default_mutation_swap_strategy.h">
<polygon style="fill:white;stroke:black;" points="1712,-56 1712,-76 2018,-76 2018,-56 1712,-56"/>
<text text-anchor="middle" x="1865" y="-63" style="font-family:Arial;font-size:10.00;">ltr/learners/gp_learner/strategies/default_mutation_swap_strategy.h</text>
</a>
</g>
<!-- Node2&#45;&gt;Node19 -->
<g id="edge54" class="edge"><title>Node2&#45;&gt;Node19</title>
<path style="fill:none;stroke:midnightblue;" d="M1865,-112C1865,-105 1865,-95 1865,-86"/>
<polygon style="fill:midnightblue;stroke:midnightblue;" points="1868.5,-86 1865,-76 1861.5,-86 1868.5,-86"/>
</g>
<!-- Node20 -->
<g id="node51" class="node"><title>Node20</title>
<polygon style="fill:white;stroke:#bfbfbf;" points="2500,-56 2500,-76 2613,-76 2613,-56 2500,-56"/>
<text text-anchor="middle" x="2556" y="-63" style="font-family:Arial;font-size:10.00;">ltr/scorers/gp_scorer.h</text>
</g>
<!-- Node2&#45;&gt;Node20 -->
<g id="edge62" class="edge"><title>Node2&#45;&gt;Node20</title>
<path style="fill:none;stroke:midnightblue;" d="M1948,-118C2066,-112 2289,-98 2490,-76"/>
<polygon style="fill:midnightblue;stroke:midnightblue;" points="2490.4,-79.4778 2500,-75 2489.7,-72.5125 2490.4,-79.4778"/>
</g>
<!-- Node21 -->
<g id="node53" class="node"><title>Node21</title>
<polygon style="fill:white;stroke:#bfbfbf;" points="285,-0 285,-20 404,-20 404,-0 285,-0"/>
<text text-anchor="middle" x="344" y="-7" style="font-family:Arial;font-size:10.00;">ltr/measures/measure.h</text>
</g>
<!-- Node2&#45;&gt;Node21 -->
<g id="edge64" class="edge"><title>Node2&#45;&gt;Node21</title>
<path style="fill:none;stroke:midnightblue;" d="M1783,-121C1473,-116 391,-97 363,-76 349,-66 345,-45 344,-30"/>
<polygon style="fill:midnightblue;stroke:midnightblue;" points="347.5,-30 344,-20 340.5,-30 347.5,-30"/>
</g>
<!-- Node22 -->
<g id="node55" class="node"><title>Node22</title>
<a xlink:href="reciprocal__rank_8h.html" target="_top" xlink:title="ltr/measures/reciprocal_rank.h">
<polygon style="fill:white;stroke:black;" points="170,-56 170,-76 317,-76 317,-56 170,-56"/>
<text text-anchor="middle" x="243" y="-63" style="font-family:Arial;font-size:10.00;">ltr/measures/reciprocal_rank.h</text>
</a>
</g>
<!-- Node2&#45;&gt;Node22 -->
<g id="edge66" class="edge"><title>Node2&#45;&gt;Node22</title>
<path style="fill:none;stroke:midnightblue;" d="M1783,-120C1507,-115 616,-96 330,-76 329,-76 328,-76 327,-76"/>
<polygon style="fill:midnightblue;stroke:midnightblue;" points="327.299,-72.5125 317,-75 326.602,-79.4778 327.299,-72.5125"/>
</g>
<!-- Node24 -->
<g id="node63" class="node"><title>Node24</title>
<polygon style="fill:white;stroke:#bfbfbf;" points="2630,-56 2630,-76 2909,-76 2909,-56 2630,-56"/>
<text text-anchor="middle" x="2769" y="-63" style="font-family:Arial;font-size:10.00;">ltr/learners/gp_learner/strategies/default_selection_strategy.h</text>
</g>
<!-- Node2&#45;&gt;Node24 -->
<g id="edge78" class="edge"><title>Node2&#45;&gt;Node24</title>
<path style="fill:none;stroke:midnightblue;" d="M1948,-117C2085,-109 2368,-91 2620,-76"/>
<polygon style="fill:midnightblue;stroke:midnightblue;" points="2620.4,-79.4778 2630,-75 2619.7,-72.5125 2620.4,-79.4778"/>
</g>
<!-- Node25 -->
<g id="node65" class="node"><title>Node25</title>
<polygon style="fill:white;stroke:#bfbfbf;" points="2926,-56 2926,-76 3208,-76 3208,-56 2926,-56"/>
<text text-anchor="middle" x="3067" y="-63" style="font-family:Arial;font-size:10.00;">ltr/learners/gp_learner/strategies/default_crossover_strategy.h</text>
</g>
<!-- Node2&#45;&gt;Node25 -->
<g id="edge80" class="edge"><title>Node2&#45;&gt;Node25</title>
<path style="fill:none;stroke:midnightblue;" d="M1948,-119C2124,-112 2548,-95 2916,-76"/>
<polygon style="fill:midnightblue;stroke:midnightblue;" points="2916.4,-79.4778 2926,-75 2915.7,-72.5125 2916.4,-79.4778"/>
</g>
<!-- Node26 -->
<g id="node67" class="node"><title>Node26</title>
<polygon style="fill:white;stroke:#bfbfbf;" points="3226,-56 3226,-76 3544,-76 3544,-56 3226,-56"/>
<text text-anchor="middle" x="3385" y="-63" style="font-family:Arial;font-size:10.00;">ltr/learners/gp_learner/strategies/default_mutation_standart_strategy.h</text>
</g>
<!-- Node2&#45;&gt;Node26 -->
<g id="edge82" class="edge"><title>Node2&#45;&gt;Node26</title>
<path style="fill:none;stroke:midnightblue;" d="M1948,-120C2159,-114 2728,-98 3216,-76"/>
<polygon style="fill:midnightblue;stroke:midnightblue;" points="3216,-79.5001 3226,-76 3216,-72.5001 3216,-79.5001"/>
</g>
<!-- Node27 -->
<g id="node69" class="node"><title>Node27</title>
<polygon style="fill:white;stroke:#bfbfbf;" points="3562,-56 3562,-76 3868,-76 3868,-56 3562,-56"/>
<text text-anchor="middle" x="3715" y="-63" style="font-family:Arial;font-size:10.00;">ltr/learners/gp_learner/strategies/default_mutation_swap_strategy.h</text>
</g>
<!-- Node2&#45;&gt;Node27 -->
<g id="edge84" class="edge"><title>Node2&#45;&gt;Node27</title>
<path style="fill:none;stroke:midnightblue;" d="M1948,-121C2192,-117 2929,-103 3552,-75"/>
<polygon style="fill:midnightblue;stroke:midnightblue;" points="3552,-78.5001 3562,-75 3552,-71.5001 3552,-78.5001"/>
</g>
<!-- Node28 -->
<g id="node71" class="node"><title>Node28</title>
<polygon style="fill:white;stroke:#bfbfbf;" points="3886,-56 3886,-76 4033,-76 4033,-56 3886,-56"/>
<text text-anchor="middle" x="3959" y="-63" style="font-family:Arial;font-size:10.00;">ltr/measures/reciprocal_rank.h</text>
</g>
<!-- Node2&#45;&gt;Node28 -->
<g id="edge86" class="edge"><title>Node2&#45;&gt;Node28</title>
<path style="fill:none;stroke:midnightblue;" d="M1948,-121C2275,-118 3472,-104 3876,-76"/>
<polygon style="fill:midnightblue;stroke:midnightblue;" points="3876.4,-79.4778 3886,-75 3875.7,-72.5125 3876.4,-79.4778"/>
</g>
<!-- Node11&#45;&gt;Node6 -->
<g id="edge22" class="edge"><title>Node11&#45;&gt;Node6</title>
<path style="fill:none;stroke:midnightblue;" d="M658,-56C779,-44 983,-22 1061,-13"/>
<polygon style="fill:midnightblue;stroke:midnightblue;" points="1061.4,-16.4778 1071,-12 1060.7,-9.5125 1061.4,-16.4778"/>
</g>
<!-- Node12 -->
<g id="node24" class="node"><title>Node12</title>
<polygon style="fill:white;stroke:#bfbfbf;" points="581,-0 581,-20 688,-20 688,-0 581,-0"/>
<text text-anchor="middle" x="634" y="-7" style="font-family:Arial;font-size:10.00;">ltr/utility/shared_ptr.h</text>
</g>
<!-- Node11&#45;&gt;Node12 -->
<g id="edge24" class="edge"><title>Node11&#45;&gt;Node12</title>
<path style="fill:none;stroke:midnightblue;" d="M576,-56C587,-48 601,-36 613,-27"/>
<polygon style="fill:midnightblue;stroke:midnightblue;" points="615.779,-29.2191 621,-20 611.169,-23.9511 615.779,-29.2191"/>
</g>
<!-- Node13 -->
<g id="node26" class="node"><title>Node13</title>
<polygon style="fill:white;stroke:#bfbfbf;" points="421,-0 421,-20 563,-20 563,-0 421,-0"/>
<text text-anchor="middle" x="492" y="-7" style="font-family:Arial;font-size:10.00;">ltr/interfaces/parameterized.h</text>
</g>
<!-- Node11&#45;&gt;Node13 -->
<g id="edge26" class="edge"><title>Node11&#45;&gt;Node13</title>
<path style="fill:none;stroke:midnightblue;" d="M550,-56C540,-48 525,-36 513,-27"/>
<polygon style="fill:midnightblue;stroke:midnightblue;" points="514.831,-23.9511 505,-20 510.221,-29.2191 514.831,-23.9511"/>
</g>
<!-- Node11&#45;&gt;Node14 -->
<g id="edge28" class="edge"><title>Node11&#45;&gt;Node14</title>
<path style="fill:none;stroke:midnightblue;" d="M608,-56C651,-47 715,-32 761,-22"/>
<polygon style="fill:midnightblue;stroke:midnightblue;" points="761.881,-25.3933 771,-20 760.508,-18.5292 761.881,-25.3933"/>
</g>
<!-- Node15&#45;&gt;Node6 -->
<g id="edge32" class="edge"><title>Node15&#45;&gt;Node6</title>
<path style="fill:none;stroke:midnightblue;" d="M950,-56C981,-46 1030,-31 1061,-20"/>
<polygon style="fill:midnightblue;stroke:midnightblue;" points="1062.43,-23.2259 1071,-17 1060.42,-16.5212 1062.43,-23.2259"/>
</g>
<!-- Node15&#45;&gt;Node8 -->
<g id="edge34" class="edge"><title>Node15&#45;&gt;Node8</title>
<path style="fill:none;stroke:midnightblue;" d="M1059,-56C1230,-44 1502,-25 1565,-20"/>
<polygon style="fill:midnightblue;stroke:midnightblue;" points="1565.4,-23.4778 1575,-19 1564.7,-16.5125 1565.4,-23.4778"/>
</g>
<!-- Node15&#45;&gt;Node16 -->
<g id="edge36" class="edge"><title>Node15&#45;&gt;Node16</title>
<path style="fill:none;stroke:midnightblue;" d="M1011,-56C1102,-46 1239,-31 1332,-21"/>
<polygon style="fill:midnightblue;stroke:midnightblue;" points="1332.4,-24.4778 1342,-20 1331.7,-17.5125 1332.4,-24.4778"/>
</g>
<!-- Node17&#45;&gt;Node6 -->
<g id="edge40" class="edge"><title>Node17&#45;&gt;Node6</title>
<path style="fill:none;stroke:midnightblue;" d="M1195,-56C1175,-47 1145,-34 1122,-24"/>
<polygon style="fill:midnightblue;stroke:midnightblue;" points="1123.56,-20.8631 1113,-20 1120.72,-27.2598 1123.56,-20.8631"/>
</g>
<!-- Node17&#45;&gt;Node8 -->
<g id="edge42" class="edge"><title>Node17&#45;&gt;Node8</title>
<path style="fill:none;stroke:midnightblue;" d="M1294,-56C1363,-47 1466,-34 1565,-20"/>
<polygon style="fill:midnightblue;stroke:midnightblue;" points="1565.4,-23.4778 1575,-19 1564.7,-16.5125 1565.4,-23.4778"/>
</g>
<!-- Node17&#45;&gt;Node16 -->
<g id="edge44" class="edge"><title>Node17&#45;&gt;Node16</title>
<path style="fill:none;stroke:midnightblue;" d="M1256,-56C1292,-47 1346,-33 1385,-23"/>
<polygon style="fill:midnightblue;stroke:midnightblue;" points="1386.43,-26.2259 1395,-20 1384.42,-19.5212 1386.43,-26.2259"/>
</g>
<!-- Node18&#45;&gt;Node6 -->
<g id="edge48" class="edge"><title>Node18&#45;&gt;Node6</title>
<path style="fill:none;stroke:midnightblue;" d="M1456,-56C1356,-44 1192,-22 1123,-14"/>
<polygon style="fill:midnightblue;stroke:midnightblue;" points="1123.3,-10.5125 1113,-13 1122.6,-17.4778 1123.3,-10.5125"/>
</g>
<!-- Node18&#45;&gt;Node8 -->
<g id="edge50" class="edge"><title>Node18&#45;&gt;Node8</title>
<path style="fill:none;stroke:midnightblue;" d="M1553,-56C1568,-47 1591,-35 1609,-25"/>
<polygon style="fill:midnightblue;stroke:midnightblue;" points="1610.96,-27.916 1618,-20 1607.56,-21.7969 1610.96,-27.916"/>
</g>
<!-- Node18&#45;&gt;Node16 -->
<g id="edge52" class="edge"><title>Node18&#45;&gt;Node16</title>
<path style="fill:none;stroke:midnightblue;" d="M1517,-56C1502,-47 1479,-35 1461,-25"/>
<polygon style="fill:midnightblue;stroke:midnightblue;" points="1462.44,-21.7969 1452,-20 1459.04,-27.916 1462.44,-21.7969"/>
</g>
<!-- Node19&#45;&gt;Node6 -->
<g id="edge56" class="edge"><title>Node19&#45;&gt;Node6</title>
<path style="fill:none;stroke:midnightblue;" d="M1727,-56C1541,-42 1223,-20 1123,-13"/>
<polygon style="fill:midnightblue;stroke:midnightblue;" points="1123.3,-9.5125 1113,-12 1122.6,-16.4778 1123.3,-9.5125"/>
</g>
<!-- Node19&#45;&gt;Node8 -->
<g id="edge58" class="edge"><title>Node19&#45;&gt;Node8</title>
<path style="fill:none;stroke:midnightblue;" d="M1824,-56C1785,-47 1728,-32 1687,-22"/>
<polygon style="fill:midnightblue;stroke:midnightblue;" points="1687.49,-18.5292 1677,-20 1686.12,-25.3933 1687.49,-18.5292"/>
</g>
<!-- Node19&#45;&gt;Node16 -->
<g id="edge60" class="edge"><title>Node19&#45;&gt;Node16</title>
<path style="fill:none;stroke:midnightblue;" d="M1788,-56C1713,-46 1599,-31 1521,-21"/>
<polygon style="fill:midnightblue;stroke:midnightblue;" points="1521.3,-17.5125 1511,-20 1520.6,-24.4778 1521.3,-17.5125"/>
</g>
<!-- Node22&#45;&gt;Node4 -->
<g id="edge68" class="edge"><title>Node22&#45;&gt;Node4</title>
<path style="fill:none;stroke:midnightblue;" d="M222,-56C204,-47 177,-34 156,-24"/>
<polygon style="fill:midnightblue;stroke:midnightblue;" points="157.56,-20.8631 147,-20 154.717,-27.2598 157.56,-20.8631"/>
</g>
<!-- Node22&#45;&gt;Node21 -->
<g id="edge70" class="edge"><title>Node22&#45;&gt;Node21</title>
<path style="fill:none;stroke:midnightblue;" d="M261,-56C276,-47 299,-35 317,-25"/>
<polygon style="fill:midnightblue;stroke:midnightblue;" points="318.958,-27.916 326,-20 315.559,-21.7969 318.958,-27.916"/>
</g>
<!-- Node23 -->
<g id="node59" class="node"><title>Node23</title>
<polygon style="fill:white;stroke:#bfbfbf;" points="165,-0 165,-20 267,-20 267,-0 165,-0"/>
<text text-anchor="middle" x="216" y="-7" style="font-family:Arial;font-size:10.00;">ltr/data/object_list.h</text>
</g>
<!-- Node22&#45;&gt;Node23 -->
<g id="edge72" class="edge"><title>Node22&#45;&gt;Node23</title>
<path style="fill:none;stroke:midnightblue;" d="M238,-56C234,-49 229,-38 225,-29"/>
<polygon style="fill:midnightblue;stroke:midnightblue;" points="228.26,-27.7166 221,-20 221.863,-30.5596 228.26,-27.7166"/>
</g>
</g>
</svg>
