<?xml version="1.0" encoding="UTF-8" standalone="no"?>
<!DOCTYPE svg PUBLIC "-//W3C//DTD SVG 1.0//EN"
 "http://www.w3.org/TR/2001/REC-SVG-20010904/DTD/svg10.dtd" [
 <!ATTLIST svg xmlns:xlink CDATA #FIXED "http://www.w3.org/1999/xlink">
]>
<!-- Generated by Graphviz version 2.20.2 (Tue Mar &#160;2 19:03:41 UTC 2010)
     For user: (jenkins)  -->
<!-- Title: G Pages: 1 -->
<svg width="2314pt" height="476pt"
 viewBox="0.00 0.00 2314.00 476.00" xmlns="http://www.w3.org/2000/svg" xmlns:xlink="http://www.w3.org/1999/xlink">
<g id="graph0" class="graph" transform="scale(1 1) rotate(0) translate(4 472)">
<title>G</title>
<polygon style="fill:white;stroke:white;" points="-4,4 -4,-472 2310,-472 2310,4 -4,4"/>
<!-- Node1 -->
<g id="node1" class="node"><title>Node1</title>
<polygon style="fill:#bfbfbf;stroke:black;" points="935,-448 935,-468 1048,-468 1048,-448 935,-448"/>
<text text-anchor="middle" x="991" y="-455" style="font-family:Arial;font-size:10.00;">ltr/scorers/gp_scorer.h</text>
</g>
<!-- Node2 -->
<g id="node3" class="node"><title>Node2</title>
<polygon style="fill:white;stroke:#bfbfbf;" points="269,-56 269,-76 311,-76 311,-56 269,-56"/>
<text text-anchor="middle" x="290" y="-63" style="font-family:Arial;font-size:10.00;">vector</text>
</g>
<!-- Node1&#45;&gt;Node2 -->
<g id="edge2" class="edge"><title>Node1&#45;&gt;Node2</title>
<path style="fill:none;stroke:midnightblue;" d="M935,-457C741,-452 114,-429 114,-346 114,-346 114,-346 114,-178 114,-143 209,-99 260,-78"/>
<polygon style="fill:midnightblue;stroke:midnightblue;" points="261.283,-81.2598 269,-74 258.44,-74.8631 261.283,-81.2598"/>
</g>
<!-- Node3 -->
<g id="node5" class="node"><title>Node3</title>
<polygon style="fill:white;stroke:#bfbfbf;" points="918,-0 918,-20 958,-20 958,-0 918,-0"/>
<text text-anchor="middle" x="938" y="-7" style="font-family:Arial;font-size:10.00;">string</text>
</g>
<!-- Node1&#45;&gt;Node3 -->
<g id="edge4" class="edge"><title>Node1&#45;&gt;Node3</title>
<path style="fill:none;stroke:midnightblue;" d="M935,-458C725,-455 0,-440 0,-346 0,-346 0,-346 0,-122 0,-30 106,-73 195,-56 266,-42 777,-17 908,-11"/>
<polygon style="fill:midnightblue;stroke:midnightblue;" points="908,-14.5001 918,-11 908,-7.5001 908,-14.5001"/>
</g>
<!-- Node4 -->
<g id="node7" class="node"><title>Node4</title>
<polygon style="fill:white;stroke:#bfbfbf;" points="218,-224 218,-244 269,-244 269,-224 218,-224"/>
<text text-anchor="middle" x="243" y="-231" style="font-family:Arial;font-size:10.00;">sstream</text>
</g>
<!-- Node1&#45;&gt;Node4 -->
<g id="edge6" class="edge"><title>Node1&#45;&gt;Node4</title>
<path style="fill:none;stroke:midnightblue;" d="M943,-448C899,-439 832,-425 775,-412 562,-364 482,-415 297,-300 278,-288 263,-268 253,-253"/>
<polygon style="fill:midnightblue;stroke:midnightblue;" points="255.916,-251.042 248,-244 249.797,-254.441 255.916,-251.042"/>
</g>
<!-- Node5 -->
<g id="node9" class="node"><title>Node5</title>
<polygon style="fill:white;stroke:#bfbfbf;" points="674,-56 674,-76 733,-76 733,-56 674,-56"/>
<text text-anchor="middle" x="703" y="-63" style="font-family:Arial;font-size:10.00;">stdexcept</text>
</g>
<!-- Node1&#45;&gt;Node5 -->
<g id="edge8" class="edge"><title>Node1&#45;&gt;Node5</title>
<path style="fill:none;stroke:midnightblue;" d="M935,-451C868,-443 754,-428 656,-412 446,-377 293,-438 209,-244 170,-154 540,-91 664,-72"/>
<polygon style="fill:midnightblue;stroke:midnightblue;" points="664.881,-75.3933 674,-70 663.508,-68.5292 664.881,-75.3933"/>
</g>
<!-- Node6 -->
<g id="node11" class="node"><title>Node6</title>
<polygon style="fill:white;stroke:#bfbfbf;" points="2155,-168 2155,-188 2278,-188 2278,-168 2155,-168"/>
<text text-anchor="middle" x="2216" y="-175" style="font-family:Arial;font-size:10.00;">contrib/puppy/Puppy.hpp</text>
</g>
<!-- Node1&#45;&gt;Node6 -->
<g id="edge10" class="edge"><title>Node1&#45;&gt;Node6</title>
<path style="fill:none;stroke:midnightblue;" d="M1048,-457C1224,-452 1756,-438 1927,-412 2041,-394 2180,-462 2180,-346 2180,-346 2180,-346 2180,-290 2180,-255 2195,-219 2205,-197"/>
<polygon style="fill:midnightblue;stroke:midnightblue;" points="2208.2,-198.441 2210,-188 2202.08,-195.042 2208.2,-198.441"/>
</g>
<!-- Node7 -->
<g id="node13" class="node"><title>Node7</title>
<a xlink:href="data__set_8h.html" target="_top" xlink:title="ltr/data/data_set.h">
<polygon style="fill:white;stroke:black;" points="406,-280 406,-300 501,-300 501,-280 406,-280"/>
<text text-anchor="middle" x="453" y="-287" style="font-family:Arial;font-size:10.00;">ltr/data/data_set.h</text>
</a>
</g>
<!-- Node1&#45;&gt;Node7 -->
<g id="edge12" class="edge"><title>Node1&#45;&gt;Node7</title>
<path style="fill:none;stroke:midnightblue;" d="M958,-448C897,-430 766,-390 656,-356 599,-338 534,-316 493,-303"/>
<polygon style="fill:midnightblue;stroke:midnightblue;" points="493.584,-299.521 483,-300 491.573,-306.226 493.584,-299.521"/>
</g>
<!-- Node12 -->
<g id="node32" class="node"><title>Node12</title>
<a xlink:href="shared__ptr_8h.html" target="_top" xlink:title="ltr/utility/shared_ptr.h">
<polygon style="fill:white;stroke:black;" points="1436,-56 1436,-76 1543,-76 1543,-56 1436,-56"/>
<text text-anchor="middle" x="1489" y="-63" style="font-family:Arial;font-size:10.00;">ltr/utility/shared_ptr.h</text>
</a>
</g>
<!-- Node1&#45;&gt;Node12 -->
<g id="edge156" class="edge"><title>Node1&#45;&gt;Node12</title>
<path style="fill:none;stroke:midnightblue;" d="M1048,-457C1239,-454 1855,-441 2052,-412 2166,-394 2305,-462 2305,-346 2305,-346 2305,-346 2305,-234 2305,-203 2307,-189 2286,-168 2217,-100 2171,-128 2077,-112 1888,-79 1662,-70 1553,-67"/>
<polygon style="fill:midnightblue;stroke:midnightblue;" points="1553,-63.5001 1543,-67 1553,-70.5001 1553,-63.5001"/>
</g>
<!-- Node19 -->
<g id="node61" class="node"><title>Node19</title>
<a xlink:href="parameterized_8h.html" target="_top" xlink:title="ltr/interfaces/parameterized.h">
<polygon style="fill:white;stroke:black;" points="1004,-168 1004,-188 1146,-188 1146,-168 1004,-168"/>
<text text-anchor="middle" x="1075" y="-175" style="font-family:Arial;font-size:10.00;">ltr/interfaces/parameterized.h</text>
</a>
</g>
<!-- Node1&#45;&gt;Node19 -->
<g id="edge154" class="edge"><title>Node1&#45;&gt;Node19</title>
<path style="fill:none;stroke:midnightblue;" d="M1048,-454C1162,-446 1408,-419 1408,-346 1408,-346 1408,-346 1408,-290 1408,-237 1255,-204 1156,-189"/>
<polygon style="fill:midnightblue;stroke:midnightblue;" points="1156.49,-185.529 1146,-187 1155.12,-192.393 1156.49,-185.529"/>
</g>
<!-- Node27 -->
<g id="node90" class="node"><title>Node27</title>
<a xlink:href="gp__primitives_8h.html" target="_top" xlink:title="ltr/learners/gp_learner/gp_primitives.h">
<polygon style="fill:white;stroke:black;" points="1941,-224 1941,-244 2118,-244 2118,-224 1941,-224"/>
<text text-anchor="middle" x="2029" y="-231" style="font-family:Arial;font-size:10.00;">ltr/learners/gp_learner/gp_primitives.h</text>
</a>
</g>
<!-- Node1&#45;&gt;Node27 -->
<g id="edge126" class="edge"><title>Node1&#45;&gt;Node27</title>
<path style="fill:none;stroke:midnightblue;" d="M1048,-456C1242,-451 1867,-432 1905,-412 1969,-376 2007,-292 2022,-254"/>
<polygon style="fill:midnightblue;stroke:midnightblue;" points="2025.54,-254.585 2026,-244 2019.04,-251.985 2025.54,-254.585"/>
</g>
<!-- Node29 -->
<g id="node97" class="node"><title>Node29</title>
<a xlink:href="serializable_8h.html" target="_top" xlink:title="ltr/interfaces/serializable.h">
<polygon style="fill:white;stroke:black;" points="1835,-168 1835,-188 1964,-188 1964,-168 1835,-168"/>
<text text-anchor="middle" x="1899" y="-175" style="font-family:Arial;font-size:10.00;">ltr/interfaces/serializable.h</text>
</a>
</g>
<!-- Node1&#45;&gt;Node29 -->
<g id="edge152" class="edge"><title>Node1&#45;&gt;Node29</title>
<path style="fill:none;stroke:midnightblue;" d="M1048,-457C1247,-452 1891,-431 1891,-346 1891,-346 1891,-346 1891,-290 1891,-257 1895,-221 1897,-198"/>
<polygon style="fill:midnightblue;stroke:midnightblue;" points="1900.49,-198.299 1898,-188 1893.52,-197.602 1900.49,-198.299"/>
</g>
<!-- Node32 -->
<g id="node111" class="node"><title>Node32</title>
<a xlink:href="scorer_8h.html" target="_top" xlink:title="ltr/scorers/scorer.h">
<polygon style="fill:white;stroke:black;" points="943,-392 943,-412 1040,-412 1040,-392 943,-392"/>
<text text-anchor="middle" x="991" y="-399" style="font-family:Arial;font-size:10.00;">ltr/scorers/scorer.h</text>
</a>
</g>
<!-- Node1&#45;&gt;Node32 -->
<g id="edge158" class="edge"><title>Node1&#45;&gt;Node32</title>
<path style="fill:none;stroke:midnightblue;" d="M991,-448C991,-441 991,-431 991,-422"/>
<polygon style="fill:midnightblue;stroke:midnightblue;" points="994.5,-422 991,-412 987.5,-422 994.5,-422"/>
</g>
<!-- Node7&#45;&gt;Node2 -->
<g id="edge20" class="edge"><title>Node7&#45;&gt;Node2</title>
<path style="fill:none;stroke:midnightblue;" d="M437,-280C393,-252 272,-174 252,-132 244,-114 256,-96 269,-83"/>
<polygon style="fill:midnightblue;stroke:midnightblue;" points="271.779,-85.2191 277,-76 267.169,-79.9511 271.779,-85.2191"/>
</g>
<!-- Node7&#45;&gt;Node3 -->
<g id="edge18" class="edge"><title>Node7&#45;&gt;Node3</title>
<path style="fill:none;stroke:midnightblue;" d="M426,-280C404,-271 374,-258 350,-244 315,-223 305,-217 279,-188 238,-142 200,-100 242,-56 254,-43 775,-17 908,-11"/>
<polygon style="fill:midnightblue;stroke:midnightblue;" points="908,-14.5001 918,-11 908,-7.5001 908,-14.5001"/>
</g>
<!-- Node7&#45;&gt;Node4 -->
<g id="edge14" class="edge"><title>Node7&#45;&gt;Node4</title>
<path style="fill:none;stroke:midnightblue;" d="M415,-280C376,-270 317,-254 279,-244"/>
<polygon style="fill:midnightblue;stroke:midnightblue;" points="279.584,-240.521 269,-241 277.573,-247.226 279.584,-240.521"/>
</g>
<!-- Node7&#45;&gt;Node5 -->
<g id="edge16" class="edge"><title>Node7&#45;&gt;Node5</title>
<path style="fill:none;stroke:midnightblue;" d="M447,-280C435,-257 410,-203 434,-168 460,-129 596,-92 664,-75"/>
<polygon style="fill:midnightblue;stroke:midnightblue;" points="664.881,-78.3933 674,-73 663.508,-71.5292 664.881,-78.3933"/>
</g>
<!-- Node8 -->
<g id="node19" class="node"><title>Node8</title>
<a xlink:href="object_8h.html" target="_top" xlink:title="ltr/data/object.h">
<polygon style="fill:white;stroke:black;" points="712,-112 712,-132 796,-132 796,-112 712,-112"/>
<text text-anchor="middle" x="754" y="-119" style="font-family:Arial;font-size:10.00;">ltr/data/object.h</text>
</a>
</g>
<!-- Node7&#45;&gt;Node8 -->
<g id="edge22" class="edge"><title>Node7&#45;&gt;Node8</title>
<path style="fill:none;stroke:midnightblue;" d="M481,-280C524,-264 610,-229 676,-188 698,-174 721,-153 737,-139"/>
<polygon style="fill:midnightblue;stroke:midnightblue;" points="739.404,-141.546 744,-132 734.454,-136.596 739.404,-141.546"/>
</g>
<!-- Node16 -->
<g id="node40" class="node"><title>Node16</title>
<a xlink:href="object__list_8h.html" target="_top" xlink:title="ltr/data/object_list.h">
<polygon style="fill:white;stroke:black;" points="443,-168 443,-188 545,-188 545,-168 443,-168"/>
<text text-anchor="middle" x="494" y="-175" style="font-family:Arial;font-size:10.00;">ltr/data/object_list.h</text>
</a>
</g>
<!-- Node7&#45;&gt;Node16 -->
<g id="edge48" class="edge"><title>Node7&#45;&gt;Node16</title>
<path style="fill:none;stroke:midnightblue;" d="M457,-280C461,-267 470,-243 477,-224 480,-215 484,-205 487,-197"/>
<polygon style="fill:midnightblue;stroke:midnightblue;" points="490.158,-198.594 490,-188 483.517,-196.38 490.158,-198.594"/>
</g>
<!-- Node17 -->
<g id="node48" class="node"><title>Node17</title>
<a xlink:href="object__pair_8h.html" target="_top" xlink:title="ltr/data/object_pair.h">
<polygon style="fill:white;stroke:black;" points="563,-168 563,-188 667,-188 667,-168 563,-168"/>
<text text-anchor="middle" x="615" y="-175" style="font-family:Arial;font-size:10.00;">ltr/data/object_pair.h</text>
</a>
</g>
<!-- Node7&#45;&gt;Node17 -->
<g id="edge62" class="edge"><title>Node7&#45;&gt;Node17</title>
<path style="fill:none;stroke:midnightblue;" d="M468,-280C496,-260 558,-218 592,-194"/>
<polygon style="fill:midnightblue;stroke:midnightblue;" points="594.1,-196.8 600,-188 589.9,-191.2 594.1,-196.8"/>
</g>
<!-- Node18 -->
<g id="node56" class="node"><title>Node18</title>
<a xlink:href="feature__info_8h.html" target="_top" xlink:title="ltr/data/feature_info.h">
<polygon style="fill:white;stroke:black;" points="938,-224 938,-244 1045,-244 1045,-224 938,-224"/>
<text text-anchor="middle" x="991" y="-231" style="font-family:Arial;font-size:10.00;">ltr/data/feature_info.h</text>
</a>
</g>
<!-- Node7&#45;&gt;Node18 -->
<g id="edge76" class="edge"><title>Node7&#45;&gt;Node18</title>
<path style="fill:none;stroke:midnightblue;" d="M501,-285C599,-274 819,-251 928,-240"/>
<polygon style="fill:midnightblue;stroke:midnightblue;" points="928.398,-243.478 938,-239 927.701,-236.512 928.398,-243.478"/>
</g>
<!-- Node25 -->
<g id="node80" class="node"><title>Node25</title>
<a xlink:href="per__object__accessor_8h.html" target="_top" xlink:title="ltr/data/per_object_accessor.h">
<polygon style="fill:white;stroke:black;" points="698,-224 698,-244 845,-244 845,-224 698,-224"/>
<text text-anchor="middle" x="771" y="-231" style="font-family:Arial;font-size:10.00;">ltr/data/per_object_accessor.h</text>
</a>
</g>
<!-- Node7&#45;&gt;Node25 -->
<g id="edge110" class="edge"><title>Node7&#45;&gt;Node25</title>
<path style="fill:none;stroke:midnightblue;" d="M501,-281C555,-272 643,-257 704,-246"/>
<polygon style="fill:midnightblue;stroke:midnightblue;" points="704.881,-249.393 714,-244 703.508,-242.529 704.881,-249.393"/>
</g>
<!-- Node26 -->
<g id="node87" class="node"><title>Node26</title>
<a xlink:href="aliaser_8h.html" target="_top" xlink:title="ltr/interfaces/aliaser.h">
<polygon style="fill:white;stroke:black;" points="1474,-112 1474,-132 1582,-132 1582,-112 1474,-112"/>
<text text-anchor="middle" x="1528" y="-119" style="font-family:Arial;font-size:10.00;">ltr/interfaces/aliaser.h</text>
</a>
</g>
<!-- Node7&#45;&gt;Node26 -->
<g id="edge122" class="edge"><title>Node7&#45;&gt;Node26</title>
<path style="fill:none;stroke:midnightblue;" d="M501,-289C603,-287 850,-277 1053,-244 1216,-217 1405,-161 1487,-135"/>
<polygon style="fill:midnightblue;stroke:midnightblue;" points="1488.43,-138.226 1497,-132 1486.42,-131.521 1488.43,-138.226"/>
</g>
<!-- Node8&#45;&gt;Node2 -->
<g id="edge32" class="edge"><title>Node8&#45;&gt;Node2</title>
<path style="fill:none;stroke:midnightblue;" d="M712,-117C619,-106 402,-79 321,-70"/>
<polygon style="fill:midnightblue;stroke:midnightblue;" points="321.299,-66.5125 311,-69 320.602,-73.4778 321.299,-66.5125"/>
</g>
<!-- Node8&#45;&gt;Node3 -->
<g id="edge30" class="edge"><title>Node8&#45;&gt;Node3</title>
<path style="fill:none;stroke:midnightblue;" d="M768,-112C788,-99 824,-74 855,-56 873,-45 894,-34 910,-25"/>
<polygon style="fill:midnightblue;stroke:midnightblue;" points="911.958,-27.916 919,-20 908.559,-21.7969 911.958,-27.916"/>
</g>
<!-- Node8&#45;&gt;Node5 -->
<g id="edge28" class="edge"><title>Node8&#45;&gt;Node5</title>
<path style="fill:none;stroke:midnightblue;" d="M745,-112C738,-104 728,-93 719,-83"/>
<polygon style="fill:midnightblue;stroke:midnightblue;" points="721.546,-80.5962 712,-76 716.596,-85.546 721.546,-80.5962"/>
</g>
<!-- Node9 -->
<g id="node21" class="node"><title>Node9</title>
<polygon style="fill:white;stroke:#bfbfbf;" points="864,-56 864,-76 899,-76 899,-56 864,-56"/>
<text text-anchor="middle" x="881" y="-63" style="font-family:Arial;font-size:10.00;">map</text>
</g>
<!-- Node8&#45;&gt;Node9 -->
<g id="edge24" class="edge"><title>Node8&#45;&gt;Node9</title>
<path style="fill:none;stroke:midnightblue;" d="M777,-112C799,-102 831,-88 855,-78"/>
<polygon style="fill:midnightblue;stroke:midnightblue;" points="856.283,-81.2598 864,-74 853.44,-74.8631 856.283,-81.2598"/>
</g>
<!-- Node10 -->
<g id="node23" class="node"><title>Node10</title>
<polygon style="fill:white;stroke:#bfbfbf;" points="635,-0 635,-20 686,-20 686,-0 635,-0"/>
<text text-anchor="middle" x="660" y="-7" style="font-family:Arial;font-size:10.00;">ostream</text>
</g>
<!-- Node8&#45;&gt;Node10 -->
<g id="edge26" class="edge"><title>Node8&#45;&gt;Node10</title>
<path style="fill:none;stroke:midnightblue;" d="M754,-112C754,-98 753,-73 741,-56 729,-40 712,-29 696,-22"/>
<polygon style="fill:midnightblue;stroke:midnightblue;" points="696.585,-18.4643 686,-18 693.985,-24.9636 696.585,-18.4643"/>
</g>
<!-- Node11 -->
<g id="node28" class="node"><title>Node11</title>
<a xlink:href="printable_8h.html" target="_top" xlink:title="ltr/interfaces/printable.h">
<polygon style="fill:white;stroke:black;" points="502,-56 502,-76 619,-76 619,-56 502,-56"/>
<text text-anchor="middle" x="560" y="-63" style="font-family:Arial;font-size:10.00;">ltr/interfaces/printable.h</text>
</a>
</g>
<!-- Node8&#45;&gt;Node11 -->
<g id="edge34" class="edge"><title>Node8&#45;&gt;Node11</title>
<path style="fill:none;stroke:midnightblue;" d="M719,-112C687,-103 640,-89 605,-79"/>
<polygon style="fill:midnightblue;stroke:midnightblue;" points="605.584,-75.5212 595,-76 603.573,-82.2259 605.584,-75.5212"/>
</g>
<!-- Node8&#45;&gt;Node12 -->
<g id="edge40" class="edge"><title>Node8&#45;&gt;Node12</title>
<path style="fill:none;stroke:midnightblue;" d="M796,-119C919,-109 1279,-82 1426,-71"/>
<polygon style="fill:midnightblue;stroke:midnightblue;" points="1426.4,-74.4778 1436,-70 1425.7,-67.5125 1426.4,-74.4778"/>
</g>
<!-- Node11&#45;&gt;Node3 -->
<g id="edge38" class="edge"><title>Node11&#45;&gt;Node3</title>
<path style="fill:none;stroke:midnightblue;" d="M619,-57C700,-46 845,-24 908,-14"/>
<polygon style="fill:midnightblue;stroke:midnightblue;" points="908.398,-17.4778 918,-13 907.701,-10.5125 908.398,-17.4778"/>
</g>
<!-- Node11&#45;&gt;Node10 -->
<g id="edge36" class="edge"><title>Node11&#45;&gt;Node10</title>
<path style="fill:none;stroke:midnightblue;" d="M578,-56C593,-48 615,-35 633,-25"/>
<polygon style="fill:midnightblue;stroke:midnightblue;" points="634.958,-27.916 642,-20 631.559,-21.7969 634.958,-27.916"/>
</g>
<!-- Node13 -->
<g id="node34" class="node"><title>Node13</title>
<polygon style="fill:white;stroke:#bfbfbf;" points="1362,-0 1362,-20 1418,-20 1418,-0 1362,-0"/>
<text text-anchor="middle" x="1390" y="-7" style="font-family:Arial;font-size:10.00;">algorithm</text>
</g>
<!-- Node12&#45;&gt;Node13 -->
<g id="edge42" class="edge"><title>Node12&#45;&gt;Node13</title>
<path style="fill:none;stroke:midnightblue;" d="M1471,-56C1456,-48 1434,-35 1417,-25"/>
<polygon style="fill:midnightblue;stroke:midnightblue;" points="1418.44,-21.7969 1408,-20 1415.04,-27.916 1418.44,-21.7969"/>
</g>
<!-- Node14 -->
<g id="node36" class="node"><title>Node14</title>
<polygon style="fill:white;stroke:#bfbfbf;" points="1436,-0 1436,-20 1543,-20 1543,-0 1436,-0"/>
<text text-anchor="middle" x="1489" y="-7" style="font-family:Arial;font-size:10.00;">boost/shared_ptr.hpp</text>
</g>
<!-- Node12&#45;&gt;Node14 -->
<g id="edge44" class="edge"><title>Node12&#45;&gt;Node14</title>
<path style="fill:none;stroke:midnightblue;" d="M1489,-56C1489,-49 1489,-39 1489,-30"/>
<polygon style="fill:midnightblue;stroke:midnightblue;" points="1492.5,-30 1489,-20 1485.5,-30 1492.5,-30"/>
</g>
<!-- Node15 -->
<g id="node38" class="node"><title>Node15</title>
<polygon style="fill:white;stroke:#bfbfbf;" points="1560,-0 1560,-20 1751,-20 1751,-0 1560,-0"/>
<text text-anchor="middle" x="1655" y="-7" style="font-family:Arial;font-size:10.00;">boost/smart_ptr/detail/operator_bool.hpp</text>
</g>
<!-- Node12&#45;&gt;Node15 -->
<g id="edge46" class="edge"><title>Node12&#45;&gt;Node15</title>
<path style="fill:none;stroke:midnightblue;" d="M1519,-56C1546,-47 1586,-33 1615,-23"/>
<polygon style="fill:midnightblue;stroke:midnightblue;" points="1616.43,-26.2259 1625,-20 1614.42,-19.5212 1616.43,-26.2259"/>
</g>
<!-- Node16&#45;&gt;Node2 -->
<g id="edge54" class="edge"><title>Node16&#45;&gt;Node2</title>
<path style="fill:none;stroke:midnightblue;" d="M455,-168C429,-160 394,-148 366,-132 343,-119 321,-98 306,-83"/>
<polygon style="fill:midnightblue;stroke:midnightblue;" points="308.546,-80.5962 299,-76 303.596,-85.546 308.546,-80.5962"/>
</g>
<!-- Node16&#45;&gt;Node3 -->
<g id="edge52" class="edge"><title>Node16&#45;&gt;Node3</title>
<path style="fill:none;stroke:midnightblue;" d="M443,-170C357,-156 200,-119 260,-56 271,-43 777,-17 908,-11"/>
<polygon style="fill:midnightblue;stroke:midnightblue;" points="908,-14.5001 918,-11 908,-7.5001 908,-14.5001"/>
</g>
<!-- Node16&#45;&gt;Node5 -->
<g id="edge50" class="edge"><title>Node16&#45;&gt;Node5</title>
<path style="fill:none;stroke:midnightblue;" d="M513,-168C549,-148 632,-104 675,-81"/>
<polygon style="fill:midnightblue;stroke:midnightblue;" points="676.958,-83.916 684,-76 673.559,-77.7969 676.958,-83.916"/>
</g>
<!-- Node16&#45;&gt;Node8 -->
<g id="edge56" class="edge"><title>Node16&#45;&gt;Node8</title>
<path style="fill:none;stroke:midnightblue;" d="M540,-168C586,-159 655,-143 702,-133"/>
<polygon style="fill:midnightblue;stroke:midnightblue;" points="702.881,-136.393 712,-131 701.508,-129.529 702.881,-136.393"/>
</g>
<!-- Node16&#45;&gt;Node11 -->
<g id="edge58" class="edge"><title>Node16&#45;&gt;Node11</title>
<path style="fill:none;stroke:midnightblue;" d="M500,-168C511,-149 534,-109 549,-85"/>
<polygon style="fill:midnightblue;stroke:midnightblue;" points="552.203,-86.4414 554,-76 546.084,-83.0418 552.203,-86.4414"/>
</g>
<!-- Node16&#45;&gt;Node12 -->
<g id="edge60" class="edge"><title>Node16&#45;&gt;Node12</title>
<path style="fill:none;stroke:midnightblue;" d="M545,-169C548,-168 551,-168 554,-168 696,-152 1061,-174 1199,-132 1215,-126 1215,-118 1232,-112 1295,-88 1373,-76 1426,-71"/>
<polygon style="fill:midnightblue;stroke:midnightblue;" points="1426.4,-74.4778 1436,-70 1425.7,-67.5125 1426.4,-74.4778"/>
</g>
<!-- Node17&#45;&gt;Node2 -->
<g id="edge68" class="edge"><title>Node17&#45;&gt;Node2</title>
<path style="fill:none;stroke:midnightblue;" d="M586,-168C524,-146 384,-98 321,-76"/>
<polygon style="fill:midnightblue;stroke:midnightblue;" points="321.584,-72.5212 311,-73 319.573,-79.2259 321.584,-72.5212"/>
</g>
<!-- Node17&#45;&gt;Node3 -->
<g id="edge66" class="edge"><title>Node17&#45;&gt;Node3</title>
<path style="fill:none;stroke:midnightblue;" d="M616,-168C619,-144 629,-84 665,-56 702,-26 844,-15 908,-12"/>
<polygon style="fill:midnightblue;stroke:midnightblue;" points="908.398,-15.4778 918,-11 907.701,-8.5125 908.398,-15.4778"/>
</g>
<!-- Node17&#45;&gt;Node5 -->
<g id="edge64" class="edge"><title>Node17&#45;&gt;Node5</title>
<path style="fill:none;stroke:midnightblue;" d="M626,-168C635,-159 649,-145 660,-132 671,-117 683,-98 692,-85"/>
<polygon style="fill:midnightblue;stroke:midnightblue;" points="695.203,-86.4414 697,-76 689.084,-83.0418 695.203,-86.4414"/>
</g>
<!-- Node17&#45;&gt;Node8 -->
<g id="edge70" class="edge"><title>Node17&#45;&gt;Node8</title>
<path style="fill:none;stroke:midnightblue;" d="M640,-168C662,-159 695,-146 720,-136"/>
<polygon style="fill:midnightblue;stroke:midnightblue;" points="721.283,-139.26 729,-132 718.44,-132.863 721.283,-139.26"/>
</g>
<!-- Node17&#45;&gt;Node11 -->
<g id="edge72" class="edge"><title>Node17&#45;&gt;Node11</title>
<path style="fill:none;stroke:midnightblue;" d="M610,-168C600,-149 581,-110 569,-85"/>
<polygon style="fill:midnightblue;stroke:midnightblue;" points="572.26,-83.7166 565,-76 565.863,-86.5596 572.26,-83.7166"/>
</g>
<!-- Node17&#45;&gt;Node12 -->
<g id="edge74" class="edge"><title>Node17&#45;&gt;Node12</title>
<path style="fill:none;stroke:midnightblue;" d="M667,-176C796,-171 1125,-157 1232,-132 1254,-126 1257,-118 1280,-112 1328,-96 1384,-85 1426,-77"/>
<polygon style="fill:midnightblue;stroke:midnightblue;" points="1426.88,-80.3933 1436,-75 1425.51,-73.5292 1426.88,-80.3933"/>
</g>
<!-- Node18&#45;&gt;Node2 -->
<g id="edge82" class="edge"><title>Node18&#45;&gt;Node2</title>
<path style="fill:none;stroke:midnightblue;" d="M938,-230C801,-219 445,-191 434,-188 384,-173 370,-166 333,-132 319,-118 307,-99 299,-85"/>
<polygon style="fill:midnightblue;stroke:midnightblue;" points="302.26,-83.7166 295,-76 295.863,-86.5596 302.26,-83.7166"/>
</g>
<!-- Node18&#45;&gt;Node3 -->
<g id="edge80" class="edge"><title>Node18&#45;&gt;Node3</title>
<path style="fill:none;stroke:midnightblue;" d="M987,-224C980,-206 965,-166 957,-132 948,-97 943,-55 940,-30"/>
<polygon style="fill:midnightblue;stroke:midnightblue;" points="943.478,-29.6021 939,-20 936.512,-30.2987 943.478,-29.6021"/>
</g>
<!-- Node18&#45;&gt;Node9 -->
<g id="edge78" class="edge"><title>Node18&#45;&gt;Node9</title>
<path style="fill:none;stroke:midnightblue;" d="M984,-224C972,-205 946,-165 924,-132 914,-116 902,-98 893,-85"/>
<polygon style="fill:midnightblue;stroke:midnightblue;" points="895.916,-83.0418 888,-76 889.797,-86.4414 895.916,-83.0418"/>
</g>
<!-- Node18&#45;&gt;Node12 -->
<g id="edge108" class="edge"><title>Node18&#45;&gt;Node12</title>
<path style="fill:none;stroke:midnightblue;" d="M1029,-224C1063,-215 1112,-202 1155,-188 1265,-152 1393,-103 1453,-80"/>
<polygon style="fill:midnightblue;stroke:midnightblue;" points="1455.02,-82.9636 1463,-76 1452.42,-76.4643 1455.02,-82.9636"/>
</g>
<!-- Node18&#45;&gt;Node19 -->
<g id="edge84" class="edge"><title>Node18&#45;&gt;Node19</title>
<path style="fill:none;stroke:midnightblue;" d="M1006,-224C1018,-216 1036,-203 1051,-194"/>
<polygon style="fill:midnightblue;stroke:midnightblue;" points="1053.62,-196.459 1060,-188 1049.74,-190.635 1053.62,-196.459"/>
</g>
<!-- Node19&#45;&gt;Node3 -->
<g id="edge88" class="edge"><title>Node19&#45;&gt;Node3</title>
<path style="fill:none;stroke:midnightblue;" d="M1118,-168C1186,-150 1307,-110 1260,-56 1241,-33 1045,-18 968,-12"/>
<polygon style="fill:midnightblue;stroke:midnightblue;" points="968.299,-8.5125 958,-11 967.602,-15.4778 968.299,-8.5125"/>
</g>
<!-- Node19&#45;&gt;Node5 -->
<g id="edge86" class="edge"><title>Node19&#45;&gt;Node5</title>
<path style="fill:none;stroke:midnightblue;" d="M1042,-168C973,-147 817,-100 743,-78"/>
<polygon style="fill:midnightblue;stroke:midnightblue;" points="743.584,-74.5212 733,-75 741.573,-81.2259 743.584,-74.5212"/>
</g>
<!-- Node20 -->
<g id="node65" class="node"><title>Node20</title>
<a xlink:href="parameters__container_8h.html" target="_top" xlink:title="ltr/parameters_container/parameters_container.h">
<polygon style="fill:white;stroke:black;" points="966,-112 966,-132 1191,-132 1191,-112 966,-112"/>
<text text-anchor="middle" x="1078" y="-119" style="font-family:Arial;font-size:10.00;">ltr/parameters_container/parameters_container.h</text>
</a>
</g>
<!-- Node19&#45;&gt;Node20 -->
<g id="edge90" class="edge"><title>Node19&#45;&gt;Node20</title>
<path style="fill:none;stroke:midnightblue;" d="M1076,-168C1076,-161 1077,-151 1077,-142"/>
<polygon style="fill:midnightblue;stroke:midnightblue;" points="1080.5,-142 1077,-132 1073.5,-142 1080.5,-142"/>
</g>
<!-- Node20&#45;&gt;Node3 -->
<g id="edge98" class="edge"><title>Node20&#45;&gt;Node3</title>
<path style="fill:none;stroke:midnightblue;" d="M1175,-112C1225,-103 1269,-86 1243,-56 1225,-35 1042,-19 968,-13"/>
<polygon style="fill:midnightblue;stroke:midnightblue;" points="968.299,-9.5125 958,-12 967.602,-16.4778 968.299,-9.5125"/>
</g>
<!-- Node20&#45;&gt;Node5 -->
<g id="edge96" class="edge"><title>Node20&#45;&gt;Node5</title>
<path style="fill:none;stroke:midnightblue;" d="M1011,-112C933,-101 807,-82 743,-73"/>
<polygon style="fill:midnightblue;stroke:midnightblue;" points="743.492,-69.5292 733,-71 742.119,-76.3933 743.492,-69.5292"/>
</g>
<!-- Node20&#45;&gt;Node11 -->
<g id="edge106" class="edge"><title>Node20&#45;&gt;Node11</title>
<path style="fill:none;stroke:midnightblue;" d="M985,-112C883,-101 720,-83 629,-73"/>
<polygon style="fill:midnightblue;stroke:midnightblue;" points="629.299,-69.5125 619,-72 628.602,-76.4778 629.299,-69.5125"/>
</g>
<!-- Node20&#45;&gt;Node12 -->
<g id="edge104" class="edge"><title>Node20&#45;&gt;Node12</title>
<path style="fill:none;stroke:midnightblue;" d="M1151,-112C1229,-101 1351,-85 1426,-74"/>
<polygon style="fill:midnightblue;stroke:midnightblue;" points="1426.4,-77.4778 1436,-73 1425.7,-70.5125 1426.4,-77.4778"/>
</g>
<!-- Node21 -->
<g id="node67" class="node"><title>Node21</title>
<polygon style="fill:white;stroke:#bfbfbf;" points="1922,-56 1922,-76 1996,-76 1996,-56 1922,-56"/>
<text text-anchor="middle" x="1959" y="-63" style="font-family:Arial;font-size:10.00;">logog/logog.h</text>
</g>
<!-- Node20&#45;&gt;Node21 -->
<g id="edge92" class="edge"><title>Node20&#45;&gt;Node21</title>
<path style="fill:none;stroke:midnightblue;" d="M1191,-115C1386,-102 1777,-77 1912,-69"/>
<polygon style="fill:midnightblue;stroke:midnightblue;" points="1912.4,-72.4778 1922,-68 1911.7,-65.5125 1912.4,-72.4778"/>
</g>
<!-- Node22 -->
<g id="node69" class="node"><title>Node22</title>
<polygon style="fill:white;stroke:#bfbfbf;" points="966,-56 966,-76 995,-76 995,-56 966,-56"/>
<text text-anchor="middle" x="980" y="-63" style="font-family:Arial;font-size:10.00;">list</text>
</g>
<!-- Node20&#45;&gt;Node22 -->
<g id="edge94" class="edge"><title>Node20&#45;&gt;Node22</title>
<path style="fill:none;stroke:midnightblue;" d="M1060,-112C1045,-103 1022,-90 1004,-80"/>
<polygon style="fill:midnightblue;stroke:midnightblue;" points="1005.44,-76.7969 995,-75 1002.04,-82.916 1005.44,-76.7969"/>
</g>
<!-- Node23 -->
<g id="node73" class="node"><title>Node23</title>
<polygon style="fill:white;stroke:#bfbfbf;" points="1012,-56 1012,-76 1089,-76 1089,-56 1012,-56"/>
<text text-anchor="middle" x="1050" y="-63" style="font-family:Arial;font-size:10.00;">boost/any.hpp</text>
</g>
<!-- Node20&#45;&gt;Node23 -->
<g id="edge100" class="edge"><title>Node20&#45;&gt;Node23</title>
<path style="fill:none;stroke:midnightblue;" d="M1073,-112C1069,-105 1064,-94 1059,-85"/>
<polygon style="fill:midnightblue;stroke:midnightblue;" points="1062.26,-83.7166 1055,-76 1055.86,-86.5596 1062.26,-83.7166"/>
</g>
<!-- Node24 -->
<g id="node75" class="node"><title>Node24</title>
<polygon style="fill:white;stroke:#bfbfbf;" points="1106,-56 1106,-76 1235,-76 1235,-56 1106,-56"/>
<text text-anchor="middle" x="1170" y="-63" style="font-family:Arial;font-size:10.00;">boost/unordered_map.hpp</text>
</g>
<!-- Node20&#45;&gt;Node24 -->
<g id="edge102" class="edge"><title>Node20&#45;&gt;Node24</title>
<path style="fill:none;stroke:midnightblue;" d="M1094,-112C1108,-104 1129,-91 1144,-81"/>
<polygon style="fill:midnightblue;stroke:midnightblue;" points="1145.96,-83.916 1153,-76 1142.56,-77.7969 1145.96,-83.916"/>
</g>
<!-- Node25&#45;&gt;Node8 -->
<g id="edge112" class="edge"><title>Node25&#45;&gt;Node8</title>
<path style="fill:none;stroke:midnightblue;" d="M769,-224C766,-205 761,-166 757,-142"/>
<polygon style="fill:midnightblue;stroke:midnightblue;" points="760.478,-141.602 756,-132 753.512,-142.299 760.478,-141.602"/>
</g>
<!-- Node25&#45;&gt;Node12 -->
<g id="edge120" class="edge"><title>Node25&#45;&gt;Node12</title>
<path style="fill:none;stroke:midnightblue;" d="M800,-224C842,-209 923,-183 995,-168 1113,-142 1148,-165 1265,-132 1285,-126 1288,-119 1308,-112 1347,-97 1393,-86 1429,-78"/>
<polygon style="fill:midnightblue;stroke:midnightblue;" points="1429.88,-81.3933 1439,-76 1428.51,-74.5292 1429.88,-81.3933"/>
</g>
<!-- Node25&#45;&gt;Node16 -->
<g id="edge116" class="edge"><title>Node25&#45;&gt;Node16</title>
<path style="fill:none;stroke:midnightblue;" d="M721,-224C674,-215 604,-200 554,-190"/>
<polygon style="fill:midnightblue;stroke:midnightblue;" points="554.492,-186.529 544,-188 553.119,-193.393 554.492,-186.529"/>
</g>
<!-- Node25&#45;&gt;Node17 -->
<g id="edge114" class="edge"><title>Node25&#45;&gt;Node17</title>
<path style="fill:none;stroke:midnightblue;" d="M743,-224C718,-215 680,-201 653,-191"/>
<polygon style="fill:midnightblue;stroke:midnightblue;" points="653.584,-187.521 643,-188 651.573,-194.226 653.584,-187.521"/>
</g>
<!-- Node25&#45;&gt;Node19 -->
<g id="edge118" class="edge"><title>Node25&#45;&gt;Node19</title>
<path style="fill:none;stroke:midnightblue;" d="M825,-224C878,-215 956,-200 1011,-190"/>
<polygon style="fill:midnightblue;stroke:midnightblue;" points="1011.88,-193.393 1021,-188 1010.51,-186.529 1011.88,-193.393"/>
</g>
<!-- Node26&#45;&gt;Node3 -->
<g id="edge124" class="edge"><title>Node26&#45;&gt;Node3</title>
<path style="fill:none;stroke:midnightblue;" d="M1506,-112C1485,-102 1454,-88 1427,-76 1407,-67 1404,-61 1384,-56 1304,-34 1055,-17 968,-12"/>
<polygon style="fill:midnightblue;stroke:midnightblue;" points="968.299,-8.5125 958,-11 967.602,-15.4778 968.299,-8.5125"/>
</g>
<!-- Node27&#45;&gt;Node3 -->
<g id="edge132" class="edge"><title>Node27&#45;&gt;Node3</title>
<path style="fill:none;stroke:midnightblue;" d="M2032,-224C2038,-206 2050,-166 2054,-132 2055,-123 2057,-120 2054,-112 2042,-81 2034,-70 2005,-56 1957,-33 1137,-14 968,-10"/>
<polygon style="fill:midnightblue;stroke:midnightblue;" points="968,-6.5001 958,-10 968,-13.5001 968,-6.5001"/>
</g>
<!-- Node27&#45;&gt;Node6 -->
<g id="edge134" class="edge"><title>Node27&#45;&gt;Node6</title>
<path style="fill:none;stroke:midnightblue;" d="M2062,-224C2093,-215 2138,-201 2172,-191"/>
<polygon style="fill:midnightblue;stroke:midnightblue;" points="2173.43,-194.226 2182,-188 2171.42,-187.521 2173.43,-194.226"/>
</g>
<!-- Node27&#45;&gt;Node12 -->
<g id="edge150" class="edge"><title>Node27&#45;&gt;Node12</title>
<path style="fill:none;stroke:midnightblue;" d="M2061,-224C2078,-217 2098,-205 2108,-188 2134,-142 2058,-119 2040,-112 1996,-93 1689,-76 1553,-69"/>
<polygon style="fill:midnightblue;stroke:midnightblue;" points="1553,-65.5001 1543,-69 1553,-72.5001 1553,-65.5001"/>
</g>
<!-- Node27&#45;&gt;Node21 -->
<g id="edge128" class="edge"><title>Node27&#45;&gt;Node21</title>
<path style="fill:none;stroke:midnightblue;" d="M2024,-224C2018,-211 2009,-187 2015,-168 2023,-141 2053,-135 2040,-112 2032,-98 2017,-87 2002,-80"/>
<polygon style="fill:midnightblue;stroke:midnightblue;" points="2003.56,-76.8631 1993,-76 2000.72,-83.2598 2003.56,-76.8631"/>
</g>
<!-- Node28 -->
<g id="node93" class="node"><title>Node28</title>
<polygon style="fill:white;stroke:#bfbfbf;" points="2057,-168 2057,-188 2100,-188 2100,-168 2057,-168"/>
<text text-anchor="middle" x="2078" y="-175" style="font-family:Arial;font-size:10.00;">cmath</text>
</g>
<!-- Node27&#45;&gt;Node28 -->
<g id="edge130" class="edge"><title>Node27&#45;&gt;Node28</title>
<path style="fill:none;stroke:midnightblue;" d="M2038,-224C2045,-216 2055,-205 2063,-196"/>
<polygon style="fill:midnightblue;stroke:midnightblue;" points="2065.8,-198.1 2069,-188 2060.2,-193.9 2065.8,-198.1"/>
</g>
<!-- Node27&#45;&gt;Node29 -->
<g id="edge136" class="edge"><title>Node27&#45;&gt;Node29</title>
<path style="fill:none;stroke:midnightblue;" d="M2006,-224C1985,-215 1955,-202 1932,-192"/>
<polygon style="fill:midnightblue;stroke:midnightblue;" points="1932.58,-188.464 1922,-188 1929.98,-194.964 1932.58,-188.464"/>
</g>
<!-- Node29&#45;&gt;Node3 -->
<g id="edge142" class="edge"><title>Node29&#45;&gt;Node3</title>
<path style="fill:none;stroke:midnightblue;" d="M1897,-168C1894,-153 1887,-126 1870,-112 1772,-33 1718,-72 1594,-56 1354,-23 1062,-13 968,-10"/>
<polygon style="fill:midnightblue;stroke:midnightblue;" points="968,-6.5001 958,-10 968,-13.5001 968,-6.5001"/>
</g>
<!-- Node29&#45;&gt;Node12 -->
<g id="edge146" class="edge"><title>Node29&#45;&gt;Node12</title>
<path style="fill:none;stroke:midnightblue;" d="M1955,-168C1999,-158 2048,-140 2023,-112 1991,-78 1688,-69 1553,-67"/>
<polygon style="fill:midnightblue;stroke:midnightblue;" points="1553,-63.5001 1543,-67 1553,-70.5001 1553,-63.5001"/>
</g>
<!-- Node29&#45;&gt;Node21 -->
<g id="edge140" class="edge"><title>Node29&#45;&gt;Node21</title>
<path style="fill:none;stroke:midnightblue;" d="M1905,-168C1915,-149 1936,-109 1948,-85"/>
<polygon style="fill:midnightblue;stroke:midnightblue;" points="1951.2,-86.4414 1953,-76 1945.08,-83.0418 1951.2,-86.4414"/>
</g>
<!-- Node29&#45;&gt;Node26 -->
<g id="edge148" class="edge"><title>Node29&#45;&gt;Node26</title>
<path style="fill:none;stroke:midnightblue;" d="M1835,-168C1767,-158 1660,-142 1592,-132"/>
<polygon style="fill:midnightblue;stroke:midnightblue;" points="1592.49,-128.529 1582,-130 1591.12,-135.393 1592.49,-128.529"/>
</g>
<!-- Node30 -->
<g id="node99" class="node"><title>Node30</title>
<polygon style="fill:white;stroke:#bfbfbf;" points="1714,-112 1714,-132 1828,-132 1828,-112 1714,-112"/>
<text text-anchor="middle" x="1771" y="-119" style="font-family:Arial;font-size:10.00;">boost/lexical_cast.hpp</text>
</g>
<!-- Node29&#45;&gt;Node30 -->
<g id="edge138" class="edge"><title>Node29&#45;&gt;Node30</title>
<path style="fill:none;stroke:midnightblue;" d="M1876,-168C1856,-159 1826,-146 1803,-136"/>
<polygon style="fill:midnightblue;stroke:midnightblue;" points="1804.56,-132.863 1794,-132 1801.72,-139.26 1804.56,-132.863"/>
</g>
<!-- Node31 -->
<g id="node103" class="node"><title>Node31</title>
<polygon style="fill:white;stroke:#bfbfbf;" points="1960,-112 1960,-132 2014,-132 2014,-112 1960,-112"/>
<text text-anchor="middle" x="1987" y="-119" style="font-family:Arial;font-size:10.00;">iostream</text>
</g>
<!-- Node29&#45;&gt;Node31 -->
<g id="edge144" class="edge"><title>Node29&#45;&gt;Node31</title>
<path style="fill:none;stroke:midnightblue;" d="M1915,-168C1928,-160 1947,-147 1963,-137"/>
<polygon style="fill:midnightblue;stroke:midnightblue;" points="1964.38,-140.268 1971,-132 1960.66,-134.332 1964.38,-140.268"/>
</g>
<!-- Node32&#45;&gt;Node2 -->
<g id="edge162" class="edge"><title>Node32&#45;&gt;Node2</title>
<path style="fill:none;stroke:midnightblue;" d="M943,-400C786,-394 293,-366 209,-244 171,-190 236,-117 270,-83"/>
<polygon style="fill:midnightblue;stroke:midnightblue;" points="272.779,-85.2191 278,-76 268.169,-79.9511 272.779,-85.2191"/>
</g>
<!-- Node32&#45;&gt;Node3 -->
<g id="edge164" class="edge"><title>Node32&#45;&gt;Node3</title>
<path style="fill:none;stroke:midnightblue;" d="M943,-400C821,-394 504,-378 401,-356 299,-334 233,-341 196,-244 173,-185 71,-194 223,-56 236,-43 773,-17 908,-11"/>
<polygon style="fill:midnightblue;stroke:midnightblue;" points="908,-14.5001 918,-11 908,-7.5001 908,-14.5001"/>
</g>
<!-- Node32&#45;&gt;Node8 -->
<g id="edge168" class="edge"><title>Node32&#45;&gt;Node8</title>
<path style="fill:none;stroke:midnightblue;" d="M943,-393C872,-377 743,-336 689,-244 677,-224 717,-169 740,-140"/>
<polygon style="fill:midnightblue;stroke:midnightblue;" points="742.8,-142.1 746,-132 737.2,-137.9 742.8,-142.1"/>
</g>
<!-- Node32&#45;&gt;Node11 -->
<g id="edge210" class="edge"><title>Node32&#45;&gt;Node11</title>
<path style="fill:none;stroke:midnightblue;" d="M943,-397C808,-383 432,-342 397,-300 375,-274 330,-307 420,-168 446,-127 495,-97 528,-80"/>
<polygon style="fill:midnightblue;stroke:midnightblue;" points="529.283,-83.2598 537,-76 526.44,-76.8631 529.283,-83.2598"/>
</g>
<!-- Node32&#45;&gt;Node12 -->
<g id="edge212" class="edge"><title>Node32&#45;&gt;Node12</title>
<path style="fill:none;stroke:midnightblue;" d="M1040,-400C1171,-396 1526,-382 1640,-356 1717,-338 1807,-369 1807,-290 1807,-290 1807,-290 1807,-234 1807,-203 1817,-197 1826,-168 1830,-151 1834,-148 1837,-132 1838,-123 1842,-118 1837,-112 1827,-101 1651,-82 1553,-72"/>
<polygon style="fill:midnightblue;stroke:midnightblue;" points="1553.3,-68.5125 1543,-71 1552.6,-75.4778 1553.3,-68.5125"/>
</g>
<!-- Node32&#45;&gt;Node26 -->
<g id="edge166" class="edge"><title>Node32&#45;&gt;Node26</title>
<path style="fill:none;stroke:midnightblue;" d="M1040,-397C1173,-382 1526,-339 1526,-290 1526,-290 1526,-290 1526,-234 1526,-201 1527,-165 1528,-142"/>
<polygon style="fill:midnightblue;stroke:midnightblue;" points="1531.5,-142 1528,-132 1524.5,-142 1531.5,-142"/>
</g>
<!-- Node32&#45;&gt;Node30 -->
<g id="edge160" class="edge"><title>Node32&#45;&gt;Node30</title>
<path style="fill:none;stroke:midnightblue;" d="M1040,-400C1211,-393 1769,-364 1769,-290 1769,-290 1769,-290 1769,-234 1769,-201 1770,-165 1771,-142"/>
<polygon style="fill:midnightblue;stroke:midnightblue;" points="1774.5,-142 1771,-132 1767.5,-142 1774.5,-142"/>
</g>
<!-- Node33 -->
<g id="node118" class="node"><title>Node33</title>
<a xlink:href="feature__converter_8h.html" target="_top" xlink:title="ltr/feature_converters/feature_converter.h">
<polygon style="fill:white;stroke:black;" points="896,-336 896,-356 1086,-356 1086,-336 896,-336"/>
<text text-anchor="middle" x="991" y="-343" style="font-family:Arial;font-size:10.00;">ltr/feature_converters/feature_converter.h</text>
</a>
</g>
<!-- Node32&#45;&gt;Node33 -->
<g id="edge170" class="edge"><title>Node32&#45;&gt;Node33</title>
<path style="fill:none;stroke:midnightblue;" d="M991,-392C991,-385 991,-375 991,-366"/>
<polygon style="fill:midnightblue;stroke:midnightblue;" points="994.5,-366 991,-356 987.5,-366 994.5,-366"/>
</g>
<!-- Node34 -->
<g id="node131" class="node"><title>Node34</title>
<a xlink:href="serializable__functor_8h.html" target="_top" xlink:title="ltr/interfaces/serializable_functor.h">
<polygon style="fill:white;stroke:black;" points="1568,-224 1568,-244 1731,-244 1731,-224 1568,-224"/>
<text text-anchor="middle" x="1649" y="-231" style="font-family:Arial;font-size:10.00;">ltr/interfaces/serializable_functor.h</text>
</a>
</g>
<!-- Node32&#45;&gt;Node34 -->
<g id="edge194" class="edge"><title>Node32&#45;&gt;Node34</title>
<path style="fill:none;stroke:midnightblue;" d="M1040,-400C1166,-394 1496,-378 1540,-356 1587,-333 1622,-281 1639,-253"/>
<polygon style="fill:midnightblue;stroke:midnightblue;" points="1642.2,-254.441 1644,-244 1636.08,-251.042 1642.2,-254.441"/>
</g>
<!-- Node33&#45;&gt;Node2 -->
<g id="edge172" class="edge"><title>Node33&#45;&gt;Node2</title>
<path style="fill:none;stroke:midnightblue;" d="M902,-336C778,-319 550,-278 377,-188 343,-170 333,-163 312,-132 303,-118 297,-100 293,-86"/>
<polygon style="fill:midnightblue;stroke:midnightblue;" points="296.393,-85.1194 291,-76 289.529,-86.4922 296.393,-85.1194"/>
</g>
<!-- Node33&#45;&gt;Node3 -->
<g id="edge174" class="edge"><title>Node33&#45;&gt;Node3</title>
<path style="fill:none;stroke:midnightblue;" d="M1016,-336C1103,-299 1379,-171 1278,-56 1257,-32 1048,-17 968,-12"/>
<polygon style="fill:midnightblue;stroke:midnightblue;" points="968.299,-8.5125 958,-11 967.602,-15.4778 968.299,-8.5125"/>
</g>
<!-- Node33&#45;&gt;Node5 -->
<g id="edge176" class="edge"><title>Node33&#45;&gt;Node5</title>
<path style="fill:none;stroke:midnightblue;" d="M985,-336C965,-300 893,-180 805,-112 786,-97 763,-86 743,-79"/>
<polygon style="fill:midnightblue;stroke:midnightblue;" points="743.585,-75.4643 733,-75 740.985,-81.9636 743.585,-75.4643"/>
</g>
<!-- Node33&#45;&gt;Node7 -->
<g id="edge178" class="edge"><title>Node33&#45;&gt;Node7</title>
<path style="fill:none;stroke:midnightblue;" d="M896,-339C799,-331 646,-317 515,-300 514,-300 512,-299 511,-299"/>
<polygon style="fill:midnightblue;stroke:midnightblue;" points="511.299,-295.512 501,-298 510.602,-302.478 511.299,-295.512"/>
</g>
<!-- Node33&#45;&gt;Node8 -->
<g id="edge182" class="edge"><title>Node33&#45;&gt;Node8</title>
<path style="fill:none;stroke:midnightblue;" d="M959,-336C939,-328 914,-317 896,-300 867,-273 876,-255 853,-224 828,-191 794,-158 773,-139"/>
<polygon style="fill:midnightblue;stroke:midnightblue;" points="775.546,-136.596 766,-132 770.596,-141.546 775.546,-136.596"/>
</g>
<!-- Node33&#45;&gt;Node12 -->
<g id="edge192" class="edge"><title>Node33&#45;&gt;Node12</title>
<path style="fill:none;stroke:midnightblue;" d="M1086,-343C1176,-338 1304,-327 1346,-300 1367,-286 1449,-139 1478,-85"/>
<polygon style="fill:midnightblue;stroke:midnightblue;" points="1481.2,-86.4414 1483,-76 1475.08,-83.0418 1481.2,-86.4414"/>
</g>
<!-- Node33&#45;&gt;Node18 -->
<g id="edge180" class="edge"><title>Node33&#45;&gt;Node18</title>
<path style="fill:none;stroke:midnightblue;" d="M991,-336C991,-317 991,-278 991,-254"/>
<polygon style="fill:midnightblue;stroke:midnightblue;" points="994.5,-254 991,-244 987.5,-254 994.5,-254"/>
</g>
<!-- Node33&#45;&gt;Node19 -->
<g id="edge186" class="edge"><title>Node33&#45;&gt;Node19</title>
<path style="fill:none;stroke:midnightblue;" d="M998,-336C1010,-318 1036,-279 1053,-244 1060,-229 1066,-211 1069,-198"/>
<polygon style="fill:midnightblue;stroke:midnightblue;" points="1072.48,-198.584 1072,-188 1065.77,-196.573 1072.48,-198.584"/>
</g>
<!-- Node33&#45;&gt;Node25 -->
<g id="edge184" class="edge"><title>Node33&#45;&gt;Node25</title>
<path style="fill:none;stroke:midnightblue;" d="M952,-336C925,-328 888,-316 858,-300 832,-286 807,-265 790,-251"/>
<polygon style="fill:midnightblue;stroke:midnightblue;" points="791.831,-247.951 782,-244 787.221,-253.219 791.831,-247.951"/>
</g>
<!-- Node33&#45;&gt;Node26 -->
<g id="edge190" class="edge"><title>Node33&#45;&gt;Node26</title>
<path style="fill:none;stroke:midnightblue;" d="M1086,-340C1185,-334 1331,-321 1384,-300 1423,-284 1432,-275 1460,-244 1488,-211 1509,-167 1520,-141"/>
<polygon style="fill:midnightblue;stroke:midnightblue;" points="1523.14,-142.56 1524,-132 1516.74,-139.717 1523.14,-142.56"/>
</g>
<!-- Node33&#45;&gt;Node29 -->
<g id="edge188" class="edge"><title>Node33&#45;&gt;Node29</title>
<path style="fill:none;stroke:midnightblue;" d="M1086,-341C1188,-335 1356,-323 1499,-300 1607,-282 1634,-277 1739,-244 1785,-229 1836,-207 1869,-192"/>
<polygon style="fill:midnightblue;stroke:midnightblue;" points="1870.28,-195.26 1878,-188 1867.44,-188.863 1870.28,-195.26"/>
</g>
<!-- Node34&#45;&gt;Node12 -->
<g id="edge196" class="edge"><title>Node34&#45;&gt;Node12</title>
<path style="fill:none;stroke:midnightblue;" d="M1643,-224C1638,-214 1630,-200 1624,-188 1607,-154 1616,-138 1591,-112 1577,-98 1557,-87 1539,-79"/>
<polygon style="fill:midnightblue;stroke:midnightblue;" points="1539.58,-75.5212 1529,-76 1537.57,-82.2259 1539.58,-75.5212"/>
</g>
<!-- Node34&#45;&gt;Node29 -->
<g id="edge208" class="edge"><title>Node34&#45;&gt;Node29</title>
<path style="fill:none;stroke:midnightblue;" d="M1694,-224C1736,-215 1799,-200 1844,-190"/>
<polygon style="fill:midnightblue;stroke:midnightblue;" points="1844.88,-193.393 1854,-188 1843.51,-186.529 1844.88,-193.393"/>
</g>
<!-- Node35 -->
<g id="node134" class="node"><title>Node35</title>
<a xlink:href="functor_8h.html" target="_top" xlink:title="ltr/interfaces/functor.h">
<polygon style="fill:white;stroke:black;" points="1633,-168 1633,-188 1742,-188 1742,-168 1633,-168"/>
<text text-anchor="middle" x="1687" y="-175" style="font-family:Arial;font-size:10.00;">ltr/interfaces/functor.h</text>
</a>
</g>
<!-- Node34&#45;&gt;Node35 -->
<g id="edge198" class="edge"><title>Node34&#45;&gt;Node35</title>
<path style="fill:none;stroke:midnightblue;" d="M1656,-224C1661,-216 1668,-206 1674,-197"/>
<polygon style="fill:midnightblue;stroke:midnightblue;" points="1677.37,-198.262 1680,-188 1671.54,-194.379 1677.37,-198.262"/>
</g>
<!-- Node35&#45;&gt;Node3 -->
<g id="edge204" class="edge"><title>Node35&#45;&gt;Node3</title>
<path style="fill:none;stroke:midnightblue;" d="M1683,-168C1678,-154 1667,-128 1651,-112 1615,-75 1599,-70 1551,-56 1440,-22 1075,-13 968,-10"/>
<polygon style="fill:midnightblue;stroke:midnightblue;" points="968,-6.5001 958,-10 968,-13.5001 968,-6.5001"/>
</g>
<!-- Node35&#45;&gt;Node8 -->
<g id="edge206" class="edge"><title>Node35&#45;&gt;Node8</title>
<path style="fill:none;stroke:midnightblue;" d="M1633,-175C1468,-165 970,-135 806,-126"/>
<polygon style="fill:midnightblue;stroke:midnightblue;" points="806.299,-122.512 796,-125 805.602,-129.478 806.299,-122.512"/>
</g>
<!-- Node35&#45;&gt;Node12 -->
<g id="edge200" class="edge"><title>Node35&#45;&gt;Node12</title>
<path style="fill:none;stroke:midnightblue;" d="M1680,-168C1669,-153 1648,-127 1624,-112 1600,-97 1572,-86 1547,-79"/>
<polygon style="fill:midnightblue;stroke:midnightblue;" points="1547.58,-75.5212 1537,-76 1545.57,-82.2259 1547.58,-75.5212"/>
</g>
<!-- Node35&#45;&gt;Node30 -->
<g id="edge202" class="edge"><title>Node35&#45;&gt;Node30</title>
<path style="fill:none;stroke:midnightblue;" d="M1702,-168C1714,-160 1732,-147 1747,-138"/>
<polygon style="fill:midnightblue;stroke:midnightblue;" points="1749.62,-140.459 1756,-132 1745.74,-134.635 1749.62,-140.459"/>
</g>
</g>
</svg>
