<?xml version="1.0" encoding="UTF-8" standalone="no"?>
<!DOCTYPE svg PUBLIC "-//W3C//DTD SVG 1.0//EN"
 "http://www.w3.org/TR/2001/REC-SVG-20010904/DTD/svg10.dtd" [
 <!ATTLIST svg xmlns:xlink CDATA #FIXED "http://www.w3.org/1999/xlink">
]>
<!-- Generated by Graphviz version 2.20.2 (Tue Mar &#160;2 19:03:41 UTC 2010)
     For user: (jenkins)  -->
<!-- Title: G Pages: 1 -->
<svg width="2338pt" height="532pt"
 viewBox="0.00 0.00 2338.00 532.00" xmlns="http://www.w3.org/2000/svg" xmlns:xlink="http://www.w3.org/1999/xlink">
<g id="graph0" class="graph" transform="scale(1 1) rotate(0) translate(4 528)">
<title>G</title>
<polygon style="fill:white;stroke:white;" points="-4,4 -4,-528 2334,-528 2334,4 -4,4"/>
<!-- Node1 -->
<g id="node1" class="node"><title>Node1</title>
<polygon style="fill:#bfbfbf;stroke:black;" points="296,-504 296,-524 414,-524 414,-504 296,-504"/>
<text text-anchor="middle" x="355" y="-511" style="font-family:Arial;font-size:10.00;">ltr/scorers/gp_scorer.cc</text>
</g>
<!-- Node2 -->
<g id="node3" class="node"><title>Node2</title>
<polygon style="fill:white;stroke:#bfbfbf;" points="359,-56 359,-76 433,-76 433,-56 359,-56"/>
<text text-anchor="middle" x="396" y="-63" style="font-family:Arial;font-size:10.00;">logog/logog.h</text>
</g>
<!-- Node1&#45;&gt;Node2 -->
<g id="edge2" class="edge"><title>Node1&#45;&gt;Node2</title>
<path style="fill:none;stroke:midnightblue;" d="M314,-504C245,-486 114,-446 114,-402 114,-402 114,-402 114,-234 114,-178 282,-108 358,-80"/>
<polygon style="fill:midnightblue;stroke:midnightblue;" points="360.015,-82.9636 368,-76 357.415,-76.4643 360.015,-82.9636"/>
</g>
<!-- Node3 -->
<g id="node5" class="node"><title>Node3</title>
<a xlink:href="gp__scorer_8h.html" target="_top" xlink:title="ltr/scorers/gp_scorer.h">
<polygon style="fill:white;stroke:black;" points="597,-448 597,-468 710,-468 710,-448 597,-448"/>
<text text-anchor="middle" x="653" y="-455" style="font-family:Arial;font-size:10.00;">ltr/scorers/gp_scorer.h</text>
</a>
</g>
<!-- Node1&#45;&gt;Node3 -->
<g id="edge4" class="edge"><title>Node1&#45;&gt;Node3</title>
<path style="fill:none;stroke:midnightblue;" d="M408,-504C459,-495 536,-480 590,-470"/>
<polygon style="fill:midnightblue;stroke:midnightblue;" points="590.881,-473.393 600,-468 589.508,-466.529 590.881,-473.393"/>
</g>
<!-- Node4 -->
<g id="node7" class="node"><title>Node4</title>
<polygon style="fill:white;stroke:#bfbfbf;" points="1569,-56 1569,-76 1611,-76 1611,-56 1569,-56"/>
<text text-anchor="middle" x="1590" y="-63" style="font-family:Arial;font-size:10.00;">vector</text>
</g>
<!-- Node3&#45;&gt;Node4 -->
<g id="edge6" class="edge"><title>Node3&#45;&gt;Node4</title>
<path style="fill:none;stroke:midnightblue;" d="M710,-457C858,-453 1253,-441 1380,-412 1455,-394 1542,-423 1542,-346 1542,-346 1542,-346 1542,-290 1542,-213 1570,-124 1583,-85"/>
<polygon style="fill:midnightblue;stroke:midnightblue;" points="1586.16,-86.5937 1586,-76 1579.52,-84.38 1586.16,-86.5937"/>
</g>
<!-- Node5 -->
<g id="node9" class="node"><title>Node5</title>
<polygon style="fill:white;stroke:#bfbfbf;" points="1416,-0 1416,-20 1456,-20 1456,-0 1416,-0"/>
<text text-anchor="middle" x="1436" y="-7" style="font-family:Arial;font-size:10.00;">string</text>
</g>
<!-- Node3&#45;&gt;Node5 -->
<g id="edge8" class="edge"><title>Node3&#45;&gt;Node5</title>
<path style="fill:none;stroke:midnightblue;" d="M710,-457C935,-454 1761,-442 2022,-412 2161,-395 2330,-485 2330,-346 2330,-346 2330,-346 2330,-122 2330,-47 2247,-73 2175,-56 2036,-23 1587,-13 1466,-10"/>
<polygon style="fill:midnightblue;stroke:midnightblue;" points="1466,-6.5001 1456,-10 1466,-13.5001 1466,-6.5001"/>
</g>
<!-- Node6 -->
<g id="node11" class="node"><title>Node6</title>
<polygon style="fill:white;stroke:#bfbfbf;" points="812,-224 812,-244 863,-244 863,-224 812,-224"/>
<text text-anchor="middle" x="837" y="-231" style="font-family:Arial;font-size:10.00;">sstream</text>
</g>
<!-- Node3&#45;&gt;Node6 -->
<g id="edge10" class="edge"><title>Node3&#45;&gt;Node6</title>
<path style="fill:none;stroke:midnightblue;" d="M652,-448C651,-418 651,-329 696,-280 711,-264 765,-250 802,-241"/>
<polygon style="fill:midnightblue;stroke:midnightblue;" points="802.881,-244.393 812,-239 801.508,-237.529 802.881,-244.393"/>
</g>
<!-- Node7 -->
<g id="node13" class="node"><title>Node7</title>
<polygon style="fill:white;stroke:#bfbfbf;" points="1768,-56 1768,-76 1827,-76 1827,-56 1768,-56"/>
<text text-anchor="middle" x="1797" y="-63" style="font-family:Arial;font-size:10.00;">stdexcept</text>
</g>
<!-- Node3&#45;&gt;Node7 -->
<g id="edge12" class="edge"><title>Node3&#45;&gt;Node7</title>
<path style="fill:none;stroke:midnightblue;" d="M710,-457C1000,-452 2292,-427 2292,-346 2292,-346 2292,-346 2292,-234 2292,-88 2127,-155 1989,-112 1924,-91 1905,-92 1837,-76"/>
<polygon style="fill:midnightblue;stroke:midnightblue;" points="1837.49,-72.5292 1827,-74 1836.12,-79.3933 1837.49,-72.5292"/>
</g>
<!-- Node8 -->
<g id="node15" class="node"><title>Node8</title>
<polygon style="fill:white;stroke:#bfbfbf;" points="354,-168 354,-188 477,-188 477,-168 354,-168"/>
<text text-anchor="middle" x="415" y="-175" style="font-family:Arial;font-size:10.00;">contrib/puppy/Puppy.hpp</text>
</g>
<!-- Node3&#45;&gt;Node8 -->
<g id="edge14" class="edge"><title>Node3&#45;&gt;Node8</title>
<path style="fill:none;stroke:midnightblue;" d="M644,-448C609,-406 476,-249 430,-196"/>
<polygon style="fill:midnightblue;stroke:midnightblue;" points="432.8,-193.9 424,-188 427.2,-198.1 432.8,-193.9"/>
</g>
<!-- Node9 -->
<g id="node17" class="node"><title>Node9</title>
<a xlink:href="data__set_8h.html" target="_top" xlink:title="ltr/data/data_set.h">
<polygon style="fill:white;stroke:black;" points="1646,-280 1646,-300 1741,-300 1741,-280 1646,-280"/>
<text text-anchor="middle" x="1693" y="-287" style="font-family:Arial;font-size:10.00;">ltr/data/data_set.h</text>
</a>
</g>
<!-- Node3&#45;&gt;Node9 -->
<g id="edge16" class="edge"><title>Node3&#45;&gt;Node9</title>
<path style="fill:none;stroke:midnightblue;" d="M710,-457C896,-455 1478,-444 1556,-412 1609,-389 1657,-337 1679,-308"/>
<polygon style="fill:midnightblue;stroke:midnightblue;" points="1681.8,-310.1 1685,-300 1676.2,-305.9 1681.8,-310.1"/>
</g>
<!-- Node14 -->
<g id="node36" class="node"><title>Node14</title>
<a xlink:href="shared__ptr_8h.html" target="_top" xlink:title="ltr/utility/shared_ptr.h">
<polygon style="fill:white;stroke:black;" points="235,-56 235,-76 342,-76 342,-56 235,-56"/>
<text text-anchor="middle" x="288" y="-63" style="font-family:Arial;font-size:10.00;">ltr/utility/shared_ptr.h</text>
</a>
</g>
<!-- Node3&#45;&gt;Node14 -->
<g id="edge160" class="edge"><title>Node3&#45;&gt;Node14</title>
<path style="fill:none;stroke:midnightblue;" d="M597,-454C438,-443 0,-406 0,-346 0,-346 0,-346 0,-178 0,-130 140,-95 225,-77"/>
<polygon style="fill:midnightblue;stroke:midnightblue;" points="225.881,-80.3933 235,-75 224.508,-73.5292 225.881,-80.3933"/>
</g>
<!-- Node21 -->
<g id="node65" class="node"><title>Node21</title>
<a xlink:href="parameterized_8h.html" target="_top" xlink:title="ltr/interfaces/parameterized.h">
<polygon style="fill:white;stroke:black;" points="1298,-168 1298,-188 1440,-188 1440,-168 1298,-168"/>
<text text-anchor="middle" x="1369" y="-175" style="font-family:Arial;font-size:10.00;">ltr/interfaces/parameterized.h</text>
</a>
</g>
<!-- Node3&#45;&gt;Node21 -->
<g id="edge158" class="edge"><title>Node3&#45;&gt;Node21</title>
<path style="fill:none;stroke:midnightblue;" d="M710,-456C901,-451 1504,-426 1504,-346 1504,-346 1504,-346 1504,-290 1504,-240 1449,-208 1410,-192"/>
<polygon style="fill:midnightblue;stroke:midnightblue;" points="1410.58,-188.464 1400,-188 1407.98,-194.964 1410.58,-188.464"/>
</g>
<!-- Node28 -->
<g id="node93" class="node"><title>Node28</title>
<a xlink:href="gp__primitives_8h.html" target="_top" xlink:title="ltr/learners/gp_learner/gp_primitives.h">
<polygon style="fill:white;stroke:black;" points="256,-224 256,-244 433,-244 433,-224 256,-224"/>
<text text-anchor="middle" x="344" y="-231" style="font-family:Arial;font-size:10.00;">ltr/learners/gp_learner/gp_primitives.h</text>
</a>
</g>
<!-- Node3&#45;&gt;Node28 -->
<g id="edge130" class="edge"><title>Node3&#45;&gt;Node28</title>
<path style="fill:none;stroke:midnightblue;" d="M599,-448C570,-441 534,-430 506,-412 438,-368 380,-288 356,-253"/>
<polygon style="fill:midnightblue;stroke:midnightblue;" points="358.459,-250.379 350,-244 352.635,-254.262 358.459,-250.379"/>
</g>
<!-- Node30 -->
<g id="node100" class="node"><title>Node30</title>
<a xlink:href="serializable_8h.html" target="_top" xlink:title="ltr/interfaces/serializable.h">
<polygon style="fill:white;stroke:black;" points="570,-168 570,-188 699,-188 699,-168 570,-168"/>
<text text-anchor="middle" x="634" y="-175" style="font-family:Arial;font-size:10.00;">ltr/interfaces/serializable.h</text>
</a>
</g>
<!-- Node3&#45;&gt;Node30 -->
<g id="edge156" class="edge"><title>Node3&#45;&gt;Node30</title>
<path style="fill:none;stroke:midnightblue;" d="M647,-448C631,-417 586,-326 570,-244 569,-235 566,-231 570,-224 576,-210 589,-201 601,-193"/>
<polygon style="fill:midnightblue;stroke:midnightblue;" points="602.958,-195.916 610,-188 599.559,-189.797 602.958,-195.916"/>
</g>
<!-- Node33 -->
<g id="node114" class="node"><title>Node33</title>
<a xlink:href="scorer_8h.html" target="_top" xlink:title="ltr/scorers/scorer.h">
<polygon style="fill:white;stroke:black;" points="950,-392 950,-412 1047,-412 1047,-392 950,-392"/>
<text text-anchor="middle" x="998" y="-399" style="font-family:Arial;font-size:10.00;">ltr/scorers/scorer.h</text>
</a>
</g>
<!-- Node3&#45;&gt;Node33 -->
<g id="edge162" class="edge"><title>Node3&#45;&gt;Node33</title>
<path style="fill:none;stroke:midnightblue;" d="M710,-449C774,-439 876,-422 940,-412"/>
<polygon style="fill:midnightblue;stroke:midnightblue;" points="940.881,-415.393 950,-410 939.508,-408.529 940.881,-415.393"/>
</g>
<!-- Node9&#45;&gt;Node4 -->
<g id="edge24" class="edge"><title>Node9&#45;&gt;Node4</title>
<path style="fill:none;stroke:midnightblue;" d="M1703,-280C1715,-267 1732,-244 1725,-224 1704,-171 1674,-174 1639,-132 1626,-117 1612,-98 1603,-84"/>
<polygon style="fill:midnightblue;stroke:midnightblue;" points="1605.8,-81.9 1597,-76 1600.2,-86.1 1605.8,-81.9"/>
</g>
<!-- Node9&#45;&gt;Node5 -->
<g id="edge22" class="edge"><title>Node9&#45;&gt;Node5</title>
<path style="fill:none;stroke:midnightblue;" d="M1741,-289C1864,-285 2178,-267 2178,-178 2178,-178 2178,-178 2178,-122 2178,-32 2074,-74 1987,-56 1886,-34 1566,-16 1466,-11"/>
<polygon style="fill:midnightblue;stroke:midnightblue;" points="1466,-7.5001 1456,-11 1466,-14.5001 1466,-7.5001"/>
</g>
<!-- Node9&#45;&gt;Node6 -->
<g id="edge18" class="edge"><title>Node9&#45;&gt;Node6</title>
<path style="fill:none;stroke:midnightblue;" d="M1646,-287C1492,-276 1010,-246 873,-237"/>
<polygon style="fill:midnightblue;stroke:midnightblue;" points="873.299,-233.512 863,-236 872.602,-240.478 873.299,-233.512"/>
</g>
<!-- Node9&#45;&gt;Node7 -->
<g id="edge20" class="edge"><title>Node9&#45;&gt;Node7</title>
<path style="fill:none;stroke:midnightblue;" d="M1741,-281C1821,-266 1975,-231 2007,-188 2012,-180 2011,-175 2007,-168 1987,-137 1891,-100 1837,-80"/>
<polygon style="fill:midnightblue;stroke:midnightblue;" points="1837.58,-76.4643 1827,-76 1834.98,-82.9636 1837.58,-76.4643"/>
</g>
<!-- Node10 -->
<g id="node23" class="node"><title>Node10</title>
<a xlink:href="object_8h.html" target="_top" xlink:title="ltr/data/object.h">
<polygon style="fill:white;stroke:black;" points="1648,-112 1648,-132 1732,-132 1732,-112 1648,-112"/>
<text text-anchor="middle" x="1690" y="-119" style="font-family:Arial;font-size:10.00;">ltr/data/object.h</text>
</a>
</g>
<!-- Node9&#45;&gt;Node10 -->
<g id="edge26" class="edge"><title>Node9&#45;&gt;Node10</title>
<path style="fill:none;stroke:midnightblue;" d="M1717,-280C1731,-272 1749,-260 1758,-244 1762,-236 1760,-232 1758,-224 1751,-205 1743,-204 1732,-188 1722,-173 1710,-154 1701,-141"/>
<polygon style="fill:midnightblue;stroke:midnightblue;" points="1703.92,-139.042 1696,-132 1697.8,-142.441 1703.92,-139.042"/>
</g>
<!-- Node18 -->
<g id="node44" class="node"><title>Node18</title>
<a xlink:href="object__list_8h.html" target="_top" xlink:title="ltr/data/object_list.h">
<polygon style="fill:white;stroke:black;" points="1896,-168 1896,-188 1998,-188 1998,-168 1896,-168"/>
<text text-anchor="middle" x="1947" y="-175" style="font-family:Arial;font-size:10.00;">ltr/data/object_list.h</text>
</a>
</g>
<!-- Node9&#45;&gt;Node18 -->
<g id="edge52" class="edge"><title>Node9&#45;&gt;Node18</title>
<path style="fill:none;stroke:midnightblue;" d="M1722,-280C1746,-271 1783,-258 1814,-244 1851,-228 1892,-206 1919,-193"/>
<polygon style="fill:midnightblue;stroke:midnightblue;" points="1920.96,-195.916 1928,-188 1917.56,-189.797 1920.96,-195.916"/>
</g>
<!-- Node19 -->
<g id="node52" class="node"><title>Node19</title>
<a xlink:href="object__pair_8h.html" target="_top" xlink:title="ltr/data/object_pair.h">
<polygon style="fill:white;stroke:black;" points="1774,-168 1774,-188 1878,-188 1878,-168 1774,-168"/>
<text text-anchor="middle" x="1826" y="-175" style="font-family:Arial;font-size:10.00;">ltr/data/object_pair.h</text>
</a>
</g>
<!-- Node9&#45;&gt;Node19 -->
<g id="edge66" class="edge"><title>Node9&#45;&gt;Node19</title>
<path style="fill:none;stroke:midnightblue;" d="M1731,-280C1753,-273 1778,-261 1796,-244 1808,-231 1816,-212 1821,-198"/>
<polygon style="fill:midnightblue;stroke:midnightblue;" points="1824.48,-198.584 1824,-188 1817.77,-196.573 1824.48,-198.584"/>
</g>
<!-- Node20 -->
<g id="node60" class="node"><title>Node20</title>
<a xlink:href="feature__info_8h.html" target="_top" xlink:title="ltr/data/feature_info.h">
<polygon style="fill:white;stroke:black;" points="1180,-224 1180,-244 1287,-244 1287,-224 1180,-224"/>
<text text-anchor="middle" x="1233" y="-231" style="font-family:Arial;font-size:10.00;">ltr/data/feature_info.h</text>
</a>
</g>
<!-- Node9&#45;&gt;Node20 -->
<g id="edge80" class="edge"><title>Node9&#45;&gt;Node20</title>
<path style="fill:none;stroke:midnightblue;" d="M1646,-284C1563,-274 1391,-254 1297,-242"/>
<polygon style="fill:midnightblue;stroke:midnightblue;" points="1297.3,-238.512 1287,-241 1296.6,-245.478 1297.3,-238.512"/>
</g>
<!-- Node26 -->
<g id="node83" class="node"><title>Node26</title>
<a xlink:href="per__object__accessor_8h.html" target="_top" xlink:title="ltr/data/per_object_accessor.h">
<polygon style="fill:white;stroke:black;" points="1570,-224 1570,-244 1717,-244 1717,-224 1570,-224"/>
<text text-anchor="middle" x="1643" y="-231" style="font-family:Arial;font-size:10.00;">ltr/data/per_object_accessor.h</text>
</a>
</g>
<!-- Node9&#45;&gt;Node26 -->
<g id="edge114" class="edge"><title>Node9&#45;&gt;Node26</title>
<path style="fill:none;stroke:midnightblue;" d="M1684,-280C1677,-272 1667,-261 1659,-252"/>
<polygon style="fill:midnightblue;stroke:midnightblue;" points="1661.22,-249.221 1652,-244 1655.95,-253.831 1661.22,-249.221"/>
</g>
<!-- Node27 -->
<g id="node90" class="node"><title>Node27</title>
<a xlink:href="aliaser_8h.html" target="_top" xlink:title="ltr/interfaces/aliaser.h">
<polygon style="fill:white;stroke:black;" points="824,-112 824,-132 932,-132 932,-112 824,-112"/>
<text text-anchor="middle" x="878" y="-119" style="font-family:Arial;font-size:10.00;">ltr/interfaces/aliaser.h</text>
</a>
</g>
<!-- Node9&#45;&gt;Node27 -->
<g id="edge126" class="edge"><title>Node9&#45;&gt;Node27</title>
<path style="fill:none;stroke:midnightblue;" d="M1646,-288C1535,-281 1260,-265 1171,-244 1105,-228 1092,-214 1028,-188 986,-171 939,-150 909,-136"/>
<polygon style="fill:midnightblue;stroke:midnightblue;" points="910.56,-132.863 900,-132 907.717,-139.26 910.56,-132.863"/>
</g>
<!-- Node10&#45;&gt;Node4 -->
<g id="edge36" class="edge"><title>Node10&#45;&gt;Node4</title>
<path style="fill:none;stroke:midnightblue;" d="M1672,-112C1657,-104 1635,-91 1617,-81"/>
<polygon style="fill:midnightblue;stroke:midnightblue;" points="1618.44,-77.7969 1608,-76 1615.04,-83.916 1618.44,-77.7969"/>
</g>
<!-- Node10&#45;&gt;Node5 -->
<g id="edge34" class="edge"><title>Node10&#45;&gt;Node5</title>
<path style="fill:none;stroke:midnightblue;" d="M1682,-112C1670,-97 1646,-70 1620,-56 1571,-29 1505,-17 1466,-13"/>
<polygon style="fill:midnightblue;stroke:midnightblue;" points="1466.3,-9.5125 1456,-12 1465.6,-16.4778 1466.3,-9.5125"/>
</g>
<!-- Node10&#45;&gt;Node7 -->
<g id="edge32" class="edge"><title>Node10&#45;&gt;Node7</title>
<path style="fill:none;stroke:midnightblue;" d="M1709,-112C1725,-103 1750,-90 1769,-81"/>
<polygon style="fill:midnightblue;stroke:midnightblue;" points="1770.96,-83.916 1778,-76 1767.56,-77.7969 1770.96,-83.916"/>
</g>
<!-- Node11 -->
<g id="node25" class="node"><title>Node11</title>
<polygon style="fill:white;stroke:#bfbfbf;" points="1495,-56 1495,-76 1530,-76 1530,-56 1495,-56"/>
<text text-anchor="middle" x="1512" y="-63" style="font-family:Arial;font-size:10.00;">map</text>
</g>
<!-- Node10&#45;&gt;Node11 -->
<g id="edge28" class="edge"><title>Node10&#45;&gt;Node11</title>
<path style="fill:none;stroke:midnightblue;" d="M1658,-112C1625,-101 1572,-85 1540,-75"/>
<polygon style="fill:midnightblue;stroke:midnightblue;" points="1540.58,-71.5212 1530,-72 1538.57,-78.2259 1540.58,-71.5212"/>
</g>
<!-- Node12 -->
<g id="node27" class="node"><title>Node12</title>
<polygon style="fill:white;stroke:#bfbfbf;" points="1796,-0 1796,-20 1847,-20 1847,-0 1796,-0"/>
<text text-anchor="middle" x="1821" y="-7" style="font-family:Arial;font-size:10.00;">ostream</text>
</g>
<!-- Node10&#45;&gt;Node12 -->
<g id="edge30" class="edge"><title>Node10&#45;&gt;Node12</title>
<path style="fill:none;stroke:midnightblue;" d="M1700,-112C1713,-98 1737,-74 1759,-56 1771,-45 1786,-34 1798,-26"/>
<polygon style="fill:midnightblue;stroke:midnightblue;" points="1800.1,-28.8 1806,-20 1795.9,-23.2 1800.1,-28.8"/>
</g>
<!-- Node13 -->
<g id="node32" class="node"><title>Node13</title>
<a xlink:href="printable_8h.html" target="_top" xlink:title="ltr/interfaces/printable.h">
<polygon style="fill:white;stroke:black;" points="1844,-56 1844,-76 1961,-76 1961,-56 1844,-56"/>
<text text-anchor="middle" x="1902" y="-63" style="font-family:Arial;font-size:10.00;">ltr/interfaces/printable.h</text>
</a>
</g>
<!-- Node10&#45;&gt;Node13 -->
<g id="edge38" class="edge"><title>Node10&#45;&gt;Node13</title>
<path style="fill:none;stroke:midnightblue;" d="M1728,-112C1763,-103 1816,-89 1854,-79"/>
<polygon style="fill:midnightblue;stroke:midnightblue;" points="1855.43,-82.2259 1864,-76 1853.42,-75.5212 1855.43,-82.2259"/>
</g>
<!-- Node10&#45;&gt;Node14 -->
<g id="edge44" class="edge"><title>Node10&#45;&gt;Node14</title>
<path style="fill:none;stroke:midnightblue;" d="M1648,-121C1433,-113 468,-82 352,-76"/>
<polygon style="fill:midnightblue;stroke:midnightblue;" points="352.299,-72.5125 342,-75 351.602,-79.4778 352.299,-72.5125"/>
</g>
<!-- Node13&#45;&gt;Node5 -->
<g id="edge42" class="edge"><title>Node13&#45;&gt;Node5</title>
<path style="fill:none;stroke:midnightblue;" d="M1844,-57C1841,-57 1838,-56 1835,-56 1698,-37 1533,-20 1466,-13"/>
<polygon style="fill:midnightblue;stroke:midnightblue;" points="1466.3,-9.5125 1456,-12 1465.6,-16.4778 1466.3,-9.5125"/>
</g>
<!-- Node13&#45;&gt;Node12 -->
<g id="edge40" class="edge"><title>Node13&#45;&gt;Node12</title>
<path style="fill:none;stroke:midnightblue;" d="M1888,-56C1876,-48 1858,-36 1844,-26"/>
<polygon style="fill:midnightblue;stroke:midnightblue;" points="1846.1,-23.2 1836,-20 1841.9,-28.8 1846.1,-23.2"/>
</g>
<!-- Node15 -->
<g id="node38" class="node"><title>Node15</title>
<polygon style="fill:white;stroke:#bfbfbf;" points="260,-0 260,-20 316,-20 316,-0 260,-0"/>
<text text-anchor="middle" x="288" y="-7" style="font-family:Arial;font-size:10.00;">algorithm</text>
</g>
<!-- Node14&#45;&gt;Node15 -->
<g id="edge46" class="edge"><title>Node14&#45;&gt;Node15</title>
<path style="fill:none;stroke:midnightblue;" d="M288,-56C288,-49 288,-39 288,-30"/>
<polygon style="fill:midnightblue;stroke:midnightblue;" points="291.5,-30 288,-20 284.5,-30 291.5,-30"/>
</g>
<!-- Node16 -->
<g id="node40" class="node"><title>Node16</title>
<polygon style="fill:white;stroke:#bfbfbf;" points="334,-0 334,-20 441,-20 441,-0 334,-0"/>
<text text-anchor="middle" x="387" y="-7" style="font-family:Arial;font-size:10.00;">boost/shared_ptr.hpp</text>
</g>
<!-- Node14&#45;&gt;Node16 -->
<g id="edge48" class="edge"><title>Node14&#45;&gt;Node16</title>
<path style="fill:none;stroke:midnightblue;" d="M306,-56C321,-48 343,-35 360,-25"/>
<polygon style="fill:midnightblue;stroke:midnightblue;" points="361.958,-27.916 369,-20 358.559,-21.7969 361.958,-27.916"/>
</g>
<!-- Node17 -->
<g id="node42" class="node"><title>Node17</title>
<polygon style="fill:white;stroke:#bfbfbf;" points="52,-0 52,-20 243,-20 243,-0 52,-0"/>
<text text-anchor="middle" x="147" y="-7" style="font-family:Arial;font-size:10.00;">boost/smart_ptr/detail/operator_bool.hpp</text>
</g>
<!-- Node14&#45;&gt;Node17 -->
<g id="edge50" class="edge"><title>Node14&#45;&gt;Node17</title>
<path style="fill:none;stroke:midnightblue;" d="M263,-56C240,-47 207,-34 182,-24"/>
<polygon style="fill:midnightblue;stroke:midnightblue;" points="182.585,-20.4643 172,-20 179.985,-26.9636 182.585,-20.4643"/>
</g>
<!-- Node18&#45;&gt;Node4 -->
<g id="edge58" class="edge"><title>Node18&#45;&gt;Node4</title>
<path style="fill:none;stroke:midnightblue;" d="M1923,-168C1889,-154 1825,-129 1770,-112 1718,-96 1657,-81 1621,-73"/>
<polygon style="fill:midnightblue;stroke:midnightblue;" points="1621.49,-69.5292 1611,-71 1620.12,-76.3933 1621.49,-69.5292"/>
</g>
<!-- Node18&#45;&gt;Node5 -->
<g id="edge56" class="edge"><title>Node18&#45;&gt;Node5</title>
<path style="fill:none;stroke:midnightblue;" d="M1954,-168C1968,-145 1998,-87 1969,-56 1934,-18 1574,-11 1466,-10"/>
<polygon style="fill:midnightblue;stroke:midnightblue;" points="1466,-6.5001 1456,-10 1466,-13.5001 1466,-6.5001"/>
</g>
<!-- Node18&#45;&gt;Node7 -->
<g id="edge54" class="edge"><title>Node18&#45;&gt;Node7</title>
<path style="fill:none;stroke:midnightblue;" d="M1935,-168C1918,-155 1889,-131 1864,-112 1849,-101 1833,-90 1820,-82"/>
<polygon style="fill:midnightblue;stroke:midnightblue;" points="1822.1,-79.2 1812,-76 1817.9,-84.8 1822.1,-79.2"/>
</g>
<!-- Node18&#45;&gt;Node10 -->
<g id="edge60" class="edge"><title>Node18&#45;&gt;Node10</title>
<path style="fill:none;stroke:midnightblue;" d="M1901,-168C1856,-159 1789,-143 1742,-133"/>
<polygon style="fill:midnightblue;stroke:midnightblue;" points="1742.49,-129.529 1732,-131 1741.12,-136.393 1742.49,-129.529"/>
</g>
<!-- Node18&#45;&gt;Node13 -->
<g id="edge62" class="edge"><title>Node18&#45;&gt;Node13</title>
<path style="fill:none;stroke:midnightblue;" d="M1954,-168C1962,-154 1973,-130 1964,-112 1960,-104 1943,-91 1928,-81"/>
<polygon style="fill:midnightblue;stroke:midnightblue;" points="1929.44,-77.7969 1919,-76 1926.04,-83.916 1929.44,-77.7969"/>
</g>
<!-- Node18&#45;&gt;Node14 -->
<g id="edge64" class="edge"><title>Node18&#45;&gt;Node14</title>
<path style="fill:none;stroke:midnightblue;" d="M1896,-169C1893,-169 1890,-168 1887,-168 1552,-132 1465,-171 1131,-132 1084,-126 1073,-117 1025,-112 730,-76 651,-106 352,-76"/>
<polygon style="fill:midnightblue;stroke:midnightblue;" points="352.299,-72.5125 342,-75 351.602,-79.4778 352.299,-72.5125"/>
</g>
<!-- Node19&#45;&gt;Node4 -->
<g id="edge72" class="edge"><title>Node19&#45;&gt;Node4</title>
<path style="fill:none;stroke:midnightblue;" d="M1816,-168C1800,-154 1770,-127 1741,-112 1701,-91 1652,-79 1621,-72"/>
<polygon style="fill:midnightblue;stroke:midnightblue;" points="1621.49,-68.5292 1611,-70 1620.12,-75.3933 1621.49,-68.5292"/>
</g>
<!-- Node19&#45;&gt;Node5 -->
<g id="edge70" class="edge"><title>Node19&#45;&gt;Node5</title>
<path style="fill:none;stroke:midnightblue;" d="M1819,-168C1810,-154 1791,-128 1770,-112 1675,-40 1529,-18 1466,-12"/>
<polygon style="fill:midnightblue;stroke:midnightblue;" points="1466.3,-8.5125 1456,-11 1465.6,-15.4778 1466.3,-8.5125"/>
</g>
<!-- Node19&#45;&gt;Node7 -->
<g id="edge68" class="edge"><title>Node19&#45;&gt;Node7</title>
<path style="fill:none;stroke:midnightblue;" d="M1834,-168C1844,-155 1858,-131 1850,-112 1844,-99 1834,-89 1823,-82"/>
<polygon style="fill:midnightblue;stroke:midnightblue;" points="1825.1,-79.2 1815,-76 1820.9,-84.8 1825.1,-79.2"/>
</g>
<!-- Node19&#45;&gt;Node10 -->
<g id="edge74" class="edge"><title>Node19&#45;&gt;Node10</title>
<path style="fill:none;stroke:midnightblue;" d="M1802,-168C1780,-159 1748,-146 1724,-136"/>
<polygon style="fill:midnightblue;stroke:midnightblue;" points="1725.56,-132.863 1715,-132 1722.72,-139.26 1725.56,-132.863"/>
</g>
<!-- Node19&#45;&gt;Node13 -->
<g id="edge76" class="edge"><title>Node19&#45;&gt;Node13</title>
<path style="fill:none;stroke:midnightblue;" d="M1835,-168C1843,-159 1854,-145 1864,-132 1874,-117 1885,-99 1892,-85"/>
<polygon style="fill:midnightblue;stroke:midnightblue;" points="1895.2,-86.4414 1897,-76 1889.08,-83.0418 1895.2,-86.4414"/>
</g>
<!-- Node19&#45;&gt;Node14 -->
<g id="edge78" class="edge"><title>Node19&#45;&gt;Node14</title>
<path style="fill:none;stroke:midnightblue;" d="M1774,-177C1649,-173 1327,-162 1060,-132 1007,-125 995,-118 941,-112 683,-82 614,-103 352,-76"/>
<polygon style="fill:midnightblue;stroke:midnightblue;" points="352.299,-72.5125 342,-75 351.602,-79.4778 352.299,-72.5125"/>
</g>
<!-- Node20&#45;&gt;Node4 -->
<g id="edge86" class="edge"><title>Node20&#45;&gt;Node4</title>
<path style="fill:none;stroke:midnightblue;" d="M1239,-224C1248,-209 1267,-183 1289,-168 1332,-138 1351,-149 1401,-132 1424,-123 1430,-120 1454,-112 1490,-99 1532,-85 1559,-76"/>
<polygon style="fill:midnightblue;stroke:midnightblue;" points="1560.43,-79.2259 1569,-73 1558.42,-72.5212 1560.43,-79.2259"/>
</g>
<!-- Node20&#45;&gt;Node5 -->
<g id="edge84" class="edge"><title>Node20&#45;&gt;Node5</title>
<path style="fill:none;stroke:midnightblue;" d="M1217,-224C1175,-196 1065,-114 1115,-56 1134,-33 1329,-18 1406,-12"/>
<polygon style="fill:midnightblue;stroke:midnightblue;" points="1406.4,-15.4778 1416,-11 1405.7,-8.5125 1406.4,-15.4778"/>
</g>
<!-- Node20&#45;&gt;Node11 -->
<g id="edge82" class="edge"><title>Node20&#45;&gt;Node11</title>
<path style="fill:none;stroke:midnightblue;" d="M1234,-224C1235,-209 1241,-183 1256,-168 1295,-130 1322,-151 1373,-132 1378,-129 1447,-97 1486,-78"/>
<polygon style="fill:midnightblue;stroke:midnightblue;" points="1487.28,-81.2598 1495,-74 1484.44,-74.8631 1487.28,-81.2598"/>
</g>
<!-- Node20&#45;&gt;Node14 -->
<g id="edge112" class="edge"><title>Node20&#45;&gt;Node14</title>
<path style="fill:none;stroke:midnightblue;" d="M1180,-233C1042,-231 677,-222 561,-188 544,-182 543,-174 525,-168 461,-143 437,-161 374,-132 348,-119 322,-98 306,-83"/>
<polygon style="fill:midnightblue;stroke:midnightblue;" points="307.831,-79.9511 298,-76 303.221,-85.2191 307.831,-79.9511"/>
</g>
<!-- Node20&#45;&gt;Node21 -->
<g id="edge88" class="edge"><title>Node20&#45;&gt;Node21</title>
<path style="fill:none;stroke:midnightblue;" d="M1257,-224C1279,-215 1311,-202 1335,-192"/>
<polygon style="fill:midnightblue;stroke:midnightblue;" points="1336.28,-195.26 1344,-188 1333.44,-188.863 1336.28,-195.26"/>
</g>
<!-- Node21&#45;&gt;Node5 -->
<g id="edge92" class="edge"><title>Node21&#45;&gt;Node5</title>
<path style="fill:none;stroke:midnightblue;" d="M1298,-174C1236,-169 1152,-157 1131,-132 1110,-105 1109,-81 1131,-56 1149,-35 1332,-19 1406,-13"/>
<polygon style="fill:midnightblue;stroke:midnightblue;" points="1406.4,-16.4778 1416,-12 1405.7,-9.5125 1406.4,-16.4778"/>
</g>
<!-- Node21&#45;&gt;Node7 -->
<g id="edge90" class="edge"><title>Node21&#45;&gt;Node7</title>
<path style="fill:none;stroke:midnightblue;" d="M1407,-168C1488,-146 1677,-97 1758,-77"/>
<polygon style="fill:midnightblue;stroke:midnightblue;" points="1759.43,-80.2259 1768,-74 1757.42,-73.5212 1759.43,-80.2259"/>
</g>
<!-- Node22 -->
<g id="node69" class="node"><title>Node22</title>
<a xlink:href="parameters__container_8h.html" target="_top" xlink:title="ltr/parameters_container/parameters_container.h">
<polygon style="fill:white;stroke:black;" points="1140,-112 1140,-132 1365,-132 1365,-112 1140,-112"/>
<text text-anchor="middle" x="1252" y="-119" style="font-family:Arial;font-size:10.00;">ltr/parameters_container/parameters_container.h</text>
</a>
</g>
<!-- Node21&#45;&gt;Node22 -->
<g id="edge94" class="edge"><title>Node21&#45;&gt;Node22</title>
<path style="fill:none;stroke:midnightblue;" d="M1348,-168C1330,-159 1303,-146 1282,-136"/>
<polygon style="fill:midnightblue;stroke:midnightblue;" points="1283.56,-132.863 1273,-132 1280.72,-139.26 1283.56,-132.863"/>
</g>
<!-- Node22&#45;&gt;Node2 -->
<g id="edge96" class="edge"><title>Node22&#45;&gt;Node2</title>
<path style="fill:none;stroke:midnightblue;" d="M1140,-115C950,-102 575,-77 443,-69"/>
<polygon style="fill:midnightblue;stroke:midnightblue;" points="443.299,-65.5125 433,-68 442.602,-72.4778 443.299,-65.5125"/>
</g>
<!-- Node22&#45;&gt;Node5 -->
<g id="edge102" class="edge"><title>Node22&#45;&gt;Node5</title>
<path style="fill:none;stroke:midnightblue;" d="M1309,-112C1350,-104 1401,-91 1417,-76 1429,-64 1433,-45 1435,-30"/>
<polygon style="fill:midnightblue;stroke:midnightblue;" points="1438.49,-30.2987 1436,-20 1431.52,-29.6021 1438.49,-30.2987"/>
</g>
<!-- Node22&#45;&gt;Node7 -->
<g id="edge100" class="edge"><title>Node22&#45;&gt;Node7</title>
<path style="fill:none;stroke:midnightblue;" d="M1349,-112C1471,-100 1674,-79 1758,-70"/>
<polygon style="fill:midnightblue;stroke:midnightblue;" points="1758.4,-73.4778 1768,-69 1757.7,-66.5125 1758.4,-73.4778"/>
</g>
<!-- Node22&#45;&gt;Node13 -->
<g id="edge110" class="edge"><title>Node22&#45;&gt;Node13</title>
<path style="fill:none;stroke:midnightblue;" d="M1365,-115C1481,-108 1665,-95 1834,-76"/>
<polygon style="fill:midnightblue;stroke:midnightblue;" points="1834.4,-79.4778 1844,-75 1833.7,-72.5125 1834.4,-79.4778"/>
</g>
<!-- Node22&#45;&gt;Node14 -->
<g id="edge108" class="edge"><title>Node22&#45;&gt;Node14</title>
<path style="fill:none;stroke:midnightblue;" d="M1140,-115C1122,-114 1105,-113 1088,-112 764,-94 679,-110 352,-76"/>
<polygon style="fill:midnightblue;stroke:midnightblue;" points="352.299,-72.5125 342,-75 351.602,-79.4778 352.299,-72.5125"/>
</g>
<!-- Node23 -->
<g id="node72" class="node"><title>Node23</title>
<polygon style="fill:white;stroke:#bfbfbf;" points="1380,-56 1380,-76 1409,-76 1409,-56 1380,-56"/>
<text text-anchor="middle" x="1394" y="-63" style="font-family:Arial;font-size:10.00;">list</text>
</g>
<!-- Node22&#45;&gt;Node23 -->
<g id="edge98" class="edge"><title>Node22&#45;&gt;Node23</title>
<path style="fill:none;stroke:midnightblue;" d="M1278,-112C1301,-104 1333,-91 1370,-76"/>
<polygon style="fill:midnightblue;stroke:midnightblue;" points="1372.02,-78.9636 1380,-72 1369.42,-72.4643 1372.02,-78.9636"/>
</g>
<!-- Node24 -->
<g id="node76" class="node"><title>Node24</title>
<polygon style="fill:white;stroke:#bfbfbf;" points="1140,-56 1140,-76 1217,-76 1217,-56 1140,-56"/>
<text text-anchor="middle" x="1178" y="-63" style="font-family:Arial;font-size:10.00;">boost/any.hpp</text>
</g>
<!-- Node22&#45;&gt;Node24 -->
<g id="edge104" class="edge"><title>Node22&#45;&gt;Node24</title>
<path style="fill:none;stroke:midnightblue;" d="M1239,-112C1228,-104 1212,-92 1199,-82"/>
<polygon style="fill:midnightblue;stroke:midnightblue;" points="1201.1,-79.2 1191,-76 1196.9,-84.8 1201.1,-79.2"/>
</g>
<!-- Node25 -->
<g id="node78" class="node"><title>Node25</title>
<polygon style="fill:white;stroke:#bfbfbf;" points="1234,-56 1234,-76 1363,-76 1363,-56 1234,-56"/>
<text text-anchor="middle" x="1298" y="-63" style="font-family:Arial;font-size:10.00;">boost/unordered_map.hpp</text>
</g>
<!-- Node22&#45;&gt;Node25 -->
<g id="edge106" class="edge"><title>Node22&#45;&gt;Node25</title>
<path style="fill:none;stroke:midnightblue;" d="M1260,-112C1266,-104 1275,-94 1283,-84"/>
<polygon style="fill:midnightblue;stroke:midnightblue;" points="1285.8,-86.1 1289,-76 1280.2,-81.9 1285.8,-86.1"/>
</g>
<!-- Node26&#45;&gt;Node10 -->
<g id="edge116" class="edge"><title>Node26&#45;&gt;Node10</title>
<path style="fill:none;stroke:midnightblue;" d="M1647,-224C1655,-205 1672,-166 1682,-141"/>
<polygon style="fill:midnightblue;stroke:midnightblue;" points="1685.14,-142.56 1686,-132 1678.74,-139.717 1685.14,-142.56"/>
</g>
<!-- Node26&#45;&gt;Node14 -->
<g id="edge124" class="edge"><title>Node26&#45;&gt;Node14</title>
<path style="fill:none;stroke:midnightblue;" d="M1570,-231C1363,-223 784,-200 745,-188 715,-178 655,-122 625,-112 513,-71 474,-92 352,-76"/>
<polygon style="fill:midnightblue;stroke:midnightblue;" points="352.299,-72.5125 342,-75 351.602,-79.4778 352.299,-72.5125"/>
</g>
<!-- Node26&#45;&gt;Node18 -->
<g id="edge120" class="edge"><title>Node26&#45;&gt;Node18</title>
<path style="fill:none;stroke:midnightblue;" d="M1697,-224C1751,-215 1831,-200 1886,-189"/>
<polygon style="fill:midnightblue;stroke:midnightblue;" points="1886.88,-192.393 1896,-187 1885.51,-185.529 1886.88,-192.393"/>
</g>
<!-- Node26&#45;&gt;Node19 -->
<g id="edge118" class="edge"><title>Node26&#45;&gt;Node19</title>
<path style="fill:none;stroke:midnightblue;" d="M1676,-224C1706,-215 1751,-201 1783,-191"/>
<polygon style="fill:midnightblue;stroke:midnightblue;" points="1784.43,-194.226 1793,-188 1782.42,-187.521 1784.43,-194.226"/>
</g>
<!-- Node26&#45;&gt;Node21 -->
<g id="edge122" class="edge"><title>Node26&#45;&gt;Node21</title>
<path style="fill:none;stroke:midnightblue;" d="M1594,-224C1547,-215 1478,-200 1428,-190"/>
<polygon style="fill:midnightblue;stroke:midnightblue;" points="1428.49,-186.529 1418,-188 1427.12,-193.393 1428.49,-186.529"/>
</g>
<!-- Node27&#45;&gt;Node5 -->
<g id="edge128" class="edge"><title>Node27&#45;&gt;Node5</title>
<path style="fill:none;stroke:midnightblue;" d="M885,-112C896,-97 919,-68 946,-56 1029,-18 1312,-11 1406,-10"/>
<polygon style="fill:midnightblue;stroke:midnightblue;" points="1406,-13.5001 1416,-10 1406,-6.5001 1406,-13.5001"/>
</g>
<!-- Node28&#45;&gt;Node2 -->
<g id="edge132" class="edge"><title>Node28&#45;&gt;Node2</title>
<path style="fill:none;stroke:midnightblue;" d="M334,-224C322,-211 306,-189 312,-168 324,-132 354,-101 375,-82"/>
<polygon style="fill:midnightblue;stroke:midnightblue;" points="377.1,-84.8 383,-76 372.9,-79.2 377.1,-84.8"/>
</g>
<!-- Node28&#45;&gt;Node5 -->
<g id="edge136" class="edge"><title>Node28&#45;&gt;Node5</title>
<path style="fill:none;stroke:midnightblue;" d="M342,-224C339,-210 336,-186 345,-168 365,-130 383,-128 421,-112 606,-35 1257,-14 1406,-10"/>
<polygon style="fill:midnightblue;stroke:midnightblue;" points="1406,-13.5001 1416,-10 1406,-6.5001 1406,-13.5001"/>
</g>
<!-- Node28&#45;&gt;Node8 -->
<g id="edge138" class="edge"><title>Node28&#45;&gt;Node8</title>
<path style="fill:none;stroke:midnightblue;" d="M357,-224C367,-216 382,-204 394,-195"/>
<polygon style="fill:midnightblue;stroke:midnightblue;" points="396.779,-197.219 402,-188 392.169,-191.951 396.779,-197.219"/>
</g>
<!-- Node28&#45;&gt;Node14 -->
<g id="edge154" class="edge"><title>Node28&#45;&gt;Node14</title>
<path style="fill:none;stroke:midnightblue;" d="M298,-224C263,-215 220,-202 209,-188 183,-151 232,-106 264,-82"/>
<polygon style="fill:midnightblue;stroke:midnightblue;" points="266.1,-84.8 272,-76 261.9,-79.2 266.1,-84.8"/>
</g>
<!-- Node29 -->
<g id="node96" class="node"><title>Node29</title>
<polygon style="fill:white;stroke:#bfbfbf;" points="218,-168 218,-188 261,-188 261,-168 218,-168"/>
<text text-anchor="middle" x="239" y="-175" style="font-family:Arial;font-size:10.00;">cmath</text>
</g>
<!-- Node28&#45;&gt;Node29 -->
<g id="edge134" class="edge"><title>Node28&#45;&gt;Node29</title>
<path style="fill:none;stroke:midnightblue;" d="M325,-224C309,-215 285,-203 267,-193"/>
<polygon style="fill:midnightblue;stroke:midnightblue;" points="268.441,-189.797 258,-188 265.042,-195.916 268.441,-189.797"/>
</g>
<!-- Node28&#45;&gt;Node30 -->
<g id="edge140" class="edge"><title>Node28&#45;&gt;Node30</title>
<path style="fill:none;stroke:midnightblue;" d="M396,-224C445,-215 519,-200 572,-190"/>
<polygon style="fill:midnightblue;stroke:midnightblue;" points="572.881,-193.393 582,-188 571.508,-186.529 572.881,-193.393"/>
</g>
<!-- Node30&#45;&gt;Node2 -->
<g id="edge144" class="edge"><title>Node30&#45;&gt;Node2</title>
<path style="fill:none;stroke:midnightblue;" d="M636,-168C638,-153 640,-127 625,-112 601,-87 503,-74 443,-69"/>
<polygon style="fill:midnightblue;stroke:midnightblue;" points="443.299,-65.5125 433,-68 442.602,-72.4778 443.299,-65.5125"/>
</g>
<!-- Node30&#45;&gt;Node5 -->
<g id="edge146" class="edge"><title>Node30&#45;&gt;Node5</title>
<path style="fill:none;stroke:midnightblue;" d="M647,-168C679,-143 765,-81 847,-56 953,-23 1301,-13 1406,-10"/>
<polygon style="fill:midnightblue;stroke:midnightblue;" points="1406,-13.5001 1416,-10 1406,-6.5001 1406,-13.5001"/>
</g>
<!-- Node30&#45;&gt;Node14 -->
<g id="edge150" class="edge"><title>Node30&#45;&gt;Node14</title>
<path style="fill:none;stroke:midnightblue;" d="M570,-168C527,-160 470,-148 421,-132 383,-119 340,-96 314,-81"/>
<polygon style="fill:midnightblue;stroke:midnightblue;" points="315.441,-77.7969 305,-76 312.042,-83.916 315.441,-77.7969"/>
</g>
<!-- Node30&#45;&gt;Node27 -->
<g id="edge152" class="edge"><title>Node30&#45;&gt;Node27</title>
<path style="fill:none;stroke:midnightblue;" d="M678,-168C719,-159 780,-144 824,-134"/>
<polygon style="fill:midnightblue;stroke:midnightblue;" points="824.881,-137.393 834,-132 823.508,-130.529 824.881,-137.393"/>
</g>
<!-- Node31 -->
<g id="node102" class="node"><title>Node31</title>
<polygon style="fill:white;stroke:#bfbfbf;" points="430,-112 430,-132 544,-132 544,-112 430,-112"/>
<text text-anchor="middle" x="487" y="-119" style="font-family:Arial;font-size:10.00;">boost/lexical_cast.hpp</text>
</g>
<!-- Node30&#45;&gt;Node31 -->
<g id="edge142" class="edge"><title>Node30&#45;&gt;Node31</title>
<path style="fill:none;stroke:midnightblue;" d="M608,-168C584,-159 549,-146 523,-136"/>
<polygon style="fill:midnightblue;stroke:midnightblue;" points="523.585,-132.464 513,-132 520.985,-138.964 523.585,-132.464"/>
</g>
<!-- Node32 -->
<g id="node106" class="node"><title>Node32</title>
<polygon style="fill:white;stroke:#bfbfbf;" points="562,-112 562,-132 616,-132 616,-112 562,-112"/>
<text text-anchor="middle" x="589" y="-119" style="font-family:Arial;font-size:10.00;">iostream</text>
</g>
<!-- Node30&#45;&gt;Node32 -->
<g id="edge148" class="edge"><title>Node30&#45;&gt;Node32</title>
<path style="fill:none;stroke:midnightblue;" d="M626,-168C620,-160 611,-150 603,-140"/>
<polygon style="fill:midnightblue;stroke:midnightblue;" points="605.8,-137.9 597,-132 600.2,-142.1 605.8,-137.9"/>
</g>
<!-- Node33&#45;&gt;Node4 -->
<g id="edge166" class="edge"><title>Node33&#45;&gt;Node4</title>
<path style="fill:none;stroke:midnightblue;" d="M1047,-401C1139,-399 1334,-390 1391,-356 1419,-338 1540,-147 1579,-85"/>
<polygon style="fill:midnightblue;stroke:midnightblue;" points="1582.2,-86.4414 1584,-76 1576.08,-83.0418 1582.2,-86.4414"/>
</g>
<!-- Node33&#45;&gt;Node5 -->
<g id="edge168" class="edge"><title>Node33&#45;&gt;Node5</title>
<path style="fill:none;stroke:midnightblue;" d="M1047,-400C1214,-395 1756,-376 1930,-356 2075,-338 2254,-436 2254,-290 2254,-290 2254,-290 2254,-122 2254,-42 2165,-73 2088,-56 1967,-28 1578,-14 1466,-11"/>
<polygon style="fill:midnightblue;stroke:midnightblue;" points="1466,-7.5001 1456,-11 1466,-14.5001 1466,-7.5001"/>
</g>
<!-- Node33&#45;&gt;Node10 -->
<g id="edge172" class="edge"><title>Node33&#45;&gt;Node10</title>
<path style="fill:none;stroke:midnightblue;" d="M1047,-398C1205,-386 1694,-344 1749,-300 1776,-277 1781,-257 1771,-224 1760,-189 1730,-158 1711,-139"/>
<polygon style="fill:midnightblue;stroke:midnightblue;" points="1712.83,-135.951 1703,-132 1708.22,-141.219 1712.83,-135.951"/>
</g>
<!-- Node33&#45;&gt;Node13 -->
<g id="edge214" class="edge"><title>Node33&#45;&gt;Node13</title>
<path style="fill:none;stroke:midnightblue;" d="M1047,-400C1275,-391 2216,-349 2216,-290 2216,-290 2216,-290 2216,-178 2216,-126 2064,-92 1971,-77"/>
<polygon style="fill:midnightblue;stroke:midnightblue;" points="1971.49,-73.5292 1961,-75 1970.12,-80.3933 1971.49,-73.5292"/>
</g>
<!-- Node33&#45;&gt;Node14 -->
<g id="edge216" class="edge"><title>Node33&#45;&gt;Node14</title>
<path style="fill:none;stroke:midnightblue;" d="M950,-399C868,-394 695,-381 551,-356 450,-338 422,-336 325,-300 252,-272 209,-263 189,-188 184,-167 195,-116 197,-112 208,-97 224,-87 241,-80"/>
<polygon style="fill:midnightblue;stroke:midnightblue;" points="242.283,-83.2598 250,-76 239.44,-76.8631 242.283,-83.2598"/>
</g>
<!-- Node33&#45;&gt;Node27 -->
<g id="edge170" class="edge"><title>Node33&#45;&gt;Node27</title>
<path style="fill:none;stroke:midnightblue;" d="M990,-392C977,-374 950,-335 933,-300 909,-245 891,-176 882,-142"/>
<polygon style="fill:midnightblue;stroke:midnightblue;" points="885.393,-141.119 880,-132 878.529,-142.492 885.393,-141.119"/>
</g>
<!-- Node33&#45;&gt;Node31 -->
<g id="edge164" class="edge"><title>Node33&#45;&gt;Node31</title>
<path style="fill:none;stroke:midnightblue;" d="M950,-397C803,-380 363,-325 247,-244 217,-222 185,-196 209,-168 223,-152 342,-137 420,-129"/>
<polygon style="fill:midnightblue;stroke:midnightblue;" points="420.398,-132.478 430,-128 419.701,-125.512 420.398,-132.478"/>
</g>
<!-- Node34 -->
<g id="node121" class="node"><title>Node34</title>
<a xlink:href="feature__converter_8h.html" target="_top" xlink:title="ltr/feature_converters/feature_converter.h">
<polygon style="fill:white;stroke:black;" points="1192,-336 1192,-356 1382,-356 1382,-336 1192,-336"/>
<text text-anchor="middle" x="1287" y="-343" style="font-family:Arial;font-size:10.00;">ltr/feature_converters/feature_converter.h</text>
</a>
</g>
<!-- Node33&#45;&gt;Node34 -->
<g id="edge174" class="edge"><title>Node33&#45;&gt;Node34</title>
<path style="fill:none;stroke:midnightblue;" d="M1047,-393C1096,-384 1172,-369 1226,-358"/>
<polygon style="fill:midnightblue;stroke:midnightblue;" points="1226.88,-361.393 1236,-356 1225.51,-354.529 1226.88,-361.393"/>
</g>
<!-- Node35 -->
<g id="node134" class="node"><title>Node35</title>
<a xlink:href="serializable__functor_8h.html" target="_top" xlink:title="ltr/interfaces/serializable_functor.h">
<polygon style="fill:white;stroke:black;" points="579,-224 579,-244 742,-244 742,-224 579,-224"/>
<text text-anchor="middle" x="660" y="-231" style="font-family:Arial;font-size:10.00;">ltr/interfaces/serializable_functor.h</text>
</a>
</g>
<!-- Node33&#45;&gt;Node35 -->
<g id="edge198" class="edge"><title>Node33&#45;&gt;Node35</title>
<path style="fill:none;stroke:midnightblue;" d="M950,-401C875,-398 734,-388 696,-356 667,-330 661,-282 660,-254"/>
<polygon style="fill:midnightblue;stroke:midnightblue;" points="663.5,-254 660,-244 656.5,-254 663.5,-254"/>
</g>
<!-- Node34&#45;&gt;Node4 -->
<g id="edge176" class="edge"><title>Node34&#45;&gt;Node4</title>
<path style="fill:none;stroke:midnightblue;" d="M1297,-336C1341,-293 1505,-133 1530,-112 1542,-102 1556,-91 1568,-82"/>
<polygon style="fill:midnightblue;stroke:midnightblue;" points="1570.1,-84.8 1576,-76 1565.9,-79.2 1570.1,-84.8"/>
</g>
<!-- Node34&#45;&gt;Node5 -->
<g id="edge178" class="edge"><title>Node34&#45;&gt;Node5</title>
<path style="fill:none;stroke:midnightblue;" d="M1271,-336C1212,-297 1015,-154 1101,-56 1121,-33 1326,-17 1406,-12"/>
<polygon style="fill:midnightblue;stroke:midnightblue;" points="1406.4,-15.4778 1416,-11 1405.7,-8.5125 1406.4,-15.4778"/>
</g>
<!-- Node34&#45;&gt;Node7 -->
<g id="edge180" class="edge"><title>Node34&#45;&gt;Node7</title>
<path style="fill:none;stroke:midnightblue;" d="M1382,-342C1567,-333 1960,-299 2021,-188 2046,-141 1966,-118 1953,-112 1943,-106 1879,-89 1837,-77"/>
<polygon style="fill:midnightblue;stroke:midnightblue;" points="1837.58,-73.5212 1827,-74 1835.57,-80.2259 1837.58,-73.5212"/>
</g>
<!-- Node34&#45;&gt;Node9 -->
<g id="edge182" class="edge"><title>Node34&#45;&gt;Node9</title>
<path style="fill:none;stroke:midnightblue;" d="M1360,-336C1438,-326 1564,-308 1636,-297"/>
<polygon style="fill:midnightblue;stroke:midnightblue;" points="1636.4,-300.478 1646,-296 1635.7,-293.512 1636.4,-300.478"/>
</g>
<!-- Node34&#45;&gt;Node10 -->
<g id="edge186" class="edge"><title>Node34&#45;&gt;Node10</title>
<path style="fill:none;stroke:midnightblue;" d="M1305,-336C1369,-300 1586,-179 1663,-137"/>
<polygon style="fill:midnightblue;stroke:midnightblue;" points="1664.96,-139.916 1672,-132 1661.56,-133.797 1664.96,-139.916"/>
</g>
<!-- Node34&#45;&gt;Node14 -->
<g id="edge196" class="edge"><title>Node34&#45;&gt;Node14</title>
<path style="fill:none;stroke:midnightblue;" d="M1192,-341C951,-327 330,-287 247,-244 193,-215 175,-161 210,-112 220,-98 235,-87 250,-80"/>
<polygon style="fill:midnightblue;stroke:midnightblue;" points="251.283,-83.2598 259,-76 248.44,-76.8631 251.283,-83.2598"/>
</g>
<!-- Node34&#45;&gt;Node20 -->
<g id="edge184" class="edge"><title>Node34&#45;&gt;Node20</title>
<path style="fill:none;stroke:midnightblue;" d="M1282,-336C1273,-317 1254,-278 1242,-253"/>
<polygon style="fill:midnightblue;stroke:midnightblue;" points="1245.26,-251.717 1238,-244 1238.86,-254.56 1245.26,-251.717"/>
</g>
<!-- Node34&#45;&gt;Node21 -->
<g id="edge190" class="edge"><title>Node34&#45;&gt;Node21</title>
<path style="fill:none;stroke:midnightblue;" d="M1292,-336C1306,-309 1342,-233 1360,-197"/>
<polygon style="fill:midnightblue;stroke:midnightblue;" points="1363.14,-198.56 1364,-188 1356.74,-195.717 1363.14,-198.56"/>
</g>
<!-- Node34&#45;&gt;Node26 -->
<g id="edge188" class="edge"><title>Node34&#45;&gt;Node26</title>
<path style="fill:none;stroke:midnightblue;" d="M1319,-336C1383,-315 1529,-269 1601,-247"/>
<polygon style="fill:midnightblue;stroke:midnightblue;" points="1602.43,-250.226 1611,-244 1600.42,-243.521 1602.43,-250.226"/>
</g>
<!-- Node34&#45;&gt;Node27 -->
<g id="edge194" class="edge"><title>Node34&#45;&gt;Node27</title>
<path style="fill:none;stroke:midnightblue;" d="M1192,-338C1100,-329 971,-315 952,-300 904,-260 931,-224 904,-168 900,-159 895,-149 890,-141"/>
<polygon style="fill:midnightblue;stroke:midnightblue;" points="892.916,-139.042 885,-132 886.797,-142.441 892.916,-139.042"/>
</g>
<!-- Node34&#45;&gt;Node30 -->
<g id="edge192" class="edge"><title>Node34&#45;&gt;Node30</title>
<path style="fill:none;stroke:midnightblue;" d="M1192,-342C1115,-337 1006,-326 914,-300 837,-277 824,-255 750,-224 724,-213 694,-200 670,-192"/>
<polygon style="fill:midnightblue;stroke:midnightblue;" points="671.56,-188.863 661,-188 668.717,-195.26 671.56,-188.863"/>
</g>
<!-- Node35&#45;&gt;Node14 -->
<g id="edge200" class="edge"><title>Node35&#45;&gt;Node14</title>
<path style="fill:none;stroke:midnightblue;" d="M629,-224C602,-215 562,-202 528,-188 509,-180 506,-174 485,-168 411,-143 372,-183 312,-132 299,-120 293,-101 291,-86"/>
<polygon style="fill:midnightblue;stroke:midnightblue;" points="294.393,-85.1194 289,-76 287.529,-86.4922 294.393,-85.1194"/>
</g>
<!-- Node35&#45;&gt;Node30 -->
<g id="edge212" class="edge"><title>Node35&#45;&gt;Node30</title>
<path style="fill:none;stroke:midnightblue;" d="M655,-224C652,-217 647,-206 643,-197"/>
<polygon style="fill:midnightblue;stroke:midnightblue;" points="646.26,-195.717 639,-188 639.863,-198.56 646.26,-195.717"/>
</g>
<!-- Node36 -->
<g id="node137" class="node"><title>Node36</title>
<a xlink:href="functor_8h.html" target="_top" xlink:title="ltr/interfaces/functor.h">
<polygon style="fill:white;stroke:black;" points="754,-168 754,-188 863,-188 863,-168 754,-168"/>
<text text-anchor="middle" x="808" y="-175" style="font-family:Arial;font-size:10.00;">ltr/interfaces/functor.h</text>
</a>
</g>
<!-- Node35&#45;&gt;Node36 -->
<g id="edge202" class="edge"><title>Node35&#45;&gt;Node36</title>
<path style="fill:none;stroke:midnightblue;" d="M686,-224C710,-215 745,-202 771,-192"/>
<polygon style="fill:midnightblue;stroke:midnightblue;" points="773.015,-194.964 781,-188 770.415,-188.464 773.015,-194.964"/>
</g>
<!-- Node36&#45;&gt;Node5 -->
<g id="edge208" class="edge"><title>Node36&#45;&gt;Node5</title>
<path style="fill:none;stroke:midnightblue;" d="M806,-168C805,-154 804,-129 815,-112 843,-70 865,-70 912,-56 1005,-26 1309,-14 1406,-11"/>
<polygon style="fill:midnightblue;stroke:midnightblue;" points="1406,-14.5001 1416,-11 1406,-7.5001 1406,-14.5001"/>
</g>
<!-- Node36&#45;&gt;Node10 -->
<g id="edge210" class="edge"><title>Node36&#45;&gt;Node10</title>
<path style="fill:none;stroke:midnightblue;" d="M863,-174C1022,-164 1482,-135 1638,-126"/>
<polygon style="fill:midnightblue;stroke:midnightblue;" points="1638.4,-129.478 1648,-125 1637.7,-122.512 1638.4,-129.478"/>
</g>
<!-- Node36&#45;&gt;Node14 -->
<g id="edge204" class="edge"><title>Node36&#45;&gt;Node14</title>
<path style="fill:none;stroke:midnightblue;" d="M801,-168C789,-153 763,-124 734,-112 659,-78 451,-85 352,-76"/>
<polygon style="fill:midnightblue;stroke:midnightblue;" points="352.299,-72.5125 342,-75 351.602,-79.4778 352.299,-72.5125"/>
</g>
<!-- Node36&#45;&gt;Node31 -->
<g id="edge206" class="edge"><title>Node36&#45;&gt;Node31</title>
<path style="fill:none;stroke:midnightblue;" d="M754,-169C698,-160 613,-144 554,-134"/>
<polygon style="fill:midnightblue;stroke:midnightblue;" points="554.492,-130.529 544,-132 553.119,-137.393 554.492,-130.529"/>
</g>
</g>
</svg>
