<?xml version="1.0" encoding="UTF-8" standalone="no"?>
<!DOCTYPE svg PUBLIC "-//W3C//DTD SVG 1.0//EN"
 "http://www.w3.org/TR/2001/REC-SVG-20010904/DTD/svg10.dtd" [
 <!ATTLIST svg xmlns:xlink CDATA #FIXED "http://www.w3.org/1999/xlink">
]>
<!-- Generated by Graphviz version 2.20.2 (Tue Mar &#160;2 19:03:41 UTC 2010)
     For user: (jenkins)  -->
<!-- Title: G Pages: 1 -->
<svg width="718pt" height="196pt"
 viewBox="0.00 0.00 718.00 196.00" xmlns="http://www.w3.org/2000/svg" xmlns:xlink="http://www.w3.org/1999/xlink">
<g id="graph0" class="graph" transform="scale(1 1) rotate(0) translate(4 192)">
<title>G</title>
<polygon style="fill:white;stroke:white;" points="-4,4 -4,-192 714,-192 714,4 -4,4"/>
<!-- Node1 -->
<g id="node1" class="node"><title>Node1</title>
<polygon style="fill:#bfbfbf;stroke:black;" points="54,-168 54,-188 231,-188 231,-168 54,-168"/>
<text text-anchor="middle" x="142" y="-175" style="font-family:Arial;font-size:10.00;">ltr/learners/gp_learner/gp_primitives.h</text>
</g>
<!-- Node2 -->
<g id="node3" class="node"><title>Node2</title>
<polygon style="fill:white;stroke:#bfbfbf;" points="28,-56 28,-76 102,-76 102,-56 28,-56"/>
<text text-anchor="middle" x="65" y="-63" style="font-family:Arial;font-size:10.00;">logog/logog.h</text>
</g>
<!-- Node1&#45;&gt;Node2 -->
<g id="edge2" class="edge"><title>Node1&#45;&gt;Node2</title>
<path style="fill:none;stroke:midnightblue;" d="M135,-168C122,-148 94,-109 78,-84"/>
<polygon style="fill:midnightblue;stroke:midnightblue;" points="80.8,-81.9 72,-76 75.2,-86.1 80.8,-81.9"/>
</g>
<!-- Node3 -->
<g id="node5" class="node"><title>Node3</title>
<polygon style="fill:white;stroke:#bfbfbf;" points="28,-112 28,-132 71,-132 71,-112 28,-112"/>
<text text-anchor="middle" x="49" y="-119" style="font-family:Arial;font-size:10.00;">cmath</text>
</g>
<!-- Node1&#45;&gt;Node3 -->
<g id="edge4" class="edge"><title>Node1&#45;&gt;Node3</title>
<path style="fill:none;stroke:midnightblue;" d="M125,-168C112,-160 91,-147 75,-137"/>
<polygon style="fill:midnightblue;stroke:midnightblue;" points="76.4414,-133.797 66,-132 73.0418,-139.916 76.4414,-133.797"/>
</g>
<!-- Node4 -->
<g id="node7" class="node"><title>Node4</title>
<polygon style="fill:white;stroke:#bfbfbf;" points="154,-0 154,-20 194,-20 194,-0 154,-0"/>
<text text-anchor="middle" x="174" y="-7" style="font-family:Arial;font-size:10.00;">string</text>
</g>
<!-- Node1&#45;&gt;Node4 -->
<g id="edge6" class="edge"><title>Node1&#45;&gt;Node4</title>
<path style="fill:none;stroke:midnightblue;" d="M102,-168C70,-159 29,-146 19,-132 0,-104 -1,-83 19,-56 35,-36 104,-21 144,-15"/>
<polygon style="fill:midnightblue;stroke:midnightblue;" points="144.881,-18.3933 154,-13 143.508,-11.5292 144.881,-18.3933"/>
</g>
<!-- Node5 -->
<g id="node9" class="node"><title>Node5</title>
<polygon style="fill:white;stroke:#bfbfbf;" points="126,-112 126,-132 249,-132 249,-112 126,-112"/>
<text text-anchor="middle" x="187" y="-119" style="font-family:Arial;font-size:10.00;">contrib/puppy/Puppy.hpp</text>
</g>
<!-- Node1&#45;&gt;Node5 -->
<g id="edge8" class="edge"><title>Node1&#45;&gt;Node5</title>
<path style="fill:none;stroke:midnightblue;" d="M150,-168C156,-160 165,-150 173,-140"/>
<polygon style="fill:midnightblue;stroke:midnightblue;" points="175.8,-142.1 179,-132 170.2,-137.9 175.8,-142.1"/>
</g>
<!-- Node6 -->
<g id="node11" class="node"><title>Node6</title>
<a xlink:href="serializable_8h.html" target="_top" xlink:title="ltr/interfaces/serializable.h">
<polygon style="fill:white;stroke:black;" points="266,-112 266,-132 395,-132 395,-112 266,-112"/>
<text text-anchor="middle" x="330" y="-119" style="font-family:Arial;font-size:10.00;">ltr/interfaces/serializable.h</text>
</a>
</g>
<!-- Node1&#45;&gt;Node6 -->
<g id="edge10" class="edge"><title>Node1&#45;&gt;Node6</title>
<path style="fill:none;stroke:midnightblue;" d="M176,-168C207,-159 252,-145 286,-135"/>
<polygon style="fill:midnightblue;stroke:midnightblue;" points="287.427,-138.226 296,-132 285.416,-131.521 287.427,-138.226"/>
</g>
<!-- Node9 -->
<g id="node19" class="node"><title>Node9</title>
<a xlink:href="shared__ptr_8h.html" target="_top" xlink:title="ltr/utility/shared_ptr.h">
<polygon style="fill:white;stroke:black;" points="488,-56 488,-76 595,-76 595,-56 488,-56"/>
<text text-anchor="middle" x="541" y="-63" style="font-family:Arial;font-size:10.00;">ltr/utility/shared_ptr.h</text>
</a>
</g>
<!-- Node1&#45;&gt;Node9 -->
<g id="edge32" class="edge"><title>Node1&#45;&gt;Node9</title>
<path style="fill:none;stroke:midnightblue;" d="M231,-168C282,-161 347,-149 403,-132 443,-119 488,-96 515,-81"/>
<polygon style="fill:midnightblue;stroke:midnightblue;" points="516.958,-83.916 524,-76 513.559,-77.7969 516.958,-83.916"/>
</g>
<!-- Node6&#45;&gt;Node2 -->
<g id="edge14" class="edge"><title>Node6&#45;&gt;Node2</title>
<path style="fill:none;stroke:midnightblue;" d="M282,-112C240,-103 177,-89 112,-76"/>
<polygon style="fill:midnightblue;stroke:midnightblue;" points="112.492,-72.5292 102,-74 111.119,-79.3933 112.492,-72.5292"/>
</g>
<!-- Node6&#45;&gt;Node4 -->
<g id="edge16" class="edge"><title>Node6&#45;&gt;Node4</title>
<path style="fill:none;stroke:midnightblue;" d="M316,-112C288,-92 229,-50 196,-26"/>
<polygon style="fill:midnightblue;stroke:midnightblue;" points="198.1,-23.2 188,-20 193.9,-28.8 198.1,-23.2"/>
</g>
<!-- Node7 -->
<g id="node13" class="node"><title>Node7</title>
<polygon style="fill:white;stroke:#bfbfbf;" points="284,-56 284,-76 398,-76 398,-56 284,-56"/>
<text text-anchor="middle" x="341" y="-63" style="font-family:Arial;font-size:10.00;">boost/lexical_cast.hpp</text>
</g>
<!-- Node6&#45;&gt;Node7 -->
<g id="edge12" class="edge"><title>Node6&#45;&gt;Node7</title>
<path style="fill:none;stroke:midnightblue;" d="M332,-112C333,-105 335,-95 337,-86"/>
<polygon style="fill:midnightblue;stroke:midnightblue;" points="340.471,-86.4922 339,-76 333.607,-85.1194 340.471,-86.4922"/>
</g>
<!-- Node8 -->
<g id="node17" class="node"><title>Node8</title>
<polygon style="fill:white;stroke:#bfbfbf;" points="416,-56 416,-76 470,-76 470,-56 416,-56"/>
<text text-anchor="middle" x="443" y="-63" style="font-family:Arial;font-size:10.00;">iostream</text>
</g>
<!-- Node6&#45;&gt;Node8 -->
<g id="edge18" class="edge"><title>Node6&#45;&gt;Node8</title>
<path style="fill:none;stroke:midnightblue;" d="M350,-112C368,-103 394,-90 414,-80"/>
<polygon style="fill:midnightblue;stroke:midnightblue;" points="415.283,-83.2598 423,-76 412.44,-76.8631 415.283,-83.2598"/>
</g>
<!-- Node6&#45;&gt;Node9 -->
<g id="edge20" class="edge"><title>Node6&#45;&gt;Node9</title>
<path style="fill:none;stroke:midnightblue;" d="M368,-112C403,-103 455,-89 493,-79"/>
<polygon style="fill:midnightblue;stroke:midnightblue;" points="494.427,-82.2259 503,-76 492.416,-75.5212 494.427,-82.2259"/>
</g>
<!-- Node13 -->
<g id="node27" class="node"><title>Node13</title>
<a xlink:href="aliaser_8h.html" target="_top" xlink:title="ltr/interfaces/aliaser.h">
<polygon style="fill:white;stroke:black;" points="120,-56 120,-76 228,-76 228,-56 120,-56"/>
<text text-anchor="middle" x="174" y="-63" style="font-family:Arial;font-size:10.00;">ltr/interfaces/aliaser.h</text>
</a>
</g>
<!-- Node6&#45;&gt;Node13 -->
<g id="edge28" class="edge"><title>Node6&#45;&gt;Node13</title>
<path style="fill:none;stroke:midnightblue;" d="M302,-112C277,-103 239,-89 212,-79"/>
<polygon style="fill:midnightblue;stroke:midnightblue;" points="212.584,-75.5212 202,-76 210.573,-82.2259 212.584,-75.5212"/>
</g>
<!-- Node10 -->
<g id="node21" class="node"><title>Node10</title>
<polygon style="fill:white;stroke:#bfbfbf;" points="654,-0 654,-20 710,-20 710,-0 654,-0"/>
<text text-anchor="middle" x="682" y="-7" style="font-family:Arial;font-size:10.00;">algorithm</text>
</g>
<!-- Node9&#45;&gt;Node10 -->
<g id="edge22" class="edge"><title>Node9&#45;&gt;Node10</title>
<path style="fill:none;stroke:midnightblue;" d="M566,-56C589,-47 622,-34 647,-24"/>
<polygon style="fill:midnightblue;stroke:midnightblue;" points="649.015,-26.9636 657,-20 646.415,-20.4643 649.015,-26.9636"/>
</g>
<!-- Node11 -->
<g id="node23" class="node"><title>Node11</title>
<polygon style="fill:white;stroke:#bfbfbf;" points="322,-0 322,-20 429,-20 429,-0 322,-0"/>
<text text-anchor="middle" x="375" y="-7" style="font-family:Arial;font-size:10.00;">boost/shared_ptr.hpp</text>
</g>
<!-- Node9&#45;&gt;Node11 -->
<g id="edge24" class="edge"><title>Node9&#45;&gt;Node11</title>
<path style="fill:none;stroke:midnightblue;" d="M511,-56C484,-47 444,-33 415,-23"/>
<polygon style="fill:midnightblue;stroke:midnightblue;" points="415.584,-19.5212 405,-20 413.573,-26.2259 415.584,-19.5212"/>
</g>
<!-- Node12 -->
<g id="node25" class="node"><title>Node12</title>
<polygon style="fill:white;stroke:#bfbfbf;" points="446,-0 446,-20 637,-20 637,-0 446,-0"/>
<text text-anchor="middle" x="541" y="-7" style="font-family:Arial;font-size:10.00;">boost/smart_ptr/detail/operator_bool.hpp</text>
</g>
<!-- Node9&#45;&gt;Node12 -->
<g id="edge26" class="edge"><title>Node9&#45;&gt;Node12</title>
<path style="fill:none;stroke:midnightblue;" d="M541,-56C541,-49 541,-39 541,-30"/>
<polygon style="fill:midnightblue;stroke:midnightblue;" points="544.5,-30 541,-20 537.5,-30 544.5,-30"/>
</g>
<!-- Node13&#45;&gt;Node4 -->
<g id="edge30" class="edge"><title>Node13&#45;&gt;Node4</title>
<path style="fill:none;stroke:midnightblue;" d="M174,-56C174,-49 174,-39 174,-30"/>
<polygon style="fill:midnightblue;stroke:midnightblue;" points="177.5,-30 174,-20 170.5,-30 177.5,-30"/>
</g>
</g>
</svg>
