<?xml version="1.0" encoding="UTF-8" standalone="no"?>
<!DOCTYPE svg PUBLIC "-//W3C//DTD SVG 1.0//EN"
 "http://www.w3.org/TR/2001/REC-SVG-20010904/DTD/svg10.dtd" [
 <!ATTLIST svg xmlns:xlink CDATA #FIXED "http://www.w3.org/1999/xlink">
]>
<!-- Generated by Graphviz version 2.20.2 (Tue Mar &#160;2 19:03:41 UTC 2010)
     For user: (jenkins)  -->
<!-- Title: G Pages: 1 -->
<svg width="610pt" height="84pt"
 viewBox="0.00 0.00 610.00 84.00" xmlns="http://www.w3.org/2000/svg" xmlns:xlink="http://www.w3.org/1999/xlink">
<g id="graph0" class="graph" transform="scale(1 1) rotate(0) translate(4 80)">
<title>G</title>
<polygon style="fill:white;stroke:white;" points="-4,4 -4,-80 606,-80 606,4 -4,4"/>
<!-- Node1 -->
<g id="node1" class="node"><title>Node1</title>
<polygon style="fill:#bfbfbf;stroke:black;" points="133,-56 133,-76 310,-76 310,-56 133,-56"/>
<text text-anchor="middle" x="221" y="-63" style="font-family:Arial;font-size:10.00;">ltr/learners/gp_learner/gp_primitives.h</text>
</g>
<!-- Node2 -->
<g id="node3" class="node"><title>Node2</title>
<polygon style="fill:white;stroke:#bfbfbf;" points="0,-0 0,-20 74,-20 74,-0 0,-0"/>
<text text-anchor="middle" x="37" y="-7" style="font-family:Arial;font-size:10.00;">logog/logog.h</text>
</g>
<!-- Node1&#45;&gt;Node2 -->
<g id="edge2" class="edge"><title>Node1&#45;&gt;Node2</title>
<path style="fill:none;stroke:midnightblue;" d="M188,-56C158,-47 113,-33 80,-23"/>
<polygon style="fill:midnightblue;stroke:midnightblue;" points="80.584,-19.5212 70,-20 78.5725,-26.2259 80.584,-19.5212"/>
</g>
<!-- Node3 -->
<g id="node5" class="node"><title>Node3</title>
<polygon style="fill:white;stroke:#bfbfbf;" points="92,-0 92,-20 135,-20 135,-0 92,-0"/>
<text text-anchor="middle" x="113" y="-7" style="font-family:Arial;font-size:10.00;">cmath</text>
</g>
<!-- Node1&#45;&gt;Node3 -->
<g id="edge4" class="edge"><title>Node1&#45;&gt;Node3</title>
<path style="fill:none;stroke:midnightblue;" d="M202,-56C186,-47 161,-34 142,-25"/>
<polygon style="fill:midnightblue;stroke:midnightblue;" points="143.441,-21.7969 133,-20 140.042,-27.916 143.441,-21.7969"/>
</g>
<!-- Node4 -->
<g id="node7" class="node"><title>Node4</title>
<polygon style="fill:white;stroke:#bfbfbf;" points="152,-0 152,-20 192,-20 192,-0 152,-0"/>
<text text-anchor="middle" x="172" y="-7" style="font-family:Arial;font-size:10.00;">string</text>
</g>
<!-- Node1&#45;&gt;Node4 -->
<g id="edge6" class="edge"><title>Node1&#45;&gt;Node4</title>
<path style="fill:none;stroke:midnightblue;" d="M212,-56C205,-48 195,-37 187,-28"/>
<polygon style="fill:midnightblue;stroke:midnightblue;" points="189.8,-25.9 181,-20 184.2,-30.1 189.8,-25.9"/>
</g>
<!-- Node5 -->
<g id="node9" class="node"><title>Node5</title>
<polygon style="fill:white;stroke:#bfbfbf;" points="210,-0 210,-20 333,-20 333,-0 210,-0"/>
<text text-anchor="middle" x="271" y="-7" style="font-family:Arial;font-size:10.00;">contrib/puppy/Puppy.hpp</text>
</g>
<!-- Node1&#45;&gt;Node5 -->
<g id="edge8" class="edge"><title>Node1&#45;&gt;Node5</title>
<path style="fill:none;stroke:midnightblue;" d="M230,-56C237,-48 247,-37 255,-28"/>
<polygon style="fill:midnightblue;stroke:midnightblue;" points="258.049,-29.8306 262,-20 252.781,-25.221 258.049,-29.8306"/>
</g>
<!-- Node6 -->
<g id="node11" class="node"><title>Node6</title>
<polygon style="fill:white;stroke:#bfbfbf;" points="350,-0 350,-20 479,-20 479,-0 350,-0"/>
<text text-anchor="middle" x="414" y="-7" style="font-family:Arial;font-size:10.00;">ltr/interfaces/serializable.h</text>
</g>
<!-- Node1&#45;&gt;Node6 -->
<g id="edge10" class="edge"><title>Node1&#45;&gt;Node6</title>
<path style="fill:none;stroke:midnightblue;" d="M256,-56C288,-47 335,-33 369,-23"/>
<polygon style="fill:midnightblue;stroke:midnightblue;" points="370.427,-26.2259 379,-20 368.416,-19.5212 370.427,-26.2259"/>
</g>
<!-- Node7 -->
<g id="node13" class="node"><title>Node7</title>
<polygon style="fill:white;stroke:#bfbfbf;" points="496,-0 496,-20 603,-20 603,-0 496,-0"/>
<text text-anchor="middle" x="549" y="-7" style="font-family:Arial;font-size:10.00;">ltr/utility/shared_ptr.h</text>
</g>
<!-- Node1&#45;&gt;Node7 -->
<g id="edge12" class="edge"><title>Node1&#45;&gt;Node7</title>
<path style="fill:none;stroke:midnightblue;" d="M280,-56C338,-47 427,-31 486,-21"/>
<polygon style="fill:midnightblue;stroke:midnightblue;" points="486.881,-24.3933 496,-19 485.508,-17.5292 486.881,-24.3933"/>
</g>
</g>
</svg>
