<?xml version="1.0" encoding="UTF-8" standalone="no"?>
<!DOCTYPE svg PUBLIC "-//W3C//DTD SVG 1.0//EN"
 "http://www.w3.org/TR/2001/REC-SVG-20010904/DTD/svg10.dtd" [
 <!ATTLIST svg xmlns:xlink CDATA #FIXED "http://www.w3.org/1999/xlink">
]>
<!-- Generated by Graphviz version 2.20.2 (Tue Mar &#160;2 19:03:41 UTC 2010)
     For user: (jenkins)  -->
<!-- Title: G Pages: 1 -->
<svg width="646pt" height="84pt"
 viewBox="0.00 0.00 646.00 84.00" xmlns="http://www.w3.org/2000/svg" xmlns:xlink="http://www.w3.org/1999/xlink">
<g id="graph0" class="graph" transform="scale(1 1) rotate(0) translate(4 80)">
<title>G</title>
<polygon style="fill:white;stroke:white;" points="-4,4 -4,-80 642,-80 642,4 -4,4"/>
<!-- Node1 -->
<g id="node1" class="node"><title>Node1</title>
<polygon style="fill:#bfbfbf;stroke:black;" points="264,-56 264,-76 362,-76 362,-56 264,-56"/>
<text text-anchor="middle" x="313" y="-63" style="font-family:Arial;font-size:10.00;">ltr/utility/indices.cc</text>
</g>
<!-- Node2 -->
<g id="node3" class="node"><title>Node2</title>
<polygon style="fill:white;stroke:#bfbfbf;" points="0,-0 0,-20 93,-20 93,-0 0,-0"/>
<text text-anchor="middle" x="46" y="-7" style="font-family:Arial;font-size:10.00;">ltr/utility/indices.h</text>
</g>
<!-- Node1&#45;&gt;Node2 -->
<g id="edge2" class="edge"><title>Node1&#45;&gt;Node2</title>
<path style="fill:none;stroke:midnightblue;" d="M265,-56C219,-47 152,-32 103,-22"/>
<polygon style="fill:midnightblue;stroke:midnightblue;" points="103.492,-18.5292 93,-20 102.119,-25.3933 103.492,-18.5292"/>
</g>
<!-- Node3 -->
<g id="node5" class="node"><title>Node3</title>
<polygon style="fill:white;stroke:#bfbfbf;" points="110,-0 110,-20 239,-20 239,-0 110,-0"/>
<text text-anchor="middle" x="174" y="-7" style="font-family:Arial;font-size:10.00;">boost/algorithm/string.hpp</text>
</g>
<!-- Node1&#45;&gt;Node3 -->
<g id="edge4" class="edge"><title>Node1&#45;&gt;Node3</title>
<path style="fill:none;stroke:midnightblue;" d="M288,-56C266,-47 233,-34 208,-24"/>
<polygon style="fill:midnightblue;stroke:midnightblue;" points="209.56,-20.8631 199,-20 206.717,-27.2598 209.56,-20.8631"/>
</g>
<!-- Node4 -->
<g id="node7" class="node"><title>Node4</title>
<polygon style="fill:white;stroke:#bfbfbf;" points="256,-0 256,-20 370,-20 370,-0 256,-0"/>
<text text-anchor="middle" x="313" y="-7" style="font-family:Arial;font-size:10.00;">boost/lexical_cast.hpp</text>
</g>
<!-- Node1&#45;&gt;Node4 -->
<g id="edge6" class="edge"><title>Node1&#45;&gt;Node4</title>
<path style="fill:none;stroke:midnightblue;" d="M313,-56C313,-49 313,-39 313,-30"/>
<polygon style="fill:midnightblue;stroke:midnightblue;" points="316.5,-30 313,-20 309.5,-30 316.5,-30"/>
</g>
<!-- Node5 -->
<g id="node9" class="node"><title>Node5</title>
<polygon style="fill:white;stroke:#bfbfbf;" points="388,-0 388,-20 444,-20 444,-0 388,-0"/>
<text text-anchor="middle" x="416" y="-7" style="font-family:Arial;font-size:10.00;">algorithm</text>
</g>
<!-- Node1&#45;&gt;Node5 -->
<g id="edge8" class="edge"><title>Node1&#45;&gt;Node5</title>
<path style="fill:none;stroke:midnightblue;" d="M331,-56C347,-48 370,-35 388,-25"/>
<polygon style="fill:midnightblue;stroke:midnightblue;" points="389.958,-27.916 397,-20 386.559,-21.7969 389.958,-27.916"/>
</g>
<!-- Node6 -->
<g id="node11" class="node"><title>Node6</title>
<polygon style="fill:white;stroke:#bfbfbf;" points="462,-0 462,-20 639,-20 639,-0 462,-0"/>
<text text-anchor="middle" x="550" y="-7" style="font-family:Arial;font-size:10.00;">ltr/utility/random_number_generator.h</text>
</g>
<!-- Node1&#45;&gt;Node6 -->
<g id="edge10" class="edge"><title>Node1&#45;&gt;Node6</title>
<path style="fill:none;stroke:midnightblue;" d="M355,-56C396,-47 455,-32 498,-22"/>
<polygon style="fill:midnightblue;stroke:midnightblue;" points="498.881,-25.3933 508,-20 497.508,-18.5292 498.881,-25.3933"/>
</g>
</g>
</svg>
