<?xml version="1.0" encoding="UTF-8" standalone="no"?>
<!DOCTYPE svg PUBLIC "-//W3C//DTD SVG 1.0//EN"
 "http://www.w3.org/TR/2001/REC-SVG-20010904/DTD/svg10.dtd" [
 <!ATTLIST svg xmlns:xlink CDATA #FIXED "http://www.w3.org/1999/xlink">
]>
<!-- Generated by Graphviz version 2.20.2 (Tue Mar &#160;2 19:03:41 UTC 2010)
     For user: (jenkins)  -->
<!-- Title: G Pages: 1 -->
<svg width="879pt" height="196pt"
 viewBox="0.00 0.00 879.00 196.00" xmlns="http://www.w3.org/2000/svg" xmlns:xlink="http://www.w3.org/1999/xlink">
<g id="graph0" class="graph" transform="scale(1 1) rotate(0) translate(4 192)">
<title>G</title>
<polygon style="fill:white;stroke:white;" points="-4,4 -4,-192 875,-192 875,4 -4,4"/>
<!-- Node1 -->
<g id="node1" class="node"><title>Node1</title>
<polygon style="fill:#bfbfbf;stroke:black;" points="432,-168 432,-188 530,-188 530,-168 432,-168"/>
<text text-anchor="middle" x="481" y="-175" style="font-family:Arial;font-size:10.00;">ltr/utility/indices.cc</text>
</g>
<!-- Node2 -->
<g id="node3" class="node"><title>Node2</title>
<a xlink:href="indices_8h.html" target="_top" xlink:title="ltr/utility/indices.h">
<polygon style="fill:white;stroke:black;" points="252,-112 252,-132 345,-132 345,-112 252,-112"/>
<text text-anchor="middle" x="298" y="-119" style="font-family:Arial;font-size:10.00;">ltr/utility/indices.h</text>
</a>
</g>
<!-- Node1&#45;&gt;Node2 -->
<g id="edge2" class="edge"><title>Node1&#45;&gt;Node2</title>
<path style="fill:none;stroke:midnightblue;" d="M448,-168C418,-159 373,-145 341,-135"/>
<polygon style="fill:midnightblue;stroke:midnightblue;" points="341.584,-131.521 331,-132 339.573,-138.226 341.584,-131.521"/>
</g>
<!-- Node6 -->
<g id="node11" class="node"><title>Node6</title>
<polygon style="fill:white;stroke:#bfbfbf;" points="361,-0 361,-20 417,-20 417,-0 361,-0"/>
<text text-anchor="middle" x="389" y="-7" style="font-family:Arial;font-size:10.00;">algorithm</text>
</g>
<!-- Node1&#45;&gt;Node6 -->
<g id="edge20" class="edge"><title>Node1&#45;&gt;Node6</title>
<path style="fill:none;stroke:midnightblue;" d="M454,-168C438,-160 419,-149 408,-132 387,-101 386,-56 387,-30"/>
<polygon style="fill:midnightblue;stroke:midnightblue;" points="390.488,-30.2987 388,-20 383.522,-29.6021 390.488,-30.2987"/>
</g>
<!-- Node9 -->
<g id="node17" class="node"><title>Node9</title>
<polygon style="fill:white;stroke:#bfbfbf;" points="417,-112 417,-132 546,-132 546,-112 417,-112"/>
<text text-anchor="middle" x="481" y="-119" style="font-family:Arial;font-size:10.00;">boost/algorithm/string.hpp</text>
</g>
<!-- Node1&#45;&gt;Node9 -->
<g id="edge16" class="edge"><title>Node1&#45;&gt;Node9</title>
<path style="fill:none;stroke:midnightblue;" d="M481,-168C481,-161 481,-151 481,-142"/>
<polygon style="fill:midnightblue;stroke:midnightblue;" points="484.5,-142 481,-132 477.5,-142 484.5,-142"/>
</g>
<!-- Node10 -->
<g id="node19" class="node"><title>Node10</title>
<polygon style="fill:white;stroke:#bfbfbf;" points="563,-112 563,-132 677,-132 677,-112 563,-112"/>
<text text-anchor="middle" x="620" y="-119" style="font-family:Arial;font-size:10.00;">boost/lexical_cast.hpp</text>
</g>
<!-- Node1&#45;&gt;Node10 -->
<g id="edge18" class="edge"><title>Node1&#45;&gt;Node10</title>
<path style="fill:none;stroke:midnightblue;" d="M506,-168C528,-159 561,-146 586,-136"/>
<polygon style="fill:midnightblue;stroke:midnightblue;" points="587.283,-139.26 595,-132 584.44,-132.863 587.283,-139.26"/>
</g>
<!-- Node11 -->
<g id="node22" class="node"><title>Node11</title>
<a xlink:href="random__number__generator_8h.html" target="_top" xlink:title="ltr/utility/random_number_generator.h">
<polygon style="fill:white;stroke:black;" points="695,-112 695,-132 872,-132 872,-112 695,-112"/>
<text text-anchor="middle" x="783" y="-119" style="font-family:Arial;font-size:10.00;">ltr/utility/random_number_generator.h</text>
</a>
</g>
<!-- Node1&#45;&gt;Node11 -->
<g id="edge22" class="edge"><title>Node1&#45;&gt;Node11</title>
<path style="fill:none;stroke:midnightblue;" d="M530,-169C582,-160 663,-144 719,-134"/>
<polygon style="fill:midnightblue;stroke:midnightblue;" points="719.881,-137.393 729,-132 718.508,-130.529 719.881,-137.393"/>
</g>
<!-- Node3 -->
<g id="node5" class="node"><title>Node3</title>
<polygon style="fill:white;stroke:#bfbfbf;" points="261,-56 261,-76 301,-76 301,-56 261,-56"/>
<text text-anchor="middle" x="281" y="-63" style="font-family:Arial;font-size:10.00;">string</text>
</g>
<!-- Node2&#45;&gt;Node3 -->
<g id="edge4" class="edge"><title>Node2&#45;&gt;Node3</title>
<path style="fill:none;stroke:midnightblue;" d="M295,-112C293,-105 290,-95 287,-86"/>
<polygon style="fill:midnightblue;stroke:midnightblue;" points="290.226,-84.5725 284,-76 283.521,-86.584 290.226,-84.5725"/>
</g>
<!-- Node4 -->
<g id="node7" class="node"><title>Node4</title>
<polygon style="fill:white;stroke:#bfbfbf;" points="319,-56 319,-76 361,-76 361,-56 319,-56"/>
<text text-anchor="middle" x="340" y="-63" style="font-family:Arial;font-size:10.00;">vector</text>
</g>
<!-- Node2&#45;&gt;Node4 -->
<g id="edge6" class="edge"><title>Node2&#45;&gt;Node4</title>
<path style="fill:none;stroke:midnightblue;" d="M306,-112C312,-104 320,-94 326,-85"/>
<polygon style="fill:midnightblue;stroke:midnightblue;" points="329.365,-86.262 332,-76 323.541,-82.3791 329.365,-86.262"/>
</g>
<!-- Node5 -->
<g id="node9" class="node"><title>Node5</title>
<a xlink:href="shared__ptr_8h.html" target="_top" xlink:title="ltr/utility/shared_ptr.h">
<polygon style="fill:white;stroke:black;" points="137,-56 137,-76 244,-76 244,-56 137,-56"/>
<text text-anchor="middle" x="190" y="-63" style="font-family:Arial;font-size:10.00;">ltr/utility/shared_ptr.h</text>
</a>
</g>
<!-- Node2&#45;&gt;Node5 -->
<g id="edge8" class="edge"><title>Node2&#45;&gt;Node5</title>
<path style="fill:none;stroke:midnightblue;" d="M279,-112C263,-103 238,-90 219,-81"/>
<polygon style="fill:midnightblue;stroke:midnightblue;" points="220.441,-77.7969 210,-76 217.042,-83.916 220.441,-77.7969"/>
</g>
<!-- Node5&#45;&gt;Node6 -->
<g id="edge10" class="edge"><title>Node5&#45;&gt;Node6</title>
<path style="fill:none;stroke:midnightblue;" d="M226,-56C262,-46 315,-31 351,-21"/>
<polygon style="fill:midnightblue;stroke:midnightblue;" points="352.427,-24.2259 361,-18 350.416,-17.5212 352.427,-24.2259"/>
</g>
<!-- Node7 -->
<g id="node13" class="node"><title>Node7</title>
<polygon style="fill:white;stroke:#bfbfbf;" points="0,-0 0,-20 107,-20 107,-0 0,-0"/>
<text text-anchor="middle" x="53" y="-7" style="font-family:Arial;font-size:10.00;">boost/shared_ptr.hpp</text>
</g>
<!-- Node5&#45;&gt;Node7 -->
<g id="edge12" class="edge"><title>Node5&#45;&gt;Node7</title>
<path style="fill:none;stroke:midnightblue;" d="M166,-56C144,-47 112,-34 87,-24"/>
<polygon style="fill:midnightblue;stroke:midnightblue;" points="88.5596,-20.8631 78,-20 85.7166,-27.2598 88.5596,-20.8631"/>
</g>
<!-- Node8 -->
<g id="node15" class="node"><title>Node8</title>
<polygon style="fill:white;stroke:#bfbfbf;" points="124,-0 124,-20 315,-20 315,-0 124,-0"/>
<text text-anchor="middle" x="219" y="-7" style="font-family:Arial;font-size:10.00;">boost/smart_ptr/detail/operator_bool.hpp</text>
</g>
<!-- Node5&#45;&gt;Node8 -->
<g id="edge14" class="edge"><title>Node5&#45;&gt;Node8</title>
<path style="fill:none;stroke:midnightblue;" d="M195,-56C199,-49 205,-38 210,-29"/>
<polygon style="fill:midnightblue;stroke:midnightblue;" points="213.137,-30.5596 214,-20 206.74,-27.7166 213.137,-30.5596"/>
</g>
<!-- Node11&#45;&gt;Node6 -->
<g id="edge24" class="edge"><title>Node11&#45;&gt;Node6</title>
<path style="fill:none;stroke:midnightblue;" d="M807,-112C833,-99 870,-77 851,-56 822,-24 533,-14 427,-11"/>
<polygon style="fill:midnightblue;stroke:midnightblue;" points="427,-7.5001 417,-11 427,-14.5001 427,-7.5001"/>
</g>
<!-- Node12 -->
<g id="node25" class="node"><title>Node12</title>
<polygon style="fill:white;stroke:#bfbfbf;" points="456,-56 456,-76 629,-76 629,-56 456,-56"/>
<text text-anchor="middle" x="542" y="-63" style="font-family:Arial;font-size:10.00;">boost/random/mersenne_twister.hpp</text>
</g>
<!-- Node11&#45;&gt;Node12 -->
<g id="edge26" class="edge"><title>Node11&#45;&gt;Node12</title>
<path style="fill:none;stroke:midnightblue;" d="M740,-112C699,-103 639,-88 595,-78"/>
<polygon style="fill:midnightblue;stroke:midnightblue;" points="595.492,-74.5292 585,-76 594.119,-81.3933 595.492,-74.5292"/>
</g>
<!-- Node13 -->
<g id="node27" class="node"><title>Node13</title>
<polygon style="fill:white;stroke:#bfbfbf;" points="646,-56 646,-76 843,-76 843,-56 646,-56"/>
<text text-anchor="middle" x="744" y="-63" style="font-family:Arial;font-size:10.00;">boost/random/uniform_int_distribution.hpp</text>
</g>
<!-- Node11&#45;&gt;Node13 -->
<g id="edge28" class="edge"><title>Node11&#45;&gt;Node13</title>
<path style="fill:none;stroke:midnightblue;" d="M776,-112C771,-104 763,-94 757,-85"/>
<polygon style="fill:midnightblue;stroke:midnightblue;" points="759.459,-82.3791 751,-76 753.635,-86.262 759.459,-82.3791"/>
</g>
</g>
</svg>
