<?xml version="1.0" encoding="UTF-8" standalone="no"?>
<!DOCTYPE svg PUBLIC "-//W3C//DTD SVG 1.0//EN"
 "http://www.w3.org/TR/2001/REC-SVG-20010904/DTD/svg10.dtd" [
 <!ATTLIST svg xmlns:xlink CDATA #FIXED "http://www.w3.org/1999/xlink">
]>
<!-- Generated by Graphviz version 2.20.2 (Tue Mar &#160;2 19:03:41 UTC 2010)
     For user: (jenkins)  -->
<!-- Title: G Pages: 1 -->
<svg width="547pt" height="196pt"
 viewBox="0.00 0.00 547.00 196.00" xmlns="http://www.w3.org/2000/svg" xmlns:xlink="http://www.w3.org/1999/xlink">
<g id="graph0" class="graph" transform="scale(1 1) rotate(0) translate(4 192)">
<title>G</title>
<polygon style="fill:white;stroke:white;" points="-4,4 -4,-192 543,-192 543,4 -4,4"/>
<!-- Node1 -->
<g id="node1" class="node"><title>Node1</title>
<polygon style="fill:#bfbfbf;stroke:black;" points="22,-168 22,-188 153,-188 153,-168 22,-168"/>
<text text-anchor="middle" x="87" y="-175" style="font-family:Arial;font-size:10.00;">ltr/data/indices_unittest.cc</text>
</g>
<!-- Node2 -->
<g id="node3" class="node"><title>Node2</title>
<polygon style="fill:white;stroke:#bfbfbf;" points="0,-112 0,-132 35,-132 35,-112 0,-112"/>
<text text-anchor="middle" x="17" y="-119" style="font-family:Arial;font-size:10.00;">map</text>
</g>
<!-- Node1&#45;&gt;Node2 -->
<g id="edge2" class="edge"><title>Node1&#45;&gt;Node2</title>
<path style="fill:none;stroke:midnightblue;" d="M74,-168C64,-160 49,-149 38,-139"/>
<polygon style="fill:midnightblue;stroke:midnightblue;" points="39.8306,-135.951 30,-132 35.221,-141.219 39.8306,-135.951"/>
</g>
<!-- Node3 -->
<g id="node5" class="node"><title>Node3</title>
<polygon style="fill:white;stroke:#bfbfbf;" points="52,-112 52,-132 123,-132 123,-112 52,-112"/>
<text text-anchor="middle" x="87" y="-119" style="font-family:Arial;font-size:10.00;">gtest/gtest.h</text>
</g>
<!-- Node1&#45;&gt;Node3 -->
<g id="edge4" class="edge"><title>Node1&#45;&gt;Node3</title>
<path style="fill:none;stroke:midnightblue;" d="M87,-168C87,-161 87,-151 87,-142"/>
<polygon style="fill:midnightblue;stroke:midnightblue;" points="90.5001,-142 87,-132 83.5001,-142 90.5001,-142"/>
</g>
<!-- Node4 -->
<g id="node7" class="node"><title>Node4</title>
<a xlink:href="indices_8h.html" target="_top" xlink:title="ltr/utility/indices.h">
<polygon style="fill:white;stroke:black;" points="140,-112 140,-132 233,-132 233,-112 140,-112"/>
<text text-anchor="middle" x="186" y="-119" style="font-family:Arial;font-size:10.00;">ltr/utility/indices.h</text>
</a>
</g>
<!-- Node1&#45;&gt;Node4 -->
<g id="edge6" class="edge"><title>Node1&#45;&gt;Node4</title>
<path style="fill:none;stroke:midnightblue;" d="M105,-168C120,-160 142,-147 159,-137"/>
<polygon style="fill:midnightblue;stroke:midnightblue;" points="160.958,-139.916 168,-132 157.559,-133.797 160.958,-139.916"/>
</g>
<!-- Node5 -->
<g id="node9" class="node"><title>Node5</title>
<polygon style="fill:white;stroke:#bfbfbf;" points="107,-56 107,-76 147,-76 147,-56 107,-56"/>
<text text-anchor="middle" x="127" y="-63" style="font-family:Arial;font-size:10.00;">string</text>
</g>
<!-- Node4&#45;&gt;Node5 -->
<g id="edge8" class="edge"><title>Node4&#45;&gt;Node5</title>
<path style="fill:none;stroke:midnightblue;" d="M175,-112C166,-104 155,-93 145,-83"/>
<polygon style="fill:midnightblue;stroke:midnightblue;" points="147.546,-80.5962 138,-76 142.596,-85.546 147.546,-80.5962"/>
</g>
<!-- Node6 -->
<g id="node11" class="node"><title>Node6</title>
<polygon style="fill:white;stroke:#bfbfbf;" points="165,-56 165,-76 207,-76 207,-56 165,-56"/>
<text text-anchor="middle" x="186" y="-63" style="font-family:Arial;font-size:10.00;">vector</text>
</g>
<!-- Node4&#45;&gt;Node6 -->
<g id="edge10" class="edge"><title>Node4&#45;&gt;Node6</title>
<path style="fill:none;stroke:midnightblue;" d="M186,-112C186,-105 186,-95 186,-86"/>
<polygon style="fill:midnightblue;stroke:midnightblue;" points="189.5,-86 186,-76 182.5,-86 189.5,-86"/>
</g>
<!-- Node7 -->
<g id="node13" class="node"><title>Node7</title>
<a xlink:href="shared__ptr_8h.html" target="_top" xlink:title="ltr/utility/shared_ptr.h">
<polygon style="fill:white;stroke:black;" points="225,-56 225,-76 332,-76 332,-56 225,-56"/>
<text text-anchor="middle" x="278" y="-63" style="font-family:Arial;font-size:10.00;">ltr/utility/shared_ptr.h</text>
</a>
</g>
<!-- Node4&#45;&gt;Node7 -->
<g id="edge12" class="edge"><title>Node4&#45;&gt;Node7</title>
<path style="fill:none;stroke:midnightblue;" d="M202,-112C216,-104 237,-91 252,-81"/>
<polygon style="fill:midnightblue;stroke:midnightblue;" points="253.958,-83.916 261,-76 250.559,-77.7969 253.958,-83.916"/>
</g>
<!-- Node8 -->
<g id="node15" class="node"><title>Node8</title>
<polygon style="fill:white;stroke:#bfbfbf;" points="151,-0 151,-20 207,-20 207,-0 151,-0"/>
<text text-anchor="middle" x="179" y="-7" style="font-family:Arial;font-size:10.00;">algorithm</text>
</g>
<!-- Node7&#45;&gt;Node8 -->
<g id="edge14" class="edge"><title>Node7&#45;&gt;Node8</title>
<path style="fill:none;stroke:midnightblue;" d="M260,-56C245,-48 223,-35 206,-25"/>
<polygon style="fill:midnightblue;stroke:midnightblue;" points="207.441,-21.7969 197,-20 204.042,-27.916 207.441,-21.7969"/>
</g>
<!-- Node9 -->
<g id="node17" class="node"><title>Node9</title>
<polygon style="fill:white;stroke:#bfbfbf;" points="225,-0 225,-20 332,-20 332,-0 225,-0"/>
<text text-anchor="middle" x="278" y="-7" style="font-family:Arial;font-size:10.00;">boost/shared_ptr.hpp</text>
</g>
<!-- Node7&#45;&gt;Node9 -->
<g id="edge16" class="edge"><title>Node7&#45;&gt;Node9</title>
<path style="fill:none;stroke:midnightblue;" d="M278,-56C278,-49 278,-39 278,-30"/>
<polygon style="fill:midnightblue;stroke:midnightblue;" points="281.5,-30 278,-20 274.5,-30 281.5,-30"/>
</g>
<!-- Node10 -->
<g id="node19" class="node"><title>Node10</title>
<polygon style="fill:white;stroke:#bfbfbf;" points="349,-0 349,-20 540,-20 540,-0 349,-0"/>
<text text-anchor="middle" x="444" y="-7" style="font-family:Arial;font-size:10.00;">boost/smart_ptr/detail/operator_bool.hpp</text>
</g>
<!-- Node7&#45;&gt;Node10 -->
<g id="edge18" class="edge"><title>Node7&#45;&gt;Node10</title>
<path style="fill:none;stroke:midnightblue;" d="M308,-56C335,-47 375,-33 404,-23"/>
<polygon style="fill:midnightblue;stroke:midnightblue;" points="405.427,-26.2259 414,-20 403.416,-19.5212 405.427,-26.2259"/>
</g>
</g>
</svg>
