<?xml version="1.0" encoding="UTF-8" standalone="no"?>
<!DOCTYPE svg PUBLIC "-//W3C//DTD SVG 1.0//EN"
 "http://www.w3.org/TR/2001/REC-SVG-20010904/DTD/svg10.dtd" [
 <!ATTLIST svg xmlns:xlink CDATA #FIXED "http://www.w3.org/1999/xlink">
]>
<!-- Generated by Graphviz version 2.20.2 (Tue Mar &#160;2 19:03:41 UTC 2010)
     For user: (jenkins)  -->
<!-- Title: G Pages: 1 -->
<svg width="339pt" height="140pt"
 viewBox="0.00 0.00 339.00 140.00" xmlns="http://www.w3.org/2000/svg" xmlns:xlink="http://www.w3.org/1999/xlink">
<g id="graph0" class="graph" transform="scale(1 1) rotate(0) translate(4 136)">
<title>G</title>
<polygon style="fill:white;stroke:white;" points="-4,4 -4,-136 335,-136 335,4 -4,4"/>
<!-- Node1 -->
<g id="node1" class="node"><title>Node1</title>
<polygon style="fill:#bfbfbf;stroke:black;" points="22,-112 22,-132 153,-132 153,-112 22,-112"/>
<text text-anchor="middle" x="87" y="-119" style="font-family:Arial;font-size:10.00;">ltr/data/indices_unittest.cc</text>
</g>
<!-- Node2 -->
<g id="node3" class="node"><title>Node2</title>
<polygon style="fill:white;stroke:#bfbfbf;" points="0,-56 0,-76 35,-76 35,-56 0,-56"/>
<text text-anchor="middle" x="17" y="-63" style="font-family:Arial;font-size:10.00;">map</text>
</g>
<!-- Node1&#45;&gt;Node2 -->
<g id="edge2" class="edge"><title>Node1&#45;&gt;Node2</title>
<path style="fill:none;stroke:midnightblue;" d="M74,-112C64,-104 50,-93 38,-83"/>
<polygon style="fill:midnightblue;stroke:midnightblue;" points="39.8306,-79.9511 30,-76 35.221,-85.2191 39.8306,-79.9511"/>
</g>
<!-- Node3 -->
<g id="node5" class="node"><title>Node3</title>
<polygon style="fill:white;stroke:#bfbfbf;" points="52,-56 52,-76 123,-76 123,-56 52,-56"/>
<text text-anchor="middle" x="87" y="-63" style="font-family:Arial;font-size:10.00;">gtest/gtest.h</text>
</g>
<!-- Node1&#45;&gt;Node3 -->
<g id="edge4" class="edge"><title>Node1&#45;&gt;Node3</title>
<path style="fill:none;stroke:midnightblue;" d="M87,-112C87,-105 87,-95 87,-86"/>
<polygon style="fill:midnightblue;stroke:midnightblue;" points="90.5001,-86 87,-76 83.5001,-86 90.5001,-86"/>
</g>
<!-- Node4 -->
<g id="node7" class="node"><title>Node4</title>
<a xlink:href="indices_8h.html" target="_top" xlink:title="ltr/utility/indices.h">
<polygon style="fill:white;stroke:black;" points="140,-56 140,-76 233,-76 233,-56 140,-56"/>
<text text-anchor="middle" x="186" y="-63" style="font-family:Arial;font-size:10.00;">ltr/utility/indices.h</text>
</a>
</g>
<!-- Node1&#45;&gt;Node4 -->
<g id="edge6" class="edge"><title>Node1&#45;&gt;Node4</title>
<path style="fill:none;stroke:midnightblue;" d="M105,-112C120,-104 142,-91 159,-81"/>
<polygon style="fill:midnightblue;stroke:midnightblue;" points="160.958,-83.916 168,-76 157.559,-77.7969 160.958,-83.916"/>
</g>
<!-- Node5 -->
<g id="node9" class="node"><title>Node5</title>
<polygon style="fill:white;stroke:#bfbfbf;" points="107,-0 107,-20 147,-20 147,-0 107,-0"/>
<text text-anchor="middle" x="127" y="-7" style="font-family:Arial;font-size:10.00;">string</text>
</g>
<!-- Node4&#45;&gt;Node5 -->
<g id="edge8" class="edge"><title>Node4&#45;&gt;Node5</title>
<path style="fill:none;stroke:midnightblue;" d="M175,-56C166,-48 155,-37 145,-27"/>
<polygon style="fill:midnightblue;stroke:midnightblue;" points="147.546,-24.5962 138,-20 142.596,-29.546 147.546,-24.5962"/>
</g>
<!-- Node6 -->
<g id="node11" class="node"><title>Node6</title>
<polygon style="fill:white;stroke:#bfbfbf;" points="165,-0 165,-20 207,-20 207,-0 165,-0"/>
<text text-anchor="middle" x="186" y="-7" style="font-family:Arial;font-size:10.00;">vector</text>
</g>
<!-- Node4&#45;&gt;Node6 -->
<g id="edge10" class="edge"><title>Node4&#45;&gt;Node6</title>
<path style="fill:none;stroke:midnightblue;" d="M186,-56C186,-49 186,-39 186,-30"/>
<polygon style="fill:midnightblue;stroke:midnightblue;" points="189.5,-30 186,-20 182.5,-30 189.5,-30"/>
</g>
<!-- Node7 -->
<g id="node13" class="node"><title>Node7</title>
<polygon style="fill:white;stroke:#bfbfbf;" points="225,-0 225,-20 332,-20 332,-0 225,-0"/>
<text text-anchor="middle" x="278" y="-7" style="font-family:Arial;font-size:10.00;">ltr/utility/shared_ptr.h</text>
</g>
<!-- Node4&#45;&gt;Node7 -->
<g id="edge12" class="edge"><title>Node4&#45;&gt;Node7</title>
<path style="fill:none;stroke:midnightblue;" d="M202,-56C216,-48 237,-35 252,-25"/>
<polygon style="fill:midnightblue;stroke:midnightblue;" points="253.958,-27.916 261,-20 250.559,-21.7969 253.958,-27.916"/>
</g>
</g>
</svg>
