<?xml version="1.0" encoding="UTF-8" standalone="no"?>
<!DOCTYPE svg PUBLIC "-//W3C//DTD SVG 1.0//EN"
 "http://www.w3.org/TR/2001/REC-SVG-20010904/DTD/svg10.dtd" [
 <!ATTLIST svg xmlns:xlink CDATA #FIXED "http://www.w3.org/1999/xlink">
]>
<!-- Generated by Graphviz version 2.20.2 (Tue Mar &#160;2 19:03:41 UTC 2010)
     For user: (jenkins)  -->
<!-- Title: G Pages: 1 -->
<svg width="280pt" height="104pt"
 viewBox="0.00 0.00 280.00 104.00" xmlns="http://www.w3.org/2000/svg" xmlns:xlink="http://www.w3.org/1999/xlink">
<g id="graph0" class="graph" transform="scale(1 1) rotate(0) translate(4 100)">
<title>G</title>
<polygon style="fill:white;stroke:white;" points="-4,4 -4,-100 276,-100 276,4 -4,4"/>
<!-- Node1 -->
<g id="node1" class="node"><title>Node1</title>
<a xlink:href="classltr_1_1io__utility_1_1_parser.html" target="_top" xlink:title="ltr::io_utility::Parser">
<polygon style="fill:white;stroke:black;" points="1,-38 1,-58 102,-58 102,-38 1,-38"/>
<text text-anchor="middle" x="51" y="-45" style="font-family:Arial;font-size:10.00;">ltr::io_utility::Parser</text>
</a>
</g>
<!-- Node2 -->
<g id="node3" class="node"><title>Node2</title>
<a xlink:href="classltr_1_1io__utility_1_1_a_r_f_f_parser.html" target="_top" xlink:title="ltr::io_utility::ARFFParser">
<polygon style="fill:white;stroke:black;" points="142,-76 142,-96 268,-96 268,-76 142,-76"/>
<text text-anchor="middle" x="205" y="-83" style="font-family:Arial;font-size:10.00;">ltr::io_utility::ARFFParser</text>
</a>
</g>
<!-- Node1&#45;&gt;Node2 -->
<g id="edge2" class="edge"><title>Node1&#45;&gt;Node2</title>
<path style="fill:none;stroke:midnightblue;" d="M102,-60C122,-65 145,-71 165,-76"/>
<polygon style="fill:midnightblue;stroke:midnightblue;" points="102.492,-56.5292 92,-58 101.119,-63.3933 102.492,-56.5292"/>
</g>
<!-- Node3 -->
<g id="node5" class="node"><title>Node3</title>
<a xlink:href="classltr_1_1io__utility_1_1_s_v_m_parser.html" target="_top" xlink:title="ltr::io_utility::SVMParser">
<polygon style="fill:white;stroke:black;" points="144,-38 144,-58 267,-58 267,-38 144,-38"/>
<text text-anchor="middle" x="205" y="-45" style="font-family:Arial;font-size:10.00;">ltr::io_utility::SVMParser</text>
</a>
</g>
<!-- Node1&#45;&gt;Node3 -->
<g id="edge4" class="edge"><title>Node1&#45;&gt;Node3</title>
<path style="fill:none;stroke:midnightblue;" d="M112,-48C122,-48 133,-48 144,-48"/>
<polygon style="fill:midnightblue;stroke:midnightblue;" points="112,-44.5001 102,-48 112,-51.5001 112,-44.5001"/>
</g>
<!-- Node4 -->
<g id="node7" class="node"><title>Node4</title>
<a xlink:href="classltr_1_1io__utility_1_1_yandex_parser.html" target="_top" xlink:title="ltr::io_utility::YandexParser">
<polygon style="fill:white;stroke:black;" points="139,-0 139,-20 272,-20 272,-0 139,-0"/>
<text text-anchor="middle" x="205" y="-7" style="font-family:Arial;font-size:10.00;">ltr::io_utility::YandexParser</text>
</a>
</g>
<!-- Node1&#45;&gt;Node4 -->
<g id="edge6" class="edge"><title>Node1&#45;&gt;Node4</title>
<path style="fill:none;stroke:midnightblue;" d="M102,-36C122,-31 145,-25 165,-20"/>
<polygon style="fill:midnightblue;stroke:midnightblue;" points="101.119,-32.6067 92,-38 102.492,-39.4708 101.119,-32.6067"/>
</g>
</g>
</svg>
