<?xml version="1.0" encoding="UTF-8" standalone="no"?>
<!DOCTYPE svg PUBLIC "-//W3C//DTD SVG 1.0//EN"
 "http://www.w3.org/TR/2001/REC-SVG-20010904/DTD/svg10.dtd" [
 <!ATTLIST svg xmlns:xlink CDATA #FIXED "http://www.w3.org/1999/xlink">
]>
<!-- Generated by Graphviz version 2.20.2 (Tue Mar &#160;2 19:03:41 UTC 2010)
     For user: (jenkins)  -->
<!-- Title: G Pages: 1 -->
<svg width="998pt" height="84pt"
 viewBox="0.00 0.00 998.00 84.00" xmlns="http://www.w3.org/2000/svg" xmlns:xlink="http://www.w3.org/1999/xlink">
<g id="graph0" class="graph" transform="scale(1 1) rotate(0) translate(4 80)">
<title>G</title>
<polygon style="fill:white;stroke:white;" points="-4,4 -4,-80 994,-80 994,4 -4,4"/>
<!-- Node1 -->
<g id="node1" class="node"><title>Node1</title>
<polygon style="fill:#bfbfbf;stroke:black;" points="344,-56 344,-76 506,-76 506,-56 344,-56"/>
<text text-anchor="middle" x="425" y="-63" style="font-family:Arial;font-size:10.00;">ltr/data/utility/io_utility_unittest.cc</text>
</g>
<!-- Node2 -->
<g id="node3" class="node"><title>Node2</title>
<polygon style="fill:white;stroke:#bfbfbf;" points="0,-0 0,-20 114,-20 114,-0 0,-0"/>
<text text-anchor="middle" x="57" y="-7" style="font-family:Arial;font-size:10.00;">boost/lexical_cast.hpp</text>
</g>
<!-- Node1&#45;&gt;Node2 -->
<g id="edge2" class="edge"><title>Node1&#45;&gt;Node2</title>
<path style="fill:none;stroke:midnightblue;" d="M359,-56C292,-46 191,-31 124,-21"/>
<polygon style="fill:midnightblue;stroke:midnightblue;" points="124.492,-17.5292 114,-19 123.119,-24.3933 124.492,-17.5292"/>
</g>
<!-- Node3 -->
<g id="node5" class="node"><title>Node3</title>
<polygon style="fill:white;stroke:#bfbfbf;" points="132,-0 132,-20 260,-20 260,-0 132,-0"/>
<text text-anchor="middle" x="196" y="-7" style="font-family:Arial;font-size:10.00;">boost/filesystem/path.hpp</text>
</g>
<!-- Node1&#45;&gt;Node3 -->
<g id="edge4" class="edge"><title>Node1&#45;&gt;Node3</title>
<path style="fill:none;stroke:midnightblue;" d="M384,-56C345,-47 288,-32 247,-22"/>
<polygon style="fill:midnightblue;stroke:midnightblue;" points="247.492,-18.5292 237,-20 246.119,-25.3933 247.492,-18.5292"/>
</g>
<!-- Node4 -->
<g id="node7" class="node"><title>Node4</title>
<polygon style="fill:white;stroke:#bfbfbf;" points="278,-0 278,-20 323,-20 323,-0 278,-0"/>
<text text-anchor="middle" x="300" y="-7" style="font-family:Arial;font-size:10.00;">cstdlib</text>
</g>
<!-- Node1&#45;&gt;Node4 -->
<g id="edge6" class="edge"><title>Node1&#45;&gt;Node4</title>
<path style="fill:none;stroke:midnightblue;" d="M403,-56C383,-47 354,-34 332,-24"/>
<polygon style="fill:midnightblue;stroke:midnightblue;" points="333.56,-20.8631 323,-20 330.717,-27.2598 333.56,-20.8631"/>
</g>
<!-- Node5 -->
<g id="node9" class="node"><title>Node5</title>
<polygon style="fill:white;stroke:#bfbfbf;" points="340,-0 340,-20 411,-20 411,-0 340,-0"/>
<text text-anchor="middle" x="375" y="-7" style="font-family:Arial;font-size:10.00;">gtest/gtest.h</text>
</g>
<!-- Node1&#45;&gt;Node5 -->
<g id="edge8" class="edge"><title>Node1&#45;&gt;Node5</title>
<path style="fill:none;stroke:midnightblue;" d="M416,-56C409,-48 399,-37 391,-28"/>
<polygon style="fill:midnightblue;stroke:midnightblue;" points="393.219,-25.221 384,-20 387.951,-29.8306 393.219,-25.221"/>
</g>
<!-- Node6 -->
<g id="node11" class="node"><title>Node6</title>
<polygon style="fill:white;stroke:#bfbfbf;" points="428,-0 428,-20 523,-20 523,-0 428,-0"/>
<text text-anchor="middle" x="475" y="-7" style="font-family:Arial;font-size:10.00;">ltr/data/data_set.h</text>
</g>
<!-- Node1&#45;&gt;Node6 -->
<g id="edge10" class="edge"><title>Node1&#45;&gt;Node6</title>
<path style="fill:none;stroke:midnightblue;" d="M434,-56C441,-48 451,-37 459,-28"/>
<polygon style="fill:midnightblue;stroke:midnightblue;" points="462.049,-29.8306 466,-20 456.781,-25.221 462.049,-29.8306"/>
</g>
<!-- Node7 -->
<g id="node13" class="node"><title>Node7</title>
<polygon style="fill:white;stroke:#bfbfbf;" points="540,-0 540,-20 659,-20 659,-0 540,-0"/>
<text text-anchor="middle" x="599" y="-7" style="font-family:Arial;font-size:10.00;">ltr/data/utility/io_utility.h</text>
</g>
<!-- Node1&#45;&gt;Node7 -->
<g id="edge12" class="edge"><title>Node1&#45;&gt;Node7</title>
<path style="fill:none;stroke:midnightblue;" d="M456,-56C485,-47 527,-33 558,-23"/>
<polygon style="fill:midnightblue;stroke:midnightblue;" points="559.427,-26.2259 568,-20 557.416,-19.5212 559.427,-26.2259"/>
</g>
<!-- Node8 -->
<g id="node15" class="node"><title>Node8</title>
<polygon style="fill:white;stroke:#bfbfbf;" points="676,-0 676,-20 796,-20 796,-0 676,-0"/>
<text text-anchor="middle" x="736" y="-7" style="font-family:Arial;font-size:10.00;">ltr/scorers/fake_scorer.h</text>
</g>
<!-- Node1&#45;&gt;Node8 -->
<g id="edge14" class="edge"><title>Node1&#45;&gt;Node8</title>
<path style="fill:none;stroke:midnightblue;" d="M481,-56C534,-47 614,-32 671,-22"/>
<polygon style="fill:midnightblue;stroke:midnightblue;" points="671.881,-25.3933 681,-20 670.508,-18.5292 671.881,-25.3933"/>
</g>
<!-- Node9 -->
<g id="node17" class="node"><title>Node9</title>
<polygon style="fill:white;stroke:#bfbfbf;" points="814,-0 814,-20 991,-20 991,-0 814,-0"/>
<text text-anchor="middle" x="902" y="-7" style="font-family:Arial;font-size:10.00;">ltr/utility/random_number_generator.h</text>
</g>
<!-- Node1&#45;&gt;Node9 -->
<g id="edge16" class="edge"><title>Node1&#45;&gt;Node9</title>
<path style="fill:none;stroke:midnightblue;" d="M506,-56C589,-46 717,-31 805,-21"/>
<polygon style="fill:midnightblue;stroke:midnightblue;" points="805.398,-24.4778 815,-20 804.701,-17.5125 805.398,-24.4778"/>
</g>
</g>
</svg>
