<?xml version="1.0" encoding="UTF-8" standalone="no"?>
<!DOCTYPE svg PUBLIC "-//W3C//DTD SVG 1.0//EN"
 "http://www.w3.org/TR/2001/REC-SVG-20010904/DTD/svg10.dtd" [
 <!ATTLIST svg xmlns:xlink CDATA #FIXED "http://www.w3.org/1999/xlink">
]>
<!-- Generated by Graphviz version 2.20.2 (Tue Mar &#160;2 19:03:41 UTC 2010)
     For user: (jenkins)  -->
<!-- Title: G Pages: 1 -->
<svg width="272pt" height="84pt"
 viewBox="0.00 0.00 272.00 84.00" xmlns="http://www.w3.org/2000/svg" xmlns:xlink="http://www.w3.org/1999/xlink">
<g id="graph0" class="graph" transform="scale(1 1) rotate(0) translate(4 80)">
<title>G</title>
<polygon style="fill:white;stroke:white;" points="-4,4 -4,-80 268,-80 268,4 -4,4"/>
<!-- Node1 -->
<g id="node1" class="node"><title>Node1</title>
<polygon style="fill:#bfbfbf;stroke:black;" points="0,-56 0,-76 208,-76 208,-56 0,-56"/>
<text text-anchor="middle" x="104" y="-63" style="font-family:Arial;font-size:10.00;">ltr/learners/decision_tree/vertex/leaf_vertex.h</text>
</g>
<!-- Node2 -->
<g id="node3" class="node"><title>Node2</title>
<polygon style="fill:white;stroke:#bfbfbf;" points="18,-0 18,-20 58,-20 58,-0 18,-0"/>
<text text-anchor="middle" x="38" y="-7" style="font-family:Arial;font-size:10.00;">string</text>
</g>
<!-- Node1&#45;&gt;Node2 -->
<g id="edge2" class="edge"><title>Node1&#45;&gt;Node2</title>
<path style="fill:none;stroke:midnightblue;" d="M92,-56C82,-48 69,-37 58,-27"/>
<polygon style="fill:midnightblue;stroke:midnightblue;" points="59.8306,-23.9511 50,-20 55.221,-29.2191 59.8306,-23.9511"/>
</g>
<!-- Node3 -->
<g id="node5" class="node"><title>Node3</title>
<polygon style="fill:white;stroke:#bfbfbf;" points="76,-0 76,-20 264,-20 264,-0 76,-0"/>
<text text-anchor="middle" x="170" y="-7" style="font-family:Arial;font-size:10.00;">ltr/learners/decision_tree/vertex/vertex.h</text>
</g>
<!-- Node1&#45;&gt;Node3 -->
<g id="edge4" class="edge"><title>Node1&#45;&gt;Node3</title>
<path style="fill:none;stroke:midnightblue;" d="M116,-56C126,-48 139,-37 150,-27"/>
<polygon style="fill:midnightblue;stroke:midnightblue;" points="152.779,-29.2191 158,-20 148.169,-23.9511 152.779,-29.2191"/>
</g>
</g>
</svg>
