<?xml version="1.0" encoding="UTF-8" standalone="no"?>
<!DOCTYPE svg PUBLIC "-//W3C//DTD SVG 1.0//EN"
 "http://www.w3.org/TR/2001/REC-SVG-20010904/DTD/svg10.dtd" [
 <!ATTLIST svg xmlns:xlink CDATA #FIXED "http://www.w3.org/1999/xlink">
]>
<!-- Generated by Graphviz version 2.20.2 (Tue Mar &#160;2 19:03:41 UTC 2010)
     For user: (jenkins)  -->
<!-- Title: G Pages: 1 -->
<svg width="1144pt" height="420pt"
 viewBox="0.00 0.00 1144.00 420.00" xmlns="http://www.w3.org/2000/svg" xmlns:xlink="http://www.w3.org/1999/xlink">
<g id="graph0" class="graph" transform="scale(1 1) rotate(0) translate(4 416)">
<title>G</title>
<polygon style="fill:white;stroke:white;" points="-4,4 -4,-416 1140,-416 1140,4 -4,4"/>
<!-- Node1 -->
<g id="node1" class="node"><title>Node1</title>
<polygon style="fill:#bfbfbf;stroke:black;" points="0,-392 0,-412 213,-412 213,-392 0,-392"/>
<text text-anchor="middle" x="106" y="-399" style="font-family:Arial;font-size:10.00;">ltr/learners/decision_tree/vertex/leaf_vertex.cc</text>
</g>
<!-- Node2 -->
<g id="node3" class="node"><title>Node2</title>
<polygon style="fill:white;stroke:#bfbfbf;" points="30,-56 30,-76 144,-76 144,-56 30,-56"/>
<text text-anchor="middle" x="87" y="-63" style="font-family:Arial;font-size:10.00;">boost/lexical_cast.hpp</text>
</g>
<!-- Node1&#45;&gt;Node2 -->
<g id="edge2" class="edge"><title>Node1&#45;&gt;Node2</title>
<path style="fill:none;stroke:midnightblue;" d="M92,-392C82,-383 68,-370 59,-356 44,-329 40,-320 40,-290 40,-290 40,-290 40,-178 40,-143 60,-106 73,-84"/>
<polygon style="fill:midnightblue;stroke:midnightblue;" points="75.8,-86.1 79,-76 70.2,-81.9 75.8,-86.1"/>
</g>
<!-- Node3 -->
<g id="node5" class="node"><title>Node3</title>
<a xlink:href="leaf__vertex_8h.html" target="_top" xlink:title="ltr/learners/decision_tree/vertex/leaf_vertex.h">
<polygon style="fill:white;stroke:black;" points="68,-336 68,-356 276,-356 276,-336 68,-336"/>
<text text-anchor="middle" x="172" y="-343" style="font-family:Arial;font-size:10.00;">ltr/learners/decision_tree/vertex/leaf_vertex.h</text>
</a>
</g>
<!-- Node1&#45;&gt;Node3 -->
<g id="edge4" class="edge"><title>Node1&#45;&gt;Node3</title>
<path style="fill:none;stroke:midnightblue;" d="M118,-392C128,-384 141,-373 152,-363"/>
<polygon style="fill:midnightblue;stroke:midnightblue;" points="154.779,-365.219 160,-356 150.169,-359.951 154.779,-365.219"/>
</g>
<!-- Node4 -->
<g id="node7" class="node"><title>Node4</title>
<polygon style="fill:white;stroke:#bfbfbf;" points="577,-0 577,-20 617,-20 617,-0 577,-0"/>
<text text-anchor="middle" x="597" y="-7" style="font-family:Arial;font-size:10.00;">string</text>
</g>
<!-- Node3&#45;&gt;Node4 -->
<g id="edge6" class="edge"><title>Node3&#45;&gt;Node4</title>
<path style="fill:none;stroke:midnightblue;" d="M159,-336C109,-296 -63,-147 21,-56 39,-36 450,-16 567,-11"/>
<polygon style="fill:midnightblue;stroke:midnightblue;" points="567,-14.5001 577,-11 567,-7.5001 567,-14.5001"/>
</g>
<!-- Node5 -->
<g id="node9" class="node"><title>Node5</title>
<a xlink:href="vertex_8h.html" target="_top" xlink:title="ltr/learners/decision_tree/vertex/vertex.h">
<polygon style="fill:white;stroke:black;" points="593,-280 593,-300 781,-300 781,-280 593,-280"/>
<text text-anchor="middle" x="687" y="-287" style="font-family:Arial;font-size:10.00;">ltr/learners/decision_tree/vertex/vertex.h</text>
</a>
</g>
<!-- Node3&#45;&gt;Node5 -->
<g id="edge8" class="edge"><title>Node3&#45;&gt;Node5</title>
<path style="fill:none;stroke:midnightblue;" d="M264,-336C355,-326 492,-311 585,-301"/>
<polygon style="fill:midnightblue;stroke:midnightblue;" points="585.398,-304.478 595,-300 584.701,-297.512 585.398,-304.478"/>
</g>
<!-- Node5&#45;&gt;Node4 -->
<g id="edge10" class="edge"><title>Node5&#45;&gt;Node4</title>
<path style="fill:none;stroke:midnightblue;" d="M781,-283C902,-272 1098,-243 1098,-178 1098,-178 1098,-178 1098,-122 1098,-91 1102,-75 1079,-56 1043,-27 727,-14 627,-11"/>
<polygon style="fill:midnightblue;stroke:midnightblue;" points="627,-7.5001 617,-11 627,-14.5001 627,-7.5001"/>
</g>
<!-- Node6 -->
<g id="node12" class="node"><title>Node6</title>
<polygon style="fill:white;stroke:#bfbfbf;" points="1028,-56 1028,-76 1070,-76 1070,-56 1028,-56"/>
<text text-anchor="middle" x="1049" y="-63" style="font-family:Arial;font-size:10.00;">vector</text>
</g>
<!-- Node5&#45;&gt;Node6 -->
<g id="edge12" class="edge"><title>Node5&#45;&gt;Node6</title>
<path style="fill:none;stroke:midnightblue;" d="M706,-280C724,-271 750,-257 772,-244 867,-187 978,-114 1026,-82"/>
<polygon style="fill:midnightblue;stroke:midnightblue;" points="1028.1,-84.8 1034,-76 1023.9,-79.2 1028.1,-84.8"/>
</g>
<!-- Node7 -->
<g id="node14" class="node"><title>Node7</title>
<polygon style="fill:white;stroke:#bfbfbf;" points="1016,-0 1016,-20 1072,-20 1072,-0 1016,-0"/>
<text text-anchor="middle" x="1044" y="-7" style="font-family:Arial;font-size:10.00;">algorithm</text>
</g>
<!-- Node5&#45;&gt;Node7 -->
<g id="edge14" class="edge"><title>Node5&#45;&gt;Node7</title>
<path style="fill:none;stroke:midnightblue;" d="M781,-285C913,-276 1136,-250 1136,-178 1136,-178 1136,-178 1136,-122 1136,-80 1097,-45 1069,-26"/>
<polygon style="fill:midnightblue;stroke:midnightblue;" points="1071.1,-23.2 1061,-20 1066.9,-28.8 1071.1,-23.2"/>
</g>
<!-- Node8 -->
<g id="node16" class="node"><title>Node8</title>
<polygon style="fill:white;stroke:#bfbfbf;" points="952,-56 952,-76 1011,-76 1011,-56 952,-56"/>
<text text-anchor="middle" x="981" y="-63" style="font-family:Arial;font-size:10.00;">stdexcept</text>
</g>
<!-- Node5&#45;&gt;Node8 -->
<g id="edge16" class="edge"><title>Node5&#45;&gt;Node8</title>
<path style="fill:none;stroke:midnightblue;" d="M700,-280C748,-244 903,-125 960,-82"/>
<polygon style="fill:midnightblue;stroke:midnightblue;" points="962.1,-84.8 968,-76 957.9,-79.2 962.1,-84.8"/>
</g>
<!-- Node9 -->
<g id="node18" class="node"><title>Node9</title>
<polygon style="fill:white;stroke:#bfbfbf;" points="560,-56 560,-76 634,-76 634,-56 560,-56"/>
<text text-anchor="middle" x="597" y="-63" style="font-family:Arial;font-size:10.00;">logog/logog.h</text>
</g>
<!-- Node5&#45;&gt;Node9 -->
<g id="edge18" class="edge"><title>Node5&#45;&gt;Node9</title>
<path style="fill:none;stroke:midnightblue;" d="M668,-280C640,-264 591,-232 571,-188 555,-154 573,-110 586,-85"/>
<polygon style="fill:midnightblue;stroke:midnightblue;" points="589.203,-86.4414 591,-76 583.084,-83.0418 589.203,-86.4414"/>
</g>
<!-- Node10 -->
<g id="node20" class="node"><title>Node10</title>
<a xlink:href="serializable__functor_8h.html" target="_top" xlink:title="ltr/interfaces/serializable_functor.h">
<polygon style="fill:white;stroke:black;" points="299,-224 299,-244 462,-244 462,-224 299,-224"/>
<text text-anchor="middle" x="380" y="-231" style="font-family:Arial;font-size:10.00;">ltr/interfaces/serializable_functor.h</text>
</a>
</g>
<!-- Node5&#45;&gt;Node10 -->
<g id="edge20" class="edge"><title>Node5&#45;&gt;Node10</title>
<path style="fill:none;stroke:midnightblue;" d="M632,-280C579,-271 500,-256 445,-246"/>
<polygon style="fill:midnightblue;stroke:midnightblue;" points="445.492,-242.529 435,-244 444.119,-249.393 445.492,-242.529"/>
</g>
<!-- Node11 -->
<g id="node22" class="node"><title>Node11</title>
<a xlink:href="shared__ptr_8h.html" target="_top" xlink:title="ltr/utility/shared_ptr.h">
<polygon style="fill:white;stroke:black;" points="162,-56 162,-76 269,-76 269,-56 162,-56"/>
<text text-anchor="middle" x="215" y="-63" style="font-family:Arial;font-size:10.00;">ltr/utility/shared_ptr.h</text>
</a>
</g>
<!-- Node5&#45;&gt;Node11 -->
<g id="edge84" class="edge"><title>Node5&#45;&gt;Node11</title>
<path style="fill:none;stroke:midnightblue;" d="M593,-287C492,-282 342,-270 290,-244 237,-217 229,-190 217,-132 215,-117 214,-100 214,-86"/>
<polygon style="fill:midnightblue;stroke:midnightblue;" points="217.5,-86 214,-76 210.5,-86 217.5,-86"/>
</g>
<!-- Node22 -->
<g id="node59" class="node"><title>Node22</title>
<a xlink:href="condition_8h.html" target="_top" xlink:title="ltr/learners/decision_tree/condition/condition.h">
<polygon style="fill:white;stroke:black;" points="580,-168 580,-188 795,-188 795,-168 580,-168"/>
<text text-anchor="middle" x="687" y="-175" style="font-family:Arial;font-size:10.00;">ltr/learners/decision_tree/condition/condition.h</text>
</a>
</g>
<!-- Node5&#45;&gt;Node22 -->
<g id="edge74" class="edge"><title>Node5&#45;&gt;Node22</title>
<path style="fill:none;stroke:midnightblue;" d="M687,-280C687,-261 687,-222 687,-198"/>
<polygon style="fill:midnightblue;stroke:midnightblue;" points="690.5,-198 687,-188 683.5,-198 690.5,-198"/>
</g>
<!-- Node10&#45;&gt;Node11 -->
<g id="edge22" class="edge"><title>Node10&#45;&gt;Node11</title>
<path style="fill:none;stroke:midnightblue;" d="M320,-224C297,-217 272,-206 254,-188 228,-159 219,-113 216,-86"/>
<polygon style="fill:midnightblue;stroke:midnightblue;" points="219.478,-85.6021 215,-76 212.512,-86.2987 219.478,-85.6021"/>
</g>
<!-- Node14 -->
<g id="node29" class="node"><title>Node14</title>
<a xlink:href="functor_8h.html" target="_top" xlink:title="ltr/interfaces/functor.h">
<polygon style="fill:white;stroke:black;" points="263,-168 263,-188 372,-188 372,-168 263,-168"/>
<text text-anchor="middle" x="317" y="-175" style="font-family:Arial;font-size:10.00;">ltr/interfaces/functor.h</text>
</a>
</g>
<!-- Node10&#45;&gt;Node14 -->
<g id="edge30" class="edge"><title>Node10&#45;&gt;Node14</title>
<path style="fill:none;stroke:midnightblue;" d="M369,-224C360,-216 347,-205 336,-195"/>
<polygon style="fill:midnightblue;stroke:midnightblue;" points="338.546,-192.596 329,-188 333.596,-197.546 338.546,-192.596"/>
</g>
<!-- Node19 -->
<g id="node48" class="node"><title>Node19</title>
<a xlink:href="serializable_8h.html" target="_top" xlink:title="ltr/interfaces/serializable.h">
<polygon style="fill:white;stroke:black;" points="388,-112 388,-132 517,-132 517,-112 388,-112"/>
<text text-anchor="middle" x="452" y="-119" style="font-family:Arial;font-size:10.00;">ltr/interfaces/serializable.h</text>
</a>
</g>
<!-- Node10&#45;&gt;Node19 -->
<g id="edge58" class="edge"><title>Node10&#45;&gt;Node19</title>
<path style="fill:none;stroke:midnightblue;" d="M387,-224C398,-205 425,-165 440,-141"/>
<polygon style="fill:midnightblue;stroke:midnightblue;" points="443.203,-142.441 445,-132 437.084,-139.042 443.203,-142.441"/>
</g>
<!-- Node11&#45;&gt;Node7 -->
<g id="edge24" class="edge"><title>Node11&#45;&gt;Node7</title>
<path style="fill:none;stroke:midnightblue;" d="M269,-60C284,-58 300,-57 315,-56 581,-34 648,-38 915,-20 946,-18 980,-15 1006,-13"/>
<polygon style="fill:midnightblue;stroke:midnightblue;" points="1006.4,-16.4778 1016,-12 1005.7,-9.5125 1006.4,-16.4778"/>
</g>
<!-- Node12 -->
<g id="node25" class="node"><title>Node12</title>
<polygon style="fill:white;stroke:#bfbfbf;" points="245,-0 245,-20 352,-20 352,-0 245,-0"/>
<text text-anchor="middle" x="298" y="-7" style="font-family:Arial;font-size:10.00;">boost/shared_ptr.hpp</text>
</g>
<!-- Node11&#45;&gt;Node12 -->
<g id="edge26" class="edge"><title>Node11&#45;&gt;Node12</title>
<path style="fill:none;stroke:midnightblue;" d="M230,-56C242,-48 260,-35 275,-26"/>
<polygon style="fill:midnightblue;stroke:midnightblue;" points="277.1,-28.8 283,-20 272.9,-23.2 277.1,-28.8"/>
</g>
<!-- Node13 -->
<g id="node27" class="node"><title>Node13</title>
<polygon style="fill:white;stroke:#bfbfbf;" points="37,-0 37,-20 228,-20 228,-0 37,-0"/>
<text text-anchor="middle" x="132" y="-7" style="font-family:Arial;font-size:10.00;">boost/smart_ptr/detail/operator_bool.hpp</text>
</g>
<!-- Node11&#45;&gt;Node13 -->
<g id="edge28" class="edge"><title>Node11&#45;&gt;Node13</title>
<path style="fill:none;stroke:midnightblue;" d="M200,-56C188,-48 170,-35 155,-26"/>
<polygon style="fill:midnightblue;stroke:midnightblue;" points="157.1,-23.2 147,-20 152.9,-28.8 157.1,-23.2"/>
</g>
<!-- Node14&#45;&gt;Node2 -->
<g id="edge34" class="edge"><title>Node14&#45;&gt;Node2</title>
<path style="fill:none;stroke:midnightblue;" d="M296,-168C256,-147 165,-103 117,-80"/>
<polygon style="fill:midnightblue;stroke:midnightblue;" points="118.56,-76.8631 108,-76 115.717,-83.2598 118.56,-76.8631"/>
</g>
<!-- Node14&#45;&gt;Node4 -->
<g id="edge36" class="edge"><title>Node14&#45;&gt;Node4</title>
<path style="fill:none;stroke:midnightblue;" d="M313,-168C304,-145 288,-88 315,-56 331,-36 497,-19 567,-13"/>
<polygon style="fill:midnightblue;stroke:midnightblue;" points="567.398,-16.4778 577,-12 566.701,-9.5125 567.398,-16.4778"/>
</g>
<!-- Node14&#45;&gt;Node11 -->
<g id="edge32" class="edge"><title>Node14&#45;&gt;Node11</title>
<path style="fill:none;stroke:midnightblue;" d="M304,-168C293,-159 277,-145 265,-132 251,-117 237,-98 228,-84"/>
<polygon style="fill:midnightblue;stroke:midnightblue;" points="230.8,-81.9 222,-76 225.2,-86.1 230.8,-81.9"/>
</g>
<!-- Node15 -->
<g id="node34" class="node"><title>Node15</title>
<a xlink:href="object_8h.html" target="_top" xlink:title="ltr/data/object.h">
<polygon style="fill:white;stroke:black;" points="703,-112 703,-132 787,-132 787,-112 703,-112"/>
<text text-anchor="middle" x="745" y="-119" style="font-family:Arial;font-size:10.00;">ltr/data/object.h</text>
</a>
</g>
<!-- Node14&#45;&gt;Node15 -->
<g id="edge38" class="edge"><title>Node14&#45;&gt;Node15</title>
<path style="fill:none;stroke:midnightblue;" d="M372,-171C455,-160 612,-140 693,-129"/>
<polygon style="fill:midnightblue;stroke:midnightblue;" points="693.398,-132.478 703,-128 692.701,-125.512 693.398,-132.478"/>
</g>
<!-- Node15&#45;&gt;Node4 -->
<g id="edge46" class="edge"><title>Node15&#45;&gt;Node4</title>
<path style="fill:none;stroke:midnightblue;" d="M736,-112C723,-98 699,-73 676,-56 660,-44 641,-33 626,-25"/>
<polygon style="fill:midnightblue;stroke:midnightblue;" points="627.441,-21.7969 617,-20 624.042,-27.916 627.441,-21.7969"/>
</g>
<!-- Node15&#45;&gt;Node6 -->
<g id="edge48" class="edge"><title>Node15&#45;&gt;Node6</title>
<path style="fill:none;stroke:midnightblue;" d="M787,-117C839,-110 931,-97 1018,-75"/>
<polygon style="fill:midnightblue;stroke:midnightblue;" points="1018.88,-78.3933 1028,-73 1017.51,-71.5292 1018.88,-78.3933"/>
</g>
<!-- Node15&#45;&gt;Node8 -->
<g id="edge44" class="edge"><title>Node15&#45;&gt;Node8</title>
<path style="fill:none;stroke:midnightblue;" d="M787,-112C831,-102 899,-86 942,-75"/>
<polygon style="fill:midnightblue;stroke:midnightblue;" points="942.881,-78.3933 952,-73 941.508,-71.5292 942.881,-78.3933"/>
</g>
<!-- Node15&#45;&gt;Node11 -->
<g id="edge56" class="edge"><title>Node15&#45;&gt;Node11</title>
<path style="fill:none;stroke:midnightblue;" d="M703,-118C611,-107 389,-84 279,-73"/>
<polygon style="fill:midnightblue;stroke:midnightblue;" points="279.299,-69.5125 269,-72 278.602,-76.4778 279.299,-69.5125"/>
</g>
<!-- Node16 -->
<g id="node36" class="node"><title>Node16</title>
<polygon style="fill:white;stroke:#bfbfbf;" points="728,-56 728,-76 763,-76 763,-56 728,-56"/>
<text text-anchor="middle" x="745" y="-63" style="font-family:Arial;font-size:10.00;">map</text>
</g>
<!-- Node15&#45;&gt;Node16 -->
<g id="edge40" class="edge"><title>Node15&#45;&gt;Node16</title>
<path style="fill:none;stroke:midnightblue;" d="M745,-112C745,-105 745,-95 745,-86"/>
<polygon style="fill:midnightblue;stroke:midnightblue;" points="748.5,-86 745,-76 741.5,-86 748.5,-86"/>
</g>
<!-- Node17 -->
<g id="node38" class="node"><title>Node17</title>
<polygon style="fill:white;stroke:#bfbfbf;" points="856,-0 856,-20 907,-20 907,-0 856,-0"/>
<text text-anchor="middle" x="881" y="-7" style="font-family:Arial;font-size:10.00;">ostream</text>
</g>
<!-- Node15&#45;&gt;Node17 -->
<g id="edge42" class="edge"><title>Node15&#45;&gt;Node17</title>
<path style="fill:none;stroke:midnightblue;" d="M787,-116C829,-108 890,-94 905,-76 915,-62 906,-42 896,-28"/>
<polygon style="fill:midnightblue;stroke:midnightblue;" points="898.8,-25.9 890,-20 893.2,-30.1 898.8,-25.9"/>
</g>
<!-- Node18 -->
<g id="node43" class="node"><title>Node18</title>
<a xlink:href="printable_8h.html" target="_top" xlink:title="ltr/interfaces/printable.h">
<polygon style="fill:white;stroke:black;" points="780,-56 780,-76 897,-76 897,-56 780,-56"/>
<text text-anchor="middle" x="838" y="-63" style="font-family:Arial;font-size:10.00;">ltr/interfaces/printable.h</text>
</a>
</g>
<!-- Node15&#45;&gt;Node18 -->
<g id="edge50" class="edge"><title>Node15&#45;&gt;Node18</title>
<path style="fill:none;stroke:midnightblue;" d="M762,-112C775,-104 796,-91 812,-81"/>
<polygon style="fill:midnightblue;stroke:midnightblue;" points="813.958,-83.916 821,-76 810.559,-77.7969 813.958,-83.916"/>
</g>
<!-- Node18&#45;&gt;Node4 -->
<g id="edge54" class="edge"><title>Node18&#45;&gt;Node4</title>
<path style="fill:none;stroke:midnightblue;" d="M795,-56C747,-45 669,-27 627,-17"/>
<polygon style="fill:midnightblue;stroke:midnightblue;" points="627.492,-13.5292 617,-15 626.119,-20.3933 627.492,-13.5292"/>
</g>
<!-- Node18&#45;&gt;Node17 -->
<g id="edge52" class="edge"><title>Node18&#45;&gt;Node17</title>
<path style="fill:none;stroke:midnightblue;" d="M846,-56C852,-48 860,-38 867,-28"/>
<polygon style="fill:midnightblue;stroke:midnightblue;" points="869.8,-30.1 873,-20 864.2,-25.9 869.8,-30.1"/>
</g>
<!-- Node19&#45;&gt;Node2 -->
<g id="edge60" class="edge"><title>Node19&#45;&gt;Node2</title>
<path style="fill:none;stroke:midnightblue;" d="M388,-112C322,-102 221,-87 154,-77"/>
<polygon style="fill:midnightblue;stroke:midnightblue;" points="154.492,-73.5292 144,-75 153.119,-80.3933 154.492,-73.5292"/>
</g>
<!-- Node19&#45;&gt;Node4 -->
<g id="edge64" class="edge"><title>Node19&#45;&gt;Node4</title>
<path style="fill:none;stroke:midnightblue;" d="M466,-112C478,-102 497,-88 513,-76 534,-59 559,-40 576,-26"/>
<polygon style="fill:midnightblue;stroke:midnightblue;" points="578.1,-28.8 584,-20 573.9,-23.2 578.1,-28.8"/>
</g>
<!-- Node19&#45;&gt;Node9 -->
<g id="edge62" class="edge"><title>Node19&#45;&gt;Node9</title>
<path style="fill:none;stroke:midnightblue;" d="M478,-112C501,-103 536,-90 562,-80"/>
<polygon style="fill:midnightblue;stroke:midnightblue;" points="563.283,-83.2598 571,-76 560.44,-76.8631 563.283,-83.2598"/>
</g>
<!-- Node19&#45;&gt;Node11 -->
<g id="edge68" class="edge"><title>Node19&#45;&gt;Node11</title>
<path style="fill:none;stroke:midnightblue;" d="M410,-112C369,-103 310,-88 267,-78"/>
<polygon style="fill:midnightblue;stroke:midnightblue;" points="267.492,-74.5292 257,-76 266.119,-81.3933 267.492,-74.5292"/>
</g>
<!-- Node20 -->
<g id="node53" class="node"><title>Node20</title>
<polygon style="fill:white;stroke:#bfbfbf;" points="450,-56 450,-76 504,-76 504,-56 450,-56"/>
<text text-anchor="middle" x="477" y="-63" style="font-family:Arial;font-size:10.00;">iostream</text>
</g>
<!-- Node19&#45;&gt;Node20 -->
<g id="edge66" class="edge"><title>Node19&#45;&gt;Node20</title>
<path style="fill:none;stroke:midnightblue;" d="M456,-112C460,-105 464,-95 468,-85"/>
<polygon style="fill:midnightblue;stroke:midnightblue;" points="471.137,-86.5596 472,-76 464.74,-83.7166 471.137,-86.5596"/>
</g>
<!-- Node21 -->
<g id="node56" class="node"><title>Node21</title>
<a xlink:href="aliaser_8h.html" target="_top" xlink:title="ltr/interfaces/aliaser.h">
<polygon style="fill:white;stroke:black;" points="324,-56 324,-76 432,-76 432,-56 324,-56"/>
<text text-anchor="middle" x="378" y="-63" style="font-family:Arial;font-size:10.00;">ltr/interfaces/aliaser.h</text>
</a>
</g>
<!-- Node19&#45;&gt;Node21 -->
<g id="edge70" class="edge"><title>Node19&#45;&gt;Node21</title>
<path style="fill:none;stroke:midnightblue;" d="M439,-112C428,-104 412,-92 399,-82"/>
<polygon style="fill:midnightblue;stroke:midnightblue;" points="401.1,-79.2 391,-76 396.9,-84.8 401.1,-79.2"/>
</g>
<!-- Node21&#45;&gt;Node4 -->
<g id="edge72" class="edge"><title>Node21&#45;&gt;Node4</title>
<path style="fill:none;stroke:midnightblue;" d="M417,-56C460,-45 528,-27 567,-18"/>
<polygon style="fill:midnightblue;stroke:midnightblue;" points="568.427,-21.2259 577,-15 566.416,-14.5212 568.427,-21.2259"/>
</g>
<!-- Node22&#45;&gt;Node4 -->
<g id="edge76" class="edge"><title>Node22&#45;&gt;Node4</title>
<path style="fill:none;stroke:midnightblue;" d="M685,-168C680,-146 666,-93 643,-56 636,-45 626,-35 618,-27"/>
<polygon style="fill:midnightblue;stroke:midnightblue;" points="619.831,-23.9511 610,-20 615.221,-29.2191 619.831,-23.9511"/>
</g>
<!-- Node22&#45;&gt;Node11 -->
<g id="edge82" class="edge"><title>Node22&#45;&gt;Node11</title>
<path style="fill:none;stroke:midnightblue;" d="M580,-168C520,-161 444,-150 379,-132 331,-118 278,-96 245,-80"/>
<polygon style="fill:midnightblue;stroke:midnightblue;" points="246.56,-76.8631 236,-76 243.717,-83.2598 246.56,-76.8631"/>
</g>
<!-- Node22&#45;&gt;Node15 -->
<g id="edge78" class="edge"><title>Node22&#45;&gt;Node15</title>
<path style="fill:none;stroke:midnightblue;" d="M697,-168C706,-160 717,-149 727,-139"/>
<polygon style="fill:midnightblue;stroke:midnightblue;" points="729.404,-141.546 734,-132 724.454,-136.596 729.404,-141.546"/>
</g>
<!-- Node22&#45;&gt;Node19 -->
<g id="edge80" class="edge"><title>Node22&#45;&gt;Node19</title>
<path style="fill:none;stroke:midnightblue;" d="M645,-168C605,-159 547,-144 504,-134"/>
<polygon style="fill:midnightblue;stroke:midnightblue;" points="504.492,-130.529 494,-132 503.119,-137.393 504.492,-130.529"/>
</g>
</g>
</svg>
