<?xml version="1.0" encoding="UTF-8" standalone="no"?>
<!DOCTYPE svg PUBLIC "-//W3C//DTD SVG 1.0//EN"
 "http://www.w3.org/TR/2001/REC-SVG-20010904/DTD/svg10.dtd" [
 <!ATTLIST svg xmlns:xlink CDATA #FIXED "http://www.w3.org/1999/xlink">
]>
<!-- Generated by Graphviz version 2.20.2 (Tue Mar &#160;2 19:03:41 UTC 2010)
     For user: (jenkins)  -->
<!-- Title: G Pages: 1 -->
<svg width="1237pt" height="364pt"
 viewBox="0.00 0.00 1237.00 364.00" xmlns="http://www.w3.org/2000/svg" xmlns:xlink="http://www.w3.org/1999/xlink">
<g id="graph0" class="graph" transform="scale(1 1) rotate(0) translate(4 360)">
<title>G</title>
<polygon style="fill:white;stroke:white;" points="-4,4 -4,-360 1233,-360 1233,4 -4,4"/>
<!-- Node1 -->
<g id="node1" class="node"><title>Node1</title>
<polygon style="fill:#bfbfbf;stroke:black;" points="834,-336 834,-356 1042,-356 1042,-336 834,-336"/>
<text text-anchor="middle" x="938" y="-343" style="font-family:Arial;font-size:10.00;">ltr/learners/decision_tree/vertex/leaf_vertex.h</text>
</g>
<!-- Node2 -->
<g id="node3" class="node"><title>Node2</title>
<polygon style="fill:white;stroke:#bfbfbf;" points="926,-0 926,-20 966,-20 966,-0 926,-0"/>
<text text-anchor="middle" x="946" y="-7" style="font-family:Arial;font-size:10.00;">string</text>
</g>
<!-- Node1&#45;&gt;Node2 -->
<g id="edge2" class="edge"><title>Node1&#45;&gt;Node2</title>
<path style="fill:none;stroke:midnightblue;" d="M995,-336C1080,-319 1229,-283 1229,-234 1229,-234 1229,-234 1229,-122 1229,-83 1206,-75 1174,-56 1140,-36 1030,-20 976,-13"/>
<polygon style="fill:midnightblue;stroke:midnightblue;" points="976.299,-9.5125 966,-12 975.602,-16.4778 976.299,-9.5125"/>
</g>
<!-- Node3 -->
<g id="node5" class="node"><title>Node3</title>
<a xlink:href="vertex_8h.html" target="_top" xlink:title="ltr/learners/decision_tree/vertex/vertex.h">
<polygon style="fill:white;stroke:black;" points="554,-280 554,-300 742,-300 742,-280 554,-280"/>
<text text-anchor="middle" x="648" y="-287" style="font-family:Arial;font-size:10.00;">ltr/learners/decision_tree/vertex/vertex.h</text>
</a>
</g>
<!-- Node1&#45;&gt;Node3 -->
<g id="edge4" class="edge"><title>Node1&#45;&gt;Node3</title>
<path style="fill:none;stroke:midnightblue;" d="M886,-336C837,-327 763,-312 710,-302"/>
<polygon style="fill:midnightblue;stroke:midnightblue;" points="710.492,-298.529 700,-300 709.119,-305.393 710.492,-298.529"/>
</g>
<!-- Node3&#45;&gt;Node2 -->
<g id="edge6" class="edge"><title>Node3&#45;&gt;Node2</title>
<path style="fill:none;stroke:midnightblue;" d="M742,-280C898,-262 1191,-223 1191,-178 1191,-178 1191,-178 1191,-122 1191,-86 1176,-76 1148,-56 1120,-36 1025,-21 976,-14"/>
<polygon style="fill:midnightblue;stroke:midnightblue;" points="976.299,-10.5125 966,-13 975.602,-17.4778 976.299,-10.5125"/>
</g>
<!-- Node4 -->
<g id="node8" class="node"><title>Node4</title>
<polygon style="fill:white;stroke:#bfbfbf;" points="547,-56 547,-76 589,-76 589,-56 547,-56"/>
<text text-anchor="middle" x="568" y="-63" style="font-family:Arial;font-size:10.00;">vector</text>
</g>
<!-- Node3&#45;&gt;Node4 -->
<g id="edge8" class="edge"><title>Node3&#45;&gt;Node4</title>
<path style="fill:none;stroke:midnightblue;" d="M644,-280C632,-245 592,-132 575,-86"/>
<polygon style="fill:midnightblue;stroke:midnightblue;" points="578.226,-84.5725 572,-76 571.521,-86.584 578.226,-84.5725"/>
</g>
<!-- Node5 -->
<g id="node10" class="node"><title>Node5</title>
<polygon style="fill:white;stroke:#bfbfbf;" points="0,-0 0,-20 56,-20 56,-0 0,-0"/>
<text text-anchor="middle" x="28" y="-7" style="font-family:Arial;font-size:10.00;">algorithm</text>
</g>
<!-- Node3&#45;&gt;Node5 -->
<g id="edge10" class="edge"><title>Node3&#45;&gt;Node5</title>
<path style="fill:none;stroke:midnightblue;" d="M554,-282C382,-267 38,-230 37,-178 37,-178 37,-178 37,-122 37,-89 33,-53 30,-30"/>
<polygon style="fill:midnightblue;stroke:midnightblue;" points="33.4778,-29.6021 29,-20 26.5125,-30.2987 33.4778,-29.6021"/>
</g>
<!-- Node6 -->
<g id="node12" class="node"><title>Node6</title>
<polygon style="fill:white;stroke:#bfbfbf;" points="607,-56 607,-76 666,-76 666,-56 607,-56"/>
<text text-anchor="middle" x="636" y="-63" style="font-family:Arial;font-size:10.00;">stdexcept</text>
</g>
<!-- Node3&#45;&gt;Node6 -->
<g id="edge12" class="edge"><title>Node3&#45;&gt;Node6</title>
<path style="fill:none;stroke:midnightblue;" d="M652,-280C655,-271 660,-257 662,-244 670,-185 676,-168 662,-112 659,-103 654,-93 649,-85"/>
<polygon style="fill:midnightblue;stroke:midnightblue;" points="651.916,-83.0418 644,-76 645.797,-86.4414 651.916,-83.0418"/>
</g>
<!-- Node7 -->
<g id="node14" class="node"><title>Node7</title>
<polygon style="fill:white;stroke:#bfbfbf;" points="1051,-56 1051,-76 1125,-76 1125,-56 1051,-56"/>
<text text-anchor="middle" x="1088" y="-63" style="font-family:Arial;font-size:10.00;">logog/logog.h</text>
</g>
<!-- Node3&#45;&gt;Node7 -->
<g id="edge14" class="edge"><title>Node3&#45;&gt;Node7</title>
<path style="fill:none;stroke:midnightblue;" d="M668,-280C738,-243 976,-123 1059,-81"/>
<polygon style="fill:midnightblue;stroke:midnightblue;" points="1060.96,-83.916 1068,-76 1057.56,-77.7969 1060.96,-83.916"/>
</g>
<!-- Node8 -->
<g id="node16" class="node"><title>Node8</title>
<a xlink:href="serializable__functor_8h.html" target="_top" xlink:title="ltr/interfaces/serializable_functor.h">
<polygon style="fill:white;stroke:black;" points="284,-224 284,-244 447,-244 447,-224 284,-224"/>
<text text-anchor="middle" x="365" y="-231" style="font-family:Arial;font-size:10.00;">ltr/interfaces/serializable_functor.h</text>
</a>
</g>
<!-- Node3&#45;&gt;Node8 -->
<g id="edge16" class="edge"><title>Node3&#45;&gt;Node8</title>
<path style="fill:none;stroke:midnightblue;" d="M597,-280C549,-271 477,-256 426,-246"/>
<polygon style="fill:midnightblue;stroke:midnightblue;" points="426.492,-242.529 416,-244 425.119,-249.393 426.492,-242.529"/>
</g>
<!-- Node9 -->
<g id="node18" class="node"><title>Node9</title>
<a xlink:href="shared__ptr_8h.html" target="_top" xlink:title="ltr/utility/shared_ptr.h">
<polygon style="fill:white;stroke:black;" points="123,-56 123,-76 230,-76 230,-56 123,-56"/>
<text text-anchor="middle" x="176" y="-63" style="font-family:Arial;font-size:10.00;">ltr/utility/shared_ptr.h</text>
</a>
</g>
<!-- Node3&#45;&gt;Node9 -->
<g id="edge80" class="edge"><title>Node3&#45;&gt;Node9</title>
<path style="fill:none;stroke:midnightblue;" d="M554,-285C460,-279 323,-266 275,-244 218,-217 208,-191 190,-132 185,-117 181,-99 179,-86"/>
<polygon style="fill:midnightblue;stroke:midnightblue;" points="182.393,-85.1194 177,-76 175.529,-86.4922 182.393,-85.1194"/>
</g>
<!-- Node21 -->
<g id="node56" class="node"><title>Node21</title>
<a xlink:href="condition_8h.html" target="_top" xlink:title="ltr/learners/decision_tree/condition/condition.h">
<polygon style="fill:white;stroke:black;" points="368,-168 368,-188 583,-188 583,-168 368,-168"/>
<text text-anchor="middle" x="475" y="-175" style="font-family:Arial;font-size:10.00;">ltr/learners/decision_tree/condition/condition.h</text>
</a>
</g>
<!-- Node3&#45;&gt;Node21 -->
<g id="edge70" class="edge"><title>Node3&#45;&gt;Node21</title>
<path style="fill:none;stroke:midnightblue;" d="M632,-280C603,-260 536,-216 499,-193"/>
<polygon style="fill:midnightblue;stroke:midnightblue;" points="501.335,-190.332 491,-188 497.625,-196.268 501.335,-190.332"/>
</g>
<!-- Node8&#45;&gt;Node9 -->
<g id="edge18" class="edge"><title>Node8&#45;&gt;Node9</title>
<path style="fill:none;stroke:midnightblue;" d="M306,-224C281,-217 253,-206 233,-188 216,-173 194,-116 183,-86"/>
<polygon style="fill:midnightblue;stroke:midnightblue;" points="186.226,-84.5725 180,-76 179.521,-86.584 186.226,-84.5725"/>
</g>
<!-- Node12 -->
<g id="node25" class="node"><title>Node12</title>
<a xlink:href="functor_8h.html" target="_top" xlink:title="ltr/interfaces/functor.h">
<polygon style="fill:white;stroke:black;" points="242,-168 242,-188 351,-188 351,-168 242,-168"/>
<text text-anchor="middle" x="296" y="-175" style="font-family:Arial;font-size:10.00;">ltr/interfaces/functor.h</text>
</a>
</g>
<!-- Node8&#45;&gt;Node12 -->
<g id="edge26" class="edge"><title>Node8&#45;&gt;Node12</title>
<path style="fill:none;stroke:midnightblue;" d="M353,-224C343,-216 329,-205 317,-195"/>
<polygon style="fill:midnightblue;stroke:midnightblue;" points="318.831,-191.951 309,-188 314.221,-197.219 318.831,-191.951"/>
</g>
<!-- Node18 -->
<g id="node45" class="node"><title>Node18</title>
<a xlink:href="serializable_8h.html" target="_top" xlink:title="ltr/interfaces/serializable.h">
<polygon style="fill:white;stroke:black;" points="760,-112 760,-132 889,-132 889,-112 760,-112"/>
<text text-anchor="middle" x="824" y="-119" style="font-family:Arial;font-size:10.00;">ltr/interfaces/serializable.h</text>
</a>
</g>
<!-- Node8&#45;&gt;Node18 -->
<g id="edge54" class="edge"><title>Node8&#45;&gt;Node18</title>
<path style="fill:none;stroke:midnightblue;" d="M420,-224C466,-215 533,-202 591,-188 658,-171 735,-149 781,-135"/>
<polygon style="fill:midnightblue;stroke:midnightblue;" points="782.427,-138.226 791,-132 780.416,-131.521 782.427,-138.226"/>
</g>
<!-- Node9&#45;&gt;Node5 -->
<g id="edge20" class="edge"><title>Node9&#45;&gt;Node5</title>
<path style="fill:none;stroke:midnightblue;" d="M150,-56C126,-47 91,-34 65,-24"/>
<polygon style="fill:midnightblue;stroke:midnightblue;" points="65.5847,-20.4643 55,-20 62.9849,-26.9636 65.5847,-20.4643"/>
</g>
<!-- Node10 -->
<g id="node21" class="node"><title>Node10</title>
<polygon style="fill:white;stroke:#bfbfbf;" points="74,-0 74,-20 181,-20 181,-0 74,-0"/>
<text text-anchor="middle" x="127" y="-7" style="font-family:Arial;font-size:10.00;">boost/shared_ptr.hpp</text>
</g>
<!-- Node9&#45;&gt;Node10 -->
<g id="edge22" class="edge"><title>Node9&#45;&gt;Node10</title>
<path style="fill:none;stroke:midnightblue;" d="M167,-56C160,-48 150,-37 142,-28"/>
<polygon style="fill:midnightblue;stroke:midnightblue;" points="144.8,-25.9 136,-20 139.2,-30.1 144.8,-25.9"/>
</g>
<!-- Node11 -->
<g id="node23" class="node"><title>Node11</title>
<polygon style="fill:white;stroke:#bfbfbf;" points="198,-0 198,-20 389,-20 389,-0 198,-0"/>
<text text-anchor="middle" x="293" y="-7" style="font-family:Arial;font-size:10.00;">boost/smart_ptr/detail/operator_bool.hpp</text>
</g>
<!-- Node9&#45;&gt;Node11 -->
<g id="edge24" class="edge"><title>Node9&#45;&gt;Node11</title>
<path style="fill:none;stroke:midnightblue;" d="M197,-56C215,-47 242,-34 263,-24"/>
<polygon style="fill:midnightblue;stroke:midnightblue;" points="264.283,-27.2598 272,-20 261.44,-20.8631 264.283,-27.2598"/>
</g>
<!-- Node12&#45;&gt;Node2 -->
<g id="edge32" class="edge"><title>Node12&#45;&gt;Node2</title>
<path style="fill:none;stroke:midnightblue;" d="M294,-168C289,-144 282,-85 314,-56 335,-36 792,-16 916,-11"/>
<polygon style="fill:midnightblue;stroke:midnightblue;" points="916,-14.5001 926,-11 916,-7.5001 916,-14.5001"/>
</g>
<!-- Node12&#45;&gt;Node9 -->
<g id="edge28" class="edge"><title>Node12&#45;&gt;Node9</title>
<path style="fill:none;stroke:midnightblue;" d="M286,-168C272,-155 248,-131 228,-112 217,-102 205,-91 196,-83"/>
<polygon style="fill:midnightblue;stroke:midnightblue;" points="197.831,-79.9511 188,-76 193.221,-85.2191 197.831,-79.9511"/>
</g>
<!-- Node13 -->
<g id="node28" class="node"><title>Node13</title>
<polygon style="fill:white;stroke:#bfbfbf;" points="683,-56 683,-76 797,-76 797,-56 683,-56"/>
<text text-anchor="middle" x="740" y="-63" style="font-family:Arial;font-size:10.00;">boost/lexical_cast.hpp</text>
</g>
<!-- Node12&#45;&gt;Node13 -->
<g id="edge30" class="edge"><title>Node12&#45;&gt;Node13</title>
<path style="fill:none;stroke:midnightblue;" d="M351,-168C398,-160 466,-147 525,-132 586,-116 657,-94 700,-79"/>
<polygon style="fill:midnightblue;stroke:midnightblue;" points="701.427,-82.2259 710,-76 699.416,-75.5212 701.427,-82.2259"/>
</g>
<!-- Node14 -->
<g id="node31" class="node"><title>Node14</title>
<a xlink:href="object_8h.html" target="_top" xlink:title="ltr/data/object.h">
<polygon style="fill:white;stroke:black;" points="432,-112 432,-132 516,-132 516,-112 432,-112"/>
<text text-anchor="middle" x="474" y="-119" style="font-family:Arial;font-size:10.00;">ltr/data/object.h</text>
</a>
</g>
<!-- Node12&#45;&gt;Node14 -->
<g id="edge34" class="edge"><title>Node12&#45;&gt;Node14</title>
<path style="fill:none;stroke:midnightblue;" d="M328,-168C357,-159 400,-145 432,-135"/>
<polygon style="fill:midnightblue;stroke:midnightblue;" points="433.427,-138.226 442,-132 431.416,-131.521 433.427,-138.226"/>
</g>
<!-- Node14&#45;&gt;Node2 -->
<g id="edge42" class="edge"><title>Node14&#45;&gt;Node2</title>
<path style="fill:none;stroke:midnightblue;" d="M480,-112C490,-97 512,-69 538,-56 604,-22 833,-13 916,-10"/>
<polygon style="fill:midnightblue;stroke:midnightblue;" points="916,-13.5001 926,-10 916,-6.5001 916,-13.5001"/>
</g>
<!-- Node14&#45;&gt;Node4 -->
<g id="edge44" class="edge"><title>Node14&#45;&gt;Node4</title>
<path style="fill:none;stroke:midnightblue;" d="M491,-112C505,-104 526,-91 542,-81"/>
<polygon style="fill:midnightblue;stroke:midnightblue;" points="543.958,-83.916 551,-76 540.559,-77.7969 543.958,-83.916"/>
</g>
<!-- Node14&#45;&gt;Node6 -->
<g id="edge40" class="edge"><title>Node14&#45;&gt;Node6</title>
<path style="fill:none;stroke:midnightblue;" d="M503,-112C530,-103 569,-89 597,-79"/>
<polygon style="fill:midnightblue;stroke:midnightblue;" points="598.427,-82.2259 607,-76 596.416,-75.5212 598.427,-82.2259"/>
</g>
<!-- Node14&#45;&gt;Node9 -->
<g id="edge52" class="edge"><title>Node14&#45;&gt;Node9</title>
<path style="fill:none;stroke:midnightblue;" d="M432,-114C382,-105 297,-89 239,-78"/>
<polygon style="fill:midnightblue;stroke:midnightblue;" points="239.492,-74.5292 229,-76 238.119,-81.3933 239.492,-74.5292"/>
</g>
<!-- Node15 -->
<g id="node33" class="node"><title>Node15</title>
<polygon style="fill:white;stroke:#bfbfbf;" points="457,-56 457,-76 492,-76 492,-56 457,-56"/>
<text text-anchor="middle" x="474" y="-63" style="font-family:Arial;font-size:10.00;">map</text>
</g>
<!-- Node14&#45;&gt;Node15 -->
<g id="edge36" class="edge"><title>Node14&#45;&gt;Node15</title>
<path style="fill:none;stroke:midnightblue;" d="M474,-112C474,-105 474,-95 474,-86"/>
<polygon style="fill:midnightblue;stroke:midnightblue;" points="477.5,-86 474,-76 470.5,-86 477.5,-86"/>
</g>
<!-- Node16 -->
<g id="node35" class="node"><title>Node16</title>
<polygon style="fill:white;stroke:#bfbfbf;" points="406,-0 406,-20 457,-20 457,-0 406,-0"/>
<text text-anchor="middle" x="431" y="-7" style="font-family:Arial;font-size:10.00;">ostream</text>
</g>
<!-- Node14&#45;&gt;Node16 -->
<g id="edge38" class="edge"><title>Node14&#45;&gt;Node16</title>
<path style="fill:none;stroke:midnightblue;" d="M432,-116C389,-108 328,-95 314,-76 308,-68 308,-63 314,-56 319,-49 363,-32 396,-21"/>
<polygon style="fill:midnightblue;stroke:midnightblue;" points="397.427,-24.2259 406,-18 395.416,-17.5212 397.427,-24.2259"/>
</g>
<!-- Node17 -->
<g id="node40" class="node"><title>Node17</title>
<a xlink:href="printable_8h.html" target="_top" xlink:title="ltr/interfaces/printable.h">
<polygon style="fill:white;stroke:black;" points="323,-56 323,-76 440,-76 440,-56 323,-56"/>
<text text-anchor="middle" x="381" y="-63" style="font-family:Arial;font-size:10.00;">ltr/interfaces/printable.h</text>
</a>
</g>
<!-- Node14&#45;&gt;Node17 -->
<g id="edge46" class="edge"><title>Node14&#45;&gt;Node17</title>
<path style="fill:none;stroke:midnightblue;" d="M457,-112C444,-104 423,-91 407,-81"/>
<polygon style="fill:midnightblue;stroke:midnightblue;" points="408.441,-77.7969 398,-76 405.042,-83.916 408.441,-77.7969"/>
</g>
<!-- Node17&#45;&gt;Node2 -->
<g id="edge50" class="edge"><title>Node17&#45;&gt;Node2</title>
<path style="fill:none;stroke:midnightblue;" d="M440,-57C443,-57 445,-56 448,-56 625,-34 838,-18 916,-12"/>
<polygon style="fill:midnightblue;stroke:midnightblue;" points="916.398,-15.4778 926,-11 915.701,-8.5125 916.398,-15.4778"/>
</g>
<!-- Node17&#45;&gt;Node16 -->
<g id="edge48" class="edge"><title>Node17&#45;&gt;Node16</title>
<path style="fill:none;stroke:midnightblue;" d="M390,-56C397,-48 407,-37 415,-28"/>
<polygon style="fill:midnightblue;stroke:midnightblue;" points="418.049,-29.8306 422,-20 412.781,-25.221 418.049,-29.8306"/>
</g>
<!-- Node18&#45;&gt;Node2 -->
<g id="edge60" class="edge"><title>Node18&#45;&gt;Node2</title>
<path style="fill:none;stroke:midnightblue;" d="M889,-114C935,-106 989,-94 1004,-76 1017,-58 995,-38 975,-25"/>
<polygon style="fill:midnightblue;stroke:midnightblue;" points="976.441,-21.7969 966,-20 973.042,-27.916 976.441,-21.7969"/>
</g>
<!-- Node18&#45;&gt;Node7 -->
<g id="edge58" class="edge"><title>Node18&#45;&gt;Node7</title>
<path style="fill:none;stroke:midnightblue;" d="M871,-112C920,-102 993,-86 1041,-76"/>
<polygon style="fill:midnightblue;stroke:midnightblue;" points="1041.88,-79.3933 1051,-74 1040.51,-72.5292 1041.88,-79.3933"/>
</g>
<!-- Node18&#45;&gt;Node9 -->
<g id="edge64" class="edge"><title>Node18&#45;&gt;Node9</title>
<path style="fill:none;stroke:midnightblue;" d="M760,-116C636,-105 364,-82 240,-72"/>
<polygon style="fill:midnightblue;stroke:midnightblue;" points="240.299,-68.5125 230,-71 239.602,-75.4778 240.299,-68.5125"/>
</g>
<!-- Node18&#45;&gt;Node13 -->
<g id="edge56" class="edge"><title>Node18&#45;&gt;Node13</title>
<path style="fill:none;stroke:midnightblue;" d="M809,-112C797,-104 779,-91 764,-82"/>
<polygon style="fill:midnightblue;stroke:midnightblue;" points="765.262,-78.6349 755,-76 761.379,-84.4592 765.262,-78.6349"/>
</g>
<!-- Node19 -->
<g id="node50" class="node"><title>Node19</title>
<polygon style="fill:white;stroke:#bfbfbf;" points="941,-56 941,-76 995,-76 995,-56 941,-56"/>
<text text-anchor="middle" x="968" y="-63" style="font-family:Arial;font-size:10.00;">iostream</text>
</g>
<!-- Node18&#45;&gt;Node19 -->
<g id="edge62" class="edge"><title>Node18&#45;&gt;Node19</title>
<path style="fill:none;stroke:midnightblue;" d="M850,-112C873,-103 907,-90 933,-80"/>
<polygon style="fill:midnightblue;stroke:midnightblue;" points="934.283,-83.2598 942,-76 931.44,-76.8631 934.283,-83.2598"/>
</g>
<!-- Node20 -->
<g id="node53" class="node"><title>Node20</title>
<a xlink:href="aliaser_8h.html" target="_top" xlink:title="ltr/interfaces/aliaser.h">
<polygon style="fill:white;stroke:black;" points="815,-56 815,-76 923,-76 923,-56 815,-56"/>
<text text-anchor="middle" x="869" y="-63" style="font-family:Arial;font-size:10.00;">ltr/interfaces/aliaser.h</text>
</a>
</g>
<!-- Node18&#45;&gt;Node20 -->
<g id="edge66" class="edge"><title>Node18&#45;&gt;Node20</title>
<path style="fill:none;stroke:midnightblue;" d="M832,-112C838,-104 847,-94 855,-84"/>
<polygon style="fill:midnightblue;stroke:midnightblue;" points="857.8,-86.1 861,-76 852.2,-81.9 857.8,-86.1"/>
</g>
<!-- Node20&#45;&gt;Node2 -->
<g id="edge68" class="edge"><title>Node20&#45;&gt;Node2</title>
<path style="fill:none;stroke:midnightblue;" d="M883,-56C894,-48 911,-36 924,-26"/>
<polygon style="fill:midnightblue;stroke:midnightblue;" points="926.1,-28.8 932,-20 921.9,-23.2 926.1,-28.8"/>
</g>
<!-- Node21&#45;&gt;Node2 -->
<g id="edge72" class="edge"><title>Node21&#45;&gt;Node2</title>
<path style="fill:none;stroke:midnightblue;" d="M583,-169C762,-154 1100,-119 1134,-76 1139,-69 1139,-62 1134,-56 1114,-31 1024,-18 976,-13"/>
<polygon style="fill:midnightblue;stroke:midnightblue;" points="976.299,-9.5125 966,-12 975.602,-16.4778 976.299,-9.5125"/>
</g>
<!-- Node21&#45;&gt;Node9 -->
<g id="edge78" class="edge"><title>Node21&#45;&gt;Node9</title>
<path style="fill:none;stroke:midnightblue;" d="M448,-168C395,-147 274,-102 213,-80"/>
<polygon style="fill:midnightblue;stroke:midnightblue;" points="213.585,-76.4643 203,-76 210.985,-82.9636 213.585,-76.4643"/>
</g>
<!-- Node21&#45;&gt;Node14 -->
<g id="edge74" class="edge"><title>Node21&#45;&gt;Node14</title>
<path style="fill:none;stroke:midnightblue;" d="M475,-168C475,-161 475,-151 475,-142"/>
<polygon style="fill:midnightblue;stroke:midnightblue;" points="478.478,-141.602 474,-132 471.512,-142.299 478.478,-141.602"/>
</g>
<!-- Node21&#45;&gt;Node18 -->
<g id="edge76" class="edge"><title>Node21&#45;&gt;Node18</title>
<path style="fill:none;stroke:midnightblue;" d="M537,-168C598,-159 689,-144 752,-134"/>
<polygon style="fill:midnightblue;stroke:midnightblue;" points="752.881,-137.393 762,-132 751.508,-130.529 752.881,-137.393"/>
</g>
</g>
</svg>
