<?xml version="1.0" encoding="UTF-8" standalone="no"?>
<!DOCTYPE svg PUBLIC "-//W3C//DTD SVG 1.0//EN"
 "http://www.w3.org/TR/2001/REC-SVG-20010904/DTD/svg10.dtd" [
 <!ATTLIST svg xmlns:xlink CDATA #FIXED "http://www.w3.org/1999/xlink">
]>
<!-- Generated by Graphviz version 2.20.2 (Tue Mar &#160;2 19:03:41 UTC 2010)
     For user: (jenkins)  -->
<!-- Title: G Pages: 1 -->
<svg width="1084pt" height="196pt"
 viewBox="0.00 0.00 1084.00 196.00" xmlns="http://www.w3.org/2000/svg" xmlns:xlink="http://www.w3.org/1999/xlink">
<g id="graph0" class="graph" transform="scale(1 1) rotate(0) translate(4 192)">
<title>G</title>
<polygon style="fill:white;stroke:white;" points="-4,4 -4,-192 1080,-192 1080,4 -4,4"/>
<!-- Node1 -->
<g id="node1" class="node"><title>Node1</title>
<polygon style="fill:#bfbfbf;stroke:black;" points="456,-168 456,-188 664,-188 664,-168 456,-168"/>
<text text-anchor="middle" x="560" y="-175" style="font-family:Arial;font-size:10.00;">ltr/learners/decision_tree/vertex/leaf_vertex.h</text>
</g>
<!-- Node2 -->
<g id="node3" class="node"><title>Node2</title>
<a xlink:href="leaf__generator_8h.html" target="_top" xlink:title="ltr/learners/decision_tree/leaf_generator/leaf_generator.h">
<polygon style="fill:white;stroke:black;" points="353,-112 353,-132 611,-132 611,-112 353,-112"/>
<text text-anchor="middle" x="482" y="-119" style="font-family:Arial;font-size:10.00;">ltr/learners/decision_tree/leaf_generator/leaf_generator.h</text>
</a>
</g>
<!-- Node1&#45;&gt;Node2 -->
<g id="edge2" class="edge"><title>Node1&#45;&gt;Node2</title>
<path style="fill:none;stroke:midnightblue;" d="M538,-162C524,-152 507,-140 496,-132"/>
<polygon style="fill:midnightblue;stroke:midnightblue;" points="535.9,-164.8 546,-168 540.1,-159.2 535.9,-164.8"/>
</g>
<!-- Node3 -->
<g id="node5" class="node"><title>Node3</title>
<a xlink:href="decision__tree__learner_8h.html" target="_top" xlink:title="ltr/learners/decision_tree/decision_tree_learner.h">
<polygon style="fill:white;stroke:black;" points="217,-56 217,-76 442,-76 442,-56 217,-56"/>
<text text-anchor="middle" x="329" y="-63" style="font-family:Arial;font-size:10.00;">ltr/learners/decision_tree/decision_tree_learner.h</text>
</a>
</g>
<!-- Node1&#45;&gt;Node3 -->
<g id="edge20" class="edge"><title>Node1&#45;&gt;Node3</title>
<path style="fill:none;stroke:midnightblue;" d="M456,-167C409,-159 360,-148 344,-132 329,-117 328,-91 328,-76"/>
<polygon style="fill:midnightblue;stroke:midnightblue;" points="455.701,-170.488 466,-168 456.398,-163.522 455.701,-170.488"/>
</g>
<!-- Node7 -->
<g id="node13" class="node"><title>Node7</title>
<a xlink:href="most__common__label__leaf__generator_8h.html" target="_top" xlink:title="ltr/learners/decision_tree/leaf_generator/most_common_label_leaf_generator.h">
<polygon style="fill:white;stroke:black;" points="459,-56 459,-76 812,-76 812,-56 459,-56"/>
<text text-anchor="middle" x="635" y="-63" style="font-family:Arial;font-size:10.00;">ltr/learners/decision_tree/leaf_generator/most_common_label_leaf_generator.h</text>
</a>
</g>
<!-- Node1&#45;&gt;Node7 -->
<g id="edge22" class="edge"><title>Node1&#45;&gt;Node7</title>
<path style="fill:none;stroke:midnightblue;" d="M588,-162C599,-155 611,-145 620,-132 631,-114 634,-90 635,-76"/>
<polygon style="fill:midnightblue;stroke:midnightblue;" points="585.379,-159.541 579,-168 589.262,-165.365 585.379,-159.541"/>
</g>
<!-- Node9 -->
<g id="node21" class="node"><title>Node9</title>
<a xlink:href="leaf__vertex_8cc.html" target="_top" xlink:title="ltr/learners/decision_tree/vertex/leaf_vertex.cc">
<polygon style="fill:white;stroke:black;" points="667,-112 667,-132 880,-132 880,-112 667,-112"/>
<text text-anchor="middle" x="773" y="-119" style="font-family:Arial;font-size:10.00;">ltr/learners/decision_tree/vertex/leaf_vertex.cc</text>
</a>
</g>
<!-- Node1&#45;&gt;Node9 -->
<g id="edge24" class="edge"><title>Node1&#45;&gt;Node9</title>
<path style="fill:none;stroke:midnightblue;" d="M608,-165C646,-155 699,-141 735,-132"/>
<polygon style="fill:midnightblue;stroke:midnightblue;" points="606.573,-161.774 598,-168 608.584,-168.479 606.573,-161.774"/>
</g>
<!-- Node2&#45;&gt;Node3 -->
<g id="edge4" class="edge"><title>Node2&#45;&gt;Node3</title>
<path style="fill:none;stroke:midnightblue;" d="M445,-109C418,-99 381,-85 356,-76"/>
<polygon style="fill:midnightblue;stroke:midnightblue;" points="444.416,-112.479 455,-112 446.427,-105.774 444.416,-112.479"/>
</g>
<!-- Node2&#45;&gt;Node7 -->
<g id="edge12" class="edge"><title>Node2&#45;&gt;Node7</title>
<path style="fill:none;stroke:midnightblue;" d="M519,-109C546,-99 583,-85 608,-76"/>
<polygon style="fill:midnightblue;stroke:midnightblue;" points="517.573,-105.774 509,-112 519.584,-112.479 517.573,-105.774"/>
</g>
<!-- Node4 -->
<g id="node7" class="node"><title>Node4</title>
<a xlink:href="decision__tree__learner_8cc.html" target="_top" xlink:title="ltr/learners/decision_tree/decision_tree_learner.cc">
<polygon style="fill:white;stroke:black;" points="0,-0 0,-20 231,-20 231,-0 0,-0"/>
<text text-anchor="middle" x="115" y="-7" style="font-family:Arial;font-size:10.00;">ltr/learners/decision_tree/decision_tree_learner.cc</text>
</a>
</g>
<!-- Node3&#45;&gt;Node4 -->
<g id="edge6" class="edge"><title>Node3&#45;&gt;Node4</title>
<path style="fill:none;stroke:midnightblue;" d="M281,-53C242,-43 189,-29 153,-20"/>
<polygon style="fill:midnightblue;stroke:midnightblue;" points="280.416,-56.4788 291,-56 282.427,-49.7741 280.416,-56.4788"/>
</g>
<!-- Node5 -->
<g id="node9" class="node"><title>Node5</title>
<a xlink:href="decision__tree__unittest_8cc.html" target="_top" xlink:title="ltr/learners/decision_tree/decision_tree_unittest.cc">
<polygon style="fill:white;stroke:black;" points="248,-0 248,-20 482,-20 482,-0 248,-0"/>
<text text-anchor="middle" x="365" y="-7" style="font-family:Arial;font-size:10.00;">ltr/learners/decision_tree/decision_tree_unittest.cc</text>
</a>
</g>
<!-- Node3&#45;&gt;Node5 -->
<g id="edge8" class="edge"><title>Node3&#45;&gt;Node5</title>
<path style="fill:none;stroke:midnightblue;" d="M341,-48C347,-39 354,-28 358,-20"/>
<polygon style="fill:midnightblue;stroke:midnightblue;" points="338.2,-45.9 335,-56 343.8,-50.1 338.2,-45.9"/>
</g>
<!-- Node6 -->
<g id="node11" class="node"><title>Node6</title>
<a xlink:href="generator_8cc.html" target="_top" xlink:title="ltr/serialization_test/generator/generator.cc">
<polygon style="fill:white;stroke:black;" points="500,-0 500,-20 701,-20 701,-0 500,-0"/>
<text text-anchor="middle" x="600" y="-7" style="font-family:Arial;font-size:10.00;">ltr/serialization_test/generator/generator.cc</text>
</a>
</g>
<!-- Node3&#45;&gt;Node6 -->
<g id="edge10" class="edge"><title>Node3&#45;&gt;Node6</title>
<path style="fill:none;stroke:midnightblue;" d="M387,-54C436,-44 505,-29 551,-20"/>
<polygon style="fill:midnightblue;stroke:midnightblue;" points="386.119,-50.6067 377,-56 387.492,-57.4708 386.119,-50.6067"/>
</g>
<!-- Node7&#45;&gt;Node5 -->
<g id="edge14" class="edge"><title>Node7&#45;&gt;Node5</title>
<path style="fill:none;stroke:midnightblue;" d="M577,-54C528,-44 459,-29 413,-20"/>
<polygon style="fill:midnightblue;stroke:midnightblue;" points="576.508,-57.4708 587,-56 577.881,-50.6067 576.508,-57.4708"/>
</g>
<!-- Node7&#45;&gt;Node6 -->
<g id="edge18" class="edge"><title>Node7&#45;&gt;Node6</title>
<path style="fill:none;stroke:midnightblue;" d="M624,-47C618,-39 611,-28 607,-20"/>
<polygon style="fill:midnightblue;stroke:midnightblue;" points="621.084,-48.9582 629,-56 627.203,-45.5586 621.084,-48.9582"/>
</g>
<!-- Node8 -->
<g id="node16" class="node"><title>Node8</title>
<a xlink:href="most__common__label__leaf__generator_8cc.html" target="_top" xlink:title="ltr/learners/decision_tree/leaf_generator/most_common_label_leaf_generator.cc">
<polygon style="fill:white;stroke:black;" points="718,-0 718,-20 1076,-20 1076,-0 718,-0"/>
<text text-anchor="middle" x="897" y="-7" style="font-family:Arial;font-size:10.00;">ltr/learners/decision_tree/leaf_generator/most_common_label_leaf_generator.cc</text>
</a>
</g>
<!-- Node7&#45;&gt;Node8 -->
<g id="edge16" class="edge"><title>Node7&#45;&gt;Node8</title>
<path style="fill:none;stroke:midnightblue;" d="M692,-54C739,-44 805,-29 850,-20"/>
<polygon style="fill:midnightblue;stroke:midnightblue;" points="691.119,-50.6067 682,-56 692.492,-57.4708 691.119,-50.6067"/>
</g>
</g>
</svg>
