<?xml version="1.0" encoding="UTF-8" standalone="no"?>
<!DOCTYPE svg PUBLIC "-//W3C//DTD SVG 1.0//EN"
 "http://www.w3.org/TR/2001/REC-SVG-20010904/DTD/svg10.dtd" [
 <!ATTLIST svg xmlns:xlink CDATA #FIXED "http://www.w3.org/1999/xlink">
]>
<!-- Generated by Graphviz version 2.20.2 (Tue Mar &#160;2 19:03:41 UTC 2010)
     For user: (jenkins)  -->
<!-- Title: G Pages: 1 -->
<svg width="1863pt" height="420pt"
 viewBox="0.00 0.00 1863.00 420.00" xmlns="http://www.w3.org/2000/svg" xmlns:xlink="http://www.w3.org/1999/xlink">
<g id="graph0" class="graph" transform="scale(1 1) rotate(0) translate(4 416)">
<title>G</title>
<polygon style="fill:white;stroke:white;" points="-4,4 -4,-416 1859,-416 1859,4 -4,4"/>
<!-- Node1 -->
<g id="node1" class="node"><title>Node1</title>
<polygon style="fill:#bfbfbf;stroke:black;" points="1004,-392 1004,-412 1262,-412 1262,-392 1004,-392"/>
<text text-anchor="middle" x="1133" y="-399" style="font-family:Arial;font-size:10.00;">ltr/learners/decision_tree/leaf_generator/leaf_generator.h</text>
</g>
<!-- Node2 -->
<g id="node3" class="node"><title>Node2</title>
<a xlink:href="data__set_8h.html" target="_top" xlink:title="ltr/data/data_set.h">
<polygon style="fill:white;stroke:black;" points="387,-280 387,-300 482,-300 482,-280 387,-280"/>
<text text-anchor="middle" x="434" y="-287" style="font-family:Arial;font-size:10.00;">ltr/data/data_set.h</text>
</a>
</g>
<!-- Node1&#45;&gt;Node2 -->
<g id="edge2" class="edge"><title>Node1&#45;&gt;Node2</title>
<path style="fill:none;stroke:midnightblue;" d="M1070,-392C937,-370 622,-320 492,-300"/>
<polygon style="fill:midnightblue;stroke:midnightblue;" points="492.492,-296.529 482,-298 491.119,-303.393 492.492,-296.529"/>
</g>
<!-- Node11 -->
<g id="node26" class="node"><title>Node11</title>
<a xlink:href="shared__ptr_8h.html" target="_top" xlink:title="ltr/utility/shared_ptr.h">
<polygon style="fill:white;stroke:black;" points="1636,-56 1636,-76 1743,-76 1743,-56 1636,-56"/>
<text text-anchor="middle" x="1689" y="-63" style="font-family:Arial;font-size:10.00;">ltr/utility/shared_ptr.h</text>
</a>
</g>
<!-- Node1&#45;&gt;Node11 -->
<g id="edge172" class="edge"><title>Node1&#45;&gt;Node11</title>
<path style="fill:none;stroke:midnightblue;" d="M1262,-393C1457,-378 1803,-344 1803,-290 1803,-290 1803,-290 1803,-178 1803,-131 1755,-98 1722,-81"/>
<polygon style="fill:midnightblue;stroke:midnightblue;" points="1723.44,-77.7969 1713,-76 1720.04,-83.916 1723.44,-77.7969"/>
</g>
<!-- Node26 -->
<g id="node84" class="node"><title>Node26</title>
<a xlink:href="leaf__vertex_8h.html" target="_top" xlink:title="ltr/learners/decision_tree/vertex/leaf_vertex.h">
<polygon style="fill:white;stroke:black;" points="1029,-336 1029,-356 1237,-356 1237,-336 1029,-336"/>
<text text-anchor="middle" x="1133" y="-343" style="font-family:Arial;font-size:10.00;">ltr/learners/decision_tree/vertex/leaf_vertex.h</text>
</a>
</g>
<!-- Node1&#45;&gt;Node26 -->
<g id="edge116" class="edge"><title>Node1&#45;&gt;Node26</title>
<path style="fill:none;stroke:midnightblue;" d="M1133,-392C1133,-385 1133,-375 1133,-366"/>
<polygon style="fill:midnightblue;stroke:midnightblue;" points="1136.5,-366 1133,-356 1129.5,-366 1136.5,-366"/>
</g>
<!-- Node3 -->
<g id="node5" class="node"><title>Node3</title>
<polygon style="fill:white;stroke:#bfbfbf;" points="0,-224 0,-244 51,-244 51,-224 0,-224"/>
<text text-anchor="middle" x="25" y="-231" style="font-family:Arial;font-size:10.00;">sstream</text>
</g>
<!-- Node2&#45;&gt;Node3 -->
<g id="edge4" class="edge"><title>Node2&#45;&gt;Node3</title>
<path style="fill:none;stroke:midnightblue;" d="M387,-286C316,-279 179,-265 64,-244 63,-244 62,-244 61,-243"/>
<polygon style="fill:midnightblue;stroke:midnightblue;" points="61.4922,-239.529 51,-241 60.1194,-246.393 61.4922,-239.529"/>
</g>
<!-- Node4 -->
<g id="node7" class="node"><title>Node4</title>
<polygon style="fill:white;stroke:#bfbfbf;" points="510,-56 510,-76 569,-76 569,-56 510,-56"/>
<text text-anchor="middle" x="539" y="-63" style="font-family:Arial;font-size:10.00;">stdexcept</text>
</g>
<!-- Node2&#45;&gt;Node4 -->
<g id="edge6" class="edge"><title>Node2&#45;&gt;Node4</title>
<path style="fill:none;stroke:midnightblue;" d="M439,-280C455,-245 509,-131 530,-85"/>
<polygon style="fill:midnightblue;stroke:midnightblue;" points="533.137,-86.5596 534,-76 526.74,-83.7166 533.137,-86.5596"/>
</g>
<!-- Node5 -->
<g id="node9" class="node"><title>Node5</title>
<polygon style="fill:white;stroke:#bfbfbf;" points="957,-0 957,-20 997,-20 997,-0 957,-0"/>
<text text-anchor="middle" x="977" y="-7" style="font-family:Arial;font-size:10.00;">string</text>
</g>
<!-- Node2&#45;&gt;Node5 -->
<g id="edge8" class="edge"><title>Node2&#45;&gt;Node5</title>
<path style="fill:none;stroke:midnightblue;" d="M482,-285C619,-272 996,-230 996,-178 996,-178 996,-178 996,-122 996,-89 988,-52 982,-30"/>
<polygon style="fill:midnightblue;stroke:midnightblue;" points="985.393,-29.1194 980,-20 978.529,-30.4922 985.393,-29.1194"/>
</g>
<!-- Node6 -->
<g id="node11" class="node"><title>Node6</title>
<polygon style="fill:white;stroke:#bfbfbf;" points="272,-56 272,-76 314,-76 314,-56 272,-56"/>
<text text-anchor="middle" x="293" y="-63" style="font-family:Arial;font-size:10.00;">vector</text>
</g>
<!-- Node2&#45;&gt;Node6 -->
<g id="edge10" class="edge"><title>Node2&#45;&gt;Node6</title>
<path style="fill:none;stroke:midnightblue;" d="M387,-286C337,-281 256,-269 190,-244 144,-226 121,-230 97,-188 58,-118 197,-84 262,-71"/>
<polygon style="fill:midnightblue;stroke:midnightblue;" points="262.881,-74.3933 272,-69 261.508,-67.5292 262.881,-74.3933"/>
</g>
<!-- Node7 -->
<g id="node13" class="node"><title>Node7</title>
<a xlink:href="object_8h.html" target="_top" xlink:title="ltr/data/object.h">
<polygon style="fill:white;stroke:black;" points="186,-112 186,-132 270,-132 270,-112 186,-112"/>
<text text-anchor="middle" x="228" y="-119" style="font-family:Arial;font-size:10.00;">ltr/data/object.h</text>
</a>
</g>
<!-- Node2&#45;&gt;Node7 -->
<g id="edge12" class="edge"><title>Node2&#45;&gt;Node7</title>
<path style="fill:none;stroke:midnightblue;" d="M387,-284C339,-277 269,-263 251,-244 225,-216 224,-169 226,-142"/>
<polygon style="fill:midnightblue;stroke:midnightblue;" points="229.488,-142.299 227,-132 222.522,-141.602 229.488,-142.299"/>
</g>
<!-- Node15 -->
<g id="node34" class="node"><title>Node15</title>
<a xlink:href="object__list_8h.html" target="_top" xlink:title="ltr/data/object_list.h">
<polygon style="fill:white;stroke:black;" points="304,-168 304,-188 406,-188 406,-168 304,-168"/>
<text text-anchor="middle" x="355" y="-175" style="font-family:Arial;font-size:10.00;">ltr/data/object_list.h</text>
</a>
</g>
<!-- Node2&#45;&gt;Node15 -->
<g id="edge38" class="edge"><title>Node2&#45;&gt;Node15</title>
<path style="fill:none;stroke:midnightblue;" d="M433,-280C431,-266 427,-241 415,-224 406,-211 394,-201 383,-194"/>
<polygon style="fill:midnightblue;stroke:midnightblue;" points="384.262,-190.635 374,-188 380.379,-196.459 384.262,-190.635"/>
</g>
<!-- Node16 -->
<g id="node42" class="node"><title>Node16</title>
<a xlink:href="object__pair_8h.html" target="_top" xlink:title="ltr/data/object_pair.h">
<polygon style="fill:white;stroke:black;" points="106,-168 106,-188 210,-188 210,-168 106,-168"/>
<text text-anchor="middle" x="158" y="-175" style="font-family:Arial;font-size:10.00;">ltr/data/object_pair.h</text>
</a>
</g>
<!-- Node2&#45;&gt;Node16 -->
<g id="edge52" class="edge"><title>Node2&#45;&gt;Node16</title>
<path style="fill:none;stroke:midnightblue;" d="M387,-283C332,-275 246,-260 218,-244 197,-232 181,-212 170,-197"/>
<polygon style="fill:midnightblue;stroke:midnightblue;" points="172.459,-194.379 164,-188 166.635,-198.262 172.459,-194.379"/>
</g>
<!-- Node17 -->
<g id="node50" class="node"><title>Node17</title>
<a xlink:href="feature__info_8h.html" target="_top" xlink:title="ltr/data/feature_info.h">
<polygon style="fill:white;stroke:black;" points="566,-224 566,-244 673,-244 673,-224 566,-224"/>
<text text-anchor="middle" x="619" y="-231" style="font-family:Arial;font-size:10.00;">ltr/data/feature_info.h</text>
</a>
</g>
<!-- Node2&#45;&gt;Node17 -->
<g id="edge66" class="edge"><title>Node2&#45;&gt;Node17</title>
<path style="fill:none;stroke:midnightblue;" d="M467,-280C497,-271 542,-257 576,-247"/>
<polygon style="fill:midnightblue;stroke:midnightblue;" points="577.427,-250.226 586,-244 575.416,-243.521 577.427,-250.226"/>
</g>
<!-- Node24 -->
<g id="node74" class="node"><title>Node24</title>
<a xlink:href="per__object__accessor_8h.html" target="_top" xlink:title="ltr/data/per_object_accessor.h">
<polygon style="fill:white;stroke:black;" points="260,-224 260,-244 407,-244 407,-224 260,-224"/>
<text text-anchor="middle" x="333" y="-231" style="font-family:Arial;font-size:10.00;">ltr/data/per_object_accessor.h</text>
</a>
</g>
<!-- Node2&#45;&gt;Node24 -->
<g id="edge100" class="edge"><title>Node2&#45;&gt;Node24</title>
<path style="fill:none;stroke:midnightblue;" d="M416,-280C401,-271 378,-259 360,-249"/>
<polygon style="fill:midnightblue;stroke:midnightblue;" points="361.441,-245.797 351,-244 358.042,-251.916 361.441,-245.797"/>
</g>
<!-- Node25 -->
<g id="node81" class="node"><title>Node25</title>
<a xlink:href="aliaser_8h.html" target="_top" xlink:title="ltr/interfaces/aliaser.h">
<polygon style="fill:white;stroke:black;" points="1230,-56 1230,-76 1338,-76 1338,-56 1230,-56"/>
<text text-anchor="middle" x="1284" y="-63" style="font-family:Arial;font-size:10.00;">ltr/interfaces/aliaser.h</text>
</a>
</g>
<!-- Node2&#45;&gt;Node25 -->
<g id="edge112" class="edge"><title>Node2&#45;&gt;Node25</title>
<path style="fill:none;stroke:midnightblue;" d="M482,-289C602,-287 912,-277 1010,-244 1117,-207 1224,-120 1266,-83"/>
<polygon style="fill:midnightblue;stroke:midnightblue;" points="1268.4,-85.546 1273,-76 1263.45,-80.5962 1268.4,-85.546"/>
</g>
<!-- Node7&#45;&gt;Node4 -->
<g id="edge18" class="edge"><title>Node7&#45;&gt;Node4</title>
<path style="fill:none;stroke:midnightblue;" d="M270,-114C330,-104 441,-83 500,-73"/>
<polygon style="fill:midnightblue;stroke:midnightblue;" points="500.881,-76.3933 510,-71 499.508,-69.5292 500.881,-76.3933"/>
</g>
<!-- Node7&#45;&gt;Node5 -->
<g id="edge20" class="edge"><title>Node7&#45;&gt;Node5</title>
<path style="fill:none;stroke:midnightblue;" d="M230,-112C234,-97 243,-69 263,-56 320,-18 818,-11 947,-10"/>
<polygon style="fill:midnightblue;stroke:midnightblue;" points="947,-13.5001 957,-10 947,-6.5001 947,-13.5001"/>
</g>
<!-- Node7&#45;&gt;Node6 -->
<g id="edge22" class="edge"><title>Node7&#45;&gt;Node6</title>
<path style="fill:none;stroke:midnightblue;" d="M240,-112C249,-104 262,-93 273,-83"/>
<polygon style="fill:midnightblue;stroke:midnightblue;" points="275.779,-85.2191 281,-76 271.169,-79.9511 275.779,-85.2191"/>
</g>
<!-- Node8 -->
<g id="node15" class="node"><title>Node8</title>
<polygon style="fill:white;stroke:#bfbfbf;" points="332,-56 332,-76 367,-76 367,-56 332,-56"/>
<text text-anchor="middle" x="349" y="-63" style="font-family:Arial;font-size:10.00;">map</text>
</g>
<!-- Node7&#45;&gt;Node8 -->
<g id="edge14" class="edge"><title>Node7&#45;&gt;Node8</title>
<path style="fill:none;stroke:midnightblue;" d="M250,-112C270,-102 301,-88 323,-78"/>
<polygon style="fill:midnightblue;stroke:midnightblue;" points="324.283,-81.2598 332,-74 321.44,-74.8631 324.283,-81.2598"/>
</g>
<!-- Node9 -->
<g id="node17" class="node"><title>Node9</title>
<polygon style="fill:white;stroke:#bfbfbf;" points="138,-0 138,-20 189,-20 189,-0 138,-0"/>
<text text-anchor="middle" x="163" y="-7" style="font-family:Arial;font-size:10.00;">ostream</text>
</g>
<!-- Node7&#45;&gt;Node9 -->
<g id="edge16" class="edge"><title>Node7&#45;&gt;Node9</title>
<path style="fill:none;stroke:midnightblue;" d="M222,-112C211,-93 188,-53 174,-29"/>
<polygon style="fill:midnightblue;stroke:midnightblue;" points="176.916,-27.0418 169,-20 170.797,-30.4414 176.916,-27.0418"/>
</g>
<!-- Node10 -->
<g id="node22" class="node"><title>Node10</title>
<a xlink:href="printable_8h.html" target="_top" xlink:title="ltr/interfaces/printable.h">
<polygon style="fill:white;stroke:black;" points="62,-56 62,-76 179,-76 179,-56 62,-56"/>
<text text-anchor="middle" x="120" y="-63" style="font-family:Arial;font-size:10.00;">ltr/interfaces/printable.h</text>
</a>
</g>
<!-- Node7&#45;&gt;Node10 -->
<g id="edge24" class="edge"><title>Node7&#45;&gt;Node10</title>
<path style="fill:none;stroke:midnightblue;" d="M209,-112C193,-103 168,-90 149,-81"/>
<polygon style="fill:midnightblue;stroke:midnightblue;" points="150.441,-77.7969 140,-76 147.042,-83.916 150.441,-77.7969"/>
</g>
<!-- Node7&#45;&gt;Node11 -->
<g id="edge30" class="edge"><title>Node7&#45;&gt;Node11</title>
<path style="fill:none;stroke:midnightblue;" d="M270,-121C470,-116 1323,-94 1589,-76 1601,-75 1614,-74 1626,-73"/>
<polygon style="fill:midnightblue;stroke:midnightblue;" points="1626.4,-76.4778 1636,-72 1625.7,-69.5125 1626.4,-76.4778"/>
</g>
<!-- Node10&#45;&gt;Node5 -->
<g id="edge28" class="edge"><title>Node10&#45;&gt;Node5</title>
<path style="fill:none;stroke:midnightblue;" d="M179,-60C196,-58 213,-57 230,-56 508,-34 845,-16 947,-11"/>
<polygon style="fill:midnightblue;stroke:midnightblue;" points="947,-14.5001 957,-11 947,-7.5001 947,-14.5001"/>
</g>
<!-- Node10&#45;&gt;Node9 -->
<g id="edge26" class="edge"><title>Node10&#45;&gt;Node9</title>
<path style="fill:none;stroke:midnightblue;" d="M128,-56C134,-48 142,-38 149,-28"/>
<polygon style="fill:midnightblue;stroke:midnightblue;" points="151.8,-30.1 155,-20 146.2,-25.9 151.8,-30.1"/>
</g>
<!-- Node12 -->
<g id="node28" class="node"><title>Node12</title>
<polygon style="fill:white;stroke:#bfbfbf;" points="1799,-0 1799,-20 1855,-20 1855,-0 1799,-0"/>
<text text-anchor="middle" x="1827" y="-7" style="font-family:Arial;font-size:10.00;">algorithm</text>
</g>
<!-- Node11&#45;&gt;Node12 -->
<g id="edge32" class="edge"><title>Node11&#45;&gt;Node12</title>
<path style="fill:none;stroke:midnightblue;" d="M1714,-56C1736,-47 1768,-34 1793,-24"/>
<polygon style="fill:midnightblue;stroke:midnightblue;" points="1794.28,-27.2598 1802,-20 1791.44,-20.8631 1794.28,-27.2598"/>
</g>
<!-- Node13 -->
<g id="node30" class="node"><title>Node13</title>
<polygon style="fill:white;stroke:#bfbfbf;" points="1649,-0 1649,-20 1756,-20 1756,-0 1649,-0"/>
<text text-anchor="middle" x="1702" y="-7" style="font-family:Arial;font-size:10.00;">boost/shared_ptr.hpp</text>
</g>
<!-- Node11&#45;&gt;Node13 -->
<g id="edge34" class="edge"><title>Node11&#45;&gt;Node13</title>
<path style="fill:none;stroke:midnightblue;" d="M1691,-56C1693,-49 1695,-39 1698,-30"/>
<polygon style="fill:midnightblue;stroke:midnightblue;" points="1701.47,-30.4922 1700,-20 1694.61,-29.1194 1701.47,-30.4922"/>
</g>
<!-- Node14 -->
<g id="node32" class="node"><title>Node14</title>
<polygon style="fill:white;stroke:#bfbfbf;" points="1441,-0 1441,-20 1632,-20 1632,-0 1441,-0"/>
<text text-anchor="middle" x="1536" y="-7" style="font-family:Arial;font-size:10.00;">boost/smart_ptr/detail/operator_bool.hpp</text>
</g>
<!-- Node11&#45;&gt;Node14 -->
<g id="edge36" class="edge"><title>Node11&#45;&gt;Node14</title>
<path style="fill:none;stroke:midnightblue;" d="M1662,-56C1637,-47 1600,-33 1573,-23"/>
<polygon style="fill:midnightblue;stroke:midnightblue;" points="1573.58,-19.5212 1563,-20 1571.57,-26.2259 1573.58,-19.5212"/>
</g>
<!-- Node15&#45;&gt;Node4 -->
<g id="edge40" class="edge"><title>Node15&#45;&gt;Node4</title>
<path style="fill:none;stroke:midnightblue;" d="M372,-168C404,-148 475,-104 513,-81"/>
<polygon style="fill:midnightblue;stroke:midnightblue;" points="514.958,-83.916 522,-76 511.559,-77.7969 514.958,-83.916"/>
</g>
<!-- Node15&#45;&gt;Node5 -->
<g id="edge42" class="edge"><title>Node15&#45;&gt;Node5</title>
<path style="fill:none;stroke:midnightblue;" d="M363,-168C383,-143 438,-80 501,-56 583,-23 856,-14 947,-10"/>
<polygon style="fill:midnightblue;stroke:midnightblue;" points="947,-13.5001 957,-10 947,-6.5001 947,-13.5001"/>
</g>
<!-- Node15&#45;&gt;Node6 -->
<g id="edge44" class="edge"><title>Node15&#45;&gt;Node6</title>
<path style="fill:none;stroke:midnightblue;" d="M349,-168C338,-149 317,-109 304,-85"/>
<polygon style="fill:midnightblue;stroke:midnightblue;" points="306.916,-83.0418 299,-76 300.797,-86.4414 306.916,-83.0418"/>
</g>
<!-- Node15&#45;&gt;Node7 -->
<g id="edge46" class="edge"><title>Node15&#45;&gt;Node7</title>
<path style="fill:none;stroke:midnightblue;" d="M332,-168C312,-159 283,-146 260,-136"/>
<polygon style="fill:midnightblue;stroke:midnightblue;" points="261.56,-132.863 251,-132 258.717,-139.26 261.56,-132.863"/>
</g>
<!-- Node15&#45;&gt;Node10 -->
<g id="edge48" class="edge"><title>Node15&#45;&gt;Node10</title>
<path style="fill:none;stroke:midnightblue;" d="M304,-173C266,-167 215,-156 177,-132 158,-120 142,-100 131,-85"/>
<polygon style="fill:midnightblue;stroke:midnightblue;" points="133.916,-83.0418 126,-76 127.797,-86.4414 133.916,-83.0418"/>
</g>
<!-- Node15&#45;&gt;Node11 -->
<g id="edge50" class="edge"><title>Node15&#45;&gt;Node11</title>
<path style="fill:none;stroke:midnightblue;" d="M406,-175C449,-173 512,-170 567,-168 777,-159 1309,-186 1513,-132 1531,-127 1533,-119 1551,-112 1581,-99 1616,-87 1643,-79"/>
<polygon style="fill:midnightblue;stroke:midnightblue;" points="1644.43,-82.2259 1653,-76 1642.42,-75.5212 1644.43,-82.2259"/>
</g>
<!-- Node16&#45;&gt;Node4 -->
<g id="edge54" class="edge"><title>Node16&#45;&gt;Node4</title>
<path style="fill:none;stroke:midnightblue;" d="M192,-168C263,-147 425,-100 500,-78"/>
<polygon style="fill:midnightblue;stroke:midnightblue;" points="501.427,-81.2259 510,-75 499.416,-74.5212 501.427,-81.2259"/>
</g>
<!-- Node16&#45;&gt;Node5 -->
<g id="edge56" class="edge"><title>Node16&#45;&gt;Node5</title>
<path style="fill:none;stroke:midnightblue;" d="M138,-168C98,-147 15,-95 53,-56 85,-22 790,-12 947,-10"/>
<polygon style="fill:midnightblue;stroke:midnightblue;" points="947,-13.5001 957,-10 947,-6.5001 947,-13.5001"/>
</g>
<!-- Node16&#45;&gt;Node6 -->
<g id="edge58" class="edge"><title>Node16&#45;&gt;Node6</title>
<path style="fill:none;stroke:midnightblue;" d="M158,-168C159,-153 162,-127 177,-112 199,-87 236,-76 262,-70"/>
<polygon style="fill:midnightblue;stroke:midnightblue;" points="262.881,-73.3933 272,-68 261.508,-66.5292 262.881,-73.3933"/>
</g>
<!-- Node16&#45;&gt;Node7 -->
<g id="edge60" class="edge"><title>Node16&#45;&gt;Node7</title>
<path style="fill:none;stroke:midnightblue;" d="M171,-168C181,-160 196,-149 207,-139"/>
<polygon style="fill:midnightblue;stroke:midnightblue;" points="209.779,-141.219 215,-132 205.169,-135.951 209.779,-141.219"/>
</g>
<!-- Node16&#45;&gt;Node10 -->
<g id="edge62" class="edge"><title>Node16&#45;&gt;Node10</title>
<path style="fill:none;stroke:midnightblue;" d="M141,-168C128,-160 113,-148 106,-132 100,-117 104,-99 110,-85"/>
<polygon style="fill:midnightblue;stroke:midnightblue;" points="113.137,-86.5596 114,-76 106.74,-83.7166 113.137,-86.5596"/>
</g>
<!-- Node16&#45;&gt;Node11 -->
<g id="edge64" class="edge"><title>Node16&#45;&gt;Node11</title>
<path style="fill:none;stroke:midnightblue;" d="M210,-174C236,-172 267,-169 295,-168 787,-142 915,-195 1404,-132 1449,-125 1571,-96 1640,-78"/>
<polygon style="fill:midnightblue;stroke:midnightblue;" points="1640.88,-81.3933 1650,-76 1639.51,-74.5292 1640.88,-81.3933"/>
</g>
<!-- Node17&#45;&gt;Node5 -->
<g id="edge70" class="edge"><title>Node17&#45;&gt;Node5</title>
<path style="fill:none;stroke:midnightblue;" d="M673,-228C739,-219 849,-195 920,-132 951,-105 966,-57 973,-30"/>
<polygon style="fill:midnightblue;stroke:midnightblue;" points="976.471,-30.4922 975,-20 969.607,-29.1194 976.471,-30.4922"/>
</g>
<!-- Node17&#45;&gt;Node6 -->
<g id="edge72" class="edge"><title>Node17&#45;&gt;Node6</title>
<path style="fill:none;stroke:midnightblue;" d="M603,-224C587,-214 564,-200 545,-188 491,-154 482,-139 426,-112 420,-109 361,-89 323,-76"/>
<polygon style="fill:midnightblue;stroke:midnightblue;" points="324.594,-72.842 314,-73 322.38,-79.4827 324.594,-72.842"/>
</g>
<!-- Node17&#45;&gt;Node8 -->
<g id="edge68" class="edge"><title>Node17&#45;&gt;Node8</title>
<path style="fill:none;stroke:midnightblue;" d="M606,-224C595,-215 579,-201 567,-188 535,-156 539,-136 502,-112 462,-87 409,-75 377,-69"/>
<polygon style="fill:midnightblue;stroke:midnightblue;" points="377.299,-65.5125 367,-68 376.602,-72.4778 377.299,-65.5125"/>
</g>
<!-- Node17&#45;&gt;Node11 -->
<g id="edge98" class="edge"><title>Node17&#45;&gt;Node11</title>
<path style="fill:none;stroke:midnightblue;" d="M673,-233C882,-231 1626,-220 1665,-188 1693,-163 1694,-114 1692,-86"/>
<polygon style="fill:midnightblue;stroke:midnightblue;" points="1695.48,-85.6021 1691,-76 1688.51,-86.2987 1695.48,-85.6021"/>
</g>
<!-- Node18 -->
<g id="node55" class="node"><title>Node18</title>
<a xlink:href="parameterized_8h.html" target="_top" xlink:title="ltr/interfaces/parameterized.h">
<polygon style="fill:white;stroke:black;" points="576,-168 576,-188 718,-188 718,-168 576,-168"/>
<text text-anchor="middle" x="647" y="-175" style="font-family:Arial;font-size:10.00;">ltr/interfaces/parameterized.h</text>
</a>
</g>
<!-- Node17&#45;&gt;Node18 -->
<g id="edge74" class="edge"><title>Node17&#45;&gt;Node18</title>
<path style="fill:none;stroke:midnightblue;" d="M624,-224C628,-217 633,-206 638,-197"/>
<polygon style="fill:midnightblue;stroke:midnightblue;" points="641.137,-198.56 642,-188 634.74,-195.717 641.137,-198.56"/>
</g>
<!-- Node18&#45;&gt;Node4 -->
<g id="edge76" class="edge"><title>Node18&#45;&gt;Node4</title>
<path style="fill:none;stroke:midnightblue;" d="M637,-168C618,-148 578,-107 556,-83"/>
<polygon style="fill:midnightblue;stroke:midnightblue;" points="558.546,-80.5962 549,-76 553.596,-85.546 558.546,-80.5962"/>
</g>
<!-- Node18&#45;&gt;Node5 -->
<g id="edge78" class="edge"><title>Node18&#45;&gt;Node5</title>
<path style="fill:none;stroke:midnightblue;" d="M718,-172C783,-165 872,-152 901,-132 932,-109 923,-88 944,-56 950,-46 957,-36 963,-28"/>
<polygon style="fill:midnightblue;stroke:midnightblue;" points="965.8,-30.1 969,-20 960.2,-25.9 965.8,-30.1"/>
</g>
<!-- Node19 -->
<g id="node59" class="node"><title>Node19</title>
<a xlink:href="parameters__container_8h.html" target="_top" xlink:title="ltr/parameters_container/parameters_container.h">
<polygon style="fill:white;stroke:black;" points="668,-112 668,-132 893,-132 893,-112 668,-112"/>
<text text-anchor="middle" x="780" y="-119" style="font-family:Arial;font-size:10.00;">ltr/parameters_container/parameters_container.h</text>
</a>
</g>
<!-- Node18&#45;&gt;Node19 -->
<g id="edge80" class="edge"><title>Node18&#45;&gt;Node19</title>
<path style="fill:none;stroke:midnightblue;" d="M671,-168C692,-159 723,-146 747,-136"/>
<polygon style="fill:midnightblue;stroke:midnightblue;" points="748.283,-139.26 756,-132 745.44,-132.863 748.283,-139.26"/>
</g>
<!-- Node19&#45;&gt;Node4 -->
<g id="edge86" class="edge"><title>Node19&#45;&gt;Node4</title>
<path style="fill:none;stroke:midnightblue;" d="M734,-112C695,-103 637,-90 579,-76"/>
<polygon style="fill:midnightblue;stroke:midnightblue;" points="579.492,-72.5292 569,-74 578.119,-79.3933 579.492,-72.5292"/>
</g>
<!-- Node19&#45;&gt;Node5 -->
<g id="edge88" class="edge"><title>Node19&#45;&gt;Node5</title>
<path style="fill:none;stroke:midnightblue;" d="M798,-112C815,-102 841,-88 863,-76 893,-58 927,-39 950,-25"/>
<polygon style="fill:midnightblue;stroke:midnightblue;" points="951.958,-27.916 959,-20 948.559,-21.7969 951.958,-27.916"/>
</g>
<!-- Node19&#45;&gt;Node10 -->
<g id="edge96" class="edge"><title>Node19&#45;&gt;Node10</title>
<path style="fill:none;stroke:midnightblue;" d="M668,-112C530,-100 303,-81 189,-72"/>
<polygon style="fill:midnightblue;stroke:midnightblue;" points="189.299,-68.5125 179,-71 188.602,-75.4778 189.299,-68.5125"/>
</g>
<!-- Node19&#45;&gt;Node11 -->
<g id="edge94" class="edge"><title>Node19&#45;&gt;Node11</title>
<path style="fill:none;stroke:midnightblue;" d="M893,-117C1049,-110 1340,-95 1589,-76 1601,-75 1614,-74 1626,-72"/>
<polygon style="fill:midnightblue;stroke:midnightblue;" points="1626.4,-75.4778 1636,-71 1625.7,-68.5125 1626.4,-75.4778"/>
</g>
<!-- Node20 -->
<g id="node61" class="node"><title>Node20</title>
<polygon style="fill:white;stroke:#bfbfbf;" points="1100,-56 1100,-76 1174,-76 1174,-56 1100,-56"/>
<text text-anchor="middle" x="1137" y="-63" style="font-family:Arial;font-size:10.00;">logog/logog.h</text>
</g>
<!-- Node19&#45;&gt;Node20 -->
<g id="edge82" class="edge"><title>Node19&#45;&gt;Node20</title>
<path style="fill:none;stroke:midnightblue;" d="M844,-112C915,-101 1026,-83 1090,-74"/>
<polygon style="fill:midnightblue;stroke:midnightblue;" points="1090.88,-77.3933 1100,-72 1089.51,-70.5292 1090.88,-77.3933"/>
</g>
<!-- Node21 -->
<g id="node63" class="node"><title>Node21</title>
<polygon style="fill:white;stroke:#bfbfbf;" points="586,-56 586,-76 615,-76 615,-56 586,-56"/>
<text text-anchor="middle" x="600" y="-63" style="font-family:Arial;font-size:10.00;">list</text>
</g>
<!-- Node19&#45;&gt;Node21 -->
<g id="edge84" class="edge"><title>Node19&#45;&gt;Node21</title>
<path style="fill:none;stroke:midnightblue;" d="M741,-112C711,-104 669,-92 625,-76"/>
<polygon style="fill:midnightblue;stroke:midnightblue;" points="625.584,-72.5212 615,-73 623.573,-79.2259 625.584,-72.5212"/>
</g>
<!-- Node22 -->
<g id="node67" class="node"><title>Node22</title>
<polygon style="fill:white;stroke:#bfbfbf;" points="632,-56 632,-76 709,-76 709,-56 632,-56"/>
<text text-anchor="middle" x="670" y="-63" style="font-family:Arial;font-size:10.00;">boost/any.hpp</text>
</g>
<!-- Node19&#45;&gt;Node22 -->
<g id="edge90" class="edge"><title>Node19&#45;&gt;Node22</title>
<path style="fill:none;stroke:midnightblue;" d="M760,-112C744,-103 718,-90 699,-81"/>
<polygon style="fill:midnightblue;stroke:midnightblue;" points="700.441,-77.7969 690,-76 697.042,-83.916 700.441,-77.7969"/>
</g>
<!-- Node23 -->
<g id="node69" class="node"><title>Node23</title>
<polygon style="fill:white;stroke:#bfbfbf;" points="726,-56 726,-76 855,-76 855,-56 726,-56"/>
<text text-anchor="middle" x="790" y="-63" style="font-family:Arial;font-size:10.00;">boost/unordered_map.hpp</text>
</g>
<!-- Node19&#45;&gt;Node23 -->
<g id="edge92" class="edge"><title>Node19&#45;&gt;Node23</title>
<path style="fill:none;stroke:midnightblue;" d="M782,-112C783,-105 785,-95 787,-86"/>
<polygon style="fill:midnightblue;stroke:midnightblue;" points="790.488,-86.2987 788,-76 783.522,-85.6021 790.488,-86.2987"/>
</g>
<!-- Node24&#45;&gt;Node7 -->
<g id="edge102" class="edge"><title>Node24&#45;&gt;Node7</title>
<path style="fill:none;stroke:midnightblue;" d="M323,-224C305,-204 267,-163 245,-139"/>
<polygon style="fill:midnightblue;stroke:midnightblue;" points="247.546,-136.596 238,-132 242.596,-141.546 247.546,-136.596"/>
</g>
<!-- Node24&#45;&gt;Node11 -->
<g id="edge110" class="edge"><title>Node24&#45;&gt;Node11</title>
<path style="fill:none;stroke:midnightblue;" d="M407,-231C451,-229 507,-226 557,-224 668,-219 1460,-231 1563,-188 1613,-166 1656,-113 1676,-85"/>
<polygon style="fill:midnightblue;stroke:midnightblue;" points="1679.37,-86.262 1682,-76 1673.54,-82.3791 1679.37,-86.262"/>
</g>
<!-- Node24&#45;&gt;Node15 -->
<g id="edge106" class="edge"><title>Node24&#45;&gt;Node15</title>
<path style="fill:none;stroke:midnightblue;" d="M337,-224C340,-217 344,-207 347,-197"/>
<polygon style="fill:midnightblue;stroke:midnightblue;" points="350.137,-198.56 351,-188 343.74,-195.717 350.137,-198.56"/>
</g>
<!-- Node24&#45;&gt;Node16 -->
<g id="edge104" class="edge"><title>Node24&#45;&gt;Node16</title>
<path style="fill:none;stroke:midnightblue;" d="M302,-224C273,-215 230,-201 199,-191"/>
<polygon style="fill:midnightblue;stroke:midnightblue;" points="199.584,-187.521 189,-188 197.573,-194.226 199.584,-187.521"/>
</g>
<!-- Node24&#45;&gt;Node18 -->
<g id="edge108" class="edge"><title>Node24&#45;&gt;Node18</title>
<path style="fill:none;stroke:midnightblue;" d="M389,-224C443,-215 524,-200 581,-190"/>
<polygon style="fill:midnightblue;stroke:midnightblue;" points="581.881,-193.393 591,-188 580.508,-186.529 581.881,-193.393"/>
</g>
<!-- Node25&#45;&gt;Node5 -->
<g id="edge114" class="edge"><title>Node25&#45;&gt;Node5</title>
<path style="fill:none;stroke:midnightblue;" d="M1230,-56C1165,-44 1059,-25 1007,-16"/>
<polygon style="fill:midnightblue;stroke:midnightblue;" points="1007.49,-12.5292 997,-14 1006.12,-19.3933 1007.49,-12.5292"/>
</g>
<!-- Node26&#45;&gt;Node5 -->
<g id="edge118" class="edge"><title>Node26&#45;&gt;Node5</title>
<path style="fill:none;stroke:midnightblue;" d="M1122,-336C1112,-327 1099,-313 1091,-300 1031,-201 1051,-160 1003,-56 999,-47 993,-37 988,-29"/>
<polygon style="fill:midnightblue;stroke:midnightblue;" points="990.916,-27.0418 983,-20 984.797,-30.4414 990.916,-27.0418"/>
</g>
<!-- Node27 -->
<g id="node87" class="node"><title>Node27</title>
<a xlink:href="vertex_8h.html" target="_top" xlink:title="ltr/learners/decision_tree/vertex/vertex.h">
<polygon style="fill:white;stroke:black;" points="1100,-280 1100,-300 1288,-300 1288,-280 1100,-280"/>
<text text-anchor="middle" x="1194" y="-287" style="font-family:Arial;font-size:10.00;">ltr/learners/decision_tree/vertex/vertex.h</text>
</a>
</g>
<!-- Node26&#45;&gt;Node27 -->
<g id="edge120" class="edge"><title>Node26&#45;&gt;Node27</title>
<path style="fill:none;stroke:midnightblue;" d="M1144,-336C1153,-328 1165,-317 1176,-307"/>
<polygon style="fill:midnightblue;stroke:midnightblue;" points="1178.4,-309.546 1183,-300 1173.45,-304.596 1178.4,-309.546"/>
</g>
<!-- Node27&#45;&gt;Node4 -->
<g id="edge128" class="edge"><title>Node27&#45;&gt;Node4</title>
<path style="fill:none;stroke:midnightblue;" d="M1148,-280C1054,-259 833,-205 659,-132 624,-117 587,-96 564,-81"/>
<polygon style="fill:midnightblue;stroke:midnightblue;" points="565.441,-77.7969 555,-76 562.042,-83.916 565.441,-77.7969"/>
</g>
<!-- Node27&#45;&gt;Node5 -->
<g id="edge122" class="edge"><title>Node27&#45;&gt;Node5</title>
<path style="fill:none;stroke:midnightblue;" d="M1188,-280C1166,-240 1084,-93 1048,-56 1036,-44 1020,-33 1006,-25"/>
<polygon style="fill:midnightblue;stroke:midnightblue;" points="1007.44,-21.7969 997,-20 1004.04,-27.916 1007.44,-21.7969"/>
</g>
<!-- Node27&#45;&gt;Node6 -->
<g id="edge124" class="edge"><title>Node27&#45;&gt;Node6</title>
<path style="fill:none;stroke:midnightblue;" d="M1100,-286C935,-278 607,-261 557,-244 453,-208 351,-120 310,-83"/>
<polygon style="fill:midnightblue;stroke:midnightblue;" points="312.546,-80.5962 303,-76 307.596,-85.546 312.546,-80.5962"/>
</g>
<!-- Node27&#45;&gt;Node11 -->
<g id="edge170" class="edge"><title>Node27&#45;&gt;Node11</title>
<path style="fill:none;stroke:midnightblue;" d="M1288,-286C1425,-278 1667,-254 1719,-188 1740,-161 1734,-144 1724,-112 1720,-102 1713,-92 1707,-84"/>
<polygon style="fill:midnightblue;stroke:midnightblue;" points="1709.22,-81.221 1700,-76 1703.95,-85.8306 1709.22,-81.221"/>
</g>
<!-- Node27&#45;&gt;Node12 -->
<g id="edge126" class="edge"><title>Node27&#45;&gt;Node12</title>
<path style="fill:none;stroke:midnightblue;" d="M1288,-283C1468,-269 1841,-233 1841,-178 1841,-178 1841,-178 1841,-122 1841,-90 1835,-52 1831,-30"/>
<polygon style="fill:midnightblue;stroke:midnightblue;" points="1834.39,-29.1194 1829,-20 1827.53,-30.4922 1834.39,-29.1194"/>
</g>
<!-- Node27&#45;&gt;Node20 -->
<g id="edge130" class="edge"><title>Node27&#45;&gt;Node20</title>
<path style="fill:none;stroke:midnightblue;" d="M1191,-280C1186,-261 1175,-221 1167,-188 1157,-152 1147,-110 1141,-86"/>
<polygon style="fill:midnightblue;stroke:midnightblue;" points="1144.39,-85.1194 1139,-76 1137.53,-86.4922 1144.39,-85.1194"/>
</g>
<!-- Node28 -->
<g id="node94" class="node"><title>Node28</title>
<a xlink:href="serializable__functor_8h.html" target="_top" xlink:title="ltr/interfaces/serializable_functor.h">
<polygon style="fill:white;stroke:black;" points="1378,-224 1378,-244 1541,-244 1541,-224 1378,-224"/>
<text text-anchor="middle" x="1459" y="-231" style="font-family:Arial;font-size:10.00;">ltr/interfaces/serializable_functor.h</text>
</a>
</g>
<!-- Node27&#45;&gt;Node28 -->
<g id="edge132" class="edge"><title>Node27&#45;&gt;Node28</title>
<path style="fill:none;stroke:midnightblue;" d="M1241,-280C1287,-271 1354,-256 1402,-246"/>
<polygon style="fill:midnightblue;stroke:midnightblue;" points="1402.88,-249.393 1412,-244 1401.51,-242.529 1402.88,-249.393"/>
</g>
<!-- Node33 -->
<g id="node113" class="node"><title>Node33</title>
<a xlink:href="condition_8h.html" target="_top" xlink:title="ltr/learners/decision_tree/condition/condition.h">
<polygon style="fill:white;stroke:black;" points="1176,-168 1176,-188 1391,-188 1391,-168 1176,-168"/>
<text text-anchor="middle" x="1283" y="-175" style="font-family:Arial;font-size:10.00;">ltr/learners/decision_tree/condition/condition.h</text>
</a>
</g>
<!-- Node27&#45;&gt;Node33 -->
<g id="edge160" class="edge"><title>Node27&#45;&gt;Node33</title>
<path style="fill:none;stroke:midnightblue;" d="M1202,-280C1217,-260 1250,-220 1269,-196"/>
<polygon style="fill:midnightblue;stroke:midnightblue;" points="1271.8,-198.1 1275,-188 1266.2,-193.9 1271.8,-198.1"/>
</g>
<!-- Node28&#45;&gt;Node11 -->
<g id="edge134" class="edge"><title>Node28&#45;&gt;Node11</title>
<path style="fill:none;stroke:midnightblue;" d="M1541,-229C1604,-224 1682,-212 1703,-188 1727,-158 1711,-112 1699,-85"/>
<polygon style="fill:midnightblue;stroke:midnightblue;" points="1702.26,-83.7166 1695,-76 1695.86,-86.5596 1702.26,-83.7166"/>
</g>
<!-- Node29 -->
<g id="node97" class="node"><title>Node29</title>
<a xlink:href="functor_8h.html" target="_top" xlink:title="ltr/interfaces/functor.h">
<polygon style="fill:white;stroke:black;" points="1446,-168 1446,-188 1555,-188 1555,-168 1446,-168"/>
<text text-anchor="middle" x="1500" y="-175" style="font-family:Arial;font-size:10.00;">ltr/interfaces/functor.h</text>
</a>
</g>
<!-- Node28&#45;&gt;Node29 -->
<g id="edge136" class="edge"><title>Node28&#45;&gt;Node29</title>
<path style="fill:none;stroke:midnightblue;" d="M1466,-224C1472,-216 1480,-206 1486,-197"/>
<polygon style="fill:midnightblue;stroke:midnightblue;" points="1489.37,-198.262 1492,-188 1483.54,-194.379 1489.37,-198.262"/>
</g>
<!-- Node31 -->
<g id="node104" class="node"><title>Node31</title>
<a xlink:href="serializable_8h.html" target="_top" xlink:title="ltr/interfaces/serializable.h">
<polygon style="fill:white;stroke:black;" points="1267,-112 1267,-132 1396,-132 1396,-112 1267,-112"/>
<text text-anchor="middle" x="1331" y="-119" style="font-family:Arial;font-size:10.00;">ltr/interfaces/serializable.h</text>
</a>
</g>
<!-- Node28&#45;&gt;Node31 -->
<g id="edge146" class="edge"><title>Node28&#45;&gt;Node31</title>
<path style="fill:none;stroke:midnightblue;" d="M1451,-224C1440,-210 1419,-185 1399,-168 1386,-157 1370,-146 1357,-137"/>
<polygon style="fill:midnightblue;stroke:midnightblue;" points="1358.44,-133.797 1348,-132 1355.04,-139.916 1358.44,-133.797"/>
</g>
<!-- Node29&#45;&gt;Node5 -->
<g id="edge142" class="edge"><title>Node29&#45;&gt;Node5</title>
<path style="fill:none;stroke:midnightblue;" d="M1511,-168C1539,-142 1607,-75 1589,-56 1569,-35 1128,-16 1007,-11"/>
<polygon style="fill:midnightblue;stroke:midnightblue;" points="1007,-7.5001 997,-11 1007,-14.5001 1007,-7.5001"/>
</g>
<!-- Node29&#45;&gt;Node7 -->
<g id="edge144" class="edge"><title>Node29&#45;&gt;Node7</title>
<path style="fill:none;stroke:midnightblue;" d="M1446,-172C1431,-170 1414,-169 1399,-168 967,-138 445,-126 280,-123"/>
<polygon style="fill:midnightblue;stroke:midnightblue;" points="280,-119.5 270,-123 280,-126.5 280,-119.5"/>
</g>
<!-- Node29&#45;&gt;Node11 -->
<g id="edge138" class="edge"><title>Node29&#45;&gt;Node11</title>
<path style="fill:none;stroke:midnightblue;" d="M1521,-168C1539,-159 1566,-145 1589,-132 1616,-116 1646,-95 1667,-82"/>
<polygon style="fill:midnightblue;stroke:midnightblue;" points="1669.1,-84.8 1675,-76 1664.9,-79.2 1669.1,-84.8"/>
</g>
<!-- Node30 -->
<g id="node100" class="node"><title>Node30</title>
<polygon style="fill:white;stroke:#bfbfbf;" points="1466,-56 1466,-76 1580,-76 1580,-56 1466,-56"/>
<text text-anchor="middle" x="1523" y="-63" style="font-family:Arial;font-size:10.00;">boost/lexical_cast.hpp</text>
</g>
<!-- Node29&#45;&gt;Node30 -->
<g id="edge140" class="edge"><title>Node29&#45;&gt;Node30</title>
<path style="fill:none;stroke:midnightblue;" d="M1482,-168C1462,-155 1434,-133 1447,-112 1454,-98 1468,-87 1483,-80"/>
<polygon style="fill:midnightblue;stroke:midnightblue;" points="1484.28,-83.2598 1492,-76 1481.44,-76.8631 1484.28,-83.2598"/>
</g>
<!-- Node31&#45;&gt;Node5 -->
<g id="edge152" class="edge"><title>Node31&#45;&gt;Node5</title>
<path style="fill:none;stroke:midnightblue;" d="M1338,-112C1347,-97 1360,-71 1347,-56 1324,-30 1092,-16 1007,-12"/>
<polygon style="fill:midnightblue;stroke:midnightblue;" points="1007.3,-8.5125 997,-11 1006.6,-15.4778 1007.3,-8.5125"/>
</g>
<!-- Node31&#45;&gt;Node11 -->
<g id="edge156" class="edge"><title>Node31&#45;&gt;Node11</title>
<path style="fill:none;stroke:midnightblue;" d="M1395,-112C1460,-102 1561,-86 1626,-76"/>
<polygon style="fill:midnightblue;stroke:midnightblue;" points="1626.88,-79.3933 1636,-74 1625.51,-72.5292 1626.88,-79.3933"/>
</g>
<!-- Node31&#45;&gt;Node20 -->
<g id="edge150" class="edge"><title>Node31&#45;&gt;Node20</title>
<path style="fill:none;stroke:midnightblue;" d="M1296,-112C1264,-103 1217,-89 1182,-79"/>
<polygon style="fill:midnightblue;stroke:midnightblue;" points="1182.58,-75.5212 1172,-76 1180.57,-82.2259 1182.58,-75.5212"/>
</g>
<!-- Node31&#45;&gt;Node25 -->
<g id="edge158" class="edge"><title>Node31&#45;&gt;Node25</title>
<path style="fill:none;stroke:midnightblue;" d="M1323,-112C1316,-104 1307,-94 1299,-84"/>
<polygon style="fill:midnightblue;stroke:midnightblue;" points="1301.8,-81.9 1293,-76 1296.2,-86.1 1301.8,-81.9"/>
</g>
<!-- Node31&#45;&gt;Node30 -->
<g id="edge148" class="edge"><title>Node31&#45;&gt;Node30</title>
<path style="fill:none;stroke:midnightblue;" d="M1365,-112C1397,-103 1444,-89 1479,-79"/>
<polygon style="fill:midnightblue;stroke:midnightblue;" points="1480.43,-82.2259 1489,-76 1478.42,-75.5212 1480.43,-82.2259"/>
</g>
<!-- Node32 -->
<g id="node109" class="node"><title>Node32</title>
<polygon style="fill:white;stroke:#bfbfbf;" points="1394,-56 1394,-76 1448,-76 1448,-56 1394,-56"/>
<text text-anchor="middle" x="1421" y="-63" style="font-family:Arial;font-size:10.00;">iostream</text>
</g>
<!-- Node31&#45;&gt;Node32 -->
<g id="edge154" class="edge"><title>Node31&#45;&gt;Node32</title>
<path style="fill:none;stroke:midnightblue;" d="M1347,-112C1360,-104 1380,-91 1396,-81"/>
<polygon style="fill:midnightblue;stroke:midnightblue;" points="1397.96,-83.916 1405,-76 1394.56,-77.7969 1397.96,-83.916"/>
</g>
<!-- Node33&#45;&gt;Node5 -->
<g id="edge162" class="edge"><title>Node33&#45;&gt;Node5</title>
<path style="fill:none;stroke:midnightblue;" d="M1278,-168C1265,-144 1230,-84 1183,-56 1154,-37 1057,-21 1007,-14"/>
<polygon style="fill:midnightblue;stroke:midnightblue;" points="1007.3,-10.5125 997,-13 1006.6,-17.4778 1007.3,-10.5125"/>
</g>
<!-- Node33&#45;&gt;Node7 -->
<g id="edge164" class="edge"><title>Node33&#45;&gt;Node7</title>
<path style="fill:none;stroke:midnightblue;" d="M1176,-172C952,-160 444,-133 280,-125"/>
<polygon style="fill:midnightblue;stroke:midnightblue;" points="280.299,-121.512 270,-124 279.602,-128.478 280.299,-121.512"/>
</g>
<!-- Node33&#45;&gt;Node11 -->
<g id="edge168" class="edge"><title>Node33&#45;&gt;Node11</title>
<path style="fill:none;stroke:midnightblue;" d="M1384,-168C1435,-161 1497,-150 1551,-132 1569,-125 1571,-120 1589,-112 1611,-101 1637,-89 1657,-80"/>
<polygon style="fill:midnightblue;stroke:midnightblue;" points="1658.28,-83.2598 1666,-76 1655.44,-76.8631 1658.28,-83.2598"/>
</g>
<!-- Node33&#45;&gt;Node31 -->
<g id="edge166" class="edge"><title>Node33&#45;&gt;Node31</title>
<path style="fill:none;stroke:midnightblue;" d="M1292,-168C1298,-160 1308,-149 1316,-140"/>
<polygon style="fill:midnightblue;stroke:midnightblue;" points="1318.8,-142.1 1322,-132 1313.2,-137.9 1318.8,-142.1"/>
</g>
</g>
</svg>
