<?xml version="1.0" encoding="UTF-8" standalone="no"?>
<!DOCTYPE svg PUBLIC "-//W3C//DTD SVG 1.0//EN"
 "http://www.w3.org/TR/2001/REC-SVG-20010904/DTD/svg10.dtd" [
 <!ATTLIST svg xmlns:xlink CDATA #FIXED "http://www.w3.org/1999/xlink">
]>
<!-- Generated by Graphviz version 2.20.2 (Tue Mar &#160;2 19:03:41 UTC 2010)
     For user: (jenkins)  -->
<!-- Title: G Pages: 1 -->
<svg width="1944pt" height="140pt"
 viewBox="0.00 0.00 1944.00 140.00" xmlns="http://www.w3.org/2000/svg" xmlns:xlink="http://www.w3.org/1999/xlink">
<g id="graph0" class="graph" transform="scale(1 1) rotate(0) translate(4 136)">
<title>G</title>
<polygon style="fill:white;stroke:white;" points="-4,4 -4,-136 1940,-136 1940,4 -4,4"/>
<!-- Node1 -->
<g id="node1" class="node"><title>Node1</title>
<polygon style="fill:#bfbfbf;stroke:black;" points="702,-112 702,-132 852,-132 852,-112 702,-112"/>
<text text-anchor="middle" x="777" y="-119" style="font-family:Arial;font-size:10.00;">ltr/learners/learners_unittest.cc</text>
</g>
<!-- Node2 -->
<g id="node3" class="node"><title>Node2</title>
<polygon style="fill:white;stroke:#bfbfbf;" points="90,-56 90,-76 161,-76 161,-56 90,-56"/>
<text text-anchor="middle" x="125" y="-63" style="font-family:Arial;font-size:10.00;">gtest/gtest.h</text>
</g>
<!-- Node1&#45;&gt;Node2 -->
<g id="edge2" class="edge"><title>Node1&#45;&gt;Node2</title>
<path style="fill:none;stroke:midnightblue;" d="M702,-120C588,-116 367,-104 171,-76"/>
<polygon style="fill:midnightblue;stroke:midnightblue;" points="171.299,-72.5125 161,-75 170.602,-79.4778 171.299,-72.5125"/>
</g>
<!-- Node3 -->
<g id="node5" class="node"><title>Node3</title>
<polygon style="fill:white;stroke:#bfbfbf;" points="178,-56 178,-76 284,-76 284,-56 178,-56"/>
<text text-anchor="middle" x="231" y="-63" style="font-family:Arial;font-size:10.00;">boost/filesystem.hpp</text>
</g>
<!-- Node1&#45;&gt;Node3 -->
<g id="edge4" class="edge"><title>Node1&#45;&gt;Node3</title>
<path style="fill:none;stroke:midnightblue;" d="M702,-116C608,-109 445,-95 294,-76"/>
<polygon style="fill:midnightblue;stroke:midnightblue;" points="294.299,-72.5125 284,-75 293.602,-79.4778 294.299,-72.5125"/>
</g>
<!-- Node4 -->
<g id="node7" class="node"><title>Node4</title>
<polygon style="fill:white;stroke:#bfbfbf;" points="478,-0 478,-20 520,-20 520,-0 478,-0"/>
<text text-anchor="middle" x="499" y="-7" style="font-family:Arial;font-size:10.00;">vector</text>
</g>
<!-- Node1&#45;&gt;Node4 -->
<g id="edge6" class="edge"><title>Node1&#45;&gt;Node4</title>
<path style="fill:none;stroke:midnightblue;" d="M709,-112C672,-105 626,-94 588,-76 561,-63 534,-42 517,-27"/>
<polygon style="fill:midnightblue;stroke:midnightblue;" points="519.546,-24.5962 510,-20 514.596,-29.546 519.546,-24.5962"/>
</g>
<!-- Node5 -->
<g id="node9" class="node"><title>Node5</title>
<polygon style="fill:white;stroke:#bfbfbf;" points="782,-56 782,-76 821,-76 821,-56 782,-56"/>
<text text-anchor="middle" x="801" y="-63" style="font-family:Arial;font-size:10.00;">limits</text>
</g>
<!-- Node1&#45;&gt;Node5 -->
<g id="edge8" class="edge"><title>Node1&#45;&gt;Node5</title>
<path style="fill:none;stroke:midnightblue;" d="M781,-112C784,-105 789,-94 793,-85"/>
<polygon style="fill:midnightblue;stroke:midnightblue;" points="796.137,-86.5596 797,-76 789.74,-83.7166 796.137,-86.5596"/>
</g>
<!-- Node6 -->
<g id="node11" class="node"><title>Node6</title>
<polygon style="fill:white;stroke:#bfbfbf;" points="538,-0 538,-20 578,-20 578,-0 538,-0"/>
<text text-anchor="middle" x="558" y="-7" style="font-family:Arial;font-size:10.00;">string</text>
</g>
<!-- Node1&#45;&gt;Node6 -->
<g id="edge10" class="edge"><title>Node1&#45;&gt;Node6</title>
<path style="fill:none;stroke:midnightblue;" d="M710,-112C679,-105 643,-94 615,-76 596,-64 580,-44 569,-29"/>
<polygon style="fill:midnightblue;stroke:midnightblue;" points="571.916,-27.0418 564,-20 565.797,-30.4414 571.916,-27.0418"/>
</g>
<!-- Node7 -->
<g id="node13" class="node"><title>Node7</title>
<polygon style="fill:white;stroke:#bfbfbf;" points="838,-56 838,-76 922,-76 922,-56 838,-56"/>
<text text-anchor="middle" x="880" y="-63" style="font-family:Arial;font-size:10.00;">ltr/data/object.h</text>
</g>
<!-- Node1&#45;&gt;Node7 -->
<g id="edge12" class="edge"><title>Node1&#45;&gt;Node7</title>
<path style="fill:none;stroke:midnightblue;" d="M795,-112C811,-104 834,-91 852,-81"/>
<polygon style="fill:midnightblue;stroke:midnightblue;" points="853.958,-83.916 861,-76 850.559,-77.7969 853.958,-83.916"/>
</g>
<!-- Node8 -->
<g id="node15" class="node"><title>Node8</title>
<polygon style="fill:white;stroke:#bfbfbf;" points="940,-56 940,-76 1191,-76 1191,-56 940,-56"/>
<text text-anchor="middle" x="1065" y="-63" style="font-family:Arial;font-size:10.00;">ltr/learners/best_feature_learner/best_feature_learner.h</text>
</g>
<!-- Node1&#45;&gt;Node8 -->
<g id="edge14" class="edge"><title>Node1&#45;&gt;Node8</title>
<path style="fill:none;stroke:midnightblue;" d="M828,-112C877,-103 951,-88 1003,-78"/>
<polygon style="fill:midnightblue;stroke:midnightblue;" points="1003.88,-81.3933 1013,-76 1002.51,-74.5292 1003.88,-81.3933"/>
</g>
<!-- Node9 -->
<g id="node17" class="node"><title>Node9</title>
<polygon style="fill:white;stroke:#bfbfbf;" points="1208,-56 1208,-76 1328,-76 1328,-56 1208,-56"/>
<text text-anchor="middle" x="1268" y="-63" style="font-family:Arial;font-size:10.00;">ltr/scorers/fake_scorer.h</text>
</g>
<!-- Node1&#45;&gt;Node9 -->
<g id="edge16" class="edge"><title>Node1&#45;&gt;Node9</title>
<path style="fill:none;stroke:midnightblue;" d="M852,-114C935,-106 1070,-92 1198,-76"/>
<polygon style="fill:midnightblue;stroke:midnightblue;" points="1198.4,-79.4778 1208,-75 1197.7,-72.5125 1198.4,-79.4778"/>
</g>
<!-- Node10 -->
<g id="node19" class="node"><title>Node10</title>
<polygon style="fill:white;stroke:#bfbfbf;" points="1346,-56 1346,-76 1467,-76 1467,-56 1346,-56"/>
<text text-anchor="middle" x="1406" y="-63" style="font-family:Arial;font-size:10.00;">ltr/measures/abs_error.h</text>
</g>
<!-- Node1&#45;&gt;Node10 -->
<g id="edge18" class="edge"><title>Node1&#45;&gt;Node10</title>
<path style="fill:none;stroke:midnightblue;" d="M852,-117C958,-110 1156,-97 1336,-76"/>
<polygon style="fill:midnightblue;stroke:midnightblue;" points="1336.4,-79.4778 1346,-75 1335.7,-72.5125 1336.4,-79.4778"/>
</g>
<!-- Node11 -->
<g id="node21" class="node"><title>Node11</title>
<a xlink:href="ndcg_8h.html" target="_top" xlink:title="ltr/measures/ndcg.h">
<polygon style="fill:white;stroke:black;" points="624,-56 624,-76 726,-76 726,-56 624,-56"/>
<text text-anchor="middle" x="675" y="-63" style="font-family:Arial;font-size:10.00;">ltr/measures/ndcg.h</text>
</a>
</g>
<!-- Node1&#45;&gt;Node11 -->
<g id="edge20" class="edge"><title>Node1&#45;&gt;Node11</title>
<path style="fill:none;stroke:midnightblue;" d="M759,-112C743,-103 720,-91 702,-81"/>
<polygon style="fill:midnightblue;stroke:midnightblue;" points="703.441,-77.7969 693,-76 700.042,-83.916 703.441,-77.7969"/>
</g>
<!-- Node16 -->
<g id="node33" class="node"><title>Node16</title>
<polygon style="fill:white;stroke:#bfbfbf;" points="1310,-0 1310,-20 1407,-20 1407,-0 1310,-0"/>
<text text-anchor="middle" x="1358" y="-7" style="font-family:Arial;font-size:10.00;">ltr/measures/dcg.h</text>
</g>
<!-- Node1&#45;&gt;Node16 -->
<g id="edge40" class="edge"><title>Node1&#45;&gt;Node16</title>
<path style="fill:none;stroke:midnightblue;" d="M772,-112C766,-97 758,-71 773,-56 811,-15 1207,-26 1300,-20"/>
<polygon style="fill:midnightblue;stroke:midnightblue;" points="1300.4,-23.4778 1310,-19 1299.7,-16.5125 1300.4,-23.4778"/>
</g>
<!-- Node19 -->
<g id="node40" class="node"><title>Node19</title>
<polygon style="fill:white;stroke:#bfbfbf;" points="1484,-56 1484,-76 1603,-76 1603,-56 1484,-56"/>
<text text-anchor="middle" x="1543" y="-63" style="font-family:Arial;font-size:10.00;">ltr/data/utility/io_utility.h</text>
</g>
<!-- Node1&#45;&gt;Node19 -->
<g id="edge42" class="edge"><title>Node1&#45;&gt;Node19</title>
<path style="fill:none;stroke:midnightblue;" d="M852,-119C978,-113 1240,-99 1474,-76"/>
<polygon style="fill:midnightblue;stroke:midnightblue;" points="1474.4,-79.4778 1484,-75 1473.7,-72.5125 1474.4,-79.4778"/>
</g>
<!-- Node20 -->
<g id="node42" class="node"><title>Node20</title>
<polygon style="fill:white;stroke:#bfbfbf;" points="1620,-56 1620,-76 1715,-76 1715,-56 1620,-56"/>
<text text-anchor="middle" x="1667" y="-63" style="font-family:Arial;font-size:10.00;">ltr/data/data_set.h</text>
</g>
<!-- Node1&#45;&gt;Node20 -->
<g id="edge44" class="edge"><title>Node1&#45;&gt;Node20</title>
<path style="fill:none;stroke:midnightblue;" d="M852,-121C997,-118 1324,-108 1610,-76"/>
<polygon style="fill:midnightblue;stroke:midnightblue;" points="1610.4,-79.4778 1620,-75 1609.7,-72.5125 1610.4,-79.4778"/>
</g>
<!-- Node21 -->
<g id="node44" class="node"><title>Node21</title>
<polygon style="fill:white;stroke:#bfbfbf;" points="1732,-56 1732,-76 1936,-76 1936,-56 1732,-56"/>
<text text-anchor="middle" x="1834" y="-63" style="font-family:Arial;font-size:10.00;">ltr/feature_converters/nan_to_zero_learner.h</text>
</g>
<!-- Node1&#45;&gt;Node21 -->
<g id="edge46" class="edge"><title>Node1&#45;&gt;Node21</title>
<path style="fill:none;stroke:midnightblue;" d="M852,-119C1010,-114 1391,-98 1722,-76"/>
<polygon style="fill:midnightblue;stroke:midnightblue;" points="1722.4,-79.4778 1732,-75 1721.7,-72.5125 1722.4,-79.4778"/>
</g>
<!-- Node22 -->
<g id="node46" class="node"><title>Node22</title>
<a xlink:href="linear__learner_8h.html" target="_top" xlink:title="ltr/learners/linear_learner/linear_learner.h">
<polygon style="fill:white;stroke:black;" points="302,-56 302,-76 493,-76 493,-56 302,-56"/>
<text text-anchor="middle" x="397" y="-63" style="font-family:Arial;font-size:10.00;">ltr/learners/linear_learner/linear_learner.h</text>
</a>
</g>
<!-- Node1&#45;&gt;Node22 -->
<g id="edge48" class="edge"><title>Node1&#45;&gt;Node22</title>
<path style="fill:none;stroke:midnightblue;" d="M709,-112C643,-102 544,-87 475,-77"/>
<polygon style="fill:midnightblue;stroke:midnightblue;" points="475.299,-73.5125 465,-76 474.602,-80.4778 475.299,-73.5125"/>
</g>
<!-- Node26 -->
<g id="node56" class="node"><title>Node26</title>
<polygon style="fill:white;stroke:#bfbfbf;" points="334,-0 334,-20 460,-20 460,-0 334,-0"/>
<text text-anchor="middle" x="397" y="-7" style="font-family:Arial;font-size:10.00;">ltr/scorers/linear_scorer.h</text>
</g>
<!-- Node1&#45;&gt;Node26 -->
<g id="edge62" class="edge"><title>Node1&#45;&gt;Node26</title>
<path style="fill:none;stroke:midnightblue;" d="M711,-112C665,-104 603,-92 551,-76 539,-72 470,-42 429,-24"/>
<polygon style="fill:midnightblue;stroke:midnightblue;" points="430.56,-20.8631 420,-20 427.717,-27.2598 430.56,-20.8631"/>
</g>
<!-- Node11&#45;&gt;Node4 -->
<g id="edge26" class="edge"><title>Node11&#45;&gt;Node4</title>
<path style="fill:none;stroke:midnightblue;" d="M643,-56C615,-48 574,-34 530,-20"/>
<polygon style="fill:midnightblue;stroke:midnightblue;" points="530.584,-16.5212 520,-17 528.573,-23.2259 530.584,-16.5212"/>
</g>
<!-- Node11&#45;&gt;Node6 -->
<g id="edge28" class="edge"><title>Node11&#45;&gt;Node6</title>
<path style="fill:none;stroke:midnightblue;" d="M654,-56C635,-47 608,-34 587,-24"/>
<polygon style="fill:midnightblue;stroke:midnightblue;" points="588.56,-20.8631 578,-20 585.717,-27.2598 588.56,-20.8631"/>
</g>
<!-- Node12 -->
<g id="node23" class="node"><title>Node12</title>
<polygon style="fill:white;stroke:#bfbfbf;" points="1040,-0 1040,-20 1099,-20 1099,-0 1040,-0"/>
<text text-anchor="middle" x="1069" y="-7" style="font-family:Arial;font-size:10.00;">stdexcept</text>
</g>
<!-- Node11&#45;&gt;Node12 -->
<g id="edge22" class="edge"><title>Node11&#45;&gt;Node12</title>
<path style="fill:none;stroke:midnightblue;" d="M726,-58C731,-57 735,-57 740,-56 866,-38 901,-44 1030,-20"/>
<polygon style="fill:midnightblue;stroke:midnightblue;" points="1030.88,-23.3933 1040,-18 1029.51,-16.5292 1030.88,-23.3933"/>
</g>
<!-- Node13 -->
<g id="node25" class="node"><title>Node13</title>
<polygon style="fill:white;stroke:#bfbfbf;" points="1116,-0 1116,-20 1172,-20 1172,-0 1116,-0"/>
<text text-anchor="middle" x="1144" y="-7" style="font-family:Arial;font-size:10.00;">algorithm</text>
</g>
<!-- Node11&#45;&gt;Node13 -->
<g id="edge24" class="edge"><title>Node11&#45;&gt;Node13</title>
<path style="fill:none;stroke:midnightblue;" d="M726,-58C731,-57 735,-56 740,-56 899,-35 943,-48 1106,-20"/>
<polygon style="fill:midnightblue;stroke:midnightblue;" points="1106.88,-23.3933 1116,-18 1105.51,-16.5292 1106.88,-23.3933"/>
</g>
<!-- Node14 -->
<g id="node29" class="node"><title>Node14</title>
<polygon style="fill:white;stroke:#bfbfbf;" points="1190,-0 1190,-20 1292,-20 1292,-0 1190,-0"/>
<text text-anchor="middle" x="1241" y="-7" style="font-family:Arial;font-size:10.00;">ltr/data/object_list.h</text>
</g>
<!-- Node11&#45;&gt;Node14 -->
<g id="edge30" class="edge"><title>Node11&#45;&gt;Node14</title>
<path style="fill:none;stroke:midnightblue;" d="M726,-58C731,-57 735,-56 740,-56 932,-33 983,-44 1180,-20"/>
<polygon style="fill:midnightblue;stroke:midnightblue;" points="1180.4,-23.4778 1190,-19 1179.7,-16.5125 1180.4,-23.4778"/>
</g>
<!-- Node15 -->
<g id="node31" class="node"><title>Node15</title>
<polygon style="fill:white;stroke:#bfbfbf;" points="596,-0 596,-20 715,-20 715,-0 596,-0"/>
<text text-anchor="middle" x="655" y="-7" style="font-family:Arial;font-size:10.00;">ltr/measures/measure.h</text>
</g>
<!-- Node11&#45;&gt;Node15 -->
<g id="edge32" class="edge"><title>Node11&#45;&gt;Node15</title>
<path style="fill:none;stroke:midnightblue;" d="M671,-56C669,-49 665,-39 662,-30"/>
<polygon style="fill:midnightblue;stroke:midnightblue;" points="665.226,-28.5725 659,-20 658.521,-30.584 665.226,-28.5725"/>
</g>
<!-- Node11&#45;&gt;Node16 -->
<g id="edge34" class="edge"><title>Node11&#45;&gt;Node16</title>
<path style="fill:none;stroke:midnightblue;" d="M726,-58C731,-57 735,-56 740,-56 985,-28 1050,-48 1300,-20"/>
<polygon style="fill:midnightblue;stroke:midnightblue;" points="1300.4,-23.4778 1310,-19 1299.7,-16.5125 1300.4,-23.4778"/>
</g>
<!-- Node17 -->
<g id="node35" class="node"><title>Node17</title>
<polygon style="fill:white;stroke:#bfbfbf;" points="732,-0 732,-20 900,-20 900,-0 732,-0"/>
<text text-anchor="middle" x="816" y="-7" style="font-family:Arial;font-size:10.00;">ltr/measures/utils/measure_utility.h</text>
</g>
<!-- Node11&#45;&gt;Node17 -->
<g id="edge36" class="edge"><title>Node11&#45;&gt;Node17</title>
<path style="fill:none;stroke:midnightblue;" d="M700,-56C723,-47 756,-34 781,-24"/>
<polygon style="fill:midnightblue;stroke:midnightblue;" points="783.015,-26.9636 791,-20 780.415,-20.4643 783.015,-26.9636"/>
</g>
<!-- Node18 -->
<g id="node37" class="node"><title>Node18</title>
<polygon style="fill:white;stroke:#bfbfbf;" points="918,-0 918,-20 1022,-20 1022,-0 918,-0"/>
<text text-anchor="middle" x="970" y="-7" style="font-family:Arial;font-size:10.00;">ltr/utility/numerical.h</text>
</g>
<!-- Node11&#45;&gt;Node18 -->
<g id="edge38" class="edge"><title>Node11&#45;&gt;Node18</title>
<path style="fill:none;stroke:midnightblue;" d="M726,-56C776,-47 854,-32 908,-22"/>
<polygon style="fill:midnightblue;stroke:midnightblue;" points="908.881,-25.3933 918,-20 907.508,-18.5292 908.881,-25.3933"/>
</g>
<!-- Node22&#45;&gt;Node4 -->
<g id="edge54" class="edge"><title>Node22&#45;&gt;Node4</title>
<path style="fill:none;stroke:midnightblue;" d="M415,-56C431,-47 454,-35 472,-25"/>
<polygon style="fill:midnightblue;stroke:midnightblue;" points="473.958,-27.916 481,-20 470.559,-21.7969 473.958,-27.916"/>
</g>
<!-- Node22&#45;&gt;Node6 -->
<g id="edge52" class="edge"><title>Node22&#45;&gt;Node6</title>
<path style="fill:none;stroke:midnightblue;" d="M426,-56C455,-46 499,-31 529,-20"/>
<polygon style="fill:midnightblue;stroke:midnightblue;" points="529.62,-23.4827 538,-17 527.406,-16.842 529.62,-23.4827"/>
</g>
<!-- Node23 -->
<g id="node48" class="node"><title>Node23</title>
<polygon style="fill:white;stroke:#bfbfbf;" points="120,-0 120,-20 192,-20 192,-0 120,-0"/>
<text text-anchor="middle" x="156" y="-7" style="font-family:Arial;font-size:10.00;">Eigen/Dense</text>
</g>
<!-- Node22&#45;&gt;Node23 -->
<g id="edge50" class="edge"><title>Node22&#45;&gt;Node23</title>
<path style="fill:none;stroke:midnightblue;" d="M354,-56C311,-46 245,-30 202,-20"/>
<polygon style="fill:midnightblue;stroke:midnightblue;" points="202.492,-16.5292 192,-18 201.119,-23.3933 202.492,-16.5292"/>
</g>
<!-- Node24 -->
<g id="node52" class="node"><title>Node24</title>
<polygon style="fill:white;stroke:#bfbfbf;" points="210,-0 210,-20 317,-20 317,-0 210,-0"/>
<text text-anchor="middle" x="263" y="-7" style="font-family:Arial;font-size:10.00;">ltr/utility/shared_ptr.h</text>
</g>
<!-- Node22&#45;&gt;Node24 -->
<g id="edge56" class="edge"><title>Node22&#45;&gt;Node24</title>
<path style="fill:none;stroke:midnightblue;" d="M373,-56C352,-47 321,-34 297,-24"/>
<polygon style="fill:midnightblue;stroke:midnightblue;" points="297.585,-20.4643 287,-20 294.985,-26.9636 297.585,-20.4643"/>
</g>
<!-- Node25 -->
<g id="node54" class="node"><title>Node25</title>
<polygon style="fill:white;stroke:#bfbfbf;" points="0,-0 0,-20 102,-20 102,-0 0,-0"/>
<text text-anchor="middle" x="51" y="-7" style="font-family:Arial;font-size:10.00;">ltr/learners/learner.h</text>
</g>
<!-- Node22&#45;&gt;Node25 -->
<g id="edge58" class="edge"><title>Node22&#45;&gt;Node25</title>
<path style="fill:none;stroke:midnightblue;" d="M335,-56C279,-47 195,-33 112,-20"/>
<polygon style="fill:midnightblue;stroke:midnightblue;" points="112.492,-16.5292 102,-18 111.119,-23.3933 112.492,-16.5292"/>
</g>
<!-- Node22&#45;&gt;Node26 -->
<g id="edge60" class="edge"><title>Node22&#45;&gt;Node26</title>
<path style="fill:none;stroke:midnightblue;" d="M397,-56C397,-49 397,-39 397,-30"/>
<polygon style="fill:midnightblue;stroke:midnightblue;" points="400.5,-30 397,-20 393.5,-30 400.5,-30"/>
</g>
</g>
</svg>
