<?xml version="1.0" encoding="UTF-8" standalone="no"?>
<!DOCTYPE svg PUBLIC "-//W3C//DTD SVG 1.0//EN"
 "http://www.w3.org/TR/2001/REC-SVG-20010904/DTD/svg10.dtd" [
 <!ATTLIST svg xmlns:xlink CDATA #FIXED "http://www.w3.org/1999/xlink">
]>
<!-- Generated by Graphviz version 2.20.2 (Tue Mar &#160;2 19:03:41 UTC 2010)
     For user: (jenkins)  -->
<!-- Title: G Pages: 1 -->
<svg width="1504pt" height="420pt"
 viewBox="0.00 0.00 1504.00 420.00" xmlns="http://www.w3.org/2000/svg" xmlns:xlink="http://www.w3.org/1999/xlink">
<g id="graph0" class="graph" transform="scale(1 1) rotate(0) translate(4 416)">
<title>G</title>
<polygon style="fill:white;stroke:white;" points="-4,4 -4,-416 1500,-416 1500,4 -4,4"/>
<!-- Node1 -->
<g id="node1" class="node"><title>Node1</title>
<polygon style="fill:#bfbfbf;stroke:black;" points="457,-392 457,-412 655,-412 655,-392 457,-392"/>
<text text-anchor="middle" x="556" y="-399" style="font-family:Arial;font-size:10.00;">ltr/crossvalidation/leave_one_out_splitter.h</text>
</g>
<!-- Node2 -->
<g id="node3" class="node"><title>Node2</title>
<polygon style="fill:white;stroke:#bfbfbf;" points="230,-56 230,-76 304,-76 304,-56 230,-56"/>
<text text-anchor="middle" x="267" y="-63" style="font-family:Arial;font-size:10.00;">logog/logog.h</text>
</g>
<!-- Node1&#45;&gt;Node2 -->
<g id="edge2" class="edge"><title>Node1&#45;&gt;Node2</title>
<path style="fill:none;stroke:midnightblue;" d="M457,-393C341,-380 164,-350 164,-290 164,-290 164,-290 164,-178 164,-134 208,-100 238,-81"/>
<polygon style="fill:midnightblue;stroke:midnightblue;" points="239.958,-83.916 247,-76 236.559,-77.7969 239.958,-83.916"/>
</g>
<!-- Node3 -->
<g id="node5" class="node"><title>Node3</title>
<polygon style="fill:white;stroke:#bfbfbf;" points="1247,-56 1247,-76 1289,-76 1289,-56 1247,-56"/>
<text text-anchor="middle" x="1268" y="-63" style="font-family:Arial;font-size:10.00;">vector</text>
</g>
<!-- Node1&#45;&gt;Node3 -->
<g id="edge4" class="edge"><title>Node1&#45;&gt;Node3</title>
<path style="fill:none;stroke:midnightblue;" d="M655,-400C897,-395 1496,-374 1496,-290 1496,-290 1496,-290 1496,-178 1496,-134 1361,-92 1299,-74"/>
<polygon style="fill:midnightblue;stroke:midnightblue;" points="1299.58,-70.5212 1289,-71 1297.57,-77.2259 1299.58,-70.5212"/>
</g>
<!-- Node4 -->
<g id="node7" class="node"><title>Node4</title>
<polygon style="fill:white;stroke:#bfbfbf;" points="646,-56 646,-76 705,-76 705,-56 646,-56"/>
<text text-anchor="middle" x="675" y="-63" style="font-family:Arial;font-size:10.00;">stdexcept</text>
</g>
<!-- Node1&#45;&gt;Node4 -->
<g id="edge6" class="edge"><title>Node1&#45;&gt;Node4</title>
<path style="fill:none;stroke:midnightblue;" d="M531,-392C496,-376 436,-341 436,-290 436,-290 436,-290 436,-234 436,-203 435,-191 455,-168 479,-138 580,-99 636,-79"/>
<polygon style="fill:midnightblue;stroke:midnightblue;" points="637.427,-82.2259 646,-76 635.416,-75.5212 637.427,-82.2259"/>
</g>
<!-- Node5 -->
<g id="node9" class="node"><title>Node5</title>
<polygon style="fill:white;stroke:#bfbfbf;" points="598,-0 598,-20 638,-20 638,-0 598,-0"/>
<text text-anchor="middle" x="618" y="-7" style="font-family:Arial;font-size:10.00;">string</text>
</g>
<!-- Node1&#45;&gt;Node5 -->
<g id="edge8" class="edge"><title>Node1&#45;&gt;Node5</title>
<path style="fill:none;stroke:midnightblue;" d="M457,-392C297,-375 1,-336 0,-290 0,-290 0,-290 0,-122 0,-72 44,-73 90,-56 182,-21 490,-13 588,-10"/>
<polygon style="fill:midnightblue;stroke:midnightblue;" points="588,-13.5001 598,-10 588,-6.5001 588,-13.5001"/>
</g>
<!-- Node6 -->
<g id="node11" class="node"><title>Node6</title>
<a xlink:href="splitter_8h.html" target="_top" xlink:title="ltr/crossvalidation/splitter.h">
<polygon style="fill:white;stroke:black;" points="611,-336 611,-356 742,-356 742,-336 611,-336"/>
<text text-anchor="middle" x="676" y="-343" style="font-family:Arial;font-size:10.00;">ltr/crossvalidation/splitter.h</text>
</a>
</g>
<!-- Node1&#45;&gt;Node6 -->
<g id="edge10" class="edge"><title>Node1&#45;&gt;Node6</title>
<path style="fill:none;stroke:midnightblue;" d="M577,-392C596,-383 623,-370 645,-360"/>
<polygon style="fill:midnightblue;stroke:midnightblue;" points="646.283,-363.26 654,-356 643.44,-356.863 646.283,-363.26"/>
</g>
<!-- Node7 -->
<g id="node13" class="node"><title>Node7</title>
<a xlink:href="shared__ptr_8h.html" target="_top" xlink:title="ltr/utility/shared_ptr.h">
<polygon style="fill:white;stroke:black;" points="1106,-56 1106,-76 1213,-76 1213,-56 1106,-56"/>
<text text-anchor="middle" x="1159" y="-63" style="font-family:Arial;font-size:10.00;">ltr/utility/shared_ptr.h</text>
</a>
</g>
<!-- Node1&#45;&gt;Node7 -->
<g id="edge138" class="edge"><title>Node1&#45;&gt;Node7</title>
<path style="fill:none;stroke:midnightblue;" d="M655,-398C850,-389 1273,-355 1355,-244 1390,-195 1376,-150 1331,-112 1314,-98 1265,-86 1223,-77"/>
<polygon style="fill:midnightblue;stroke:midnightblue;" points="1223.49,-73.5292 1213,-75 1222.12,-80.3933 1223.49,-73.5292"/>
</g>
<!-- Node6&#45;&gt;Node3 -->
<g id="edge20" class="edge"><title>Node6&#45;&gt;Node3</title>
<path style="fill:none;stroke:midnightblue;" d="M742,-343C864,-336 1122,-320 1210,-300 1277,-284 1314,-299 1355,-244 1374,-216 1369,-199 1358,-168 1344,-132 1312,-101 1290,-82"/>
<polygon style="fill:midnightblue;stroke:midnightblue;" points="1292.1,-79.2 1282,-76 1287.9,-84.8 1292.1,-79.2"/>
</g>
<!-- Node6&#45;&gt;Node5 -->
<g id="edge22" class="edge"><title>Node6&#45;&gt;Node5</title>
<path style="fill:none;stroke:midnightblue;" d="M622,-336C471,-306 63,-208 198,-56 224,-27 496,-14 588,-11"/>
<polygon style="fill:midnightblue;stroke:midnightblue;" points="588,-14.5001 598,-11 588,-7.5001 588,-14.5001"/>
</g>
<!-- Node6&#45;&gt;Node7 -->
<g id="edge12" class="edge"><title>Node6&#45;&gt;Node7</title>
<path style="fill:none;stroke:midnightblue;" d="M742,-342C911,-330 1344,-294 1344,-234 1344,-234 1344,-234 1344,-178 1344,-120 1277,-91 1223,-77"/>
<polygon style="fill:midnightblue;stroke:midnightblue;" points="1223.49,-73.5292 1213,-75 1222.12,-80.3933 1223.49,-73.5292"/>
</g>
<!-- Node11 -->
<g id="node23" class="node"><title>Node11</title>
<a xlink:href="printable_8h.html" target="_top" xlink:title="ltr/interfaces/printable.h">
<polygon style="fill:white;stroke:black;" points="888,-56 888,-76 1005,-76 1005,-56 888,-56"/>
<text text-anchor="middle" x="946" y="-63" style="font-family:Arial;font-size:10.00;">ltr/interfaces/printable.h</text>
</a>
</g>
<!-- Node6&#45;&gt;Node11 -->
<g id="edge24" class="edge"><title>Node6&#45;&gt;Node11</title>
<path style="fill:none;stroke:midnightblue;" d="M742,-336C849,-319 1053,-283 1115,-244 1141,-227 1147,-217 1158,-188 1180,-121 1085,-90 1015,-76"/>
<polygon style="fill:midnightblue;stroke:midnightblue;" points="1015.49,-72.5292 1005,-74 1014.12,-79.3933 1015.49,-72.5292"/>
</g>
<!-- Node13 -->
<g id="node28" class="node"><title>Node13</title>
<a xlink:href="data__set_8h.html" target="_top" xlink:title="ltr/data/data_set.h">
<polygon style="fill:white;stroke:black;" points="765,-280 765,-300 860,-300 860,-280 765,-280"/>
<text text-anchor="middle" x="812" y="-287" style="font-family:Arial;font-size:10.00;">ltr/data/data_set.h</text>
</a>
</g>
<!-- Node6&#45;&gt;Node13 -->
<g id="edge30" class="edge"><title>Node6&#45;&gt;Node13</title>
<path style="fill:none;stroke:midnightblue;" d="M700,-336C722,-327 754,-314 778,-304"/>
<polygon style="fill:midnightblue;stroke:midnightblue;" points="779.283,-307.26 787,-300 776.44,-300.863 779.283,-307.26"/>
</g>
<!-- Node20 -->
<g id="node66" class="node"><title>Node20</title>
<a xlink:href="parameterized_8h.html" target="_top" xlink:title="ltr/interfaces/parameterized.h">
<polygon style="fill:white;stroke:black;" points="464,-168 464,-188 606,-188 606,-168 464,-168"/>
<text text-anchor="middle" x="535" y="-175" style="font-family:Arial;font-size:10.00;">ltr/interfaces/parameterized.h</text>
</a>
</g>
<!-- Node6&#45;&gt;Node20 -->
<g id="edge134" class="edge"><title>Node6&#45;&gt;Node20</title>
<path style="fill:none;stroke:midnightblue;" d="M668,-336C644,-308 580,-231 551,-196"/>
<polygon style="fill:midnightblue;stroke:midnightblue;" points="553.219,-193.221 544,-188 547.951,-197.831 553.219,-193.221"/>
</g>
<!-- Node26 -->
<g id="node91" class="node"><title>Node26</title>
<a xlink:href="aliaser_8h.html" target="_top" xlink:title="ltr/interfaces/aliaser.h">
<polygon style="fill:white;stroke:black;" points="28,-224 28,-244 136,-244 136,-224 28,-224"/>
<text text-anchor="middle" x="82" y="-231" style="font-family:Arial;font-size:10.00;">ltr/interfaces/aliaser.h</text>
</a>
</g>
<!-- Node6&#45;&gt;Node26 -->
<g id="edge136" class="edge"><title>Node6&#45;&gt;Node26</title>
<path style="fill:none;stroke:midnightblue;" d="M611,-343C496,-338 264,-325 188,-300 155,-289 122,-266 102,-250"/>
<polygon style="fill:midnightblue;stroke:midnightblue;" points="104.1,-247.2 94,-244 99.9,-252.8 104.1,-247.2"/>
</g>
<!-- Node8 -->
<g id="node15" class="node"><title>Node8</title>
<polygon style="fill:white;stroke:#bfbfbf;" points="1197,-0 1197,-20 1253,-20 1253,-0 1197,-0"/>
<text text-anchor="middle" x="1225" y="-7" style="font-family:Arial;font-size:10.00;">algorithm</text>
</g>
<!-- Node7&#45;&gt;Node8 -->
<g id="edge14" class="edge"><title>Node7&#45;&gt;Node8</title>
<path style="fill:none;stroke:midnightblue;" d="M1171,-56C1181,-48 1194,-37 1205,-27"/>
<polygon style="fill:midnightblue;stroke:midnightblue;" points="1207.78,-29.2191 1213,-20 1203.17,-23.9511 1207.78,-29.2191"/>
</g>
<!-- Node9 -->
<g id="node17" class="node"><title>Node9</title>
<polygon style="fill:white;stroke:#bfbfbf;" points="1271,-0 1271,-20 1378,-20 1378,-0 1271,-0"/>
<text text-anchor="middle" x="1324" y="-7" style="font-family:Arial;font-size:10.00;">boost/shared_ptr.hpp</text>
</g>
<!-- Node7&#45;&gt;Node9 -->
<g id="edge16" class="edge"><title>Node7&#45;&gt;Node9</title>
<path style="fill:none;stroke:midnightblue;" d="M1188,-56C1215,-47 1255,-33 1284,-23"/>
<polygon style="fill:midnightblue;stroke:midnightblue;" points="1285.43,-26.2259 1294,-20 1283.42,-19.5212 1285.43,-26.2259"/>
</g>
<!-- Node10 -->
<g id="node19" class="node"><title>Node10</title>
<polygon style="fill:white;stroke:#bfbfbf;" points="989,-0 989,-20 1180,-20 1180,-0 989,-0"/>
<text text-anchor="middle" x="1084" y="-7" style="font-family:Arial;font-size:10.00;">boost/smart_ptr/detail/operator_bool.hpp</text>
</g>
<!-- Node7&#45;&gt;Node10 -->
<g id="edge18" class="edge"><title>Node7&#45;&gt;Node10</title>
<path style="fill:none;stroke:midnightblue;" d="M1146,-56C1135,-48 1119,-36 1106,-26"/>
<polygon style="fill:midnightblue;stroke:midnightblue;" points="1108.1,-23.2 1098,-20 1103.9,-28.8 1108.1,-23.2"/>
</g>
<!-- Node11&#45;&gt;Node5 -->
<g id="edge28" class="edge"><title>Node11&#45;&gt;Node5</title>
<path style="fill:none;stroke:midnightblue;" d="M888,-56C818,-44 703,-25 648,-15"/>
<polygon style="fill:midnightblue;stroke:midnightblue;" points="648.492,-11.5292 638,-13 647.119,-18.3933 648.492,-11.5292"/>
</g>
<!-- Node12 -->
<g id="node25" class="node"><title>Node12</title>
<polygon style="fill:white;stroke:#bfbfbf;" points="921,-0 921,-20 972,-20 972,-0 921,-0"/>
<text text-anchor="middle" x="946" y="-7" style="font-family:Arial;font-size:10.00;">ostream</text>
</g>
<!-- Node11&#45;&gt;Node12 -->
<g id="edge26" class="edge"><title>Node11&#45;&gt;Node12</title>
<path style="fill:none;stroke:midnightblue;" d="M946,-56C946,-49 946,-39 946,-30"/>
<polygon style="fill:midnightblue;stroke:midnightblue;" points="949.5,-30 946,-20 942.5,-30 949.5,-30"/>
</g>
<!-- Node13&#45;&gt;Node3 -->
<g id="edge38" class="edge"><title>Node13&#45;&gt;Node3</title>
<path style="fill:none;stroke:midnightblue;" d="M860,-286C934,-279 1070,-265 1115,-244 1186,-209 1238,-124 1258,-85"/>
<polygon style="fill:midnightblue;stroke:midnightblue;" points="1261.2,-86.4414 1263,-76 1255.08,-83.0418 1261.2,-86.4414"/>
</g>
<!-- Node13&#45;&gt;Node4 -->
<g id="edge34" class="edge"><title>Node13&#45;&gt;Node4</title>
<path style="fill:none;stroke:midnightblue;" d="M765,-281C728,-272 680,-259 669,-244 634,-197 654,-121 667,-86"/>
<polygon style="fill:midnightblue;stroke:midnightblue;" points="670.536,-86.5847 671,-76 664.036,-83.9849 670.536,-86.5847"/>
</g>
<!-- Node13&#45;&gt;Node5 -->
<g id="edge36" class="edge"><title>Node13&#45;&gt;Node5</title>
<path style="fill:none;stroke:midnightblue;" d="M765,-283C640,-263 307,-205 227,-132 207,-114 210,-102 206,-76 204,-67 200,-62 206,-56 231,-27 497,-15 588,-11"/>
<polygon style="fill:midnightblue;stroke:midnightblue;" points="588,-14.5001 598,-11 588,-7.5001 588,-14.5001"/>
</g>
<!-- Node14 -->
<g id="node30" class="node"><title>Node14</title>
<polygon style="fill:white;stroke:#bfbfbf;" points="878,-224 878,-244 929,-244 929,-224 878,-224"/>
<text text-anchor="middle" x="903" y="-231" style="font-family:Arial;font-size:10.00;">sstream</text>
</g>
<!-- Node13&#45;&gt;Node14 -->
<g id="edge32" class="edge"><title>Node13&#45;&gt;Node14</title>
<path style="fill:none;stroke:midnightblue;" d="M828,-280C841,-272 862,-259 877,-249"/>
<polygon style="fill:midnightblue;stroke:midnightblue;" points="878.958,-251.916 886,-244 875.559,-245.797 878.958,-251.916"/>
</g>
<!-- Node15 -->
<g id="node35" class="node"><title>Node15</title>
<a xlink:href="object_8h.html" target="_top" xlink:title="ltr/data/object.h">
<polygon style="fill:white;stroke:black;" points="852,-112 852,-132 936,-132 936,-112 852,-112"/>
<text text-anchor="middle" x="894" y="-119" style="font-family:Arial;font-size:10.00;">ltr/data/object.h</text>
</a>
</g>
<!-- Node13&#45;&gt;Node15 -->
<g id="edge40" class="edge"><title>Node13&#45;&gt;Node15</title>
<path style="fill:none;stroke:midnightblue;" d="M821,-280C836,-262 865,-225 881,-188 886,-173 890,-155 892,-142"/>
<polygon style="fill:midnightblue;stroke:midnightblue;" points="895.488,-142.299 893,-132 888.522,-141.602 895.488,-142.299"/>
</g>
<!-- Node17 -->
<g id="node45" class="node"><title>Node17</title>
<a xlink:href="object__list_8h.html" target="_top" xlink:title="ltr/data/object_list.h">
<polygon style="fill:white;stroke:black;" points="1047,-168 1047,-188 1149,-188 1149,-168 1047,-168"/>
<text text-anchor="middle" x="1098" y="-175" style="font-family:Arial;font-size:10.00;">ltr/data/object_list.h</text>
</a>
</g>
<!-- Node13&#45;&gt;Node17 -->
<g id="edge56" class="edge"><title>Node13&#45;&gt;Node17</title>
<path style="fill:none;stroke:midnightblue;" d="M860,-286C938,-278 1085,-262 1101,-244 1111,-231 1110,-212 1105,-198"/>
<polygon style="fill:midnightblue;stroke:midnightblue;" points="1108.23,-196.573 1102,-188 1101.52,-198.584 1108.23,-196.573"/>
</g>
<!-- Node18 -->
<g id="node53" class="node"><title>Node18</title>
<a xlink:href="object__pair_8h.html" target="_top" xlink:title="ltr/data/object_pair.h">
<polygon style="fill:white;stroke:black;" points="768,-168 768,-188 872,-188 872,-168 768,-168"/>
<text text-anchor="middle" x="820" y="-175" style="font-family:Arial;font-size:10.00;">ltr/data/object_pair.h</text>
</a>
</g>
<!-- Node13&#45;&gt;Node18 -->
<g id="edge70" class="edge"><title>Node13&#45;&gt;Node18</title>
<path style="fill:none;stroke:midnightblue;" d="M813,-280C815,-261 817,-222 819,-198"/>
<polygon style="fill:midnightblue;stroke:midnightblue;" points="822.5,-198 819,-188 815.5,-198 822.5,-198"/>
</g>
<!-- Node19 -->
<g id="node61" class="node"><title>Node19</title>
<a xlink:href="feature__info_8h.html" target="_top" xlink:title="ltr/data/feature_info.h">
<polygon style="fill:white;stroke:black;" points="678,-224 678,-244 785,-244 785,-224 678,-224"/>
<text text-anchor="middle" x="731" y="-231" style="font-family:Arial;font-size:10.00;">ltr/data/feature_info.h</text>
</a>
</g>
<!-- Node13&#45;&gt;Node19 -->
<g id="edge84" class="edge"><title>Node13&#45;&gt;Node19</title>
<path style="fill:none;stroke:midnightblue;" d="M798,-280C786,-272 768,-260 754,-250"/>
<polygon style="fill:midnightblue;stroke:midnightblue;" points="756.1,-247.2 746,-244 751.9,-252.8 756.1,-247.2"/>
</g>
<!-- Node25 -->
<g id="node84" class="node"><title>Node25</title>
<a xlink:href="per__object__accessor_8h.html" target="_top" xlink:title="ltr/data/per_object_accessor.h">
<polygon style="fill:white;stroke:black;" points="946,-224 946,-244 1093,-244 1093,-224 946,-224"/>
<text text-anchor="middle" x="1019" y="-231" style="font-family:Arial;font-size:10.00;">ltr/data/per_object_accessor.h</text>
</a>
</g>
<!-- Node13&#45;&gt;Node25 -->
<g id="edge118" class="edge"><title>Node13&#45;&gt;Node25</title>
<path style="fill:none;stroke:midnightblue;" d="M849,-280C884,-271 935,-257 972,-247"/>
<polygon style="fill:midnightblue;stroke:midnightblue;" points="973.427,-250.226 982,-244 971.416,-243.521 973.427,-250.226"/>
</g>
<!-- Node13&#45;&gt;Node26 -->
<g id="edge130" class="edge"><title>Node13&#45;&gt;Node26</title>
<path style="fill:none;stroke:midnightblue;" d="M765,-286C639,-276 291,-250 146,-239"/>
<polygon style="fill:midnightblue;stroke:midnightblue;" points="146.299,-235.512 136,-238 145.602,-242.478 146.299,-235.512"/>
</g>
<!-- Node15&#45;&gt;Node3 -->
<g id="edge50" class="edge"><title>Node15&#45;&gt;Node3</title>
<path style="fill:none;stroke:midnightblue;" d="M936,-117C998,-109 1119,-94 1221,-76 1226,-75 1232,-74 1237,-73"/>
<polygon style="fill:midnightblue;stroke:midnightblue;" points="1237.88,-76.3933 1247,-71 1236.51,-69.5292 1237.88,-76.3933"/>
</g>
<!-- Node15&#45;&gt;Node4 -->
<g id="edge46" class="edge"><title>Node15&#45;&gt;Node4</title>
<path style="fill:none;stroke:midnightblue;" d="M855,-112C815,-102 755,-87 715,-77"/>
<polygon style="fill:midnightblue;stroke:midnightblue;" points="715.584,-73.5212 705,-74 713.573,-80.2259 715.584,-73.5212"/>
</g>
<!-- Node15&#45;&gt;Node5 -->
<g id="edge48" class="edge"><title>Node15&#45;&gt;Node5</title>
<path style="fill:none;stroke:midnightblue;" d="M889,-112C881,-97 864,-69 841,-56 808,-36 701,-20 648,-13"/>
<polygon style="fill:midnightblue;stroke:midnightblue;" points="648.299,-9.5125 638,-12 647.602,-16.4778 648.299,-9.5125"/>
</g>
<!-- Node15&#45;&gt;Node7 -->
<g id="edge54" class="edge"><title>Node15&#45;&gt;Node7</title>
<path style="fill:none;stroke:midnightblue;" d="M936,-113C981,-104 1051,-89 1101,-78"/>
<polygon style="fill:midnightblue;stroke:midnightblue;" points="1101.88,-81.3933 1111,-76 1100.51,-74.5292 1101.88,-81.3933"/>
</g>
<!-- Node15&#45;&gt;Node11 -->
<g id="edge52" class="edge"><title>Node15&#45;&gt;Node11</title>
<path style="fill:none;stroke:midnightblue;" d="M903,-112C910,-104 921,-93 929,-84"/>
<polygon style="fill:midnightblue;stroke:midnightblue;" points="932.049,-85.8306 936,-76 926.781,-81.221 932.049,-85.8306"/>
</g>
<!-- Node15&#45;&gt;Node12 -->
<g id="edge44" class="edge"><title>Node15&#45;&gt;Node12</title>
<path style="fill:none;stroke:midnightblue;" d="M933,-112C963,-103 1003,-90 1013,-76 1026,-56 1002,-37 979,-25"/>
<polygon style="fill:midnightblue;stroke:midnightblue;" points="980.441,-21.7969 970,-20 977.042,-27.916 980.441,-21.7969"/>
</g>
<!-- Node16 -->
<g id="node37" class="node"><title>Node16</title>
<polygon style="fill:white;stroke:#bfbfbf;" points="798,-56 798,-76 833,-76 833,-56 798,-56"/>
<text text-anchor="middle" x="815" y="-63" style="font-family:Arial;font-size:10.00;">map</text>
</g>
<!-- Node15&#45;&gt;Node16 -->
<g id="edge42" class="edge"><title>Node15&#45;&gt;Node16</title>
<path style="fill:none;stroke:midnightblue;" d="M880,-112C868,-104 851,-91 837,-82"/>
<polygon style="fill:midnightblue;stroke:midnightblue;" points="839.1,-79.2 829,-76 834.9,-84.8 839.1,-79.2"/>
</g>
<!-- Node17&#45;&gt;Node3 -->
<g id="edge62" class="edge"><title>Node17&#45;&gt;Node3</title>
<path style="fill:none;stroke:midnightblue;" d="M1130,-168C1152,-160 1182,-148 1206,-132 1224,-118 1242,-98 1254,-84"/>
<polygon style="fill:midnightblue;stroke:midnightblue;" points="1256.8,-86.1 1260,-76 1251.2,-81.9 1256.8,-86.1"/>
</g>
<!-- Node17&#45;&gt;Node4 -->
<g id="edge58" class="edge"><title>Node17&#45;&gt;Node4</title>
<path style="fill:none;stroke:midnightblue;" d="M1047,-172C995,-165 912,-151 843,-132 793,-118 739,-95 705,-80"/>
<polygon style="fill:midnightblue;stroke:midnightblue;" points="706.56,-76.8631 696,-76 703.717,-83.2598 706.56,-76.8631"/>
</g>
<!-- Node17&#45;&gt;Node5 -->
<g id="edge60" class="edge"><title>Node17&#45;&gt;Node5</title>
<path style="fill:none;stroke:midnightblue;" d="M1094,-168C1085,-144 1057,-82 1013,-56 952,-19 730,-12 648,-10"/>
<polygon style="fill:midnightblue;stroke:midnightblue;" points="648,-6.5001 638,-10 648,-13.5001 648,-6.5001"/>
</g>
<!-- Node17&#45;&gt;Node7 -->
<g id="edge68" class="edge"><title>Node17&#45;&gt;Node7</title>
<path style="fill:none;stroke:midnightblue;" d="M1104,-168C1115,-149 1136,-109 1148,-85"/>
<polygon style="fill:midnightblue;stroke:midnightblue;" points="1151.2,-86.4414 1153,-76 1145.08,-83.0418 1151.2,-86.4414"/>
</g>
<!-- Node17&#45;&gt;Node11 -->
<g id="edge66" class="edge"><title>Node17&#45;&gt;Node11</title>
<path style="fill:none;stroke:midnightblue;" d="M1084,-168C1058,-148 1000,-106 968,-82"/>
<polygon style="fill:midnightblue;stroke:midnightblue;" points="970.1,-79.2 960,-76 965.9,-84.8 970.1,-79.2"/>
</g>
<!-- Node17&#45;&gt;Node15 -->
<g id="edge64" class="edge"><title>Node17&#45;&gt;Node15</title>
<path style="fill:none;stroke:midnightblue;" d="M1062,-168C1028,-159 978,-145 941,-135"/>
<polygon style="fill:midnightblue;stroke:midnightblue;" points="941.584,-131.521 931,-132 939.573,-138.226 941.584,-131.521"/>
</g>
<!-- Node18&#45;&gt;Node3 -->
<g id="edge76" class="edge"><title>Node18&#45;&gt;Node3</title>
<path style="fill:none;stroke:midnightblue;" d="M860,-168C948,-146 1157,-94 1237,-74"/>
<polygon style="fill:midnightblue;stroke:midnightblue;" points="1238.43,-77.2259 1247,-71 1236.42,-70.5212 1238.43,-77.2259"/>
</g>
<!-- Node18&#45;&gt;Node4 -->
<g id="edge72" class="edge"><title>Node18&#45;&gt;Node4</title>
<path style="fill:none;stroke:midnightblue;" d="M768,-169C743,-163 715,-152 696,-132 684,-119 679,-101 677,-86"/>
<polygon style="fill:midnightblue;stroke:midnightblue;" points="680.393,-85.1194 675,-76 673.529,-86.4922 680.393,-85.1194"/>
</g>
<!-- Node18&#45;&gt;Node5 -->
<g id="edge74" class="edge"><title>Node18&#45;&gt;Node5</title>
<path style="fill:none;stroke:midnightblue;" d="M817,-168C808,-145 784,-87 746,-56 718,-32 676,-21 648,-15"/>
<polygon style="fill:midnightblue;stroke:midnightblue;" points="648.492,-11.5292 638,-13 647.119,-18.3933 648.492,-11.5292"/>
</g>
<!-- Node18&#45;&gt;Node7 -->
<g id="edge82" class="edge"><title>Node18&#45;&gt;Node7</title>
<path style="fill:none;stroke:midnightblue;" d="M849,-168C874,-159 912,-145 945,-132 964,-123 968,-119 988,-112 1025,-98 1069,-86 1103,-78"/>
<polygon style="fill:midnightblue;stroke:midnightblue;" points="1103.88,-81.3933 1113,-76 1102.51,-74.5292 1103.88,-81.3933"/>
</g>
<!-- Node18&#45;&gt;Node11 -->
<g id="edge80" class="edge"><title>Node18&#45;&gt;Node11</title>
<path style="fill:none;stroke:midnightblue;" d="M821,-168C823,-153 828,-127 843,-112 857,-97 876,-86 894,-79"/>
<polygon style="fill:midnightblue;stroke:midnightblue;" points="895.427,-82.2259 904,-76 893.416,-75.5212 895.427,-82.2259"/>
</g>
<!-- Node18&#45;&gt;Node15 -->
<g id="edge78" class="edge"><title>Node18&#45;&gt;Node15</title>
<path style="fill:none;stroke:midnightblue;" d="M833,-168C844,-160 860,-148 873,-138"/>
<polygon style="fill:midnightblue;stroke:midnightblue;" points="875.1,-140.8 881,-132 870.9,-135.2 875.1,-140.8"/>
</g>
<!-- Node19&#45;&gt;Node3 -->
<g id="edge90" class="edge"><title>Node19&#45;&gt;Node3</title>
<path style="fill:none;stroke:midnightblue;" d="M785,-230C892,-221 1124,-202 1158,-188 1194,-172 1201,-161 1228,-132 1240,-118 1251,-99 1258,-85"/>
<polygon style="fill:midnightblue;stroke:midnightblue;" points="1261.2,-86.4414 1263,-76 1255.08,-83.0418 1261.2,-86.4414"/>
</g>
<!-- Node19&#45;&gt;Node5 -->
<g id="edge88" class="edge"><title>Node19&#45;&gt;Node5</title>
<path style="fill:none;stroke:midnightblue;" d="M733,-224C738,-195 750,-109 713,-56 698,-35 670,-23 648,-17"/>
<polygon style="fill:midnightblue;stroke:midnightblue;" points="648.584,-13.5212 638,-14 646.573,-20.2259 648.584,-13.5212"/>
</g>
<!-- Node19&#45;&gt;Node7 -->
<g id="edge116" class="edge"><title>Node19&#45;&gt;Node7</title>
<path style="fill:none;stroke:midnightblue;" d="M768,-224C798,-215 843,-202 881,-188 973,-153 1079,-105 1129,-80"/>
<polygon style="fill:midnightblue;stroke:midnightblue;" points="1130.28,-83.2598 1138,-76 1127.44,-76.8631 1130.28,-83.2598"/>
</g>
<!-- Node19&#45;&gt;Node16 -->
<g id="edge86" class="edge"><title>Node19&#45;&gt;Node16</title>
<path style="fill:none;stroke:midnightblue;" d="M735,-224C740,-211 749,-187 759,-168 773,-138 792,-105 804,-85"/>
<polygon style="fill:midnightblue;stroke:midnightblue;" points="807.203,-86.4414 809,-76 801.084,-83.0418 807.203,-86.4414"/>
</g>
<!-- Node19&#45;&gt;Node20 -->
<g id="edge92" class="edge"><title>Node19&#45;&gt;Node20</title>
<path style="fill:none;stroke:midnightblue;" d="M696,-224C664,-215 615,-201 580,-191"/>
<polygon style="fill:midnightblue;stroke:midnightblue;" points="580.584,-187.521 570,-188 578.573,-194.226 580.584,-187.521"/>
</g>
<!-- Node20&#45;&gt;Node4 -->
<g id="edge94" class="edge"><title>Node20&#45;&gt;Node4</title>
<path style="fill:none;stroke:midnightblue;" d="M540,-168C547,-154 563,-128 582,-112 598,-99 618,-88 636,-80"/>
<polygon style="fill:midnightblue;stroke:midnightblue;" points="638.015,-82.9636 646,-76 635.415,-76.4643 638.015,-82.9636"/>
</g>
<!-- Node20&#45;&gt;Node5 -->
<g id="edge96" class="edge"><title>Node20&#45;&gt;Node5</title>
<path style="fill:none;stroke:midnightblue;" d="M464,-172C393,-166 292,-153 259,-132 227,-111 195,-84 221,-56 245,-28 499,-15 588,-11"/>
<polygon style="fill:midnightblue;stroke:midnightblue;" points="588,-14.5001 598,-11 588,-7.5001 588,-14.5001"/>
</g>
<!-- Node21 -->
<g id="node70" class="node"><title>Node21</title>
<a xlink:href="parameters__container_8h.html" target="_top" xlink:title="ltr/parameters_container/parameters_container.h">
<polygon style="fill:white;stroke:black;" points="268,-112 268,-132 493,-132 493,-112 268,-112"/>
<text text-anchor="middle" x="380" y="-119" style="font-family:Arial;font-size:10.00;">ltr/parameters_container/parameters_container.h</text>
</a>
</g>
<!-- Node20&#45;&gt;Node21 -->
<g id="edge98" class="edge"><title>Node20&#45;&gt;Node21</title>
<path style="fill:none;stroke:midnightblue;" d="M507,-168C482,-159 445,-145 418,-135"/>
<polygon style="fill:midnightblue;stroke:midnightblue;" points="418.584,-131.521 408,-132 416.573,-138.226 418.584,-131.521"/>
</g>
<!-- Node21&#45;&gt;Node2 -->
<g id="edge100" class="edge"><title>Node21&#45;&gt;Node2</title>
<path style="fill:none;stroke:midnightblue;" d="M360,-112C342,-103 316,-90 296,-80"/>
<polygon style="fill:midnightblue;stroke:midnightblue;" points="297.56,-76.8631 287,-76 294.717,-83.2598 297.56,-76.8631"/>
</g>
<!-- Node21&#45;&gt;Node4 -->
<g id="edge104" class="edge"><title>Node21&#45;&gt;Node4</title>
<path style="fill:none;stroke:midnightblue;" d="M439,-112C490,-103 566,-90 632,-76 633,-76 635,-75 636,-75"/>
<polygon style="fill:midnightblue;stroke:midnightblue;" points="636.881,-78.3933 646,-73 635.508,-71.5292 636.881,-78.3933"/>
</g>
<!-- Node21&#45;&gt;Node5 -->
<g id="edge106" class="edge"><title>Node21&#45;&gt;Node5</title>
<path style="fill:none;stroke:midnightblue;" d="M472,-112C523,-105 580,-93 599,-76 611,-64 616,-45 617,-30"/>
<polygon style="fill:midnightblue;stroke:midnightblue;" points="620.488,-30.2987 618,-20 613.522,-29.6021 620.488,-30.2987"/>
</g>
<!-- Node21&#45;&gt;Node7 -->
<g id="edge112" class="edge"><title>Node21&#45;&gt;Node7</title>
<path style="fill:none;stroke:midnightblue;" d="M493,-114C659,-101 963,-80 1096,-71"/>
<polygon style="fill:midnightblue;stroke:midnightblue;" points="1096.4,-74.4778 1106,-70 1095.7,-67.5125 1096.4,-74.4778"/>
</g>
<!-- Node21&#45;&gt;Node11 -->
<g id="edge114" class="edge"><title>Node21&#45;&gt;Node11</title>
<path style="fill:none;stroke:midnightblue;" d="M481,-112C596,-100 779,-82 878,-73"/>
<polygon style="fill:midnightblue;stroke:midnightblue;" points="878.398,-76.4778 888,-72 877.701,-69.5125 878.398,-76.4778"/>
</g>
<!-- Node22 -->
<g id="node73" class="node"><title>Node22</title>
<polygon style="fill:white;stroke:#bfbfbf;" points="322,-56 322,-76 351,-76 351,-56 322,-56"/>
<text text-anchor="middle" x="336" y="-63" style="font-family:Arial;font-size:10.00;">list</text>
</g>
<!-- Node21&#45;&gt;Node22 -->
<g id="edge102" class="edge"><title>Node21&#45;&gt;Node22</title>
<path style="fill:none;stroke:midnightblue;" d="M372,-112C366,-104 357,-94 350,-84"/>
<polygon style="fill:midnightblue;stroke:midnightblue;" points="352.8,-81.9 344,-76 347.2,-86.1 352.8,-81.9"/>
</g>
<!-- Node23 -->
<g id="node77" class="node"><title>Node23</title>
<polygon style="fill:white;stroke:#bfbfbf;" points="368,-56 368,-76 445,-76 445,-56 368,-56"/>
<text text-anchor="middle" x="406" y="-63" style="font-family:Arial;font-size:10.00;">boost/any.hpp</text>
</g>
<!-- Node21&#45;&gt;Node23 -->
<g id="edge108" class="edge"><title>Node21&#45;&gt;Node23</title>
<path style="fill:none;stroke:midnightblue;" d="M385,-112C388,-105 393,-94 397,-85"/>
<polygon style="fill:midnightblue;stroke:midnightblue;" points="400.137,-86.5596 401,-76 393.74,-83.7166 400.137,-86.5596"/>
</g>
<!-- Node24 -->
<g id="node79" class="node"><title>Node24</title>
<polygon style="fill:white;stroke:#bfbfbf;" points="462,-56 462,-76 591,-76 591,-56 462,-56"/>
<text text-anchor="middle" x="526" y="-63" style="font-family:Arial;font-size:10.00;">boost/unordered_map.hpp</text>
</g>
<!-- Node21&#45;&gt;Node24 -->
<g id="edge110" class="edge"><title>Node21&#45;&gt;Node24</title>
<path style="fill:none;stroke:midnightblue;" d="M406,-112C429,-103 464,-90 490,-80"/>
<polygon style="fill:midnightblue;stroke:midnightblue;" points="492.015,-82.9636 500,-76 489.415,-76.4643 492.015,-82.9636"/>
</g>
<!-- Node25&#45;&gt;Node7 -->
<g id="edge128" class="edge"><title>Node25&#45;&gt;Node7</title>
<path style="fill:none;stroke:midnightblue;" d="M1068,-224C1103,-216 1147,-203 1158,-188 1179,-158 1172,-112 1165,-86"/>
<polygon style="fill:midnightblue;stroke:midnightblue;" points="1168.23,-84.5725 1162,-76 1161.52,-86.584 1168.23,-84.5725"/>
</g>
<!-- Node25&#45;&gt;Node15 -->
<g id="edge120" class="edge"><title>Node25&#45;&gt;Node15</title>
<path style="fill:none;stroke:midnightblue;" d="M1007,-224C986,-204 939,-163 914,-139"/>
<polygon style="fill:midnightblue;stroke:midnightblue;" points="915.831,-135.951 906,-132 911.221,-141.219 915.831,-135.951"/>
</g>
<!-- Node25&#45;&gt;Node17 -->
<g id="edge124" class="edge"><title>Node25&#45;&gt;Node17</title>
<path style="fill:none;stroke:midnightblue;" d="M1033,-224C1045,-216 1062,-203 1076,-194"/>
<polygon style="fill:midnightblue;stroke:midnightblue;" points="1078.1,-196.8 1084,-188 1073.9,-191.2 1078.1,-196.8"/>
</g>
<!-- Node25&#45;&gt;Node18 -->
<g id="edge122" class="edge"><title>Node25&#45;&gt;Node18</title>
<path style="fill:none;stroke:midnightblue;" d="M983,-224C950,-215 901,-201 866,-191"/>
<polygon style="fill:midnightblue;stroke:midnightblue;" points="866.584,-187.521 856,-188 864.573,-194.226 866.584,-187.521"/>
</g>
<!-- Node25&#45;&gt;Node20 -->
<g id="edge126" class="edge"><title>Node25&#45;&gt;Node20</title>
<path style="fill:none;stroke:midnightblue;" d="M946,-225C943,-225 940,-224 937,-224 826,-211 697,-196 616,-187"/>
<polygon style="fill:midnightblue;stroke:midnightblue;" points="616.299,-183.512 606,-186 615.602,-190.478 616.299,-183.512"/>
</g>
<!-- Node26&#45;&gt;Node5 -->
<g id="edge132" class="edge"><title>Node26&#45;&gt;Node5</title>
<path style="fill:none;stroke:midnightblue;" d="M80,-224C75,-193 63,-101 112,-56 147,-23 484,-13 588,-10"/>
<polygon style="fill:midnightblue;stroke:midnightblue;" points="588,-13.5001 598,-10 588,-6.5001 588,-13.5001"/>
</g>
</g>
</svg>
