<?xml version="1.0" encoding="UTF-8" standalone="no"?>
<!DOCTYPE svg PUBLIC "-//W3C//DTD SVG 1.0//EN"
 "http://www.w3.org/TR/2001/REC-SVG-20010904/DTD/svg10.dtd" [
 <!ATTLIST svg xmlns:xlink CDATA #FIXED "http://www.w3.org/1999/xlink">
]>
<!-- Generated by Graphviz version 2.20.2 (Tue Mar &#160;2 19:03:41 UTC 2010)
     For user: (jenkins)  -->
<!-- Title: G Pages: 1 -->
<svg width="474pt" height="84pt"
 viewBox="0.00 0.00 474.00 84.00" xmlns="http://www.w3.org/2000/svg" xmlns:xlink="http://www.w3.org/1999/xlink">
<g id="graph0" class="graph" transform="scale(1 1) rotate(0) translate(4 80)">
<title>G</title>
<polygon style="fill:white;stroke:white;" points="-4,4 -4,-80 470,-80 470,4 -4,4"/>
<!-- Node1 -->
<g id="node1" class="node"><title>Node1</title>
<polygon style="fill:#bfbfbf;stroke:black;" points="126,-56 126,-76 324,-76 324,-56 126,-56"/>
<text text-anchor="middle" x="225" y="-63" style="font-family:Arial;font-size:10.00;">ltr/crossvalidation/leave_one_out_splitter.h</text>
</g>
<!-- Node2 -->
<g id="node3" class="node"><title>Node2</title>
<a xlink:href="crossvalidation__unittest_8cc.html" target="_top" xlink:title="ltr/crossvalidation/crossvalidation_unittest.cc">
<polygon style="fill:white;stroke:black;" points="0,-0 0,-20 209,-20 209,-0 0,-0"/>
<text text-anchor="middle" x="104" y="-7" style="font-family:Arial;font-size:10.00;">ltr/crossvalidation/crossvalidation_unittest.cc</text>
</a>
</g>
<!-- Node1&#45;&gt;Node2 -->
<g id="edge2" class="edge"><title>Node1&#45;&gt;Node2</title>
<path style="fill:none;stroke:midnightblue;" d="M194,-52C173,-42 145,-29 126,-20"/>
<polygon style="fill:midnightblue;stroke:midnightblue;" points="192.44,-55.1369 203,-56 195.283,-48.7402 192.44,-55.1369"/>
</g>
<!-- Node3 -->
<g id="node5" class="node"><title>Node3</title>
<a xlink:href="leave__one__out__splitter__unittest_8cc.html" target="_top" xlink:title="ltr/crossvalidation/leave_one_out_splitter_unittest.cc">
<polygon style="fill:white;stroke:black;" points="226,-0 226,-20 467,-20 467,-0 226,-0"/>
<text text-anchor="middle" x="346" y="-7" style="font-family:Arial;font-size:10.00;">ltr/crossvalidation/leave_one_out_splitter_unittest.cc</text>
</a>
</g>
<!-- Node1&#45;&gt;Node3 -->
<g id="edge4" class="edge"><title>Node1&#45;&gt;Node3</title>
<path style="fill:none;stroke:midnightblue;" d="M256,-52C277,-42 305,-29 324,-20"/>
<polygon style="fill:midnightblue;stroke:midnightblue;" points="254.717,-48.7402 247,-56 257.56,-55.1369 254.717,-48.7402"/>
</g>
</g>
</svg>
