<?xml version="1.0" encoding="UTF-8" standalone="no"?>
<!DOCTYPE svg PUBLIC "-//W3C//DTD SVG 1.0//EN"
 "http://www.w3.org/TR/2001/REC-SVG-20010904/DTD/svg10.dtd" [
 <!ATTLIST svg xmlns:xlink CDATA #FIXED "http://www.w3.org/1999/xlink">
]>
<!-- Generated by Graphviz version 2.20.2 (Tue Mar &#160;2 19:03:41 UTC 2010)
     For user: (jenkins)  -->
<!-- Title: G Pages: 1 -->
<svg width="622pt" height="84pt"
 viewBox="0.00 0.00 622.00 84.00" xmlns="http://www.w3.org/2000/svg" xmlns:xlink="http://www.w3.org/1999/xlink">
<g id="graph0" class="graph" transform="scale(1 1) rotate(0) translate(4 80)">
<title>G</title>
<polygon style="fill:white;stroke:white;" points="-4,4 -4,-80 618,-80 618,4 -4,4"/>
<!-- Node1 -->
<g id="node1" class="node"><title>Node1</title>
<polygon style="fill:#bfbfbf;stroke:black;" points="120,-56 120,-76 354,-76 354,-56 120,-56"/>
<text text-anchor="middle" x="237" y="-63" style="font-family:Arial;font-size:10.00;">ltr/learners/linear_learner/linear_learner_unittest.cc</text>
</g>
<!-- Node2 -->
<g id="node3" class="node"><title>Node2</title>
<polygon style="fill:white;stroke:#bfbfbf;" points="0,-0 0,-20 71,-20 71,-0 0,-0"/>
<text text-anchor="middle" x="35" y="-7" style="font-family:Arial;font-size:10.00;">gtest/gtest.h</text>
</g>
<!-- Node1&#45;&gt;Node2 -->
<g id="edge2" class="edge"><title>Node1&#45;&gt;Node2</title>
<path style="fill:none;stroke:midnightblue;" d="M201,-56C167,-47 117,-33 81,-23"/>
<polygon style="fill:midnightblue;stroke:midnightblue;" points="81.584,-19.5212 71,-20 79.5725,-26.2259 81.584,-19.5212"/>
</g>
<!-- Node3 -->
<g id="node5" class="node"><title>Node3</title>
<polygon style="fill:white;stroke:#bfbfbf;" points="88,-0 88,-20 172,-20 172,-0 88,-0"/>
<text text-anchor="middle" x="130" y="-7" style="font-family:Arial;font-size:10.00;">ltr/data/object.h</text>
</g>
<!-- Node1&#45;&gt;Node3 -->
<g id="edge4" class="edge"><title>Node1&#45;&gt;Node3</title>
<path style="fill:none;stroke:midnightblue;" d="M218,-56C202,-47 177,-34 158,-25"/>
<polygon style="fill:midnightblue;stroke:midnightblue;" points="159.441,-21.7969 149,-20 156.042,-27.916 159.441,-21.7969"/>
</g>
<!-- Node4 -->
<g id="node7" class="node"><title>Node4</title>
<polygon style="fill:white;stroke:#bfbfbf;" points="190,-0 190,-20 285,-20 285,-0 190,-0"/>
<text text-anchor="middle" x="237" y="-7" style="font-family:Arial;font-size:10.00;">ltr/data/data_set.h</text>
</g>
<!-- Node1&#45;&gt;Node4 -->
<g id="edge6" class="edge"><title>Node1&#45;&gt;Node4</title>
<path style="fill:none;stroke:midnightblue;" d="M237,-56C237,-49 237,-39 237,-30"/>
<polygon style="fill:midnightblue;stroke:midnightblue;" points="240.5,-30 237,-20 233.5,-30 240.5,-30"/>
</g>
<!-- Node5 -->
<g id="node9" class="node"><title>Node5</title>
<polygon style="fill:white;stroke:#bfbfbf;" points="302,-0 302,-20 493,-20 493,-0 302,-0"/>
<text text-anchor="middle" x="397" y="-7" style="font-family:Arial;font-size:10.00;">ltr/learners/linear_learner/linear_learner.h</text>
</g>
<!-- Node1&#45;&gt;Node5 -->
<g id="edge8" class="edge"><title>Node1&#45;&gt;Node5</title>
<path style="fill:none;stroke:midnightblue;" d="M266,-56C292,-47 330,-33 358,-23"/>
<polygon style="fill:midnightblue;stroke:midnightblue;" points="359.427,-26.2259 368,-20 357.416,-19.5212 359.427,-26.2259"/>
</g>
<!-- Node6 -->
<g id="node11" class="node"><title>Node6</title>
<polygon style="fill:white;stroke:#bfbfbf;" points="510,-0 510,-20 614,-20 614,-0 510,-0"/>
<text text-anchor="middle" x="562" y="-7" style="font-family:Arial;font-size:10.00;">ltr/utility/numerical.h</text>
</g>
<!-- Node1&#45;&gt;Node6 -->
<g id="edge10" class="edge"><title>Node1&#45;&gt;Node6</title>
<path style="fill:none;stroke:midnightblue;" d="M295,-56C353,-47 441,-31 500,-21"/>
<polygon style="fill:midnightblue;stroke:midnightblue;" points="500.881,-24.3933 510,-19 499.508,-17.5292 500.881,-24.3933"/>
</g>
</g>
</svg>
