<?xml version="1.0" encoding="UTF-8" standalone="no"?>
<!DOCTYPE svg PUBLIC "-//W3C//DTD SVG 1.0//EN"
 "http://www.w3.org/TR/2001/REC-SVG-20010904/DTD/svg10.dtd" [
 <!ATTLIST svg xmlns:xlink CDATA #FIXED "http://www.w3.org/1999/xlink">
]>
<!-- Generated by Graphviz version 2.20.2 (Tue Mar &#160;2 19:03:41 UTC 2010)
     For user: (jenkins)  -->
<!-- Title: G Pages: 1 -->
<svg width="1224pt" height="84pt"
 viewBox="0.00 0.00 1224.00 84.00" xmlns="http://www.w3.org/2000/svg" xmlns:xlink="http://www.w3.org/1999/xlink">
<g id="graph0" class="graph" transform="scale(1 1) rotate(0) translate(4 80)">
<title>G</title>
<polygon style="fill:white;stroke:white;" points="-4,4 -4,-80 1220,-80 1220,4 -4,4"/>
<!-- Node1 -->
<g id="node1" class="node"><title>Node1</title>
<polygon style="fill:#bfbfbf;stroke:black;" points="291,-56 291,-76 518,-76 518,-56 291,-56"/>
<text text-anchor="middle" x="404" y="-63" style="font-family:Arial;font-size:10.00;">ltr/scorers/linear_composition_scorer_unittest.cc</text>
</g>
<!-- Node2 -->
<g id="node3" class="node"><title>Node2</title>
<polygon style="fill:white;stroke:#bfbfbf;" points="0,-0 0,-20 71,-20 71,-0 0,-0"/>
<text text-anchor="middle" x="35" y="-7" style="font-family:Arial;font-size:10.00;">gtest/gtest.h</text>
</g>
<!-- Node1&#45;&gt;Node2 -->
<g id="edge2" class="edge"><title>Node1&#45;&gt;Node2</title>
<path style="fill:none;stroke:midnightblue;" d="M321,-56C257,-48 168,-36 81,-20"/>
<polygon style="fill:midnightblue;stroke:midnightblue;" points="81.4922,-16.5292 71,-18 80.1194,-23.3933 81.4922,-16.5292"/>
</g>
<!-- Node3 -->
<g id="node5" class="node"><title>Node3</title>
<polygon style="fill:white;stroke:#bfbfbf;" points="88,-0 88,-20 130,-20 130,-0 88,-0"/>
<text text-anchor="middle" x="109" y="-7" style="font-family:Arial;font-size:10.00;">vector</text>
</g>
<!-- Node1&#45;&gt;Node3 -->
<g id="edge4" class="edge"><title>Node1&#45;&gt;Node3</title>
<path style="fill:none;stroke:midnightblue;" d="M329,-56C278,-48 209,-37 140,-20"/>
<polygon style="fill:midnightblue;stroke:midnightblue;" points="140.584,-16.5212 130,-17 138.573,-23.2259 140.584,-16.5212"/>
</g>
<!-- Node4 -->
<g id="node7" class="node"><title>Node4</title>
<polygon style="fill:white;stroke:#bfbfbf;" points="148,-0 148,-20 252,-20 252,-0 148,-0"/>
<text text-anchor="middle" x="200" y="-7" style="font-family:Arial;font-size:10.00;">ltr/utility/numerical.h</text>
</g>
<!-- Node1&#45;&gt;Node4 -->
<g id="edge6" class="edge"><title>Node1&#45;&gt;Node4</title>
<path style="fill:none;stroke:midnightblue;" d="M368,-56C334,-47 284,-33 247,-23"/>
<polygon style="fill:midnightblue;stroke:midnightblue;" points="247.584,-19.5212 237,-20 245.573,-26.2259 247.584,-19.5212"/>
</g>
<!-- Node5 -->
<g id="node9" class="node"><title>Node5</title>
<polygon style="fill:white;stroke:#bfbfbf;" points="270,-0 270,-20 354,-20 354,-0 270,-0"/>
<text text-anchor="middle" x="312" y="-7" style="font-family:Arial;font-size:10.00;">ltr/data/object.h</text>
</g>
<!-- Node1&#45;&gt;Node5 -->
<g id="edge8" class="edge"><title>Node1&#45;&gt;Node5</title>
<path style="fill:none;stroke:midnightblue;" d="M388,-56C374,-48 353,-35 338,-25"/>
<polygon style="fill:midnightblue;stroke:midnightblue;" points="339.441,-21.7969 329,-20 336.042,-27.916 339.441,-21.7969"/>
</g>
<!-- Node6 -->
<g id="node11" class="node"><title>Node6</title>
<polygon style="fill:white;stroke:#bfbfbf;" points="372,-0 372,-20 620,-20 620,-0 372,-0"/>
<text text-anchor="middle" x="496" y="-7" style="font-family:Arial;font-size:10.00;">ltr/scorers/composition_scorers/composition_scorer.h</text>
</g>
<!-- Node1&#45;&gt;Node6 -->
<g id="edge10" class="edge"><title>Node1&#45;&gt;Node6</title>
<path style="fill:none;stroke:midnightblue;" d="M420,-56C434,-48 455,-35 470,-25"/>
<polygon style="fill:midnightblue;stroke:midnightblue;" points="471.958,-27.916 479,-20 468.559,-21.7969 471.958,-27.916"/>
</g>
<!-- Node7 -->
<g id="node13" class="node"><title>Node7</title>
<polygon style="fill:white;stroke:#bfbfbf;" points="638,-0 638,-20 764,-20 764,-0 638,-0"/>
<text text-anchor="middle" x="701" y="-7" style="font-family:Arial;font-size:10.00;">ltr/scorers/linear_scorer.h</text>
</g>
<!-- Node1&#45;&gt;Node7 -->
<g id="edge12" class="edge"><title>Node1&#45;&gt;Node7</title>
<path style="fill:none;stroke:midnightblue;" d="M457,-56C508,-47 584,-32 638,-22"/>
<polygon style="fill:midnightblue;stroke:midnightblue;" points="638.881,-25.3933 648,-20 637.508,-18.5292 638.881,-25.3933"/>
</g>
<!-- Node8 -->
<g id="node15" class="node"><title>Node8</title>
<polygon style="fill:white;stroke:#bfbfbf;" points="782,-0 782,-20 935,-20 935,-0 782,-0"/>
<text text-anchor="middle" x="858" y="-7" style="font-family:Arial;font-size:10.00;">ltr/scorers/one_feature_scorer.h</text>
</g>
<!-- Node1&#45;&gt;Node8 -->
<g id="edge14" class="edge"><title>Node1&#45;&gt;Node8</title>
<path style="fill:none;stroke:midnightblue;" d="M485,-56C566,-46 690,-31 772,-20"/>
<polygon style="fill:midnightblue;stroke:midnightblue;" points="772.398,-23.4778 782,-19 771.701,-16.5125 772.398,-23.4778"/>
</g>
<!-- Node9 -->
<g id="node17" class="node"><title>Node9</title>
<polygon style="fill:white;stroke:#bfbfbf;" points="952,-0 952,-20 1216,-20 1216,-0 952,-0"/>
<text text-anchor="middle" x="1084" y="-7" style="font-family:Arial;font-size:10.00;">ltr/predictions_aggregators/sum_predictions_aggregator.h</text>
</g>
<!-- Node1&#45;&gt;Node9 -->
<g id="edge16" class="edge"><title>Node1&#45;&gt;Node9</title>
<path style="fill:none;stroke:midnightblue;" d="M518,-57C639,-47 828,-31 954,-21"/>
<polygon style="fill:midnightblue;stroke:midnightblue;" points="954.398,-24.4778 964,-20 953.701,-17.5125 954.398,-24.4778"/>
</g>
</g>
</svg>
