<?xml version="1.0" encoding="UTF-8" standalone="no"?>
<!DOCTYPE svg PUBLIC "-//W3C//DTD SVG 1.0//EN"
 "http://www.w3.org/TR/2001/REC-SVG-20010904/DTD/svg10.dtd" [
 <!ATTLIST svg xmlns:xlink CDATA #FIXED "http://www.w3.org/1999/xlink">
]>
<!-- Generated by Graphviz version 2.20.2 (Tue Mar &#160;2 19:03:41 UTC 2010)
     For user: (jenkins)  -->
<!-- Title: G Pages: 1 -->
<svg width="964pt" height="140pt"
 viewBox="0.00 0.00 964.00 140.00" xmlns="http://www.w3.org/2000/svg" xmlns:xlink="http://www.w3.org/1999/xlink">
<g id="graph0" class="graph" transform="scale(1 1) rotate(0) translate(4 136)">
<title>G</title>
<polygon style="fill:white;stroke:white;" points="-4,4 -4,-136 960,-136 960,4 -4,4"/>
<!-- Node1 -->
<g id="node1" class="node"><title>Node1</title>
<polygon style="fill:#bfbfbf;stroke:black;" points="333,-112 333,-132 459,-132 459,-112 333,-112"/>
<text text-anchor="middle" x="396" y="-119" style="font-family:Arial;font-size:10.00;">ltr/scorers/linear_scorer.h</text>
</g>
<!-- Node2 -->
<g id="node3" class="node"><title>Node2</title>
<a xlink:href="tostring__unittest_8cc.html" target="_top" xlink:title="ltr/data/tostring_unittest.cc">
<polygon style="fill:white;stroke:black;" points="0,-56 0,-76 132,-76 132,-56 0,-56"/>
<text text-anchor="middle" x="66" y="-63" style="font-family:Arial;font-size:10.00;">ltr/data/tostring_unittest.cc</text>
</a>
</g>
<!-- Node1&#45;&gt;Node2 -->
<g id="edge2" class="edge"><title>Node1&#45;&gt;Node2</title>
<path style="fill:none;stroke:midnightblue;" d="M327,-110C267,-100 182,-85 125,-76"/>
<polygon style="fill:midnightblue;stroke:midnightblue;" points="326.508,-113.471 337,-112 327.881,-106.607 326.508,-113.471"/>
</g>
<!-- Node3 -->
<g id="node5" class="node"><title>Node3</title>
<a xlink:href="linear__learner_8h.html" target="_top" xlink:title="ltr/learners/linear_learner/linear_learner.h">
<polygon style="fill:white;stroke:black;" points="188,-56 188,-76 379,-76 379,-56 188,-56"/>
<text text-anchor="middle" x="283" y="-63" style="font-family:Arial;font-size:10.00;">ltr/learners/linear_learner/linear_learner.h</text>
</a>
</g>
<!-- Node1&#45;&gt;Node3 -->
<g id="edge4" class="edge"><title>Node1&#45;&gt;Node3</title>
<path style="fill:none;stroke:midnightblue;" d="M367,-108C347,-98 321,-85 303,-76"/>
<polygon style="fill:midnightblue;stroke:midnightblue;" points="365.44,-111.137 376,-112 368.283,-104.74 365.44,-111.137"/>
</g>
<!-- Node4 -->
<g id="node7" class="node"><title>Node4</title>
<a xlink:href="learners__unittest_8cc.html" target="_top" xlink:title="ltr/learners/learners_unittest.cc">
<polygon style="fill:white;stroke:black;" points="17,-0 17,-20 167,-20 167,-0 17,-0"/>
<text text-anchor="middle" x="92" y="-7" style="font-family:Arial;font-size:10.00;">ltr/learners/learners_unittest.cc</text>
</a>
</g>
<!-- Node1&#45;&gt;Node4 -->
<g id="edge14" class="edge"><title>Node1&#45;&gt;Node4</title>
<path style="fill:none;stroke:midnightblue;" d="M323,-115C279,-108 224,-96 179,-76 147,-61 117,-35 102,-20"/>
<polygon style="fill:midnightblue;stroke:midnightblue;" points="322.701,-118.488 333,-116 323.398,-111.522 322.701,-118.488"/>
</g>
<!-- Node8 -->
<g id="node16" class="node"><title>Node8</title>
<a xlink:href="linear__composition__scorer__unittest_8cc.html" target="_top" xlink:title="ltr/scorers/linear_composition_scorer_unittest.cc">
<polygon style="fill:white;stroke:black;" points="396,-56 396,-76 623,-76 623,-56 396,-56"/>
<text text-anchor="middle" x="509" y="-63" style="font-family:Arial;font-size:10.00;">ltr/scorers/linear_composition_scorer_unittest.cc</text>
</a>
</g>
<!-- Node1&#45;&gt;Node8 -->
<g id="edge16" class="edge"><title>Node1&#45;&gt;Node8</title>
<path style="fill:none;stroke:midnightblue;" d="M425,-108C445,-98 471,-85 489,-76"/>
<polygon style="fill:midnightblue;stroke:midnightblue;" points="423.717,-104.74 416,-112 426.56,-111.137 423.717,-104.74"/>
</g>
<!-- Node9 -->
<g id="node18" class="node"><title>Node9</title>
<a xlink:href="linear__scorer_8cc.html" target="_top" xlink:title="ltr/scorers/linear_scorer.cc">
<polygon style="fill:white;stroke:black;" points="640,-56 640,-76 771,-76 771,-56 640,-56"/>
<text text-anchor="middle" x="705" y="-63" style="font-family:Arial;font-size:10.00;">ltr/scorers/linear_scorer.cc</text>
</a>
</g>
<!-- Node1&#45;&gt;Node9 -->
<g id="edge18" class="edge"><title>Node1&#45;&gt;Node9</title>
<path style="fill:none;stroke:midnightblue;" d="M461,-110C517,-100 597,-85 650,-76"/>
<polygon style="fill:midnightblue;stroke:midnightblue;" points="460.119,-106.607 451,-112 461.492,-113.471 460.119,-106.607"/>
</g>
<!-- Node10 -->
<g id="node20" class="node"><title>Node10</title>
<a xlink:href="linear__scorer__unittest_8cc.html" target="_top" xlink:title="ltr/scorers/linear_scorer_unittest.cc">
<polygon style="fill:white;stroke:black;" points="788,-56 788,-76 957,-76 957,-56 788,-56"/>
<text text-anchor="middle" x="872" y="-63" style="font-family:Arial;font-size:10.00;">ltr/scorers/linear_scorer_unittest.cc</text>
</a>
</g>
<!-- Node1&#45;&gt;Node10 -->
<g id="edge20" class="edge"><title>Node1&#45;&gt;Node10</title>
<path style="fill:none;stroke:midnightblue;" d="M469,-114C555,-104 698,-87 788,-76"/>
<polygon style="fill:midnightblue;stroke:midnightblue;" points="468.602,-110.522 459,-115 469.299,-117.488 468.602,-110.522"/>
</g>
<!-- Node3&#45;&gt;Node4 -->
<g id="edge6" class="edge"><title>Node3&#45;&gt;Node4</title>
<path style="fill:none;stroke:midnightblue;" d="M239,-53C205,-43 158,-29 126,-20"/>
<polygon style="fill:midnightblue;stroke:midnightblue;" points="238.416,-56.4788 249,-56 240.427,-49.7741 238.416,-56.4788"/>
</g>
<!-- Node5 -->
<g id="node9" class="node"><title>Node5</title>
<a xlink:href="linear__learner_8cc.html" target="_top" xlink:title="ltr/learners/linear_learner/linear_learner.cc">
<polygon style="fill:white;stroke:black;" points="185,-0 185,-20 381,-20 381,-0 185,-0"/>
<text text-anchor="middle" x="283" y="-7" style="font-family:Arial;font-size:10.00;">ltr/learners/linear_learner/linear_learner.cc</text>
</a>
</g>
<!-- Node3&#45;&gt;Node5 -->
<g id="edge8" class="edge"><title>Node3&#45;&gt;Node5</title>
<path style="fill:none;stroke:midnightblue;" d="M283,-46C283,-37 283,-28 283,-20"/>
<polygon style="fill:midnightblue;stroke:midnightblue;" points="279.5,-46 283,-56 286.5,-46 279.5,-46"/>
</g>
<!-- Node6 -->
<g id="node11" class="node"><title>Node6</title>
<a xlink:href="linear__learner__unittest_8cc.html" target="_top" xlink:title="ltr/learners/linear_learner/linear_learner_unittest.cc">
<polygon style="fill:white;stroke:black;" points="399,-0 399,-20 633,-20 633,-0 399,-0"/>
<text text-anchor="middle" x="516" y="-7" style="font-family:Arial;font-size:10.00;">ltr/learners/linear_learner/linear_learner_unittest.cc</text>
</a>
</g>
<!-- Node3&#45;&gt;Node6 -->
<g id="edge10" class="edge"><title>Node3&#45;&gt;Node6</title>
<path style="fill:none;stroke:midnightblue;" d="M335,-54C377,-44 435,-29 474,-20"/>
<polygon style="fill:midnightblue;stroke:midnightblue;" points="334.119,-50.6067 325,-56 335.492,-57.4708 334.119,-50.6067"/>
</g>
<!-- Node7 -->
<g id="node13" class="node"><title>Node7</title>
<a xlink:href="generator_8cc.html" target="_top" xlink:title="ltr/serialization_test/generator/generator.cc">
<polygon style="fill:white;stroke:black;" points="651,-0 651,-20 852,-20 852,-0 651,-0"/>
<text text-anchor="middle" x="751" y="-7" style="font-family:Arial;font-size:10.00;">ltr/serialization_test/generator/generator.cc</text>
</a>
</g>
<!-- Node3&#45;&gt;Node7 -->
<g id="edge12" class="edge"><title>Node3&#45;&gt;Node7</title>
<path style="fill:none;stroke:midnightblue;" d="M377,-55C462,-45 586,-30 668,-20"/>
<polygon style="fill:midnightblue;stroke:midnightblue;" points="376.602,-51.5222 367,-56 377.299,-58.4875 376.602,-51.5222"/>
</g>
</g>
</svg>
