<?xml version="1.0" encoding="UTF-8" standalone="no"?>
<!DOCTYPE svg PUBLIC "-//W3C//DTD SVG 1.0//EN"
 "http://www.w3.org/TR/2001/REC-SVG-20010904/DTD/svg10.dtd" [
 <!ATTLIST svg xmlns:xlink CDATA #FIXED "http://www.w3.org/1999/xlink">
]>
<!-- Generated by Graphviz version 2.20.2 (Tue Mar &#160;2 19:03:41 UTC 2010)
     For user: (jenkins)  -->
<!-- Title: G Pages: 1 -->
<svg width="586pt" height="84pt"
 viewBox="0.00 0.00 586.00 84.00" xmlns="http://www.w3.org/2000/svg" xmlns:xlink="http://www.w3.org/1999/xlink">
<g id="graph0" class="graph" transform="scale(1 1) rotate(0) translate(4 80)">
<title>G</title>
<polygon style="fill:white;stroke:white;" points="-4,4 -4,-80 582,-80 582,4 -4,4"/>
<!-- Node1 -->
<g id="node1" class="node"><title>Node1</title>
<polygon style="fill:#bfbfbf;stroke:black;" points="120,-56 120,-76 311,-76 311,-56 120,-56"/>
<text text-anchor="middle" x="215" y="-63" style="font-family:Arial;font-size:10.00;">ltr/learners/linear_learner/linear_learner.h</text>
</g>
<!-- Node2 -->
<g id="node3" class="node"><title>Node2</title>
<polygon style="fill:white;stroke:#bfbfbf;" points="0,-0 0,-20 72,-20 72,-0 0,-0"/>
<text text-anchor="middle" x="36" y="-7" style="font-family:Arial;font-size:10.00;">Eigen/Dense</text>
</g>
<!-- Node1&#45;&gt;Node2 -->
<g id="edge2" class="edge"><title>Node1&#45;&gt;Node2</title>
<path style="fill:none;stroke:midnightblue;" d="M183,-56C154,-47 110,-33 78,-23"/>
<polygon style="fill:midnightblue;stroke:midnightblue;" points="78.584,-19.5212 68,-20 76.5725,-26.2259 78.584,-19.5212"/>
</g>
<!-- Node3 -->
<g id="node5" class="node"><title>Node3</title>
<polygon style="fill:white;stroke:#bfbfbf;" points="90,-0 90,-20 130,-20 130,-0 90,-0"/>
<text text-anchor="middle" x="110" y="-7" style="font-family:Arial;font-size:10.00;">string</text>
</g>
<!-- Node1&#45;&gt;Node3 -->
<g id="edge4" class="edge"><title>Node1&#45;&gt;Node3</title>
<path style="fill:none;stroke:midnightblue;" d="M196,-56C180,-47 156,-35 138,-25"/>
<polygon style="fill:midnightblue;stroke:midnightblue;" points="139.441,-21.7969 129,-20 136.042,-27.916 139.441,-21.7969"/>
</g>
<!-- Node4 -->
<g id="node7" class="node"><title>Node4</title>
<polygon style="fill:white;stroke:#bfbfbf;" points="148,-0 148,-20 190,-20 190,-0 148,-0"/>
<text text-anchor="middle" x="169" y="-7" style="font-family:Arial;font-size:10.00;">vector</text>
</g>
<!-- Node1&#45;&gt;Node4 -->
<g id="edge6" class="edge"><title>Node1&#45;&gt;Node4</title>
<path style="fill:none;stroke:midnightblue;" d="M207,-56C201,-48 192,-38 184,-28"/>
<polygon style="fill:midnightblue;stroke:midnightblue;" points="186.8,-25.9 178,-20 181.2,-30.1 186.8,-25.9"/>
</g>
<!-- Node5 -->
<g id="node9" class="node"><title>Node5</title>
<polygon style="fill:white;stroke:#bfbfbf;" points="208,-0 208,-20 315,-20 315,-0 208,-0"/>
<text text-anchor="middle" x="261" y="-7" style="font-family:Arial;font-size:10.00;">ltr/utility/shared_ptr.h</text>
</g>
<!-- Node1&#45;&gt;Node5 -->
<g id="edge8" class="edge"><title>Node1&#45;&gt;Node5</title>
<path style="fill:none;stroke:midnightblue;" d="M223,-56C229,-48 238,-38 246,-28"/>
<polygon style="fill:midnightblue;stroke:midnightblue;" points="248.8,-30.1 252,-20 243.2,-25.9 248.8,-30.1"/>
</g>
<!-- Node6 -->
<g id="node11" class="node"><title>Node6</title>
<polygon style="fill:white;stroke:#bfbfbf;" points="332,-0 332,-20 434,-20 434,-0 332,-0"/>
<text text-anchor="middle" x="383" y="-7" style="font-family:Arial;font-size:10.00;">ltr/learners/learner.h</text>
</g>
<!-- Node1&#45;&gt;Node6 -->
<g id="edge10" class="edge"><title>Node1&#45;&gt;Node6</title>
<path style="fill:none;stroke:midnightblue;" d="M245,-56C272,-47 313,-33 343,-23"/>
<polygon style="fill:midnightblue;stroke:midnightblue;" points="344.427,-26.2259 353,-20 342.416,-19.5212 344.427,-26.2259"/>
</g>
<!-- Node7 -->
<g id="node13" class="node"><title>Node7</title>
<polygon style="fill:white;stroke:#bfbfbf;" points="452,-0 452,-20 578,-20 578,-0 452,-0"/>
<text text-anchor="middle" x="515" y="-7" style="font-family:Arial;font-size:10.00;">ltr/scorers/linear_scorer.h</text>
</g>
<!-- Node1&#45;&gt;Node7 -->
<g id="edge12" class="edge"><title>Node1&#45;&gt;Node7</title>
<path style="fill:none;stroke:midnightblue;" d="M269,-56C320,-47 397,-32 452,-22"/>
<polygon style="fill:midnightblue;stroke:midnightblue;" points="452.881,-25.3933 462,-20 451.508,-18.5292 452.881,-25.3933"/>
</g>
</g>
</svg>
