<?xml version="1.0" encoding="UTF-8" standalone="no"?>
<!DOCTYPE svg PUBLIC "-//W3C//DTD SVG 1.0//EN"
 "http://www.w3.org/TR/2001/REC-SVG-20010904/DTD/svg10.dtd" [
 <!ATTLIST svg xmlns:xlink CDATA #FIXED "http://www.w3.org/1999/xlink">
]>
<!-- Generated by Graphviz version 2.20.2 (Tue Mar &#160;2 19:03:41 UTC 2010)
     For user: (jenkins)  -->
<!-- Title: G Pages: 1 -->
<svg width="2287pt" height="532pt"
 viewBox="0.00 0.00 2287.00 532.00" xmlns="http://www.w3.org/2000/svg" xmlns:xlink="http://www.w3.org/1999/xlink">
<g id="graph0" class="graph" transform="scale(1 1) rotate(0) translate(4 528)">
<title>G</title>
<polygon style="fill:white;stroke:white;" points="-4,4 -4,-528 2283,-528 2283,4 -4,4"/>
<!-- Node1 -->
<g id="node1" class="node"><title>Node1</title>
<polygon style="fill:#bfbfbf;stroke:black;" points="136,-504 136,-524 305,-524 305,-504 136,-504"/>
<text text-anchor="middle" x="220" y="-511" style="font-family:Arial;font-size:10.00;">ltr/scorers/linear_scorer_unittest.cc</text>
</g>
<!-- Node2 -->
<g id="node3" class="node"><title>Node2</title>
<polygon style="fill:white;stroke:#bfbfbf;" points="0,-448 0,-468 71,-468 71,-448 0,-448"/>
<text text-anchor="middle" x="35" y="-455" style="font-family:Arial;font-size:10.00;">gtest/gtest.h</text>
</g>
<!-- Node1&#45;&gt;Node2 -->
<g id="edge2" class="edge"><title>Node1&#45;&gt;Node2</title>
<path style="fill:none;stroke:midnightblue;" d="M187,-504C157,-495 112,-481 78,-471"/>
<polygon style="fill:midnightblue;stroke:midnightblue;" points="78.584,-467.521 68,-468 76.5725,-474.226 78.584,-467.521"/>
</g>
<!-- Node3 -->
<g id="node5" class="node"><title>Node3</title>
<polygon style="fill:white;stroke:#bfbfbf;" points="455,-56 455,-76 497,-76 497,-56 455,-56"/>
<text text-anchor="middle" x="476" y="-63" style="font-family:Arial;font-size:10.00;">vector</text>
</g>
<!-- Node1&#45;&gt;Node3 -->
<g id="edge4" class="edge"><title>Node1&#45;&gt;Node3</title>
<path style="fill:none;stroke:midnightblue;" d="M221,-504C222,-477 225,-405 225,-346 225,-346 225,-346 225,-178 225,-137 252,-132 287,-112 336,-83 405,-72 445,-68"/>
<polygon style="fill:midnightblue;stroke:midnightblue;" points="445.398,-71.4778 455,-67 444.701,-64.5125 445.398,-71.4778"/>
</g>
<!-- Node4 -->
<g id="node7" class="node"><title>Node4</title>
<a xlink:href="numerical_8h.html" target="_top" xlink:title="ltr/utility/numerical.h">
<polygon style="fill:white;stroke:black;" points="88,-448 88,-468 192,-468 192,-448 88,-448"/>
<text text-anchor="middle" x="140" y="-455" style="font-family:Arial;font-size:10.00;">ltr/utility/numerical.h</text>
</a>
</g>
<!-- Node1&#45;&gt;Node4 -->
<g id="edge6" class="edge"><title>Node1&#45;&gt;Node4</title>
<path style="fill:none;stroke:midnightblue;" d="M206,-504C195,-496 177,-484 163,-474"/>
<polygon style="fill:midnightblue;stroke:midnightblue;" points="165.1,-471.2 155,-468 160.9,-476.8 165.1,-471.2"/>
</g>
<!-- Node7 -->
<g id="node13" class="node"><title>Node7</title>
<a xlink:href="object_8h.html" target="_top" xlink:title="ltr/data/object.h">
<polygon style="fill:white;stroke:black;" points="721,-112 721,-132 805,-132 805,-112 721,-112"/>
<text text-anchor="middle" x="763" y="-119" style="font-family:Arial;font-size:10.00;">ltr/data/object.h</text>
</a>
</g>
<!-- Node1&#45;&gt;Node7 -->
<g id="edge12" class="edge"><title>Node1&#45;&gt;Node7</title>
<path style="fill:none;stroke:midnightblue;" d="M287,-504C318,-497 354,-486 383,-468 530,-373 494,-268 638,-168 660,-152 687,-142 711,-135"/>
<polygon style="fill:midnightblue;stroke:midnightblue;" points="712.427,-138.226 721,-132 710.416,-131.521 712.427,-138.226"/>
</g>
<!-- Node17 -->
<g id="node36" class="node"><title>Node17</title>
<a xlink:href="linear__scorer_8h.html" target="_top" xlink:title="ltr/scorers/linear_scorer.h">
<polygon style="fill:white;stroke:black;" points="248,-448 248,-468 374,-468 374,-448 248,-448"/>
<text text-anchor="middle" x="311" y="-455" style="font-family:Arial;font-size:10.00;">ltr/scorers/linear_scorer.h</text>
</a>
</g>
<!-- Node1&#45;&gt;Node17 -->
<g id="edge38" class="edge"><title>Node1&#45;&gt;Node17</title>
<path style="fill:none;stroke:midnightblue;" d="M236,-504C249,-496 270,-483 285,-473"/>
<polygon style="fill:midnightblue;stroke:midnightblue;" points="286.958,-475.916 294,-468 283.559,-469.797 286.958,-475.916"/>
</g>
<!-- Node5 -->
<g id="node9" class="node"><title>Node5</title>
<polygon style="fill:white;stroke:#bfbfbf;" points="61,-392 61,-412 104,-412 104,-392 61,-392"/>
<text text-anchor="middle" x="82" y="-399" style="font-family:Arial;font-size:10.00;">cmath</text>
</g>
<!-- Node4&#45;&gt;Node5 -->
<g id="edge8" class="edge"><title>Node4&#45;&gt;Node5</title>
<path style="fill:none;stroke:midnightblue;" d="M130,-448C121,-440 110,-429 100,-419"/>
<polygon style="fill:midnightblue;stroke:midnightblue;" points="102.546,-416.596 93,-412 97.5962,-421.546 102.546,-416.596"/>
</g>
<!-- Node6 -->
<g id="node11" class="node"><title>Node6</title>
<polygon style="fill:white;stroke:#bfbfbf;" points="121,-392 121,-412 160,-412 160,-392 121,-392"/>
<text text-anchor="middle" x="140" y="-399" style="font-family:Arial;font-size:10.00;">limits</text>
</g>
<!-- Node4&#45;&gt;Node6 -->
<g id="edge10" class="edge"><title>Node4&#45;&gt;Node6</title>
<path style="fill:none;stroke:midnightblue;" d="M140,-448C140,-441 140,-431 140,-422"/>
<polygon style="fill:midnightblue;stroke:midnightblue;" points="143.5,-422 140,-412 136.5,-422 143.5,-422"/>
</g>
<!-- Node7&#45;&gt;Node3 -->
<g id="edge22" class="edge"><title>Node7&#45;&gt;Node3</title>
<path style="fill:none;stroke:midnightblue;" d="M721,-114C663,-103 559,-82 507,-72"/>
<polygon style="fill:midnightblue;stroke:midnightblue;" points="507.492,-68.5292 497,-70 506.119,-75.3933 507.492,-68.5292"/>
</g>
<!-- Node8 -->
<g id="node15" class="node"><title>Node8</title>
<polygon style="fill:white;stroke:#bfbfbf;" points="577,-56 577,-76 612,-76 612,-56 577,-56"/>
<text text-anchor="middle" x="594" y="-63" style="font-family:Arial;font-size:10.00;">map</text>
</g>
<!-- Node7&#45;&gt;Node8 -->
<g id="edge14" class="edge"><title>Node7&#45;&gt;Node8</title>
<path style="fill:none;stroke:midnightblue;" d="M733,-112C702,-102 652,-86 622,-75"/>
<polygon style="fill:midnightblue;stroke:midnightblue;" points="622.584,-71.5212 612,-72 620.573,-78.2259 622.584,-71.5212"/>
</g>
<!-- Node9 -->
<g id="node17" class="node"><title>Node9</title>
<polygon style="fill:white;stroke:#bfbfbf;" points="754,-0 754,-20 805,-20 805,-0 754,-0"/>
<text text-anchor="middle" x="779" y="-7" style="font-family:Arial;font-size:10.00;">ostream</text>
</g>
<!-- Node7&#45;&gt;Node9 -->
<g id="edge16" class="edge"><title>Node7&#45;&gt;Node9</title>
<path style="fill:none;stroke:midnightblue;" d="M755,-112C746,-99 734,-75 741,-56 745,-46 752,-36 759,-27"/>
<polygon style="fill:midnightblue;stroke:midnightblue;" points="761.779,-29.2191 767,-20 757.169,-23.9511 761.779,-29.2191"/>
</g>
<!-- Node10 -->
<g id="node19" class="node"><title>Node10</title>
<polygon style="fill:white;stroke:#bfbfbf;" points="1013,-56 1013,-76 1072,-76 1072,-56 1013,-56"/>
<text text-anchor="middle" x="1042" y="-63" style="font-family:Arial;font-size:10.00;">stdexcept</text>
</g>
<!-- Node7&#45;&gt;Node10 -->
<g id="edge18" class="edge"><title>Node7&#45;&gt;Node10</title>
<path style="fill:none;stroke:midnightblue;" d="M805,-114C858,-103 951,-84 1003,-74"/>
<polygon style="fill:midnightblue;stroke:midnightblue;" points="1003.88,-77.3933 1013,-72 1002.51,-70.5292 1003.88,-77.3933"/>
</g>
<!-- Node11 -->
<g id="node21" class="node"><title>Node11</title>
<polygon style="fill:white;stroke:#bfbfbf;" points="1022,-0 1022,-20 1062,-20 1062,-0 1022,-0"/>
<text text-anchor="middle" x="1042" y="-7" style="font-family:Arial;font-size:10.00;">string</text>
</g>
<!-- Node7&#45;&gt;Node11 -->
<g id="edge20" class="edge"><title>Node7&#45;&gt;Node11</title>
<path style="fill:none;stroke:midnightblue;" d="M761,-112C760,-97 759,-71 774,-56 806,-23 948,-13 1012,-11"/>
<polygon style="fill:midnightblue;stroke:midnightblue;" points="1012,-14.5001 1022,-11 1012,-7.5001 1012,-14.5001"/>
</g>
<!-- Node12 -->
<g id="node24" class="node"><title>Node12</title>
<a xlink:href="printable_8h.html" target="_top" xlink:title="ltr/interfaces/printable.h">
<polygon style="fill:white;stroke:black;" points="783,-56 783,-76 900,-76 900,-56 783,-56"/>
<text text-anchor="middle" x="841" y="-63" style="font-family:Arial;font-size:10.00;">ltr/interfaces/printable.h</text>
</a>
</g>
<!-- Node7&#45;&gt;Node12 -->
<g id="edge24" class="edge"><title>Node7&#45;&gt;Node12</title>
<path style="fill:none;stroke:midnightblue;" d="M777,-112C788,-104 805,-92 819,-82"/>
<polygon style="fill:midnightblue;stroke:midnightblue;" points="821.1,-84.8 827,-76 816.9,-79.2 821.1,-84.8"/>
</g>
<!-- Node13 -->
<g id="node28" class="node"><title>Node13</title>
<a xlink:href="shared__ptr_8h.html" target="_top" xlink:title="ltr/utility/shared_ptr.h">
<polygon style="fill:white;stroke:black;" points="1875,-56 1875,-76 1982,-76 1982,-56 1875,-56"/>
<text text-anchor="middle" x="1928" y="-63" style="font-family:Arial;font-size:10.00;">ltr/utility/shared_ptr.h</text>
</a>
</g>
<!-- Node7&#45;&gt;Node13 -->
<g id="edge30" class="edge"><title>Node7&#45;&gt;Node13</title>
<path style="fill:none;stroke:midnightblue;" d="M805,-120C981,-111 1654,-79 1865,-69"/>
<polygon style="fill:midnightblue;stroke:midnightblue;" points="1865,-72.5001 1875,-69 1865,-65.5001 1865,-72.5001"/>
</g>
<!-- Node12&#45;&gt;Node9 -->
<g id="edge26" class="edge"><title>Node12&#45;&gt;Node9</title>
<path style="fill:none;stroke:midnightblue;" d="M830,-56C821,-48 808,-37 798,-27"/>
<polygon style="fill:midnightblue;stroke:midnightblue;" points="799.831,-23.9511 790,-20 795.221,-29.2191 799.831,-23.9511"/>
</g>
<!-- Node12&#45;&gt;Node11 -->
<g id="edge28" class="edge"><title>Node12&#45;&gt;Node11</title>
<path style="fill:none;stroke:midnightblue;" d="M877,-56C915,-45 976,-28 1012,-19"/>
<polygon style="fill:midnightblue;stroke:midnightblue;" points="1013.43,-22.2259 1022,-16 1011.42,-15.5212 1013.43,-22.2259"/>
</g>
<!-- Node14 -->
<g id="node30" class="node"><title>Node14</title>
<polygon style="fill:white;stroke:#bfbfbf;" points="1801,-0 1801,-20 1857,-20 1857,-0 1801,-0"/>
<text text-anchor="middle" x="1829" y="-7" style="font-family:Arial;font-size:10.00;">algorithm</text>
</g>
<!-- Node13&#45;&gt;Node14 -->
<g id="edge32" class="edge"><title>Node13&#45;&gt;Node14</title>
<path style="fill:none;stroke:midnightblue;" d="M1910,-56C1895,-48 1873,-35 1856,-25"/>
<polygon style="fill:midnightblue;stroke:midnightblue;" points="1857.44,-21.7969 1847,-20 1854.04,-27.916 1857.44,-21.7969"/>
</g>
<!-- Node15 -->
<g id="node32" class="node"><title>Node15</title>
<polygon style="fill:white;stroke:#bfbfbf;" points="1875,-0 1875,-20 1982,-20 1982,-0 1875,-0"/>
<text text-anchor="middle" x="1928" y="-7" style="font-family:Arial;font-size:10.00;">boost/shared_ptr.hpp</text>
</g>
<!-- Node13&#45;&gt;Node15 -->
<g id="edge34" class="edge"><title>Node13&#45;&gt;Node15</title>
<path style="fill:none;stroke:midnightblue;" d="M1928,-56C1928,-49 1928,-39 1928,-30"/>
<polygon style="fill:midnightblue;stroke:midnightblue;" points="1931.5,-30 1928,-20 1924.5,-30 1931.5,-30"/>
</g>
<!-- Node16 -->
<g id="node34" class="node"><title>Node16</title>
<polygon style="fill:white;stroke:#bfbfbf;" points="1999,-0 1999,-20 2190,-20 2190,-0 1999,-0"/>
<text text-anchor="middle" x="2094" y="-7" style="font-family:Arial;font-size:10.00;">boost/smart_ptr/detail/operator_bool.hpp</text>
</g>
<!-- Node13&#45;&gt;Node16 -->
<g id="edge36" class="edge"><title>Node13&#45;&gt;Node16</title>
<path style="fill:none;stroke:midnightblue;" d="M1958,-56C1985,-47 2025,-33 2054,-23"/>
<polygon style="fill:midnightblue;stroke:midnightblue;" points="2055.43,-26.2259 2064,-20 2053.42,-19.5212 2055.43,-26.2259"/>
</g>
<!-- Node17&#45;&gt;Node3 -->
<g id="edge42" class="edge"><title>Node17&#45;&gt;Node3</title>
<path style="fill:none;stroke:midnightblue;" d="M305,-448C295,-429 275,-385 275,-346 275,-346 275,-346 275,-178 275,-101 388,-76 445,-69"/>
<polygon style="fill:midnightblue;stroke:midnightblue;" points="445.398,-72.4778 455,-68 444.701,-65.5125 445.398,-72.4778"/>
</g>
<!-- Node17&#45;&gt;Node11 -->
<g id="edge40" class="edge"><title>Node17&#45;&gt;Node11</title>
<path style="fill:none;stroke:midnightblue;" d="M284,-448C248,-432 187,-398 187,-346 187,-346 187,-346 187,-122 187,-12 316,-74 424,-56 539,-36 904,-16 1012,-11"/>
<polygon style="fill:midnightblue;stroke:midnightblue;" points="1012,-14.5001 1022,-11 1012,-7.5001 1012,-14.5001"/>
</g>
<!-- Node18 -->
<g id="node40" class="node"><title>Node18</title>
<a xlink:href="scorer_8h.html" target="_top" xlink:title="ltr/scorers/scorer.h">
<polygon style="fill:white;stroke:black;" points="804,-392 804,-412 901,-412 901,-392 804,-392"/>
<text text-anchor="middle" x="852" y="-399" style="font-family:Arial;font-size:10.00;">ltr/scorers/scorer.h</text>
</a>
</g>
<!-- Node17&#45;&gt;Node18 -->
<g id="edge44" class="edge"><title>Node17&#45;&gt;Node18</title>
<path style="fill:none;stroke:midnightblue;" d="M374,-451C480,-440 691,-419 794,-408"/>
<polygon style="fill:midnightblue;stroke:midnightblue;" points="794.398,-411.478 804,-407 793.701,-404.512 794.398,-411.478"/>
</g>
<!-- Node18&#45;&gt;Node3 -->
<g id="edge48" class="edge"><title>Node18&#45;&gt;Node3</title>
<path style="fill:none;stroke:midnightblue;" d="M804,-399C733,-395 598,-383 487,-356 406,-336 313,-372 313,-290 313,-290 313,-290 313,-178 313,-115 398,-84 445,-72"/>
<polygon style="fill:midnightblue;stroke:midnightblue;" points="445.881,-75.3933 455,-70 444.508,-68.5292 445.881,-75.3933"/>
</g>
<!-- Node18&#45;&gt;Node7 -->
<g id="edge56" class="edge"><title>Node18&#45;&gt;Node7</title>
<path style="fill:none;stroke:midnightblue;" d="M804,-399C718,-392 544,-376 527,-356 499,-324 441,-323 638,-168 659,-151 687,-140 711,-133"/>
<polygon style="fill:midnightblue;stroke:midnightblue;" points="712.427,-136.226 721,-130 710.416,-129.521 712.427,-136.226"/>
</g>
<!-- Node18&#45;&gt;Node11 -->
<g id="edge50" class="edge"><title>Node18&#45;&gt;Node11</title>
<path style="fill:none;stroke:midnightblue;" d="M821,-392C705,-353 307,-204 446,-56 465,-35 893,-16 1012,-11"/>
<polygon style="fill:midnightblue;stroke:midnightblue;" points="1012,-14.5001 1022,-11 1012,-7.5001 1012,-14.5001"/>
</g>
<!-- Node18&#45;&gt;Node12 -->
<g id="edge196" class="edge"><title>Node18&#45;&gt;Node12</title>
<path style="fill:none;stroke:midnightblue;" d="M804,-399C713,-393 522,-377 502,-356 484,-338 497,-324 496,-300 489,-172 595,-163 712,-112 740,-100 773,-88 798,-79"/>
<polygon style="fill:midnightblue;stroke:midnightblue;" points="799.427,-82.2259 808,-76 797.416,-75.5212 799.427,-82.2259"/>
</g>
<!-- Node18&#45;&gt;Node13 -->
<g id="edge198" class="edge"><title>Node18&#45;&gt;Node13</title>
<path style="fill:none;stroke:midnightblue;" d="M901,-401C1093,-399 1792,-387 2012,-356 2133,-338 2279,-412 2279,-290 2279,-290 2279,-290 2279,-178 2279,-118 2094,-86 1992,-73"/>
<polygon style="fill:midnightblue;stroke:midnightblue;" points="1992.3,-69.5125 1982,-72 1991.6,-76.4778 1992.3,-69.5125"/>
</g>
<!-- Node19 -->
<g id="node42" class="node"><title>Node19</title>
<polygon style="fill:white;stroke:#bfbfbf;" points="1985,-112 1985,-132 2099,-132 2099,-112 1985,-112"/>
<text text-anchor="middle" x="2042" y="-119" style="font-family:Arial;font-size:10.00;">boost/lexical_cast.hpp</text>
</g>
<!-- Node18&#45;&gt;Node19 -->
<g id="edge46" class="edge"><title>Node18&#45;&gt;Node19</title>
<path style="fill:none;stroke:midnightblue;" d="M901,-401C1100,-396 1838,-378 1941,-356 2013,-339 2094,-364 2094,-290 2094,-290 2094,-290 2094,-234 2094,-203 2088,-195 2075,-168 2071,-158 2063,-148 2057,-140"/>
<polygon style="fill:midnightblue;stroke:midnightblue;" points="2059.8,-137.9 2051,-132 2054.2,-142.1 2059.8,-137.9"/>
</g>
<!-- Node20 -->
<g id="node46" class="node"><title>Node20</title>
<a xlink:href="aliaser_8h.html" target="_top" xlink:title="ltr/interfaces/aliaser.h">
<polygon style="fill:white;stroke:black;" points="1597,-112 1597,-132 1705,-132 1705,-112 1597,-112"/>
<text text-anchor="middle" x="1651" y="-119" style="font-family:Arial;font-size:10.00;">ltr/interfaces/aliaser.h</text>
</a>
</g>
<!-- Node18&#45;&gt;Node20 -->
<g id="edge52" class="edge"><title>Node18&#45;&gt;Node20</title>
<path style="fill:none;stroke:midnightblue;" d="M901,-399C975,-394 1117,-382 1236,-356 1313,-338 1331,-327 1406,-300 1468,-277 1486,-275 1546,-244 1584,-223 1601,-223 1628,-188 1637,-175 1644,-156 1647,-142"/>
<polygon style="fill:midnightblue;stroke:midnightblue;" points="1650.47,-142.492 1649,-132 1643.61,-141.119 1650.47,-142.492"/>
</g>
<!-- Node21 -->
<g id="node50" class="node"><title>Node21</title>
<a xlink:href="feature__converter_8h.html" target="_top" xlink:title="ltr/feature_converters/feature_converter.h">
<polygon style="fill:white;stroke:black;" points="1037,-336 1037,-356 1227,-356 1227,-336 1037,-336"/>
<text text-anchor="middle" x="1132" y="-343" style="font-family:Arial;font-size:10.00;">ltr/feature_converters/feature_converter.h</text>
</a>
</g>
<!-- Node18&#45;&gt;Node21 -->
<g id="edge58" class="edge"><title>Node18&#45;&gt;Node21</title>
<path style="fill:none;stroke:midnightblue;" d="M901,-392C948,-383 1020,-368 1071,-358"/>
<polygon style="fill:midnightblue;stroke:midnightblue;" points="1071.88,-361.393 1081,-356 1070.51,-354.529 1071.88,-361.393"/>
</g>
<!-- Node36 -->
<g id="node126" class="node"><title>Node36</title>
<a xlink:href="serializable__functor_8h.html" target="_top" xlink:title="ltr/interfaces/serializable_functor.h">
<polygon style="fill:white;stroke:black;" points="1866,-224 1866,-244 2029,-244 2029,-224 1866,-224"/>
<text text-anchor="middle" x="1947" y="-231" style="font-family:Arial;font-size:10.00;">ltr/interfaces/serializable_functor.h</text>
</a>
</g>
<!-- Node18&#45;&gt;Node36 -->
<g id="edge180" class="edge"><title>Node18&#45;&gt;Node36</title>
<path style="fill:none;stroke:midnightblue;" d="M901,-402C1106,-399 1883,-389 1923,-356 1951,-331 1952,-282 1950,-254"/>
<polygon style="fill:midnightblue;stroke:midnightblue;" points="1953.48,-253.602 1949,-244 1946.51,-254.299 1953.48,-253.602"/>
</g>
<!-- Node20&#45;&gt;Node11 -->
<g id="edge54" class="edge"><title>Node20&#45;&gt;Node11</title>
<path style="fill:none;stroke:midnightblue;" d="M1645,-112C1634,-97 1613,-68 1587,-56 1541,-33 1180,-16 1072,-11"/>
<polygon style="fill:midnightblue;stroke:midnightblue;" points="1072,-7.5001 1062,-11 1072,-14.5001 1072,-7.5001"/>
</g>
<!-- Node21&#45;&gt;Node3 -->
<g id="edge60" class="edge"><title>Node21&#45;&gt;Node3</title>
<path style="fill:none;stroke:midnightblue;" d="M1037,-342C925,-337 745,-325 684,-300 581,-258 552,-229 500,-132 492,-117 486,-99 482,-86"/>
<polygon style="fill:midnightblue;stroke:midnightblue;" points="485.226,-84.5725 479,-76 478.521,-86.584 485.226,-84.5725"/>
</g>
<!-- Node21&#45;&gt;Node7 -->
<g id="edge156" class="edge"><title>Node21&#45;&gt;Node7</title>
<path style="fill:none;stroke:midnightblue;" d="M1037,-341C906,-332 681,-308 636,-244 604,-199 679,-157 728,-136"/>
<polygon style="fill:midnightblue;stroke:midnightblue;" points="729.283,-139.26 737,-132 726.44,-132.863 729.283,-139.26"/>
</g>
<!-- Node21&#45;&gt;Node10 -->
<g id="edge64" class="edge"><title>Node21&#45;&gt;Node10</title>
<path style="fill:none;stroke:midnightblue;" d="M1141,-336C1158,-315 1192,-265 1177,-224 1165,-191 1094,-117 1060,-83"/>
<polygon style="fill:midnightblue;stroke:midnightblue;" points="1062.55,-80.5962 1053,-76 1057.6,-85.546 1062.55,-80.5962"/>
</g>
<!-- Node21&#45;&gt;Node11 -->
<g id="edge62" class="edge"><title>Node21&#45;&gt;Node11</title>
<path style="fill:none;stroke:midnightblue;" d="M1220,-336C1274,-329 1345,-317 1406,-300 1470,-281 1486,-275 1546,-244 1630,-199 1761,-194 1714,-112 1688,-68 1663,-70 1615,-56 1512,-24 1175,-14 1072,-10"/>
<polygon style="fill:midnightblue;stroke:midnightblue;" points="1072,-6.5001 1062,-10 1072,-13.5001 1072,-6.5001"/>
</g>
<!-- Node21&#45;&gt;Node13 -->
<g id="edge178" class="edge"><title>Node21&#45;&gt;Node13</title>
<path style="fill:none;stroke:midnightblue;" d="M1227,-344C1356,-340 1593,-330 1794,-300 1903,-283 1936,-291 2037,-244 2104,-212 2189,-170 2142,-112 2123,-88 2049,-76 1992,-71"/>
<polygon style="fill:midnightblue;stroke:midnightblue;" points="1992.3,-67.5125 1982,-70 1991.6,-74.4778 1992.3,-67.5125"/>
</g>
<!-- Node21&#45;&gt;Node20 -->
<g id="edge176" class="edge"><title>Node21&#45;&gt;Node20</title>
<path style="fill:none;stroke:midnightblue;" d="M1207,-336C1307,-319 1484,-279 1606,-188 1621,-176 1634,-156 1642,-141"/>
<polygon style="fill:midnightblue;stroke:midnightblue;" points="1645.14,-142.56 1646,-132 1638.74,-139.717 1645.14,-142.56"/>
</g>
<!-- Node22 -->
<g id="node55" class="node"><title>Node22</title>
<a xlink:href="data__set_8h.html" target="_top" xlink:title="ltr/data/data_set.h">
<polygon style="fill:white;stroke:black;" points="876,-280 876,-300 971,-300 971,-280 876,-280"/>
<text text-anchor="middle" x="923" y="-287" style="font-family:Arial;font-size:10.00;">ltr/data/data_set.h</text>
</a>
</g>
<!-- Node21&#45;&gt;Node22 -->
<g id="edge66" class="edge"><title>Node21&#45;&gt;Node22</title>
<path style="fill:none;stroke:midnightblue;" d="M1095,-336C1060,-327 1008,-313 971,-303"/>
<polygon style="fill:midnightblue;stroke:midnightblue;" points="971.584,-299.521 961,-300 969.573,-306.226 971.584,-299.521"/>
</g>
<!-- Node26 -->
<g id="node79" class="node"><title>Node26</title>
<a xlink:href="feature__info_8h.html" target="_top" xlink:title="ltr/data/feature_info.h">
<polygon style="fill:white;stroke:black;" points="645,-224 645,-244 752,-244 752,-224 645,-224"/>
<text text-anchor="middle" x="698" y="-231" style="font-family:Arial;font-size:10.00;">ltr/data/feature_info.h</text>
</a>
</g>
<!-- Node21&#45;&gt;Node26 -->
<g id="edge154" class="edge"><title>Node21&#45;&gt;Node26</title>
<path style="fill:none;stroke:midnightblue;" d="M1050,-336C997,-329 927,-317 867,-300 817,-286 762,-263 729,-248"/>
<polygon style="fill:midnightblue;stroke:midnightblue;" points="730.56,-244.863 720,-244 727.717,-251.26 730.56,-244.863"/>
</g>
<!-- Node27 -->
<g id="node84" class="node"><title>Node27</title>
<a xlink:href="parameterized_8h.html" target="_top" xlink:title="ltr/interfaces/parameterized.h">
<polygon style="fill:white;stroke:black;" points="1167,-168 1167,-188 1309,-188 1309,-168 1167,-168"/>
<text text-anchor="middle" x="1238" y="-175" style="font-family:Arial;font-size:10.00;">ltr/interfaces/parameterized.h</text>
</a>
</g>
<!-- Node21&#45;&gt;Node27 -->
<g id="edge160" class="edge"><title>Node21&#45;&gt;Node27</title>
<path style="fill:none;stroke:midnightblue;" d="M1164,-336C1181,-329 1202,-317 1215,-300 1237,-270 1240,-225 1239,-198"/>
<polygon style="fill:midnightblue;stroke:midnightblue;" points="1242.5,-198 1239,-188 1235.5,-198 1242.5,-198"/>
</g>
<!-- Node33 -->
<g id="node103" class="node"><title>Node33</title>
<a xlink:href="per__object__accessor_8h.html" target="_top" xlink:title="ltr/data/per_object_accessor.h">
<polygon style="fill:white;stroke:black;" points="989,-224 989,-244 1136,-244 1136,-224 989,-224"/>
<text text-anchor="middle" x="1062" y="-231" style="font-family:Arial;font-size:10.00;">ltr/data/per_object_accessor.h</text>
</a>
</g>
<!-- Node21&#45;&gt;Node33 -->
<g id="edge158" class="edge"><title>Node21&#45;&gt;Node33</title>
<path style="fill:none;stroke:midnightblue;" d="M1126,-336C1114,-317 1089,-277 1074,-253"/>
<polygon style="fill:midnightblue;stroke:midnightblue;" points="1076.46,-250.379 1068,-244 1070.63,-254.262 1076.46,-250.379"/>
</g>
<!-- Node34 -->
<g id="node115" class="node"><title>Node34</title>
<a xlink:href="serializable_8h.html" target="_top" xlink:title="ltr/interfaces/serializable.h">
<polygon style="fill:white;stroke:black;" points="1806,-168 1806,-188 1935,-188 1935,-168 1806,-168"/>
<text text-anchor="middle" x="1870" y="-175" style="font-family:Arial;font-size:10.00;">ltr/interfaces/serializable.h</text>
</a>
</g>
<!-- Node21&#45;&gt;Node34 -->
<g id="edge162" class="edge"><title>Node21&#45;&gt;Node34</title>
<path style="fill:none;stroke:midnightblue;" d="M1227,-343C1394,-338 1725,-325 1773,-300 1816,-277 1847,-225 1861,-197"/>
<polygon style="fill:midnightblue;stroke:midnightblue;" points="1864.14,-198.56 1865,-188 1857.74,-195.717 1864.14,-198.56"/>
</g>
<!-- Node22&#45;&gt;Node3 -->
<g id="edge74" class="edge"><title>Node22&#45;&gt;Node3</title>
<path style="fill:none;stroke:midnightblue;" d="M876,-286C806,-279 677,-265 636,-244 563,-206 509,-123 487,-85"/>
<polygon style="fill:midnightblue;stroke:midnightblue;" points="489.916,-83.0418 482,-76 483.797,-86.4414 489.916,-83.0418"/>
</g>
<!-- Node22&#45;&gt;Node7 -->
<g id="edge76" class="edge"><title>Node22&#45;&gt;Node7</title>
<path style="fill:none;stroke:midnightblue;" d="M895,-280C874,-272 847,-260 826,-244 799,-224 792,-217 778,-188 770,-174 767,-156 765,-142"/>
<polygon style="fill:midnightblue;stroke:midnightblue;" points="768.478,-141.602 764,-132 761.512,-142.299 768.478,-141.602"/>
</g>
<!-- Node22&#45;&gt;Node10 -->
<g id="edge70" class="edge"><title>Node22&#45;&gt;Node10</title>
<path style="fill:none;stroke:midnightblue;" d="M930,-280C940,-266 959,-241 980,-224 1004,-203 1026,-215 1042,-188 1060,-156 1054,-111 1048,-86"/>
<polygon style="fill:midnightblue;stroke:midnightblue;" points="1051.23,-84.5725 1045,-76 1044.52,-86.584 1051.23,-84.5725"/>
</g>
<!-- Node22&#45;&gt;Node11 -->
<g id="edge72" class="edge"><title>Node22&#45;&gt;Node11</title>
<path style="fill:none;stroke:midnightblue;" d="M971,-287C1029,-282 1122,-270 1144,-244 1160,-223 1184,-235 1080,-56 1074,-46 1066,-36 1059,-28"/>
<polygon style="fill:midnightblue;stroke:midnightblue;" points="1061.22,-25.221 1052,-20 1055.95,-29.8306 1061.22,-25.221"/>
</g>
<!-- Node22&#45;&gt;Node20 -->
<g id="edge152" class="edge"><title>Node22&#45;&gt;Node20</title>
<path style="fill:none;stroke:midnightblue;" d="M971,-286C1104,-276 1475,-242 1583,-188 1605,-177 1624,-156 1637,-140"/>
<polygon style="fill:midnightblue;stroke:midnightblue;" points="1639.8,-142.1 1643,-132 1634.2,-137.9 1639.8,-142.1"/>
</g>
<!-- Node23 -->
<g id="node57" class="node"><title>Node23</title>
<polygon style="fill:white;stroke:#bfbfbf;" points="845,-224 845,-244 896,-244 896,-224 845,-224"/>
<text text-anchor="middle" x="870" y="-231" style="font-family:Arial;font-size:10.00;">sstream</text>
</g>
<!-- Node22&#45;&gt;Node23 -->
<g id="edge68" class="edge"><title>Node22&#45;&gt;Node23</title>
<path style="fill:none;stroke:midnightblue;" d="M914,-280C906,-272 895,-261 887,-252"/>
<polygon style="fill:midnightblue;stroke:midnightblue;" points="889.219,-249.221 880,-244 883.951,-253.831 889.219,-249.221"/>
</g>
<!-- Node24 -->
<g id="node63" class="node"><title>Node24</title>
<a xlink:href="object__list_8h.html" target="_top" xlink:title="ltr/data/object_list.h">
<polygon style="fill:white;stroke:black;" points="931,-168 931,-188 1033,-188 1033,-168 931,-168"/>
<text text-anchor="middle" x="982" y="-175" style="font-family:Arial;font-size:10.00;">ltr/data/object_list.h</text>
</a>
</g>
<!-- Node22&#45;&gt;Node24 -->
<g id="edge78" class="edge"><title>Node22&#45;&gt;Node24</title>
<path style="fill:none;stroke:midnightblue;" d="M926,-280C929,-266 937,-242 947,-224 952,-214 960,-204 966,-196"/>
<polygon style="fill:midnightblue;stroke:midnightblue;" points="969.049,-197.831 973,-188 963.781,-193.221 969.049,-197.831"/>
</g>
<!-- Node25 -->
<g id="node71" class="node"><title>Node25</title>
<a xlink:href="object__pair_8h.html" target="_top" xlink:title="ltr/data/object_pair.h">
<polygon style="fill:white;stroke:black;" points="809,-168 809,-188 913,-188 913,-168 809,-168"/>
<text text-anchor="middle" x="861" y="-175" style="font-family:Arial;font-size:10.00;">ltr/data/object_pair.h</text>
</a>
</g>
<!-- Node22&#45;&gt;Node25 -->
<g id="edge92" class="edge"><title>Node22&#45;&gt;Node25</title>
<path style="fill:none;stroke:midnightblue;" d="M885,-280C867,-273 846,-262 836,-244 826,-229 835,-210 845,-196"/>
<polygon style="fill:midnightblue;stroke:midnightblue;" points="847.8,-198.1 851,-188 842.2,-193.9 847.8,-198.1"/>
</g>
<!-- Node22&#45;&gt;Node26 -->
<g id="edge106" class="edge"><title>Node22&#45;&gt;Node26</title>
<path style="fill:none;stroke:midnightblue;" d="M883,-280C845,-271 788,-256 748,-246"/>
<polygon style="fill:midnightblue;stroke:midnightblue;" points="748.492,-242.529 738,-244 747.119,-249.393 748.492,-242.529"/>
</g>
<!-- Node22&#45;&gt;Node33 -->
<g id="edge140" class="edge"><title>Node22&#45;&gt;Node33</title>
<path style="fill:none;stroke:midnightblue;" d="M948,-280C970,-271 1003,-258 1028,-248"/>
<polygon style="fill:midnightblue;stroke:midnightblue;" points="1029.28,-251.26 1037,-244 1026.44,-244.863 1029.28,-251.26"/>
</g>
<!-- Node24&#45;&gt;Node3 -->
<g id="edge84" class="edge"><title>Node24&#45;&gt;Node3</title>
<path style="fill:none;stroke:midnightblue;" d="M931,-169C855,-157 722,-134 712,-132 637,-115 551,-90 507,-76"/>
<polygon style="fill:midnightblue;stroke:midnightblue;" points="507.584,-72.5212 497,-73 505.573,-79.2259 507.584,-72.5212"/>
</g>
<!-- Node24&#45;&gt;Node7 -->
<g id="edge86" class="edge"><title>Node24&#45;&gt;Node7</title>
<path style="fill:none;stroke:midnightblue;" d="M943,-168C906,-159 851,-144 812,-134"/>
<polygon style="fill:midnightblue;stroke:midnightblue;" points="812.492,-130.529 802,-132 811.119,-137.393 812.492,-130.529"/>
</g>
<!-- Node24&#45;&gt;Node10 -->
<g id="edge80" class="edge"><title>Node24&#45;&gt;Node10</title>
<path style="fill:none;stroke:midnightblue;" d="M988,-168C998,-149 1019,-109 1031,-85"/>
<polygon style="fill:midnightblue;stroke:midnightblue;" points="1034.2,-86.4414 1036,-76 1028.08,-83.0418 1034.2,-86.4414"/>
</g>
<!-- Node24&#45;&gt;Node11 -->
<g id="edge82" class="edge"><title>Node24&#45;&gt;Node11</title>
<path style="fill:none;stroke:midnightblue;" d="M982,-168C982,-146 985,-94 1004,-56 1008,-46 1016,-36 1023,-28"/>
<polygon style="fill:midnightblue;stroke:midnightblue;" points="1026.05,-29.8306 1030,-20 1020.78,-25.221 1026.05,-29.8306"/>
</g>
<!-- Node24&#45;&gt;Node12 -->
<g id="edge88" class="edge"><title>Node24&#45;&gt;Node12</title>
<path style="fill:none;stroke:midnightblue;" d="M969,-168C944,-148 892,-106 862,-83"/>
<polygon style="fill:midnightblue;stroke:midnightblue;" points="863.831,-79.9511 854,-76 859.221,-85.2191 863.831,-79.9511"/>
</g>
<!-- Node24&#45;&gt;Node13 -->
<g id="edge90" class="edge"><title>Node24&#45;&gt;Node13</title>
<path style="fill:none;stroke:midnightblue;" d="M1033,-174C1156,-165 1462,-142 1507,-132 1529,-126 1532,-117 1555,-112 1661,-83 1790,-73 1865,-69"/>
<polygon style="fill:midnightblue;stroke:midnightblue;" points="1865.4,-72.4778 1875,-68 1864.7,-65.5125 1865.4,-72.4778"/>
</g>
<!-- Node25&#45;&gt;Node3 -->
<g id="edge98" class="edge"><title>Node25&#45;&gt;Node3</title>
<path style="fill:none;stroke:midnightblue;" d="M809,-173C756,-167 672,-155 603,-132 565,-119 525,-97 501,-81"/>
<polygon style="fill:midnightblue;stroke:midnightblue;" points="502.441,-77.7969 492,-76 499.042,-83.916 502.441,-77.7969"/>
</g>
<!-- Node25&#45;&gt;Node7 -->
<g id="edge100" class="edge"><title>Node25&#45;&gt;Node7</title>
<path style="fill:none;stroke:midnightblue;" d="M843,-168C828,-160 806,-147 790,-137"/>
<polygon style="fill:midnightblue;stroke:midnightblue;" points="791.441,-133.797 781,-132 788.042,-139.916 791.441,-133.797"/>
</g>
<!-- Node25&#45;&gt;Node10 -->
<g id="edge94" class="edge"><title>Node25&#45;&gt;Node10</title>
<path style="fill:none;stroke:midnightblue;" d="M877,-168C909,-148 979,-104 1017,-81"/>
<polygon style="fill:midnightblue;stroke:midnightblue;" points="1018.96,-83.916 1026,-76 1015.56,-77.7969 1018.96,-83.916"/>
</g>
<!-- Node25&#45;&gt;Node11 -->
<g id="edge96" class="edge"><title>Node25&#45;&gt;Node11</title>
<path style="fill:none;stroke:midnightblue;" d="M871,-168C893,-147 945,-97 990,-56 1000,-46 1012,-35 1022,-27"/>
<polygon style="fill:midnightblue;stroke:midnightblue;" points="1024.78,-29.2191 1030,-20 1020.17,-23.9511 1024.78,-29.2191"/>
</g>
<!-- Node25&#45;&gt;Node12 -->
<g id="edge102" class="edge"><title>Node25&#45;&gt;Node12</title>
<path style="fill:none;stroke:midnightblue;" d="M859,-168C856,-149 849,-110 845,-86"/>
<polygon style="fill:midnightblue;stroke:midnightblue;" points="848.393,-85.1194 843,-76 841.529,-86.4922 848.393,-85.1194"/>
</g>
<!-- Node25&#45;&gt;Node13 -->
<g id="edge104" class="edge"><title>Node25&#45;&gt;Node13</title>
<path style="fill:none;stroke:midnightblue;" d="M913,-169C916,-169 919,-168 922,-168 1149,-141 1210,-171 1436,-132 1468,-126 1474,-118 1507,-112 1632,-87 1782,-75 1865,-70"/>
<polygon style="fill:midnightblue;stroke:midnightblue;" points="1865.4,-73.4778 1875,-69 1864.7,-66.5125 1865.4,-73.4778"/>
</g>
<!-- Node26&#45;&gt;Node3 -->
<g id="edge112" class="edge"><title>Node26&#45;&gt;Node3</title>
<path style="fill:none;stroke:midnightblue;" d="M681,-224C666,-215 643,-201 625,-188 576,-154 523,-108 496,-83"/>
<polygon style="fill:midnightblue;stroke:midnightblue;" points="497.831,-79.9511 488,-76 493.221,-85.2191 497.831,-79.9511"/>
</g>
<!-- Node26&#45;&gt;Node8 -->
<g id="edge108" class="edge"><title>Node26&#45;&gt;Node8</title>
<path style="fill:none;stroke:midnightblue;" d="M681,-224C669,-216 652,-203 641,-188 617,-156 604,-111 598,-86"/>
<polygon style="fill:midnightblue;stroke:midnightblue;" points="601.393,-85.1194 596,-76 594.529,-86.4922 601.393,-85.1194"/>
</g>
<!-- Node26&#45;&gt;Node11 -->
<g id="edge110" class="edge"><title>Node26&#45;&gt;Node11</title>
<path style="fill:none;stroke:midnightblue;" d="M697,-224C696,-202 695,-150 712,-112 724,-82 730,-72 758,-56 801,-31 948,-18 1012,-12"/>
<polygon style="fill:midnightblue;stroke:midnightblue;" points="1012.4,-15.4778 1022,-11 1011.7,-8.5125 1012.4,-15.4778"/>
</g>
<!-- Node26&#45;&gt;Node13 -->
<g id="edge138" class="edge"><title>Node26&#45;&gt;Node13</title>
<path style="fill:none;stroke:midnightblue;" d="M752,-230C902,-219 1311,-189 1318,-188 1417,-171 1441,-162 1537,-132 1560,-124 1564,-118 1588,-112 1682,-87 1795,-75 1865,-70"/>
<polygon style="fill:midnightblue;stroke:midnightblue;" points="1865.4,-73.4778 1875,-69 1864.7,-66.5125 1865.4,-73.4778"/>
</g>
<!-- Node26&#45;&gt;Node27 -->
<g id="edge114" class="edge"><title>Node26&#45;&gt;Node27</title>
<path style="fill:none;stroke:midnightblue;" d="M752,-228C847,-218 1045,-198 1157,-186"/>
<polygon style="fill:midnightblue;stroke:midnightblue;" points="1157.4,-189.478 1167,-185 1156.7,-182.512 1157.4,-189.478"/>
</g>
<!-- Node27&#45;&gt;Node10 -->
<g id="edge116" class="edge"><title>Node27&#45;&gt;Node10</title>
<path style="fill:none;stroke:midnightblue;" d="M1227,-168C1211,-154 1180,-129 1151,-112 1129,-99 1102,-88 1081,-80"/>
<polygon style="fill:midnightblue;stroke:midnightblue;" points="1082.56,-76.8631 1072,-76 1079.72,-83.2598 1082.56,-76.8631"/>
</g>
<!-- Node27&#45;&gt;Node11 -->
<g id="edge118" class="edge"><title>Node27&#45;&gt;Node11</title>
<path style="fill:none;stroke:midnightblue;" d="M1309,-171C1359,-164 1420,-152 1436,-132 1450,-113 1438,-72 1420,-56 1393,-33 1157,-16 1072,-12"/>
<polygon style="fill:midnightblue;stroke:midnightblue;" points="1072.3,-8.5125 1062,-11 1071.6,-15.4778 1072.3,-8.5125"/>
</g>
<!-- Node28 -->
<g id="node88" class="node"><title>Node28</title>
<a xlink:href="parameters__container_8h.html" target="_top" xlink:title="ltr/parameters_container/parameters_container.h">
<polygon style="fill:white;stroke:black;" points="1203,-112 1203,-132 1428,-132 1428,-112 1203,-112"/>
<text text-anchor="middle" x="1315" y="-119" style="font-family:Arial;font-size:10.00;">ltr/parameters_container/parameters_container.h</text>
</a>
</g>
<!-- Node27&#45;&gt;Node28 -->
<g id="edge120" class="edge"><title>Node27&#45;&gt;Node28</title>
<path style="fill:none;stroke:midnightblue;" d="M1252,-168C1263,-160 1280,-148 1293,-138"/>
<polygon style="fill:midnightblue;stroke:midnightblue;" points="1295.1,-140.8 1301,-132 1290.9,-135.2 1295.1,-140.8"/>
</g>
<!-- Node28&#45;&gt;Node10 -->
<g id="edge126" class="edge"><title>Node28&#45;&gt;Node10</title>
<path style="fill:none;stroke:midnightblue;" d="M1266,-112C1214,-102 1131,-84 1082,-74"/>
<polygon style="fill:midnightblue;stroke:midnightblue;" points="1082.49,-70.5292 1072,-72 1081.12,-77.3933 1082.49,-70.5292"/>
</g>
<!-- Node28&#45;&gt;Node11 -->
<g id="edge128" class="edge"><title>Node28&#45;&gt;Node11</title>
<path style="fill:none;stroke:midnightblue;" d="M1348,-112C1381,-100 1425,-79 1404,-56 1382,-31 1155,-16 1072,-12"/>
<polygon style="fill:midnightblue;stroke:midnightblue;" points="1072.3,-8.5125 1062,-11 1071.6,-15.4778 1072.3,-8.5125"/>
</g>
<!-- Node28&#45;&gt;Node12 -->
<g id="edge136" class="edge"><title>Node28&#45;&gt;Node12</title>
<path style="fill:none;stroke:midnightblue;" d="M1230,-112C1139,-101 995,-84 910,-74"/>
<polygon style="fill:midnightblue;stroke:midnightblue;" points="910.299,-70.5125 900,-73 909.602,-77.4778 910.299,-70.5125"/>
</g>
<!-- Node28&#45;&gt;Node13 -->
<g id="edge134" class="edge"><title>Node28&#45;&gt;Node13</title>
<path style="fill:none;stroke:midnightblue;" d="M1425,-112C1553,-100 1761,-81 1865,-72"/>
<polygon style="fill:midnightblue;stroke:midnightblue;" points="1865.4,-75.4778 1875,-71 1864.7,-68.5125 1865.4,-75.4778"/>
</g>
<!-- Node29 -->
<g id="node90" class="node"><title>Node29</title>
<polygon style="fill:white;stroke:#bfbfbf;" points="1504,-56 1504,-76 1578,-76 1578,-56 1504,-56"/>
<text text-anchor="middle" x="1541" y="-63" style="font-family:Arial;font-size:10.00;">logog/logog.h</text>
</g>
<!-- Node28&#45;&gt;Node29 -->
<g id="edge122" class="edge"><title>Node28&#45;&gt;Node29</title>
<path style="fill:none;stroke:midnightblue;" d="M1355,-112C1394,-103 1453,-88 1494,-77"/>
<polygon style="fill:midnightblue;stroke:midnightblue;" points="1494.88,-80.3933 1504,-75 1493.51,-73.5292 1494.88,-80.3933"/>
</g>
<!-- Node30 -->
<g id="node92" class="node"><title>Node30</title>
<polygon style="fill:white;stroke:#bfbfbf;" points="1367,-56 1367,-76 1396,-76 1396,-56 1367,-56"/>
<text text-anchor="middle" x="1381" y="-63" style="font-family:Arial;font-size:10.00;">list</text>
</g>
<!-- Node28&#45;&gt;Node30 -->
<g id="edge124" class="edge"><title>Node28&#45;&gt;Node30</title>
<path style="fill:none;stroke:midnightblue;" d="M1327,-112C1337,-104 1350,-93 1361,-83"/>
<polygon style="fill:midnightblue;stroke:midnightblue;" points="1363.78,-85.2191 1369,-76 1359.17,-79.9511 1363.78,-85.2191"/>
</g>
<!-- Node31 -->
<g id="node96" class="node"><title>Node31</title>
<polygon style="fill:white;stroke:#bfbfbf;" points="1127,-56 1127,-76 1204,-76 1204,-56 1127,-56"/>
<text text-anchor="middle" x="1165" y="-63" style="font-family:Arial;font-size:10.00;">boost/any.hpp</text>
</g>
<!-- Node28&#45;&gt;Node31 -->
<g id="edge130" class="edge"><title>Node28&#45;&gt;Node31</title>
<path style="fill:none;stroke:midnightblue;" d="M1288,-112C1264,-103 1228,-90 1202,-80"/>
<polygon style="fill:midnightblue;stroke:midnightblue;" points="1202.58,-76.4643 1192,-76 1199.98,-82.9636 1202.58,-76.4643"/>
</g>
<!-- Node32 -->
<g id="node98" class="node"><title>Node32</title>
<polygon style="fill:white;stroke:#bfbfbf;" points="1221,-56 1221,-76 1350,-76 1350,-56 1221,-56"/>
<text text-anchor="middle" x="1285" y="-63" style="font-family:Arial;font-size:10.00;">boost/unordered_map.hpp</text>
</g>
<!-- Node28&#45;&gt;Node32 -->
<g id="edge132" class="edge"><title>Node28&#45;&gt;Node32</title>
<path style="fill:none;stroke:midnightblue;" d="M1310,-112C1306,-105 1300,-94 1295,-85"/>
<polygon style="fill:midnightblue;stroke:midnightblue;" points="1298.26,-83.7166 1291,-76 1291.86,-86.5596 1298.26,-83.7166"/>
</g>
<!-- Node33&#45;&gt;Node7 -->
<g id="edge142" class="edge"><title>Node33&#45;&gt;Node7</title>
<path style="fill:none;stroke:midnightblue;" d="M989,-228C922,-222 830,-209 800,-188 784,-177 774,-157 769,-142"/>
<polygon style="fill:midnightblue;stroke:midnightblue;" points="772.226,-140.573 766,-132 765.521,-142.584 772.226,-140.573"/>
</g>
<!-- Node33&#45;&gt;Node13 -->
<g id="edge150" class="edge"><title>Node33&#45;&gt;Node13</title>
<path style="fill:none;stroke:midnightblue;" d="M1136,-230C1259,-222 1500,-206 1583,-188 1701,-161 1836,-106 1896,-80"/>
<polygon style="fill:midnightblue;stroke:midnightblue;" points="1897.28,-83.2598 1905,-76 1894.44,-76.8631 1897.28,-83.2598"/>
</g>
<!-- Node33&#45;&gt;Node24 -->
<g id="edge146" class="edge"><title>Node33&#45;&gt;Node24</title>
<path style="fill:none;stroke:midnightblue;" d="M1048,-224C1037,-216 1019,-204 1005,-194"/>
<polygon style="fill:midnightblue;stroke:midnightblue;" points="1007.1,-191.2 997,-188 1002.9,-196.8 1007.1,-191.2"/>
</g>
<!-- Node33&#45;&gt;Node25 -->
<g id="edge144" class="edge"><title>Node33&#45;&gt;Node25</title>
<path style="fill:none;stroke:midnightblue;" d="M1026,-224C992,-215 942,-201 907,-191"/>
<polygon style="fill:midnightblue;stroke:midnightblue;" points="907.584,-187.521 897,-188 905.573,-194.226 907.584,-187.521"/>
</g>
<!-- Node33&#45;&gt;Node27 -->
<g id="edge148" class="edge"><title>Node33&#45;&gt;Node27</title>
<path style="fill:none;stroke:midnightblue;" d="M1093,-224C1122,-215 1165,-201 1196,-191"/>
<polygon style="fill:midnightblue;stroke:midnightblue;" points="1197.43,-194.226 1206,-188 1195.42,-187.521 1197.43,-194.226"/>
</g>
<!-- Node34&#45;&gt;Node11 -->
<g id="edge168" class="edge"><title>Node34&#45;&gt;Node11</title>
<path style="fill:none;stroke:midnightblue;" d="M1866,-168C1857,-143 1830,-81 1785,-56 1722,-20 1203,-11 1072,-10"/>
<polygon style="fill:midnightblue;stroke:midnightblue;" points="1072,-6.5001 1062,-10 1072,-13.5001 1072,-6.5001"/>
</g>
<!-- Node34&#45;&gt;Node13 -->
<g id="edge172" class="edge"><title>Node34&#45;&gt;Node13</title>
<path style="fill:none;stroke:midnightblue;" d="M1896,-168C1911,-160 1929,-149 1938,-132 1945,-118 1942,-100 1937,-86"/>
<polygon style="fill:midnightblue;stroke:midnightblue;" points="1939.96,-83.9849 1933,-76 1933.46,-86.5847 1939.96,-83.9849"/>
</g>
<!-- Node34&#45;&gt;Node19 -->
<g id="edge164" class="edge"><title>Node34&#45;&gt;Node19</title>
<path style="fill:none;stroke:midnightblue;" d="M1901,-168C1929,-159 1971,-145 2001,-135"/>
<polygon style="fill:midnightblue;stroke:midnightblue;" points="2002.43,-138.226 2011,-132 2000.42,-131.521 2002.43,-138.226"/>
</g>
<!-- Node34&#45;&gt;Node20 -->
<g id="edge174" class="edge"><title>Node34&#45;&gt;Node20</title>
<path style="fill:none;stroke:midnightblue;" d="M1831,-168C1794,-159 1739,-144 1700,-134"/>
<polygon style="fill:midnightblue;stroke:midnightblue;" points="1700.49,-130.529 1690,-132 1699.12,-137.393 1700.49,-130.529"/>
</g>
<!-- Node34&#45;&gt;Node29 -->
<g id="edge166" class="edge"><title>Node34&#45;&gt;Node29</title>
<path style="fill:none;stroke:midnightblue;" d="M1849,-168C1820,-154 1763,-129 1714,-112 1672,-97 1623,-85 1588,-76"/>
<polygon style="fill:midnightblue;stroke:midnightblue;" points="1588.49,-72.5292 1578,-74 1587.12,-79.3933 1588.49,-72.5292"/>
</g>
<!-- Node35 -->
<g id="node120" class="node"><title>Node35</title>
<polygon style="fill:white;stroke:#bfbfbf;" points="1875,-112 1875,-132 1929,-132 1929,-112 1875,-112"/>
<text text-anchor="middle" x="1902" y="-119" style="font-family:Arial;font-size:10.00;">iostream</text>
</g>
<!-- Node34&#45;&gt;Node35 -->
<g id="edge170" class="edge"><title>Node34&#45;&gt;Node35</title>
<path style="fill:none;stroke:midnightblue;" d="M1876,-168C1881,-161 1886,-150 1891,-141"/>
<polygon style="fill:midnightblue;stroke:midnightblue;" points="1894.2,-142.441 1896,-132 1888.08,-139.042 1894.2,-142.441"/>
</g>
<!-- Node36&#45;&gt;Node13 -->
<g id="edge182" class="edge"><title>Node36&#45;&gt;Node13</title>
<path style="fill:none;stroke:midnightblue;" d="M1988,-224C2053,-206 2167,-166 2124,-112 2107,-90 2043,-79 1992,-72"/>
<polygon style="fill:midnightblue;stroke:midnightblue;" points="1992.3,-68.5125 1982,-71 1991.6,-75.4778 1992.3,-68.5125"/>
</g>
<!-- Node36&#45;&gt;Node34 -->
<g id="edge194" class="edge"><title>Node36&#45;&gt;Node34</title>
<path style="fill:none;stroke:midnightblue;" d="M1933,-224C1922,-216 1905,-204 1892,-194"/>
<polygon style="fill:midnightblue;stroke:midnightblue;" points="1894.1,-191.2 1884,-188 1889.9,-196.8 1894.1,-191.2"/>
</g>
<!-- Node37 -->
<g id="node129" class="node"><title>Node37</title>
<a xlink:href="functor_8h.html" target="_top" xlink:title="ltr/interfaces/functor.h">
<polygon style="fill:white;stroke:black;" points="1958,-168 1958,-188 2067,-188 2067,-168 1958,-168"/>
<text text-anchor="middle" x="2012" y="-175" style="font-family:Arial;font-size:10.00;">ltr/interfaces/functor.h</text>
</a>
</g>
<!-- Node36&#45;&gt;Node37 -->
<g id="edge184" class="edge"><title>Node36&#45;&gt;Node37</title>
<path style="fill:none;stroke:midnightblue;" d="M1959,-224C1968,-216 1981,-205 1992,-195"/>
<polygon style="fill:midnightblue;stroke:midnightblue;" points="1994.78,-197.219 2000,-188 1990.17,-191.951 1994.78,-197.219"/>
</g>
<!-- Node37&#45;&gt;Node7 -->
<g id="edge192" class="edge"><title>Node37&#45;&gt;Node7</title>
<path style="fill:none;stroke:midnightblue;" d="M1958,-169C1953,-169 1948,-168 1943,-168 1719,-147 1013,-129 815,-123"/>
<polygon style="fill:midnightblue;stroke:midnightblue;" points="815,-119.5 805,-123 815,-126.5 815,-119.5"/>
</g>
<!-- Node37&#45;&gt;Node11 -->
<g id="edge190" class="edge"><title>Node37&#45;&gt;Node11</title>
<path style="fill:none;stroke:midnightblue;" d="M2063,-168C2101,-158 2143,-140 2124,-112 2088,-58 2052,-70 1990,-56 1898,-35 1224,-15 1072,-11"/>
<polygon style="fill:midnightblue;stroke:midnightblue;" points="1072,-7.5001 1062,-11 1072,-14.5001 1072,-7.5001"/>
</g>
<!-- Node37&#45;&gt;Node13 -->
<g id="edge186" class="edge"><title>Node37&#45;&gt;Node13</title>
<path style="fill:none;stroke:midnightblue;" d="M2050,-168C2084,-157 2128,-137 2108,-112 2093,-93 2038,-81 1992,-74"/>
<polygon style="fill:midnightblue;stroke:midnightblue;" points="1992.49,-70.5292 1982,-72 1991.12,-77.3933 1992.49,-70.5292"/>
</g>
<!-- Node37&#45;&gt;Node19 -->
<g id="edge188" class="edge"><title>Node37&#45;&gt;Node19</title>
<path style="fill:none;stroke:midnightblue;" d="M2017,-168C2021,-161 2027,-150 2032,-141"/>
<polygon style="fill:midnightblue;stroke:midnightblue;" points="2035.14,-142.56 2036,-132 2028.74,-139.717 2035.14,-142.56"/>
</g>
</g>
</svg>
