<?xml version="1.0" encoding="UTF-8" standalone="no"?>
<!DOCTYPE svg PUBLIC "-//W3C//DTD SVG 1.0//EN"
 "http://www.w3.org/TR/2001/REC-SVG-20010904/DTD/svg10.dtd" [
 <!ATTLIST svg xmlns:xlink CDATA #FIXED "http://www.w3.org/1999/xlink">
]>
<!-- Generated by Graphviz version 2.20.2 (Tue Mar &#160;2 19:03:41 UTC 2010)
     For user: (jenkins)  -->
<!-- Title: G Pages: 1 -->
<svg width="2088pt" height="532pt"
 viewBox="0.00 0.00 2088.00 532.00" xmlns="http://www.w3.org/2000/svg" xmlns:xlink="http://www.w3.org/1999/xlink">
<g id="graph0" class="graph" transform="scale(1 1) rotate(0) translate(4 528)">
<title>G</title>
<polygon style="fill:white;stroke:white;" points="-4,4 -4,-528 2084,-528 2084,4 -4,4"/>
<!-- Node1 -->
<g id="node1" class="node"><title>Node1</title>
<polygon style="fill:#bfbfbf;stroke:black;" points="1816,-504 1816,-524 1947,-524 1947,-504 1816,-504"/>
<text text-anchor="middle" x="1881" y="-511" style="font-family:Arial;font-size:10.00;">ltr/scorers/linear_scorer.cc</text>
</g>
<!-- Node2 -->
<g id="node3" class="node"><title>Node2</title>
<a xlink:href="linear__scorer_8h.html" target="_top" xlink:title="ltr/scorers/linear_scorer.h">
<polygon style="fill:white;stroke:black;" points="163,-448 163,-468 289,-468 289,-448 163,-448"/>
<text text-anchor="middle" x="226" y="-455" style="font-family:Arial;font-size:10.00;">ltr/scorers/linear_scorer.h</text>
</a>
</g>
<!-- Node1&#45;&gt;Node2 -->
<g id="edge2" class="edge"><title>Node1&#45;&gt;Node2</title>
<path style="fill:none;stroke:midnightblue;" d="M1816,-512C1553,-502 576,-470 299,-460"/>
<polygon style="fill:midnightblue;stroke:midnightblue;" points="299,-456.5 289,-460 299,-463.5 299,-456.5"/>
</g>
<!-- Node3 -->
<g id="node5" class="node"><title>Node3</title>
<polygon style="fill:white;stroke:#bfbfbf;" points="880,-0 880,-20 920,-20 920,-0 880,-0"/>
<text text-anchor="middle" x="900" y="-7" style="font-family:Arial;font-size:10.00;">string</text>
</g>
<!-- Node1&#45;&gt;Node3 -->
<g id="edge192" class="edge"><title>Node1&#45;&gt;Node3</title>
<path style="fill:none;stroke:midnightblue;" d="M1947,-504C2005,-492 2080,-464 2080,-402 2080,-402 2080,-402 2080,-122 2080,14 1915,-74 1780,-56 1610,-33 1065,-15 930,-11"/>
<polygon style="fill:midnightblue;stroke:midnightblue;" points="930,-7.5001 920,-11 930,-14.5001 930,-7.5001"/>
</g>
<!-- Node6 -->
<g id="node11" class="node"><title>Node6</title>
<polygon style="fill:white;stroke:#bfbfbf;" points="1862,-112 1862,-132 1976,-132 1976,-112 1862,-112"/>
<text text-anchor="middle" x="1919" y="-119" style="font-family:Arial;font-size:10.00;">boost/lexical_cast.hpp</text>
</g>
<!-- Node1&#45;&gt;Node6 -->
<g id="edge188" class="edge"><title>Node1&#45;&gt;Node6</title>
<path style="fill:none;stroke:midnightblue;" d="M1896,-504C1921,-486 1966,-447 1966,-402 1966,-402 1966,-402 1966,-234 1966,-199 1946,-162 1933,-140"/>
<polygon style="fill:midnightblue;stroke:midnightblue;" points="1935.8,-137.9 1927,-132 1930.2,-142.1 1935.8,-137.9"/>
</g>
<!-- Node19 -->
<g id="node47" class="node"><title>Node19</title>
<polygon style="fill:white;stroke:#bfbfbf;" points="1455,-224 1455,-244 1506,-244 1506,-224 1455,-224"/>
<text text-anchor="middle" x="1480" y="-231" style="font-family:Arial;font-size:10.00;">sstream</text>
</g>
<!-- Node1&#45;&gt;Node19 -->
<g id="edge194" class="edge"><title>Node1&#45;&gt;Node19</title>
<path style="fill:none;stroke:midnightblue;" d="M1816,-509C1704,-499 1487,-470 1487,-402 1487,-402 1487,-402 1487,-346 1487,-313 1484,-277 1482,-254"/>
<polygon style="fill:midnightblue;stroke:midnightblue;" points="1485.48,-253.602 1481,-244 1478.51,-254.299 1485.48,-253.602"/>
</g>
<!-- Node25 -->
<g id="node80" class="node"><title>Node25</title>
<polygon style="fill:white;stroke:#bfbfbf;" points="1497,-56 1497,-76 1571,-76 1571,-56 1497,-56"/>
<text text-anchor="middle" x="1534" y="-63" style="font-family:Arial;font-size:10.00;">logog/logog.h</text>
</g>
<!-- Node1&#45;&gt;Node25 -->
<g id="edge190" class="edge"><title>Node1&#45;&gt;Node25</title>
<path style="fill:none;stroke:midnightblue;" d="M1881,-504C1881,-484 1881,-439 1881,-402 1881,-402 1881,-402 1881,-346 1881,-224 1722,-320 1628,-244 1575,-201 1549,-123 1539,-86"/>
<polygon style="fill:midnightblue;stroke:midnightblue;" points="1542.23,-84.5725 1536,-76 1535.52,-86.584 1542.23,-84.5725"/>
</g>
<!-- Node2&#45;&gt;Node3 -->
<g id="edge4" class="edge"><title>Node2&#45;&gt;Node3</title>
<path style="fill:none;stroke:midnightblue;" d="M189,-448C125,-429 0,-388 0,-346 0,-346 0,-346 0,-122 0,-32 712,-14 870,-10"/>
<polygon style="fill:midnightblue;stroke:midnightblue;" points="870,-13.5001 880,-10 870,-6.5001 870,-13.5001"/>
</g>
<!-- Node4 -->
<g id="node7" class="node"><title>Node4</title>
<polygon style="fill:white;stroke:#bfbfbf;" points="264,-56 264,-76 306,-76 306,-56 264,-56"/>
<text text-anchor="middle" x="285" y="-63" style="font-family:Arial;font-size:10.00;">vector</text>
</g>
<!-- Node2&#45;&gt;Node4 -->
<g id="edge6" class="edge"><title>Node2&#45;&gt;Node4</title>
<path style="fill:none;stroke:midnightblue;" d="M228,-448C236,-396 271,-157 282,-86"/>
<polygon style="fill:midnightblue;stroke:midnightblue;" points="285.471,-86.4922 284,-76 278.607,-85.1194 285.471,-86.4922"/>
</g>
<!-- Node5 -->
<g id="node9" class="node"><title>Node5</title>
<a xlink:href="scorer_8h.html" target="_top" xlink:title="ltr/scorers/scorer.h">
<polygon style="fill:white;stroke:black;" points="552,-392 552,-412 649,-412 649,-392 552,-392"/>
<text text-anchor="middle" x="600" y="-399" style="font-family:Arial;font-size:10.00;">ltr/scorers/scorer.h</text>
</a>
</g>
<!-- Node2&#45;&gt;Node5 -->
<g id="edge8" class="edge"><title>Node2&#45;&gt;Node5</title>
<path style="fill:none;stroke:midnightblue;" d="M289,-449C360,-439 473,-421 542,-411"/>
<polygon style="fill:midnightblue;stroke:midnightblue;" points="542.881,-414.393 552,-409 541.508,-407.529 542.881,-414.393"/>
</g>
<!-- Node5&#45;&gt;Node3 -->
<g id="edge14" class="edge"><title>Node5&#45;&gt;Node3</title>
<path style="fill:none;stroke:midnightblue;" d="M574,-392C469,-349 87,-182 233,-56 257,-35 742,-16 870,-11"/>
<polygon style="fill:midnightblue;stroke:midnightblue;" points="870,-14.5001 880,-11 870,-7.5001 870,-14.5001"/>
</g>
<!-- Node5&#45;&gt;Node4 -->
<g id="edge12" class="edge"><title>Node5&#45;&gt;Node4</title>
<path style="fill:none;stroke:midnightblue;" d="M552,-401C432,-399 130,-389 100,-356 27,-274 50,-177 138,-112 172,-86 222,-74 254,-69"/>
<polygon style="fill:midnightblue;stroke:midnightblue;" points="254.398,-72.4778 264,-68 253.701,-65.5125 254.398,-72.4778"/>
</g>
<!-- Node5&#45;&gt;Node6 -->
<g id="edge10" class="edge"><title>Node5&#45;&gt;Node6</title>
<path style="fill:none;stroke:midnightblue;" d="M649,-401C834,-396 1483,-378 1574,-356 1732,-316 1801,-317 1900,-188 1909,-175 1915,-156 1917,-142"/>
<polygon style="fill:midnightblue;stroke:midnightblue;" points="1920.49,-142.299 1918,-132 1913.52,-141.602 1920.49,-142.299"/>
</g>
<!-- Node7 -->
<g id="node15" class="node"><title>Node7</title>
<a xlink:href="aliaser_8h.html" target="_top" xlink:title="ltr/interfaces/aliaser.h">
<polygon style="fill:white;stroke:black;" points="1398,-112 1398,-132 1506,-132 1506,-112 1398,-112"/>
<text text-anchor="middle" x="1452" y="-119" style="font-family:Arial;font-size:10.00;">ltr/interfaces/aliaser.h</text>
</a>
</g>
<!-- Node5&#45;&gt;Node7 -->
<g id="edge16" class="edge"><title>Node5&#45;&gt;Node7</title>
<path style="fill:none;stroke:midnightblue;" d="M649,-401C842,-398 1533,-380 1533,-290 1533,-290 1533,-290 1533,-234 1533,-194 1499,-158 1474,-138"/>
<polygon style="fill:midnightblue;stroke:midnightblue;" points="1476.1,-135.2 1466,-132 1471.9,-140.8 1476.1,-135.2"/>
</g>
<!-- Node8 -->
<g id="node18" class="node"><title>Node8</title>
<a xlink:href="object_8h.html" target="_top" xlink:title="ltr/data/object.h">
<polygon style="fill:white;stroke:black;" points="370,-112 370,-132 454,-132 454,-112 370,-112"/>
<text text-anchor="middle" x="412" y="-119" style="font-family:Arial;font-size:10.00;">ltr/data/object.h</text>
</a>
</g>
<!-- Node5&#45;&gt;Node8 -->
<g id="edge20" class="edge"><title>Node5&#45;&gt;Node8</title>
<path style="fill:none;stroke:midnightblue;" d="M588,-392C559,-368 487,-305 439,-244 421,-221 413,-215 406,-188 402,-173 404,-155 406,-142"/>
<polygon style="fill:midnightblue;stroke:midnightblue;" points="409.479,-142.584 409,-132 402.774,-140.573 409.479,-142.584"/>
</g>
<!-- Node12 -->
<g id="node28" class="node"><title>Node12</title>
<a xlink:href="printable_8h.html" target="_top" xlink:title="ltr/interfaces/printable.h">
<polygon style="fill:white;stroke:black;" points="432,-56 432,-76 549,-76 549,-56 432,-56"/>
<text text-anchor="middle" x="490" y="-63" style="font-family:Arial;font-size:10.00;">ltr/interfaces/printable.h</text>
</a>
</g>
<!-- Node5&#45;&gt;Node12 -->
<g id="edge184" class="edge"><title>Node5&#45;&gt;Node12</title>
<path style="fill:none;stroke:midnightblue;" d="M579,-392C562,-383 538,-370 520,-356 423,-280 389,-250 361,-132 358,-123 355,-119 361,-112 370,-99 404,-88 435,-79"/>
<polygon style="fill:midnightblue;stroke:midnightblue;" points="436.427,-82.2259 445,-76 434.416,-75.5212 436.427,-82.2259"/>
</g>
<!-- Node13 -->
<g id="node32" class="node"><title>Node13</title>
<a xlink:href="shared__ptr_8h.html" target="_top" xlink:title="ltr/utility/shared_ptr.h">
<polygon style="fill:white;stroke:black;" points="1638,-56 1638,-76 1745,-76 1745,-56 1638,-56"/>
<text text-anchor="middle" x="1691" y="-63" style="font-family:Arial;font-size:10.00;">ltr/utility/shared_ptr.h</text>
</a>
</g>
<!-- Node5&#45;&gt;Node13 -->
<g id="edge186" class="edge"><title>Node5&#45;&gt;Node13</title>
<path style="fill:none;stroke:midnightblue;" d="M649,-401C826,-399 1428,-389 1618,-356 1785,-326 1842,-309 1962,-188 1988,-161 2023,-140 1999,-112 1983,-93 1841,-78 1755,-71"/>
<polygon style="fill:midnightblue;stroke:midnightblue;" points="1755.3,-67.5125 1745,-70 1754.6,-74.4778 1755.3,-67.5125"/>
</g>
<!-- Node17 -->
<g id="node40" class="node"><title>Node17</title>
<a xlink:href="feature__converter_8h.html" target="_top" xlink:title="ltr/feature_converters/feature_converter.h">
<polygon style="fill:white;stroke:black;" points="692,-336 692,-356 882,-356 882,-336 692,-336"/>
<text text-anchor="middle" x="787" y="-343" style="font-family:Arial;font-size:10.00;">ltr/feature_converters/feature_converter.h</text>
</a>
</g>
<!-- Node5&#45;&gt;Node17 -->
<g id="edge46" class="edge"><title>Node5&#45;&gt;Node17</title>
<path style="fill:none;stroke:midnightblue;" d="M633,-392C664,-383 709,-369 743,-359"/>
<polygon style="fill:midnightblue;stroke:midnightblue;" points="744.427,-362.226 753,-356 742.416,-355.521 744.427,-362.226"/>
</g>
<!-- Node32 -->
<g id="node116" class="node"><title>Node32</title>
<a xlink:href="serializable__functor_8h.html" target="_top" xlink:title="ltr/interfaces/serializable_functor.h">
<polygon style="fill:white;stroke:black;" points="1637,-224 1637,-244 1800,-244 1800,-224 1637,-224"/>
<text text-anchor="middle" x="1718" y="-231" style="font-family:Arial;font-size:10.00;">ltr/interfaces/serializable_functor.h</text>
</a>
</g>
<!-- Node5&#45;&gt;Node32 -->
<g id="edge168" class="edge"><title>Node5&#45;&gt;Node32</title>
<path style="fill:none;stroke:midnightblue;" d="M649,-401C831,-398 1462,-385 1547,-356 1611,-333 1672,-279 1701,-251"/>
<polygon style="fill:midnightblue;stroke:midnightblue;" points="1703.4,-253.546 1708,-244 1698.45,-248.596 1703.4,-253.546"/>
</g>
<!-- Node7&#45;&gt;Node3 -->
<g id="edge18" class="edge"><title>Node7&#45;&gt;Node3</title>
<path style="fill:none;stroke:midnightblue;" d="M1436,-112C1410,-97 1360,-69 1314,-56 1241,-35 1013,-18 930,-12"/>
<polygon style="fill:midnightblue;stroke:midnightblue;" points="930.299,-8.5125 920,-11 929.602,-15.4778 930.299,-8.5125"/>
</g>
<!-- Node8&#45;&gt;Node3 -->
<g id="edge28" class="edge"><title>Node8&#45;&gt;Node3</title>
<path style="fill:none;stroke:midnightblue;" d="M410,-112C408,-97 408,-70 423,-56 455,-25 770,-14 870,-10"/>
<polygon style="fill:midnightblue;stroke:midnightblue;" points="870,-13.5001 880,-10 870,-6.5001 870,-13.5001"/>
</g>
<!-- Node8&#45;&gt;Node4 -->
<g id="edge30" class="edge"><title>Node8&#45;&gt;Node4</title>
<path style="fill:none;stroke:midnightblue;" d="M389,-112C369,-103 338,-90 315,-79"/>
<polygon style="fill:midnightblue;stroke:midnightblue;" points="316.56,-75.8631 306,-75 313.717,-82.2598 316.56,-75.8631"/>
</g>
<!-- Node9 -->
<g id="node20" class="node"><title>Node9</title>
<polygon style="fill:white;stroke:#bfbfbf;" points="566,-56 566,-76 601,-76 601,-56 566,-56"/>
<text text-anchor="middle" x="583" y="-63" style="font-family:Arial;font-size:10.00;">map</text>
</g>
<!-- Node8&#45;&gt;Node9 -->
<g id="edge22" class="edge"><title>Node8&#45;&gt;Node9</title>
<path style="fill:none;stroke:midnightblue;" d="M445,-112C473,-104 513,-91 556,-75"/>
<polygon style="fill:midnightblue;stroke:midnightblue;" points="557.427,-78.2259 566,-72 555.416,-71.5212 557.427,-78.2259"/>
</g>
<!-- Node10 -->
<g id="node22" class="node"><title>Node10</title>
<polygon style="fill:white;stroke:#bfbfbf;" points="403,-0 403,-20 454,-20 454,-0 403,-0"/>
<text text-anchor="middle" x="428" y="-7" style="font-family:Arial;font-size:10.00;">ostream</text>
</g>
<!-- Node8&#45;&gt;Node10 -->
<g id="edge24" class="edge"><title>Node8&#45;&gt;Node10</title>
<path style="fill:none;stroke:midnightblue;" d="M404,-112C395,-99 383,-75 390,-56 394,-46 401,-36 408,-27"/>
<polygon style="fill:midnightblue;stroke:midnightblue;" points="410.779,-29.2191 416,-20 406.169,-23.9511 410.779,-29.2191"/>
</g>
<!-- Node11 -->
<g id="node24" class="node"><title>Node11</title>
<polygon style="fill:white;stroke:#bfbfbf;" points="681,-56 681,-76 740,-76 740,-56 681,-56"/>
<text text-anchor="middle" x="710" y="-63" style="font-family:Arial;font-size:10.00;">stdexcept</text>
</g>
<!-- Node8&#45;&gt;Node11 -->
<g id="edge26" class="edge"><title>Node8&#45;&gt;Node11</title>
<path style="fill:none;stroke:midnightblue;" d="M454,-114C511,-104 615,-84 671,-74"/>
<polygon style="fill:midnightblue;stroke:midnightblue;" points="671.881,-77.3933 681,-72 670.508,-70.5292 671.881,-77.3933"/>
</g>
<!-- Node8&#45;&gt;Node12 -->
<g id="edge32" class="edge"><title>Node8&#45;&gt;Node12</title>
<path style="fill:none;stroke:midnightblue;" d="M426,-112C437,-104 454,-92 468,-82"/>
<polygon style="fill:midnightblue;stroke:midnightblue;" points="470.1,-84.8 476,-76 465.9,-79.2 470.1,-84.8"/>
</g>
<!-- Node8&#45;&gt;Node13 -->
<g id="edge38" class="edge"><title>Node8&#45;&gt;Node13</title>
<path style="fill:none;stroke:midnightblue;" d="M454,-121C606,-118 1140,-104 1580,-76 1596,-74 1612,-73 1628,-72"/>
<polygon style="fill:midnightblue;stroke:midnightblue;" points="1628.4,-75.4778 1638,-71 1627.7,-68.5125 1628.4,-75.4778"/>
</g>
<!-- Node12&#45;&gt;Node3 -->
<g id="edge36" class="edge"><title>Node12&#45;&gt;Node3</title>
<path style="fill:none;stroke:midnightblue;" d="M549,-57C552,-57 554,-56 557,-56 672,-39 810,-21 870,-14"/>
<polygon style="fill:midnightblue;stroke:midnightblue;" points="870.398,-17.4778 880,-13 869.701,-10.5125 870.398,-17.4778"/>
</g>
<!-- Node12&#45;&gt;Node10 -->
<g id="edge34" class="edge"><title>Node12&#45;&gt;Node10</title>
<path style="fill:none;stroke:midnightblue;" d="M479,-56C470,-48 457,-37 447,-27"/>
<polygon style="fill:midnightblue;stroke:midnightblue;" points="448.831,-23.9511 439,-20 444.221,-29.2191 448.831,-23.9511"/>
</g>
<!-- Node14 -->
<g id="node34" class="node"><title>Node14</title>
<polygon style="fill:white;stroke:#bfbfbf;" points="1663,-0 1663,-20 1719,-20 1719,-0 1663,-0"/>
<text text-anchor="middle" x="1691" y="-7" style="font-family:Arial;font-size:10.00;">algorithm</text>
</g>
<!-- Node13&#45;&gt;Node14 -->
<g id="edge40" class="edge"><title>Node13&#45;&gt;Node14</title>
<path style="fill:none;stroke:midnightblue;" d="M1691,-56C1691,-49 1691,-39 1691,-30"/>
<polygon style="fill:midnightblue;stroke:midnightblue;" points="1694.5,-30 1691,-20 1687.5,-30 1694.5,-30"/>
</g>
<!-- Node15 -->
<g id="node36" class="node"><title>Node15</title>
<polygon style="fill:white;stroke:#bfbfbf;" points="1737,-0 1737,-20 1844,-20 1844,-0 1737,-0"/>
<text text-anchor="middle" x="1790" y="-7" style="font-family:Arial;font-size:10.00;">boost/shared_ptr.hpp</text>
</g>
<!-- Node13&#45;&gt;Node15 -->
<g id="edge42" class="edge"><title>Node13&#45;&gt;Node15</title>
<path style="fill:none;stroke:midnightblue;" d="M1709,-56C1724,-48 1746,-35 1763,-25"/>
<polygon style="fill:midnightblue;stroke:midnightblue;" points="1764.96,-27.916 1772,-20 1761.56,-21.7969 1764.96,-27.916"/>
</g>
<!-- Node16 -->
<g id="node38" class="node"><title>Node16</title>
<polygon style="fill:white;stroke:#bfbfbf;" points="1455,-0 1455,-20 1646,-20 1646,-0 1455,-0"/>
<text text-anchor="middle" x="1550" y="-7" style="font-family:Arial;font-size:10.00;">boost/smart_ptr/detail/operator_bool.hpp</text>
</g>
<!-- Node13&#45;&gt;Node16 -->
<g id="edge44" class="edge"><title>Node13&#45;&gt;Node16</title>
<path style="fill:none;stroke:midnightblue;" d="M1666,-56C1643,-47 1610,-34 1585,-24"/>
<polygon style="fill:midnightblue;stroke:midnightblue;" points="1585.58,-20.4643 1575,-20 1582.98,-26.9636 1585.58,-20.4643"/>
</g>
<!-- Node17&#45;&gt;Node3 -->
<g id="edge50" class="edge"><title>Node17&#45;&gt;Node3</title>
<path style="fill:none;stroke:midnightblue;" d="M692,-336C614,-327 510,-314 470,-300 333,-253 156,-161 255,-56 275,-33 744,-15 870,-11"/>
<polygon style="fill:midnightblue;stroke:midnightblue;" points="870,-14.5001 880,-11 870,-7.5001 870,-14.5001"/>
</g>
<!-- Node17&#45;&gt;Node4 -->
<g id="edge48" class="edge"><title>Node17&#45;&gt;Node4</title>
<path style="fill:none;stroke:midnightblue;" d="M692,-338C640,-331 577,-320 523,-300 431,-266 407,-252 333,-188 308,-167 299,-161 288,-132 283,-117 282,-100 282,-86"/>
<polygon style="fill:midnightblue;stroke:midnightblue;" points="285.488,-86.2987 283,-76 278.522,-85.6021 285.488,-86.2987"/>
</g>
<!-- Node17&#45;&gt;Node7 -->
<g id="edge164" class="edge"><title>Node17&#45;&gt;Node7</title>
<path style="fill:none;stroke:midnightblue;" d="M882,-337C1005,-321 1223,-282 1385,-188 1406,-175 1425,-155 1438,-140"/>
<polygon style="fill:midnightblue;stroke:midnightblue;" points="1440.8,-142.1 1444,-132 1435.2,-137.9 1440.8,-142.1"/>
</g>
<!-- Node17&#45;&gt;Node8 -->
<g id="edge144" class="edge"><title>Node17&#45;&gt;Node8</title>
<path style="fill:none;stroke:midnightblue;" d="M699,-336C658,-329 610,-318 570,-300 493,-265 460,-260 419,-188 411,-174 409,-156 410,-142"/>
<polygon style="fill:midnightblue;stroke:midnightblue;" points="413.488,-142.299 411,-132 406.522,-141.602 413.488,-142.299"/>
</g>
<!-- Node17&#45;&gt;Node11 -->
<g id="edge52" class="edge"><title>Node17&#45;&gt;Node11</title>
<path style="fill:none;stroke:midnightblue;" d="M759,-336C724,-322 665,-292 641,-244 612,-188 664,-116 693,-83"/>
<polygon style="fill:midnightblue;stroke:midnightblue;" points="695.404,-85.546 700,-76 690.454,-80.5962 695.404,-85.546"/>
</g>
<!-- Node17&#45;&gt;Node13 -->
<g id="edge166" class="edge"><title>Node17&#45;&gt;Node13</title>
<path style="fill:none;stroke:midnightblue;" d="M882,-342C1102,-333 1639,-305 1808,-244 1895,-212 1940,-213 1985,-132 1989,-124 1990,-118 1985,-112 1970,-94 1837,-79 1755,-72"/>
<polygon style="fill:midnightblue;stroke:midnightblue;" points="1755.3,-68.5125 1745,-71 1754.6,-75.4778 1755.3,-68.5125"/>
</g>
<!-- Node18 -->
<g id="node45" class="node"><title>Node18</title>
<a xlink:href="data__set_8h.html" target="_top" xlink:title="ltr/data/data_set.h">
<polygon style="fill:white;stroke:black;" points="777,-280 777,-300 872,-300 872,-280 777,-280"/>
<text text-anchor="middle" x="824" y="-287" style="font-family:Arial;font-size:10.00;">ltr/data/data_set.h</text>
</a>
</g>
<!-- Node17&#45;&gt;Node18 -->
<g id="edge54" class="edge"><title>Node17&#45;&gt;Node18</title>
<path style="fill:none;stroke:midnightblue;" d="M794,-336C799,-328 805,-318 811,-309"/>
<polygon style="fill:midnightblue;stroke:midnightblue;" points="814.365,-310.262 817,-300 808.541,-306.379 814.365,-310.262"/>
</g>
<!-- Node22 -->
<g id="node69" class="node"><title>Node22</title>
<a xlink:href="feature__info_8h.html" target="_top" xlink:title="ltr/data/feature_info.h">
<polygon style="fill:white;stroke:black;" points="928,-224 928,-244 1035,-244 1035,-224 928,-224"/>
<text text-anchor="middle" x="981" y="-231" style="font-family:Arial;font-size:10.00;">ltr/data/feature_info.h</text>
</a>
</g>
<!-- Node17&#45;&gt;Node22 -->
<g id="edge142" class="edge"><title>Node17&#45;&gt;Node22</title>
<path style="fill:none;stroke:midnightblue;" d="M809,-336C827,-327 856,-313 880,-300 907,-284 938,-263 959,-250"/>
<polygon style="fill:midnightblue;stroke:midnightblue;" points="961.1,-252.8 967,-244 956.9,-247.2 961.1,-252.8"/>
</g>
<!-- Node23 -->
<g id="node74" class="node"><title>Node23</title>
<a xlink:href="parameterized_8h.html" target="_top" xlink:title="ltr/interfaces/parameterized.h">
<polygon style="fill:white;stroke:black;" points="987,-168 987,-188 1129,-188 1129,-168 987,-168"/>
<text text-anchor="middle" x="1058" y="-175" style="font-family:Arial;font-size:10.00;">ltr/interfaces/parameterized.h</text>
</a>
</g>
<!-- Node17&#45;&gt;Node23 -->
<g id="edge148" class="edge"><title>Node17&#45;&gt;Node23</title>
<path style="fill:none;stroke:midnightblue;" d="M859,-336C917,-324 996,-298 1043,-244 1053,-231 1057,-213 1058,-198"/>
<polygon style="fill:midnightblue;stroke:midnightblue;" points="1061.5,-198 1058,-188 1054.5,-198 1061.5,-198"/>
</g>
<!-- Node29 -->
<g id="node93" class="node"><title>Node29</title>
<a xlink:href="per__object__accessor_8h.html" target="_top" xlink:title="ltr/data/per_object_accessor.h">
<polygon style="fill:white;stroke:black;" points="650,-224 650,-244 797,-244 797,-224 650,-224"/>
<text text-anchor="middle" x="723" y="-231" style="font-family:Arial;font-size:10.00;">ltr/data/per_object_accessor.h</text>
</a>
</g>
<!-- Node17&#45;&gt;Node29 -->
<g id="edge146" class="edge"><title>Node17&#45;&gt;Node29</title>
<path style="fill:none;stroke:midnightblue;" d="M781,-336C770,-317 748,-277 734,-253"/>
<polygon style="fill:midnightblue;stroke:midnightblue;" points="736.916,-251.042 729,-244 730.797,-254.441 736.916,-251.042"/>
</g>
<!-- Node30 -->
<g id="node105" class="node"><title>Node30</title>
<a xlink:href="serializable_8h.html" target="_top" xlink:title="ltr/interfaces/serializable.h">
<polygon style="fill:white;stroke:black;" points="1599,-168 1599,-188 1728,-188 1728,-168 1599,-168"/>
<text text-anchor="middle" x="1663" y="-175" style="font-family:Arial;font-size:10.00;">ltr/interfaces/serializable.h</text>
</a>
</g>
<!-- Node17&#45;&gt;Node30 -->
<g id="edge150" class="edge"><title>Node17&#45;&gt;Node30</title>
<path style="fill:none;stroke:midnightblue;" d="M882,-344C1044,-339 1360,-327 1403,-300 1435,-279 1414,-246 1446,-224 1469,-207 1535,-195 1589,-187"/>
<polygon style="fill:midnightblue;stroke:midnightblue;" points="1589.88,-190.393 1599,-185 1588.51,-183.529 1589.88,-190.393"/>
</g>
<!-- Node18&#45;&gt;Node3 -->
<g id="edge60" class="edge"><title>Node18&#45;&gt;Node3</title>
<path style="fill:none;stroke:midnightblue;" d="M837,-280C859,-262 900,-222 900,-178 900,-178 900,-178 900,-122 900,-89 900,-53 900,-30"/>
<polygon style="fill:midnightblue;stroke:midnightblue;" points="903.5,-30 900,-20 896.5,-30 903.5,-30"/>
</g>
<!-- Node18&#45;&gt;Node4 -->
<g id="edge62" class="edge"><title>Node18&#45;&gt;Node4</title>
<path style="fill:none;stroke:midnightblue;" d="M777,-288C714,-285 601,-274 509,-244 410,-211 368,-213 304,-132 293,-119 288,-100 286,-86"/>
<polygon style="fill:midnightblue;stroke:midnightblue;" points="289.478,-85.6021 285,-76 282.512,-86.2987 289.478,-85.6021"/>
</g>
<!-- Node18&#45;&gt;Node7 -->
<g id="edge140" class="edge"><title>Node18&#45;&gt;Node7</title>
<path style="fill:none;stroke:midnightblue;" d="M872,-287C967,-280 1186,-258 1355,-188 1384,-176 1414,-154 1433,-139"/>
<polygon style="fill:midnightblue;stroke:midnightblue;" points="1435.78,-141.219 1441,-132 1431.17,-135.951 1435.78,-141.219"/>
</g>
<!-- Node18&#45;&gt;Node8 -->
<g id="edge64" class="edge"><title>Node18&#45;&gt;Node8</title>
<path style="fill:none;stroke:midnightblue;" d="M777,-283C685,-269 486,-234 438,-188 425,-176 419,-157 415,-142"/>
<polygon style="fill:midnightblue;stroke:midnightblue;" points="418.393,-141.119 413,-132 411.529,-142.492 418.393,-141.119"/>
</g>
<!-- Node18&#45;&gt;Node11 -->
<g id="edge58" class="edge"><title>Node18&#45;&gt;Node11</title>
<path style="fill:none;stroke:midnightblue;" d="M826,-280C827,-266 829,-242 823,-224 804,-165 755,-110 728,-83"/>
<polygon style="fill:midnightblue;stroke:midnightblue;" points="730.546,-80.5962 721,-76 725.596,-85.546 730.546,-80.5962"/>
</g>
<!-- Node18&#45;&gt;Node19 -->
<g id="edge56" class="edge"><title>Node18&#45;&gt;Node19</title>
<path style="fill:none;stroke:midnightblue;" d="M872,-286C998,-275 1334,-247 1445,-237"/>
<polygon style="fill:midnightblue;stroke:midnightblue;" points="1445.4,-240.478 1455,-236 1444.7,-233.512 1445.4,-240.478"/>
</g>
<!-- Node20 -->
<g id="node53" class="node"><title>Node20</title>
<a xlink:href="object__list_8h.html" target="_top" xlink:title="ltr/data/object_list.h">
<polygon style="fill:white;stroke:black;" points="672,-168 672,-188 774,-188 774,-168 672,-168"/>
<text text-anchor="middle" x="723" y="-175" style="font-family:Arial;font-size:10.00;">ltr/data/object_list.h</text>
</a>
</g>
<!-- Node18&#45;&gt;Node20 -->
<g id="edge66" class="edge"><title>Node18&#45;&gt;Node20</title>
<path style="fill:none;stroke:midnightblue;" d="M823,-280C822,-266 818,-240 805,-224 794,-210 778,-199 762,-192"/>
<polygon style="fill:midnightblue;stroke:midnightblue;" points="763.56,-188.863 753,-188 760.717,-195.26 763.56,-188.863"/>
</g>
<!-- Node21 -->
<g id="node61" class="node"><title>Node21</title>
<a xlink:href="object__pair_8h.html" target="_top" xlink:title="ltr/data/object_pair.h">
<polygon style="fill:white;stroke:black;" points="474,-168 474,-188 578,-188 578,-168 474,-168"/>
<text text-anchor="middle" x="526" y="-175" style="font-family:Arial;font-size:10.00;">ltr/data/object_pair.h</text>
</a>
</g>
<!-- Node18&#45;&gt;Node21 -->
<g id="edge80" class="edge"><title>Node18&#45;&gt;Node21</title>
<path style="fill:none;stroke:midnightblue;" d="M777,-282C739,-274 685,-262 641,-244 608,-230 572,-208 549,-194"/>
<polygon style="fill:midnightblue;stroke:midnightblue;" points="551.1,-191.2 541,-188 546.9,-196.8 551.1,-191.2"/>
</g>
<!-- Node18&#45;&gt;Node22 -->
<g id="edge94" class="edge"><title>Node18&#45;&gt;Node22</title>
<path style="fill:none;stroke:midnightblue;" d="M852,-280C877,-271 915,-257 943,-247"/>
<polygon style="fill:midnightblue;stroke:midnightblue;" points="944.427,-250.226 953,-244 942.416,-243.521 944.427,-250.226"/>
</g>
<!-- Node18&#45;&gt;Node29 -->
<g id="edge128" class="edge"><title>Node18&#45;&gt;Node29</title>
<path style="fill:none;stroke:midnightblue;" d="M806,-280C791,-271 768,-259 750,-249"/>
<polygon style="fill:midnightblue;stroke:midnightblue;" points="751.441,-245.797 741,-244 748.042,-251.916 751.441,-245.797"/>
</g>
<!-- Node20&#45;&gt;Node3 -->
<g id="edge70" class="edge"><title>Node20&#45;&gt;Node3</title>
<path style="fill:none;stroke:midnightblue;" d="M734,-168C763,-140 845,-62 882,-27"/>
<polygon style="fill:midnightblue;stroke:midnightblue;" points="884.404,-29.546 889,-20 879.454,-24.5962 884.404,-29.546"/>
</g>
<!-- Node20&#45;&gt;Node4 -->
<g id="edge72" class="edge"><title>Node20&#45;&gt;Node4</title>
<path style="fill:none;stroke:midnightblue;" d="M672,-173C579,-164 389,-144 361,-132 337,-121 314,-99 300,-84"/>
<polygon style="fill:midnightblue;stroke:midnightblue;" points="302.219,-81.221 293,-76 296.951,-85.8306 302.219,-81.221"/>
</g>
<!-- Node20&#45;&gt;Node8 -->
<g id="edge74" class="edge"><title>Node20&#45;&gt;Node8</title>
<path style="fill:none;stroke:midnightblue;" d="M672,-169C614,-159 522,-142 464,-132"/>
<polygon style="fill:midnightblue;stroke:midnightblue;" points="464.492,-128.529 454,-130 463.119,-135.393 464.492,-128.529"/>
</g>
<!-- Node20&#45;&gt;Node11 -->
<g id="edge68" class="edge"><title>Node20&#45;&gt;Node11</title>
<path style="fill:none;stroke:midnightblue;" d="M722,-168C720,-149 716,-110 712,-86"/>
<polygon style="fill:midnightblue;stroke:midnightblue;" points="715.478,-85.6021 711,-76 708.512,-86.2987 715.478,-85.6021"/>
</g>
<!-- Node20&#45;&gt;Node12 -->
<g id="edge76" class="edge"><title>Node20&#45;&gt;Node12</title>
<path style="fill:none;stroke:midnightblue;" d="M702,-168C661,-147 569,-103 520,-80"/>
<polygon style="fill:midnightblue;stroke:midnightblue;" points="521.56,-76.8631 511,-76 518.717,-83.2598 521.56,-76.8631"/>
</g>
<!-- Node20&#45;&gt;Node13 -->
<g id="edge78" class="edge"><title>Node20&#45;&gt;Node13</title>
<path style="fill:none;stroke:midnightblue;" d="M774,-176C866,-171 1065,-159 1232,-132 1270,-125 1279,-118 1318,-112 1426,-92 1553,-78 1628,-72"/>
<polygon style="fill:midnightblue;stroke:midnightblue;" points="1628.4,-75.4778 1638,-71 1627.7,-68.5125 1628.4,-75.4778"/>
</g>
<!-- Node21&#45;&gt;Node3 -->
<g id="edge84" class="edge"><title>Node21&#45;&gt;Node3</title>
<path style="fill:none;stroke:midnightblue;" d="M535,-168C555,-144 611,-84 672,-56 738,-25 825,-14 870,-12"/>
<polygon style="fill:midnightblue;stroke:midnightblue;" points="870.398,-15.4778 880,-11 869.701,-8.5125 870.398,-15.4778"/>
</g>
<!-- Node21&#45;&gt;Node4 -->
<g id="edge86" class="edge"><title>Node21&#45;&gt;Node4</title>
<path style="fill:none;stroke:midnightblue;" d="M474,-170C423,-162 351,-148 328,-132 312,-120 300,-100 293,-85"/>
<polygon style="fill:midnightblue;stroke:midnightblue;" points="296.26,-83.7166 289,-76 289.863,-86.5596 296.26,-83.7166"/>
</g>
<!-- Node21&#45;&gt;Node8 -->
<g id="edge88" class="edge"><title>Node21&#45;&gt;Node8</title>
<path style="fill:none;stroke:midnightblue;" d="M506,-168C488,-159 462,-146 442,-137"/>
<polygon style="fill:midnightblue;stroke:midnightblue;" points="443.441,-133.797 433,-132 440.042,-139.916 443.441,-133.797"/>
</g>
<!-- Node21&#45;&gt;Node11 -->
<g id="edge82" class="edge"><title>Node21&#45;&gt;Node11</title>
<path style="fill:none;stroke:midnightblue;" d="M545,-168C562,-159 588,-145 610,-132 637,-116 667,-95 687,-82"/>
<polygon style="fill:midnightblue;stroke:midnightblue;" points="689.1,-84.8 695,-76 684.9,-79.2 689.1,-84.8"/>
</g>
<!-- Node21&#45;&gt;Node12 -->
<g id="edge90" class="edge"><title>Node21&#45;&gt;Node12</title>
<path style="fill:none;stroke:midnightblue;" d="M523,-168C517,-149 504,-110 496,-86"/>
<polygon style="fill:midnightblue;stroke:midnightblue;" points="499.226,-84.5725 493,-76 492.521,-86.584 499.226,-84.5725"/>
</g>
<!-- Node21&#45;&gt;Node13 -->
<g id="edge92" class="edge"><title>Node21&#45;&gt;Node13</title>
<path style="fill:none;stroke:midnightblue;" d="M578,-174C604,-172 635,-170 663,-168 782,-159 1085,-167 1199,-132 1215,-126 1215,-117 1232,-112 1241,-108 1504,-83 1628,-72"/>
<polygon style="fill:midnightblue;stroke:midnightblue;" points="1628.4,-75.4778 1638,-71 1627.7,-68.5125 1628.4,-75.4778"/>
</g>
<!-- Node22&#45;&gt;Node3 -->
<g id="edge98" class="edge"><title>Node22&#45;&gt;Node3</title>
<path style="fill:none;stroke:midnightblue;" d="M977,-224C964,-189 924,-76 907,-30"/>
<polygon style="fill:midnightblue;stroke:midnightblue;" points="910.226,-28.5725 904,-20 903.521,-30.584 910.226,-28.5725"/>
</g>
<!-- Node22&#45;&gt;Node4 -->
<g id="edge100" class="edge"><title>Node22&#45;&gt;Node4</title>
<path style="fill:none;stroke:midnightblue;" d="M928,-230C864,-224 754,-211 663,-188 570,-164 553,-140 463,-112 412,-96 352,-81 316,-73"/>
<polygon style="fill:midnightblue;stroke:midnightblue;" points="316.492,-69.5292 306,-71 315.119,-76.3933 316.492,-69.5292"/>
</g>
<!-- Node22&#45;&gt;Node9 -->
<g id="edge96" class="edge"><title>Node22&#45;&gt;Node9</title>
<path style="fill:none;stroke:midnightblue;" d="M957,-224C888,-194 685,-109 611,-78"/>
<polygon style="fill:midnightblue;stroke:midnightblue;" points="611.585,-74.4643 601,-74 608.985,-80.9636 611.585,-74.4643"/>
</g>
<!-- Node22&#45;&gt;Node13 -->
<g id="edge126" class="edge"><title>Node22&#45;&gt;Node13</title>
<path style="fill:none;stroke:midnightblue;" d="M1035,-231C1117,-225 1268,-212 1317,-188 1358,-166 1347,-133 1389,-112 1410,-101 1546,-84 1628,-73"/>
<polygon style="fill:midnightblue;stroke:midnightblue;" points="1628.4,-76.4778 1638,-72 1627.7,-69.5125 1628.4,-76.4778"/>
</g>
<!-- Node22&#45;&gt;Node23 -->
<g id="edge102" class="edge"><title>Node22&#45;&gt;Node23</title>
<path style="fill:none;stroke:midnightblue;" d="M995,-224C1006,-216 1023,-204 1036,-194"/>
<polygon style="fill:midnightblue;stroke:midnightblue;" points="1038.1,-196.8 1044,-188 1033.9,-191.2 1038.1,-196.8"/>
</g>
<!-- Node23&#45;&gt;Node3 -->
<g id="edge106" class="edge"><title>Node23&#45;&gt;Node3</title>
<path style="fill:none;stroke:midnightblue;" d="M1108,-168C1183,-151 1310,-112 1260,-56 1238,-31 1013,-16 930,-12"/>
<polygon style="fill:midnightblue;stroke:midnightblue;" points="930.299,-8.5125 920,-11 929.602,-15.4778 930.299,-8.5125"/>
</g>
<!-- Node23&#45;&gt;Node11 -->
<g id="edge104" class="edge"><title>Node23&#45;&gt;Node11</title>
<path style="fill:none;stroke:midnightblue;" d="M1027,-168C963,-147 820,-102 750,-79"/>
<polygon style="fill:midnightblue;stroke:midnightblue;" points="750.584,-75.5212 740,-76 748.573,-82.2259 750.584,-75.5212"/>
</g>
<!-- Node24 -->
<g id="node78" class="node"><title>Node24</title>
<a xlink:href="parameters__container_8h.html" target="_top" xlink:title="ltr/parameters_container/parameters_container.h">
<polygon style="fill:white;stroke:black;" points="966,-112 966,-132 1191,-132 1191,-112 966,-112"/>
<text text-anchor="middle" x="1078" y="-119" style="font-family:Arial;font-size:10.00;">ltr/parameters_container/parameters_container.h</text>
</a>
</g>
<!-- Node23&#45;&gt;Node24 -->
<g id="edge108" class="edge"><title>Node23&#45;&gt;Node24</title>
<path style="fill:none;stroke:midnightblue;" d="M1062,-168C1064,-161 1068,-151 1071,-142"/>
<polygon style="fill:midnightblue;stroke:midnightblue;" points="1074.48,-142.584 1074,-132 1067.77,-140.573 1074.48,-142.584"/>
</g>
<!-- Node24&#45;&gt;Node3 -->
<g id="edge116" class="edge"><title>Node24&#45;&gt;Node3</title>
<path style="fill:none;stroke:midnightblue;" d="M1176,-112C1225,-103 1270,-86 1243,-56 1222,-32 1010,-17 930,-12"/>
<polygon style="fill:midnightblue;stroke:midnightblue;" points="930.299,-8.5125 920,-11 929.602,-15.4778 930.299,-8.5125"/>
</g>
<!-- Node24&#45;&gt;Node11 -->
<g id="edge114" class="edge"><title>Node24&#45;&gt;Node11</title>
<path style="fill:none;stroke:midnightblue;" d="M1012,-112C936,-101 814,-82 750,-73"/>
<polygon style="fill:midnightblue;stroke:midnightblue;" points="750.492,-69.5292 740,-71 749.119,-76.3933 750.492,-69.5292"/>
</g>
<!-- Node24&#45;&gt;Node12 -->
<g id="edge124" class="edge"><title>Node24&#45;&gt;Node12</title>
<path style="fill:none;stroke:midnightblue;" d="M966,-114C862,-106 704,-93 559,-76"/>
<polygon style="fill:midnightblue;stroke:midnightblue;" points="559.299,-72.5125 549,-75 558.602,-79.4778 559.299,-72.5125"/>
</g>
<!-- Node24&#45;&gt;Node13 -->
<g id="edge122" class="edge"><title>Node24&#45;&gt;Node13</title>
<path style="fill:none;stroke:midnightblue;" d="M1188,-112C1316,-100 1524,-81 1628,-72"/>
<polygon style="fill:midnightblue;stroke:midnightblue;" points="1628.4,-75.4778 1638,-71 1627.7,-68.5125 1628.4,-75.4778"/>
</g>
<!-- Node24&#45;&gt;Node25 -->
<g id="edge110" class="edge"><title>Node24&#45;&gt;Node25</title>
<path style="fill:none;stroke:midnightblue;" d="M1160,-112C1256,-101 1409,-82 1487,-72"/>
<polygon style="fill:midnightblue;stroke:midnightblue;" points="1487.4,-75.4778 1497,-71 1486.7,-68.5125 1487.4,-75.4778"/>
</g>
<!-- Node26 -->
<g id="node82" class="node"><title>Node26</title>
<polygon style="fill:white;stroke:#bfbfbf;" points="966,-56 966,-76 995,-76 995,-56 966,-56"/>
<text text-anchor="middle" x="980" y="-63" style="font-family:Arial;font-size:10.00;">list</text>
</g>
<!-- Node24&#45;&gt;Node26 -->
<g id="edge112" class="edge"><title>Node24&#45;&gt;Node26</title>
<path style="fill:none;stroke:midnightblue;" d="M1060,-112C1045,-103 1022,-90 1004,-80"/>
<polygon style="fill:midnightblue;stroke:midnightblue;" points="1005.44,-76.7969 995,-75 1002.04,-82.916 1005.44,-76.7969"/>
</g>
<!-- Node27 -->
<g id="node86" class="node"><title>Node27</title>
<polygon style="fill:white;stroke:#bfbfbf;" points="1012,-56 1012,-76 1089,-76 1089,-56 1012,-56"/>
<text text-anchor="middle" x="1050" y="-63" style="font-family:Arial;font-size:10.00;">boost/any.hpp</text>
</g>
<!-- Node24&#45;&gt;Node27 -->
<g id="edge118" class="edge"><title>Node24&#45;&gt;Node27</title>
<path style="fill:none;stroke:midnightblue;" d="M1073,-112C1069,-105 1064,-94 1059,-85"/>
<polygon style="fill:midnightblue;stroke:midnightblue;" points="1062.26,-83.7166 1055,-76 1055.86,-86.5596 1062.26,-83.7166"/>
</g>
<!-- Node28 -->
<g id="node88" class="node"><title>Node28</title>
<polygon style="fill:white;stroke:#bfbfbf;" points="1106,-56 1106,-76 1235,-76 1235,-56 1106,-56"/>
<text text-anchor="middle" x="1170" y="-63" style="font-family:Arial;font-size:10.00;">boost/unordered_map.hpp</text>
</g>
<!-- Node24&#45;&gt;Node28 -->
<g id="edge120" class="edge"><title>Node24&#45;&gt;Node28</title>
<path style="fill:none;stroke:midnightblue;" d="M1094,-112C1108,-104 1129,-91 1144,-81"/>
<polygon style="fill:midnightblue;stroke:midnightblue;" points="1145.96,-83.916 1153,-76 1142.56,-77.7969 1145.96,-83.916"/>
</g>
<!-- Node29&#45;&gt;Node8 -->
<g id="edge130" class="edge"><title>Node29&#45;&gt;Node8</title>
<path style="fill:none;stroke:midnightblue;" d="M650,-227C585,-219 496,-206 465,-188 446,-177 431,-156 422,-141"/>
<polygon style="fill:midnightblue;stroke:midnightblue;" points="424.916,-139.042 417,-132 418.797,-142.441 424.916,-139.042"/>
</g>
<!-- Node29&#45;&gt;Node13 -->
<g id="edge138" class="edge"><title>Node29&#45;&gt;Node13</title>
<path style="fill:none;stroke:midnightblue;" d="M797,-231C881,-226 1020,-214 1138,-188 1238,-165 1257,-136 1358,-112 1407,-100 1546,-82 1628,-73"/>
<polygon style="fill:midnightblue;stroke:midnightblue;" points="1628.4,-76.4778 1638,-72 1627.7,-69.5125 1628.4,-76.4778"/>
</g>
<!-- Node29&#45;&gt;Node20 -->
<g id="edge134" class="edge"><title>Node29&#45;&gt;Node20</title>
<path style="fill:none;stroke:midnightblue;" d="M723,-224C723,-217 723,-207 723,-198"/>
<polygon style="fill:midnightblue;stroke:midnightblue;" points="726.5,-198 723,-188 719.5,-198 726.5,-198"/>
</g>
<!-- Node29&#45;&gt;Node21 -->
<g id="edge132" class="edge"><title>Node29&#45;&gt;Node21</title>
<path style="fill:none;stroke:midnightblue;" d="M688,-224C655,-215 606,-201 571,-191"/>
<polygon style="fill:midnightblue;stroke:midnightblue;" points="571.584,-187.521 561,-188 569.573,-194.226 571.584,-187.521"/>
</g>
<!-- Node29&#45;&gt;Node23 -->
<g id="edge136" class="edge"><title>Node29&#45;&gt;Node23</title>
<path style="fill:none;stroke:midnightblue;" d="M783,-224C841,-215 927,-200 988,-190"/>
<polygon style="fill:midnightblue;stroke:midnightblue;" points="988.881,-193.393 998,-188 987.508,-186.529 988.881,-193.393"/>
</g>
<!-- Node30&#45;&gt;Node3 -->
<g id="edge156" class="edge"><title>Node30&#45;&gt;Node3</title>
<path style="fill:none;stroke:midnightblue;" d="M1655,-168C1648,-158 1637,-144 1629,-132 1606,-98 1614,-76 1580,-56 1523,-22 1055,-13 930,-10"/>
<polygon style="fill:midnightblue;stroke:midnightblue;" points="930,-6.5001 920,-10 930,-13.5001 930,-6.5001"/>
</g>
<!-- Node30&#45;&gt;Node6 -->
<g id="edge152" class="edge"><title>Node30&#45;&gt;Node6</title>
<path style="fill:none;stroke:midnightblue;" d="M1709,-168C1752,-159 1817,-144 1863,-134"/>
<polygon style="fill:midnightblue;stroke:midnightblue;" points="1863.88,-137.393 1873,-132 1862.51,-130.529 1863.88,-137.393"/>
</g>
<!-- Node30&#45;&gt;Node7 -->
<g id="edge162" class="edge"><title>Node30&#45;&gt;Node7</title>
<path style="fill:none;stroke:midnightblue;" d="M1625,-168C1590,-159 1538,-145 1500,-135"/>
<polygon style="fill:midnightblue;stroke:midnightblue;" points="1500.58,-131.521 1490,-132 1498.57,-138.226 1500.58,-131.521"/>
</g>
<!-- Node30&#45;&gt;Node13 -->
<g id="edge160" class="edge"><title>Node30&#45;&gt;Node13</title>
<path style="fill:none;stroke:midnightblue;" d="M1675,-168C1684,-159 1696,-146 1701,-132 1707,-117 1703,-99 1699,-86"/>
<polygon style="fill:midnightblue;stroke:midnightblue;" points="1702.23,-84.5725 1696,-76 1695.52,-86.584 1702.23,-84.5725"/>
</g>
<!-- Node30&#45;&gt;Node25 -->
<g id="edge154" class="edge"><title>Node30&#45;&gt;Node25</title>
<path style="fill:none;stroke:midnightblue;" d="M1646,-168C1632,-159 1612,-146 1596,-132 1579,-117 1561,-98 1550,-84"/>
<polygon style="fill:midnightblue;stroke:midnightblue;" points="1552.22,-81.221 1543,-76 1546.95,-85.8306 1552.22,-81.221"/>
</g>
<!-- Node31 -->
<g id="node110" class="node"><title>Node31</title>
<polygon style="fill:white;stroke:#bfbfbf;" points="1638,-112 1638,-132 1692,-132 1692,-112 1638,-112"/>
<text text-anchor="middle" x="1665" y="-119" style="font-family:Arial;font-size:10.00;">iostream</text>
</g>
<!-- Node30&#45;&gt;Node31 -->
<g id="edge158" class="edge"><title>Node30&#45;&gt;Node31</title>
<path style="fill:none;stroke:midnightblue;" d="M1663,-168C1664,-161 1664,-151 1664,-142"/>
<polygon style="fill:midnightblue;stroke:midnightblue;" points="1667.49,-142.299 1665,-132 1660.52,-141.602 1667.49,-142.299"/>
</g>
<!-- Node32&#45;&gt;Node13 -->
<g id="edge170" class="edge"><title>Node32&#45;&gt;Node13</title>
<path style="fill:none;stroke:midnightblue;" d="M1724,-224C1730,-211 1739,-187 1736,-168 1730,-137 1714,-105 1702,-85"/>
<polygon style="fill:midnightblue;stroke:midnightblue;" points="1704.92,-83.0418 1697,-76 1698.8,-86.4414 1704.92,-83.0418"/>
</g>
<!-- Node32&#45;&gt;Node30 -->
<g id="edge182" class="edge"><title>Node32&#45;&gt;Node30</title>
<path style="fill:none;stroke:midnightblue;" d="M1708,-224C1700,-216 1689,-205 1680,-195"/>
<polygon style="fill:midnightblue;stroke:midnightblue;" points="1682.55,-192.596 1673,-188 1677.6,-197.546 1682.55,-192.596"/>
</g>
<!-- Node33 -->
<g id="node119" class="node"><title>Node33</title>
<a xlink:href="functor_8h.html" target="_top" xlink:title="ltr/interfaces/functor.h">
<polygon style="fill:white;stroke:black;" points="1783,-168 1783,-188 1892,-188 1892,-168 1783,-168"/>
<text text-anchor="middle" x="1837" y="-175" style="font-family:Arial;font-size:10.00;">ltr/interfaces/functor.h</text>
</a>
</g>
<!-- Node32&#45;&gt;Node33 -->
<g id="edge172" class="edge"><title>Node32&#45;&gt;Node33</title>
<path style="fill:none;stroke:midnightblue;" d="M1739,-224C1758,-215 1785,-202 1807,-192"/>
<polygon style="fill:midnightblue;stroke:midnightblue;" points="1808.28,-195.26 1816,-188 1805.44,-188.863 1808.28,-195.26"/>
</g>
<!-- Node33&#45;&gt;Node3 -->
<g id="edge178" class="edge"><title>Node33&#45;&gt;Node3</title>
<path style="fill:none;stroke:midnightblue;" d="M1834,-168C1825,-143 1799,-80 1753,-56 1678,-17 1074,-11 930,-10"/>
<polygon style="fill:midnightblue;stroke:midnightblue;" points="930,-6.5001 920,-10 930,-13.5001 930,-6.5001"/>
</g>
<!-- Node33&#45;&gt;Node6 -->
<g id="edge176" class="edge"><title>Node33&#45;&gt;Node6</title>
<path style="fill:none;stroke:midnightblue;" d="M1852,-168C1864,-160 1881,-147 1896,-138"/>
<polygon style="fill:midnightblue;stroke:midnightblue;" points="1898.1,-140.8 1904,-132 1893.9,-135.2 1898.1,-140.8"/>
</g>
<!-- Node33&#45;&gt;Node8 -->
<g id="edge180" class="edge"><title>Node33&#45;&gt;Node8</title>
<path style="fill:none;stroke:midnightblue;" d="M1783,-172C1768,-170 1751,-169 1736,-168 1242,-135 642,-124 464,-122"/>
<polygon style="fill:midnightblue;stroke:midnightblue;" points="464,-118.5 454,-122 464,-125.5 464,-118.5"/>
</g>
<!-- Node33&#45;&gt;Node13 -->
<g id="edge174" class="edge"><title>Node33&#45;&gt;Node13</title>
<path style="fill:none;stroke:midnightblue;" d="M1828,-168C1816,-154 1794,-129 1772,-112 1756,-100 1738,-89 1722,-81"/>
<polygon style="fill:midnightblue;stroke:midnightblue;" points="1723.44,-77.7969 1713,-76 1720.04,-83.916 1723.44,-77.7969"/>
</g>
</g>
</svg>
