<?xml version="1.0" encoding="UTF-8" standalone="no"?>
<!DOCTYPE svg PUBLIC "-//W3C//DTD SVG 1.0//EN"
 "http://www.w3.org/TR/2001/REC-SVG-20010904/DTD/svg10.dtd" [
 <!ATTLIST svg xmlns:xlink CDATA #FIXED "http://www.w3.org/1999/xlink">
]>
<!-- Generated by Graphviz version 2.20.2 (Tue Mar &#160;2 19:03:41 UTC 2010)
     For user: (jenkins)  -->
<!-- Title: G Pages: 1 -->
<svg width="2037pt" height="476pt"
 viewBox="0.00 0.00 2037.00 476.00" xmlns="http://www.w3.org/2000/svg" xmlns:xlink="http://www.w3.org/1999/xlink">
<g id="graph0" class="graph" transform="scale(1 1) rotate(0) translate(4 472)">
<title>G</title>
<polygon style="fill:white;stroke:white;" points="-4,4 -4,-472 2033,-472 2033,4 -4,4"/>
<!-- Node1 -->
<g id="node1" class="node"><title>Node1</title>
<polygon style="fill:#bfbfbf;stroke:black;" points="1903,-448 1903,-468 2029,-468 2029,-448 1903,-448"/>
<text text-anchor="middle" x="1966" y="-455" style="font-family:Arial;font-size:10.00;">ltr/scorers/linear_scorer.h</text>
</g>
<!-- Node2 -->
<g id="node3" class="node"><title>Node2</title>
<polygon style="fill:white;stroke:#bfbfbf;" points="1103,-0 1103,-20 1143,-20 1143,-0 1103,-0"/>
<text text-anchor="middle" x="1123" y="-7" style="font-family:Arial;font-size:10.00;">string</text>
</g>
<!-- Node1&#45;&gt;Node2 -->
<g id="edge2" class="edge"><title>Node1&#45;&gt;Node2</title>
<path style="fill:none;stroke:midnightblue;" d="M1972,-448C1983,-429 2004,-385 2004,-346 2004,-346 2004,-346 2004,-122 2004,-48 1924,-73 1853,-56 1717,-22 1274,-13 1153,-10"/>
<polygon style="fill:midnightblue;stroke:midnightblue;" points="1153,-6.5001 1143,-10 1153,-13.5001 1153,-6.5001"/>
</g>
<!-- Node3 -->
<g id="node5" class="node"><title>Node3</title>
<polygon style="fill:white;stroke:#bfbfbf;" points="1755,-56 1755,-76 1797,-76 1797,-56 1755,-56"/>
<text text-anchor="middle" x="1776" y="-63" style="font-family:Arial;font-size:10.00;">vector</text>
</g>
<!-- Node1&#45;&gt;Node3 -->
<g id="edge4" class="edge"><title>Node1&#45;&gt;Node3</title>
<path style="fill:none;stroke:midnightblue;" d="M1966,-448C1966,-428 1966,-383 1966,-346 1966,-346 1966,-346 1966,-234 1966,-149 1861,-97 1806,-77"/>
<polygon style="fill:midnightblue;stroke:midnightblue;" points="1807.56,-73.8631 1797,-73 1804.72,-80.2598 1807.56,-73.8631"/>
</g>
<!-- Node4 -->
<g id="node7" class="node"><title>Node4</title>
<a xlink:href="scorer_8h.html" target="_top" xlink:title="ltr/scorers/scorer.h">
<polygon style="fill:white;stroke:black;" points="817,-392 817,-412 914,-412 914,-392 817,-392"/>
<text text-anchor="middle" x="865" y="-399" style="font-family:Arial;font-size:10.00;">ltr/scorers/scorer.h</text>
</a>
</g>
<!-- Node1&#45;&gt;Node4 -->
<g id="edge6" class="edge"><title>Node1&#45;&gt;Node4</title>
<path style="fill:none;stroke:midnightblue;" d="M1903,-455C1708,-445 1115,-415 924,-406"/>
<polygon style="fill:midnightblue;stroke:midnightblue;" points="924.299,-402.512 914,-405 923.602,-409.478 924.299,-402.512"/>
</g>
<!-- Node4&#45;&gt;Node2 -->
<g id="edge12" class="edge"><title>Node4&#45;&gt;Node2</title>
<path style="fill:none;stroke:midnightblue;" d="M817,-397C719,-386 508,-354 508,-290 508,-290 508,-290 508,-122 508,-88 516,-74 544,-56 591,-25 981,-14 1093,-10"/>
<polygon style="fill:midnightblue;stroke:midnightblue;" points="1093,-13.5001 1103,-10 1093,-6.5001 1093,-13.5001"/>
</g>
<!-- Node4&#45;&gt;Node3 -->
<g id="edge10" class="edge"><title>Node4&#45;&gt;Node3</title>
<path style="fill:none;stroke:midnightblue;" d="M914,-399C1057,-389 1468,-357 1590,-300 1690,-252 1737,-236 1775,-132 1780,-117 1779,-100 1779,-86"/>
<polygon style="fill:midnightblue;stroke:midnightblue;" points="1782.48,-85.6021 1778,-76 1775.51,-86.2987 1782.48,-85.6021"/>
</g>
<!-- Node5 -->
<g id="node9" class="node"><title>Node5</title>
<polygon style="fill:white;stroke:#bfbfbf;" points="142,-112 142,-132 256,-132 256,-112 142,-112"/>
<text text-anchor="middle" x="199" y="-119" style="font-family:Arial;font-size:10.00;">boost/lexical_cast.hpp</text>
</g>
<!-- Node4&#45;&gt;Node5 -->
<g id="edge8" class="edge"><title>Node4&#45;&gt;Node5</title>
<path style="fill:none;stroke:midnightblue;" d="M817,-401C640,-395 38,-369 38,-290 38,-290 38,-290 38,-234 38,-180 99,-150 145,-135"/>
<polygon style="fill:midnightblue;stroke:midnightblue;" points="146.427,-138.226 155,-132 144.416,-131.521 146.427,-138.226"/>
</g>
<!-- Node6 -->
<g id="node13" class="node"><title>Node6</title>
<a xlink:href="aliaser_8h.html" target="_top" xlink:title="ltr/interfaces/aliaser.h">
<polygon style="fill:white;stroke:black;" points="574,-112 574,-132 682,-132 682,-112 574,-112"/>
<text text-anchor="middle" x="628" y="-119" style="font-family:Arial;font-size:10.00;">ltr/interfaces/aliaser.h</text>
</a>
</g>
<!-- Node4&#45;&gt;Node6 -->
<g id="edge14" class="edge"><title>Node4&#45;&gt;Node6</title>
<path style="fill:none;stroke:midnightblue;" d="M825,-392C758,-374 628,-333 628,-290 628,-290 628,-290 628,-234 628,-201 628,-165 628,-142"/>
<polygon style="fill:midnightblue;stroke:midnightblue;" points="631.5,-142 628,-132 624.5,-142 631.5,-142"/>
</g>
<!-- Node7 -->
<g id="node16" class="node"><title>Node7</title>
<a xlink:href="object_8h.html" target="_top" xlink:title="ltr/data/object.h">
<polygon style="fill:white;stroke:black;" points="1436,-112 1436,-132 1520,-132 1520,-112 1436,-112"/>
<text text-anchor="middle" x="1478" y="-119" style="font-family:Arial;font-size:10.00;">ltr/data/object.h</text>
</a>
</g>
<!-- Node4&#45;&gt;Node7 -->
<g id="edge18" class="edge"><title>Node4&#45;&gt;Node7</title>
<path style="fill:none;stroke:midnightblue;" d="M914,-398C987,-393 1128,-379 1245,-356 1439,-317 1579,-369 1658,-188 1661,-179 1663,-175 1658,-168 1642,-148 1578,-135 1530,-128"/>
<polygon style="fill:midnightblue;stroke:midnightblue;" points="1530.3,-124.512 1520,-127 1529.6,-131.478 1530.3,-124.512"/>
</g>
<!-- Node11 -->
<g id="node26" class="node"><title>Node11</title>
<a xlink:href="printable_8h.html" target="_top" xlink:title="ltr/interfaces/printable.h">
<polygon style="fill:white;stroke:black;" points="1490,-56 1490,-76 1607,-76 1607,-56 1490,-56"/>
<text text-anchor="middle" x="1548" y="-63" style="font-family:Arial;font-size:10.00;">ltr/interfaces/printable.h</text>
</a>
</g>
<!-- Node4&#45;&gt;Node11 -->
<g id="edge182" class="edge"><title>Node4&#45;&gt;Node11</title>
<path style="fill:none;stroke:midnightblue;" d="M914,-402C1111,-400 1832,-391 1866,-356 1975,-242 1691,-120 1586,-80"/>
<polygon style="fill:midnightblue;stroke:midnightblue;" points="1586.58,-76.4643 1576,-76 1583.98,-82.9636 1586.58,-76.4643"/>
</g>
<!-- Node12 -->
<g id="node30" class="node"><title>Node12</title>
<a xlink:href="shared__ptr_8h.html" target="_top" xlink:title="ltr/utility/shared_ptr.h">
<polygon style="fill:white;stroke:black;" points="307,-56 307,-76 414,-76 414,-56 307,-56"/>
<text text-anchor="middle" x="360" y="-63" style="font-family:Arial;font-size:10.00;">ltr/utility/shared_ptr.h</text>
</a>
</g>
<!-- Node4&#45;&gt;Node12 -->
<g id="edge184" class="edge"><title>Node4&#45;&gt;Node12</title>
<path style="fill:none;stroke:midnightblue;" d="M817,-402C674,-400 253,-393 121,-356 63,-339 0,-351 0,-290 0,-290 0,-290 0,-178 0,-116 194,-85 297,-72"/>
<polygon style="fill:midnightblue;stroke:midnightblue;" points="297.398,-75.4778 307,-71 296.701,-68.5125 297.398,-75.4778"/>
</g>
<!-- Node16 -->
<g id="node38" class="node"><title>Node16</title>
<a xlink:href="feature__converter_8h.html" target="_top" xlink:title="ltr/feature_converters/feature_converter.h">
<polygon style="fill:white;stroke:black;" points="1046,-336 1046,-356 1236,-356 1236,-336 1046,-336"/>
<text text-anchor="middle" x="1141" y="-343" style="font-family:Arial;font-size:10.00;">ltr/feature_converters/feature_converter.h</text>
</a>
</g>
<!-- Node4&#45;&gt;Node16 -->
<g id="edge44" class="edge"><title>Node4&#45;&gt;Node16</title>
<path style="fill:none;stroke:midnightblue;" d="M914,-392C961,-383 1031,-368 1081,-358"/>
<polygon style="fill:midnightblue;stroke:midnightblue;" points="1081.88,-361.393 1091,-356 1080.51,-354.529 1081.88,-361.393"/>
</g>
<!-- Node31 -->
<g id="node114" class="node"><title>Node31</title>
<a xlink:href="serializable__functor_8h.html" target="_top" xlink:title="ltr/interfaces/serializable_functor.h">
<polygon style="fill:white;stroke:black;" points="158,-224 158,-244 321,-244 321,-224 158,-224"/>
<text text-anchor="middle" x="239" y="-231" style="font-family:Arial;font-size:10.00;">ltr/interfaces/serializable_functor.h</text>
</a>
</g>
<!-- Node4&#45;&gt;Node31 -->
<g id="edge166" class="edge"><title>Node4&#45;&gt;Node31</title>
<path style="fill:none;stroke:midnightblue;" d="M817,-398C731,-390 554,-373 494,-356 405,-330 309,-276 264,-249"/>
<polygon style="fill:midnightblue;stroke:midnightblue;" points="265.441,-245.797 255,-244 262.042,-251.916 265.441,-245.797"/>
</g>
<!-- Node6&#45;&gt;Node2 -->
<g id="edge16" class="edge"><title>Node6&#45;&gt;Node2</title>
<path style="fill:none;stroke:midnightblue;" d="M639,-112C657,-97 692,-69 728,-56 796,-31 1012,-16 1093,-12"/>
<polygon style="fill:midnightblue;stroke:midnightblue;" points="1093.4,-15.4778 1103,-11 1092.7,-8.5125 1093.4,-15.4778"/>
</g>
<!-- Node7&#45;&gt;Node2 -->
<g id="edge26" class="edge"><title>Node7&#45;&gt;Node2</title>
<path style="fill:none;stroke:midnightblue;" d="M1470,-112C1457,-97 1432,-69 1404,-56 1360,-34 1217,-19 1153,-13"/>
<polygon style="fill:midnightblue;stroke:midnightblue;" points="1153.3,-9.5125 1143,-12 1152.6,-16.4778 1153.3,-9.5125"/>
</g>
<!-- Node7&#45;&gt;Node3 -->
<g id="edge28" class="edge"><title>Node7&#45;&gt;Node3</title>
<path style="fill:none;stroke:midnightblue;" d="M1520,-114C1581,-103 1691,-82 1745,-72"/>
<polygon style="fill:midnightblue;stroke:midnightblue;" points="1745.88,-75.3933 1755,-70 1744.51,-68.5292 1745.88,-75.3933"/>
</g>
<!-- Node8 -->
<g id="node18" class="node"><title>Node8</title>
<polygon style="fill:white;stroke:#bfbfbf;" points="1361,-56 1361,-76 1396,-76 1396,-56 1361,-56"/>
<text text-anchor="middle" x="1378" y="-63" style="font-family:Arial;font-size:10.00;">map</text>
</g>
<!-- Node7&#45;&gt;Node8 -->
<g id="edge20" class="edge"><title>Node7&#45;&gt;Node8</title>
<path style="fill:none;stroke:midnightblue;" d="M1460,-112C1445,-104 1423,-91 1405,-81"/>
<polygon style="fill:midnightblue;stroke:midnightblue;" points="1406.44,-77.7969 1396,-76 1403.04,-83.916 1406.44,-77.7969"/>
</g>
<!-- Node9 -->
<g id="node20" class="node"><title>Node9</title>
<polygon style="fill:white;stroke:#bfbfbf;" points="1480,-0 1480,-20 1531,-20 1531,-0 1480,-0"/>
<text text-anchor="middle" x="1505" y="-7" style="font-family:Arial;font-size:10.00;">ostream</text>
</g>
<!-- Node7&#45;&gt;Node9 -->
<g id="edge22" class="edge"><title>Node7&#45;&gt;Node9</title>
<path style="fill:none;stroke:midnightblue;" d="M1477,-112C1476,-99 1476,-75 1481,-56 1483,-47 1488,-37 1493,-29"/>
<polygon style="fill:midnightblue;stroke:midnightblue;" points="1496.2,-30.4414 1498,-20 1490.08,-27.0418 1496.2,-30.4414"/>
</g>
<!-- Node10 -->
<g id="node22" class="node"><title>Node10</title>
<polygon style="fill:white;stroke:#bfbfbf;" points="1227,-56 1227,-76 1286,-76 1286,-56 1227,-56"/>
<text text-anchor="middle" x="1256" y="-63" style="font-family:Arial;font-size:10.00;">stdexcept</text>
</g>
<!-- Node7&#45;&gt;Node10 -->
<g id="edge24" class="edge"><title>Node7&#45;&gt;Node10</title>
<path style="fill:none;stroke:midnightblue;" d="M1438,-112C1397,-102 1336,-87 1296,-76"/>
<polygon style="fill:midnightblue;stroke:midnightblue;" points="1296.49,-72.5292 1286,-74 1295.12,-79.3933 1296.49,-72.5292"/>
</g>
<!-- Node7&#45;&gt;Node11 -->
<g id="edge30" class="edge"><title>Node7&#45;&gt;Node11</title>
<path style="fill:none;stroke:midnightblue;" d="M1491,-112C1501,-104 1516,-93 1527,-83"/>
<polygon style="fill:midnightblue;stroke:midnightblue;" points="1529.78,-85.2191 1535,-76 1525.17,-79.9511 1529.78,-85.2191"/>
</g>
<!-- Node7&#45;&gt;Node12 -->
<g id="edge36" class="edge"><title>Node7&#45;&gt;Node12</title>
<path style="fill:none;stroke:midnightblue;" d="M1436,-120C1304,-114 889,-93 544,-76 505,-73 460,-71 424,-70"/>
<polygon style="fill:midnightblue;stroke:midnightblue;" points="424.299,-66.5125 414,-69 423.602,-73.4778 424.299,-66.5125"/>
</g>
<!-- Node11&#45;&gt;Node2 -->
<g id="edge34" class="edge"><title>Node11&#45;&gt;Node2</title>
<path style="fill:none;stroke:midnightblue;" d="M1490,-58C1398,-47 1223,-23 1153,-14"/>
<polygon style="fill:midnightblue;stroke:midnightblue;" points="1153.3,-10.5125 1143,-13 1152.6,-17.4778 1153.3,-10.5125"/>
</g>
<!-- Node11&#45;&gt;Node9 -->
<g id="edge32" class="edge"><title>Node11&#45;&gt;Node9</title>
<path style="fill:none;stroke:midnightblue;" d="M1540,-56C1535,-48 1526,-38 1519,-28"/>
<polygon style="fill:midnightblue;stroke:midnightblue;" points="1521.8,-25.9 1513,-20 1516.2,-30.1 1521.8,-25.9"/>
</g>
<!-- Node13 -->
<g id="node32" class="node"><title>Node13</title>
<polygon style="fill:white;stroke:#bfbfbf;" points="233,-0 233,-20 289,-20 289,-0 233,-0"/>
<text text-anchor="middle" x="261" y="-7" style="font-family:Arial;font-size:10.00;">algorithm</text>
</g>
<!-- Node12&#45;&gt;Node13 -->
<g id="edge38" class="edge"><title>Node12&#45;&gt;Node13</title>
<path style="fill:none;stroke:midnightblue;" d="M342,-56C327,-48 305,-35 288,-25"/>
<polygon style="fill:midnightblue;stroke:midnightblue;" points="289.441,-21.7969 279,-20 286.042,-27.916 289.441,-21.7969"/>
</g>
<!-- Node14 -->
<g id="node34" class="node"><title>Node14</title>
<polygon style="fill:white;stroke:#bfbfbf;" points="307,-0 307,-20 414,-20 414,-0 307,-0"/>
<text text-anchor="middle" x="360" y="-7" style="font-family:Arial;font-size:10.00;">boost/shared_ptr.hpp</text>
</g>
<!-- Node12&#45;&gt;Node14 -->
<g id="edge40" class="edge"><title>Node12&#45;&gt;Node14</title>
<path style="fill:none;stroke:midnightblue;" d="M360,-56C360,-49 360,-39 360,-30"/>
<polygon style="fill:midnightblue;stroke:midnightblue;" points="363.5,-30 360,-20 356.5,-30 363.5,-30"/>
</g>
<!-- Node15 -->
<g id="node36" class="node"><title>Node15</title>
<polygon style="fill:white;stroke:#bfbfbf;" points="431,-0 431,-20 622,-20 622,-0 431,-0"/>
<text text-anchor="middle" x="526" y="-7" style="font-family:Arial;font-size:10.00;">boost/smart_ptr/detail/operator_bool.hpp</text>
</g>
<!-- Node12&#45;&gt;Node15 -->
<g id="edge42" class="edge"><title>Node12&#45;&gt;Node15</title>
<path style="fill:none;stroke:midnightblue;" d="M390,-56C417,-47 457,-33 486,-23"/>
<polygon style="fill:midnightblue;stroke:midnightblue;" points="487.427,-26.2259 496,-20 485.416,-19.5212 487.427,-26.2259"/>
</g>
<!-- Node16&#45;&gt;Node2 -->
<g id="edge48" class="edge"><title>Node16&#45;&gt;Node2</title>
<path style="fill:none;stroke:midnightblue;" d="M1236,-336C1305,-328 1400,-316 1483,-300 1683,-259 2006,-289 1904,-112 1878,-68 1854,-70 1806,-56 1743,-37 1277,-16 1153,-11"/>
<polygon style="fill:midnightblue;stroke:midnightblue;" points="1153,-7.5001 1143,-11 1153,-14.5001 1153,-7.5001"/>
</g>
<!-- Node16&#45;&gt;Node3 -->
<g id="edge46" class="edge"><title>Node16&#45;&gt;Node3</title>
<path style="fill:none;stroke:midnightblue;" d="M1236,-336C1296,-329 1375,-317 1443,-300 1513,-281 1531,-275 1598,-244 1676,-206 1712,-205 1759,-132 1768,-118 1772,-100 1774,-86"/>
<polygon style="fill:midnightblue;stroke:midnightblue;" points="1777.49,-86.2987 1775,-76 1770.52,-85.6021 1777.49,-86.2987"/>
</g>
<!-- Node16&#45;&gt;Node6 -->
<g id="edge162" class="edge"><title>Node16&#45;&gt;Node6</title>
<path style="fill:none;stroke:midnightblue;" d="M1091,-336C1005,-317 826,-270 694,-188 674,-175 655,-154 642,-140"/>
<polygon style="fill:midnightblue;stroke:midnightblue;" points="644.8,-137.9 636,-132 639.2,-142.1 644.8,-137.9"/>
</g>
<!-- Node16&#45;&gt;Node7 -->
<g id="edge142" class="edge"><title>Node16&#45;&gt;Node7</title>
<path style="fill:none;stroke:midnightblue;" d="M1211,-336C1338,-316 1601,-265 1643,-188 1647,-180 1648,-175 1643,-168 1629,-149 1573,-137 1530,-130"/>
<polygon style="fill:midnightblue;stroke:midnightblue;" points="1530.49,-126.529 1520,-128 1529.12,-133.393 1530.49,-126.529"/>
</g>
<!-- Node16&#45;&gt;Node10 -->
<g id="edge50" class="edge"><title>Node16&#45;&gt;Node10</title>
<path style="fill:none;stroke:midnightblue;" d="M1145,-336C1157,-303 1196,-197 1233,-112 1237,-103 1242,-93 1246,-85"/>
<polygon style="fill:midnightblue;stroke:midnightblue;" points="1249.2,-86.4414 1251,-76 1243.08,-83.0418 1249.2,-86.4414"/>
</g>
<!-- Node16&#45;&gt;Node12 -->
<g id="edge164" class="edge"><title>Node16&#45;&gt;Node12</title>
<path style="fill:none;stroke:midnightblue;" d="M1046,-341C914,-334 682,-320 600,-300 473,-269 401,-296 328,-188 323,-180 317,-151 329,-112 333,-102 339,-92 345,-84"/>
<polygon style="fill:midnightblue;stroke:midnightblue;" points="347.8,-86.1 351,-76 342.2,-81.9 347.8,-86.1"/>
</g>
<!-- Node17 -->
<g id="node43" class="node"><title>Node17</title>
<a xlink:href="data__set_8h.html" target="_top" xlink:title="ltr/data/data_set.h">
<polygon style="fill:white;stroke:black;" points="1224,-280 1224,-300 1319,-300 1319,-280 1224,-280"/>
<text text-anchor="middle" x="1271" y="-287" style="font-family:Arial;font-size:10.00;">ltr/data/data_set.h</text>
</a>
</g>
<!-- Node16&#45;&gt;Node17 -->
<g id="edge52" class="edge"><title>Node16&#45;&gt;Node17</title>
<path style="fill:none;stroke:midnightblue;" d="M1164,-336C1185,-327 1215,-314 1238,-304"/>
<polygon style="fill:midnightblue;stroke:midnightblue;" points="1240.02,-306.964 1248,-300 1237.42,-300.464 1240.02,-306.964"/>
</g>
<!-- Node21 -->
<g id="node67" class="node"><title>Node21</title>
<a xlink:href="feature__info_8h.html" target="_top" xlink:title="ltr/data/feature_info.h">
<polygon style="fill:white;stroke:black;" points="1008,-224 1008,-244 1115,-244 1115,-224 1008,-224"/>
<text text-anchor="middle" x="1061" y="-231" style="font-family:Arial;font-size:10.00;">ltr/data/feature_info.h</text>
</a>
</g>
<!-- Node16&#45;&gt;Node21 -->
<g id="edge140" class="edge"><title>Node16&#45;&gt;Node21</title>
<path style="fill:none;stroke:midnightblue;" d="M1134,-336C1121,-316 1092,-277 1074,-252"/>
<polygon style="fill:midnightblue;stroke:midnightblue;" points="1076.8,-249.9 1068,-244 1071.2,-254.1 1076.8,-249.9"/>
</g>
<!-- Node22 -->
<g id="node72" class="node"><title>Node22</title>
<a xlink:href="parameterized_8h.html" target="_top" xlink:title="ltr/interfaces/parameterized.h">
<polygon style="fill:white;stroke:black;" points="972,-168 972,-188 1114,-188 1114,-168 972,-168"/>
<text text-anchor="middle" x="1043" y="-175" style="font-family:Arial;font-size:10.00;">ltr/interfaces/parameterized.h</text>
</a>
</g>
<!-- Node16&#45;&gt;Node22 -->
<g id="edge146" class="edge"><title>Node16&#45;&gt;Node22</title>
<path style="fill:none;stroke:midnightblue;" d="M1115,-336C1081,-322 1024,-291 999,-244 990,-226 1005,-208 1020,-194"/>
<polygon style="fill:midnightblue;stroke:midnightblue;" points="1022.1,-196.8 1028,-188 1017.9,-191.2 1022.1,-196.8"/>
</g>
<!-- Node28 -->
<g id="node91" class="node"><title>Node28</title>
<a xlink:href="per__object__accessor_8h.html" target="_top" xlink:title="ltr/data/per_object_accessor.h">
<polygon style="fill:white;stroke:black;" points="1352,-224 1352,-244 1499,-244 1499,-224 1352,-224"/>
<text text-anchor="middle" x="1425" y="-231" style="font-family:Arial;font-size:10.00;">ltr/data/per_object_accessor.h</text>
</a>
</g>
<!-- Node16&#45;&gt;Node28 -->
<g id="edge144" class="edge"><title>Node16&#45;&gt;Node28</title>
<path style="fill:none;stroke:midnightblue;" d="M1204,-336C1241,-329 1288,-317 1327,-300 1356,-287 1386,-265 1405,-250"/>
<polygon style="fill:midnightblue;stroke:midnightblue;" points="1407.1,-252.8 1413,-244 1402.9,-247.2 1407.1,-252.8"/>
</g>
<!-- Node29 -->
<g id="node103" class="node"><title>Node29</title>
<a xlink:href="serializable_8h.html" target="_top" xlink:title="ltr/interfaces/serializable.h">
<polygon style="fill:white;stroke:black;" points="351,-168 351,-188 480,-188 480,-168 351,-168"/>
<text text-anchor="middle" x="415" y="-175" style="font-family:Arial;font-size:10.00;">ltr/interfaces/serializable.h</text>
</a>
</g>
<!-- Node16&#45;&gt;Node29 -->
<g id="edge148" class="edge"><title>Node16&#45;&gt;Node29</title>
<path style="fill:none;stroke:midnightblue;" d="M1046,-339C914,-329 689,-311 652,-300 568,-275 479,-220 438,-194"/>
<polygon style="fill:midnightblue;stroke:midnightblue;" points="440.1,-191.2 430,-188 435.9,-196.8 440.1,-191.2"/>
</g>
<!-- Node17&#45;&gt;Node2 -->
<g id="edge58" class="edge"><title>Node17&#45;&gt;Node2</title>
<path style="fill:none;stroke:midnightblue;" d="M1243,-280C1205,-264 1142,-230 1142,-178 1142,-178 1142,-178 1142,-122 1142,-89 1134,-52 1128,-30"/>
<polygon style="fill:midnightblue;stroke:midnightblue;" points="1131.39,-29.1194 1126,-20 1124.53,-30.4922 1131.39,-29.1194"/>
</g>
<!-- Node17&#45;&gt;Node3 -->
<g id="edge60" class="edge"><title>Node17&#45;&gt;Node3</title>
<path style="fill:none;stroke:midnightblue;" d="M1319,-287C1377,-282 1477,-271 1559,-244 1609,-227 1620,-216 1666,-188 1701,-165 1713,-163 1741,-132 1752,-118 1762,-100 1768,-86"/>
<polygon style="fill:midnightblue;stroke:midnightblue;" points="1771.54,-86.5847 1772,-76 1765.04,-83.9849 1771.54,-86.5847"/>
</g>
<!-- Node17&#45;&gt;Node6 -->
<g id="edge138" class="edge"><title>Node17&#45;&gt;Node6</title>
<path style="fill:none;stroke:midnightblue;" d="M1224,-287C1128,-280 906,-257 734,-188 702,-175 669,-153 649,-138"/>
<polygon style="fill:midnightblue;stroke:midnightblue;" points="651.1,-135.2 641,-132 646.9,-140.8 651.1,-135.2"/>
</g>
<!-- Node17&#45;&gt;Node7 -->
<g id="edge62" class="edge"><title>Node17&#45;&gt;Node7</title>
<path style="fill:none;stroke:midnightblue;" d="M1319,-288C1381,-283 1484,-272 1507,-244 1531,-214 1508,-166 1491,-140"/>
<polygon style="fill:midnightblue;stroke:midnightblue;" points="1493.8,-137.9 1485,-132 1488.2,-142.1 1493.8,-137.9"/>
</g>
<!-- Node17&#45;&gt;Node10 -->
<g id="edge56" class="edge"><title>Node17&#45;&gt;Node10</title>
<path style="fill:none;stroke:midnightblue;" d="M1260,-280C1252,-271 1242,-258 1237,-244 1220,-189 1238,-119 1249,-86"/>
<polygon style="fill:midnightblue;stroke:midnightblue;" points="1252.48,-86.584 1252,-76 1245.77,-84.5725 1252.48,-86.584"/>
</g>
<!-- Node18 -->
<g id="node45" class="node"><title>Node18</title>
<polygon style="fill:white;stroke:#bfbfbf;" points="1246,-224 1246,-244 1297,-244 1297,-224 1246,-224"/>
<text text-anchor="middle" x="1271" y="-231" style="font-family:Arial;font-size:10.00;">sstream</text>
</g>
<!-- Node17&#45;&gt;Node18 -->
<g id="edge54" class="edge"><title>Node17&#45;&gt;Node18</title>
<path style="fill:none;stroke:midnightblue;" d="M1271,-280C1271,-273 1271,-263 1271,-254"/>
<polygon style="fill:midnightblue;stroke:midnightblue;" points="1274.5,-254 1271,-244 1267.5,-254 1274.5,-254"/>
</g>
<!-- Node19 -->
<g id="node51" class="node"><title>Node19</title>
<a xlink:href="object__list_8h.html" target="_top" xlink:title="ltr/data/object_list.h">
<polygon style="fill:white;stroke:black;" points="1299,-168 1299,-188 1401,-188 1401,-168 1299,-168"/>
<text text-anchor="middle" x="1350" y="-175" style="font-family:Arial;font-size:10.00;">ltr/data/object_list.h</text>
</a>
</g>
<!-- Node17&#45;&gt;Node19 -->
<g id="edge64" class="edge"><title>Node17&#45;&gt;Node19</title>
<path style="fill:none;stroke:midnightblue;" d="M1279,-280C1286,-270 1297,-256 1305,-244 1316,-229 1329,-210 1337,-197"/>
<polygon style="fill:midnightblue;stroke:midnightblue;" points="1340.37,-198.262 1343,-188 1334.54,-194.379 1340.37,-198.262"/>
</g>
<!-- Node20 -->
<g id="node59" class="node"><title>Node20</title>
<a xlink:href="object__pair_8h.html" target="_top" xlink:title="ltr/data/object_pair.h">
<polygon style="fill:white;stroke:black;" points="1530,-168 1530,-188 1634,-188 1634,-168 1530,-168"/>
<text text-anchor="middle" x="1582" y="-175" style="font-family:Arial;font-size:10.00;">ltr/data/object_pair.h</text>
</a>
</g>
<!-- Node17&#45;&gt;Node20 -->
<g id="edge78" class="edge"><title>Node17&#45;&gt;Node20</title>
<path style="fill:none;stroke:midnightblue;" d="M1319,-286C1386,-280 1504,-267 1540,-244 1556,-233 1567,-213 1574,-198"/>
<polygon style="fill:midnightblue;stroke:midnightblue;" points="1577.54,-198.585 1578,-188 1571.04,-195.985 1577.54,-198.585"/>
</g>
<!-- Node17&#45;&gt;Node21 -->
<g id="edge92" class="edge"><title>Node17&#45;&gt;Node21</title>
<path style="fill:none;stroke:midnightblue;" d="M1233,-280C1198,-271 1146,-257 1109,-247"/>
<polygon style="fill:midnightblue;stroke:midnightblue;" points="1109.58,-243.521 1099,-244 1107.57,-250.226 1109.58,-243.521"/>
</g>
<!-- Node17&#45;&gt;Node28 -->
<g id="edge126" class="edge"><title>Node17&#45;&gt;Node28</title>
<path style="fill:none;stroke:midnightblue;" d="M1299,-280C1324,-271 1361,-257 1388,-247"/>
<polygon style="fill:midnightblue;stroke:midnightblue;" points="1389.43,-250.226 1398,-244 1387.42,-243.521 1389.43,-250.226"/>
</g>
<!-- Node19&#45;&gt;Node2 -->
<g id="edge68" class="edge"><title>Node19&#45;&gt;Node2</title>
<path style="fill:none;stroke:midnightblue;" d="M1348,-168C1344,-144 1330,-86 1294,-56 1273,-38 1196,-22 1153,-15"/>
<polygon style="fill:midnightblue;stroke:midnightblue;" points="1153.49,-11.5292 1143,-13 1152.12,-18.3933 1153.49,-11.5292"/>
</g>
<!-- Node19&#45;&gt;Node3 -->
<g id="edge70" class="edge"><title>Node19&#45;&gt;Node3</title>
<path style="fill:none;stroke:midnightblue;" d="M1395,-168C1435,-159 1494,-145 1546,-132 1617,-113 1701,-89 1745,-75"/>
<polygon style="fill:midnightblue;stroke:midnightblue;" points="1746.43,-78.2259 1755,-72 1744.42,-71.5212 1746.43,-78.2259"/>
</g>
<!-- Node19&#45;&gt;Node7 -->
<g id="edge72" class="edge"><title>Node19&#45;&gt;Node7</title>
<path style="fill:none;stroke:midnightblue;" d="M1373,-168C1393,-159 1423,-146 1446,-136"/>
<polygon style="fill:midnightblue;stroke:midnightblue;" points="1447.28,-139.26 1455,-132 1444.44,-132.863 1447.28,-139.26"/>
</g>
<!-- Node19&#45;&gt;Node10 -->
<g id="edge66" class="edge"><title>Node19&#45;&gt;Node10</title>
<path style="fill:none;stroke:midnightblue;" d="M1341,-168C1325,-148 1291,-108 1271,-84"/>
<polygon style="fill:midnightblue;stroke:midnightblue;" points="1273.8,-81.9 1265,-76 1268.2,-86.1 1273.8,-81.9"/>
</g>
<!-- Node19&#45;&gt;Node11 -->
<g id="edge74" class="edge"><title>Node19&#45;&gt;Node11</title>
<path style="fill:none;stroke:midnightblue;" d="M1401,-170C1447,-163 1511,-149 1529,-132 1541,-120 1545,-101 1547,-86"/>
<polygon style="fill:midnightblue;stroke:midnightblue;" points="1550.49,-86.2987 1548,-76 1543.52,-85.6021 1550.49,-86.2987"/>
</g>
<!-- Node19&#45;&gt;Node12 -->
<g id="edge76" class="edge"><title>Node19&#45;&gt;Node12</title>
<path style="fill:none;stroke:midnightblue;" d="M1299,-176C1202,-172 988,-160 810,-132 772,-125 763,-118 724,-112 620,-93 497,-79 424,-72"/>
<polygon style="fill:midnightblue;stroke:midnightblue;" points="424.299,-68.5125 414,-71 423.602,-75.4778 424.299,-68.5125"/>
</g>
<!-- Node20&#45;&gt;Node2 -->
<g id="edge82" class="edge"><title>Node20&#45;&gt;Node2</title>
<path style="fill:none;stroke:midnightblue;" d="M1590,-168C1607,-145 1644,-88 1615,-56 1584,-21 1256,-13 1153,-10"/>
<polygon style="fill:midnightblue;stroke:midnightblue;" points="1153,-6.5001 1143,-10 1153,-13.5001 1153,-6.5001"/>
</g>
<!-- Node20&#45;&gt;Node3 -->
<g id="edge84" class="edge"><title>Node20&#45;&gt;Node3</title>
<path style="fill:none;stroke:midnightblue;" d="M1604,-168C1623,-159 1652,-146 1676,-132 1703,-116 1734,-96 1754,-82"/>
<polygon style="fill:midnightblue;stroke:midnightblue;" points="1756.1,-84.8 1762,-76 1751.9,-79.2 1756.1,-84.8"/>
</g>
<!-- Node20&#45;&gt;Node7 -->
<g id="edge86" class="edge"><title>Node20&#45;&gt;Node7</title>
<path style="fill:none;stroke:midnightblue;" d="M1563,-168C1547,-160 1524,-147 1506,-137"/>
<polygon style="fill:midnightblue;stroke:midnightblue;" points="1507.44,-133.797 1497,-132 1504.04,-139.916 1507.44,-133.797"/>
</g>
<!-- Node20&#45;&gt;Node10 -->
<g id="edge80" class="edge"><title>Node20&#45;&gt;Node10</title>
<path style="fill:none;stroke:midnightblue;" d="M1545,-168C1514,-159 1467,-146 1427,-132 1379,-116 1325,-93 1291,-80"/>
<polygon style="fill:midnightblue;stroke:midnightblue;" points="1291.58,-76.4643 1281,-76 1288.98,-82.9636 1291.58,-76.4643"/>
</g>
<!-- Node20&#45;&gt;Node11 -->
<g id="edge88" class="edge"><title>Node20&#45;&gt;Node11</title>
<path style="fill:none;stroke:midnightblue;" d="M1579,-168C1575,-155 1567,-131 1562,-112 1559,-103 1557,-94 1554,-86"/>
<polygon style="fill:midnightblue;stroke:midnightblue;" points="1557.23,-84.5725 1551,-76 1550.52,-86.584 1557.23,-84.5725"/>
</g>
<!-- Node20&#45;&gt;Node12 -->
<g id="edge90" class="edge"><title>Node20&#45;&gt;Node12</title>
<path style="fill:none;stroke:midnightblue;" d="M1530,-175C1365,-165 861,-135 843,-132 818,-126 814,-117 789,-112 721,-97 527,-79 424,-71"/>
<polygon style="fill:midnightblue;stroke:midnightblue;" points="424.299,-67.5125 414,-70 423.602,-74.4778 424.299,-67.5125"/>
</g>
<!-- Node21&#45;&gt;Node2 -->
<g id="edge96" class="edge"><title>Node21&#45;&gt;Node2</title>
<path style="fill:none;stroke:midnightblue;" d="M1008,-224C902,-202 683,-145 761,-56 783,-31 1010,-16 1093,-12"/>
<polygon style="fill:midnightblue;stroke:midnightblue;" points="1093.4,-15.4778 1103,-11 1092.7,-8.5125 1093.4,-15.4778"/>
</g>
<!-- Node21&#45;&gt;Node3 -->
<g id="edge98" class="edge"><title>Node21&#45;&gt;Node3</title>
<path style="fill:none;stroke:midnightblue;" d="M1115,-231C1255,-222 1619,-198 1643,-188 1695,-165 1741,-112 1763,-84"/>
<polygon style="fill:midnightblue;stroke:midnightblue;" points="1765.8,-86.1 1769,-76 1760.2,-81.9 1765.8,-86.1"/>
</g>
<!-- Node21&#45;&gt;Node8 -->
<g id="edge94" class="edge"><title>Node21&#45;&gt;Node8</title>
<path style="fill:none;stroke:midnightblue;" d="M1080,-224C1134,-195 1290,-113 1352,-80"/>
<polygon style="fill:midnightblue;stroke:midnightblue;" points="1353.96,-82.916 1361,-75 1350.56,-76.7969 1353.96,-82.916"/>
</g>
<!-- Node21&#45;&gt;Node12 -->
<g id="edge124" class="edge"><title>Node21&#45;&gt;Node12</title>
<path style="fill:none;stroke:midnightblue;" d="M1008,-233C845,-228 365,-212 342,-188 316,-161 335,-112 349,-85"/>
<polygon style="fill:midnightblue;stroke:midnightblue;" points="352.203,-86.4414 354,-76 346.084,-83.0418 352.203,-86.4414"/>
</g>
<!-- Node21&#45;&gt;Node22 -->
<g id="edge100" class="edge"><title>Node21&#45;&gt;Node22</title>
<path style="fill:none;stroke:midnightblue;" d="M1058,-224C1056,-217 1053,-207 1049,-197"/>
<polygon style="fill:midnightblue;stroke:midnightblue;" points="1052.48,-196.38 1046,-188 1045.84,-198.594 1052.48,-196.38"/>
</g>
<!-- Node22&#45;&gt;Node2 -->
<g id="edge104" class="edge"><title>Node22&#45;&gt;Node2</title>
<path style="fill:none;stroke:midnightblue;" d="M1055,-168C1065,-159 1077,-146 1085,-132 1104,-99 1115,-55 1119,-30"/>
<polygon style="fill:midnightblue;stroke:midnightblue;" points="1122.47,-30.4922 1121,-20 1115.61,-29.1194 1122.47,-30.4922"/>
</g>
<!-- Node22&#45;&gt;Node10 -->
<g id="edge102" class="edge"><title>Node22&#45;&gt;Node10</title>
<path style="fill:none;stroke:midnightblue;" d="M1062,-168C1100,-148 1184,-104 1228,-81"/>
<polygon style="fill:midnightblue;stroke:midnightblue;" points="1229.96,-83.916 1237,-76 1226.56,-77.7969 1229.96,-83.916"/>
</g>
<!-- Node23 -->
<g id="node76" class="node"><title>Node23</title>
<a xlink:href="parameters__container_8h.html" target="_top" xlink:title="ltr/parameters_container/parameters_container.h">
<polygon style="fill:white;stroke:black;" points="852,-112 852,-132 1077,-132 1077,-112 852,-112"/>
<text text-anchor="middle" x="964" y="-119" style="font-family:Arial;font-size:10.00;">ltr/parameters_container/parameters_container.h</text>
</a>
</g>
<!-- Node22&#45;&gt;Node23 -->
<g id="edge106" class="edge"><title>Node22&#45;&gt;Node23</title>
<path style="fill:none;stroke:midnightblue;" d="M1029,-168C1017,-160 1000,-147 986,-138"/>
<polygon style="fill:midnightblue;stroke:midnightblue;" points="988.1,-135.2 978,-132 983.9,-140.8 988.1,-135.2"/>
</g>
<!-- Node23&#45;&gt;Node2 -->
<g id="edge114" class="edge"><title>Node23&#45;&gt;Node2</title>
<path style="fill:none;stroke:midnightblue;" d="M985,-112C1002,-103 1027,-90 1047,-76 1068,-61 1091,-41 1106,-27"/>
<polygon style="fill:midnightblue;stroke:midnightblue;" points="1108.4,-29.546 1113,-20 1103.45,-24.5962 1108.4,-29.546"/>
</g>
<!-- Node23&#45;&gt;Node10 -->
<g id="edge112" class="edge"><title>Node23&#45;&gt;Node10</title>
<path style="fill:none;stroke:midnightblue;" d="M1016,-112C1074,-101 1165,-83 1217,-74"/>
<polygon style="fill:midnightblue;stroke:midnightblue;" points="1217.88,-77.3933 1227,-72 1216.51,-70.5292 1217.88,-77.3933"/>
</g>
<!-- Node23&#45;&gt;Node11 -->
<g id="edge122" class="edge"><title>Node23&#45;&gt;Node11</title>
<path style="fill:none;stroke:midnightblue;" d="M1068,-112C1187,-100 1378,-82 1480,-73"/>
<polygon style="fill:midnightblue;stroke:midnightblue;" points="1480.4,-76.4778 1490,-72 1479.7,-69.5125 1480.4,-76.4778"/>
</g>
<!-- Node23&#45;&gt;Node12 -->
<g id="edge120" class="edge"><title>Node23&#45;&gt;Node12</title>
<path style="fill:none;stroke:midnightblue;" d="M856,-112C730,-100 527,-81 424,-72"/>
<polygon style="fill:midnightblue;stroke:midnightblue;" points="424.299,-68.5125 414,-71 423.602,-75.4778 424.299,-68.5125"/>
</g>
<!-- Node24 -->
<g id="node78" class="node"><title>Node24</title>
<polygon style="fill:white;stroke:#bfbfbf;" points="553,-56 553,-76 627,-76 627,-56 553,-56"/>
<text text-anchor="middle" x="590" y="-63" style="font-family:Arial;font-size:10.00;">logog/logog.h</text>
</g>
<!-- Node23&#45;&gt;Node24 -->
<g id="edge108" class="edge"><title>Node23&#45;&gt;Node24</title>
<path style="fill:none;stroke:midnightblue;" d="M897,-112C823,-101 703,-83 637,-73"/>
<polygon style="fill:midnightblue;stroke:midnightblue;" points="637.299,-69.5125 627,-72 636.602,-76.4778 637.299,-69.5125"/>
</g>
<!-- Node25 -->
<g id="node80" class="node"><title>Node25</title>
<polygon style="fill:white;stroke:#bfbfbf;" points="1010,-56 1010,-76 1039,-76 1039,-56 1010,-56"/>
<text text-anchor="middle" x="1024" y="-63" style="font-family:Arial;font-size:10.00;">list</text>
</g>
<!-- Node23&#45;&gt;Node25 -->
<g id="edge110" class="edge"><title>Node23&#45;&gt;Node25</title>
<path style="fill:none;stroke:midnightblue;" d="M975,-112C984,-104 996,-93 1006,-83"/>
<polygon style="fill:midnightblue;stroke:midnightblue;" points="1008.4,-85.546 1013,-76 1003.45,-80.5962 1008.4,-85.546"/>
</g>
<!-- Node26 -->
<g id="node84" class="node"><title>Node26</title>
<polygon style="fill:white;stroke:#bfbfbf;" points="770,-56 770,-76 847,-76 847,-56 770,-56"/>
<text text-anchor="middle" x="808" y="-63" style="font-family:Arial;font-size:10.00;">boost/any.hpp</text>
</g>
<!-- Node23&#45;&gt;Node26 -->
<g id="edge116" class="edge"><title>Node23&#45;&gt;Node26</title>
<path style="fill:none;stroke:midnightblue;" d="M936,-112C911,-103 873,-89 846,-79"/>
<polygon style="fill:midnightblue;stroke:midnightblue;" points="846.584,-75.5212 836,-76 844.573,-82.2259 846.584,-75.5212"/>
</g>
<!-- Node27 -->
<g id="node86" class="node"><title>Node27</title>
<polygon style="fill:white;stroke:#bfbfbf;" points="864,-56 864,-76 993,-76 993,-56 864,-56"/>
<text text-anchor="middle" x="928" y="-63" style="font-family:Arial;font-size:10.00;">boost/unordered_map.hpp</text>
</g>
<!-- Node23&#45;&gt;Node27 -->
<g id="edge118" class="edge"><title>Node23&#45;&gt;Node27</title>
<path style="fill:none;stroke:midnightblue;" d="M958,-112C953,-105 946,-94 940,-85"/>
<polygon style="fill:midnightblue;stroke:midnightblue;" points="942.916,-83.0418 935,-76 936.797,-86.4414 942.916,-83.0418"/>
</g>
<!-- Node28&#45;&gt;Node7 -->
<g id="edge128" class="edge"><title>Node28&#45;&gt;Node7</title>
<path style="fill:none;stroke:midnightblue;" d="M1430,-224C1439,-205 1457,-166 1469,-141"/>
<polygon style="fill:midnightblue;stroke:midnightblue;" points="1472.14,-142.56 1473,-132 1465.74,-139.717 1472.14,-142.56"/>
</g>
<!-- Node28&#45;&gt;Node12 -->
<g id="edge136" class="edge"><title>Node28&#45;&gt;Node12</title>
<path style="fill:none;stroke:midnightblue;" d="M1352,-228C1241,-218 1036,-199 963,-188 856,-170 826,-173 724,-132 709,-125 708,-117 691,-112 644,-95 507,-79 424,-72"/>
<polygon style="fill:midnightblue;stroke:midnightblue;" points="424.299,-68.5125 414,-71 423.602,-75.4778 424.299,-68.5125"/>
</g>
<!-- Node28&#45;&gt;Node19 -->
<g id="edge132" class="edge"><title>Node28&#45;&gt;Node19</title>
<path style="fill:none;stroke:midnightblue;" d="M1412,-224C1401,-216 1385,-204 1372,-194"/>
<polygon style="fill:midnightblue;stroke:midnightblue;" points="1374.1,-191.2 1364,-188 1369.9,-196.8 1374.1,-191.2"/>
</g>
<!-- Node28&#45;&gt;Node20 -->
<g id="edge130" class="edge"><title>Node28&#45;&gt;Node20</title>
<path style="fill:none;stroke:midnightblue;" d="M1453,-224C1478,-215 1516,-201 1544,-191"/>
<polygon style="fill:midnightblue;stroke:midnightblue;" points="1545.43,-194.226 1554,-188 1543.42,-187.521 1545.43,-194.226"/>
</g>
<!-- Node28&#45;&gt;Node22 -->
<g id="edge134" class="edge"><title>Node28&#45;&gt;Node22</title>
<path style="fill:none;stroke:midnightblue;" d="M1357,-224C1290,-214 1190,-199 1121,-189"/>
<polygon style="fill:midnightblue;stroke:midnightblue;" points="1121.3,-185.512 1111,-188 1120.6,-192.478 1121.3,-185.512"/>
</g>
<!-- Node29&#45;&gt;Node2 -->
<g id="edge154" class="edge"><title>Node29&#45;&gt;Node2</title>
<path style="fill:none;stroke:midnightblue;" d="M424,-168C431,-159 443,-145 451,-132 473,-99 462,-76 494,-56 545,-23 975,-13 1093,-10"/>
<polygon style="fill:midnightblue;stroke:midnightblue;" points="1093,-13.5001 1103,-10 1093,-6.5001 1093,-13.5001"/>
</g>
<!-- Node29&#45;&gt;Node5 -->
<g id="edge150" class="edge"><title>Node29&#45;&gt;Node5</title>
<path style="fill:none;stroke:midnightblue;" d="M376,-168C340,-159 287,-145 248,-135"/>
<polygon style="fill:midnightblue;stroke:midnightblue;" points="248.584,-131.521 238,-132 246.573,-138.226 248.584,-131.521"/>
</g>
<!-- Node29&#45;&gt;Node6 -->
<g id="edge160" class="edge"><title>Node29&#45;&gt;Node6</title>
<path style="fill:none;stroke:midnightblue;" d="M453,-168C488,-159 541,-145 580,-135"/>
<polygon style="fill:midnightblue;stroke:midnightblue;" points="581.427,-138.226 590,-132 579.416,-131.521 581.427,-138.226"/>
</g>
<!-- Node29&#45;&gt;Node12 -->
<g id="edge158" class="edge"><title>Node29&#45;&gt;Node12</title>
<path style="fill:none;stroke:midnightblue;" d="M405,-168C397,-159 386,-145 379,-132 372,-117 367,-99 364,-86"/>
<polygon style="fill:midnightblue;stroke:midnightblue;" points="367.393,-85.1194 362,-76 360.529,-86.4922 367.393,-85.1194"/>
</g>
<!-- Node29&#45;&gt;Node24 -->
<g id="edge152" class="edge"><title>Node29&#45;&gt;Node24</title>
<path style="fill:none;stroke:midnightblue;" d="M431,-168C461,-148 529,-104 566,-81"/>
<polygon style="fill:midnightblue;stroke:midnightblue;" points="567.375,-84.268 574,-76 563.665,-78.332 567.375,-84.268"/>
</g>
<!-- Node30 -->
<g id="node108" class="node"><title>Node30</title>
<polygon style="fill:white;stroke:#bfbfbf;" points="388,-112 388,-132 442,-132 442,-112 388,-112"/>
<text text-anchor="middle" x="415" y="-119" style="font-family:Arial;font-size:10.00;">iostream</text>
</g>
<!-- Node29&#45;&gt;Node30 -->
<g id="edge156" class="edge"><title>Node29&#45;&gt;Node30</title>
<path style="fill:none;stroke:midnightblue;" d="M415,-168C415,-161 415,-151 415,-142"/>
<polygon style="fill:midnightblue;stroke:midnightblue;" points="418.5,-142 415,-132 411.5,-142 418.5,-142"/>
</g>
<!-- Node31&#45;&gt;Node12 -->
<g id="edge168" class="edge"><title>Node31&#45;&gt;Node12</title>
<path style="fill:none;stroke:midnightblue;" d="M194,-224C174,-217 151,-206 136,-188 115,-161 104,-138 125,-112 147,-85 235,-74 297,-70"/>
<polygon style="fill:midnightblue;stroke:midnightblue;" points="297.398,-73.4778 307,-69 296.701,-66.5125 297.398,-73.4778"/>
</g>
<!-- Node31&#45;&gt;Node29 -->
<g id="edge180" class="edge"><title>Node31&#45;&gt;Node29</title>
<path style="fill:none;stroke:midnightblue;" d="M270,-224C299,-215 342,-201 373,-191"/>
<polygon style="fill:midnightblue;stroke:midnightblue;" points="374.427,-194.226 383,-188 372.416,-187.521 374.427,-194.226"/>
</g>
<!-- Node32 -->
<g id="node117" class="node"><title>Node32</title>
<a xlink:href="functor_8h.html" target="_top" xlink:title="ltr/interfaces/functor.h">
<polygon style="fill:white;stroke:black;" points="145,-168 145,-188 254,-188 254,-168 145,-168"/>
<text text-anchor="middle" x="199" y="-175" style="font-family:Arial;font-size:10.00;">ltr/interfaces/functor.h</text>
</a>
</g>
<!-- Node31&#45;&gt;Node32 -->
<g id="edge170" class="edge"><title>Node31&#45;&gt;Node32</title>
<path style="fill:none;stroke:midnightblue;" d="M232,-224C226,-216 218,-206 212,-197"/>
<polygon style="fill:midnightblue;stroke:midnightblue;" points="214.459,-194.379 206,-188 208.635,-198.262 214.459,-194.379"/>
</g>
<!-- Node32&#45;&gt;Node2 -->
<g id="edge176" class="edge"><title>Node32&#45;&gt;Node2</title>
<path style="fill:none;stroke:midnightblue;" d="M172,-168C145,-156 109,-135 125,-112 173,-46 219,-70 298,-56 456,-27 963,-14 1093,-10"/>
<polygon style="fill:midnightblue;stroke:midnightblue;" points="1093,-13.5001 1103,-10 1093,-6.5001 1093,-13.5001"/>
</g>
<!-- Node32&#45;&gt;Node5 -->
<g id="edge174" class="edge"><title>Node32&#45;&gt;Node5</title>
<path style="fill:none;stroke:midnightblue;" d="M199,-168C199,-161 199,-151 199,-142"/>
<polygon style="fill:midnightblue;stroke:midnightblue;" points="202.5,-142 199,-132 195.5,-142 202.5,-142"/>
</g>
<!-- Node32&#45;&gt;Node7 -->
<g id="edge178" class="edge"><title>Node32&#45;&gt;Node7</title>
<path style="fill:none;stroke:midnightblue;" d="M254,-174C281,-172 313,-169 342,-168 760,-145 1265,-129 1426,-123"/>
<polygon style="fill:midnightblue;stroke:midnightblue;" points="1426,-126.5 1436,-123 1426,-119.5 1426,-126.5"/>
</g>
<!-- Node32&#45;&gt;Node12 -->
<g id="edge172" class="edge"><title>Node32&#45;&gt;Node12</title>
<path style="fill:none;stroke:midnightblue;" d="M176,-168C151,-155 116,-133 133,-112 154,-87 237,-75 297,-70"/>
<polygon style="fill:midnightblue;stroke:midnightblue;" points="297.398,-73.4778 307,-69 296.701,-66.5125 297.398,-73.4778"/>
</g>
</g>
</svg>
