<?xml version="1.0" encoding="UTF-8" standalone="no"?>
<!DOCTYPE svg PUBLIC "-//W3C//DTD SVG 1.0//EN"
 "http://www.w3.org/TR/2001/REC-SVG-20010904/DTD/svg10.dtd" [
 <!ATTLIST svg xmlns:xlink CDATA #FIXED "http://www.w3.org/1999/xlink">
]>
<!-- Generated by Graphviz version 2.20.2 (Tue Mar &#160;2 19:03:41 UTC 2010)
     For user: (jenkins)  -->
<!-- Title: G Pages: 1 -->
<svg width="1239pt" height="140pt"
 viewBox="0.00 0.00 1239.00 140.00" xmlns="http://www.w3.org/2000/svg" xmlns:xlink="http://www.w3.org/1999/xlink">
<g id="graph0" class="graph" transform="scale(1 1) rotate(0) translate(4 136)">
<title>G</title>
<polygon style="fill:white;stroke:white;" points="-4,4 -4,-136 1235,-136 1235,4 -4,4"/>
<!-- Node1 -->
<g id="node1" class="node"><title>Node1</title>
<polygon style="fill:#bfbfbf;stroke:black;" points="330,-112 330,-132 534,-132 534,-112 330,-112"/>
<text text-anchor="middle" x="432" y="-119" style="font-family:Arial;font-size:10.00;">ltr/measures/listwise_measures_unittest.cc</text>
</g>
<!-- Node2 -->
<g id="node3" class="node"><title>Node2</title>
<polygon style="fill:white;stroke:#bfbfbf;" points="0,-56 0,-76 71,-76 71,-56 0,-56"/>
<text text-anchor="middle" x="35" y="-63" style="font-family:Arial;font-size:10.00;">gtest/gtest.h</text>
</g>
<!-- Node1&#45;&gt;Node2 -->
<g id="edge2" class="edge"><title>Node1&#45;&gt;Node2</title>
<path style="fill:none;stroke:midnightblue;" d="M338,-112C269,-104 173,-92 81,-76"/>
<polygon style="fill:midnightblue;stroke:midnightblue;" points="81.4922,-72.5292 71,-74 80.1194,-79.3933 81.4922,-72.5292"/>
</g>
<!-- Node3 -->
<g id="node5" class="node"><title>Node3</title>
<polygon style="fill:white;stroke:#bfbfbf;" points="88,-56 88,-76 130,-76 130,-56 88,-56"/>
<text text-anchor="middle" x="109" y="-63" style="font-family:Arial;font-size:10.00;">vector</text>
</g>
<!-- Node1&#45;&gt;Node3 -->
<g id="edge4" class="edge"><title>Node1&#45;&gt;Node3</title>
<path style="fill:none;stroke:midnightblue;" d="M344,-112C288,-104 214,-93 140,-75"/>
<polygon style="fill:midnightblue;stroke:midnightblue;" points="140.492,-71.5292 130,-73 139.119,-78.3933 140.492,-71.5292"/>
</g>
<!-- Node4 -->
<g id="node7" class="node"><title>Node4</title>
<polygon style="fill:white;stroke:#bfbfbf;" points="148,-56 148,-76 187,-76 187,-56 148,-56"/>
<text text-anchor="middle" x="167" y="-63" style="font-family:Arial;font-size:10.00;">limits</text>
</g>
<!-- Node1&#45;&gt;Node4 -->
<g id="edge6" class="edge"><title>Node1&#45;&gt;Node4</title>
<path style="fill:none;stroke:midnightblue;" d="M367,-112C321,-104 259,-93 197,-76"/>
<polygon style="fill:midnightblue;stroke:midnightblue;" points="197.584,-72.5212 187,-73 195.573,-79.2259 197.584,-72.5212"/>
</g>
<!-- Node5 -->
<g id="node9" class="node"><title>Node5</title>
<polygon style="fill:white;stroke:#bfbfbf;" points="204,-56 204,-76 308,-76 308,-56 204,-56"/>
<text text-anchor="middle" x="256" y="-63" style="font-family:Arial;font-size:10.00;">ltr/utility/numerical.h</text>
</g>
<!-- Node1&#45;&gt;Node5 -->
<g id="edge8" class="edge"><title>Node1&#45;&gt;Node5</title>
<path style="fill:none;stroke:midnightblue;" d="M401,-112C372,-103 329,-89 298,-79"/>
<polygon style="fill:midnightblue;stroke:midnightblue;" points="298.584,-75.5212 288,-76 296.573,-82.2259 298.584,-75.5212"/>
</g>
<!-- Node6 -->
<g id="node11" class="node"><title>Node6</title>
<polygon style="fill:white;stroke:#bfbfbf;" points="326,-56 326,-76 423,-76 423,-56 326,-56"/>
<text text-anchor="middle" x="374" y="-63" style="font-family:Arial;font-size:10.00;">ltr/measures/dcg.h</text>
</g>
<!-- Node1&#45;&gt;Node6 -->
<g id="edge10" class="edge"><title>Node1&#45;&gt;Node6</title>
<path style="fill:none;stroke:midnightblue;" d="M422,-112C413,-104 402,-93 392,-83"/>
<polygon style="fill:midnightblue;stroke:midnightblue;" points="394.546,-80.5962 385,-76 389.596,-85.546 394.546,-80.5962"/>
</g>
<!-- Node7 -->
<g id="node13" class="node"><title>Node7</title>
<polygon style="fill:white;stroke:#bfbfbf;" points="440,-56 440,-76 542,-76 542,-56 440,-56"/>
<text text-anchor="middle" x="491" y="-63" style="font-family:Arial;font-size:10.00;">ltr/measures/ndcg.h</text>
</g>
<!-- Node1&#45;&gt;Node7 -->
<g id="edge12" class="edge"><title>Node1&#45;&gt;Node7</title>
<path style="fill:none;stroke:midnightblue;" d="M443,-112C452,-104 463,-93 473,-83"/>
<polygon style="fill:midnightblue;stroke:midnightblue;" points="475.404,-85.546 480,-76 470.454,-80.5962 475.404,-85.546"/>
</g>
<!-- Node8 -->
<g id="node15" class="node"><title>Node8</title>
<polygon style="fill:white;stroke:#bfbfbf;" points="560,-56 560,-76 719,-76 719,-56 560,-56"/>
<text text-anchor="middle" x="639" y="-63" style="font-family:Arial;font-size:10.00;">ltr/measures/average_precision.h</text>
</g>
<!-- Node1&#45;&gt;Node8 -->
<g id="edge14" class="edge"><title>Node1&#45;&gt;Node8</title>
<path style="fill:none;stroke:midnightblue;" d="M469,-112C504,-103 555,-89 592,-79"/>
<polygon style="fill:midnightblue;stroke:midnightblue;" points="593.427,-82.2259 602,-76 591.416,-75.5212 593.427,-82.2259"/>
</g>
<!-- Node9 -->
<g id="node17" class="node"><title>Node9</title>
<polygon style="fill:white;stroke:#bfbfbf;" points="736,-56 736,-76 883,-76 883,-56 736,-56"/>
<text text-anchor="middle" x="809" y="-63" style="font-family:Arial;font-size:10.00;">ltr/measures/reciprocal_rank.h</text>
</g>
<!-- Node1&#45;&gt;Node9 -->
<g id="edge16" class="edge"><title>Node1&#45;&gt;Node9</title>
<path style="fill:none;stroke:midnightblue;" d="M499,-112C565,-102 663,-87 732,-77"/>
<polygon style="fill:midnightblue;stroke:midnightblue;" points="732.398,-80.4778 742,-76 731.701,-73.5125 732.398,-80.4778"/>
</g>
<!-- Node10 -->
<g id="node19" class="node"><title>Node10</title>
<a xlink:href="pfound_8h.html" target="_top" xlink:title="ltr/measures/pfound.h">
<polygon style="fill:white;stroke:black;" points="900,-56 900,-76 1010,-76 1010,-56 900,-56"/>
<text text-anchor="middle" x="955" y="-63" style="font-family:Arial;font-size:10.00;">ltr/measures/pfound.h</text>
</a>
</g>
<!-- Node1&#45;&gt;Node10 -->
<g id="edge18" class="edge"><title>Node1&#45;&gt;Node10</title>
<path style="fill:none;stroke:midnightblue;" d="M534,-113C625,-105 761,-93 890,-76"/>
<polygon style="fill:midnightblue;stroke:midnightblue;" points="890.398,-79.4778 900,-75 889.701,-72.5125 890.398,-79.4778"/>
</g>
<!-- Node16 -->
<g id="node31" class="node"><title>Node16</title>
<polygon style="fill:white;stroke:#bfbfbf;" points="1028,-56 1028,-76 1128,-76 1128,-56 1028,-56"/>
<text text-anchor="middle" x="1078" y="-63" style="font-family:Arial;font-size:10.00;">ltr/measures/gmrr.h</text>
</g>
<!-- Node1&#45;&gt;Node16 -->
<g id="edge30" class="edge"><title>Node1&#45;&gt;Node16</title>
<path style="fill:none;stroke:midnightblue;" d="M534,-117C649,-110 842,-97 1018,-76"/>
<polygon style="fill:midnightblue;stroke:midnightblue;" points="1018.4,-79.4778 1028,-75 1017.7,-72.5125 1018.4,-79.4778"/>
</g>
<!-- Node11 -->
<g id="node21" class="node"><title>Node11</title>
<polygon style="fill:white;stroke:#bfbfbf;" points="785,-0 785,-20 844,-20 844,-0 785,-0"/>
<text text-anchor="middle" x="814" y="-7" style="font-family:Arial;font-size:10.00;">stdexcept</text>
</g>
<!-- Node10&#45;&gt;Node11 -->
<g id="edge20" class="edge"><title>Node10&#45;&gt;Node11</title>
<path style="fill:none;stroke:midnightblue;" d="M930,-56C907,-47 874,-34 849,-24"/>
<polygon style="fill:midnightblue;stroke:midnightblue;" points="849.585,-20.4643 839,-20 846.985,-26.9636 849.585,-20.4643"/>
</g>
<!-- Node12 -->
<g id="node23" class="node"><title>Node12</title>
<polygon style="fill:white;stroke:#bfbfbf;" points="861,-0 861,-20 918,-20 918,-0 861,-0"/>
<text text-anchor="middle" x="889" y="-7" style="font-family:Arial;font-size:10.00;">functional</text>
</g>
<!-- Node10&#45;&gt;Node12 -->
<g id="edge22" class="edge"><title>Node10&#45;&gt;Node12</title>
<path style="fill:none;stroke:midnightblue;" d="M943,-56C933,-48 920,-37 909,-27"/>
<polygon style="fill:midnightblue;stroke:midnightblue;" points="910.831,-23.9511 901,-20 906.221,-29.2191 910.831,-23.9511"/>
</g>
<!-- Node13 -->
<g id="node25" class="node"><title>Node13</title>
<polygon style="fill:white;stroke:#bfbfbf;" points="935,-0 935,-20 975,-20 975,-0 935,-0"/>
<text text-anchor="middle" x="955" y="-7" style="font-family:Arial;font-size:10.00;">string</text>
</g>
<!-- Node10&#45;&gt;Node13 -->
<g id="edge24" class="edge"><title>Node10&#45;&gt;Node13</title>
<path style="fill:none;stroke:midnightblue;" d="M955,-56C955,-49 955,-39 955,-30"/>
<polygon style="fill:midnightblue;stroke:midnightblue;" points="958.5,-30 955,-20 951.5,-30 958.5,-30"/>
</g>
<!-- Node14 -->
<g id="node27" class="node"><title>Node14</title>
<polygon style="fill:white;stroke:#bfbfbf;" points="993,-0 993,-20 1112,-20 1112,-0 993,-0"/>
<text text-anchor="middle" x="1052" y="-7" style="font-family:Arial;font-size:10.00;">ltr/measures/measure.h</text>
</g>
<!-- Node10&#45;&gt;Node14 -->
<g id="edge26" class="edge"><title>Node10&#45;&gt;Node14</title>
<path style="fill:none;stroke:midnightblue;" d="M972,-56C987,-48 1009,-35 1025,-25"/>
<polygon style="fill:midnightblue;stroke:midnightblue;" points="1026.96,-27.916 1034,-20 1023.56,-21.7969 1026.96,-27.916"/>
</g>
<!-- Node15 -->
<g id="node29" class="node"><title>Node15</title>
<polygon style="fill:white;stroke:#bfbfbf;" points="1129,-0 1129,-20 1231,-20 1231,-0 1129,-0"/>
<text text-anchor="middle" x="1180" y="-7" style="font-family:Arial;font-size:10.00;">ltr/data/object_list.h</text>
</g>
<!-- Node10&#45;&gt;Node15 -->
<g id="edge28" class="edge"><title>Node10&#45;&gt;Node15</title>
<path style="fill:none;stroke:midnightblue;" d="M995,-56C1033,-47 1090,-32 1130,-22"/>
<polygon style="fill:midnightblue;stroke:midnightblue;" points="1130.88,-25.3933 1140,-20 1129.51,-18.5292 1130.88,-25.3933"/>
</g>
</g>
</svg>
