<?xml version="1.0" encoding="UTF-8" standalone="no"?>
<!DOCTYPE svg PUBLIC "-//W3C//DTD SVG 1.0//EN"
 "http://www.w3.org/TR/2001/REC-SVG-20010904/DTD/svg10.dtd" [
 <!ATTLIST svg xmlns:xlink CDATA #FIXED "http://www.w3.org/1999/xlink">
]>
<!-- Generated by Graphviz version 2.20.2 (Tue Mar &#160;2 19:03:41 UTC 2010)
     For user: (jenkins)  -->
<!-- Title: G Pages: 1 -->
<svg width="1357pt" height="364pt"
 viewBox="0.00 0.00 1357.00 364.00" xmlns="http://www.w3.org/2000/svg" xmlns:xlink="http://www.w3.org/1999/xlink">
<g id="graph0" class="graph" transform="scale(1 1) rotate(0) translate(4 360)">
<title>G</title>
<polygon style="fill:white;stroke:white;" points="-4,4 -4,-360 1353,-360 1353,4 -4,4"/>
<!-- Node1 -->
<g id="node1" class="node"><title>Node1</title>
<polygon style="fill:#bfbfbf;stroke:black;" points="114,-336 114,-356 282,-356 282,-336 114,-336"/>
<text text-anchor="middle" x="198" y="-343" style="font-family:Arial;font-size:10.00;">ltr/measures/utils/measure_utility.h</text>
</g>
<!-- Node2 -->
<g id="node3" class="node"><title>Node2</title>
<polygon style="fill:white;stroke:#bfbfbf;" points="96,-56 96,-76 138,-76 138,-56 96,-56"/>
<text text-anchor="middle" x="117" y="-63" style="font-family:Arial;font-size:10.00;">vector</text>
</g>
<!-- Node1&#45;&gt;Node2 -->
<g id="edge2" class="edge"><title>Node1&#45;&gt;Node2</title>
<path style="fill:none;stroke:midnightblue;" d="M140,-336C85,-323 12,-294 11,-234 11,-234 11,-234 11,-178 12,-134 56,-100 87,-81"/>
<polygon style="fill:midnightblue;stroke:midnightblue;" points="88.9582,-83.916 96,-76 85.5586,-77.7969 88.9582,-83.916"/>
</g>
<!-- Node3 -->
<g id="node5" class="node"><title>Node3</title>
<polygon style="fill:white;stroke:#bfbfbf;" points="360,-280 360,-300 399,-300 399,-280 360,-280"/>
<text text-anchor="middle" x="379" y="-287" style="font-family:Arial;font-size:10.00;">utility</text>
</g>
<!-- Node1&#45;&gt;Node3 -->
<g id="edge4" class="edge"><title>Node1&#45;&gt;Node3</title>
<path style="fill:none;stroke:midnightblue;" d="M233,-336C262,-328 304,-315 350,-300"/>
<polygon style="fill:midnightblue;stroke:midnightblue;" points="351.427,-303.226 360,-297 349.416,-296.521 351.427,-303.226"/>
</g>
<!-- Node4 -->
<g id="node7" class="node"><title>Node4</title>
<a xlink:href="object__list_8h.html" target="_top" xlink:title="ltr/data/object_list.h">
<polygon style="fill:white;stroke:black;" points="77,-168 77,-188 179,-188 179,-168 77,-168"/>
<text text-anchor="middle" x="128" y="-175" style="font-family:Arial;font-size:10.00;">ltr/data/object_list.h</text>
</a>
</g>
<!-- Node1&#45;&gt;Node4 -->
<g id="edge6" class="edge"><title>Node1&#45;&gt;Node4</title>
<path style="fill:none;stroke:midnightblue;" d="M190,-336C177,-318 151,-280 139,-244 134,-229 131,-212 129,-198"/>
<polygon style="fill:midnightblue;stroke:midnightblue;" points="132.478,-197.602 128,-188 125.512,-198.299 132.478,-197.602"/>
</g>
<!-- Node15 -->
<g id="node37" class="node"><title>Node15</title>
<a xlink:href="data__set_8h.html" target="_top" xlink:title="ltr/data/data_set.h">
<polygon style="fill:white;stroke:black;" points="248,-280 248,-300 343,-300 343,-280 248,-280"/>
<text text-anchor="middle" x="295" y="-287" style="font-family:Arial;font-size:10.00;">ltr/data/data_set.h</text>
</a>
</g>
<!-- Node1&#45;&gt;Node15 -->
<g id="edge44" class="edge"><title>Node1&#45;&gt;Node15</title>
<path style="fill:none;stroke:midnightblue;" d="M215,-336C230,-328 252,-315 268,-305"/>
<polygon style="fill:midnightblue;stroke:midnightblue;" points="269.958,-307.916 277,-300 266.559,-301.797 269.958,-307.916"/>
</g>
<!-- Node4&#45;&gt;Node2 -->
<g id="edge12" class="edge"><title>Node4&#45;&gt;Node2</title>
<path style="fill:none;stroke:midnightblue;" d="M123,-168C119,-159 113,-145 111,-132 108,-117 110,-99 112,-86"/>
<polygon style="fill:midnightblue;stroke:midnightblue;" points="115.471,-86.4922 114,-76 108.607,-85.1194 115.471,-86.4922"/>
</g>
<!-- Node5 -->
<g id="node9" class="node"><title>Node5</title>
<polygon style="fill:white;stroke:#bfbfbf;" points="635,-56 635,-76 694,-76 694,-56 635,-56"/>
<text text-anchor="middle" x="664" y="-63" style="font-family:Arial;font-size:10.00;">stdexcept</text>
</g>
<!-- Node4&#45;&gt;Node5 -->
<g id="edge8" class="edge"><title>Node4&#45;&gt;Node5</title>
<path style="fill:none;stroke:midnightblue;" d="M179,-172C240,-165 346,-151 436,-132 503,-117 580,-94 625,-79"/>
<polygon style="fill:midnightblue;stroke:midnightblue;" points="626.427,-82.2259 635,-76 624.416,-75.5212 626.427,-82.2259"/>
</g>
<!-- Node6 -->
<g id="node11" class="node"><title>Node6</title>
<polygon style="fill:white;stroke:#bfbfbf;" points="701,-0 701,-20 741,-20 741,-0 701,-0"/>
<text text-anchor="middle" x="721" y="-7" style="font-family:Arial;font-size:10.00;">string</text>
</g>
<!-- Node4&#45;&gt;Node6 -->
<g id="edge10" class="edge"><title>Node4&#45;&gt;Node6</title>
<path style="fill:none;stroke:midnightblue;" d="M119,-168C99,-145 57,-88 87,-56 107,-34 567,-15 691,-11"/>
<polygon style="fill:midnightblue;stroke:midnightblue;" points="691,-14.5001 701,-11 691,-7.5001 691,-14.5001"/>
</g>
<!-- Node7 -->
<g id="node14" class="node"><title>Node7</title>
<a xlink:href="object_8h.html" target="_top" xlink:title="ltr/data/object.h">
<polygon style="fill:white;stroke:black;" points="343,-112 343,-132 427,-132 427,-112 343,-112"/>
<text text-anchor="middle" x="385" y="-119" style="font-family:Arial;font-size:10.00;">ltr/data/object.h</text>
</a>
</g>
<!-- Node4&#45;&gt;Node7 -->
<g id="edge14" class="edge"><title>Node4&#45;&gt;Node7</title>
<path style="fill:none;stroke:midnightblue;" d="M174,-168C219,-159 286,-143 333,-133"/>
<polygon style="fill:midnightblue;stroke:midnightblue;" points="333.881,-136.393 343,-131 332.508,-129.529 333.881,-136.393"/>
</g>
<!-- Node10 -->
<g id="node23" class="node"><title>Node10</title>
<a xlink:href="printable_8h.html" target="_top" xlink:title="ltr/interfaces/printable.h">
<polygon style="fill:white;stroke:black;" points="373,-56 373,-76 490,-76 490,-56 373,-56"/>
<text text-anchor="middle" x="431" y="-63" style="font-family:Arial;font-size:10.00;">ltr/interfaces/printable.h</text>
</a>
</g>
<!-- Node4&#45;&gt;Node10 -->
<g id="edge40" class="edge"><title>Node4&#45;&gt;Node10</title>
<path style="fill:none;stroke:midnightblue;" d="M155,-168C210,-147 332,-102 393,-80"/>
<polygon style="fill:midnightblue;stroke:midnightblue;" points="395.015,-82.9636 403,-76 392.415,-76.4643 395.015,-82.9636"/>
</g>
<!-- Node11 -->
<g id="node27" class="node"><title>Node11</title>
<a xlink:href="shared__ptr_8h.html" target="_top" xlink:title="ltr/utility/shared_ptr.h">
<polygon style="fill:white;stroke:black;" points="186,-56 186,-76 293,-76 293,-56 186,-56"/>
<text text-anchor="middle" x="239" y="-63" style="font-family:Arial;font-size:10.00;">ltr/utility/shared_ptr.h</text>
</a>
</g>
<!-- Node4&#45;&gt;Node11 -->
<g id="edge42" class="edge"><title>Node4&#45;&gt;Node11</title>
<path style="fill:none;stroke:midnightblue;" d="M129,-168C130,-154 135,-128 149,-112 161,-98 178,-87 194,-80"/>
<polygon style="fill:midnightblue;stroke:midnightblue;" points="196.015,-82.9636 204,-76 193.415,-76.4643 196.015,-82.9636"/>
</g>
<!-- Node7&#45;&gt;Node2 -->
<g id="edge24" class="edge"><title>Node7&#45;&gt;Node2</title>
<path style="fill:none;stroke:midnightblue;" d="M343,-113C289,-102 196,-82 148,-72"/>
<polygon style="fill:midnightblue;stroke:midnightblue;" points="148.492,-68.5292 138,-70 147.119,-75.3933 148.492,-68.5292"/>
</g>
<!-- Node7&#45;&gt;Node5 -->
<g id="edge20" class="edge"><title>Node7&#45;&gt;Node5</title>
<path style="fill:none;stroke:midnightblue;" d="M427,-115C473,-106 549,-93 625,-76"/>
<polygon style="fill:midnightblue;stroke:midnightblue;" points="625.881,-79.3933 635,-74 624.508,-72.5292 625.881,-79.3933"/>
</g>
<!-- Node7&#45;&gt;Node6 -->
<g id="edge22" class="edge"><title>Node7&#45;&gt;Node6</title>
<path style="fill:none;stroke:midnightblue;" d="M410,-112C433,-103 468,-89 498,-76 517,-67 521,-63 541,-56 592,-38 655,-24 691,-16"/>
<polygon style="fill:midnightblue;stroke:midnightblue;" points="691.881,-19.3933 701,-14 690.508,-12.5292 691.881,-19.3933"/>
</g>
<!-- Node8 -->
<g id="node16" class="node"><title>Node8</title>
<polygon style="fill:white;stroke:#bfbfbf;" points="583,-56 583,-76 618,-76 618,-56 583,-56"/>
<text text-anchor="middle" x="600" y="-63" style="font-family:Arial;font-size:10.00;">map</text>
</g>
<!-- Node7&#45;&gt;Node8 -->
<g id="edge16" class="edge"><title>Node7&#45;&gt;Node8</title>
<path style="fill:none;stroke:midnightblue;" d="M423,-112C466,-101 536,-83 573,-73"/>
<polygon style="fill:midnightblue;stroke:midnightblue;" points="574.427,-76.2259 583,-70 572.416,-69.5212 574.427,-76.2259"/>
</g>
<!-- Node9 -->
<g id="node18" class="node"><title>Node9</title>
<polygon style="fill:white;stroke:#bfbfbf;" points="406,-0 406,-20 457,-20 457,-0 406,-0"/>
<text text-anchor="middle" x="431" y="-7" style="font-family:Arial;font-size:10.00;">ostream</text>
</g>
<!-- Node7&#45;&gt;Node9 -->
<g id="edge18" class="edge"><title>Node7&#45;&gt;Node9</title>
<path style="fill:none;stroke:midnightblue;" d="M377,-112C367,-98 354,-74 364,-56 370,-42 384,-32 397,-25"/>
<polygon style="fill:midnightblue;stroke:midnightblue;" points="398.958,-27.916 406,-20 395.559,-21.7969 398.958,-27.916"/>
</g>
<!-- Node7&#45;&gt;Node10 -->
<g id="edge26" class="edge"><title>Node7&#45;&gt;Node10</title>
<path style="fill:none;stroke:midnightblue;" d="M393,-112C399,-104 408,-94 416,-84"/>
<polygon style="fill:midnightblue;stroke:midnightblue;" points="418.8,-86.1 422,-76 413.2,-81.9 418.8,-86.1"/>
</g>
<!-- Node7&#45;&gt;Node11 -->
<g id="edge32" class="edge"><title>Node7&#45;&gt;Node11</title>
<path style="fill:none;stroke:midnightblue;" d="M359,-112C336,-103 301,-90 275,-80"/>
<polygon style="fill:midnightblue;stroke:midnightblue;" points="275.585,-76.4643 265,-76 272.985,-82.9636 275.585,-76.4643"/>
</g>
<!-- Node10&#45;&gt;Node6 -->
<g id="edge30" class="edge"><title>Node10&#45;&gt;Node6</title>
<path style="fill:none;stroke:midnightblue;" d="M483,-56C544,-45 641,-26 691,-16"/>
<polygon style="fill:midnightblue;stroke:midnightblue;" points="691.881,-19.3933 701,-14 690.508,-12.5292 691.881,-19.3933"/>
</g>
<!-- Node10&#45;&gt;Node9 -->
<g id="edge28" class="edge"><title>Node10&#45;&gt;Node9</title>
<path style="fill:none;stroke:midnightblue;" d="M431,-56C431,-49 431,-39 431,-30"/>
<polygon style="fill:midnightblue;stroke:midnightblue;" points="434.5,-30 431,-20 427.5,-30 434.5,-30"/>
</g>
<!-- Node12 -->
<g id="node29" class="node"><title>Node12</title>
<polygon style="fill:white;stroke:#bfbfbf;" points="208,-0 208,-20 264,-20 264,-0 208,-0"/>
<text text-anchor="middle" x="236" y="-7" style="font-family:Arial;font-size:10.00;">algorithm</text>
</g>
<!-- Node11&#45;&gt;Node12 -->
<g id="edge34" class="edge"><title>Node11&#45;&gt;Node12</title>
<path style="fill:none;stroke:midnightblue;" d="M238,-56C238,-49 237,-39 237,-30"/>
<polygon style="fill:midnightblue;stroke:midnightblue;" points="240.5,-30 237,-20 233.5,-30 240.5,-30"/>
</g>
<!-- Node13 -->
<g id="node31" class="node"><title>Node13</title>
<polygon style="fill:white;stroke:#bfbfbf;" points="282,-0 282,-20 389,-20 389,-0 282,-0"/>
<text text-anchor="middle" x="335" y="-7" style="font-family:Arial;font-size:10.00;">boost/shared_ptr.hpp</text>
</g>
<!-- Node11&#45;&gt;Node13 -->
<g id="edge36" class="edge"><title>Node11&#45;&gt;Node13</title>
<path style="fill:none;stroke:midnightblue;" d="M256,-56C271,-48 292,-35 309,-25"/>
<polygon style="fill:midnightblue;stroke:midnightblue;" points="310.958,-27.916 318,-20 307.559,-21.7969 310.958,-27.916"/>
</g>
<!-- Node14 -->
<g id="node33" class="node"><title>Node14</title>
<polygon style="fill:white;stroke:#bfbfbf;" points="0,-0 0,-20 191,-20 191,-0 0,-0"/>
<text text-anchor="middle" x="95" y="-7" style="font-family:Arial;font-size:10.00;">boost/smart_ptr/detail/operator_bool.hpp</text>
</g>
<!-- Node11&#45;&gt;Node14 -->
<g id="edge38" class="edge"><title>Node11&#45;&gt;Node14</title>
<path style="fill:none;stroke:midnightblue;" d="M213,-56C190,-47 156,-34 130,-24"/>
<polygon style="fill:midnightblue;stroke:midnightblue;" points="131.56,-20.8631 121,-20 128.717,-27.2598 131.56,-20.8631"/>
</g>
<!-- Node15&#45;&gt;Node2 -->
<g id="edge52" class="edge"><title>Node15&#45;&gt;Node2</title>
<path style="fill:none;stroke:midnightblue;" d="M248,-286C191,-278 100,-254 68,-188 51,-151 80,-107 100,-84"/>
<polygon style="fill:midnightblue;stroke:midnightblue;" points="103.049,-85.8306 107,-76 97.7809,-81.221 103.049,-85.8306"/>
</g>
<!-- Node15&#45;&gt;Node4 -->
<g id="edge56" class="edge"><title>Node15&#45;&gt;Node4</title>
<path style="fill:none;stroke:midnightblue;" d="M248,-284C219,-278 183,-266 158,-244 144,-232 136,-213 132,-198"/>
<polygon style="fill:midnightblue;stroke:midnightblue;" points="135.393,-197.119 130,-188 128.529,-198.492 135.393,-197.119"/>
</g>
<!-- Node15&#45;&gt;Node5 -->
<g id="edge48" class="edge"><title>Node15&#45;&gt;Node5</title>
<path style="fill:none;stroke:midnightblue;" d="M343,-281C346,-281 348,-280 351,-280 445,-265 716,-266 771,-188 800,-146 735,-103 694,-81"/>
<polygon style="fill:midnightblue;stroke:midnightblue;" points="695.441,-77.7969 685,-76 692.042,-83.916 695.441,-77.7969"/>
</g>
<!-- Node15&#45;&gt;Node6 -->
<g id="edge50" class="edge"><title>Node15&#45;&gt;Node6</title>
<path style="fill:none;stroke:midnightblue;" d="M343,-281C346,-281 348,-280 351,-280 446,-266 1213,-274 1213,-178 1213,-178 1213,-178 1213,-122 1213,-87 1200,-74 1171,-56 1135,-34 846,-16 751,-12"/>
<polygon style="fill:midnightblue;stroke:midnightblue;" points="751.299,-8.5125 741,-11 750.602,-15.4778 751.299,-8.5125"/>
</g>
<!-- Node15&#45;&gt;Node7 -->
<g id="edge54" class="edge"><title>Node15&#45;&gt;Node7</title>
<path style="fill:none;stroke:midnightblue;" d="M286,-280C278,-271 268,-257 264,-244 253,-209 267,-193 293,-168 306,-154 325,-143 342,-136"/>
<polygon style="fill:midnightblue;stroke:midnightblue;" points="344.015,-138.964 352,-132 341.415,-132.464 344.015,-138.964"/>
</g>
<!-- Node16 -->
<g id="node39" class="node"><title>Node16</title>
<polygon style="fill:white;stroke:#bfbfbf;" points="167,-224 167,-244 218,-244 218,-224 167,-224"/>
<text text-anchor="middle" x="192" y="-231" style="font-family:Arial;font-size:10.00;">sstream</text>
</g>
<!-- Node15&#45;&gt;Node16 -->
<g id="edge46" class="edge"><title>Node15&#45;&gt;Node16</title>
<path style="fill:none;stroke:midnightblue;" d="M277,-280C261,-272 238,-259 220,-249"/>
<polygon style="fill:midnightblue;stroke:midnightblue;" points="221.441,-245.797 211,-244 218.042,-251.916 221.441,-245.797"/>
</g>
<!-- Node17 -->
<g id="node46" class="node"><title>Node17</title>
<a xlink:href="object__pair_8h.html" target="_top" xlink:title="ltr/data/object_pair.h">
<polygon style="fill:white;stroke:black;" points="311,-168 311,-188 415,-188 415,-168 311,-168"/>
<text text-anchor="middle" x="363" y="-175" style="font-family:Arial;font-size:10.00;">ltr/data/object_pair.h</text>
</a>
</g>
<!-- Node15&#45;&gt;Node17 -->
<g id="edge58" class="edge"><title>Node15&#45;&gt;Node17</title>
<path style="fill:none;stroke:midnightblue;" d="M341,-280C375,-271 417,-258 428,-244 441,-225 417,-205 395,-193"/>
<polygon style="fill:midnightblue;stroke:midnightblue;" points="396.441,-189.797 386,-188 393.042,-195.916 396.441,-189.797"/>
</g>
<!-- Node18 -->
<g id="node54" class="node"><title>Node18</title>
<a xlink:href="feature__info_8h.html" target="_top" xlink:title="ltr/data/feature_info.h">
<polygon style="fill:white;stroke:black;" points="506,-224 506,-244 613,-244 613,-224 506,-224"/>
<text text-anchor="middle" x="559" y="-231" style="font-family:Arial;font-size:10.00;">ltr/data/feature_info.h</text>
</a>
</g>
<!-- Node15&#45;&gt;Node18 -->
<g id="edge72" class="edge"><title>Node15&#45;&gt;Node18</title>
<path style="fill:none;stroke:midnightblue;" d="M342,-280C387,-271 454,-256 502,-246"/>
<polygon style="fill:midnightblue;stroke:midnightblue;" points="502.881,-249.393 512,-244 501.508,-242.529 502.881,-249.393"/>
</g>
<!-- Node25 -->
<g id="node78" class="node"><title>Node25</title>
<a xlink:href="per__object__accessor_8h.html" target="_top" xlink:title="ltr/data/per_object_accessor.h">
<polygon style="fill:white;stroke:black;" points="273,-224 273,-244 420,-244 420,-224 273,-224"/>
<text text-anchor="middle" x="346" y="-231" style="font-family:Arial;font-size:10.00;">ltr/data/per_object_accessor.h</text>
</a>
</g>
<!-- Node15&#45;&gt;Node25 -->
<g id="edge106" class="edge"><title>Node15&#45;&gt;Node25</title>
<path style="fill:none;stroke:midnightblue;" d="M304,-280C311,-272 321,-261 330,-251"/>
<polygon style="fill:midnightblue;stroke:midnightblue;" points="332.404,-253.546 337,-244 327.454,-248.596 332.404,-253.546"/>
</g>
<!-- Node26 -->
<g id="node85" class="node"><title>Node26</title>
<a xlink:href="aliaser_8h.html" target="_top" xlink:title="ltr/interfaces/aliaser.h">
<polygon style="fill:white;stroke:black;" points="1241,-112 1241,-132 1349,-132 1349,-112 1241,-112"/>
<text text-anchor="middle" x="1295" y="-119" style="font-family:Arial;font-size:10.00;">ltr/interfaces/aliaser.h</text>
</a>
</g>
<!-- Node15&#45;&gt;Node26 -->
<g id="edge118" class="edge"><title>Node15&#45;&gt;Node26</title>
<path style="fill:none;stroke:midnightblue;" d="M343,-281C346,-280 348,-280 351,-280 447,-269 1144,-295 1227,-244 1263,-221 1282,-170 1290,-142"/>
<polygon style="fill:midnightblue;stroke:midnightblue;" points="1293.48,-142.584 1293,-132 1286.77,-140.573 1293.48,-142.584"/>
</g>
<!-- Node17&#45;&gt;Node2 -->
<g id="edge64" class="edge"><title>Node17&#45;&gt;Node2</title>
<path style="fill:none;stroke:midnightblue;" d="M341,-168C297,-147 198,-103 147,-80"/>
<polygon style="fill:midnightblue;stroke:midnightblue;" points="148.56,-76.8631 138,-76 145.717,-83.2598 148.56,-76.8631"/>
</g>
<!-- Node17&#45;&gt;Node5 -->
<g id="edge60" class="edge"><title>Node17&#45;&gt;Node5</title>
<path style="fill:none;stroke:midnightblue;" d="M415,-174C461,-169 529,-157 583,-132 608,-120 632,-99 647,-83"/>
<polygon style="fill:midnightblue;stroke:midnightblue;" points="649.404,-85.546 654,-76 644.454,-80.5962 649.404,-85.546"/>
</g>
<!-- Node17&#45;&gt;Node6 -->
<g id="edge62" class="edge"><title>Node17&#45;&gt;Node6</title>
<path style="fill:none;stroke:midnightblue;" d="M383,-168C400,-159 427,-145 450,-132 506,-99 515,-82 574,-56 612,-38 661,-24 691,-16"/>
<polygon style="fill:midnightblue;stroke:midnightblue;" points="691.881,-19.3933 701,-14 690.508,-12.5292 691.881,-19.3933"/>
</g>
<!-- Node17&#45;&gt;Node7 -->
<g id="edge66" class="edge"><title>Node17&#45;&gt;Node7</title>
<path style="fill:none;stroke:midnightblue;" d="M367,-168C370,-161 374,-151 377,-141"/>
<polygon style="fill:midnightblue;stroke:midnightblue;" points="380.137,-142.56 381,-132 373.74,-139.717 380.137,-142.56"/>
</g>
<!-- Node17&#45;&gt;Node10 -->
<g id="edge68" class="edge"><title>Node17&#45;&gt;Node10</title>
<path style="fill:none;stroke:midnightblue;" d="M391,-168C407,-161 426,-149 436,-132 444,-118 442,-100 438,-86"/>
<polygon style="fill:midnightblue;stroke:midnightblue;" points="441.226,-84.5725 435,-76 434.521,-86.584 441.226,-84.5725"/>
</g>
<!-- Node17&#45;&gt;Node11 -->
<g id="edge70" class="edge"><title>Node17&#45;&gt;Node11</title>
<path style="fill:none;stroke:midnightblue;" d="M352,-168C330,-148 284,-107 257,-83"/>
<polygon style="fill:midnightblue;stroke:midnightblue;" points="259.546,-80.5962 250,-76 254.596,-85.546 259.546,-80.5962"/>
</g>
<!-- Node18&#45;&gt;Node2 -->
<g id="edge78" class="edge"><title>Node18&#45;&gt;Node2</title>
<path style="fill:none;stroke:midnightblue;" d="M540,-224C515,-210 466,-185 424,-168 324,-128 204,-91 148,-75"/>
<polygon style="fill:midnightblue;stroke:midnightblue;" points="148.584,-71.5212 138,-72 146.573,-78.2259 148.584,-71.5212"/>
</g>
<!-- Node18&#45;&gt;Node6 -->
<g id="edge76" class="edge"><title>Node18&#45;&gt;Node6</title>
<path style="fill:none;stroke:midnightblue;" d="M613,-230C751,-217 1107,-175 1156,-76 1159,-68 1161,-62 1156,-56 1128,-25 845,-14 751,-11"/>
<polygon style="fill:midnightblue;stroke:midnightblue;" points="751,-7.5001 741,-11 751,-14.5001 751,-7.5001"/>
</g>
<!-- Node18&#45;&gt;Node8 -->
<g id="edge74" class="edge"><title>Node18&#45;&gt;Node8</title>
<path style="fill:none;stroke:midnightblue;" d="M561,-224C567,-197 586,-122 595,-86"/>
<polygon style="fill:midnightblue;stroke:midnightblue;" points="598.471,-86.4922 597,-76 591.607,-85.1194 598.471,-86.4922"/>
</g>
<!-- Node18&#45;&gt;Node11 -->
<g id="edge104" class="edge"><title>Node18&#45;&gt;Node11</title>
<path style="fill:none;stroke:midnightblue;" d="M552,-224C535,-200 489,-141 436,-112 395,-89 343,-78 303,-72"/>
<polygon style="fill:midnightblue;stroke:midnightblue;" points="303.492,-68.5292 293,-70 302.119,-75.3933 303.492,-68.5292"/>
</g>
<!-- Node19 -->
<g id="node59" class="node"><title>Node19</title>
<a xlink:href="parameterized_8h.html" target="_top" xlink:title="ltr/interfaces/parameterized.h">
<polygon style="fill:white;stroke:black;" points="620,-168 620,-188 762,-188 762,-168 620,-168"/>
<text text-anchor="middle" x="691" y="-175" style="font-family:Arial;font-size:10.00;">ltr/interfaces/parameterized.h</text>
</a>
</g>
<!-- Node18&#45;&gt;Node19 -->
<g id="edge80" class="edge"><title>Node18&#45;&gt;Node19</title>
<path style="fill:none;stroke:midnightblue;" d="M583,-224C604,-215 634,-202 657,-192"/>
<polygon style="fill:midnightblue;stroke:midnightblue;" points="659.015,-194.964 667,-188 656.415,-188.464 659.015,-194.964"/>
</g>
<!-- Node19&#45;&gt;Node5 -->
<g id="edge82" class="edge"><title>Node19&#45;&gt;Node5</title>
<path style="fill:none;stroke:midnightblue;" d="M689,-168C685,-149 675,-110 669,-86"/>
<polygon style="fill:midnightblue;stroke:midnightblue;" points="672.393,-85.1194 667,-76 665.529,-86.4922 672.393,-85.1194"/>
</g>
<!-- Node19&#45;&gt;Node6 -->
<g id="edge84" class="edge"><title>Node19&#45;&gt;Node6</title>
<path style="fill:none;stroke:midnightblue;" d="M693,-168C698,-141 711,-66 717,-30"/>
<polygon style="fill:midnightblue;stroke:midnightblue;" points="720.471,-30.4922 719,-20 713.607,-29.1194 720.471,-30.4922"/>
</g>
<!-- Node20 -->
<g id="node63" class="node"><title>Node20</title>
<a xlink:href="parameters__container_8h.html" target="_top" xlink:title="ltr/parameters_container/parameters_container.h">
<polygon style="fill:white;stroke:black;" points="850,-112 850,-132 1075,-132 1075,-112 850,-112"/>
<text text-anchor="middle" x="962" y="-119" style="font-family:Arial;font-size:10.00;">ltr/parameters_container/parameters_container.h</text>
</a>
</g>
<!-- Node19&#45;&gt;Node20 -->
<g id="edge86" class="edge"><title>Node19&#45;&gt;Node20</title>
<path style="fill:none;stroke:midnightblue;" d="M739,-168C785,-159 854,-144 903,-134"/>
<polygon style="fill:midnightblue;stroke:midnightblue;" points="903.881,-137.393 913,-132 902.508,-130.529 903.881,-137.393"/>
</g>
<!-- Node20&#45;&gt;Node5 -->
<g id="edge92" class="edge"><title>Node20&#45;&gt;Node5</title>
<path style="fill:none;stroke:midnightblue;" d="M909,-112C850,-101 757,-83 704,-74"/>
<polygon style="fill:midnightblue;stroke:midnightblue;" points="704.492,-70.5292 694,-72 703.119,-77.3933 704.492,-70.5292"/>
</g>
<!-- Node20&#45;&gt;Node6 -->
<g id="edge94" class="edge"><title>Node20&#45;&gt;Node6</title>
<path style="fill:none;stroke:midnightblue;" d="M877,-112C844,-105 808,-94 778,-76 758,-64 742,-44 732,-29"/>
<polygon style="fill:midnightblue;stroke:midnightblue;" points="734.916,-27.0418 727,-20 728.797,-30.4414 734.916,-27.0418"/>
</g>
<!-- Node20&#45;&gt;Node10 -->
<g id="edge102" class="edge"><title>Node20&#45;&gt;Node10</title>
<path style="fill:none;stroke:midnightblue;" d="M867,-112C761,-101 594,-83 500,-73"/>
<polygon style="fill:midnightblue;stroke:midnightblue;" points="500.299,-69.5125 490,-72 499.602,-76.4778 500.299,-69.5125"/>
</g>
<!-- Node20&#45;&gt;Node11 -->
<g id="edge100" class="edge"><title>Node20&#45;&gt;Node11</title>
<path style="fill:none;stroke:midnightblue;" d="M850,-113C730,-104 533,-89 364,-76 344,-74 323,-73 303,-71"/>
<polygon style="fill:midnightblue;stroke:midnightblue;" points="303.299,-67.5125 293,-70 302.602,-74.4778 303.299,-67.5125"/>
</g>
<!-- Node21 -->
<g id="node65" class="node"><title>Node21</title>
<polygon style="fill:white;stroke:#bfbfbf;" points="933,-56 933,-76 1007,-76 1007,-56 933,-56"/>
<text text-anchor="middle" x="970" y="-63" style="font-family:Arial;font-size:10.00;">logog/logog.h</text>
</g>
<!-- Node20&#45;&gt;Node21 -->
<g id="edge88" class="edge"><title>Node20&#45;&gt;Node21</title>
<path style="fill:none;stroke:midnightblue;" d="M963,-112C964,-105 966,-95 967,-86"/>
<polygon style="fill:midnightblue;stroke:midnightblue;" points="970.471,-86.4922 969,-76 963.607,-85.1194 970.471,-86.4922"/>
</g>
<!-- Node22 -->
<g id="node67" class="node"><title>Node22</title>
<polygon style="fill:white;stroke:#bfbfbf;" points="1025,-56 1025,-76 1054,-76 1054,-56 1025,-56"/>
<text text-anchor="middle" x="1039" y="-63" style="font-family:Arial;font-size:10.00;">list</text>
</g>
<!-- Node20&#45;&gt;Node22 -->
<g id="edge90" class="edge"><title>Node20&#45;&gt;Node22</title>
<path style="fill:none;stroke:midnightblue;" d="M976,-112C987,-104 1004,-92 1017,-82"/>
<polygon style="fill:midnightblue;stroke:midnightblue;" points="1019.1,-84.8 1025,-76 1014.9,-79.2 1019.1,-84.8"/>
</g>
<!-- Node23 -->
<g id="node71" class="node"><title>Node23</title>
<polygon style="fill:white;stroke:#bfbfbf;" points="1071,-56 1071,-76 1148,-76 1148,-56 1071,-56"/>
<text text-anchor="middle" x="1109" y="-63" style="font-family:Arial;font-size:10.00;">boost/any.hpp</text>
</g>
<!-- Node20&#45;&gt;Node23 -->
<g id="edge96" class="edge"><title>Node20&#45;&gt;Node23</title>
<path style="fill:none;stroke:midnightblue;" d="M988,-112C1012,-103 1047,-90 1073,-80"/>
<polygon style="fill:midnightblue;stroke:midnightblue;" points="1075.02,-82.9636 1083,-76 1072.42,-76.4643 1075.02,-82.9636"/>
</g>
<!-- Node24 -->
<g id="node73" class="node"><title>Node24</title>
<polygon style="fill:white;stroke:#bfbfbf;" points="787,-56 787,-76 916,-76 916,-56 787,-56"/>
<text text-anchor="middle" x="851" y="-63" style="font-family:Arial;font-size:10.00;">boost/unordered_map.hpp</text>
</g>
<!-- Node20&#45;&gt;Node24 -->
<g id="edge98" class="edge"><title>Node20&#45;&gt;Node24</title>
<path style="fill:none;stroke:midnightblue;" d="M942,-112C925,-103 900,-90 880,-81"/>
<polygon style="fill:midnightblue;stroke:midnightblue;" points="881.441,-77.7969 871,-76 878.042,-83.916 881.441,-77.7969"/>
</g>
<!-- Node25&#45;&gt;Node4 -->
<g id="edge112" class="edge"><title>Node25&#45;&gt;Node4</title>
<path style="fill:none;stroke:midnightblue;" d="M307,-224C270,-215 216,-201 177,-191"/>
<polygon style="fill:midnightblue;stroke:midnightblue;" points="177.584,-187.521 167,-188 175.573,-194.226 177.584,-187.521"/>
</g>
<!-- Node25&#45;&gt;Node7 -->
<g id="edge108" class="edge"><title>Node25&#45;&gt;Node7</title>
<path style="fill:none;stroke:midnightblue;" d="M331,-224C314,-211 290,-188 302,-168 310,-153 325,-143 340,-136"/>
<polygon style="fill:midnightblue;stroke:midnightblue;" points="341.283,-139.26 349,-132 338.44,-132.863 341.283,-139.26"/>
</g>
<!-- Node25&#45;&gt;Node11 -->
<g id="edge116" class="edge"><title>Node25&#45;&gt;Node11</title>
<path style="fill:none;stroke:midnightblue;" d="M331,-224C319,-215 303,-202 293,-188 269,-156 252,-111 245,-86"/>
<polygon style="fill:midnightblue;stroke:midnightblue;" points="248.226,-84.5725 242,-76 241.521,-86.584 248.226,-84.5725"/>
</g>
<!-- Node25&#45;&gt;Node17 -->
<g id="edge110" class="edge"><title>Node25&#45;&gt;Node17</title>
<path style="fill:none;stroke:midnightblue;" d="M349,-224C351,-217 354,-207 357,-198"/>
<polygon style="fill:midnightblue;stroke:midnightblue;" points="360.479,-198.584 360,-188 353.774,-196.573 360.479,-198.584"/>
</g>
<!-- Node25&#45;&gt;Node19 -->
<g id="edge114" class="edge"><title>Node25&#45;&gt;Node19</title>
<path style="fill:none;stroke:midnightblue;" d="M408,-224C468,-215 557,-200 620,-190"/>
<polygon style="fill:midnightblue;stroke:midnightblue;" points="620.881,-193.393 630,-188 619.508,-186.529 620.881,-193.393"/>
</g>
<!-- Node26&#45;&gt;Node6 -->
<g id="edge120" class="edge"><title>Node26&#45;&gt;Node6</title>
<path style="fill:none;stroke:midnightblue;" d="M1288,-112C1277,-97 1254,-68 1227,-56 1184,-36 854,-17 751,-12"/>
<polygon style="fill:midnightblue;stroke:midnightblue;" points="751.299,-8.5125 741,-11 750.602,-15.4778 751.299,-8.5125"/>
</g>
</g>
</svg>
