<?xml version="1.0" encoding="UTF-8" standalone="no"?>
<!DOCTYPE svg PUBLIC "-//W3C//DTD SVG 1.0//EN"
 "http://www.w3.org/TR/2001/REC-SVG-20010904/DTD/svg10.dtd" [
 <!ATTLIST svg xmlns:xlink CDATA #FIXED "http://www.w3.org/1999/xlink">
]>
<!-- Generated by Graphviz version 2.20.2 (Tue Mar &#160;2 19:03:41 UTC 2010)
     For user: (jenkins)  -->
<!-- Title: G Pages: 1 -->
<svg width="1460pt" height="420pt"
 viewBox="0.00 0.00 1460.00 420.00" xmlns="http://www.w3.org/2000/svg" xmlns:xlink="http://www.w3.org/1999/xlink">
<g id="graph0" class="graph" transform="scale(1 1) rotate(0) translate(4 416)">
<title>G</title>
<polygon style="fill:white;stroke:white;" points="-4,4 -4,-416 1456,-416 1456,4 -4,4"/>
<!-- Node1 -->
<g id="node1" class="node"><title>Node1</title>
<polygon style="fill:#bfbfbf;stroke:black;" points="74,-392 74,-412 247,-412 247,-392 74,-392"/>
<text text-anchor="middle" x="160" y="-399" style="font-family:Arial;font-size:10.00;">ltr/measures/utils/measure_utility.cc</text>
</g>
<!-- Node2 -->
<g id="node3" class="node"><title>Node2</title>
<polygon style="fill:white;stroke:#bfbfbf;" points="131,-56 131,-76 173,-76 173,-56 131,-56"/>
<text text-anchor="middle" x="152" y="-63" style="font-family:Arial;font-size:10.00;">vector</text>
</g>
<!-- Node1&#45;&gt;Node2 -->
<g id="edge2" class="edge"><title>Node1&#45;&gt;Node2</title>
<path style="fill:none;stroke:midnightblue;" d="M118,-392C71,-378 0,-347 0,-290 0,-290 0,-290 0,-178 0,-119 77,-87 121,-74"/>
<polygon style="fill:midnightblue;stroke:midnightblue;" points="122.427,-77.2259 131,-71 120.416,-70.5212 122.427,-77.2259"/>
</g>
<!-- Node3 -->
<g id="node5" class="node"><title>Node3</title>
<a xlink:href="measure__utility_8h.html" target="_top" xlink:title="ltr/measures/utils/measure_utility.h">
<polygon style="fill:white;stroke:black;" points="76,-336 76,-356 244,-356 244,-336 76,-336"/>
<text text-anchor="middle" x="160" y="-343" style="font-family:Arial;font-size:10.00;">ltr/measures/utils/measure_utility.h</text>
</a>
</g>
<!-- Node1&#45;&gt;Node3 -->
<g id="edge4" class="edge"><title>Node1&#45;&gt;Node3</title>
<path style="fill:none;stroke:midnightblue;" d="M160,-392C160,-385 160,-375 160,-366"/>
<polygon style="fill:midnightblue;stroke:midnightblue;" points="163.5,-366 160,-356 156.5,-366 163.5,-366"/>
</g>
<!-- Node5 -->
<g id="node10" class="node"><title>Node5</title>
<a xlink:href="object__list_8h.html" target="_top" xlink:title="ltr/data/object_list.h">
<polygon style="fill:white;stroke:black;" points="180,-168 180,-188 282,-188 282,-168 180,-168"/>
<text text-anchor="middle" x="231" y="-175" style="font-family:Arial;font-size:10.00;">ltr/data/object_list.h</text>
</a>
</g>
<!-- Node1&#45;&gt;Node5 -->
<g id="edge126" class="edge"><title>Node1&#45;&gt;Node5</title>
<path style="fill:none;stroke:midnightblue;" d="M118,-392C99,-385 79,-374 67,-356 63,-348 65,-344 67,-336 84,-266 158,-216 201,-193"/>
<polygon style="fill:midnightblue;stroke:midnightblue;" points="202.958,-195.916 210,-188 199.559,-189.797 202.958,-195.916"/>
</g>
<!-- Node16 -->
<g id="node40" class="node"><title>Node16</title>
<a xlink:href="data__set_8h.html" target="_top" xlink:title="ltr/data/data_set.h">
<polygon style="fill:white;stroke:black;" points="402,-280 402,-300 497,-300 497,-280 402,-280"/>
<text text-anchor="middle" x="449" y="-287" style="font-family:Arial;font-size:10.00;">ltr/data/data_set.h</text>
</a>
</g>
<!-- Node1&#45;&gt;Node16 -->
<g id="edge134" class="edge"><title>Node1&#45;&gt;Node16</title>
<path style="fill:none;stroke:midnightblue;" d="M186,-392C238,-371 354,-326 413,-304"/>
<polygon style="fill:midnightblue;stroke:midnightblue;" points="415.015,-306.964 423,-300 412.415,-300.464 415.015,-306.964"/>
</g>
<!-- Node28 -->
<g id="node92" class="node"><title>Node28</title>
<a xlink:href="numerical_8h.html" target="_top" xlink:title="ltr/utility/numerical.h">
<polygon style="fill:white;stroke:black;" points="483,-336 483,-356 587,-356 587,-336 483,-336"/>
<text text-anchor="middle" x="535" y="-343" style="font-family:Arial;font-size:10.00;">ltr/utility/numerical.h</text>
</a>
</g>
<!-- Node1&#45;&gt;Node28 -->
<g id="edge128" class="edge"><title>Node1&#45;&gt;Node28</title>
<path style="fill:none;stroke:midnightblue;" d="M227,-392C296,-382 405,-366 473,-356"/>
<polygon style="fill:midnightblue;stroke:midnightblue;" points="473.881,-359.393 483,-354 472.508,-352.529 473.881,-359.393"/>
</g>
<!-- Node3&#45;&gt;Node2 -->
<g id="edge6" class="edge"><title>Node3&#45;&gt;Node2</title>
<path style="fill:none;stroke:midnightblue;" d="M140,-336C125,-328 107,-316 95,-300 78,-275 76,-264 76,-234 76,-234 76,-234 76,-178 76,-138 109,-103 131,-83"/>
<polygon style="fill:midnightblue;stroke:midnightblue;" points="133.779,-85.2191 139,-76 129.169,-79.9511 133.779,-85.2191"/>
</g>
<!-- Node4 -->
<g id="node8" class="node"><title>Node4</title>
<polygon style="fill:white;stroke:#bfbfbf;" points="104,-280 104,-300 143,-300 143,-280 104,-280"/>
<text text-anchor="middle" x="123" y="-287" style="font-family:Arial;font-size:10.00;">utility</text>
</g>
<!-- Node3&#45;&gt;Node4 -->
<g id="edge8" class="edge"><title>Node3&#45;&gt;Node4</title>
<path style="fill:none;stroke:midnightblue;" d="M153,-336C148,-328 142,-318 136,-309"/>
<polygon style="fill:midnightblue;stroke:midnightblue;" points="138.459,-306.379 130,-300 132.635,-310.262 138.459,-306.379"/>
</g>
<!-- Node3&#45;&gt;Node5 -->
<g id="edge10" class="edge"><title>Node3&#45;&gt;Node5</title>
<path style="fill:none;stroke:midnightblue;" d="M164,-336C176,-309 208,-233 223,-197"/>
<polygon style="fill:midnightblue;stroke:midnightblue;" points="226.137,-198.56 227,-188 219.74,-195.717 226.137,-198.56"/>
</g>
<!-- Node3&#45;&gt;Node16 -->
<g id="edge48" class="edge"><title>Node3&#45;&gt;Node16</title>
<path style="fill:none;stroke:midnightblue;" d="M212,-336C263,-327 339,-311 392,-301"/>
<polygon style="fill:midnightblue;stroke:midnightblue;" points="392.881,-304.393 402,-299 391.508,-297.529 392.881,-304.393"/>
</g>
<!-- Node5&#45;&gt;Node2 -->
<g id="edge16" class="edge"><title>Node5&#45;&gt;Node2</title>
<path style="fill:none;stroke:midnightblue;" d="M224,-168C211,-148 182,-109 165,-84"/>
<polygon style="fill:midnightblue;stroke:midnightblue;" points="167.8,-81.9 159,-76 162.2,-86.1 167.8,-81.9"/>
</g>
<!-- Node6 -->
<g id="node12" class="node"><title>Node6</title>
<polygon style="fill:white;stroke:#bfbfbf;" points="738,-56 738,-76 797,-76 797,-56 738,-56"/>
<text text-anchor="middle" x="767" y="-63" style="font-family:Arial;font-size:10.00;">stdexcept</text>
</g>
<!-- Node5&#45;&gt;Node6 -->
<g id="edge12" class="edge"><title>Node5&#45;&gt;Node6</title>
<path style="fill:none;stroke:midnightblue;" d="M282,-174C350,-169 474,-156 577,-132 632,-118 696,-95 733,-80"/>
<polygon style="fill:midnightblue;stroke:midnightblue;" points="735.015,-82.9636 743,-76 732.415,-76.4643 735.015,-82.9636"/>
</g>
<!-- Node7 -->
<g id="node14" class="node"><title>Node7</title>
<polygon style="fill:white;stroke:#bfbfbf;" points="804,-0 804,-20 844,-20 844,-0 804,-0"/>
<text text-anchor="middle" x="824" y="-7" style="font-family:Arial;font-size:10.00;">string</text>
</g>
<!-- Node5&#45;&gt;Node7 -->
<g id="edge14" class="edge"><title>Node5&#45;&gt;Node7</title>
<path style="fill:none;stroke:midnightblue;" d="M233,-168C240,-143 260,-80 305,-56 347,-33 688,-16 794,-11"/>
<polygon style="fill:midnightblue;stroke:midnightblue;" points="794,-14.5001 804,-11 794,-7.5001 794,-14.5001"/>
</g>
<!-- Node8 -->
<g id="node17" class="node"><title>Node8</title>
<a xlink:href="object_8h.html" target="_top" xlink:title="ltr/data/object.h">
<polygon style="fill:white;stroke:black;" points="484,-112 484,-132 568,-132 568,-112 484,-112"/>
<text text-anchor="middle" x="526" y="-119" style="font-family:Arial;font-size:10.00;">ltr/data/object.h</text>
</a>
</g>
<!-- Node5&#45;&gt;Node8 -->
<g id="edge18" class="edge"><title>Node5&#45;&gt;Node8</title>
<path style="fill:none;stroke:midnightblue;" d="M282,-168C336,-158 419,-142 474,-132"/>
<polygon style="fill:midnightblue;stroke:midnightblue;" points="474.881,-135.393 484,-130 473.508,-128.529 474.881,-135.393"/>
</g>
<!-- Node11 -->
<g id="node26" class="node"><title>Node11</title>
<a xlink:href="printable_8h.html" target="_top" xlink:title="ltr/interfaces/printable.h">
<polygon style="fill:white;stroke:black;" points="514,-56 514,-76 631,-76 631,-56 514,-56"/>
<text text-anchor="middle" x="572" y="-63" style="font-family:Arial;font-size:10.00;">ltr/interfaces/printable.h</text>
</a>
</g>
<!-- Node5&#45;&gt;Node11 -->
<g id="edge44" class="edge"><title>Node5&#45;&gt;Node11</title>
<path style="fill:none;stroke:midnightblue;" d="M262,-168C323,-147 462,-102 531,-79"/>
<polygon style="fill:midnightblue;stroke:midnightblue;" points="532.427,-82.2259 541,-76 530.416,-75.5212 532.427,-82.2259"/>
</g>
<!-- Node12 -->
<g id="node30" class="node"><title>Node12</title>
<a xlink:href="shared__ptr_8h.html" target="_top" xlink:title="ltr/utility/shared_ptr.h">
<polygon style="fill:white;stroke:black;" points="314,-56 314,-76 421,-76 421,-56 314,-56"/>
<text text-anchor="middle" x="367" y="-63" style="font-family:Arial;font-size:10.00;">ltr/utility/shared_ptr.h</text>
</a>
</g>
<!-- Node5&#45;&gt;Node12 -->
<g id="edge46" class="edge"><title>Node5&#45;&gt;Node12</title>
<path style="fill:none;stroke:midnightblue;" d="M238,-168C249,-154 269,-129 290,-112 304,-100 322,-89 337,-81"/>
<polygon style="fill:midnightblue;stroke:midnightblue;" points="338.958,-83.916 346,-76 335.559,-77.7969 338.958,-83.916"/>
</g>
<!-- Node8&#45;&gt;Node2 -->
<g id="edge28" class="edge"><title>Node8&#45;&gt;Node2</title>
<path style="fill:none;stroke:midnightblue;" d="M484,-116C408,-105 250,-81 183,-70"/>
<polygon style="fill:midnightblue;stroke:midnightblue;" points="183.299,-66.5125 173,-69 182.602,-73.4778 183.299,-66.5125"/>
</g>
<!-- Node8&#45;&gt;Node6 -->
<g id="edge24" class="edge"><title>Node8&#45;&gt;Node6</title>
<path style="fill:none;stroke:midnightblue;" d="M568,-112C613,-102 684,-85 728,-75"/>
<polygon style="fill:midnightblue;stroke:midnightblue;" points="728.881,-78.3933 738,-73 727.508,-71.5292 728.881,-78.3933"/>
</g>
<!-- Node8&#45;&gt;Node7 -->
<g id="edge26" class="edge"><title>Node8&#45;&gt;Node7</title>
<path style="fill:none;stroke:midnightblue;" d="M517,-112C506,-98 490,-72 505,-56 523,-33 717,-17 794,-12"/>
<polygon style="fill:midnightblue;stroke:midnightblue;" points="794.398,-15.4778 804,-11 793.701,-8.5125 794.398,-15.4778"/>
</g>
<!-- Node9 -->
<g id="node19" class="node"><title>Node9</title>
<polygon style="fill:white;stroke:#bfbfbf;" points="648,-56 648,-76 683,-76 683,-56 648,-56"/>
<text text-anchor="middle" x="665" y="-63" style="font-family:Arial;font-size:10.00;">map</text>
</g>
<!-- Node8&#45;&gt;Node9 -->
<g id="edge20" class="edge"><title>Node8&#45;&gt;Node9</title>
<path style="fill:none;stroke:midnightblue;" d="M551,-112C576,-102 614,-87 639,-77"/>
<polygon style="fill:midnightblue;stroke:midnightblue;" points="640.283,-80.2598 648,-73 637.44,-73.8631 640.283,-80.2598"/>
</g>
<!-- Node10 -->
<g id="node21" class="node"><title>Node10</title>
<polygon style="fill:white;stroke:#bfbfbf;" points="547,-0 547,-20 598,-20 598,-0 547,-0"/>
<text text-anchor="middle" x="572" y="-7" style="font-family:Arial;font-size:10.00;">ostream</text>
</g>
<!-- Node8&#45;&gt;Node10 -->
<g id="edge22" class="edge"><title>Node8&#45;&gt;Node10</title>
<path style="fill:none;stroke:midnightblue;" d="M507,-112C487,-99 458,-77 472,-56 479,-44 511,-30 537,-21"/>
<polygon style="fill:midnightblue;stroke:midnightblue;" points="538.427,-24.2259 547,-18 536.416,-17.5212 538.427,-24.2259"/>
</g>
<!-- Node8&#45;&gt;Node11 -->
<g id="edge30" class="edge"><title>Node8&#45;&gt;Node11</title>
<path style="fill:none;stroke:midnightblue;" d="M534,-112C540,-104 549,-94 557,-84"/>
<polygon style="fill:midnightblue;stroke:midnightblue;" points="559.8,-86.1 563,-76 554.2,-81.9 559.8,-86.1"/>
</g>
<!-- Node8&#45;&gt;Node12 -->
<g id="edge36" class="edge"><title>Node8&#45;&gt;Node12</title>
<path style="fill:none;stroke:midnightblue;" d="M498,-112C472,-103 434,-89 406,-79"/>
<polygon style="fill:midnightblue;stroke:midnightblue;" points="406.584,-75.5212 396,-76 404.573,-82.2259 406.584,-75.5212"/>
</g>
<!-- Node11&#45;&gt;Node7 -->
<g id="edge34" class="edge"><title>Node11&#45;&gt;Node7</title>
<path style="fill:none;stroke:midnightblue;" d="M617,-56C669,-45 750,-27 794,-17"/>
<polygon style="fill:midnightblue;stroke:midnightblue;" points="794.881,-20.3933 804,-15 793.508,-13.5292 794.881,-20.3933"/>
</g>
<!-- Node11&#45;&gt;Node10 -->
<g id="edge32" class="edge"><title>Node11&#45;&gt;Node10</title>
<path style="fill:none;stroke:midnightblue;" d="M572,-56C572,-49 572,-39 572,-30"/>
<polygon style="fill:midnightblue;stroke:midnightblue;" points="575.5,-30 572,-20 568.5,-30 575.5,-30"/>
</g>
<!-- Node13 -->
<g id="node32" class="node"><title>Node13</title>
<polygon style="fill:white;stroke:#bfbfbf;" points="473,-0 473,-20 529,-20 529,-0 473,-0"/>
<text text-anchor="middle" x="501" y="-7" style="font-family:Arial;font-size:10.00;">algorithm</text>
</g>
<!-- Node12&#45;&gt;Node13 -->
<g id="edge38" class="edge"><title>Node12&#45;&gt;Node13</title>
<path style="fill:none;stroke:midnightblue;" d="M391,-56C412,-47 443,-34 467,-24"/>
<polygon style="fill:midnightblue;stroke:midnightblue;" points="469.015,-26.9636 477,-20 466.415,-20.4643 469.015,-26.9636"/>
</g>
<!-- Node14 -->
<g id="node34" class="node"><title>Node14</title>
<polygon style="fill:white;stroke:#bfbfbf;" points="141,-0 141,-20 248,-20 248,-0 141,-0"/>
<text text-anchor="middle" x="194" y="-7" style="font-family:Arial;font-size:10.00;">boost/shared_ptr.hpp</text>
</g>
<!-- Node12&#45;&gt;Node14 -->
<g id="edge40" class="edge"><title>Node12&#45;&gt;Node14</title>
<path style="fill:none;stroke:midnightblue;" d="M336,-56C307,-47 265,-33 235,-23"/>
<polygon style="fill:midnightblue;stroke:midnightblue;" points="235.584,-19.5212 225,-20 233.573,-26.2259 235.584,-19.5212"/>
</g>
<!-- Node15 -->
<g id="node36" class="node"><title>Node15</title>
<polygon style="fill:white;stroke:#bfbfbf;" points="265,-0 265,-20 456,-20 456,-0 265,-0"/>
<text text-anchor="middle" x="360" y="-7" style="font-family:Arial;font-size:10.00;">boost/smart_ptr/detail/operator_bool.hpp</text>
</g>
<!-- Node12&#45;&gt;Node15 -->
<g id="edge42" class="edge"><title>Node12&#45;&gt;Node15</title>
<path style="fill:none;stroke:midnightblue;" d="M366,-56C365,-49 364,-39 363,-30"/>
<polygon style="fill:midnightblue;stroke:midnightblue;" points="366.393,-29.1194 361,-20 359.529,-30.4922 366.393,-29.1194"/>
</g>
<!-- Node16&#45;&gt;Node2 -->
<g id="edge56" class="edge"><title>Node16&#45;&gt;Node2</title>
<path style="fill:none;stroke:midnightblue;" d="M402,-284C359,-277 296,-265 244,-244 201,-226 182,-226 155,-188 134,-157 140,-112 146,-86"/>
<polygon style="fill:midnightblue;stroke:midnightblue;" points="149.479,-86.584 149,-76 142.774,-84.5725 149.479,-86.584"/>
</g>
<!-- Node16&#45;&gt;Node5 -->
<g id="edge60" class="edge"><title>Node16&#45;&gt;Node5</title>
<path style="fill:none;stroke:midnightblue;" d="M402,-282C355,-274 287,-260 266,-244 251,-232 241,-213 236,-198"/>
<polygon style="fill:midnightblue;stroke:midnightblue;" points="239.226,-196.573 233,-188 232.521,-198.584 239.226,-196.573"/>
</g>
<!-- Node16&#45;&gt;Node6 -->
<g id="edge52" class="edge"><title>Node16&#45;&gt;Node6</title>
<path style="fill:none;stroke:midnightblue;" d="M497,-281C559,-269 663,-249 680,-244 737,-225 771,-239 805,-188 825,-155 800,-109 782,-84"/>
<polygon style="fill:midnightblue;stroke:midnightblue;" points="784.8,-81.9 776,-76 779.2,-86.1 784.8,-81.9"/>
</g>
<!-- Node16&#45;&gt;Node7 -->
<g id="edge54" class="edge"><title>Node16&#45;&gt;Node7</title>
<path style="fill:none;stroke:midnightblue;" d="M497,-281C500,-281 502,-280 505,-280 594,-266 1316,-268 1316,-178 1316,-178 1316,-178 1316,-122 1316,-87 1303,-74 1274,-56 1238,-34 949,-16 854,-12"/>
<polygon style="fill:midnightblue;stroke:midnightblue;" points="854.299,-8.5125 844,-11 853.602,-15.4778 854.299,-8.5125"/>
</g>
<!-- Node16&#45;&gt;Node8 -->
<g id="edge58" class="edge"><title>Node16&#45;&gt;Node8</title>
<path style="fill:none;stroke:midnightblue;" d="M448,-280C447,-258 446,-205 468,-168 475,-155 487,-145 497,-138"/>
<polygon style="fill:midnightblue;stroke:midnightblue;" points="499.621,-140.459 506,-132 495.738,-134.635 499.621,-140.459"/>
</g>
<!-- Node17 -->
<g id="node42" class="node"><title>Node17</title>
<polygon style="fill:white;stroke:#bfbfbf;" points="1382,-224 1382,-244 1433,-244 1433,-224 1382,-224"/>
<text text-anchor="middle" x="1407" y="-231" style="font-family:Arial;font-size:10.00;">sstream</text>
</g>
<!-- Node16&#45;&gt;Node17 -->
<g id="edge50" class="edge"><title>Node16&#45;&gt;Node17</title>
<path style="fill:none;stroke:midnightblue;" d="M497,-281C500,-280 502,-280 505,-280 886,-238 988,-299 1368,-244 1369,-244 1371,-243 1372,-243"/>
<polygon style="fill:midnightblue;stroke:midnightblue;" points="1372.88,-246.393 1382,-241 1371.51,-239.529 1372.88,-246.393"/>
</g>
<!-- Node18 -->
<g id="node49" class="node"><title>Node18</title>
<a xlink:href="object__pair_8h.html" target="_top" xlink:title="ltr/data/object_pair.h">
<polygon style="fill:white;stroke:black;" points="477,-168 477,-188 581,-188 581,-168 477,-168"/>
<text text-anchor="middle" x="529" y="-175" style="font-family:Arial;font-size:10.00;">ltr/data/object_pair.h</text>
</a>
</g>
<!-- Node16&#45;&gt;Node18 -->
<g id="edge62" class="edge"><title>Node16&#45;&gt;Node18</title>
<path style="fill:none;stroke:midnightblue;" d="M456,-280C469,-260 498,-221 516,-196"/>
<polygon style="fill:midnightblue;stroke:midnightblue;" points="518.8,-198.1 522,-188 513.2,-193.9 518.8,-198.1"/>
</g>
<!-- Node19 -->
<g id="node57" class="node"><title>Node19</title>
<a xlink:href="feature__info_8h.html" target="_top" xlink:title="ltr/data/feature_info.h">
<polygon style="fill:white;stroke:black;" points="565,-224 565,-244 672,-244 672,-224 565,-224"/>
<text text-anchor="middle" x="618" y="-231" style="font-family:Arial;font-size:10.00;">ltr/data/feature_info.h</text>
</a>
</g>
<!-- Node16&#45;&gt;Node19 -->
<g id="edge76" class="edge"><title>Node16&#45;&gt;Node19</title>
<path style="fill:none;stroke:midnightblue;" d="M479,-280C507,-271 548,-257 578,-247"/>
<polygon style="fill:midnightblue;stroke:midnightblue;" points="579.427,-250.226 588,-244 577.416,-243.521 579.427,-250.226"/>
</g>
<!-- Node26 -->
<g id="node81" class="node"><title>Node26</title>
<a xlink:href="per__object__accessor_8h.html" target="_top" xlink:title="ltr/data/per_object_accessor.h">
<polygon style="fill:white;stroke:black;" points="275,-224 275,-244 422,-244 422,-224 275,-224"/>
<text text-anchor="middle" x="348" y="-231" style="font-family:Arial;font-size:10.00;">ltr/data/per_object_accessor.h</text>
</a>
</g>
<!-- Node16&#45;&gt;Node26 -->
<g id="edge110" class="edge"><title>Node16&#45;&gt;Node26</title>
<path style="fill:none;stroke:midnightblue;" d="M431,-280C416,-271 393,-259 375,-249"/>
<polygon style="fill:midnightblue;stroke:midnightblue;" points="376.441,-245.797 366,-244 373.042,-251.916 376.441,-245.797"/>
</g>
<!-- Node27 -->
<g id="node88" class="node"><title>Node27</title>
<a xlink:href="aliaser_8h.html" target="_top" xlink:title="ltr/interfaces/aliaser.h">
<polygon style="fill:white;stroke:black;" points="1344,-112 1344,-132 1452,-132 1452,-112 1344,-112"/>
<text text-anchor="middle" x="1398" y="-119" style="font-family:Arial;font-size:10.00;">ltr/interfaces/aliaser.h</text>
</a>
</g>
<!-- Node16&#45;&gt;Node27 -->
<g id="edge122" class="edge"><title>Node16&#45;&gt;Node27</title>
<path style="fill:none;stroke:midnightblue;" d="M497,-281C500,-280 502,-280 505,-280 596,-269 1251,-292 1330,-244 1366,-221 1385,-170 1393,-142"/>
<polygon style="fill:midnightblue;stroke:midnightblue;" points="1396.48,-142.584 1396,-132 1389.77,-140.573 1396.48,-142.584"/>
</g>
<!-- Node18&#45;&gt;Node2 -->
<g id="edge68" class="edge"><title>Node18&#45;&gt;Node2</title>
<path style="fill:none;stroke:midnightblue;" d="M495,-168C423,-146 253,-96 183,-75"/>
<polygon style="fill:midnightblue;stroke:midnightblue;" points="183.584,-71.5212 173,-72 181.573,-78.2259 183.584,-71.5212"/>
</g>
<!-- Node18&#45;&gt;Node6 -->
<g id="edge64" class="edge"><title>Node18&#45;&gt;Node6</title>
<path style="fill:none;stroke:midnightblue;" d="M581,-170C631,-162 701,-148 724,-132 740,-120 752,-100 759,-85"/>
<polygon style="fill:midnightblue;stroke:midnightblue;" points="762.137,-86.5596 763,-76 755.74,-83.7166 762.137,-86.5596"/>
</g>
<!-- Node18&#45;&gt;Node7 -->
<g id="edge66" class="edge"><title>Node18&#45;&gt;Node7</title>
<path style="fill:none;stroke:midnightblue;" d="M544,-168C577,-146 658,-94 729,-56 750,-44 775,-32 795,-23"/>
<polygon style="fill:midnightblue;stroke:midnightblue;" points="796.283,-26.2598 804,-19 793.44,-19.8631 796.283,-26.2598"/>
</g>
<!-- Node18&#45;&gt;Node8 -->
<g id="edge70" class="edge"><title>Node18&#45;&gt;Node8</title>
<path style="fill:none;stroke:midnightblue;" d="M528,-168C528,-161 527,-151 527,-142"/>
<polygon style="fill:midnightblue;stroke:midnightblue;" points="530.5,-142 527,-132 523.5,-142 530.5,-142"/>
</g>
<!-- Node18&#45;&gt;Node11 -->
<g id="edge72" class="edge"><title>Node18&#45;&gt;Node11</title>
<path style="fill:none;stroke:midnightblue;" d="M545,-168C556,-159 570,-147 577,-132 582,-117 581,-99 578,-86"/>
<polygon style="fill:midnightblue;stroke:midnightblue;" points="581.393,-85.1194 576,-76 574.529,-86.4922 581.393,-85.1194"/>
</g>
<!-- Node18&#45;&gt;Node12 -->
<g id="edge74" class="edge"><title>Node18&#45;&gt;Node12</title>
<path style="fill:none;stroke:midnightblue;" d="M514,-168C486,-148 424,-106 390,-82"/>
<polygon style="fill:midnightblue;stroke:midnightblue;" points="392.1,-79.2 382,-76 387.9,-84.8 392.1,-79.2"/>
</g>
<!-- Node19&#45;&gt;Node2 -->
<g id="edge82" class="edge"><title>Node19&#45;&gt;Node2</title>
<path style="fill:none;stroke:midnightblue;" d="M565,-230C450,-222 186,-201 171,-188 144,-162 145,-114 149,-86"/>
<polygon style="fill:midnightblue;stroke:midnightblue;" points="152.488,-86.2987 150,-76 145.522,-85.6021 152.488,-86.2987"/>
</g>
<!-- Node19&#45;&gt;Node7 -->
<g id="edge80" class="edge"><title>Node19&#45;&gt;Node7</title>
<path style="fill:none;stroke:midnightblue;" d="M672,-230C815,-217 1193,-174 1259,-76 1263,-68 1264,-62 1259,-56 1231,-25 948,-14 854,-11"/>
<polygon style="fill:midnightblue;stroke:midnightblue;" points="854,-7.5001 844,-11 854,-14.5001 854,-7.5001"/>
</g>
<!-- Node19&#45;&gt;Node9 -->
<g id="edge78" class="edge"><title>Node19&#45;&gt;Node9</title>
<path style="fill:none;stroke:midnightblue;" d="M621,-224C628,-197 649,-122 659,-86"/>
<polygon style="fill:midnightblue;stroke:midnightblue;" points="662.479,-86.584 662,-76 655.774,-84.5725 662.479,-86.584"/>
</g>
<!-- Node19&#45;&gt;Node12 -->
<g id="edge108" class="edge"><title>Node19&#45;&gt;Node12</title>
<path style="fill:none;stroke:midnightblue;" d="M565,-225C535,-219 497,-207 468,-188 427,-160 394,-111 378,-85"/>
<polygon style="fill:midnightblue;stroke:midnightblue;" points="380.916,-83.0418 373,-76 374.797,-86.4414 380.916,-83.0418"/>
</g>
<!-- Node20 -->
<g id="node62" class="node"><title>Node20</title>
<a xlink:href="parameterized_8h.html" target="_top" xlink:title="ltr/interfaces/parameterized.h">
<polygon style="fill:white;stroke:black;" points="654,-168 654,-188 796,-188 796,-168 654,-168"/>
<text text-anchor="middle" x="725" y="-175" style="font-family:Arial;font-size:10.00;">ltr/interfaces/parameterized.h</text>
</a>
</g>
<!-- Node19&#45;&gt;Node20 -->
<g id="edge84" class="edge"><title>Node19&#45;&gt;Node20</title>
<path style="fill:none;stroke:midnightblue;" d="M637,-224C653,-215 678,-202 697,-193"/>
<polygon style="fill:midnightblue;stroke:midnightblue;" points="698.958,-195.916 706,-188 695.559,-189.797 698.958,-195.916"/>
</g>
<!-- Node20&#45;&gt;Node6 -->
<g id="edge86" class="edge"><title>Node20&#45;&gt;Node6</title>
<path style="fill:none;stroke:midnightblue;" d="M736,-168C745,-159 756,-146 762,-132 767,-117 769,-100 768,-86"/>
<polygon style="fill:midnightblue;stroke:midnightblue;" points="771.5,-86 768,-76 764.5,-86 771.5,-86"/>
</g>
<!-- Node20&#45;&gt;Node7 -->
<g id="edge88" class="edge"><title>Node20&#45;&gt;Node7</title>
<path style="fill:none;stroke:midnightblue;" d="M739,-168C750,-159 765,-146 776,-132 800,-100 813,-55 820,-30"/>
<polygon style="fill:midnightblue;stroke:midnightblue;" points="823.471,-30.4922 822,-20 816.607,-29.1194 823.471,-30.4922"/>
</g>
<!-- Node21 -->
<g id="node66" class="node"><title>Node21</title>
<a xlink:href="parameters__container_8h.html" target="_top" xlink:title="ltr/parameters_container/parameters_container.h">
<polygon style="fill:white;stroke:black;" points="890,-112 890,-132 1115,-132 1115,-112 890,-112"/>
<text text-anchor="middle" x="1002" y="-119" style="font-family:Arial;font-size:10.00;">ltr/parameters_container/parameters_container.h</text>
</a>
</g>
<!-- Node20&#45;&gt;Node21 -->
<g id="edge90" class="edge"><title>Node20&#45;&gt;Node21</title>
<path style="fill:none;stroke:midnightblue;" d="M775,-168C822,-159 892,-144 942,-134"/>
<polygon style="fill:midnightblue;stroke:midnightblue;" points="942.881,-137.393 952,-132 941.508,-130.529 942.881,-137.393"/>
</g>
<!-- Node21&#45;&gt;Node6 -->
<g id="edge96" class="edge"><title>Node21&#45;&gt;Node6</title>
<path style="fill:none;stroke:midnightblue;" d="M960,-112C917,-102 849,-86 807,-75"/>
<polygon style="fill:midnightblue;stroke:midnightblue;" points="807.492,-71.5292 797,-73 806.119,-78.3933 807.492,-71.5292"/>
</g>
<!-- Node21&#45;&gt;Node7 -->
<g id="edge98" class="edge"><title>Node21&#45;&gt;Node7</title>
<path style="fill:none;stroke:midnightblue;" d="M962,-112C937,-104 906,-93 881,-76 863,-63 847,-43 836,-28"/>
<polygon style="fill:midnightblue;stroke:midnightblue;" points="838.8,-25.9 830,-20 833.2,-30.1 838.8,-25.9"/>
</g>
<!-- Node21&#45;&gt;Node11 -->
<g id="edge106" class="edge"><title>Node21&#45;&gt;Node11</title>
<path style="fill:none;stroke:midnightblue;" d="M919,-112C848,-103 742,-90 641,-76"/>
<polygon style="fill:midnightblue;stroke:midnightblue;" points="641.299,-72.5125 631,-75 640.602,-79.4778 641.299,-72.5125"/>
</g>
<!-- Node21&#45;&gt;Node12 -->
<g id="edge104" class="edge"><title>Node21&#45;&gt;Node12</title>
<path style="fill:none;stroke:midnightblue;" d="M890,-112C757,-100 539,-81 431,-72"/>
<polygon style="fill:midnightblue;stroke:midnightblue;" points="431.299,-68.5125 421,-71 430.602,-75.4778 431.299,-68.5125"/>
</g>
<!-- Node22 -->
<g id="node68" class="node"><title>Node22</title>
<polygon style="fill:white;stroke:#bfbfbf;" points="1036,-56 1036,-76 1110,-76 1110,-56 1036,-56"/>
<text text-anchor="middle" x="1073" y="-63" style="font-family:Arial;font-size:10.00;">logog/logog.h</text>
</g>
<!-- Node21&#45;&gt;Node22 -->
<g id="edge92" class="edge"><title>Node21&#45;&gt;Node22</title>
<path style="fill:none;stroke:midnightblue;" d="M1015,-112C1026,-104 1040,-92 1052,-83"/>
<polygon style="fill:midnightblue;stroke:midnightblue;" points="1054.78,-85.2191 1060,-76 1050.17,-79.9511 1054.78,-85.2191"/>
</g>
<!-- Node23 -->
<g id="node70" class="node"><title>Node23</title>
<polygon style="fill:white;stroke:#bfbfbf;" points="1128,-56 1128,-76 1157,-76 1157,-56 1128,-56"/>
<text text-anchor="middle" x="1142" y="-63" style="font-family:Arial;font-size:10.00;">list</text>
</g>
<!-- Node21&#45;&gt;Node23 -->
<g id="edge94" class="edge"><title>Node21&#45;&gt;Node23</title>
<path style="fill:none;stroke:midnightblue;" d="M1028,-112C1050,-104 1082,-91 1119,-76"/>
<polygon style="fill:midnightblue;stroke:midnightblue;" points="1120.28,-79.2598 1128,-72 1117.44,-72.8631 1120.28,-79.2598"/>
</g>
<!-- Node24 -->
<g id="node74" class="node"><title>Node24</title>
<polygon style="fill:white;stroke:#bfbfbf;" points="1174,-56 1174,-76 1251,-76 1251,-56 1174,-56"/>
<text text-anchor="middle" x="1212" y="-63" style="font-family:Arial;font-size:10.00;">boost/any.hpp</text>
</g>
<!-- Node21&#45;&gt;Node24 -->
<g id="edge100" class="edge"><title>Node21&#45;&gt;Node24</title>
<path style="fill:none;stroke:midnightblue;" d="M1040,-112C1075,-103 1127,-89 1164,-79"/>
<polygon style="fill:midnightblue;stroke:midnightblue;" points="1165.43,-82.2259 1174,-76 1163.42,-75.5212 1165.43,-82.2259"/>
</g>
<!-- Node25 -->
<g id="node76" class="node"><title>Node25</title>
<polygon style="fill:white;stroke:#bfbfbf;" points="890,-56 890,-76 1019,-76 1019,-56 890,-56"/>
<text text-anchor="middle" x="954" y="-63" style="font-family:Arial;font-size:10.00;">boost/unordered_map.hpp</text>
</g>
<!-- Node21&#45;&gt;Node25 -->
<g id="edge102" class="edge"><title>Node21&#45;&gt;Node25</title>
<path style="fill:none;stroke:midnightblue;" d="M993,-112C987,-104 977,-93 969,-84"/>
<polygon style="fill:midnightblue;stroke:midnightblue;" points="971.8,-81.9 963,-76 966.2,-86.1 971.8,-81.9"/>
</g>
<!-- Node26&#45;&gt;Node5 -->
<g id="edge116" class="edge"><title>Node26&#45;&gt;Node5</title>
<path style="fill:none;stroke:midnightblue;" d="M327,-224C309,-215 282,-202 261,-192"/>
<polygon style="fill:midnightblue;stroke:midnightblue;" points="262.56,-188.863 252,-188 259.717,-195.26 262.56,-188.863"/>
</g>
<!-- Node26&#45;&gt;Node8 -->
<g id="edge112" class="edge"><title>Node26&#45;&gt;Node8</title>
<path style="fill:none;stroke:midnightblue;" d="M359,-224C375,-210 406,-185 435,-168 454,-156 476,-145 493,-137"/>
<polygon style="fill:midnightblue;stroke:midnightblue;" points="494.958,-139.916 502,-132 491.559,-133.797 494.958,-139.916"/>
</g>
<!-- Node26&#45;&gt;Node12 -->
<g id="edge120" class="edge"><title>Node26&#45;&gt;Node12</title>
<path style="fill:none;stroke:midnightblue;" d="M349,-224C352,-197 360,-123 365,-86"/>
<polygon style="fill:midnightblue;stroke:midnightblue;" points="368.488,-86.2987 366,-76 361.522,-85.6021 368.488,-86.2987"/>
</g>
<!-- Node26&#45;&gt;Node18 -->
<g id="edge114" class="edge"><title>Node26&#45;&gt;Node18</title>
<path style="fill:none;stroke:midnightblue;" d="M380,-224C410,-215 454,-201 486,-191"/>
<polygon style="fill:midnightblue;stroke:midnightblue;" points="487.427,-194.226 496,-188 485.416,-187.521 487.427,-194.226"/>
</g>
<!-- Node26&#45;&gt;Node20 -->
<g id="edge118" class="edge"><title>Node26&#45;&gt;Node20</title>
<path style="fill:none;stroke:midnightblue;" d="M415,-224C481,-214 579,-199 648,-189"/>
<polygon style="fill:midnightblue;stroke:midnightblue;" points="648.398,-192.478 658,-188 647.701,-185.512 648.398,-192.478"/>
</g>
<!-- Node27&#45;&gt;Node7 -->
<g id="edge124" class="edge"><title>Node27&#45;&gt;Node7</title>
<path style="fill:none;stroke:midnightblue;" d="M1391,-112C1380,-97 1357,-68 1330,-56 1287,-36 957,-17 854,-12"/>
<polygon style="fill:midnightblue;stroke:midnightblue;" points="854.299,-8.5125 844,-11 853.602,-15.4778 854.299,-8.5125"/>
</g>
<!-- Node29 -->
<g id="node94" class="node"><title>Node29</title>
<polygon style="fill:white;stroke:#bfbfbf;" points="514,-280 514,-300 557,-300 557,-280 514,-280"/>
<text text-anchor="middle" x="535" y="-287" style="font-family:Arial;font-size:10.00;">cmath</text>
</g>
<!-- Node28&#45;&gt;Node29 -->
<g id="edge130" class="edge"><title>Node28&#45;&gt;Node29</title>
<path style="fill:none;stroke:midnightblue;" d="M535,-336C535,-329 535,-319 535,-310"/>
<polygon style="fill:midnightblue;stroke:midnightblue;" points="538.5,-310 535,-300 531.5,-310 538.5,-310"/>
</g>
<!-- Node30 -->
<g id="node96" class="node"><title>Node30</title>
<polygon style="fill:white;stroke:#bfbfbf;" points="574,-280 574,-300 613,-300 613,-280 574,-280"/>
<text text-anchor="middle" x="593" y="-287" style="font-family:Arial;font-size:10.00;">limits</text>
</g>
<!-- Node28&#45;&gt;Node30 -->
<g id="edge132" class="edge"><title>Node28&#45;&gt;Node30</title>
<path style="fill:none;stroke:midnightblue;" d="M545,-336C554,-328 565,-317 575,-307"/>
<polygon style="fill:midnightblue;stroke:midnightblue;" points="577.404,-309.546 582,-300 572.454,-304.596 577.404,-309.546"/>
</g>
</g>
</svg>
