<?xml version="1.0" encoding="UTF-8" standalone="no"?>
<!DOCTYPE svg PUBLIC "-//W3C//DTD SVG 1.0//EN"
 "http://www.w3.org/TR/2001/REC-SVG-20010904/DTD/svg10.dtd" [
 <!ATTLIST svg xmlns:xlink CDATA #FIXED "http://www.w3.org/1999/xlink">
]>
<!-- Generated by Graphviz version 2.20.2 (Tue Mar &#160;2 19:03:41 UTC 2010)
     For user: (jenkins)  -->
<!-- Title: G Pages: 1 -->
<svg width="590pt" height="84pt"
 viewBox="0.00 0.00 590.00 84.00" xmlns="http://www.w3.org/2000/svg" xmlns:xlink="http://www.w3.org/1999/xlink">
<g id="graph0" class="graph" transform="scale(1 1) rotate(0) translate(4 80)">
<title>G</title>
<polygon style="fill:white;stroke:white;" points="-4,4 -4,-80 586,-80 586,4 -4,4"/>
<!-- Node1 -->
<g id="node1" class="node"><title>Node1</title>
<polygon style="fill:#bfbfbf;stroke:black;" points="211,-56 211,-76 384,-76 384,-56 211,-56"/>
<text text-anchor="middle" x="297" y="-63" style="font-family:Arial;font-size:10.00;">ltr/measures/utils/measure_utility.cc</text>
</g>
<!-- Node2 -->
<g id="node3" class="node"><title>Node2</title>
<polygon style="fill:white;stroke:#bfbfbf;" points="0,-0 0,-20 42,-20 42,-0 0,-0"/>
<text text-anchor="middle" x="21" y="-7" style="font-family:Arial;font-size:10.00;">vector</text>
</g>
<!-- Node1&#45;&gt;Node2 -->
<g id="edge2" class="edge"><title>Node1&#45;&gt;Node2</title>
<path style="fill:none;stroke:midnightblue;" d="M232,-56C184,-48 119,-36 52,-19"/>
<polygon style="fill:midnightblue;stroke:midnightblue;" points="52.4922,-15.5292 42,-17 51.1194,-22.3933 52.4922,-15.5292"/>
</g>
<!-- Node3 -->
<g id="node5" class="node"><title>Node3</title>
<polygon style="fill:white;stroke:#bfbfbf;" points="60,-0 60,-20 228,-20 228,-0 60,-0"/>
<text text-anchor="middle" x="144" y="-7" style="font-family:Arial;font-size:10.00;">ltr/measures/utils/measure_utility.h</text>
</g>
<!-- Node1&#45;&gt;Node3 -->
<g id="edge4" class="edge"><title>Node1&#45;&gt;Node3</title>
<path style="fill:none;stroke:midnightblue;" d="M270,-56C245,-47 208,-33 181,-23"/>
<polygon style="fill:midnightblue;stroke:midnightblue;" points="181.584,-19.5212 171,-20 179.573,-26.2259 181.584,-19.5212"/>
</g>
<!-- Node4 -->
<g id="node7" class="node"><title>Node4</title>
<polygon style="fill:white;stroke:#bfbfbf;" points="246,-0 246,-20 348,-20 348,-0 246,-0"/>
<text text-anchor="middle" x="297" y="-7" style="font-family:Arial;font-size:10.00;">ltr/data/object_list.h</text>
</g>
<!-- Node1&#45;&gt;Node4 -->
<g id="edge6" class="edge"><title>Node1&#45;&gt;Node4</title>
<path style="fill:none;stroke:midnightblue;" d="M297,-56C297,-49 297,-39 297,-30"/>
<polygon style="fill:midnightblue;stroke:midnightblue;" points="300.5,-30 297,-20 293.5,-30 300.5,-30"/>
</g>
<!-- Node5 -->
<g id="node9" class="node"><title>Node5</title>
<polygon style="fill:white;stroke:#bfbfbf;" points="366,-0 366,-20 470,-20 470,-0 366,-0"/>
<text text-anchor="middle" x="418" y="-7" style="font-family:Arial;font-size:10.00;">ltr/utility/numerical.h</text>
</g>
<!-- Node1&#45;&gt;Node5 -->
<g id="edge8" class="edge"><title>Node1&#45;&gt;Node5</title>
<path style="fill:none;stroke:midnightblue;" d="M319,-56C337,-47 365,-34 387,-24"/>
<polygon style="fill:midnightblue;stroke:midnightblue;" points="388.283,-27.2598 396,-20 385.44,-20.8631 388.283,-27.2598"/>
</g>
<!-- Node6 -->
<g id="node11" class="node"><title>Node6</title>
<polygon style="fill:white;stroke:#bfbfbf;" points="488,-0 488,-20 583,-20 583,-0 488,-0"/>
<text text-anchor="middle" x="535" y="-7" style="font-family:Arial;font-size:10.00;">ltr/data/data_set.h</text>
</g>
<!-- Node1&#45;&gt;Node6 -->
<g id="edge10" class="edge"><title>Node1&#45;&gt;Node6</title>
<path style="fill:none;stroke:midnightblue;" d="M340,-56C380,-47 439,-32 482,-22"/>
<polygon style="fill:midnightblue;stroke:midnightblue;" points="482.881,-25.3933 492,-20 481.508,-18.5292 482.881,-25.3933"/>
</g>
</g>
</svg>
