<?xml version="1.0" encoding="UTF-8" standalone="no"?>
<!DOCTYPE svg PUBLIC "-//W3C//DTD SVG 1.0//EN"
 "http://www.w3.org/TR/2001/REC-SVG-20010904/DTD/svg10.dtd" [
 <!ATTLIST svg xmlns:xlink CDATA #FIXED "http://www.w3.org/1999/xlink">
]>
<!-- Generated by Graphviz version 2.20.2 (Tue Mar &#160;2 19:03:41 UTC 2010)
     For user: (jenkins)  -->
<!-- Title: G Pages: 1 -->
<svg width="1908pt" height="140pt"
 viewBox="0.00 0.00 1908.00 140.00" xmlns="http://www.w3.org/2000/svg" xmlns:xlink="http://www.w3.org/1999/xlink">
<g id="graph0" class="graph" transform="scale(1 1) rotate(0) translate(4 136)">
<title>G</title>
<polygon style="fill:white;stroke:white;" points="-4,4 -4,-136 1904,-136 1904,4 -4,4"/>
<!-- Node1 -->
<g id="node1" class="node"><title>Node1</title>
<polygon style="fill:#bfbfbf;stroke:black;" points="705,-112 705,-132 824,-132 824,-112 705,-112"/>
<text text-anchor="middle" x="764" y="-119" style="font-family:Arial;font-size:10.00;">ltr/measures/measure.h</text>
</g>
<!-- Node2 -->
<g id="node3" class="node"><title>Node2</title>
<polygon style="fill:white;stroke:#bfbfbf;" points="0,-56 0,-76 74,-76 74,-56 0,-56"/>
<text text-anchor="middle" x="37" y="-63" style="font-family:Arial;font-size:10.00;">logog/logog.h</text>
</g>
<!-- Node1&#45;&gt;Node2 -->
<g id="edge2" class="edge"><title>Node1&#45;&gt;Node2</title>
<path style="fill:none;stroke:midnightblue;" d="M705,-121C588,-118 319,-108 84,-76"/>
<polygon style="fill:midnightblue;stroke:midnightblue;" points="84.2987,-72.5125 74,-75 83.6021,-79.4778 84.2987,-72.5125"/>
</g>
<!-- Node3 -->
<g id="node5" class="node"><title>Node3</title>
<polygon style="fill:white;stroke:#bfbfbf;" points="92,-56 92,-76 206,-76 206,-56 92,-56"/>
<text text-anchor="middle" x="149" y="-63" style="font-family:Arial;font-size:10.00;">boost/lexical_cast.hpp</text>
</g>
<!-- Node1&#45;&gt;Node3 -->
<g id="edge4" class="edge"><title>Node1&#45;&gt;Node3</title>
<path style="fill:none;stroke:midnightblue;" d="M705,-118C606,-112 401,-97 216,-76"/>
<polygon style="fill:midnightblue;stroke:midnightblue;" points="216.299,-72.5125 206,-75 215.602,-79.4778 216.299,-72.5125"/>
</g>
<!-- Node4 -->
<g id="node7" class="node"><title>Node4</title>
<polygon style="fill:white;stroke:#bfbfbf;" points="224,-56 224,-76 280,-76 280,-56 224,-56"/>
<text text-anchor="middle" x="252" y="-63" style="font-family:Arial;font-size:10.00;">algorithm</text>
</g>
<!-- Node1&#45;&gt;Node4 -->
<g id="edge6" class="edge"><title>Node1&#45;&gt;Node4</title>
<path style="fill:none;stroke:midnightblue;" d="M705,-119C617,-115 445,-104 290,-76"/>
<polygon style="fill:midnightblue;stroke:midnightblue;" points="290.492,-72.5292 280,-74 289.119,-79.3933 290.492,-72.5292"/>
</g>
<!-- Node5 -->
<g id="node9" class="node"><title>Node5</title>
<polygon style="fill:white;stroke:#bfbfbf;" points="298,-56 298,-76 357,-76 357,-56 298,-56"/>
<text text-anchor="middle" x="327" y="-63" style="font-family:Arial;font-size:10.00;">stdexcept</text>
</g>
<!-- Node1&#45;&gt;Node5 -->
<g id="edge8" class="edge"><title>Node1&#45;&gt;Node5</title>
<path style="fill:none;stroke:midnightblue;" d="M705,-118C628,-112 491,-99 367,-76"/>
<polygon style="fill:midnightblue;stroke:midnightblue;" points="367.492,-72.5292 357,-74 366.119,-79.3933 367.492,-72.5292"/>
</g>
<!-- Node6 -->
<g id="node11" class="node"><title>Node6</title>
<polygon style="fill:white;stroke:#bfbfbf;" points="374,-56 374,-76 414,-76 414,-56 374,-56"/>
<text text-anchor="middle" x="394" y="-63" style="font-family:Arial;font-size:10.00;">string</text>
</g>
<!-- Node1&#45;&gt;Node6 -->
<g id="edge10" class="edge"><title>Node1&#45;&gt;Node6</title>
<path style="fill:none;stroke:midnightblue;" d="M705,-118C638,-112 527,-100 424,-75"/>
<polygon style="fill:midnightblue;stroke:midnightblue;" points="424.492,-71.5292 414,-73 423.119,-78.3933 424.492,-71.5292"/>
</g>
<!-- Node7 -->
<g id="node13" class="node"><title>Node7</title>
<polygon style="fill:white;stroke:#bfbfbf;" points="432,-56 432,-76 516,-76 516,-56 432,-56"/>
<text text-anchor="middle" x="474" y="-63" style="font-family:Arial;font-size:10.00;">ltr/data/object.h</text>
</g>
<!-- Node1&#45;&gt;Node7 -->
<g id="edge12" class="edge"><title>Node1&#45;&gt;Node7</title>
<path style="fill:none;stroke:midnightblue;" d="M712,-112C666,-103 596,-89 526,-76"/>
<polygon style="fill:midnightblue;stroke:midnightblue;" points="526.492,-72.5292 516,-74 525.119,-79.3933 526.492,-72.5292"/>
</g>
<!-- Node8 -->
<g id="node15" class="node"><title>Node8</title>
<polygon style="fill:white;stroke:#bfbfbf;" points="534,-56 534,-76 636,-76 636,-56 534,-56"/>
<text text-anchor="middle" x="585" y="-63" style="font-family:Arial;font-size:10.00;">ltr/data/object_list.h</text>
</g>
<!-- Node1&#45;&gt;Node8 -->
<g id="edge14" class="edge"><title>Node1&#45;&gt;Node8</title>
<path style="fill:none;stroke:midnightblue;" d="M732,-112C703,-103 659,-89 627,-79"/>
<polygon style="fill:midnightblue;stroke:midnightblue;" points="627.584,-75.5212 617,-76 625.573,-82.2259 627.584,-75.5212"/>
</g>
<!-- Node9 -->
<g id="node17" class="node"><title>Node9</title>
<polygon style="fill:white;stroke:#bfbfbf;" points="654,-56 654,-76 758,-76 758,-56 654,-56"/>
<text text-anchor="middle" x="706" y="-63" style="font-family:Arial;font-size:10.00;">ltr/data/object_pair.h</text>
</g>
<!-- Node1&#45;&gt;Node9 -->
<g id="edge16" class="edge"><title>Node1&#45;&gt;Node9</title>
<path style="fill:none;stroke:midnightblue;" d="M754,-112C745,-104 734,-93 724,-83"/>
<polygon style="fill:midnightblue;stroke:midnightblue;" points="726.546,-80.5962 717,-76 721.596,-85.546 726.546,-80.5962"/>
</g>
<!-- Node10 -->
<g id="node19" class="node"><title>Node10</title>
<polygon style="fill:white;stroke:#bfbfbf;" points="776,-56 776,-76 871,-76 871,-56 776,-56"/>
<text text-anchor="middle" x="823" y="-63" style="font-family:Arial;font-size:10.00;">ltr/data/data_set.h</text>
</g>
<!-- Node1&#45;&gt;Node10 -->
<g id="edge18" class="edge"><title>Node1&#45;&gt;Node10</title>
<path style="fill:none;stroke:midnightblue;" d="M775,-112C784,-104 795,-93 805,-83"/>
<polygon style="fill:midnightblue;stroke:midnightblue;" points="807.404,-85.546 812,-76 802.454,-80.5962 807.404,-85.546"/>
</g>
<!-- Node11 -->
<g id="node21" class="node"><title>Node11</title>
<polygon style="fill:white;stroke:#bfbfbf;" points="888,-56 888,-76 996,-76 996,-56 888,-56"/>
<text text-anchor="middle" x="942" y="-63" style="font-family:Arial;font-size:10.00;">ltr/interfaces/aliaser.h</text>
</g>
<!-- Node1&#45;&gt;Node11 -->
<g id="edge20" class="edge"><title>Node1&#45;&gt;Node11</title>
<path style="fill:none;stroke:midnightblue;" d="M796,-112C825,-103 868,-89 900,-79"/>
<polygon style="fill:midnightblue;stroke:midnightblue;" points="901.427,-82.2259 910,-76 899.416,-75.5212 901.427,-82.2259"/>
</g>
<!-- Node12 -->
<g id="node23" class="node"><title>Node12</title>
<polygon style="fill:white;stroke:#bfbfbf;" points="1014,-56 1014,-76 1131,-76 1131,-56 1014,-56"/>
<text text-anchor="middle" x="1072" y="-63" style="font-family:Arial;font-size:10.00;">ltr/interfaces/printable.h</text>
</g>
<!-- Node1&#45;&gt;Node12 -->
<g id="edge22" class="edge"><title>Node1&#45;&gt;Node12</title>
<path style="fill:none;stroke:midnightblue;" d="M819,-112C872,-103 951,-88 1007,-78"/>
<polygon style="fill:midnightblue;stroke:midnightblue;" points="1007.88,-81.3933 1017,-76 1006.51,-74.5292 1007.88,-81.3933"/>
</g>
<!-- Node13 -->
<g id="node25" class="node"><title>Node13</title>
<polygon style="fill:white;stroke:#bfbfbf;" points="1148,-56 1148,-76 1290,-76 1290,-56 1148,-56"/>
<text text-anchor="middle" x="1219" y="-63" style="font-family:Arial;font-size:10.00;">ltr/interfaces/parameterized.h</text>
</g>
<!-- Node1&#45;&gt;Node13 -->
<g id="edge24" class="edge"><title>Node1&#45;&gt;Node13</title>
<path style="fill:none;stroke:midnightblue;" d="M824,-115C896,-105 1021,-90 1138,-76"/>
<polygon style="fill:midnightblue;stroke:midnightblue;" points="1138.4,-79.4778 1148,-75 1137.7,-72.5125 1138.4,-79.4778"/>
</g>
<!-- Node14 -->
<g id="node27" class="node"><title>Node14</title>
<polygon style="fill:white;stroke:#bfbfbf;" points="1308,-56 1308,-76 1533,-76 1533,-56 1308,-56"/>
<text text-anchor="middle" x="1420" y="-63" style="font-family:Arial;font-size:10.00;">ltr/parameters_container/parameters_container.h</text>
</g>
<!-- Node1&#45;&gt;Node14 -->
<g id="edge26" class="edge"><title>Node1&#45;&gt;Node14</title>
<path style="fill:none;stroke:midnightblue;" d="M824,-117C931,-108 1157,-89 1298,-77"/>
<polygon style="fill:midnightblue;stroke:midnightblue;" points="1298.4,-80.4778 1308,-76 1297.7,-73.5125 1298.4,-80.4778"/>
</g>
<!-- Node15 -->
<g id="node29" class="node"><title>Node15</title>
<a xlink:href="numerical_8h.html" target="_top" xlink:title="ltr/utility/numerical.h">
<polygon style="fill:white;stroke:black;" points="1550,-56 1550,-76 1654,-76 1654,-56 1550,-56"/>
<text text-anchor="middle" x="1602" y="-63" style="font-family:Arial;font-size:10.00;">ltr/utility/numerical.h</text>
</a>
</g>
<!-- Node1&#45;&gt;Node15 -->
<g id="edge28" class="edge"><title>Node1&#45;&gt;Node15</title>
<path style="fill:none;stroke:midnightblue;" d="M824,-121C953,-117 1267,-105 1540,-76"/>
<polygon style="fill:midnightblue;stroke:midnightblue;" points="1540.4,-79.4778 1550,-75 1539.7,-72.5125 1540.4,-79.4778"/>
</g>
<!-- Node18 -->
<g id="node35" class="node"><title>Node18</title>
<polygon style="fill:white;stroke:#bfbfbf;" points="1672,-56 1672,-76 1779,-76 1779,-56 1672,-56"/>
<text text-anchor="middle" x="1725" y="-63" style="font-family:Arial;font-size:10.00;">ltr/utility/shared_ptr.h</text>
</g>
<!-- Node1&#45;&gt;Node18 -->
<g id="edge34" class="edge"><title>Node1&#45;&gt;Node18</title>
<path style="fill:none;stroke:midnightblue;" d="M824,-121C968,-119 1340,-109 1662,-76"/>
<polygon style="fill:midnightblue;stroke:midnightblue;" points="1662.4,-79.4778 1672,-75 1661.7,-72.5125 1662.4,-79.4778"/>
</g>
<!-- Node19 -->
<g id="node37" class="node"><title>Node19</title>
<polygon style="fill:white;stroke:#bfbfbf;" points="1796,-56 1796,-76 1900,-76 1900,-56 1796,-56"/>
<text text-anchor="middle" x="1848" y="-63" style="font-family:Arial;font-size:10.00;">ltr/utility/numerical.h</text>
</g>
<!-- Node1&#45;&gt;Node19 -->
<g id="edge36" class="edge"><title>Node1&#45;&gt;Node19</title>
<path style="fill:none;stroke:midnightblue;" d="M824,-120C1011,-114 1579,-96 1786,-76"/>
<polygon style="fill:midnightblue;stroke:midnightblue;" points="1786.4,-79.4778 1796,-75 1785.7,-72.5125 1786.4,-79.4778"/>
</g>
<!-- Node16 -->
<g id="node31" class="node"><title>Node16</title>
<polygon style="fill:white;stroke:#bfbfbf;" points="1552,-0 1552,-20 1595,-20 1595,-0 1552,-0"/>
<text text-anchor="middle" x="1573" y="-7" style="font-family:Arial;font-size:10.00;">cmath</text>
</g>
<!-- Node15&#45;&gt;Node16 -->
<g id="edge30" class="edge"><title>Node15&#45;&gt;Node16</title>
<path style="fill:none;stroke:midnightblue;" d="M1597,-56C1593,-49 1587,-38 1582,-29"/>
<polygon style="fill:midnightblue;stroke:midnightblue;" points="1585.26,-27.7166 1578,-20 1578.86,-30.5596 1585.26,-27.7166"/>
</g>
<!-- Node17 -->
<g id="node33" class="node"><title>Node17</title>
<polygon style="fill:white;stroke:#bfbfbf;" points="1612,-0 1612,-20 1651,-20 1651,-0 1612,-0"/>
<text text-anchor="middle" x="1631" y="-7" style="font-family:Arial;font-size:10.00;">limits</text>
</g>
<!-- Node15&#45;&gt;Node17 -->
<g id="edge32" class="edge"><title>Node15&#45;&gt;Node17</title>
<path style="fill:none;stroke:midnightblue;" d="M1607,-56C1611,-49 1617,-38 1622,-29"/>
<polygon style="fill:midnightblue;stroke:midnightblue;" points="1625.14,-30.5596 1626,-20 1618.74,-27.7166 1625.14,-30.5596"/>
</g>
</g>
</svg>
