<?xml version="1.0" encoding="UTF-8" standalone="no"?>
<!DOCTYPE svg PUBLIC "-//W3C//DTD SVG 1.0//EN"
 "http://www.w3.org/TR/2001/REC-SVG-20010904/DTD/svg10.dtd" [
 <!ATTLIST svg xmlns:xlink CDATA #FIXED "http://www.w3.org/1999/xlink">
]>
<!-- Generated by Graphviz version 2.20.2 (Tue Mar &#160;2 19:03:41 UTC 2010)
     For user: (jenkins)  -->
<!-- Title: G Pages: 1 -->
<svg width="1372pt" height="252pt"
 viewBox="0.00 0.00 1372.00 252.00" xmlns="http://www.w3.org/2000/svg" xmlns:xlink="http://www.w3.org/1999/xlink">
<g id="graph0" class="graph" transform="scale(1 1) rotate(0) translate(4 248)">
<title>G</title>
<polygon style="fill:white;stroke:white;" points="-4,4 -4,-248 1368,-248 1368,4 -4,4"/>
<!-- Node1 -->
<g id="node1" class="node"><title>Node1</title>
<polygon style="fill:#bfbfbf;stroke:black;" points="521,-224 521,-244 619,-244 619,-224 521,-224"/>
<text text-anchor="middle" x="570" y="-231" style="font-family:Arial;font-size:10.00;">ltr/metrics/metric.h</text>
</g>
<!-- Node2 -->
<g id="node3" class="node"><title>Node2</title>
<polygon style="fill:white;stroke:#bfbfbf;" points="633,-0 633,-20 673,-20 673,-0 633,-0"/>
<text text-anchor="middle" x="653" y="-7" style="font-family:Arial;font-size:10.00;">string</text>
</g>
<!-- Node1&#45;&gt;Node2 -->
<g id="edge2" class="edge"><title>Node1&#45;&gt;Node2</title>
<path style="fill:none;stroke:midnightblue;" d="M539,-224C521,-217 501,-205 490,-188 457,-138 438,-102 475,-56 515,-4 554,-36 623,-20"/>
<polygon style="fill:midnightblue;stroke:midnightblue;" points="624.427,-23.2259 633,-17 622.416,-16.5212 624.427,-23.2259"/>
</g>
<!-- Node3 -->
<g id="node5" class="node"><title>Node3</title>
<a xlink:href="object_8h.html" target="_top" xlink:title="ltr/data/object.h">
<polygon style="fill:white;stroke:black;" points="209,-112 209,-132 293,-132 293,-112 209,-112"/>
<text text-anchor="middle" x="251" y="-119" style="font-family:Arial;font-size:10.00;">ltr/data/object.h</text>
</a>
</g>
<!-- Node1&#45;&gt;Node3 -->
<g id="edge4" class="edge"><title>Node1&#45;&gt;Node3</title>
<path style="fill:none;stroke:midnightblue;" d="M521,-225C483,-217 428,-204 383,-188 345,-174 303,-152 277,-137"/>
<polygon style="fill:midnightblue;stroke:midnightblue;" points="278.441,-133.797 268,-132 275.042,-139.916 278.441,-133.797"/>
</g>
<!-- Node9 -->
<g id="node20" class="node"><title>Node9</title>
<a xlink:href="shared__ptr_8h.html" target="_top" xlink:title="ltr/utility/shared_ptr.h">
<polygon style="fill:white;stroke:black;" points="322,-56 322,-76 429,-76 429,-56 322,-56"/>
<text text-anchor="middle" x="375" y="-63" style="font-family:Arial;font-size:10.00;">ltr/utility/shared_ptr.h</text>
</a>
</g>
<!-- Node1&#45;&gt;Node9 -->
<g id="edge72" class="edge"><title>Node1&#45;&gt;Node9</title>
<path style="fill:none;stroke:midnightblue;" d="M521,-225C495,-218 464,-207 442,-188 409,-160 390,-112 381,-86"/>
<polygon style="fill:midnightblue;stroke:midnightblue;" points="384.226,-84.5725 378,-76 377.521,-86.584 384.226,-84.5725"/>
</g>
<!-- Node13 -->
<g id="node28" class="node"><title>Node13</title>
<a xlink:href="aliaser_8h.html" target="_top" xlink:title="ltr/interfaces/aliaser.h">
<polygon style="fill:white;stroke:black;" points="1014,-56 1014,-76 1122,-76 1122,-56 1014,-56"/>
<text text-anchor="middle" x="1068" y="-63" style="font-family:Arial;font-size:10.00;">ltr/interfaces/aliaser.h</text>
</a>
</g>
<!-- Node1&#45;&gt;Node13 -->
<g id="edge30" class="edge"><title>Node1&#45;&gt;Node13</title>
<path style="fill:none;stroke:midnightblue;" d="M600,-224C685,-195 932,-112 1028,-79"/>
<polygon style="fill:midnightblue;stroke:midnightblue;" points="1029.43,-82.2259 1038,-76 1027.42,-75.5212 1029.43,-82.2259"/>
</g>
<!-- Node14 -->
<g id="node31" class="node"><title>Node14</title>
<a xlink:href="parameterized_8h.html" target="_top" xlink:title="ltr/interfaces/parameterized.h">
<polygon style="fill:white;stroke:black;" points="499,-168 499,-188 641,-188 641,-168 499,-168"/>
<text text-anchor="middle" x="570" y="-175" style="font-family:Arial;font-size:10.00;">ltr/interfaces/parameterized.h</text>
</a>
</g>
<!-- Node1&#45;&gt;Node14 -->
<g id="edge34" class="edge"><title>Node1&#45;&gt;Node14</title>
<path style="fill:none;stroke:midnightblue;" d="M570,-224C570,-217 570,-207 570,-198"/>
<polygon style="fill:midnightblue;stroke:midnightblue;" points="573.5,-198 570,-188 566.5,-198 573.5,-198"/>
</g>
<!-- Node15 -->
<g id="node35" class="node"><title>Node15</title>
<a xlink:href="parameters__container_8h.html" target="_top" xlink:title="ltr/parameters_container/parameters_container.h">
<polygon style="fill:white;stroke:black;" points="598,-112 598,-132 823,-132 823,-112 598,-112"/>
<text text-anchor="middle" x="710" y="-119" style="font-family:Arial;font-size:10.00;">ltr/parameters_container/parameters_container.h</text>
</a>
</g>
<!-- Node1&#45;&gt;Node15 -->
<g id="edge74" class="edge"><title>Node1&#45;&gt;Node15</title>
<path style="fill:none;stroke:midnightblue;" d="M591,-224C608,-215 632,-202 650,-188 667,-174 684,-154 696,-140"/>
<polygon style="fill:midnightblue;stroke:midnightblue;" points="698.8,-142.1 702,-132 693.2,-137.9 698.8,-142.1"/>
</g>
<!-- Node20 -->
<g id="node49" class="node"><title>Node20</title>
<a xlink:href="serializable_8h.html" target="_top" xlink:title="ltr/interfaces/serializable.h">
<polygon style="fill:white;stroke:black;" points="1004,-112 1004,-132 1133,-132 1133,-112 1004,-112"/>
<text text-anchor="middle" x="1068" y="-119" style="font-family:Arial;font-size:10.00;">ltr/interfaces/serializable.h</text>
</a>
</g>
<!-- Node1&#45;&gt;Node20 -->
<g id="edge58" class="edge"><title>Node1&#45;&gt;Node20</title>
<path style="fill:none;stroke:midnightblue;" d="M619,-232C689,-229 820,-219 927,-188 969,-175 1014,-153 1042,-137"/>
<polygon style="fill:midnightblue;stroke:midnightblue;" points="1043.96,-139.916 1051,-132 1040.56,-133.797 1043.96,-139.916"/>
</g>
<!-- Node3&#45;&gt;Node2 -->
<g id="edge12" class="edge"><title>Node3&#45;&gt;Node2</title>
<path style="fill:none;stroke:midnightblue;" d="M257,-112C267,-97 287,-69 313,-56 434,5 486,-47 623,-19"/>
<polygon style="fill:midnightblue;stroke:midnightblue;" points="623.881,-22.3933 633,-17 622.508,-15.5292 623.881,-22.3933"/>
</g>
<!-- Node4 -->
<g id="node7" class="node"><title>Node4</title>
<polygon style="fill:white;stroke:#bfbfbf;" points="60,-56 60,-76 95,-76 95,-56 60,-56"/>
<text text-anchor="middle" x="77" y="-63" style="font-family:Arial;font-size:10.00;">map</text>
</g>
<!-- Node3&#45;&gt;Node4 -->
<g id="edge6" class="edge"><title>Node3&#45;&gt;Node4</title>
<path style="fill:none;stroke:midnightblue;" d="M220,-112C191,-103 147,-88 108,-76 107,-75 106,-75 104,-75"/>
<polygon style="fill:midnightblue;stroke:midnightblue;" points="105.56,-71.8631 95,-71 102.717,-78.2598 105.56,-71.8631"/>
</g>
<!-- Node5 -->
<g id="node9" class="node"><title>Node5</title>
<polygon style="fill:white;stroke:#bfbfbf;" points="118,-0 118,-20 169,-20 169,-0 118,-0"/>
<text text-anchor="middle" x="143" y="-7" style="font-family:Arial;font-size:10.00;">ostream</text>
</g>
<!-- Node3&#45;&gt;Node5 -->
<g id="edge8" class="edge"><title>Node3&#45;&gt;Node5</title>
<path style="fill:none;stroke:midnightblue;" d="M209,-116C185,-110 156,-99 141,-76 132,-62 134,-44 137,-30"/>
<polygon style="fill:midnightblue;stroke:midnightblue;" points="140.471,-30.4922 139,-20 133.607,-29.1194 140.471,-30.4922"/>
</g>
<!-- Node6 -->
<g id="node11" class="node"><title>Node6</title>
<polygon style="fill:white;stroke:#bfbfbf;" points="484,-56 484,-76 543,-76 543,-56 484,-56"/>
<text text-anchor="middle" x="513" y="-63" style="font-family:Arial;font-size:10.00;">stdexcept</text>
</g>
<!-- Node3&#45;&gt;Node6 -->
<g id="edge10" class="edge"><title>Node3&#45;&gt;Node6</title>
<path style="fill:none;stroke:midnightblue;" d="M293,-113C342,-102 426,-85 474,-74"/>
<polygon style="fill:midnightblue;stroke:midnightblue;" points="474.881,-77.3933 484,-72 473.508,-70.5292 474.881,-77.3933"/>
</g>
<!-- Node7 -->
<g id="node14" class="node"><title>Node7</title>
<polygon style="fill:white;stroke:#bfbfbf;" points="0,-56 0,-76 42,-76 42,-56 0,-56"/>
<text text-anchor="middle" x="21" y="-63" style="font-family:Arial;font-size:10.00;">vector</text>
</g>
<!-- Node3&#45;&gt;Node7 -->
<g id="edge14" class="edge"><title>Node3&#45;&gt;Node7</title>
<path style="fill:none;stroke:midnightblue;" d="M209,-113C170,-105 112,-92 52,-76"/>
<polygon style="fill:midnightblue;stroke:midnightblue;" points="52.584,-72.5212 42,-73 50.5725,-79.2259 52.584,-72.5212"/>
</g>
<!-- Node8 -->
<g id="node16" class="node"><title>Node8</title>
<a xlink:href="printable_8h.html" target="_top" xlink:title="ltr/interfaces/printable.h">
<polygon style="fill:white;stroke:black;" points="150,-56 150,-76 267,-76 267,-56 150,-56"/>
<text text-anchor="middle" x="208" y="-63" style="font-family:Arial;font-size:10.00;">ltr/interfaces/printable.h</text>
</a>
</g>
<!-- Node3&#45;&gt;Node8 -->
<g id="edge16" class="edge"><title>Node3&#45;&gt;Node8</title>
<path style="fill:none;stroke:midnightblue;" d="M243,-112C237,-104 229,-94 222,-84"/>
<polygon style="fill:midnightblue;stroke:midnightblue;" points="224.8,-81.9 216,-76 219.2,-86.1 224.8,-81.9"/>
</g>
<!-- Node3&#45;&gt;Node9 -->
<g id="edge22" class="edge"><title>Node3&#45;&gt;Node9</title>
<path style="fill:none;stroke:midnightblue;" d="M273,-112C293,-103 321,-90 344,-80"/>
<polygon style="fill:midnightblue;stroke:midnightblue;" points="345.283,-83.2598 353,-76 342.44,-76.8631 345.283,-83.2598"/>
</g>
<!-- Node8&#45;&gt;Node2 -->
<g id="edge20" class="edge"><title>Node8&#45;&gt;Node2</title>
<path style="fill:none;stroke:midnightblue;" d="M267,-57C272,-57 276,-56 280,-56 429,-37 471,-52 623,-20"/>
<polygon style="fill:midnightblue;stroke:midnightblue;" points="623.881,-23.3933 633,-18 622.508,-16.5292 623.881,-23.3933"/>
</g>
<!-- Node8&#45;&gt;Node5 -->
<g id="edge18" class="edge"><title>Node8&#45;&gt;Node5</title>
<path style="fill:none;stroke:midnightblue;" d="M196,-56C187,-48 174,-37 163,-27"/>
<polygon style="fill:midnightblue;stroke:midnightblue;" points="164.831,-23.9511 155,-20 160.221,-29.2191 164.831,-23.9511"/>
</g>
<!-- Node10 -->
<g id="node22" class="node"><title>Node10</title>
<polygon style="fill:white;stroke:#bfbfbf;" points="227,-0 227,-20 283,-20 283,-0 227,-0"/>
<text text-anchor="middle" x="255" y="-7" style="font-family:Arial;font-size:10.00;">algorithm</text>
</g>
<!-- Node9&#45;&gt;Node10 -->
<g id="edge24" class="edge"><title>Node9&#45;&gt;Node10</title>
<path style="fill:none;stroke:midnightblue;" d="M354,-56C335,-47 308,-34 286,-24"/>
<polygon style="fill:midnightblue;stroke:midnightblue;" points="287.56,-20.8631 277,-20 284.717,-27.2598 287.56,-20.8631"/>
</g>
<!-- Node11 -->
<g id="node24" class="node"><title>Node11</title>
<polygon style="fill:white;stroke:#bfbfbf;" points="301,-0 301,-20 408,-20 408,-0 301,-0"/>
<text text-anchor="middle" x="354" y="-7" style="font-family:Arial;font-size:10.00;">boost/shared_ptr.hpp</text>
</g>
<!-- Node9&#45;&gt;Node11 -->
<g id="edge26" class="edge"><title>Node9&#45;&gt;Node11</title>
<path style="fill:none;stroke:midnightblue;" d="M371,-56C368,-49 365,-39 361,-29"/>
<polygon style="fill:midnightblue;stroke:midnightblue;" points="364.483,-28.38 358,-20 357.842,-30.5937 364.483,-28.38"/>
</g>
<!-- Node12 -->
<g id="node26" class="node"><title>Node12</title>
<polygon style="fill:white;stroke:#bfbfbf;" points="425,-0 425,-20 616,-20 616,-0 425,-0"/>
<text text-anchor="middle" x="520" y="-7" style="font-family:Arial;font-size:10.00;">boost/smart_ptr/detail/operator_bool.hpp</text>
</g>
<!-- Node9&#45;&gt;Node12 -->
<g id="edge28" class="edge"><title>Node9&#45;&gt;Node12</title>
<path style="fill:none;stroke:midnightblue;" d="M401,-56C424,-47 459,-34 485,-24"/>
<polygon style="fill:midnightblue;stroke:midnightblue;" points="486.283,-27.2598 494,-20 483.44,-20.8631 486.283,-27.2598"/>
</g>
<!-- Node13&#45;&gt;Node2 -->
<g id="edge32" class="edge"><title>Node13&#45;&gt;Node2</title>
<path style="fill:none;stroke:midnightblue;" d="M1014,-57C1011,-57 1008,-56 1005,-56 885,-38 744,-21 683,-13"/>
<polygon style="fill:midnightblue;stroke:midnightblue;" points="683.299,-9.5125 673,-12 682.602,-16.4778 683.299,-9.5125"/>
</g>
<!-- Node14&#45;&gt;Node2 -->
<g id="edge38" class="edge"><title>Node14&#45;&gt;Node2</title>
<path style="fill:none;stroke:midnightblue;" d="M569,-168C567,-146 566,-92 589,-56 597,-42 611,-32 624,-24"/>
<polygon style="fill:midnightblue;stroke:midnightblue;" points="625.958,-26.916 633,-19 622.559,-20.7969 625.958,-26.916"/>
</g>
<!-- Node14&#45;&gt;Node6 -->
<g id="edge36" class="edge"><title>Node14&#45;&gt;Node6</title>
<path style="fill:none;stroke:midnightblue;" d="M565,-168C555,-149 535,-109 523,-85"/>
<polygon style="fill:midnightblue;stroke:midnightblue;" points="525.916,-83.0418 518,-76 519.797,-86.4414 525.916,-83.0418"/>
</g>
<!-- Node14&#45;&gt;Node15 -->
<g id="edge40" class="edge"><title>Node14&#45;&gt;Node15</title>
<path style="fill:none;stroke:midnightblue;" d="M595,-168C617,-159 650,-146 675,-136"/>
<polygon style="fill:midnightblue;stroke:midnightblue;" points="677.015,-138.964 685,-132 674.415,-132.464 677.015,-138.964"/>
</g>
<!-- Node15&#45;&gt;Node2 -->
<g id="edge48" class="edge"><title>Node15&#45;&gt;Node2</title>
<path style="fill:none;stroke:midnightblue;" d="M764,-112C804,-102 850,-84 829,-56 811,-33 729,-19 683,-13"/>
<polygon style="fill:midnightblue;stroke:midnightblue;" points="683.299,-9.5125 673,-12 682.602,-16.4778 683.299,-9.5125"/>
</g>
<!-- Node15&#45;&gt;Node6 -->
<g id="edge46" class="edge"><title>Node15&#45;&gt;Node6</title>
<path style="fill:none;stroke:midnightblue;" d="M675,-112C640,-102 588,-88 553,-78"/>
<polygon style="fill:midnightblue;stroke:midnightblue;" points="553.584,-74.5212 543,-75 551.573,-81.2259 553.584,-74.5212"/>
</g>
<!-- Node15&#45;&gt;Node8 -->
<g id="edge56" class="edge"><title>Node15&#45;&gt;Node8</title>
<path style="fill:none;stroke:midnightblue;" d="M620,-112C522,-101 366,-83 277,-74"/>
<polygon style="fill:midnightblue;stroke:midnightblue;" points="277.299,-70.5125 267,-73 276.602,-77.4778 277.299,-70.5125"/>
</g>
<!-- Node15&#45;&gt;Node9 -->
<g id="edge54" class="edge"><title>Node15&#45;&gt;Node9</title>
<path style="fill:none;stroke:midnightblue;" d="M650,-112C590,-103 500,-87 439,-77"/>
<polygon style="fill:midnightblue;stroke:midnightblue;" points="439.492,-73.5292 429,-75 438.119,-80.3933 439.492,-73.5292"/>
</g>
<!-- Node16 -->
<g id="node37" class="node"><title>Node16</title>
<polygon style="fill:white;stroke:#bfbfbf;" points="922,-56 922,-76 996,-76 996,-56 922,-56"/>
<text text-anchor="middle" x="959" y="-63" style="font-family:Arial;font-size:10.00;">logog/logog.h</text>
</g>
<!-- Node15&#45;&gt;Node16 -->
<g id="edge42" class="edge"><title>Node15&#45;&gt;Node16</title>
<path style="fill:none;stroke:midnightblue;" d="M755,-112C799,-102 867,-86 912,-76"/>
<polygon style="fill:midnightblue;stroke:midnightblue;" points="912.881,-79.3933 922,-74 911.508,-72.5292 912.881,-79.3933"/>
</g>
<!-- Node17 -->
<g id="node39" class="node"><title>Node17</title>
<polygon style="fill:white;stroke:#bfbfbf;" points="876,-56 876,-76 905,-76 905,-56 876,-56"/>
<text text-anchor="middle" x="890" y="-63" style="font-family:Arial;font-size:10.00;">list</text>
</g>
<!-- Node15&#45;&gt;Node17 -->
<g id="edge44" class="edge"><title>Node15&#45;&gt;Node17</title>
<path style="fill:none;stroke:midnightblue;" d="M745,-112C775,-103 821,-89 862,-76 863,-75 865,-75 866,-74"/>
<polygon style="fill:midnightblue;stroke:midnightblue;" points="867.427,-77.2259 876,-71 865.416,-70.5212 867.427,-77.2259"/>
</g>
<!-- Node18 -->
<g id="node43" class="node"><title>Node18</title>
<polygon style="fill:white;stroke:#bfbfbf;" points="598,-56 598,-76 675,-76 675,-56 598,-56"/>
<text text-anchor="middle" x="636" y="-63" style="font-family:Arial;font-size:10.00;">boost/any.hpp</text>
</g>
<!-- Node15&#45;&gt;Node18 -->
<g id="edge50" class="edge"><title>Node15&#45;&gt;Node18</title>
<path style="fill:none;stroke:midnightblue;" d="M697,-112C686,-104 670,-92 658,-83"/>
<polygon style="fill:midnightblue;stroke:midnightblue;" points="659.831,-79.9511 650,-76 655.221,-85.2191 659.831,-79.9511"/>
</g>
<!-- Node19 -->
<g id="node45" class="node"><title>Node19</title>
<polygon style="fill:white;stroke:#bfbfbf;" points="692,-56 692,-76 821,-76 821,-56 692,-56"/>
<text text-anchor="middle" x="756" y="-63" style="font-family:Arial;font-size:10.00;">boost/unordered_map.hpp</text>
</g>
<!-- Node15&#45;&gt;Node19 -->
<g id="edge52" class="edge"><title>Node15&#45;&gt;Node19</title>
<path style="fill:none;stroke:midnightblue;" d="M718,-112C724,-104 733,-94 741,-84"/>
<polygon style="fill:midnightblue;stroke:midnightblue;" points="743.8,-86.1 747,-76 738.2,-81.9 743.8,-86.1"/>
</g>
<!-- Node20&#45;&gt;Node2 -->
<g id="edge64" class="edge"><title>Node20&#45;&gt;Node2</title>
<path style="fill:none;stroke:midnightblue;" d="M1090,-112C1114,-99 1149,-76 1131,-56 1101,-22 784,-13 683,-10"/>
<polygon style="fill:midnightblue;stroke:midnightblue;" points="683,-6.5001 673,-10 683,-13.5001 683,-6.5001"/>
</g>
<!-- Node20&#45;&gt;Node9 -->
<g id="edge68" class="edge"><title>Node20&#45;&gt;Node9</title>
<path style="fill:none;stroke:midnightblue;" d="M1004,-117C895,-110 667,-93 475,-76 463,-75 451,-74 439,-73"/>
<polygon style="fill:midnightblue;stroke:midnightblue;" points="439.299,-69.5125 429,-72 438.602,-76.4778 439.299,-69.5125"/>
</g>
<!-- Node20&#45;&gt;Node13 -->
<g id="edge70" class="edge"><title>Node20&#45;&gt;Node13</title>
<path style="fill:none;stroke:midnightblue;" d="M1068,-112C1068,-105 1068,-95 1068,-86"/>
<polygon style="fill:midnightblue;stroke:midnightblue;" points="1071.5,-86 1068,-76 1064.5,-86 1071.5,-86"/>
</g>
<!-- Node20&#45;&gt;Node16 -->
<g id="edge62" class="edge"><title>Node20&#45;&gt;Node16</title>
<path style="fill:none;stroke:midnightblue;" d="M1049,-112C1032,-103 1007,-90 988,-81"/>
<polygon style="fill:midnightblue;stroke:midnightblue;" points="989.441,-77.7969 979,-76 986.042,-83.916 989.441,-77.7969"/>
</g>
<!-- Node21 -->
<g id="node51" class="node"><title>Node21</title>
<polygon style="fill:white;stroke:#bfbfbf;" points="1178,-56 1178,-76 1292,-76 1292,-56 1178,-56"/>
<text text-anchor="middle" x="1235" y="-63" style="font-family:Arial;font-size:10.00;">boost/lexical_cast.hpp</text>
</g>
<!-- Node20&#45;&gt;Node21 -->
<g id="edge60" class="edge"><title>Node20&#45;&gt;Node21</title>
<path style="fill:none;stroke:midnightblue;" d="M1098,-112C1125,-103 1166,-89 1195,-79"/>
<polygon style="fill:midnightblue;stroke:midnightblue;" points="1196.43,-82.2259 1205,-76 1194.42,-75.5212 1196.43,-82.2259"/>
</g>
<!-- Node22 -->
<g id="node55" class="node"><title>Node22</title>
<polygon style="fill:white;stroke:#bfbfbf;" points="1310,-56 1310,-76 1364,-76 1364,-56 1310,-56"/>
<text text-anchor="middle" x="1337" y="-63" style="font-family:Arial;font-size:10.00;">iostream</text>
</g>
<!-- Node20&#45;&gt;Node22 -->
<g id="edge66" class="edge"><title>Node20&#45;&gt;Node22</title>
<path style="fill:none;stroke:midnightblue;" d="M1125,-112C1170,-103 1234,-91 1300,-76"/>
<polygon style="fill:midnightblue;stroke:midnightblue;" points="1300.88,-79.3933 1310,-74 1299.51,-72.5292 1300.88,-79.3933"/>
</g>
</g>
</svg>
