<?xml version="1.0" encoding="UTF-8" standalone="no"?>
<!DOCTYPE svg PUBLIC "-//W3C//DTD SVG 1.0//EN"
 "http://www.w3.org/TR/2001/REC-SVG-20010904/DTD/svg10.dtd" [
 <!ATTLIST svg xmlns:xlink CDATA #FIXED "http://www.w3.org/1999/xlink">
]>
<!-- Generated by Graphviz version 2.20.2 (Tue Mar &#160;2 19:03:41 UTC 2010)
     For user: (jenkins)  -->
<!-- Title: G Pages: 1 -->
<svg width="2055pt" height="476pt"
 viewBox="0.00 0.00 2055.00 476.00" xmlns="http://www.w3.org/2000/svg" xmlns:xlink="http://www.w3.org/1999/xlink">
<g id="graph0" class="graph" transform="scale(1 1) rotate(0) translate(4 472)">
<title>G</title>
<polygon style="fill:white;stroke:white;" points="-4,4 -4,-472 2051,-472 2051,4 -4,4"/>
<!-- Node1 -->
<g id="node1" class="node"><title>Node1</title>
<polygon style="fill:#bfbfbf;stroke:black;" points="858,-448 858,-468 1211,-468 1211,-448 858,-448"/>
<text text-anchor="middle" x="1034" y="-455" style="font-family:Arial;font-size:10.00;">ltr/learners/decision_tree/leaf_generator/most_common_label_leaf_generator.h</text>
</g>
<!-- Node2 -->
<g id="node3" class="node"><title>Node2</title>
<a xlink:href="data__set_8h.html" target="_top" xlink:title="ltr/data/data_set.h">
<polygon style="fill:white;stroke:black;" points="1408,-280 1408,-300 1503,-300 1503,-280 1408,-280"/>
<text text-anchor="middle" x="1455" y="-287" style="font-family:Arial;font-size:10.00;">ltr/data/data_set.h</text>
</a>
</g>
<!-- Node1&#45;&gt;Node2 -->
<g id="edge2" class="edge"><title>Node1&#45;&gt;Node2</title>
<path style="fill:none;stroke:midnightblue;" d="M1066,-448C1094,-439 1136,-426 1172,-412 1264,-376 1372,-328 1424,-304"/>
<polygon style="fill:midnightblue;stroke:midnightblue;" points="1425.28,-307.26 1433,-300 1422.44,-300.863 1425.28,-307.26"/>
</g>
<!-- Node11 -->
<g id="node26" class="node"><title>Node11</title>
<a xlink:href="shared__ptr_8h.html" target="_top" xlink:title="ltr/utility/shared_ptr.h">
<polygon style="fill:white;stroke:black;" points="169,-56 169,-76 276,-76 276,-56 169,-56"/>
<text text-anchor="middle" x="222" y="-63" style="font-family:Arial;font-size:10.00;">ltr/utility/shared_ptr.h</text>
</a>
</g>
<!-- Node1&#45;&gt;Node11 -->
<g id="edge204" class="edge"><title>Node1&#45;&gt;Node11</title>
<path style="fill:none;stroke:midnightblue;" d="M866,-448C577,-430 14,-388 14,-346 14,-346 14,-346 14,-178 14,-112 97,-84 159,-74"/>
<polygon style="fill:midnightblue;stroke:midnightblue;" points="159.881,-77.3933 169,-72 158.508,-70.5292 159.881,-77.3933"/>
</g>
<!-- Node26 -->
<g id="node84" class="node"><title>Node26</title>
<a xlink:href="data__set__statistics_8h.html" target="_top" xlink:title="ltr/data/utility/data_set_statistics.h">
<polygon style="fill:white;stroke:black;" points="1521,-392 1521,-412 1687,-412 1687,-392 1521,-392"/>
<text text-anchor="middle" x="1604" y="-399" style="font-family:Arial;font-size:10.00;">ltr/data/utility/data_set_statistics.h</text>
</a>
</g>
<!-- Node1&#45;&gt;Node26 -->
<g id="edge116" class="edge"><title>Node1&#45;&gt;Node26</title>
<path style="fill:none;stroke:midnightblue;" d="M1136,-448C1242,-437 1408,-421 1511,-411"/>
<polygon style="fill:midnightblue;stroke:midnightblue;" points="1511.4,-414.478 1521,-410 1510.7,-407.512 1511.4,-414.478"/>
</g>
<!-- Node32 -->
<g id="node102" class="node"><title>Node32</title>
<a xlink:href="leaf__vertex_8h.html" target="_top" xlink:title="ltr/learners/decision_tree/vertex/leaf_vertex.h">
<polygon style="fill:white;stroke:black;" points="773,-336 773,-356 981,-356 981,-336 773,-336"/>
<text text-anchor="middle" x="877" y="-343" style="font-family:Arial;font-size:10.00;">ltr/learners/decision_tree/vertex/leaf_vertex.h</text>
</a>
</g>
<!-- Node1&#45;&gt;Node32 -->
<g id="edge140" class="edge"><title>Node1&#45;&gt;Node32</title>
<path style="fill:none;stroke:midnightblue;" d="M990,-448C955,-439 909,-426 896,-412 884,-399 879,-381 878,-366"/>
<polygon style="fill:midnightblue;stroke:midnightblue;" points="881.478,-365.602 877,-356 874.512,-366.299 881.478,-365.602"/>
</g>
<!-- Node40 -->
<g id="node138" class="node"><title>Node40</title>
<a xlink:href="leaf__generator_8h.html" target="_top" xlink:title="ltr/learners/decision_tree/leaf_generator/leaf_generator.h">
<polygon style="fill:white;stroke:black;" points="905,-392 905,-412 1163,-412 1163,-392 905,-392"/>
<text text-anchor="middle" x="1034" y="-399" style="font-family:Arial;font-size:10.00;">ltr/learners/decision_tree/leaf_generator/leaf_generator.h</text>
</a>
</g>
<!-- Node1&#45;&gt;Node40 -->
<g id="edge196" class="edge"><title>Node1&#45;&gt;Node40</title>
<path style="fill:none;stroke:midnightblue;" d="M1034,-448C1034,-441 1034,-431 1034,-422"/>
<polygon style="fill:midnightblue;stroke:midnightblue;" points="1037.5,-422 1034,-412 1030.5,-422 1037.5,-422"/>
</g>
<!-- Node3 -->
<g id="node5" class="node"><title>Node3</title>
<polygon style="fill:white;stroke:#bfbfbf;" points="1739,-224 1739,-244 1790,-244 1790,-224 1739,-224"/>
<text text-anchor="middle" x="1764" y="-231" style="font-family:Arial;font-size:10.00;">sstream</text>
</g>
<!-- Node2&#45;&gt;Node3 -->
<g id="edge4" class="edge"><title>Node2&#45;&gt;Node3</title>
<path style="fill:none;stroke:midnightblue;" d="M1503,-283C1557,-275 1647,-260 1725,-244 1726,-244 1728,-243 1729,-243"/>
<polygon style="fill:midnightblue;stroke:midnightblue;" points="1729.88,-246.393 1739,-241 1728.51,-239.529 1729.88,-246.393"/>
</g>
<!-- Node4 -->
<g id="node7" class="node"><title>Node4</title>
<polygon style="fill:white;stroke:#bfbfbf;" points="1343,-56 1343,-76 1402,-76 1402,-56 1343,-56"/>
<text text-anchor="middle" x="1372" y="-63" style="font-family:Arial;font-size:10.00;">stdexcept</text>
</g>
<!-- Node2&#45;&gt;Node4 -->
<g id="edge6" class="edge"><title>Node2&#45;&gt;Node4</title>
<path style="fill:none;stroke:midnightblue;" d="M1441,-280C1420,-263 1381,-228 1366,-188 1353,-154 1360,-111 1366,-86"/>
<polygon style="fill:midnightblue;stroke:midnightblue;" points="1369.48,-86.584 1369,-76 1362.77,-84.5725 1369.48,-86.584"/>
</g>
<!-- Node5 -->
<g id="node9" class="node"><title>Node5</title>
<polygon style="fill:white;stroke:#bfbfbf;" points="914,-0 914,-20 954,-20 954,-0 914,-0"/>
<text text-anchor="middle" x="934" y="-7" style="font-family:Arial;font-size:10.00;">string</text>
</g>
<!-- Node2&#45;&gt;Node5 -->
<g id="edge8" class="edge"><title>Node2&#45;&gt;Node5</title>
<path style="fill:none;stroke:midnightblue;" d="M1408,-285C1276,-271 915,-228 915,-178 915,-178 915,-178 915,-122 915,-89 923,-52 929,-30"/>
<polygon style="fill:midnightblue;stroke:midnightblue;" points="932.471,-30.4922 931,-20 925.607,-29.1194 932.471,-30.4922"/>
</g>
<!-- Node6 -->
<g id="node11" class="node"><title>Node6</title>
<polygon style="fill:white;stroke:#bfbfbf;" points="1865,-56 1865,-76 1907,-76 1907,-56 1865,-56"/>
<text text-anchor="middle" x="1886" y="-63" style="font-family:Arial;font-size:10.00;">vector</text>
</g>
<!-- Node2&#45;&gt;Node6 -->
<g id="edge10" class="edge"><title>Node2&#45;&gt;Node6</title>
<path style="fill:none;stroke:midnightblue;" d="M1503,-287C1585,-281 1746,-268 1798,-244 1864,-212 1889,-199 1919,-132 1926,-115 1916,-97 1905,-84"/>
<polygon style="fill:midnightblue;stroke:midnightblue;" points="1907.22,-81.221 1898,-76 1901.95,-85.8306 1907.22,-81.221"/>
</g>
<!-- Node7 -->
<g id="node13" class="node"><title>Node7</title>
<a xlink:href="object_8h.html" target="_top" xlink:title="ltr/data/object.h">
<polygon style="fill:white;stroke:black;" points="1527,-112 1527,-132 1611,-132 1611,-112 1527,-112"/>
<text text-anchor="middle" x="1569" y="-119" style="font-family:Arial;font-size:10.00;">ltr/data/object.h</text>
</a>
</g>
<!-- Node2&#45;&gt;Node7 -->
<g id="edge12" class="edge"><title>Node2&#45;&gt;Node7</title>
<path style="fill:none;stroke:midnightblue;" d="M1503,-282C1533,-276 1572,-264 1602,-244 1628,-226 1635,-217 1646,-188 1648,-179 1650,-175 1646,-168 1638,-154 1624,-143 1609,-136"/>
<polygon style="fill:midnightblue;stroke:midnightblue;" points="1610.56,-132.863 1600,-132 1607.72,-139.26 1610.56,-132.863"/>
</g>
<!-- Node15 -->
<g id="node34" class="node"><title>Node15</title>
<a xlink:href="object__list_8h.html" target="_top" xlink:title="ltr/data/object_list.h">
<polygon style="fill:white;stroke:black;" points="1375,-168 1375,-188 1477,-188 1477,-168 1375,-168"/>
<text text-anchor="middle" x="1426" y="-175" style="font-family:Arial;font-size:10.00;">ltr/data/object_list.h</text>
</a>
</g>
<!-- Node2&#45;&gt;Node15 -->
<g id="edge38" class="edge"><title>Node2&#45;&gt;Node15</title>
<path style="fill:none;stroke:midnightblue;" d="M1445,-280C1437,-271 1427,-257 1423,-244 1418,-229 1419,-211 1421,-198"/>
<polygon style="fill:midnightblue;stroke:midnightblue;" points="1424.47,-198.492 1423,-188 1417.61,-197.119 1424.47,-198.492"/>
</g>
<!-- Node16 -->
<g id="node42" class="node"><title>Node16</title>
<a xlink:href="object__pair_8h.html" target="_top" xlink:title="ltr/data/object_pair.h">
<polygon style="fill:white;stroke:black;" points="1533,-168 1533,-188 1637,-188 1637,-168 1533,-168"/>
<text text-anchor="middle" x="1585" y="-175" style="font-family:Arial;font-size:10.00;">ltr/data/object_pair.h</text>
</a>
</g>
<!-- Node2&#45;&gt;Node16 -->
<g id="edge52" class="edge"><title>Node2&#45;&gt;Node16</title>
<path style="fill:none;stroke:midnightblue;" d="M1500,-280C1534,-271 1577,-258 1587,-244 1596,-230 1594,-212 1591,-198"/>
<polygon style="fill:midnightblue;stroke:midnightblue;" points="1594.39,-197.119 1589,-188 1587.53,-198.492 1594.39,-197.119"/>
</g>
<!-- Node17 -->
<g id="node50" class="node"><title>Node17</title>
<a xlink:href="feature__info_8h.html" target="_top" xlink:title="ltr/data/feature_info.h">
<polygon style="fill:white;stroke:black;" points="1204,-224 1204,-244 1311,-244 1311,-224 1204,-224"/>
<text text-anchor="middle" x="1257" y="-231" style="font-family:Arial;font-size:10.00;">ltr/data/feature_info.h</text>
</a>
</g>
<!-- Node2&#45;&gt;Node17 -->
<g id="edge66" class="edge"><title>Node2&#45;&gt;Node17</title>
<path style="fill:none;stroke:midnightblue;" d="M1420,-280C1387,-271 1338,-257 1303,-247"/>
<polygon style="fill:midnightblue;stroke:midnightblue;" points="1303.58,-243.521 1293,-244 1301.57,-250.226 1303.58,-243.521"/>
</g>
<!-- Node24 -->
<g id="node74" class="node"><title>Node24</title>
<a xlink:href="per__object__accessor_8h.html" target="_top" xlink:title="ltr/data/per_object_accessor.h">
<polygon style="fill:white;stroke:black;" points="1432,-224 1432,-244 1579,-244 1579,-224 1432,-224"/>
<text text-anchor="middle" x="1505" y="-231" style="font-family:Arial;font-size:10.00;">ltr/data/per_object_accessor.h</text>
</a>
</g>
<!-- Node2&#45;&gt;Node24 -->
<g id="edge100" class="edge"><title>Node2&#45;&gt;Node24</title>
<path style="fill:none;stroke:midnightblue;" d="M1464,-280C1471,-272 1481,-261 1489,-252"/>
<polygon style="fill:midnightblue;stroke:midnightblue;" points="1492.05,-253.831 1496,-244 1486.78,-249.221 1492.05,-253.831"/>
</g>
<!-- Node25 -->
<g id="node81" class="node"><title>Node25</title>
<a xlink:href="aliaser_8h.html" target="_top" xlink:title="ltr/interfaces/aliaser.h">
<polygon style="fill:white;stroke:black;" points="611,-56 611,-76 719,-76 719,-56 611,-56"/>
<text text-anchor="middle" x="665" y="-63" style="font-family:Arial;font-size:10.00;">ltr/interfaces/aliaser.h</text>
</a>
</g>
<!-- Node2&#45;&gt;Node25 -->
<g id="edge112" class="edge"><title>Node2&#45;&gt;Node25</title>
<path style="fill:none;stroke:midnightblue;" d="M1408,-289C1291,-287 993,-279 901,-244 806,-208 717,-121 681,-84"/>
<polygon style="fill:midnightblue;stroke:midnightblue;" points="683.219,-81.221 674,-76 677.951,-85.8306 683.219,-81.221"/>
</g>
<!-- Node7&#45;&gt;Node4 -->
<g id="edge18" class="edge"><title>Node7&#45;&gt;Node4</title>
<path style="fill:none;stroke:midnightblue;" d="M1534,-112C1499,-102 1447,-88 1412,-78"/>
<polygon style="fill:midnightblue;stroke:midnightblue;" points="1412.58,-74.5212 1402,-75 1410.57,-81.2259 1412.58,-74.5212"/>
</g>
<!-- Node7&#45;&gt;Node5 -->
<g id="edge20" class="edge"><title>Node7&#45;&gt;Node5</title>
<path style="fill:none;stroke:midnightblue;" d="M1575,-112C1584,-97 1596,-71 1582,-56 1561,-33 1089,-15 964,-11"/>
<polygon style="fill:midnightblue;stroke:midnightblue;" points="964,-7.5001 954,-11 964,-14.5001 964,-7.5001"/>
</g>
<!-- Node7&#45;&gt;Node6 -->
<g id="edge22" class="edge"><title>Node7&#45;&gt;Node6</title>
<path style="fill:none;stroke:midnightblue;" d="M1611,-115C1675,-103 1798,-82 1855,-72"/>
<polygon style="fill:midnightblue;stroke:midnightblue;" points="1855.88,-75.3933 1865,-70 1854.51,-68.5292 1855.88,-75.3933"/>
</g>
<!-- Node8 -->
<g id="node15" class="node"><title>Node8</title>
<polygon style="fill:white;stroke:#bfbfbf;" points="1774,-56 1774,-76 1809,-76 1809,-56 1774,-56"/>
<text text-anchor="middle" x="1791" y="-63" style="font-family:Arial;font-size:10.00;">map</text>
</g>
<!-- Node7&#45;&gt;Node8 -->
<g id="edge14" class="edge"><title>Node7&#45;&gt;Node8</title>
<path style="fill:none;stroke:midnightblue;" d="M1609,-112C1654,-101 1725,-83 1764,-73"/>
<polygon style="fill:midnightblue;stroke:midnightblue;" points="1765.43,-76.2259 1774,-70 1763.42,-69.5212 1765.43,-76.2259"/>
</g>
<!-- Node9 -->
<g id="node17" class="node"><title>Node9</title>
<polygon style="fill:white;stroke:#bfbfbf;" points="1590,-0 1590,-20 1641,-20 1641,-0 1590,-0"/>
<text text-anchor="middle" x="1615" y="-7" style="font-family:Arial;font-size:10.00;">ostream</text>
</g>
<!-- Node7&#45;&gt;Node9 -->
<g id="edge16" class="edge"><title>Node7&#45;&gt;Node9</title>
<path style="fill:none;stroke:midnightblue;" d="M1584,-112C1595,-103 1608,-91 1615,-76 1620,-61 1620,-43 1619,-30"/>
<polygon style="fill:midnightblue;stroke:midnightblue;" points="1622.39,-29.1194 1617,-20 1615.53,-30.4922 1622.39,-29.1194"/>
</g>
<!-- Node10 -->
<g id="node22" class="node"><title>Node10</title>
<a xlink:href="printable_8h.html" target="_top" xlink:title="ltr/interfaces/printable.h">
<polygon style="fill:white;stroke:black;" points="1457,-56 1457,-76 1574,-76 1574,-56 1457,-56"/>
<text text-anchor="middle" x="1515" y="-63" style="font-family:Arial;font-size:10.00;">ltr/interfaces/printable.h</text>
</a>
</g>
<!-- Node7&#45;&gt;Node10 -->
<g id="edge24" class="edge"><title>Node7&#45;&gt;Node10</title>
<path style="fill:none;stroke:midnightblue;" d="M1559,-112C1552,-104 1541,-93 1532,-83"/>
<polygon style="fill:midnightblue;stroke:midnightblue;" points="1534.55,-80.5962 1525,-76 1529.6,-85.546 1534.55,-80.5962"/>
</g>
<!-- Node7&#45;&gt;Node11 -->
<g id="edge30" class="edge"><title>Node7&#45;&gt;Node11</title>
<path style="fill:none;stroke:midnightblue;" d="M1527,-121C1337,-115 564,-92 322,-76 310,-75 298,-74 286,-73"/>
<polygon style="fill:midnightblue;stroke:midnightblue;" points="286.299,-69.5125 276,-72 285.602,-76.4778 286.299,-69.5125"/>
</g>
<!-- Node10&#45;&gt;Node5 -->
<g id="edge28" class="edge"><title>Node10&#45;&gt;Node5</title>
<path style="fill:none;stroke:midnightblue;" d="M1457,-57C1452,-57 1448,-56 1443,-56 1262,-35 1044,-19 964,-12"/>
<polygon style="fill:midnightblue;stroke:midnightblue;" points="964.299,-8.5125 954,-11 963.602,-15.4778 964.299,-8.5125"/>
</g>
<!-- Node10&#45;&gt;Node9 -->
<g id="edge26" class="edge"><title>Node10&#45;&gt;Node9</title>
<path style="fill:none;stroke:midnightblue;" d="M1533,-56C1548,-48 1570,-35 1588,-25"/>
<polygon style="fill:midnightblue;stroke:midnightblue;" points="1589.96,-27.916 1597,-20 1586.56,-21.7969 1589.96,-27.916"/>
</g>
<!-- Node12 -->
<g id="node28" class="node"><title>Node12</title>
<polygon style="fill:white;stroke:#bfbfbf;" points="0,-0 0,-20 56,-20 56,-0 0,-0"/>
<text text-anchor="middle" x="28" y="-7" style="font-family:Arial;font-size:10.00;">algorithm</text>
</g>
<!-- Node11&#45;&gt;Node12 -->
<g id="edge32" class="edge"><title>Node11&#45;&gt;Node12</title>
<path style="fill:none;stroke:midnightblue;" d="M187,-56C153,-46 101,-31 66,-21"/>
<polygon style="fill:midnightblue;stroke:midnightblue;" points="66.584,-17.5212 56,-18 64.5725,-24.2259 66.584,-17.5212"/>
</g>
<!-- Node13 -->
<g id="node30" class="node"><title>Node13</title>
<polygon style="fill:white;stroke:#bfbfbf;" points="308,-0 308,-20 415,-20 415,-0 308,-0"/>
<text text-anchor="middle" x="361" y="-7" style="font-family:Arial;font-size:10.00;">boost/shared_ptr.hpp</text>
</g>
<!-- Node11&#45;&gt;Node13 -->
<g id="edge34" class="edge"><title>Node11&#45;&gt;Node13</title>
<path style="fill:none;stroke:midnightblue;" d="M247,-56C269,-47 302,-34 327,-24"/>
<polygon style="fill:midnightblue;stroke:midnightblue;" points="328.283,-27.2598 336,-20 325.44,-20.8631 328.283,-27.2598"/>
</g>
<!-- Node14 -->
<g id="node32" class="node"><title>Node14</title>
<polygon style="fill:white;stroke:#bfbfbf;" points="100,-0 100,-20 291,-20 291,-0 100,-0"/>
<text text-anchor="middle" x="195" y="-7" style="font-family:Arial;font-size:10.00;">boost/smart_ptr/detail/operator_bool.hpp</text>
</g>
<!-- Node11&#45;&gt;Node14 -->
<g id="edge36" class="edge"><title>Node11&#45;&gt;Node14</title>
<path style="fill:none;stroke:midnightblue;" d="M217,-56C213,-49 208,-38 204,-29"/>
<polygon style="fill:midnightblue;stroke:midnightblue;" points="207.26,-27.7166 200,-20 200.863,-30.5596 207.26,-27.7166"/>
</g>
<!-- Node15&#45;&gt;Node4 -->
<g id="edge40" class="edge"><title>Node15&#45;&gt;Node4</title>
<path style="fill:none;stroke:midnightblue;" d="M1421,-168C1412,-149 1393,-110 1381,-85"/>
<polygon style="fill:midnightblue;stroke:midnightblue;" points="1384.26,-83.7166 1377,-76 1377.86,-86.5596 1384.26,-83.7166"/>
</g>
<!-- Node15&#45;&gt;Node5 -->
<g id="edge42" class="edge"><title>Node15&#45;&gt;Node5</title>
<path style="fill:none;stroke:midnightblue;" d="M1428,-168C1433,-144 1441,-86 1410,-56 1377,-25 1064,-14 964,-10"/>
<polygon style="fill:midnightblue;stroke:midnightblue;" points="964,-6.5001 954,-10 964,-13.5001 964,-6.5001"/>
</g>
<!-- Node15&#45;&gt;Node6 -->
<g id="edge44" class="edge"><title>Node15&#45;&gt;Node6</title>
<path style="fill:none;stroke:midnightblue;" d="M1468,-168C1507,-159 1567,-144 1620,-132 1705,-111 1806,-86 1855,-73"/>
<polygon style="fill:midnightblue;stroke:midnightblue;" points="1855.88,-76.3933 1865,-71 1854.51,-69.5292 1855.88,-76.3933"/>
</g>
<!-- Node15&#45;&gt;Node7 -->
<g id="edge46" class="edge"><title>Node15&#45;&gt;Node7</title>
<path style="fill:none;stroke:midnightblue;" d="M1452,-168C1475,-159 1508,-146 1533,-136"/>
<polygon style="fill:midnightblue;stroke:midnightblue;" points="1535.02,-138.964 1543,-132 1532.42,-132.464 1535.02,-138.964"/>
</g>
<!-- Node15&#45;&gt;Node10 -->
<g id="edge48" class="edge"><title>Node15&#45;&gt;Node10</title>
<path style="fill:none;stroke:midnightblue;" d="M1434,-168C1449,-148 1482,-108 1501,-84"/>
<polygon style="fill:midnightblue;stroke:midnightblue;" points="1503.8,-86.1 1507,-76 1498.2,-81.9 1503.8,-86.1"/>
</g>
<!-- Node15&#45;&gt;Node11 -->
<g id="edge50" class="edge"><title>Node15&#45;&gt;Node11</title>
<path style="fill:none;stroke:midnightblue;" d="M1375,-172C1360,-171 1343,-169 1328,-168 941,-140 839,-193 456,-132 385,-120 306,-95 260,-79"/>
<polygon style="fill:midnightblue;stroke:midnightblue;" points="260.584,-75.5212 250,-76 258.573,-82.2259 260.584,-75.5212"/>
</g>
<!-- Node16&#45;&gt;Node4 -->
<g id="edge54" class="edge"><title>Node16&#45;&gt;Node4</title>
<path style="fill:none;stroke:midnightblue;" d="M1566,-168C1528,-148 1444,-104 1400,-81"/>
<polygon style="fill:midnightblue;stroke:midnightblue;" points="1401.44,-77.7969 1391,-76 1398.04,-83.916 1401.44,-77.7969"/>
</g>
<!-- Node16&#45;&gt;Node5 -->
<g id="edge56" class="edge"><title>Node16&#45;&gt;Node5</title>
<path style="fill:none;stroke:midnightblue;" d="M1602,-168C1613,-159 1628,-147 1635,-132 1650,-97 1630,-74 1598,-56 1543,-23 1087,-13 964,-10"/>
<polygon style="fill:midnightblue;stroke:midnightblue;" points="964,-6.5001 954,-10 964,-13.5001 964,-6.5001"/>
</g>
<!-- Node16&#45;&gt;Node6 -->
<g id="edge58" class="edge"><title>Node16&#45;&gt;Node6</title>
<path style="fill:none;stroke:midnightblue;" d="M1619,-168C1648,-159 1691,-146 1729,-132 1773,-115 1824,-93 1856,-79"/>
<polygon style="fill:midnightblue;stroke:midnightblue;" points="1857.28,-82.2598 1865,-75 1854.44,-75.8631 1857.28,-82.2598"/>
</g>
<!-- Node16&#45;&gt;Node7 -->
<g id="edge60" class="edge"><title>Node16&#45;&gt;Node7</title>
<path style="fill:none;stroke:midnightblue;" d="M1582,-168C1581,-161 1578,-151 1575,-142"/>
<polygon style="fill:midnightblue;stroke:midnightblue;" points="1578.23,-140.573 1572,-132 1571.52,-142.584 1578.23,-140.573"/>
</g>
<!-- Node16&#45;&gt;Node10 -->
<g id="edge62" class="edge"><title>Node16&#45;&gt;Node10</title>
<path style="fill:none;stroke:midnightblue;" d="M1597,-168C1612,-154 1632,-130 1620,-112 1610,-97 1594,-87 1577,-80"/>
<polygon style="fill:midnightblue;stroke:midnightblue;" points="1578.56,-76.8631 1568,-76 1575.72,-83.2598 1578.56,-76.8631"/>
</g>
<!-- Node16&#45;&gt;Node11 -->
<g id="edge64" class="edge"><title>Node16&#45;&gt;Node11</title>
<path style="fill:none;stroke:midnightblue;" d="M1533,-172C1518,-171 1501,-169 1486,-168 1264,-152 707,-171 489,-132 462,-126 457,-119 429,-112 382,-98 327,-86 286,-78"/>
<polygon style="fill:midnightblue;stroke:midnightblue;" points="286.492,-74.5292 276,-76 285.119,-81.3933 286.492,-74.5292"/>
</g>
<!-- Node17&#45;&gt;Node5 -->
<g id="edge70" class="edge"><title>Node17&#45;&gt;Node5</title>
<path style="fill:none;stroke:midnightblue;" d="M1204,-229C1140,-220 1034,-197 972,-132 945,-104 937,-57 935,-30"/>
<polygon style="fill:midnightblue;stroke:midnightblue;" points="938.478,-29.6021 934,-20 931.512,-30.2987 938.478,-29.6021"/>
</g>
<!-- Node17&#45;&gt;Node6 -->
<g id="edge72" class="edge"><title>Node17&#45;&gt;Node6</title>
<path style="fill:none;stroke:midnightblue;" d="M1311,-231C1407,-224 1605,-209 1671,-188 1747,-163 1827,-109 1865,-82"/>
<polygon style="fill:midnightblue;stroke:midnightblue;" points="1867.1,-84.8 1873,-76 1862.9,-79.2 1867.1,-84.8"/>
</g>
<!-- Node17&#45;&gt;Node8 -->
<g id="edge68" class="edge"><title>Node17&#45;&gt;Node8</title>
<path style="fill:none;stroke:midnightblue;" d="M1311,-231C1404,-226 1587,-213 1646,-188 1701,-164 1752,-111 1776,-84"/>
<polygon style="fill:midnightblue;stroke:midnightblue;" points="1779.05,-85.8306 1783,-76 1773.78,-81.221 1779.05,-85.8306"/>
</g>
<!-- Node17&#45;&gt;Node11 -->
<g id="edge98" class="edge"><title>Node17&#45;&gt;Node11</title>
<path style="fill:none;stroke:midnightblue;" d="M1204,-234C998,-232 263,-222 228,-188 202,-161 209,-113 216,-86"/>
<polygon style="fill:midnightblue;stroke:midnightblue;" points="219.479,-86.584 219,-76 212.774,-84.5725 219.479,-86.584"/>
</g>
<!-- Node18 -->
<g id="node55" class="node"><title>Node18</title>
<a xlink:href="parameterized_8h.html" target="_top" xlink:title="ltr/interfaces/parameterized.h">
<polygon style="fill:white;stroke:black;" points="1177,-168 1177,-188 1319,-188 1319,-168 1177,-168"/>
<text text-anchor="middle" x="1248" y="-175" style="font-family:Arial;font-size:10.00;">ltr/interfaces/parameterized.h</text>
</a>
</g>
<!-- Node17&#45;&gt;Node18 -->
<g id="edge74" class="edge"><title>Node17&#45;&gt;Node18</title>
<path style="fill:none;stroke:midnightblue;" d="M1255,-224C1254,-217 1253,-207 1251,-198"/>
<polygon style="fill:midnightblue;stroke:midnightblue;" points="1254.48,-197.602 1250,-188 1247.51,-198.299 1254.48,-197.602"/>
</g>
<!-- Node18&#45;&gt;Node4 -->
<g id="edge76" class="edge"><title>Node18&#45;&gt;Node4</title>
<path style="fill:none;stroke:midnightblue;" d="M1259,-168C1281,-148 1327,-107 1354,-83"/>
<polygon style="fill:midnightblue;stroke:midnightblue;" points="1356.4,-85.546 1361,-76 1351.45,-80.5962 1356.4,-85.546"/>
</g>
<!-- Node18&#45;&gt;Node5 -->
<g id="edge78" class="edge"><title>Node18&#45;&gt;Node5</title>
<path style="fill:none;stroke:midnightblue;" d="M1255,-168C1271,-142 1311,-73 1296,-56 1274,-31 1047,-16 964,-12"/>
<polygon style="fill:midnightblue;stroke:midnightblue;" points="964.299,-8.5125 954,-11 963.602,-15.4778 964.299,-8.5125"/>
</g>
<!-- Node19 -->
<g id="node59" class="node"><title>Node19</title>
<a xlink:href="parameters__container_8h.html" target="_top" xlink:title="ltr/parameters_container/parameters_container.h">
<polygon style="fill:white;stroke:black;" points="981,-112 981,-132 1206,-132 1206,-112 981,-112"/>
<text text-anchor="middle" x="1093" y="-119" style="font-family:Arial;font-size:10.00;">ltr/parameters_container/parameters_container.h</text>
</a>
</g>
<!-- Node18&#45;&gt;Node19 -->
<g id="edge80" class="edge"><title>Node18&#45;&gt;Node19</title>
<path style="fill:none;stroke:midnightblue;" d="M1220,-168C1195,-159 1158,-145 1131,-135"/>
<polygon style="fill:midnightblue;stroke:midnightblue;" points="1131.58,-131.521 1121,-132 1129.57,-138.226 1131.58,-131.521"/>
</g>
<!-- Node19&#45;&gt;Node4 -->
<g id="edge86" class="edge"><title>Node19&#45;&gt;Node4</title>
<path style="fill:none;stroke:midnightblue;" d="M1143,-112C1197,-101 1283,-83 1333,-74"/>
<polygon style="fill:midnightblue;stroke:midnightblue;" points="1333.88,-77.3933 1343,-72 1332.51,-70.5292 1333.88,-77.3933"/>
</g>
<!-- Node19&#45;&gt;Node5 -->
<g id="edge88" class="edge"><title>Node19&#45;&gt;Node5</title>
<path style="fill:none;stroke:midnightblue;" d="M1118,-112C1145,-100 1182,-78 1164,-56 1139,-25 1021,-14 964,-11"/>
<polygon style="fill:midnightblue;stroke:midnightblue;" points="964,-7.5001 954,-11 964,-14.5001 964,-7.5001"/>
</g>
<!-- Node19&#45;&gt;Node10 -->
<g id="edge96" class="edge"><title>Node19&#45;&gt;Node10</title>
<path style="fill:none;stroke:midnightblue;" d="M1168,-112C1247,-101 1371,-85 1447,-75"/>
<polygon style="fill:midnightblue;stroke:midnightblue;" points="1447.4,-78.4778 1457,-74 1446.7,-71.5125 1447.4,-78.4778"/>
</g>
<!-- Node19&#45;&gt;Node11 -->
<g id="edge94" class="edge"><title>Node19&#45;&gt;Node11</title>
<path style="fill:none;stroke:midnightblue;" d="M981,-117C831,-109 556,-94 322,-76 310,-75 298,-74 286,-73"/>
<polygon style="fill:midnightblue;stroke:midnightblue;" points="286.299,-69.5125 276,-72 285.602,-76.4778 286.299,-69.5125"/>
</g>
<!-- Node20 -->
<g id="node61" class="node"><title>Node20</title>
<polygon style="fill:white;stroke:#bfbfbf;" points="737,-56 737,-76 811,-76 811,-56 737,-56"/>
<text text-anchor="middle" x="774" y="-63" style="font-family:Arial;font-size:10.00;">logog/logog.h</text>
</g>
<!-- Node19&#45;&gt;Node20 -->
<g id="edge82" class="edge"><title>Node19&#45;&gt;Node20</title>
<path style="fill:none;stroke:midnightblue;" d="M1036,-112C975,-102 878,-84 821,-75"/>
<polygon style="fill:midnightblue;stroke:midnightblue;" points="821.492,-71.5292 811,-73 820.119,-78.3933 821.492,-71.5292"/>
</g>
<!-- Node21 -->
<g id="node63" class="node"><title>Node21</title>
<polygon style="fill:white;stroke:#bfbfbf;" points="1127,-56 1127,-76 1156,-76 1156,-56 1127,-56"/>
<text text-anchor="middle" x="1141" y="-63" style="font-family:Arial;font-size:10.00;">list</text>
</g>
<!-- Node19&#45;&gt;Node21 -->
<g id="edge84" class="edge"><title>Node19&#45;&gt;Node21</title>
<path style="fill:none;stroke:midnightblue;" d="M1102,-112C1108,-104 1118,-93 1126,-84"/>
<polygon style="fill:midnightblue;stroke:midnightblue;" points="1128.8,-86.1 1132,-76 1123.2,-81.9 1128.8,-86.1"/>
</g>
<!-- Node22 -->
<g id="node67" class="node"><title>Node22</title>
<polygon style="fill:white;stroke:#bfbfbf;" points="1211,-56 1211,-76 1288,-76 1288,-56 1211,-56"/>
<text text-anchor="middle" x="1249" y="-63" style="font-family:Arial;font-size:10.00;">boost/any.hpp</text>
</g>
<!-- Node19&#45;&gt;Node22 -->
<g id="edge90" class="edge"><title>Node19&#45;&gt;Node22</title>
<path style="fill:none;stroke:midnightblue;" d="M1121,-112C1146,-103 1184,-89 1211,-79"/>
<polygon style="fill:midnightblue;stroke:midnightblue;" points="1212.43,-82.2259 1221,-76 1210.42,-75.5212 1212.43,-82.2259"/>
</g>
<!-- Node23 -->
<g id="node69" class="node"><title>Node23</title>
<polygon style="fill:white;stroke:#bfbfbf;" points="981,-56 981,-76 1110,-76 1110,-56 981,-56"/>
<text text-anchor="middle" x="1045" y="-63" style="font-family:Arial;font-size:10.00;">boost/unordered_map.hpp</text>
</g>
<!-- Node19&#45;&gt;Node23 -->
<g id="edge92" class="edge"><title>Node19&#45;&gt;Node23</title>
<path style="fill:none;stroke:midnightblue;" d="M1084,-112C1078,-104 1068,-93 1060,-84"/>
<polygon style="fill:midnightblue;stroke:midnightblue;" points="1062.8,-81.9 1054,-76 1057.2,-86.1 1062.8,-81.9"/>
</g>
<!-- Node24&#45;&gt;Node7 -->
<g id="edge102" class="edge"><title>Node24&#45;&gt;Node7</title>
<path style="fill:none;stroke:midnightblue;" d="M1506,-224C1508,-210 1513,-186 1524,-168 1530,-157 1539,-147 1548,-139"/>
<polygon style="fill:midnightblue;stroke:midnightblue;" points="1550.78,-141.219 1556,-132 1546.17,-135.951 1550.78,-141.219"/>
</g>
<!-- Node24&#45;&gt;Node11 -->
<g id="edge110" class="edge"><title>Node24&#45;&gt;Node11</title>
<path style="fill:none;stroke:midnightblue;" d="M1432,-229C1397,-228 1356,-225 1319,-224 1211,-219 450,-224 348,-188 296,-168 253,-113 234,-84"/>
<polygon style="fill:midnightblue;stroke:midnightblue;" points="236.8,-81.9 228,-76 231.2,-86.1 236.8,-81.9"/>
</g>
<!-- Node24&#45;&gt;Node15 -->
<g id="edge106" class="edge"><title>Node24&#45;&gt;Node15</title>
<path style="fill:none;stroke:midnightblue;" d="M1491,-224C1479,-216 1462,-203 1448,-194"/>
<polygon style="fill:midnightblue;stroke:midnightblue;" points="1450.1,-191.2 1440,-188 1445.9,-196.8 1450.1,-191.2"/>
</g>
<!-- Node24&#45;&gt;Node16 -->
<g id="edge104" class="edge"><title>Node24&#45;&gt;Node16</title>
<path style="fill:none;stroke:midnightblue;" d="M1519,-224C1530,-216 1548,-204 1562,-194"/>
<polygon style="fill:midnightblue;stroke:midnightblue;" points="1564.1,-196.8 1570,-188 1559.9,-191.2 1564.1,-196.8"/>
</g>
<!-- Node24&#45;&gt;Node18 -->
<g id="edge108" class="edge"><title>Node24&#45;&gt;Node18</title>
<path style="fill:none;stroke:midnightblue;" d="M1459,-224C1415,-215 1351,-200 1304,-190"/>
<polygon style="fill:midnightblue;stroke:midnightblue;" points="1304.49,-186.529 1294,-188 1303.12,-193.393 1304.49,-186.529"/>
</g>
<!-- Node25&#45;&gt;Node5 -->
<g id="edge114" class="edge"><title>Node25&#45;&gt;Node5</title>
<path style="fill:none;stroke:midnightblue;" d="M713,-56C768,-45 858,-26 904,-16"/>
<polygon style="fill:midnightblue;stroke:midnightblue;" points="904.881,-19.3933 914,-14 903.508,-12.5292 904.881,-19.3933"/>
</g>
<!-- Node26&#45;&gt;Node2 -->
<g id="edge120" class="edge"><title>Node26&#45;&gt;Node2</title>
<path style="fill:none;stroke:midnightblue;" d="M1591,-392C1565,-372 1508,-330 1477,-306"/>
<polygon style="fill:midnightblue;stroke:midnightblue;" points="1479.1,-303.2 1469,-300 1474.9,-308.8 1479.1,-303.2"/>
</g>
<!-- Node26&#45;&gt;Node6 -->
<g id="edge118" class="edge"><title>Node26&#45;&gt;Node6</title>
<path style="fill:none;stroke:midnightblue;" d="M1687,-398C1815,-389 2047,-363 2047,-290 2047,-290 2047,-290 2047,-178 2047,-115 1964,-84 1917,-72"/>
<polygon style="fill:midnightblue;stroke:midnightblue;" points="1917.49,-68.5292 1907,-70 1916.12,-75.3933 1917.49,-68.5292"/>
</g>
<!-- Node27 -->
<g id="node88" class="node"><title>Node27</title>
<a xlink:href="data__set__label__statistics_8h.html" target="_top" xlink:title="ltr/data/utility/data_set_label_statistics.h">
<polygon style="fill:white;stroke:black;" points="1671,-336 1671,-356 1863,-356 1863,-336 1671,-336"/>
<text text-anchor="middle" x="1767" y="-343" style="font-family:Arial;font-size:10.00;">ltr/data/utility/data_set_label_statistics.h</text>
</a>
</g>
<!-- Node26&#45;&gt;Node27 -->
<g id="edge122" class="edge"><title>Node26&#45;&gt;Node27</title>
<path style="fill:none;stroke:midnightblue;" d="M1633,-392C1660,-383 1699,-369 1728,-359"/>
<polygon style="fill:midnightblue;stroke:midnightblue;" points="1729.43,-362.226 1738,-356 1727.42,-355.521 1729.43,-362.226"/>
</g>
<!-- Node27&#45;&gt;Node2 -->
<g id="edge130" class="edge"><title>Node27&#45;&gt;Node2</title>
<path style="fill:none;stroke:midnightblue;" d="M1711,-336C1655,-326 1569,-311 1513,-301"/>
<polygon style="fill:midnightblue;stroke:midnightblue;" points="1513.49,-297.529 1503,-299 1512.12,-304.393 1513.49,-297.529"/>
</g>
<!-- Node27&#45;&gt;Node6 -->
<g id="edge126" class="edge"><title>Node27&#45;&gt;Node6</title>
<path style="fill:none;stroke:midnightblue;" d="M1863,-336C1914,-329 1971,-317 1990,-300 2012,-279 2009,-264 2009,-234 2009,-234 2009,-234 2009,-178 2009,-128 1953,-95 1916,-78"/>
<polygon style="fill:midnightblue;stroke:midnightblue;" points="1917.56,-74.8631 1907,-74 1914.72,-81.2598 1917.56,-74.8631"/>
</g>
<!-- Node27&#45;&gt;Node8 -->
<g id="edge124" class="edge"><title>Node27&#45;&gt;Node8</title>
<path style="fill:none;stroke:midnightblue;" d="M1778,-336C1787,-327 1799,-314 1804,-300 1830,-224 1808,-127 1797,-86"/>
<polygon style="fill:midnightblue;stroke:midnightblue;" points="1800.23,-84.5725 1794,-76 1793.52,-86.584 1800.23,-84.5725"/>
</g>
<!-- Node27&#45;&gt;Node24 -->
<g id="edge132" class="edge"><title>Node27&#45;&gt;Node24</title>
<path style="fill:none;stroke:midnightblue;" d="M1743,-336C1697,-315 1592,-271 1538,-248"/>
<polygon style="fill:midnightblue;stroke:midnightblue;" points="1539.56,-244.863 1529,-244 1536.72,-251.26 1539.56,-244.863"/>
</g>
<!-- Node28 -->
<g id="node92" class="node"><title>Node28</title>
<polygon style="fill:white;stroke:#bfbfbf;" points="1739,-280 1739,-300 1796,-300 1796,-280 1739,-280"/>
<text text-anchor="middle" x="1767" y="-287" style="font-family:Arial;font-size:10.00;">functional</text>
</g>
<!-- Node27&#45;&gt;Node28 -->
<g id="edge128" class="edge"><title>Node27&#45;&gt;Node28</title>
<path style="fill:none;stroke:midnightblue;" d="M1767,-336C1767,-329 1767,-319 1767,-310"/>
<polygon style="fill:midnightblue;stroke:midnightblue;" points="1770.5,-310 1767,-300 1763.5,-310 1770.5,-310"/>
</g>
<!-- Node29 -->
<g id="node96" class="node"><title>Node29</title>
<a xlink:href="numerical_8h.html" target="_top" xlink:title="ltr/utility/numerical.h">
<polygon style="fill:white;stroke:black;" points="1877,-280 1877,-300 1981,-300 1981,-280 1877,-280"/>
<text text-anchor="middle" x="1929" y="-287" style="font-family:Arial;font-size:10.00;">ltr/utility/numerical.h</text>
</a>
</g>
<!-- Node27&#45;&gt;Node29 -->
<g id="edge134" class="edge"><title>Node27&#45;&gt;Node29</title>
<path style="fill:none;stroke:midnightblue;" d="M1796,-336C1823,-327 1862,-313 1890,-303"/>
<polygon style="fill:midnightblue;stroke:midnightblue;" points="1891.43,-306.226 1900,-300 1889.42,-299.521 1891.43,-306.226"/>
</g>
<!-- Node30 -->
<g id="node98" class="node"><title>Node30</title>
<polygon style="fill:white;stroke:#bfbfbf;" points="1939,-224 1939,-244 1982,-244 1982,-224 1939,-224"/>
<text text-anchor="middle" x="1960" y="-231" style="font-family:Arial;font-size:10.00;">cmath</text>
</g>
<!-- Node29&#45;&gt;Node30 -->
<g id="edge136" class="edge"><title>Node29&#45;&gt;Node30</title>
<path style="fill:none;stroke:midnightblue;" d="M1935,-280C1939,-273 1945,-262 1949,-253"/>
<polygon style="fill:midnightblue;stroke:midnightblue;" points="1952.2,-254.441 1954,-244 1946.08,-251.042 1952.2,-254.441"/>
</g>
<!-- Node31 -->
<g id="node100" class="node"><title>Node31</title>
<polygon style="fill:white;stroke:#bfbfbf;" points="1883,-224 1883,-244 1922,-244 1922,-224 1883,-224"/>
<text text-anchor="middle" x="1902" y="-231" style="font-family:Arial;font-size:10.00;">limits</text>
</g>
<!-- Node29&#45;&gt;Node31 -->
<g id="edge138" class="edge"><title>Node29&#45;&gt;Node31</title>
<path style="fill:none;stroke:midnightblue;" d="M1924,-280C1920,-273 1915,-262 1911,-253"/>
<polygon style="fill:midnightblue;stroke:midnightblue;" points="1914.26,-251.717 1907,-244 1907.86,-254.56 1914.26,-251.717"/>
</g>
<!-- Node32&#45;&gt;Node5 -->
<g id="edge142" class="edge"><title>Node32&#45;&gt;Node5</title>
<path style="fill:none;stroke:midnightblue;" d="M877,-336C877,-316 877,-271 877,-234 877,-234 877,-234 877,-122 877,-85 901,-49 918,-28"/>
<polygon style="fill:midnightblue;stroke:midnightblue;" points="921.049,-29.8306 925,-20 915.781,-25.221 921.049,-29.8306"/>
</g>
<!-- Node33 -->
<g id="node105" class="node"><title>Node33</title>
<a xlink:href="vertex_8h.html" target="_top" xlink:title="ltr/learners/decision_tree/vertex/vertex.h">
<polygon style="fill:white;stroke:black;" points="661,-280 661,-300 849,-300 849,-280 661,-280"/>
<text text-anchor="middle" x="755" y="-287" style="font-family:Arial;font-size:10.00;">ltr/learners/decision_tree/vertex/vertex.h</text>
</a>
</g>
<!-- Node32&#45;&gt;Node33 -->
<g id="edge144" class="edge"><title>Node32&#45;&gt;Node33</title>
<path style="fill:none;stroke:midnightblue;" d="M855,-336C836,-327 808,-314 786,-304"/>
<polygon style="fill:midnightblue;stroke:midnightblue;" points="787.56,-300.863 777,-300 784.717,-307.26 787.56,-300.863"/>
</g>
<!-- Node33&#45;&gt;Node4 -->
<g id="edge152" class="edge"><title>Node33&#45;&gt;Node4</title>
<path style="fill:none;stroke:midnightblue;" d="M786,-280C860,-256 1054,-192 1214,-132 1258,-115 1308,-93 1340,-80"/>
<polygon style="fill:midnightblue;stroke:midnightblue;" points="1341.28,-83.2598 1349,-76 1338.44,-76.8631 1341.28,-83.2598"/>
</g>
<!-- Node33&#45;&gt;Node5 -->
<g id="edge146" class="edge"><title>Node33&#45;&gt;Node5</title>
<path style="fill:none;stroke:midnightblue;" d="M770,-280C794,-262 839,-223 839,-178 839,-178 839,-178 839,-122 839,-90 843,-80 863,-56 874,-42 890,-31 905,-23"/>
<polygon style="fill:midnightblue;stroke:midnightblue;" points="906.958,-25.916 914,-18 903.559,-19.7969 906.958,-25.916"/>
</g>
<!-- Node33&#45;&gt;Node6 -->
<g id="edge148" class="edge"><title>Node33&#45;&gt;Node6</title>
<path style="fill:none;stroke:midnightblue;" d="M849,-287C1052,-280 1517,-262 1587,-244 1696,-215 1722,-196 1815,-132 1835,-118 1856,-98 1870,-83"/>
<polygon style="fill:midnightblue;stroke:midnightblue;" points="1872.4,-85.546 1877,-76 1867.45,-80.5962 1872.4,-85.546"/>
</g>
<!-- Node33&#45;&gt;Node11 -->
<g id="edge194" class="edge"><title>Node33&#45;&gt;Node11</title>
<path style="fill:none;stroke:midnightblue;" d="M661,-283C581,-277 463,-265 362,-244 278,-226 229,-256 177,-188 170,-178 167,-145 181,-112 185,-101 193,-91 201,-83"/>
<polygon style="fill:midnightblue;stroke:midnightblue;" points="203.779,-85.2191 209,-76 199.169,-79.9511 203.779,-85.2191"/>
</g>
<!-- Node33&#45;&gt;Node12 -->
<g id="edge150" class="edge"><title>Node33&#45;&gt;Node12</title>
<path style="fill:none;stroke:midnightblue;" d="M661,-286C518,-278 259,-263 220,-244 124,-196 59,-76 36,-29"/>
<polygon style="fill:midnightblue;stroke:midnightblue;" points="39.2598,-27.7166 32,-20 32.8631,-30.5596 39.2598,-27.7166"/>
</g>
<!-- Node33&#45;&gt;Node20 -->
<g id="edge154" class="edge"><title>Node33&#45;&gt;Node20</title>
<path style="fill:none;stroke:midnightblue;" d="M756,-280C759,-245 768,-132 772,-86"/>
<polygon style="fill:midnightblue;stroke:midnightblue;" points="775.488,-86.2987 773,-76 768.522,-85.6021 775.488,-86.2987"/>
</g>
<!-- Node34 -->
<g id="node112" class="node"><title>Node34</title>
<a xlink:href="serializable__functor_8h.html" target="_top" xlink:title="ltr/interfaces/serializable_functor.h">
<polygon style="fill:white;stroke:black;" points="371,-224 371,-244 534,-244 534,-224 371,-224"/>
<text text-anchor="middle" x="452" y="-231" style="font-family:Arial;font-size:10.00;">ltr/interfaces/serializable_functor.h</text>
</a>
</g>
<!-- Node33&#45;&gt;Node34 -->
<g id="edge156" class="edge"><title>Node33&#45;&gt;Node34</title>
<path style="fill:none;stroke:midnightblue;" d="M701,-280C649,-271 571,-256 516,-246"/>
<polygon style="fill:midnightblue;stroke:midnightblue;" points="516.492,-242.529 506,-244 515.119,-249.393 516.492,-242.529"/>
</g>
<!-- Node39 -->
<g id="node131" class="node"><title>Node39</title>
<a xlink:href="condition_8h.html" target="_top" xlink:title="ltr/learners/decision_tree/condition/condition.h">
<polygon style="fill:white;stroke:black;" points="521,-168 521,-188 736,-188 736,-168 521,-168"/>
<text text-anchor="middle" x="628" y="-175" style="font-family:Arial;font-size:10.00;">ltr/learners/decision_tree/condition/condition.h</text>
</a>
</g>
<!-- Node33&#45;&gt;Node39 -->
<g id="edge184" class="edge"><title>Node33&#45;&gt;Node39</title>
<path style="fill:none;stroke:midnightblue;" d="M743,-280C721,-260 674,-219 648,-195"/>
<polygon style="fill:midnightblue;stroke:midnightblue;" points="649.831,-191.951 640,-188 645.221,-197.219 649.831,-191.951"/>
</g>
<!-- Node34&#45;&gt;Node11 -->
<g id="edge158" class="edge"><title>Node34&#45;&gt;Node11</title>
<path style="fill:none;stroke:midnightblue;" d="M371,-231C303,-226 213,-215 190,-188 169,-162 180,-144 190,-112 194,-102 200,-92 206,-84"/>
<polygon style="fill:midnightblue;stroke:midnightblue;" points="208.8,-86.1 212,-76 203.2,-81.9 208.8,-86.1"/>
</g>
<!-- Node35 -->
<g id="node115" class="node"><title>Node35</title>
<a xlink:href="functor_8h.html" target="_top" xlink:title="ltr/interfaces/functor.h">
<polygon style="fill:white;stroke:black;" points="357,-168 357,-188 466,-188 466,-168 357,-168"/>
<text text-anchor="middle" x="411" y="-175" style="font-family:Arial;font-size:10.00;">ltr/interfaces/functor.h</text>
</a>
</g>
<!-- Node34&#45;&gt;Node35 -->
<g id="edge160" class="edge"><title>Node34&#45;&gt;Node35</title>
<path style="fill:none;stroke:midnightblue;" d="M445,-224C439,-216 431,-206 425,-197"/>
<polygon style="fill:midnightblue;stroke:midnightblue;" points="427.459,-194.379 419,-188 421.635,-198.262 427.459,-194.379"/>
</g>
<!-- Node37 -->
<g id="node122" class="node"><title>Node37</title>
<a xlink:href="serializable_8h.html" target="_top" xlink:title="ltr/interfaces/serializable.h">
<polygon style="fill:white;stroke:black;" points="498,-112 498,-132 627,-132 627,-112 498,-112"/>
<text text-anchor="middle" x="562" y="-119" style="font-family:Arial;font-size:10.00;">ltr/interfaces/serializable.h</text>
</a>
</g>
<!-- Node34&#45;&gt;Node37 -->
<g id="edge170" class="edge"><title>Node34&#45;&gt;Node37</title>
<path style="fill:none;stroke:midnightblue;" d="M461,-224C473,-211 494,-187 512,-168 522,-158 533,-147 543,-139"/>
<polygon style="fill:midnightblue;stroke:midnightblue;" points="545.404,-141.546 550,-132 540.454,-136.596 545.404,-141.546"/>
</g>
<!-- Node35&#45;&gt;Node5 -->
<g id="edge166" class="edge"><title>Node35&#45;&gt;Node5</title>
<path style="fill:none;stroke:midnightblue;" d="M394,-168C359,-146 287,-94 322,-56 342,-35 783,-16 904,-11"/>
<polygon style="fill:midnightblue;stroke:midnightblue;" points="904,-14.5001 914,-11 904,-7.5001 904,-14.5001"/>
</g>
<!-- Node35&#45;&gt;Node7 -->
<g id="edge168" class="edge"><title>Node35&#45;&gt;Node7</title>
<path style="fill:none;stroke:midnightblue;" d="M466,-172C481,-170 497,-169 512,-168 897,-140 1363,-127 1517,-123"/>
<polygon style="fill:midnightblue;stroke:midnightblue;" points="1517,-126.5 1527,-123 1517,-119.5 1517,-126.5"/>
</g>
<!-- Node35&#45;&gt;Node11 -->
<g id="edge162" class="edge"><title>Node35&#45;&gt;Node11</title>
<path style="fill:none;stroke:midnightblue;" d="M382,-168C360,-160 329,-147 304,-132 280,-118 256,-97 240,-83"/>
<polygon style="fill:midnightblue;stroke:midnightblue;" points="242.546,-80.5962 233,-76 237.596,-85.546 242.546,-80.5962"/>
</g>
<!-- Node36 -->
<g id="node118" class="node"><title>Node36</title>
<polygon style="fill:white;stroke:#bfbfbf;" points="331,-56 331,-76 445,-76 445,-56 331,-56"/>
<text text-anchor="middle" x="388" y="-63" style="font-family:Arial;font-size:10.00;">boost/lexical_cast.hpp</text>
</g>
<!-- Node35&#45;&gt;Node36 -->
<g id="edge164" class="edge"><title>Node35&#45;&gt;Node36</title>
<path style="fill:none;stroke:midnightblue;" d="M412,-168C412,-155 413,-131 408,-112 406,-103 402,-93 399,-85"/>
<polygon style="fill:midnightblue;stroke:midnightblue;" points="401.916,-83.0418 394,-76 395.797,-86.4414 401.916,-83.0418"/>
</g>
<!-- Node37&#45;&gt;Node5 -->
<g id="edge176" class="edge"><title>Node37&#45;&gt;Node5</title>
<path style="fill:none;stroke:midnightblue;" d="M560,-112C557,-97 555,-71 569,-56 593,-31 821,-16 904,-12"/>
<polygon style="fill:midnightblue;stroke:midnightblue;" points="904.398,-15.4778 914,-11 903.701,-8.5125 904.398,-15.4778"/>
</g>
<!-- Node37&#45;&gt;Node11 -->
<g id="edge180" class="edge"><title>Node37&#45;&gt;Node11</title>
<path style="fill:none;stroke:midnightblue;" d="M501,-112C440,-103 348,-87 286,-77"/>
<polygon style="fill:midnightblue;stroke:midnightblue;" points="286.492,-73.5292 276,-75 285.119,-80.3933 286.492,-73.5292"/>
</g>
<!-- Node37&#45;&gt;Node20 -->
<g id="edge174" class="edge"><title>Node37&#45;&gt;Node20</title>
<path style="fill:none;stroke:midnightblue;" d="M600,-112C636,-103 688,-89 727,-79"/>
<polygon style="fill:midnightblue;stroke:midnightblue;" points="728.427,-82.2259 737,-76 726.416,-75.5212 728.427,-82.2259"/>
</g>
<!-- Node37&#45;&gt;Node25 -->
<g id="edge182" class="edge"><title>Node37&#45;&gt;Node25</title>
<path style="fill:none;stroke:midnightblue;" d="M580,-112C596,-104 619,-91 637,-81"/>
<polygon style="fill:midnightblue;stroke:midnightblue;" points="638.958,-83.916 646,-76 635.559,-77.7969 638.958,-83.916"/>
</g>
<!-- Node37&#45;&gt;Node36 -->
<g id="edge172" class="edge"><title>Node37&#45;&gt;Node36</title>
<path style="fill:none;stroke:midnightblue;" d="M531,-112C502,-103 460,-89 429,-79"/>
<polygon style="fill:midnightblue;stroke:midnightblue;" points="429.584,-75.5212 419,-76 427.573,-82.2259 429.584,-75.5212"/>
</g>
<!-- Node38 -->
<g id="node127" class="node"><title>Node38</title>
<polygon style="fill:white;stroke:#bfbfbf;" points="463,-56 463,-76 517,-76 517,-56 463,-56"/>
<text text-anchor="middle" x="490" y="-63" style="font-family:Arial;font-size:10.00;">iostream</text>
</g>
<!-- Node37&#45;&gt;Node38 -->
<g id="edge178" class="edge"><title>Node37&#45;&gt;Node38</title>
<path style="fill:none;stroke:midnightblue;" d="M549,-112C538,-104 523,-92 511,-83"/>
<polygon style="fill:midnightblue;stroke:midnightblue;" points="512.831,-79.9511 503,-76 508.221,-85.2191 512.831,-79.9511"/>
</g>
<!-- Node39&#45;&gt;Node5 -->
<g id="edge186" class="edge"><title>Node39&#45;&gt;Node5</title>
<path style="fill:none;stroke:midnightblue;" d="M632,-168C637,-154 642,-130 635,-112 625,-85 584,-77 602,-56 622,-33 825,-17 904,-12"/>
<polygon style="fill:midnightblue;stroke:midnightblue;" points="904.398,-15.4778 914,-11 903.701,-8.5125 904.398,-15.4778"/>
</g>
<!-- Node39&#45;&gt;Node7 -->
<g id="edge188" class="edge"><title>Node39&#45;&gt;Node7</title>
<path style="fill:none;stroke:midnightblue;" d="M736,-172C939,-159 1367,-134 1517,-126"/>
<polygon style="fill:midnightblue;stroke:midnightblue;" points="1517.4,-129.478 1527,-125 1516.7,-122.512 1517.4,-129.478"/>
</g>
<!-- Node39&#45;&gt;Node11 -->
<g id="edge192" class="edge"><title>Node39&#45;&gt;Node11</title>
<path style="fill:none;stroke:midnightblue;" d="M521,-169C466,-163 399,-151 342,-132 337,-130 283,-100 249,-81"/>
<polygon style="fill:midnightblue;stroke:midnightblue;" points="250.441,-77.7969 240,-76 247.042,-83.916 250.441,-77.7969"/>
</g>
<!-- Node39&#45;&gt;Node37 -->
<g id="edge190" class="edge"><title>Node39&#45;&gt;Node37</title>
<path style="fill:none;stroke:midnightblue;" d="M616,-168C606,-160 593,-149 582,-139"/>
<polygon style="fill:midnightblue;stroke:midnightblue;" points="583.831,-135.951 574,-132 579.221,-141.219 583.831,-135.951"/>
</g>
<!-- Node40&#45;&gt;Node2 -->
<g id="edge198" class="edge"><title>Node40&#45;&gt;Node2</title>
<path style="fill:none;stroke:midnightblue;" d="M1072,-392C1149,-371 1323,-325 1407,-303"/>
<polygon style="fill:midnightblue;stroke:midnightblue;" points="1408.43,-306.226 1417,-300 1406.42,-299.521 1408.43,-306.226"/>
</g>
<!-- Node40&#45;&gt;Node11 -->
<g id="edge202" class="edge"><title>Node40&#45;&gt;Node11</title>
<path style="fill:none;stroke:midnightblue;" d="M905,-400C638,-395 52,-374 52,-290 52,-290 52,-290 52,-178 52,-123 114,-94 163,-79"/>
<polygon style="fill:midnightblue;stroke:midnightblue;" points="164.427,-82.2259 173,-76 162.416,-75.5212 164.427,-82.2259"/>
</g>
<!-- Node40&#45;&gt;Node32 -->
<g id="edge200" class="edge"><title>Node40&#45;&gt;Node32</title>
<path style="fill:none;stroke:midnightblue;" d="M1006,-392C981,-383 943,-369 915,-359"/>
<polygon style="fill:midnightblue;stroke:midnightblue;" points="915.584,-355.521 905,-356 913.573,-362.226 915.584,-355.521"/>
</g>
</g>
</svg>
