<?xml version="1.0" encoding="UTF-8" standalone="no"?>
<!DOCTYPE svg PUBLIC "-//W3C//DTD SVG 1.0//EN"
 "http://www.w3.org/TR/2001/REC-SVG-20010904/DTD/svg10.dtd" [
 <!ATTLIST svg xmlns:xlink CDATA #FIXED "http://www.w3.org/1999/xlink">
]>
<!-- Generated by Graphviz version 2.20.2 (Tue Mar &#160;2 19:03:41 UTC 2010)
     For user: (jenkins)  -->
<!-- Title: G Pages: 1 -->
<svg width="836pt" height="84pt"
 viewBox="0.00 0.00 836.00 84.00" xmlns="http://www.w3.org/2000/svg" xmlns:xlink="http://www.w3.org/1999/xlink">
<g id="graph0" class="graph" transform="scale(1 1) rotate(0) translate(4 80)">
<title>G</title>
<polygon style="fill:white;stroke:white;" points="-4,4 -4,-80 832,-80 832,4 -4,4"/>
<!-- Node1 -->
<g id="node1" class="node"><title>Node1</title>
<polygon style="fill:#bfbfbf;stroke:black;" points="255,-56 255,-76 608,-76 608,-56 255,-56"/>
<text text-anchor="middle" x="431" y="-63" style="font-family:Arial;font-size:10.00;">ltr/learners/decision_tree/leaf_generator/most_common_label_leaf_generator.h</text>
</g>
<!-- Node2 -->
<g id="node3" class="node"><title>Node2</title>
<a xlink:href="decision__tree__unittest_8cc.html" target="_top" xlink:title="ltr/learners/decision_tree/decision_tree_unittest.cc">
<polygon style="fill:white;stroke:black;" points="0,-0 0,-20 234,-20 234,-0 0,-0"/>
<text text-anchor="middle" x="117" y="-7" style="font-family:Arial;font-size:10.00;">ltr/learners/decision_tree/decision_tree_unittest.cc</text>
</a>
</g>
<!-- Node1&#45;&gt;Node2 -->
<g id="edge2" class="edge"><title>Node1&#45;&gt;Node2</title>
<path style="fill:none;stroke:midnightblue;" d="M365,-54C308,-44 227,-29 173,-20"/>
<polygon style="fill:midnightblue;stroke:midnightblue;" points="364.508,-57.4708 375,-56 365.881,-50.6067 364.508,-57.4708"/>
</g>
<!-- Node3 -->
<g id="node5" class="node"><title>Node3</title>
<a xlink:href="most__common__label__leaf__generator_8cc.html" target="_top" xlink:title="ltr/learners/decision_tree/leaf_generator/most_common_label_leaf_generator.cc">
<polygon style="fill:white;stroke:black;" points="252,-0 252,-20 610,-20 610,-0 252,-0"/>
<text text-anchor="middle" x="431" y="-7" style="font-family:Arial;font-size:10.00;">ltr/learners/decision_tree/leaf_generator/most_common_label_leaf_generator.cc</text>
</a>
</g>
<!-- Node1&#45;&gt;Node3 -->
<g id="edge4" class="edge"><title>Node1&#45;&gt;Node3</title>
<path style="fill:none;stroke:midnightblue;" d="M431,-46C431,-37 431,-28 431,-20"/>
<polygon style="fill:midnightblue;stroke:midnightblue;" points="427.5,-46 431,-56 434.5,-46 427.5,-46"/>
</g>
<!-- Node4 -->
<g id="node7" class="node"><title>Node4</title>
<a xlink:href="generator_8cc.html" target="_top" xlink:title="ltr/serialization_test/generator/generator.cc">
<polygon style="fill:white;stroke:black;" points="628,-0 628,-20 829,-20 829,-0 628,-0"/>
<text text-anchor="middle" x="728" y="-7" style="font-family:Arial;font-size:10.00;">ltr/serialization_test/generator/generator.cc</text>
</a>
</g>
<!-- Node1&#45;&gt;Node4 -->
<g id="edge6" class="edge"><title>Node1&#45;&gt;Node4</title>
<path style="fill:none;stroke:midnightblue;" d="M494,-54C548,-44 624,-29 675,-20"/>
<polygon style="fill:midnightblue;stroke:midnightblue;" points="493.119,-50.6067 484,-56 494.492,-57.4708 493.119,-50.6067"/>
</g>
</g>
</svg>
