<?xml version="1.0" encoding="UTF-8" standalone="no"?>
<!DOCTYPE svg PUBLIC "-//W3C//DTD SVG 1.0//EN"
 "http://www.w3.org/TR/2001/REC-SVG-20010904/DTD/svg10.dtd" [
 <!ATTLIST svg xmlns:xlink CDATA #FIXED "http://www.w3.org/1999/xlink">
]>
<!-- Generated by Graphviz version 2.20.2 (Tue Mar &#160;2 19:03:41 UTC 2010)
     For user: (jenkins)  -->
<!-- Title: G Pages: 1 -->
<svg width="912pt" height="84pt"
 viewBox="0.00 0.00 912.00 84.00" xmlns="http://www.w3.org/2000/svg" xmlns:xlink="http://www.w3.org/1999/xlink">
<g id="graph0" class="graph" transform="scale(1 1) rotate(0) translate(4 80)">
<title>G</title>
<polygon style="fill:white;stroke:white;" points="-4,4 -4,-80 908,-80 908,4 -4,4"/>
<!-- Node1 -->
<g id="node1" class="node"><title>Node1</title>
<polygon style="fill:#bfbfbf;stroke:black;" points="224,-56 224,-76 577,-76 577,-56 224,-56"/>
<text text-anchor="middle" x="400" y="-63" style="font-family:Arial;font-size:10.00;">ltr/learners/decision_tree/leaf_generator/most_common_label_leaf_generator.h</text>
</g>
<!-- Node2 -->
<g id="node3" class="node"><title>Node2</title>
<polygon style="fill:white;stroke:#bfbfbf;" points="0,-0 0,-20 95,-20 95,-0 0,-0"/>
<text text-anchor="middle" x="47" y="-7" style="font-family:Arial;font-size:10.00;">ltr/data/data_set.h</text>
</g>
<!-- Node1&#45;&gt;Node2 -->
<g id="edge2" class="edge"><title>Node1&#45;&gt;Node2</title>
<path style="fill:none;stroke:midnightblue;" d="M334,-56C276,-47 190,-34 105,-20"/>
<polygon style="fill:midnightblue;stroke:midnightblue;" points="105.492,-16.5292 95,-18 104.119,-23.3933 105.492,-16.5292"/>
</g>
<!-- Node3 -->
<g id="node5" class="node"><title>Node3</title>
<polygon style="fill:white;stroke:#bfbfbf;" points="112,-0 112,-20 278,-20 278,-0 112,-0"/>
<text text-anchor="middle" x="195" y="-7" style="font-family:Arial;font-size:10.00;">ltr/data/utility/data_set_statistics.h</text>
</g>
<!-- Node1&#45;&gt;Node3 -->
<g id="edge4" class="edge"><title>Node1&#45;&gt;Node3</title>
<path style="fill:none;stroke:midnightblue;" d="M363,-56C329,-47 279,-33 242,-23"/>
<polygon style="fill:midnightblue;stroke:midnightblue;" points="242.584,-19.5212 232,-20 240.573,-26.2259 242.584,-19.5212"/>
</g>
<!-- Node4 -->
<g id="node7" class="node"><title>Node4</title>
<polygon style="fill:white;stroke:#bfbfbf;" points="296,-0 296,-20 504,-20 504,-0 296,-0"/>
<text text-anchor="middle" x="400" y="-7" style="font-family:Arial;font-size:10.00;">ltr/learners/decision_tree/vertex/leaf_vertex.h</text>
</g>
<!-- Node1&#45;&gt;Node4 -->
<g id="edge6" class="edge"><title>Node1&#45;&gt;Node4</title>
<path style="fill:none;stroke:midnightblue;" d="M400,-56C400,-49 400,-39 400,-30"/>
<polygon style="fill:midnightblue;stroke:midnightblue;" points="403.5,-30 400,-20 396.5,-30 403.5,-30"/>
</g>
<!-- Node5 -->
<g id="node9" class="node"><title>Node5</title>
<polygon style="fill:white;stroke:#bfbfbf;" points="522,-0 522,-20 780,-20 780,-0 522,-0"/>
<text text-anchor="middle" x="651" y="-7" style="font-family:Arial;font-size:10.00;">ltr/learners/decision_tree/leaf_generator/leaf_generator.h</text>
</g>
<!-- Node1&#45;&gt;Node5 -->
<g id="edge8" class="edge"><title>Node1&#45;&gt;Node5</title>
<path style="fill:none;stroke:midnightblue;" d="M445,-56C487,-47 551,-32 596,-22"/>
<polygon style="fill:midnightblue;stroke:midnightblue;" points="596.881,-25.3933 606,-20 595.508,-18.5292 596.881,-25.3933"/>
</g>
<!-- Node6 -->
<g id="node11" class="node"><title>Node6</title>
<polygon style="fill:white;stroke:#bfbfbf;" points="798,-0 798,-20 905,-20 905,-0 798,-0"/>
<text text-anchor="middle" x="851" y="-7" style="font-family:Arial;font-size:10.00;">ltr/utility/shared_ptr.h</text>
</g>
<!-- Node1&#45;&gt;Node6 -->
<g id="edge10" class="edge"><title>Node1&#45;&gt;Node6</title>
<path style="fill:none;stroke:midnightblue;" d="M494,-56C571,-47 681,-35 788,-20"/>
<polygon style="fill:midnightblue;stroke:midnightblue;" points="788.398,-23.4778 798,-19 787.701,-16.5125 788.398,-23.4778"/>
</g>
</g>
</svg>
