<?xml version="1.0" encoding="UTF-8" standalone="no"?>
<!DOCTYPE svg PUBLIC "-//W3C//DTD SVG 1.0//EN"
 "http://www.w3.org/TR/2001/REC-SVG-20010904/DTD/svg10.dtd" [
 <!ATTLIST svg xmlns:xlink CDATA #FIXED "http://www.w3.org/1999/xlink">
]>
<!-- Generated by Graphviz version 2.20.2 (Tue Mar &#160;2 19:03:41 UTC 2010)
     For user: (jenkins)  -->
<!-- Title: G Pages: 1 -->
<svg width="590pt" height="84pt"
 viewBox="0.00 0.00 590.00 84.00" xmlns="http://www.w3.org/2000/svg" xmlns:xlink="http://www.w3.org/1999/xlink">
<g id="graph0" class="graph" transform="scale(1 1) rotate(0) translate(4 80)">
<title>G</title>
<polygon style="fill:white;stroke:white;" points="-4,4 -4,-80 586,-80 586,4 -4,4"/>
<!-- Node1 -->
<g id="node1" class="node"><title>Node1</title>
<polygon style="fill:#bfbfbf;stroke:black;" points="169,-56 169,-76 273,-76 273,-56 169,-56"/>
<text text-anchor="middle" x="221" y="-63" style="font-family:Arial;font-size:10.00;">ltr/utility/multitable.h</text>
</g>
<!-- Node2 -->
<g id="node3" class="node"><title>Node2</title>
<polygon style="fill:white;stroke:#bfbfbf;" points="0,-0 0,-20 56,-20 56,-0 0,-0"/>
<text text-anchor="middle" x="28" y="-7" style="font-family:Arial;font-size:10.00;">algorithm</text>
</g>
<!-- Node1&#45;&gt;Node2 -->
<g id="edge2" class="edge"><title>Node1&#45;&gt;Node2</title>
<path style="fill:none;stroke:midnightblue;" d="M186,-56C152,-46 101,-31 66,-21"/>
<polygon style="fill:midnightblue;stroke:midnightblue;" points="66.584,-17.5212 56,-18 64.5725,-24.2259 66.584,-17.5212"/>
</g>
<!-- Node3 -->
<g id="node5" class="node"><title>Node3</title>
<polygon style="fill:white;stroke:#bfbfbf;" points="74,-0 74,-20 114,-20 114,-0 74,-0"/>
<text text-anchor="middle" x="94" y="-7" style="font-family:Arial;font-size:10.00;">string</text>
</g>
<!-- Node1&#45;&gt;Node3 -->
<g id="edge4" class="edge"><title>Node1&#45;&gt;Node3</title>
<path style="fill:none;stroke:midnightblue;" d="M198,-56C177,-47 146,-33 123,-23"/>
<polygon style="fill:midnightblue;stroke:midnightblue;" points="124.56,-19.8631 114,-19 121.717,-26.2598 124.56,-19.8631"/>
</g>
<!-- Node4 -->
<g id="node7" class="node"><title>Node4</title>
<polygon style="fill:white;stroke:#bfbfbf;" points="132,-0 132,-20 174,-20 174,-0 132,-0"/>
<text text-anchor="middle" x="153" y="-7" style="font-family:Arial;font-size:10.00;">vector</text>
</g>
<!-- Node1&#45;&gt;Node4 -->
<g id="edge6" class="edge"><title>Node1&#45;&gt;Node4</title>
<path style="fill:none;stroke:midnightblue;" d="M209,-56C198,-48 185,-36 173,-27"/>
<polygon style="fill:midnightblue;stroke:midnightblue;" points="174.831,-23.9511 165,-20 170.221,-29.2191 174.831,-23.9511"/>
</g>
<!-- Node5 -->
<g id="node9" class="node"><title>Node5</title>
<polygon style="fill:white;stroke:#bfbfbf;" points="192,-0 192,-20 250,-20 250,-0 192,-0"/>
<text text-anchor="middle" x="221" y="-7" style="font-family:Arial;font-size:10.00;">exception</text>
</g>
<!-- Node1&#45;&gt;Node5 -->
<g id="edge8" class="edge"><title>Node1&#45;&gt;Node5</title>
<path style="fill:none;stroke:midnightblue;" d="M221,-56C221,-49 221,-39 221,-30"/>
<polygon style="fill:midnightblue;stroke:midnightblue;" points="224.5,-30 221,-20 217.5,-30 224.5,-30"/>
</g>
<!-- Node6 -->
<g id="node11" class="node"><title>Node6</title>
<polygon style="fill:white;stroke:#bfbfbf;" points="268,-0 268,-20 322,-20 322,-0 268,-0"/>
<text text-anchor="middle" x="295" y="-7" style="font-family:Arial;font-size:10.00;">iostream</text>
</g>
<!-- Node1&#45;&gt;Node6 -->
<g id="edge10" class="edge"><title>Node1&#45;&gt;Node6</title>
<path style="fill:none;stroke:midnightblue;" d="M234,-56C245,-48 261,-36 274,-26"/>
<polygon style="fill:midnightblue;stroke:midnightblue;" points="276.1,-28.8 282,-20 271.9,-23.2 276.1,-28.8"/>
</g>
<!-- Node7 -->
<g id="node13" class="node"><title>Node7</title>
<polygon style="fill:white;stroke:#bfbfbf;" points="340,-0 340,-20 449,-20 449,-0 340,-0"/>
<text text-anchor="middle" x="394" y="-7" style="font-family:Arial;font-size:10.00;">boost/multi_array.hpp</text>
</g>
<!-- Node1&#45;&gt;Node7 -->
<g id="edge12" class="edge"><title>Node1&#45;&gt;Node7</title>
<path style="fill:none;stroke:midnightblue;" d="M252,-56C281,-47 323,-33 353,-23"/>
<polygon style="fill:midnightblue;stroke:midnightblue;" points="354.427,-26.2259 363,-20 352.416,-19.5212 354.427,-26.2259"/>
</g>
<!-- Node8 -->
<g id="node15" class="node"><title>Node8</title>
<polygon style="fill:white;stroke:#bfbfbf;" points="466,-0 466,-20 583,-20 583,-0 466,-0"/>
<text text-anchor="middle" x="524" y="-7" style="font-family:Arial;font-size:10.00;">ltr/interfaces/printable.h</text>
</g>
<!-- Node1&#45;&gt;Node8 -->
<g id="edge14" class="edge"><title>Node1&#45;&gt;Node8</title>
<path style="fill:none;stroke:midnightblue;" d="M273,-56C325,-47 404,-32 459,-22"/>
<polygon style="fill:midnightblue;stroke:midnightblue;" points="459.881,-25.3933 469,-20 458.508,-18.5292 459.881,-25.3933"/>
</g>
</g>
</svg>
