<?xml version="1.0" encoding="UTF-8" standalone="no"?>
<!DOCTYPE svg PUBLIC "-//W3C//DTD SVG 1.0//EN"
 "http://www.w3.org/TR/2001/REC-SVG-20010904/DTD/svg10.dtd" [
 <!ATTLIST svg xmlns:xlink CDATA #FIXED "http://www.w3.org/1999/xlink">
]>
<!-- Generated by Graphviz version 2.20.2 (Tue Mar &#160;2 19:03:41 UTC 2010)
     For user: (jenkins)  -->
<!-- Title: G Pages: 1 -->
<svg width="256pt" height="84pt"
 viewBox="0.00 0.00 256.00 84.00" xmlns="http://www.w3.org/2000/svg" xmlns:xlink="http://www.w3.org/1999/xlink">
<g id="graph0" class="graph" transform="scale(1 1) rotate(0) translate(4 80)">
<title>G</title>
<polygon style="fill:white;stroke:white;" points="-4,4 -4,-80 252,-80 252,4 -4,4"/>
<!-- Node1 -->
<g id="node1" class="node"><title>Node1</title>
<polygon style="fill:#bfbfbf;stroke:black;" points="50,-56 50,-76 188,-76 188,-56 50,-56"/>
<text text-anchor="middle" x="119" y="-63" style="font-family:Arial;font-size:10.00;">ltr/utility/multi_vector_print.h</text>
</g>
<!-- Node2 -->
<g id="node3" class="node"><title>Node2</title>
<polygon style="fill:white;stroke:#bfbfbf;" points="0,-0 0,-20 42,-20 42,-0 0,-0"/>
<text text-anchor="middle" x="21" y="-7" style="font-family:Arial;font-size:10.00;">vector</text>
</g>
<!-- Node1&#45;&gt;Node2 -->
<g id="edge2" class="edge"><title>Node1&#45;&gt;Node2</title>
<path style="fill:none;stroke:midnightblue;" d="M101,-56C86,-48 64,-35 48,-25"/>
<polygon style="fill:midnightblue;stroke:midnightblue;" points="49.4414,-21.7969 39,-20 46.0418,-27.916 49.4414,-21.7969"/>
</g>
<!-- Node3 -->
<g id="node5" class="node"><title>Node3</title>
<polygon style="fill:white;stroke:#bfbfbf;" points="60,-0 60,-20 114,-20 114,-0 60,-0"/>
<text text-anchor="middle" x="87" y="-7" style="font-family:Arial;font-size:10.00;">iostream</text>
</g>
<!-- Node1&#45;&gt;Node3 -->
<g id="edge4" class="edge"><title>Node1&#45;&gt;Node3</title>
<path style="fill:none;stroke:midnightblue;" d="M113,-56C108,-49 103,-38 98,-29"/>
<polygon style="fill:midnightblue;stroke:midnightblue;" points="100.916,-27.0418 93,-20 94.7969,-30.4414 100.916,-27.0418"/>
</g>
<!-- Node4 -->
<g id="node7" class="node"><title>Node4</title>
<polygon style="fill:white;stroke:#bfbfbf;" points="132,-0 132,-20 172,-20 172,-0 132,-0"/>
<text text-anchor="middle" x="152" y="-7" style="font-family:Arial;font-size:10.00;">string</text>
</g>
<!-- Node1&#45;&gt;Node4 -->
<g id="edge6" class="edge"><title>Node1&#45;&gt;Node4</title>
<path style="fill:none;stroke:midnightblue;" d="M125,-56C130,-49 136,-38 141,-29"/>
<polygon style="fill:midnightblue;stroke:midnightblue;" points="144.203,-30.4414 146,-20 138.084,-27.0418 144.203,-30.4414"/>
</g>
<!-- Node5 -->
<g id="node9" class="node"><title>Node5</title>
<polygon style="fill:white;stroke:#bfbfbf;" points="190,-0 190,-20 249,-20 249,-0 190,-0"/>
<text text-anchor="middle" x="219" y="-7" style="font-family:Arial;font-size:10.00;">stdexcept</text>
</g>
<!-- Node1&#45;&gt;Node5 -->
<g id="edge8" class="edge"><title>Node1&#45;&gt;Node5</title>
<path style="fill:none;stroke:midnightblue;" d="M137,-56C152,-48 174,-35 192,-25"/>
<polygon style="fill:midnightblue;stroke:midnightblue;" points="193.958,-27.916 201,-20 190.559,-21.7969 193.958,-27.916"/>
</g>
</g>
</svg>
