<?xml version="1.0" encoding="UTF-8" standalone="no"?>
<!DOCTYPE svg PUBLIC "-//W3C//DTD SVG 1.0//EN"
 "http://www.w3.org/TR/2001/REC-SVG-20010904/DTD/svg10.dtd" [
 <!ATTLIST svg xmlns:xlink CDATA #FIXED "http://www.w3.org/1999/xlink">
]>
<!-- Generated by Graphviz version 2.20.2 (Tue Mar &#160;2 19:03:41 UTC 2010)
     For user: (jenkins)  -->
<!-- Title: G Pages: 1 -->
<svg width="570pt" height="140pt"
 viewBox="0.00 0.00 570.00 140.00" xmlns="http://www.w3.org/2000/svg" xmlns:xlink="http://www.w3.org/1999/xlink">
<g id="graph0" class="graph" transform="scale(1 1) rotate(0) translate(4 136)">
<title>G</title>
<polygon style="fill:white;stroke:white;" points="-4,4 -4,-136 566,-136 566,4 -4,4"/>
<!-- Node1 -->
<g id="node1" class="node"><title>Node1</title>
<polygon style="fill:#bfbfbf;stroke:black;" points="149,-112 149,-132 253,-132 253,-112 149,-112"/>
<text text-anchor="middle" x="201" y="-119" style="font-family:Arial;font-size:10.00;">ltr/utility/multitable.h</text>
</g>
<!-- Node2 -->
<g id="node3" class="node"><title>Node2</title>
<polygon style="fill:white;stroke:#bfbfbf;" points="0,-56 0,-76 56,-76 56,-56 0,-56"/>
<text text-anchor="middle" x="28" y="-63" style="font-family:Arial;font-size:10.00;">algorithm</text>
</g>
<!-- Node1&#45;&gt;Node2 -->
<g id="edge2" class="edge"><title>Node1&#45;&gt;Node2</title>
<path style="fill:none;stroke:midnightblue;" d="M170,-112C140,-103 97,-88 66,-78"/>
<polygon style="fill:midnightblue;stroke:midnightblue;" points="66.584,-74.5212 56,-75 64.5725,-81.2259 66.584,-74.5212"/>
</g>
<!-- Node3 -->
<g id="node5" class="node"><title>Node3</title>
<polygon style="fill:white;stroke:#bfbfbf;" points="242,-0 242,-20 282,-20 282,-0 242,-0"/>
<text text-anchor="middle" x="262" y="-7" style="font-family:Arial;font-size:10.00;">string</text>
</g>
<!-- Node1&#45;&gt;Node3 -->
<g id="edge4" class="edge"><title>Node1&#45;&gt;Node3</title>
<path style="fill:none;stroke:midnightblue;" d="M162,-112C127,-101 84,-82 103,-56 119,-35 190,-20 232,-14"/>
<polygon style="fill:midnightblue;stroke:midnightblue;" points="232.398,-17.4778 242,-13 231.701,-10.5125 232.398,-17.4778"/>
</g>
<!-- Node4 -->
<g id="node7" class="node"><title>Node4</title>
<polygon style="fill:white;stroke:#bfbfbf;" points="112,-56 112,-76 154,-76 154,-56 112,-56"/>
<text text-anchor="middle" x="133" y="-63" style="font-family:Arial;font-size:10.00;">vector</text>
</g>
<!-- Node1&#45;&gt;Node4 -->
<g id="edge6" class="edge"><title>Node1&#45;&gt;Node4</title>
<path style="fill:none;stroke:midnightblue;" d="M189,-112C178,-104 165,-92 153,-83"/>
<polygon style="fill:midnightblue;stroke:midnightblue;" points="154.831,-79.9511 145,-76 150.221,-85.2191 154.831,-79.9511"/>
</g>
<!-- Node5 -->
<g id="node9" class="node"><title>Node5</title>
<polygon style="fill:white;stroke:#bfbfbf;" points="172,-56 172,-76 230,-76 230,-56 172,-56"/>
<text text-anchor="middle" x="201" y="-63" style="font-family:Arial;font-size:10.00;">exception</text>
</g>
<!-- Node1&#45;&gt;Node5 -->
<g id="edge8" class="edge"><title>Node1&#45;&gt;Node5</title>
<path style="fill:none;stroke:midnightblue;" d="M201,-112C201,-105 201,-95 201,-86"/>
<polygon style="fill:midnightblue;stroke:midnightblue;" points="204.5,-86 201,-76 197.5,-86 204.5,-86"/>
</g>
<!-- Node6 -->
<g id="node11" class="node"><title>Node6</title>
<polygon style="fill:white;stroke:#bfbfbf;" points="248,-56 248,-76 302,-76 302,-56 248,-56"/>
<text text-anchor="middle" x="275" y="-63" style="font-family:Arial;font-size:10.00;">iostream</text>
</g>
<!-- Node1&#45;&gt;Node6 -->
<g id="edge10" class="edge"><title>Node1&#45;&gt;Node6</title>
<path style="fill:none;stroke:midnightblue;" d="M214,-112C225,-104 241,-92 253,-83"/>
<polygon style="fill:midnightblue;stroke:midnightblue;" points="255.779,-85.2191 261,-76 251.169,-79.9511 255.779,-85.2191"/>
</g>
<!-- Node7 -->
<g id="node13" class="node"><title>Node7</title>
<polygon style="fill:white;stroke:#bfbfbf;" points="320,-56 320,-76 429,-76 429,-56 320,-56"/>
<text text-anchor="middle" x="374" y="-63" style="font-family:Arial;font-size:10.00;">boost/multi_array.hpp</text>
</g>
<!-- Node1&#45;&gt;Node7 -->
<g id="edge12" class="edge"><title>Node1&#45;&gt;Node7</title>
<path style="fill:none;stroke:midnightblue;" d="M232,-112C261,-103 303,-89 333,-79"/>
<polygon style="fill:midnightblue;stroke:midnightblue;" points="334.427,-82.2259 343,-76 332.416,-75.5212 334.427,-82.2259"/>
</g>
<!-- Node8 -->
<g id="node15" class="node"><title>Node8</title>
<a xlink:href="printable_8h.html" target="_top" xlink:title="ltr/interfaces/printable.h">
<polygon style="fill:white;stroke:black;" points="446,-56 446,-76 563,-76 563,-56 446,-56"/>
<text text-anchor="middle" x="504" y="-63" style="font-family:Arial;font-size:10.00;">ltr/interfaces/printable.h</text>
</a>
</g>
<!-- Node1&#45;&gt;Node8 -->
<g id="edge14" class="edge"><title>Node1&#45;&gt;Node8</title>
<path style="fill:none;stroke:midnightblue;" d="M253,-112C305,-103 384,-88 439,-78"/>
<polygon style="fill:midnightblue;stroke:midnightblue;" points="439.881,-81.3933 449,-76 438.508,-74.5292 439.881,-81.3933"/>
</g>
<!-- Node8&#45;&gt;Node3 -->
<g id="edge18" class="edge"><title>Node8&#45;&gt;Node3</title>
<path style="fill:none;stroke:midnightblue;" d="M461,-56C412,-45 334,-27 292,-17"/>
<polygon style="fill:midnightblue;stroke:midnightblue;" points="292.492,-13.5292 282,-15 291.119,-20.3933 292.492,-13.5292"/>
</g>
<!-- Node9 -->
<g id="node17" class="node"><title>Node9</title>
<polygon style="fill:white;stroke:#bfbfbf;" points="479,-0 479,-20 530,-20 530,-0 479,-0"/>
<text text-anchor="middle" x="504" y="-7" style="font-family:Arial;font-size:10.00;">ostream</text>
</g>
<!-- Node8&#45;&gt;Node9 -->
<g id="edge16" class="edge"><title>Node8&#45;&gt;Node9</title>
<path style="fill:none;stroke:midnightblue;" d="M504,-56C504,-49 504,-39 504,-30"/>
<polygon style="fill:midnightblue;stroke:midnightblue;" points="507.5,-30 504,-20 500.5,-30 507.5,-30"/>
</g>
</g>
</svg>
