<?xml version="1.0" encoding="UTF-8" standalone="no"?>
<!DOCTYPE svg PUBLIC "-//W3C//DTD SVG 1.0//EN"
 "http://www.w3.org/TR/2001/REC-SVG-20010904/DTD/svg10.dtd" [
 <!ATTLIST svg xmlns:xlink CDATA #FIXED "http://www.w3.org/1999/xlink">
]>
<!-- Generated by Graphviz version 2.20.2 (Tue Mar &#160;2 19:03:41 UTC 2010)
     For user: (jenkins)  -->
<!-- Title: G Pages: 1 -->
<svg width="1862pt" height="420pt"
 viewBox="0.00 0.00 1862.00 420.00" xmlns="http://www.w3.org/2000/svg" xmlns:xlink="http://www.w3.org/1999/xlink">
<g id="graph0" class="graph" transform="scale(1 1) rotate(0) translate(4 416)">
<title>G</title>
<polygon style="fill:white;stroke:white;" points="-4,4 -4,-416 1858,-416 1858,4 -4,4"/>
<!-- Node1 -->
<g id="node1" class="node"><title>Node1</title>
<polygon style="fill:#bfbfbf;stroke:black;" points="797,-392 797,-412 1022,-412 1022,-392 797,-392"/>
<text text-anchor="middle" x="909" y="-399" style="font-family:Arial;font-size:10.00;">ltr/feature_converters/nan_to_neutral_converter.h</text>
</g>
<!-- Node2 -->
<g id="node3" class="node"><title>Node2</title>
<polygon style="fill:white;stroke:#bfbfbf;" points="1029,-0 1029,-20 1069,-20 1069,-0 1029,-0"/>
<text text-anchor="middle" x="1049" y="-7" style="font-family:Arial;font-size:10.00;">string</text>
</g>
<!-- Node1&#45;&gt;Node2 -->
<g id="edge2" class="edge"><title>Node1&#45;&gt;Node2</title>
<path style="fill:none;stroke:midnightblue;" d="M797,-399C563,-391 46,-364 46,-290 46,-290 46,-290 46,-122 46,-91 42,-74 65,-56 103,-26 857,-13 1019,-10"/>
<polygon style="fill:midnightblue;stroke:midnightblue;" points="1019,-13.5001 1029,-10 1019,-6.5001 1019,-13.5001"/>
</g>
<!-- Node3 -->
<g id="node5" class="node"><title>Node3</title>
<polygon style="fill:white;stroke:#bfbfbf;" points="1577,-56 1577,-76 1619,-76 1619,-56 1577,-56"/>
<text text-anchor="middle" x="1598" y="-63" style="font-family:Arial;font-size:10.00;">vector</text>
</g>
<!-- Node1&#45;&gt;Node3 -->
<g id="edge4" class="edge"><title>Node1&#45;&gt;Node3</title>
<path style="fill:none;stroke:midnightblue;" d="M1022,-398C1244,-388 1712,-359 1712,-290 1712,-290 1712,-290 1712,-178 1712,-130 1662,-96 1628,-79"/>
<polygon style="fill:midnightblue;stroke:midnightblue;" points="1629.56,-75.8631 1619,-75 1626.72,-82.2598 1629.56,-75.8631"/>
</g>
<!-- Node4 -->
<g id="node7" class="node"><title>Node4</title>
<a xlink:href="feature__converter_8h.html" target="_top" xlink:title="ltr/feature_converters/feature_converter.h">
<polygon style="fill:white;stroke:black;" points="814,-336 814,-356 1004,-356 1004,-336 814,-336"/>
<text text-anchor="middle" x="909" y="-343" style="font-family:Arial;font-size:10.00;">ltr/feature_converters/feature_converter.h</text>
</a>
</g>
<!-- Node1&#45;&gt;Node4 -->
<g id="edge6" class="edge"><title>Node1&#45;&gt;Node4</title>
<path style="fill:none;stroke:midnightblue;" d="M909,-392C909,-385 909,-375 909,-366"/>
<polygon style="fill:midnightblue;stroke:midnightblue;" points="912.5,-366 909,-356 905.5,-366 912.5,-366"/>
</g>
<!-- Node19 -->
<g id="node62" class="node"><title>Node19</title>
<a xlink:href="parameterized_8h.html" target="_top" xlink:title="ltr/interfaces/parameterized.h">
<polygon style="fill:white;stroke:black;" points="555,-168 555,-188 697,-188 697,-168 555,-168"/>
<text text-anchor="middle" x="626" y="-175" style="font-family:Arial;font-size:10.00;">ltr/interfaces/parameterized.h</text>
</a>
</g>
<!-- Node1&#45;&gt;Node19 -->
<g id="edge160" class="edge"><title>Node1&#45;&gt;Node19</title>
<path style="fill:none;stroke:midnightblue;" d="M879,-392C858,-384 828,-372 805,-356 736,-308 668,-230 640,-196"/>
<polygon style="fill:midnightblue;stroke:midnightblue;" points="642.8,-193.9 634,-188 637.2,-198.1 642.8,-193.9"/>
</g>
<!-- Node30 -->
<g id="node107" class="node"><title>Node30</title>
<a xlink:href="numerical_8h.html" target="_top" xlink:title="ltr/utility/numerical.h">
<polygon style="fill:white;stroke:black;" points="1740,-336 1740,-356 1844,-356 1844,-336 1740,-336"/>
<text text-anchor="middle" x="1792" y="-343" style="font-family:Arial;font-size:10.00;">ltr/utility/numerical.h</text>
</a>
</g>
<!-- Node1&#45;&gt;Node30 -->
<g id="edge154" class="edge"><title>Node1&#45;&gt;Node30</title>
<path style="fill:none;stroke:midnightblue;" d="M1022,-399C1180,-394 1476,-382 1726,-356 1727,-356 1729,-355 1730,-355"/>
<polygon style="fill:midnightblue;stroke:midnightblue;" points="1730.4,-358.478 1740,-354 1729.7,-351.512 1730.4,-358.478"/>
</g>
<!-- Node4&#45;&gt;Node2 -->
<g id="edge10" class="edge"><title>Node4&#45;&gt;Node2</title>
<path style="fill:none;stroke:midnightblue;" d="M910,-336C912,-323 916,-299 922,-280 954,-181 1014,-72 1038,-29"/>
<polygon style="fill:midnightblue;stroke:midnightblue;" points="1041.2,-30.4414 1043,-20 1035.08,-27.0418 1041.2,-30.4414"/>
</g>
<!-- Node4&#45;&gt;Node3 -->
<g id="edge8" class="edge"><title>Node4&#45;&gt;Node3</title>
<path style="fill:none;stroke:midnightblue;" d="M1004,-342C1209,-331 1674,-300 1674,-234 1674,-234 1674,-234 1674,-178 1674,-138 1641,-103 1619,-83"/>
<polygon style="fill:midnightblue;stroke:midnightblue;" points="1620.83,-79.9511 1611,-76 1616.22,-85.2191 1620.83,-79.9511"/>
</g>
<!-- Node5 -->
<g id="node11" class="node"><title>Node5</title>
<polygon style="fill:white;stroke:#bfbfbf;" points="1134,-56 1134,-76 1193,-76 1193,-56 1134,-56"/>
<text text-anchor="middle" x="1163" y="-63" style="font-family:Arial;font-size:10.00;">stdexcept</text>
</g>
<!-- Node4&#45;&gt;Node5 -->
<g id="edge12" class="edge"><title>Node4&#45;&gt;Node5</title>
<path style="fill:none;stroke:midnightblue;" d="M912,-336C919,-314 938,-261 966,-224 1016,-160 1096,-106 1137,-81"/>
<polygon style="fill:midnightblue;stroke:midnightblue;" points="1138.96,-83.916 1146,-76 1135.56,-77.7969 1138.96,-83.916"/>
</g>
<!-- Node6 -->
<g id="node13" class="node"><title>Node6</title>
<a xlink:href="data__set_8h.html" target="_top" xlink:title="ltr/data/data_set.h">
<polygon style="fill:white;stroke:black;" points="1178,-280 1178,-300 1273,-300 1273,-280 1178,-280"/>
<text text-anchor="middle" x="1225" y="-287" style="font-family:Arial;font-size:10.00;">ltr/data/data_set.h</text>
</a>
</g>
<!-- Node4&#45;&gt;Node6 -->
<g id="edge14" class="edge"><title>Node4&#45;&gt;Node6</title>
<path style="fill:none;stroke:midnightblue;" d="M965,-336C1023,-326 1110,-310 1168,-300"/>
<polygon style="fill:midnightblue;stroke:midnightblue;" points="1168.88,-303.393 1178,-298 1167.51,-296.529 1168.88,-303.393"/>
</g>
<!-- Node8 -->
<g id="node20" class="node"><title>Node8</title>
<a xlink:href="object_8h.html" target="_top" xlink:title="ltr/data/object.h">
<polygon style="fill:white;stroke:black;" points="1334,-112 1334,-132 1418,-132 1418,-112 1334,-112"/>
<text text-anchor="middle" x="1376" y="-119" style="font-family:Arial;font-size:10.00;">ltr/data/object.h</text>
</a>
</g>
<!-- Node4&#45;&gt;Node8 -->
<g id="edge130" class="edge"><title>Node4&#45;&gt;Node8</title>
<path style="fill:none;stroke:midnightblue;" d="M1004,-340C1088,-333 1214,-321 1322,-300 1414,-282 1466,-317 1523,-244 1559,-197 1473,-156 1418,-135"/>
<polygon style="fill:midnightblue;stroke:midnightblue;" points="1418.58,-131.521 1408,-132 1416.57,-138.226 1418.58,-131.521"/>
</g>
<!-- Node12 -->
<g id="node33" class="node"><title>Node12</title>
<a xlink:href="shared__ptr_8h.html" target="_top" xlink:title="ltr/utility/shared_ptr.h">
<polygon style="fill:white;stroke:black;" points="74,-56 74,-76 181,-76 181,-56 74,-56"/>
<text text-anchor="middle" x="127" y="-63" style="font-family:Arial;font-size:10.00;">ltr/utility/shared_ptr.h</text>
</a>
</g>
<!-- Node4&#45;&gt;Node12 -->
<g id="edge152" class="edge"><title>Node4&#45;&gt;Node12</title>
<path style="fill:none;stroke:midnightblue;" d="M814,-342C610,-331 153,-299 153,-234 153,-234 153,-234 153,-178 153,-144 142,-108 134,-86"/>
<polygon style="fill:midnightblue;stroke:midnightblue;" points="137.226,-84.5725 131,-76 130.521,-86.584 137.226,-84.5725"/>
</g>
<!-- Node18 -->
<g id="node57" class="node"><title>Node18</title>
<a xlink:href="feature__info_8h.html" target="_top" xlink:title="ltr/data/feature_info.h">
<polygon style="fill:white;stroke:black;" points="1408,-224 1408,-244 1515,-244 1515,-224 1408,-224"/>
<text text-anchor="middle" x="1461" y="-231" style="font-family:Arial;font-size:10.00;">ltr/data/feature_info.h</text>
</a>
</g>
<!-- Node4&#45;&gt;Node18 -->
<g id="edge128" class="edge"><title>Node4&#45;&gt;Node18</title>
<path style="fill:none;stroke:midnightblue;" d="M1004,-340C1080,-334 1189,-322 1281,-300 1334,-286 1394,-263 1429,-248"/>
<polygon style="fill:midnightblue;stroke:midnightblue;" points="1430.28,-251.26 1438,-244 1427.44,-244.863 1430.28,-251.26"/>
</g>
<!-- Node4&#45;&gt;Node19 -->
<g id="edge134" class="edge"><title>Node4&#45;&gt;Node19</title>
<path style="fill:none;stroke:midnightblue;" d="M888,-336C870,-327 843,-313 819,-300 756,-264 685,-218 649,-194"/>
<polygon style="fill:midnightblue;stroke:midnightblue;" points="651.1,-191.2 641,-188 646.9,-196.8 651.1,-191.2"/>
</g>
<!-- Node25 -->
<g id="node81" class="node"><title>Node25</title>
<a xlink:href="per__object__accessor_8h.html" target="_top" xlink:title="ltr/data/per_object_accessor.h">
<polygon style="fill:white;stroke:black;" points="975,-224 975,-244 1122,-244 1122,-224 975,-224"/>
<text text-anchor="middle" x="1048" y="-231" style="font-family:Arial;font-size:10.00;">ltr/data/per_object_accessor.h</text>
</a>
</g>
<!-- Node4&#45;&gt;Node25 -->
<g id="edge132" class="edge"><title>Node4&#45;&gt;Node25</title>
<path style="fill:none;stroke:midnightblue;" d="M922,-336C946,-316 998,-274 1027,-251"/>
<polygon style="fill:midnightblue;stroke:midnightblue;" points="1029.78,-253.219 1035,-244 1025.17,-247.951 1029.78,-253.219"/>
</g>
<!-- Node26 -->
<g id="node88" class="node"><title>Node26</title>
<a xlink:href="aliaser_8h.html" target="_top" xlink:title="ltr/interfaces/aliaser.h">
<polygon style="fill:white;stroke:black;" points="894,-56 894,-76 1002,-76 1002,-56 894,-56"/>
<text text-anchor="middle" x="948" y="-63" style="font-family:Arial;font-size:10.00;">ltr/interfaces/aliaser.h</text>
</a>
</g>
<!-- Node4&#45;&gt;Node26 -->
<g id="edge150" class="edge"><title>Node4&#45;&gt;Node26</title>
<path style="fill:none;stroke:midnightblue;" d="M894,-336C883,-327 867,-314 857,-300 840,-274 833,-265 833,-234 833,-234 833,-234 833,-178 833,-131 881,-98 915,-81"/>
<polygon style="fill:midnightblue;stroke:midnightblue;" points="916.958,-83.916 924,-76 913.559,-77.7969 916.958,-83.916"/>
</g>
<!-- Node27 -->
<g id="node95" class="node"><title>Node27</title>
<a xlink:href="serializable_8h.html" target="_top" xlink:title="ltr/interfaces/serializable.h">
<polygon style="fill:white;stroke:black;" points="378,-112 378,-132 507,-132 507,-112 378,-112"/>
<text text-anchor="middle" x="442" y="-119" style="font-family:Arial;font-size:10.00;">ltr/interfaces/serializable.h</text>
</a>
</g>
<!-- Node4&#45;&gt;Node27 -->
<g id="edge136" class="edge"><title>Node4&#45;&gt;Node27</title>
<path style="fill:none;stroke:midnightblue;" d="M880,-336C855,-327 818,-313 785,-300 677,-254 649,-244 546,-188 518,-172 486,-151 466,-138"/>
<polygon style="fill:midnightblue;stroke:midnightblue;" points="467.262,-134.635 457,-132 463.379,-140.459 467.262,-134.635"/>
</g>
<!-- Node6&#45;&gt;Node2 -->
<g id="edge20" class="edge"><title>Node6&#45;&gt;Node2</title>
<path style="fill:none;stroke:midnightblue;" d="M1213,-280C1195,-266 1162,-241 1130,-224 1094,-203 1067,-222 1043,-188 1039,-181 1045,-76 1047,-30"/>
<polygon style="fill:midnightblue;stroke:midnightblue;" points="1050.49,-30.2987 1048,-20 1043.52,-29.6021 1050.49,-30.2987"/>
</g>
<!-- Node6&#45;&gt;Node3 -->
<g id="edge22" class="edge"><title>Node6&#45;&gt;Node3</title>
<path style="fill:none;stroke:midnightblue;" d="M1273,-287C1347,-283 1483,-271 1523,-244 1570,-211 1570,-186 1589,-132 1594,-117 1596,-100 1597,-86"/>
<polygon style="fill:midnightblue;stroke:midnightblue;" points="1600.49,-86.2987 1598,-76 1593.52,-85.6021 1600.49,-86.2987"/>
</g>
<!-- Node6&#45;&gt;Node5 -->
<g id="edge18" class="edge"><title>Node6&#45;&gt;Node5</title>
<path style="fill:none;stroke:midnightblue;" d="M1222,-280C1213,-245 1181,-132 1169,-86"/>
<polygon style="fill:midnightblue;stroke:midnightblue;" points="1172.23,-84.5725 1166,-76 1165.52,-86.584 1172.23,-84.5725"/>
</g>
<!-- Node7 -->
<g id="node15" class="node"><title>Node7</title>
<polygon style="fill:white;stroke:#bfbfbf;" points="1291,-224 1291,-244 1342,-244 1342,-224 1291,-224"/>
<text text-anchor="middle" x="1316" y="-231" style="font-family:Arial;font-size:10.00;">sstream</text>
</g>
<!-- Node6&#45;&gt;Node7 -->
<g id="edge16" class="edge"><title>Node6&#45;&gt;Node7</title>
<path style="fill:none;stroke:midnightblue;" d="M1241,-280C1254,-272 1275,-259 1290,-249"/>
<polygon style="fill:midnightblue;stroke:midnightblue;" points="1291.96,-251.916 1299,-244 1288.56,-245.797 1291.96,-251.916"/>
</g>
<!-- Node6&#45;&gt;Node8 -->
<g id="edge24" class="edge"><title>Node6&#45;&gt;Node8</title>
<path style="fill:none;stroke:midnightblue;" d="M1264,-280C1296,-271 1339,-257 1350,-244 1375,-215 1379,-169 1378,-142"/>
<polygon style="fill:midnightblue;stroke:midnightblue;" points="1381.48,-141.602 1377,-132 1374.51,-142.299 1381.48,-141.602"/>
</g>
<!-- Node16 -->
<g id="node41" class="node"><title>Node16</title>
<a xlink:href="object__list_8h.html" target="_top" xlink:title="ltr/data/object_list.h">
<polygon style="fill:white;stroke:black;" points="1212,-168 1212,-188 1314,-188 1314,-168 1212,-168"/>
<text text-anchor="middle" x="1263" y="-175" style="font-family:Arial;font-size:10.00;">ltr/data/object_list.h</text>
</a>
</g>
<!-- Node6&#45;&gt;Node16 -->
<g id="edge50" class="edge"><title>Node6&#45;&gt;Node16</title>
<path style="fill:none;stroke:midnightblue;" d="M1229,-280C1235,-261 1248,-222 1257,-198"/>
<polygon style="fill:midnightblue;stroke:midnightblue;" points="1260.48,-198.584 1260,-188 1253.77,-196.573 1260.48,-198.584"/>
</g>
<!-- Node17 -->
<g id="node49" class="node"><title>Node17</title>
<a xlink:href="object__pair_8h.html" target="_top" xlink:title="ltr/data/object_pair.h">
<polygon style="fill:white;stroke:black;" points="1052,-168 1052,-188 1156,-188 1156,-168 1052,-168"/>
<text text-anchor="middle" x="1104" y="-175" style="font-family:Arial;font-size:10.00;">ltr/data/object_pair.h</text>
</a>
</g>
<!-- Node6&#45;&gt;Node17 -->
<g id="edge64" class="edge"><title>Node6&#45;&gt;Node17</title>
<path style="fill:none;stroke:midnightblue;" d="M1216,-280C1205,-266 1183,-242 1163,-224 1152,-214 1138,-203 1127,-194"/>
<polygon style="fill:midnightblue;stroke:midnightblue;" points="1129.1,-191.2 1119,-188 1124.9,-196.8 1129.1,-191.2"/>
</g>
<!-- Node6&#45;&gt;Node18 -->
<g id="edge78" class="edge"><title>Node6&#45;&gt;Node18</title>
<path style="fill:none;stroke:midnightblue;" d="M1267,-280C1307,-271 1366,-256 1409,-246"/>
<polygon style="fill:midnightblue;stroke:midnightblue;" points="1409.88,-249.393 1419,-244 1408.51,-242.529 1409.88,-249.393"/>
</g>
<!-- Node6&#45;&gt;Node25 -->
<g id="edge112" class="edge"><title>Node6&#45;&gt;Node25</title>
<path style="fill:none;stroke:midnightblue;" d="M1193,-280C1164,-271 1121,-257 1090,-247"/>
<polygon style="fill:midnightblue;stroke:midnightblue;" points="1090.58,-243.521 1080,-244 1088.57,-250.226 1090.58,-243.521"/>
</g>
<!-- Node6&#45;&gt;Node26 -->
<g id="edge124" class="edge"><title>Node6&#45;&gt;Node26</title>
<path style="fill:none;stroke:midnightblue;" d="M1178,-288C1111,-284 994,-274 966,-244 925,-200 935,-122 943,-86"/>
<polygon style="fill:midnightblue;stroke:midnightblue;" points="946.471,-86.4922 945,-76 939.607,-85.1194 946.471,-86.4922"/>
</g>
<!-- Node8&#45;&gt;Node2 -->
<g id="edge32" class="edge"><title>Node8&#45;&gt;Node2</title>
<path style="fill:none;stroke:midnightblue;" d="M1379,-112C1383,-97 1387,-71 1373,-56 1354,-34 1156,-18 1079,-12"/>
<polygon style="fill:midnightblue;stroke:midnightblue;" points="1079.3,-8.5125 1069,-11 1078.6,-15.4778 1079.3,-8.5125"/>
</g>
<!-- Node8&#45;&gt;Node3 -->
<g id="edge34" class="edge"><title>Node8&#45;&gt;Node3</title>
<path style="fill:none;stroke:midnightblue;" d="M1416,-112C1459,-101 1528,-84 1567,-74"/>
<polygon style="fill:midnightblue;stroke:midnightblue;" points="1568.43,-77.2259 1577,-71 1566.42,-70.5212 1568.43,-77.2259"/>
</g>
<!-- Node8&#45;&gt;Node5 -->
<g id="edge30" class="edge"><title>Node8&#45;&gt;Node5</title>
<path style="fill:none;stroke:midnightblue;" d="M1338,-112C1300,-102 1242,-87 1203,-77"/>
<polygon style="fill:midnightblue;stroke:midnightblue;" points="1203.58,-73.5212 1193,-74 1201.57,-80.2259 1203.58,-73.5212"/>
</g>
<!-- Node9 -->
<g id="node22" class="node"><title>Node9</title>
<polygon style="fill:white;stroke:#bfbfbf;" points="1459,-56 1459,-76 1494,-76 1494,-56 1459,-56"/>
<text text-anchor="middle" x="1476" y="-63" style="font-family:Arial;font-size:10.00;">map</text>
</g>
<!-- Node8&#45;&gt;Node9 -->
<g id="edge26" class="edge"><title>Node8&#45;&gt;Node9</title>
<path style="fill:none;stroke:midnightblue;" d="M1394,-112C1409,-104 1432,-91 1450,-81"/>
<polygon style="fill:midnightblue;stroke:midnightblue;" points="1451.96,-83.916 1459,-76 1448.56,-77.7969 1451.96,-83.916"/>
</g>
<!-- Node10 -->
<g id="node24" class="node"><title>Node10</title>
<polygon style="fill:white;stroke:#bfbfbf;" points="1343,-0 1343,-20 1394,-20 1394,-0 1343,-0"/>
<text text-anchor="middle" x="1368" y="-7" style="font-family:Arial;font-size:10.00;">ostream</text>
</g>
<!-- Node8&#45;&gt;Node10 -->
<g id="edge28" class="edge"><title>Node8&#45;&gt;Node10</title>
<path style="fill:none;stroke:midnightblue;" d="M1386,-112C1397,-99 1413,-76 1406,-56 1402,-46 1395,-36 1388,-27"/>
<polygon style="fill:midnightblue;stroke:midnightblue;" points="1389.83,-23.9511 1380,-20 1385.22,-29.2191 1389.83,-23.9511"/>
</g>
<!-- Node11 -->
<g id="node29" class="node"><title>Node11</title>
<a xlink:href="printable_8h.html" target="_top" xlink:title="ltr/interfaces/printable.h">
<polygon style="fill:white;stroke:black;" points="1248,-56 1248,-76 1365,-76 1365,-56 1248,-56"/>
<text text-anchor="middle" x="1306" y="-63" style="font-family:Arial;font-size:10.00;">ltr/interfaces/printable.h</text>
</a>
</g>
<!-- Node8&#45;&gt;Node11 -->
<g id="edge36" class="edge"><title>Node8&#45;&gt;Node11</title>
<path style="fill:none;stroke:midnightblue;" d="M1363,-112C1353,-104 1338,-93 1327,-83"/>
<polygon style="fill:midnightblue;stroke:midnightblue;" points="1328.83,-79.9511 1319,-76 1324.22,-85.2191 1328.83,-79.9511"/>
</g>
<!-- Node8&#45;&gt;Node12 -->
<g id="edge42" class="edge"><title>Node8&#45;&gt;Node12</title>
<path style="fill:none;stroke:midnightblue;" d="M1334,-121C1153,-117 438,-99 191,-76"/>
<polygon style="fill:midnightblue;stroke:midnightblue;" points="191.299,-72.5125 181,-75 190.602,-79.4778 191.299,-72.5125"/>
</g>
<!-- Node11&#45;&gt;Node2 -->
<g id="edge40" class="edge"><title>Node11&#45;&gt;Node2</title>
<path style="fill:none;stroke:midnightblue;" d="M1260,-56C1207,-45 1124,-26 1079,-16"/>
<polygon style="fill:midnightblue;stroke:midnightblue;" points="1079.49,-12.5292 1069,-14 1078.12,-19.3933 1079.49,-12.5292"/>
</g>
<!-- Node11&#45;&gt;Node10 -->
<g id="edge38" class="edge"><title>Node11&#45;&gt;Node10</title>
<path style="fill:none;stroke:midnightblue;" d="M1317,-56C1326,-48 1339,-37 1349,-27"/>
<polygon style="fill:midnightblue;stroke:midnightblue;" points="1351.78,-29.2191 1357,-20 1347.17,-23.9511 1351.78,-29.2191"/>
</g>
<!-- Node13 -->
<g id="node35" class="node"><title>Node13</title>
<polygon style="fill:white;stroke:#bfbfbf;" points="0,-0 0,-20 56,-20 56,-0 0,-0"/>
<text text-anchor="middle" x="28" y="-7" style="font-family:Arial;font-size:10.00;">algorithm</text>
</g>
<!-- Node12&#45;&gt;Node13 -->
<g id="edge44" class="edge"><title>Node12&#45;&gt;Node13</title>
<path style="fill:none;stroke:midnightblue;" d="M109,-56C94,-48 72,-35 55,-25"/>
<polygon style="fill:midnightblue;stroke:midnightblue;" points="56.4414,-21.7969 46,-20 53.0418,-27.916 56.4414,-21.7969"/>
</g>
<!-- Node14 -->
<g id="node37" class="node"><title>Node14</title>
<polygon style="fill:white;stroke:#bfbfbf;" points="74,-0 74,-20 181,-20 181,-0 74,-0"/>
<text text-anchor="middle" x="127" y="-7" style="font-family:Arial;font-size:10.00;">boost/shared_ptr.hpp</text>
</g>
<!-- Node12&#45;&gt;Node14 -->
<g id="edge46" class="edge"><title>Node12&#45;&gt;Node14</title>
<path style="fill:none;stroke:midnightblue;" d="M127,-56C127,-49 127,-39 127,-30"/>
<polygon style="fill:midnightblue;stroke:midnightblue;" points="130.5,-30 127,-20 123.5,-30 130.5,-30"/>
</g>
<!-- Node15 -->
<g id="node39" class="node"><title>Node15</title>
<polygon style="fill:white;stroke:#bfbfbf;" points="198,-0 198,-20 389,-20 389,-0 198,-0"/>
<text text-anchor="middle" x="293" y="-7" style="font-family:Arial;font-size:10.00;">boost/smart_ptr/detail/operator_bool.hpp</text>
</g>
<!-- Node12&#45;&gt;Node15 -->
<g id="edge48" class="edge"><title>Node12&#45;&gt;Node15</title>
<path style="fill:none;stroke:midnightblue;" d="M157,-56C184,-47 224,-33 253,-23"/>
<polygon style="fill:midnightblue;stroke:midnightblue;" points="254.427,-26.2259 263,-20 252.416,-19.5212 254.427,-26.2259"/>
</g>
<!-- Node16&#45;&gt;Node2 -->
<g id="edge54" class="edge"><title>Node16&#45;&gt;Node2</title>
<path style="fill:none;stroke:midnightblue;" d="M1261,-168C1255,-144 1238,-86 1201,-56 1166,-26 1113,-16 1079,-12"/>
<polygon style="fill:midnightblue;stroke:midnightblue;" points="1079.3,-8.5125 1069,-11 1078.6,-15.4778 1079.3,-8.5125"/>
</g>
<!-- Node16&#45;&gt;Node3 -->
<g id="edge56" class="edge"><title>Node16&#45;&gt;Node3</title>
<path style="fill:none;stroke:midnightblue;" d="M1314,-169C1355,-161 1412,-149 1460,-132 1500,-118 1544,-95 1571,-81"/>
<polygon style="fill:midnightblue;stroke:midnightblue;" points="1572.96,-83.916 1580,-76 1569.56,-77.7969 1572.96,-83.916"/>
</g>
<!-- Node16&#45;&gt;Node5 -->
<g id="edge52" class="edge"><title>Node16&#45;&gt;Node5</title>
<path style="fill:none;stroke:midnightblue;" d="M1254,-168C1237,-148 1200,-108 1179,-84"/>
<polygon style="fill:midnightblue;stroke:midnightblue;" points="1181.22,-81.221 1172,-76 1175.95,-85.8306 1181.22,-81.221"/>
</g>
<!-- Node16&#45;&gt;Node8 -->
<g id="edge58" class="edge"><title>Node16&#45;&gt;Node8</title>
<path style="fill:none;stroke:midnightblue;" d="M1283,-168C1301,-159 1327,-146 1347,-136"/>
<polygon style="fill:midnightblue;stroke:midnightblue;" points="1348.28,-139.26 1356,-132 1345.44,-132.863 1348.28,-139.26"/>
</g>
<!-- Node16&#45;&gt;Node11 -->
<g id="edge60" class="edge"><title>Node16&#45;&gt;Node11</title>
<path style="fill:none;stroke:midnightblue;" d="M1267,-168C1271,-158 1277,-144 1282,-132 1288,-116 1295,-99 1299,-85"/>
<polygon style="fill:midnightblue;stroke:midnightblue;" points="1302.14,-86.5596 1303,-76 1295.74,-83.7166 1302.14,-86.5596"/>
</g>
<!-- Node16&#45;&gt;Node12 -->
<g id="edge62" class="edge"><title>Node16&#45;&gt;Node12</title>
<path style="fill:none;stroke:midnightblue;" d="M1212,-172C1197,-171 1180,-169 1165,-168 989,-155 540,-179 369,-132 351,-127 350,-118 332,-112 307,-102 241,-88 191,-78"/>
<polygon style="fill:midnightblue;stroke:midnightblue;" points="191.492,-74.5292 181,-76 190.119,-81.3933 191.492,-74.5292"/>
</g>
<!-- Node17&#45;&gt;Node2 -->
<g id="edge68" class="edge"><title>Node17&#45;&gt;Node2</title>
<path style="fill:none;stroke:midnightblue;" d="M1104,-168C1103,-146 1099,-94 1082,-56 1078,-46 1072,-36 1065,-28"/>
<polygon style="fill:midnightblue;stroke:midnightblue;" points="1067.8,-25.9 1059,-20 1062.2,-30.1 1067.8,-25.9"/>
</g>
<!-- Node17&#45;&gt;Node3 -->
<g id="edge70" class="edge"><title>Node17&#45;&gt;Node3</title>
<path style="fill:none;stroke:midnightblue;" d="M1156,-172C1241,-161 1402,-141 1427,-132 1443,-126 1444,-119 1460,-112 1495,-95 1538,-82 1567,-74"/>
<polygon style="fill:midnightblue;stroke:midnightblue;" points="1568.43,-77.2259 1577,-71 1566.42,-70.5212 1568.43,-77.2259"/>
</g>
<!-- Node17&#45;&gt;Node5 -->
<g id="edge66" class="edge"><title>Node17&#45;&gt;Node5</title>
<path style="fill:none;stroke:midnightblue;" d="M1109,-168C1120,-149 1140,-109 1153,-85"/>
<polygon style="fill:midnightblue;stroke:midnightblue;" points="1156.2,-86.4414 1158,-76 1150.08,-83.0418 1156.2,-86.4414"/>
</g>
<!-- Node17&#45;&gt;Node8 -->
<g id="edge72" class="edge"><title>Node17&#45;&gt;Node8</title>
<path style="fill:none;stroke:midnightblue;" d="M1153,-168C1201,-158 1275,-143 1324,-133"/>
<polygon style="fill:midnightblue;stroke:midnightblue;" points="1324.88,-136.393 1334,-131 1323.51,-129.529 1324.88,-136.393"/>
</g>
<!-- Node17&#45;&gt;Node11 -->
<g id="edge74" class="edge"><title>Node17&#45;&gt;Node11</title>
<path style="fill:none;stroke:midnightblue;" d="M1122,-168C1158,-148 1237,-104 1279,-81"/>
<polygon style="fill:midnightblue;stroke:midnightblue;" points="1280.96,-83.916 1288,-76 1277.56,-77.7969 1280.96,-83.916"/>
</g>
<!-- Node17&#45;&gt;Node12 -->
<g id="edge76" class="edge"><title>Node17&#45;&gt;Node12</title>
<path style="fill:none;stroke:midnightblue;" d="M1052,-177C902,-174 473,-163 336,-132 314,-126 310,-119 288,-112 252,-99 209,-88 178,-79"/>
<polygon style="fill:midnightblue;stroke:midnightblue;" points="178.584,-75.5212 168,-76 176.573,-82.2259 178.584,-75.5212"/>
</g>
<!-- Node18&#45;&gt;Node2 -->
<g id="edge82" class="edge"><title>Node18&#45;&gt;Node2</title>
<path style="fill:none;stroke:midnightblue;" d="M1469,-224C1490,-193 1546,-105 1502,-56 1473,-24 1176,-14 1079,-10"/>
<polygon style="fill:midnightblue;stroke:midnightblue;" points="1079,-6.5001 1069,-10 1079,-13.5001 1079,-6.5001"/>
</g>
<!-- Node18&#45;&gt;Node3 -->
<g id="edge84" class="edge"><title>Node18&#45;&gt;Node3</title>
<path style="fill:none;stroke:midnightblue;" d="M1483,-224C1500,-216 1521,-204 1536,-188 1564,-157 1583,-112 1592,-86"/>
<polygon style="fill:midnightblue;stroke:midnightblue;" points="1595.48,-86.584 1595,-76 1588.77,-84.5725 1595.48,-86.584"/>
</g>
<!-- Node18&#45;&gt;Node9 -->
<g id="edge80" class="edge"><title>Node18&#45;&gt;Node9</title>
<path style="fill:none;stroke:midnightblue;" d="M1462,-224C1464,-197 1470,-123 1474,-86"/>
<polygon style="fill:midnightblue;stroke:midnightblue;" points="1477.49,-86.2987 1475,-76 1470.52,-85.6021 1477.49,-86.2987"/>
</g>
<!-- Node18&#45;&gt;Node12 -->
<g id="edge110" class="edge"><title>Node18&#45;&gt;Node12</title>
<path style="fill:none;stroke:midnightblue;" d="M1408,-229C1390,-227 1369,-226 1350,-224 1064,-198 993,-192 706,-168 521,-151 465,-191 288,-132 273,-126 272,-119 256,-112 230,-99 198,-87 172,-79"/>
<polygon style="fill:midnightblue;stroke:midnightblue;" points="172.584,-75.5212 162,-76 170.573,-82.2259 172.584,-75.5212"/>
</g>
<!-- Node18&#45;&gt;Node19 -->
<g id="edge86" class="edge"><title>Node18&#45;&gt;Node19</title>
<path style="fill:none;stroke:midnightblue;" d="M1408,-229C1390,-227 1369,-225 1350,-224 1067,-203 995,-212 711,-188 710,-188 708,-188 707,-188"/>
<polygon style="fill:midnightblue;stroke:midnightblue;" points="707.492,-184.529 697,-186 706.119,-191.393 707.492,-184.529"/>
</g>
<!-- Node19&#45;&gt;Node2 -->
<g id="edge90" class="edge"><title>Node19&#45;&gt;Node2</title>
<path style="fill:none;stroke:midnightblue;" d="M608,-168C569,-145 477,-90 469,-76 465,-68 463,-62 469,-56 487,-36 902,-16 1019,-11"/>
<polygon style="fill:midnightblue;stroke:midnightblue;" points="1019,-14.5001 1029,-11 1019,-7.5001 1019,-14.5001"/>
</g>
<!-- Node19&#45;&gt;Node5 -->
<g id="edge88" class="edge"><title>Node19&#45;&gt;Node5</title>
<path style="fill:none;stroke:midnightblue;" d="M674,-168C779,-146 1028,-94 1124,-74"/>
<polygon style="fill:midnightblue;stroke:midnightblue;" points="1124.88,-77.3933 1134,-72 1123.51,-70.5292 1124.88,-77.3933"/>
</g>
<!-- Node20 -->
<g id="node66" class="node"><title>Node20</title>
<a xlink:href="parameters__container_8h.html" target="_top" xlink:title="ltr/parameters_container/parameters_container.h">
<polygon style="fill:white;stroke:black;" points="562,-112 562,-132 787,-132 787,-112 562,-112"/>
<text text-anchor="middle" x="674" y="-119" style="font-family:Arial;font-size:10.00;">ltr/parameters_container/parameters_container.h</text>
</a>
</g>
<!-- Node19&#45;&gt;Node20 -->
<g id="edge92" class="edge"><title>Node19&#45;&gt;Node20</title>
<path style="fill:none;stroke:midnightblue;" d="M635,-168C641,-160 651,-149 659,-140"/>
<polygon style="fill:midnightblue;stroke:midnightblue;" points="661.8,-142.1 665,-132 656.2,-137.9 661.8,-142.1"/>
</g>
<!-- Node20&#45;&gt;Node2 -->
<g id="edge100" class="edge"><title>Node20&#45;&gt;Node2</title>
<path style="fill:none;stroke:midnightblue;" d="M722,-112C757,-104 806,-92 847,-76 865,-69 868,-63 885,-56 931,-37 986,-24 1019,-16"/>
<polygon style="fill:midnightblue;stroke:midnightblue;" points="1019.88,-19.3933 1029,-14 1018.51,-12.5292 1019.88,-19.3933"/>
</g>
<!-- Node20&#45;&gt;Node5 -->
<g id="edge98" class="edge"><title>Node20&#45;&gt;Node5</title>
<path style="fill:none;stroke:midnightblue;" d="M761,-112C868,-100 1045,-80 1124,-70"/>
<polygon style="fill:midnightblue;stroke:midnightblue;" points="1124.4,-73.4778 1134,-69 1123.7,-66.5125 1124.4,-73.4778"/>
</g>
<!-- Node20&#45;&gt;Node11 -->
<g id="edge108" class="edge"><title>Node20&#45;&gt;Node11</title>
<path style="fill:none;stroke:midnightblue;" d="M787,-112C894,-103 1058,-89 1201,-76 1213,-74 1226,-73 1238,-72"/>
<polygon style="fill:midnightblue;stroke:midnightblue;" points="1238.4,-75.4778 1248,-71 1237.7,-68.5125 1238.4,-75.4778"/>
</g>
<!-- Node20&#45;&gt;Node12 -->
<g id="edge106" class="edge"><title>Node20&#45;&gt;Node12</title>
<path style="fill:none;stroke:midnightblue;" d="M562,-113C466,-105 323,-93 191,-76"/>
<polygon style="fill:midnightblue;stroke:midnightblue;" points="191.299,-72.5125 181,-75 190.602,-79.4778 191.299,-72.5125"/>
</g>
<!-- Node21 -->
<g id="node68" class="node"><title>Node21</title>
<polygon style="fill:white;stroke:#bfbfbf;" points="478,-56 478,-76 552,-76 552,-56 478,-56"/>
<text text-anchor="middle" x="515" y="-63" style="font-family:Arial;font-size:10.00;">logog/logog.h</text>
</g>
<!-- Node20&#45;&gt;Node21 -->
<g id="edge94" class="edge"><title>Node20&#45;&gt;Node21</title>
<path style="fill:none;stroke:midnightblue;" d="M646,-112C620,-103 582,-89 554,-79"/>
<polygon style="fill:midnightblue;stroke:midnightblue;" points="554.584,-75.5212 544,-76 552.573,-82.2259 554.584,-75.5212"/>
</g>
<!-- Node22 -->
<g id="node70" class="node"><title>Node22</title>
<polygon style="fill:white;stroke:#bfbfbf;" points="570,-56 570,-76 599,-76 599,-56 570,-56"/>
<text text-anchor="middle" x="584" y="-63" style="font-family:Arial;font-size:10.00;">list</text>
</g>
<!-- Node20&#45;&gt;Node22 -->
<g id="edge96" class="edge"><title>Node20&#45;&gt;Node22</title>
<path style="fill:none;stroke:midnightblue;" d="M658,-112C644,-104 623,-91 608,-81"/>
<polygon style="fill:midnightblue;stroke:midnightblue;" points="609.262,-77.6349 599,-75 605.379,-83.4592 609.262,-77.6349"/>
</g>
<!-- Node23 -->
<g id="node74" class="node"><title>Node23</title>
<polygon style="fill:white;stroke:#bfbfbf;" points="616,-56 616,-76 693,-76 693,-56 616,-56"/>
<text text-anchor="middle" x="654" y="-63" style="font-family:Arial;font-size:10.00;">boost/any.hpp</text>
</g>
<!-- Node20&#45;&gt;Node23 -->
<g id="edge102" class="edge"><title>Node20&#45;&gt;Node23</title>
<path style="fill:none;stroke:midnightblue;" d="M670,-112C668,-105 664,-95 661,-86"/>
<polygon style="fill:midnightblue;stroke:midnightblue;" points="664.226,-84.5725 658,-76 657.521,-86.584 664.226,-84.5725"/>
</g>
<!-- Node24 -->
<g id="node76" class="node"><title>Node24</title>
<polygon style="fill:white;stroke:#bfbfbf;" points="710,-56 710,-76 839,-76 839,-56 710,-56"/>
<text text-anchor="middle" x="774" y="-63" style="font-family:Arial;font-size:10.00;">boost/unordered_map.hpp</text>
</g>
<!-- Node20&#45;&gt;Node24 -->
<g id="edge104" class="edge"><title>Node20&#45;&gt;Node24</title>
<path style="fill:none;stroke:midnightblue;" d="M692,-112C707,-104 729,-91 747,-81"/>
<polygon style="fill:midnightblue;stroke:midnightblue;" points="748.958,-83.916 756,-76 745.559,-77.7969 748.958,-83.916"/>
</g>
<!-- Node25&#45;&gt;Node8 -->
<g id="edge114" class="edge"><title>Node25&#45;&gt;Node8</title>
<path style="fill:none;stroke:midnightblue;" d="M1122,-228C1192,-220 1290,-207 1323,-188 1342,-177 1357,-156 1366,-141"/>
<polygon style="fill:midnightblue;stroke:midnightblue;" points="1369.2,-142.441 1371,-132 1363.08,-139.042 1369.2,-142.441"/>
</g>
<!-- Node25&#45;&gt;Node12 -->
<g id="edge122" class="edge"><title>Node25&#45;&gt;Node12</title>
<path style="fill:none;stroke:midnightblue;" d="M975,-229C877,-223 698,-209 546,-188 418,-169 383,-173 260,-132 222,-119 179,-96 153,-81"/>
<polygon style="fill:midnightblue;stroke:midnightblue;" points="154.441,-77.7969 144,-76 151.042,-83.916 154.441,-77.7969"/>
</g>
<!-- Node25&#45;&gt;Node16 -->
<g id="edge118" class="edge"><title>Node25&#45;&gt;Node16</title>
<path style="fill:none;stroke:midnightblue;" d="M1086,-224C1122,-215 1175,-201 1214,-191"/>
<polygon style="fill:midnightblue;stroke:midnightblue;" points="1215.43,-194.226 1224,-188 1213.42,-187.521 1215.43,-194.226"/>
</g>
<!-- Node25&#45;&gt;Node17 -->
<g id="edge116" class="edge"><title>Node25&#45;&gt;Node17</title>
<path style="fill:none;stroke:midnightblue;" d="M1058,-224C1066,-216 1077,-205 1087,-195"/>
<polygon style="fill:midnightblue;stroke:midnightblue;" points="1089.4,-197.546 1094,-188 1084.45,-192.596 1089.4,-197.546"/>
</g>
<!-- Node25&#45;&gt;Node19 -->
<g id="edge120" class="edge"><title>Node25&#45;&gt;Node19</title>
<path style="fill:none;stroke:midnightblue;" d="M975,-224C900,-214 784,-199 707,-188"/>
<polygon style="fill:midnightblue;stroke:midnightblue;" points="707.299,-184.512 697,-187 706.602,-191.478 707.299,-184.512"/>
</g>
<!-- Node26&#45;&gt;Node2 -->
<g id="edge126" class="edge"><title>Node26&#45;&gt;Node2</title>
<path style="fill:none;stroke:midnightblue;" d="M966,-56C981,-47 1004,-35 1022,-25"/>
<polygon style="fill:midnightblue;stroke:midnightblue;" points="1023.96,-27.916 1031,-20 1020.56,-21.7969 1023.96,-27.916"/>
</g>
<!-- Node27&#45;&gt;Node2 -->
<g id="edge142" class="edge"><title>Node27&#45;&gt;Node2</title>
<path style="fill:none;stroke:midnightblue;" d="M437,-112C431,-97 422,-71 436,-56 456,-34 898,-16 1019,-11"/>
<polygon style="fill:midnightblue;stroke:midnightblue;" points="1019,-14.5001 1029,-11 1019,-7.5001 1019,-14.5001"/>
</g>
<!-- Node27&#45;&gt;Node12 -->
<g id="edge146" class="edge"><title>Node27&#45;&gt;Node12</title>
<path style="fill:none;stroke:midnightblue;" d="M386,-112C331,-103 248,-88 191,-78"/>
<polygon style="fill:midnightblue;stroke:midnightblue;" points="191.492,-74.5292 181,-76 190.119,-81.3933 191.492,-74.5292"/>
</g>
<!-- Node27&#45;&gt;Node21 -->
<g id="edge140" class="edge"><title>Node27&#45;&gt;Node21</title>
<path style="fill:none;stroke:midnightblue;" d="M455,-112C466,-104 481,-92 494,-82"/>
<polygon style="fill:midnightblue;stroke:midnightblue;" points="496.1,-84.8 502,-76 491.9,-79.2 496.1,-84.8"/>
</g>
<!-- Node27&#45;&gt;Node26 -->
<g id="edge148" class="edge"><title>Node27&#45;&gt;Node26</title>
<path style="fill:none;stroke:midnightblue;" d="M507,-115C605,-104 787,-83 884,-73"/>
<polygon style="fill:midnightblue;stroke:midnightblue;" points="884.398,-76.4778 894,-72 883.701,-69.5125 884.398,-76.4778"/>
</g>
<!-- Node28 -->
<g id="node97" class="node"><title>Node28</title>
<polygon style="fill:white;stroke:#bfbfbf;" points="270,-56 270,-76 384,-76 384,-56 270,-56"/>
<text text-anchor="middle" x="327" y="-63" style="font-family:Arial;font-size:10.00;">boost/lexical_cast.hpp</text>
</g>
<!-- Node27&#45;&gt;Node28 -->
<g id="edge138" class="edge"><title>Node27&#45;&gt;Node28</title>
<path style="fill:none;stroke:midnightblue;" d="M421,-112C403,-103 377,-90 357,-81"/>
<polygon style="fill:midnightblue;stroke:midnightblue;" points="358.441,-77.7969 348,-76 355.042,-83.916 358.441,-77.7969"/>
</g>
<!-- Node29 -->
<g id="node101" class="node"><title>Node29</title>
<polygon style="fill:white;stroke:#bfbfbf;" points="198,-56 198,-76 252,-76 252,-56 198,-56"/>
<text text-anchor="middle" x="225" y="-63" style="font-family:Arial;font-size:10.00;">iostream</text>
</g>
<!-- Node27&#45;&gt;Node29 -->
<g id="edge144" class="edge"><title>Node27&#45;&gt;Node29</title>
<path style="fill:none;stroke:midnightblue;" d="M402,-112C367,-104 316,-91 262,-76"/>
<polygon style="fill:midnightblue;stroke:midnightblue;" points="262.584,-72.5212 252,-73 260.573,-79.2259 262.584,-72.5212"/>
</g>
<!-- Node31 -->
<g id="node109" class="node"><title>Node31</title>
<polygon style="fill:white;stroke:#bfbfbf;" points="1756,-280 1756,-300 1799,-300 1799,-280 1756,-280"/>
<text text-anchor="middle" x="1777" y="-287" style="font-family:Arial;font-size:10.00;">cmath</text>
</g>
<!-- Node30&#45;&gt;Node31 -->
<g id="edge156" class="edge"><title>Node30&#45;&gt;Node31</title>
<path style="fill:none;stroke:midnightblue;" d="M1789,-336C1788,-329 1785,-319 1782,-310"/>
<polygon style="fill:midnightblue;stroke:midnightblue;" points="1785.39,-309.119 1780,-300 1778.53,-310.492 1785.39,-309.119"/>
</g>
<!-- Node32 -->
<g id="node111" class="node"><title>Node32</title>
<polygon style="fill:white;stroke:#bfbfbf;" points="1816,-280 1816,-300 1855,-300 1855,-280 1816,-280"/>
<text text-anchor="middle" x="1835" y="-287" style="font-family:Arial;font-size:10.00;">limits</text>
</g>
<!-- Node30&#45;&gt;Node32 -->
<g id="edge158" class="edge"><title>Node30&#45;&gt;Node32</title>
<path style="fill:none;stroke:midnightblue;" d="M1800,-336C1806,-328 1814,-318 1821,-308"/>
<polygon style="fill:midnightblue;stroke:midnightblue;" points="1823.8,-310.1 1827,-300 1818.2,-305.9 1823.8,-310.1"/>
</g>
</g>
</svg>
