<?xml version="1.0" encoding="UTF-8" standalone="no"?>
<!DOCTYPE svg PUBLIC "-//W3C//DTD SVG 1.0//EN"
 "http://www.w3.org/TR/2001/REC-SVG-20010904/DTD/svg10.dtd" [
 <!ATTLIST svg xmlns:xlink CDATA #FIXED "http://www.w3.org/1999/xlink">
]>
<!-- Generated by Graphviz version 2.20.2 (Tue Mar &#160;2 19:03:41 UTC 2010)
     For user: (jenkins)  -->
<!-- Title: G Pages: 1 -->
<svg width="1674pt" height="476pt"
 viewBox="0.00 0.00 1674.00 476.00" xmlns="http://www.w3.org/2000/svg" xmlns:xlink="http://www.w3.org/1999/xlink">
<g id="graph0" class="graph" transform="scale(1 1) rotate(0) translate(4 472)">
<title>G</title>
<polygon style="fill:white;stroke:white;" points="-4,4 -4,-472 1670,-472 1670,4 -4,4"/>
<!-- Node1 -->
<g id="node1" class="node"><title>Node1</title>
<polygon style="fill:#bfbfbf;stroke:black;" points="27,-448 27,-468 257,-468 257,-448 27,-448"/>
<text text-anchor="middle" x="142" y="-455" style="font-family:Arial;font-size:10.00;">ltr/feature_converters/nan_to_neutral_converter.cc</text>
</g>
<!-- Node2 -->
<g id="node3" class="node"><title>Node2</title>
<polygon style="fill:white;stroke:#bfbfbf;" points="28,-224 28,-244 142,-244 142,-224 28,-224"/>
<text text-anchor="middle" x="85" y="-231" style="font-family:Arial;font-size:10.00;">boost/lexical_cast.hpp</text>
</g>
<!-- Node1&#45;&gt;Node2 -->
<g id="edge2" class="edge"><title>Node1&#45;&gt;Node2</title>
<path style="fill:none;stroke:midnightblue;" d="M139,-448C131,-413 102,-300 90,-254"/>
<polygon style="fill:midnightblue;stroke:midnightblue;" points="93.3933,-253.119 88,-244 86.5292,-254.492 93.3933,-253.119"/>
</g>
<!-- Node3 -->
<g id="node5" class="node"><title>Node3</title>
<a xlink:href="nan__to__neutral__converter_8h.html" target="_top" xlink:title="ltr/feature_converters/nan_to_neutral_converter.h">
<polygon style="fill:white;stroke:black;" points="362,-392 362,-412 587,-412 587,-392 362,-392"/>
<text text-anchor="middle" x="474" y="-399" style="font-family:Arial;font-size:10.00;">ltr/feature_converters/nan_to_neutral_converter.h</text>
</a>
</g>
<!-- Node1&#45;&gt;Node3 -->
<g id="edge4" class="edge"><title>Node1&#45;&gt;Node3</title>
<path style="fill:none;stroke:midnightblue;" d="M201,-448C259,-439 345,-424 405,-414"/>
<polygon style="fill:midnightblue;stroke:midnightblue;" points="405.881,-417.393 415,-412 404.508,-410.529 405.881,-417.393"/>
</g>
<!-- Node4 -->
<g id="node7" class="node"><title>Node4</title>
<polygon style="fill:white;stroke:#bfbfbf;" points="596,-0 596,-20 636,-20 636,-0 596,-0"/>
<text text-anchor="middle" x="616" y="-7" style="font-family:Arial;font-size:10.00;">string</text>
</g>
<!-- Node3&#45;&gt;Node4 -->
<g id="edge6" class="edge"><title>Node3&#45;&gt;Node4</title>
<path style="fill:none;stroke:midnightblue;" d="M404,-392C272,-371 0,-318 0,-234 0,-234 0,-234 0,-122 0,-57 68,-74 130,-56 217,-30 494,-15 586,-11"/>
<polygon style="fill:midnightblue;stroke:midnightblue;" points="586,-14.5001 596,-11 586,-7.5001 586,-14.5001"/>
</g>
<!-- Node5 -->
<g id="node9" class="node"><title>Node5</title>
<polygon style="fill:white;stroke:#bfbfbf;" points="1314,-56 1314,-76 1356,-76 1356,-56 1314,-56"/>
<text text-anchor="middle" x="1335" y="-63" style="font-family:Arial;font-size:10.00;">vector</text>
</g>
<!-- Node3&#45;&gt;Node5 -->
<g id="edge8" class="edge"><title>Node3&#45;&gt;Node5</title>
<path style="fill:none;stroke:midnightblue;" d="M587,-396C859,-380 1525,-336 1525,-290 1525,-290 1525,-290 1525,-178 1525,-104 1420,-78 1366,-70"/>
<polygon style="fill:midnightblue;stroke:midnightblue;" points="1366.49,-66.5292 1356,-68 1365.12,-73.3933 1366.49,-66.5292"/>
</g>
<!-- Node6 -->
<g id="node11" class="node"><title>Node6</title>
<a xlink:href="feature__converter_8h.html" target="_top" xlink:title="ltr/feature_converters/feature_converter.h">
<polygon style="fill:white;stroke:black;" points="607,-336 607,-356 797,-356 797,-336 607,-336"/>
<text text-anchor="middle" x="702" y="-343" style="font-family:Arial;font-size:10.00;">ltr/feature_converters/feature_converter.h</text>
</a>
</g>
<!-- Node3&#45;&gt;Node6 -->
<g id="edge10" class="edge"><title>Node3&#45;&gt;Node6</title>
<path style="fill:none;stroke:midnightblue;" d="M515,-392C553,-383 610,-368 651,-358"/>
<polygon style="fill:midnightblue;stroke:midnightblue;" points="651.881,-361.393 661,-356 650.508,-354.529 651.881,-361.393"/>
</g>
<!-- Node21 -->
<g id="node66" class="node"><title>Node21</title>
<a xlink:href="parameterized_8h.html" target="_top" xlink:title="ltr/interfaces/parameterized.h">
<polygon style="fill:white;stroke:black;" points="311,-168 311,-188 453,-188 453,-168 311,-168"/>
<text text-anchor="middle" x="382" y="-175" style="font-family:Arial;font-size:10.00;">ltr/interfaces/parameterized.h</text>
</a>
</g>
<!-- Node3&#45;&gt;Node21 -->
<g id="edge164" class="edge"><title>Node3&#45;&gt;Node21</title>
<path style="fill:none;stroke:midnightblue;" d="M434,-392C390,-379 318,-350 278,-300 258,-272 246,-252 265,-224 273,-211 305,-200 333,-191"/>
<polygon style="fill:midnightblue;stroke:midnightblue;" points="334.427,-194.226 343,-188 332.416,-187.521 334.427,-194.226"/>
</g>
<!-- Node31 -->
<g id="node110" class="node"><title>Node31</title>
<a xlink:href="numerical_8h.html" target="_top" xlink:title="ltr/utility/numerical.h">
<polygon style="fill:white;stroke:black;" points="1553,-336 1553,-356 1657,-356 1657,-336 1553,-336"/>
<text text-anchor="middle" x="1605" y="-343" style="font-family:Arial;font-size:10.00;">ltr/utility/numerical.h</text>
</a>
</g>
<!-- Node3&#45;&gt;Node31 -->
<g id="edge158" class="edge"><title>Node3&#45;&gt;Node31</title>
<path style="fill:none;stroke:midnightblue;" d="M587,-401C782,-398 1194,-389 1539,-356 1540,-356 1542,-356 1543,-356"/>
<polygon style="fill:midnightblue;stroke:midnightblue;" points="1543.88,-359.393 1553,-354 1542.51,-352.529 1543.88,-359.393"/>
</g>
<!-- Node6&#45;&gt;Node4 -->
<g id="edge14" class="edge"><title>Node6&#45;&gt;Node4</title>
<path style="fill:none;stroke:midnightblue;" d="M607,-340C491,-331 306,-316 278,-300 176,-241 151,-193 135,-76 134,-67 130,-62 135,-56 166,-22 485,-13 586,-10"/>
<polygon style="fill:midnightblue;stroke:midnightblue;" points="586,-13.5001 596,-10 586,-6.5001 586,-13.5001"/>
</g>
<!-- Node6&#45;&gt;Node5 -->
<g id="edge12" class="edge"><title>Node6&#45;&gt;Node5</title>
<path style="fill:none;stroke:midnightblue;" d="M797,-342C1006,-333 1487,-303 1487,-234 1487,-234 1487,-234 1487,-178 1487,-119 1410,-87 1366,-74"/>
<polygon style="fill:midnightblue;stroke:midnightblue;" points="1366.58,-70.5212 1356,-71 1364.57,-77.2259 1366.58,-70.5212"/>
</g>
<!-- Node7 -->
<g id="node15" class="node"><title>Node7</title>
<polygon style="fill:white;stroke:#bfbfbf;" points="701,-56 701,-76 760,-76 760,-56 701,-56"/>
<text text-anchor="middle" x="730" y="-63" style="font-family:Arial;font-size:10.00;">stdexcept</text>
</g>
<!-- Node6&#45;&gt;Node7 -->
<g id="edge16" class="edge"><title>Node6&#45;&gt;Node7</title>
<path style="fill:none;stroke:midnightblue;" d="M662,-336C605,-319 511,-282 538,-224 572,-153 653,-104 699,-81"/>
<polygon style="fill:midnightblue;stroke:midnightblue;" points="700.958,-83.916 708,-76 697.559,-77.7969 700.958,-83.916"/>
</g>
<!-- Node8 -->
<g id="node17" class="node"><title>Node8</title>
<a xlink:href="data__set_8h.html" target="_top" xlink:title="ltr/data/data_set.h">
<polygon style="fill:white;stroke:black;" points="919,-280 919,-300 1014,-300 1014,-280 919,-280"/>
<text text-anchor="middle" x="966" y="-287" style="font-family:Arial;font-size:10.00;">ltr/data/data_set.h</text>
</a>
</g>
<!-- Node6&#45;&gt;Node8 -->
<g id="edge18" class="edge"><title>Node6&#45;&gt;Node8</title>
<path style="fill:none;stroke:midnightblue;" d="M749,-336C794,-327 861,-312 909,-302"/>
<polygon style="fill:midnightblue;stroke:midnightblue;" points="909.881,-305.393 919,-300 908.508,-298.529 909.881,-305.393"/>
</g>
<!-- Node10 -->
<g id="node24" class="node"><title>Node10</title>
<a xlink:href="object_8h.html" target="_top" xlink:title="ltr/data/object.h">
<polygon style="fill:white;stroke:black;" points="957,-112 957,-132 1041,-132 1041,-112 957,-112"/>
<text text-anchor="middle" x="999" y="-119" style="font-family:Arial;font-size:10.00;">ltr/data/object.h</text>
</a>
</g>
<!-- Node6&#45;&gt;Node10 -->
<g id="edge134" class="edge"><title>Node6&#45;&gt;Node10</title>
<path style="fill:none;stroke:midnightblue;" d="M716,-336C764,-300 921,-181 978,-138"/>
<polygon style="fill:midnightblue;stroke:midnightblue;" points="980.1,-140.8 986,-132 975.9,-135.2 980.1,-140.8"/>
</g>
<!-- Node14 -->
<g id="node37" class="node"><title>Node14</title>
<a xlink:href="shared__ptr_8h.html" target="_top" xlink:title="ltr/utility/shared_ptr.h">
<polygon style="fill:white;stroke:black;" points="1092,-56 1092,-76 1199,-76 1199,-56 1092,-56"/>
<text text-anchor="middle" x="1145" y="-63" style="font-family:Arial;font-size:10.00;">ltr/utility/shared_ptr.h</text>
</a>
</g>
<!-- Node6&#45;&gt;Node14 -->
<g id="edge156" class="edge"><title>Node6&#45;&gt;Node14</title>
<path style="fill:none;stroke:midnightblue;" d="M797,-340C982,-326 1373,-291 1373,-234 1373,-234 1373,-234 1373,-178 1373,-138 1259,-98 1193,-79"/>
<polygon style="fill:midnightblue;stroke:midnightblue;" points="1193.58,-75.5212 1183,-76 1191.57,-82.2259 1193.58,-75.5212"/>
</g>
<!-- Node20 -->
<g id="node61" class="node"><title>Node20</title>
<a xlink:href="feature__info_8h.html" target="_top" xlink:title="ltr/data/feature_info.h">
<polygon style="fill:white;stroke:black;" points="711,-224 711,-244 818,-244 818,-224 711,-224"/>
<text text-anchor="middle" x="764" y="-231" style="font-family:Arial;font-size:10.00;">ltr/data/feature_info.h</text>
</a>
</g>
<!-- Node6&#45;&gt;Node20 -->
<g id="edge132" class="edge"><title>Node6&#45;&gt;Node20</title>
<path style="fill:none;stroke:midnightblue;" d="M708,-336C719,-317 740,-277 753,-253"/>
<polygon style="fill:midnightblue;stroke:midnightblue;" points="756.203,-254.441 758,-244 750.084,-251.042 756.203,-254.441"/>
</g>
<!-- Node6&#45;&gt;Node21 -->
<g id="edge138" class="edge"><title>Node6&#45;&gt;Node21</title>
<path style="fill:none;stroke:midnightblue;" d="M615,-336C579,-329 538,-318 505,-300 457,-273 416,-223 395,-196"/>
<polygon style="fill:midnightblue;stroke:midnightblue;" points="397.8,-193.9 389,-188 392.2,-198.1 397.8,-193.9"/>
</g>
<!-- Node27 -->
<g id="node85" class="node"><title>Node27</title>
<a xlink:href="per__object__accessor_8h.html" target="_top" xlink:title="ltr/data/per_object_accessor.h">
<polygon style="fill:white;stroke:black;" points="1139,-224 1139,-244 1286,-244 1286,-224 1139,-224"/>
<text text-anchor="middle" x="1212" y="-231" style="font-family:Arial;font-size:10.00;">ltr/data/per_object_accessor.h</text>
</a>
</g>
<!-- Node6&#45;&gt;Node27 -->
<g id="edge136" class="edge"><title>Node6&#45;&gt;Node27</title>
<path style="fill:none;stroke:midnightblue;" d="M797,-337C862,-330 948,-318 1022,-300 1078,-286 1141,-262 1178,-248"/>
<polygon style="fill:midnightblue;stroke:midnightblue;" points="1180.02,-250.964 1188,-244 1177.42,-244.464 1180.02,-250.964"/>
</g>
<!-- Node28 -->
<g id="node92" class="node"><title>Node28</title>
<a xlink:href="aliaser_8h.html" target="_top" xlink:title="ltr/interfaces/aliaser.h">
<polygon style="fill:white;stroke:black;" points="547,-224 547,-244 655,-244 655,-224 547,-224"/>
<text text-anchor="middle" x="601" y="-231" style="font-family:Arial;font-size:10.00;">ltr/interfaces/aliaser.h</text>
</a>
</g>
<!-- Node6&#45;&gt;Node28 -->
<g id="edge154" class="edge"><title>Node6&#45;&gt;Node28</title>
<path style="fill:none;stroke:midnightblue;" d="M693,-336C676,-316 639,-275 617,-251"/>
<polygon style="fill:midnightblue;stroke:midnightblue;" points="619.546,-248.596 610,-244 614.596,-253.546 619.546,-248.596"/>
</g>
<!-- Node29 -->
<g id="node99" class="node"><title>Node29</title>
<a xlink:href="serializable_8h.html" target="_top" xlink:title="ltr/interfaces/serializable.h">
<polygon style="fill:white;stroke:black;" points="287,-280 287,-300 416,-300 416,-280 287,-280"/>
<text text-anchor="middle" x="351" y="-287" style="font-family:Arial;font-size:10.00;">ltr/interfaces/serializable.h</text>
</a>
</g>
<!-- Node6&#45;&gt;Node29 -->
<g id="edge140" class="edge"><title>Node6&#45;&gt;Node29</title>
<path style="fill:none;stroke:midnightblue;" d="M639,-336C578,-327 487,-312 423,-302"/>
<polygon style="fill:midnightblue;stroke:midnightblue;" points="423.492,-298.529 413,-300 422.119,-305.393 423.492,-298.529"/>
</g>
<!-- Node8&#45;&gt;Node4 -->
<g id="edge24" class="edge"><title>Node8&#45;&gt;Node4</title>
<path style="fill:none;stroke:midnightblue;" d="M919,-287C852,-283 734,-271 702,-244 636,-188 620,-76 617,-30"/>
<polygon style="fill:midnightblue;stroke:midnightblue;" points="620.478,-29.6021 616,-20 613.512,-30.2987 620.478,-29.6021"/>
</g>
<!-- Node8&#45;&gt;Node5 -->
<g id="edge26" class="edge"><title>Node8&#45;&gt;Node5</title>
<path style="fill:none;stroke:midnightblue;" d="M980,-280C1002,-263 1045,-231 1062,-224 1177,-174 1259,-236 1328,-132 1337,-119 1338,-100 1338,-86"/>
<polygon style="fill:midnightblue;stroke:midnightblue;" points="1341.48,-85.6021 1337,-76 1334.51,-86.2987 1341.48,-85.6021"/>
</g>
<!-- Node8&#45;&gt;Node7 -->
<g id="edge22" class="edge"><title>Node8&#45;&gt;Node7</title>
<path style="fill:none;stroke:midnightblue;" d="M956,-280C929,-255 859,-188 799,-132 782,-115 763,-96 749,-83"/>
<polygon style="fill:midnightblue;stroke:midnightblue;" points="750.831,-79.9511 741,-76 746.221,-85.2191 750.831,-79.9511"/>
</g>
<!-- Node9 -->
<g id="node19" class="node"><title>Node9</title>
<polygon style="fill:white;stroke:#bfbfbf;" points="1071,-224 1071,-244 1122,-244 1122,-224 1071,-224"/>
<text text-anchor="middle" x="1096" y="-231" style="font-family:Arial;font-size:10.00;">sstream</text>
</g>
<!-- Node8&#45;&gt;Node9 -->
<g id="edge20" class="edge"><title>Node8&#45;&gt;Node9</title>
<path style="fill:none;stroke:midnightblue;" d="M989,-280C1010,-271 1040,-258 1063,-248"/>
<polygon style="fill:midnightblue;stroke:midnightblue;" points="1065.02,-250.964 1073,-244 1062.42,-244.464 1065.02,-250.964"/>
</g>
<!-- Node8&#45;&gt;Node10 -->
<g id="edge28" class="edge"><title>Node8&#45;&gt;Node10</title>
<path style="fill:none;stroke:midnightblue;" d="M961,-280C951,-258 931,-206 948,-168 953,-156 964,-145 974,-138"/>
<polygon style="fill:midnightblue;stroke:midnightblue;" points="976.1,-140.8 982,-132 971.9,-135.2 976.1,-140.8"/>
</g>
<!-- Node18 -->
<g id="node45" class="node"><title>Node18</title>
<a xlink:href="object__list_8h.html" target="_top" xlink:title="ltr/data/object_list.h">
<polygon style="fill:white;stroke:black;" points="1117,-168 1117,-188 1219,-188 1219,-168 1117,-168"/>
<text text-anchor="middle" x="1168" y="-175" style="font-family:Arial;font-size:10.00;">ltr/data/object_list.h</text>
</a>
</g>
<!-- Node8&#45;&gt;Node18 -->
<g id="edge54" class="edge"><title>Node8&#45;&gt;Node18</title>
<path style="fill:none;stroke:midnightblue;" d="M973,-280C984,-265 1005,-239 1029,-224 1053,-209 1083,-198 1108,-191"/>
<polygon style="fill:midnightblue;stroke:midnightblue;" points="1109.43,-194.226 1118,-188 1107.42,-187.521 1109.43,-194.226"/>
</g>
<!-- Node19 -->
<g id="node53" class="node"><title>Node19</title>
<a xlink:href="object__pair_8h.html" target="_top" xlink:title="ltr/data/object_pair.h">
<polygon style="fill:white;stroke:black;" points="957,-168 957,-188 1061,-188 1061,-168 957,-168"/>
<text text-anchor="middle" x="1009" y="-175" style="font-family:Arial;font-size:10.00;">ltr/data/object_pair.h</text>
</a>
</g>
<!-- Node8&#45;&gt;Node19 -->
<g id="edge68" class="edge"><title>Node8&#45;&gt;Node19</title>
<path style="fill:none;stroke:midnightblue;" d="M970,-280C975,-267 984,-243 991,-224 994,-215 998,-205 1001,-197"/>
<polygon style="fill:midnightblue;stroke:midnightblue;" points="1004.14,-198.56 1005,-188 997.74,-195.717 1004.14,-198.56"/>
</g>
<!-- Node8&#45;&gt;Node20 -->
<g id="edge82" class="edge"><title>Node8&#45;&gt;Node20</title>
<path style="fill:none;stroke:midnightblue;" d="M930,-280C896,-271 846,-257 810,-247"/>
<polygon style="fill:midnightblue;stroke:midnightblue;" points="810.584,-243.521 800,-244 808.573,-250.226 810.584,-243.521"/>
</g>
<!-- Node8&#45;&gt;Node27 -->
<g id="edge116" class="edge"><title>Node8&#45;&gt;Node27</title>
<path style="fill:none;stroke:midnightblue;" d="M1010,-280C1052,-271 1114,-256 1158,-246"/>
<polygon style="fill:midnightblue;stroke:midnightblue;" points="1158.88,-249.393 1168,-244 1157.51,-242.529 1158.88,-249.393"/>
</g>
<!-- Node8&#45;&gt;Node28 -->
<g id="edge128" class="edge"><title>Node8&#45;&gt;Node28</title>
<path style="fill:none;stroke:midnightblue;" d="M919,-283C854,-273 738,-255 665,-244"/>
<polygon style="fill:midnightblue;stroke:midnightblue;" points="665.492,-240.529 655,-242 664.119,-247.393 665.492,-240.529"/>
</g>
<!-- Node10&#45;&gt;Node4 -->
<g id="edge36" class="edge"><title>Node10&#45;&gt;Node4</title>
<path style="fill:none;stroke:midnightblue;" d="M983,-112C959,-97 912,-70 867,-56 790,-30 694,-18 646,-13"/>
<polygon style="fill:midnightblue;stroke:midnightblue;" points="646.299,-9.5125 636,-12 645.602,-16.4778 646.299,-9.5125"/>
</g>
<!-- Node10&#45;&gt;Node5 -->
<g id="edge38" class="edge"><title>Node10&#45;&gt;Node5</title>
<path style="fill:none;stroke:midnightblue;" d="M1041,-115C1109,-104 1243,-82 1304,-72"/>
<polygon style="fill:midnightblue;stroke:midnightblue;" points="1304.88,-75.3933 1314,-70 1303.51,-68.5292 1304.88,-75.3933"/>
</g>
<!-- Node10&#45;&gt;Node7 -->
<g id="edge34" class="edge"><title>Node10&#45;&gt;Node7</title>
<path style="fill:none;stroke:midnightblue;" d="M957,-113C912,-104 838,-89 775,-76 773,-76 772,-75 770,-75"/>
<polygon style="fill:midnightblue;stroke:midnightblue;" points="770.584,-71.5212 760,-72 768.573,-78.2259 770.584,-71.5212"/>
</g>
<!-- Node11 -->
<g id="node26" class="node"><title>Node11</title>
<polygon style="fill:white;stroke:#bfbfbf;" points="784,-56 784,-76 819,-76 819,-56 784,-56"/>
<text text-anchor="middle" x="801" y="-63" style="font-family:Arial;font-size:10.00;">map</text>
</g>
<!-- Node10&#45;&gt;Node11 -->
<g id="edge30" class="edge"><title>Node10&#45;&gt;Node11</title>
<path style="fill:none;stroke:midnightblue;" d="M964,-112C926,-101 864,-84 829,-74"/>
<polygon style="fill:midnightblue;stroke:midnightblue;" points="829.584,-70.5212 819,-71 827.573,-77.2259 829.584,-70.5212"/>
</g>
<!-- Node12 -->
<g id="node28" class="node"><title>Node12</title>
<polygon style="fill:white;stroke:#bfbfbf;" points="904,-0 904,-20 955,-20 955,-0 904,-0"/>
<text text-anchor="middle" x="929" y="-7" style="font-family:Arial;font-size:10.00;">ostream</text>
</g>
<!-- Node10&#45;&gt;Node12 -->
<g id="edge32" class="edge"><title>Node10&#45;&gt;Node12</title>
<path style="fill:none;stroke:midnightblue;" d="M984,-112C973,-103 958,-90 948,-76 939,-62 934,-44 932,-30"/>
<polygon style="fill:midnightblue;stroke:midnightblue;" points="935.393,-29.1194 930,-20 928.529,-30.4922 935.393,-29.1194"/>
</g>
<!-- Node13 -->
<g id="node33" class="node"><title>Node13</title>
<a xlink:href="printable_8h.html" target="_top" xlink:title="ltr/interfaces/printable.h">
<polygon style="fill:white;stroke:black;" points="957,-56 957,-76 1074,-76 1074,-56 957,-56"/>
<text text-anchor="middle" x="1015" y="-63" style="font-family:Arial;font-size:10.00;">ltr/interfaces/printable.h</text>
</a>
</g>
<!-- Node10&#45;&gt;Node13 -->
<g id="edge40" class="edge"><title>Node10&#45;&gt;Node13</title>
<path style="fill:none;stroke:midnightblue;" d="M1002,-112C1003,-105 1006,-95 1009,-86"/>
<polygon style="fill:midnightblue;stroke:midnightblue;" points="1012.48,-86.584 1012,-76 1005.77,-84.5725 1012.48,-86.584"/>
</g>
<!-- Node10&#45;&gt;Node14 -->
<g id="edge46" class="edge"><title>Node10&#45;&gt;Node14</title>
<path style="fill:none;stroke:midnightblue;" d="M1025,-112C1048,-103 1083,-90 1109,-80"/>
<polygon style="fill:midnightblue;stroke:midnightblue;" points="1111.02,-82.9636 1119,-76 1108.42,-76.4643 1111.02,-82.9636"/>
</g>
<!-- Node13&#45;&gt;Node4 -->
<g id="edge44" class="edge"><title>Node13&#45;&gt;Node4</title>
<path style="fill:none;stroke:midnightblue;" d="M957,-58C871,-46 713,-24 646,-14"/>
<polygon style="fill:midnightblue;stroke:midnightblue;" points="646.299,-10.5125 636,-13 645.602,-17.4778 646.299,-10.5125"/>
</g>
<!-- Node13&#45;&gt;Node12 -->
<g id="edge42" class="edge"><title>Node13&#45;&gt;Node12</title>
<path style="fill:none;stroke:midnightblue;" d="M1000,-56C987,-48 968,-35 953,-26"/>
<polygon style="fill:midnightblue;stroke:midnightblue;" points="955.1,-23.2 945,-20 950.9,-28.8 955.1,-23.2"/>
</g>
<!-- Node15 -->
<g id="node39" class="node"><title>Node15</title>
<polygon style="fill:white;stroke:#bfbfbf;" points="1304,-0 1304,-20 1360,-20 1360,-0 1304,-0"/>
<text text-anchor="middle" x="1332" y="-7" style="font-family:Arial;font-size:10.00;">algorithm</text>
</g>
<!-- Node14&#45;&gt;Node15 -->
<g id="edge48" class="edge"><title>Node14&#45;&gt;Node15</title>
<path style="fill:none;stroke:midnightblue;" d="M1178,-56C1211,-46 1260,-31 1294,-21"/>
<polygon style="fill:midnightblue;stroke:midnightblue;" points="1295.43,-24.2259 1304,-18 1293.42,-17.5212 1295.43,-24.2259"/>
</g>
<!-- Node16 -->
<g id="node41" class="node"><title>Node16</title>
<polygon style="fill:white;stroke:#bfbfbf;" points="972,-0 972,-20 1079,-20 1079,-0 972,-0"/>
<text text-anchor="middle" x="1025" y="-7" style="font-family:Arial;font-size:10.00;">boost/shared_ptr.hpp</text>
</g>
<!-- Node14&#45;&gt;Node16 -->
<g id="edge50" class="edge"><title>Node14&#45;&gt;Node16</title>
<path style="fill:none;stroke:midnightblue;" d="M1124,-56C1105,-47 1078,-34 1056,-24"/>
<polygon style="fill:midnightblue;stroke:midnightblue;" points="1057.56,-20.8631 1047,-20 1054.72,-27.2598 1057.56,-20.8631"/>
</g>
<!-- Node17 -->
<g id="node43" class="node"><title>Node17</title>
<polygon style="fill:white;stroke:#bfbfbf;" points="1096,-0 1096,-20 1287,-20 1287,-0 1096,-0"/>
<text text-anchor="middle" x="1191" y="-7" style="font-family:Arial;font-size:10.00;">boost/smart_ptr/detail/operator_bool.hpp</text>
</g>
<!-- Node14&#45;&gt;Node17 -->
<g id="edge52" class="edge"><title>Node14&#45;&gt;Node17</title>
<path style="fill:none;stroke:midnightblue;" d="M1153,-56C1159,-48 1168,-38 1176,-28"/>
<polygon style="fill:midnightblue;stroke:midnightblue;" points="1178.8,-30.1 1182,-20 1173.2,-25.9 1178.8,-30.1"/>
</g>
<!-- Node18&#45;&gt;Node4 -->
<g id="edge58" class="edge"><title>Node18&#45;&gt;Node4</title>
<path style="fill:none;stroke:midnightblue;" d="M1219,-172C1253,-166 1296,-155 1328,-132 1358,-109 1390,-83 1365,-56 1351,-42 785,-17 646,-11"/>
<polygon style="fill:midnightblue;stroke:midnightblue;" points="646,-7.5001 636,-11 646,-14.5001 646,-7.5001"/>
</g>
<!-- Node18&#45;&gt;Node5 -->
<g id="edge60" class="edge"><title>Node18&#45;&gt;Node5</title>
<path style="fill:none;stroke:midnightblue;" d="M1213,-168C1249,-159 1296,-146 1311,-132 1323,-120 1329,-101 1332,-86"/>
<polygon style="fill:midnightblue;stroke:midnightblue;" points="1335.47,-86.4922 1334,-76 1328.61,-85.1194 1335.47,-86.4922"/>
</g>
<!-- Node18&#45;&gt;Node7 -->
<g id="edge56" class="edge"><title>Node18&#45;&gt;Node7</title>
<path style="fill:none;stroke:midnightblue;" d="M1117,-168C1072,-160 1005,-146 948,-132 885,-115 813,-93 770,-79"/>
<polygon style="fill:midnightblue;stroke:midnightblue;" points="770.584,-75.5212 760,-76 768.573,-82.2259 770.584,-75.5212"/>
</g>
<!-- Node18&#45;&gt;Node10 -->
<g id="edge62" class="edge"><title>Node18&#45;&gt;Node10</title>
<path style="fill:none;stroke:midnightblue;" d="M1138,-168C1110,-159 1069,-145 1039,-135"/>
<polygon style="fill:midnightblue;stroke:midnightblue;" points="1039.58,-131.521 1029,-132 1037.57,-138.226 1039.58,-131.521"/>
</g>
<!-- Node18&#45;&gt;Node13 -->
<g id="edge64" class="edge"><title>Node18&#45;&gt;Node13</title>
<path style="fill:none;stroke:midnightblue;" d="M1154,-168C1127,-148 1069,-106 1037,-82"/>
<polygon style="fill:midnightblue;stroke:midnightblue;" points="1039.1,-79.2 1029,-76 1034.9,-84.8 1039.1,-79.2"/>
</g>
<!-- Node18&#45;&gt;Node14 -->
<g id="edge66" class="edge"><title>Node18&#45;&gt;Node14</title>
<path style="fill:none;stroke:midnightblue;" d="M1167,-168C1166,-155 1164,-131 1159,-112 1158,-103 1155,-94 1152,-86"/>
<polygon style="fill:midnightblue;stroke:midnightblue;" points="1155.23,-84.5725 1149,-76 1148.52,-86.584 1155.23,-84.5725"/>
</g>
<!-- Node19&#45;&gt;Node4 -->
<g id="edge72" class="edge"><title>Node19&#45;&gt;Node4</title>
<path style="fill:none;stroke:midnightblue;" d="M996,-168C960,-142 863,-71 827,-56 766,-29 688,-18 646,-13"/>
<polygon style="fill:midnightblue;stroke:midnightblue;" points="646.299,-9.5125 636,-12 645.602,-16.4778 646.299,-9.5125"/>
</g>
<!-- Node19&#45;&gt;Node5 -->
<g id="edge74" class="edge"><title>Node19&#45;&gt;Node5</title>
<path style="fill:none;stroke:midnightblue;" d="M1061,-173C1127,-166 1237,-151 1273,-132 1294,-120 1311,-100 1322,-84"/>
<polygon style="fill:midnightblue;stroke:midnightblue;" points="1324.8,-86.1 1328,-76 1319.2,-81.9 1324.8,-86.1"/>
</g>
<!-- Node19&#45;&gt;Node7 -->
<g id="edge70" class="edge"><title>Node19&#45;&gt;Node7</title>
<path style="fill:none;stroke:midnightblue;" d="M959,-168C924,-160 878,-148 839,-132 807,-118 774,-96 752,-82"/>
<polygon style="fill:midnightblue;stroke:midnightblue;" points="754.1,-79.2 744,-76 749.9,-84.8 754.1,-79.2"/>
</g>
<!-- Node19&#45;&gt;Node10 -->
<g id="edge76" class="edge"><title>Node19&#45;&gt;Node10</title>
<path style="fill:none;stroke:midnightblue;" d="M1007,-168C1006,-161 1004,-151 1002,-142"/>
<polygon style="fill:midnightblue;stroke:midnightblue;" points="1005.48,-141.602 1001,-132 998.512,-142.299 1005.48,-141.602"/>
</g>
<!-- Node19&#45;&gt;Node13 -->
<g id="edge78" class="edge"><title>Node19&#45;&gt;Node13</title>
<path style="fill:none;stroke:midnightblue;" d="M1022,-168C1032,-159 1045,-146 1050,-132 1057,-115 1045,-97 1034,-83"/>
<polygon style="fill:midnightblue;stroke:midnightblue;" points="1036.55,-80.5962 1027,-76 1031.6,-85.546 1036.55,-80.5962"/>
</g>
<!-- Node19&#45;&gt;Node14 -->
<g id="edge80" class="edge"><title>Node19&#45;&gt;Node14</title>
<path style="fill:none;stroke:midnightblue;" d="M1022,-168C1033,-158 1051,-144 1066,-132 1086,-115 1109,-96 1125,-83"/>
<polygon style="fill:midnightblue;stroke:midnightblue;" points="1127.78,-85.2191 1133,-76 1123.17,-79.9511 1127.78,-85.2191"/>
</g>
<!-- Node20&#45;&gt;Node4 -->
<g id="edge86" class="edge"><title>Node20&#45;&gt;Node4</title>
<path style="fill:none;stroke:midnightblue;" d="M756,-224C741,-206 711,-167 687,-132 664,-96 640,-53 627,-29"/>
<polygon style="fill:midnightblue;stroke:midnightblue;" points="629.916,-27.0418 622,-20 623.797,-30.4414 629.916,-27.0418"/>
</g>
<!-- Node20&#45;&gt;Node5 -->
<g id="edge88" class="edge"><title>Node20&#45;&gt;Node5</title>
<path style="fill:none;stroke:midnightblue;" d="M790,-224C825,-210 891,-185 948,-168 1079,-127 1238,-89 1304,-73"/>
<polygon style="fill:midnightblue;stroke:midnightblue;" points="1304.88,-76.3933 1314,-71 1303.51,-69.5292 1304.88,-76.3933"/>
</g>
<!-- Node20&#45;&gt;Node11 -->
<g id="edge84" class="edge"><title>Node20&#45;&gt;Node11</title>
<path style="fill:none;stroke:midnightblue;" d="M766,-224C772,-197 789,-122 797,-86"/>
<polygon style="fill:midnightblue;stroke:midnightblue;" points="800.471,-86.4922 799,-76 793.607,-85.1194 800.471,-86.4922"/>
</g>
<!-- Node20&#45;&gt;Node14 -->
<g id="edge114" class="edge"><title>Node20&#45;&gt;Node14</title>
<path style="fill:none;stroke:midnightblue;" d="M774,-224C788,-210 814,-185 839,-168 885,-137 897,-130 948,-112 992,-96 1043,-84 1082,-77"/>
<polygon style="fill:midnightblue;stroke:midnightblue;" points="1082.88,-80.3933 1092,-75 1081.51,-73.5292 1082.88,-80.3933"/>
</g>
<!-- Node20&#45;&gt;Node21 -->
<g id="edge90" class="edge"><title>Node20&#45;&gt;Node21</title>
<path style="fill:none;stroke:midnightblue;" d="M711,-226C646,-216 535,-200 460,-189"/>
<polygon style="fill:midnightblue;stroke:midnightblue;" points="460.299,-185.512 450,-188 459.602,-192.478 460.299,-185.512"/>
</g>
<!-- Node21&#45;&gt;Node4 -->
<g id="edge94" class="edge"><title>Node21&#45;&gt;Node4</title>
<path style="fill:none;stroke:midnightblue;" d="M325,-168C243,-151 109,-114 162,-56 191,-24 489,-14 586,-10"/>
<polygon style="fill:midnightblue;stroke:midnightblue;" points="586,-13.5001 596,-10 586,-6.5001 586,-13.5001"/>
</g>
<!-- Node21&#45;&gt;Node7 -->
<g id="edge92" class="edge"><title>Node21&#45;&gt;Node7</title>
<path style="fill:none;stroke:midnightblue;" d="M413,-168C477,-147 622,-101 691,-78"/>
<polygon style="fill:midnightblue;stroke:midnightblue;" points="692.427,-81.2259 701,-75 690.416,-74.5212 692.427,-81.2259"/>
</g>
<!-- Node22 -->
<g id="node70" class="node"><title>Node22</title>
<a xlink:href="parameters__container_8h.html" target="_top" xlink:title="ltr/parameters_container/parameters_container.h">
<polygon style="fill:white;stroke:black;" points="259,-112 259,-132 484,-132 484,-112 259,-112"/>
<text text-anchor="middle" x="371" y="-119" style="font-family:Arial;font-size:10.00;">ltr/parameters_container/parameters_container.h</text>
</a>
</g>
<!-- Node21&#45;&gt;Node22 -->
<g id="edge96" class="edge"><title>Node21&#45;&gt;Node22</title>
<path style="fill:none;stroke:midnightblue;" d="M380,-168C379,-161 377,-151 375,-142"/>
<polygon style="fill:midnightblue;stroke:midnightblue;" points="378.393,-141.119 373,-132 371.529,-142.492 378.393,-141.119"/>
</g>
<!-- Node22&#45;&gt;Node4 -->
<g id="edge104" class="edge"><title>Node22&#45;&gt;Node4</title>
<path style="fill:none;stroke:midnightblue;" d="M433,-112C466,-105 507,-94 540,-76 564,-63 586,-43 600,-28"/>
<polygon style="fill:midnightblue;stroke:midnightblue;" points="603.049,-29.8306 607,-20 597.781,-25.221 603.049,-29.8306"/>
</g>
<!-- Node22&#45;&gt;Node7 -->
<g id="edge102" class="edge"><title>Node22&#45;&gt;Node7</title>
<path style="fill:none;stroke:midnightblue;" d="M435,-112C509,-101 629,-82 691,-73"/>
<polygon style="fill:midnightblue;stroke:midnightblue;" points="691.881,-76.3933 701,-71 690.508,-69.5292 691.881,-76.3933"/>
</g>
<!-- Node22&#45;&gt;Node13 -->
<g id="edge112" class="edge"><title>Node22&#45;&gt;Node13</title>
<path style="fill:none;stroke:midnightblue;" d="M484,-112C618,-100 836,-81 947,-72"/>
<polygon style="fill:midnightblue;stroke:midnightblue;" points="947.398,-75.4778 957,-71 946.701,-68.5125 947.398,-75.4778"/>
</g>
<!-- Node22&#45;&gt;Node14 -->
<g id="edge110" class="edge"><title>Node22&#45;&gt;Node14</title>
<path style="fill:none;stroke:midnightblue;" d="M484,-118C625,-112 872,-99 1082,-76 1082,-76 1082,-76 1082,-76"/>
<polygon style="fill:midnightblue;stroke:midnightblue;" points="1082.4,-79.4778 1092,-75 1081.7,-72.5125 1082.4,-79.4778"/>
</g>
<!-- Node23 -->
<g id="node72" class="node"><title>Node23</title>
<polygon style="fill:white;stroke:#bfbfbf;" points="171,-56 171,-76 245,-76 245,-56 171,-56"/>
<text text-anchor="middle" x="208" y="-63" style="font-family:Arial;font-size:10.00;">logog/logog.h</text>
</g>
<!-- Node22&#45;&gt;Node23 -->
<g id="edge98" class="edge"><title>Node22&#45;&gt;Node23</title>
<path style="fill:none;stroke:midnightblue;" d="M342,-112C315,-103 276,-89 247,-79"/>
<polygon style="fill:midnightblue;stroke:midnightblue;" points="247.584,-75.5212 237,-76 245.573,-82.2259 247.584,-75.5212"/>
</g>
<!-- Node24 -->
<g id="node74" class="node"><title>Node24</title>
<polygon style="fill:white;stroke:#bfbfbf;" points="263,-56 263,-76 292,-76 292,-56 263,-56"/>
<text text-anchor="middle" x="277" y="-63" style="font-family:Arial;font-size:10.00;">list</text>
</g>
<!-- Node22&#45;&gt;Node24 -->
<g id="edge100" class="edge"><title>Node22&#45;&gt;Node24</title>
<path style="fill:none;stroke:midnightblue;" d="M354,-112C339,-104 317,-90 301,-80"/>
<polygon style="fill:midnightblue;stroke:midnightblue;" points="302.441,-76.7969 292,-75 299.042,-82.916 302.441,-76.7969"/>
</g>
<!-- Node25 -->
<g id="node78" class="node"><title>Node25</title>
<polygon style="fill:white;stroke:#bfbfbf;" points="309,-56 309,-76 386,-76 386,-56 309,-56"/>
<text text-anchor="middle" x="347" y="-63" style="font-family:Arial;font-size:10.00;">boost/any.hpp</text>
</g>
<!-- Node22&#45;&gt;Node25 -->
<g id="edge106" class="edge"><title>Node22&#45;&gt;Node25</title>
<path style="fill:none;stroke:midnightblue;" d="M367,-112C364,-105 359,-94 355,-85"/>
<polygon style="fill:midnightblue;stroke:midnightblue;" points="358.26,-83.7166 351,-76 351.863,-86.5596 358.26,-83.7166"/>
</g>
<!-- Node26 -->
<g id="node80" class="node"><title>Node26</title>
<polygon style="fill:white;stroke:#bfbfbf;" points="403,-56 403,-76 532,-76 532,-56 403,-56"/>
<text text-anchor="middle" x="467" y="-63" style="font-family:Arial;font-size:10.00;">boost/unordered_map.hpp</text>
</g>
<!-- Node22&#45;&gt;Node26 -->
<g id="edge108" class="edge"><title>Node22&#45;&gt;Node26</title>
<path style="fill:none;stroke:midnightblue;" d="M388,-112C403,-104 424,-91 441,-81"/>
<polygon style="fill:midnightblue;stroke:midnightblue;" points="442.958,-83.916 450,-76 439.559,-77.7969 442.958,-83.916"/>
</g>
<!-- Node27&#45;&gt;Node10 -->
<g id="edge118" class="edge"><title>Node27&#45;&gt;Node10</title>
<path style="fill:none;stroke:midnightblue;" d="M1187,-224C1166,-215 1135,-202 1108,-188 1078,-172 1045,-151 1024,-138"/>
<polygon style="fill:midnightblue;stroke:midnightblue;" points="1025.26,-134.635 1015,-132 1021.38,-140.459 1025.26,-134.635"/>
</g>
<!-- Node27&#45;&gt;Node14 -->
<g id="edge126" class="edge"><title>Node27&#45;&gt;Node14</title>
<path style="fill:none;stroke:midnightblue;" d="M1218,-224C1225,-211 1235,-187 1228,-168 1216,-133 1186,-102 1166,-83"/>
<polygon style="fill:midnightblue;stroke:midnightblue;" points="1167.83,-79.9511 1158,-76 1163.22,-85.2191 1167.83,-79.9511"/>
</g>
<!-- Node27&#45;&gt;Node18 -->
<g id="edge122" class="edge"><title>Node27&#45;&gt;Node18</title>
<path style="fill:none;stroke:midnightblue;" d="M1204,-224C1198,-216 1189,-206 1182,-196"/>
<polygon style="fill:midnightblue;stroke:midnightblue;" points="1184.8,-193.9 1176,-188 1179.2,-198.1 1184.8,-193.9"/>
</g>
<!-- Node27&#45;&gt;Node19 -->
<g id="edge120" class="edge"><title>Node27&#45;&gt;Node19</title>
<path style="fill:none;stroke:midnightblue;" d="M1176,-224C1142,-215 1092,-201 1055,-191"/>
<polygon style="fill:midnightblue;stroke:midnightblue;" points="1055.58,-187.521 1045,-188 1053.57,-194.226 1055.58,-187.521"/>
</g>
<!-- Node27&#45;&gt;Node21 -->
<g id="edge124" class="edge"><title>Node27&#45;&gt;Node21</title>
<path style="fill:none;stroke:midnightblue;" d="M1139,-225C1136,-224 1133,-224 1130,-224 888,-202 600,-188 463,-181"/>
<polygon style="fill:midnightblue;stroke:midnightblue;" points="463,-177.5 453,-181 463,-184.5 463,-177.5"/>
</g>
<!-- Node28&#45;&gt;Node4 -->
<g id="edge130" class="edge"><title>Node28&#45;&gt;Node4</title>
<path style="fill:none;stroke:midnightblue;" d="M589,-224C566,-203 519,-155 535,-112 543,-91 554,-92 567,-76 580,-61 594,-42 603,-28"/>
<polygon style="fill:midnightblue;stroke:midnightblue;" points="605.8,-30.1 609,-20 600.2,-25.9 605.8,-30.1"/>
</g>
<!-- Node29&#45;&gt;Node2 -->
<g id="edge142" class="edge"><title>Node29&#45;&gt;Node2</title>
<path style="fill:none;stroke:midnightblue;" d="M303,-280C258,-271 191,-256 143,-246"/>
<polygon style="fill:midnightblue;stroke:midnightblue;" points="143.492,-242.529 133,-244 142.119,-249.393 143.492,-242.529"/>
</g>
<!-- Node29&#45;&gt;Node4 -->
<g id="edge146" class="edge"><title>Node29&#45;&gt;Node4</title>
<path style="fill:none;stroke:midnightblue;" d="M351,-280C351,-266 350,-241 337,-224 286,-155 223,-197 167,-132 145,-105 125,-81 148,-56 178,-23 486,-13 586,-10"/>
<polygon style="fill:midnightblue;stroke:midnightblue;" points="586,-13.5001 596,-10 586,-6.5001 586,-13.5001"/>
</g>
<!-- Node29&#45;&gt;Node14 -->
<g id="edge150" class="edge"><title>Node29&#45;&gt;Node14</title>
<path style="fill:none;stroke:midnightblue;" d="M378,-280C415,-267 481,-242 538,-224 695,-171 733,-151 893,-112 928,-103 1020,-87 1082,-77"/>
<polygon style="fill:midnightblue;stroke:midnightblue;" points="1082.88,-80.3933 1092,-75 1081.51,-73.5292 1082.88,-80.3933"/>
</g>
<!-- Node29&#45;&gt;Node23 -->
<g id="edge144" class="edge"><title>Node29&#45;&gt;Node23</title>
<path style="fill:none;stroke:midnightblue;" d="M320,-280C302,-273 279,-261 265,-244 226,-197 213,-122 210,-86"/>
<polygon style="fill:midnightblue;stroke:midnightblue;" points="213.478,-85.6021 209,-76 206.512,-86.2987 213.478,-85.6021"/>
</g>
<!-- Node29&#45;&gt;Node28 -->
<g id="edge152" class="edge"><title>Node29&#45;&gt;Node28</title>
<path style="fill:none;stroke:midnightblue;" d="M396,-280C438,-271 501,-256 546,-246"/>
<polygon style="fill:midnightblue;stroke:midnightblue;" points="546.881,-249.393 556,-244 545.508,-242.529 546.881,-249.393"/>
</g>
<!-- Node30 -->
<g id="node104" class="node"><title>Node30</title>
<polygon style="fill:white;stroke:#bfbfbf;" points="274,-224 274,-244 328,-244 328,-224 274,-224"/>
<text text-anchor="middle" x="301" y="-231" style="font-family:Arial;font-size:10.00;">iostream</text>
</g>
<!-- Node29&#45;&gt;Node30 -->
<g id="edge148" class="edge"><title>Node29&#45;&gt;Node30</title>
<path style="fill:none;stroke:midnightblue;" d="M342,-280C335,-272 325,-261 317,-252"/>
<polygon style="fill:midnightblue;stroke:midnightblue;" points="319.219,-249.221 310,-244 313.951,-253.831 319.219,-249.221"/>
</g>
<!-- Node32 -->
<g id="node112" class="node"><title>Node32</title>
<polygon style="fill:white;stroke:#bfbfbf;" points="1568,-280 1568,-300 1611,-300 1611,-280 1568,-280"/>
<text text-anchor="middle" x="1589" y="-287" style="font-family:Arial;font-size:10.00;">cmath</text>
</g>
<!-- Node31&#45;&gt;Node32 -->
<g id="edge160" class="edge"><title>Node31&#45;&gt;Node32</title>
<path style="fill:none;stroke:midnightblue;" d="M1602,-336C1601,-329 1598,-319 1595,-310"/>
<polygon style="fill:midnightblue;stroke:midnightblue;" points="1598.23,-308.573 1592,-300 1591.52,-310.584 1598.23,-308.573"/>
</g>
<!-- Node33 -->
<g id="node114" class="node"><title>Node33</title>
<polygon style="fill:white;stroke:#bfbfbf;" points="1628,-280 1628,-300 1667,-300 1667,-280 1628,-280"/>
<text text-anchor="middle" x="1647" y="-287" style="font-family:Arial;font-size:10.00;">limits</text>
</g>
<!-- Node31&#45;&gt;Node33 -->
<g id="edge162" class="edge"><title>Node31&#45;&gt;Node33</title>
<path style="fill:none;stroke:midnightblue;" d="M1613,-336C1619,-328 1627,-318 1633,-309"/>
<polygon style="fill:midnightblue;stroke:midnightblue;" points="1636.37,-310.262 1639,-300 1630.54,-306.379 1636.37,-310.262"/>
</g>
</g>
</svg>
