<?xml version="1.0" encoding="UTF-8" standalone="no"?>
<!DOCTYPE svg PUBLIC "-//W3C//DTD SVG 1.0//EN"
 "http://www.w3.org/TR/2001/REC-SVG-20010904/DTD/svg10.dtd" [
 <!ATTLIST svg xmlns:xlink CDATA #FIXED "http://www.w3.org/1999/xlink">
]>
<!-- Generated by Graphviz version 2.20.2 (Tue Mar &#160;2 19:03:41 UTC 2010)
     For user: (jenkins)  -->
<!-- Title: G Pages: 1 -->
<svg width="1860pt" height="476pt"
 viewBox="0.00 0.00 1860.00 476.00" xmlns="http://www.w3.org/2000/svg" xmlns:xlink="http://www.w3.org/1999/xlink">
<g id="graph0" class="graph" transform="scale(1 1) rotate(0) translate(4 472)">
<title>G</title>
<polygon style="fill:white;stroke:white;" points="-4,4 -4,-472 1856,-472 1856,4 -4,4"/>
<!-- Node1 -->
<g id="node1" class="node"><title>Node1</title>
<polygon style="fill:#bfbfbf;stroke:black;" points="145,-448 145,-468 364,-468 364,-448 145,-448"/>
<text text-anchor="middle" x="254" y="-455" style="font-family:Arial;font-size:10.00;">ltr/feature_converters/nan_to_average_learner.h</text>
</g>
<!-- Node2 -->
<g id="node3" class="node"><title>Node2</title>
<polygon style="fill:white;stroke:#bfbfbf;" points="592,-0 592,-20 632,-20 632,-0 592,-0"/>
<text text-anchor="middle" x="612" y="-7" style="font-family:Arial;font-size:10.00;">string</text>
</g>
<!-- Node1&#45;&gt;Node2 -->
<g id="edge2" class="edge"><title>Node1&#45;&gt;Node2</title>
<path style="fill:none;stroke:midnightblue;" d="M210,-448C137,-430 1,-391 0,-346 0,-346 0,-346 0,-122 1,-80 28,-73 66,-56 112,-34 474,-16 582,-11"/>
<polygon style="fill:midnightblue;stroke:midnightblue;" points="582,-14.5001 592,-11 582,-7.5001 582,-14.5001"/>
</g>
<!-- Node3 -->
<g id="node5" class="node"><title>Node3</title>
<polygon style="fill:white;stroke:#bfbfbf;" points="1679,-56 1679,-76 1721,-76 1721,-56 1679,-56"/>
<text text-anchor="middle" x="1700" y="-63" style="font-family:Arial;font-size:10.00;">vector</text>
</g>
<!-- Node1&#45;&gt;Node3 -->
<g id="edge4" class="edge"><title>Node1&#45;&gt;Node3</title>
<path style="fill:none;stroke:midnightblue;" d="M364,-456C726,-449 1852,-420 1852,-346 1852,-346 1852,-346 1852,-178 1852,-119 1775,-87 1731,-74"/>
<polygon style="fill:midnightblue;stroke:midnightblue;" points="1731.58,-70.5212 1721,-71 1729.57,-77.2259 1731.58,-70.5212"/>
</g>
<!-- Node4 -->
<g id="node7" class="node"><title>Node4</title>
<polygon style="fill:white;stroke:#bfbfbf;" points="28,-280 28,-300 67,-300 67,-280 28,-280"/>
<text text-anchor="middle" x="47" y="-287" style="font-family:Arial;font-size:10.00;">limits</text>
</g>
<!-- Node1&#45;&gt;Node4 -->
<g id="edge6" class="edge"><title>Node1&#45;&gt;Node4</title>
<path style="fill:none;stroke:midnightblue;" d="M215,-448C190,-440 158,-428 133,-412 104,-392 99,-384 80,-356 70,-342 61,-324 55,-310"/>
<polygon style="fill:midnightblue;stroke:midnightblue;" points="57.9636,-307.985 51,-300 51.4643,-310.585 57.9636,-307.985"/>
</g>
<!-- Node5 -->
<g id="node9" class="node"><title>Node5</title>
<a xlink:href="nan__to__neutral__converter_8h.html" target="_top" xlink:title="ltr/feature_converters/nan_to_neutral_converter.h">
<polygon style="fill:white;stroke:black;" points="142,-392 142,-412 367,-412 367,-392 142,-392"/>
<text text-anchor="middle" x="254" y="-399" style="font-family:Arial;font-size:10.00;">ltr/feature_converters/nan_to_neutral_converter.h</text>
</a>
</g>
<!-- Node1&#45;&gt;Node5 -->
<g id="edge8" class="edge"><title>Node1&#45;&gt;Node5</title>
<path style="fill:none;stroke:midnightblue;" d="M254,-448C254,-441 254,-431 254,-422"/>
<polygon style="fill:midnightblue;stroke:midnightblue;" points="257.5,-422 254,-412 250.5,-422 257.5,-422"/>
</g>
<!-- Node34 -->
<g id="node119" class="node"><title>Node34</title>
<a xlink:href="feature__converter__learner_8h.html" target="_top" xlink:title="ltr/feature_converters/feature_converter_learner.h">
<polygon style="fill:white;stroke:black;" points="842,-392 842,-412 1067,-412 1067,-392 842,-392"/>
<text text-anchor="middle" x="954" y="-399" style="font-family:Arial;font-size:10.00;">ltr/feature_converters/feature_converter_learner.h</text>
</a>
</g>
<!-- Node1&#45;&gt;Node34 -->
<g id="edge170" class="edge"><title>Node1&#45;&gt;Node34</title>
<path style="fill:none;stroke:midnightblue;" d="M364,-449C491,-438 699,-422 832,-412"/>
<polygon style="fill:midnightblue;stroke:midnightblue;" points="832.398,-415.478 842,-411 831.701,-408.512 832.398,-415.478"/>
</g>
<!-- Node5&#45;&gt;Node2 -->
<g id="edge10" class="edge"><title>Node5&#45;&gt;Node2</title>
<path style="fill:none;stroke:midnightblue;" d="M206,-392C170,-383 125,-370 113,-356 71,-303 39,-105 85,-56 118,-18 475,-11 582,-10"/>
<polygon style="fill:midnightblue;stroke:midnightblue;" points="582,-13.5001 592,-10 582,-6.5001 582,-13.5001"/>
</g>
<!-- Node5&#45;&gt;Node3 -->
<g id="edge12" class="edge"><title>Node5&#45;&gt;Node3</title>
<path style="fill:none;stroke:midnightblue;" d="M367,-397C622,-384 1234,-349 1436,-300 1542,-273 1583,-270 1656,-188 1675,-166 1681,-159 1691,-132 1696,-117 1699,-100 1700,-86"/>
<polygon style="fill:midnightblue;stroke:midnightblue;" points="1703.5,-86 1700,-76 1696.5,-86 1703.5,-86"/>
</g>
<!-- Node6 -->
<g id="node13" class="node"><title>Node6</title>
<a xlink:href="feature__converter_8h.html" target="_top" xlink:title="ltr/feature_converters/feature_converter.h">
<polygon style="fill:white;stroke:black;" points="798,-336 798,-356 988,-356 988,-336 798,-336"/>
<text text-anchor="middle" x="893" y="-343" style="font-family:Arial;font-size:10.00;">ltr/feature_converters/feature_converter.h</text>
</a>
</g>
<!-- Node5&#45;&gt;Node6 -->
<g id="edge14" class="edge"><title>Node5&#45;&gt;Node6</title>
<path style="fill:none;stroke:midnightblue;" d="M367,-392C486,-381 672,-365 788,-355"/>
<polygon style="fill:midnightblue;stroke:midnightblue;" points="788.398,-358.478 798,-354 787.701,-351.512 788.398,-358.478"/>
</g>
<!-- Node21 -->
<g id="node68" class="node"><title>Node21</title>
<a xlink:href="parameterized_8h.html" target="_top" xlink:title="ltr/interfaces/parameterized.h">
<polygon style="fill:white;stroke:black;" points="617,-168 617,-188 759,-188 759,-168 617,-168"/>
<text text-anchor="middle" x="688" y="-175" style="font-family:Arial;font-size:10.00;">ltr/interfaces/parameterized.h</text>
</a>
</g>
<!-- Node5&#45;&gt;Node21 -->
<g id="edge168" class="edge"><title>Node5&#45;&gt;Node21</title>
<path style="fill:none;stroke:midnightblue;" d="M273,-392C343,-355 578,-235 660,-193"/>
<polygon style="fill:midnightblue;stroke:midnightblue;" points="661.958,-195.916 669,-188 658.559,-189.797 661.958,-195.916"/>
</g>
<!-- Node32 -->
<g id="node113" class="node"><title>Node32</title>
<a xlink:href="numerical_8h.html" target="_top" xlink:title="ltr/utility/numerical.h">
<polygon style="fill:white;stroke:black;" points="122,-336 122,-356 226,-356 226,-336 122,-336"/>
<text text-anchor="middle" x="174" y="-343" style="font-family:Arial;font-size:10.00;">ltr/utility/numerical.h</text>
</a>
</g>
<!-- Node5&#45;&gt;Node32 -->
<g id="edge162" class="edge"><title>Node5&#45;&gt;Node32</title>
<path style="fill:none;stroke:midnightblue;" d="M240,-392C229,-384 211,-372 197,-362"/>
<polygon style="fill:midnightblue;stroke:midnightblue;" points="199.1,-359.2 189,-356 194.9,-364.8 199.1,-359.2"/>
</g>
<!-- Node6&#45;&gt;Node2 -->
<g id="edge18" class="edge"><title>Node6&#45;&gt;Node2</title>
<path style="fill:none;stroke:midnightblue;" d="M798,-343C676,-338 471,-326 401,-300 243,-240 171,-226 95,-76 90,-68 88,-62 95,-56 127,-19 476,-12 582,-10"/>
<polygon style="fill:midnightblue;stroke:midnightblue;" points="582,-13.5001 592,-10 582,-6.5001 582,-13.5001"/>
</g>
<!-- Node6&#45;&gt;Node3 -->
<g id="edge16" class="edge"><title>Node6&#45;&gt;Node3</title>
<path style="fill:none;stroke:midnightblue;" d="M988,-343C1087,-338 1247,-327 1383,-300 1464,-283 1487,-283 1561,-244 1623,-210 1639,-193 1675,-132 1683,-117 1690,-99 1694,-86"/>
<polygon style="fill:midnightblue;stroke:midnightblue;" points="1697.48,-86.584 1697,-76 1690.77,-84.5725 1697.48,-86.584"/>
</g>
<!-- Node7 -->
<g id="node17" class="node"><title>Node7</title>
<polygon style="fill:white;stroke:#bfbfbf;" points="1002,-56 1002,-76 1061,-76 1061,-56 1002,-56"/>
<text text-anchor="middle" x="1031" y="-63" style="font-family:Arial;font-size:10.00;">stdexcept</text>
</g>
<!-- Node6&#45;&gt;Node7 -->
<g id="edge20" class="edge"><title>Node6&#45;&gt;Node7</title>
<path style="fill:none;stroke:midnightblue;" d="M882,-336C860,-315 815,-265 835,-224 869,-153 953,-103 999,-80"/>
<polygon style="fill:midnightblue;stroke:midnightblue;" points="1000.28,-83.2598 1008,-76 997.44,-76.8631 1000.28,-83.2598"/>
</g>
<!-- Node8 -->
<g id="node19" class="node"><title>Node8</title>
<a xlink:href="data__set_8h.html" target="_top" xlink:title="ltr/data/data_set.h">
<polygon style="fill:white;stroke:black;" points="1197,-280 1197,-300 1292,-300 1292,-280 1197,-280"/>
<text text-anchor="middle" x="1244" y="-287" style="font-family:Arial;font-size:10.00;">ltr/data/data_set.h</text>
</a>
</g>
<!-- Node6&#45;&gt;Node8 -->
<g id="edge22" class="edge"><title>Node6&#45;&gt;Node8</title>
<path style="fill:none;stroke:midnightblue;" d="M956,-336C1021,-326 1124,-310 1187,-300"/>
<polygon style="fill:midnightblue;stroke:midnightblue;" points="1187.88,-303.393 1197,-298 1186.51,-296.529 1187.88,-303.393"/>
</g>
<!-- Node10 -->
<g id="node26" class="node"><title>Node10</title>
<a xlink:href="object_8h.html" target="_top" xlink:title="ltr/data/object.h">
<polygon style="fill:white;stroke:black;" points="1436,-112 1436,-132 1520,-132 1520,-112 1436,-112"/>
<text text-anchor="middle" x="1478" y="-119" style="font-family:Arial;font-size:10.00;">ltr/data/object.h</text>
</a>
</g>
<!-- Node6&#45;&gt;Node10 -->
<g id="edge138" class="edge"><title>Node6&#45;&gt;Node10</title>
<path style="fill:none;stroke:midnightblue;" d="M988,-338C1159,-322 1503,-286 1537,-244 1563,-210 1524,-164 1498,-139"/>
<polygon style="fill:midnightblue;stroke:midnightblue;" points="1499.83,-135.951 1490,-132 1495.22,-141.219 1499.83,-135.951"/>
</g>
<!-- Node14 -->
<g id="node39" class="node"><title>Node14</title>
<a xlink:href="shared__ptr_8h.html" target="_top" xlink:title="ltr/utility/shared_ptr.h">
<polygon style="fill:white;stroke:black;" points="1124,-56 1124,-76 1231,-76 1231,-56 1124,-56"/>
<text text-anchor="middle" x="1177" y="-63" style="font-family:Arial;font-size:10.00;">ltr/utility/shared_ptr.h</text>
</a>
</g>
<!-- Node6&#45;&gt;Node14 -->
<g id="edge160" class="edge"><title>Node6&#45;&gt;Node14</title>
<path style="fill:none;stroke:midnightblue;" d="M899,-336C917,-307 970,-224 1030,-168 1067,-132 1119,-100 1150,-81"/>
<polygon style="fill:midnightblue;stroke:midnightblue;" points="1151.96,-83.916 1159,-76 1148.56,-77.7969 1151.96,-83.916"/>
</g>
<!-- Node20 -->
<g id="node63" class="node"><title>Node20</title>
<a xlink:href="feature__info_8h.html" target="_top" xlink:title="ltr/data/feature_info.h">
<polygon style="fill:white;stroke:black;" points="844,-224 844,-244 951,-244 951,-224 844,-224"/>
<text text-anchor="middle" x="897" y="-231" style="font-family:Arial;font-size:10.00;">ltr/data/feature_info.h</text>
</a>
</g>
<!-- Node6&#45;&gt;Node20 -->
<g id="edge136" class="edge"><title>Node6&#45;&gt;Node20</title>
<path style="fill:none;stroke:midnightblue;" d="M893,-336C894,-317 895,-278 897,-254"/>
<polygon style="fill:midnightblue;stroke:midnightblue;" points="900.5,-254 897,-244 893.5,-254 900.5,-254"/>
</g>
<!-- Node6&#45;&gt;Node21 -->
<g id="edge142" class="edge"><title>Node6&#45;&gt;Node21</title>
<path style="fill:none;stroke:midnightblue;" d="M867,-336C848,-328 822,-315 802,-300 760,-269 721,-222 702,-196"/>
<polygon style="fill:midnightblue;stroke:midnightblue;" points="704.8,-193.9 696,-188 699.2,-198.1 704.8,-193.9"/>
</g>
<!-- Node27 -->
<g id="node87" class="node"><title>Node27</title>
<a xlink:href="per__object__accessor_8h.html" target="_top" xlink:title="ltr/data/per_object_accessor.h">
<polygon style="fill:white;stroke:black;" points="1120,-224 1120,-244 1267,-244 1267,-224 1120,-224"/>
<text text-anchor="middle" x="1193" y="-231" style="font-family:Arial;font-size:10.00;">ltr/data/per_object_accessor.h</text>
</a>
</g>
<!-- Node6&#45;&gt;Node27 -->
<g id="edge140" class="edge"><title>Node6&#45;&gt;Node27</title>
<path style="fill:none;stroke:midnightblue;" d="M920,-336C974,-315 1095,-270 1156,-248"/>
<polygon style="fill:midnightblue;stroke:midnightblue;" points="1158.02,-250.964 1166,-244 1155.42,-244.464 1158.02,-250.964"/>
</g>
<!-- Node28 -->
<g id="node94" class="node"><title>Node28</title>
<a xlink:href="aliaser_8h.html" target="_top" xlink:title="ltr/interfaces/aliaser.h">
<polygon style="fill:white;stroke:black;" points="346,-56 346,-76 454,-76 454,-56 346,-56"/>
<text text-anchor="middle" x="400" y="-63" style="font-family:Arial;font-size:10.00;">ltr/interfaces/aliaser.h</text>
</a>
</g>
<!-- Node6&#45;&gt;Node28 -->
<g id="edge158" class="edge"><title>Node6&#45;&gt;Node28</title>
<path style="fill:none;stroke:midnightblue;" d="M864,-336C799,-314 643,-256 524,-188 486,-166 475,-162 445,-132 431,-117 419,-99 410,-85"/>
<polygon style="fill:midnightblue;stroke:midnightblue;" points="412.916,-83.0418 405,-76 406.797,-86.4414 412.916,-83.0418"/>
</g>
<!-- Node29 -->
<g id="node101" class="node"><title>Node29</title>
<a xlink:href="serializable_8h.html" target="_top" xlink:title="ltr/interfaces/serializable.h">
<polygon style="fill:white;stroke:black;" points="250,-112 250,-132 379,-132 379,-112 250,-112"/>
<text text-anchor="middle" x="314" y="-119" style="font-family:Arial;font-size:10.00;">ltr/interfaces/serializable.h</text>
</a>
</g>
<!-- Node6&#45;&gt;Node29 -->
<g id="edge144" class="edge"><title>Node6&#45;&gt;Node29</title>
<path style="fill:none;stroke:midnightblue;" d="M798,-341C672,-333 461,-318 430,-300 368,-263 333,-180 320,-142"/>
<polygon style="fill:midnightblue;stroke:midnightblue;" points="323.226,-140.573 317,-132 316.521,-142.584 323.226,-140.573"/>
</g>
<!-- Node8&#45;&gt;Node2 -->
<g id="edge28" class="edge"><title>Node8&#45;&gt;Node2</title>
<path style="fill:none;stroke:midnightblue;" d="M1197,-283C1164,-277 1121,-265 1088,-244 996,-184 1025,-109 930,-56 881,-28 712,-15 642,-12"/>
<polygon style="fill:midnightblue;stroke:midnightblue;" points="642.299,-8.5125 632,-11 641.602,-15.4778 642.299,-8.5125"/>
</g>
<!-- Node8&#45;&gt;Node3 -->
<g id="edge30" class="edge"><title>Node8&#45;&gt;Node3</title>
<path style="fill:none;stroke:midnightblue;" d="M1292,-286C1364,-280 1495,-266 1537,-244 1609,-205 1666,-122 1689,-85"/>
<polygon style="fill:midnightblue;stroke:midnightblue;" points="1692.2,-86.4414 1694,-76 1686.08,-83.0418 1692.2,-86.4414"/>
</g>
<!-- Node8&#45;&gt;Node7 -->
<g id="edge26" class="edge"><title>Node8&#45;&gt;Node7</title>
<path style="fill:none;stroke:midnightblue;" d="M1197,-283C1169,-277 1135,-266 1111,-244 1062,-200 1042,-122 1035,-86"/>
<polygon style="fill:midnightblue;stroke:midnightblue;" points="1038.39,-85.1194 1033,-76 1031.53,-86.4922 1038.39,-85.1194"/>
</g>
<!-- Node9 -->
<g id="node21" class="node"><title>Node9</title>
<polygon style="fill:white;stroke:#bfbfbf;" points="1478,-224 1478,-244 1529,-244 1529,-224 1478,-224"/>
<text text-anchor="middle" x="1503" y="-231" style="font-family:Arial;font-size:10.00;">sstream</text>
</g>
<!-- Node8&#45;&gt;Node9 -->
<g id="edge24" class="edge"><title>Node8&#45;&gt;Node9</title>
<path style="fill:none;stroke:midnightblue;" d="M1292,-280C1337,-271 1405,-257 1464,-244 1465,-244 1467,-243 1468,-243"/>
<polygon style="fill:midnightblue;stroke:midnightblue;" points="1469.43,-246.226 1478,-240 1467.42,-239.521 1469.43,-246.226"/>
</g>
<!-- Node8&#45;&gt;Node10 -->
<g id="edge32" class="edge"><title>Node8&#45;&gt;Node10</title>
<path style="fill:none;stroke:midnightblue;" d="M1266,-280C1300,-263 1368,-228 1418,-188 1435,-174 1452,-154 1464,-140"/>
<polygon style="fill:midnightblue;stroke:midnightblue;" points="1466.8,-142.1 1470,-132 1461.2,-137.9 1466.8,-142.1"/>
</g>
<!-- Node18 -->
<g id="node47" class="node"><title>Node18</title>
<a xlink:href="object__list_8h.html" target="_top" xlink:title="ltr/data/object_list.h">
<polygon style="fill:white;stroke:black;" points="1160,-168 1160,-188 1262,-188 1262,-168 1160,-168"/>
<text text-anchor="middle" x="1211" y="-175" style="font-family:Arial;font-size:10.00;">ltr/data/object_list.h</text>
</a>
</g>
<!-- Node8&#45;&gt;Node18 -->
<g id="edge58" class="edge"><title>Node8&#45;&gt;Node18</title>
<path style="fill:none;stroke:midnightblue;" d="M1254,-280C1267,-267 1285,-243 1275,-224 1269,-210 1256,-201 1244,-193"/>
<polygon style="fill:midnightblue;stroke:midnightblue;" points="1245.44,-189.797 1235,-188 1242.04,-195.916 1245.44,-189.797"/>
</g>
<!-- Node19 -->
<g id="node55" class="node"><title>Node19</title>
<a xlink:href="object__pair_8h.html" target="_top" xlink:title="ltr/data/object_pair.h">
<polygon style="fill:white;stroke:black;" points="1280,-168 1280,-188 1384,-188 1384,-168 1280,-168"/>
<text text-anchor="middle" x="1332" y="-175" style="font-family:Arial;font-size:10.00;">ltr/data/object_pair.h</text>
</a>
</g>
<!-- Node8&#45;&gt;Node19 -->
<g id="edge72" class="edge"><title>Node8&#45;&gt;Node19</title>
<path style="fill:none;stroke:midnightblue;" d="M1255,-280C1264,-271 1278,-257 1289,-244 1300,-229 1312,-210 1321,-197"/>
<polygon style="fill:midnightblue;stroke:midnightblue;" points="1324.2,-198.441 1326,-188 1318.08,-195.042 1324.2,-198.441"/>
</g>
<!-- Node8&#45;&gt;Node20 -->
<g id="edge86" class="edge"><title>Node8&#45;&gt;Node20</title>
<path style="fill:none;stroke:midnightblue;" d="M1197,-282C1136,-272 1030,-256 961,-245"/>
<polygon style="fill:midnightblue;stroke:midnightblue;" points="961.492,-241.529 951,-243 960.119,-248.393 961.492,-241.529"/>
</g>
<!-- Node8&#45;&gt;Node27 -->
<g id="edge120" class="edge"><title>Node8&#45;&gt;Node27</title>
<path style="fill:none;stroke:midnightblue;" d="M1235,-280C1228,-272 1218,-261 1209,-251"/>
<polygon style="fill:midnightblue;stroke:midnightblue;" points="1211.55,-248.596 1202,-244 1206.6,-253.546 1211.55,-248.596"/>
</g>
<!-- Node8&#45;&gt;Node28 -->
<g id="edge132" class="edge"><title>Node8&#45;&gt;Node28</title>
<path style="fill:none;stroke:midnightblue;" d="M1197,-286C1062,-275 676,-240 562,-188 503,-161 445,-110 417,-83"/>
<polygon style="fill:midnightblue;stroke:midnightblue;" points="419.546,-80.5962 410,-76 414.596,-85.546 419.546,-80.5962"/>
</g>
<!-- Node10&#45;&gt;Node2 -->
<g id="edge40" class="edge"><title>Node10&#45;&gt;Node2</title>
<path style="fill:none;stroke:midnightblue;" d="M1482,-112C1487,-97 1494,-71 1480,-56 1465,-40 794,-16 642,-11"/>
<polygon style="fill:midnightblue;stroke:midnightblue;" points="642,-7.5001 632,-11 642,-14.5001 642,-7.5001"/>
</g>
<!-- Node10&#45;&gt;Node3 -->
<g id="edge42" class="edge"><title>Node10&#45;&gt;Node3</title>
<path style="fill:none;stroke:midnightblue;" d="M1518,-112C1561,-101 1630,-84 1669,-74"/>
<polygon style="fill:midnightblue;stroke:midnightblue;" points="1670.43,-77.2259 1679,-71 1668.42,-70.5212 1670.43,-77.2259"/>
</g>
<!-- Node10&#45;&gt;Node7 -->
<g id="edge38" class="edge"><title>Node10&#45;&gt;Node7</title>
<path style="fill:none;stroke:midnightblue;" d="M1436,-117C1351,-106 1155,-82 1071,-71"/>
<polygon style="fill:midnightblue;stroke:midnightblue;" points="1071.3,-67.5125 1061,-70 1070.6,-74.4778 1071.3,-67.5125"/>
</g>
<!-- Node11 -->
<g id="node28" class="node"><title>Node11</title>
<polygon style="fill:white;stroke:#bfbfbf;" points="1265,-56 1265,-76 1300,-76 1300,-56 1265,-56"/>
<text text-anchor="middle" x="1282" y="-63" style="font-family:Arial;font-size:10.00;">map</text>
</g>
<!-- Node10&#45;&gt;Node11 -->
<g id="edge34" class="edge"><title>Node10&#45;&gt;Node11</title>
<path style="fill:none;stroke:midnightblue;" d="M1443,-112C1405,-101 1345,-84 1310,-74"/>
<polygon style="fill:midnightblue;stroke:midnightblue;" points="1310.58,-70.5212 1300,-71 1308.57,-77.2259 1310.58,-70.5212"/>
</g>
<!-- Node12 -->
<g id="node30" class="node"><title>Node12</title>
<polygon style="fill:white;stroke:#bfbfbf;" points="1450,-0 1450,-20 1501,-20 1501,-0 1450,-0"/>
<text text-anchor="middle" x="1475" y="-7" style="font-family:Arial;font-size:10.00;">ostream</text>
</g>
<!-- Node10&#45;&gt;Node12 -->
<g id="edge36" class="edge"><title>Node10&#45;&gt;Node12</title>
<path style="fill:none;stroke:midnightblue;" d="M1490,-112C1502,-99 1520,-77 1513,-56 1509,-46 1502,-36 1494,-27"/>
<polygon style="fill:midnightblue;stroke:midnightblue;" points="1496.55,-24.5962 1487,-20 1491.6,-29.546 1496.55,-24.5962"/>
</g>
<!-- Node13 -->
<g id="node35" class="node"><title>Node13</title>
<a xlink:href="printable_8h.html" target="_top" xlink:title="ltr/interfaces/printable.h">
<polygon style="fill:white;stroke:black;" points="1355,-56 1355,-76 1472,-76 1472,-56 1355,-56"/>
<text text-anchor="middle" x="1413" y="-63" style="font-family:Arial;font-size:10.00;">ltr/interfaces/printable.h</text>
</a>
</g>
<!-- Node10&#45;&gt;Node13 -->
<g id="edge44" class="edge"><title>Node10&#45;&gt;Node13</title>
<path style="fill:none;stroke:midnightblue;" d="M1466,-112C1457,-104 1444,-93 1433,-83"/>
<polygon style="fill:midnightblue;stroke:midnightblue;" points="1434.83,-79.9511 1425,-76 1430.22,-85.2191 1434.83,-79.9511"/>
</g>
<!-- Node10&#45;&gt;Node14 -->
<g id="edge50" class="edge"><title>Node10&#45;&gt;Node14</title>
<path style="fill:none;stroke:midnightblue;" d="M1436,-114C1385,-105 1299,-89 1241,-78"/>
<polygon style="fill:midnightblue;stroke:midnightblue;" points="1241.49,-74.5292 1231,-76 1240.12,-81.3933 1241.49,-74.5292"/>
</g>
<!-- Node13&#45;&gt;Node2 -->
<g id="edge48" class="edge"><title>Node13&#45;&gt;Node2</title>
<path style="fill:none;stroke:midnightblue;" d="M1355,-57C1350,-57 1346,-56 1341,-56 1070,-28 742,-15 642,-11"/>
<polygon style="fill:midnightblue;stroke:midnightblue;" points="642,-7.5001 632,-11 642,-14.5001 642,-7.5001"/>
</g>
<!-- Node13&#45;&gt;Node12 -->
<g id="edge46" class="edge"><title>Node13&#45;&gt;Node12</title>
<path style="fill:none;stroke:midnightblue;" d="M1424,-56C1433,-48 1446,-37 1456,-27"/>
<polygon style="fill:midnightblue;stroke:midnightblue;" points="1458.78,-29.2191 1464,-20 1454.17,-23.9511 1458.78,-29.2191"/>
</g>
<!-- Node15 -->
<g id="node41" class="node"><title>Node15</title>
<polygon style="fill:white;stroke:#bfbfbf;" points="1290,-0 1290,-20 1346,-20 1346,-0 1290,-0"/>
<text text-anchor="middle" x="1318" y="-7" style="font-family:Arial;font-size:10.00;">algorithm</text>
</g>
<!-- Node14&#45;&gt;Node15 -->
<g id="edge52" class="edge"><title>Node14&#45;&gt;Node15</title>
<path style="fill:none;stroke:midnightblue;" d="M1202,-56C1225,-47 1258,-34 1283,-24"/>
<polygon style="fill:midnightblue;stroke:midnightblue;" points="1285.02,-26.9636 1293,-20 1282.42,-20.4643 1285.02,-26.9636"/>
</g>
<!-- Node16 -->
<g id="node43" class="node"><title>Node16</title>
<polygon style="fill:white;stroke:#bfbfbf;" points="958,-0 958,-20 1065,-20 1065,-0 958,-0"/>
<text text-anchor="middle" x="1011" y="-7" style="font-family:Arial;font-size:10.00;">boost/shared_ptr.hpp</text>
</g>
<!-- Node14&#45;&gt;Node16 -->
<g id="edge54" class="edge"><title>Node14&#45;&gt;Node16</title>
<path style="fill:none;stroke:midnightblue;" d="M1147,-56C1120,-47 1080,-33 1051,-23"/>
<polygon style="fill:midnightblue;stroke:midnightblue;" points="1051.58,-19.5212 1041,-20 1049.57,-26.2259 1051.58,-19.5212"/>
</g>
<!-- Node17 -->
<g id="node45" class="node"><title>Node17</title>
<polygon style="fill:white;stroke:#bfbfbf;" points="1082,-0 1082,-20 1273,-20 1273,-0 1082,-0"/>
<text text-anchor="middle" x="1177" y="-7" style="font-family:Arial;font-size:10.00;">boost/smart_ptr/detail/operator_bool.hpp</text>
</g>
<!-- Node14&#45;&gt;Node17 -->
<g id="edge56" class="edge"><title>Node14&#45;&gt;Node17</title>
<path style="fill:none;stroke:midnightblue;" d="M1177,-56C1177,-49 1177,-39 1177,-30"/>
<polygon style="fill:midnightblue;stroke:midnightblue;" points="1180.5,-30 1177,-20 1173.5,-30 1180.5,-30"/>
</g>
<!-- Node18&#45;&gt;Node2 -->
<g id="edge62" class="edge"><title>Node18&#45;&gt;Node2</title>
<path style="fill:none;stroke:midnightblue;" d="M1203,-168C1183,-143 1129,-81 1069,-56 991,-22 731,-13 642,-10"/>
<polygon style="fill:midnightblue;stroke:midnightblue;" points="642,-6.5001 632,-10 642,-13.5001 642,-6.5001"/>
</g>
<!-- Node18&#45;&gt;Node3 -->
<g id="edge64" class="edge"><title>Node18&#45;&gt;Node3</title>
<path style="fill:none;stroke:midnightblue;" d="M1262,-169C1265,-169 1268,-168 1271,-168 1385,-150 1419,-170 1529,-132 1545,-126 1546,-119 1562,-112 1597,-95 1640,-82 1669,-74"/>
<polygon style="fill:midnightblue;stroke:midnightblue;" points="1670.43,-77.2259 1679,-71 1668.42,-70.5212 1670.43,-77.2259"/>
</g>
<!-- Node18&#45;&gt;Node7 -->
<g id="edge60" class="edge"><title>Node18&#45;&gt;Node7</title>
<path style="fill:none;stroke:midnightblue;" d="M1171,-168C1146,-160 1115,-149 1090,-132 1071,-119 1054,-99 1044,-85"/>
<polygon style="fill:midnightblue;stroke:midnightblue;" points="1046.46,-82.3791 1038,-76 1040.63,-86.262 1046.46,-82.3791"/>
</g>
<!-- Node18&#45;&gt;Node10 -->
<g id="edge66" class="edge"><title>Node18&#45;&gt;Node10</title>
<path style="fill:none;stroke:midnightblue;" d="M1259,-168C1306,-159 1378,-143 1426,-133"/>
<polygon style="fill:midnightblue;stroke:midnightblue;" points="1426.88,-136.393 1436,-131 1425.51,-129.529 1426.88,-136.393"/>
</g>
<!-- Node18&#45;&gt;Node13 -->
<g id="edge68" class="edge"><title>Node18&#45;&gt;Node13</title>
<path style="fill:none;stroke:midnightblue;" d="M1234,-168C1254,-159 1283,-145 1308,-132 1337,-116 1369,-95 1389,-82"/>
<polygon style="fill:midnightblue;stroke:midnightblue;" points="1391.62,-84.4592 1398,-76 1387.74,-78.6349 1391.62,-84.4592"/>
</g>
<!-- Node18&#45;&gt;Node14 -->
<g id="edge70" class="edge"><title>Node18&#45;&gt;Node14</title>
<path style="fill:none;stroke:midnightblue;" d="M1208,-168C1202,-149 1190,-110 1183,-86"/>
<polygon style="fill:midnightblue;stroke:midnightblue;" points="1186.23,-84.5725 1180,-76 1179.52,-86.584 1186.23,-84.5725"/>
</g>
<!-- Node19&#45;&gt;Node2 -->
<g id="edge76" class="edge"><title>Node19&#45;&gt;Node2</title>
<path style="fill:none;stroke:midnightblue;" d="M1334,-168C1337,-144 1340,-84 1308,-56 1282,-34 773,-15 642,-11"/>
<polygon style="fill:midnightblue;stroke:midnightblue;" points="642,-7.5001 632,-11 642,-14.5001 642,-7.5001"/>
</g>
<!-- Node19&#45;&gt;Node3 -->
<g id="edge78" class="edge"><title>Node19&#45;&gt;Node3</title>
<path style="fill:none;stroke:midnightblue;" d="M1384,-169C1441,-159 1529,-142 1562,-132 1602,-119 1646,-96 1673,-81"/>
<polygon style="fill:midnightblue;stroke:midnightblue;" points="1674.96,-83.916 1682,-76 1671.56,-77.7969 1674.96,-83.916"/>
</g>
<!-- Node19&#45;&gt;Node7 -->
<g id="edge74" class="edge"><title>Node19&#45;&gt;Node7</title>
<path style="fill:none;stroke:midnightblue;" d="M1305,-168C1251,-147 1130,-102 1068,-80"/>
<polygon style="fill:midnightblue;stroke:midnightblue;" points="1068.58,-76.4643 1058,-76 1065.98,-82.9636 1068.58,-76.4643"/>
</g>
<!-- Node19&#45;&gt;Node10 -->
<g id="edge80" class="edge"><title>Node19&#45;&gt;Node10</title>
<path style="fill:none;stroke:midnightblue;" d="M1358,-168C1381,-159 1416,-146 1442,-136"/>
<polygon style="fill:midnightblue;stroke:midnightblue;" points="1444.02,-138.964 1452,-132 1441.42,-132.464 1444.02,-138.964"/>
</g>
<!-- Node19&#45;&gt;Node13 -->
<g id="edge82" class="edge"><title>Node19&#45;&gt;Node13</title>
<path style="fill:none;stroke:midnightblue;" d="M1346,-168C1357,-159 1373,-146 1384,-132 1394,-118 1401,-100 1406,-86"/>
<polygon style="fill:midnightblue;stroke:midnightblue;" points="1409.54,-86.5847 1410,-76 1403.04,-83.9849 1409.54,-86.5847"/>
</g>
<!-- Node19&#45;&gt;Node14 -->
<g id="edge84" class="edge"><title>Node19&#45;&gt;Node14</title>
<path style="fill:none;stroke:midnightblue;" d="M1318,-168C1291,-148 1232,-106 1199,-82"/>
<polygon style="fill:midnightblue;stroke:midnightblue;" points="1201.1,-79.2 1191,-76 1196.9,-84.8 1201.1,-79.2"/>
</g>
<!-- Node20&#45;&gt;Node2 -->
<g id="edge90" class="edge"><title>Node20&#45;&gt;Node2</title>
<path style="fill:none;stroke:midnightblue;" d="M844,-228C772,-220 650,-205 608,-188 567,-171 555,-165 527,-132 503,-104 481,-85 501,-56 519,-29 555,-18 582,-13"/>
<polygon style="fill:midnightblue;stroke:midnightblue;" points="582.398,-16.4778 592,-12 581.701,-9.5125 582.398,-16.4778"/>
</g>
<!-- Node20&#45;&gt;Node3 -->
<g id="edge92" class="edge"><title>Node20&#45;&gt;Node3</title>
<path style="fill:none;stroke:midnightblue;" d="M951,-232C1043,-228 1234,-217 1393,-188 1484,-171 1509,-169 1594,-132 1625,-118 1657,-96 1678,-82"/>
<polygon style="fill:midnightblue;stroke:midnightblue;" points="1680.1,-84.8 1686,-76 1675.9,-79.2 1680.1,-84.8"/>
</g>
<!-- Node20&#45;&gt;Node11 -->
<g id="edge88" class="edge"><title>Node20&#45;&gt;Node11</title>
<path style="fill:none;stroke:midnightblue;" d="M920,-224C988,-194 1184,-109 1256,-78"/>
<polygon style="fill:midnightblue;stroke:midnightblue;" points="1257.28,-81.2598 1265,-74 1254.44,-74.8631 1257.28,-81.2598"/>
</g>
<!-- Node20&#45;&gt;Node14 -->
<g id="edge118" class="edge"><title>Node20&#45;&gt;Node14</title>
<path style="fill:none;stroke:midnightblue;" d="M900,-224C909,-200 934,-141 976,-112 998,-96 1063,-83 1114,-75"/>
<polygon style="fill:midnightblue;stroke:midnightblue;" points="1114.88,-78.3933 1124,-73 1113.51,-71.5292 1114.88,-78.3933"/>
</g>
<!-- Node20&#45;&gt;Node21 -->
<g id="edge94" class="edge"><title>Node20&#45;&gt;Node21</title>
<path style="fill:none;stroke:midnightblue;" d="M860,-224C825,-215 773,-201 736,-191"/>
<polygon style="fill:midnightblue;stroke:midnightblue;" points="736.584,-187.521 726,-188 734.573,-194.226 736.584,-187.521"/>
</g>
<!-- Node21&#45;&gt;Node2 -->
<g id="edge98" class="edge"><title>Node21&#45;&gt;Node2</title>
<path style="fill:none;stroke:midnightblue;" d="M633,-168C596,-160 550,-147 539,-132 512,-95 585,-85 593,-76 602,-63 608,-44 610,-30"/>
<polygon style="fill:midnightblue;stroke:midnightblue;" points="613.488,-30.2987 611,-20 606.522,-29.6021 613.488,-30.2987"/>
</g>
<!-- Node21&#45;&gt;Node7 -->
<g id="edge96" class="edge"><title>Node21&#45;&gt;Node7</title>
<path style="fill:none;stroke:midnightblue;" d="M708,-168C745,-150 818,-114 824,-112 880,-92 950,-78 992,-72"/>
<polygon style="fill:midnightblue;stroke:midnightblue;" points="992.881,-75.3933 1002,-70 991.508,-68.5292 992.881,-75.3933"/>
</g>
<!-- Node22 -->
<g id="node72" class="node"><title>Node22</title>
<a xlink:href="parameters__container_8h.html" target="_top" xlink:title="ltr/parameters_container/parameters_container.h">
<polygon style="fill:white;stroke:black;" points="548,-112 548,-132 773,-132 773,-112 548,-112"/>
<text text-anchor="middle" x="660" y="-119" style="font-family:Arial;font-size:10.00;">ltr/parameters_container/parameters_container.h</text>
</a>
</g>
<!-- Node21&#45;&gt;Node22 -->
<g id="edge100" class="edge"><title>Node21&#45;&gt;Node22</title>
<path style="fill:none;stroke:midnightblue;" d="M683,-168C679,-161 674,-150 669,-141"/>
<polygon style="fill:midnightblue;stroke:midnightblue;" points="672.26,-139.717 665,-132 665.863,-142.56 672.26,-139.717"/>
</g>
<!-- Node22&#45;&gt;Node2 -->
<g id="edge108" class="edge"><title>Node22&#45;&gt;Node2</title>
<path style="fill:none;stroke:midnightblue;" d="M746,-112C816,-103 906,-89 917,-76 922,-69 922,-62 917,-56 899,-35 716,-19 642,-13"/>
<polygon style="fill:midnightblue;stroke:midnightblue;" points="642.299,-9.5125 632,-12 641.602,-16.4778 642.299,-9.5125"/>
</g>
<!-- Node22&#45;&gt;Node7 -->
<g id="edge106" class="edge"><title>Node22&#45;&gt;Node7</title>
<path style="fill:none;stroke:midnightblue;" d="M726,-112C804,-101 928,-81 992,-72"/>
<polygon style="fill:midnightblue;stroke:midnightblue;" points="992.881,-75.3933 1002,-70 991.508,-68.5292 992.881,-75.3933"/>
</g>
<!-- Node22&#45;&gt;Node13 -->
<g id="edge116" class="edge"><title>Node22&#45;&gt;Node13</title>
<path style="fill:none;stroke:midnightblue;" d="M773,-115C903,-106 1121,-91 1308,-76 1320,-75 1333,-74 1345,-73"/>
<polygon style="fill:midnightblue;stroke:midnightblue;" points="1345.4,-76.4778 1355,-72 1344.7,-69.5125 1345.4,-76.4778"/>
</g>
<!-- Node22&#45;&gt;Node14 -->
<g id="edge114" class="edge"><title>Node22&#45;&gt;Node14</title>
<path style="fill:none;stroke:midnightblue;" d="M752,-112C856,-100 1023,-82 1114,-73"/>
<polygon style="fill:midnightblue;stroke:midnightblue;" points="1114.4,-76.4778 1124,-72 1113.7,-69.5125 1114.4,-76.4778"/>
</g>
<!-- Node23 -->
<g id="node74" class="node"><title>Node23</title>
<polygon style="fill:white;stroke:#bfbfbf;" points="510,-56 510,-76 584,-76 584,-56 510,-56"/>
<text text-anchor="middle" x="547" y="-63" style="font-family:Arial;font-size:10.00;">logog/logog.h</text>
</g>
<!-- Node22&#45;&gt;Node23 -->
<g id="edge102" class="edge"><title>Node22&#45;&gt;Node23</title>
<path style="fill:none;stroke:midnightblue;" d="M640,-112C622,-103 596,-90 576,-80"/>
<polygon style="fill:midnightblue;stroke:midnightblue;" points="577.56,-76.8631 567,-76 574.717,-83.2598 577.56,-76.8631"/>
</g>
<!-- Node24 -->
<g id="node76" class="node"><title>Node24</title>
<polygon style="fill:white;stroke:#bfbfbf;" points="640,-56 640,-76 669,-76 669,-56 640,-56"/>
<text text-anchor="middle" x="654" y="-63" style="font-family:Arial;font-size:10.00;">list</text>
</g>
<!-- Node22&#45;&gt;Node24 -->
<g id="edge104" class="edge"><title>Node22&#45;&gt;Node24</title>
<path style="fill:none;stroke:midnightblue;" d="M659,-112C658,-105 657,-95 656,-86"/>
<polygon style="fill:midnightblue;stroke:midnightblue;" points="659.478,-85.6021 655,-76 652.512,-86.2987 659.478,-85.6021"/>
</g>
<!-- Node25 -->
<g id="node80" class="node"><title>Node25</title>
<polygon style="fill:white;stroke:#bfbfbf;" points="686,-56 686,-76 763,-76 763,-56 686,-56"/>
<text text-anchor="middle" x="724" y="-63" style="font-family:Arial;font-size:10.00;">boost/any.hpp</text>
</g>
<!-- Node22&#45;&gt;Node25 -->
<g id="edge110" class="edge"><title>Node22&#45;&gt;Node25</title>
<path style="fill:none;stroke:midnightblue;" d="M671,-112C681,-104 694,-93 705,-83"/>
<polygon style="fill:midnightblue;stroke:midnightblue;" points="707.404,-85.546 712,-76 702.454,-80.5962 707.404,-85.546"/>
</g>
<!-- Node26 -->
<g id="node82" class="node"><title>Node26</title>
<polygon style="fill:white;stroke:#bfbfbf;" points="780,-56 780,-76 909,-76 909,-56 780,-56"/>
<text text-anchor="middle" x="844" y="-63" style="font-family:Arial;font-size:10.00;">boost/unordered_map.hpp</text>
</g>
<!-- Node22&#45;&gt;Node26 -->
<g id="edge112" class="edge"><title>Node22&#45;&gt;Node26</title>
<path style="fill:none;stroke:midnightblue;" d="M693,-112C723,-103 768,-89 801,-79"/>
<polygon style="fill:midnightblue;stroke:midnightblue;" points="802.427,-82.2259 811,-76 800.416,-75.5212 802.427,-82.2259"/>
</g>
<!-- Node27&#45;&gt;Node10 -->
<g id="edge122" class="edge"><title>Node27&#45;&gt;Node10</title>
<path style="fill:none;stroke:midnightblue;" d="M1267,-225C1306,-218 1353,-207 1393,-188 1419,-175 1444,-154 1460,-139"/>
<polygon style="fill:midnightblue;stroke:midnightblue;" points="1462.78,-141.219 1468,-132 1458.17,-135.951 1462.78,-141.219"/>
</g>
<!-- Node27&#45;&gt;Node14 -->
<g id="edge130" class="edge"><title>Node27&#45;&gt;Node14</title>
<path style="fill:none;stroke:midnightblue;" d="M1180,-224C1170,-215 1157,-202 1151,-188 1137,-153 1154,-109 1166,-85"/>
<polygon style="fill:midnightblue;stroke:midnightblue;" points="1169.2,-86.4414 1171,-76 1163.08,-83.0418 1169.2,-86.4414"/>
</g>
<!-- Node27&#45;&gt;Node18 -->
<g id="edge126" class="edge"><title>Node27&#45;&gt;Node18</title>
<path style="fill:none;stroke:midnightblue;" d="M1196,-224C1198,-217 1201,-207 1205,-197"/>
<polygon style="fill:midnightblue;stroke:midnightblue;" points="1208.16,-198.594 1208,-188 1201.52,-196.38 1208.16,-198.594"/>
</g>
<!-- Node27&#45;&gt;Node19 -->
<g id="edge124" class="edge"><title>Node27&#45;&gt;Node19</title>
<path style="fill:none;stroke:midnightblue;" d="M1218,-224C1240,-215 1273,-202 1298,-192"/>
<polygon style="fill:midnightblue;stroke:midnightblue;" points="1299.28,-195.26 1307,-188 1296.44,-188.863 1299.28,-195.26"/>
</g>
<!-- Node27&#45;&gt;Node21 -->
<g id="edge128" class="edge"><title>Node27&#45;&gt;Node21</title>
<path style="fill:none;stroke:midnightblue;" d="M1120,-226C1026,-215 866,-197 769,-187"/>
<polygon style="fill:midnightblue;stroke:midnightblue;" points="769.299,-183.512 759,-186 768.602,-190.478 769.299,-183.512"/>
</g>
<!-- Node28&#45;&gt;Node2 -->
<g id="edge134" class="edge"><title>Node28&#45;&gt;Node2</title>
<path style="fill:none;stroke:midnightblue;" d="M438,-56C479,-45 544,-28 582,-18"/>
<polygon style="fill:midnightblue;stroke:midnightblue;" points="583.427,-21.2259 592,-15 581.416,-14.5212 583.427,-21.2259"/>
</g>
<!-- Node29&#45;&gt;Node2 -->
<g id="edge150" class="edge"><title>Node29&#45;&gt;Node2</title>
<path style="fill:none;stroke:midnightblue;" d="M314,-112C316,-97 320,-70 337,-56 373,-25 518,-14 582,-11"/>
<polygon style="fill:midnightblue;stroke:midnightblue;" points="582,-14.5001 592,-11 582,-7.5001 582,-14.5001"/>
</g>
<!-- Node29&#45;&gt;Node14 -->
<g id="edge154" class="edge"><title>Node29&#45;&gt;Node14</title>
<path style="fill:none;stroke:midnightblue;" d="M379,-119C510,-112 813,-95 1069,-76 1084,-75 1099,-74 1114,-72"/>
<polygon style="fill:midnightblue;stroke:midnightblue;" points="1114.4,-75.4778 1124,-71 1113.7,-68.5125 1114.4,-75.4778"/>
</g>
<!-- Node29&#45;&gt;Node23 -->
<g id="edge148" class="edge"><title>Node29&#45;&gt;Node23</title>
<path style="fill:none;stroke:midnightblue;" d="M356,-112C397,-103 458,-87 500,-77"/>
<polygon style="fill:midnightblue;stroke:midnightblue;" points="500.881,-80.3933 510,-75 499.508,-73.5292 500.881,-80.3933"/>
</g>
<!-- Node29&#45;&gt;Node28 -->
<g id="edge156" class="edge"><title>Node29&#45;&gt;Node28</title>
<path style="fill:none;stroke:midnightblue;" d="M329,-112C342,-104 361,-91 376,-82"/>
<polygon style="fill:midnightblue;stroke:midnightblue;" points="378.1,-84.8 384,-76 373.9,-79.2 378.1,-84.8"/>
</g>
<!-- Node30 -->
<g id="node103" class="node"><title>Node30</title>
<polygon style="fill:white;stroke:#bfbfbf;" points="104,-56 104,-76 218,-76 218,-56 104,-56"/>
<text text-anchor="middle" x="161" y="-63" style="font-family:Arial;font-size:10.00;">boost/lexical_cast.hpp</text>
</g>
<!-- Node29&#45;&gt;Node30 -->
<g id="edge146" class="edge"><title>Node29&#45;&gt;Node30</title>
<path style="fill:none;stroke:midnightblue;" d="M287,-112C262,-103 225,-89 198,-79"/>
<polygon style="fill:midnightblue;stroke:midnightblue;" points="198.584,-75.5212 188,-76 196.573,-82.2259 198.584,-75.5212"/>
</g>
<!-- Node31 -->
<g id="node107" class="node"><title>Node31</title>
<polygon style="fill:white;stroke:#bfbfbf;" points="236,-56 236,-76 290,-76 290,-56 236,-56"/>
<text text-anchor="middle" x="263" y="-63" style="font-family:Arial;font-size:10.00;">iostream</text>
</g>
<!-- Node29&#45;&gt;Node31 -->
<g id="edge152" class="edge"><title>Node29&#45;&gt;Node31</title>
<path style="fill:none;stroke:midnightblue;" d="M305,-112C298,-104 288,-93 279,-83"/>
<polygon style="fill:midnightblue;stroke:midnightblue;" points="281.546,-80.5962 272,-76 276.596,-85.546 281.546,-80.5962"/>
</g>
<!-- Node32&#45;&gt;Node4 -->
<g id="edge166" class="edge"><title>Node32&#45;&gt;Node4</title>
<path style="fill:none;stroke:midnightblue;" d="M151,-336C130,-327 99,-313 76,-303"/>
<polygon style="fill:midnightblue;stroke:midnightblue;" points="77.5596,-299.863 67,-299 74.7166,-306.26 77.5596,-299.863"/>
</g>
<!-- Node33 -->
<g id="node115" class="node"><title>Node33</title>
<polygon style="fill:white;stroke:#bfbfbf;" points="153,-280 153,-300 196,-300 196,-280 153,-280"/>
<text text-anchor="middle" x="174" y="-287" style="font-family:Arial;font-size:10.00;">cmath</text>
</g>
<!-- Node32&#45;&gt;Node33 -->
<g id="edge164" class="edge"><title>Node32&#45;&gt;Node33</title>
<path style="fill:none;stroke:midnightblue;" d="M174,-336C174,-329 174,-319 174,-310"/>
<polygon style="fill:midnightblue;stroke:midnightblue;" points="177.5,-310 174,-300 170.5,-310 177.5,-310"/>
</g>
<!-- Node34&#45;&gt;Node3 -->
<g id="edge172" class="edge"><title>Node34&#45;&gt;Node3</title>
<path style="fill:none;stroke:midnightblue;" d="M1067,-399C1301,-391 1814,-364 1814,-290 1814,-290 1814,-290 1814,-178 1814,-146 1810,-135 1790,-112 1774,-94 1750,-82 1731,-75"/>
<polygon style="fill:midnightblue;stroke:midnightblue;" points="1731.58,-71.5212 1721,-72 1729.57,-78.2259 1731.58,-71.5212"/>
</g>
<!-- Node34&#45;&gt;Node6 -->
<g id="edge176" class="edge"><title>Node34&#45;&gt;Node6</title>
<path style="fill:none;stroke:midnightblue;" d="M943,-392C934,-384 922,-373 911,-363"/>
<polygon style="fill:midnightblue;stroke:midnightblue;" points="913.546,-360.596 904,-356 908.596,-365.546 913.546,-360.596"/>
</g>
<!-- Node34&#45;&gt;Node8 -->
<g id="edge174" class="edge"><title>Node34&#45;&gt;Node8</title>
<path style="fill:none;stroke:midnightblue;" d="M980,-392C1032,-371 1149,-326 1209,-304"/>
<polygon style="fill:midnightblue;stroke:midnightblue;" points="1210.28,-307.26 1218,-300 1207.44,-300.863 1210.28,-307.26"/>
</g>
<!-- Node34&#45;&gt;Node13 -->
<g id="edge180" class="edge"><title>Node34&#45;&gt;Node13</title>
<path style="fill:none;stroke:midnightblue;" d="M1044,-392C1196,-373 1493,-326 1553,-244 1587,-195 1568,-156 1529,-112 1515,-97 1496,-86 1477,-79"/>
<polygon style="fill:midnightblue;stroke:midnightblue;" points="1477.58,-75.5212 1467,-76 1475.57,-82.2259 1477.58,-75.5212"/>
</g>
<!-- Node34&#45;&gt;Node14 -->
<g id="edge184" class="edge"><title>Node34&#45;&gt;Node14</title>
<path style="fill:none;stroke:midnightblue;" d="M964,-392C973,-383 986,-369 997,-356 1071,-260 1141,-132 1167,-85"/>
<polygon style="fill:midnightblue;stroke:midnightblue;" points="1170.2,-86.4414 1172,-76 1164.08,-83.0418 1170.2,-86.4414"/>
</g>
<!-- Node34&#45;&gt;Node21 -->
<g id="edge178" class="edge"><title>Node34&#45;&gt;Node21</title>
<path style="fill:none;stroke:midnightblue;" d="M874,-392C845,-385 813,-374 789,-356 734,-315 705,-235 694,-198"/>
<polygon style="fill:midnightblue;stroke:midnightblue;" points="697.226,-196.573 691,-188 690.521,-198.584 697.226,-196.573"/>
</g>
<!-- Node34&#45;&gt;Node22 -->
<g id="edge182" class="edge"><title>Node34&#45;&gt;Node22</title>
<path style="fill:none;stroke:midnightblue;" d="M844,-392C674,-375 368,-338 368,-290 368,-290 368,-290 368,-234 368,-186 505,-151 592,-134"/>
<polygon style="fill:midnightblue;stroke:midnightblue;" points="592.881,-137.393 602,-132 591.508,-130.529 592.881,-137.393"/>
</g>
</g>
</svg>
