<?xml version="1.0" encoding="UTF-8" standalone="no"?>
<!DOCTYPE svg PUBLIC "-//W3C//DTD SVG 1.0//EN"
 "http://www.w3.org/TR/2001/REC-SVG-20010904/DTD/svg10.dtd" [
 <!ATTLIST svg xmlns:xlink CDATA #FIXED "http://www.w3.org/1999/xlink">
]>
<!-- Generated by Graphviz version 2.20.2 (Tue Mar &#160;2 19:03:41 UTC 2010)
     For user: (jenkins)  -->
<!-- Title: G Pages: 1 -->
<svg width="1205pt" height="140pt"
 viewBox="0.00 0.00 1205.00 140.00" xmlns="http://www.w3.org/2000/svg" xmlns:xlink="http://www.w3.org/1999/xlink">
<g id="graph0" class="graph" transform="scale(1 1) rotate(0) translate(4 136)">
<title>G</title>
<polygon style="fill:white;stroke:white;" points="-4,4 -4,-136 1201,-136 1201,4 -4,4"/>
<!-- Node1 -->
<g id="node1" class="node"><title>Node1</title>
<polygon style="fill:#bfbfbf;stroke:black;" points="492,-112 492,-132 717,-132 717,-112 492,-112"/>
<text text-anchor="middle" x="604" y="-119" style="font-family:Arial;font-size:10.00;">ltr/feature_converters/nan_to_neutral_converter.h</text>
</g>
<!-- Node2 -->
<g id="node3" class="node"><title>Node2</title>
<a xlink:href="nan__to__zero__learner_8h.html" target="_top" xlink:title="ltr/feature_converters/nan_to_zero_learner.h">
<polygon style="fill:white;stroke:black;" points="263,-56 263,-76 467,-76 467,-56 263,-56"/>
<text text-anchor="middle" x="365" y="-63" style="font-family:Arial;font-size:10.00;">ltr/feature_converters/nan_to_zero_learner.h</text>
</a>
</g>
<!-- Node1&#45;&gt;Node2 -->
<g id="edge2" class="edge"><title>Node1&#45;&gt;Node2</title>
<path style="fill:none;stroke:midnightblue;" d="M551,-110C508,-100 448,-85 408,-76"/>
<polygon style="fill:midnightblue;stroke:midnightblue;" points="550.508,-113.471 561,-112 551.881,-106.607 550.508,-113.471"/>
</g>
<!-- Node5 -->
<g id="node9" class="node"><title>Node5</title>
<a xlink:href="nan__to__average__learner_8h.html" target="_top" xlink:title="ltr/feature_converters/nan_to_average_learner.h">
<polygon style="fill:white;stroke:black;" points="27,-56 27,-76 246,-76 246,-56 27,-56"/>
<text text-anchor="middle" x="136" y="-63" style="font-family:Arial;font-size:10.00;">ltr/feature_converters/nan_to_average_learner.h</text>
</a>
</g>
<!-- Node1&#45;&gt;Node5 -->
<g id="edge8" class="edge"><title>Node1&#45;&gt;Node5</title>
<path style="fill:none;stroke:midnightblue;" d="M510,-111C425,-101 301,-86 219,-76"/>
<polygon style="fill:midnightblue;stroke:midnightblue;" points="509.701,-114.488 520,-112 510.398,-107.522 509.701,-114.488"/>
</g>
<!-- Node6 -->
<g id="node12" class="node"><title>Node6</title>
<a xlink:href="feature__converters__unittest_8cc.html" target="_top" xlink:title="ltr/feature_converters/feature_converters_unittest.cc">
<polygon style="fill:white;stroke:black;" points="485,-56 485,-76 724,-76 724,-56 485,-56"/>
<text text-anchor="middle" x="604" y="-63" style="font-family:Arial;font-size:10.00;">ltr/feature_converters/feature_converters_unittest.cc</text>
</a>
</g>
<!-- Node1&#45;&gt;Node6 -->
<g id="edge12" class="edge"><title>Node1&#45;&gt;Node6</title>
<path style="fill:none;stroke:midnightblue;" d="M604,-102C604,-93 604,-84 604,-76"/>
<polygon style="fill:midnightblue;stroke:midnightblue;" points="600.5,-102 604,-112 607.5,-102 600.5,-102"/>
</g>
<!-- Node7 -->
<g id="node14" class="node"><title>Node7</title>
<a xlink:href="nan__to__neutral__converter_8cc.html" target="_top" xlink:title="ltr/feature_converters/nan_to_neutral_converter.cc">
<polygon style="fill:white;stroke:black;" points="741,-56 741,-76 971,-76 971,-56 741,-56"/>
<text text-anchor="middle" x="856" y="-63" style="font-family:Arial;font-size:10.00;">ltr/feature_converters/nan_to_neutral_converter.cc</text>
</a>
</g>
<!-- Node1&#45;&gt;Node7 -->
<g id="edge14" class="edge"><title>Node1&#45;&gt;Node7</title>
<path style="fill:none;stroke:midnightblue;" d="M659,-110C705,-100 768,-85 811,-76"/>
<polygon style="fill:midnightblue;stroke:midnightblue;" points="658.119,-106.607 649,-112 659.492,-113.471 658.119,-106.607"/>
</g>
<!-- Node8 -->
<g id="node16" class="node"><title>Node8</title>
<a xlink:href="gp__learner__unittest_8cc.html" target="_top" xlink:title="ltr/learners/gp_learner/gp_learner_unittest.cc">
<polygon style="fill:white;stroke:black;" points="989,-56 989,-76 1198,-76 1198,-56 989,-56"/>
<text text-anchor="middle" x="1093" y="-63" style="font-family:Arial;font-size:10.00;">ltr/learners/gp_learner/gp_learner_unittest.cc</text>
</a>
</g>
<!-- Node1&#45;&gt;Node8 -->
<g id="edge16" class="edge"><title>Node1&#45;&gt;Node8</title>
<path style="fill:none;stroke:midnightblue;" d="M701,-111C790,-101 920,-86 1006,-76"/>
<polygon style="fill:midnightblue;stroke:midnightblue;" points="700.602,-107.522 691,-112 701.299,-114.488 700.602,-107.522"/>
</g>
<!-- Node3 -->
<g id="node5" class="node"><title>Node3</title>
<a xlink:href="feature__converters__learner__unittest_8cc.html" target="_top" xlink:title="ltr/feature_converters/feature_converters_learner_unittest.cc">
<polygon style="fill:white;stroke:black;" points="0,-0 0,-20 273,-20 273,-0 0,-0"/>
<text text-anchor="middle" x="136" y="-7" style="font-family:Arial;font-size:10.00;">ltr/feature_converters/feature_converters_learner_unittest.cc</text>
</a>
</g>
<!-- Node2&#45;&gt;Node3 -->
<g id="edge4" class="edge"><title>Node2&#45;&gt;Node3</title>
<path style="fill:none;stroke:midnightblue;" d="M314,-54C272,-44 215,-29 177,-20"/>
<polygon style="fill:midnightblue;stroke:midnightblue;" points="313.508,-57.4708 324,-56 314.881,-50.6067 313.508,-57.4708"/>
</g>
<!-- Node4 -->
<g id="node7" class="node"><title>Node4</title>
<a xlink:href="learners__unittest_8cc.html" target="_top" xlink:title="ltr/learners/learners_unittest.cc">
<polygon style="fill:white;stroke:black;" points="290,-0 290,-20 440,-20 440,-0 290,-0"/>
<text text-anchor="middle" x="365" y="-7" style="font-family:Arial;font-size:10.00;">ltr/learners/learners_unittest.cc</text>
</a>
</g>
<!-- Node2&#45;&gt;Node4 -->
<g id="edge6" class="edge"><title>Node2&#45;&gt;Node4</title>
<path style="fill:none;stroke:midnightblue;" d="M365,-46C365,-37 365,-28 365,-20"/>
<polygon style="fill:midnightblue;stroke:midnightblue;" points="361.5,-46 365,-56 368.5,-46 361.5,-46"/>
</g>
<!-- Node5&#45;&gt;Node3 -->
<g id="edge10" class="edge"><title>Node5&#45;&gt;Node3</title>
<path style="fill:none;stroke:midnightblue;" d="M136,-46C136,-37 136,-28 136,-20"/>
<polygon style="fill:midnightblue;stroke:midnightblue;" points="132.5,-46 136,-56 139.5,-46 132.5,-46"/>
</g>
</g>
</svg>
