<?xml version="1.0" encoding="UTF-8" standalone="no"?>
<!DOCTYPE svg PUBLIC "-//W3C//DTD SVG 1.0//EN"
 "http://www.w3.org/TR/2001/REC-SVG-20010904/DTD/svg10.dtd" [
 <!ATTLIST svg xmlns:xlink CDATA #FIXED "http://www.w3.org/1999/xlink">
]>
<!-- Generated by Graphviz version 2.20.2 (Tue Mar &#160;2 19:03:41 UTC 2010)
     For user: (jenkins)  -->
<!-- Title: G Pages: 1 -->
<svg width="364pt" height="84pt"
 viewBox="0.00 0.00 364.00 84.00" xmlns="http://www.w3.org/2000/svg" xmlns:xlink="http://www.w3.org/1999/xlink">
<g id="graph0" class="graph" transform="scale(1 1) rotate(0) translate(4 80)">
<title>G</title>
<polygon style="fill:white;stroke:white;" points="-4,4 -4,-80 360,-80 360,4 -4,4"/>
<!-- Node1 -->
<g id="node1" class="node"><title>Node1</title>
<polygon style="fill:#bfbfbf;stroke:black;" points="35,-56 35,-76 265,-76 265,-56 35,-56"/>
<text text-anchor="middle" x="150" y="-63" style="font-family:Arial;font-size:10.00;">ltr/feature_converters/nan_to_neutral_converter.cc</text>
</g>
<!-- Node2 -->
<g id="node3" class="node"><title>Node2</title>
<polygon style="fill:white;stroke:#bfbfbf;" points="0,-0 0,-20 114,-20 114,-0 0,-0"/>
<text text-anchor="middle" x="57" y="-7" style="font-family:Arial;font-size:10.00;">boost/lexical_cast.hpp</text>
</g>
<!-- Node1&#45;&gt;Node2 -->
<g id="edge2" class="edge"><title>Node1&#45;&gt;Node2</title>
<path style="fill:none;stroke:midnightblue;" d="M133,-56C120,-48 99,-35 83,-25"/>
<polygon style="fill:midnightblue;stroke:midnightblue;" points="84.4414,-21.7969 74,-20 81.0418,-27.916 84.4414,-21.7969"/>
</g>
<!-- Node3 -->
<g id="node5" class="node"><title>Node3</title>
<polygon style="fill:white;stroke:#bfbfbf;" points="132,-0 132,-20 357,-20 357,-0 132,-0"/>
<text text-anchor="middle" x="244" y="-7" style="font-family:Arial;font-size:10.00;">ltr/feature_converters/nan_to_neutral_converter.h</text>
</g>
<!-- Node1&#45;&gt;Node3 -->
<g id="edge4" class="edge"><title>Node1&#45;&gt;Node3</title>
<path style="fill:none;stroke:midnightblue;" d="M167,-56C181,-48 202,-35 218,-25"/>
<polygon style="fill:midnightblue;stroke:midnightblue;" points="219.958,-27.916 227,-20 216.559,-21.7969 219.958,-27.916"/>
</g>
</g>
</svg>
