<?xml version="1.0" encoding="UTF-8" standalone="no"?>
<!DOCTYPE svg PUBLIC "-//W3C//DTD SVG 1.0//EN"
 "http://www.w3.org/TR/2001/REC-SVG-20010904/DTD/svg10.dtd" [
 <!ATTLIST svg xmlns:xlink CDATA #FIXED "http://www.w3.org/1999/xlink">
]>
<!-- Generated by Graphviz version 2.20.2 (Tue Mar &#160;2 19:03:41 UTC 2010)
     For user: (jenkins)  -->
<!-- Title: G Pages: 1 -->
<svg width="1868pt" height="476pt"
 viewBox="0.00 0.00 1868.00 476.00" xmlns="http://www.w3.org/2000/svg" xmlns:xlink="http://www.w3.org/1999/xlink">
<g id="graph0" class="graph" transform="scale(1 1) rotate(0) translate(4 472)">
<title>G</title>
<polygon style="fill:white;stroke:white;" points="-4,4 -4,-472 1864,-472 1864,4 -4,4"/>
<!-- Node1 -->
<g id="node1" class="node"><title>Node1</title>
<polygon style="fill:#bfbfbf;stroke:black;" points="961,-448 961,-468 1063,-468 1063,-448 961,-448"/>
<text text-anchor="middle" x="1012" y="-455" style="font-family:Arial;font-size:10.00;">ltr/measures/ndcg.h</text>
</g>
<!-- Node2 -->
<g id="node3" class="node"><title>Node2</title>
<polygon style="fill:white;stroke:#bfbfbf;" points="997,-56 997,-76 1056,-76 1056,-56 997,-56"/>
<text text-anchor="middle" x="1026" y="-63" style="font-family:Arial;font-size:10.00;">stdexcept</text>
</g>
<!-- Node1&#45;&gt;Node2 -->
<g id="edge2" class="edge"><title>Node1&#45;&gt;Node2</title>
<path style="fill:none;stroke:midnightblue;" d="M993,-448C980,-440 964,-428 955,-412 942,-390 948,-381 947,-356 939,-250 1006,-235 1026,-132 1028,-117 1028,-100 1028,-86"/>
<polygon style="fill:midnightblue;stroke:midnightblue;" points="1031.48,-85.6021 1027,-76 1024.51,-86.2987 1031.48,-85.6021"/>
</g>
<!-- Node3 -->
<g id="node5" class="node"><title>Node3</title>
<polygon style="fill:white;stroke:#bfbfbf;" points="1661,-0 1661,-20 1717,-20 1717,-0 1661,-0"/>
<text text-anchor="middle" x="1689" y="-7" style="font-family:Arial;font-size:10.00;">algorithm</text>
</g>
<!-- Node1&#45;&gt;Node3 -->
<g id="edge4" class="edge"><title>Node1&#45;&gt;Node3</title>
<path style="fill:none;stroke:midnightblue;" d="M1063,-457C1206,-456 1607,-447 1734,-412 1794,-394 1860,-409 1860,-346 1860,-346 1860,-346 1860,-122 1860,-58 1778,-29 1727,-17"/>
<polygon style="fill:midnightblue;stroke:midnightblue;" points="1727.49,-13.5292 1717,-15 1726.12,-20.3933 1727.49,-13.5292"/>
</g>
<!-- Node4 -->
<g id="node7" class="node"><title>Node4</title>
<polygon style="fill:white;stroke:#bfbfbf;" points="163,-56 163,-76 205,-76 205,-56 163,-56"/>
<text text-anchor="middle" x="184" y="-63" style="font-family:Arial;font-size:10.00;">vector</text>
</g>
<!-- Node1&#45;&gt;Node4 -->
<g id="edge6" class="edge"><title>Node1&#45;&gt;Node4</title>
<path style="fill:none;stroke:midnightblue;" d="M961,-457C806,-453 347,-439 201,-412 108,-394 0,-440 0,-346 0,-346 0,-346 0,-178 0,-107 101,-80 153,-71"/>
<polygon style="fill:midnightblue;stroke:midnightblue;" points="153.881,-74.3933 163,-69 152.508,-67.5292 153.881,-74.3933"/>
</g>
<!-- Node5 -->
<g id="node9" class="node"><title>Node5</title>
<polygon style="fill:white;stroke:#bfbfbf;" points="949,-0 949,-20 989,-20 989,-0 949,-0"/>
<text text-anchor="middle" x="969" y="-7" style="font-family:Arial;font-size:10.00;">string</text>
</g>
<!-- Node1&#45;&gt;Node5 -->
<g id="edge8" class="edge"><title>Node1&#45;&gt;Node5</title>
<path style="fill:none;stroke:midnightblue;" d="M1063,-455C1223,-445 1700,-410 1700,-346 1700,-346 1700,-346 1700,-178 1700,-107 1662,-88 1600,-56 1546,-28 1118,-14 999,-11"/>
<polygon style="fill:midnightblue;stroke:midnightblue;" points="999,-7.5001 989,-11 999,-14.5001 999,-7.5001"/>
</g>
<!-- Node6 -->
<g id="node11" class="node"><title>Node6</title>
<a xlink:href="object__list_8h.html" target="_top" xlink:title="ltr/data/object_list.h">
<polygon style="fill:white;stroke:black;" points="229,-168 229,-188 331,-188 331,-168 229,-168"/>
<text text-anchor="middle" x="280" y="-175" style="font-family:Arial;font-size:10.00;">ltr/data/object_list.h</text>
</a>
</g>
<!-- Node1&#45;&gt;Node6 -->
<g id="edge10" class="edge"><title>Node1&#45;&gt;Node6</title>
<path style="fill:none;stroke:midnightblue;" d="M961,-457C820,-453 427,-439 301,-412 232,-397 202,-406 153,-356 128,-331 116,-310 133,-280 155,-236 206,-207 241,-192"/>
<polygon style="fill:midnightblue;stroke:midnightblue;" points="243.015,-194.964 251,-188 240.415,-188.464 243.015,-194.964"/>
</g>
<!-- Node14 -->
<g id="node38" class="node"><title>Node14</title>
<a xlink:href="measure_8h.html" target="_top" xlink:title="ltr/measures/measure.h">
<polygon style="fill:white;stroke:black;" points="1145,-336 1145,-356 1264,-356 1264,-336 1145,-336"/>
<text text-anchor="middle" x="1204" y="-343" style="font-family:Arial;font-size:10.00;">ltr/measures/measure.h</text>
</a>
</g>
<!-- Node1&#45;&gt;Node14 -->
<g id="edge48" class="edge"><title>Node1&#45;&gt;Node14</title>
<path style="fill:none;stroke:midnightblue;" d="M1029,-448C1063,-428 1138,-384 1178,-361"/>
<polygon style="fill:midnightblue;stroke:midnightblue;" points="1179.96,-363.916 1187,-356 1176.56,-357.797 1179.96,-363.916"/>
</g>
<!-- Node28 -->
<g id="node104" class="node"><title>Node28</title>
<a xlink:href="numerical_8h.html" target="_top" xlink:title="ltr/utility/numerical.h">
<polygon style="fill:white;stroke:black;" points="1728,-280 1728,-300 1832,-300 1832,-280 1728,-280"/>
<text text-anchor="middle" x="1780" y="-287" style="font-family:Arial;font-size:10.00;">ltr/utility/numerical.h</text>
</a>
</g>
<!-- Node1&#45;&gt;Node28 -->
<g id="edge192" class="edge"><title>Node1&#45;&gt;Node28</title>
<path style="fill:none;stroke:midnightblue;" d="M1063,-457C1215,-455 1659,-447 1714,-412 1749,-388 1767,-338 1775,-310"/>
<polygon style="fill:midnightblue;stroke:midnightblue;" points="1778.48,-310.584 1778,-300 1771.77,-308.573 1778.48,-310.584"/>
</g>
<!-- Node31 -->
<g id="node111" class="node"><title>Node31</title>
<a xlink:href="dcg_8h.html" target="_top" xlink:title="ltr/measures/dcg.h">
<polygon style="fill:white;stroke:black;" points="964,-392 964,-412 1061,-412 1061,-392 964,-392"/>
<text text-anchor="middle" x="1012" y="-399" style="font-family:Arial;font-size:10.00;">ltr/measures/dcg.h</text>
</a>
</g>
<!-- Node1&#45;&gt;Node31 -->
<g id="edge160" class="edge"><title>Node1&#45;&gt;Node31</title>
<path style="fill:none;stroke:midnightblue;" d="M1012,-448C1012,-441 1012,-431 1012,-422"/>
<polygon style="fill:midnightblue;stroke:midnightblue;" points="1015.5,-422 1012,-412 1008.5,-422 1015.5,-422"/>
</g>
<!-- Node33 -->
<g id="node123" class="node"><title>Node33</title>
<a xlink:href="measure__utility_8h.html" target="_top" xlink:title="ltr/measures/utils/measure_utility.h">
<polygon style="fill:white;stroke:black;" points="162,-336 162,-356 330,-356 330,-336 162,-336"/>
<text text-anchor="middle" x="246" y="-343" style="font-family:Arial;font-size:10.00;">ltr/measures/utils/measure_utility.h</text>
</a>
</g>
<!-- Node1&#45;&gt;Node33 -->
<g id="edge190" class="edge"><title>Node1&#45;&gt;Node33</title>
<path style="fill:none;stroke:midnightblue;" d="M961,-456C815,-450 401,-432 344,-412 313,-401 283,-378 265,-363"/>
<polygon style="fill:midnightblue;stroke:midnightblue;" points="266.831,-359.951 257,-356 262.221,-365.219 266.831,-359.951"/>
</g>
<!-- Node6&#45;&gt;Node2 -->
<g id="edge12" class="edge"><title>Node6&#45;&gt;Node2</title>
<path style="fill:none;stroke:midnightblue;" d="M331,-170C472,-150 862,-90 987,-71"/>
<polygon style="fill:midnightblue;stroke:midnightblue;" points="987.398,-74.4778 997,-70 986.701,-67.5125 987.398,-74.4778"/>
</g>
<!-- Node6&#45;&gt;Node4 -->
<g id="edge16" class="edge"><title>Node6&#45;&gt;Node4</title>
<path style="fill:none;stroke:midnightblue;" d="M271,-168C255,-148 220,-108 199,-84"/>
<polygon style="fill:midnightblue;stroke:midnightblue;" points="201.8,-81.9 193,-76 196.2,-86.1 201.8,-81.9"/>
</g>
<!-- Node6&#45;&gt;Node5 -->
<g id="edge14" class="edge"><title>Node6&#45;&gt;Node5</title>
<path style="fill:none;stroke:midnightblue;" d="M285,-168C299,-143 338,-81 390,-56 492,-5 789,-32 903,-20 914,-18 927,-16 939,-15"/>
<polygon style="fill:midnightblue;stroke:midnightblue;" points="939.881,-18.3933 949,-13 938.508,-11.5292 939.881,-18.3933"/>
</g>
<!-- Node7 -->
<g id="node16" class="node"><title>Node7</title>
<a xlink:href="object_8h.html" target="_top" xlink:title="ltr/data/object.h">
<polygon style="fill:white;stroke:black;" points="472,-112 472,-132 556,-132 556,-112 472,-112"/>
<text text-anchor="middle" x="514" y="-119" style="font-family:Arial;font-size:10.00;">ltr/data/object.h</text>
</a>
</g>
<!-- Node6&#45;&gt;Node7 -->
<g id="edge18" class="edge"><title>Node6&#45;&gt;Node7</title>
<path style="fill:none;stroke:midnightblue;" d="M322,-168C361,-159 420,-144 462,-134"/>
<polygon style="fill:midnightblue;stroke:midnightblue;" points="462.881,-137.393 472,-132 461.508,-130.529 462.881,-137.393"/>
</g>
<!-- Node10 -->
<g id="node25" class="node"><title>Node10</title>
<a xlink:href="printable_8h.html" target="_top" xlink:title="ltr/interfaces/printable.h">
<polygon style="fill:white;stroke:black;" points="399,-56 399,-76 516,-76 516,-56 399,-56"/>
<text text-anchor="middle" x="457" y="-63" style="font-family:Arial;font-size:10.00;">ltr/interfaces/printable.h</text>
</a>
</g>
<!-- Node6&#45;&gt;Node10 -->
<g id="edge44" class="edge"><title>Node6&#45;&gt;Node10</title>
<path style="fill:none;stroke:midnightblue;" d="M296,-168C327,-148 395,-104 432,-81"/>
<polygon style="fill:midnightblue;stroke:midnightblue;" points="433.958,-83.916 441,-76 430.559,-77.7969 433.958,-83.916"/>
</g>
<!-- Node11 -->
<g id="node29" class="node"><title>Node11</title>
<a xlink:href="shared__ptr_8h.html" target="_top" xlink:title="ltr/utility/shared_ptr.h">
<polygon style="fill:white;stroke:black;" points="623,-56 623,-76 730,-76 730,-56 623,-56"/>
<text text-anchor="middle" x="676" y="-63" style="font-family:Arial;font-size:10.00;">ltr/utility/shared_ptr.h</text>
</a>
</g>
<!-- Node6&#45;&gt;Node11 -->
<g id="edge46" class="edge"><title>Node6&#45;&gt;Node11</title>
<path style="fill:none;stroke:midnightblue;" d="M304,-168C339,-154 404,-128 463,-112 513,-97 571,-85 613,-77"/>
<polygon style="fill:midnightblue;stroke:midnightblue;" points="613.881,-80.3933 623,-75 612.508,-73.5292 613.881,-80.3933"/>
</g>
<!-- Node7&#45;&gt;Node2 -->
<g id="edge24" class="edge"><title>Node7&#45;&gt;Node2</title>
<path style="fill:none;stroke:midnightblue;" d="M556,-117C653,-106 893,-81 987,-70"/>
<polygon style="fill:midnightblue;stroke:midnightblue;" points="987.398,-73.4778 997,-69 986.701,-66.5125 987.398,-73.4778"/>
</g>
<!-- Node7&#45;&gt;Node4 -->
<g id="edge28" class="edge"><title>Node7&#45;&gt;Node4</title>
<path style="fill:none;stroke:midnightblue;" d="M472,-115C418,-106 322,-90 240,-76 232,-75 223,-73 215,-71"/>
<polygon style="fill:midnightblue;stroke:midnightblue;" points="215.299,-67.5125 205,-70 214.602,-74.4778 215.299,-67.5125"/>
</g>
<!-- Node7&#45;&gt;Node5 -->
<g id="edge26" class="edge"><title>Node7&#45;&gt;Node5</title>
<path style="fill:none;stroke:midnightblue;" d="M518,-112C525,-97 539,-69 562,-56 627,-17 827,-29 903,-20 914,-18 927,-16 939,-15"/>
<polygon style="fill:midnightblue;stroke:midnightblue;" points="939.881,-18.3933 949,-13 938.508,-11.5292 939.881,-18.3933"/>
</g>
<!-- Node8 -->
<g id="node18" class="node"><title>Node8</title>
<polygon style="fill:white;stroke:#bfbfbf;" points="571,-56 571,-76 606,-76 606,-56 571,-56"/>
<text text-anchor="middle" x="588" y="-63" style="font-family:Arial;font-size:10.00;">map</text>
</g>
<!-- Node7&#45;&gt;Node8 -->
<g id="edge20" class="edge"><title>Node7&#45;&gt;Node8</title>
<path style="fill:none;stroke:midnightblue;" d="M527,-112C538,-104 554,-92 567,-82"/>
<polygon style="fill:midnightblue;stroke:midnightblue;" points="569.1,-84.8 575,-76 564.9,-79.2 569.1,-84.8"/>
</g>
<!-- Node9 -->
<g id="node20" class="node"><title>Node9</title>
<polygon style="fill:white;stroke:#bfbfbf;" points="331,-0 331,-20 382,-20 382,-0 331,-0"/>
<text text-anchor="middle" x="356" y="-7" style="font-family:Arial;font-size:10.00;">ostream</text>
</g>
<!-- Node7&#45;&gt;Node9 -->
<g id="edge22" class="edge"><title>Node7&#45;&gt;Node9</title>
<path style="fill:none;stroke:midnightblue;" d="M472,-114C446,-108 413,-96 390,-76 376,-64 367,-45 362,-30"/>
<polygon style="fill:midnightblue;stroke:midnightblue;" points="365.226,-28.5725 359,-20 358.521,-30.584 365.226,-28.5725"/>
</g>
<!-- Node7&#45;&gt;Node10 -->
<g id="edge30" class="edge"><title>Node7&#45;&gt;Node10</title>
<path style="fill:none;stroke:midnightblue;" d="M504,-112C495,-104 484,-93 474,-83"/>
<polygon style="fill:midnightblue;stroke:midnightblue;" points="476.546,-80.5962 467,-76 471.596,-85.546 476.546,-80.5962"/>
</g>
<!-- Node7&#45;&gt;Node11 -->
<g id="edge36" class="edge"><title>Node7&#45;&gt;Node11</title>
<path style="fill:none;stroke:midnightblue;" d="M543,-112C570,-103 609,-89 637,-79"/>
<polygon style="fill:midnightblue;stroke:midnightblue;" points="638.427,-82.2259 647,-76 636.416,-75.5212 638.427,-82.2259"/>
</g>
<!-- Node10&#45;&gt;Node5 -->
<g id="edge34" class="edge"><title>Node10&#45;&gt;Node5</title>
<path style="fill:none;stroke:midnightblue;" d="M516,-57C520,-57 525,-56 529,-56 694,-36 737,-40 903,-20 914,-18 927,-16 939,-15"/>
<polygon style="fill:midnightblue;stroke:midnightblue;" points="939.881,-18.3933 949,-13 938.508,-11.5292 939.881,-18.3933"/>
</g>
<!-- Node10&#45;&gt;Node9 -->
<g id="edge32" class="edge"><title>Node10&#45;&gt;Node9</title>
<path style="fill:none;stroke:midnightblue;" d="M439,-56C424,-47 401,-35 383,-25"/>
<polygon style="fill:midnightblue;stroke:midnightblue;" points="384.441,-21.7969 374,-20 381.042,-27.916 384.441,-21.7969"/>
</g>
<!-- Node11&#45;&gt;Node3 -->
<g id="edge38" class="edge"><title>Node11&#45;&gt;Node3</title>
<path style="fill:none;stroke:midnightblue;" d="M730,-63C912,-52 1495,-20 1651,-13"/>
<polygon style="fill:midnightblue;stroke:midnightblue;" points="1651.4,-16.4778 1661,-12 1650.7,-9.5125 1651.4,-16.4778"/>
</g>
<!-- Node12 -->
<g id="node32" class="node"><title>Node12</title>
<polygon style="fill:white;stroke:#bfbfbf;" points="580,-0 580,-20 687,-20 687,-0 580,-0"/>
<text text-anchor="middle" x="633" y="-7" style="font-family:Arial;font-size:10.00;">boost/shared_ptr.hpp</text>
</g>
<!-- Node11&#45;&gt;Node12 -->
<g id="edge40" class="edge"><title>Node11&#45;&gt;Node12</title>
<path style="fill:none;stroke:midnightblue;" d="M668,-56C663,-48 654,-38 647,-28"/>
<polygon style="fill:midnightblue;stroke:midnightblue;" points="649.8,-25.9 641,-20 644.2,-30.1 649.8,-25.9"/>
</g>
<!-- Node13 -->
<g id="node34" class="node"><title>Node13</title>
<polygon style="fill:white;stroke:#bfbfbf;" points="704,-0 704,-20 895,-20 895,-0 704,-0"/>
<text text-anchor="middle" x="799" y="-7" style="font-family:Arial;font-size:10.00;">boost/smart_ptr/detail/operator_bool.hpp</text>
</g>
<!-- Node11&#45;&gt;Node13 -->
<g id="edge42" class="edge"><title>Node11&#45;&gt;Node13</title>
<path style="fill:none;stroke:midnightblue;" d="M698,-56C717,-47 745,-34 768,-24"/>
<polygon style="fill:midnightblue;stroke:midnightblue;" points="769.283,-27.2598 777,-20 766.44,-20.8631 769.283,-27.2598"/>
</g>
<!-- Node14&#45;&gt;Node2 -->
<g id="edge56" class="edge"><title>Node14&#45;&gt;Node2</title>
<path style="fill:none;stroke:midnightblue;" d="M1209,-336C1220,-313 1241,-259 1218,-224 1195,-190 1164,-214 1135,-188 1106,-162 1118,-140 1092,-112 1081,-100 1066,-89 1054,-81"/>
<polygon style="fill:midnightblue;stroke:midnightblue;" points="1055.44,-77.7969 1045,-76 1052.04,-83.916 1055.44,-77.7969"/>
</g>
<!-- Node14&#45;&gt;Node3 -->
<g id="edge54" class="edge"><title>Node14&#45;&gt;Node3</title>
<path style="fill:none;stroke:midnightblue;" d="M1264,-340C1339,-333 1463,-318 1505,-300 1547,-281 1586,-280 1586,-234 1586,-234 1586,-234 1586,-178 1586,-115 1639,-55 1669,-27"/>
<polygon style="fill:midnightblue;stroke:midnightblue;" points="1671.78,-29.2191 1677,-20 1667.17,-23.9511 1671.78,-29.2191"/>
</g>
<!-- Node14&#45;&gt;Node5 -->
<g id="edge58" class="edge"><title>Node14&#45;&gt;Node5</title>
<path style="fill:none;stroke:midnightblue;" d="M1264,-340C1332,-332 1439,-317 1475,-300 1514,-280 1548,-277 1548,-234 1548,-234 1548,-234 1548,-178 1548,-123 1592,-95 1556,-56 1537,-35 1117,-16 999,-11"/>
<polygon style="fill:midnightblue;stroke:midnightblue;" points="999,-7.5001 989,-11 999,-14.5001 999,-7.5001"/>
</g>
<!-- Node14&#45;&gt;Node6 -->
<g id="edge62" class="edge"><title>Node14&#45;&gt;Node6</title>
<path style="fill:none;stroke:midnightblue;" d="M1145,-342C999,-333 630,-309 575,-300 478,-283 448,-288 361,-244 336,-231 312,-210 297,-195"/>
<polygon style="fill:midnightblue;stroke:midnightblue;" points="299.546,-192.596 290,-188 294.596,-197.546 299.546,-192.596"/>
</g>
<!-- Node14&#45;&gt;Node7 -->
<g id="edge60" class="edge"><title>Node14&#45;&gt;Node7</title>
<path style="fill:none;stroke:midnightblue;" d="M1145,-342C999,-333 630,-309 575,-300 478,-283 421,-321 361,-244 323,-196 413,-156 470,-135"/>
<polygon style="fill:midnightblue;stroke:midnightblue;" points="471.427,-138.226 480,-132 469.416,-131.521 471.427,-138.226"/>
</g>
<!-- Node14&#45;&gt;Node10 -->
<g id="edge146" class="edge"><title>Node14&#45;&gt;Node10</title>
<path style="fill:none;stroke:midnightblue;" d="M1145,-343C960,-332 403,-301 399,-300 309,-271 265,-270 220,-188 181,-117 306,-86 389,-73"/>
<polygon style="fill:midnightblue;stroke:midnightblue;" points="389.398,-76.4778 399,-72 388.701,-69.5125 389.398,-76.4778"/>
</g>
<!-- Node14&#45;&gt;Node11 -->
<g id="edge158" class="edge"><title>Node14&#45;&gt;Node11</title>
<path style="fill:none;stroke:midnightblue;" d="M1206,-336C1209,-313 1212,-256 1185,-224 1154,-188 850,-109 727,-78"/>
<polygon style="fill:midnightblue;stroke:midnightblue;" points="727.492,-74.5292 717,-76 726.119,-81.3933 727.492,-74.5292"/>
</g>
<!-- Node15 -->
<g id="node40" class="node"><title>Node15</title>
<polygon style="fill:white;stroke:#bfbfbf;" points="1473,-56 1473,-76 1547,-76 1547,-56 1473,-56"/>
<text text-anchor="middle" x="1510" y="-63" style="font-family:Arial;font-size:10.00;">logog/logog.h</text>
</g>
<!-- Node14&#45;&gt;Node15 -->
<g id="edge50" class="edge"><title>Node14&#45;&gt;Node15</title>
<path style="fill:none;stroke:midnightblue;" d="M1264,-339C1326,-331 1417,-317 1448,-300 1483,-280 1510,-274 1510,-234 1510,-234 1510,-234 1510,-178 1510,-145 1510,-109 1510,-86"/>
<polygon style="fill:midnightblue;stroke:midnightblue;" points="1513.5,-86 1510,-76 1506.5,-86 1513.5,-86"/>
</g>
<!-- Node16 -->
<g id="node42" class="node"><title>Node16</title>
<polygon style="fill:white;stroke:#bfbfbf;" points="1308,-280 1308,-300 1422,-300 1422,-280 1308,-280"/>
<text text-anchor="middle" x="1365" y="-287" style="font-family:Arial;font-size:10.00;">boost/lexical_cast.hpp</text>
</g>
<!-- Node14&#45;&gt;Node16 -->
<g id="edge52" class="edge"><title>Node14&#45;&gt;Node16</title>
<path style="fill:none;stroke:midnightblue;" d="M1233,-336C1259,-327 1298,-313 1326,-303"/>
<polygon style="fill:midnightblue;stroke:midnightblue;" points="1327.43,-306.226 1336,-300 1325.42,-299.521 1327.43,-306.226"/>
</g>
<!-- Node17 -->
<g id="node49" class="node"><title>Node17</title>
<a xlink:href="object__pair_8h.html" target="_top" xlink:title="ltr/data/object_pair.h">
<polygon style="fill:white;stroke:black;" points="623,-168 623,-188 727,-188 727,-168 623,-168"/>
<text text-anchor="middle" x="675" y="-175" style="font-family:Arial;font-size:10.00;">ltr/data/object_pair.h</text>
</a>
</g>
<!-- Node14&#45;&gt;Node17 -->
<g id="edge64" class="edge"><title>Node14&#45;&gt;Node17</title>
<path style="fill:none;stroke:midnightblue;" d="M1145,-337C1062,-324 906,-295 783,-244 752,-231 718,-209 697,-194"/>
<polygon style="fill:midnightblue;stroke:midnightblue;" points="699.1,-191.2 689,-188 694.9,-196.8 699.1,-191.2"/>
</g>
<!-- Node18 -->
<g id="node57" class="node"><title>Node18</title>
<a xlink:href="data__set_8h.html" target="_top" xlink:title="ltr/data/data_set.h">
<polygon style="fill:white;stroke:black;" points="584,-280 584,-300 679,-300 679,-280 584,-280"/>
<text text-anchor="middle" x="631" y="-287" style="font-family:Arial;font-size:10.00;">ltr/data/data_set.h</text>
</a>
</g>
<!-- Node14&#45;&gt;Node18 -->
<g id="edge78" class="edge"><title>Node14&#45;&gt;Node18</title>
<path style="fill:none;stroke:midnightblue;" d="M1145,-340C1035,-329 799,-306 689,-296"/>
<polygon style="fill:midnightblue;stroke:midnightblue;" points="689.299,-292.512 679,-295 688.602,-299.478 689.299,-292.512"/>
</g>
<!-- Node21 -->
<g id="node72" class="node"><title>Node21</title>
<a xlink:href="parameterized_8h.html" target="_top" xlink:title="ltr/interfaces/parameterized.h">
<polygon style="fill:white;stroke:black;" points="1144,-168 1144,-188 1286,-188 1286,-168 1144,-168"/>
<text text-anchor="middle" x="1215" y="-175" style="font-family:Arial;font-size:10.00;">ltr/interfaces/parameterized.h</text>
</a>
</g>
<!-- Node14&#45;&gt;Node21 -->
<g id="edge148" class="edge"><title>Node14&#45;&gt;Node21</title>
<path style="fill:none;stroke:midnightblue;" d="M1221,-336C1234,-328 1249,-316 1256,-300 1269,-269 1268,-255 1256,-224 1252,-213 1244,-203 1236,-195"/>
<polygon style="fill:midnightblue;stroke:midnightblue;" points="1237.83,-191.951 1228,-188 1233.22,-197.219 1237.83,-191.951"/>
</g>
<!-- Node22 -->
<g id="node76" class="node"><title>Node22</title>
<a xlink:href="parameters__container_8h.html" target="_top" xlink:title="ltr/parameters_container/parameters_container.h">
<polygon style="fill:white;stroke:black;" points="1258,-112 1258,-132 1483,-132 1483,-112 1258,-112"/>
<text text-anchor="middle" x="1370" y="-119" style="font-family:Arial;font-size:10.00;">ltr/parameters_container/parameters_container.h</text>
</a>
</g>
<!-- Node14&#45;&gt;Node22 -->
<g id="edge150" class="edge"><title>Node14&#45;&gt;Node22</title>
<path style="fill:none;stroke:midnightblue;" d="M1264,-342C1324,-337 1410,-325 1431,-300 1471,-251 1415,-174 1386,-140"/>
<polygon style="fill:midnightblue;stroke:midnightblue;" points="1388.22,-137.221 1379,-132 1382.95,-141.831 1388.22,-137.221"/>
</g>
<!-- Node27 -->
<g id="node97" class="node"><title>Node27</title>
<a xlink:href="aliaser_8h.html" target="_top" xlink:title="ltr/interfaces/aliaser.h">
<polygon style="fill:white;stroke:black;" points="1068,-224 1068,-244 1176,-244 1176,-224 1068,-224"/>
<text text-anchor="middle" x="1122" y="-231" style="font-family:Arial;font-size:10.00;">ltr/interfaces/aliaser.h</text>
</a>
</g>
<!-- Node14&#45;&gt;Node27 -->
<g id="edge144" class="edge"><title>Node14&#45;&gt;Node27</title>
<path style="fill:none;stroke:midnightblue;" d="M1196,-336C1183,-316 1153,-277 1136,-252"/>
<polygon style="fill:midnightblue;stroke:midnightblue;" points="1138.8,-249.9 1130,-244 1133.2,-254.1 1138.8,-249.9"/>
</g>
<!-- Node14&#45;&gt;Node28 -->
<g id="edge152" class="edge"><title>Node14&#45;&gt;Node28</title>
<path style="fill:none;stroke:midnightblue;" d="M1264,-340C1375,-329 1606,-307 1718,-296"/>
<polygon style="fill:midnightblue;stroke:midnightblue;" points="1718.4,-299.478 1728,-295 1717.7,-292.512 1718.4,-299.478"/>
</g>
<!-- Node17&#45;&gt;Node2 -->
<g id="edge66" class="edge"><title>Node17&#45;&gt;Node2</title>
<path style="fill:none;stroke:midnightblue;" d="M724,-168C762,-160 817,-147 864,-132 910,-117 962,-95 995,-80"/>
<polygon style="fill:midnightblue;stroke:midnightblue;" points="996.283,-83.2598 1004,-76 993.44,-76.8631 996.283,-83.2598"/>
</g>
<!-- Node17&#45;&gt;Node4 -->
<g id="edge70" class="edge"><title>Node17&#45;&gt;Node4</title>
<path style="fill:none;stroke:midnightblue;" d="M628,-168C585,-159 520,-145 463,-132 372,-111 267,-86 215,-73"/>
<polygon style="fill:midnightblue;stroke:midnightblue;" points="215.492,-69.5292 205,-71 214.119,-76.3933 215.492,-69.5292"/>
</g>
<!-- Node17&#45;&gt;Node5 -->
<g id="edge68" class="edge"><title>Node17&#45;&gt;Node5</title>
<path style="fill:none;stroke:midnightblue;" d="M682,-168C700,-144 745,-86 798,-56 822,-42 897,-25 939,-16"/>
<polygon style="fill:midnightblue;stroke:midnightblue;" points="939.881,-19.3933 949,-14 938.508,-12.5292 939.881,-19.3933"/>
</g>
<!-- Node17&#45;&gt;Node7 -->
<g id="edge72" class="edge"><title>Node17&#45;&gt;Node7</title>
<path style="fill:none;stroke:midnightblue;" d="M646,-168C620,-159 581,-145 553,-135"/>
<polygon style="fill:midnightblue;stroke:midnightblue;" points="553.584,-131.521 543,-132 551.573,-138.226 553.584,-131.521"/>
</g>
<!-- Node17&#45;&gt;Node10 -->
<g id="edge74" class="edge"><title>Node17&#45;&gt;Node10</title>
<path style="fill:none;stroke:midnightblue;" d="M660,-168C639,-154 600,-129 565,-112 541,-100 514,-88 492,-80"/>
<polygon style="fill:midnightblue;stroke:midnightblue;" points="493.56,-76.8631 483,-76 490.717,-83.2598 493.56,-76.8631"/>
</g>
<!-- Node17&#45;&gt;Node11 -->
<g id="edge76" class="edge"><title>Node17&#45;&gt;Node11</title>
<path style="fill:none;stroke:midnightblue;" d="M675,-168C675,-149 676,-110 676,-86"/>
<polygon style="fill:midnightblue;stroke:midnightblue;" points="679.5,-86 676,-76 672.5,-86 679.5,-86"/>
</g>
<!-- Node18&#45;&gt;Node2 -->
<g id="edge82" class="edge"><title>Node18&#45;&gt;Node2</title>
<path style="fill:none;stroke:midnightblue;" d="M679,-283C766,-270 939,-244 940,-244 993,-204 1015,-124 1022,-86"/>
<polygon style="fill:midnightblue;stroke:midnightblue;" points="1025.47,-86.4922 1024,-76 1018.61,-85.1194 1025.47,-86.4922"/>
</g>
<!-- Node18&#45;&gt;Node4 -->
<g id="edge86" class="edge"><title>Node18&#45;&gt;Node4</title>
<path style="fill:none;stroke:midnightblue;" d="M584,-281C549,-273 501,-261 462,-244 446,-237 445,-230 429,-224 340,-190 290,-250 220,-188 190,-162 184,-114 184,-86"/>
<polygon style="fill:midnightblue;stroke:midnightblue;" points="187.5,-86 184,-76 180.5,-86 187.5,-86"/>
</g>
<!-- Node18&#45;&gt;Node5 -->
<g id="edge84" class="edge"><title>Node18&#45;&gt;Node5</title>
<path style="fill:none;stroke:midnightblue;" d="M679,-283C757,-271 903,-248 907,-244 929,-223 926,-208 926,-178 926,-178 926,-178 926,-122 926,-87 944,-50 957,-29"/>
<polygon style="fill:midnightblue;stroke:midnightblue;" points="960.203,-30.4414 962,-20 954.084,-27.0418 960.203,-30.4414"/>
</g>
<!-- Node18&#45;&gt;Node6 -->
<g id="edge90" class="edge"><title>Node18&#45;&gt;Node6</title>
<path style="fill:none;stroke:midnightblue;" d="M604,-280C579,-271 542,-257 510,-244 488,-235 483,-231 462,-224 421,-210 374,-198 339,-190"/>
<polygon style="fill:midnightblue;stroke:midnightblue;" points="339.492,-186.529 329,-188 338.119,-193.393 339.492,-186.529"/>
</g>
<!-- Node18&#45;&gt;Node7 -->
<g id="edge88" class="edge"><title>Node18&#45;&gt;Node7</title>
<path style="fill:none;stroke:midnightblue;" d="M598,-280C579,-273 557,-261 543,-244 519,-214 514,-168 514,-142"/>
<polygon style="fill:midnightblue;stroke:midnightblue;" points="517.5,-142 514,-132 510.5,-142 517.5,-142"/>
</g>
<!-- Node18&#45;&gt;Node17 -->
<g id="edge92" class="edge"><title>Node18&#45;&gt;Node17</title>
<path style="fill:none;stroke:midnightblue;" d="M661,-280C678,-273 697,-261 707,-244 716,-228 705,-209 694,-196"/>
<polygon style="fill:midnightblue;stroke:midnightblue;" points="696.219,-193.221 687,-188 690.951,-197.831 696.219,-193.221"/>
</g>
<!-- Node19 -->
<g id="node59" class="node"><title>Node19</title>
<polygon style="fill:white;stroke:#bfbfbf;" points="370,-224 370,-244 421,-244 421,-224 370,-224"/>
<text text-anchor="middle" x="395" y="-231" style="font-family:Arial;font-size:10.00;">sstream</text>
</g>
<!-- Node18&#45;&gt;Node19 -->
<g id="edge80" class="edge"><title>Node18&#45;&gt;Node19</title>
<path style="fill:none;stroke:midnightblue;" d="M587,-280C547,-271 486,-257 434,-244 433,-244 432,-244 431,-243"/>
<polygon style="fill:midnightblue;stroke:midnightblue;" points="431.492,-239.529 421,-241 430.119,-246.393 431.492,-239.529"/>
</g>
<!-- Node20 -->
<g id="node67" class="node"><title>Node20</title>
<a xlink:href="feature__info_8h.html" target="_top" xlink:title="ltr/data/feature_info.h">
<polygon style="fill:white;stroke:black;" points="792,-224 792,-244 899,-244 899,-224 792,-224"/>
<text text-anchor="middle" x="845" y="-231" style="font-family:Arial;font-size:10.00;">ltr/data/feature_info.h</text>
</a>
</g>
<!-- Node18&#45;&gt;Node20 -->
<g id="edge94" class="edge"><title>Node18&#45;&gt;Node20</title>
<path style="fill:none;stroke:midnightblue;" d="M669,-280C705,-271 758,-257 797,-247"/>
<polygon style="fill:midnightblue;stroke:midnightblue;" points="798.427,-250.226 807,-244 796.416,-243.521 798.427,-250.226"/>
</g>
<!-- Node26 -->
<g id="node90" class="node"><title>Node26</title>
<a xlink:href="per__object__accessor_8h.html" target="_top" xlink:title="ltr/data/per_object_accessor.h">
<polygon style="fill:white;stroke:black;" points="552,-224 552,-244 699,-244 699,-224 552,-224"/>
<text text-anchor="middle" x="625" y="-231" style="font-family:Arial;font-size:10.00;">ltr/data/per_object_accessor.h</text>
</a>
</g>
<!-- Node18&#45;&gt;Node26 -->
<g id="edge128" class="edge"><title>Node18&#45;&gt;Node26</title>
<path style="fill:none;stroke:midnightblue;" d="M630,-280C629,-273 628,-263 627,-254"/>
<polygon style="fill:midnightblue;stroke:midnightblue;" points="630.478,-253.602 626,-244 623.512,-254.299 630.478,-253.602"/>
</g>
<!-- Node18&#45;&gt;Node27 -->
<g id="edge140" class="edge"><title>Node18&#45;&gt;Node27</title>
<path style="fill:none;stroke:midnightblue;" d="M679,-284C768,-274 958,-253 1058,-241"/>
<polygon style="fill:midnightblue;stroke:midnightblue;" points="1058.4,-244.478 1068,-240 1057.7,-237.512 1058.4,-244.478"/>
</g>
<!-- Node20&#45;&gt;Node4 -->
<g id="edge100" class="edge"><title>Node20&#45;&gt;Node4</title>
<path style="fill:none;stroke:midnightblue;" d="M792,-225C705,-209 527,-174 381,-132 321,-115 253,-91 215,-77"/>
<polygon style="fill:midnightblue;stroke:midnightblue;" points="215.584,-73.5212 205,-74 213.573,-80.2259 215.584,-73.5212"/>
</g>
<!-- Node20&#45;&gt;Node5 -->
<g id="edge98" class="edge"><title>Node20&#45;&gt;Node5</title>
<path style="fill:none;stroke:midnightblue;" d="M847,-224C852,-195 871,-112 912,-56 921,-44 932,-34 943,-26"/>
<polygon style="fill:midnightblue;stroke:midnightblue;" points="945.621,-28.4592 952,-20 941.738,-22.6349 945.621,-28.4592"/>
</g>
<!-- Node20&#45;&gt;Node8 -->
<g id="edge96" class="edge"><title>Node20&#45;&gt;Node8</title>
<path style="fill:none;stroke:midnightblue;" d="M830,-224C787,-196 664,-116 612,-82"/>
<polygon style="fill:midnightblue;stroke:midnightblue;" points="614.1,-79.2 604,-76 609.9,-84.8 614.1,-79.2"/>
</g>
<!-- Node20&#45;&gt;Node11 -->
<g id="edge126" class="edge"><title>Node20&#45;&gt;Node11</title>
<path style="fill:none;stroke:midnightblue;" d="M835,-224C807,-196 729,-118 693,-83"/>
<polygon style="fill:midnightblue;stroke:midnightblue;" points="695.546,-80.5962 686,-76 690.596,-85.546 695.546,-80.5962"/>
</g>
<!-- Node20&#45;&gt;Node21 -->
<g id="edge102" class="edge"><title>Node20&#45;&gt;Node21</title>
<path style="fill:none;stroke:midnightblue;" d="M899,-226C962,-216 1067,-201 1138,-190"/>
<polygon style="fill:midnightblue;stroke:midnightblue;" points="1138.88,-193.393 1148,-188 1137.51,-186.529 1138.88,-193.393"/>
</g>
<!-- Node21&#45;&gt;Node2 -->
<g id="edge104" class="edge"><title>Node21&#45;&gt;Node2</title>
<path style="fill:none;stroke:midnightblue;" d="M1204,-168C1188,-154 1159,-129 1130,-112 1109,-99 1083,-88 1063,-80"/>
<polygon style="fill:midnightblue;stroke:midnightblue;" points="1064.56,-76.8631 1054,-76 1061.72,-83.2598 1064.56,-76.8631"/>
</g>
<!-- Node21&#45;&gt;Node5 -->
<g id="edge106" class="edge"><title>Node21&#45;&gt;Node5</title>
<path style="fill:none;stroke:midnightblue;" d="M1208,-168C1198,-154 1179,-129 1159,-112 1121,-80 1107,-79 1064,-56 1042,-44 1017,-32 998,-23"/>
<polygon style="fill:midnightblue;stroke:midnightblue;" points="999.56,-19.8631 989,-19 996.717,-26.2598 999.56,-19.8631"/>
</g>
<!-- Node21&#45;&gt;Node22 -->
<g id="edge108" class="edge"><title>Node21&#45;&gt;Node22</title>
<path style="fill:none;stroke:midnightblue;" d="M1243,-168C1268,-159 1305,-145 1332,-135"/>
<polygon style="fill:midnightblue;stroke:midnightblue;" points="1333.43,-138.226 1342,-132 1331.42,-131.521 1333.43,-138.226"/>
</g>
<!-- Node22&#45;&gt;Node2 -->
<g id="edge114" class="edge"><title>Node22&#45;&gt;Node2</title>
<path style="fill:none;stroke:midnightblue;" d="M1308,-112C1239,-101 1126,-82 1066,-73"/>
<polygon style="fill:midnightblue;stroke:midnightblue;" points="1066.49,-69.5292 1056,-71 1065.12,-76.3933 1066.49,-69.5292"/>
</g>
<!-- Node22&#45;&gt;Node5 -->
<g id="edge116" class="edge"><title>Node22&#45;&gt;Node5</title>
<path style="fill:none;stroke:midnightblue;" d="M1317,-112C1278,-104 1223,-92 1178,-76 1158,-69 1154,-63 1135,-56 1089,-39 1033,-24 999,-16"/>
<polygon style="fill:midnightblue;stroke:midnightblue;" points="999.492,-12.5292 989,-14 998.119,-19.3933 999.492,-12.5292"/>
</g>
<!-- Node22&#45;&gt;Node10 -->
<g id="edge124" class="edge"><title>Node22&#45;&gt;Node10</title>
<path style="fill:none;stroke:midnightblue;" d="M1258,-117C1101,-110 810,-95 562,-76 550,-75 538,-74 526,-73"/>
<polygon style="fill:midnightblue;stroke:midnightblue;" points="526.299,-69.5125 516,-72 525.602,-76.4778 526.299,-69.5125"/>
</g>
<!-- Node22&#45;&gt;Node11 -->
<g id="edge122" class="edge"><title>Node22&#45;&gt;Node11</title>
<path style="fill:none;stroke:midnightblue;" d="M1258,-113C1110,-101 858,-80 740,-71"/>
<polygon style="fill:midnightblue;stroke:midnightblue;" points="740.299,-67.5125 730,-70 739.602,-74.4778 740.299,-67.5125"/>
</g>
<!-- Node22&#45;&gt;Node15 -->
<g id="edge110" class="edge"><title>Node22&#45;&gt;Node15</title>
<path style="fill:none;stroke:midnightblue;" d="M1395,-112C1417,-103 1450,-90 1475,-80"/>
<polygon style="fill:midnightblue;stroke:midnightblue;" points="1477.02,-82.9636 1485,-76 1474.42,-76.4643 1477.02,-82.9636"/>
</g>
<!-- Node23 -->
<g id="node79" class="node"><title>Node23</title>
<polygon style="fill:white;stroke:#bfbfbf;" points="1427,-56 1427,-76 1456,-76 1456,-56 1427,-56"/>
<text text-anchor="middle" x="1441" y="-63" style="font-family:Arial;font-size:10.00;">list</text>
</g>
<!-- Node22&#45;&gt;Node23 -->
<g id="edge112" class="edge"><title>Node22&#45;&gt;Node23</title>
<path style="fill:none;stroke:midnightblue;" d="M1383,-112C1394,-104 1408,-92 1420,-83"/>
<polygon style="fill:midnightblue;stroke:midnightblue;" points="1422.78,-85.2191 1428,-76 1418.17,-79.9511 1422.78,-85.2191"/>
</g>
<!-- Node24 -->
<g id="node83" class="node"><title>Node24</title>
<polygon style="fill:white;stroke:#bfbfbf;" points="1187,-56 1187,-76 1264,-76 1264,-56 1187,-56"/>
<text text-anchor="middle" x="1225" y="-63" style="font-family:Arial;font-size:10.00;">boost/any.hpp</text>
</g>
<!-- Node22&#45;&gt;Node24 -->
<g id="edge118" class="edge"><title>Node22&#45;&gt;Node24</title>
<path style="fill:none;stroke:midnightblue;" d="M1344,-112C1321,-103 1286,-90 1260,-80"/>
<polygon style="fill:midnightblue;stroke:midnightblue;" points="1261.56,-76.8631 1251,-76 1258.72,-83.2598 1261.56,-76.8631"/>
</g>
<!-- Node25 -->
<g id="node85" class="node"><title>Node25</title>
<polygon style="fill:white;stroke:#bfbfbf;" points="1281,-56 1281,-76 1410,-76 1410,-56 1281,-56"/>
<text text-anchor="middle" x="1345" y="-63" style="font-family:Arial;font-size:10.00;">boost/unordered_map.hpp</text>
</g>
<!-- Node22&#45;&gt;Node25 -->
<g id="edge120" class="edge"><title>Node22&#45;&gt;Node25</title>
<path style="fill:none;stroke:midnightblue;" d="M1366,-112C1362,-105 1358,-95 1354,-85"/>
<polygon style="fill:midnightblue;stroke:midnightblue;" points="1357.26,-83.7166 1350,-76 1350.86,-86.5596 1357.26,-83.7166"/>
</g>
<!-- Node26&#45;&gt;Node6 -->
<g id="edge134" class="edge"><title>Node26&#45;&gt;Node6</title>
<path style="fill:none;stroke:midnightblue;" d="M563,-224C500,-214 404,-198 341,-188"/>
<polygon style="fill:midnightblue;stroke:midnightblue;" points="341.492,-184.529 331,-186 340.119,-191.393 341.492,-184.529"/>
</g>
<!-- Node26&#45;&gt;Node7 -->
<g id="edge130" class="edge"><title>Node26&#45;&gt;Node7</title>
<path style="fill:none;stroke:midnightblue;" d="M615,-224C595,-204 554,-163 531,-139"/>
<polygon style="fill:midnightblue;stroke:midnightblue;" points="533.546,-136.596 524,-132 528.596,-141.546 533.546,-136.596"/>
</g>
<!-- Node26&#45;&gt;Node11 -->
<g id="edge138" class="edge"><title>Node26&#45;&gt;Node11</title>
<path style="fill:none;stroke:midnightblue;" d="M620,-224C615,-211 608,-187 614,-168 623,-135 645,-103 660,-84"/>
<polygon style="fill:midnightblue;stroke:midnightblue;" points="663.049,-85.8306 667,-76 657.781,-81.221 663.049,-85.8306"/>
</g>
<!-- Node26&#45;&gt;Node17 -->
<g id="edge132" class="edge"><title>Node26&#45;&gt;Node17</title>
<path style="fill:none;stroke:midnightblue;" d="M634,-224C641,-216 651,-205 659,-196"/>
<polygon style="fill:midnightblue;stroke:midnightblue;" points="662.049,-197.831 666,-188 656.781,-193.221 662.049,-197.831"/>
</g>
<!-- Node26&#45;&gt;Node21 -->
<g id="edge136" class="edge"><title>Node26&#45;&gt;Node21</title>
<path style="fill:none;stroke:midnightblue;" d="M699,-227C811,-216 1018,-197 1134,-186"/>
<polygon style="fill:midnightblue;stroke:midnightblue;" points="1134.4,-189.478 1144,-185 1133.7,-182.512 1134.4,-189.478"/>
</g>
<!-- Node27&#45;&gt;Node5 -->
<g id="edge142" class="edge"><title>Node27&#45;&gt;Node5</title>
<path style="fill:none;stroke:midnightblue;" d="M1176,-227C1221,-219 1280,-207 1295,-188 1300,-180 1299,-175 1295,-168 1291,-162 1103,-58 1098,-56 1064,-41 1025,-28 999,-19"/>
<polygon style="fill:midnightblue;stroke:midnightblue;" points="999.584,-15.5212 989,-16 997.573,-22.2259 999.584,-15.5212"/>
</g>
<!-- Node29 -->
<g id="node106" class="node"><title>Node29</title>
<polygon style="fill:white;stroke:#bfbfbf;" points="1787,-224 1787,-244 1830,-244 1830,-224 1787,-224"/>
<text text-anchor="middle" x="1808" y="-231" style="font-family:Arial;font-size:10.00;">cmath</text>
</g>
<!-- Node28&#45;&gt;Node29 -->
<g id="edge154" class="edge"><title>Node28&#45;&gt;Node29</title>
<path style="fill:none;stroke:midnightblue;" d="M1785,-280C1789,-273 1794,-262 1799,-253"/>
<polygon style="fill:midnightblue;stroke:midnightblue;" points="1802.14,-254.56 1803,-244 1795.74,-251.717 1802.14,-254.56"/>
</g>
<!-- Node30 -->
<g id="node108" class="node"><title>Node30</title>
<polygon style="fill:white;stroke:#bfbfbf;" points="1731,-224 1731,-244 1770,-244 1770,-224 1731,-224"/>
<text text-anchor="middle" x="1750" y="-231" style="font-family:Arial;font-size:10.00;">limits</text>
</g>
<!-- Node28&#45;&gt;Node30 -->
<g id="edge156" class="edge"><title>Node28&#45;&gt;Node30</title>
<path style="fill:none;stroke:midnightblue;" d="M1775,-280C1771,-273 1765,-262 1760,-253"/>
<polygon style="fill:midnightblue;stroke:midnightblue;" points="1763.26,-251.717 1756,-244 1756.86,-254.56 1763.26,-251.717"/>
</g>
<!-- Node31&#45;&gt;Node2 -->
<g id="edge162" class="edge"><title>Node31&#45;&gt;Node2</title>
<path style="fill:none;stroke:midnightblue;" d="M1015,-392C1026,-347 1069,-166 1054,-112 1051,-102 1046,-92 1041,-84"/>
<polygon style="fill:midnightblue;stroke:midnightblue;" points="1043.8,-81.9 1035,-76 1038.2,-86.1 1043.8,-81.9"/>
</g>
<!-- Node31&#45;&gt;Node3 -->
<g id="edge164" class="edge"><title>Node31&#45;&gt;Node3</title>
<path style="fill:none;stroke:midnightblue;" d="M1061,-399C1165,-392 1405,-374 1486,-356 1567,-337 1662,-373 1662,-290 1662,-290 1662,-290 1662,-178 1662,-124 1675,-61 1683,-30"/>
<polygon style="fill:midnightblue;stroke:midnightblue;" points="1686.48,-30.584 1686,-20 1679.77,-28.5725 1686.48,-30.584"/>
</g>
<!-- Node31&#45;&gt;Node4 -->
<g id="edge170" class="edge"><title>Node31&#45;&gt;Node4</title>
<path style="fill:none;stroke:midnightblue;" d="M964,-401C794,-399 226,-390 153,-356 86,-324 39,-308 38,-234 38,-234 38,-234 38,-178 39,-121 111,-88 153,-74"/>
<polygon style="fill:midnightblue;stroke:midnightblue;" points="154.427,-77.2259 163,-71 152.416,-70.5212 154.427,-77.2259"/>
</g>
<!-- Node31&#45;&gt;Node5 -->
<g id="edge168" class="edge"><title>Node31&#45;&gt;Node5</title>
<path style="fill:none;stroke:midnightblue;" d="M1061,-398C1206,-386 1624,-347 1624,-290 1624,-290 1624,-290 1624,-178 1624,-119 1622,-90 1575,-56 1528,-22 1115,-13 999,-10"/>
<polygon style="fill:midnightblue;stroke:midnightblue;" points="999,-6.5001 989,-10 999,-13.5001 999,-6.5001"/>
</g>
<!-- Node31&#45;&gt;Node6 -->
<g id="edge174" class="edge"><title>Node31&#45;&gt;Node6</title>
<path style="fill:none;stroke:midnightblue;" d="M964,-397C903,-390 795,-376 705,-356 617,-336 597,-326 512,-300 438,-276 412,-284 347,-244 326,-231 307,-211 294,-196"/>
<polygon style="fill:midnightblue;stroke:midnightblue;" points="296.8,-193.9 288,-188 291.2,-198.1 296.8,-193.9"/>
</g>
<!-- Node31&#45;&gt;Node14 -->
<g id="edge178" class="edge"><title>Node31&#45;&gt;Node14</title>
<path style="fill:none;stroke:midnightblue;" d="M1046,-392C1078,-383 1125,-369 1160,-359"/>
<polygon style="fill:midnightblue;stroke:midnightblue;" points="1161.43,-362.226 1170,-356 1159.42,-355.521 1161.43,-362.226"/>
</g>
<!-- Node31&#45;&gt;Node19 -->
<g id="edge166" class="edge"><title>Node31&#45;&gt;Node19</title>
<path style="fill:none;stroke:midnightblue;" d="M964,-393C883,-377 714,-342 575,-300 523,-284 465,-262 429,-248"/>
<polygon style="fill:midnightblue;stroke:midnightblue;" points="430.56,-244.863 420,-244 427.717,-251.26 430.56,-244.863"/>
</g>
<!-- Node31&#45;&gt;Node27 -->
<g id="edge176" class="edge"><title>Node31&#45;&gt;Node27</title>
<path style="fill:none;stroke:midnightblue;" d="M1022,-392C1031,-383 1044,-369 1054,-356 1079,-322 1101,-278 1113,-253"/>
<polygon style="fill:midnightblue;stroke:midnightblue;" points="1116.14,-254.56 1117,-244 1109.74,-251.717 1116.14,-254.56"/>
</g>
<!-- Node32 -->
<g id="node118" class="node"><title>Node32</title>
<polygon style="fill:white;stroke:#bfbfbf;" points="956,-336 956,-356 1013,-356 1013,-336 956,-336"/>
<text text-anchor="middle" x="984" y="-343" style="font-family:Arial;font-size:10.00;">functional</text>
</g>
<!-- Node31&#45;&gt;Node32 -->
<g id="edge172" class="edge"><title>Node31&#45;&gt;Node32</title>
<path style="fill:none;stroke:midnightblue;" d="M1007,-392C1003,-385 998,-374 993,-365"/>
<polygon style="fill:midnightblue;stroke:midnightblue;" points="996.26,-363.717 989,-356 989.863,-366.56 996.26,-363.717"/>
</g>
<!-- Node31&#45;&gt;Node33 -->
<g id="edge180" class="edge"><title>Node31&#45;&gt;Node33</title>
<path style="fill:none;stroke:midnightblue;" d="M964,-398C858,-391 598,-372 382,-356 368,-355 354,-354 340,-353"/>
<polygon style="fill:midnightblue;stroke:midnightblue;" points="340.299,-349.512 330,-352 339.602,-356.478 340.299,-349.512"/>
</g>
<!-- Node33&#45;&gt;Node4 -->
<g id="edge182" class="edge"><title>Node33&#45;&gt;Node4</title>
<path style="fill:none;stroke:midnightblue;" d="M196,-336C174,-329 149,-318 133,-300 112,-277 114,-264 114,-234 114,-234 114,-234 114,-178 114,-139 144,-103 165,-83"/>
<polygon style="fill:midnightblue;stroke:midnightblue;" points="167.404,-85.546 172,-76 162.454,-80.5962 167.404,-85.546"/>
</g>
<!-- Node33&#45;&gt;Node6 -->
<g id="edge186" class="edge"><title>Node33&#45;&gt;Node6</title>
<path style="fill:none;stroke:midnightblue;" d="M245,-336C243,-314 240,-263 252,-224 255,-214 261,-204 266,-196"/>
<polygon style="fill:midnightblue;stroke:midnightblue;" points="268.8,-198.1 272,-188 263.2,-193.9 268.8,-198.1"/>
</g>
<!-- Node33&#45;&gt;Node18 -->
<g id="edge188" class="edge"><title>Node33&#45;&gt;Node18</title>
<path style="fill:none;stroke:midnightblue;" d="M315,-336C389,-326 505,-309 574,-299"/>
<polygon style="fill:midnightblue;stroke:midnightblue;" points="574.881,-302.393 584,-297 573.508,-295.529 574.881,-302.393"/>
</g>
<!-- Node34 -->
<g id="node126" class="node"><title>Node34</title>
<polygon style="fill:white;stroke:#bfbfbf;" points="142,-280 142,-300 181,-300 181,-280 142,-280"/>
<text text-anchor="middle" x="161" y="-287" style="font-family:Arial;font-size:10.00;">utility</text>
</g>
<!-- Node33&#45;&gt;Node34 -->
<g id="edge184" class="edge"><title>Node33&#45;&gt;Node34</title>
<path style="fill:none;stroke:midnightblue;" d="M231,-336C218,-328 200,-315 185,-306"/>
<polygon style="fill:midnightblue;stroke:midnightblue;" points="186.262,-302.635 176,-300 182.379,-308.459 186.262,-302.635"/>
</g>
</g>
</svg>
