<?xml version="1.0" encoding="UTF-8" standalone="no"?>
<!DOCTYPE svg PUBLIC "-//W3C//DTD SVG 1.0//EN"
 "http://www.w3.org/TR/2001/REC-SVG-20010904/DTD/svg10.dtd" [
 <!ATTLIST svg xmlns:xlink CDATA #FIXED "http://www.w3.org/1999/xlink">
]>
<!-- Generated by Graphviz version 2.20.2 (Tue Mar &#160;2 19:03:41 UTC 2010)
     For user: (jenkins)  -->
<!-- Title: G Pages: 1 -->
<svg width="936pt" height="84pt"
 viewBox="0.00 0.00 936.00 84.00" xmlns="http://www.w3.org/2000/svg" xmlns:xlink="http://www.w3.org/1999/xlink">
<g id="graph0" class="graph" transform="scale(1 1) rotate(0) translate(4 80)">
<title>G</title>
<polygon style="fill:white;stroke:white;" points="-4,4 -4,-80 932,-80 932,4 -4,4"/>
<!-- Node1 -->
<g id="node1" class="node"><title>Node1</title>
<polygon style="fill:#bfbfbf;stroke:black;" points="268,-56 268,-76 370,-76 370,-56 268,-56"/>
<text text-anchor="middle" x="319" y="-63" style="font-family:Arial;font-size:10.00;">ltr/measures/ndcg.h</text>
</g>
<!-- Node2 -->
<g id="node3" class="node"><title>Node2</title>
<polygon style="fill:white;stroke:#bfbfbf;" points="0,-0 0,-20 59,-20 59,-0 0,-0"/>
<text text-anchor="middle" x="29" y="-7" style="font-family:Arial;font-size:10.00;">stdexcept</text>
</g>
<!-- Node1&#45;&gt;Node2 -->
<g id="edge2" class="edge"><title>Node1&#45;&gt;Node2</title>
<path style="fill:none;stroke:midnightblue;" d="M268,-58C219,-49 144,-36 69,-20"/>
<polygon style="fill:midnightblue;stroke:midnightblue;" points="69.4922,-16.5292 59,-18 68.1194,-23.3933 69.4922,-16.5292"/>
</g>
<!-- Node3 -->
<g id="node5" class="node"><title>Node3</title>
<polygon style="fill:white;stroke:#bfbfbf;" points="76,-0 76,-20 132,-20 132,-0 76,-0"/>
<text text-anchor="middle" x="104" y="-7" style="font-family:Arial;font-size:10.00;">algorithm</text>
</g>
<!-- Node1&#45;&gt;Node3 -->
<g id="edge4" class="edge"><title>Node1&#45;&gt;Node3</title>
<path style="fill:none;stroke:midnightblue;" d="M280,-56C246,-48 195,-34 142,-20"/>
<polygon style="fill:midnightblue;stroke:midnightblue;" points="142.584,-16.5212 132,-17 140.573,-23.2259 142.584,-16.5212"/>
</g>
<!-- Node4 -->
<g id="node7" class="node"><title>Node4</title>
<polygon style="fill:white;stroke:#bfbfbf;" points="150,-0 150,-20 192,-20 192,-0 150,-0"/>
<text text-anchor="middle" x="171" y="-7" style="font-family:Arial;font-size:10.00;">vector</text>
</g>
<!-- Node1&#45;&gt;Node4 -->
<g id="edge6" class="edge"><title>Node1&#45;&gt;Node4</title>
<path style="fill:none;stroke:midnightblue;" d="M293,-56C267,-46 229,-32 201,-22"/>
<polygon style="fill:midnightblue;stroke:midnightblue;" points="202.56,-18.8631 192,-18 199.717,-25.2598 202.56,-18.8631"/>
</g>
<!-- Node5 -->
<g id="node9" class="node"><title>Node5</title>
<polygon style="fill:white;stroke:#bfbfbf;" points="210,-0 210,-20 250,-20 250,-0 210,-0"/>
<text text-anchor="middle" x="230" y="-7" style="font-family:Arial;font-size:10.00;">string</text>
</g>
<!-- Node1&#45;&gt;Node5 -->
<g id="edge8" class="edge"><title>Node1&#45;&gt;Node5</title>
<path style="fill:none;stroke:midnightblue;" d="M303,-56C290,-48 270,-35 255,-25"/>
<polygon style="fill:midnightblue;stroke:midnightblue;" points="256.441,-21.7969 246,-20 253.042,-27.916 256.441,-21.7969"/>
</g>
<!-- Node6 -->
<g id="node11" class="node"><title>Node6</title>
<polygon style="fill:white;stroke:#bfbfbf;" points="268,-0 268,-20 370,-20 370,-0 268,-0"/>
<text text-anchor="middle" x="319" y="-7" style="font-family:Arial;font-size:10.00;">ltr/data/object_list.h</text>
</g>
<!-- Node1&#45;&gt;Node6 -->
<g id="edge10" class="edge"><title>Node1&#45;&gt;Node6</title>
<path style="fill:none;stroke:midnightblue;" d="M319,-56C319,-49 319,-39 319,-30"/>
<polygon style="fill:midnightblue;stroke:midnightblue;" points="322.5,-30 319,-20 315.5,-30 322.5,-30"/>
</g>
<!-- Node7 -->
<g id="node13" class="node"><title>Node7</title>
<polygon style="fill:white;stroke:#bfbfbf;" points="388,-0 388,-20 507,-20 507,-0 388,-0"/>
<text text-anchor="middle" x="447" y="-7" style="font-family:Arial;font-size:10.00;">ltr/measures/measure.h</text>
</g>
<!-- Node1&#45;&gt;Node7 -->
<g id="edge12" class="edge"><title>Node1&#45;&gt;Node7</title>
<path style="fill:none;stroke:midnightblue;" d="M342,-56C362,-47 392,-34 415,-24"/>
<polygon style="fill:midnightblue;stroke:midnightblue;" points="416.283,-27.2598 424,-20 413.44,-20.8631 416.283,-27.2598"/>
</g>
<!-- Node8 -->
<g id="node15" class="node"><title>Node8</title>
<polygon style="fill:white;stroke:#bfbfbf;" points="524,-0 524,-20 621,-20 621,-0 524,-0"/>
<text text-anchor="middle" x="572" y="-7" style="font-family:Arial;font-size:10.00;">ltr/measures/dcg.h</text>
</g>
<!-- Node1&#45;&gt;Node8 -->
<g id="edge14" class="edge"><title>Node1&#45;&gt;Node8</title>
<path style="fill:none;stroke:midnightblue;" d="M364,-56C407,-47 471,-32 517,-22"/>
<polygon style="fill:midnightblue;stroke:midnightblue;" points="517.881,-25.3933 527,-20 516.508,-18.5292 517.881,-25.3933"/>
</g>
<!-- Node9 -->
<g id="node17" class="node"><title>Node9</title>
<polygon style="fill:white;stroke:#bfbfbf;" points="638,-0 638,-20 806,-20 806,-0 638,-0"/>
<text text-anchor="middle" x="722" y="-7" style="font-family:Arial;font-size:10.00;">ltr/measures/utils/measure_utility.h</text>
</g>
<!-- Node1&#45;&gt;Node9 -->
<g id="edge16" class="edge"><title>Node1&#45;&gt;Node9</title>
<path style="fill:none;stroke:midnightblue;" d="M370,-59C438,-49 560,-32 640,-21"/>
<polygon style="fill:midnightblue;stroke:midnightblue;" points="640.398,-24.4778 650,-20 639.701,-17.5125 640.398,-24.4778"/>
</g>
<!-- Node10 -->
<g id="node19" class="node"><title>Node10</title>
<polygon style="fill:white;stroke:#bfbfbf;" points="824,-0 824,-20 928,-20 928,-0 824,-0"/>
<text text-anchor="middle" x="876" y="-7" style="font-family:Arial;font-size:10.00;">ltr/utility/numerical.h</text>
</g>
<!-- Node1&#45;&gt;Node10 -->
<g id="edge18" class="edge"><title>Node1&#45;&gt;Node10</title>
<path style="fill:none;stroke:midnightblue;" d="M370,-62C458,-56 646,-42 814,-20"/>
<polygon style="fill:midnightblue;stroke:midnightblue;" points="814.398,-23.4778 824,-19 813.701,-16.5125 814.398,-23.4778"/>
</g>
</g>
</svg>
