<?xml version="1.0" encoding="UTF-8" standalone="no"?>
<!DOCTYPE svg PUBLIC "-//W3C//DTD SVG 1.0//EN"
 "http://www.w3.org/TR/2001/REC-SVG-20010904/DTD/svg10.dtd" [
 <!ATTLIST svg xmlns:xlink CDATA #FIXED "http://www.w3.org/1999/xlink">
]>
<!-- Generated by Graphviz version 2.20.2 (Tue Mar &#160;2 19:03:41 UTC 2010)
     For user: (jenkins)  -->
<!-- Title: G Pages: 1 -->
<svg width="1090pt" height="84pt"
 viewBox="0.00 0.00 1090.00 84.00" xmlns="http://www.w3.org/2000/svg" xmlns:xlink="http://www.w3.org/1999/xlink">
<g id="graph0" class="graph" transform="scale(1 1) rotate(0) translate(4 80)">
<title>G</title>
<polygon style="fill:white;stroke:white;" points="-4,4 -4,-80 1086,-80 1086,4 -4,4"/>
<!-- Node1 -->
<g id="node1" class="node"><title>Node1</title>
<polygon style="fill:#bfbfbf;stroke:black;" points="437,-56 437,-76 614,-76 614,-56 437,-56"/>
<text text-anchor="middle" x="525" y="-63" style="font-family:Arial;font-size:10.00;">ltr/scorers/nearest_neighbor_scorer.h</text>
</g>
<!-- Node2 -->
<g id="node3" class="node"><title>Node2</title>
<polygon style="fill:white;stroke:#bfbfbf;" points="0,-0 0,-20 40,-20 40,-0 0,-0"/>
<text text-anchor="middle" x="20" y="-7" style="font-family:Arial;font-size:10.00;">string</text>
</g>
<!-- Node1&#45;&gt;Node2 -->
<g id="edge2" class="edge"><title>Node1&#45;&gt;Node2</title>
<path style="fill:none;stroke:midnightblue;" d="M437,-64C343,-60 189,-50 50,-20"/>
<polygon style="fill:midnightblue;stroke:midnightblue;" points="50.4922,-16.5292 40,-18 49.1194,-23.3933 50.4922,-16.5292"/>
</g>
<!-- Node3 -->
<g id="node5" class="node"><title>Node3</title>
<polygon style="fill:white;stroke:#bfbfbf;" points="58,-0 58,-20 100,-20 100,-0 58,-0"/>
<text text-anchor="middle" x="79" y="-7" style="font-family:Arial;font-size:10.00;">vector</text>
</g>
<!-- Node1&#45;&gt;Node3 -->
<g id="edge4" class="edge"><title>Node1&#45;&gt;Node3</title>
<path style="fill:none;stroke:midnightblue;" d="M437,-61C354,-56 228,-45 110,-19"/>
<polygon style="fill:midnightblue;stroke:midnightblue;" points="110.492,-15.5292 100,-17 109.119,-22.3933 110.492,-15.5292"/>
</g>
<!-- Node4 -->
<g id="node7" class="node"><title>Node4</title>
<polygon style="fill:white;stroke:#bfbfbf;" points="118,-0 118,-20 358,-20 358,-0 118,-0"/>
<text text-anchor="middle" x="238" y="-7" style="font-family:Arial;font-size:10.00;">ltr/predictions_aggregators/predictions_aggregator.h</text>
</g>
<!-- Node1&#45;&gt;Node4 -->
<g id="edge6" class="edge"><title>Node1&#45;&gt;Node4</title>
<path style="fill:none;stroke:midnightblue;" d="M474,-56C425,-47 351,-32 299,-22"/>
<polygon style="fill:midnightblue;stroke:midnightblue;" points="299.492,-18.5292 289,-20 298.119,-25.3933 299.492,-18.5292"/>
</g>
<!-- Node5 -->
<g id="node9" class="node"><title>Node5</title>
<polygon style="fill:white;stroke:#bfbfbf;" points="376,-0 376,-20 460,-20 460,-0 376,-0"/>
<text text-anchor="middle" x="418" y="-7" style="font-family:Arial;font-size:10.00;">ltr/data/object.h</text>
</g>
<!-- Node1&#45;&gt;Node5 -->
<g id="edge8" class="edge"><title>Node1&#45;&gt;Node5</title>
<path style="fill:none;stroke:midnightblue;" d="M506,-56C490,-47 465,-34 446,-25"/>
<polygon style="fill:midnightblue;stroke:midnightblue;" points="447.441,-21.7969 437,-20 444.042,-27.916 447.441,-21.7969"/>
</g>
<!-- Node6 -->
<g id="node11" class="node"><title>Node6</title>
<polygon style="fill:white;stroke:#bfbfbf;" points="478,-0 478,-20 573,-20 573,-0 478,-0"/>
<text text-anchor="middle" x="525" y="-7" style="font-family:Arial;font-size:10.00;">ltr/data/data_set.h</text>
</g>
<!-- Node1&#45;&gt;Node6 -->
<g id="edge10" class="edge"><title>Node1&#45;&gt;Node6</title>
<path style="fill:none;stroke:midnightblue;" d="M525,-56C525,-49 525,-39 525,-30"/>
<polygon style="fill:midnightblue;stroke:midnightblue;" points="528.5,-30 525,-20 521.5,-30 528.5,-30"/>
</g>
<!-- Node7 -->
<g id="node13" class="node"><title>Node7</title>
<polygon style="fill:white;stroke:#bfbfbf;" points="590,-0 590,-20 687,-20 687,-0 590,-0"/>
<text text-anchor="middle" x="638" y="-7" style="font-family:Arial;font-size:10.00;">ltr/scorers/scorer.h</text>
</g>
<!-- Node1&#45;&gt;Node7 -->
<g id="edge12" class="edge"><title>Node1&#45;&gt;Node7</title>
<path style="fill:none;stroke:midnightblue;" d="M545,-56C563,-47 589,-34 609,-24"/>
<polygon style="fill:midnightblue;stroke:midnightblue;" points="610.283,-27.2598 618,-20 607.44,-20.8631 610.283,-27.2598"/>
</g>
<!-- Node8 -->
<g id="node15" class="node"><title>Node8</title>
<polygon style="fill:white;stroke:#bfbfbf;" points="704,-0 704,-20 802,-20 802,-0 704,-0"/>
<text text-anchor="middle" x="753" y="-7" style="font-family:Arial;font-size:10.00;">ltr/metrics/metric.h</text>
</g>
<!-- Node1&#45;&gt;Node8 -->
<g id="edge14" class="edge"><title>Node1&#45;&gt;Node8</title>
<path style="fill:none;stroke:midnightblue;" d="M566,-56C604,-47 661,-32 702,-22"/>
<polygon style="fill:midnightblue;stroke:midnightblue;" points="702.881,-25.3933 712,-20 701.508,-18.5292 702.881,-25.3933"/>
</g>
<!-- Node9 -->
<g id="node17" class="node"><title>Node9</title>
<polygon style="fill:white;stroke:#bfbfbf;" points="820,-0 820,-20 927,-20 927,-0 820,-0"/>
<text text-anchor="middle" x="873" y="-7" style="font-family:Arial;font-size:10.00;">ltr/utility/shared_ptr.h</text>
</g>
<!-- Node1&#45;&gt;Node9 -->
<g id="edge16" class="edge"><title>Node1&#45;&gt;Node9</title>
<path style="fill:none;stroke:midnightblue;" d="M586,-56C642,-47 726,-33 810,-20"/>
<polygon style="fill:midnightblue;stroke:midnightblue;" points="810.881,-23.3933 820,-18 809.508,-16.5292 810.881,-23.3933"/>
</g>
<!-- Node10 -->
<g id="node19" class="node"><title>Node10</title>
<polygon style="fill:white;stroke:#bfbfbf;" points="944,-0 944,-20 1083,-20 1083,-0 944,-0"/>
<text text-anchor="middle" x="1013" y="-7" style="font-family:Arial;font-size:10.00;">ltr/utility/neighbor_weighter.h</text>
</g>
<!-- Node1&#45;&gt;Node10 -->
<g id="edge18" class="edge"><title>Node1&#45;&gt;Node10</title>
<path style="fill:none;stroke:midnightblue;" d="M614,-56C695,-47 817,-34 934,-20"/>
<polygon style="fill:midnightblue;stroke:midnightblue;" points="934.398,-23.4778 944,-19 933.701,-16.5125 934.398,-23.4778"/>
</g>
</g>
</svg>
