<?xml version="1.0" encoding="UTF-8" standalone="no"?>
<!DOCTYPE svg PUBLIC "-//W3C//DTD SVG 1.0//EN"
 "http://www.w3.org/TR/2001/REC-SVG-20010904/DTD/svg10.dtd" [
 <!ATTLIST svg xmlns:xlink CDATA #FIXED "http://www.w3.org/1999/xlink">
]>
<!-- Generated by Graphviz version 2.20.2 (Tue Mar &#160;2 19:03:41 UTC 2010)
     For user: (jenkins)  -->
<!-- Title: G Pages: 1 -->
<svg width="710pt" height="84pt"
 viewBox="0.00 0.00 710.00 84.00" xmlns="http://www.w3.org/2000/svg" xmlns:xlink="http://www.w3.org/1999/xlink">
<g id="graph0" class="graph" transform="scale(1 1) rotate(0) translate(4 80)">
<title>G</title>
<polygon style="fill:white;stroke:white;" points="-4,4 -4,-80 706,-80 706,4 -4,4"/>
<!-- Node1 -->
<g id="node1" class="node"><title>Node1</title>
<polygon style="fill:#bfbfbf;stroke:black;" points="355,-56 355,-76 537,-76 537,-56 355,-56"/>
<text text-anchor="middle" x="446" y="-63" style="font-family:Arial;font-size:10.00;">ltr/scorers/nearest_neighbor_scorer.cc</text>
</g>
<!-- Node2 -->
<g id="node3" class="node"><title>Node2</title>
<polygon style="fill:white;stroke:#bfbfbf;" points="0,-0 0,-20 177,-20 177,-0 0,-0"/>
<text text-anchor="middle" x="88" y="-7" style="font-family:Arial;font-size:10.00;">ltr/scorers/nearest_neighbor_scorer.h</text>
</g>
<!-- Node1&#45;&gt;Node2 -->
<g id="edge2" class="edge"><title>Node1&#45;&gt;Node2</title>
<path style="fill:none;stroke:midnightblue;" d="M382,-56C320,-47 227,-32 162,-22"/>
<polygon style="fill:midnightblue;stroke:midnightblue;" points="162.492,-18.5292 152,-20 161.119,-25.3933 162.492,-18.5292"/>
</g>
<!-- Node3 -->
<g id="node5" class="node"><title>Node3</title>
<polygon style="fill:white;stroke:#bfbfbf;" points="194,-0 194,-20 308,-20 308,-0 194,-0"/>
<text text-anchor="middle" x="251" y="-7" style="font-family:Arial;font-size:10.00;">boost/lexical_cast.hpp</text>
</g>
<!-- Node1&#45;&gt;Node3 -->
<g id="edge4" class="edge"><title>Node1&#45;&gt;Node3</title>
<path style="fill:none;stroke:midnightblue;" d="M411,-56C379,-47 331,-33 296,-23"/>
<polygon style="fill:midnightblue;stroke:midnightblue;" points="296.584,-19.5212 286,-20 294.573,-26.2259 296.584,-19.5212"/>
</g>
<!-- Node4 -->
<g id="node7" class="node"><title>Node4</title>
<polygon style="fill:white;stroke:#bfbfbf;" points="326,-0 326,-20 400,-20 400,-0 326,-0"/>
<text text-anchor="middle" x="363" y="-7" style="font-family:Arial;font-size:10.00;">logog/logog.h</text>
</g>
<!-- Node1&#45;&gt;Node4 -->
<g id="edge6" class="edge"><title>Node1&#45;&gt;Node4</title>
<path style="fill:none;stroke:midnightblue;" d="M431,-56C419,-48 401,-35 386,-26"/>
<polygon style="fill:midnightblue;stroke:midnightblue;" points="388.1,-23.2 378,-20 383.9,-28.8 388.1,-23.2"/>
</g>
<!-- Node5 -->
<g id="node9" class="node"><title>Node5</title>
<polygon style="fill:white;stroke:#bfbfbf;" points="418,-0 418,-20 474,-20 474,-0 418,-0"/>
<text text-anchor="middle" x="446" y="-7" style="font-family:Arial;font-size:10.00;">algorithm</text>
</g>
<!-- Node1&#45;&gt;Node5 -->
<g id="edge8" class="edge"><title>Node1&#45;&gt;Node5</title>
<path style="fill:none;stroke:midnightblue;" d="M446,-56C446,-49 446,-39 446,-30"/>
<polygon style="fill:midnightblue;stroke:midnightblue;" points="449.5,-30 446,-20 442.5,-30 449.5,-30"/>
</g>
<!-- Node6 -->
<g id="node11" class="node"><title>Node6</title>
<polygon style="fill:white;stroke:#bfbfbf;" points="492,-0 492,-20 532,-20 532,-0 492,-0"/>
<text text-anchor="middle" x="512" y="-7" style="font-family:Arial;font-size:10.00;">string</text>
</g>
<!-- Node1&#45;&gt;Node6 -->
<g id="edge10" class="edge"><title>Node1&#45;&gt;Node6</title>
<path style="fill:none;stroke:midnightblue;" d="M458,-56C468,-48 481,-37 492,-27"/>
<polygon style="fill:midnightblue;stroke:midnightblue;" points="494.779,-29.2191 500,-20 490.169,-23.9511 494.779,-29.2191"/>
</g>
<!-- Node7 -->
<g id="node13" class="node"><title>Node7</title>
<polygon style="fill:white;stroke:#bfbfbf;" points="550,-0 550,-20 601,-20 601,-0 550,-0"/>
<text text-anchor="middle" x="575" y="-7" style="font-family:Arial;font-size:10.00;">sstream</text>
</g>
<!-- Node1&#45;&gt;Node7 -->
<g id="edge12" class="edge"><title>Node1&#45;&gt;Node7</title>
<path style="fill:none;stroke:midnightblue;" d="M469,-56C489,-47 519,-34 542,-24"/>
<polygon style="fill:midnightblue;stroke:midnightblue;" points="544.015,-26.9636 552,-20 541.415,-20.4643 544.015,-26.9636"/>
</g>
<!-- Node8 -->
<g id="node15" class="node"><title>Node8</title>
<polygon style="fill:white;stroke:#bfbfbf;" points="618,-0 618,-20 702,-20 702,-0 618,-0"/>
<text text-anchor="middle" x="660" y="-7" style="font-family:Arial;font-size:10.00;">ltr/data/object.h</text>
</g>
<!-- Node1&#45;&gt;Node8 -->
<g id="edge14" class="edge"><title>Node1&#45;&gt;Node8</title>
<path style="fill:none;stroke:midnightblue;" d="M484,-56C520,-47 573,-33 612,-23"/>
<polygon style="fill:midnightblue;stroke:midnightblue;" points="613.427,-26.2259 622,-20 611.416,-19.5212 613.427,-26.2259"/>
</g>
</g>
</svg>
