<?xml version="1.0" encoding="UTF-8" standalone="no"?>
<!DOCTYPE svg PUBLIC "-//W3C//DTD SVG 1.0//EN"
 "http://www.w3.org/TR/2001/REC-SVG-20010904/DTD/svg10.dtd" [
 <!ATTLIST svg xmlns:xlink CDATA #FIXED "http://www.w3.org/1999/xlink">
]>
<!-- Generated by Graphviz version 2.20.2 (Tue Mar &#160;2 19:03:41 UTC 2010)
     For user: (jenkins)  -->
<!-- Title: G Pages: 1 -->
<svg width="1888pt" height="140pt"
 viewBox="0.00 0.00 1888.00 140.00" xmlns="http://www.w3.org/2000/svg" xmlns:xlink="http://www.w3.org/1999/xlink">
<g id="graph0" class="graph" transform="scale(1 1) rotate(0) translate(4 136)">
<title>G</title>
<polygon style="fill:white;stroke:white;" points="-4,4 -4,-136 1884,-136 1884,4 -4,4"/>
<!-- Node1 -->
<g id="node1" class="node"><title>Node1</title>
<polygon style="fill:#bfbfbf;stroke:black;" points="710,-112 710,-132 1046,-132 1046,-112 710,-112"/>
<text text-anchor="middle" x="878" y="-119" style="font-family:Arial;font-size:10.00;">ltr/learners/nearest_neighbor_learner/nearest_neighbor_learner_unittest.cc</text>
</g>
<!-- Node2 -->
<g id="node3" class="node"><title>Node2</title>
<polygon style="fill:white;stroke:#bfbfbf;" points="0,-56 0,-76 71,-76 71,-56 0,-56"/>
<text text-anchor="middle" x="35" y="-63" style="font-family:Arial;font-size:10.00;">gtest/gtest.h</text>
</g>
<!-- Node1&#45;&gt;Node2 -->
<g id="edge2" class="edge"><title>Node1&#45;&gt;Node2</title>
<path style="fill:none;stroke:midnightblue;" d="M710,-119C549,-115 299,-104 84,-76 83,-76 82,-76 81,-75"/>
<polygon style="fill:midnightblue;stroke:midnightblue;" points="81.2987,-71.5125 71,-74 80.6021,-78.4778 81.2987,-71.5125"/>
</g>
<!-- Node3 -->
<g id="node5" class="node"><title>Node3</title>
<polygon style="fill:white;stroke:#bfbfbf;" points="277,-0 277,-20 319,-20 319,-0 277,-0"/>
<text text-anchor="middle" x="298" y="-7" style="font-family:Arial;font-size:10.00;">vector</text>
</g>
<!-- Node1&#45;&gt;Node3 -->
<g id="edge4" class="edge"><title>Node1&#45;&gt;Node3</title>
<path style="fill:none;stroke:midnightblue;" d="M710,-117C502,-110 174,-96 155,-76 99,-16 89,-76 267,-20"/>
<polygon style="fill:midnightblue;stroke:midnightblue;" points="268.427,-23.2259 277,-17 266.416,-16.5212 268.427,-23.2259"/>
</g>
<!-- Node4 -->
<g id="node7" class="node"><title>Node4</title>
<polygon style="fill:white;stroke:#bfbfbf;" points="19,-0 19,-20 259,-20 259,-0 19,-0"/>
<text text-anchor="middle" x="139" y="-7" style="font-family:Arial;font-size:10.00;">ltr/predictions_aggregators/predictions_aggregator.h</text>
</g>
<!-- Node1&#45;&gt;Node4 -->
<g id="edge6" class="edge"><title>Node1&#45;&gt;Node4</title>
<path style="fill:none;stroke:midnightblue;" d="M710,-117C497,-111 154,-97 134,-76 123,-64 126,-44 131,-29"/>
<polygon style="fill:midnightblue;stroke:midnightblue;" points="134.158,-30.5937 134,-20 127.517,-28.38 134.158,-30.5937"/>
</g>
<!-- Node5 -->
<g id="node9" class="node"><title>Node5</title>
<a xlink:href="average__predictions__aggregator_8h.html" target="_top" xlink:title="ltr/predictions_aggregators/average_predictions_aggregator.h">
<polygon style="fill:white;stroke:black;" points="164,-56 164,-76 442,-76 442,-56 164,-56"/>
<text text-anchor="middle" x="303" y="-63" style="font-family:Arial;font-size:10.00;">ltr/predictions_aggregators/average_predictions_aggregator.h</text>
</a>
</g>
<!-- Node1&#45;&gt;Node5 -->
<g id="edge8" class="edge"><title>Node1&#45;&gt;Node5</title>
<path style="fill:none;stroke:midnightblue;" d="M775,-112C674,-102 520,-87 415,-77"/>
<polygon style="fill:midnightblue;stroke:midnightblue;" points="415.299,-73.5125 405,-76 414.602,-80.4778 415.299,-73.5125"/>
</g>
<!-- Node8 -->
<g id="node17" class="node"><title>Node8</title>
<a xlink:href="vote__predictions__aggregator_8h.html" target="_top" xlink:title="ltr/predictions_aggregators/vote_predictions_aggregator.h">
<polygon style="fill:white;stroke:black;" points="460,-56 460,-76 722,-76 722,-56 460,-56"/>
<text text-anchor="middle" x="591" y="-63" style="font-family:Arial;font-size:10.00;">ltr/predictions_aggregators/vote_predictions_aggregator.h</text>
</a>
</g>
<!-- Node1&#45;&gt;Node8 -->
<g id="edge18" class="edge"><title>Node1&#45;&gt;Node8</title>
<path style="fill:none;stroke:midnightblue;" d="M827,-112C778,-103 704,-88 652,-78"/>
<polygon style="fill:midnightblue;stroke:midnightblue;" points="652.492,-74.5292 642,-76 651.119,-81.3933 652.492,-74.5292"/>
</g>
<!-- Node10 -->
<g id="node25" class="node"><title>Node10</title>
<polygon style="fill:white;stroke:#bfbfbf;" points="902,-56 902,-76 986,-76 986,-56 902,-56"/>
<text text-anchor="middle" x="944" y="-63" style="font-family:Arial;font-size:10.00;">ltr/data/object.h</text>
</g>
<!-- Node1&#45;&gt;Node10 -->
<g id="edge30" class="edge"><title>Node1&#45;&gt;Node10</title>
<path style="fill:none;stroke:midnightblue;" d="M890,-112C900,-104 913,-93 924,-83"/>
<polygon style="fill:midnightblue;stroke:midnightblue;" points="926.779,-85.2191 932,-76 922.169,-79.9511 926.779,-85.2191"/>
</g>
<!-- Node11 -->
<g id="node27" class="node"><title>Node11</title>
<polygon style="fill:white;stroke:#bfbfbf;" points="1004,-56 1004,-76 1099,-76 1099,-56 1004,-56"/>
<text text-anchor="middle" x="1051" y="-63" style="font-family:Arial;font-size:10.00;">ltr/data/data_set.h</text>
</g>
<!-- Node1&#45;&gt;Node11 -->
<g id="edge32" class="edge"><title>Node1&#45;&gt;Node11</title>
<path style="fill:none;stroke:midnightblue;" d="M909,-112C938,-103 980,-89 1010,-79"/>
<polygon style="fill:midnightblue;stroke:midnightblue;" points="1011.43,-82.2259 1020,-76 1009.42,-75.5212 1011.43,-82.2259"/>
</g>
<!-- Node12 -->
<g id="node29" class="node"><title>Node12</title>
<polygon style="fill:white;stroke:#bfbfbf;" points="1116,-56 1116,-76 1409,-76 1409,-56 1116,-56"/>
<text text-anchor="middle" x="1262" y="-63" style="font-family:Arial;font-size:10.00;">ltr/learners/nearest_neighbor_learner/nearest_neighbor_learner.h</text>
</g>
<!-- Node1&#45;&gt;Node12 -->
<g id="edge34" class="edge"><title>Node1&#45;&gt;Node12</title>
<path style="fill:none;stroke:midnightblue;" d="M947,-112C1014,-102 1114,-87 1184,-77"/>
<polygon style="fill:midnightblue;stroke:midnightblue;" points="1184.4,-80.4778 1194,-76 1183.7,-73.5125 1184.4,-80.4778"/>
</g>
<!-- Node13 -->
<g id="node31" class="node"><title>Node13</title>
<a xlink:href="euclidean__metric_8h.html" target="_top" xlink:title="ltr/metrics/euclidean_metric.h">
<polygon style="fill:white;stroke:black;" points="740,-56 740,-76 884,-76 884,-56 740,-56"/>
<text text-anchor="middle" x="812" y="-63" style="font-family:Arial;font-size:10.00;">ltr/metrics/euclidean_metric.h</text>
</a>
</g>
<!-- Node1&#45;&gt;Node13 -->
<g id="edge36" class="edge"><title>Node1&#45;&gt;Node13</title>
<path style="fill:none;stroke:midnightblue;" d="M866,-112C856,-104 843,-93 832,-83"/>
<polygon style="fill:midnightblue;stroke:midnightblue;" points="833.831,-79.9511 824,-76 829.221,-85.2191 833.831,-79.9511"/>
</g>
<!-- Node16 -->
<g id="node38" class="node"><title>Node16</title>
<polygon style="fill:white;stroke:#bfbfbf;" points="1426,-56 1426,-76 1603,-76 1603,-56 1426,-56"/>
<text text-anchor="middle" x="1514" y="-63" style="font-family:Arial;font-size:10.00;">ltr/scorers/nearest_neighbor_scorer.h</text>
</g>
<!-- Node1&#45;&gt;Node16 -->
<g id="edge44" class="edge"><title>Node1&#45;&gt;Node16</title>
<path style="fill:none;stroke:midnightblue;" d="M1000,-112C1108,-103 1267,-90 1416,-76"/>
<polygon style="fill:midnightblue;stroke:midnightblue;" points="1416.4,-79.4778 1426,-75 1415.7,-72.5125 1416.4,-79.4778"/>
</g>
<!-- Node17 -->
<g id="node40" class="node"><title>Node17</title>
<polygon style="fill:white;stroke:#bfbfbf;" points="1620,-56 1620,-76 1724,-76 1724,-56 1620,-56"/>
<text text-anchor="middle" x="1672" y="-63" style="font-family:Arial;font-size:10.00;">ltr/utility/numerical.h</text>
</g>
<!-- Node1&#45;&gt;Node17 -->
<g id="edge46" class="edge"><title>Node1&#45;&gt;Node17</title>
<path style="fill:none;stroke:midnightblue;" d="M1046,-116C1193,-110 1411,-97 1610,-76"/>
<polygon style="fill:midnightblue;stroke:midnightblue;" points="1610.4,-79.4778 1620,-75 1609.7,-72.5125 1610.4,-79.4778"/>
</g>
<!-- Node18 -->
<g id="node42" class="node"><title>Node18</title>
<polygon style="fill:white;stroke:#bfbfbf;" points="1742,-56 1742,-76 1881,-76 1881,-56 1742,-56"/>
<text text-anchor="middle" x="1811" y="-63" style="font-family:Arial;font-size:10.00;">ltr/utility/neighbor_weighter.h</text>
</g>
<!-- Node1&#45;&gt;Node18 -->
<g id="edge48" class="edge"><title>Node1&#45;&gt;Node18</title>
<path style="fill:none;stroke:midnightblue;" d="M1046,-117C1217,-110 1487,-97 1732,-76"/>
<polygon style="fill:midnightblue;stroke:midnightblue;" points="1732.4,-79.4778 1742,-75 1731.7,-72.5125 1732.4,-79.4778"/>
</g>
<!-- Node5&#45;&gt;Node3 -->
<g id="edge10" class="edge"><title>Node5&#45;&gt;Node3</title>
<path style="fill:none;stroke:midnightblue;" d="M302,-56C301,-49 301,-39 300,-30"/>
<polygon style="fill:midnightblue;stroke:midnightblue;" points="303.478,-29.6021 299,-20 296.512,-30.2987 303.478,-29.6021"/>
</g>
<!-- Node5&#45;&gt;Node4 -->
<g id="edge14" class="edge"><title>Node5&#45;&gt;Node4</title>
<path style="fill:none;stroke:midnightblue;" d="M274,-56C247,-47 207,-33 178,-23"/>
<polygon style="fill:midnightblue;stroke:midnightblue;" points="178.584,-19.5212 168,-20 176.573,-26.2259 178.584,-19.5212"/>
</g>
<!-- Node6 -->
<g id="node12" class="node"><title>Node6</title>
<polygon style="fill:white;stroke:#bfbfbf;" points="631,-0 631,-20 671,-20 671,-0 631,-0"/>
<text text-anchor="middle" x="651" y="-7" style="font-family:Arial;font-size:10.00;">string</text>
</g>
<!-- Node5&#45;&gt;Node6 -->
<g id="edge12" class="edge"><title>Node5&#45;&gt;Node6</title>
<path style="fill:none;stroke:midnightblue;" d="M405,-56C465,-49 543,-38 621,-19"/>
<polygon style="fill:midnightblue;stroke:midnightblue;" points="621.881,-22.3933 631,-17 620.508,-15.5292 621.881,-22.3933"/>
</g>
<!-- Node7 -->
<g id="node15" class="node"><title>Node7</title>
<polygon style="fill:white;stroke:#bfbfbf;" points="337,-0 337,-20 562,-20 562,-0 337,-0"/>
<text text-anchor="middle" x="449" y="-7" style="font-family:Arial;font-size:10.00;">ltr/parameters_container/parameters_container.h</text>
</g>
<!-- Node5&#45;&gt;Node7 -->
<g id="edge16" class="edge"><title>Node5&#45;&gt;Node7</title>
<path style="fill:none;stroke:midnightblue;" d="M329,-56C352,-47 387,-34 413,-24"/>
<polygon style="fill:midnightblue;stroke:midnightblue;" points="415.015,-26.9636 423,-20 412.415,-20.4643 415.015,-26.9636"/>
</g>
<!-- Node8&#45;&gt;Node3 -->
<g id="edge24" class="edge"><title>Node8&#45;&gt;Node3</title>
<path style="fill:none;stroke:midnightblue;" d="M517,-56C466,-48 398,-37 329,-20"/>
<polygon style="fill:midnightblue;stroke:midnightblue;" points="329.584,-16.5212 319,-17 327.573,-23.2259 329.584,-16.5212"/>
</g>
<!-- Node8&#45;&gt;Node4 -->
<g id="edge26" class="edge"><title>Node8&#45;&gt;Node4</title>
<path style="fill:none;stroke:midnightblue;" d="M510,-56C431,-46 311,-31 229,-21"/>
<polygon style="fill:midnightblue;stroke:midnightblue;" points="229.299,-17.5125 219,-20 228.602,-24.4778 229.299,-17.5125"/>
</g>
<!-- Node8&#45;&gt;Node6 -->
<g id="edge22" class="edge"><title>Node8&#45;&gt;Node6</title>
<path style="fill:none;stroke:midnightblue;" d="M602,-56C611,-48 623,-37 633,-27"/>
<polygon style="fill:midnightblue;stroke:midnightblue;" points="635.404,-29.546 640,-20 630.454,-24.5962 635.404,-29.546"/>
</g>
<!-- Node8&#45;&gt;Node7 -->
<g id="edge28" class="edge"><title>Node8&#45;&gt;Node7</title>
<path style="fill:none;stroke:midnightblue;" d="M566,-56C543,-47 510,-34 485,-24"/>
<polygon style="fill:midnightblue;stroke:midnightblue;" points="485.585,-20.4643 475,-20 482.985,-26.9636 485.585,-20.4643"/>
</g>
<!-- Node9 -->
<g id="node19" class="node"><title>Node9</title>
<polygon style="fill:white;stroke:#bfbfbf;" points="579,-0 579,-20 614,-20 614,-0 579,-0"/>
<text text-anchor="middle" x="596" y="-7" style="font-family:Arial;font-size:10.00;">map</text>
</g>
<!-- Node8&#45;&gt;Node9 -->
<g id="edge20" class="edge"><title>Node8&#45;&gt;Node9</title>
<path style="fill:none;stroke:midnightblue;" d="M592,-56C593,-49 593,-39 594,-30"/>
<polygon style="fill:midnightblue;stroke:midnightblue;" points="597.488,-30.2987 595,-20 590.522,-29.6021 597.488,-30.2987"/>
</g>
<!-- Node13&#45;&gt;Node6 -->
<g id="edge38" class="edge"><title>Node13&#45;&gt;Node6</title>
<path style="fill:none;stroke:midnightblue;" d="M783,-56C754,-46 710,-31 680,-20"/>
<polygon style="fill:midnightblue;stroke:midnightblue;" points="681.594,-16.842 671,-17 679.38,-23.4827 681.594,-16.842"/>
</g>
<!-- Node14 -->
<g id="node34" class="node"><title>Node14</title>
<polygon style="fill:white;stroke:#bfbfbf;" points="844,-0 844,-20 903,-20 903,-0 844,-0"/>
<text text-anchor="middle" x="873" y="-7" style="font-family:Arial;font-size:10.00;">stdexcept</text>
</g>
<!-- Node13&#45;&gt;Node14 -->
<g id="edge40" class="edge"><title>Node13&#45;&gt;Node14</title>
<path style="fill:none;stroke:midnightblue;" d="M823,-56C832,-48 844,-37 855,-27"/>
<polygon style="fill:midnightblue;stroke:midnightblue;" points="857.404,-29.546 862,-20 852.454,-24.5962 857.404,-29.546"/>
</g>
<!-- Node15 -->
<g id="node36" class="node"><title>Node15</title>
<polygon style="fill:white;stroke:#bfbfbf;" points="728,-0 728,-20 826,-20 826,-0 728,-0"/>
<text text-anchor="middle" x="777" y="-7" style="font-family:Arial;font-size:10.00;">ltr/metrics/metric.h</text>
</g>
<!-- Node13&#45;&gt;Node15 -->
<g id="edge42" class="edge"><title>Node13&#45;&gt;Node15</title>
<path style="fill:none;stroke:midnightblue;" d="M806,-56C802,-49 795,-38 789,-29"/>
<polygon style="fill:midnightblue;stroke:midnightblue;" points="791.916,-27.0418 784,-20 785.797,-30.4414 791.916,-27.0418"/>
</g>
</g>
</svg>
