<?xml version="1.0" encoding="UTF-8" standalone="no"?>
<!DOCTYPE svg PUBLIC "-//W3C//DTD SVG 1.0//EN"
 "http://www.w3.org/TR/2001/REC-SVG-20010904/DTD/svg10.dtd" [
 <!ATTLIST svg xmlns:xlink CDATA #FIXED "http://www.w3.org/1999/xlink">
]>
<!-- Generated by Graphviz version 2.20.2 (Tue Mar &#160;2 19:03:41 UTC 2010)
     For user: (jenkins)  -->
<!-- Title: G Pages: 1 -->
<svg width="306pt" height="140pt"
 viewBox="0.00 0.00 306.00 140.00" xmlns="http://www.w3.org/2000/svg" xmlns:xlink="http://www.w3.org/1999/xlink">
<g id="graph0" class="graph" transform="scale(1 1) rotate(0) translate(4 136)">
<title>G</title>
<polygon style="fill:white;stroke:white;" points="-4,4 -4,-136 302,-136 302,4 -4,4"/>
<!-- Node1 -->
<g id="node1" class="node"><title>Node1</title>
<polygon style="fill:#bfbfbf;stroke:black;" points="61,-112 61,-132 238,-132 238,-112 61,-112"/>
<text text-anchor="middle" x="149" y="-119" style="font-family:Arial;font-size:10.00;">ltr/scorers/nearest_neighbor_scorer.h</text>
</g>
<!-- Node2 -->
<g id="node3" class="node"><title>Node2</title>
<a xlink:href="nearest__neighbor__learner_8h.html" target="_top" xlink:title="ltr/learners/nearest_neighbor_learner/nearest_neighbor_learner.h">
<polygon style="fill:white;stroke:black;" points="3,-56 3,-76 296,-76 296,-56 3,-56"/>
<text text-anchor="middle" x="149" y="-63" style="font-family:Arial;font-size:10.00;">ltr/learners/nearest_neighbor_learner/nearest_neighbor_learner.h</text>
</a>
</g>
<!-- Node1&#45;&gt;Node2 -->
<g id="edge2" class="edge"><title>Node1&#45;&gt;Node2</title>
<path style="fill:none;stroke:midnightblue;" d="M149,-102C149,-93 149,-84 149,-76"/>
<polygon style="fill:midnightblue;stroke:midnightblue;" points="145.5,-102 149,-112 152.5,-102 145.5,-102"/>
</g>
<!-- Node3 -->
<g id="node5" class="node"><title>Node3</title>
<a xlink:href="nearest__neighbor__learner_8cc.html" target="_top" xlink:title="ltr/learners/nearest_neighbor_learner/nearest_neighbor_learner.cc">
<polygon style="fill:white;stroke:black;" points="0,-0 0,-20 298,-20 298,-0 0,-0"/>
<text text-anchor="middle" x="149" y="-7" style="font-family:Arial;font-size:10.00;">ltr/learners/nearest_neighbor_learner/nearest_neighbor_learner.cc</text>
</a>
</g>
<!-- Node2&#45;&gt;Node3 -->
<g id="edge4" class="edge"><title>Node2&#45;&gt;Node3</title>
<path style="fill:none;stroke:midnightblue;" d="M149,-46C149,-37 149,-28 149,-20"/>
<polygon style="fill:midnightblue;stroke:midnightblue;" points="145.5,-46 149,-56 152.5,-46 145.5,-46"/>
</g>
</g>
</svg>
