<?xml version="1.0" encoding="UTF-8" standalone="no"?>
<!DOCTYPE svg PUBLIC "-//W3C//DTD SVG 1.0//EN"
 "http://www.w3.org/TR/2001/REC-SVG-20010904/DTD/svg10.dtd" [
 <!ATTLIST svg xmlns:xlink CDATA #FIXED "http://www.w3.org/1999/xlink">
]>
<!-- Generated by Graphviz version 2.20.2 (Tue Mar &#160;2 19:03:41 UTC 2010)
     For user: (jenkins)  -->
<!-- Title: G Pages: 1 -->
<svg width="1764pt" height="140pt"
 viewBox="0.00 0.00 1764.00 140.00" xmlns="http://www.w3.org/2000/svg" xmlns:xlink="http://www.w3.org/1999/xlink">
<g id="graph0" class="graph" transform="scale(1 1) rotate(0) translate(4 136)">
<title>G</title>
<polygon style="fill:white;stroke:white;" points="-4,4 -4,-136 1760,-136 1760,4 -4,4"/>
<!-- Node1 -->
<g id="node1" class="node"><title>Node1</title>
<polygon style="fill:#bfbfbf;stroke:black;" points="690,-112 690,-132 983,-132 983,-112 690,-112"/>
<text text-anchor="middle" x="836" y="-119" style="font-family:Arial;font-size:10.00;">ltr/learners/nearest_neighbor_learner/nearest_neighbor_learner.h</text>
</g>
<!-- Node2 -->
<g id="node3" class="node"><title>Node2</title>
<polygon style="fill:white;stroke:#bfbfbf;" points="816,-0 816,-20 856,-20 856,-0 816,-0"/>
<text text-anchor="middle" x="836" y="-7" style="font-family:Arial;font-size:10.00;">string</text>
</g>
<!-- Node1&#45;&gt;Node2 -->
<g id="edge2" class="edge"><title>Node1&#45;&gt;Node2</title>
<path style="fill:none;stroke:midnightblue;" d="M836,-112C836,-93 836,-54 836,-30"/>
<polygon style="fill:midnightblue;stroke:midnightblue;" points="839.5,-30 836,-20 832.5,-30 839.5,-30"/>
</g>
<!-- Node3 -->
<g id="node5" class="node"><title>Node3</title>
<polygon style="fill:white;stroke:#bfbfbf;" points="0,-0 0,-20 42,-20 42,-0 0,-0"/>
<text text-anchor="middle" x="21" y="-7" style="font-family:Arial;font-size:10.00;">vector</text>
</g>
<!-- Node1&#45;&gt;Node3 -->
<g id="edge4" class="edge"><title>Node1&#45;&gt;Node3</title>
<path style="fill:none;stroke:midnightblue;" d="M709,-112C615,-104 484,-92 370,-76 231,-56 193,-55 52,-20"/>
<polygon style="fill:midnightblue;stroke:midnightblue;" points="52.584,-16.5212 42,-17 50.5725,-23.2259 52.584,-16.5212"/>
</g>
<!-- Node4 -->
<g id="node7" class="node"><title>Node4</title>
<polygon style="fill:white;stroke:#bfbfbf;" points="60,-0 60,-20 300,-20 300,-0 60,-0"/>
<text text-anchor="middle" x="180" y="-7" style="font-family:Arial;font-size:10.00;">ltr/predictions_aggregators/predictions_aggregator.h</text>
</g>
<!-- Node1&#45;&gt;Node4 -->
<g id="edge6" class="edge"><title>Node1&#45;&gt;Node4</title>
<path style="fill:none;stroke:midnightblue;" d="M736,-112C661,-104 558,-92 468,-76 383,-61 286,-37 228,-22"/>
<polygon style="fill:midnightblue;stroke:midnightblue;" points="228.492,-18.5292 218,-20 227.119,-25.3933 228.492,-18.5292"/>
</g>
<!-- Node5 -->
<g id="node9" class="node"><title>Node5</title>
<polygon style="fill:white;stroke:#bfbfbf;" points="1122,-56 1122,-76 1224,-76 1224,-56 1122,-56"/>
<text text-anchor="middle" x="1173" y="-63" style="font-family:Arial;font-size:10.00;">ltr/learners/learner.h</text>
</g>
<!-- Node1&#45;&gt;Node5 -->
<g id="edge8" class="edge"><title>Node1&#45;&gt;Node5</title>
<path style="fill:none;stroke:midnightblue;" d="M896,-112C957,-102 1050,-87 1112,-77"/>
<polygon style="fill:midnightblue;stroke:midnightblue;" points="1112.88,-80.3933 1122,-75 1111.51,-73.5292 1112.88,-80.3933"/>
</g>
<!-- Node6 -->
<g id="node11" class="node"><title>Node6</title>
<a xlink:href="metric_8h.html" target="_top" xlink:title="ltr/metrics/metric.h">
<polygon style="fill:white;stroke:black;" points="968,-56 968,-76 1066,-76 1066,-56 968,-56"/>
<text text-anchor="middle" x="1017" y="-63" style="font-family:Arial;font-size:10.00;">ltr/metrics/metric.h</text>
</a>
</g>
<!-- Node1&#45;&gt;Node6 -->
<g id="edge10" class="edge"><title>Node1&#45;&gt;Node6</title>
<path style="fill:none;stroke:midnightblue;" d="M868,-112C898,-103 942,-89 974,-79"/>
<polygon style="fill:midnightblue;stroke:midnightblue;" points="975.427,-82.2259 984,-76 973.416,-75.5212 975.427,-82.2259"/>
</g>
<!-- Node11 -->
<g id="node22" class="node"><title>Node11</title>
<polygon style="fill:white;stroke:#bfbfbf;" points="874,-0 874,-20 981,-20 981,-0 874,-0"/>
<text text-anchor="middle" x="927" y="-7" style="font-family:Arial;font-size:10.00;">ltr/utility/shared_ptr.h</text>
</g>
<!-- Node1&#45;&gt;Node11 -->
<g id="edge48" class="edge"><title>Node1&#45;&gt;Node11</title>
<path style="fill:none;stroke:midnightblue;" d="M844,-112C860,-92 893,-52 913,-28"/>
<polygon style="fill:midnightblue;stroke:midnightblue;" points="915.8,-30.1 919,-20 910.2,-25.9 915.8,-30.1"/>
</g>
<!-- Node12 -->
<g id="node24" class="node"><title>Node12</title>
<polygon style="fill:white;stroke:#bfbfbf;" points="1532,-0 1532,-20 1757,-20 1757,-0 1532,-0"/>
<text text-anchor="middle" x="1644" y="-7" style="font-family:Arial;font-size:10.00;">ltr/parameters_container/parameters_container.h</text>
</g>
<!-- Node1&#45;&gt;Node12 -->
<g id="edge26" class="edge"><title>Node1&#45;&gt;Node12</title>
<path style="fill:none;stroke:midnightblue;" d="M918,-112C964,-105 1024,-93 1075,-76 1093,-69 1094,-61 1113,-56 1118,-54 1366,-33 1522,-20"/>
<polygon style="fill:midnightblue;stroke:midnightblue;" points="1522.4,-23.4778 1532,-19 1521.7,-16.5125 1522.4,-23.4778"/>
</g>
<!-- Node13 -->
<g id="node27" class="node"><title>Node13</title>
<a xlink:href="nearest__neighbor__scorer_8h.html" target="_top" xlink:title="ltr/scorers/nearest_neighbor_scorer.h">
<polygon style="fill:white;stroke:black;" points="533,-56 533,-76 710,-76 710,-56 533,-56"/>
<text text-anchor="middle" x="621" y="-63" style="font-family:Arial;font-size:10.00;">ltr/scorers/nearest_neighbor_scorer.h</text>
</a>
</g>
<!-- Node1&#45;&gt;Node13 -->
<g id="edge28" class="edge"><title>Node1&#45;&gt;Node13</title>
<path style="fill:none;stroke:midnightblue;" d="M798,-112C762,-103 709,-89 670,-79"/>
<polygon style="fill:midnightblue;stroke:midnightblue;" points="670.584,-75.5212 660,-76 668.573,-82.2259 670.584,-75.5212"/>
</g>
<!-- Node16 -->
<g id="node37" class="node"><title>Node16</title>
<polygon style="fill:white;stroke:#bfbfbf;" points="318,-0 318,-20 416,-20 416,-0 318,-0"/>
<text text-anchor="middle" x="367" y="-7" style="font-family:Arial;font-size:10.00;">ltr/metrics/metric.h</text>
</g>
<!-- Node1&#45;&gt;Node16 -->
<g id="edge52" class="edge"><title>Node1&#45;&gt;Node16</title>
<path style="fill:none;stroke:midnightblue;" d="M723,-112C663,-105 589,-94 524,-76 478,-62 427,-40 396,-25"/>
<polygon style="fill:midnightblue;stroke:midnightblue;" points="397.441,-21.7969 387,-20 394.042,-27.916 397.441,-21.7969"/>
</g>
<!-- Node17 -->
<g id="node40" class="node"><title>Node17</title>
<polygon style="fill:white;stroke:#bfbfbf;" points="660,-0 660,-20 799,-20 799,-0 660,-0"/>
<text text-anchor="middle" x="729" y="-7" style="font-family:Arial;font-size:10.00;">ltr/utility/neighbor_weighter.h</text>
</g>
<!-- Node1&#45;&gt;Node17 -->
<g id="edge50" class="edge"><title>Node1&#45;&gt;Node17</title>
<path style="fill:none;stroke:midnightblue;" d="M826,-112C808,-92 768,-51 746,-27"/>
<polygon style="fill:midnightblue;stroke:midnightblue;" points="748.546,-24.5962 739,-20 743.596,-29.546 748.546,-24.5962"/>
</g>
<!-- Node18 -->
<g id="node45" class="node"><title>Node18</title>
<polygon style="fill:white;stroke:#bfbfbf;" points="1242,-56 1242,-76 1419,-76 1419,-56 1242,-56"/>
<text text-anchor="middle" x="1330" y="-63" style="font-family:Arial;font-size:10.00;">ltr/scorers/nearest_neighbor_scorer.h</text>
</g>
<!-- Node1&#45;&gt;Node18 -->
<g id="edge54" class="edge"><title>Node1&#45;&gt;Node18</title>
<path style="fill:none;stroke:midnightblue;" d="M924,-112C1011,-102 1142,-87 1232,-77"/>
<polygon style="fill:midnightblue;stroke:midnightblue;" points="1232.4,-80.4778 1242,-76 1231.7,-73.5125 1232.4,-80.4778"/>
</g>
<!-- Node6&#45;&gt;Node2 -->
<g id="edge12" class="edge"><title>Node6&#45;&gt;Node2</title>
<path style="fill:none;stroke:midnightblue;" d="M983,-56C954,-48 911,-35 866,-20"/>
<polygon style="fill:midnightblue;stroke:midnightblue;" points="866.584,-16.5212 856,-17 864.573,-23.2259 866.584,-16.5212"/>
</g>
<!-- Node7 -->
<g id="node14" class="node"><title>Node7</title>
<polygon style="fill:white;stroke:#bfbfbf;" points="998,-0 998,-20 1082,-20 1082,-0 998,-0"/>
<text text-anchor="middle" x="1040" y="-7" style="font-family:Arial;font-size:10.00;">ltr/data/object.h</text>
</g>
<!-- Node6&#45;&gt;Node7 -->
<g id="edge14" class="edge"><title>Node6&#45;&gt;Node7</title>
<path style="fill:none;stroke:midnightblue;" d="M1021,-56C1024,-49 1028,-39 1032,-29"/>
<polygon style="fill:midnightblue;stroke:midnightblue;" points="1035.14,-30.5596 1036,-20 1028.74,-27.7166 1035.14,-30.5596"/>
</g>
<!-- Node8 -->
<g id="node16" class="node"><title>Node8</title>
<polygon style="fill:white;stroke:#bfbfbf;" points="1100,-0 1100,-20 1208,-20 1208,-0 1100,-0"/>
<text text-anchor="middle" x="1154" y="-7" style="font-family:Arial;font-size:10.00;">ltr/interfaces/aliaser.h</text>
</g>
<!-- Node6&#45;&gt;Node8 -->
<g id="edge16" class="edge"><title>Node6&#45;&gt;Node8</title>
<path style="fill:none;stroke:midnightblue;" d="M1041,-56C1063,-47 1095,-34 1120,-24"/>
<polygon style="fill:midnightblue;stroke:midnightblue;" points="1121.28,-27.2598 1129,-20 1118.44,-20.8631 1121.28,-27.2598"/>
</g>
<!-- Node9 -->
<g id="node18" class="node"><title>Node9</title>
<polygon style="fill:white;stroke:#bfbfbf;" points="1226,-0 1226,-20 1368,-20 1368,-0 1226,-0"/>
<text text-anchor="middle" x="1297" y="-7" style="font-family:Arial;font-size:10.00;">ltr/interfaces/parameterized.h</text>
</g>
<!-- Node6&#45;&gt;Node9 -->
<g id="edge18" class="edge"><title>Node6&#45;&gt;Node9</title>
<path style="fill:none;stroke:midnightblue;" d="M1066,-56C1113,-47 1185,-32 1236,-22"/>
<polygon style="fill:midnightblue;stroke:midnightblue;" points="1236.88,-25.3933 1246,-20 1235.51,-18.5292 1236.88,-25.3933"/>
</g>
<!-- Node10 -->
<g id="node20" class="node"><title>Node10</title>
<polygon style="fill:white;stroke:#bfbfbf;" points="1386,-0 1386,-20 1515,-20 1515,-0 1386,-0"/>
<text text-anchor="middle" x="1450" y="-7" style="font-family:Arial;font-size:10.00;">ltr/interfaces/serializable.h</text>
</g>
<!-- Node6&#45;&gt;Node10 -->
<g id="edge20" class="edge"><title>Node6&#45;&gt;Node10</title>
<path style="fill:none;stroke:midnightblue;" d="M1066,-58C1071,-57 1075,-56 1080,-56 1208,-37 1243,-37 1376,-20"/>
<polygon style="fill:midnightblue;stroke:midnightblue;" points="1376.4,-23.4778 1386,-19 1375.7,-16.5125 1376.4,-23.4778"/>
</g>
<!-- Node6&#45;&gt;Node11 -->
<g id="edge22" class="edge"><title>Node6&#45;&gt;Node11</title>
<path style="fill:none;stroke:midnightblue;" d="M1001,-56C988,-48 968,-35 952,-25"/>
<polygon style="fill:midnightblue;stroke:midnightblue;" points="953.441,-21.7969 943,-20 950.042,-27.916 953.441,-21.7969"/>
</g>
<!-- Node6&#45;&gt;Node12 -->
<g id="edge24" class="edge"><title>Node6&#45;&gt;Node12</title>
<path style="fill:none;stroke:midnightblue;" d="M1066,-58C1071,-57 1075,-56 1080,-56 1273,-32 1324,-36 1522,-20"/>
<polygon style="fill:midnightblue;stroke:midnightblue;" points="1522.4,-23.4778 1532,-19 1521.7,-16.5125 1522.4,-23.4778"/>
</g>
<!-- Node13&#45;&gt;Node2 -->
<g id="edge30" class="edge"><title>Node13&#45;&gt;Node2</title>
<path style="fill:none;stroke:midnightblue;" d="M666,-56C702,-48 753,-35 806,-20"/>
<polygon style="fill:midnightblue;stroke:midnightblue;" points="807.427,-23.2259 816,-17 805.416,-16.5212 807.427,-23.2259"/>
</g>
<!-- Node13&#45;&gt;Node3 -->
<g id="edge32" class="edge"><title>Node13&#45;&gt;Node3</title>
<path style="fill:none;stroke:midnightblue;" d="M533,-61C401,-54 157,-39 52,-20"/>
<polygon style="fill:midnightblue;stroke:midnightblue;" points="52.4922,-16.5292 42,-18 51.1194,-23.3933 52.4922,-16.5292"/>
</g>
<!-- Node13&#45;&gt;Node4 -->
<g id="edge34" class="edge"><title>Node13&#45;&gt;Node4</title>
<path style="fill:none;stroke:midnightblue;" d="M542,-56C465,-46 348,-31 268,-21"/>
<polygon style="fill:midnightblue;stroke:midnightblue;" points="268.299,-17.5125 258,-20 267.602,-24.4778 268.299,-17.5125"/>
</g>
<!-- Node13&#45;&gt;Node7 -->
<g id="edge36" class="edge"><title>Node13&#45;&gt;Node7</title>
<path style="fill:none;stroke:midnightblue;" d="M710,-57C783,-48 887,-36 988,-20"/>
<polygon style="fill:midnightblue;stroke:midnightblue;" points="988.881,-23.3933 998,-18 987.508,-16.5292 988.881,-23.3933"/>
</g>
<!-- Node13&#45;&gt;Node11 -->
<g id="edge44" class="edge"><title>Node13&#45;&gt;Node11</title>
<path style="fill:none;stroke:midnightblue;" d="M676,-56C729,-47 808,-32 864,-22"/>
<polygon style="fill:midnightblue;stroke:midnightblue;" points="864.881,-25.3933 874,-20 863.508,-18.5292 864.881,-25.3933"/>
</g>
<!-- Node14 -->
<g id="node33" class="node"><title>Node14</title>
<polygon style="fill:white;stroke:#bfbfbf;" points="434,-0 434,-20 529,-20 529,-0 434,-0"/>
<text text-anchor="middle" x="481" y="-7" style="font-family:Arial;font-size:10.00;">ltr/data/data_set.h</text>
</g>
<!-- Node13&#45;&gt;Node14 -->
<g id="edge38" class="edge"><title>Node13&#45;&gt;Node14</title>
<path style="fill:none;stroke:midnightblue;" d="M596,-56C574,-47 541,-34 516,-24"/>
<polygon style="fill:midnightblue;stroke:midnightblue;" points="516.585,-20.4643 506,-20 513.985,-26.9636 516.585,-20.4643"/>
</g>
<!-- Node15 -->
<g id="node35" class="node"><title>Node15</title>
<polygon style="fill:white;stroke:#bfbfbf;" points="546,-0 546,-20 643,-20 643,-0 546,-0"/>
<text text-anchor="middle" x="594" y="-7" style="font-family:Arial;font-size:10.00;">ltr/scorers/scorer.h</text>
</g>
<!-- Node13&#45;&gt;Node15 -->
<g id="edge40" class="edge"><title>Node13&#45;&gt;Node15</title>
<path style="fill:none;stroke:midnightblue;" d="M616,-56C612,-49 607,-38 603,-29"/>
<polygon style="fill:midnightblue;stroke:midnightblue;" points="606.26,-27.7166 599,-20 599.863,-30.5596 606.26,-27.7166"/>
</g>
<!-- Node13&#45;&gt;Node16 -->
<g id="edge42" class="edge"><title>Node13&#45;&gt;Node16</title>
<path style="fill:none;stroke:midnightblue;" d="M576,-56C533,-47 469,-32 423,-22"/>
<polygon style="fill:midnightblue;stroke:midnightblue;" points="423.492,-18.5292 413,-20 422.119,-25.3933 423.492,-18.5292"/>
</g>
<!-- Node13&#45;&gt;Node17 -->
<g id="edge46" class="edge"><title>Node13&#45;&gt;Node17</title>
<path style="fill:none;stroke:midnightblue;" d="M640,-56C656,-47 681,-34 700,-25"/>
<polygon style="fill:midnightblue;stroke:midnightblue;" points="701.958,-27.916 709,-20 698.559,-21.7969 701.958,-27.916"/>
</g>
</g>
</svg>
