<?xml version="1.0" encoding="UTF-8" standalone="no"?>
<!DOCTYPE svg PUBLIC "-//W3C//DTD SVG 1.0//EN"
 "http://www.w3.org/TR/2001/REC-SVG-20010904/DTD/svg10.dtd" [
 <!ATTLIST svg xmlns:xlink CDATA #FIXED "http://www.w3.org/1999/xlink">
]>
<!-- Generated by Graphviz version 2.20.2 (Tue Mar &#160;2 19:03:41 UTC 2010)
     For user: (jenkins)  -->
<!-- Title: G Pages: 1 -->
<svg width="1095pt" height="308pt"
 viewBox="0.00 0.00 1095.00 308.00" xmlns="http://www.w3.org/2000/svg" xmlns:xlink="http://www.w3.org/1999/xlink">
<g id="graph0" class="graph" transform="scale(1 1) rotate(0) translate(4 304)">
<title>G</title>
<polygon style="fill:white;stroke:white;" points="-4,4 -4,-304 1091,-304 1091,4 -4,4"/>
<!-- Node1 -->
<g id="node1" class="node"><title>Node1</title>
<polygon style="fill:#bfbfbf;stroke:black;" points="425,-280 425,-300 603,-300 603,-280 425,-280"/>
<text text-anchor="middle" x="514" y="-287" style="font-family:Arial;font-size:10.00;">ltr/data/neighbor_weighter_unittest.cc</text>
</g>
<!-- Node2 -->
<g id="node3" class="node"><title>Node2</title>
<polygon style="fill:white;stroke:#bfbfbf;" points="357,-224 357,-244 428,-244 428,-224 357,-224"/>
<text text-anchor="middle" x="392" y="-231" style="font-family:Arial;font-size:10.00;">gtest/gtest.h</text>
</g>
<!-- Node1&#45;&gt;Node2 -->
<g id="edge2" class="edge"><title>Node1&#45;&gt;Node2</title>
<path style="fill:none;stroke:midnightblue;" d="M492,-280C473,-271 445,-258 423,-248"/>
<polygon style="fill:midnightblue;stroke:midnightblue;" points="424.56,-244.863 414,-244 421.717,-251.26 424.56,-244.863"/>
</g>
<!-- Node3 -->
<g id="node5" class="node"><title>Node3</title>
<a xlink:href="neighbor__weighter_8h.html" target="_top" xlink:title="ltr/utility/neighbor_weighter.h">
<polygon style="fill:white;stroke:black;" points="445,-224 445,-244 584,-244 584,-224 445,-224"/>
<text text-anchor="middle" x="514" y="-231" style="font-family:Arial;font-size:10.00;">ltr/utility/neighbor_weighter.h</text>
</a>
</g>
<!-- Node1&#45;&gt;Node3 -->
<g id="edge4" class="edge"><title>Node1&#45;&gt;Node3</title>
<path style="fill:none;stroke:midnightblue;" d="M514,-280C514,-273 514,-263 514,-254"/>
<polygon style="fill:midnightblue;stroke:midnightblue;" points="517.5,-254 514,-244 510.5,-254 517.5,-254"/>
</g>
<!-- Node22 -->
<g id="node53" class="node"><title>Node22</title>
<a xlink:href="numerical_8h.html" target="_top" xlink:title="ltr/utility/numerical.h">
<polygon style="fill:white;stroke:black;" points="680,-224 680,-244 784,-244 784,-224 680,-224"/>
<text text-anchor="middle" x="732" y="-231" style="font-family:Arial;font-size:10.00;">ltr/utility/numerical.h</text>
</a>
</g>
<!-- Node1&#45;&gt;Node22 -->
<g id="edge62" class="edge"><title>Node1&#45;&gt;Node22</title>
<path style="fill:none;stroke:midnightblue;" d="M553,-280C590,-271 644,-257 683,-247"/>
<polygon style="fill:midnightblue;stroke:midnightblue;" points="684.427,-250.226 693,-244 682.416,-243.521 684.427,-250.226"/>
</g>
<!-- Node4 -->
<g id="node7" class="node"><title>Node4</title>
<polygon style="fill:white;stroke:#bfbfbf;" points="18,-0 18,-20 58,-20 58,-0 18,-0"/>
<text text-anchor="middle" x="38" y="-7" style="font-family:Arial;font-size:10.00;">string</text>
</g>
<!-- Node3&#45;&gt;Node4 -->
<g id="edge6" class="edge"><title>Node3&#45;&gt;Node4</title>
<path style="fill:none;stroke:midnightblue;" d="M451,-224C343,-206 129,-167 61,-132 29,-114 16,-109 1,-76 -6,-59 6,-41 18,-27"/>
<polygon style="fill:midnightblue;stroke:midnightblue;" points="20.4038,-29.546 25,-20 15.454,-24.5962 20.4038,-29.546"/>
</g>
<!-- Node5 -->
<g id="node9" class="node"><title>Node5</title>
<a xlink:href="parameters__container_8h.html" target="_top" xlink:title="ltr/parameters_container/parameters_container.h">
<polygon style="fill:white;stroke:black;" points="431,-112 431,-132 656,-132 656,-112 431,-112"/>
<text text-anchor="middle" x="543" y="-119" style="font-family:Arial;font-size:10.00;">ltr/parameters_container/parameters_container.h</text>
</a>
</g>
<!-- Node3&#45;&gt;Node5 -->
<g id="edge8" class="edge"><title>Node3&#45;&gt;Node5</title>
<path style="fill:none;stroke:midnightblue;" d="M504,-224C492,-211 474,-187 484,-168 490,-155 502,-145 513,-138"/>
<polygon style="fill:midnightblue;stroke:midnightblue;" points="515.621,-140.459 522,-132 511.738,-134.635 515.621,-140.459"/>
</g>
<!-- Node11 -->
<g id="node22" class="node"><title>Node11</title>
<a xlink:href="shared__ptr_8h.html" target="_top" xlink:title="ltr/utility/shared_ptr.h">
<polygon style="fill:white;stroke:black;" points="619,-56 619,-76 726,-76 726,-56 619,-56"/>
<text text-anchor="middle" x="672" y="-63" style="font-family:Arial;font-size:10.00;">ltr/utility/shared_ptr.h</text>
</a>
</g>
<!-- Node3&#45;&gt;Node11 -->
<g id="edge36" class="edge"><title>Node3&#45;&gt;Node11</title>
<path style="fill:none;stroke:midnightblue;" d="M575,-224C599,-217 625,-206 644,-188 671,-161 674,-113 673,-86"/>
<polygon style="fill:midnightblue;stroke:midnightblue;" points="676.5,-86 673,-76 669.5,-86 676.5,-86"/>
</g>
<!-- Node17 -->
<g id="node36" class="node"><title>Node17</title>
<a xlink:href="serializable_8h.html" target="_top" xlink:title="ltr/interfaces/serializable.h">
<polygon style="fill:white;stroke:black;" points="246,-112 246,-132 375,-132 375,-112 246,-112"/>
<text text-anchor="middle" x="310" y="-119" style="font-family:Arial;font-size:10.00;">ltr/interfaces/serializable.h</text>
</a>
</g>
<!-- Node3&#45;&gt;Node17 -->
<g id="edge38" class="edge"><title>Node3&#45;&gt;Node17</title>
<path style="fill:none;stroke:midnightblue;" d="M496,-224C460,-204 380,-160 338,-137"/>
<polygon style="fill:midnightblue;stroke:midnightblue;" points="339.441,-133.797 329,-132 336.042,-139.916 339.441,-133.797"/>
</g>
<!-- Node21 -->
<g id="node48" class="node"><title>Node21</title>
<a xlink:href="parameterized_8h.html" target="_top" xlink:title="ltr/interfaces/parameterized.h">
<polygon style="fill:white;stroke:black;" points="493,-168 493,-188 635,-188 635,-168 493,-168"/>
<text text-anchor="middle" x="564" y="-175" style="font-family:Arial;font-size:10.00;">ltr/interfaces/parameterized.h</text>
</a>
</g>
<!-- Node3&#45;&gt;Node21 -->
<g id="edge54" class="edge"><title>Node3&#45;&gt;Node21</title>
<path style="fill:none;stroke:midnightblue;" d="M523,-224C530,-216 540,-205 548,-196"/>
<polygon style="fill:midnightblue;stroke:midnightblue;" points="551.049,-197.831 555,-188 545.781,-193.221 551.049,-197.831"/>
</g>
<!-- Node5&#45;&gt;Node4 -->
<g id="edge16" class="edge"><title>Node5&#45;&gt;Node4</title>
<path style="fill:none;stroke:midnightblue;" d="M529,-112C505,-95 458,-63 438,-56 370,-32 149,-16 68,-12"/>
<polygon style="fill:midnightblue;stroke:midnightblue;" points="68.2987,-8.5125 58,-11 67.6021,-15.4778 68.2987,-8.5125"/>
</g>
<!-- Node6 -->
<g id="node11" class="node"><title>Node6</title>
<polygon style="fill:white;stroke:#bfbfbf;" points="355,-56 355,-76 429,-76 429,-56 355,-56"/>
<text text-anchor="middle" x="392" y="-63" style="font-family:Arial;font-size:10.00;">logog/logog.h</text>
</g>
<!-- Node5&#45;&gt;Node6 -->
<g id="edge10" class="edge"><title>Node5&#45;&gt;Node6</title>
<path style="fill:none;stroke:midnightblue;" d="M516,-112C492,-103 456,-89 429,-79"/>
<polygon style="fill:midnightblue;stroke:midnightblue;" points="429.584,-75.5212 419,-76 427.573,-82.2259 429.584,-75.5212"/>
</g>
<!-- Node7 -->
<g id="node13" class="node"><title>Node7</title>
<polygon style="fill:white;stroke:#bfbfbf;" points="743,-56 743,-76 772,-76 772,-56 743,-56"/>
<text text-anchor="middle" x="757" y="-63" style="font-family:Arial;font-size:10.00;">list</text>
</g>
<!-- Node5&#45;&gt;Node7 -->
<g id="edge12" class="edge"><title>Node5&#45;&gt;Node7</title>
<path style="fill:none;stroke:midnightblue;" d="M594,-112C631,-104 681,-92 734,-75"/>
<polygon style="fill:midnightblue;stroke:midnightblue;" points="734.62,-78.4827 743,-72 732.406,-71.842 734.62,-78.4827"/>
</g>
<!-- Node8 -->
<g id="node15" class="node"><title>Node8</title>
<polygon style="fill:white;stroke:#bfbfbf;" points="1029,-56 1029,-76 1088,-76 1088,-56 1029,-56"/>
<text text-anchor="middle" x="1058" y="-63" style="font-family:Arial;font-size:10.00;">stdexcept</text>
</g>
<!-- Node5&#45;&gt;Node8 -->
<g id="edge14" class="edge"><title>Node5&#45;&gt;Node8</title>
<path style="fill:none;stroke:midnightblue;" d="M656,-116C751,-110 890,-99 1019,-76"/>
<polygon style="fill:midnightblue;stroke:midnightblue;" points="1019.88,-79.3933 1029,-74 1018.51,-72.5292 1019.88,-79.3933"/>
</g>
<!-- Node9 -->
<g id="node18" class="node"><title>Node9</title>
<polygon style="fill:white;stroke:#bfbfbf;" points="789,-56 789,-76 866,-76 866,-56 789,-56"/>
<text text-anchor="middle" x="827" y="-63" style="font-family:Arial;font-size:10.00;">boost/any.hpp</text>
</g>
<!-- Node5&#45;&gt;Node9 -->
<g id="edge18" class="edge"><title>Node5&#45;&gt;Node9</title>
<path style="fill:none;stroke:midnightblue;" d="M596,-112C641,-103 709,-90 779,-76"/>
<polygon style="fill:midnightblue;stroke:midnightblue;" points="779.881,-79.3933 789,-74 778.508,-72.5292 779.881,-79.3933"/>
</g>
<!-- Node10 -->
<g id="node20" class="node"><title>Node10</title>
<polygon style="fill:white;stroke:#bfbfbf;" points="883,-56 883,-76 1012,-76 1012,-56 883,-56"/>
<text text-anchor="middle" x="947" y="-63" style="font-family:Arial;font-size:10.00;">boost/unordered_map.hpp</text>
</g>
<!-- Node5&#45;&gt;Node10 -->
<g id="edge20" class="edge"><title>Node5&#45;&gt;Node10</title>
<path style="fill:none;stroke:midnightblue;" d="M615,-112C688,-102 799,-87 873,-76"/>
<polygon style="fill:midnightblue;stroke:midnightblue;" points="873.398,-79.4778 883,-75 872.701,-72.5125 873.398,-79.4778"/>
</g>
<!-- Node5&#45;&gt;Node11 -->
<g id="edge22" class="edge"><title>Node5&#45;&gt;Node11</title>
<path style="fill:none;stroke:midnightblue;" d="M566,-112C586,-103 616,-90 639,-80"/>
<polygon style="fill:midnightblue;stroke:midnightblue;" points="641.015,-82.9636 649,-76 638.415,-76.4643 641.015,-82.9636"/>
</g>
<!-- Node15 -->
<g id="node30" class="node"><title>Node15</title>
<a xlink:href="printable_8h.html" target="_top" xlink:title="ltr/interfaces/printable.h">
<polygon style="fill:white;stroke:black;" points="485,-56 485,-76 602,-76 602,-56 485,-56"/>
<text text-anchor="middle" x="543" y="-63" style="font-family:Arial;font-size:10.00;">ltr/interfaces/printable.h</text>
</a>
</g>
<!-- Node5&#45;&gt;Node15 -->
<g id="edge30" class="edge"><title>Node5&#45;&gt;Node15</title>
<path style="fill:none;stroke:midnightblue;" d="M543,-112C543,-105 543,-95 543,-86"/>
<polygon style="fill:midnightblue;stroke:midnightblue;" points="546.5,-86 543,-76 539.5,-86 546.5,-86"/>
</g>
<!-- Node12 -->
<g id="node24" class="node"><title>Node12</title>
<polygon style="fill:white;stroke:#bfbfbf;" points="565,-0 565,-20 621,-20 621,-0 565,-0"/>
<text text-anchor="middle" x="593" y="-7" style="font-family:Arial;font-size:10.00;">algorithm</text>
</g>
<!-- Node11&#45;&gt;Node12 -->
<g id="edge24" class="edge"><title>Node11&#45;&gt;Node12</title>
<path style="fill:none;stroke:midnightblue;" d="M658,-56C646,-48 629,-35 615,-26"/>
<polygon style="fill:midnightblue;stroke:midnightblue;" points="617.1,-23.2 607,-20 612.9,-28.8 617.1,-23.2"/>
</g>
<!-- Node13 -->
<g id="node26" class="node"><title>Node13</title>
<polygon style="fill:white;stroke:#bfbfbf;" points="639,-0 639,-20 746,-20 746,-0 639,-0"/>
<text text-anchor="middle" x="692" y="-7" style="font-family:Arial;font-size:10.00;">boost/shared_ptr.hpp</text>
</g>
<!-- Node11&#45;&gt;Node13 -->
<g id="edge26" class="edge"><title>Node11&#45;&gt;Node13</title>
<path style="fill:none;stroke:midnightblue;" d="M676,-56C678,-49 682,-39 685,-30"/>
<polygon style="fill:midnightblue;stroke:midnightblue;" points="688.479,-30.584 688,-20 681.774,-28.5725 688.479,-30.584"/>
</g>
<!-- Node14 -->
<g id="node28" class="node"><title>Node14</title>
<polygon style="fill:white;stroke:#bfbfbf;" points="763,-0 763,-20 954,-20 954,-0 763,-0"/>
<text text-anchor="middle" x="858" y="-7" style="font-family:Arial;font-size:10.00;">boost/smart_ptr/detail/operator_bool.hpp</text>
</g>
<!-- Node11&#45;&gt;Node14 -->
<g id="edge28" class="edge"><title>Node11&#45;&gt;Node14</title>
<path style="fill:none;stroke:midnightblue;" d="M705,-56C736,-47 781,-33 815,-23"/>
<polygon style="fill:midnightblue;stroke:midnightblue;" points="816.427,-26.2259 825,-20 814.416,-19.5212 816.427,-26.2259"/>
</g>
<!-- Node15&#45;&gt;Node4 -->
<g id="edge34" class="edge"><title>Node15&#45;&gt;Node4</title>
<path style="fill:none;stroke:midnightblue;" d="M485,-57C480,-57 476,-56 471,-56 320,-37 139,-20 68,-13"/>
<polygon style="fill:midnightblue;stroke:midnightblue;" points="68.2987,-9.5125 58,-12 67.6021,-16.4778 68.2987,-9.5125"/>
</g>
<!-- Node16 -->
<g id="node32" class="node"><title>Node16</title>
<polygon style="fill:white;stroke:#bfbfbf;" points="497,-0 497,-20 548,-20 548,-0 497,-0"/>
<text text-anchor="middle" x="522" y="-7" style="font-family:Arial;font-size:10.00;">ostream</text>
</g>
<!-- Node15&#45;&gt;Node16 -->
<g id="edge32" class="edge"><title>Node15&#45;&gt;Node16</title>
<path style="fill:none;stroke:midnightblue;" d="M539,-56C536,-49 533,-39 529,-29"/>
<polygon style="fill:midnightblue;stroke:midnightblue;" points="532.483,-28.38 526,-20 525.842,-30.5937 532.483,-28.38"/>
</g>
<!-- Node17&#45;&gt;Node4 -->
<g id="edge44" class="edge"><title>Node17&#45;&gt;Node4</title>
<path style="fill:none;stroke:midnightblue;" d="M246,-116C164,-108 31,-93 16,-76 4,-62 13,-42 23,-28"/>
<polygon style="fill:midnightblue;stroke:midnightblue;" points="25.8,-30.1 29,-20 20.2,-25.9 25.8,-30.1"/>
</g>
<!-- Node17&#45;&gt;Node6 -->
<g id="edge42" class="edge"><title>Node17&#45;&gt;Node6</title>
<path style="fill:none;stroke:midnightblue;" d="M325,-112C337,-104 354,-91 369,-82"/>
<polygon style="fill:midnightblue;stroke:midnightblue;" points="371.1,-84.8 377,-76 366.9,-79.2 371.1,-84.8"/>
</g>
<!-- Node17&#45;&gt;Node11 -->
<g id="edge48" class="edge"><title>Node17&#45;&gt;Node11</title>
<path style="fill:none;stroke:midnightblue;" d="M375,-112C434,-103 522,-89 609,-76"/>
<polygon style="fill:midnightblue;stroke:midnightblue;" points="609.881,-79.3933 619,-74 608.508,-72.5292 609.881,-79.3933"/>
</g>
<!-- Node18 -->
<g id="node38" class="node"><title>Node18</title>
<polygon style="fill:white;stroke:#bfbfbf;" points="151,-56 151,-76 265,-76 265,-56 151,-56"/>
<text text-anchor="middle" x="208" y="-63" style="font-family:Arial;font-size:10.00;">boost/lexical_cast.hpp</text>
</g>
<!-- Node17&#45;&gt;Node18 -->
<g id="edge40" class="edge"><title>Node17&#45;&gt;Node18</title>
<path style="fill:none;stroke:midnightblue;" d="M292,-112C276,-103 253,-91 235,-81"/>
<polygon style="fill:midnightblue;stroke:midnightblue;" points="236.441,-77.7969 226,-76 233.042,-83.916 236.441,-77.7969"/>
</g>
<!-- Node19 -->
<g id="node42" class="node"><title>Node19</title>
<polygon style="fill:white;stroke:#bfbfbf;" points="283,-56 283,-76 337,-76 337,-56 283,-56"/>
<text text-anchor="middle" x="310" y="-63" style="font-family:Arial;font-size:10.00;">iostream</text>
</g>
<!-- Node17&#45;&gt;Node19 -->
<g id="edge46" class="edge"><title>Node17&#45;&gt;Node19</title>
<path style="fill:none;stroke:midnightblue;" d="M310,-112C310,-105 310,-95 310,-86"/>
<polygon style="fill:midnightblue;stroke:midnightblue;" points="313.5,-86 310,-76 306.5,-86 313.5,-86"/>
</g>
<!-- Node20 -->
<g id="node45" class="node"><title>Node20</title>
<a xlink:href="aliaser_8h.html" target="_top" xlink:title="ltr/interfaces/aliaser.h">
<polygon style="fill:white;stroke:black;" points="25,-56 25,-76 133,-76 133,-56 25,-56"/>
<text text-anchor="middle" x="79" y="-63" style="font-family:Arial;font-size:10.00;">ltr/interfaces/aliaser.h</text>
</a>
</g>
<!-- Node17&#45;&gt;Node20 -->
<g id="edge50" class="edge"><title>Node17&#45;&gt;Node20</title>
<path style="fill:none;stroke:midnightblue;" d="M269,-112C230,-103 172,-88 130,-78"/>
<polygon style="fill:midnightblue;stroke:midnightblue;" points="130.492,-74.5292 120,-76 129.119,-81.3933 130.492,-74.5292"/>
</g>
<!-- Node20&#45;&gt;Node4 -->
<g id="edge52" class="edge"><title>Node20&#45;&gt;Node4</title>
<path style="fill:none;stroke:midnightblue;" d="M72,-56C66,-48 58,-38 52,-29"/>
<polygon style="fill:midnightblue;stroke:midnightblue;" points="54.4592,-26.3791 46,-20 48.6349,-30.262 54.4592,-26.3791"/>
</g>
<!-- Node21&#45;&gt;Node4 -->
<g id="edge58" class="edge"><title>Node21&#45;&gt;Node4</title>
<path style="fill:none;stroke:midnightblue;" d="M493,-176C357,-171 67,-150 8,-76 -3,-61 9,-42 20,-28"/>
<polygon style="fill:midnightblue;stroke:midnightblue;" points="23.0489,-29.8306 27,-20 17.7809,-25.221 23.0489,-29.8306"/>
</g>
<!-- Node21&#45;&gt;Node5 -->
<g id="edge60" class="edge"><title>Node21&#45;&gt;Node5</title>
<path style="fill:none;stroke:midnightblue;" d="M560,-168C557,-161 554,-151 550,-141"/>
<polygon style="fill:midnightblue;stroke:midnightblue;" points="553.483,-140.38 547,-132 546.842,-142.594 553.483,-140.38"/>
</g>
<!-- Node21&#45;&gt;Node8 -->
<g id="edge56" class="edge"><title>Node21&#45;&gt;Node8</title>
<path style="fill:none;stroke:midnightblue;" d="M611,-168C692,-150 864,-114 1019,-75"/>
<polygon style="fill:midnightblue;stroke:midnightblue;" points="1019.88,-78.3933 1029,-73 1018.51,-71.5292 1019.88,-78.3933"/>
</g>
<!-- Node23 -->
<g id="node55" class="node"><title>Node23</title>
<polygon style="fill:white;stroke:#bfbfbf;" points="711,-168 711,-188 754,-188 754,-168 711,-168"/>
<text text-anchor="middle" x="732" y="-175" style="font-family:Arial;font-size:10.00;">cmath</text>
</g>
<!-- Node22&#45;&gt;Node23 -->
<g id="edge64" class="edge"><title>Node22&#45;&gt;Node23</title>
<path style="fill:none;stroke:midnightblue;" d="M732,-224C732,-217 732,-207 732,-198"/>
<polygon style="fill:midnightblue;stroke:midnightblue;" points="735.5,-198 732,-188 728.5,-198 735.5,-198"/>
</g>
<!-- Node24 -->
<g id="node57" class="node"><title>Node24</title>
<polygon style="fill:white;stroke:#bfbfbf;" points="771,-168 771,-188 810,-188 810,-168 771,-168"/>
<text text-anchor="middle" x="790" y="-175" style="font-family:Arial;font-size:10.00;">limits</text>
</g>
<!-- Node22&#45;&gt;Node24 -->
<g id="edge66" class="edge"><title>Node22&#45;&gt;Node24</title>
<path style="fill:none;stroke:midnightblue;" d="M742,-224C751,-216 762,-205 772,-195"/>
<polygon style="fill:midnightblue;stroke:midnightblue;" points="774.404,-197.546 779,-188 769.454,-192.596 774.404,-197.546"/>
</g>
</g>
</svg>
