<?xml version="1.0" encoding="UTF-8" standalone="no"?>
<!DOCTYPE svg PUBLIC "-//W3C//DTD SVG 1.0//EN"
 "http://www.w3.org/TR/2001/REC-SVG-20010904/DTD/svg10.dtd" [
 <!ATTLIST svg xmlns:xlink CDATA #FIXED "http://www.w3.org/1999/xlink">
]>
<!-- Generated by Graphviz version 2.20.2 (Tue Mar &#160;2 19:03:41 UTC 2010)
     For user: (jenkins)  -->
<!-- Title: G Pages: 1 -->
<svg width="1095pt" height="308pt"
 viewBox="0.00 0.00 1095.00 308.00" xmlns="http://www.w3.org/2000/svg" xmlns:xlink="http://www.w3.org/1999/xlink">
<g id="graph0" class="graph" transform="scale(1 1) rotate(0) translate(4 304)">
<title>G</title>
<polygon style="fill:white;stroke:white;" points="-4,4 -4,-304 1091,-304 1091,4 -4,4"/>
<!-- Node1 -->
<g id="node1" class="node"><title>Node1</title>
<polygon style="fill:#bfbfbf;stroke:black;" points="372,-280 372,-300 516,-300 516,-280 372,-280"/>
<text text-anchor="middle" x="444" y="-287" style="font-family:Arial;font-size:10.00;">ltr/utility/neighbor_weighter.cc</text>
</g>
<!-- Node2 -->
<g id="node3" class="node"><title>Node2</title>
<a xlink:href="neighbor__weighter_8h.html" target="_top" xlink:title="ltr/utility/neighbor_weighter.h">
<polygon style="fill:white;stroke:black;" points="375,-224 375,-244 514,-244 514,-224 375,-224"/>
<text text-anchor="middle" x="444" y="-231" style="font-family:Arial;font-size:10.00;">ltr/utility/neighbor_weighter.h</text>
</a>
</g>
<!-- Node1&#45;&gt;Node2 -->
<g id="edge2" class="edge"><title>Node1&#45;&gt;Node2</title>
<path style="fill:none;stroke:midnightblue;" d="M444,-280C444,-273 444,-263 444,-254"/>
<polygon style="fill:midnightblue;stroke:midnightblue;" points="447.5,-254 444,-244 440.5,-254 447.5,-254"/>
</g>
<!-- Node3 -->
<g id="node5" class="node"><title>Node3</title>
<polygon style="fill:white;stroke:#bfbfbf;" points="18,-0 18,-20 58,-20 58,-0 18,-0"/>
<text text-anchor="middle" x="38" y="-7" style="font-family:Arial;font-size:10.00;">string</text>
</g>
<!-- Node2&#45;&gt;Node3 -->
<g id="edge4" class="edge"><title>Node2&#45;&gt;Node3</title>
<path style="fill:none;stroke:midnightblue;" d="M375,-225C296,-212 166,-185 66,-132 33,-114 17,-110 1,-76 -7,-58 6,-40 18,-27"/>
<polygon style="fill:midnightblue;stroke:midnightblue;" points="20.4038,-29.546 25,-20 15.454,-24.5962 20.4038,-29.546"/>
</g>
<!-- Node4 -->
<g id="node7" class="node"><title>Node4</title>
<a xlink:href="parameters__container_8h.html" target="_top" xlink:title="ltr/parameters_container/parameters_container.h">
<polygon style="fill:white;stroke:black;" points="431,-112 431,-132 656,-132 656,-112 431,-112"/>
<text text-anchor="middle" x="543" y="-119" style="font-family:Arial;font-size:10.00;">ltr/parameters_container/parameters_container.h</text>
</a>
</g>
<!-- Node2&#45;&gt;Node4 -->
<g id="edge6" class="edge"><title>Node2&#45;&gt;Node4</title>
<path style="fill:none;stroke:midnightblue;" d="M445,-224C446,-210 450,-185 463,-168 474,-154 489,-143 505,-136"/>
<polygon style="fill:midnightblue;stroke:midnightblue;" points="506.283,-139.26 514,-132 503.44,-132.863 506.283,-139.26"/>
</g>
<!-- Node10 -->
<g id="node20" class="node"><title>Node10</title>
<a xlink:href="shared__ptr_8h.html" target="_top" xlink:title="ltr/utility/shared_ptr.h">
<polygon style="fill:white;stroke:black;" points="619,-56 619,-76 726,-76 726,-56 619,-56"/>
<text text-anchor="middle" x="672" y="-63" style="font-family:Arial;font-size:10.00;">ltr/utility/shared_ptr.h</text>
</a>
</g>
<!-- Node2&#45;&gt;Node10 -->
<g id="edge34" class="edge"><title>Node2&#45;&gt;Node10</title>
<path style="fill:none;stroke:midnightblue;" d="M499,-224C544,-215 602,-202 623,-188 648,-170 652,-160 664,-132 669,-117 671,-100 672,-86"/>
<polygon style="fill:midnightblue;stroke:midnightblue;" points="675.5,-86 672,-76 668.5,-86 675.5,-86"/>
</g>
<!-- Node16 -->
<g id="node34" class="node"><title>Node16</title>
<a xlink:href="serializable_8h.html" target="_top" xlink:title="ltr/interfaces/serializable.h">
<polygon style="fill:white;stroke:black;" points="246,-112 246,-132 375,-132 375,-112 246,-112"/>
<text text-anchor="middle" x="310" y="-119" style="font-family:Arial;font-size:10.00;">ltr/interfaces/serializable.h</text>
</a>
</g>
<!-- Node2&#45;&gt;Node16 -->
<g id="edge36" class="edge"><title>Node2&#45;&gt;Node16</title>
<path style="fill:none;stroke:midnightblue;" d="M432,-224C408,-204 358,-162 330,-139"/>
<polygon style="fill:midnightblue;stroke:midnightblue;" points="331.831,-135.951 322,-132 327.221,-141.219 331.831,-135.951"/>
</g>
<!-- Node20 -->
<g id="node46" class="node"><title>Node20</title>
<a xlink:href="parameterized_8h.html" target="_top" xlink:title="ltr/interfaces/parameterized.h">
<polygon style="fill:white;stroke:black;" points="472,-168 472,-188 614,-188 614,-168 472,-168"/>
<text text-anchor="middle" x="543" y="-175" style="font-family:Arial;font-size:10.00;">ltr/interfaces/parameterized.h</text>
</a>
</g>
<!-- Node2&#45;&gt;Node20 -->
<g id="edge52" class="edge"><title>Node2&#45;&gt;Node20</title>
<path style="fill:none;stroke:midnightblue;" d="M462,-224C477,-216 499,-203 516,-193"/>
<polygon style="fill:midnightblue;stroke:midnightblue;" points="517.958,-195.916 525,-188 514.559,-189.797 517.958,-195.916"/>
</g>
<!-- Node4&#45;&gt;Node3 -->
<g id="edge14" class="edge"><title>Node4&#45;&gt;Node3</title>
<path style="fill:none;stroke:midnightblue;" d="M529,-112C505,-95 457,-63 438,-56 370,-32 149,-16 68,-12"/>
<polygon style="fill:midnightblue;stroke:midnightblue;" points="68.2987,-8.5125 58,-11 67.6021,-15.4778 68.2987,-8.5125"/>
</g>
<!-- Node5 -->
<g id="node9" class="node"><title>Node5</title>
<polygon style="fill:white;stroke:#bfbfbf;" points="355,-56 355,-76 429,-76 429,-56 355,-56"/>
<text text-anchor="middle" x="392" y="-63" style="font-family:Arial;font-size:10.00;">logog/logog.h</text>
</g>
<!-- Node4&#45;&gt;Node5 -->
<g id="edge8" class="edge"><title>Node4&#45;&gt;Node5</title>
<path style="fill:none;stroke:midnightblue;" d="M516,-112C492,-103 456,-89 429,-79"/>
<polygon style="fill:midnightblue;stroke:midnightblue;" points="429.584,-75.5212 419,-76 427.573,-82.2259 429.584,-75.5212"/>
</g>
<!-- Node6 -->
<g id="node11" class="node"><title>Node6</title>
<polygon style="fill:white;stroke:#bfbfbf;" points="743,-56 743,-76 772,-76 772,-56 743,-56"/>
<text text-anchor="middle" x="757" y="-63" style="font-family:Arial;font-size:10.00;">list</text>
</g>
<!-- Node4&#45;&gt;Node6 -->
<g id="edge10" class="edge"><title>Node4&#45;&gt;Node6</title>
<path style="fill:none;stroke:midnightblue;" d="M594,-112C631,-104 681,-92 734,-75"/>
<polygon style="fill:midnightblue;stroke:midnightblue;" points="734.62,-78.4827 743,-72 732.406,-71.842 734.62,-78.4827"/>
</g>
<!-- Node7 -->
<g id="node13" class="node"><title>Node7</title>
<polygon style="fill:white;stroke:#bfbfbf;" points="1029,-56 1029,-76 1088,-76 1088,-56 1029,-56"/>
<text text-anchor="middle" x="1058" y="-63" style="font-family:Arial;font-size:10.00;">stdexcept</text>
</g>
<!-- Node4&#45;&gt;Node7 -->
<g id="edge12" class="edge"><title>Node4&#45;&gt;Node7</title>
<path style="fill:none;stroke:midnightblue;" d="M656,-116C751,-110 890,-99 1019,-76"/>
<polygon style="fill:midnightblue;stroke:midnightblue;" points="1019.88,-79.3933 1029,-74 1018.51,-72.5292 1019.88,-79.3933"/>
</g>
<!-- Node8 -->
<g id="node16" class="node"><title>Node8</title>
<polygon style="fill:white;stroke:#bfbfbf;" points="789,-56 789,-76 866,-76 866,-56 789,-56"/>
<text text-anchor="middle" x="827" y="-63" style="font-family:Arial;font-size:10.00;">boost/any.hpp</text>
</g>
<!-- Node4&#45;&gt;Node8 -->
<g id="edge16" class="edge"><title>Node4&#45;&gt;Node8</title>
<path style="fill:none;stroke:midnightblue;" d="M596,-112C641,-103 709,-90 779,-76"/>
<polygon style="fill:midnightblue;stroke:midnightblue;" points="779.881,-79.3933 789,-74 778.508,-72.5292 779.881,-79.3933"/>
</g>
<!-- Node9 -->
<g id="node18" class="node"><title>Node9</title>
<polygon style="fill:white;stroke:#bfbfbf;" points="883,-56 883,-76 1012,-76 1012,-56 883,-56"/>
<text text-anchor="middle" x="947" y="-63" style="font-family:Arial;font-size:10.00;">boost/unordered_map.hpp</text>
</g>
<!-- Node4&#45;&gt;Node9 -->
<g id="edge18" class="edge"><title>Node4&#45;&gt;Node9</title>
<path style="fill:none;stroke:midnightblue;" d="M615,-112C688,-102 799,-87 873,-76"/>
<polygon style="fill:midnightblue;stroke:midnightblue;" points="873.398,-79.4778 883,-75 872.701,-72.5125 873.398,-79.4778"/>
</g>
<!-- Node4&#45;&gt;Node10 -->
<g id="edge20" class="edge"><title>Node4&#45;&gt;Node10</title>
<path style="fill:none;stroke:midnightblue;" d="M566,-112C586,-103 616,-90 639,-80"/>
<polygon style="fill:midnightblue;stroke:midnightblue;" points="641.015,-82.9636 649,-76 638.415,-76.4643 641.015,-82.9636"/>
</g>
<!-- Node14 -->
<g id="node28" class="node"><title>Node14</title>
<a xlink:href="printable_8h.html" target="_top" xlink:title="ltr/interfaces/printable.h">
<polygon style="fill:white;stroke:black;" points="485,-56 485,-76 602,-76 602,-56 485,-56"/>
<text text-anchor="middle" x="543" y="-63" style="font-family:Arial;font-size:10.00;">ltr/interfaces/printable.h</text>
</a>
</g>
<!-- Node4&#45;&gt;Node14 -->
<g id="edge28" class="edge"><title>Node4&#45;&gt;Node14</title>
<path style="fill:none;stroke:midnightblue;" d="M543,-112C543,-105 543,-95 543,-86"/>
<polygon style="fill:midnightblue;stroke:midnightblue;" points="546.5,-86 543,-76 539.5,-86 546.5,-86"/>
</g>
<!-- Node11 -->
<g id="node22" class="node"><title>Node11</title>
<polygon style="fill:white;stroke:#bfbfbf;" points="565,-0 565,-20 621,-20 621,-0 565,-0"/>
<text text-anchor="middle" x="593" y="-7" style="font-family:Arial;font-size:10.00;">algorithm</text>
</g>
<!-- Node10&#45;&gt;Node11 -->
<g id="edge22" class="edge"><title>Node10&#45;&gt;Node11</title>
<path style="fill:none;stroke:midnightblue;" d="M658,-56C646,-48 629,-35 615,-26"/>
<polygon style="fill:midnightblue;stroke:midnightblue;" points="617.1,-23.2 607,-20 612.9,-28.8 617.1,-23.2"/>
</g>
<!-- Node12 -->
<g id="node24" class="node"><title>Node12</title>
<polygon style="fill:white;stroke:#bfbfbf;" points="639,-0 639,-20 746,-20 746,-0 639,-0"/>
<text text-anchor="middle" x="692" y="-7" style="font-family:Arial;font-size:10.00;">boost/shared_ptr.hpp</text>
</g>
<!-- Node10&#45;&gt;Node12 -->
<g id="edge24" class="edge"><title>Node10&#45;&gt;Node12</title>
<path style="fill:none;stroke:midnightblue;" d="M676,-56C678,-49 682,-39 685,-30"/>
<polygon style="fill:midnightblue;stroke:midnightblue;" points="688.479,-30.584 688,-20 681.774,-28.5725 688.479,-30.584"/>
</g>
<!-- Node13 -->
<g id="node26" class="node"><title>Node13</title>
<polygon style="fill:white;stroke:#bfbfbf;" points="763,-0 763,-20 954,-20 954,-0 763,-0"/>
<text text-anchor="middle" x="858" y="-7" style="font-family:Arial;font-size:10.00;">boost/smart_ptr/detail/operator_bool.hpp</text>
</g>
<!-- Node10&#45;&gt;Node13 -->
<g id="edge26" class="edge"><title>Node10&#45;&gt;Node13</title>
<path style="fill:none;stroke:midnightblue;" d="M705,-56C736,-47 781,-33 815,-23"/>
<polygon style="fill:midnightblue;stroke:midnightblue;" points="816.427,-26.2259 825,-20 814.416,-19.5212 816.427,-26.2259"/>
</g>
<!-- Node14&#45;&gt;Node3 -->
<g id="edge32" class="edge"><title>Node14&#45;&gt;Node3</title>
<path style="fill:none;stroke:midnightblue;" d="M485,-57C480,-57 476,-56 471,-56 320,-37 139,-20 68,-13"/>
<polygon style="fill:midnightblue;stroke:midnightblue;" points="68.2987,-9.5125 58,-12 67.6021,-16.4778 68.2987,-9.5125"/>
</g>
<!-- Node15 -->
<g id="node30" class="node"><title>Node15</title>
<polygon style="fill:white;stroke:#bfbfbf;" points="497,-0 497,-20 548,-20 548,-0 497,-0"/>
<text text-anchor="middle" x="522" y="-7" style="font-family:Arial;font-size:10.00;">ostream</text>
</g>
<!-- Node14&#45;&gt;Node15 -->
<g id="edge30" class="edge"><title>Node14&#45;&gt;Node15</title>
<path style="fill:none;stroke:midnightblue;" d="M539,-56C536,-49 533,-39 529,-29"/>
<polygon style="fill:midnightblue;stroke:midnightblue;" points="532.483,-28.38 526,-20 525.842,-30.5937 532.483,-28.38"/>
</g>
<!-- Node16&#45;&gt;Node3 -->
<g id="edge42" class="edge"><title>Node16&#45;&gt;Node3</title>
<path style="fill:none;stroke:midnightblue;" d="M246,-116C164,-108 31,-93 16,-76 4,-62 13,-42 23,-28"/>
<polygon style="fill:midnightblue;stroke:midnightblue;" points="25.8,-30.1 29,-20 20.2,-25.9 25.8,-30.1"/>
</g>
<!-- Node16&#45;&gt;Node5 -->
<g id="edge40" class="edge"><title>Node16&#45;&gt;Node5</title>
<path style="fill:none;stroke:midnightblue;" d="M325,-112C337,-104 354,-91 369,-82"/>
<polygon style="fill:midnightblue;stroke:midnightblue;" points="371.1,-84.8 377,-76 366.9,-79.2 371.1,-84.8"/>
</g>
<!-- Node16&#45;&gt;Node10 -->
<g id="edge46" class="edge"><title>Node16&#45;&gt;Node10</title>
<path style="fill:none;stroke:midnightblue;" d="M374,-112C433,-103 521,-89 609,-76"/>
<polygon style="fill:midnightblue;stroke:midnightblue;" points="609.881,-79.3933 619,-74 608.508,-72.5292 609.881,-79.3933"/>
</g>
<!-- Node17 -->
<g id="node36" class="node"><title>Node17</title>
<polygon style="fill:white;stroke:#bfbfbf;" points="151,-56 151,-76 265,-76 265,-56 151,-56"/>
<text text-anchor="middle" x="208" y="-63" style="font-family:Arial;font-size:10.00;">boost/lexical_cast.hpp</text>
</g>
<!-- Node16&#45;&gt;Node17 -->
<g id="edge38" class="edge"><title>Node16&#45;&gt;Node17</title>
<path style="fill:none;stroke:midnightblue;" d="M292,-112C276,-103 253,-91 235,-81"/>
<polygon style="fill:midnightblue;stroke:midnightblue;" points="236.441,-77.7969 226,-76 233.042,-83.916 236.441,-77.7969"/>
</g>
<!-- Node18 -->
<g id="node40" class="node"><title>Node18</title>
<polygon style="fill:white;stroke:#bfbfbf;" points="283,-56 283,-76 337,-76 337,-56 283,-56"/>
<text text-anchor="middle" x="310" y="-63" style="font-family:Arial;font-size:10.00;">iostream</text>
</g>
<!-- Node16&#45;&gt;Node18 -->
<g id="edge44" class="edge"><title>Node16&#45;&gt;Node18</title>
<path style="fill:none;stroke:midnightblue;" d="M310,-112C310,-105 310,-95 310,-86"/>
<polygon style="fill:midnightblue;stroke:midnightblue;" points="313.5,-86 310,-76 306.5,-86 313.5,-86"/>
</g>
<!-- Node19 -->
<g id="node43" class="node"><title>Node19</title>
<a xlink:href="aliaser_8h.html" target="_top" xlink:title="ltr/interfaces/aliaser.h">
<polygon style="fill:white;stroke:black;" points="25,-56 25,-76 133,-76 133,-56 25,-56"/>
<text text-anchor="middle" x="79" y="-63" style="font-family:Arial;font-size:10.00;">ltr/interfaces/aliaser.h</text>
</a>
</g>
<!-- Node16&#45;&gt;Node19 -->
<g id="edge48" class="edge"><title>Node16&#45;&gt;Node19</title>
<path style="fill:none;stroke:midnightblue;" d="M269,-112C230,-103 172,-88 130,-78"/>
<polygon style="fill:midnightblue;stroke:midnightblue;" points="130.492,-74.5292 120,-76 129.119,-81.3933 130.492,-74.5292"/>
</g>
<!-- Node19&#45;&gt;Node3 -->
<g id="edge50" class="edge"><title>Node19&#45;&gt;Node3</title>
<path style="fill:none;stroke:midnightblue;" d="M72,-56C66,-48 58,-38 52,-29"/>
<polygon style="fill:midnightblue;stroke:midnightblue;" points="54.4592,-26.3791 46,-20 48.6349,-30.262 54.4592,-26.3791"/>
</g>
<!-- Node20&#45;&gt;Node3 -->
<g id="edge56" class="edge"><title>Node20&#45;&gt;Node3</title>
<path style="fill:none;stroke:midnightblue;" d="M472,-176C340,-169 65,-148 8,-76 -3,-61 9,-42 20,-28"/>
<polygon style="fill:midnightblue;stroke:midnightblue;" points="23.0489,-29.8306 27,-20 17.7809,-25.221 23.0489,-29.8306"/>
</g>
<!-- Node20&#45;&gt;Node4 -->
<g id="edge58" class="edge"><title>Node20&#45;&gt;Node4</title>
<path style="fill:none;stroke:midnightblue;" d="M543,-168C543,-161 543,-151 543,-142"/>
<polygon style="fill:midnightblue;stroke:midnightblue;" points="546.5,-142 543,-132 539.5,-142 546.5,-142"/>
</g>
<!-- Node20&#45;&gt;Node7 -->
<g id="edge54" class="edge"><title>Node20&#45;&gt;Node7</title>
<path style="fill:none;stroke:midnightblue;" d="M594,-168C679,-150 857,-115 1019,-75"/>
<polygon style="fill:midnightblue;stroke:midnightblue;" points="1019.88,-78.3933 1029,-73 1018.51,-71.5292 1019.88,-78.3933"/>
</g>
</g>
</svg>
