<?xml version="1.0" encoding="UTF-8" standalone="no"?>
<!DOCTYPE svg PUBLIC "-//W3C//DTD SVG 1.0//EN"
 "http://www.w3.org/TR/2001/REC-SVG-20010904/DTD/svg10.dtd" [
 <!ATTLIST svg xmlns:xlink CDATA #FIXED "http://www.w3.org/1999/xlink">
]>
<!-- Generated by Graphviz version 2.20.2 (Tue Mar &#160;2 19:03:41 UTC 2010)
     For user: (jenkins)  -->
<!-- Title: G Pages: 1 -->
<svg width="720pt" height="84pt"
 viewBox="0.00 0.00 720.00 84.00" xmlns="http://www.w3.org/2000/svg" xmlns:xlink="http://www.w3.org/1999/xlink">
<g id="graph0" class="graph" transform="scale(1 1) rotate(0) translate(4 80)">
<title>G</title>
<polygon style="fill:white;stroke:white;" points="-4,4 -4,-80 716,-80 716,4 -4,4"/>
<!-- Node1 -->
<g id="node1" class="node"><title>Node1</title>
<polygon style="fill:#bfbfbf;stroke:black;" points="284,-56 284,-76 423,-76 423,-56 284,-56"/>
<text text-anchor="middle" x="353" y="-63" style="font-family:Arial;font-size:10.00;">ltr/utility/neighbor_weighter.h</text>
</g>
<!-- Node2 -->
<g id="node3" class="node"><title>Node2</title>
<polygon style="fill:white;stroke:#bfbfbf;" points="0,-0 0,-20 40,-20 40,-0 0,-0"/>
<text text-anchor="middle" x="20" y="-7" style="font-family:Arial;font-size:10.00;">string</text>
</g>
<!-- Node1&#45;&gt;Node2 -->
<g id="edge2" class="edge"><title>Node1&#45;&gt;Node2</title>
<path style="fill:none;stroke:midnightblue;" d="M284,-59C224,-52 136,-40 50,-19"/>
<polygon style="fill:midnightblue;stroke:midnightblue;" points="50.4922,-15.5292 40,-17 49.1194,-22.3933 50.4922,-15.5292"/>
</g>
<!-- Node3 -->
<g id="node5" class="node"><title>Node3</title>
<polygon style="fill:white;stroke:#bfbfbf;" points="58,-0 58,-20 283,-20 283,-0 58,-0"/>
<text text-anchor="middle" x="170" y="-7" style="font-family:Arial;font-size:10.00;">ltr/parameters_container/parameters_container.h</text>
</g>
<!-- Node1&#45;&gt;Node3 -->
<g id="edge4" class="edge"><title>Node1&#45;&gt;Node3</title>
<path style="fill:none;stroke:midnightblue;" d="M320,-56C290,-47 245,-33 213,-23"/>
<polygon style="fill:midnightblue;stroke:midnightblue;" points="213.584,-19.5212 203,-20 211.573,-26.2259 213.584,-19.5212"/>
</g>
<!-- Node4 -->
<g id="node7" class="node"><title>Node4</title>
<polygon style="fill:white;stroke:#bfbfbf;" points="300,-0 300,-20 407,-20 407,-0 300,-0"/>
<text text-anchor="middle" x="353" y="-7" style="font-family:Arial;font-size:10.00;">ltr/utility/shared_ptr.h</text>
</g>
<!-- Node1&#45;&gt;Node4 -->
<g id="edge6" class="edge"><title>Node1&#45;&gt;Node4</title>
<path style="fill:none;stroke:midnightblue;" d="M353,-56C353,-49 353,-39 353,-30"/>
<polygon style="fill:midnightblue;stroke:midnightblue;" points="356.5,-30 353,-20 349.5,-30 356.5,-30"/>
</g>
<!-- Node5 -->
<g id="node9" class="node"><title>Node5</title>
<polygon style="fill:white;stroke:#bfbfbf;" points="424,-0 424,-20 553,-20 553,-0 424,-0"/>
<text text-anchor="middle" x="488" y="-7" style="font-family:Arial;font-size:10.00;">ltr/interfaces/serializable.h</text>
</g>
<!-- Node1&#45;&gt;Node5 -->
<g id="edge8" class="edge"><title>Node1&#45;&gt;Node5</title>
<path style="fill:none;stroke:midnightblue;" d="M377,-56C399,-47 430,-34 454,-24"/>
<polygon style="fill:midnightblue;stroke:midnightblue;" points="456.015,-26.9636 464,-20 453.415,-20.4643 456.015,-26.9636"/>
</g>
<!-- Node6 -->
<g id="node11" class="node"><title>Node6</title>
<polygon style="fill:white;stroke:#bfbfbf;" points="570,-0 570,-20 712,-20 712,-0 570,-0"/>
<text text-anchor="middle" x="641" y="-7" style="font-family:Arial;font-size:10.00;">ltr/interfaces/parameterized.h</text>
</g>
<!-- Node1&#45;&gt;Node6 -->
<g id="edge10" class="edge"><title>Node1&#45;&gt;Node6</title>
<path style="fill:none;stroke:midnightblue;" d="M404,-56C453,-47 527,-32 579,-22"/>
<polygon style="fill:midnightblue;stroke:midnightblue;" points="579.881,-25.3933 589,-20 578.508,-18.5292 579.881,-25.3933"/>
</g>
</g>
</svg>
