<?xml version="1.0" encoding="UTF-8" standalone="no"?>
<!DOCTYPE svg PUBLIC "-//W3C//DTD SVG 1.0//EN"
 "http://www.w3.org/TR/2001/REC-SVG-20010904/DTD/svg10.dtd" [
 <!ATTLIST svg xmlns:xlink CDATA #FIXED "http://www.w3.org/1999/xlink">
]>
<!-- Generated by Graphviz version 2.20.2 (Tue Mar &#160;2 19:03:41 UTC 2010)
     For user: (jenkins)  -->
<!-- Title: G Pages: 1 -->
<svg width="280pt" height="140pt"
 viewBox="0.00 0.00 280.00 140.00" xmlns="http://www.w3.org/2000/svg" xmlns:xlink="http://www.w3.org/1999/xlink">
<g id="graph0" class="graph" transform="scale(1 1) rotate(0) translate(4 136)">
<title>G</title>
<polygon style="fill:white;stroke:white;" points="-4,4 -4,-136 276,-136 276,4 -4,4"/>
<!-- Node1 -->
<g id="node1" class="node"><title>Node1</title>
<polygon style="fill:#bfbfbf;stroke:black;" points="21,-112 21,-132 252,-132 252,-112 21,-112"/>
<text text-anchor="middle" x="136" y="-119" style="font-family:Arial;font-size:10.00;">ltr/feature_converters/nominal_to_bool_converter.h</text>
</g>
<!-- Node2 -->
<g id="node3" class="node"><title>Node2</title>
<a xlink:href="nominal__to__bool__learner_8h.html" target="_top" xlink:title="ltr/feature_converters/nominal_to_bool_learner.h">
<polygon style="fill:white;stroke:black;" points="25,-56 25,-76 247,-76 247,-56 25,-56"/>
<text text-anchor="middle" x="136" y="-63" style="font-family:Arial;font-size:10.00;">ltr/feature_converters/nominal_to_bool_learner.h</text>
</a>
</g>
<!-- Node1&#45;&gt;Node2 -->
<g id="edge2" class="edge"><title>Node1&#45;&gt;Node2</title>
<path style="fill:none;stroke:midnightblue;" d="M136,-102C136,-93 136,-84 136,-76"/>
<polygon style="fill:midnightblue;stroke:midnightblue;" points="132.5,-102 136,-112 139.5,-102 132.5,-102"/>
</g>
<!-- Node3 -->
<g id="node5" class="node"><title>Node3</title>
<a xlink:href="feature__converters__learner__unittest_8cc.html" target="_top" xlink:title="ltr/feature_converters/feature_converters_learner_unittest.cc">
<polygon style="fill:white;stroke:black;" points="0,-0 0,-20 273,-20 273,-0 0,-0"/>
<text text-anchor="middle" x="136" y="-7" style="font-family:Arial;font-size:10.00;">ltr/feature_converters/feature_converters_learner_unittest.cc</text>
</a>
</g>
<!-- Node2&#45;&gt;Node3 -->
<g id="edge4" class="edge"><title>Node2&#45;&gt;Node3</title>
<path style="fill:none;stroke:midnightblue;" d="M136,-46C136,-37 136,-28 136,-20"/>
<polygon style="fill:midnightblue;stroke:midnightblue;" points="132.5,-46 136,-56 139.5,-46 132.5,-46"/>
</g>
</g>
</svg>
