<?xml version="1.0" encoding="UTF-8" standalone="no"?>
<!DOCTYPE svg PUBLIC "-//W3C//DTD SVG 1.0//EN"
 "http://www.w3.org/TR/2001/REC-SVG-20010904/DTD/svg10.dtd" [
 <!ATTLIST svg xmlns:xlink CDATA #FIXED "http://www.w3.org/1999/xlink">
]>
<!-- Generated by Graphviz version 2.20.2 (Tue Mar &#160;2 19:03:41 UTC 2010)
     For user: (jenkins)  -->
<!-- Title: G Pages: 1 -->
<svg width="1642pt" height="420pt"
 viewBox="0.00 0.00 1642.00 420.00" xmlns="http://www.w3.org/2000/svg" xmlns:xlink="http://www.w3.org/1999/xlink">
<g id="graph0" class="graph" transform="scale(1 1) rotate(0) translate(4 416)">
<title>G</title>
<polygon style="fill:white;stroke:white;" points="-4,4 -4,-416 1638,-416 1638,4 -4,4"/>
<!-- Node1 -->
<g id="node1" class="node"><title>Node1</title>
<polygon style="fill:#bfbfbf;stroke:black;" points="1172,-392 1172,-412 1403,-412 1403,-392 1172,-392"/>
<text text-anchor="middle" x="1287" y="-399" style="font-family:Arial;font-size:10.00;">ltr/feature_converters/nominal_to_bool_converter.h</text>
</g>
<!-- Node2 -->
<g id="node3" class="node"><title>Node2</title>
<polygon style="fill:white;stroke:#bfbfbf;" points="754,-0 754,-20 794,-20 794,-0 754,-0"/>
<text text-anchor="middle" x="774" y="-7" style="font-family:Arial;font-size:10.00;">string</text>
</g>
<!-- Node1&#45;&gt;Node2 -->
<g id="edge2" class="edge"><title>Node1&#45;&gt;Node2</title>
<path style="fill:none;stroke:midnightblue;" d="M1370,-392C1473,-377 1634,-345 1634,-290 1634,-290 1634,-290 1634,-122 1634,-88 1626,-73 1598,-56 1564,-34 949,-15 804,-11"/>
<polygon style="fill:midnightblue;stroke:midnightblue;" points="804,-7.5001 794,-11 804,-14.5001 804,-7.5001"/>
</g>
<!-- Node3 -->
<g id="node5" class="node"><title>Node3</title>
<a xlink:href="feature__converter_8h.html" target="_top" xlink:title="ltr/feature_converters/feature_converter.h">
<polygon style="fill:white;stroke:black;" points="779,-336 779,-356 969,-356 969,-336 779,-336"/>
<text text-anchor="middle" x="874" y="-343" style="font-family:Arial;font-size:10.00;">ltr/feature_converters/feature_converter.h</text>
</a>
</g>
<!-- Node1&#45;&gt;Node3 -->
<g id="edge4" class="edge"><title>Node1&#45;&gt;Node3</title>
<path style="fill:none;stroke:midnightblue;" d="M1213,-392C1141,-382 1032,-367 957,-357"/>
<polygon style="fill:midnightblue;stroke:midnightblue;" points="957.299,-353.512 947,-356 956.602,-360.478 957.299,-353.512"/>
</g>
<!-- Node3&#45;&gt;Node2 -->
<g id="edge8" class="edge"><title>Node3&#45;&gt;Node2</title>
<path style="fill:none;stroke:midnightblue;" d="M969,-341C1165,-329 1596,-297 1596,-234 1596,-234 1596,-234 1596,-122 1596,-91 1600,-75 1577,-56 1546,-32 948,-15 804,-10"/>
<polygon style="fill:midnightblue;stroke:midnightblue;" points="804,-6.5001 794,-10 804,-13.5001 804,-6.5001"/>
</g>
<!-- Node4 -->
<g id="node7" class="node"><title>Node4</title>
<polygon style="fill:white;stroke:#bfbfbf;" points="30,-56 30,-76 72,-76 72,-56 30,-56"/>
<text text-anchor="middle" x="51" y="-63" style="font-family:Arial;font-size:10.00;">vector</text>
</g>
<!-- Node3&#45;&gt;Node4 -->
<g id="edge6" class="edge"><title>Node3&#45;&gt;Node4</title>
<path style="fill:none;stroke:midnightblue;" d="M779,-344C592,-341 192,-330 138,-300 61,-257 53,-217 37,-132 35,-116 38,-99 43,-85"/>
<polygon style="fill:midnightblue;stroke:midnightblue;" points="46.158,-86.5937 46,-76 39.5173,-84.38 46.158,-86.5937"/>
</g>
<!-- Node5 -->
<g id="node10" class="node"><title>Node5</title>
<polygon style="fill:white;stroke:#bfbfbf;" points="447,-56 447,-76 506,-76 506,-56 447,-56"/>
<text text-anchor="middle" x="476" y="-63" style="font-family:Arial;font-size:10.00;">stdexcept</text>
</g>
<!-- Node3&#45;&gt;Node5 -->
<g id="edge10" class="edge"><title>Node3&#45;&gt;Node5</title>
<path style="fill:none;stroke:midnightblue;" d="M779,-345C623,-341 320,-331 219,-300 164,-282 108,-291 108,-234 108,-234 108,-234 108,-178 108,-147 103,-131 127,-112 133,-106 347,-81 437,-70"/>
<polygon style="fill:midnightblue;stroke:midnightblue;" points="437.398,-73.4778 447,-69 436.701,-66.5125 437.398,-73.4778"/>
</g>
<!-- Node6 -->
<g id="node12" class="node"><title>Node6</title>
<a xlink:href="data__set_8h.html" target="_top" xlink:title="ltr/data/data_set.h">
<polygon style="fill:white;stroke:black;" points="383,-280 383,-300 478,-300 478,-280 383,-280"/>
<text text-anchor="middle" x="430" y="-287" style="font-family:Arial;font-size:10.00;">ltr/data/data_set.h</text>
</a>
</g>
<!-- Node3&#45;&gt;Node6 -->
<g id="edge12" class="edge"><title>Node3&#45;&gt;Node6</title>
<path style="fill:none;stroke:midnightblue;" d="M795,-336C707,-325 567,-308 488,-297"/>
<polygon style="fill:midnightblue;stroke:midnightblue;" points="488.299,-293.512 478,-296 487.602,-300.478 488.299,-293.512"/>
</g>
<!-- Node8 -->
<g id="node19" class="node"><title>Node8</title>
<a xlink:href="object_8h.html" target="_top" xlink:title="ltr/data/object.h">
<polygon style="fill:white;stroke:black;" points="136,-112 136,-132 220,-132 220,-112 136,-112"/>
<text text-anchor="middle" x="178" y="-119" style="font-family:Arial;font-size:10.00;">ltr/data/object.h</text>
</a>
</g>
<!-- Node3&#45;&gt;Node8 -->
<g id="edge128" class="edge"><title>Node3&#45;&gt;Node8</title>
<path style="fill:none;stroke:midnightblue;" d="M779,-343C678,-338 513,-326 374,-300 286,-283 235,-314 181,-244 157,-214 165,-168 172,-142"/>
<polygon style="fill:midnightblue;stroke:midnightblue;" points="175.479,-142.584 175,-132 168.774,-140.573 175.479,-142.584"/>
</g>
<!-- Node12 -->
<g id="node32" class="node"><title>Node12</title>
<a xlink:href="shared__ptr_8h.html" target="_top" xlink:title="ltr/utility/shared_ptr.h">
<polygon style="fill:white;stroke:black;" points="602,-56 602,-76 709,-76 709,-56 602,-56"/>
<text text-anchor="middle" x="655" y="-63" style="font-family:Arial;font-size:10.00;">ltr/utility/shared_ptr.h</text>
</a>
</g>
<!-- Node3&#45;&gt;Node12 -->
<g id="edge150" class="edge"><title>Node3&#45;&gt;Node12</title>
<path style="fill:none;stroke:midnightblue;" d="M882,-336C903,-307 959,-223 921,-168 917,-162 765,-106 692,-80"/>
<polygon style="fill:midnightblue;stroke:midnightblue;" points="692.585,-76.4643 682,-76 689.985,-82.9636 692.585,-76.4643"/>
</g>
<!-- Node18 -->
<g id="node56" class="node"><title>Node18</title>
<a xlink:href="feature__info_8h.html" target="_top" xlink:title="ltr/data/feature_info.h">
<polygon style="fill:white;stroke:black;" points="660,-224 660,-244 767,-244 767,-224 660,-224"/>
<text text-anchor="middle" x="713" y="-231" style="font-family:Arial;font-size:10.00;">ltr/data/feature_info.h</text>
</a>
</g>
<!-- Node3&#45;&gt;Node18 -->
<g id="edge126" class="edge"><title>Node3&#45;&gt;Node18</title>
<path style="fill:none;stroke:midnightblue;" d="M859,-336C831,-316 770,-274 736,-250"/>
<polygon style="fill:midnightblue;stroke:midnightblue;" points="738.1,-247.2 728,-244 733.9,-252.8 738.1,-247.2"/>
</g>
<!-- Node19 -->
<g id="node61" class="node"><title>Node19</title>
<a xlink:href="parameterized_8h.html" target="_top" xlink:title="ltr/interfaces/parameterized.h">
<polygon style="fill:white;stroke:black;" points="770,-168 770,-188 912,-188 912,-168 770,-168"/>
<text text-anchor="middle" x="841" y="-175" style="font-family:Arial;font-size:10.00;">ltr/interfaces/parameterized.h</text>
</a>
</g>
<!-- Node3&#45;&gt;Node19 -->
<g id="edge132" class="edge"><title>Node3&#45;&gt;Node19</title>
<path style="fill:none;stroke:midnightblue;" d="M872,-336C867,-309 852,-234 845,-198"/>
<polygon style="fill:midnightblue;stroke:midnightblue;" points="848.393,-197.119 843,-188 841.529,-198.492 848.393,-197.119"/>
</g>
<!-- Node25 -->
<g id="node80" class="node"><title>Node25</title>
<a xlink:href="per__object__accessor_8h.html" target="_top" xlink:title="ltr/data/per_object_accessor.h">
<polygon style="fill:white;stroke:black;" points="496,-224 496,-244 643,-244 643,-224 496,-224"/>
<text text-anchor="middle" x="569" y="-231" style="font-family:Arial;font-size:10.00;">ltr/data/per_object_accessor.h</text>
</a>
</g>
<!-- Node3&#45;&gt;Node25 -->
<g id="edge130" class="edge"><title>Node3&#45;&gt;Node25</title>
<path style="fill:none;stroke:midnightblue;" d="M847,-336C792,-315 668,-270 606,-247"/>
<polygon style="fill:midnightblue;stroke:midnightblue;" points="607.594,-243.842 597,-244 605.38,-250.483 607.594,-243.842"/>
</g>
<!-- Node26 -->
<g id="node87" class="node"><title>Node26</title>
<a xlink:href="aliaser_8h.html" target="_top" xlink:title="ltr/interfaces/aliaser.h">
<polygon style="fill:white;stroke:black;" points="1218,-56 1218,-76 1326,-76 1326,-56 1218,-56"/>
<text text-anchor="middle" x="1272" y="-63" style="font-family:Arial;font-size:10.00;">ltr/interfaces/aliaser.h</text>
</a>
</g>
<!-- Node3&#45;&gt;Node26 -->
<g id="edge148" class="edge"><title>Node3&#45;&gt;Node26</title>
<path style="fill:none;stroke:midnightblue;" d="M935,-336C1024,-320 1177,-284 1177,-234 1177,-234 1177,-234 1177,-178 1177,-147 1179,-136 1199,-112 1209,-99 1224,-88 1238,-81"/>
<polygon style="fill:midnightblue;stroke:midnightblue;" points="1239.96,-83.916 1247,-76 1236.56,-77.7969 1239.96,-83.916"/>
</g>
<!-- Node27 -->
<g id="node94" class="node"><title>Node27</title>
<a xlink:href="serializable_8h.html" target="_top" xlink:title="ltr/interfaces/serializable.h">
<polygon style="fill:white;stroke:black;" points="1208,-112 1208,-132 1337,-132 1337,-112 1208,-112"/>
<text text-anchor="middle" x="1272" y="-119" style="font-family:Arial;font-size:10.00;">ltr/interfaces/serializable.h</text>
</a>
</g>
<!-- Node3&#45;&gt;Node27 -->
<g id="edge134" class="edge"><title>Node3&#45;&gt;Node27</title>
<path style="fill:none;stroke:midnightblue;" d="M969,-342C1050,-337 1157,-325 1191,-300 1243,-260 1262,-180 1269,-142"/>
<polygon style="fill:midnightblue;stroke:midnightblue;" points="1272.47,-142.492 1271,-132 1265.61,-141.119 1272.47,-142.492"/>
</g>
<!-- Node6&#45;&gt;Node2 -->
<g id="edge18" class="edge"><title>Node6&#45;&gt;Node2</title>
<path style="fill:none;stroke:midnightblue;" d="M383,-285C311,-278 179,-262 135,-244 45,-206 -46,-126 21,-56 74,-0 628,-33 744,-19"/>
<polygon style="fill:midnightblue;stroke:midnightblue;" points="744.398,-22.4778 754,-18 743.701,-15.5125 744.398,-22.4778"/>
</g>
<!-- Node6&#45;&gt;Node4 -->
<g id="edge20" class="edge"><title>Node6&#45;&gt;Node4</title>
<path style="fill:none;stroke:midnightblue;" d="M383,-284C321,-276 216,-260 181,-244 109,-210 77,-203 44,-132 38,-118 40,-100 44,-86"/>
<polygon style="fill:midnightblue;stroke:midnightblue;" points="47.4788,-86.584 47,-76 40.7741,-84.5725 47.4788,-86.584"/>
</g>
<!-- Node6&#45;&gt;Node5 -->
<g id="edge16" class="edge"><title>Node6&#45;&gt;Node5</title>
<path style="fill:none;stroke:midnightblue;" d="M431,-280C434,-259 440,-209 449,-168 455,-139 464,-106 470,-86"/>
<polygon style="fill:midnightblue;stroke:midnightblue;" points="473.479,-86.584 473,-76 466.774,-84.5725 473.479,-86.584"/>
</g>
<!-- Node7 -->
<g id="node14" class="node"><title>Node7</title>
<polygon style="fill:white;stroke:#bfbfbf;" points="190,-224 190,-244 241,-244 241,-224 190,-224"/>
<text text-anchor="middle" x="215" y="-231" style="font-family:Arial;font-size:10.00;">sstream</text>
</g>
<!-- Node6&#45;&gt;Node7 -->
<g id="edge14" class="edge"><title>Node6&#45;&gt;Node7</title>
<path style="fill:none;stroke:midnightblue;" d="M392,-280C352,-270 290,-254 251,-244"/>
<polygon style="fill:midnightblue;stroke:midnightblue;" points="251.584,-240.521 241,-241 249.573,-247.226 251.584,-240.521"/>
</g>
<!-- Node6&#45;&gt;Node8 -->
<g id="edge22" class="edge"><title>Node6&#45;&gt;Node8</title>
<path style="fill:none;stroke:midnightblue;" d="M409,-280C374,-263 303,-227 249,-188 229,-173 208,-153 194,-139"/>
<polygon style="fill:midnightblue;stroke:midnightblue;" points="196.546,-136.596 187,-132 191.596,-141.546 196.546,-136.596"/>
</g>
<!-- Node16 -->
<g id="node40" class="node"><title>Node16</title>
<a xlink:href="object__list_8h.html" target="_top" xlink:title="ltr/data/object_list.h">
<polygon style="fill:white;stroke:black;" points="300,-168 300,-188 402,-188 402,-168 300,-168"/>
<text text-anchor="middle" x="351" y="-175" style="font-family:Arial;font-size:10.00;">ltr/data/object_list.h</text>
</a>
</g>
<!-- Node6&#45;&gt;Node16 -->
<g id="edge48" class="edge"><title>Node6&#45;&gt;Node16</title>
<path style="fill:none;stroke:midnightblue;" d="M423,-280C410,-260 381,-221 364,-196"/>
<polygon style="fill:midnightblue;stroke:midnightblue;" points="366.8,-193.9 358,-188 361.2,-198.1 366.8,-193.9"/>
</g>
<!-- Node17 -->
<g id="node48" class="node"><title>Node17</title>
<a xlink:href="object__pair_8h.html" target="_top" xlink:title="ltr/data/object_pair.h">
<polygon style="fill:white;stroke:black;" points="458,-168 458,-188 562,-188 562,-168 458,-168"/>
<text text-anchor="middle" x="510" y="-175" style="font-family:Arial;font-size:10.00;">ltr/data/object_pair.h</text>
</a>
</g>
<!-- Node6&#45;&gt;Node17 -->
<g id="edge62" class="edge"><title>Node6&#45;&gt;Node17</title>
<path style="fill:none;stroke:midnightblue;" d="M437,-280C450,-260 479,-221 497,-196"/>
<polygon style="fill:midnightblue;stroke:midnightblue;" points="499.8,-198.1 503,-188 494.2,-193.9 499.8,-198.1"/>
</g>
<!-- Node6&#45;&gt;Node18 -->
<g id="edge76" class="edge"><title>Node6&#45;&gt;Node18</title>
<path style="fill:none;stroke:midnightblue;" d="M478,-281C527,-272 601,-257 653,-246"/>
<polygon style="fill:midnightblue;stroke:midnightblue;" points="653.881,-249.393 663,-244 652.508,-242.529 653.881,-249.393"/>
</g>
<!-- Node6&#45;&gt;Node25 -->
<g id="edge110" class="edge"><title>Node6&#45;&gt;Node25</title>
<path style="fill:none;stroke:midnightblue;" d="M455,-280C477,-271 510,-258 535,-248"/>
<polygon style="fill:midnightblue;stroke:midnightblue;" points="536.283,-251.26 544,-244 533.44,-244.863 536.283,-251.26"/>
</g>
<!-- Node6&#45;&gt;Node26 -->
<g id="edge122" class="edge"><title>Node6&#45;&gt;Node26</title>
<path style="fill:none;stroke:midnightblue;" d="M478,-286C545,-281 670,-268 775,-244 921,-208 953,-183 1095,-132 1143,-114 1199,-93 1235,-80"/>
<polygon style="fill:midnightblue;stroke:midnightblue;" points="1237.02,-82.9636 1245,-76 1234.42,-76.4643 1237.02,-82.9636"/>
</g>
<!-- Node8&#45;&gt;Node2 -->
<g id="edge30" class="edge"><title>Node8&#45;&gt;Node2</title>
<path style="fill:none;stroke:midnightblue;" d="M178,-112C178,-97 180,-69 197,-56 242,-19 650,-31 744,-20"/>
<polygon style="fill:midnightblue;stroke:midnightblue;" points="744.881,-23.3933 754,-18 743.508,-16.5292 744.881,-23.3933"/>
</g>
<!-- Node8&#45;&gt;Node4 -->
<g id="edge32" class="edge"><title>Node8&#45;&gt;Node4</title>
<path style="fill:none;stroke:midnightblue;" d="M155,-112C135,-103 104,-90 81,-79"/>
<polygon style="fill:midnightblue;stroke:midnightblue;" points="82.5596,-75.8631 72,-75 79.7166,-82.2598 82.5596,-75.8631"/>
</g>
<!-- Node8&#45;&gt;Node5 -->
<g id="edge28" class="edge"><title>Node8&#45;&gt;Node5</title>
<path style="fill:none;stroke:midnightblue;" d="M220,-114C277,-104 381,-84 437,-74"/>
<polygon style="fill:midnightblue;stroke:midnightblue;" points="437.881,-77.3933 447,-72 436.508,-70.5292 437.881,-77.3933"/>
</g>
<!-- Node9 -->
<g id="node21" class="node"><title>Node9</title>
<polygon style="fill:white;stroke:#bfbfbf;" points="206,-56 206,-76 241,-76 241,-56 206,-56"/>
<text text-anchor="middle" x="223" y="-63" style="font-family:Arial;font-size:10.00;">map</text>
</g>
<!-- Node8&#45;&gt;Node9 -->
<g id="edge24" class="edge"><title>Node8&#45;&gt;Node9</title>
<path style="fill:none;stroke:midnightblue;" d="M186,-112C192,-104 201,-94 209,-84"/>
<polygon style="fill:midnightblue;stroke:midnightblue;" points="211.8,-86.1 215,-76 206.2,-81.9 211.8,-86.1"/>
</g>
<!-- Node10 -->
<g id="node23" class="node"><title>Node10</title>
<polygon style="fill:white;stroke:#bfbfbf;" points="197,-0 197,-20 248,-20 248,-0 197,-0"/>
<text text-anchor="middle" x="222" y="-7" style="font-family:Arial;font-size:10.00;">ostream</text>
</g>
<!-- Node8&#45;&gt;Node10 -->
<g id="edge26" class="edge"><title>Node8&#45;&gt;Node10</title>
<path style="fill:none;stroke:midnightblue;" d="M172,-112C165,-98 154,-74 164,-56 170,-43 182,-33 192,-26"/>
<polygon style="fill:midnightblue;stroke:midnightblue;" points="194.621,-28.4592 201,-20 190.738,-22.6349 194.621,-28.4592"/>
</g>
<!-- Node11 -->
<g id="node28" class="node"><title>Node11</title>
<a xlink:href="printable_8h.html" target="_top" xlink:title="ltr/interfaces/printable.h">
<polygon style="fill:white;stroke:black;" points="258,-56 258,-76 375,-76 375,-56 258,-56"/>
<text text-anchor="middle" x="316" y="-63" style="font-family:Arial;font-size:10.00;">ltr/interfaces/printable.h</text>
</a>
</g>
<!-- Node8&#45;&gt;Node11 -->
<g id="edge34" class="edge"><title>Node8&#45;&gt;Node11</title>
<path style="fill:none;stroke:midnightblue;" d="M203,-112C225,-103 257,-90 282,-80"/>
<polygon style="fill:midnightblue;stroke:midnightblue;" points="283.283,-83.2598 291,-76 280.44,-76.8631 283.283,-83.2598"/>
</g>
<!-- Node8&#45;&gt;Node12 -->
<g id="edge40" class="edge"><title>Node8&#45;&gt;Node12</title>
<path style="fill:none;stroke:midnightblue;" d="M220,-117C304,-107 493,-85 592,-73"/>
<polygon style="fill:midnightblue;stroke:midnightblue;" points="592.398,-76.4778 602,-72 591.701,-69.5125 592.398,-76.4778"/>
</g>
<!-- Node11&#45;&gt;Node2 -->
<g id="edge38" class="edge"><title>Node11&#45;&gt;Node2</title>
<path style="fill:none;stroke:midnightblue;" d="M375,-57C379,-57 384,-56 388,-56 543,-37 587,-53 744,-20"/>
<polygon style="fill:midnightblue;stroke:midnightblue;" points="744.881,-23.3933 754,-18 743.508,-16.5292 744.881,-23.3933"/>
</g>
<!-- Node11&#45;&gt;Node10 -->
<g id="edge36" class="edge"><title>Node11&#45;&gt;Node10</title>
<path style="fill:none;stroke:midnightblue;" d="M299,-56C285,-48 264,-35 248,-25"/>
<polygon style="fill:midnightblue;stroke:midnightblue;" points="249.441,-21.7969 239,-20 246.042,-27.916 249.441,-21.7969"/>
</g>
<!-- Node13 -->
<g id="node34" class="node"><title>Node13</title>
<polygon style="fill:white;stroke:#bfbfbf;" points="556,-0 556,-20 612,-20 612,-0 556,-0"/>
<text text-anchor="middle" x="584" y="-7" style="font-family:Arial;font-size:10.00;">algorithm</text>
</g>
<!-- Node12&#45;&gt;Node13 -->
<g id="edge42" class="edge"><title>Node12&#45;&gt;Node13</title>
<path style="fill:none;stroke:midnightblue;" d="M642,-56C632,-48 617,-36 605,-27"/>
<polygon style="fill:midnightblue;stroke:midnightblue;" points="606.831,-23.9511 597,-20 602.221,-29.2191 606.831,-23.9511"/>
</g>
<!-- Node14 -->
<g id="node36" class="node"><title>Node14</title>
<polygon style="fill:white;stroke:#bfbfbf;" points="630,-0 630,-20 737,-20 737,-0 630,-0"/>
<text text-anchor="middle" x="683" y="-7" style="font-family:Arial;font-size:10.00;">boost/shared_ptr.hpp</text>
</g>
<!-- Node12&#45;&gt;Node14 -->
<g id="edge44" class="edge"><title>Node12&#45;&gt;Node14</title>
<path style="fill:none;stroke:midnightblue;" d="M660,-56C664,-49 669,-38 674,-29"/>
<polygon style="fill:midnightblue;stroke:midnightblue;" points="677.137,-30.5596 678,-20 670.74,-27.7166 677.137,-30.5596"/>
</g>
<!-- Node15 -->
<g id="node38" class="node"><title>Node15</title>
<polygon style="fill:white;stroke:#bfbfbf;" points="348,-0 348,-20 539,-20 539,-0 348,-0"/>
<text text-anchor="middle" x="443" y="-7" style="font-family:Arial;font-size:10.00;">boost/smart_ptr/detail/operator_bool.hpp</text>
</g>
<!-- Node12&#45;&gt;Node15 -->
<g id="edge46" class="edge"><title>Node12&#45;&gt;Node15</title>
<path style="fill:none;stroke:midnightblue;" d="M617,-56C582,-47 529,-33 491,-23"/>
<polygon style="fill:midnightblue;stroke:midnightblue;" points="491.584,-19.5212 481,-20 489.573,-26.2259 491.584,-19.5212"/>
</g>
<!-- Node16&#45;&gt;Node2 -->
<g id="edge52" class="edge"><title>Node16&#45;&gt;Node2</title>
<path style="fill:none;stroke:midnightblue;" d="M355,-168C364,-144 392,-82 438,-56 553,11 608,-47 744,-19"/>
<polygon style="fill:midnightblue;stroke:midnightblue;" points="744.881,-22.3933 754,-17 743.508,-15.5292 744.881,-22.3933"/>
</g>
<!-- Node16&#45;&gt;Node4 -->
<g id="edge54" class="edge"><title>Node16&#45;&gt;Node4</title>
<path style="fill:none;stroke:midnightblue;" d="M300,-173C220,-166 72,-149 56,-132 46,-120 45,-101 47,-86"/>
<polygon style="fill:midnightblue;stroke:midnightblue;" points="50.4875,-86.2987 48,-76 43.5222,-85.6021 50.4875,-86.2987"/>
</g>
<!-- Node16&#45;&gt;Node5 -->
<g id="edge50" class="edge"><title>Node16&#45;&gt;Node5</title>
<path style="fill:none;stroke:midnightblue;" d="M363,-168C384,-148 431,-107 456,-83"/>
<polygon style="fill:midnightblue;stroke:midnightblue;" points="458.779,-85.2191 464,-76 454.169,-79.9511 458.779,-85.2191"/>
</g>
<!-- Node16&#45;&gt;Node8 -->
<g id="edge56" class="edge"><title>Node16&#45;&gt;Node8</title>
<path style="fill:none;stroke:midnightblue;" d="M320,-168C291,-159 249,-145 219,-135"/>
<polygon style="fill:midnightblue;stroke:midnightblue;" points="219.584,-131.521 209,-132 217.573,-138.226 219.584,-131.521"/>
</g>
<!-- Node16&#45;&gt;Node11 -->
<g id="edge58" class="edge"><title>Node16&#45;&gt;Node11</title>
<path style="fill:none;stroke:midnightblue;" d="M319,-168C301,-161 282,-149 272,-132 262,-114 278,-96 293,-82"/>
<polygon style="fill:midnightblue;stroke:midnightblue;" points="295.1,-84.8 301,-76 290.9,-79.2 295.1,-84.8"/>
</g>
<!-- Node16&#45;&gt;Node12 -->
<g id="edge60" class="edge"><title>Node16&#45;&gt;Node12</title>
<path style="fill:none;stroke:midnightblue;" d="M378,-168C433,-147 555,-102 617,-80"/>
<polygon style="fill:midnightblue;stroke:midnightblue;" points="619.015,-82.9636 627,-76 616.415,-76.4643 619.015,-82.9636"/>
</g>
<!-- Node17&#45;&gt;Node2 -->
<g id="edge66" class="edge"><title>Node17&#45;&gt;Node2</title>
<path style="fill:none;stroke:midnightblue;" d="M514,-168C523,-144 550,-85 593,-56 647,-18 675,-37 744,-20"/>
<polygon style="fill:midnightblue;stroke:midnightblue;" points="745.427,-23.2259 754,-17 743.416,-16.5212 745.427,-23.2259"/>
</g>
<!-- Node17&#45;&gt;Node4 -->
<g id="edge68" class="edge"><title>Node17&#45;&gt;Node4</title>
<path style="fill:none;stroke:midnightblue;" d="M458,-172C357,-162 141,-138 127,-132 103,-121 80,-99 66,-84"/>
<polygon style="fill:midnightblue;stroke:midnightblue;" points="68.2191,-81.221 59,-76 62.9511,-85.8306 68.2191,-81.221"/>
</g>
<!-- Node17&#45;&gt;Node5 -->
<g id="edge64" class="edge"><title>Node17&#45;&gt;Node5</title>
<path style="fill:none;stroke:midnightblue;" d="M507,-168C503,-155 495,-131 490,-112 487,-103 485,-94 482,-86"/>
<polygon style="fill:midnightblue;stroke:midnightblue;" points="485.226,-84.5725 479,-76 478.521,-86.584 485.226,-84.5725"/>
</g>
<!-- Node17&#45;&gt;Node8 -->
<g id="edge70" class="edge"><title>Node17&#45;&gt;Node8</title>
<path style="fill:none;stroke:midnightblue;" d="M458,-169C395,-159 293,-141 230,-131"/>
<polygon style="fill:midnightblue;stroke:midnightblue;" points="230.492,-127.529 220,-129 229.119,-134.393 230.492,-127.529"/>
</g>
<!-- Node17&#45;&gt;Node11 -->
<g id="edge72" class="edge"><title>Node17&#45;&gt;Node11</title>
<path style="fill:none;stroke:midnightblue;" d="M492,-168C459,-148 383,-104 343,-81"/>
<polygon style="fill:midnightblue;stroke:midnightblue;" points="344.441,-77.7969 334,-76 341.042,-83.916 344.441,-77.7969"/>
</g>
<!-- Node17&#45;&gt;Node12 -->
<g id="edge74" class="edge"><title>Node17&#45;&gt;Node12</title>
<path style="fill:none;stroke:midnightblue;" d="M538,-168C558,-160 584,-148 604,-132 619,-118 634,-99 644,-85"/>
<polygon style="fill:midnightblue;stroke:midnightblue;" points="647.203,-86.4414 649,-76 641.084,-83.0418 647.203,-86.4414"/>
</g>
<!-- Node18&#45;&gt;Node2 -->
<g id="edge80" class="edge"><title>Node18&#45;&gt;Node2</title>
<path style="fill:none;stroke:midnightblue;" d="M716,-224C725,-189 756,-76 768,-30"/>
<polygon style="fill:midnightblue;stroke:midnightblue;" points="771.479,-30.584 771,-20 764.774,-28.5725 771.479,-30.584"/>
</g>
<!-- Node18&#45;&gt;Node4 -->
<g id="edge82" class="edge"><title>Node18&#45;&gt;Node4</title>
<path style="fill:none;stroke:midnightblue;" d="M687,-224C664,-215 631,-202 604,-188 588,-180 586,-174 571,-168 548,-158 191,-92 82,-72"/>
<polygon style="fill:midnightblue;stroke:midnightblue;" points="82.4922,-68.5292 72,-70 81.1194,-75.3933 82.4922,-68.5292"/>
</g>
<!-- Node18&#45;&gt;Node9 -->
<g id="edge78" class="edge"><title>Node18&#45;&gt;Node9</title>
<path style="fill:none;stroke:midnightblue;" d="M699,-224C679,-210 640,-183 604,-168 456,-105 406,-124 251,-76"/>
<polygon style="fill:midnightblue;stroke:midnightblue;" points="251.584,-72.5212 241,-73 249.573,-79.2259 251.584,-72.5212"/>
</g>
<!-- Node18&#45;&gt;Node12 -->
<g id="edge108" class="edge"><title>Node18&#45;&gt;Node12</title>
<path style="fill:none;stroke:midnightblue;" d="M711,-224C707,-203 695,-152 680,-112 676,-103 671,-93 666,-85"/>
<polygon style="fill:midnightblue;stroke:midnightblue;" points="668.916,-83.0418 661,-76 662.797,-86.4414 668.916,-83.0418"/>
</g>
<!-- Node18&#45;&gt;Node19 -->
<g id="edge84" class="edge"><title>Node18&#45;&gt;Node19</title>
<path style="fill:none;stroke:midnightblue;" d="M736,-224C756,-215 786,-202 809,-192"/>
<polygon style="fill:midnightblue;stroke:midnightblue;" points="810.283,-195.26 818,-188 807.44,-188.863 810.283,-195.26"/>
</g>
<!-- Node19&#45;&gt;Node2 -->
<g id="edge88" class="edge"><title>Node19&#45;&gt;Node2</title>
<path style="fill:none;stroke:midnightblue;" d="M912,-169C978,-159 1068,-144 1079,-132 1100,-105 1101,-81 1079,-56 1061,-35 878,-19 804,-13"/>
<polygon style="fill:midnightblue;stroke:midnightblue;" points="804.299,-9.5125 794,-12 803.602,-16.4778 804.299,-9.5125"/>
</g>
<!-- Node19&#45;&gt;Node5 -->
<g id="edge86" class="edge"><title>Node19&#45;&gt;Node5</title>
<path style="fill:none;stroke:midnightblue;" d="M808,-168C741,-147 589,-100 516,-78"/>
<polygon style="fill:midnightblue;stroke:midnightblue;" points="516.584,-74.5212 506,-75 514.573,-81.2259 516.584,-74.5212"/>
</g>
<!-- Node20 -->
<g id="node65" class="node"><title>Node20</title>
<a xlink:href="parameters__container_8h.html" target="_top" xlink:title="ltr/parameters_container/parameters_container.h">
<polygon style="fill:white;stroke:black;" points="846,-112 846,-132 1071,-132 1071,-112 846,-112"/>
<text text-anchor="middle" x="958" y="-119" style="font-family:Arial;font-size:10.00;">ltr/parameters_container/parameters_container.h</text>
</a>
</g>
<!-- Node19&#45;&gt;Node20 -->
<g id="edge90" class="edge"><title>Node19&#45;&gt;Node20</title>
<path style="fill:none;stroke:midnightblue;" d="M862,-168C880,-159 907,-146 928,-136"/>
<polygon style="fill:midnightblue;stroke:midnightblue;" points="929.283,-139.26 937,-132 926.44,-132.863 929.283,-139.26"/>
</g>
<!-- Node20&#45;&gt;Node2 -->
<g id="edge98" class="edge"><title>Node20&#45;&gt;Node2</title>
<path style="fill:none;stroke:midnightblue;" d="M901,-112C860,-104 808,-91 793,-76 781,-64 776,-45 775,-30"/>
<polygon style="fill:midnightblue;stroke:midnightblue;" points="778.478,-29.6021 774,-20 771.512,-30.2987 778.478,-29.6021"/>
</g>
<!-- Node20&#45;&gt;Node5 -->
<g id="edge96" class="edge"><title>Node20&#45;&gt;Node5</title>
<path style="fill:none;stroke:midnightblue;" d="M872,-112C767,-100 594,-80 516,-71"/>
<polygon style="fill:midnightblue;stroke:midnightblue;" points="516.299,-67.5125 506,-70 515.602,-74.4778 516.299,-67.5125"/>
</g>
<!-- Node20&#45;&gt;Node11 -->
<g id="edge106" class="edge"><title>Node20&#45;&gt;Node11</title>
<path style="fill:none;stroke:midnightblue;" d="M846,-112C713,-100 496,-81 385,-72"/>
<polygon style="fill:midnightblue;stroke:midnightblue;" points="385.299,-68.5125 375,-71 384.602,-75.4778 385.299,-68.5125"/>
</g>
<!-- Node20&#45;&gt;Node12 -->
<g id="edge104" class="edge"><title>Node20&#45;&gt;Node12</title>
<path style="fill:none;stroke:midnightblue;" d="M904,-112C852,-103 774,-88 719,-78"/>
<polygon style="fill:midnightblue;stroke:midnightblue;" points="719.492,-74.5292 709,-76 718.119,-81.3933 719.492,-74.5292"/>
</g>
<!-- Node21 -->
<g id="node67" class="node"><title>Node21</title>
<polygon style="fill:white;stroke:#bfbfbf;" points="1126,-56 1126,-76 1200,-76 1200,-56 1126,-56"/>
<text text-anchor="middle" x="1163" y="-63" style="font-family:Arial;font-size:10.00;">logog/logog.h</text>
</g>
<!-- Node20&#45;&gt;Node21 -->
<g id="edge92" class="edge"><title>Node20&#45;&gt;Node21</title>
<path style="fill:none;stroke:midnightblue;" d="M995,-112C1029,-103 1079,-89 1116,-79"/>
<polygon style="fill:midnightblue;stroke:midnightblue;" points="1117.43,-82.2259 1126,-76 1115.42,-75.5212 1117.43,-82.2259"/>
</g>
<!-- Node22 -->
<g id="node69" class="node"><title>Node22</title>
<polygon style="fill:white;stroke:#bfbfbf;" points="802,-56 802,-76 831,-76 831,-56 802,-56"/>
<text text-anchor="middle" x="816" y="-63" style="font-family:Arial;font-size:10.00;">list</text>
</g>
<!-- Node20&#45;&gt;Node22 -->
<g id="edge94" class="edge"><title>Node20&#45;&gt;Node22</title>
<path style="fill:none;stroke:midnightblue;" d="M931,-112C909,-104 876,-91 841,-76"/>
<polygon style="fill:midnightblue;stroke:midnightblue;" points="841.585,-72.4643 831,-72 838.985,-78.9636 841.585,-72.4643"/>
</g>
<!-- Node23 -->
<g id="node73" class="node"><title>Node23</title>
<polygon style="fill:white;stroke:#bfbfbf;" points="848,-56 848,-76 925,-76 925,-56 848,-56"/>
<text text-anchor="middle" x="886" y="-63" style="font-family:Arial;font-size:10.00;">boost/any.hpp</text>
</g>
<!-- Node20&#45;&gt;Node23 -->
<g id="edge100" class="edge"><title>Node20&#45;&gt;Node23</title>
<path style="fill:none;stroke:midnightblue;" d="M945,-112C934,-104 919,-92 907,-83"/>
<polygon style="fill:midnightblue;stroke:midnightblue;" points="908.831,-79.9511 899,-76 904.221,-85.2191 908.831,-79.9511"/>
</g>
<!-- Node24 -->
<g id="node75" class="node"><title>Node24</title>
<polygon style="fill:white;stroke:#bfbfbf;" points="942,-56 942,-76 1071,-76 1071,-56 942,-56"/>
<text text-anchor="middle" x="1006" y="-63" style="font-family:Arial;font-size:10.00;">boost/unordered_map.hpp</text>
</g>
<!-- Node20&#45;&gt;Node24 -->
<g id="edge102" class="edge"><title>Node20&#45;&gt;Node24</title>
<path style="fill:none;stroke:midnightblue;" d="M967,-112C973,-104 983,-93 991,-84"/>
<polygon style="fill:midnightblue;stroke:midnightblue;" points="993.8,-86.1 997,-76 988.2,-81.9 993.8,-86.1"/>
</g>
<!-- Node25&#45;&gt;Node8 -->
<g id="edge112" class="edge"><title>Node25&#45;&gt;Node8</title>
<path style="fill:none;stroke:midnightblue;" d="M496,-229C438,-224 358,-212 291,-188 273,-182 230,-155 203,-138"/>
<polygon style="fill:midnightblue;stroke:midnightblue;" points="204.262,-134.635 194,-132 200.379,-140.459 204.262,-134.635"/>
</g>
<!-- Node25&#45;&gt;Node12 -->
<g id="edge120" class="edge"><title>Node25&#45;&gt;Node12</title>
<path style="fill:none;stroke:midnightblue;" d="M575,-224C585,-205 606,-165 624,-132 631,-117 640,-99 646,-85"/>
<polygon style="fill:midnightblue;stroke:midnightblue;" points="649.137,-86.5596 650,-76 642.74,-83.7166 649.137,-86.5596"/>
</g>
<!-- Node25&#45;&gt;Node16 -->
<g id="edge116" class="edge"><title>Node25&#45;&gt;Node16</title>
<path style="fill:none;stroke:midnightblue;" d="M530,-224C493,-215 439,-201 400,-191"/>
<polygon style="fill:midnightblue;stroke:midnightblue;" points="400.584,-187.521 390,-188 398.573,-194.226 400.584,-187.521"/>
</g>
<!-- Node25&#45;&gt;Node17 -->
<g id="edge114" class="edge"><title>Node25&#45;&gt;Node17</title>
<path style="fill:none;stroke:midnightblue;" d="M558,-224C549,-216 538,-205 528,-195"/>
<polygon style="fill:midnightblue;stroke:midnightblue;" points="530.546,-192.596 521,-188 525.596,-197.546 530.546,-192.596"/>
</g>
<!-- Node25&#45;&gt;Node19 -->
<g id="edge118" class="edge"><title>Node25&#45;&gt;Node19</title>
<path style="fill:none;stroke:midnightblue;" d="M618,-224C664,-215 733,-200 782,-190"/>
<polygon style="fill:midnightblue;stroke:midnightblue;" points="782.881,-193.393 792,-188 781.508,-186.529 782.881,-193.393"/>
</g>
<!-- Node26&#45;&gt;Node2 -->
<g id="edge124" class="edge"><title>Node26&#45;&gt;Node2</title>
<path style="fill:none;stroke:midnightblue;" d="M1218,-57C1215,-57 1212,-56 1209,-56 1058,-36 876,-19 804,-13"/>
<polygon style="fill:midnightblue;stroke:midnightblue;" points="804.299,-9.5125 794,-12 803.602,-16.4778 804.299,-9.5125"/>
</g>
<!-- Node27&#45;&gt;Node2 -->
<g id="edge140" class="edge"><title>Node27&#45;&gt;Node2</title>
<path style="fill:none;stroke:midnightblue;" d="M1293,-112C1318,-99 1353,-76 1335,-56 1298,-16 916,-11 804,-10"/>
<polygon style="fill:midnightblue;stroke:midnightblue;" points="804,-6.5001 794,-10 804,-13.5001 804,-6.5001"/>
</g>
<!-- Node27&#45;&gt;Node12 -->
<g id="edge144" class="edge"><title>Node27&#45;&gt;Node12</title>
<path style="fill:none;stroke:midnightblue;" d="M1208,-116C1089,-105 838,-82 719,-72"/>
<polygon style="fill:midnightblue;stroke:midnightblue;" points="719.299,-68.5125 709,-71 718.602,-75.4778 719.299,-68.5125"/>
</g>
<!-- Node27&#45;&gt;Node21 -->
<g id="edge138" class="edge"><title>Node27&#45;&gt;Node21</title>
<path style="fill:none;stroke:midnightblue;" d="M1253,-112C1236,-103 1211,-90 1192,-81"/>
<polygon style="fill:midnightblue;stroke:midnightblue;" points="1193.44,-77.7969 1183,-76 1190.04,-83.916 1193.44,-77.7969"/>
</g>
<!-- Node27&#45;&gt;Node26 -->
<g id="edge146" class="edge"><title>Node27&#45;&gt;Node26</title>
<path style="fill:none;stroke:midnightblue;" d="M1272,-112C1272,-105 1272,-95 1272,-86"/>
<polygon style="fill:midnightblue;stroke:midnightblue;" points="1275.5,-86 1272,-76 1268.5,-86 1275.5,-86"/>
</g>
<!-- Node28 -->
<g id="node96" class="node"><title>Node28</title>
<polygon style="fill:white;stroke:#bfbfbf;" points="1382,-56 1382,-76 1496,-76 1496,-56 1382,-56"/>
<text text-anchor="middle" x="1439" y="-63" style="font-family:Arial;font-size:10.00;">boost/lexical_cast.hpp</text>
</g>
<!-- Node27&#45;&gt;Node28 -->
<g id="edge136" class="edge"><title>Node27&#45;&gt;Node28</title>
<path style="fill:none;stroke:midnightblue;" d="M1302,-112C1329,-103 1370,-89 1399,-79"/>
<polygon style="fill:midnightblue;stroke:midnightblue;" points="1400.43,-82.2259 1409,-76 1398.42,-75.5212 1400.43,-82.2259"/>
</g>
<!-- Node29 -->
<g id="node100" class="node"><title>Node29</title>
<polygon style="fill:white;stroke:#bfbfbf;" points="1514,-56 1514,-76 1568,-76 1568,-56 1514,-56"/>
<text text-anchor="middle" x="1541" y="-63" style="font-family:Arial;font-size:10.00;">iostream</text>
</g>
<!-- Node27&#45;&gt;Node29 -->
<g id="edge142" class="edge"><title>Node27&#45;&gt;Node29</title>
<path style="fill:none;stroke:midnightblue;" d="M1329,-112C1374,-103 1438,-91 1504,-76"/>
<polygon style="fill:midnightblue;stroke:midnightblue;" points="1504.88,-79.3933 1514,-74 1503.51,-72.5292 1504.88,-79.3933"/>
</g>
</g>
</svg>
