<?xml version="1.0" encoding="UTF-8" standalone="no"?>
<!DOCTYPE svg PUBLIC "-//W3C//DTD SVG 1.0//EN"
 "http://www.w3.org/TR/2001/REC-SVG-20010904/DTD/svg10.dtd" [
 <!ATTLIST svg xmlns:xlink CDATA #FIXED "http://www.w3.org/1999/xlink">
]>
<!-- Generated by Graphviz version 2.20.2 (Tue Mar &#160;2 19:03:41 UTC 2010)
     For user: (jenkins)  -->
<!-- Title: G Pages: 1 -->
<svg width="765pt" height="140pt"
 viewBox="0.00 0.00 765.00 140.00" xmlns="http://www.w3.org/2000/svg" xmlns:xlink="http://www.w3.org/1999/xlink">
<g id="graph0" class="graph" transform="scale(1 1) rotate(0) translate(4 136)">
<title>G</title>
<polygon style="fill:white;stroke:white;" points="-4,4 -4,-136 761,-136 761,4 -4,4"/>
<!-- Node1 -->
<g id="node1" class="node"><title>Node1</title>
<polygon style="fill:#bfbfbf;stroke:black;" points="269,-112 269,-132 500,-132 500,-112 269,-112"/>
<text text-anchor="middle" x="384" y="-119" style="font-family:Arial;font-size:10.00;">ltr/feature_converters/nominal_to_bool_converter.h</text>
</g>
<!-- Node2 -->
<g id="node3" class="node"><title>Node2</title>
<a xlink:href="nominal__to__bool__learner_8h.html" target="_top" xlink:title="ltr/feature_converters/nominal_to_bool_learner.h">
<polygon style="fill:white;stroke:black;" points="25,-56 25,-76 247,-76 247,-56 25,-56"/>
<text text-anchor="middle" x="136" y="-63" style="font-family:Arial;font-size:10.00;">ltr/feature_converters/nominal_to_bool_learner.h</text>
</a>
</g>
<!-- Node1&#45;&gt;Node2 -->
<g id="edge2" class="edge"><title>Node1&#45;&gt;Node2</title>
<path style="fill:none;stroke:midnightblue;" d="M330,-110C285,-100 222,-85 180,-76"/>
<polygon style="fill:midnightblue;stroke:midnightblue;" points="329.508,-113.471 340,-112 330.881,-106.607 329.508,-113.471"/>
</g>
<!-- Node4 -->
<g id="node7" class="node"><title>Node4</title>
<a xlink:href="feature__converters__unittest_8cc.html" target="_top" xlink:title="ltr/feature_converters/feature_converters_unittest.cc">
<polygon style="fill:white;stroke:black;" points="265,-56 265,-76 504,-76 504,-56 265,-56"/>
<text text-anchor="middle" x="384" y="-63" style="font-family:Arial;font-size:10.00;">ltr/feature_converters/feature_converters_unittest.cc</text>
</a>
</g>
<!-- Node1&#45;&gt;Node4 -->
<g id="edge6" class="edge"><title>Node1&#45;&gt;Node4</title>
<path style="fill:none;stroke:midnightblue;" d="M384,-102C384,-93 384,-84 384,-76"/>
<polygon style="fill:midnightblue;stroke:midnightblue;" points="380.5,-102 384,-112 387.5,-102 380.5,-102"/>
</g>
<!-- Node5 -->
<g id="node9" class="node"><title>Node5</title>
<a xlink:href="nominal__to__bool__converter_8cc.html" target="_top" xlink:title="ltr/feature_converters/nominal_to_bool_converter.cc">
<polygon style="fill:white;stroke:black;" points="521,-56 521,-76 758,-76 758,-56 521,-56"/>
<text text-anchor="middle" x="639" y="-63" style="font-family:Arial;font-size:10.00;">ltr/feature_converters/nominal_to_bool_converter.cc</text>
</a>
</g>
<!-- Node1&#45;&gt;Node5 -->
<g id="edge8" class="edge"><title>Node1&#45;&gt;Node5</title>
<path style="fill:none;stroke:midnightblue;" d="M440,-110C486,-100 550,-85 593,-76"/>
<polygon style="fill:midnightblue;stroke:midnightblue;" points="439.119,-106.607 430,-112 440.492,-113.471 439.119,-106.607"/>
</g>
<!-- Node3 -->
<g id="node5" class="node"><title>Node3</title>
<a xlink:href="feature__converters__learner__unittest_8cc.html" target="_top" xlink:title="ltr/feature_converters/feature_converters_learner_unittest.cc">
<polygon style="fill:white;stroke:black;" points="0,-0 0,-20 273,-20 273,-0 0,-0"/>
<text text-anchor="middle" x="136" y="-7" style="font-family:Arial;font-size:10.00;">ltr/feature_converters/feature_converters_learner_unittest.cc</text>
</a>
</g>
<!-- Node2&#45;&gt;Node3 -->
<g id="edge4" class="edge"><title>Node2&#45;&gt;Node3</title>
<path style="fill:none;stroke:midnightblue;" d="M136,-46C136,-37 136,-28 136,-20"/>
<polygon style="fill:midnightblue;stroke:midnightblue;" points="132.5,-46 136,-56 139.5,-46 132.5,-46"/>
</g>
</g>
</svg>
