<?xml version="1.0" encoding="UTF-8" standalone="no"?>
<!DOCTYPE svg PUBLIC "-//W3C//DTD SVG 1.0//EN"
 "http://www.w3.org/TR/2001/REC-SVG-20010904/DTD/svg10.dtd" [
 <!ATTLIST svg xmlns:xlink CDATA #FIXED "http://www.w3.org/1999/xlink">
]>
<!-- Generated by Graphviz version 2.20.2 (Tue Mar &#160;2 19:03:41 UTC 2010)
     For user: (jenkins)  -->
<!-- Title: G Pages: 1 -->
<svg width="1638pt" height="476pt"
 viewBox="0.00 0.00 1638.00 476.00" xmlns="http://www.w3.org/2000/svg" xmlns:xlink="http://www.w3.org/1999/xlink">
<g id="graph0" class="graph" transform="scale(1 1) rotate(0) translate(4 472)">
<title>G</title>
<polygon style="fill:white;stroke:white;" points="-4,4 -4,-472 1634,-472 1634,4 -4,4"/>
<!-- Node1 -->
<g id="node1" class="node"><title>Node1</title>
<polygon style="fill:#bfbfbf;stroke:black;" points="673,-448 673,-468 895,-468 895,-448 673,-448"/>
<text text-anchor="middle" x="784" y="-455" style="font-family:Arial;font-size:10.00;">ltr/feature_converters/nominal_to_bool_learner.h</text>
</g>
<!-- Node2 -->
<g id="node3" class="node"><title>Node2</title>
<polygon style="fill:white;stroke:#bfbfbf;" points="863,-0 863,-20 903,-20 903,-0 863,-0"/>
<text text-anchor="middle" x="883" y="-7" style="font-family:Arial;font-size:10.00;">string</text>
</g>
<!-- Node1&#45;&gt;Node2 -->
<g id="edge2" class="edge"><title>Node1&#45;&gt;Node2</title>
<path style="fill:none;stroke:midnightblue;" d="M673,-453C457,-443 0,-412 0,-346 0,-346 0,-346 0,-122 0,-71 46,-72 93,-56 166,-30 717,-14 853,-10"/>
<polygon style="fill:midnightblue;stroke:midnightblue;" points="853,-13.5001 863,-10 853,-6.5001 853,-13.5001"/>
</g>
<!-- Node3 -->
<g id="node5" class="node"><title>Node3</title>
<a xlink:href="nominal__to__bool__converter_8h.html" target="_top" xlink:title="ltr/feature_converters/nominal_to_bool_converter.h">
<polygon style="fill:white;stroke:black;" points="1048,-392 1048,-412 1279,-412 1279,-392 1048,-392"/>
<text text-anchor="middle" x="1163" y="-399" style="font-family:Arial;font-size:10.00;">ltr/feature_converters/nominal_to_bool_converter.h</text>
</a>
</g>
<!-- Node1&#45;&gt;Node3 -->
<g id="edge4" class="edge"><title>Node1&#45;&gt;Node3</title>
<path style="fill:none;stroke:midnightblue;" d="M852,-448C918,-438 1017,-423 1086,-413"/>
<polygon style="fill:midnightblue;stroke:midnightblue;" points="1086.4,-416.478 1096,-412 1085.7,-409.512 1086.4,-416.478"/>
</g>
<!-- Node31 -->
<g id="node109" class="node"><title>Node31</title>
<a xlink:href="feature__converter__learner_8h.html" target="_top" xlink:title="ltr/feature_converters/feature_converter_learner.h">
<polygon style="fill:white;stroke:black;" points="672,-392 672,-412 897,-412 897,-392 672,-392"/>
<text text-anchor="middle" x="784" y="-399" style="font-family:Arial;font-size:10.00;">ltr/feature_converters/feature_converter_learner.h</text>
</a>
</g>
<!-- Node1&#45;&gt;Node31 -->
<g id="edge156" class="edge"><title>Node1&#45;&gt;Node31</title>
<path style="fill:none;stroke:midnightblue;" d="M784,-448C784,-441 784,-431 784,-422"/>
<polygon style="fill:midnightblue;stroke:midnightblue;" points="787.5,-422 784,-412 780.5,-422 787.5,-422"/>
</g>
<!-- Node3&#45;&gt;Node2 -->
<g id="edge6" class="edge"><title>Node3&#45;&gt;Node2</title>
<path style="fill:none;stroke:midnightblue;" d="M1279,-397C1417,-388 1630,-362 1630,-290 1630,-290 1630,-290 1630,-122 1630,-88 1622,-73 1594,-56 1579,-46 1047,-19 913,-12"/>
<polygon style="fill:midnightblue;stroke:midnightblue;" points="913.299,-8.5125 903,-11 912.602,-15.4778 913.299,-8.5125"/>
</g>
<!-- Node4 -->
<g id="node8" class="node"><title>Node4</title>
<a xlink:href="feature__converter_8h.html" target="_top" xlink:title="ltr/feature_converters/feature_converter.h">
<polygon style="fill:white;stroke:black;" points="1068,-336 1068,-356 1258,-356 1258,-336 1068,-336"/>
<text text-anchor="middle" x="1163" y="-343" style="font-family:Arial;font-size:10.00;">ltr/feature_converters/feature_converter.h</text>
</a>
</g>
<!-- Node3&#45;&gt;Node4 -->
<g id="edge8" class="edge"><title>Node3&#45;&gt;Node4</title>
<path style="fill:none;stroke:midnightblue;" d="M1163,-392C1163,-385 1163,-375 1163,-366"/>
<polygon style="fill:midnightblue;stroke:midnightblue;" points="1166.5,-366 1163,-356 1159.5,-366 1166.5,-366"/>
</g>
<!-- Node4&#45;&gt;Node2 -->
<g id="edge12" class="edge"><title>Node4&#45;&gt;Node2</title>
<path style="fill:none;stroke:midnightblue;" d="M1258,-340C1385,-330 1592,-302 1592,-234 1592,-234 1592,-234 1592,-122 1592,-91 1596,-75 1573,-56 1560,-44 1045,-18 913,-12"/>
<polygon style="fill:midnightblue;stroke:midnightblue;" points="913.299,-8.5125 903,-11 912.602,-15.4778 913.299,-8.5125"/>
</g>
<!-- Node5 -->
<g id="node10" class="node"><title>Node5</title>
<polygon style="fill:white;stroke:#bfbfbf;" points="590,-56 590,-76 632,-76 632,-56 590,-56"/>
<text text-anchor="middle" x="611" y="-63" style="font-family:Arial;font-size:10.00;">vector</text>
</g>
<!-- Node4&#45;&gt;Node5 -->
<g id="edge10" class="edge"><title>Node4&#45;&gt;Node5</title>
<path style="fill:none;stroke:midnightblue;" d="M1068,-339C886,-325 508,-289 508,-234 508,-234 508,-234 508,-178 508,-134 552,-100 582,-81"/>
<polygon style="fill:midnightblue;stroke:midnightblue;" points="583.958,-83.916 591,-76 580.559,-77.7969 583.958,-83.916"/>
</g>
<!-- Node6 -->
<g id="node13" class="node"><title>Node6</title>
<polygon style="fill:white;stroke:#bfbfbf;" points="669,-56 669,-76 728,-76 728,-56 669,-56"/>
<text text-anchor="middle" x="698" y="-63" style="font-family:Arial;font-size:10.00;">stdexcept</text>
</g>
<!-- Node4&#45;&gt;Node6 -->
<g id="edge14" class="edge"><title>Node4&#45;&gt;Node6</title>
<path style="fill:none;stroke:midnightblue;" d="M1164,-336C1165,-305 1166,-215 1119,-168 1104,-154 840,-96 738,-74"/>
<polygon style="fill:midnightblue;stroke:midnightblue;" points="738.492,-70.5292 728,-72 737.119,-77.3933 738.492,-70.5292"/>
</g>
<!-- Node7 -->
<g id="node15" class="node"><title>Node7</title>
<a xlink:href="data__set_8h.html" target="_top" xlink:title="ltr/data/data_set.h">
<polygon style="fill:white;stroke:black;" points="737,-280 737,-300 832,-300 832,-280 737,-280"/>
<text text-anchor="middle" x="784" y="-287" style="font-family:Arial;font-size:10.00;">ltr/data/data_set.h</text>
</a>
</g>
<!-- Node4&#45;&gt;Node7 -->
<g id="edge16" class="edge"><title>Node4&#45;&gt;Node7</title>
<path style="fill:none;stroke:midnightblue;" d="M1095,-336C1023,-326 911,-309 842,-299"/>
<polygon style="fill:midnightblue;stroke:midnightblue;" points="842.492,-295.529 832,-297 841.119,-302.393 842.492,-295.529"/>
</g>
<!-- Node9 -->
<g id="node22" class="node"><title>Node9</title>
<a xlink:href="object_8h.html" target="_top" xlink:title="ltr/data/object.h">
<polygon style="fill:white;stroke:black;" points="764,-112 764,-132 848,-132 848,-112 764,-112"/>
<text text-anchor="middle" x="806" y="-119" style="font-family:Arial;font-size:10.00;">ltr/data/object.h</text>
</a>
</g>
<!-- Node4&#45;&gt;Node9 -->
<g id="edge132" class="edge"><title>Node4&#45;&gt;Node9</title>
<path style="fill:none;stroke:midnightblue;" d="M1153,-336C1131,-313 1074,-259 1020,-224 961,-186 886,-153 843,-136"/>
<polygon style="fill:midnightblue;stroke:midnightblue;" points="843.585,-132.464 833,-132 840.985,-138.964 843.585,-132.464"/>
</g>
<!-- Node13 -->
<g id="node35" class="node"><title>Node13</title>
<a xlink:href="shared__ptr_8h.html" target="_top" xlink:title="ltr/utility/shared_ptr.h">
<polygon style="fill:white;stroke:black;" points="1283,-56 1283,-76 1390,-76 1390,-56 1283,-56"/>
<text text-anchor="middle" x="1336" y="-63" style="font-family:Arial;font-size:10.00;">ltr/utility/shared_ptr.h</text>
</a>
</g>
<!-- Node4&#45;&gt;Node13 -->
<g id="edge154" class="edge"><title>Node4&#45;&gt;Node13</title>
<path style="fill:none;stroke:midnightblue;" d="M1203,-336C1271,-318 1402,-277 1402,-234 1402,-234 1402,-234 1402,-178 1402,-140 1374,-104 1354,-83"/>
<polygon style="fill:midnightblue;stroke:midnightblue;" points="1356.55,-80.5962 1347,-76 1351.6,-85.546 1356.55,-80.5962"/>
</g>
<!-- Node19 -->
<g id="node59" class="node"><title>Node19</title>
<a xlink:href="feature__info_8h.html" target="_top" xlink:title="ltr/data/feature_info.h">
<polygon style="fill:white;stroke:black;" points="1192,-224 1192,-244 1299,-244 1299,-224 1192,-224"/>
<text text-anchor="middle" x="1245" y="-231" style="font-family:Arial;font-size:10.00;">ltr/data/feature_info.h</text>
</a>
</g>
<!-- Node4&#45;&gt;Node19 -->
<g id="edge130" class="edge"><title>Node4&#45;&gt;Node19</title>
<path style="fill:none;stroke:midnightblue;" d="M1171,-336C1184,-316 1214,-277 1231,-252"/>
<polygon style="fill:midnightblue;stroke:midnightblue;" points="1233.8,-254.1 1237,-244 1228.2,-249.9 1233.8,-254.1"/>
</g>
<!-- Node20 -->
<g id="node64" class="node"><title>Node20</title>
<a xlink:href="parameterized_8h.html" target="_top" xlink:title="ltr/interfaces/parameterized.h">
<polygon style="fill:white;stroke:black;" points="968,-168 968,-188 1110,-188 1110,-168 968,-168"/>
<text text-anchor="middle" x="1039" y="-175" style="font-family:Arial;font-size:10.00;">ltr/interfaces/parameterized.h</text>
</a>
</g>
<!-- Node4&#45;&gt;Node20 -->
<g id="edge136" class="edge"><title>Node4&#45;&gt;Node20</title>
<path style="fill:none;stroke:midnightblue;" d="M1158,-336C1148,-314 1122,-261 1091,-224 1082,-213 1070,-203 1061,-194"/>
<polygon style="fill:midnightblue;stroke:midnightblue;" points="1063.1,-191.2 1053,-188 1058.9,-196.8 1063.1,-191.2"/>
</g>
<!-- Node26 -->
<g id="node83" class="node"><title>Node26</title>
<a xlink:href="per__object__accessor_8h.html" target="_top" xlink:title="ltr/data/per_object_accessor.h">
<polygon style="fill:white;stroke:black;" points="865,-224 865,-244 1012,-244 1012,-224 865,-224"/>
<text text-anchor="middle" x="938" y="-231" style="font-family:Arial;font-size:10.00;">ltr/data/per_object_accessor.h</text>
</a>
</g>
<!-- Node4&#45;&gt;Node26 -->
<g id="edge134" class="edge"><title>Node4&#45;&gt;Node26</title>
<path style="fill:none;stroke:midnightblue;" d="M1140,-336C1120,-327 1089,-313 1063,-300 1028,-283 990,-262 965,-249"/>
<polygon style="fill:midnightblue;stroke:midnightblue;" points="966.441,-245.797 956,-244 963.042,-251.916 966.441,-245.797"/>
</g>
<!-- Node27 -->
<g id="node90" class="node"><title>Node27</title>
<a xlink:href="aliaser_8h.html" target="_top" xlink:title="ltr/interfaces/aliaser.h">
<polygon style="fill:white;stroke:black;" points="1456,-56 1456,-76 1564,-76 1564,-56 1456,-56"/>
<text text-anchor="middle" x="1510" y="-63" style="font-family:Arial;font-size:10.00;">ltr/interfaces/aliaser.h</text>
</a>
</g>
<!-- Node4&#45;&gt;Node27 -->
<g id="edge152" class="edge"><title>Node4&#45;&gt;Node27</title>
<path style="fill:none;stroke:midnightblue;" d="M1258,-338C1374,-325 1554,-295 1554,-234 1554,-234 1554,-234 1554,-178 1554,-143 1536,-106 1523,-84"/>
<polygon style="fill:midnightblue;stroke:midnightblue;" points="1525.8,-81.9 1517,-76 1520.2,-86.1 1525.8,-81.9"/>
</g>
<!-- Node28 -->
<g id="node97" class="node"><title>Node28</title>
<a xlink:href="serializable_8h.html" target="_top" xlink:title="ltr/interfaces/serializable.h">
<polygon style="fill:white;stroke:black;" points="1056,-112 1056,-132 1185,-132 1185,-112 1056,-112"/>
<text text-anchor="middle" x="1120" y="-119" style="font-family:Arial;font-size:10.00;">ltr/interfaces/serializable.h</text>
</a>
</g>
<!-- Node4&#45;&gt;Node28 -->
<g id="edge138" class="edge"><title>Node4&#45;&gt;Node28</title>
<path style="fill:none;stroke:midnightblue;" d="M1195,-336C1245,-318 1331,-279 1307,-224 1286,-175 1228,-148 1182,-135"/>
<polygon style="fill:midnightblue;stroke:midnightblue;" points="1182.58,-131.521 1172,-132 1180.57,-138.226 1182.58,-131.521"/>
</g>
<!-- Node7&#45;&gt;Node2 -->
<g id="edge22" class="edge"><title>Node7&#45;&gt;Node2</title>
<path style="fill:none;stroke:midnightblue;" d="M737,-289C556,-284 -75,-254 111,-56 137,-28 712,-14 853,-10"/>
<polygon style="fill:midnightblue;stroke:midnightblue;" points="853,-13.5001 863,-10 853,-6.5001 853,-13.5001"/>
</g>
<!-- Node7&#45;&gt;Node5 -->
<g id="edge24" class="edge"><title>Node7&#45;&gt;Node5</title>
<path style="fill:none;stroke:midnightblue;" d="M737,-284C704,-279 661,-267 630,-244 605,-226 600,-216 592,-188 581,-152 593,-110 602,-85"/>
<polygon style="fill:midnightblue;stroke:midnightblue;" points="605.137,-86.5596 606,-76 598.74,-83.7166 605.137,-86.5596"/>
</g>
<!-- Node7&#45;&gt;Node6 -->
<g id="edge20" class="edge"><title>Node7&#45;&gt;Node6</title>
<path style="fill:none;stroke:midnightblue;" d="M743,-280C700,-267 633,-239 603,-188 578,-147 634,-104 670,-81"/>
<polygon style="fill:midnightblue;stroke:midnightblue;" points="671.958,-83.916 679,-76 668.559,-77.7969 671.958,-83.916"/>
</g>
<!-- Node8 -->
<g id="node17" class="node"><title>Node8</title>
<polygon style="fill:white;stroke:#bfbfbf;" points="759,-224 759,-244 810,-244 810,-224 759,-224"/>
<text text-anchor="middle" x="784" y="-231" style="font-family:Arial;font-size:10.00;">sstream</text>
</g>
<!-- Node7&#45;&gt;Node8 -->
<g id="edge18" class="edge"><title>Node7&#45;&gt;Node8</title>
<path style="fill:none;stroke:midnightblue;" d="M784,-280C784,-273 784,-263 784,-254"/>
<polygon style="fill:midnightblue;stroke:midnightblue;" points="787.5,-254 784,-244 780.5,-254 787.5,-254"/>
</g>
<!-- Node7&#45;&gt;Node9 -->
<g id="edge26" class="edge"><title>Node7&#45;&gt;Node9</title>
<path style="fill:none;stroke:midnightblue;" d="M793,-280C808,-263 836,-225 845,-188 846,-179 848,-176 845,-168 841,-157 833,-147 826,-139"/>
<polygon style="fill:midnightblue;stroke:midnightblue;" points="828.546,-136.596 819,-132 823.596,-141.546 828.546,-136.596"/>
</g>
<!-- Node17 -->
<g id="node43" class="node"><title>Node17</title>
<a xlink:href="object__list_8h.html" target="_top" xlink:title="ltr/data/object_list.h">
<polygon style="fill:white;stroke:black;" points="734,-168 734,-188 836,-188 836,-168 734,-168"/>
<text text-anchor="middle" x="785" y="-175" style="font-family:Arial;font-size:10.00;">ltr/data/object_list.h</text>
</a>
</g>
<!-- Node7&#45;&gt;Node17 -->
<g id="edge52" class="edge"><title>Node7&#45;&gt;Node17</title>
<path style="fill:none;stroke:midnightblue;" d="M773,-280C760,-267 743,-245 750,-224 754,-214 760,-204 767,-195"/>
<polygon style="fill:midnightblue;stroke:midnightblue;" points="769.404,-197.546 774,-188 764.454,-192.596 769.404,-197.546"/>
</g>
<!-- Node18 -->
<g id="node51" class="node"><title>Node18</title>
<a xlink:href="object__pair_8h.html" target="_top" xlink:title="ltr/data/object_pair.h">
<polygon style="fill:white;stroke:black;" points="612,-168 612,-188 716,-188 716,-168 612,-168"/>
<text text-anchor="middle" x="664" y="-175" style="font-family:Arial;font-size:10.00;">ltr/data/object_pair.h</text>
</a>
</g>
<!-- Node7&#45;&gt;Node18 -->
<g id="edge66" class="edge"><title>Node7&#45;&gt;Node18</title>
<path style="fill:none;stroke:midnightblue;" d="M773,-280C752,-260 708,-219 683,-195"/>
<polygon style="fill:midnightblue;stroke:midnightblue;" points="684.831,-191.951 675,-188 680.221,-197.219 684.831,-191.951"/>
</g>
<!-- Node7&#45;&gt;Node19 -->
<g id="edge80" class="edge"><title>Node7&#45;&gt;Node19</title>
<path style="fill:none;stroke:midnightblue;" d="M832,-284C916,-274 1088,-254 1182,-241"/>
<polygon style="fill:midnightblue;stroke:midnightblue;" points="1182.4,-244.478 1192,-240 1181.7,-237.512 1182.4,-244.478"/>
</g>
<!-- Node7&#45;&gt;Node26 -->
<g id="edge114" class="edge"><title>Node7&#45;&gt;Node26</title>
<path style="fill:none;stroke:midnightblue;" d="M812,-280C837,-271 874,-257 901,-247"/>
<polygon style="fill:midnightblue;stroke:midnightblue;" points="902.427,-250.226 911,-244 900.416,-243.521 902.427,-250.226"/>
</g>
<!-- Node7&#45;&gt;Node27 -->
<g id="edge126" class="edge"><title>Node7&#45;&gt;Node27</title>
<path style="fill:none;stroke:midnightblue;" d="M832,-289C945,-288 1222,-280 1307,-244 1391,-207 1466,-122 1496,-84"/>
<polygon style="fill:midnightblue;stroke:midnightblue;" points="1498.8,-86.1 1502,-76 1493.2,-81.9 1498.8,-86.1"/>
</g>
<!-- Node9&#45;&gt;Node2 -->
<g id="edge34" class="edge"><title>Node9&#45;&gt;Node2</title>
<path style="fill:none;stroke:midnightblue;" d="M804,-112C802,-98 801,-73 812,-56 821,-39 838,-28 854,-21"/>
<polygon style="fill:midnightblue;stroke:midnightblue;" points="855.283,-24.2598 863,-17 852.44,-17.8631 855.283,-24.2598"/>
</g>
<!-- Node9&#45;&gt;Node5 -->
<g id="edge36" class="edge"><title>Node9&#45;&gt;Node5</title>
<path style="fill:none;stroke:midnightblue;" d="M771,-112C735,-101 677,-85 642,-75"/>
<polygon style="fill:midnightblue;stroke:midnightblue;" points="642.584,-71.5212 632,-72 640.573,-78.2259 642.584,-71.5212"/>
</g>
<!-- Node9&#45;&gt;Node6 -->
<g id="edge32" class="edge"><title>Node9&#45;&gt;Node6</title>
<path style="fill:none;stroke:midnightblue;" d="M787,-112C771,-103 746,-90 727,-81"/>
<polygon style="fill:midnightblue;stroke:midnightblue;" points="728.441,-77.7969 718,-76 725.042,-83.916 728.441,-77.7969"/>
</g>
<!-- Node10 -->
<g id="node24" class="node"><title>Node10</title>
<polygon style="fill:white;stroke:#bfbfbf;" points="821,-56 821,-76 856,-76 856,-56 821,-56"/>
<text text-anchor="middle" x="838" y="-63" style="font-family:Arial;font-size:10.00;">map</text>
</g>
<!-- Node9&#45;&gt;Node10 -->
<g id="edge28" class="edge"><title>Node9&#45;&gt;Node10</title>
<path style="fill:none;stroke:midnightblue;" d="M812,-112C817,-105 822,-94 827,-85"/>
<polygon style="fill:midnightblue;stroke:midnightblue;" points="830.203,-86.4414 832,-76 824.084,-83.0418 830.203,-86.4414"/>
</g>
<!-- Node11 -->
<g id="node26" class="node"><title>Node11</title>
<polygon style="fill:white;stroke:#bfbfbf;" points="447,-0 447,-20 498,-20 498,-0 447,-0"/>
<text text-anchor="middle" x="472" y="-7" style="font-family:Arial;font-size:10.00;">ostream</text>
</g>
<!-- Node9&#45;&gt;Node11 -->
<g id="edge30" class="edge"><title>Node9&#45;&gt;Node11</title>
<path style="fill:none;stroke:midnightblue;" d="M798,-112C786,-97 763,-69 736,-56 696,-36 571,-21 508,-14"/>
<polygon style="fill:midnightblue;stroke:midnightblue;" points="508.299,-10.5125 498,-13 507.602,-17.4778 508.299,-10.5125"/>
</g>
<!-- Node12 -->
<g id="node31" class="node"><title>Node12</title>
<a xlink:href="printable_8h.html" target="_top" xlink:title="ltr/interfaces/printable.h">
<polygon style="fill:white;stroke:black;" points="132,-56 132,-76 249,-76 249,-56 132,-56"/>
<text text-anchor="middle" x="190" y="-63" style="font-family:Arial;font-size:10.00;">ltr/interfaces/printable.h</text>
</a>
</g>
<!-- Node9&#45;&gt;Node12 -->
<g id="edge38" class="edge"><title>Node9&#45;&gt;Node12</title>
<path style="fill:none;stroke:midnightblue;" d="M764,-119C674,-113 453,-99 259,-76"/>
<polygon style="fill:midnightblue;stroke:midnightblue;" points="259.299,-72.5125 249,-75 258.602,-79.4778 259.299,-72.5125"/>
</g>
<!-- Node9&#45;&gt;Node13 -->
<g id="edge44" class="edge"><title>Node9&#45;&gt;Node13</title>
<path style="fill:none;stroke:midnightblue;" d="M848,-118C940,-107 1163,-84 1273,-73"/>
<polygon style="fill:midnightblue;stroke:midnightblue;" points="1273.4,-76.4778 1283,-72 1272.7,-69.5125 1273.4,-76.4778"/>
</g>
<!-- Node12&#45;&gt;Node2 -->
<g id="edge42" class="edge"><title>Node12&#45;&gt;Node2</title>
<path style="fill:none;stroke:midnightblue;" d="M249,-57C252,-57 255,-56 257,-56 486,-30 762,-16 853,-12"/>
<polygon style="fill:midnightblue;stroke:midnightblue;" points="853.398,-15.4778 863,-11 852.701,-8.5125 853.398,-15.4778"/>
</g>
<!-- Node12&#45;&gt;Node11 -->
<g id="edge40" class="edge"><title>Node12&#45;&gt;Node11</title>
<path style="fill:none;stroke:midnightblue;" d="M240,-56C297,-45 388,-27 437,-17"/>
<polygon style="fill:midnightblue;stroke:midnightblue;" points="437.881,-20.3933 447,-15 436.508,-13.5292 437.881,-20.3933"/>
</g>
<!-- Node14 -->
<g id="node37" class="node"><title>Node14</title>
<polygon style="fill:white;stroke:#bfbfbf;" points="1449,-0 1449,-20 1505,-20 1505,-0 1449,-0"/>
<text text-anchor="middle" x="1477" y="-7" style="font-family:Arial;font-size:10.00;">algorithm</text>
</g>
<!-- Node13&#45;&gt;Node14 -->
<g id="edge46" class="edge"><title>Node13&#45;&gt;Node14</title>
<path style="fill:none;stroke:midnightblue;" d="M1361,-56C1384,-47 1417,-34 1442,-24"/>
<polygon style="fill:midnightblue;stroke:midnightblue;" points="1444.02,-26.9636 1452,-20 1441.42,-20.4643 1444.02,-26.9636"/>
</g>
<!-- Node15 -->
<g id="node39" class="node"><title>Node15</title>
<polygon style="fill:white;stroke:#bfbfbf;" points="1117,-0 1117,-20 1224,-20 1224,-0 1117,-0"/>
<text text-anchor="middle" x="1170" y="-7" style="font-family:Arial;font-size:10.00;">boost/shared_ptr.hpp</text>
</g>
<!-- Node13&#45;&gt;Node15 -->
<g id="edge48" class="edge"><title>Node13&#45;&gt;Node15</title>
<path style="fill:none;stroke:midnightblue;" d="M1306,-56C1279,-47 1239,-33 1210,-23"/>
<polygon style="fill:midnightblue;stroke:midnightblue;" points="1210.58,-19.5212 1200,-20 1208.57,-26.2259 1210.58,-19.5212"/>
</g>
<!-- Node16 -->
<g id="node41" class="node"><title>Node16</title>
<polygon style="fill:white;stroke:#bfbfbf;" points="1241,-0 1241,-20 1432,-20 1432,-0 1241,-0"/>
<text text-anchor="middle" x="1336" y="-7" style="font-family:Arial;font-size:10.00;">boost/smart_ptr/detail/operator_bool.hpp</text>
</g>
<!-- Node13&#45;&gt;Node16 -->
<g id="edge50" class="edge"><title>Node13&#45;&gt;Node16</title>
<path style="fill:none;stroke:midnightblue;" d="M1336,-56C1336,-49 1336,-39 1336,-30"/>
<polygon style="fill:midnightblue;stroke:midnightblue;" points="1339.5,-30 1336,-20 1332.5,-30 1339.5,-30"/>
</g>
<!-- Node17&#45;&gt;Node2 -->
<g id="edge56" class="edge"><title>Node17&#45;&gt;Node2</title>
<path style="fill:none;stroke:midnightblue;" d="M810,-168C826,-160 845,-148 857,-132 878,-101 882,-56 883,-30"/>
<polygon style="fill:midnightblue;stroke:midnightblue;" points="886.5,-30 883,-20 879.5,-30 886.5,-30"/>
</g>
<!-- Node17&#45;&gt;Node5 -->
<g id="edge58" class="edge"><title>Node17&#45;&gt;Node5</title>
<path style="fill:none;stroke:midnightblue;" d="M769,-168C739,-148 672,-104 635,-81"/>
<polygon style="fill:midnightblue;stroke:midnightblue;" points="637.335,-78.332 627,-76 633.625,-84.268 637.335,-78.332"/>
</g>
<!-- Node17&#45;&gt;Node6 -->
<g id="edge54" class="edge"><title>Node17&#45;&gt;Node6</title>
<path style="fill:none;stroke:midnightblue;" d="M777,-168C762,-148 730,-108 712,-84"/>
<polygon style="fill:midnightblue;stroke:midnightblue;" points="714.8,-81.9 706,-76 709.2,-86.1 714.8,-81.9"/>
</g>
<!-- Node17&#45;&gt;Node9 -->
<g id="edge60" class="edge"><title>Node17&#45;&gt;Node9</title>
<path style="fill:none;stroke:midnightblue;" d="M789,-168C792,-161 795,-151 799,-141"/>
<polygon style="fill:midnightblue;stroke:midnightblue;" points="802.158,-142.594 802,-132 795.517,-140.38 802.158,-142.594"/>
</g>
<!-- Node17&#45;&gt;Node12 -->
<g id="edge62" class="edge"><title>Node17&#45;&gt;Node12</title>
<path style="fill:none;stroke:midnightblue;" d="M734,-169C731,-169 728,-168 725,-168 667,-161 254,-168 209,-132 196,-121 192,-101 190,-86"/>
<polygon style="fill:midnightblue;stroke:midnightblue;" points="193.5,-86 190,-76 186.5,-86 193.5,-86"/>
</g>
<!-- Node17&#45;&gt;Node13 -->
<g id="edge64" class="edge"><title>Node17&#45;&gt;Node13</title>
<path style="fill:none;stroke:midnightblue;" d="M836,-175C937,-170 1154,-156 1226,-132 1259,-121 1294,-98 1315,-82"/>
<polygon style="fill:midnightblue;stroke:midnightblue;" points="1317.1,-84.8 1323,-76 1312.9,-79.2 1317.1,-84.8"/>
</g>
<!-- Node18&#45;&gt;Node2 -->
<g id="edge70" class="edge"><title>Node18&#45;&gt;Node2</title>
<path style="fill:none;stroke:midnightblue;" d="M612,-175C492,-169 206,-152 167,-132 133,-113 97,-84 123,-56 148,-29 713,-14 853,-10"/>
<polygon style="fill:midnightblue;stroke:midnightblue;" points="853,-13.5001 863,-10 853,-6.5001 853,-13.5001"/>
</g>
<!-- Node18&#45;&gt;Node5 -->
<g id="edge72" class="edge"><title>Node18&#45;&gt;Node5</title>
<path style="fill:none;stroke:midnightblue;" d="M644,-168C631,-160 615,-148 608,-132 601,-118 603,-100 605,-86"/>
<polygon style="fill:midnightblue;stroke:midnightblue;" points="608.479,-86.584 608,-76 601.774,-84.5725 608.479,-86.584"/>
</g>
<!-- Node18&#45;&gt;Node6 -->
<g id="edge68" class="edge"><title>Node18&#45;&gt;Node6</title>
<path style="fill:none;stroke:midnightblue;" d="M667,-168C673,-149 685,-110 692,-86"/>
<polygon style="fill:midnightblue;stroke:midnightblue;" points="695.479,-86.584 695,-76 688.774,-84.5725 695.479,-86.584"/>
</g>
<!-- Node18&#45;&gt;Node9 -->
<g id="edge74" class="edge"><title>Node18&#45;&gt;Node9</title>
<path style="fill:none;stroke:midnightblue;" d="M689,-168C712,-159 745,-146 770,-136"/>
<polygon style="fill:midnightblue;stroke:midnightblue;" points="772.015,-138.964 780,-132 769.415,-132.464 772.015,-138.964"/>
</g>
<!-- Node18&#45;&gt;Node12 -->
<g id="edge76" class="edge"><title>Node18&#45;&gt;Node12</title>
<path style="fill:none;stroke:midnightblue;" d="M612,-177C492,-174 205,-164 176,-132 165,-119 170,-99 178,-85"/>
<polygon style="fill:midnightblue;stroke:midnightblue;" points="181.203,-86.4414 183,-76 175.084,-83.0418 181.203,-86.4414"/>
</g>
<!-- Node18&#45;&gt;Node13 -->
<g id="edge78" class="edge"><title>Node18&#45;&gt;Node13</title>
<path style="fill:none;stroke:midnightblue;" d="M716,-169C719,-169 722,-168 725,-168 932,-143 994,-195 1193,-132 1209,-126 1210,-119 1226,-112 1250,-100 1277,-88 1299,-80"/>
<polygon style="fill:midnightblue;stroke:midnightblue;" points="1300.28,-83.2598 1308,-76 1297.44,-76.8631 1300.28,-83.2598"/>
</g>
<!-- Node19&#45;&gt;Node2 -->
<g id="edge84" class="edge"><title>Node19&#45;&gt;Node2</title>
<path style="fill:none;stroke:midnightblue;" d="M1266,-224C1319,-196 1455,-118 1398,-56 1381,-38 1021,-17 913,-12"/>
<polygon style="fill:midnightblue;stroke:midnightblue;" points="913.299,-8.5125 903,-11 912.602,-15.4778 913.299,-8.5125"/>
</g>
<!-- Node19&#45;&gt;Node5 -->
<g id="edge86" class="edge"><title>Node19&#45;&gt;Node5</title>
<path style="fill:none;stroke:midnightblue;" d="M1229,-224C1206,-209 1160,-183 1119,-168 923,-97 864,-115 660,-76 654,-75 648,-73 642,-72"/>
<polygon style="fill:midnightblue;stroke:midnightblue;" points="642.492,-68.5292 632,-70 641.119,-75.3933 642.492,-68.5292"/>
</g>
<!-- Node19&#45;&gt;Node10 -->
<g id="edge82" class="edge"><title>Node19&#45;&gt;Node10</title>
<path style="fill:none;stroke:midnightblue;" d="M1245,-224C1246,-209 1243,-182 1228,-168 1168,-111 1124,-157 1047,-132 1026,-125 1023,-119 1004,-112 956,-94 899,-80 866,-72"/>
<polygon style="fill:midnightblue;stroke:midnightblue;" points="866.492,-68.5292 856,-70 865.119,-75.3933 866.492,-68.5292"/>
</g>
<!-- Node19&#45;&gt;Node13 -->
<g id="edge112" class="edge"><title>Node19&#45;&gt;Node13</title>
<path style="fill:none;stroke:midnightblue;" d="M1260,-224C1282,-207 1324,-173 1340,-132 1345,-117 1344,-99 1342,-86"/>
<polygon style="fill:midnightblue;stroke:midnightblue;" points="1345.23,-84.5725 1339,-76 1338.52,-86.584 1345.23,-84.5725"/>
</g>
<!-- Node19&#45;&gt;Node20 -->
<g id="edge88" class="edge"><title>Node19&#45;&gt;Node20</title>
<path style="fill:none;stroke:midnightblue;" d="M1208,-224C1174,-215 1123,-201 1086,-191"/>
<polygon style="fill:midnightblue;stroke:midnightblue;" points="1086.58,-187.521 1076,-188 1084.57,-194.226 1086.58,-187.521"/>
</g>
<!-- Node20&#45;&gt;Node2 -->
<g id="edge92" class="edge"><title>Node20&#45;&gt;Node2</title>
<path style="fill:none;stroke:midnightblue;" d="M1087,-168C1160,-151 1284,-112 1236,-56 1214,-32 995,-16 913,-12"/>
<polygon style="fill:midnightblue;stroke:midnightblue;" points="913.299,-8.5125 903,-11 912.602,-15.4778 913.299,-8.5125"/>
</g>
<!-- Node20&#45;&gt;Node6 -->
<g id="edge90" class="edge"><title>Node20&#45;&gt;Node6</title>
<path style="fill:none;stroke:midnightblue;" d="M1006,-168C977,-159 935,-146 900,-132 880,-124 876,-119 857,-112 817,-97 770,-84 738,-76"/>
<polygon style="fill:midnightblue;stroke:midnightblue;" points="738.584,-72.5212 728,-73 736.573,-79.2259 738.584,-72.5212"/>
</g>
<!-- Node21 -->
<g id="node68" class="node"><title>Node21</title>
<a xlink:href="parameters__container_8h.html" target="_top" xlink:title="ltr/parameters_container/parameters_container.h">
<polygon style="fill:white;stroke:black;" points="218,-112 218,-132 443,-132 443,-112 218,-112"/>
<text text-anchor="middle" x="330" y="-119" style="font-family:Arial;font-size:10.00;">ltr/parameters_container/parameters_container.h</text>
</a>
</g>
<!-- Node20&#45;&gt;Node21 -->
<g id="edge94" class="edge"><title>Node20&#45;&gt;Node21</title>
<path style="fill:none;stroke:midnightblue;" d="M968,-172C848,-162 602,-143 453,-132"/>
<polygon style="fill:midnightblue;stroke:midnightblue;" points="453.299,-128.512 443,-131 452.602,-135.478 453.299,-128.512"/>
</g>
<!-- Node21&#45;&gt;Node2 -->
<g id="edge102" class="edge"><title>Node21&#45;&gt;Node2</title>
<path style="fill:none;stroke:midnightblue;" d="M399,-112C441,-105 496,-93 543,-76 560,-69 562,-61 581,-56 677,-24 798,-14 853,-11"/>
<polygon style="fill:midnightblue;stroke:midnightblue;" points="853,-14.5001 863,-11 853,-7.5001 853,-14.5001"/>
</g>
<!-- Node21&#45;&gt;Node6 -->
<g id="edge100" class="edge"><title>Node21&#45;&gt;Node6</title>
<path style="fill:none;stroke:midnightblue;" d="M401,-112C464,-103 559,-89 641,-76 647,-75 653,-73 659,-72"/>
<polygon style="fill:midnightblue;stroke:midnightblue;" points="659.398,-75.4778 669,-71 658.701,-68.5125 659.398,-75.4778"/>
</g>
<!-- Node21&#45;&gt;Node12 -->
<g id="edge110" class="edge"><title>Node21&#45;&gt;Node12</title>
<path style="fill:none;stroke:midnightblue;" d="M305,-112C283,-103 250,-90 225,-80"/>
<polygon style="fill:midnightblue;stroke:midnightblue;" points="225.585,-76.4643 215,-76 222.985,-82.9636 225.585,-76.4643"/>
</g>
<!-- Node21&#45;&gt;Node13 -->
<g id="edge108" class="edge"><title>Node21&#45;&gt;Node13</title>
<path style="fill:none;stroke:midnightblue;" d="M443,-118C615,-111 950,-97 1236,-76 1248,-75 1261,-74 1273,-72"/>
<polygon style="fill:midnightblue;stroke:midnightblue;" points="1273.4,-75.4778 1283,-71 1272.7,-68.5125 1273.4,-75.4778"/>
</g>
<!-- Node22 -->
<g id="node70" class="node"><title>Node22</title>
<polygon style="fill:white;stroke:#bfbfbf;" points="911,-56 911,-76 985,-76 985,-56 911,-56"/>
<text text-anchor="middle" x="948" y="-63" style="font-family:Arial;font-size:10.00;">logog/logog.h</text>
</g>
<!-- Node21&#45;&gt;Node22 -->
<g id="edge96" class="edge"><title>Node21&#45;&gt;Node22</title>
<path style="fill:none;stroke:midnightblue;" d="M443,-113C551,-105 719,-91 864,-76 876,-74 889,-73 901,-72"/>
<polygon style="fill:midnightblue;stroke:midnightblue;" points="901.398,-75.4778 911,-71 900.701,-68.5125 901.398,-75.4778"/>
</g>
<!-- Node23 -->
<g id="node72" class="node"><title>Node23</title>
<polygon style="fill:white;stroke:#bfbfbf;" points="266,-56 266,-76 295,-76 295,-56 266,-56"/>
<text text-anchor="middle" x="280" y="-63" style="font-family:Arial;font-size:10.00;">list</text>
</g>
<!-- Node21&#45;&gt;Node23 -->
<g id="edge98" class="edge"><title>Node21&#45;&gt;Node23</title>
<path style="fill:none;stroke:midnightblue;" d="M321,-112C314,-104 304,-93 296,-84"/>
<polygon style="fill:midnightblue;stroke:midnightblue;" points="298.219,-81.221 289,-76 292.951,-85.8306 298.219,-81.221"/>
</g>
<!-- Node24 -->
<g id="node76" class="node"><title>Node24</title>
<polygon style="fill:white;stroke:#bfbfbf;" points="312,-56 312,-76 389,-76 389,-56 312,-56"/>
<text text-anchor="middle" x="350" y="-63" style="font-family:Arial;font-size:10.00;">boost/any.hpp</text>
</g>
<!-- Node21&#45;&gt;Node24 -->
<g id="edge104" class="edge"><title>Node21&#45;&gt;Node24</title>
<path style="fill:none;stroke:midnightblue;" d="M334,-112C336,-105 340,-95 343,-86"/>
<polygon style="fill:midnightblue;stroke:midnightblue;" points="346.479,-86.584 346,-76 339.774,-84.5725 346.479,-86.584"/>
</g>
<!-- Node25 -->
<g id="node78" class="node"><title>Node25</title>
<polygon style="fill:white;stroke:#bfbfbf;" points="406,-56 406,-76 535,-76 535,-56 406,-56"/>
<text text-anchor="middle" x="470" y="-63" style="font-family:Arial;font-size:10.00;">boost/unordered_map.hpp</text>
</g>
<!-- Node21&#45;&gt;Node25 -->
<g id="edge106" class="edge"><title>Node21&#45;&gt;Node25</title>
<path style="fill:none;stroke:midnightblue;" d="M355,-112C377,-103 410,-90 435,-80"/>
<polygon style="fill:midnightblue;stroke:midnightblue;" points="437.015,-82.9636 445,-76 434.415,-76.4643 437.015,-82.9636"/>
</g>
<!-- Node26&#45;&gt;Node9 -->
<g id="edge116" class="edge"><title>Node26&#45;&gt;Node9</title>
<path style="fill:none;stroke:midnightblue;" d="M930,-224C919,-210 899,-185 878,-168 864,-157 847,-146 834,-137"/>
<polygon style="fill:midnightblue;stroke:midnightblue;" points="835.441,-133.797 825,-132 832.042,-139.916 835.441,-133.797"/>
</g>
<!-- Node26&#45;&gt;Node13 -->
<g id="edge124" class="edge"><title>Node26&#45;&gt;Node13</title>
<path style="fill:none;stroke:midnightblue;" d="M993,-224C1059,-210 1170,-182 1255,-132 1278,-118 1302,-97 1318,-83"/>
<polygon style="fill:midnightblue;stroke:midnightblue;" points="1320.78,-85.2191 1326,-76 1316.17,-79.9511 1320.78,-85.2191"/>
</g>
<!-- Node26&#45;&gt;Node17 -->
<g id="edge120" class="edge"><title>Node26&#45;&gt;Node17</title>
<path style="fill:none;stroke:midnightblue;" d="M911,-224C886,-215 849,-201 822,-191"/>
<polygon style="fill:midnightblue;stroke:midnightblue;" points="822.584,-187.521 812,-188 820.573,-194.226 822.584,-187.521"/>
</g>
<!-- Node26&#45;&gt;Node18 -->
<g id="edge118" class="edge"><title>Node26&#45;&gt;Node18</title>
<path style="fill:none;stroke:midnightblue;" d="M889,-224C842,-215 773,-200 723,-190"/>
<polygon style="fill:midnightblue;stroke:midnightblue;" points="723.492,-186.529 713,-188 722.119,-193.393 723.492,-186.529"/>
</g>
<!-- Node26&#45;&gt;Node20 -->
<g id="edge122" class="edge"><title>Node26&#45;&gt;Node20</title>
<path style="fill:none;stroke:midnightblue;" d="M956,-224C971,-215 994,-203 1012,-193"/>
<polygon style="fill:midnightblue;stroke:midnightblue;" points="1013.96,-195.916 1021,-188 1010.56,-189.797 1013.96,-195.916"/>
</g>
<!-- Node27&#45;&gt;Node2 -->
<g id="edge128" class="edge"><title>Node27&#45;&gt;Node2</title>
<path style="fill:none;stroke:midnightblue;" d="M1456,-58C1451,-57 1446,-56 1442,-56 1241,-32 997,-16 913,-12"/>
<polygon style="fill:midnightblue;stroke:midnightblue;" points="913.299,-8.5125 903,-11 912.602,-15.4778 913.299,-8.5125"/>
</g>
<!-- Node28&#45;&gt;Node2 -->
<g id="edge144" class="edge"><title>Node28&#45;&gt;Node2</title>
<path style="fill:none;stroke:midnightblue;" d="M1101,-112C1083,-102 1056,-88 1032,-76 1015,-67 1011,-64 994,-56 966,-43 935,-30 913,-22"/>
<polygon style="fill:midnightblue;stroke:midnightblue;" points="913.585,-18.4643 903,-18 910.985,-24.9636 913.585,-18.4643"/>
</g>
<!-- Node28&#45;&gt;Node13 -->
<g id="edge148" class="edge"><title>Node28&#45;&gt;Node13</title>
<path style="fill:none;stroke:midnightblue;" d="M1159,-112C1195,-103 1248,-89 1287,-79"/>
<polygon style="fill:midnightblue;stroke:midnightblue;" points="1288.43,-82.2259 1297,-76 1286.42,-75.5212 1288.43,-82.2259"/>
</g>
<!-- Node28&#45;&gt;Node22 -->
<g id="edge142" class="edge"><title>Node28&#45;&gt;Node22</title>
<path style="fill:none;stroke:midnightblue;" d="M1089,-112C1061,-103 1019,-89 989,-79"/>
<polygon style="fill:midnightblue;stroke:midnightblue;" points="989.584,-75.5212 979,-76 987.573,-82.2259 989.584,-75.5212"/>
</g>
<!-- Node28&#45;&gt;Node27 -->
<g id="edge150" class="edge"><title>Node28&#45;&gt;Node27</title>
<path style="fill:none;stroke:midnightblue;" d="M1185,-113C1257,-103 1373,-86 1446,-75"/>
<polygon style="fill:midnightblue;stroke:midnightblue;" points="1446.4,-78.4778 1456,-74 1445.7,-71.5125 1446.4,-78.4778"/>
</g>
<!-- Node29 -->
<g id="node99" class="node"><title>Node29</title>
<polygon style="fill:white;stroke:#bfbfbf;" points="1041,-56 1041,-76 1155,-76 1155,-56 1041,-56"/>
<text text-anchor="middle" x="1098" y="-63" style="font-family:Arial;font-size:10.00;">boost/lexical_cast.hpp</text>
</g>
<!-- Node28&#45;&gt;Node29 -->
<g id="edge140" class="edge"><title>Node28&#45;&gt;Node29</title>
<path style="fill:none;stroke:midnightblue;" d="M1116,-112C1113,-105 1109,-95 1106,-85"/>
<polygon style="fill:midnightblue;stroke:midnightblue;" points="1109.26,-83.7166 1102,-76 1102.86,-86.5596 1109.26,-83.7166"/>
</g>
<!-- Node30 -->
<g id="node103" class="node"><title>Node30</title>
<polygon style="fill:white;stroke:#bfbfbf;" points="1173,-56 1173,-76 1227,-76 1227,-56 1173,-56"/>
<text text-anchor="middle" x="1200" y="-63" style="font-family:Arial;font-size:10.00;">iostream</text>
</g>
<!-- Node28&#45;&gt;Node30 -->
<g id="edge146" class="edge"><title>Node28&#45;&gt;Node30</title>
<path style="fill:none;stroke:midnightblue;" d="M1134,-112C1145,-104 1163,-92 1177,-82"/>
<polygon style="fill:midnightblue;stroke:midnightblue;" points="1179.1,-84.8 1185,-76 1174.9,-79.2 1179.1,-84.8"/>
</g>
<!-- Node31&#45;&gt;Node4 -->
<g id="edge162" class="edge"><title>Node31&#45;&gt;Node4</title>
<path style="fill:none;stroke:midnightblue;" d="M852,-392C918,-382 1017,-367 1086,-357"/>
<polygon style="fill:midnightblue;stroke:midnightblue;" points="1086.4,-360.478 1096,-356 1085.7,-353.512 1086.4,-360.478"/>
</g>
<!-- Node31&#45;&gt;Node5 -->
<g id="edge158" class="edge"><title>Node31&#45;&gt;Node5</title>
<path style="fill:none;stroke:midnightblue;" d="M717,-392C625,-376 470,-342 470,-290 470,-290 470,-290 470,-178 470,-122 539,-89 580,-75"/>
<polygon style="fill:midnightblue;stroke:midnightblue;" points="581.427,-78.2259 590,-72 579.416,-71.5212 581.427,-78.2259"/>
</g>
<!-- Node31&#45;&gt;Node7 -->
<g id="edge160" class="edge"><title>Node31&#45;&gt;Node7</title>
<path style="fill:none;stroke:midnightblue;" d="M784,-392C784,-373 784,-334 784,-310"/>
<polygon style="fill:midnightblue;stroke:midnightblue;" points="787.5,-310 784,-300 780.5,-310 787.5,-310"/>
</g>
<!-- Node31&#45;&gt;Node12 -->
<g id="edge166" class="edge"><title>Node31&#45;&gt;Node12</title>
<path style="fill:none;stroke:midnightblue;" d="M672,-394C481,-380 114,-346 114,-290 114,-290 114,-290 114,-178 114,-138 147,-103 169,-83"/>
<polygon style="fill:midnightblue;stroke:midnightblue;" points="171.779,-85.2191 177,-76 167.169,-79.9511 171.779,-85.2191"/>
</g>
<!-- Node31&#45;&gt;Node13 -->
<g id="edge170" class="edge"><title>Node31&#45;&gt;Node13</title>
<path style="fill:none;stroke:midnightblue;" d="M897,-396C1103,-384 1516,-352 1516,-290 1516,-290 1516,-290 1516,-178 1516,-122 1452,-93 1400,-79"/>
<polygon style="fill:midnightblue;stroke:midnightblue;" points="1400.58,-75.5212 1390,-76 1398.57,-82.2259 1400.58,-75.5212"/>
</g>
<!-- Node31&#45;&gt;Node20 -->
<g id="edge164" class="edge"><title>Node31&#45;&gt;Node20</title>
<path style="fill:none;stroke:midnightblue;" d="M809,-392C857,-372 963,-320 1020,-244 1029,-231 1034,-212 1036,-198"/>
<polygon style="fill:midnightblue;stroke:midnightblue;" points="1039.47,-198.492 1038,-188 1032.61,-197.119 1039.47,-198.492"/>
</g>
<!-- Node31&#45;&gt;Node21 -->
<g id="edge168" class="edge"><title>Node31&#45;&gt;Node21</title>
<path style="fill:none;stroke:midnightblue;" d="M672,-393C592,-385 493,-373 456,-356 415,-337 382,-334 381,-290 381,-290 381,-290 381,-234 382,-198 360,-161 344,-140"/>
<polygon style="fill:midnightblue;stroke:midnightblue;" points="346.8,-137.9 338,-132 341.2,-142.1 346.8,-137.9"/>
</g>
</g>
</svg>
