<?xml version="1.0" encoding="UTF-8" standalone="no"?>
<!DOCTYPE svg PUBLIC "-//W3C//DTD SVG 1.0//EN"
 "http://www.w3.org/TR/2001/REC-SVG-20010904/DTD/svg10.dtd" [
 <!ATTLIST svg xmlns:xlink CDATA #FIXED "http://www.w3.org/1999/xlink">
]>
<!-- Generated by Graphviz version 2.20.2 (Tue Mar &#160;2 19:03:41 UTC 2010)
     For user: (jenkins)  -->
<!-- Title: G Pages: 1 -->
<svg width="771pt" height="140pt"
 viewBox="0.00 0.00 771.00 140.00" xmlns="http://www.w3.org/2000/svg" xmlns:xlink="http://www.w3.org/1999/xlink">
<g id="graph0" class="graph" transform="scale(1 1) rotate(0) translate(4 136)">
<title>G</title>
<polygon style="fill:white;stroke:white;" points="-4,4 -4,-136 767,-136 767,4 -4,4"/>
<!-- Node1 -->
<g id="node1" class="node"><title>Node1</title>
<polygon style="fill:#bfbfbf;stroke:black;" points="169,-112 169,-132 391,-132 391,-112 169,-112"/>
<text text-anchor="middle" x="280" y="-119" style="font-family:Arial;font-size:10.00;">ltr/feature_converters/nominal_to_bool_learner.h</text>
</g>
<!-- Node2 -->
<g id="node3" class="node"><title>Node2</title>
<polygon style="fill:white;stroke:#bfbfbf;" points="0,-0 0,-20 40,-20 40,-0 0,-0"/>
<text text-anchor="middle" x="20" y="-7" style="font-family:Arial;font-size:10.00;">string</text>
</g>
<!-- Node1&#45;&gt;Node2 -->
<g id="edge2" class="edge"><title>Node1&#45;&gt;Node2</title>
<path style="fill:none;stroke:midnightblue;" d="M169,-113C113,-106 53,-95 34,-76 22,-64 19,-45 19,-30"/>
<polygon style="fill:midnightblue;stroke:midnightblue;" points="22.5001,-30 19,-20 15.5001,-30 22.5001,-30"/>
</g>
<!-- Node3 -->
<g id="node5" class="node"><title>Node3</title>
<a xlink:href="nominal__to__bool__converter_8h.html" target="_top" xlink:title="ltr/feature_converters/nominal_to_bool_converter.h">
<polygon style="fill:white;stroke:black;" points="43,-56 43,-76 274,-76 274,-56 43,-56"/>
<text text-anchor="middle" x="158" y="-63" style="font-family:Arial;font-size:10.00;">ltr/feature_converters/nominal_to_bool_converter.h</text>
</a>
</g>
<!-- Node1&#45;&gt;Node3 -->
<g id="edge4" class="edge"><title>Node1&#45;&gt;Node3</title>
<path style="fill:none;stroke:midnightblue;" d="M258,-112C239,-103 211,-90 189,-80"/>
<polygon style="fill:midnightblue;stroke:midnightblue;" points="190.56,-76.8631 180,-76 187.717,-83.2598 190.56,-76.8631"/>
</g>
<!-- Node5 -->
<g id="node10" class="node"><title>Node5</title>
<polygon style="fill:white;stroke:#bfbfbf;" points="291,-56 291,-76 516,-76 516,-56 291,-56"/>
<text text-anchor="middle" x="403" y="-63" style="font-family:Arial;font-size:10.00;">ltr/feature_converters/feature_converter_learner.h</text>
</g>
<!-- Node1&#45;&gt;Node5 -->
<g id="edge10" class="edge"><title>Node1&#45;&gt;Node5</title>
<path style="fill:none;stroke:midnightblue;" d="M302,-112C321,-103 349,-90 372,-80"/>
<polygon style="fill:midnightblue;stroke:midnightblue;" points="373.283,-83.2598 381,-76 370.44,-76.8631 373.283,-83.2598"/>
</g>
<!-- Node6 -->
<g id="node12" class="node"><title>Node6</title>
<polygon style="fill:white;stroke:#bfbfbf;" points="533,-56 533,-76 764,-76 764,-56 533,-56"/>
<text text-anchor="middle" x="648" y="-63" style="font-family:Arial;font-size:10.00;">ltr/feature_converters/nominal_to_bool_converter.h</text>
</g>
<!-- Node1&#45;&gt;Node6 -->
<g id="edge12" class="edge"><title>Node1&#45;&gt;Node6</title>
<path style="fill:none;stroke:midnightblue;" d="M346,-112C410,-102 506,-88 573,-78"/>
<polygon style="fill:midnightblue;stroke:midnightblue;" points="573.881,-81.3933 583,-76 572.508,-74.5292 573.881,-81.3933"/>
</g>
<!-- Node3&#45;&gt;Node2 -->
<g id="edge6" class="edge"><title>Node3&#45;&gt;Node2</title>
<path style="fill:none;stroke:midnightblue;" d="M133,-56C110,-46 75,-32 49,-22"/>
<polygon style="fill:midnightblue;stroke:midnightblue;" points="50.5596,-18.8631 40,-18 47.7166,-25.2598 50.5596,-18.8631"/>
</g>
<!-- Node4 -->
<g id="node8" class="node"><title>Node4</title>
<polygon style="fill:white;stroke:#bfbfbf;" points="63,-0 63,-20 253,-20 253,-0 63,-0"/>
<text text-anchor="middle" x="158" y="-7" style="font-family:Arial;font-size:10.00;">ltr/feature_converters/feature_converter.h</text>
</g>
<!-- Node3&#45;&gt;Node4 -->
<g id="edge8" class="edge"><title>Node3&#45;&gt;Node4</title>
<path style="fill:none;stroke:midnightblue;" d="M158,-56C158,-49 158,-39 158,-30"/>
<polygon style="fill:midnightblue;stroke:midnightblue;" points="161.5,-30 158,-20 154.5,-30 161.5,-30"/>
</g>
</g>
</svg>
