<?xml version="1.0" encoding="UTF-8" standalone="no"?>
<!DOCTYPE svg PUBLIC "-//W3C//DTD SVG 1.0//EN"
 "http://www.w3.org/TR/2001/REC-SVG-20010904/DTD/svg10.dtd" [
 <!ATTLIST svg xmlns:xlink CDATA #FIXED "http://www.w3.org/1999/xlink">
]>
<!-- Generated by Graphviz version 2.20.2 (Tue Mar &#160;2 19:03:41 UTC 2010)
     For user: (jenkins)  -->
<!-- Title: G Pages: 1 -->
<svg width="884pt" height="252pt"
 viewBox="0.00 0.00 884.00 252.00" xmlns="http://www.w3.org/2000/svg" xmlns:xlink="http://www.w3.org/1999/xlink">
<g id="graph0" class="graph" transform="scale(1 1) rotate(0) translate(4 248)">
<title>G</title>
<polygon style="fill:white;stroke:white;" points="-4,4 -4,-248 880,-248 880,4 -4,4"/>
<!-- Node1 -->
<g id="node1" class="node"><title>Node1</title>
<polygon style="fill:#bfbfbf;stroke:black;" points="220,-224 220,-244 443,-244 443,-224 220,-224"/>
<text text-anchor="middle" x="331" y="-231" style="font-family:Arial;font-size:10.00;">ltr/density_estimators/non_linear_discriminant.h</text>
</g>
<!-- Node2 -->
<g id="node3" class="node"><title>Node2</title>
<a xlink:href="non__linear__discriminant__density__learner_8h.html" target="_top" xlink:title="ltr/density_estimators/non_linear_discriminant_density_learner.h">
<polygon style="fill:white;stroke:black;" points="30,-168 30,-188 324,-188 324,-168 30,-168"/>
<text text-anchor="middle" x="177" y="-175" style="font-family:Arial;font-size:10.00;">ltr/density_estimators/non_linear_discriminant_density_learner.h</text>
</a>
</g>
<!-- Node1&#45;&gt;Node2 -->
<g id="edge2" class="edge"><title>Node1&#45;&gt;Node2</title>
<path style="fill:none;stroke:midnightblue;" d="M293,-221C266,-211 229,-197 204,-188"/>
<polygon style="fill:midnightblue;stroke:midnightblue;" points="292.416,-224.479 303,-224 294.427,-217.774 292.416,-224.479"/>
</g>
<!-- Node4 -->
<g id="node7" class="node"><title>Node4</title>
<a xlink:href="density__estimators__learners__unittests_8cc.html" target="_top" xlink:title="ltr/density_estimators/density_estimators_learners_unittests.cc">
<polygon style="fill:white;stroke:black;" points="29,-56 29,-76 320,-76 320,-56 29,-56"/>
<text text-anchor="middle" x="174" y="-63" style="font-family:Arial;font-size:10.00;">ltr/density_estimators/density_estimators_learners_unittests.cc</text>
</a>
</g>
<!-- Node1&#45;&gt;Node4 -->
<g id="edge20" class="edge"><title>Node1&#45;&gt;Node4</title>
<path style="fill:none;stroke:midnightblue;" d="M210,-223C129,-215 33,-202 21,-188 -1,-162 1,-139 21,-112 33,-96 78,-84 116,-76"/>
<polygon style="fill:midnightblue;stroke:midnightblue;" points="209.701,-226.488 220,-224 210.398,-219.522 209.701,-226.488"/>
</g>
<!-- Node9 -->
<g id="node20" class="node"><title>Node9</title>
<a xlink:href="density__estimators__scorers__unittests_8cc.html" target="_top" xlink:title="ltr/density_estimators/density_estimators_scorers_unittests.cc">
<polygon style="fill:white;stroke:black;" points="342,-168 342,-188 631,-188 631,-168 342,-168"/>
<text text-anchor="middle" x="486" y="-175" style="font-family:Arial;font-size:10.00;">ltr/density_estimators/density_estimators_scorers_unittests.cc</text>
</a>
</g>
<!-- Node1&#45;&gt;Node9 -->
<g id="edge22" class="edge"><title>Node1&#45;&gt;Node9</title>
<path style="fill:none;stroke:midnightblue;" d="M369,-221C396,-211 433,-197 458,-188"/>
<polygon style="fill:midnightblue;stroke:midnightblue;" points="367.573,-217.774 359,-224 369.584,-224.479 367.573,-217.774"/>
</g>
<!-- Node10 -->
<g id="node22" class="node"><title>Node10</title>
<a xlink:href="non__linear__discriminant_8cc.html" target="_top" xlink:title="ltr/density_estimators/non_linear_discriminant.cc">
<polygon style="fill:white;stroke:black;" points="648,-168 648,-188 876,-188 876,-168 648,-168"/>
<text text-anchor="middle" x="762" y="-175" style="font-family:Arial;font-size:10.00;">ltr/density_estimators/non_linear_discriminant.cc</text>
</a>
</g>
<!-- Node1&#45;&gt;Node10 -->
<g id="edge24" class="edge"><title>Node1&#45;&gt;Node10</title>
<path style="fill:none;stroke:midnightblue;" d="M418,-223C496,-213 610,-198 685,-188"/>
<polygon style="fill:midnightblue;stroke:midnightblue;" points="417.602,-219.522 408,-224 418.299,-226.488 417.602,-219.522"/>
</g>
<!-- Node3 -->
<g id="node5" class="node"><title>Node3</title>
<a xlink:href="quadratic__discriminant__density__learner_8h.html" target="_top" xlink:title="ltr/density_estimators/quadratic_discriminant_density_learner.h">
<polygon style="fill:white;stroke:black;" points="30,-112 30,-132 319,-132 319,-112 30,-112"/>
<text text-anchor="middle" x="174" y="-119" style="font-family:Arial;font-size:10.00;">ltr/density_estimators/quadratic_discriminant_density_learner.h</text>
</a>
</g>
<!-- Node2&#45;&gt;Node3 -->
<g id="edge4" class="edge"><title>Node2&#45;&gt;Node3</title>
<path style="fill:none;stroke:midnightblue;" d="M176,-158C175,-149 175,-140 175,-132"/>
<polygon style="fill:midnightblue;stroke:midnightblue;" points="172.5,-158 176,-168 179.5,-158 172.5,-158"/>
</g>
<!-- Node8 -->
<g id="node15" class="node"><title>Node8</title>
<a xlink:href="normal__naive__bayes__density__learner_8h.html" target="_top" xlink:title="ltr/density_estimators/normal_naive_bayes_density_learner.h">
<polygon style="fill:white;stroke:black;" points="336,-112 336,-132 615,-132 615,-112 336,-112"/>
<text text-anchor="middle" x="475" y="-119" style="font-family:Arial;font-size:10.00;">ltr/density_estimators/normal_naive_bayes_density_learner.h</text>
</a>
</g>
<!-- Node2&#45;&gt;Node8 -->
<g id="edge14" class="edge"><title>Node2&#45;&gt;Node8</title>
<path style="fill:none;stroke:midnightblue;" d="M240,-166C294,-156 371,-141 422,-132"/>
<polygon style="fill:midnightblue;stroke:midnightblue;" points="239.119,-162.607 230,-168 240.492,-169.471 239.119,-162.607"/>
</g>
<!-- Node3&#45;&gt;Node4 -->
<g id="edge6" class="edge"><title>Node3&#45;&gt;Node4</title>
<path style="fill:none;stroke:midnightblue;" d="M174,-102C174,-93 174,-84 174,-76"/>
<polygon style="fill:midnightblue;stroke:midnightblue;" points="170.5,-102 174,-112 177.5,-102 170.5,-102"/>
</g>
<!-- Node5 -->
<g id="node9" class="node"><title>Node5</title>
<a xlink:href="bayesian__learner_8h.html" target="_top" xlink:title="ltr/learners/bayesian_learner/bayesian_learner.h">
<polygon style="fill:white;stroke:black;" points="350,-56 350,-76 572,-76 572,-56 350,-56"/>
<text text-anchor="middle" x="461" y="-63" style="font-family:Arial;font-size:10.00;">ltr/learners/bayesian_learner/bayesian_learner.h</text>
</a>
</g>
<!-- Node3&#45;&gt;Node5 -->
<g id="edge8" class="edge"><title>Node3&#45;&gt;Node5</title>
<path style="fill:none;stroke:midnightblue;" d="M235,-110C287,-100 361,-85 410,-76"/>
<polygon style="fill:midnightblue;stroke:midnightblue;" points="234.119,-106.607 225,-112 235.492,-113.471 234.119,-106.607"/>
</g>
<!-- Node6 -->
<g id="node11" class="node"><title>Node6</title>
<a xlink:href="bayesian__learner__unittest_8cc.html" target="_top" xlink:title="ltr/learners/bayesian_learner/bayesian_learner_unittest.cc">
<polygon style="fill:white;stroke:black;" points="202,-0 202,-20 468,-20 468,-0 202,-0"/>
<text text-anchor="middle" x="335" y="-7" style="font-family:Arial;font-size:10.00;">ltr/learners/bayesian_learner/bayesian_learner_unittest.cc</text>
</a>
</g>
<!-- Node5&#45;&gt;Node6 -->
<g id="edge10" class="edge"><title>Node5&#45;&gt;Node6</title>
<path style="fill:none;stroke:midnightblue;" d="M429,-52C406,-42 377,-29 358,-20"/>
<polygon style="fill:midnightblue;stroke:midnightblue;" points="427.44,-55.1369 438,-56 430.283,-48.7402 427.44,-55.1369"/>
</g>
<!-- Node7 -->
<g id="node13" class="node"><title>Node7</title>
<a xlink:href="generator_8cc.html" target="_top" xlink:title="ltr/serialization_test/generator/generator.cc">
<polygon style="fill:white;stroke:black;" points="486,-0 486,-20 687,-20 687,-0 486,-0"/>
<text text-anchor="middle" x="586" y="-7" style="font-family:Arial;font-size:10.00;">ltr/serialization_test/generator/generator.cc</text>
</a>
</g>
<!-- Node5&#45;&gt;Node7 -->
<g id="edge12" class="edge"><title>Node5&#45;&gt;Node7</title>
<path style="fill:none;stroke:midnightblue;" d="M492,-52C515,-42 544,-29 563,-20"/>
<polygon style="fill:midnightblue;stroke:midnightblue;" points="490.717,-48.7402 483,-56 493.56,-55.1369 490.717,-48.7402"/>
</g>
<!-- Node8&#45;&gt;Node4 -->
<g id="edge16" class="edge"><title>Node8&#45;&gt;Node4</title>
<path style="fill:none;stroke:midnightblue;" d="M411,-110C357,-100 279,-85 228,-76"/>
<polygon style="fill:midnightblue;stroke:midnightblue;" points="410.508,-113.471 421,-112 411.881,-106.607 410.508,-113.471"/>
</g>
<!-- Node8&#45;&gt;Node5 -->
<g id="edge18" class="edge"><title>Node8&#45;&gt;Node5</title>
<path style="fill:none;stroke:midnightblue;" d="M470,-102C468,-93 465,-84 463,-76"/>
<polygon style="fill:midnightblue;stroke:midnightblue;" points="466.607,-102.881 472,-112 473.471,-101.508 466.607,-102.881"/>
</g>
</g>
</svg>
