<?xml version="1.0" encoding="UTF-8" standalone="no"?>
<!DOCTYPE svg PUBLIC "-//W3C//DTD SVG 1.0//EN"
 "http://www.w3.org/TR/2001/REC-SVG-20010904/DTD/svg10.dtd" [
 <!ATTLIST svg xmlns:xlink CDATA #FIXED "http://www.w3.org/1999/xlink">
]>
<!-- Generated by Graphviz version 2.20.2 (Tue Mar &#160;2 19:03:41 UTC 2010)
     For user: (jenkins)  -->
<!-- Title: G Pages: 1 -->
<svg width="1227pt" height="140pt"
 viewBox="0.00 0.00 1227.00 140.00" xmlns="http://www.w3.org/2000/svg" xmlns:xlink="http://www.w3.org/1999/xlink">
<g id="graph0" class="graph" transform="scale(1 1) rotate(0) translate(4 136)">
<title>G</title>
<polygon style="fill:white;stroke:white;" points="-4,4 -4,-136 1223,-136 1223,4 -4,4"/>
<!-- Node1 -->
<g id="node1" class="node"><title>Node1</title>
<polygon style="fill:#bfbfbf;stroke:black;" points="314,-112 314,-132 608,-132 608,-112 314,-112"/>
<text text-anchor="middle" x="461" y="-119" style="font-family:Arial;font-size:10.00;">ltr/density_estimators/non_linear_discriminant_density_learner.h</text>
</g>
<!-- Node2 -->
<g id="node3" class="node"><title>Node2</title>
<polygon style="fill:white;stroke:#bfbfbf;" points="0,-0 0,-20 72,-20 72,-0 0,-0"/>
<text text-anchor="middle" x="36" y="-7" style="font-family:Arial;font-size:10.00;">Eigen/Dense</text>
</g>
<!-- Node1&#45;&gt;Node2 -->
<g id="edge2" class="edge"><title>Node1&#45;&gt;Node2</title>
<path style="fill:none;stroke:midnightblue;" d="M343,-112C262,-104 163,-92 125,-76 97,-65 70,-43 53,-27"/>
<polygon style="fill:midnightblue;stroke:midnightblue;" points="55.546,-24.5962 46,-20 50.5962,-29.546 55.546,-24.5962"/>
</g>
<!-- Node3 -->
<g id="node5" class="node"><title>Node3</title>
<polygon style="fill:white;stroke:#bfbfbf;" points="90,-0 90,-20 125,-20 125,-0 90,-0"/>
<text text-anchor="middle" x="107" y="-7" style="font-family:Arial;font-size:10.00;">map</text>
</g>
<!-- Node1&#45;&gt;Node3 -->
<g id="edge4" class="edge"><title>Node1&#45;&gt;Node3</title>
<path style="fill:none;stroke:midnightblue;" d="M318,-112C250,-105 178,-94 150,-76 133,-65 121,-45 115,-30"/>
<polygon style="fill:midnightblue;stroke:midnightblue;" points="117.964,-27.9849 111,-20 111.464,-30.5847 117.964,-27.9849"/>
</g>
<!-- Node4 -->
<g id="node7" class="node"><title>Node4</title>
<polygon style="fill:white;stroke:#bfbfbf;" points="142,-0 142,-20 184,-20 184,-0 142,-0"/>
<text text-anchor="middle" x="163" y="-7" style="font-family:Arial;font-size:10.00;">vector</text>
</g>
<!-- Node1&#45;&gt;Node4 -->
<g id="edge6" class="edge"><title>Node1&#45;&gt;Node4</title>
<path style="fill:none;stroke:midnightblue;" d="M353,-112C273,-103 176,-90 164,-76 153,-63 154,-44 157,-30"/>
<polygon style="fill:midnightblue;stroke:midnightblue;" points="160.471,-30.4922 159,-20 153.607,-29.1194 160.471,-30.4922"/>
</g>
<!-- Node5 -->
<g id="node9" class="node"><title>Node5</title>
<polygon style="fill:white;stroke:#bfbfbf;" points="260,-0 260,-20 533,-20 533,-0 260,-0"/>
<text text-anchor="middle" x="396" y="-7" style="font-family:Arial;font-size:10.00;">ltr/density_estimators/base_probability_density_estimator.h</text>
</g>
<!-- Node1&#45;&gt;Node5 -->
<g id="edge8" class="edge"><title>Node1&#45;&gt;Node5</title>
<path style="fill:none;stroke:midnightblue;" d="M455,-112C444,-93 421,-53 407,-29"/>
<polygon style="fill:midnightblue;stroke:midnightblue;" points="409.916,-27.0418 402,-20 403.797,-30.4414 409.916,-27.0418"/>
</g>
<!-- Node6 -->
<g id="node11" class="node"><title>Node6</title>
<polygon style="fill:white;stroke:#bfbfbf;" points="550,-0 550,-20 812,-20 812,-0 550,-0"/>
<text text-anchor="middle" x="681" y="-7" style="font-family:Arial;font-size:10.00;">ltr/density_estimators/base_probability_density_learner.h</text>
</g>
<!-- Node1&#45;&gt;Node6 -->
<g id="edge10" class="edge"><title>Node1&#45;&gt;Node6</title>
<path style="fill:none;stroke:midnightblue;" d="M462,-112C463,-97 468,-70 485,-56 502,-41 551,-30 596,-22"/>
<polygon style="fill:midnightblue;stroke:midnightblue;" points="596.881,-25.3933 606,-20 595.508,-18.5292 596.881,-25.3933"/>
</g>
<!-- Node7 -->
<g id="node13" class="node"><title>Node7</title>
<a xlink:href="non__linear__discriminant_8h.html" target="_top" xlink:title="ltr/density_estimators/non_linear_discriminant.h">
<polygon style="fill:white;stroke:black;" points="173,-56 173,-76 396,-76 396,-56 173,-56"/>
<text text-anchor="middle" x="284" y="-63" style="font-family:Arial;font-size:10.00;">ltr/density_estimators/non_linear_discriminant.h</text>
</a>
</g>
<!-- Node1&#45;&gt;Node7 -->
<g id="edge12" class="edge"><title>Node1&#45;&gt;Node7</title>
<path style="fill:none;stroke:midnightblue;" d="M429,-112C400,-103 357,-89 326,-79"/>
<polygon style="fill:midnightblue;stroke:midnightblue;" points="326.584,-75.5212 316,-76 324.573,-82.2259 326.584,-75.5212"/>
</g>
<!-- Node9 -->
<g id="node20" class="node"><title>Node9</title>
<polygon style="fill:white;stroke:#bfbfbf;" points="830,-0 830,-20 914,-20 914,-0 830,-0"/>
<text text-anchor="middle" x="872" y="-7" style="font-family:Arial;font-size:10.00;">ltr/data/object.h</text>
</g>
<!-- Node1&#45;&gt;Node9 -->
<g id="edge30" class="edge"><title>Node1&#45;&gt;Node9</title>
<path style="fill:none;stroke:midnightblue;" d="M466,-112C475,-97 493,-69 518,-56 634,6 685,-39 820,-20"/>
<polygon style="fill:midnightblue;stroke:midnightblue;" points="820.881,-23.3933 830,-18 819.508,-16.5292 820.881,-23.3933"/>
</g>
<!-- Node10 -->
<g id="node24" class="node"><title>Node10</title>
<polygon style="fill:white;stroke:#bfbfbf;" points="527,-56 527,-76 622,-76 622,-56 527,-56"/>
<text text-anchor="middle" x="574" y="-63" style="font-family:Arial;font-size:10.00;">ltr/data/data_set.h</text>
</g>
<!-- Node1&#45;&gt;Node10 -->
<g id="edge28" class="edge"><title>Node1&#45;&gt;Node10</title>
<path style="fill:none;stroke:midnightblue;" d="M481,-112C499,-103 525,-90 545,-80"/>
<polygon style="fill:midnightblue;stroke:midnightblue;" points="546.283,-83.2598 554,-76 543.44,-76.8631 546.283,-83.2598"/>
</g>
<!-- Node11 -->
<g id="node27" class="node"><title>Node11</title>
<polygon style="fill:white;stroke:#bfbfbf;" points="639,-56 639,-76 810,-76 810,-56 639,-56"/>
<text text-anchor="middle" x="724" y="-63" style="font-family:Arial;font-size:10.00;">ltr/data/utility/data_set_converters.h</text>
</g>
<!-- Node1&#45;&gt;Node11 -->
<g id="edge32" class="edge"><title>Node1&#45;&gt;Node11</title>
<path style="fill:none;stroke:midnightblue;" d="M508,-112C553,-103 619,-88 667,-78"/>
<polygon style="fill:midnightblue;stroke:midnightblue;" points="667.881,-81.3933 677,-76 666.508,-74.5292 667.881,-81.3933"/>
</g>
<!-- Node12 -->
<g id="node29" class="node"><title>Node12</title>
<polygon style="fill:white;stroke:#bfbfbf;" points="827,-56 827,-76 980,-76 980,-56 827,-56"/>
<text text-anchor="middle" x="903" y="-63" style="font-family:Arial;font-size:10.00;">ltr/utility/statistics_calculation.h</text>
</g>
<!-- Node1&#45;&gt;Node12 -->
<g id="edge34" class="edge"><title>Node1&#45;&gt;Node12</title>
<path style="fill:none;stroke:midnightblue;" d="M540,-112C618,-102 737,-87 817,-77"/>
<polygon style="fill:midnightblue;stroke:midnightblue;" points="817.398,-80.4778 827,-76 816.701,-73.5125 817.398,-80.4778"/>
</g>
<!-- Node13 -->
<g id="node31" class="node"><title>Node13</title>
<polygon style="fill:white;stroke:#bfbfbf;" points="997,-56 997,-76 1220,-76 1220,-56 997,-56"/>
<text text-anchor="middle" x="1108" y="-63" style="font-family:Arial;font-size:10.00;">ltr/density_estimators/non_linear_discriminant.h</text>
</g>
<!-- Node1&#45;&gt;Node13 -->
<g id="edge36" class="edge"><title>Node1&#45;&gt;Node13</title>
<path style="fill:none;stroke:midnightblue;" d="M577,-112C693,-102 870,-87 987,-77"/>
<polygon style="fill:midnightblue;stroke:midnightblue;" points="987.398,-80.4778 997,-76 986.701,-73.5125 987.398,-80.4778"/>
</g>
<!-- Node7&#45;&gt;Node2 -->
<g id="edge14" class="edge"><title>Node7&#45;&gt;Node2</title>
<path style="fill:none;stroke:midnightblue;" d="M240,-56C195,-46 127,-30 82,-20"/>
<polygon style="fill:midnightblue;stroke:midnightblue;" points="82.4922,-16.5292 72,-18 81.1194,-23.3933 82.4922,-16.5292"/>
</g>
<!-- Node7&#45;&gt;Node3 -->
<g id="edge16" class="edge"><title>Node7&#45;&gt;Node3</title>
<path style="fill:none;stroke:midnightblue;" d="M249,-56C220,-48 178,-35 135,-20"/>
<polygon style="fill:midnightblue;stroke:midnightblue;" points="135.584,-16.5212 125,-17 133.573,-23.2259 135.584,-16.5212"/>
</g>
<!-- Node7&#45;&gt;Node4 -->
<g id="edge20" class="edge"><title>Node7&#45;&gt;Node4</title>
<path style="fill:none;stroke:midnightblue;" d="M262,-56C243,-47 215,-34 193,-24"/>
<polygon style="fill:midnightblue;stroke:midnightblue;" points="194.56,-20.8631 184,-20 191.717,-27.2598 194.56,-20.8631"/>
</g>
<!-- Node7&#45;&gt;Node5 -->
<g id="edge24" class="edge"><title>Node7&#45;&gt;Node5</title>
<path style="fill:none;stroke:midnightblue;" d="M304,-56C321,-47 347,-34 367,-24"/>
<polygon style="fill:midnightblue;stroke:midnightblue;" points="368.283,-27.2598 376,-20 365.44,-20.8631 368.283,-27.2598"/>
</g>
<!-- Node7&#45;&gt;Node6 -->
<g id="edge26" class="edge"><title>Node7&#45;&gt;Node6</title>
<path style="fill:none;stroke:midnightblue;" d="M355,-56C424,-46 528,-31 600,-21"/>
<polygon style="fill:midnightblue;stroke:midnightblue;" points="600.398,-24.4778 610,-20 599.701,-17.5125 600.398,-24.4778"/>
</g>
<!-- Node8 -->
<g id="node17" class="node"><title>Node8</title>
<polygon style="fill:white;stroke:#bfbfbf;" points="202,-0 202,-20 242,-20 242,-0 202,-0"/>
<text text-anchor="middle" x="222" y="-7" style="font-family:Arial;font-size:10.00;">string</text>
</g>
<!-- Node7&#45;&gt;Node8 -->
<g id="edge18" class="edge"><title>Node7&#45;&gt;Node8</title>
<path style="fill:none;stroke:midnightblue;" d="M273,-56C264,-48 251,-37 241,-27"/>
<polygon style="fill:midnightblue;stroke:midnightblue;" points="242.831,-23.9511 233,-20 238.221,-29.2191 242.831,-23.9511"/>
</g>
<!-- Node7&#45;&gt;Node9 -->
<g id="edge22" class="edge"><title>Node7&#45;&gt;Node9</title>
<path style="fill:none;stroke:midnightblue;" d="M396,-60C503,-53 667,-41 820,-19"/>
<polygon style="fill:midnightblue;stroke:midnightblue;" points="820.398,-22.4778 830,-18 819.701,-15.5125 820.398,-22.4778"/>
</g>
</g>
</svg>
