<?xml version="1.0" encoding="UTF-8" standalone="no"?>
<!DOCTYPE svg PUBLIC "-//W3C//DTD SVG 1.0//EN"
 "http://www.w3.org/TR/2001/REC-SVG-20010904/DTD/svg10.dtd" [
 <!ATTLIST svg xmlns:xlink CDATA #FIXED "http://www.w3.org/1999/xlink">
]>
<!-- Generated by Graphviz version 2.20.2 (Tue Mar &#160;2 19:03:41 UTC 2010)
     For user: (jenkins)  -->
<!-- Title: G Pages: 1 -->
<svg width="1690pt" height="420pt"
 viewBox="0.00 0.00 1690.00 420.00" xmlns="http://www.w3.org/2000/svg" xmlns:xlink="http://www.w3.org/1999/xlink">
<g id="graph0" class="graph" transform="scale(1 1) rotate(0) translate(4 416)">
<title>G</title>
<polygon style="fill:white;stroke:white;" points="-4,4 -4,-416 1686,-416 1686,4 -4,4"/>
<!-- Node1 -->
<g id="node1" class="node"><title>Node1</title>
<polygon style="fill:#bfbfbf;stroke:black;" points="381,-392 381,-412 552,-412 552,-392 381,-392"/>
<text text-anchor="middle" x="466" y="-399" style="font-family:Arial;font-size:10.00;">ltr/measures/normalized_measure.h</text>
</g>
<!-- Node2 -->
<g id="node3" class="node"><title>Node2</title>
<polygon style="fill:white;stroke:#bfbfbf;" points="321,-224 321,-244 372,-244 372,-224 321,-224"/>
<text text-anchor="middle" x="346" y="-231" style="font-family:Arial;font-size:10.00;">sstream</text>
</g>
<!-- Node1&#45;&gt;Node2 -->
<g id="edge2" class="edge"><title>Node1&#45;&gt;Node2</title>
<path style="fill:none;stroke:midnightblue;" d="M459,-392C440,-364 385,-288 359,-252"/>
<polygon style="fill:midnightblue;stroke:midnightblue;" points="361.8,-249.9 353,-244 356.2,-254.1 361.8,-249.9"/>
</g>
<!-- Node3 -->
<g id="node5" class="node"><title>Node3</title>
<polygon style="fill:white;stroke:#bfbfbf;" points="904,-0 904,-20 944,-20 944,-0 904,-0"/>
<text text-anchor="middle" x="924" y="-7" style="font-family:Arial;font-size:10.00;">string</text>
</g>
<!-- Node1&#45;&gt;Node3 -->
<g id="edge4" class="edge"><title>Node1&#45;&gt;Node3</title>
<path style="fill:none;stroke:midnightblue;" d="M552,-399C830,-387 1682,-346 1682,-290 1682,-290 1682,-290 1682,-122 1682,-45 1597,-73 1523,-56 1413,-29 1060,-15 954,-11"/>
<polygon style="fill:midnightblue;stroke:midnightblue;" points="954,-7.5001 944,-11 954,-14.5001 954,-7.5001"/>
</g>
<!-- Node4 -->
<g id="node7" class="node"><title>Node4</title>
<a xlink:href="numerical_8h.html" target="_top" xlink:title="ltr/utility/numerical.h">
<polygon style="fill:white;stroke:black;" points="9,-280 9,-300 113,-300 113,-280 9,-280"/>
<text text-anchor="middle" x="61" y="-287" style="font-family:Arial;font-size:10.00;">ltr/utility/numerical.h</text>
</a>
</g>
<!-- Node1&#45;&gt;Node4 -->
<g id="edge6" class="edge"><title>Node1&#45;&gt;Node4</title>
<path style="fill:none;stroke:midnightblue;" d="M406,-392C360,-384 296,-371 241,-356 190,-340 131,-318 95,-304"/>
<polygon style="fill:midnightblue;stroke:midnightblue;" points="95.5847,-300.464 85,-300 92.9849,-306.964 95.5847,-300.464"/>
</g>
<!-- Node7 -->
<g id="node13" class="node"><title>Node7</title>
<a xlink:href="measure_8h.html" target="_top" xlink:title="ltr/measures/measure.h">
<polygon style="fill:white;stroke:black;" points="618,-336 618,-356 737,-356 737,-336 618,-336"/>
<text text-anchor="middle" x="677" y="-343" style="font-family:Arial;font-size:10.00;">ltr/measures/measure.h</text>
</a>
</g>
<!-- Node1&#45;&gt;Node7 -->
<g id="edge12" class="edge"><title>Node1&#45;&gt;Node7</title>
<path style="fill:none;stroke:midnightblue;" d="M504,-392C539,-383 591,-369 629,-359"/>
<polygon style="fill:midnightblue;stroke:midnightblue;" points="630.427,-362.226 639,-356 628.416,-355.521 630.427,-362.226"/>
</g>
<!-- Node5 -->
<g id="node9" class="node"><title>Node5</title>
<polygon style="fill:white;stroke:#bfbfbf;" points="56,-224 56,-244 99,-244 99,-224 56,-224"/>
<text text-anchor="middle" x="77" y="-231" style="font-family:Arial;font-size:10.00;">cmath</text>
</g>
<!-- Node4&#45;&gt;Node5 -->
<g id="edge8" class="edge"><title>Node4&#45;&gt;Node5</title>
<path style="fill:none;stroke:midnightblue;" d="M64,-280C65,-273 68,-263 71,-254"/>
<polygon style="fill:midnightblue;stroke:midnightblue;" points="74.4788,-254.584 74,-244 67.7741,-252.573 74.4788,-254.584"/>
</g>
<!-- Node6 -->
<g id="node11" class="node"><title>Node6</title>
<polygon style="fill:white;stroke:#bfbfbf;" points="0,-224 0,-244 39,-244 39,-224 0,-224"/>
<text text-anchor="middle" x="19" y="-231" style="font-family:Arial;font-size:10.00;">limits</text>
</g>
<!-- Node4&#45;&gt;Node6 -->
<g id="edge10" class="edge"><title>Node4&#45;&gt;Node6</title>
<path style="fill:none;stroke:midnightblue;" d="M53,-280C47,-272 39,-262 33,-253"/>
<polygon style="fill:midnightblue;stroke:midnightblue;" points="35.4592,-250.379 27,-244 29.6349,-254.262 35.4592,-250.379"/>
</g>
<!-- Node7&#45;&gt;Node3 -->
<g id="edge22" class="edge"><title>Node7&#45;&gt;Node3</title>
<path style="fill:none;stroke:midnightblue;" d="M737,-345C890,-344 1291,-335 1419,-300 1470,-285 1492,-285 1526,-244 1545,-220 1545,-208 1545,-178 1545,-178 1545,-178 1545,-122 1545,-84 1525,-73 1493,-56 1446,-31 1066,-15 954,-11"/>
<polygon style="fill:midnightblue;stroke:midnightblue;" points="954,-7.5001 944,-11 954,-14.5001 954,-7.5001"/>
</g>
<!-- Node7&#45;&gt;Node4 -->
<g id="edge152" class="edge"><title>Node7&#45;&gt;Node4</title>
<path style="fill:none;stroke:midnightblue;" d="M618,-342C517,-336 305,-320 127,-300 126,-300 124,-299 123,-299"/>
<polygon style="fill:midnightblue;stroke:midnightblue;" points="123.299,-295.512 113,-298 122.602,-302.478 123.299,-295.512"/>
</g>
<!-- Node8 -->
<g id="node15" class="node"><title>Node8</title>
<polygon style="fill:white;stroke:#bfbfbf;" points="1390,-56 1390,-76 1464,-76 1464,-56 1390,-56"/>
<text text-anchor="middle" x="1427" y="-63" style="font-family:Arial;font-size:10.00;">logog/logog.h</text>
</g>
<!-- Node7&#45;&gt;Node8 -->
<g id="edge14" class="edge"><title>Node7&#45;&gt;Node8</title>
<path style="fill:none;stroke:midnightblue;" d="M737,-343C842,-338 1052,-325 1122,-300 1251,-252 1370,-130 1411,-84"/>
<polygon style="fill:midnightblue;stroke:midnightblue;" points="1414.05,-85.8306 1418,-76 1408.78,-81.221 1414.05,-85.8306"/>
</g>
<!-- Node9 -->
<g id="node17" class="node"><title>Node9</title>
<polygon style="fill:white;stroke:#bfbfbf;" points="1540,-280 1540,-300 1654,-300 1654,-280 1540,-280"/>
<text text-anchor="middle" x="1597" y="-287" style="font-family:Arial;font-size:10.00;">boost/lexical_cast.hpp</text>
</g>
<!-- Node7&#45;&gt;Node9 -->
<g id="edge16" class="edge"><title>Node7&#45;&gt;Node9</title>
<path style="fill:none;stroke:midnightblue;" d="M737,-344C876,-340 1230,-328 1526,-300 1527,-300 1529,-299 1530,-299"/>
<polygon style="fill:midnightblue;stroke:midnightblue;" points="1530.4,-302.478 1540,-298 1529.7,-295.512 1530.4,-302.478"/>
</g>
<!-- Node10 -->
<g id="node19" class="node"><title>Node10</title>
<polygon style="fill:white;stroke:#bfbfbf;" points="103,-0 103,-20 159,-20 159,-0 103,-0"/>
<text text-anchor="middle" x="131" y="-7" style="font-family:Arial;font-size:10.00;">algorithm</text>
</g>
<!-- Node7&#45;&gt;Node10 -->
<g id="edge18" class="edge"><title>Node7&#45;&gt;Node10</title>
<path style="fill:none;stroke:midnightblue;" d="M618,-345C508,-343 277,-334 206,-300 169,-282 141,-275 141,-234 141,-234 141,-234 141,-122 141,-89 137,-53 134,-30"/>
<polygon style="fill:midnightblue;stroke:midnightblue;" points="137.478,-29.6021 133,-20 130.512,-30.2987 137.478,-29.6021"/>
</g>
<!-- Node11 -->
<g id="node21" class="node"><title>Node11</title>
<polygon style="fill:white;stroke:#bfbfbf;" points="952,-56 952,-76 1011,-76 1011,-56 952,-56"/>
<text text-anchor="middle" x="981" y="-63" style="font-family:Arial;font-size:10.00;">stdexcept</text>
</g>
<!-- Node7&#45;&gt;Node11 -->
<g id="edge20" class="edge"><title>Node7&#45;&gt;Node11</title>
<path style="fill:none;stroke:midnightblue;" d="M737,-342C825,-332 984,-298 1045,-188 1052,-174 1051,-134 1039,-112 1032,-99 1020,-89 1010,-82"/>
<polygon style="fill:midnightblue;stroke:midnightblue;" points="1011.26,-78.6349 1001,-76 1007.38,-84.4592 1011.26,-78.6349"/>
</g>
<!-- Node12 -->
<g id="node24" class="node"><title>Node12</title>
<a xlink:href="object_8h.html" target="_top" xlink:title="ltr/data/object.h">
<polygon style="fill:white;stroke:black;" points="397,-112 397,-132 481,-132 481,-112 397,-112"/>
<text text-anchor="middle" x="439" y="-119" style="font-family:Arial;font-size:10.00;">ltr/data/object.h</text>
</a>
</g>
<!-- Node7&#45;&gt;Node12 -->
<g id="edge24" class="edge"><title>Node7&#45;&gt;Node12</title>
<path style="fill:none;stroke:midnightblue;" d="M618,-338C524,-325 348,-293 312,-244 279,-199 355,-157 404,-136"/>
<polygon style="fill:midnightblue;stroke:midnightblue;" points="405.283,-139.26 413,-132 402.44,-132.863 405.283,-139.26"/>
</g>
<!-- Node16 -->
<g id="node34" class="node"><title>Node16</title>
<a xlink:href="printable_8h.html" target="_top" xlink:title="ltr/interfaces/printable.h">
<polygon style="fill:white;stroke:black;" points="467,-56 467,-76 584,-76 584,-56 467,-56"/>
<text text-anchor="middle" x="525" y="-63" style="font-family:Arial;font-size:10.00;">ltr/interfaces/printable.h</text>
</a>
</g>
<!-- Node7&#45;&gt;Node16 -->
<g id="edge146" class="edge"><title>Node7&#45;&gt;Node16</title>
<path style="fill:none;stroke:midnightblue;" d="M618,-341C542,-333 414,-318 371,-300 335,-284 319,-279 302,-244 272,-180 327,-145 388,-112 415,-98 447,-87 473,-79"/>
<polygon style="fill:midnightblue;stroke:midnightblue;" points="474.427,-82.2259 483,-76 472.416,-75.5212 474.427,-82.2259"/>
</g>
<!-- Node17 -->
<g id="node38" class="node"><title>Node17</title>
<a xlink:href="shared__ptr_8h.html" target="_top" xlink:title="ltr/utility/shared_ptr.h">
<polygon style="fill:white;stroke:black;" points="229,-56 229,-76 336,-76 336,-56 229,-56"/>
<text text-anchor="middle" x="282" y="-63" style="font-family:Arial;font-size:10.00;">ltr/utility/shared_ptr.h</text>
</a>
</g>
<!-- Node7&#45;&gt;Node17 -->
<g id="edge154" class="edge"><title>Node7&#45;&gt;Node17</title>
<path style="fill:none;stroke:midnightblue;" d="M618,-343C548,-339 428,-328 329,-300 259,-280 179,-306 179,-234 179,-234 179,-234 179,-178 179,-134 223,-100 253,-81"/>
<polygon style="fill:midnightblue;stroke:midnightblue;" points="254.958,-83.916 262,-76 251.559,-77.7969 254.958,-83.916"/>
</g>
<!-- Node20 -->
<g id="node45" class="node"><title>Node20</title>
<a xlink:href="object__list_8h.html" target="_top" xlink:title="ltr/data/object_list.h">
<polygon style="fill:white;stroke:black;" points="607,-168 607,-188 709,-188 709,-168 607,-168"/>
<text text-anchor="middle" x="658" y="-175" style="font-family:Arial;font-size:10.00;">ltr/data/object_list.h</text>
</a>
</g>
<!-- Node7&#45;&gt;Node20 -->
<g id="edge50" class="edge"><title>Node7&#45;&gt;Node20</title>
<path style="fill:none;stroke:midnightblue;" d="M672,-336C667,-327 661,-313 659,-300 652,-265 653,-223 656,-198"/>
<polygon style="fill:midnightblue;stroke:midnightblue;" points="659.488,-198.299 657,-188 652.522,-197.602 659.488,-198.299"/>
</g>
<!-- Node21 -->
<g id="node53" class="node"><title>Node21</title>
<a xlink:href="object__pair_8h.html" target="_top" xlink:title="ltr/data/object_pair.h">
<polygon style="fill:white;stroke:black;" points="485,-168 485,-188 589,-188 589,-168 485,-168"/>
<text text-anchor="middle" x="537" y="-175" style="font-family:Arial;font-size:10.00;">ltr/data/object_pair.h</text>
</a>
</g>
<!-- Node7&#45;&gt;Node21 -->
<g id="edge64" class="edge"><title>Node7&#45;&gt;Node21</title>
<path style="fill:none;stroke:midnightblue;" d="M618,-337C565,-325 491,-299 456,-244 442,-222 470,-203 497,-192"/>
<polygon style="fill:midnightblue;stroke:midnightblue;" points="498.283,-195.26 506,-188 495.44,-188.863 498.283,-195.26"/>
</g>
<!-- Node22 -->
<g id="node61" class="node"><title>Node22</title>
<a xlink:href="data__set_8h.html" target="_top" xlink:title="ltr/data/data_set.h">
<polygon style="fill:white;stroke:black;" points="668,-280 668,-300 763,-300 763,-280 668,-280"/>
<text text-anchor="middle" x="715" y="-287" style="font-family:Arial;font-size:10.00;">ltr/data/data_set.h</text>
</a>
</g>
<!-- Node7&#45;&gt;Node22 -->
<g id="edge78" class="edge"><title>Node7&#45;&gt;Node22</title>
<path style="fill:none;stroke:midnightblue;" d="M684,-336C689,-328 696,-318 702,-309"/>
<polygon style="fill:midnightblue;stroke:midnightblue;" points="705.365,-310.262 708,-300 699.541,-306.379 705.365,-310.262"/>
</g>
<!-- Node24 -->
<g id="node75" class="node"><title>Node24</title>
<a xlink:href="parameterized_8h.html" target="_top" xlink:title="ltr/interfaces/parameterized.h">
<polygon style="fill:white;stroke:black;" points="879,-168 879,-188 1021,-188 1021,-168 879,-168"/>
<text text-anchor="middle" x="950" y="-175" style="font-family:Arial;font-size:10.00;">ltr/interfaces/parameterized.h</text>
</a>
</g>
<!-- Node7&#45;&gt;Node24 -->
<g id="edge148" class="edge"><title>Node7&#45;&gt;Node24</title>
<path style="fill:none;stroke:midnightblue;" d="M707,-336C750,-321 831,-288 891,-244 909,-230 926,-210 937,-196"/>
<polygon style="fill:midnightblue;stroke:midnightblue;" points="939.8,-198.1 943,-188 934.2,-193.9 939.8,-198.1"/>
</g>
<!-- Node25 -->
<g id="node79" class="node"><title>Node25</title>
<a xlink:href="parameters__container_8h.html" target="_top" xlink:title="ltr/parameters_container/parameters_container.h">
<polygon style="fill:white;stroke:black;" points="1107,-112 1107,-132 1332,-132 1332,-112 1107,-112"/>
<text text-anchor="middle" x="1219" y="-119" style="font-family:Arial;font-size:10.00;">ltr/parameters_container/parameters_container.h</text>
</a>
</g>
<!-- Node7&#45;&gt;Node25 -->
<g id="edge150" class="edge"><title>Node7&#45;&gt;Node25</title>
<path style="fill:none;stroke:midnightblue;" d="M737,-342C847,-335 1070,-318 1101,-300 1162,-263 1198,-180 1213,-142"/>
<polygon style="fill:midnightblue;stroke:midnightblue;" points="1216.48,-142.584 1216,-132 1209.77,-140.573 1216.48,-142.584"/>
</g>
<!-- Node30 -->
<g id="node100" class="node"><title>Node30</title>
<a xlink:href="aliaser_8h.html" target="_top" xlink:title="ltr/interfaces/aliaser.h">
<polygon style="fill:white;stroke:black;" points="1409,-224 1409,-244 1517,-244 1517,-224 1409,-224"/>
<text text-anchor="middle" x="1463" y="-231" style="font-family:Arial;font-size:10.00;">ltr/interfaces/aliaser.h</text>
</a>
</g>
<!-- Node7&#45;&gt;Node30 -->
<g id="edge144" class="edge"><title>Node7&#45;&gt;Node30</title>
<path style="fill:none;stroke:midnightblue;" d="M737,-344C899,-340 1335,-326 1395,-300 1418,-289 1437,-268 1450,-252"/>
<polygon style="fill:midnightblue;stroke:midnightblue;" points="1452.8,-254.1 1456,-244 1447.2,-249.9 1452.8,-254.1"/>
</g>
<!-- Node12&#45;&gt;Node3 -->
<g id="edge32" class="edge"><title>Node12&#45;&gt;Node3</title>
<path style="fill:none;stroke:midnightblue;" d="M439,-112C439,-97 442,-69 458,-56 491,-27 796,-15 894,-11"/>
<polygon style="fill:midnightblue;stroke:midnightblue;" points="894,-14.5001 904,-11 894,-7.5001 894,-14.5001"/>
</g>
<!-- Node12&#45;&gt;Node11 -->
<g id="edge30" class="edge"><title>Node12&#45;&gt;Node11</title>
<path style="fill:none;stroke:midnightblue;" d="M481,-118C582,-106 842,-80 942,-70"/>
<polygon style="fill:midnightblue;stroke:midnightblue;" points="942.398,-73.4778 952,-69 941.701,-66.5125 942.398,-73.4778"/>
</g>
<!-- Node13 -->
<g id="node26" class="node"><title>Node13</title>
<polygon style="fill:white;stroke:#bfbfbf;" points="639,-56 639,-76 674,-76 674,-56 639,-56"/>
<text text-anchor="middle" x="656" y="-63" style="font-family:Arial;font-size:10.00;">map</text>
</g>
<!-- Node12&#45;&gt;Node13 -->
<g id="edge26" class="edge"><title>Node12&#45;&gt;Node13</title>
<path style="fill:none;stroke:midnightblue;" d="M478,-112C521,-101 591,-83 629,-73"/>
<polygon style="fill:midnightblue;stroke:midnightblue;" points="630.427,-76.2259 639,-70 628.416,-69.5212 630.427,-76.2259"/>
</g>
<!-- Node14 -->
<g id="node28" class="node"><title>Node14</title>
<polygon style="fill:white;stroke:#bfbfbf;" points="509,-0 509,-20 560,-20 560,-0 509,-0"/>
<text text-anchor="middle" x="534" y="-7" style="font-family:Arial;font-size:10.00;">ostream</text>
</g>
<!-- Node12&#45;&gt;Node14 -->
<g id="edge28" class="edge"><title>Node12&#45;&gt;Node14</title>
<path style="fill:none;stroke:midnightblue;" d="M433,-112C425,-98 414,-73 425,-56 430,-50 469,-34 499,-22"/>
<polygon style="fill:midnightblue;stroke:midnightblue;" points="500.427,-25.2259 509,-19 498.416,-18.5212 500.427,-25.2259"/>
</g>
<!-- Node15 -->
<g id="node32" class="node"><title>Node15</title>
<polygon style="fill:white;stroke:#bfbfbf;" points="691,-56 691,-76 733,-76 733,-56 691,-56"/>
<text text-anchor="middle" x="712" y="-63" style="font-family:Arial;font-size:10.00;">vector</text>
</g>
<!-- Node12&#45;&gt;Node15 -->
<g id="edge34" class="edge"><title>Node12&#45;&gt;Node15</title>
<path style="fill:none;stroke:midnightblue;" d="M481,-116C528,-108 605,-95 681,-76"/>
<polygon style="fill:midnightblue;stroke:midnightblue;" points="682.427,-79.2259 691,-73 680.416,-72.5212 682.427,-79.2259"/>
</g>
<!-- Node12&#45;&gt;Node16 -->
<g id="edge36" class="edge"><title>Node12&#45;&gt;Node16</title>
<path style="fill:none;stroke:midnightblue;" d="M454,-112C467,-104 486,-91 501,-82"/>
<polygon style="fill:midnightblue;stroke:midnightblue;" points="503.1,-84.8 509,-76 498.9,-79.2 503.1,-84.8"/>
</g>
<!-- Node12&#45;&gt;Node17 -->
<g id="edge42" class="edge"><title>Node12&#45;&gt;Node17</title>
<path style="fill:none;stroke:midnightblue;" d="M411,-112C386,-103 348,-89 320,-79"/>
<polygon style="fill:midnightblue;stroke:midnightblue;" points="320.584,-75.5212 310,-76 318.573,-82.2259 320.584,-75.5212"/>
</g>
<!-- Node16&#45;&gt;Node3 -->
<g id="edge40" class="edge"><title>Node16&#45;&gt;Node3</title>
<path style="fill:none;stroke:midnightblue;" d="M584,-58C670,-46 828,-24 894,-14"/>
<polygon style="fill:midnightblue;stroke:midnightblue;" points="894.398,-17.4778 904,-13 893.701,-10.5125 894.398,-17.4778"/>
</g>
<!-- Node16&#45;&gt;Node14 -->
<g id="edge38" class="edge"><title>Node16&#45;&gt;Node14</title>
<path style="fill:none;stroke:midnightblue;" d="M527,-56C528,-49 529,-39 531,-30"/>
<polygon style="fill:midnightblue;stroke:midnightblue;" points="534.488,-30.2987 532,-20 527.522,-29.6021 534.488,-30.2987"/>
</g>
<!-- Node17&#45;&gt;Node10 -->
<g id="edge44" class="edge"><title>Node17&#45;&gt;Node10</title>
<path style="fill:none;stroke:midnightblue;" d="M255,-56C231,-47 195,-33 168,-23"/>
<polygon style="fill:midnightblue;stroke:midnightblue;" points="168.584,-19.5212 158,-20 166.573,-26.2259 168.584,-19.5212"/>
</g>
<!-- Node18 -->
<g id="node41" class="node"><title>Node18</title>
<polygon style="fill:white;stroke:#bfbfbf;" points="385,-0 385,-20 492,-20 492,-0 385,-0"/>
<text text-anchor="middle" x="438" y="-7" style="font-family:Arial;font-size:10.00;">boost/shared_ptr.hpp</text>
</g>
<!-- Node17&#45;&gt;Node18 -->
<g id="edge46" class="edge"><title>Node17&#45;&gt;Node18</title>
<path style="fill:none;stroke:midnightblue;" d="M310,-56C335,-47 373,-33 400,-23"/>
<polygon style="fill:midnightblue;stroke:midnightblue;" points="401.427,-26.2259 410,-20 399.416,-19.5212 401.427,-26.2259"/>
</g>
<!-- Node19 -->
<g id="node43" class="node"><title>Node19</title>
<polygon style="fill:white;stroke:#bfbfbf;" points="177,-0 177,-20 368,-20 368,-0 177,-0"/>
<text text-anchor="middle" x="272" y="-7" style="font-family:Arial;font-size:10.00;">boost/smart_ptr/detail/operator_bool.hpp</text>
</g>
<!-- Node17&#45;&gt;Node19 -->
<g id="edge48" class="edge"><title>Node17&#45;&gt;Node19</title>
<path style="fill:none;stroke:midnightblue;" d="M280,-56C279,-49 277,-39 275,-30"/>
<polygon style="fill:midnightblue;stroke:midnightblue;" points="278.478,-29.6021 274,-20 271.512,-30.2987 278.478,-29.6021"/>
</g>
<!-- Node20&#45;&gt;Node3 -->
<g id="edge54" class="edge"><title>Node20&#45;&gt;Node3</title>
<path style="fill:none;stroke:midnightblue;" d="M674,-168C718,-140 845,-59 899,-25"/>
<polygon style="fill:midnightblue;stroke:midnightblue;" points="900.958,-27.916 908,-20 897.559,-21.7969 900.958,-27.916"/>
</g>
<!-- Node20&#45;&gt;Node11 -->
<g id="edge52" class="edge"><title>Node20&#45;&gt;Node11</title>
<path style="fill:none;stroke:midnightblue;" d="M687,-168C745,-147 877,-102 942,-79"/>
<polygon style="fill:midnightblue;stroke:midnightblue;" points="943.427,-82.2259 952,-76 941.416,-75.5212 943.427,-82.2259"/>
</g>
<!-- Node20&#45;&gt;Node12 -->
<g id="edge58" class="edge"><title>Node20&#45;&gt;Node12</title>
<path style="fill:none;stroke:midnightblue;" d="M619,-168C582,-159 527,-144 488,-134"/>
<polygon style="fill:midnightblue;stroke:midnightblue;" points="488.492,-130.529 478,-132 487.119,-137.393 488.492,-130.529"/>
</g>
<!-- Node20&#45;&gt;Node15 -->
<g id="edge56" class="edge"><title>Node20&#45;&gt;Node15</title>
<path style="fill:none;stroke:midnightblue;" d="M663,-168C672,-149 691,-110 703,-85"/>
<polygon style="fill:midnightblue;stroke:midnightblue;" points="706.137,-86.5596 707,-76 699.74,-83.7166 706.137,-86.5596"/>
</g>
<!-- Node20&#45;&gt;Node16 -->
<g id="edge60" class="edge"><title>Node20&#45;&gt;Node16</title>
<path style="fill:none;stroke:midnightblue;" d="M646,-168C623,-148 573,-106 545,-83"/>
<polygon style="fill:midnightblue;stroke:midnightblue;" points="546.831,-79.9511 537,-76 542.221,-85.2191 546.831,-79.9511"/>
</g>
<!-- Node20&#45;&gt;Node17 -->
<g id="edge62" class="edge"><title>Node20&#45;&gt;Node17</title>
<path style="fill:none;stroke:midnightblue;" d="M607,-169C529,-156 391,-133 388,-132 356,-120 323,-98 303,-82"/>
<polygon style="fill:midnightblue;stroke:midnightblue;" points="305.1,-79.2 295,-76 300.9,-84.8 305.1,-79.2"/>
</g>
<!-- Node21&#45;&gt;Node3 -->
<g id="edge68" class="edge"><title>Node21&#45;&gt;Node3</title>
<path style="fill:none;stroke:midnightblue;" d="M541,-168C552,-144 583,-83 630,-56 674,-29 828,-16 894,-12"/>
<polygon style="fill:midnightblue;stroke:midnightblue;" points="894.398,-15.4778 904,-11 893.701,-8.5125 894.398,-15.4778"/>
</g>
<!-- Node21&#45;&gt;Node11 -->
<g id="edge66" class="edge"><title>Node21&#45;&gt;Node11</title>
<path style="fill:none;stroke:midnightblue;" d="M573,-168C621,-155 709,-130 785,-112 839,-98 902,-84 942,-74"/>
<polygon style="fill:midnightblue;stroke:midnightblue;" points="942.881,-77.3933 952,-72 941.508,-70.5292 942.881,-77.3933"/>
</g>
<!-- Node21&#45;&gt;Node12 -->
<g id="edge72" class="edge"><title>Node21&#45;&gt;Node12</title>
<path style="fill:none;stroke:midnightblue;" d="M519,-168C504,-160 482,-147 466,-137"/>
<polygon style="fill:midnightblue;stroke:midnightblue;" points="467.441,-133.797 457,-132 464.042,-139.916 467.441,-133.797"/>
</g>
<!-- Node21&#45;&gt;Node15 -->
<g id="edge70" class="edge"><title>Node21&#45;&gt;Node15</title>
<path style="fill:none;stroke:midnightblue;" d="M553,-168C583,-148 651,-104 688,-81"/>
<polygon style="fill:midnightblue;stroke:midnightblue;" points="689.375,-84.268 696,-76 685.665,-78.332 689.375,-84.268"/>
</g>
<!-- Node21&#45;&gt;Node16 -->
<g id="edge74" class="edge"><title>Node21&#45;&gt;Node16</title>
<path style="fill:none;stroke:midnightblue;" d="M536,-168C534,-149 530,-110 527,-86"/>
<polygon style="fill:midnightblue;stroke:midnightblue;" points="530.478,-85.6021 526,-76 523.512,-86.2987 530.478,-85.6021"/>
</g>
<!-- Node21&#45;&gt;Node17 -->
<g id="edge76" class="edge"><title>Node21&#45;&gt;Node17</title>
<path style="fill:none;stroke:midnightblue;" d="M485,-169C424,-159 330,-142 317,-132 303,-121 293,-101 288,-86"/>
<polygon style="fill:midnightblue;stroke:midnightblue;" points="291.226,-84.5725 285,-76 284.521,-86.584 291.226,-84.5725"/>
</g>
<!-- Node22&#45;&gt;Node2 -->
<g id="edge80" class="edge"><title>Node22&#45;&gt;Node2</title>
<path style="fill:none;stroke:midnightblue;" d="M668,-285C604,-278 485,-263 385,-244 384,-244 383,-244 382,-243"/>
<polygon style="fill:midnightblue;stroke:midnightblue;" points="382.492,-239.529 372,-241 381.119,-246.393 382.492,-239.529"/>
</g>
<!-- Node22&#45;&gt;Node3 -->
<g id="edge84" class="edge"><title>Node22&#45;&gt;Node3</title>
<path style="fill:none;stroke:midnightblue;" d="M763,-285C897,-271 1267,-223 1340,-132 1360,-105 1365,-81 1343,-56 1316,-27 1046,-14 954,-11"/>
<polygon style="fill:midnightblue;stroke:midnightblue;" points="954,-7.5001 944,-11 954,-14.5001 954,-7.5001"/>
</g>
<!-- Node22&#45;&gt;Node11 -->
<g id="edge82" class="edge"><title>Node22&#45;&gt;Node11</title>
<path style="fill:none;stroke:midnightblue;" d="M763,-282C843,-266 998,-232 1030,-188 1053,-155 1020,-109 998,-84"/>
<polygon style="fill:midnightblue;stroke:midnightblue;" points="1000.22,-81.221 991,-76 994.951,-85.8306 1000.22,-81.221"/>
</g>
<!-- Node22&#45;&gt;Node12 -->
<g id="edge88" class="edge"><title>Node22&#45;&gt;Node12</title>
<path style="fill:none;stroke:midnightblue;" d="M668,-288C601,-284 484,-274 456,-244 431,-217 432,-169 435,-142"/>
<polygon style="fill:midnightblue;stroke:midnightblue;" points="438.471,-142.492 437,-132 431.607,-141.119 438.471,-142.492"/>
</g>
<!-- Node22&#45;&gt;Node15 -->
<g id="edge86" class="edge"><title>Node22&#45;&gt;Node15</title>
<path style="fill:none;stroke:midnightblue;" d="M763,-280C800,-272 846,-259 858,-244 903,-181 795,-111 741,-81"/>
<polygon style="fill:midnightblue;stroke:midnightblue;" points="742.441,-77.7969 732,-76 739.042,-83.916 742.441,-77.7969"/>
</g>
<!-- Node22&#45;&gt;Node20 -->
<g id="edge90" class="edge"><title>Node22&#45;&gt;Node20</title>
<path style="fill:none;stroke:midnightblue;" d="M712,-280C708,-266 701,-242 691,-224 686,-214 679,-204 673,-196"/>
<polygon style="fill:midnightblue;stroke:midnightblue;" points="675.8,-193.9 667,-188 670.2,-198.1 675.8,-193.9"/>
</g>
<!-- Node22&#45;&gt;Node21 -->
<g id="edge92" class="edge"><title>Node22&#45;&gt;Node21</title>
<path style="fill:none;stroke:midnightblue;" d="M701,-280C683,-267 649,-242 620,-224 602,-212 582,-201 566,-193"/>
<polygon style="fill:midnightblue;stroke:midnightblue;" points="567.441,-189.797 557,-188 564.042,-195.916 567.441,-189.797"/>
</g>
<!-- Node23 -->
<g id="node70" class="node"><title>Node23</title>
<a xlink:href="feature__info_8h.html" target="_top" xlink:title="ltr/data/feature_info.h">
<polygon style="fill:white;stroke:black;" points="743,-224 743,-244 850,-244 850,-224 743,-224"/>
<text text-anchor="middle" x="796" y="-231" style="font-family:Arial;font-size:10.00;">ltr/data/feature_info.h</text>
</a>
</g>
<!-- Node22&#45;&gt;Node23 -->
<g id="edge94" class="edge"><title>Node22&#45;&gt;Node23</title>
<path style="fill:none;stroke:midnightblue;" d="M729,-280C741,-272 759,-260 773,-250"/>
<polygon style="fill:midnightblue;stroke:midnightblue;" points="775.1,-252.8 781,-244 770.9,-247.2 775.1,-252.8"/>
</g>
<!-- Node29 -->
<g id="node93" class="node"><title>Node29</title>
<a xlink:href="per__object__accessor_8h.html" target="_top" xlink:title="ltr/data/per_object_accessor.h">
<polygon style="fill:white;stroke:black;" points="465,-224 465,-244 612,-244 612,-224 465,-224"/>
<text text-anchor="middle" x="538" y="-231" style="font-family:Arial;font-size:10.00;">ltr/data/per_object_accessor.h</text>
</a>
</g>
<!-- Node22&#45;&gt;Node29 -->
<g id="edge128" class="edge"><title>Node22&#45;&gt;Node29</title>
<path style="fill:none;stroke:midnightblue;" d="M683,-280C654,-271 611,-257 580,-247"/>
<polygon style="fill:midnightblue;stroke:midnightblue;" points="580.584,-243.521 570,-244 578.573,-250.226 580.584,-243.521"/>
</g>
<!-- Node22&#45;&gt;Node30 -->
<g id="edge140" class="edge"><title>Node22&#45;&gt;Node30</title>
<path style="fill:none;stroke:midnightblue;" d="M763,-287C870,-280 1135,-262 1357,-244 1371,-243 1385,-242 1399,-240"/>
<polygon style="fill:midnightblue;stroke:midnightblue;" points="1399.4,-243.478 1409,-239 1398.7,-236.512 1399.4,-243.478"/>
</g>
<!-- Node23&#45;&gt;Node3 -->
<g id="edge98" class="edge"><title>Node23&#45;&gt;Node3</title>
<path style="fill:none;stroke:midnightblue;" d="M802,-224C822,-189 887,-74 913,-29"/>
<polygon style="fill:midnightblue;stroke:midnightblue;" points="916.203,-30.4414 918,-20 910.084,-27.0418 916.203,-30.4414"/>
</g>
<!-- Node23&#45;&gt;Node13 -->
<g id="edge96" class="edge"><title>Node23&#45;&gt;Node13</title>
<path style="fill:none;stroke:midnightblue;" d="M788,-224C765,-196 701,-119 672,-84"/>
<polygon style="fill:midnightblue;stroke:midnightblue;" points="674.219,-81.221 665,-76 668.951,-85.8306 674.219,-81.221"/>
</g>
<!-- Node23&#45;&gt;Node15 -->
<g id="edge100" class="edge"><title>Node23&#45;&gt;Node15</title>
<path style="fill:none;stroke:midnightblue;" d="M791,-224C777,-197 739,-121 721,-85"/>
<polygon style="fill:midnightblue;stroke:midnightblue;" points="724.26,-83.7166 717,-76 717.863,-86.5596 724.26,-83.7166"/>
</g>
<!-- Node23&#45;&gt;Node17 -->
<g id="edge126" class="edge"><title>Node23&#45;&gt;Node17</title>
<path style="fill:none;stroke:midnightblue;" d="M743,-231C627,-222 359,-196 298,-132 287,-119 283,-101 282,-86"/>
<polygon style="fill:midnightblue;stroke:midnightblue;" points="285.5,-86 282,-76 278.5,-86 285.5,-86"/>
</g>
<!-- Node23&#45;&gt;Node24 -->
<g id="edge102" class="edge"><title>Node23&#45;&gt;Node24</title>
<path style="fill:none;stroke:midnightblue;" d="M824,-224C849,-215 886,-201 913,-191"/>
<polygon style="fill:midnightblue;stroke:midnightblue;" points="914.427,-194.226 923,-188 912.416,-187.521 914.427,-194.226"/>
</g>
<!-- Node24&#45;&gt;Node3 -->
<g id="edge106" class="edge"><title>Node24&#45;&gt;Node3</title>
<path style="fill:none;stroke:midnightblue;" d="M948,-168C944,-141 933,-67 927,-30"/>
<polygon style="fill:midnightblue;stroke:midnightblue;" points="930.478,-29.6021 926,-20 923.512,-30.2987 930.478,-29.6021"/>
</g>
<!-- Node24&#45;&gt;Node11 -->
<g id="edge104" class="edge"><title>Node24&#45;&gt;Node11</title>
<path style="fill:none;stroke:midnightblue;" d="M958,-168C965,-159 974,-145 979,-132 983,-117 983,-100 983,-86"/>
<polygon style="fill:midnightblue;stroke:midnightblue;" points="986.478,-85.6021 982,-76 979.512,-86.2987 986.478,-85.6021"/>
</g>
<!-- Node24&#45;&gt;Node25 -->
<g id="edge108" class="edge"><title>Node24&#45;&gt;Node25</title>
<path style="fill:none;stroke:midnightblue;" d="M998,-168C1044,-159 1112,-144 1161,-134"/>
<polygon style="fill:midnightblue;stroke:midnightblue;" points="1161.88,-137.393 1171,-132 1160.51,-130.529 1161.88,-137.393"/>
</g>
<!-- Node25&#45;&gt;Node3 -->
<g id="edge116" class="edge"><title>Node25&#45;&gt;Node3</title>
<path style="fill:none;stroke:midnightblue;" d="M1175,-112C1142,-104 1096,-91 1057,-76 1039,-68 1036,-64 1019,-56 997,-45 972,-32 953,-23"/>
<polygon style="fill:midnightblue;stroke:midnightblue;" points="954.56,-19.8631 944,-19 951.717,-26.2598 954.56,-19.8631"/>
</g>
<!-- Node25&#45;&gt;Node8 -->
<g id="edge110" class="edge"><title>Node25&#45;&gt;Node8</title>
<path style="fill:none;stroke:midnightblue;" d="M1256,-112C1291,-103 1343,-89 1380,-79"/>
<polygon style="fill:midnightblue;stroke:midnightblue;" points="1381.43,-82.2259 1390,-76 1379.42,-75.5212 1381.43,-82.2259"/>
</g>
<!-- Node25&#45;&gt;Node11 -->
<g id="edge114" class="edge"><title>Node25&#45;&gt;Node11</title>
<path style="fill:none;stroke:midnightblue;" d="M1176,-112C1132,-102 1064,-86 1021,-75"/>
<polygon style="fill:midnightblue;stroke:midnightblue;" points="1021.49,-71.5292 1011,-73 1020.12,-78.3933 1021.49,-71.5292"/>
</g>
<!-- Node25&#45;&gt;Node16 -->
<g id="edge124" class="edge"><title>Node25&#45;&gt;Node16</title>
<path style="fill:none;stroke:midnightblue;" d="M1107,-114C988,-105 796,-90 630,-76 618,-74 606,-73 594,-72"/>
<polygon style="fill:midnightblue;stroke:midnightblue;" points="594.299,-68.5125 584,-71 593.602,-75.4778 594.299,-68.5125"/>
</g>
<!-- Node25&#45;&gt;Node17 -->
<g id="edge122" class="edge"><title>Node25&#45;&gt;Node17</title>
<path style="fill:none;stroke:midnightblue;" d="M1107,-115C909,-103 504,-79 346,-70"/>
<polygon style="fill:midnightblue;stroke:midnightblue;" points="346.299,-66.5125 336,-69 345.602,-73.4778 346.299,-66.5125"/>
</g>
<!-- Node26 -->
<g id="node82" class="node"><title>Node26</title>
<polygon style="fill:white;stroke:#bfbfbf;" points="1212,-56 1212,-76 1241,-76 1241,-56 1212,-56"/>
<text text-anchor="middle" x="1226" y="-63" style="font-family:Arial;font-size:10.00;">list</text>
</g>
<!-- Node25&#45;&gt;Node26 -->
<g id="edge112" class="edge"><title>Node25&#45;&gt;Node26</title>
<path style="fill:none;stroke:midnightblue;" d="M1220,-112C1221,-105 1222,-95 1223,-86"/>
<polygon style="fill:midnightblue;stroke:midnightblue;" points="1226.47,-86.4922 1225,-76 1219.61,-85.1194 1226.47,-86.4922"/>
</g>
<!-- Node27 -->
<g id="node86" class="node"><title>Node27</title>
<polygon style="fill:white;stroke:#bfbfbf;" points="1258,-56 1258,-76 1335,-76 1335,-56 1258,-56"/>
<text text-anchor="middle" x="1296" y="-63" style="font-family:Arial;font-size:10.00;">boost/any.hpp</text>
</g>
<!-- Node25&#45;&gt;Node27 -->
<g id="edge118" class="edge"><title>Node25&#45;&gt;Node27</title>
<path style="fill:none;stroke:midnightblue;" d="M1233,-112C1244,-104 1261,-92 1274,-82"/>
<polygon style="fill:midnightblue;stroke:midnightblue;" points="1276.1,-84.8 1282,-76 1271.9,-79.2 1276.1,-84.8"/>
</g>
<!-- Node28 -->
<g id="node88" class="node"><title>Node28</title>
<polygon style="fill:white;stroke:#bfbfbf;" points="1066,-56 1066,-76 1195,-76 1195,-56 1066,-56"/>
<text text-anchor="middle" x="1130" y="-63" style="font-family:Arial;font-size:10.00;">boost/unordered_map.hpp</text>
</g>
<!-- Node25&#45;&gt;Node28 -->
<g id="edge120" class="edge"><title>Node25&#45;&gt;Node28</title>
<path style="fill:none;stroke:midnightblue;" d="M1203,-112C1190,-104 1170,-91 1155,-81"/>
<polygon style="fill:midnightblue;stroke:midnightblue;" points="1156.44,-77.7969 1146,-76 1153.04,-83.916 1156.44,-77.7969"/>
</g>
<!-- Node29&#45;&gt;Node12 -->
<g id="edge130" class="edge"><title>Node29&#45;&gt;Node12</title>
<path style="fill:none;stroke:midnightblue;" d="M521,-224C507,-215 489,-202 476,-188 464,-174 454,-155 447,-141"/>
<polygon style="fill:midnightblue;stroke:midnightblue;" points="450.26,-139.717 443,-132 443.863,-142.56 450.26,-139.717"/>
</g>
<!-- Node29&#45;&gt;Node17 -->
<g id="edge138" class="edge"><title>Node29&#45;&gt;Node17</title>
<path style="fill:none;stroke:midnightblue;" d="M488,-224C411,-207 271,-172 241,-132 229,-115 245,-96 260,-82"/>
<polygon style="fill:midnightblue;stroke:midnightblue;" points="262.1,-84.8 268,-76 257.9,-79.2 262.1,-84.8"/>
</g>
<!-- Node29&#45;&gt;Node20 -->
<g id="edge134" class="edge"><title>Node29&#45;&gt;Node20</title>
<path style="fill:none;stroke:midnightblue;" d="M559,-224C578,-215 605,-202 627,-192"/>
<polygon style="fill:midnightblue;stroke:midnightblue;" points="628.283,-195.26 636,-188 625.44,-188.863 628.283,-195.26"/>
</g>
<!-- Node29&#45;&gt;Node21 -->
<g id="edge132" class="edge"><title>Node29&#45;&gt;Node21</title>
<path style="fill:none;stroke:midnightblue;" d="M538,-224C538,-217 538,-207 538,-198"/>
<polygon style="fill:midnightblue;stroke:midnightblue;" points="541.478,-197.602 537,-188 534.512,-198.299 541.478,-197.602"/>
</g>
<!-- Node29&#45;&gt;Node24 -->
<g id="edge136" class="edge"><title>Node29&#45;&gt;Node24</title>
<path style="fill:none;stroke:midnightblue;" d="M612,-224C684,-214 794,-199 869,-189"/>
<polygon style="fill:midnightblue;stroke:midnightblue;" points="869.398,-192.478 879,-188 868.701,-185.512 869.398,-192.478"/>
</g>
<!-- Node30&#45;&gt;Node3 -->
<g id="edge142" class="edge"><title>Node30&#45;&gt;Node3</title>
<path style="fill:none;stroke:midnightblue;" d="M1468,-224C1482,-194 1517,-104 1473,-56 1437,-17 1064,-11 954,-10"/>
<polygon style="fill:midnightblue;stroke:midnightblue;" points="954,-6.5001 944,-10 954,-13.5001 954,-6.5001"/>
</g>
</g>
</svg>
