<?xml version="1.0" encoding="UTF-8" standalone="no"?>
<!DOCTYPE svg PUBLIC "-//W3C//DTD SVG 1.0//EN"
 "http://www.w3.org/TR/2001/REC-SVG-20010904/DTD/svg10.dtd" [
 <!ATTLIST svg xmlns:xlink CDATA #FIXED "http://www.w3.org/1999/xlink">
]>
<!-- Generated by Graphviz version 2.20.2 (Tue Mar &#160;2 19:03:41 UTC 2010)
     For user: (jenkins)  -->
<!-- Title: G Pages: 1 -->
<svg width="658pt" height="140pt"
 viewBox="0.00 0.00 658.00 140.00" xmlns="http://www.w3.org/2000/svg" xmlns:xlink="http://www.w3.org/1999/xlink">
<g id="graph0" class="graph" transform="scale(1 1) rotate(0) translate(4 136)">
<title>G</title>
<polygon style="fill:white;stroke:white;" points="-4,4 -4,-136 654,-136 654,4 -4,4"/>
<!-- Node1 -->
<g id="node1" class="node"><title>Node1</title>
<polygon style="fill:#bfbfbf;stroke:black;" points="182,-112 182,-132 266,-132 266,-112 182,-112"/>
<text text-anchor="middle" x="224" y="-119" style="font-family:Arial;font-size:10.00;">ltr/data/object.h</text>
</g>
<!-- Node2 -->
<g id="node3" class="node"><title>Node2</title>
<polygon style="fill:white;stroke:#bfbfbf;" points="0,-56 0,-76 35,-76 35,-56 0,-56"/>
<text text-anchor="middle" x="17" y="-63" style="font-family:Arial;font-size:10.00;">map</text>
</g>
<!-- Node1&#45;&gt;Node2 -->
<g id="edge2" class="edge"><title>Node1&#45;&gt;Node2</title>
<path style="fill:none;stroke:midnightblue;" d="M184,-112C148,-103 94,-89 48,-76 47,-75 46,-75 44,-75"/>
<polygon style="fill:midnightblue;stroke:midnightblue;" points="45.5596,-71.8631 35,-71 42.7166,-78.2598 45.5596,-71.8631"/>
</g>
<!-- Node3 -->
<g id="node5" class="node"><title>Node3</title>
<polygon style="fill:white;stroke:#bfbfbf;" points="86,-0 86,-20 137,-20 137,-0 86,-0"/>
<text text-anchor="middle" x="111" y="-7" style="font-family:Arial;font-size:10.00;">ostream</text>
</g>
<!-- Node1&#45;&gt;Node3 -->
<g id="edge4" class="edge"><title>Node1&#45;&gt;Node3</title>
<path style="fill:none;stroke:midnightblue;" d="M182,-114C144,-106 93,-92 81,-76 71,-61 82,-42 93,-28"/>
<polygon style="fill:midnightblue;stroke:midnightblue;" points="96.0489,-29.8306 100,-20 90.7809,-25.221 96.0489,-29.8306"/>
</g>
<!-- Node4 -->
<g id="node7" class="node"><title>Node4</title>
<polygon style="fill:white;stroke:#bfbfbf;" points="90,-56 90,-76 149,-76 149,-56 90,-56"/>
<text text-anchor="middle" x="119" y="-63" style="font-family:Arial;font-size:10.00;">stdexcept</text>
</g>
<!-- Node1&#45;&gt;Node4 -->
<g id="edge6" class="edge"><title>Node1&#45;&gt;Node4</title>
<path style="fill:none;stroke:midnightblue;" d="M205,-112C189,-103 165,-91 147,-81"/>
<polygon style="fill:midnightblue;stroke:midnightblue;" points="148.441,-77.7969 138,-76 145.042,-83.916 148.441,-77.7969"/>
</g>
<!-- Node5 -->
<g id="node9" class="node"><title>Node5</title>
<polygon style="fill:white;stroke:#bfbfbf;" points="204,-0 204,-20 244,-20 244,-0 204,-0"/>
<text text-anchor="middle" x="224" y="-7" style="font-family:Arial;font-size:10.00;">string</text>
</g>
<!-- Node1&#45;&gt;Node5 -->
<g id="edge8" class="edge"><title>Node1&#45;&gt;Node5</title>
<path style="fill:none;stroke:midnightblue;" d="M266,-112C299,-103 340,-90 351,-76 356,-68 356,-63 351,-56 349,-53 291,-33 254,-20"/>
<polygon style="fill:midnightblue;stroke:midnightblue;" points="254.584,-16.5212 244,-17 252.573,-23.2259 254.584,-16.5212"/>
</g>
<!-- Node6 -->
<g id="node11" class="node"><title>Node6</title>
<polygon style="fill:white;stroke:#bfbfbf;" points="300,-56 300,-76 342,-76 342,-56 300,-56"/>
<text text-anchor="middle" x="321" y="-63" style="font-family:Arial;font-size:10.00;">vector</text>
</g>
<!-- Node1&#45;&gt;Node6 -->
<g id="edge10" class="edge"><title>Node1&#45;&gt;Node6</title>
<path style="fill:none;stroke:midnightblue;" d="M241,-112C256,-104 278,-91 294,-81"/>
<polygon style="fill:midnightblue;stroke:midnightblue;" points="295.958,-83.916 303,-76 292.559,-77.7969 295.958,-83.916"/>
</g>
<!-- Node7 -->
<g id="node13" class="node"><title>Node7</title>
<a xlink:href="printable_8h.html" target="_top" xlink:title="ltr/interfaces/printable.h">
<polygon style="fill:white;stroke:black;" points="166,-56 166,-76 283,-76 283,-56 166,-56"/>
<text text-anchor="middle" x="224" y="-63" style="font-family:Arial;font-size:10.00;">ltr/interfaces/printable.h</text>
</a>
</g>
<!-- Node1&#45;&gt;Node7 -->
<g id="edge12" class="edge"><title>Node1&#45;&gt;Node7</title>
<path style="fill:none;stroke:midnightblue;" d="M224,-112C224,-105 224,-95 224,-86"/>
<polygon style="fill:midnightblue;stroke:midnightblue;" points="227.5,-86 224,-76 220.5,-86 227.5,-86"/>
</g>
<!-- Node8 -->
<g id="node17" class="node"><title>Node8</title>
<a xlink:href="shared__ptr_8h.html" target="_top" xlink:title="ltr/utility/shared_ptr.h">
<polygon style="fill:white;stroke:black;" points="422,-56 422,-76 529,-76 529,-56 422,-56"/>
<text text-anchor="middle" x="475" y="-63" style="font-family:Arial;font-size:10.00;">ltr/utility/shared_ptr.h</text>
</a>
</g>
<!-- Node1&#45;&gt;Node8 -->
<g id="edge18" class="edge"><title>Node1&#45;&gt;Node8</title>
<path style="fill:none;stroke:midnightblue;" d="M266,-113C308,-104 374,-89 420,-78"/>
<polygon style="fill:midnightblue;stroke:midnightblue;" points="420.881,-81.3933 430,-76 419.508,-74.5292 420.881,-81.3933"/>
</g>
<!-- Node7&#45;&gt;Node3 -->
<g id="edge14" class="edge"><title>Node7&#45;&gt;Node3</title>
<path style="fill:none;stroke:midnightblue;" d="M204,-56C186,-47 160,-34 140,-24"/>
<polygon style="fill:midnightblue;stroke:midnightblue;" points="141.56,-20.8631 131,-20 138.717,-27.2598 141.56,-20.8631"/>
</g>
<!-- Node7&#45;&gt;Node5 -->
<g id="edge16" class="edge"><title>Node7&#45;&gt;Node5</title>
<path style="fill:none;stroke:midnightblue;" d="M224,-56C224,-49 224,-39 224,-30"/>
<polygon style="fill:midnightblue;stroke:midnightblue;" points="227.5,-30 224,-20 220.5,-30 227.5,-30"/>
</g>
<!-- Node9 -->
<g id="node19" class="node"><title>Node9</title>
<polygon style="fill:white;stroke:#bfbfbf;" points="470,-0 470,-20 526,-20 526,-0 470,-0"/>
<text text-anchor="middle" x="498" y="-7" style="font-family:Arial;font-size:10.00;">algorithm</text>
</g>
<!-- Node8&#45;&gt;Node9 -->
<g id="edge20" class="edge"><title>Node8&#45;&gt;Node9</title>
<path style="fill:none;stroke:midnightblue;" d="M479,-56C482,-49 486,-39 490,-29"/>
<polygon style="fill:midnightblue;stroke:midnightblue;" points="493.137,-30.5596 494,-20 486.74,-27.7166 493.137,-30.5596"/>
</g>
<!-- Node10 -->
<g id="node21" class="node"><title>Node10</title>
<polygon style="fill:white;stroke:#bfbfbf;" points="544,-0 544,-20 651,-20 651,-0 544,-0"/>
<text text-anchor="middle" x="597" y="-7" style="font-family:Arial;font-size:10.00;">boost/shared_ptr.hpp</text>
</g>
<!-- Node8&#45;&gt;Node10 -->
<g id="edge22" class="edge"><title>Node8&#45;&gt;Node10</title>
<path style="fill:none;stroke:midnightblue;" d="M497,-56C516,-47 544,-34 566,-24"/>
<polygon style="fill:midnightblue;stroke:midnightblue;" points="567.283,-27.2598 575,-20 564.44,-20.8631 567.283,-27.2598"/>
</g>
<!-- Node11 -->
<g id="node23" class="node"><title>Node11</title>
<polygon style="fill:white;stroke:#bfbfbf;" points="262,-0 262,-20 453,-20 453,-0 262,-0"/>
<text text-anchor="middle" x="357" y="-7" style="font-family:Arial;font-size:10.00;">boost/smart_ptr/detail/operator_bool.hpp</text>
</g>
<!-- Node8&#45;&gt;Node11 -->
<g id="edge24" class="edge"><title>Node8&#45;&gt;Node11</title>
<path style="fill:none;stroke:midnightblue;" d="M454,-56C436,-47 409,-34 387,-24"/>
<polygon style="fill:midnightblue;stroke:midnightblue;" points="388.56,-20.8631 378,-20 385.717,-27.2598 388.56,-20.8631"/>
</g>
</g>
</svg>
