<?xml version="1.0" encoding="UTF-8" standalone="no"?>
<!DOCTYPE svg PUBLIC "-//W3C//DTD SVG 1.0//EN"
 "http://www.w3.org/TR/2001/REC-SVG-20010904/DTD/svg10.dtd" [
 <!ATTLIST svg xmlns:xlink CDATA #FIXED "http://www.w3.org/1999/xlink">
]>
<!-- Generated by Graphviz version 2.20.2 (Tue Mar &#160;2 19:03:41 UTC 2010)
     For user: (jenkins)  -->
<!-- Title: G Pages: 1 -->
<svg width="146pt" height="140pt"
 viewBox="0.00 0.00 146.00 140.00" xmlns="http://www.w3.org/2000/svg" xmlns:xlink="http://www.w3.org/1999/xlink">
<g id="graph0" class="graph" transform="scale(1 1) rotate(0) translate(4 136)">
<title>G</title>
<polygon style="fill:white;stroke:white;" points="-4,4 -4,-136 142,-136 142,4 -4,4"/>
<!-- Node1 -->
<g id="node1" class="node"><title>Node1</title>
<polygon style="fill:#bfbfbf;stroke:black;" points="0,-112 0,-132 138,-132 138,-112 0,-112"/>
<text text-anchor="middle" x="69" y="-119" style="font-family:Arial;font-size:10.00;">ltr/data/utility/object_utility.h</text>
</g>
<!-- Node2 -->
<g id="node3" class="node"><title>Node2</title>
<a xlink:href="numerical_8h.html" target="_top" xlink:title="ltr/utility/numerical.h">
<polygon style="fill:white;stroke:black;" points="17,-56 17,-76 121,-76 121,-56 17,-56"/>
<text text-anchor="middle" x="69" y="-63" style="font-family:Arial;font-size:10.00;">ltr/utility/numerical.h</text>
</a>
</g>
<!-- Node1&#45;&gt;Node2 -->
<g id="edge2" class="edge"><title>Node1&#45;&gt;Node2</title>
<path style="fill:none;stroke:midnightblue;" d="M69,-112C69,-105 69,-95 69,-86"/>
<polygon style="fill:midnightblue;stroke:midnightblue;" points="72.5001,-86 69,-76 65.5001,-86 72.5001,-86"/>
</g>
<!-- Node3 -->
<g id="node5" class="node"><title>Node3</title>
<polygon style="fill:white;stroke:#bfbfbf;" points="19,-0 19,-20 62,-20 62,-0 19,-0"/>
<text text-anchor="middle" x="40" y="-7" style="font-family:Arial;font-size:10.00;">cmath</text>
</g>
<!-- Node2&#45;&gt;Node3 -->
<g id="edge4" class="edge"><title>Node2&#45;&gt;Node3</title>
<path style="fill:none;stroke:midnightblue;" d="M64,-56C60,-49 54,-38 49,-29"/>
<polygon style="fill:midnightblue;stroke:midnightblue;" points="52.2598,-27.7166 45,-20 45.8631,-30.5596 52.2598,-27.7166"/>
</g>
<!-- Node4 -->
<g id="node7" class="node"><title>Node4</title>
<polygon style="fill:white;stroke:#bfbfbf;" points="79,-0 79,-20 118,-20 118,-0 79,-0"/>
<text text-anchor="middle" x="98" y="-7" style="font-family:Arial;font-size:10.00;">limits</text>
</g>
<!-- Node2&#45;&gt;Node4 -->
<g id="edge6" class="edge"><title>Node2&#45;&gt;Node4</title>
<path style="fill:none;stroke:midnightblue;" d="M74,-56C78,-49 84,-38 89,-29"/>
<polygon style="fill:midnightblue;stroke:midnightblue;" points="92.1369,-30.5596 93,-20 85.7402,-27.7166 92.1369,-30.5596"/>
</g>
</g>
</svg>
