<?xml version="1.0" encoding="UTF-8" standalone="no"?>
<!DOCTYPE svg PUBLIC "-//W3C//DTD SVG 1.0//EN"
 "http://www.w3.org/TR/2001/REC-SVG-20010904/DTD/svg10.dtd" [
 <!ATTLIST svg xmlns:xlink CDATA #FIXED "http://www.w3.org/1999/xlink">
]>
<!-- Generated by Graphviz version 2.20.2 (Tue Mar &#160;2 19:03:41 UTC 2010)
     For user: (jenkins)  -->
<!-- Title: G Pages: 1 -->
<svg width="491pt" height="140pt"
 viewBox="0.00 0.00 491.00 140.00" xmlns="http://www.w3.org/2000/svg" xmlns:xlink="http://www.w3.org/1999/xlink">
<g id="graph0" class="graph" transform="scale(1 1) rotate(0) translate(4 136)">
<title>G</title>
<polygon style="fill:white;stroke:white;" points="-4,4 -4,-136 487,-136 487,4 -4,4"/>
<!-- Node1 -->
<g id="node1" class="node"><title>Node1</title>
<polygon style="fill:#bfbfbf;stroke:black;" points="165,-112 165,-132 254,-132 254,-112 165,-112"/>
<text text-anchor="middle" x="209" y="-119" style="font-family:Arial;font-size:10.00;">ltr/data/object.cc</text>
</g>
<!-- Node2 -->
<g id="node3" class="node"><title>Node2</title>
<polygon style="fill:white;stroke:#bfbfbf;" points="0,-56 0,-76 50,-76 50,-56 0,-56"/>
<text text-anchor="middle" x="25" y="-63" style="font-family:Arial;font-size:10.00;">iomanip</text>
</g>
<!-- Node1&#45;&gt;Node2 -->
<g id="edge2" class="edge"><title>Node1&#45;&gt;Node2</title>
<path style="fill:none;stroke:midnightblue;" d="M176,-112C143,-102 94,-87 60,-77"/>
<polygon style="fill:midnightblue;stroke:midnightblue;" points="60.584,-73.5212 50,-74 58.5725,-80.2259 60.584,-73.5212"/>
</g>
<!-- Node3 -->
<g id="node5" class="node"><title>Node3</title>
<polygon style="fill:white;stroke:#bfbfbf;" points="68,-56 68,-76 119,-76 119,-56 68,-56"/>
<text text-anchor="middle" x="93" y="-63" style="font-family:Arial;font-size:10.00;">sstream</text>
</g>
<!-- Node1&#45;&gt;Node3 -->
<g id="edge4" class="edge"><title>Node1&#45;&gt;Node3</title>
<path style="fill:none;stroke:midnightblue;" d="M188,-112C170,-103 144,-90 123,-80"/>
<polygon style="fill:midnightblue;stroke:midnightblue;" points="124.56,-76.8631 114,-76 121.717,-83.2598 124.56,-76.8631"/>
</g>
<!-- Node4 -->
<g id="node7" class="node"><title>Node4</title>
<polygon style="fill:white;stroke:#bfbfbf;" points="136,-56 136,-76 195,-76 195,-56 136,-56"/>
<text text-anchor="middle" x="165" y="-63" style="font-family:Arial;font-size:10.00;">stdexcept</text>
</g>
<!-- Node1&#45;&gt;Node4 -->
<g id="edge6" class="edge"><title>Node1&#45;&gt;Node4</title>
<path style="fill:none;stroke:midnightblue;" d="M201,-112C195,-104 186,-94 179,-84"/>
<polygon style="fill:midnightblue;stroke:midnightblue;" points="181.8,-81.9 173,-76 176.2,-86.1 181.8,-81.9"/>
</g>
<!-- Node5 -->
<g id="node9" class="node"><title>Node5</title>
<polygon style="fill:white;stroke:#bfbfbf;" points="212,-56 212,-76 296,-76 296,-56 212,-56"/>
<text text-anchor="middle" x="254" y="-63" style="font-family:Arial;font-size:10.00;">ltr/data/object.h</text>
</g>
<!-- Node1&#45;&gt;Node5 -->
<g id="edge8" class="edge"><title>Node1&#45;&gt;Node5</title>
<path style="fill:none;stroke:midnightblue;" d="M217,-112C223,-104 232,-94 240,-84"/>
<polygon style="fill:midnightblue;stroke:midnightblue;" points="242.8,-86.1 246,-76 237.2,-81.9 242.8,-86.1"/>
</g>
<!-- Node6 -->
<g id="node11" class="node"><title>Node6</title>
<a xlink:href="object__utility_8h.html" target="_top" xlink:title="ltr/data/utility/object_utility.h">
<polygon style="fill:white;stroke:black;" points="314,-56 314,-76 452,-76 452,-56 314,-56"/>
<text text-anchor="middle" x="383" y="-63" style="font-family:Arial;font-size:10.00;">ltr/data/utility/object_utility.h</text>
</a>
</g>
<!-- Node1&#45;&gt;Node6 -->
<g id="edge10" class="edge"><title>Node1&#45;&gt;Node6</title>
<path style="fill:none;stroke:midnightblue;" d="M240,-112C269,-103 311,-89 342,-79"/>
<polygon style="fill:midnightblue;stroke:midnightblue;" points="343.427,-82.2259 352,-76 341.416,-75.5212 343.427,-82.2259"/>
</g>
<!-- Node7 -->
<g id="node13" class="node"><title>Node7</title>
<polygon style="fill:white;stroke:#bfbfbf;" points="379,-0 379,-20 483,-20 483,-0 379,-0"/>
<text text-anchor="middle" x="431" y="-7" style="font-family:Arial;font-size:10.00;">ltr/utility/numerical.h</text>
</g>
<!-- Node1&#45;&gt;Node7 -->
<g id="edge14" class="edge"><title>Node1&#45;&gt;Node7</title>
<path style="fill:none;stroke:midnightblue;" d="M254,-120C319,-117 435,-106 461,-76 473,-62 461,-42 449,-28"/>
<polygon style="fill:midnightblue;stroke:midnightblue;" points="451.219,-25.221 442,-20 445.951,-29.8306 451.219,-25.221"/>
</g>
<!-- Node6&#45;&gt;Node7 -->
<g id="edge12" class="edge"><title>Node6&#45;&gt;Node7</title>
<path style="fill:none;stroke:midnightblue;" d="M392,-56C398,-48 408,-37 416,-28"/>
<polygon style="fill:midnightblue;stroke:midnightblue;" points="418.8,-30.1 422,-20 413.2,-25.9 418.8,-30.1"/>
</g>
</g>
</svg>
