<?xml version="1.0" encoding="UTF-8" standalone="no"?>
<!DOCTYPE svg PUBLIC "-//W3C//DTD SVG 1.0//EN"
 "http://www.w3.org/TR/2001/REC-SVG-20010904/DTD/svg10.dtd" [
 <!ATTLIST svg xmlns:xlink CDATA #FIXED "http://www.w3.org/1999/xlink">
]>
<!-- Generated by Graphviz version 2.20.2 (Tue Mar &#160;2 19:03:41 UTC 2010)
     For user: (jenkins)  -->
<!-- Title: G Pages: 1 -->
<svg width="704pt" height="196pt"
 viewBox="0.00 0.00 704.00 196.00" xmlns="http://www.w3.org/2000/svg" xmlns:xlink="http://www.w3.org/1999/xlink">
<g id="graph0" class="graph" transform="scale(1 1) rotate(0) translate(4 192)">
<title>G</title>
<polygon style="fill:white;stroke:white;" points="-4,4 -4,-192 700,-192 700,4 -4,4"/>
<!-- Node1 -->
<g id="node1" class="node"><title>Node1</title>
<polygon style="fill:#bfbfbf;stroke:black;" points="271,-168 271,-188 360,-188 360,-168 271,-168"/>
<text text-anchor="middle" x="315" y="-175" style="font-family:Arial;font-size:10.00;">ltr/data/object.cc</text>
</g>
<!-- Node2 -->
<g id="node3" class="node"><title>Node2</title>
<polygon style="fill:white;stroke:#bfbfbf;" points="134,-112 134,-132 184,-132 184,-112 134,-112"/>
<text text-anchor="middle" x="159" y="-119" style="font-family:Arial;font-size:10.00;">iomanip</text>
</g>
<!-- Node1&#45;&gt;Node2 -->
<g id="edge2" class="edge"><title>Node1&#45;&gt;Node2</title>
<path style="fill:none;stroke:midnightblue;" d="M287,-168C261,-159 222,-145 193,-134"/>
<polygon style="fill:midnightblue;stroke:midnightblue;" points="194.594,-130.842 184,-131 192.38,-137.483 194.594,-130.842"/>
</g>
<!-- Node3 -->
<g id="node5" class="node"><title>Node3</title>
<polygon style="fill:white;stroke:#bfbfbf;" points="202,-112 202,-132 253,-132 253,-112 202,-112"/>
<text text-anchor="middle" x="227" y="-119" style="font-family:Arial;font-size:10.00;">sstream</text>
</g>
<!-- Node1&#45;&gt;Node3 -->
<g id="edge4" class="edge"><title>Node1&#45;&gt;Node3</title>
<path style="fill:none;stroke:midnightblue;" d="M299,-168C286,-160 267,-147 251,-137"/>
<polygon style="fill:midnightblue;stroke:midnightblue;" points="253.335,-134.332 243,-132 249.625,-140.268 253.335,-134.332"/>
</g>
<!-- Node4 -->
<g id="node7" class="node"><title>Node4</title>
<polygon style="fill:white;stroke:#bfbfbf;" points="70,-56 70,-76 129,-76 129,-56 70,-56"/>
<text text-anchor="middle" x="99" y="-63" style="font-family:Arial;font-size:10.00;">stdexcept</text>
</g>
<!-- Node1&#45;&gt;Node4 -->
<g id="edge6" class="edge"><title>Node1&#45;&gt;Node4</title>
<path style="fill:none;stroke:midnightblue;" d="M309,-168C301,-153 283,-126 261,-112 255,-108 186,-89 139,-77"/>
<polygon style="fill:midnightblue;stroke:midnightblue;" points="139.584,-73.5212 129,-74 137.573,-80.2259 139.584,-73.5212"/>
</g>
<!-- Node5 -->
<g id="node9" class="node"><title>Node5</title>
<a xlink:href="object_8h.html" target="_top" xlink:title="ltr/data/object.h">
<polygon style="fill:white;stroke:black;" points="308,-112 308,-132 392,-132 392,-112 308,-112"/>
<text text-anchor="middle" x="350" y="-119" style="font-family:Arial;font-size:10.00;">ltr/data/object.h</text>
</a>
</g>
<!-- Node1&#45;&gt;Node5 -->
<g id="edge8" class="edge"><title>Node1&#45;&gt;Node5</title>
<path style="fill:none;stroke:midnightblue;" d="M321,-168C326,-161 332,-150 338,-141"/>
<polygon style="fill:midnightblue;stroke:midnightblue;" points="341.203,-142.441 343,-132 335.084,-139.042 341.203,-142.441"/>
</g>
<!-- Node15 -->
<g id="node32" class="node"><title>Node15</title>
<a xlink:href="object__utility_8h.html" target="_top" xlink:title="ltr/data/utility/object_utility.h">
<polygon style="fill:white;stroke:black;" points="429,-112 429,-132 567,-132 567,-112 429,-112"/>
<text text-anchor="middle" x="498" y="-119" style="font-family:Arial;font-size:10.00;">ltr/data/utility/object_utility.h</text>
</a>
</g>
<!-- Node1&#45;&gt;Node15 -->
<g id="edge34" class="edge"><title>Node1&#45;&gt;Node15</title>
<path style="fill:none;stroke:midnightblue;" d="M348,-168C378,-159 423,-145 455,-135"/>
<polygon style="fill:midnightblue;stroke:midnightblue;" points="456.427,-138.226 465,-132 454.416,-131.521 456.427,-138.226"/>
</g>
<!-- Node16 -->
<g id="node34" class="node"><title>Node16</title>
<a xlink:href="numerical_8h.html" target="_top" xlink:title="ltr/utility/numerical.h">
<polygon style="fill:white;stroke:black;" points="592,-56 592,-76 696,-76 696,-56 592,-56"/>
<text text-anchor="middle" x="644" y="-63" style="font-family:Arial;font-size:10.00;">ltr/utility/numerical.h</text>
</a>
</g>
<!-- Node1&#45;&gt;Node16 -->
<g id="edge42" class="edge"><title>Node1&#45;&gt;Node16</title>
<path style="fill:none;stroke:midnightblue;" d="M360,-173C425,-166 539,-150 576,-132 598,-120 617,-100 630,-84"/>
<polygon style="fill:midnightblue;stroke:midnightblue;" points="632.8,-86.1 636,-76 627.2,-81.9 632.8,-86.1"/>
</g>
<!-- Node5&#45;&gt;Node4 -->
<g id="edge14" class="edge"><title>Node5&#45;&gt;Node4</title>
<path style="fill:none;stroke:midnightblue;" d="M308,-113C267,-104 203,-91 139,-76"/>
<polygon style="fill:midnightblue;stroke:midnightblue;" points="139.492,-72.5292 129,-74 138.119,-79.3933 139.492,-72.5292"/>
</g>
<!-- Node6 -->
<g id="node11" class="node"><title>Node6</title>
<polygon style="fill:white;stroke:#bfbfbf;" points="502,-56 502,-76 537,-76 537,-56 502,-56"/>
<text text-anchor="middle" x="519" y="-63" style="font-family:Arial;font-size:10.00;">map</text>
</g>
<!-- Node5&#45;&gt;Node6 -->
<g id="edge10" class="edge"><title>Node5&#45;&gt;Node6</title>
<path style="fill:none;stroke:midnightblue;" d="M383,-112C410,-104 449,-91 492,-75"/>
<polygon style="fill:midnightblue;stroke:midnightblue;" points="493.427,-78.2259 502,-72 491.416,-71.5212 493.427,-78.2259"/>
</g>
<!-- Node7 -->
<g id="node13" class="node"><title>Node7</title>
<polygon style="fill:white;stroke:#bfbfbf;" points="492,-0 492,-20 543,-20 543,-0 492,-0"/>
<text text-anchor="middle" x="517" y="-7" style="font-family:Arial;font-size:10.00;">ostream</text>
</g>
<!-- Node5&#45;&gt;Node7 -->
<g id="edge12" class="edge"><title>Node5&#45;&gt;Node7</title>
<path style="fill:none;stroke:midnightblue;" d="M392,-115C447,-105 535,-88 545,-76 556,-62 545,-42 534,-28"/>
<polygon style="fill:midnightblue;stroke:midnightblue;" points="536.219,-25.221 527,-20 530.951,-29.8306 536.219,-25.221"/>
</g>
<!-- Node8 -->
<g id="node16" class="node"><title>Node8</title>
<polygon style="fill:white;stroke:#bfbfbf;" points="406,-0 406,-20 446,-20 446,-0 406,-0"/>
<text text-anchor="middle" x="426" y="-7" style="font-family:Arial;font-size:10.00;">string</text>
</g>
<!-- Node5&#45;&gt;Node8 -->
<g id="edge16" class="edge"><title>Node5&#45;&gt;Node8</title>
<path style="fill:none;stroke:midnightblue;" d="M349,-112C348,-98 348,-73 359,-56 367,-41 383,-31 397,-23"/>
<polygon style="fill:midnightblue;stroke:midnightblue;" points="398.958,-25.916 406,-18 395.559,-19.7969 398.958,-25.916"/>
</g>
<!-- Node9 -->
<g id="node18" class="node"><title>Node9</title>
<polygon style="fill:white;stroke:#bfbfbf;" points="270,-56 270,-76 312,-76 312,-56 270,-56"/>
<text text-anchor="middle" x="291" y="-63" style="font-family:Arial;font-size:10.00;">vector</text>
</g>
<!-- Node5&#45;&gt;Node9 -->
<g id="edge18" class="edge"><title>Node5&#45;&gt;Node9</title>
<path style="fill:none;stroke:midnightblue;" d="M339,-112C330,-104 319,-93 309,-83"/>
<polygon style="fill:midnightblue;stroke:midnightblue;" points="311.546,-80.5962 302,-76 306.596,-85.546 311.546,-80.5962"/>
</g>
<!-- Node10 -->
<g id="node20" class="node"><title>Node10</title>
<a xlink:href="printable_8h.html" target="_top" xlink:title="ltr/interfaces/printable.h">
<polygon style="fill:white;stroke:black;" points="368,-56 368,-76 485,-76 485,-56 368,-56"/>
<text text-anchor="middle" x="426" y="-63" style="font-family:Arial;font-size:10.00;">ltr/interfaces/printable.h</text>
</a>
</g>
<!-- Node5&#45;&gt;Node10 -->
<g id="edge20" class="edge"><title>Node5&#45;&gt;Node10</title>
<path style="fill:none;stroke:midnightblue;" d="M364,-112C375,-104 391,-92 404,-82"/>
<polygon style="fill:midnightblue;stroke:midnightblue;" points="406.1,-84.8 412,-76 401.9,-79.2 406.1,-84.8"/>
</g>
<!-- Node11 -->
<g id="node24" class="node"><title>Node11</title>
<a xlink:href="shared__ptr_8h.html" target="_top" xlink:title="ltr/utility/shared_ptr.h">
<polygon style="fill:white;stroke:black;" points="146,-56 146,-76 253,-76 253,-56 146,-56"/>
<text text-anchor="middle" x="199" y="-63" style="font-family:Arial;font-size:10.00;">ltr/utility/shared_ptr.h</text>
</a>
</g>
<!-- Node5&#45;&gt;Node11 -->
<g id="edge26" class="edge"><title>Node5&#45;&gt;Node11</title>
<path style="fill:none;stroke:midnightblue;" d="M323,-112C299,-103 263,-89 236,-79"/>
<polygon style="fill:midnightblue;stroke:midnightblue;" points="236.584,-75.5212 226,-76 234.573,-82.2259 236.584,-75.5212"/>
</g>
<!-- Node10&#45;&gt;Node7 -->
<g id="edge22" class="edge"><title>Node10&#45;&gt;Node7</title>
<path style="fill:none;stroke:midnightblue;" d="M442,-56C455,-48 476,-35 491,-25"/>
<polygon style="fill:midnightblue;stroke:midnightblue;" points="492.958,-27.916 500,-20 489.559,-21.7969 492.958,-27.916"/>
</g>
<!-- Node10&#45;&gt;Node8 -->
<g id="edge24" class="edge"><title>Node10&#45;&gt;Node8</title>
<path style="fill:none;stroke:midnightblue;" d="M426,-56C426,-49 426,-39 426,-30"/>
<polygon style="fill:midnightblue;stroke:midnightblue;" points="429.5,-30 426,-20 422.5,-30 429.5,-30"/>
</g>
<!-- Node12 -->
<g id="node26" class="node"><title>Node12</title>
<polygon style="fill:white;stroke:#bfbfbf;" points="0,-0 0,-20 56,-20 56,-0 0,-0"/>
<text text-anchor="middle" x="28" y="-7" style="font-family:Arial;font-size:10.00;">algorithm</text>
</g>
<!-- Node11&#45;&gt;Node12 -->
<g id="edge28" class="edge"><title>Node11&#45;&gt;Node12</title>
<path style="fill:none;stroke:midnightblue;" d="M168,-56C139,-47 96,-32 66,-22"/>
<polygon style="fill:midnightblue;stroke:midnightblue;" points="66.584,-18.5212 56,-19 64.5725,-25.2259 66.584,-18.5212"/>
</g>
<!-- Node13 -->
<g id="node28" class="node"><title>Node13</title>
<polygon style="fill:white;stroke:#bfbfbf;" points="74,-0 74,-20 181,-20 181,-0 74,-0"/>
<text text-anchor="middle" x="127" y="-7" style="font-family:Arial;font-size:10.00;">boost/shared_ptr.hpp</text>
</g>
<!-- Node11&#45;&gt;Node13 -->
<g id="edge30" class="edge"><title>Node11&#45;&gt;Node13</title>
<path style="fill:none;stroke:midnightblue;" d="M186,-56C175,-48 160,-36 148,-27"/>
<polygon style="fill:midnightblue;stroke:midnightblue;" points="149.831,-23.9511 140,-20 145.221,-29.2191 149.831,-23.9511"/>
</g>
<!-- Node14 -->
<g id="node30" class="node"><title>Node14</title>
<polygon style="fill:white;stroke:#bfbfbf;" points="198,-0 198,-20 389,-20 389,-0 198,-0"/>
<text text-anchor="middle" x="293" y="-7" style="font-family:Arial;font-size:10.00;">boost/smart_ptr/detail/operator_bool.hpp</text>
</g>
<!-- Node11&#45;&gt;Node14 -->
<g id="edge32" class="edge"><title>Node11&#45;&gt;Node14</title>
<path style="fill:none;stroke:midnightblue;" d="M216,-56C230,-48 251,-35 267,-25"/>
<polygon style="fill:midnightblue;stroke:midnightblue;" points="268.958,-27.916 276,-20 265.559,-21.7969 268.958,-27.916"/>
</g>
<!-- Node15&#45;&gt;Node16 -->
<g id="edge36" class="edge"><title>Node15&#45;&gt;Node16</title>
<path style="fill:none;stroke:midnightblue;" d="M524,-112C547,-103 582,-90 608,-80"/>
<polygon style="fill:midnightblue;stroke:midnightblue;" points="610.015,-82.9636 618,-76 607.415,-76.4643 610.015,-82.9636"/>
</g>
<!-- Node17 -->
<g id="node36" class="node"><title>Node17</title>
<polygon style="fill:white;stroke:#bfbfbf;" points="643,-0 643,-20 686,-20 686,-0 643,-0"/>
<text text-anchor="middle" x="664" y="-7" style="font-family:Arial;font-size:10.00;">cmath</text>
</g>
<!-- Node16&#45;&gt;Node17 -->
<g id="edge38" class="edge"><title>Node16&#45;&gt;Node17</title>
<path style="fill:none;stroke:midnightblue;" d="M648,-56C650,-49 654,-39 657,-30"/>
<polygon style="fill:midnightblue;stroke:midnightblue;" points="660.479,-30.584 660,-20 653.774,-28.5725 660.479,-30.584"/>
</g>
<!-- Node18 -->
<g id="node38" class="node"><title>Node18</title>
<polygon style="fill:white;stroke:#bfbfbf;" points="587,-0 587,-20 626,-20 626,-0 587,-0"/>
<text text-anchor="middle" x="606" y="-7" style="font-family:Arial;font-size:10.00;">limits</text>
</g>
<!-- Node16&#45;&gt;Node18 -->
<g id="edge40" class="edge"><title>Node16&#45;&gt;Node18</title>
<path style="fill:none;stroke:midnightblue;" d="M637,-56C632,-48 625,-38 619,-29"/>
<polygon style="fill:midnightblue;stroke:midnightblue;" points="621.459,-26.3791 613,-20 615.635,-30.262 621.459,-26.3791"/>
</g>
</g>
</svg>
