<?xml version="1.0" encoding="UTF-8" standalone="no"?>
<!DOCTYPE svg PUBLIC "-//W3C//DTD SVG 1.0//EN"
 "http://www.w3.org/TR/2001/REC-SVG-20010904/DTD/svg10.dtd" [
 <!ATTLIST svg xmlns:xlink CDATA #FIXED "http://www.w3.org/1999/xlink">
]>
<!-- Generated by Graphviz version 2.20.2 (Tue Mar &#160;2 19:03:41 UTC 2010)
     For user: (jenkins)  -->
<!-- Title: G Pages: 1 -->
<svg width="770pt" height="140pt"
 viewBox="0.00 0.00 770.00 140.00" xmlns="http://www.w3.org/2000/svg" xmlns:xlink="http://www.w3.org/1999/xlink">
<g id="graph0" class="graph" transform="scale(1 1) rotate(0) translate(4 136)">
<title>G</title>
<polygon style="fill:white;stroke:white;" points="-4,4 -4,-136 766,-136 766,4 -4,4"/>
<!-- Node1 -->
<g id="node1" class="node"><title>Node1</title>
<polygon style="fill:#bfbfbf;stroke:black;" points="279,-112 279,-132 363,-132 363,-112 279,-112"/>
<text text-anchor="middle" x="321" y="-119" style="font-family:Arial;font-size:10.00;">ltr/data/object.h</text>
</g>
<!-- Node2 -->
<g id="node3" class="node"><title>Node2</title>
<polygon style="fill:white;stroke:#bfbfbf;" points="0,-56 0,-76 35,-76 35,-56 0,-56"/>
<text text-anchor="middle" x="17" y="-63" style="font-family:Arial;font-size:10.00;">map</text>
</g>
<!-- Node1&#45;&gt;Node2 -->
<g id="edge2" class="edge"><title>Node1&#45;&gt;Node2</title>
<path style="fill:none;stroke:midnightblue;" d="M279,-117C225,-110 128,-96 48,-76 47,-76 46,-75 45,-75"/>
<polygon style="fill:midnightblue;stroke:midnightblue;" points="45.584,-71.5212 35,-72 43.5725,-78.2259 45.584,-71.5212"/>
</g>
<!-- Node3 -->
<g id="node5" class="node"><title>Node3</title>
<polygon style="fill:white;stroke:#bfbfbf;" points="86,-0 86,-20 137,-20 137,-0 86,-0"/>
<text text-anchor="middle" x="111" y="-7" style="font-family:Arial;font-size:10.00;">ostream</text>
</g>
<!-- Node1&#45;&gt;Node3 -->
<g id="edge4" class="edge"><title>Node1&#45;&gt;Node3</title>
<path style="fill:none;stroke:midnightblue;" d="M279,-120C217,-116 106,-105 81,-76 69,-62 81,-42 93,-28"/>
<polygon style="fill:midnightblue;stroke:midnightblue;" points="96.0489,-29.8306 100,-20 90.7809,-25.221 96.0489,-29.8306"/>
</g>
<!-- Node4 -->
<g id="node7" class="node"><title>Node4</title>
<polygon style="fill:white;stroke:#bfbfbf;" points="90,-56 90,-76 149,-76 149,-56 90,-56"/>
<text text-anchor="middle" x="119" y="-63" style="font-family:Arial;font-size:10.00;">stdexcept</text>
</g>
<!-- Node1&#45;&gt;Node4 -->
<g id="edge6" class="edge"><title>Node1&#45;&gt;Node4</title>
<path style="fill:none;stroke:midnightblue;" d="M285,-112C249,-102 196,-87 159,-77"/>
<polygon style="fill:midnightblue;stroke:midnightblue;" points="159.584,-73.5212 149,-74 157.573,-80.2259 159.584,-73.5212"/>
</g>
<!-- Node5 -->
<g id="node9" class="node"><title>Node5</title>
<polygon style="fill:white;stroke:#bfbfbf;" points="204,-0 204,-20 244,-20 244,-0 204,-0"/>
<text text-anchor="middle" x="224" y="-7" style="font-family:Arial;font-size:10.00;">string</text>
</g>
<!-- Node1&#45;&gt;Node5 -->
<g id="edge8" class="edge"><title>Node1&#45;&gt;Node5</title>
<path style="fill:none;stroke:midnightblue;" d="M332,-112C345,-98 363,-74 351,-56 349,-53 291,-33 254,-20"/>
<polygon style="fill:midnightblue;stroke:midnightblue;" points="254.584,-16.5212 244,-17 252.573,-23.2259 254.584,-16.5212"/>
</g>
<!-- Node6 -->
<g id="node11" class="node"><title>Node6</title>
<polygon style="fill:white;stroke:#bfbfbf;" points="300,-56 300,-76 342,-76 342,-56 300,-56"/>
<text text-anchor="middle" x="321" y="-63" style="font-family:Arial;font-size:10.00;">vector</text>
</g>
<!-- Node1&#45;&gt;Node6 -->
<g id="edge10" class="edge"><title>Node1&#45;&gt;Node6</title>
<path style="fill:none;stroke:midnightblue;" d="M321,-112C321,-105 321,-95 321,-86"/>
<polygon style="fill:midnightblue;stroke:midnightblue;" points="324.5,-86 321,-76 317.5,-86 324.5,-86"/>
</g>
<!-- Node7 -->
<g id="node13" class="node"><title>Node7</title>
<a xlink:href="printable_8h.html" target="_top" xlink:title="ltr/interfaces/printable.h">
<polygon style="fill:white;stroke:black;" points="166,-56 166,-76 283,-76 283,-56 166,-56"/>
<text text-anchor="middle" x="224" y="-63" style="font-family:Arial;font-size:10.00;">ltr/interfaces/printable.h</text>
</a>
</g>
<!-- Node1&#45;&gt;Node7 -->
<g id="edge12" class="edge"><title>Node1&#45;&gt;Node7</title>
<path style="fill:none;stroke:midnightblue;" d="M304,-112C289,-104 267,-91 251,-81"/>
<polygon style="fill:midnightblue;stroke:midnightblue;" points="252.441,-77.7969 242,-76 249.042,-83.916 252.441,-77.7969"/>
</g>
<!-- Node8 -->
<g id="node17" class="node"><title>Node8</title>
<a xlink:href="shared__ptr_8h.html" target="_top" xlink:title="ltr/utility/shared_ptr.h">
<polygon style="fill:white;stroke:black;" points="398,-56 398,-76 505,-76 505,-56 398,-56"/>
<text text-anchor="middle" x="451" y="-63" style="font-family:Arial;font-size:10.00;">ltr/utility/shared_ptr.h</text>
</a>
</g>
<!-- Node1&#45;&gt;Node8 -->
<g id="edge18" class="edge"><title>Node1&#45;&gt;Node8</title>
<path style="fill:none;stroke:midnightblue;" d="M344,-112C365,-103 395,-90 418,-80"/>
<polygon style="fill:midnightblue;stroke:midnightblue;" points="420.015,-82.9636 428,-76 417.415,-76.4643 420.015,-82.9636"/>
</g>
<!-- Node12 -->
<g id="node25" class="node"><title>Node12</title>
<polygon style="fill:white;stroke:#bfbfbf;" points="522,-56 522,-76 639,-76 639,-56 522,-56"/>
<text text-anchor="middle" x="580" y="-63" style="font-family:Arial;font-size:10.00;">ltr/interfaces/printable.h</text>
</g>
<!-- Node1&#45;&gt;Node12 -->
<g id="edge26" class="edge"><title>Node1&#45;&gt;Node12</title>
<path style="fill:none;stroke:midnightblue;" d="M363,-113C407,-104 475,-89 524,-78"/>
<polygon style="fill:midnightblue;stroke:midnightblue;" points="524.881,-81.3933 534,-76 523.508,-74.5292 524.881,-81.3933"/>
</g>
<!-- Node13 -->
<g id="node27" class="node"><title>Node13</title>
<polygon style="fill:white;stroke:#bfbfbf;" points="656,-56 656,-76 763,-76 763,-56 656,-56"/>
<text text-anchor="middle" x="709" y="-63" style="font-family:Arial;font-size:10.00;">ltr/utility/shared_ptr.h</text>
</g>
<!-- Node1&#45;&gt;Node13 -->
<g id="edge28" class="edge"><title>Node1&#45;&gt;Node13</title>
<path style="fill:none;stroke:midnightblue;" d="M363,-116C423,-108 538,-92 646,-76"/>
<polygon style="fill:midnightblue;stroke:midnightblue;" points="646.881,-79.3933 656,-74 645.508,-72.5292 646.881,-79.3933"/>
</g>
<!-- Node7&#45;&gt;Node3 -->
<g id="edge14" class="edge"><title>Node7&#45;&gt;Node3</title>
<path style="fill:none;stroke:midnightblue;" d="M204,-56C186,-47 160,-34 140,-24"/>
<polygon style="fill:midnightblue;stroke:midnightblue;" points="141.56,-20.8631 131,-20 138.717,-27.2598 141.56,-20.8631"/>
</g>
<!-- Node7&#45;&gt;Node5 -->
<g id="edge16" class="edge"><title>Node7&#45;&gt;Node5</title>
<path style="fill:none;stroke:midnightblue;" d="M224,-56C224,-49 224,-39 224,-30"/>
<polygon style="fill:midnightblue;stroke:midnightblue;" points="227.5,-30 224,-20 220.5,-30 227.5,-30"/>
</g>
<!-- Node9 -->
<g id="node19" class="node"><title>Node9</title>
<polygon style="fill:white;stroke:#bfbfbf;" points="470,-0 470,-20 526,-20 526,-0 470,-0"/>
<text text-anchor="middle" x="498" y="-7" style="font-family:Arial;font-size:10.00;">algorithm</text>
</g>
<!-- Node8&#45;&gt;Node9 -->
<g id="edge20" class="edge"><title>Node8&#45;&gt;Node9</title>
<path style="fill:none;stroke:midnightblue;" d="M459,-56C466,-48 475,-38 483,-28"/>
<polygon style="fill:midnightblue;stroke:midnightblue;" points="485.8,-30.1 489,-20 480.2,-25.9 485.8,-30.1"/>
</g>
<!-- Node10 -->
<g id="node21" class="node"><title>Node10</title>
<polygon style="fill:white;stroke:#bfbfbf;" points="544,-0 544,-20 651,-20 651,-0 544,-0"/>
<text text-anchor="middle" x="597" y="-7" style="font-family:Arial;font-size:10.00;">boost/shared_ptr.hpp</text>
</g>
<!-- Node8&#45;&gt;Node10 -->
<g id="edge22" class="edge"><title>Node8&#45;&gt;Node10</title>
<path style="fill:none;stroke:midnightblue;" d="M477,-56C500,-47 535,-34 561,-24"/>
<polygon style="fill:midnightblue;stroke:midnightblue;" points="563.015,-26.9636 571,-20 560.415,-20.4643 563.015,-26.9636"/>
</g>
<!-- Node11 -->
<g id="node23" class="node"><title>Node11</title>
<polygon style="fill:white;stroke:#bfbfbf;" points="262,-0 262,-20 453,-20 453,-0 262,-0"/>
<text text-anchor="middle" x="357" y="-7" style="font-family:Arial;font-size:10.00;">boost/smart_ptr/detail/operator_bool.hpp</text>
</g>
<!-- Node8&#45;&gt;Node11 -->
<g id="edge24" class="edge"><title>Node8&#45;&gt;Node11</title>
<path style="fill:none;stroke:midnightblue;" d="M434,-56C420,-48 399,-35 383,-25"/>
<polygon style="fill:midnightblue;stroke:midnightblue;" points="384.441,-21.7969 374,-20 381.042,-27.916 384.441,-21.7969"/>
</g>
</g>
</svg>
