<?xml version="1.0" encoding="UTF-8" standalone="no"?>
<!DOCTYPE svg PUBLIC "-//W3C//DTD SVG 1.0//EN"
 "http://www.w3.org/TR/2001/REC-SVG-20010904/DTD/svg10.dtd" [
 <!ATTLIST svg xmlns:xlink CDATA #FIXED "http://www.w3.org/1999/xlink">
]>
<!-- Generated by Graphviz version 2.20.2 (Tue Mar &#160;2 19:03:41 UTC 2010)
     For user: (jenkins)  -->
<!-- Title: G Pages: 1 -->
<svg width="404pt" height="84pt"
 viewBox="0.00 0.00 404.00 84.00" xmlns="http://www.w3.org/2000/svg" xmlns:xlink="http://www.w3.org/1999/xlink">
<g id="graph0" class="graph" transform="scale(1 1) rotate(0) translate(4 80)">
<title>G</title>
<polygon style="fill:white;stroke:white;" points="-4,4 -4,-80 400,-80 400,4 -4,4"/>
<!-- Node1 -->
<g id="node1" class="node"><title>Node1</title>
<polygon style="fill:#bfbfbf;stroke:black;" points="112,-56 112,-76 221,-76 221,-56 112,-56"/>
<text text-anchor="middle" x="166" y="-63" style="font-family:Arial;font-size:10.00;">ltr/data/object_pair.cc</text>
</g>
<!-- Node2 -->
<g id="node3" class="node"><title>Node2</title>
<polygon style="fill:white;stroke:#bfbfbf;" points="0,-0 0,-20 51,-20 51,-0 0,-0"/>
<text text-anchor="middle" x="25" y="-7" style="font-family:Arial;font-size:10.00;">sstream</text>
</g>
<!-- Node1&#45;&gt;Node2 -->
<g id="edge2" class="edge"><title>Node1&#45;&gt;Node2</title>
<path style="fill:none;stroke:midnightblue;" d="M141,-56C118,-47 85,-34 60,-24"/>
<polygon style="fill:midnightblue;stroke:midnightblue;" points="60.5847,-20.4643 50,-20 57.9849,-26.9636 60.5847,-20.4643"/>
</g>
<!-- Node3 -->
<g id="node5" class="node"><title>Node3</title>
<polygon style="fill:white;stroke:#bfbfbf;" points="68,-0 68,-20 152,-20 152,-0 68,-0"/>
<text text-anchor="middle" x="110" y="-7" style="font-family:Arial;font-size:10.00;">ltr/data/object.h</text>
</g>
<!-- Node1&#45;&gt;Node3 -->
<g id="edge4" class="edge"><title>Node1&#45;&gt;Node3</title>
<path style="fill:none;stroke:midnightblue;" d="M156,-56C148,-48 137,-37 127,-27"/>
<polygon style="fill:midnightblue;stroke:midnightblue;" points="129.546,-24.5962 120,-20 124.596,-29.546 129.546,-24.5962"/>
</g>
<!-- Node4 -->
<g id="node7" class="node"><title>Node4</title>
<polygon style="fill:white;stroke:#bfbfbf;" points="170,-0 170,-20 274,-20 274,-0 170,-0"/>
<text text-anchor="middle" x="222" y="-7" style="font-family:Arial;font-size:10.00;">ltr/data/object_pair.h</text>
</g>
<!-- Node1&#45;&gt;Node4 -->
<g id="edge6" class="edge"><title>Node1&#45;&gt;Node4</title>
<path style="fill:none;stroke:midnightblue;" d="M176,-56C184,-48 195,-37 205,-27"/>
<polygon style="fill:midnightblue;stroke:midnightblue;" points="207.404,-29.546 212,-20 202.454,-24.5962 207.404,-29.546"/>
</g>
<!-- Node5 -->
<g id="node9" class="node"><title>Node5</title>
<polygon style="fill:white;stroke:#bfbfbf;" points="292,-0 292,-20 396,-20 396,-0 292,-0"/>
<text text-anchor="middle" x="344" y="-7" style="font-family:Arial;font-size:10.00;">ltr/utility/numerical.h</text>
</g>
<!-- Node1&#45;&gt;Node5 -->
<g id="edge8" class="edge"><title>Node1&#45;&gt;Node5</title>
<path style="fill:none;stroke:midnightblue;" d="M198,-56C227,-47 270,-33 302,-23"/>
<polygon style="fill:midnightblue;stroke:midnightblue;" points="303.427,-26.2259 312,-20 301.416,-19.5212 303.427,-26.2259"/>
</g>
</g>
</svg>
