<?xml version="1.0" encoding="UTF-8" standalone="no"?>
<!DOCTYPE svg PUBLIC "-//W3C//DTD SVG 1.0//EN"
 "http://www.w3.org/TR/2001/REC-SVG-20010904/DTD/svg10.dtd" [
 <!ATTLIST svg xmlns:xlink CDATA #FIXED "http://www.w3.org/1999/xlink">
]>
<!-- Generated by Graphviz version 2.20.2 (Tue Mar &#160;2 19:03:41 UTC 2010)
     For user: (jenkins)  -->
<!-- Title: G Pages: 1 -->
<svg width="658pt" height="84pt"
 viewBox="0.00 0.00 658.00 84.00" xmlns="http://www.w3.org/2000/svg" xmlns:xlink="http://www.w3.org/1999/xlink">
<g id="graph0" class="graph" transform="scale(1 1) rotate(0) translate(4 80)">
<title>G</title>
<polygon style="fill:white;stroke:white;" points="-4,4 -4,-80 654,-80 654,4 -4,4"/>
<!-- Node1 -->
<g id="node1" class="node"><title>Node1</title>
<polygon style="fill:#bfbfbf;stroke:black;" points="196,-56 196,-76 322,-76 322,-56 196,-56"/>
<text text-anchor="middle" x="259" y="-63" style="font-family:Arial;font-size:10.00;">ltr/data/object_unittest.cc</text>
</g>
<!-- Node2 -->
<g id="node3" class="node"><title>Node2</title>
<polygon style="fill:white;stroke:#bfbfbf;" points="0,-0 0,-20 48,-20 48,-0 0,-0"/>
<text text-anchor="middle" x="24" y="-7" style="font-family:Arial;font-size:10.00;">stdlib.h</text>
</g>
<!-- Node1&#45;&gt;Node2 -->
<g id="edge2" class="edge"><title>Node1&#45;&gt;Node2</title>
<path style="fill:none;stroke:midnightblue;" d="M212,-56C173,-47 116,-35 58,-20"/>
<polygon style="fill:midnightblue;stroke:midnightblue;" points="58.584,-16.5212 48,-17 56.5725,-23.2259 58.584,-16.5212"/>
</g>
<!-- Node3 -->
<g id="node5" class="node"><title>Node3</title>
<polygon style="fill:white;stroke:#bfbfbf;" points="66,-0 66,-20 106,-20 106,-0 66,-0"/>
<text text-anchor="middle" x="86" y="-7" style="font-family:Arial;font-size:10.00;">string</text>
</g>
<!-- Node1&#45;&gt;Node3 -->
<g id="edge4" class="edge"><title>Node1&#45;&gt;Node3</title>
<path style="fill:none;stroke:midnightblue;" d="M227,-56C200,-48 159,-35 116,-20"/>
<polygon style="fill:midnightblue;stroke:midnightblue;" points="116.584,-16.5212 106,-17 114.573,-23.2259 116.584,-16.5212"/>
</g>
<!-- Node4 -->
<g id="node7" class="node"><title>Node4</title>
<polygon style="fill:white;stroke:#bfbfbf;" points="124,-0 124,-20 195,-20 195,-0 124,-0"/>
<text text-anchor="middle" x="159" y="-7" style="font-family:Arial;font-size:10.00;">gtest/gtest.h</text>
</g>
<!-- Node1&#45;&gt;Node4 -->
<g id="edge6" class="edge"><title>Node1&#45;&gt;Node4</title>
<path style="fill:none;stroke:midnightblue;" d="M241,-56C226,-48 204,-35 186,-25"/>
<polygon style="fill:midnightblue;stroke:midnightblue;" points="187.441,-21.7969 177,-20 184.042,-27.916 187.441,-21.7969"/>
</g>
<!-- Node5 -->
<g id="node9" class="node"><title>Node5</title>
<polygon style="fill:white;stroke:#bfbfbf;" points="212,-0 212,-20 307,-20 307,-0 212,-0"/>
<text text-anchor="middle" x="259" y="-7" style="font-family:Arial;font-size:10.00;">ltr/data/data_set.h</text>
</g>
<!-- Node1&#45;&gt;Node5 -->
<g id="edge8" class="edge"><title>Node1&#45;&gt;Node5</title>
<path style="fill:none;stroke:midnightblue;" d="M259,-56C259,-49 259,-39 259,-30"/>
<polygon style="fill:midnightblue;stroke:midnightblue;" points="262.5,-30 259,-20 255.5,-30 262.5,-30"/>
</g>
<!-- Node6 -->
<g id="node11" class="node"><title>Node6</title>
<polygon style="fill:white;stroke:#bfbfbf;" points="324,-0 324,-20 408,-20 408,-0 324,-0"/>
<text text-anchor="middle" x="366" y="-7" style="font-family:Arial;font-size:10.00;">ltr/data/object.h</text>
</g>
<!-- Node1&#45;&gt;Node6 -->
<g id="edge10" class="edge"><title>Node1&#45;&gt;Node6</title>
<path style="fill:none;stroke:midnightblue;" d="M278,-56C294,-47 319,-34 338,-25"/>
<polygon style="fill:midnightblue;stroke:midnightblue;" points="339.958,-27.916 347,-20 336.559,-21.7969 339.958,-27.916"/>
</g>
<!-- Node7 -->
<g id="node13" class="node"><title>Node7</title>
<polygon style="fill:white;stroke:#bfbfbf;" points="426,-0 426,-20 528,-20 528,-0 426,-0"/>
<text text-anchor="middle" x="477" y="-7" style="font-family:Arial;font-size:10.00;">ltr/data/object_list.h</text>
</g>
<!-- Node1&#45;&gt;Node7 -->
<g id="edge12" class="edge"><title>Node1&#45;&gt;Node7</title>
<path style="fill:none;stroke:midnightblue;" d="M298,-56C335,-47 389,-33 428,-23"/>
<polygon style="fill:midnightblue;stroke:midnightblue;" points="429.427,-26.2259 438,-20 427.416,-19.5212 429.427,-26.2259"/>
</g>
<!-- Node8 -->
<g id="node15" class="node"><title>Node8</title>
<polygon style="fill:white;stroke:#bfbfbf;" points="546,-0 546,-20 650,-20 650,-0 546,-0"/>
<text text-anchor="middle" x="598" y="-7" style="font-family:Arial;font-size:10.00;">ltr/data/object_pair.h</text>
</g>
<!-- Node1&#45;&gt;Node8 -->
<g id="edge14" class="edge"><title>Node1&#45;&gt;Node8</title>
<path style="fill:none;stroke:midnightblue;" d="M320,-56C381,-46 474,-31 536,-21"/>
<polygon style="fill:midnightblue;stroke:midnightblue;" points="536.881,-24.3933 546,-19 535.508,-17.5292 536.881,-24.3933"/>
</g>
</g>
</svg>
