<?xml version="1.0" encoding="UTF-8" standalone="no"?>
<!DOCTYPE svg PUBLIC "-//W3C//DTD SVG 1.0//EN"
 "http://www.w3.org/TR/2001/REC-SVG-20010904/DTD/svg10.dtd" [
 <!ATTLIST svg xmlns:xlink CDATA #FIXED "http://www.w3.org/1999/xlink">
]>
<!-- Generated by Graphviz version 2.20.2 (Tue Mar &#160;2 19:03:41 UTC 2010)
     For user: (jenkins)  -->
<!-- Title: G Pages: 1 -->
<svg width="1463pt" height="364pt"
 viewBox="0.00 0.00 1463.00 364.00" xmlns="http://www.w3.org/2000/svg" xmlns:xlink="http://www.w3.org/1999/xlink">
<g id="graph0" class="graph" transform="scale(1 1) rotate(0) translate(4 360)">
<title>G</title>
<polygon style="fill:white;stroke:white;" points="-4,4 -4,-360 1459,-360 1459,4 -4,4"/>
<!-- Node1 -->
<g id="node1" class="node"><title>Node1</title>
<polygon style="fill:#bfbfbf;stroke:black;" points="440,-336 440,-356 566,-356 566,-336 440,-336"/>
<text text-anchor="middle" x="503" y="-343" style="font-family:Arial;font-size:10.00;">ltr/data/object_unittest.cc</text>
</g>
<!-- Node2 -->
<g id="node3" class="node"><title>Node2</title>
<polygon style="fill:white;stroke:#bfbfbf;" points="111,-280 111,-300 159,-300 159,-280 111,-280"/>
<text text-anchor="middle" x="135" y="-287" style="font-family:Arial;font-size:10.00;">stdlib.h</text>
</g>
<!-- Node1&#45;&gt;Node2 -->
<g id="edge2" class="edge"><title>Node1&#45;&gt;Node2</title>
<path style="fill:none;stroke:midnightblue;" d="M440,-339C373,-332 265,-318 173,-300 172,-300 170,-299 169,-299"/>
<polygon style="fill:midnightblue;stroke:midnightblue;" points="169.492,-295.529 159,-297 168.119,-302.393 169.492,-295.529"/>
</g>
<!-- Node3 -->
<g id="node5" class="node"><title>Node3</title>
<polygon style="fill:white;stroke:#bfbfbf;" points="787,-0 787,-20 827,-20 827,-0 787,-0"/>
<text text-anchor="middle" x="807" y="-7" style="font-family:Arial;font-size:10.00;">string</text>
</g>
<!-- Node1&#45;&gt;Node3 -->
<g id="edge4" class="edge"><title>Node1&#45;&gt;Node3</title>
<path style="fill:none;stroke:midnightblue;" d="M566,-344C764,-338 1357,-313 1357,-234 1357,-234 1357,-234 1357,-122 1357,-83 1335,-73 1301,-56 1260,-34 938,-16 837,-11"/>
<polygon style="fill:midnightblue;stroke:midnightblue;" points="837,-7.5001 827,-11 837,-14.5001 837,-7.5001"/>
</g>
<!-- Node4 -->
<g id="node7" class="node"><title>Node4</title>
<polygon style="fill:white;stroke:#bfbfbf;" points="1385,-280 1385,-300 1456,-300 1456,-280 1385,-280"/>
<text text-anchor="middle" x="1420" y="-287" style="font-family:Arial;font-size:10.00;">gtest/gtest.h</text>
</g>
<!-- Node1&#45;&gt;Node4 -->
<g id="edge6" class="edge"><title>Node1&#45;&gt;Node4</title>
<path style="fill:none;stroke:midnightblue;" d="M566,-344C738,-338 1215,-320 1371,-300 1372,-300 1374,-299 1375,-299"/>
<polygon style="fill:midnightblue;stroke:midnightblue;" points="1375.4,-302.478 1385,-298 1374.7,-295.512 1375.4,-302.478"/>
</g>
<!-- Node5 -->
<g id="node9" class="node"><title>Node5</title>
<a xlink:href="data__set_8h.html" target="_top" xlink:title="ltr/data/data_set.h">
<polygon style="fill:white;stroke:black;" points="547,-280 547,-300 642,-300 642,-280 547,-280"/>
<text text-anchor="middle" x="594" y="-287" style="font-family:Arial;font-size:10.00;">ltr/data/data_set.h</text>
</a>
</g>
<!-- Node1&#45;&gt;Node5 -->
<g id="edge8" class="edge"><title>Node1&#45;&gt;Node5</title>
<path style="fill:none;stroke:midnightblue;" d="M519,-336C532,-328 553,-315 568,-305"/>
<polygon style="fill:midnightblue;stroke:midnightblue;" points="569.958,-307.916 577,-300 566.559,-301.797 569.958,-307.916"/>
</g>
<!-- Node9 -->
<g id="node18" class="node"><title>Node9</title>
<a xlink:href="object_8h.html" target="_top" xlink:title="ltr/data/object.h">
<polygon style="fill:white;stroke:black;" points="383,-112 383,-132 467,-132 467,-112 383,-112"/>
<text text-anchor="middle" x="425" y="-119" style="font-family:Arial;font-size:10.00;">ltr/data/object.h</text>
</a>
</g>
<!-- Node1&#45;&gt;Node9 -->
<g id="edge122" class="edge"><title>Node1&#45;&gt;Node9</title>
<path style="fill:none;stroke:midnightblue;" d="M441,-336C388,-324 316,-298 282,-244 278,-236 278,-231 282,-224 295,-199 361,-159 398,-137"/>
<polygon style="fill:midnightblue;stroke:midnightblue;" points="399.958,-139.916 407,-132 396.559,-133.797 399.958,-139.916"/>
</g>
<!-- Node17 -->
<g id="node39" class="node"><title>Node17</title>
<a xlink:href="object__list_8h.html" target="_top" xlink:title="ltr/data/object_list.h">
<polygon style="fill:white;stroke:black;" points="203,-168 203,-188 305,-188 305,-168 203,-168"/>
<text text-anchor="middle" x="254" y="-175" style="font-family:Arial;font-size:10.00;">ltr/data/object_list.h</text>
</a>
</g>
<!-- Node1&#45;&gt;Node17 -->
<g id="edge124" class="edge"><title>Node1&#45;&gt;Node17</title>
<path style="fill:none;stroke:midnightblue;" d="M440,-336C385,-324 308,-298 265,-244 255,-231 253,-212 253,-198"/>
<polygon style="fill:midnightblue;stroke:midnightblue;" points="256.5,-198 253,-188 249.5,-198 256.5,-198"/>
</g>
<!-- Node18 -->
<g id="node47" class="node"><title>Node18</title>
<a xlink:href="object__pair_8h.html" target="_top" xlink:title="ltr/data/object_pair.h">
<polygon style="fill:white;stroke:black;" points="485,-168 485,-188 589,-188 589,-168 485,-168"/>
<text text-anchor="middle" x="537" y="-175" style="font-family:Arial;font-size:10.00;">ltr/data/object_pair.h</text>
</a>
</g>
<!-- Node1&#45;&gt;Node18 -->
<g id="edge126" class="edge"><title>Node1&#45;&gt;Node18</title>
<path style="fill:none;stroke:midnightblue;" d="M505,-336C510,-309 526,-234 533,-198"/>
<polygon style="fill:midnightblue;stroke:midnightblue;" points="536.471,-198.492 535,-188 529.607,-197.119 536.471,-198.492"/>
</g>
<!-- Node5&#45;&gt;Node3 -->
<g id="edge14" class="edge"><title>Node5&#45;&gt;Node3</title>
<path style="fill:none;stroke:midnightblue;" d="M642,-288C804,-279 1319,-246 1319,-178 1319,-178 1319,-178 1319,-122 1319,-85 1303,-74 1272,-56 1234,-34 934,-16 837,-11"/>
<polygon style="fill:midnightblue;stroke:midnightblue;" points="837,-7.5001 827,-11 837,-14.5001 837,-7.5001"/>
</g>
<!-- Node6 -->
<g id="node11" class="node"><title>Node6</title>
<polygon style="fill:white;stroke:#bfbfbf;" points="569,-224 569,-244 620,-244 620,-224 569,-224"/>
<text text-anchor="middle" x="594" y="-231" style="font-family:Arial;font-size:10.00;">sstream</text>
</g>
<!-- Node5&#45;&gt;Node6 -->
<g id="edge10" class="edge"><title>Node5&#45;&gt;Node6</title>
<path style="fill:none;stroke:midnightblue;" d="M594,-280C594,-273 594,-263 594,-254"/>
<polygon style="fill:midnightblue;stroke:midnightblue;" points="597.5,-254 594,-244 590.5,-254 597.5,-254"/>
</g>
<!-- Node7 -->
<g id="node13" class="node"><title>Node7</title>
<polygon style="fill:white;stroke:#bfbfbf;" points="702,-56 702,-76 761,-76 761,-56 702,-56"/>
<text text-anchor="middle" x="731" y="-63" style="font-family:Arial;font-size:10.00;">stdexcept</text>
</g>
<!-- Node5&#45;&gt;Node7 -->
<g id="edge12" class="edge"><title>Node5&#45;&gt;Node7</title>
<path style="fill:none;stroke:midnightblue;" d="M642,-285C694,-279 772,-267 790,-244 829,-194 776,-119 747,-84"/>
<polygon style="fill:midnightblue;stroke:midnightblue;" points="749.219,-81.221 740,-76 743.951,-85.8306 749.219,-81.221"/>
</g>
<!-- Node8 -->
<g id="node16" class="node"><title>Node8</title>
<polygon style="fill:white;stroke:#bfbfbf;" points="588,-56 588,-76 630,-76 630,-56 588,-56"/>
<text text-anchor="middle" x="609" y="-63" style="font-family:Arial;font-size:10.00;">vector</text>
</g>
<!-- Node5&#45;&gt;Node8 -->
<g id="edge16" class="edge"><title>Node5&#45;&gt;Node8</title>
<path style="fill:none;stroke:midnightblue;" d="M605,-280C613,-271 623,-258 628,-244 645,-189 627,-119 616,-86"/>
<polygon style="fill:midnightblue;stroke:midnightblue;" points="619.226,-84.5725 613,-76 612.521,-86.584 619.226,-84.5725"/>
</g>
<!-- Node5&#45;&gt;Node9 -->
<g id="edge18" class="edge"><title>Node5&#45;&gt;Node9</title>
<path style="fill:none;stroke:midnightblue;" d="M580,-280C557,-262 510,-225 476,-188 461,-173 447,-154 438,-140"/>
<polygon style="fill:midnightblue;stroke:midnightblue;" points="440.8,-137.9 432,-132 435.2,-142.1 440.8,-137.9"/>
</g>
<!-- Node5&#45;&gt;Node17 -->
<g id="edge44" class="edge"><title>Node5&#45;&gt;Node17</title>
<path style="fill:none;stroke:midnightblue;" d="M547,-288C470,-285 322,-275 282,-244 268,-233 261,-213 257,-198"/>
<polygon style="fill:midnightblue;stroke:midnightblue;" points="260.393,-197.119 255,-188 253.529,-198.492 260.393,-197.119"/>
</g>
<!-- Node5&#45;&gt;Node18 -->
<g id="edge58" class="edge"><title>Node5&#45;&gt;Node18</title>
<path style="fill:none;stroke:midnightblue;" d="M585,-280C577,-271 567,-257 560,-244 552,-229 546,-211 542,-198"/>
<polygon style="fill:midnightblue;stroke:midnightblue;" points="545.226,-196.573 539,-188 538.521,-198.584 545.226,-196.573"/>
</g>
<!-- Node19 -->
<g id="node55" class="node"><title>Node19</title>
<a xlink:href="feature__info_8h.html" target="_top" xlink:title="ltr/data/feature_info.h">
<polygon style="fill:white;stroke:black;" points="675,-224 675,-244 782,-244 782,-224 675,-224"/>
<text text-anchor="middle" x="728" y="-231" style="font-family:Arial;font-size:10.00;">ltr/data/feature_info.h</text>
</a>
</g>
<!-- Node5&#45;&gt;Node19 -->
<g id="edge72" class="edge"><title>Node5&#45;&gt;Node19</title>
<path style="fill:none;stroke:midnightblue;" d="M618,-280C639,-271 670,-258 694,-248"/>
<polygon style="fill:midnightblue;stroke:midnightblue;" points="696.015,-250.964 704,-244 693.415,-244.464 696.015,-250.964"/>
</g>
<!-- Node26 -->
<g id="node79" class="node"><title>Node26</title>
<a xlink:href="per__object__accessor_8h.html" target="_top" xlink:title="ltr/data/per_object_accessor.h">
<polygon style="fill:white;stroke:black;" points="291,-224 291,-244 438,-244 438,-224 291,-224"/>
<text text-anchor="middle" x="364" y="-231" style="font-family:Arial;font-size:10.00;">ltr/data/per_object_accessor.h</text>
</a>
</g>
<!-- Node5&#45;&gt;Node26 -->
<g id="edge106" class="edge"><title>Node5&#45;&gt;Node26</title>
<path style="fill:none;stroke:midnightblue;" d="M553,-280C514,-271 457,-256 415,-246"/>
<polygon style="fill:midnightblue;stroke:midnightblue;" points="415.492,-242.529 405,-244 414.119,-249.393 415.492,-242.529"/>
</g>
<!-- Node27 -->
<g id="node86" class="node"><title>Node27</title>
<a xlink:href="aliaser_8h.html" target="_top" xlink:title="ltr/interfaces/aliaser.h">
<polygon style="fill:white;stroke:black;" points="1183,-112 1183,-132 1291,-132 1291,-112 1183,-112"/>
<text text-anchor="middle" x="1237" y="-119" style="font-family:Arial;font-size:10.00;">ltr/interfaces/aliaser.h</text>
</a>
</g>
<!-- Node5&#45;&gt;Node27 -->
<g id="edge118" class="edge"><title>Node5&#45;&gt;Node27</title>
<path style="fill:none;stroke:midnightblue;" d="M642,-285C763,-272 1076,-235 1169,-188 1191,-176 1210,-156 1223,-140"/>
<polygon style="fill:midnightblue;stroke:midnightblue;" points="1225.8,-142.1 1229,-132 1220.2,-137.9 1225.8,-142.1"/>
</g>
<!-- Node9&#45;&gt;Node3 -->
<g id="edge26" class="edge"><title>Node9&#45;&gt;Node3</title>
<path style="fill:none;stroke:midnightblue;" d="M441,-112C468,-95 521,-63 541,-56 623,-26 727,-15 777,-12"/>
<polygon style="fill:midnightblue;stroke:midnightblue;" points="777.398,-15.4778 787,-11 776.701,-8.5125 777.398,-15.4778"/>
</g>
<!-- Node9&#45;&gt;Node7 -->
<g id="edge24" class="edge"><title>Node9&#45;&gt;Node7</title>
<path style="fill:none;stroke:midnightblue;" d="M467,-116C520,-108 613,-93 692,-76 692,-76 692,-76 692,-76"/>
<polygon style="fill:midnightblue;stroke:midnightblue;" points="692.881,-79.3933 702,-74 691.508,-72.5292 692.881,-79.3933"/>
</g>
<!-- Node9&#45;&gt;Node8 -->
<g id="edge28" class="edge"><title>Node9&#45;&gt;Node8</title>
<path style="fill:none;stroke:midnightblue;" d="M458,-112C492,-102 545,-85 578,-75"/>
<polygon style="fill:midnightblue;stroke:midnightblue;" points="579.427,-78.2259 588,-72 577.416,-71.5212 579.427,-78.2259"/>
</g>
<!-- Node10 -->
<g id="node20" class="node"><title>Node10</title>
<polygon style="fill:white;stroke:#bfbfbf;" points="649,-56 649,-76 684,-76 684,-56 649,-56"/>
<text text-anchor="middle" x="666" y="-63" style="font-family:Arial;font-size:10.00;">map</text>
</g>
<!-- Node9&#45;&gt;Node10 -->
<g id="edge20" class="edge"><title>Node9&#45;&gt;Node10</title>
<path style="fill:none;stroke:midnightblue;" d="M467,-115C510,-107 580,-93 639,-76 639,-76 639,-76 639,-76"/>
<polygon style="fill:midnightblue;stroke:midnightblue;" points="640.427,-79.2259 649,-73 638.416,-72.5212 640.427,-79.2259"/>
</g>
<!-- Node11 -->
<g id="node22" class="node"><title>Node11</title>
<polygon style="fill:white;stroke:#bfbfbf;" points="406,-0 406,-20 457,-20 457,-0 406,-0"/>
<text text-anchor="middle" x="431" y="-7" style="font-family:Arial;font-size:10.00;">ostream</text>
</g>
<!-- Node9&#45;&gt;Node11 -->
<g id="edge22" class="edge"><title>Node9&#45;&gt;Node11</title>
<path style="fill:none;stroke:midnightblue;" d="M404,-112C381,-100 352,-79 364,-56 370,-42 384,-32 397,-25"/>
<polygon style="fill:midnightblue;stroke:midnightblue;" points="398.958,-27.916 406,-20 395.559,-21.7969 398.958,-27.916"/>
</g>
<!-- Node12 -->
<g id="node27" class="node"><title>Node12</title>
<a xlink:href="printable_8h.html" target="_top" xlink:title="ltr/interfaces/printable.h">
<polygon style="fill:white;stroke:black;" points="373,-56 373,-76 490,-76 490,-56 373,-56"/>
<text text-anchor="middle" x="431" y="-63" style="font-family:Arial;font-size:10.00;">ltr/interfaces/printable.h</text>
</a>
</g>
<!-- Node9&#45;&gt;Node12 -->
<g id="edge30" class="edge"><title>Node9&#45;&gt;Node12</title>
<path style="fill:none;stroke:midnightblue;" d="M426,-112C427,-105 428,-95 429,-86"/>
<polygon style="fill:midnightblue;stroke:midnightblue;" points="432.488,-86.2987 430,-76 425.522,-85.6021 432.488,-86.2987"/>
</g>
<!-- Node13 -->
<g id="node31" class="node"><title>Node13</title>
<a xlink:href="shared__ptr_8h.html" target="_top" xlink:title="ltr/utility/shared_ptr.h">
<polygon style="fill:white;stroke:black;" points="109,-56 109,-76 216,-76 216,-56 109,-56"/>
<text text-anchor="middle" x="162" y="-63" style="font-family:Arial;font-size:10.00;">ltr/utility/shared_ptr.h</text>
</a>
</g>
<!-- Node9&#45;&gt;Node13 -->
<g id="edge36" class="edge"><title>Node9&#45;&gt;Node13</title>
<path style="fill:none;stroke:midnightblue;" d="M383,-113C338,-104 269,-89 219,-78"/>
<polygon style="fill:midnightblue;stroke:midnightblue;" points="219.492,-74.5292 209,-76 218.119,-81.3933 219.492,-74.5292"/>
</g>
<!-- Node12&#45;&gt;Node3 -->
<g id="edge34" class="edge"><title>Node12&#45;&gt;Node3</title>
<path style="fill:none;stroke:midnightblue;" d="M490,-57C571,-45 715,-23 777,-14"/>
<polygon style="fill:midnightblue;stroke:midnightblue;" points="777.398,-17.4778 787,-13 776.701,-10.5125 777.398,-17.4778"/>
</g>
<!-- Node12&#45;&gt;Node11 -->
<g id="edge32" class="edge"><title>Node12&#45;&gt;Node11</title>
<path style="fill:none;stroke:midnightblue;" d="M431,-56C431,-49 431,-39 431,-30"/>
<polygon style="fill:midnightblue;stroke:midnightblue;" points="434.5,-30 431,-20 427.5,-30 434.5,-30"/>
</g>
<!-- Node14 -->
<g id="node33" class="node"><title>Node14</title>
<polygon style="fill:white;stroke:#bfbfbf;" points="0,-0 0,-20 56,-20 56,-0 0,-0"/>
<text text-anchor="middle" x="28" y="-7" style="font-family:Arial;font-size:10.00;">algorithm</text>
</g>
<!-- Node13&#45;&gt;Node14 -->
<g id="edge38" class="edge"><title>Node13&#45;&gt;Node14</title>
<path style="fill:none;stroke:midnightblue;" d="M138,-56C117,-47 86,-34 62,-24"/>
<polygon style="fill:midnightblue;stroke:midnightblue;" points="62.5847,-20.4643 52,-20 59.9849,-26.9636 62.5847,-20.4643"/>
</g>
<!-- Node15 -->
<g id="node35" class="node"><title>Node15</title>
<polygon style="fill:white;stroke:#bfbfbf;" points="74,-0 74,-20 181,-20 181,-0 74,-0"/>
<text text-anchor="middle" x="127" y="-7" style="font-family:Arial;font-size:10.00;">boost/shared_ptr.hpp</text>
</g>
<!-- Node13&#45;&gt;Node15 -->
<g id="edge40" class="edge"><title>Node13&#45;&gt;Node15</title>
<path style="fill:none;stroke:midnightblue;" d="M156,-56C151,-49 145,-38 139,-29"/>
<polygon style="fill:midnightblue;stroke:midnightblue;" points="141.916,-27.0418 134,-20 135.797,-30.4414 141.916,-27.0418"/>
</g>
<!-- Node16 -->
<g id="node37" class="node"><title>Node16</title>
<polygon style="fill:white;stroke:#bfbfbf;" points="198,-0 198,-20 389,-20 389,-0 198,-0"/>
<text text-anchor="middle" x="293" y="-7" style="font-family:Arial;font-size:10.00;">boost/smart_ptr/detail/operator_bool.hpp</text>
</g>
<!-- Node13&#45;&gt;Node16 -->
<g id="edge42" class="edge"><title>Node13&#45;&gt;Node16</title>
<path style="fill:none;stroke:midnightblue;" d="M185,-56C206,-47 236,-34 259,-24"/>
<polygon style="fill:midnightblue;stroke:midnightblue;" points="261.015,-26.9636 269,-20 258.415,-20.4643 261.015,-26.9636"/>
</g>
<!-- Node17&#45;&gt;Node3 -->
<g id="edge48" class="edge"><title>Node17&#45;&gt;Node3</title>
<path style="fill:none;stroke:midnightblue;" d="M259,-168C273,-143 311,-80 364,-56 437,-21 690,-13 777,-10"/>
<polygon style="fill:midnightblue;stroke:midnightblue;" points="777,-13.5001 787,-10 777,-6.5001 777,-13.5001"/>
</g>
<!-- Node17&#45;&gt;Node7 -->
<g id="edge46" class="edge"><title>Node17&#45;&gt;Node7</title>
<path style="fill:none;stroke:midnightblue;" d="M305,-168C350,-159 417,-145 476,-132 553,-114 642,-90 692,-77"/>
<polygon style="fill:midnightblue;stroke:midnightblue;" points="693.427,-80.2259 702,-74 691.416,-73.5212 693.427,-80.2259"/>
</g>
<!-- Node17&#45;&gt;Node8 -->
<g id="edge50" class="edge"><title>Node17&#45;&gt;Node8</title>
<path style="fill:none;stroke:midnightblue;" d="M273,-168C290,-158 317,-144 339,-132 354,-123 357,-118 374,-112 443,-85 532,-74 578,-69"/>
<polygon style="fill:midnightblue;stroke:midnightblue;" points="578.398,-72.4778 588,-68 577.701,-65.5125 578.398,-72.4778"/>
</g>
<!-- Node17&#45;&gt;Node9 -->
<g id="edge52" class="edge"><title>Node17&#45;&gt;Node9</title>
<path style="fill:none;stroke:midnightblue;" d="M285,-168C313,-159 354,-145 384,-135"/>
<polygon style="fill:midnightblue;stroke:midnightblue;" points="385.427,-138.226 394,-132 383.416,-131.521 385.427,-138.226"/>
</g>
<!-- Node17&#45;&gt;Node12 -->
<g id="edge54" class="edge"><title>Node17&#45;&gt;Node12</title>
<path style="fill:none;stroke:midnightblue;" d="M266,-168C282,-154 313,-129 341,-112 360,-100 382,-89 400,-81"/>
<polygon style="fill:midnightblue;stroke:midnightblue;" points="401.958,-83.916 409,-76 398.559,-77.7969 401.958,-83.916"/>
</g>
<!-- Node17&#45;&gt;Node13 -->
<g id="edge56" class="edge"><title>Node17&#45;&gt;Node13</title>
<path style="fill:none;stroke:midnightblue;" d="M246,-168C230,-148 196,-108 177,-84"/>
<polygon style="fill:midnightblue;stroke:midnightblue;" points="179.8,-81.9 171,-76 174.2,-86.1 179.8,-81.9"/>
</g>
<!-- Node18&#45;&gt;Node3 -->
<g id="edge62" class="edge"><title>Node18&#45;&gt;Node3</title>
<path style="fill:none;stroke:midnightblue;" d="M537,-168C538,-144 544,-85 579,-56 607,-30 721,-17 777,-12"/>
<polygon style="fill:midnightblue;stroke:midnightblue;" points="777.398,-15.4778 787,-11 776.701,-8.5125 777.398,-15.4778"/>
</g>
<!-- Node18&#45;&gt;Node7 -->
<g id="edge60" class="edge"><title>Node18&#45;&gt;Node7</title>
<path style="fill:none;stroke:midnightblue;" d="M555,-168C588,-148 664,-104 704,-81"/>
<polygon style="fill:midnightblue;stroke:midnightblue;" points="705.958,-83.916 713,-76 702.559,-77.7969 705.958,-83.916"/>
</g>
<!-- Node18&#45;&gt;Node8 -->
<g id="edge64" class="edge"><title>Node18&#45;&gt;Node8</title>
<path style="fill:none;stroke:midnightblue;" d="M544,-168C555,-149 582,-109 597,-85"/>
<polygon style="fill:midnightblue;stroke:midnightblue;" points="600.203,-86.4414 602,-76 594.084,-83.0418 600.203,-86.4414"/>
</g>
<!-- Node18&#45;&gt;Node9 -->
<g id="edge66" class="edge"><title>Node18&#45;&gt;Node9</title>
<path style="fill:none;stroke:midnightblue;" d="M517,-168C500,-159 474,-146 454,-136"/>
<polygon style="fill:midnightblue;stroke:midnightblue;" points="455.56,-132.863 445,-132 452.717,-139.26 455.56,-132.863"/>
</g>
<!-- Node18&#45;&gt;Node12 -->
<g id="edge68" class="edge"><title>Node18&#45;&gt;Node12</title>
<path style="fill:none;stroke:midnightblue;" d="M528,-168C516,-155 494,-131 476,-112 467,-102 457,-92 448,-83"/>
<polygon style="fill:midnightblue;stroke:midnightblue;" points="450.546,-80.5962 441,-76 445.596,-85.546 450.546,-80.5962"/>
</g>
<!-- Node18&#45;&gt;Node13 -->
<g id="edge70" class="edge"><title>Node18&#45;&gt;Node13</title>
<path style="fill:none;stroke:midnightblue;" d="M501,-168C468,-159 417,-145 374,-132 315,-113 247,-92 204,-79"/>
<polygon style="fill:midnightblue;stroke:midnightblue;" points="204.584,-75.5212 194,-76 202.573,-82.2259 204.584,-75.5212"/>
</g>
<!-- Node19&#45;&gt;Node3 -->
<g id="edge76" class="edge"><title>Node19&#45;&gt;Node3</title>
<path style="fill:none;stroke:midnightblue;" d="M782,-228C863,-217 1017,-190 1136,-132 1146,-126 1217,-86 1223,-76 1227,-68 1228,-62 1223,-56 1196,-27 929,-15 837,-11"/>
<polygon style="fill:midnightblue;stroke:midnightblue;" points="837,-7.5001 827,-11 837,-14.5001 837,-7.5001"/>
</g>
<!-- Node19&#45;&gt;Node8 -->
<g id="edge78" class="edge"><title>Node19&#45;&gt;Node8</title>
<path style="fill:none;stroke:midnightblue;" d="M724,-224C714,-202 690,-149 661,-112 652,-101 641,-91 631,-82"/>
<polygon style="fill:midnightblue;stroke:midnightblue;" points="633.1,-79.2 623,-76 628.9,-84.8 633.1,-79.2"/>
</g>
<!-- Node19&#45;&gt;Node10 -->
<g id="edge74" class="edge"><title>Node19&#45;&gt;Node10</title>
<path style="fill:none;stroke:midnightblue;" d="M727,-224C724,-202 717,-150 699,-112 695,-102 687,-92 681,-84"/>
<polygon style="fill:midnightblue;stroke:midnightblue;" points="683.8,-81.9 675,-76 678.2,-86.1 683.8,-81.9"/>
</g>
<!-- Node19&#45;&gt;Node13 -->
<g id="edge104" class="edge"><title>Node19&#45;&gt;Node13</title>
<path style="fill:none;stroke:midnightblue;" d="M675,-229C660,-227 643,-225 628,-224 579,-219 232,-219 194,-188 165,-163 161,-114 161,-86"/>
<polygon style="fill:midnightblue;stroke:midnightblue;" points="164.5,-86 161,-76 157.5,-86 164.5,-86"/>
</g>
<!-- Node20 -->
<g id="node60" class="node"><title>Node20</title>
<a xlink:href="parameterized_8h.html" target="_top" xlink:title="ltr/interfaces/parameterized.h">
<polygon style="fill:white;stroke:black;" points="827,-168 827,-188 969,-188 969,-168 827,-168"/>
<text text-anchor="middle" x="898" y="-175" style="font-family:Arial;font-size:10.00;">ltr/interfaces/parameterized.h</text>
</a>
</g>
<!-- Node19&#45;&gt;Node20 -->
<g id="edge80" class="edge"><title>Node19&#45;&gt;Node20</title>
<path style="fill:none;stroke:midnightblue;" d="M758,-224C786,-215 827,-201 857,-191"/>
<polygon style="fill:midnightblue;stroke:midnightblue;" points="858.427,-194.226 867,-188 856.416,-187.521 858.427,-194.226"/>
</g>
<!-- Node20&#45;&gt;Node3 -->
<g id="edge84" class="edge"><title>Node20&#45;&gt;Node3</title>
<path style="fill:none;stroke:midnightblue;" d="M888,-168C872,-151 840,-113 823,-76 816,-61 812,-43 810,-30"/>
<polygon style="fill:midnightblue;stroke:midnightblue;" points="813.393,-29.1194 808,-20 806.529,-30.4922 813.393,-29.1194"/>
</g>
<!-- Node20&#45;&gt;Node7 -->
<g id="edge82" class="edge"><title>Node20&#45;&gt;Node7</title>
<path style="fill:none;stroke:midnightblue;" d="M886,-168C870,-154 840,-130 813,-112 796,-100 776,-89 760,-81"/>
<polygon style="fill:midnightblue;stroke:midnightblue;" points="761.441,-77.7969 751,-76 758.042,-83.916 761.441,-77.7969"/>
</g>
<!-- Node21 -->
<g id="node64" class="node"><title>Node21</title>
<a xlink:href="parameters__container_8h.html" target="_top" xlink:title="ltr/parameters_container/parameters_container.h">
<polygon style="fill:white;stroke:black;" points="903,-112 903,-132 1128,-132 1128,-112 903,-112"/>
<text text-anchor="middle" x="1015" y="-119" style="font-family:Arial;font-size:10.00;">ltr/parameters_container/parameters_container.h</text>
</a>
</g>
<!-- Node20&#45;&gt;Node21 -->
<g id="edge86" class="edge"><title>Node20&#45;&gt;Node21</title>
<path style="fill:none;stroke:midnightblue;" d="M919,-168C937,-159 964,-146 985,-136"/>
<polygon style="fill:midnightblue;stroke:midnightblue;" points="986.283,-139.26 994,-132 983.44,-132.863 986.283,-139.26"/>
</g>
<!-- Node21&#45;&gt;Node3 -->
<g id="edge94" class="edge"><title>Node21&#45;&gt;Node3</title>
<path style="fill:none;stroke:midnightblue;" d="M962,-112C919,-103 863,-90 845,-76 830,-64 819,-44 813,-29"/>
<polygon style="fill:midnightblue;stroke:midnightblue;" points="816.483,-28.38 810,-20 809.842,-30.5937 816.483,-28.38"/>
</g>
<!-- Node21&#45;&gt;Node7 -->
<g id="edge92" class="edge"><title>Node21&#45;&gt;Node7</title>
<path style="fill:none;stroke:midnightblue;" d="M964,-112C909,-101 822,-84 771,-74"/>
<polygon style="fill:midnightblue;stroke:midnightblue;" points="771.492,-70.5292 761,-72 770.119,-77.3933 771.492,-70.5292"/>
</g>
<!-- Node21&#45;&gt;Node12 -->
<g id="edge102" class="edge"><title>Node21&#45;&gt;Node12</title>
<path style="fill:none;stroke:midnightblue;" d="M911,-112C792,-100 602,-82 500,-73"/>
<polygon style="fill:midnightblue;stroke:midnightblue;" points="500.299,-69.5125 490,-72 499.602,-76.4778 500.299,-69.5125"/>
</g>
<!-- Node21&#45;&gt;Node13 -->
<g id="edge100" class="edge"><title>Node21&#45;&gt;Node13</title>
<path style="fill:none;stroke:midnightblue;" d="M903,-115C721,-102 371,-79 226,-71"/>
<polygon style="fill:midnightblue;stroke:midnightblue;" points="226.299,-67.5125 216,-70 225.602,-74.4778 226.299,-67.5125"/>
</g>
<!-- Node22 -->
<g id="node66" class="node"><title>Node22</title>
<polygon style="fill:white;stroke:#bfbfbf;" points="854,-56 854,-76 928,-76 928,-56 854,-56"/>
<text text-anchor="middle" x="891" y="-63" style="font-family:Arial;font-size:10.00;">logog/logog.h</text>
</g>
<!-- Node21&#45;&gt;Node22 -->
<g id="edge88" class="edge"><title>Node21&#45;&gt;Node22</title>
<path style="fill:none;stroke:midnightblue;" d="M993,-112C973,-103 945,-90 922,-80"/>
<polygon style="fill:midnightblue;stroke:midnightblue;" points="923.56,-76.8631 913,-76 920.717,-83.2598 923.56,-76.8631"/>
</g>
<!-- Node23 -->
<g id="node68" class="node"><title>Node23</title>
<polygon style="fill:white;stroke:#bfbfbf;" points="946,-56 946,-76 975,-76 975,-56 946,-56"/>
<text text-anchor="middle" x="960" y="-63" style="font-family:Arial;font-size:10.00;">list</text>
</g>
<!-- Node21&#45;&gt;Node23 -->
<g id="edge90" class="edge"><title>Node21&#45;&gt;Node23</title>
<path style="fill:none;stroke:midnightblue;" d="M1005,-112C997,-104 986,-93 977,-83"/>
<polygon style="fill:midnightblue;stroke:midnightblue;" points="979.546,-80.5962 970,-76 974.596,-85.546 979.546,-80.5962"/>
</g>
<!-- Node24 -->
<g id="node72" class="node"><title>Node24</title>
<polygon style="fill:white;stroke:#bfbfbf;" points="992,-56 992,-76 1069,-76 1069,-56 992,-56"/>
<text text-anchor="middle" x="1030" y="-63" style="font-family:Arial;font-size:10.00;">boost/any.hpp</text>
</g>
<!-- Node21&#45;&gt;Node24 -->
<g id="edge96" class="edge"><title>Node21&#45;&gt;Node24</title>
<path style="fill:none;stroke:midnightblue;" d="M1018,-112C1020,-105 1023,-95 1025,-86"/>
<polygon style="fill:midnightblue;stroke:midnightblue;" points="1028.47,-86.4922 1027,-76 1021.61,-85.1194 1028.47,-86.4922"/>
</g>
<!-- Node25 -->
<g id="node74" class="node"><title>Node25</title>
<polygon style="fill:white;stroke:#bfbfbf;" points="1086,-56 1086,-76 1215,-76 1215,-56 1086,-56"/>
<text text-anchor="middle" x="1150" y="-63" style="font-family:Arial;font-size:10.00;">boost/unordered_map.hpp</text>
</g>
<!-- Node21&#45;&gt;Node25 -->
<g id="edge98" class="edge"><title>Node21&#45;&gt;Node25</title>
<path style="fill:none;stroke:midnightblue;" d="M1039,-112C1061,-103 1092,-90 1116,-80"/>
<polygon style="fill:midnightblue;stroke:midnightblue;" points="1118.02,-82.9636 1126,-76 1115.42,-76.4643 1118.02,-82.9636"/>
</g>
<!-- Node26&#45;&gt;Node9 -->
<g id="edge108" class="edge"><title>Node26&#45;&gt;Node9</title>
<path style="fill:none;stroke:midnightblue;" d="M370,-224C381,-205 402,-165 414,-141"/>
<polygon style="fill:midnightblue;stroke:midnightblue;" points="417.203,-142.441 419,-132 411.084,-139.042 417.203,-142.441"/>
</g>
<!-- Node26&#45;&gt;Node13 -->
<g id="edge116" class="edge"><title>Node26&#45;&gt;Node13</title>
<path style="fill:none;stroke:midnightblue;" d="M291,-228C237,-221 169,-209 151,-188 127,-158 142,-112 153,-85"/>
<polygon style="fill:midnightblue;stroke:midnightblue;" points="156.137,-86.5596 157,-76 149.74,-83.7166 156.137,-86.5596"/>
</g>
<!-- Node26&#45;&gt;Node17 -->
<g id="edge112" class="edge"><title>Node26&#45;&gt;Node17</title>
<path style="fill:none;stroke:midnightblue;" d="M344,-224C328,-215 302,-202 283,-193"/>
<polygon style="fill:midnightblue;stroke:midnightblue;" points="284.441,-189.797 274,-188 281.042,-195.916 284.441,-189.797"/>
</g>
<!-- Node26&#45;&gt;Node18 -->
<g id="edge110" class="edge"><title>Node26&#45;&gt;Node18</title>
<path style="fill:none;stroke:midnightblue;" d="M395,-224C424,-215 466,-201 496,-191"/>
<polygon style="fill:midnightblue;stroke:midnightblue;" points="497.427,-194.226 506,-188 495.416,-187.521 497.427,-194.226"/>
</g>
<!-- Node26&#45;&gt;Node20 -->
<g id="edge114" class="edge"><title>Node26&#45;&gt;Node20</title>
<path style="fill:none;stroke:midnightblue;" d="M438,-226C538,-215 714,-197 817,-186"/>
<polygon style="fill:midnightblue;stroke:midnightblue;" points="817.398,-189.478 827,-185 816.701,-182.512 817.398,-189.478"/>
</g>
<!-- Node27&#45;&gt;Node3 -->
<g id="edge120" class="edge"><title>Node27&#45;&gt;Node3</title>
<path style="fill:none;stroke:midnightblue;" d="M1245,-112C1255,-97 1270,-71 1256,-56 1228,-24 934,-14 837,-10"/>
<polygon style="fill:midnightblue;stroke:midnightblue;" points="837,-6.5001 827,-10 837,-13.5001 837,-6.5001"/>
</g>
</g>
</svg>
