<?xml version="1.0" encoding="UTF-8" standalone="no"?>
<!DOCTYPE svg PUBLIC "-//W3C//DTD SVG 1.0//EN"
 "http://www.w3.org/TR/2001/REC-SVG-20010904/DTD/svg10.dtd" [
 <!ATTLIST svg xmlns:xlink CDATA #FIXED "http://www.w3.org/1999/xlink">
]>
<!-- Generated by Graphviz version 2.20.2 (Tue Mar &#160;2 19:03:41 UTC 2010)
     For user: (jenkins)  -->
<!-- Title: G Pages: 1 -->
<svg width="708pt" height="84pt"
 viewBox="0.00 0.00 708.00 84.00" xmlns="http://www.w3.org/2000/svg" xmlns:xlink="http://www.w3.org/1999/xlink">
<g id="graph0" class="graph" transform="scale(1 1) rotate(0) translate(4 80)">
<title>G</title>
<polygon style="fill:white;stroke:white;" points="-4,4 -4,-80 704,-80 704,4 -4,4"/>
<!-- Node1 -->
<g id="node1" class="node"><title>Node1</title>
<polygon style="fill:#bfbfbf;stroke:black;" points="254,-56 254,-76 480,-76 480,-56 254,-56"/>
<text text-anchor="middle" x="367" y="-63" style="font-family:Arial;font-size:10.00;">ltr/learners/decision_tree/oblivious_tree_splitter.h</text>
</g>
<!-- Node2 -->
<g id="node3" class="node"><title>Node2</title>
<a xlink:href="decision__tree__unittest_8cc.html" target="_top" xlink:title="ltr/learners/decision_tree/decision_tree_unittest.cc">
<polygon style="fill:white;stroke:black;" points="0,-0 0,-20 234,-20 234,-0 0,-0"/>
<text text-anchor="middle" x="117" y="-7" style="font-family:Arial;font-size:10.00;">ltr/learners/decision_tree/decision_tree_unittest.cc</text>
</a>
</g>
<!-- Node1&#45;&gt;Node2 -->
<g id="edge2" class="edge"><title>Node1&#45;&gt;Node2</title>
<path style="fill:none;stroke:midnightblue;" d="M312,-54C267,-44 204,-29 162,-20"/>
<polygon style="fill:midnightblue;stroke:midnightblue;" points="311.508,-57.4708 322,-56 312.881,-50.6067 311.508,-57.4708"/>
</g>
<!-- Node3 -->
<g id="node5" class="node"><title>Node3</title>
<a xlink:href="oblivious__tree__splitter_8cc.html" target="_top" xlink:title="ltr/learners/decision_tree/oblivious_tree_splitter.cc">
<polygon style="fill:white;stroke:black;" points="252,-0 252,-20 483,-20 483,-0 252,-0"/>
<text text-anchor="middle" x="367" y="-7" style="font-family:Arial;font-size:10.00;">ltr/learners/decision_tree/oblivious_tree_splitter.cc</text>
</a>
</g>
<!-- Node1&#45;&gt;Node3 -->
<g id="edge4" class="edge"><title>Node1&#45;&gt;Node3</title>
<path style="fill:none;stroke:midnightblue;" d="M367,-46C367,-37 367,-28 367,-20"/>
<polygon style="fill:midnightblue;stroke:midnightblue;" points="363.5,-46 367,-56 370.5,-46 363.5,-46"/>
</g>
<!-- Node4 -->
<g id="node7" class="node"><title>Node4</title>
<a xlink:href="generator_8cc.html" target="_top" xlink:title="ltr/serialization_test/generator/generator.cc">
<polygon style="fill:white;stroke:black;" points="500,-0 500,-20 701,-20 701,-0 500,-0"/>
<text text-anchor="middle" x="600" y="-7" style="font-family:Arial;font-size:10.00;">ltr/serialization_test/generator/generator.cc</text>
</a>
</g>
<!-- Node1&#45;&gt;Node4 -->
<g id="edge6" class="edge"><title>Node1&#45;&gt;Node4</title>
<path style="fill:none;stroke:midnightblue;" d="M419,-54C461,-44 519,-29 558,-20"/>
<polygon style="fill:midnightblue;stroke:midnightblue;" points="418.119,-50.6067 409,-56 419.492,-57.4708 418.119,-50.6067"/>
</g>
</g>
</svg>
