<?xml version="1.0" encoding="UTF-8" standalone="no"?>
<!DOCTYPE svg PUBLIC "-//W3C//DTD SVG 1.0//EN"
 "http://www.w3.org/TR/2001/REC-SVG-20010904/DTD/svg10.dtd" [
 <!ATTLIST svg xmlns:xlink CDATA #FIXED "http://www.w3.org/1999/xlink">
]>
<!-- Generated by Graphviz version 2.20.2 (Tue Mar &#160;2 19:03:41 UTC 2010)
     For user: (jenkins)  -->
<!-- Title: G Pages: 1 -->
<svg width="2152pt" height="532pt"
 viewBox="0.00 0.00 2152.00 532.00" xmlns="http://www.w3.org/2000/svg" xmlns:xlink="http://www.w3.org/1999/xlink">
<g id="graph0" class="graph" transform="scale(1 1) rotate(0) translate(4 528)">
<title>G</title>
<polygon style="fill:white;stroke:white;" points="-4,4 -4,-528 2148,-528 2148,4 -4,4"/>
<!-- Node1 -->
<g id="node1" class="node"><title>Node1</title>
<polygon style="fill:#bfbfbf;stroke:black;" points="1429,-504 1429,-524 1655,-524 1655,-504 1429,-504"/>
<text text-anchor="middle" x="1542" y="-511" style="font-family:Arial;font-size:10.00;">ltr/learners/decision_tree/oblivious_tree_splitter.h</text>
</g>
<!-- Node2 -->
<g id="node3" class="node"><title>Node2</title>
<polygon style="fill:white;stroke:#bfbfbf;" points="199,-56 199,-76 241,-76 241,-56 199,-56"/>
<text text-anchor="middle" x="220" y="-63" style="font-family:Arial;font-size:10.00;">vector</text>
</g>
<!-- Node1&#45;&gt;Node2 -->
<g id="edge2" class="edge"><title>Node1&#45;&gt;Node2</title>
<path style="fill:none;stroke:midnightblue;" d="M1429,-512C1073,-503 0,-473 0,-402 0,-402 0,-402 0,-178 0,-94 128,-73 189,-68"/>
<polygon style="fill:midnightblue;stroke:midnightblue;" points="189.398,-71.4778 199,-67 188.701,-64.5125 189.398,-71.4778"/>
</g>
<!-- Node3 -->
<g id="node5" class="node"><title>Node3</title>
<polygon style="fill:white;stroke:#bfbfbf;" points="1183,-0 1183,-20 1223,-20 1223,-0 1183,-0"/>
<text text-anchor="middle" x="1203" y="-7" style="font-family:Arial;font-size:10.00;">string</text>
</g>
<!-- Node1&#45;&gt;Node3 -->
<g id="edge4" class="edge"><title>Node1&#45;&gt;Node3</title>
<path style="fill:none;stroke:midnightblue;" d="M1625,-504C1785,-480 2117,-402 2117,-178 2117,-178 2117,-178 2117,-122 2117,-63 2059,-72 2003,-56 1928,-34 1371,-15 1233,-11"/>
<polygon style="fill:midnightblue;stroke:midnightblue;" points="1233,-7.5001 1223,-11 1233,-14.5001 1233,-7.5001"/>
</g>
<!-- Node4 -->
<g id="node7" class="node"><title>Node4</title>
<a xlink:href="base__splitter_8h.html" target="_top" xlink:title="ltr/learners/decision_tree/base_splitter.h">
<polygon style="fill:white;stroke:black;" points="1109,-448 1109,-468 1298,-468 1298,-448 1109,-448"/>
<text text-anchor="middle" x="1203" y="-455" style="font-family:Arial;font-size:10.00;">ltr/learners/decision_tree/base_splitter.h</text>
</a>
</g>
<!-- Node1&#45;&gt;Node4 -->
<g id="edge6" class="edge"><title>Node1&#45;&gt;Node4</title>
<path style="fill:none;stroke:midnightblue;" d="M1481,-504C1423,-495 1335,-480 1273,-470"/>
<polygon style="fill:midnightblue;stroke:midnightblue;" points="1273.49,-466.529 1263,-468 1272.12,-473.393 1273.49,-466.529"/>
</g>
<!-- Node12 -->
<g id="node32" class="node"><title>Node12</title>
<a xlink:href="shared__ptr_8h.html" target="_top" xlink:title="ltr/utility/shared_ptr.h">
<polygon style="fill:white;stroke:black;" points="1805,-56 1805,-76 1912,-76 1912,-56 1805,-56"/>
<text text-anchor="middle" x="1858" y="-63" style="font-family:Arial;font-size:10.00;">ltr/utility/shared_ptr.h</text>
</a>
</g>
<!-- Node1&#45;&gt;Node12 -->
<g id="edge208" class="edge"><title>Node1&#45;&gt;Node12</title>
<path style="fill:none;stroke:midnightblue;" d="M1623,-504C1764,-485 2041,-444 2041,-402 2041,-402 2041,-402 2041,-234 2041,-155 1948,-103 1894,-80"/>
<polygon style="fill:midnightblue;stroke:midnightblue;" points="1895.56,-76.8631 1885,-76 1892.72,-83.2598 1895.56,-76.8631"/>
</g>
<!-- Node4&#45;&gt;Node2 -->
<g id="edge8" class="edge"><title>Node4&#45;&gt;Node2</title>
<path style="fill:none;stroke:midnightblue;" d="M1109,-455C917,-448 488,-431 341,-412 205,-393 38,-483 38,-346 38,-346 38,-346 38,-178 38,-108 137,-81 189,-71"/>
<polygon style="fill:midnightblue;stroke:midnightblue;" points="189.881,-74.3933 199,-69 188.508,-67.5292 189.881,-74.3933"/>
</g>
<!-- Node4&#45;&gt;Node3 -->
<g id="edge10" class="edge"><title>Node4&#45;&gt;Node3</title>
<path style="fill:none;stroke:midnightblue;" d="M1298,-448C1525,-421 2079,-340 2079,-178 2079,-178 2079,-178 2079,-122 2079,-45 1994,-73 1920,-56 1786,-24 1352,-13 1233,-10"/>
<polygon style="fill:midnightblue;stroke:midnightblue;" points="1233,-6.5001 1223,-10 1233,-13.5001 1233,-6.5001"/>
</g>
<!-- Node5 -->
<g id="node11" class="node"><title>Node5</title>
<a xlink:href="data__set_8h.html" target="_top" xlink:title="ltr/data/data_set.h">
<polygon style="fill:white;stroke:black;" points="677,-280 677,-300 772,-300 772,-280 677,-280"/>
<text text-anchor="middle" x="724" y="-287" style="font-family:Arial;font-size:10.00;">ltr/data/data_set.h</text>
</a>
</g>
<!-- Node4&#45;&gt;Node5 -->
<g id="edge12" class="edge"><title>Node4&#45;&gt;Node5</title>
<path style="fill:none;stroke:midnightblue;" d="M1174,-448C1092,-419 855,-336 763,-303"/>
<polygon style="fill:midnightblue;stroke:midnightblue;" points="763.584,-299.521 753,-300 761.573,-306.226 763.584,-299.521"/>
</g>
<!-- Node4&#45;&gt;Node12 -->
<g id="edge206" class="edge"><title>Node4&#45;&gt;Node12</title>
<path style="fill:none;stroke:midnightblue;" d="M1298,-454C1503,-443 1965,-412 1965,-346 1965,-346 1965,-346 1965,-178 1965,-133 1919,-100 1888,-81"/>
<polygon style="fill:midnightblue;stroke:midnightblue;" points="1889.44,-77.7969 1879,-76 1886.04,-83.916 1889.44,-77.7969"/>
</g>
<!-- Node27 -->
<g id="node90" class="node"><title>Node27</title>
<a xlink:href="data__set__statistics_8h.html" target="_top" xlink:title="ltr/data/utility/data_set_statistics.h">
<polygon style="fill:white;stroke:black;" points="350,-392 350,-412 516,-412 516,-392 350,-392"/>
<text text-anchor="middle" x="433" y="-399" style="font-family:Arial;font-size:10.00;">ltr/data/utility/data_set_statistics.h</text>
</a>
</g>
<!-- Node4&#45;&gt;Node27 -->
<g id="edge126" class="edge"><title>Node4&#45;&gt;Node27</title>
<path style="fill:none;stroke:midnightblue;" d="M1109,-451C960,-440 674,-419 526,-409"/>
<polygon style="fill:midnightblue;stroke:midnightblue;" points="526.299,-405.512 516,-408 525.602,-412.478 526.299,-405.512"/>
</g>
<!-- Node33 -->
<g id="node108" class="node"><title>Node33</title>
<a xlink:href="vertex__with__data_8h.html" target="_top" xlink:title="ltr/learners/decision_tree/vertex/vertex_with_data.h">
<polygon style="fill:white;stroke:black;" points="1086,-336 1086,-356 1320,-356 1320,-336 1086,-336"/>
<text text-anchor="middle" x="1203" y="-343" style="font-family:Arial;font-size:10.00;">ltr/learners/decision_tree/vertex/vertex_with_data.h</text>
</a>
</g>
<!-- Node4&#45;&gt;Node33 -->
<g id="edge150" class="edge"><title>Node4&#45;&gt;Node33</title>
<path style="fill:none;stroke:midnightblue;" d="M1203,-448C1203,-429 1203,-390 1203,-366"/>
<polygon style="fill:midnightblue;stroke:midnightblue;" points="1206.5,-366 1203,-356 1199.5,-366 1206.5,-366"/>
</g>
<!-- Node5&#45;&gt;Node2 -->
<g id="edge20" class="edge"><title>Node5&#45;&gt;Node2</title>
<path style="fill:none;stroke:midnightblue;" d="M677,-286C614,-279 499,-266 402,-244 362,-234 251,-220 225,-188 203,-158 209,-112 215,-86"/>
<polygon style="fill:midnightblue;stroke:midnightblue;" points="218.471,-86.4922 217,-76 211.607,-85.1194 218.471,-86.4922"/>
</g>
<!-- Node5&#45;&gt;Node3 -->
<g id="edge18" class="edge"><title>Node5&#45;&gt;Node3</title>
<path style="fill:none;stroke:midnightblue;" d="M772,-284C845,-273 986,-246 1092,-188 1127,-167 1140,-164 1166,-132 1182,-110 1181,-101 1189,-76 1193,-61 1197,-43 1199,-30"/>
<polygon style="fill:midnightblue;stroke:midnightblue;" points="1202.47,-30.4922 1201,-20 1195.61,-29.1194 1202.47,-30.4922"/>
</g>
<!-- Node6 -->
<g id="node13" class="node"><title>Node6</title>
<polygon style="fill:white;stroke:#bfbfbf;" points="419,-224 419,-244 470,-244 470,-224 419,-224"/>
<text text-anchor="middle" x="444" y="-231" style="font-family:Arial;font-size:10.00;">sstream</text>
</g>
<!-- Node5&#45;&gt;Node6 -->
<g id="edge14" class="edge"><title>Node5&#45;&gt;Node6</title>
<path style="fill:none;stroke:midnightblue;" d="M677,-282C628,-273 550,-258 483,-244 482,-244 481,-244 480,-243"/>
<polygon style="fill:midnightblue;stroke:midnightblue;" points="480.492,-239.529 470,-241 479.119,-246.393 480.492,-239.529"/>
</g>
<!-- Node7 -->
<g id="node15" class="node"><title>Node7</title>
<polygon style="fill:white;stroke:#bfbfbf;" points="717,-56 717,-76 776,-76 776,-56 717,-56"/>
<text text-anchor="middle" x="746" y="-63" style="font-family:Arial;font-size:10.00;">stdexcept</text>
</g>
<!-- Node5&#45;&gt;Node7 -->
<g id="edge16" class="edge"><title>Node5&#45;&gt;Node7</title>
<path style="fill:none;stroke:midnightblue;" d="M727,-280C729,-270 732,-256 734,-244 742,-187 745,-119 746,-86"/>
<polygon style="fill:midnightblue;stroke:midnightblue;" points="749.5,-86 746,-76 742.5,-86 749.5,-86"/>
</g>
<!-- Node8 -->
<g id="node19" class="node"><title>Node8</title>
<a xlink:href="object_8h.html" target="_top" xlink:title="ltr/data/object.h">
<polygon style="fill:white;stroke:black;" points="609,-112 609,-132 693,-132 693,-112 609,-112"/>
<text text-anchor="middle" x="651" y="-119" style="font-family:Arial;font-size:10.00;">ltr/data/object.h</text>
</a>
</g>
<!-- Node5&#45;&gt;Node8 -->
<g id="edge22" class="edge"><title>Node5&#45;&gt;Node8</title>
<path style="fill:none;stroke:midnightblue;" d="M724,-280C725,-266 724,-242 718,-224 707,-191 683,-159 667,-140"/>
<polygon style="fill:midnightblue;stroke:midnightblue;" points="669.219,-137.221 660,-132 663.951,-141.831 669.219,-137.221"/>
</g>
<!-- Node16 -->
<g id="node40" class="node"><title>Node16</title>
<a xlink:href="object__list_8h.html" target="_top" xlink:title="ltr/data/object_list.h">
<polygon style="fill:white;stroke:black;" points="382,-168 382,-188 484,-188 484,-168 382,-168"/>
<text text-anchor="middle" x="433" y="-175" style="font-family:Arial;font-size:10.00;">ltr/data/object_list.h</text>
</a>
</g>
<!-- Node5&#45;&gt;Node16 -->
<g id="edge48" class="edge"><title>Node5&#45;&gt;Node16</title>
<path style="fill:none;stroke:midnightblue;" d="M677,-286C593,-279 428,-263 410,-244 398,-230 408,-210 418,-196"/>
<polygon style="fill:midnightblue;stroke:midnightblue;" points="420.8,-198.1 424,-188 415.2,-193.9 420.8,-198.1"/>
</g>
<!-- Node17 -->
<g id="node48" class="node"><title>Node17</title>
<a xlink:href="object__pair_8h.html" target="_top" xlink:title="ltr/data/object_pair.h">
<polygon style="fill:white;stroke:black;" points="509,-168 509,-188 613,-188 613,-168 509,-168"/>
<text text-anchor="middle" x="561" y="-175" style="font-family:Arial;font-size:10.00;">ltr/data/object_pair.h</text>
</a>
</g>
<!-- Node5&#45;&gt;Node17 -->
<g id="edge62" class="edge"><title>Node5&#45;&gt;Node17</title>
<path style="fill:none;stroke:midnightblue;" d="M677,-284C632,-277 569,-263 554,-244 544,-230 548,-212 552,-198"/>
<polygon style="fill:midnightblue;stroke:midnightblue;" points="555.536,-198.585 556,-188 549.036,-195.985 555.536,-198.585"/>
</g>
<!-- Node18 -->
<g id="node56" class="node"><title>Node18</title>
<a xlink:href="feature__info_8h.html" target="_top" xlink:title="ltr/data/feature_info.h">
<polygon style="fill:white;stroke:black;" points="834,-224 834,-244 941,-244 941,-224 834,-224"/>
<text text-anchor="middle" x="887" y="-231" style="font-family:Arial;font-size:10.00;">ltr/data/feature_info.h</text>
</a>
</g>
<!-- Node5&#45;&gt;Node18 -->
<g id="edge76" class="edge"><title>Node5&#45;&gt;Node18</title>
<path style="fill:none;stroke:midnightblue;" d="M753,-280C780,-271 819,-257 848,-247"/>
<polygon style="fill:midnightblue;stroke:midnightblue;" points="849.427,-250.226 858,-244 847.416,-243.521 849.427,-250.226"/>
</g>
<!-- Node25 -->
<g id="node80" class="node"><title>Node25</title>
<a xlink:href="per__object__accessor_8h.html" target="_top" xlink:title="ltr/data/per_object_accessor.h">
<polygon style="fill:white;stroke:black;" points="563,-224 563,-244 710,-244 710,-224 563,-224"/>
<text text-anchor="middle" x="636" y="-231" style="font-family:Arial;font-size:10.00;">ltr/data/per_object_accessor.h</text>
</a>
</g>
<!-- Node5&#45;&gt;Node25 -->
<g id="edge110" class="edge"><title>Node5&#45;&gt;Node25</title>
<path style="fill:none;stroke:midnightblue;" d="M708,-280C695,-272 676,-259 660,-249"/>
<polygon style="fill:midnightblue;stroke:midnightblue;" points="662.335,-246.332 652,-244 658.625,-252.268 662.335,-246.332"/>
</g>
<!-- Node26 -->
<g id="node87" class="node"><title>Node26</title>
<a xlink:href="aliaser_8h.html" target="_top" xlink:title="ltr/interfaces/aliaser.h">
<polygon style="fill:white;stroke:black;" points="1399,-56 1399,-76 1507,-76 1507,-56 1399,-56"/>
<text text-anchor="middle" x="1453" y="-63" style="font-family:Arial;font-size:10.00;">ltr/interfaces/aliaser.h</text>
</a>
</g>
<!-- Node5&#45;&gt;Node26 -->
<g id="edge122" class="edge"><title>Node5&#45;&gt;Node26</title>
<path style="fill:none;stroke:midnightblue;" d="M772,-288C875,-283 1110,-270 1186,-244 1290,-206 1393,-120 1435,-83"/>
<polygon style="fill:midnightblue;stroke:midnightblue;" points="1437.4,-85.546 1442,-76 1432.45,-80.5962 1437.4,-85.546"/>
</g>
<!-- Node8&#45;&gt;Node2 -->
<g id="edge32" class="edge"><title>Node8&#45;&gt;Node2</title>
<path style="fill:none;stroke:midnightblue;" d="M609,-117C522,-105 327,-80 251,-70"/>
<polygon style="fill:midnightblue;stroke:midnightblue;" points="251.299,-66.5125 241,-69 250.602,-73.4778 251.299,-66.5125"/>
</g>
<!-- Node8&#45;&gt;Node3 -->
<g id="edge30" class="edge"><title>Node8&#45;&gt;Node3</title>
<path style="fill:none;stroke:midnightblue;" d="M656,-112C665,-97 683,-68 708,-56 749,-34 1071,-16 1173,-11"/>
<polygon style="fill:midnightblue;stroke:midnightblue;" points="1173,-14.5001 1183,-11 1173,-7.5001 1173,-14.5001"/>
</g>
<!-- Node8&#45;&gt;Node7 -->
<g id="edge28" class="edge"><title>Node8&#45;&gt;Node7</title>
<path style="fill:none;stroke:midnightblue;" d="M668,-112C682,-104 703,-91 720,-81"/>
<polygon style="fill:midnightblue;stroke:midnightblue;" points="721.958,-83.916 729,-76 718.559,-77.7969 721.958,-83.916"/>
</g>
<!-- Node9 -->
<g id="node21" class="node"><title>Node9</title>
<polygon style="fill:white;stroke:#bfbfbf;" points="589,-56 589,-76 624,-76 624,-56 589,-56"/>
<text text-anchor="middle" x="606" y="-63" style="font-family:Arial;font-size:10.00;">map</text>
</g>
<!-- Node8&#45;&gt;Node9 -->
<g id="edge24" class="edge"><title>Node8&#45;&gt;Node9</title>
<path style="fill:none;stroke:midnightblue;" d="M643,-112C637,-104 628,-94 620,-84"/>
<polygon style="fill:midnightblue;stroke:midnightblue;" points="622.8,-81.9 614,-76 617.2,-86.1 622.8,-81.9"/>
</g>
<!-- Node10 -->
<g id="node23" class="node"><title>Node10</title>
<polygon style="fill:white;stroke:#bfbfbf;" points="538,-0 538,-20 589,-20 589,-0 538,-0"/>
<text text-anchor="middle" x="563" y="-7" style="font-family:Arial;font-size:10.00;">ostream</text>
</g>
<!-- Node8&#45;&gt;Node10 -->
<g id="edge26" class="edge"><title>Node8&#45;&gt;Node10</title>
<path style="fill:none;stroke:midnightblue;" d="M650,-112C649,-98 645,-73 632,-56 622,-43 608,-33 595,-25"/>
<polygon style="fill:midnightblue;stroke:midnightblue;" points="596.441,-21.7969 586,-20 593.042,-27.916 596.441,-21.7969"/>
</g>
<!-- Node11 -->
<g id="node28" class="node"><title>Node11</title>
<a xlink:href="printable_8h.html" target="_top" xlink:title="ltr/interfaces/printable.h">
<polygon style="fill:white;stroke:black;" points="417,-56 417,-76 534,-76 534,-56 417,-56"/>
<text text-anchor="middle" x="475" y="-63" style="font-family:Arial;font-size:10.00;">ltr/interfaces/printable.h</text>
</a>
</g>
<!-- Node8&#45;&gt;Node11 -->
<g id="edge34" class="edge"><title>Node8&#45;&gt;Node11</title>
<path style="fill:none;stroke:midnightblue;" d="M620,-112C591,-103 548,-89 517,-79"/>
<polygon style="fill:midnightblue;stroke:midnightblue;" points="517.584,-75.5212 507,-76 515.573,-82.2259 517.584,-75.5212"/>
</g>
<!-- Node8&#45;&gt;Node12 -->
<g id="edge40" class="edge"><title>Node8&#45;&gt;Node12</title>
<path style="fill:none;stroke:midnightblue;" d="M693,-120C896,-112 1756,-76 1758,-76 1770,-75 1783,-74 1795,-72"/>
<polygon style="fill:midnightblue;stroke:midnightblue;" points="1795.4,-75.4778 1805,-71 1794.7,-68.5125 1795.4,-75.4778"/>
</g>
<!-- Node11&#45;&gt;Node3 -->
<g id="edge38" class="edge"><title>Node11&#45;&gt;Node3</title>
<path style="fill:none;stroke:midnightblue;" d="M534,-57C539,-57 543,-56 547,-56 787,-30 1079,-16 1173,-12"/>
<polygon style="fill:midnightblue;stroke:midnightblue;" points="1173.4,-15.4778 1183,-11 1172.7,-8.5125 1173.4,-15.4778"/>
</g>
<!-- Node11&#45;&gt;Node10 -->
<g id="edge36" class="edge"><title>Node11&#45;&gt;Node10</title>
<path style="fill:none;stroke:midnightblue;" d="M491,-56C504,-48 523,-35 539,-25"/>
<polygon style="fill:midnightblue;stroke:midnightblue;" points="540.375,-28.268 547,-20 536.665,-22.332 540.375,-28.268"/>
</g>
<!-- Node13 -->
<g id="node34" class="node"><title>Node13</title>
<polygon style="fill:white;stroke:#bfbfbf;" points="2088,-0 2088,-20 2144,-20 2144,-0 2088,-0"/>
<text text-anchor="middle" x="2116" y="-7" style="font-family:Arial;font-size:10.00;">algorithm</text>
</g>
<!-- Node12&#45;&gt;Node13 -->
<g id="edge42" class="edge"><title>Node12&#45;&gt;Node13</title>
<path style="fill:none;stroke:midnightblue;" d="M1904,-56C1953,-46 2031,-29 2078,-18"/>
<polygon style="fill:midnightblue;stroke:midnightblue;" points="2078.88,-21.3933 2088,-16 2077.51,-14.5292 2078.88,-21.3933"/>
</g>
<!-- Node14 -->
<g id="node36" class="node"><title>Node14</title>
<polygon style="fill:white;stroke:#bfbfbf;" points="1678,-0 1678,-20 1785,-20 1785,-0 1678,-0"/>
<text text-anchor="middle" x="1731" y="-7" style="font-family:Arial;font-size:10.00;">boost/shared_ptr.hpp</text>
</g>
<!-- Node12&#45;&gt;Node14 -->
<g id="edge44" class="edge"><title>Node12&#45;&gt;Node14</title>
<path style="fill:none;stroke:midnightblue;" d="M1835,-56C1815,-47 1786,-34 1763,-24"/>
<polygon style="fill:midnightblue;stroke:midnightblue;" points="1764.56,-20.8631 1754,-20 1761.72,-27.2598 1764.56,-20.8631"/>
</g>
<!-- Node15 -->
<g id="node38" class="node"><title>Node15</title>
<polygon style="fill:white;stroke:#bfbfbf;" points="1802,-0 1802,-20 1993,-20 1993,-0 1802,-0"/>
<text text-anchor="middle" x="1897" y="-7" style="font-family:Arial;font-size:10.00;">boost/smart_ptr/detail/operator_bool.hpp</text>
</g>
<!-- Node12&#45;&gt;Node15 -->
<g id="edge46" class="edge"><title>Node12&#45;&gt;Node15</title>
<path style="fill:none;stroke:midnightblue;" d="M1865,-56C1870,-48 1878,-38 1884,-29"/>
<polygon style="fill:midnightblue;stroke:midnightblue;" points="1887.37,-30.262 1890,-20 1881.54,-26.3791 1887.37,-30.262"/>
</g>
<!-- Node16&#45;&gt;Node2 -->
<g id="edge54" class="edge"><title>Node16&#45;&gt;Node2</title>
<path style="fill:none;stroke:midnightblue;" d="M414,-168C376,-148 292,-104 248,-81"/>
<polygon style="fill:midnightblue;stroke:midnightblue;" points="249.441,-77.7969 239,-76 246.042,-83.916 249.441,-77.7969"/>
</g>
<!-- Node16&#45;&gt;Node3 -->
<g id="edge52" class="edge"><title>Node16&#45;&gt;Node3</title>
<path style="fill:none;stroke:midnightblue;" d="M426,-168C411,-145 379,-87 408,-56 435,-27 1031,-14 1173,-10"/>
<polygon style="fill:midnightblue;stroke:midnightblue;" points="1173,-13.5001 1183,-10 1173,-6.5001 1173,-13.5001"/>
</g>
<!-- Node16&#45;&gt;Node7 -->
<g id="edge50" class="edge"><title>Node16&#45;&gt;Node7</title>
<path style="fill:none;stroke:midnightblue;" d="M457,-168C489,-154 548,-130 600,-112 636,-99 678,-86 707,-77"/>
<polygon style="fill:midnightblue;stroke:midnightblue;" points="708.427,-80.2259 717,-74 706.416,-73.5212 708.427,-80.2259"/>
</g>
<!-- Node16&#45;&gt;Node8 -->
<g id="edge56" class="edge"><title>Node16&#45;&gt;Node8</title>
<path style="fill:none;stroke:midnightblue;" d="M472,-168C509,-159 563,-145 602,-135"/>
<polygon style="fill:midnightblue;stroke:midnightblue;" points="603.427,-138.226 612,-132 601.416,-131.521 603.427,-138.226"/>
</g>
<!-- Node16&#45;&gt;Node11 -->
<g id="edge58" class="edge"><title>Node16&#45;&gt;Node11</title>
<path style="fill:none;stroke:midnightblue;" d="M437,-168C444,-149 459,-110 467,-86"/>
<polygon style="fill:midnightblue;stroke:midnightblue;" points="470.536,-86.5847 471,-76 464.036,-83.9849 470.536,-86.5847"/>
</g>
<!-- Node16&#45;&gt;Node12 -->
<g id="edge60" class="edge"><title>Node16&#45;&gt;Node12</title>
<path style="fill:none;stroke:midnightblue;" d="M484,-170C490,-169 495,-168 500,-168 622,-156 1486,-166 1604,-132 1620,-127 1621,-118 1637,-112 1688,-92 1750,-80 1795,-73"/>
<polygon style="fill:midnightblue;stroke:midnightblue;" points="1795.4,-76.4778 1805,-72 1794.7,-69.5125 1795.4,-76.4778"/>
</g>
<!-- Node17&#45;&gt;Node2 -->
<g id="edge68" class="edge"><title>Node17&#45;&gt;Node2</title>
<path style="fill:none;stroke:midnightblue;" d="M530,-168C465,-146 315,-97 251,-76"/>
<polygon style="fill:midnightblue;stroke:midnightblue;" points="251.584,-72.5212 241,-73 249.573,-79.2259 251.584,-72.5212"/>
</g>
<!-- Node17&#45;&gt;Node3 -->
<g id="edge66" class="edge"><title>Node17&#45;&gt;Node3</title>
<path style="fill:none;stroke:midnightblue;" d="M559,-168C555,-144 548,-85 580,-56 601,-36 1050,-16 1173,-11"/>
<polygon style="fill:midnightblue;stroke:midnightblue;" points="1173,-14.5001 1183,-11 1173,-7.5001 1173,-14.5001"/>
</g>
<!-- Node17&#45;&gt;Node7 -->
<g id="edge64" class="edge"><title>Node17&#45;&gt;Node7</title>
<path style="fill:none;stroke:midnightblue;" d="M613,-169C642,-163 676,-151 702,-132 718,-120 730,-100 738,-85"/>
<polygon style="fill:midnightblue;stroke:midnightblue;" points="741.137,-86.5596 742,-76 734.74,-83.7166 741.137,-86.5596"/>
</g>
<!-- Node17&#45;&gt;Node8 -->
<g id="edge70" class="edge"><title>Node17&#45;&gt;Node8</title>
<path style="fill:none;stroke:midnightblue;" d="M577,-168C590,-160 610,-147 626,-137"/>
<polygon style="fill:midnightblue;stroke:midnightblue;" points="627.958,-139.916 635,-132 624.559,-133.797 627.958,-139.916"/>
</g>
<!-- Node17&#45;&gt;Node11 -->
<g id="edge72" class="edge"><title>Node17&#45;&gt;Node11</title>
<path style="fill:none;stroke:midnightblue;" d="M553,-168C539,-148 507,-108 489,-84"/>
<polygon style="fill:midnightblue;stroke:midnightblue;" points="491.8,-81.9 483,-76 486.2,-86.1 491.8,-81.9"/>
</g>
<!-- Node17&#45;&gt;Node12 -->
<g id="edge74" class="edge"><title>Node17&#45;&gt;Node12</title>
<path style="fill:none;stroke:midnightblue;" d="M613,-176C827,-167 1624,-135 1637,-132 1655,-127 1657,-118 1675,-112 1713,-97 1759,-86 1795,-78"/>
<polygon style="fill:midnightblue;stroke:midnightblue;" points="1795.88,-81.3933 1805,-76 1794.51,-74.5292 1795.88,-81.3933"/>
</g>
<!-- Node18&#45;&gt;Node2 -->
<g id="edge82" class="edge"><title>Node18&#45;&gt;Node2</title>
<path style="fill:none;stroke:midnightblue;" d="M834,-231C711,-224 416,-205 373,-188 316,-164 262,-111 236,-83"/>
<polygon style="fill:midnightblue;stroke:midnightblue;" points="238.546,-80.5962 229,-76 233.596,-85.546 238.546,-80.5962"/>
</g>
<!-- Node18&#45;&gt;Node3 -->
<g id="edge80" class="edge"><title>Node18&#45;&gt;Node3</title>
<path style="fill:none;stroke:midnightblue;" d="M941,-225C999,-214 1091,-187 1150,-132 1165,-117 1186,-60 1197,-30"/>
<polygon style="fill:midnightblue;stroke:midnightblue;" points="1200.48,-30.584 1200,-20 1193.77,-28.5725 1200.48,-30.584"/>
</g>
<!-- Node18&#45;&gt;Node9 -->
<g id="edge78" class="edge"><title>Node18&#45;&gt;Node9</title>
<path style="fill:none;stroke:midnightblue;" d="M871,-224C857,-214 835,-200 816,-188 765,-154 754,-142 702,-112 679,-99 653,-86 633,-78"/>
<polygon style="fill:midnightblue;stroke:midnightblue;" points="634.56,-74.8631 624,-74 631.717,-81.2598 634.56,-74.8631"/>
</g>
<!-- Node18&#45;&gt;Node12 -->
<g id="edge108" class="edge"><title>Node18&#45;&gt;Node12</title>
<path style="fill:none;stroke:midnightblue;" d="M941,-233C1136,-230 1792,-216 1827,-188 1857,-163 1861,-114 1860,-86"/>
<polygon style="fill:midnightblue;stroke:midnightblue;" points="1863.48,-85.6021 1859,-76 1856.51,-86.2987 1863.48,-85.6021"/>
</g>
<!-- Node19 -->
<g id="node61" class="node"><title>Node19</title>
<a xlink:href="parameterized_8h.html" target="_top" xlink:title="ltr/interfaces/parameterized.h">
<polygon style="fill:white;stroke:black;" points="825,-168 825,-188 967,-188 967,-168 825,-168"/>
<text text-anchor="middle" x="896" y="-175" style="font-family:Arial;font-size:10.00;">ltr/interfaces/parameterized.h</text>
</a>
</g>
<!-- Node18&#45;&gt;Node19 -->
<g id="edge84" class="edge"><title>Node18&#45;&gt;Node19</title>
<path style="fill:none;stroke:midnightblue;" d="M889,-224C890,-217 891,-207 893,-198"/>
<polygon style="fill:midnightblue;stroke:midnightblue;" points="896.488,-198.299 894,-188 889.522,-197.602 896.488,-198.299"/>
</g>
<!-- Node19&#45;&gt;Node3 -->
<g id="edge88" class="edge"><title>Node19&#45;&gt;Node3</title>
<path style="fill:none;stroke:midnightblue;" d="M967,-173C1028,-167 1110,-154 1134,-132 1158,-107 1133,-85 1151,-56 1157,-44 1168,-34 1178,-26"/>
<polygon style="fill:midnightblue;stroke:midnightblue;" points="1180.1,-28.8 1186,-20 1175.9,-23.2 1180.1,-28.8"/>
</g>
<!-- Node19&#45;&gt;Node7 -->
<g id="edge86" class="edge"><title>Node19&#45;&gt;Node7</title>
<path style="fill:none;stroke:midnightblue;" d="M883,-168C867,-155 837,-131 811,-112 797,-102 782,-90 769,-82"/>
<polygon style="fill:midnightblue;stroke:midnightblue;" points="771.1,-79.2 761,-76 766.9,-84.8 771.1,-79.2"/>
</g>
<!-- Node20 -->
<g id="node65" class="node"><title>Node20</title>
<a xlink:href="parameters__container_8h.html" target="_top" xlink:title="ltr/parameters_container/parameters_container.h">
<polygon style="fill:white;stroke:black;" points="901,-112 901,-132 1126,-132 1126,-112 901,-112"/>
<text text-anchor="middle" x="1013" y="-119" style="font-family:Arial;font-size:10.00;">ltr/parameters_container/parameters_container.h</text>
</a>
</g>
<!-- Node19&#45;&gt;Node20 -->
<g id="edge90" class="edge"><title>Node19&#45;&gt;Node20</title>
<path style="fill:none;stroke:midnightblue;" d="M917,-168C935,-159 962,-146 983,-136"/>
<polygon style="fill:midnightblue;stroke:midnightblue;" points="984.283,-139.26 992,-132 981.44,-132.863 984.283,-139.26"/>
</g>
<!-- Node20&#45;&gt;Node3 -->
<g id="edge98" class="edge"><title>Node20&#45;&gt;Node3</title>
<path style="fill:none;stroke:midnightblue;" d="M1027,-112C1046,-98 1081,-74 1113,-56 1132,-44 1155,-32 1173,-24"/>
<polygon style="fill:midnightblue;stroke:midnightblue;" points="1175.62,-26.6027 1183,-19 1172.49,-20.3417 1175.62,-26.6027"/>
</g>
<!-- Node20&#45;&gt;Node7 -->
<g id="edge96" class="edge"><title>Node20&#45;&gt;Node7</title>
<path style="fill:none;stroke:midnightblue;" d="M959,-112C915,-103 851,-91 786,-76"/>
<polygon style="fill:midnightblue;stroke:midnightblue;" points="786.492,-72.5292 776,-74 785.119,-79.3933 786.492,-72.5292"/>
</g>
<!-- Node20&#45;&gt;Node11 -->
<g id="edge106" class="edge"><title>Node20&#45;&gt;Node11</title>
<path style="fill:none;stroke:midnightblue;" d="M917,-112C810,-101 639,-83 544,-73"/>
<polygon style="fill:midnightblue;stroke:midnightblue;" points="544.299,-69.5125 534,-72 543.602,-76.4778 544.299,-69.5125"/>
</g>
<!-- Node20&#45;&gt;Node12 -->
<g id="edge104" class="edge"><title>Node20&#45;&gt;Node12</title>
<path style="fill:none;stroke:midnightblue;" d="M1126,-116C1272,-108 1534,-94 1758,-76 1770,-75 1783,-74 1795,-72"/>
<polygon style="fill:midnightblue;stroke:midnightblue;" points="1795.4,-75.4778 1805,-71 1794.7,-68.5125 1795.4,-75.4778"/>
</g>
<!-- Node21 -->
<g id="node67" class="node"><title>Node21</title>
<polygon style="fill:white;stroke:#bfbfbf;" points="1231,-56 1231,-76 1305,-76 1305,-56 1231,-56"/>
<text text-anchor="middle" x="1268" y="-63" style="font-family:Arial;font-size:10.00;">logog/logog.h</text>
</g>
<!-- Node20&#45;&gt;Node21 -->
<g id="edge92" class="edge"><title>Node20&#45;&gt;Node21</title>
<path style="fill:none;stroke:midnightblue;" d="M1059,-112C1105,-102 1175,-86 1221,-76"/>
<polygon style="fill:midnightblue;stroke:midnightblue;" points="1221.88,-79.3933 1231,-74 1220.51,-72.5292 1221.88,-79.3933"/>
</g>
<!-- Node22 -->
<g id="node69" class="node"><title>Node22</title>
<polygon style="fill:white;stroke:#bfbfbf;" points="939,-56 939,-76 968,-76 968,-56 939,-56"/>
<text text-anchor="middle" x="953" y="-63" style="font-family:Arial;font-size:10.00;">list</text>
</g>
<!-- Node20&#45;&gt;Node22 -->
<g id="edge94" class="edge"><title>Node20&#45;&gt;Node22</title>
<path style="fill:none;stroke:midnightblue;" d="M1002,-112C993,-104 981,-93 971,-83"/>
<polygon style="fill:midnightblue;stroke:midnightblue;" points="973.546,-80.5962 964,-76 968.596,-85.546 973.546,-80.5962"/>
</g>
<!-- Node23 -->
<g id="node73" class="node"><title>Node23</title>
<polygon style="fill:white;stroke:#bfbfbf;" points="985,-56 985,-76 1062,-76 1062,-56 985,-56"/>
<text text-anchor="middle" x="1023" y="-63" style="font-family:Arial;font-size:10.00;">boost/any.hpp</text>
</g>
<!-- Node20&#45;&gt;Node23 -->
<g id="edge100" class="edge"><title>Node20&#45;&gt;Node23</title>
<path style="fill:none;stroke:midnightblue;" d="M1015,-112C1016,-105 1018,-95 1020,-86"/>
<polygon style="fill:midnightblue;stroke:midnightblue;" points="1023.49,-86.2987 1021,-76 1016.52,-85.6021 1023.49,-86.2987"/>
</g>
<!-- Node24 -->
<g id="node75" class="node"><title>Node24</title>
<polygon style="fill:white;stroke:#bfbfbf;" points="793,-56 793,-76 922,-76 922,-56 793,-56"/>
<text text-anchor="middle" x="857" y="-63" style="font-family:Arial;font-size:10.00;">boost/unordered_map.hpp</text>
</g>
<!-- Node20&#45;&gt;Node24 -->
<g id="edge102" class="edge"><title>Node20&#45;&gt;Node24</title>
<path style="fill:none;stroke:midnightblue;" d="M985,-112C960,-103 922,-89 895,-79"/>
<polygon style="fill:midnightblue;stroke:midnightblue;" points="895.584,-75.5212 885,-76 893.573,-82.2259 895.584,-75.5212"/>
</g>
<!-- Node25&#45;&gt;Node8 -->
<g id="edge112" class="edge"><title>Node25&#45;&gt;Node8</title>
<path style="fill:none;stroke:midnightblue;" d="M637,-224C640,-205 645,-166 649,-142"/>
<polygon style="fill:midnightblue;stroke:midnightblue;" points="652.488,-142.299 650,-132 645.522,-141.602 652.488,-142.299"/>
</g>
<!-- Node25&#45;&gt;Node12 -->
<g id="edge120" class="edge"><title>Node25&#45;&gt;Node12</title>
<path style="fill:none;stroke:midnightblue;" d="M710,-229C745,-228 787,-225 825,-224 878,-221 1735,-214 1782,-188 1821,-165 1843,-114 1852,-86"/>
<polygon style="fill:midnightblue;stroke:midnightblue;" points="1855.48,-86.584 1855,-76 1848.77,-84.5725 1855.48,-86.584"/>
</g>
<!-- Node25&#45;&gt;Node16 -->
<g id="edge116" class="edge"><title>Node25&#45;&gt;Node16</title>
<path style="fill:none;stroke:midnightblue;" d="M600,-224C566,-215 516,-201 479,-191"/>
<polygon style="fill:midnightblue;stroke:midnightblue;" points="479.584,-187.521 469,-188 477.573,-194.226 479.584,-187.521"/>
</g>
<!-- Node25&#45;&gt;Node17 -->
<g id="edge114" class="edge"><title>Node25&#45;&gt;Node17</title>
<path style="fill:none;stroke:midnightblue;" d="M623,-224C612,-216 596,-204 583,-194"/>
<polygon style="fill:midnightblue;stroke:midnightblue;" points="585.1,-191.2 575,-188 580.9,-196.8 585.1,-191.2"/>
</g>
<!-- Node25&#45;&gt;Node19 -->
<g id="edge118" class="edge"><title>Node25&#45;&gt;Node19</title>
<path style="fill:none;stroke:midnightblue;" d="M682,-224C726,-215 792,-200 839,-190"/>
<polygon style="fill:midnightblue;stroke:midnightblue;" points="839.881,-193.393 849,-188 838.508,-186.529 839.881,-193.393"/>
</g>
<!-- Node26&#45;&gt;Node3 -->
<g id="edge124" class="edge"><title>Node26&#45;&gt;Node3</title>
<path style="fill:none;stroke:midnightblue;" d="M1408,-56C1357,-45 1277,-27 1233,-17"/>
<polygon style="fill:midnightblue;stroke:midnightblue;" points="1233.49,-13.5292 1223,-15 1232.12,-20.3933 1233.49,-13.5292"/>
</g>
<!-- Node27&#45;&gt;Node2 -->
<g id="edge128" class="edge"><title>Node27&#45;&gt;Node2</title>
<path style="fill:none;stroke:midnightblue;" d="M350,-393C244,-379 76,-347 76,-290 76,-290 76,-290 76,-178 76,-121 147,-89 189,-75"/>
<polygon style="fill:midnightblue;stroke:midnightblue;" points="190.427,-78.2259 199,-72 188.416,-71.5212 190.427,-78.2259"/>
</g>
<!-- Node27&#45;&gt;Node5 -->
<g id="edge130" class="edge"><title>Node27&#45;&gt;Node5</title>
<path style="fill:none;stroke:midnightblue;" d="M459,-392C512,-371 629,-326 689,-304"/>
<polygon style="fill:midnightblue;stroke:midnightblue;" points="690.283,-307.26 698,-300 687.44,-300.863 690.283,-307.26"/>
</g>
<!-- Node28 -->
<g id="node94" class="node"><title>Node28</title>
<a xlink:href="data__set__label__statistics_8h.html" target="_top" xlink:title="ltr/data/utility/data_set_label_statistics.h">
<polygon style="fill:white;stroke:black;" points="252,-336 252,-356 444,-356 444,-336 252,-336"/>
<text text-anchor="middle" x="348" y="-343" style="font-family:Arial;font-size:10.00;">ltr/data/utility/data_set_label_statistics.h</text>
</a>
</g>
<!-- Node27&#45;&gt;Node28 -->
<g id="edge132" class="edge"><title>Node27&#45;&gt;Node28</title>
<path style="fill:none;stroke:midnightblue;" d="M418,-392C405,-384 387,-371 372,-362"/>
<polygon style="fill:midnightblue;stroke:midnightblue;" points="373.262,-358.635 363,-356 369.379,-364.459 373.262,-358.635"/>
</g>
<!-- Node28&#45;&gt;Node2 -->
<g id="edge136" class="edge"><title>Node28&#45;&gt;Node2</title>
<path style="fill:none;stroke:midnightblue;" d="M342,-336C328,-314 294,-261 258,-224 240,-205 225,-210 212,-188 194,-156 205,-111 213,-86"/>
<polygon style="fill:midnightblue;stroke:midnightblue;" points="216.479,-86.584 216,-76 209.774,-84.5725 216.479,-86.584"/>
</g>
<!-- Node28&#45;&gt;Node5 -->
<g id="edge140" class="edge"><title>Node28&#45;&gt;Node5</title>
<path style="fill:none;stroke:midnightblue;" d="M415,-336C486,-326 599,-309 667,-299"/>
<polygon style="fill:midnightblue;stroke:midnightblue;" points="667.881,-302.393 677,-297 666.508,-295.529 667.881,-302.393"/>
</g>
<!-- Node28&#45;&gt;Node9 -->
<g id="edge134" class="edge"><title>Node28&#45;&gt;Node9</title>
<path style="fill:none;stroke:midnightblue;" d="M346,-336C342,-306 334,-220 373,-168 424,-100 529,-76 579,-69"/>
<polygon style="fill:midnightblue;stroke:midnightblue;" points="579.398,-72.4778 589,-68 578.701,-65.5125 579.398,-72.4778"/>
</g>
<!-- Node28&#45;&gt;Node25 -->
<g id="edge142" class="edge"><title>Node28&#45;&gt;Node25</title>
<path style="fill:none;stroke:midnightblue;" d="M374,-336C426,-315 541,-270 600,-248"/>
<polygon style="fill:midnightblue;stroke:midnightblue;" points="602.015,-250.964 610,-244 599.415,-244.464 602.015,-250.964"/>
</g>
<!-- Node29 -->
<g id="node98" class="node"><title>Node29</title>
<polygon style="fill:white;stroke:#bfbfbf;" points="104,-280 104,-300 161,-300 161,-280 104,-280"/>
<text text-anchor="middle" x="132" y="-287" style="font-family:Arial;font-size:10.00;">functional</text>
</g>
<!-- Node28&#45;&gt;Node29 -->
<g id="edge138" class="edge"><title>Node28&#45;&gt;Node29</title>
<path style="fill:none;stroke:midnightblue;" d="M309,-336C275,-328 224,-314 171,-300"/>
<polygon style="fill:midnightblue;stroke:midnightblue;" points="171.492,-296.529 161,-298 170.119,-303.393 171.492,-296.529"/>
</g>
<!-- Node30 -->
<g id="node102" class="node"><title>Node30</title>
<a xlink:href="numerical_8h.html" target="_top" xlink:title="ltr/utility/numerical.h">
<polygon style="fill:white;stroke:black;" points="178,-280 178,-300 282,-300 282,-280 178,-280"/>
<text text-anchor="middle" x="230" y="-287" style="font-family:Arial;font-size:10.00;">ltr/utility/numerical.h</text>
</a>
</g>
<!-- Node28&#45;&gt;Node30 -->
<g id="edge144" class="edge"><title>Node28&#45;&gt;Node30</title>
<path style="fill:none;stroke:midnightblue;" d="M327,-336C309,-327 282,-314 260,-304"/>
<polygon style="fill:midnightblue;stroke:midnightblue;" points="261.56,-300.863 251,-300 258.717,-307.26 261.56,-300.863"/>
</g>
<!-- Node31 -->
<g id="node104" class="node"><title>Node31</title>
<polygon style="fill:white;stroke:#bfbfbf;" points="151,-224 151,-244 194,-244 194,-224 151,-224"/>
<text text-anchor="middle" x="172" y="-231" style="font-family:Arial;font-size:10.00;">cmath</text>
</g>
<!-- Node30&#45;&gt;Node31 -->
<g id="edge146" class="edge"><title>Node30&#45;&gt;Node31</title>
<path style="fill:none;stroke:midnightblue;" d="M220,-280C211,-272 200,-261 190,-251"/>
<polygon style="fill:midnightblue;stroke:midnightblue;" points="192.546,-248.596 183,-244 187.596,-253.546 192.546,-248.596"/>
</g>
<!-- Node32 -->
<g id="node106" class="node"><title>Node32</title>
<polygon style="fill:white;stroke:#bfbfbf;" points="211,-224 211,-244 250,-244 250,-224 211,-224"/>
<text text-anchor="middle" x="230" y="-231" style="font-family:Arial;font-size:10.00;">limits</text>
</g>
<!-- Node30&#45;&gt;Node32 -->
<g id="edge148" class="edge"><title>Node30&#45;&gt;Node32</title>
<path style="fill:none;stroke:midnightblue;" d="M230,-280C230,-273 230,-263 230,-254"/>
<polygon style="fill:midnightblue;stroke:midnightblue;" points="233.5,-254 230,-244 226.5,-254 233.5,-254"/>
</g>
<!-- Node33&#45;&gt;Node5 -->
<g id="edge152" class="edge"><title>Node33&#45;&gt;Node5</title>
<path style="fill:none;stroke:midnightblue;" d="M1117,-336C1021,-324 866,-307 782,-297"/>
<polygon style="fill:midnightblue;stroke:midnightblue;" points="782.299,-293.512 772,-296 781.602,-300.478 782.299,-293.512"/>
</g>
<!-- Node34 -->
<g id="node111" class="node"><title>Node34</title>
<a xlink:href="vertex_8h.html" target="_top" xlink:title="ltr/learners/decision_tree/vertex/vertex.h">
<polygon style="fill:white;stroke:black;" points="1231,-280 1231,-300 1419,-300 1419,-280 1231,-280"/>
<text text-anchor="middle" x="1325" y="-287" style="font-family:Arial;font-size:10.00;">ltr/learners/decision_tree/vertex/vertex.h</text>
</a>
</g>
<!-- Node33&#45;&gt;Node34 -->
<g id="edge154" class="edge"><title>Node33&#45;&gt;Node34</title>
<path style="fill:none;stroke:midnightblue;" d="M1225,-336C1244,-327 1272,-314 1294,-304"/>
<polygon style="fill:midnightblue;stroke:midnightblue;" points="1295.28,-307.26 1303,-300 1292.44,-300.863 1295.28,-307.26"/>
</g>
<!-- Node34&#45;&gt;Node2 -->
<g id="edge158" class="edge"><title>Node34&#45;&gt;Node2</title>
<path style="fill:none;stroke:midnightblue;" d="M1231,-287C1054,-280 681,-264 554,-244 520,-238 512,-232 478,-224 378,-198 334,-208 263,-132 250,-117 238,-99 230,-85"/>
<polygon style="fill:midnightblue;stroke:midnightblue;" points="232.916,-83.0418 225,-76 226.797,-86.4414 232.916,-83.0418"/>
</g>
<!-- Node34&#45;&gt;Node3 -->
<g id="edge156" class="edge"><title>Node34&#45;&gt;Node3</title>
<path style="fill:none;stroke:midnightblue;" d="M1328,-280C1337,-245 1364,-128 1314,-56 1296,-30 1259,-19 1233,-14"/>
<polygon style="fill:midnightblue;stroke:midnightblue;" points="1233.49,-10.5292 1223,-12 1232.12,-17.3933 1233.49,-10.5292"/>
</g>
<!-- Node34&#45;&gt;Node7 -->
<g id="edge162" class="edge"><title>Node34&#45;&gt;Node7</title>
<path style="fill:none;stroke:midnightblue;" d="M1295,-280C1225,-256 1041,-193 892,-132 852,-116 805,-94 776,-80"/>
<polygon style="fill:midnightblue;stroke:midnightblue;" points="777.56,-76.8631 767,-76 774.717,-83.2598 777.56,-76.8631"/>
</g>
<!-- Node34&#45;&gt;Node12 -->
<g id="edge204" class="edge"><title>Node34&#45;&gt;Node12</title>
<path style="fill:none;stroke:midnightblue;" d="M1419,-286C1561,-277 1819,-253 1881,-188 1904,-163 1898,-144 1889,-112 1885,-102 1879,-92 1873,-84"/>
<polygon style="fill:midnightblue;stroke:midnightblue;" points="1875.8,-81.9 1867,-76 1870.2,-86.1 1875.8,-81.9"/>
</g>
<!-- Node34&#45;&gt;Node13 -->
<g id="edge160" class="edge"><title>Node34&#45;&gt;Node13</title>
<path style="fill:none;stroke:midnightblue;" d="M1419,-285C1535,-278 1726,-264 1794,-244 1931,-202 2057,-76 2100,-28"/>
<polygon style="fill:midnightblue;stroke:midnightblue;" points="2103.05,-29.8306 2107,-20 2097.78,-25.221 2103.05,-29.8306"/>
</g>
<!-- Node34&#45;&gt;Node21 -->
<g id="edge164" class="edge"><title>Node34&#45;&gt;Node21</title>
<path style="fill:none;stroke:midnightblue;" d="M1322,-280C1318,-270 1314,-256 1311,-244 1295,-187 1280,-119 1272,-86"/>
<polygon style="fill:midnightblue;stroke:midnightblue;" points="1275.39,-85.1194 1270,-76 1268.53,-86.4922 1275.39,-85.1194"/>
</g>
<!-- Node35 -->
<g id="node118" class="node"><title>Node35</title>
<a xlink:href="serializable__functor_8h.html" target="_top" xlink:title="ltr/interfaces/serializable_functor.h">
<polygon style="fill:white;stroke:black;" points="1423,-224 1423,-244 1586,-244 1586,-224 1423,-224"/>
<text text-anchor="middle" x="1504" y="-231" style="font-family:Arial;font-size:10.00;">ltr/interfaces/serializable_functor.h</text>
</a>
</g>
<!-- Node34&#45;&gt;Node35 -->
<g id="edge166" class="edge"><title>Node34&#45;&gt;Node35</title>
<path style="fill:none;stroke:midnightblue;" d="M1357,-280C1386,-271 1430,-257 1462,-247"/>
<polygon style="fill:midnightblue;stroke:midnightblue;" points="1463.43,-250.226 1472,-244 1461.42,-243.521 1463.43,-250.226"/>
</g>
<!-- Node40 -->
<g id="node137" class="node"><title>Node40</title>
<a xlink:href="condition_8h.html" target="_top" xlink:title="ltr/learners/decision_tree/condition/condition.h">
<polygon style="fill:white;stroke:black;" points="1559,-168 1559,-188 1774,-188 1774,-168 1559,-168"/>
<text text-anchor="middle" x="1666" y="-175" style="font-family:Arial;font-size:10.00;">ltr/learners/decision_tree/condition/condition.h</text>
</a>
</g>
<!-- Node34&#45;&gt;Node40 -->
<g id="edge194" class="edge"><title>Node34&#45;&gt;Node40</title>
<path style="fill:none;stroke:midnightblue;" d="M1414,-280C1480,-272 1563,-259 1594,-244 1617,-232 1637,-211 1651,-196"/>
<polygon style="fill:midnightblue;stroke:midnightblue;" points="1654.05,-197.831 1658,-188 1648.78,-193.221 1654.05,-197.831"/>
</g>
<!-- Node35&#45;&gt;Node12 -->
<g id="edge168" class="edge"><title>Node35&#45;&gt;Node12</title>
<path style="fill:none;stroke:midnightblue;" d="M1586,-229C1687,-222 1847,-208 1865,-188 1889,-160 1876,-112 1867,-85"/>
<polygon style="fill:midnightblue;stroke:midnightblue;" points="1870.26,-83.7166 1863,-76 1863.86,-86.5596 1870.26,-83.7166"/>
</g>
<!-- Node36 -->
<g id="node121" class="node"><title>Node36</title>
<a xlink:href="functor_8h.html" target="_top" xlink:title="ltr/interfaces/functor.h">
<polygon style="fill:white;stroke:black;" points="1395,-168 1395,-188 1504,-188 1504,-168 1395,-168"/>
<text text-anchor="middle" x="1449" y="-175" style="font-family:Arial;font-size:10.00;">ltr/interfaces/functor.h</text>
</a>
</g>
<!-- Node35&#45;&gt;Node36 -->
<g id="edge170" class="edge"><title>Node35&#45;&gt;Node36</title>
<path style="fill:none;stroke:midnightblue;" d="M1494,-224C1486,-216 1475,-205 1466,-195"/>
<polygon style="fill:midnightblue;stroke:midnightblue;" points="1468.55,-192.596 1459,-188 1463.6,-197.546 1468.55,-192.596"/>
</g>
<!-- Node38 -->
<g id="node128" class="node"><title>Node38</title>
<a xlink:href="serializable_8h.html" target="_top" xlink:title="ltr/interfaces/serializable.h">
<polygon style="fill:white;stroke:black;" points="1467,-112 1467,-132 1596,-132 1596,-112 1467,-112"/>
<text text-anchor="middle" x="1531" y="-119" style="font-family:Arial;font-size:10.00;">ltr/interfaces/serializable.h</text>
</a>
</g>
<!-- Node35&#45;&gt;Node38 -->
<g id="edge180" class="edge"><title>Node35&#45;&gt;Node38</title>
<path style="fill:none;stroke:midnightblue;" d="M1506,-224C1510,-205 1520,-166 1526,-142"/>
<polygon style="fill:midnightblue;stroke:midnightblue;" points="1529.47,-142.492 1528,-132 1522.61,-141.119 1529.47,-142.492"/>
</g>
<!-- Node36&#45;&gt;Node3 -->
<g id="edge176" class="edge"><title>Node36&#45;&gt;Node3</title>
<path style="fill:none;stroke:midnightblue;" d="M1443,-168C1429,-144 1393,-87 1347,-56 1312,-32 1264,-20 1233,-15"/>
<polygon style="fill:midnightblue;stroke:midnightblue;" points="1233.49,-11.5292 1223,-13 1232.12,-18.3933 1233.49,-11.5292"/>
</g>
<!-- Node36&#45;&gt;Node8 -->
<g id="edge178" class="edge"><title>Node36&#45;&gt;Node8</title>
<path style="fill:none;stroke:midnightblue;" d="M1395,-174C1249,-164 848,-136 703,-126"/>
<polygon style="fill:midnightblue;stroke:midnightblue;" points="703.299,-122.512 693,-125 702.602,-129.478 703.299,-122.512"/>
</g>
<!-- Node36&#45;&gt;Node12 -->
<g id="edge172" class="edge"><title>Node36&#45;&gt;Node12</title>
<path style="fill:none;stroke:midnightblue;" d="M1504,-169C1550,-161 1617,-148 1675,-132 1728,-116 1788,-94 1824,-80"/>
<polygon style="fill:midnightblue;stroke:midnightblue;" points="1825.28,-83.2598 1833,-76 1822.44,-76.8631 1825.28,-83.2598"/>
</g>
<!-- Node37 -->
<g id="node124" class="node"><title>Node37</title>
<polygon style="fill:white;stroke:#bfbfbf;" points="1525,-56 1525,-76 1639,-76 1639,-56 1525,-56"/>
<text text-anchor="middle" x="1582" y="-63" style="font-family:Arial;font-size:10.00;">boost/lexical_cast.hpp</text>
</g>
<!-- Node36&#45;&gt;Node37 -->
<g id="edge174" class="edge"><title>Node36&#45;&gt;Node37</title>
<path style="fill:none;stroke:midnightblue;" d="M1447,-168C1446,-154 1445,-128 1458,-112 1472,-94 1494,-83 1515,-77"/>
<polygon style="fill:midnightblue;stroke:midnightblue;" points="1516.43,-80.2259 1525,-74 1514.42,-73.5212 1516.43,-80.2259"/>
</g>
<!-- Node38&#45;&gt;Node3 -->
<g id="edge186" class="edge"><title>Node38&#45;&gt;Node3</title>
<path style="fill:none;stroke:midnightblue;" d="M1581,-112C1623,-101 1672,-83 1648,-56 1620,-25 1329,-14 1233,-11"/>
<polygon style="fill:midnightblue;stroke:midnightblue;" points="1233,-7.5001 1223,-11 1233,-14.5001 1233,-7.5001"/>
</g>
<!-- Node38&#45;&gt;Node12 -->
<g id="edge190" class="edge"><title>Node38&#45;&gt;Node12</title>
<path style="fill:none;stroke:midnightblue;" d="M1589,-112C1648,-103 1736,-87 1795,-77"/>
<polygon style="fill:midnightblue;stroke:midnightblue;" points="1795.88,-80.3933 1805,-75 1794.51,-73.5292 1795.88,-80.3933"/>
</g>
<!-- Node38&#45;&gt;Node21 -->
<g id="edge184" class="edge"><title>Node38&#45;&gt;Node21</title>
<path style="fill:none;stroke:midnightblue;" d="M1484,-112C1436,-102 1363,-86 1315,-76"/>
<polygon style="fill:midnightblue;stroke:midnightblue;" points="1315.49,-72.5292 1305,-74 1314.12,-79.3933 1315.49,-72.5292"/>
</g>
<!-- Node38&#45;&gt;Node26 -->
<g id="edge192" class="edge"><title>Node38&#45;&gt;Node26</title>
<path style="fill:none;stroke:midnightblue;" d="M1517,-112C1506,-104 1489,-92 1475,-82"/>
<polygon style="fill:midnightblue;stroke:midnightblue;" points="1477.1,-79.2 1467,-76 1472.9,-84.8 1477.1,-79.2"/>
</g>
<!-- Node38&#45;&gt;Node37 -->
<g id="edge182" class="edge"><title>Node38&#45;&gt;Node37</title>
<path style="fill:none;stroke:midnightblue;" d="M1540,-112C1547,-104 1557,-93 1566,-83"/>
<polygon style="fill:midnightblue;stroke:midnightblue;" points="1568.4,-85.546 1573,-76 1563.45,-80.5962 1568.4,-85.546"/>
</g>
<!-- Node39 -->
<g id="node133" class="node"><title>Node39</title>
<polygon style="fill:white;stroke:#bfbfbf;" points="1695,-56 1695,-76 1749,-76 1749,-56 1695,-56"/>
<text text-anchor="middle" x="1722" y="-63" style="font-family:Arial;font-size:10.00;">iostream</text>
</g>
<!-- Node38&#45;&gt;Node39 -->
<g id="edge188" class="edge"><title>Node38&#45;&gt;Node39</title>
<path style="fill:none;stroke:midnightblue;" d="M1565,-112C1599,-102 1651,-87 1685,-77"/>
<polygon style="fill:midnightblue;stroke:midnightblue;" points="1686.43,-80.2259 1695,-74 1684.42,-73.5212 1686.43,-80.2259"/>
</g>
<!-- Node40&#45;&gt;Node3 -->
<g id="edge196" class="edge"><title>Node40&#45;&gt;Node3</title>
<path style="fill:none;stroke:midnightblue;" d="M1678,-168C1706,-142 1776,-75 1758,-56 1722,-16 1345,-11 1233,-10"/>
<polygon style="fill:midnightblue;stroke:midnightblue;" points="1233,-6.5001 1223,-10 1233,-13.5001 1233,-6.5001"/>
</g>
<!-- Node40&#45;&gt;Node8 -->
<g id="edge198" class="edge"><title>Node40&#45;&gt;Node8</title>
<path style="fill:none;stroke:midnightblue;" d="M1559,-171C1543,-170 1527,-169 1512,-168 1205,-149 837,-131 703,-124"/>
<polygon style="fill:midnightblue;stroke:midnightblue;" points="703,-120.5 693,-124 703,-127.5 703,-120.5"/>
</g>
<!-- Node40&#45;&gt;Node12 -->
<g id="edge202" class="edge"><title>Node40&#45;&gt;Node12</title>
<path style="fill:none;stroke:midnightblue;" d="M1685,-168C1702,-159 1728,-145 1751,-132 1780,-115 1812,-95 1833,-81"/>
<polygon style="fill:midnightblue;stroke:midnightblue;" points="1834.96,-83.916 1842,-76 1831.56,-77.7969 1834.96,-83.916"/>
</g>
<!-- Node40&#45;&gt;Node38 -->
<g id="edge200" class="edge"><title>Node40&#45;&gt;Node38</title>
<path style="fill:none;stroke:midnightblue;" d="M1642,-168C1620,-159 1589,-146 1565,-136"/>
<polygon style="fill:midnightblue;stroke:midnightblue;" points="1565.58,-132.464 1555,-132 1562.98,-138.964 1565.58,-132.464"/>
</g>
</g>
</svg>
