<?xml version="1.0" encoding="UTF-8" standalone="no"?>
<!DOCTYPE svg PUBLIC "-//W3C//DTD SVG 1.0//EN"
 "http://www.w3.org/TR/2001/REC-SVG-20010904/DTD/svg10.dtd" [
 <!ATTLIST svg xmlns:xlink CDATA #FIXED "http://www.w3.org/1999/xlink">
]>
<!-- Generated by Graphviz version 2.20.2 (Tue Mar &#160;2 19:03:41 UTC 2010)
     For user: (jenkins)  -->
<!-- Title: G Pages: 1 -->
<svg width="1904pt" height="140pt"
 viewBox="0.00 0.00 1904.00 140.00" xmlns="http://www.w3.org/2000/svg" xmlns:xlink="http://www.w3.org/1999/xlink">
<g id="graph0" class="graph" transform="scale(1 1) rotate(0) translate(4 136)">
<title>G</title>
<polygon style="fill:white;stroke:white;" points="-4,4 -4,-136 1900,-136 1900,4 -4,4"/>
<!-- Node1 -->
<g id="node1" class="node"><title>Node1</title>
<polygon style="fill:#bfbfbf;stroke:black;" points="1179,-112 1179,-132 1332,-132 1332,-112 1179,-112"/>
<text text-anchor="middle" x="1255" y="-119" style="font-family:Arial;font-size:10.00;">ltr/scorers/one_feature_scorer.h</text>
</g>
<!-- Node2 -->
<g id="node3" class="node"><title>Node2</title>
<a xlink:href="best__feature__learner_8h.html" target="_top" xlink:title="ltr/learners/best_feature_learner/best_feature_learner.h">
<polygon style="fill:white;stroke:black;" points="554,-56 554,-76 805,-76 805,-56 554,-56"/>
<text text-anchor="middle" x="679" y="-63" style="font-family:Arial;font-size:10.00;">ltr/learners/best_feature_learner/best_feature_learner.h</text>
</a>
</g>
<!-- Node1&#45;&gt;Node2 -->
<g id="edge2" class="edge"><title>Node1&#45;&gt;Node2</title>
<path style="fill:none;stroke:midnightblue;" d="M1169,-114C1065,-104 893,-87 783,-76"/>
<polygon style="fill:midnightblue;stroke:midnightblue;" points="1168.7,-117.488 1179,-115 1169.4,-110.522 1168.7,-117.488"/>
</g>
<!-- Node8 -->
<g id="node15" class="node"><title>Node8</title>
<a xlink:href="tostring__unittest_8cc.html" target="_top" xlink:title="ltr/data/tostring_unittest.cc">
<polygon style="fill:white;stroke:black;" points="822,-56 822,-76 954,-76 954,-56 822,-56"/>
<text text-anchor="middle" x="888" y="-63" style="font-family:Arial;font-size:10.00;">ltr/data/tostring_unittest.cc</text>
</a>
</g>
<!-- Node1&#45;&gt;Node8 -->
<g id="edge14" class="edge"><title>Node1&#45;&gt;Node8</title>
<path style="fill:none;stroke:midnightblue;" d="M1179,-110C1113,-100 1017,-86 953,-76"/>
<polygon style="fill:midnightblue;stroke:midnightblue;" points="1178.51,-113.471 1189,-112 1179.88,-106.607 1178.51,-113.471"/>
</g>
<!-- Node9 -->
<g id="node17" class="node"><title>Node9</title>
<a xlink:href="composition__scorer__unittest_8cc.html" target="_top" xlink:title="ltr/scorers/composition_scorers/composition_scorer_unittest.cc">
<polygon style="fill:white;stroke:black;" points="972,-56 972,-76 1263,-76 1263,-56 972,-56"/>
<text text-anchor="middle" x="1117" y="-63" style="font-family:Arial;font-size:10.00;">ltr/scorers/composition_scorers/composition_scorer_unittest.cc</text>
</a>
</g>
<!-- Node1&#45;&gt;Node9 -->
<g id="edge16" class="edge"><title>Node1&#45;&gt;Node9</title>
<path style="fill:none;stroke:midnightblue;" d="M1221,-108C1196,-98 1164,-85 1142,-76"/>
<polygon style="fill:midnightblue;stroke:midnightblue;" points="1219.44,-111.137 1230,-112 1222.28,-104.74 1219.44,-111.137"/>
</g>
<!-- Node10 -->
<g id="node19" class="node"><title>Node10</title>
<a xlink:href="linear__composition__scorer__unittest_8cc.html" target="_top" xlink:title="ltr/scorers/linear_composition_scorer_unittest.cc">
<polygon style="fill:white;stroke:black;" points="1280,-56 1280,-76 1507,-76 1507,-56 1280,-56"/>
<text text-anchor="middle" x="1393" y="-63" style="font-family:Arial;font-size:10.00;">ltr/scorers/linear_composition_scorer_unittest.cc</text>
</a>
</g>
<!-- Node1&#45;&gt;Node10 -->
<g id="edge18" class="edge"><title>Node1&#45;&gt;Node10</title>
<path style="fill:none;stroke:midnightblue;" d="M1289,-108C1314,-98 1346,-85 1368,-76"/>
<polygon style="fill:midnightblue;stroke:midnightblue;" points="1287.72,-104.74 1280,-112 1290.56,-111.137 1287.72,-104.74"/>
</g>
<!-- Node11 -->
<g id="node21" class="node"><title>Node11</title>
<a xlink:href="one__feature__scorer_8cc.html" target="_top" xlink:title="ltr/scorers/one_feature_scorer.cc">
<polygon style="fill:white;stroke:black;" points="1524,-56 1524,-76 1682,-76 1682,-56 1524,-56"/>
<text text-anchor="middle" x="1603" y="-63" style="font-family:Arial;font-size:10.00;">ltr/scorers/one_feature_scorer.cc</text>
</a>
</g>
<!-- Node1&#45;&gt;Node11 -->
<g id="edge20" class="edge"><title>Node1&#45;&gt;Node11</title>
<path style="fill:none;stroke:midnightblue;" d="M1327,-110C1390,-100 1481,-85 1541,-76"/>
<polygon style="fill:midnightblue;stroke:midnightblue;" points="1326.12,-106.607 1317,-112 1327.49,-113.471 1326.12,-106.607"/>
</g>
<!-- Node12 -->
<g id="node23" class="node"><title>Node12</title>
<a xlink:href="one__feature__scorer__unittest_8cc.html" target="_top" xlink:title="ltr/scorers/one_feature_scorer_unittest.cc">
<polygon style="fill:white;stroke:black;" points="1700,-56 1700,-76 1896,-76 1896,-56 1700,-56"/>
<text text-anchor="middle" x="1798" y="-63" style="font-family:Arial;font-size:10.00;">ltr/scorers/one_feature_scorer_unittest.cc</text>
</a>
</g>
<!-- Node1&#45;&gt;Node12 -->
<g id="edge22" class="edge"><title>Node1&#45;&gt;Node12</title>
<path style="fill:none;stroke:midnightblue;" d="M1342,-113C1440,-103 1600,-87 1702,-76"/>
<polygon style="fill:midnightblue;stroke:midnightblue;" points="1341.6,-109.522 1332,-114 1342.3,-116.488 1341.6,-109.522"/>
</g>
<!-- Node3 -->
<g id="node5" class="node"><title>Node3</title>
<a xlink:href="crossvalidation__unittest_8cc.html" target="_top" xlink:title="ltr/crossvalidation/crossvalidation_unittest.cc">
<polygon style="fill:white;stroke:black;" points="0,-0 0,-20 209,-20 209,-0 0,-0"/>
<text text-anchor="middle" x="104" y="-7" style="font-family:Arial;font-size:10.00;">ltr/crossvalidation/crossvalidation_unittest.cc</text>
</a>
</g>
<!-- Node2&#45;&gt;Node3 -->
<g id="edge4" class="edge"><title>Node2&#45;&gt;Node3</title>
<path style="fill:none;stroke:midnightblue;" d="M566,-55C462,-45 308,-30 206,-20"/>
<polygon style="fill:midnightblue;stroke:midnightblue;" points="565.701,-58.4875 576,-56 566.398,-51.5222 565.701,-58.4875"/>
</g>
<!-- Node4 -->
<g id="node7" class="node"><title>Node4</title>
<a xlink:href="composition__learner__unittest_8cc.html" target="_top" xlink:title="ltr/learners/composition_learner/composition_learner_unittest.cc">
<polygon style="fill:white;stroke:black;" points="226,-0 226,-20 519,-20 519,-0 226,-0"/>
<text text-anchor="middle" x="372" y="-7" style="font-family:Arial;font-size:10.00;">ltr/learners/composition_learner/composition_learner_unittest.cc</text>
</a>
</g>
<!-- Node2&#45;&gt;Node4 -->
<g id="edge6" class="edge"><title>Node2&#45;&gt;Node4</title>
<path style="fill:none;stroke:midnightblue;" d="M614,-54C558,-44 479,-29 427,-20"/>
<polygon style="fill:midnightblue;stroke:midnightblue;" points="613.508,-57.4708 624,-56 614.881,-50.6067 613.508,-57.4708"/>
</g>
<!-- Node5 -->
<g id="node9" class="node"><title>Node5</title>
<a xlink:href="linear__composition__unittest_8cc.html" target="_top" xlink:title="ltr/learners/composition_learner/linear_composition_unittest.cc">
<polygon style="fill:white;stroke:black;" points="536,-0 536,-20 823,-20 823,-0 536,-0"/>
<text text-anchor="middle" x="679" y="-7" style="font-family:Arial;font-size:10.00;">ltr/learners/composition_learner/linear_composition_unittest.cc</text>
</a>
</g>
<!-- Node2&#45;&gt;Node5 -->
<g id="edge8" class="edge"><title>Node2&#45;&gt;Node5</title>
<path style="fill:none;stroke:midnightblue;" d="M679,-46C679,-37 679,-28 679,-20"/>
<polygon style="fill:midnightblue;stroke:midnightblue;" points="675.5,-46 679,-56 682.5,-46 675.5,-46"/>
</g>
<!-- Node6 -->
<g id="node11" class="node"><title>Node6</title>
<a xlink:href="learners__unittest_8cc.html" target="_top" xlink:title="ltr/learners/learners_unittest.cc">
<polygon style="fill:white;stroke:black;" points="840,-0 840,-20 990,-20 990,-0 840,-0"/>
<text text-anchor="middle" x="915" y="-7" style="font-family:Arial;font-size:10.00;">ltr/learners/learners_unittest.cc</text>
</a>
</g>
<!-- Node2&#45;&gt;Node6 -->
<g id="edge10" class="edge"><title>Node2&#45;&gt;Node6</title>
<path style="fill:none;stroke:midnightblue;" d="M731,-54C774,-44 833,-29 873,-20"/>
<polygon style="fill:midnightblue;stroke:midnightblue;" points="730.119,-50.6067 721,-56 731.492,-57.4708 730.119,-50.6067"/>
</g>
<!-- Node7 -->
<g id="node13" class="node"><title>Node7</title>
<a xlink:href="generator_8cc.html" target="_top" xlink:title="ltr/serialization_test/generator/generator.cc">
<polygon style="fill:white;stroke:black;" points="1008,-0 1008,-20 1209,-20 1209,-0 1008,-0"/>
<text text-anchor="middle" x="1108" y="-7" style="font-family:Arial;font-size:10.00;">ltr/serialization_test/generator/generator.cc</text>
</a>
</g>
<!-- Node2&#45;&gt;Node7 -->
<g id="edge12" class="edge"><title>Node2&#45;&gt;Node7</title>
<path style="fill:none;stroke:midnightblue;" d="M766,-55C844,-45 957,-30 1032,-20"/>
<polygon style="fill:midnightblue;stroke:midnightblue;" points="765.602,-51.5222 756,-56 766.299,-58.4875 765.602,-51.5222"/>
</g>
</g>
</svg>
