<?xml version="1.0" encoding="UTF-8" standalone="no"?>
<!DOCTYPE svg PUBLIC "-//W3C//DTD SVG 1.0//EN"
 "http://www.w3.org/TR/2001/REC-SVG-20010904/DTD/svg10.dtd" [
 <!ATTLIST svg xmlns:xlink CDATA #FIXED "http://www.w3.org/1999/xlink">
]>
<!-- Generated by Graphviz version 2.20.2 (Tue Mar &#160;2 19:03:41 UTC 2010)
     For user: (jenkins)  -->
<!-- Title: G Pages: 1 -->
<svg width="378pt" height="84pt"
 viewBox="0.00 0.00 378.00 84.00" xmlns="http://www.w3.org/2000/svg" xmlns:xlink="http://www.w3.org/1999/xlink">
<g id="graph0" class="graph" transform="scale(1 1) rotate(0) translate(4 80)">
<title>G</title>
<polygon style="fill:white;stroke:white;" points="-4,4 -4,-80 374,-80 374,4 -4,4"/>
<!-- Node1 -->
<g id="node1" class="node"><title>Node1</title>
<polygon style="fill:#bfbfbf;stroke:black;" points="64,-56 64,-76 222,-76 222,-56 64,-56"/>
<text text-anchor="middle" x="143" y="-63" style="font-family:Arial;font-size:10.00;">ltr/scorers/one_feature_scorer.cc</text>
</g>
<!-- Node2 -->
<g id="node3" class="node"><title>Node2</title>
<polygon style="fill:white;stroke:#bfbfbf;" points="0,-0 0,-20 74,-20 74,-0 0,-0"/>
<text text-anchor="middle" x="37" y="-7" style="font-family:Arial;font-size:10.00;">logog/logog.h</text>
</g>
<!-- Node1&#45;&gt;Node2 -->
<g id="edge2" class="edge"><title>Node1&#45;&gt;Node2</title>
<path style="fill:none;stroke:midnightblue;" d="M124,-56C108,-47 84,-34 65,-25"/>
<polygon style="fill:midnightblue;stroke:midnightblue;" points="66.4414,-21.7969 56,-20 63.0418,-27.916 66.4414,-21.7969"/>
</g>
<!-- Node3 -->
<g id="node5" class="node"><title>Node3</title>
<polygon style="fill:white;stroke:#bfbfbf;" points="92,-0 92,-20 132,-20 132,-0 92,-0"/>
<text text-anchor="middle" x="112" y="-7" style="font-family:Arial;font-size:10.00;">string</text>
</g>
<!-- Node1&#45;&gt;Node3 -->
<g id="edge4" class="edge"><title>Node1&#45;&gt;Node3</title>
<path style="fill:none;stroke:midnightblue;" d="M137,-56C133,-49 127,-38 123,-29"/>
<polygon style="fill:midnightblue;stroke:midnightblue;" points="125.916,-27.0418 118,-20 119.797,-30.4414 125.916,-27.0418"/>
</g>
<!-- Node4 -->
<g id="node7" class="node"><title>Node4</title>
<polygon style="fill:white;stroke:#bfbfbf;" points="150,-0 150,-20 201,-20 201,-0 150,-0"/>
<text text-anchor="middle" x="175" y="-7" style="font-family:Arial;font-size:10.00;">sstream</text>
</g>
<!-- Node1&#45;&gt;Node4 -->
<g id="edge6" class="edge"><title>Node1&#45;&gt;Node4</title>
<path style="fill:none;stroke:midnightblue;" d="M149,-56C154,-49 159,-38 164,-29"/>
<polygon style="fill:midnightblue;stroke:midnightblue;" points="167.203,-30.4414 169,-20 161.084,-27.0418 167.203,-30.4414"/>
</g>
<!-- Node5 -->
<g id="node9" class="node"><title>Node5</title>
<polygon style="fill:white;stroke:#bfbfbf;" points="218,-0 218,-20 371,-20 371,-0 218,-0"/>
<text text-anchor="middle" x="294" y="-7" style="font-family:Arial;font-size:10.00;">ltr/scorers/one_feature_scorer.h</text>
</g>
<!-- Node1&#45;&gt;Node5 -->
<g id="edge8" class="edge"><title>Node1&#45;&gt;Node5</title>
<path style="fill:none;stroke:midnightblue;" d="M170,-56C194,-47 230,-33 257,-23"/>
<polygon style="fill:midnightblue;stroke:midnightblue;" points="258.427,-26.2259 267,-20 256.416,-19.5212 258.427,-26.2259"/>
</g>
</g>
</svg>
