<?xml version="1.0" encoding="UTF-8" standalone="no"?>
<!DOCTYPE svg PUBLIC "-//W3C//DTD SVG 1.0//EN"
 "http://www.w3.org/TR/2001/REC-SVG-20010904/DTD/svg10.dtd" [
 <!ATTLIST svg xmlns:xlink CDATA #FIXED "http://www.w3.org/1999/xlink">
]>
<!-- Generated by Graphviz version 2.20.2 (Tue Mar &#160;2 19:03:41 UTC 2010)
     For user: (jenkins)  -->
<!-- Title: G Pages: 1 -->
<svg width="258pt" height="140pt"
 viewBox="0.00 0.00 258.00 140.00" xmlns="http://www.w3.org/2000/svg" xmlns:xlink="http://www.w3.org/1999/xlink">
<g id="graph0" class="graph" transform="scale(1 1) rotate(0) translate(4 136)">
<title>G</title>
<polygon style="fill:white;stroke:white;" points="-4,4 -4,-136 254,-136 254,4 -4,4"/>
<!-- Node1 -->
<g id="node1" class="node"><title>Node1</title>
<polygon style="fill:#bfbfbf;stroke:black;" points="49,-112 49,-132 202,-132 202,-112 49,-112"/>
<text text-anchor="middle" x="125" y="-119" style="font-family:Arial;font-size:10.00;">ltr/scorers/one_feature_scorer.h</text>
</g>
<!-- Node2 -->
<g id="node3" class="node"><title>Node2</title>
<a xlink:href="best__feature__learner_8h.html" target="_top" xlink:title="ltr/learners/best_feature_learner/best_feature_learner.h">
<polygon style="fill:white;stroke:black;" points="0,-56 0,-76 251,-76 251,-56 0,-56"/>
<text text-anchor="middle" x="125" y="-63" style="font-family:Arial;font-size:10.00;">ltr/learners/best_feature_learner/best_feature_learner.h</text>
</a>
</g>
<!-- Node1&#45;&gt;Node2 -->
<g id="edge2" class="edge"><title>Node1&#45;&gt;Node2</title>
<path style="fill:none;stroke:midnightblue;" d="M125,-102C125,-93 125,-84 125,-76"/>
<polygon style="fill:midnightblue;stroke:midnightblue;" points="121.5,-102 125,-112 128.5,-102 121.5,-102"/>
</g>
<!-- Node3 -->
<g id="node5" class="node"><title>Node3</title>
<a xlink:href="crossvalidation__unittest_8cc.html" target="_top" xlink:title="ltr/crossvalidation/crossvalidation_unittest.cc">
<polygon style="fill:white;stroke:black;" points="21,-0 21,-20 230,-20 230,-0 21,-0"/>
<text text-anchor="middle" x="125" y="-7" style="font-family:Arial;font-size:10.00;">ltr/crossvalidation/crossvalidation_unittest.cc</text>
</a>
</g>
<!-- Node2&#45;&gt;Node3 -->
<g id="edge4" class="edge"><title>Node2&#45;&gt;Node3</title>
<path style="fill:none;stroke:midnightblue;" d="M125,-46C125,-37 125,-28 125,-20"/>
<polygon style="fill:midnightblue;stroke:midnightblue;" points="121.5,-46 125,-56 128.5,-46 121.5,-46"/>
</g>
</g>
</svg>
