<?xml version="1.0" encoding="UTF-8" standalone="no"?>
<!DOCTYPE svg PUBLIC "-//W3C//DTD SVG 1.0//EN"
 "http://www.w3.org/TR/2001/REC-SVG-20010904/DTD/svg10.dtd" [
 <!ATTLIST svg xmlns:xlink CDATA #FIXED "http://www.w3.org/1999/xlink">
]>
<!-- Generated by Graphviz version 2.20.2 (Tue Mar &#160;2 19:03:41 UTC 2010)
     For user: (jenkins)  -->
<!-- Title: G Pages: 1 -->
<svg width="1974pt" height="476pt"
 viewBox="0.00 0.00 1974.00 476.00" xmlns="http://www.w3.org/2000/svg" xmlns:xlink="http://www.w3.org/1999/xlink">
<g id="graph0" class="graph" transform="scale(1 1) rotate(0) translate(4 472)">
<title>G</title>
<polygon style="fill:white;stroke:white;" points="-4,4 -4,-472 1970,-472 1970,4 -4,4"/>
<!-- Node1 -->
<g id="node1" class="node"><title>Node1</title>
<polygon style="fill:#bfbfbf;stroke:black;" points="810,-448 810,-468 963,-468 963,-448 810,-448"/>
<text text-anchor="middle" x="886" y="-455" style="font-family:Arial;font-size:10.00;">ltr/scorers/one_feature_scorer.h</text>
</g>
<!-- Node2 -->
<g id="node3" class="node"><title>Node2</title>
<polygon style="fill:white;stroke:#bfbfbf;" points="817,-0 817,-20 857,-20 857,-0 817,-0"/>
<text text-anchor="middle" x="837" y="-7" style="font-family:Arial;font-size:10.00;">string</text>
</g>
<!-- Node1&#45;&gt;Node2 -->
<g id="edge2" class="edge"><title>Node1&#45;&gt;Node2</title>
<path style="fill:none;stroke:midnightblue;" d="M810,-456C595,-450 0,-427 0,-346 0,-346 0,-346 0,-122 0,-81 26,-73 62,-56 131,-24 672,-13 807,-10"/>
<polygon style="fill:midnightblue;stroke:midnightblue;" points="807,-13.5001 817,-10 807,-6.5001 807,-13.5001"/>
</g>
<!-- Node3 -->
<g id="node5" class="node"><title>Node3</title>
<a xlink:href="scorer_8h.html" target="_top" xlink:title="ltr/scorers/scorer.h">
<polygon style="fill:white;stroke:black;" points="1353,-392 1353,-412 1450,-412 1450,-392 1353,-392"/>
<text text-anchor="middle" x="1401" y="-399" style="font-family:Arial;font-size:10.00;">ltr/scorers/scorer.h</text>
</a>
</g>
<!-- Node1&#45;&gt;Node3 -->
<g id="edge4" class="edge"><title>Node1&#45;&gt;Node3</title>
<path style="fill:none;stroke:midnightblue;" d="M963,-450C1067,-438 1249,-419 1343,-408"/>
<polygon style="fill:midnightblue;stroke:midnightblue;" points="1343.4,-411.478 1353,-407 1342.7,-404.512 1343.4,-411.478"/>
</g>
<!-- Node16 -->
<g id="node37" class="node"><title>Node16</title>
<a xlink:href="feature__converter_8h.html" target="_top" xlink:title="ltr/feature_converters/feature_converter.h">
<polygon style="fill:white;stroke:black;" points="791,-336 791,-356 981,-356 981,-336 791,-336"/>
<text text-anchor="middle" x="886" y="-343" style="font-family:Arial;font-size:10.00;">ltr/feature_converters/feature_converter.h</text>
</a>
</g>
<!-- Node1&#45;&gt;Node16 -->
<g id="edge184" class="edge"><title>Node1&#45;&gt;Node16</title>
<path style="fill:none;stroke:midnightblue;" d="M886,-448C886,-429 886,-390 886,-366"/>
<polygon style="fill:midnightblue;stroke:midnightblue;" points="889.5,-366 886,-356 882.5,-366 889.5,-366"/>
</g>
<!-- Node3&#45;&gt;Node2 -->
<g id="edge10" class="edge"><title>Node3&#45;&gt;Node2</title>
<path style="fill:none;stroke:midnightblue;" d="M1395,-392C1365,-344 1231,-138 1059,-56 995,-25 911,-15 867,-12"/>
<polygon style="fill:midnightblue;stroke:midnightblue;" points="867.299,-8.5125 857,-11 866.602,-15.4778 867.299,-8.5125"/>
</g>
<!-- Node4 -->
<g id="node7" class="node"><title>Node4</title>
<polygon style="fill:white;stroke:#bfbfbf;" points="1710,-112 1710,-132 1824,-132 1824,-112 1710,-112"/>
<text text-anchor="middle" x="1767" y="-119" style="font-family:Arial;font-size:10.00;">boost/lexical_cast.hpp</text>
</g>
<!-- Node3&#45;&gt;Node4 -->
<g id="edge6" class="edge"><title>Node3&#45;&gt;Node4</title>
<path style="fill:none;stroke:midnightblue;" d="M1450,-393C1530,-376 1680,-338 1680,-290 1680,-290 1680,-290 1680,-234 1680,-193 1717,-157 1743,-138"/>
<polygon style="fill:midnightblue;stroke:midnightblue;" points="1745.1,-140.8 1751,-132 1740.9,-135.2 1745.1,-140.8"/>
</g>
<!-- Node5 -->
<g id="node9" class="node"><title>Node5</title>
<polygon style="fill:white;stroke:#bfbfbf;" points="715,-56 715,-76 757,-76 757,-56 715,-56"/>
<text text-anchor="middle" x="736" y="-63" style="font-family:Arial;font-size:10.00;">vector</text>
</g>
<!-- Node3&#45;&gt;Node5 -->
<g id="edge8" class="edge"><title>Node3&#45;&gt;Node5</title>
<path style="fill:none;stroke:midnightblue;" d="M1353,-400C1217,-394 835,-375 782,-356 712,-329 689,-311 656,-244 645,-221 649,-213 646,-188 643,-152 648,-139 670,-112 680,-99 695,-89 707,-81"/>
<polygon style="fill:midnightblue;stroke:midnightblue;" points="708.958,-83.916 716,-76 705.559,-77.7969 708.958,-83.916"/>
</g>
<!-- Node6 -->
<g id="node12" class="node"><title>Node6</title>
<a xlink:href="aliaser_8h.html" target="_top" xlink:title="ltr/interfaces/aliaser.h">
<polygon style="fill:white;stroke:black;" points="1322,-112 1322,-132 1430,-132 1430,-112 1322,-112"/>
<text text-anchor="middle" x="1376" y="-119" style="font-family:Arial;font-size:10.00;">ltr/interfaces/aliaser.h</text>
</a>
</g>
<!-- Node3&#45;&gt;Node6 -->
<g id="edge12" class="edge"><title>Node3&#45;&gt;Node6</title>
<path style="fill:none;stroke:midnightblue;" d="M1404,-392C1409,-372 1420,-328 1420,-290 1420,-290 1420,-290 1420,-234 1420,-199 1402,-162 1389,-140"/>
<polygon style="fill:midnightblue;stroke:midnightblue;" points="1391.8,-137.9 1383,-132 1386.2,-142.1 1391.8,-137.9"/>
</g>
<!-- Node7 -->
<g id="node15" class="node"><title>Node7</title>
<a xlink:href="object_8h.html" target="_top" xlink:title="ltr/data/object.h">
<polygon style="fill:white;stroke:black;" points="916,-112 916,-132 1000,-132 1000,-112 916,-112"/>
<text text-anchor="middle" x="958" y="-119" style="font-family:Arial;font-size:10.00;">ltr/data/object.h</text>
</a>
</g>
<!-- Node3&#45;&gt;Node7 -->
<g id="edge16" class="edge"><title>Node3&#45;&gt;Node7</title>
<path style="fill:none;stroke:midnightblue;" d="M1385,-392C1319,-350 1063,-189 983,-137"/>
<polygon style="fill:midnightblue;stroke:midnightblue;" points="984.441,-133.797 974,-132 981.042,-139.916 984.441,-133.797"/>
</g>
<!-- Node11 -->
<g id="node25" class="node"><title>Node11</title>
<a xlink:href="printable_8h.html" target="_top" xlink:title="ltr/interfaces/printable.h">
<polygon style="fill:white;stroke:black;" points="900,-56 900,-76 1017,-76 1017,-56 900,-56"/>
<text text-anchor="middle" x="958" y="-63" style="font-family:Arial;font-size:10.00;">ltr/interfaces/printable.h</text>
</a>
</g>
<!-- Node3&#45;&gt;Node11 -->
<g id="edge180" class="edge"><title>Node3&#45;&gt;Node11</title>
<path style="fill:none;stroke:midnightblue;" d="M1410,-392C1426,-373 1458,-331 1458,-290 1458,-290 1458,-290 1458,-178 1458,-147 1462,-131 1439,-112 1408,-86 1153,-73 1027,-68"/>
<polygon style="fill:midnightblue;stroke:midnightblue;" points="1027,-64.5001 1017,-68 1027,-71.5001 1027,-64.5001"/>
</g>
<!-- Node12 -->
<g id="node29" class="node"><title>Node12</title>
<a xlink:href="shared__ptr_8h.html" target="_top" xlink:title="ltr/utility/shared_ptr.h">
<polygon style="fill:white;stroke:black;" points="1562,-56 1562,-76 1669,-76 1669,-56 1562,-56"/>
<text text-anchor="middle" x="1615" y="-63" style="font-family:Arial;font-size:10.00;">ltr/utility/shared_ptr.h</text>
</a>
</g>
<!-- Node3&#45;&gt;Node12 -->
<g id="edge182" class="edge"><title>Node3&#45;&gt;Node12</title>
<path style="fill:none;stroke:midnightblue;" d="M1450,-397C1588,-384 1966,-342 1966,-290 1966,-290 1966,-290 1966,-178 1966,-118 1781,-86 1679,-73"/>
<polygon style="fill:midnightblue;stroke:midnightblue;" points="1679.3,-69.5125 1669,-72 1678.6,-76.4778 1679.3,-69.5125"/>
</g>
<!-- Node3&#45;&gt;Node16 -->
<g id="edge42" class="edge"><title>Node3&#45;&gt;Node16</title>
<path style="fill:none;stroke:midnightblue;" d="M1353,-397C1270,-388 1098,-369 988,-357"/>
<polygon style="fill:midnightblue;stroke:midnightblue;" points="988.299,-353.512 978,-356 987.602,-360.478 988.299,-353.512"/>
</g>
<!-- Node31 -->
<g id="node113" class="node"><title>Node31</title>
<a xlink:href="serializable__functor_8h.html" target="_top" xlink:title="ltr/interfaces/serializable_functor.h">
<polygon style="fill:white;stroke:black;" points="1708,-224 1708,-244 1871,-244 1871,-224 1708,-224"/>
<text text-anchor="middle" x="1789" y="-231" style="font-family:Arial;font-size:10.00;">ltr/interfaces/serializable_functor.h</text>
</a>
</g>
<!-- Node3&#45;&gt;Node31 -->
<g id="edge164" class="edge"><title>Node3&#45;&gt;Node31</title>
<path style="fill:none;stroke:midnightblue;" d="M1450,-399C1522,-393 1653,-379 1694,-356 1736,-331 1766,-281 1780,-253"/>
<polygon style="fill:midnightblue;stroke:midnightblue;" points="1783.14,-254.56 1784,-244 1776.74,-251.717 1783.14,-254.56"/>
</g>
<!-- Node6&#45;&gt;Node2 -->
<g id="edge14" class="edge"><title>Node6&#45;&gt;Node2</title>
<path style="fill:none;stroke:midnightblue;" d="M1371,-112C1362,-97 1343,-68 1319,-56 1279,-35 967,-17 867,-12"/>
<polygon style="fill:midnightblue;stroke:midnightblue;" points="867.299,-8.5125 857,-11 866.602,-15.4778 867.299,-8.5125"/>
</g>
<!-- Node7&#45;&gt;Node2 -->
<g id="edge24" class="edge"><title>Node7&#45;&gt;Node2</title>
<path style="fill:none;stroke:midnightblue;" d="M941,-112C926,-103 906,-90 891,-76 875,-61 860,-42 850,-28"/>
<polygon style="fill:midnightblue;stroke:midnightblue;" points="852.8,-25.9 844,-20 847.2,-30.1 852.8,-25.9"/>
</g>
<!-- Node7&#45;&gt;Node5 -->
<g id="edge26" class="edge"><title>Node7&#45;&gt;Node5</title>
<path style="fill:none;stroke:midnightblue;" d="M918,-112C875,-101 806,-84 767,-74"/>
<polygon style="fill:midnightblue;stroke:midnightblue;" points="767.584,-70.5212 757,-71 765.573,-77.2259 767.584,-70.5212"/>
</g>
<!-- Node8 -->
<g id="node17" class="node"><title>Node8</title>
<polygon style="fill:white;stroke:#bfbfbf;" points="648,-56 648,-76 683,-76 683,-56 648,-56"/>
<text text-anchor="middle" x="665" y="-63" style="font-family:Arial;font-size:10.00;">map</text>
</g>
<!-- Node7&#45;&gt;Node8 -->
<g id="edge18" class="edge"><title>Node7&#45;&gt;Node8</title>
<path style="fill:none;stroke:midnightblue;" d="M916,-115C866,-106 780,-91 706,-76 702,-75 697,-74 693,-73"/>
<polygon style="fill:midnightblue;stroke:midnightblue;" points="693.492,-69.5292 683,-71 692.119,-76.3933 693.492,-69.5292"/>
</g>
<!-- Node9 -->
<g id="node19" class="node"><title>Node9</title>
<polygon style="fill:white;stroke:#bfbfbf;" points="1123,-0 1123,-20 1174,-20 1174,-0 1123,-0"/>
<text text-anchor="middle" x="1148" y="-7" style="font-family:Arial;font-size:10.00;">ostream</text>
</g>
<!-- Node7&#45;&gt;Node9 -->
<g id="edge20" class="edge"><title>Node7&#45;&gt;Node9</title>
<path style="fill:none;stroke:midnightblue;" d="M1000,-114C1005,-113 1009,-113 1014,-112 1081,-101 1273,-127 1319,-76 1359,-31 1246,-17 1184,-12"/>
<polygon style="fill:midnightblue;stroke:midnightblue;" points="1184.3,-8.5125 1174,-11 1183.6,-15.4778 1184.3,-8.5125"/>
</g>
<!-- Node10 -->
<g id="node21" class="node"><title>Node10</title>
<polygon style="fill:white;stroke:#bfbfbf;" points="556,-56 556,-76 615,-76 615,-56 556,-56"/>
<text text-anchor="middle" x="585" y="-63" style="font-family:Arial;font-size:10.00;">stdexcept</text>
</g>
<!-- Node7&#45;&gt;Node10 -->
<g id="edge22" class="edge"><title>Node7&#45;&gt;Node10</title>
<path style="fill:none;stroke:midnightblue;" d="M916,-116C855,-108 738,-92 639,-76 634,-75 630,-75 625,-74"/>
<polygon style="fill:midnightblue;stroke:midnightblue;" points="625.492,-70.5292 615,-72 624.119,-77.3933 625.492,-70.5292"/>
</g>
<!-- Node7&#45;&gt;Node11 -->
<g id="edge28" class="edge"><title>Node7&#45;&gt;Node11</title>
<path style="fill:none;stroke:midnightblue;" d="M958,-112C958,-105 958,-95 958,-86"/>
<polygon style="fill:midnightblue;stroke:midnightblue;" points="961.5,-86 958,-76 954.5,-86 961.5,-86"/>
</g>
<!-- Node7&#45;&gt;Node12 -->
<g id="edge34" class="edge"><title>Node7&#45;&gt;Node12</title>
<path style="fill:none;stroke:midnightblue;" d="M1000,-114C1005,-113 1009,-113 1014,-112 1209,-87 1441,-74 1552,-68"/>
<polygon style="fill:midnightblue;stroke:midnightblue;" points="1552,-71.5001 1562,-68 1552,-64.5001 1552,-71.5001"/>
</g>
<!-- Node11&#45;&gt;Node2 -->
<g id="edge32" class="edge"><title>Node11&#45;&gt;Node2</title>
<path style="fill:none;stroke:midnightblue;" d="M936,-56C917,-47 888,-34 866,-23"/>
<polygon style="fill:midnightblue;stroke:midnightblue;" points="867.56,-19.8631 857,-19 864.717,-26.2598 867.56,-19.8631"/>
</g>
<!-- Node11&#45;&gt;Node9 -->
<g id="edge30" class="edge"><title>Node11&#45;&gt;Node9</title>
<path style="fill:none;stroke:midnightblue;" d="M992,-56C1027,-46 1079,-30 1113,-20"/>
<polygon style="fill:midnightblue;stroke:midnightblue;" points="1114.43,-23.2259 1123,-17 1112.42,-16.5212 1114.43,-23.2259"/>
</g>
<!-- Node13 -->
<g id="node31" class="node"><title>Node13</title>
<polygon style="fill:white;stroke:#bfbfbf;" points="1488,-0 1488,-20 1544,-20 1544,-0 1488,-0"/>
<text text-anchor="middle" x="1516" y="-7" style="font-family:Arial;font-size:10.00;">algorithm</text>
</g>
<!-- Node12&#45;&gt;Node13 -->
<g id="edge36" class="edge"><title>Node12&#45;&gt;Node13</title>
<path style="fill:none;stroke:midnightblue;" d="M1597,-56C1582,-48 1560,-35 1543,-25"/>
<polygon style="fill:midnightblue;stroke:midnightblue;" points="1544.44,-21.7969 1534,-20 1541.04,-27.916 1544.44,-21.7969"/>
</g>
<!-- Node14 -->
<g id="node33" class="node"><title>Node14</title>
<polygon style="fill:white;stroke:#bfbfbf;" points="1562,-0 1562,-20 1669,-20 1669,-0 1562,-0"/>
<text text-anchor="middle" x="1615" y="-7" style="font-family:Arial;font-size:10.00;">boost/shared_ptr.hpp</text>
</g>
<!-- Node12&#45;&gt;Node14 -->
<g id="edge38" class="edge"><title>Node12&#45;&gt;Node14</title>
<path style="fill:none;stroke:midnightblue;" d="M1615,-56C1615,-49 1615,-39 1615,-30"/>
<polygon style="fill:midnightblue;stroke:midnightblue;" points="1618.5,-30 1615,-20 1611.5,-30 1618.5,-30"/>
</g>
<!-- Node15 -->
<g id="node35" class="node"><title>Node15</title>
<polygon style="fill:white;stroke:#bfbfbf;" points="1686,-0 1686,-20 1877,-20 1877,-0 1686,-0"/>
<text text-anchor="middle" x="1781" y="-7" style="font-family:Arial;font-size:10.00;">boost/smart_ptr/detail/operator_bool.hpp</text>
</g>
<!-- Node12&#45;&gt;Node15 -->
<g id="edge40" class="edge"><title>Node12&#45;&gt;Node15</title>
<path style="fill:none;stroke:midnightblue;" d="M1645,-56C1672,-47 1712,-33 1741,-23"/>
<polygon style="fill:midnightblue;stroke:midnightblue;" points="1742.43,-26.2259 1751,-20 1740.42,-19.5212 1742.43,-26.2259"/>
</g>
<!-- Node16&#45;&gt;Node2 -->
<g id="edge46" class="edge"><title>Node16&#45;&gt;Node2</title>
<path style="fill:none;stroke:midnightblue;" d="M791,-343C569,-336 38,-309 38,-234 38,-234 38,-234 38,-122 38,-69 87,-72 136,-56 200,-34 681,-15 807,-11"/>
<polygon style="fill:midnightblue;stroke:midnightblue;" points="807,-14.5001 817,-11 807,-7.5001 807,-14.5001"/>
</g>
<!-- Node16&#45;&gt;Node5 -->
<g id="edge44" class="edge"><title>Node16&#45;&gt;Node5</title>
<path style="fill:none;stroke:midnightblue;" d="M849,-336C785,-317 660,-276 660,-234 660,-234 660,-234 660,-178 660,-138 693,-103 715,-83"/>
<polygon style="fill:midnightblue;stroke:midnightblue;" points="717.779,-85.2191 723,-76 713.169,-79.9511 717.779,-85.2191"/>
</g>
<!-- Node16&#45;&gt;Node6 -->
<g id="edge160" class="edge"><title>Node16&#45;&gt;Node6</title>
<path style="fill:none;stroke:midnightblue;" d="M926,-336C1001,-316 1171,-265 1297,-188 1319,-174 1342,-154 1357,-139"/>
<polygon style="fill:midnightblue;stroke:midnightblue;" points="1359.78,-141.219 1365,-132 1355.17,-135.951 1359.78,-141.219"/>
</g>
<!-- Node16&#45;&gt;Node7 -->
<g id="edge140" class="edge"><title>Node16&#45;&gt;Node7</title>
<path style="fill:none;stroke:midnightblue;" d="M889,-336C900,-301 937,-188 952,-142"/>
<polygon style="fill:midnightblue;stroke:midnightblue;" points="955.479,-142.584 955,-132 948.774,-140.573 955.479,-142.584"/>
</g>
<!-- Node16&#45;&gt;Node10 -->
<g id="edge48" class="edge"><title>Node16&#45;&gt;Node10</title>
<path style="fill:none;stroke:midnightblue;" d="M791,-338C615,-323 254,-286 216,-244 178,-200 171,-155 209,-112 254,-61 443,-84 509,-76 521,-74 534,-72 546,-71"/>
<polygon style="fill:midnightblue;stroke:midnightblue;" points="546.398,-74.4778 556,-70 545.701,-67.5125 546.398,-74.4778"/>
</g>
<!-- Node16&#45;&gt;Node12 -->
<g id="edge162" class="edge"><title>Node16&#45;&gt;Node12</title>
<path style="fill:none;stroke:midnightblue;" d="M981,-339C1160,-322 1535,-279 1623,-188 1646,-163 1647,-145 1639,-112 1636,-103 1632,-93 1627,-85"/>
<polygon style="fill:midnightblue;stroke:midnightblue;" points="1629.92,-83.0418 1622,-76 1623.8,-86.4414 1629.92,-83.0418"/>
</g>
<!-- Node17 -->
<g id="node42" class="node"><title>Node17</title>
<a xlink:href="data__set_8h.html" target="_top" xlink:title="ltr/data/data_set.h">
<polygon style="fill:white;stroke:black;" points="794,-280 794,-300 889,-300 889,-280 794,-280"/>
<text text-anchor="middle" x="841" y="-287" style="font-family:Arial;font-size:10.00;">ltr/data/data_set.h</text>
</a>
</g>
<!-- Node16&#45;&gt;Node17 -->
<g id="edge50" class="edge"><title>Node16&#45;&gt;Node17</title>
<path style="fill:none;stroke:midnightblue;" d="M878,-336C872,-328 863,-318 855,-308"/>
<polygon style="fill:midnightblue;stroke:midnightblue;" points="857.8,-305.9 849,-300 852.2,-310.1 857.8,-305.9"/>
</g>
<!-- Node21 -->
<g id="node66" class="node"><title>Node21</title>
<a xlink:href="feature__info_8h.html" target="_top" xlink:title="ltr/data/feature_info.h">
<polygon style="fill:white;stroke:black;" points="450,-224 450,-244 557,-244 557,-224 450,-224"/>
<text text-anchor="middle" x="503" y="-231" style="font-family:Arial;font-size:10.00;">ltr/data/feature_info.h</text>
</a>
</g>
<!-- Node16&#45;&gt;Node21 -->
<g id="edge138" class="edge"><title>Node16&#45;&gt;Node21</title>
<path style="fill:none;stroke:midnightblue;" d="M809,-336C761,-329 699,-317 646,-300 605,-287 559,-264 531,-249"/>
<polygon style="fill:midnightblue;stroke:midnightblue;" points="532.441,-245.797 522,-244 529.042,-251.916 532.441,-245.797"/>
</g>
<!-- Node22 -->
<g id="node71" class="node"><title>Node22</title>
<a xlink:href="parameterized_8h.html" target="_top" xlink:title="ltr/interfaces/parameterized.h">
<polygon style="fill:white;stroke:black;" points="338,-168 338,-188 480,-188 480,-168 338,-168"/>
<text text-anchor="middle" x="409" y="-175" style="font-family:Arial;font-size:10.00;">ltr/interfaces/parameterized.h</text>
</a>
</g>
<!-- Node16&#45;&gt;Node22 -->
<g id="edge144" class="edge"><title>Node16&#45;&gt;Node22</title>
<path style="fill:none;stroke:midnightblue;" d="M799,-336C685,-321 493,-290 441,-244 427,-232 419,-213 414,-198"/>
<polygon style="fill:midnightblue;stroke:midnightblue;" points="417.226,-196.573 411,-188 410.521,-198.584 417.226,-196.573"/>
</g>
<!-- Node28 -->
<g id="node90" class="node"><title>Node28</title>
<a xlink:href="per__object__accessor_8h.html" target="_top" xlink:title="ltr/data/per_object_accessor.h">
<polygon style="fill:white;stroke:black;" points="960,-224 960,-244 1107,-244 1107,-224 960,-224"/>
<text text-anchor="middle" x="1033" y="-231" style="font-family:Arial;font-size:10.00;">ltr/data/per_object_accessor.h</text>
</a>
</g>
<!-- Node16&#45;&gt;Node28 -->
<g id="edge142" class="edge"><title>Node16&#45;&gt;Node28</title>
<path style="fill:none;stroke:midnightblue;" d="M899,-336C925,-316 980,-274 1011,-250"/>
<polygon style="fill:midnightblue;stroke:midnightblue;" points="1013.1,-252.8 1019,-244 1008.9,-247.2 1013.1,-252.8"/>
</g>
<!-- Node29 -->
<g id="node102" class="node"><title>Node29</title>
<a xlink:href="serializable_8h.html" target="_top" xlink:title="ltr/interfaces/serializable.h">
<polygon style="fill:white;stroke:black;" points="1486,-168 1486,-188 1615,-188 1615,-168 1486,-168"/>
<text text-anchor="middle" x="1550" y="-175" style="font-family:Arial;font-size:10.00;">ltr/interfaces/serializable.h</text>
</a>
</g>
<!-- Node16&#45;&gt;Node29 -->
<g id="edge146" class="edge"><title>Node16&#45;&gt;Node29</title>
<path style="fill:none;stroke:midnightblue;" d="M981,-341C1054,-335 1157,-323 1244,-300 1266,-294 1270,-288 1292,-280 1371,-247 1464,-211 1515,-192"/>
<polygon style="fill:midnightblue;stroke:midnightblue;" points="1516.28,-195.26 1524,-188 1513.44,-188.863 1516.28,-195.26"/>
</g>
<!-- Node17&#45;&gt;Node2 -->
<g id="edge56" class="edge"><title>Node17&#45;&gt;Node2</title>
<path style="fill:none;stroke:midnightblue;" d="M794,-288C633,-279 114,-246 114,-178 114,-178 114,-178 114,-122 114,-76 150,-73 192,-56 249,-32 686,-15 807,-11"/>
<polygon style="fill:midnightblue;stroke:midnightblue;" points="807,-14.5001 817,-11 807,-7.5001 807,-14.5001"/>
</g>
<!-- Node17&#45;&gt;Node5 -->
<g id="edge58" class="edge"><title>Node17&#45;&gt;Node5</title>
<path style="fill:none;stroke:midnightblue;" d="M829,-280C810,-263 773,-227 755,-188 740,-155 737,-112 736,-86"/>
<polygon style="fill:midnightblue;stroke:midnightblue;" points="739.5,-86 736,-76 732.5,-86 739.5,-86"/>
</g>
<!-- Node17&#45;&gt;Node6 -->
<g id="edge136" class="edge"><title>Node17&#45;&gt;Node6</title>
<path style="fill:none;stroke:midnightblue;" d="M889,-286C947,-279 1047,-267 1131,-244 1195,-226 1210,-218 1270,-188 1300,-172 1332,-152 1353,-138"/>
<polygon style="fill:midnightblue;stroke:midnightblue;" points="1355.1,-140.8 1361,-132 1350.9,-135.2 1355.1,-140.8"/>
</g>
<!-- Node17&#45;&gt;Node7 -->
<g id="edge60" class="edge"><title>Node17&#45;&gt;Node7</title>
<path style="fill:none;stroke:midnightblue;" d="M849,-280C856,-271 867,-257 875,-244 896,-211 895,-199 918,-168 925,-158 933,-148 941,-139"/>
<polygon style="fill:midnightblue;stroke:midnightblue;" points="943.404,-141.546 948,-132 938.454,-136.596 943.404,-141.546"/>
</g>
<!-- Node17&#45;&gt;Node10 -->
<g id="edge54" class="edge"><title>Node17&#45;&gt;Node10</title>
<path style="fill:none;stroke:midnightblue;" d="M817,-280C770,-259 666,-207 608,-132 599,-119 592,-100 589,-86"/>
<polygon style="fill:midnightblue;stroke:midnightblue;" points="592.393,-85.1194 587,-76 585.529,-86.4922 592.393,-85.1194"/>
</g>
<!-- Node18 -->
<g id="node44" class="node"><title>Node18</title>
<polygon style="fill:white;stroke:#bfbfbf;" points="816,-224 816,-244 867,-244 867,-224 816,-224"/>
<text text-anchor="middle" x="841" y="-231" style="font-family:Arial;font-size:10.00;">sstream</text>
</g>
<!-- Node17&#45;&gt;Node18 -->
<g id="edge52" class="edge"><title>Node17&#45;&gt;Node18</title>
<path style="fill:none;stroke:midnightblue;" d="M841,-280C841,-273 841,-263 841,-254"/>
<polygon style="fill:midnightblue;stroke:midnightblue;" points="844.5,-254 841,-244 837.5,-254 844.5,-254"/>
</g>
<!-- Node19 -->
<g id="node50" class="node"><title>Node19</title>
<a xlink:href="object__list_8h.html" target="_top" xlink:title="ltr/data/object_list.h">
<polygon style="fill:white;stroke:black;" points="764,-168 764,-188 866,-188 866,-168 764,-168"/>
<text text-anchor="middle" x="815" y="-175" style="font-family:Arial;font-size:10.00;">ltr/data/object_list.h</text>
</a>
</g>
<!-- Node17&#45;&gt;Node19 -->
<g id="edge62" class="edge"><title>Node17&#45;&gt;Node19</title>
<path style="fill:none;stroke:midnightblue;" d="M830,-280C822,-271 812,-258 807,-244 802,-229 805,-211 808,-198"/>
<polygon style="fill:midnightblue;stroke:midnightblue;" points="811.479,-198.584 811,-188 804.774,-196.573 811.479,-198.584"/>
</g>
<!-- Node20 -->
<g id="node58" class="node"><title>Node20</title>
<a xlink:href="object__pair_8h.html" target="_top" xlink:title="ltr/data/object_pair.h">
<polygon style="fill:white;stroke:black;" points="1082,-168 1082,-188 1186,-188 1186,-168 1082,-168"/>
<text text-anchor="middle" x="1134" y="-175" style="font-family:Arial;font-size:10.00;">ltr/data/object_pair.h</text>
</a>
</g>
<!-- Node17&#45;&gt;Node20 -->
<g id="edge76" class="edge"><title>Node17&#45;&gt;Node20</title>
<path style="fill:none;stroke:midnightblue;" d="M889,-288C959,-284 1082,-273 1115,-244 1127,-232 1132,-213 1133,-198"/>
<polygon style="fill:midnightblue;stroke:midnightblue;" points="1136.49,-198.299 1134,-188 1129.52,-197.602 1136.49,-198.299"/>
</g>
<!-- Node17&#45;&gt;Node21 -->
<g id="edge90" class="edge"><title>Node17&#45;&gt;Node21</title>
<path style="fill:none;stroke:midnightblue;" d="M794,-282C735,-272 634,-256 567,-245"/>
<polygon style="fill:midnightblue;stroke:midnightblue;" points="567.492,-241.529 557,-243 566.119,-248.393 567.492,-241.529"/>
</g>
<!-- Node17&#45;&gt;Node28 -->
<g id="edge124" class="edge"><title>Node17&#45;&gt;Node28</title>
<path style="fill:none;stroke:midnightblue;" d="M875,-280C907,-271 954,-257 989,-247"/>
<polygon style="fill:midnightblue;stroke:midnightblue;" points="990.427,-250.226 999,-244 988.416,-243.521 990.427,-250.226"/>
</g>
<!-- Node19&#45;&gt;Node2 -->
<g id="edge66" class="edge"><title>Node19&#45;&gt;Node2</title>
<path style="fill:none;stroke:midnightblue;" d="M816,-168C820,-141 830,-67 835,-30"/>
<polygon style="fill:midnightblue;stroke:midnightblue;" points="838.488,-30.2987 836,-20 831.522,-29.6021 838.488,-30.2987"/>
</g>
<!-- Node19&#45;&gt;Node5 -->
<g id="edge68" class="edge"><title>Node19&#45;&gt;Node5</title>
<path style="fill:none;stroke:midnightblue;" d="M808,-168C795,-148 766,-109 749,-84"/>
<polygon style="fill:midnightblue;stroke:midnightblue;" points="751.8,-81.9 743,-76 746.2,-86.1 751.8,-81.9"/>
</g>
<!-- Node19&#45;&gt;Node7 -->
<g id="edge70" class="edge"><title>Node19&#45;&gt;Node7</title>
<path style="fill:none;stroke:midnightblue;" d="M841,-168C864,-159 897,-146 922,-136"/>
<polygon style="fill:midnightblue;stroke:midnightblue;" points="924.015,-138.964 932,-132 921.415,-132.464 924.015,-138.964"/>
</g>
<!-- Node19&#45;&gt;Node10 -->
<g id="edge64" class="edge"><title>Node19&#45;&gt;Node10</title>
<path style="fill:none;stroke:midnightblue;" d="M794,-168C754,-147 663,-103 615,-80"/>
<polygon style="fill:midnightblue;stroke:midnightblue;" points="616.56,-76.8631 606,-76 613.717,-83.2598 616.56,-76.8631"/>
</g>
<!-- Node19&#45;&gt;Node11 -->
<g id="edge72" class="edge"><title>Node19&#45;&gt;Node11</title>
<path style="fill:none;stroke:midnightblue;" d="M828,-168C853,-148 907,-106 937,-83"/>
<polygon style="fill:midnightblue;stroke:midnightblue;" points="939.779,-85.2191 945,-76 935.169,-79.9511 939.779,-85.2191"/>
</g>
<!-- Node19&#45;&gt;Node12 -->
<g id="edge74" class="edge"><title>Node19&#45;&gt;Node12</title>
<path style="fill:none;stroke:midnightblue;" d="M865,-168C937,-154 1074,-128 1192,-112 1319,-94 1468,-79 1552,-72"/>
<polygon style="fill:midnightblue;stroke:midnightblue;" points="1552.4,-75.4778 1562,-71 1551.7,-68.5125 1552.4,-75.4778"/>
</g>
<!-- Node20&#45;&gt;Node2 -->
<g id="edge80" class="edge"><title>Node20&#45;&gt;Node2</title>
<path style="fill:none;stroke:midnightblue;" d="M1131,-168C1127,-154 1118,-129 1104,-112 1076,-78 1064,-73 1025,-56 972,-31 905,-19 867,-14"/>
<polygon style="fill:midnightblue;stroke:midnightblue;" points="867.492,-10.5292 857,-12 866.119,-17.3933 867.492,-10.5292"/>
</g>
<!-- Node20&#45;&gt;Node5 -->
<g id="edge82" class="edge"><title>Node20&#45;&gt;Node5</title>
<path style="fill:none;stroke:midnightblue;" d="M1119,-168C1096,-153 1051,-126 1009,-112 924,-83 819,-72 767,-68"/>
<polygon style="fill:midnightblue;stroke:midnightblue;" points="767.299,-64.5125 757,-67 766.602,-71.4778 767.299,-64.5125"/>
</g>
<!-- Node20&#45;&gt;Node7 -->
<g id="edge84" class="edge"><title>Node20&#45;&gt;Node7</title>
<path style="fill:none;stroke:midnightblue;" d="M1103,-168C1074,-159 1031,-145 1000,-135"/>
<polygon style="fill:midnightblue;stroke:midnightblue;" points="1000.58,-131.521 990,-132 998.573,-138.226 1000.58,-131.521"/>
</g>
<!-- Node20&#45;&gt;Node10 -->
<g id="edge78" class="edge"><title>Node20&#45;&gt;Node10</title>
<path style="fill:none;stroke:midnightblue;" d="M1085,-168C1038,-159 968,-144 907,-132 806,-111 686,-87 625,-74"/>
<polygon style="fill:midnightblue;stroke:midnightblue;" points="625.492,-70.5292 615,-72 624.119,-77.3933 625.492,-70.5292"/>
</g>
<!-- Node20&#45;&gt;Node11 -->
<g id="edge86" class="edge"><title>Node20&#45;&gt;Node11</title>
<path style="fill:none;stroke:midnightblue;" d="M1128,-168C1119,-153 1101,-127 1080,-112 1059,-97 1033,-86 1010,-79"/>
<polygon style="fill:midnightblue;stroke:midnightblue;" points="1010.58,-75.5212 1000,-76 1008.57,-82.2259 1010.58,-75.5212"/>
</g>
<!-- Node20&#45;&gt;Node12 -->
<g id="edge88" class="edge"><title>Node20&#45;&gt;Node12</title>
<path style="fill:none;stroke:midnightblue;" d="M1146,-168C1165,-153 1204,-125 1242,-112 1297,-92 1460,-77 1552,-71"/>
<polygon style="fill:midnightblue;stroke:midnightblue;" points="1552.4,-74.4778 1562,-70 1551.7,-67.5125 1552.4,-74.4778"/>
</g>
<!-- Node21&#45;&gt;Node2 -->
<g id="edge94" class="edge"><title>Node21&#45;&gt;Node2</title>
<path style="fill:none;stroke:midnightblue;" d="M450,-224C371,-208 228,-174 200,-132 190,-116 187,-74 206,-56 228,-35 684,-16 807,-11"/>
<polygon style="fill:midnightblue;stroke:midnightblue;" points="807,-14.5001 817,-11 807,-7.5001 807,-14.5001"/>
</g>
<!-- Node21&#45;&gt;Node5 -->
<g id="edge96" class="edge"><title>Node21&#45;&gt;Node5</title>
<path style="fill:none;stroke:midnightblue;" d="M511,-224C534,-196 597,-120 608,-112 638,-91 678,-79 705,-72"/>
<polygon style="fill:midnightblue;stroke:midnightblue;" points="705.881,-75.3933 715,-70 704.508,-68.5292 705.881,-75.3933"/>
</g>
<!-- Node21&#45;&gt;Node8 -->
<g id="edge92" class="edge"><title>Node21&#45;&gt;Node8</title>
<path style="fill:none;stroke:midnightblue;" d="M506,-224C514,-201 536,-145 570,-112 590,-93 618,-81 638,-74"/>
<polygon style="fill:midnightblue;stroke:midnightblue;" points="639.427,-77.2259 648,-71 637.416,-70.5212 639.427,-77.2259"/>
</g>
<!-- Node21&#45;&gt;Node12 -->
<g id="edge122" class="edge"><title>Node21&#45;&gt;Node12</title>
<path style="fill:none;stroke:midnightblue;" d="M557,-232C710,-228 1137,-213 1195,-188 1241,-168 1233,-133 1279,-112 1326,-90 1468,-76 1552,-70"/>
<polygon style="fill:midnightblue;stroke:midnightblue;" points="1552.4,-73.4778 1562,-69 1551.7,-66.5125 1552.4,-73.4778"/>
</g>
<!-- Node21&#45;&gt;Node22 -->
<g id="edge98" class="edge"><title>Node21&#45;&gt;Node22</title>
<path style="fill:none;stroke:midnightblue;" d="M486,-224C472,-216 451,-203 435,-193"/>
<polygon style="fill:midnightblue;stroke:midnightblue;" points="436.441,-189.797 426,-188 433.042,-195.916 436.441,-189.797"/>
</g>
<!-- Node22&#45;&gt;Node2 -->
<g id="edge102" class="edge"><title>Node22&#45;&gt;Node2</title>
<path style="fill:none;stroke:midnightblue;" d="M338,-171C287,-164 225,-152 209,-132 195,-114 204,-72 223,-56 269,-17 689,-11 807,-10"/>
<polygon style="fill:midnightblue;stroke:midnightblue;" points="807,-13.5001 817,-10 807,-6.5001 807,-13.5001"/>
</g>
<!-- Node22&#45;&gt;Node10 -->
<g id="edge100" class="edge"><title>Node22&#45;&gt;Node10</title>
<path style="fill:none;stroke:midnightblue;" d="M420,-168C436,-154 466,-129 494,-112 513,-100 535,-89 553,-81"/>
<polygon style="fill:midnightblue;stroke:midnightblue;" points="554.958,-83.916 562,-76 551.559,-77.7969 554.958,-83.916"/>
</g>
<!-- Node23 -->
<g id="node75" class="node"><title>Node23</title>
<a xlink:href="parameters__container_8h.html" target="_top" xlink:title="ltr/parameters_container/parameters_container.h">
<polygon style="fill:white;stroke:black;" points="218,-112 218,-132 443,-132 443,-112 218,-112"/>
<text text-anchor="middle" x="330" y="-119" style="font-family:Arial;font-size:10.00;">ltr/parameters_container/parameters_container.h</text>
</a>
</g>
<!-- Node22&#45;&gt;Node23 -->
<g id="edge104" class="edge"><title>Node22&#45;&gt;Node23</title>
<path style="fill:none;stroke:midnightblue;" d="M395,-168C383,-160 366,-147 352,-138"/>
<polygon style="fill:midnightblue;stroke:midnightblue;" points="354.1,-135.2 344,-132 349.9,-140.8 354.1,-135.2"/>
</g>
<!-- Node23&#45;&gt;Node2 -->
<g id="edge112" class="edge"><title>Node23&#45;&gt;Node2</title>
<path style="fill:none;stroke:midnightblue;" d="M381,-112C418,-104 467,-92 509,-76 527,-69 529,-62 547,-56 639,-25 753,-14 807,-11"/>
<polygon style="fill:midnightblue;stroke:midnightblue;" points="807,-14.5001 817,-11 807,-7.5001 807,-14.5001"/>
</g>
<!-- Node23&#45;&gt;Node10 -->
<g id="edge110" class="edge"><title>Node23&#45;&gt;Node10</title>
<path style="fill:none;stroke:midnightblue;" d="M377,-112C420,-103 485,-89 542,-76 543,-76 545,-75 546,-75"/>
<polygon style="fill:midnightblue;stroke:midnightblue;" points="546.881,-78.3933 556,-73 545.508,-71.5292 546.881,-78.3933"/>
</g>
<!-- Node23&#45;&gt;Node11 -->
<g id="edge120" class="edge"><title>Node23&#45;&gt;Node11</title>
<path style="fill:none;stroke:midnightblue;" d="M442,-112C573,-100 782,-81 890,-72"/>
<polygon style="fill:midnightblue;stroke:midnightblue;" points="890.398,-75.4778 900,-71 889.701,-68.5125 890.398,-75.4778"/>
</g>
<!-- Node23&#45;&gt;Node12 -->
<g id="edge118" class="edge"><title>Node23&#45;&gt;Node12</title>
<path style="fill:none;stroke:midnightblue;" d="M443,-117C705,-105 1348,-78 1552,-68"/>
<polygon style="fill:midnightblue;stroke:midnightblue;" points="1552,-71.5001 1562,-68 1552,-64.5001 1552,-71.5001"/>
</g>
<!-- Node24 -->
<g id="node77" class="node"><title>Node24</title>
<polygon style="fill:white;stroke:#bfbfbf;" points="1236,-56 1236,-76 1310,-76 1310,-56 1236,-56"/>
<text text-anchor="middle" x="1273" y="-63" style="font-family:Arial;font-size:10.00;">logog/logog.h</text>
</g>
<!-- Node23&#45;&gt;Node24 -->
<g id="edge106" class="edge"><title>Node23&#45;&gt;Node24</title>
<path style="fill:none;stroke:midnightblue;" d="M443,-115C651,-102 1082,-77 1226,-69"/>
<polygon style="fill:midnightblue;stroke:midnightblue;" points="1226.4,-72.4778 1236,-68 1225.7,-65.5125 1226.4,-72.4778"/>
</g>
<!-- Node25 -->
<g id="node79" class="node"><title>Node25</title>
<polygon style="fill:white;stroke:#bfbfbf;" points="232,-56 232,-76 261,-76 261,-56 232,-56"/>
<text text-anchor="middle" x="246" y="-63" style="font-family:Arial;font-size:10.00;">list</text>
</g>
<!-- Node23&#45;&gt;Node25 -->
<g id="edge108" class="edge"><title>Node23&#45;&gt;Node25</title>
<path style="fill:none;stroke:midnightblue;" d="M315,-112C303,-104 285,-91 270,-82"/>
<polygon style="fill:midnightblue;stroke:midnightblue;" points="271.262,-78.6349 261,-76 267.379,-84.4592 271.262,-78.6349"/>
</g>
<!-- Node26 -->
<g id="node83" class="node"><title>Node26</title>
<polygon style="fill:white;stroke:#bfbfbf;" points="278,-56 278,-76 355,-76 355,-56 278,-56"/>
<text text-anchor="middle" x="316" y="-63" style="font-family:Arial;font-size:10.00;">boost/any.hpp</text>
</g>
<!-- Node23&#45;&gt;Node26 -->
<g id="edge114" class="edge"><title>Node23&#45;&gt;Node26</title>
<path style="fill:none;stroke:midnightblue;" d="M327,-112C325,-105 323,-95 320,-86"/>
<polygon style="fill:midnightblue;stroke:midnightblue;" points="323.393,-85.1194 318,-76 316.529,-86.4922 323.393,-85.1194"/>
</g>
<!-- Node27 -->
<g id="node85" class="node"><title>Node27</title>
<polygon style="fill:white;stroke:#bfbfbf;" points="372,-56 372,-76 501,-76 501,-56 372,-56"/>
<text text-anchor="middle" x="436" y="-63" style="font-family:Arial;font-size:10.00;">boost/unordered_map.hpp</text>
</g>
<!-- Node23&#45;&gt;Node27 -->
<g id="edge116" class="edge"><title>Node23&#45;&gt;Node27</title>
<path style="fill:none;stroke:midnightblue;" d="M349,-112C365,-103 389,-90 408,-81"/>
<polygon style="fill:midnightblue;stroke:midnightblue;" points="409.958,-83.916 417,-76 406.559,-77.7969 409.958,-83.916"/>
</g>
<!-- Node28&#45;&gt;Node7 -->
<g id="edge126" class="edge"><title>Node28&#45;&gt;Node7</title>
<path style="fill:none;stroke:midnightblue;" d="M1026,-224C1014,-204 986,-165 970,-140"/>
<polygon style="fill:midnightblue;stroke:midnightblue;" points="973.268,-138.625 965,-132 967.332,-142.335 973.268,-138.625"/>
</g>
<!-- Node28&#45;&gt;Node12 -->
<g id="edge134" class="edge"><title>Node28&#45;&gt;Node12</title>
<path style="fill:none;stroke:midnightblue;" d="M1091,-224C1140,-215 1207,-201 1232,-188 1275,-164 1268,-133 1313,-112 1354,-92 1476,-78 1552,-71"/>
<polygon style="fill:midnightblue;stroke:midnightblue;" points="1552.4,-74.4778 1562,-70 1551.7,-67.5125 1552.4,-74.4778"/>
</g>
<!-- Node28&#45;&gt;Node19 -->
<g id="edge130" class="edge"><title>Node28&#45;&gt;Node19</title>
<path style="fill:none;stroke:midnightblue;" d="M994,-224C957,-215 903,-201 864,-191"/>
<polygon style="fill:midnightblue;stroke:midnightblue;" points="864.584,-187.521 854,-188 862.573,-194.226 864.584,-187.521"/>
</g>
<!-- Node28&#45;&gt;Node20 -->
<g id="edge128" class="edge"><title>Node28&#45;&gt;Node20</title>
<path style="fill:none;stroke:midnightblue;" d="M1051,-224C1066,-215 1089,-203 1107,-193"/>
<polygon style="fill:midnightblue;stroke:midnightblue;" points="1108.96,-195.916 1116,-188 1105.56,-189.797 1108.96,-195.916"/>
</g>
<!-- Node28&#45;&gt;Node22 -->
<g id="edge132" class="edge"><title>Node28&#45;&gt;Node22</title>
<path style="fill:none;stroke:midnightblue;" d="M960,-227C842,-217 613,-196 490,-185"/>
<polygon style="fill:midnightblue;stroke:midnightblue;" points="490.299,-181.512 480,-184 489.602,-188.478 490.299,-181.512"/>
</g>
<!-- Node29&#45;&gt;Node2 -->
<g id="edge152" class="edge"><title>Node29&#45;&gt;Node2</title>
<path style="fill:none;stroke:midnightblue;" d="M1545,-168C1537,-153 1521,-127 1501,-112 1442,-68 1417,-71 1346,-56 1254,-35 962,-17 867,-12"/>
<polygon style="fill:midnightblue;stroke:midnightblue;" points="867.299,-8.5125 857,-11 866.602,-15.4778 867.299,-8.5125"/>
</g>
<!-- Node29&#45;&gt;Node4 -->
<g id="edge148" class="edge"><title>Node29&#45;&gt;Node4</title>
<path style="fill:none;stroke:midnightblue;" d="M1589,-168C1625,-159 1679,-145 1718,-135"/>
<polygon style="fill:midnightblue;stroke:midnightblue;" points="1719.43,-138.226 1728,-132 1717.42,-131.521 1719.43,-138.226"/>
</g>
<!-- Node29&#45;&gt;Node6 -->
<g id="edge158" class="edge"><title>Node29&#45;&gt;Node6</title>
<path style="fill:none;stroke:midnightblue;" d="M1519,-168C1490,-159 1448,-145 1417,-135"/>
<polygon style="fill:midnightblue;stroke:midnightblue;" points="1417.58,-131.521 1407,-132 1415.57,-138.226 1417.58,-131.521"/>
</g>
<!-- Node29&#45;&gt;Node12 -->
<g id="edge156" class="edge"><title>Node29&#45;&gt;Node12</title>
<path style="fill:none;stroke:midnightblue;" d="M1580,-168C1596,-161 1615,-149 1625,-132 1633,-118 1629,-100 1624,-86"/>
<polygon style="fill:midnightblue;stroke:midnightblue;" points="1626.96,-83.9849 1620,-76 1620.46,-86.5847 1626.96,-83.9849"/>
</g>
<!-- Node29&#45;&gt;Node24 -->
<g id="edge150" class="edge"><title>Node29&#45;&gt;Node24</title>
<path style="fill:none;stroke:midnightblue;" d="M1541,-168C1527,-153 1500,-126 1472,-112 1423,-87 1362,-76 1320,-70"/>
<polygon style="fill:midnightblue;stroke:midnightblue;" points="1320.3,-66.5125 1310,-69 1319.6,-73.4778 1320.3,-66.5125"/>
</g>
<!-- Node30 -->
<g id="node107" class="node"><title>Node30</title>
<polygon style="fill:white;stroke:#bfbfbf;" points="1562,-112 1562,-132 1616,-132 1616,-112 1562,-112"/>
<text text-anchor="middle" x="1589" y="-119" style="font-family:Arial;font-size:10.00;">iostream</text>
</g>
<!-- Node29&#45;&gt;Node30 -->
<g id="edge154" class="edge"><title>Node29&#45;&gt;Node30</title>
<path style="fill:none;stroke:midnightblue;" d="M1557,-168C1562,-160 1570,-150 1576,-141"/>
<polygon style="fill:midnightblue;stroke:midnightblue;" points="1579.37,-142.262 1582,-132 1573.54,-138.379 1579.37,-142.262"/>
</g>
<!-- Node31&#45;&gt;Node12 -->
<g id="edge166" class="edge"><title>Node31&#45;&gt;Node12</title>
<path style="fill:none;stroke:midnightblue;" d="M1811,-224C1826,-216 1843,-204 1852,-188 1859,-173 1865,-131 1849,-112 1827,-86 1741,-74 1679,-70"/>
<polygon style="fill:midnightblue;stroke:midnightblue;" points="1679.3,-66.5125 1669,-69 1678.6,-73.4778 1679.3,-66.5125"/>
</g>
<!-- Node31&#45;&gt;Node29 -->
<g id="edge178" class="edge"><title>Node31&#45;&gt;Node29</title>
<path style="fill:none;stroke:midnightblue;" d="M1746,-224C1706,-215 1646,-200 1603,-190"/>
<polygon style="fill:midnightblue;stroke:midnightblue;" points="1603.49,-186.529 1593,-188 1602.12,-193.393 1603.49,-186.529"/>
</g>
<!-- Node32 -->
<g id="node116" class="node"><title>Node32</title>
<a xlink:href="functor_8h.html" target="_top" xlink:title="ltr/interfaces/functor.h">
<polygon style="fill:white;stroke:black;" points="1735,-168 1735,-188 1844,-188 1844,-168 1735,-168"/>
<text text-anchor="middle" x="1789" y="-175" style="font-family:Arial;font-size:10.00;">ltr/interfaces/functor.h</text>
</a>
</g>
<!-- Node31&#45;&gt;Node32 -->
<g id="edge168" class="edge"><title>Node31&#45;&gt;Node32</title>
<path style="fill:none;stroke:midnightblue;" d="M1789,-224C1789,-217 1789,-207 1789,-198"/>
<polygon style="fill:midnightblue;stroke:midnightblue;" points="1792.5,-198 1789,-188 1785.5,-198 1792.5,-198"/>
</g>
<!-- Node32&#45;&gt;Node2 -->
<g id="edge174" class="edge"><title>Node32&#45;&gt;Node2</title>
<path style="fill:none;stroke:midnightblue;" d="M1810,-168C1833,-155 1864,-133 1849,-112 1801,-46 1756,-70 1677,-56 1596,-40 1008,-16 867,-11"/>
<polygon style="fill:midnightblue;stroke:midnightblue;" points="867,-7.5001 857,-11 867,-14.5001 867,-7.5001"/>
</g>
<!-- Node32&#45;&gt;Node4 -->
<g id="edge172" class="edge"><title>Node32&#45;&gt;Node4</title>
<path style="fill:none;stroke:midnightblue;" d="M1785,-168C1782,-161 1778,-151 1775,-141"/>
<polygon style="fill:midnightblue;stroke:midnightblue;" points="1778.26,-139.717 1771,-132 1771.86,-142.56 1778.26,-139.717"/>
</g>
<!-- Node32&#45;&gt;Node7 -->
<g id="edge176" class="edge"><title>Node32&#45;&gt;Node7</title>
<path style="fill:none;stroke:midnightblue;" d="M1735,-174C1584,-164 1160,-135 1010,-126"/>
<polygon style="fill:midnightblue;stroke:midnightblue;" points="1010.3,-122.512 1000,-125 1009.6,-129.478 1010.3,-122.512"/>
</g>
<!-- Node32&#45;&gt;Node12 -->
<g id="edge170" class="edge"><title>Node32&#45;&gt;Node12</title>
<path style="fill:none;stroke:midnightblue;" d="M1804,-168C1822,-155 1848,-130 1833,-112 1813,-88 1736,-76 1679,-71"/>
<polygon style="fill:midnightblue;stroke:midnightblue;" points="1679.3,-67.5125 1669,-70 1678.6,-74.4778 1679.3,-67.5125"/>
</g>
</g>
</svg>
