<?xml version="1.0" encoding="UTF-8" standalone="no"?>
<!DOCTYPE svg PUBLIC "-//W3C//DTD SVG 1.0//EN"
 "http://www.w3.org/TR/2001/REC-SVG-20010904/DTD/svg10.dtd" [
 <!ATTLIST svg xmlns:xlink CDATA #FIXED "http://www.w3.org/1999/xlink">
]>
<!-- Generated by Graphviz version 2.20.2 (Tue Mar &#160;2 19:03:41 UTC 2010)
     For user: (jenkins)  -->
<!-- Title: G Pages: 1 -->
<svg width="1242pt" height="84pt"
 viewBox="0.00 0.00 1242.00 84.00" xmlns="http://www.w3.org/2000/svg" xmlns:xlink="http://www.w3.org/1999/xlink">
<g id="graph0" class="graph" transform="scale(1 1) rotate(0) translate(4 80)">
<title>G</title>
<polygon style="fill:white;stroke:white;" points="-4,4 -4,-80 1238,-80 1238,4 -4,4"/>
<!-- Node1 -->
<g id="node1" class="node"><title>Node1</title>
<polygon style="fill:#bfbfbf;stroke:black;" points="458,-56 458,-76 764,-76 764,-56 458,-56"/>
<text text-anchor="middle" x="611" y="-63" style="font-family:Arial;font-size:10.00;">ltr/predictions_aggregators/order_statistic_predictions_aggregator.h</text>
</g>
<!-- Node2 -->
<g id="node3" class="node"><title>Node2</title>
<a xlink:href="composition__learner__unittest_8cc.html" target="_top" xlink:title="ltr/learners/composition_learner/composition_learner_unittest.cc">
<polygon style="fill:white;stroke:black;" points="0,-0 0,-20 293,-20 293,-0 0,-0"/>
<text text-anchor="middle" x="146" y="-7" style="font-family:Arial;font-size:10.00;">ltr/learners/composition_learner/composition_learner_unittest.cc</text>
</a>
</g>
<!-- Node1&#45;&gt;Node2 -->
<g id="edge2" class="edge"><title>Node1&#45;&gt;Node2</title>
<path style="fill:none;stroke:midnightblue;" d="M518,-55C433,-45 310,-30 229,-20"/>
<polygon style="fill:midnightblue;stroke:midnightblue;" points="517.701,-58.4875 528,-56 518.398,-51.5222 517.701,-58.4875"/>
</g>
<!-- Node3 -->
<g id="node5" class="node"><title>Node3</title>
<a xlink:href="linear__composition__unittest_8cc.html" target="_top" xlink:title="ltr/learners/composition_learner/linear_composition_unittest.cc">
<polygon style="fill:white;stroke:black;" points="310,-0 310,-20 597,-20 597,-0 310,-0"/>
<text text-anchor="middle" x="453" y="-7" style="font-family:Arial;font-size:10.00;">ltr/learners/composition_learner/linear_composition_unittest.cc</text>
</a>
</g>
<!-- Node1&#45;&gt;Node3 -->
<g id="edge4" class="edge"><title>Node1&#45;&gt;Node3</title>
<path style="fill:none;stroke:midnightblue;" d="M573,-53C545,-43 507,-29 481,-20"/>
<polygon style="fill:midnightblue;stroke:midnightblue;" points="572.416,-56.4788 583,-56 574.427,-49.7741 572.416,-56.4788"/>
</g>
<!-- Node4 -->
<g id="node7" class="node"><title>Node4</title>
<a xlink:href="order__statistic__predictions__aggregator_8cc.html" target="_top" xlink:title="ltr/predictions_aggregators/order_statistic_predictions_aggregator.cc">
<polygon style="fill:white;stroke:black;" points="614,-0 614,-20 926,-20 926,-0 614,-0"/>
<text text-anchor="middle" x="770" y="-7" style="font-family:Arial;font-size:10.00;">ltr/predictions_aggregators/order_statistic_predictions_aggregator.cc</text>
</a>
</g>
<!-- Node1&#45;&gt;Node4 -->
<g id="edge6" class="edge"><title>Node1&#45;&gt;Node4</title>
<path style="fill:none;stroke:midnightblue;" d="M649,-53C677,-43 716,-29 741,-20"/>
<polygon style="fill:midnightblue;stroke:midnightblue;" points="647.573,-49.7741 639,-56 649.584,-56.4788 647.573,-49.7741"/>
</g>
<!-- Node5 -->
<g id="node9" class="node"><title>Node5</title>
<a xlink:href="composition__scorer__unittest_8cc.html" target="_top" xlink:title="ltr/scorers/composition_scorers/composition_scorer_unittest.cc">
<polygon style="fill:white;stroke:black;" points="944,-0 944,-20 1235,-20 1235,-0 944,-0"/>
<text text-anchor="middle" x="1089" y="-7" style="font-family:Arial;font-size:10.00;">ltr/scorers/composition_scorers/composition_scorer_unittest.cc</text>
</a>
</g>
<!-- Node1&#45;&gt;Node5 -->
<g id="edge8" class="edge"><title>Node1&#45;&gt;Node5</title>
<path style="fill:none;stroke:midnightblue;" d="M706,-55C793,-45 920,-30 1004,-20"/>
<polygon style="fill:midnightblue;stroke:midnightblue;" points="705.602,-51.5222 696,-56 706.299,-58.4875 705.602,-51.5222"/>
</g>
</g>
</svg>
