<?xml version="1.0" encoding="UTF-8" standalone="no"?>
<!DOCTYPE svg PUBLIC "-//W3C//DTD SVG 1.0//EN"
 "http://www.w3.org/TR/2001/REC-SVG-20010904/DTD/svg10.dtd" [
 <!ATTLIST svg xmlns:xlink CDATA #FIXED "http://www.w3.org/1999/xlink">
]>
<!-- Generated by Graphviz version 2.20.2 (Tue Mar &#160;2 19:03:41 UTC 2010)
     For user: (jenkins)  -->
<!-- Title: G Pages: 1 -->
<svg width="952pt" height="84pt"
 viewBox="0.00 0.00 952.00 84.00" xmlns="http://www.w3.org/2000/svg" xmlns:xlink="http://www.w3.org/1999/xlink">
<g id="graph0" class="graph" transform="scale(1 1) rotate(0) translate(4 80)">
<title>G</title>
<polygon style="fill:white;stroke:white;" points="-4,4 -4,-80 948,-80 948,4 -4,4"/>
<!-- Node1 -->
<g id="node1" class="node"><title>Node1</title>
<polygon style="fill:#bfbfbf;stroke:black;" points="90,-56 90,-76 396,-76 396,-56 90,-56"/>
<text text-anchor="middle" x="243" y="-63" style="font-family:Arial;font-size:10.00;">ltr/predictions_aggregators/order_statistic_predictions_aggregator.h</text>
</g>
<!-- Node2 -->
<g id="node3" class="node"><title>Node2</title>
<polygon style="fill:white;stroke:#bfbfbf;" points="0,-0 0,-20 42,-20 42,-0 0,-0"/>
<text text-anchor="middle" x="21" y="-7" style="font-family:Arial;font-size:10.00;">vector</text>
</g>
<!-- Node1&#45;&gt;Node2 -->
<g id="edge2" class="edge"><title>Node1&#45;&gt;Node2</title>
<path style="fill:none;stroke:midnightblue;" d="M196,-56C159,-48 106,-35 52,-20"/>
<polygon style="fill:midnightblue;stroke:midnightblue;" points="52.584,-16.5212 42,-17 50.5725,-23.2259 52.584,-16.5212"/>
</g>
<!-- Node3 -->
<g id="node5" class="node"><title>Node3</title>
<polygon style="fill:white;stroke:#bfbfbf;" points="60,-0 60,-20 100,-20 100,-0 60,-0"/>
<text text-anchor="middle" x="80" y="-7" style="font-family:Arial;font-size:10.00;">string</text>
</g>
<!-- Node1&#45;&gt;Node3 -->
<g id="edge4" class="edge"><title>Node1&#45;&gt;Node3</title>
<path style="fill:none;stroke:midnightblue;" d="M214,-56C189,-48 151,-34 110,-20"/>
<polygon style="fill:midnightblue;stroke:midnightblue;" points="110.584,-16.5212 100,-17 108.573,-23.2259 110.584,-16.5212"/>
</g>
<!-- Node4 -->
<g id="node7" class="node"><title>Node4</title>
<polygon style="fill:white;stroke:#bfbfbf;" points="118,-0 118,-20 157,-20 157,-0 118,-0"/>
<text text-anchor="middle" x="137" y="-7" style="font-family:Arial;font-size:10.00;">utility</text>
</g>
<!-- Node1&#45;&gt;Node4 -->
<g id="edge6" class="edge"><title>Node1&#45;&gt;Node4</title>
<path style="fill:none;stroke:midnightblue;" d="M224,-56C208,-47 184,-34 165,-25"/>
<polygon style="fill:midnightblue;stroke:midnightblue;" points="166.441,-21.7969 156,-20 163.042,-27.916 166.441,-21.7969"/>
</g>
<!-- Node5 -->
<g id="node9" class="node"><title>Node5</title>
<polygon style="fill:white;stroke:#bfbfbf;" points="174,-0 174,-20 230,-20 230,-0 174,-0"/>
<text text-anchor="middle" x="202" y="-7" style="font-family:Arial;font-size:10.00;">algorithm</text>
</g>
<!-- Node1&#45;&gt;Node5 -->
<g id="edge8" class="edge"><title>Node1&#45;&gt;Node5</title>
<path style="fill:none;stroke:midnightblue;" d="M236,-56C230,-48 222,-38 216,-29"/>
<polygon style="fill:midnightblue;stroke:midnightblue;" points="218.459,-26.3791 210,-20 212.635,-30.262 218.459,-26.3791"/>
</g>
<!-- Node6 -->
<g id="node11" class="node"><title>Node6</title>
<polygon style="fill:white;stroke:#bfbfbf;" points="248,-0 248,-20 322,-20 322,-0 248,-0"/>
<text text-anchor="middle" x="285" y="-7" style="font-family:Arial;font-size:10.00;">logog/logog.h</text>
</g>
<!-- Node1&#45;&gt;Node6 -->
<g id="edge10" class="edge"><title>Node1&#45;&gt;Node6</title>
<path style="fill:none;stroke:midnightblue;" d="M251,-56C257,-48 265,-38 271,-29"/>
<polygon style="fill:midnightblue;stroke:midnightblue;" points="274.365,-30.262 277,-20 268.541,-26.3791 274.365,-30.262"/>
</g>
<!-- Node7 -->
<g id="node13" class="node"><title>Node7</title>
<polygon style="fill:white;stroke:#bfbfbf;" points="340,-0 340,-20 580,-20 580,-0 340,-0"/>
<text text-anchor="middle" x="460" y="-7" style="font-family:Arial;font-size:10.00;">ltr/predictions_aggregators/predictions_aggregator.h</text>
</g>
<!-- Node1&#45;&gt;Node7 -->
<g id="edge12" class="edge"><title>Node1&#45;&gt;Node7</title>
<path style="fill:none;stroke:midnightblue;" d="M282,-56C318,-47 372,-33 411,-23"/>
<polygon style="fill:midnightblue;stroke:midnightblue;" points="412.427,-26.2259 421,-20 410.416,-19.5212 412.427,-26.2259"/>
</g>
<!-- Node8 -->
<g id="node15" class="node"><title>Node8</title>
<polygon style="fill:white;stroke:#bfbfbf;" points="598,-0 598,-20 823,-20 823,-0 598,-0"/>
<text text-anchor="middle" x="710" y="-7" style="font-family:Arial;font-size:10.00;">ltr/parameters_container/parameters_container.h</text>
</g>
<!-- Node1&#45;&gt;Node8 -->
<g id="edge14" class="edge"><title>Node1&#45;&gt;Node8</title>
<path style="fill:none;stroke:midnightblue;" d="M326,-56C408,-46 532,-31 617,-21"/>
<polygon style="fill:midnightblue;stroke:midnightblue;" points="617.398,-24.4778 627,-20 616.701,-17.5125 617.398,-24.4778"/>
</g>
<!-- Node9 -->
<g id="node17" class="node"><title>Node9</title>
<polygon style="fill:white;stroke:#bfbfbf;" points="840,-0 840,-20 944,-20 944,-0 840,-0"/>
<text text-anchor="middle" x="892" y="-7" style="font-family:Arial;font-size:10.00;">ltr/utility/numerical.h</text>
</g>
<!-- Node1&#45;&gt;Node9 -->
<g id="edge16" class="edge"><title>Node1&#45;&gt;Node9</title>
<path style="fill:none;stroke:midnightblue;" d="M396,-57C512,-50 676,-39 830,-20"/>
<polygon style="fill:midnightblue;stroke:midnightblue;" points="830.398,-23.4778 840,-19 829.701,-16.5125 830.398,-23.4778"/>
</g>
</g>
</svg>
