<?xml version="1.0" encoding="UTF-8" standalone="no"?>
<!DOCTYPE svg PUBLIC "-//W3C//DTD SVG 1.0//EN"
 "http://www.w3.org/TR/2001/REC-SVG-20010904/DTD/svg10.dtd" [
 <!ATTLIST svg xmlns:xlink CDATA #FIXED "http://www.w3.org/1999/xlink">
]>
<!-- Generated by Graphviz version 2.20.2 (Tue Mar &#160;2 19:03:41 UTC 2010)
     For user: (jenkins)  -->
<!-- Title: G Pages: 1 -->
<svg width="804pt" height="84pt"
 viewBox="0.00 0.00 804.00 84.00" xmlns="http://www.w3.org/2000/svg" xmlns:xlink="http://www.w3.org/1999/xlink">
<g id="graph0" class="graph" transform="scale(1 1) rotate(0) translate(4 80)">
<title>G</title>
<polygon style="fill:white;stroke:white;" points="-4,4 -4,-80 800,-80 800,4 -4,4"/>
<!-- Node1 -->
<g id="node1" class="node"><title>Node1</title>
<polygon style="fill:#bfbfbf;stroke:black;" points="205,-56 205,-76 412,-76 412,-56 205,-56"/>
<text text-anchor="middle" x="308" y="-63" style="font-family:Arial;font-size:10.00;">ltr/measures/pairwise_measures_unittest.cc</text>
</g>
<!-- Node2 -->
<g id="node3" class="node"><title>Node2</title>
<polygon style="fill:white;stroke:#bfbfbf;" points="0,-0 0,-20 71,-20 71,-0 0,-0"/>
<text text-anchor="middle" x="35" y="-7" style="font-family:Arial;font-size:10.00;">gtest/gtest.h</text>
</g>
<!-- Node1&#45;&gt;Node2 -->
<g id="edge2" class="edge"><title>Node1&#45;&gt;Node2</title>
<path style="fill:none;stroke:midnightblue;" d="M257,-56C213,-47 147,-34 81,-20"/>
<polygon style="fill:midnightblue;stroke:midnightblue;" points="81.4922,-16.5292 71,-18 80.1194,-23.3933 81.4922,-16.5292"/>
</g>
<!-- Node3 -->
<g id="node5" class="node"><title>Node3</title>
<polygon style="fill:white;stroke:#bfbfbf;" points="88,-0 88,-20 192,-20 192,-0 88,-0"/>
<text text-anchor="middle" x="140" y="-7" style="font-family:Arial;font-size:10.00;">ltr/utility/numerical.h</text>
</g>
<!-- Node1&#45;&gt;Node3 -->
<g id="edge4" class="edge"><title>Node1&#45;&gt;Node3</title>
<path style="fill:none;stroke:midnightblue;" d="M278,-56C251,-47 210,-33 180,-23"/>
<polygon style="fill:midnightblue;stroke:midnightblue;" points="180.584,-19.5212 170,-20 178.573,-26.2259 180.584,-19.5212"/>
</g>
<!-- Node4 -->
<g id="node7" class="node"><title>Node4</title>
<polygon style="fill:white;stroke:#bfbfbf;" points="210,-0 210,-20 294,-20 294,-0 210,-0"/>
<text text-anchor="middle" x="252" y="-7" style="font-family:Arial;font-size:10.00;">ltr/data/object.h</text>
</g>
<!-- Node1&#45;&gt;Node4 -->
<g id="edge6" class="edge"><title>Node1&#45;&gt;Node4</title>
<path style="fill:none;stroke:midnightblue;" d="M298,-56C290,-48 279,-37 269,-27"/>
<polygon style="fill:midnightblue;stroke:midnightblue;" points="271.546,-24.5962 262,-20 266.596,-29.546 271.546,-24.5962"/>
</g>
<!-- Node5 -->
<g id="node9" class="node"><title>Node5</title>
<polygon style="fill:white;stroke:#bfbfbf;" points="312,-0 312,-20 416,-20 416,-0 312,-0"/>
<text text-anchor="middle" x="364" y="-7" style="font-family:Arial;font-size:10.00;">ltr/data/object_pair.h</text>
</g>
<!-- Node1&#45;&gt;Node5 -->
<g id="edge8" class="edge"><title>Node1&#45;&gt;Node5</title>
<path style="fill:none;stroke:midnightblue;" d="M318,-56C326,-48 337,-37 347,-27"/>
<polygon style="fill:midnightblue;stroke:midnightblue;" points="349.404,-29.546 354,-20 344.454,-24.5962 349.404,-29.546"/>
</g>
<!-- Node6 -->
<g id="node11" class="node"><title>Node6</title>
<polygon style="fill:white;stroke:#bfbfbf;" points="434,-0 434,-20 659,-20 659,-0 434,-0"/>
<text text-anchor="middle" x="546" y="-7" style="font-family:Arial;font-size:10.00;">ltr/parameters_container/parameters_container.h</text>
</g>
<!-- Node1&#45;&gt;Node6 -->
<g id="edge10" class="edge"><title>Node1&#45;&gt;Node6</title>
<path style="fill:none;stroke:midnightblue;" d="M351,-56C391,-47 450,-32 493,-22"/>
<polygon style="fill:midnightblue;stroke:midnightblue;" points="493.881,-25.3933 503,-20 492.508,-18.5292 493.881,-25.3933"/>
</g>
<!-- Node7 -->
<g id="node13" class="node"><title>Node7</title>
<polygon style="fill:white;stroke:#bfbfbf;" points="676,-0 676,-20 796,-20 796,-0 676,-0"/>
<text text-anchor="middle" x="736" y="-7" style="font-family:Arial;font-size:10.00;">ltr/measures/accuracy.h</text>
</g>
<!-- Node1&#45;&gt;Node7 -->
<g id="edge12" class="edge"><title>Node1&#45;&gt;Node7</title>
<path style="fill:none;stroke:midnightblue;" d="M387,-56C458,-47 564,-34 666,-20"/>
<polygon style="fill:midnightblue;stroke:midnightblue;" points="666.398,-23.4778 676,-19 665.701,-16.5125 666.398,-23.4778"/>
</g>
</g>
</svg>
