<?xml version="1.0" encoding="UTF-8" standalone="no"?>
<!DOCTYPE svg PUBLIC "-//W3C//DTD SVG 1.0//EN"
 "http://www.w3.org/TR/2001/REC-SVG-20010904/DTD/svg10.dtd" [
 <!ATTLIST svg xmlns:xlink CDATA #FIXED "http://www.w3.org/1999/xlink">
]>
<!-- Generated by Graphviz version 2.20.2 (Tue Mar &#160;2 19:03:41 UTC 2010)
     For user: (jenkins)  -->
<!-- Title: G Pages: 1 -->
<svg width="1777pt" height="476pt"
 viewBox="0.00 0.00 1777.00 476.00" xmlns="http://www.w3.org/2000/svg" xmlns:xlink="http://www.w3.org/1999/xlink">
<g id="graph0" class="graph" transform="scale(1 1) rotate(0) translate(4 472)">
<title>G</title>
<polygon style="fill:white;stroke:white;" points="-4,4 -4,-472 1773,-472 1773,4 -4,4"/>
<!-- Node1 -->
<g id="node1" class="node"><title>Node1</title>
<polygon style="fill:#bfbfbf;stroke:black;" points="152,-448 152,-468 359,-468 359,-448 152,-448"/>
<text text-anchor="middle" x="255" y="-455" style="font-family:Arial;font-size:10.00;">ltr/measures/pairwise_measures_unittest.cc</text>
</g>
<!-- Node2 -->
<g id="node3" class="node"><title>Node2</title>
<polygon style="fill:white;stroke:#bfbfbf;" points="0,-392 0,-412 71,-412 71,-392 0,-392"/>
<text text-anchor="middle" x="35" y="-399" style="font-family:Arial;font-size:10.00;">gtest/gtest.h</text>
</g>
<!-- Node1&#45;&gt;Node2 -->
<g id="edge2" class="edge"><title>Node1&#45;&gt;Node2</title>
<path style="fill:none;stroke:midnightblue;" d="M216,-448C178,-439 121,-424 81,-413"/>
<polygon style="fill:midnightblue;stroke:midnightblue;" points="81.4922,-409.529 71,-411 80.1194,-416.393 81.4922,-409.529"/>
</g>
<!-- Node3 -->
<g id="node5" class="node"><title>Node3</title>
<a xlink:href="numerical_8h.html" target="_top" xlink:title="ltr/utility/numerical.h">
<polygon style="fill:white;stroke:black;" points="142,-280 142,-300 246,-300 246,-280 142,-280"/>
<text text-anchor="middle" x="194" y="-287" style="font-family:Arial;font-size:10.00;">ltr/utility/numerical.h</text>
</a>
</g>
<!-- Node1&#45;&gt;Node3 -->
<g id="edge4" class="edge"><title>Node1&#45;&gt;Node3</title>
<path style="fill:none;stroke:midnightblue;" d="M251,-448C241,-421 214,-345 201,-309"/>
<polygon style="fill:midnightblue;stroke:midnightblue;" points="204.483,-308.38 198,-300 197.842,-310.594 204.483,-308.38"/>
</g>
<!-- Node6 -->
<g id="node11" class="node"><title>Node6</title>
<a xlink:href="object_8h.html" target="_top" xlink:title="ltr/data/object.h">
<polygon style="fill:white;stroke:black;" points="1124,-112 1124,-132 1208,-132 1208,-112 1124,-112"/>
<text text-anchor="middle" x="1166" y="-119" style="font-family:Arial;font-size:10.00;">ltr/data/object.h</text>
</a>
</g>
<!-- Node1&#45;&gt;Node6 -->
<g id="edge10" class="edge"><title>Node1&#45;&gt;Node6</title>
<path style="fill:none;stroke:midnightblue;" d="M359,-456C599,-450 1187,-433 1383,-412 1535,-395 1722,-499 1722,-346 1722,-346 1722,-346 1722,-234 1722,-182 1357,-141 1218,-127"/>
<polygon style="fill:midnightblue;stroke:midnightblue;" points="1218.3,-123.512 1208,-126 1217.6,-130.478 1218.3,-123.512"/>
</g>
<!-- Node17 -->
<g id="node35" class="node"><title>Node17</title>
<a xlink:href="object__pair_8h.html" target="_top" xlink:title="ltr/data/object_pair.h">
<polygon style="fill:white;stroke:black;" points="1362,-168 1362,-188 1466,-188 1466,-168 1362,-168"/>
<text text-anchor="middle" x="1414" y="-175" style="font-family:Arial;font-size:10.00;">ltr/data/object_pair.h</text>
</a>
</g>
<!-- Node1&#45;&gt;Node17 -->
<g id="edge36" class="edge"><title>Node1&#45;&gt;Node17</title>
<path style="fill:none;stroke:midnightblue;" d="M359,-455C688,-446 1684,-412 1684,-346 1684,-346 1684,-346 1684,-290 1684,-245 1553,-208 1474,-190"/>
<polygon style="fill:midnightblue;stroke:midnightblue;" points="1474.49,-186.529 1464,-188 1473.12,-193.393 1474.49,-186.529"/>
</g>
<!-- Node18 -->
<g id="node43" class="node"><title>Node18</title>
<a xlink:href="parameters__container_8h.html" target="_top" xlink:title="ltr/parameters_container/parameters_container.h">
<polygon style="fill:white;stroke:black;" points="414,-112 414,-132 639,-132 639,-112 414,-112"/>
<text text-anchor="middle" x="526" y="-119" style="font-family:Arial;font-size:10.00;">ltr/parameters_container/parameters_container.h</text>
</a>
</g>
<!-- Node1&#45;&gt;Node18 -->
<g id="edge50" class="edge"><title>Node1&#45;&gt;Node18</title>
<path style="fill:none;stroke:midnightblue;" d="M258,-448C263,-428 274,-384 274,-346 274,-346 274,-346 274,-234 274,-191 398,-153 472,-134"/>
<polygon style="fill:midnightblue;stroke:midnightblue;" points="472.881,-137.393 482,-132 471.508,-130.529 472.881,-137.393"/>
</g>
<!-- Node23 -->
<g id="node57" class="node"><title>Node23</title>
<a xlink:href="accuracy_8h.html" target="_top" xlink:title="ltr/measures/accuracy.h">
<polygon style="fill:white;stroke:black;" points="88,-392 88,-412 208,-412 208,-392 88,-392"/>
<text text-anchor="middle" x="148" y="-399" style="font-family:Arial;font-size:10.00;">ltr/measures/accuracy.h</text>
</a>
</g>
<!-- Node1&#45;&gt;Node23 -->
<g id="edge68" class="edge"><title>Node1&#45;&gt;Node23</title>
<path style="fill:none;stroke:midnightblue;" d="M236,-448C220,-439 195,-426 176,-417"/>
<polygon style="fill:midnightblue;stroke:midnightblue;" points="177.441,-413.797 167,-412 174.042,-419.916 177.441,-413.797"/>
</g>
<!-- Node4 -->
<g id="node7" class="node"><title>Node4</title>
<polygon style="fill:white;stroke:#bfbfbf;" points="201,-224 201,-244 244,-244 244,-224 201,-224"/>
<text text-anchor="middle" x="222" y="-231" style="font-family:Arial;font-size:10.00;">cmath</text>
</g>
<!-- Node3&#45;&gt;Node4 -->
<g id="edge6" class="edge"><title>Node3&#45;&gt;Node4</title>
<path style="fill:none;stroke:midnightblue;" d="M199,-280C203,-273 208,-262 213,-253"/>
<polygon style="fill:midnightblue;stroke:midnightblue;" points="216.137,-254.56 217,-244 209.74,-251.717 216.137,-254.56"/>
</g>
<!-- Node5 -->
<g id="node9" class="node"><title>Node5</title>
<polygon style="fill:white;stroke:#bfbfbf;" points="145,-224 145,-244 184,-244 184,-224 145,-224"/>
<text text-anchor="middle" x="164" y="-231" style="font-family:Arial;font-size:10.00;">limits</text>
</g>
<!-- Node3&#45;&gt;Node5 -->
<g id="edge8" class="edge"><title>Node3&#45;&gt;Node5</title>
<path style="fill:none;stroke:midnightblue;" d="M189,-280C185,-273 179,-262 174,-253"/>
<polygon style="fill:midnightblue;stroke:midnightblue;" points="177.26,-251.717 170,-244 170.863,-254.56 177.26,-251.717"/>
</g>
<!-- Node7 -->
<g id="node13" class="node"><title>Node7</title>
<polygon style="fill:white;stroke:#bfbfbf;" points="1066,-56 1066,-76 1101,-76 1101,-56 1066,-56"/>
<text text-anchor="middle" x="1083" y="-63" style="font-family:Arial;font-size:10.00;">map</text>
</g>
<!-- Node6&#45;&gt;Node7 -->
<g id="edge12" class="edge"><title>Node6&#45;&gt;Node7</title>
<path style="fill:none;stroke:midnightblue;" d="M1151,-112C1139,-104 1121,-91 1106,-82"/>
<polygon style="fill:midnightblue;stroke:midnightblue;" points="1108.1,-79.2 1098,-76 1103.9,-84.8 1108.1,-79.2"/>
</g>
<!-- Node8 -->
<g id="node15" class="node"><title>Node8</title>
<polygon style="fill:white;stroke:#bfbfbf;" points="1184,-0 1184,-20 1235,-20 1235,-0 1184,-0"/>
<text text-anchor="middle" x="1209" y="-7" style="font-family:Arial;font-size:10.00;">ostream</text>
</g>
<!-- Node6&#45;&gt;Node8 -->
<g id="edge14" class="edge"><title>Node6&#45;&gt;Node8</title>
<path style="fill:none;stroke:midnightblue;" d="M1168,-112C1171,-99 1178,-75 1185,-56 1189,-47 1194,-37 1198,-29"/>
<polygon style="fill:midnightblue;stroke:midnightblue;" points="1201.2,-30.4414 1203,-20 1195.08,-27.0418 1201.2,-30.4414"/>
</g>
<!-- Node9 -->
<g id="node17" class="node"><title>Node9</title>
<polygon style="fill:white;stroke:#bfbfbf;" points="782,-56 782,-76 841,-76 841,-56 782,-56"/>
<text text-anchor="middle" x="811" y="-63" style="font-family:Arial;font-size:10.00;">stdexcept</text>
</g>
<!-- Node6&#45;&gt;Node9 -->
<g id="edge16" class="edge"><title>Node6&#45;&gt;Node9</title>
<path style="fill:none;stroke:midnightblue;" d="M1124,-115C1055,-105 919,-83 851,-73"/>
<polygon style="fill:midnightblue;stroke:midnightblue;" points="851.492,-69.5292 841,-71 850.119,-76.3933 851.492,-69.5292"/>
</g>
<!-- Node10 -->
<g id="node19" class="node"><title>Node10</title>
<polygon style="fill:white;stroke:#bfbfbf;" points="848,-0 848,-20 888,-20 888,-0 848,-0"/>
<text text-anchor="middle" x="868" y="-7" style="font-family:Arial;font-size:10.00;">string</text>
</g>
<!-- Node6&#45;&gt;Node10 -->
<g id="edge18" class="edge"><title>Node6&#45;&gt;Node10</title>
<path style="fill:none;stroke:midnightblue;" d="M1160,-112C1151,-97 1133,-69 1109,-56 1073,-35 955,-19 898,-13"/>
<polygon style="fill:midnightblue;stroke:midnightblue;" points="898.299,-9.5125 888,-12 897.602,-16.4778 898.299,-9.5125"/>
</g>
<!-- Node11 -->
<g id="node21" class="node"><title>Node11</title>
<polygon style="fill:white;stroke:#bfbfbf;" points="1328,-56 1328,-76 1370,-76 1370,-56 1328,-56"/>
<text text-anchor="middle" x="1349" y="-63" style="font-family:Arial;font-size:10.00;">vector</text>
</g>
<!-- Node6&#45;&gt;Node11 -->
<g id="edge20" class="edge"><title>Node6&#45;&gt;Node11</title>
<path style="fill:none;stroke:midnightblue;" d="M1200,-112C1230,-104 1273,-91 1318,-76"/>
<polygon style="fill:midnightblue;stroke:midnightblue;" points="1319.43,-79.2259 1328,-73 1317.42,-72.5212 1319.43,-79.2259"/>
</g>
<!-- Node12 -->
<g id="node23" class="node"><title>Node12</title>
<a xlink:href="printable_8h.html" target="_top" xlink:title="ltr/interfaces/printable.h">
<polygon style="fill:white;stroke:black;" points="1194,-56 1194,-76 1311,-76 1311,-56 1194,-56"/>
<text text-anchor="middle" x="1252" y="-63" style="font-family:Arial;font-size:10.00;">ltr/interfaces/printable.h</text>
</a>
</g>
<!-- Node6&#45;&gt;Node12 -->
<g id="edge22" class="edge"><title>Node6&#45;&gt;Node12</title>
<path style="fill:none;stroke:midnightblue;" d="M1181,-112C1194,-104 1213,-91 1228,-82"/>
<polygon style="fill:midnightblue;stroke:midnightblue;" points="1230.1,-84.8 1236,-76 1225.9,-79.2 1230.1,-84.8"/>
</g>
<!-- Node13 -->
<g id="node27" class="node"><title>Node13</title>
<a xlink:href="shared__ptr_8h.html" target="_top" xlink:title="ltr/utility/shared_ptr.h">
<polygon style="fill:white;stroke:black;" points="1492,-56 1492,-76 1599,-76 1599,-56 1492,-56"/>
<text text-anchor="middle" x="1545" y="-63" style="font-family:Arial;font-size:10.00;">ltr/utility/shared_ptr.h</text>
</a>
</g>
<!-- Node6&#45;&gt;Node13 -->
<g id="edge28" class="edge"><title>Node6&#45;&gt;Node13</title>
<path style="fill:none;stroke:midnightblue;" d="M1208,-116C1275,-105 1404,-87 1482,-75"/>
<polygon style="fill:midnightblue;stroke:midnightblue;" points="1482.4,-78.4778 1492,-74 1481.7,-71.5125 1482.4,-78.4778"/>
</g>
<!-- Node12&#45;&gt;Node8 -->
<g id="edge24" class="edge"><title>Node12&#45;&gt;Node8</title>
<path style="fill:none;stroke:midnightblue;" d="M1244,-56C1238,-48 1230,-38 1223,-28"/>
<polygon style="fill:midnightblue;stroke:midnightblue;" points="1225.8,-25.9 1217,-20 1220.2,-30.1 1225.8,-25.9"/>
</g>
<!-- Node12&#45;&gt;Node10 -->
<g id="edge26" class="edge"><title>Node12&#45;&gt;Node10</title>
<path style="fill:none;stroke:midnightblue;" d="M1194,-57C1111,-46 961,-24 898,-14"/>
<polygon style="fill:midnightblue;stroke:midnightblue;" points="898.299,-10.5125 888,-13 897.602,-17.4778 898.299,-10.5125"/>
</g>
<!-- Node14 -->
<g id="node29" class="node"><title>Node14</title>
<polygon style="fill:white;stroke:#bfbfbf;" points="1713,-0 1713,-20 1769,-20 1769,-0 1713,-0"/>
<text text-anchor="middle" x="1741" y="-7" style="font-family:Arial;font-size:10.00;">algorithm</text>
</g>
<!-- Node13&#45;&gt;Node14 -->
<g id="edge30" class="edge"><title>Node13&#45;&gt;Node14</title>
<path style="fill:none;stroke:midnightblue;" d="M1580,-56C1615,-46 1667,-31 1703,-21"/>
<polygon style="fill:midnightblue;stroke:midnightblue;" points="1704.43,-24.2259 1713,-18 1702.42,-17.5212 1704.43,-24.2259"/>
</g>
<!-- Node15 -->
<g id="node31" class="node"><title>Node15</title>
<polygon style="fill:white;stroke:#bfbfbf;" points="1344,-0 1344,-20 1451,-20 1451,-0 1344,-0"/>
<text text-anchor="middle" x="1397" y="-7" style="font-family:Arial;font-size:10.00;">boost/shared_ptr.hpp</text>
</g>
<!-- Node13&#45;&gt;Node15 -->
<g id="edge32" class="edge"><title>Node13&#45;&gt;Node15</title>
<path style="fill:none;stroke:midnightblue;" d="M1519,-56C1495,-47 1460,-34 1434,-24"/>
<polygon style="fill:midnightblue;stroke:midnightblue;" points="1434.58,-20.4643 1424,-20 1431.98,-26.9636 1434.58,-20.4643"/>
</g>
<!-- Node16 -->
<g id="node33" class="node"><title>Node16</title>
<polygon style="fill:white;stroke:#bfbfbf;" points="1468,-0 1468,-20 1659,-20 1659,-0 1468,-0"/>
<text text-anchor="middle" x="1563" y="-7" style="font-family:Arial;font-size:10.00;">boost/smart_ptr/detail/operator_bool.hpp</text>
</g>
<!-- Node13&#45;&gt;Node16 -->
<g id="edge34" class="edge"><title>Node13&#45;&gt;Node16</title>
<path style="fill:none;stroke:midnightblue;" d="M1548,-56C1550,-49 1553,-39 1557,-29"/>
<polygon style="fill:midnightblue;stroke:midnightblue;" points="1560.16,-30.5937 1560,-20 1553.52,-28.38 1560.16,-30.5937"/>
</g>
<!-- Node17&#45;&gt;Node6 -->
<g id="edge44" class="edge"><title>Node17&#45;&gt;Node6</title>
<path style="fill:none;stroke:midnightblue;" d="M1370,-168C1327,-159 1263,-144 1218,-134"/>
<polygon style="fill:midnightblue;stroke:midnightblue;" points="1218.49,-130.529 1208,-132 1217.12,-137.393 1218.49,-130.529"/>
</g>
<!-- Node17&#45;&gt;Node9 -->
<g id="edge38" class="edge"><title>Node17&#45;&gt;Node9</title>
<path style="fill:none;stroke:midnightblue;" d="M1362,-171C1302,-163 1201,-148 1115,-132 1077,-124 1068,-120 1030,-112 968,-98 895,-83 851,-74"/>
<polygon style="fill:midnightblue;stroke:midnightblue;" points="851.492,-70.5292 841,-72 850.119,-77.3933 851.492,-70.5292"/>
</g>
<!-- Node17&#45;&gt;Node10 -->
<g id="edge40" class="edge"><title>Node17&#45;&gt;Node10</title>
<path style="fill:none;stroke:midnightblue;" d="M1415,-168C1415,-144 1414,-83 1379,-56 1341,-26 1002,-14 898,-11"/>
<polygon style="fill:midnightblue;stroke:midnightblue;" points="898,-7.5001 888,-11 898,-14.5001 898,-7.5001"/>
</g>
<!-- Node17&#45;&gt;Node11 -->
<g id="edge42" class="edge"><title>Node17&#45;&gt;Node11</title>
<path style="fill:none;stroke:midnightblue;" d="M1408,-168C1397,-149 1374,-109 1360,-85"/>
<polygon style="fill:midnightblue;stroke:midnightblue;" points="1362.92,-83.0418 1355,-76 1356.8,-86.4414 1362.92,-83.0418"/>
</g>
<!-- Node17&#45;&gt;Node12 -->
<g id="edge46" class="edge"><title>Node17&#45;&gt;Node12</title>
<path style="fill:none;stroke:midnightblue;" d="M1399,-168C1371,-148 1309,-106 1275,-82"/>
<polygon style="fill:midnightblue;stroke:midnightblue;" points="1277.1,-79.2 1267,-76 1272.9,-84.8 1277.1,-79.2"/>
</g>
<!-- Node17&#45;&gt;Node13 -->
<g id="edge48" class="edge"><title>Node17&#45;&gt;Node13</title>
<path style="fill:none;stroke:midnightblue;" d="M1429,-168C1442,-159 1462,-145 1478,-132 1496,-117 1515,-98 1528,-84"/>
<polygon style="fill:midnightblue;stroke:midnightblue;" points="1531.05,-85.8306 1535,-76 1525.78,-81.221 1531.05,-85.8306"/>
</g>
<!-- Node18&#45;&gt;Node9 -->
<g id="edge56" class="edge"><title>Node18&#45;&gt;Node9</title>
<path style="fill:none;stroke:midnightblue;" d="M577,-112C633,-101 722,-83 772,-74"/>
<polygon style="fill:midnightblue;stroke:midnightblue;" points="772.881,-77.3933 782,-72 771.508,-70.5292 772.881,-77.3933"/>
</g>
<!-- Node18&#45;&gt;Node10 -->
<g id="edge58" class="edge"><title>Node18&#45;&gt;Node10</title>
<path style="fill:none;stroke:midnightblue;" d="M426,-112C375,-103 329,-86 357,-56 390,-19 733,-12 838,-10"/>
<polygon style="fill:midnightblue;stroke:midnightblue;" points="838,-13.5001 848,-10 838,-6.5001 838,-13.5001"/>
</g>
<!-- Node18&#45;&gt;Node12 -->
<g id="edge66" class="edge"><title>Node18&#45;&gt;Node12</title>
<path style="fill:none;stroke:midnightblue;" d="M639,-113C792,-101 1059,-81 1184,-72"/>
<polygon style="fill:midnightblue;stroke:midnightblue;" points="1184.4,-75.4778 1194,-71 1183.7,-68.5125 1184.4,-75.4778"/>
</g>
<!-- Node18&#45;&gt;Node13 -->
<g id="edge64" class="edge"><title>Node18&#45;&gt;Node13</title>
<path style="fill:none;stroke:midnightblue;" d="M639,-116C803,-107 1114,-91 1379,-76 1412,-73 1450,-71 1482,-70"/>
<polygon style="fill:midnightblue;stroke:midnightblue;" points="1482.4,-73.4778 1492,-69 1481.7,-66.5125 1482.4,-73.4778"/>
</g>
<!-- Node19 -->
<g id="node45" class="node"><title>Node19</title>
<polygon style="fill:white;stroke:#bfbfbf;" points="652,-56 652,-76 726,-76 726,-56 652,-56"/>
<text text-anchor="middle" x="689" y="-63" style="font-family:Arial;font-size:10.00;">logog/logog.h</text>
</g>
<!-- Node18&#45;&gt;Node19 -->
<g id="edge52" class="edge"><title>Node18&#45;&gt;Node19</title>
<path style="fill:none;stroke:midnightblue;" d="M555,-112C582,-103 621,-89 650,-79"/>
<polygon style="fill:midnightblue;stroke:midnightblue;" points="651.427,-82.2259 660,-76 649.416,-75.5212 651.427,-82.2259"/>
</g>
<!-- Node20 -->
<g id="node47" class="node"><title>Node20</title>
<polygon style="fill:white;stroke:#bfbfbf;" points="512,-56 512,-76 541,-76 541,-56 512,-56"/>
<text text-anchor="middle" x="526" y="-63" style="font-family:Arial;font-size:10.00;">list</text>
</g>
<!-- Node18&#45;&gt;Node20 -->
<g id="edge54" class="edge"><title>Node18&#45;&gt;Node20</title>
<path style="fill:none;stroke:midnightblue;" d="M526,-112C526,-105 526,-95 526,-86"/>
<polygon style="fill:midnightblue;stroke:midnightblue;" points="529.5,-86 526,-76 522.5,-86 529.5,-86"/>
</g>
<!-- Node21 -->
<g id="node51" class="node"><title>Node21</title>
<polygon style="fill:white;stroke:#bfbfbf;" points="558,-56 558,-76 635,-76 635,-56 558,-56"/>
<text text-anchor="middle" x="596" y="-63" style="font-family:Arial;font-size:10.00;">boost/any.hpp</text>
</g>
<!-- Node18&#45;&gt;Node21 -->
<g id="edge60" class="edge"><title>Node18&#45;&gt;Node21</title>
<path style="fill:none;stroke:midnightblue;" d="M539,-112C549,-104 563,-93 575,-83"/>
<polygon style="fill:midnightblue;stroke:midnightblue;" points="577.779,-85.2191 583,-76 573.169,-79.9511 577.779,-85.2191"/>
</g>
<!-- Node22 -->
<g id="node53" class="node"><title>Node22</title>
<polygon style="fill:white;stroke:#bfbfbf;" points="366,-56 366,-76 495,-76 495,-56 366,-56"/>
<text text-anchor="middle" x="430" y="-63" style="font-family:Arial;font-size:10.00;">boost/unordered_map.hpp</text>
</g>
<!-- Node18&#45;&gt;Node22 -->
<g id="edge62" class="edge"><title>Node18&#45;&gt;Node22</title>
<path style="fill:none;stroke:midnightblue;" d="M509,-112C494,-104 473,-91 456,-81"/>
<polygon style="fill:midnightblue;stroke:midnightblue;" points="457.441,-77.7969 447,-76 454.042,-83.916 457.441,-77.7969"/>
</g>
<!-- Node23&#45;&gt;Node10 -->
<g id="edge70" class="edge"><title>Node23&#45;&gt;Node10</title>
<path style="fill:none;stroke:midnightblue;" d="M143,-392C133,-373 114,-329 114,-290 114,-290 114,-290 114,-122 114,-47 697,-18 838,-11"/>
<polygon style="fill:midnightblue;stroke:midnightblue;" points="838,-14.5001 848,-11 838,-7.5001 838,-14.5001"/>
</g>
<!-- Node24 -->
<g id="node60" class="node"><title>Node24</title>
<a xlink:href="measure_8h.html" target="_top" xlink:title="ltr/measures/measure.h">
<polygon style="fill:white;stroke:black;" points="709,-336 709,-356 828,-356 828,-336 709,-336"/>
<text text-anchor="middle" x="768" y="-343" style="font-family:Arial;font-size:10.00;">ltr/measures/measure.h</text>
</a>
</g>
<!-- Node23&#45;&gt;Node24 -->
<g id="edge72" class="edge"><title>Node23&#45;&gt;Node24</title>
<path style="fill:none;stroke:midnightblue;" d="M208,-397C324,-386 577,-363 699,-352"/>
<polygon style="fill:midnightblue;stroke:midnightblue;" points="699.398,-355.478 709,-351 698.701,-348.512 699.398,-355.478"/>
</g>
<!-- Node24&#45;&gt;Node3 -->
<g id="edge160" class="edge"><title>Node24&#45;&gt;Node3</title>
<path style="fill:none;stroke:midnightblue;" d="M709,-340C599,-329 368,-307 256,-296"/>
<polygon style="fill:midnightblue;stroke:midnightblue;" points="256.299,-292.512 246,-295 255.602,-299.478 256.299,-292.512"/>
</g>
<!-- Node24&#45;&gt;Node6 -->
<g id="edge84" class="edge"><title>Node24&#45;&gt;Node6</title>
<path style="fill:none;stroke:midnightblue;" d="M799,-336C847,-320 940,-286 1011,-244 1065,-212 1120,-165 1148,-139"/>
<polygon style="fill:midnightblue;stroke:midnightblue;" points="1150.4,-141.546 1155,-132 1145.45,-136.596 1150.4,-141.546"/>
</g>
<!-- Node24&#45;&gt;Node9 -->
<g id="edge80" class="edge"><title>Node24&#45;&gt;Node9</title>
<path style="fill:none;stroke:midnightblue;" d="M772,-336C778,-316 792,-272 792,-234 792,-234 792,-234 792,-178 792,-145 800,-108 806,-86"/>
<polygon style="fill:midnightblue;stroke:midnightblue;" points="809.471,-86.4922 808,-76 802.607,-85.1194 809.471,-86.4922"/>
</g>
<!-- Node24&#45;&gt;Node10 -->
<g id="edge82" class="edge"><title>Node24&#45;&gt;Node10</title>
<path style="fill:none;stroke:midnightblue;" d="M709,-342C651,-337 560,-325 485,-300 436,-283 417,-282 381,-244 323,-179 273,-119 331,-56 366,-17 730,-11 838,-10"/>
<polygon style="fill:midnightblue;stroke:midnightblue;" points="838,-13.5001 848,-10 838,-6.5001 838,-13.5001"/>
</g>
<!-- Node24&#45;&gt;Node12 -->
<g id="edge154" class="edge"><title>Node24&#45;&gt;Node12</title>
<path style="fill:none;stroke:midnightblue;" d="M828,-344C946,-338 1199,-324 1282,-300 1378,-271 1427,-275 1475,-188 1479,-180 1479,-175 1475,-168 1441,-115 1373,-89 1321,-77"/>
<polygon style="fill:midnightblue;stroke:midnightblue;" points="1321.49,-73.5292 1311,-75 1320.12,-80.3933 1321.49,-73.5292"/>
</g>
<!-- Node24&#45;&gt;Node13 -->
<g id="edge162" class="edge"><title>Node24&#45;&gt;Node13</title>
<path style="fill:none;stroke:midnightblue;" d="M828,-344C953,-338 1236,-324 1328,-300 1453,-267 1516,-251 1567,-132 1573,-117 1566,-98 1559,-85"/>
<polygon style="fill:midnightblue;stroke:midnightblue;" points="1561.46,-82.3791 1553,-76 1555.63,-86.262 1561.46,-82.3791"/>
</g>
<!-- Node24&#45;&gt;Node14 -->
<g id="edge78" class="edge"><title>Node24&#45;&gt;Node14</title>
<path style="fill:none;stroke:midnightblue;" d="M828,-346C1043,-343 1760,-328 1760,-234 1760,-234 1760,-234 1760,-122 1760,-89 1752,-52 1746,-30"/>
<polygon style="fill:midnightblue;stroke:midnightblue;" points="1749.39,-29.1194 1744,-20 1742.53,-30.4922 1749.39,-29.1194"/>
</g>
<!-- Node24&#45;&gt;Node17 -->
<g id="edge100" class="edge"><title>Node24&#45;&gt;Node17</title>
<path style="fill:none;stroke:midnightblue;" d="M828,-342C937,-336 1163,-319 1239,-300 1298,-284 1317,-281 1364,-244 1380,-231 1394,-211 1403,-197"/>
<polygon style="fill:midnightblue;stroke:midnightblue;" points="1406.37,-198.262 1409,-188 1400.54,-194.379 1406.37,-198.262"/>
</g>
<!-- Node24&#45;&gt;Node18 -->
<g id="edge158" class="edge"><title>Node24&#45;&gt;Node18</title>
<path style="fill:none;stroke:midnightblue;" d="M709,-341C651,-336 567,-323 545,-300 505,-256 515,-178 522,-142"/>
<polygon style="fill:midnightblue;stroke:midnightblue;" points="525.471,-142.492 524,-132 518.607,-141.119 525.471,-142.492"/>
</g>
<!-- Node24&#45;&gt;Node19 -->
<g id="edge74" class="edge"><title>Node24&#45;&gt;Node19</title>
<path style="fill:none;stroke:midnightblue;" d="M752,-336C718,-314 642,-258 613,-188 610,-179 610,-176 613,-168 622,-147 634,-149 647,-132 659,-117 670,-98 678,-85"/>
<polygon style="fill:midnightblue;stroke:midnightblue;" points="681.203,-86.4414 683,-76 675.084,-83.0418 681.203,-86.4414"/>
</g>
<!-- Node25 -->
<g id="node63" class="node"><title>Node25</title>
<polygon style="fill:white;stroke:#bfbfbf;" points="554,-280 554,-300 668,-300 668,-280 554,-280"/>
<text text-anchor="middle" x="611" y="-287" style="font-family:Arial;font-size:10.00;">boost/lexical_cast.hpp</text>
</g>
<!-- Node24&#45;&gt;Node25 -->
<g id="edge76" class="edge"><title>Node24&#45;&gt;Node25</title>
<path style="fill:none;stroke:midnightblue;" d="M740,-336C715,-327 677,-313 649,-303"/>
<polygon style="fill:midnightblue;stroke:midnightblue;" points="649.584,-299.521 639,-300 647.573,-306.226 649.584,-299.521"/>
</g>
<!-- Node26 -->
<g id="node69" class="node"><title>Node26</title>
<a xlink:href="object__list_8h.html" target="_top" xlink:title="ltr/data/object_list.h">
<polygon style="fill:white;stroke:black;" points="1202,-168 1202,-188 1304,-188 1304,-168 1202,-168"/>
<text text-anchor="middle" x="1253" y="-175" style="font-family:Arial;font-size:10.00;">ltr/data/object_list.h</text>
</a>
</g>
<!-- Node24&#45;&gt;Node26 -->
<g id="edge86" class="edge"><title>Node24&#45;&gt;Node26</title>
<path style="fill:none;stroke:midnightblue;" d="M828,-343C906,-337 1045,-325 1161,-300 1242,-282 1289,-310 1337,-244 1353,-222 1324,-203 1296,-192"/>
<polygon style="fill:midnightblue;stroke:midnightblue;" points="1296.58,-188.464 1286,-188 1293.98,-194.964 1296.58,-188.464"/>
</g>
<!-- Node27 -->
<g id="node78" class="node"><title>Node27</title>
<a xlink:href="data__set_8h.html" target="_top" xlink:title="ltr/data/data_set.h">
<polygon style="fill:white;stroke:black;" points="1058,-280 1058,-300 1153,-300 1153,-280 1058,-280"/>
<text text-anchor="middle" x="1105" y="-287" style="font-family:Arial;font-size:10.00;">ltr/data/data_set.h</text>
</a>
</g>
<!-- Node24&#45;&gt;Node27 -->
<g id="edge102" class="edge"><title>Node24&#45;&gt;Node27</title>
<path style="fill:none;stroke:midnightblue;" d="M828,-336C890,-326 987,-310 1048,-300"/>
<polygon style="fill:midnightblue;stroke:midnightblue;" points="1048.88,-303.393 1058,-298 1047.51,-296.529 1048.88,-303.393"/>
</g>
<!-- Node30 -->
<g id="node93" class="node"><title>Node30</title>
<a xlink:href="parameterized_8h.html" target="_top" xlink:title="ltr/interfaces/parameterized.h">
<polygon style="fill:white;stroke:black;" points="622,-168 622,-188 764,-188 764,-168 622,-168"/>
<text text-anchor="middle" x="693" y="-175" style="font-family:Arial;font-size:10.00;">ltr/interfaces/parameterized.h</text>
</a>
</g>
<!-- Node24&#45;&gt;Node30 -->
<g id="edge156" class="edge"><title>Node24&#45;&gt;Node30</title>
<path style="fill:none;stroke:midnightblue;" d="M764,-336C751,-309 718,-233 702,-197"/>
<polygon style="fill:midnightblue;stroke:midnightblue;" points="705.26,-195.717 698,-188 698.863,-198.56 705.26,-195.717"/>
</g>
<!-- Node32 -->
<g id="node106" class="node"><title>Node32</title>
<a xlink:href="aliaser_8h.html" target="_top" xlink:title="ltr/interfaces/aliaser.h">
<polygon style="fill:white;stroke:black;" points="390,-224 390,-244 498,-244 498,-224 390,-224"/>
<text text-anchor="middle" x="444" y="-231" style="font-family:Arial;font-size:10.00;">ltr/interfaces/aliaser.h</text>
</a>
</g>
<!-- Node24&#45;&gt;Node32 -->
<g id="edge152" class="edge"><title>Node24&#45;&gt;Node32</title>
<path style="fill:none;stroke:midnightblue;" d="M709,-339C645,-331 546,-317 512,-300 490,-288 471,-268 458,-252"/>
<polygon style="fill:midnightblue;stroke:midnightblue;" points="460.8,-249.9 452,-244 455.2,-254.1 460.8,-249.9"/>
</g>
<!-- Node26&#45;&gt;Node6 -->
<g id="edge94" class="edge"><title>Node26&#45;&gt;Node6</title>
<path style="fill:none;stroke:midnightblue;" d="M1237,-168C1224,-160 1205,-147 1190,-138"/>
<polygon style="fill:midnightblue;stroke:midnightblue;" points="1192.1,-135.2 1182,-132 1187.9,-140.8 1192.1,-135.2"/>
</g>
<!-- Node26&#45;&gt;Node9 -->
<g id="edge88" class="edge"><title>Node26&#45;&gt;Node9</title>
<path style="fill:none;stroke:midnightblue;" d="M1204,-168C1162,-159 1099,-146 1044,-132 976,-114 897,-91 851,-78"/>
<polygon style="fill:midnightblue;stroke:midnightblue;" points="851.584,-74.5212 841,-75 849.573,-81.2259 851.584,-74.5212"/>
</g>
<!-- Node26&#45;&gt;Node10 -->
<g id="edge90" class="edge"><title>Node26&#45;&gt;Node10</title>
<path style="fill:none;stroke:midnightblue;" d="M1219,-168C1191,-159 1150,-146 1115,-132 1033,-97 940,-49 895,-25"/>
<polygon style="fill:midnightblue;stroke:midnightblue;" points="896.441,-21.7969 886,-20 893.042,-27.916 896.441,-21.7969"/>
</g>
<!-- Node26&#45;&gt;Node11 -->
<g id="edge92" class="edge"><title>Node26&#45;&gt;Node11</title>
<path style="fill:none;stroke:midnightblue;" d="M1262,-168C1278,-148 1313,-108 1334,-84"/>
<polygon style="fill:midnightblue;stroke:midnightblue;" points="1336.8,-86.1 1340,-76 1331.2,-81.9 1336.8,-86.1"/>
</g>
<!-- Node26&#45;&gt;Node12 -->
<g id="edge96" class="edge"><title>Node26&#45;&gt;Node12</title>
<path style="fill:none;stroke:midnightblue;" d="M1253,-168C1253,-149 1252,-110 1252,-86"/>
<polygon style="fill:midnightblue;stroke:midnightblue;" points="1255.5,-86 1252,-76 1248.5,-86 1255.5,-86"/>
</g>
<!-- Node26&#45;&gt;Node13 -->
<g id="edge98" class="edge"><title>Node26&#45;&gt;Node13</title>
<path style="fill:none;stroke:midnightblue;" d="M1279,-168C1332,-147 1449,-102 1508,-80"/>
<polygon style="fill:midnightblue;stroke:midnightblue;" points="1510.02,-82.9636 1518,-76 1507.42,-76.4643 1510.02,-82.9636"/>
</g>
<!-- Node27&#45;&gt;Node6 -->
<g id="edge112" class="edge"><title>Node27&#45;&gt;Node6</title>
<path style="fill:none;stroke:midnightblue;" d="M1109,-280C1119,-253 1146,-177 1159,-141"/>
<polygon style="fill:midnightblue;stroke:midnightblue;" points="1162.16,-142.594 1162,-132 1155.52,-140.38 1162.16,-142.594"/>
</g>
<!-- Node27&#45;&gt;Node9 -->
<g id="edge106" class="edge"><title>Node27&#45;&gt;Node9</title>
<path style="fill:none;stroke:midnightblue;" d="M1058,-287C994,-282 883,-270 854,-244 810,-202 808,-124 809,-86"/>
<polygon style="fill:midnightblue;stroke:midnightblue;" points="812.488,-86.2987 810,-76 805.522,-85.6021 812.488,-86.2987"/>
</g>
<!-- Node27&#45;&gt;Node10 -->
<g id="edge108" class="edge"><title>Node27&#45;&gt;Node10</title>
<path style="fill:none;stroke:midnightblue;" d="M1058,-285C1001,-279 912,-266 887,-244 865,-223 868,-208 868,-178 868,-178 868,-178 868,-122 868,-89 868,-53 868,-30"/>
<polygon style="fill:midnightblue;stroke:midnightblue;" points="871.5,-30 868,-20 864.5,-30 871.5,-30"/>
</g>
<!-- Node27&#45;&gt;Node11 -->
<g id="edge110" class="edge"><title>Node27&#45;&gt;Node11</title>
<path style="fill:none;stroke:midnightblue;" d="M1153,-285C1245,-273 1441,-243 1475,-188 1504,-139 1426,-98 1379,-78"/>
<polygon style="fill:midnightblue;stroke:midnightblue;" points="1380.56,-74.8631 1370,-74 1377.72,-81.2598 1380.56,-74.8631"/>
</g>
<!-- Node27&#45;&gt;Node17 -->
<g id="edge116" class="edge"><title>Node27&#45;&gt;Node17</title>
<path style="fill:none;stroke:midnightblue;" d="M1153,-287C1202,-283 1278,-272 1337,-244 1361,-232 1384,-211 1398,-196"/>
<polygon style="fill:midnightblue;stroke:midnightblue;" points="1401.05,-197.831 1405,-188 1395.78,-193.221 1401.05,-197.831"/>
</g>
<!-- Node27&#45;&gt;Node26 -->
<g id="edge114" class="edge"><title>Node27&#45;&gt;Node26</title>
<path style="fill:none;stroke:midnightblue;" d="M1153,-286C1210,-281 1299,-269 1319,-244 1335,-225 1309,-205 1286,-193"/>
<polygon style="fill:midnightblue;stroke:midnightblue;" points="1287.44,-189.797 1277,-188 1284.04,-195.916 1287.44,-189.797"/>
</g>
<!-- Node28 -->
<g id="node80" class="node"><title>Node28</title>
<polygon style="fill:white;stroke:#bfbfbf;" points="1058,-224 1058,-244 1109,-244 1109,-224 1058,-224"/>
<text text-anchor="middle" x="1083" y="-231" style="font-family:Arial;font-size:10.00;">sstream</text>
</g>
<!-- Node27&#45;&gt;Node28 -->
<g id="edge104" class="edge"><title>Node27&#45;&gt;Node28</title>
<path style="fill:none;stroke:midnightblue;" d="M1101,-280C1098,-273 1094,-263 1091,-253"/>
<polygon style="fill:midnightblue;stroke:midnightblue;" points="1094.26,-251.717 1087,-244 1087.86,-254.56 1094.26,-251.717"/>
</g>
<!-- Node29 -->
<g id="node88" class="node"><title>Node29</title>
<a xlink:href="feature__info_8h.html" target="_top" xlink:title="ltr/data/feature_info.h">
<polygon style="fill:white;stroke:black;" points="896,-224 896,-244 1003,-244 1003,-224 896,-224"/>
<text text-anchor="middle" x="949" y="-231" style="font-family:Arial;font-size:10.00;">ltr/data/feature_info.h</text>
</a>
</g>
<!-- Node27&#45;&gt;Node29 -->
<g id="edge118" class="edge"><title>Node27&#45;&gt;Node29</title>
<path style="fill:none;stroke:midnightblue;" d="M1077,-280C1052,-271 1014,-257 987,-247"/>
<polygon style="fill:midnightblue;stroke:midnightblue;" points="987.584,-243.521 977,-244 985.573,-250.226 987.584,-243.521"/>
</g>
<!-- Node31 -->
<g id="node99" class="node"><title>Node31</title>
<a xlink:href="per__object__accessor_8h.html" target="_top" xlink:title="ltr/data/per_object_accessor.h">
<polygon style="fill:white;stroke:black;" points="1164,-224 1164,-244 1311,-244 1311,-224 1164,-224"/>
<text text-anchor="middle" x="1237" y="-231" style="font-family:Arial;font-size:10.00;">ltr/data/per_object_accessor.h</text>
</a>
</g>
<!-- Node27&#45;&gt;Node31 -->
<g id="edge136" class="edge"><title>Node27&#45;&gt;Node31</title>
<path style="fill:none;stroke:midnightblue;" d="M1129,-280C1150,-271 1180,-258 1203,-248"/>
<polygon style="fill:midnightblue;stroke:midnightblue;" points="1205.02,-250.964 1213,-244 1202.42,-244.464 1205.02,-250.964"/>
</g>
<!-- Node27&#45;&gt;Node32 -->
<g id="edge148" class="edge"><title>Node27&#45;&gt;Node32</title>
<path style="fill:none;stroke:midnightblue;" d="M1058,-286C942,-276 641,-250 508,-240"/>
<polygon style="fill:midnightblue;stroke:midnightblue;" points="508.299,-236.512 498,-239 507.602,-243.478 508.299,-236.512"/>
</g>
<!-- Node29&#45;&gt;Node7 -->
<g id="edge120" class="edge"><title>Node29&#45;&gt;Node7</title>
<path style="fill:none;stroke:midnightblue;" d="M952,-224C958,-202 975,-146 1006,-112 1020,-96 1040,-85 1057,-77"/>
<polygon style="fill:midnightblue;stroke:midnightblue;" points="1058.28,-80.2598 1066,-73 1055.44,-73.8631 1058.28,-80.2598"/>
</g>
<!-- Node29&#45;&gt;Node10 -->
<g id="edge122" class="edge"><title>Node29&#45;&gt;Node10</title>
<path style="fill:none;stroke:midnightblue;" d="M945,-224C932,-189 892,-76 875,-30"/>
<polygon style="fill:midnightblue;stroke:midnightblue;" points="878.226,-28.5725 872,-20 871.521,-30.584 878.226,-28.5725"/>
</g>
<!-- Node29&#45;&gt;Node11 -->
<g id="edge124" class="edge"><title>Node29&#45;&gt;Node11</title>
<path style="fill:none;stroke:midnightblue;" d="M961,-224C976,-211 1005,-186 1030,-168 1067,-141 1073,-128 1115,-112 1198,-78 1228,-97 1318,-75"/>
<polygon style="fill:midnightblue;stroke:midnightblue;" points="1318.88,-78.3933 1328,-73 1317.51,-71.5292 1318.88,-78.3933"/>
</g>
<!-- Node29&#45;&gt;Node13 -->
<g id="edge134" class="edge"><title>Node29&#45;&gt;Node13</title>
<path style="fill:none;stroke:midnightblue;" d="M1003,-228C1018,-227 1034,-225 1049,-224 1144,-215 1395,-239 1475,-188 1511,-164 1531,-114 1540,-86"/>
<polygon style="fill:midnightblue;stroke:midnightblue;" points="1543.48,-86.584 1543,-76 1536.77,-84.5725 1543.48,-86.584"/>
</g>
<!-- Node29&#45;&gt;Node30 -->
<g id="edge126" class="edge"><title>Node29&#45;&gt;Node30</title>
<path style="fill:none;stroke:midnightblue;" d="M903,-224C860,-215 795,-200 749,-190"/>
<polygon style="fill:midnightblue;stroke:midnightblue;" points="749.492,-186.529 739,-188 748.119,-193.393 749.492,-186.529"/>
</g>
<!-- Node30&#45;&gt;Node9 -->
<g id="edge128" class="edge"><title>Node30&#45;&gt;Node9</title>
<path style="fill:none;stroke:midnightblue;" d="M704,-168C724,-148 768,-107 793,-83"/>
<polygon style="fill:midnightblue;stroke:midnightblue;" points="795.404,-85.546 800,-76 790.454,-80.5962 795.404,-85.546"/>
</g>
<!-- Node30&#45;&gt;Node10 -->
<g id="edge130" class="edge"><title>Node30&#45;&gt;Node10</title>
<path style="fill:none;stroke:midnightblue;" d="M697,-168C708,-145 735,-89 773,-56 793,-40 818,-27 838,-19"/>
<polygon style="fill:midnightblue;stroke:midnightblue;" points="839.427,-22.2259 848,-16 837.416,-15.5212 839.427,-22.2259"/>
</g>
<!-- Node30&#45;&gt;Node18 -->
<g id="edge132" class="edge"><title>Node30&#45;&gt;Node18</title>
<path style="fill:none;stroke:midnightblue;" d="M663,-168C636,-159 595,-145 566,-135"/>
<polygon style="fill:midnightblue;stroke:midnightblue;" points="566.584,-131.521 556,-132 564.573,-138.226 566.584,-131.521"/>
</g>
<!-- Node31&#45;&gt;Node6 -->
<g id="edge138" class="edge"><title>Node31&#45;&gt;Node6</title>
<path style="fill:none;stroke:midnightblue;" d="M1225,-224C1216,-215 1202,-201 1193,-188 1183,-174 1176,-156 1172,-142"/>
<polygon style="fill:midnightblue;stroke:midnightblue;" points="1175.23,-140.573 1169,-132 1168.52,-142.584 1175.23,-140.573"/>
</g>
<!-- Node31&#45;&gt;Node13 -->
<g id="edge146" class="edge"><title>Node31&#45;&gt;Node13</title>
<path style="fill:none;stroke:midnightblue;" d="M1311,-227C1379,-220 1475,-207 1508,-188 1535,-171 1543,-162 1554,-132 1559,-117 1556,-99 1552,-86"/>
<polygon style="fill:midnightblue;stroke:midnightblue;" points="1555.23,-84.5725 1549,-76 1548.52,-86.584 1555.23,-84.5725"/>
</g>
<!-- Node31&#45;&gt;Node17 -->
<g id="edge140" class="edge"><title>Node31&#45;&gt;Node17</title>
<path style="fill:none;stroke:midnightblue;" d="M1269,-224C1298,-215 1341,-201 1372,-191"/>
<polygon style="fill:midnightblue;stroke:midnightblue;" points="1373.43,-194.226 1382,-188 1371.42,-187.521 1373.43,-194.226"/>
</g>
<!-- Node31&#45;&gt;Node26 -->
<g id="edge142" class="edge"><title>Node31&#45;&gt;Node26</title>
<path style="fill:none;stroke:midnightblue;" d="M1240,-224C1241,-217 1244,-207 1247,-198"/>
<polygon style="fill:midnightblue;stroke:midnightblue;" points="1250.48,-198.584 1250,-188 1243.77,-196.573 1250.48,-198.584"/>
</g>
<!-- Node31&#45;&gt;Node30 -->
<g id="edge144" class="edge"><title>Node31&#45;&gt;Node30</title>
<path style="fill:none;stroke:midnightblue;" d="M1164,-226C1063,-215 880,-197 774,-186"/>
<polygon style="fill:midnightblue;stroke:midnightblue;" points="774.299,-182.512 764,-185 773.602,-189.478 774.299,-182.512"/>
</g>
<!-- Node32&#45;&gt;Node10 -->
<g id="edge150" class="edge"><title>Node32&#45;&gt;Node10</title>
<path style="fill:none;stroke:midnightblue;" d="M431,-224C394,-195 297,-110 346,-56 380,-19 731,-11 838,-10"/>
<polygon style="fill:midnightblue;stroke:midnightblue;" points="838,-13.5001 848,-10 838,-6.5001 838,-13.5001"/>
</g>
</g>
</svg>
