<?xml version="1.0" encoding="UTF-8" standalone="no"?>
<!DOCTYPE svg PUBLIC "-//W3C//DTD SVG 1.0//EN"
 "http://www.w3.org/TR/2001/REC-SVG-20010904/DTD/svg10.dtd" [
 <!ATTLIST svg xmlns:xlink CDATA #FIXED "http://www.w3.org/1999/xlink">
]>
<!-- Generated by Graphviz version 2.20.2 (Tue Mar &#160;2 19:03:41 UTC 2010)
     For user: (jenkins)  -->
<!-- Title: G Pages: 1 -->
<svg width="839pt" height="252pt"
 viewBox="0.00 0.00 839.00 252.00" xmlns="http://www.w3.org/2000/svg" xmlns:xlink="http://www.w3.org/1999/xlink">
<g id="graph0" class="graph" transform="scale(1 1) rotate(0) translate(4 248)">
<title>G</title>
<polygon style="fill:white;stroke:white;" points="-4,4 -4,-248 835,-248 835,4 -4,4"/>
<!-- Node1 -->
<g id="node1" class="node"><title>Node1</title>
<polygon style="fill:#bfbfbf;stroke:black;" points="361,-224 361,-244 508,-244 508,-224 361,-224"/>
<text text-anchor="middle" x="434" y="-231" style="font-family:Arial;font-size:10.00;">ltr/interfaces/parameterized.cc</text>
</g>
<!-- Node2 -->
<g id="node3" class="node"><title>Node2</title>
<a xlink:href="parameterized_8h.html" target="_top" xlink:title="ltr/interfaces/parameterized.h">
<polygon style="fill:white;stroke:black;" points="363,-168 363,-188 505,-188 505,-168 363,-168"/>
<text text-anchor="middle" x="434" y="-175" style="font-family:Arial;font-size:10.00;">ltr/interfaces/parameterized.h</text>
</a>
</g>
<!-- Node1&#45;&gt;Node2 -->
<g id="edge2" class="edge"><title>Node1&#45;&gt;Node2</title>
<path style="fill:none;stroke:midnightblue;" d="M434,-224C434,-217 434,-207 434,-198"/>
<polygon style="fill:midnightblue;stroke:midnightblue;" points="437.5,-198 434,-188 430.5,-198 437.5,-198"/>
</g>
<!-- Node3 -->
<g id="node5" class="node"><title>Node3</title>
<polygon style="fill:white;stroke:#bfbfbf;" points="90,-56 90,-76 149,-76 149,-56 90,-56"/>
<text text-anchor="middle" x="119" y="-63" style="font-family:Arial;font-size:10.00;">stdexcept</text>
</g>
<!-- Node2&#45;&gt;Node3 -->
<g id="edge4" class="edge"><title>Node2&#45;&gt;Node3</title>
<path style="fill:none;stroke:midnightblue;" d="M406,-168C349,-147 222,-102 158,-79"/>
<polygon style="fill:midnightblue;stroke:midnightblue;" points="158.584,-75.5212 148,-76 156.573,-82.2259 158.584,-75.5212"/>
</g>
<!-- Node4 -->
<g id="node7" class="node"><title>Node4</title>
<polygon style="fill:white;stroke:#bfbfbf;" points="700,-0 700,-20 740,-20 740,-0 700,-0"/>
<text text-anchor="middle" x="720" y="-7" style="font-family:Arial;font-size:10.00;">string</text>
</g>
<!-- Node2&#45;&gt;Node4 -->
<g id="edge6" class="edge"><title>Node2&#45;&gt;Node4</title>
<path style="fill:none;stroke:midnightblue;" d="M505,-170C608,-157 791,-126 831,-76 856,-44 791,-24 750,-15"/>
<polygon style="fill:midnightblue;stroke:midnightblue;" points="750.492,-11.5292 740,-13 749.119,-18.3933 750.492,-11.5292"/>
</g>
<!-- Node5 -->
<g id="node9" class="node"><title>Node5</title>
<a xlink:href="parameters__container_8h.html" target="_top" xlink:title="ltr/parameters_container/parameters_container.h">
<polygon style="fill:white;stroke:black;" points="322,-112 322,-132 547,-132 547,-112 322,-112"/>
<text text-anchor="middle" x="434" y="-119" style="font-family:Arial;font-size:10.00;">ltr/parameters_container/parameters_container.h</text>
</a>
</g>
<!-- Node2&#45;&gt;Node5 -->
<g id="edge8" class="edge"><title>Node2&#45;&gt;Node5</title>
<path style="fill:none;stroke:midnightblue;" d="M434,-168C434,-161 434,-151 434,-142"/>
<polygon style="fill:midnightblue;stroke:midnightblue;" points="437.5,-142 434,-132 430.5,-142 437.5,-142"/>
</g>
<!-- Node5&#45;&gt;Node3 -->
<g id="edge14" class="edge"><title>Node5&#45;&gt;Node3</title>
<path style="fill:none;stroke:midnightblue;" d="M363,-112C309,-104 233,-92 159,-76"/>
<polygon style="fill:midnightblue;stroke:midnightblue;" points="159.492,-72.5292 149,-74 158.119,-79.3933 159.492,-72.5292"/>
</g>
<!-- Node5&#45;&gt;Node4 -->
<g id="edge16" class="edge"><title>Node5&#45;&gt;Node4</title>
<path style="fill:none;stroke:midnightblue;" d="M547,-114C609,-108 678,-96 701,-76 713,-64 718,-45 719,-30"/>
<polygon style="fill:midnightblue;stroke:midnightblue;" points="722.488,-30.2987 720,-20 715.522,-29.6021 722.488,-30.2987"/>
</g>
<!-- Node6 -->
<g id="node11" class="node"><title>Node6</title>
<polygon style="fill:white;stroke:#bfbfbf;" points="748,-56 748,-76 822,-76 822,-56 748,-56"/>
<text text-anchor="middle" x="785" y="-63" style="font-family:Arial;font-size:10.00;">logog/logog.h</text>
</g>
<!-- Node5&#45;&gt;Node6 -->
<g id="edge10" class="edge"><title>Node5&#45;&gt;Node6</title>
<path style="fill:none;stroke:midnightblue;" d="M504,-112C565,-103 656,-90 734,-76 735,-76 737,-75 738,-75"/>
<polygon style="fill:midnightblue;stroke:midnightblue;" points="738.881,-78.3933 748,-73 737.508,-71.5292 738.881,-78.3933"/>
</g>
<!-- Node7 -->
<g id="node13" class="node"><title>Node7</title>
<polygon style="fill:white;stroke:#bfbfbf;" points="290,-56 290,-76 319,-76 319,-56 290,-56"/>
<text text-anchor="middle" x="304" y="-63" style="font-family:Arial;font-size:10.00;">list</text>
</g>
<!-- Node5&#45;&gt;Node7 -->
<g id="edge12" class="edge"><title>Node5&#45;&gt;Node7</title>
<path style="fill:none;stroke:midnightblue;" d="M410,-112C391,-103 361,-90 328,-76"/>
<polygon style="fill:midnightblue;stroke:midnightblue;" points="329.56,-72.8631 319,-72 326.717,-79.2598 329.56,-72.8631"/>
</g>
<!-- Node8 -->
<g id="node17" class="node"><title>Node8</title>
<polygon style="fill:white;stroke:#bfbfbf;" points="336,-56 336,-76 413,-76 413,-56 336,-56"/>
<text text-anchor="middle" x="374" y="-63" style="font-family:Arial;font-size:10.00;">boost/any.hpp</text>
</g>
<!-- Node5&#45;&gt;Node8 -->
<g id="edge18" class="edge"><title>Node5&#45;&gt;Node8</title>
<path style="fill:none;stroke:midnightblue;" d="M423,-112C414,-104 402,-93 392,-83"/>
<polygon style="fill:midnightblue;stroke:midnightblue;" points="394.546,-80.5962 385,-76 389.596,-85.546 394.546,-80.5962"/>
</g>
<!-- Node9 -->
<g id="node19" class="node"><title>Node9</title>
<polygon style="fill:white;stroke:#bfbfbf;" points="430,-56 430,-76 559,-76 559,-56 430,-56"/>
<text text-anchor="middle" x="494" y="-63" style="font-family:Arial;font-size:10.00;">boost/unordered_map.hpp</text>
</g>
<!-- Node5&#45;&gt;Node9 -->
<g id="edge20" class="edge"><title>Node5&#45;&gt;Node9</title>
<path style="fill:none;stroke:midnightblue;" d="M445,-112C454,-104 466,-93 476,-83"/>
<polygon style="fill:midnightblue;stroke:midnightblue;" points="478.404,-85.546 483,-76 473.454,-80.5962 478.404,-85.546"/>
</g>
<!-- Node10 -->
<g id="node21" class="node"><title>Node10</title>
<a xlink:href="shared__ptr_8h.html" target="_top" xlink:title="ltr/utility/shared_ptr.h">
<polygon style="fill:white;stroke:black;" points="166,-56 166,-76 273,-76 273,-56 166,-56"/>
<text text-anchor="middle" x="219" y="-63" style="font-family:Arial;font-size:10.00;">ltr/utility/shared_ptr.h</text>
</a>
</g>
<!-- Node5&#45;&gt;Node10 -->
<g id="edge22" class="edge"><title>Node5&#45;&gt;Node10</title>
<path style="fill:none;stroke:midnightblue;" d="M396,-112C360,-103 307,-89 268,-79"/>
<polygon style="fill:midnightblue;stroke:midnightblue;" points="268.584,-75.5212 258,-76 266.573,-82.2259 268.584,-75.5212"/>
</g>
<!-- Node14 -->
<g id="node29" class="node"><title>Node14</title>
<a xlink:href="printable_8h.html" target="_top" xlink:title="ltr/interfaces/printable.h">
<polygon style="fill:white;stroke:black;" points="576,-56 576,-76 693,-76 693,-56 576,-56"/>
<text text-anchor="middle" x="634" y="-63" style="font-family:Arial;font-size:10.00;">ltr/interfaces/printable.h</text>
</a>
</g>
<!-- Node5&#45;&gt;Node14 -->
<g id="edge30" class="edge"><title>Node5&#45;&gt;Node14</title>
<path style="fill:none;stroke:midnightblue;" d="M470,-112C503,-103 553,-89 588,-79"/>
<polygon style="fill:midnightblue;stroke:midnightblue;" points="589.427,-82.2259 598,-76 587.416,-75.5212 589.427,-82.2259"/>
</g>
<!-- Node11 -->
<g id="node23" class="node"><title>Node11</title>
<polygon style="fill:white;stroke:#bfbfbf;" points="332,-0 332,-20 388,-20 388,-0 332,-0"/>
<text text-anchor="middle" x="360" y="-7" style="font-family:Arial;font-size:10.00;">algorithm</text>
</g>
<!-- Node10&#45;&gt;Node11 -->
<g id="edge24" class="edge"><title>Node10&#45;&gt;Node11</title>
<path style="fill:none;stroke:midnightblue;" d="M244,-56C267,-47 300,-34 325,-24"/>
<polygon style="fill:midnightblue;stroke:midnightblue;" points="327.015,-26.9636 335,-20 324.415,-20.4643 327.015,-26.9636"/>
</g>
<!-- Node12 -->
<g id="node25" class="node"><title>Node12</title>
<polygon style="fill:white;stroke:#bfbfbf;" points="0,-0 0,-20 107,-20 107,-0 0,-0"/>
<text text-anchor="middle" x="53" y="-7" style="font-family:Arial;font-size:10.00;">boost/shared_ptr.hpp</text>
</g>
<!-- Node10&#45;&gt;Node12 -->
<g id="edge26" class="edge"><title>Node10&#45;&gt;Node12</title>
<path style="fill:none;stroke:midnightblue;" d="M189,-56C162,-47 122,-33 93,-23"/>
<polygon style="fill:midnightblue;stroke:midnightblue;" points="93.584,-19.5212 83,-20 91.5725,-26.2259 93.584,-19.5212"/>
</g>
<!-- Node13 -->
<g id="node27" class="node"><title>Node13</title>
<polygon style="fill:white;stroke:#bfbfbf;" points="124,-0 124,-20 315,-20 315,-0 124,-0"/>
<text text-anchor="middle" x="219" y="-7" style="font-family:Arial;font-size:10.00;">boost/smart_ptr/detail/operator_bool.hpp</text>
</g>
<!-- Node10&#45;&gt;Node13 -->
<g id="edge28" class="edge"><title>Node10&#45;&gt;Node13</title>
<path style="fill:none;stroke:midnightblue;" d="M219,-56C219,-49 219,-39 219,-30"/>
<polygon style="fill:midnightblue;stroke:midnightblue;" points="222.5,-30 219,-20 215.5,-30 222.5,-30"/>
</g>
<!-- Node14&#45;&gt;Node4 -->
<g id="edge34" class="edge"><title>Node14&#45;&gt;Node4</title>
<path style="fill:none;stroke:midnightblue;" d="M649,-56C662,-48 681,-35 696,-26"/>
<polygon style="fill:midnightblue;stroke:midnightblue;" points="698.1,-28.8 704,-20 693.9,-23.2 698.1,-28.8"/>
</g>
<!-- Node15 -->
<g id="node31" class="node"><title>Node15</title>
<polygon style="fill:white;stroke:#bfbfbf;" points="609,-0 609,-20 660,-20 660,-0 609,-0"/>
<text text-anchor="middle" x="634" y="-7" style="font-family:Arial;font-size:10.00;">ostream</text>
</g>
<!-- Node14&#45;&gt;Node15 -->
<g id="edge32" class="edge"><title>Node14&#45;&gt;Node15</title>
<path style="fill:none;stroke:midnightblue;" d="M634,-56C634,-49 634,-39 634,-30"/>
<polygon style="fill:midnightblue;stroke:midnightblue;" points="637.5,-30 634,-20 630.5,-30 637.5,-30"/>
</g>
</g>
</svg>
