<?xml version="1.0" encoding="UTF-8" standalone="no"?>
<!DOCTYPE svg PUBLIC "-//W3C//DTD SVG 1.0//EN"
 "http://www.w3.org/TR/2001/REC-SVG-20010904/DTD/svg10.dtd" [
 <!ATTLIST svg xmlns:xlink CDATA #FIXED "http://www.w3.org/1999/xlink">
]>
<!-- Generated by Graphviz version 2.20.2 (Tue Mar &#160;2 19:03:41 UTC 2010)
     For user: (jenkins)  -->
<!-- Title: G Pages: 1 -->
<svg width="760pt" height="84pt"
 viewBox="0.00 0.00 760.00 84.00" xmlns="http://www.w3.org/2000/svg" xmlns:xlink="http://www.w3.org/1999/xlink">
<g id="graph0" class="graph" transform="scale(1 1) rotate(0) translate(4 80)">
<title>G</title>
<polygon style="fill:white;stroke:white;" points="-4,4 -4,-80 756,-80 756,4 -4,4"/>
<!-- Node1 -->
<g id="node1" class="node"><title>Node1</title>
<polygon style="fill:#bfbfbf;stroke:black;" points="160,-56 160,-76 385,-76 385,-56 160,-56"/>
<text text-anchor="middle" x="272" y="-63" style="font-family:Arial;font-size:10.00;">ltr/parameters_container/parameters_container.h</text>
</g>
<!-- Node2 -->
<g id="node3" class="node"><title>Node2</title>
<polygon style="fill:white;stroke:#bfbfbf;" points="0,-0 0,-20 74,-20 74,-0 0,-0"/>
<text text-anchor="middle" x="37" y="-7" style="font-family:Arial;font-size:10.00;">logog/logog.h</text>
</g>
<!-- Node1&#45;&gt;Node2 -->
<g id="edge2" class="edge"><title>Node1&#45;&gt;Node2</title>
<path style="fill:none;stroke:midnightblue;" d="M230,-56C189,-47 127,-31 84,-21"/>
<polygon style="fill:midnightblue;stroke:midnightblue;" points="84.4922,-17.5292 74,-19 83.1194,-24.3933 84.4922,-17.5292"/>
</g>
<!-- Node3 -->
<g id="node5" class="node"><title>Node3</title>
<polygon style="fill:white;stroke:#bfbfbf;" points="92,-0 92,-20 121,-20 121,-0 92,-0"/>
<text text-anchor="middle" x="106" y="-7" style="font-family:Arial;font-size:10.00;">list</text>
</g>
<!-- Node1&#45;&gt;Node3 -->
<g id="edge4" class="edge"><title>Node1&#45;&gt;Node3</title>
<path style="fill:none;stroke:midnightblue;" d="M238,-56C211,-48 172,-36 130,-21"/>
<polygon style="fill:midnightblue;stroke:midnightblue;" points="131.56,-17.8631 121,-17 128.717,-24.2598 131.56,-17.8631"/>
</g>
<!-- Node4 -->
<g id="node7" class="node"><title>Node4</title>
<polygon style="fill:white;stroke:#bfbfbf;" points="138,-0 138,-20 197,-20 197,-0 138,-0"/>
<text text-anchor="middle" x="167" y="-7" style="font-family:Arial;font-size:10.00;">stdexcept</text>
</g>
<!-- Node1&#45;&gt;Node4 -->
<g id="edge6" class="edge"><title>Node1&#45;&gt;Node4</title>
<path style="fill:none;stroke:midnightblue;" d="M253,-56C237,-47 213,-35 195,-25"/>
<polygon style="fill:midnightblue;stroke:midnightblue;" points="196.441,-21.7969 186,-20 193.042,-27.916 196.441,-21.7969"/>
</g>
<!-- Node5 -->
<g id="node9" class="node"><title>Node5</title>
<polygon style="fill:white;stroke:#bfbfbf;" points="214,-0 214,-20 254,-20 254,-0 214,-0"/>
<text text-anchor="middle" x="234" y="-7" style="font-family:Arial;font-size:10.00;">string</text>
</g>
<!-- Node1&#45;&gt;Node5 -->
<g id="edge8" class="edge"><title>Node1&#45;&gt;Node5</title>
<path style="fill:none;stroke:midnightblue;" d="M265,-56C260,-48 253,-38 247,-29"/>
<polygon style="fill:midnightblue;stroke:midnightblue;" points="249.459,-26.3791 241,-20 243.635,-30.262 249.459,-26.3791"/>
</g>
<!-- Node6 -->
<g id="node11" class="node"><title>Node6</title>
<polygon style="fill:white;stroke:#bfbfbf;" points="272,-0 272,-20 349,-20 349,-0 272,-0"/>
<text text-anchor="middle" x="310" y="-7" style="font-family:Arial;font-size:10.00;">boost/any.hpp</text>
</g>
<!-- Node1&#45;&gt;Node6 -->
<g id="edge10" class="edge"><title>Node1&#45;&gt;Node6</title>
<path style="fill:none;stroke:midnightblue;" d="M279,-56C284,-48 291,-38 297,-29"/>
<polygon style="fill:midnightblue;stroke:midnightblue;" points="300.365,-30.262 303,-20 294.541,-26.3791 300.365,-30.262"/>
</g>
<!-- Node7 -->
<g id="node13" class="node"><title>Node7</title>
<polygon style="fill:white;stroke:#bfbfbf;" points="366,-0 366,-20 495,-20 495,-0 366,-0"/>
<text text-anchor="middle" x="430" y="-7" style="font-family:Arial;font-size:10.00;">boost/unordered_map.hpp</text>
</g>
<!-- Node1&#45;&gt;Node7 -->
<g id="edge12" class="edge"><title>Node1&#45;&gt;Node7</title>
<path style="fill:none;stroke:midnightblue;" d="M300,-56C326,-47 364,-33 392,-23"/>
<polygon style="fill:midnightblue;stroke:midnightblue;" points="393.427,-26.2259 402,-20 391.416,-19.5212 393.427,-26.2259"/>
</g>
<!-- Node8 -->
<g id="node15" class="node"><title>Node8</title>
<polygon style="fill:white;stroke:#bfbfbf;" points="512,-0 512,-20 619,-20 619,-0 512,-0"/>
<text text-anchor="middle" x="565" y="-7" style="font-family:Arial;font-size:10.00;">ltr/utility/shared_ptr.h</text>
</g>
<!-- Node1&#45;&gt;Node8 -->
<g id="edge14" class="edge"><title>Node1&#45;&gt;Node8</title>
<path style="fill:none;stroke:midnightblue;" d="M324,-56C375,-47 450,-32 503,-22"/>
<polygon style="fill:midnightblue;stroke:midnightblue;" points="503.881,-25.3933 513,-20 502.508,-18.5292 503.881,-25.3933"/>
</g>
<!-- Node9 -->
<g id="node17" class="node"><title>Node9</title>
<polygon style="fill:white;stroke:#bfbfbf;" points="636,-0 636,-20 753,-20 753,-0 636,-0"/>
<text text-anchor="middle" x="694" y="-7" style="font-family:Arial;font-size:10.00;">ltr/interfaces/printable.h</text>
</g>
<!-- Node1&#45;&gt;Node9 -->
<g id="edge16" class="edge"><title>Node1&#45;&gt;Node9</title>
<path style="fill:none;stroke:midnightblue;" d="M351,-56C420,-47 525,-34 626,-20"/>
<polygon style="fill:midnightblue;stroke:midnightblue;" points="626.398,-23.4778 636,-19 625.701,-16.5125 626.398,-23.4778"/>
</g>
</g>
</svg>
