<?xml version="1.0" encoding="UTF-8" standalone="no"?>
<!DOCTYPE svg PUBLIC "-//W3C//DTD SVG 1.0//EN"
 "http://www.w3.org/TR/2001/REC-SVG-20010904/DTD/svg10.dtd" [
 <!ATTLIST svg xmlns:xlink CDATA #FIXED "http://www.w3.org/1999/xlink">
]>
<!-- Generated by Graphviz version 2.20.2 (Tue Mar &#160;2 19:03:41 UTC 2010)
     For user: (jenkins)  -->
<!-- Title: G Pages: 1 -->
<svg width="760pt" height="140pt"
 viewBox="0.00 0.00 760.00 140.00" xmlns="http://www.w3.org/2000/svg" xmlns:xlink="http://www.w3.org/1999/xlink">
<g id="graph0" class="graph" transform="scale(1 1) rotate(0) translate(4 136)">
<title>G</title>
<polygon style="fill:white;stroke:white;" points="-4,4 -4,-136 756,-136 756,4 -4,4"/>
<!-- Node1 -->
<g id="node1" class="node"><title>Node1</title>
<polygon style="fill:#bfbfbf;stroke:black;" points="97,-112 97,-132 239,-132 239,-112 97,-112"/>
<text text-anchor="middle" x="168" y="-119" style="font-family:Arial;font-size:10.00;">ltr/interfaces/parameterized.h</text>
</g>
<!-- Node2 -->
<g id="node3" class="node"><title>Node2</title>
<polygon style="fill:white;stroke:#bfbfbf;" points="0,-0 0,-20 59,-20 59,-0 0,-0"/>
<text text-anchor="middle" x="29" y="-7" style="font-family:Arial;font-size:10.00;">stdexcept</text>
</g>
<!-- Node1&#45;&gt;Node2 -->
<g id="edge2" class="edge"><title>Node1&#45;&gt;Node2</title>
<path style="fill:none;stroke:midnightblue;" d="M152,-112C139,-103 119,-89 103,-76 83,-60 62,-40 47,-27"/>
<polygon style="fill:midnightblue;stroke:midnightblue;" points="49.546,-24.5962 40,-20 44.5962,-29.546 49.546,-24.5962"/>
</g>
<!-- Node3 -->
<g id="node5" class="node"><title>Node3</title>
<polygon style="fill:white;stroke:#bfbfbf;" points="76,-0 76,-20 116,-20 116,-0 76,-0"/>
<text text-anchor="middle" x="96" y="-7" style="font-family:Arial;font-size:10.00;">string</text>
</g>
<!-- Node1&#45;&gt;Node3 -->
<g id="edge4" class="edge"><title>Node1&#45;&gt;Node3</title>
<path style="fill:none;stroke:midnightblue;" d="M153,-112C142,-103 127,-90 118,-76 109,-62 103,-44 100,-30"/>
<polygon style="fill:midnightblue;stroke:midnightblue;" points="103.393,-29.1194 98,-20 96.5292,-30.4922 103.393,-29.1194"/>
</g>
<!-- Node4 -->
<g id="node7" class="node"><title>Node4</title>
<a xlink:href="parameters__container_8h.html" target="_top" xlink:title="ltr/parameters_container/parameters_container.h">
<polygon style="fill:white;stroke:black;" points="127,-56 127,-76 352,-76 352,-56 127,-56"/>
<text text-anchor="middle" x="239" y="-63" style="font-family:Arial;font-size:10.00;">ltr/parameters_container/parameters_container.h</text>
</a>
</g>
<!-- Node1&#45;&gt;Node4 -->
<g id="edge6" class="edge"><title>Node1&#45;&gt;Node4</title>
<path style="fill:none;stroke:midnightblue;" d="M181,-112C192,-104 206,-92 218,-83"/>
<polygon style="fill:midnightblue;stroke:midnightblue;" points="220.779,-85.2191 226,-76 216.169,-79.9511 220.779,-85.2191"/>
</g>
<!-- Node11 -->
<g id="node23" class="node"><title>Node11</title>
<polygon style="fill:white;stroke:#bfbfbf;" points="369,-56 369,-76 594,-76 594,-56 369,-56"/>
<text text-anchor="middle" x="481" y="-63" style="font-family:Arial;font-size:10.00;">ltr/parameters_container/parameters_container.h</text>
</g>
<!-- Node1&#45;&gt;Node11 -->
<g id="edge24" class="edge"><title>Node1&#45;&gt;Node11</title>
<path style="fill:none;stroke:midnightblue;" d="M224,-112C278,-103 358,-88 415,-78"/>
<polygon style="fill:midnightblue;stroke:midnightblue;" points="415.881,-81.3933 425,-76 414.508,-74.5292 415.881,-81.3933"/>
</g>
<!-- Node4&#45;&gt;Node2 -->
<g id="edge12" class="edge"><title>Node4&#45;&gt;Node2</title>
<path style="fill:none;stroke:midnightblue;" d="M201,-56C164,-46 107,-31 69,-21"/>
<polygon style="fill:midnightblue;stroke:midnightblue;" points="69.584,-17.5212 59,-18 67.5725,-24.2259 69.584,-17.5212"/>
</g>
<!-- Node4&#45;&gt;Node3 -->
<g id="edge14" class="edge"><title>Node4&#45;&gt;Node3</title>
<path style="fill:none;stroke:midnightblue;" d="M213,-56C188,-46 152,-32 125,-22"/>
<polygon style="fill:midnightblue;stroke:midnightblue;" points="126.56,-18.8631 116,-18 123.717,-25.2598 126.56,-18.8631"/>
</g>
<!-- Node5 -->
<g id="node9" class="node"><title>Node5</title>
<polygon style="fill:white;stroke:#bfbfbf;" points="134,-0 134,-20 208,-20 208,-0 134,-0"/>
<text text-anchor="middle" x="171" y="-7" style="font-family:Arial;font-size:10.00;">logog/logog.h</text>
</g>
<!-- Node4&#45;&gt;Node5 -->
<g id="edge8" class="edge"><title>Node4&#45;&gt;Node5</title>
<path style="fill:none;stroke:midnightblue;" d="M227,-56C217,-48 203,-36 191,-27"/>
<polygon style="fill:midnightblue;stroke:midnightblue;" points="192.831,-23.9511 183,-20 188.221,-29.2191 192.831,-23.9511"/>
</g>
<!-- Node6 -->
<g id="node11" class="node"><title>Node6</title>
<polygon style="fill:white;stroke:#bfbfbf;" points="226,-0 226,-20 255,-20 255,-0 226,-0"/>
<text text-anchor="middle" x="240" y="-7" style="font-family:Arial;font-size:10.00;">list</text>
</g>
<!-- Node4&#45;&gt;Node6 -->
<g id="edge10" class="edge"><title>Node4&#45;&gt;Node6</title>
<path style="fill:none;stroke:midnightblue;" d="M239,-56C239,-49 239,-39 239,-30"/>
<polygon style="fill:midnightblue;stroke:midnightblue;" points="242.488,-30.2987 240,-20 235.522,-29.6021 242.488,-30.2987"/>
</g>
<!-- Node7 -->
<g id="node15" class="node"><title>Node7</title>
<polygon style="fill:white;stroke:#bfbfbf;" points="272,-0 272,-20 349,-20 349,-0 272,-0"/>
<text text-anchor="middle" x="310" y="-7" style="font-family:Arial;font-size:10.00;">boost/any.hpp</text>
</g>
<!-- Node4&#45;&gt;Node7 -->
<g id="edge16" class="edge"><title>Node4&#45;&gt;Node7</title>
<path style="fill:none;stroke:midnightblue;" d="M252,-56C263,-48 277,-36 289,-27"/>
<polygon style="fill:midnightblue;stroke:midnightblue;" points="291.779,-29.2191 297,-20 287.169,-23.9511 291.779,-29.2191"/>
</g>
<!-- Node8 -->
<g id="node17" class="node"><title>Node8</title>
<polygon style="fill:white;stroke:#bfbfbf;" points="366,-0 366,-20 495,-20 495,-0 366,-0"/>
<text text-anchor="middle" x="430" y="-7" style="font-family:Arial;font-size:10.00;">boost/unordered_map.hpp</text>
</g>
<!-- Node4&#45;&gt;Node8 -->
<g id="edge18" class="edge"><title>Node4&#45;&gt;Node8</title>
<path style="fill:none;stroke:midnightblue;" d="M273,-56C305,-47 352,-33 386,-23"/>
<polygon style="fill:midnightblue;stroke:midnightblue;" points="387.427,-26.2259 396,-20 385.416,-19.5212 387.427,-26.2259"/>
</g>
<!-- Node9 -->
<g id="node19" class="node"><title>Node9</title>
<polygon style="fill:white;stroke:#bfbfbf;" points="512,-0 512,-20 619,-20 619,-0 512,-0"/>
<text text-anchor="middle" x="565" y="-7" style="font-family:Arial;font-size:10.00;">ltr/utility/shared_ptr.h</text>
</g>
<!-- Node4&#45;&gt;Node9 -->
<g id="edge20" class="edge"><title>Node4&#45;&gt;Node9</title>
<path style="fill:none;stroke:midnightblue;" d="M297,-56C355,-47 443,-31 502,-21"/>
<polygon style="fill:midnightblue;stroke:midnightblue;" points="502.881,-24.3933 512,-19 501.508,-17.5292 502.881,-24.3933"/>
</g>
<!-- Node10 -->
<g id="node21" class="node"><title>Node10</title>
<polygon style="fill:white;stroke:#bfbfbf;" points="636,-0 636,-20 753,-20 753,-0 636,-0"/>
<text text-anchor="middle" x="694" y="-7" style="font-family:Arial;font-size:10.00;">ltr/interfaces/printable.h</text>
</g>
<!-- Node4&#45;&gt;Node10 -->
<g id="edge22" class="edge"><title>Node4&#45;&gt;Node10</title>
<path style="fill:none;stroke:midnightblue;" d="M330,-56C406,-47 518,-35 626,-20"/>
<polygon style="fill:midnightblue;stroke:midnightblue;" points="626.398,-23.4778 636,-19 625.701,-16.5125 626.398,-23.4778"/>
</g>
</g>
</svg>
