<?xml version="1.0" encoding="UTF-8" standalone="no"?>
<!DOCTYPE svg PUBLIC "-//W3C//DTD SVG 1.0//EN"
 "http://www.w3.org/TR/2001/REC-SVG-20010904/DTD/svg10.dtd" [
 <!ATTLIST svg xmlns:xlink CDATA #FIXED "http://www.w3.org/1999/xlink">
]>
<!-- Generated by Graphviz version 2.20.2 (Tue Mar &#160;2 19:03:41 UTC 2010)
     For user: (jenkins)  -->
<!-- Title: G Pages: 1 -->
<svg width="916pt" height="196pt"
 viewBox="0.00 0.00 916.00 196.00" xmlns="http://www.w3.org/2000/svg" xmlns:xlink="http://www.w3.org/1999/xlink">
<g id="graph0" class="graph" transform="scale(1 1) rotate(0) translate(4 192)">
<title>G</title>
<polygon style="fill:white;stroke:white;" points="-4,4 -4,-192 912,-192 912,4 -4,4"/>
<!-- Node1 -->
<g id="node1" class="node"><title>Node1</title>
<polygon style="fill:#bfbfbf;stroke:black;" points="483,-168 483,-188 752,-188 752,-168 483,-168"/>
<text text-anchor="middle" x="617" y="-175" style="font-family:Arial;font-size:10.00;">ltr/parameters_container/parameters_container_unittest.cc</text>
</g>
<!-- Node2 -->
<g id="node3" class="node"><title>Node2</title>
<polygon style="fill:white;stroke:#bfbfbf;" points="342,-112 342,-132 413,-132 413,-112 342,-112"/>
<text text-anchor="middle" x="377" y="-119" style="font-family:Arial;font-size:10.00;">gtest/gtest.h</text>
</g>
<!-- Node1&#45;&gt;Node2 -->
<g id="edge2" class="edge"><title>Node1&#45;&gt;Node2</title>
<path style="fill:none;stroke:midnightblue;" d="M574,-168C531,-158 466,-143 423,-132"/>
<polygon style="fill:midnightblue;stroke:midnightblue;" points="423.492,-128.529 413,-130 422.119,-135.393 423.492,-128.529"/>
</g>
<!-- Node3 -->
<g id="node5" class="node"><title>Node3</title>
<polygon style="fill:white;stroke:#bfbfbf;" points="868,-0 868,-20 908,-20 908,-0 868,-0"/>
<text text-anchor="middle" x="888" y="-7" style="font-family:Arial;font-size:10.00;">string</text>
</g>
<!-- Node1&#45;&gt;Node3 -->
<g id="edge4" class="edge"><title>Node1&#45;&gt;Node3</title>
<path style="fill:none;stroke:midnightblue;" d="M659,-168C727,-151 857,-113 885,-76 894,-63 895,-44 893,-30"/>
<polygon style="fill:midnightblue;stroke:midnightblue;" points="896.393,-29.1194 891,-20 889.529,-30.4922 896.393,-29.1194"/>
</g>
<!-- Node4 -->
<g id="node7" class="node"><title>Node4</title>
<polygon style="fill:white;stroke:#bfbfbf;" points="672,-112 672,-132 714,-132 714,-112 672,-112"/>
<text text-anchor="middle" x="693" y="-119" style="font-family:Arial;font-size:10.00;">vector</text>
</g>
<!-- Node1&#45;&gt;Node4 -->
<g id="edge6" class="edge"><title>Node1&#45;&gt;Node4</title>
<path style="fill:none;stroke:midnightblue;" d="M631,-168C642,-160 658,-148 671,-138"/>
<polygon style="fill:midnightblue;stroke:midnightblue;" points="673.1,-140.8 679,-132 668.9,-135.2 673.1,-140.8"/>
</g>
<!-- Node5 -->
<g id="node9" class="node"><title>Node5</title>
<a xlink:href="parameters__container_8h.html" target="_top" xlink:title="ltr/parameters_container/parameters_container.h">
<polygon style="fill:white;stroke:black;" points="430,-112 430,-132 655,-132 655,-112 430,-112"/>
<text text-anchor="middle" x="542" y="-119" style="font-family:Arial;font-size:10.00;">ltr/parameters_container/parameters_container.h</text>
</a>
</g>
<!-- Node1&#45;&gt;Node5 -->
<g id="edge8" class="edge"><title>Node1&#45;&gt;Node5</title>
<path style="fill:none;stroke:midnightblue;" d="M604,-168C593,-160 577,-148 564,-138"/>
<polygon style="fill:midnightblue;stroke:midnightblue;" points="566.1,-135.2 556,-132 561.9,-140.8 566.1,-135.2"/>
</g>
<!-- Node5&#45;&gt;Node3 -->
<g id="edge16" class="edge"><title>Node5&#45;&gt;Node3</title>
<path style="fill:none;stroke:midnightblue;" d="M655,-112C743,-103 853,-90 869,-76 882,-64 886,-45 888,-30"/>
<polygon style="fill:midnightblue;stroke:midnightblue;" points="891.5,-30 888,-20 884.5,-30 891.5,-30"/>
</g>
<!-- Node6 -->
<g id="node11" class="node"><title>Node6</title>
<polygon style="fill:white;stroke:#bfbfbf;" points="290,-56 290,-76 364,-76 364,-56 290,-56"/>
<text text-anchor="middle" x="327" y="-63" style="font-family:Arial;font-size:10.00;">logog/logog.h</text>
</g>
<!-- Node5&#45;&gt;Node6 -->
<g id="edge10" class="edge"><title>Node5&#45;&gt;Node6</title>
<path style="fill:none;stroke:midnightblue;" d="M504,-112C467,-103 413,-89 374,-79"/>
<polygon style="fill:midnightblue;stroke:midnightblue;" points="374.584,-75.5212 364,-76 372.573,-82.2259 374.584,-75.5212"/>
</g>
<!-- Node7 -->
<g id="node13" class="node"><title>Node7</title>
<polygon style="fill:white;stroke:#bfbfbf;" points="382,-56 382,-76 411,-76 411,-56 382,-56"/>
<text text-anchor="middle" x="396" y="-63" style="font-family:Arial;font-size:10.00;">list</text>
</g>
<!-- Node5&#45;&gt;Node7 -->
<g id="edge12" class="edge"><title>Node5&#45;&gt;Node7</title>
<path style="fill:none;stroke:midnightblue;" d="M514,-112C491,-104 457,-91 420,-76"/>
<polygon style="fill:midnightblue;stroke:midnightblue;" points="421.56,-72.8631 411,-72 418.717,-79.2598 421.56,-72.8631"/>
</g>
<!-- Node8 -->
<g id="node15" class="node"><title>Node8</title>
<polygon style="fill:white;stroke:#bfbfbf;" points="428,-56 428,-76 487,-76 487,-56 428,-56"/>
<text text-anchor="middle" x="457" y="-63" style="font-family:Arial;font-size:10.00;">stdexcept</text>
</g>
<!-- Node5&#45;&gt;Node8 -->
<g id="edge14" class="edge"><title>Node5&#45;&gt;Node8</title>
<path style="fill:none;stroke:midnightblue;" d="M527,-112C514,-104 496,-91 481,-82"/>
<polygon style="fill:midnightblue;stroke:midnightblue;" points="482.262,-78.6349 472,-76 478.379,-84.4592 482.262,-78.6349"/>
</g>
<!-- Node9 -->
<g id="node18" class="node"><title>Node9</title>
<polygon style="fill:white;stroke:#bfbfbf;" points="504,-56 504,-76 581,-76 581,-56 504,-56"/>
<text text-anchor="middle" x="542" y="-63" style="font-family:Arial;font-size:10.00;">boost/any.hpp</text>
</g>
<!-- Node5&#45;&gt;Node9 -->
<g id="edge18" class="edge"><title>Node5&#45;&gt;Node9</title>
<path style="fill:none;stroke:midnightblue;" d="M542,-112C542,-105 542,-95 542,-86"/>
<polygon style="fill:midnightblue;stroke:midnightblue;" points="545.5,-86 542,-76 538.5,-86 545.5,-86"/>
</g>
<!-- Node10 -->
<g id="node20" class="node"><title>Node10</title>
<polygon style="fill:white;stroke:#bfbfbf;" points="598,-56 598,-76 727,-76 727,-56 598,-56"/>
<text text-anchor="middle" x="662" y="-63" style="font-family:Arial;font-size:10.00;">boost/unordered_map.hpp</text>
</g>
<!-- Node5&#45;&gt;Node10 -->
<g id="edge20" class="edge"><title>Node5&#45;&gt;Node10</title>
<path style="fill:none;stroke:midnightblue;" d="M563,-112C582,-103 609,-90 631,-80"/>
<polygon style="fill:midnightblue;stroke:midnightblue;" points="632.283,-83.2598 640,-76 629.44,-76.8631 632.283,-83.2598"/>
</g>
<!-- Node11 -->
<g id="node22" class="node"><title>Node11</title>
<a xlink:href="shared__ptr_8h.html" target="_top" xlink:title="ltr/utility/shared_ptr.h">
<polygon style="fill:white;stroke:black;" points="166,-56 166,-76 273,-76 273,-56 166,-56"/>
<text text-anchor="middle" x="219" y="-63" style="font-family:Arial;font-size:10.00;">ltr/utility/shared_ptr.h</text>
</a>
</g>
<!-- Node5&#45;&gt;Node11 -->
<g id="edge22" class="edge"><title>Node5&#45;&gt;Node11</title>
<path style="fill:none;stroke:midnightblue;" d="M484,-112C427,-103 342,-88 283,-77"/>
<polygon style="fill:midnightblue;stroke:midnightblue;" points="283.492,-73.5292 273,-75 282.119,-80.3933 283.492,-73.5292"/>
</g>
<!-- Node15 -->
<g id="node30" class="node"><title>Node15</title>
<a xlink:href="printable_8h.html" target="_top" xlink:title="ltr/interfaces/printable.h">
<polygon style="fill:white;stroke:black;" points="744,-56 744,-76 861,-76 861,-56 744,-56"/>
<text text-anchor="middle" x="802" y="-63" style="font-family:Arial;font-size:10.00;">ltr/interfaces/printable.h</text>
</a>
</g>
<!-- Node5&#45;&gt;Node15 -->
<g id="edge30" class="edge"><title>Node5&#45;&gt;Node15</title>
<path style="fill:none;stroke:midnightblue;" d="M588,-112C632,-103 698,-88 745,-78"/>
<polygon style="fill:midnightblue;stroke:midnightblue;" points="745.881,-81.3933 755,-76 744.508,-74.5292 745.881,-81.3933"/>
</g>
<!-- Node12 -->
<g id="node24" class="node"><title>Node12</title>
<polygon style="fill:white;stroke:#bfbfbf;" points="332,-0 332,-20 388,-20 388,-0 332,-0"/>
<text text-anchor="middle" x="360" y="-7" style="font-family:Arial;font-size:10.00;">algorithm</text>
</g>
<!-- Node11&#45;&gt;Node12 -->
<g id="edge24" class="edge"><title>Node11&#45;&gt;Node12</title>
<path style="fill:none;stroke:midnightblue;" d="M244,-56C267,-47 300,-34 325,-24"/>
<polygon style="fill:midnightblue;stroke:midnightblue;" points="327.015,-26.9636 335,-20 324.415,-20.4643 327.015,-26.9636"/>
</g>
<!-- Node13 -->
<g id="node26" class="node"><title>Node13</title>
<polygon style="fill:white;stroke:#bfbfbf;" points="0,-0 0,-20 107,-20 107,-0 0,-0"/>
<text text-anchor="middle" x="53" y="-7" style="font-family:Arial;font-size:10.00;">boost/shared_ptr.hpp</text>
</g>
<!-- Node11&#45;&gt;Node13 -->
<g id="edge26" class="edge"><title>Node11&#45;&gt;Node13</title>
<path style="fill:none;stroke:midnightblue;" d="M189,-56C162,-47 122,-33 93,-23"/>
<polygon style="fill:midnightblue;stroke:midnightblue;" points="93.584,-19.5212 83,-20 91.5725,-26.2259 93.584,-19.5212"/>
</g>
<!-- Node14 -->
<g id="node28" class="node"><title>Node14</title>
<polygon style="fill:white;stroke:#bfbfbf;" points="124,-0 124,-20 315,-20 315,-0 124,-0"/>
<text text-anchor="middle" x="219" y="-7" style="font-family:Arial;font-size:10.00;">boost/smart_ptr/detail/operator_bool.hpp</text>
</g>
<!-- Node11&#45;&gt;Node14 -->
<g id="edge28" class="edge"><title>Node11&#45;&gt;Node14</title>
<path style="fill:none;stroke:midnightblue;" d="M219,-56C219,-49 219,-39 219,-30"/>
<polygon style="fill:midnightblue;stroke:midnightblue;" points="222.5,-30 219,-20 215.5,-30 222.5,-30"/>
</g>
<!-- Node15&#45;&gt;Node3 -->
<g id="edge34" class="edge"><title>Node15&#45;&gt;Node3</title>
<path style="fill:none;stroke:midnightblue;" d="M817,-56C830,-48 849,-35 864,-26"/>
<polygon style="fill:midnightblue;stroke:midnightblue;" points="866.1,-28.8 872,-20 861.9,-23.2 866.1,-28.8"/>
</g>
<!-- Node16 -->
<g id="node32" class="node"><title>Node16</title>
<polygon style="fill:white;stroke:#bfbfbf;" points="777,-0 777,-20 828,-20 828,-0 777,-0"/>
<text text-anchor="middle" x="802" y="-7" style="font-family:Arial;font-size:10.00;">ostream</text>
</g>
<!-- Node15&#45;&gt;Node16 -->
<g id="edge32" class="edge"><title>Node15&#45;&gt;Node16</title>
<path style="fill:none;stroke:midnightblue;" d="M802,-56C802,-49 802,-39 802,-30"/>
<polygon style="fill:midnightblue;stroke:midnightblue;" points="805.5,-30 802,-20 798.5,-30 805.5,-30"/>
</g>
</g>
</svg>
