<?xml version="1.0" encoding="UTF-8" standalone="no"?>
<!DOCTYPE svg PUBLIC "-//W3C//DTD SVG 1.0//EN"
 "http://www.w3.org/TR/2001/REC-SVG-20010904/DTD/svg10.dtd" [
 <!ATTLIST svg xmlns:xlink CDATA #FIXED "http://www.w3.org/1999/xlink">
]>
<!-- Generated by Graphviz version 2.20.2 (Tue Mar &#160;2 19:03:41 UTC 2010)
     For user: (jenkins)  -->
<!-- Title: G Pages: 1 -->
<svg width="930pt" height="84pt"
 viewBox="0.00 0.00 930.00 84.00" xmlns="http://www.w3.org/2000/svg" xmlns:xlink="http://www.w3.org/1999/xlink">
<g id="graph0" class="graph" transform="scale(1 1) rotate(0) translate(4 80)">
<title>G</title>
<polygon style="fill:white;stroke:white;" points="-4,4 -4,-80 926,-80 926,4 -4,4"/>
<!-- Node1 -->
<g id="node1" class="node"><title>Node1</title>
<polygon style="fill:#bfbfbf;stroke:black;" points="307,-56 307,-76 472,-76 472,-56 307,-56"/>
<text text-anchor="middle" x="389" y="-63" style="font-family:Arial;font-size:10.00;">ltr/data/utility/parsers/parse_svm.h</text>
</g>
<!-- Node2 -->
<g id="node3" class="node"><title>Node2</title>
<polygon style="fill:white;stroke:#bfbfbf;" points="0,-0 0,-20 174,-20 174,-0 0,-0"/>
<text text-anchor="middle" x="87" y="-7" style="font-family:Arial;font-size:10.00;">boost/spirit/include/classic_core.hpp</text>
</g>
<!-- Node1&#45;&gt;Node2 -->
<g id="edge2" class="edge"><title>Node1&#45;&gt;Node2</title>
<path style="fill:none;stroke:midnightblue;" d="M335,-56C283,-47 206,-32 151,-22"/>
<polygon style="fill:midnightblue;stroke:midnightblue;" points="151.492,-18.5292 141,-20 150.119,-25.3933 151.492,-18.5292"/>
</g>
<!-- Node3 -->
<g id="node5" class="node"><title>Node3</title>
<polygon style="fill:white;stroke:#bfbfbf;" points="192,-0 192,-20 227,-20 227,-0 192,-0"/>
<text text-anchor="middle" x="209" y="-7" style="font-family:Arial;font-size:10.00;">map</text>
</g>
<!-- Node1&#45;&gt;Node3 -->
<g id="edge4" class="edge"><title>Node1&#45;&gt;Node3</title>
<path style="fill:none;stroke:midnightblue;" d="M353,-56C323,-48 281,-36 237,-20"/>
<polygon style="fill:midnightblue;stroke:midnightblue;" points="237.584,-16.5212 227,-17 235.573,-23.2259 237.584,-16.5212"/>
</g>
<!-- Node4 -->
<g id="node7" class="node"><title>Node4</title>
<polygon style="fill:white;stroke:#bfbfbf;" points="244,-0 244,-20 284,-20 284,-0 244,-0"/>
<text text-anchor="middle" x="264" y="-7" style="font-family:Arial;font-size:10.00;">string</text>
</g>
<!-- Node1&#45;&gt;Node4 -->
<g id="edge6" class="edge"><title>Node1&#45;&gt;Node4</title>
<path style="fill:none;stroke:midnightblue;" d="M367,-56C347,-47 316,-33 293,-23"/>
<polygon style="fill:midnightblue;stroke:midnightblue;" points="294.56,-19.8631 284,-19 291.717,-26.2598 294.56,-19.8631"/>
</g>
<!-- Node5 -->
<g id="node9" class="node"><title>Node5</title>
<polygon style="fill:white;stroke:#bfbfbf;" points="302,-0 302,-20 344,-20 344,-0 302,-0"/>
<text text-anchor="middle" x="323" y="-7" style="font-family:Arial;font-size:10.00;">vector</text>
</g>
<!-- Node1&#45;&gt;Node5 -->
<g id="edge8" class="edge"><title>Node1&#45;&gt;Node5</title>
<path style="fill:none;stroke:midnightblue;" d="M377,-56C367,-48 354,-37 343,-27"/>
<polygon style="fill:midnightblue;stroke:midnightblue;" points="344.831,-23.9511 335,-20 340.221,-29.2191 344.831,-23.9511"/>
</g>
<!-- Node6 -->
<g id="node11" class="node"><title>Node6</title>
<polygon style="fill:white;stroke:#bfbfbf;" points="362,-0 362,-20 416,-20 416,-0 362,-0"/>
<text text-anchor="middle" x="389" y="-7" style="font-family:Arial;font-size:10.00;">iostream</text>
</g>
<!-- Node1&#45;&gt;Node6 -->
<g id="edge10" class="edge"><title>Node1&#45;&gt;Node6</title>
<path style="fill:none;stroke:midnightblue;" d="M389,-56C389,-49 389,-39 389,-30"/>
<polygon style="fill:midnightblue;stroke:midnightblue;" points="392.5,-30 389,-20 385.5,-30 392.5,-30"/>
</g>
<!-- Node7 -->
<g id="node13" class="node"><title>Node7</title>
<polygon style="fill:white;stroke:#bfbfbf;" points="434,-0 434,-20 518,-20 518,-0 434,-0"/>
<text text-anchor="middle" x="476" y="-7" style="font-family:Arial;font-size:10.00;">ltr/data/object.h</text>
</g>
<!-- Node1&#45;&gt;Node7 -->
<g id="edge12" class="edge"><title>Node1&#45;&gt;Node7</title>
<path style="fill:none;stroke:midnightblue;" d="M405,-56C418,-48 437,-35 452,-26"/>
<polygon style="fill:midnightblue;stroke:midnightblue;" points="454.1,-28.8 460,-20 449.9,-23.2 454.1,-28.8"/>
</g>
<!-- Node8 -->
<g id="node15" class="node"><title>Node8</title>
<polygon style="fill:white;stroke:#bfbfbf;" points="536,-0 536,-20 640,-20 640,-0 536,-0"/>
<text text-anchor="middle" x="588" y="-7" style="font-family:Arial;font-size:10.00;">ltr/data/object_pair.h</text>
</g>
<!-- Node1&#45;&gt;Node8 -->
<g id="edge14" class="edge"><title>Node1&#45;&gt;Node8</title>
<path style="fill:none;stroke:midnightblue;" d="M425,-56C458,-47 507,-33 542,-23"/>
<polygon style="fill:midnightblue;stroke:midnightblue;" points="543.427,-26.2259 552,-20 541.416,-19.5212 543.427,-26.2259"/>
</g>
<!-- Node9 -->
<g id="node17" class="node"><title>Node9</title>
<polygon style="fill:white;stroke:#bfbfbf;" points="658,-0 658,-20 760,-20 760,-0 658,-0"/>
<text text-anchor="middle" x="709" y="-7" style="font-family:Arial;font-size:10.00;">ltr/data/object_list.h</text>
</g>
<!-- Node1&#45;&gt;Node9 -->
<g id="edge16" class="edge"><title>Node1&#45;&gt;Node9</title>
<path style="fill:none;stroke:midnightblue;" d="M446,-56C503,-47 589,-31 648,-21"/>
<polygon style="fill:midnightblue;stroke:midnightblue;" points="648.881,-24.3933 658,-19 647.508,-17.5292 648.881,-24.3933"/>
</g>
<!-- Node10 -->
<g id="node19" class="node"><title>Node10</title>
<polygon style="fill:white;stroke:#bfbfbf;" points="778,-0 778,-20 923,-20 923,-0 778,-0"/>
<text text-anchor="middle" x="850" y="-7" style="font-family:Arial;font-size:10.00;">ltr/data/utility/parsers/parser.h</text>
</g>
<!-- Node1&#45;&gt;Node10 -->
<g id="edge18" class="edge"><title>Node1&#45;&gt;Node10</title>
<path style="fill:none;stroke:midnightblue;" d="M471,-56C546,-47 659,-33 768,-20"/>
<polygon style="fill:midnightblue;stroke:midnightblue;" points="768.398,-23.4778 778,-19 767.701,-16.5125 768.398,-23.4778"/>
</g>
</g>
</svg>
