<?xml version="1.0" encoding="UTF-8" standalone="no"?>
<!DOCTYPE svg PUBLIC "-//W3C//DTD SVG 1.0//EN"
 "http://www.w3.org/TR/2001/REC-SVG-20010904/DTD/svg10.dtd" [
 <!ATTLIST svg xmlns:xlink CDATA #FIXED "http://www.w3.org/1999/xlink">
]>
<!-- Generated by Graphviz version 2.20.2 (Tue Mar &#160;2 19:03:41 UTC 2010)
     For user: (jenkins)  -->
<!-- Title: G Pages: 1 -->
<svg width="1431pt" height="420pt"
 viewBox="0.00 0.00 1431.00 420.00" xmlns="http://www.w3.org/2000/svg" xmlns:xlink="http://www.w3.org/1999/xlink">
<g id="graph0" class="graph" transform="scale(1 1) rotate(0) translate(4 416)">
<title>G</title>
<polygon style="fill:white;stroke:white;" points="-4,4 -4,-416 1427,-416 1427,4 -4,4"/>
<!-- Node1 -->
<g id="node1" class="node"><title>Node1</title>
<polygon style="fill:#bfbfbf;stroke:black;" points="237,-392 237,-412 402,-412 402,-392 237,-392"/>
<text text-anchor="middle" x="319" y="-399" style="font-family:Arial;font-size:10.00;">ltr/data/utility/parsers/parse_svm.h</text>
</g>
<!-- Node2 -->
<g id="node3" class="node"><title>Node2</title>
<polygon style="fill:white;stroke:#bfbfbf;" points="104,-280 104,-300 278,-300 278,-280 104,-280"/>
<text text-anchor="middle" x="191" y="-287" style="font-family:Arial;font-size:10.00;">boost/spirit/include/classic_core.hpp</text>
</g>
<!-- Node1&#45;&gt;Node2 -->
<g id="edge2" class="edge"><title>Node1&#45;&gt;Node2</title>
<path style="fill:none;stroke:midnightblue;" d="M307,-392C285,-372 237,-331 211,-307"/>
<polygon style="fill:midnightblue;stroke:midnightblue;" points="212.831,-303.951 203,-300 208.221,-309.219 212.831,-303.951"/>
</g>
<!-- Node3 -->
<g id="node5" class="node"><title>Node3</title>
<polygon style="fill:white;stroke:#bfbfbf;" points="1247,-56 1247,-76 1282,-76 1282,-56 1247,-56"/>
<text text-anchor="middle" x="1264" y="-63" style="font-family:Arial;font-size:10.00;">map</text>
</g>
<!-- Node1&#45;&gt;Node3 -->
<g id="edge4" class="edge"><title>Node1&#45;&gt;Node3</title>
<path style="fill:none;stroke:midnightblue;" d="M402,-394C553,-379 880,-337 1140,-244 1191,-225 1212,-228 1250,-188 1274,-162 1277,-147 1274,-112 1273,-103 1271,-94 1269,-86"/>
<polygon style="fill:midnightblue;stroke:midnightblue;" points="1272.39,-85.1194 1267,-76 1265.53,-86.4922 1272.39,-85.1194"/>
</g>
<!-- Node4 -->
<g id="node7" class="node"><title>Node4</title>
<polygon style="fill:white;stroke:#bfbfbf;" points="745,-0 745,-20 785,-20 785,-0 745,-0"/>
<text text-anchor="middle" x="765" y="-7" style="font-family:Arial;font-size:10.00;">string</text>
</g>
<!-- Node1&#45;&gt;Node4 -->
<g id="edge6" class="edge"><title>Node1&#45;&gt;Node4</title>
<path style="fill:none;stroke:midnightblue;" d="M402,-398C660,-385 1423,-341 1423,-290 1423,-290 1423,-290 1423,-122 1423,-68 1372,-73 1321,-56 1222,-22 897,-13 795,-10"/>
<polygon style="fill:midnightblue;stroke:midnightblue;" points="795,-6.5001 785,-10 795,-13.5001 795,-6.5001"/>
</g>
<!-- Node5 -->
<g id="node9" class="node"><title>Node5</title>
<polygon style="fill:white;stroke:#bfbfbf;" points="96,-56 96,-76 138,-76 138,-56 96,-56"/>
<text text-anchor="middle" x="117" y="-63" style="font-family:Arial;font-size:10.00;">vector</text>
</g>
<!-- Node1&#45;&gt;Node5 -->
<g id="edge8" class="edge"><title>Node1&#45;&gt;Node5</title>
<path style="fill:none;stroke:midnightblue;" d="M237,-395C191,-389 134,-377 86,-356 43,-336 0,-338 0,-290 0,-290 0,-290 0,-178 0,-130 52,-96 87,-79"/>
<polygon style="fill:midnightblue;stroke:midnightblue;" points="88.2834,-82.2598 96,-75 85.4404,-75.8631 88.2834,-82.2598"/>
</g>
<!-- Node6 -->
<g id="node11" class="node"><title>Node6</title>
<polygon style="fill:white;stroke:#bfbfbf;" points="296,-280 296,-300 350,-300 350,-280 296,-280"/>
<text text-anchor="middle" x="323" y="-287" style="font-family:Arial;font-size:10.00;">iostream</text>
</g>
<!-- Node1&#45;&gt;Node6 -->
<g id="edge10" class="edge"><title>Node1&#45;&gt;Node6</title>
<path style="fill:none;stroke:midnightblue;" d="M319,-392C320,-373 321,-334 323,-310"/>
<polygon style="fill:midnightblue;stroke:midnightblue;" points="326.5,-310 323,-300 319.5,-310 326.5,-310"/>
</g>
<!-- Node7 -->
<g id="node13" class="node"><title>Node7</title>
<a xlink:href="object_8h.html" target="_top" xlink:title="ltr/data/object.h">
<polygon style="fill:white;stroke:black;" points="221,-112 221,-132 305,-132 305,-112 221,-112"/>
<text text-anchor="middle" x="263" y="-119" style="font-family:Arial;font-size:10.00;">ltr/data/object.h</text>
</a>
</g>
<!-- Node1&#45;&gt;Node7 -->
<g id="edge12" class="edge"><title>Node1&#45;&gt;Node7</title>
<path style="fill:none;stroke:midnightblue;" d="M237,-393C183,-386 120,-374 100,-356 82,-338 88,-325 84,-300 73,-219 173,-162 228,-136"/>
<polygon style="fill:midnightblue;stroke:midnightblue;" points="229.283,-139.26 237,-132 226.44,-132.863 229.283,-139.26"/>
</g>
<!-- Node15 -->
<g id="node34" class="node"><title>Node15</title>
<a xlink:href="object__pair_8h.html" target="_top" xlink:title="ltr/data/object_pair.h">
<polygon style="fill:white;stroke:black;" points="452,-168 452,-188 556,-188 556,-168 452,-168"/>
<text text-anchor="middle" x="504" y="-175" style="font-family:Arial;font-size:10.00;">ltr/data/object_pair.h</text>
</a>
</g>
<!-- Node1&#45;&gt;Node15 -->
<g id="edge38" class="edge"><title>Node1&#45;&gt;Node15</title>
<path style="fill:none;stroke:midnightblue;" d="M384,-392C420,-385 464,-374 500,-356 536,-338 554,-336 573,-300 592,-261 552,-218 525,-195"/>
<polygon style="fill:midnightblue;stroke:midnightblue;" points="526.831,-191.951 517,-188 522.221,-197.219 526.831,-191.951"/>
</g>
<!-- Node16 -->
<g id="node42" class="node"><title>Node16</title>
<a xlink:href="object__list_8h.html" target="_top" xlink:title="ltr/data/object_list.h">
<polygon style="fill:white;stroke:black;" points="294,-168 294,-188 396,-188 396,-168 294,-168"/>
<text text-anchor="middle" x="345" y="-175" style="font-family:Arial;font-size:10.00;">ltr/data/object_list.h</text>
</a>
</g>
<!-- Node1&#45;&gt;Node16 -->
<g id="edge52" class="edge"><title>Node1&#45;&gt;Node16</title>
<path style="fill:none;stroke:midnightblue;" d="M251,-392C170,-377 52,-344 95,-280 137,-218 225,-194 284,-184"/>
<polygon style="fill:midnightblue;stroke:midnightblue;" points="284.881,-187.393 294,-182 283.508,-180.529 284.881,-187.393"/>
</g>
<!-- Node17 -->
<g id="node50" class="node"><title>Node17</title>
<a xlink:href="parser_8h.html" target="_top" xlink:title="ltr/data/utility/parsers/parser.h">
<polygon style="fill:white;stroke:black;" points="347,-336 347,-356 492,-356 492,-336 347,-336"/>
<text text-anchor="middle" x="419" y="-343" style="font-family:Arial;font-size:10.00;">ltr/data/utility/parsers/parser.h</text>
</a>
</g>
<!-- Node1&#45;&gt;Node17 -->
<g id="edge66" class="edge"><title>Node1&#45;&gt;Node17</title>
<path style="fill:none;stroke:midnightblue;" d="M337,-392C352,-384 374,-371 392,-361"/>
<polygon style="fill:midnightblue;stroke:midnightblue;" points="393.958,-363.916 401,-356 390.559,-357.797 393.958,-363.916"/>
</g>
<!-- Node7&#45;&gt;Node3 -->
<g id="edge14" class="edge"><title>Node7&#45;&gt;Node3</title>
<path style="fill:none;stroke:midnightblue;" d="M305,-121C437,-120 856,-111 1200,-76 1212,-74 1225,-72 1237,-71"/>
<polygon style="fill:midnightblue;stroke:midnightblue;" points="1237.88,-74.3933 1247,-69 1236.51,-67.5292 1237.88,-74.3933"/>
</g>
<!-- Node7&#45;&gt;Node4 -->
<g id="edge20" class="edge"><title>Node7&#45;&gt;Node4</title>
<path style="fill:none;stroke:midnightblue;" d="M263,-112C263,-97 265,-69 282,-56 347,-1 579,-28 665,-20 689,-17 715,-15 735,-13"/>
<polygon style="fill:midnightblue;stroke:midnightblue;" points="735.398,-16.4778 745,-12 734.701,-9.5125 735.398,-16.4778"/>
</g>
<!-- Node7&#45;&gt;Node5 -->
<g id="edge22" class="edge"><title>Node7&#45;&gt;Node5</title>
<path style="fill:none;stroke:midnightblue;" d="M237,-112C212,-102 174,-88 148,-78"/>
<polygon style="fill:midnightblue;stroke:midnightblue;" points="148.585,-74.4643 138,-74 145.985,-80.9636 148.585,-74.4643"/>
</g>
<!-- Node8 -->
<g id="node16" class="node"><title>Node8</title>
<polygon style="fill:white;stroke:#bfbfbf;" points="200,-0 200,-20 251,-20 251,-0 200,-0"/>
<text text-anchor="middle" x="225" y="-7" style="font-family:Arial;font-size:10.00;">ostream</text>
</g>
<!-- Node7&#45;&gt;Node8 -->
<g id="edge16" class="edge"><title>Node7&#45;&gt;Node8</title>
<path style="fill:none;stroke:midnightblue;" d="M259,-112C253,-93 240,-54 231,-30"/>
<polygon style="fill:midnightblue;stroke:midnightblue;" points="234.226,-28.5725 228,-20 227.521,-30.584 234.226,-28.5725"/>
</g>
<!-- Node9 -->
<g id="node18" class="node"><title>Node9</title>
<polygon style="fill:white;stroke:#bfbfbf;" points="634,-56 634,-76 693,-76 693,-56 634,-56"/>
<text text-anchor="middle" x="663" y="-63" style="font-family:Arial;font-size:10.00;">stdexcept</text>
</g>
<!-- Node7&#45;&gt;Node9 -->
<g id="edge18" class="edge"><title>Node7&#45;&gt;Node9</title>
<path style="fill:none;stroke:midnightblue;" d="M305,-116C383,-105 548,-82 624,-71"/>
<polygon style="fill:midnightblue;stroke:midnightblue;" points="624.398,-74.4778 634,-70 623.701,-67.5125 624.398,-74.4778"/>
</g>
<!-- Node10 -->
<g id="node22" class="node"><title>Node10</title>
<a xlink:href="printable_8h.html" target="_top" xlink:title="ltr/interfaces/printable.h">
<polygon style="fill:white;stroke:black;" points="291,-56 291,-76 408,-76 408,-56 291,-56"/>
<text text-anchor="middle" x="349" y="-63" style="font-family:Arial;font-size:10.00;">ltr/interfaces/printable.h</text>
</a>
</g>
<!-- Node7&#45;&gt;Node10 -->
<g id="edge24" class="edge"><title>Node7&#45;&gt;Node10</title>
<path style="fill:none;stroke:midnightblue;" d="M278,-112C291,-104 310,-91 325,-82"/>
<polygon style="fill:midnightblue;stroke:midnightblue;" points="327.1,-84.8 333,-76 322.9,-79.2 327.1,-84.8"/>
</g>
<!-- Node11 -->
<g id="node26" class="node"><title>Node11</title>
<a xlink:href="shared__ptr_8h.html" target="_top" xlink:title="ltr/utility/shared_ptr.h">
<polygon style="fill:white;stroke:black;" points="425,-56 425,-76 532,-76 532,-56 425,-56"/>
<text text-anchor="middle" x="478" y="-63" style="font-family:Arial;font-size:10.00;">ltr/utility/shared_ptr.h</text>
</a>
</g>
<!-- Node7&#45;&gt;Node11 -->
<g id="edge30" class="edge"><title>Node7&#45;&gt;Node11</title>
<path style="fill:none;stroke:midnightblue;" d="M301,-112C337,-103 390,-89 429,-79"/>
<polygon style="fill:midnightblue;stroke:midnightblue;" points="430.427,-82.2259 439,-76 428.416,-75.5212 430.427,-82.2259"/>
</g>
<!-- Node10&#45;&gt;Node4 -->
<g id="edge28" class="edge"><title>Node10&#45;&gt;Node4</title>
<path style="fill:none;stroke:midnightblue;" d="M408,-57C411,-57 413,-56 416,-56 533,-39 674,-21 735,-14"/>
<polygon style="fill:midnightblue;stroke:midnightblue;" points="735.398,-17.4778 745,-13 734.701,-10.5125 735.398,-17.4778"/>
</g>
<!-- Node10&#45;&gt;Node8 -->
<g id="edge26" class="edge"><title>Node10&#45;&gt;Node8</title>
<path style="fill:none;stroke:midnightblue;" d="M327,-56C307,-47 279,-34 256,-24"/>
<polygon style="fill:midnightblue;stroke:midnightblue;" points="257.56,-20.8631 247,-20 254.717,-27.2598 257.56,-20.8631"/>
</g>
<!-- Node12 -->
<g id="node28" class="node"><title>Node12</title>
<polygon style="fill:white;stroke:#bfbfbf;" points="600,-0 600,-20 656,-20 656,-0 600,-0"/>
<text text-anchor="middle" x="628" y="-7" style="font-family:Arial;font-size:10.00;">algorithm</text>
</g>
<!-- Node11&#45;&gt;Node12 -->
<g id="edge32" class="edge"><title>Node11&#45;&gt;Node12</title>
<path style="fill:none;stroke:midnightblue;" d="M505,-56C529,-47 565,-34 591,-24"/>
<polygon style="fill:midnightblue;stroke:midnightblue;" points="593.015,-26.9636 601,-20 590.415,-20.4643 593.015,-26.9636"/>
</g>
<!-- Node13 -->
<g id="node30" class="node"><title>Node13</title>
<polygon style="fill:white;stroke:#bfbfbf;" points="268,-0 268,-20 375,-20 375,-0 268,-0"/>
<text text-anchor="middle" x="321" y="-7" style="font-family:Arial;font-size:10.00;">boost/shared_ptr.hpp</text>
</g>
<!-- Node11&#45;&gt;Node13 -->
<g id="edge34" class="edge"><title>Node11&#45;&gt;Node13</title>
<path style="fill:none;stroke:midnightblue;" d="M450,-56C425,-47 387,-33 359,-23"/>
<polygon style="fill:midnightblue;stroke:midnightblue;" points="359.584,-19.5212 349,-20 357.573,-26.2259 359.584,-19.5212"/>
</g>
<!-- Node14 -->
<g id="node32" class="node"><title>Node14</title>
<polygon style="fill:white;stroke:#bfbfbf;" points="392,-0 392,-20 583,-20 583,-0 392,-0"/>
<text text-anchor="middle" x="487" y="-7" style="font-family:Arial;font-size:10.00;">boost/smart_ptr/detail/operator_bool.hpp</text>
</g>
<!-- Node11&#45;&gt;Node14 -->
<g id="edge36" class="edge"><title>Node11&#45;&gt;Node14</title>
<path style="fill:none;stroke:midnightblue;" d="M480,-56C481,-49 482,-39 484,-30"/>
<polygon style="fill:midnightblue;stroke:midnightblue;" points="487.488,-30.2987 485,-20 480.522,-29.6021 487.488,-30.2987"/>
</g>
<!-- Node15&#45;&gt;Node4 -->
<g id="edge42" class="edge"><title>Node15&#45;&gt;Node4</title>
<path style="fill:none;stroke:midnightblue;" d="M511,-168C528,-145 574,-87 625,-56 659,-35 705,-22 735,-15"/>
<polygon style="fill:midnightblue;stroke:midnightblue;" points="735.881,-18.3933 745,-13 734.508,-11.5292 735.881,-18.3933"/>
</g>
<!-- Node15&#45;&gt;Node5 -->
<g id="edge44" class="edge"><title>Node15&#45;&gt;Node5</title>
<path style="fill:none;stroke:midnightblue;" d="M452,-173C380,-165 254,-149 212,-132 205,-128 165,-101 139,-82"/>
<polygon style="fill:midnightblue;stroke:midnightblue;" points="141.1,-79.2 131,-76 136.9,-84.8 141.1,-79.2"/>
</g>
<!-- Node15&#45;&gt;Node7 -->
<g id="edge46" class="edge"><title>Node15&#45;&gt;Node7</title>
<path style="fill:none;stroke:midnightblue;" d="M461,-168C420,-159 359,-144 315,-134"/>
<polygon style="fill:midnightblue;stroke:midnightblue;" points="315.492,-130.529 305,-132 314.119,-137.393 315.492,-130.529"/>
</g>
<!-- Node15&#45;&gt;Node9 -->
<g id="edge40" class="edge"><title>Node15&#45;&gt;Node9</title>
<path style="fill:none;stroke:midnightblue;" d="M540,-168C562,-160 591,-149 613,-132 629,-119 643,-99 652,-85"/>
<polygon style="fill:midnightblue;stroke:midnightblue;" points="655.365,-86.262 658,-76 649.541,-82.3791 655.365,-86.262"/>
</g>
<!-- Node15&#45;&gt;Node10 -->
<g id="edge48" class="edge"><title>Node15&#45;&gt;Node10</title>
<path style="fill:none;stroke:midnightblue;" d="M490,-168C463,-148 404,-106 371,-82"/>
<polygon style="fill:midnightblue;stroke:midnightblue;" points="373.1,-79.2 363,-76 368.9,-84.8 373.1,-79.2"/>
</g>
<!-- Node15&#45;&gt;Node11 -->
<g id="edge50" class="edge"><title>Node15&#45;&gt;Node11</title>
<path style="fill:none;stroke:midnightblue;" d="M502,-168C498,-149 488,-110 482,-86"/>
<polygon style="fill:midnightblue;stroke:midnightblue;" points="485.393,-85.1194 480,-76 478.529,-86.4922 485.393,-85.1194"/>
</g>
<!-- Node16&#45;&gt;Node4 -->
<g id="edge56" class="edge"><title>Node16&#45;&gt;Node4</title>
<path style="fill:none;stroke:midnightblue;" d="M362,-168C401,-145 501,-89 590,-56 639,-37 699,-23 735,-16"/>
<polygon style="fill:midnightblue;stroke:midnightblue;" points="735.881,-19.3933 745,-14 734.508,-12.5292 735.881,-19.3933"/>
</g>
<!-- Node16&#45;&gt;Node5 -->
<g id="edge58" class="edge"><title>Node16&#45;&gt;Node5</title>
<path style="fill:none;stroke:midnightblue;" d="M294,-171C259,-165 214,-153 179,-132 159,-119 141,-99 130,-84"/>
<polygon style="fill:midnightblue;stroke:midnightblue;" points="132.8,-81.9 124,-76 127.2,-86.1 132.8,-81.9"/>
</g>
<!-- Node16&#45;&gt;Node7 -->
<g id="edge60" class="edge"><title>Node16&#45;&gt;Node7</title>
<path style="fill:none;stroke:midnightblue;" d="M330,-168C318,-160 301,-147 286,-138"/>
<polygon style="fill:midnightblue;stroke:midnightblue;" points="288.1,-135.2 278,-132 283.9,-140.8 288.1,-135.2"/>
</g>
<!-- Node16&#45;&gt;Node9 -->
<g id="edge54" class="edge"><title>Node16&#45;&gt;Node9</title>
<path style="fill:none;stroke:midnightblue;" d="M396,-169C435,-161 490,-149 537,-132 573,-118 613,-96 637,-81"/>
<polygon style="fill:midnightblue;stroke:midnightblue;" points="638.958,-83.916 646,-76 635.559,-77.7969 638.958,-83.916"/>
</g>
<!-- Node16&#45;&gt;Node10 -->
<g id="edge62" class="edge"><title>Node16&#45;&gt;Node10</title>
<path style="fill:none;stroke:midnightblue;" d="M345,-168C346,-149 347,-110 349,-86"/>
<polygon style="fill:midnightblue;stroke:midnightblue;" points="352.5,-86 349,-76 345.5,-86 352.5,-86"/>
</g>
<!-- Node16&#45;&gt;Node11 -->
<g id="edge64" class="edge"><title>Node16&#45;&gt;Node11</title>
<path style="fill:none;stroke:midnightblue;" d="M351,-168C359,-154 376,-129 395,-112 409,-99 428,-88 445,-80"/>
<polygon style="fill:midnightblue;stroke:midnightblue;" points="446.283,-83.2598 454,-76 443.44,-76.8631 446.283,-83.2598"/>
</g>
<!-- Node17&#45;&gt;Node2 -->
<g id="edge68" class="edge"><title>Node17&#45;&gt;Node2</title>
<path style="fill:none;stroke:midnightblue;" d="M378,-336C340,-327 283,-312 242,-302"/>
<polygon style="fill:midnightblue;stroke:midnightblue;" points="242.492,-298.529 232,-300 241.119,-305.393 242.492,-298.529"/>
</g>
<!-- Node17&#45;&gt;Node3 -->
<g id="edge70" class="edge"><title>Node17&#45;&gt;Node3</title>
<path style="fill:none;stroke:midnightblue;" d="M492,-340C669,-324 1114,-277 1229,-188 1260,-163 1264,-114 1265,-86"/>
<polygon style="fill:midnightblue;stroke:midnightblue;" points="1268.5,-86 1265,-76 1261.5,-86 1268.5,-86"/>
</g>
<!-- Node17&#45;&gt;Node4 -->
<g id="edge74" class="edge"><title>Node17&#45;&gt;Node4</title>
<path style="fill:none;stroke:midnightblue;" d="M492,-341C585,-335 749,-322 888,-300 1001,-281 1032,-282 1140,-244 1218,-215 1255,-207 1290,-132 1304,-100 1326,-81 1303,-56 1268,-17 904,-11 795,-10"/>
<polygon style="fill:midnightblue;stroke:midnightblue;" points="795,-6.5001 785,-10 795,-13.5001 795,-6.5001"/>
</g>
<!-- Node17&#45;&gt;Node5 -->
<g id="edge72" class="edge"><title>Node17&#45;&gt;Node5</title>
<path style="fill:none;stroke:midnightblue;" d="M412,-336C402,-321 381,-295 359,-280 324,-255 308,-264 272,-244 201,-203 165,-203 124,-132 116,-118 115,-100 115,-86"/>
<polygon style="fill:midnightblue;stroke:midnightblue;" points="118.488,-86.2987 116,-76 111.522,-85.6021 118.488,-86.2987"/>
</g>
<!-- Node17&#45;&gt;Node6 -->
<g id="edge76" class="edge"><title>Node17&#45;&gt;Node6</title>
<path style="fill:none;stroke:midnightblue;" d="M402,-336C387,-328 366,-315 349,-305"/>
<polygon style="fill:midnightblue;stroke:midnightblue;" points="350.441,-301.797 340,-300 347.042,-307.916 350.441,-301.797"/>
</g>
<!-- Node17&#45;&gt;Node7 -->
<g id="edge78" class="edge"><title>Node17&#45;&gt;Node7</title>
<path style="fill:none;stroke:midnightblue;" d="M417,-336C414,-321 407,-295 392,-280 361,-249 337,-269 302,-244 275,-224 265,-218 254,-188 248,-173 251,-155 255,-142"/>
<polygon style="fill:midnightblue;stroke:midnightblue;" points="258.536,-142.585 259,-132 252.036,-139.985 258.536,-142.585"/>
</g>
<!-- Node18 -->
<g id="node58" class="node"><title>Node18</title>
<a xlink:href="data__set_8h.html" target="_top" xlink:title="ltr/data/data_set.h">
<polygon style="fill:white;stroke:black;" points="620,-280 620,-300 715,-300 715,-280 620,-280"/>
<text text-anchor="middle" x="667" y="-287" style="font-family:Arial;font-size:10.00;">ltr/data/data_set.h</text>
</a>
</g>
<!-- Node17&#45;&gt;Node18 -->
<g id="edge80" class="edge"><title>Node17&#45;&gt;Node18</title>
<path style="fill:none;stroke:midnightblue;" d="M463,-336C505,-327 568,-312 613,-302"/>
<polygon style="fill:midnightblue;stroke:midnightblue;" points="613.881,-305.393 623,-300 612.508,-298.529 613.881,-305.393"/>
</g>
<!-- Node29 -->
<g id="node102" class="node"><title>Node29</title>
<a xlink:href="murmur__hash_8h.html" target="_top" xlink:title="ltr/utility/murmur_hash.h">
<polygon style="fill:white;stroke:black;" points="444,-280 444,-300 565,-300 565,-280 444,-280"/>
<text text-anchor="middle" x="504" y="-287" style="font-family:Arial;font-size:10.00;">ltr/utility/murmur_hash.h</text>
</a>
</g>
<!-- Node17&#45;&gt;Node29 -->
<g id="edge146" class="edge"><title>Node17&#45;&gt;Node29</title>
<path style="fill:none;stroke:midnightblue;" d="M434,-336C447,-328 465,-315 480,-306"/>
<polygon style="fill:midnightblue;stroke:midnightblue;" points="482.621,-308.459 489,-300 478.738,-302.635 482.621,-308.459"/>
</g>
<!-- Node18&#45;&gt;Node4 -->
<g id="edge86" class="edge"><title>Node18&#45;&gt;Node4</title>
<path style="fill:none;stroke:midnightblue;" d="M715,-286C836,-276 1144,-245 1229,-188 1275,-156 1277,-131 1290,-76 1291,-67 1296,-62 1290,-56 1256,-18 903,-11 795,-10"/>
<polygon style="fill:midnightblue;stroke:midnightblue;" points="795,-6.5001 785,-10 795,-13.5001 795,-6.5001"/>
</g>
<!-- Node18&#45;&gt;Node5 -->
<g id="edge88" class="edge"><title>Node18&#45;&gt;Node5</title>
<path style="fill:none;stroke:midnightblue;" d="M620,-284C524,-273 317,-249 302,-244 217,-215 186,-205 136,-132 127,-118 122,-100 120,-86"/>
<polygon style="fill:midnightblue;stroke:midnightblue;" points="123.393,-85.1194 118,-76 116.529,-86.4922 123.393,-85.1194"/>
</g>
<!-- Node18&#45;&gt;Node7 -->
<g id="edge90" class="edge"><title>Node18&#45;&gt;Node7</title>
<path style="fill:none;stroke:midnightblue;" d="M620,-285C547,-277 409,-260 363,-244 316,-227 292,-230 267,-188 258,-174 258,-156 259,-142"/>
<polygon style="fill:midnightblue;stroke:midnightblue;" points="262.471,-142.492 261,-132 255.607,-141.119 262.471,-142.492"/>
</g>
<!-- Node18&#45;&gt;Node9 -->
<g id="edge84" class="edge"><title>Node18&#45;&gt;Node9</title>
<path style="fill:none;stroke:midnightblue;" d="M667,-280C666,-245 664,-133 663,-86"/>
<polygon style="fill:midnightblue;stroke:midnightblue;" points="666.5,-86 663,-76 659.5,-86 666.5,-86"/>
</g>
<!-- Node18&#45;&gt;Node15 -->
<g id="edge94" class="edge"><title>Node18&#45;&gt;Node15</title>
<path style="fill:none;stroke:midnightblue;" d="M660,-280C649,-266 628,-240 606,-224 587,-210 564,-200 545,-192"/>
<polygon style="fill:midnightblue;stroke:midnightblue;" points="545.585,-188.464 535,-188 542.985,-194.964 545.585,-188.464"/>
</g>
<!-- Node18&#45;&gt;Node16 -->
<g id="edge92" class="edge"><title>Node18&#45;&gt;Node16</title>
<path style="fill:none;stroke:midnightblue;" d="M620,-284C545,-275 406,-256 387,-244 370,-233 359,-213 352,-198"/>
<polygon style="fill:midnightblue;stroke:midnightblue;" points="354.964,-195.985 348,-188 348.464,-198.585 354.964,-195.985"/>
</g>
<!-- Node19 -->
<g id="node60" class="node"><title>Node19</title>
<polygon style="fill:white;stroke:#bfbfbf;" points="858,-224 858,-244 909,-244 909,-224 858,-224"/>
<text text-anchor="middle" x="883" y="-231" style="font-family:Arial;font-size:10.00;">sstream</text>
</g>
<!-- Node18&#45;&gt;Node19 -->
<g id="edge82" class="edge"><title>Node18&#45;&gt;Node19</title>
<path style="fill:none;stroke:midnightblue;" d="M707,-280C742,-272 794,-259 848,-244"/>
<polygon style="fill:midnightblue;stroke:midnightblue;" points="849.427,-247.226 858,-241 847.416,-240.521 849.427,-247.226"/>
</g>
<!-- Node20 -->
<g id="node68" class="node"><title>Node20</title>
<a xlink:href="feature__info_8h.html" target="_top" xlink:title="ltr/data/feature_info.h">
<polygon style="fill:white;stroke:black;" points="734,-224 734,-244 841,-244 841,-224 734,-224"/>
<text text-anchor="middle" x="787" y="-231" style="font-family:Arial;font-size:10.00;">ltr/data/feature_info.h</text>
</a>
</g>
<!-- Node18&#45;&gt;Node20 -->
<g id="edge96" class="edge"><title>Node18&#45;&gt;Node20</title>
<path style="fill:none;stroke:midnightblue;" d="M688,-280C707,-271 734,-258 756,-248"/>
<polygon style="fill:midnightblue;stroke:midnightblue;" points="757.283,-251.26 765,-244 754.44,-244.863 757.283,-251.26"/>
</g>
<!-- Node27 -->
<g id="node92" class="node"><title>Node27</title>
<a xlink:href="per__object__accessor_8h.html" target="_top" xlink:title="ltr/data/per_object_accessor.h">
<polygon style="fill:white;stroke:black;" points="396,-224 396,-244 543,-244 543,-224 396,-224"/>
<text text-anchor="middle" x="469" y="-231" style="font-family:Arial;font-size:10.00;">ltr/data/per_object_accessor.h</text>
</a>
</g>
<!-- Node18&#45;&gt;Node27 -->
<g id="edge130" class="edge"><title>Node18&#45;&gt;Node27</title>
<path style="fill:none;stroke:midnightblue;" d="M632,-280C599,-271 550,-257 515,-247"/>
<polygon style="fill:midnightblue;stroke:midnightblue;" points="515.584,-243.521 505,-244 513.573,-250.226 515.584,-243.521"/>
</g>
<!-- Node28 -->
<g id="node99" class="node"><title>Node28</title>
<a xlink:href="aliaser_8h.html" target="_top" xlink:title="ltr/interfaces/aliaser.h">
<polygon style="fill:white;stroke:black;" points="741,-112 741,-132 849,-132 849,-112 741,-112"/>
<text text-anchor="middle" x="795" y="-119" style="font-family:Arial;font-size:10.00;">ltr/interfaces/aliaser.h</text>
</a>
</g>
<!-- Node18&#45;&gt;Node28 -->
<g id="edge142" class="edge"><title>Node18&#45;&gt;Node28</title>
<path style="fill:none;stroke:midnightblue;" d="M675,-280C695,-252 754,-175 781,-140"/>
<polygon style="fill:midnightblue;stroke:midnightblue;" points="783.8,-142.1 787,-132 778.2,-137.9 783.8,-142.1"/>
</g>
<!-- Node20&#45;&gt;Node3 -->
<g id="edge98" class="edge"><title>Node20&#45;&gt;Node3</title>
<path style="fill:none;stroke:midnightblue;" d="M841,-225C844,-225 846,-224 849,-224 928,-213 1143,-234 1209,-188 1242,-163 1256,-114 1261,-86"/>
<polygon style="fill:midnightblue;stroke:midnightblue;" points="1264.47,-86.4922 1263,-76 1257.61,-85.1194 1264.47,-86.4922"/>
</g>
<!-- Node20&#45;&gt;Node4 -->
<g id="edge100" class="edge"><title>Node20&#45;&gt;Node4</title>
<path style="fill:none;stroke:midnightblue;" d="M835,-224C932,-203 1150,-154 1176,-132 1202,-108 1223,-82 1200,-56 1172,-25 889,-14 795,-11"/>
<polygon style="fill:midnightblue;stroke:midnightblue;" points="795,-7.5001 785,-11 795,-14.5001 795,-7.5001"/>
</g>
<!-- Node20&#45;&gt;Node5 -->
<g id="edge102" class="edge"><title>Node20&#45;&gt;Node5</title>
<path style="fill:none;stroke:midnightblue;" d="M734,-231C623,-225 368,-209 285,-188 223,-172 201,-174 153,-132 139,-119 130,-100 124,-85"/>
<polygon style="fill:midnightblue;stroke:midnightblue;" points="127.26,-83.7166 120,-76 120.863,-86.5596 127.26,-83.7166"/>
</g>
<!-- Node20&#45;&gt;Node11 -->
<g id="edge128" class="edge"><title>Node20&#45;&gt;Node11</title>
<path style="fill:none;stroke:midnightblue;" d="M769,-224C717,-195 568,-114 506,-81"/>
<polygon style="fill:midnightblue;stroke:midnightblue;" points="507.441,-77.7969 497,-76 504.042,-83.916 507.441,-77.7969"/>
</g>
<!-- Node21 -->
<g id="node73" class="node"><title>Node21</title>
<a xlink:href="parameterized_8h.html" target="_top" xlink:title="ltr/interfaces/parameterized.h">
<polygon style="fill:white;stroke:black;" points="806,-168 806,-188 948,-188 948,-168 806,-168"/>
<text text-anchor="middle" x="877" y="-175" style="font-family:Arial;font-size:10.00;">ltr/interfaces/parameterized.h</text>
</a>
</g>
<!-- Node20&#45;&gt;Node21 -->
<g id="edge104" class="edge"><title>Node20&#45;&gt;Node21</title>
<path style="fill:none;stroke:midnightblue;" d="M803,-224C816,-216 836,-203 852,-193"/>
<polygon style="fill:midnightblue;stroke:midnightblue;" points="853.958,-195.916 861,-188 850.559,-189.797 853.958,-195.916"/>
</g>
<!-- Node21&#45;&gt;Node4 -->
<g id="edge108" class="edge"><title>Node21&#45;&gt;Node4</title>
<path style="fill:none;stroke:midnightblue;" d="M880,-168C884,-154 889,-129 878,-112 852,-75 814,-108 784,-76 772,-63 768,-45 766,-30"/>
<polygon style="fill:midnightblue;stroke:midnightblue;" points="769.478,-29.6021 765,-20 762.512,-30.2987 769.478,-29.6021"/>
</g>
<!-- Node21&#45;&gt;Node9 -->
<g id="edge106" class="edge"><title>Node21&#45;&gt;Node9</title>
<path style="fill:none;stroke:midnightblue;" d="M877,-168C877,-153 873,-127 858,-112 836,-90 754,-77 703,-70"/>
<polygon style="fill:midnightblue;stroke:midnightblue;" points="703.299,-66.5125 693,-69 702.602,-73.4778 703.299,-66.5125"/>
</g>
<!-- Node22 -->
<g id="node77" class="node"><title>Node22</title>
<a xlink:href="parameters__container_8h.html" target="_top" xlink:title="ltr/parameters_container/parameters_container.h">
<polygon style="fill:white;stroke:black;" points="943,-112 943,-132 1168,-132 1168,-112 943,-112"/>
<text text-anchor="middle" x="1055" y="-119" style="font-family:Arial;font-size:10.00;">ltr/parameters_container/parameters_container.h</text>
</a>
</g>
<!-- Node21&#45;&gt;Node22 -->
<g id="edge110" class="edge"><title>Node21&#45;&gt;Node22</title>
<path style="fill:none;stroke:midnightblue;" d="M909,-168C938,-159 981,-145 1013,-135"/>
<polygon style="fill:midnightblue;stroke:midnightblue;" points="1014.43,-138.226 1023,-132 1012.42,-131.521 1014.43,-138.226"/>
</g>
<!-- Node22&#45;&gt;Node4 -->
<g id="edge118" class="edge"><title>Node22&#45;&gt;Node4</title>
<path style="fill:none;stroke:midnightblue;" d="M1053,-112C1050,-97 1042,-69 1024,-56 988,-29 855,-16 795,-12"/>
<polygon style="fill:midnightblue;stroke:midnightblue;" points="795.299,-8.5125 785,-11 794.602,-15.4778 795.299,-8.5125"/>
</g>
<!-- Node22&#45;&gt;Node9 -->
<g id="edge116" class="edge"><title>Node22&#45;&gt;Node9</title>
<path style="fill:none;stroke:midnightblue;" d="M985,-112C902,-101 769,-81 703,-71"/>
<polygon style="fill:midnightblue;stroke:midnightblue;" points="703.299,-67.5125 693,-70 702.602,-74.4778 703.299,-67.5125"/>
</g>
<!-- Node22&#45;&gt;Node10 -->
<g id="edge126" class="edge"><title>Node22&#45;&gt;Node10</title>
<path style="fill:none;stroke:midnightblue;" d="M943,-116C817,-110 608,-96 418,-76"/>
<polygon style="fill:midnightblue;stroke:midnightblue;" points="418.299,-72.5125 408,-75 417.602,-79.4778 418.299,-72.5125"/>
</g>
<!-- Node22&#45;&gt;Node11 -->
<g id="edge124" class="edge"><title>Node22&#45;&gt;Node11</title>
<path style="fill:none;stroke:midnightblue;" d="M952,-112C833,-100 642,-82 542,-72"/>
<polygon style="fill:midnightblue;stroke:midnightblue;" points="542.299,-68.5125 532,-71 541.602,-75.4778 542.299,-68.5125"/>
</g>
<!-- Node23 -->
<g id="node79" class="node"><title>Node23</title>
<polygon style="fill:white;stroke:#bfbfbf;" points="1071,-56 1071,-76 1145,-76 1145,-56 1071,-56"/>
<text text-anchor="middle" x="1108" y="-63" style="font-family:Arial;font-size:10.00;">logog/logog.h</text>
</g>
<!-- Node22&#45;&gt;Node23 -->
<g id="edge112" class="edge"><title>Node22&#45;&gt;Node23</title>
<path style="fill:none;stroke:midnightblue;" d="M1064,-112C1072,-104 1083,-93 1091,-84"/>
<polygon style="fill:midnightblue;stroke:midnightblue;" points="1094.05,-85.8306 1098,-76 1088.78,-81.221 1094.05,-85.8306"/>
</g>
<!-- Node24 -->
<g id="node81" class="node"><title>Node24</title>
<polygon style="fill:white;stroke:#bfbfbf;" points="1163,-56 1163,-76 1192,-76 1192,-56 1163,-56"/>
<text text-anchor="middle" x="1177" y="-63" style="font-family:Arial;font-size:10.00;">list</text>
</g>
<!-- Node22&#45;&gt;Node24 -->
<g id="edge114" class="edge"><title>Node22&#45;&gt;Node24</title>
<path style="fill:none;stroke:midnightblue;" d="M1077,-112C1099,-102 1131,-87 1154,-77"/>
<polygon style="fill:midnightblue;stroke:midnightblue;" points="1155.28,-80.2598 1163,-73 1152.44,-73.8631 1155.28,-80.2598"/>
</g>
<!-- Node25 -->
<g id="node85" class="node"><title>Node25</title>
<polygon style="fill:white;stroke:#bfbfbf;" points="793,-56 793,-76 870,-76 870,-56 793,-56"/>
<text text-anchor="middle" x="831" y="-63" style="font-family:Arial;font-size:10.00;">boost/any.hpp</text>
</g>
<!-- Node22&#45;&gt;Node25 -->
<g id="edge120" class="edge"><title>Node22&#45;&gt;Node25</title>
<path style="fill:none;stroke:midnightblue;" d="M1015,-112C977,-103 920,-88 880,-78"/>
<polygon style="fill:midnightblue;stroke:midnightblue;" points="880.492,-74.5292 870,-76 879.119,-81.3933 880.492,-74.5292"/>
</g>
<!-- Node26 -->
<g id="node87" class="node"><title>Node26</title>
<polygon style="fill:white;stroke:#bfbfbf;" points="887,-56 887,-76 1016,-76 1016,-56 887,-56"/>
<text text-anchor="middle" x="951" y="-63" style="font-family:Arial;font-size:10.00;">boost/unordered_map.hpp</text>
</g>
<!-- Node22&#45;&gt;Node26 -->
<g id="edge122" class="edge"><title>Node22&#45;&gt;Node26</title>
<path style="fill:none;stroke:midnightblue;" d="M1036,-112C1020,-104 997,-91 979,-81"/>
<polygon style="fill:midnightblue;stroke:midnightblue;" points="980.441,-77.7969 970,-76 977.042,-83.916 980.441,-77.7969"/>
</g>
<!-- Node27&#45;&gt;Node7 -->
<g id="edge132" class="edge"><title>Node27&#45;&gt;Node7</title>
<path style="fill:none;stroke:midnightblue;" d="M402,-224C356,-216 302,-204 285,-188 272,-176 267,-157 265,-142"/>
<polygon style="fill:midnightblue;stroke:midnightblue;" points="268.393,-141.119 263,-132 261.529,-142.492 268.393,-141.119"/>
</g>
<!-- Node27&#45;&gt;Node11 -->
<g id="edge140" class="edge"><title>Node27&#45;&gt;Node11</title>
<path style="fill:none;stroke:midnightblue;" d="M461,-224C455,-215 446,-201 443,-188 433,-151 452,-109 466,-85"/>
<polygon style="fill:midnightblue;stroke:midnightblue;" points="469.203,-86.4414 471,-76 463.084,-83.0418 469.203,-86.4414"/>
</g>
<!-- Node27&#45;&gt;Node15 -->
<g id="edge134" class="edge"><title>Node27&#45;&gt;Node15</title>
<path style="fill:none;stroke:midnightblue;" d="M475,-224C480,-217 486,-206 492,-197"/>
<polygon style="fill:midnightblue;stroke:midnightblue;" points="495.203,-198.441 497,-188 489.084,-195.042 495.203,-198.441"/>
</g>
<!-- Node27&#45;&gt;Node16 -->
<g id="edge136" class="edge"><title>Node27&#45;&gt;Node16</title>
<path style="fill:none;stroke:midnightblue;" d="M447,-224C427,-215 399,-202 376,-192"/>
<polygon style="fill:midnightblue;stroke:midnightblue;" points="377.56,-188.863 367,-188 374.717,-195.26 377.56,-188.863"/>
</g>
<!-- Node27&#45;&gt;Node21 -->
<g id="edge138" class="edge"><title>Node27&#45;&gt;Node21</title>
<path style="fill:none;stroke:midnightblue;" d="M542,-224C613,-214 722,-199 796,-189"/>
<polygon style="fill:midnightblue;stroke:midnightblue;" points="796.398,-192.478 806,-188 795.701,-185.512 796.398,-192.478"/>
</g>
<!-- Node28&#45;&gt;Node4 -->
<g id="edge144" class="edge"><title>Node28&#45;&gt;Node4</title>
<path style="fill:none;stroke:midnightblue;" d="M780,-112C770,-103 757,-91 751,-76 745,-61 749,-43 755,-29"/>
<polygon style="fill:midnightblue;stroke:midnightblue;" points="758.137,-30.5596 759,-20 751.74,-27.7166 758.137,-30.5596"/>
</g>
</g>
</svg>
