<?xml version="1.0" encoding="UTF-8" standalone="no"?>
<!DOCTYPE svg PUBLIC "-//W3C//DTD SVG 1.0//EN"
 "http://www.w3.org/TR/2001/REC-SVG-20010904/DTD/svg10.dtd" [
 <!ATTLIST svg xmlns:xlink CDATA #FIXED "http://www.w3.org/1999/xlink">
]>
<!-- Generated by Graphviz version 2.20.2 (Tue Mar &#160;2 19:03:41 UTC 2010)
     For user: (jenkins)  -->
<!-- Title: G Pages: 1 -->
<svg width="1764pt" height="420pt"
 viewBox="0.00 0.00 1764.00 420.00" xmlns="http://www.w3.org/2000/svg" xmlns:xlink="http://www.w3.org/1999/xlink">
<g id="graph0" class="graph" transform="scale(1 1) rotate(0) translate(4 416)">
<title>G</title>
<polygon style="fill:white;stroke:white;" points="-4,4 -4,-416 1760,-416 1760,4 -4,4"/>
<!-- Node1 -->
<g id="node1" class="node"><title>Node1</title>
<polygon style="fill:#bfbfbf;stroke:black;" points="561,-392 561,-412 722,-412 722,-392 561,-392"/>
<text text-anchor="middle" x="641" y="-399" style="font-family:Arial;font-size:10.00;">ltr/data/utility/parsers/parse_arff.h</text>
</g>
<!-- Node2 -->
<g id="node3" class="node"><title>Node2</title>
<polygon style="fill:white;stroke:#bfbfbf;" points="0,-336 0,-356 182,-356 182,-336 0,-336"/>
<text text-anchor="middle" x="91" y="-343" style="font-family:Arial;font-size:10.00;">boost/spirit/include/classic_parser.hpp</text>
</g>
<!-- Node1&#45;&gt;Node2 -->
<g id="edge2" class="edge"><title>Node1&#45;&gt;Node2</title>
<path style="fill:none;stroke:midnightblue;" d="M561,-394C463,-383 299,-367 192,-356"/>
<polygon style="fill:midnightblue;stroke:midnightblue;" points="192.299,-352.512 182,-355 191.602,-359.478 192.299,-352.512"/>
</g>
<!-- Node3 -->
<g id="node5" class="node"><title>Node3</title>
<polygon style="fill:white;stroke:#bfbfbf;" points="1495,-56 1495,-76 1537,-76 1537,-56 1495,-56"/>
<text text-anchor="middle" x="1516" y="-63" style="font-family:Arial;font-size:10.00;">vector</text>
</g>
<!-- Node1&#45;&gt;Node3 -->
<g id="edge4" class="edge"><title>Node1&#45;&gt;Node3</title>
<path style="fill:none;stroke:midnightblue;" d="M722,-398C979,-385 1756,-342 1756,-290 1756,-290 1756,-290 1756,-178 1756,-132 1612,-90 1547,-74"/>
<polygon style="fill:midnightblue;stroke:midnightblue;" points="1547.58,-70.5212 1537,-71 1545.57,-77.2259 1547.58,-70.5212"/>
</g>
<!-- Node4 -->
<g id="node7" class="node"><title>Node4</title>
<polygon style="fill:white;stroke:#bfbfbf;" points="404,-56 404,-76 439,-76 439,-56 404,-56"/>
<text text-anchor="middle" x="421" y="-63" style="font-family:Arial;font-size:10.00;">map</text>
</g>
<!-- Node1&#45;&gt;Node4 -->
<g id="edge6" class="edge"><title>Node1&#45;&gt;Node4</title>
<path style="fill:none;stroke:midnightblue;" d="M628,-392C598,-369 525,-309 484,-244 452,-192 433,-121 425,-86"/>
<polygon style="fill:midnightblue;stroke:midnightblue;" points="428.393,-85.1194 423,-76 421.529,-86.4922 428.393,-85.1194"/>
</g>
<!-- Node5 -->
<g id="node9" class="node"><title>Node5</title>
<polygon style="fill:white;stroke:#bfbfbf;" points="724,-0 724,-20 764,-20 764,-0 724,-0"/>
<text text-anchor="middle" x="744" y="-7" style="font-family:Arial;font-size:10.00;">string</text>
</g>
<!-- Node1&#45;&gt;Node5 -->
<g id="edge8" class="edge"><title>Node1&#45;&gt;Node5</title>
<path style="fill:none;stroke:midnightblue;" d="M561,-397C436,-388 210,-361 210,-290 210,-290 210,-290 210,-122 210,-82 235,-73 270,-56 310,-36 616,-17 714,-12"/>
<polygon style="fill:midnightblue;stroke:midnightblue;" points="714.398,-15.4778 724,-11 713.701,-8.5125 714.398,-15.4778"/>
</g>
<!-- Node6 -->
<g id="node11" class="node"><title>Node6</title>
<polygon style="fill:white;stroke:#bfbfbf;" points="1119,-336 1119,-356 1149,-356 1149,-336 1119,-336"/>
<text text-anchor="middle" x="1134" y="-343" style="font-family:Arial;font-size:10.00;">set</text>
</g>
<!-- Node1&#45;&gt;Node6 -->
<g id="edge10" class="edge"><title>Node1&#45;&gt;Node6</title>
<path style="fill:none;stroke:midnightblue;" d="M722,-397C833,-389 1023,-375 1109,-355"/>
<polygon style="fill:midnightblue;stroke:midnightblue;" points="1109.88,-358.393 1119,-353 1108.51,-351.529 1109.88,-358.393"/>
</g>
<!-- Node7 -->
<g id="node13" class="node"><title>Node7</title>
<a xlink:href="parser_8h.html" target="_top" xlink:title="ltr/data/utility/parsers/parser.h">
<polygon style="fill:white;stroke:black;" points="957,-336 957,-356 1102,-356 1102,-336 957,-336"/>
<text text-anchor="middle" x="1029" y="-343" style="font-family:Arial;font-size:10.00;">ltr/data/utility/parsers/parser.h</text>
</a>
</g>
<!-- Node1&#45;&gt;Node7 -->
<g id="edge12" class="edge"><title>Node1&#45;&gt;Node7</title>
<path style="fill:none;stroke:midnightblue;" d="M710,-392C778,-382 879,-367 950,-357"/>
<polygon style="fill:midnightblue;stroke:midnightblue;" points="950.398,-360.478 960,-356 949.701,-353.512 950.398,-360.478"/>
</g>
<!-- Node7&#45;&gt;Node3 -->
<g id="edge18" class="edge"><title>Node7&#45;&gt;Node3</title>
<path style="fill:none;stroke:midnightblue;" d="M1091,-336C1132,-328 1186,-316 1233,-300 1337,-262 1366,-253 1457,-188 1485,-167 1497,-163 1512,-132 1518,-118 1519,-100 1518,-86"/>
<polygon style="fill:midnightblue;stroke:midnightblue;" points="1521.48,-85.6021 1517,-76 1514.51,-86.2987 1521.48,-85.6021"/>
</g>
<!-- Node7&#45;&gt;Node4 -->
<g id="edge16" class="edge"><title>Node7&#45;&gt;Node4</title>
<path style="fill:none;stroke:midnightblue;" d="M957,-338C810,-322 488,-281 488,-234 488,-234 488,-234 488,-178 488,-146 481,-138 464,-112 458,-101 449,-91 440,-83"/>
<polygon style="fill:midnightblue;stroke:midnightblue;" points="442.546,-80.5962 433,-76 437.596,-85.546 442.546,-80.5962"/>
</g>
<!-- Node7&#45;&gt;Node5 -->
<g id="edge20" class="edge"><title>Node7&#45;&gt;Node5</title>
<path style="fill:none;stroke:midnightblue;" d="M957,-344C869,-340 717,-329 589,-300 433,-264 248,-338 248,-178 248,-178 248,-178 248,-122 248,-78 280,-73 319,-56 390,-23 629,-14 714,-10"/>
<polygon style="fill:midnightblue;stroke:midnightblue;" points="714,-13.5001 724,-10 714,-6.5001 714,-13.5001"/>
</g>
<!-- Node8 -->
<g id="node15" class="node"><title>Node8</title>
<polygon style="fill:white;stroke:#bfbfbf;" points="1018,-280 1018,-300 1192,-300 1192,-280 1018,-280"/>
<text text-anchor="middle" x="1105" y="-287" style="font-family:Arial;font-size:10.00;">boost/spirit/include/classic_core.hpp</text>
</g>
<!-- Node7&#45;&gt;Node8 -->
<g id="edge14" class="edge"><title>Node7&#45;&gt;Node8</title>
<path style="fill:none;stroke:midnightblue;" d="M1043,-336C1054,-328 1070,-316 1083,-306"/>
<polygon style="fill:midnightblue;stroke:midnightblue;" points="1085.1,-308.8 1091,-300 1080.9,-303.2 1085.1,-308.8"/>
</g>
<!-- Node9 -->
<g id="node20" class="node"><title>Node9</title>
<polygon style="fill:white;stroke:#bfbfbf;" points="1536,-280 1536,-300 1590,-300 1590,-280 1536,-280"/>
<text text-anchor="middle" x="1563" y="-287" style="font-family:Arial;font-size:10.00;">iostream</text>
</g>
<!-- Node7&#45;&gt;Node9 -->
<g id="edge22" class="edge"><title>Node7&#45;&gt;Node9</title>
<path style="fill:none;stroke:midnightblue;" d="M1102,-337C1105,-336 1107,-336 1110,-336 1292,-316 1340,-329 1522,-300 1523,-300 1525,-299 1526,-299"/>
<polygon style="fill:midnightblue;stroke:midnightblue;" points="1526.88,-302.393 1536,-297 1525.51,-295.529 1526.88,-302.393"/>
</g>
<!-- Node10 -->
<g id="node22" class="node"><title>Node10</title>
<a xlink:href="object_8h.html" target="_top" xlink:title="ltr/data/object.h">
<polygon style="fill:white;stroke:black;" points="1328,-112 1328,-132 1412,-132 1412,-112 1328,-112"/>
<text text-anchor="middle" x="1370" y="-119" style="font-family:Arial;font-size:10.00;">ltr/data/object.h</text>
</a>
</g>
<!-- Node7&#45;&gt;Node10 -->
<g id="edge24" class="edge"><title>Node7&#45;&gt;Node10</title>
<path style="fill:none;stroke:midnightblue;" d="M1083,-336C1118,-328 1163,-317 1201,-300 1281,-263 1323,-265 1367,-188 1375,-174 1375,-156 1373,-142"/>
<polygon style="fill:midnightblue;stroke:midnightblue;" points="1376.48,-141.602 1372,-132 1369.51,-142.299 1376.48,-141.602"/>
</g>
<!-- Node18 -->
<g id="node43" class="node"><title>Node18</title>
<a xlink:href="data__set_8h.html" target="_top" xlink:title="ltr/data/data_set.h">
<polygon style="fill:white;stroke:black;" points="906,-280 906,-300 1001,-300 1001,-280 906,-280"/>
<text text-anchor="middle" x="953" y="-287" style="font-family:Arial;font-size:10.00;">ltr/data/data_set.h</text>
</a>
</g>
<!-- Node7&#45;&gt;Node18 -->
<g id="edge50" class="edge"><title>Node7&#45;&gt;Node18</title>
<path style="fill:none;stroke:midnightblue;" d="M1015,-336C1004,-328 988,-316 975,-306"/>
<polygon style="fill:midnightblue;stroke:midnightblue;" points="977.1,-303.2 967,-300 972.9,-308.8 977.1,-303.2"/>
</g>
<!-- Node31 -->
<g id="node101" class="node"><title>Node31</title>
<a xlink:href="murmur__hash_8h.html" target="_top" xlink:title="ltr/utility/murmur_hash.h">
<polygon style="fill:white;stroke:black;" points="1608,-280 1608,-300 1729,-300 1729,-280 1608,-280"/>
<text text-anchor="middle" x="1668" y="-287" style="font-family:Arial;font-size:10.00;">ltr/utility/murmur_hash.h</text>
</a>
</g>
<!-- Node7&#45;&gt;Node31 -->
<g id="edge140" class="edge"><title>Node7&#45;&gt;Node31</title>
<path style="fill:none;stroke:midnightblue;" d="M1102,-337C1105,-336 1107,-336 1110,-336 1323,-314 1380,-323 1598,-300"/>
<polygon style="fill:midnightblue;stroke:midnightblue;" points="1598.4,-303.478 1608,-299 1597.7,-296.512 1598.4,-303.478"/>
</g>
<!-- Node10&#45;&gt;Node3 -->
<g id="edge34" class="edge"><title>Node10&#45;&gt;Node3</title>
<path style="fill:none;stroke:midnightblue;" d="M1396,-112C1421,-102 1459,-88 1485,-78"/>
<polygon style="fill:midnightblue;stroke:midnightblue;" points="1487.02,-80.9636 1495,-74 1484.42,-74.4643 1487.02,-80.9636"/>
</g>
<!-- Node10&#45;&gt;Node4 -->
<g id="edge26" class="edge"><title>Node10&#45;&gt;Node4</title>
<path style="fill:none;stroke:midnightblue;" d="M1328,-121C1201,-119 808,-109 485,-76 474,-74 460,-73 449,-71"/>
<polygon style="fill:midnightblue;stroke:midnightblue;" points="449.492,-67.5292 439,-69 448.119,-74.3933 449.492,-67.5292"/>
</g>
<!-- Node10&#45;&gt;Node5 -->
<g id="edge32" class="edge"><title>Node10&#45;&gt;Node5</title>
<path style="fill:none;stroke:midnightblue;" d="M1370,-112C1370,-97 1367,-69 1351,-56 1328,-37 894,-16 774,-11"/>
<polygon style="fill:midnightblue;stroke:midnightblue;" points="774,-7.5001 764,-11 774,-14.5001 774,-7.5001"/>
</g>
<!-- Node11 -->
<g id="node25" class="node"><title>Node11</title>
<polygon style="fill:white;stroke:#bfbfbf;" points="1383,-0 1383,-20 1434,-20 1434,-0 1383,-0"/>
<text text-anchor="middle" x="1408" y="-7" style="font-family:Arial;font-size:10.00;">ostream</text>
</g>
<!-- Node10&#45;&gt;Node11 -->
<g id="edge28" class="edge"><title>Node10&#45;&gt;Node11</title>
<path style="fill:none;stroke:midnightblue;" d="M1374,-112C1380,-93 1393,-54 1402,-30"/>
<polygon style="fill:midnightblue;stroke:midnightblue;" points="1405.48,-30.584 1405,-20 1398.77,-28.5725 1405.48,-30.584"/>
</g>
<!-- Node12 -->
<g id="node27" class="node"><title>Node12</title>
<polygon style="fill:white;stroke:#bfbfbf;" points="948,-56 948,-76 1007,-76 1007,-56 948,-56"/>
<text text-anchor="middle" x="977" y="-63" style="font-family:Arial;font-size:10.00;">stdexcept</text>
</g>
<!-- Node10&#45;&gt;Node12 -->
<g id="edge30" class="edge"><title>Node10&#45;&gt;Node12</title>
<path style="fill:none;stroke:midnightblue;" d="M1328,-116C1253,-105 1092,-82 1017,-71"/>
<polygon style="fill:midnightblue;stroke:midnightblue;" points="1017.3,-67.5125 1007,-70 1016.6,-74.4778 1017.3,-67.5125"/>
</g>
<!-- Node13 -->
<g id="node31" class="node"><title>Node13</title>
<a xlink:href="printable_8h.html" target="_top" xlink:title="ltr/interfaces/printable.h">
<polygon style="fill:white;stroke:black;" points="1226,-56 1226,-76 1343,-76 1343,-56 1226,-56"/>
<text text-anchor="middle" x="1284" y="-63" style="font-family:Arial;font-size:10.00;">ltr/interfaces/printable.h</text>
</a>
</g>
<!-- Node10&#45;&gt;Node13 -->
<g id="edge36" class="edge"><title>Node10&#45;&gt;Node13</title>
<path style="fill:none;stroke:midnightblue;" d="M1355,-112C1342,-104 1323,-91 1308,-82"/>
<polygon style="fill:midnightblue;stroke:midnightblue;" points="1310.1,-79.2 1300,-76 1305.9,-84.8 1310.1,-79.2"/>
</g>
<!-- Node14 -->
<g id="node35" class="node"><title>Node14</title>
<a xlink:href="shared__ptr_8h.html" target="_top" xlink:title="ltr/utility/shared_ptr.h">
<polygon style="fill:white;stroke:black;" points="1102,-56 1102,-76 1209,-76 1209,-56 1102,-56"/>
<text text-anchor="middle" x="1155" y="-63" style="font-family:Arial;font-size:10.00;">ltr/utility/shared_ptr.h</text>
</a>
</g>
<!-- Node10&#45;&gt;Node14 -->
<g id="edge42" class="edge"><title>Node10&#45;&gt;Node14</title>
<path style="fill:none;stroke:midnightblue;" d="M1332,-112C1296,-103 1243,-89 1204,-79"/>
<polygon style="fill:midnightblue;stroke:midnightblue;" points="1204.58,-75.5212 1194,-76 1202.57,-82.2259 1204.58,-75.5212"/>
</g>
<!-- Node13&#45;&gt;Node5 -->
<g id="edge40" class="edge"><title>Node13&#45;&gt;Node5</title>
<path style="fill:none;stroke:midnightblue;" d="M1226,-57C1223,-57 1220,-56 1217,-56 1050,-35 850,-19 774,-13"/>
<polygon style="fill:midnightblue;stroke:midnightblue;" points="774.299,-9.5125 764,-12 773.602,-16.4778 774.299,-9.5125"/>
</g>
<!-- Node13&#45;&gt;Node11 -->
<g id="edge38" class="edge"><title>Node13&#45;&gt;Node11</title>
<path style="fill:none;stroke:midnightblue;" d="M1306,-56C1326,-47 1354,-34 1377,-24"/>
<polygon style="fill:midnightblue;stroke:midnightblue;" points="1378.28,-27.2598 1386,-20 1375.44,-20.8631 1378.28,-27.2598"/>
</g>
<!-- Node15 -->
<g id="node37" class="node"><title>Node15</title>
<polygon style="fill:white;stroke:#bfbfbf;" points="977,-0 977,-20 1033,-20 1033,-0 977,-0"/>
<text text-anchor="middle" x="1005" y="-7" style="font-family:Arial;font-size:10.00;">algorithm</text>
</g>
<!-- Node14&#45;&gt;Node15 -->
<g id="edge44" class="edge"><title>Node14&#45;&gt;Node15</title>
<path style="fill:none;stroke:midnightblue;" d="M1128,-56C1104,-47 1068,-34 1042,-24"/>
<polygon style="fill:midnightblue;stroke:midnightblue;" points="1042.58,-20.4643 1032,-20 1039.98,-26.9636 1042.58,-20.4643"/>
</g>
<!-- Node16 -->
<g id="node39" class="node"><title>Node16</title>
<polygon style="fill:white;stroke:#bfbfbf;" points="1051,-0 1051,-20 1158,-20 1158,-0 1051,-0"/>
<text text-anchor="middle" x="1104" y="-7" style="font-family:Arial;font-size:10.00;">boost/shared_ptr.hpp</text>
</g>
<!-- Node14&#45;&gt;Node16 -->
<g id="edge46" class="edge"><title>Node14&#45;&gt;Node16</title>
<path style="fill:none;stroke:midnightblue;" d="M1146,-56C1139,-48 1129,-37 1120,-27"/>
<polygon style="fill:midnightblue;stroke:midnightblue;" points="1122.55,-24.5962 1113,-20 1117.6,-29.546 1122.55,-24.5962"/>
</g>
<!-- Node17 -->
<g id="node41" class="node"><title>Node17</title>
<polygon style="fill:white;stroke:#bfbfbf;" points="1175,-0 1175,-20 1366,-20 1366,-0 1175,-0"/>
<text text-anchor="middle" x="1270" y="-7" style="font-family:Arial;font-size:10.00;">boost/smart_ptr/detail/operator_bool.hpp</text>
</g>
<!-- Node14&#45;&gt;Node17 -->
<g id="edge48" class="edge"><title>Node14&#45;&gt;Node17</title>
<path style="fill:none;stroke:midnightblue;" d="M1176,-56C1194,-47 1220,-34 1240,-25"/>
<polygon style="fill:midnightblue;stroke:midnightblue;" points="1241.96,-27.916 1249,-20 1238.56,-21.7969 1241.96,-27.916"/>
</g>
<!-- Node18&#45;&gt;Node3 -->
<g id="edge58" class="edge"><title>Node18&#45;&gt;Node3</title>
<path style="fill:none;stroke:midnightblue;" d="M1001,-281C1004,-281 1006,-280 1009,-280 1125,-261 1159,-278 1272,-244 1377,-211 1422,-216 1495,-132 1505,-119 1511,-100 1513,-86"/>
<polygon style="fill:midnightblue;stroke:midnightblue;" points="1516.47,-86.4922 1515,-76 1509.61,-85.1194 1516.47,-86.4922"/>
</g>
<!-- Node18&#45;&gt;Node5 -->
<g id="edge56" class="edge"><title>Node18&#45;&gt;Node5</title>
<path style="fill:none;stroke:midnightblue;" d="M906,-286C769,-274 377,-231 305,-132 273,-86 332,-74 376,-56 438,-30 637,-16 714,-12"/>
<polygon style="fill:midnightblue;stroke:midnightblue;" points="714.398,-15.4778 724,-11 713.701,-8.5125 714.398,-15.4778"/>
</g>
<!-- Node18&#45;&gt;Node10 -->
<g id="edge60" class="edge"><title>Node18&#45;&gt;Node10</title>
<path style="fill:none;stroke:midnightblue;" d="M1001,-281C1004,-281 1006,-280 1009,-280 1106,-263 1134,-273 1229,-244 1285,-226 1311,-232 1350,-188 1361,-175 1366,-156 1368,-142"/>
<polygon style="fill:midnightblue;stroke:midnightblue;" points="1371.49,-142.299 1369,-132 1364.52,-141.602 1371.49,-142.299"/>
</g>
<!-- Node18&#45;&gt;Node12 -->
<g id="edge54" class="edge"><title>Node18&#45;&gt;Node12</title>
<path style="fill:none;stroke:midnightblue;" d="M954,-280C958,-245 970,-132 975,-86"/>
<polygon style="fill:midnightblue;stroke:midnightblue;" points="978.488,-86.2987 976,-76 971.522,-85.6021 978.488,-86.2987"/>
</g>
<!-- Node19 -->
<g id="node45" class="node"><title>Node19</title>
<polygon style="fill:white;stroke:#bfbfbf;" points="718,-224 718,-244 769,-244 769,-224 718,-224"/>
<text text-anchor="middle" x="743" y="-231" style="font-family:Arial;font-size:10.00;">sstream</text>
</g>
<!-- Node18&#45;&gt;Node19 -->
<g id="edge52" class="edge"><title>Node18&#45;&gt;Node19</title>
<path style="fill:none;stroke:midnightblue;" d="M914,-280C880,-272 830,-259 779,-244"/>
<polygon style="fill:midnightblue;stroke:midnightblue;" points="779.584,-240.521 769,-241 777.573,-247.226 779.584,-240.521"/>
</g>
<!-- Node20 -->
<g id="node51" class="node"><title>Node20</title>
<a xlink:href="object__list_8h.html" target="_top" xlink:title="ltr/data/object_list.h">
<polygon style="fill:white;stroke:black;" points="1059,-168 1059,-188 1161,-188 1161,-168 1059,-168"/>
<text text-anchor="middle" x="1110" y="-175" style="font-family:Arial;font-size:10.00;">ltr/data/object_list.h</text>
</a>
</g>
<!-- Node18&#45;&gt;Node20 -->
<g id="edge62" class="edge"><title>Node18&#45;&gt;Node20</title>
<path style="fill:none;stroke:midnightblue;" d="M967,-280C985,-267 1017,-244 1045,-224 1059,-214 1074,-202 1087,-194"/>
<polygon style="fill:midnightblue;stroke:midnightblue;" points="1089.1,-196.8 1095,-188 1084.9,-191.2 1089.1,-196.8"/>
</g>
<!-- Node21 -->
<g id="node59" class="node"><title>Node21</title>
<a xlink:href="object__pair_8h.html" target="_top" xlink:title="ltr/data/object_pair.h">
<polygon style="fill:white;stroke:black;" points="1217,-168 1217,-188 1321,-188 1321,-168 1217,-168"/>
<text text-anchor="middle" x="1269" y="-175" style="font-family:Arial;font-size:10.00;">ltr/data/object_pair.h</text>
</a>
</g>
<!-- Node18&#45;&gt;Node21 -->
<g id="edge76" class="edge"><title>Node18&#45;&gt;Node21</title>
<path style="fill:none;stroke:midnightblue;" d="M1001,-281C1075,-268 1208,-244 1209,-244 1229,-232 1246,-212 1257,-196"/>
<polygon style="fill:midnightblue;stroke:midnightblue;" points="1259.8,-198.1 1263,-188 1254.2,-193.9 1259.8,-198.1"/>
</g>
<!-- Node22 -->
<g id="node67" class="node"><title>Node22</title>
<a xlink:href="feature__info_8h.html" target="_top" xlink:title="ltr/data/feature_info.h">
<polygon style="fill:white;stroke:black;" points="786,-224 786,-244 893,-244 893,-224 786,-224"/>
<text text-anchor="middle" x="839" y="-231" style="font-family:Arial;font-size:10.00;">ltr/data/feature_info.h</text>
</a>
</g>
<!-- Node18&#45;&gt;Node22 -->
<g id="edge90" class="edge"><title>Node18&#45;&gt;Node22</title>
<path style="fill:none;stroke:midnightblue;" d="M933,-280C915,-271 889,-258 869,-249"/>
<polygon style="fill:midnightblue;stroke:midnightblue;" points="870.441,-245.797 860,-244 867.042,-251.916 870.441,-245.797"/>
</g>
<!-- Node29 -->
<g id="node91" class="node"><title>Node29</title>
<a xlink:href="per__object__accessor_8h.html" target="_top" xlink:title="ltr/data/per_object_accessor.h">
<polygon style="fill:white;stroke:black;" points="1054,-224 1054,-244 1201,-244 1201,-224 1054,-224"/>
<text text-anchor="middle" x="1127" y="-231" style="font-family:Arial;font-size:10.00;">ltr/data/per_object_accessor.h</text>
</a>
</g>
<!-- Node18&#45;&gt;Node29 -->
<g id="edge124" class="edge"><title>Node18&#45;&gt;Node29</title>
<path style="fill:none;stroke:midnightblue;" d="M984,-280C1013,-271 1055,-257 1086,-247"/>
<polygon style="fill:midnightblue;stroke:midnightblue;" points="1087.43,-250.226 1096,-244 1085.42,-243.521 1087.43,-250.226"/>
</g>
<!-- Node30 -->
<g id="node98" class="node"><title>Node30</title>
<a xlink:href="aliaser_8h.html" target="_top" xlink:title="ltr/interfaces/aliaser.h">
<polygon style="fill:white;stroke:black;" points="314,-112 314,-132 422,-132 422,-112 314,-112"/>
<text text-anchor="middle" x="368" y="-119" style="font-family:Arial;font-size:10.00;">ltr/interfaces/aliaser.h</text>
</a>
</g>
<!-- Node18&#45;&gt;Node30 -->
<g id="edge136" class="edge"><title>Node18&#45;&gt;Node30</title>
<path style="fill:none;stroke:midnightblue;" d="M906,-283C856,-274 777,-260 709,-244 628,-223 608,-216 529,-188 485,-172 434,-150 401,-136"/>
<polygon style="fill:midnightblue;stroke:midnightblue;" points="401.585,-132.464 391,-132 398.985,-138.964 401.585,-132.464"/>
</g>
<!-- Node20&#45;&gt;Node3 -->
<g id="edge68" class="edge"><title>Node20&#45;&gt;Node3</title>
<path style="fill:none;stroke:midnightblue;" d="M1161,-172C1243,-161 1397,-141 1421,-132 1428,-128 1468,-101 1494,-82"/>
<polygon style="fill:midnightblue;stroke:midnightblue;" points="1496.1,-84.8 1502,-76 1491.9,-79.2 1496.1,-84.8"/>
</g>
<!-- Node20&#45;&gt;Node5 -->
<g id="edge66" class="edge"><title>Node20&#45;&gt;Node5</title>
<path style="fill:none;stroke:midnightblue;" d="M1105,-168C1093,-144 1061,-84 1015,-56 974,-31 836,-18 774,-12"/>
<polygon style="fill:midnightblue;stroke:midnightblue;" points="774.299,-8.5125 764,-11 773.602,-15.4778 774.299,-8.5125"/>
</g>
<!-- Node20&#45;&gt;Node10 -->
<g id="edge70" class="edge"><title>Node20&#45;&gt;Node10</title>
<path style="fill:none;stroke:midnightblue;" d="M1156,-168C1202,-159 1271,-143 1318,-133"/>
<polygon style="fill:midnightblue;stroke:midnightblue;" points="1318.88,-136.393 1328,-131 1317.51,-129.529 1318.88,-136.393"/>
</g>
<!-- Node20&#45;&gt;Node12 -->
<g id="edge64" class="edge"><title>Node20&#45;&gt;Node12</title>
<path style="fill:none;stroke:midnightblue;" d="M1082,-168C1063,-160 1038,-148 1020,-132 1005,-118 993,-99 986,-85"/>
<polygon style="fill:midnightblue;stroke:midnightblue;" points="988.916,-83.0418 981,-76 982.797,-86.4414 988.916,-83.0418"/>
</g>
<!-- Node20&#45;&gt;Node13 -->
<g id="edge72" class="edge"><title>Node20&#45;&gt;Node13</title>
<path style="fill:none;stroke:midnightblue;" d="M1126,-168C1156,-148 1223,-104 1260,-81"/>
<polygon style="fill:midnightblue;stroke:midnightblue;" points="1261.38,-84.268 1268,-76 1257.66,-78.332 1261.38,-84.268"/>
</g>
<!-- Node20&#45;&gt;Node14 -->
<g id="edge74" class="edge"><title>Node20&#45;&gt;Node14</title>
<path style="fill:none;stroke:midnightblue;" d="M1113,-168C1118,-155 1126,-131 1134,-112 1138,-103 1142,-93 1145,-85"/>
<polygon style="fill:midnightblue;stroke:midnightblue;" points="1148.2,-86.4414 1150,-76 1142.08,-83.0418 1148.2,-86.4414"/>
</g>
<!-- Node21&#45;&gt;Node3 -->
<g id="edge82" class="edge"><title>Node21&#45;&gt;Node3</title>
<path style="fill:none;stroke:midnightblue;" d="M1321,-173C1360,-167 1413,-155 1454,-132 1474,-119 1492,-99 1503,-84"/>
<polygon style="fill:midnightblue;stroke:midnightblue;" points="1505.8,-86.1 1509,-76 1500.2,-81.9 1505.8,-86.1"/>
</g>
<!-- Node21&#45;&gt;Node5 -->
<g id="edge80" class="edge"><title>Node21&#45;&gt;Node5</title>
<path style="fill:none;stroke:midnightblue;" d="M1255,-168C1220,-144 1127,-84 1041,-56 947,-24 829,-14 774,-11"/>
<polygon style="fill:midnightblue;stroke:midnightblue;" points="774,-7.5001 764,-11 774,-14.5001 774,-7.5001"/>
</g>
<!-- Node21&#45;&gt;Node10 -->
<g id="edge84" class="edge"><title>Node21&#45;&gt;Node10</title>
<path style="fill:none;stroke:midnightblue;" d="M1287,-168C1302,-159 1325,-147 1343,-137"/>
<polygon style="fill:midnightblue;stroke:midnightblue;" points="1344.96,-139.916 1352,-132 1341.56,-133.797 1344.96,-139.916"/>
</g>
<!-- Node21&#45;&gt;Node12 -->
<g id="edge78" class="edge"><title>Node21&#45;&gt;Node12</title>
<path style="fill:none;stroke:midnightblue;" d="M1243,-168C1190,-147 1073,-102 1014,-80"/>
<polygon style="fill:midnightblue;stroke:midnightblue;" points="1014.58,-76.4643 1004,-76 1011.98,-82.9636 1014.58,-76.4643"/>
</g>
<!-- Node21&#45;&gt;Node13 -->
<g id="edge86" class="edge"><title>Node21&#45;&gt;Node13</title>
<path style="fill:none;stroke:midnightblue;" d="M1271,-168C1272,-158 1274,-144 1276,-132 1278,-117 1280,-99 1282,-86"/>
<polygon style="fill:midnightblue;stroke:midnightblue;" points="1285.49,-86.2987 1283,-76 1278.52,-85.6021 1285.49,-86.2987"/>
</g>
<!-- Node21&#45;&gt;Node14 -->
<g id="edge88" class="edge"><title>Node21&#45;&gt;Node14</title>
<path style="fill:none;stroke:midnightblue;" d="M1266,-168C1262,-154 1253,-128 1238,-112 1226,-99 1208,-88 1192,-80"/>
<polygon style="fill:midnightblue;stroke:midnightblue;" points="1193.56,-76.8631 1183,-76 1190.72,-83.2598 1193.56,-76.8631"/>
</g>
<!-- Node22&#45;&gt;Node3 -->
<g id="edge96" class="edge"><title>Node22&#45;&gt;Node3</title>
<path style="fill:none;stroke:midnightblue;" d="M893,-231C1003,-224 1248,-206 1330,-188 1397,-172 1422,-176 1476,-132 1491,-120 1501,-100 1508,-85"/>
<polygon style="fill:midnightblue;stroke:midnightblue;" points="1511.14,-86.5596 1512,-76 1504.74,-83.7166 1511.14,-86.5596"/>
</g>
<!-- Node22&#45;&gt;Node4 -->
<g id="edge92" class="edge"><title>Node22&#45;&gt;Node4</title>
<path style="fill:none;stroke:midnightblue;" d="M786,-225C783,-225 780,-224 777,-224 677,-207 636,-244 550,-188 517,-166 531,-139 502,-112 487,-97 466,-85 449,-77"/>
<polygon style="fill:midnightblue;stroke:midnightblue;" points="449.585,-73.4643 439,-73 446.985,-79.9636 449.585,-73.4643"/>
</g>
<!-- Node22&#45;&gt;Node5 -->
<g id="edge94" class="edge"><title>Node22&#45;&gt;Node5</title>
<path style="fill:none;stroke:midnightblue;" d="M812,-224C732,-194 503,-106 485,-76 481,-68 480,-62 485,-56 514,-21 652,-13 714,-10"/>
<polygon style="fill:midnightblue;stroke:midnightblue;" points="714,-13.5001 724,-10 714,-6.5001 714,-13.5001"/>
</g>
<!-- Node22&#45;&gt;Node14 -->
<g id="edge122" class="edge"><title>Node22&#45;&gt;Node14</title>
<path style="fill:none;stroke:midnightblue;" d="M858,-224C911,-195 1063,-114 1127,-81"/>
<polygon style="fill:midnightblue;stroke:midnightblue;" points="1128.96,-83.916 1136,-76 1125.56,-77.7969 1128.96,-83.916"/>
</g>
<!-- Node23 -->
<g id="node72" class="node"><title>Node23</title>
<a xlink:href="parameterized_8h.html" target="_top" xlink:title="ltr/interfaces/parameterized.h">
<polygon style="fill:white;stroke:black;" points="750,-168 750,-188 892,-188 892,-168 750,-168"/>
<text text-anchor="middle" x="821" y="-175" style="font-family:Arial;font-size:10.00;">ltr/interfaces/parameterized.h</text>
</a>
</g>
<!-- Node22&#45;&gt;Node23 -->
<g id="edge98" class="edge"><title>Node22&#45;&gt;Node23</title>
<path style="fill:none;stroke:midnightblue;" d="M836,-224C834,-217 831,-207 827,-197"/>
<polygon style="fill:midnightblue;stroke:midnightblue;" points="830.483,-196.38 824,-188 823.842,-198.594 830.483,-196.38"/>
</g>
<!-- Node23&#45;&gt;Node5 -->
<g id="edge102" class="edge"><title>Node23&#45;&gt;Node5</title>
<path style="fill:none;stroke:midnightblue;" d="M829,-168C850,-143 899,-81 901,-76 904,-67 907,-63 901,-56 886,-35 816,-20 774,-14"/>
<polygon style="fill:midnightblue;stroke:midnightblue;" points="774.299,-10.5125 764,-13 773.602,-17.4778 774.299,-10.5125"/>
</g>
<!-- Node23&#45;&gt;Node12 -->
<g id="edge100" class="edge"><title>Node23&#45;&gt;Node12</title>
<path style="fill:none;stroke:midnightblue;" d="M833,-168C850,-155 880,-130 906,-112 921,-101 938,-90 951,-82"/>
<polygon style="fill:midnightblue;stroke:midnightblue;" points="953.621,-84.4592 960,-76 949.738,-78.6349 953.621,-84.4592"/>
</g>
<!-- Node24 -->
<g id="node76" class="node"><title>Node24</title>
<a xlink:href="parameters__container_8h.html" target="_top" xlink:title="ltr/parameters_container/parameters_container.h">
<polygon style="fill:white;stroke:black;" points="592,-112 592,-132 817,-132 817,-112 592,-112"/>
<text text-anchor="middle" x="704" y="-119" style="font-family:Arial;font-size:10.00;">ltr/parameters_container/parameters_container.h</text>
</a>
</g>
<!-- Node23&#45;&gt;Node24 -->
<g id="edge104" class="edge"><title>Node23&#45;&gt;Node24</title>
<path style="fill:none;stroke:midnightblue;" d="M800,-168C782,-159 755,-146 734,-136"/>
<polygon style="fill:midnightblue;stroke:midnightblue;" points="735.56,-132.863 725,-132 732.717,-139.26 735.56,-132.863"/>
</g>
<!-- Node24&#45;&gt;Node5 -->
<g id="edge112" class="edge"><title>Node24&#45;&gt;Node5</title>
<path style="fill:none;stroke:midnightblue;" d="M709,-112C714,-103 721,-89 725,-76 730,-61 735,-43 739,-30"/>
<polygon style="fill:midnightblue;stroke:midnightblue;" points="742.479,-30.584 742,-20 735.774,-28.5725 742.479,-30.584"/>
</g>
<!-- Node24&#45;&gt;Node12 -->
<g id="edge110" class="edge"><title>Node24&#45;&gt;Node12</title>
<path style="fill:none;stroke:midnightblue;" d="M753,-112C805,-101 889,-84 938,-74"/>
<polygon style="fill:midnightblue;stroke:midnightblue;" points="938.881,-77.3933 948,-72 937.508,-70.5292 938.881,-77.3933"/>
</g>
<!-- Node24&#45;&gt;Node13 -->
<g id="edge120" class="edge"><title>Node24&#45;&gt;Node13</title>
<path style="fill:none;stroke:midnightblue;" d="M817,-114C919,-106 1072,-93 1216,-76"/>
<polygon style="fill:midnightblue;stroke:midnightblue;" points="1216.4,-79.4778 1226,-75 1215.7,-72.5125 1216.4,-79.4778"/>
</g>
<!-- Node24&#45;&gt;Node14 -->
<g id="edge118" class="edge"><title>Node24&#45;&gt;Node14</title>
<path style="fill:none;stroke:midnightblue;" d="M785,-112C872,-101 1011,-84 1092,-74"/>
<polygon style="fill:midnightblue;stroke:midnightblue;" points="1092.4,-77.4778 1102,-73 1091.7,-70.5125 1092.4,-77.4778"/>
</g>
<!-- Node25 -->
<g id="node78" class="node"><title>Node25</title>
<polygon style="fill:white;stroke:#bfbfbf;" points="772,-56 772,-76 846,-76 846,-56 772,-56"/>
<text text-anchor="middle" x="809" y="-63" style="font-family:Arial;font-size:10.00;">logog/logog.h</text>
</g>
<!-- Node24&#45;&gt;Node25 -->
<g id="edge106" class="edge"><title>Node24&#45;&gt;Node25</title>
<path style="fill:none;stroke:midnightblue;" d="M723,-112C739,-103 763,-91 781,-81"/>
<polygon style="fill:midnightblue;stroke:midnightblue;" points="782.958,-83.916 790,-76 779.559,-77.7969 782.958,-83.916"/>
</g>
<!-- Node26 -->
<g id="node80" class="node"><title>Node26</title>
<polygon style="fill:white;stroke:#bfbfbf;" points="864,-56 864,-76 893,-76 893,-56 864,-56"/>
<text text-anchor="middle" x="878" y="-63" style="font-family:Arial;font-size:10.00;">list</text>
</g>
<!-- Node24&#45;&gt;Node26 -->
<g id="edge108" class="edge"><title>Node24&#45;&gt;Node26</title>
<path style="fill:none;stroke:midnightblue;" d="M741,-112C770,-104 811,-92 854,-76"/>
<polygon style="fill:midnightblue;stroke:midnightblue;" points="855.427,-79.2259 864,-73 853.416,-72.5212 855.427,-79.2259"/>
</g>
<!-- Node27 -->
<g id="node84" class="node"><title>Node27</title>
<polygon style="fill:white;stroke:#bfbfbf;" points="494,-56 494,-76 571,-76 571,-56 494,-56"/>
<text text-anchor="middle" x="532" y="-63" style="font-family:Arial;font-size:10.00;">boost/any.hpp</text>
</g>
<!-- Node24&#45;&gt;Node27 -->
<g id="edge114" class="edge"><title>Node24&#45;&gt;Node27</title>
<path style="fill:none;stroke:midnightblue;" d="M673,-112C645,-103 603,-89 573,-79"/>
<polygon style="fill:midnightblue;stroke:midnightblue;" points="573.584,-75.5212 563,-76 571.573,-82.2259 573.584,-75.5212"/>
</g>
<!-- Node28 -->
<g id="node86" class="node"><title>Node28</title>
<polygon style="fill:white;stroke:#bfbfbf;" points="588,-56 588,-76 717,-76 717,-56 588,-56"/>
<text text-anchor="middle" x="652" y="-63" style="font-family:Arial;font-size:10.00;">boost/unordered_map.hpp</text>
</g>
<!-- Node24&#45;&gt;Node28 -->
<g id="edge116" class="edge"><title>Node24&#45;&gt;Node28</title>
<path style="fill:none;stroke:midnightblue;" d="M695,-112C688,-104 677,-93 669,-84"/>
<polygon style="fill:midnightblue;stroke:midnightblue;" points="671.219,-81.221 662,-76 665.951,-85.8306 671.219,-81.221"/>
</g>
<!-- Node29&#45;&gt;Node10 -->
<g id="edge126" class="edge"><title>Node29&#45;&gt;Node10</title>
<path style="fill:none;stroke:midnightblue;" d="M1198,-224C1247,-216 1309,-203 1330,-188 1345,-176 1356,-156 1363,-141"/>
<polygon style="fill:midnightblue;stroke:midnightblue;" points="1366.14,-142.56 1367,-132 1359.74,-139.717 1366.14,-142.56"/>
</g>
<!-- Node29&#45;&gt;Node14 -->
<g id="edge134" class="edge"><title>Node29&#45;&gt;Node14</title>
<path style="fill:none;stroke:midnightblue;" d="M1141,-224C1151,-215 1164,-203 1170,-188 1183,-154 1172,-111 1163,-86"/>
<polygon style="fill:midnightblue;stroke:midnightblue;" points="1165.96,-83.9849 1159,-76 1159.46,-86.5847 1165.96,-83.9849"/>
</g>
<!-- Node29&#45;&gt;Node20 -->
<g id="edge130" class="edge"><title>Node29&#45;&gt;Node20</title>
<path style="fill:none;stroke:midnightblue;" d="M1124,-224C1122,-217 1119,-207 1116,-198"/>
<polygon style="fill:midnightblue;stroke:midnightblue;" points="1119.23,-196.573 1113,-188 1112.52,-198.584 1119.23,-196.573"/>
</g>
<!-- Node29&#45;&gt;Node21 -->
<g id="edge128" class="edge"><title>Node29&#45;&gt;Node21</title>
<path style="fill:none;stroke:midnightblue;" d="M1152,-224C1175,-215 1208,-202 1233,-192"/>
<polygon style="fill:midnightblue;stroke:midnightblue;" points="1235.02,-194.964 1243,-188 1232.42,-188.464 1235.02,-194.964"/>
</g>
<!-- Node29&#45;&gt;Node23 -->
<g id="edge132" class="edge"><title>Node29&#45;&gt;Node23</title>
<path style="fill:none;stroke:midnightblue;" d="M1072,-224C1019,-215 941,-200 885,-190"/>
<polygon style="fill:midnightblue;stroke:midnightblue;" points="885.492,-186.529 875,-188 884.119,-193.393 885.492,-186.529"/>
</g>
<!-- Node30&#45;&gt;Node5 -->
<g id="edge138" class="edge"><title>Node30&#45;&gt;Node5</title>
<path style="fill:none;stroke:midnightblue;" d="M369,-112C371,-97 377,-69 395,-56 420,-37 633,-19 714,-12"/>
<polygon style="fill:midnightblue;stroke:midnightblue;" points="714.398,-15.4778 724,-11 713.701,-8.5125 714.398,-15.4778"/>
</g>
</g>
</svg>
