<?xml version="1.0" encoding="UTF-8" standalone="no"?>
<!DOCTYPE svg PUBLIC "-//W3C//DTD SVG 1.0//EN"
 "http://www.w3.org/TR/2001/REC-SVG-20010904/DTD/svg10.dtd" [
 <!ATTLIST svg xmlns:xlink CDATA #FIXED "http://www.w3.org/1999/xlink">
]>
<!-- Generated by Graphviz version 2.20.2 (Tue Mar &#160;2 19:03:41 UTC 2010)
     For user: (jenkins)  -->
<!-- Title: G Pages: 1 -->
<svg width="1643pt" height="140pt"
 viewBox="0.00 0.00 1643.00 140.00" xmlns="http://www.w3.org/2000/svg" xmlns:xlink="http://www.w3.org/1999/xlink">
<g id="graph0" class="graph" transform="scale(1 1) rotate(0) translate(4 136)">
<title>G</title>
<polygon style="fill:white;stroke:white;" points="-4,4 -4,-136 1639,-136 1639,4 -4,4"/>
<!-- Node1 -->
<g id="node1" class="node"><title>Node1</title>
<polygon style="fill:#bfbfbf;stroke:black;" points="901,-112 901,-132 1067,-132 1067,-112 901,-112"/>
<text text-anchor="middle" x="984" y="-119" style="font-family:Arial;font-size:10.00;">ltr/data/utility/parsers/parse_arff.cc</text>
</g>
<!-- Node2 -->
<g id="node3" class="node"><title>Node2</title>
<polygon style="fill:white;stroke:#bfbfbf;" points="0,-56 0,-76 229,-76 229,-56 0,-56"/>
<text text-anchor="middle" x="114" y="-63" style="font-family:Arial;font-size:10.00;">boost/spirit/include/classic_push_back_actor.hpp</text>
</g>
<!-- Node1&#45;&gt;Node2 -->
<g id="edge2" class="edge"><title>Node1&#45;&gt;Node2</title>
<path style="fill:none;stroke:midnightblue;" d="M901,-117C765,-109 485,-93 239,-76"/>
<polygon style="fill:midnightblue;stroke:midnightblue;" points="239.299,-72.5125 229,-75 238.602,-79.4778 239.299,-72.5125"/>
</g>
<!-- Node3 -->
<g id="node5" class="node"><title>Node3</title>
<polygon style="fill:white;stroke:#bfbfbf;" points="246,-56 246,-76 465,-76 465,-56 246,-56"/>
<text text-anchor="middle" x="355" y="-63" style="font-family:Arial;font-size:10.00;">boost/spirit/include/classic_insert_at_actor.hpp</text>
</g>
<!-- Node1&#45;&gt;Node3 -->
<g id="edge4" class="edge"><title>Node1&#45;&gt;Node3</title>
<path style="fill:none;stroke:midnightblue;" d="M901,-115C792,-105 600,-88 475,-77"/>
<polygon style="fill:midnightblue;stroke:midnightblue;" points="475.299,-73.5125 465,-76 474.602,-80.4778 475.299,-73.5125"/>
</g>
<!-- Node4 -->
<g id="node7" class="node"><title>Node4</title>
<polygon style="fill:white;stroke:#bfbfbf;" points="482,-56 482,-76 692,-76 692,-56 482,-56"/>
<text text-anchor="middle" x="587" y="-63" style="font-family:Arial;font-size:10.00;">boost/spirit/include/classic_assign_actor.hpp</text>
</g>
<!-- Node1&#45;&gt;Node4 -->
<g id="edge6" class="edge"><title>Node1&#45;&gt;Node4</title>
<path style="fill:none;stroke:midnightblue;" d="M913,-112C844,-102 740,-87 668,-77"/>
<polygon style="fill:midnightblue;stroke:midnightblue;" points="668.299,-73.5125 658,-76 667.602,-80.4778 668.299,-73.5125"/>
</g>
<!-- Node5 -->
<g id="node9" class="node"><title>Node5</title>
<polygon style="fill:white;stroke:#bfbfbf;" points="710,-56 710,-76 824,-76 824,-56 710,-56"/>
<text text-anchor="middle" x="767" y="-63" style="font-family:Arial;font-size:10.00;">boost/lexical_cast.hpp</text>
</g>
<!-- Node1&#45;&gt;Node5 -->
<g id="edge8" class="edge"><title>Node1&#45;&gt;Node5</title>
<path style="fill:none;stroke:midnightblue;" d="M945,-112C909,-103 855,-89 816,-79"/>
<polygon style="fill:midnightblue;stroke:midnightblue;" points="816.584,-75.5212 806,-76 814.573,-82.2259 816.584,-75.5212"/>
</g>
<!-- Node6 -->
<g id="node11" class="node"><title>Node6</title>
<polygon style="fill:white;stroke:#bfbfbf;" points="842,-56 842,-76 971,-76 971,-56 842,-56"/>
<text text-anchor="middle" x="906" y="-63" style="font-family:Arial;font-size:10.00;">boost/algorithm/string.hpp</text>
</g>
<!-- Node1&#45;&gt;Node6 -->
<g id="edge10" class="edge"><title>Node1&#45;&gt;Node6</title>
<path style="fill:none;stroke:midnightblue;" d="M970,-112C959,-104 942,-92 928,-82"/>
<polygon style="fill:midnightblue;stroke:midnightblue;" points="930.1,-79.2 920,-76 925.9,-84.8 930.1,-79.2"/>
</g>
<!-- Node7 -->
<g id="node13" class="node"><title>Node7</title>
<polygon style="fill:white;stroke:#bfbfbf;" points="988,-56 988,-76 1136,-76 1136,-56 988,-56"/>
<text text-anchor="middle" x="1062" y="-63" style="font-family:Arial;font-size:10.00;">boost/algorithm/string/trim.hpp</text>
</g>
<!-- Node1&#45;&gt;Node7 -->
<g id="edge12" class="edge"><title>Node1&#45;&gt;Node7</title>
<path style="fill:none;stroke:midnightblue;" d="M998,-112C1009,-104 1026,-92 1040,-82"/>
<polygon style="fill:midnightblue;stroke:midnightblue;" points="1042.1,-84.8 1048,-76 1037.9,-79.2 1042.1,-84.8"/>
</g>
<!-- Node8 -->
<g id="node15" class="node"><title>Node8</title>
<polygon style="fill:white;stroke:#bfbfbf;" points="1154,-56 1154,-76 1213,-76 1213,-56 1154,-56"/>
<text text-anchor="middle" x="1183" y="-63" style="font-family:Arial;font-size:10.00;">stdexcept</text>
</g>
<!-- Node1&#45;&gt;Node8 -->
<g id="edge14" class="edge"><title>Node1&#45;&gt;Node8</title>
<path style="fill:none;stroke:midnightblue;" d="M1020,-112C1055,-102 1108,-87 1144,-77"/>
<polygon style="fill:midnightblue;stroke:midnightblue;" points="1145.43,-80.2259 1154,-74 1143.42,-73.5212 1145.43,-80.2259"/>
</g>
<!-- Node9 -->
<g id="node17" class="node"><title>Node9</title>
<polygon style="fill:white;stroke:#bfbfbf;" points="1230,-56 1230,-76 1281,-76 1281,-56 1230,-56"/>
<text text-anchor="middle" x="1255" y="-63" style="font-family:Arial;font-size:10.00;">sstream</text>
</g>
<!-- Node1&#45;&gt;Node9 -->
<g id="edge16" class="edge"><title>Node1&#45;&gt;Node9</title>
<path style="fill:none;stroke:midnightblue;" d="M1043,-112C1089,-103 1154,-91 1220,-76"/>
<polygon style="fill:midnightblue;stroke:midnightblue;" points="1220.88,-79.3933 1230,-74 1219.51,-72.5292 1220.88,-79.3933"/>
</g>
<!-- Node10 -->
<g id="node19" class="node"><title>Node10</title>
<a xlink:href="parse__arff_8h.html" target="_top" xlink:title="ltr/data/utility/parsers/parse_arff.h">
<polygon style="fill:white;stroke:black;" points="1298,-56 1298,-76 1459,-76 1459,-56 1298,-56"/>
<text text-anchor="middle" x="1378" y="-63" style="font-family:Arial;font-size:10.00;">ltr/data/utility/parsers/parse_arff.h</text>
</a>
</g>
<!-- Node1&#45;&gt;Node10 -->
<g id="edge18" class="edge"><title>Node1&#45;&gt;Node10</title>
<path style="fill:none;stroke:midnightblue;" d="M1054,-112C1123,-102 1226,-87 1298,-77"/>
<polygon style="fill:midnightblue;stroke:midnightblue;" points="1298.4,-80.4778 1308,-76 1297.7,-73.5125 1298.4,-80.4778"/>
</g>
<!-- Node17 -->
<g id="node33" class="node"><title>Node17</title>
<polygon style="fill:white;stroke:#bfbfbf;" points="1476,-56 1476,-76 1580,-76 1580,-56 1476,-56"/>
<text text-anchor="middle" x="1528" y="-63" style="font-family:Arial;font-size:10.00;">ltr/utility/numerical.h</text>
</g>
<!-- Node1&#45;&gt;Node17 -->
<g id="edge32" class="edge"><title>Node1&#45;&gt;Node17</title>
<path style="fill:none;stroke:midnightblue;" d="M1067,-116C1161,-108 1320,-95 1466,-76"/>
<polygon style="fill:midnightblue;stroke:midnightblue;" points="1466.4,-79.4778 1476,-75 1465.7,-72.5125 1466.4,-79.4778"/>
</g>
<!-- Node11 -->
<g id="node21" class="node"><title>Node11</title>
<polygon style="fill:white;stroke:#bfbfbf;" points="1073,-0 1073,-20 1255,-20 1255,-0 1073,-0"/>
<text text-anchor="middle" x="1164" y="-7" style="font-family:Arial;font-size:10.00;">boost/spirit/include/classic_parser.hpp</text>
</g>
<!-- Node10&#45;&gt;Node11 -->
<g id="edge20" class="edge"><title>Node10&#45;&gt;Node11</title>
<path style="fill:none;stroke:midnightblue;" d="M1340,-56C1304,-47 1251,-33 1212,-23"/>
<polygon style="fill:midnightblue;stroke:midnightblue;" points="1212.58,-19.5212 1202,-20 1210.57,-26.2259 1212.58,-19.5212"/>
</g>
<!-- Node12 -->
<g id="node23" class="node"><title>Node12</title>
<polygon style="fill:white;stroke:#bfbfbf;" points="1273,-0 1273,-20 1315,-20 1315,-0 1273,-0"/>
<text text-anchor="middle" x="1294" y="-7" style="font-family:Arial;font-size:10.00;">vector</text>
</g>
<!-- Node10&#45;&gt;Node12 -->
<g id="edge22" class="edge"><title>Node10&#45;&gt;Node12</title>
<path style="fill:none;stroke:midnightblue;" d="M1363,-56C1351,-48 1333,-35 1318,-26"/>
<polygon style="fill:midnightblue;stroke:midnightblue;" points="1319.26,-22.6349 1309,-20 1315.38,-28.4592 1319.26,-22.6349"/>
</g>
<!-- Node13 -->
<g id="node25" class="node"><title>Node13</title>
<polygon style="fill:white;stroke:#bfbfbf;" points="1333,-0 1333,-20 1368,-20 1368,-0 1333,-0"/>
<text text-anchor="middle" x="1350" y="-7" style="font-family:Arial;font-size:10.00;">map</text>
</g>
<!-- Node10&#45;&gt;Node13 -->
<g id="edge24" class="edge"><title>Node10&#45;&gt;Node13</title>
<path style="fill:none;stroke:midnightblue;" d="M1373,-56C1369,-49 1364,-38 1359,-29"/>
<polygon style="fill:midnightblue;stroke:midnightblue;" points="1362.26,-27.7166 1355,-20 1355.86,-30.5596 1362.26,-27.7166"/>
</g>
<!-- Node14 -->
<g id="node27" class="node"><title>Node14</title>
<polygon style="fill:white;stroke:#bfbfbf;" points="1385,-0 1385,-20 1425,-20 1425,-0 1385,-0"/>
<text text-anchor="middle" x="1405" y="-7" style="font-family:Arial;font-size:10.00;">string</text>
</g>
<!-- Node10&#45;&gt;Node14 -->
<g id="edge26" class="edge"><title>Node10&#45;&gt;Node14</title>
<path style="fill:none;stroke:midnightblue;" d="M1383,-56C1387,-49 1392,-38 1396,-29"/>
<polygon style="fill:midnightblue;stroke:midnightblue;" points="1399.14,-30.5596 1400,-20 1392.74,-27.7166 1399.14,-30.5596"/>
</g>
<!-- Node15 -->
<g id="node29" class="node"><title>Node15</title>
<polygon style="fill:white;stroke:#bfbfbf;" points="1443,-0 1443,-20 1473,-20 1473,-0 1443,-0"/>
<text text-anchor="middle" x="1458" y="-7" style="font-family:Arial;font-size:10.00;">set</text>
</g>
<!-- Node10&#45;&gt;Node15 -->
<g id="edge28" class="edge"><title>Node10&#45;&gt;Node15</title>
<path style="fill:none;stroke:midnightblue;" d="M1392,-56C1403,-48 1421,-36 1435,-26"/>
<polygon style="fill:midnightblue;stroke:midnightblue;" points="1437.1,-28.8 1443,-20 1432.9,-23.2 1437.1,-28.8"/>
</g>
<!-- Node16 -->
<g id="node31" class="node"><title>Node16</title>
<polygon style="fill:white;stroke:#bfbfbf;" points="1491,-0 1491,-20 1636,-20 1636,-0 1491,-0"/>
<text text-anchor="middle" x="1563" y="-7" style="font-family:Arial;font-size:10.00;">ltr/data/utility/parsers/parser.h</text>
</g>
<!-- Node10&#45;&gt;Node16 -->
<g id="edge30" class="edge"><title>Node10&#45;&gt;Node16</title>
<path style="fill:none;stroke:midnightblue;" d="M1411,-56C1441,-47 1486,-33 1520,-23"/>
<polygon style="fill:midnightblue;stroke:midnightblue;" points="1521.43,-26.2259 1530,-20 1519.42,-19.5212 1521.43,-26.2259"/>
</g>
</g>
</svg>
