<?xml version="1.0" encoding="UTF-8" standalone="no"?>
<!DOCTYPE svg PUBLIC "-//W3C//DTD SVG 1.0//EN"
 "http://www.w3.org/TR/2001/REC-SVG-20010904/DTD/svg10.dtd" [
 <!ATTLIST svg xmlns:xlink CDATA #FIXED "http://www.w3.org/1999/xlink">
]>
<!-- Generated by Graphviz version 2.20.2 (Tue Mar &#160;2 19:03:41 UTC 2010)
     For user: (jenkins)  -->
<!-- Title: G Pages: 1 -->
<svg width="2262pt" height="140pt"
 viewBox="0.00 0.00 2262.00 140.00" xmlns="http://www.w3.org/2000/svg" xmlns:xlink="http://www.w3.org/1999/xlink">
<g id="graph0" class="graph" transform="scale(1 1) rotate(0) translate(4 136)">
<title>G</title>
<polygon style="fill:white;stroke:white;" points="-4,4 -4,-136 2258,-136 2258,4 -4,4"/>
<!-- Node1 -->
<g id="node1" class="node"><title>Node1</title>
<polygon style="fill:#bfbfbf;stroke:black;" points="1771,-112 1771,-132 1916,-132 1916,-112 1771,-112"/>
<text text-anchor="middle" x="1843" y="-119" style="font-family:Arial;font-size:10.00;">ltr/data/utility/parsers/parser.h</text>
</g>
<!-- Node2 -->
<g id="node3" class="node"><title>Node2</title>
<a xlink:href="io__utility_8h.html" target="_top" xlink:title="ltr/data/utility/io_utility.h">
<polygon style="fill:white;stroke:black;" points="1052,-56 1052,-76 1171,-76 1171,-56 1052,-56"/>
<text text-anchor="middle" x="1111" y="-63" style="font-family:Arial;font-size:10.00;">ltr/data/utility/io_utility.h</text>
</a>
</g>
<!-- Node1&#45;&gt;Node2 -->
<g id="edge2" class="edge"><title>Node1&#45;&gt;Node2</title>
<path style="fill:none;stroke:midnightblue;" d="M1761,-115C1612,-104 1302,-81 1171,-71"/>
<polygon style="fill:midnightblue;stroke:midnightblue;" points="1760.7,-118.488 1771,-116 1761.4,-111.522 1760.7,-118.488"/>
</g>
<!-- Node13 -->
<g id="node25" class="node"><title>Node13</title>
<a xlink:href="parse__arff_8h.html" target="_top" xlink:title="ltr/data/utility/parsers/parse_arff.h">
<polygon style="fill:white;stroke:black;" points="1989,-56 1989,-76 2150,-76 2150,-56 1989,-56"/>
<text text-anchor="middle" x="2069" y="-63" style="font-family:Arial;font-size:10.00;">ltr/data/utility/parsers/parse_arff.h</text>
</a>
</g>
<!-- Node1&#45;&gt;Node13 -->
<g id="edge24" class="edge"><title>Node1&#45;&gt;Node13</title>
<path style="fill:none;stroke:midnightblue;" d="M1893,-110C1933,-100 1990,-85 2028,-76"/>
<polygon style="fill:midnightblue;stroke:midnightblue;" points="1892.12,-106.607 1883,-112 1893.49,-113.471 1892.12,-106.607"/>
</g>
<!-- Node15 -->
<g id="node29" class="node"><title>Node15</title>
<a xlink:href="parser_8cc.html" target="_top" xlink:title="ltr/data/utility/parsers/parser.cc">
<polygon style="fill:white;stroke:black;" points="1920,-0 1920,-20 2070,-20 2070,-0 1920,-0"/>
<text text-anchor="middle" x="1995" y="-7" style="font-family:Arial;font-size:10.00;">ltr/data/utility/parsers/parser.cc</text>
</a>
</g>
<!-- Node1&#45;&gt;Node15 -->
<g id="edge42" class="edge"><title>Node1&#45;&gt;Node15</title>
<path style="fill:none;stroke:midnightblue;" d="M1882,-108C1901,-100 1924,-90 1942,-76 1962,-59 1980,-34 1989,-20"/>
<polygon style="fill:midnightblue;stroke:midnightblue;" points="1879.98,-105.036 1872,-112 1882.58,-111.536 1879.98,-105.036"/>
</g>
<!-- Node16 -->
<g id="node31" class="node"><title>Node16</title>
<a xlink:href="parse__svm_8h.html" target="_top" xlink:title="ltr/data/utility/parsers/parse_svm.h">
<polygon style="fill:white;stroke:black;" points="1571,-56 1571,-76 1736,-76 1736,-56 1571,-56"/>
<text text-anchor="middle" x="1653" y="-63" style="font-family:Arial;font-size:10.00;">ltr/data/utility/parsers/parse_svm.h</text>
</a>
</g>
<!-- Node1&#45;&gt;Node16 -->
<g id="edge30" class="edge"><title>Node1&#45;&gt;Node16</title>
<path style="fill:none;stroke:midnightblue;" d="M1799,-109C1765,-99 1718,-85 1687,-76"/>
<polygon style="fill:midnightblue;stroke:midnightblue;" points="1798.42,-112.479 1809,-112 1800.43,-105.774 1798.42,-112.479"/>
</g>
<!-- Node17 -->
<g id="node35" class="node"><title>Node17</title>
<a xlink:href="parse__yandex_8h.html" target="_top" xlink:title="ltr/data/utility/parsers/parse_yandex.h">
<polygon style="fill:white;stroke:black;" points="1753,-56 1753,-76 1933,-76 1933,-56 1753,-56"/>
<text text-anchor="middle" x="1843" y="-63" style="font-family:Arial;font-size:10.00;">ltr/data/utility/parsers/parse_yandex.h</text>
</a>
</g>
<!-- Node1&#45;&gt;Node17 -->
<g id="edge36" class="edge"><title>Node1&#45;&gt;Node17</title>
<path style="fill:none;stroke:midnightblue;" d="M1843,-102C1843,-93 1843,-84 1843,-76"/>
<polygon style="fill:midnightblue;stroke:midnightblue;" points="1839.5,-102 1843,-112 1846.5,-102 1839.5,-102"/>
</g>
<!-- Node3 -->
<g id="node5" class="node"><title>Node3</title>
<a xlink:href="crossvalidator__unittest_8cc.html" target="_top" xlink:title="ltr/crossvalidation/crossvalidator_unittest.cc">
<polygon style="fill:white;stroke:black;" points="820,-0 820,-20 1024,-20 1024,-0 820,-0"/>
<text text-anchor="middle" x="922" y="-7" style="font-family:Arial;font-size:10.00;">ltr/crossvalidation/crossvalidator_unittest.cc</text>
</a>
</g>
<!-- Node2&#45;&gt;Node3 -->
<g id="edge4" class="edge"><title>Node2&#45;&gt;Node3</title>
<path style="fill:none;stroke:midnightblue;" d="M1067,-53C1034,-43 987,-29 956,-20"/>
<polygon style="fill:midnightblue;stroke:midnightblue;" points="1066.42,-56.4788 1077,-56 1068.43,-49.7741 1066.42,-56.4788"/>
</g>
<!-- Node4 -->
<g id="node7" class="node"><title>Node4</title>
<a xlink:href="data__set__unittest_8cc.html" target="_top" xlink:title="ltr/data/data_set_unittest.cc">
<polygon style="fill:white;stroke:black;" points="1042,-0 1042,-20 1180,-20 1180,-0 1042,-0"/>
<text text-anchor="middle" x="1111" y="-7" style="font-family:Arial;font-size:10.00;">ltr/data/data_set_unittest.cc</text>
</a>
</g>
<!-- Node2&#45;&gt;Node4 -->
<g id="edge6" class="edge"><title>Node2&#45;&gt;Node4</title>
<path style="fill:none;stroke:midnightblue;" d="M1111,-46C1111,-37 1111,-28 1111,-20"/>
<polygon style="fill:midnightblue;stroke:midnightblue;" points="1107.5,-46 1111,-56 1114.5,-46 1107.5,-46"/>
</g>
<!-- Node5 -->
<g id="node9" class="node"><title>Node5</title>
<a xlink:href="save__predictions__unittest_8cc.html" target="_top" xlink:title="ltr/data/save_predictions_unittest.cc">
<polygon style="fill:white;stroke:black;" points="1198,-0 1198,-20 1370,-20 1370,-0 1198,-0"/>
<text text-anchor="middle" x="1284" y="-7" style="font-family:Arial;font-size:10.00;">ltr/data/save_predictions_unittest.cc</text>
</a>
</g>
<!-- Node2&#45;&gt;Node5 -->
<g id="edge8" class="edge"><title>Node2&#45;&gt;Node5</title>
<path style="fill:none;stroke:midnightblue;" d="M1152,-53C1183,-43 1225,-29 1253,-20"/>
<polygon style="fill:midnightblue;stroke:midnightblue;" points="1150.57,-49.7741 1142,-56 1152.58,-56.4788 1150.57,-49.7741"/>
</g>
<!-- Node6 -->
<g id="node11" class="node"><title>Node6</title>
<a xlink:href="io__utility_8cc.html" target="_top" xlink:title="ltr/data/utility/io_utility.cc">
<polygon style="fill:white;stroke:black;" points="1388,-0 1388,-20 1512,-20 1512,-0 1388,-0"/>
<text text-anchor="middle" x="1450" y="-7" style="font-family:Arial;font-size:10.00;">ltr/data/utility/io_utility.cc</text>
</a>
</g>
<!-- Node2&#45;&gt;Node6 -->
<g id="edge10" class="edge"><title>Node2&#45;&gt;Node6</title>
<path style="fill:none;stroke:midnightblue;" d="M1181,-54C1243,-44 1331,-29 1390,-20"/>
<polygon style="fill:midnightblue;stroke:midnightblue;" points="1180.12,-50.6067 1171,-56 1181.49,-57.4708 1180.12,-50.6067"/>
</g>
<!-- Node7 -->
<g id="node13" class="node"><title>Node7</title>
<a xlink:href="io__utility__unittest_8cc.html" target="_top" xlink:title="ltr/data/utility/io_utility_unittest.cc">
<polygon style="fill:white;stroke:black;" points="0,-0 0,-20 162,-20 162,-0 0,-0"/>
<text text-anchor="middle" x="81" y="-7" style="font-family:Arial;font-size:10.00;">ltr/data/utility/io_utility_unittest.cc</text>
</a>
</g>
<!-- Node2&#45;&gt;Node7 -->
<g id="edge12" class="edge"><title>Node2&#45;&gt;Node7</title>
<path style="fill:none;stroke:midnightblue;" d="M1042,-64C885,-59 497,-45 171,-20 168,-20 165,-19 162,-19"/>
<polygon style="fill:midnightblue;stroke:midnightblue;" points="1042,-67.5001 1052,-64 1042,-60.5001 1042,-67.5001"/>
</g>
<!-- Node8 -->
<g id="node15" class="node"><title>Node8</title>
<a xlink:href="parse__svm_8cc.html" target="_top" xlink:title="ltr/data/utility/parsers/parse_svm.cc">
<polygon style="fill:white;stroke:black;" points="1530,-0 1530,-20 1701,-20 1701,-0 1530,-0"/>
<text text-anchor="middle" x="1615" y="-7" style="font-family:Arial;font-size:10.00;">ltr/data/utility/parsers/parse_svm.cc</text>
</a>
</g>
<!-- Node2&#45;&gt;Node8 -->
<g id="edge14" class="edge"><title>Node2&#45;&gt;Node8</title>
<path style="fill:none;stroke:midnightblue;" d="M1181,-58C1272,-48 1432,-31 1530,-19"/>
<polygon style="fill:midnightblue;stroke:midnightblue;" points="1180.6,-54.5222 1171,-59 1181.3,-61.4875 1180.6,-54.5222"/>
</g>
<!-- Node9 -->
<g id="node17" class="node"><title>Node9</title>
<a xlink:href="parse__yandex_8cc.html" target="_top" xlink:title="ltr/data/utility/parsers/parse_yandex.cc">
<polygon style="fill:white;stroke:black;" points="1718,-0 1718,-20 1903,-20 1903,-0 1718,-0"/>
<text text-anchor="middle" x="1810" y="-7" style="font-family:Arial;font-size:10.00;">ltr/data/utility/parsers/parse_yandex.cc</text>
</a>
</g>
<!-- Node2&#45;&gt;Node9 -->
<g id="edge16" class="edge"><title>Node2&#45;&gt;Node9</title>
<path style="fill:none;stroke:midnightblue;" d="M1181,-61C1293,-53 1519,-36 1709,-20 1712,-20 1715,-19 1718,-19"/>
<polygon style="fill:midnightblue;stroke:midnightblue;" points="1180.6,-57.5222 1171,-62 1181.3,-64.4875 1180.6,-57.5222"/>
</g>
<!-- Node10 -->
<g id="node19" class="node"><title>Node10</title>
<a xlink:href="gp__learner__unittest_8cc.html" target="_top" xlink:title="ltr/learners/gp_learner/gp_learner_unittest.cc">
<polygon style="fill:white;stroke:black;" points="180,-0 180,-20 389,-20 389,-0 180,-0"/>
<text text-anchor="middle" x="284" y="-7" style="font-family:Arial;font-size:10.00;">ltr/learners/gp_learner/gp_learner_unittest.cc</text>
</a>
</g>
<!-- Node2&#45;&gt;Node10 -->
<g id="edge18" class="edge"><title>Node2&#45;&gt;Node10</title>
<path style="fill:none;stroke:midnightblue;" d="M1042,-62C915,-55 634,-38 397,-20 394,-20 392,-20 389,-19"/>
<polygon style="fill:midnightblue;stroke:midnightblue;" points="1041.7,-65.4875 1052,-63 1042.4,-58.5222 1041.7,-65.4875"/>
</g>
<!-- Node11 -->
<g id="node21" class="node"><title>Node11</title>
<a xlink:href="learners__unittest_8cc.html" target="_top" xlink:title="ltr/learners/learners_unittest.cc">
<polygon style="fill:white;stroke:black;" points="406,-0 406,-20 556,-20 556,-0 406,-0"/>
<text text-anchor="middle" x="481" y="-7" style="font-family:Arial;font-size:10.00;">ltr/learners/learners_unittest.cc</text>
</a>
</g>
<!-- Node2&#45;&gt;Node11 -->
<g id="edge20" class="edge"><title>Node2&#45;&gt;Node11</title>
<path style="fill:none;stroke:midnightblue;" d="M1042,-61C938,-53 736,-37 565,-20 562,-20 559,-19 556,-19"/>
<polygon style="fill:midnightblue;stroke:midnightblue;" points="1041.7,-64.4875 1052,-62 1042.4,-57.5222 1041.7,-64.4875"/>
</g>
<!-- Node12 -->
<g id="node23" class="node"><title>Node12</title>
<a xlink:href="generator__utility_8cc.html" target="_top" xlink:title="ltr/serialization_test/generator/generator_utility.cc">
<polygon style="fill:white;stroke:black;" points="574,-0 574,-20 803,-20 803,-0 574,-0"/>
<text text-anchor="middle" x="688" y="-7" style="font-family:Arial;font-size:10.00;">ltr/serialization_test/generator/generator_utility.cc</text>
</a>
</g>
<!-- Node2&#45;&gt;Node12 -->
<g id="edge22" class="edge"><title>Node2&#45;&gt;Node12</title>
<path style="fill:none;stroke:midnightblue;" d="M1042,-57C965,-47 842,-31 763,-20"/>
<polygon style="fill:midnightblue;stroke:midnightblue;" points="1041.7,-60.4875 1052,-58 1042.4,-53.5222 1041.7,-60.4875"/>
</g>
<!-- Node14 -->
<g id="node27" class="node"><title>Node14</title>
<a xlink:href="parse__arff_8cc.html" target="_top" xlink:title="ltr/data/utility/parsers/parse_arff.cc">
<polygon style="fill:white;stroke:black;" points="2088,-0 2088,-20 2254,-20 2254,-0 2088,-0"/>
<text text-anchor="middle" x="2171" y="-7" style="font-family:Arial;font-size:10.00;">ltr/data/utility/parsers/parse_arff.cc</text>
</a>
</g>
<!-- Node13&#45;&gt;Node14 -->
<g id="edge26" class="edge"><title>Node13&#45;&gt;Node14</title>
<path style="fill:none;stroke:midnightblue;" d="M2096,-51C2114,-41 2137,-29 2153,-20"/>
<polygon style="fill:midnightblue;stroke:midnightblue;" points="2094.04,-48.084 2087,-56 2097.44,-54.2031 2094.04,-48.084"/>
</g>
<!-- Node13&#45;&gt;Node15 -->
<g id="edge28" class="edge"><title>Node13&#45;&gt;Node15</title>
<path style="fill:none;stroke:midnightblue;" d="M2048,-50C2035,-41 2020,-29 2009,-20"/>
<polygon style="fill:midnightblue;stroke:midnightblue;" points="2045.9,-52.8 2056,-56 2050.1,-47.2 2045.9,-52.8"/>
</g>
<!-- Node16&#45;&gt;Node8 -->
<g id="edge32" class="edge"><title>Node16&#45;&gt;Node8</title>
<path style="fill:none;stroke:midnightblue;" d="M1640,-48C1634,-39 1627,-28 1622,-20"/>
<polygon style="fill:midnightblue;stroke:midnightblue;" points="1637.2,-50.1 1646,-56 1642.8,-45.9 1637.2,-50.1"/>
</g>
<!-- Node16&#45;&gt;Node15 -->
<g id="edge34" class="edge"><title>Node16&#45;&gt;Node15</title>
<path style="fill:none;stroke:midnightblue;" d="M1724,-54C1787,-44 1875,-29 1934,-20"/>
<polygon style="fill:midnightblue;stroke:midnightblue;" points="1723.12,-50.6067 1714,-56 1724.49,-57.4708 1723.12,-50.6067"/>
</g>
<!-- Node17&#45;&gt;Node9 -->
<g id="edge38" class="edge"><title>Node17&#45;&gt;Node9</title>
<path style="fill:none;stroke:midnightblue;" d="M1832,-47C1826,-38 1820,-28 1816,-20"/>
<polygon style="fill:midnightblue;stroke:midnightblue;" points="1829.08,-48.9582 1837,-56 1835.2,-45.5586 1829.08,-48.9582"/>
</g>
<!-- Node17&#45;&gt;Node15 -->
<g id="edge40" class="edge"><title>Node17&#45;&gt;Node15</title>
<path style="fill:none;stroke:midnightblue;" d="M1880,-53C1907,-43 1943,-29 1968,-20"/>
<polygon style="fill:midnightblue;stroke:midnightblue;" points="1878.57,-49.7741 1870,-56 1880.58,-56.4788 1878.57,-49.7741"/>
</g>
</g>
</svg>
