<?xml version="1.0" encoding="UTF-8" standalone="no"?>
<!DOCTYPE svg PUBLIC "-//W3C//DTD SVG 1.0//EN"
 "http://www.w3.org/TR/2001/REC-SVG-20010904/DTD/svg10.dtd" [
 <!ATTLIST svg xmlns:xlink CDATA #FIXED "http://www.w3.org/1999/xlink">
]>
<!-- Generated by Graphviz version 2.20.2 (Tue Mar &#160;2 19:03:41 UTC 2010)
     For user: (jenkins)  -->
<!-- Title: G Pages: 1 -->
<svg width="342pt" height="84pt"
 viewBox="0.00 0.00 342.00 84.00" xmlns="http://www.w3.org/2000/svg" xmlns:xlink="http://www.w3.org/1999/xlink">
<g id="graph0" class="graph" transform="scale(1 1) rotate(0) translate(4 80)">
<title>G</title>
<polygon style="fill:white;stroke:white;" points="-4,4 -4,-80 338,-80 338,4 -4,4"/>
<!-- Node1 -->
<g id="node1" class="node"><title>Node1</title>
<polygon style="fill:#bfbfbf;stroke:black;" points="91,-56 91,-76 252,-76 252,-56 91,-56"/>
<text text-anchor="middle" x="171" y="-63" style="font-family:Arial;font-size:10.00;">ltr/data/utility/parsers/parse_arff.h</text>
</g>
<!-- Node2 -->
<g id="node3" class="node"><title>Node2</title>
<a xlink:href="parse__arff_8cc.html" target="_top" xlink:title="ltr/data/utility/parsers/parse_arff.cc">
<polygon style="fill:white;stroke:black;" points="0,-0 0,-20 166,-20 166,-0 0,-0"/>
<text text-anchor="middle" x="83" y="-7" style="font-family:Arial;font-size:10.00;">ltr/data/utility/parsers/parse_arff.cc</text>
</a>
</g>
<!-- Node1&#45;&gt;Node2 -->
<g id="edge2" class="edge"><title>Node1&#45;&gt;Node2</title>
<path style="fill:none;stroke:midnightblue;" d="M147,-51C131,-41 112,-28 99,-20"/>
<polygon style="fill:midnightblue;stroke:midnightblue;" points="144.665,-53.668 155,-56 148.375,-47.732 144.665,-53.668"/>
</g>
<!-- Node3 -->
<g id="node5" class="node"><title>Node3</title>
<a xlink:href="parser_8cc.html" target="_top" xlink:title="ltr/data/utility/parsers/parser.cc">
<polygon style="fill:white;stroke:black;" points="184,-0 184,-20 334,-20 334,-0 184,-0"/>
<text text-anchor="middle" x="259" y="-7" style="font-family:Arial;font-size:10.00;">ltr/data/utility/parsers/parser.cc</text>
</a>
</g>
<!-- Node1&#45;&gt;Node3 -->
<g id="edge4" class="edge"><title>Node1&#45;&gt;Node3</title>
<path style="fill:none;stroke:midnightblue;" d="M195,-51C211,-41 230,-28 243,-20"/>
<polygon style="fill:midnightblue;stroke:midnightblue;" points="193.625,-47.732 187,-56 197.335,-53.668 193.625,-47.732"/>
</g>
</g>
</svg>
