<?xml version="1.0" encoding="UTF-8" standalone="no"?>
<!DOCTYPE svg PUBLIC "-//W3C//DTD SVG 1.0//EN"
 "http://www.w3.org/TR/2001/REC-SVG-20010904/DTD/svg10.dtd" [
 <!ATTLIST svg xmlns:xlink CDATA #FIXED "http://www.w3.org/1999/xlink">
]>
<!-- Generated by Graphviz version 2.20.2 (Tue Mar &#160;2 19:03:41 UTC 2010)
     For user: (jenkins)  -->
<!-- Title: G Pages: 1 -->
<svg width="775pt" height="140pt"
 viewBox="0.00 0.00 775.00 140.00" xmlns="http://www.w3.org/2000/svg" xmlns:xlink="http://www.w3.org/1999/xlink">
<g id="graph0" class="graph" transform="scale(1 1) rotate(0) translate(4 136)">
<title>G</title>
<polygon style="fill:white;stroke:white;" points="-4,4 -4,-136 771,-136 771,4 -4,4"/>
<!-- Node1 -->
<g id="node1" class="node"><title>Node1</title>
<polygon style="fill:#bfbfbf;stroke:black;" points="270,-112 270,-132 507,-132 507,-112 270,-112"/>
<text text-anchor="middle" x="388" y="-119" style="font-family:Arial;font-size:10.00;">ltr/feature_converters/per_feature_linear_converter.h</text>
</g>
<!-- Node2 -->
<g id="node3" class="node"><title>Node2</title>
<a xlink:href="feature__normalizer__learner_8h.html" target="_top" xlink:title="ltr/feature_converters/feature_normalizer_learner.h">
<polygon style="fill:white;stroke:black;" points="21,-56 21,-76 252,-76 252,-56 21,-56"/>
<text text-anchor="middle" x="136" y="-63" style="font-family:Arial;font-size:10.00;">ltr/feature_converters/feature_normalizer_learner.h</text>
</a>
</g>
<!-- Node1&#45;&gt;Node2 -->
<g id="edge2" class="edge"><title>Node1&#45;&gt;Node2</title>
<path style="fill:none;stroke:midnightblue;" d="M333,-110C287,-100 224,-85 181,-76"/>
<polygon style="fill:midnightblue;stroke:midnightblue;" points="332.508,-113.471 343,-112 333.881,-106.607 332.508,-113.471"/>
</g>
<!-- Node4 -->
<g id="node7" class="node"><title>Node4</title>
<a xlink:href="feature__converters__unittest_8cc.html" target="_top" xlink:title="ltr/feature_converters/feature_converters_unittest.cc">
<polygon style="fill:white;stroke:black;" points="269,-56 269,-76 508,-76 508,-56 269,-56"/>
<text text-anchor="middle" x="388" y="-63" style="font-family:Arial;font-size:10.00;">ltr/feature_converters/feature_converters_unittest.cc</text>
</a>
</g>
<!-- Node1&#45;&gt;Node4 -->
<g id="edge6" class="edge"><title>Node1&#45;&gt;Node4</title>
<path style="fill:none;stroke:midnightblue;" d="M388,-102C388,-93 388,-84 388,-76"/>
<polygon style="fill:midnightblue;stroke:midnightblue;" points="384.5,-102 388,-112 391.5,-102 384.5,-102"/>
</g>
<!-- Node5 -->
<g id="node9" class="node"><title>Node5</title>
<a xlink:href="per__feature__linear__converter_8cc.html" target="_top" xlink:title="ltr/feature_converters/per_feature_linear_converter.cc">
<polygon style="fill:white;stroke:black;" points="525,-56 525,-76 768,-76 768,-56 525,-56"/>
<text text-anchor="middle" x="646" y="-63" style="font-family:Arial;font-size:10.00;">ltr/feature_converters/per_feature_linear_converter.cc</text>
</a>
</g>
<!-- Node1&#45;&gt;Node5 -->
<g id="edge8" class="edge"><title>Node1&#45;&gt;Node5</title>
<path style="fill:none;stroke:midnightblue;" d="M444,-110C491,-100 556,-85 600,-76"/>
<polygon style="fill:midnightblue;stroke:midnightblue;" points="443.119,-106.607 434,-112 444.492,-113.471 443.119,-106.607"/>
</g>
<!-- Node3 -->
<g id="node5" class="node"><title>Node3</title>
<a xlink:href="feature__converters__learner__unittest_8cc.html" target="_top" xlink:title="ltr/feature_converters/feature_converters_learner_unittest.cc">
<polygon style="fill:white;stroke:black;" points="0,-0 0,-20 273,-20 273,-0 0,-0"/>
<text text-anchor="middle" x="136" y="-7" style="font-family:Arial;font-size:10.00;">ltr/feature_converters/feature_converters_learner_unittest.cc</text>
</a>
</g>
<!-- Node2&#45;&gt;Node3 -->
<g id="edge4" class="edge"><title>Node2&#45;&gt;Node3</title>
<path style="fill:none;stroke:midnightblue;" d="M136,-46C136,-37 136,-28 136,-20"/>
<polygon style="fill:midnightblue;stroke:midnightblue;" points="132.5,-46 136,-56 139.5,-46 132.5,-46"/>
</g>
</g>
</svg>
