<?xml version="1.0" encoding="UTF-8" standalone="no"?>
<!DOCTYPE svg PUBLIC "-//W3C//DTD SVG 1.0//EN"
 "http://www.w3.org/TR/2001/REC-SVG-20010904/DTD/svg10.dtd" [
 <!ATTLIST svg xmlns:xlink CDATA #FIXED "http://www.w3.org/1999/xlink">
]>
<!-- Generated by Graphviz version 2.20.2 (Tue Mar &#160;2 19:03:41 UTC 2010)
     For user: (jenkins)  -->
<!-- Title: G Pages: 1 -->
<svg width="344pt" height="84pt"
 viewBox="0.00 0.00 344.00 84.00" xmlns="http://www.w3.org/2000/svg" xmlns:xlink="http://www.w3.org/1999/xlink">
<g id="graph0" class="graph" transform="scale(1 1) rotate(0) translate(4 80)">
<title>G</title>
<polygon style="fill:white;stroke:white;" points="-4,4 -4,-80 340,-80 340,4 -4,4"/>
<!-- Node1 -->
<g id="node1" class="node"><title>Node1</title>
<polygon style="fill:#bfbfbf;stroke:black;" points="135,-56 135,-76 245,-76 245,-56 135,-56"/>
<text text-anchor="middle" x="190" y="-63" style="font-family:Arial;font-size:10.00;">ltr/measures/pfound.h</text>
</g>
<!-- Node2 -->
<g id="node3" class="node"><title>Node2</title>
<a xlink:href="listwise__measures__unittest_8cc.html" target="_top" xlink:title="ltr/measures/listwise_measures_unittest.cc">
<polygon style="fill:white;stroke:black;" points="0,-0 0,-20 204,-20 204,-0 0,-0"/>
<text text-anchor="middle" x="102" y="-7" style="font-family:Arial;font-size:10.00;">ltr/measures/listwise_measures_unittest.cc</text>
</a>
</g>
<!-- Node1&#45;&gt;Node2 -->
<g id="edge2" class="edge"><title>Node1&#45;&gt;Node2</title>
<path style="fill:none;stroke:midnightblue;" d="M166,-51C150,-41 131,-28 118,-20"/>
<polygon style="fill:midnightblue;stroke:midnightblue;" points="163.665,-53.668 174,-56 167.375,-47.732 163.665,-53.668"/>
</g>
<!-- Node3 -->
<g id="node5" class="node"><title>Node3</title>
<a xlink:href="pfound_8cc.html" target="_top" xlink:title="ltr/measures/pfound.cc">
<polygon style="fill:white;stroke:black;" points="222,-0 222,-20 337,-20 337,-0 222,-0"/>
<text text-anchor="middle" x="279" y="-7" style="font-family:Arial;font-size:10.00;">ltr/measures/pfound.cc</text>
</a>
</g>
<!-- Node1&#45;&gt;Node3 -->
<g id="edge4" class="edge"><title>Node1&#45;&gt;Node3</title>
<path style="fill:none;stroke:midnightblue;" d="M215,-51C230,-41 250,-28 263,-20"/>
<polygon style="fill:midnightblue;stroke:midnightblue;" points="213.042,-48.084 206,-56 216.441,-54.2031 213.042,-48.084"/>
</g>
</g>
</svg>
