<?xml version="1.0" encoding="UTF-8" standalone="no"?>
<!DOCTYPE svg PUBLIC "-//W3C//DTD SVG 1.0//EN"
 "http://www.w3.org/TR/2001/REC-SVG-20010904/DTD/svg10.dtd" [
 <!ATTLIST svg xmlns:xlink CDATA #FIXED "http://www.w3.org/1999/xlink">
]>
<!-- Generated by Graphviz version 2.20.2 (Tue Mar &#160;2 19:03:41 UTC 2010)
     For user: (jenkins)  -->
<!-- Title: G Pages: 1 -->
<svg width="1768pt" height="476pt"
 viewBox="0.00 0.00 1768.00 476.00" xmlns="http://www.w3.org/2000/svg" xmlns:xlink="http://www.w3.org/1999/xlink">
<g id="graph0" class="graph" transform="scale(1 1) rotate(0) translate(4 472)">
<title>G</title>
<polygon style="fill:white;stroke:white;" points="-4,4 -4,-472 1764,-472 1764,4 -4,4"/>
<!-- Node1 -->
<g id="node1" class="node"><title>Node1</title>
<polygon style="fill:#bfbfbf;stroke:black;" points="1069,-448 1069,-468 1282,-468 1282,-448 1069,-448"/>
<text text-anchor="middle" x="1175" y="-455" style="font-family:Arial;font-size:10.00;">ltr/measures/pointwise_measures_unittest.cc</text>
</g>
<!-- Node2 -->
<g id="node3" class="node"><title>Node2</title>
<polygon style="fill:white;stroke:#bfbfbf;" points="0,-392 0,-412 71,-412 71,-392 0,-392"/>
<text text-anchor="middle" x="35" y="-399" style="font-family:Arial;font-size:10.00;">gtest/gtest.h</text>
</g>
<!-- Node1&#45;&gt;Node2 -->
<g id="edge2" class="edge"><title>Node1&#45;&gt;Node2</title>
<path style="fill:none;stroke:midnightblue;" d="M1069,-456C833,-450 272,-435 84,-412 83,-412 82,-412 81,-411"/>
<polygon style="fill:midnightblue;stroke:midnightblue;" points="81.2987,-407.512 71,-410 80.6021,-414.478 81.2987,-407.512"/>
</g>
<!-- Node3 -->
<g id="node5" class="node"><title>Node3</title>
<polygon style="fill:white;stroke:#bfbfbf;" points="1413,-56 1413,-76 1455,-76 1455,-56 1413,-56"/>
<text text-anchor="middle" x="1434" y="-63" style="font-family:Arial;font-size:10.00;">vector</text>
</g>
<!-- Node1&#45;&gt;Node3 -->
<g id="edge4" class="edge"><title>Node1&#45;&gt;Node3</title>
<path style="fill:none;stroke:midnightblue;" d="M1282,-452C1405,-445 1594,-431 1621,-412 1690,-362 1699,-299 1660,-224 1618,-144 1516,-96 1464,-76"/>
<polygon style="fill:midnightblue;stroke:midnightblue;" points="1465.59,-72.842 1455,-73 1463.38,-79.4827 1465.59,-72.842"/>
</g>
<!-- Node4 -->
<g id="node7" class="node"><title>Node4</title>
<a xlink:href="numerical_8h.html" target="_top" xlink:title="ltr/utility/numerical.h">
<polygon style="fill:white;stroke:black;" points="1327,-280 1327,-300 1431,-300 1431,-280 1327,-280"/>
<text text-anchor="middle" x="1379" y="-287" style="font-family:Arial;font-size:10.00;">ltr/utility/numerical.h</text>
</a>
</g>
<!-- Node1&#45;&gt;Node4 -->
<g id="edge6" class="edge"><title>Node1&#45;&gt;Node4</title>
<path style="fill:none;stroke:midnightblue;" d="M1212,-448C1234,-440 1264,-429 1286,-412 1323,-383 1353,-335 1369,-309"/>
<polygon style="fill:midnightblue;stroke:midnightblue;" points="1372.2,-310.441 1374,-300 1366.08,-307.042 1372.2,-310.441"/>
</g>
<!-- Node7 -->
<g id="node13" class="node"><title>Node7</title>
<a xlink:href="object_8h.html" target="_top" xlink:title="ltr/data/object.h">
<polygon style="fill:white;stroke:black;" points="1242,-112 1242,-132 1326,-132 1326,-112 1242,-112"/>
<text text-anchor="middle" x="1284" y="-119" style="font-family:Arial;font-size:10.00;">ltr/data/object.h</text>
</a>
</g>
<!-- Node1&#45;&gt;Node7 -->
<g id="edge12" class="edge"><title>Node1&#45;&gt;Node7</title>
<path style="fill:none;stroke:midnightblue;" d="M1282,-454C1402,-448 1582,-435 1604,-412 1681,-325 1604,-232 1508,-168 1480,-149 1394,-136 1336,-128"/>
<polygon style="fill:midnightblue;stroke:midnightblue;" points="1336.3,-124.512 1326,-127 1335.6,-131.478 1336.3,-124.512"/>
</g>
<!-- Node17 -->
<g id="node36" class="node"><title>Node17</title>
<a xlink:href="parameters__container_8h.html" target="_top" xlink:title="ltr/parameters_container/parameters_container.h">
<polygon style="fill:white;stroke:black;" points="300,-112 300,-132 525,-132 525,-112 300,-112"/>
<text text-anchor="middle" x="412" y="-119" style="font-family:Arial;font-size:10.00;">ltr/parameters_container/parameters_container.h</text>
</a>
</g>
<!-- Node1&#45;&gt;Node17 -->
<g id="edge38" class="edge"><title>Node1&#45;&gt;Node17</title>
<path style="fill:none;stroke:midnightblue;" d="M1069,-455C851,-449 370,-433 298,-412 250,-397 224,-399 198,-356 142,-260 307,-170 380,-136"/>
<polygon style="fill:midnightblue;stroke:midnightblue;" points="381.283,-139.26 389,-132 378.44,-132.863 381.283,-139.26"/>
</g>
<!-- Node22 -->
<g id="node50" class="node"><title>Node22</title>
<a xlink:href="abs__error_8h.html" target="_top" xlink:title="ltr/measures/abs_error.h">
<polygon style="fill:white;stroke:black;" points="1475,-392 1475,-412 1596,-412 1596,-392 1475,-392"/>
<text text-anchor="middle" x="1535" y="-399" style="font-family:Arial;font-size:10.00;">ltr/measures/abs_error.h</text>
</a>
</g>
<!-- Node1&#45;&gt;Node22 -->
<g id="edge56" class="edge"><title>Node1&#45;&gt;Node22</title>
<path style="fill:none;stroke:midnightblue;" d="M1239,-448C1303,-439 1400,-424 1465,-413"/>
<polygon style="fill:midnightblue;stroke:midnightblue;" points="1465.88,-416.393 1475,-411 1464.51,-409.529 1465.88,-416.393"/>
</g>
<!-- Node33 -->
<g id="node118" class="node"><title>Node33</title>
<a xlink:href="accuracy_8h.html" target="_top" xlink:title="ltr/measures/accuracy.h">
<polygon style="fill:white;stroke:black;" points="537,-392 537,-412 657,-412 657,-392 537,-392"/>
<text text-anchor="middle" x="597" y="-399" style="font-family:Arial;font-size:10.00;">ltr/measures/accuracy.h</text>
</a>
</g>
<!-- Node1&#45;&gt;Node33 -->
<g id="edge170" class="edge"><title>Node1&#45;&gt;Node33</title>
<path style="fill:none;stroke:midnightblue;" d="M1069,-450C968,-442 812,-429 667,-412"/>
<polygon style="fill:midnightblue;stroke:midnightblue;" points="667.299,-408.512 657,-411 666.602,-415.478 667.299,-408.512"/>
</g>
<!-- Node34 -->
<g id="node122" class="node"><title>Node34</title>
<a xlink:href="squared__error_8h.html" target="_top" xlink:title="ltr/measures/squared_error.h">
<polygon style="fill:white;stroke:black;" points="675,-392 675,-412 815,-412 815,-392 675,-392"/>
<text text-anchor="middle" x="745" y="-399" style="font-family:Arial;font-size:10.00;">ltr/measures/squared_error.h</text>
</a>
</g>
<!-- Node1&#45;&gt;Node34 -->
<g id="edge176" class="edge"><title>Node1&#45;&gt;Node34</title>
<path style="fill:none;stroke:midnightblue;" d="M1098,-448C1020,-438 904,-422 825,-412"/>
<polygon style="fill:midnightblue;stroke:midnightblue;" points="825.299,-408.512 815,-411 824.602,-415.478 825.299,-408.512"/>
</g>
<!-- Node35 -->
<g id="node129" class="node"><title>Node35</title>
<a xlink:href="true__point_8h.html" target="_top" xlink:title="ltr/measures/true_point.h">
<polygon style="fill:white;stroke:black;" points="1333,-392 1333,-412 1457,-412 1457,-392 1333,-392"/>
<text text-anchor="middle" x="1395" y="-399" style="font-family:Arial;font-size:10.00;">ltr/measures/true_point.h</text>
</a>
</g>
<!-- Node1&#45;&gt;Node35 -->
<g id="edge188" class="edge"><title>Node1&#45;&gt;Node35</title>
<path style="fill:none;stroke:midnightblue;" d="M1214,-448C1251,-439 1306,-424 1346,-414"/>
<polygon style="fill:midnightblue;stroke:midnightblue;" points="1346.88,-417.393 1356,-412 1345.51,-410.529 1346.88,-417.393"/>
</g>
<!-- Node36 -->
<g id="node135" class="node"><title>Node36</title>
<a xlink:href="binary__classification__margin_8h.html" target="_top" xlink:title="ltr/measures/binary_classification_margin.h">
<polygon style="fill:white;stroke:black;" points="1073,-392 1073,-412 1277,-412 1277,-392 1073,-392"/>
<text text-anchor="middle" x="1175" y="-399" style="font-family:Arial;font-size:10.00;">ltr/measures/binary_classification_margin.h</text>
</a>
</g>
<!-- Node1&#45;&gt;Node36 -->
<g id="edge198" class="edge"><title>Node1&#45;&gt;Node36</title>
<path style="fill:none;stroke:midnightblue;" d="M1175,-448C1175,-441 1175,-431 1175,-422"/>
<polygon style="fill:midnightblue;stroke:midnightblue;" points="1178.5,-422 1175,-412 1171.5,-422 1178.5,-422"/>
</g>
<!-- Node37 -->
<g id="node140" class="node"><title>Node37</title>
<a xlink:href="binary__classification__accuracy_8h.html" target="_top" xlink:title="ltr/measures/binary_classification_accuracy.h">
<polygon style="fill:white;stroke:black;" points="307,-392 307,-412 520,-412 520,-392 307,-392"/>
<text text-anchor="middle" x="413" y="-399" style="font-family:Arial;font-size:10.00;">ltr/measures/binary_classification_accuracy.h</text>
</a>
</g>
<!-- Node1&#45;&gt;Node37 -->
<g id="edge206" class="edge"><title>Node1&#45;&gt;Node37</title>
<path style="fill:none;stroke:midnightblue;" d="M1069,-451C943,-442 727,-428 530,-412"/>
<polygon style="fill:midnightblue;stroke:midnightblue;" points="530.299,-408.512 520,-411 529.602,-415.478 530.299,-408.512"/>
</g>
<!-- Node5 -->
<g id="node9" class="node"><title>Node5</title>
<polygon style="fill:white;stroke:#bfbfbf;" points="1462,-224 1462,-244 1505,-244 1505,-224 1462,-224"/>
<text text-anchor="middle" x="1483" y="-231" style="font-family:Arial;font-size:10.00;">cmath</text>
</g>
<!-- Node4&#45;&gt;Node5 -->
<g id="edge8" class="edge"><title>Node4&#45;&gt;Node5</title>
<path style="fill:none;stroke:midnightblue;" d="M1398,-280C1414,-272 1437,-259 1455,-249"/>
<polygon style="fill:midnightblue;stroke:midnightblue;" points="1456.96,-251.916 1464,-244 1453.56,-245.797 1456.96,-251.916"/>
</g>
<!-- Node6 -->
<g id="node11" class="node"><title>Node6</title>
<polygon style="fill:white;stroke:#bfbfbf;" points="1406,-224 1406,-244 1445,-244 1445,-224 1406,-224"/>
<text text-anchor="middle" x="1425" y="-231" style="font-family:Arial;font-size:10.00;">limits</text>
</g>
<!-- Node4&#45;&gt;Node6 -->
<g id="edge10" class="edge"><title>Node4&#45;&gt;Node6</title>
<path style="fill:none;stroke:midnightblue;" d="M1387,-280C1393,-272 1402,-262 1410,-252"/>
<polygon style="fill:midnightblue;stroke:midnightblue;" points="1412.8,-254.1 1416,-244 1407.2,-249.9 1412.8,-254.1"/>
</g>
<!-- Node7&#45;&gt;Node3 -->
<g id="edge22" class="edge"><title>Node7&#45;&gt;Node3</title>
<path style="fill:none;stroke:midnightblue;" d="M1311,-112C1337,-102 1376,-88 1404,-78"/>
<polygon style="fill:midnightblue;stroke:midnightblue;" points="1405.28,-81.2598 1413,-74 1402.44,-74.8631 1405.28,-81.2598"/>
</g>
<!-- Node8 -->
<g id="node15" class="node"><title>Node8</title>
<polygon style="fill:white;stroke:#bfbfbf;" points="1128,-56 1128,-76 1163,-76 1163,-56 1128,-56"/>
<text text-anchor="middle" x="1145" y="-63" style="font-family:Arial;font-size:10.00;">map</text>
</g>
<!-- Node7&#45;&gt;Node8 -->
<g id="edge14" class="edge"><title>Node7&#45;&gt;Node8</title>
<path style="fill:none;stroke:midnightblue;" d="M1259,-112C1235,-102 1198,-87 1173,-77"/>
<polygon style="fill:midnightblue;stroke:midnightblue;" points="1173.58,-73.4643 1163,-73 1170.98,-79.9636 1173.58,-73.4643"/>
</g>
<!-- Node9 -->
<g id="node17" class="node"><title>Node9</title>
<polygon style="fill:white;stroke:#bfbfbf;" points="1294,-0 1294,-20 1345,-20 1345,-0 1294,-0"/>
<text text-anchor="middle" x="1319" y="-7" style="font-family:Arial;font-size:10.00;">ostream</text>
</g>
<!-- Node7&#45;&gt;Node9 -->
<g id="edge16" class="edge"><title>Node7&#45;&gt;Node9</title>
<path style="fill:none;stroke:midnightblue;" d="M1304,-112C1318,-104 1335,-92 1343,-76 1350,-61 1342,-42 1334,-28"/>
<polygon style="fill:midnightblue;stroke:midnightblue;" points="1336.8,-25.9 1328,-20 1331.2,-30.1 1336.8,-25.9"/>
</g>
<!-- Node10 -->
<g id="node19" class="node"><title>Node10</title>
<polygon style="fill:white;stroke:#bfbfbf;" points="748,-56 748,-76 807,-76 807,-56 748,-56"/>
<text text-anchor="middle" x="777" y="-63" style="font-family:Arial;font-size:10.00;">stdexcept</text>
</g>
<!-- Node7&#45;&gt;Node10 -->
<g id="edge18" class="edge"><title>Node7&#45;&gt;Node10</title>
<path style="fill:none;stroke:midnightblue;" d="M1242,-117C1146,-106 912,-81 817,-70"/>
<polygon style="fill:midnightblue;stroke:midnightblue;" points="817.299,-66.5125 807,-69 816.602,-73.4778 817.299,-66.5125"/>
</g>
<!-- Node11 -->
<g id="node21" class="node"><title>Node11</title>
<polygon style="fill:white;stroke:#bfbfbf;" points="807,-0 807,-20 847,-20 847,-0 807,-0"/>
<text text-anchor="middle" x="827" y="-7" style="font-family:Arial;font-size:10.00;">string</text>
</g>
<!-- Node7&#45;&gt;Node11 -->
<g id="edge20" class="edge"><title>Node7&#45;&gt;Node11</title>
<path style="fill:none;stroke:midnightblue;" d="M1268,-112C1239,-94 1181,-59 1171,-56 1040,-12 995,-49 857,-19"/>
<polygon style="fill:midnightblue;stroke:midnightblue;" points="857.492,-15.5292 847,-17 856.119,-22.3933 857.492,-15.5292"/>
</g>
<!-- Node12 -->
<g id="node24" class="node"><title>Node12</title>
<a xlink:href="printable_8h.html" target="_top" xlink:title="ltr/interfaces/printable.h">
<polygon style="fill:white;stroke:black;" points="1218,-56 1218,-76 1335,-76 1335,-56 1218,-56"/>
<text text-anchor="middle" x="1276" y="-63" style="font-family:Arial;font-size:10.00;">ltr/interfaces/printable.h</text>
</a>
</g>
<!-- Node7&#45;&gt;Node12 -->
<g id="edge24" class="edge"><title>Node7&#45;&gt;Node12</title>
<path style="fill:none;stroke:midnightblue;" d="M1283,-112C1282,-105 1280,-95 1279,-86"/>
<polygon style="fill:midnightblue;stroke:midnightblue;" points="1282.39,-85.1194 1277,-76 1275.53,-86.4922 1282.39,-85.1194"/>
</g>
<!-- Node13 -->
<g id="node28" class="node"><title>Node13</title>
<a xlink:href="shared__ptr_8h.html" target="_top" xlink:title="ltr/utility/shared_ptr.h">
<polygon style="fill:white;stroke:black;" points="904,-56 904,-76 1011,-76 1011,-56 904,-56"/>
<text text-anchor="middle" x="957" y="-63" style="font-family:Arial;font-size:10.00;">ltr/utility/shared_ptr.h</text>
</a>
</g>
<!-- Node7&#45;&gt;Node13 -->
<g id="edge30" class="edge"><title>Node7&#45;&gt;Node13</title>
<path style="fill:none;stroke:midnightblue;" d="M1242,-114C1237,-114 1232,-113 1228,-112 1156,-100 1076,-86 1021,-77"/>
<polygon style="fill:midnightblue;stroke:midnightblue;" points="1021.49,-73.5292 1011,-75 1020.12,-80.3933 1021.49,-73.5292"/>
</g>
<!-- Node12&#45;&gt;Node9 -->
<g id="edge26" class="edge"><title>Node12&#45;&gt;Node9</title>
<path style="fill:none;stroke:midnightblue;" d="M1284,-56C1290,-48 1298,-38 1305,-28"/>
<polygon style="fill:midnightblue;stroke:midnightblue;" points="1307.8,-30.1 1311,-20 1302.2,-25.9 1307.8,-30.1"/>
</g>
<!-- Node12&#45;&gt;Node11 -->
<g id="edge28" class="edge"><title>Node12&#45;&gt;Node11</title>
<path style="fill:none;stroke:midnightblue;" d="M1218,-57C1213,-57 1209,-56 1204,-56 1052,-37 1009,-52 857,-20"/>
<polygon style="fill:midnightblue;stroke:midnightblue;" points="857.492,-16.5292 847,-18 856.119,-23.3933 857.492,-16.5292"/>
</g>
<!-- Node14 -->
<g id="node30" class="node"><title>Node14</title>
<polygon style="fill:white;stroke:#bfbfbf;" points="383,-0 383,-20 439,-20 439,-0 383,-0"/>
<text text-anchor="middle" x="411" y="-7" style="font-family:Arial;font-size:10.00;">algorithm</text>
</g>
<!-- Node13&#45;&gt;Node14 -->
<g id="edge32" class="edge"><title>Node13&#45;&gt;Node14</title>
<path style="fill:none;stroke:midnightblue;" d="M904,-61C794,-49 545,-24 449,-14"/>
<polygon style="fill:midnightblue;stroke:midnightblue;" points="449.299,-10.5125 439,-13 448.602,-17.4778 449.299,-10.5125"/>
</g>
<!-- Node15 -->
<g id="node32" class="node"><title>Node15</title>
<polygon style="fill:white;stroke:#bfbfbf;" points="1073,-0 1073,-20 1180,-20 1180,-0 1073,-0"/>
<text text-anchor="middle" x="1126" y="-7" style="font-family:Arial;font-size:10.00;">boost/shared_ptr.hpp</text>
</g>
<!-- Node13&#45;&gt;Node15 -->
<g id="edge34" class="edge"><title>Node13&#45;&gt;Node15</title>
<path style="fill:none;stroke:midnightblue;" d="M987,-56C1015,-47 1056,-33 1086,-23"/>
<polygon style="fill:midnightblue;stroke:midnightblue;" points="1087.43,-26.2259 1096,-20 1085.42,-19.5212 1087.43,-26.2259"/>
</g>
<!-- Node16 -->
<g id="node34" class="node"><title>Node16</title>
<polygon style="fill:white;stroke:#bfbfbf;" points="865,-0 865,-20 1056,-20 1056,-0 865,-0"/>
<text text-anchor="middle" x="960" y="-7" style="font-family:Arial;font-size:10.00;">boost/smart_ptr/detail/operator_bool.hpp</text>
</g>
<!-- Node13&#45;&gt;Node16 -->
<g id="edge36" class="edge"><title>Node13&#45;&gt;Node16</title>
<path style="fill:none;stroke:midnightblue;" d="M958,-56C958,-49 959,-39 959,-30"/>
<polygon style="fill:midnightblue;stroke:midnightblue;" points="962.5,-30 959,-20 955.5,-30 962.5,-30"/>
</g>
<!-- Node17&#45;&gt;Node10 -->
<g id="edge44" class="edge"><title>Node17&#45;&gt;Node10</title>
<path style="fill:none;stroke:midnightblue;" d="M477,-112C553,-101 675,-82 738,-73"/>
<polygon style="fill:midnightblue;stroke:midnightblue;" points="738.881,-76.3933 748,-71 737.508,-69.5292 738.881,-76.3933"/>
</g>
<!-- Node17&#45;&gt;Node11 -->
<g id="edge46" class="edge"><title>Node17&#45;&gt;Node11</title>
<path style="fill:none;stroke:midnightblue;" d="M475,-112C518,-104 576,-92 625,-76 645,-69 649,-63 668,-56 712,-40 765,-25 797,-17"/>
<polygon style="fill:midnightblue;stroke:midnightblue;" points="797.881,-20.3933 807,-15 796.508,-13.5292 797.881,-20.3933"/>
</g>
<!-- Node17&#45;&gt;Node12 -->
<g id="edge54" class="edge"><title>Node17&#45;&gt;Node12</title>
<path style="fill:none;stroke:midnightblue;" d="M525,-116C674,-109 942,-94 1171,-76 1183,-75 1196,-74 1208,-73"/>
<polygon style="fill:midnightblue;stroke:midnightblue;" points="1208.4,-76.4778 1218,-72 1207.7,-69.5125 1208.4,-76.4778"/>
</g>
<!-- Node17&#45;&gt;Node13 -->
<g id="edge52" class="edge"><title>Node17&#45;&gt;Node13</title>
<path style="fill:none;stroke:midnightblue;" d="M509,-112C620,-100 799,-82 894,-72"/>
<polygon style="fill:midnightblue;stroke:midnightblue;" points="894.398,-75.4778 904,-71 893.701,-68.5125 894.398,-75.4778"/>
</g>
<!-- Node18 -->
<g id="node38" class="node"><title>Node18</title>
<polygon style="fill:white;stroke:#bfbfbf;" points="256,-56 256,-76 330,-76 330,-56 256,-56"/>
<text text-anchor="middle" x="293" y="-63" style="font-family:Arial;font-size:10.00;">logog/logog.h</text>
</g>
<!-- Node17&#45;&gt;Node18 -->
<g id="edge40" class="edge"><title>Node17&#45;&gt;Node18</title>
<path style="fill:none;stroke:midnightblue;" d="M391,-112C372,-103 345,-90 323,-80"/>
<polygon style="fill:midnightblue;stroke:midnightblue;" points="324.56,-76.8631 314,-76 321.717,-83.2598 324.56,-76.8631"/>
</g>
<!-- Node19 -->
<g id="node40" class="node"><title>Node19</title>
<polygon style="fill:white;stroke:#bfbfbf;" points="494,-56 494,-76 523,-76 523,-56 494,-56"/>
<text text-anchor="middle" x="508" y="-63" style="font-family:Arial;font-size:10.00;">list</text>
</g>
<!-- Node17&#45;&gt;Node19 -->
<g id="edge42" class="edge"><title>Node17&#45;&gt;Node19</title>
<path style="fill:none;stroke:midnightblue;" d="M429,-112C445,-103 468,-89 485,-79"/>
<polygon style="fill:midnightblue;stroke:midnightblue;" points="486.958,-81.916 494,-74 483.559,-75.7969 486.958,-81.916"/>
</g>
<!-- Node20 -->
<g id="node44" class="node"><title>Node20</title>
<polygon style="fill:white;stroke:#bfbfbf;" points="540,-56 540,-76 617,-76 617,-56 540,-56"/>
<text text-anchor="middle" x="578" y="-63" style="font-family:Arial;font-size:10.00;">boost/any.hpp</text>
</g>
<!-- Node17&#45;&gt;Node20 -->
<g id="edge48" class="edge"><title>Node17&#45;&gt;Node20</title>
<path style="fill:none;stroke:midnightblue;" d="M442,-112C469,-103 509,-89 538,-79"/>
<polygon style="fill:midnightblue;stroke:midnightblue;" points="539.427,-82.2259 548,-76 537.416,-75.5212 539.427,-82.2259"/>
</g>
<!-- Node21 -->
<g id="node46" class="node"><title>Node21</title>
<polygon style="fill:white;stroke:#bfbfbf;" points="348,-56 348,-76 477,-76 477,-56 348,-56"/>
<text text-anchor="middle" x="412" y="-63" style="font-family:Arial;font-size:10.00;">boost/unordered_map.hpp</text>
</g>
<!-- Node17&#45;&gt;Node21 -->
<g id="edge50" class="edge"><title>Node17&#45;&gt;Node21</title>
<path style="fill:none;stroke:midnightblue;" d="M412,-112C412,-105 412,-95 412,-86"/>
<polygon style="fill:midnightblue;stroke:midnightblue;" points="415.5,-86 412,-76 408.5,-86 415.5,-86"/>
</g>
<!-- Node22&#45;&gt;Node4 -->
<g id="edge62" class="edge"><title>Node22&#45;&gt;Node4</title>
<path style="fill:none;stroke:midnightblue;" d="M1521,-392C1493,-372 1434,-330 1401,-306"/>
<polygon style="fill:midnightblue;stroke:midnightblue;" points="1403.1,-303.2 1393,-300 1398.9,-308.8 1403.1,-303.2"/>
</g>
<!-- Node22&#45;&gt;Node5 -->
<g id="edge58" class="edge"><title>Node22&#45;&gt;Node5</title>
<path style="fill:none;stroke:midnightblue;" d="M1532,-392C1524,-365 1501,-290 1489,-254"/>
<polygon style="fill:midnightblue;stroke:midnightblue;" points="1492.23,-252.573 1486,-244 1485.52,-254.584 1492.23,-252.573"/>
</g>
<!-- Node22&#45;&gt;Node7 -->
<g id="edge168" class="edge"><title>Node22&#45;&gt;Node7</title>
<path style="fill:none;stroke:midnightblue;" d="M1537,-392C1542,-364 1554,-283 1530,-224 1517,-192 1508,-185 1479,-168 1435,-141 1378,-131 1336,-126"/>
<polygon style="fill:midnightblue;stroke:midnightblue;" points="1336.3,-122.512 1326,-125 1335.6,-129.478 1336.3,-122.512"/>
</g>
<!-- Node22&#45;&gt;Node11 -->
<g id="edge60" class="edge"><title>Node22&#45;&gt;Node11</title>
<path style="fill:none;stroke:midnightblue;" d="M1559,-392C1617,-366 1760,-290 1760,-178 1760,-178 1760,-178 1760,-122 1760,-64 1703,-72 1648,-56 1482,-6 1045,-51 857,-20"/>
<polygon style="fill:midnightblue;stroke:midnightblue;" points="857.492,-16.5292 847,-18 856.119,-23.3933 857.492,-16.5292"/>
</g>
<!-- Node23 -->
<g id="node55" class="node"><title>Node23</title>
<a xlink:href="measure_8h.html" target="_top" xlink:title="ltr/measures/measure.h">
<polygon style="fill:white;stroke:black;" points="627,-336 627,-356 746,-356 746,-336 627,-336"/>
<text text-anchor="middle" x="686" y="-343" style="font-family:Arial;font-size:10.00;">ltr/measures/measure.h</text>
</a>
</g>
<!-- Node22&#45;&gt;Node23 -->
<g id="edge64" class="edge"><title>Node22&#45;&gt;Node23</title>
<path style="fill:none;stroke:midnightblue;" d="M1475,-393C1472,-393 1469,-392 1466,-392 1205,-365 893,-353 756,-348"/>
<polygon style="fill:midnightblue;stroke:midnightblue;" points="756,-344.5 746,-348 756,-351.5 756,-344.5"/>
</g>
<!-- Node23&#45;&gt;Node4 -->
<g id="edge164" class="edge"><title>Node23&#45;&gt;Node4</title>
<path style="fill:none;stroke:midnightblue;" d="M746,-340C760,-338 775,-337 789,-336 1021,-316 1080,-325 1313,-300 1314,-300 1316,-299 1317,-299"/>
<polygon style="fill:midnightblue;stroke:midnightblue;" points="1317.4,-302.478 1327,-298 1316.7,-295.512 1317.4,-302.478"/>
</g>
<!-- Node23&#45;&gt;Node7 -->
<g id="edge76" class="edge"><title>Node23&#45;&gt;Node7</title>
<path style="fill:none;stroke:midnightblue;" d="M746,-344C826,-340 970,-330 1090,-300 1218,-267 1292,-298 1367,-188 1381,-166 1353,-147 1326,-136"/>
<polygon style="fill:midnightblue;stroke:midnightblue;" points="1326.58,-132.464 1316,-132 1323.98,-138.964 1326.58,-132.464"/>
</g>
<!-- Node23&#45;&gt;Node10 -->
<g id="edge72" class="edge"><title>Node23&#45;&gt;Node10</title>
<path style="fill:none;stroke:midnightblue;" d="M680,-336C675,-327 667,-313 662,-300 652,-267 648,-257 654,-224 665,-171 666,-152 701,-112 712,-99 729,-88 743,-81"/>
<polygon style="fill:midnightblue;stroke:midnightblue;" points="744.958,-83.916 752,-76 741.559,-77.7969 744.958,-83.916"/>
</g>
<!-- Node23&#45;&gt;Node11 -->
<g id="edge74" class="edge"><title>Node23&#45;&gt;Node11</title>
<path style="fill:none;stroke:midnightblue;" d="M627,-341C557,-335 446,-321 410,-300 299,-232 159,-151 247,-56 265,-36 680,-16 797,-11"/>
<polygon style="fill:midnightblue;stroke:midnightblue;" points="797,-14.5001 807,-11 797,-7.5001 797,-14.5001"/>
</g>
<!-- Node23&#45;&gt;Node12 -->
<g id="edge158" class="edge"><title>Node23&#45;&gt;Node12</title>
<path style="fill:none;stroke:midnightblue;" d="M746,-343C888,-335 1241,-309 1338,-244 1370,-221 1392,-205 1382,-168 1374,-140 1369,-132 1349,-112 1337,-99 1321,-89 1307,-81"/>
<polygon style="fill:midnightblue;stroke:midnightblue;" points="1308.44,-77.7969 1298,-76 1305.04,-83.916 1308.44,-77.7969"/>
</g>
<!-- Node23&#45;&gt;Node13 -->
<g id="edge166" class="edge"><title>Node23&#45;&gt;Node13</title>
<path style="fill:none;stroke:midnightblue;" d="M627,-338C577,-330 511,-316 489,-300 461,-277 438,-253 459,-224 512,-153 772,-98 894,-77"/>
<polygon style="fill:midnightblue;stroke:midnightblue;" points="894.881,-80.3933 904,-75 893.508,-73.5292 894.881,-80.3933"/>
</g>
<!-- Node23&#45;&gt;Node14 -->
<g id="edge70" class="edge"><title>Node23&#45;&gt;Node14</title>
<path style="fill:none;stroke:midnightblue;" d="M627,-342C471,-329 60,-291 60,-234 60,-234 60,-234 60,-122 60,-90 60,-75 84,-56 107,-38 291,-20 373,-13"/>
<polygon style="fill:midnightblue;stroke:midnightblue;" points="373.398,-16.4778 383,-12 372.701,-9.5125 373.398,-16.4778"/>
</g>
<!-- Node23&#45;&gt;Node17 -->
<g id="edge162" class="edge"><title>Node23&#45;&gt;Node17</title>
<path style="fill:none;stroke:midnightblue;" d="M627,-344C559,-340 453,-329 426,-300 386,-256 398,-178 407,-142"/>
<polygon style="fill:midnightblue;stroke:midnightblue;" points="410.471,-142.492 409,-132 403.607,-141.119 410.471,-142.492"/>
</g>
<!-- Node23&#45;&gt;Node18 -->
<g id="edge66" class="edge"><title>Node23&#45;&gt;Node18</title>
<path style="fill:none;stroke:midnightblue;" d="M627,-341C557,-335 445,-322 410,-300 333,-251 319,-219 291,-132 287,-117 287,-99 289,-86"/>
<polygon style="fill:midnightblue;stroke:midnightblue;" points="292.471,-86.4922 291,-76 285.607,-85.1194 292.471,-86.4922"/>
</g>
<!-- Node24 -->
<g id="node58" class="node"><title>Node24</title>
<polygon style="fill:white;stroke:#bfbfbf;" points="506,-280 506,-300 620,-300 620,-280 506,-280"/>
<text text-anchor="middle" x="563" y="-287" style="font-family:Arial;font-size:10.00;">boost/lexical_cast.hpp</text>
</g>
<!-- Node23&#45;&gt;Node24 -->
<g id="edge68" class="edge"><title>Node23&#45;&gt;Node24</title>
<path style="fill:none;stroke:midnightblue;" d="M664,-336C645,-327 617,-314 594,-304"/>
<polygon style="fill:midnightblue;stroke:midnightblue;" points="595.56,-300.863 585,-300 592.717,-307.26 595.56,-300.863"/>
</g>
<!-- Node25 -->
<g id="node64" class="node"><title>Node25</title>
<a xlink:href="object__list_8h.html" target="_top" xlink:title="ltr/data/object_list.h">
<polygon style="fill:white;stroke:black;" points="1058,-168 1058,-188 1160,-188 1160,-168 1058,-168"/>
<text text-anchor="middle" x="1109" y="-175" style="font-family:Arial;font-size:10.00;">ltr/data/object_list.h</text>
</a>
</g>
<!-- Node23&#45;&gt;Node25 -->
<g id="edge78" class="edge"><title>Node23&#45;&gt;Node25</title>
<path style="fill:none;stroke:midnightblue;" d="M746,-341C857,-331 1084,-304 1131,-244 1141,-230 1133,-211 1124,-197"/>
<polygon style="fill:midnightblue;stroke:midnightblue;" points="1126.46,-194.379 1118,-188 1120.63,-198.262 1126.46,-194.379"/>
</g>
<!-- Node26 -->
<g id="node72" class="node"><title>Node26</title>
<a xlink:href="object__pair_8h.html" target="_top" xlink:title="ltr/data/object_pair.h">
<polygon style="fill:white;stroke:black;" points="1254,-168 1254,-188 1358,-188 1358,-168 1254,-168"/>
<text text-anchor="middle" x="1306" y="-175" style="font-family:Arial;font-size:10.00;">ltr/data/object_pair.h</text>
</a>
</g>
<!-- Node23&#45;&gt;Node26 -->
<g id="edge92" class="edge"><title>Node23&#45;&gt;Node26</title>
<path style="fill:none;stroke:midnightblue;" d="M746,-343C819,-338 945,-326 1050,-300 1117,-283 1133,-274 1196,-244 1227,-229 1261,-208 1283,-194"/>
<polygon style="fill:midnightblue;stroke:midnightblue;" points="1285.1,-196.8 1291,-188 1280.9,-191.2 1285.1,-196.8"/>
</g>
<!-- Node27 -->
<g id="node80" class="node"><title>Node27</title>
<a xlink:href="data__set_8h.html" target="_top" xlink:title="ltr/data/data_set.h">
<polygon style="fill:white;stroke:black;" points="820,-280 820,-300 915,-300 915,-280 820,-280"/>
<text text-anchor="middle" x="867" y="-287" style="font-family:Arial;font-size:10.00;">ltr/data/data_set.h</text>
</a>
</g>
<!-- Node23&#45;&gt;Node27 -->
<g id="edge106" class="edge"><title>Node23&#45;&gt;Node27</title>
<path style="fill:none;stroke:midnightblue;" d="M718,-336C748,-327 792,-313 824,-303"/>
<polygon style="fill:midnightblue;stroke:midnightblue;" points="825.427,-306.226 834,-300 823.416,-299.521 825.427,-306.226"/>
</g>
<!-- Node30 -->
<g id="node95" class="node"><title>Node30</title>
<a xlink:href="parameterized_8h.html" target="_top" xlink:title="ltr/interfaces/parameterized.h">
<polygon style="fill:white;stroke:black;" points="708,-168 708,-188 850,-188 850,-168 708,-168"/>
<text text-anchor="middle" x="779" y="-175" style="font-family:Arial;font-size:10.00;">ltr/interfaces/parameterized.h</text>
</a>
</g>
<!-- Node23&#45;&gt;Node30 -->
<g id="edge160" class="edge"><title>Node23&#45;&gt;Node30</title>
<path style="fill:none;stroke:midnightblue;" d="M682,-336C672,-310 649,-242 661,-224 669,-211 701,-200 729,-191"/>
<polygon style="fill:midnightblue;stroke:midnightblue;" points="730.427,-194.226 739,-188 728.416,-187.521 730.427,-194.226"/>
</g>
<!-- Node32 -->
<g id="node108" class="node"><title>Node32</title>
<a xlink:href="aliaser_8h.html" target="_top" xlink:title="ltr/interfaces/aliaser.h">
<polygon style="fill:white;stroke:black;" points="468,-224 468,-244 576,-244 576,-224 468,-224"/>
<text text-anchor="middle" x="522" y="-231" style="font-family:Arial;font-size:10.00;">ltr/interfaces/aliaser.h</text>
</a>
</g>
<!-- Node23&#45;&gt;Node32 -->
<g id="edge156" class="edge"><title>Node23&#45;&gt;Node32</title>
<path style="fill:none;stroke:midnightblue;" d="M627,-339C577,-332 513,-320 497,-300 486,-286 496,-266 506,-252"/>
<polygon style="fill:midnightblue;stroke:midnightblue;" points="508.8,-254.1 512,-244 503.2,-249.9 508.8,-254.1"/>
</g>
<!-- Node25&#45;&gt;Node3 -->
<g id="edge84" class="edge"><title>Node25&#45;&gt;Node3</title>
<path style="fill:none;stroke:midnightblue;" d="M1160,-173C1207,-167 1278,-156 1335,-132 1365,-119 1395,-98 1414,-82"/>
<polygon style="fill:midnightblue;stroke:midnightblue;" points="1416.1,-84.8 1422,-76 1411.9,-79.2 1416.1,-84.8"/>
</g>
<!-- Node25&#45;&gt;Node7 -->
<g id="edge86" class="edge"><title>Node25&#45;&gt;Node7</title>
<path style="fill:none;stroke:midnightblue;" d="M1140,-168C1169,-159 1212,-145 1243,-135"/>
<polygon style="fill:midnightblue;stroke:midnightblue;" points="1244.43,-138.226 1253,-132 1242.42,-131.521 1244.43,-138.226"/>
</g>
<!-- Node25&#45;&gt;Node10 -->
<g id="edge80" class="edge"><title>Node25&#45;&gt;Node10</title>
<path style="fill:none;stroke:midnightblue;" d="M1079,-168C1051,-159 1008,-144 972,-132 918,-114 856,-93 817,-79"/>
<polygon style="fill:midnightblue;stroke:midnightblue;" points="817.584,-75.5212 807,-76 815.573,-82.2259 817.584,-75.5212"/>
</g>
<!-- Node25&#45;&gt;Node11 -->
<g id="edge82" class="edge"><title>Node25&#45;&gt;Node11</title>
<path style="fill:none;stroke:midnightblue;" d="M1105,-168C1094,-144 1063,-84 1019,-56 959,-17 930,-38 857,-20"/>
<polygon style="fill:midnightblue;stroke:midnightblue;" points="857.584,-16.5212 847,-17 855.573,-23.2259 857.584,-16.5212"/>
</g>
<!-- Node25&#45;&gt;Node12 -->
<g id="edge88" class="edge"><title>Node25&#45;&gt;Node12</title>
<path style="fill:none;stroke:midnightblue;" d="M1124,-168C1153,-148 1217,-106 1252,-82"/>
<polygon style="fill:midnightblue;stroke:midnightblue;" points="1254.62,-84.4592 1261,-76 1250.74,-78.6349 1254.62,-84.4592"/>
</g>
<!-- Node25&#45;&gt;Node13 -->
<g id="edge90" class="edge"><title>Node25&#45;&gt;Node13</title>
<path style="fill:none;stroke:midnightblue;" d="M1095,-168C1069,-148 1011,-106 979,-82"/>
<polygon style="fill:midnightblue;stroke:midnightblue;" points="981.1,-79.2 971,-76 976.9,-84.8 981.1,-79.2"/>
</g>
<!-- Node26&#45;&gt;Node3 -->
<g id="edge98" class="edge"><title>Node26&#45;&gt;Node3</title>
<path style="fill:none;stroke:midnightblue;" d="M1343,-168C1364,-161 1389,-149 1406,-132 1418,-119 1425,-100 1430,-86"/>
<polygon style="fill:midnightblue;stroke:midnightblue;" points="1433.47,-86.4922 1432,-76 1426.61,-85.1194 1433.47,-86.4922"/>
</g>
<!-- Node26&#45;&gt;Node7 -->
<g id="edge100" class="edge"><title>Node26&#45;&gt;Node7</title>
<path style="fill:none;stroke:midnightblue;" d="M1302,-168C1299,-161 1295,-151 1292,-141"/>
<polygon style="fill:midnightblue;stroke:midnightblue;" points="1295.26,-139.717 1288,-132 1288.86,-142.56 1295.26,-139.717"/>
</g>
<!-- Node26&#45;&gt;Node10 -->
<g id="edge94" class="edge"><title>Node26&#45;&gt;Node10</title>
<path style="fill:none;stroke:midnightblue;" d="M1259,-168C1156,-146 913,-95 817,-74"/>
<polygon style="fill:midnightblue;stroke:midnightblue;" points="817.492,-70.5292 807,-72 816.119,-77.3933 817.492,-70.5292"/>
</g>
<!-- Node26&#45;&gt;Node11 -->
<g id="edge96" class="edge"><title>Node26&#45;&gt;Node11</title>
<path style="fill:none;stroke:midnightblue;" d="M1339,-168C1398,-149 1509,-104 1464,-56 1419,-8 958,-31 857,-20"/>
<polygon style="fill:midnightblue;stroke:midnightblue;" points="857.492,-16.5292 847,-18 856.119,-23.3933 857.492,-16.5292"/>
</g>
<!-- Node26&#45;&gt;Node12 -->
<g id="edge102" class="edge"><title>Node26&#45;&gt;Node12</title>
<path style="fill:none;stroke:midnightblue;" d="M1316,-168C1328,-155 1345,-131 1335,-112 1329,-99 1317,-89 1306,-82"/>
<polygon style="fill:midnightblue;stroke:midnightblue;" points="1307.26,-78.6349 1297,-76 1303.38,-84.4592 1307.26,-78.6349"/>
</g>
<!-- Node26&#45;&gt;Node13 -->
<g id="edge104" class="edge"><title>Node26&#45;&gt;Node13</title>
<path style="fill:none;stroke:midnightblue;" d="M1275,-168C1212,-147 1069,-102 999,-79"/>
<polygon style="fill:midnightblue;stroke:midnightblue;" points="999.584,-75.5212 989,-76 997.573,-82.2259 999.584,-75.5212"/>
</g>
<!-- Node27&#45;&gt;Node3 -->
<g id="edge114" class="edge"><title>Node27&#45;&gt;Node3</title>
<path style="fill:none;stroke:midnightblue;" d="M915,-286C980,-280 1097,-267 1196,-244 1273,-225 1298,-229 1367,-188 1397,-169 1407,-163 1424,-132 1431,-118 1433,-100 1434,-86"/>
<polygon style="fill:midnightblue;stroke:midnightblue;" points="1437.5,-86 1434,-76 1430.5,-86 1437.5,-86"/>
</g>
<!-- Node27&#45;&gt;Node7 -->
<g id="edge116" class="edge"><title>Node27&#45;&gt;Node7</title>
<path style="fill:none;stroke:midnightblue;" d="M915,-284C980,-276 1093,-261 1131,-244 1161,-230 1231,-169 1266,-139"/>
<polygon style="fill:midnightblue;stroke:midnightblue;" points="1268.4,-141.546 1273,-132 1263.45,-136.596 1268.4,-141.546"/>
</g>
<!-- Node27&#45;&gt;Node10 -->
<g id="edge110" class="edge"><title>Node27&#45;&gt;Node10</title>
<path style="fill:none;stroke:midnightblue;" d="M852,-280C831,-267 795,-243 762,-224 735,-207 716,-215 699,-188 677,-149 724,-105 754,-82"/>
<polygon style="fill:midnightblue;stroke:midnightblue;" points="756.1,-84.8 762,-76 751.9,-79.2 756.1,-84.8"/>
</g>
<!-- Node27&#45;&gt;Node11 -->
<g id="edge112" class="edge"><title>Node27&#45;&gt;Node11</title>
<path style="fill:none;stroke:midnightblue;" d="M839,-280C817,-272 787,-259 762,-244 745,-233 700,-206 691,-188 664,-131 693,-97 739,-56 756,-41 779,-28 798,-21"/>
<polygon style="fill:midnightblue;stroke:midnightblue;" points="799.283,-24.2598 807,-17 796.44,-17.8631 799.283,-24.2598"/>
</g>
<!-- Node27&#45;&gt;Node25 -->
<g id="edge118" class="edge"><title>Node27&#45;&gt;Node25</title>
<path style="fill:none;stroke:midnightblue;" d="M880,-280C898,-266 934,-240 967,-224 996,-210 1030,-199 1058,-191"/>
<polygon style="fill:midnightblue;stroke:midnightblue;" points="1059.43,-194.226 1068,-188 1057.42,-187.521 1059.43,-194.226"/>
</g>
<!-- Node27&#45;&gt;Node26 -->
<g id="edge120" class="edge"><title>Node27&#45;&gt;Node26</title>
<path style="fill:none;stroke:midnightblue;" d="M915,-287C975,-281 1079,-269 1164,-244 1205,-231 1251,-208 1279,-193"/>
<polygon style="fill:midnightblue;stroke:midnightblue;" points="1280.96,-195.916 1288,-188 1277.56,-189.797 1280.96,-195.916"/>
</g>
<!-- Node28 -->
<g id="node82" class="node"><title>Node28</title>
<polygon style="fill:white;stroke:#bfbfbf;" points="670,-224 670,-244 721,-244 721,-224 670,-224"/>
<text text-anchor="middle" x="695" y="-231" style="font-family:Arial;font-size:10.00;">sstream</text>
</g>
<!-- Node27&#45;&gt;Node28 -->
<g id="edge108" class="edge"><title>Node27&#45;&gt;Node28</title>
<path style="fill:none;stroke:midnightblue;" d="M836,-280C806,-270 762,-256 731,-245"/>
<polygon style="fill:midnightblue;stroke:midnightblue;" points="731.584,-241.521 721,-242 729.573,-248.226 731.584,-241.521"/>
</g>
<!-- Node29 -->
<g id="node90" class="node"><title>Node29</title>
<a xlink:href="feature__info_8h.html" target="_top" xlink:title="ltr/data/feature_info.h">
<polygon style="fill:white;stroke:black;" points="814,-224 814,-244 921,-244 921,-224 814,-224"/>
<text text-anchor="middle" x="867" y="-231" style="font-family:Arial;font-size:10.00;">ltr/data/feature_info.h</text>
</a>
</g>
<!-- Node27&#45;&gt;Node29 -->
<g id="edge122" class="edge"><title>Node27&#45;&gt;Node29</title>
<path style="fill:none;stroke:midnightblue;" d="M867,-280C867,-273 867,-263 867,-254"/>
<polygon style="fill:midnightblue;stroke:midnightblue;" points="870.5,-254 867,-244 863.5,-254 870.5,-254"/>
</g>
<!-- Node31 -->
<g id="node101" class="node"><title>Node31</title>
<a xlink:href="per__object__accessor_8h.html" target="_top" xlink:title="ltr/data/per_object_accessor.h">
<polygon style="fill:white;stroke:black;" points="976,-224 976,-244 1123,-244 1123,-224 976,-224"/>
<text text-anchor="middle" x="1049" y="-231" style="font-family:Arial;font-size:10.00;">ltr/data/per_object_accessor.h</text>
</a>
</g>
<!-- Node27&#45;&gt;Node31 -->
<g id="edge140" class="edge"><title>Node27&#45;&gt;Node31</title>
<path style="fill:none;stroke:midnightblue;" d="M900,-280C930,-271 974,-257 1006,-247"/>
<polygon style="fill:midnightblue;stroke:midnightblue;" points="1007.43,-250.226 1016,-244 1005.42,-243.521 1007.43,-250.226"/>
</g>
<!-- Node27&#45;&gt;Node32 -->
<g id="edge152" class="edge"><title>Node27&#45;&gt;Node32</title>
<path style="fill:none;stroke:midnightblue;" d="M820,-282C759,-272 654,-256 586,-245"/>
<polygon style="fill:midnightblue;stroke:midnightblue;" points="586.492,-241.529 576,-243 585.119,-248.393 586.492,-241.529"/>
</g>
<!-- Node29&#45;&gt;Node3 -->
<g id="edge128" class="edge"><title>Node29&#45;&gt;Node3</title>
<path style="fill:none;stroke:midnightblue;" d="M893,-224C928,-211 993,-186 1049,-168 1130,-140 1150,-133 1233,-112 1293,-95 1363,-81 1403,-72"/>
<polygon style="fill:midnightblue;stroke:midnightblue;" points="1403.88,-75.3933 1413,-70 1402.51,-68.5292 1403.88,-75.3933"/>
</g>
<!-- Node29&#45;&gt;Node8 -->
<g id="edge124" class="edge"><title>Node29&#45;&gt;Node8</title>
<path style="fill:none;stroke:midnightblue;" d="M884,-224C930,-196 1063,-115 1119,-81"/>
<polygon style="fill:midnightblue;stroke:midnightblue;" points="1120.96,-83.916 1128,-76 1117.56,-77.7969 1120.96,-83.916"/>
</g>
<!-- Node29&#45;&gt;Node11 -->
<g id="edge126" class="edge"><title>Node29&#45;&gt;Node11</title>
<path style="fill:none;stroke:midnightblue;" d="M866,-224C864,-211 862,-187 859,-168 850,-118 838,-60 831,-30"/>
<polygon style="fill:midnightblue;stroke:midnightblue;" points="834.393,-29.1194 829,-20 827.529,-30.4922 834.393,-29.1194"/>
</g>
<!-- Node29&#45;&gt;Node13 -->
<g id="edge138" class="edge"><title>Node29&#45;&gt;Node13</title>
<path style="fill:none;stroke:midnightblue;" d="M872,-224C877,-214 885,-200 892,-188 911,-151 934,-109 947,-85"/>
<polygon style="fill:midnightblue;stroke:midnightblue;" points="950.203,-86.4414 952,-76 944.084,-83.0418 950.203,-86.4414"/>
</g>
<!-- Node29&#45;&gt;Node30 -->
<g id="edge130" class="edge"><title>Node29&#45;&gt;Node30</title>
<path style="fill:none;stroke:midnightblue;" d="M851,-224C838,-216 819,-203 803,-193"/>
<polygon style="fill:midnightblue;stroke:midnightblue;" points="805.335,-190.332 795,-188 801.625,-196.268 805.335,-190.332"/>
</g>
<!-- Node30&#45;&gt;Node10 -->
<g id="edge132" class="edge"><title>Node30&#45;&gt;Node10</title>
<path style="fill:none;stroke:midnightblue;" d="M779,-168C778,-149 777,-110 777,-86"/>
<polygon style="fill:midnightblue;stroke:midnightblue;" points="780.5,-86 777,-76 773.5,-86 780.5,-86"/>
</g>
<!-- Node30&#45;&gt;Node11 -->
<g id="edge134" class="edge"><title>Node30&#45;&gt;Node11</title>
<path style="fill:none;stroke:midnightblue;" d="M783,-168C791,-150 806,-110 815,-76 819,-61 822,-43 824,-30"/>
<polygon style="fill:midnightblue;stroke:midnightblue;" points="827.471,-30.4922 826,-20 820.607,-29.1194 827.471,-30.4922"/>
</g>
<!-- Node30&#45;&gt;Node17 -->
<g id="edge136" class="edge"><title>Node30&#45;&gt;Node17</title>
<path style="fill:none;stroke:midnightblue;" d="M713,-168C650,-158 554,-144 487,-134"/>
<polygon style="fill:midnightblue;stroke:midnightblue;" points="487.492,-130.529 477,-132 486.119,-137.393 487.492,-130.529"/>
</g>
<!-- Node31&#45;&gt;Node7 -->
<g id="edge142" class="edge"><title>Node31&#45;&gt;Node7</title>
<path style="fill:none;stroke:midnightblue;" d="M1079,-224C1103,-215 1139,-202 1169,-188 1201,-172 1236,-152 1260,-137"/>
<polygon style="fill:midnightblue;stroke:midnightblue;" points="1261.38,-140.268 1268,-132 1257.66,-134.332 1261.38,-140.268"/>
</g>
<!-- Node31&#45;&gt;Node13 -->
<g id="edge150" class="edge"><title>Node31&#45;&gt;Node13</title>
<path style="fill:none;stroke:midnightblue;" d="M1044,-224C1029,-197 987,-121 968,-85"/>
<polygon style="fill:midnightblue;stroke:midnightblue;" points="970.916,-83.0418 963,-76 964.797,-86.4414 970.916,-83.0418"/>
</g>
<!-- Node31&#45;&gt;Node25 -->
<g id="edge146" class="edge"><title>Node31&#45;&gt;Node25</title>
<path style="fill:none;stroke:midnightblue;" d="M1060,-224C1069,-216 1081,-205 1091,-195"/>
<polygon style="fill:midnightblue;stroke:midnightblue;" points="1093.4,-197.546 1098,-188 1088.45,-192.596 1093.4,-197.546"/>
</g>
<!-- Node31&#45;&gt;Node26 -->
<g id="edge144" class="edge"><title>Node31&#45;&gt;Node26</title>
<path style="fill:none;stroke:midnightblue;" d="M1095,-224C1139,-215 1203,-200 1250,-190"/>
<polygon style="fill:midnightblue;stroke:midnightblue;" points="1250.88,-193.393 1260,-188 1249.51,-186.529 1250.88,-193.393"/>
</g>
<!-- Node31&#45;&gt;Node30 -->
<g id="edge148" class="edge"><title>Node31&#45;&gt;Node30</title>
<path style="fill:none;stroke:midnightblue;" d="M1001,-224C955,-215 886,-200 837,-190"/>
<polygon style="fill:midnightblue;stroke:midnightblue;" points="837.492,-186.529 827,-188 836.119,-193.393 837.492,-186.529"/>
</g>
<!-- Node32&#45;&gt;Node11 -->
<g id="edge154" class="edge"><title>Node32&#45;&gt;Node11</title>
<path style="fill:none;stroke:midnightblue;" d="M525,-224C530,-210 539,-186 552,-168 574,-138 585,-134 614,-112 653,-83 664,-77 706,-56 737,-41 773,-28 797,-19"/>
<polygon style="fill:midnightblue;stroke:midnightblue;" points="798.427,-22.2259 807,-16 796.416,-15.5212 798.427,-22.2259"/>
</g>
<!-- Node33&#45;&gt;Node11 -->
<g id="edge172" class="edge"><title>Node33&#45;&gt;Node11</title>
<path style="fill:none;stroke:midnightblue;" d="M537,-392C441,-376 259,-340 208,-300 159,-260 136,-240 136,-178 136,-178 136,-178 136,-122 136,-78 168,-73 207,-56 262,-32 680,-15 797,-11"/>
<polygon style="fill:midnightblue;stroke:midnightblue;" points="797,-14.5001 807,-11 797,-7.5001 797,-14.5001"/>
</g>
<!-- Node33&#45;&gt;Node23 -->
<g id="edge174" class="edge"><title>Node33&#45;&gt;Node23</title>
<path style="fill:none;stroke:midnightblue;" d="M613,-392C626,-384 646,-371 661,-361"/>
<polygon style="fill:midnightblue;stroke:midnightblue;" points="662.958,-363.916 670,-356 659.559,-357.797 662.958,-363.916"/>
</g>
<!-- Node34&#45;&gt;Node4 -->
<g id="edge182" class="edge"><title>Node34&#45;&gt;Node4</title>
<path style="fill:none;stroke:midnightblue;" d="M802,-392C921,-371 1194,-323 1317,-301"/>
<polygon style="fill:midnightblue;stroke:midnightblue;" points="1317.88,-304.393 1327,-299 1316.51,-297.529 1317.88,-304.393"/>
</g>
<!-- Node34&#45;&gt;Node5 -->
<g id="edge178" class="edge"><title>Node34&#45;&gt;Node5</title>
<path style="fill:none;stroke:midnightblue;" d="M675,-392C582,-377 438,-341 497,-280 533,-242 1337,-252 1452,-243"/>
<polygon style="fill:midnightblue;stroke:midnightblue;" points="1452.4,-246.478 1462,-242 1451.7,-239.512 1452.4,-246.478"/>
</g>
<!-- Node34&#45;&gt;Node7 -->
<g id="edge186" class="edge"><title>Node34&#45;&gt;Node7</title>
<path style="fill:none;stroke:midnightblue;" d="M675,-392C607,-383 513,-367 499,-356 453,-316 421,-272 459,-224 508,-162 1057,-132 1232,-124"/>
<polygon style="fill:midnightblue;stroke:midnightblue;" points="1232,-127.5 1242,-124 1232,-120.5 1232,-127.5"/>
</g>
<!-- Node34&#45;&gt;Node11 -->
<g id="edge180" class="edge"><title>Node34&#45;&gt;Node11</title>
<path style="fill:none;stroke:midnightblue;" d="M682,-392C541,-369 212,-314 212,-290 212,-290 212,-290 212,-234 212,-154 169,-107 229,-56 273,-18 681,-11 797,-10"/>
<polygon style="fill:midnightblue;stroke:midnightblue;" points="797,-13.5001 807,-10 797,-6.5001 797,-13.5001"/>
</g>
<!-- Node34&#45;&gt;Node23 -->
<g id="edge184" class="edge"><title>Node34&#45;&gt;Node23</title>
<path style="fill:none;stroke:midnightblue;" d="M734,-392C725,-384 714,-373 704,-363"/>
<polygon style="fill:midnightblue;stroke:midnightblue;" points="706.546,-360.596 697,-356 701.596,-365.546 706.546,-360.596"/>
</g>
<!-- Node35&#45;&gt;Node5 -->
<g id="edge190" class="edge"><title>Node35&#45;&gt;Node5</title>
<path style="fill:none;stroke:midnightblue;" d="M1400,-392C1415,-365 1454,-289 1473,-253"/>
<polygon style="fill:midnightblue;stroke:midnightblue;" points="1476.2,-254.441 1478,-244 1470.08,-251.042 1476.2,-254.441"/>
</g>
<!-- Node35&#45;&gt;Node7 -->
<g id="edge196" class="edge"><title>Node35&#45;&gt;Node7</title>
<path style="fill:none;stroke:midnightblue;" d="M1411,-392C1452,-365 1554,-288 1513,-224 1473,-164 1390,-139 1336,-129"/>
<polygon style="fill:midnightblue;stroke:midnightblue;" points="1336.49,-125.529 1326,-127 1335.12,-132.393 1336.49,-125.529"/>
</g>
<!-- Node35&#45;&gt;Node11 -->
<g id="edge192" class="edge"><title>Node35&#45;&gt;Node11</title>
<path style="fill:none;stroke:midnightblue;" d="M1445,-392C1537,-370 1722,-310 1722,-178 1722,-178 1722,-178 1722,-122 1722,-47 1640,-72 1568,-56 1262,14 1169,-78 857,-20"/>
<polygon style="fill:midnightblue;stroke:midnightblue;" points="857.492,-16.5292 847,-18 856.119,-23.3933 857.492,-16.5292"/>
</g>
<!-- Node35&#45;&gt;Node23 -->
<g id="edge194" class="edge"><title>Node35&#45;&gt;Node23</title>
<path style="fill:none;stroke:midnightblue;" d="M1333,-396C1317,-395 1301,-393 1286,-392 1094,-376 869,-359 756,-351"/>
<polygon style="fill:midnightblue;stroke:midnightblue;" points="756.299,-347.512 746,-350 755.602,-354.478 756.299,-347.512"/>
</g>
<!-- Node36&#45;&gt;Node4 -->
<g id="edge204" class="edge"><title>Node36&#45;&gt;Node4</title>
<path style="fill:none;stroke:midnightblue;" d="M1192,-392C1214,-379 1255,-355 1291,-336 1310,-325 1332,-313 1349,-305"/>
<polygon style="fill:midnightblue;stroke:midnightblue;" points="1350.96,-307.916 1358,-300 1347.56,-301.797 1350.96,-307.916"/>
</g>
<!-- Node36&#45;&gt;Node11 -->
<g id="edge200" class="edge"><title>Node36&#45;&gt;Node11</title>
<path style="fill:none;stroke:midnightblue;" d="M1216,-392C1330,-362 1646,-272 1646,-178 1646,-178 1646,-178 1646,-122 1646,-43 1558,-73 1482,-56 1213,3 1131,-71 857,-20"/>
<polygon style="fill:midnightblue;stroke:midnightblue;" points="857.492,-16.5292 847,-18 856.119,-23.3933 857.492,-16.5292"/>
</g>
<!-- Node36&#45;&gt;Node23 -->
<g id="edge202" class="edge"><title>Node36&#45;&gt;Node23</title>
<path style="fill:none;stroke:midnightblue;" d="M1088,-392C993,-381 844,-364 756,-354"/>
<polygon style="fill:midnightblue;stroke:midnightblue;" points="756.299,-350.512 746,-353 755.602,-357.478 756.299,-350.512"/>
</g>
<!-- Node37&#45;&gt;Node11 -->
<g id="edge208" class="edge"><title>Node37&#45;&gt;Node11</title>
<path style="fill:none;stroke:midnightblue;" d="M367,-392C280,-370 98,-308 98,-178 98,-178 98,-178 98,-122 98,-82 123,-73 158,-56 217,-28 674,-14 797,-10"/>
<polygon style="fill:midnightblue;stroke:midnightblue;" points="797,-13.5001 807,-10 797,-6.5001 797,-13.5001"/>
</g>
<!-- Node37&#45;&gt;Node23 -->
<g id="edge210" class="edge"><title>Node37&#45;&gt;Node23</title>
<path style="fill:none;stroke:midnightblue;" d="M462,-392C508,-383 577,-368 627,-358"/>
<polygon style="fill:midnightblue;stroke:midnightblue;" points="627.881,-361.393 637,-356 626.508,-354.529 627.881,-361.393"/>
</g>
</g>
</svg>
