<?xml version="1.0" encoding="UTF-8" standalone="no"?>
<!DOCTYPE svg PUBLIC "-//W3C//DTD SVG 1.0//EN"
 "http://www.w3.org/TR/2001/REC-SVG-20010904/DTD/svg10.dtd" [
 <!ATTLIST svg xmlns:xlink CDATA #FIXED "http://www.w3.org/1999/xlink">
]>
<!-- Generated by Graphviz version 2.20.2 (Tue Mar &#160;2 19:03:41 UTC 2010)
     For user: (jenkins)  -->
<!-- Title: G Pages: 1 -->
<svg width="2356pt" height="196pt"
 viewBox="0.00 0.00 2356.00 196.00" xmlns="http://www.w3.org/2000/svg" xmlns:xlink="http://www.w3.org/1999/xlink">
<g id="graph0" class="graph" transform="scale(1 1) rotate(0) translate(4 192)">
<title>G</title>
<polygon style="fill:white;stroke:white;" points="-4,4 -4,-192 2352,-192 2352,4 -4,4"/>
<!-- Node1 -->
<g id="node1" class="node"><title>Node1</title>
<polygon style="fill:#bfbfbf;stroke:black;" points="980,-168 980,-188 1227,-188 1227,-168 980,-168"/>
<text text-anchor="middle" x="1103" y="-175" style="font-family:Arial;font-size:10.00;">ltr/learners/gp_learner/strategies/population_handler.h</text>
</g>
<!-- Node2 -->
<g id="node3" class="node"><title>Node2</title>
<a xlink:href="gp__learner_8h.html" target="_top" xlink:title="ltr/learners/gp_learner/gp_learner.h">
<polygon style="fill:white;stroke:black;" points="682,-56 682,-76 847,-76 847,-56 682,-56"/>
<text text-anchor="middle" x="764" y="-63" style="font-family:Arial;font-size:10.00;">ltr/learners/gp_learner/gp_learner.h</text>
</a>
</g>
<!-- Node1&#45;&gt;Node2 -->
<g id="edge2" class="edge"><title>Node1&#45;&gt;Node2</title>
<path style="fill:none;stroke:midnightblue;" d="M1011,-167C948,-158 871,-145 842,-132 812,-118 786,-91 773,-76"/>
<polygon style="fill:midnightblue;stroke:midnightblue;" points="1010.7,-170.488 1021,-168 1011.4,-163.522 1010.7,-170.488"/>
</g>
<!-- Node4 -->
<g id="node7" class="node"><title>Node4</title>
<a xlink:href="gp__learner__unittest_8cc.html" target="_top" xlink:title="ltr/learners/gp_learner/gp_learner_unittest.cc">
<polygon style="fill:white;stroke:black;" points="1079,-0 1079,-20 1288,-20 1288,-0 1079,-0"/>
<text text-anchor="middle" x="1183" y="-7" style="font-family:Arial;font-size:10.00;">ltr/learners/gp_learner/gp_learner_unittest.cc</text>
</a>
</g>
<!-- Node1&#45;&gt;Node4 -->
<g id="edge42" class="edge"><title>Node1&#45;&gt;Node4</title>
<path style="fill:none;stroke:midnightblue;" d="M1137,-164C1170,-147 1217,-119 1235,-76 1244,-53 1219,-32 1201,-20"/>
<polygon style="fill:midnightblue;stroke:midnightblue;" points="1135.72,-160.74 1128,-168 1138.56,-167.137 1135.72,-160.74"/>
</g>
<!-- Node6 -->
<g id="node11" class="node"><title>Node6</title>
<a xlink:href="default__selection__strategy_8h.html" target="_top" xlink:title="ltr/learners/gp_learner/strategies/default_selection_strategy.h">
<polygon style="fill:white;stroke:black;" points="195,-112 195,-132 474,-132 474,-112 195,-112"/>
<text text-anchor="middle" x="334" y="-119" style="font-family:Arial;font-size:10.00;">ltr/learners/gp_learner/strategies/default_selection_strategy.h</text>
</a>
</g>
<!-- Node1&#45;&gt;Node6 -->
<g id="edge10" class="edge"><title>Node1&#45;&gt;Node6</title>
<path style="fill:none;stroke:midnightblue;" d="M970,-168C831,-158 613,-142 472,-132"/>
<polygon style="fill:midnightblue;stroke:midnightblue;" points="969.701,-171.488 980,-169 970.398,-164.522 969.701,-171.488"/>
</g>
<!-- Node8 -->
<g id="node17" class="node"><title>Node8</title>
<a xlink:href="default__crossover__strategy_8h.html" target="_top" xlink:title="ltr/learners/gp_learner/strategies/default_crossover_strategy.h">
<polygon style="fill:white;stroke:black;" points="513,-112 513,-132 795,-132 795,-112 513,-112"/>
<text text-anchor="middle" x="654" y="-119" style="font-family:Arial;font-size:10.00;">ltr/learners/gp_learner/strategies/default_crossover_strategy.h</text>
</a>
</g>
<!-- Node1&#45;&gt;Node8 -->
<g id="edge18" class="edge"><title>Node1&#45;&gt;Node8</title>
<path style="fill:none;stroke:midnightblue;" d="M1013,-167C931,-157 813,-142 734,-132"/>
<polygon style="fill:midnightblue;stroke:midnightblue;" points="1012.7,-170.488 1023,-168 1013.4,-163.522 1012.7,-170.488"/>
</g>
<!-- Node10 -->
<g id="node23" class="node"><title>Node10</title>
<a xlink:href="default__mutation__standart__strategy_8h.html" target="_top" xlink:title="ltr/learners/gp_learner/strategies/default_mutation_standart_strategy.h">
<polygon style="fill:white;stroke:black;" points="851,-112 851,-132 1169,-132 1169,-112 851,-112"/>
<text text-anchor="middle" x="1010" y="-119" style="font-family:Arial;font-size:10.00;">ltr/learners/gp_learner/strategies/default_mutation_standart_strategy.h</text>
</a>
</g>
<!-- Node1&#45;&gt;Node10 -->
<g id="edge26" class="edge"><title>Node1&#45;&gt;Node10</title>
<path style="fill:none;stroke:midnightblue;" d="M1077,-163C1062,-153 1041,-140 1027,-132"/>
<polygon style="fill:midnightblue;stroke:midnightblue;" points="1075.56,-166.203 1086,-168 1078.96,-160.084 1075.56,-166.203"/>
</g>
<!-- Node12 -->
<g id="node29" class="node"><title>Node12</title>
<a xlink:href="default__mutation__swap__strategy_8h.html" target="_top" xlink:title="ltr/learners/gp_learner/strategies/default_mutation_swap_strategy.h">
<polygon style="fill:white;stroke:black;" points="1225,-112 1225,-132 1531,-132 1531,-112 1225,-112"/>
<text text-anchor="middle" x="1378" y="-119" style="font-family:Arial;font-size:10.00;">ltr/learners/gp_learner/strategies/default_mutation_swap_strategy.h</text>
</a>
</g>
<!-- Node1&#45;&gt;Node12 -->
<g id="edge34" class="edge"><title>Node1&#45;&gt;Node12</title>
<path style="fill:none;stroke:midnightblue;" d="M1162,-166C1212,-156 1282,-141 1329,-132"/>
<polygon style="fill:midnightblue;stroke:midnightblue;" points="1161.12,-162.607 1152,-168 1162.49,-169.471 1161.12,-162.607"/>
</g>
<!-- Node14 -->
<g id="node36" class="node"><title>Node14</title>
<a xlink:href="select__top__trees__strategy_8h.html" target="_top" xlink:title="ltr/learners/gp_learner/strategies/select_top_trees_strategy.h">
<polygon style="fill:white;stroke:black;" points="1549,-112 1549,-132 1828,-132 1828,-112 1549,-112"/>
<text text-anchor="middle" x="1688" y="-119" style="font-family:Arial;font-size:10.00;">ltr/learners/gp_learner/strategies/select_top_trees_strategy.h</text>
</a>
</g>
<!-- Node1&#45;&gt;Node14 -->
<g id="edge44" class="edge"><title>Node1&#45;&gt;Node14</title>
<path style="fill:none;stroke:midnightblue;" d="M1218,-167C1324,-157 1481,-142 1584,-132"/>
<polygon style="fill:midnightblue;stroke:midnightblue;" points="1217.6,-163.522 1208,-168 1218.3,-170.488 1217.6,-163.522"/>
</g>
<!-- Node16 -->
<g id="node41" class="node"><title>Node16</title>
<a xlink:href="crossover__adjacent__trees__strategy_8h.html" target="_top" xlink:title="ltr/learners/gp_learner/strategies/crossover_adjacent_trees_strategy.h">
<polygon style="fill:white;stroke:black;" points="1845,-112 1845,-132 2162,-132 2162,-112 1845,-112"/>
<text text-anchor="middle" x="2003" y="-119" style="font-family:Arial;font-size:10.00;">ltr/learners/gp_learner/strategies/crossover_adjacent_trees_strategy.h</text>
</a>
</g>
<!-- Node1&#45;&gt;Node16 -->
<g id="edge50" class="edge"><title>Node1&#45;&gt;Node16</title>
<path style="fill:none;stroke:midnightblue;" d="M1237,-169C1399,-159 1673,-143 1845,-132"/>
<polygon style="fill:midnightblue;stroke:midnightblue;" points="1236.6,-165.522 1227,-170 1237.3,-172.488 1236.6,-165.522"/>
</g>
<!-- Node3 -->
<g id="node5" class="node"><title>Node3</title>
<a xlink:href="gp__learner_8cc.html" target="_top" xlink:title="ltr/learners/gp_learner/gp_learner.cc">
<polygon style="fill:white;stroke:black;" points="750,-0 750,-20 921,-20 921,-0 750,-0"/>
<text text-anchor="middle" x="835" y="-7" style="font-family:Arial;font-size:10.00;">ltr/learners/gp_learner/gp_learner.cc</text>
</a>
</g>
<!-- Node2&#45;&gt;Node3 -->
<g id="edge4" class="edge"><title>Node2&#45;&gt;Node3</title>
<path style="fill:none;stroke:midnightblue;" d="M785,-50C797,-40 812,-29 822,-20"/>
<polygon style="fill:midnightblue;stroke:midnightblue;" points="782.9,-47.2 777,-56 787.1,-52.8 782.9,-47.2"/>
</g>
<!-- Node2&#45;&gt;Node4 -->
<g id="edge6" class="edge"><title>Node2&#45;&gt;Node4</title>
<path style="fill:none;stroke:midnightblue;" d="M849,-55C925,-45 1035,-30 1108,-20"/>
<polygon style="fill:midnightblue;stroke:midnightblue;" points="848.602,-51.5222 839,-56 849.299,-58.4875 848.602,-51.5222"/>
</g>
<!-- Node5 -->
<g id="node9" class="node"><title>Node5</title>
<a xlink:href="generator_8cc.html" target="_top" xlink:title="ltr/serialization_test/generator/generator.cc">
<polygon style="fill:white;stroke:black;" points="532,-0 532,-20 733,-20 733,-0 532,-0"/>
<text text-anchor="middle" x="632" y="-7" style="font-family:Arial;font-size:10.00;">ltr/serialization_test/generator/generator.cc</text>
</a>
</g>
<!-- Node2&#45;&gt;Node5 -->
<g id="edge8" class="edge"><title>Node2&#45;&gt;Node5</title>
<path style="fill:none;stroke:midnightblue;" d="M730,-52C707,-42 677,-29 656,-20"/>
<polygon style="fill:midnightblue;stroke:midnightblue;" points="729.415,-55.5357 740,-56 732.015,-49.0364 729.415,-55.5357"/>
</g>
<!-- Node6&#45;&gt;Node2 -->
<g id="edge12" class="edge"><title>Node6&#45;&gt;Node2</title>
<path style="fill:none;stroke:midnightblue;" d="M421,-111C499,-101 613,-86 688,-76"/>
<polygon style="fill:midnightblue;stroke:midnightblue;" points="420.602,-107.522 411,-112 421.299,-114.488 420.602,-107.522"/>
</g>
<!-- Node6&#45;&gt;Node4 -->
<g id="edge14" class="edge"><title>Node6&#45;&gt;Node4</title>
<path style="fill:none;stroke:midnightblue;" d="M327,-103C322,-88 320,-68 331,-56 338,-49 853,-25 1079,-15"/>
<polygon style="fill:midnightblue;stroke:midnightblue;" points="323.517,-103.62 330,-112 330.158,-101.406 323.517,-103.62"/>
</g>
<!-- Node7 -->
<g id="node15" class="node"><title>Node7</title>
<a xlink:href="default__selection__strategy_8cc.html" target="_top" xlink:title="ltr/learners/gp_learner/strategies/default_selection_strategy.cc">
<polygon style="fill:white;stroke:black;" points="0,-56 0,-76 285,-76 285,-56 0,-56"/>
<text text-anchor="middle" x="142" y="-63" style="font-family:Arial;font-size:10.00;">ltr/learners/gp_learner/strategies/default_selection_strategy.cc</text>
</a>
</g>
<!-- Node6&#45;&gt;Node7 -->
<g id="edge16" class="edge"><title>Node6&#45;&gt;Node7</title>
<path style="fill:none;stroke:midnightblue;" d="M290,-109C255,-99 208,-85 176,-76"/>
<polygon style="fill:midnightblue;stroke:midnightblue;" points="289.416,-112.479 300,-112 291.427,-105.774 289.416,-112.479"/>
</g>
<!-- Node8&#45;&gt;Node2 -->
<g id="edge20" class="edge"><title>Node8&#45;&gt;Node2</title>
<path style="fill:none;stroke:midnightblue;" d="M683,-107C702,-98 727,-85 744,-76"/>
<polygon style="fill:midnightblue;stroke:midnightblue;" points="681.042,-104.084 674,-112 684.441,-110.203 681.042,-104.084"/>
</g>
<!-- Node8&#45;&gt;Node4 -->
<g id="edge22" class="edge"><title>Node8&#45;&gt;Node4</title>
<path style="fill:none;stroke:midnightblue;" d="M654,-102C655,-87 659,-66 673,-56 703,-30 938,-18 1079,-13"/>
<polygon style="fill:midnightblue;stroke:midnightblue;" points="650.5,-102 654,-112 657.5,-102 650.5,-102"/>
</g>
<!-- Node9 -->
<g id="node21" class="node"><title>Node9</title>
<a xlink:href="default__crossover__strategy_8cc.html" target="_top" xlink:title="ltr/learners/gp_learner/strategies/default_crossover_strategy.cc">
<polygon style="fill:white;stroke:black;" points="340,-56 340,-76 627,-76 627,-56 340,-56"/>
<text text-anchor="middle" x="483" y="-63" style="font-family:Arial;font-size:10.00;">ltr/learners/gp_learner/strategies/default_crossover_strategy.cc</text>
</a>
</g>
<!-- Node8&#45;&gt;Node9 -->
<g id="edge24" class="edge"><title>Node8&#45;&gt;Node9</title>
<path style="fill:none;stroke:midnightblue;" d="M613,-109C583,-99 541,-85 514,-76"/>
<polygon style="fill:midnightblue;stroke:midnightblue;" points="612.416,-112.479 623,-112 614.427,-105.774 612.416,-112.479"/>
</g>
<!-- Node10&#45;&gt;Node2 -->
<g id="edge28" class="edge"><title>Node10&#45;&gt;Node2</title>
<path style="fill:none;stroke:midnightblue;" d="M956,-110C912,-100 850,-85 808,-76"/>
<polygon style="fill:midnightblue;stroke:midnightblue;" points="955.508,-113.471 966,-112 956.881,-106.607 955.508,-113.471"/>
</g>
<!-- Node10&#45;&gt;Node4 -->
<g id="edge30" class="edge"><title>Node10&#45;&gt;Node4</title>
<path style="fill:none;stroke:midnightblue;" d="M948,-109C910,-99 871,-81 893,-56 905,-41 1001,-28 1079,-20"/>
<polygon style="fill:midnightblue;stroke:midnightblue;" points="947.416,-112.479 958,-112 949.427,-105.774 947.416,-112.479"/>
</g>
<!-- Node11 -->
<g id="node27" class="node"><title>Node11</title>
<a xlink:href="default__mutation__standart__strategy_8cc.html" target="_top" xlink:title="ltr/learners/gp_learner/strategies/default_mutation_standart_strategy.cc">
<polygon style="fill:white;stroke:black;" points="902,-56 902,-76 1226,-76 1226,-56 902,-56"/>
<text text-anchor="middle" x="1064" y="-63" style="font-family:Arial;font-size:10.00;">ltr/learners/gp_learner/strategies/default_mutation_standart_strategy.cc</text>
</a>
</g>
<!-- Node10&#45;&gt;Node11 -->
<g id="edge32" class="edge"><title>Node10&#45;&gt;Node11</title>
<path style="fill:none;stroke:midnightblue;" d="M1027,-105C1036,-95 1046,-85 1054,-76"/>
<polygon style="fill:midnightblue;stroke:midnightblue;" points="1024.6,-102.454 1020,-112 1029.55,-107.404 1024.6,-102.454"/>
</g>
<!-- Node12&#45;&gt;Node2 -->
<g id="edge36" class="edge"><title>Node12&#45;&gt;Node2</title>
<path style="fill:none;stroke:midnightblue;" d="M1258,-111C1138,-100 953,-84 847,-74"/>
<polygon style="fill:midnightblue;stroke:midnightblue;" points="1257.7,-114.488 1268,-112 1258.4,-107.522 1257.7,-114.488"/>
</g>
<!-- Node12&#45;&gt;Node4 -->
<g id="edge38" class="edge"><title>Node12&#45;&gt;Node4</title>
<path style="fill:none;stroke:midnightblue;" d="M1353,-107C1331,-93 1297,-73 1268,-56 1245,-43 1220,-29 1203,-20"/>
<polygon style="fill:midnightblue;stroke:midnightblue;" points="1351.56,-110.203 1362,-112 1354.96,-104.084 1351.56,-110.203"/>
</g>
<!-- Node13 -->
<g id="node33" class="node"><title>Node13</title>
<a xlink:href="default__mutation__swap__strategy_8cc.html" target="_top" xlink:title="ltr/learners/gp_learner/strategies/default_mutation_swap_strategy.cc">
<polygon style="fill:white;stroke:black;" points="1320,-56 1320,-76 1631,-76 1631,-56 1320,-56"/>
<text text-anchor="middle" x="1475" y="-63" style="font-family:Arial;font-size:10.00;">ltr/learners/gp_learner/strategies/default_mutation_swap_strategy.cc</text>
</a>
</g>
<!-- Node12&#45;&gt;Node13 -->
<g id="edge40" class="edge"><title>Node12&#45;&gt;Node13</title>
<path style="fill:none;stroke:midnightblue;" d="M1404,-107C1421,-97 1443,-84 1457,-76"/>
<polygon style="fill:midnightblue;stroke:midnightblue;" points="1402.04,-104.084 1395,-112 1405.44,-110.203 1402.04,-104.084"/>
</g>
<!-- Node14&#45;&gt;Node4 -->
<g id="edge46" class="edge"><title>Node14&#45;&gt;Node4</title>
<path style="fill:none;stroke:midnightblue;" d="M1679,-103C1671,-87 1657,-67 1639,-56 1609,-39 1413,-24 1288,-16"/>
<polygon style="fill:midnightblue;stroke:midnightblue;" points="1676.08,-104.958 1684,-112 1682.2,-101.559 1676.08,-104.958"/>
</g>
<!-- Node15 -->
<g id="node39" class="node"><title>Node15</title>
<a xlink:href="select__top__trees__strategy_8cc.html" target="_top" xlink:title="ltr/learners/gp_learner/strategies/select_top_trees_strategy.cc">
<polygon style="fill:white;stroke:black;" points="1686,-56 1686,-76 1970,-76 1970,-56 1686,-56"/>
<text text-anchor="middle" x="1828" y="-63" style="font-family:Arial;font-size:10.00;">ltr/learners/gp_learner/strategies/select_top_trees_strategy.cc</text>
</a>
</g>
<!-- Node14&#45;&gt;Node15 -->
<g id="edge48" class="edge"><title>Node14&#45;&gt;Node15</title>
<path style="fill:none;stroke:midnightblue;" d="M1722,-108C1747,-98 1780,-85 1803,-76"/>
<polygon style="fill:midnightblue;stroke:midnightblue;" points="1720.72,-104.74 1713,-112 1723.56,-111.137 1720.72,-104.74"/>
</g>
<!-- Node16&#45;&gt;Node4 -->
<g id="edge52" class="edge"><title>Node16&#45;&gt;Node4</title>
<path style="fill:none;stroke:midnightblue;" d="M2002,-102C1999,-87 1993,-66 1979,-56 1951,-35 1498,-19 1288,-13"/>
<polygon style="fill:midnightblue;stroke:midnightblue;" points="1998.52,-102.398 2003,-112 2005.49,-101.701 1998.52,-102.398"/>
</g>
<!-- Node17 -->
<g id="node44" class="node"><title>Node17</title>
<a xlink:href="crossover__adjacent__trees__strategy_8cc.html" target="_top" xlink:title="ltr/learners/gp_learner/strategies/crossover_adjacent_trees_strategy.cc">
<polygon style="fill:white;stroke:black;" points="2026,-56 2026,-76 2348,-76 2348,-56 2026,-56"/>
<text text-anchor="middle" x="2187" y="-63" style="font-family:Arial;font-size:10.00;">ltr/learners/gp_learner/strategies/crossover_adjacent_trees_strategy.cc</text>
</a>
</g>
<!-- Node16&#45;&gt;Node17 -->
<g id="edge54" class="edge"><title>Node16&#45;&gt;Node17</title>
<path style="fill:none;stroke:midnightblue;" d="M2046,-109C2079,-99 2124,-85 2154,-76"/>
<polygon style="fill:midnightblue;stroke:midnightblue;" points="2044.57,-105.774 2036,-112 2046.58,-112.479 2044.57,-105.774"/>
</g>
</g>
</svg>
