<?xml version="1.0" encoding="UTF-8" standalone="no"?>
<!DOCTYPE svg PUBLIC "-//W3C//DTD SVG 1.0//EN"
 "http://www.w3.org/TR/2001/REC-SVG-20010904/DTD/svg10.dtd" [
 <!ATTLIST svg xmlns:xlink CDATA #FIXED "http://www.w3.org/1999/xlink">
]>
<!-- Generated by Graphviz version 2.20.2 (Tue Mar &#160;2 19:03:41 UTC 2010)
     For user: (jenkins)  -->
<!-- Title: G Pages: 1 -->
<svg width="904pt" height="252pt"
 viewBox="0.00 0.00 904.00 252.00" xmlns="http://www.w3.org/2000/svg" xmlns:xlink="http://www.w3.org/1999/xlink">
<g id="graph0" class="graph" transform="scale(1 1) rotate(0) translate(4 248)">
<title>G</title>
<polygon style="fill:white;stroke:white;" points="-4,4 -4,-248 900,-248 900,4 -4,4"/>
<!-- Node1 -->
<g id="node1" class="node"><title>Node1</title>
<polygon style="fill:#bfbfbf;stroke:black;" points="126,-224 126,-244 373,-244 373,-224 126,-224"/>
<text text-anchor="middle" x="249" y="-231" style="font-family:Arial;font-size:10.00;">ltr/learners/gp_learner/strategies/population_handler.h</text>
</g>
<!-- Node2 -->
<g id="node3" class="node"><title>Node2</title>
<polygon style="fill:white;stroke:#bfbfbf;" points="130,-168 130,-188 172,-188 172,-168 130,-168"/>
<text text-anchor="middle" x="151" y="-175" style="font-family:Arial;font-size:10.00;">vector</text>
</g>
<!-- Node1&#45;&gt;Node2 -->
<g id="edge2" class="edge"><title>Node1&#45;&gt;Node2</title>
<path style="fill:none;stroke:midnightblue;" d="M231,-224C216,-216 194,-203 178,-193"/>
<polygon style="fill:midnightblue;stroke:midnightblue;" points="179.441,-189.797 169,-188 176.042,-195.916 179.441,-189.797"/>
</g>
<!-- Node3 -->
<g id="node5" class="node"><title>Node3</title>
<a xlink:href="shared__ptr_8h.html" target="_top" xlink:title="ltr/utility/shared_ptr.h">
<polygon style="fill:white;stroke:black;" points="126,-56 126,-76 233,-76 233,-56 126,-56"/>
<text text-anchor="middle" x="179" y="-63" style="font-family:Arial;font-size:10.00;">ltr/utility/shared_ptr.h</text>
</a>
</g>
<!-- Node1&#45;&gt;Node3 -->
<g id="edge4" class="edge"><title>Node1&#45;&gt;Node3</title>
<path style="fill:none;stroke:midnightblue;" d="M241,-224C234,-215 225,-201 219,-188 203,-153 190,-110 183,-86"/>
<polygon style="fill:midnightblue;stroke:midnightblue;" points="186.393,-85.1194 181,-76 179.529,-86.4922 186.393,-85.1194"/>
</g>
<!-- Node7 -->
<g id="node13" class="node"><title>Node7</title>
<a xlink:href="parameterized_8h.html" target="_top" xlink:title="ltr/interfaces/parameterized.h">
<polygon style="fill:white;stroke:black;" points="228,-168 228,-188 370,-188 370,-168 228,-168"/>
<text text-anchor="middle" x="299" y="-175" style="font-family:Arial;font-size:10.00;">ltr/interfaces/parameterized.h</text>
</a>
</g>
<!-- Node1&#45;&gt;Node7 -->
<g id="edge12" class="edge"><title>Node1&#45;&gt;Node7</title>
<path style="fill:none;stroke:midnightblue;" d="M258,-224C265,-216 275,-205 283,-196"/>
<polygon style="fill:midnightblue;stroke:midnightblue;" points="286.049,-197.831 290,-188 280.781,-193.221 286.049,-197.831"/>
</g>
<!-- Node10 -->
<g id="node19" class="node"><title>Node10</title>
<a xlink:href="parameters__container_8h.html" target="_top" xlink:title="ltr/parameters_container/parameters_container.h">
<polygon style="fill:white;stroke:black;" points="327,-112 327,-132 552,-132 552,-112 327,-112"/>
<text text-anchor="middle" x="439" y="-119" style="font-family:Arial;font-size:10.00;">ltr/parameters_container/parameters_container.h</text>
</a>
</g>
<!-- Node1&#45;&gt;Node10 -->
<g id="edge40" class="edge"><title>Node1&#45;&gt;Node10</title>
<path style="fill:none;stroke:midnightblue;" d="M292,-224C319,-217 352,-205 379,-188 398,-176 415,-156 426,-141"/>
<polygon style="fill:midnightblue;stroke:midnightblue;" points="429.365,-142.262 432,-132 423.541,-138.379 429.365,-142.262"/>
</g>
<!-- Node4 -->
<g id="node7" class="node"><title>Node4</title>
<polygon style="fill:white;stroke:#bfbfbf;" points="0,-0 0,-20 56,-20 56,-0 0,-0"/>
<text text-anchor="middle" x="28" y="-7" style="font-family:Arial;font-size:10.00;">algorithm</text>
</g>
<!-- Node3&#45;&gt;Node4 -->
<g id="edge6" class="edge"><title>Node3&#45;&gt;Node4</title>
<path style="fill:none;stroke:midnightblue;" d="M152,-56C128,-47 92,-33 65,-23"/>
<polygon style="fill:midnightblue;stroke:midnightblue;" points="65.584,-19.5212 55,-20 63.5725,-26.2259 65.584,-19.5212"/>
</g>
<!-- Node5 -->
<g id="node9" class="node"><title>Node5</title>
<polygon style="fill:white;stroke:#bfbfbf;" points="74,-0 74,-20 181,-20 181,-0 74,-0"/>
<text text-anchor="middle" x="127" y="-7" style="font-family:Arial;font-size:10.00;">boost/shared_ptr.hpp</text>
</g>
<!-- Node3&#45;&gt;Node5 -->
<g id="edge8" class="edge"><title>Node3&#45;&gt;Node5</title>
<path style="fill:none;stroke:midnightblue;" d="M170,-56C163,-48 152,-37 144,-28"/>
<polygon style="fill:midnightblue;stroke:midnightblue;" points="146.219,-25.221 137,-20 140.951,-29.8306 146.219,-25.221"/>
</g>
<!-- Node6 -->
<g id="node11" class="node"><title>Node6</title>
<polygon style="fill:white;stroke:#bfbfbf;" points="198,-0 198,-20 389,-20 389,-0 198,-0"/>
<text text-anchor="middle" x="293" y="-7" style="font-family:Arial;font-size:10.00;">boost/smart_ptr/detail/operator_bool.hpp</text>
</g>
<!-- Node3&#45;&gt;Node6 -->
<g id="edge10" class="edge"><title>Node3&#45;&gt;Node6</title>
<path style="fill:none;stroke:midnightblue;" d="M199,-56C217,-47 243,-34 263,-25"/>
<polygon style="fill:midnightblue;stroke:midnightblue;" points="264.958,-27.916 272,-20 261.559,-21.7969 264.958,-27.916"/>
</g>
<!-- Node8 -->
<g id="node15" class="node"><title>Node8</title>
<polygon style="fill:white;stroke:#bfbfbf;" points="288,-56 288,-76 347,-76 347,-56 288,-56"/>
<text text-anchor="middle" x="317" y="-63" style="font-family:Arial;font-size:10.00;">stdexcept</text>
</g>
<!-- Node7&#45;&gt;Node8 -->
<g id="edge14" class="edge"><title>Node7&#45;&gt;Node8</title>
<path style="fill:none;stroke:midnightblue;" d="M301,-168C304,-149 310,-110 314,-86"/>
<polygon style="fill:midnightblue;stroke:midnightblue;" points="317.488,-86.2987 315,-76 310.522,-85.6021 317.488,-86.2987"/>
</g>
<!-- Node9 -->
<g id="node17" class="node"><title>Node9</title>
<polygon style="fill:white;stroke:#bfbfbf;" points="406,-0 406,-20 446,-20 446,-0 406,-0"/>
<text text-anchor="middle" x="426" y="-7" style="font-family:Arial;font-size:10.00;">string</text>
</g>
<!-- Node7&#45;&gt;Node9 -->
<g id="edge16" class="edge"><title>Node7&#45;&gt;Node9</title>
<path style="fill:none;stroke:midnightblue;" d="M293,-168C280,-146 253,-90 279,-56 309,-13 340,-33 396,-20"/>
<polygon style="fill:midnightblue;stroke:midnightblue;" points="397.427,-23.2259 406,-17 395.416,-16.5212 397.427,-23.2259"/>
</g>
<!-- Node7&#45;&gt;Node10 -->
<g id="edge18" class="edge"><title>Node7&#45;&gt;Node10</title>
<path style="fill:none;stroke:midnightblue;" d="M324,-168C346,-159 379,-146 404,-136"/>
<polygon style="fill:midnightblue;stroke:midnightblue;" points="406.015,-138.964 414,-132 403.415,-132.464 406.015,-138.964"/>
</g>
<!-- Node10&#45;&gt;Node3 -->
<g id="edge32" class="edge"><title>Node10&#45;&gt;Node3</title>
<path style="fill:none;stroke:midnightblue;" d="M393,-112C349,-103 283,-88 236,-78"/>
<polygon style="fill:midnightblue;stroke:midnightblue;" points="236.492,-74.5292 226,-76 235.119,-81.3933 236.492,-74.5292"/>
</g>
<!-- Node10&#45;&gt;Node8 -->
<g id="edge24" class="edge"><title>Node10&#45;&gt;Node8</title>
<path style="fill:none;stroke:midnightblue;" d="M417,-112C398,-103 370,-90 348,-80"/>
<polygon style="fill:midnightblue;stroke:midnightblue;" points="349.56,-76.8631 339,-76 346.717,-83.2598 349.56,-76.8631"/>
</g>
<!-- Node10&#45;&gt;Node9 -->
<g id="edge26" class="edge"><title>Node10&#45;&gt;Node9</title>
<path style="fill:none;stroke:midnightblue;" d="M424,-112C413,-103 399,-91 393,-76 386,-59 396,-41 407,-28"/>
<polygon style="fill:midnightblue;stroke:midnightblue;" points="410.049,-29.8306 414,-20 404.781,-25.221 410.049,-29.8306"/>
</g>
<!-- Node11 -->
<g id="node21" class="node"><title>Node11</title>
<polygon style="fill:white;stroke:#bfbfbf;" points="402,-56 402,-76 476,-76 476,-56 402,-56"/>
<text text-anchor="middle" x="439" y="-63" style="font-family:Arial;font-size:10.00;">logog/logog.h</text>
</g>
<!-- Node10&#45;&gt;Node11 -->
<g id="edge20" class="edge"><title>Node10&#45;&gt;Node11</title>
<path style="fill:none;stroke:midnightblue;" d="M439,-112C439,-105 439,-95 439,-86"/>
<polygon style="fill:midnightblue;stroke:midnightblue;" points="442.5,-86 439,-76 435.5,-86 442.5,-86"/>
</g>
<!-- Node12 -->
<g id="node23" class="node"><title>Node12</title>
<polygon style="fill:white;stroke:#bfbfbf;" points="494,-56 494,-76 523,-76 523,-56 494,-56"/>
<text text-anchor="middle" x="508" y="-63" style="font-family:Arial;font-size:10.00;">list</text>
</g>
<!-- Node10&#45;&gt;Node12 -->
<g id="edge22" class="edge"><title>Node10&#45;&gt;Node12</title>
<path style="fill:none;stroke:midnightblue;" d="M451,-112C461,-104 476,-93 487,-83"/>
<polygon style="fill:midnightblue;stroke:midnightblue;" points="489.779,-85.2191 495,-76 485.169,-79.9511 489.779,-85.2191"/>
</g>
<!-- Node13 -->
<g id="node27" class="node"><title>Node13</title>
<polygon style="fill:white;stroke:#bfbfbf;" points="540,-56 540,-76 617,-76 617,-56 540,-56"/>
<text text-anchor="middle" x="578" y="-63" style="font-family:Arial;font-size:10.00;">boost/any.hpp</text>
</g>
<!-- Node10&#45;&gt;Node13 -->
<g id="edge28" class="edge"><title>Node10&#45;&gt;Node13</title>
<path style="fill:none;stroke:midnightblue;" d="M464,-112C486,-103 519,-90 544,-80"/>
<polygon style="fill:midnightblue;stroke:midnightblue;" points="545.283,-83.2598 553,-76 542.44,-76.8631 545.283,-83.2598"/>
</g>
<!-- Node14 -->
<g id="node29" class="node"><title>Node14</title>
<polygon style="fill:white;stroke:#bfbfbf;" points="634,-56 634,-76 763,-76 763,-56 634,-56"/>
<text text-anchor="middle" x="698" y="-63" style="font-family:Arial;font-size:10.00;">boost/unordered_map.hpp</text>
</g>
<!-- Node10&#45;&gt;Node14 -->
<g id="edge30" class="edge"><title>Node10&#45;&gt;Node14</title>
<path style="fill:none;stroke:midnightblue;" d="M485,-112C529,-103 595,-88 642,-78"/>
<polygon style="fill:midnightblue;stroke:midnightblue;" points="642.881,-81.3933 652,-76 641.508,-74.5292 642.881,-81.3933"/>
</g>
<!-- Node15 -->
<g id="node32" class="node"><title>Node15</title>
<a xlink:href="printable_8h.html" target="_top" xlink:title="ltr/interfaces/printable.h">
<polygon style="fill:white;stroke:black;" points="780,-56 780,-76 897,-76 897,-56 780,-56"/>
<text text-anchor="middle" x="838" y="-63" style="font-family:Arial;font-size:10.00;">ltr/interfaces/printable.h</text>
</a>
</g>
<!-- Node10&#45;&gt;Node15 -->
<g id="edge34" class="edge"><title>Node10&#45;&gt;Node15</title>
<path style="fill:none;stroke:midnightblue;" d="M512,-112C578,-103 675,-90 770,-76"/>
<polygon style="fill:midnightblue;stroke:midnightblue;" points="770.398,-79.4778 780,-75 769.701,-72.5125 770.398,-79.4778"/>
</g>
<!-- Node15&#45;&gt;Node9 -->
<g id="edge38" class="edge"><title>Node15&#45;&gt;Node9</title>
<path style="fill:none;stroke:midnightblue;" d="M780,-57C777,-57 774,-56 771,-56 654,-39 516,-21 456,-14"/>
<polygon style="fill:midnightblue;stroke:midnightblue;" points="456.299,-10.5125 446,-13 455.602,-17.4778 456.299,-10.5125"/>
</g>
<!-- Node16 -->
<g id="node34" class="node"><title>Node16</title>
<polygon style="fill:white;stroke:#bfbfbf;" points="813,-0 813,-20 864,-20 864,-0 813,-0"/>
<text text-anchor="middle" x="838" y="-7" style="font-family:Arial;font-size:10.00;">ostream</text>
</g>
<!-- Node15&#45;&gt;Node16 -->
<g id="edge36" class="edge"><title>Node15&#45;&gt;Node16</title>
<path style="fill:none;stroke:midnightblue;" d="M838,-56C838,-49 838,-39 838,-30"/>
<polygon style="fill:midnightblue;stroke:midnightblue;" points="841.5,-30 838,-20 834.5,-30 841.5,-30"/>
</g>
</g>
</svg>
