<?xml version="1.0" encoding="UTF-8" standalone="no"?>
<!DOCTYPE svg PUBLIC "-//W3C//DTD SVG 1.0//EN"
 "http://www.w3.org/TR/2001/REC-SVG-20010904/DTD/svg10.dtd" [
 <!ATTLIST svg xmlns:xlink CDATA #FIXED "http://www.w3.org/1999/xlink">
]>
<!-- Generated by Graphviz version 2.20.2 (Tue Mar &#160;2 19:03:41 UTC 2010)
     For user: (jenkins)  -->
<!-- Title: G Pages: 1 -->
<svg width="1316pt" height="84pt"
 viewBox="0.00 0.00 1316.00 84.00" xmlns="http://www.w3.org/2000/svg" xmlns:xlink="http://www.w3.org/1999/xlink">
<g id="graph0" class="graph" transform="scale(1 1) rotate(0) translate(4 80)">
<title>G</title>
<polygon style="fill:white;stroke:white;" points="-4,4 -4,-80 1312,-80 1312,4 -4,4"/>
<!-- Node1 -->
<g id="node1" class="node"><title>Node1</title>
<polygon style="fill:#bfbfbf;stroke:black;" points="485,-56 485,-76 773,-76 773,-56 485,-56"/>
<text text-anchor="middle" x="629" y="-63" style="font-family:Arial;font-size:10.00;">ltr/predictions_aggregators/predictions_aggregators_unittest.cc</text>
</g>
<!-- Node2 -->
<g id="node3" class="node"><title>Node2</title>
<polygon style="fill:white;stroke:#bfbfbf;" points="0,-0 0,-20 71,-20 71,-0 0,-0"/>
<text text-anchor="middle" x="35" y="-7" style="font-family:Arial;font-size:10.00;">gtest/gtest.h</text>
</g>
<!-- Node1&#45;&gt;Node2 -->
<g id="edge2" class="edge"><title>Node1&#45;&gt;Node2</title>
<path style="fill:none;stroke:midnightblue;" d="M485,-59C377,-53 223,-42 81,-20"/>
<polygon style="fill:midnightblue;stroke:midnightblue;" points="81.4922,-16.5292 71,-18 80.1194,-23.3933 81.4922,-16.5292"/>
</g>
<!-- Node3 -->
<g id="node5" class="node"><title>Node3</title>
<polygon style="fill:white;stroke:#bfbfbf;" points="88,-0 88,-20 328,-20 328,-0 88,-0"/>
<text text-anchor="middle" x="208" y="-7" style="font-family:Arial;font-size:10.00;">ltr/predictions_aggregators/predictions_aggregator.h</text>
</g>
<!-- Node1&#45;&gt;Node3 -->
<g id="edge4" class="edge"><title>Node1&#45;&gt;Node3</title>
<path style="fill:none;stroke:midnightblue;" d="M554,-56C481,-46 370,-31 293,-21"/>
<polygon style="fill:midnightblue;stroke:midnightblue;" points="293.299,-17.5125 283,-20 292.602,-24.4778 293.299,-17.5125"/>
</g>
<!-- Node4 -->
<g id="node7" class="node"><title>Node4</title>
<polygon style="fill:white;stroke:#bfbfbf;" points="346,-0 346,-20 624,-20 624,-0 346,-0"/>
<text text-anchor="middle" x="485" y="-7" style="font-family:Arial;font-size:10.00;">ltr/predictions_aggregators/average_predictions_aggregator.h</text>
</g>
<!-- Node1&#45;&gt;Node4 -->
<g id="edge6" class="edge"><title>Node1&#45;&gt;Node4</title>
<path style="fill:none;stroke:midnightblue;" d="M603,-56C580,-47 546,-34 520,-24"/>
<polygon style="fill:midnightblue;stroke:midnightblue;" points="521.56,-20.8631 511,-20 518.717,-27.2598 521.56,-20.8631"/>
</g>
<!-- Node5 -->
<g id="node9" class="node"><title>Node5</title>
<polygon style="fill:white;stroke:#bfbfbf;" points="642,-0 642,-20 906,-20 906,-0 642,-0"/>
<text text-anchor="middle" x="774" y="-7" style="font-family:Arial;font-size:10.00;">ltr/predictions_aggregators/sum_predictions_aggregator.h</text>
</g>
<!-- Node1&#45;&gt;Node5 -->
<g id="edge8" class="edge"><title>Node1&#45;&gt;Node5</title>
<path style="fill:none;stroke:midnightblue;" d="M655,-56C678,-47 713,-34 739,-24"/>
<polygon style="fill:midnightblue;stroke:midnightblue;" points="740.283,-27.2598 748,-20 737.44,-20.8631 740.283,-27.2598"/>
</g>
<!-- Node6 -->
<g id="node11" class="node"><title>Node6</title>
<polygon style="fill:white;stroke:#bfbfbf;" points="924,-0 924,-20 1186,-20 1186,-0 924,-0"/>
<text text-anchor="middle" x="1055" y="-7" style="font-family:Arial;font-size:10.00;">ltr/predictions_aggregators/vote_predictions_aggregator.h</text>
</g>
<!-- Node1&#45;&gt;Node6 -->
<g id="edge10" class="edge"><title>Node1&#45;&gt;Node6</title>
<path style="fill:none;stroke:midnightblue;" d="M705,-56C780,-46 892,-31 969,-21"/>
<polygon style="fill:midnightblue;stroke:midnightblue;" points="969.398,-24.4778 979,-20 968.701,-17.5125 969.398,-24.4778"/>
</g>
<!-- Node7 -->
<g id="node13" class="node"><title>Node7</title>
<polygon style="fill:white;stroke:#bfbfbf;" points="1204,-0 1204,-20 1308,-20 1308,-0 1204,-0"/>
<text text-anchor="middle" x="1256" y="-7" style="font-family:Arial;font-size:10.00;">ltr/utility/numerical.h</text>
</g>
<!-- Node1&#45;&gt;Node7 -->
<g id="edge12" class="edge"><title>Node1&#45;&gt;Node7</title>
<path style="fill:none;stroke:midnightblue;" d="M773,-57C885,-50 1045,-38 1194,-20"/>
<polygon style="fill:midnightblue;stroke:midnightblue;" points="1194.4,-23.4778 1204,-19 1193.7,-16.5125 1194.4,-23.4778"/>
</g>
</g>
</svg>
