<?xml version="1.0" encoding="UTF-8" standalone="no"?>
<!DOCTYPE svg PUBLIC "-//W3C//DTD SVG 1.0//EN"
 "http://www.w3.org/TR/2001/REC-SVG-20010904/DTD/svg10.dtd" [
 <!ATTLIST svg xmlns:xlink CDATA #FIXED "http://www.w3.org/1999/xlink">
]>
<!-- Generated by Graphviz version 2.20.2 (Tue Mar &#160;2 19:03:41 UTC 2010)
     For user: (jenkins)  -->
<!-- Title: G Pages: 1 -->
<svg width="1449pt" height="364pt"
 viewBox="0.00 0.00 1449.00 364.00" xmlns="http://www.w3.org/2000/svg" xmlns:xlink="http://www.w3.org/1999/xlink">
<g id="graph0" class="graph" transform="scale(1 1) rotate(0) translate(4 360)">
<title>G</title>
<polygon style="fill:white;stroke:white;" points="-4,4 -4,-360 1445,-360 1445,4 -4,4"/>
<!-- Node1 -->
<g id="node1" class="node"><title>Node1</title>
<polygon style="fill:#bfbfbf;stroke:black;" points="618,-336 618,-356 906,-356 906,-336 618,-336"/>
<text text-anchor="middle" x="762" y="-343" style="font-family:Arial;font-size:10.00;">ltr/predictions_aggregators/predictions_aggregators_unittest.cc</text>
</g>
<!-- Node2 -->
<g id="node3" class="node"><title>Node2</title>
<polygon style="fill:white;stroke:#bfbfbf;" points="353,-280 353,-300 424,-300 424,-280 353,-280"/>
<text text-anchor="middle" x="388" y="-287" style="font-family:Arial;font-size:10.00;">gtest/gtest.h</text>
</g>
<!-- Node1&#45;&gt;Node2 -->
<g id="edge2" class="edge"><title>Node1&#45;&gt;Node2</title>
<path style="fill:none;stroke:midnightblue;" d="M683,-336C617,-327 521,-314 437,-300 436,-300 435,-300 434,-299"/>
<polygon style="fill:midnightblue;stroke:midnightblue;" points="434.492,-295.529 424,-297 433.119,-302.393 434.492,-295.529"/>
</g>
<!-- Node3 -->
<g id="node5" class="node"><title>Node3</title>
<a xlink:href="predictions__aggregator_8h.html" target="_top" xlink:title="ltr/predictions_aggregators/predictions_aggregator.h">
<polygon style="fill:white;stroke:black;" points="499,-224 499,-244 739,-244 739,-224 499,-224"/>
<text text-anchor="middle" x="619" y="-231" style="font-family:Arial;font-size:10.00;">ltr/predictions_aggregators/predictions_aggregator.h</text>
</a>
</g>
<!-- Node1&#45;&gt;Node3 -->
<g id="edge4" class="edge"><title>Node1&#45;&gt;Node3</title>
<path style="fill:none;stroke:midnightblue;" d="M659,-336C580,-327 483,-314 470,-300 447,-272 483,-255 526,-246"/>
<polygon style="fill:midnightblue;stroke:midnightblue;" points="526.881,-249.393 536,-244 525.508,-242.529 526.881,-249.393"/>
</g>
<!-- Node23 -->
<g id="node53" class="node"><title>Node23</title>
<a xlink:href="average__predictions__aggregator_8h.html" target="_top" xlink:title="ltr/predictions_aggregators/average_predictions_aggregator.h">
<polygon style="fill:white;stroke:black;" points="479,-280 479,-300 757,-300 757,-280 479,-280"/>
<text text-anchor="middle" x="618" y="-287" style="font-family:Arial;font-size:10.00;">ltr/predictions_aggregators/average_predictions_aggregator.h</text>
</a>
</g>
<!-- Node1&#45;&gt;Node23 -->
<g id="edge60" class="edge"><title>Node1&#45;&gt;Node23</title>
<path style="fill:none;stroke:midnightblue;" d="M736,-336C713,-327 679,-314 653,-304"/>
<polygon style="fill:midnightblue;stroke:midnightblue;" points="654.56,-300.863 644,-300 651.717,-307.26 654.56,-300.863"/>
</g>
<!-- Node24 -->
<g id="node59" class="node"><title>Node24</title>
<a xlink:href="sum__predictions__aggregator_8h.html" target="_top" xlink:title="ltr/predictions_aggregators/sum_predictions_aggregator.h">
<polygon style="fill:white;stroke:black;" points="775,-280 775,-300 1039,-300 1039,-280 775,-280"/>
<text text-anchor="middle" x="907" y="-287" style="font-family:Arial;font-size:10.00;">ltr/predictions_aggregators/sum_predictions_aggregator.h</text>
</a>
</g>
<!-- Node1&#45;&gt;Node24 -->
<g id="edge70" class="edge"><title>Node1&#45;&gt;Node24</title>
<path style="fill:none;stroke:midnightblue;" d="M788,-336C811,-327 846,-314 872,-304"/>
<polygon style="fill:midnightblue;stroke:midnightblue;" points="873.283,-307.26 881,-300 870.44,-300.863 873.283,-307.26"/>
</g>
<!-- Node25 -->
<g id="node65" class="node"><title>Node25</title>
<a xlink:href="vote__predictions__aggregator_8h.html" target="_top" xlink:title="ltr/predictions_aggregators/vote_predictions_aggregator.h">
<polygon style="fill:white;stroke:black;" points="1057,-280 1057,-300 1319,-300 1319,-280 1057,-280"/>
<text text-anchor="middle" x="1188" y="-287" style="font-family:Arial;font-size:10.00;">ltr/predictions_aggregators/vote_predictions_aggregator.h</text>
</a>
</g>
<!-- Node1&#45;&gt;Node25 -->
<g id="edge80" class="edge"><title>Node1&#45;&gt;Node25</title>
<path style="fill:none;stroke:midnightblue;" d="M838,-336C913,-326 1025,-311 1102,-301"/>
<polygon style="fill:midnightblue;stroke:midnightblue;" points="1102.4,-304.478 1112,-300 1101.7,-297.512 1102.4,-304.478"/>
</g>
<!-- Node27 -->
<g id="node73" class="node"><title>Node27</title>
<a xlink:href="numerical_8h.html" target="_top" xlink:title="ltr/utility/numerical.h">
<polygon style="fill:white;stroke:black;" points="1337,-280 1337,-300 1441,-300 1441,-280 1337,-280"/>
<text text-anchor="middle" x="1389" y="-287" style="font-family:Arial;font-size:10.00;">ltr/utility/numerical.h</text>
</a>
</g>
<!-- Node1&#45;&gt;Node27 -->
<g id="edge92" class="edge"><title>Node1&#45;&gt;Node27</title>
<path style="fill:none;stroke:midnightblue;" d="M900,-336C1035,-326 1233,-311 1327,-300"/>
<polygon style="fill:midnightblue;stroke:midnightblue;" points="1327.4,-303.478 1337,-299 1326.7,-296.512 1327.4,-303.478"/>
</g>
<!-- Node4 -->
<g id="node7" class="node"><title>Node4</title>
<polygon style="fill:white;stroke:#bfbfbf;" points="817,-168 817,-188 859,-188 859,-168 817,-168"/>
<text text-anchor="middle" x="838" y="-175" style="font-family:Arial;font-size:10.00;">vector</text>
</g>
<!-- Node3&#45;&gt;Node4 -->
<g id="edge6" class="edge"><title>Node3&#45;&gt;Node4</title>
<path style="fill:none;stroke:midnightblue;" d="M658,-224C700,-213 768,-196 807,-186"/>
<polygon style="fill:midnightblue;stroke:midnightblue;" points="808.427,-189.226 817,-183 806.416,-182.521 808.427,-189.226"/>
</g>
<!-- Node5 -->
<g id="node9" class="node"><title>Node5</title>
<a xlink:href="shared__ptr_8h.html" target="_top" xlink:title="ltr/utility/shared_ptr.h">
<polygon style="fill:white;stroke:black;" points="74,-56 74,-76 181,-76 181,-56 74,-56"/>
<text text-anchor="middle" x="127" y="-63" style="font-family:Arial;font-size:10.00;">ltr/utility/shared_ptr.h</text>
</a>
</g>
<!-- Node3&#45;&gt;Node5 -->
<g id="edge8" class="edge"><title>Node3&#45;&gt;Node5</title>
<path style="fill:none;stroke:midnightblue;" d="M590,-224C506,-195 262,-112 166,-79"/>
<polygon style="fill:midnightblue;stroke:midnightblue;" points="166.584,-75.5212 156,-76 164.573,-82.2259 166.584,-75.5212"/>
</g>
<!-- Node9 -->
<g id="node17" class="node"><title>Node9</title>
<a xlink:href="serializable_8h.html" target="_top" xlink:title="ltr/interfaces/serializable.h">
<polygon style="fill:white;stroke:black;" points="331,-112 331,-132 460,-132 460,-112 331,-112"/>
<text text-anchor="middle" x="395" y="-119" style="font-family:Arial;font-size:10.00;">ltr/interfaces/serializable.h</text>
</a>
</g>
<!-- Node3&#45;&gt;Node9 -->
<g id="edge16" class="edge"><title>Node3&#45;&gt;Node9</title>
<path style="fill:none;stroke:midnightblue;" d="M599,-224C560,-203 471,-159 424,-137"/>
<polygon style="fill:midnightblue;stroke:midnightblue;" points="425.441,-133.797 415,-132 422.042,-139.916 425.441,-133.797"/>
</g>
<!-- Node15 -->
<g id="node31" class="node"><title>Node15</title>
<a xlink:href="parameterized_8h.html" target="_top" xlink:title="ltr/interfaces/parameterized.h">
<polygon style="fill:white;stroke:black;" points="598,-168 598,-188 740,-188 740,-168 598,-168"/>
<text text-anchor="middle" x="669" y="-175" style="font-family:Arial;font-size:10.00;">ltr/interfaces/parameterized.h</text>
</a>
</g>
<!-- Node3&#45;&gt;Node15 -->
<g id="edge32" class="edge"><title>Node3&#45;&gt;Node15</title>
<path style="fill:none;stroke:midnightblue;" d="M628,-224C635,-216 645,-205 653,-196"/>
<polygon style="fill:midnightblue;stroke:midnightblue;" points="656.049,-197.831 660,-188 650.781,-193.221 656.049,-197.831"/>
</g>
<!-- Node6 -->
<g id="node11" class="node"><title>Node6</title>
<polygon style="fill:white;stroke:#bfbfbf;" points="0,-0 0,-20 56,-20 56,-0 0,-0"/>
<text text-anchor="middle" x="28" y="-7" style="font-family:Arial;font-size:10.00;">algorithm</text>
</g>
<!-- Node5&#45;&gt;Node6 -->
<g id="edge10" class="edge"><title>Node5&#45;&gt;Node6</title>
<path style="fill:none;stroke:midnightblue;" d="M109,-56C94,-48 72,-35 55,-25"/>
<polygon style="fill:midnightblue;stroke:midnightblue;" points="56.4414,-21.7969 46,-20 53.0418,-27.916 56.4414,-21.7969"/>
</g>
<!-- Node7 -->
<g id="node13" class="node"><title>Node7</title>
<polygon style="fill:white;stroke:#bfbfbf;" points="74,-0 74,-20 181,-20 181,-0 74,-0"/>
<text text-anchor="middle" x="127" y="-7" style="font-family:Arial;font-size:10.00;">boost/shared_ptr.hpp</text>
</g>
<!-- Node5&#45;&gt;Node7 -->
<g id="edge12" class="edge"><title>Node5&#45;&gt;Node7</title>
<path style="fill:none;stroke:midnightblue;" d="M127,-56C127,-49 127,-39 127,-30"/>
<polygon style="fill:midnightblue;stroke:midnightblue;" points="130.5,-30 127,-20 123.5,-30 130.5,-30"/>
</g>
<!-- Node8 -->
<g id="node15" class="node"><title>Node8</title>
<polygon style="fill:white;stroke:#bfbfbf;" points="198,-0 198,-20 389,-20 389,-0 198,-0"/>
<text text-anchor="middle" x="293" y="-7" style="font-family:Arial;font-size:10.00;">boost/smart_ptr/detail/operator_bool.hpp</text>
</g>
<!-- Node5&#45;&gt;Node8 -->
<g id="edge14" class="edge"><title>Node5&#45;&gt;Node8</title>
<path style="fill:none;stroke:midnightblue;" d="M157,-56C184,-47 224,-33 253,-23"/>
<polygon style="fill:midnightblue;stroke:midnightblue;" points="254.427,-26.2259 263,-20 252.416,-19.5212 254.427,-26.2259"/>
</g>
<!-- Node9&#45;&gt;Node5 -->
<g id="edge26" class="edge"><title>Node9&#45;&gt;Node5</title>
<path style="fill:none;stroke:midnightblue;" d="M347,-112C301,-103 234,-88 185,-78"/>
<polygon style="fill:midnightblue;stroke:midnightblue;" points="185.492,-74.5292 175,-76 184.119,-81.3933 185.492,-74.5292"/>
</g>
<!-- Node10 -->
<g id="node19" class="node"><title>Node10</title>
<polygon style="fill:white;stroke:#bfbfbf;" points="236,-56 236,-76 350,-76 350,-56 236,-56"/>
<text text-anchor="middle" x="293" y="-63" style="font-family:Arial;font-size:10.00;">boost/lexical_cast.hpp</text>
</g>
<!-- Node9&#45;&gt;Node10 -->
<g id="edge18" class="edge"><title>Node9&#45;&gt;Node10</title>
<path style="fill:none;stroke:midnightblue;" d="M377,-112C361,-103 338,-91 320,-81"/>
<polygon style="fill:midnightblue;stroke:midnightblue;" points="321.441,-77.7969 311,-76 318.042,-83.916 321.441,-77.7969"/>
</g>
<!-- Node11 -->
<g id="node21" class="node"><title>Node11</title>
<polygon style="fill:white;stroke:#bfbfbf;" points="566,-56 566,-76 640,-76 640,-56 566,-56"/>
<text text-anchor="middle" x="603" y="-63" style="font-family:Arial;font-size:10.00;">logog/logog.h</text>
</g>
<!-- Node9&#45;&gt;Node11 -->
<g id="edge20" class="edge"><title>Node9&#45;&gt;Node11</title>
<path style="fill:none;stroke:midnightblue;" d="M432,-112C467,-103 519,-89 556,-79"/>
<polygon style="fill:midnightblue;stroke:midnightblue;" points="557.427,-82.2259 566,-76 555.416,-75.5212 557.427,-82.2259"/>
</g>
<!-- Node12 -->
<g id="node23" class="node"><title>Node12</title>
<polygon style="fill:white;stroke:#bfbfbf;" points="705,-0 705,-20 745,-20 745,-0 705,-0"/>
<text text-anchor="middle" x="725" y="-7" style="font-family:Arial;font-size:10.00;">string</text>
</g>
<!-- Node9&#45;&gt;Node12 -->
<g id="edge22" class="edge"><title>Node9&#45;&gt;Node12</title>
<path style="fill:none;stroke:midnightblue;" d="M331,-117C270,-110 193,-94 227,-56 259,-20 592,-13 695,-10"/>
<polygon style="fill:midnightblue;stroke:midnightblue;" points="695,-13.5001 705,-10 695,-6.5001 695,-13.5001"/>
</g>
<!-- Node13 -->
<g id="node25" class="node"><title>Node13</title>
<polygon style="fill:white;stroke:#bfbfbf;" points="368,-56 368,-76 422,-76 422,-56 368,-56"/>
<text text-anchor="middle" x="395" y="-63" style="font-family:Arial;font-size:10.00;">iostream</text>
</g>
<!-- Node9&#45;&gt;Node13 -->
<g id="edge24" class="edge"><title>Node9&#45;&gt;Node13</title>
<path style="fill:none;stroke:midnightblue;" d="M395,-112C395,-105 395,-95 395,-86"/>
<polygon style="fill:midnightblue;stroke:midnightblue;" points="398.5,-86 395,-76 391.5,-86 398.5,-86"/>
</g>
<!-- Node14 -->
<g id="node28" class="node"><title>Node14</title>
<a xlink:href="aliaser_8h.html" target="_top" xlink:title="ltr/interfaces/aliaser.h">
<polygon style="fill:white;stroke:black;" points="440,-56 440,-76 548,-76 548,-56 440,-56"/>
<text text-anchor="middle" x="494" y="-63" style="font-family:Arial;font-size:10.00;">ltr/interfaces/aliaser.h</text>
</a>
</g>
<!-- Node9&#45;&gt;Node14 -->
<g id="edge28" class="edge"><title>Node9&#45;&gt;Node14</title>
<path style="fill:none;stroke:midnightblue;" d="M413,-112C428,-104 450,-91 467,-81"/>
<polygon style="fill:midnightblue;stroke:midnightblue;" points="468.958,-83.916 476,-76 465.559,-77.7969 468.958,-83.916"/>
</g>
<!-- Node14&#45;&gt;Node12 -->
<g id="edge30" class="edge"><title>Node14&#45;&gt;Node12</title>
<path style="fill:none;stroke:midnightblue;" d="M535,-56C581,-45 654,-27 695,-17"/>
<polygon style="fill:midnightblue;stroke:midnightblue;" points="695.881,-20.3933 705,-15 694.508,-13.5292 695.881,-20.3933"/>
</g>
<!-- Node15&#45;&gt;Node12 -->
<g id="edge36" class="edge"><title>Node15&#45;&gt;Node12</title>
<path style="fill:none;stroke:midnightblue;" d="M669,-168C669,-146 670,-94 687,-56 692,-46 699,-36 706,-27"/>
<polygon style="fill:midnightblue;stroke:midnightblue;" points="708.404,-29.546 713,-20 703.454,-24.5962 708.404,-29.546"/>
</g>
<!-- Node16 -->
<g id="node33" class="node"><title>Node16</title>
<polygon style="fill:white;stroke:#bfbfbf;" points="696,-56 696,-76 755,-76 755,-56 696,-56"/>
<text text-anchor="middle" x="725" y="-63" style="font-family:Arial;font-size:10.00;">stdexcept</text>
</g>
<!-- Node15&#45;&gt;Node16 -->
<g id="edge34" class="edge"><title>Node15&#45;&gt;Node16</title>
<path style="fill:none;stroke:midnightblue;" d="M674,-168C684,-149 703,-109 715,-85"/>
<polygon style="fill:midnightblue;stroke:midnightblue;" points="718.203,-86.4414 720,-76 712.084,-83.0418 718.203,-86.4414"/>
</g>
<!-- Node17 -->
<g id="node36" class="node"><title>Node17</title>
<a xlink:href="parameters__container_8h.html" target="_top" xlink:title="ltr/parameters_container/parameters_container.h">
<polygon style="fill:white;stroke:black;" points="734,-112 734,-132 959,-132 959,-112 734,-112"/>
<text text-anchor="middle" x="846" y="-119" style="font-family:Arial;font-size:10.00;">ltr/parameters_container/parameters_container.h</text>
</a>
</g>
<!-- Node15&#45;&gt;Node17 -->
<g id="edge38" class="edge"><title>Node15&#45;&gt;Node17</title>
<path style="fill:none;stroke:midnightblue;" d="M701,-168C730,-159 773,-145 804,-135"/>
<polygon style="fill:midnightblue;stroke:midnightblue;" points="805.427,-138.226 814,-132 803.416,-131.521 805.427,-138.226"/>
</g>
<!-- Node17&#45;&gt;Node5 -->
<g id="edge52" class="edge"><title>Node17&#45;&gt;Node5</title>
<path style="fill:none;stroke:midnightblue;" d="M734,-114C610,-106 404,-91 227,-76 215,-75 203,-74 191,-73"/>
<polygon style="fill:midnightblue;stroke:midnightblue;" points="191.299,-69.5125 181,-72 190.602,-76.4778 191.299,-69.5125"/>
</g>
<!-- Node17&#45;&gt;Node11 -->
<g id="edge40" class="edge"><title>Node17&#45;&gt;Node11</title>
<path style="fill:none;stroke:midnightblue;" d="M803,-112C760,-102 694,-87 650,-77"/>
<polygon style="fill:midnightblue;stroke:midnightblue;" points="650.492,-73.5292 640,-75 649.119,-80.3933 650.492,-73.5292"/>
</g>
<!-- Node17&#45;&gt;Node12 -->
<g id="edge46" class="edge"><title>Node17&#45;&gt;Node12</title>
<path style="fill:none;stroke:midnightblue;" d="M835,-112C814,-92 769,-51 744,-27"/>
<polygon style="fill:midnightblue;stroke:midnightblue;" points="745.831,-23.9511 736,-20 741.221,-29.2191 745.831,-23.9511"/>
</g>
<!-- Node17&#45;&gt;Node16 -->
<g id="edge44" class="edge"><title>Node17&#45;&gt;Node16</title>
<path style="fill:none;stroke:midnightblue;" d="M824,-112C806,-103 778,-90 756,-80"/>
<polygon style="fill:midnightblue;stroke:midnightblue;" points="757.56,-76.8631 747,-76 754.717,-83.2598 757.56,-76.8631"/>
</g>
<!-- Node18 -->
<g id="node39" class="node"><title>Node18</title>
<polygon style="fill:white;stroke:#bfbfbf;" points="810,-56 810,-76 839,-76 839,-56 810,-56"/>
<text text-anchor="middle" x="824" y="-63" style="font-family:Arial;font-size:10.00;">list</text>
</g>
<!-- Node17&#45;&gt;Node18 -->
<g id="edge42" class="edge"><title>Node17&#45;&gt;Node18</title>
<path style="fill:none;stroke:midnightblue;" d="M842,-112C839,-105 835,-95 832,-85"/>
<polygon style="fill:midnightblue;stroke:midnightblue;" points="835.26,-83.7166 828,-76 828.863,-86.5596 835.26,-83.7166"/>
</g>
<!-- Node19 -->
<g id="node43" class="node"><title>Node19</title>
<polygon style="fill:white;stroke:#bfbfbf;" points="856,-56 856,-76 933,-76 933,-56 856,-56"/>
<text text-anchor="middle" x="894" y="-63" style="font-family:Arial;font-size:10.00;">boost/any.hpp</text>
</g>
<!-- Node17&#45;&gt;Node19 -->
<g id="edge48" class="edge"><title>Node17&#45;&gt;Node19</title>
<path style="fill:none;stroke:midnightblue;" d="M855,-112C861,-104 871,-93 879,-84"/>
<polygon style="fill:midnightblue;stroke:midnightblue;" points="881.8,-86.1 885,-76 876.2,-81.9 881.8,-86.1"/>
</g>
<!-- Node20 -->
<g id="node45" class="node"><title>Node20</title>
<polygon style="fill:white;stroke:#bfbfbf;" points="950,-56 950,-76 1079,-76 1079,-56 950,-56"/>
<text text-anchor="middle" x="1014" y="-63" style="font-family:Arial;font-size:10.00;">boost/unordered_map.hpp</text>
</g>
<!-- Node17&#45;&gt;Node20 -->
<g id="edge50" class="edge"><title>Node17&#45;&gt;Node20</title>
<path style="fill:none;stroke:midnightblue;" d="M876,-112C903,-103 944,-89 974,-79"/>
<polygon style="fill:midnightblue;stroke:midnightblue;" points="975.427,-82.2259 984,-76 973.416,-75.5212 975.427,-82.2259"/>
</g>
<!-- Node21 -->
<g id="node48" class="node"><title>Node21</title>
<a xlink:href="printable_8h.html" target="_top" xlink:title="ltr/interfaces/printable.h">
<polygon style="fill:white;stroke:black;" points="1134,-56 1134,-76 1251,-76 1251,-56 1134,-56"/>
<text text-anchor="middle" x="1192" y="-63" style="font-family:Arial;font-size:10.00;">ltr/interfaces/printable.h</text>
</a>
</g>
<!-- Node17&#45;&gt;Node21 -->
<g id="edge54" class="edge"><title>Node17&#45;&gt;Node21</title>
<path style="fill:none;stroke:midnightblue;" d="M908,-112C969,-103 1061,-88 1124,-77"/>
<polygon style="fill:midnightblue;stroke:midnightblue;" points="1124.88,-80.3933 1134,-75 1123.51,-73.5292 1124.88,-80.3933"/>
</g>
<!-- Node21&#45;&gt;Node12 -->
<g id="edge58" class="edge"><title>Node21&#45;&gt;Node12</title>
<path style="fill:none;stroke:midnightblue;" d="M1134,-58C1129,-57 1125,-57 1120,-56 984,-38 821,-20 755,-13"/>
<polygon style="fill:midnightblue;stroke:midnightblue;" points="755.299,-9.5125 745,-12 754.602,-16.4778 755.299,-9.5125"/>
</g>
<!-- Node22 -->
<g id="node50" class="node"><title>Node22</title>
<polygon style="fill:white;stroke:#bfbfbf;" points="1167,-0 1167,-20 1218,-20 1218,-0 1167,-0"/>
<text text-anchor="middle" x="1192" y="-7" style="font-family:Arial;font-size:10.00;">ostream</text>
</g>
<!-- Node21&#45;&gt;Node22 -->
<g id="edge56" class="edge"><title>Node21&#45;&gt;Node22</title>
<path style="fill:none;stroke:midnightblue;" d="M1192,-56C1192,-49 1192,-39 1192,-30"/>
<polygon style="fill:midnightblue;stroke:midnightblue;" points="1195.5,-30 1192,-20 1188.5,-30 1195.5,-30"/>
</g>
<!-- Node23&#45;&gt;Node3 -->
<g id="edge66" class="edge"><title>Node23&#45;&gt;Node3</title>
<path style="fill:none;stroke:midnightblue;" d="M618,-280C618,-273 618,-263 618,-254"/>
<polygon style="fill:midnightblue;stroke:midnightblue;" points="621.488,-254.299 619,-244 614.522,-253.602 621.488,-254.299"/>
</g>
<!-- Node23&#45;&gt;Node4 -->
<g id="edge62" class="edge"><title>Node23&#45;&gt;Node4</title>
<path style="fill:none;stroke:midnightblue;" d="M689,-280C720,-273 755,-262 784,-244 802,-232 817,-212 827,-197"/>
<polygon style="fill:midnightblue;stroke:midnightblue;" points="830.203,-198.441 832,-188 824.084,-195.042 830.203,-198.441"/>
</g>
<!-- Node23&#45;&gt;Node12 -->
<g id="edge64" class="edge"><title>Node23&#45;&gt;Node12</title>
<path style="fill:none;stroke:midnightblue;" d="M514,-280C349,-263 46,-225 46,-178 46,-178 46,-178 46,-122 46,-91 42,-75 65,-56 90,-36 568,-16 695,-11"/>
<polygon style="fill:midnightblue;stroke:midnightblue;" points="695,-14.5001 705,-11 695,-7.5001 695,-14.5001"/>
</g>
<!-- Node23&#45;&gt;Node17 -->
<g id="edge68" class="edge"><title>Node23&#45;&gt;Node17</title>
<path style="fill:none;stroke:midnightblue;" d="M665,-280C691,-273 723,-261 748,-244 782,-218 780,-201 808,-168 815,-158 823,-148 830,-140"/>
<polygon style="fill:midnightblue;stroke:midnightblue;" points="833.049,-141.831 837,-132 827.781,-137.221 833.049,-141.831"/>
</g>
<!-- Node24&#45;&gt;Node3 -->
<g id="edge76" class="edge"><title>Node24&#45;&gt;Node3</title>
<path style="fill:none;stroke:midnightblue;" d="M856,-280C807,-271 733,-256 681,-246"/>
<polygon style="fill:midnightblue;stroke:midnightblue;" points="681.492,-242.529 671,-244 680.119,-249.393 681.492,-242.529"/>
</g>
<!-- Node24&#45;&gt;Node4 -->
<g id="edge72" class="edge"><title>Node24&#45;&gt;Node4</title>
<path style="fill:none;stroke:midnightblue;" d="M901,-280C890,-261 865,-221 850,-197"/>
<polygon style="fill:midnightblue;stroke:midnightblue;" points="852.459,-194.379 844,-188 846.635,-198.262 852.459,-194.379"/>
</g>
<!-- Node24&#45;&gt;Node12 -->
<g id="edge74" class="edge"><title>Node24&#45;&gt;Node12</title>
<path style="fill:none;stroke:midnightblue;" d="M976,-280C1033,-267 1106,-239 1106,-178 1106,-178 1106,-178 1106,-122 1106,-91 1110,-75 1087,-56 1062,-34 838,-17 755,-12"/>
<polygon style="fill:midnightblue;stroke:midnightblue;" points="755.299,-8.5125 745,-11 754.602,-15.4778 755.299,-8.5125"/>
</g>
<!-- Node24&#45;&gt;Node17 -->
<g id="edge78" class="edge"><title>Node24&#45;&gt;Node17</title>
<path style="fill:none;stroke:midnightblue;" d="M904,-280C899,-259 884,-208 868,-168 864,-159 860,-149 856,-141"/>
<polygon style="fill:midnightblue;stroke:midnightblue;" points="858.916,-139.042 851,-132 852.797,-142.441 858.916,-139.042"/>
</g>
<!-- Node25&#45;&gt;Node3 -->
<g id="edge88" class="edge"><title>Node25&#45;&gt;Node3</title>
<path style="fill:none;stroke:midnightblue;" d="M1086,-280C986,-270 834,-255 730,-245"/>
<polygon style="fill:midnightblue;stroke:midnightblue;" points="730.299,-241.512 720,-244 729.602,-248.478 730.299,-241.512"/>
</g>
<!-- Node25&#45;&gt;Node4 -->
<g id="edge86" class="edge"><title>Node25&#45;&gt;Node4</title>
<path style="fill:none;stroke:midnightblue;" d="M1157,-280C1090,-258 935,-209 869,-188"/>
<polygon style="fill:midnightblue;stroke:midnightblue;" points="869.584,-184.521 859,-185 867.573,-191.226 869.584,-184.521"/>
</g>
<!-- Node25&#45;&gt;Node12 -->
<g id="edge84" class="edge"><title>Node25&#45;&gt;Node12</title>
<path style="fill:none;stroke:midnightblue;" d="M1205,-280C1230,-262 1278,-224 1278,-178 1278,-178 1278,-178 1278,-122 1278,-91 1282,-75 1259,-56 1220,-24 863,-13 755,-10"/>
<polygon style="fill:midnightblue;stroke:midnightblue;" points="755,-6.5001 745,-10 755,-13.5001 755,-6.5001"/>
</g>
<!-- Node25&#45;&gt;Node17 -->
<g id="edge90" class="edge"><title>Node25&#45;&gt;Node17</title>
<path style="fill:none;stroke:midnightblue;" d="M1168,-280C1110,-251 945,-170 876,-137"/>
<polygon style="fill:midnightblue;stroke:midnightblue;" points="877.441,-133.797 867,-132 874.042,-139.916 877.441,-133.797"/>
</g>
<!-- Node26 -->
<g id="node67" class="node"><title>Node26</title>
<polygon style="fill:white;stroke:#bfbfbf;" points="1172,-224 1172,-244 1207,-244 1207,-224 1172,-224"/>
<text text-anchor="middle" x="1189" y="-231" style="font-family:Arial;font-size:10.00;">map</text>
</g>
<!-- Node25&#45;&gt;Node26 -->
<g id="edge82" class="edge"><title>Node25&#45;&gt;Node26</title>
<path style="fill:none;stroke:midnightblue;" d="M1188,-280C1188,-273 1188,-263 1188,-254"/>
<polygon style="fill:midnightblue;stroke:midnightblue;" points="1191.49,-254.299 1189,-244 1184.52,-253.602 1191.49,-254.299"/>
</g>
<!-- Node28 -->
<g id="node75" class="node"><title>Node28</title>
<polygon style="fill:white;stroke:#bfbfbf;" points="1397,-224 1397,-244 1440,-244 1440,-224 1397,-224"/>
<text text-anchor="middle" x="1418" y="-231" style="font-family:Arial;font-size:10.00;">cmath</text>
</g>
<!-- Node27&#45;&gt;Node28 -->
<g id="edge94" class="edge"><title>Node27&#45;&gt;Node28</title>
<path style="fill:none;stroke:midnightblue;" d="M1394,-280C1398,-273 1404,-262 1409,-253"/>
<polygon style="fill:midnightblue;stroke:midnightblue;" points="1412.14,-254.56 1413,-244 1405.74,-251.717 1412.14,-254.56"/>
</g>
<!-- Node29 -->
<g id="node77" class="node"><title>Node29</title>
<polygon style="fill:white;stroke:#bfbfbf;" points="1341,-224 1341,-244 1380,-244 1380,-224 1341,-224"/>
<text text-anchor="middle" x="1360" y="-231" style="font-family:Arial;font-size:10.00;">limits</text>
</g>
<!-- Node27&#45;&gt;Node29 -->
<g id="edge96" class="edge"><title>Node27&#45;&gt;Node29</title>
<path style="fill:none;stroke:midnightblue;" d="M1384,-280C1380,-273 1374,-262 1369,-253"/>
<polygon style="fill:midnightblue;stroke:midnightblue;" points="1372.26,-251.717 1365,-244 1365.86,-254.56 1372.26,-251.717"/>
</g>
</g>
</svg>
