<?xml version="1.0" encoding="UTF-8" standalone="no"?>
<!DOCTYPE svg PUBLIC "-//W3C//DTD SVG 1.0//EN"
 "http://www.w3.org/TR/2001/REC-SVG-20010904/DTD/svg10.dtd" [
 <!ATTLIST svg xmlns:xlink CDATA #FIXED "http://www.w3.org/1999/xlink">
]>
<!-- Generated by Graphviz version 2.20.2 (Tue Mar &#160;2 19:03:41 UTC 2010)
     For user: (jenkins)  -->
<!-- Title: G Pages: 1 -->
<svg width="1283pt" height="252pt"
 viewBox="0.00 0.00 1283.00 252.00" xmlns="http://www.w3.org/2000/svg" xmlns:xlink="http://www.w3.org/1999/xlink">
<g id="graph0" class="graph" transform="scale(1 1) rotate(0) translate(4 248)">
<title>G</title>
<polygon style="fill:white;stroke:white;" points="-4,4 -4,-248 1279,-248 1279,4 -4,4"/>
<!-- Node1 -->
<g id="node1" class="node"><title>Node1</title>
<polygon style="fill:#bfbfbf;stroke:black;" points="311,-224 311,-244 551,-244 551,-224 311,-224"/>
<text text-anchor="middle" x="431" y="-231" style="font-family:Arial;font-size:10.00;">ltr/predictions_aggregators/predictions_aggregator.h</text>
</g>
<!-- Node2 -->
<g id="node3" class="node"><title>Node2</title>
<polygon style="fill:white;stroke:#bfbfbf;" points="315,-168 315,-188 357,-188 357,-168 315,-168"/>
<text text-anchor="middle" x="336" y="-175" style="font-family:Arial;font-size:10.00;">vector</text>
</g>
<!-- Node1&#45;&gt;Node2 -->
<g id="edge2" class="edge"><title>Node1&#45;&gt;Node2</title>
<path style="fill:none;stroke:midnightblue;" d="M414,-224C400,-216 379,-203 362,-193"/>
<polygon style="fill:midnightblue;stroke:midnightblue;" points="363.441,-189.797 353,-188 360.042,-195.916 363.441,-189.797"/>
</g>
<!-- Node3 -->
<g id="node5" class="node"><title>Node3</title>
<a xlink:href="shared__ptr_8h.html" target="_top" xlink:title="ltr/utility/shared_ptr.h">
<polygon style="fill:white;stroke:black;" points="166,-56 166,-76 273,-76 273,-56 166,-56"/>
<text text-anchor="middle" x="219" y="-63" style="font-family:Arial;font-size:10.00;">ltr/utility/shared_ptr.h</text>
</a>
</g>
<!-- Node1&#45;&gt;Node3 -->
<g id="edge4" class="edge"><title>Node1&#45;&gt;Node3</title>
<path style="fill:none;stroke:midnightblue;" d="M422,-224C410,-210 387,-186 366,-168 326,-134 276,-100 245,-81"/>
<polygon style="fill:midnightblue;stroke:midnightblue;" points="246.441,-77.7969 236,-76 243.042,-83.916 246.441,-77.7969"/>
</g>
<!-- Node7 -->
<g id="node13" class="node"><title>Node7</title>
<a xlink:href="serializable_8h.html" target="_top" xlink:title="ltr/interfaces/serializable.h">
<polygon style="fill:white;stroke:black;" points="413,-112 413,-132 542,-132 542,-112 413,-112"/>
<text text-anchor="middle" x="477" y="-119" style="font-family:Arial;font-size:10.00;">ltr/interfaces/serializable.h</text>
</a>
</g>
<!-- Node1&#45;&gt;Node7 -->
<g id="edge12" class="edge"><title>Node1&#45;&gt;Node7</title>
<path style="fill:none;stroke:midnightblue;" d="M435,-224C443,-205 459,-166 469,-141"/>
<polygon style="fill:midnightblue;stroke:midnightblue;" points="472.137,-142.56 473,-132 465.74,-139.717 472.137,-142.56"/>
</g>
<!-- Node13 -->
<g id="node27" class="node"><title>Node13</title>
<a xlink:href="parameterized_8h.html" target="_top" xlink:title="ltr/interfaces/parameterized.h">
<polygon style="fill:white;stroke:black;" points="1020,-168 1020,-188 1162,-188 1162,-168 1020,-168"/>
<text text-anchor="middle" x="1091" y="-175" style="font-family:Arial;font-size:10.00;">ltr/interfaces/parameterized.h</text>
</a>
</g>
<!-- Node1&#45;&gt;Node13 -->
<g id="edge28" class="edge"><title>Node1&#45;&gt;Node13</title>
<path style="fill:none;stroke:midnightblue;" d="M549,-224C682,-212 894,-195 1010,-185"/>
<polygon style="fill:midnightblue;stroke:midnightblue;" points="1010.4,-188.478 1020,-184 1009.7,-181.512 1010.4,-188.478"/>
</g>
<!-- Node4 -->
<g id="node7" class="node"><title>Node4</title>
<polygon style="fill:white;stroke:#bfbfbf;" points="332,-0 332,-20 388,-20 388,-0 332,-0"/>
<text text-anchor="middle" x="360" y="-7" style="font-family:Arial;font-size:10.00;">algorithm</text>
</g>
<!-- Node3&#45;&gt;Node4 -->
<g id="edge6" class="edge"><title>Node3&#45;&gt;Node4</title>
<path style="fill:none;stroke:midnightblue;" d="M244,-56C267,-47 300,-34 325,-24"/>
<polygon style="fill:midnightblue;stroke:midnightblue;" points="327.015,-26.9636 335,-20 324.415,-20.4643 327.015,-26.9636"/>
</g>
<!-- Node5 -->
<g id="node9" class="node"><title>Node5</title>
<polygon style="fill:white;stroke:#bfbfbf;" points="0,-0 0,-20 107,-20 107,-0 0,-0"/>
<text text-anchor="middle" x="53" y="-7" style="font-family:Arial;font-size:10.00;">boost/shared_ptr.hpp</text>
</g>
<!-- Node3&#45;&gt;Node5 -->
<g id="edge8" class="edge"><title>Node3&#45;&gt;Node5</title>
<path style="fill:none;stroke:midnightblue;" d="M189,-56C162,-47 122,-33 93,-23"/>
<polygon style="fill:midnightblue;stroke:midnightblue;" points="93.584,-19.5212 83,-20 91.5725,-26.2259 93.584,-19.5212"/>
</g>
<!-- Node6 -->
<g id="node11" class="node"><title>Node6</title>
<polygon style="fill:white;stroke:#bfbfbf;" points="124,-0 124,-20 315,-20 315,-0 124,-0"/>
<text text-anchor="middle" x="219" y="-7" style="font-family:Arial;font-size:10.00;">boost/smart_ptr/detail/operator_bool.hpp</text>
</g>
<!-- Node3&#45;&gt;Node6 -->
<g id="edge10" class="edge"><title>Node3&#45;&gt;Node6</title>
<path style="fill:none;stroke:midnightblue;" d="M219,-56C219,-49 219,-39 219,-30"/>
<polygon style="fill:midnightblue;stroke:midnightblue;" points="222.5,-30 219,-20 215.5,-30 222.5,-30"/>
</g>
<!-- Node7&#45;&gt;Node3 -->
<g id="edge22" class="edge"><title>Node7&#45;&gt;Node3</title>
<path style="fill:none;stroke:midnightblue;" d="M431,-112C387,-103 322,-88 275,-78"/>
<polygon style="fill:midnightblue;stroke:midnightblue;" points="275.492,-74.5292 265,-76 274.119,-81.3933 275.492,-74.5292"/>
</g>
<!-- Node8 -->
<g id="node15" class="node"><title>Node8</title>
<polygon style="fill:white;stroke:#bfbfbf;" points="290,-56 290,-76 404,-76 404,-56 290,-56"/>
<text text-anchor="middle" x="347" y="-63" style="font-family:Arial;font-size:10.00;">boost/lexical_cast.hpp</text>
</g>
<!-- Node7&#45;&gt;Node8 -->
<g id="edge14" class="edge"><title>Node7&#45;&gt;Node8</title>
<path style="fill:none;stroke:midnightblue;" d="M454,-112C433,-103 403,-90 380,-80"/>
<polygon style="fill:midnightblue;stroke:midnightblue;" points="380.585,-76.4643 370,-76 377.985,-82.9636 380.585,-76.4643"/>
</g>
<!-- Node9 -->
<g id="node17" class="node"><title>Node9</title>
<polygon style="fill:white;stroke:#bfbfbf;" points="658,-56 658,-76 732,-76 732,-56 658,-56"/>
<text text-anchor="middle" x="695" y="-63" style="font-family:Arial;font-size:10.00;">logog/logog.h</text>
</g>
<!-- Node7&#45;&gt;Node9 -->
<g id="edge16" class="edge"><title>Node7&#45;&gt;Node9</title>
<path style="fill:none;stroke:midnightblue;" d="M516,-112C553,-103 608,-88 648,-78"/>
<polygon style="fill:midnightblue;stroke:midnightblue;" points="648.881,-81.3933 658,-76 647.508,-74.5292 648.881,-81.3933"/>
</g>
<!-- Node10 -->
<g id="node19" class="node"><title>Node10</title>
<polygon style="fill:white;stroke:#bfbfbf;" points="740,-0 740,-20 780,-20 780,-0 740,-0"/>
<text text-anchor="middle" x="760" y="-7" style="font-family:Arial;font-size:10.00;">string</text>
</g>
<!-- Node7&#45;&gt;Node10 -->
<g id="edge18" class="edge"><title>Node7&#45;&gt;Node10</title>
<path style="fill:none;stroke:midnightblue;" d="M481,-112C488,-97 502,-69 523,-56 556,-33 673,-19 730,-13"/>
<polygon style="fill:midnightblue;stroke:midnightblue;" points="730.398,-16.4778 740,-12 729.701,-9.5125 730.398,-16.4778"/>
</g>
<!-- Node11 -->
<g id="node21" class="node"><title>Node11</title>
<polygon style="fill:white;stroke:#bfbfbf;" points="422,-56 422,-76 476,-76 476,-56 422,-56"/>
<text text-anchor="middle" x="449" y="-63" style="font-family:Arial;font-size:10.00;">iostream</text>
</g>
<!-- Node7&#45;&gt;Node11 -->
<g id="edge20" class="edge"><title>Node7&#45;&gt;Node11</title>
<path style="fill:none;stroke:midnightblue;" d="M472,-112C468,-105 463,-94 458,-85"/>
<polygon style="fill:midnightblue;stroke:midnightblue;" points="461.26,-83.7166 454,-76 454.863,-86.5596 461.26,-83.7166"/>
</g>
<!-- Node12 -->
<g id="node24" class="node"><title>Node12</title>
<a xlink:href="aliaser_8h.html" target="_top" xlink:title="ltr/interfaces/aliaser.h">
<polygon style="fill:white;stroke:black;" points="532,-56 532,-76 640,-76 640,-56 532,-56"/>
<text text-anchor="middle" x="586" y="-63" style="font-family:Arial;font-size:10.00;">ltr/interfaces/aliaser.h</text>
</a>
</g>
<!-- Node7&#45;&gt;Node12 -->
<g id="edge24" class="edge"><title>Node7&#45;&gt;Node12</title>
<path style="fill:none;stroke:midnightblue;" d="M496,-112C513,-103 538,-90 557,-81"/>
<polygon style="fill:midnightblue;stroke:midnightblue;" points="558.958,-83.916 566,-76 555.559,-77.7969 558.958,-83.916"/>
</g>
<!-- Node12&#45;&gt;Node10 -->
<g id="edge26" class="edge"><title>Node12&#45;&gt;Node10</title>
<path style="fill:none;stroke:midnightblue;" d="M617,-56C649,-46 699,-30 730,-19"/>
<polygon style="fill:midnightblue;stroke:midnightblue;" points="731.427,-22.2259 740,-16 729.416,-15.5212 731.427,-22.2259"/>
</g>
<!-- Node13&#45;&gt;Node10 -->
<g id="edge32" class="edge"><title>Node13&#45;&gt;Node10</title>
<path style="fill:none;stroke:midnightblue;" d="M1133,-168C1202,-150 1323,-109 1275,-56 1242,-19 896,-12 790,-10"/>
<polygon style="fill:midnightblue;stroke:midnightblue;" points="790,-6.5001 780,-10 790,-13.5001 790,-6.5001"/>
</g>
<!-- Node14 -->
<g id="node29" class="node"><title>Node14</title>
<polygon style="fill:white;stroke:#bfbfbf;" points="1208,-56 1208,-76 1267,-76 1267,-56 1208,-56"/>
<text text-anchor="middle" x="1237" y="-63" style="font-family:Arial;font-size:10.00;">stdexcept</text>
</g>
<!-- Node13&#45;&gt;Node14 -->
<g id="edge30" class="edge"><title>Node13&#45;&gt;Node14</title>
<path style="fill:none;stroke:midnightblue;" d="M1104,-168C1129,-148 1185,-106 1215,-83"/>
<polygon style="fill:midnightblue;stroke:midnightblue;" points="1217.78,-85.2191 1223,-76 1213.17,-79.9511 1217.78,-85.2191"/>
</g>
<!-- Node15 -->
<g id="node32" class="node"><title>Node15</title>
<a xlink:href="parameters__container_8h.html" target="_top" xlink:title="ltr/parameters_container/parameters_container.h">
<polygon style="fill:white;stroke:black;" points="834,-112 834,-132 1059,-132 1059,-112 834,-112"/>
<text text-anchor="middle" x="946" y="-119" style="font-family:Arial;font-size:10.00;">ltr/parameters_container/parameters_container.h</text>
</a>
</g>
<!-- Node13&#45;&gt;Node15 -->
<g id="edge34" class="edge"><title>Node13&#45;&gt;Node15</title>
<path style="fill:none;stroke:midnightblue;" d="M1065,-168C1042,-159 1007,-146 981,-136"/>
<polygon style="fill:midnightblue;stroke:midnightblue;" points="982.56,-132.863 972,-132 979.717,-139.26 982.56,-132.863"/>
</g>
<!-- Node15&#45;&gt;Node3 -->
<g id="edge48" class="edge"><title>Node15&#45;&gt;Node3</title>
<path style="fill:none;stroke:midnightblue;" d="M834,-117C703,-111 482,-98 283,-76"/>
<polygon style="fill:midnightblue;stroke:midnightblue;" points="283.299,-72.5125 273,-75 282.602,-79.4778 283.299,-72.5125"/>
</g>
<!-- Node15&#45;&gt;Node9 -->
<g id="edge36" class="edge"><title>Node15&#45;&gt;Node9</title>
<path style="fill:none;stroke:midnightblue;" d="M901,-112C856,-102 788,-86 742,-76"/>
<polygon style="fill:midnightblue;stroke:midnightblue;" points="742.492,-72.5292 732,-74 741.119,-79.3933 742.492,-72.5292"/>
</g>
<!-- Node15&#45;&gt;Node10 -->
<g id="edge42" class="edge"><title>Node15&#45;&gt;Node10</title>
<path style="fill:none;stroke:midnightblue;" d="M886,-112C845,-104 794,-91 779,-76 767,-64 762,-45 761,-30"/>
<polygon style="fill:midnightblue;stroke:midnightblue;" points="764.478,-29.6021 760,-20 757.512,-30.2987 764.478,-29.6021"/>
</g>
<!-- Node15&#45;&gt;Node14 -->
<g id="edge40" class="edge"><title>Node15&#45;&gt;Node14</title>
<path style="fill:none;stroke:midnightblue;" d="M1007,-112C1057,-103 1127,-91 1198,-76"/>
<polygon style="fill:midnightblue;stroke:midnightblue;" points="1198.88,-79.3933 1208,-74 1197.51,-72.5292 1198.88,-79.3933"/>
</g>
<!-- Node16 -->
<g id="node35" class="node"><title>Node16</title>
<polygon style="fill:white;stroke:#bfbfbf;" points="1028,-56 1028,-76 1057,-76 1057,-56 1028,-56"/>
<text text-anchor="middle" x="1042" y="-63" style="font-family:Arial;font-size:10.00;">list</text>
</g>
<!-- Node15&#45;&gt;Node16 -->
<g id="edge38" class="edge"><title>Node15&#45;&gt;Node16</title>
<path style="fill:none;stroke:midnightblue;" d="M963,-112C979,-103 1002,-89 1019,-79"/>
<polygon style="fill:midnightblue;stroke:midnightblue;" points="1020.96,-81.916 1028,-74 1017.56,-75.7969 1020.96,-81.916"/>
</g>
<!-- Node17 -->
<g id="node39" class="node"><title>Node17</title>
<polygon style="fill:white;stroke:#bfbfbf;" points="788,-56 788,-76 865,-76 865,-56 788,-56"/>
<text text-anchor="middle" x="826" y="-63" style="font-family:Arial;font-size:10.00;">boost/any.hpp</text>
</g>
<!-- Node15&#45;&gt;Node17 -->
<g id="edge44" class="edge"><title>Node15&#45;&gt;Node17</title>
<path style="fill:none;stroke:midnightblue;" d="M925,-112C906,-103 879,-90 857,-80"/>
<polygon style="fill:midnightblue;stroke:midnightblue;" points="858.56,-76.8631 848,-76 855.717,-83.2598 858.56,-76.8631"/>
</g>
<!-- Node18 -->
<g id="node41" class="node"><title>Node18</title>
<polygon style="fill:white;stroke:#bfbfbf;" points="882,-56 882,-76 1011,-76 1011,-56 882,-56"/>
<text text-anchor="middle" x="946" y="-63" style="font-family:Arial;font-size:10.00;">boost/unordered_map.hpp</text>
</g>
<!-- Node15&#45;&gt;Node18 -->
<g id="edge46" class="edge"><title>Node15&#45;&gt;Node18</title>
<path style="fill:none;stroke:midnightblue;" d="M946,-112C946,-105 946,-95 946,-86"/>
<polygon style="fill:midnightblue;stroke:midnightblue;" points="949.5,-86 946,-76 942.5,-86 949.5,-86"/>
</g>
<!-- Node19 -->
<g id="node44" class="node"><title>Node19</title>
<a xlink:href="printable_8h.html" target="_top" xlink:title="ltr/interfaces/printable.h">
<polygon style="fill:white;stroke:black;" points="1074,-56 1074,-76 1191,-76 1191,-56 1074,-56"/>
<text text-anchor="middle" x="1132" y="-63" style="font-family:Arial;font-size:10.00;">ltr/interfaces/printable.h</text>
</a>
</g>
<!-- Node15&#45;&gt;Node19 -->
<g id="edge50" class="edge"><title>Node15&#45;&gt;Node19</title>
<path style="fill:none;stroke:midnightblue;" d="M979,-112C1010,-103 1055,-89 1089,-79"/>
<polygon style="fill:midnightblue;stroke:midnightblue;" points="1090.43,-82.2259 1099,-76 1088.42,-75.5212 1090.43,-82.2259"/>
</g>
<!-- Node19&#45;&gt;Node10 -->
<g id="edge54" class="edge"><title>Node19&#45;&gt;Node10</title>
<path style="fill:none;stroke:midnightblue;" d="M1074,-57C994,-46 852,-24 790,-15"/>
<polygon style="fill:midnightblue;stroke:midnightblue;" points="790.492,-11.5292 780,-13 789.119,-18.3933 790.492,-11.5292"/>
</g>
<!-- Node20 -->
<g id="node46" class="node"><title>Node20</title>
<polygon style="fill:white;stroke:#bfbfbf;" points="1107,-0 1107,-20 1158,-20 1158,-0 1107,-0"/>
<text text-anchor="middle" x="1132" y="-7" style="font-family:Arial;font-size:10.00;">ostream</text>
</g>
<!-- Node19&#45;&gt;Node20 -->
<g id="edge52" class="edge"><title>Node19&#45;&gt;Node20</title>
<path style="fill:none;stroke:midnightblue;" d="M1132,-56C1132,-49 1132,-39 1132,-30"/>
<polygon style="fill:midnightblue;stroke:midnightblue;" points="1135.5,-30 1132,-20 1128.5,-30 1135.5,-30"/>
</g>
</g>
</svg>
