<?xml version="1.0" encoding="UTF-8" standalone="no"?>
<!DOCTYPE svg PUBLIC "-//W3C//DTD SVG 1.0//EN"
 "http://www.w3.org/TR/2001/REC-SVG-20010904/DTD/svg10.dtd" [
 <!ATTLIST svg xmlns:xlink CDATA #FIXED "http://www.w3.org/1999/xlink">
]>
<!-- Generated by Graphviz version 2.20.2 (Tue Mar &#160;2 19:03:41 UTC 2010)
     For user: (jenkins)  -->
<!-- Title: G Pages: 1 -->
<svg width="468pt" height="84pt"
 viewBox="0.00 0.00 468.00 84.00" xmlns="http://www.w3.org/2000/svg" xmlns:xlink="http://www.w3.org/1999/xlink">
<g id="graph0" class="graph" transform="scale(1 1) rotate(0) translate(4 80)">
<title>G</title>
<polygon style="fill:white;stroke:white;" points="-4,4 -4,-80 464,-80 464,4 -4,4"/>
<!-- Node1 -->
<g id="node1" class="node"><title>Node1</title>
<polygon style="fill:#bfbfbf;stroke:black;" points="72,-56 72,-76 249,-76 249,-56 72,-56"/>
<text text-anchor="middle" x="160" y="-63" style="font-family:Arial;font-size:10.00;">ltr/utility/random_number_generator.h</text>
</g>
<!-- Node2 -->
<g id="node3" class="node"><title>Node2</title>
<polygon style="fill:white;stroke:#bfbfbf;" points="0,-0 0,-20 56,-20 56,-0 0,-0"/>
<text text-anchor="middle" x="28" y="-7" style="font-family:Arial;font-size:10.00;">algorithm</text>
</g>
<!-- Node1&#45;&gt;Node2 -->
<g id="edge2" class="edge"><title>Node1&#45;&gt;Node2</title>
<path style="fill:none;stroke:midnightblue;" d="M136,-56C115,-47 85,-34 62,-24"/>
<polygon style="fill:midnightblue;stroke:midnightblue;" points="62.5847,-20.4643 52,-20 59.9849,-26.9636 62.5847,-20.4643"/>
</g>
<!-- Node3 -->
<g id="node5" class="node"><title>Node3</title>
<polygon style="fill:white;stroke:#bfbfbf;" points="74,-0 74,-20 247,-20 247,-0 74,-0"/>
<text text-anchor="middle" x="160" y="-7" style="font-family:Arial;font-size:10.00;">boost/random/mersenne_twister.hpp</text>
</g>
<!-- Node1&#45;&gt;Node3 -->
<g id="edge4" class="edge"><title>Node1&#45;&gt;Node3</title>
<path style="fill:none;stroke:midnightblue;" d="M160,-56C160,-49 160,-39 160,-30"/>
<polygon style="fill:midnightblue;stroke:midnightblue;" points="163.5,-30 160,-20 156.5,-30 163.5,-30"/>
</g>
<!-- Node4 -->
<g id="node7" class="node"><title>Node4</title>
<polygon style="fill:white;stroke:#bfbfbf;" points="264,-0 264,-20 461,-20 461,-0 264,-0"/>
<text text-anchor="middle" x="362" y="-7" style="font-family:Arial;font-size:10.00;">boost/random/uniform_int_distribution.hpp</text>
</g>
<!-- Node1&#45;&gt;Node4 -->
<g id="edge6" class="edge"><title>Node1&#45;&gt;Node4</title>
<path style="fill:none;stroke:midnightblue;" d="M196,-56C230,-47 280,-33 316,-23"/>
<polygon style="fill:midnightblue;stroke:midnightblue;" points="317.427,-26.2259 326,-20 315.416,-19.5212 317.427,-26.2259"/>
</g>
</g>
</svg>
