<?xml version="1.0" encoding="UTF-8" standalone="no"?>
<!DOCTYPE svg PUBLIC "-//W3C//DTD SVG 1.0//EN"
 "http://www.w3.org/TR/2001/REC-SVG-20010904/DTD/svg10.dtd" [
 <!ATTLIST svg xmlns:xlink CDATA #FIXED "http://www.w3.org/1999/xlink">
]>
<!-- Generated by Graphviz version 2.20.2 (Tue Mar &#160;2 19:03:41 UTC 2010)
     For user: (jenkins)  -->
<!-- Title: G Pages: 1 -->
<svg width="1582pt" height="140pt"
 viewBox="0.00 0.00 1582.00 140.00" xmlns="http://www.w3.org/2000/svg" xmlns:xlink="http://www.w3.org/1999/xlink">
<g id="graph0" class="graph" transform="scale(1 1) rotate(0) translate(4 136)">
<title>G</title>
<polygon style="fill:white;stroke:white;" points="-4,4 -4,-136 1578,-136 1578,4 -4,4"/>
<!-- Node1 -->
<g id="node1" class="node"><title>Node1</title>
<polygon style="fill:#bfbfbf;stroke:black;" points="709,-112 709,-132 886,-132 886,-112 709,-112"/>
<text text-anchor="middle" x="797" y="-119" style="font-family:Arial;font-size:10.00;">ltr/utility/random_number_generator.h</text>
</g>
<!-- Node2 -->
<g id="node3" class="node"><title>Node2</title>
<a xlink:href="tk__fold__simple__splitter_8h.html" target="_top" xlink:title="ltr/crossvalidation/tk_fold_simple_splitter.h">
<polygon style="fill:white;stroke:black;" points="22,-56 22,-76 220,-76 220,-56 22,-56"/>
<text text-anchor="middle" x="121" y="-63" style="font-family:Arial;font-size:10.00;">ltr/crossvalidation/tk_fold_simple_splitter.h</text>
</a>
</g>
<!-- Node1&#45;&gt;Node2 -->
<g id="edge2" class="edge"><title>Node1&#45;&gt;Node2</title>
<path style="fill:none;stroke:midnightblue;" d="M699,-114C585,-105 394,-90 229,-76 226,-76 223,-75 220,-75"/>
<polygon style="fill:midnightblue;stroke:midnightblue;" points="698.701,-117.488 709,-115 699.398,-110.522 698.701,-117.488"/>
</g>
<!-- Node4 -->
<g id="node7" class="node"><title>Node4</title>
<a xlink:href="data__set__unittest_8cc.html" target="_top" xlink:title="ltr/data/data_set_unittest.cc">
<polygon style="fill:white;stroke:black;" points="238,-56 238,-76 376,-76 376,-56 238,-56"/>
<text text-anchor="middle" x="307" y="-63" style="font-family:Arial;font-size:10.00;">ltr/data/data_set_unittest.cc</text>
</a>
</g>
<!-- Node1&#45;&gt;Node4 -->
<g id="edge6" class="edge"><title>Node1&#45;&gt;Node4</title>
<path style="fill:none;stroke:midnightblue;" d="M699,-111C615,-102 492,-88 385,-76 382,-76 379,-75 376,-75"/>
<polygon style="fill:midnightblue;stroke:midnightblue;" points="698.701,-114.488 709,-112 699.398,-107.522 698.701,-114.488"/>
</g>
<!-- Node5 -->
<g id="node9" class="node"><title>Node5</title>
<a xlink:href="save__predictions__unittest_8cc.html" target="_top" xlink:title="ltr/data/save_predictions_unittest.cc">
<polygon style="fill:white;stroke:black;" points="394,-56 394,-76 566,-76 566,-56 394,-56"/>
<text text-anchor="middle" x="480" y="-63" style="font-family:Arial;font-size:10.00;">ltr/data/save_predictions_unittest.cc</text>
</a>
</g>
<!-- Node1&#45;&gt;Node5 -->
<g id="edge8" class="edge"><title>Node1&#45;&gt;Node5</title>
<path style="fill:none;stroke:midnightblue;" d="M730,-110C673,-100 591,-85 536,-76"/>
<polygon style="fill:midnightblue;stroke:midnightblue;" points="729.508,-113.471 740,-112 730.881,-106.607 729.508,-113.471"/>
</g>
<!-- Node6 -->
<g id="node11" class="node"><title>Node6</title>
<a xlink:href="data__random__sampler_8h.html" target="_top" xlink:title="ltr/data_preprocessors/data_random_sampler.h">
<polygon style="fill:white;stroke:black;" points="584,-56 584,-76 803,-76 803,-56 584,-56"/>
<text text-anchor="middle" x="693" y="-63" style="font-family:Arial;font-size:10.00;">ltr/data_preprocessors/data_random_sampler.h</text>
</a>
</g>
<!-- Node1&#45;&gt;Node6 -->
<g id="edge10" class="edge"><title>Node1&#45;&gt;Node6</title>
<path style="fill:none;stroke:midnightblue;" d="M769,-107C751,-97 727,-85 712,-76"/>
<polygon style="fill:midnightblue;stroke:midnightblue;" points="767.559,-110.203 778,-112 770.958,-104.084 767.559,-110.203"/>
</g>
<!-- Node10 -->
<g id="node19" class="node"><title>Node10</title>
<a xlink:href="io__utility__unittest_8cc.html" target="_top" xlink:title="ltr/data/utility/io_utility_unittest.cc">
<polygon style="fill:white;stroke:black;" points="820,-56 820,-76 982,-76 982,-56 820,-56"/>
<text text-anchor="middle" x="901" y="-63" style="font-family:Arial;font-size:10.00;">ltr/data/utility/io_utility_unittest.cc</text>
</a>
</g>
<!-- Node1&#45;&gt;Node10 -->
<g id="edge18" class="edge"><title>Node1&#45;&gt;Node10</title>
<path style="fill:none;stroke:midnightblue;" d="M825,-107C843,-97 867,-85 882,-76"/>
<polygon style="fill:midnightblue;stroke:midnightblue;" points="823.042,-104.084 816,-112 826.441,-110.203 823.042,-104.084"/>
</g>
<!-- Node11 -->
<g id="node21" class="node"><title>Node11</title>
<a xlink:href="feature__random__sampler__learner_8h.html" target="_top" xlink:title="ltr/feature_converters/feature_random_sampler_learner.h">
<polygon style="fill:white;stroke:black;" points="1000,-56 1000,-76 1258,-76 1258,-56 1000,-56"/>
<text text-anchor="middle" x="1129" y="-63" style="font-family:Arial;font-size:10.00;">ltr/feature_converters/feature_random_sampler_learner.h</text>
</a>
</g>
<!-- Node1&#45;&gt;Node11 -->
<g id="edge20" class="edge"><title>Node1&#45;&gt;Node11</title>
<path style="fill:none;stroke:midnightblue;" d="M866,-110C927,-100 1013,-85 1070,-76"/>
<polygon style="fill:midnightblue;stroke:midnightblue;" points="865.119,-106.607 856,-112 866.492,-113.471 865.119,-106.607"/>
</g>
<!-- Node14 -->
<g id="node28" class="node"><title>Node14</title>
<a xlink:href="indices_8cc.html" target="_top" xlink:title="ltr/utility/indices.cc">
<polygon style="fill:white;stroke:black;" points="1276,-56 1276,-76 1374,-76 1374,-56 1276,-56"/>
<text text-anchor="middle" x="1325" y="-63" style="font-family:Arial;font-size:10.00;">ltr/utility/indices.cc</text>
</a>
</g>
<!-- Node1&#45;&gt;Node14 -->
<g id="edge28" class="edge"><title>Node1&#45;&gt;Node14</title>
<path style="fill:none;stroke:midnightblue;" d="M896,-114C992,-107 1139,-93 1267,-76 1270,-76 1273,-75 1276,-75"/>
<polygon style="fill:midnightblue;stroke:midnightblue;" points="895.602,-110.522 886,-115 896.299,-117.488 895.602,-110.522"/>
</g>
<!-- Node15 -->
<g id="node30" class="node"><title>Node15</title>
<a xlink:href="random__number__generator_8cc.html" target="_top" xlink:title="ltr/utility/random_number_generator.cc">
<polygon style="fill:white;stroke:black;" points="1392,-56 1392,-76 1574,-76 1574,-56 1392,-56"/>
<text text-anchor="middle" x="1483" y="-63" style="font-family:Arial;font-size:10.00;">ltr/utility/random_number_generator.cc</text>
</a>
</g>
<!-- Node1&#45;&gt;Node15 -->
<g id="edge30" class="edge"><title>Node1&#45;&gt;Node15</title>
<path style="fill:none;stroke:midnightblue;" d="M896,-115C1013,-106 1212,-92 1383,-76 1386,-76 1389,-75 1392,-75"/>
<polygon style="fill:midnightblue;stroke:midnightblue;" points="895.602,-111.522 886,-116 896.299,-118.488 895.602,-111.522"/>
</g>
<!-- Node3 -->
<g id="node5" class="node"><title>Node3</title>
<a xlink:href="tk__fold__simple__splitter__unittest_8cc.html" target="_top" xlink:title="ltr/crossvalidation/tk_fold_simple_splitter_unittest.cc">
<polygon style="fill:white;stroke:black;" points="0,-0 0,-20 242,-20 242,-0 0,-0"/>
<text text-anchor="middle" x="121" y="-7" style="font-family:Arial;font-size:10.00;">ltr/crossvalidation/tk_fold_simple_splitter_unittest.cc</text>
</a>
</g>
<!-- Node2&#45;&gt;Node3 -->
<g id="edge4" class="edge"><title>Node2&#45;&gt;Node3</title>
<path style="fill:none;stroke:midnightblue;" d="M121,-46C121,-37 121,-28 121,-20"/>
<polygon style="fill:midnightblue;stroke:midnightblue;" points="117.5,-46 121,-56 124.5,-46 117.5,-46"/>
</g>
<!-- Node7 -->
<g id="node13" class="node"><title>Node7</title>
<a xlink:href="tostring__unittest_8cc.html" target="_top" xlink:title="ltr/data/tostring_unittest.cc">
<polygon style="fill:white;stroke:black;" points="343,-0 343,-20 475,-20 475,-0 343,-0"/>
<text text-anchor="middle" x="409" y="-7" style="font-family:Arial;font-size:10.00;">ltr/data/tostring_unittest.cc</text>
</a>
</g>
<!-- Node6&#45;&gt;Node7 -->
<g id="edge12" class="edge"><title>Node6&#45;&gt;Node7</title>
<path style="fill:none;stroke:midnightblue;" d="M632,-54C581,-44 509,-29 460,-20"/>
<polygon style="fill:midnightblue;stroke:midnightblue;" points="631.508,-57.4708 642,-56 632.881,-50.6067 631.508,-57.4708"/>
</g>
<!-- Node8 -->
<g id="node15" class="node"><title>Node8</title>
<a xlink:href="data__preprocessors__unittest_8cc.html" target="_top" xlink:title="ltr/data_preprocessors/data_preprocessors_unittest.cc">
<polygon style="fill:white;stroke:black;" points="493,-0 493,-20 745,-20 745,-0 493,-0"/>
<text text-anchor="middle" x="619" y="-7" style="font-family:Arial;font-size:10.00;">ltr/data_preprocessors/data_preprocessors_unittest.cc</text>
</a>
</g>
<!-- Node6&#45;&gt;Node8 -->
<g id="edge14" class="edge"><title>Node6&#45;&gt;Node8</title>
<path style="fill:none;stroke:midnightblue;" d="M672,-50C659,-41 644,-29 633,-20"/>
<polygon style="fill:midnightblue;stroke:midnightblue;" points="669.9,-52.8 680,-56 674.1,-47.2 669.9,-52.8"/>
</g>
<!-- Node9 -->
<g id="node17" class="node"><title>Node9</title>
<a xlink:href="linear__composition__unittest_8cc.html" target="_top" xlink:title="ltr/learners/composition_learner/linear_composition_unittest.cc">
<polygon style="fill:white;stroke:black;" points="763,-0 763,-20 1050,-20 1050,-0 763,-0"/>
<text text-anchor="middle" x="906" y="-7" style="font-family:Arial;font-size:10.00;">ltr/learners/composition_learner/linear_composition_unittest.cc</text>
</a>
</g>
<!-- Node6&#45;&gt;Node9 -->
<g id="edge16" class="edge"><title>Node6&#45;&gt;Node9</title>
<path style="fill:none;stroke:midnightblue;" d="M741,-53C779,-43 832,-29 868,-20"/>
<polygon style="fill:midnightblue;stroke:midnightblue;" points="739.573,-49.7741 731,-56 741.584,-56.4788 739.573,-49.7741"/>
</g>
<!-- Node11&#45;&gt;Node9 -->
<g id="edge24" class="edge"><title>Node11&#45;&gt;Node9</title>
<path style="fill:none;stroke:midnightblue;" d="M1079,-54C1039,-44 983,-29 946,-20"/>
<polygon style="fill:midnightblue;stroke:midnightblue;" points="1078.51,-57.4708 1089,-56 1079.88,-50.6067 1078.51,-57.4708"/>
</g>
<!-- Node12 -->
<g id="node23" class="node"><title>Node12</title>
<a xlink:href="feature__converters__learner__unittest_8cc.html" target="_top" xlink:title="ltr/feature_converters/feature_converters_learner_unittest.cc">
<polygon style="fill:white;stroke:black;" points="1067,-0 1067,-20 1340,-20 1340,-0 1067,-0"/>
<text text-anchor="middle" x="1203" y="-7" style="font-family:Arial;font-size:10.00;">ltr/feature_converters/feature_converters_learner_unittest.cc</text>
</a>
</g>
<!-- Node11&#45;&gt;Node12 -->
<g id="edge22" class="edge"><title>Node11&#45;&gt;Node12</title>
<path style="fill:none;stroke:midnightblue;" d="M1150,-50C1163,-41 1179,-29 1190,-20"/>
<polygon style="fill:midnightblue;stroke:midnightblue;" points="1147.9,-47.2 1142,-56 1152.1,-52.8 1147.9,-47.2"/>
</g>
<!-- Node13 -->
<g id="node26" class="node"><title>Node13</title>
<a xlink:href="generator_8cc.html" target="_top" xlink:title="ltr/serialization_test/generator/generator.cc">
<polygon style="fill:white;stroke:black;" points="1357,-0 1357,-20 1558,-20 1558,-0 1357,-0"/>
<text text-anchor="middle" x="1457" y="-7" style="font-family:Arial;font-size:10.00;">ltr/serialization_test/generator/generator.cc</text>
</a>
</g>
<!-- Node11&#45;&gt;Node13 -->
<g id="edge26" class="edge"><title>Node11&#45;&gt;Node13</title>
<path style="fill:none;stroke:midnightblue;" d="M1198,-54C1257,-44 1342,-29 1399,-20"/>
<polygon style="fill:midnightblue;stroke:midnightblue;" points="1197.12,-50.6067 1188,-56 1198.49,-57.4708 1197.12,-50.6067"/>
</g>
</g>
</svg>
