<?xml version="1.0" encoding="UTF-8" standalone="no"?>
<!DOCTYPE svg PUBLIC "-//W3C//DTD SVG 1.0//EN"
 "http://www.w3.org/TR/2001/REC-SVG-20010904/DTD/svg10.dtd" [
 <!ATTLIST svg xmlns:xlink CDATA #FIXED "http://www.w3.org/1999/xlink">
]>
<!-- Generated by Graphviz version 2.20.2 (Tue Mar &#160;2 19:03:41 UTC 2010)
     For user: (jenkins)  -->
<!-- Title: G Pages: 1 -->
<svg width="428pt" height="140pt"
 viewBox="0.00 0.00 428.00 140.00" xmlns="http://www.w3.org/2000/svg" xmlns:xlink="http://www.w3.org/1999/xlink">
<g id="graph0" class="graph" transform="scale(1 1) rotate(0) translate(4 136)">
<title>G</title>
<polygon style="fill:white;stroke:white;" points="-4,4 -4,-136 424,-136 424,4 -4,4"/>
<!-- Node1 -->
<g id="node1" class="node"><title>Node1</title>
<polygon style="fill:#bfbfbf;stroke:black;" points="137,-112 137,-132 314,-132 314,-112 137,-112"/>
<text text-anchor="middle" x="225" y="-119" style="font-family:Arial;font-size:10.00;">ltr/utility/random_number_generator.h</text>
</g>
<!-- Node2 -->
<g id="node3" class="node"><title>Node2</title>
<a xlink:href="tk__fold__simple__splitter_8h.html" target="_top" xlink:title="ltr/crossvalidation/tk_fold_simple_splitter.h">
<polygon style="fill:white;stroke:black;" points="22,-56 22,-76 220,-76 220,-56 22,-56"/>
<text text-anchor="middle" x="121" y="-63" style="font-family:Arial;font-size:10.00;">ltr/crossvalidation/tk_fold_simple_splitter.h</text>
</a>
</g>
<!-- Node1&#45;&gt;Node2 -->
<g id="edge2" class="edge"><title>Node1&#45;&gt;Node2</title>
<path style="fill:none;stroke:midnightblue;" d="M197,-107C179,-97 155,-85 140,-76"/>
<polygon style="fill:midnightblue;stroke:midnightblue;" points="195.559,-110.203 206,-112 198.958,-104.084 195.559,-110.203"/>
</g>
<!-- Node4 -->
<g id="node7" class="node"><title>Node4</title>
<a xlink:href="random__number__generator_8cc.html" target="_top" xlink:title="ltr/utility/random_number_generator.cc">
<polygon style="fill:white;stroke:black;" points="238,-56 238,-76 420,-76 420,-56 238,-56"/>
<text text-anchor="middle" x="329" y="-63" style="font-family:Arial;font-size:10.00;">ltr/utility/random_number_generator.cc</text>
</a>
</g>
<!-- Node1&#45;&gt;Node4 -->
<g id="edge6" class="edge"><title>Node1&#45;&gt;Node4</title>
<path style="fill:none;stroke:midnightblue;" d="M253,-107C271,-97 295,-85 310,-76"/>
<polygon style="fill:midnightblue;stroke:midnightblue;" points="251.042,-104.084 244,-112 254.441,-110.203 251.042,-104.084"/>
</g>
<!-- Node3 -->
<g id="node5" class="node"><title>Node3</title>
<a xlink:href="tk__fold__simple__splitter__unittest_8cc.html" target="_top" xlink:title="ltr/crossvalidation/tk_fold_simple_splitter_unittest.cc">
<polygon style="fill:white;stroke:black;" points="0,-0 0,-20 242,-20 242,-0 0,-0"/>
<text text-anchor="middle" x="121" y="-7" style="font-family:Arial;font-size:10.00;">ltr/crossvalidation/tk_fold_simple_splitter_unittest.cc</text>
</a>
</g>
<!-- Node2&#45;&gt;Node3 -->
<g id="edge4" class="edge"><title>Node2&#45;&gt;Node3</title>
<path style="fill:none;stroke:midnightblue;" d="M121,-46C121,-37 121,-28 121,-20"/>
<polygon style="fill:midnightblue;stroke:midnightblue;" points="117.5,-46 121,-56 124.5,-46 117.5,-46"/>
</g>
</g>
</svg>
