<?xml version="1.0" encoding="UTF-8" standalone="no"?>
<!DOCTYPE svg PUBLIC "-//W3C//DTD SVG 1.0//EN"
 "http://www.w3.org/TR/2001/REC-SVG-20010904/DTD/svg10.dtd" [
 <!ATTLIST svg xmlns:xlink CDATA #FIXED "http://www.w3.org/1999/xlink">
]>
<!-- Generated by Graphviz version 2.20.2 (Tue Mar &#160;2 19:03:41 UTC 2010)
     For user: (jenkins)  -->
<!-- Title: G Pages: 1 -->
<svg width="690pt" height="84pt"
 viewBox="0.00 0.00 690.00 84.00" xmlns="http://www.w3.org/2000/svg" xmlns:xlink="http://www.w3.org/1999/xlink">
<g id="graph0" class="graph" transform="scale(1 1) rotate(0) translate(4 80)">
<title>G</title>
<polygon style="fill:white;stroke:white;" points="-4,4 -4,-80 686,-80 686,4 -4,4"/>
<!-- Node1 -->
<g id="node1" class="node"><title>Node1</title>
<polygon style="fill:#bfbfbf;stroke:black;" points="195,-56 195,-76 348,-76 348,-56 195,-56"/>
<text text-anchor="middle" x="271" y="-63" style="font-family:Arial;font-size:10.00;">ltr/measures/reciprocal_rank.cc</text>
</g>
<!-- Node2 -->
<g id="node3" class="node"><title>Node2</title>
<polygon style="fill:white;stroke:#bfbfbf;" points="0,-0 0,-20 114,-20 114,-0 0,-0"/>
<text text-anchor="middle" x="57" y="-7" style="font-family:Arial;font-size:10.00;">boost/lexical_cast.hpp</text>
</g>
<!-- Node1&#45;&gt;Node2 -->
<g id="edge2" class="edge"><title>Node1&#45;&gt;Node2</title>
<path style="fill:none;stroke:midnightblue;" d="M233,-56C197,-47 144,-33 105,-23"/>
<polygon style="fill:midnightblue;stroke:midnightblue;" points="105.584,-19.5212 95,-20 103.573,-26.2259 105.584,-19.5212"/>
</g>
<!-- Node3 -->
<g id="node5" class="node"><title>Node3</title>
<polygon style="fill:white;stroke:#bfbfbf;" points="132,-0 132,-20 188,-20 188,-0 132,-0"/>
<text text-anchor="middle" x="160" y="-7" style="font-family:Arial;font-size:10.00;">algorithm</text>
</g>
<!-- Node1&#45;&gt;Node3 -->
<g id="edge4" class="edge"><title>Node1&#45;&gt;Node3</title>
<path style="fill:none;stroke:midnightblue;" d="M251,-56C234,-47 209,-34 189,-25"/>
<polygon style="fill:midnightblue;stroke:midnightblue;" points="190.441,-21.7969 180,-20 187.042,-27.916 190.441,-21.7969"/>
</g>
<!-- Node4 -->
<g id="node7" class="node"><title>Node4</title>
<polygon style="fill:white;stroke:#bfbfbf;" points="206,-0 206,-20 265,-20 265,-0 206,-0"/>
<text text-anchor="middle" x="235" y="-7" style="font-family:Arial;font-size:10.00;">stdexcept</text>
</g>
<!-- Node1&#45;&gt;Node4 -->
<g id="edge6" class="edge"><title>Node1&#45;&gt;Node4</title>
<path style="fill:none;stroke:midnightblue;" d="M265,-56C260,-49 253,-38 247,-29"/>
<polygon style="fill:midnightblue;stroke:midnightblue;" points="249.916,-27.0418 242,-20 243.797,-30.4414 249.916,-27.0418"/>
</g>
<!-- Node5 -->
<g id="node9" class="node"><title>Node5</title>
<polygon style="fill:white;stroke:#bfbfbf;" points="282,-0 282,-20 333,-20 333,-0 282,-0"/>
<text text-anchor="middle" x="307" y="-7" style="font-family:Arial;font-size:10.00;">sstream</text>
</g>
<!-- Node1&#45;&gt;Node5 -->
<g id="edge8" class="edge"><title>Node1&#45;&gt;Node5</title>
<path style="fill:none;stroke:midnightblue;" d="M277,-56C282,-49 289,-38 295,-29"/>
<polygon style="fill:midnightblue;stroke:midnightblue;" points="298.203,-30.4414 300,-20 292.084,-27.0418 298.203,-30.4414"/>
</g>
<!-- Node6 -->
<g id="node11" class="node"><title>Node6</title>
<polygon style="fill:white;stroke:#bfbfbf;" points="350,-0 350,-20 497,-20 497,-0 350,-0"/>
<text text-anchor="middle" x="423" y="-7" style="font-family:Arial;font-size:10.00;">ltr/measures/reciprocal_rank.h</text>
</g>
<!-- Node1&#45;&gt;Node6 -->
<g id="edge10" class="edge"><title>Node1&#45;&gt;Node6</title>
<path style="fill:none;stroke:midnightblue;" d="M298,-56C323,-47 359,-33 386,-23"/>
<polygon style="fill:midnightblue;stroke:midnightblue;" points="387.427,-26.2259 396,-20 385.416,-19.5212 387.427,-26.2259"/>
</g>
<!-- Node7 -->
<g id="node13" class="node"><title>Node7</title>
<polygon style="fill:white;stroke:#bfbfbf;" points="514,-0 514,-20 682,-20 682,-0 514,-0"/>
<text text-anchor="middle" x="598" y="-7" style="font-family:Arial;font-size:10.00;">ltr/measures/utils/measure_utility.h</text>
</g>
<!-- Node1&#45;&gt;Node7 -->
<g id="edge12" class="edge"><title>Node1&#45;&gt;Node7</title>
<path style="fill:none;stroke:midnightblue;" d="M329,-56C386,-47 471,-32 530,-22"/>
<polygon style="fill:midnightblue;stroke:midnightblue;" points="530.881,-25.3933 540,-20 529.508,-18.5292 530.881,-25.3933"/>
</g>
</g>
</svg>
