<?xml version="1.0" encoding="UTF-8" standalone="no"?>
<!DOCTYPE svg PUBLIC "-//W3C//DTD SVG 1.0//EN"
 "http://www.w3.org/TR/2001/REC-SVG-20010904/DTD/svg10.dtd" [
 <!ATTLIST svg xmlns:xlink CDATA #FIXED "http://www.w3.org/1999/xlink">
]>
<!-- Generated by Graphviz version 2.20.2 (Tue Mar &#160;2 19:03:41 UTC 2010)
     For user: (jenkins)  -->
<!-- Title: G Pages: 1 -->
<svg width="1692pt" height="476pt"
 viewBox="0.00 0.00 1692.00 476.00" xmlns="http://www.w3.org/2000/svg" xmlns:xlink="http://www.w3.org/1999/xlink">
<g id="graph0" class="graph" transform="scale(1 1) rotate(0) translate(4 472)">
<title>G</title>
<polygon style="fill:white;stroke:white;" points="-4,4 -4,-472 1688,-472 1688,4 -4,4"/>
<!-- Node1 -->
<g id="node1" class="node"><title>Node1</title>
<polygon style="fill:#bfbfbf;stroke:black;" points="214,-448 214,-468 367,-468 367,-448 214,-448"/>
<text text-anchor="middle" x="290" y="-455" style="font-family:Arial;font-size:10.00;">ltr/measures/reciprocal_rank.cc</text>
</g>
<!-- Node2 -->
<g id="node3" class="node"><title>Node2</title>
<polygon style="fill:white;stroke:#bfbfbf;" points="66,-280 66,-300 180,-300 180,-280 66,-280"/>
<text text-anchor="middle" x="123" y="-287" style="font-family:Arial;font-size:10.00;">boost/lexical_cast.hpp</text>
</g>
<!-- Node1&#45;&gt;Node2 -->
<g id="edge2" class="edge"><title>Node1&#45;&gt;Node2</title>
<path style="fill:none;stroke:midnightblue;" d="M280,-448C252,-420 175,-342 140,-307"/>
<polygon style="fill:midnightblue;stroke:midnightblue;" points="142.546,-304.596 133,-300 137.596,-309.546 142.546,-304.596"/>
</g>
<!-- Node3 -->
<g id="node5" class="node"><title>Node3</title>
<polygon style="fill:white;stroke:#bfbfbf;" points="142,-0 142,-20 198,-20 198,-0 142,-0"/>
<text text-anchor="middle" x="170" y="-7" style="font-family:Arial;font-size:10.00;">algorithm</text>
</g>
<!-- Node1&#45;&gt;Node3 -->
<g id="edge4" class="edge"><title>Node1&#45;&gt;Node3</title>
<path style="fill:none;stroke:midnightblue;" d="M233,-448C149,-431 0,-395 0,-346 0,-346 0,-346 0,-122 0,-58 82,-29 132,-17"/>
<polygon style="fill:midnightblue;stroke:midnightblue;" points="132.881,-20.3933 142,-15 131.508,-13.5292 132.881,-20.3933"/>
</g>
<!-- Node4 -->
<g id="node7" class="node"><title>Node4</title>
<polygon style="fill:white;stroke:#bfbfbf;" points="728,-56 728,-76 787,-76 787,-56 728,-56"/>
<text text-anchor="middle" x="757" y="-63" style="font-family:Arial;font-size:10.00;">stdexcept</text>
</g>
<!-- Node1&#45;&gt;Node4 -->
<g id="edge6" class="edge"><title>Node1&#45;&gt;Node4</title>
<path style="fill:none;stroke:midnightblue;" d="M254,-448C174,-424 -4,-361 57,-280 203,-86 360,-228 583,-132 598,-125 600,-119 616,-112 633,-104 682,-88 718,-78"/>
<polygon style="fill:midnightblue;stroke:midnightblue;" points="719.427,-81.2259 728,-75 717.416,-74.5212 719.427,-81.2259"/>
</g>
<!-- Node5 -->
<g id="node9" class="node"><title>Node5</title>
<polygon style="fill:white;stroke:#bfbfbf;" points="1606,-224 1606,-244 1657,-244 1657,-224 1606,-224"/>
<text text-anchor="middle" x="1631" y="-231" style="font-family:Arial;font-size:10.00;">sstream</text>
</g>
<!-- Node1&#45;&gt;Node5 -->
<g id="edge8" class="edge"><title>Node1&#45;&gt;Node5</title>
<path style="fill:none;stroke:midnightblue;" d="M367,-456C594,-451 1252,-428 1454,-356 1519,-332 1583,-278 1613,-251"/>
<polygon style="fill:midnightblue;stroke:midnightblue;" points="1615.4,-253.546 1620,-244 1610.45,-248.596 1615.4,-253.546"/>
</g>
<!-- Node6 -->
<g id="node11" class="node"><title>Node6</title>
<a xlink:href="reciprocal__rank_8h.html" target="_top" xlink:title="ltr/measures/reciprocal_rank.h">
<polygon style="fill:white;stroke:black;" points="301,-392 301,-412 448,-412 448,-392 301,-392"/>
<text text-anchor="middle" x="374" y="-399" style="font-family:Arial;font-size:10.00;">ltr/measures/reciprocal_rank.h</text>
</a>
</g>
<!-- Node1&#45;&gt;Node6 -->
<g id="edge10" class="edge"><title>Node1&#45;&gt;Node6</title>
<path style="fill:none;stroke:midnightblue;" d="M305,-448C317,-440 335,-427 350,-418"/>
<polygon style="fill:midnightblue;stroke:midnightblue;" points="352.621,-420.459 359,-412 348.738,-414.635 352.621,-420.459"/>
</g>
<!-- Node32 -->
<g id="node114" class="node"><title>Node32</title>
<a xlink:href="measure__utility_8h.html" target="_top" xlink:title="ltr/measures/utils/measure_utility.h">
<polygon style="fill:white;stroke:black;" points="1277,-336 1277,-356 1445,-356 1445,-336 1277,-336"/>
<text text-anchor="middle" x="1361" y="-343" style="font-family:Arial;font-size:10.00;">ltr/measures/utils/measure_utility.h</text>
</a>
</g>
<!-- Node1&#45;&gt;Node32 -->
<g id="edge164" class="edge"><title>Node1&#45;&gt;Node32</title>
<path style="fill:none;stroke:midnightblue;" d="M367,-450C559,-429 1058,-378 1267,-356"/>
<polygon style="fill:midnightblue;stroke:midnightblue;" points="1267.4,-359.478 1277,-355 1266.7,-352.512 1267.4,-359.478"/>
</g>
<!-- Node7 -->
<g id="node13" class="node"><title>Node7</title>
<polygon style="fill:white;stroke:#bfbfbf;" points="848,-0 848,-20 888,-20 888,-0 848,-0"/>
<text text-anchor="middle" x="868" y="-7" style="font-family:Arial;font-size:10.00;">string</text>
</g>
<!-- Node6&#45;&gt;Node7 -->
<g id="edge12" class="edge"><title>Node6&#45;&gt;Node7</title>
<path style="fill:none;stroke:midnightblue;" d="M359,-392C318,-363 208,-278 208,-178 208,-178 208,-178 208,-122 208,-82 231,-73 266,-56 317,-30 722,-15 838,-11"/>
<polygon style="fill:midnightblue;stroke:midnightblue;" points="838,-14.5001 848,-11 838,-7.5001 838,-14.5001"/>
</g>
<!-- Node8 -->
<g id="node15" class="node"><title>Node8</title>
<a xlink:href="measure_8h.html" target="_top" xlink:title="ltr/measures/measure.h">
<polygon style="fill:white;stroke:black;" points="461,-336 461,-356 580,-356 580,-336 461,-336"/>
<text text-anchor="middle" x="520" y="-343" style="font-family:Arial;font-size:10.00;">ltr/measures/measure.h</text>
</a>
</g>
<!-- Node6&#45;&gt;Node8 -->
<g id="edge14" class="edge"><title>Node6&#45;&gt;Node8</title>
<path style="fill:none;stroke:midnightblue;" d="M400,-392C423,-383 458,-370 484,-360"/>
<polygon style="fill:midnightblue;stroke:midnightblue;" points="486.015,-362.964 494,-356 483.415,-356.464 486.015,-362.964"/>
</g>
<!-- Node18 -->
<g id="node44" class="node"><title>Node18</title>
<a xlink:href="object__list_8h.html" target="_top" xlink:title="ltr/data/object_list.h">
<polygon style="fill:white;stroke:black;" points="1162,-168 1162,-188 1264,-188 1264,-168 1162,-168"/>
<text text-anchor="middle" x="1213" y="-175" style="font-family:Arial;font-size:10.00;">ltr/data/object_list.h</text>
</a>
</g>
<!-- Node6&#45;&gt;Node18 -->
<g id="edge162" class="edge"><title>Node6&#45;&gt;Node18</title>
<path style="fill:none;stroke:midnightblue;" d="M448,-401C622,-397 1052,-380 1168,-300 1201,-276 1210,-226 1212,-198"/>
<polygon style="fill:midnightblue;stroke:midnightblue;" points="1215.49,-198.299 1213,-188 1208.52,-197.602 1215.49,-198.299"/>
</g>
<!-- Node8&#45;&gt;Node2 -->
<g id="edge18" class="edge"><title>Node8&#45;&gt;Node2</title>
<path style="fill:none;stroke:midnightblue;" d="M461,-338C388,-327 266,-311 190,-299"/>
<polygon style="fill:midnightblue;stroke:midnightblue;" points="190.299,-295.512 180,-298 189.602,-302.478 190.299,-295.512"/>
</g>
<!-- Node8&#45;&gt;Node3 -->
<g id="edge20" class="edge"><title>Node8&#45;&gt;Node3</title>
<path style="fill:none;stroke:midnightblue;" d="M481,-336C389,-312 170,-246 170,-178 170,-178 170,-178 170,-122 170,-89 170,-53 170,-30"/>
<polygon style="fill:midnightblue;stroke:midnightblue;" points="173.5,-30 170,-20 166.5,-30 173.5,-30"/>
</g>
<!-- Node8&#45;&gt;Node4 -->
<g id="edge22" class="edge"><title>Node8&#45;&gt;Node4</title>
<path style="fill:none;stroke:midnightblue;" d="M515,-336C511,-327 505,-313 503,-300 499,-279 505,-228 508,-224 548,-151 587,-154 659,-112 680,-100 703,-89 723,-80"/>
<polygon style="fill:midnightblue;stroke:midnightblue;" points="724.283,-83.2598 732,-76 721.44,-76.8631 724.283,-83.2598"/>
</g>
<!-- Node8&#45;&gt;Node7 -->
<g id="edge24" class="edge"><title>Node8&#45;&gt;Node7</title>
<path style="fill:none;stroke:midnightblue;" d="M485,-336C462,-328 434,-316 412,-300 315,-225 205,-145 288,-56 306,-36 721,-16 838,-11"/>
<polygon style="fill:midnightblue;stroke:midnightblue;" points="838,-14.5001 848,-11 838,-7.5001 838,-14.5001"/>
</g>
<!-- Node9 -->
<g id="node17" class="node"><title>Node9</title>
<polygon style="fill:white;stroke:#bfbfbf;" points="312,-56 312,-76 386,-76 386,-56 312,-56"/>
<text text-anchor="middle" x="349" y="-63" style="font-family:Arial;font-size:10.00;">logog/logog.h</text>
</g>
<!-- Node8&#45;&gt;Node9 -->
<g id="edge16" class="edge"><title>Node8&#45;&gt;Node9</title>
<path style="fill:none;stroke:midnightblue;" d="M494,-336C476,-328 452,-316 436,-300 374,-239 362,-214 341,-132 337,-117 339,-99 342,-86"/>
<polygon style="fill:midnightblue;stroke:midnightblue;" points="345.479,-86.584 345,-76 338.774,-84.5725 345.479,-86.584"/>
</g>
<!-- Node10 -->
<g id="node23" class="node"><title>Node10</title>
<a xlink:href="object_8h.html" target="_top" xlink:title="ltr/data/object.h">
<polygon style="fill:white;stroke:black;" points="1162,-112 1162,-132 1246,-132 1246,-112 1162,-112"/>
<text text-anchor="middle" x="1204" y="-119" style="font-family:Arial;font-size:10.00;">ltr/data/object.h</text>
</a>
</g>
<!-- Node8&#45;&gt;Node10 -->
<g id="edge26" class="edge"><title>Node8&#45;&gt;Node10</title>
<path style="fill:none;stroke:midnightblue;" d="M580,-343C714,-334 1033,-308 1116,-244 1145,-220 1130,-198 1153,-168 1161,-157 1172,-147 1182,-138"/>
<polygon style="fill:midnightblue;stroke:midnightblue;" points="1184.1,-140.8 1190,-132 1179.9,-135.2 1184.1,-140.8"/>
</g>
<!-- Node14 -->
<g id="node33" class="node"><title>Node14</title>
<a xlink:href="printable_8h.html" target="_top" xlink:title="ltr/interfaces/printable.h">
<polygon style="fill:white;stroke:black;" points="896,-56 896,-76 1013,-76 1013,-56 896,-56"/>
<text text-anchor="middle" x="954" y="-63" style="font-family:Arial;font-size:10.00;">ltr/interfaces/printable.h</text>
</a>
</g>
<!-- Node8&#45;&gt;Node14 -->
<g id="edge148" class="edge"><title>Node8&#45;&gt;Node14</title>
<path style="fill:none;stroke:midnightblue;" d="M573,-336C610,-328 659,-316 701,-300 747,-281 760,-276 800,-244 860,-194 917,-119 941,-84"/>
<polygon style="fill:midnightblue;stroke:midnightblue;" points="943.8,-86.1 947,-76 938.2,-81.9 943.8,-86.1"/>
</g>
<!-- Node15 -->
<g id="node37" class="node"><title>Node15</title>
<a xlink:href="shared__ptr_8h.html" target="_top" xlink:title="ltr/utility/shared_ptr.h">
<polygon style="fill:white;stroke:black;" points="1030,-56 1030,-76 1137,-76 1137,-56 1030,-56"/>
<text text-anchor="middle" x="1083" y="-63" style="font-family:Arial;font-size:10.00;">ltr/utility/shared_ptr.h</text>
</a>
</g>
<!-- Node8&#45;&gt;Node15 -->
<g id="edge160" class="edge"><title>Node8&#45;&gt;Node15</title>
<path style="fill:none;stroke:midnightblue;" d="M520,-336C520,-312 523,-252 558,-224 646,-148 706,-220 818,-188 910,-161 1010,-107 1057,-81"/>
<polygon style="fill:midnightblue;stroke:midnightblue;" points="1058.96,-83.916 1066,-76 1055.56,-77.7969 1058.96,-83.916"/>
</g>
<!-- Node8&#45;&gt;Node18 -->
<g id="edge52" class="edge"><title>Node8&#45;&gt;Node18</title>
<path style="fill:none;stroke:midnightblue;" d="M580,-345C728,-342 1102,-330 1149,-300 1167,-287 1193,-229 1205,-197"/>
<polygon style="fill:midnightblue;stroke:midnightblue;" points="1208.14,-198.56 1209,-188 1201.74,-195.717 1208.14,-198.56"/>
</g>
<!-- Node19 -->
<g id="node52" class="node"><title>Node19</title>
<a xlink:href="object__pair_8h.html" target="_top" xlink:title="ltr/data/object_pair.h">
<polygon style="fill:white;stroke:black;" points="926,-168 926,-188 1030,-188 1030,-168 926,-168"/>
<text text-anchor="middle" x="978" y="-175" style="font-family:Arial;font-size:10.00;">ltr/data/object_pair.h</text>
</a>
</g>
<!-- Node8&#45;&gt;Node19 -->
<g id="edge66" class="edge"><title>Node8&#45;&gt;Node19</title>
<path style="fill:none;stroke:midnightblue;" d="M580,-341C658,-334 788,-319 833,-300 887,-275 938,-223 962,-196"/>
<polygon style="fill:midnightblue;stroke:midnightblue;" points="965.049,-197.831 969,-188 959.781,-193.221 965.049,-197.831"/>
</g>
<!-- Node20 -->
<g id="node60" class="node"><title>Node20</title>
<a xlink:href="data__set_8h.html" target="_top" xlink:title="ltr/data/data_set.h">
<polygon style="fill:white;stroke:black;" points="1239,-280 1239,-300 1334,-300 1334,-280 1239,-280"/>
<text text-anchor="middle" x="1286" y="-287" style="font-family:Arial;font-size:10.00;">ltr/data/data_set.h</text>
</a>
</g>
<!-- Node8&#45;&gt;Node20 -->
<g id="edge80" class="edge"><title>Node8&#45;&gt;Node20</title>
<path style="fill:none;stroke:midnightblue;" d="M580,-342C697,-335 963,-319 1187,-300 1201,-298 1215,-297 1229,-296"/>
<polygon style="fill:midnightblue;stroke:midnightblue;" points="1229.4,-299.478 1239,-295 1228.7,-292.512 1229.4,-299.478"/>
</g>
<!-- Node22 -->
<g id="node74" class="node"><title>Node22</title>
<a xlink:href="parameterized_8h.html" target="_top" xlink:title="ltr/interfaces/parameterized.h">
<polygon style="fill:white;stroke:black;" points="667,-168 667,-188 809,-188 809,-168 667,-168"/>
<text text-anchor="middle" x="738" y="-175" style="font-family:Arial;font-size:10.00;">ltr/interfaces/parameterized.h</text>
</a>
</g>
<!-- Node8&#45;&gt;Node22 -->
<g id="edge150" class="edge"><title>Node8&#45;&gt;Node22</title>
<path style="fill:none;stroke:midnightblue;" d="M517,-336C510,-313 498,-256 525,-224 542,-203 604,-191 657,-185"/>
<polygon style="fill:midnightblue;stroke:midnightblue;" points="657.398,-188.478 667,-184 656.701,-181.512 657.398,-188.478"/>
</g>
<!-- Node23 -->
<g id="node78" class="node"><title>Node23</title>
<a xlink:href="parameters__container_8h.html" target="_top" xlink:title="ltr/parameters_container/parameters_container.h">
<polygon style="fill:white;stroke:black;" points="350,-112 350,-132 575,-132 575,-112 350,-112"/>
<text text-anchor="middle" x="462" y="-119" style="font-family:Arial;font-size:10.00;">ltr/parameters_container/parameters_container.h</text>
</a>
</g>
<!-- Node8&#45;&gt;Node23 -->
<g id="edge152" class="edge"><title>Node8&#45;&gt;Node23</title>
<path style="fill:none;stroke:midnightblue;" d="M492,-336C476,-329 458,-317 449,-300 421,-249 441,-176 454,-142"/>
<polygon style="fill:midnightblue;stroke:midnightblue;" points="457.536,-142.585 458,-132 451.036,-139.985 457.536,-142.585"/>
</g>
<!-- Node28 -->
<g id="node99" class="node"><title>Node28</title>
<a xlink:href="aliaser_8h.html" target="_top" xlink:title="ltr/interfaces/aliaser.h">
<polygon style="fill:white;stroke:black;" points="683,-224 683,-244 791,-244 791,-224 683,-224"/>
<text text-anchor="middle" x="737" y="-231" style="font-family:Arial;font-size:10.00;">ltr/interfaces/aliaser.h</text>
</a>
</g>
<!-- Node8&#45;&gt;Node28 -->
<g id="edge146" class="edge"><title>Node8&#45;&gt;Node28</title>
<path style="fill:none;stroke:midnightblue;" d="M580,-337C612,-330 650,-319 680,-300 699,-288 715,-268 726,-253"/>
<polygon style="fill:midnightblue;stroke:midnightblue;" points="729.203,-254.441 731,-244 723.084,-251.042 729.203,-254.441"/>
</g>
<!-- Node29 -->
<g id="node106" class="node"><title>Node29</title>
<a xlink:href="numerical_8h.html" target="_top" xlink:title="ltr/utility/numerical.h">
<polygon style="fill:white;stroke:black;" points="567,-280 567,-300 671,-300 671,-280 567,-280"/>
<text text-anchor="middle" x="619" y="-287" style="font-family:Arial;font-size:10.00;">ltr/utility/numerical.h</text>
</a>
</g>
<!-- Node8&#45;&gt;Node29 -->
<g id="edge154" class="edge"><title>Node8&#45;&gt;Node29</title>
<path style="fill:none;stroke:midnightblue;" d="M538,-336C553,-328 575,-315 592,-305"/>
<polygon style="fill:midnightblue;stroke:midnightblue;" points="593.958,-307.916 601,-300 590.559,-301.797 593.958,-307.916"/>
</g>
<!-- Node10&#45;&gt;Node4 -->
<g id="edge32" class="edge"><title>Node10&#45;&gt;Node4</title>
<path style="fill:none;stroke:midnightblue;" d="M1162,-117C1077,-106 881,-82 797,-71"/>
<polygon style="fill:midnightblue;stroke:midnightblue;" points="797.299,-67.5125 787,-70 796.602,-74.4778 797.299,-67.5125"/>
</g>
<!-- Node10&#45;&gt;Node7 -->
<g id="edge34" class="edge"><title>Node10&#45;&gt;Node7</title>
<path style="fill:none;stroke:midnightblue;" d="M1198,-112C1189,-97 1169,-69 1145,-56 1143,-55 970,-27 898,-15"/>
<polygon style="fill:midnightblue;stroke:midnightblue;" points="898.492,-11.5292 888,-13 897.119,-18.3933 898.492,-11.5292"/>
</g>
<!-- Node11 -->
<g id="node25" class="node"><title>Node11</title>
<polygon style="fill:white;stroke:#bfbfbf;" points="1263,-56 1263,-76 1298,-76 1298,-56 1263,-56"/>
<text text-anchor="middle" x="1280" y="-63" style="font-family:Arial;font-size:10.00;">map</text>
</g>
<!-- Node10&#45;&gt;Node11 -->
<g id="edge28" class="edge"><title>Node10&#45;&gt;Node11</title>
<path style="fill:none;stroke:midnightblue;" d="M1218,-112C1229,-104 1245,-92 1258,-82"/>
<polygon style="fill:midnightblue;stroke:midnightblue;" points="1260.1,-84.8 1266,-76 1255.9,-79.2 1260.1,-84.8"/>
</g>
<!-- Node12 -->
<g id="node27" class="node"><title>Node12</title>
<polygon style="fill:white;stroke:#bfbfbf;" points="1146,-0 1146,-20 1197,-20 1197,-0 1146,-0"/>
<text text-anchor="middle" x="1171" y="-7" style="font-family:Arial;font-size:10.00;">ostream</text>
</g>
<!-- Node10&#45;&gt;Node12 -->
<g id="edge30" class="edge"><title>Node10&#45;&gt;Node12</title>
<path style="fill:none;stroke:midnightblue;" d="M1201,-112C1196,-93 1184,-54 1177,-30"/>
<polygon style="fill:midnightblue;stroke:midnightblue;" points="1180.23,-28.5725 1174,-20 1173.52,-30.584 1180.23,-28.5725"/>
</g>
<!-- Node13 -->
<g id="node31" class="node"><title>Node13</title>
<polygon style="fill:white;stroke:#bfbfbf;" points="1424,-56 1424,-76 1466,-76 1466,-56 1424,-56"/>
<text text-anchor="middle" x="1445" y="-63" style="font-family:Arial;font-size:10.00;">vector</text>
</g>
<!-- Node10&#45;&gt;Node13 -->
<g id="edge36" class="edge"><title>Node10&#45;&gt;Node13</title>
<path style="fill:none;stroke:midnightblue;" d="M1246,-112C1294,-101 1371,-83 1414,-73"/>
<polygon style="fill:midnightblue;stroke:midnightblue;" points="1414.88,-76.3933 1424,-71 1413.51,-69.5292 1414.88,-76.3933"/>
</g>
<!-- Node10&#45;&gt;Node14 -->
<g id="edge38" class="edge"><title>Node10&#45;&gt;Node14</title>
<path style="fill:none;stroke:midnightblue;" d="M1162,-113C1120,-104 1055,-89 1009,-78"/>
<polygon style="fill:midnightblue;stroke:midnightblue;" points="1009.49,-74.5292 999,-76 1008.12,-81.3933 1009.49,-74.5292"/>
</g>
<!-- Node10&#45;&gt;Node15 -->
<g id="edge44" class="edge"><title>Node10&#45;&gt;Node15</title>
<path style="fill:none;stroke:midnightblue;" d="M1182,-112C1164,-103 1136,-90 1114,-80"/>
<polygon style="fill:midnightblue;stroke:midnightblue;" points="1115.56,-76.8631 1105,-76 1112.72,-83.2598 1115.56,-76.8631"/>
</g>
<!-- Node14&#45;&gt;Node7 -->
<g id="edge42" class="edge"><title>Node14&#45;&gt;Node7</title>
<path style="fill:none;stroke:midnightblue;" d="M939,-56C926,-48 907,-35 892,-26"/>
<polygon style="fill:midnightblue;stroke:midnightblue;" points="894.1,-23.2 884,-20 889.9,-28.8 894.1,-23.2"/>
</g>
<!-- Node14&#45;&gt;Node12 -->
<g id="edge40" class="edge"><title>Node14&#45;&gt;Node12</title>
<path style="fill:none;stroke:midnightblue;" d="M996,-56C1031,-48 1083,-35 1136,-20"/>
<polygon style="fill:midnightblue;stroke:midnightblue;" points="1137.43,-23.2259 1146,-17 1135.42,-16.5212 1137.43,-23.2259"/>
</g>
<!-- Node15&#45;&gt;Node3 -->
<g id="edge46" class="edge"><title>Node15&#45;&gt;Node3</title>
<path style="fill:none;stroke:midnightblue;" d="M1030,-57C1027,-56 1024,-56 1021,-56 708,-22 329,-13 208,-10"/>
<polygon style="fill:midnightblue;stroke:midnightblue;" points="208,-6.5001 198,-10 208,-13.5001 208,-6.5001"/>
</g>
<!-- Node16 -->
<g id="node40" class="node"><title>Node16</title>
<polygon style="fill:white;stroke:#bfbfbf;" points="1214,-0 1214,-20 1321,-20 1321,-0 1214,-0"/>
<text text-anchor="middle" x="1267" y="-7" style="font-family:Arial;font-size:10.00;">boost/shared_ptr.hpp</text>
</g>
<!-- Node15&#45;&gt;Node16 -->
<g id="edge48" class="edge"><title>Node15&#45;&gt;Node16</title>
<path style="fill:none;stroke:midnightblue;" d="M1116,-56C1146,-47 1191,-33 1224,-23"/>
<polygon style="fill:midnightblue;stroke:midnightblue;" points="1225.43,-26.2259 1234,-20 1223.42,-19.5212 1225.43,-26.2259"/>
</g>
<!-- Node17 -->
<g id="node42" class="node"><title>Node17</title>
<polygon style="fill:white;stroke:#bfbfbf;" points="938,-0 938,-20 1129,-20 1129,-0 938,-0"/>
<text text-anchor="middle" x="1033" y="-7" style="font-family:Arial;font-size:10.00;">boost/smart_ptr/detail/operator_bool.hpp</text>
</g>
<!-- Node15&#45;&gt;Node17 -->
<g id="edge50" class="edge"><title>Node15&#45;&gt;Node17</title>
<path style="fill:none;stroke:midnightblue;" d="M1074,-56C1067,-48 1057,-37 1049,-28"/>
<polygon style="fill:midnightblue;stroke:midnightblue;" points="1051.22,-25.221 1042,-20 1045.95,-29.8306 1051.22,-25.221"/>
</g>
<!-- Node18&#45;&gt;Node4 -->
<g id="edge54" class="edge"><title>Node18&#45;&gt;Node4</title>
<path style="fill:none;stroke:midnightblue;" d="M1172,-168C1085,-146 883,-97 797,-75"/>
<polygon style="fill:midnightblue;stroke:midnightblue;" points="797.492,-71.5292 787,-73 796.119,-78.3933 797.492,-71.5292"/>
</g>
<!-- Node18&#45;&gt;Node7 -->
<g id="edge56" class="edge"><title>Node18&#45;&gt;Node7</title>
<path style="fill:none;stroke:midnightblue;" d="M1231,-168C1267,-146 1341,-95 1306,-56 1277,-24 970,-25 929,-20 919,-19 908,-17 898,-16"/>
<polygon style="fill:midnightblue;stroke:midnightblue;" points="898.492,-12.5292 888,-14 897.119,-19.3933 898.492,-12.5292"/>
</g>
<!-- Node18&#45;&gt;Node10 -->
<g id="edge60" class="edge"><title>Node18&#45;&gt;Node10</title>
<path style="fill:none;stroke:midnightblue;" d="M1211,-168C1210,-161 1209,-151 1207,-142"/>
<polygon style="fill:midnightblue;stroke:midnightblue;" points="1210.48,-141.602 1206,-132 1203.51,-142.299 1210.48,-141.602"/>
</g>
<!-- Node18&#45;&gt;Node13 -->
<g id="edge58" class="edge"><title>Node18&#45;&gt;Node13</title>
<path style="fill:none;stroke:midnightblue;" d="M1264,-170C1312,-161 1380,-147 1402,-132 1418,-120 1430,-100 1437,-85"/>
<polygon style="fill:midnightblue;stroke:midnightblue;" points="1440.14,-86.5596 1441,-76 1433.74,-83.7166 1440.14,-86.5596"/>
</g>
<!-- Node18&#45;&gt;Node14 -->
<g id="edge62" class="edge"><title>Node18&#45;&gt;Node14</title>
<path style="fill:none;stroke:midnightblue;" d="M1190,-168C1144,-147 1040,-103 987,-80"/>
<polygon style="fill:midnightblue;stroke:midnightblue;" points="988.56,-76.8631 978,-76 985.717,-83.2598 988.56,-76.8631"/>
</g>
<!-- Node18&#45;&gt;Node15 -->
<g id="edge64" class="edge"><title>Node18&#45;&gt;Node15</title>
<path style="fill:none;stroke:midnightblue;" d="M1199,-168C1187,-159 1168,-145 1153,-132 1135,-116 1114,-97 1100,-83"/>
<polygon style="fill:midnightblue;stroke:midnightblue;" points="1102.55,-80.5962 1093,-76 1097.6,-85.546 1102.55,-80.5962"/>
</g>
<!-- Node19&#45;&gt;Node4 -->
<g id="edge68" class="edge"><title>Node19&#45;&gt;Node4</title>
<path style="fill:none;stroke:midnightblue;" d="M945,-168C920,-160 884,-147 854,-132 825,-117 796,-96 777,-82"/>
<polygon style="fill:midnightblue;stroke:midnightblue;" points="779.1,-79.2 769,-76 774.9,-84.8 779.1,-79.2"/>
</g>
<!-- Node19&#45;&gt;Node7 -->
<g id="edge70" class="edge"><title>Node19&#45;&gt;Node7</title>
<path style="fill:none;stroke:midnightblue;" d="M966,-168C947,-151 908,-115 887,-76 879,-62 874,-44 871,-30"/>
<polygon style="fill:midnightblue;stroke:midnightblue;" points="874.393,-29.1194 869,-20 867.529,-30.4922 874.393,-29.1194"/>
</g>
<!-- Node19&#45;&gt;Node10 -->
<g id="edge74" class="edge"><title>Node19&#45;&gt;Node10</title>
<path style="fill:none;stroke:midnightblue;" d="M1018,-168C1056,-159 1113,-144 1153,-134"/>
<polygon style="fill:midnightblue;stroke:midnightblue;" points="1153.88,-137.393 1163,-132 1152.51,-130.529 1153.88,-137.393"/>
</g>
<!-- Node19&#45;&gt;Node13 -->
<g id="edge72" class="edge"><title>Node19&#45;&gt;Node13</title>
<path style="fill:none;stroke:midnightblue;" d="M1030,-172C1086,-165 1178,-151 1255,-132 1312,-116 1377,-92 1415,-78"/>
<polygon style="fill:midnightblue;stroke:midnightblue;" points="1416.28,-81.2598 1424,-74 1413.44,-74.8631 1416.28,-81.2598"/>
</g>
<!-- Node19&#45;&gt;Node14 -->
<g id="edge76" class="edge"><title>Node19&#45;&gt;Node14</title>
<path style="fill:none;stroke:midnightblue;" d="M976,-168C972,-149 964,-110 958,-86"/>
<polygon style="fill:midnightblue;stroke:midnightblue;" points="961.393,-85.1194 956,-76 954.529,-86.4922 961.393,-85.1194"/>
</g>
<!-- Node19&#45;&gt;Node15 -->
<g id="edge78" class="edge"><title>Node19&#45;&gt;Node15</title>
<path style="fill:none;stroke:midnightblue;" d="M988,-168C1006,-148 1044,-107 1066,-83"/>
<polygon style="fill:midnightblue;stroke:midnightblue;" points="1068.4,-85.546 1073,-76 1063.45,-80.5962 1068.4,-85.546"/>
</g>
<!-- Node20&#45;&gt;Node4 -->
<g id="edge84" class="edge"><title>Node20&#45;&gt;Node4</title>
<path style="fill:none;stroke:midnightblue;" d="M1239,-285C1172,-277 1047,-261 941,-244 925,-241 668,-200 658,-188 626,-150 690,-104 729,-81"/>
<polygon style="fill:midnightblue;stroke:midnightblue;" points="730.958,-83.916 738,-76 727.559,-77.7969 730.958,-83.916"/>
</g>
<!-- Node20&#45;&gt;Node5 -->
<g id="edge82" class="edge"><title>Node20&#45;&gt;Node5</title>
<path style="fill:none;stroke:midnightblue;" d="M1334,-284C1395,-277 1501,-262 1592,-244 1593,-244 1595,-243 1596,-243"/>
<polygon style="fill:midnightblue;stroke:midnightblue;" points="1596.88,-246.393 1606,-241 1595.51,-239.529 1596.88,-246.393"/>
</g>
<!-- Node20&#45;&gt;Node7 -->
<g id="edge86" class="edge"><title>Node20&#45;&gt;Node7</title>
<path style="fill:none;stroke:midnightblue;" d="M1334,-282C1417,-266 1578,-229 1578,-178 1578,-178 1578,-178 1578,-122 1578,-74 1538,-72 1494,-56 1376,-11 1054,-34 929,-20 919,-19 908,-17 898,-16"/>
<polygon style="fill:midnightblue;stroke:midnightblue;" points="898.492,-12.5292 888,-14 897.119,-19.3933 898.492,-12.5292"/>
</g>
<!-- Node20&#45;&gt;Node10 -->
<g id="edge90" class="edge"><title>Node20&#45;&gt;Node10</title>
<path style="fill:none;stroke:midnightblue;" d="M1288,-280C1291,-258 1295,-204 1273,-168 1265,-154 1251,-144 1238,-137"/>
<polygon style="fill:midnightblue;stroke:midnightblue;" points="1239.44,-133.797 1229,-132 1236.04,-139.916 1239.44,-133.797"/>
</g>
<!-- Node20&#45;&gt;Node13 -->
<g id="edge88" class="edge"><title>Node20&#45;&gt;Node13</title>
<path style="fill:none;stroke:midnightblue;" d="M1334,-284C1382,-277 1451,-264 1468,-244 1505,-196 1473,-121 1456,-85"/>
<polygon style="fill:midnightblue;stroke:midnightblue;" points="1458.92,-83.0418 1451,-76 1452.8,-86.4414 1458.92,-83.0418"/>
</g>
<!-- Node20&#45;&gt;Node18 -->
<g id="edge92" class="edge"><title>Node20&#45;&gt;Node18</title>
<path style="fill:none;stroke:midnightblue;" d="M1279,-280C1267,-261 1241,-221 1226,-197"/>
<polygon style="fill:midnightblue;stroke:midnightblue;" points="1228.46,-194.379 1220,-188 1222.63,-198.262 1228.46,-194.379"/>
</g>
<!-- Node20&#45;&gt;Node19 -->
<g id="edge94" class="edge"><title>Node20&#45;&gt;Node19</title>
<path style="fill:none;stroke:midnightblue;" d="M1239,-287C1151,-281 970,-265 952,-244 940,-230 950,-210 961,-196"/>
<polygon style="fill:midnightblue;stroke:midnightblue;" points="964.049,-197.831 968,-188 958.781,-193.221 964.049,-197.831"/>
</g>
<!-- Node21 -->
<g id="node69" class="node"><title>Node21</title>
<a xlink:href="feature__info_8h.html" target="_top" xlink:title="ltr/data/feature_info.h">
<polygon style="fill:white;stroke:black;" points="1353,-224 1353,-244 1460,-244 1460,-224 1353,-224"/>
<text text-anchor="middle" x="1406" y="-231" style="font-family:Arial;font-size:10.00;">ltr/data/feature_info.h</text>
</a>
</g>
<!-- Node20&#45;&gt;Node21 -->
<g id="edge96" class="edge"><title>Node20&#45;&gt;Node21</title>
<path style="fill:none;stroke:midnightblue;" d="M1307,-280C1326,-271 1353,-258 1375,-248"/>
<polygon style="fill:midnightblue;stroke:midnightblue;" points="1376.28,-251.26 1384,-244 1373.44,-244.863 1376.28,-251.26"/>
</g>
<!-- Node27 -->
<g id="node92" class="node"><title>Node27</title>
<a xlink:href="per__object__accessor_8h.html" target="_top" xlink:title="ltr/data/per_object_accessor.h">
<polygon style="fill:white;stroke:black;" points="961,-224 961,-244 1108,-244 1108,-224 961,-224"/>
<text text-anchor="middle" x="1034" y="-231" style="font-family:Arial;font-size:10.00;">ltr/data/per_object_accessor.h</text>
</a>
</g>
<!-- Node20&#45;&gt;Node27 -->
<g id="edge130" class="edge"><title>Node20&#45;&gt;Node27</title>
<path style="fill:none;stroke:midnightblue;" d="M1241,-280C1198,-271 1135,-256 1089,-246"/>
<polygon style="fill:midnightblue;stroke:midnightblue;" points="1089.49,-242.529 1079,-244 1088.12,-249.393 1089.49,-242.529"/>
</g>
<!-- Node20&#45;&gt;Node28 -->
<g id="edge142" class="edge"><title>Node20&#45;&gt;Node28</title>
<path style="fill:none;stroke:midnightblue;" d="M1239,-285C1141,-275 913,-252 801,-241"/>
<polygon style="fill:midnightblue;stroke:midnightblue;" points="801.299,-237.512 791,-240 800.602,-244.478 801.299,-237.512"/>
</g>
<!-- Node21&#45;&gt;Node7 -->
<g id="edge100" class="edge"><title>Node21&#45;&gt;Node7</title>
<path style="fill:none;stroke:midnightblue;" d="M1416,-224C1445,-194 1522,-106 1475,-56 1433,-11 989,-26 929,-20 919,-19 908,-17 898,-16"/>
<polygon style="fill:midnightblue;stroke:midnightblue;" points="898.492,-12.5292 888,-14 897.119,-19.3933 898.492,-12.5292"/>
</g>
<!-- Node21&#45;&gt;Node11 -->
<g id="edge98" class="edge"><title>Node21&#45;&gt;Node11</title>
<path style="fill:none;stroke:midnightblue;" d="M1398,-224C1378,-196 1321,-120 1294,-84"/>
<polygon style="fill:midnightblue;stroke:midnightblue;" points="1296.8,-81.9 1288,-76 1291.2,-86.1 1296.8,-81.9"/>
</g>
<!-- Node21&#45;&gt;Node13 -->
<g id="edge102" class="edge"><title>Node21&#45;&gt;Node13</title>
<path style="fill:none;stroke:midnightblue;" d="M1408,-224C1414,-197 1432,-122 1441,-86"/>
<polygon style="fill:midnightblue;stroke:midnightblue;" points="1444.47,-86.4922 1443,-76 1437.61,-85.1194 1444.47,-86.4922"/>
</g>
<!-- Node21&#45;&gt;Node15 -->
<g id="edge128" class="edge"><title>Node21&#45;&gt;Node15</title>
<path style="fill:none;stroke:midnightblue;" d="M1395,-224C1365,-198 1286,-127 1255,-112 1221,-95 1181,-83 1147,-76"/>
<polygon style="fill:midnightblue;stroke:midnightblue;" points="1147.49,-72.5292 1137,-74 1146.12,-79.3933 1147.49,-72.5292"/>
</g>
<!-- Node21&#45;&gt;Node22 -->
<g id="edge104" class="edge"><title>Node21&#45;&gt;Node22</title>
<path style="fill:none;stroke:midnightblue;" d="M1353,-230C1236,-219 958,-196 819,-185"/>
<polygon style="fill:midnightblue;stroke:midnightblue;" points="819.299,-181.512 809,-184 818.602,-188.478 819.299,-181.512"/>
</g>
<!-- Node22&#45;&gt;Node4 -->
<g id="edge106" class="edge"><title>Node22&#45;&gt;Node4</title>
<path style="fill:none;stroke:midnightblue;" d="M737,-168C736,-155 736,-131 740,-112 741,-103 745,-93 748,-85"/>
<polygon style="fill:midnightblue;stroke:midnightblue;" points="751.137,-86.5596 752,-76 744.74,-83.7166 751.137,-86.5596"/>
</g>
<!-- Node22&#45;&gt;Node7 -->
<g id="edge108" class="edge"><title>Node22&#45;&gt;Node7</title>
<path style="fill:none;stroke:midnightblue;" d="M746,-168C767,-140 827,-63 854,-28"/>
<polygon style="fill:midnightblue;stroke:midnightblue;" points="856.8,-30.1 860,-20 851.2,-25.9 856.8,-30.1"/>
</g>
<!-- Node22&#45;&gt;Node23 -->
<g id="edge110" class="edge"><title>Node22&#45;&gt;Node23</title>
<path style="fill:none;stroke:midnightblue;" d="M689,-168C642,-159 571,-144 521,-134"/>
<polygon style="fill:midnightblue;stroke:midnightblue;" points="521.492,-130.529 511,-132 520.119,-137.393 521.492,-130.529"/>
</g>
<!-- Node23&#45;&gt;Node4 -->
<g id="edge116" class="edge"><title>Node23&#45;&gt;Node4</title>
<path style="fill:none;stroke:midnightblue;" d="M526,-112C576,-103 646,-91 718,-76"/>
<polygon style="fill:midnightblue;stroke:midnightblue;" points="718.881,-79.3933 728,-74 717.508,-72.5292 718.881,-79.3933"/>
</g>
<!-- Node23&#45;&gt;Node7 -->
<g id="edge118" class="edge"><title>Node23&#45;&gt;Node7</title>
<path style="fill:none;stroke:midnightblue;" d="M451,-112C438,-98 418,-72 433,-56 460,-25 744,-14 838,-11"/>
<polygon style="fill:midnightblue;stroke:midnightblue;" points="838,-14.5001 848,-11 838,-7.5001 838,-14.5001"/>
</g>
<!-- Node23&#45;&gt;Node9 -->
<g id="edge112" class="edge"><title>Node23&#45;&gt;Node9</title>
<path style="fill:none;stroke:midnightblue;" d="M442,-112C424,-103 398,-90 378,-80"/>
<polygon style="fill:midnightblue;stroke:midnightblue;" points="379.56,-76.8631 369,-76 376.717,-83.2598 379.56,-76.8631"/>
</g>
<!-- Node23&#45;&gt;Node14 -->
<g id="edge126" class="edge"><title>Node23&#45;&gt;Node14</title>
<path style="fill:none;stroke:midnightblue;" d="M550,-112C646,-101 798,-83 886,-74"/>
<polygon style="fill:midnightblue;stroke:midnightblue;" points="886.398,-77.4778 896,-73 885.701,-70.5125 886.398,-77.4778"/>
</g>
<!-- Node23&#45;&gt;Node15 -->
<g id="edge124" class="edge"><title>Node23&#45;&gt;Node15</title>
<path style="fill:none;stroke:midnightblue;" d="M575,-115C686,-108 860,-96 1020,-76"/>
<polygon style="fill:midnightblue;stroke:midnightblue;" points="1020.4,-79.4778 1030,-75 1019.7,-72.5125 1020.4,-79.4778"/>
</g>
<!-- Node24 -->
<g id="node81" class="node"><title>Node24</title>
<polygon style="fill:white;stroke:#bfbfbf;" points="682,-56 682,-76 711,-76 711,-56 682,-56"/>
<text text-anchor="middle" x="696" y="-63" style="font-family:Arial;font-size:10.00;">list</text>
</g>
<!-- Node23&#45;&gt;Node24 -->
<g id="edge114" class="edge"><title>Node23&#45;&gt;Node24</title>
<path style="fill:none;stroke:midnightblue;" d="M522,-112C562,-104 617,-93 672,-75"/>
<polygon style="fill:midnightblue;stroke:midnightblue;" points="673.427,-78.2259 682,-72 671.416,-71.5212 673.427,-78.2259"/>
</g>
<!-- Node25 -->
<g id="node85" class="node"><title>Node25</title>
<polygon style="fill:white;stroke:#bfbfbf;" points="442,-56 442,-76 519,-76 519,-56 442,-56"/>
<text text-anchor="middle" x="480" y="-63" style="font-family:Arial;font-size:10.00;">boost/any.hpp</text>
</g>
<!-- Node23&#45;&gt;Node25 -->
<g id="edge120" class="edge"><title>Node23&#45;&gt;Node25</title>
<path style="fill:none;stroke:midnightblue;" d="M465,-112C467,-105 470,-95 474,-85"/>
<polygon style="fill:midnightblue;stroke:midnightblue;" points="477.158,-86.5937 477,-76 470.517,-84.38 477.158,-86.5937"/>
</g>
<!-- Node26 -->
<g id="node87" class="node"><title>Node26</title>
<polygon style="fill:white;stroke:#bfbfbf;" points="536,-56 536,-76 665,-76 665,-56 536,-56"/>
<text text-anchor="middle" x="600" y="-63" style="font-family:Arial;font-size:10.00;">boost/unordered_map.hpp</text>
</g>
<!-- Node23&#45;&gt;Node26 -->
<g id="edge122" class="edge"><title>Node23&#45;&gt;Node26</title>
<path style="fill:none;stroke:midnightblue;" d="M487,-112C509,-103 541,-90 566,-80"/>
<polygon style="fill:midnightblue;stroke:midnightblue;" points="567.283,-83.2598 575,-76 564.44,-76.8631 567.283,-83.2598"/>
</g>
<!-- Node27&#45;&gt;Node10 -->
<g id="edge132" class="edge"><title>Node27&#45;&gt;Node10</title>
<path style="fill:none;stroke:midnightblue;" d="M1046,-224C1062,-210 1092,-186 1120,-168 1137,-156 1157,-145 1174,-137"/>
<polygon style="fill:midnightblue;stroke:midnightblue;" points="1175.96,-139.916 1183,-132 1172.56,-133.797 1175.96,-139.916"/>
</g>
<!-- Node27&#45;&gt;Node15 -->
<g id="edge140" class="edge"><title>Node27&#45;&gt;Node15</title>
<path style="fill:none;stroke:midnightblue;" d="M1037,-224C1044,-197 1066,-122 1077,-86"/>
<polygon style="fill:midnightblue;stroke:midnightblue;" points="1080.48,-86.584 1080,-76 1073.77,-84.5725 1080.48,-86.584"/>
</g>
<!-- Node27&#45;&gt;Node18 -->
<g id="edge136" class="edge"><title>Node27&#45;&gt;Node18</title>
<path style="fill:none;stroke:midnightblue;" d="M1066,-224C1095,-215 1139,-201 1171,-191"/>
<polygon style="fill:midnightblue;stroke:midnightblue;" points="1172.43,-194.226 1181,-188 1170.42,-187.521 1172.43,-194.226"/>
</g>
<!-- Node27&#45;&gt;Node19 -->
<g id="edge134" class="edge"><title>Node27&#45;&gt;Node19</title>
<path style="fill:none;stroke:midnightblue;" d="M1024,-224C1016,-216 1005,-205 995,-195"/>
<polygon style="fill:midnightblue;stroke:midnightblue;" points="997.546,-192.596 988,-188 992.596,-197.546 997.546,-192.596"/>
</g>
<!-- Node27&#45;&gt;Node22 -->
<g id="edge138" class="edge"><title>Node27&#45;&gt;Node22</title>
<path style="fill:none;stroke:midnightblue;" d="M981,-224C930,-215 855,-200 801,-190"/>
<polygon style="fill:midnightblue;stroke:midnightblue;" points="801.492,-186.529 791,-188 800.119,-193.393 801.492,-186.529"/>
</g>
<!-- Node28&#45;&gt;Node7 -->
<g id="edge144" class="edge"><title>Node28&#45;&gt;Node7</title>
<path style="fill:none;stroke:midnightblue;" d="M683,-225C588,-208 396,-171 341,-132 310,-110 277,-83 303,-56 321,-36 724,-16 838,-11"/>
<polygon style="fill:midnightblue;stroke:midnightblue;" points="838,-14.5001 848,-11 838,-7.5001 838,-14.5001"/>
</g>
<!-- Node30 -->
<g id="node108" class="node"><title>Node30</title>
<polygon style="fill:white;stroke:#bfbfbf;" points="567,-224 567,-244 610,-244 610,-224 567,-224"/>
<text text-anchor="middle" x="588" y="-231" style="font-family:Arial;font-size:10.00;">cmath</text>
</g>
<!-- Node29&#45;&gt;Node30 -->
<g id="edge156" class="edge"><title>Node29&#45;&gt;Node30</title>
<path style="fill:none;stroke:midnightblue;" d="M613,-280C609,-273 603,-262 599,-253"/>
<polygon style="fill:midnightblue;stroke:midnightblue;" points="601.916,-251.042 594,-244 595.797,-254.441 601.916,-251.042"/>
</g>
<!-- Node31 -->
<g id="node110" class="node"><title>Node31</title>
<polygon style="fill:white;stroke:#bfbfbf;" points="627,-224 627,-244 666,-244 666,-224 627,-224"/>
<text text-anchor="middle" x="646" y="-231" style="font-family:Arial;font-size:10.00;">limits</text>
</g>
<!-- Node29&#45;&gt;Node31 -->
<g id="edge158" class="edge"><title>Node29&#45;&gt;Node31</title>
<path style="fill:none;stroke:midnightblue;" d="M624,-280C628,-273 633,-262 637,-253"/>
<polygon style="fill:midnightblue;stroke:midnightblue;" points="640.137,-254.56 641,-244 633.74,-251.717 640.137,-254.56"/>
</g>
<!-- Node32&#45;&gt;Node13 -->
<g id="edge166" class="edge"><title>Node32&#45;&gt;Node13</title>
<path style="fill:none;stroke:midnightblue;" d="M1431,-336C1526,-320 1684,-287 1684,-234 1684,-234 1684,-234 1684,-178 1684,-132 1541,-90 1476,-74"/>
<polygon style="fill:midnightblue;stroke:midnightblue;" points="1476.58,-70.5212 1466,-71 1474.57,-77.2259 1476.58,-70.5212"/>
</g>
<!-- Node32&#45;&gt;Node18 -->
<g id="edge170" class="edge"><title>Node32&#45;&gt;Node18</title>
<path style="fill:none;stroke:midnightblue;" d="M1360,-336C1358,-322 1354,-297 1342,-280 1316,-241 1271,-210 1241,-193"/>
<polygon style="fill:midnightblue;stroke:midnightblue;" points="1242.44,-189.797 1232,-188 1239.04,-195.916 1242.44,-189.797"/>
</g>
<!-- Node32&#45;&gt;Node20 -->
<g id="edge172" class="edge"><title>Node32&#45;&gt;Node20</title>
<path style="fill:none;stroke:midnightblue;" d="M1348,-336C1337,-328 1321,-316 1308,-306"/>
<polygon style="fill:midnightblue;stroke:midnightblue;" points="1310.1,-303.2 1300,-300 1305.9,-308.8 1310.1,-303.2"/>
</g>
<!-- Node33 -->
<g id="node117" class="node"><title>Node33</title>
<polygon style="fill:white;stroke:#bfbfbf;" points="1389,-280 1389,-300 1428,-300 1428,-280 1389,-280"/>
<text text-anchor="middle" x="1408" y="-287" style="font-family:Arial;font-size:10.00;">utility</text>
</g>
<!-- Node32&#45;&gt;Node33 -->
<g id="edge168" class="edge"><title>Node32&#45;&gt;Node33</title>
<path style="fill:none;stroke:midnightblue;" d="M1369,-336C1376,-328 1385,-318 1393,-308"/>
<polygon style="fill:midnightblue;stroke:midnightblue;" points="1395.8,-310.1 1399,-300 1390.2,-305.9 1395.8,-310.1"/>
</g>
</g>
</svg>
