<?xml version="1.0" encoding="UTF-8" standalone="no"?>
<!DOCTYPE svg PUBLIC "-//W3C//DTD SVG 1.0//EN"
 "http://www.w3.org/TR/2001/REC-SVG-20010904/DTD/svg10.dtd" [
 <!ATTLIST svg xmlns:xlink CDATA #FIXED "http://www.w3.org/1999/xlink">
]>
<!-- Generated by Graphviz version 2.20.2 (Tue Mar &#160;2 19:03:41 UTC 2010)
     For user: (jenkins)  -->
<!-- Title: G Pages: 1 -->
<svg width="1824pt" height="476pt"
 viewBox="0.00 0.00 1824.00 476.00" xmlns="http://www.w3.org/2000/svg" xmlns:xlink="http://www.w3.org/1999/xlink">
<g id="graph0" class="graph" transform="scale(1 1) rotate(0) translate(4 472)">
<title>G</title>
<polygon style="fill:white;stroke:white;" points="-4,4 -4,-472 1820,-472 1820,4 -4,4"/>
<!-- Node1 -->
<g id="node1" class="node"><title>Node1</title>
<polygon style="fill:#bfbfbf;stroke:black;" points="1553,-448 1553,-468 1789,-468 1789,-448 1553,-448"/>
<text text-anchor="middle" x="1671" y="-455" style="font-family:Arial;font-size:10.00;">ltr/feature_converters/remove_nominal_converter.cc</text>
</g>
<!-- Node2 -->
<g id="node3" class="node"><title>Node2</title>
<a xlink:href="remove__nominal__converter_8h.html" target="_top" xlink:title="ltr/feature_converters/remove_nominal_converter.h">
<polygon style="fill:white;stroke:black;" points="1464,-392 1464,-412 1695,-412 1695,-392 1464,-392"/>
<text text-anchor="middle" x="1579" y="-399" style="font-family:Arial;font-size:10.00;">ltr/feature_converters/remove_nominal_converter.h</text>
</a>
</g>
<!-- Node1&#45;&gt;Node2 -->
<g id="edge2" class="edge"><title>Node1&#45;&gt;Node2</title>
<path style="fill:none;stroke:midnightblue;" d="M1655,-448C1641,-440 1620,-427 1605,-417"/>
<polygon style="fill:midnightblue;stroke:midnightblue;" points="1606.44,-413.797 1596,-412 1603.04,-419.916 1606.44,-413.797"/>
</g>
<!-- Node31 -->
<g id="node108" class="node"><title>Node31</title>
<a xlink:href="numerical_8h.html" target="_top" xlink:title="ltr/utility/numerical.h">
<polygon style="fill:white;stroke:black;" points="1712,-392 1712,-412 1816,-412 1816,-392 1712,-392"/>
<text text-anchor="middle" x="1764" y="-399" style="font-family:Arial;font-size:10.00;">ltr/utility/numerical.h</text>
</a>
</g>
<!-- Node1&#45;&gt;Node31 -->
<g id="edge154" class="edge"><title>Node1&#45;&gt;Node31</title>
<path style="fill:none;stroke:midnightblue;" d="M1688,-448C1701,-440 1722,-427 1738,-417"/>
<polygon style="fill:midnightblue;stroke:midnightblue;" points="1739.96,-419.916 1747,-412 1736.56,-413.797 1739.96,-419.916"/>
</g>
<!-- Node3 -->
<g id="node5" class="node"><title>Node3</title>
<polygon style="fill:white;stroke:#bfbfbf;" points="753,-0 753,-20 793,-20 793,-0 753,-0"/>
<text text-anchor="middle" x="773" y="-7" style="font-family:Arial;font-size:10.00;">string</text>
</g>
<!-- Node2&#45;&gt;Node3 -->
<g id="edge4" class="edge"><title>Node2&#45;&gt;Node3</title>
<path style="fill:none;stroke:midnightblue;" d="M1588,-392C1603,-373 1633,-331 1633,-290 1633,-290 1633,-290 1633,-122 1633,-88 1625,-73 1598,-56 1565,-34 948,-15 803,-11"/>
<polygon style="fill:midnightblue;stroke:midnightblue;" points="803,-7.5001 793,-11 803,-14.5001 803,-7.5001"/>
</g>
<!-- Node4 -->
<g id="node7" class="node"><title>Node4</title>
<a xlink:href="feature__converter_8h.html" target="_top" xlink:title="ltr/feature_converters/feature_converter.h">
<polygon style="fill:white;stroke:black;" points="778,-336 778,-356 968,-356 968,-336 778,-336"/>
<text text-anchor="middle" x="873" y="-343" style="font-family:Arial;font-size:10.00;">ltr/feature_converters/feature_converter.h</text>
</a>
</g>
<!-- Node2&#45;&gt;Node4 -->
<g id="edge6" class="edge"><title>Node2&#45;&gt;Node4</title>
<path style="fill:none;stroke:midnightblue;" d="M1464,-393C1330,-382 1109,-365 978,-355"/>
<polygon style="fill:midnightblue;stroke:midnightblue;" points="978.299,-351.512 968,-354 977.602,-358.478 978.299,-351.512"/>
</g>
<!-- Node4&#45;&gt;Node3 -->
<g id="edge10" class="edge"><title>Node4&#45;&gt;Node3</title>
<path style="fill:none;stroke:midnightblue;" d="M968,-341C1164,-329 1595,-297 1595,-234 1595,-234 1595,-234 1595,-122 1595,-91 1599,-75 1576,-56 1546,-32 947,-15 803,-10"/>
<polygon style="fill:midnightblue;stroke:midnightblue;" points="803,-6.5001 793,-10 803,-13.5001 803,-6.5001"/>
</g>
<!-- Node5 -->
<g id="node9" class="node"><title>Node5</title>
<polygon style="fill:white;stroke:#bfbfbf;" points="29,-56 29,-76 71,-76 71,-56 29,-56"/>
<text text-anchor="middle" x="50" y="-63" style="font-family:Arial;font-size:10.00;">vector</text>
</g>
<!-- Node4&#45;&gt;Node5 -->
<g id="edge8" class="edge"><title>Node4&#45;&gt;Node5</title>
<path style="fill:none;stroke:midnightblue;" d="M778,-345C592,-341 192,-331 138,-300 63,-256 57,-216 37,-132 34,-116 38,-99 42,-85"/>
<polygon style="fill:midnightblue;stroke:midnightblue;" points="45.158,-86.5937 45,-76 38.5173,-84.38 45.158,-86.5937"/>
</g>
<!-- Node6 -->
<g id="node12" class="node"><title>Node6</title>
<polygon style="fill:white;stroke:#bfbfbf;" points="446,-56 446,-76 505,-76 505,-56 446,-56"/>
<text text-anchor="middle" x="475" y="-63" style="font-family:Arial;font-size:10.00;">stdexcept</text>
</g>
<!-- Node4&#45;&gt;Node6 -->
<g id="edge12" class="edge"><title>Node4&#45;&gt;Node6</title>
<path style="fill:none;stroke:midnightblue;" d="M778,-344C623,-341 322,-331 221,-300 166,-282 107,-292 107,-234 107,-234 107,-234 107,-178 107,-147 103,-131 126,-112 133,-106 346,-81 436,-70"/>
<polygon style="fill:midnightblue;stroke:midnightblue;" points="436.398,-73.4778 446,-69 435.701,-66.5125 436.398,-73.4778"/>
</g>
<!-- Node7 -->
<g id="node14" class="node"><title>Node7</title>
<a xlink:href="data__set_8h.html" target="_top" xlink:title="ltr/data/data_set.h">
<polygon style="fill:white;stroke:black;" points="382,-280 382,-300 477,-300 477,-280 382,-280"/>
<text text-anchor="middle" x="429" y="-287" style="font-family:Arial;font-size:10.00;">ltr/data/data_set.h</text>
</a>
</g>
<!-- Node4&#45;&gt;Node7 -->
<g id="edge14" class="edge"><title>Node4&#45;&gt;Node7</title>
<path style="fill:none;stroke:midnightblue;" d="M794,-336C706,-325 566,-308 487,-297"/>
<polygon style="fill:midnightblue;stroke:midnightblue;" points="487.299,-293.512 477,-296 486.602,-300.478 487.299,-293.512"/>
</g>
<!-- Node9 -->
<g id="node21" class="node"><title>Node9</title>
<a xlink:href="object_8h.html" target="_top" xlink:title="ltr/data/object.h">
<polygon style="fill:white;stroke:black;" points="135,-112 135,-132 219,-132 219,-112 135,-112"/>
<text text-anchor="middle" x="177" y="-119" style="font-family:Arial;font-size:10.00;">ltr/data/object.h</text>
</a>
</g>
<!-- Node4&#45;&gt;Node9 -->
<g id="edge130" class="edge"><title>Node4&#45;&gt;Node9</title>
<path style="fill:none;stroke:midnightblue;" d="M778,-343C677,-338 513,-326 373,-300 286,-283 235,-314 180,-244 157,-214 164,-168 171,-142"/>
<polygon style="fill:midnightblue;stroke:midnightblue;" points="174.479,-142.584 174,-132 167.774,-140.573 174.479,-142.584"/>
</g>
<!-- Node13 -->
<g id="node34" class="node"><title>Node13</title>
<a xlink:href="shared__ptr_8h.html" target="_top" xlink:title="ltr/utility/shared_ptr.h">
<polygon style="fill:white;stroke:black;" points="601,-56 601,-76 708,-76 708,-56 601,-56"/>
<text text-anchor="middle" x="654" y="-63" style="font-family:Arial;font-size:10.00;">ltr/utility/shared_ptr.h</text>
</a>
</g>
<!-- Node4&#45;&gt;Node13 -->
<g id="edge152" class="edge"><title>Node4&#45;&gt;Node13</title>
<path style="fill:none;stroke:midnightblue;" d="M881,-336C903,-307 958,-223 920,-168 917,-162 764,-106 692,-80"/>
<polygon style="fill:midnightblue;stroke:midnightblue;" points="692.585,-76.4643 682,-76 689.985,-82.9636 692.585,-76.4643"/>
</g>
<!-- Node19 -->
<g id="node58" class="node"><title>Node19</title>
<a xlink:href="feature__info_8h.html" target="_top" xlink:title="ltr/data/feature_info.h">
<polygon style="fill:white;stroke:black;" points="659,-224 659,-244 766,-244 766,-224 659,-224"/>
<text text-anchor="middle" x="712" y="-231" style="font-family:Arial;font-size:10.00;">ltr/data/feature_info.h</text>
</a>
</g>
<!-- Node4&#45;&gt;Node19 -->
<g id="edge128" class="edge"><title>Node4&#45;&gt;Node19</title>
<path style="fill:none;stroke:midnightblue;" d="M858,-336C830,-316 769,-274 735,-250"/>
<polygon style="fill:midnightblue;stroke:midnightblue;" points="737.1,-247.2 727,-244 732.9,-252.8 737.1,-247.2"/>
</g>
<!-- Node20 -->
<g id="node63" class="node"><title>Node20</title>
<a xlink:href="parameterized_8h.html" target="_top" xlink:title="ltr/interfaces/parameterized.h">
<polygon style="fill:white;stroke:black;" points="769,-168 769,-188 911,-188 911,-168 769,-168"/>
<text text-anchor="middle" x="840" y="-175" style="font-family:Arial;font-size:10.00;">ltr/interfaces/parameterized.h</text>
</a>
</g>
<!-- Node4&#45;&gt;Node20 -->
<g id="edge134" class="edge"><title>Node4&#45;&gt;Node20</title>
<path style="fill:none;stroke:midnightblue;" d="M871,-336C866,-309 851,-234 844,-198"/>
<polygon style="fill:midnightblue;stroke:midnightblue;" points="847.393,-197.119 842,-188 840.529,-198.492 847.393,-197.119"/>
</g>
<!-- Node26 -->
<g id="node82" class="node"><title>Node26</title>
<a xlink:href="per__object__accessor_8h.html" target="_top" xlink:title="ltr/data/per_object_accessor.h">
<polygon style="fill:white;stroke:black;" points="495,-224 495,-244 642,-244 642,-224 495,-224"/>
<text text-anchor="middle" x="568" y="-231" style="font-family:Arial;font-size:10.00;">ltr/data/per_object_accessor.h</text>
</a>
</g>
<!-- Node4&#45;&gt;Node26 -->
<g id="edge132" class="edge"><title>Node4&#45;&gt;Node26</title>
<path style="fill:none;stroke:midnightblue;" d="M846,-336C791,-315 667,-270 605,-247"/>
<polygon style="fill:midnightblue;stroke:midnightblue;" points="606.594,-243.842 596,-244 604.38,-250.483 606.594,-243.842"/>
</g>
<!-- Node27 -->
<g id="node89" class="node"><title>Node27</title>
<a xlink:href="aliaser_8h.html" target="_top" xlink:title="ltr/interfaces/aliaser.h">
<polygon style="fill:white;stroke:black;" points="1217,-56 1217,-76 1325,-76 1325,-56 1217,-56"/>
<text text-anchor="middle" x="1271" y="-63" style="font-family:Arial;font-size:10.00;">ltr/interfaces/aliaser.h</text>
</a>
</g>
<!-- Node4&#45;&gt;Node27 -->
<g id="edge150" class="edge"><title>Node4&#45;&gt;Node27</title>
<path style="fill:none;stroke:midnightblue;" d="M934,-336C1023,-320 1176,-284 1176,-234 1176,-234 1176,-234 1176,-178 1176,-147 1179,-136 1198,-112 1209,-99 1223,-88 1237,-81"/>
<polygon style="fill:midnightblue;stroke:midnightblue;" points="1238.96,-83.916 1246,-76 1235.56,-77.7969 1238.96,-83.916"/>
</g>
<!-- Node28 -->
<g id="node96" class="node"><title>Node28</title>
<a xlink:href="serializable_8h.html" target="_top" xlink:title="ltr/interfaces/serializable.h">
<polygon style="fill:white;stroke:black;" points="1207,-112 1207,-132 1336,-132 1336,-112 1207,-112"/>
<text text-anchor="middle" x="1271" y="-119" style="font-family:Arial;font-size:10.00;">ltr/interfaces/serializable.h</text>
</a>
</g>
<!-- Node4&#45;&gt;Node28 -->
<g id="edge136" class="edge"><title>Node4&#45;&gt;Node28</title>
<path style="fill:none;stroke:midnightblue;" d="M968,-342C1049,-337 1156,-325 1190,-300 1243,-260 1261,-180 1268,-142"/>
<polygon style="fill:midnightblue;stroke:midnightblue;" points="1271.47,-142.492 1270,-132 1264.61,-141.119 1271.47,-142.492"/>
</g>
<!-- Node7&#45;&gt;Node3 -->
<g id="edge20" class="edge"><title>Node7&#45;&gt;Node3</title>
<path style="fill:none;stroke:midnightblue;" d="M382,-285C311,-278 182,-262 138,-244 48,-205 -48,-127 20,-56 74,-0 628,-33 743,-19"/>
<polygon style="fill:midnightblue;stroke:midnightblue;" points="743.398,-22.4778 753,-18 742.701,-15.5125 743.398,-22.4778"/>
</g>
<!-- Node7&#45;&gt;Node5 -->
<g id="edge22" class="edge"><title>Node7&#45;&gt;Node5</title>
<path style="fill:none;stroke:midnightblue;" d="M382,-284C320,-276 216,-260 180,-244 110,-210 78,-202 44,-132 38,-118 40,-100 43,-86"/>
<polygon style="fill:midnightblue;stroke:midnightblue;" points="46.4788,-86.584 46,-76 39.7741,-84.5725 46.4788,-86.584"/>
</g>
<!-- Node7&#45;&gt;Node6 -->
<g id="edge18" class="edge"><title>Node7&#45;&gt;Node6</title>
<path style="fill:none;stroke:midnightblue;" d="M430,-280C433,-259 440,-209 448,-168 454,-139 463,-106 469,-86"/>
<polygon style="fill:midnightblue;stroke:midnightblue;" points="472.479,-86.584 472,-76 465.774,-84.5725 472.479,-86.584"/>
</g>
<!-- Node8 -->
<g id="node16" class="node"><title>Node8</title>
<polygon style="fill:white;stroke:#bfbfbf;" points="189,-224 189,-244 240,-244 240,-224 189,-224"/>
<text text-anchor="middle" x="214" y="-231" style="font-family:Arial;font-size:10.00;">sstream</text>
</g>
<!-- Node7&#45;&gt;Node8 -->
<g id="edge16" class="edge"><title>Node7&#45;&gt;Node8</title>
<path style="fill:none;stroke:midnightblue;" d="M391,-280C351,-270 289,-254 250,-244"/>
<polygon style="fill:midnightblue;stroke:midnightblue;" points="250.584,-240.521 240,-241 248.573,-247.226 250.584,-240.521"/>
</g>
<!-- Node7&#45;&gt;Node9 -->
<g id="edge24" class="edge"><title>Node7&#45;&gt;Node9</title>
<path style="fill:none;stroke:midnightblue;" d="M408,-280C374,-263 305,-227 251,-188 231,-173 209,-153 194,-139"/>
<polygon style="fill:midnightblue;stroke:midnightblue;" points="196.546,-136.596 187,-132 191.596,-141.546 196.546,-136.596"/>
</g>
<!-- Node17 -->
<g id="node42" class="node"><title>Node17</title>
<a xlink:href="object__list_8h.html" target="_top" xlink:title="ltr/data/object_list.h">
<polygon style="fill:white;stroke:black;" points="299,-168 299,-188 401,-188 401,-168 299,-168"/>
<text text-anchor="middle" x="350" y="-175" style="font-family:Arial;font-size:10.00;">ltr/data/object_list.h</text>
</a>
</g>
<!-- Node7&#45;&gt;Node17 -->
<g id="edge50" class="edge"><title>Node7&#45;&gt;Node17</title>
<path style="fill:none;stroke:midnightblue;" d="M422,-280C409,-260 380,-221 363,-196"/>
<polygon style="fill:midnightblue;stroke:midnightblue;" points="365.8,-193.9 357,-188 360.2,-198.1 365.8,-193.9"/>
</g>
<!-- Node18 -->
<g id="node50" class="node"><title>Node18</title>
<a xlink:href="object__pair_8h.html" target="_top" xlink:title="ltr/data/object_pair.h">
<polygon style="fill:white;stroke:black;" points="457,-168 457,-188 561,-188 561,-168 457,-168"/>
<text text-anchor="middle" x="509" y="-175" style="font-family:Arial;font-size:10.00;">ltr/data/object_pair.h</text>
</a>
</g>
<!-- Node7&#45;&gt;Node18 -->
<g id="edge64" class="edge"><title>Node7&#45;&gt;Node18</title>
<path style="fill:none;stroke:midnightblue;" d="M436,-280C449,-260 478,-221 496,-196"/>
<polygon style="fill:midnightblue;stroke:midnightblue;" points="498.8,-198.1 502,-188 493.2,-193.9 498.8,-198.1"/>
</g>
<!-- Node7&#45;&gt;Node19 -->
<g id="edge78" class="edge"><title>Node7&#45;&gt;Node19</title>
<path style="fill:none;stroke:midnightblue;" d="M477,-281C526,-272 600,-257 652,-246"/>
<polygon style="fill:midnightblue;stroke:midnightblue;" points="652.881,-249.393 662,-244 651.508,-242.529 652.881,-249.393"/>
</g>
<!-- Node7&#45;&gt;Node26 -->
<g id="edge112" class="edge"><title>Node7&#45;&gt;Node26</title>
<path style="fill:none;stroke:midnightblue;" d="M454,-280C476,-271 509,-258 534,-248"/>
<polygon style="fill:midnightblue;stroke:midnightblue;" points="535.283,-251.26 543,-244 532.44,-244.863 535.283,-251.26"/>
</g>
<!-- Node7&#45;&gt;Node27 -->
<g id="edge124" class="edge"><title>Node7&#45;&gt;Node27</title>
<path style="fill:none;stroke:midnightblue;" d="M477,-287C544,-281 670,-268 774,-244 923,-208 955,-184 1098,-132 1146,-114 1201,-93 1235,-80"/>
<polygon style="fill:midnightblue;stroke:midnightblue;" points="1237.02,-82.9636 1245,-76 1234.42,-76.4643 1237.02,-82.9636"/>
</g>
<!-- Node9&#45;&gt;Node3 -->
<g id="edge32" class="edge"><title>Node9&#45;&gt;Node3</title>
<path style="fill:none;stroke:midnightblue;" d="M177,-112C177,-97 180,-69 196,-56 242,-19 650,-31 743,-20"/>
<polygon style="fill:midnightblue;stroke:midnightblue;" points="743.881,-23.3933 753,-18 742.508,-16.5292 743.881,-23.3933"/>
</g>
<!-- Node9&#45;&gt;Node5 -->
<g id="edge34" class="edge"><title>Node9&#45;&gt;Node5</title>
<path style="fill:none;stroke:midnightblue;" d="M154,-112C134,-103 103,-90 80,-79"/>
<polygon style="fill:midnightblue;stroke:midnightblue;" points="81.5596,-75.8631 71,-75 78.7166,-82.2598 81.5596,-75.8631"/>
</g>
<!-- Node9&#45;&gt;Node6 -->
<g id="edge30" class="edge"><title>Node9&#45;&gt;Node6</title>
<path style="fill:none;stroke:midnightblue;" d="M219,-114C276,-104 380,-84 436,-74"/>
<polygon style="fill:midnightblue;stroke:midnightblue;" points="436.881,-77.3933 446,-72 435.508,-70.5292 436.881,-77.3933"/>
</g>
<!-- Node10 -->
<g id="node23" class="node"><title>Node10</title>
<polygon style="fill:white;stroke:#bfbfbf;" points="205,-56 205,-76 240,-76 240,-56 205,-56"/>
<text text-anchor="middle" x="222" y="-63" style="font-family:Arial;font-size:10.00;">map</text>
</g>
<!-- Node9&#45;&gt;Node10 -->
<g id="edge26" class="edge"><title>Node9&#45;&gt;Node10</title>
<path style="fill:none;stroke:midnightblue;" d="M185,-112C191,-104 200,-94 208,-84"/>
<polygon style="fill:midnightblue;stroke:midnightblue;" points="210.8,-86.1 214,-76 205.2,-81.9 210.8,-86.1"/>
</g>
<!-- Node11 -->
<g id="node25" class="node"><title>Node11</title>
<polygon style="fill:white;stroke:#bfbfbf;" points="196,-0 196,-20 247,-20 247,-0 196,-0"/>
<text text-anchor="middle" x="221" y="-7" style="font-family:Arial;font-size:10.00;">ostream</text>
</g>
<!-- Node9&#45;&gt;Node11 -->
<g id="edge28" class="edge"><title>Node9&#45;&gt;Node11</title>
<path style="fill:none;stroke:midnightblue;" d="M171,-112C164,-98 154,-74 163,-56 169,-43 181,-33 192,-25"/>
<polygon style="fill:midnightblue;stroke:midnightblue;" points="193.958,-27.916 201,-20 190.559,-21.7969 193.958,-27.916"/>
</g>
<!-- Node12 -->
<g id="node30" class="node"><title>Node12</title>
<a xlink:href="printable_8h.html" target="_top" xlink:title="ltr/interfaces/printable.h">
<polygon style="fill:white;stroke:black;" points="257,-56 257,-76 374,-76 374,-56 257,-56"/>
<text text-anchor="middle" x="315" y="-63" style="font-family:Arial;font-size:10.00;">ltr/interfaces/printable.h</text>
</a>
</g>
<!-- Node9&#45;&gt;Node12 -->
<g id="edge36" class="edge"><title>Node9&#45;&gt;Node12</title>
<path style="fill:none;stroke:midnightblue;" d="M202,-112C224,-103 256,-90 281,-80"/>
<polygon style="fill:midnightblue;stroke:midnightblue;" points="282.283,-83.2598 290,-76 279.44,-76.8631 282.283,-83.2598"/>
</g>
<!-- Node9&#45;&gt;Node13 -->
<g id="edge42" class="edge"><title>Node9&#45;&gt;Node13</title>
<path style="fill:none;stroke:midnightblue;" d="M219,-117C303,-107 492,-85 591,-73"/>
<polygon style="fill:midnightblue;stroke:midnightblue;" points="591.398,-76.4778 601,-72 590.701,-69.5125 591.398,-76.4778"/>
</g>
<!-- Node12&#45;&gt;Node3 -->
<g id="edge40" class="edge"><title>Node12&#45;&gt;Node3</title>
<path style="fill:none;stroke:midnightblue;" d="M374,-57C379,-57 383,-56 387,-56 543,-37 587,-53 743,-20"/>
<polygon style="fill:midnightblue;stroke:midnightblue;" points="743.881,-23.3933 753,-18 742.508,-16.5292 743.881,-23.3933"/>
</g>
<!-- Node12&#45;&gt;Node11 -->
<g id="edge38" class="edge"><title>Node12&#45;&gt;Node11</title>
<path style="fill:none;stroke:midnightblue;" d="M298,-56C284,-48 263,-35 247,-25"/>
<polygon style="fill:midnightblue;stroke:midnightblue;" points="248.441,-21.7969 238,-20 245.042,-27.916 248.441,-21.7969"/>
</g>
<!-- Node14 -->
<g id="node36" class="node"><title>Node14</title>
<polygon style="fill:white;stroke:#bfbfbf;" points="555,-0 555,-20 611,-20 611,-0 555,-0"/>
<text text-anchor="middle" x="583" y="-7" style="font-family:Arial;font-size:10.00;">algorithm</text>
</g>
<!-- Node13&#45;&gt;Node14 -->
<g id="edge44" class="edge"><title>Node13&#45;&gt;Node14</title>
<path style="fill:none;stroke:midnightblue;" d="M641,-56C630,-48 616,-36 604,-27"/>
<polygon style="fill:midnightblue;stroke:midnightblue;" points="605.831,-23.9511 596,-20 601.221,-29.2191 605.831,-23.9511"/>
</g>
<!-- Node15 -->
<g id="node38" class="node"><title>Node15</title>
<polygon style="fill:white;stroke:#bfbfbf;" points="629,-0 629,-20 736,-20 736,-0 629,-0"/>
<text text-anchor="middle" x="682" y="-7" style="font-family:Arial;font-size:10.00;">boost/shared_ptr.hpp</text>
</g>
<!-- Node13&#45;&gt;Node15 -->
<g id="edge46" class="edge"><title>Node13&#45;&gt;Node15</title>
<path style="fill:none;stroke:midnightblue;" d="M659,-56C663,-49 668,-38 673,-29"/>
<polygon style="fill:midnightblue;stroke:midnightblue;" points="676.137,-30.5596 677,-20 669.74,-27.7166 676.137,-30.5596"/>
</g>
<!-- Node16 -->
<g id="node40" class="node"><title>Node16</title>
<polygon style="fill:white;stroke:#bfbfbf;" points="347,-0 347,-20 538,-20 538,-0 347,-0"/>
<text text-anchor="middle" x="442" y="-7" style="font-family:Arial;font-size:10.00;">boost/smart_ptr/detail/operator_bool.hpp</text>
</g>
<!-- Node13&#45;&gt;Node16 -->
<g id="edge48" class="edge"><title>Node13&#45;&gt;Node16</title>
<path style="fill:none;stroke:midnightblue;" d="M616,-56C581,-47 528,-33 490,-23"/>
<polygon style="fill:midnightblue;stroke:midnightblue;" points="490.584,-19.5212 480,-20 488.573,-26.2259 490.584,-19.5212"/>
</g>
<!-- Node17&#45;&gt;Node3 -->
<g id="edge54" class="edge"><title>Node17&#45;&gt;Node3</title>
<path style="fill:none;stroke:midnightblue;" d="M354,-168C364,-144 392,-82 437,-56 553,11 608,-47 743,-19"/>
<polygon style="fill:midnightblue;stroke:midnightblue;" points="743.881,-22.3933 753,-17 742.508,-15.5292 743.881,-22.3933"/>
</g>
<!-- Node17&#45;&gt;Node5 -->
<g id="edge56" class="edge"><title>Node17&#45;&gt;Node5</title>
<path style="fill:none;stroke:midnightblue;" d="M299,-173C219,-166 72,-149 55,-132 45,-120 44,-101 46,-86"/>
<polygon style="fill:midnightblue;stroke:midnightblue;" points="49.4875,-86.2987 47,-76 42.5222,-85.6021 49.4875,-86.2987"/>
</g>
<!-- Node17&#45;&gt;Node6 -->
<g id="edge52" class="edge"><title>Node17&#45;&gt;Node6</title>
<path style="fill:none;stroke:midnightblue;" d="M362,-168C383,-148 430,-107 455,-83"/>
<polygon style="fill:midnightblue;stroke:midnightblue;" points="457.779,-85.2191 463,-76 453.169,-79.9511 457.779,-85.2191"/>
</g>
<!-- Node17&#45;&gt;Node9 -->
<g id="edge58" class="edge"><title>Node17&#45;&gt;Node9</title>
<path style="fill:none;stroke:midnightblue;" d="M319,-168C290,-159 248,-145 218,-135"/>
<polygon style="fill:midnightblue;stroke:midnightblue;" points="218.584,-131.521 208,-132 216.573,-138.226 218.584,-131.521"/>
</g>
<!-- Node17&#45;&gt;Node12 -->
<g id="edge60" class="edge"><title>Node17&#45;&gt;Node12</title>
<path style="fill:none;stroke:midnightblue;" d="M318,-168C301,-161 281,-149 271,-132 262,-114 277,-96 292,-82"/>
<polygon style="fill:midnightblue;stroke:midnightblue;" points="294.1,-84.8 300,-76 289.9,-79.2 294.1,-84.8"/>
</g>
<!-- Node17&#45;&gt;Node13 -->
<g id="edge62" class="edge"><title>Node17&#45;&gt;Node13</title>
<path style="fill:none;stroke:midnightblue;" d="M377,-168C432,-147 554,-102 616,-80"/>
<polygon style="fill:midnightblue;stroke:midnightblue;" points="618.015,-82.9636 626,-76 615.415,-76.4643 618.015,-82.9636"/>
</g>
<!-- Node18&#45;&gt;Node3 -->
<g id="edge68" class="edge"><title>Node18&#45;&gt;Node3</title>
<path style="fill:none;stroke:midnightblue;" d="M513,-168C522,-144 549,-85 592,-56 647,-18 675,-37 743,-20"/>
<polygon style="fill:midnightblue;stroke:midnightblue;" points="744.427,-23.2259 753,-17 742.416,-16.5212 744.427,-23.2259"/>
</g>
<!-- Node18&#45;&gt;Node5 -->
<g id="edge70" class="edge"><title>Node18&#45;&gt;Node5</title>
<path style="fill:none;stroke:midnightblue;" d="M457,-172C355,-162 141,-138 126,-132 102,-121 80,-99 66,-84"/>
<polygon style="fill:midnightblue;stroke:midnightblue;" points="68.2191,-81.221 59,-76 62.9511,-85.8306 68.2191,-81.221"/>
</g>
<!-- Node18&#45;&gt;Node6 -->
<g id="edge66" class="edge"><title>Node18&#45;&gt;Node6</title>
<path style="fill:none;stroke:midnightblue;" d="M506,-168C502,-155 495,-131 489,-112 486,-103 483,-94 481,-86"/>
<polygon style="fill:midnightblue;stroke:midnightblue;" points="484.226,-84.5725 478,-76 477.521,-86.584 484.226,-84.5725"/>
</g>
<!-- Node18&#45;&gt;Node9 -->
<g id="edge72" class="edge"><title>Node18&#45;&gt;Node9</title>
<path style="fill:none;stroke:midnightblue;" d="M457,-169C394,-159 292,-141 229,-131"/>
<polygon style="fill:midnightblue;stroke:midnightblue;" points="229.492,-127.529 219,-129 228.119,-134.393 229.492,-127.529"/>
</g>
<!-- Node18&#45;&gt;Node12 -->
<g id="edge74" class="edge"><title>Node18&#45;&gt;Node12</title>
<path style="fill:none;stroke:midnightblue;" d="M491,-168C458,-148 382,-104 342,-81"/>
<polygon style="fill:midnightblue;stroke:midnightblue;" points="343.441,-77.7969 333,-76 340.042,-83.916 343.441,-77.7969"/>
</g>
<!-- Node18&#45;&gt;Node13 -->
<g id="edge76" class="edge"><title>Node18&#45;&gt;Node13</title>
<path style="fill:none;stroke:midnightblue;" d="M537,-168C557,-160 583,-148 603,-132 619,-118 634,-99 643,-85"/>
<polygon style="fill:midnightblue;stroke:midnightblue;" points="646.203,-86.4414 648,-76 640.084,-83.0418 646.203,-86.4414"/>
</g>
<!-- Node19&#45;&gt;Node3 -->
<g id="edge82" class="edge"><title>Node19&#45;&gt;Node3</title>
<path style="fill:none;stroke:midnightblue;" d="M715,-224C724,-189 755,-76 767,-30"/>
<polygon style="fill:midnightblue;stroke:midnightblue;" points="770.479,-30.584 770,-20 763.774,-28.5725 770.479,-30.584"/>
</g>
<!-- Node19&#45;&gt;Node5 -->
<g id="edge84" class="edge"><title>Node19&#45;&gt;Node5</title>
<path style="fill:none;stroke:midnightblue;" d="M686,-224C664,-215 631,-202 603,-188 588,-180 586,-174 570,-168 547,-158 190,-92 81,-72"/>
<polygon style="fill:midnightblue;stroke:midnightblue;" points="81.4922,-68.5292 71,-70 80.1194,-75.3933 81.4922,-68.5292"/>
</g>
<!-- Node19&#45;&gt;Node10 -->
<g id="edge80" class="edge"><title>Node19&#45;&gt;Node10</title>
<path style="fill:none;stroke:midnightblue;" d="M698,-224C679,-210 640,-183 603,-168 456,-105 406,-124 250,-76"/>
<polygon style="fill:midnightblue;stroke:midnightblue;" points="250.584,-72.5212 240,-73 248.573,-79.2259 250.584,-72.5212"/>
</g>
<!-- Node19&#45;&gt;Node13 -->
<g id="edge110" class="edge"><title>Node19&#45;&gt;Node13</title>
<path style="fill:none;stroke:midnightblue;" d="M710,-224C706,-203 695,-152 679,-112 675,-103 670,-93 666,-85"/>
<polygon style="fill:midnightblue;stroke:midnightblue;" points="668.916,-83.0418 661,-76 662.797,-86.4414 668.916,-83.0418"/>
</g>
<!-- Node19&#45;&gt;Node20 -->
<g id="edge86" class="edge"><title>Node19&#45;&gt;Node20</title>
<path style="fill:none;stroke:midnightblue;" d="M735,-224C755,-215 785,-202 808,-192"/>
<polygon style="fill:midnightblue;stroke:midnightblue;" points="809.283,-195.26 817,-188 806.44,-188.863 809.283,-195.26"/>
</g>
<!-- Node20&#45;&gt;Node3 -->
<g id="edge90" class="edge"><title>Node20&#45;&gt;Node3</title>
<path style="fill:none;stroke:midnightblue;" d="M911,-169C977,-159 1067,-144 1078,-132 1100,-105 1101,-81 1078,-56 1061,-35 877,-19 803,-13"/>
<polygon style="fill:midnightblue;stroke:midnightblue;" points="803.299,-9.5125 793,-12 802.602,-16.4778 803.299,-9.5125"/>
</g>
<!-- Node20&#45;&gt;Node6 -->
<g id="edge88" class="edge"><title>Node20&#45;&gt;Node6</title>
<path style="fill:none;stroke:midnightblue;" d="M807,-168C740,-147 588,-100 515,-78"/>
<polygon style="fill:midnightblue;stroke:midnightblue;" points="515.584,-74.5212 505,-75 513.573,-81.2259 515.584,-74.5212"/>
</g>
<!-- Node21 -->
<g id="node67" class="node"><title>Node21</title>
<a xlink:href="parameters__container_8h.html" target="_top" xlink:title="ltr/parameters_container/parameters_container.h">
<polygon style="fill:white;stroke:black;" points="845,-112 845,-132 1070,-132 1070,-112 845,-112"/>
<text text-anchor="middle" x="957" y="-119" style="font-family:Arial;font-size:10.00;">ltr/parameters_container/parameters_container.h</text>
</a>
</g>
<!-- Node20&#45;&gt;Node21 -->
<g id="edge92" class="edge"><title>Node20&#45;&gt;Node21</title>
<path style="fill:none;stroke:midnightblue;" d="M861,-168C879,-159 906,-146 927,-136"/>
<polygon style="fill:midnightblue;stroke:midnightblue;" points="928.283,-139.26 936,-132 925.44,-132.863 928.283,-139.26"/>
</g>
<!-- Node21&#45;&gt;Node3 -->
<g id="edge100" class="edge"><title>Node21&#45;&gt;Node3</title>
<path style="fill:none;stroke:midnightblue;" d="M900,-112C859,-104 808,-91 792,-76 780,-64 776,-45 774,-30"/>
<polygon style="fill:midnightblue;stroke:midnightblue;" points="777.478,-29.6021 773,-20 770.512,-30.2987 777.478,-29.6021"/>
</g>
<!-- Node21&#45;&gt;Node6 -->
<g id="edge98" class="edge"><title>Node21&#45;&gt;Node6</title>
<path style="fill:none;stroke:midnightblue;" d="M871,-112C766,-100 593,-80 515,-71"/>
<polygon style="fill:midnightblue;stroke:midnightblue;" points="515.299,-67.5125 505,-70 514.602,-74.4778 515.299,-67.5125"/>
</g>
<!-- Node21&#45;&gt;Node12 -->
<g id="edge108" class="edge"><title>Node21&#45;&gt;Node12</title>
<path style="fill:none;stroke:midnightblue;" d="M845,-112C712,-100 495,-81 384,-72"/>
<polygon style="fill:midnightblue;stroke:midnightblue;" points="384.299,-68.5125 374,-71 383.602,-75.4778 384.299,-68.5125"/>
</g>
<!-- Node21&#45;&gt;Node13 -->
<g id="edge106" class="edge"><title>Node21&#45;&gt;Node13</title>
<path style="fill:none;stroke:midnightblue;" d="M903,-112C851,-103 773,-88 718,-78"/>
<polygon style="fill:midnightblue;stroke:midnightblue;" points="718.492,-74.5292 708,-76 717.119,-81.3933 718.492,-74.5292"/>
</g>
<!-- Node22 -->
<g id="node69" class="node"><title>Node22</title>
<polygon style="fill:white;stroke:#bfbfbf;" points="1125,-56 1125,-76 1199,-76 1199,-56 1125,-56"/>
<text text-anchor="middle" x="1162" y="-63" style="font-family:Arial;font-size:10.00;">logog/logog.h</text>
</g>
<!-- Node21&#45;&gt;Node22 -->
<g id="edge94" class="edge"><title>Node21&#45;&gt;Node22</title>
<path style="fill:none;stroke:midnightblue;" d="M994,-112C1028,-103 1078,-89 1115,-79"/>
<polygon style="fill:midnightblue;stroke:midnightblue;" points="1116.43,-82.2259 1125,-76 1114.42,-75.5212 1116.43,-82.2259"/>
</g>
<!-- Node23 -->
<g id="node71" class="node"><title>Node23</title>
<polygon style="fill:white;stroke:#bfbfbf;" points="801,-56 801,-76 830,-76 830,-56 801,-56"/>
<text text-anchor="middle" x="815" y="-63" style="font-family:Arial;font-size:10.00;">list</text>
</g>
<!-- Node21&#45;&gt;Node23 -->
<g id="edge96" class="edge"><title>Node21&#45;&gt;Node23</title>
<path style="fill:none;stroke:midnightblue;" d="M931,-112C908,-104 876,-91 839,-76"/>
<polygon style="fill:midnightblue;stroke:midnightblue;" points="840.56,-72.8631 830,-72 837.717,-79.2598 840.56,-72.8631"/>
</g>
<!-- Node24 -->
<g id="node75" class="node"><title>Node24</title>
<polygon style="fill:white;stroke:#bfbfbf;" points="847,-56 847,-76 924,-76 924,-56 847,-56"/>
<text text-anchor="middle" x="885" y="-63" style="font-family:Arial;font-size:10.00;">boost/any.hpp</text>
</g>
<!-- Node21&#45;&gt;Node24 -->
<g id="edge102" class="edge"><title>Node21&#45;&gt;Node24</title>
<path style="fill:none;stroke:midnightblue;" d="M944,-112C933,-104 918,-92 906,-83"/>
<polygon style="fill:midnightblue;stroke:midnightblue;" points="907.831,-79.9511 898,-76 903.221,-85.2191 907.831,-79.9511"/>
</g>
<!-- Node25 -->
<g id="node77" class="node"><title>Node25</title>
<polygon style="fill:white;stroke:#bfbfbf;" points="941,-56 941,-76 1070,-76 1070,-56 941,-56"/>
<text text-anchor="middle" x="1005" y="-63" style="font-family:Arial;font-size:10.00;">boost/unordered_map.hpp</text>
</g>
<!-- Node21&#45;&gt;Node25 -->
<g id="edge104" class="edge"><title>Node21&#45;&gt;Node25</title>
<path style="fill:none;stroke:midnightblue;" d="M966,-112C972,-104 982,-93 990,-84"/>
<polygon style="fill:midnightblue;stroke:midnightblue;" points="992.8,-86.1 996,-76 987.2,-81.9 992.8,-86.1"/>
</g>
<!-- Node26&#45;&gt;Node9 -->
<g id="edge114" class="edge"><title>Node26&#45;&gt;Node9</title>
<path style="fill:none;stroke:midnightblue;" d="M495,-229C438,-223 357,-212 290,-188 272,-182 229,-155 202,-138"/>
<polygon style="fill:midnightblue;stroke:midnightblue;" points="203.262,-134.635 193,-132 199.379,-140.459 203.262,-134.635"/>
</g>
<!-- Node26&#45;&gt;Node13 -->
<g id="edge122" class="edge"><title>Node26&#45;&gt;Node13</title>
<path style="fill:none;stroke:midnightblue;" d="M575,-224C586,-206 610,-167 627,-132 634,-117 641,-99 646,-86"/>
<polygon style="fill:midnightblue;stroke:midnightblue;" points="649.536,-86.5847 650,-76 643.036,-83.9849 649.536,-86.5847"/>
</g>
<!-- Node26&#45;&gt;Node17 -->
<g id="edge118" class="edge"><title>Node26&#45;&gt;Node17</title>
<path style="fill:none;stroke:midnightblue;" d="M529,-224C492,-215 438,-201 399,-191"/>
<polygon style="fill:midnightblue;stroke:midnightblue;" points="399.584,-187.521 389,-188 397.573,-194.226 399.584,-187.521"/>
</g>
<!-- Node26&#45;&gt;Node18 -->
<g id="edge116" class="edge"><title>Node26&#45;&gt;Node18</title>
<path style="fill:none;stroke:midnightblue;" d="M557,-224C548,-216 537,-205 527,-195"/>
<polygon style="fill:midnightblue;stroke:midnightblue;" points="529.546,-192.596 520,-188 524.596,-197.546 529.546,-192.596"/>
</g>
<!-- Node26&#45;&gt;Node20 -->
<g id="edge120" class="edge"><title>Node26&#45;&gt;Node20</title>
<path style="fill:none;stroke:midnightblue;" d="M617,-224C663,-215 732,-200 781,-190"/>
<polygon style="fill:midnightblue;stroke:midnightblue;" points="781.881,-193.393 791,-188 780.508,-186.529 781.881,-193.393"/>
</g>
<!-- Node27&#45;&gt;Node3 -->
<g id="edge126" class="edge"><title>Node27&#45;&gt;Node3</title>
<path style="fill:none;stroke:midnightblue;" d="M1217,-57C1214,-57 1211,-56 1208,-56 1057,-35 874,-19 803,-13"/>
<polygon style="fill:midnightblue;stroke:midnightblue;" points="803.299,-9.5125 793,-12 802.602,-16.4778 803.299,-9.5125"/>
</g>
<!-- Node28&#45;&gt;Node3 -->
<g id="edge142" class="edge"><title>Node28&#45;&gt;Node3</title>
<path style="fill:none;stroke:midnightblue;" d="M1293,-112C1317,-99 1353,-76 1334,-56 1298,-16 915,-11 803,-10"/>
<polygon style="fill:midnightblue;stroke:midnightblue;" points="803,-6.5001 793,-10 803,-13.5001 803,-6.5001"/>
</g>
<!-- Node28&#45;&gt;Node13 -->
<g id="edge146" class="edge"><title>Node28&#45;&gt;Node13</title>
<path style="fill:none;stroke:midnightblue;" d="M1207,-116C1088,-105 837,-82 718,-72"/>
<polygon style="fill:midnightblue;stroke:midnightblue;" points="718.299,-68.5125 708,-71 717.602,-75.4778 718.299,-68.5125"/>
</g>
<!-- Node28&#45;&gt;Node22 -->
<g id="edge140" class="edge"><title>Node28&#45;&gt;Node22</title>
<path style="fill:none;stroke:midnightblue;" d="M1252,-112C1235,-103 1210,-90 1191,-81"/>
<polygon style="fill:midnightblue;stroke:midnightblue;" points="1192.44,-77.7969 1182,-76 1189.04,-83.916 1192.44,-77.7969"/>
</g>
<!-- Node28&#45;&gt;Node27 -->
<g id="edge148" class="edge"><title>Node28&#45;&gt;Node27</title>
<path style="fill:none;stroke:midnightblue;" d="M1271,-112C1271,-105 1271,-95 1271,-86"/>
<polygon style="fill:midnightblue;stroke:midnightblue;" points="1274.5,-86 1271,-76 1267.5,-86 1274.5,-86"/>
</g>
<!-- Node29 -->
<g id="node98" class="node"><title>Node29</title>
<polygon style="fill:white;stroke:#bfbfbf;" points="1381,-56 1381,-76 1495,-76 1495,-56 1381,-56"/>
<text text-anchor="middle" x="1438" y="-63" style="font-family:Arial;font-size:10.00;">boost/lexical_cast.hpp</text>
</g>
<!-- Node28&#45;&gt;Node29 -->
<g id="edge138" class="edge"><title>Node28&#45;&gt;Node29</title>
<path style="fill:none;stroke:midnightblue;" d="M1301,-112C1328,-103 1369,-89 1398,-79"/>
<polygon style="fill:midnightblue;stroke:midnightblue;" points="1399.43,-82.2259 1408,-76 1397.42,-75.5212 1399.43,-82.2259"/>
</g>
<!-- Node30 -->
<g id="node102" class="node"><title>Node30</title>
<polygon style="fill:white;stroke:#bfbfbf;" points="1513,-56 1513,-76 1567,-76 1567,-56 1513,-56"/>
<text text-anchor="middle" x="1540" y="-63" style="font-family:Arial;font-size:10.00;">iostream</text>
</g>
<!-- Node28&#45;&gt;Node30 -->
<g id="edge144" class="edge"><title>Node28&#45;&gt;Node30</title>
<path style="fill:none;stroke:midnightblue;" d="M1328,-112C1373,-103 1438,-91 1503,-76"/>
<polygon style="fill:midnightblue;stroke:midnightblue;" points="1503.88,-79.3933 1513,-74 1502.51,-72.5292 1503.88,-79.3933"/>
</g>
<!-- Node32 -->
<g id="node110" class="node"><title>Node32</title>
<polygon style="fill:white;stroke:#bfbfbf;" points="1714,-336 1714,-356 1757,-356 1757,-336 1714,-336"/>
<text text-anchor="middle" x="1735" y="-343" style="font-family:Arial;font-size:10.00;">cmath</text>
</g>
<!-- Node31&#45;&gt;Node32 -->
<g id="edge156" class="edge"><title>Node31&#45;&gt;Node32</title>
<path style="fill:none;stroke:midnightblue;" d="M1759,-392C1755,-385 1749,-374 1744,-365"/>
<polygon style="fill:midnightblue;stroke:midnightblue;" points="1747.26,-363.717 1740,-356 1740.86,-366.56 1747.26,-363.717"/>
</g>
<!-- Node33 -->
<g id="node112" class="node"><title>Node33</title>
<polygon style="fill:white;stroke:#bfbfbf;" points="1774,-336 1774,-356 1813,-356 1813,-336 1774,-336"/>
<text text-anchor="middle" x="1793" y="-343" style="font-family:Arial;font-size:10.00;">limits</text>
</g>
<!-- Node31&#45;&gt;Node33 -->
<g id="edge158" class="edge"><title>Node31&#45;&gt;Node33</title>
<path style="fill:none;stroke:midnightblue;" d="M1769,-392C1773,-385 1779,-374 1784,-365"/>
<polygon style="fill:midnightblue;stroke:midnightblue;" points="1787.14,-366.56 1788,-356 1780.74,-363.717 1787.14,-366.56"/>
</g>
</g>
</svg>
