<?xml version="1.0" encoding="UTF-8" standalone="no"?>
<!DOCTYPE svg PUBLIC "-//W3C//DTD SVG 1.0//EN"
 "http://www.w3.org/TR/2001/REC-SVG-20010904/DTD/svg10.dtd" [
 <!ATTLIST svg xmlns:xlink CDATA #FIXED "http://www.w3.org/1999/xlink">
]>
<!-- Generated by Graphviz version 2.20.2 (Tue Mar &#160;2 19:03:41 UTC 2010)
     For user: (jenkins)  -->
<!-- Title: G Pages: 1 -->
<svg width="1013pt" height="140pt"
 viewBox="0.00 0.00 1013.00 140.00" xmlns="http://www.w3.org/2000/svg" xmlns:xlink="http://www.w3.org/1999/xlink">
<g id="graph0" class="graph" transform="scale(1 1) rotate(0) translate(4 136)">
<title>G</title>
<polygon style="fill:white;stroke:white;" points="-4,4 -4,-136 1009,-136 1009,4 -4,4"/>
<!-- Node1 -->
<g id="node1" class="node"><title>Node1</title>
<polygon style="fill:#bfbfbf;stroke:black;" points="293,-112 293,-132 514,-132 514,-112 293,-112"/>
<text text-anchor="middle" x="403" y="-119" style="font-family:Arial;font-size:10.00;">ltr/feature_converters/remove_nominal_learner.h</text>
</g>
<!-- Node2 -->
<g id="node3" class="node"><title>Node2</title>
<polygon style="fill:white;stroke:#bfbfbf;" points="0,-0 0,-20 40,-20 40,-0 0,-0"/>
<text text-anchor="middle" x="20" y="-7" style="font-family:Arial;font-size:10.00;">string</text>
</g>
<!-- Node1&#45;&gt;Node2 -->
<g id="edge2" class="edge"><title>Node1&#45;&gt;Node2</title>
<path style="fill:none;stroke:midnightblue;" d="M293,-114C191,-106 53,-93 34,-76 22,-64 19,-45 19,-30"/>
<polygon style="fill:midnightblue;stroke:midnightblue;" points="22.5001,-30 19,-20 15.5001,-30 22.5001,-30"/>
</g>
<!-- Node3 -->
<g id="node5" class="node"><title>Node3</title>
<a xlink:href="remove__nominal__converter_8h.html" target="_top" xlink:title="ltr/feature_converters/remove_nominal_converter.h">
<polygon style="fill:white;stroke:black;" points="43,-56 43,-76 274,-76 274,-56 43,-56"/>
<text text-anchor="middle" x="158" y="-63" style="font-family:Arial;font-size:10.00;">ltr/feature_converters/remove_nominal_converter.h</text>
</a>
</g>
<!-- Node1&#45;&gt;Node3 -->
<g id="edge4" class="edge"><title>Node1&#45;&gt;Node3</title>
<path style="fill:none;stroke:midnightblue;" d="M359,-112C318,-103 256,-88 212,-78"/>
<polygon style="fill:midnightblue;stroke:midnightblue;" points="212.492,-74.5292 202,-76 211.119,-81.3933 212.492,-74.5292"/>
</g>
<!-- Node5 -->
<g id="node10" class="node"><title>Node5</title>
<polygon style="fill:white;stroke:#bfbfbf;" points="291,-56 291,-76 516,-76 516,-56 291,-56"/>
<text text-anchor="middle" x="403" y="-63" style="font-family:Arial;font-size:10.00;">ltr/feature_converters/feature_converter_learner.h</text>
</g>
<!-- Node1&#45;&gt;Node5 -->
<g id="edge10" class="edge"><title>Node1&#45;&gt;Node5</title>
<path style="fill:none;stroke:midnightblue;" d="M403,-112C403,-105 403,-95 403,-86"/>
<polygon style="fill:midnightblue;stroke:midnightblue;" points="406.5,-86 403,-76 399.5,-86 406.5,-86"/>
</g>
<!-- Node6 -->
<g id="node12" class="node"><title>Node6</title>
<polygon style="fill:white;stroke:#bfbfbf;" points="533,-56 533,-76 758,-76 758,-56 533,-56"/>
<text text-anchor="middle" x="645" y="-63" style="font-family:Arial;font-size:10.00;">ltr/parameters_container/parameters_container.h</text>
</g>
<!-- Node1&#45;&gt;Node6 -->
<g id="edge12" class="edge"><title>Node1&#45;&gt;Node6</title>
<path style="fill:none;stroke:midnightblue;" d="M446,-112C487,-103 548,-88 592,-78"/>
<polygon style="fill:midnightblue;stroke:midnightblue;" points="592.881,-81.3933 602,-76 591.508,-74.5292 592.881,-81.3933"/>
</g>
<!-- Node7 -->
<g id="node14" class="node"><title>Node7</title>
<polygon style="fill:white;stroke:#bfbfbf;" points="775,-56 775,-76 1006,-76 1006,-56 775,-56"/>
<text text-anchor="middle" x="890" y="-63" style="font-family:Arial;font-size:10.00;">ltr/feature_converters/remove_nominal_converter.h</text>
</g>
<!-- Node1&#45;&gt;Node7 -->
<g id="edge14" class="edge"><title>Node1&#45;&gt;Node7</title>
<path style="fill:none;stroke:midnightblue;" d="M490,-112C575,-102 705,-87 793,-77"/>
<polygon style="fill:midnightblue;stroke:midnightblue;" points="793.398,-80.4778 803,-76 792.701,-73.5125 793.398,-80.4778"/>
</g>
<!-- Node3&#45;&gt;Node2 -->
<g id="edge6" class="edge"><title>Node3&#45;&gt;Node2</title>
<path style="fill:none;stroke:midnightblue;" d="M133,-56C110,-46 75,-32 49,-22"/>
<polygon style="fill:midnightblue;stroke:midnightblue;" points="50.5596,-18.8631 40,-18 47.7166,-25.2598 50.5596,-18.8631"/>
</g>
<!-- Node4 -->
<g id="node8" class="node"><title>Node4</title>
<polygon style="fill:white;stroke:#bfbfbf;" points="63,-0 63,-20 253,-20 253,-0 63,-0"/>
<text text-anchor="middle" x="158" y="-7" style="font-family:Arial;font-size:10.00;">ltr/feature_converters/feature_converter.h</text>
</g>
<!-- Node3&#45;&gt;Node4 -->
<g id="edge8" class="edge"><title>Node3&#45;&gt;Node4</title>
<path style="fill:none;stroke:midnightblue;" d="M158,-56C158,-49 158,-39 158,-30"/>
<polygon style="fill:midnightblue;stroke:midnightblue;" points="161.5,-30 158,-20 154.5,-30 161.5,-30"/>
</g>
</g>
</svg>
