<?xml version="1.0" encoding="UTF-8" standalone="no"?>
<!DOCTYPE svg PUBLIC "-//W3C//DTD SVG 1.0//EN"
 "http://www.w3.org/TR/2001/REC-SVG-20010904/DTD/svg10.dtd" [
 <!ATTLIST svg xmlns:xlink CDATA #FIXED "http://www.w3.org/1999/xlink">
]>
<!-- Generated by Graphviz version 2.20.2 (Tue Mar &#160;2 19:03:41 UTC 2010)
     For user: (jenkins)  -->
<!-- Title: G Pages: 1 -->
<svg width="246pt" height="140pt"
 viewBox="0.00 0.00 246.00 140.00" xmlns="http://www.w3.org/2000/svg" xmlns:xlink="http://www.w3.org/1999/xlink">
<g id="graph0" class="graph" transform="scale(1 1) rotate(0) translate(4 136)">
<title>G</title>
<polygon style="fill:white;stroke:white;" points="-4,4 -4,-136 242,-136 242,4 -4,4"/>
<!-- Node1 -->
<g id="node1" class="node"><title>Node1</title>
<polygon style="fill:#bfbfbf;stroke:black;" points="20,-112 20,-132 176,-132 176,-112 20,-112"/>
<text text-anchor="middle" x="98" y="-119" style="font-family:Arial;font-size:10.00;">ltr/interfaces/reporter_unittest.cc</text>
</g>
<!-- Node2 -->
<g id="node3" class="node"><title>Node2</title>
<polygon style="fill:white;stroke:#bfbfbf;" points="0,-56 0,-76 71,-76 71,-56 0,-56"/>
<text text-anchor="middle" x="35" y="-63" style="font-family:Arial;font-size:10.00;">gtest/gtest.h</text>
</g>
<!-- Node1&#45;&gt;Node2 -->
<g id="edge2" class="edge"><title>Node1&#45;&gt;Node2</title>
<path style="fill:none;stroke:midnightblue;" d="M87,-112C78,-104 65,-93 54,-83"/>
<polygon style="fill:midnightblue;stroke:midnightblue;" points="56.546,-80.5962 47,-76 51.5962,-85.546 56.546,-80.5962"/>
</g>
<!-- Node3 -->
<g id="node5" class="node"><title>Node3</title>
<polygon style="fill:white;stroke:#bfbfbf;" points="120,-0 120,-20 160,-20 160,-0 120,-0"/>
<text text-anchor="middle" x="140" y="-7" style="font-family:Arial;font-size:10.00;">string</text>
</g>
<!-- Node1&#45;&gt;Node3 -->
<g id="edge4" class="edge"><title>Node1&#45;&gt;Node3</title>
<path style="fill:none;stroke:midnightblue;" d="M100,-112C103,-99 109,-75 117,-56 121,-47 125,-37 129,-29"/>
<polygon style="fill:midnightblue;stroke:midnightblue;" points="132.203,-30.4414 134,-20 126.084,-27.0418 132.203,-30.4414"/>
</g>
<!-- Node4 -->
<g id="node7" class="node"><title>Node4</title>
<a xlink:href="reporter_8h.html" target="_top" xlink:title="ltr/interfaces/reporter.h">
<polygon style="fill:white;stroke:black;" points="126,-56 126,-76 239,-76 239,-56 126,-56"/>
<text text-anchor="middle" x="182" y="-63" style="font-family:Arial;font-size:10.00;">ltr/interfaces/reporter.h</text>
</a>
</g>
<!-- Node1&#45;&gt;Node4 -->
<g id="edge6" class="edge"><title>Node1&#45;&gt;Node4</title>
<path style="fill:none;stroke:midnightblue;" d="M113,-112C125,-104 143,-91 158,-82"/>
<polygon style="fill:midnightblue;stroke:midnightblue;" points="160.621,-84.4592 167,-76 156.738,-78.6349 160.621,-84.4592"/>
</g>
<!-- Node4&#45;&gt;Node3 -->
<g id="edge8" class="edge"><title>Node4&#45;&gt;Node3</title>
<path style="fill:none;stroke:midnightblue;" d="M174,-56C169,-48 160,-38 154,-28"/>
<polygon style="fill:midnightblue;stroke:midnightblue;" points="156.8,-25.9 148,-20 151.2,-30.1 156.8,-25.9"/>
</g>
</g>
</svg>
