<?xml version="1.0" encoding="UTF-8" standalone="no"?>
<!DOCTYPE svg PUBLIC "-//W3C//DTD SVG 1.0//EN"
 "http://www.w3.org/TR/2001/REC-SVG-20010904/DTD/svg10.dtd" [
 <!ATTLIST svg xmlns:xlink CDATA #FIXED "http://www.w3.org/1999/xlink">
]>
<!-- Generated by Graphviz version 2.20.2 (Tue Mar &#160;2 19:03:41 UTC 2010)
     For user: (jenkins)  -->
<!-- Title: G Pages: 1 -->
<svg width="1365pt" height="420pt"
 viewBox="0.00 0.00 1365.00 420.00" xmlns="http://www.w3.org/2000/svg" xmlns:xlink="http://www.w3.org/1999/xlink">
<g id="graph0" class="graph" transform="scale(1 1) rotate(0) translate(4 416)">
<title>G</title>
<polygon style="fill:white;stroke:white;" points="-4,4 -4,-416 1361,-416 1361,4 -4,4"/>
<!-- Node1 -->
<g id="node1" class="node"><title>Node1</title>
<polygon style="fill:#bfbfbf;stroke:black;" points="903,-392 903,-412 1200,-412 1200,-392 903,-392"/>
<text text-anchor="middle" x="1051" y="-399" style="font-family:Arial;font-size:10.00;">ltr/learners/decision_tree/split_criteria/same_label_stop_criteria.h</text>
</g>
<!-- Node2 -->
<g id="node3" class="node"><title>Node2</title>
<a xlink:href="data__set_8h.html" target="_top" xlink:title="ltr/data/data_set.h">
<polygon style="fill:white;stroke:black;" points="714,-280 714,-300 809,-300 809,-280 714,-280"/>
<text text-anchor="middle" x="761" y="-287" style="font-family:Arial;font-size:10.00;">ltr/data/data_set.h</text>
</a>
</g>
<!-- Node1&#45;&gt;Node2 -->
<g id="edge2" class="edge"><title>Node1&#45;&gt;Node2</title>
<path style="fill:none;stroke:midnightblue;" d="M1013,-392C983,-383 938,-370 901,-356 861,-341 816,-319 789,-305"/>
<polygon style="fill:midnightblue;stroke:midnightblue;" points="790.441,-301.797 780,-300 787.042,-307.916 790.441,-301.797"/>
</g>
<!-- Node11 -->
<g id="node26" class="node"><title>Node11</title>
<a xlink:href="shared__ptr_8h.html" target="_top" xlink:title="ltr/utility/shared_ptr.h">
<polygon style="fill:white;stroke:black;" points="1104,-56 1104,-76 1211,-76 1211,-56 1104,-56"/>
<text text-anchor="middle" x="1157" y="-63" style="font-family:Arial;font-size:10.00;">ltr/utility/shared_ptr.h</text>
</a>
</g>
<!-- Node1&#45;&gt;Node11 -->
<g id="edge122" class="edge"><title>Node1&#45;&gt;Node11</title>
<path style="fill:none;stroke:midnightblue;" d="M1136,-392C1197,-380 1268,-352 1268,-290 1268,-290 1268,-290 1268,-178 1268,-132 1221,-98 1188,-81"/>
<polygon style="fill:midnightblue;stroke:midnightblue;" points="1189.44,-77.7969 1179,-76 1186.04,-83.916 1189.44,-77.7969"/>
</g>
<!-- Node26 -->
<g id="node84" class="node"><title>Node26</title>
<a xlink:href="stop__splitting__criteria_8h.html" target="_top" xlink:title="ltr/learners/decision_tree/split_criteria/stop_splitting_criteria.h">
<polygon style="fill:white;stroke:black;" points="910,-336 910,-356 1192,-356 1192,-336 910,-336"/>
<text text-anchor="middle" x="1051" y="-343" style="font-family:Arial;font-size:10.00;">ltr/learners/decision_tree/split_criteria/stop_splitting_criteria.h</text>
</a>
</g>
<!-- Node1&#45;&gt;Node26 -->
<g id="edge116" class="edge"><title>Node1&#45;&gt;Node26</title>
<path style="fill:none;stroke:midnightblue;" d="M1051,-392C1051,-385 1051,-375 1051,-366"/>
<polygon style="fill:midnightblue;stroke:midnightblue;" points="1054.5,-366 1051,-356 1047.5,-366 1054.5,-366"/>
</g>
<!-- Node3 -->
<g id="node5" class="node"><title>Node3</title>
<polygon style="fill:white;stroke:#bfbfbf;" points="712,-224 712,-244 763,-244 763,-224 712,-224"/>
<text text-anchor="middle" x="737" y="-231" style="font-family:Arial;font-size:10.00;">sstream</text>
</g>
<!-- Node2&#45;&gt;Node3 -->
<g id="edge4" class="edge"><title>Node2&#45;&gt;Node3</title>
<path style="fill:none;stroke:midnightblue;" d="M757,-280C754,-273 749,-262 745,-253"/>
<polygon style="fill:midnightblue;stroke:midnightblue;" points="748.26,-251.717 741,-244 741.863,-254.56 748.26,-251.717"/>
</g>
<!-- Node4 -->
<g id="node7" class="node"><title>Node4</title>
<polygon style="fill:white;stroke:#bfbfbf;" points="604,-56 604,-76 663,-76 663,-56 604,-56"/>
<text text-anchor="middle" x="633" y="-63" style="font-family:Arial;font-size:10.00;">stdexcept</text>
</g>
<!-- Node2&#45;&gt;Node4 -->
<g id="edge6" class="edge"><title>Node2&#45;&gt;Node4</title>
<path style="fill:none;stroke:midnightblue;" d="M714,-283C628,-270 452,-238 420,-188 376,-117 521,-84 594,-72"/>
<polygon style="fill:midnightblue;stroke:midnightblue;" points="594.881,-75.3933 604,-70 593.508,-68.5292 594.881,-75.3933"/>
</g>
<!-- Node5 -->
<g id="node9" class="node"><title>Node5</title>
<polygon style="fill:white;stroke:#bfbfbf;" points="556,-0 556,-20 596,-20 596,-0 556,-0"/>
<text text-anchor="middle" x="576" y="-7" style="font-family:Arial;font-size:10.00;">string</text>
</g>
<!-- Node2&#45;&gt;Node5 -->
<g id="edge8" class="edge"><title>Node2&#45;&gt;Node5</title>
<path style="fill:none;stroke:midnightblue;" d="M714,-288C548,-280 0,-250 0,-178 0,-178 0,-178 0,-122 0,-72 44,-73 89,-56 174,-23 453,-14 546,-10"/>
<polygon style="fill:midnightblue;stroke:midnightblue;" points="546,-13.5001 556,-10 546,-6.5001 546,-13.5001"/>
</g>
<!-- Node6 -->
<g id="node11" class="node"><title>Node6</title>
<polygon style="fill:white;stroke:#bfbfbf;" points="770,-56 770,-76 812,-76 812,-56 770,-56"/>
<text text-anchor="middle" x="791" y="-63" style="font-family:Arial;font-size:10.00;">vector</text>
</g>
<!-- Node2&#45;&gt;Node6 -->
<g id="edge10" class="edge"><title>Node2&#45;&gt;Node6</title>
<path style="fill:none;stroke:midnightblue;" d="M741,-280C727,-272 711,-260 703,-244 699,-235 700,-232 703,-224 717,-169 755,-112 777,-84"/>
<polygon style="fill:midnightblue;stroke:midnightblue;" points="779.8,-86.1 783,-76 774.2,-81.9 779.8,-86.1"/>
</g>
<!-- Node7 -->
<g id="node13" class="node"><title>Node7</title>
<a xlink:href="object_8h.html" target="_top" xlink:title="ltr/data/object.h">
<polygon style="fill:white;stroke:black;" points="852,-112 852,-132 936,-132 936,-112 852,-112"/>
<text text-anchor="middle" x="894" y="-119" style="font-family:Arial;font-size:10.00;">ltr/data/object.h</text>
</a>
</g>
<!-- Node2&#45;&gt;Node7 -->
<g id="edge12" class="edge"><title>Node2&#45;&gt;Node7</title>
<path style="fill:none;stroke:midnightblue;" d="M809,-286C865,-281 952,-269 973,-244 988,-225 939,-168 911,-139"/>
<polygon style="fill:midnightblue;stroke:midnightblue;" points="913.546,-136.596 904,-132 908.596,-141.546 913.546,-136.596"/>
</g>
<!-- Node15 -->
<g id="node34" class="node"><title>Node15</title>
<a xlink:href="object__list_8h.html" target="_top" xlink:title="ltr/data/object_list.h">
<polygon style="fill:white;stroke:black;" points="751,-168 751,-188 853,-188 853,-168 751,-168"/>
<text text-anchor="middle" x="802" y="-175" style="font-family:Arial;font-size:10.00;">ltr/data/object_list.h</text>
</a>
</g>
<!-- Node2&#45;&gt;Node15 -->
<g id="edge38" class="edge"><title>Node2&#45;&gt;Node15</title>
<path style="fill:none;stroke:midnightblue;" d="M765,-280C772,-261 786,-222 794,-198"/>
<polygon style="fill:midnightblue;stroke:midnightblue;" points="797.536,-198.585 798,-188 791.036,-195.985 797.536,-198.585"/>
</g>
<!-- Node16 -->
<g id="node42" class="node"><title>Node16</title>
<a xlink:href="object__pair_8h.html" target="_top" xlink:title="ltr/data/object_pair.h">
<polygon style="fill:white;stroke:black;" points="978,-168 978,-188 1082,-188 1082,-168 978,-168"/>
<text text-anchor="middle" x="1030" y="-175" style="font-family:Arial;font-size:10.00;">ltr/data/object_pair.h</text>
</a>
</g>
<!-- Node2&#45;&gt;Node16 -->
<g id="edge52" class="edge"><title>Node2&#45;&gt;Node16</title>
<path style="fill:none;stroke:midnightblue;" d="M809,-286C872,-281 976,-268 1006,-244 1019,-232 1025,-213 1027,-198"/>
<polygon style="fill:midnightblue;stroke:midnightblue;" points="1030.47,-198.492 1029,-188 1023.61,-197.119 1030.47,-198.492"/>
</g>
<!-- Node17 -->
<g id="node50" class="node"><title>Node17</title>
<a xlink:href="feature__info_8h.html" target="_top" xlink:title="ltr/data/feature_info.h">
<polygon style="fill:white;stroke:black;" points="548,-224 548,-244 655,-244 655,-224 548,-224"/>
<text text-anchor="middle" x="601" y="-231" style="font-family:Arial;font-size:10.00;">ltr/data/feature_info.h</text>
</a>
</g>
<!-- Node2&#45;&gt;Node17 -->
<g id="edge66" class="edge"><title>Node2&#45;&gt;Node17</title>
<path style="fill:none;stroke:midnightblue;" d="M732,-280C706,-271 668,-257 640,-247"/>
<polygon style="fill:midnightblue;stroke:midnightblue;" points="640.584,-243.521 630,-244 638.573,-250.226 640.584,-243.521"/>
</g>
<!-- Node24 -->
<g id="node74" class="node"><title>Node24</title>
<a xlink:href="per__object__accessor_8h.html" target="_top" xlink:title="ltr/data/per_object_accessor.h">
<polygon style="fill:white;stroke:black;" points="818,-224 818,-244 965,-244 965,-224 818,-224"/>
<text text-anchor="middle" x="891" y="-231" style="font-family:Arial;font-size:10.00;">ltr/data/per_object_accessor.h</text>
</a>
</g>
<!-- Node2&#45;&gt;Node24 -->
<g id="edge100" class="edge"><title>Node2&#45;&gt;Node24</title>
<path style="fill:none;stroke:midnightblue;" d="M784,-280C805,-271 835,-258 858,-248"/>
<polygon style="fill:midnightblue;stroke:midnightblue;" points="860.015,-250.964 868,-244 857.415,-244.464 860.015,-250.964"/>
</g>
<!-- Node25 -->
<g id="node81" class="node"><title>Node25</title>
<a xlink:href="aliaser_8h.html" target="_top" xlink:title="ltr/interfaces/aliaser.h">
<polygon style="fill:white;stroke:black;" points="28,-112 28,-132 136,-132 136,-112 28,-112"/>
<text text-anchor="middle" x="82" y="-119" style="font-family:Arial;font-size:10.00;">ltr/interfaces/aliaser.h</text>
</a>
</g>
<!-- Node2&#45;&gt;Node25 -->
<g id="edge112" class="edge"><title>Node2&#45;&gt;Node25</title>
<path style="fill:none;stroke:midnightblue;" d="M714,-287C621,-279 416,-262 349,-244 256,-218 155,-164 108,-137"/>
<polygon style="fill:midnightblue;stroke:midnightblue;" points="109.441,-133.797 99,-132 106.042,-139.916 109.441,-133.797"/>
</g>
<!-- Node7&#45;&gt;Node4 -->
<g id="edge18" class="edge"><title>Node7&#45;&gt;Node4</title>
<path style="fill:none;stroke:midnightblue;" d="M852,-114C809,-105 740,-92 673,-76"/>
<polygon style="fill:midnightblue;stroke:midnightblue;" points="673.492,-72.5292 663,-74 672.119,-79.3933 673.492,-72.5292"/>
</g>
<!-- Node7&#45;&gt;Node5 -->
<g id="edge20" class="edge"><title>Node7&#45;&gt;Node5</title>
<path style="fill:none;stroke:midnightblue;" d="M886,-112C873,-97 848,-69 821,-56 783,-37 663,-20 606,-13"/>
<polygon style="fill:midnightblue;stroke:midnightblue;" points="606.299,-9.5125 596,-12 605.602,-16.4778 606.299,-9.5125"/>
</g>
<!-- Node7&#45;&gt;Node6 -->
<g id="edge22" class="edge"><title>Node7&#45;&gt;Node6</title>
<path style="fill:none;stroke:midnightblue;" d="M876,-112C860,-104 837,-91 819,-81"/>
<polygon style="fill:midnightblue;stroke:midnightblue;" points="820.441,-77.7969 810,-76 817.042,-83.916 820.441,-77.7969"/>
</g>
<!-- Node8 -->
<g id="node15" class="node"><title>Node8</title>
<polygon style="fill:white;stroke:#bfbfbf;" points="680,-56 680,-76 715,-76 715,-56 680,-56"/>
<text text-anchor="middle" x="697" y="-63" style="font-family:Arial;font-size:10.00;">map</text>
</g>
<!-- Node7&#45;&gt;Node8 -->
<g id="edge14" class="edge"><title>Node7&#45;&gt;Node8</title>
<path style="fill:none;stroke:midnightblue;" d="M859,-112C821,-101 760,-84 725,-74"/>
<polygon style="fill:midnightblue;stroke:midnightblue;" points="725.584,-70.5212 715,-71 723.573,-77.2259 725.584,-70.5212"/>
</g>
<!-- Node9 -->
<g id="node17" class="node"><title>Node9</title>
<polygon style="fill:white;stroke:#bfbfbf;" points="901,-0 901,-20 952,-20 952,-0 901,-0"/>
<text text-anchor="middle" x="926" y="-7" style="font-family:Arial;font-size:10.00;">ostream</text>
</g>
<!-- Node7&#45;&gt;Node9 -->
<g id="edge16" class="edge"><title>Node7&#45;&gt;Node9</title>
<path style="fill:none;stroke:midnightblue;" d="M936,-113C957,-106 980,-95 993,-76 1005,-56 982,-37 959,-25"/>
<polygon style="fill:midnightblue;stroke:midnightblue;" points="960.441,-21.7969 950,-20 957.042,-27.916 960.441,-21.7969"/>
</g>
<!-- Node10 -->
<g id="node22" class="node"><title>Node10</title>
<a xlink:href="printable_8h.html" target="_top" xlink:title="ltr/interfaces/printable.h">
<polygon style="fill:white;stroke:black;" points="868,-56 868,-76 985,-76 985,-56 868,-56"/>
<text text-anchor="middle" x="926" y="-63" style="font-family:Arial;font-size:10.00;">ltr/interfaces/printable.h</text>
</a>
</g>
<!-- Node7&#45;&gt;Node10 -->
<g id="edge24" class="edge"><title>Node7&#45;&gt;Node10</title>
<path style="fill:none;stroke:midnightblue;" d="M900,-112C905,-105 910,-94 915,-85"/>
<polygon style="fill:midnightblue;stroke:midnightblue;" points="918.203,-86.4414 920,-76 912.084,-83.0418 918.203,-86.4414"/>
</g>
<!-- Node7&#45;&gt;Node11 -->
<g id="edge30" class="edge"><title>Node7&#45;&gt;Node11</title>
<path style="fill:none;stroke:midnightblue;" d="M936,-113C981,-104 1050,-89 1100,-78"/>
<polygon style="fill:midnightblue;stroke:midnightblue;" points="1100.88,-81.3933 1110,-76 1099.51,-74.5292 1100.88,-81.3933"/>
</g>
<!-- Node10&#45;&gt;Node5 -->
<g id="edge28" class="edge"><title>Node10&#45;&gt;Node5</title>
<path style="fill:none;stroke:midnightblue;" d="M868,-57C793,-45 664,-25 606,-15"/>
<polygon style="fill:midnightblue;stroke:midnightblue;" points="606.492,-11.5292 596,-13 605.119,-18.3933 606.492,-11.5292"/>
</g>
<!-- Node10&#45;&gt;Node9 -->
<g id="edge26" class="edge"><title>Node10&#45;&gt;Node9</title>
<path style="fill:none;stroke:midnightblue;" d="M926,-56C926,-49 926,-39 926,-30"/>
<polygon style="fill:midnightblue;stroke:midnightblue;" points="929.5,-30 926,-20 922.5,-30 929.5,-30"/>
</g>
<!-- Node12 -->
<g id="node28" class="node"><title>Node12</title>
<polygon style="fill:white;stroke:#bfbfbf;" points="1301,-0 1301,-20 1357,-20 1357,-0 1301,-0"/>
<text text-anchor="middle" x="1329" y="-7" style="font-family:Arial;font-size:10.00;">algorithm</text>
</g>
<!-- Node11&#45;&gt;Node12 -->
<g id="edge32" class="edge"><title>Node11&#45;&gt;Node12</title>
<path style="fill:none;stroke:midnightblue;" d="M1188,-56C1217,-47 1260,-32 1291,-22"/>
<polygon style="fill:midnightblue;stroke:midnightblue;" points="1292.43,-25.2259 1301,-19 1290.42,-18.5212 1292.43,-25.2259"/>
</g>
<!-- Node13 -->
<g id="node30" class="node"><title>Node13</title>
<polygon style="fill:white;stroke:#bfbfbf;" points="969,-0 969,-20 1076,-20 1076,-0 969,-0"/>
<text text-anchor="middle" x="1022" y="-7" style="font-family:Arial;font-size:10.00;">boost/shared_ptr.hpp</text>
</g>
<!-- Node11&#45;&gt;Node13 -->
<g id="edge34" class="edge"><title>Node11&#45;&gt;Node13</title>
<path style="fill:none;stroke:midnightblue;" d="M1133,-56C1111,-47 1080,-34 1056,-24"/>
<polygon style="fill:midnightblue;stroke:midnightblue;" points="1056.58,-20.4643 1046,-20 1053.98,-26.9636 1056.58,-20.4643"/>
</g>
<!-- Node14 -->
<g id="node32" class="node"><title>Node14</title>
<polygon style="fill:white;stroke:#bfbfbf;" points="1093,-0 1093,-20 1284,-20 1284,-0 1093,-0"/>
<text text-anchor="middle" x="1188" y="-7" style="font-family:Arial;font-size:10.00;">boost/smart_ptr/detail/operator_bool.hpp</text>
</g>
<!-- Node11&#45;&gt;Node14 -->
<g id="edge36" class="edge"><title>Node11&#45;&gt;Node14</title>
<path style="fill:none;stroke:midnightblue;" d="M1163,-56C1167,-49 1173,-38 1177,-29"/>
<polygon style="fill:midnightblue;stroke:midnightblue;" points="1180.2,-30.4414 1182,-20 1174.08,-27.0418 1180.2,-30.4414"/>
</g>
<!-- Node15&#45;&gt;Node4 -->
<g id="edge40" class="edge"><title>Node15&#45;&gt;Node4</title>
<path style="fill:none;stroke:midnightblue;" d="M751,-172C702,-165 636,-152 620,-132 609,-118 615,-99 621,-85"/>
<polygon style="fill:midnightblue;stroke:midnightblue;" points="624.203,-86.4414 626,-76 618.084,-83.0418 624.203,-86.4414"/>
</g>
<!-- Node15&#45;&gt;Node5 -->
<g id="edge42" class="edge"><title>Node15&#45;&gt;Node5</title>
<path style="fill:none;stroke:midnightblue;" d="M798,-168C789,-144 763,-87 723,-56 688,-29 638,-18 606,-13"/>
<polygon style="fill:midnightblue;stroke:midnightblue;" points="606.299,-9.5125 596,-12 605.602,-16.4778 606.299,-9.5125"/>
</g>
<!-- Node15&#45;&gt;Node6 -->
<g id="edge44" class="edge"><title>Node15&#45;&gt;Node6</title>
<path style="fill:none;stroke:midnightblue;" d="M801,-168C799,-149 795,-110 793,-86"/>
<polygon style="fill:midnightblue;stroke:midnightblue;" points="796.478,-85.6021 792,-76 789.512,-86.2987 796.478,-85.6021"/>
</g>
<!-- Node15&#45;&gt;Node7 -->
<g id="edge46" class="edge"><title>Node15&#45;&gt;Node7</title>
<path style="fill:none;stroke:midnightblue;" d="M818,-168C832,-160 853,-147 868,-137"/>
<polygon style="fill:midnightblue;stroke:midnightblue;" points="869.958,-139.916 877,-132 866.559,-133.797 869.958,-139.916"/>
</g>
<!-- Node15&#45;&gt;Node10 -->
<g id="edge48" class="edge"><title>Node15&#45;&gt;Node10</title>
<path style="fill:none;stroke:midnightblue;" d="M806,-168C812,-154 825,-128 843,-112 856,-99 875,-88 891,-80"/>
<polygon style="fill:midnightblue;stroke:midnightblue;" points="892.283,-83.2598 900,-76 889.44,-76.8631 892.283,-83.2598"/>
</g>
<!-- Node15&#45;&gt;Node11 -->
<g id="edge50" class="edge"><title>Node15&#45;&gt;Node11</title>
<path style="fill:none;stroke:midnightblue;" d="M834,-168C898,-147 1043,-101 1115,-79"/>
<polygon style="fill:midnightblue;stroke:midnightblue;" points="1116.43,-82.2259 1125,-76 1114.42,-75.5212 1116.43,-82.2259"/>
</g>
<!-- Node16&#45;&gt;Node4 -->
<g id="edge54" class="edge"><title>Node16&#45;&gt;Node4</title>
<path style="fill:none;stroke:midnightblue;" d="M986,-168C948,-159 891,-146 843,-132 783,-115 715,-93 673,-79"/>
<polygon style="fill:midnightblue;stroke:midnightblue;" points="673.584,-75.5212 663,-76 671.573,-82.2259 673.584,-75.5212"/>
</g>
<!-- Node16&#45;&gt;Node5 -->
<g id="edge56" class="edge"><title>Node16&#45;&gt;Node5</title>
<path style="fill:none;stroke:midnightblue;" d="M1030,-168C1030,-144 1027,-84 993,-56 963,-31 697,-16 606,-12"/>
<polygon style="fill:midnightblue;stroke:midnightblue;" points="606.299,-8.5125 596,-11 605.602,-15.4778 606.299,-8.5125"/>
</g>
<!-- Node16&#45;&gt;Node6 -->
<g id="edge58" class="edge"><title>Node16&#45;&gt;Node6</title>
<path style="fill:none;stroke:midnightblue;" d="M1020,-168C1005,-153 975,-127 945,-112 905,-91 854,-79 822,-72"/>
<polygon style="fill:midnightblue;stroke:midnightblue;" points="822.492,-68.5292 812,-70 821.119,-75.3933 822.492,-68.5292"/>
</g>
<!-- Node16&#45;&gt;Node7 -->
<g id="edge60" class="edge"><title>Node16&#45;&gt;Node7</title>
<path style="fill:none;stroke:midnightblue;" d="M1006,-168C984,-159 952,-146 928,-136"/>
<polygon style="fill:midnightblue;stroke:midnightblue;" points="929.56,-132.863 919,-132 926.717,-139.26 929.56,-132.863"/>
</g>
<!-- Node16&#45;&gt;Node10 -->
<g id="edge62" class="edge"><title>Node16&#45;&gt;Node10</title>
<path style="fill:none;stroke:midnightblue;" d="M1023,-168C1013,-154 995,-130 978,-112 968,-102 956,-91 947,-83"/>
<polygon style="fill:midnightblue;stroke:midnightblue;" points="948.831,-79.9511 939,-76 944.221,-85.2191 948.831,-79.9511"/>
</g>
<!-- Node16&#45;&gt;Node11 -->
<g id="edge64" class="edge"><title>Node16&#45;&gt;Node11</title>
<path style="fill:none;stroke:midnightblue;" d="M1045,-168C1058,-159 1077,-145 1092,-132 1109,-116 1128,-97 1141,-84"/>
<polygon style="fill:midnightblue;stroke:midnightblue;" points="1144.05,-85.8306 1148,-76 1138.78,-81.221 1144.05,-85.8306"/>
</g>
<!-- Node17&#45;&gt;Node5 -->
<g id="edge70" class="edge"><title>Node17&#45;&gt;Node5</title>
<path style="fill:none;stroke:midnightblue;" d="M548,-231C410,-220 57,-181 169,-56 195,-28 456,-15 546,-11"/>
<polygon style="fill:midnightblue;stroke:midnightblue;" points="546,-14.5001 556,-11 546,-7.5001 546,-14.5001"/>
</g>
<!-- Node17&#45;&gt;Node6 -->
<g id="edge72" class="edge"><title>Node17&#45;&gt;Node6</title>
<path style="fill:none;stroke:midnightblue;" d="M608,-224C628,-196 685,-120 696,-112 715,-96 740,-84 760,-76"/>
<polygon style="fill:midnightblue;stroke:midnightblue;" points="761.427,-79.2259 770,-73 759.416,-72.5212 761.427,-79.2259"/>
</g>
<!-- Node17&#45;&gt;Node8 -->
<g id="edge68" class="edge"><title>Node17&#45;&gt;Node8</title>
<path style="fill:none;stroke:midnightblue;" d="M605,-224C613,-202 633,-150 658,-112 664,-102 672,-92 680,-83"/>
<polygon style="fill:midnightblue;stroke:midnightblue;" points="682.404,-85.546 687,-76 677.454,-80.5962 682.404,-85.546"/>
</g>
<!-- Node17&#45;&gt;Node11 -->
<g id="edge98" class="edge"><title>Node17&#45;&gt;Node11</title>
<path style="fill:none;stroke:midnightblue;" d="M655,-228C671,-227 687,-225 703,-224 789,-215 1018,-235 1091,-188 1126,-164 1144,-114 1152,-86"/>
<polygon style="fill:midnightblue;stroke:midnightblue;" points="1155.48,-86.584 1155,-76 1148.77,-84.5725 1155.48,-86.584"/>
</g>
<!-- Node18 -->
<g id="node55" class="node"><title>Node18</title>
<a xlink:href="parameterized_8h.html" target="_top" xlink:title="ltr/interfaces/parameterized.h">
<polygon style="fill:white;stroke:black;" points="429,-168 429,-188 571,-188 571,-168 429,-168"/>
<text text-anchor="middle" x="500" y="-175" style="font-family:Arial;font-size:10.00;">ltr/interfaces/parameterized.h</text>
</a>
</g>
<!-- Node17&#45;&gt;Node18 -->
<g id="edge74" class="edge"><title>Node17&#45;&gt;Node18</title>
<path style="fill:none;stroke:midnightblue;" d="M583,-224C568,-215 545,-203 527,-193"/>
<polygon style="fill:midnightblue;stroke:midnightblue;" points="528.441,-189.797 518,-188 525.042,-195.916 528.441,-189.797"/>
</g>
<!-- Node18&#45;&gt;Node4 -->
<g id="edge76" class="edge"><title>Node18&#45;&gt;Node4</title>
<path style="fill:none;stroke:midnightblue;" d="M505,-168C511,-154 525,-128 544,-112 559,-99 579,-88 596,-80"/>
<polygon style="fill:midnightblue;stroke:midnightblue;" points="597.283,-83.2598 605,-76 594.44,-76.8631 597.283,-83.2598"/>
</g>
<!-- Node18&#45;&gt;Node5 -->
<g id="edge78" class="edge"><title>Node18&#45;&gt;Node5</title>
<path style="fill:none;stroke:midnightblue;" d="M501,-168C503,-154 508,-130 519,-112 531,-92 544,-95 557,-76 565,-62 570,-44 573,-30"/>
<polygon style="fill:midnightblue;stroke:midnightblue;" points="576.471,-30.4922 575,-20 569.607,-29.1194 576.471,-30.4922"/>
</g>
<!-- Node19 -->
<g id="node59" class="node"><title>Node19</title>
<a xlink:href="parameters__container_8h.html" target="_top" xlink:title="ltr/parameters_container/parameters_container.h">
<polygon style="fill:white;stroke:black;" points="192,-112 192,-132 417,-132 417,-112 192,-112"/>
<text text-anchor="middle" x="304" y="-119" style="font-family:Arial;font-size:10.00;">ltr/parameters_container/parameters_container.h</text>
</a>
</g>
<!-- Node18&#45;&gt;Node19 -->
<g id="edge80" class="edge"><title>Node18&#45;&gt;Node19</title>
<path style="fill:none;stroke:midnightblue;" d="M465,-168C433,-159 384,-145 349,-135"/>
<polygon style="fill:midnightblue;stroke:midnightblue;" points="349.584,-131.521 339,-132 347.573,-138.226 349.584,-131.521"/>
</g>
<!-- Node19&#45;&gt;Node4 -->
<g id="edge86" class="edge"><title>Node19&#45;&gt;Node4</title>
<path style="fill:none;stroke:midnightblue;" d="M363,-112C429,-101 536,-82 594,-73"/>
<polygon style="fill:midnightblue;stroke:midnightblue;" points="594.881,-76.3933 604,-71 593.508,-69.5292 594.881,-76.3933"/>
</g>
<!-- Node19&#45;&gt;Node5 -->
<g id="edge88" class="edge"><title>Node19&#45;&gt;Node5</title>
<path style="fill:none;stroke:midnightblue;" d="M248,-112C204,-102 154,-84 179,-56 204,-28 457,-15 546,-11"/>
<polygon style="fill:midnightblue;stroke:midnightblue;" points="546,-14.5001 556,-11 546,-7.5001 546,-14.5001"/>
</g>
<!-- Node19&#45;&gt;Node10 -->
<g id="edge96" class="edge"><title>Node19&#45;&gt;Node10</title>
<path style="fill:none;stroke:midnightblue;" d="M417,-112C522,-103 682,-89 821,-76 833,-74 846,-73 858,-72"/>
<polygon style="fill:midnightblue;stroke:midnightblue;" points="858.398,-75.4778 868,-71 857.701,-68.5125 858.398,-75.4778"/>
</g>
<!-- Node19&#45;&gt;Node11 -->
<g id="edge94" class="edge"><title>Node19&#45;&gt;Node11</title>
<path style="fill:none;stroke:midnightblue;" d="M417,-115C599,-102 950,-79 1094,-70"/>
<polygon style="fill:midnightblue;stroke:midnightblue;" points="1094.4,-73.4778 1104,-69 1093.7,-66.5125 1094.4,-73.4778"/>
</g>
<!-- Node20 -->
<g id="node61" class="node"><title>Node20</title>
<polygon style="fill:white;stroke:#bfbfbf;" points="188,-56 188,-76 262,-76 262,-56 188,-56"/>
<text text-anchor="middle" x="225" y="-63" style="font-family:Arial;font-size:10.00;">logog/logog.h</text>
</g>
<!-- Node19&#45;&gt;Node20 -->
<g id="edge82" class="edge"><title>Node19&#45;&gt;Node20</title>
<path style="fill:none;stroke:midnightblue;" d="M290,-112C278,-104 261,-91 247,-82"/>
<polygon style="fill:midnightblue;stroke:midnightblue;" points="249.1,-79.2 239,-76 244.9,-84.8 249.1,-79.2"/>
</g>
<!-- Node21 -->
<g id="node63" class="node"><title>Node21</title>
<polygon style="fill:white;stroke:#bfbfbf;" points="280,-56 280,-76 309,-76 309,-56 280,-56"/>
<text text-anchor="middle" x="294" y="-63" style="font-family:Arial;font-size:10.00;">list</text>
</g>
<!-- Node19&#45;&gt;Node21 -->
<g id="edge84" class="edge"><title>Node19&#45;&gt;Node21</title>
<path style="fill:none;stroke:midnightblue;" d="M302,-112C301,-105 299,-95 297,-86"/>
<polygon style="fill:midnightblue;stroke:midnightblue;" points="300.478,-85.6021 296,-76 293.512,-86.2987 300.478,-85.6021"/>
</g>
<!-- Node22 -->
<g id="node67" class="node"><title>Node22</title>
<polygon style="fill:white;stroke:#bfbfbf;" points="326,-56 326,-76 403,-76 403,-56 326,-56"/>
<text text-anchor="middle" x="364" y="-63" style="font-family:Arial;font-size:10.00;">boost/any.hpp</text>
</g>
<!-- Node19&#45;&gt;Node22 -->
<g id="edge90" class="edge"><title>Node19&#45;&gt;Node22</title>
<path style="fill:none;stroke:midnightblue;" d="M315,-112C324,-104 336,-93 346,-83"/>
<polygon style="fill:midnightblue;stroke:midnightblue;" points="348.404,-85.546 353,-76 343.454,-80.5962 348.404,-85.546"/>
</g>
<!-- Node23 -->
<g id="node69" class="node"><title>Node23</title>
<polygon style="fill:white;stroke:#bfbfbf;" points="420,-56 420,-76 549,-76 549,-56 420,-56"/>
<text text-anchor="middle" x="484" y="-63" style="font-family:Arial;font-size:10.00;">boost/unordered_map.hpp</text>
</g>
<!-- Node19&#45;&gt;Node23 -->
<g id="edge92" class="edge"><title>Node19&#45;&gt;Node23</title>
<path style="fill:none;stroke:midnightblue;" d="M336,-112C366,-103 410,-89 442,-79"/>
<polygon style="fill:midnightblue;stroke:midnightblue;" points="443.427,-82.2259 452,-76 441.416,-75.5212 443.427,-82.2259"/>
</g>
<!-- Node24&#45;&gt;Node7 -->
<g id="edge102" class="edge"><title>Node24&#45;&gt;Node7</title>
<path style="fill:none;stroke:midnightblue;" d="M891,-224C892,-205 893,-166 894,-142"/>
<polygon style="fill:midnightblue;stroke:midnightblue;" points="897.5,-142 894,-132 890.5,-142 897.5,-142"/>
</g>
<!-- Node24&#45;&gt;Node11 -->
<g id="edge110" class="edge"><title>Node24&#45;&gt;Node11</title>
<path style="fill:none;stroke:midnightblue;" d="M965,-226C1043,-218 1154,-203 1168,-188 1192,-159 1177,-112 1166,-85"/>
<polygon style="fill:midnightblue;stroke:midnightblue;" points="1169.26,-83.7166 1162,-76 1162.86,-86.5596 1169.26,-83.7166"/>
</g>
<!-- Node24&#45;&gt;Node15 -->
<g id="edge106" class="edge"><title>Node24&#45;&gt;Node15</title>
<path style="fill:none;stroke:midnightblue;" d="M875,-224C862,-216 842,-203 827,-193"/>
<polygon style="fill:midnightblue;stroke:midnightblue;" points="828.441,-189.797 818,-188 825.042,-195.916 828.441,-189.797"/>
</g>
<!-- Node24&#45;&gt;Node16 -->
<g id="edge104" class="edge"><title>Node24&#45;&gt;Node16</title>
<path style="fill:none;stroke:midnightblue;" d="M916,-224C938,-215 971,-202 996,-192"/>
<polygon style="fill:midnightblue;stroke:midnightblue;" points="997.283,-195.26 1005,-188 994.44,-188.863 997.283,-195.26"/>
</g>
<!-- Node24&#45;&gt;Node18 -->
<g id="edge108" class="edge"><title>Node24&#45;&gt;Node18</title>
<path style="fill:none;stroke:midnightblue;" d="M821,-224C753,-214 651,-199 580,-189"/>
<polygon style="fill:midnightblue;stroke:midnightblue;" points="580.299,-185.512 570,-188 579.602,-192.478 580.299,-185.512"/>
</g>
<!-- Node25&#45;&gt;Node5 -->
<g id="edge114" class="edge"><title>Node25&#45;&gt;Node5</title>
<path style="fill:none;stroke:midnightblue;" d="M83,-112C85,-97 90,-69 108,-56 144,-29 448,-15 546,-11"/>
<polygon style="fill:midnightblue;stroke:midnightblue;" points="546,-14.5001 556,-11 546,-7.5001 546,-14.5001"/>
</g>
<!-- Node26&#45;&gt;Node2 -->
<g id="edge118" class="edge"><title>Node26&#45;&gt;Node2</title>
<path style="fill:none;stroke:midnightblue;" d="M999,-336C948,-327 872,-311 819,-301"/>
<polygon style="fill:midnightblue;stroke:midnightblue;" points="819.492,-297.529 809,-299 818.119,-304.393 819.492,-297.529"/>
</g>
<!-- Node26&#45;&gt;Node11 -->
<g id="edge120" class="edge"><title>Node26&#45;&gt;Node11</title>
<path style="fill:none;stroke:midnightblue;" d="M1104,-336C1157,-323 1230,-293 1230,-234 1230,-234 1230,-234 1230,-178 1230,-139 1199,-103 1177,-83"/>
<polygon style="fill:midnightblue;stroke:midnightblue;" points="1179.55,-80.5962 1170,-76 1174.6,-85.546 1179.55,-80.5962"/>
</g>
</g>
</svg>
