<?xml version="1.0" encoding="UTF-8" standalone="no"?>
<!DOCTYPE svg PUBLIC "-//W3C//DTD SVG 1.0//EN"
 "http://www.w3.org/TR/2001/REC-SVG-20010904/DTD/svg10.dtd" [
 <!ATTLIST svg xmlns:xlink CDATA #FIXED "http://www.w3.org/1999/xlink">
]>
<!-- Generated by Graphviz version 2.20.2 (Tue Mar &#160;2 19:03:41 UTC 2010)
     For user: (jenkins)  -->
<!-- Title: G Pages: 1 -->
<svg width="426pt" height="84pt"
 viewBox="0.00 0.00 426.00 84.00" xmlns="http://www.w3.org/2000/svg" xmlns:xlink="http://www.w3.org/1999/xlink">
<g id="graph0" class="graph" transform="scale(1 1) rotate(0) translate(4 80)">
<title>G</title>
<polygon style="fill:white;stroke:white;" points="-4,4 -4,-80 422,-80 422,4 -4,4"/>
<!-- Node1 -->
<g id="node1" class="node"><title>Node1</title>
<polygon style="fill:#bfbfbf;stroke:black;" points="106,-56 106,-76 409,-76 409,-56 106,-56"/>
<text text-anchor="middle" x="257" y="-63" style="font-family:Arial;font-size:10.00;">ltr/learners/decision_tree/split_criteria/same_label_stop_criteria.cc</text>
</g>
<!-- Node2 -->
<g id="node3" class="node"><title>Node2</title>
<polygon style="fill:white;stroke:#bfbfbf;" points="0,-0 0,-20 297,-20 297,-0 0,-0"/>
<text text-anchor="middle" x="148" y="-7" style="font-family:Arial;font-size:10.00;">ltr/learners/decision_tree/split_criteria/same_label_stop_criteria.h</text>
</g>
<!-- Node1&#45;&gt;Node2 -->
<g id="edge2" class="edge"><title>Node1&#45;&gt;Node2</title>
<path style="fill:none;stroke:midnightblue;" d="M238,-56C221,-47 196,-34 177,-25"/>
<polygon style="fill:midnightblue;stroke:midnightblue;" points="178.441,-21.7969 168,-20 175.042,-27.916 178.441,-21.7969"/>
</g>
<!-- Node3 -->
<g id="node5" class="node"><title>Node3</title>
<polygon style="fill:white;stroke:#bfbfbf;" points="314,-0 314,-20 418,-20 418,-0 314,-0"/>
<text text-anchor="middle" x="366" y="-7" style="font-family:Arial;font-size:10.00;">ltr/utility/numerical.h</text>
</g>
<!-- Node1&#45;&gt;Node3 -->
<g id="edge4" class="edge"><title>Node1&#45;&gt;Node3</title>
<path style="fill:none;stroke:midnightblue;" d="M276,-56C293,-47 318,-34 337,-25"/>
<polygon style="fill:midnightblue;stroke:midnightblue;" points="338.958,-27.916 346,-20 335.559,-21.7969 338.958,-27.916"/>
</g>
</g>
</svg>
