<?xml version="1.0" encoding="UTF-8" standalone="no"?>
<!DOCTYPE svg PUBLIC "-//W3C//DTD SVG 1.0//EN"
 "http://www.w3.org/TR/2001/REC-SVG-20010904/DTD/svg10.dtd" [
 <!ATTLIST svg xmlns:xlink CDATA #FIXED "http://www.w3.org/1999/xlink">
]>
<!-- Generated by Graphviz version 2.20.2 (Tue Mar &#160;2 19:03:41 UTC 2010)
     For user: (jenkins)  -->
<!-- Title: G Pages: 1 -->
<svg width="780pt" height="84pt"
 viewBox="0.00 0.00 780.00 84.00" xmlns="http://www.w3.org/2000/svg" xmlns:xlink="http://www.w3.org/1999/xlink">
<g id="graph0" class="graph" transform="scale(1 1) rotate(0) translate(4 80)">
<title>G</title>
<polygon style="fill:white;stroke:white;" points="-4,4 -4,-80 776,-80 776,4 -4,4"/>
<!-- Node1 -->
<g id="node1" class="node"><title>Node1</title>
<polygon style="fill:#bfbfbf;stroke:black;" points="255,-56 255,-76 552,-76 552,-56 255,-56"/>
<text text-anchor="middle" x="403" y="-63" style="font-family:Arial;font-size:10.00;">ltr/learners/decision_tree/split_criteria/same_label_stop_criteria.h</text>
</g>
<!-- Node2 -->
<g id="node3" class="node"><title>Node2</title>
<a xlink:href="decision__tree__unittest_8cc.html" target="_top" xlink:title="ltr/learners/decision_tree/decision_tree_unittest.cc">
<polygon style="fill:white;stroke:black;" points="0,-0 0,-20 234,-20 234,-0 0,-0"/>
<text text-anchor="middle" x="117" y="-7" style="font-family:Arial;font-size:10.00;">ltr/learners/decision_tree/decision_tree_unittest.cc</text>
</a>
</g>
<!-- Node1&#45;&gt;Node2 -->
<g id="edge2" class="edge"><title>Node1&#45;&gt;Node2</title>
<path style="fill:none;stroke:midnightblue;" d="M342,-54C290,-44 217,-29 168,-20"/>
<polygon style="fill:midnightblue;stroke:midnightblue;" points="341.508,-57.4708 352,-56 342.881,-50.6067 341.508,-57.4708"/>
</g>
<!-- Node3 -->
<g id="node5" class="node"><title>Node3</title>
<a xlink:href="same__label__stop__criteria_8cc.html" target="_top" xlink:title="ltr/learners/decision_tree/split_criteria/same_label_stop_criteria.cc">
<polygon style="fill:white;stroke:black;" points="252,-0 252,-20 555,-20 555,-0 252,-0"/>
<text text-anchor="middle" x="403" y="-7" style="font-family:Arial;font-size:10.00;">ltr/learners/decision_tree/split_criteria/same_label_stop_criteria.cc</text>
</a>
</g>
<!-- Node1&#45;&gt;Node3 -->
<g id="edge4" class="edge"><title>Node1&#45;&gt;Node3</title>
<path style="fill:none;stroke:midnightblue;" d="M403,-46C403,-37 403,-28 403,-20"/>
<polygon style="fill:midnightblue;stroke:midnightblue;" points="399.5,-46 403,-56 406.5,-46 399.5,-46"/>
</g>
<!-- Node4 -->
<g id="node7" class="node"><title>Node4</title>
<a xlink:href="generator_8cc.html" target="_top" xlink:title="ltr/serialization_test/generator/generator.cc">
<polygon style="fill:white;stroke:black;" points="572,-0 572,-20 773,-20 773,-0 572,-0"/>
<text text-anchor="middle" x="672" y="-7" style="font-family:Arial;font-size:10.00;">ltr/serialization_test/generator/generator.cc</text>
</a>
</g>
<!-- Node1&#45;&gt;Node4 -->
<g id="edge6" class="edge"><title>Node1&#45;&gt;Node4</title>
<path style="fill:none;stroke:midnightblue;" d="M461,-54C510,-44 578,-29 624,-20"/>
<polygon style="fill:midnightblue;stroke:midnightblue;" points="460.119,-50.6067 451,-56 461.492,-57.4708 460.119,-50.6067"/>
</g>
</g>
</svg>
