<?xml version="1.0" encoding="UTF-8" standalone="no"?>
<!DOCTYPE svg PUBLIC "-//W3C//DTD SVG 1.0//EN"
 "http://www.w3.org/TR/2001/REC-SVG-20010904/DTD/svg10.dtd" [
 <!ATTLIST svg xmlns:xlink CDATA #FIXED "http://www.w3.org/1999/xlink">
]>
<!-- Generated by Graphviz version 2.20.2 (Tue Mar &#160;2 19:03:41 UTC 2010)
     For user: (jenkins)  -->
<!-- Title: G Pages: 1 -->
<svg width="1936pt" height="420pt"
 viewBox="0.00 0.00 1936.00 420.00" xmlns="http://www.w3.org/2000/svg" xmlns:xlink="http://www.w3.org/1999/xlink">
<g id="graph0" class="graph" transform="scale(1 1) rotate(0) translate(4 416)">
<title>G</title>
<polygon style="fill:white;stroke:white;" points="-4,4 -4,-416 1932,-416 1932,4 -4,4"/>
<!-- Node1 -->
<g id="node1" class="node"><title>Node1</title>
<polygon style="fill:#bfbfbf;stroke:black;" points="504,-392 504,-412 601,-412 601,-392 504,-392"/>
<text text-anchor="middle" x="552" y="-399" style="font-family:Arial;font-size:10.00;">ltr/scorers/scorer.h</text>
</g>
<!-- Node2 -->
<g id="node3" class="node"><title>Node2</title>
<polygon style="fill:white;stroke:#bfbfbf;" points="142,-112 142,-132 256,-132 256,-112 142,-112"/>
<text text-anchor="middle" x="199" y="-119" style="font-family:Arial;font-size:10.00;">boost/lexical_cast.hpp</text>
</g>
<!-- Node1&#45;&gt;Node2 -->
<g id="edge2" class="edge"><title>Node1&#45;&gt;Node2</title>
<path style="fill:none;stroke:midnightblue;" d="M504,-400C391,-393 120,-368 120,-290 120,-290 120,-290 120,-234 120,-203 121,-193 139,-168 147,-155 159,-145 171,-137"/>
<polygon style="fill:midnightblue;stroke:midnightblue;" points="172.958,-139.916 180,-132 169.559,-133.797 172.958,-139.916"/>
</g>
<!-- Node3 -->
<g id="node5" class="node"><title>Node3</title>
<polygon style="fill:white;stroke:#bfbfbf;" points="1755,-56 1755,-76 1797,-76 1797,-56 1755,-56"/>
<text text-anchor="middle" x="1776" y="-63" style="font-family:Arial;font-size:10.00;">vector</text>
</g>
<!-- Node1&#45;&gt;Node3 -->
<g id="edge4" class="edge"><title>Node1&#45;&gt;Node3</title>
<path style="fill:none;stroke:midnightblue;" d="M601,-401C847,-393 1928,-357 1928,-290 1928,-290 1928,-290 1928,-178 1928,-119 1851,-87 1807,-74"/>
<polygon style="fill:midnightblue;stroke:midnightblue;" points="1807.58,-70.5212 1797,-71 1805.57,-77.2259 1807.58,-70.5212"/>
</g>
<!-- Node4 -->
<g id="node7" class="node"><title>Node4</title>
<polygon style="fill:white;stroke:#bfbfbf;" points="1122,-0 1122,-20 1162,-20 1162,-0 1122,-0"/>
<text text-anchor="middle" x="1142" y="-7" style="font-family:Arial;font-size:10.00;">string</text>
</g>
<!-- Node1&#45;&gt;Node4 -->
<g id="edge6" class="edge"><title>Node1&#45;&gt;Node4</title>
<path style="fill:none;stroke:midnightblue;" d="M504,-399C405,-394 183,-379 112,-356 58,-337 0,-347 0,-290 0,-290 0,-290 0,-122 0,-24 113,-73 209,-56 300,-39 961,-16 1112,-11"/>
<polygon style="fill:midnightblue;stroke:midnightblue;" points="1112,-14.5001 1122,-11 1112,-7.5001 1112,-14.5001"/>
</g>
<!-- Node5 -->
<g id="node9" class="node"><title>Node5</title>
<a xlink:href="aliaser_8h.html" target="_top" xlink:title="ltr/interfaces/aliaser.h">
<polygon style="fill:white;stroke:black;" points="498,-112 498,-132 606,-132 606,-112 498,-112"/>
<text text-anchor="middle" x="552" y="-119" style="font-family:Arial;font-size:10.00;">ltr/interfaces/aliaser.h</text>
</a>
</g>
<!-- Node1&#45;&gt;Node5 -->
<g id="edge8" class="edge"><title>Node1&#45;&gt;Node5</title>
<path style="fill:none;stroke:midnightblue;" d="M552,-392C552,-372 552,-327 552,-290 552,-290 552,-290 552,-234 552,-201 552,-165 552,-142"/>
<polygon style="fill:midnightblue;stroke:midnightblue;" points="555.5,-142 552,-132 548.5,-142 555.5,-142"/>
</g>
<!-- Node6 -->
<g id="node12" class="node"><title>Node6</title>
<a xlink:href="object_8h.html" target="_top" xlink:title="ltr/data/object.h">
<polygon style="fill:white;stroke:black;" points="1588,-112 1588,-132 1672,-132 1672,-112 1588,-112"/>
<text text-anchor="middle" x="1630" y="-119" style="font-family:Arial;font-size:10.00;">ltr/data/object.h</text>
</a>
</g>
<!-- Node1&#45;&gt;Node6 -->
<g id="edge12" class="edge"><title>Node1&#45;&gt;Node6</title>
<path style="fill:none;stroke:midnightblue;" d="M601,-400C731,-393 1094,-368 1388,-300 1506,-272 1582,-296 1639,-188 1646,-174 1643,-156 1639,-142"/>
<polygon style="fill:midnightblue;stroke:midnightblue;" points="1641.96,-139.985 1635,-132 1635.46,-142.585 1641.96,-139.985"/>
</g>
<!-- Node10 -->
<g id="node22" class="node"><title>Node10</title>
<a xlink:href="printable_8h.html" target="_top" xlink:title="ltr/interfaces/printable.h">
<polygon style="fill:white;stroke:black;" points="1512,-56 1512,-76 1629,-76 1629,-56 1512,-56"/>
<text text-anchor="middle" x="1570" y="-63" style="font-family:Arial;font-size:10.00;">ltr/interfaces/printable.h</text>
</a>
</g>
<!-- Node1&#45;&gt;Node10 -->
<g id="edge176" class="edge"><title>Node1&#45;&gt;Node10</title>
<path style="fill:none;stroke:midnightblue;" d="M601,-401C789,-396 1455,-369 1617,-244 1668,-203 1717,-166 1681,-112 1671,-97 1654,-87 1637,-80"/>
<polygon style="fill:midnightblue;stroke:midnightblue;" points="1638.56,-76.8631 1628,-76 1635.72,-83.2598 1638.56,-76.8631"/>
</g>
<!-- Node11 -->
<g id="node26" class="node"><title>Node11</title>
<a xlink:href="shared__ptr_8h.html" target="_top" xlink:title="ltr/utility/shared_ptr.h">
<polygon style="fill:white;stroke:black;" points="554,-56 554,-76 661,-76 661,-56 554,-56"/>
<text text-anchor="middle" x="607" y="-63" style="font-family:Arial;font-size:10.00;">ltr/utility/shared_ptr.h</text>
</a>
</g>
<!-- Node1&#45;&gt;Node11 -->
<g id="edge178" class="edge"><title>Node1&#45;&gt;Node11</title>
<path style="fill:none;stroke:midnightblue;" d="M504,-401C383,-396 76,-377 76,-290 76,-290 76,-290 76,-178 76,-142 91,-130 122,-112 157,-91 420,-75 544,-69"/>
<polygon style="fill:midnightblue;stroke:midnightblue;" points="544.398,-72.4778 554,-68 543.701,-65.5125 544.398,-72.4778"/>
</g>
<!-- Node15 -->
<g id="node34" class="node"><title>Node15</title>
<a xlink:href="feature__converter_8h.html" target="_top" xlink:title="ltr/feature_converters/feature_converter.h">
<polygon style="fill:white;stroke:black;" points="792,-336 792,-356 982,-356 982,-336 792,-336"/>
<text text-anchor="middle" x="887" y="-343" style="font-family:Arial;font-size:10.00;">ltr/feature_converters/feature_converter.h</text>
</a>
</g>
<!-- Node1&#45;&gt;Node15 -->
<g id="edge38" class="edge"><title>Node1&#45;&gt;Node15</title>
<path style="fill:none;stroke:midnightblue;" d="M601,-394C658,-385 752,-369 817,-358"/>
<polygon style="fill:midnightblue;stroke:midnightblue;" points="817.881,-361.393 827,-356 816.508,-354.529 817.881,-361.393"/>
</g>
<!-- Node30 -->
<g id="node110" class="node"><title>Node30</title>
<a xlink:href="serializable__functor_8h.html" target="_top" xlink:title="ltr/interfaces/serializable_functor.h">
<polygon style="fill:white;stroke:black;" points="277,-224 277,-244 440,-244 440,-224 277,-224"/>
<text text-anchor="middle" x="358" y="-231" style="font-family:Arial;font-size:10.00;">ltr/interfaces/serializable_functor.h</text>
</a>
</g>
<!-- Node1&#45;&gt;Node30 -->
<g id="edge160" class="edge"><title>Node1&#45;&gt;Node30</title>
<path style="fill:none;stroke:midnightblue;" d="M540,-392C508,-364 417,-285 378,-251"/>
<polygon style="fill:midnightblue;stroke:midnightblue;" points="379.831,-247.951 370,-244 375.221,-253.219 379.831,-247.951"/>
</g>
<!-- Node5&#45;&gt;Node4 -->
<g id="edge10" class="edge"><title>Node5&#45;&gt;Node4</title>
<path style="fill:none;stroke:midnightblue;" d="M547,-112C540,-97 530,-71 545,-56 564,-35 993,-16 1112,-11"/>
<polygon style="fill:midnightblue;stroke:midnightblue;" points="1112,-14.5001 1122,-11 1112,-7.5001 1112,-14.5001"/>
</g>
<!-- Node6&#45;&gt;Node3 -->
<g id="edge22" class="edge"><title>Node6&#45;&gt;Node3</title>
<path style="fill:none;stroke:midnightblue;" d="M1656,-112C1681,-102 1719,-88 1745,-78"/>
<polygon style="fill:midnightblue;stroke:midnightblue;" points="1747.02,-80.9636 1755,-74 1744.42,-74.4643 1747.02,-80.9636"/>
</g>
<!-- Node6&#45;&gt;Node4 -->
<g id="edge20" class="edge"><title>Node6&#45;&gt;Node4</title>
<path style="fill:none;stroke:midnightblue;" d="M1635,-112C1641,-97 1650,-71 1637,-56 1605,-21 1274,-13 1172,-10"/>
<polygon style="fill:midnightblue;stroke:midnightblue;" points="1172,-6.5001 1162,-10 1172,-13.5001 1172,-6.5001"/>
</g>
<!-- Node7 -->
<g id="node14" class="node"><title>Node7</title>
<polygon style="fill:white;stroke:#bfbfbf;" points="1369,-56 1369,-76 1404,-76 1404,-56 1369,-56"/>
<text text-anchor="middle" x="1386" y="-63" style="font-family:Arial;font-size:10.00;">map</text>
</g>
<!-- Node6&#45;&gt;Node7 -->
<g id="edge14" class="edge"><title>Node6&#45;&gt;Node7</title>
<path style="fill:none;stroke:midnightblue;" d="M1588,-112C1538,-101 1457,-82 1414,-72"/>
<polygon style="fill:midnightblue;stroke:midnightblue;" points="1414.49,-68.5292 1404,-70 1413.12,-75.3933 1414.49,-68.5292"/>
</g>
<!-- Node8 -->
<g id="node16" class="node"><title>Node8</title>
<polygon style="fill:white;stroke:#bfbfbf;" points="1607,-0 1607,-20 1658,-20 1658,-0 1607,-0"/>
<text text-anchor="middle" x="1632" y="-7" style="font-family:Arial;font-size:10.00;">ostream</text>
</g>
<!-- Node6&#45;&gt;Node8 -->
<g id="edge16" class="edge"><title>Node6&#45;&gt;Node8</title>
<path style="fill:none;stroke:midnightblue;" d="M1643,-112C1652,-103 1664,-90 1670,-76 1676,-58 1664,-40 1651,-27"/>
<polygon style="fill:midnightblue;stroke:midnightblue;" points="1653.55,-24.5962 1644,-20 1648.6,-29.546 1653.55,-24.5962"/>
</g>
<!-- Node9 -->
<g id="node18" class="node"><title>Node9</title>
<polygon style="fill:white;stroke:#bfbfbf;" points="1265,-56 1265,-76 1324,-76 1324,-56 1265,-56"/>
<text text-anchor="middle" x="1294" y="-63" style="font-family:Arial;font-size:10.00;">stdexcept</text>
</g>
<!-- Node6&#45;&gt;Node9 -->
<g id="edge18" class="edge"><title>Node6&#45;&gt;Node9</title>
<path style="fill:none;stroke:midnightblue;" d="M1588,-115C1523,-105 1399,-83 1334,-73"/>
<polygon style="fill:midnightblue;stroke:midnightblue;" points="1334.49,-69.5292 1324,-71 1333.12,-76.3933 1334.49,-69.5292"/>
</g>
<!-- Node6&#45;&gt;Node10 -->
<g id="edge24" class="edge"><title>Node6&#45;&gt;Node10</title>
<path style="fill:none;stroke:midnightblue;" d="M1619,-112C1610,-104 1598,-93 1588,-83"/>
<polygon style="fill:midnightblue;stroke:midnightblue;" points="1590.55,-80.5962 1581,-76 1585.6,-85.546 1590.55,-80.5962"/>
</g>
<!-- Node6&#45;&gt;Node11 -->
<g id="edge30" class="edge"><title>Node6&#45;&gt;Node11</title>
<path style="fill:none;stroke:midnightblue;" d="M1588,-121C1456,-116 1046,-101 707,-76 695,-75 683,-74 671,-73"/>
<polygon style="fill:midnightblue;stroke:midnightblue;" points="671.299,-69.5125 661,-72 670.602,-76.4778 671.299,-69.5125"/>
</g>
<!-- Node10&#45;&gt;Node4 -->
<g id="edge28" class="edge"><title>Node10&#45;&gt;Node4</title>
<path style="fill:none;stroke:midnightblue;" d="M1512,-58C1507,-57 1503,-57 1498,-56 1376,-39 1233,-21 1172,-13"/>
<polygon style="fill:midnightblue;stroke:midnightblue;" points="1172.3,-9.5125 1162,-12 1171.6,-16.4778 1172.3,-9.5125"/>
</g>
<!-- Node10&#45;&gt;Node8 -->
<g id="edge26" class="edge"><title>Node10&#45;&gt;Node8</title>
<path style="fill:none;stroke:midnightblue;" d="M1581,-56C1590,-48 1603,-37 1613,-27"/>
<polygon style="fill:midnightblue;stroke:midnightblue;" points="1615.78,-29.2191 1621,-20 1611.17,-23.9511 1615.78,-29.2191"/>
</g>
<!-- Node12 -->
<g id="node28" class="node"><title>Node12</title>
<polygon style="fill:white;stroke:#bfbfbf;" points="579,-0 579,-20 635,-20 635,-0 579,-0"/>
<text text-anchor="middle" x="607" y="-7" style="font-family:Arial;font-size:10.00;">algorithm</text>
</g>
<!-- Node11&#45;&gt;Node12 -->
<g id="edge32" class="edge"><title>Node11&#45;&gt;Node12</title>
<path style="fill:none;stroke:midnightblue;" d="M607,-56C607,-49 607,-39 607,-30"/>
<polygon style="fill:midnightblue;stroke:midnightblue;" points="610.5,-30 607,-20 603.5,-30 610.5,-30"/>
</g>
<!-- Node13 -->
<g id="node30" class="node"><title>Node13</title>
<polygon style="fill:white;stroke:#bfbfbf;" points="653,-0 653,-20 760,-20 760,-0 653,-0"/>
<text text-anchor="middle" x="706" y="-7" style="font-family:Arial;font-size:10.00;">boost/shared_ptr.hpp</text>
</g>
<!-- Node11&#45;&gt;Node13 -->
<g id="edge34" class="edge"><title>Node11&#45;&gt;Node13</title>
<path style="fill:none;stroke:midnightblue;" d="M625,-56C640,-48 662,-35 679,-25"/>
<polygon style="fill:midnightblue;stroke:midnightblue;" points="680.958,-27.916 688,-20 677.559,-21.7969 680.958,-27.916"/>
</g>
<!-- Node14 -->
<g id="node32" class="node"><title>Node14</title>
<polygon style="fill:white;stroke:#bfbfbf;" points="371,-0 371,-20 562,-20 562,-0 371,-0"/>
<text text-anchor="middle" x="466" y="-7" style="font-family:Arial;font-size:10.00;">boost/smart_ptr/detail/operator_bool.hpp</text>
</g>
<!-- Node11&#45;&gt;Node14 -->
<g id="edge36" class="edge"><title>Node11&#45;&gt;Node14</title>
<path style="fill:none;stroke:midnightblue;" d="M582,-56C559,-47 526,-34 501,-24"/>
<polygon style="fill:midnightblue;stroke:midnightblue;" points="501.585,-20.4643 491,-20 498.985,-26.9636 501.585,-20.4643"/>
</g>
<!-- Node15&#45;&gt;Node3 -->
<g id="edge40" class="edge"><title>Node15&#45;&gt;Node3</title>
<path style="fill:none;stroke:midnightblue;" d="M982,-344C1084,-339 1249,-329 1388,-300 1465,-283 1482,-269 1557,-244 1627,-219 1651,-227 1714,-188 1744,-169 1757,-164 1772,-132 1778,-118 1779,-100 1779,-86"/>
<polygon style="fill:midnightblue;stroke:midnightblue;" points="1782.48,-85.6021 1778,-76 1775.51,-86.2987 1782.48,-85.6021"/>
</g>
<!-- Node15&#45;&gt;Node4 -->
<g id="edge42" class="edge"><title>Node15&#45;&gt;Node4</title>
<path style="fill:none;stroke:midnightblue;" d="M855,-336C814,-321 748,-288 748,-234 748,-234 748,-234 748,-178 748,-120 668,-98 707,-56 734,-25 1018,-14 1112,-11"/>
<polygon style="fill:midnightblue;stroke:midnightblue;" points="1112,-14.5001 1122,-11 1112,-7.5001 1112,-14.5001"/>
</g>
<!-- Node15&#45;&gt;Node5 -->
<g id="edge156" class="edge"><title>Node15&#45;&gt;Node5</title>
<path style="fill:none;stroke:midnightblue;" d="M792,-339C726,-333 646,-321 620,-300 607,-289 573,-186 558,-142"/>
<polygon style="fill:midnightblue;stroke:midnightblue;" points="561.226,-140.573 555,-132 554.521,-142.584 561.226,-140.573"/>
</g>
<!-- Node15&#45;&gt;Node6 -->
<g id="edge136" class="edge"><title>Node15&#45;&gt;Node6</title>
<path style="fill:none;stroke:midnightblue;" d="M982,-342C1076,-337 1221,-326 1345,-300 1423,-283 1442,-275 1517,-244 1566,-223 1594,-232 1624,-188 1633,-175 1634,-156 1633,-142"/>
<polygon style="fill:midnightblue;stroke:midnightblue;" points="1636.48,-141.602 1632,-132 1629.51,-142.299 1636.48,-141.602"/>
</g>
<!-- Node15&#45;&gt;Node9 -->
<g id="edge44" class="edge"><title>Node15&#45;&gt;Node9</title>
<path style="fill:none;stroke:midnightblue;" d="M887,-336C887,-323 889,-299 895,-280 911,-224 914,-201 961,-168 1007,-134 1030,-148 1085,-132 1144,-114 1213,-92 1255,-78"/>
<polygon style="fill:midnightblue;stroke:midnightblue;" points="1256.43,-81.2259 1265,-75 1254.42,-74.5212 1256.43,-81.2259"/>
</g>
<!-- Node15&#45;&gt;Node11 -->
<g id="edge158" class="edge"><title>Node15&#45;&gt;Node11</title>
<path style="fill:none;stroke:midnightblue;" d="M843,-336C770,-318 634,-279 634,-234 634,-234 634,-234 634,-178 634,-144 623,-108 615,-85"/>
<polygon style="fill:midnightblue;stroke:midnightblue;" points="618.26,-83.7166 611,-76 611.863,-86.5596 618.26,-83.7166"/>
</g>
<!-- Node16 -->
<g id="node39" class="node"><title>Node16</title>
<a xlink:href="data__set_8h.html" target="_top" xlink:title="ltr/data/data_set.h">
<polygon style="fill:white;stroke:black;" points="1242,-280 1242,-300 1337,-300 1337,-280 1242,-280"/>
<text text-anchor="middle" x="1289" y="-287" style="font-family:Arial;font-size:10.00;">ltr/data/data_set.h</text>
</a>
</g>
<!-- Node15&#45;&gt;Node16 -->
<g id="edge46" class="edge"><title>Node15&#45;&gt;Node16</title>
<path style="fill:none;stroke:midnightblue;" d="M959,-336C1036,-326 1160,-308 1232,-298"/>
<polygon style="fill:midnightblue;stroke:midnightblue;" points="1232.4,-301.478 1242,-297 1231.7,-294.512 1232.4,-301.478"/>
</g>
<!-- Node20 -->
<g id="node63" class="node"><title>Node20</title>
<a xlink:href="feature__info_8h.html" target="_top" xlink:title="ltr/data/feature_info.h">
<polygon style="fill:white;stroke:black;" points="953,-224 953,-244 1060,-244 1060,-224 953,-224"/>
<text text-anchor="middle" x="1006" y="-231" style="font-family:Arial;font-size:10.00;">ltr/data/feature_info.h</text>
</a>
</g>
<!-- Node15&#45;&gt;Node20 -->
<g id="edge134" class="edge"><title>Node15&#45;&gt;Node20</title>
<path style="fill:none;stroke:midnightblue;" d="M899,-336C909,-327 925,-313 939,-300 956,-284 975,-265 988,-251"/>
<polygon style="fill:midnightblue;stroke:midnightblue;" points="990.779,-253.219 996,-244 986.169,-247.951 990.779,-253.219"/>
</g>
<!-- Node21 -->
<g id="node68" class="node"><title>Node21</title>
<a xlink:href="parameterized_8h.html" target="_top" xlink:title="ltr/interfaces/parameterized.h">
<polygon style="fill:white;stroke:black;" points="970,-168 970,-188 1112,-188 1112,-168 970,-168"/>
<text text-anchor="middle" x="1041" y="-175" style="font-family:Arial;font-size:10.00;">ltr/interfaces/parameterized.h</text>
</a>
</g>
<!-- Node15&#45;&gt;Node21 -->
<g id="edge140" class="edge"><title>Node15&#45;&gt;Node21</title>
<path style="fill:none;stroke:midnightblue;" d="M889,-336C895,-313 910,-257 944,-224 958,-210 978,-199 995,-192"/>
<polygon style="fill:midnightblue;stroke:midnightblue;" points="997.015,-194.964 1005,-188 994.415,-188.464 997.015,-194.964"/>
</g>
<!-- Node27 -->
<g id="node87" class="node"><title>Node27</title>
<a xlink:href="per__object__accessor_8h.html" target="_top" xlink:title="ltr/data/per_object_accessor.h">
<polygon style="fill:white;stroke:black;" points="1077,-224 1077,-244 1224,-244 1224,-224 1077,-224"/>
<text text-anchor="middle" x="1150" y="-231" style="font-family:Arial;font-size:10.00;">ltr/data/per_object_accessor.h</text>
</a>
</g>
<!-- Node15&#45;&gt;Node27 -->
<g id="edge138" class="edge"><title>Node15&#45;&gt;Node27</title>
<path style="fill:none;stroke:midnightblue;" d="M911,-336C958,-315 1063,-271 1117,-248"/>
<polygon style="fill:midnightblue;stroke:midnightblue;" points="1118.28,-251.26 1126,-244 1115.44,-244.863 1118.28,-251.26"/>
</g>
<!-- Node28 -->
<g id="node99" class="node"><title>Node28</title>
<a xlink:href="serializable_8h.html" target="_top" xlink:title="ltr/interfaces/serializable.h">
<polygon style="fill:white;stroke:black;" points="349,-168 349,-188 478,-188 478,-168 349,-168"/>
<text text-anchor="middle" x="413" y="-175" style="font-family:Arial;font-size:10.00;">ltr/interfaces/serializable.h</text>
</a>
</g>
<!-- Node15&#45;&gt;Node28 -->
<g id="edge142" class="edge"><title>Node15&#45;&gt;Node28</title>
<path style="fill:none;stroke:midnightblue;" d="M792,-337C716,-328 616,-315 579,-300 518,-275 459,-223 430,-195"/>
<polygon style="fill:midnightblue;stroke:midnightblue;" points="432.546,-192.596 423,-188 427.596,-197.546 432.546,-192.596"/>
</g>
<!-- Node16&#45;&gt;Node3 -->
<g id="edge54" class="edge"><title>Node16&#45;&gt;Node3</title>
<path style="fill:none;stroke:midnightblue;" d="M1337,-284C1384,-277 1456,-264 1517,-244 1627,-207 1677,-219 1755,-132 1766,-119 1771,-100 1774,-86"/>
<polygon style="fill:midnightblue;stroke:midnightblue;" points="1777.49,-86.2987 1775,-76 1770.52,-85.6021 1777.49,-86.2987"/>
</g>
<!-- Node16&#45;&gt;Node4 -->
<g id="edge52" class="edge"><title>Node16&#45;&gt;Node4</title>
<path style="fill:none;stroke:midnightblue;" d="M1284,-280C1261,-239 1180,-84 1152,-29"/>
<polygon style="fill:midnightblue;stroke:midnightblue;" points="1154.92,-27.0418 1147,-20 1148.8,-30.4414 1154.92,-27.0418"/>
</g>
<!-- Node16&#45;&gt;Node5 -->
<g id="edge132" class="edge"><title>Node16&#45;&gt;Node5</title>
<path style="fill:none;stroke:midnightblue;" d="M1242,-286C1175,-280 1049,-267 944,-244 810,-214 657,-160 588,-135"/>
<polygon style="fill:midnightblue;stroke:midnightblue;" points="589.594,-131.842 579,-132 587.38,-138.483 589.594,-131.842"/>
</g>
<!-- Node16&#45;&gt;Node6 -->
<g id="edge56" class="edge"><title>Node16&#45;&gt;Node6</title>
<path style="fill:none;stroke:midnightblue;" d="M1337,-280C1415,-263 1567,-225 1606,-188 1618,-176 1624,-157 1627,-142"/>
<polygon style="fill:midnightblue;stroke:midnightblue;" points="1630.47,-142.492 1629,-132 1623.61,-141.119 1630.47,-142.492"/>
</g>
<!-- Node16&#45;&gt;Node9 -->
<g id="edge50" class="edge"><title>Node16&#45;&gt;Node9</title>
<path style="fill:none;stroke:midnightblue;" d="M1289,-280C1290,-245 1293,-133 1294,-86"/>
<polygon style="fill:midnightblue;stroke:midnightblue;" points="1297.5,-86 1294,-76 1290.5,-86 1297.5,-86"/>
</g>
<!-- Node17 -->
<g id="node41" class="node"><title>Node17</title>
<polygon style="fill:white;stroke:#bfbfbf;" points="1317,-224 1317,-244 1368,-244 1368,-224 1317,-224"/>
<text text-anchor="middle" x="1342" y="-231" style="font-family:Arial;font-size:10.00;">sstream</text>
</g>
<!-- Node16&#45;&gt;Node17 -->
<g id="edge48" class="edge"><title>Node16&#45;&gt;Node17</title>
<path style="fill:none;stroke:midnightblue;" d="M1298,-280C1306,-272 1317,-261 1325,-252"/>
<polygon style="fill:midnightblue;stroke:midnightblue;" points="1328.05,-253.831 1332,-244 1322.78,-249.221 1328.05,-253.831"/>
</g>
<!-- Node18 -->
<g id="node47" class="node"><title>Node18</title>
<a xlink:href="object__list_8h.html" target="_top" xlink:title="ltr/data/object_list.h">
<polygon style="fill:white;stroke:black;" points="1477,-168 1477,-188 1579,-188 1579,-168 1477,-168"/>
<text text-anchor="middle" x="1528" y="-175" style="font-family:Arial;font-size:10.00;">ltr/data/object_list.h</text>
</a>
</g>
<!-- Node16&#45;&gt;Node18 -->
<g id="edge58" class="edge"><title>Node16&#45;&gt;Node18</title>
<path style="fill:none;stroke:midnightblue;" d="M1312,-280C1333,-271 1366,-257 1394,-244 1431,-227 1472,-206 1499,-193"/>
<polygon style="fill:midnightblue;stroke:midnightblue;" points="1500.96,-195.916 1508,-188 1497.56,-189.797 1500.96,-195.916"/>
</g>
<!-- Node19 -->
<g id="node55" class="node"><title>Node19</title>
<a xlink:href="object__pair_8h.html" target="_top" xlink:title="ltr/data/object_pair.h">
<polygon style="fill:white;stroke:black;" points="1355,-168 1355,-188 1459,-188 1459,-168 1355,-168"/>
<text text-anchor="middle" x="1407" y="-175" style="font-family:Arial;font-size:10.00;">ltr/data/object_pair.h</text>
</a>
</g>
<!-- Node16&#45;&gt;Node19 -->
<g id="edge72" class="edge"><title>Node16&#45;&gt;Node19</title>
<path style="fill:none;stroke:midnightblue;" d="M1318,-280C1336,-272 1360,-260 1376,-244 1388,-230 1396,-212 1401,-198"/>
<polygon style="fill:midnightblue;stroke:midnightblue;" points="1404.48,-198.584 1404,-188 1397.77,-196.573 1404.48,-198.584"/>
</g>
<!-- Node16&#45;&gt;Node20 -->
<g id="edge86" class="edge"><title>Node16&#45;&gt;Node20</title>
<path style="fill:none;stroke:midnightblue;" d="M1242,-281C1193,-272 1119,-257 1066,-246"/>
<polygon style="fill:midnightblue;stroke:midnightblue;" points="1066.49,-242.529 1056,-244 1065.12,-249.393 1066.49,-242.529"/>
</g>
<!-- Node16&#45;&gt;Node27 -->
<g id="edge120" class="edge"><title>Node16&#45;&gt;Node27</title>
<path style="fill:none;stroke:midnightblue;" d="M1264,-280C1242,-271 1209,-258 1184,-248"/>
<polygon style="fill:midnightblue;stroke:midnightblue;" points="1185.56,-244.863 1175,-244 1182.72,-251.26 1185.56,-244.863"/>
</g>
<!-- Node18&#45;&gt;Node3 -->
<g id="edge64" class="edge"><title>Node18&#45;&gt;Node3</title>
<path style="fill:none;stroke:midnightblue;" d="M1579,-169C1626,-159 1691,-145 1714,-132 1734,-119 1752,-99 1763,-84"/>
<polygon style="fill:midnightblue;stroke:midnightblue;" points="1765.8,-86.1 1769,-76 1760.2,-81.9 1765.8,-86.1"/>
</g>
<!-- Node18&#45;&gt;Node4 -->
<g id="edge62" class="edge"><title>Node18&#45;&gt;Node4</title>
<path style="fill:none;stroke:midnightblue;" d="M1523,-168C1511,-144 1478,-83 1431,-56 1386,-30 1237,-17 1172,-12"/>
<polygon style="fill:midnightblue;stroke:midnightblue;" points="1172.3,-8.5125 1162,-11 1171.6,-15.4778 1172.3,-8.5125"/>
</g>
<!-- Node18&#45;&gt;Node6 -->
<g id="edge66" class="edge"><title>Node18&#45;&gt;Node6</title>
<path style="fill:none;stroke:midnightblue;" d="M1546,-168C1562,-159 1585,-147 1603,-137"/>
<polygon style="fill:midnightblue;stroke:midnightblue;" points="1604.96,-139.916 1612,-132 1601.56,-133.797 1604.96,-139.916"/>
</g>
<!-- Node18&#45;&gt;Node9 -->
<g id="edge60" class="edge"><title>Node18&#45;&gt;Node9</title>
<path style="fill:none;stroke:midnightblue;" d="M1507,-168C1465,-147 1373,-103 1324,-80"/>
<polygon style="fill:midnightblue;stroke:midnightblue;" points="1325.56,-76.8631 1315,-76 1322.72,-83.2598 1325.56,-76.8631"/>
</g>
<!-- Node18&#45;&gt;Node10 -->
<g id="edge68" class="edge"><title>Node18&#45;&gt;Node10</title>
<path style="fill:none;stroke:midnightblue;" d="M1532,-168C1539,-149 1554,-110 1562,-86"/>
<polygon style="fill:midnightblue;stroke:midnightblue;" points="1565.54,-86.5847 1566,-76 1559.04,-83.9849 1565.54,-86.5847"/>
</g>
<!-- Node18&#45;&gt;Node11 -->
<g id="edge70" class="edge"><title>Node18&#45;&gt;Node11</title>
<path style="fill:none;stroke:midnightblue;" d="M1477,-169C1474,-169 1471,-168 1468,-168 1191,-137 1114,-191 843,-132 819,-126 815,-119 792,-112 750,-98 701,-86 665,-78"/>
<polygon style="fill:midnightblue;stroke:midnightblue;" points="665.492,-74.5292 655,-76 664.119,-81.3933 665.492,-74.5292"/>
</g>
<!-- Node19&#45;&gt;Node3 -->
<g id="edge78" class="edge"><title>Node19&#45;&gt;Node3</title>
<path style="fill:none;stroke:midnightblue;" d="M1459,-169C1538,-156 1678,-133 1681,-132 1688,-128 1728,-101 1754,-82"/>
<polygon style="fill:midnightblue;stroke:midnightblue;" points="1756.1,-84.8 1762,-76 1751.9,-79.2 1756.1,-84.8"/>
</g>
<!-- Node19&#45;&gt;Node4 -->
<g id="edge76" class="edge"><title>Node19&#45;&gt;Node4</title>
<path style="fill:none;stroke:midnightblue;" d="M1411,-168C1421,-145 1439,-88 1412,-56 1396,-37 1239,-20 1172,-13"/>
<polygon style="fill:midnightblue;stroke:midnightblue;" points="1172.3,-9.5125 1162,-12 1171.6,-16.4778 1172.3,-9.5125"/>
</g>
<!-- Node19&#45;&gt;Node6 -->
<g id="edge80" class="edge"><title>Node19&#45;&gt;Node6</title>
<path style="fill:none;stroke:midnightblue;" d="M1447,-168C1484,-159 1540,-144 1580,-134"/>
<polygon style="fill:midnightblue;stroke:midnightblue;" points="1580.88,-137.393 1590,-132 1579.51,-130.529 1580.88,-137.393"/>
</g>
<!-- Node19&#45;&gt;Node9 -->
<g id="edge74" class="edge"><title>Node19&#45;&gt;Node9</title>
<path style="fill:none;stroke:midnightblue;" d="M1397,-168C1377,-148 1335,-107 1311,-83"/>
<polygon style="fill:midnightblue;stroke:midnightblue;" points="1313.55,-80.5962 1304,-76 1308.6,-85.546 1313.55,-80.5962"/>
</g>
<!-- Node19&#45;&gt;Node10 -->
<g id="edge82" class="edge"><title>Node19&#45;&gt;Node10</title>
<path style="fill:none;stroke:midnightblue;" d="M1422,-168C1450,-148 1513,-106 1547,-82"/>
<polygon style="fill:midnightblue;stroke:midnightblue;" points="1549.1,-84.8 1555,-76 1544.9,-79.2 1549.1,-84.8"/>
</g>
<!-- Node19&#45;&gt;Node11 -->
<g id="edge84" class="edge"><title>Node19&#45;&gt;Node11</title>
<path style="fill:none;stroke:midnightblue;" d="M1355,-175C1229,-169 913,-152 810,-132 748,-120 681,-95 641,-80"/>
<polygon style="fill:midnightblue;stroke:midnightblue;" points="642.56,-76.8631 632,-76 639.717,-83.2598 642.56,-76.8631"/>
</g>
<!-- Node20&#45;&gt;Node3 -->
<g id="edge92" class="edge"><title>Node20&#45;&gt;Node3</title>
<path style="fill:none;stroke:midnightblue;" d="M1060,-225C1063,-225 1065,-224 1068,-224 1298,-197 1361,-237 1588,-188 1656,-172 1681,-176 1736,-132 1751,-120 1761,-100 1768,-85"/>
<polygon style="fill:midnightblue;stroke:midnightblue;" points="1771.14,-86.5596 1772,-76 1764.74,-83.7166 1771.14,-86.5596"/>
</g>
<!-- Node20&#45;&gt;Node4 -->
<g id="edge90" class="edge"><title>Node20&#45;&gt;Node4</title>
<path style="fill:none;stroke:midnightblue;" d="M1060,-225C1082,-218 1106,-207 1121,-188 1156,-141 1151,-66 1146,-30"/>
<polygon style="fill:midnightblue;stroke:midnightblue;" points="1149.39,-29.1194 1144,-20 1142.53,-30.4922 1149.39,-29.1194"/>
</g>
<!-- Node20&#45;&gt;Node7 -->
<g id="edge88" class="edge"><title>Node20&#45;&gt;Node7</title>
<path style="fill:none;stroke:midnightblue;" d="M1054,-224C1101,-214 1169,-198 1194,-188 1261,-160 1331,-108 1365,-82"/>
<polygon style="fill:midnightblue;stroke:midnightblue;" points="1367.1,-84.8 1373,-76 1362.9,-79.2 1367.1,-84.8"/>
</g>
<!-- Node20&#45;&gt;Node11 -->
<g id="edge118" class="edge"><title>Node20&#45;&gt;Node11</title>
<path style="fill:none;stroke:midnightblue;" d="M975,-224C898,-200 709,-138 696,-132 669,-118 643,-97 626,-83"/>
<polygon style="fill:midnightblue;stroke:midnightblue;" points="627.831,-79.9511 618,-76 623.221,-85.2191 627.831,-79.9511"/>
</g>
<!-- Node20&#45;&gt;Node21 -->
<g id="edge94" class="edge"><title>Node20&#45;&gt;Node21</title>
<path style="fill:none;stroke:midnightblue;" d="M1012,-224C1017,-217 1023,-206 1029,-197"/>
<polygon style="fill:midnightblue;stroke:midnightblue;" points="1032.2,-198.441 1034,-188 1026.08,-195.042 1032.2,-198.441"/>
</g>
<!-- Node21&#45;&gt;Node4 -->
<g id="edge98" class="edge"><title>Node21&#45;&gt;Node4</title>
<path style="fill:none;stroke:midnightblue;" d="M1053,-168C1062,-159 1076,-145 1085,-132 1107,-99 1125,-55 1134,-30"/>
<polygon style="fill:midnightblue;stroke:midnightblue;" points="1137.54,-30.5847 1138,-20 1131.04,-27.9849 1137.54,-30.5847"/>
</g>
<!-- Node21&#45;&gt;Node9 -->
<g id="edge96" class="edge"><title>Node21&#45;&gt;Node9</title>
<path style="fill:none;stroke:midnightblue;" d="M1068,-168C1091,-159 1126,-145 1156,-132 1194,-115 1237,-94 1265,-80"/>
<polygon style="fill:midnightblue;stroke:midnightblue;" points="1266.28,-83.2598 1274,-76 1263.44,-76.8631 1266.28,-83.2598"/>
</g>
<!-- Node22 -->
<g id="node72" class="node"><title>Node22</title>
<a xlink:href="parameters__container_8h.html" target="_top" xlink:title="ltr/parameters_container/parameters_container.h">
<polygon style="fill:white;stroke:black;" points="852,-112 852,-132 1077,-132 1077,-112 852,-112"/>
<text text-anchor="middle" x="964" y="-119" style="font-family:Arial;font-size:10.00;">ltr/parameters_container/parameters_container.h</text>
</a>
</g>
<!-- Node21&#45;&gt;Node22 -->
<g id="edge100" class="edge"><title>Node21&#45;&gt;Node22</title>
<path style="fill:none;stroke:midnightblue;" d="M1027,-168C1016,-160 999,-148 986,-138"/>
<polygon style="fill:midnightblue;stroke:midnightblue;" points="988.1,-135.2 978,-132 983.9,-140.8 988.1,-135.2"/>
</g>
<!-- Node22&#45;&gt;Node4 -->
<g id="edge108" class="edge"><title>Node22&#45;&gt;Node4</title>
<path style="fill:none;stroke:midnightblue;" d="M1003,-112C1028,-104 1060,-93 1085,-76 1103,-63 1119,-43 1129,-29"/>
<polygon style="fill:midnightblue;stroke:midnightblue;" points="1132.37,-30.262 1135,-20 1126.54,-26.3791 1132.37,-30.262"/>
</g>
<!-- Node22&#45;&gt;Node9 -->
<g id="edge106" class="edge"><title>Node22&#45;&gt;Node9</title>
<path style="fill:none;stroke:midnightblue;" d="M1023,-112C1090,-101 1197,-82 1255,-73"/>
<polygon style="fill:midnightblue;stroke:midnightblue;" points="1255.88,-76.3933 1265,-71 1254.51,-69.5292 1255.88,-76.3933"/>
</g>
<!-- Node22&#45;&gt;Node10 -->
<g id="edge116" class="edge"><title>Node22&#45;&gt;Node10</title>
<path style="fill:none;stroke:midnightblue;" d="M1072,-112C1197,-100 1398,-82 1502,-72"/>
<polygon style="fill:midnightblue;stroke:midnightblue;" points="1502.4,-75.4778 1512,-71 1501.7,-68.5125 1502.4,-75.4778"/>
</g>
<!-- Node22&#45;&gt;Node11 -->
<g id="edge114" class="edge"><title>Node22&#45;&gt;Node11</title>
<path style="fill:none;stroke:midnightblue;" d="M900,-112C835,-102 736,-87 671,-77"/>
<polygon style="fill:midnightblue;stroke:midnightblue;" points="671.492,-73.5292 661,-75 670.119,-80.3933 671.492,-73.5292"/>
</g>
<!-- Node23 -->
<g id="node74" class="node"><title>Node23</title>
<polygon style="fill:white;stroke:#bfbfbf;" points="716,-56 716,-76 790,-76 790,-56 716,-56"/>
<text text-anchor="middle" x="753" y="-63" style="font-family:Arial;font-size:10.00;">logog/logog.h</text>
</g>
<!-- Node22&#45;&gt;Node23 -->
<g id="edge102" class="edge"><title>Node22&#45;&gt;Node23</title>
<path style="fill:none;stroke:midnightblue;" d="M926,-112C891,-103 838,-89 800,-79"/>
<polygon style="fill:midnightblue;stroke:midnightblue;" points="800.584,-75.5212 790,-76 798.573,-82.2259 800.584,-75.5212"/>
</g>
<!-- Node24 -->
<g id="node76" class="node"><title>Node24</title>
<polygon style="fill:white;stroke:#bfbfbf;" points="954,-56 954,-76 983,-76 983,-56 954,-56"/>
<text text-anchor="middle" x="968" y="-63" style="font-family:Arial;font-size:10.00;">list</text>
</g>
<!-- Node22&#45;&gt;Node24 -->
<g id="edge104" class="edge"><title>Node22&#45;&gt;Node24</title>
<path style="fill:none;stroke:midnightblue;" d="M965,-112C966,-105 966,-95 967,-86"/>
<polygon style="fill:midnightblue;stroke:midnightblue;" points="970.5,-86 967,-76 963.5,-86 970.5,-86"/>
</g>
<!-- Node25 -->
<g id="node80" class="node"><title>Node25</title>
<polygon style="fill:white;stroke:#bfbfbf;" points="1000,-56 1000,-76 1077,-76 1077,-56 1000,-56"/>
<text text-anchor="middle" x="1038" y="-63" style="font-family:Arial;font-size:10.00;">boost/any.hpp</text>
</g>
<!-- Node22&#45;&gt;Node25 -->
<g id="edge110" class="edge"><title>Node22&#45;&gt;Node25</title>
<path style="fill:none;stroke:midnightblue;" d="M977,-112C988,-104 1004,-92 1017,-82"/>
<polygon style="fill:midnightblue;stroke:midnightblue;" points="1019.1,-84.8 1025,-76 1014.9,-79.2 1019.1,-84.8"/>
</g>
<!-- Node26 -->
<g id="node82" class="node"><title>Node26</title>
<polygon style="fill:white;stroke:#bfbfbf;" points="808,-56 808,-76 937,-76 937,-56 808,-56"/>
<text text-anchor="middle" x="872" y="-63" style="font-family:Arial;font-size:10.00;">boost/unordered_map.hpp</text>
</g>
<!-- Node22&#45;&gt;Node26 -->
<g id="edge112" class="edge"><title>Node22&#45;&gt;Node26</title>
<path style="fill:none;stroke:midnightblue;" d="M948,-112C934,-104 913,-91 898,-81"/>
<polygon style="fill:midnightblue;stroke:midnightblue;" points="899.441,-77.7969 889,-76 896.042,-83.916 899.441,-77.7969"/>
</g>
<!-- Node27&#45;&gt;Node6 -->
<g id="edge122" class="edge"><title>Node27&#45;&gt;Node6</title>
<path style="fill:none;stroke:midnightblue;" d="M1224,-228C1345,-217 1573,-197 1588,-188 1604,-177 1616,-157 1622,-142"/>
<polygon style="fill:midnightblue;stroke:midnightblue;" points="1625.54,-142.585 1626,-132 1619.04,-139.985 1625.54,-142.585"/>
</g>
<!-- Node27&#45;&gt;Node11 -->
<g id="edge130" class="edge"><title>Node27&#45;&gt;Node11</title>
<path style="fill:none;stroke:midnightblue;" d="M1104,-224C1010,-204 803,-157 736,-132 725,-128 670,-99 635,-81"/>
<polygon style="fill:midnightblue;stroke:midnightblue;" points="636.441,-77.7969 626,-76 633.042,-83.916 636.441,-77.7969"/>
</g>
<!-- Node27&#45;&gt;Node18 -->
<g id="edge126" class="edge"><title>Node27&#45;&gt;Node18</title>
<path style="fill:none;stroke:midnightblue;" d="M1220,-224C1283,-215 1375,-202 1467,-188"/>
<polygon style="fill:midnightblue;stroke:midnightblue;" points="1467.88,-191.393 1477,-186 1466.51,-184.529 1467.88,-191.393"/>
</g>
<!-- Node27&#45;&gt;Node19 -->
<g id="edge124" class="edge"><title>Node27&#45;&gt;Node19</title>
<path style="fill:none;stroke:midnightblue;" d="M1196,-224C1240,-215 1304,-200 1351,-190"/>
<polygon style="fill:midnightblue;stroke:midnightblue;" points="1351.88,-193.393 1361,-188 1350.51,-186.529 1351.88,-193.393"/>
</g>
<!-- Node27&#45;&gt;Node21 -->
<g id="edge128" class="edge"><title>Node27&#45;&gt;Node21</title>
<path style="fill:none;stroke:midnightblue;" d="M1131,-224C1114,-215 1089,-202 1070,-193"/>
<polygon style="fill:midnightblue;stroke:midnightblue;" points="1071.44,-189.797 1061,-188 1068.04,-195.916 1071.44,-189.797"/>
</g>
<!-- Node28&#45;&gt;Node2 -->
<g id="edge144" class="edge"><title>Node28&#45;&gt;Node2</title>
<path style="fill:none;stroke:midnightblue;" d="M375,-168C339,-159 286,-145 247,-135"/>
<polygon style="fill:midnightblue;stroke:midnightblue;" points="247.584,-131.521 237,-132 245.573,-138.226 247.584,-131.521"/>
</g>
<!-- Node28&#45;&gt;Node4 -->
<g id="edge148" class="edge"><title>Node28&#45;&gt;Node4</title>
<path style="fill:none;stroke:midnightblue;" d="M413,-168C414,-154 418,-128 431,-112 462,-71 482,-70 531,-56 641,-22 1004,-13 1112,-10"/>
<polygon style="fill:midnightblue;stroke:midnightblue;" points="1112,-13.5001 1122,-10 1112,-6.5001 1112,-13.5001"/>
</g>
<!-- Node28&#45;&gt;Node5 -->
<g id="edge154" class="edge"><title>Node28&#45;&gt;Node5</title>
<path style="fill:none;stroke:midnightblue;" d="M438,-168C460,-159 493,-146 518,-136"/>
<polygon style="fill:midnightblue;stroke:midnightblue;" points="519.283,-139.26 527,-132 516.44,-132.863 519.283,-139.26"/>
</g>
<!-- Node28&#45;&gt;Node11 -->
<g id="edge152" class="edge"><title>Node28&#45;&gt;Node11</title>
<path style="fill:none;stroke:midnightblue;" d="M417,-168C423,-153 436,-127 456,-112 481,-92 515,-81 544,-75"/>
<polygon style="fill:midnightblue;stroke:midnightblue;" points="544.881,-78.3933 554,-73 543.508,-71.5292 544.881,-78.3933"/>
</g>
<!-- Node28&#45;&gt;Node23 -->
<g id="edge146" class="edge"><title>Node28&#45;&gt;Node23</title>
<path style="fill:none;stroke:midnightblue;" d="M421,-168C434,-153 460,-125 489,-112 508,-102 635,-83 706,-72"/>
<polygon style="fill:midnightblue;stroke:midnightblue;" points="706.398,-75.4778 716,-71 705.701,-68.5125 706.398,-75.4778"/>
</g>
<!-- Node29 -->
<g id="node104" class="node"><title>Node29</title>
<polygon style="fill:white;stroke:#bfbfbf;" points="312,-112 312,-132 366,-132 366,-112 312,-112"/>
<text text-anchor="middle" x="339" y="-119" style="font-family:Arial;font-size:10.00;">iostream</text>
</g>
<!-- Node28&#45;&gt;Node29 -->
<g id="edge150" class="edge"><title>Node28&#45;&gt;Node29</title>
<path style="fill:none;stroke:midnightblue;" d="M400,-168C389,-160 373,-148 361,-139"/>
<polygon style="fill:midnightblue;stroke:midnightblue;" points="362.831,-135.951 353,-132 358.221,-141.219 362.831,-135.951"/>
</g>
<!-- Node30&#45;&gt;Node11 -->
<g id="edge162" class="edge"><title>Node30&#45;&gt;Node11</title>
<path style="fill:none;stroke:midnightblue;" d="M347,-224C323,-201 273,-147 303,-112 318,-94 459,-79 544,-71"/>
<polygon style="fill:midnightblue;stroke:midnightblue;" points="544.398,-74.4778 554,-70 543.701,-67.5125 544.398,-74.4778"/>
</g>
<!-- Node30&#45;&gt;Node28 -->
<g id="edge174" class="edge"><title>Node30&#45;&gt;Node28</title>
<path style="fill:none;stroke:midnightblue;" d="M368,-224C376,-216 387,-205 396,-195"/>
<polygon style="fill:midnightblue;stroke:midnightblue;" points="398.404,-197.546 403,-188 393.454,-192.596 398.404,-197.546"/>
</g>
<!-- Node31 -->
<g id="node113" class="node"><title>Node31</title>
<a xlink:href="functor_8h.html" target="_top" xlink:title="ltr/interfaces/functor.h">
<polygon style="fill:white;stroke:black;" points="148,-168 148,-188 257,-188 257,-168 148,-168"/>
<text text-anchor="middle" x="202" y="-175" style="font-family:Arial;font-size:10.00;">ltr/interfaces/functor.h</text>
</a>
</g>
<!-- Node30&#45;&gt;Node31 -->
<g id="edge164" class="edge"><title>Node30&#45;&gt;Node31</title>
<path style="fill:none;stroke:midnightblue;" d="M330,-224C305,-215 267,-201 240,-191"/>
<polygon style="fill:midnightblue;stroke:midnightblue;" points="240.584,-187.521 230,-188 238.573,-194.226 240.584,-187.521"/>
</g>
<!-- Node31&#45;&gt;Node2 -->
<g id="edge168" class="edge"><title>Node31&#45;&gt;Node2</title>
<path style="fill:none;stroke:midnightblue;" d="M201,-168C201,-161 200,-151 200,-142"/>
<polygon style="fill:midnightblue;stroke:midnightblue;" points="203.5,-142 200,-132 196.5,-142 203.5,-142"/>
</g>
<!-- Node31&#45;&gt;Node4 -->
<g id="edge170" class="edge"><title>Node31&#45;&gt;Node4</title>
<path style="fill:none;stroke:midnightblue;" d="M173,-168C142,-156 102,-135 122,-112 187,-35 949,-14 1112,-10"/>
<polygon style="fill:midnightblue;stroke:midnightblue;" points="1112,-13.5001 1122,-10 1112,-6.5001 1112,-13.5001"/>
</g>
<!-- Node31&#45;&gt;Node6 -->
<g id="edge172" class="edge"><title>Node31&#45;&gt;Node6</title>
<path style="fill:none;stroke:midnightblue;" d="M257,-173C282,-171 313,-169 340,-168 820,-142 1402,-128 1578,-123"/>
<polygon style="fill:midnightblue;stroke:midnightblue;" points="1578,-126.5 1588,-123 1578,-119.5 1578,-126.5"/>
</g>
<!-- Node31&#45;&gt;Node11 -->
<g id="edge166" class="edge"><title>Node31&#45;&gt;Node11</title>
<path style="fill:none;stroke:midnightblue;" d="M178,-168C151,-155 114,-133 133,-112 159,-82 421,-71 544,-67"/>
<polygon style="fill:midnightblue;stroke:midnightblue;" points="544,-70.5001 554,-67 544,-63.5001 544,-70.5001"/>
</g>
</g>
</svg>
