<?xml version="1.0" encoding="UTF-8" standalone="no"?>
<!DOCTYPE svg PUBLIC "-//W3C//DTD SVG 1.0//EN"
 "http://www.w3.org/TR/2001/REC-SVG-20010904/DTD/svg10.dtd" [
 <!ATTLIST svg xmlns:xlink CDATA #FIXED "http://www.w3.org/1999/xlink">
]>
<!-- Generated by Graphviz version 2.20.2 (Tue Mar &#160;2 19:03:41 UTC 2010)
     For user: (jenkins)  -->
<!-- Title: G Pages: 1 -->
<svg width="1107pt" height="196pt"
 viewBox="0.00 0.00 1107.00 196.00" xmlns="http://www.w3.org/2000/svg" xmlns:xlink="http://www.w3.org/1999/xlink">
<g id="graph0" class="graph" transform="scale(1 1) rotate(0) translate(4 192)">
<title>G</title>
<polygon style="fill:white;stroke:white;" points="-4,4 -4,-192 1103,-192 1103,4 -4,4"/>
<!-- Node1 -->
<g id="node1" class="node"><title>Node1</title>
<polygon style="fill:#bfbfbf;stroke:black;" points="314,-168 314,-188 411,-188 411,-168 314,-168"/>
<text text-anchor="middle" x="362" y="-175" style="font-family:Arial;font-size:10.00;">ltr/scorers/scorer.h</text>
</g>
<!-- Node2 -->
<g id="node3" class="node"><title>Node2</title>
<polygon style="fill:white;stroke:#bfbfbf;" points="0,-0 0,-20 114,-20 114,-0 0,-0"/>
<text text-anchor="middle" x="57" y="-7" style="font-family:Arial;font-size:10.00;">boost/lexical_cast.hpp</text>
</g>
<!-- Node1&#45;&gt;Node2 -->
<g id="edge2" class="edge"><title>Node1&#45;&gt;Node2</title>
<path style="fill:none;stroke:midnightblue;" d="M314,-174C233,-167 75,-150 58,-132 34,-104 43,-56 50,-30"/>
<polygon style="fill:midnightblue;stroke:midnightblue;" points="53.4788,-30.584 53,-20 46.7741,-28.5725 53.4788,-30.584"/>
</g>
<!-- Node3 -->
<g id="node5" class="node"><title>Node3</title>
<polygon style="fill:white;stroke:#bfbfbf;" points="67,-112 67,-132 109,-132 109,-112 67,-112"/>
<text text-anchor="middle" x="88" y="-119" style="font-family:Arial;font-size:10.00;">vector</text>
</g>
<!-- Node1&#45;&gt;Node3 -->
<g id="edge4" class="edge"><title>Node1&#45;&gt;Node3</title>
<path style="fill:none;stroke:midnightblue;" d="M314,-170C265,-162 188,-148 123,-132 122,-132 120,-131 119,-131"/>
<polygon style="fill:midnightblue;stroke:midnightblue;" points="119.584,-127.521 109,-128 117.573,-134.226 119.584,-127.521"/>
</g>
<!-- Node4 -->
<g id="node7" class="node"><title>Node4</title>
<polygon style="fill:white;stroke:#bfbfbf;" points="201,-0 201,-20 241,-20 241,-0 201,-0"/>
<text text-anchor="middle" x="221" y="-7" style="font-family:Arial;font-size:10.00;">string</text>
</g>
<!-- Node1&#45;&gt;Node4 -->
<g id="edge6" class="edge"><title>Node1&#45;&gt;Node4</title>
<path style="fill:none;stroke:midnightblue;" d="M314,-174C259,-168 175,-156 156,-132 130,-98 173,-51 200,-27"/>
<polygon style="fill:midnightblue;stroke:midnightblue;" points="202.779,-29.2191 208,-20 198.169,-23.9511 202.779,-29.2191"/>
</g>
<!-- Node5 -->
<g id="node9" class="node"><title>Node5</title>
<polygon style="fill:white;stroke:#bfbfbf;" points="165,-112 165,-132 273,-132 273,-112 165,-112"/>
<text text-anchor="middle" x="219" y="-119" style="font-family:Arial;font-size:10.00;">ltr/interfaces/aliaser.h</text>
</g>
<!-- Node1&#45;&gt;Node5 -->
<g id="edge8" class="edge"><title>Node1&#45;&gt;Node5</title>
<path style="fill:none;stroke:midnightblue;" d="M336,-168C313,-159 280,-146 255,-136"/>
<polygon style="fill:midnightblue;stroke:midnightblue;" points="255.585,-132.464 245,-132 252.985,-138.964 255.585,-132.464"/>
</g>
<!-- Node6 -->
<g id="node11" class="node"><title>Node6</title>
<polygon style="fill:white;stroke:#bfbfbf;" points="293,-0 293,-20 377,-20 377,-0 293,-0"/>
<text text-anchor="middle" x="335" y="-7" style="font-family:Arial;font-size:10.00;">ltr/data/object.h</text>
</g>
<!-- Node1&#45;&gt;Node6 -->
<g id="edge10" class="edge"><title>Node1&#45;&gt;Node6</title>
<path style="fill:none;stroke:midnightblue;" d="M349,-168C339,-159 326,-146 320,-132 307,-98 318,-55 327,-30"/>
<polygon style="fill:midnightblue;stroke:midnightblue;" points="330.536,-30.5847 331,-20 324.036,-27.9849 330.536,-30.5847"/>
</g>
<!-- Node7 -->
<g id="node13" class="node"><title>Node7</title>
<polygon style="fill:white;stroke:#bfbfbf;" points="329,-112 329,-132 519,-132 519,-112 329,-112"/>
<text text-anchor="middle" x="424" y="-119" style="font-family:Arial;font-size:10.00;">ltr/feature_converters/feature_converter.h</text>
</g>
<!-- Node1&#45;&gt;Node7 -->
<g id="edge12" class="edge"><title>Node1&#45;&gt;Node7</title>
<path style="fill:none;stroke:midnightblue;" d="M373,-168C382,-160 395,-149 405,-139"/>
<polygon style="fill:midnightblue;stroke:midnightblue;" points="407.779,-141.219 413,-132 403.169,-135.951 407.779,-141.219"/>
</g>
<!-- Node8 -->
<g id="node15" class="node"><title>Node8</title>
<a xlink:href="serializable__functor_8h.html" target="_top" xlink:title="ltr/interfaces/serializable_functor.h">
<polygon style="fill:white;stroke:black;" points="537,-112 537,-132 700,-132 700,-112 537,-112"/>
<text text-anchor="middle" x="618" y="-119" style="font-family:Arial;font-size:10.00;">ltr/interfaces/serializable_functor.h</text>
</a>
</g>
<!-- Node1&#45;&gt;Node8 -->
<g id="edge14" class="edge"><title>Node1&#45;&gt;Node8</title>
<path style="fill:none;stroke:midnightblue;" d="M408,-168C451,-159 516,-144 562,-134"/>
<polygon style="fill:midnightblue;stroke:midnightblue;" points="562.881,-137.393 572,-132 561.508,-130.529 562.881,-137.393"/>
</g>
<!-- Node9 -->
<g id="node17" class="node"><title>Node9</title>
<polygon style="fill:white;stroke:#bfbfbf;" points="412,-0 412,-20 519,-20 519,-0 412,-0"/>
<text text-anchor="middle" x="465" y="-7" style="font-family:Arial;font-size:10.00;">ltr/utility/shared_ptr.h</text>
</g>
<!-- Node1&#45;&gt;Node9 -->
<g id="edge34" class="edge"><title>Node1&#45;&gt;Node9</title>
<path style="fill:none;stroke:midnightblue;" d="M411,-176C494,-171 657,-158 708,-132 736,-116 744,-106 756,-76 759,-67 761,-62 756,-56 741,-39 610,-23 529,-16"/>
<polygon style="fill:midnightblue;stroke:midnightblue;" points="529.299,-12.5125 519,-15 528.602,-19.4778 529.299,-12.5125"/>
</g>
<!-- Node13 -->
<g id="node29" class="node"><title>Node13</title>
<polygon style="fill:white;stroke:#bfbfbf;" points="803,-112 803,-132 920,-132 920,-112 803,-112"/>
<text text-anchor="middle" x="861" y="-119" style="font-family:Arial;font-size:10.00;">ltr/interfaces/printable.h</text>
</g>
<!-- Node1&#45;&gt;Node13 -->
<g id="edge32" class="edge"><title>Node1&#45;&gt;Node13</title>
<path style="fill:none;stroke:midnightblue;" d="M411,-173C491,-165 652,-149 789,-132 790,-132 792,-132 793,-131"/>
<polygon style="fill:midnightblue;stroke:midnightblue;" points="793.398,-134.478 803,-130 792.701,-127.512 793.398,-134.478"/>
</g>
<!-- Node14 -->
<g id="node32" class="node"><title>Node14</title>
<polygon style="fill:white;stroke:#bfbfbf;" points="937,-112 937,-132 1100,-132 1100,-112 937,-112"/>
<text text-anchor="middle" x="1018" y="-119" style="font-family:Arial;font-size:10.00;">ltr/interfaces/serializable_functor.h</text>
</g>
<!-- Node1&#45;&gt;Node14 -->
<g id="edge36" class="edge"><title>Node1&#45;&gt;Node14</title>
<path style="fill:none;stroke:midnightblue;" d="M411,-174C507,-167 729,-151 927,-132"/>
<polygon style="fill:midnightblue;stroke:midnightblue;" points="927.398,-135.478 937,-131 926.701,-128.512 927.398,-135.478"/>
</g>
<!-- Node8&#45;&gt;Node9 -->
<g id="edge16" class="edge"><title>Node8&#45;&gt;Node9</title>
<path style="fill:none;stroke:midnightblue;" d="M551,-112C527,-105 501,-94 484,-76 472,-63 467,-45 466,-30"/>
<polygon style="fill:midnightblue;stroke:midnightblue;" points="469.478,-29.6021 465,-20 462.512,-30.2987 469.478,-29.6021"/>
</g>
<!-- Node10 -->
<g id="node19" class="node"><title>Node10</title>
<a xlink:href="functor_8h.html" target="_top" xlink:title="ltr/interfaces/functor.h">
<polygon style="fill:white;stroke:black;" points="329,-56 329,-76 438,-76 438,-56 329,-56"/>
<text text-anchor="middle" x="383" y="-63" style="font-family:Arial;font-size:10.00;">ltr/interfaces/functor.h</text>
</a>
</g>
<!-- Node8&#45;&gt;Node10 -->
<g id="edge18" class="edge"><title>Node8&#45;&gt;Node10</title>
<path style="fill:none;stroke:midnightblue;" d="M576,-112C536,-103 478,-88 435,-78"/>
<polygon style="fill:midnightblue;stroke:midnightblue;" points="435.492,-74.5292 425,-76 434.119,-81.3933 435.492,-74.5292"/>
</g>
<!-- Node11 -->
<g id="node25" class="node"><title>Node11</title>
<polygon style="fill:white;stroke:#bfbfbf;" points="493,-56 493,-76 622,-76 622,-56 493,-56"/>
<text text-anchor="middle" x="557" y="-63" style="font-family:Arial;font-size:10.00;">ltr/interfaces/serializable.h</text>
</g>
<!-- Node8&#45;&gt;Node11 -->
<g id="edge28" class="edge"><title>Node8&#45;&gt;Node11</title>
<path style="fill:none;stroke:midnightblue;" d="M607,-112C598,-104 586,-93 575,-83"/>
<polygon style="fill:midnightblue;stroke:midnightblue;" points="577.546,-80.5962 568,-76 572.596,-85.546 577.546,-80.5962"/>
</g>
<!-- Node12 -->
<g id="node27" class="node"><title>Node12</title>
<polygon style="fill:white;stroke:#bfbfbf;" points="639,-56 639,-76 748,-76 748,-56 639,-56"/>
<text text-anchor="middle" x="693" y="-63" style="font-family:Arial;font-size:10.00;">ltr/interfaces/functor.h</text>
</g>
<!-- Node8&#45;&gt;Node12 -->
<g id="edge30" class="edge"><title>Node8&#45;&gt;Node12</title>
<path style="fill:none;stroke:midnightblue;" d="M631,-112C642,-104 658,-92 671,-82"/>
<polygon style="fill:midnightblue;stroke:midnightblue;" points="673.1,-84.8 679,-76 668.9,-79.2 673.1,-84.8"/>
</g>
<!-- Node10&#45;&gt;Node2 -->
<g id="edge22" class="edge"><title>Node10&#45;&gt;Node2</title>
<path style="fill:none;stroke:midnightblue;" d="M329,-57C272,-48 185,-32 124,-22"/>
<polygon style="fill:midnightblue;stroke:midnightblue;" points="124.492,-18.5292 114,-20 123.119,-25.3933 124.492,-18.5292"/>
</g>
<!-- Node10&#45;&gt;Node4 -->
<g id="edge24" class="edge"><title>Node10&#45;&gt;Node4</title>
<path style="fill:none;stroke:midnightblue;" d="M354,-56C324,-46 280,-31 250,-20"/>
<polygon style="fill:midnightblue;stroke:midnightblue;" points="251.594,-16.842 241,-17 249.38,-23.4827 251.594,-16.842"/>
</g>
<!-- Node10&#45;&gt;Node6 -->
<g id="edge26" class="edge"><title>Node10&#45;&gt;Node6</title>
<path style="fill:none;stroke:midnightblue;" d="M374,-56C368,-48 358,-37 350,-28"/>
<polygon style="fill:midnightblue;stroke:midnightblue;" points="352.8,-25.9 344,-20 347.2,-30.1 352.8,-25.9"/>
</g>
<!-- Node10&#45;&gt;Node9 -->
<g id="edge20" class="edge"><title>Node10&#45;&gt;Node9</title>
<path style="fill:none;stroke:midnightblue;" d="M398,-56C410,-48 427,-35 442,-26"/>
<polygon style="fill:midnightblue;stroke:midnightblue;" points="444.1,-28.8 450,-20 439.9,-23.2 444.1,-28.8"/>
</g>
</g>
</svg>
