<?xml version="1.0" encoding="UTF-8" standalone="no"?>
<!DOCTYPE svg PUBLIC "-//W3C//DTD SVG 1.0//EN"
 "http://www.w3.org/TR/2001/REC-SVG-20010904/DTD/svg10.dtd" [
 <!ATTLIST svg xmlns:xlink CDATA #FIXED "http://www.w3.org/1999/xlink">
]>
<!-- Generated by Graphviz version 2.20.2 (Tue Mar &#160;2 19:03:41 UTC 2010)
     For user: (jenkins)  -->
<!-- Title: G Pages: 1 -->
<svg width="592pt" height="84pt"
 viewBox="0.00 0.00 592.00 84.00" xmlns="http://www.w3.org/2000/svg" xmlns:xlink="http://www.w3.org/1999/xlink">
<g id="graph0" class="graph" transform="scale(1 1) rotate(0) translate(4 80)">
<title>G</title>
<polygon style="fill:white;stroke:white;" points="-4,4 -4,-80 588,-80 588,4 -4,4"/>
<!-- Node1 -->
<g id="node1" class="node"><title>Node1</title>
<polygon style="fill:#bfbfbf;stroke:black;" points="13,-56 13,-76 292,-76 292,-56 13,-56"/>
<text text-anchor="middle" x="152" y="-63" style="font-family:Arial;font-size:10.00;">ltr/learners/gp_learner/strategies/select_top_trees_strategy.h</text>
</g>
<!-- Node2 -->
<g id="node3" class="node"><title>Node2</title>
<polygon style="fill:white;stroke:#bfbfbf;" points="0,-0 0,-20 46,-20 46,-0 0,-0"/>
<text text-anchor="middle" x="23" y="-7" style="font-family:Arial;font-size:10.00;">math.h</text>
</g>
<!-- Node1&#45;&gt;Node2 -->
<g id="edge2" class="edge"><title>Node1&#45;&gt;Node2</title>
<path style="fill:none;stroke:midnightblue;" d="M129,-56C109,-47 79,-34 56,-24"/>
<polygon style="fill:midnightblue;stroke:midnightblue;" points="56.5847,-20.4643 46,-20 53.9849,-26.9636 56.5847,-20.4643"/>
</g>
<!-- Node3 -->
<g id="node5" class="node"><title>Node3</title>
<polygon style="fill:white;stroke:#bfbfbf;" points="64,-0 64,-20 106,-20 106,-0 64,-0"/>
<text text-anchor="middle" x="85" y="-7" style="font-family:Arial;font-size:10.00;">vector</text>
</g>
<!-- Node1&#45;&gt;Node3 -->
<g id="edge4" class="edge"><title>Node1&#45;&gt;Node3</title>
<path style="fill:none;stroke:midnightblue;" d="M140,-56C130,-48 117,-36 105,-27"/>
<polygon style="fill:midnightblue;stroke:midnightblue;" points="106.831,-23.9511 97,-20 102.221,-29.2191 106.831,-23.9511"/>
</g>
<!-- Node4 -->
<g id="node7" class="node"><title>Node4</title>
<polygon style="fill:white;stroke:#bfbfbf;" points="124,-0 124,-20 180,-20 180,-0 124,-0"/>
<text text-anchor="middle" x="152" y="-7" style="font-family:Arial;font-size:10.00;">algorithm</text>
</g>
<!-- Node1&#45;&gt;Node4 -->
<g id="edge6" class="edge"><title>Node1&#45;&gt;Node4</title>
<path style="fill:none;stroke:midnightblue;" d="M152,-56C152,-49 152,-39 152,-30"/>
<polygon style="fill:midnightblue;stroke:midnightblue;" points="155.5,-30 152,-20 148.5,-30 155.5,-30"/>
</g>
<!-- Node5 -->
<g id="node9" class="node"><title>Node5</title>
<polygon style="fill:white;stroke:#bfbfbf;" points="198,-0 198,-20 321,-20 321,-0 198,-0"/>
<text text-anchor="middle" x="259" y="-7" style="font-family:Arial;font-size:10.00;">contrib/puppy/Puppy.hpp</text>
</g>
<!-- Node1&#45;&gt;Node5 -->
<g id="edge8" class="edge"><title>Node1&#45;&gt;Node5</title>
<path style="fill:none;stroke:midnightblue;" d="M171,-56C187,-47 212,-34 231,-25"/>
<polygon style="fill:midnightblue;stroke:midnightblue;" points="232.958,-27.916 240,-20 229.559,-21.7969 232.958,-27.916"/>
</g>
<!-- Node6 -->
<g id="node11" class="node"><title>Node6</title>
<polygon style="fill:white;stroke:#bfbfbf;" points="338,-0 338,-20 585,-20 585,-0 338,-0"/>
<text text-anchor="middle" x="461" y="-7" style="font-family:Arial;font-size:10.00;">ltr/learners/gp_learner/strategies/population_handler.h</text>
</g>
<!-- Node1&#45;&gt;Node6 -->
<g id="edge10" class="edge"><title>Node1&#45;&gt;Node6</title>
<path style="fill:none;stroke:midnightblue;" d="M207,-56C260,-47 340,-32 396,-22"/>
<polygon style="fill:midnightblue;stroke:midnightblue;" points="396.881,-25.3933 406,-20 395.508,-18.5292 396.881,-25.3933"/>
</g>
</g>
</svg>
