<?xml version="1.0" encoding="UTF-8" standalone="no"?>
<!DOCTYPE svg PUBLIC "-//W3C//DTD SVG 1.0//EN"
 "http://www.w3.org/TR/2001/REC-SVG-20010904/DTD/svg10.dtd" [
 <!ATTLIST svg xmlns:xlink CDATA #FIXED "http://www.w3.org/1999/xlink">
]>
<!-- Generated by Graphviz version 2.20.2 (Tue Mar &#160;2 19:03:41 UTC 2010)
     For user: (jenkins)  -->
<!-- Title: G Pages: 1 -->
<svg width="782pt" height="196pt"
 viewBox="0.00 0.00 782.00 196.00" xmlns="http://www.w3.org/2000/svg" xmlns:xlink="http://www.w3.org/1999/xlink">
<g id="graph0" class="graph" transform="scale(1 1) rotate(0) translate(4 192)">
<title>G</title>
<polygon style="fill:white;stroke:white;" points="-4,4 -4,-192 778,-192 778,4 -4,4"/>
<!-- Node1 -->
<g id="node1" class="node"><title>Node1</title>
<polygon style="fill:#bfbfbf;stroke:black;" points="194,-168 194,-188 329,-188 329,-168 194,-168"/>
<text text-anchor="middle" x="261" y="-175" style="font-family:Arial;font-size:10.00;">ltr/interfaces/serializable.cc</text>
</g>
<!-- Node2 -->
<g id="node3" class="node"><title>Node2</title>
<a xlink:href="serializable_8h.html" target="_top" xlink:title="ltr/interfaces/serializable.h">
<polygon style="fill:white;stroke:black;" points="197,-112 197,-132 326,-132 326,-112 197,-112"/>
<text text-anchor="middle" x="261" y="-119" style="font-family:Arial;font-size:10.00;">ltr/interfaces/serializable.h</text>
</a>
</g>
<!-- Node1&#45;&gt;Node2 -->
<g id="edge2" class="edge"><title>Node1&#45;&gt;Node2</title>
<path style="fill:none;stroke:midnightblue;" d="M261,-168C261,-161 261,-151 261,-142"/>
<polygon style="fill:midnightblue;stroke:midnightblue;" points="264.5,-142 261,-132 257.5,-142 264.5,-142"/>
</g>
<!-- Node3 -->
<g id="node5" class="node"><title>Node3</title>
<polygon style="fill:white;stroke:#bfbfbf;" points="0,-56 0,-76 114,-76 114,-56 0,-56"/>
<text text-anchor="middle" x="57" y="-63" style="font-family:Arial;font-size:10.00;">boost/lexical_cast.hpp</text>
</g>
<!-- Node2&#45;&gt;Node3 -->
<g id="edge4" class="edge"><title>Node2&#45;&gt;Node3</title>
<path style="fill:none;stroke:midnightblue;" d="M225,-112C191,-103 141,-89 104,-79"/>
<polygon style="fill:midnightblue;stroke:midnightblue;" points="104.584,-75.5212 94,-76 102.573,-82.2259 104.584,-75.5212"/>
</g>
<!-- Node4 -->
<g id="node7" class="node"><title>Node4</title>
<polygon style="fill:white;stroke:#bfbfbf;" points="132,-56 132,-76 206,-76 206,-56 132,-56"/>
<text text-anchor="middle" x="169" y="-63" style="font-family:Arial;font-size:10.00;">logog/logog.h</text>
</g>
<!-- Node2&#45;&gt;Node4 -->
<g id="edge6" class="edge"><title>Node2&#45;&gt;Node4</title>
<path style="fill:none;stroke:midnightblue;" d="M245,-112C231,-104 210,-91 195,-81"/>
<polygon style="fill:midnightblue;stroke:midnightblue;" points="196.441,-77.7969 186,-76 193.042,-83.916 196.441,-77.7969"/>
</g>
<!-- Node5 -->
<g id="node9" class="node"><title>Node5</title>
<polygon style="fill:white;stroke:#bfbfbf;" points="271,-0 271,-20 311,-20 311,-0 271,-0"/>
<text text-anchor="middle" x="291" y="-7" style="font-family:Arial;font-size:10.00;">string</text>
</g>
<!-- Node2&#45;&gt;Node5 -->
<g id="edge8" class="edge"><title>Node2&#45;&gt;Node5</title>
<path style="fill:none;stroke:midnightblue;" d="M257,-112C252,-98 246,-74 253,-56 257,-46 264,-36 271,-27"/>
<polygon style="fill:midnightblue;stroke:midnightblue;" points="273.779,-29.2191 279,-20 269.169,-23.9511 273.779,-29.2191"/>
</g>
<!-- Node6 -->
<g id="node11" class="node"><title>Node6</title>
<polygon style="fill:white;stroke:#bfbfbf;" points="262,-56 262,-76 316,-76 316,-56 262,-56"/>
<text text-anchor="middle" x="289" y="-63" style="font-family:Arial;font-size:10.00;">iostream</text>
</g>
<!-- Node2&#45;&gt;Node6 -->
<g id="edge10" class="edge"><title>Node2&#45;&gt;Node6</title>
<path style="fill:none;stroke:midnightblue;" d="M266,-112C270,-105 275,-94 280,-85"/>
<polygon style="fill:midnightblue;stroke:midnightblue;" points="283.137,-86.5596 284,-76 276.74,-83.7166 283.137,-86.5596"/>
</g>
<!-- Node7 -->
<g id="node13" class="node"><title>Node7</title>
<a xlink:href="shared__ptr_8h.html" target="_top" xlink:title="ltr/utility/shared_ptr.h">
<polygon style="fill:white;stroke:black;" points="460,-56 460,-76 567,-76 567,-56 460,-56"/>
<text text-anchor="middle" x="513" y="-63" style="font-family:Arial;font-size:10.00;">ltr/utility/shared_ptr.h</text>
</a>
</g>
<!-- Node2&#45;&gt;Node7 -->
<g id="edge12" class="edge"><title>Node2&#45;&gt;Node7</title>
<path style="fill:none;stroke:midnightblue;" d="M306,-112C349,-103 412,-88 458,-78"/>
<polygon style="fill:midnightblue;stroke:midnightblue;" points="458.881,-81.3933 468,-76 457.508,-74.5292 458.881,-81.3933"/>
</g>
<!-- Node11 -->
<g id="node21" class="node"><title>Node11</title>
<a xlink:href="aliaser_8h.html" target="_top" xlink:title="ltr/interfaces/aliaser.h">
<polygon style="fill:white;stroke:black;" points="334,-56 334,-76 442,-76 442,-56 334,-56"/>
<text text-anchor="middle" x="388" y="-63" style="font-family:Arial;font-size:10.00;">ltr/interfaces/aliaser.h</text>
</a>
</g>
<!-- Node2&#45;&gt;Node11 -->
<g id="edge20" class="edge"><title>Node2&#45;&gt;Node11</title>
<path style="fill:none;stroke:midnightblue;" d="M284,-112C304,-103 333,-90 356,-80"/>
<polygon style="fill:midnightblue;stroke:midnightblue;" points="357.283,-83.2598 365,-76 354.44,-76.8631 357.283,-83.2598"/>
</g>
<!-- Node8 -->
<g id="node15" class="node"><title>Node8</title>
<polygon style="fill:white;stroke:#bfbfbf;" points="386,-0 386,-20 442,-20 442,-0 386,-0"/>
<text text-anchor="middle" x="414" y="-7" style="font-family:Arial;font-size:10.00;">algorithm</text>
</g>
<!-- Node7&#45;&gt;Node8 -->
<g id="edge14" class="edge"><title>Node7&#45;&gt;Node8</title>
<path style="fill:none;stroke:midnightblue;" d="M495,-56C480,-48 458,-35 441,-25"/>
<polygon style="fill:midnightblue;stroke:midnightblue;" points="442.441,-21.7969 432,-20 439.042,-27.916 442.441,-21.7969"/>
</g>
<!-- Node9 -->
<g id="node17" class="node"><title>Node9</title>
<polygon style="fill:white;stroke:#bfbfbf;" points="460,-0 460,-20 567,-20 567,-0 460,-0"/>
<text text-anchor="middle" x="513" y="-7" style="font-family:Arial;font-size:10.00;">boost/shared_ptr.hpp</text>
</g>
<!-- Node7&#45;&gt;Node9 -->
<g id="edge16" class="edge"><title>Node7&#45;&gt;Node9</title>
<path style="fill:none;stroke:midnightblue;" d="M513,-56C513,-49 513,-39 513,-30"/>
<polygon style="fill:midnightblue;stroke:midnightblue;" points="516.5,-30 513,-20 509.5,-30 516.5,-30"/>
</g>
<!-- Node10 -->
<g id="node19" class="node"><title>Node10</title>
<polygon style="fill:white;stroke:#bfbfbf;" points="584,-0 584,-20 775,-20 775,-0 584,-0"/>
<text text-anchor="middle" x="679" y="-7" style="font-family:Arial;font-size:10.00;">boost/smart_ptr/detail/operator_bool.hpp</text>
</g>
<!-- Node7&#45;&gt;Node10 -->
<g id="edge18" class="edge"><title>Node7&#45;&gt;Node10</title>
<path style="fill:none;stroke:midnightblue;" d="M543,-56C570,-47 610,-33 639,-23"/>
<polygon style="fill:midnightblue;stroke:midnightblue;" points="640.427,-26.2259 649,-20 638.416,-19.5212 640.427,-26.2259"/>
</g>
<!-- Node11&#45;&gt;Node5 -->
<g id="edge22" class="edge"><title>Node11&#45;&gt;Node5</title>
<path style="fill:none;stroke:midnightblue;" d="M371,-56C356,-48 334,-35 318,-25"/>
<polygon style="fill:midnightblue;stroke:midnightblue;" points="319.441,-21.7969 309,-20 316.042,-27.916 319.441,-21.7969"/>
</g>
</g>
</svg>
