<?xml version="1.0" encoding="UTF-8" standalone="no"?>
<!DOCTYPE svg PUBLIC "-//W3C//DTD SVG 1.0//EN"
 "http://www.w3.org/TR/2001/REC-SVG-20010904/DTD/svg10.dtd" [
 <!ATTLIST svg xmlns:xlink CDATA #FIXED "http://www.w3.org/1999/xlink">
]>
<!-- Generated by Graphviz version 2.20.2 (Tue Mar &#160;2 19:03:41 UTC 2010)
     For user: (jenkins)  -->
<!-- Title: G Pages: 1 -->
<svg width="515pt" height="140pt"
 viewBox="0.00 0.00 515.00 140.00" xmlns="http://www.w3.org/2000/svg" xmlns:xlink="http://www.w3.org/1999/xlink">
<g id="graph0" class="graph" transform="scale(1 1) rotate(0) translate(4 136)">
<title>G</title>
<polygon style="fill:white;stroke:white;" points="-4,4 -4,-136 511,-136 511,4 -4,4"/>
<!-- Node1 -->
<g id="node1" class="node"><title>Node1</title>
<polygon style="fill:#bfbfbf;stroke:black;" points="168,-112 168,-132 331,-132 331,-112 168,-112"/>
<text text-anchor="middle" x="249" y="-119" style="font-family:Arial;font-size:10.00;">ltr/interfaces/serializable_functor.h</text>
</g>
<!-- Node2 -->
<g id="node3" class="node"><title>Node2</title>
<polygon style="fill:white;stroke:#bfbfbf;" points="0,-0 0,-20 107,-20 107,-0 0,-0"/>
<text text-anchor="middle" x="53" y="-7" style="font-family:Arial;font-size:10.00;">ltr/utility/shared_ptr.h</text>
</g>
<!-- Node1&#45;&gt;Node2 -->
<g id="edge2" class="edge"><title>Node1&#45;&gt;Node2</title>
<path style="fill:none;stroke:midnightblue;" d="M205,-112C179,-105 145,-93 118,-76 98,-63 80,-43 68,-28"/>
<polygon style="fill:midnightblue;stroke:midnightblue;" points="70.2191,-25.221 61,-20 64.9511,-29.8306 70.2191,-25.221"/>
</g>
<!-- Node3 -->
<g id="node5" class="node"><title>Node3</title>
<a xlink:href="functor_8h.html" target="_top" xlink:title="ltr/interfaces/functor.h">
<polygon style="fill:white;stroke:black;" points="127,-56 127,-76 236,-76 236,-56 127,-56"/>
<text text-anchor="middle" x="181" y="-63" style="font-family:Arial;font-size:10.00;">ltr/interfaces/functor.h</text>
</a>
</g>
<!-- Node1&#45;&gt;Node3 -->
<g id="edge4" class="edge"><title>Node1&#45;&gt;Node3</title>
<path style="fill:none;stroke:midnightblue;" d="M237,-112C227,-104 213,-92 201,-83"/>
<polygon style="fill:midnightblue;stroke:midnightblue;" points="202.831,-79.9511 193,-76 198.221,-85.2191 202.831,-79.9511"/>
</g>
<!-- Node7 -->
<g id="node14" class="node"><title>Node7</title>
<polygon style="fill:white;stroke:#bfbfbf;" points="253,-56 253,-76 382,-76 382,-56 253,-56"/>
<text text-anchor="middle" x="317" y="-63" style="font-family:Arial;font-size:10.00;">ltr/interfaces/serializable.h</text>
</g>
<!-- Node1&#45;&gt;Node7 -->
<g id="edge14" class="edge"><title>Node1&#45;&gt;Node7</title>
<path style="fill:none;stroke:midnightblue;" d="M261,-112C272,-104 285,-92 297,-83"/>
<polygon style="fill:midnightblue;stroke:midnightblue;" points="299.779,-85.2191 305,-76 295.169,-79.9511 299.779,-85.2191"/>
</g>
<!-- Node8 -->
<g id="node16" class="node"><title>Node8</title>
<polygon style="fill:white;stroke:#bfbfbf;" points="399,-56 399,-76 508,-76 508,-56 399,-56"/>
<text text-anchor="middle" x="453" y="-63" style="font-family:Arial;font-size:10.00;">ltr/interfaces/functor.h</text>
</g>
<!-- Node1&#45;&gt;Node8 -->
<g id="edge16" class="edge"><title>Node1&#45;&gt;Node8</title>
<path style="fill:none;stroke:midnightblue;" d="M285,-112C319,-103 369,-89 406,-79"/>
<polygon style="fill:midnightblue;stroke:midnightblue;" points="407.427,-82.2259 416,-76 405.416,-75.5212 407.427,-82.2259"/>
</g>
<!-- Node3&#45;&gt;Node2 -->
<g id="edge6" class="edge"><title>Node3&#45;&gt;Node2</title>
<path style="fill:none;stroke:midnightblue;" d="M158,-56C138,-47 108,-34 85,-24"/>
<polygon style="fill:midnightblue;stroke:midnightblue;" points="86.5596,-20.8631 76,-20 83.7166,-27.2598 86.5596,-20.8631"/>
</g>
<!-- Node4 -->
<g id="node8" class="node"><title>Node4</title>
<polygon style="fill:white;stroke:#bfbfbf;" points="124,-0 124,-20 238,-20 238,-0 124,-0"/>
<text text-anchor="middle" x="181" y="-7" style="font-family:Arial;font-size:10.00;">boost/lexical_cast.hpp</text>
</g>
<!-- Node3&#45;&gt;Node4 -->
<g id="edge8" class="edge"><title>Node3&#45;&gt;Node4</title>
<path style="fill:none;stroke:midnightblue;" d="M181,-56C181,-49 181,-39 181,-30"/>
<polygon style="fill:midnightblue;stroke:midnightblue;" points="184.5,-30 181,-20 177.5,-30 184.5,-30"/>
</g>
<!-- Node5 -->
<g id="node10" class="node"><title>Node5</title>
<polygon style="fill:white;stroke:#bfbfbf;" points="256,-0 256,-20 296,-20 296,-0 256,-0"/>
<text text-anchor="middle" x="276" y="-7" style="font-family:Arial;font-size:10.00;">string</text>
</g>
<!-- Node3&#45;&gt;Node5 -->
<g id="edge10" class="edge"><title>Node3&#45;&gt;Node5</title>
<path style="fill:none;stroke:midnightblue;" d="M198,-56C212,-48 233,-35 250,-25"/>
<polygon style="fill:midnightblue;stroke:midnightblue;" points="251.958,-27.916 259,-20 248.559,-21.7969 251.958,-27.916"/>
</g>
<!-- Node6 -->
<g id="node12" class="node"><title>Node6</title>
<polygon style="fill:white;stroke:#bfbfbf;" points="314,-0 314,-20 398,-20 398,-0 314,-0"/>
<text text-anchor="middle" x="356" y="-7" style="font-family:Arial;font-size:10.00;">ltr/data/object.h</text>
</g>
<!-- Node3&#45;&gt;Node6 -->
<g id="edge12" class="edge"><title>Node3&#45;&gt;Node6</title>
<path style="fill:none;stroke:midnightblue;" d="M212,-56C241,-47 284,-33 315,-23"/>
<polygon style="fill:midnightblue;stroke:midnightblue;" points="316.427,-26.2259 325,-20 314.416,-19.5212 316.427,-26.2259"/>
</g>
</g>
</svg>
