<?xml version="1.0" encoding="UTF-8" standalone="no"?>
<!DOCTYPE svg PUBLIC "-//W3C//DTD SVG 1.0//EN"
 "http://www.w3.org/TR/2001/REC-SVG-20010904/DTD/svg10.dtd" [
 <!ATTLIST svg xmlns:xlink CDATA #FIXED "http://www.w3.org/1999/xlink">
]>
<!-- Generated by Graphviz version 2.20.2 (Tue Mar &#160;2 19:03:41 UTC 2010)
     For user: (jenkins)  -->
<!-- Title: G Pages: 1 -->
<svg width="5934pt" height="308pt"
 viewBox="0.00 0.00 5934.00 308.00" xmlns="http://www.w3.org/2000/svg" xmlns:xlink="http://www.w3.org/1999/xlink">
<g id="graph0" class="graph" transform="scale(1 1) rotate(0) translate(4 304)">
<title>G</title>
<polygon style="fill:white;stroke:white;" points="-4,4 -4,-304 5930,-304 5930,4 -4,4"/>
<!-- Node1 -->
<g id="node1" class="node"><title>Node1</title>
<polygon style="fill:#bfbfbf;stroke:black;" points="4691,-280 4691,-300 4854,-300 4854,-280 4691,-280"/>
<text text-anchor="middle" x="4772" y="-287" style="font-family:Arial;font-size:10.00;">ltr/interfaces/serializable_functor.h</text>
</g>
<!-- Node2 -->
<g id="node3" class="node"><title>Node2</title>
<a xlink:href="scorer_8h.html" target="_top" xlink:title="ltr/scorers/scorer.h">
<polygon style="fill:white;stroke:black;" points="3204,-168 3204,-188 3301,-188 3301,-168 3204,-168"/>
<text text-anchor="middle" x="3252" y="-175" style="font-family:Arial;font-size:10.00;">ltr/scorers/scorer.h</text>
</a>
</g>
<!-- Node1&#45;&gt;Node2 -->
<g id="edge2" class="edge"><title>Node1&#45;&gt;Node2</title>
<path style="fill:none;stroke:midnightblue;" d="M4681,-283C4394,-262 3518,-198 3301,-182"/>
<polygon style="fill:midnightblue;stroke:midnightblue;" points="4680.7,-286.488 4691,-284 4681.4,-279.522 4680.7,-286.488"/>
</g>
<!-- Node45 -->
<g id="node121" class="node"><title>Node45</title>
<a xlink:href="vertex_8h.html" target="_top" xlink:title="ltr/learners/decision_tree/vertex/vertex.h">
<polygon style="fill:white;stroke:black;" points="5226,-224 5226,-244 5414,-244 5414,-224 5226,-224"/>
<text text-anchor="middle" x="5320" y="-231" style="font-family:Arial;font-size:10.00;">ltr/learners/decision_tree/vertex/vertex.h</text>
</a>
</g>
<!-- Node1&#45;&gt;Node45 -->
<g id="edge152" class="edge"><title>Node1&#45;&gt;Node45</title>
<path style="fill:none;stroke:midnightblue;" d="M4864,-281C4965,-271 5124,-254 5226,-244"/>
<polygon style="fill:midnightblue;stroke:midnightblue;" points="4863.6,-277.522 4854,-282 4864.3,-284.488 4863.6,-277.522"/>
</g>
<!-- Node3 -->
<g id="node5" class="node"><title>Node3</title>
<a xlink:href="learner_8h.html" target="_top" xlink:title="ltr/learners/learner.h">
<polygon style="fill:white;stroke:black;" points="2215,-112 2215,-132 2317,-132 2317,-112 2215,-112"/>
<text text-anchor="middle" x="2266" y="-119" style="font-family:Arial;font-size:10.00;">ltr/learners/learner.h</text>
</a>
</g>
<!-- Node2&#45;&gt;Node3 -->
<g id="edge4" class="edge"><title>Node2&#45;&gt;Node3</title>
<path style="fill:none;stroke:midnightblue;" d="M3194,-174C3017,-165 2485,-135 2317,-125"/>
<polygon style="fill:midnightblue;stroke:midnightblue;" points="3193.7,-177.488 3204,-175 3194.4,-170.522 3193.7,-177.488"/>
</g>
<!-- Node17 -->
<g id="node35" class="node"><title>Node17</title>
<a xlink:href="generator__utility_8cc.html" target="_top" xlink:title="ltr/serialization_test/generator/generator_utility.cc">
<polygon style="fill:white;stroke:black;" points="104,-0 104,-20 333,-20 333,-0 104,-0"/>
<text text-anchor="middle" x="218" y="-7" style="font-family:Arial;font-size:10.00;">ltr/serialization_test/generator/generator_utility.cc</text>
</a>
</g>
<!-- Node2&#45;&gt;Node17 -->
<g id="edge150" class="edge"><title>Node2&#45;&gt;Node17</title>
<path style="fill:none;stroke:midnightblue;" d="M3194,-178C2801,-177 551,-169 248,-132 138,-118 75,-162 5,-76 0,-69 0,-62 5,-56 20,-38 67,-27 114,-20"/>
<polygon style="fill:midnightblue;stroke:midnightblue;" points="3194,-181.5 3204,-178 3194,-174.5 3194,-181.5"/>
</g>
<!-- Node18 -->
<g id="node37" class="node"><title>Node18</title>
<a xlink:href="validation__result_8h.html" target="_top" xlink:title="ltr/crossvalidation/validation_result.h">
<polygon style="fill:white;stroke:black;" points="344,-112 344,-132 515,-132 515,-112 344,-112"/>
<text text-anchor="middle" x="429" y="-119" style="font-family:Arial;font-size:10.00;">ltr/crossvalidation/validation_result.h</text>
</a>
</g>
<!-- Node2&#45;&gt;Node18 -->
<g id="edge38" class="edge"><title>Node2&#45;&gt;Node18</title>
<path style="fill:none;stroke:midnightblue;" d="M3194,-178C2850,-175 1085,-159 545,-132 535,-131 525,-131 515,-130"/>
<polygon style="fill:midnightblue;stroke:midnightblue;" points="3194,-181.5 3204,-178 3194,-174.5 3194,-181.5"/>
</g>
<!-- Node19 -->
<g id="node41" class="node"><title>Node19</title>
<a xlink:href="validation__result_8cc.html" target="_top" xlink:title="ltr/crossvalidation/validation_result.cc">
<polygon style="fill:white;stroke:black;" points="14,-56 14,-76 191,-76 191,-56 14,-56"/>
<text text-anchor="middle" x="102" y="-63" style="font-family:Arial;font-size:10.00;">ltr/crossvalidation/validation_result.cc</text>
</a>
</g>
<!-- Node2&#45;&gt;Node19 -->
<g id="edge78" class="edge"><title>Node2&#45;&gt;Node19</title>
<path style="fill:none;stroke:midnightblue;" d="M3194,-178C2795,-174 482,-153 335,-132 259,-121 172,-92 129,-76"/>
<polygon style="fill:midnightblue;stroke:midnightblue;" points="3194,-181.5 3204,-178 3194,-174.5 3194,-181.5"/>
</g>
<!-- Node21 -->
<g id="node45" class="node"><title>Node21</title>
<a xlink:href="one__feature__scorer_8h.html" target="_top" xlink:title="ltr/scorers/one_feature_scorer.h">
<polygon style="fill:white;stroke:black;" points="3771,-112 3771,-132 3924,-132 3924,-112 3771,-112"/>
<text text-anchor="middle" x="3847" y="-119" style="font-family:Arial;font-size:10.00;">ltr/scorers/one_feature_scorer.h</text>
</a>
</g>
<!-- Node2&#45;&gt;Node21 -->
<g id="edge48" class="edge"><title>Node2&#45;&gt;Node21</title>
<path style="fill:none;stroke:midnightblue;" d="M3311,-172C3420,-163 3651,-141 3771,-129"/>
<polygon style="fill:midnightblue;stroke:midnightblue;" points="3310.6,-168.522 3301,-173 3311.3,-175.488 3310.6,-168.522"/>
</g>
<!-- Node27 -->
<g id="node58" class="node"><title>Node27</title>
<a xlink:href="fake__scorer_8h.html" target="_top" xlink:title="ltr/scorers/fake_scorer.h">
<polygon style="fill:white;stroke:black;" points="857,-112 857,-132 977,-132 977,-112 857,-112"/>
<text text-anchor="middle" x="917" y="-119" style="font-family:Arial;font-size:10.00;">ltr/scorers/fake_scorer.h</text>
</a>
</g>
<!-- Node2&#45;&gt;Node27 -->
<g id="edge62" class="edge"><title>Node2&#45;&gt;Node27</title>
<path style="fill:none;stroke:midnightblue;" d="M3194,-177C2871,-169 1304,-131 977,-123"/>
<polygon style="fill:midnightblue;stroke:midnightblue;" points="3194,-180.5 3204,-177 3194,-173.5 3194,-180.5"/>
</g>
<!-- Node31 -->
<g id="node71" class="node"><title>Node31</title>
<a xlink:href="decision__tree__scorer_8h.html" target="_top" xlink:title="ltr/scorers/decision_tree_scorer.h">
<polygon style="fill:white;stroke:black;" points="5364,-112 5364,-132 5524,-132 5524,-112 5364,-112"/>
<text text-anchor="middle" x="5444" y="-119" style="font-family:Arial;font-size:10.00;">ltr/scorers/decision_tree_scorer.h</text>
</a>
</g>
<!-- Node2&#45;&gt;Node31 -->
<g id="edge80" class="edge"><title>Node2&#45;&gt;Node31</title>
<path style="fill:none;stroke:midnightblue;" d="M3311,-177C3609,-174 4937,-158 5350,-132 5354,-132 5359,-131 5364,-131"/>
<polygon style="fill:midnightblue;stroke:midnightblue;" points="3311,-173.5 3301,-177 3311,-180.5 3311,-173.5"/>
</g>
<!-- Node33 -->
<g id="node77" class="node"><title>Node33</title>
<a xlink:href="gp__scorer_8h.html" target="_top" xlink:title="ltr/scorers/gp_scorer.h">
<polygon style="fill:white;stroke:red;" points="4119,-112 4119,-132 4232,-132 4232,-112 4119,-112"/>
<text text-anchor="middle" x="4175" y="-119" style="font-family:Arial;font-size:10.00;">ltr/scorers/gp_scorer.h</text>
</a>
</g>
<!-- Node2&#45;&gt;Node33 -->
<g id="edge88" class="edge"><title>Node2&#45;&gt;Node33</title>
<path style="fill:none;stroke:midnightblue;" d="M3311,-174C3479,-164 3955,-135 4119,-125"/>
<polygon style="fill:midnightblue;stroke:midnightblue;" points="3310.6,-170.522 3301,-175 3311.3,-177.488 3310.6,-170.522"/>
</g>
<!-- Node35 -->
<g id="node83" class="node"><title>Node35</title>
<a xlink:href="linear__scorer_8h.html" target="_top" xlink:title="ltr/scorers/linear_scorer.h">
<polygon style="fill:white;stroke:red;" points="3189,-112 3189,-132 3315,-132 3315,-112 3189,-112"/>
<text text-anchor="middle" x="3252" y="-119" style="font-family:Arial;font-size:10.00;">ltr/scorers/linear_scorer.h</text>
</a>
</g>
<!-- Node2&#45;&gt;Node35 -->
<g id="edge96" class="edge"><title>Node2&#45;&gt;Node35</title>
<path style="fill:none;stroke:midnightblue;" d="M3252,-158C3252,-149 3252,-140 3252,-132"/>
<polygon style="fill:midnightblue;stroke:midnightblue;" points="3248.5,-158 3252,-168 3255.5,-158 3248.5,-158"/>
</g>
<!-- Node36 -->
<g id="node89" class="node"><title>Node36</title>
<a xlink:href="composition__scorer_8h.html" target="_top" xlink:title="ltr/scorers/composition_scorers/composition_scorer.h">
<polygon style="fill:white;stroke:red;" points="3447,-112 3447,-132 3695,-132 3695,-112 3447,-112"/>
<text text-anchor="middle" x="3571" y="-119" style="font-family:Arial;font-size:10.00;">ltr/scorers/composition_scorers/composition_scorer.h</text>
</a>
</g>
<!-- Node2&#45;&gt;Node36 -->
<g id="edge106" class="edge"><title>Node2&#45;&gt;Node36</title>
<path style="fill:none;stroke:midnightblue;" d="M3311,-167C3370,-157 3457,-142 3514,-132"/>
<polygon style="fill:midnightblue;stroke:midnightblue;" points="3310.12,-163.607 3301,-169 3311.49,-170.471 3310.12,-163.607"/>
</g>
<!-- Node37 -->
<g id="node92" class="node"><title>Node37</title>
<a xlink:href="ada__rank__composition__scorer__weights__updater_8h.html" target="_top" xlink:title="ltr/learners/composition_learner/ada_rank_composition_scorer_weights_updater.h">
<polygon style="fill:white;stroke:red;" points="4556,-56 4556,-76 4924,-76 4924,-56 4556,-56"/>
<text text-anchor="middle" x="4740" y="-63" style="font-family:Arial;font-size:10.00;">ltr/learners/composition_learner/ada_rank_composition_scorer_weights_updater.h</text>
</a>
</g>
<!-- Node2&#45;&gt;Node37 -->
<g id="edge138" class="edge"><title>Node2&#45;&gt;Node37</title>
<path style="fill:none;stroke:midnightblue;" d="M3311,-177C3465,-174 3888,-163 4240,-132 4398,-118 4582,-91 4677,-76"/>
<polygon style="fill:midnightblue;stroke:midnightblue;" points="3311,-173.5 3301,-177 3311,-180.5 3311,-173.5"/>
</g>
<!-- Node38 -->
<g id="node94" class="node"><title>Node38</title>
<a xlink:href="average__composition__scorer__weights__updater_8h.html" target="_top" xlink:title="ltr/learners/composition_learner/average_composition_scorer_weights_updater.h">
<polygon style="fill:white;stroke:red;" points="3080,-56 3080,-76 3441,-76 3441,-56 3080,-56"/>
<text text-anchor="middle" x="3260" y="-63" style="font-family:Arial;font-size:10.00;">ltr/learners/composition_learner/average_composition_scorer_weights_updater.h</text>
</a>
</g>
<!-- Node2&#45;&gt;Node38 -->
<g id="edge140" class="edge"><title>Node2&#45;&gt;Node38</title>
<path style="fill:none;stroke:midnightblue;" d="M3289,-164C3302,-156 3316,-146 3324,-132 3336,-109 3306,-88 3283,-76"/>
<polygon style="fill:midnightblue;stroke:midnightblue;" points="3287.72,-160.74 3280,-168 3290.56,-167.137 3287.72,-160.74"/>
</g>
<!-- Node39 -->
<g id="node99" class="node"><title>Node39</title>
<a xlink:href="io__utility_8h.html" target="_top" xlink:title="ltr/data/utility/io_utility.h">
<polygon style="fill:white;stroke:red;" points="554,-112 554,-132 673,-132 673,-112 554,-112"/>
<text text-anchor="middle" x="613" y="-119" style="font-family:Arial;font-size:10.00;">ltr/data/utility/io_utility.h</text>
</a>
</g>
<!-- Node2&#45;&gt;Node39 -->
<g id="edge120" class="edge"><title>Node2&#45;&gt;Node39</title>
<path style="fill:none;stroke:midnightblue;" d="M3194,-177C2924,-175 1784,-160 848,-132 789,-130 721,-127 673,-125"/>
<polygon style="fill:midnightblue;stroke:midnightblue;" points="3194,-180.5 3204,-177 3194,-173.5 3194,-180.5"/>
</g>
<!-- Node40 -->
<g id="node104" class="node"><title>Node40</title>
<a xlink:href="base__probability__density__estimator_8h.html" target="_top" xlink:title="ltr/density_estimators/base_probability_density_estimator.h">
<polygon style="fill:white;stroke:red;" points="5036,-112 5036,-132 5309,-132 5309,-112 5036,-112"/>
<text text-anchor="middle" x="5172" y="-119" style="font-family:Arial;font-size:10.00;">ltr/density_estimators/base_probability_density_estimator.h</text>
</a>
</g>
<!-- Node2&#45;&gt;Node40 -->
<g id="edge128" class="edge"><title>Node2&#45;&gt;Node40</title>
<path style="fill:none;stroke:midnightblue;" d="M3311,-177C3577,-169 4652,-137 5036,-126"/>
<polygon style="fill:midnightblue;stroke:midnightblue;" points="3311,-173.5 3301,-177 3311,-180.5 3311,-173.5"/>
</g>
<!-- Node41 -->
<g id="node106" class="node"><title>Node41</title>
<a xlink:href="bayesian__scorer_8h.html" target="_top" xlink:title="ltr/scorers/bayesian_scorer.h">
<polygon style="fill:white;stroke:red;" points="5292,-56 5292,-76 5433,-76 5433,-56 5292,-56"/>
<text text-anchor="middle" x="5362" y="-63" style="font-family:Arial;font-size:10.00;">ltr/scorers/bayesian_scorer.h</text>
</a>
</g>
<!-- Node2&#45;&gt;Node41 -->
<g id="edge136" class="edge"><title>Node2&#45;&gt;Node41</title>
<path style="fill:none;stroke:midnightblue;" d="M3311,-178C3646,-174 5271,-156 5317,-132 5339,-120 5353,-91 5359,-76"/>
<polygon style="fill:midnightblue;stroke:midnightblue;" points="3311,-174.5 3301,-178 3311,-181.5 3311,-174.5"/>
</g>
<!-- Node42 -->
<g id="node113" class="node"><title>Node42</title>
<a xlink:href="ada__rank__lc__scorer__weights__updater_8h.html" target="_top" xlink:title="ltr/learners/linear_composition/ada_rank_lc_scorer_weights_updater.h">
<polygon style="fill:white;stroke:black;" points="2541,-112 2541,-132 2858,-132 2858,-112 2541,-112"/>
<text text-anchor="middle" x="2699" y="-119" style="font-family:Arial;font-size:10.00;">ltr/learners/linear_composition/ada_rank_lc_scorer_weights_updater.h</text>
</a>
</g>
<!-- Node2&#45;&gt;Node42 -->
<g id="edge142" class="edge"><title>Node2&#45;&gt;Node42</title>
<path style="fill:none;stroke:midnightblue;" d="M3194,-172C3099,-163 2912,-144 2797,-132"/>
<polygon style="fill:midnightblue;stroke:midnightblue;" points="3193.7,-175.488 3204,-173 3194.4,-168.522 3193.7,-175.488"/>
</g>
<!-- Node43 -->
<g id="node115" class="node"><title>Node43</title>
<a xlink:href="nearest__neighbor__scorer_8h.html" target="_top" xlink:title="ltr/scorers/nearest_neighbor_scorer.h">
<polygon style="fill:white;stroke:red;" points="2875,-112 2875,-132 3052,-132 3052,-112 2875,-112"/>
<text text-anchor="middle" x="2963" y="-119" style="font-family:Arial;font-size:10.00;">ltr/scorers/nearest_neighbor_scorer.h</text>
</a>
</g>
<!-- Node2&#45;&gt;Node43 -->
<g id="edge144" class="edge"><title>Node2&#45;&gt;Node43</title>
<path style="fill:none;stroke:midnightblue;" d="M3194,-167C3142,-157 3065,-142 3015,-132"/>
<polygon style="fill:midnightblue;stroke:midnightblue;" points="3193.51,-170.471 3204,-169 3194.88,-163.607 3193.51,-170.471"/>
</g>
<!-- Node44 -->
<g id="node118" class="node"><title>Node44</title>
<a xlink:href="scorer_8cc.html" target="_top" xlink:title="ltr/scorers/scorer.cc">
<polygon style="fill:white;stroke:black;" points="3069,-112 3069,-132 3171,-132 3171,-112 3069,-112"/>
<text text-anchor="middle" x="3120" y="-119" style="font-family:Arial;font-size:10.00;">ltr/scorers/scorer.cc</text>
</a>
</g>
<!-- Node2&#45;&gt;Node44 -->
<g id="edge148" class="edge"><title>Node2&#45;&gt;Node44</title>
<path style="fill:none;stroke:midnightblue;" d="M3218,-164C3195,-154 3165,-141 3144,-132"/>
<polygon style="fill:midnightblue;stroke:midnightblue;" points="3217.42,-167.536 3228,-168 3220.02,-161.036 3217.42,-167.536"/>
</g>
<!-- Node4 -->
<g id="node7" class="node"><title>Node4</title>
<a xlink:href="crossvalidation_8h.html" target="_top" xlink:title="ltr/crossvalidation/crossvalidation.h">
<polygon style="fill:white;stroke:black;" points="1098,-56 1098,-76 1264,-76 1264,-56 1098,-56"/>
<text text-anchor="middle" x="1181" y="-63" style="font-family:Arial;font-size:10.00;">ltr/crossvalidation/crossvalidation.h</text>
</a>
</g>
<!-- Node3&#45;&gt;Node4 -->
<g id="edge6" class="edge"><title>Node3&#45;&gt;Node4</title>
<path style="fill:none;stroke:midnightblue;" d="M2205,-121C2048,-116 1625,-103 1273,-76 1270,-76 1267,-75 1264,-75"/>
<polygon style="fill:midnightblue;stroke:midnightblue;" points="2205,-124.5 2215,-121 2205,-117.5 2205,-124.5"/>
</g>
<!-- Node6 -->
<g id="node11" class="node"><title>Node6</title>
<a xlink:href="crossvalidation__result_8h.html" target="_top" xlink:title="ltr/crossvalidation/crossvalidation_result.h">
<polygon style="fill:white;stroke:black;" points="1740,-56 1740,-76 1935,-76 1935,-56 1740,-56"/>
<text text-anchor="middle" x="1837" y="-63" style="font-family:Arial;font-size:10.00;">ltr/crossvalidation/crossvalidation_result.h</text>
</a>
</g>
<!-- Node3&#45;&gt;Node6 -->
<g id="edge10" class="edge"><title>Node3&#45;&gt;Node6</title>
<path style="fill:none;stroke:midnightblue;" d="M2205,-114C2128,-103 1998,-87 1915,-76"/>
<polygon style="fill:midnightblue;stroke:midnightblue;" points="2204.7,-117.488 2215,-115 2205.4,-110.522 2204.7,-117.488"/>
</g>
<!-- Node7 -->
<g id="node13" class="node"><title>Node7</title>
<a xlink:href="best__feature__learner_8h.html" target="_top" xlink:title="ltr/learners/best_feature_learner/best_feature_learner.h">
<polygon style="fill:white;stroke:red;" points="2774,-56 2774,-76 3025,-76 3025,-56 2774,-56"/>
<text text-anchor="middle" x="2899" y="-63" style="font-family:Arial;font-size:10.00;">ltr/learners/best_feature_learner/best_feature_learner.h</text>
</a>
</g>
<!-- Node3&#45;&gt;Node7 -->
<g id="edge12" class="edge"><title>Node3&#45;&gt;Node7</title>
<path style="fill:none;stroke:midnightblue;" d="M2327,-116C2434,-107 2651,-88 2785,-76"/>
<polygon style="fill:midnightblue;stroke:midnightblue;" points="2326.6,-112.522 2317,-117 2327.3,-119.488 2326.6,-112.522"/>
</g>
<!-- Node9 -->
<g id="node18" class="node"><title>Node9</title>
<a xlink:href="crossvalidator_8h.html" target="_top" xlink:title="ltr/crossvalidation/crossvalidator.h">
<polygon style="fill:white;stroke:red;" points="1562,-56 1562,-76 1723,-76 1723,-56 1562,-56"/>
<text text-anchor="middle" x="1642" y="-63" style="font-family:Arial;font-size:10.00;">ltr/crossvalidation/crossvalidator.h</text>
</a>
</g>
<!-- Node3&#45;&gt;Node9 -->
<g id="edge18" class="edge"><title>Node3&#45;&gt;Node9</title>
<path style="fill:none;stroke:midnightblue;" d="M2205,-117C2106,-109 1902,-92 1731,-76 1729,-76 1726,-75 1723,-75"/>
<polygon style="fill:midnightblue;stroke:midnightblue;" points="2204.7,-120.488 2215,-118 2205.4,-113.522 2204.7,-120.488"/>
</g>
<!-- Node10 -->
<g id="node20" class="node"><title>Node10</title>
<a xlink:href="bayesian__learner_8h.html" target="_top" xlink:title="ltr/learners/bayesian_learner/bayesian_learner.h">
<polygon style="fill:white;stroke:red;" points="5153,-0 5153,-20 5375,-20 5375,-0 5153,-0"/>
<text text-anchor="middle" x="5264" y="-7" style="font-family:Arial;font-size:10.00;">ltr/learners/bayesian_learner/bayesian_learner.h</text>
</a>
</g>
<!-- Node3&#45;&gt;Node10 -->
<g id="edge20" class="edge"><title>Node3&#45;&gt;Node10</title>
<path style="fill:none;stroke:midnightblue;" d="M2205,-116C2125,-109 1994,-92 1981,-76 1975,-69 1974,-62 1981,-56 2009,-27 4583,-13 5153,-10"/>
<polygon style="fill:midnightblue;stroke:midnightblue;" points="2204.7,-119.488 2215,-117 2205.4,-112.522 2204.7,-119.488"/>
</g>
<!-- Node11 -->
<g id="node22" class="node"><title>Node11</title>
<a xlink:href="composition__learner_8h.html" target="_top" xlink:title="ltr/learners/composition_learner/composition_learner.h">
<polygon style="fill:white;stroke:red;" points="2508,-56 2508,-76 2757,-76 2757,-56 2508,-56"/>
<text text-anchor="middle" x="2632" y="-63" style="font-family:Arial;font-size:10.00;">ltr/learners/composition_learner/composition_learner.h</text>
</a>
</g>
<!-- Node3&#45;&gt;Node11 -->
<g id="edge22" class="edge"><title>Node3&#45;&gt;Node11</title>
<path style="fill:none;stroke:midnightblue;" d="M2327,-112C2393,-102 2499,-86 2567,-76"/>
<polygon style="fill:midnightblue;stroke:midnightblue;" points="2326.12,-108.607 2317,-114 2327.49,-115.471 2326.12,-108.607"/>
</g>
<!-- Node12 -->
<g id="node24" class="node"><title>Node12</title>
<a xlink:href="decision__tree__learner_8h.html" target="_top" xlink:title="ltr/learners/decision_tree/decision_tree_learner.h">
<polygon style="fill:white;stroke:red;" points="5632,-56 5632,-76 5857,-76 5857,-56 5632,-56"/>
<text text-anchor="middle" x="5744" y="-63" style="font-family:Arial;font-size:10.00;">ltr/learners/decision_tree/decision_tree_learner.h</text>
</a>
</g>
<!-- Node3&#45;&gt;Node12 -->
<g id="edge24" class="edge"><title>Node3&#45;&gt;Node12</title>
<path style="fill:none;stroke:midnightblue;" d="M2327,-119C2381,-117 2462,-113 2532,-112 3905,-78 4250,-140 5623,-76 5626,-76 5629,-76 5632,-75"/>
<polygon style="fill:midnightblue;stroke:midnightblue;" points="2327,-115.5 2317,-119 2327,-122.5 2327,-115.5"/>
</g>
<!-- Node13 -->
<g id="node26" class="node"><title>Node13</title>
<a xlink:href="gp__learner_8h.html" target="_top" xlink:title="ltr/learners/gp_learner/gp_learner.h">
<polygon style="fill:white;stroke:red;" points="4010,-56 4010,-76 4175,-76 4175,-56 4010,-56"/>
<text text-anchor="middle" x="4092" y="-63" style="font-family:Arial;font-size:10.00;">ltr/learners/gp_learner/gp_learner.h</text>
</a>
</g>
<!-- Node3&#45;&gt;Node13 -->
<g id="edge26" class="edge"><title>Node3&#45;&gt;Node13</title>
<path style="fill:none;stroke:midnightblue;" d="M2327,-119C2381,-117 2462,-114 2532,-112 3184,-91 3349,-119 4001,-76 4004,-76 4007,-76 4010,-75"/>
<polygon style="fill:midnightblue;stroke:midnightblue;" points="2326.6,-115.522 2317,-120 2327.3,-122.488 2326.6,-115.522"/>
</g>
<!-- Node14 -->
<g id="node28" class="node"><title>Node14</title>
<a xlink:href="linear__learner_8h.html" target="_top" xlink:title="ltr/learners/linear_learner/linear_learner.h">
<polygon style="fill:white;stroke:red;" points="2300,-56 2300,-76 2491,-76 2491,-56 2300,-56"/>
<text text-anchor="middle" x="2395" y="-63" style="font-family:Arial;font-size:10.00;">ltr/learners/linear_learner/linear_learner.h</text>
</a>
</g>
<!-- Node3&#45;&gt;Node14 -->
<g id="edge28" class="edge"><title>Node3&#45;&gt;Node14</title>
<path style="fill:none;stroke:midnightblue;" d="M2298,-108C2321,-98 2351,-85 2372,-76"/>
<polygon style="fill:midnightblue;stroke:midnightblue;" points="2296.72,-104.74 2289,-112 2299.56,-111.137 2296.72,-104.74"/>
</g>
<!-- Node15 -->
<g id="node31" class="node"><title>Node15</title>
<a xlink:href="nearest__neighbor__learner_8h.html" target="_top" xlink:title="ltr/learners/nearest_neighbor_learner/nearest_neighbor_learner.h">
<polygon style="fill:white;stroke:red;" points="1990,-56 1990,-76 2283,-76 2283,-56 1990,-56"/>
<text text-anchor="middle" x="2136" y="-63" style="font-family:Arial;font-size:10.00;">ltr/learners/nearest_neighbor_learner/nearest_neighbor_learner.h</text>
</a>
</g>
<!-- Node3&#45;&gt;Node15 -->
<g id="edge32" class="edge"><title>Node3&#45;&gt;Node15</title>
<path style="fill:none;stroke:midnightblue;" d="M2233,-108C2210,-98 2180,-85 2159,-76"/>
<polygon style="fill:midnightblue;stroke:midnightblue;" points="2232.42,-111.536 2243,-112 2235.02,-105.036 2232.42,-111.536"/>
</g>
<!-- Node16 -->
<g id="node33" class="node"><title>Node16</title>
<a xlink:href="generator__utility_8h.html" target="_top" xlink:title="ltr/serialization_test/generator/generator_utility.h">
<polygon style="fill:white;stroke:red;" points="1282,-56 1282,-76 1506,-76 1506,-56 1282,-56"/>
<text text-anchor="middle" x="1394" y="-63" style="font-family:Arial;font-size:10.00;">ltr/serialization_test/generator/generator_utility.h</text>
</a>
</g>
<!-- Node3&#45;&gt;Node16 -->
<g id="edge34" class="edge"><title>Node3&#45;&gt;Node16</title>
<path style="fill:none;stroke:midnightblue;" d="M2205,-118C2059,-109 1693,-86 1506,-73"/>
<polygon style="fill:midnightblue;stroke:midnightblue;" points="2204.7,-121.488 2215,-119 2205.4,-114.522 2204.7,-121.488"/>
</g>
<!-- Node5 -->
<g id="node9" class="node"><title>Node5</title>
<a xlink:href="crossvalidation__unittest_8cc.html" target="_top" xlink:title="ltr/crossvalidation/crossvalidation_unittest.cc">
<polygon style="fill:white;stroke:black;" points="858,-0 858,-20 1067,-20 1067,-0 858,-0"/>
<text text-anchor="middle" x="962" y="-7" style="font-family:Arial;font-size:10.00;">ltr/crossvalidation/crossvalidation_unittest.cc</text>
</a>
</g>
<!-- Node4&#45;&gt;Node5 -->
<g id="edge8" class="edge"><title>Node4&#45;&gt;Node5</title>
<path style="fill:none;stroke:midnightblue;" d="M1132,-54C1093,-44 1038,-29 1001,-20"/>
<polygon style="fill:midnightblue;stroke:midnightblue;" points="1131.51,-57.4708 1142,-56 1132.88,-50.6067 1131.51,-57.4708"/>
</g>
<!-- Node7&#45;&gt;Node5 -->
<g id="edge14" class="edge"><title>Node7&#45;&gt;Node5</title>
<path style="fill:none;stroke:midnightblue;" d="M2764,-55C2112,-23 1344,-13 1067,-11"/>
<polygon style="fill:midnightblue;stroke:midnightblue;" points="2763.7,-58.4875 2774,-56 2764.4,-51.5222 2763.7,-58.4875"/>
</g>
<!-- Node8 -->
<g id="node16" class="node"><title>Node8</title>
<a xlink:href="learners__unittest_8cc.html" target="_top" xlink:title="ltr/learners/learners_unittest.cc">
<polygon style="fill:white;stroke:black;" points="2320,-0 2320,-20 2470,-20 2470,-0 2320,-0"/>
<text text-anchor="middle" x="2395" y="-7" style="font-family:Arial;font-size:10.00;">ltr/learners/learners_unittest.cc</text>
</a>
</g>
<!-- Node7&#45;&gt;Node8 -->
<g id="edge16" class="edge"><title>Node7&#45;&gt;Node8</title>
<path style="fill:none;stroke:midnightblue;" d="M2799,-55C2702,-44 2558,-28 2470,-18"/>
<polygon style="fill:midnightblue;stroke:midnightblue;" points="2798.7,-58.4875 2809,-56 2799.4,-51.5222 2798.7,-58.4875"/>
</g>
<!-- Node14&#45;&gt;Node8 -->
<g id="edge30" class="edge"><title>Node14&#45;&gt;Node8</title>
<path style="fill:none;stroke:midnightblue;" d="M2395,-46C2395,-37 2395,-28 2395,-20"/>
<polygon style="fill:midnightblue;stroke:midnightblue;" points="2391.5,-46 2395,-56 2398.5,-46 2391.5,-46"/>
</g>
<!-- Node16&#45;&gt;Node17 -->
<g id="edge36" class="edge"><title>Node16&#45;&gt;Node17</title>
<path style="fill:none;stroke:midnightblue;" d="M1272,-56C924,-34 525,-20 333,-13"/>
<polygon style="fill:midnightblue;stroke:midnightblue;" points="1271.7,-59.4875 1282,-57 1272.4,-52.5222 1271.7,-59.4875"/>
</g>
<!-- Node18&#45;&gt;Node4 -->
<g id="edge40" class="edge"><title>Node18&#45;&gt;Node4</title>
<path style="fill:none;stroke:midnightblue;" d="M525,-113C532,-113 538,-113 545,-112 787,-93 848,-97 1089,-76 1092,-76 1095,-75 1098,-75"/>
<polygon style="fill:midnightblue;stroke:midnightblue;" points="524.602,-109.522 515,-114 525.299,-116.488 524.602,-109.522"/>
</g>
<!-- Node18&#45;&gt;Node5 -->
<g id="edge42" class="edge"><title>Node18&#45;&gt;Node5</title>
<path style="fill:none;stroke:midnightblue;" d="M343,-110C297,-100 254,-83 280,-56 299,-35 671,-20 858,-13"/>
<polygon style="fill:midnightblue;stroke:midnightblue;" points="342.508,-113.471 353,-112 343.881,-106.607 342.508,-113.471"/>
</g>
<!-- Node18&#45;&gt;Node19 -->
<g id="edge44" class="edge"><title>Node18&#45;&gt;Node19</title>
<path style="fill:none;stroke:midnightblue;" d="M361,-110C301,-100 216,-85 160,-76"/>
<polygon style="fill:midnightblue;stroke:midnightblue;" points="360.508,-113.471 371,-112 361.881,-106.607 360.508,-113.471"/>
</g>
<!-- Node20 -->
<g id="node43" class="node"><title>Node20</title>
<a xlink:href="validation__result__unittest_8cc.html" target="_top" xlink:title="ltr/crossvalidation/validation_result_unittest.cc">
<polygon style="fill:white;stroke:black;" points="322,-56 322,-76 536,-76 536,-56 322,-56"/>
<text text-anchor="middle" x="429" y="-63" style="font-family:Arial;font-size:10.00;">ltr/crossvalidation/validation_result_unittest.cc</text>
</a>
</g>
<!-- Node18&#45;&gt;Node20 -->
<g id="edge46" class="edge"><title>Node18&#45;&gt;Node20</title>
<path style="fill:none;stroke:midnightblue;" d="M429,-102C429,-93 429,-84 429,-76"/>
<polygon style="fill:midnightblue;stroke:midnightblue;" points="425.5,-102 429,-112 432.5,-102 425.5,-102"/>
</g>
<!-- Node21&#45;&gt;Node7 -->
<g id="edge50" class="edge"><title>Node21&#45;&gt;Node7</title>
<path style="fill:none;stroke:midnightblue;" d="M3761,-115C3742,-114 3723,-113 3704,-112 3422,-94 3352,-92 3071,-76 3056,-75 3041,-74 3025,-73"/>
<polygon style="fill:midnightblue;stroke:midnightblue;" points="3760.7,-118.488 3771,-116 3761.4,-111.522 3760.7,-118.488"/>
</g>
<!-- Node22 -->
<g id="node48" class="node"><title>Node22</title>
<a xlink:href="tostring__unittest_8cc.html" target="_top" xlink:title="ltr/data/tostring_unittest.cc">
<polygon style="fill:white;stroke:black;" points="4192,-56 4192,-76 4324,-76 4324,-56 4192,-56"/>
<text text-anchor="middle" x="4258" y="-63" style="font-family:Arial;font-size:10.00;">ltr/data/tostring_unittest.cc</text>
</a>
</g>
<!-- Node21&#45;&gt;Node22 -->
<g id="edge52" class="edge"><title>Node21&#45;&gt;Node22</title>
<path style="fill:none;stroke:midnightblue;" d="M3930,-111C4008,-101 4121,-85 4192,-75"/>
<polygon style="fill:midnightblue;stroke:midnightblue;" points="3929.6,-107.522 3920,-112 3930.3,-114.488 3929.6,-107.522"/>
</g>
<!-- Node23 -->
<g id="node50" class="node"><title>Node23</title>
<a xlink:href="composition__scorer__unittest_8cc.html" target="_top" xlink:title="ltr/scorers/composition_scorers/composition_scorer_unittest.cc">
<polygon style="fill:white;stroke:black;" points="3702,-56 3702,-76 3993,-76 3993,-56 3702,-56"/>
<text text-anchor="middle" x="3847" y="-63" style="font-family:Arial;font-size:10.00;">ltr/scorers/composition_scorers/composition_scorer_unittest.cc</text>
</a>
</g>
<!-- Node21&#45;&gt;Node23 -->
<g id="edge54" class="edge"><title>Node21&#45;&gt;Node23</title>
<path style="fill:none;stroke:midnightblue;" d="M3847,-102C3847,-93 3847,-84 3847,-76"/>
<polygon style="fill:midnightblue;stroke:midnightblue;" points="3843.5,-102 3847,-112 3850.5,-102 3843.5,-102"/>
</g>
<!-- Node24 -->
<g id="node52" class="node"><title>Node24</title>
<a xlink:href="linear__composition__scorer__unittest_8cc.html" target="_top" xlink:title="ltr/scorers/linear_composition_scorer_unittest.cc">
<polygon style="fill:white;stroke:black;" points="3458,-56 3458,-76 3685,-76 3685,-56 3458,-56"/>
<text text-anchor="middle" x="3571" y="-63" style="font-family:Arial;font-size:10.00;">ltr/scorers/linear_composition_scorer_unittest.cc</text>
</a>
</g>
<!-- Node21&#45;&gt;Node24 -->
<g id="edge56" class="edge"><title>Node21&#45;&gt;Node24</title>
<path style="fill:none;stroke:midnightblue;" d="M3788,-110C3738,-100 3667,-85 3620,-76"/>
<polygon style="fill:midnightblue;stroke:midnightblue;" points="3787.51,-113.471 3798,-112 3788.88,-106.607 3787.51,-113.471"/>
</g>
<!-- Node25 -->
<g id="node54" class="node"><title>Node25</title>
<a xlink:href="one__feature__scorer_8cc.html" target="_top" xlink:title="ltr/scorers/one_feature_scorer.cc">
<polygon style="fill:white;stroke:black;" points="4942,-56 4942,-76 5100,-76 5100,-56 4942,-56"/>
<text text-anchor="middle" x="5021" y="-63" style="font-family:Arial;font-size:10.00;">ltr/scorers/one_feature_scorer.cc</text>
</a>
</g>
<!-- Node21&#45;&gt;Node25 -->
<g id="edge58" class="edge"><title>Node21&#45;&gt;Node25</title>
<path style="fill:none;stroke:midnightblue;" d="M3934,-119C4174,-109 4834,-83 4933,-76 4936,-76 4939,-75 4942,-75"/>
<polygon style="fill:midnightblue;stroke:midnightblue;" points="3934,-115.5 3924,-119 3934,-122.5 3934,-115.5"/>
</g>
<!-- Node26 -->
<g id="node56" class="node"><title>Node26</title>
<a xlink:href="one__feature__scorer__unittest_8cc.html" target="_top" xlink:title="ltr/scorers/one_feature_scorer_unittest.cc">
<polygon style="fill:white;stroke:black;" points="4342,-56 4342,-76 4538,-76 4538,-56 4342,-56"/>
<text text-anchor="middle" x="4440" y="-63" style="font-family:Arial;font-size:10.00;">ltr/scorers/one_feature_scorer_unittest.cc</text>
</a>
</g>
<!-- Node21&#45;&gt;Node26 -->
<g id="edge60" class="edge"><title>Node21&#45;&gt;Node26</title>
<path style="fill:none;stroke:midnightblue;" d="M3934,-114C4043,-104 4229,-87 4342,-75"/>
<polygon style="fill:midnightblue;stroke:midnightblue;" points="3933.6,-110.522 3924,-115 3934.3,-117.488 3933.6,-110.522"/>
</g>
<!-- Node27&#45;&gt;Node5 -->
<g id="edge64" class="edge"><title>Node27&#45;&gt;Node5</title>
<path style="fill:none;stroke:midnightblue;" d="M847,-115C794,-107 736,-90 763,-56 777,-38 825,-27 870,-20"/>
<polygon style="fill:midnightblue;stroke:midnightblue;" points="846.508,-118.471 857,-117 847.881,-111.607 846.508,-118.471"/>
</g>
<!-- Node27&#45;&gt;Node8 -->
<g id="edge72" class="edge"><title>Node27&#45;&gt;Node8</title>
<path style="fill:none;stroke:midnightblue;" d="M987,-120C1123,-115 1418,-103 1515,-76 1533,-70 1534,-61 1553,-56 1625,-36 2127,-18 2320,-12"/>
<polygon style="fill:midnightblue;stroke:midnightblue;" points="987,-116.5 977,-120 987,-123.5 987,-116.5"/>
</g>
<!-- Node27&#45;&gt;Node20 -->
<g id="edge66" class="edge"><title>Node27&#45;&gt;Node20</title>
<path style="fill:none;stroke:midnightblue;" d="M847,-114C759,-104 611,-87 516,-76"/>
<polygon style="fill:midnightblue;stroke:midnightblue;" points="846.701,-117.488 857,-115 847.398,-110.522 846.701,-117.488"/>
</g>
<!-- Node27&#45;&gt;Node22 -->
<g id="edge68" class="edge"><title>Node27&#45;&gt;Node22</title>
<path style="fill:none;stroke:midnightblue;" d="M987,-122C1433,-119 3855,-100 4183,-76 4186,-76 4189,-75 4192,-75"/>
<polygon style="fill:midnightblue;stroke:midnightblue;" points="987,-118.5 977,-122 987,-125.5 987,-118.5"/>
</g>
<!-- Node28 -->
<g id="node63" class="node"><title>Node28</title>
<a xlink:href="io__utility__unittest_8cc.html" target="_top" xlink:title="ltr/data/utility/io_utility_unittest.cc">
<polygon style="fill:white;stroke:black;" points="554,-56 554,-76 716,-76 716,-56 554,-56"/>
<text text-anchor="middle" x="635" y="-63" style="font-family:Arial;font-size:10.00;">ltr/data/utility/io_utility_unittest.cc</text>
</a>
</g>
<!-- Node27&#45;&gt;Node28 -->
<g id="edge70" class="edge"><title>Node27&#45;&gt;Node28</title>
<path style="fill:none;stroke:midnightblue;" d="M857,-110C805,-100 733,-85 685,-76"/>
<polygon style="fill:midnightblue;stroke:midnightblue;" points="856.508,-113.471 867,-112 857.881,-106.607 856.508,-113.471"/>
</g>
<!-- Node29 -->
<g id="node66" class="node"><title>Node29</title>
<a xlink:href="fake__scorer_8cc.html" target="_top" xlink:title="ltr/scorers/fake_scorer.cc">
<polygon style="fill:white;stroke:black;" points="772,-56 772,-76 898,-76 898,-56 772,-56"/>
<text text-anchor="middle" x="835" y="-63" style="font-family:Arial;font-size:10.00;">ltr/scorers/fake_scorer.cc</text>
</a>
</g>
<!-- Node27&#45;&gt;Node29 -->
<g id="edge74" class="edge"><title>Node27&#45;&gt;Node29</title>
<path style="fill:none;stroke:midnightblue;" d="M894,-106C880,-96 862,-84 850,-76"/>
<polygon style="fill:midnightblue;stroke:midnightblue;" points="891.9,-108.8 902,-112 896.1,-103.2 891.9,-108.8"/>
</g>
<!-- Node30 -->
<g id="node68" class="node"><title>Node30</title>
<a xlink:href="fake__scorer__unittest_8cc.html" target="_top" xlink:title="ltr/scorers/fake_scorer_unittest.cc">
<polygon style="fill:white;stroke:black;" points="916,-56 916,-76 1080,-76 1080,-56 916,-56"/>
<text text-anchor="middle" x="998" y="-63" style="font-family:Arial;font-size:10.00;">ltr/scorers/fake_scorer_unittest.cc</text>
</a>
</g>
<!-- Node27&#45;&gt;Node30 -->
<g id="edge76" class="edge"><title>Node27&#45;&gt;Node30</title>
<path style="fill:none;stroke:midnightblue;" d="M939,-106C954,-97 971,-84 983,-76"/>
<polygon style="fill:midnightblue;stroke:midnightblue;" points="936.9,-103.2 931,-112 941.1,-108.8 936.9,-103.2"/>
</g>
<!-- Node31&#45;&gt;Node12 -->
<g id="edge84" class="edge"><title>Node31&#45;&gt;Node12</title>
<path style="fill:none;stroke:midnightblue;" d="M5508,-110C5562,-100 5639,-85 5691,-76"/>
<polygon style="fill:midnightblue;stroke:midnightblue;" points="5507.12,-106.607 5498,-112 5508.49,-113.471 5507.12,-106.607"/>
</g>
<!-- Node31&#45;&gt;Node22 -->
<g id="edge82" class="edge"><title>Node31&#45;&gt;Node22</title>
<path style="fill:none;stroke:midnightblue;" d="M5354,-114C5341,-114 5329,-113 5317,-112 4880,-86 4769,-112 4333,-76 4330,-76 4327,-75 4324,-75"/>
<polygon style="fill:midnightblue;stroke:midnightblue;" points="5353.7,-117.488 5364,-115 5354.4,-110.522 5353.7,-117.488"/>
</g>
<!-- Node32 -->
<g id="node75" class="node"><title>Node32</title>
<a xlink:href="decision__tree__scorer_8cc.html" target="_top" xlink:title="ltr/scorers/decision_tree_scorer.cc">
<polygon style="fill:white;stroke:black;" points="5450,-56 5450,-76 5615,-76 5615,-56 5450,-56"/>
<text text-anchor="middle" x="5532" y="-63" style="font-family:Arial;font-size:10.00;">ltr/scorers/decision_tree_scorer.cc</text>
</a>
</g>
<!-- Node31&#45;&gt;Node32 -->
<g id="edge86" class="edge"><title>Node31&#45;&gt;Node32</title>
<path style="fill:none;stroke:midnightblue;" d="M5468,-107C5484,-97 5503,-84 5516,-76"/>
<polygon style="fill:midnightblue;stroke:midnightblue;" points="5466.62,-103.732 5460,-112 5470.34,-109.668 5466.62,-103.732"/>
</g>
<!-- Node33&#45;&gt;Node13 -->
<g id="edge92" class="edge"><title>Node33&#45;&gt;Node13</title>
<path style="fill:none;stroke:midnightblue;" d="M4152,-106C4137,-97 4119,-84 4107,-76"/>
<polygon style="fill:midnightblue;stroke:midnightblue;" points="4149.9,-108.8 4160,-112 4154.1,-103.2 4149.9,-108.8"/>
</g>
<!-- Node33&#45;&gt;Node22 -->
<g id="edge90" class="edge"><title>Node33&#45;&gt;Node22</title>
<path style="fill:none;stroke:midnightblue;" d="M4198,-106C4213,-97 4231,-84 4243,-76"/>
<polygon style="fill:midnightblue;stroke:midnightblue;" points="4195.9,-103.2 4190,-112 4200.1,-108.8 4195.9,-103.2"/>
</g>
<!-- Node34 -->
<g id="node81" class="node"><title>Node34</title>
<a xlink:href="gp__scorer_8cc.html" target="_top" xlink:title="ltr/scorers/gp_scorer.cc">
<polygon style="fill:white;stroke:black;" points="5118,-56 5118,-76 5236,-76 5236,-56 5118,-56"/>
<text text-anchor="middle" x="5177" y="-63" style="font-family:Arial;font-size:10.00;">ltr/scorers/gp_scorer.cc</text>
</a>
</g>
<!-- Node33&#45;&gt;Node34 -->
<g id="edge94" class="edge"><title>Node33&#45;&gt;Node34</title>
<path style="fill:none;stroke:midnightblue;" d="M4242,-121C4396,-118 4785,-107 5109,-76 5112,-76 5115,-75 5118,-75"/>
<polygon style="fill:midnightblue;stroke:midnightblue;" points="4242,-117.5 4232,-121 4242,-124.5 4242,-117.5"/>
</g>
<!-- Node35&#45;&gt;Node8 -->
<g id="edge102" class="edge"><title>Node35&#45;&gt;Node8</title>
<path style="fill:none;stroke:midnightblue;" d="M3190,-110C3154,-102 3109,-91 3071,-76 3053,-69 3051,-61 3033,-56 2929,-26 2615,-15 2470,-11"/>
<polygon style="fill:midnightblue;stroke:midnightblue;" points="3189.51,-113.471 3200,-112 3190.88,-106.607 3189.51,-113.471"/>
</g>
<!-- Node35&#45;&gt;Node14 -->
<g id="edge100" class="edge"><title>Node35&#45;&gt;Node14</title>
<path style="fill:none;stroke:midnightblue;" d="M3179,-112C2876,-83 2798,-98 2499,-76 2496,-76 2494,-76 2491,-75"/>
<polygon style="fill:midnightblue;stroke:midnightblue;" points="3178.7,-115.488 3189,-113 3179.4,-108.522 3178.7,-115.488"/>
</g>
<!-- Node35&#45;&gt;Node22 -->
<g id="edge98" class="edge"><title>Node35&#45;&gt;Node22</title>
<path style="fill:none;stroke:midnightblue;" d="M3325,-117C3360,-116 3401,-114 3438,-112 3769,-95 3852,-105 4183,-76 4186,-76 4189,-75 4192,-75"/>
<polygon style="fill:midnightblue;stroke:midnightblue;" points="3324.6,-113.522 3315,-118 3325.3,-120.488 3324.6,-113.522"/>
</g>
<!-- Node35&#45;&gt;Node24 -->
<g id="edge104" class="edge"><title>Node35&#45;&gt;Node24</title>
<path style="fill:none;stroke:midnightblue;" d="M3319,-110C3377,-100 3459,-85 3514,-76"/>
<polygon style="fill:midnightblue;stroke:midnightblue;" points="3318.12,-106.607 3309,-112 3319.49,-113.471 3318.12,-106.607"/>
</g>
<!-- Node36&#45;&gt;Node11 -->
<g id="edge114" class="edge"><title>Node36&#45;&gt;Node11</title>
<path style="fill:none;stroke:midnightblue;" d="M3437,-114C3276,-106 3001,-91 2765,-76 2762,-76 2760,-76 2757,-75"/>
<polygon style="fill:midnightblue;stroke:midnightblue;" points="3436.7,-117.488 3447,-115 3437.4,-110.522 3436.7,-117.488"/>
</g>
<!-- Node36&#45;&gt;Node22 -->
<g id="edge108" class="edge"><title>Node36&#45;&gt;Node22</title>
<path style="fill:none;stroke:midnightblue;" d="M3705,-114C3830,-106 4019,-93 4183,-76 4186,-76 4189,-75 4192,-75"/>
<polygon style="fill:midnightblue;stroke:midnightblue;" points="3704.6,-110.522 3695,-115 3705.3,-117.488 3704.6,-110.522"/>
</g>
<!-- Node36&#45;&gt;Node23 -->
<g id="edge116" class="edge"><title>Node36&#45;&gt;Node23</title>
<path style="fill:none;stroke:midnightblue;" d="M3630,-110C3680,-100 3751,-85 3798,-76"/>
<polygon style="fill:midnightblue;stroke:midnightblue;" points="3629.12,-106.607 3620,-112 3630.49,-113.471 3629.12,-106.607"/>
</g>
<!-- Node36&#45;&gt;Node24 -->
<g id="edge118" class="edge"><title>Node36&#45;&gt;Node24</title>
<path style="fill:none;stroke:midnightblue;" d="M3571,-102C3571,-93 3571,-84 3571,-76"/>
<polygon style="fill:midnightblue;stroke:midnightblue;" points="3567.5,-102 3571,-112 3574.5,-102 3567.5,-102"/>
</g>
<!-- Node36&#45;&gt;Node37 -->
<g id="edge110" class="edge"><title>Node36&#45;&gt;Node37</title>
<path style="fill:none;stroke:midnightblue;" d="M3705,-115C3724,-114 3743,-113 3762,-112 4110,-94 4198,-93 4547,-76 4550,-76 4553,-76 4556,-75"/>
<polygon style="fill:midnightblue;stroke:midnightblue;" points="3705,-111.5 3695,-115 3705,-118.5 3705,-111.5"/>
</g>
<!-- Node36&#45;&gt;Node38 -->
<g id="edge112" class="edge"><title>Node36&#45;&gt;Node38</title>
<path style="fill:none;stroke:midnightblue;" d="M3505,-110C3449,-100 3369,-85 3315,-76"/>
<polygon style="fill:midnightblue;stroke:midnightblue;" points="3504.51,-113.471 3515,-112 3505.88,-106.607 3504.51,-113.471"/>
</g>
<!-- Node39&#45;&gt;Node8 -->
<g id="edge124" class="edge"><title>Node39&#45;&gt;Node8</title>
<path style="fill:none;stroke:midnightblue;" d="M544,-114C458,-103 321,-85 313,-76 308,-69 307,-62 313,-56 349,-19 1951,-11 2320,-10"/>
<polygon style="fill:midnightblue;stroke:midnightblue;" points="543.701,-117.488 554,-115 544.398,-110.522 543.701,-117.488"/>
</g>
<!-- Node39&#45;&gt;Node17 -->
<g id="edge126" class="edge"><title>Node39&#45;&gt;Node17</title>
<path style="fill:none;stroke:midnightblue;" d="M544,-114C450,-102 292,-82 280,-76 255,-63 235,-35 225,-20"/>
<polygon style="fill:midnightblue;stroke:midnightblue;" points="543.701,-117.488 554,-115 544.398,-110.522 543.701,-117.488"/>
</g>
<!-- Node39&#45;&gt;Node28 -->
<g id="edge122" class="edge"><title>Node39&#45;&gt;Node28</title>
<path style="fill:none;stroke:midnightblue;" d="M621,-103C624,-94 628,-84 631,-76"/>
<polygon style="fill:midnightblue;stroke:midnightblue;" points="617.863,-101.44 617,-112 624.26,-104.283 617.863,-101.44"/>
</g>
<!-- Node40&#45;&gt;Node10 -->
<g id="edge134" class="edge"><title>Node40&#45;&gt;Node10</title>
<path style="fill:none;stroke:midnightblue;" d="M5205,-107C5219,-100 5234,-89 5245,-76 5257,-59 5262,-34 5263,-20"/>
<polygon style="fill:midnightblue;stroke:midnightblue;" points="5203.04,-104.084 5196,-112 5206.44,-110.203 5203.04,-104.084"/>
</g>
<!-- Node40&#45;&gt;Node41 -->
<g id="edge130" class="edge"><title>Node40&#45;&gt;Node41</title>
<path style="fill:none;stroke:midnightblue;" d="M5216,-109C5250,-99 5297,-85 5328,-76"/>
<polygon style="fill:midnightblue;stroke:midnightblue;" points="5214.57,-105.774 5206,-112 5216.58,-112.479 5214.57,-105.774"/>
</g>
<!-- Node41&#45;&gt;Node10 -->
<g id="edge132" class="edge"><title>Node41&#45;&gt;Node10</title>
<path style="fill:none;stroke:midnightblue;" d="M5335,-51C5318,-41 5296,-28 5282,-20"/>
<polygon style="fill:midnightblue;stroke:midnightblue;" points="5333.56,-54.2031 5344,-56 5336.96,-48.084 5333.56,-54.2031"/>
</g>
<!-- Node43&#45;&gt;Node15 -->
<g id="edge146" class="edge"><title>Node43&#45;&gt;Node15</title>
<path style="fill:none;stroke:midnightblue;" d="M2865,-112C2608,-90 2543,-92 2291,-76 2288,-76 2286,-76 2283,-75"/>
<polygon style="fill:midnightblue;stroke:midnightblue;" points="2864.7,-115.488 2875,-113 2865.4,-108.522 2864.7,-115.488"/>
</g>
<!-- Node45&#45;&gt;Node31 -->
<g id="edge154" class="edge"><title>Node45&#45;&gt;Node31</title>
<path style="fill:none;stroke:midnightblue;" d="M5374,-221C5392,-214 5411,-203 5425,-188 5439,-172 5443,-146 5444,-132"/>
<polygon style="fill:midnightblue;stroke:midnightblue;" points="5372.57,-217.774 5364,-224 5374.58,-224.479 5372.57,-217.774"/>
</g>
<!-- Node46 -->
<g id="node124" class="node"><title>Node46</title>
<a xlink:href="decision__tree_8h.html" target="_top" xlink:title="ltr/learners/decision_tree/decision_tree.h">
<polygon style="fill:white;stroke:red;" points="5014,-168 5014,-188 5206,-188 5206,-168 5014,-168"/>
<text text-anchor="middle" x="5110" y="-175" style="font-family:Arial;font-size:10.00;">ltr/learners/decision_tree/decision_tree.h</text>
</a>
</g>
<!-- Node45&#45;&gt;Node46 -->
<g id="edge156" class="edge"><title>Node45&#45;&gt;Node46</title>
<path style="fill:none;stroke:midnightblue;" d="M5272,-221C5235,-211 5183,-197 5148,-188"/>
<polygon style="fill:midnightblue;stroke:midnightblue;" points="5271.42,-224.479 5282,-224 5273.43,-217.774 5271.42,-224.479"/>
</g>
<!-- Node47 -->
<g id="node127" class="node"><title>Node47</title>
<a xlink:href="decision__vertex_8h.html" target="_top" xlink:title="ltr/learners/decision_tree/vertex/decision_vertex.h">
<polygon style="fill:white;stroke:red;" points="5472,-168 5472,-188 5701,-188 5701,-168 5472,-168"/>
<text text-anchor="middle" x="5586" y="-175" style="font-family:Arial;font-size:10.00;">ltr/learners/decision_tree/vertex/decision_vertex.h</text>
</a>
</g>
<!-- Node45&#45;&gt;Node47 -->
<g id="edge160" class="edge"><title>Node45&#45;&gt;Node47</title>
<path style="fill:none;stroke:midnightblue;" d="M5378,-222C5426,-212 5493,-197 5538,-188"/>
<polygon style="fill:midnightblue;stroke:midnightblue;" points="5377.12,-218.607 5368,-224 5378.49,-225.471 5377.12,-218.607"/>
</g>
<!-- Node48 -->
<g id="node130" class="node"><title>Node48</title>
<a xlink:href="vertex__with__data_8h.html" target="_top" xlink:title="ltr/learners/decision_tree/vertex/vertex_with_data.h">
<polygon style="fill:white;stroke:red;" points="4762,-168 4762,-188 4996,-188 4996,-168 4762,-168"/>
<text text-anchor="middle" x="4879" y="-175" style="font-family:Arial;font-size:10.00;">ltr/learners/decision_tree/vertex/vertex_with_data.h</text>
</a>
</g>
<!-- Node45&#45;&gt;Node48 -->
<g id="edge164" class="edge"><title>Node45&#45;&gt;Node48</title>
<path style="fill:none;stroke:midnightblue;" d="M5231,-223C5151,-213 5034,-198 4957,-188"/>
<polygon style="fill:midnightblue;stroke:midnightblue;" points="5230.7,-226.488 5241,-224 5231.4,-219.522 5230.7,-226.488"/>
</g>
<!-- Node49 -->
<g id="node132" class="node"><title>Node49</title>
<a xlink:href="leaf__vertex_8h.html" target="_top" xlink:title="ltr/learners/decision_tree/vertex/leaf_vertex.h">
<polygon style="fill:white;stroke:red;" points="5718,-168 5718,-188 5926,-188 5926,-168 5718,-168"/>
<text text-anchor="middle" x="5822" y="-175" style="font-family:Arial;font-size:10.00;">ltr/learners/decision_tree/vertex/leaf_vertex.h</text>
</a>
</g>
<!-- Node45&#45;&gt;Node49 -->
<g id="edge166" class="edge"><title>Node45&#45;&gt;Node49</title>
<path style="fill:none;stroke:midnightblue;" d="M5420,-223C5511,-213 5644,-198 5733,-188"/>
<polygon style="fill:midnightblue;stroke:midnightblue;" points="5419.6,-219.522 5410,-224 5420.3,-226.488 5419.6,-219.522"/>
</g>
<!-- Node50 -->
<g id="node135" class="node"><title>Node50</title>
<a xlink:href="vertex_8cc.html" target="_top" xlink:title="ltr/learners/decision_tree/vertex/vertex.cc">
<polygon style="fill:white;stroke:black;" points="5224,-168 5224,-188 5417,-188 5417,-168 5224,-168"/>
<text text-anchor="middle" x="5320" y="-175" style="font-family:Arial;font-size:10.00;">ltr/learners/decision_tree/vertex/vertex.cc</text>
</a>
</g>
<!-- Node45&#45;&gt;Node50 -->
<g id="edge170" class="edge"><title>Node45&#45;&gt;Node50</title>
<path style="fill:none;stroke:midnightblue;" d="M5320,-214C5320,-205 5320,-196 5320,-188"/>
<polygon style="fill:midnightblue;stroke:midnightblue;" points="5316.5,-214 5320,-224 5323.5,-214 5316.5,-214"/>
</g>
<!-- Node46&#45;&gt;Node31 -->
<g id="edge158" class="edge"><title>Node46&#45;&gt;Node31</title>
<path style="fill:none;stroke:midnightblue;" d="M5180,-166C5241,-156 5327,-141 5385,-132"/>
<polygon style="fill:midnightblue;stroke:midnightblue;" points="5179.12,-162.607 5170,-168 5180.49,-169.471 5179.12,-162.607"/>
</g>
<!-- Node47&#45;&gt;Node12 -->
<g id="edge162" class="edge"><title>Node47&#45;&gt;Node12</title>
<path style="fill:none;stroke:midnightblue;" d="M5608,-162C5641,-138 5701,-96 5729,-76"/>
<polygon style="fill:midnightblue;stroke:midnightblue;" points="5605.9,-159.2 5600,-168 5610.1,-164.8 5605.9,-159.2"/>
</g>
<!-- Node49&#45;&gt;Node12 -->
<g id="edge168" class="edge"><title>Node49&#45;&gt;Node12</title>
<path style="fill:none;stroke:midnightblue;" d="M5809,-160C5793,-135 5764,-96 5751,-76"/>
<polygon style="fill:midnightblue;stroke:midnightblue;" points="5806.2,-162.1 5815,-168 5811.8,-157.9 5806.2,-162.1"/>
</g>
</g>
</svg>
