<?xml version="1.0" encoding="UTF-8" standalone="no"?>
<!DOCTYPE svg PUBLIC "-//W3C//DTD SVG 1.0//EN"
 "http://www.w3.org/TR/2001/REC-SVG-20010904/DTD/svg10.dtd" [
 <!ATTLIST svg xmlns:xlink CDATA #FIXED "http://www.w3.org/1999/xlink">
]>
<!-- Generated by Graphviz version 2.20.2 (Tue Mar &#160;2 19:03:41 UTC 2010)
     For user: (jenkins)  -->
<!-- Title: G Pages: 1 -->
<svg width="594pt" height="84pt"
 viewBox="0.00 0.00 594.00 84.00" xmlns="http://www.w3.org/2000/svg" xmlns:xlink="http://www.w3.org/1999/xlink">
<g id="graph0" class="graph" transform="scale(1 1) rotate(0) translate(4 80)">
<title>G</title>
<polygon style="fill:white;stroke:white;" points="-4,4 -4,-80 590,-80 590,4 -4,4"/>
<!-- Node1 -->
<g id="node1" class="node"><title>Node1</title>
<polygon style="fill:#bfbfbf;stroke:black;" points="212,-56 212,-76 341,-76 341,-56 212,-56"/>
<text text-anchor="middle" x="276" y="-63" style="font-family:Arial;font-size:10.00;">ltr/interfaces/serializable.h</text>
</g>
<!-- Node2 -->
<g id="node3" class="node"><title>Node2</title>
<polygon style="fill:white;stroke:#bfbfbf;" points="0,-0 0,-20 114,-20 114,-0 0,-0"/>
<text text-anchor="middle" x="57" y="-7" style="font-family:Arial;font-size:10.00;">boost/lexical_cast.hpp</text>
</g>
<!-- Node1&#45;&gt;Node2 -->
<g id="edge2" class="edge"><title>Node1&#45;&gt;Node2</title>
<path style="fill:none;stroke:midnightblue;" d="M237,-56C200,-47 145,-32 106,-22"/>
<polygon style="fill:midnightblue;stroke:midnightblue;" points="106.492,-18.5292 96,-20 105.119,-25.3933 106.492,-18.5292"/>
</g>
<!-- Node3 -->
<g id="node5" class="node"><title>Node3</title>
<polygon style="fill:white;stroke:#bfbfbf;" points="132,-0 132,-20 206,-20 206,-0 132,-0"/>
<text text-anchor="middle" x="169" y="-7" style="font-family:Arial;font-size:10.00;">logog/logog.h</text>
</g>
<!-- Node1&#45;&gt;Node3 -->
<g id="edge4" class="edge"><title>Node1&#45;&gt;Node3</title>
<path style="fill:none;stroke:midnightblue;" d="M257,-56C241,-47 216,-34 197,-25"/>
<polygon style="fill:midnightblue;stroke:midnightblue;" points="198.441,-21.7969 188,-20 195.042,-27.916 198.441,-21.7969"/>
</g>
<!-- Node4 -->
<g id="node7" class="node"><title>Node4</title>
<polygon style="fill:white;stroke:#bfbfbf;" points="224,-0 224,-20 264,-20 264,-0 224,-0"/>
<text text-anchor="middle" x="244" y="-7" style="font-family:Arial;font-size:10.00;">string</text>
</g>
<!-- Node1&#45;&gt;Node4 -->
<g id="edge6" class="edge"><title>Node1&#45;&gt;Node4</title>
<path style="fill:none;stroke:midnightblue;" d="M270,-56C265,-49 260,-38 255,-29"/>
<polygon style="fill:midnightblue;stroke:midnightblue;" points="257.916,-27.0418 250,-20 251.797,-30.4414 257.916,-27.0418"/>
</g>
<!-- Node5 -->
<g id="node9" class="node"><title>Node5</title>
<polygon style="fill:white;stroke:#bfbfbf;" points="282,-0 282,-20 336,-20 336,-0 282,-0"/>
<text text-anchor="middle" x="309" y="-7" style="font-family:Arial;font-size:10.00;">iostream</text>
</g>
<!-- Node1&#45;&gt;Node5 -->
<g id="edge8" class="edge"><title>Node1&#45;&gt;Node5</title>
<path style="fill:none;stroke:midnightblue;" d="M282,-56C287,-49 293,-38 298,-29"/>
<polygon style="fill:midnightblue;stroke:midnightblue;" points="301.203,-30.4414 303,-20 295.084,-27.0418 301.203,-30.4414"/>
</g>
<!-- Node6 -->
<g id="node11" class="node"><title>Node6</title>
<polygon style="fill:white;stroke:#bfbfbf;" points="354,-0 354,-20 461,-20 461,-0 354,-0"/>
<text text-anchor="middle" x="407" y="-7" style="font-family:Arial;font-size:10.00;">ltr/utility/shared_ptr.h</text>
</g>
<!-- Node1&#45;&gt;Node6 -->
<g id="edge10" class="edge"><title>Node1&#45;&gt;Node6</title>
<path style="fill:none;stroke:midnightblue;" d="M299,-56C320,-47 350,-34 373,-24"/>
<polygon style="fill:midnightblue;stroke:midnightblue;" points="375.015,-26.9636 383,-20 372.415,-20.4643 375.015,-26.9636"/>
</g>
<!-- Node7 -->
<g id="node13" class="node"><title>Node7</title>
<polygon style="fill:white;stroke:#bfbfbf;" points="478,-0 478,-20 586,-20 586,-0 478,-0"/>
<text text-anchor="middle" x="532" y="-7" style="font-family:Arial;font-size:10.00;">ltr/interfaces/aliaser.h</text>
</g>
<!-- Node1&#45;&gt;Node7 -->
<g id="edge12" class="edge"><title>Node1&#45;&gt;Node7</title>
<path style="fill:none;stroke:midnightblue;" d="M322,-56C365,-47 430,-32 476,-22"/>
<polygon style="fill:midnightblue;stroke:midnightblue;" points="476.881,-25.3933 486,-20 475.508,-18.5292 476.881,-25.3933"/>
</g>
</g>
</svg>
