<?xml version="1.0" encoding="UTF-8" standalone="no"?>
<!DOCTYPE svg PUBLIC "-//W3C//DTD SVG 1.0//EN"
 "http://www.w3.org/TR/2001/REC-SVG-20010904/DTD/svg10.dtd" [
 <!ATTLIST svg xmlns:xlink CDATA #FIXED "http://www.w3.org/1999/xlink">
]>
<!-- Generated by Graphviz version 2.20.2 (Tue Mar &#160;2 19:03:41 UTC 2010)
     For user: (jenkins)  -->
<!-- Title: G Pages: 1 -->
<svg width="1080pt" height="252pt"
 viewBox="0.00 0.00 1080.00 252.00" xmlns="http://www.w3.org/2000/svg" xmlns:xlink="http://www.w3.org/1999/xlink">
<g id="graph0" class="graph" transform="scale(1 1) rotate(0) translate(4 248)">
<title>G</title>
<polygon style="fill:white;stroke:white;" points="-4,4 -4,-248 1076,-248 1076,4 -4,4"/>
<!-- Node1 -->
<g id="node1" class="node"><title>Node1</title>
<polygon style="fill:#bfbfbf;stroke:black;" points="608,-224 608,-244 771,-244 771,-224 608,-224"/>
<text text-anchor="middle" x="689" y="-231" style="font-family:Arial;font-size:10.00;">ltr/interfaces/serializable_functor.h</text>
</g>
<!-- Node2 -->
<g id="node3" class="node"><title>Node2</title>
<a xlink:href="shared__ptr_8h.html" target="_top" xlink:title="ltr/utility/shared_ptr.h">
<polygon style="fill:white;stroke:black;" points="867,-56 867,-76 974,-76 974,-56 867,-56"/>
<text text-anchor="middle" x="920" y="-63" style="font-family:Arial;font-size:10.00;">ltr/utility/shared_ptr.h</text>
</a>
</g>
<!-- Node1&#45;&gt;Node2 -->
<g id="edge2" class="edge"><title>Node1&#45;&gt;Node2</title>
<path style="fill:none;stroke:midnightblue;" d="M703,-224C741,-196 851,-116 898,-82"/>
<polygon style="fill:midnightblue;stroke:midnightblue;" points="900.1,-84.8 906,-76 895.9,-79.2 900.1,-84.8"/>
</g>
<!-- Node6 -->
<g id="node11" class="node"><title>Node6</title>
<a xlink:href="functor_8h.html" target="_top" xlink:title="ltr/interfaces/functor.h">
<polygon style="fill:white;stroke:black;" points="410,-168 410,-188 519,-188 519,-168 410,-168"/>
<text text-anchor="middle" x="464" y="-175" style="font-family:Arial;font-size:10.00;">ltr/interfaces/functor.h</text>
</a>
</g>
<!-- Node1&#45;&gt;Node6 -->
<g id="edge10" class="edge"><title>Node1&#45;&gt;Node6</title>
<path style="fill:none;stroke:midnightblue;" d="M649,-224C611,-215 554,-200 514,-190"/>
<polygon style="fill:midnightblue;stroke:midnightblue;" points="514.492,-186.529 504,-188 513.119,-193.393 514.492,-186.529"/>
</g>
<!-- Node15 -->
<g id="node34" class="node"><title>Node15</title>
<a xlink:href="serializable_8h.html" target="_top" xlink:title="ltr/interfaces/serializable.h">
<polygon style="fill:white;stroke:black;" points="625,-112 625,-132 754,-132 754,-112 625,-112"/>
<text text-anchor="middle" x="689" y="-119" style="font-family:Arial;font-size:10.00;">ltr/interfaces/serializable.h</text>
</a>
</g>
<!-- Node1&#45;&gt;Node15 -->
<g id="edge38" class="edge"><title>Node1&#45;&gt;Node15</title>
<path style="fill:none;stroke:midnightblue;" d="M689,-224C689,-205 689,-166 689,-142"/>
<polygon style="fill:midnightblue;stroke:midnightblue;" points="692.5,-142 689,-132 685.5,-142 692.5,-142"/>
</g>
<!-- Node3 -->
<g id="node5" class="node"><title>Node3</title>
<polygon style="fill:white;stroke:#bfbfbf;" points="892,-0 892,-20 948,-20 948,-0 892,-0"/>
<text text-anchor="middle" x="920" y="-7" style="font-family:Arial;font-size:10.00;">algorithm</text>
</g>
<!-- Node2&#45;&gt;Node3 -->
<g id="edge4" class="edge"><title>Node2&#45;&gt;Node3</title>
<path style="fill:none;stroke:midnightblue;" d="M920,-56C920,-49 920,-39 920,-30"/>
<polygon style="fill:midnightblue;stroke:midnightblue;" points="923.5,-30 920,-20 916.5,-30 923.5,-30"/>
</g>
<!-- Node4 -->
<g id="node7" class="node"><title>Node4</title>
<polygon style="fill:white;stroke:#bfbfbf;" points="966,-0 966,-20 1073,-20 1073,-0 966,-0"/>
<text text-anchor="middle" x="1019" y="-7" style="font-family:Arial;font-size:10.00;">boost/shared_ptr.hpp</text>
</g>
<!-- Node2&#45;&gt;Node4 -->
<g id="edge6" class="edge"><title>Node2&#45;&gt;Node4</title>
<path style="fill:none;stroke:midnightblue;" d="M938,-56C953,-48 975,-35 992,-25"/>
<polygon style="fill:midnightblue;stroke:midnightblue;" points="993.958,-27.916 1001,-20 990.559,-21.7969 993.958,-27.916"/>
</g>
<!-- Node5 -->
<g id="node9" class="node"><title>Node5</title>
<polygon style="fill:white;stroke:#bfbfbf;" points="684,-0 684,-20 875,-20 875,-0 684,-0"/>
<text text-anchor="middle" x="779" y="-7" style="font-family:Arial;font-size:10.00;">boost/smart_ptr/detail/operator_bool.hpp</text>
</g>
<!-- Node2&#45;&gt;Node5 -->
<g id="edge8" class="edge"><title>Node2&#45;&gt;Node5</title>
<path style="fill:none;stroke:midnightblue;" d="M895,-56C872,-47 839,-34 814,-24"/>
<polygon style="fill:midnightblue;stroke:midnightblue;" points="814.585,-20.4643 804,-20 811.985,-26.9636 814.585,-20.4643"/>
</g>
<!-- Node6&#45;&gt;Node2 -->
<g id="edge12" class="edge"><title>Node6&#45;&gt;Node2</title>
<path style="fill:none;stroke:midnightblue;" d="M519,-173C580,-168 679,-155 762,-132 808,-118 860,-96 891,-81"/>
<polygon style="fill:midnightblue;stroke:midnightblue;" points="892.958,-83.916 900,-76 889.559,-77.7969 892.958,-83.916"/>
</g>
<!-- Node7 -->
<g id="node14" class="node"><title>Node7</title>
<polygon style="fill:white;stroke:#bfbfbf;" points="407,-56 407,-76 521,-76 521,-56 407,-56"/>
<text text-anchor="middle" x="464" y="-63" style="font-family:Arial;font-size:10.00;">boost/lexical_cast.hpp</text>
</g>
<!-- Node6&#45;&gt;Node7 -->
<g id="edge14" class="edge"><title>Node6&#45;&gt;Node7</title>
<path style="fill:none;stroke:midnightblue;" d="M464,-168C464,-149 464,-110 464,-86"/>
<polygon style="fill:midnightblue;stroke:midnightblue;" points="467.5,-86 464,-76 460.5,-86 467.5,-86"/>
</g>
<!-- Node8 -->
<g id="node16" class="node"><title>Node8</title>
<polygon style="fill:white;stroke:#bfbfbf;" points="359,-0 359,-20 399,-20 399,-0 359,-0"/>
<text text-anchor="middle" x="379" y="-7" style="font-family:Arial;font-size:10.00;">string</text>
</g>
<!-- Node6&#45;&gt;Node8 -->
<g id="edge16" class="edge"><title>Node6&#45;&gt;Node8</title>
<path style="fill:none;stroke:midnightblue;" d="M456,-168C443,-150 415,-112 398,-76 392,-61 387,-43 383,-30"/>
<polygon style="fill:midnightblue;stroke:midnightblue;" points="386.393,-29.1194 381,-20 379.529,-30.4922 386.393,-29.1194"/>
</g>
<!-- Node9 -->
<g id="node18" class="node"><title>Node9</title>
<a xlink:href="object_8h.html" target="_top" xlink:title="ltr/data/object.h">
<polygon style="fill:white;stroke:black;" points="167,-112 167,-132 251,-132 251,-112 167,-112"/>
<text text-anchor="middle" x="209" y="-119" style="font-family:Arial;font-size:10.00;">ltr/data/object.h</text>
</a>
</g>
<!-- Node6&#45;&gt;Node9 -->
<g id="edge18" class="edge"><title>Node6&#45;&gt;Node9</title>
<path style="fill:none;stroke:midnightblue;" d="M418,-168C374,-159 307,-143 261,-133"/>
<polygon style="fill:midnightblue;stroke:midnightblue;" points="261.492,-129.529 251,-131 260.119,-136.393 261.492,-129.529"/>
</g>
<!-- Node9&#45;&gt;Node2 -->
<g id="edge36" class="edge"><title>Node9&#45;&gt;Node2</title>
<path style="fill:none;stroke:midnightblue;" d="M251,-120C354,-116 622,-102 857,-76"/>
<polygon style="fill:midnightblue;stroke:midnightblue;" points="857.398,-79.4778 867,-75 856.701,-72.5125 857.398,-79.4778"/>
</g>
<!-- Node9&#45;&gt;Node8 -->
<g id="edge26" class="edge"><title>Node9&#45;&gt;Node8</title>
<path style="fill:none;stroke:midnightblue;" d="M245,-112C268,-104 299,-92 322,-76 340,-63 356,-43 367,-28"/>
<polygon style="fill:midnightblue;stroke:midnightblue;" points="369.8,-30.1 373,-20 364.2,-25.9 369.8,-30.1"/>
</g>
<!-- Node10 -->
<g id="node20" class="node"><title>Node10</title>
<polygon style="fill:white;stroke:#bfbfbf;" points="145,-56 145,-76 180,-76 180,-56 145,-56"/>
<text text-anchor="middle" x="162" y="-63" style="font-family:Arial;font-size:10.00;">map</text>
</g>
<!-- Node9&#45;&gt;Node10 -->
<g id="edge20" class="edge"><title>Node9&#45;&gt;Node10</title>
<path style="fill:none;stroke:midnightblue;" d="M201,-112C194,-104 185,-94 177,-84"/>
<polygon style="fill:midnightblue;stroke:midnightblue;" points="179.8,-81.9 171,-76 174.2,-86.1 179.8,-81.9"/>
</g>
<!-- Node11 -->
<g id="node22" class="node"><title>Node11</title>
<polygon style="fill:white;stroke:#bfbfbf;" points="93,-0 93,-20 144,-20 144,-0 93,-0"/>
<text text-anchor="middle" x="118" y="-7" style="font-family:Arial;font-size:10.00;">ostream</text>
</g>
<!-- Node9&#45;&gt;Node11 -->
<g id="edge22" class="edge"><title>Node9&#45;&gt;Node11</title>
<path style="fill:none;stroke:midnightblue;" d="M167,-119C112,-114 21,-101 0,-76 -25,-44 39,-25 83,-16"/>
<polygon style="fill:midnightblue;stroke:midnightblue;" points="83.8806,-19.3933 93,-14 82.5078,-12.5292 83.8806,-19.3933"/>
</g>
<!-- Node12 -->
<g id="node24" class="node"><title>Node12</title>
<polygon style="fill:white;stroke:#bfbfbf;" points="9,-56 9,-76 68,-76 68,-56 9,-56"/>
<text text-anchor="middle" x="38" y="-63" style="font-family:Arial;font-size:10.00;">stdexcept</text>
</g>
<!-- Node9&#45;&gt;Node12 -->
<g id="edge24" class="edge"><title>Node9&#45;&gt;Node12</title>
<path style="fill:none;stroke:midnightblue;" d="M178,-112C150,-103 108,-89 78,-79"/>
<polygon style="fill:midnightblue;stroke:midnightblue;" points="78.584,-75.5212 68,-76 76.5725,-82.2259 78.584,-75.5212"/>
</g>
<!-- Node13 -->
<g id="node27" class="node"><title>Node13</title>
<polygon style="fill:white;stroke:#bfbfbf;" points="85,-56 85,-76 127,-76 127,-56 85,-56"/>
<text text-anchor="middle" x="106" y="-63" style="font-family:Arial;font-size:10.00;">vector</text>
</g>
<!-- Node9&#45;&gt;Node13 -->
<g id="edge28" class="edge"><title>Node9&#45;&gt;Node13</title>
<path style="fill:none;stroke:midnightblue;" d="M191,-112C175,-104 152,-91 134,-81"/>
<polygon style="fill:midnightblue;stroke:midnightblue;" points="135.441,-77.7969 125,-76 132.042,-83.916 135.441,-77.7969"/>
</g>
<!-- Node14 -->
<g id="node29" class="node"><title>Node14</title>
<a xlink:href="printable_8h.html" target="_top" xlink:title="ltr/interfaces/printable.h">
<polygon style="fill:white;stroke:black;" points="197,-56 197,-76 314,-76 314,-56 197,-56"/>
<text text-anchor="middle" x="255" y="-63" style="font-family:Arial;font-size:10.00;">ltr/interfaces/printable.h</text>
</a>
</g>
<!-- Node9&#45;&gt;Node14 -->
<g id="edge30" class="edge"><title>Node9&#45;&gt;Node14</title>
<path style="fill:none;stroke:midnightblue;" d="M217,-112C223,-104 232,-94 240,-84"/>
<polygon style="fill:midnightblue;stroke:midnightblue;" points="242.8,-86.1 246,-76 237.2,-81.9 242.8,-86.1"/>
</g>
<!-- Node14&#45;&gt;Node8 -->
<g id="edge34" class="edge"><title>Node14&#45;&gt;Node8</title>
<path style="fill:none;stroke:midnightblue;" d="M277,-56C297,-47 327,-33 350,-23"/>
<polygon style="fill:midnightblue;stroke:midnightblue;" points="351.283,-26.2598 359,-19 348.44,-19.8631 351.283,-26.2598"/>
</g>
<!-- Node14&#45;&gt;Node11 -->
<g id="edge32" class="edge"><title>Node14&#45;&gt;Node11</title>
<path style="fill:none;stroke:midnightblue;" d="M231,-56C209,-47 177,-34 152,-24"/>
<polygon style="fill:midnightblue;stroke:midnightblue;" points="153.56,-20.8631 143,-20 150.717,-27.2598 153.56,-20.8631"/>
</g>
<!-- Node15&#45;&gt;Node2 -->
<g id="edge48" class="edge"><title>Node15&#45;&gt;Node2</title>
<path style="fill:none;stroke:midnightblue;" d="M730,-112C769,-103 827,-88 869,-78"/>
<polygon style="fill:midnightblue;stroke:midnightblue;" points="869.881,-81.3933 879,-76 868.508,-74.5292 869.881,-81.3933"/>
</g>
<!-- Node15&#45;&gt;Node7 -->
<g id="edge40" class="edge"><title>Node15&#45;&gt;Node7</title>
<path style="fill:none;stroke:midnightblue;" d="M649,-112C611,-103 554,-88 514,-78"/>
<polygon style="fill:midnightblue;stroke:midnightblue;" points="514.492,-74.5292 504,-76 513.119,-81.3933 514.492,-74.5292"/>
</g>
<!-- Node15&#45;&gt;Node8 -->
<g id="edge44" class="edge"><title>Node15&#45;&gt;Node8</title>
<path style="fill:none;stroke:midnightblue;" d="M687,-112C683,-97 674,-69 656,-56 617,-27 473,-15 409,-12"/>
<polygon style="fill:midnightblue;stroke:midnightblue;" points="409.299,-8.5125 399,-11 408.602,-15.4778 409.299,-8.5125"/>
</g>
<!-- Node16 -->
<g id="node37" class="node"><title>Node16</title>
<polygon style="fill:white;stroke:#bfbfbf;" points="703,-56 703,-76 777,-76 777,-56 703,-56"/>
<text text-anchor="middle" x="740" y="-63" style="font-family:Arial;font-size:10.00;">logog/logog.h</text>
</g>
<!-- Node15&#45;&gt;Node16 -->
<g id="edge42" class="edge"><title>Node15&#45;&gt;Node16</title>
<path style="fill:none;stroke:midnightblue;" d="M698,-112C705,-104 715,-93 724,-83"/>
<polygon style="fill:midnightblue;stroke:midnightblue;" points="726.404,-85.546 731,-76 721.454,-80.5962 726.404,-85.546"/>
</g>
<!-- Node17 -->
<g id="node40" class="node"><title>Node17</title>
<polygon style="fill:white;stroke:#bfbfbf;" points="795,-56 795,-76 849,-76 849,-56 795,-56"/>
<text text-anchor="middle" x="822" y="-63" style="font-family:Arial;font-size:10.00;">iostream</text>
</g>
<!-- Node15&#45;&gt;Node17 -->
<g id="edge46" class="edge"><title>Node15&#45;&gt;Node17</title>
<path style="fill:none;stroke:midnightblue;" d="M713,-112C734,-103 765,-90 789,-80"/>
<polygon style="fill:midnightblue;stroke:midnightblue;" points="790.283,-83.2598 798,-76 787.44,-76.8631 790.283,-83.2598"/>
</g>
<!-- Node18 -->
<g id="node43" class="node"><title>Node18</title>
<a xlink:href="aliaser_8h.html" target="_top" xlink:title="ltr/interfaces/aliaser.h">
<polygon style="fill:white;stroke:black;" points="539,-56 539,-76 647,-76 647,-56 539,-56"/>
<text text-anchor="middle" x="593" y="-63" style="font-family:Arial;font-size:10.00;">ltr/interfaces/aliaser.h</text>
</a>
</g>
<!-- Node15&#45;&gt;Node18 -->
<g id="edge50" class="edge"><title>Node15&#45;&gt;Node18</title>
<path style="fill:none;stroke:midnightblue;" d="M672,-112C657,-104 636,-91 619,-81"/>
<polygon style="fill:midnightblue;stroke:midnightblue;" points="620.441,-77.7969 610,-76 617.042,-83.916 620.441,-77.7969"/>
</g>
<!-- Node18&#45;&gt;Node8 -->
<g id="edge52" class="edge"><title>Node18&#45;&gt;Node8</title>
<path style="fill:none;stroke:midnightblue;" d="M555,-56C513,-45 448,-28 409,-18"/>
<polygon style="fill:midnightblue;stroke:midnightblue;" points="409.584,-14.5212 399,-15 407.573,-21.2259 409.584,-14.5212"/>
</g>
</g>
</svg>
