<?xml version="1.0" encoding="UTF-8" standalone="no"?>
<!DOCTYPE svg PUBLIC "-//W3C//DTD SVG 1.0//EN"
 "http://www.w3.org/TR/2001/REC-SVG-20010904/DTD/svg10.dtd" [
 <!ATTLIST svg xmlns:xlink CDATA #FIXED "http://www.w3.org/1999/xlink">
]>
<!-- Generated by Graphviz version 2.20.2 (Tue Mar &#160;2 19:03:41 UTC 2010)
     For user: (jenkins)  -->
<!-- Title: G Pages: 1 -->
<svg width="396pt" height="140pt"
 viewBox="0.00 0.00 396.00 140.00" xmlns="http://www.w3.org/2000/svg" xmlns:xlink="http://www.w3.org/1999/xlink">
<g id="graph0" class="graph" transform="scale(1 1) rotate(0) translate(4 136)">
<title>G</title>
<polygon style="fill:white;stroke:white;" points="-4,4 -4,-136 392,-136 392,4 -4,4"/>
<!-- Node1 -->
<g id="node1" class="node"><title>Node1</title>
<polygon style="fill:#bfbfbf;stroke:black;" points="71,-112 71,-132 183,-132 183,-112 71,-112"/>
<text text-anchor="middle" x="127" y="-119" style="font-family:Arial;font-size:10.00;">ltr/utility/shared_ptr.cc</text>
</g>
<!-- Node2 -->
<g id="node3" class="node"><title>Node2</title>
<a xlink:href="shared__ptr_8h.html" target="_top" xlink:title="ltr/utility/shared_ptr.h">
<polygon style="fill:white;stroke:black;" points="74,-56 74,-76 181,-76 181,-56 74,-56"/>
<text text-anchor="middle" x="127" y="-63" style="font-family:Arial;font-size:10.00;">ltr/utility/shared_ptr.h</text>
</a>
</g>
<!-- Node1&#45;&gt;Node2 -->
<g id="edge2" class="edge"><title>Node1&#45;&gt;Node2</title>
<path style="fill:none;stroke:midnightblue;" d="M127,-112C127,-105 127,-95 127,-86"/>
<polygon style="fill:midnightblue;stroke:midnightblue;" points="130.5,-86 127,-76 123.5,-86 130.5,-86"/>
</g>
<!-- Node3 -->
<g id="node5" class="node"><title>Node3</title>
<polygon style="fill:white;stroke:#bfbfbf;" points="0,-0 0,-20 56,-20 56,-0 0,-0"/>
<text text-anchor="middle" x="28" y="-7" style="font-family:Arial;font-size:10.00;">algorithm</text>
</g>
<!-- Node2&#45;&gt;Node3 -->
<g id="edge4" class="edge"><title>Node2&#45;&gt;Node3</title>
<path style="fill:none;stroke:midnightblue;" d="M109,-56C94,-48 72,-35 55,-25"/>
<polygon style="fill:midnightblue;stroke:midnightblue;" points="56.4414,-21.7969 46,-20 53.0418,-27.916 56.4414,-21.7969"/>
</g>
<!-- Node4 -->
<g id="node7" class="node"><title>Node4</title>
<polygon style="fill:white;stroke:#bfbfbf;" points="74,-0 74,-20 181,-20 181,-0 74,-0"/>
<text text-anchor="middle" x="127" y="-7" style="font-family:Arial;font-size:10.00;">boost/shared_ptr.hpp</text>
</g>
<!-- Node2&#45;&gt;Node4 -->
<g id="edge6" class="edge"><title>Node2&#45;&gt;Node4</title>
<path style="fill:none;stroke:midnightblue;" d="M127,-56C127,-49 127,-39 127,-30"/>
<polygon style="fill:midnightblue;stroke:midnightblue;" points="130.5,-30 127,-20 123.5,-30 130.5,-30"/>
</g>
<!-- Node5 -->
<g id="node9" class="node"><title>Node5</title>
<polygon style="fill:white;stroke:#bfbfbf;" points="198,-0 198,-20 389,-20 389,-0 198,-0"/>
<text text-anchor="middle" x="293" y="-7" style="font-family:Arial;font-size:10.00;">boost/smart_ptr/detail/operator_bool.hpp</text>
</g>
<!-- Node2&#45;&gt;Node5 -->
<g id="edge8" class="edge"><title>Node2&#45;&gt;Node5</title>
<path style="fill:none;stroke:midnightblue;" d="M157,-56C184,-47 224,-33 253,-23"/>
<polygon style="fill:midnightblue;stroke:midnightblue;" points="254.427,-26.2259 263,-20 252.416,-19.5212 254.427,-26.2259"/>
</g>
</g>
</svg>
