<?xml version="1.0" encoding="UTF-8" standalone="no"?>
<!DOCTYPE svg PUBLIC "-//W3C//DTD SVG 1.0//EN"
 "http://www.w3.org/TR/2001/REC-SVG-20010904/DTD/svg10.dtd" [
 <!ATTLIST svg xmlns:xlink CDATA #FIXED "http://www.w3.org/1999/xlink">
]>
<!-- Generated by Graphviz version 2.20.2 (Tue Mar &#160;2 19:03:41 UTC 2010)
     For user: (jenkins)  -->
<!-- Title: G Pages: 1 -->
<svg width="1458pt" height="364pt"
 viewBox="0.00 0.00 1458.00 364.00" xmlns="http://www.w3.org/2000/svg" xmlns:xlink="http://www.w3.org/1999/xlink">
<g id="graph0" class="graph" transform="scale(1 1) rotate(0) translate(4 360)">
<title>G</title>
<polygon style="fill:white;stroke:white;" points="-4,4 -4,-360 1454,-360 1454,4 -4,4"/>
<!-- Node1 -->
<g id="node1" class="node"><title>Node1</title>
<polygon style="fill:#bfbfbf;stroke:black;" points="955,-336 955,-356 1086,-356 1086,-336 955,-336"/>
<text text-anchor="middle" x="1020" y="-343" style="font-family:Arial;font-size:10.00;">ltr/crossvalidation/splitter.h</text>
</g>
<!-- Node2 -->
<g id="node3" class="node"><title>Node2</title>
<a xlink:href="shared__ptr_8h.html" target="_top" xlink:title="ltr/utility/shared_ptr.h">
<polygon style="fill:white;stroke:black;" points="211,-56 211,-76 318,-76 318,-56 211,-56"/>
<text text-anchor="middle" x="264" y="-63" style="font-family:Arial;font-size:10.00;">ltr/utility/shared_ptr.h</text>
</a>
</g>
<!-- Node1&#45;&gt;Node2 -->
<g id="edge2" class="edge"><title>Node1&#45;&gt;Node2</title>
<path style="fill:none;stroke:midnightblue;" d="M955,-344C760,-337 194,-310 194,-234 194,-234 194,-234 194,-178 194,-139 224,-103 245,-83"/>
<polygon style="fill:midnightblue;stroke:midnightblue;" points="247.404,-85.546 252,-76 242.454,-80.5962 247.404,-85.546"/>
</g>
<!-- Node6 -->
<g id="node11" class="node"><title>Node6</title>
<polygon style="fill:white;stroke:#bfbfbf;" points="812,-56 812,-76 854,-76 854,-56 812,-56"/>
<text text-anchor="middle" x="833" y="-63" style="font-family:Arial;font-size:10.00;">vector</text>
</g>
<!-- Node1&#45;&gt;Node6 -->
<g id="edge10" class="edge"><title>Node1&#45;&gt;Node6</title>
<path style="fill:none;stroke:midnightblue;" d="M1027,-336C1046,-308 1093,-229 1070,-168 1058,-137 1049,-129 1021,-112 995,-95 911,-79 864,-71"/>
<polygon style="fill:midnightblue;stroke:midnightblue;" points="864.492,-67.5292 854,-69 863.119,-74.3933 864.492,-67.5292"/>
</g>
<!-- Node7 -->
<g id="node13" class="node"><title>Node7</title>
<polygon style="fill:white;stroke:#bfbfbf;" points="881,-0 881,-20 921,-20 921,-0 881,-0"/>
<text text-anchor="middle" x="901" y="-7" style="font-family:Arial;font-size:10.00;">string</text>
</g>
<!-- Node1&#45;&gt;Node7 -->
<g id="edge12" class="edge"><title>Node1&#45;&gt;Node7</title>
<path style="fill:none;stroke:midnightblue;" d="M1086,-342C1207,-334 1450,-308 1450,-234 1450,-234 1450,-234 1450,-122 1450,-86 1436,-74 1407,-56 1365,-31 1034,-15 931,-11"/>
<polygon style="fill:midnightblue;stroke:midnightblue;" points="931,-7.5001 921,-11 931,-14.5001 931,-7.5001"/>
</g>
<!-- Node8 -->
<g id="node15" class="node"><title>Node8</title>
<a xlink:href="printable_8h.html" target="_top" xlink:title="ltr/interfaces/printable.h">
<polygon style="fill:white;stroke:black;" points="373,-56 373,-76 490,-76 490,-56 373,-56"/>
<text text-anchor="middle" x="431" y="-63" style="font-family:Arial;font-size:10.00;">ltr/interfaces/printable.h</text>
</a>
</g>
<!-- Node1&#45;&gt;Node8 -->
<g id="edge14" class="edge"><title>Node1&#45;&gt;Node8</title>
<path style="fill:none;stroke:midnightblue;" d="M955,-342C786,-330 346,-295 346,-234 346,-234 346,-234 346,-178 346,-137 382,-102 407,-82"/>
<polygon style="fill:midnightblue;stroke:midnightblue;" points="409.1,-84.8 415,-76 404.9,-79.2 409.1,-84.8"/>
</g>
<!-- Node10 -->
<g id="node20" class="node"><title>Node10</title>
<a xlink:href="data__set_8h.html" target="_top" xlink:title="ltr/data/data_set.h">
<polygon style="fill:white;stroke:black;" points="796,-280 796,-300 891,-300 891,-280 796,-280"/>
<text text-anchor="middle" x="843" y="-287" style="font-family:Arial;font-size:10.00;">ltr/data/data_set.h</text>
</a>
</g>
<!-- Node1&#45;&gt;Node10 -->
<g id="edge20" class="edge"><title>Node1&#45;&gt;Node10</title>
<path style="fill:none;stroke:midnightblue;" d="M988,-336C959,-327 916,-313 885,-303"/>
<polygon style="fill:midnightblue;stroke:midnightblue;" points="885.584,-299.521 875,-300 883.573,-306.226 885.584,-299.521"/>
</g>
<!-- Node18 -->
<g id="node59" class="node"><title>Node18</title>
<a xlink:href="parameterized_8h.html" target="_top" xlink:title="ltr/interfaces/parameterized.h">
<polygon style="fill:white;stroke:black;" points="902,-168 902,-188 1044,-188 1044,-168 902,-168"/>
<text text-anchor="middle" x="973" y="-175" style="font-family:Arial;font-size:10.00;">ltr/interfaces/parameterized.h</text>
</a>
</g>
<!-- Node1&#45;&gt;Node18 -->
<g id="edge124" class="edge"><title>Node1&#45;&gt;Node18</title>
<path style="fill:none;stroke:midnightblue;" d="M1020,-336C1019,-314 1015,-263 1001,-224 997,-215 992,-205 987,-197"/>
<polygon style="fill:midnightblue;stroke:midnightblue;" points="989.459,-194.379 981,-188 983.635,-198.262 989.459,-194.379"/>
</g>
<!-- Node25 -->
<g id="node85" class="node"><title>Node25</title>
<a xlink:href="aliaser_8h.html" target="_top" xlink:title="ltr/interfaces/aliaser.h">
<polygon style="fill:white;stroke:black;" points="1214,-224 1214,-244 1322,-244 1322,-224 1214,-224"/>
<text text-anchor="middle" x="1268" y="-231" style="font-family:Arial;font-size:10.00;">ltr/interfaces/aliaser.h</text>
</a>
</g>
<!-- Node1&#45;&gt;Node25 -->
<g id="edge126" class="edge"><title>Node1&#45;&gt;Node25</title>
<path style="fill:none;stroke:midnightblue;" d="M1086,-337C1121,-331 1165,-319 1200,-300 1221,-287 1241,-267 1254,-252"/>
<polygon style="fill:midnightblue;stroke:midnightblue;" points="1256.8,-254.1 1260,-244 1251.2,-249.9 1256.8,-254.1"/>
</g>
<!-- Node3 -->
<g id="node5" class="node"><title>Node3</title>
<polygon style="fill:white;stroke:#bfbfbf;" points="208,-0 208,-20 264,-20 264,-0 208,-0"/>
<text text-anchor="middle" x="236" y="-7" style="font-family:Arial;font-size:10.00;">algorithm</text>
</g>
<!-- Node2&#45;&gt;Node3 -->
<g id="edge4" class="edge"><title>Node2&#45;&gt;Node3</title>
<path style="fill:none;stroke:midnightblue;" d="M259,-56C255,-49 250,-38 245,-29"/>
<polygon style="fill:midnightblue;stroke:midnightblue;" points="248.26,-27.7166 241,-20 241.863,-30.5596 248.26,-27.7166"/>
</g>
<!-- Node4 -->
<g id="node7" class="node"><title>Node4</title>
<polygon style="fill:white;stroke:#bfbfbf;" points="282,-0 282,-20 389,-20 389,-0 282,-0"/>
<text text-anchor="middle" x="335" y="-7" style="font-family:Arial;font-size:10.00;">boost/shared_ptr.hpp</text>
</g>
<!-- Node2&#45;&gt;Node4 -->
<g id="edge6" class="edge"><title>Node2&#45;&gt;Node4</title>
<path style="fill:none;stroke:midnightblue;" d="M277,-56C288,-48 302,-36 314,-27"/>
<polygon style="fill:midnightblue;stroke:midnightblue;" points="316.779,-29.2191 322,-20 312.169,-23.9511 316.779,-29.2191"/>
</g>
<!-- Node5 -->
<g id="node9" class="node"><title>Node5</title>
<polygon style="fill:white;stroke:#bfbfbf;" points="0,-0 0,-20 191,-20 191,-0 0,-0"/>
<text text-anchor="middle" x="95" y="-7" style="font-family:Arial;font-size:10.00;">boost/smart_ptr/detail/operator_bool.hpp</text>
</g>
<!-- Node2&#45;&gt;Node5 -->
<g id="edge8" class="edge"><title>Node2&#45;&gt;Node5</title>
<path style="fill:none;stroke:midnightblue;" d="M234,-56C206,-47 165,-33 135,-23"/>
<polygon style="fill:midnightblue;stroke:midnightblue;" points="135.584,-19.5212 125,-20 133.573,-26.2259 135.584,-19.5212"/>
</g>
<!-- Node8&#45;&gt;Node7 -->
<g id="edge18" class="edge"><title>Node8&#45;&gt;Node7</title>
<path style="fill:none;stroke:midnightblue;" d="M490,-58C494,-57 499,-57 503,-56 639,-38 804,-20 871,-13"/>
<polygon style="fill:midnightblue;stroke:midnightblue;" points="871.398,-16.4778 881,-12 870.701,-9.5125 871.398,-16.4778"/>
</g>
<!-- Node9 -->
<g id="node17" class="node"><title>Node9</title>
<polygon style="fill:white;stroke:#bfbfbf;" points="406,-0 406,-20 457,-20 457,-0 406,-0"/>
<text text-anchor="middle" x="431" y="-7" style="font-family:Arial;font-size:10.00;">ostream</text>
</g>
<!-- Node8&#45;&gt;Node9 -->
<g id="edge16" class="edge"><title>Node8&#45;&gt;Node9</title>
<path style="fill:none;stroke:midnightblue;" d="M431,-56C431,-49 431,-39 431,-30"/>
<polygon style="fill:midnightblue;stroke:midnightblue;" points="434.5,-30 431,-20 427.5,-30 434.5,-30"/>
</g>
<!-- Node10&#45;&gt;Node6 -->
<g id="edge28" class="edge"><title>Node10&#45;&gt;Node6</title>
<path style="fill:none;stroke:midnightblue;" d="M891,-282C966,-268 1095,-233 1053,-168 1010,-102 914,-78 864,-70"/>
<polygon style="fill:midnightblue;stroke:midnightblue;" points="864.492,-66.5292 854,-68 863.119,-73.3933 864.492,-66.5292"/>
</g>
<!-- Node10&#45;&gt;Node7 -->
<g id="edge26" class="edge"><title>Node10&#45;&gt;Node7</title>
<path style="fill:none;stroke:midnightblue;" d="M891,-281C932,-272 990,-259 1041,-244 1174,-203 1251,-244 1334,-132 1348,-111 1336,-100 1337,-76 1337,-67 1342,-62 1337,-56 1309,-25 1025,-14 931,-11"/>
<polygon style="fill:midnightblue;stroke:midnightblue;" points="931,-7.5001 921,-11 931,-14.5001 931,-7.5001"/>
</g>
<!-- Node11 -->
<g id="node22" class="node"><title>Node11</title>
<polygon style="fill:white;stroke:#bfbfbf;" points="818,-224 818,-244 869,-244 869,-224 818,-224"/>
<text text-anchor="middle" x="843" y="-231" style="font-family:Arial;font-size:10.00;">sstream</text>
</g>
<!-- Node10&#45;&gt;Node11 -->
<g id="edge22" class="edge"><title>Node10&#45;&gt;Node11</title>
<path style="fill:none;stroke:midnightblue;" d="M843,-280C843,-273 843,-263 843,-254"/>
<polygon style="fill:midnightblue;stroke:midnightblue;" points="846.5,-254 843,-244 839.5,-254 846.5,-254"/>
</g>
<!-- Node12 -->
<g id="node24" class="node"><title>Node12</title>
<polygon style="fill:white;stroke:#bfbfbf;" points="729,-56 729,-76 788,-76 788,-56 729,-56"/>
<text text-anchor="middle" x="758" y="-63" style="font-family:Arial;font-size:10.00;">stdexcept</text>
</g>
<!-- Node10&#45;&gt;Node12 -->
<g id="edge24" class="edge"><title>Node10&#45;&gt;Node12</title>
<path style="fill:none;stroke:midnightblue;" d="M834,-280C826,-271 816,-257 809,-244 782,-190 767,-120 762,-86"/>
<polygon style="fill:midnightblue;stroke:midnightblue;" points="765.393,-85.1194 760,-76 758.529,-86.4922 765.393,-85.1194"/>
</g>
<!-- Node13 -->
<g id="node28" class="node"><title>Node13</title>
<a xlink:href="object_8h.html" target="_top" xlink:title="ltr/data/object.h">
<polygon style="fill:white;stroke:black;" points="450,-112 450,-132 534,-132 534,-112 450,-112"/>
<text text-anchor="middle" x="492" y="-119" style="font-family:Arial;font-size:10.00;">ltr/data/object.h</text>
</a>
</g>
<!-- Node10&#45;&gt;Node13 -->
<g id="edge30" class="edge"><title>Node10&#45;&gt;Node13</title>
<path style="fill:none;stroke:midnightblue;" d="M796,-285C725,-278 594,-263 552,-244 515,-227 499,-223 482,-188 475,-174 478,-156 483,-142"/>
<polygon style="fill:midnightblue;stroke:midnightblue;" points="486.536,-142.585 487,-132 480.036,-139.985 486.536,-142.585"/>
</g>
<!-- Node15 -->
<g id="node38" class="node"><title>Node15</title>
<a xlink:href="object__list_8h.html" target="_top" xlink:title="ltr/data/object_list.h">
<polygon style="fill:white;stroke:black;" points="505,-168 505,-188 607,-188 607,-168 505,-168"/>
<text text-anchor="middle" x="556" y="-175" style="font-family:Arial;font-size:10.00;">ltr/data/object_list.h</text>
</a>
</g>
<!-- Node10&#45;&gt;Node15 -->
<g id="edge46" class="edge"><title>Node10&#45;&gt;Node15</title>
<path style="fill:none;stroke:midnightblue;" d="M796,-288C726,-285 600,-275 569,-244 557,-232 554,-213 554,-198"/>
<polygon style="fill:midnightblue;stroke:midnightblue;" points="557.488,-198.299 555,-188 550.522,-197.602 557.488,-198.299"/>
</g>
<!-- Node16 -->
<g id="node46" class="node"><title>Node16</title>
<a xlink:href="object__pair_8h.html" target="_top" xlink:title="ltr/data/object_pair.h">
<polygon style="fill:white;stroke:black;" points="625,-168 625,-188 729,-188 729,-168 625,-168"/>
<text text-anchor="middle" x="677" y="-175" style="font-family:Arial;font-size:10.00;">ltr/data/object_pair.h</text>
</a>
</g>
<!-- Node10&#45;&gt;Node16 -->
<g id="edge60" class="edge"><title>Node10&#45;&gt;Node16</title>
<path style="fill:none;stroke:midnightblue;" d="M828,-280C799,-260 736,-218 701,-194"/>
<polygon style="fill:midnightblue;stroke:midnightblue;" points="702.262,-190.635 692,-188 698.379,-196.459 702.262,-190.635"/>
</g>
<!-- Node17 -->
<g id="node54" class="node"><title>Node17</title>
<a xlink:href="feature__info_8h.html" target="_top" xlink:title="ltr/data/feature_info.h">
<polygon style="fill:white;stroke:black;" points="886,-224 886,-244 993,-244 993,-224 886,-224"/>
<text text-anchor="middle" x="939" y="-231" style="font-family:Arial;font-size:10.00;">ltr/data/feature_info.h</text>
</a>
</g>
<!-- Node10&#45;&gt;Node17 -->
<g id="edge74" class="edge"><title>Node10&#45;&gt;Node17</title>
<path style="fill:none;stroke:midnightblue;" d="M860,-280C875,-272 896,-259 913,-249"/>
<polygon style="fill:midnightblue;stroke:midnightblue;" points="914.958,-251.916 922,-244 911.559,-245.797 914.958,-251.916"/>
</g>
<!-- Node24 -->
<g id="node78" class="node"><title>Node24</title>
<a xlink:href="per__object__accessor_8h.html" target="_top" xlink:title="ltr/data/per_object_accessor.h">
<polygon style="fill:white;stroke:black;" points="578,-224 578,-244 725,-244 725,-224 578,-224"/>
<text text-anchor="middle" x="651" y="-231" style="font-family:Arial;font-size:10.00;">ltr/data/per_object_accessor.h</text>
</a>
</g>
<!-- Node10&#45;&gt;Node24 -->
<g id="edge108" class="edge"><title>Node10&#45;&gt;Node24</title>
<path style="fill:none;stroke:midnightblue;" d="M809,-280C777,-271 730,-257 695,-247"/>
<polygon style="fill:midnightblue;stroke:midnightblue;" points="695.584,-243.521 685,-244 693.573,-250.226 695.584,-243.521"/>
</g>
<!-- Node10&#45;&gt;Node25 -->
<g id="edge120" class="edge"><title>Node10&#45;&gt;Node25</title>
<path style="fill:none;stroke:midnightblue;" d="M891,-284C968,-273 1118,-254 1204,-242"/>
<polygon style="fill:midnightblue;stroke:midnightblue;" points="1204.4,-245.478 1214,-241 1203.7,-238.512 1204.4,-245.478"/>
</g>
<!-- Node13&#45;&gt;Node2 -->
<g id="edge44" class="edge"><title>Node13&#45;&gt;Node2</title>
<path style="fill:none;stroke:midnightblue;" d="M451,-112C413,-103 356,-88 315,-78"/>
<polygon style="fill:midnightblue;stroke:midnightblue;" points="315.492,-74.5292 305,-76 314.119,-81.3933 315.492,-74.5292"/>
</g>
<!-- Node13&#45;&gt;Node6 -->
<g id="edge40" class="edge"><title>Node13&#45;&gt;Node6</title>
<path style="fill:none;stroke:midnightblue;" d="M534,-117C593,-110 703,-95 796,-76 798,-76 800,-75 802,-74"/>
<polygon style="fill:midnightblue;stroke:midnightblue;" points="802.881,-77.3933 812,-72 801.508,-70.5292 802.881,-77.3933"/>
</g>
<!-- Node13&#45;&gt;Node7 -->
<g id="edge38" class="edge"><title>Node13&#45;&gt;Node7</title>
<path style="fill:none;stroke:midnightblue;" d="M496,-112C501,-97 515,-69 536,-56 591,-21 794,-13 871,-10"/>
<polygon style="fill:midnightblue;stroke:midnightblue;" points="871,-13.5001 881,-10 871,-6.5001 871,-13.5001"/>
</g>
<!-- Node13&#45;&gt;Node8 -->
<g id="edge42" class="edge"><title>Node13&#45;&gt;Node8</title>
<path style="fill:none;stroke:midnightblue;" d="M481,-112C472,-104 460,-93 449,-83"/>
<polygon style="fill:midnightblue;stroke:midnightblue;" points="451.546,-80.5962 442,-76 446.596,-85.546 451.546,-80.5962"/>
</g>
<!-- Node13&#45;&gt;Node9 -->
<g id="edge34" class="edge"><title>Node13&#45;&gt;Node9</title>
<path style="fill:none;stroke:midnightblue;" d="M450,-112C416,-104 374,-90 364,-76 350,-56 374,-37 397,-25"/>
<polygon style="fill:midnightblue;stroke:midnightblue;" points="398.958,-27.916 406,-20 395.559,-21.7969 398.958,-27.916"/>
</g>
<!-- Node13&#45;&gt;Node12 -->
<g id="edge36" class="edge"><title>Node13&#45;&gt;Node12</title>
<path style="fill:none;stroke:midnightblue;" d="M534,-113C584,-102 670,-84 719,-74"/>
<polygon style="fill:midnightblue;stroke:midnightblue;" points="719.881,-77.3933 729,-72 718.508,-70.5292 719.881,-77.3933"/>
</g>
<!-- Node14 -->
<g id="node30" class="node"><title>Node14</title>
<polygon style="fill:white;stroke:#bfbfbf;" points="545,-56 545,-76 580,-76 580,-56 545,-56"/>
<text text-anchor="middle" x="562" y="-63" style="font-family:Arial;font-size:10.00;">map</text>
</g>
<!-- Node13&#45;&gt;Node14 -->
<g id="edge32" class="edge"><title>Node13&#45;&gt;Node14</title>
<path style="fill:none;stroke:midnightblue;" d="M505,-112C515,-104 530,-93 541,-83"/>
<polygon style="fill:midnightblue;stroke:midnightblue;" points="543.779,-85.2191 549,-76 539.169,-79.9511 543.779,-85.2191"/>
</g>
<!-- Node15&#45;&gt;Node2 -->
<g id="edge58" class="edge"><title>Node15&#45;&gt;Node2</title>
<path style="fill:none;stroke:midnightblue;" d="M505,-170C467,-163 414,-150 370,-132 339,-119 306,-97 285,-82"/>
<polygon style="fill:midnightblue;stroke:midnightblue;" points="287.1,-79.2 277,-76 282.9,-84.8 287.1,-79.2"/>
</g>
<!-- Node15&#45;&gt;Node6 -->
<g id="edge52" class="edge"><title>Node15&#45;&gt;Node6</title>
<path style="fill:none;stroke:midnightblue;" d="M581,-168C632,-147 747,-101 803,-79"/>
<polygon style="fill:midnightblue;stroke:midnightblue;" points="804.283,-82.2598 812,-75 801.44,-75.8631 804.283,-82.2598"/>
</g>
<!-- Node15&#45;&gt;Node7 -->
<g id="edge50" class="edge"><title>Node15&#45;&gt;Node7</title>
<path style="fill:none;stroke:midnightblue;" d="M564,-168C585,-144 639,-85 698,-56 755,-28 830,-16 871,-12"/>
<polygon style="fill:midnightblue;stroke:midnightblue;" points="871.398,-15.4778 881,-11 870.701,-8.5125 871.398,-15.4778"/>
</g>
<!-- Node15&#45;&gt;Node8 -->
<g id="edge56" class="edge"><title>Node15&#45;&gt;Node8</title>
<path style="fill:none;stroke:midnightblue;" d="M505,-169C482,-163 457,-152 441,-132 431,-119 429,-100 429,-86"/>
<polygon style="fill:midnightblue;stroke:midnightblue;" points="432.488,-86.2987 430,-76 425.522,-85.6021 432.488,-86.2987"/>
</g>
<!-- Node15&#45;&gt;Node12 -->
<g id="edge48" class="edge"><title>Node15&#45;&gt;Node12</title>
<path style="fill:none;stroke:midnightblue;" d="M574,-168C610,-148 689,-104 731,-81"/>
<polygon style="fill:midnightblue;stroke:midnightblue;" points="732.958,-83.916 740,-76 729.559,-77.7969 732.958,-83.916"/>
</g>
<!-- Node15&#45;&gt;Node13 -->
<g id="edge54" class="edge"><title>Node15&#45;&gt;Node13</title>
<path style="fill:none;stroke:midnightblue;" d="M545,-168C535,-160 522,-149 511,-139"/>
<polygon style="fill:midnightblue;stroke:midnightblue;" points="513.546,-136.596 504,-132 508.596,-141.546 513.546,-136.596"/>
</g>
<!-- Node16&#45;&gt;Node2 -->
<g id="edge72" class="edge"><title>Node16&#45;&gt;Node2</title>
<path style="fill:none;stroke:midnightblue;" d="M625,-169C566,-158 475,-141 441,-132 390,-117 332,-94 296,-80"/>
<polygon style="fill:midnightblue;stroke:midnightblue;" points="297.56,-76.8631 287,-76 294.717,-83.2598 297.56,-76.8631"/>
</g>
<!-- Node16&#45;&gt;Node6 -->
<g id="edge66" class="edge"><title>Node16&#45;&gt;Node6</title>
<path style="fill:none;stroke:midnightblue;" d="M729,-170C772,-163 828,-150 842,-132 852,-118 848,-99 842,-85"/>
<polygon style="fill:midnightblue;stroke:midnightblue;" points="845.26,-83.7166 838,-76 838.863,-86.5596 845.26,-83.7166"/>
</g>
<!-- Node16&#45;&gt;Node7 -->
<g id="edge64" class="edge"><title>Node16&#45;&gt;Node7</title>
<path style="fill:none;stroke:midnightblue;" d="M677,-168C679,-144 686,-86 720,-56 741,-36 826,-21 871,-14"/>
<polygon style="fill:midnightblue;stroke:midnightblue;" points="871.398,-17.4778 881,-13 870.701,-10.5125 871.398,-17.4778"/>
</g>
<!-- Node16&#45;&gt;Node8 -->
<g id="edge70" class="edge"><title>Node16&#45;&gt;Node8</title>
<path style="fill:none;stroke:midnightblue;" d="M658,-168C632,-155 584,-130 543,-112 518,-100 489,-88 466,-80"/>
<polygon style="fill:midnightblue;stroke:midnightblue;" points="467.56,-76.8631 457,-76 464.717,-83.2598 467.56,-76.8631"/>
</g>
<!-- Node16&#45;&gt;Node12 -->
<g id="edge62" class="edge"><title>Node16&#45;&gt;Node12</title>
<path style="fill:none;stroke:midnightblue;" d="M691,-168C702,-159 717,-146 728,-132 738,-118 746,-100 751,-86"/>
<polygon style="fill:midnightblue;stroke:midnightblue;" points="754.536,-86.5847 755,-76 748.036,-83.9849 754.536,-86.5847"/>
</g>
<!-- Node16&#45;&gt;Node13 -->
<g id="edge68" class="edge"><title>Node16&#45;&gt;Node13</title>
<path style="fill:none;stroke:midnightblue;" d="M644,-168C614,-159 569,-145 535,-135"/>
<polygon style="fill:midnightblue;stroke:midnightblue;" points="535.584,-131.521 525,-132 533.573,-138.226 535.584,-131.521"/>
</g>
<!-- Node17&#45;&gt;Node2 -->
<g id="edge106" class="edge"><title>Node17&#45;&gt;Node2</title>
<path style="fill:none;stroke:midnightblue;" d="M886,-225C883,-225 880,-224 877,-224 708,-202 662,-223 496,-188 418,-171 394,-173 328,-132 308,-119 289,-99 277,-84"/>
<polygon style="fill:midnightblue;stroke:midnightblue;" points="279.8,-81.9 271,-76 274.2,-86.1 279.8,-81.9"/>
</g>
<!-- Node17&#45;&gt;Node6 -->
<g id="edge80" class="edge"><title>Node17&#45;&gt;Node6</title>
<path style="fill:none;stroke:midnightblue;" d="M927,-224C917,-215 902,-201 893,-188 871,-157 872,-145 856,-112 851,-103 846,-93 842,-85"/>
<polygon style="fill:midnightblue;stroke:midnightblue;" points="845.26,-83.7166 838,-76 838.863,-86.5596 845.26,-83.7166"/>
</g>
<!-- Node17&#45;&gt;Node7 -->
<g id="edge78" class="edge"><title>Node17&#45;&gt;Node7</title>
<path style="fill:none;stroke:midnightblue;" d="M965,-224C1002,-210 1072,-184 1134,-168 1214,-146 1264,-196 1317,-132 1338,-105 1339,-81 1317,-56 1290,-27 1023,-15 931,-11"/>
<polygon style="fill:midnightblue;stroke:midnightblue;" points="931,-7.5001 921,-11 931,-14.5001 931,-7.5001"/>
</g>
<!-- Node17&#45;&gt;Node14 -->
<g id="edge76" class="edge"><title>Node17&#45;&gt;Node14</title>
<path style="fill:none;stroke:midnightblue;" d="M917,-224C851,-195 661,-110 589,-78"/>
<polygon style="fill:midnightblue;stroke:midnightblue;" points="590.56,-74.8631 580,-74 587.717,-81.2598 590.56,-74.8631"/>
</g>
<!-- Node17&#45;&gt;Node18 -->
<g id="edge82" class="edge"><title>Node17&#45;&gt;Node18</title>
<path style="fill:none;stroke:midnightblue;" d="M945,-224C950,-217 956,-206 962,-197"/>
<polygon style="fill:midnightblue;stroke:midnightblue;" points="965.203,-198.441 967,-188 959.084,-195.042 965.203,-198.441"/>
</g>
<!-- Node18&#45;&gt;Node7 -->
<g id="edge86" class="edge"><title>Node18&#45;&gt;Node7</title>
<path style="fill:none;stroke:midnightblue;" d="M972,-168C970,-154 966,-130 956,-112 943,-91 928,-96 917,-76 908,-62 905,-44 903,-30"/>
<polygon style="fill:midnightblue;stroke:midnightblue;" points="906.478,-29.6021 902,-20 899.512,-30.2987 906.478,-29.6021"/>
</g>
<!-- Node18&#45;&gt;Node12 -->
<g id="edge84" class="edge"><title>Node18&#45;&gt;Node12</title>
<path style="fill:none;stroke:midnightblue;" d="M954,-168C916,-148 832,-104 787,-81"/>
<polygon style="fill:midnightblue;stroke:midnightblue;" points="788.441,-77.7969 778,-76 785.042,-83.916 788.441,-77.7969"/>
</g>
<!-- Node19 -->
<g id="node63" class="node"><title>Node19</title>
<a xlink:href="parameters__container_8h.html" target="_top" xlink:title="ltr/parameters_container/parameters_container.h">
<polygon style="fill:white;stroke:black;" points="1084,-112 1084,-132 1309,-132 1309,-112 1084,-112"/>
<text text-anchor="middle" x="1196" y="-119" style="font-family:Arial;font-size:10.00;">ltr/parameters_container/parameters_container.h</text>
</a>
</g>
<!-- Node18&#45;&gt;Node19 -->
<g id="edge88" class="edge"><title>Node18&#45;&gt;Node19</title>
<path style="fill:none;stroke:midnightblue;" d="M1013,-168C1050,-159 1106,-144 1146,-134"/>
<polygon style="fill:midnightblue;stroke:midnightblue;" points="1146.88,-137.393 1156,-132 1145.51,-130.529 1146.88,-137.393"/>
</g>
<!-- Node19&#45;&gt;Node2 -->
<g id="edge102" class="edge"><title>Node19&#45;&gt;Node2</title>
<path style="fill:none;stroke:midnightblue;" d="M1084,-117C924,-110 621,-96 364,-76 352,-75 340,-74 328,-73"/>
<polygon style="fill:midnightblue;stroke:midnightblue;" points="328.299,-69.5125 318,-72 327.602,-76.4778 328.299,-69.5125"/>
</g>
<!-- Node19&#45;&gt;Node7 -->
<g id="edge96" class="edge"><title>Node19&#45;&gt;Node7</title>
<path style="fill:none;stroke:midnightblue;" d="M1090,-112C1030,-105 963,-93 939,-76 923,-65 913,-45 907,-30"/>
<polygon style="fill:midnightblue;stroke:midnightblue;" points="910.226,-28.5725 904,-20 903.521,-30.584 910.226,-28.5725"/>
</g>
<!-- Node19&#45;&gt;Node8 -->
<g id="edge104" class="edge"><title>Node19&#45;&gt;Node8</title>
<path style="fill:none;stroke:midnightblue;" d="M1084,-115C952,-107 728,-92 536,-76 524,-75 512,-74 500,-73"/>
<polygon style="fill:midnightblue;stroke:midnightblue;" points="500.299,-69.5125 490,-72 499.602,-76.4778 500.299,-69.5125"/>
</g>
<!-- Node19&#45;&gt;Node12 -->
<g id="edge94" class="edge"><title>Node19&#45;&gt;Node12</title>
<path style="fill:none;stroke:midnightblue;" d="M1085,-112C1006,-104 898,-92 803,-76 801,-76 800,-75 798,-75"/>
<polygon style="fill:midnightblue;stroke:midnightblue;" points="798.492,-71.5292 788,-73 797.119,-78.3933 798.492,-71.5292"/>
</g>
<!-- Node20 -->
<g id="node65" class="node"><title>Node20</title>
<polygon style="fill:white;stroke:#bfbfbf;" points="948,-56 948,-76 1022,-76 1022,-56 948,-56"/>
<text text-anchor="middle" x="985" y="-63" style="font-family:Arial;font-size:10.00;">logog/logog.h</text>
</g>
<!-- Node19&#45;&gt;Node20 -->
<g id="edge90" class="edge"><title>Node19&#45;&gt;Node20</title>
<path style="fill:none;stroke:midnightblue;" d="M1158,-112C1123,-103 1070,-89 1032,-79"/>
<polygon style="fill:midnightblue;stroke:midnightblue;" points="1032.58,-75.5212 1022,-76 1030.57,-82.2259 1032.58,-75.5212"/>
</g>
<!-- Node21 -->
<g id="node67" class="node"><title>Node21</title>
<polygon style="fill:white;stroke:#bfbfbf;" points="1040,-56 1040,-76 1069,-76 1069,-56 1040,-56"/>
<text text-anchor="middle" x="1054" y="-63" style="font-family:Arial;font-size:10.00;">list</text>
</g>
<!-- Node19&#45;&gt;Node21 -->
<g id="edge92" class="edge"><title>Node19&#45;&gt;Node21</title>
<path style="fill:none;stroke:midnightblue;" d="M1169,-112C1147,-104 1114,-91 1079,-76"/>
<polygon style="fill:midnightblue;stroke:midnightblue;" points="1079.58,-72.4643 1069,-72 1076.98,-78.9636 1079.58,-72.4643"/>
</g>
<!-- Node22 -->
<g id="node71" class="node"><title>Node22</title>
<polygon style="fill:white;stroke:#bfbfbf;" points="1086,-56 1086,-76 1163,-76 1163,-56 1086,-56"/>
<text text-anchor="middle" x="1124" y="-63" style="font-family:Arial;font-size:10.00;">boost/any.hpp</text>
</g>
<!-- Node19&#45;&gt;Node22 -->
<g id="edge98" class="edge"><title>Node19&#45;&gt;Node22</title>
<path style="fill:none;stroke:midnightblue;" d="M1183,-112C1172,-104 1157,-92 1145,-83"/>
<polygon style="fill:midnightblue;stroke:midnightblue;" points="1146.83,-79.9511 1137,-76 1142.22,-85.2191 1146.83,-79.9511"/>
</g>
<!-- Node23 -->
<g id="node73" class="node"><title>Node23</title>
<polygon style="fill:white;stroke:#bfbfbf;" points="1180,-56 1180,-76 1309,-76 1309,-56 1180,-56"/>
<text text-anchor="middle" x="1244" y="-63" style="font-family:Arial;font-size:10.00;">boost/unordered_map.hpp</text>
</g>
<!-- Node19&#45;&gt;Node23 -->
<g id="edge100" class="edge"><title>Node19&#45;&gt;Node23</title>
<path style="fill:none;stroke:midnightblue;" d="M1205,-112C1211,-104 1221,-93 1229,-84"/>
<polygon style="fill:midnightblue;stroke:midnightblue;" points="1231.8,-86.1 1235,-76 1226.2,-81.9 1231.8,-86.1"/>
</g>
<!-- Node24&#45;&gt;Node2 -->
<g id="edge118" class="edge"><title>Node24&#45;&gt;Node2</title>
<path style="fill:none;stroke:midnightblue;" d="M578,-226C474,-213 292,-184 256,-132 247,-118 251,-100 255,-86"/>
<polygon style="fill:midnightblue;stroke:midnightblue;" points="258.536,-86.5847 259,-76 252.036,-83.9849 258.536,-86.5847"/>
</g>
<!-- Node24&#45;&gt;Node13 -->
<g id="edge110" class="edge"><title>Node24&#45;&gt;Node13</title>
<path style="fill:none;stroke:midnightblue;" d="M593,-224C555,-216 508,-204 496,-188 486,-175 485,-156 487,-142"/>
<polygon style="fill:midnightblue;stroke:midnightblue;" points="490.471,-142.492 489,-132 483.607,-141.119 490.471,-142.492"/>
</g>
<!-- Node24&#45;&gt;Node15 -->
<g id="edge114" class="edge"><title>Node24&#45;&gt;Node15</title>
<path style="fill:none;stroke:midnightblue;" d="M634,-224C620,-216 599,-203 582,-193"/>
<polygon style="fill:midnightblue;stroke:midnightblue;" points="583.441,-189.797 573,-188 580.042,-195.916 583.441,-189.797"/>
</g>
<!-- Node24&#45;&gt;Node16 -->
<g id="edge112" class="edge"><title>Node24&#45;&gt;Node16</title>
<path style="fill:none;stroke:midnightblue;" d="M656,-224C659,-217 664,-206 668,-197"/>
<polygon style="fill:midnightblue;stroke:midnightblue;" points="671.137,-198.56 672,-188 664.74,-195.717 671.137,-198.56"/>
</g>
<!-- Node24&#45;&gt;Node18 -->
<g id="edge116" class="edge"><title>Node24&#45;&gt;Node18</title>
<path style="fill:none;stroke:midnightblue;" d="M709,-224C764,-215 847,-200 906,-190"/>
<polygon style="fill:midnightblue;stroke:midnightblue;" points="906.881,-193.393 916,-188 905.508,-186.529 906.881,-193.393"/>
</g>
<!-- Node25&#45;&gt;Node7 -->
<g id="edge122" class="edge"><title>Node25&#45;&gt;Node7</title>
<path style="fill:none;stroke:midnightblue;" d="M1288,-224C1317,-208 1367,-176 1388,-132 1402,-101 1410,-80 1388,-56 1357,-21 1033,-13 931,-10"/>
<polygon style="fill:midnightblue;stroke:midnightblue;" points="931,-6.5001 921,-10 931,-13.5001 931,-6.5001"/>
</g>
</g>
</svg>
