<?xml version="1.0" encoding="UTF-8" standalone="no"?>
<!DOCTYPE svg PUBLIC "-//W3C//DTD SVG 1.0//EN"
 "http://www.w3.org/TR/2001/REC-SVG-20010904/DTD/svg10.dtd" [
 <!ATTLIST svg xmlns:xlink CDATA #FIXED "http://www.w3.org/1999/xlink">
]>
<!-- Generated by Graphviz version 2.20.2 (Tue Mar &#160;2 19:03:41 UTC 2010)
     For user: (jenkins)  -->
<!-- Title: G Pages: 1 -->
<svg width="1428pt" height="140pt"
 viewBox="0.00 0.00 1428.00 140.00" xmlns="http://www.w3.org/2000/svg" xmlns:xlink="http://www.w3.org/1999/xlink">
<g id="graph0" class="graph" transform="scale(1 1) rotate(0) translate(4 136)">
<title>G</title>
<polygon style="fill:white;stroke:white;" points="-4,4 -4,-136 1424,-136 1424,4 -4,4"/>
<!-- Node1 -->
<g id="node1" class="node"><title>Node1</title>
<polygon style="fill:#bfbfbf;stroke:black;" points="665,-112 665,-132 796,-132 796,-112 665,-112"/>
<text text-anchor="middle" x="730" y="-119" style="font-family:Arial;font-size:10.00;">ltr/crossvalidation/splitter.h</text>
</g>
<!-- Node2 -->
<g id="node3" class="node"><title>Node2</title>
<a xlink:href="crossvalidation_8h.html" target="_top" xlink:title="ltr/crossvalidation/crossvalidation.h">
<polygon style="fill:white;stroke:black;" points="0,-56 0,-76 166,-76 166,-56 0,-56"/>
<text text-anchor="middle" x="83" y="-63" style="font-family:Arial;font-size:10.00;">ltr/crossvalidation/crossvalidation.h</text>
</a>
</g>
<!-- Node1&#45;&gt;Node2 -->
<g id="edge2" class="edge"><title>Node1&#45;&gt;Node2</title>
<path style="fill:none;stroke:midnightblue;" d="M655,-116C548,-108 346,-92 175,-76 172,-76 169,-75 166,-75"/>
<polygon style="fill:midnightblue;stroke:midnightblue;" points="654.701,-119.488 665,-117 655.398,-112.522 654.701,-119.488"/>
</g>
<!-- Node4 -->
<g id="node7" class="node"><title>Node4</title>
<a xlink:href="crossvalidation__result_8h.html" target="_top" xlink:title="ltr/crossvalidation/crossvalidation_result.h">
<polygon style="fill:white;stroke:black;" points="184,-56 184,-76 379,-76 379,-56 184,-56"/>
<text text-anchor="middle" x="281" y="-63" style="font-family:Arial;font-size:10.00;">ltr/crossvalidation/crossvalidation_result.h</text>
</a>
</g>
<!-- Node1&#45;&gt;Node4 -->
<g id="edge6" class="edge"><title>Node1&#45;&gt;Node4</title>
<path style="fill:none;stroke:midnightblue;" d="M655,-113C574,-103 445,-87 362,-76"/>
<polygon style="fill:midnightblue;stroke:midnightblue;" points="654.701,-116.488 665,-114 655.398,-109.522 654.701,-116.488"/>
</g>
<!-- Node5 -->
<g id="node9" class="node"><title>Node5</title>
<a xlink:href="leave__one__out__splitter_8h.html" target="_top" xlink:title="ltr/crossvalidation/leave_one_out_splitter.h">
<polygon style="fill:white;stroke:black;" points="396,-56 396,-76 594,-76 594,-56 396,-56"/>
<text text-anchor="middle" x="495" y="-63" style="font-family:Arial;font-size:10.00;">ltr/crossvalidation/leave_one_out_splitter.h</text>
</a>
</g>
<!-- Node1&#45;&gt;Node5 -->
<g id="edge8" class="edge"><title>Node1&#45;&gt;Node5</title>
<path style="fill:none;stroke:midnightblue;" d="M678,-110C635,-100 577,-85 537,-76"/>
<polygon style="fill:midnightblue;stroke:midnightblue;" points="677.508,-113.471 688,-112 678.881,-106.607 677.508,-113.471"/>
</g>
<!-- Node6 -->
<g id="node12" class="node"><title>Node6</title>
<a xlink:href="leave__one__out__splitter__unittest_8cc.html" target="_top" xlink:title="ltr/crossvalidation/leave_one_out_splitter_unittest.cc">
<polygon style="fill:white;stroke:black;" points="379,-0 379,-20 620,-20 620,-0 379,-0"/>
<text text-anchor="middle" x="499" y="-7" style="font-family:Arial;font-size:10.00;">ltr/crossvalidation/leave_one_out_splitter_unittest.cc</text>
</a>
</g>
<!-- Node1&#45;&gt;Node6 -->
<g id="edge26" class="edge"><title>Node1&#45;&gt;Node6</title>
<path style="fill:none;stroke:midnightblue;" d="M701,-107C684,-98 661,-86 641,-76 624,-67 620,-64 603,-56 576,-42 545,-29 523,-20"/>
<polygon style="fill:midnightblue;stroke:midnightblue;" points="699.559,-110.203 710,-112 702.958,-104.084 699.559,-110.203"/>
</g>
<!-- Node7 -->
<g id="node14" class="node"><title>Node7</title>
<a xlink:href="crossvalidator_8h.html" target="_top" xlink:title="ltr/crossvalidation/crossvalidator.h">
<polygon style="fill:white;stroke:black;" points="650,-56 650,-76 811,-76 811,-56 650,-56"/>
<text text-anchor="middle" x="730" y="-63" style="font-family:Arial;font-size:10.00;">ltr/crossvalidation/crossvalidator.h</text>
</a>
</g>
<!-- Node1&#45;&gt;Node7 -->
<g id="edge14" class="edge"><title>Node1&#45;&gt;Node7</title>
<path style="fill:none;stroke:midnightblue;" d="M730,-102C730,-93 730,-84 730,-76"/>
<polygon style="fill:midnightblue;stroke:midnightblue;" points="726.5,-102 730,-112 733.5,-102 726.5,-102"/>
</g>
<!-- Node9 -->
<g id="node18" class="node"><title>Node9</title>
<a xlink:href="k__fold__simple__splitter_8h.html" target="_top" xlink:title="ltr/crossvalidation/k_fold_simple_splitter.h">
<polygon style="fill:white;stroke:black;" points="828,-56 828,-76 1023,-76 1023,-56 828,-56"/>
<text text-anchor="middle" x="925" y="-63" style="font-family:Arial;font-size:10.00;">ltr/crossvalidation/k_fold_simple_splitter.h</text>
</a>
</g>
<!-- Node1&#45;&gt;Node9 -->
<g id="edge18" class="edge"><title>Node1&#45;&gt;Node9</title>
<path style="fill:none;stroke:midnightblue;" d="M775,-109C810,-99 858,-85 890,-76"/>
<polygon style="fill:midnightblue;stroke:midnightblue;" points="773.573,-105.774 765,-112 775.584,-112.479 773.573,-105.774"/>
</g>
<!-- Node10 -->
<g id="node21" class="node"><title>Node10</title>
<a xlink:href="k__fold__simple__splitter__unittest_8cc.html" target="_top" xlink:title="ltr/crossvalidation/k_fold_simple_splitter_unittest.cc">
<polygon style="fill:white;stroke:black;" points="886,-0 886,-20 1125,-20 1125,-0 886,-0"/>
<text text-anchor="middle" x="1005" y="-7" style="font-family:Arial;font-size:10.00;">ltr/crossvalidation/k_fold_simple_splitter_unittest.cc</text>
</a>
</g>
<!-- Node1&#45;&gt;Node10 -->
<g id="edge24" class="edge"><title>Node1&#45;&gt;Node10</title>
<path style="fill:none;stroke:midnightblue;" d="M806,-115C890,-107 1016,-92 1031,-76 1045,-59 1027,-34 1015,-20"/>
<polygon style="fill:midnightblue;stroke:midnightblue;" points="805.602,-111.522 796,-116 806.299,-118.488 805.602,-111.522"/>
</g>
<!-- Node11 -->
<g id="node25" class="node"><title>Node11</title>
<a xlink:href="tk__fold__simple__splitter_8h.html" target="_top" xlink:title="ltr/crossvalidation/tk_fold_simple_splitter.h">
<polygon style="fill:white;stroke:black;" points="1078,-56 1078,-76 1276,-76 1276,-56 1078,-56"/>
<text text-anchor="middle" x="1177" y="-63" style="font-family:Arial;font-size:10.00;">ltr/crossvalidation/tk_fold_simple_splitter.h</text>
</a>
</g>
<!-- Node1&#45;&gt;Node11 -->
<g id="edge28" class="edge"><title>Node1&#45;&gt;Node11</title>
<path style="fill:none;stroke:midnightblue;" d="M806,-113C887,-103 1015,-87 1097,-76"/>
<polygon style="fill:midnightblue;stroke:midnightblue;" points="805.602,-109.522 796,-114 806.299,-116.488 805.602,-109.522"/>
</g>
<!-- Node12 -->
<g id="node27" class="node"><title>Node12</title>
<a xlink:href="tk__fold__simple__splitter__unittest_8cc.html" target="_top" xlink:title="ltr/crossvalidation/tk_fold_simple_splitter_unittest.cc">
<polygon style="fill:white;stroke:black;" points="1178,-0 1178,-20 1420,-20 1420,-0 1178,-0"/>
<text text-anchor="middle" x="1299" y="-7" style="font-family:Arial;font-size:10.00;">ltr/crossvalidation/tk_fold_simple_splitter_unittest.cc</text>
</a>
</g>
<!-- Node1&#45;&gt;Node12 -->
<g id="edge32" class="edge"><title>Node1&#45;&gt;Node12</title>
<path style="fill:none;stroke:midnightblue;" d="M806,-121C950,-117 1250,-106 1285,-76 1300,-62 1301,-35 1300,-20"/>
<polygon style="fill:midnightblue;stroke:midnightblue;" points="806,-117.5 796,-121 806,-124.5 806,-117.5"/>
</g>
<!-- Node3 -->
<g id="node5" class="node"><title>Node3</title>
<a xlink:href="crossvalidation__unittest_8cc.html" target="_top" xlink:title="ltr/crossvalidation/crossvalidation_unittest.cc">
<polygon style="fill:white;stroke:black;" points="64,-0 64,-20 273,-20 273,-0 64,-0"/>
<text text-anchor="middle" x="168" y="-7" style="font-family:Arial;font-size:10.00;">ltr/crossvalidation/crossvalidation_unittest.cc</text>
</a>
</g>
<!-- Node2&#45;&gt;Node3 -->
<g id="edge4" class="edge"><title>Node2&#45;&gt;Node3</title>
<path style="fill:none;stroke:midnightblue;" d="M107,-50C122,-41 140,-28 153,-20"/>
<polygon style="fill:midnightblue;stroke:midnightblue;" points="104.379,-47.5408 98,-56 108.262,-53.3651 104.379,-47.5408"/>
</g>
<!-- Node5&#45;&gt;Node3 -->
<g id="edge10" class="edge"><title>Node5&#45;&gt;Node3</title>
<path style="fill:none;stroke:midnightblue;" d="M427,-54C367,-44 282,-29 226,-20"/>
<polygon style="fill:midnightblue;stroke:midnightblue;" points="426.508,-57.4708 437,-56 427.881,-50.6067 426.508,-57.4708"/>
</g>
<!-- Node5&#45;&gt;Node6 -->
<g id="edge12" class="edge"><title>Node5&#45;&gt;Node6</title>
<path style="fill:none;stroke:midnightblue;" d="M497,-46C498,-37 498,-28 498,-20"/>
<polygon style="fill:midnightblue;stroke:midnightblue;" points="493.512,-45.7013 496,-56 500.478,-46.3979 493.512,-45.7013"/>
</g>
<!-- Node8 -->
<g id="node16" class="node"><title>Node8</title>
<a xlink:href="crossvalidator__unittest_8cc.html" target="_top" xlink:title="ltr/crossvalidation/crossvalidator_unittest.cc">
<polygon style="fill:white;stroke:black;" points="646,-0 646,-20 850,-20 850,-0 646,-0"/>
<text text-anchor="middle" x="748" y="-7" style="font-family:Arial;font-size:10.00;">ltr/crossvalidation/crossvalidator_unittest.cc</text>
</a>
</g>
<!-- Node7&#45;&gt;Node8 -->
<g id="edge16" class="edge"><title>Node7&#45;&gt;Node8</title>
<path style="fill:none;stroke:midnightblue;" d="M736,-46C739,-38 742,-28 745,-20"/>
<polygon style="fill:midnightblue;stroke:midnightblue;" points="732.521,-45.416 733,-56 739.226,-47.4275 732.521,-45.416"/>
</g>
<!-- Node9&#45;&gt;Node8 -->
<g id="edge20" class="edge"><title>Node9&#45;&gt;Node8</title>
<path style="fill:none;stroke:midnightblue;" d="M883,-53C852,-43 809,-29 780,-20"/>
<polygon style="fill:midnightblue;stroke:midnightblue;" points="882.416,-56.4788 893,-56 884.427,-49.7741 882.416,-56.4788"/>
</g>
<!-- Node9&#45;&gt;Node10 -->
<g id="edge22" class="edge"><title>Node9&#45;&gt;Node10</title>
<path style="fill:none;stroke:midnightblue;" d="M947,-50C961,-40 979,-28 990,-20"/>
<polygon style="fill:midnightblue;stroke:midnightblue;" points="944.9,-47.2 939,-56 949.1,-52.8 944.9,-47.2"/>
</g>
<!-- Node11&#45;&gt;Node12 -->
<g id="edge30" class="edge"><title>Node11&#45;&gt;Node12</title>
<path style="fill:none;stroke:midnightblue;" d="M1208,-52C1230,-42 1258,-29 1277,-20"/>
<polygon style="fill:midnightblue;stroke:midnightblue;" points="1206.72,-48.7402 1199,-56 1209.56,-55.1369 1206.72,-48.7402"/>
</g>
</g>
</svg>
