<?xml version="1.0" encoding="UTF-8" standalone="no"?>
<!DOCTYPE svg PUBLIC "-//W3C//DTD SVG 1.0//EN"
 "http://www.w3.org/TR/2001/REC-SVG-20010904/DTD/svg10.dtd" [
 <!ATTLIST svg xmlns:xlink CDATA #FIXED "http://www.w3.org/1999/xlink">
]>
<!-- Generated by Graphviz version 2.20.2 (Tue Mar &#160;2 19:03:41 UTC 2010)
     For user: (jenkins)  -->
<!-- Title: G Pages: 1 -->
<svg width="400pt" height="84pt"
 viewBox="0.00 0.00 400.00 84.00" xmlns="http://www.w3.org/2000/svg" xmlns:xlink="http://www.w3.org/1999/xlink">
<g id="graph0" class="graph" transform="scale(1 1) rotate(0) translate(4 80)">
<title>G</title>
<polygon style="fill:white;stroke:white;" points="-4,4 -4,-80 396,-80 396,4 -4,4"/>
<!-- Node1 -->
<g id="node1" class="node"><title>Node1</title>
<polygon style="fill:#bfbfbf;stroke:black;" points="113,-56 113,-76 253,-76 253,-56 113,-56"/>
<text text-anchor="middle" x="183" y="-63" style="font-family:Arial;font-size:10.00;">ltr/measures/squared_error.h</text>
</g>
<!-- Node2 -->
<g id="node3" class="node"><title>Node2</title>
<a xlink:href="measure__unittest_8cc.html" target="_top" xlink:title="ltr/measures/measure_unittest.cc">
<polygon style="fill:white;stroke:black;" points="0,-0 0,-20 162,-20 162,-0 0,-0"/>
<text text-anchor="middle" x="81" y="-7" style="font-family:Arial;font-size:10.00;">ltr/measures/measure_unittest.cc</text>
</a>
</g>
<!-- Node1&#45;&gt;Node2 -->
<g id="edge2" class="edge"><title>Node1&#45;&gt;Node2</title>
<path style="fill:none;stroke:midnightblue;" d="M156,-51C138,-41 115,-29 99,-20"/>
<polygon style="fill:midnightblue;stroke:midnightblue;" points="154.559,-54.2031 165,-56 157.958,-48.084 154.559,-54.2031"/>
</g>
<!-- Node3 -->
<g id="node5" class="node"><title>Node3</title>
<a xlink:href="pointwise__measures__unittest_8cc.html" target="_top" xlink:title="ltr/measures/pointwise_measures_unittest.cc">
<polygon style="fill:white;stroke:black;" points="180,-0 180,-20 393,-20 393,-0 180,-0"/>
<text text-anchor="middle" x="286" y="-7" style="font-family:Arial;font-size:10.00;">ltr/measures/pointwise_measures_unittest.cc</text>
</a>
</g>
<!-- Node1&#45;&gt;Node3 -->
<g id="edge4" class="edge"><title>Node1&#45;&gt;Node3</title>
<path style="fill:none;stroke:midnightblue;" d="M210,-51C228,-41 252,-29 267,-20"/>
<polygon style="fill:midnightblue;stroke:midnightblue;" points="208.042,-48.084 201,-56 211.441,-54.2031 208.042,-48.084"/>
</g>
</g>
</svg>
