<?xml version="1.0" encoding="UTF-8" standalone="no"?>
<!DOCTYPE svg PUBLIC "-//W3C//DTD SVG 1.0//EN"
 "http://www.w3.org/TR/2001/REC-SVG-20010904/DTD/svg10.dtd" [
 <!ATTLIST svg xmlns:xlink CDATA #FIXED "http://www.w3.org/1999/xlink">
]>
<!-- Generated by Graphviz version 2.20.2 (Tue Mar &#160;2 19:03:41 UTC 2010)
     For user: (jenkins)  -->
<!-- Title: G Pages: 1 -->
<svg width="298pt" height="140pt"
 viewBox="0.00 0.00 298.00 140.00" xmlns="http://www.w3.org/2000/svg" xmlns:xlink="http://www.w3.org/1999/xlink">
<g id="graph0" class="graph" transform="scale(1 1) rotate(0) translate(4 136)">
<title>G</title>
<polygon style="fill:white;stroke:white;" points="-4,4 -4,-136 294,-136 294,4 -4,4"/>
<!-- Node1 -->
<g id="node1" class="node"><title>Node1</title>
<polygon style="fill:#bfbfbf;stroke:black;" points="69,-112 69,-132 222,-132 222,-112 69,-112"/>
<text text-anchor="middle" x="145" y="-119" style="font-family:Arial;font-size:10.00;">ltr/utility/statistics_calculation.h</text>
</g>
<!-- Node2 -->
<g id="node3" class="node"><title>Node2</title>
<a xlink:href="fisher__discriminant__density__learner_8h.html" target="_top" xlink:title="ltr/density_estimators/fisher_discriminant_density_learner.h">
<polygon style="fill:white;stroke:black;" points="9,-56 9,-76 282,-76 282,-56 9,-56"/>
<text text-anchor="middle" x="145" y="-63" style="font-family:Arial;font-size:10.00;">ltr/density_estimators/fisher_discriminant_density_learner.h</text>
</a>
</g>
<!-- Node1&#45;&gt;Node2 -->
<g id="edge2" class="edge"><title>Node1&#45;&gt;Node2</title>
<path style="fill:none;stroke:midnightblue;" d="M145,-102C145,-93 145,-84 145,-76"/>
<polygon style="fill:midnightblue;stroke:midnightblue;" points="141.5,-102 145,-112 148.5,-102 141.5,-102"/>
</g>
<!-- Node3 -->
<g id="node5" class="node"><title>Node3</title>
<a xlink:href="density__estimators__learners__unittests_8cc.html" target="_top" xlink:title="ltr/density_estimators/density_estimators_learners_unittests.cc">
<polygon style="fill:white;stroke:black;" points="0,-0 0,-20 291,-20 291,-0 0,-0"/>
<text text-anchor="middle" x="145" y="-7" style="font-family:Arial;font-size:10.00;">ltr/density_estimators/density_estimators_learners_unittests.cc</text>
</a>
</g>
<!-- Node2&#45;&gt;Node3 -->
<g id="edge4" class="edge"><title>Node2&#45;&gt;Node3</title>
<path style="fill:none;stroke:midnightblue;" d="M145,-46C145,-37 145,-28 145,-20"/>
<polygon style="fill:midnightblue;stroke:midnightblue;" points="141.5,-46 145,-56 148.5,-46 141.5,-46"/>
</g>
</g>
</svg>
