<?xml version="1.0" encoding="UTF-8" standalone="no"?>
<!DOCTYPE svg PUBLIC "-//W3C//DTD SVG 1.0//EN"
 "http://www.w3.org/TR/2001/REC-SVG-20010904/DTD/svg10.dtd" [
 <!ATTLIST svg xmlns:xlink CDATA #FIXED "http://www.w3.org/1999/xlink">
]>
<!-- Generated by Graphviz version 2.20.2 (Tue Mar &#160;2 19:03:41 UTC 2010)
     For user: (jenkins)  -->
<!-- Title: G Pages: 1 -->
<svg width="895pt" height="252pt"
 viewBox="0.00 0.00 895.00 252.00" xmlns="http://www.w3.org/2000/svg" xmlns:xlink="http://www.w3.org/1999/xlink">
<g id="graph0" class="graph" transform="scale(1 1) rotate(0) translate(4 248)">
<title>G</title>
<polygon style="fill:white;stroke:white;" points="-4,4 -4,-248 891,-248 891,4 -4,4"/>
<!-- Node1 -->
<g id="node1" class="node"><title>Node1</title>
<polygon style="fill:#bfbfbf;stroke:black;" points="508,-224 508,-244 661,-244 661,-224 508,-224"/>
<text text-anchor="middle" x="584" y="-231" style="font-family:Arial;font-size:10.00;">ltr/utility/statistics_calculation.h</text>
</g>
<!-- Node2 -->
<g id="node3" class="node"><title>Node2</title>
<a xlink:href="fisher__discriminant__density__learner_8h.html" target="_top" xlink:title="ltr/density_estimators/fisher_discriminant_density_learner.h">
<polygon style="fill:white;stroke:black;" points="0,-112 0,-132 273,-132 273,-112 0,-112"/>
<text text-anchor="middle" x="136" y="-119" style="font-family:Arial;font-size:10.00;">ltr/density_estimators/fisher_discriminant_density_learner.h</text>
</a>
</g>
<!-- Node1&#45;&gt;Node2 -->
<g id="edge2" class="edge"><title>Node1&#45;&gt;Node2</title>
<path style="fill:none;stroke:midnightblue;" d="M534,-221C445,-198 259,-152 177,-132"/>
<polygon style="fill:midnightblue;stroke:midnightblue;" points="533.416,-224.479 544,-224 535.427,-217.774 533.416,-224.479"/>
</g>
<!-- Node4 -->
<g id="node7" class="node"><title>Node4</title>
<a xlink:href="bayesian__learner_8h.html" target="_top" xlink:title="ltr/learners/bayesian_learner/bayesian_learner.h">
<polygon style="fill:white;stroke:black;" points="565,-56 565,-76 787,-76 787,-56 565,-56"/>
<text text-anchor="middle" x="676" y="-63" style="font-family:Arial;font-size:10.00;">ltr/learners/bayesian_learner/bayesian_learner.h</text>
</a>
</g>
<!-- Node1&#45;&gt;Node4 -->
<g id="edge32" class="edge"><title>Node1&#45;&gt;Node4</title>
<path style="fill:none;stroke:midnightblue;" d="M646,-222C725,-205 856,-171 883,-132 887,-124 888,-118 883,-112 869,-94 821,-83 774,-76"/>
<polygon style="fill:midnightblue;stroke:midnightblue;" points="645.119,-218.607 636,-224 646.492,-225.471 645.119,-218.607"/>
</g>
<!-- Node7 -->
<g id="node14" class="node"><title>Node7</title>
<a xlink:href="non__linear__discriminant__density__learner_8h.html" target="_top" xlink:title="ltr/density_estimators/non_linear_discriminant_density_learner.h">
<polygon style="fill:white;stroke:black;" points="437,-168 437,-188 731,-188 731,-168 437,-168"/>
<text text-anchor="middle" x="584" y="-175" style="font-family:Arial;font-size:10.00;">ltr/density_estimators/non_linear_discriminant_density_learner.h</text>
</a>
</g>
<!-- Node1&#45;&gt;Node7 -->
<g id="edge14" class="edge"><title>Node1&#45;&gt;Node7</title>
<path style="fill:none;stroke:midnightblue;" d="M584,-214C584,-205 584,-196 584,-188"/>
<polygon style="fill:midnightblue;stroke:midnightblue;" points="580.5,-214 584,-224 587.5,-214 580.5,-214"/>
</g>
<!-- Node8 -->
<g id="node16" class="node"><title>Node8</title>
<a xlink:href="quadratic__discriminant__density__learner_8h.html" target="_top" xlink:title="ltr/density_estimators/quadratic_discriminant_density_learner.h">
<polygon style="fill:white;stroke:black;" points="290,-112 290,-132 579,-132 579,-112 290,-112"/>
<text text-anchor="middle" x="434" y="-119" style="font-family:Arial;font-size:10.00;">ltr/density_estimators/quadratic_discriminant_density_learner.h</text>
</a>
</g>
<!-- Node1&#45;&gt;Node8 -->
<g id="edge28" class="edge"><title>Node1&#45;&gt;Node8</title>
<path style="fill:none;stroke:midnightblue;" d="M516,-222C479,-214 439,-203 428,-188 415,-171 423,-146 429,-132"/>
<polygon style="fill:midnightblue;stroke:midnightblue;" points="515.508,-225.471 526,-224 516.881,-218.607 515.508,-225.471"/>
</g>
<!-- Node9 -->
<g id="node20" class="node"><title>Node9</title>
<a xlink:href="normal__naive__bayes__density__learner_8h.html" target="_top" xlink:title="ltr/density_estimators/normal_naive_bayes_density_learner.h">
<polygon style="fill:white;stroke:black;" points="596,-112 596,-132 875,-132 875,-112 596,-112"/>
<text text-anchor="middle" x="735" y="-119" style="font-family:Arial;font-size:10.00;">ltr/density_estimators/normal_naive_bayes_density_learner.h</text>
</a>
</g>
<!-- Node1&#45;&gt;Node9 -->
<g id="edge30" class="edge"><title>Node1&#45;&gt;Node9</title>
<path style="fill:none;stroke:midnightblue;" d="M652,-222C689,-214 729,-203 740,-188 752,-171 745,-146 739,-132"/>
<polygon style="fill:midnightblue;stroke:midnightblue;" points="651.119,-218.607 642,-224 652.492,-225.471 651.119,-218.607"/>
</g>
<!-- Node3 -->
<g id="node5" class="node"><title>Node3</title>
<a xlink:href="density__estimators__learners__unittests_8cc.html" target="_top" xlink:title="ltr/density_estimators/density_estimators_learners_unittests.cc">
<polygon style="fill:white;stroke:black;" points="257,-56 257,-76 548,-76 548,-56 257,-56"/>
<text text-anchor="middle" x="402" y="-63" style="font-family:Arial;font-size:10.00;">ltr/density_estimators/density_estimators_learners_unittests.cc</text>
</a>
</g>
<!-- Node2&#45;&gt;Node3 -->
<g id="edge4" class="edge"><title>Node2&#45;&gt;Node3</title>
<path style="fill:none;stroke:midnightblue;" d="M194,-110C242,-100 309,-85 354,-76"/>
<polygon style="fill:midnightblue;stroke:midnightblue;" points="193.119,-106.607 184,-112 194.492,-113.471 193.119,-106.607"/>
</g>
<!-- Node2&#45;&gt;Node4 -->
<g id="edge6" class="edge"><title>Node2&#45;&gt;Node4</title>
<path style="fill:none;stroke:midnightblue;" d="M243,-111C341,-101 485,-86 580,-76"/>
<polygon style="fill:midnightblue;stroke:midnightblue;" points="242.602,-107.522 233,-112 243.299,-114.488 242.602,-107.522"/>
</g>
<!-- Node5 -->
<g id="node9" class="node"><title>Node5</title>
<a xlink:href="bayesian__learner__unittest_8cc.html" target="_top" xlink:title="ltr/learners/bayesian_learner/bayesian_learner_unittest.cc">
<polygon style="fill:white;stroke:black;" points="179,-0 179,-20 445,-20 445,-0 179,-0"/>
<text text-anchor="middle" x="312" y="-7" style="font-family:Arial;font-size:10.00;">ltr/learners/bayesian_learner/bayesian_learner_unittest.cc</text>
</a>
</g>
<!-- Node2&#45;&gt;Node5 -->
<g id="edge12" class="edge"><title>Node2&#45;&gt;Node5</title>
<path style="fill:none;stroke:midnightblue;" d="M160,-106C197,-83 265,-39 296,-20"/>
<polygon style="fill:midnightblue;stroke:midnightblue;" points="157.9,-103.2 152,-112 162.1,-108.8 157.9,-103.2"/>
</g>
<!-- Node4&#45;&gt;Node5 -->
<g id="edge8" class="edge"><title>Node4&#45;&gt;Node5</title>
<path style="fill:none;stroke:midnightblue;" d="M601,-54C535,-44 440,-30 377,-20"/>
<polygon style="fill:midnightblue;stroke:midnightblue;" points="600.508,-57.4708 611,-56 601.881,-50.6067 600.508,-57.4708"/>
</g>
<!-- Node6 -->
<g id="node11" class="node"><title>Node6</title>
<a xlink:href="generator_8cc.html" target="_top" xlink:title="ltr/serialization_test/generator/generator.cc">
<polygon style="fill:white;stroke:black;" points="576,-0 576,-20 777,-20 777,-0 576,-0"/>
<text text-anchor="middle" x="676" y="-7" style="font-family:Arial;font-size:10.00;">ltr/serialization_test/generator/generator.cc</text>
</a>
</g>
<!-- Node4&#45;&gt;Node6 -->
<g id="edge10" class="edge"><title>Node4&#45;&gt;Node6</title>
<path style="fill:none;stroke:midnightblue;" d="M676,-46C676,-37 676,-28 676,-20"/>
<polygon style="fill:midnightblue;stroke:midnightblue;" points="672.5,-46 676,-56 679.5,-46 672.5,-46"/>
</g>
<!-- Node7&#45;&gt;Node8 -->
<g id="edge16" class="edge"><title>Node7&#45;&gt;Node8</title>
<path style="fill:none;stroke:midnightblue;" d="M547,-164C521,-154 485,-141 461,-132"/>
<polygon style="fill:midnightblue;stroke:midnightblue;" points="546.415,-167.536 557,-168 549.015,-161.036 546.415,-167.536"/>
</g>
<!-- Node7&#45;&gt;Node9 -->
<g id="edge22" class="edge"><title>Node7&#45;&gt;Node9</title>
<path style="fill:none;stroke:midnightblue;" d="M621,-164C647,-154 683,-141 708,-132"/>
<polygon style="fill:midnightblue;stroke:midnightblue;" points="618.985,-161.036 611,-168 621.585,-167.536 618.985,-161.036"/>
</g>
<!-- Node8&#45;&gt;Node3 -->
<g id="edge18" class="edge"><title>Node8&#45;&gt;Node3</title>
<path style="fill:none;stroke:midnightblue;" d="M423,-103C418,-94 412,-84 408,-76"/>
<polygon style="fill:midnightblue;stroke:midnightblue;" points="420.084,-104.958 428,-112 426.203,-101.559 420.084,-104.958"/>
</g>
<!-- Node8&#45;&gt;Node4 -->
<g id="edge20" class="edge"><title>Node8&#45;&gt;Node4</title>
<path style="fill:none;stroke:midnightblue;" d="M487,-110C531,-100 592,-85 633,-76"/>
<polygon style="fill:midnightblue;stroke:midnightblue;" points="486.119,-106.607 477,-112 487.492,-113.471 486.119,-106.607"/>
</g>
<!-- Node9&#45;&gt;Node3 -->
<g id="edge24" class="edge"><title>Node9&#45;&gt;Node3</title>
<path style="fill:none;stroke:midnightblue;" d="M665,-110C605,-100 519,-85 461,-76"/>
<polygon style="fill:midnightblue;stroke:midnightblue;" points="664.508,-113.471 675,-112 665.881,-106.607 664.508,-113.471"/>
</g>
<!-- Node9&#45;&gt;Node4 -->
<g id="edge26" class="edge"><title>Node9&#45;&gt;Node4</title>
<path style="fill:none;stroke:midnightblue;" d="M716,-105C707,-96 695,-85 687,-76"/>
<polygon style="fill:midnightblue;stroke:midnightblue;" points="714.169,-108.049 724,-112 718.779,-102.781 714.169,-108.049"/>
</g>
</g>
</svg>
