<?xml version="1.0" encoding="UTF-8" standalone="no"?>
<!DOCTYPE svg PUBLIC "-//W3C//DTD SVG 1.0//EN"
 "http://www.w3.org/TR/2001/REC-SVG-20010904/DTD/svg10.dtd" [
 <!ATTLIST svg xmlns:xlink CDATA #FIXED "http://www.w3.org/1999/xlink">
]>
<!-- Generated by Graphviz version 2.20.2 (Tue Mar &#160;2 19:03:41 UTC 2010)
     For user: (jenkins)  -->
<!-- Title: G Pages: 1 -->
<svg width="1452pt" height="364pt"
 viewBox="0.00 0.00 1452.00 364.00" xmlns="http://www.w3.org/2000/svg" xmlns:xlink="http://www.w3.org/1999/xlink">
<g id="graph0" class="graph" transform="scale(1 1) rotate(0) translate(4 360)">
<title>G</title>
<polygon style="fill:white;stroke:white;" points="-4,4 -4,-360 1448,-360 1448,4 -4,4"/>
<!-- Node1 -->
<g id="node1" class="node"><title>Node1</title>
<polygon style="fill:#bfbfbf;stroke:black;" points="173,-336 173,-356 455,-356 455,-336 173,-336"/>
<text text-anchor="middle" x="314" y="-343" style="font-family:Arial;font-size:10.00;">ltr/learners/decision_tree/split_criteria/stop_splitting_criteria.h</text>
</g>
<!-- Node2 -->
<g id="node3" class="node"><title>Node2</title>
<a xlink:href="data__set_8h.html" target="_top" xlink:title="ltr/data/data_set.h">
<polygon style="fill:white;stroke:black;" points="527,-280 527,-300 622,-300 622,-280 527,-280"/>
<text text-anchor="middle" x="574" y="-287" style="font-family:Arial;font-size:10.00;">ltr/data/data_set.h</text>
</a>
</g>
<!-- Node1&#45;&gt;Node2 -->
<g id="edge2" class="edge"><title>Node1&#45;&gt;Node2</title>
<path style="fill:none;stroke:midnightblue;" d="M360,-336C404,-327 470,-312 517,-302"/>
<polygon style="fill:midnightblue;stroke:midnightblue;" points="517.881,-305.393 527,-300 516.508,-298.529 517.881,-305.393"/>
</g>
<!-- Node11 -->
<g id="node26" class="node"><title>Node11</title>
<a xlink:href="shared__ptr_8h.html" target="_top" xlink:title="ltr/utility/shared_ptr.h">
<polygon style="fill:white;stroke:black;" points="74,-56 74,-76 181,-76 181,-56 74,-56"/>
<text text-anchor="middle" x="127" y="-63" style="font-family:Arial;font-size:10.00;">ltr/utility/shared_ptr.h</text>
</a>
</g>
<!-- Node1&#45;&gt;Node11 -->
<g id="edge116" class="edge"><title>Node1&#45;&gt;Node11</title>
<path style="fill:none;stroke:midnightblue;" d="M268,-336C193,-318 54,-279 54,-234 54,-234 54,-234 54,-178 54,-139 85,-103 107,-83"/>
<polygon style="fill:midnightblue;stroke:midnightblue;" points="109.404,-85.546 114,-76 104.454,-80.5962 109.404,-85.546"/>
</g>
<!-- Node3 -->
<g id="node5" class="node"><title>Node3</title>
<polygon style="fill:white;stroke:#bfbfbf;" points="672,-224 672,-244 723,-244 723,-224 672,-224"/>
<text text-anchor="middle" x="697" y="-231" style="font-family:Arial;font-size:10.00;">sstream</text>
</g>
<!-- Node2&#45;&gt;Node3 -->
<g id="edge4" class="edge"><title>Node2&#45;&gt;Node3</title>
<path style="fill:none;stroke:midnightblue;" d="M596,-280C615,-271 643,-258 666,-248"/>
<polygon style="fill:midnightblue;stroke:midnightblue;" points="667.283,-251.26 675,-244 664.44,-244.863 667.283,-251.26"/>
</g>
<!-- Node4 -->
<g id="node7" class="node"><title>Node4</title>
<polygon style="fill:white;stroke:#bfbfbf;" points="730,-56 730,-76 789,-76 789,-56 730,-56"/>
<text text-anchor="middle" x="759" y="-63" style="font-family:Arial;font-size:10.00;">stdexcept</text>
</g>
<!-- Node2&#45;&gt;Node4 -->
<g id="edge6" class="edge"><title>Node2&#45;&gt;Node4</title>
<path style="fill:none;stroke:midnightblue;" d="M582,-280C612,-244 707,-128 745,-84"/>
<polygon style="fill:midnightblue;stroke:midnightblue;" points="747.8,-86.1 751,-76 742.2,-81.9 747.8,-86.1"/>
</g>
<!-- Node5 -->
<g id="node9" class="node"><title>Node5</title>
<polygon style="fill:white;stroke:#bfbfbf;" points="796,-0 796,-20 836,-20 836,-0 796,-0"/>
<text text-anchor="middle" x="816" y="-7" style="font-family:Arial;font-size:10.00;">string</text>
</g>
<!-- Node2&#45;&gt;Node5 -->
<g id="edge8" class="edge"><title>Node2&#45;&gt;Node5</title>
<path style="fill:none;stroke:midnightblue;" d="M622,-288C785,-279 1308,-247 1308,-178 1308,-178 1308,-178 1308,-122 1308,-88 1299,-74 1272,-56 1236,-32 942,-16 846,-11"/>
<polygon style="fill:midnightblue;stroke:midnightblue;" points="846,-7.5001 836,-11 846,-14.5001 846,-7.5001"/>
</g>
<!-- Node6 -->
<g id="node11" class="node"><title>Node6</title>
<polygon style="fill:white;stroke:#bfbfbf;" points="553,-56 553,-76 595,-76 595,-56 553,-56"/>
<text text-anchor="middle" x="574" y="-63" style="font-family:Arial;font-size:10.00;">vector</text>
</g>
<!-- Node2&#45;&gt;Node6 -->
<g id="edge10" class="edge"><title>Node2&#45;&gt;Node6</title>
<path style="fill:none;stroke:midnightblue;" d="M574,-280C574,-245 574,-133 574,-86"/>
<polygon style="fill:midnightblue;stroke:midnightblue;" points="577.5,-86 574,-76 570.5,-86 577.5,-86"/>
</g>
<!-- Node7 -->
<g id="node13" class="node"><title>Node7</title>
<a xlink:href="object_8h.html" target="_top" xlink:title="ltr/data/object.h">
<polygon style="fill:white;stroke:black;" points="348,-112 348,-132 432,-132 432,-112 348,-112"/>
<text text-anchor="middle" x="390" y="-119" style="font-family:Arial;font-size:10.00;">ltr/data/object.h</text>
</a>
</g>
<!-- Node2&#45;&gt;Node7 -->
<g id="edge12" class="edge"><title>Node2&#45;&gt;Node7</title>
<path style="fill:none;stroke:midnightblue;" d="M557,-280C529,-263 473,-228 435,-188 421,-173 409,-155 400,-141"/>
<polygon style="fill:midnightblue;stroke:midnightblue;" points="402.916,-139.042 395,-132 396.797,-142.441 402.916,-139.042"/>
</g>
<!-- Node15 -->
<g id="node34" class="node"><title>Node15</title>
<a xlink:href="object__list_8h.html" target="_top" xlink:title="ltr/data/object_list.h">
<polygon style="fill:white;stroke:black;" points="444,-168 444,-188 546,-188 546,-168 444,-168"/>
<text text-anchor="middle" x="495" y="-175" style="font-family:Arial;font-size:10.00;">ltr/data/object_list.h</text>
</a>
</g>
<!-- Node2&#45;&gt;Node15 -->
<g id="edge38" class="edge"><title>Node2&#45;&gt;Node15</title>
<path style="fill:none;stroke:midnightblue;" d="M567,-280C554,-260 525,-221 508,-196"/>
<polygon style="fill:midnightblue;stroke:midnightblue;" points="510.8,-193.9 502,-188 505.2,-198.1 510.8,-193.9"/>
</g>
<!-- Node16 -->
<g id="node42" class="node"><title>Node16</title>
<a xlink:href="object__pair_8h.html" target="_top" xlink:title="ltr/data/object_pair.h">
<polygon style="fill:white;stroke:black;" points="236,-168 236,-188 340,-188 340,-168 236,-168"/>
<text text-anchor="middle" x="288" y="-175" style="font-family:Arial;font-size:10.00;">ltr/data/object_pair.h</text>
</a>
</g>
<!-- Node2&#45;&gt;Node16 -->
<g id="edge52" class="edge"><title>Node2&#45;&gt;Node16</title>
<path style="fill:none;stroke:midnightblue;" d="M527,-289C456,-286 327,-276 296,-244 284,-232 283,-213 284,-198"/>
<polygon style="fill:midnightblue;stroke:midnightblue;" points="287.471,-198.492 286,-188 280.607,-197.119 287.471,-198.492"/>
</g>
<!-- Node17 -->
<g id="node50" class="node"><title>Node17</title>
<a xlink:href="feature__info_8h.html" target="_top" xlink:title="ltr/data/feature_info.h">
<polygon style="fill:white;stroke:black;" points="740,-224 740,-244 847,-244 847,-224 740,-224"/>
<text text-anchor="middle" x="793" y="-231" style="font-family:Arial;font-size:10.00;">ltr/data/feature_info.h</text>
</a>
</g>
<!-- Node2&#45;&gt;Node17 -->
<g id="edge66" class="edge"><title>Node2&#45;&gt;Node17</title>
<path style="fill:none;stroke:midnightblue;" d="M613,-280C650,-271 705,-256 744,-246"/>
<polygon style="fill:midnightblue;stroke:midnightblue;" points="744.881,-249.393 754,-244 743.508,-242.529 744.881,-249.393"/>
</g>
<!-- Node24 -->
<g id="node74" class="node"><title>Node24</title>
<a xlink:href="per__object__accessor_8h.html" target="_top" xlink:title="ltr/data/per_object_accessor.h">
<polygon style="fill:white;stroke:black;" points="305,-224 305,-244 452,-244 452,-224 305,-224"/>
<text text-anchor="middle" x="378" y="-231" style="font-family:Arial;font-size:10.00;">ltr/data/per_object_accessor.h</text>
</a>
</g>
<!-- Node2&#45;&gt;Node24 -->
<g id="edge100" class="edge"><title>Node2&#45;&gt;Node24</title>
<path style="fill:none;stroke:midnightblue;" d="M539,-280C507,-271 458,-257 423,-247"/>
<polygon style="fill:midnightblue;stroke:midnightblue;" points="423.584,-243.521 413,-244 421.573,-250.226 423.584,-243.521"/>
</g>
<!-- Node25 -->
<g id="node81" class="node"><title>Node25</title>
<a xlink:href="aliaser_8h.html" target="_top" xlink:title="ltr/interfaces/aliaser.h">
<polygon style="fill:white;stroke:black;" points="1336,-112 1336,-132 1444,-132 1444,-112 1336,-112"/>
<text text-anchor="middle" x="1390" y="-119" style="font-family:Arial;font-size:10.00;">ltr/interfaces/aliaser.h</text>
</a>
</g>
<!-- Node2&#45;&gt;Node25 -->
<g id="edge112" class="edge"><title>Node2&#45;&gt;Node25</title>
<path style="fill:none;stroke:midnightblue;" d="M622,-290C778,-288 1263,-281 1322,-244 1358,-220 1377,-170 1385,-142"/>
<polygon style="fill:midnightblue;stroke:midnightblue;" points="1388.48,-142.584 1388,-132 1381.77,-140.573 1388.48,-142.584"/>
</g>
<!-- Node7&#45;&gt;Node4 -->
<g id="edge18" class="edge"><title>Node7&#45;&gt;Node4</title>
<path style="fill:none;stroke:midnightblue;" d="M432,-118C493,-111 611,-98 720,-76"/>
<polygon style="fill:midnightblue;stroke:midnightblue;" points="720.881,-79.3933 730,-74 719.508,-72.5292 720.881,-79.3933"/>
</g>
<!-- Node7&#45;&gt;Node5 -->
<g id="edge20" class="edge"><title>Node7&#45;&gt;Node5</title>
<path style="fill:none;stroke:midnightblue;" d="M417,-112C441,-103 476,-90 506,-76 523,-68 525,-62 544,-56 629,-27 735,-16 786,-12"/>
<polygon style="fill:midnightblue;stroke:midnightblue;" points="786.398,-15.4778 796,-11 785.701,-8.5125 786.398,-15.4778"/>
</g>
<!-- Node7&#45;&gt;Node6 -->
<g id="edge22" class="edge"><title>Node7&#45;&gt;Node6</title>
<path style="fill:none;stroke:midnightblue;" d="M423,-112C457,-102 510,-85 543,-75"/>
<polygon style="fill:midnightblue;stroke:midnightblue;" points="544.427,-78.2259 553,-72 542.416,-71.5212 544.427,-78.2259"/>
</g>
<!-- Node8 -->
<g id="node15" class="node"><title>Node8</title>
<polygon style="fill:white;stroke:#bfbfbf;" points="678,-56 678,-76 713,-76 713,-56 678,-56"/>
<text text-anchor="middle" x="695" y="-63" style="font-family:Arial;font-size:10.00;">map</text>
</g>
<!-- Node7&#45;&gt;Node8 -->
<g id="edge14" class="edge"><title>Node7&#45;&gt;Node8</title>
<path style="fill:none;stroke:midnightblue;" d="M432,-114C496,-103 614,-81 668,-71"/>
<polygon style="fill:midnightblue;stroke:midnightblue;" points="668.881,-74.3933 678,-69 667.508,-67.5292 668.881,-74.3933"/>
</g>
<!-- Node9 -->
<g id="node17" class="node"><title>Node9</title>
<polygon style="fill:white;stroke:#bfbfbf;" points="410,-0 410,-20 461,-20 461,-0 410,-0"/>
<text text-anchor="middle" x="435" y="-7" style="font-family:Arial;font-size:10.00;">ostream</text>
</g>
<!-- Node7&#45;&gt;Node9 -->
<g id="edge16" class="edge"><title>Node7&#45;&gt;Node9</title>
<path style="fill:none;stroke:midnightblue;" d="M383,-112C374,-98 362,-74 372,-56 378,-43 390,-33 402,-25"/>
<polygon style="fill:midnightblue;stroke:midnightblue;" points="403.958,-27.916 411,-20 400.559,-21.7969 403.958,-27.916"/>
</g>
<!-- Node10 -->
<g id="node22" class="node"><title>Node10</title>
<a xlink:href="printable_8h.html" target="_top" xlink:title="ltr/interfaces/printable.h">
<polygon style="fill:white;stroke:black;" points="381,-56 381,-76 498,-76 498,-56 381,-56"/>
<text text-anchor="middle" x="439" y="-63" style="font-family:Arial;font-size:10.00;">ltr/interfaces/printable.h</text>
</a>
</g>
<!-- Node7&#45;&gt;Node10 -->
<g id="edge24" class="edge"><title>Node7&#45;&gt;Node10</title>
<path style="fill:none;stroke:midnightblue;" d="M399,-112C406,-104 416,-93 424,-84"/>
<polygon style="fill:midnightblue;stroke:midnightblue;" points="426.8,-86.1 430,-76 421.2,-81.9 426.8,-86.1"/>
</g>
<!-- Node7&#45;&gt;Node11 -->
<g id="edge30" class="edge"><title>Node7&#45;&gt;Node11</title>
<path style="fill:none;stroke:midnightblue;" d="M348,-113C303,-104 234,-89 184,-78"/>
<polygon style="fill:midnightblue;stroke:midnightblue;" points="184.492,-74.5292 174,-76 183.119,-81.3933 184.492,-74.5292"/>
</g>
<!-- Node10&#45;&gt;Node5 -->
<g id="edge28" class="edge"><title>Node10&#45;&gt;Node5</title>
<path style="fill:none;stroke:midnightblue;" d="M498,-57C579,-45 723,-23 786,-14"/>
<polygon style="fill:midnightblue;stroke:midnightblue;" points="786.398,-17.4778 796,-13 785.701,-10.5125 786.398,-17.4778"/>
</g>
<!-- Node10&#45;&gt;Node9 -->
<g id="edge26" class="edge"><title>Node10&#45;&gt;Node9</title>
<path style="fill:none;stroke:midnightblue;" d="M438,-56C437,-49 437,-39 436,-30"/>
<polygon style="fill:midnightblue;stroke:midnightblue;" points="439.5,-30 436,-20 432.5,-30 439.5,-30"/>
</g>
<!-- Node12 -->
<g id="node28" class="node"><title>Node12</title>
<polygon style="fill:white;stroke:#bfbfbf;" points="0,-0 0,-20 56,-20 56,-0 0,-0"/>
<text text-anchor="middle" x="28" y="-7" style="font-family:Arial;font-size:10.00;">algorithm</text>
</g>
<!-- Node11&#45;&gt;Node12 -->
<g id="edge32" class="edge"><title>Node11&#45;&gt;Node12</title>
<path style="fill:none;stroke:midnightblue;" d="M109,-56C94,-48 72,-35 55,-25"/>
<polygon style="fill:midnightblue;stroke:midnightblue;" points="56.4414,-21.7969 46,-20 53.0418,-27.916 56.4414,-21.7969"/>
</g>
<!-- Node13 -->
<g id="node30" class="node"><title>Node13</title>
<polygon style="fill:white;stroke:#bfbfbf;" points="74,-0 74,-20 181,-20 181,-0 74,-0"/>
<text text-anchor="middle" x="127" y="-7" style="font-family:Arial;font-size:10.00;">boost/shared_ptr.hpp</text>
</g>
<!-- Node11&#45;&gt;Node13 -->
<g id="edge34" class="edge"><title>Node11&#45;&gt;Node13</title>
<path style="fill:none;stroke:midnightblue;" d="M127,-56C127,-49 127,-39 127,-30"/>
<polygon style="fill:midnightblue;stroke:midnightblue;" points="130.5,-30 127,-20 123.5,-30 130.5,-30"/>
</g>
<!-- Node14 -->
<g id="node32" class="node"><title>Node14</title>
<polygon style="fill:white;stroke:#bfbfbf;" points="198,-0 198,-20 389,-20 389,-0 198,-0"/>
<text text-anchor="middle" x="293" y="-7" style="font-family:Arial;font-size:10.00;">boost/smart_ptr/detail/operator_bool.hpp</text>
</g>
<!-- Node11&#45;&gt;Node14 -->
<g id="edge36" class="edge"><title>Node11&#45;&gt;Node14</title>
<path style="fill:none;stroke:midnightblue;" d="M157,-56C184,-47 224,-33 253,-23"/>
<polygon style="fill:midnightblue;stroke:midnightblue;" points="254.427,-26.2259 263,-20 252.416,-19.5212 254.427,-26.2259"/>
</g>
<!-- Node15&#45;&gt;Node4 -->
<g id="edge40" class="edge"><title>Node15&#45;&gt;Node4</title>
<path style="fill:none;stroke:midnightblue;" d="M546,-168C581,-161 626,-149 664,-132 692,-119 720,-97 739,-83"/>
<polygon style="fill:midnightblue;stroke:midnightblue;" points="741.779,-85.2191 747,-76 737.169,-79.9511 741.779,-85.2191"/>
</g>
<!-- Node15&#45;&gt;Node5 -->
<g id="edge42" class="edge"><title>Node15&#45;&gt;Node5</title>
<path style="fill:none;stroke:midnightblue;" d="M506,-168C533,-145 602,-88 669,-56 707,-36 756,-23 786,-16"/>
<polygon style="fill:midnightblue;stroke:midnightblue;" points="786.881,-19.3933 796,-14 785.508,-12.5292 786.881,-19.3933"/>
</g>
<!-- Node15&#45;&gt;Node6 -->
<g id="edge44" class="edge"><title>Node15&#45;&gt;Node6</title>
<path style="fill:none;stroke:midnightblue;" d="M502,-168C515,-148 544,-109 561,-84"/>
<polygon style="fill:midnightblue;stroke:midnightblue;" points="563.8,-86.1 567,-76 558.2,-81.9 563.8,-86.1"/>
</g>
<!-- Node15&#45;&gt;Node7 -->
<g id="edge46" class="edge"><title>Node15&#45;&gt;Node7</title>
<path style="fill:none;stroke:midnightblue;" d="M476,-168C460,-159 436,-147 418,-137"/>
<polygon style="fill:midnightblue;stroke:midnightblue;" points="419.441,-133.797 409,-132 416.042,-139.916 419.441,-133.797"/>
</g>
<!-- Node15&#45;&gt;Node10 -->
<g id="edge48" class="edge"><title>Node15&#45;&gt;Node10</title>
<path style="fill:none;stroke:midnightblue;" d="M490,-168C480,-149 461,-109 449,-85"/>
<polygon style="fill:midnightblue;stroke:midnightblue;" points="451.916,-83.0418 444,-76 445.797,-86.4414 451.916,-83.0418"/>
</g>
<!-- Node15&#45;&gt;Node11 -->
<g id="edge50" class="edge"><title>Node15&#45;&gt;Node11</title>
<path style="fill:none;stroke:midnightblue;" d="M461,-168C429,-159 381,-144 339,-132 280,-113 211,-92 169,-79"/>
<polygon style="fill:midnightblue;stroke:midnightblue;" points="169.584,-75.5212 159,-76 167.573,-82.2259 169.584,-75.5212"/>
</g>
<!-- Node16&#45;&gt;Node4 -->
<g id="edge54" class="edge"><title>Node16&#45;&gt;Node4</title>
<path style="fill:none;stroke:midnightblue;" d="M332,-168C408,-150 572,-113 720,-75"/>
<polygon style="fill:midnightblue;stroke:midnightblue;" points="720.881,-78.3933 730,-73 719.508,-71.5292 720.881,-78.3933"/>
</g>
<!-- Node16&#45;&gt;Node5 -->
<g id="edge56" class="edge"><title>Node16&#45;&gt;Node5</title>
<path style="fill:none;stroke:midnightblue;" d="M285,-168C283,-154 279,-129 289,-112 310,-72 330,-71 372,-56 449,-28 699,-15 786,-11"/>
<polygon style="fill:midnightblue;stroke:midnightblue;" points="786,-14.5001 796,-11 786,-7.5001 786,-14.5001"/>
</g>
<!-- Node16&#45;&gt;Node6 -->
<g id="edge58" class="edge"><title>Node16&#45;&gt;Node6</title>
<path style="fill:none;stroke:midnightblue;" d="M293,-168C300,-153 317,-125 339,-112 356,-102 482,-81 543,-71"/>
<polygon style="fill:midnightblue;stroke:midnightblue;" points="543.881,-74.3933 553,-69 542.508,-67.5292 543.881,-74.3933"/>
</g>
<!-- Node16&#45;&gt;Node7 -->
<g id="edge60" class="edge"><title>Node16&#45;&gt;Node7</title>
<path style="fill:none;stroke:midnightblue;" d="M306,-168C322,-159 345,-147 363,-137"/>
<polygon style="fill:midnightblue;stroke:midnightblue;" points="364.958,-139.916 372,-132 361.559,-133.797 364.958,-139.916"/>
</g>
<!-- Node16&#45;&gt;Node10 -->
<g id="edge62" class="edge"><title>Node16&#45;&gt;Node10</title>
<path style="fill:none;stroke:midnightblue;" d="M288,-168C288,-153 291,-127 306,-112 323,-94 348,-83 371,-76"/>
<polygon style="fill:midnightblue;stroke:midnightblue;" points="372.427,-79.2259 381,-73 370.416,-72.5212 372.427,-79.2259"/>
</g>
<!-- Node16&#45;&gt;Node11 -->
<g id="edge64" class="edge"><title>Node16&#45;&gt;Node11</title>
<path style="fill:none;stroke:midnightblue;" d="M261,-168C241,-160 213,-147 192,-132 173,-118 154,-98 142,-84"/>
<polygon style="fill:midnightblue;stroke:midnightblue;" points="144.219,-81.221 135,-76 138.951,-85.8306 144.219,-81.221"/>
</g>
<!-- Node17&#45;&gt;Node5 -->
<g id="edge70" class="edge"><title>Node17&#45;&gt;Node5</title>
<path style="fill:none;stroke:midnightblue;" d="M847,-231C992,-223 1370,-188 1251,-56 1223,-25 940,-14 846,-11"/>
<polygon style="fill:midnightblue;stroke:midnightblue;" points="846,-7.5001 836,-11 846,-14.5001 846,-7.5001"/>
</g>
<!-- Node17&#45;&gt;Node6 -->
<g id="edge72" class="edge"><title>Node17&#45;&gt;Node6</title>
<path style="fill:none;stroke:midnightblue;" d="M778,-224C765,-215 745,-201 729,-188 680,-151 624,-106 595,-82"/>
<polygon style="fill:midnightblue;stroke:midnightblue;" points="597.1,-79.2 587,-76 592.9,-84.8 597.1,-79.2"/>
</g>
<!-- Node17&#45;&gt;Node8 -->
<g id="edge68" class="edge"><title>Node17&#45;&gt;Node8</title>
<path style="fill:none;stroke:midnightblue;" d="M780,-224C769,-215 754,-202 745,-188 722,-155 708,-111 701,-86"/>
<polygon style="fill:midnightblue;stroke:midnightblue;" points="704.226,-84.5725 698,-76 697.521,-86.584 704.226,-84.5725"/>
</g>
<!-- Node17&#45;&gt;Node11 -->
<g id="edge98" class="edge"><title>Node17&#45;&gt;Node11</title>
<path style="fill:none;stroke:midnightblue;" d="M740,-225C737,-225 734,-224 731,-224 619,-211 330,-232 227,-188 181,-168 150,-114 135,-85"/>
<polygon style="fill:midnightblue;stroke:midnightblue;" points="138.26,-83.7166 131,-76 131.863,-86.5596 138.26,-83.7166"/>
</g>
<!-- Node18 -->
<g id="node55" class="node"><title>Node18</title>
<a xlink:href="parameterized_8h.html" target="_top" xlink:title="ltr/interfaces/parameterized.h">
<polygon style="fill:white;stroke:black;" points="754,-168 754,-188 896,-188 896,-168 754,-168"/>
<text text-anchor="middle" x="825" y="-175" style="font-family:Arial;font-size:10.00;">ltr/interfaces/parameterized.h</text>
</a>
</g>
<!-- Node17&#45;&gt;Node18 -->
<g id="edge74" class="edge"><title>Node17&#45;&gt;Node18</title>
<path style="fill:none;stroke:midnightblue;" d="M799,-224C804,-217 809,-206 814,-197"/>
<polygon style="fill:midnightblue;stroke:midnightblue;" points="817.203,-198.441 819,-188 811.084,-195.042 817.203,-198.441"/>
</g>
<!-- Node18&#45;&gt;Node4 -->
<g id="edge76" class="edge"><title>Node18&#45;&gt;Node4</title>
<path style="fill:none;stroke:midnightblue;" d="M819,-168C808,-149 785,-109 770,-85"/>
<polygon style="fill:midnightblue;stroke:midnightblue;" points="772.916,-83.0418 765,-76 766.797,-86.4414 772.916,-83.0418"/>
</g>
<!-- Node18&#45;&gt;Node5 -->
<g id="edge78" class="edge"><title>Node18&#45;&gt;Node5</title>
<path style="fill:none;stroke:midnightblue;" d="M824,-168C823,-141 819,-67 817,-30"/>
<polygon style="fill:midnightblue;stroke:midnightblue;" points="820.5,-30 817,-20 813.5,-30 820.5,-30"/>
</g>
<!-- Node19 -->
<g id="node59" class="node"><title>Node19</title>
<a xlink:href="parameters__container_8h.html" target="_top" xlink:title="ltr/parameters_container/parameters_container.h">
<polygon style="fill:white;stroke:black;" points="868,-112 868,-132 1093,-132 1093,-112 868,-112"/>
<text text-anchor="middle" x="980" y="-119" style="font-family:Arial;font-size:10.00;">ltr/parameters_container/parameters_container.h</text>
</a>
</g>
<!-- Node18&#45;&gt;Node19 -->
<g id="edge80" class="edge"><title>Node18&#45;&gt;Node19</title>
<path style="fill:none;stroke:midnightblue;" d="M853,-168C878,-159 915,-145 942,-135"/>
<polygon style="fill:midnightblue;stroke:midnightblue;" points="943.427,-138.226 952,-132 941.416,-131.521 943.427,-138.226"/>
</g>
<!-- Node19&#45;&gt;Node4 -->
<g id="edge86" class="edge"><title>Node19&#45;&gt;Node4</title>
<path style="fill:none;stroke:midnightblue;" d="M940,-112C900,-102 839,-87 799,-76"/>
<polygon style="fill:midnightblue;stroke:midnightblue;" points="799.492,-72.5292 789,-74 798.119,-79.3933 799.492,-72.5292"/>
</g>
<!-- Node19&#45;&gt;Node5 -->
<g id="edge88" class="edge"><title>Node19&#45;&gt;Node5</title>
<path style="fill:none;stroke:midnightblue;" d="M947,-112C924,-104 895,-92 873,-76 855,-63 839,-43 828,-28"/>
<polygon style="fill:midnightblue;stroke:midnightblue;" points="830.8,-25.9 822,-20 825.2,-30.1 830.8,-25.9"/>
</g>
<!-- Node19&#45;&gt;Node10 -->
<g id="edge96" class="edge"><title>Node19&#45;&gt;Node10</title>
<path style="fill:none;stroke:midnightblue;" d="M883,-112C776,-101 604,-83 508,-73"/>
<polygon style="fill:midnightblue;stroke:midnightblue;" points="508.299,-69.5125 498,-72 507.602,-76.4778 508.299,-69.5125"/>
</g>
<!-- Node19&#45;&gt;Node11 -->
<g id="edge94" class="edge"><title>Node19&#45;&gt;Node11</title>
<path style="fill:none;stroke:midnightblue;" d="M868,-115C686,-102 336,-79 191,-71"/>
<polygon style="fill:midnightblue;stroke:midnightblue;" points="191.299,-67.5125 181,-70 190.602,-74.4778 191.299,-67.5125"/>
</g>
<!-- Node20 -->
<g id="node61" class="node"><title>Node20</title>
<polygon style="fill:white;stroke:#bfbfbf;" points="882,-56 882,-76 956,-76 956,-56 882,-56"/>
<text text-anchor="middle" x="919" y="-63" style="font-family:Arial;font-size:10.00;">logog/logog.h</text>
</g>
<!-- Node19&#45;&gt;Node20 -->
<g id="edge82" class="edge"><title>Node19&#45;&gt;Node20</title>
<path style="fill:none;stroke:midnightblue;" d="M969,-112C960,-104 948,-93 937,-83"/>
<polygon style="fill:midnightblue;stroke:midnightblue;" points="939.546,-80.5962 930,-76 934.596,-85.546 939.546,-80.5962"/>
</g>
<!-- Node21 -->
<g id="node63" class="node"><title>Node21</title>
<polygon style="fill:white;stroke:#bfbfbf;" points="974,-56 974,-76 1003,-76 1003,-56 974,-56"/>
<text text-anchor="middle" x="988" y="-63" style="font-family:Arial;font-size:10.00;">list</text>
</g>
<!-- Node19&#45;&gt;Node21 -->
<g id="edge84" class="edge"><title>Node19&#45;&gt;Node21</title>
<path style="fill:none;stroke:midnightblue;" d="M981,-112C982,-105 984,-95 985,-86"/>
<polygon style="fill:midnightblue;stroke:midnightblue;" points="988.471,-86.4922 987,-76 981.607,-85.1194 988.471,-86.4922"/>
</g>
<!-- Node22 -->
<g id="node67" class="node"><title>Node22</title>
<polygon style="fill:white;stroke:#bfbfbf;" points="1020,-56 1020,-76 1097,-76 1097,-56 1020,-56"/>
<text text-anchor="middle" x="1058" y="-63" style="font-family:Arial;font-size:10.00;">boost/any.hpp</text>
</g>
<!-- Node19&#45;&gt;Node22 -->
<g id="edge90" class="edge"><title>Node19&#45;&gt;Node22</title>
<path style="fill:none;stroke:midnightblue;" d="M994,-112C1005,-104 1022,-92 1036,-82"/>
<polygon style="fill:midnightblue;stroke:midnightblue;" points="1038.1,-84.8 1044,-76 1033.9,-79.2 1038.1,-84.8"/>
</g>
<!-- Node23 -->
<g id="node69" class="node"><title>Node23</title>
<polygon style="fill:white;stroke:#bfbfbf;" points="1114,-56 1114,-76 1243,-76 1243,-56 1114,-56"/>
<text text-anchor="middle" x="1178" y="-63" style="font-family:Arial;font-size:10.00;">boost/unordered_map.hpp</text>
</g>
<!-- Node19&#45;&gt;Node23 -->
<g id="edge92" class="edge"><title>Node19&#45;&gt;Node23</title>
<path style="fill:none;stroke:midnightblue;" d="M1015,-112C1048,-103 1097,-89 1132,-79"/>
<polygon style="fill:midnightblue;stroke:midnightblue;" points="1133.43,-82.2259 1142,-76 1131.42,-75.5212 1133.43,-82.2259"/>
</g>
<!-- Node24&#45;&gt;Node7 -->
<g id="edge102" class="edge"><title>Node24&#45;&gt;Node7</title>
<path style="fill:none;stroke:midnightblue;" d="M379,-224C381,-205 385,-166 388,-142"/>
<polygon style="fill:midnightblue;stroke:midnightblue;" points="391.488,-142.299 389,-132 384.522,-141.602 391.488,-142.299"/>
</g>
<!-- Node24&#45;&gt;Node11 -->
<g id="edge110" class="edge"><title>Node24&#45;&gt;Node11</title>
<path style="fill:none;stroke:midnightblue;" d="M305,-231C236,-227 140,-216 116,-188 92,-159 107,-112 118,-85"/>
<polygon style="fill:midnightblue;stroke:midnightblue;" points="121.137,-86.5596 122,-76 114.74,-83.7166 121.137,-86.5596"/>
</g>
<!-- Node24&#45;&gt;Node15 -->
<g id="edge106" class="edge"><title>Node24&#45;&gt;Node15</title>
<path style="fill:none;stroke:midnightblue;" d="M399,-224C417,-215 444,-202 465,-192"/>
<polygon style="fill:midnightblue;stroke:midnightblue;" points="466.283,-195.26 474,-188 463.44,-188.863 466.283,-195.26"/>
</g>
<!-- Node24&#45;&gt;Node16 -->
<g id="edge104" class="edge"><title>Node24&#45;&gt;Node16</title>
<path style="fill:none;stroke:midnightblue;" d="M362,-224C349,-216 329,-203 313,-193"/>
<polygon style="fill:midnightblue;stroke:midnightblue;" points="314.441,-189.797 304,-188 311.042,-195.916 314.441,-189.797"/>
</g>
<!-- Node24&#45;&gt;Node18 -->
<g id="edge108" class="edge"><title>Node24&#45;&gt;Node18</title>
<path style="fill:none;stroke:midnightblue;" d="M452,-225C533,-214 661,-198 744,-188"/>
<polygon style="fill:midnightblue;stroke:midnightblue;" points="744.398,-191.478 754,-187 743.701,-184.512 744.398,-191.478"/>
</g>
<!-- Node25&#45;&gt;Node5 -->
<g id="edge114" class="edge"><title>Node25&#45;&gt;Node5</title>
<path style="fill:none;stroke:midnightblue;" d="M1383,-112C1372,-97 1349,-68 1322,-56 1279,-36 949,-17 846,-12"/>
<polygon style="fill:midnightblue;stroke:midnightblue;" points="846.299,-8.5125 836,-11 845.602,-15.4778 846.299,-8.5125"/>
</g>
</g>
</svg>
