<?xml version="1.0" encoding="UTF-8" standalone="no"?>
<!DOCTYPE svg PUBLIC "-//W3C//DTD SVG 1.0//EN"
 "http://www.w3.org/TR/2001/REC-SVG-20010904/DTD/svg10.dtd" [
 <!ATTLIST svg xmlns:xlink CDATA #FIXED "http://www.w3.org/1999/xlink">
]>
<!-- Generated by Graphviz version 2.20.2 (Tue Mar &#160;2 19:03:41 UTC 2010)
     For user: (jenkins)  -->
<!-- Title: G Pages: 1 -->
<svg width="290pt" height="140pt"
 viewBox="0.00 0.00 290.00 140.00" xmlns="http://www.w3.org/2000/svg" xmlns:xlink="http://www.w3.org/1999/xlink">
<g id="graph0" class="graph" transform="scale(1 1) rotate(0) translate(4 136)">
<title>G</title>
<polygon style="fill:white;stroke:white;" points="-4,4 -4,-136 286,-136 286,4 -4,4"/>
<!-- Node1 -->
<g id="node1" class="node"><title>Node1</title>
<polygon style="fill:#bfbfbf;stroke:black;" points="0,-112 0,-132 282,-132 282,-112 0,-112"/>
<text text-anchor="middle" x="141" y="-119" style="font-family:Arial;font-size:10.00;">ltr/learners/decision_tree/split_criteria/stop_splitting_criteria.h</text>
</g>
<!-- Node2 -->
<g id="node3" class="node"><title>Node2</title>
<a xlink:href="decision__tree__learner_8h.html" target="_top" xlink:title="ltr/learners/decision_tree/decision_tree_learner.h">
<polygon style="fill:white;stroke:black;" points="29,-56 29,-76 254,-76 254,-56 29,-56"/>
<text text-anchor="middle" x="141" y="-63" style="font-family:Arial;font-size:10.00;">ltr/learners/decision_tree/decision_tree_learner.h</text>
</a>
</g>
<!-- Node1&#45;&gt;Node2 -->
<g id="edge2" class="edge"><title>Node1&#45;&gt;Node2</title>
<path style="fill:none;stroke:midnightblue;" d="M141,-102C141,-93 141,-84 141,-76"/>
<polygon style="fill:midnightblue;stroke:midnightblue;" points="137.5,-102 141,-112 144.5,-102 137.5,-102"/>
</g>
<!-- Node3 -->
<g id="node5" class="node"><title>Node3</title>
<a xlink:href="decision__tree__learner_8cc.html" target="_top" xlink:title="ltr/learners/decision_tree/decision_tree_learner.cc">
<polygon style="fill:white;stroke:black;" points="26,-0 26,-20 257,-20 257,-0 26,-0"/>
<text text-anchor="middle" x="141" y="-7" style="font-family:Arial;font-size:10.00;">ltr/learners/decision_tree/decision_tree_learner.cc</text>
</a>
</g>
<!-- Node2&#45;&gt;Node3 -->
<g id="edge4" class="edge"><title>Node2&#45;&gt;Node3</title>
<path style="fill:none;stroke:midnightblue;" d="M141,-46C141,-37 141,-28 141,-20"/>
<polygon style="fill:midnightblue;stroke:midnightblue;" points="137.5,-46 141,-56 144.5,-46 137.5,-46"/>
</g>
</g>
</svg>
