<?xml version="1.0" encoding="UTF-8" standalone="no"?>
<!DOCTYPE svg PUBLIC "-//W3C//DTD SVG 1.0//EN"
 "http://www.w3.org/TR/2001/REC-SVG-20010904/DTD/svg10.dtd" [
 <!ATTLIST svg xmlns:xlink CDATA #FIXED "http://www.w3.org/1999/xlink">
]>
<!-- Generated by Graphviz version 2.20.2 (Tue Mar &#160;2 19:03:41 UTC 2010)
     For user: (jenkins)  -->
<!-- Title: G Pages: 1 -->
<svg width="1796pt" height="140pt"
 viewBox="0.00 0.00 1796.00 140.00" xmlns="http://www.w3.org/2000/svg" xmlns:xlink="http://www.w3.org/1999/xlink">
<g id="graph0" class="graph" transform="scale(1 1) rotate(0) translate(4 136)">
<title>G</title>
<polygon style="fill:white;stroke:white;" points="-4,4 -4,-136 1792,-136 1792,4 -4,4"/>
<!-- Node1 -->
<g id="node1" class="node"><title>Node1</title>
<polygon style="fill:#bfbfbf;stroke:black;" points="502,-112 502,-132 766,-132 766,-112 502,-112"/>
<text text-anchor="middle" x="634" y="-119" style="font-family:Arial;font-size:10.00;">ltr/predictions_aggregators/sum_predictions_aggregator.h</text>
</g>
<!-- Node2 -->
<g id="node3" class="node"><title>Node2</title>
<a xlink:href="ada__boost__learner_8h.html" target="_top" xlink:title="ltr/learners/composition_learner/ada_boost_learner.h">
<polygon style="fill:white;stroke:black;" points="22,-56 22,-76 264,-76 264,-56 22,-56"/>
<text text-anchor="middle" x="143" y="-63" style="font-family:Arial;font-size:10.00;">ltr/learners/composition_learner/ada_boost_learner.h</text>
</a>
</g>
<!-- Node1&#45;&gt;Node2 -->
<g id="edge2" class="edge"><title>Node1&#45;&gt;Node2</title>
<path style="fill:none;stroke:midnightblue;" d="M536,-111C447,-101 317,-86 230,-76"/>
<polygon style="fill:midnightblue;stroke:midnightblue;" points="535.701,-114.488 546,-112 536.398,-107.522 535.701,-114.488"/>
</g>
<!-- Node3 -->
<g id="node5" class="node"><title>Node3</title>
<a xlink:href="linear__composition__unittest_8cc.html" target="_top" xlink:title="ltr/learners/composition_learner/linear_composition_unittest.cc">
<polygon style="fill:white;stroke:black;" points="0,-0 0,-20 287,-20 287,-0 0,-0"/>
<text text-anchor="middle" x="143" y="-7" style="font-family:Arial;font-size:10.00;">ltr/learners/composition_learner/linear_composition_unittest.cc</text>
</a>
</g>
<!-- Node1&#45;&gt;Node3 -->
<g id="edge16" class="edge"><title>Node1&#45;&gt;Node3</title>
<path style="fill:none;stroke:midnightblue;" d="M535,-111C476,-103 402,-91 338,-76 305,-68 216,-36 171,-20"/>
<polygon style="fill:midnightblue;stroke:midnightblue;" points="534.701,-114.488 545,-112 535.398,-107.522 534.701,-114.488"/>
</g>
<!-- Node4 -->
<g id="node7" class="node"><title>Node4</title>
<a xlink:href="composition__learner_8h.html" target="_top" xlink:title="ltr/learners/composition_learner/composition_learner.h">
<polygon style="fill:white;stroke:black;" points="358,-56 358,-76 607,-76 607,-56 358,-56"/>
<text text-anchor="middle" x="482" y="-63" style="font-family:Arial;font-size:10.00;">ltr/learners/composition_learner/composition_learner.h</text>
</a>
</g>
<!-- Node1&#45;&gt;Node4 -->
<g id="edge6" class="edge"><title>Node1&#45;&gt;Node4</title>
<path style="fill:none;stroke:midnightblue;" d="M597,-109C570,-99 534,-85 509,-76"/>
<polygon style="fill:midnightblue;stroke:midnightblue;" points="596.416,-112.479 607,-112 598.427,-105.774 596.416,-112.479"/>
</g>
<!-- Node5 -->
<g id="node9" class="node"><title>Node5</title>
<a xlink:href="composition__learner__unittest_8cc.html" target="_top" xlink:title="ltr/learners/composition_learner/composition_learner_unittest.cc">
<polygon style="fill:white;stroke:black;" points="304,-0 304,-20 597,-20 597,-0 304,-0"/>
<text text-anchor="middle" x="450" y="-7" style="font-family:Arial;font-size:10.00;">ltr/learners/composition_learner/composition_learner_unittest.cc</text>
</a>
</g>
<!-- Node1&#45;&gt;Node5 -->
<g id="edge14" class="edge"><title>Node1&#45;&gt;Node5</title>
<path style="fill:none;stroke:midnightblue;" d="M523,-111C448,-102 360,-89 349,-76 327,-50 372,-31 409,-20"/>
<polygon style="fill:midnightblue;stroke:midnightblue;" points="522.701,-114.488 533,-112 523.398,-107.522 522.701,-114.488"/>
</g>
<!-- Node6 -->
<g id="node12" class="node"><title>Node6</title>
<a xlink:href="generator_8cc.html" target="_top" xlink:title="ltr/serialization_test/generator/generator.cc">
<polygon style="fill:white;stroke:black;" points="614,-0 614,-20 815,-20 815,-0 614,-0"/>
<text text-anchor="middle" x="714" y="-7" style="font-family:Arial;font-size:10.00;">ltr/serialization_test/generator/generator.cc</text>
</a>
</g>
<!-- Node1&#45;&gt;Node6 -->
<g id="edge26" class="edge"><title>Node1&#45;&gt;Node6</title>
<path style="fill:none;stroke:midnightblue;" d="M636,-102C638,-88 644,-69 653,-56 664,-40 681,-28 695,-20"/>
<polygon style="fill:midnightblue;stroke:midnightblue;" points="632.512,-101.701 635,-112 639.478,-102.398 632.512,-101.701"/>
</g>
<!-- Node7 -->
<g id="node16" class="node"><title>Node7</title>
<a xlink:href="predictions__aggregators__unittest_8cc.html" target="_top" xlink:title="ltr/predictions_aggregators/predictions_aggregators_unittest.cc">
<polygon style="fill:white;stroke:black;" points="662,-56 662,-76 950,-76 950,-56 662,-56"/>
<text text-anchor="middle" x="806" y="-63" style="font-family:Arial;font-size:10.00;">ltr/predictions_aggregators/predictions_aggregators_unittest.cc</text>
</a>
</g>
<!-- Node1&#45;&gt;Node7 -->
<g id="edge18" class="edge"><title>Node1&#45;&gt;Node7</title>
<path style="fill:none;stroke:midnightblue;" d="M675,-109C705,-99 747,-85 775,-76"/>
<polygon style="fill:midnightblue;stroke:midnightblue;" points="673.573,-105.774 665,-112 675.584,-112.479 673.573,-105.774"/>
</g>
<!-- Node8 -->
<g id="node18" class="node"><title>Node8</title>
<a xlink:href="sum__predictions__aggregator_8cc.html" target="_top" xlink:title="ltr/predictions_aggregators/sum_predictions_aggregator.cc">
<polygon style="fill:white;stroke:black;" points="968,-56 968,-76 1237,-76 1237,-56 968,-56"/>
<text text-anchor="middle" x="1102" y="-63" style="font-family:Arial;font-size:10.00;">ltr/predictions_aggregators/sum_predictions_aggregator.cc</text>
</a>
</g>
<!-- Node1&#45;&gt;Node8 -->
<g id="edge20" class="edge"><title>Node1&#45;&gt;Node8</title>
<path style="fill:none;stroke:midnightblue;" d="M728,-111C813,-101 937,-86 1019,-76"/>
<polygon style="fill:midnightblue;stroke:midnightblue;" points="727.602,-107.522 718,-112 728.299,-114.488 727.602,-107.522"/>
</g>
<!-- Node9 -->
<g id="node20" class="node"><title>Node9</title>
<a xlink:href="composition__scorer__unittest_8cc.html" target="_top" xlink:title="ltr/scorers/composition_scorers/composition_scorer_unittest.cc">
<polygon style="fill:white;stroke:black;" points="1254,-56 1254,-76 1545,-76 1545,-56 1254,-56"/>
<text text-anchor="middle" x="1399" y="-63" style="font-family:Arial;font-size:10.00;">ltr/scorers/composition_scorers/composition_scorer_unittest.cc</text>
</a>
</g>
<!-- Node1&#45;&gt;Node9 -->
<g id="edge22" class="edge"><title>Node1&#45;&gt;Node9</title>
<path style="fill:none;stroke:midnightblue;" d="M776,-111C915,-101 1124,-86 1261,-76"/>
<polygon style="fill:midnightblue;stroke:midnightblue;" points="775.602,-107.522 766,-112 776.299,-114.488 775.602,-107.522"/>
</g>
<!-- Node10 -->
<g id="node22" class="node"><title>Node10</title>
<a xlink:href="linear__composition__scorer__unittest_8cc.html" target="_top" xlink:title="ltr/scorers/linear_composition_scorer_unittest.cc">
<polygon style="fill:white;stroke:black;" points="1562,-56 1562,-76 1789,-76 1789,-56 1562,-56"/>
<text text-anchor="middle" x="1675" y="-63" style="font-family:Arial;font-size:10.00;">ltr/scorers/linear_composition_scorer_unittest.cc</text>
</a>
</g>
<!-- Node1&#45;&gt;Node10 -->
<g id="edge24" class="edge"><title>Node1&#45;&gt;Node10</title>
<path style="fill:none;stroke:midnightblue;" d="M776,-117C957,-108 1278,-94 1553,-76 1556,-76 1559,-76 1562,-75"/>
<polygon style="fill:midnightblue;stroke:midnightblue;" points="776,-113.5 766,-117 776,-120.5 776,-113.5"/>
</g>
<!-- Node2&#45;&gt;Node3 -->
<g id="edge4" class="edge"><title>Node2&#45;&gt;Node3</title>
<path style="fill:none;stroke:midnightblue;" d="M143,-46C143,-37 143,-28 143,-20"/>
<polygon style="fill:midnightblue;stroke:midnightblue;" points="139.5,-46 143,-56 146.5,-46 139.5,-46"/>
</g>
<!-- Node4&#45;&gt;Node3 -->
<g id="edge10" class="edge"><title>Node4&#45;&gt;Node3</title>
<path style="fill:none;stroke:midnightblue;" d="M411,-54C350,-44 262,-29 203,-20"/>
<polygon style="fill:midnightblue;stroke:midnightblue;" points="410.508,-57.4708 421,-56 411.881,-50.6067 410.508,-57.4708"/>
</g>
<!-- Node4&#45;&gt;Node5 -->
<g id="edge8" class="edge"><title>Node4&#45;&gt;Node5</title>
<path style="fill:none;stroke:midnightblue;" d="M471,-47C466,-38 460,-28 456,-20"/>
<polygon style="fill:midnightblue;stroke:midnightblue;" points="468.084,-48.9582 476,-56 474.203,-45.5586 468.084,-48.9582"/>
</g>
<!-- Node4&#45;&gt;Node6 -->
<g id="edge12" class="edge"><title>Node4&#45;&gt;Node6</title>
<path style="fill:none;stroke:midnightblue;" d="M533,-54C575,-44 633,-29 672,-20"/>
<polygon style="fill:midnightblue;stroke:midnightblue;" points="532.119,-50.6067 523,-56 533.492,-57.4708 532.119,-50.6067"/>
</g>
</g>
</svg>
