<?xml version="1.0" encoding="UTF-8" standalone="no"?>
<!DOCTYPE svg PUBLIC "-//W3C//DTD SVG 1.0//EN"
 "http://www.w3.org/TR/2001/REC-SVG-20010904/DTD/svg10.dtd" [
 <!ATTLIST svg xmlns:xlink CDATA #FIXED "http://www.w3.org/1999/xlink">
]>
<!-- Generated by Graphviz version 2.20.2 (Tue Mar &#160;2 19:03:41 UTC 2010)
     For user: (jenkins)  -->
<!-- Title: G Pages: 1 -->
<svg width="482pt" height="140pt"
 viewBox="0.00 0.00 482.00 140.00" xmlns="http://www.w3.org/2000/svg" xmlns:xlink="http://www.w3.org/1999/xlink">
<g id="graph0" class="graph" transform="scale(1 1) rotate(0) translate(4 136)">
<title>G</title>
<polygon style="fill:white;stroke:white;" points="-4,4 -4,-136 478,-136 478,4 -4,4"/>
<!-- Node1 -->
<g id="node1" class="node"><title>Node1</title>
<polygon style="fill:#bfbfbf;stroke:black;" points="0,-112 0,-132 198,-132 198,-112 0,-112"/>
<text text-anchor="middle" x="99" y="-119" style="font-family:Arial;font-size:10.00;">ltr/serialization_test/tester/tester_utility.cc</text>
</g>
<!-- Node2 -->
<g id="node3" class="node"><title>Node2</title>
<polygon style="fill:white;stroke:#bfbfbf;" points="12,-56 12,-76 55,-76 55,-56 12,-56"/>
<text text-anchor="middle" x="33" y="-63" style="font-family:Arial;font-size:10.00;">cmath</text>
</g>
<!-- Node1&#45;&gt;Node2 -->
<g id="edge2" class="edge"><title>Node1&#45;&gt;Node2</title>
<path style="fill:none;stroke:midnightblue;" d="M87,-112C77,-104 64,-93 53,-83"/>
<polygon style="fill:midnightblue;stroke:midnightblue;" points="54.8306,-79.9511 45,-76 50.221,-85.2191 54.8306,-79.9511"/>
</g>
<!-- Node3 -->
<g id="node5" class="node"><title>Node3</title>
<polygon style="fill:white;stroke:#bfbfbf;" points="72,-56 72,-76 126,-76 126,-56 72,-56"/>
<text text-anchor="middle" x="99" y="-63" style="font-family:Arial;font-size:10.00;">iostream</text>
</g>
<!-- Node1&#45;&gt;Node3 -->
<g id="edge4" class="edge"><title>Node1&#45;&gt;Node3</title>
<path style="fill:none;stroke:midnightblue;" d="M99,-112C99,-105 99,-95 99,-86"/>
<polygon style="fill:midnightblue;stroke:midnightblue;" points="102.5,-86 99,-76 95.5001,-86 102.5,-86"/>
</g>
<!-- Node4 -->
<g id="node7" class="node"><title>Node4</title>
<a xlink:href="tester__utility_8h.html" target="_top" xlink:title="ltr/serialization_test/tester/tester_utility.h">
<polygon style="fill:white;stroke:black;" points="144,-56 144,-76 336,-76 336,-56 144,-56"/>
<text text-anchor="middle" x="240" y="-63" style="font-family:Arial;font-size:10.00;">ltr/serialization_test/tester/tester_utility.h</text>
</a>
</g>
<!-- Node1&#45;&gt;Node4 -->
<g id="edge6" class="edge"><title>Node1&#45;&gt;Node4</title>
<path style="fill:none;stroke:midnightblue;" d="M124,-112C147,-103 180,-90 205,-80"/>
<polygon style="fill:midnightblue;stroke:midnightblue;" points="207.015,-82.9636 215,-76 204.415,-76.4643 207.015,-82.9636"/>
</g>
<!-- Node5 -->
<g id="node9" class="node"><title>Node5</title>
<polygon style="fill:white;stroke:#bfbfbf;" points="92,-0 92,-20 143,-20 143,-0 92,-0"/>
<text text-anchor="middle" x="117" y="-7" style="font-family:Arial;font-size:10.00;">ostream</text>
</g>
<!-- Node4&#45;&gt;Node5 -->
<g id="edge8" class="edge"><title>Node4&#45;&gt;Node5</title>
<path style="fill:none;stroke:midnightblue;" d="M218,-56C199,-47 171,-34 148,-24"/>
<polygon style="fill:midnightblue;stroke:midnightblue;" points="149.56,-20.8631 139,-20 146.717,-27.2598 149.56,-20.8631"/>
</g>
<!-- Node6 -->
<g id="node11" class="node"><title>Node6</title>
<polygon style="fill:white;stroke:#bfbfbf;" points="160,-0 160,-20 202,-20 202,-0 160,-0"/>
<text text-anchor="middle" x="181" y="-7" style="font-family:Arial;font-size:10.00;">vector</text>
</g>
<!-- Node4&#45;&gt;Node6 -->
<g id="edge10" class="edge"><title>Node4&#45;&gt;Node6</title>
<path style="fill:none;stroke:midnightblue;" d="M229,-56C220,-48 209,-37 199,-27"/>
<polygon style="fill:midnightblue;stroke:midnightblue;" points="201.546,-24.5962 192,-20 196.596,-29.546 201.546,-24.5962"/>
</g>
<!-- Node7 -->
<g id="node13" class="node"><title>Node7</title>
<polygon style="fill:white;stroke:#bfbfbf;" points="220,-0 220,-20 260,-20 260,-0 220,-0"/>
<text text-anchor="middle" x="240" y="-7" style="font-family:Arial;font-size:10.00;">string</text>
</g>
<!-- Node4&#45;&gt;Node7 -->
<g id="edge12" class="edge"><title>Node4&#45;&gt;Node7</title>
<path style="fill:none;stroke:midnightblue;" d="M240,-56C240,-49 240,-39 240,-30"/>
<polygon style="fill:midnightblue;stroke:midnightblue;" points="243.5,-30 240,-20 236.5,-30 243.5,-30"/>
</g>
<!-- Node8 -->
<g id="node15" class="node"><title>Node8</title>
<polygon style="fill:white;stroke:#bfbfbf;" points="278,-0 278,-20 373,-20 373,-0 278,-0"/>
<text text-anchor="middle" x="325" y="-7" style="font-family:Arial;font-size:10.00;">ltr/data/data_set.h</text>
</g>
<!-- Node4&#45;&gt;Node8 -->
<g id="edge14" class="edge"><title>Node4&#45;&gt;Node8</title>
<path style="fill:none;stroke:midnightblue;" d="M255,-56C268,-48 286,-35 301,-26"/>
<polygon style="fill:midnightblue;stroke:midnightblue;" points="303.621,-28.4592 310,-20 299.738,-22.6349 303.621,-28.4592"/>
</g>
<!-- Node9 -->
<g id="node17" class="node"><title>Node9</title>
<polygon style="fill:white;stroke:#bfbfbf;" points="390,-0 390,-20 474,-20 474,-0 390,-0"/>
<text text-anchor="middle" x="432" y="-7" style="font-family:Arial;font-size:10.00;">ltr/data/object.h</text>
</g>
<!-- Node4&#45;&gt;Node9 -->
<g id="edge16" class="edge"><title>Node4&#45;&gt;Node9</title>
<path style="fill:none;stroke:midnightblue;" d="M274,-56C306,-47 353,-33 388,-23"/>
<polygon style="fill:midnightblue;stroke:midnightblue;" points="389.427,-26.2259 398,-20 387.416,-19.5212 389.427,-26.2259"/>
</g>
</g>
</svg>
