<?xml version="1.0" encoding="UTF-8" standalone="no"?>
<!DOCTYPE svg PUBLIC "-//W3C//DTD SVG 1.0//EN"
 "http://www.w3.org/TR/2001/REC-SVG-20010904/DTD/svg10.dtd" [
 <!ATTLIST svg xmlns:xlink CDATA #FIXED "http://www.w3.org/1999/xlink">
]>
<!-- Generated by Graphviz version 2.20.2 (Tue Mar &#160;2 19:03:41 UTC 2010)
     For user: (jenkins)  -->
<!-- Title: G Pages: 1 -->
<svg width="1434pt" height="364pt"
 viewBox="0.00 0.00 1434.00 364.00" xmlns="http://www.w3.org/2000/svg" xmlns:xlink="http://www.w3.org/1999/xlink">
<g id="graph0" class="graph" transform="scale(1 1) rotate(0) translate(4 360)">
<title>G</title>
<polygon style="fill:white;stroke:white;" points="-4,4 -4,-360 1430,-360 1430,4 -4,4"/>
<!-- Node1 -->
<g id="node1" class="node"><title>Node1</title>
<polygon style="fill:#bfbfbf;stroke:black;" points="0,-336 0,-356 192,-356 192,-336 0,-336"/>
<text text-anchor="middle" x="96" y="-343" style="font-family:Arial;font-size:10.00;">ltr/serialization_test/tester/tester_utility.h</text>
</g>
<!-- Node2 -->
<g id="node3" class="node"><title>Node2</title>
<polygon style="fill:white;stroke:#bfbfbf;" points="207,-0 207,-20 258,-20 258,-0 207,-0"/>
<text text-anchor="middle" x="232" y="-7" style="font-family:Arial;font-size:10.00;">ostream</text>
</g>
<!-- Node1&#45;&gt;Node2 -->
<g id="edge2" class="edge"><title>Node1&#45;&gt;Node2</title>
<path style="fill:none;stroke:midnightblue;" d="M83,-336C61,-318 20,-278 20,-234 20,-234 20,-234 20,-122 20,-43 137,-20 197,-13"/>
<polygon style="fill:midnightblue;stroke:midnightblue;" points="197.398,-16.4778 207,-12 196.701,-9.5125 197.398,-16.4778"/>
</g>
<!-- Node3 -->
<g id="node5" class="node"><title>Node3</title>
<polygon style="fill:white;stroke:#bfbfbf;" points="156,-56 156,-76 198,-76 198,-56 156,-56"/>
<text text-anchor="middle" x="177" y="-63" style="font-family:Arial;font-size:10.00;">vector</text>
</g>
<!-- Node1&#45;&gt;Node3 -->
<g id="edge4" class="edge"><title>Node1&#45;&gt;Node3</title>
<path style="fill:none;stroke:midnightblue;" d="M90,-336C79,-317 58,-273 58,-234 58,-234 58,-234 58,-178 58,-130 111,-95 147,-78"/>
<polygon style="fill:midnightblue;stroke:midnightblue;" points="148.283,-81.2598 156,-74 145.44,-74.8631 148.283,-81.2598"/>
</g>
<!-- Node4 -->
<g id="node7" class="node"><title>Node4</title>
<polygon style="fill:white;stroke:#bfbfbf;" points="1100,-0 1100,-20 1140,-20 1140,-0 1100,-0"/>
<text text-anchor="middle" x="1120" y="-7" style="font-family:Arial;font-size:10.00;">string</text>
</g>
<!-- Node1&#45;&gt;Node4 -->
<g id="edge6" class="edge"><title>Node1&#45;&gt;Node4</title>
<path style="fill:none;stroke:midnightblue;" d="M192,-343C498,-333 1426,-296 1426,-234 1426,-234 1426,-234 1426,-122 1426,-63 1227,-26 1150,-15"/>
<polygon style="fill:midnightblue;stroke:midnightblue;" points="1150.49,-11.5292 1140,-13 1149.12,-18.3933 1150.49,-11.5292"/>
</g>
<!-- Node5 -->
<g id="node9" class="node"><title>Node5</title>
<a xlink:href="data__set_8h.html" target="_top" xlink:title="ltr/data/data_set.h">
<polygon style="fill:white;stroke:black;" points="533,-280 533,-300 628,-300 628,-280 533,-280"/>
<text text-anchor="middle" x="580" y="-287" style="font-family:Arial;font-size:10.00;">ltr/data/data_set.h</text>
</a>
</g>
<!-- Node1&#45;&gt;Node5 -->
<g id="edge8" class="edge"><title>Node1&#45;&gt;Node5</title>
<path style="fill:none;stroke:midnightblue;" d="M183,-336C281,-324 439,-307 523,-296"/>
<polygon style="fill:midnightblue;stroke:midnightblue;" points="523.398,-299.478 533,-295 522.701,-292.512 523.398,-299.478"/>
</g>
<!-- Node8 -->
<g id="node17" class="node"><title>Node8</title>
<a xlink:href="object_8h.html" target="_top" xlink:title="ltr/data/object.h">
<polygon style="fill:white;stroke:black;" points="314,-112 314,-132 398,-132 398,-112 314,-112"/>
<text text-anchor="middle" x="356" y="-119" style="font-family:Arial;font-size:10.00;">ltr/data/object.h</text>
</a>
</g>
<!-- Node1&#45;&gt;Node8 -->
<g id="edge122" class="edge"><title>Node1&#45;&gt;Node8</title>
<path style="fill:none;stroke:midnightblue;" d="M108,-336C150,-300 286,-182 336,-139"/>
<polygon style="fill:midnightblue;stroke:midnightblue;" points="338.779,-141.219 344,-132 334.169,-135.951 338.779,-141.219"/>
</g>
<!-- Node5&#45;&gt;Node3 -->
<g id="edge16" class="edge"><title>Node5&#45;&gt;Node3</title>
<path style="fill:none;stroke:midnightblue;" d="M533,-287C485,-283 411,-272 353,-244 284,-210 273,-189 222,-132 209,-117 197,-99 188,-85"/>
<polygon style="fill:midnightblue;stroke:midnightblue;" points="190.916,-83.0418 183,-76 184.797,-86.4414 190.916,-83.0418"/>
</g>
<!-- Node5&#45;&gt;Node4 -->
<g id="edge14" class="edge"><title>Node5&#45;&gt;Node4</title>
<path style="fill:none;stroke:midnightblue;" d="M628,-287C784,-277 1262,-242 1262,-178 1262,-178 1262,-178 1262,-122 1262,-65 1191,-32 1150,-18"/>
<polygon style="fill:midnightblue;stroke:midnightblue;" points="1150.58,-14.5212 1140,-15 1148.57,-21.2259 1150.58,-14.5212"/>
</g>
<!-- Node6 -->
<g id="node11" class="node"><title>Node6</title>
<polygon style="fill:white;stroke:#bfbfbf;" points="555,-224 555,-244 606,-244 606,-224 555,-224"/>
<text text-anchor="middle" x="580" y="-231" style="font-family:Arial;font-size:10.00;">sstream</text>
</g>
<!-- Node5&#45;&gt;Node6 -->
<g id="edge10" class="edge"><title>Node5&#45;&gt;Node6</title>
<path style="fill:none;stroke:midnightblue;" d="M580,-280C580,-273 580,-263 580,-254"/>
<polygon style="fill:midnightblue;stroke:midnightblue;" points="583.5,-254 580,-244 576.5,-254 583.5,-254"/>
</g>
<!-- Node7 -->
<g id="node13" class="node"><title>Node7</title>
<polygon style="fill:white;stroke:#bfbfbf;" points="684,-56 684,-76 743,-76 743,-56 684,-56"/>
<text text-anchor="middle" x="713" y="-63" style="font-family:Arial;font-size:10.00;">stdexcept</text>
</g>
<!-- Node5&#45;&gt;Node7 -->
<g id="edge12" class="edge"><title>Node5&#45;&gt;Node7</title>
<path style="fill:none;stroke:midnightblue;" d="M628,-285C680,-279 758,-267 776,-244 793,-221 834,-262 758,-112 753,-101 743,-91 735,-83"/>
<polygon style="fill:midnightblue;stroke:midnightblue;" points="736.831,-79.9511 727,-76 732.221,-85.2191 736.831,-79.9511"/>
</g>
<!-- Node5&#45;&gt;Node8 -->
<g id="edge18" class="edge"><title>Node5&#45;&gt;Node8</title>
<path style="fill:none;stroke:midnightblue;" d="M533,-285C479,-278 395,-265 372,-244 343,-219 346,-170 351,-142"/>
<polygon style="fill:midnightblue;stroke:midnightblue;" points="354.471,-142.492 353,-132 347.607,-141.119 354.471,-142.492"/>
</g>
<!-- Node15 -->
<g id="node37" class="node"><title>Node15</title>
<a xlink:href="object__list_8h.html" target="_top" xlink:title="ltr/data/object_list.h">
<polygon style="fill:white;stroke:black;" points="534,-168 534,-188 636,-188 636,-168 534,-168"/>
<text text-anchor="middle" x="585" y="-175" style="font-family:Arial;font-size:10.00;">ltr/data/object_list.h</text>
</a>
</g>
<!-- Node5&#45;&gt;Node15 -->
<g id="edge44" class="edge"><title>Node5&#45;&gt;Node15</title>
<path style="fill:none;stroke:midnightblue;" d="M591,-280C599,-271 609,-258 614,-244 620,-227 611,-209 601,-196"/>
<polygon style="fill:midnightblue;stroke:midnightblue;" points="603.8,-193.9 595,-188 598.2,-198.1 603.8,-193.9"/>
</g>
<!-- Node16 -->
<g id="node45" class="node"><title>Node16</title>
<a xlink:href="object__pair_8h.html" target="_top" xlink:title="ltr/data/object_pair.h">
<polygon style="fill:white;stroke:black;" points="374,-168 374,-188 478,-188 478,-168 374,-168"/>
<text text-anchor="middle" x="426" y="-175" style="font-family:Arial;font-size:10.00;">ltr/data/object_pair.h</text>
</a>
</g>
<!-- Node5&#45;&gt;Node16 -->
<g id="edge58" class="edge"><title>Node5&#45;&gt;Node16</title>
<path style="fill:none;stroke:midnightblue;" d="M533,-286C480,-280 400,-267 382,-244 369,-228 386,-208 403,-194"/>
<polygon style="fill:midnightblue;stroke:midnightblue;" points="405.1,-196.8 411,-188 400.9,-191.2 405.1,-196.8"/>
</g>
<!-- Node17 -->
<g id="node53" class="node"><title>Node17</title>
<a xlink:href="feature__info_8h.html" target="_top" xlink:title="ltr/data/feature_info.h">
<polygon style="fill:white;stroke:black;" points="661,-224 661,-244 768,-244 768,-224 661,-224"/>
<text text-anchor="middle" x="714" y="-231" style="font-family:Arial;font-size:10.00;">ltr/data/feature_info.h</text>
</a>
</g>
<!-- Node5&#45;&gt;Node17 -->
<g id="edge72" class="edge"><title>Node5&#45;&gt;Node17</title>
<path style="fill:none;stroke:midnightblue;" d="M604,-280C625,-271 656,-258 680,-248"/>
<polygon style="fill:midnightblue;stroke:midnightblue;" points="682.015,-250.964 690,-244 679.415,-244.464 682.015,-250.964"/>
</g>
<!-- Node24 -->
<g id="node77" class="node"><title>Node24</title>
<a xlink:href="per__object__accessor_8h.html" target="_top" xlink:title="ltr/data/per_object_accessor.h">
<polygon style="fill:white;stroke:black;" points="391,-224 391,-244 538,-244 538,-224 391,-224"/>
<text text-anchor="middle" x="464" y="-231" style="font-family:Arial;font-size:10.00;">ltr/data/per_object_accessor.h</text>
</a>
</g>
<!-- Node5&#45;&gt;Node24 -->
<g id="edge106" class="edge"><title>Node5&#45;&gt;Node24</title>
<path style="fill:none;stroke:midnightblue;" d="M559,-280C541,-271 515,-258 494,-248"/>
<polygon style="fill:midnightblue;stroke:midnightblue;" points="495.56,-244.863 485,-244 492.717,-251.26 495.56,-244.863"/>
</g>
<!-- Node25 -->
<g id="node84" class="node"><title>Node25</title>
<a xlink:href="aliaser_8h.html" target="_top" xlink:title="ltr/interfaces/aliaser.h">
<polygon style="fill:white;stroke:black;" points="1290,-112 1290,-132 1398,-132 1398,-112 1290,-112"/>
<text text-anchor="middle" x="1344" y="-119" style="font-family:Arial;font-size:10.00;">ltr/interfaces/aliaser.h</text>
</a>
</g>
<!-- Node5&#45;&gt;Node25 -->
<g id="edge118" class="edge"><title>Node5&#45;&gt;Node25</title>
<path style="fill:none;stroke:midnightblue;" d="M628,-289C777,-287 1221,-278 1276,-244 1312,-220 1331,-170 1339,-142"/>
<polygon style="fill:midnightblue;stroke:midnightblue;" points="1342.48,-142.584 1342,-132 1335.77,-140.573 1342.48,-142.584"/>
</g>
<!-- Node8&#45;&gt;Node2 -->
<g id="edge22" class="edge"><title>Node8&#45;&gt;Node2</title>
<path style="fill:none;stroke:midnightblue;" d="M318,-112C297,-105 272,-93 256,-76 244,-63 238,-45 235,-30"/>
<polygon style="fill:midnightblue;stroke:midnightblue;" points="238.393,-29.1194 233,-20 231.529,-30.4922 238.393,-29.1194"/>
</g>
<!-- Node8&#45;&gt;Node3 -->
<g id="edge28" class="edge"><title>Node8&#45;&gt;Node3</title>
<path style="fill:none;stroke:midnightblue;" d="M324,-112C292,-102 240,-86 208,-76"/>
<polygon style="fill:midnightblue;stroke:midnightblue;" points="208.584,-72.5212 198,-73 206.573,-79.2259 208.584,-72.5212"/>
</g>
<!-- Node8&#45;&gt;Node4 -->
<g id="edge26" class="edge"><title>Node8&#45;&gt;Node4</title>
<path style="fill:none;stroke:midnightblue;" d="M333,-112C306,-99 270,-76 289,-56 303,-41 942,-16 1090,-11"/>
<polygon style="fill:midnightblue;stroke:midnightblue;" points="1090,-14.5001 1100,-11 1090,-7.5001 1090,-14.5001"/>
</g>
<!-- Node8&#45;&gt;Node7 -->
<g id="edge24" class="edge"><title>Node8&#45;&gt;Node7</title>
<path style="fill:none;stroke:midnightblue;" d="M398,-115C467,-105 606,-83 674,-73"/>
<polygon style="fill:midnightblue;stroke:midnightblue;" points="674.881,-76.3933 684,-71 673.508,-69.5292 674.881,-76.3933"/>
</g>
<!-- Node9 -->
<g id="node19" class="node"><title>Node9</title>
<polygon style="fill:white;stroke:#bfbfbf;" points="432,-56 432,-76 467,-76 467,-56 432,-56"/>
<text text-anchor="middle" x="449" y="-63" style="font-family:Arial;font-size:10.00;">map</text>
</g>
<!-- Node8&#45;&gt;Node9 -->
<g id="edge20" class="edge"><title>Node8&#45;&gt;Node9</title>
<path style="fill:none;stroke:midnightblue;" d="M373,-112C386,-104 407,-91 423,-81"/>
<polygon style="fill:midnightblue;stroke:midnightblue;" points="424.958,-83.916 432,-76 421.559,-77.7969 424.958,-83.916"/>
</g>
<!-- Node10 -->
<g id="node25" class="node"><title>Node10</title>
<a xlink:href="printable_8h.html" target="_top" xlink:title="ltr/interfaces/printable.h">
<polygon style="fill:white;stroke:black;" points="298,-56 298,-76 415,-76 415,-56 298,-56"/>
<text text-anchor="middle" x="356" y="-63" style="font-family:Arial;font-size:10.00;">ltr/interfaces/printable.h</text>
</a>
</g>
<!-- Node8&#45;&gt;Node10 -->
<g id="edge30" class="edge"><title>Node8&#45;&gt;Node10</title>
<path style="fill:none;stroke:midnightblue;" d="M356,-112C356,-105 356,-95 356,-86"/>
<polygon style="fill:midnightblue;stroke:midnightblue;" points="359.5,-86 356,-76 352.5,-86 359.5,-86"/>
</g>
<!-- Node11 -->
<g id="node29" class="node"><title>Node11</title>
<a xlink:href="shared__ptr_8h.html" target="_top" xlink:title="ltr/utility/shared_ptr.h">
<polygon style="fill:white;stroke:black;" points="484,-56 484,-76 591,-76 591,-56 484,-56"/>
<text text-anchor="middle" x="537" y="-63" style="font-family:Arial;font-size:10.00;">ltr/utility/shared_ptr.h</text>
</a>
</g>
<!-- Node8&#45;&gt;Node11 -->
<g id="edge36" class="edge"><title>Node8&#45;&gt;Node11</title>
<path style="fill:none;stroke:midnightblue;" d="M388,-112C418,-103 462,-89 494,-79"/>
<polygon style="fill:midnightblue;stroke:midnightblue;" points="495.427,-82.2259 504,-76 493.416,-75.5212 495.427,-82.2259"/>
</g>
<!-- Node10&#45;&gt;Node2 -->
<g id="edge32" class="edge"><title>Node10&#45;&gt;Node2</title>
<path style="fill:none;stroke:midnightblue;" d="M334,-56C314,-47 286,-34 263,-24"/>
<polygon style="fill:midnightblue;stroke:midnightblue;" points="264.56,-20.8631 254,-20 261.717,-27.2598 264.56,-20.8631"/>
</g>
<!-- Node10&#45;&gt;Node4 -->
<g id="edge34" class="edge"><title>Node10&#45;&gt;Node4</title>
<path style="fill:none;stroke:midnightblue;" d="M415,-57C418,-57 420,-56 423,-56 679,-28 993,-15 1090,-11"/>
<polygon style="fill:midnightblue;stroke:midnightblue;" points="1090,-14.5001 1100,-11 1090,-7.5001 1090,-14.5001"/>
</g>
<!-- Node12 -->
<g id="node31" class="node"><title>Node12</title>
<polygon style="fill:white;stroke:#bfbfbf;" points="410,-0 410,-20 466,-20 466,-0 410,-0"/>
<text text-anchor="middle" x="438" y="-7" style="font-family:Arial;font-size:10.00;">algorithm</text>
</g>
<!-- Node11&#45;&gt;Node12 -->
<g id="edge38" class="edge"><title>Node11&#45;&gt;Node12</title>
<path style="fill:none;stroke:midnightblue;" d="M519,-56C504,-48 482,-35 465,-25"/>
<polygon style="fill:midnightblue;stroke:midnightblue;" points="466.441,-21.7969 456,-20 463.042,-27.916 466.441,-21.7969"/>
</g>
<!-- Node13 -->
<g id="node33" class="node"><title>Node13</title>
<polygon style="fill:white;stroke:#bfbfbf;" points="484,-0 484,-20 591,-20 591,-0 484,-0"/>
<text text-anchor="middle" x="537" y="-7" style="font-family:Arial;font-size:10.00;">boost/shared_ptr.hpp</text>
</g>
<!-- Node11&#45;&gt;Node13 -->
<g id="edge40" class="edge"><title>Node11&#45;&gt;Node13</title>
<path style="fill:none;stroke:midnightblue;" d="M537,-56C537,-49 537,-39 537,-30"/>
<polygon style="fill:midnightblue;stroke:midnightblue;" points="540.5,-30 537,-20 533.5,-30 540.5,-30"/>
</g>
<!-- Node14 -->
<g id="node35" class="node"><title>Node14</title>
<polygon style="fill:white;stroke:#bfbfbf;" points="608,-0 608,-20 799,-20 799,-0 608,-0"/>
<text text-anchor="middle" x="703" y="-7" style="font-family:Arial;font-size:10.00;">boost/smart_ptr/detail/operator_bool.hpp</text>
</g>
<!-- Node11&#45;&gt;Node14 -->
<g id="edge42" class="edge"><title>Node11&#45;&gt;Node14</title>
<path style="fill:none;stroke:midnightblue;" d="M567,-56C594,-47 634,-33 663,-23"/>
<polygon style="fill:midnightblue;stroke:midnightblue;" points="664.427,-26.2259 673,-20 662.416,-19.5212 664.427,-26.2259"/>
</g>
<!-- Node15&#45;&gt;Node3 -->
<g id="edge50" class="edge"><title>Node15&#45;&gt;Node3</title>
<path style="fill:none;stroke:midnightblue;" d="M534,-172C465,-163 346,-147 305,-132 288,-126 287,-120 272,-112 251,-100 226,-88 207,-79"/>
<polygon style="fill:midnightblue;stroke:midnightblue;" points="208.56,-75.8631 198,-75 205.717,-82.2598 208.56,-75.8631"/>
</g>
<!-- Node15&#45;&gt;Node4 -->
<g id="edge48" class="edge"><title>Node15&#45;&gt;Node4</title>
<path style="fill:none;stroke:midnightblue;" d="M591,-168C607,-141 651,-69 675,-56 711,-35 996,-17 1090,-12"/>
<polygon style="fill:midnightblue;stroke:midnightblue;" points="1090.4,-15.4778 1100,-11 1089.7,-8.5125 1090.4,-15.4778"/>
</g>
<!-- Node15&#45;&gt;Node7 -->
<g id="edge46" class="edge"><title>Node15&#45;&gt;Node7</title>
<path style="fill:none;stroke:midnightblue;" d="M636,-170C677,-162 730,-149 744,-132 755,-117 743,-98 731,-84"/>
<polygon style="fill:midnightblue;stroke:midnightblue;" points="733.219,-81.221 724,-76 727.951,-85.8306 733.219,-81.221"/>
</g>
<!-- Node15&#45;&gt;Node8 -->
<g id="edge52" class="edge"><title>Node15&#45;&gt;Node8</title>
<path style="fill:none;stroke:midnightblue;" d="M544,-168C505,-159 448,-144 407,-134"/>
<polygon style="fill:midnightblue;stroke:midnightblue;" points="407.492,-130.529 397,-132 406.119,-137.393 407.492,-130.529"/>
</g>
<!-- Node15&#45;&gt;Node10 -->
<g id="edge54" class="edge"><title>Node15&#45;&gt;Node10</title>
<path style="fill:none;stroke:midnightblue;" d="M563,-168C544,-158 513,-144 488,-132 452,-114 412,-94 385,-81"/>
<polygon style="fill:midnightblue;stroke:midnightblue;" points="386.441,-77.7969 376,-76 383.042,-83.916 386.441,-77.7969"/>
</g>
<!-- Node15&#45;&gt;Node11 -->
<g id="edge56" class="edge"><title>Node15&#45;&gt;Node11</title>
<path style="fill:none;stroke:midnightblue;" d="M589,-168C594,-154 600,-130 592,-112 586,-99 575,-89 564,-82"/>
<polygon style="fill:midnightblue;stroke:midnightblue;" points="566.1,-79.2 556,-76 561.9,-84.8 566.1,-79.2"/>
</g>
<!-- Node16&#45;&gt;Node3 -->
<g id="edge64" class="edge"><title>Node16&#45;&gt;Node3</title>
<path style="fill:none;stroke:midnightblue;" d="M393,-168C366,-159 327,-146 295,-132 261,-117 225,-96 202,-81"/>
<polygon style="fill:midnightblue;stroke:midnightblue;" points="203.441,-77.7969 193,-76 200.042,-83.916 203.441,-77.7969"/>
</g>
<!-- Node16&#45;&gt;Node4 -->
<g id="edge62" class="edge"><title>Node16&#45;&gt;Node4</title>
<path style="fill:none;stroke:midnightblue;" d="M442,-168C485,-141 603,-69 647,-56 730,-29 999,-15 1090,-11"/>
<polygon style="fill:midnightblue;stroke:midnightblue;" points="1090,-14.5001 1100,-11 1090,-7.5001 1090,-14.5001"/>
</g>
<!-- Node16&#45;&gt;Node7 -->
<g id="edge60" class="edge"><title>Node16&#45;&gt;Node7</title>
<path style="fill:none;stroke:midnightblue;" d="M454,-168C480,-159 520,-145 554,-132 598,-115 648,-93 681,-80"/>
<polygon style="fill:midnightblue;stroke:midnightblue;" points="682.283,-83.2598 690,-76 679.44,-76.8631 682.283,-83.2598"/>
</g>
<!-- Node16&#45;&gt;Node8 -->
<g id="edge66" class="edge"><title>Node16&#45;&gt;Node8</title>
<path style="fill:none;stroke:midnightblue;" d="M413,-168C403,-160 389,-149 377,-139"/>
<polygon style="fill:midnightblue;stroke:midnightblue;" points="378.831,-135.951 369,-132 374.221,-141.219 378.831,-135.951"/>
</g>
<!-- Node16&#45;&gt;Node10 -->
<g id="edge68" class="edge"><title>Node16&#45;&gt;Node10</title>
<path style="fill:none;stroke:midnightblue;" d="M386,-168C355,-159 314,-146 305,-132 292,-114 311,-95 330,-82"/>
<polygon style="fill:midnightblue;stroke:midnightblue;" points="332.1,-84.8 338,-76 327.9,-79.2 332.1,-84.8"/>
</g>
<!-- Node16&#45;&gt;Node11 -->
<g id="edge70" class="edge"><title>Node16&#45;&gt;Node11</title>
<path style="fill:none;stroke:midnightblue;" d="M436,-168C456,-148 497,-107 520,-83"/>
<polygon style="fill:midnightblue;stroke:midnightblue;" points="522.404,-85.546 527,-76 517.454,-80.5962 522.404,-85.546"/>
</g>
<!-- Node17&#45;&gt;Node3 -->
<g id="edge78" class="edge"><title>Node17&#45;&gt;Node3</title>
<path style="fill:none;stroke:midnightblue;" d="M661,-228C570,-217 392,-196 365,-188 311,-171 299,-162 253,-132 231,-118 209,-98 194,-83"/>
<polygon style="fill:midnightblue;stroke:midnightblue;" points="196.546,-80.5962 187,-76 191.596,-85.546 196.546,-80.5962"/>
</g>
<!-- Node17&#45;&gt;Node4 -->
<g id="edge76" class="edge"><title>Node17&#45;&gt;Node4</title>
<path style="fill:none;stroke:midnightblue;" d="M768,-228C823,-221 911,-208 985,-188 1052,-169 1074,-171 1131,-132 1163,-109 1197,-92 1180,-56 1174,-42 1161,-32 1149,-24"/>
<polygon style="fill:midnightblue;stroke:midnightblue;" points="1150.44,-20.7969 1140,-19 1147.04,-26.916 1150.44,-20.7969"/>
</g>
<!-- Node17&#45;&gt;Node9 -->
<g id="edge74" class="edge"><title>Node17&#45;&gt;Node9</title>
<path style="fill:none;stroke:midnightblue;" d="M705,-224C693,-210 669,-185 645,-168 589,-127 516,-94 476,-77"/>
<polygon style="fill:midnightblue;stroke:midnightblue;" points="477.56,-73.8631 467,-73 474.717,-80.2598 477.56,-73.8631"/>
</g>
<!-- Node17&#45;&gt;Node11 -->
<g id="edge104" class="edge"><title>Node17&#45;&gt;Node11</title>
<path style="fill:none;stroke:midnightblue;" d="M710,-224C704,-210 692,-185 678,-168 646,-130 597,-98 566,-81"/>
<polygon style="fill:midnightblue;stroke:midnightblue;" points="567.441,-77.7969 557,-76 564.042,-83.916 567.441,-77.7969"/>
</g>
<!-- Node18 -->
<g id="node58" class="node"><title>Node18</title>
<a xlink:href="parameterized_8h.html" target="_top" xlink:title="ltr/interfaces/parameterized.h">
<polygon style="fill:white;stroke:black;" points="834,-168 834,-188 976,-188 976,-168 834,-168"/>
<text text-anchor="middle" x="905" y="-175" style="font-family:Arial;font-size:10.00;">ltr/interfaces/parameterized.h</text>
</a>
</g>
<!-- Node17&#45;&gt;Node18 -->
<g id="edge80" class="edge"><title>Node17&#45;&gt;Node18</title>
<path style="fill:none;stroke:midnightblue;" d="M748,-224C780,-215 827,-201 861,-191"/>
<polygon style="fill:midnightblue;stroke:midnightblue;" points="862.427,-194.226 871,-188 860.416,-187.521 862.427,-194.226"/>
</g>
<!-- Node18&#45;&gt;Node4 -->
<g id="edge84" class="edge"><title>Node18&#45;&gt;Node4</title>
<path style="fill:none;stroke:midnightblue;" d="M976,-171C1016,-164 1065,-153 1105,-132 1137,-114 1151,-109 1167,-76 1175,-57 1159,-39 1144,-26"/>
<polygon style="fill:midnightblue;stroke:midnightblue;" points="1146.1,-23.2 1136,-20 1141.9,-28.8 1146.1,-23.2"/>
</g>
<!-- Node18&#45;&gt;Node7 -->
<g id="edge82" class="edge"><title>Node18&#45;&gt;Node7</title>
<path style="fill:none;stroke:midnightblue;" d="M894,-168C878,-154 849,-129 820,-112 798,-99 772,-88 751,-80"/>
<polygon style="fill:midnightblue;stroke:midnightblue;" points="752.56,-76.8631 742,-76 749.717,-83.2598 752.56,-76.8631"/>
</g>
<!-- Node19 -->
<g id="node62" class="node"><title>Node19</title>
<a xlink:href="parameters__container_8h.html" target="_top" xlink:title="ltr/parameters_container/parameters_container.h">
<polygon style="fill:white;stroke:black;" points="872,-112 872,-132 1097,-132 1097,-112 872,-112"/>
<text text-anchor="middle" x="984" y="-119" style="font-family:Arial;font-size:10.00;">ltr/parameters_container/parameters_container.h</text>
</a>
</g>
<!-- Node18&#45;&gt;Node19 -->
<g id="edge86" class="edge"><title>Node18&#45;&gt;Node19</title>
<path style="fill:none;stroke:midnightblue;" d="M919,-168C931,-160 948,-147 962,-138"/>
<polygon style="fill:midnightblue;stroke:midnightblue;" points="964.1,-140.8 970,-132 959.9,-135.2 964.1,-140.8"/>
</g>
<!-- Node19&#45;&gt;Node4 -->
<g id="edge94" class="edge"><title>Node19&#45;&gt;Node4</title>
<path style="fill:none;stroke:midnightblue;" d="M997,-112C1020,-92 1071,-51 1099,-27"/>
<polygon style="fill:midnightblue;stroke:midnightblue;" points="1101.78,-29.2191 1107,-20 1097.17,-23.9511 1101.78,-29.2191"/>
</g>
<!-- Node19&#45;&gt;Node7 -->
<g id="edge92" class="edge"><title>Node19&#45;&gt;Node7</title>
<path style="fill:none;stroke:midnightblue;" d="M929,-112C883,-103 818,-91 753,-76"/>
<polygon style="fill:midnightblue;stroke:midnightblue;" points="753.492,-72.5292 743,-74 752.119,-79.3933 753.492,-72.5292"/>
</g>
<!-- Node19&#45;&gt;Node10 -->
<g id="edge102" class="edge"><title>Node19&#45;&gt;Node10</title>
<path style="fill:none;stroke:midnightblue;" d="M872,-115C760,-107 585,-95 425,-76"/>
<polygon style="fill:midnightblue;stroke:midnightblue;" points="425.299,-72.5125 415,-75 424.602,-79.4778 425.299,-72.5125"/>
</g>
<!-- Node19&#45;&gt;Node11 -->
<g id="edge100" class="edge"><title>Node19&#45;&gt;Node11</title>
<path style="fill:none;stroke:midnightblue;" d="M904,-112C818,-101 681,-84 601,-74"/>
<polygon style="fill:midnightblue;stroke:midnightblue;" points="601.299,-70.5125 591,-73 600.602,-77.4778 601.299,-70.5125"/>
</g>
<!-- Node20 -->
<g id="node64" class="node"><title>Node20</title>
<polygon style="fill:white;stroke:#bfbfbf;" points="906,-56 906,-76 980,-76 980,-56 906,-56"/>
<text text-anchor="middle" x="943" y="-63" style="font-family:Arial;font-size:10.00;">logog/logog.h</text>
</g>
<!-- Node19&#45;&gt;Node20 -->
<g id="edge88" class="edge"><title>Node19&#45;&gt;Node20</title>
<path style="fill:none;stroke:midnightblue;" d="M977,-112C972,-104 963,-94 957,-84"/>
<polygon style="fill:midnightblue;stroke:midnightblue;" points="959.8,-81.9 951,-76 954.2,-86.1 959.8,-81.9"/>
</g>
<!-- Node21 -->
<g id="node66" class="node"><title>Node21</title>
<polygon style="fill:white;stroke:#bfbfbf;" points="998,-56 998,-76 1027,-76 1027,-56 998,-56"/>
<text text-anchor="middle" x="1012" y="-63" style="font-family:Arial;font-size:10.00;">list</text>
</g>
<!-- Node19&#45;&gt;Node21 -->
<g id="edge90" class="edge"><title>Node19&#45;&gt;Node21</title>
<path style="fill:none;stroke:midnightblue;" d="M989,-112C993,-105 998,-94 1003,-85"/>
<polygon style="fill:midnightblue;stroke:midnightblue;" points="1006.14,-86.5596 1007,-76 999.74,-83.7166 1006.14,-86.5596"/>
</g>
<!-- Node22 -->
<g id="node70" class="node"><title>Node22</title>
<polygon style="fill:white;stroke:#bfbfbf;" points="1082,-56 1082,-76 1159,-76 1159,-56 1082,-56"/>
<text text-anchor="middle" x="1120" y="-63" style="font-family:Arial;font-size:10.00;">boost/any.hpp</text>
</g>
<!-- Node19&#45;&gt;Node22 -->
<g id="edge96" class="edge"><title>Node19&#45;&gt;Node22</title>
<path style="fill:none;stroke:midnightblue;" d="M1008,-112C1030,-103 1062,-90 1086,-80"/>
<polygon style="fill:midnightblue;stroke:midnightblue;" points="1087.28,-83.2598 1095,-76 1084.44,-76.8631 1087.28,-83.2598"/>
</g>
<!-- Node23 -->
<g id="node72" class="node"><title>Node23</title>
<polygon style="fill:white;stroke:#bfbfbf;" points="760,-56 760,-76 889,-76 889,-56 760,-56"/>
<text text-anchor="middle" x="824" y="-63" style="font-family:Arial;font-size:10.00;">boost/unordered_map.hpp</text>
</g>
<!-- Node19&#45;&gt;Node23 -->
<g id="edge98" class="edge"><title>Node19&#45;&gt;Node23</title>
<path style="fill:none;stroke:midnightblue;" d="M955,-112C929,-103 891,-89 863,-79"/>
<polygon style="fill:midnightblue;stroke:midnightblue;" points="863.584,-75.5212 853,-76 861.573,-82.2259 863.584,-75.5212"/>
</g>
<!-- Node24&#45;&gt;Node8 -->
<g id="edge108" class="edge"><title>Node24&#45;&gt;Node8</title>
<path style="fill:none;stroke:midnightblue;" d="M420,-224C400,-217 378,-206 365,-188 355,-175 353,-156 354,-142"/>
<polygon style="fill:midnightblue;stroke:midnightblue;" points="357.488,-142.299 355,-132 350.522,-141.602 357.488,-142.299"/>
</g>
<!-- Node24&#45;&gt;Node11 -->
<g id="edge116" class="edge"><title>Node24&#45;&gt;Node11</title>
<path style="fill:none;stroke:midnightblue;" d="M469,-224C474,-214 481,-200 487,-188 503,-152 520,-110 529,-85"/>
<polygon style="fill:midnightblue;stroke:midnightblue;" points="532.137,-86.5596 533,-76 525.74,-83.7166 532.137,-86.5596"/>
</g>
<!-- Node24&#45;&gt;Node15 -->
<g id="edge112" class="edge"><title>Node24&#45;&gt;Node15</title>
<path style="fill:none;stroke:midnightblue;" d="M486,-224C504,-215 532,-202 554,-192"/>
<polygon style="fill:midnightblue;stroke:midnightblue;" points="555.283,-195.26 563,-188 552.44,-188.863 555.283,-195.26"/>
</g>
<!-- Node24&#45;&gt;Node16 -->
<g id="edge110" class="edge"><title>Node24&#45;&gt;Node16</title>
<path style="fill:none;stroke:midnightblue;" d="M457,-224C452,-216 445,-206 439,-197"/>
<polygon style="fill:midnightblue;stroke:midnightblue;" points="441.459,-194.379 433,-188 435.635,-198.262 441.459,-194.379"/>
</g>
<!-- Node24&#45;&gt;Node18 -->
<g id="edge114" class="edge"><title>Node24&#45;&gt;Node18</title>
<path style="fill:none;stroke:midnightblue;" d="M538,-225C618,-215 742,-199 824,-188"/>
<polygon style="fill:midnightblue;stroke:midnightblue;" points="824.398,-191.478 834,-187 823.701,-184.512 824.398,-191.478"/>
</g>
<!-- Node25&#45;&gt;Node4 -->
<g id="edge120" class="edge"><title>Node25&#45;&gt;Node4</title>
<path style="fill:none;stroke:midnightblue;" d="M1336,-112C1325,-97 1301,-71 1276,-56 1236,-33 1183,-20 1150,-15"/>
<polygon style="fill:midnightblue;stroke:midnightblue;" points="1150.49,-11.5292 1140,-13 1149.12,-18.3933 1150.49,-11.5292"/>
</g>
</g>
</svg>
