<?xml version="1.0" encoding="UTF-8" standalone="no"?>
<!DOCTYPE svg PUBLIC "-//W3C//DTD SVG 1.0//EN"
 "http://www.w3.org/TR/2001/REC-SVG-20010904/DTD/svg10.dtd" [
 <!ATTLIST svg xmlns:xlink CDATA #FIXED "http://www.w3.org/1999/xlink">
]>
<!-- Generated by Graphviz version 2.20.2 (Tue Mar &#160;2 19:03:41 UTC 2010)
     For user: (jenkins)  -->
<!-- Title: G Pages: 1 -->
<svg width="1578pt" height="420pt"
 viewBox="0.00 0.00 1578.00 420.00" xmlns="http://www.w3.org/2000/svg" xmlns:xlink="http://www.w3.org/1999/xlink">
<g id="graph0" class="graph" transform="scale(1 1) rotate(0) translate(4 416)">
<title>G</title>
<polygon style="fill:white;stroke:white;" points="-4,4 -4,-416 1574,-416 1574,4 -4,4"/>
<!-- Node1 -->
<g id="node1" class="node"><title>Node1</title>
<polygon style="fill:#bfbfbf;stroke:black;" points="0,-392 0,-412 198,-412 198,-392 0,-392"/>
<text text-anchor="middle" x="99" y="-399" style="font-family:Arial;font-size:10.00;">ltr/serialization_test/tester/tester_utility.cc</text>
</g>
<!-- Node2 -->
<g id="node3" class="node"><title>Node2</title>
<polygon style="fill:white;stroke:#bfbfbf;" points="12,-336 12,-356 55,-356 55,-336 12,-336"/>
<text text-anchor="middle" x="33" y="-343" style="font-family:Arial;font-size:10.00;">cmath</text>
</g>
<!-- Node1&#45;&gt;Node2 -->
<g id="edge2" class="edge"><title>Node1&#45;&gt;Node2</title>
<path style="fill:none;stroke:midnightblue;" d="M87,-392C77,-384 64,-373 53,-363"/>
<polygon style="fill:midnightblue;stroke:midnightblue;" points="54.8306,-359.951 45,-356 50.221,-365.219 54.8306,-359.951"/>
</g>
<!-- Node3 -->
<g id="node5" class="node"><title>Node3</title>
<polygon style="fill:white;stroke:#bfbfbf;" points="72,-336 72,-356 126,-356 126,-336 72,-336"/>
<text text-anchor="middle" x="99" y="-343" style="font-family:Arial;font-size:10.00;">iostream</text>
</g>
<!-- Node1&#45;&gt;Node3 -->
<g id="edge4" class="edge"><title>Node1&#45;&gt;Node3</title>
<path style="fill:none;stroke:midnightblue;" d="M99,-392C99,-385 99,-375 99,-366"/>
<polygon style="fill:midnightblue;stroke:midnightblue;" points="102.5,-366 99,-356 95.5001,-366 102.5,-366"/>
</g>
<!-- Node4 -->
<g id="node7" class="node"><title>Node4</title>
<a xlink:href="tester__utility_8h.html" target="_top" xlink:title="ltr/serialization_test/tester/tester_utility.h">
<polygon style="fill:white;stroke:black;" points="144,-336 144,-356 336,-356 336,-336 144,-336"/>
<text text-anchor="middle" x="240" y="-343" style="font-family:Arial;font-size:10.00;">ltr/serialization_test/tester/tester_utility.h</text>
</a>
</g>
<!-- Node1&#45;&gt;Node4 -->
<g id="edge6" class="edge"><title>Node1&#45;&gt;Node4</title>
<path style="fill:none;stroke:midnightblue;" d="M124,-392C147,-383 180,-370 205,-360"/>
<polygon style="fill:midnightblue;stroke:midnightblue;" points="207.015,-362.964 215,-356 204.415,-356.464 207.015,-362.964"/>
</g>
<!-- Node5 -->
<g id="node9" class="node"><title>Node5</title>
<polygon style="fill:white;stroke:#bfbfbf;" points="351,-0 351,-20 402,-20 402,-0 351,-0"/>
<text text-anchor="middle" x="376" y="-7" style="font-family:Arial;font-size:10.00;">ostream</text>
</g>
<!-- Node4&#45;&gt;Node5 -->
<g id="edge8" class="edge"><title>Node4&#45;&gt;Node5</title>
<path style="fill:none;stroke:midnightblue;" d="M227,-336C205,-318 165,-278 164,-234 164,-234 164,-234 164,-122 165,-43 281,-20 341,-13"/>
<polygon style="fill:midnightblue;stroke:midnightblue;" points="341.398,-16.4778 351,-12 340.701,-9.5125 341.398,-16.4778"/>
</g>
<!-- Node6 -->
<g id="node11" class="node"><title>Node6</title>
<polygon style="fill:white;stroke:#bfbfbf;" points="300,-56 300,-76 342,-76 342,-56 300,-56"/>
<text text-anchor="middle" x="321" y="-63" style="font-family:Arial;font-size:10.00;">vector</text>
</g>
<!-- Node4&#45;&gt;Node6 -->
<g id="edge10" class="edge"><title>Node4&#45;&gt;Node6</title>
<path style="fill:none;stroke:midnightblue;" d="M234,-336C223,-317 202,-273 202,-234 202,-234 202,-234 202,-178 202,-130 255,-95 291,-78"/>
<polygon style="fill:midnightblue;stroke:midnightblue;" points="292.283,-81.2598 300,-74 289.44,-74.8631 292.283,-81.2598"/>
</g>
<!-- Node7 -->
<g id="node13" class="node"><title>Node7</title>
<polygon style="fill:white;stroke:#bfbfbf;" points="1244,-0 1244,-20 1284,-20 1284,-0 1244,-0"/>
<text text-anchor="middle" x="1264" y="-7" style="font-family:Arial;font-size:10.00;">string</text>
</g>
<!-- Node4&#45;&gt;Node7 -->
<g id="edge12" class="edge"><title>Node4&#45;&gt;Node7</title>
<path style="fill:none;stroke:midnightblue;" d="M336,-343C642,-333 1570,-296 1570,-234 1570,-234 1570,-234 1570,-122 1570,-63 1371,-26 1294,-15"/>
<polygon style="fill:midnightblue;stroke:midnightblue;" points="1294.49,-11.5292 1284,-13 1293.12,-18.3933 1294.49,-11.5292"/>
</g>
<!-- Node8 -->
<g id="node15" class="node"><title>Node8</title>
<a xlink:href="data__set_8h.html" target="_top" xlink:title="ltr/data/data_set.h">
<polygon style="fill:white;stroke:black;" points="676,-280 676,-300 771,-300 771,-280 676,-280"/>
<text text-anchor="middle" x="723" y="-287" style="font-family:Arial;font-size:10.00;">ltr/data/data_set.h</text>
</a>
</g>
<!-- Node4&#45;&gt;Node8 -->
<g id="edge14" class="edge"><title>Node4&#45;&gt;Node8</title>
<path style="fill:none;stroke:midnightblue;" d="M326,-336C424,-324 582,-307 666,-296"/>
<polygon style="fill:midnightblue;stroke:midnightblue;" points="666.398,-299.478 676,-295 665.701,-292.512 666.398,-299.478"/>
</g>
<!-- Node11 -->
<g id="node23" class="node"><title>Node11</title>
<a xlink:href="object_8h.html" target="_top" xlink:title="ltr/data/object.h">
<polygon style="fill:white;stroke:black;" points="458,-112 458,-132 542,-132 542,-112 458,-112"/>
<text text-anchor="middle" x="500" y="-119" style="font-family:Arial;font-size:10.00;">ltr/data/object.h</text>
</a>
</g>
<!-- Node4&#45;&gt;Node11 -->
<g id="edge128" class="edge"><title>Node4&#45;&gt;Node11</title>
<path style="fill:none;stroke:midnightblue;" d="M252,-336C294,-300 430,-182 480,-139"/>
<polygon style="fill:midnightblue;stroke:midnightblue;" points="482.779,-141.219 488,-132 478.169,-135.951 482.779,-141.219"/>
</g>
<!-- Node8&#45;&gt;Node6 -->
<g id="edge22" class="edge"><title>Node8&#45;&gt;Node6</title>
<path style="fill:none;stroke:midnightblue;" d="M676,-287C628,-283 554,-272 496,-244 427,-210 416,-188 366,-132 353,-117 341,-99 332,-85"/>
<polygon style="fill:midnightblue;stroke:midnightblue;" points="334.916,-83.0418 327,-76 328.797,-86.4414 334.916,-83.0418"/>
</g>
<!-- Node8&#45;&gt;Node7 -->
<g id="edge20" class="edge"><title>Node8&#45;&gt;Node7</title>
<path style="fill:none;stroke:midnightblue;" d="M771,-287C926,-277 1406,-242 1406,-178 1406,-178 1406,-178 1406,-122 1406,-65 1335,-32 1294,-18"/>
<polygon style="fill:midnightblue;stroke:midnightblue;" points="1294.58,-14.5212 1284,-15 1292.57,-21.2259 1294.58,-14.5212"/>
</g>
<!-- Node9 -->
<g id="node17" class="node"><title>Node9</title>
<polygon style="fill:white;stroke:#bfbfbf;" points="698,-224 698,-244 749,-244 749,-224 698,-224"/>
<text text-anchor="middle" x="723" y="-231" style="font-family:Arial;font-size:10.00;">sstream</text>
</g>
<!-- Node8&#45;&gt;Node9 -->
<g id="edge16" class="edge"><title>Node8&#45;&gt;Node9</title>
<path style="fill:none;stroke:midnightblue;" d="M723,-280C723,-273 723,-263 723,-254"/>
<polygon style="fill:midnightblue;stroke:midnightblue;" points="726.5,-254 723,-244 719.5,-254 726.5,-254"/>
</g>
<!-- Node10 -->
<g id="node19" class="node"><title>Node10</title>
<polygon style="fill:white;stroke:#bfbfbf;" points="828,-56 828,-76 887,-76 887,-56 828,-56"/>
<text text-anchor="middle" x="857" y="-63" style="font-family:Arial;font-size:10.00;">stdexcept</text>
</g>
<!-- Node8&#45;&gt;Node10 -->
<g id="edge18" class="edge"><title>Node8&#45;&gt;Node10</title>
<path style="fill:none;stroke:midnightblue;" d="M771,-285C823,-279 901,-267 919,-244 936,-221 977,-264 902,-112 897,-101 887,-91 879,-83"/>
<polygon style="fill:midnightblue;stroke:midnightblue;" points="880.831,-79.9511 871,-76 876.221,-85.2191 880.831,-79.9511"/>
</g>
<!-- Node8&#45;&gt;Node11 -->
<g id="edge24" class="edge"><title>Node8&#45;&gt;Node11</title>
<path style="fill:none;stroke:midnightblue;" d="M676,-285C622,-278 538,-265 515,-244 487,-219 490,-170 495,-142"/>
<polygon style="fill:midnightblue;stroke:midnightblue;" points="498.471,-142.492 497,-132 491.607,-141.119 498.471,-142.492"/>
</g>
<!-- Node18 -->
<g id="node43" class="node"><title>Node18</title>
<a xlink:href="object__list_8h.html" target="_top" xlink:title="ltr/data/object_list.h">
<polygon style="fill:white;stroke:black;" points="678,-168 678,-188 780,-188 780,-168 678,-168"/>
<text text-anchor="middle" x="729" y="-175" style="font-family:Arial;font-size:10.00;">ltr/data/object_list.h</text>
</a>
</g>
<!-- Node8&#45;&gt;Node18 -->
<g id="edge50" class="edge"><title>Node8&#45;&gt;Node18</title>
<path style="fill:none;stroke:midnightblue;" d="M734,-280C742,-271 752,-258 757,-244 762,-227 754,-209 744,-196"/>
<polygon style="fill:midnightblue;stroke:midnightblue;" points="746.8,-193.9 738,-188 741.2,-198.1 746.8,-193.9"/>
</g>
<!-- Node19 -->
<g id="node51" class="node"><title>Node19</title>
<a xlink:href="object__pair_8h.html" target="_top" xlink:title="ltr/data/object_pair.h">
<polygon style="fill:white;stroke:black;" points="518,-168 518,-188 622,-188 622,-168 518,-168"/>
<text text-anchor="middle" x="570" y="-175" style="font-family:Arial;font-size:10.00;">ltr/data/object_pair.h</text>
</a>
</g>
<!-- Node8&#45;&gt;Node19 -->
<g id="edge64" class="edge"><title>Node8&#45;&gt;Node19</title>
<path style="fill:none;stroke:midnightblue;" d="M676,-286C623,-280 543,-267 525,-244 511,-228 529,-208 546,-194"/>
<polygon style="fill:midnightblue;stroke:midnightblue;" points="548.1,-196.8 554,-188 543.9,-191.2 548.1,-196.8"/>
</g>
<!-- Node20 -->
<g id="node59" class="node"><title>Node20</title>
<a xlink:href="feature__info_8h.html" target="_top" xlink:title="ltr/data/feature_info.h">
<polygon style="fill:white;stroke:black;" points="804,-224 804,-244 911,-244 911,-224 804,-224"/>
<text text-anchor="middle" x="857" y="-231" style="font-family:Arial;font-size:10.00;">ltr/data/feature_info.h</text>
</a>
</g>
<!-- Node8&#45;&gt;Node20 -->
<g id="edge78" class="edge"><title>Node8&#45;&gt;Node20</title>
<path style="fill:none;stroke:midnightblue;" d="M747,-280C768,-271 799,-258 823,-248"/>
<polygon style="fill:midnightblue;stroke:midnightblue;" points="825.015,-250.964 833,-244 822.415,-244.464 825.015,-250.964"/>
</g>
<!-- Node27 -->
<g id="node83" class="node"><title>Node27</title>
<a xlink:href="per__object__accessor_8h.html" target="_top" xlink:title="ltr/data/per_object_accessor.h">
<polygon style="fill:white;stroke:black;" points="534,-224 534,-244 681,-244 681,-224 534,-224"/>
<text text-anchor="middle" x="607" y="-231" style="font-family:Arial;font-size:10.00;">ltr/data/per_object_accessor.h</text>
</a>
</g>
<!-- Node8&#45;&gt;Node27 -->
<g id="edge112" class="edge"><title>Node8&#45;&gt;Node27</title>
<path style="fill:none;stroke:midnightblue;" d="M702,-280C684,-271 658,-258 637,-248"/>
<polygon style="fill:midnightblue;stroke:midnightblue;" points="638.56,-244.863 628,-244 635.717,-251.26 638.56,-244.863"/>
</g>
<!-- Node28 -->
<g id="node90" class="node"><title>Node28</title>
<a xlink:href="aliaser_8h.html" target="_top" xlink:title="ltr/interfaces/aliaser.h">
<polygon style="fill:white;stroke:black;" points="1434,-112 1434,-132 1542,-132 1542,-112 1434,-112"/>
<text text-anchor="middle" x="1488" y="-119" style="font-family:Arial;font-size:10.00;">ltr/interfaces/aliaser.h</text>
</a>
</g>
<!-- Node8&#45;&gt;Node28 -->
<g id="edge124" class="edge"><title>Node8&#45;&gt;Node28</title>
<path style="fill:none;stroke:midnightblue;" d="M771,-289C920,-287 1365,-278 1420,-244 1456,-220 1475,-170 1483,-142"/>
<polygon style="fill:midnightblue;stroke:midnightblue;" points="1486.48,-142.584 1486,-132 1479.77,-140.573 1486.48,-142.584"/>
</g>
<!-- Node11&#45;&gt;Node5 -->
<g id="edge28" class="edge"><title>Node11&#45;&gt;Node5</title>
<path style="fill:none;stroke:midnightblue;" d="M462,-112C441,-105 416,-93 400,-76 388,-63 382,-45 379,-30"/>
<polygon style="fill:midnightblue;stroke:midnightblue;" points="382.393,-29.1194 377,-20 375.529,-30.4922 382.393,-29.1194"/>
</g>
<!-- Node11&#45;&gt;Node6 -->
<g id="edge34" class="edge"><title>Node11&#45;&gt;Node6</title>
<path style="fill:none;stroke:midnightblue;" d="M468,-112C436,-102 384,-86 352,-76"/>
<polygon style="fill:midnightblue;stroke:midnightblue;" points="352.584,-72.5212 342,-73 350.573,-79.2259 352.584,-72.5212"/>
</g>
<!-- Node11&#45;&gt;Node7 -->
<g id="edge32" class="edge"><title>Node11&#45;&gt;Node7</title>
<path style="fill:none;stroke:midnightblue;" d="M477,-112C450,-99 414,-76 433,-56 447,-41 1086,-16 1234,-11"/>
<polygon style="fill:midnightblue;stroke:midnightblue;" points="1234,-14.5001 1244,-11 1234,-7.5001 1234,-14.5001"/>
</g>
<!-- Node11&#45;&gt;Node10 -->
<g id="edge30" class="edge"><title>Node11&#45;&gt;Node10</title>
<path style="fill:none;stroke:midnightblue;" d="M542,-115C611,-105 750,-83 818,-73"/>
<polygon style="fill:midnightblue;stroke:midnightblue;" points="818.881,-76.3933 828,-71 817.508,-69.5292 818.881,-76.3933"/>
</g>
<!-- Node12 -->
<g id="node25" class="node"><title>Node12</title>
<polygon style="fill:white;stroke:#bfbfbf;" points="576,-56 576,-76 611,-76 611,-56 576,-56"/>
<text text-anchor="middle" x="593" y="-63" style="font-family:Arial;font-size:10.00;">map</text>
</g>
<!-- Node11&#45;&gt;Node12 -->
<g id="edge26" class="edge"><title>Node11&#45;&gt;Node12</title>
<path style="fill:none;stroke:midnightblue;" d="M517,-112C530,-104 551,-91 567,-81"/>
<polygon style="fill:midnightblue;stroke:midnightblue;" points="568.958,-83.916 576,-76 565.559,-77.7969 568.958,-83.916"/>
</g>
<!-- Node13 -->
<g id="node31" class="node"><title>Node13</title>
<a xlink:href="printable_8h.html" target="_top" xlink:title="ltr/interfaces/printable.h">
<polygon style="fill:white;stroke:black;" points="442,-56 442,-76 559,-76 559,-56 442,-56"/>
<text text-anchor="middle" x="500" y="-63" style="font-family:Arial;font-size:10.00;">ltr/interfaces/printable.h</text>
</a>
</g>
<!-- Node11&#45;&gt;Node13 -->
<g id="edge36" class="edge"><title>Node11&#45;&gt;Node13</title>
<path style="fill:none;stroke:midnightblue;" d="M500,-112C500,-105 500,-95 500,-86"/>
<polygon style="fill:midnightblue;stroke:midnightblue;" points="503.5,-86 500,-76 496.5,-86 503.5,-86"/>
</g>
<!-- Node14 -->
<g id="node35" class="node"><title>Node14</title>
<a xlink:href="shared__ptr_8h.html" target="_top" xlink:title="ltr/utility/shared_ptr.h">
<polygon style="fill:white;stroke:black;" points="628,-56 628,-76 735,-76 735,-56 628,-56"/>
<text text-anchor="middle" x="681" y="-63" style="font-family:Arial;font-size:10.00;">ltr/utility/shared_ptr.h</text>
</a>
</g>
<!-- Node11&#45;&gt;Node14 -->
<g id="edge42" class="edge"><title>Node11&#45;&gt;Node14</title>
<path style="fill:none;stroke:midnightblue;" d="M532,-112C562,-103 606,-89 638,-79"/>
<polygon style="fill:midnightblue;stroke:midnightblue;" points="639.427,-82.2259 648,-76 637.416,-75.5212 639.427,-82.2259"/>
</g>
<!-- Node13&#45;&gt;Node5 -->
<g id="edge38" class="edge"><title>Node13&#45;&gt;Node5</title>
<path style="fill:none;stroke:midnightblue;" d="M478,-56C458,-47 430,-34 407,-24"/>
<polygon style="fill:midnightblue;stroke:midnightblue;" points="408.56,-20.8631 398,-20 405.717,-27.2598 408.56,-20.8631"/>
</g>
<!-- Node13&#45;&gt;Node7 -->
<g id="edge40" class="edge"><title>Node13&#45;&gt;Node7</title>
<path style="fill:none;stroke:midnightblue;" d="M559,-57C562,-57 564,-56 567,-56 823,-28 1137,-15 1234,-11"/>
<polygon style="fill:midnightblue;stroke:midnightblue;" points="1234,-14.5001 1244,-11 1234,-7.5001 1234,-14.5001"/>
</g>
<!-- Node15 -->
<g id="node37" class="node"><title>Node15</title>
<polygon style="fill:white;stroke:#bfbfbf;" points="554,-0 554,-20 610,-20 610,-0 554,-0"/>
<text text-anchor="middle" x="582" y="-7" style="font-family:Arial;font-size:10.00;">algorithm</text>
</g>
<!-- Node14&#45;&gt;Node15 -->
<g id="edge44" class="edge"><title>Node14&#45;&gt;Node15</title>
<path style="fill:none;stroke:midnightblue;" d="M663,-56C648,-48 626,-35 609,-25"/>
<polygon style="fill:midnightblue;stroke:midnightblue;" points="610.441,-21.7969 600,-20 607.042,-27.916 610.441,-21.7969"/>
</g>
<!-- Node16 -->
<g id="node39" class="node"><title>Node16</title>
<polygon style="fill:white;stroke:#bfbfbf;" points="628,-0 628,-20 735,-20 735,-0 628,-0"/>
<text text-anchor="middle" x="681" y="-7" style="font-family:Arial;font-size:10.00;">boost/shared_ptr.hpp</text>
</g>
<!-- Node14&#45;&gt;Node16 -->
<g id="edge46" class="edge"><title>Node14&#45;&gt;Node16</title>
<path style="fill:none;stroke:midnightblue;" d="M681,-56C681,-49 681,-39 681,-30"/>
<polygon style="fill:midnightblue;stroke:midnightblue;" points="684.5,-30 681,-20 677.5,-30 684.5,-30"/>
</g>
<!-- Node17 -->
<g id="node41" class="node"><title>Node17</title>
<polygon style="fill:white;stroke:#bfbfbf;" points="752,-0 752,-20 943,-20 943,-0 752,-0"/>
<text text-anchor="middle" x="847" y="-7" style="font-family:Arial;font-size:10.00;">boost/smart_ptr/detail/operator_bool.hpp</text>
</g>
<!-- Node14&#45;&gt;Node17 -->
<g id="edge48" class="edge"><title>Node14&#45;&gt;Node17</title>
<path style="fill:none;stroke:midnightblue;" d="M711,-56C738,-47 778,-33 807,-23"/>
<polygon style="fill:midnightblue;stroke:midnightblue;" points="808.427,-26.2259 817,-20 806.416,-19.5212 808.427,-26.2259"/>
</g>
<!-- Node18&#45;&gt;Node6 -->
<g id="edge56" class="edge"><title>Node18&#45;&gt;Node6</title>
<path style="fill:none;stroke:midnightblue;" d="M678,-172C609,-163 490,-147 449,-132 432,-126 431,-120 416,-112 395,-100 370,-88 351,-79"/>
<polygon style="fill:midnightblue;stroke:midnightblue;" points="352.56,-75.8631 342,-75 349.717,-82.2598 352.56,-75.8631"/>
</g>
<!-- Node18&#45;&gt;Node7 -->
<g id="edge54" class="edge"><title>Node18&#45;&gt;Node7</title>
<path style="fill:none;stroke:midnightblue;" d="M735,-168C751,-141 795,-69 819,-56 855,-35 1140,-17 1234,-12"/>
<polygon style="fill:midnightblue;stroke:midnightblue;" points="1234.4,-15.4778 1244,-11 1233.7,-8.5125 1234.4,-15.4778"/>
</g>
<!-- Node18&#45;&gt;Node10 -->
<g id="edge52" class="edge"><title>Node18&#45;&gt;Node10</title>
<path style="fill:none;stroke:midnightblue;" d="M780,-170C821,-162 874,-149 888,-132 899,-117 887,-98 875,-84"/>
<polygon style="fill:midnightblue;stroke:midnightblue;" points="877.219,-81.221 868,-76 871.951,-85.8306 877.219,-81.221"/>
</g>
<!-- Node18&#45;&gt;Node11 -->
<g id="edge58" class="edge"><title>Node18&#45;&gt;Node11</title>
<path style="fill:none;stroke:midnightblue;" d="M688,-168C649,-159 592,-144 551,-134"/>
<polygon style="fill:midnightblue;stroke:midnightblue;" points="551.492,-130.529 541,-132 550.119,-137.393 551.492,-130.529"/>
</g>
<!-- Node18&#45;&gt;Node13 -->
<g id="edge60" class="edge"><title>Node18&#45;&gt;Node13</title>
<path style="fill:none;stroke:midnightblue;" d="M707,-168C688,-158 657,-144 632,-132 596,-114 556,-94 529,-81"/>
<polygon style="fill:midnightblue;stroke:midnightblue;" points="530.441,-77.7969 520,-76 527.042,-83.916 530.441,-77.7969"/>
</g>
<!-- Node18&#45;&gt;Node14 -->
<g id="edge62" class="edge"><title>Node18&#45;&gt;Node14</title>
<path style="fill:none;stroke:midnightblue;" d="M733,-168C738,-154 744,-130 736,-112 730,-99 719,-89 708,-82"/>
<polygon style="fill:midnightblue;stroke:midnightblue;" points="710.1,-79.2 700,-76 705.9,-84.8 710.1,-79.2"/>
</g>
<!-- Node19&#45;&gt;Node6 -->
<g id="edge70" class="edge"><title>Node19&#45;&gt;Node6</title>
<path style="fill:none;stroke:midnightblue;" d="M537,-168C510,-159 471,-146 439,-132 405,-117 369,-96 346,-81"/>
<polygon style="fill:midnightblue;stroke:midnightblue;" points="347.441,-77.7969 337,-76 344.042,-83.916 347.441,-77.7969"/>
</g>
<!-- Node19&#45;&gt;Node7 -->
<g id="edge68" class="edge"><title>Node19&#45;&gt;Node7</title>
<path style="fill:none;stroke:midnightblue;" d="M586,-168C629,-141 747,-69 791,-56 874,-29 1143,-15 1234,-11"/>
<polygon style="fill:midnightblue;stroke:midnightblue;" points="1234,-14.5001 1244,-11 1234,-7.5001 1234,-14.5001"/>
</g>
<!-- Node19&#45;&gt;Node10 -->
<g id="edge66" class="edge"><title>Node19&#45;&gt;Node10</title>
<path style="fill:none;stroke:midnightblue;" d="M598,-168C624,-159 664,-145 698,-132 742,-115 792,-93 825,-80"/>
<polygon style="fill:midnightblue;stroke:midnightblue;" points="826.283,-83.2598 834,-76 823.44,-76.8631 826.283,-83.2598"/>
</g>
<!-- Node19&#45;&gt;Node11 -->
<g id="edge72" class="edge"><title>Node19&#45;&gt;Node11</title>
<path style="fill:none;stroke:midnightblue;" d="M557,-168C547,-160 533,-149 521,-139"/>
<polygon style="fill:midnightblue;stroke:midnightblue;" points="522.831,-135.951 513,-132 518.221,-141.219 522.831,-135.951"/>
</g>
<!-- Node19&#45;&gt;Node13 -->
<g id="edge74" class="edge"><title>Node19&#45;&gt;Node13</title>
<path style="fill:none;stroke:midnightblue;" d="M530,-168C499,-159 458,-146 449,-132 436,-114 455,-95 474,-82"/>
<polygon style="fill:midnightblue;stroke:midnightblue;" points="476.1,-84.8 482,-76 471.9,-79.2 476.1,-84.8"/>
</g>
<!-- Node19&#45;&gt;Node14 -->
<g id="edge76" class="edge"><title>Node19&#45;&gt;Node14</title>
<path style="fill:none;stroke:midnightblue;" d="M580,-168C600,-148 641,-107 664,-83"/>
<polygon style="fill:midnightblue;stroke:midnightblue;" points="666.404,-85.546 671,-76 661.454,-80.5962 666.404,-85.546"/>
</g>
<!-- Node20&#45;&gt;Node6 -->
<g id="edge84" class="edge"><title>Node20&#45;&gt;Node6</title>
<path style="fill:none;stroke:midnightblue;" d="M804,-228C713,-217 536,-196 509,-188 455,-171 443,-162 397,-132 375,-118 353,-98 338,-83"/>
<polygon style="fill:midnightblue;stroke:midnightblue;" points="340.546,-80.5962 331,-76 335.596,-85.546 340.546,-80.5962"/>
</g>
<!-- Node20&#45;&gt;Node7 -->
<g id="edge82" class="edge"><title>Node20&#45;&gt;Node7</title>
<path style="fill:none;stroke:midnightblue;" d="M911,-228C966,-221 1054,-208 1129,-188 1196,-169 1218,-171 1275,-132 1307,-109 1341,-92 1324,-56 1318,-42 1305,-32 1293,-24"/>
<polygon style="fill:midnightblue;stroke:midnightblue;" points="1294.44,-20.7969 1284,-19 1291.04,-26.916 1294.44,-20.7969"/>
</g>
<!-- Node20&#45;&gt;Node12 -->
<g id="edge80" class="edge"><title>Node20&#45;&gt;Node12</title>
<path style="fill:none;stroke:midnightblue;" d="M848,-224C836,-210 813,-185 789,-168 733,-127 660,-94 620,-77"/>
<polygon style="fill:midnightblue;stroke:midnightblue;" points="621.56,-73.8631 611,-73 618.717,-80.2598 621.56,-73.8631"/>
</g>
<!-- Node20&#45;&gt;Node14 -->
<g id="edge110" class="edge"><title>Node20&#45;&gt;Node14</title>
<path style="fill:none;stroke:midnightblue;" d="M853,-224C848,-210 836,-185 822,-168 790,-130 741,-98 710,-81"/>
<polygon style="fill:midnightblue;stroke:midnightblue;" points="711.441,-77.7969 701,-76 708.042,-83.916 711.441,-77.7969"/>
</g>
<!-- Node21 -->
<g id="node64" class="node"><title>Node21</title>
<a xlink:href="parameterized_8h.html" target="_top" xlink:title="ltr/interfaces/parameterized.h">
<polygon style="fill:white;stroke:black;" points="978,-168 978,-188 1120,-188 1120,-168 978,-168"/>
<text text-anchor="middle" x="1049" y="-175" style="font-family:Arial;font-size:10.00;">ltr/interfaces/parameterized.h</text>
</a>
</g>
<!-- Node20&#45;&gt;Node21 -->
<g id="edge86" class="edge"><title>Node20&#45;&gt;Node21</title>
<path style="fill:none;stroke:midnightblue;" d="M891,-224C923,-215 970,-201 1005,-191"/>
<polygon style="fill:midnightblue;stroke:midnightblue;" points="1006.43,-194.226 1015,-188 1004.42,-187.521 1006.43,-194.226"/>
</g>
<!-- Node21&#45;&gt;Node7 -->
<g id="edge90" class="edge"><title>Node21&#45;&gt;Node7</title>
<path style="fill:none;stroke:midnightblue;" d="M1120,-171C1160,-164 1209,-153 1249,-132 1281,-114 1295,-109 1311,-76 1319,-57 1303,-39 1288,-26"/>
<polygon style="fill:midnightblue;stroke:midnightblue;" points="1290.1,-23.2 1280,-20 1285.9,-28.8 1290.1,-23.2"/>
</g>
<!-- Node21&#45;&gt;Node10 -->
<g id="edge88" class="edge"><title>Node21&#45;&gt;Node10</title>
<path style="fill:none;stroke:midnightblue;" d="M1038,-168C1022,-154 993,-129 964,-112 942,-99 916,-88 895,-80"/>
<polygon style="fill:midnightblue;stroke:midnightblue;" points="896.56,-76.8631 886,-76 893.717,-83.2598 896.56,-76.8631"/>
</g>
<!-- Node22 -->
<g id="node68" class="node"><title>Node22</title>
<a xlink:href="parameters__container_8h.html" target="_top" xlink:title="ltr/parameters_container/parameters_container.h">
<polygon style="fill:white;stroke:black;" points="1016,-112 1016,-132 1241,-132 1241,-112 1016,-112"/>
<text text-anchor="middle" x="1128" y="-119" style="font-family:Arial;font-size:10.00;">ltr/parameters_container/parameters_container.h</text>
</a>
</g>
<!-- Node21&#45;&gt;Node22 -->
<g id="edge92" class="edge"><title>Node21&#45;&gt;Node22</title>
<path style="fill:none;stroke:midnightblue;" d="M1063,-168C1075,-160 1092,-147 1106,-138"/>
<polygon style="fill:midnightblue;stroke:midnightblue;" points="1108.1,-140.8 1114,-132 1103.9,-135.2 1108.1,-140.8"/>
</g>
<!-- Node22&#45;&gt;Node7 -->
<g id="edge100" class="edge"><title>Node22&#45;&gt;Node7</title>
<path style="fill:none;stroke:midnightblue;" d="M1141,-112C1164,-92 1215,-51 1243,-27"/>
<polygon style="fill:midnightblue;stroke:midnightblue;" points="1245.78,-29.2191 1251,-20 1241.17,-23.9511 1245.78,-29.2191"/>
</g>
<!-- Node22&#45;&gt;Node10 -->
<g id="edge98" class="edge"><title>Node22&#45;&gt;Node10</title>
<path style="fill:none;stroke:midnightblue;" d="M1073,-112C1027,-103 962,-91 897,-76"/>
<polygon style="fill:midnightblue;stroke:midnightblue;" points="897.492,-72.5292 887,-74 896.119,-79.3933 897.492,-72.5292"/>
</g>
<!-- Node22&#45;&gt;Node13 -->
<g id="edge108" class="edge"><title>Node22&#45;&gt;Node13</title>
<path style="fill:none;stroke:midnightblue;" d="M1016,-115C904,-107 729,-95 569,-76"/>
<polygon style="fill:midnightblue;stroke:midnightblue;" points="569.299,-72.5125 559,-75 568.602,-79.4778 569.299,-72.5125"/>
</g>
<!-- Node22&#45;&gt;Node14 -->
<g id="edge106" class="edge"><title>Node22&#45;&gt;Node14</title>
<path style="fill:none;stroke:midnightblue;" d="M1048,-112C962,-101 825,-84 745,-74"/>
<polygon style="fill:midnightblue;stroke:midnightblue;" points="745.299,-70.5125 735,-73 744.602,-77.4778 745.299,-70.5125"/>
</g>
<!-- Node23 -->
<g id="node70" class="node"><title>Node23</title>
<polygon style="fill:white;stroke:#bfbfbf;" points="1050,-56 1050,-76 1124,-76 1124,-56 1050,-56"/>
<text text-anchor="middle" x="1087" y="-63" style="font-family:Arial;font-size:10.00;">logog/logog.h</text>
</g>
<!-- Node22&#45;&gt;Node23 -->
<g id="edge94" class="edge"><title>Node22&#45;&gt;Node23</title>
<path style="fill:none;stroke:midnightblue;" d="M1121,-112C1116,-104 1107,-94 1101,-84"/>
<polygon style="fill:midnightblue;stroke:midnightblue;" points="1103.8,-81.9 1095,-76 1098.2,-86.1 1103.8,-81.9"/>
</g>
<!-- Node24 -->
<g id="node72" class="node"><title>Node24</title>
<polygon style="fill:white;stroke:#bfbfbf;" points="1142,-56 1142,-76 1171,-76 1171,-56 1142,-56"/>
<text text-anchor="middle" x="1156" y="-63" style="font-family:Arial;font-size:10.00;">list</text>
</g>
<!-- Node22&#45;&gt;Node24 -->
<g id="edge96" class="edge"><title>Node22&#45;&gt;Node24</title>
<path style="fill:none;stroke:midnightblue;" d="M1133,-112C1137,-105 1142,-94 1147,-85"/>
<polygon style="fill:midnightblue;stroke:midnightblue;" points="1150.14,-86.5596 1151,-76 1143.74,-83.7166 1150.14,-86.5596"/>
</g>
<!-- Node25 -->
<g id="node76" class="node"><title>Node25</title>
<polygon style="fill:white;stroke:#bfbfbf;" points="1226,-56 1226,-76 1303,-76 1303,-56 1226,-56"/>
<text text-anchor="middle" x="1264" y="-63" style="font-family:Arial;font-size:10.00;">boost/any.hpp</text>
</g>
<!-- Node22&#45;&gt;Node25 -->
<g id="edge102" class="edge"><title>Node22&#45;&gt;Node25</title>
<path style="fill:none;stroke:midnightblue;" d="M1152,-112C1174,-103 1206,-90 1230,-80"/>
<polygon style="fill:midnightblue;stroke:midnightblue;" points="1231.28,-83.2598 1239,-76 1228.44,-76.8631 1231.28,-83.2598"/>
</g>
<!-- Node26 -->
<g id="node78" class="node"><title>Node26</title>
<polygon style="fill:white;stroke:#bfbfbf;" points="904,-56 904,-76 1033,-76 1033,-56 904,-56"/>
<text text-anchor="middle" x="968" y="-63" style="font-family:Arial;font-size:10.00;">boost/unordered_map.hpp</text>
</g>
<!-- Node22&#45;&gt;Node26 -->
<g id="edge104" class="edge"><title>Node22&#45;&gt;Node26</title>
<path style="fill:none;stroke:midnightblue;" d="M1099,-112C1073,-103 1035,-89 1007,-79"/>
<polygon style="fill:midnightblue;stroke:midnightblue;" points="1007.58,-75.5212 997,-76 1005.57,-82.2259 1007.58,-75.5212"/>
</g>
<!-- Node27&#45;&gt;Node11 -->
<g id="edge114" class="edge"><title>Node27&#45;&gt;Node11</title>
<path style="fill:none;stroke:midnightblue;" d="M565,-224C544,-217 522,-206 509,-188 499,-175 497,-156 498,-142"/>
<polygon style="fill:midnightblue;stroke:midnightblue;" points="501.488,-142.299 499,-132 494.522,-141.602 501.488,-142.299"/>
</g>
<!-- Node27&#45;&gt;Node14 -->
<g id="edge122" class="edge"><title>Node27&#45;&gt;Node14</title>
<path style="fill:none;stroke:midnightblue;" d="M613,-224C618,-214 625,-200 631,-188 647,-152 664,-110 673,-85"/>
<polygon style="fill:midnightblue;stroke:midnightblue;" points="676.137,-86.5596 677,-76 669.74,-83.7166 676.137,-86.5596"/>
</g>
<!-- Node27&#45;&gt;Node18 -->
<g id="edge118" class="edge"><title>Node27&#45;&gt;Node18</title>
<path style="fill:none;stroke:midnightblue;" d="M629,-224C648,-215 676,-202 698,-192"/>
<polygon style="fill:midnightblue;stroke:midnightblue;" points="699.283,-195.26 707,-188 696.44,-188.863 699.283,-195.26"/>
</g>
<!-- Node27&#45;&gt;Node19 -->
<g id="edge116" class="edge"><title>Node27&#45;&gt;Node19</title>
<path style="fill:none;stroke:midnightblue;" d="M600,-224C595,-216 589,-206 583,-197"/>
<polygon style="fill:midnightblue;stroke:midnightblue;" points="585.459,-194.379 577,-188 579.635,-198.262 585.459,-194.379"/>
</g>
<!-- Node27&#45;&gt;Node21 -->
<g id="edge120" class="edge"><title>Node27&#45;&gt;Node21</title>
<path style="fill:none;stroke:midnightblue;" d="M681,-225C761,-215 886,-199 968,-188"/>
<polygon style="fill:midnightblue;stroke:midnightblue;" points="968.398,-191.478 978,-187 967.701,-184.512 968.398,-191.478"/>
</g>
<!-- Node28&#45;&gt;Node7 -->
<g id="edge126" class="edge"><title>Node28&#45;&gt;Node7</title>
<path style="fill:none;stroke:midnightblue;" d="M1480,-112C1469,-97 1445,-71 1420,-56 1380,-33 1327,-20 1294,-15"/>
<polygon style="fill:midnightblue;stroke:midnightblue;" points="1294.49,-11.5292 1284,-13 1293.12,-18.3933 1294.49,-11.5292"/>
</g>
</g>
</svg>
