<?xml version="1.0" encoding="UTF-8" standalone="no"?>
<!DOCTYPE svg PUBLIC "-//W3C//DTD SVG 1.0//EN"
 "http://www.w3.org/TR/2001/REC-SVG-20010904/DTD/svg10.dtd" [
 <!ATTLIST svg xmlns:xlink CDATA #FIXED "http://www.w3.org/1999/xlink">
]>
<!-- Generated by Graphviz version 2.20.2 (Tue Mar &#160;2 19:03:41 UTC 2010)
     For user: (jenkins)  -->
<!-- Title: G Pages: 1 -->
<svg width="390pt" height="84pt"
 viewBox="0.00 0.00 390.00 84.00" xmlns="http://www.w3.org/2000/svg" xmlns:xlink="http://www.w3.org/1999/xlink">
<g id="graph0" class="graph" transform="scale(1 1) rotate(0) translate(4 80)">
<title>G</title>
<polygon style="fill:white;stroke:white;" points="-4,4 -4,-80 386,-80 386,4 -4,4"/>
<!-- Node1 -->
<g id="node1" class="node"><title>Node1</title>
<polygon style="fill:#bfbfbf;stroke:black;" points="52,-56 52,-76 244,-76 244,-56 52,-56"/>
<text text-anchor="middle" x="148" y="-63" style="font-family:Arial;font-size:10.00;">ltr/serialization_test/tester/tester_utility.h</text>
</g>
<!-- Node2 -->
<g id="node3" class="node"><title>Node2</title>
<polygon style="fill:white;stroke:#bfbfbf;" points="0,-0 0,-20 51,-20 51,-0 0,-0"/>
<text text-anchor="middle" x="25" y="-7" style="font-family:Arial;font-size:10.00;">ostream</text>
</g>
<!-- Node1&#45;&gt;Node2 -->
<g id="edge2" class="edge"><title>Node1&#45;&gt;Node2</title>
<path style="fill:none;stroke:midnightblue;" d="M126,-56C107,-47 79,-34 56,-24"/>
<polygon style="fill:midnightblue;stroke:midnightblue;" points="57.5596,-20.8631 47,-20 54.7166,-27.2598 57.5596,-20.8631"/>
</g>
<!-- Node3 -->
<g id="node5" class="node"><title>Node3</title>
<polygon style="fill:white;stroke:#bfbfbf;" points="68,-0 68,-20 110,-20 110,-0 68,-0"/>
<text text-anchor="middle" x="89" y="-7" style="font-family:Arial;font-size:10.00;">vector</text>
</g>
<!-- Node1&#45;&gt;Node3 -->
<g id="edge4" class="edge"><title>Node1&#45;&gt;Node3</title>
<path style="fill:none;stroke:midnightblue;" d="M137,-56C128,-48 117,-37 107,-27"/>
<polygon style="fill:midnightblue;stroke:midnightblue;" points="109.546,-24.5962 100,-20 104.596,-29.546 109.546,-24.5962"/>
</g>
<!-- Node4 -->
<g id="node7" class="node"><title>Node4</title>
<polygon style="fill:white;stroke:#bfbfbf;" points="128,-0 128,-20 168,-20 168,-0 128,-0"/>
<text text-anchor="middle" x="148" y="-7" style="font-family:Arial;font-size:10.00;">string</text>
</g>
<!-- Node1&#45;&gt;Node4 -->
<g id="edge6" class="edge"><title>Node1&#45;&gt;Node4</title>
<path style="fill:none;stroke:midnightblue;" d="M148,-56C148,-49 148,-39 148,-30"/>
<polygon style="fill:midnightblue;stroke:midnightblue;" points="151.5,-30 148,-20 144.5,-30 151.5,-30"/>
</g>
<!-- Node5 -->
<g id="node9" class="node"><title>Node5</title>
<polygon style="fill:white;stroke:#bfbfbf;" points="186,-0 186,-20 281,-20 281,-0 186,-0"/>
<text text-anchor="middle" x="233" y="-7" style="font-family:Arial;font-size:10.00;">ltr/data/data_set.h</text>
</g>
<!-- Node1&#45;&gt;Node5 -->
<g id="edge8" class="edge"><title>Node1&#45;&gt;Node5</title>
<path style="fill:none;stroke:midnightblue;" d="M163,-56C176,-48 194,-35 209,-26"/>
<polygon style="fill:midnightblue;stroke:midnightblue;" points="211.621,-28.4592 218,-20 207.738,-22.6349 211.621,-28.4592"/>
</g>
<!-- Node6 -->
<g id="node11" class="node"><title>Node6</title>
<polygon style="fill:white;stroke:#bfbfbf;" points="298,-0 298,-20 382,-20 382,-0 298,-0"/>
<text text-anchor="middle" x="340" y="-7" style="font-family:Arial;font-size:10.00;">ltr/data/object.h</text>
</g>
<!-- Node1&#45;&gt;Node6 -->
<g id="edge10" class="edge"><title>Node1&#45;&gt;Node6</title>
<path style="fill:none;stroke:midnightblue;" d="M182,-56C214,-47 261,-33 296,-23"/>
<polygon style="fill:midnightblue;stroke:midnightblue;" points="297.427,-26.2259 306,-20 295.416,-19.5212 297.427,-26.2259"/>
</g>
</g>
</svg>
