<?xml version="1.0" encoding="UTF-8" standalone="no"?>
<!DOCTYPE svg PUBLIC "-//W3C//DTD SVG 1.0//EN"
 "http://www.w3.org/TR/2001/REC-SVG-20010904/DTD/svg10.dtd" [
 <!ATTLIST svg xmlns:xlink CDATA #FIXED "http://www.w3.org/1999/xlink">
]>
<!-- Generated by Graphviz version 2.20.2 (Tue Mar &#160;2 19:03:41 UTC 2010)
     For user: (jenkins)  -->
<!-- Title: G Pages: 1 -->
<svg width="390pt" height="84pt"
 viewBox="0.00 0.00 390.00 84.00" xmlns="http://www.w3.org/2000/svg" xmlns:xlink="http://www.w3.org/1999/xlink">
<g id="graph0" class="graph" transform="scale(1 1) rotate(0) translate(4 80)">
<title>G</title>
<polygon style="fill:white;stroke:white;" points="-4,4 -4,-80 386,-80 386,4 -4,4"/>
<!-- Node1 -->
<g id="node1" class="node"><title>Node1</title>
<polygon style="fill:#bfbfbf;stroke:black;" points="98,-56 98,-76 363,-76 363,-56 98,-56"/>
<text text-anchor="middle" x="230" y="-63" style="font-family:Arial;font-size:10.00;">ltr/learners/decision_tree/condition/threshold_condition.cc</text>
</g>
<!-- Node2 -->
<g id="node3" class="node"><title>Node2</title>
<polygon style="fill:white;stroke:#bfbfbf;" points="0,-0 0,-20 260,-20 260,-0 0,-0"/>
<text text-anchor="middle" x="130" y="-7" style="font-family:Arial;font-size:10.00;">ltr/learners/decision_tree/condition/threshold_condition.h</text>
</g>
<!-- Node1&#45;&gt;Node2 -->
<g id="edge2" class="edge"><title>Node1&#45;&gt;Node2</title>
<path style="fill:none;stroke:midnightblue;" d="M212,-56C197,-48 175,-35 157,-25"/>
<polygon style="fill:midnightblue;stroke:midnightblue;" points="158.441,-21.7969 148,-20 155.042,-27.916 158.441,-21.7969"/>
</g>
<!-- Node3 -->
<g id="node5" class="node"><title>Node3</title>
<polygon style="fill:white;stroke:#bfbfbf;" points="278,-0 278,-20 382,-20 382,-0 278,-0"/>
<text text-anchor="middle" x="330" y="-7" style="font-family:Arial;font-size:10.00;">ltr/utility/numerical.h</text>
</g>
<!-- Node1&#45;&gt;Node3 -->
<g id="edge4" class="edge"><title>Node1&#45;&gt;Node3</title>
<path style="fill:none;stroke:midnightblue;" d="M248,-56C263,-48 285,-35 303,-25"/>
<polygon style="fill:midnightblue;stroke:midnightblue;" points="304.958,-27.916 312,-20 301.559,-21.7969 304.958,-27.916"/>
</g>
</g>
</svg>
