<?xml version="1.0" encoding="UTF-8" standalone="no"?>
<!DOCTYPE svg PUBLIC "-//W3C//DTD SVG 1.0//EN"
 "http://www.w3.org/TR/2001/REC-SVG-20010904/DTD/svg10.dtd" [
 <!ATTLIST svg xmlns:xlink CDATA #FIXED "http://www.w3.org/1999/xlink">
]>
<!-- Generated by Graphviz version 2.20.2 (Tue Mar &#160;2 19:03:41 UTC 2010)
     For user: (jenkins)  -->
<!-- Title: G Pages: 1 -->
<svg width="1060pt" height="84pt"
 viewBox="0.00 0.00 1060.00 84.00" xmlns="http://www.w3.org/2000/svg" xmlns:xlink="http://www.w3.org/1999/xlink">
<g id="graph0" class="graph" transform="scale(1 1) rotate(0) translate(4 80)">
<title>G</title>
<polygon style="fill:white;stroke:white;" points="-4,4 -4,-80 1056,-80 1056,4 -4,4"/>
<!-- Node1 -->
<g id="node1" class="node"><title>Node1</title>
<polygon style="fill:#bfbfbf;stroke:black;" points="523,-56 523,-76 647,-76 647,-56 523,-56"/>
<text text-anchor="middle" x="585" y="-63" style="font-family:Arial;font-size:10.00;">ltr/measures/true_point.h</text>
</g>
<!-- Node2 -->
<g id="node3" class="node"><title>Node2</title>
<a xlink:href="composition__learner__unittest_8cc.html" target="_top" xlink:title="ltr/learners/composition_learner/composition_learner_unittest.cc">
<polygon style="fill:white;stroke:black;" points="0,-0 0,-20 293,-20 293,-0 0,-0"/>
<text text-anchor="middle" x="146" y="-7" style="font-family:Arial;font-size:10.00;">ltr/learners/composition_learner/composition_learner_unittest.cc</text>
</a>
</g>
<!-- Node1&#45;&gt;Node2 -->
<g id="edge2" class="edge"><title>Node1&#45;&gt;Node2</title>
<path style="fill:none;stroke:midnightblue;" d="M513,-57C433,-47 306,-31 224,-20"/>
<polygon style="fill:midnightblue;stroke:midnightblue;" points="512.701,-60.4875 523,-58 513.398,-53.5222 512.701,-60.4875"/>
</g>
<!-- Node3 -->
<g id="node5" class="node"><title>Node3</title>
<a xlink:href="linear__composition__unittest_8cc.html" target="_top" xlink:title="ltr/learners/composition_learner/linear_composition_unittest.cc">
<polygon style="fill:white;stroke:black;" points="310,-0 310,-20 597,-20 597,-0 310,-0"/>
<text text-anchor="middle" x="453" y="-7" style="font-family:Arial;font-size:10.00;">ltr/learners/composition_learner/linear_composition_unittest.cc</text>
</a>
</g>
<!-- Node1&#45;&gt;Node3 -->
<g id="edge4" class="edge"><title>Node1&#45;&gt;Node3</title>
<path style="fill:none;stroke:midnightblue;" d="M551,-52C528,-42 498,-29 477,-20"/>
<polygon style="fill:midnightblue;stroke:midnightblue;" points="550.415,-55.5357 561,-56 553.015,-49.0364 550.415,-55.5357"/>
</g>
<!-- Node4 -->
<g id="node7" class="node"><title>Node4</title>
<a xlink:href="gp__learner__unittest_8cc.html" target="_top" xlink:title="ltr/learners/gp_learner/gp_learner_unittest.cc">
<polygon style="fill:white;stroke:black;" points="614,-0 614,-20 823,-20 823,-0 614,-0"/>
<text text-anchor="middle" x="718" y="-7" style="font-family:Arial;font-size:10.00;">ltr/learners/gp_learner/gp_learner_unittest.cc</text>
</a>
</g>
<!-- Node1&#45;&gt;Node4 -->
<g id="edge6" class="edge"><title>Node1&#45;&gt;Node4</title>
<path style="fill:none;stroke:midnightblue;" d="M618,-52C642,-42 673,-29 694,-20"/>
<polygon style="fill:midnightblue;stroke:midnightblue;" points="616.717,-48.7402 609,-56 619.56,-55.1369 616.717,-48.7402"/>
</g>
<!-- Node5 -->
<g id="node9" class="node"><title>Node5</title>
<a xlink:href="pointwise__measures__unittest_8cc.html" target="_top" xlink:title="ltr/measures/pointwise_measures_unittest.cc">
<polygon style="fill:white;stroke:black;" points="840,-0 840,-20 1053,-20 1053,-0 840,-0"/>
<text text-anchor="middle" x="946" y="-7" style="font-family:Arial;font-size:10.00;">ltr/measures/pointwise_measures_unittest.cc</text>
</a>
</g>
<!-- Node1&#45;&gt;Node5 -->
<g id="edge8" class="edge"><title>Node1&#45;&gt;Node5</title>
<path style="fill:none;stroke:midnightblue;" d="M657,-54C722,-44 817,-29 881,-20"/>
<polygon style="fill:midnightblue;stroke:midnightblue;" points="656.119,-50.6067 647,-56 657.492,-57.4708 656.119,-50.6067"/>
</g>
</g>
</svg>
