<?xml version="1.0" encoding="UTF-8" standalone="no"?>
<!DOCTYPE svg PUBLIC "-//W3C//DTD SVG 1.0//EN"
 "http://www.w3.org/TR/2001/REC-SVG-20010904/DTD/svg10.dtd" [
 <!ATTLIST svg xmlns:xlink CDATA #FIXED "http://www.w3.org/1999/xlink">
]>
<!-- Generated by Graphviz version 2.20.2 (Tue Mar &#160;2 19:03:41 UTC 2010)
     For user: (jenkins)  -->
<!-- Title: G Pages: 1 -->
<svg width="668pt" height="140pt"
 viewBox="0.00 0.00 668.00 140.00" xmlns="http://www.w3.org/2000/svg" xmlns:xlink="http://www.w3.org/1999/xlink">
<g id="graph0" class="graph" transform="scale(1 1) rotate(0) translate(4 136)">
<title>G</title>
<polygon style="fill:white;stroke:white;" points="-4,4 -4,-136 664,-136 664,4 -4,4"/>
<!-- Node1 -->
<g id="node1" class="node"><title>Node1</title>
<polygon style="fill:#bfbfbf;stroke:black;" points="246,-112 246,-132 495,-132 495,-112 246,-112"/>
<text text-anchor="middle" x="370" y="-119" style="font-family:Arial;font-size:10.00;">ltr/utility/two_class_actual_label_converter_unittest.cc</text>
</g>
<!-- Node2 -->
<g id="node3" class="node"><title>Node2</title>
<polygon style="fill:white;stroke:#bfbfbf;" points="7,-0 7,-20 47,-20 47,-0 7,-0"/>
<text text-anchor="middle" x="27" y="-7" style="font-family:Arial;font-size:10.00;">string</text>
</g>
<!-- Node1&#45;&gt;Node2 -->
<g id="edge2" class="edge"><title>Node1&#45;&gt;Node2</title>
<path style="fill:none;stroke:midnightblue;" d="M246,-114C147,-107 23,-94 7,-76 -5,-63 4,-43 13,-28"/>
<polygon style="fill:midnightblue;stroke:midnightblue;" points="15.8,-30.1 19,-20 10.2,-25.9 15.8,-30.1"/>
</g>
<!-- Node3 -->
<g id="node5" class="node"><title>Node3</title>
<polygon style="fill:white;stroke:#bfbfbf;" points="398,-0 398,-20 457,-20 457,-0 398,-0"/>
<text text-anchor="middle" x="427" y="-7" style="font-family:Arial;font-size:10.00;">stdexcept</text>
</g>
<!-- Node1&#45;&gt;Node3 -->
<g id="edge4" class="edge"><title>Node1&#45;&gt;Node3</title>
<path style="fill:none;stroke:midnightblue;" d="M471,-112C548,-103 643,-90 655,-76 660,-69 660,-62 655,-56 631,-28 526,-16 467,-13"/>
<polygon style="fill:midnightblue;stroke:midnightblue;" points="467.299,-9.5125 457,-12 466.602,-16.4778 467.299,-9.5125"/>
</g>
<!-- Node4 -->
<g id="node7" class="node"><title>Node4</title>
<polygon style="fill:white;stroke:#bfbfbf;" points="240,-56 240,-76 311,-76 311,-56 240,-56"/>
<text text-anchor="middle" x="275" y="-63" style="font-family:Arial;font-size:10.00;">gtest/gtest.h</text>
</g>
<!-- Node1&#45;&gt;Node4 -->
<g id="edge6" class="edge"><title>Node1&#45;&gt;Node4</title>
<path style="fill:none;stroke:midnightblue;" d="M353,-112C339,-104 318,-91 301,-81"/>
<polygon style="fill:midnightblue;stroke:midnightblue;" points="302.441,-77.7969 292,-76 299.042,-83.916 302.441,-77.7969"/>
</g>
<!-- Node5 -->
<g id="node9" class="node"><title>Node5</title>
<polygon style="fill:white;stroke:#bfbfbf;" points="328,-56 328,-76 412,-76 412,-56 328,-56"/>
<text text-anchor="middle" x="370" y="-63" style="font-family:Arial;font-size:10.00;">ltr/data/object.h</text>
</g>
<!-- Node1&#45;&gt;Node5 -->
<g id="edge8" class="edge"><title>Node1&#45;&gt;Node5</title>
<path style="fill:none;stroke:midnightblue;" d="M370,-112C370,-105 370,-95 370,-86"/>
<polygon style="fill:midnightblue;stroke:midnightblue;" points="373.5,-86 370,-76 366.5,-86 373.5,-86"/>
</g>
<!-- Node6 -->
<g id="node11" class="node"><title>Node6</title>
<polygon style="fill:white;stroke:#bfbfbf;" points="430,-56 430,-76 534,-76 534,-56 430,-56"/>
<text text-anchor="middle" x="482" y="-63" style="font-family:Arial;font-size:10.00;">ltr/data/object_pair.h</text>
</g>
<!-- Node1&#45;&gt;Node6 -->
<g id="edge10" class="edge"><title>Node1&#45;&gt;Node6</title>
<path style="fill:none;stroke:midnightblue;" d="M390,-112C407,-103 433,-90 453,-80"/>
<polygon style="fill:midnightblue;stroke:midnightblue;" points="454.283,-83.2598 462,-76 451.44,-76.8631 454.283,-83.2598"/>
</g>
<!-- Node7 -->
<g id="node13" class="node"><title>Node7</title>
<polygon style="fill:white;stroke:#bfbfbf;" points="552,-56 552,-76 647,-76 647,-56 552,-56"/>
<text text-anchor="middle" x="599" y="-63" style="font-family:Arial;font-size:10.00;">ltr/data/data_set.h</text>
</g>
<!-- Node1&#45;&gt;Node7 -->
<g id="edge12" class="edge"><title>Node1&#45;&gt;Node7</title>
<path style="fill:none;stroke:midnightblue;" d="M411,-112C450,-103 507,-88 548,-78"/>
<polygon style="fill:midnightblue;stroke:midnightblue;" points="548.881,-81.3933 558,-76 547.508,-74.5292 548.881,-81.3933"/>
</g>
<!-- Node8 -->
<g id="node15" class="node"><title>Node8</title>
<a xlink:href="two__class__actual__label__converter_8h.html" target="_top" xlink:title="ltr/utility/two_class_actual_label_converter.h">
<polygon style="fill:white;stroke:black;" points="16,-56 16,-76 222,-76 222,-56 16,-56"/>
<text text-anchor="middle" x="119" y="-63" style="font-family:Arial;font-size:10.00;">ltr/utility/two_class_actual_label_converter.h</text>
</a>
</g>
<!-- Node1&#45;&gt;Node8 -->
<g id="edge14" class="edge"><title>Node1&#45;&gt;Node8</title>
<path style="fill:none;stroke:midnightblue;" d="M325,-112C283,-103 219,-88 174,-78"/>
<polygon style="fill:midnightblue;stroke:midnightblue;" points="174.492,-74.5292 164,-76 173.119,-81.3933 174.492,-74.5292"/>
</g>
<!-- Node8&#45;&gt;Node2 -->
<g id="edge18" class="edge"><title>Node8&#45;&gt;Node2</title>
<path style="fill:none;stroke:midnightblue;" d="M103,-56C89,-48 68,-35 53,-25"/>
<polygon style="fill:midnightblue;stroke:midnightblue;" points="54.4414,-21.7969 44,-20 51.0418,-27.916 54.4414,-21.7969"/>
</g>
<!-- Node8&#45;&gt;Node3 -->
<g id="edge16" class="edge"><title>Node8&#45;&gt;Node3</title>
<path style="fill:none;stroke:midnightblue;" d="M174,-56C236,-45 334,-27 388,-17"/>
<polygon style="fill:midnightblue;stroke:midnightblue;" points="388.881,-20.3933 398,-15 387.508,-13.5292 388.881,-20.3933"/>
</g>
<!-- Node9 -->
<g id="node19" class="node"><title>Node9</title>
<polygon style="fill:white;stroke:#bfbfbf;" points="104,-0 104,-20 134,-20 134,-0 104,-0"/>
<text text-anchor="middle" x="119" y="-7" style="font-family:Arial;font-size:10.00;">set</text>
</g>
<!-- Node8&#45;&gt;Node9 -->
<g id="edge20" class="edge"><title>Node8&#45;&gt;Node9</title>
<path style="fill:none;stroke:midnightblue;" d="M119,-56C119,-49 119,-39 119,-30"/>
<polygon style="fill:midnightblue;stroke:midnightblue;" points="122.5,-30 119,-20 115.5,-30 122.5,-30"/>
</g>
</g>
</svg>
