<?xml version="1.0" encoding="UTF-8" standalone="no"?>
<!DOCTYPE svg PUBLIC "-//W3C//DTD SVG 1.0//EN"
 "http://www.w3.org/TR/2001/REC-SVG-20010904/DTD/svg10.dtd" [
 <!ATTLIST svg xmlns:xlink CDATA #FIXED "http://www.w3.org/1999/xlink">
]>
<!-- Generated by Graphviz version 2.20.2 (Tue Mar &#160;2 19:03:41 UTC 2010)
     For user: (jenkins)  -->
<!-- Title: G Pages: 1 -->
<svg width="226pt" height="84pt"
 viewBox="0.00 0.00 226.00 84.00" xmlns="http://www.w3.org/2000/svg" xmlns:xlink="http://www.w3.org/1999/xlink">
<g id="graph0" class="graph" transform="scale(1 1) rotate(0) translate(4 80)">
<title>G</title>
<polygon style="fill:white;stroke:white;" points="-4,4 -4,-80 222,-80 222,4 -4,4"/>
<!-- Node1 -->
<g id="node1" class="node"><title>Node1</title>
<polygon style="fill:#bfbfbf;stroke:black;" points="0,-56 0,-76 219,-76 219,-56 0,-56"/>
<text text-anchor="middle" x="109" y="-63" style="font-family:Arial;font-size:10.00;">ltr/utility/two_class_predicted_label_converter.h</text>
</g>
<!-- Node2 -->
<g id="node3" class="node"><title>Node2</title>
<polygon style="fill:white;stroke:#bfbfbf;" points="47,-0 47,-20 106,-20 106,-0 47,-0"/>
<text text-anchor="middle" x="76" y="-7" style="font-family:Arial;font-size:10.00;">stdexcept</text>
</g>
<!-- Node1&#45;&gt;Node2 -->
<g id="edge2" class="edge"><title>Node1&#45;&gt;Node2</title>
<path style="fill:none;stroke:midnightblue;" d="M103,-56C98,-49 92,-38 87,-29"/>
<polygon style="fill:midnightblue;stroke:midnightblue;" points="89.916,-27.0418 82,-20 83.7969,-30.4414 89.916,-27.0418"/>
</g>
<!-- Node3 -->
<g id="node5" class="node"><title>Node3</title>
<polygon style="fill:white;stroke:#bfbfbf;" points="123,-0 123,-20 163,-20 163,-0 123,-0"/>
<text text-anchor="middle" x="143" y="-7" style="font-family:Arial;font-size:10.00;">string</text>
</g>
<!-- Node1&#45;&gt;Node3 -->
<g id="edge4" class="edge"><title>Node1&#45;&gt;Node3</title>
<path style="fill:none;stroke:midnightblue;" d="M115,-56C120,-49 126,-38 132,-29"/>
<polygon style="fill:midnightblue;stroke:midnightblue;" points="135.203,-30.4414 137,-20 129.084,-27.0418 135.203,-30.4414"/>
</g>
</g>
</svg>
