<?xml version="1.0" encoding="UTF-8" standalone="no"?>
<!DOCTYPE svg PUBLIC "-//W3C//DTD SVG 1.0//EN"
 "http://www.w3.org/TR/2001/REC-SVG-20010904/DTD/svg10.dtd" [
 <!ATTLIST svg xmlns:xlink CDATA #FIXED "http://www.w3.org/1999/xlink">
]>
<!-- Generated by Graphviz version 2.20.2 (Tue Mar &#160;2 19:03:41 UTC 2010)
     For user: (jenkins)  -->
<!-- Title: G Pages: 1 -->
<svg width="1584pt" height="364pt"
 viewBox="0.00 0.00 1584.00 364.00" xmlns="http://www.w3.org/2000/svg" xmlns:xlink="http://www.w3.org/1999/xlink">
<g id="graph0" class="graph" transform="scale(1 1) rotate(0) translate(4 360)">
<title>G</title>
<polygon style="fill:white;stroke:white;" points="-4,4 -4,-360 1580,-360 1580,4 -4,4"/>
<!-- Node1 -->
<g id="node1" class="node"><title>Node1</title>
<polygon style="fill:#bfbfbf;stroke:black;" points="1180,-336 1180,-356 1429,-356 1429,-336 1180,-336"/>
<text text-anchor="middle" x="1304" y="-343" style="font-family:Arial;font-size:10.00;">ltr/utility/two_class_actual_label_converter_unittest.cc</text>
</g>
<!-- Node2 -->
<g id="node3" class="node"><title>Node2</title>
<polygon style="fill:white;stroke:#bfbfbf;" points="772,-0 772,-20 812,-20 812,-0 772,-0"/>
<text text-anchor="middle" x="792" y="-7" style="font-family:Arial;font-size:10.00;">string</text>
</g>
<!-- Node1&#45;&gt;Node2 -->
<g id="edge2" class="edge"><title>Node1&#45;&gt;Node2</title>
<path style="fill:none;stroke:midnightblue;" d="M1310,-336C1321,-317 1342,-273 1342,-234 1342,-234 1342,-234 1342,-122 1342,-72 1297,-73 1251,-56 1172,-25 911,-14 822,-11"/>
<polygon style="fill:midnightblue;stroke:midnightblue;" points="822,-7.5001 812,-11 822,-14.5001 822,-7.5001"/>
</g>
<!-- Node3 -->
<g id="node5" class="node"><title>Node3</title>
<polygon style="fill:white;stroke:#bfbfbf;" points="1152,-56 1152,-76 1211,-76 1211,-56 1152,-56"/>
<text text-anchor="middle" x="1181" y="-63" style="font-family:Arial;font-size:10.00;">stdexcept</text>
</g>
<!-- Node1&#45;&gt;Node3 -->
<g id="edge4" class="edge"><title>Node1&#45;&gt;Node3</title>
<path style="fill:none;stroke:midnightblue;" d="M1304,-336C1304,-316 1304,-271 1304,-234 1304,-234 1304,-234 1304,-178 1304,-130 1253,-98 1217,-80"/>
<polygon style="fill:midnightblue;stroke:midnightblue;" points="1217.58,-76.4643 1207,-76 1214.98,-82.9636 1217.58,-76.4643"/>
</g>
<!-- Node4 -->
<g id="node7" class="node"><title>Node4</title>
<polygon style="fill:white;stroke:#bfbfbf;" points="1408,-280 1408,-300 1479,-300 1479,-280 1408,-280"/>
<text text-anchor="middle" x="1443" y="-287" style="font-family:Arial;font-size:10.00;">gtest/gtest.h</text>
</g>
<!-- Node1&#45;&gt;Node4 -->
<g id="edge6" class="edge"><title>Node1&#45;&gt;Node4</title>
<path style="fill:none;stroke:midnightblue;" d="M1329,-336C1351,-327 1384,-314 1409,-304"/>
<polygon style="fill:midnightblue;stroke:midnightblue;" points="1410.28,-307.26 1418,-300 1407.44,-300.863 1410.28,-307.26"/>
</g>
<!-- Node5 -->
<g id="node9" class="node"><title>Node5</title>
<a xlink:href="object_8h.html" target="_top" xlink:title="ltr/data/object.h">
<polygon style="fill:white;stroke:black;" points="344,-112 344,-132 428,-132 428,-112 344,-112"/>
<text text-anchor="middle" x="386" y="-119" style="font-family:Arial;font-size:10.00;">ltr/data/object.h</text>
</a>
</g>
<!-- Node1&#45;&gt;Node5 -->
<g id="edge8" class="edge"><title>Node1&#45;&gt;Node5</title>
<path style="fill:none;stroke:midnightblue;" d="M1180,-344C912,-337 301,-315 243,-244 206,-198 292,-156 347,-135"/>
<polygon style="fill:midnightblue;stroke:midnightblue;" points="347.62,-138.483 356,-132 345.406,-131.842 347.62,-138.483"/>
</g>
<!-- Node14 -->
<g id="node31" class="node"><title>Node14</title>
<a xlink:href="object__pair_8h.html" target="_top" xlink:title="ltr/data/object_pair.h">
<polygon style="fill:white;stroke:black;" points="477,-168 477,-188 581,-188 581,-168 477,-168"/>
<text text-anchor="middle" x="529" y="-175" style="font-family:Arial;font-size:10.00;">ltr/data/object_pair.h</text>
</a>
</g>
<!-- Node1&#45;&gt;Node14 -->
<g id="edge34" class="edge"><title>Node1&#45;&gt;Node14</title>
<path style="fill:none;stroke:midnightblue;" d="M1180,-343C966,-337 551,-323 530,-300 504,-273 514,-225 522,-198"/>
<polygon style="fill:midnightblue;stroke:midnightblue;" points="525.479,-198.584 525,-188 518.774,-196.573 525.479,-198.584"/>
</g>
<!-- Node15 -->
<g id="node39" class="node"><title>Node15</title>
<a xlink:href="data__set_8h.html" target="_top" xlink:title="ltr/data/data_set.h">
<polygon style="fill:white;stroke:black;" points="539,-280 539,-300 634,-300 634,-280 539,-280"/>
<text text-anchor="middle" x="586" y="-287" style="font-family:Arial;font-size:10.00;">ltr/data/data_set.h</text>
</a>
</g>
<!-- Node1&#45;&gt;Node15 -->
<g id="edge48" class="edge"><title>Node1&#45;&gt;Node15</title>
<path style="fill:none;stroke:midnightblue;" d="M1180,-336C1023,-323 760,-303 644,-295"/>
<polygon style="fill:midnightblue;stroke:midnightblue;" points="644.299,-291.512 634,-294 643.602,-298.478 644.299,-291.512"/>
</g>
<!-- Node27 -->
<g id="node90" class="node"><title>Node27</title>
<a xlink:href="two__class__actual__label__converter_8h.html" target="_top" xlink:title="ltr/utility/two_class_actual_label_converter.h">
<polygon style="fill:white;stroke:black;" points="1370,-112 1370,-132 1576,-132 1576,-112 1370,-112"/>
<text text-anchor="middle" x="1473" y="-119" style="font-family:Arial;font-size:10.00;">ltr/utility/two_class_actual_label_converter.h</text>
</a>
</g>
<!-- Node1&#45;&gt;Node27 -->
<g id="edge126" class="edge"><title>Node1&#45;&gt;Node27</title>
<path style="fill:none;stroke:midnightblue;" d="M1317,-336C1328,-327 1344,-313 1356,-300 1402,-247 1444,-175 1462,-141"/>
<polygon style="fill:midnightblue;stroke:midnightblue;" points="1465.2,-142.441 1467,-132 1459.08,-139.042 1465.2,-142.441"/>
</g>
<!-- Node5&#45;&gt;Node2 -->
<g id="edge16" class="edge"><title>Node5&#45;&gt;Node2</title>
<path style="fill:none;stroke:midnightblue;" d="M384,-112C381,-97 378,-70 393,-56 449,-0 666,-34 762,-20"/>
<polygon style="fill:midnightblue;stroke:midnightblue;" points="762.881,-23.3933 772,-18 761.508,-16.5292 762.881,-23.3933"/>
</g>
<!-- Node5&#45;&gt;Node3 -->
<g id="edge14" class="edge"><title>Node5&#45;&gt;Node3</title>
<path style="fill:none;stroke:midnightblue;" d="M428,-120C539,-116 848,-101 1105,-76 1117,-74 1130,-73 1142,-71"/>
<polygon style="fill:midnightblue;stroke:midnightblue;" points="1142.4,-74.4778 1152,-70 1141.7,-67.5125 1142.4,-74.4778"/>
</g>
<!-- Node6 -->
<g id="node11" class="node"><title>Node6</title>
<polygon style="fill:white;stroke:#bfbfbf;" points="214,-56 214,-76 249,-76 249,-56 214,-56"/>
<text text-anchor="middle" x="231" y="-63" style="font-family:Arial;font-size:10.00;">map</text>
</g>
<!-- Node5&#45;&gt;Node6 -->
<g id="edge10" class="edge"><title>Node5&#45;&gt;Node6</title>
<path style="fill:none;stroke:midnightblue;" d="M357,-112C333,-104 297,-91 259,-77"/>
<polygon style="fill:midnightblue;stroke:midnightblue;" points="259.585,-73.4643 249,-73 256.985,-79.9636 259.585,-73.4643"/>
</g>
<!-- Node7 -->
<g id="node13" class="node"><title>Node7</title>
<polygon style="fill:white;stroke:#bfbfbf;" points="298,-0 298,-20 349,-20 349,-0 298,-0"/>
<text text-anchor="middle" x="323" y="-7" style="font-family:Arial;font-size:10.00;">ostream</text>
</g>
<!-- Node5&#45;&gt;Node7 -->
<g id="edge12" class="edge"><title>Node5&#45;&gt;Node7</title>
<path style="fill:none;stroke:midnightblue;" d="M380,-112C375,-102 367,-88 360,-76 351,-60 341,-42 334,-29"/>
<polygon style="fill:midnightblue;stroke:midnightblue;" points="336.916,-27.0418 329,-20 330.797,-30.4414 336.916,-27.0418"/>
</g>
<!-- Node8 -->
<g id="node17" class="node"><title>Node8</title>
<polygon style="fill:white;stroke:#bfbfbf;" points="266,-56 266,-76 308,-76 308,-56 266,-56"/>
<text text-anchor="middle" x="287" y="-63" style="font-family:Arial;font-size:10.00;">vector</text>
</g>
<!-- Node5&#45;&gt;Node8 -->
<g id="edge18" class="edge"><title>Node5&#45;&gt;Node8</title>
<path style="fill:none;stroke:midnightblue;" d="M368,-112C353,-104 331,-91 314,-81"/>
<polygon style="fill:midnightblue;stroke:midnightblue;" points="315.441,-77.7969 305,-76 312.042,-83.916 315.441,-77.7969"/>
</g>
<!-- Node9 -->
<g id="node19" class="node"><title>Node9</title>
<a xlink:href="printable_8h.html" target="_top" xlink:title="ltr/interfaces/printable.h">
<polygon style="fill:white;stroke:black;" points="402,-56 402,-76 519,-76 519,-56 402,-56"/>
<text text-anchor="middle" x="460" y="-63" style="font-family:Arial;font-size:10.00;">ltr/interfaces/printable.h</text>
</a>
</g>
<!-- Node5&#45;&gt;Node9 -->
<g id="edge20" class="edge"><title>Node5&#45;&gt;Node9</title>
<path style="fill:none;stroke:midnightblue;" d="M399,-112C410,-104 426,-92 439,-82"/>
<polygon style="fill:midnightblue;stroke:midnightblue;" points="441.1,-84.8 447,-76 436.9,-79.2 441.1,-84.8"/>
</g>
<!-- Node10 -->
<g id="node23" class="node"><title>Node10</title>
<a xlink:href="shared__ptr_8h.html" target="_top" xlink:title="ltr/utility/shared_ptr.h">
<polygon style="fill:white;stroke:black;" points="536,-56 536,-76 643,-76 643,-56 536,-56"/>
<text text-anchor="middle" x="589" y="-63" style="font-family:Arial;font-size:10.00;">ltr/utility/shared_ptr.h</text>
</a>
</g>
<!-- Node5&#45;&gt;Node10 -->
<g id="edge26" class="edge"><title>Node5&#45;&gt;Node10</title>
<path style="fill:none;stroke:midnightblue;" d="M422,-112C456,-103 506,-89 543,-79"/>
<polygon style="fill:midnightblue;stroke:midnightblue;" points="544.427,-82.2259 553,-76 542.416,-75.5212 544.427,-82.2259"/>
</g>
<!-- Node9&#45;&gt;Node2 -->
<g id="edge24" class="edge"><title>Node9&#45;&gt;Node2</title>
<path style="fill:none;stroke:midnightblue;" d="M519,-57C595,-45 724,-26 762,-19"/>
<polygon style="fill:midnightblue;stroke:midnightblue;" points="762.881,-22.3933 772,-17 761.508,-15.5292 762.881,-22.3933"/>
</g>
<!-- Node9&#45;&gt;Node7 -->
<g id="edge22" class="edge"><title>Node9&#45;&gt;Node7</title>
<path style="fill:none;stroke:midnightblue;" d="M436,-56C414,-47 382,-34 357,-24"/>
<polygon style="fill:midnightblue;stroke:midnightblue;" points="358.56,-20.8631 348,-20 355.717,-27.2598 358.56,-20.8631"/>
</g>
<!-- Node11 -->
<g id="node25" class="node"><title>Node11</title>
<polygon style="fill:white;stroke:#bfbfbf;" points="574,-0 574,-20 630,-20 630,-0 574,-0"/>
<text text-anchor="middle" x="602" y="-7" style="font-family:Arial;font-size:10.00;">algorithm</text>
</g>
<!-- Node10&#45;&gt;Node11 -->
<g id="edge28" class="edge"><title>Node10&#45;&gt;Node11</title>
<path style="fill:none;stroke:midnightblue;" d="M591,-56C593,-49 595,-39 598,-30"/>
<polygon style="fill:midnightblue;stroke:midnightblue;" points="601.471,-30.4922 600,-20 594.607,-29.1194 601.471,-30.4922"/>
</g>
<!-- Node12 -->
<g id="node27" class="node"><title>Node12</title>
<polygon style="fill:white;stroke:#bfbfbf;" points="648,-0 648,-20 755,-20 755,-0 648,-0"/>
<text text-anchor="middle" x="701" y="-7" style="font-family:Arial;font-size:10.00;">boost/shared_ptr.hpp</text>
</g>
<!-- Node10&#45;&gt;Node12 -->
<g id="edge30" class="edge"><title>Node10&#45;&gt;Node12</title>
<path style="fill:none;stroke:midnightblue;" d="M609,-56C626,-47 652,-34 672,-24"/>
<polygon style="fill:midnightblue;stroke:midnightblue;" points="673.283,-27.2598 681,-20 670.44,-20.8631 673.283,-27.2598"/>
</g>
<!-- Node13 -->
<g id="node29" class="node"><title>Node13</title>
<polygon style="fill:white;stroke:#bfbfbf;" points="366,-0 366,-20 557,-20 557,-0 366,-0"/>
<text text-anchor="middle" x="461" y="-7" style="font-family:Arial;font-size:10.00;">boost/smart_ptr/detail/operator_bool.hpp</text>
</g>
<!-- Node10&#45;&gt;Node13 -->
<g id="edge32" class="edge"><title>Node10&#45;&gt;Node13</title>
<path style="fill:none;stroke:midnightblue;" d="M566,-56C546,-47 516,-34 493,-24"/>
<polygon style="fill:midnightblue;stroke:midnightblue;" points="494.56,-20.8631 484,-20 491.717,-27.2598 494.56,-20.8631"/>
</g>
<!-- Node14&#45;&gt;Node2 -->
<g id="edge38" class="edge"><title>Node14&#45;&gt;Node2</title>
<path style="fill:none;stroke:midnightblue;" d="M544,-168C576,-147 652,-97 717,-56 733,-45 752,-34 766,-25"/>
<polygon style="fill:midnightblue;stroke:midnightblue;" points="767.958,-27.916 775,-20 764.559,-21.7969 767.958,-27.916"/>
</g>
<!-- Node14&#45;&gt;Node3 -->
<g id="edge36" class="edge"><title>Node14&#45;&gt;Node3</title>
<path style="fill:none;stroke:midnightblue;" d="M581,-169C584,-169 587,-168 590,-168 767,-145 815,-169 990,-132 1047,-120 1111,-95 1148,-80"/>
<polygon style="fill:midnightblue;stroke:midnightblue;" points="1150.02,-82.9636 1158,-76 1147.42,-76.4643 1150.02,-82.9636"/>
</g>
<!-- Node14&#45;&gt;Node5 -->
<g id="edge42" class="edge"><title>Node14&#45;&gt;Node5</title>
<path style="fill:none;stroke:midnightblue;" d="M503,-168C480,-159 447,-146 422,-136"/>
<polygon style="fill:midnightblue;stroke:midnightblue;" points="422.585,-132.464 412,-132 419.985,-138.964 422.585,-132.464"/>
</g>
<!-- Node14&#45;&gt;Node8 -->
<g id="edge40" class="edge"><title>Node14&#45;&gt;Node8</title>
<path style="fill:none;stroke:midnightblue;" d="M477,-170C427,-161 357,-147 335,-132 317,-120 304,-100 296,-85"/>
<polygon style="fill:midnightblue;stroke:midnightblue;" points="298.916,-83.0418 291,-76 292.797,-86.4414 298.916,-83.0418"/>
</g>
<!-- Node14&#45;&gt;Node9 -->
<g id="edge44" class="edge"><title>Node14&#45;&gt;Node9</title>
<path style="fill:none;stroke:midnightblue;" d="M523,-168C512,-149 487,-109 472,-85"/>
<polygon style="fill:midnightblue;stroke:midnightblue;" points="474.459,-82.3791 466,-76 468.635,-86.262 474.459,-82.3791"/>
</g>
<!-- Node14&#45;&gt;Node10 -->
<g id="edge46" class="edge"><title>Node14&#45;&gt;Node10</title>
<path style="fill:none;stroke:midnightblue;" d="M535,-168C545,-149 566,-109 578,-85"/>
<polygon style="fill:midnightblue;stroke:midnightblue;" points="581.203,-86.4414 583,-76 575.084,-83.0418 581.203,-86.4414"/>
</g>
<!-- Node15&#45;&gt;Node2 -->
<g id="edge54" class="edge"><title>Node15&#45;&gt;Node2</title>
<path style="fill:none;stroke:midnightblue;" d="M634,-284C693,-276 797,-262 886,-244 1054,-208 1168,-234 1236,-76 1239,-67 1241,-62 1236,-56 1208,-25 918,-14 822,-11"/>
<polygon style="fill:midnightblue;stroke:midnightblue;" points="822,-7.5001 812,-11 822,-14.5001 822,-7.5001"/>
</g>
<!-- Node15&#45;&gt;Node3 -->
<g id="edge52" class="edge"><title>Node15&#45;&gt;Node3</title>
<path style="fill:none;stroke:midnightblue;" d="M634,-283C685,-276 767,-262 837,-244 979,-205 1039,-230 1149,-132 1163,-120 1171,-101 1176,-86"/>
<polygon style="fill:midnightblue;stroke:midnightblue;" points="1179.48,-86.584 1179,-76 1172.77,-84.5725 1179.48,-86.584"/>
</g>
<!-- Node15&#45;&gt;Node5 -->
<g id="edge58" class="edge"><title>Node15&#45;&gt;Node5</title>
<path style="fill:none;stroke:midnightblue;" d="M566,-280C535,-264 474,-229 432,-188 417,-174 405,-155 396,-141"/>
<polygon style="fill:midnightblue;stroke:midnightblue;" points="398.916,-139.042 391,-132 392.797,-142.441 398.916,-139.042"/>
</g>
<!-- Node15&#45;&gt;Node8 -->
<g id="edge56" class="edge"><title>Node15&#45;&gt;Node8</title>
<path style="fill:none;stroke:midnightblue;" d="M539,-287C449,-281 262,-265 243,-244 204,-197 248,-120 273,-84"/>
<polygon style="fill:midnightblue;stroke:midnightblue;" points="275.8,-86.1 279,-76 270.2,-81.9 275.8,-86.1"/>
</g>
<!-- Node15&#45;&gt;Node14 -->
<g id="edge74" class="edge"><title>Node15&#45;&gt;Node14</title>
<path style="fill:none;stroke:midnightblue;" d="M581,-280C571,-261 551,-221 539,-197"/>
<polygon style="fill:midnightblue;stroke:midnightblue;" points="541.916,-195.042 534,-188 535.797,-198.441 541.916,-195.042"/>
</g>
<!-- Node16 -->
<g id="node41" class="node"><title>Node16</title>
<polygon style="fill:white;stroke:#bfbfbf;" points="778,-224 778,-244 829,-244 829,-224 778,-224"/>
<text text-anchor="middle" x="803" y="-231" style="font-family:Arial;font-size:10.00;">sstream</text>
</g>
<!-- Node15&#45;&gt;Node16 -->
<g id="edge50" class="edge"><title>Node15&#45;&gt;Node16</title>
<path style="fill:none;stroke:midnightblue;" d="M628,-280C663,-272 715,-259 768,-244"/>
<polygon style="fill:midnightblue;stroke:midnightblue;" points="769.427,-247.226 778,-241 767.416,-240.521 769.427,-247.226"/>
</g>
<!-- Node17 -->
<g id="node47" class="node"><title>Node17</title>
<a xlink:href="object__list_8h.html" target="_top" xlink:title="ltr/data/object_list.h">
<polygon style="fill:white;stroke:black;" points="599,-168 599,-188 701,-188 701,-168 599,-168"/>
<text text-anchor="middle" x="650" y="-175" style="font-family:Arial;font-size:10.00;">ltr/data/object_list.h</text>
</a>
</g>
<!-- Node15&#45;&gt;Node17 -->
<g id="edge60" class="edge"><title>Node15&#45;&gt;Node17</title>
<path style="fill:none;stroke:midnightblue;" d="M587,-280C589,-266 594,-242 605,-224 611,-213 620,-203 629,-195"/>
<polygon style="fill:midnightblue;stroke:midnightblue;" points="631.779,-197.219 637,-188 627.169,-191.951 631.779,-197.219"/>
</g>
<!-- Node18 -->
<g id="node56" class="node"><title>Node18</title>
<a xlink:href="feature__info_8h.html" target="_top" xlink:title="ltr/data/feature_info.h">
<polygon style="fill:white;stroke:black;" points="252,-224 252,-244 359,-244 359,-224 252,-224"/>
<text text-anchor="middle" x="305" y="-231" style="font-family:Arial;font-size:10.00;">ltr/data/feature_info.h</text>
</a>
</g>
<!-- Node15&#45;&gt;Node18 -->
<g id="edge76" class="edge"><title>Node15&#45;&gt;Node18</title>
<path style="fill:none;stroke:midnightblue;" d="M539,-281C491,-272 417,-257 365,-246"/>
<polygon style="fill:midnightblue;stroke:midnightblue;" points="365.492,-242.529 355,-244 364.119,-249.393 365.492,-242.529"/>
</g>
<!-- Node25 -->
<g id="node80" class="node"><title>Node25</title>
<a xlink:href="per__object__accessor_8h.html" target="_top" xlink:title="ltr/data/per_object_accessor.h">
<polygon style="fill:white;stroke:black;" points="614,-224 614,-244 761,-244 761,-224 614,-224"/>
<text text-anchor="middle" x="687" y="-231" style="font-family:Arial;font-size:10.00;">ltr/data/per_object_accessor.h</text>
</a>
</g>
<!-- Node15&#45;&gt;Node25 -->
<g id="edge110" class="edge"><title>Node15&#45;&gt;Node25</title>
<path style="fill:none;stroke:midnightblue;" d="M604,-280C619,-271 642,-259 660,-249"/>
<polygon style="fill:midnightblue;stroke:midnightblue;" points="661.958,-251.916 669,-244 658.559,-245.797 661.958,-251.916"/>
</g>
<!-- Node26 -->
<g id="node87" class="node"><title>Node26</title>
<a xlink:href="aliaser_8h.html" target="_top" xlink:title="ltr/interfaces/aliaser.h">
<polygon style="fill:white;stroke:black;" points="0,-168 0,-188 108,-188 108,-168 0,-168"/>
<text text-anchor="middle" x="54" y="-175" style="font-family:Arial;font-size:10.00;">ltr/interfaces/aliaser.h</text>
</a>
</g>
<!-- Node15&#45;&gt;Node26 -->
<g id="edge122" class="edge"><title>Node15&#45;&gt;Node26</title>
<path style="fill:none;stroke:midnightblue;" d="M539,-289C436,-287 195,-278 122,-244 99,-233 80,-212 67,-196"/>
<polygon style="fill:midnightblue;stroke:midnightblue;" points="69.8,-193.9 61,-188 64.2,-198.1 69.8,-193.9"/>
</g>
<!-- Node17&#45;&gt;Node2 -->
<g id="edge64" class="edge"><title>Node17&#45;&gt;Node2</title>
<path style="fill:none;stroke:midnightblue;" d="M701,-175C811,-168 1062,-144 1105,-76 1109,-68 1110,-62 1105,-56 1087,-34 897,-18 822,-12"/>
<polygon style="fill:midnightblue;stroke:midnightblue;" points="822.299,-8.5125 812,-11 821.602,-15.4778 822.299,-8.5125"/>
</g>
<!-- Node17&#45;&gt;Node3 -->
<g id="edge62" class="edge"><title>Node17&#45;&gt;Node3</title>
<path style="fill:none;stroke:midnightblue;" d="M701,-174C809,-166 1054,-145 1090,-132 1118,-121 1146,-99 1163,-83"/>
<polygon style="fill:midnightblue;stroke:midnightblue;" points="1165.78,-85.2191 1171,-76 1161.17,-79.9511 1165.78,-85.2191"/>
</g>
<!-- Node17&#45;&gt;Node5 -->
<g id="edge68" class="edge"><title>Node17&#45;&gt;Node5</title>
<path style="fill:none;stroke:midnightblue;" d="M603,-168C556,-159 486,-143 438,-133"/>
<polygon style="fill:midnightblue;stroke:midnightblue;" points="438.492,-129.529 428,-131 437.119,-136.393 438.492,-129.529"/>
</g>
<!-- Node17&#45;&gt;Node8 -->
<g id="edge66" class="edge"><title>Node17&#45;&gt;Node8</title>
<path style="fill:none;stroke:midnightblue;" d="M618,-168C576,-155 501,-132 437,-112 396,-99 348,-84 318,-75"/>
<polygon style="fill:midnightblue;stroke:midnightblue;" points="318.584,-71.5212 308,-72 316.573,-78.2259 318.584,-71.5212"/>
</g>
<!-- Node17&#45;&gt;Node9 -->
<g id="edge70" class="edge"><title>Node17&#45;&gt;Node9</title>
<path style="fill:none;stroke:midnightblue;" d="M633,-168C600,-148 525,-104 486,-81"/>
<polygon style="fill:midnightblue;stroke:midnightblue;" points="487.441,-77.7969 477,-76 484.042,-83.916 487.441,-77.7969"/>
</g>
<!-- Node17&#45;&gt;Node10 -->
<g id="edge72" class="edge"><title>Node17&#45;&gt;Node10</title>
<path style="fill:none;stroke:midnightblue;" d="M644,-168C633,-149 612,-109 600,-85"/>
<polygon style="fill:midnightblue;stroke:midnightblue;" points="602.916,-83.0418 595,-76 596.797,-86.4414 602.916,-83.0418"/>
</g>
<!-- Node18&#45;&gt;Node2 -->
<g id="edge80" class="edge"><title>Node18&#45;&gt;Node2</title>
<path style="fill:none;stroke:midnightblue;" d="M291,-224C254,-195 154,-110 205,-56 245,-12 667,-30 762,-19"/>
<polygon style="fill:midnightblue;stroke:midnightblue;" points="762.398,-22.4778 772,-18 761.701,-15.5125 762.398,-22.4778"/>
</g>
<!-- Node18&#45;&gt;Node6 -->
<g id="edge78" class="edge"><title>Node18&#45;&gt;Node6</title>
<path style="fill:none;stroke:midnightblue;" d="M301,-224C289,-197 256,-121 240,-85"/>
<polygon style="fill:midnightblue;stroke:midnightblue;" points="243.26,-83.7166 236,-76 236.863,-86.5596 243.26,-83.7166"/>
</g>
<!-- Node18&#45;&gt;Node8 -->
<g id="edge82" class="edge"><title>Node18&#45;&gt;Node8</title>
<path style="fill:none;stroke:midnightblue;" d="M304,-224C301,-197 293,-123 289,-86"/>
<polygon style="fill:midnightblue;stroke:midnightblue;" points="292.478,-85.6021 288,-76 285.512,-86.2987 292.478,-85.6021"/>
</g>
<!-- Node18&#45;&gt;Node10 -->
<g id="edge108" class="edge"><title>Node18&#45;&gt;Node10</title>
<path style="fill:none;stroke:midnightblue;" d="M322,-224C369,-196 506,-115 563,-81"/>
<polygon style="fill:midnightblue;stroke:midnightblue;" points="564.958,-83.916 572,-76 561.559,-77.7969 564.958,-83.916"/>
</g>
<!-- Node19 -->
<g id="node61" class="node"><title>Node19</title>
<a xlink:href="parameterized_8h.html" target="_top" xlink:title="ltr/interfaces/parameterized.h">
<polygon style="fill:white;stroke:black;" points="798,-168 798,-188 940,-188 940,-168 798,-168"/>
<text text-anchor="middle" x="869" y="-175" style="font-family:Arial;font-size:10.00;">ltr/interfaces/parameterized.h</text>
</a>
</g>
<!-- Node18&#45;&gt;Node19 -->
<g id="edge84" class="edge"><title>Node18&#45;&gt;Node19</title>
<path style="fill:none;stroke:midnightblue;" d="M359,-229C458,-219 671,-198 788,-186"/>
<polygon style="fill:midnightblue;stroke:midnightblue;" points="788.398,-189.478 798,-185 787.701,-182.512 788.398,-189.478"/>
</g>
<!-- Node19&#45;&gt;Node2 -->
<g id="edge88" class="edge"><title>Node19&#45;&gt;Node2</title>
<path style="fill:none;stroke:midnightblue;" d="M940,-170C1010,-162 1112,-148 1149,-132 1190,-113 1249,-90 1219,-56 1192,-26 915,-14 822,-11"/>
<polygon style="fill:midnightblue;stroke:midnightblue;" points="822,-7.5001 812,-11 822,-14.5001 822,-7.5001"/>
</g>
<!-- Node19&#45;&gt;Node3 -->
<g id="edge86" class="edge"><title>Node19&#45;&gt;Node3</title>
<path style="fill:none;stroke:midnightblue;" d="M940,-171C1006,-163 1097,-150 1128,-132 1147,-121 1162,-100 1171,-85"/>
<polygon style="fill:midnightblue;stroke:midnightblue;" points="1174.2,-86.4414 1176,-76 1168.08,-83.0418 1174.2,-86.4414"/>
</g>
<!-- Node20 -->
<g id="node65" class="node"><title>Node20</title>
<a xlink:href="parameters__container_8h.html" target="_top" xlink:title="ltr/parameters_container/parameters_container.h">
<polygon style="fill:white;stroke:black;" points="757,-112 757,-132 982,-132 982,-112 757,-112"/>
<text text-anchor="middle" x="869" y="-119" style="font-family:Arial;font-size:10.00;">ltr/parameters_container/parameters_container.h</text>
</a>
</g>
<!-- Node19&#45;&gt;Node20 -->
<g id="edge90" class="edge"><title>Node19&#45;&gt;Node20</title>
<path style="fill:none;stroke:midnightblue;" d="M869,-168C869,-161 869,-151 869,-142"/>
<polygon style="fill:midnightblue;stroke:midnightblue;" points="872.5,-142 869,-132 865.5,-142 872.5,-142"/>
</g>
<!-- Node20&#45;&gt;Node2 -->
<g id="edge98" class="edge"><title>Node20&#45;&gt;Node2</title>
<path style="fill:none;stroke:midnightblue;" d="M819,-112C782,-104 738,-91 727,-76 712,-56 739,-35 763,-23"/>
<polygon style="fill:midnightblue;stroke:midnightblue;" points="764.958,-25.916 772,-18 761.559,-19.7969 764.958,-25.916"/>
</g>
<!-- Node20&#45;&gt;Node3 -->
<g id="edge96" class="edge"><title>Node20&#45;&gt;Node3</title>
<path style="fill:none;stroke:midnightblue;" d="M925,-112C988,-101 1087,-83 1142,-73"/>
<polygon style="fill:midnightblue;stroke:midnightblue;" points="1142.88,-76.3933 1152,-71 1141.51,-69.5292 1142.88,-76.3933"/>
</g>
<!-- Node20&#45;&gt;Node9 -->
<g id="edge106" class="edge"><title>Node20&#45;&gt;Node9</title>
<path style="fill:none;stroke:midnightblue;" d="M793,-112C725,-103 625,-90 529,-76"/>
<polygon style="fill:midnightblue;stroke:midnightblue;" points="529.299,-72.5125 519,-75 528.602,-79.4778 529.299,-72.5125"/>
</g>
<!-- Node20&#45;&gt;Node10 -->
<g id="edge104" class="edge"><title>Node20&#45;&gt;Node10</title>
<path style="fill:none;stroke:midnightblue;" d="M819,-112C771,-103 700,-88 649,-78"/>
<polygon style="fill:midnightblue;stroke:midnightblue;" points="649.492,-74.5292 639,-76 648.119,-81.3933 649.492,-74.5292"/>
</g>
<!-- Node21 -->
<g id="node67" class="node"><title>Node21</title>
<polygon style="fill:white;stroke:#bfbfbf;" points="1022,-56 1022,-76 1096,-76 1096,-56 1022,-56"/>
<text text-anchor="middle" x="1059" y="-63" style="font-family:Arial;font-size:10.00;">logog/logog.h</text>
</g>
<!-- Node20&#45;&gt;Node21 -->
<g id="edge92" class="edge"><title>Node20&#45;&gt;Node21</title>
<path style="fill:none;stroke:midnightblue;" d="M903,-112C935,-103 982,-89 1015,-79"/>
<polygon style="fill:midnightblue;stroke:midnightblue;" points="1016.43,-82.2259 1025,-76 1014.42,-75.5212 1016.43,-82.2259"/>
</g>
<!-- Node22 -->
<g id="node69" class="node"><title>Node22</title>
<polygon style="fill:white;stroke:#bfbfbf;" points="736,-56 736,-76 765,-76 765,-56 736,-56"/>
<text text-anchor="middle" x="750" y="-63" style="font-family:Arial;font-size:10.00;">list</text>
</g>
<!-- Node20&#45;&gt;Node22 -->
<g id="edge94" class="edge"><title>Node20&#45;&gt;Node22</title>
<path style="fill:none;stroke:midnightblue;" d="M848,-112C827,-102 796,-88 774,-77"/>
<polygon style="fill:midnightblue;stroke:midnightblue;" points="775.56,-73.8631 765,-73 772.717,-80.2598 775.56,-73.8631"/>
</g>
<!-- Node23 -->
<g id="node73" class="node"><title>Node23</title>
<polygon style="fill:white;stroke:#bfbfbf;" points="782,-56 782,-76 859,-76 859,-56 782,-56"/>
<text text-anchor="middle" x="820" y="-63" style="font-family:Arial;font-size:10.00;">boost/any.hpp</text>
</g>
<!-- Node20&#45;&gt;Node23 -->
<g id="edge100" class="edge"><title>Node20&#45;&gt;Node23</title>
<path style="fill:none;stroke:midnightblue;" d="M860,-112C853,-104 843,-93 835,-84"/>
<polygon style="fill:midnightblue;stroke:midnightblue;" points="837.8,-81.9 829,-76 832.2,-86.1 837.8,-81.9"/>
</g>
<!-- Node24 -->
<g id="node75" class="node"><title>Node24</title>
<polygon style="fill:white;stroke:#bfbfbf;" points="876,-56 876,-76 1005,-76 1005,-56 876,-56"/>
<text text-anchor="middle" x="940" y="-63" style="font-family:Arial;font-size:10.00;">boost/unordered_map.hpp</text>
</g>
<!-- Node20&#45;&gt;Node24 -->
<g id="edge102" class="edge"><title>Node20&#45;&gt;Node24</title>
<path style="fill:none;stroke:midnightblue;" d="M882,-112C893,-104 907,-92 919,-83"/>
<polygon style="fill:midnightblue;stroke:midnightblue;" points="921.779,-85.2191 927,-76 917.169,-79.9511 921.779,-85.2191"/>
</g>
<!-- Node25&#45;&gt;Node5 -->
<g id="edge112" class="edge"><title>Node25&#45;&gt;Node5</title>
<path style="fill:none;stroke:midnightblue;" d="M614,-227C570,-221 514,-209 468,-188 442,-175 418,-154 403,-139"/>
<polygon style="fill:midnightblue;stroke:midnightblue;" points="404.831,-135.951 395,-132 400.221,-141.219 404.831,-135.951"/>
</g>
<!-- Node25&#45;&gt;Node10 -->
<g id="edge120" class="edge"><title>Node25&#45;&gt;Node10</title>
<path style="fill:none;stroke:midnightblue;" d="M695,-224C705,-211 719,-187 710,-168 691,-128 648,-98 619,-81"/>
<polygon style="fill:midnightblue;stroke:midnightblue;" points="620.441,-77.7969 610,-76 617.042,-83.916 620.441,-77.7969"/>
</g>
<!-- Node25&#45;&gt;Node14 -->
<g id="edge114" class="edge"><title>Node25&#45;&gt;Node14</title>
<path style="fill:none;stroke:midnightblue;" d="M659,-224C633,-215 595,-201 567,-191"/>
<polygon style="fill:midnightblue;stroke:midnightblue;" points="567.584,-187.521 557,-188 565.573,-194.226 567.584,-187.521"/>
</g>
<!-- Node25&#45;&gt;Node17 -->
<g id="edge116" class="edge"><title>Node25&#45;&gt;Node17</title>
<path style="fill:none;stroke:midnightblue;" d="M680,-224C675,-216 669,-206 663,-197"/>
<polygon style="fill:midnightblue;stroke:midnightblue;" points="665.459,-194.379 657,-188 659.635,-198.262 665.459,-194.379"/>
</g>
<!-- Node25&#45;&gt;Node19 -->
<g id="edge118" class="edge"><title>Node25&#45;&gt;Node19</title>
<path style="fill:none;stroke:midnightblue;" d="M720,-224C750,-215 794,-201 826,-191"/>
<polygon style="fill:midnightblue;stroke:midnightblue;" points="827.427,-194.226 836,-188 825.416,-187.521 827.427,-194.226"/>
</g>
<!-- Node26&#45;&gt;Node2 -->
<g id="edge124" class="edge"><title>Node26&#45;&gt;Node2</title>
<path style="fill:none;stroke:midnightblue;" d="M58,-168C70,-143 102,-81 150,-56 267,6 613,-44 762,-20"/>
<polygon style="fill:midnightblue;stroke:midnightblue;" points="762.881,-23.3933 772,-18 761.508,-16.5292 762.881,-23.3933"/>
</g>
<!-- Node27&#45;&gt;Node2 -->
<g id="edge130" class="edge"><title>Node27&#45;&gt;Node2</title>
<path style="fill:none;stroke:midnightblue;" d="M1460,-112C1439,-97 1397,-68 1356,-56 1254,-25 924,-14 822,-10"/>
<polygon style="fill:midnightblue;stroke:midnightblue;" points="822,-6.5001 812,-10 822,-13.5001 822,-6.5001"/>
</g>
<!-- Node27&#45;&gt;Node3 -->
<g id="edge128" class="edge"><title>Node27&#45;&gt;Node3</title>
<path style="fill:none;stroke:midnightblue;" d="M1421,-112C1364,-101 1273,-83 1221,-74"/>
<polygon style="fill:midnightblue;stroke:midnightblue;" points="1221.49,-70.5292 1211,-72 1220.12,-77.3933 1221.49,-70.5292"/>
</g>
<!-- Node28 -->
<g id="node94" class="node"><title>Node28</title>
<polygon style="fill:white;stroke:#bfbfbf;" points="1458,-56 1458,-76 1488,-76 1488,-56 1458,-56"/>
<text text-anchor="middle" x="1473" y="-63" style="font-family:Arial;font-size:10.00;">set</text>
</g>
<!-- Node27&#45;&gt;Node28 -->
<g id="edge132" class="edge"><title>Node27&#45;&gt;Node28</title>
<path style="fill:none;stroke:midnightblue;" d="M1473,-112C1473,-105 1473,-95 1473,-86"/>
<polygon style="fill:midnightblue;stroke:midnightblue;" points="1476.5,-86 1473,-76 1469.5,-86 1476.5,-86"/>
</g>
</g>
</svg>
