<?xml version="1.0" encoding="UTF-8" standalone="no"?>
<!DOCTYPE svg PUBLIC "-//W3C//DTD SVG 1.0//EN"
 "http://www.w3.org/TR/2001/REC-SVG-20010904/DTD/svg10.dtd" [
 <!ATTLIST svg xmlns:xlink CDATA #FIXED "http://www.w3.org/1999/xlink">
]>
<!-- Generated by Graphviz version 2.20.2 (Tue Mar &#160;2 19:03:41 UTC 2010)
     For user: (jenkins)  -->
<!-- Title: G Pages: 1 -->
<svg width="681pt" height="140pt"
 viewBox="0.00 0.00 681.00 140.00" xmlns="http://www.w3.org/2000/svg" xmlns:xlink="http://www.w3.org/1999/xlink">
<g id="graph0" class="graph" transform="scale(1 1) rotate(0) translate(4 136)">
<title>G</title>
<polygon style="fill:white;stroke:white;" points="-4,4 -4,-136 677,-136 677,4 -4,4"/>
<!-- Node1 -->
<g id="node1" class="node"><title>Node1</title>
<polygon style="fill:#bfbfbf;stroke:black;" points="252,-112 252,-132 515,-132 515,-112 252,-112"/>
<text text-anchor="middle" x="383" y="-119" style="font-family:Arial;font-size:10.00;">ltr/utility/two_class_predicted_label_converter_unittest.cc</text>
</g>
<!-- Node2 -->
<g id="node3" class="node"><title>Node2</title>
<polygon style="fill:white;stroke:#bfbfbf;" points="4,-0 4,-20 44,-20 44,-0 4,-0"/>
<text text-anchor="middle" x="24" y="-7" style="font-family:Arial;font-size:10.00;">string</text>
</g>
<!-- Node1&#45;&gt;Node2 -->
<g id="edge2" class="edge"><title>Node1&#45;&gt;Node2</title>
<path style="fill:none;stroke:midnightblue;" d="M252,-114C150,-107 24,-94 8,-76 -3,-63 3,-43 11,-29"/>
<polygon style="fill:midnightblue;stroke:midnightblue;" points="14.3651,-30.262 17,-20 8.54078,-26.3791 14.3651,-30.262"/>
</g>
<!-- Node3 -->
<g id="node5" class="node"><title>Node3</title>
<polygon style="fill:white;stroke:#bfbfbf;" points="377,-0 377,-20 436,-20 436,-0 377,-0"/>
<text text-anchor="middle" x="406" y="-7" style="font-family:Arial;font-size:10.00;">stdexcept</text>
</g>
<!-- Node1&#45;&gt;Node3 -->
<g id="edge4" class="edge"><title>Node1&#45;&gt;Node3</title>
<path style="fill:none;stroke:midnightblue;" d="M484,-112C561,-103 656,-90 668,-76 673,-69 673,-62 668,-56 640,-23 512,-13 446,-11"/>
<polygon style="fill:midnightblue;stroke:midnightblue;" points="446,-7.5001 436,-11 446,-14.5001 446,-7.5001"/>
</g>
<!-- Node4 -->
<g id="node7" class="node"><title>Node4</title>
<polygon style="fill:white;stroke:#bfbfbf;" points="253,-56 253,-76 324,-76 324,-56 253,-56"/>
<text text-anchor="middle" x="288" y="-63" style="font-family:Arial;font-size:10.00;">gtest/gtest.h</text>
</g>
<!-- Node1&#45;&gt;Node4 -->
<g id="edge6" class="edge"><title>Node1&#45;&gt;Node4</title>
<path style="fill:none;stroke:midnightblue;" d="M366,-112C352,-104 331,-91 314,-81"/>
<polygon style="fill:midnightblue;stroke:midnightblue;" points="315.441,-77.7969 305,-76 312.042,-83.916 315.441,-77.7969"/>
</g>
<!-- Node5 -->
<g id="node9" class="node"><title>Node5</title>
<polygon style="fill:white;stroke:#bfbfbf;" points="341,-56 341,-76 425,-76 425,-56 341,-56"/>
<text text-anchor="middle" x="383" y="-63" style="font-family:Arial;font-size:10.00;">ltr/data/object.h</text>
</g>
<!-- Node1&#45;&gt;Node5 -->
<g id="edge8" class="edge"><title>Node1&#45;&gt;Node5</title>
<path style="fill:none;stroke:midnightblue;" d="M383,-112C383,-105 383,-95 383,-86"/>
<polygon style="fill:midnightblue;stroke:midnightblue;" points="386.5,-86 383,-76 379.5,-86 386.5,-86"/>
</g>
<!-- Node6 -->
<g id="node11" class="node"><title>Node6</title>
<polygon style="fill:white;stroke:#bfbfbf;" points="443,-56 443,-76 547,-76 547,-56 443,-56"/>
<text text-anchor="middle" x="495" y="-63" style="font-family:Arial;font-size:10.00;">ltr/data/object_pair.h</text>
</g>
<!-- Node1&#45;&gt;Node6 -->
<g id="edge10" class="edge"><title>Node1&#45;&gt;Node6</title>
<path style="fill:none;stroke:midnightblue;" d="M403,-112C420,-103 446,-90 466,-80"/>
<polygon style="fill:midnightblue;stroke:midnightblue;" points="467.283,-83.2598 475,-76 464.44,-76.8631 467.283,-83.2598"/>
</g>
<!-- Node7 -->
<g id="node13" class="node"><title>Node7</title>
<polygon style="fill:white;stroke:#bfbfbf;" points="565,-56 565,-76 660,-76 660,-56 565,-56"/>
<text text-anchor="middle" x="612" y="-63" style="font-family:Arial;font-size:10.00;">ltr/data/data_set.h</text>
</g>
<!-- Node1&#45;&gt;Node7 -->
<g id="edge12" class="edge"><title>Node1&#45;&gt;Node7</title>
<path style="fill:none;stroke:midnightblue;" d="M424,-112C463,-103 520,-88 561,-78"/>
<polygon style="fill:midnightblue;stroke:midnightblue;" points="561.881,-81.3933 571,-76 560.508,-74.5292 561.881,-81.3933"/>
</g>
<!-- Node8 -->
<g id="node15" class="node"><title>Node8</title>
<a xlink:href="two__class__predicted__label__converter_8h.html" target="_top" xlink:title="ltr/utility/two_class_predicted_label_converter.h">
<polygon style="fill:white;stroke:black;" points="17,-56 17,-76 236,-76 236,-56 17,-56"/>
<text text-anchor="middle" x="126" y="-63" style="font-family:Arial;font-size:10.00;">ltr/utility/two_class_predicted_label_converter.h</text>
</a>
</g>
<!-- Node1&#45;&gt;Node8 -->
<g id="edge14" class="edge"><title>Node1&#45;&gt;Node8</title>
<path style="fill:none;stroke:midnightblue;" d="M337,-112C293,-103 229,-88 182,-78"/>
<polygon style="fill:midnightblue;stroke:midnightblue;" points="182.492,-74.5292 172,-76 181.119,-81.3933 182.492,-74.5292"/>
</g>
<!-- Node8&#45;&gt;Node2 -->
<g id="edge18" class="edge"><title>Node8&#45;&gt;Node2</title>
<path style="fill:none;stroke:midnightblue;" d="M108,-56C92,-47 69,-35 51,-25"/>
<polygon style="fill:midnightblue;stroke:midnightblue;" points="52.4414,-21.7969 42,-20 49.0418,-27.916 52.4414,-21.7969"/>
</g>
<!-- Node8&#45;&gt;Node3 -->
<g id="edge16" class="edge"><title>Node8&#45;&gt;Node3</title>
<path style="fill:none;stroke:midnightblue;" d="M176,-56C231,-45 317,-27 367,-18"/>
<polygon style="fill:midnightblue;stroke:midnightblue;" points="367.881,-21.3933 377,-16 366.508,-14.5292 367.881,-21.3933"/>
</g>
</g>
</svg>
