<?xml version="1.0" encoding="UTF-8" standalone="no"?>
<!DOCTYPE svg PUBLIC "-//W3C//DTD SVG 1.0//EN"
 "http://www.w3.org/TR/2001/REC-SVG-20010904/DTD/svg10.dtd" [
 <!ATTLIST svg xmlns:xlink CDATA #FIXED "http://www.w3.org/1999/xlink">
]>
<!-- Generated by Graphviz version 2.20.2 (Tue Mar &#160;2 19:03:41 UTC 2010)
     For user: (jenkins)  -->
<!-- Title: G Pages: 1 -->
<svg width="308pt" height="84pt"
 viewBox="0.00 0.00 308.00 84.00" xmlns="http://www.w3.org/2000/svg" xmlns:xlink="http://www.w3.org/1999/xlink">
<g id="graph0" class="graph" transform="scale(1 1) rotate(0) translate(4 80)">
<title>G</title>
<polygon style="fill:white;stroke:white;" points="-4,4 -4,-80 304,-80 304,4 -4,4"/>
<!-- Node1 -->
<g id="node1" class="node"><title>Node1</title>
<polygon style="fill:#bfbfbf;stroke:black;" points="9,-56 9,-76 243,-76 243,-56 9,-56"/>
<text text-anchor="middle" x="126" y="-63" style="font-family:Arial;font-size:10.00;">ltr/learners/decision_tree/vertex/vertex_with_data.h</text>
</g>
<!-- Node2 -->
<g id="node3" class="node"><title>Node2</title>
<polygon style="fill:white;stroke:#bfbfbf;" points="0,-0 0,-20 95,-20 95,-0 0,-0"/>
<text text-anchor="middle" x="47" y="-7" style="font-family:Arial;font-size:10.00;">ltr/data/data_set.h</text>
</g>
<!-- Node1&#45;&gt;Node2 -->
<g id="edge2" class="edge"><title>Node1&#45;&gt;Node2</title>
<path style="fill:none;stroke:midnightblue;" d="M112,-56C100,-48 83,-35 69,-26"/>
<polygon style="fill:midnightblue;stroke:midnightblue;" points="71.1,-23.2 61,-20 66.9,-28.8 71.1,-23.2"/>
</g>
<!-- Node3 -->
<g id="node5" class="node"><title>Node3</title>
<polygon style="fill:white;stroke:#bfbfbf;" points="112,-0 112,-20 300,-20 300,-0 112,-0"/>
<text text-anchor="middle" x="206" y="-7" style="font-family:Arial;font-size:10.00;">ltr/learners/decision_tree/vertex/vertex.h</text>
</g>
<!-- Node1&#45;&gt;Node3 -->
<g id="edge4" class="edge"><title>Node1&#45;&gt;Node3</title>
<path style="fill:none;stroke:midnightblue;" d="M140,-56C151,-48 169,-36 183,-26"/>
<polygon style="fill:midnightblue;stroke:midnightblue;" points="185.1,-28.8 191,-20 180.9,-23.2 185.1,-28.8"/>
</g>
</g>
</svg>
