<?xml version="1.0" encoding="UTF-8" standalone="no"?>
<!DOCTYPE svg PUBLIC "-//W3C//DTD SVG 1.0//EN"
 "http://www.w3.org/TR/2001/REC-SVG-20010904/DTD/svg10.dtd" [
 <!ATTLIST svg xmlns:xlink CDATA #FIXED "http://www.w3.org/1999/xlink">
]>
<!-- Generated by Graphviz version 2.20.2 (Tue Mar &#160;2 19:03:41 UTC 2010)
     For user: (jenkins)  -->
<!-- Title: G Pages: 1 -->
<svg width="1115pt" height="308pt"
 viewBox="0.00 0.00 1115.00 308.00" xmlns="http://www.w3.org/2000/svg" xmlns:xlink="http://www.w3.org/1999/xlink">
<g id="graph0" class="graph" transform="scale(1 1) rotate(0) translate(4 304)">
<title>G</title>
<polygon style="fill:white;stroke:white;" points="-4,4 -4,-304 1111,-304 1111,4 -4,4"/>
<!-- Node1 -->
<g id="node1" class="node"><title>Node1</title>
<polygon style="fill:#bfbfbf;stroke:black;" points="400,-280 400,-300 588,-300 588,-280 400,-280"/>
<text text-anchor="middle" x="494" y="-287" style="font-family:Arial;font-size:10.00;">ltr/learners/decision_tree/vertex/vertex.h</text>
</g>
<!-- Node2 -->
<g id="node3" class="node"><title>Node2</title>
<polygon style="fill:white;stroke:#bfbfbf;" points="735,-0 735,-20 775,-20 775,-0 735,-0"/>
<text text-anchor="middle" x="755" y="-7" style="font-family:Arial;font-size:10.00;">string</text>
</g>
<!-- Node1&#45;&gt;Node2 -->
<g id="edge2" class="edge"><title>Node1&#45;&gt;Node2</title>
<path style="fill:none;stroke:midnightblue;" d="M588,-282C760,-267 1105,-230 1105,-178 1105,-178 1105,-178 1105,-122 1105,-91 1109,-75 1086,-56 1063,-36 863,-19 785,-13"/>
<polygon style="fill:midnightblue;stroke:midnightblue;" points="785.299,-9.5125 775,-12 784.602,-16.4778 785.299,-9.5125"/>
</g>
<!-- Node3 -->
<g id="node5" class="node"><title>Node3</title>
<polygon style="fill:white;stroke:#bfbfbf;" points="959,-56 959,-76 1001,-76 1001,-56 959,-56"/>
<text text-anchor="middle" x="980" y="-63" style="font-family:Arial;font-size:10.00;">vector</text>
</g>
<!-- Node1&#45;&gt;Node3 -->
<g id="edge4" class="edge"><title>Node1&#45;&gt;Node3</title>
<path style="fill:none;stroke:midnightblue;" d="M516,-280C556,-262 645,-221 719,-188 802,-150 901,-103 950,-80"/>
<polygon style="fill:midnightblue;stroke:midnightblue;" points="951.283,-83.2598 959,-76 948.44,-76.8631 951.283,-83.2598"/>
</g>
<!-- Node4 -->
<g id="node7" class="node"><title>Node4</title>
<polygon style="fill:white;stroke:#bfbfbf;" points="0,-0 0,-20 56,-20 56,-0 0,-0"/>
<text text-anchor="middle" x="28" y="-7" style="font-family:Arial;font-size:10.00;">algorithm</text>
</g>
<!-- Node1&#45;&gt;Node4 -->
<g id="edge6" class="edge"><title>Node1&#45;&gt;Node4</title>
<path style="fill:none;stroke:midnightblue;" d="M400,-287C259,-280 9,-257 9,-178 9,-178 9,-178 9,-122 9,-89 17,-52 23,-30"/>
<polygon style="fill:midnightblue;stroke:midnightblue;" points="26.4708,-30.4922 25,-20 19.6067,-29.1194 26.4708,-30.4922"/>
</g>
<!-- Node5 -->
<g id="node9" class="node"><title>Node5</title>
<polygon style="fill:white;stroke:#bfbfbf;" points="1019,-56 1019,-76 1078,-76 1078,-56 1019,-56"/>
<text text-anchor="middle" x="1048" y="-63" style="font-family:Arial;font-size:10.00;">stdexcept</text>
</g>
<!-- Node1&#45;&gt;Node5 -->
<g id="edge8" class="edge"><title>Node1&#45;&gt;Node5</title>
<path style="fill:none;stroke:midnightblue;" d="M524,-280C551,-271 592,-257 627,-244 774,-188 946,-112 1016,-80"/>
<polygon style="fill:midnightblue;stroke:midnightblue;" points="1017.28,-83.2598 1025,-76 1014.44,-76.8631 1017.28,-83.2598"/>
</g>
<!-- Node6 -->
<g id="node11" class="node"><title>Node6</title>
<polygon style="fill:white;stroke:#bfbfbf;" points="37,-56 37,-76 111,-76 111,-56 37,-56"/>
<text text-anchor="middle" x="74" y="-63" style="font-family:Arial;font-size:10.00;">logog/logog.h</text>
</g>
<!-- Node1&#45;&gt;Node6 -->
<g id="edge10" class="edge"><title>Node1&#45;&gt;Node6</title>
<path style="fill:none;stroke:midnightblue;" d="M412,-280C375,-273 330,-262 293,-244 207,-202 125,-120 90,-83"/>
<polygon style="fill:midnightblue;stroke:midnightblue;" points="92.546,-80.5962 83,-76 87.5962,-85.546 92.546,-80.5962"/>
</g>
<!-- Node7 -->
<g id="node13" class="node"><title>Node7</title>
<a xlink:href="serializable__functor_8h.html" target="_top" xlink:title="ltr/interfaces/serializable_functor.h">
<polygon style="fill:white;stroke:black;" points="332,-224 332,-244 495,-244 495,-224 332,-224"/>
<text text-anchor="middle" x="413" y="-231" style="font-family:Arial;font-size:10.00;">ltr/interfaces/serializable_functor.h</text>
</a>
</g>
<!-- Node1&#45;&gt;Node7 -->
<g id="edge12" class="edge"><title>Node1&#45;&gt;Node7</title>
<path style="fill:none;stroke:midnightblue;" d="M480,-280C468,-272 450,-260 436,-250"/>
<polygon style="fill:midnightblue;stroke:midnightblue;" points="438.1,-247.2 428,-244 433.9,-252.8 438.1,-247.2"/>
</g>
<!-- Node8 -->
<g id="node15" class="node"><title>Node8</title>
<a xlink:href="shared__ptr_8h.html" target="_top" xlink:title="ltr/utility/shared_ptr.h">
<polygon style="fill:white;stroke:black;" points="129,-56 129,-76 236,-76 236,-56 129,-56"/>
<text text-anchor="middle" x="182" y="-63" style="font-family:Arial;font-size:10.00;">ltr/utility/shared_ptr.h</text>
</a>
</g>
<!-- Node1&#45;&gt;Node8 -->
<g id="edge76" class="edge"><title>Node1&#45;&gt;Node8</title>
<path style="fill:none;stroke:midnightblue;" d="M419,-280C388,-273 352,-262 323,-244 259,-203 212,-122 192,-85"/>
<polygon style="fill:midnightblue;stroke:midnightblue;" points="194.916,-83.0418 187,-76 188.797,-86.4414 194.916,-83.0418"/>
</g>
<!-- Node20 -->
<g id="node53" class="node"><title>Node20</title>
<a xlink:href="condition_8h.html" target="_top" xlink:title="ltr/learners/decision_tree/condition/condition.h">
<polygon style="fill:white;stroke:black;" points="496,-168 496,-188 711,-188 711,-168 496,-168"/>
<text text-anchor="middle" x="603" y="-175" style="font-family:Arial;font-size:10.00;">ltr/learners/decision_tree/condition/condition.h</text>
</a>
</g>
<!-- Node1&#45;&gt;Node20 -->
<g id="edge66" class="edge"><title>Node1&#45;&gt;Node20</title>
<path style="fill:none;stroke:midnightblue;" d="M504,-280C523,-260 563,-219 586,-195"/>
<polygon style="fill:midnightblue;stroke:midnightblue;" points="588.404,-197.546 593,-188 583.454,-192.596 588.404,-197.546"/>
</g>
<!-- Node7&#45;&gt;Node8 -->
<g id="edge14" class="edge"><title>Node7&#45;&gt;Node8</title>
<path style="fill:none;stroke:midnightblue;" d="M390,-224C371,-215 344,-202 323,-188 275,-155 225,-108 199,-83"/>
<polygon style="fill:midnightblue;stroke:midnightblue;" points="201.546,-80.5962 192,-76 196.596,-85.546 201.546,-80.5962"/>
</g>
<!-- Node11 -->
<g id="node22" class="node"><title>Node11</title>
<a xlink:href="functor_8h.html" target="_top" xlink:title="ltr/interfaces/functor.h">
<polygon style="fill:white;stroke:black;" points="332,-168 332,-188 441,-188 441,-168 332,-168"/>
<text text-anchor="middle" x="386" y="-175" style="font-family:Arial;font-size:10.00;">ltr/interfaces/functor.h</text>
</a>
</g>
<!-- Node7&#45;&gt;Node11 -->
<g id="edge22" class="edge"><title>Node7&#45;&gt;Node11</title>
<path style="fill:none;stroke:midnightblue;" d="M408,-224C404,-217 399,-206 395,-197"/>
<polygon style="fill:midnightblue;stroke:midnightblue;" points="398.26,-195.717 391,-188 391.863,-198.56 398.26,-195.717"/>
</g>
<!-- Node17 -->
<g id="node42" class="node"><title>Node17</title>
<a xlink:href="serializable_8h.html" target="_top" xlink:title="ltr/interfaces/serializable.h">
<polygon style="fill:white;stroke:black;" points="423,-112 423,-132 552,-132 552,-112 423,-112"/>
<text text-anchor="middle" x="487" y="-119" style="font-family:Arial;font-size:10.00;">ltr/interfaces/serializable.h</text>
</a>
</g>
<!-- Node7&#45;&gt;Node17 -->
<g id="edge50" class="edge"><title>Node7&#45;&gt;Node17</title>
<path style="fill:none;stroke:midnightblue;" d="M421,-224C429,-215 440,-201 449,-188 459,-173 469,-155 476,-141"/>
<polygon style="fill:midnightblue;stroke:midnightblue;" points="479.203,-142.441 481,-132 473.084,-139.042 479.203,-142.441"/>
</g>
<!-- Node8&#45;&gt;Node4 -->
<g id="edge16" class="edge"><title>Node8&#45;&gt;Node4</title>
<path style="fill:none;stroke:midnightblue;" d="M154,-56C129,-47 92,-33 65,-23"/>
<polygon style="fill:midnightblue;stroke:midnightblue;" points="65.584,-19.5212 55,-20 63.5725,-26.2259 65.584,-19.5212"/>
</g>
<!-- Node9 -->
<g id="node18" class="node"><title>Node9</title>
<polygon style="fill:white;stroke:#bfbfbf;" points="92,-0 92,-20 199,-20 199,-0 92,-0"/>
<text text-anchor="middle" x="145" y="-7" style="font-family:Arial;font-size:10.00;">boost/shared_ptr.hpp</text>
</g>
<!-- Node8&#45;&gt;Node9 -->
<g id="edge18" class="edge"><title>Node8&#45;&gt;Node9</title>
<path style="fill:none;stroke:midnightblue;" d="M175,-56C170,-48 164,-38 158,-29"/>
<polygon style="fill:midnightblue;stroke:midnightblue;" points="160.459,-26.3791 152,-20 154.635,-30.262 160.459,-26.3791"/>
</g>
<!-- Node10 -->
<g id="node20" class="node"><title>Node10</title>
<polygon style="fill:white;stroke:#bfbfbf;" points="216,-0 216,-20 407,-20 407,-0 216,-0"/>
<text text-anchor="middle" x="311" y="-7" style="font-family:Arial;font-size:10.00;">boost/smart_ptr/detail/operator_bool.hpp</text>
</g>
<!-- Node8&#45;&gt;Node10 -->
<g id="edge20" class="edge"><title>Node8&#45;&gt;Node10</title>
<path style="fill:none;stroke:midnightblue;" d="M205,-56C225,-47 255,-34 278,-24"/>
<polygon style="fill:midnightblue;stroke:midnightblue;" points="280.015,-26.9636 288,-20 277.415,-20.4643 280.015,-26.9636"/>
</g>
<!-- Node11&#45;&gt;Node2 -->
<g id="edge28" class="edge"><title>Node11&#45;&gt;Node2</title>
<path style="fill:none;stroke:midnightblue;" d="M385,-168C383,-144 381,-85 414,-56 425,-45 644,-21 725,-13"/>
<polygon style="fill:midnightblue;stroke:midnightblue;" points="725.398,-16.4778 735,-12 724.701,-9.5125 725.398,-16.4778"/>
</g>
<!-- Node11&#45;&gt;Node8 -->
<g id="edge24" class="edge"><title>Node11&#45;&gt;Node8</title>
<path style="fill:none;stroke:midnightblue;" d="M367,-168C350,-158 323,-144 301,-132 269,-114 234,-94 210,-81"/>
<polygon style="fill:midnightblue;stroke:midnightblue;" points="211.441,-77.7969 201,-76 208.042,-83.916 211.441,-77.7969"/>
</g>
<!-- Node12 -->
<g id="node25" class="node"><title>Node12</title>
<polygon style="fill:white;stroke:#bfbfbf;" points="253,-56 253,-76 367,-76 367,-56 253,-56"/>
<text text-anchor="middle" x="310" y="-63" style="font-family:Arial;font-size:10.00;">boost/lexical_cast.hpp</text>
</g>
<!-- Node11&#45;&gt;Node12 -->
<g id="edge26" class="edge"><title>Node11&#45;&gt;Node12</title>
<path style="fill:none;stroke:midnightblue;" d="M379,-168C366,-148 338,-109 322,-84"/>
<polygon style="fill:midnightblue;stroke:midnightblue;" points="325.268,-82.625 317,-76 319.332,-86.335 325.268,-82.625"/>
</g>
<!-- Node13 -->
<g id="node28" class="node"><title>Node13</title>
<a xlink:href="object_8h.html" target="_top" xlink:title="ltr/data/object.h">
<polygon style="fill:white;stroke:black;" points="713,-112 713,-132 797,-132 797,-112 713,-112"/>
<text text-anchor="middle" x="755" y="-119" style="font-family:Arial;font-size:10.00;">ltr/data/object.h</text>
</a>
</g>
<!-- Node11&#45;&gt;Node13 -->
<g id="edge30" class="edge"><title>Node11&#45;&gt;Node13</title>
<path style="fill:none;stroke:midnightblue;" d="M441,-170C511,-159 633,-141 703,-130"/>
<polygon style="fill:midnightblue;stroke:midnightblue;" points="703.881,-133.393 713,-128 702.508,-126.529 703.881,-133.393"/>
</g>
<!-- Node13&#45;&gt;Node2 -->
<g id="edge38" class="edge"><title>Node13&#45;&gt;Node2</title>
<path style="fill:none;stroke:midnightblue;" d="M794,-112C824,-103 864,-90 874,-76 898,-41 828,-22 785,-15"/>
<polygon style="fill:midnightblue;stroke:midnightblue;" points="785.492,-11.5292 775,-13 784.119,-18.3933 785.492,-11.5292"/>
</g>
<!-- Node13&#45;&gt;Node3 -->
<g id="edge40" class="edge"><title>Node13&#45;&gt;Node3</title>
<path style="fill:none;stroke:midnightblue;" d="M795,-112C839,-101 909,-84 949,-74"/>
<polygon style="fill:midnightblue;stroke:midnightblue;" points="950.427,-77.2259 959,-71 948.416,-70.5212 950.427,-77.2259"/>
</g>
<!-- Node13&#45;&gt;Node5 -->
<g id="edge36" class="edge"><title>Node13&#45;&gt;Node5</title>
<path style="fill:none;stroke:midnightblue;" d="M797,-115C846,-107 928,-93 1009,-76"/>
<polygon style="fill:midnightblue;stroke:midnightblue;" points="1009.88,-79.3933 1019,-74 1008.51,-72.5292 1009.88,-79.3933"/>
</g>
<!-- Node13&#45;&gt;Node8 -->
<g id="edge48" class="edge"><title>Node13&#45;&gt;Node8</title>
<path style="fill:none;stroke:midnightblue;" d="M713,-119C627,-113 425,-98 246,-76"/>
<polygon style="fill:midnightblue;stroke:midnightblue;" points="246.299,-72.5125 236,-75 245.602,-79.4778 246.299,-72.5125"/>
</g>
<!-- Node14 -->
<g id="node30" class="node"><title>Node14</title>
<polygon style="fill:white;stroke:#bfbfbf;" points="831,-56 831,-76 866,-76 866,-56 831,-56"/>
<text text-anchor="middle" x="848" y="-63" style="font-family:Arial;font-size:10.00;">map</text>
</g>
<!-- Node13&#45;&gt;Node14 -->
<g id="edge32" class="edge"><title>Node13&#45;&gt;Node14</title>
<path style="fill:none;stroke:midnightblue;" d="M772,-112C785,-104 806,-91 822,-81"/>
<polygon style="fill:midnightblue;stroke:midnightblue;" points="823.958,-83.916 831,-76 820.559,-77.7969 823.958,-83.916"/>
</g>
<!-- Node15 -->
<g id="node32" class="node"><title>Node15</title>
<polygon style="fill:white;stroke:#bfbfbf;" points="573,-0 573,-20 624,-20 624,-0 573,-0"/>
<text text-anchor="middle" x="598" y="-7" style="font-family:Arial;font-size:10.00;">ostream</text>
</g>
<!-- Node13&#45;&gt;Node15 -->
<g id="edge34" class="edge"><title>Node13&#45;&gt;Node15</title>
<path style="fill:none;stroke:midnightblue;" d="M713,-120C653,-116 547,-104 524,-76 507,-55 537,-36 564,-23"/>
<polygon style="fill:midnightblue;stroke:midnightblue;" points="565.283,-26.2598 573,-19 562.44,-19.8631 565.283,-26.2598"/>
</g>
<!-- Node16 -->
<g id="node37" class="node"><title>Node16</title>
<a xlink:href="printable_8h.html" target="_top" xlink:title="ltr/interfaces/printable.h">
<polygon style="fill:white;stroke:black;" points="697,-56 697,-76 814,-76 814,-56 697,-56"/>
<text text-anchor="middle" x="755" y="-63" style="font-family:Arial;font-size:10.00;">ltr/interfaces/printable.h</text>
</a>
</g>
<!-- Node13&#45;&gt;Node16 -->
<g id="edge42" class="edge"><title>Node13&#45;&gt;Node16</title>
<path style="fill:none;stroke:midnightblue;" d="M755,-112C755,-105 755,-95 755,-86"/>
<polygon style="fill:midnightblue;stroke:midnightblue;" points="758.5,-86 755,-76 751.5,-86 758.5,-86"/>
</g>
<!-- Node16&#45;&gt;Node2 -->
<g id="edge46" class="edge"><title>Node16&#45;&gt;Node2</title>
<path style="fill:none;stroke:midnightblue;" d="M755,-56C755,-49 755,-39 755,-30"/>
<polygon style="fill:midnightblue;stroke:midnightblue;" points="758.5,-30 755,-20 751.5,-30 758.5,-30"/>
</g>
<!-- Node16&#45;&gt;Node15 -->
<g id="edge44" class="edge"><title>Node16&#45;&gt;Node15</title>
<path style="fill:none;stroke:midnightblue;" d="M727,-56C701,-47 662,-33 634,-22"/>
<polygon style="fill:midnightblue;stroke:midnightblue;" points="634.584,-18.5212 624,-19 632.573,-25.2259 634.584,-18.5212"/>
</g>
<!-- Node17&#45;&gt;Node2 -->
<g id="edge56" class="edge"><title>Node17&#45;&gt;Node2</title>
<path style="fill:none;stroke:midnightblue;" d="M535,-112C568,-104 613,-92 650,-76 666,-68 705,-42 731,-26"/>
<polygon style="fill:midnightblue;stroke:midnightblue;" points="733.621,-28.4592 740,-20 729.738,-22.6349 733.621,-28.4592"/>
</g>
<!-- Node17&#45;&gt;Node6 -->
<g id="edge54" class="edge"><title>Node17&#45;&gt;Node6</title>
<path style="fill:none;stroke:midnightblue;" d="M423,-116C351,-108 233,-95 121,-76"/>
<polygon style="fill:midnightblue;stroke:midnightblue;" points="121.492,-72.5292 111,-74 120.119,-79.3933 121.492,-72.5292"/>
</g>
<!-- Node17&#45;&gt;Node8 -->
<g id="edge60" class="edge"><title>Node17&#45;&gt;Node8</title>
<path style="fill:none;stroke:midnightblue;" d="M432,-112C380,-103 301,-88 246,-78"/>
<polygon style="fill:midnightblue;stroke:midnightblue;" points="246.492,-74.5292 236,-76 245.119,-81.3933 246.492,-74.5292"/>
</g>
<!-- Node17&#45;&gt;Node12 -->
<g id="edge52" class="edge"><title>Node17&#45;&gt;Node12</title>
<path style="fill:none;stroke:midnightblue;" d="M455,-112C426,-103 383,-89 352,-79"/>
<polygon style="fill:midnightblue;stroke:midnightblue;" points="352.584,-75.5212 342,-76 350.573,-82.2259 352.584,-75.5212"/>
</g>
<!-- Node18 -->
<g id="node47" class="node"><title>Node18</title>
<polygon style="fill:white;stroke:#bfbfbf;" points="423,-56 423,-76 477,-76 477,-56 423,-56"/>
<text text-anchor="middle" x="450" y="-63" style="font-family:Arial;font-size:10.00;">iostream</text>
</g>
<!-- Node17&#45;&gt;Node18 -->
<g id="edge58" class="edge"><title>Node17&#45;&gt;Node18</title>
<path style="fill:none;stroke:midnightblue;" d="M480,-112C475,-104 469,-94 463,-85"/>
<polygon style="fill:midnightblue;stroke:midnightblue;" points="465.459,-82.3791 457,-76 459.635,-86.262 465.459,-82.3791"/>
</g>
<!-- Node19 -->
<g id="node50" class="node"><title>Node19</title>
<a xlink:href="aliaser_8h.html" target="_top" xlink:title="ltr/interfaces/aliaser.h">
<polygon style="fill:white;stroke:black;" points="533,-56 533,-76 641,-76 641,-56 533,-56"/>
<text text-anchor="middle" x="587" y="-63" style="font-family:Arial;font-size:10.00;">ltr/interfaces/aliaser.h</text>
</a>
</g>
<!-- Node17&#45;&gt;Node19 -->
<g id="edge62" class="edge"><title>Node17&#45;&gt;Node19</title>
<path style="fill:none;stroke:midnightblue;" d="M505,-112C520,-104 542,-91 560,-81"/>
<polygon style="fill:midnightblue;stroke:midnightblue;" points="561.958,-83.916 569,-76 558.559,-77.7969 561.958,-83.916"/>
</g>
<!-- Node19&#45;&gt;Node2 -->
<g id="edge64" class="edge"><title>Node19&#45;&gt;Node2</title>
<path style="fill:none;stroke:midnightblue;" d="M617,-56C648,-46 694,-31 725,-20"/>
<polygon style="fill:midnightblue;stroke:midnightblue;" points="726.427,-23.2259 735,-17 724.416,-16.5212 726.427,-23.2259"/>
</g>
<!-- Node20&#45;&gt;Node2 -->
<g id="edge68" class="edge"><title>Node20&#45;&gt;Node2</title>
<path style="fill:none;stroke:midnightblue;" d="M676,-168C716,-161 765,-150 806,-132 846,-114 867,-115 888,-76 909,-33 831,-18 785,-13"/>
<polygon style="fill:midnightblue;stroke:midnightblue;" points="785.299,-9.5125 775,-12 784.602,-16.4778 785.299,-9.5125"/>
</g>
<!-- Node20&#45;&gt;Node8 -->
<g id="edge74" class="edge"><title>Node20&#45;&gt;Node8</title>
<path style="fill:none;stroke:midnightblue;" d="M560,-168C521,-159 463,-145 414,-132 348,-114 272,-92 226,-79"/>
<polygon style="fill:midnightblue;stroke:midnightblue;" points="226.584,-75.5212 216,-76 224.573,-82.2259 226.584,-75.5212"/>
</g>
<!-- Node20&#45;&gt;Node13 -->
<g id="edge70" class="edge"><title>Node20&#45;&gt;Node13</title>
<path style="fill:none;stroke:midnightblue;" d="M630,-168C655,-159 691,-145 718,-135"/>
<polygon style="fill:midnightblue;stroke:midnightblue;" points="719.427,-138.226 728,-132 717.416,-131.521 719.427,-138.226"/>
</g>
<!-- Node20&#45;&gt;Node17 -->
<g id="edge72" class="edge"><title>Node20&#45;&gt;Node17</title>
<path style="fill:none;stroke:midnightblue;" d="M582,-168C564,-159 538,-146 517,-136"/>
<polygon style="fill:midnightblue;stroke:midnightblue;" points="518.56,-132.863 508,-132 515.717,-139.26 518.56,-132.863"/>
</g>
</g>
</svg>
