<?xml version="1.0" encoding="UTF-8" standalone="no"?>
<!DOCTYPE svg PUBLIC "-//W3C//DTD SVG 1.0//EN"
 "http://www.w3.org/TR/2001/REC-SVG-20010904/DTD/svg10.dtd" [
 <!ATTLIST svg xmlns:xlink CDATA #FIXED "http://www.w3.org/1999/xlink">
]>
<!-- Generated by Graphviz version 2.20.2 (Tue Mar &#160;2 19:03:41 UTC 2010)
     For user: (jenkins)  -->
<!-- Title: G Pages: 1 -->
<svg width="988pt" height="140pt"
 viewBox="0.00 0.00 988.00 140.00" xmlns="http://www.w3.org/2000/svg" xmlns:xlink="http://www.w3.org/1999/xlink">
<g id="graph0" class="graph" transform="scale(1 1) rotate(0) translate(4 136)">
<title>G</title>
<polygon style="fill:white;stroke:white;" points="-4,4 -4,-136 984,-136 984,4 -4,4"/>
<!-- Node1 -->
<g id="node1" class="node"><title>Node1</title>
<polygon style="fill:#bfbfbf;stroke:black;" points="167,-112 167,-132 355,-132 355,-112 167,-112"/>
<text text-anchor="middle" x="261" y="-119" style="font-family:Arial;font-size:10.00;">ltr/learners/decision_tree/vertex/vertex.h</text>
</g>
<!-- Node2 -->
<g id="node3" class="node"><title>Node2</title>
<polygon style="fill:white;stroke:#bfbfbf;" points="172,-0 172,-20 212,-20 212,-0 172,-0"/>
<text text-anchor="middle" x="192" y="-7" style="font-family:Arial;font-size:10.00;">string</text>
</g>
<!-- Node1&#45;&gt;Node2 -->
<g id="edge2" class="edge"><title>Node1&#45;&gt;Node2</title>
<path style="fill:none;stroke:midnightblue;" d="M167,-117C103,-112 26,-100 5,-76 0,-69 0,-62 5,-56 25,-32 114,-18 162,-13"/>
<polygon style="fill:midnightblue;stroke:midnightblue;" points="162.398,-16.4778 172,-12 161.701,-9.5125 162.398,-16.4778"/>
</g>
<!-- Node3 -->
<g id="node5" class="node"><title>Node3</title>
<polygon style="fill:white;stroke:#bfbfbf;" points="14,-56 14,-76 56,-76 56,-56 14,-56"/>
<text text-anchor="middle" x="35" y="-63" style="font-family:Arial;font-size:10.00;">vector</text>
</g>
<!-- Node1&#45;&gt;Node3 -->
<g id="edge4" class="edge"><title>Node1&#45;&gt;Node3</title>
<path style="fill:none;stroke:midnightblue;" d="M213,-112C176,-103 122,-91 66,-76"/>
<polygon style="fill:midnightblue;stroke:midnightblue;" points="66.584,-72.5212 56,-73 64.5725,-79.2259 66.584,-72.5212"/>
</g>
<!-- Node4 -->
<g id="node7" class="node"><title>Node4</title>
<polygon style="fill:white;stroke:#bfbfbf;" points="74,-56 74,-76 130,-76 130,-56 74,-56"/>
<text text-anchor="middle" x="102" y="-63" style="font-family:Arial;font-size:10.00;">algorithm</text>
</g>
<!-- Node1&#45;&gt;Node4 -->
<g id="edge6" class="edge"><title>Node1&#45;&gt;Node4</title>
<path style="fill:none;stroke:midnightblue;" d="M233,-112C207,-103 168,-89 140,-79"/>
<polygon style="fill:midnightblue;stroke:midnightblue;" points="140.584,-75.5212 130,-76 138.573,-82.2259 140.584,-75.5212"/>
</g>
<!-- Node5 -->
<g id="node9" class="node"><title>Node5</title>
<polygon style="fill:white;stroke:#bfbfbf;" points="148,-56 148,-76 207,-76 207,-56 148,-56"/>
<text text-anchor="middle" x="177" y="-63" style="font-family:Arial;font-size:10.00;">stdexcept</text>
</g>
<!-- Node1&#45;&gt;Node5 -->
<g id="edge8" class="edge"><title>Node1&#45;&gt;Node5</title>
<path style="fill:none;stroke:midnightblue;" d="M246,-112C234,-104 216,-91 201,-82"/>
<polygon style="fill:midnightblue;stroke:midnightblue;" points="202.262,-78.6349 192,-76 198.379,-84.4592 202.262,-78.6349"/>
</g>
<!-- Node6 -->
<g id="node11" class="node"><title>Node6</title>
<polygon style="fill:white;stroke:#bfbfbf;" points="224,-56 224,-76 298,-76 298,-56 224,-56"/>
<text text-anchor="middle" x="261" y="-63" style="font-family:Arial;font-size:10.00;">logog/logog.h</text>
</g>
<!-- Node1&#45;&gt;Node6 -->
<g id="edge10" class="edge"><title>Node1&#45;&gt;Node6</title>
<path style="fill:none;stroke:midnightblue;" d="M261,-112C261,-105 261,-95 261,-86"/>
<polygon style="fill:midnightblue;stroke:midnightblue;" points="264.5,-86 261,-76 257.5,-86 264.5,-86"/>
</g>
<!-- Node7 -->
<g id="node13" class="node"><title>Node7</title>
<polygon style="fill:white;stroke:#bfbfbf;" points="316,-56 316,-76 479,-76 479,-56 316,-56"/>
<text text-anchor="middle" x="397" y="-63" style="font-family:Arial;font-size:10.00;">ltr/interfaces/serializable_functor.h</text>
</g>
<!-- Node1&#45;&gt;Node7 -->
<g id="edge12" class="edge"><title>Node1&#45;&gt;Node7</title>
<path style="fill:none;stroke:midnightblue;" d="M285,-112C307,-103 339,-90 363,-80"/>
<polygon style="fill:midnightblue;stroke:midnightblue;" points="364.283,-83.2598 372,-76 361.44,-76.8631 364.283,-83.2598"/>
</g>
<!-- Node8 -->
<g id="node15" class="node"><title>Node8</title>
<a xlink:href="condition_8h.html" target="_top" xlink:title="ltr/learners/decision_tree/condition/condition.h">
<polygon style="fill:white;stroke:black;" points="496,-56 496,-76 711,-76 711,-56 496,-56"/>
<text text-anchor="middle" x="603" y="-63" style="font-family:Arial;font-size:10.00;">ltr/learners/decision_tree/condition/condition.h</text>
</a>
</g>
<!-- Node1&#45;&gt;Node8 -->
<g id="edge14" class="edge"><title>Node1&#45;&gt;Node8</title>
<path style="fill:none;stroke:midnightblue;" d="M322,-112C382,-103 470,-88 532,-78"/>
<polygon style="fill:midnightblue;stroke:midnightblue;" points="532.881,-81.3933 542,-76 531.508,-74.5292 532.881,-81.3933"/>
</g>
<!-- Node11 -->
<g id="node22" class="node"><title>Node11</title>
<polygon style="fill:white;stroke:#bfbfbf;" points="685,-0 685,-20 792,-20 792,-0 685,-0"/>
<text text-anchor="middle" x="738" y="-7" style="font-family:Arial;font-size:10.00;">ltr/utility/shared_ptr.h</text>
</g>
<!-- Node1&#45;&gt;Node11 -->
<g id="edge24" class="edge"><title>Node1&#45;&gt;Node11</title>
<path style="fill:none;stroke:midnightblue;" d="M355,-118C481,-112 691,-98 719,-76 732,-65 736,-45 738,-30"/>
<polygon style="fill:midnightblue;stroke:midnightblue;" points="741.5,-30 738,-20 734.5,-30 741.5,-30"/>
</g>
<!-- Node12 -->
<g id="node25" class="node"><title>Node12</title>
<polygon style="fill:white;stroke:#bfbfbf;" points="766,-56 766,-76 981,-76 981,-56 766,-56"/>
<text text-anchor="middle" x="873" y="-63" style="font-family:Arial;font-size:10.00;">ltr/learners/decision_tree/condition/condition.h</text>
</g>
<!-- Node1&#45;&gt;Node12 -->
<g id="edge26" class="edge"><title>Node1&#45;&gt;Node12</title>
<path style="fill:none;stroke:midnightblue;" d="M355,-113C463,-103 640,-88 756,-77"/>
<polygon style="fill:midnightblue;stroke:midnightblue;" points="756.398,-80.4778 766,-76 755.701,-73.5125 756.398,-80.4778"/>
</g>
<!-- Node8&#45;&gt;Node2 -->
<g id="edge16" class="edge"><title>Node8&#45;&gt;Node2</title>
<path style="fill:none;stroke:midnightblue;" d="M530,-56C438,-44 287,-23 222,-14"/>
<polygon style="fill:midnightblue;stroke:midnightblue;" points="222.299,-10.5125 212,-13 221.602,-17.4778 222.299,-10.5125"/>
</g>
<!-- Node9 -->
<g id="node18" class="node"><title>Node9</title>
<polygon style="fill:white;stroke:#bfbfbf;" points="437,-0 437,-20 521,-20 521,-0 437,-0"/>
<text text-anchor="middle" x="479" y="-7" style="font-family:Arial;font-size:10.00;">ltr/data/object.h</text>
</g>
<!-- Node8&#45;&gt;Node9 -->
<g id="edge18" class="edge"><title>Node8&#45;&gt;Node9</title>
<path style="fill:none;stroke:midnightblue;" d="M581,-56C561,-47 533,-34 510,-24"/>
<polygon style="fill:midnightblue;stroke:midnightblue;" points="511.56,-20.8631 501,-20 508.717,-27.2598 511.56,-20.8631"/>
</g>
<!-- Node10 -->
<g id="node20" class="node"><title>Node10</title>
<polygon style="fill:white;stroke:#bfbfbf;" points="539,-0 539,-20 668,-20 668,-0 539,-0"/>
<text text-anchor="middle" x="603" y="-7" style="font-family:Arial;font-size:10.00;">ltr/interfaces/serializable.h</text>
</g>
<!-- Node8&#45;&gt;Node10 -->
<g id="edge20" class="edge"><title>Node8&#45;&gt;Node10</title>
<path style="fill:none;stroke:midnightblue;" d="M603,-56C603,-49 603,-39 603,-30"/>
<polygon style="fill:midnightblue;stroke:midnightblue;" points="606.5,-30 603,-20 599.5,-30 606.5,-30"/>
</g>
<!-- Node8&#45;&gt;Node11 -->
<g id="edge22" class="edge"><title>Node8&#45;&gt;Node11</title>
<path style="fill:none;stroke:midnightblue;" d="M627,-56C649,-47 680,-34 704,-24"/>
<polygon style="fill:midnightblue;stroke:midnightblue;" points="706.015,-26.9636 714,-20 703.415,-20.4643 706.015,-26.9636"/>
</g>
</g>
</svg>
