<?xml version="1.0" encoding="UTF-8" standalone="no"?>
<!DOCTYPE svg PUBLIC "-//W3C//DTD SVG 1.0//EN"
 "http://www.w3.org/TR/2001/REC-SVG-20010904/DTD/svg10.dtd" [
 <!ATTLIST svg xmlns:xlink CDATA #FIXED "http://www.w3.org/1999/xlink">
]>
<!-- Generated by Graphviz version 2.20.2 (Tue Mar &#160;2 19:03:41 UTC 2010)
     For user: (jenkins)  -->
<!-- Title: G Pages: 1 -->
<svg width="1746pt" height="364pt"
 viewBox="0.00 0.00 1746.00 364.00" xmlns="http://www.w3.org/2000/svg" xmlns:xlink="http://www.w3.org/1999/xlink">
<g id="graph0" class="graph" transform="scale(1 1) rotate(0) translate(4 360)">
<title>G</title>
<polygon style="fill:white;stroke:white;" points="-4,4 -4,-360 1742,-360 1742,4 -4,4"/>
<!-- Node1 -->
<g id="node1" class="node"><title>Node1</title>
<polygon style="fill:#bfbfbf;stroke:black;" points="575,-336 575,-356 809,-356 809,-336 575,-336"/>
<text text-anchor="middle" x="692" y="-343" style="font-family:Arial;font-size:10.00;">ltr/learners/decision_tree/vertex/vertex_with_data.h</text>
</g>
<!-- Node2 -->
<g id="node3" class="node"><title>Node2</title>
<a xlink:href="data__set_8h.html" target="_top" xlink:title="ltr/data/data_set.h">
<polygon style="fill:white;stroke:black;" points="351,-280 351,-300 446,-300 446,-280 351,-280"/>
<text text-anchor="middle" x="398" y="-287" style="font-family:Arial;font-size:10.00;">ltr/data/data_set.h</text>
</a>
</g>
<!-- Node1&#45;&gt;Node2 -->
<g id="edge2" class="edge"><title>Node1&#45;&gt;Node2</title>
<path style="fill:none;stroke:midnightblue;" d="M639,-336C588,-327 509,-311 456,-301"/>
<polygon style="fill:midnightblue;stroke:midnightblue;" points="456.492,-297.529 446,-299 455.119,-304.393 456.492,-297.529"/>
</g>
<!-- Node26 -->
<g id="node84" class="node"><title>Node26</title>
<a xlink:href="vertex_8h.html" target="_top" xlink:title="ltr/learners/decision_tree/vertex/vertex.h">
<polygon style="fill:white;stroke:black;" points="908,-280 908,-300 1096,-300 1096,-280 908,-280"/>
<text text-anchor="middle" x="1002" y="-287" style="font-family:Arial;font-size:10.00;">ltr/learners/decision_tree/vertex/vertex.h</text>
</a>
</g>
<!-- Node1&#45;&gt;Node26 -->
<g id="edge116" class="edge"><title>Node1&#45;&gt;Node26</title>
<path style="fill:none;stroke:midnightblue;" d="M747,-336C801,-327 881,-312 937,-302"/>
<polygon style="fill:midnightblue;stroke:midnightblue;" points="937.881,-305.393 947,-300 936.508,-298.529 937.881,-305.393"/>
</g>
<!-- Node3 -->
<g id="node5" class="node"><title>Node3</title>
<polygon style="fill:white;stroke:#bfbfbf;" points="282,-224 282,-244 333,-244 333,-224 282,-224"/>
<text text-anchor="middle" x="307" y="-231" style="font-family:Arial;font-size:10.00;">sstream</text>
</g>
<!-- Node2&#45;&gt;Node3 -->
<g id="edge4" class="edge"><title>Node2&#45;&gt;Node3</title>
<path style="fill:none;stroke:midnightblue;" d="M382,-280C369,-272 348,-259 333,-249"/>
<polygon style="fill:midnightblue;stroke:midnightblue;" points="334.441,-245.797 324,-244 331.042,-251.916 334.441,-245.797"/>
</g>
<!-- Node4 -->
<g id="node7" class="node"><title>Node4</title>
<polygon style="fill:white;stroke:#bfbfbf;" points="726,-56 726,-76 785,-76 785,-56 726,-56"/>
<text text-anchor="middle" x="755" y="-63" style="font-family:Arial;font-size:10.00;">stdexcept</text>
</g>
<!-- Node2&#45;&gt;Node4 -->
<g id="edge6" class="edge"><title>Node2&#45;&gt;Node4</title>
<path style="fill:none;stroke:midnightblue;" d="M446,-283C532,-269 705,-236 740,-188 762,-157 761,-112 758,-86"/>
<polygon style="fill:midnightblue;stroke:midnightblue;" points="761.478,-85.6021 757,-76 754.512,-86.2987 761.478,-85.6021"/>
</g>
<!-- Node5 -->
<g id="node9" class="node"><title>Node5</title>
<polygon style="fill:white;stroke:#bfbfbf;" points="830,-0 830,-20 870,-20 870,-0 830,-0"/>
<text text-anchor="middle" x="850" y="-7" style="font-family:Arial;font-size:10.00;">string</text>
</g>
<!-- Node2&#45;&gt;Node5 -->
<g id="edge8" class="edge"><title>Node2&#45;&gt;Node5</title>
<path style="fill:none;stroke:midnightblue;" d="M446,-289C570,-285 888,-267 888,-178 888,-178 888,-178 888,-122 888,-87 872,-50 861,-29"/>
<polygon style="fill:midnightblue;stroke:midnightblue;" points="863.916,-27.0418 856,-20 857.797,-30.4414 863.916,-27.0418"/>
</g>
<!-- Node6 -->
<g id="node11" class="node"><title>Node6</title>
<polygon style="fill:white;stroke:#bfbfbf;" points="36,-56 36,-76 78,-76 78,-56 36,-56"/>
<text text-anchor="middle" x="57" y="-63" style="font-family:Arial;font-size:10.00;">vector</text>
</g>
<!-- Node2&#45;&gt;Node6 -->
<g id="edge10" class="edge"><title>Node2&#45;&gt;Node6</title>
<path style="fill:none;stroke:midnightblue;" d="M351,-288C273,-285 122,-275 80,-244 35,-211 39,-185 28,-132 27,-123 26,-120 28,-112 30,-102 36,-92 42,-84"/>
<polygon style="fill:midnightblue;stroke:midnightblue;" points="44.8,-86.1 48,-76 39.2,-81.9 44.8,-86.1"/>
</g>
<!-- Node7 -->
<g id="node13" class="node"><title>Node7</title>
<a xlink:href="object_8h.html" target="_top" xlink:title="ltr/data/object.h">
<polygon style="fill:white;stroke:black;" points="230,-112 230,-132 314,-132 314,-112 230,-112"/>
<text text-anchor="middle" x="272" y="-119" style="font-family:Arial;font-size:10.00;">ltr/data/object.h</text>
</a>
</g>
<!-- Node2&#45;&gt;Node7 -->
<g id="edge12" class="edge"><title>Node2&#45;&gt;Node7</title>
<path style="fill:none;stroke:midnightblue;" d="M356,-280C324,-271 283,-258 273,-244 251,-213 258,-168 265,-142"/>
<polygon style="fill:midnightblue;stroke:midnightblue;" points="268.479,-142.584 268,-132 261.774,-140.573 268.479,-142.584"/>
</g>
<!-- Node15 -->
<g id="node34" class="node"><title>Node15</title>
<a xlink:href="object__list_8h.html" target="_top" xlink:title="ltr/data/object_list.h">
<polygon style="fill:white;stroke:black;" points="309,-168 309,-188 411,-188 411,-168 309,-168"/>
<text text-anchor="middle" x="360" y="-175" style="font-family:Arial;font-size:10.00;">ltr/data/object_list.h</text>
</a>
</g>
<!-- Node2&#45;&gt;Node15 -->
<g id="edge38" class="edge"><title>Node2&#45;&gt;Node15</title>
<path style="fill:none;stroke:midnightblue;" d="M394,-280C388,-261 375,-222 366,-198"/>
<polygon style="fill:midnightblue;stroke:midnightblue;" points="369.226,-196.573 363,-188 362.521,-198.584 369.226,-196.573"/>
</g>
<!-- Node16 -->
<g id="node42" class="node"><title>Node16</title>
<a xlink:href="object__pair_8h.html" target="_top" xlink:title="ltr/data/object_pair.h">
<polygon style="fill:white;stroke:black;" points="467,-168 467,-188 571,-188 571,-168 467,-168"/>
<text text-anchor="middle" x="519" y="-175" style="font-family:Arial;font-size:10.00;">ltr/data/object_pair.h</text>
</a>
</g>
<!-- Node2&#45;&gt;Node16 -->
<g id="edge52" class="edge"><title>Node2&#45;&gt;Node16</title>
<path style="fill:none;stroke:midnightblue;" d="M405,-280C416,-266 435,-242 455,-224 467,-213 482,-202 494,-194"/>
<polygon style="fill:midnightblue;stroke:midnightblue;" points="496.1,-196.8 502,-188 491.9,-191.2 496.1,-196.8"/>
</g>
<!-- Node17 -->
<g id="node50" class="node"><title>Node17</title>
<a xlink:href="feature__info_8h.html" target="_top" xlink:title="ltr/data/feature_info.h">
<polygon style="fill:white;stroke:black;" points="89,-224 89,-244 196,-244 196,-224 89,-224"/>
<text text-anchor="middle" x="142" y="-231" style="font-family:Arial;font-size:10.00;">ltr/data/feature_info.h</text>
</a>
</g>
<!-- Node2&#45;&gt;Node17 -->
<g id="edge66" class="edge"><title>Node2&#45;&gt;Node17</title>
<path style="fill:none;stroke:midnightblue;" d="M352,-280C309,-271 244,-256 198,-246"/>
<polygon style="fill:midnightblue;stroke:midnightblue;" points="198.492,-242.529 188,-244 197.119,-249.393 198.492,-242.529"/>
</g>
<!-- Node24 -->
<g id="node74" class="node"><title>Node24</title>
<a xlink:href="per__object__accessor_8h.html" target="_top" xlink:title="ltr/data/per_object_accessor.h">
<polygon style="fill:white;stroke:black;" points="464,-224 464,-244 611,-244 611,-224 464,-224"/>
<text text-anchor="middle" x="537" y="-231" style="font-family:Arial;font-size:10.00;">ltr/data/per_object_accessor.h</text>
</a>
</g>
<!-- Node2&#45;&gt;Node24 -->
<g id="edge100" class="edge"><title>Node2&#45;&gt;Node24</title>
<path style="fill:none;stroke:midnightblue;" d="M423,-280C445,-271 478,-258 503,-248"/>
<polygon style="fill:midnightblue;stroke:midnightblue;" points="504.283,-251.26 512,-244 501.44,-244.863 504.283,-251.26"/>
</g>
<!-- Node25 -->
<g id="node81" class="node"><title>Node25</title>
<a xlink:href="aliaser_8h.html" target="_top" xlink:title="ltr/interfaces/aliaser.h">
<polygon style="fill:white;stroke:black;" points="1046,-56 1046,-76 1154,-76 1154,-56 1046,-56"/>
<text text-anchor="middle" x="1100" y="-63" style="font-family:Arial;font-size:10.00;">ltr/interfaces/aliaser.h</text>
</a>
</g>
<!-- Node2&#45;&gt;Node25 -->
<g id="edge112" class="edge"><title>Node2&#45;&gt;Node25</title>
<path style="fill:none;stroke:midnightblue;" d="M446,-289C556,-287 820,-279 902,-244 984,-207 1057,-122 1086,-84"/>
<polygon style="fill:midnightblue;stroke:midnightblue;" points="1088.8,-86.1 1092,-76 1083.2,-81.9 1088.8,-86.1"/>
</g>
<!-- Node7&#45;&gt;Node4 -->
<g id="edge18" class="edge"><title>Node7&#45;&gt;Node4</title>
<path style="fill:none;stroke:midnightblue;" d="M314,-117C406,-106 626,-81 716,-70"/>
<polygon style="fill:midnightblue;stroke:midnightblue;" points="716.398,-73.4778 726,-69 715.701,-66.5125 716.398,-73.4778"/>
</g>
<!-- Node7&#45;&gt;Node5 -->
<g id="edge20" class="edge"><title>Node7&#45;&gt;Node5</title>
<path style="fill:none;stroke:midnightblue;" d="M281,-112C295,-97 324,-68 355,-56 440,-21 726,-13 820,-10"/>
<polygon style="fill:midnightblue;stroke:midnightblue;" points="820,-13.5001 830,-10 820,-6.5001 820,-13.5001"/>
</g>
<!-- Node7&#45;&gt;Node6 -->
<g id="edge22" class="edge"><title>Node7&#45;&gt;Node6</title>
<path style="fill:none;stroke:midnightblue;" d="M232,-112C196,-103 141,-89 93,-76 91,-76 90,-75 88,-75"/>
<polygon style="fill:midnightblue;stroke:midnightblue;" points="88.584,-71.5212 78,-72 86.5725,-78.2259 88.584,-71.5212"/>
</g>
<!-- Node8 -->
<g id="node15" class="node"><title>Node8</title>
<polygon style="fill:white;stroke:#bfbfbf;" points="102,-56 102,-76 137,-76 137,-56 102,-56"/>
<text text-anchor="middle" x="119" y="-63" style="font-family:Arial;font-size:10.00;">map</text>
</g>
<!-- Node7&#45;&gt;Node8 -->
<g id="edge14" class="edge"><title>Node7&#45;&gt;Node8</title>
<path style="fill:none;stroke:midnightblue;" d="M245,-112C217,-102 175,-86 147,-76"/>
<polygon style="fill:midnightblue;stroke:midnightblue;" points="147.584,-72.5212 137,-73 145.573,-79.2259 147.584,-72.5212"/>
</g>
<!-- Node9 -->
<g id="node17" class="node"><title>Node9</title>
<polygon style="fill:white;stroke:#bfbfbf;" points="182,-0 182,-20 233,-20 233,-0 182,-0"/>
<text text-anchor="middle" x="207" y="-7" style="font-family:Arial;font-size:10.00;">ostream</text>
</g>
<!-- Node7&#45;&gt;Node9 -->
<g id="edge16" class="edge"><title>Node7&#45;&gt;Node9</title>
<path style="fill:none;stroke:midnightblue;" d="M232,-112C214,-105 194,-94 183,-76 173,-61 182,-42 192,-28"/>
<polygon style="fill:midnightblue;stroke:midnightblue;" points="194.8,-30.1 198,-20 189.2,-25.9 194.8,-30.1"/>
</g>
<!-- Node10 -->
<g id="node22" class="node"><title>Node10</title>
<a xlink:href="printable_8h.html" target="_top" xlink:title="ltr/interfaces/printable.h">
<polygon style="fill:white;stroke:black;" points="192,-56 192,-76 309,-76 309,-56 192,-56"/>
<text text-anchor="middle" x="250" y="-63" style="font-family:Arial;font-size:10.00;">ltr/interfaces/printable.h</text>
</a>
</g>
<!-- Node7&#45;&gt;Node10 -->
<g id="edge24" class="edge"><title>Node7&#45;&gt;Node10</title>
<path style="fill:none;stroke:midnightblue;" d="M268,-112C265,-105 261,-95 258,-85"/>
<polygon style="fill:midnightblue;stroke:midnightblue;" points="261.26,-83.7166 254,-76 254.863,-86.5596 261.26,-83.7166"/>
</g>
<!-- Node11 -->
<g id="node26" class="node"><title>Node11</title>
<a xlink:href="shared__ptr_8h.html" target="_top" xlink:title="ltr/utility/shared_ptr.h">
<polygon style="fill:white;stroke:black;" points="1490,-56 1490,-76 1597,-76 1597,-56 1490,-56"/>
<text text-anchor="middle" x="1543" y="-63" style="font-family:Arial;font-size:10.00;">ltr/utility/shared_ptr.h</text>
</a>
</g>
<!-- Node7&#45;&gt;Node11 -->
<g id="edge30" class="edge"><title>Node7&#45;&gt;Node11</title>
<path style="fill:none;stroke:midnightblue;" d="M314,-116C329,-114 346,-113 361,-112 840,-77 962,-107 1443,-76 1455,-75 1468,-74 1480,-73"/>
<polygon style="fill:midnightblue;stroke:midnightblue;" points="1480.4,-76.4778 1490,-72 1479.7,-69.5125 1480.4,-76.4778"/>
</g>
<!-- Node10&#45;&gt;Node5 -->
<g id="edge28" class="edge"><title>Node10&#45;&gt;Node5</title>
<path style="fill:none;stroke:midnightblue;" d="M309,-57C313,-57 318,-56 322,-56 510,-34 738,-18 820,-12"/>
<polygon style="fill:midnightblue;stroke:midnightblue;" points="820.398,-15.4778 830,-11 819.701,-8.5125 820.398,-15.4778"/>
</g>
<!-- Node10&#45;&gt;Node9 -->
<g id="edge26" class="edge"><title>Node10&#45;&gt;Node9</title>
<path style="fill:none;stroke:midnightblue;" d="M242,-56C237,-48 228,-38 221,-28"/>
<polygon style="fill:midnightblue;stroke:midnightblue;" points="223.8,-25.9 215,-20 218.2,-30.1 223.8,-25.9"/>
</g>
<!-- Node12 -->
<g id="node28" class="node"><title>Node12</title>
<polygon style="fill:white;stroke:#bfbfbf;" points="1682,-0 1682,-20 1738,-20 1738,-0 1682,-0"/>
<text text-anchor="middle" x="1710" y="-7" style="font-family:Arial;font-size:10.00;">algorithm</text>
</g>
<!-- Node11&#45;&gt;Node12 -->
<g id="edge32" class="edge"><title>Node11&#45;&gt;Node12</title>
<path style="fill:none;stroke:midnightblue;" d="M1573,-56C1601,-47 1642,-33 1672,-22"/>
<polygon style="fill:midnightblue;stroke:midnightblue;" points="1673.43,-25.2259 1682,-19 1671.42,-18.5212 1673.43,-25.2259"/>
</g>
<!-- Node13 -->
<g id="node30" class="node"><title>Node13</title>
<polygon style="fill:white;stroke:#bfbfbf;" points="1513,-0 1513,-20 1620,-20 1620,-0 1513,-0"/>
<text text-anchor="middle" x="1566" y="-7" style="font-family:Arial;font-size:10.00;">boost/shared_ptr.hpp</text>
</g>
<!-- Node11&#45;&gt;Node13 -->
<g id="edge34" class="edge"><title>Node11&#45;&gt;Node13</title>
<path style="fill:none;stroke:midnightblue;" d="M1547,-56C1550,-49 1554,-39 1558,-29"/>
<polygon style="fill:midnightblue;stroke:midnightblue;" points="1561.14,-30.5596 1562,-20 1554.74,-27.7166 1561.14,-30.5596"/>
</g>
<!-- Node14 -->
<g id="node32" class="node"><title>Node14</title>
<polygon style="fill:white;stroke:#bfbfbf;" points="1305,-0 1305,-20 1496,-20 1496,-0 1305,-0"/>
<text text-anchor="middle" x="1400" y="-7" style="font-family:Arial;font-size:10.00;">boost/smart_ptr/detail/operator_bool.hpp</text>
</g>
<!-- Node11&#45;&gt;Node14 -->
<g id="edge36" class="edge"><title>Node11&#45;&gt;Node14</title>
<path style="fill:none;stroke:midnightblue;" d="M1517,-56C1494,-47 1461,-34 1436,-24"/>
<polygon style="fill:midnightblue;stroke:midnightblue;" points="1436.58,-20.4643 1426,-20 1433.98,-26.9636 1436.58,-20.4643"/>
</g>
<!-- Node15&#45;&gt;Node4 -->
<g id="edge40" class="edge"><title>Node15&#45;&gt;Node4</title>
<path style="fill:none;stroke:midnightblue;" d="M411,-171C479,-162 595,-146 636,-132 641,-130 694,-100 728,-81"/>
<polygon style="fill:midnightblue;stroke:midnightblue;" points="729.958,-83.916 737,-76 726.559,-77.7969 729.958,-83.916"/>
</g>
<!-- Node15&#45;&gt;Node5 -->
<g id="edge42" class="edge"><title>Node15&#45;&gt;Node5</title>
<path style="fill:none;stroke:midnightblue;" d="M411,-171C472,-161 569,-145 603,-132 617,-126 703,-62 717,-56 751,-39 792,-25 820,-18"/>
<polygon style="fill:midnightblue;stroke:midnightblue;" points="821.427,-21.2259 830,-15 819.416,-14.5212 821.427,-21.2259"/>
</g>
<!-- Node15&#45;&gt;Node6 -->
<g id="edge44" class="edge"><title>Node15&#45;&gt;Node6</title>
<path style="fill:none;stroke:midnightblue;" d="M309,-172C265,-166 201,-154 150,-132 122,-119 93,-98 76,-83"/>
<polygon style="fill:midnightblue;stroke:midnightblue;" points="77.8306,-79.9511 68,-76 73.221,-85.2191 77.8306,-79.9511"/>
</g>
<!-- Node15&#45;&gt;Node7 -->
<g id="edge46" class="edge"><title>Node15&#45;&gt;Node7</title>
<path style="fill:none;stroke:midnightblue;" d="M344,-168C331,-160 312,-147 296,-137"/>
<polygon style="fill:midnightblue;stroke:midnightblue;" points="298.335,-134.332 288,-132 294.625,-140.268 298.335,-134.332"/>
</g>
<!-- Node15&#45;&gt;Node10 -->
<g id="edge48" class="edge"><title>Node15&#45;&gt;Node10</title>
<path style="fill:none;stroke:midnightblue;" d="M311,-168C275,-160 232,-147 221,-132 210,-117 221,-98 232,-84"/>
<polygon style="fill:midnightblue;stroke:midnightblue;" points="235.049,-85.8306 239,-76 229.781,-81.221 235.049,-85.8306"/>
</g>
<!-- Node15&#45;&gt;Node11 -->
<g id="edge50" class="edge"><title>Node15&#45;&gt;Node11</title>
<path style="fill:none;stroke:midnightblue;" d="M411,-172C426,-171 443,-169 458,-168 846,-140 950,-199 1334,-132 1397,-121 1468,-95 1509,-80"/>
<polygon style="fill:midnightblue;stroke:midnightblue;" points="1510.28,-83.2598 1518,-76 1507.44,-76.8631 1510.28,-83.2598"/>
</g>
<!-- Node16&#45;&gt;Node4 -->
<g id="edge54" class="edge"><title>Node16&#45;&gt;Node4</title>
<path style="fill:none;stroke:midnightblue;" d="M570,-168C601,-161 641,-149 674,-132 699,-119 723,-98 738,-83"/>
<polygon style="fill:midnightblue;stroke:midnightblue;" points="740.404,-85.546 745,-76 735.454,-80.5962 740.404,-85.546"/>
</g>
<!-- Node16&#45;&gt;Node5 -->
<g id="edge56" class="edge"><title>Node16&#45;&gt;Node5</title>
<path style="fill:none;stroke:midnightblue;" d="M571,-169C608,-161 657,-149 698,-132 743,-113 755,-107 793,-76 810,-62 825,-42 837,-28"/>
<polygon style="fill:midnightblue;stroke:midnightblue;" points="839.8,-30.1 843,-20 834.2,-25.9 839.8,-30.1"/>
</g>
<!-- Node16&#45;&gt;Node6 -->
<g id="edge58" class="edge"><title>Node16&#45;&gt;Node6</title>
<path style="fill:none;stroke:midnightblue;" d="M467,-171C394,-162 266,-144 221,-132 173,-118 119,-96 87,-80"/>
<polygon style="fill:midnightblue;stroke:midnightblue;" points="88.5596,-76.8631 78,-76 85.7166,-83.2598 88.5596,-76.8631"/>
</g>
<!-- Node16&#45;&gt;Node7 -->
<g id="edge60" class="edge"><title>Node16&#45;&gt;Node7</title>
<path style="fill:none;stroke:midnightblue;" d="M475,-168C433,-159 369,-144 324,-134"/>
<polygon style="fill:midnightblue;stroke:midnightblue;" points="324.492,-130.529 314,-132 323.119,-137.393 324.492,-130.529"/>
</g>
<!-- Node16&#45;&gt;Node10 -->
<g id="edge62" class="edge"><title>Node16&#45;&gt;Node10</title>
<path style="fill:none;stroke:midnightblue;" d="M474,-168C441,-160 398,-148 361,-132 343,-124 302,-98 275,-81"/>
<polygon style="fill:midnightblue;stroke:midnightblue;" points="276.441,-77.7969 266,-76 273.042,-83.916 276.441,-77.7969"/>
</g>
<!-- Node16&#45;&gt;Node11 -->
<g id="edge64" class="edge"><title>Node16&#45;&gt;Node11</title>
<path style="fill:none;stroke:midnightblue;" d="M571,-169C574,-168 577,-168 580,-168 770,-148 1260,-191 1443,-132 1459,-126 1497,-100 1521,-82"/>
<polygon style="fill:midnightblue;stroke:midnightblue;" points="1523.1,-84.8 1529,-76 1518.9,-79.2 1523.1,-84.8"/>
</g>
<!-- Node17&#45;&gt;Node5 -->
<g id="edge70" class="edge"><title>Node17&#45;&gt;Node5</title>
<path style="fill:none;stroke:midnightblue;" d="M113,-224C94,-216 71,-204 55,-188 14,-144 -14,-99 27,-56 54,-26 674,-13 820,-10"/>
<polygon style="fill:midnightblue;stroke:midnightblue;" points="820,-13.5001 830,-10 820,-6.5001 820,-13.5001"/>
</g>
<!-- Node17&#45;&gt;Node6 -->
<g id="edge72" class="edge"><title>Node17&#45;&gt;Node6</title>
<path style="fill:none;stroke:midnightblue;" d="M125,-224C99,-208 54,-174 36,-132 30,-117 36,-98 44,-85"/>
<polygon style="fill:midnightblue;stroke:midnightblue;" points="47.2031,-86.4414 49,-76 41.084,-83.0418 47.2031,-86.4414"/>
</g>
<!-- Node17&#45;&gt;Node8 -->
<g id="edge68" class="edge"><title>Node17&#45;&gt;Node8</title>
<path style="fill:none;stroke:midnightblue;" d="M141,-224C137,-197 127,-123 122,-86"/>
<polygon style="fill:midnightblue;stroke:midnightblue;" points="125.393,-85.1194 120,-76 118.529,-86.4922 125.393,-85.1194"/>
</g>
<!-- Node17&#45;&gt;Node11 -->
<g id="edge98" class="edge"><title>Node17&#45;&gt;Node11</title>
<path style="fill:none;stroke:midnightblue;" d="M196,-229C220,-227 248,-225 273,-224 404,-216 1330,-228 1455,-188 1496,-174 1514,-170 1537,-132 1545,-118 1546,-100 1545,-86"/>
<polygon style="fill:midnightblue;stroke:midnightblue;" points="1548.48,-85.6021 1544,-76 1541.51,-86.2987 1548.48,-85.6021"/>
</g>
<!-- Node18 -->
<g id="node55" class="node"><title>Node18</title>
<a xlink:href="parameterized_8h.html" target="_top" xlink:title="ltr/interfaces/parameterized.h">
<polygon style="fill:white;stroke:black;" points="589,-168 589,-188 731,-188 731,-168 589,-168"/>
<text text-anchor="middle" x="660" y="-175" style="font-family:Arial;font-size:10.00;">ltr/interfaces/parameterized.h</text>
</a>
</g>
<!-- Node17&#45;&gt;Node18 -->
<g id="edge74" class="edge"><title>Node17&#45;&gt;Node18</title>
<path style="fill:none;stroke:midnightblue;" d="M196,-229C277,-220 434,-205 579,-188"/>
<polygon style="fill:midnightblue;stroke:midnightblue;" points="579.398,-191.478 589,-187 578.701,-184.512 579.398,-191.478"/>
</g>
<!-- Node18&#45;&gt;Node4 -->
<g id="edge76" class="edge"><title>Node18&#45;&gt;Node4</title>
<path style="fill:none;stroke:midnightblue;" d="M673,-168C684,-159 700,-145 712,-132 724,-117 736,-99 744,-85"/>
<polygon style="fill:midnightblue;stroke:midnightblue;" points="747.203,-86.4414 749,-76 741.084,-83.0418 747.203,-86.4414"/>
</g>
<!-- Node18&#45;&gt;Node5 -->
<g id="edge78" class="edge"><title>Node18&#45;&gt;Node5</title>
<path style="fill:none;stroke:midnightblue;" d="M721,-168C762,-160 811,-148 826,-132 851,-104 853,-57 852,-30"/>
<polygon style="fill:midnightblue;stroke:midnightblue;" points="855.478,-29.6021 851,-20 848.512,-30.2987 855.478,-29.6021"/>
</g>
<!-- Node19 -->
<g id="node59" class="node"><title>Node19</title>
<a xlink:href="parameters__container_8h.html" target="_top" xlink:title="ltr/parameters_container/parameters_container.h">
<polygon style="fill:white;stroke:black;" points="370,-112 370,-132 595,-132 595,-112 370,-112"/>
<text text-anchor="middle" x="482" y="-119" style="font-family:Arial;font-size:10.00;">ltr/parameters_container/parameters_container.h</text>
</a>
</g>
<!-- Node18&#45;&gt;Node19 -->
<g id="edge80" class="edge"><title>Node18&#45;&gt;Node19</title>
<path style="fill:none;stroke:midnightblue;" d="M628,-168C599,-159 556,-145 524,-135"/>
<polygon style="fill:midnightblue;stroke:midnightblue;" points="524.584,-131.521 514,-132 522.573,-138.226 524.584,-131.521"/>
</g>
<!-- Node19&#45;&gt;Node4 -->
<g id="edge86" class="edge"><title>Node19&#45;&gt;Node4</title>
<path style="fill:none;stroke:midnightblue;" d="M531,-112C583,-101 667,-84 716,-74"/>
<polygon style="fill:midnightblue;stroke:midnightblue;" points="716.881,-77.3933 726,-72 715.508,-70.5292 716.881,-77.3933"/>
</g>
<!-- Node19&#45;&gt;Node5 -->
<g id="edge88" class="edge"><title>Node19&#45;&gt;Node5</title>
<path style="fill:none;stroke:midnightblue;" d="M522,-112C555,-103 601,-90 641,-76 660,-68 664,-63 684,-56 730,-39 786,-24 820,-16"/>
<polygon style="fill:midnightblue;stroke:midnightblue;" points="820.881,-19.3933 830,-14 819.508,-12.5292 820.881,-19.3933"/>
</g>
<!-- Node19&#45;&gt;Node10 -->
<g id="edge96" class="edge"><title>Node19&#45;&gt;Node10</title>
<path style="fill:none;stroke:midnightblue;" d="M441,-112C402,-103 344,-88 302,-78"/>
<polygon style="fill:midnightblue;stroke:midnightblue;" points="302.492,-74.5292 292,-76 301.119,-81.3933 302.492,-74.5292"/>
</g>
<!-- Node19&#45;&gt;Node11 -->
<g id="edge94" class="edge"><title>Node19&#45;&gt;Node11</title>
<path style="fill:none;stroke:midnightblue;" d="M595,-118C775,-112 1137,-98 1443,-76 1455,-75 1468,-74 1480,-72"/>
<polygon style="fill:midnightblue;stroke:midnightblue;" points="1480.4,-75.4778 1490,-71 1479.7,-68.5125 1480.4,-75.4778"/>
</g>
<!-- Node20 -->
<g id="node61" class="node"><title>Node20</title>
<polygon style="fill:white;stroke:#bfbfbf;" points="954,-56 954,-76 1028,-76 1028,-56 954,-56"/>
<text text-anchor="middle" x="991" y="-63" style="font-family:Arial;font-size:10.00;">logog/logog.h</text>
</g>
<!-- Node19&#45;&gt;Node20 -->
<g id="edge82" class="edge"><title>Node19&#45;&gt;Node20</title>
<path style="fill:none;stroke:midnightblue;" d="M573,-112C681,-100 859,-81 944,-71"/>
<polygon style="fill:midnightblue;stroke:midnightblue;" points="944.398,-74.4778 954,-70 943.701,-67.5125 944.398,-74.4778"/>
</g>
<!-- Node21 -->
<g id="node63" class="node"><title>Node21</title>
<polygon style="fill:white;stroke:#bfbfbf;" points="364,-56 364,-76 393,-76 393,-56 364,-56"/>
<text text-anchor="middle" x="378" y="-63" style="font-family:Arial;font-size:10.00;">list</text>
</g>
<!-- Node19&#45;&gt;Node21 -->
<g id="edge84" class="edge"><title>Node19&#45;&gt;Node21</title>
<path style="fill:none;stroke:midnightblue;" d="M463,-112C446,-103 421,-89 402,-79"/>
<polygon style="fill:midnightblue;stroke:midnightblue;" points="403.441,-75.7969 393,-74 400.042,-81.916 403.441,-75.7969"/>
</g>
<!-- Node22 -->
<g id="node67" class="node"><title>Node22</title>
<polygon style="fill:white;stroke:#bfbfbf;" points="410,-56 410,-76 487,-76 487,-56 410,-56"/>
<text text-anchor="middle" x="448" y="-63" style="font-family:Arial;font-size:10.00;">boost/any.hpp</text>
</g>
<!-- Node19&#45;&gt;Node22 -->
<g id="edge90" class="edge"><title>Node19&#45;&gt;Node22</title>
<path style="fill:none;stroke:midnightblue;" d="M476,-112C472,-105 465,-94 459,-85"/>
<polygon style="fill:midnightblue;stroke:midnightblue;" points="461.916,-83.0418 454,-76 455.797,-86.4414 461.916,-83.0418"/>
</g>
<!-- Node23 -->
<g id="node69" class="node"><title>Node23</title>
<polygon style="fill:white;stroke:#bfbfbf;" points="504,-56 504,-76 633,-76 633,-56 504,-56"/>
<text text-anchor="middle" x="568" y="-63" style="font-family:Arial;font-size:10.00;">boost/unordered_map.hpp</text>
</g>
<!-- Node19&#45;&gt;Node23 -->
<g id="edge92" class="edge"><title>Node19&#45;&gt;Node23</title>
<path style="fill:none;stroke:midnightblue;" d="M497,-112C510,-104 529,-91 544,-82"/>
<polygon style="fill:midnightblue;stroke:midnightblue;" points="546.1,-84.8 552,-76 541.9,-79.2 546.1,-84.8"/>
</g>
<!-- Node24&#45;&gt;Node7 -->
<g id="edge102" class="edge"><title>Node24&#45;&gt;Node7</title>
<path style="fill:none;stroke:midnightblue;" d="M520,-224C489,-206 430,-172 420,-168 389,-154 352,-143 323,-135"/>
<polygon style="fill:midnightblue;stroke:midnightblue;" points="323.584,-131.521 313,-132 321.573,-138.226 323.584,-131.521"/>
</g>
<!-- Node24&#45;&gt;Node11 -->
<g id="edge110" class="edge"><title>Node24&#45;&gt;Node11</title>
<path style="fill:none;stroke:midnightblue;" d="M611,-234C846,-232 1561,-223 1595,-188 1618,-163 1608,-142 1595,-112 1590,-100 1579,-89 1569,-82"/>
<polygon style="fill:midnightblue;stroke:midnightblue;" points="1571.1,-79.2 1561,-76 1566.9,-84.8 1571.1,-79.2"/>
</g>
<!-- Node24&#45;&gt;Node15 -->
<g id="edge106" class="edge"><title>Node24&#45;&gt;Node15</title>
<path style="fill:none;stroke:midnightblue;" d="M505,-224C476,-215 433,-201 402,-191"/>
<polygon style="fill:midnightblue;stroke:midnightblue;" points="402.584,-187.521 392,-188 400.573,-194.226 402.584,-187.521"/>
</g>
<!-- Node24&#45;&gt;Node16 -->
<g id="edge104" class="edge"><title>Node24&#45;&gt;Node16</title>
<path style="fill:none;stroke:midnightblue;" d="M534,-224C532,-217 529,-207 525,-197"/>
<polygon style="fill:midnightblue;stroke:midnightblue;" points="528.483,-196.38 522,-188 521.842,-198.594 528.483,-196.38"/>
</g>
<!-- Node24&#45;&gt;Node18 -->
<g id="edge108" class="edge"><title>Node24&#45;&gt;Node18</title>
<path style="fill:none;stroke:midnightblue;" d="M559,-224C578,-215 606,-202 629,-192"/>
<polygon style="fill:midnightblue;stroke:midnightblue;" points="630.283,-195.26 638,-188 627.44,-188.863 630.283,-195.26"/>
</g>
<!-- Node25&#45;&gt;Node5 -->
<g id="edge114" class="edge"><title>Node25&#45;&gt;Node5</title>
<path style="fill:none;stroke:midnightblue;" d="M1055,-56C1004,-45 924,-27 880,-17"/>
<polygon style="fill:midnightblue;stroke:midnightblue;" points="880.492,-13.5292 870,-15 879.119,-20.3933 880.492,-13.5292"/>
</g>
<!-- Node26&#45;&gt;Node4 -->
<g id="edge124" class="edge"><title>Node26&#45;&gt;Node4</title>
<path style="fill:none;stroke:midnightblue;" d="M990,-280C979,-270 963,-256 950,-244 884,-185 807,-114 773,-83"/>
<polygon style="fill:midnightblue;stroke:midnightblue;" points="775.546,-80.5962 766,-76 770.596,-85.546 775.546,-80.5962"/>
</g>
<!-- Node26&#45;&gt;Node5 -->
<g id="edge118" class="edge"><title>Node26&#45;&gt;Node5</title>
<path style="fill:none;stroke:midnightblue;" d="M999,-280C990,-246 957,-132 902,-56 893,-44 883,-35 873,-27"/>
<polygon style="fill:midnightblue;stroke:midnightblue;" points="874.831,-23.9511 865,-20 870.221,-29.2191 874.831,-23.9511"/>
</g>
<!-- Node26&#45;&gt;Node6 -->
<g id="edge120" class="edge"><title>Node26&#45;&gt;Node6</title>
<path style="fill:none;stroke:midnightblue;" d="M908,-285C775,-277 539,-261 455,-244 297,-212 243,-222 111,-132 93,-120 78,-100 68,-85"/>
<polygon style="fill:midnightblue;stroke:midnightblue;" points="70.916,-83.0418 63,-76 64.7969,-86.4414 70.916,-83.0418"/>
</g>
<!-- Node26&#45;&gt;Node11 -->
<g id="edge166" class="edge"><title>Node26&#45;&gt;Node11</title>
<path style="fill:none;stroke:midnightblue;" d="M1096,-284C1186,-278 1323,-265 1441,-244 1535,-226 1590,-263 1650,-188 1670,-161 1669,-140 1651,-112 1641,-96 1624,-86 1607,-79"/>
<polygon style="fill:midnightblue;stroke:midnightblue;" points="1607.58,-75.5212 1597,-76 1605.57,-82.2259 1607.58,-75.5212"/>
</g>
<!-- Node26&#45;&gt;Node12 -->
<g id="edge122" class="edge"><title>Node26&#45;&gt;Node12</title>
<path style="fill:none;stroke:midnightblue;" d="M1096,-285C1294,-274 1733,-242 1733,-178 1733,-178 1733,-178 1733,-122 1733,-89 1723,-52 1716,-29"/>
<polygon style="fill:midnightblue;stroke:midnightblue;" points="1719.48,-28.38 1713,-20 1712.84,-30.5937 1719.48,-28.38"/>
</g>
<!-- Node26&#45;&gt;Node20 -->
<g id="edge126" class="edge"><title>Node26&#45;&gt;Node20</title>
<path style="fill:none;stroke:midnightblue;" d="M1001,-280C999,-245 994,-133 992,-86"/>
<polygon style="fill:midnightblue;stroke:midnightblue;" points="995.478,-85.6021 991,-76 988.512,-86.2987 995.478,-85.6021"/>
</g>
<!-- Node27 -->
<g id="node91" class="node"><title>Node27</title>
<a xlink:href="serializable__functor_8h.html" target="_top" xlink:title="ltr/interfaces/serializable_functor.h">
<polygon style="fill:white;stroke:black;" points="1270,-224 1270,-244 1433,-244 1433,-224 1270,-224"/>
<text text-anchor="middle" x="1351" y="-231" style="font-family:Arial;font-size:10.00;">ltr/interfaces/serializable_functor.h</text>
</a>
</g>
<!-- Node26&#45;&gt;Node27 -->
<g id="edge128" class="edge"><title>Node26&#45;&gt;Node27</title>
<path style="fill:none;stroke:midnightblue;" d="M1064,-280C1125,-271 1216,-256 1279,-246"/>
<polygon style="fill:midnightblue;stroke:midnightblue;" points="1279.88,-249.393 1289,-244 1278.51,-242.529 1279.88,-249.393"/>
</g>
<!-- Node32 -->
<g id="node110" class="node"><title>Node32</title>
<a xlink:href="condition_8h.html" target="_top" xlink:title="ltr/learners/decision_tree/condition/condition.h">
<polygon style="fill:white;stroke:black;" points="1068,-168 1068,-188 1283,-188 1283,-168 1068,-168"/>
<text text-anchor="middle" x="1175" y="-175" style="font-family:Arial;font-size:10.00;">ltr/learners/decision_tree/condition/condition.h</text>
</a>
</g>
<!-- Node26&#45;&gt;Node32 -->
<g id="edge156" class="edge"><title>Node26&#45;&gt;Node32</title>
<path style="fill:none;stroke:midnightblue;" d="M1018,-280C1048,-260 1114,-216 1151,-193"/>
<polygon style="fill:midnightblue;stroke:midnightblue;" points="1152.38,-196.268 1159,-188 1148.66,-190.332 1152.38,-196.268"/>
</g>
<!-- Node27&#45;&gt;Node11 -->
<g id="edge130" class="edge"><title>Node27&#45;&gt;Node11</title>
<path style="fill:none;stroke:midnightblue;" d="M1433,-226C1512,-217 1620,-203 1633,-188 1654,-162 1650,-140 1633,-112 1624,-97 1609,-87 1593,-80"/>
<polygon style="fill:midnightblue;stroke:midnightblue;" points="1594.56,-76.8631 1584,-76 1591.72,-83.2598 1594.56,-76.8631"/>
</g>
<!-- Node28 -->
<g id="node94" class="node"><title>Node28</title>
<a xlink:href="functor_8h.html" target="_top" xlink:title="ltr/interfaces/functor.h">
<polygon style="fill:white;stroke:black;" points="1338,-168 1338,-188 1447,-188 1447,-168 1338,-168"/>
<text text-anchor="middle" x="1392" y="-175" style="font-family:Arial;font-size:10.00;">ltr/interfaces/functor.h</text>
</a>
</g>
<!-- Node27&#45;&gt;Node28 -->
<g id="edge132" class="edge"><title>Node27&#45;&gt;Node28</title>
<path style="fill:none;stroke:midnightblue;" d="M1358,-224C1364,-216 1372,-206 1378,-197"/>
<polygon style="fill:midnightblue;stroke:midnightblue;" points="1381.37,-198.262 1384,-188 1375.54,-194.379 1381.37,-198.262"/>
</g>
<!-- Node30 -->
<g id="node101" class="node"><title>Node30</title>
<a xlink:href="serializable_8h.html" target="_top" xlink:title="ltr/interfaces/serializable.h">
<polygon style="fill:white;stroke:black;" points="1197,-112 1197,-132 1326,-132 1326,-112 1197,-112"/>
<text text-anchor="middle" x="1261" y="-119" style="font-family:Arial;font-size:10.00;">ltr/interfaces/serializable.h</text>
</a>
</g>
<!-- Node27&#45;&gt;Node30 -->
<g id="edge142" class="edge"><title>Node27&#45;&gt;Node30</title>
<path style="fill:none;stroke:midnightblue;" d="M1343,-224C1327,-204 1294,-164 1275,-140"/>
<polygon style="fill:midnightblue;stroke:midnightblue;" points="1277.8,-137.9 1269,-132 1272.2,-142.1 1277.8,-137.9"/>
</g>
<!-- Node28&#45;&gt;Node5 -->
<g id="edge138" class="edge"><title>Node28&#45;&gt;Node5</title>
<path style="fill:none;stroke:midnightblue;" d="M1403,-168C1425,-145 1473,-90 1443,-56 1424,-35 999,-16 880,-11"/>
<polygon style="fill:midnightblue;stroke:midnightblue;" points="880,-7.5001 870,-11 880,-14.5001 880,-7.5001"/>
</g>
<!-- Node28&#45;&gt;Node7 -->
<g id="edge140" class="edge"><title>Node28&#45;&gt;Node7</title>
<path style="fill:none;stroke:midnightblue;" d="M1338,-172C1323,-170 1306,-169 1291,-168 878,-139 773,-163 361,-132 349,-131 336,-130 324,-128"/>
<polygon style="fill:midnightblue;stroke:midnightblue;" points="324.299,-124.512 314,-127 323.602,-131.478 324.299,-124.512"/>
</g>
<!-- Node28&#45;&gt;Node11 -->
<g id="edge134" class="edge"><title>Node28&#45;&gt;Node11</title>
<path style="fill:none;stroke:midnightblue;" d="M1447,-169C1472,-162 1500,-151 1519,-132 1531,-119 1537,-101 1540,-86"/>
<polygon style="fill:midnightblue;stroke:midnightblue;" points="1543.47,-86.4922 1542,-76 1536.61,-85.1194 1543.47,-86.4922"/>
</g>
<!-- Node29 -->
<g id="node97" class="node"><title>Node29</title>
<polygon style="fill:white;stroke:#bfbfbf;" points="1320,-56 1320,-76 1434,-76 1434,-56 1320,-56"/>
<text text-anchor="middle" x="1377" y="-63" style="font-family:Arial;font-size:10.00;">boost/lexical_cast.hpp</text>
</g>
<!-- Node28&#45;&gt;Node29 -->
<g id="edge136" class="edge"><title>Node28&#45;&gt;Node29</title>
<path style="fill:none;stroke:midnightblue;" d="M1388,-168C1384,-159 1379,-145 1377,-132 1375,-117 1375,-100 1375,-86"/>
<polygon style="fill:midnightblue;stroke:midnightblue;" points="1378.49,-86.2987 1376,-76 1371.52,-85.6021 1378.49,-86.2987"/>
</g>
<!-- Node30&#45;&gt;Node5 -->
<g id="edge148" class="edge"><title>Node30&#45;&gt;Node5</title>
<path style="fill:none;stroke:midnightblue;" d="M1254,-112C1244,-97 1222,-69 1196,-56 1140,-28 954,-15 880,-11"/>
<polygon style="fill:midnightblue;stroke:midnightblue;" points="880,-7.5001 870,-11 880,-14.5001 880,-7.5001"/>
</g>
<!-- Node30&#45;&gt;Node11 -->
<g id="edge152" class="edge"><title>Node30&#45;&gt;Node11</title>
<path style="fill:none;stroke:midnightblue;" d="M1311,-112C1360,-103 1432,-88 1483,-78"/>
<polygon style="fill:midnightblue;stroke:midnightblue;" points="1483.88,-81.3933 1493,-76 1482.51,-74.5292 1483.88,-81.3933"/>
</g>
<!-- Node30&#45;&gt;Node20 -->
<g id="edge146" class="edge"><title>Node30&#45;&gt;Node20</title>
<path style="fill:none;stroke:midnightblue;" d="M1211,-112C1168,-103 1104,-90 1038,-76"/>
<polygon style="fill:midnightblue;stroke:midnightblue;" points="1038.49,-72.5292 1028,-74 1037.12,-79.3933 1038.49,-72.5292"/>
</g>
<!-- Node30&#45;&gt;Node25 -->
<g id="edge154" class="edge"><title>Node30&#45;&gt;Node25</title>
<path style="fill:none;stroke:midnightblue;" d="M1232,-112C1206,-103 1167,-89 1139,-79"/>
<polygon style="fill:midnightblue;stroke:midnightblue;" points="1139.58,-75.5212 1129,-76 1137.57,-82.2259 1139.58,-75.5212"/>
</g>
<!-- Node30&#45;&gt;Node29 -->
<g id="edge144" class="edge"><title>Node30&#45;&gt;Node29</title>
<path style="fill:none;stroke:midnightblue;" d="M1282,-112C1300,-103 1326,-90 1347,-80"/>
<polygon style="fill:midnightblue;stroke:midnightblue;" points="1348.28,-83.2598 1356,-76 1345.44,-76.8631 1348.28,-83.2598"/>
</g>
<!-- Node31 -->
<g id="node106" class="node"><title>Node31</title>
<polygon style="fill:white;stroke:#bfbfbf;" points="1248,-56 1248,-76 1302,-76 1302,-56 1248,-56"/>
<text text-anchor="middle" x="1275" y="-63" style="font-family:Arial;font-size:10.00;">iostream</text>
</g>
<!-- Node30&#45;&gt;Node31 -->
<g id="edge150" class="edge"><title>Node30&#45;&gt;Node31</title>
<path style="fill:none;stroke:midnightblue;" d="M1264,-112C1266,-105 1268,-95 1271,-86"/>
<polygon style="fill:midnightblue;stroke:midnightblue;" points="1274.47,-86.4922 1273,-76 1267.61,-85.1194 1274.47,-86.4922"/>
</g>
<!-- Node32&#45;&gt;Node5 -->
<g id="edge158" class="edge"><title>Node32&#45;&gt;Node5</title>
<path style="fill:none;stroke:midnightblue;" d="M1178,-168C1183,-144 1192,-87 1163,-56 1143,-35 955,-19 880,-13"/>
<polygon style="fill:midnightblue;stroke:midnightblue;" points="880.299,-9.5125 870,-12 879.602,-16.4778 880.299,-9.5125"/>
</g>
<!-- Node32&#45;&gt;Node7 -->
<g id="edge160" class="edge"><title>Node32&#45;&gt;Node7</title>
<path style="fill:none;stroke:midnightblue;" d="M1068,-174C912,-167 614,-153 361,-132 349,-130 336,-129 324,-128"/>
<polygon style="fill:midnightblue;stroke:midnightblue;" points="324.299,-124.512 314,-127 323.602,-131.478 324.299,-124.512"/>
</g>
<!-- Node32&#45;&gt;Node11 -->
<g id="edge164" class="edge"><title>Node32&#45;&gt;Node11</title>
<path style="fill:none;stroke:midnightblue;" d="M1283,-169C1357,-161 1447,-149 1481,-132 1502,-121 1519,-100 1530,-84"/>
<polygon style="fill:midnightblue;stroke:midnightblue;" points="1532.8,-86.1 1536,-76 1527.2,-81.9 1532.8,-86.1"/>
</g>
<!-- Node32&#45;&gt;Node30 -->
<g id="edge162" class="edge"><title>Node32&#45;&gt;Node30</title>
<path style="fill:none;stroke:midnightblue;" d="M1190,-168C1203,-160 1222,-147 1237,-138"/>
<polygon style="fill:midnightblue;stroke:midnightblue;" points="1239.1,-140.8 1245,-132 1234.9,-135.2 1239.1,-140.8"/>
</g>
</g>
</svg>
