<?xml version="1.0" encoding="UTF-8" standalone="no"?>
<!DOCTYPE svg PUBLIC "-//W3C//DTD SVG 1.0//EN"
 "http://www.w3.org/TR/2001/REC-SVG-20010904/DTD/svg10.dtd" [
 <!ATTLIST svg xmlns:xlink CDATA #FIXED "http://www.w3.org/1999/xlink">
]>
<!-- Generated by Graphviz version 2.20.2 (Tue Mar &#160;2 19:03:41 UTC 2010)
     For user: (jenkins)  -->
<!-- Title: G Pages: 1 -->
<svg width="1390pt" height="84pt"
 viewBox="0.00 0.00 1390.00 84.00" xmlns="http://www.w3.org/2000/svg" xmlns:xlink="http://www.w3.org/1999/xlink">
<g id="graph0" class="graph" transform="scale(1 1) rotate(0) translate(4 80)">
<title>G</title>
<polygon style="fill:white;stroke:white;" points="-4,4 -4,-80 1386,-80 1386,4 -4,4"/>
<!-- Node1 -->
<g id="node1" class="node"><title>Node1</title>
<polygon style="fill:#bfbfbf;stroke:black;" points="662,-56 662,-76 924,-76 924,-56 662,-56"/>
<text text-anchor="middle" x="793" y="-63" style="font-family:Arial;font-size:10.00;">ltr/predictions_aggregators/vote_predictions_aggregator.h</text>
</g>
<!-- Node2 -->
<g id="node3" class="node"><title>Node2</title>
<a xlink:href="nearest__neighbor__learner__unittest_8cc.html" target="_top" xlink:title="ltr/learners/nearest_neighbor_learner/nearest_neighbor_learner_unittest.cc">
<polygon style="fill:white;stroke:black;" points="0,-0 0,-20 336,-20 336,-0 0,-0"/>
<text text-anchor="middle" x="168" y="-7" style="font-family:Arial;font-size:10.00;">ltr/learners/nearest_neighbor_learner/nearest_neighbor_learner_unittest.cc</text>
</a>
</g>
<!-- Node1&#45;&gt;Node2 -->
<g id="edge2" class="edge"><title>Node1&#45;&gt;Node2</title>
<path style="fill:none;stroke:midnightblue;" d="M671,-55C557,-45 389,-30 279,-20"/>
<polygon style="fill:midnightblue;stroke:midnightblue;" points="670.701,-58.4875 681,-56 671.398,-51.5222 670.701,-58.4875"/>
</g>
<!-- Node3 -->
<g id="node5" class="node"><title>Node3</title>
<a xlink:href="predictions__aggregators__unittest_8cc.html" target="_top" xlink:title="ltr/predictions_aggregators/predictions_aggregators_unittest.cc">
<polygon style="fill:white;stroke:black;" points="354,-0 354,-20 642,-20 642,-0 354,-0"/>
<text text-anchor="middle" x="498" y="-7" style="font-family:Arial;font-size:10.00;">ltr/predictions_aggregators/predictions_aggregators_unittest.cc</text>
</a>
</g>
<!-- Node1&#45;&gt;Node3 -->
<g id="edge4" class="edge"><title>Node1&#45;&gt;Node3</title>
<path style="fill:none;stroke:midnightblue;" d="M730,-54C676,-44 601,-29 551,-20"/>
<polygon style="fill:midnightblue;stroke:midnightblue;" points="729.508,-57.4708 740,-56 730.881,-50.6067 729.508,-57.4708"/>
</g>
<!-- Node4 -->
<g id="node7" class="node"><title>Node4</title>
<a xlink:href="vote__predictions__aggregator_8cc.html" target="_top" xlink:title="ltr/predictions_aggregators/vote_predictions_aggregator.cc">
<polygon style="fill:white;stroke:black;" points="660,-0 660,-20 927,-20 927,-0 660,-0"/>
<text text-anchor="middle" x="793" y="-7" style="font-family:Arial;font-size:10.00;">ltr/predictions_aggregators/vote_predictions_aggregator.cc</text>
</a>
</g>
<!-- Node1&#45;&gt;Node4 -->
<g id="edge6" class="edge"><title>Node1&#45;&gt;Node4</title>
<path style="fill:none;stroke:midnightblue;" d="M793,-46C793,-37 793,-28 793,-20"/>
<polygon style="fill:midnightblue;stroke:midnightblue;" points="789.5,-46 793,-56 796.5,-46 789.5,-46"/>
</g>
<!-- Node5 -->
<g id="node9" class="node"><title>Node5</title>
<a xlink:href="nearest__neighbor__scorer__unittest_8cc.html" target="_top" xlink:title="ltr/scorers/nearest_neighbor_scorer_unittest.cc">
<polygon style="fill:white;stroke:black;" points="944,-0 944,-20 1164,-20 1164,-0 944,-0"/>
<text text-anchor="middle" x="1054" y="-7" style="font-family:Arial;font-size:10.00;">ltr/scorers/nearest_neighbor_scorer_unittest.cc</text>
</a>
</g>
<!-- Node1&#45;&gt;Node5 -->
<g id="edge8" class="edge"><title>Node1&#45;&gt;Node5</title>
<path style="fill:none;stroke:midnightblue;" d="M850,-54C897,-44 963,-29 1007,-20"/>
<polygon style="fill:midnightblue;stroke:midnightblue;" points="849.119,-50.6067 840,-56 850.492,-57.4708 849.119,-50.6067"/>
</g>
<!-- Node6 -->
<g id="node11" class="node"><title>Node6</title>
<a xlink:href="generator_8cc.html" target="_top" xlink:title="ltr/serialization_test/generator/generator.cc">
<polygon style="fill:white;stroke:black;" points="1182,-0 1182,-20 1383,-20 1383,-0 1182,-0"/>
<text text-anchor="middle" x="1282" y="-7" style="font-family:Arial;font-size:10.00;">ltr/serialization_test/generator/generator.cc</text>
</a>
</g>
<!-- Node1&#45;&gt;Node6 -->
<g id="edge10" class="edge"><title>Node1&#45;&gt;Node6</title>
<path style="fill:none;stroke:midnightblue;" d="M890,-55C979,-45 1109,-30 1195,-20"/>
<polygon style="fill:midnightblue;stroke:midnightblue;" points="889.602,-51.5222 880,-56 890.299,-58.4875 889.602,-51.5222"/>
</g>
</g>
</svg>
